<svg xmlns="http://www.w3.org/2000/svg" width="121" height="121" viewBox="0 0 121 121" shape-rendering="crispEdges">
  <rect x="0" y="0" width="12" height="4" fill="#d74b32"/>
  <rect x="12" y="0" width="8" height="4" fill="#d74b34"/>
  <rect x="20" y="0" width="2" height="4" fill="#d74b36"/>
  <rect x="22" y="0" width="4" height="4" fill="#d74b34"/>
  <rect x="26" y="0" width="6" height="4" fill="#d74b32"/>
  <rect x="32" y="0" width="89" height="4" fill="#d74b34"/>
  <rect x="0" y="4" width="8" height="3" fill="#d74b32"/>
  <rect x="8" y="4" width="8" height="3" fill="#d74b34"/>
  <rect x="16" y="4" width="6" height="4" fill="#d54934"/>
  <rect x="22" y="4" width="4" height="4" fill="#d54a32"/>
  <rect x="26" y="4" width="6" height="4" fill="#d54a30"/>
  <rect x="32" y="4" width="89" height="4" fill="#d54a32"/>
  <rect x="0" y="7" width="8" height="1" fill="#d54a30"/>
  <rect x="8" y="7" width="8" height="1" fill="#d54a32"/>
  <rect x="0" y="8" width="4" height="1" fill="#d54a30"/>
  <rect x="4" y="8" width="8" height="1" fill="#d54a32"/>
  <rect x="12" y="8" width="4" height="1" fill="#d54934"/>
  <rect x="16" y="8" width="105" height="4" fill="#d54a32"/>
  <rect x="0" y="9" width="4" height="3" fill="#d4492f"/>
  <rect x="4" y="9" width="8" height="3" fill="#d44931"/>
  <rect x="12" y="9" width="4" height="3" fill="#d44833"/>
  <rect x="0" y="12" width="8" height="4" fill="#d44931"/>
  <rect x="8" y="12" width="2" height="4" fill="#d44833"/>
  <rect x="10" y="12" width="6" height="4" fill="#d44931"/>
  <rect x="16" y="12" width="4" height="4" fill="#d44833"/>
  <rect x="20" y="12" width="101" height="4" fill="#d44931"/>
  <rect x="0" y="16" width="4" height="4" fill="#d44931"/>
  <rect x="4" y="16" width="2" height="4" fill="#d44833"/>
  <rect x="6" y="16" width="115" height="4" fill="#d44931"/>
  <rect x="0" y="20" width="6" height="4" fill="#d34732"/>
  <rect x="6" y="20" width="115" height="4" fill="#d34830"/>
  <rect x="0" y="24" width="10" height="4" fill="#d34732"/>
  <rect x="10" y="24" width="111" height="4" fill="#d34830"/>
  <rect x="0" y="28" width="10" height="4" fill="#d24631"/>
  <rect x="10" y="28" width="6" height="4" fill="#d04731"/>
  <rect x="16" y="28" width="10" height="4" fill="#d2462f"/>
  <rect x="26" y="28" width="10" height="4" fill="#d0472f"/>
  <rect x="36" y="28" width="38" height="4" fill="#d2462f"/>
  <rect x="74" y="28" width="6" height="4" fill="#d0472f"/>
  <rect x="80" y="28" width="10" height="4" fill="#d2462f"/>
  <rect x="90" y="28" width="10" height="4" fill="#d0472f"/>
  <rect x="100" y="28" width="21" height="4" fill="#d2462f"/>
  <rect x="0" y="32" width="6" height="6" fill="#d14530"/>
  <rect x="6" y="32" width="10" height="4" fill="#cf4630"/>
  <rect x="16" y="32" width="6" height="6" fill="#d14530"/>
  <rect x="22" y="32" width="38" height="4" fill="#cf4630"/>
  <rect x="60" y="32" width="10" height="6" fill="#d14530"/>
  <rect x="70" y="32" width="10" height="4" fill="#cf4630"/>
  <rect x="80" y="32" width="6" height="6" fill="#d14530"/>
  <rect x="86" y="32" width="35" height="4" fill="#cf4630"/>
  <rect x="6" y="36" width="4" height="4" fill="#cf4630"/>
  <rect x="10" y="36" width="2" height="4" fill="#ce4630"/>
  <rect x="12" y="36" width="4" height="2" fill="#cf4630"/>
  <rect x="22" y="36" width="4" height="4" fill="#cf4630"/>
  <rect x="26" y="36" width="2" height="4" fill="#ce4630"/>
  <rect x="28" y="36" width="32" height="2" fill="#cf4630"/>
  <rect x="70" y="36" width="4" height="4" fill="#cf4630"/>
  <rect x="74" y="36" width="2" height="4" fill="#ce4630"/>
  <rect x="76" y="36" width="4" height="2" fill="#cf4630"/>
  <rect x="86" y="36" width="4" height="4" fill="#cf4630"/>
  <rect x="90" y="36" width="2" height="4" fill="#ce4630"/>
  <rect x="92" y="36" width="29" height="4" fill="#cf4630"/>
  <rect x="0" y="38" width="4" height="2" fill="#cf4630"/>
  <rect x="4" y="38" width="2" height="2" fill="#d14530"/>
  <rect x="12" y="38" width="8" height="2" fill="#cf4630"/>
  <rect x="20" y="38" width="2" height="2" fill="#d14530"/>
  <rect x="28" y="38" width="40" height="2" fill="#cf4630"/>
  <rect x="68" y="38" width="2" height="2" fill="#d14530"/>
  <rect x="76" y="38" width="8" height="2" fill="#cf4630"/>
  <rect x="84" y="38" width="2" height="2" fill="#d14530"/>
  <rect x="0" y="40" width="36" height="2" fill="#ce442f"/>
  <rect x="36" y="40" width="2" height="4" fill="#d0442f"/>
  <rect x="38" y="40" width="4" height="8" fill="#ce442f"/>
  <rect x="42" y="40" width="2" height="8" fill="#cc452f"/>
  <rect x="44" y="40" width="8" height="8" fill="#ce442f"/>
  <rect x="52" y="40" width="2" height="8" fill="#d0442f"/>
  <rect x="54" y="40" width="4" height="8" fill="#ce442f"/>
  <rect x="58" y="40" width="2" height="2" fill="#cc452f"/>
  <rect x="60" y="40" width="40" height="2" fill="#ce442f"/>
  <rect x="100" y="40" width="2" height="4" fill="#d0442f"/>
  <rect x="102" y="40" width="4" height="8" fill="#ce442f"/>
  <rect x="106" y="40" width="2" height="8" fill="#cc452f"/>
  <rect x="108" y="40" width="8" height="8" fill="#ce442f"/>
  <rect x="116" y="40" width="2" height="8" fill="#d0442f"/>
  <rect x="118" y="40" width="3" height="8" fill="#ce442f"/>
  <rect x="0" y="42" width="4" height="6" fill="#cc452f"/>
  <rect x="4" y="42" width="12" height="2" fill="#ce442f"/>
  <rect x="16" y="42" width="4" height="2" fill="#cc452f"/>
  <rect x="20" y="42" width="16" height="2" fill="#ce442f"/>
  <rect x="58" y="42" width="10" height="6" fill="#cc452f"/>
  <rect x="68" y="42" width="12" height="2" fill="#ce442f"/>
  <rect x="80" y="42" width="4" height="2" fill="#cc452f"/>
  <rect x="84" y="42" width="16" height="2" fill="#ce442f"/>
  <rect x="4" y="44" width="24" height="4" fill="#ce442f"/>
  <rect x="28" y="44" width="10" height="4" fill="#d0442f"/>
  <rect x="68" y="44" width="24" height="4" fill="#ce442f"/>
  <rect x="92" y="44" width="10" height="4" fill="#d0442f"/>
  <rect x="0" y="48" width="121" height="6" fill="#cd432d"/>
  <rect x="0" y="54" width="10" height="2" fill="#cd432d"/>
  <rect x="10" y="54" width="6" height="1" fill="#cb442d"/>
  <rect x="16" y="54" width="105" height="1" fill="#cd432d"/>
  <rect x="10" y="55" width="7" height="1" fill="#cb442d"/>
  <rect x="17" y="55" width="104" height="1" fill="#cd432d"/>
  <rect x="0" y="56" width="6" height="8" fill="#cc422c"/>
  <rect x="6" y="56" width="115" height="1" fill="#ca432c"/>
  <rect x="6" y="57" width="10" height="1" fill="#ca432c"/>
  <rect x="16" y="57" width="105" height="1" fill="#c9442c"/>
  <rect x="6" y="58" width="4" height="6" fill="#ca432c"/>
  <rect x="10" y="58" width="111" height="6" fill="#c9442c"/>
  <rect x="0" y="64" width="121" height="8" fill="#c9422b"/>
  <rect x="0" y="72" width="121" height="49" fill="#c8412a"/>
</svg>