<svg xmlns="http://www.w3.org/2000/svg" width="800" height="200" viewBox="0 0 800 200" shape-rendering="crispEdges">
  <rect x="0" y="0" width="6" height="6" fill="#f6c99d"/>
  <rect x="6" y="0" width="2" height="6" fill="#f5ca9d"/>
  <rect x="8" y="0" width="2" height="4" fill="#f3cb9d"/>
  <rect x="10" y="0" width="2" height="4" fill="#f2cc9d"/>
  <rect x="12" y="0" width="8" height="4" fill="#f3cb9d"/>
  <rect x="20" y="0" width="780" height="4" fill="#f5ca9d"/>
  <rect x="8" y="4" width="8" height="3" fill="#f3cb9d"/>
  <rect x="16" y="4" width="784" height="4" fill="#f5ca9d"/>
  <rect x="0" y="6" width="8" height="1" fill="#f5ca9d"/>
  <rect x="0" y="7" width="8" height="1" fill="#f4c99c"/>
  <rect x="8" y="7" width="8" height="1" fill="#f2ca9c"/>
  <rect x="0" y="8" width="4" height="1" fill="#f2ca9c"/>
  <rect x="4" y="8" width="2" height="1" fill="#f4c99c"/>
  <rect x="6" y="8" width="2" height="1" fill="#f2ca9c"/>
  <rect x="8" y="8" width="2" height="1" fill="#f4c99c"/>
  <rect x="10" y="8" width="2" height="1" fill="#f2ca9c"/>
  <rect x="12" y="8" width="788" height="1" fill="#f4c99c"/>
  <rect x="0" y="9" width="4" height="1" fill="#f1c89b"/>
  <rect x="4" y="9" width="2" height="1" fill="#f2c89b"/>
  <rect x="6" y="9" width="2" height="1" fill="#f1c89b"/>
  <rect x="8" y="9" width="2" height="3" fill="#f2c89b"/>
  <rect x="10" y="9" width="2" height="2" fill="#f1c89b"/>
  <rect x="12" y="9" width="4" height="2" fill="#f2c89b"/>
  <rect x="16" y="9" width="784" height="7" fill="#f4c99c"/>
  <rect x="0" y="10" width="3" height="1" fill="#efc99b"/>
  <rect x="3" y="10" width="5" height="1" fill="#f1c89b"/>
  <rect x="0" y="11" width="4" height="1" fill="#efc99b"/>
  <rect x="4" y="11" width="4" height="1" fill="#f1c89b"/>
  <rect x="10" y="11" width="1" height="1" fill="#f1c89b"/>
  <rect x="11" y="11" width="5" height="1" fill="#f2c89b"/>
  <rect x="0" y="12" width="8" height="4" fill="#f1c89b"/>
  <rect x="8" y="12" width="4" height="4" fill="#f2c89b"/>
  <rect x="12" y="12" width="4" height="4" fill="#f4c79b"/>
  <rect x="0" y="16" width="4" height="4" fill="#f1c89b"/>
  <rect x="4" y="16" width="796" height="4" fill="#f2c89b"/>
  <rect x="0" y="20" width="800" height="4" fill="#f1c69a"/>
  <rect x="0" y="24" width="800" height="4" fill="#f0c598"/>
  <rect x="0" y="28" width="800" height="4" fill="#efc497"/>
  <rect x="0" y="32" width="28" height="4" fill="#eec396"/>
  <rect x="28" y="32" width="16" height="4" fill="#eec394"/>
  <rect x="44" y="32" width="16" height="4" fill="#eec396"/>
  <rect x="60" y="32" width="16" height="4" fill="#eec394"/>
  <rect x="76" y="32" width="16" height="4" fill="#eec396"/>
  <rect x="92" y="32" width="16" height="4" fill="#eec394"/>
  <rect x="108" y="32" width="16" height="4" fill="#eec396"/>
  <rect x="124" y="32" width="16" height="4" fill="#eec394"/>
  <rect x="140" y="32" width="16" height="4" fill="#eec396"/>
  <rect x="156" y="32" width="16" height="4" fill="#eec394"/>
  <rect x="172" y="32" width="16" height="4" fill="#eec396"/>
  <rect x="188" y="32" width="16" height="4" fill="#eec394"/>
  <rect x="204" y="32" width="16" height="4" fill="#eec396"/>
  <rect x="220" y="32" width="16" height="4" fill="#eec394"/>
  <rect x="236" y="32" width="16" height="4" fill="#eec396"/>
  <rect x="252" y="32" width="16" height="4" fill="#eec394"/>
  <rect x="268" y="32" width="16" height="4" fill="#eec396"/>
  <rect x="284" y="32" width="16" height="4" fill="#eec394"/>
  <rect x="300" y="32" width="16" height="4" fill="#eec396"/>
  <rect x="316" y="32" width="16" height="4" fill="#eec394"/>
  <rect x="332" y="32" width="16" height="4" fill="#eec396"/>
  <rect x="348" y="32" width="16" height="4" fill="#eec394"/>
  <rect x="364" y="32" width="16" height="4" fill="#eec396"/>
  <rect x="380" y="32" width="16" height="4" fill="#eec394"/>
  <rect x="396" y="32" width="16" height="4" fill="#eec396"/>
  <rect x="412" y="32" width="16" height="4" fill="#eec394"/>
  <rect x="428" y="32" width="16" height="4" fill="#eec396"/>
  <rect x="444" y="32" width="16" height="4" fill="#eec394"/>
  <rect x="460" y="32" width="16" height="4" fill="#eec396"/>
  <rect x="476" y="32" width="16" height="4" fill="#eec394"/>
  <rect x="492" y="32" width="16" height="4" fill="#eec396"/>
  <rect x="508" y="32" width="16" height="4" fill="#eec394"/>
  <rect x="524" y="32" width="16" height="4" fill="#eec396"/>
  <rect x="540" y="32" width="16" height="4" fill="#eec394"/>
  <rect x="556" y="32" width="16" height="4" fill="#eec396"/>
  <rect x="572" y="32" width="16" height="4" fill="#eec394"/>
  <rect x="588" y="32" width="16" height="4" fill="#eec396"/>
  <rect x="604" y="32" width="16" height="4" fill="#eec394"/>
  <rect x="620" y="32" width="16" height="4" fill="#eec396"/>
  <rect x="636" y="32" width="16" height="4" fill="#eec394"/>
  <rect x="652" y="32" width="16" height="4" fill="#eec396"/>
  <rect x="668" y="32" width="16" height="4" fill="#eec394"/>
  <rect x="684" y="32" width="16" height="4" fill="#eec396"/>
  <rect x="700" y="32" width="16" height="4" fill="#eec394"/>
  <rect x="716" y="32" width="16" height="4" fill="#eec396"/>
  <rect x="732" y="32" width="16" height="4" fill="#eec394"/>
  <rect x="748" y="32" width="16" height="4" fill="#eec396"/>
  <rect x="764" y="32" width="16" height="4" fill="#eec394"/>
  <rect x="780" y="32" width="20" height="4" fill="#eec396"/>
  <rect x="0" y="36" width="28" height="2" fill="#edc295"/>
  <rect x="28" y="36" width="16" height="2" fill="#edc293"/>
  <rect x="44" y="36" width="16" height="4" fill="#edc295"/>
  <rect x="60" y="36" width="16" height="4" fill="#edc293"/>
  <rect x="76" y="36" width="16" height="4" fill="#edc295"/>
  <rect x="92" y="36" width="16" height="4" fill="#edc293"/>
  <rect x="108" y="36" width="16" height="4" fill="#edc295"/>
  <rect x="124" y="36" width="16" height="4" fill="#edc293"/>
  <rect x="140" y="36" width="16" height="4" fill="#edc295"/>
  <rect x="156" y="36" width="16" height="4" fill="#edc293"/>
  <rect x="172" y="36" width="16" height="4" fill="#edc295"/>
  <rect x="188" y="36" width="16" height="4" fill="#edc293"/>
  <rect x="204" y="36" width="16" height="4" fill="#edc295"/>
  <rect x="220" y="36" width="16" height="4" fill="#edc293"/>
  <rect x="236" y="36" width="16" height="4" fill="#edc295"/>
  <rect x="252" y="36" width="16" height="4" fill="#edc293"/>
  <rect x="268" y="36" width="16" height="4" fill="#edc295"/>
  <rect x="284" y="36" width="16" height="4" fill="#edc293"/>
  <rect x="300" y="36" width="16" height="4" fill="#edc295"/>
  <rect x="316" y="36" width="16" height="4" fill="#edc293"/>
  <rect x="332" y="36" width="16" height="4" fill="#edc295"/>
  <rect x="348" y="36" width="16" height="4" fill="#edc293"/>
  <rect x="364" y="36" width="16" height="4" fill="#edc295"/>
  <rect x="380" y="36" width="16" height="4" fill="#edc293"/>
  <rect x="396" y="36" width="16" height="4" fill="#edc295"/>
  <rect x="412" y="36" width="16" height="4" fill="#edc293"/>
  <rect x="428" y="36" width="16" height="4" fill="#edc295"/>
  <rect x="444" y="36" width="16" height="4" fill="#edc293"/>
  <rect x="460" y="36" width="16" height="4" fill="#edc295"/>
  <rect x="476" y="36" width="16" height="4" fill="#edc293"/>
  <rect x="492" y="36" width="16" height="4" fill="#edc295"/>
  <rect x="508" y="36" width="16" height="4" fill="#edc293"/>
  <rect x="524" y="36" width="16" height="4" fill="#edc295"/>
  <rect x="540" y="36" width="16" height="4" fill="#edc293"/>
  <rect x="556" y="36" width="16" height="4" fill="#edc295"/>
  <rect x="572" y="36" width="16" height="4" fill="#edc293"/>
  <rect x="588" y="36" width="16" height="4" fill="#edc295"/>
  <rect x="604" y="36" width="16" height="4" fill="#edc293"/>
  <rect x="620" y="36" width="16" height="4" fill="#edc295"/>
  <rect x="636" y="36" width="16" height="4" fill="#edc293"/>
  <rect x="652" y="36" width="16" height="4" fill="#edc295"/>
  <rect x="668" y="36" width="16" height="4" fill="#edc293"/>
  <rect x="684" y="36" width="16" height="4" fill="#edc295"/>
  <rect x="700" y="36" width="16" height="4" fill="#edc293"/>
  <rect x="716" y="36" width="16" height="4" fill="#edc295"/>
  <rect x="732" y="36" width="16" height="4" fill="#edc293"/>
  <rect x="748" y="36" width="16" height="4" fill="#edc295"/>
  <rect x="764" y="36" width="16" height="4" fill="#edc293"/>
  <rect x="780" y="36" width="20" height="4" fill="#edc295"/>
  <rect x="0" y="38" width="26" height="2" fill="#edc295"/>
  <rect x="26" y="38" width="18" height="2" fill="#edc293"/>
  <rect x="0" y="40" width="22" height="4" fill="#ebc194"/>
  <rect x="22" y="40" width="14" height="2" fill="#ebc192"/>
  <rect x="36" y="40" width="764" height="4" fill="#ebc194"/>
  <rect x="22" y="42" width="4" height="2" fill="#ebc192"/>
  <rect x="26" y="42" width="2" height="2" fill="#ebc190"/>
  <rect x="28" y="42" width="8" height="2" fill="#ebc192"/>
  <rect x="0" y="44" width="22" height="4" fill="#eabf93"/>
  <rect x="22" y="44" width="6" height="4" fill="#eac091"/>
  <rect x="28" y="44" width="4" height="4" fill="#ecbf91"/>
  <rect x="32" y="44" width="4" height="4" fill="#eac091"/>
  <rect x="36" y="44" width="72" height="4" fill="#eabf93"/>
  <rect x="108" y="44" width="4" height="4" fill="#ecbf93"/>
  <rect x="112" y="44" width="92" height="4" fill="#eabf93"/>
  <rect x="204" y="44" width="4" height="4" fill="#ecbf93"/>
  <rect x="208" y="44" width="92" height="4" fill="#eabf93"/>
  <rect x="300" y="44" width="4" height="4" fill="#ecbf93"/>
  <rect x="304" y="44" width="92" height="4" fill="#eabf93"/>
  <rect x="396" y="44" width="4" height="4" fill="#ecbf93"/>
  <rect x="400" y="44" width="92" height="4" fill="#eabf93"/>
  <rect x="492" y="44" width="4" height="4" fill="#ecbf93"/>
  <rect x="496" y="44" width="92" height="4" fill="#eabf93"/>
  <rect x="588" y="44" width="4" height="4" fill="#ecbf93"/>
  <rect x="592" y="44" width="92" height="4" fill="#eabf93"/>
  <rect x="684" y="44" width="4" height="4" fill="#ecbf93"/>
  <rect x="688" y="44" width="92" height="4" fill="#eabf93"/>
  <rect x="780" y="44" width="4" height="4" fill="#ecbf93"/>
  <rect x="784" y="44" width="16" height="4" fill="#eabf93"/>
  <rect x="0" y="48" width="20" height="3" fill="#e9be91"/>
  <rect x="20" y="48" width="6" height="3" fill="#ebbd91"/>
  <rect x="26" y="48" width="2" height="3" fill="#ebbe8f"/>
  <rect x="28" y="48" width="4" height="3" fill="#ebbd91"/>
  <rect x="32" y="48" width="32" height="3" fill="#e9be91"/>
  <rect x="64" y="48" width="16" height="4" fill="#ebbd91"/>
  <rect x="80" y="48" width="20" height="3" fill="#e9be91"/>
  <rect x="100" y="48" width="28" height="3" fill="#ebbd91"/>
  <rect x="128" y="48" width="32" height="3" fill="#e9be91"/>
  <rect x="160" y="48" width="16" height="4" fill="#ebbd91"/>
  <rect x="176" y="48" width="20" height="3" fill="#e9be91"/>
  <rect x="196" y="48" width="28" height="3" fill="#ebbd91"/>
  <rect x="224" y="48" width="32" height="3" fill="#e9be91"/>
  <rect x="256" y="48" width="16" height="4" fill="#ebbd91"/>
  <rect x="272" y="48" width="20" height="3" fill="#e9be91"/>
  <rect x="292" y="48" width="28" height="3" fill="#ebbd91"/>
  <rect x="320" y="48" width="32" height="3" fill="#e9be91"/>
  <rect x="352" y="48" width="16" height="4" fill="#ebbd91"/>
  <rect x="368" y="48" width="20" height="3" fill="#e9be91"/>
  <rect x="388" y="48" width="28" height="3" fill="#ebbd91"/>
  <rect x="416" y="48" width="32" height="3" fill="#e9be91"/>
  <rect x="448" y="48" width="16" height="4" fill="#ebbd91"/>
  <rect x="464" y="48" width="20" height="3" fill="#e9be91"/>
  <rect x="484" y="48" width="28" height="3" fill="#ebbd91"/>
  <rect x="512" y="48" width="32" height="3" fill="#e9be91"/>
  <rect x="544" y="48" width="16" height="4" fill="#ebbd91"/>
  <rect x="560" y="48" width="20" height="3" fill="#e9be91"/>
  <rect x="580" y="48" width="28" height="3" fill="#ebbd91"/>
  <rect x="608" y="48" width="32" height="3" fill="#e9be91"/>
  <rect x="640" y="48" width="16" height="4" fill="#ebbd91"/>
  <rect x="656" y="48" width="20" height="3" fill="#e9be91"/>
  <rect x="676" y="48" width="28" height="3" fill="#ebbd91"/>
  <rect x="704" y="48" width="32" height="3" fill="#e9be91"/>
  <rect x="736" y="48" width="16" height="4" fill="#ebbd91"/>
  <rect x="752" y="48" width="20" height="3" fill="#e9be91"/>
  <rect x="772" y="48" width="28" height="3" fill="#ebbd91"/>
  <rect x="0" y="51" width="20" height="2" fill="#e8bd90"/>
  <rect x="20" y="51" width="6" height="1" fill="#e9bc90"/>
  <rect x="26" y="51" width="2" height="1" fill="#e9bd8e"/>
  <rect x="28" y="51" width="4" height="1" fill="#e9bc90"/>
  <rect x="32" y="51" width="16" height="1" fill="#e9be91"/>
  <rect x="48" y="51" width="16" height="1" fill="#e8bd90"/>
  <rect x="80" y="51" width="20" height="2" fill="#e8bd90"/>
  <rect x="100" y="51" width="28" height="1" fill="#e9bc90"/>
  <rect x="128" y="51" width="16" height="1" fill="#e9be91"/>
  <rect x="144" y="51" width="16" height="1" fill="#e8bd90"/>
  <rect x="176" y="51" width="20" height="2" fill="#e8bd90"/>
  <rect x="196" y="51" width="28" height="1" fill="#e9bc90"/>
  <rect x="224" y="51" width="16" height="1" fill="#e9be91"/>
  <rect x="240" y="51" width="16" height="1" fill="#e8bd90"/>
  <rect x="272" y="51" width="20" height="2" fill="#e8bd90"/>
  <rect x="292" y="51" width="28" height="1" fill="#e9bc90"/>
  <rect x="320" y="51" width="16" height="1" fill="#e9be91"/>
  <rect x="336" y="51" width="16" height="1" fill="#e8bd90"/>
  <rect x="368" y="51" width="20" height="2" fill="#e8bd90"/>
  <rect x="388" y="51" width="28" height="1" fill="#e9bc90"/>
  <rect x="416" y="51" width="16" height="1" fill="#e9be91"/>
  <rect x="432" y="51" width="16" height="1" fill="#e8bd90"/>
  <rect x="464" y="51" width="20" height="2" fill="#e8bd90"/>
  <rect x="484" y="51" width="28" height="1" fill="#e9bc90"/>
  <rect x="512" y="51" width="16" height="1" fill="#e9be91"/>
  <rect x="528" y="51" width="16" height="1" fill="#e8bd90"/>
  <rect x="560" y="51" width="20" height="2" fill="#e8bd90"/>
  <rect x="580" y="51" width="28" height="1" fill="#e9bc90"/>
  <rect x="608" y="51" width="16" height="1" fill="#e9be91"/>
  <rect x="624" y="51" width="16" height="1" fill="#e8bd90"/>
  <rect x="656" y="51" width="20" height="2" fill="#e8bd90"/>
  <rect x="676" y="51" width="28" height="1" fill="#e9bc90"/>
  <rect x="704" y="51" width="16" height="1" fill="#e9be91"/>
  <rect x="720" y="51" width="16" height="1" fill="#e8bd90"/>
  <rect x="752" y="51" width="20" height="2" fill="#e8bd90"/>
  <rect x="772" y="51" width="28" height="1" fill="#e9bc90"/>
  <rect x="20" y="52" width="12" height="1" fill="#e9bc90"/>
  <rect x="32" y="52" width="4" height="1" fill="#e8bb8f"/>
  <rect x="36" y="52" width="12" height="1" fill="#e7bc8f"/>
  <rect x="48" y="52" width="12" height="1" fill="#e8bd90"/>
  <rect x="60" y="52" width="4" height="1" fill="#e9bc90"/>
  <rect x="64" y="52" width="16" height="1" fill="#e8bb8f"/>
  <rect x="100" y="52" width="8" height="1" fill="#e9bc90"/>
  <rect x="108" y="52" width="4" height="1" fill="#ebbb90"/>
  <rect x="112" y="52" width="16" height="1" fill="#e9bc90"/>
  <rect x="128" y="52" width="16" height="1" fill="#e7bc8f"/>
  <rect x="144" y="52" width="12" height="1" fill="#e8bd90"/>
  <rect x="156" y="52" width="4" height="1" fill="#e9bc90"/>
  <rect x="160" y="52" width="16" height="1" fill="#e8bb8f"/>
  <rect x="196" y="52" width="8" height="1" fill="#e9bc90"/>
  <rect x="204" y="52" width="4" height="1" fill="#ebbb90"/>
  <rect x="208" y="52" width="16" height="1" fill="#e9bc90"/>
  <rect x="224" y="52" width="16" height="1" fill="#e7bc8f"/>
  <rect x="240" y="52" width="12" height="1" fill="#e8bd90"/>
  <rect x="252" y="52" width="4" height="1" fill="#e9bc90"/>
  <rect x="256" y="52" width="16" height="1" fill="#e8bb8f"/>
  <rect x="292" y="52" width="8" height="1" fill="#e9bc90"/>
  <rect x="300" y="52" width="4" height="1" fill="#ebbb90"/>
  <rect x="304" y="52" width="16" height="1" fill="#e9bc90"/>
  <rect x="320" y="52" width="16" height="1" fill="#e7bc8f"/>
  <rect x="336" y="52" width="12" height="1" fill="#e8bd90"/>
  <rect x="348" y="52" width="4" height="1" fill="#e9bc90"/>
  <rect x="352" y="52" width="16" height="1" fill="#e8bb8f"/>
  <rect x="388" y="52" width="8" height="1" fill="#e9bc90"/>
  <rect x="396" y="52" width="4" height="1" fill="#ebbb90"/>
  <rect x="400" y="52" width="16" height="1" fill="#e9bc90"/>
  <rect x="416" y="52" width="16" height="1" fill="#e7bc8f"/>
  <rect x="432" y="52" width="12" height="1" fill="#e8bd90"/>
  <rect x="444" y="52" width="4" height="1" fill="#e9bc90"/>
  <rect x="448" y="52" width="16" height="1" fill="#e8bb8f"/>
  <rect x="484" y="52" width="8" height="1" fill="#e9bc90"/>
  <rect x="492" y="52" width="4" height="1" fill="#ebbb90"/>
  <rect x="496" y="52" width="16" height="1" fill="#e9bc90"/>
  <rect x="512" y="52" width="16" height="1" fill="#e7bc8f"/>
  <rect x="528" y="52" width="12" height="1" fill="#e8bd90"/>
  <rect x="540" y="52" width="4" height="1" fill="#e9bc90"/>
  <rect x="544" y="52" width="16" height="1" fill="#e8bb8f"/>
  <rect x="580" y="52" width="8" height="1" fill="#e9bc90"/>
  <rect x="588" y="52" width="4" height="1" fill="#ebbb90"/>
  <rect x="592" y="52" width="16" height="1" fill="#e9bc90"/>
  <rect x="608" y="52" width="16" height="1" fill="#e7bc8f"/>
  <rect x="624" y="52" width="12" height="1" fill="#e8bd90"/>
  <rect x="636" y="52" width="4" height="1" fill="#e9bc90"/>
  <rect x="640" y="52" width="16" height="1" fill="#e8bb8f"/>
  <rect x="676" y="52" width="8" height="1" fill="#e9bc90"/>
  <rect x="684" y="52" width="4" height="1" fill="#ebbb90"/>
  <rect x="688" y="52" width="16" height="1" fill="#e9bc90"/>
  <rect x="704" y="52" width="16" height="1" fill="#e7bc8f"/>
  <rect x="720" y="52" width="12" height="1" fill="#e8bd90"/>
  <rect x="732" y="52" width="4" height="1" fill="#e9bc90"/>
  <rect x="736" y="52" width="16" height="1" fill="#e8bb8f"/>
  <rect x="772" y="52" width="8" height="1" fill="#e9bc90"/>
  <rect x="780" y="52" width="4" height="1" fill="#ebbb90"/>
  <rect x="784" y="52" width="16" height="1" fill="#e9bc90"/>
  <rect x="0" y="53" width="20" height="2" fill="#e7bc8f"/>
  <rect x="20" y="53" width="16" height="1" fill="#e8bb8f"/>
  <rect x="36" y="53" width="24" height="1" fill="#e7bc8f"/>
  <rect x="60" y="53" width="20" height="1" fill="#e8bb8f"/>
  <rect x="80" y="53" width="20" height="1" fill="#e7bc8f"/>
  <rect x="100" y="53" width="8" height="1" fill="#e8bb8f"/>
  <rect x="108" y="53" width="4" height="1" fill="#eaba8f"/>
  <rect x="112" y="53" width="16" height="1" fill="#e8bb8f"/>
  <rect x="128" y="53" width="28" height="1" fill="#e7bc8f"/>
  <rect x="156" y="53" width="20" height="1" fill="#e8bb8f"/>
  <rect x="176" y="53" width="20" height="1" fill="#e7bc8f"/>
  <rect x="196" y="53" width="8" height="1" fill="#e8bb8f"/>
  <rect x="204" y="53" width="4" height="1" fill="#eaba8f"/>
  <rect x="208" y="53" width="16" height="1" fill="#e8bb8f"/>
  <rect x="224" y="53" width="28" height="1" fill="#e7bc8f"/>
  <rect x="252" y="53" width="20" height="1" fill="#e8bb8f"/>
  <rect x="272" y="53" width="20" height="1" fill="#e7bc8f"/>
  <rect x="292" y="53" width="8" height="1" fill="#e8bb8f"/>
  <rect x="300" y="53" width="4" height="1" fill="#eaba8f"/>
  <rect x="304" y="53" width="16" height="1" fill="#e8bb8f"/>
  <rect x="320" y="53" width="28" height="1" fill="#e7bc8f"/>
  <rect x="348" y="53" width="20" height="1" fill="#e8bb8f"/>
  <rect x="368" y="53" width="20" height="1" fill="#e7bc8f"/>
  <rect x="388" y="53" width="8" height="1" fill="#e8bb8f"/>
  <rect x="396" y="53" width="4" height="1" fill="#eaba8f"/>
  <rect x="400" y="53" width="16" height="1" fill="#e8bb8f"/>
  <rect x="416" y="53" width="28" height="1" fill="#e7bc8f"/>
  <rect x="444" y="53" width="20" height="1" fill="#e8bb8f"/>
  <rect x="464" y="53" width="20" height="1" fill="#e7bc8f"/>
  <rect x="484" y="53" width="8" height="1" fill="#e8bb8f"/>
  <rect x="492" y="53" width="4" height="1" fill="#eaba8f"/>
  <rect x="496" y="53" width="16" height="1" fill="#e8bb8f"/>
  <rect x="512" y="53" width="28" height="1" fill="#e7bc8f"/>
  <rect x="540" y="53" width="20" height="1" fill="#e8bb8f"/>
  <rect x="560" y="53" width="20" height="1" fill="#e7bc8f"/>
  <rect x="580" y="53" width="8" height="1" fill="#e8bb8f"/>
  <rect x="588" y="53" width="4" height="1" fill="#eaba8f"/>
  <rect x="592" y="53" width="16" height="1" fill="#e8bb8f"/>
  <rect x="608" y="53" width="28" height="1" fill="#e7bc8f"/>
  <rect x="636" y="53" width="20" height="1" fill="#e8bb8f"/>
  <rect x="656" y="53" width="20" height="1" fill="#e7bc8f"/>
  <rect x="676" y="53" width="8" height="1" fill="#e8bb8f"/>
  <rect x="684" y="53" width="4" height="1" fill="#eaba8f"/>
  <rect x="688" y="53" width="16" height="1" fill="#e8bb8f"/>
  <rect x="704" y="53" width="28" height="1" fill="#e7bc8f"/>
  <rect x="732" y="53" width="20" height="1" fill="#e8bb8f"/>
  <rect x="752" y="53" width="20" height="1" fill="#e7bc8f"/>
  <rect x="772" y="53" width="8" height="1" fill="#e8bb8f"/>
  <rect x="780" y="53" width="4" height="1" fill="#eaba8f"/>
  <rect x="784" y="53" width="16" height="1" fill="#e8bb8f"/>
  <rect x="20" y="54" width="6" height="1" fill="#e8bb8f"/>
  <rect x="26" y="54" width="6" height="2" fill="#e8bb8d"/>
  <rect x="32" y="54" width="26" height="2" fill="#e7bc8f"/>
  <rect x="58" y="54" width="2" height="2" fill="#e7bc8d"/>
  <rect x="60" y="54" width="4" height="2" fill="#e8bb8d"/>
  <rect x="64" y="54" width="16" height="2" fill="#e8bb8f"/>
  <rect x="80" y="54" width="10" height="2" fill="#e7bc8f"/>
  <rect x="90" y="54" width="6" height="2" fill="#e7bc8d"/>
  <rect x="96" y="54" width="4" height="2" fill="#e7bc8f"/>
  <rect x="100" y="54" width="22" height="2" fill="#e8bb8f"/>
  <rect x="122" y="54" width="6" height="2" fill="#e8bb8d"/>
  <rect x="128" y="54" width="26" height="2" fill="#e7bc8f"/>
  <rect x="154" y="54" width="2" height="2" fill="#e7bc8d"/>
  <rect x="156" y="54" width="4" height="2" fill="#e8bb8d"/>
  <rect x="160" y="54" width="16" height="2" fill="#e8bb8f"/>
  <rect x="176" y="54" width="10" height="2" fill="#e7bc8f"/>
  <rect x="186" y="54" width="6" height="2" fill="#e7bc8d"/>
  <rect x="192" y="54" width="4" height="2" fill="#e7bc8f"/>
  <rect x="196" y="54" width="22" height="2" fill="#e8bb8f"/>
  <rect x="218" y="54" width="6" height="2" fill="#e8bb8d"/>
  <rect x="224" y="54" width="26" height="2" fill="#e7bc8f"/>
  <rect x="250" y="54" width="2" height="2" fill="#e7bc8d"/>
  <rect x="252" y="54" width="4" height="2" fill="#e8bb8d"/>
  <rect x="256" y="54" width="16" height="2" fill="#e8bb8f"/>
  <rect x="272" y="54" width="10" height="2" fill="#e7bc8f"/>
  <rect x="282" y="54" width="6" height="2" fill="#e7bc8d"/>
  <rect x="288" y="54" width="4" height="2" fill="#e7bc8f"/>
  <rect x="292" y="54" width="22" height="2" fill="#e8bb8f"/>
  <rect x="314" y="54" width="6" height="2" fill="#e8bb8d"/>
  <rect x="320" y="54" width="26" height="2" fill="#e7bc8f"/>
  <rect x="346" y="54" width="2" height="2" fill="#e7bc8d"/>
  <rect x="348" y="54" width="4" height="2" fill="#e8bb8d"/>
  <rect x="352" y="54" width="16" height="2" fill="#e8bb8f"/>
  <rect x="368" y="54" width="10" height="2" fill="#e7bc8f"/>
  <rect x="378" y="54" width="6" height="2" fill="#e7bc8d"/>
  <rect x="384" y="54" width="4" height="2" fill="#e7bc8f"/>
  <rect x="388" y="54" width="22" height="2" fill="#e8bb8f"/>
  <rect x="410" y="54" width="6" height="2" fill="#e8bb8d"/>
  <rect x="416" y="54" width="26" height="2" fill="#e7bc8f"/>
  <rect x="442" y="54" width="2" height="2" fill="#e7bc8d"/>
  <rect x="444" y="54" width="4" height="2" fill="#e8bb8d"/>
  <rect x="448" y="54" width="16" height="2" fill="#e8bb8f"/>
  <rect x="464" y="54" width="10" height="2" fill="#e7bc8f"/>
  <rect x="474" y="54" width="6" height="2" fill="#e7bc8d"/>
  <rect x="480" y="54" width="4" height="2" fill="#e7bc8f"/>
  <rect x="484" y="54" width="22" height="2" fill="#e8bb8f"/>
  <rect x="506" y="54" width="6" height="2" fill="#e8bb8d"/>
  <rect x="512" y="54" width="26" height="2" fill="#e7bc8f"/>
  <rect x="538" y="54" width="2" height="2" fill="#e7bc8d"/>
  <rect x="540" y="54" width="4" height="2" fill="#e8bb8d"/>
  <rect x="544" y="54" width="16" height="2" fill="#e8bb8f"/>
  <rect x="560" y="54" width="10" height="2" fill="#e7bc8f"/>
  <rect x="570" y="54" width="6" height="2" fill="#e7bc8d"/>
  <rect x="576" y="54" width="4" height="2" fill="#e7bc8f"/>
  <rect x="580" y="54" width="22" height="2" fill="#e8bb8f"/>
  <rect x="602" y="54" width="6" height="2" fill="#e8bb8d"/>
  <rect x="608" y="54" width="26" height="2" fill="#e7bc8f"/>
  <rect x="634" y="54" width="2" height="2" fill="#e7bc8d"/>
  <rect x="636" y="54" width="4" height="2" fill="#e8bb8d"/>
  <rect x="640" y="54" width="16" height="2" fill="#e8bb8f"/>
  <rect x="656" y="54" width="10" height="2" fill="#e7bc8f"/>
  <rect x="666" y="54" width="6" height="2" fill="#e7bc8d"/>
  <rect x="672" y="54" width="4" height="2" fill="#e7bc8f"/>
  <rect x="676" y="54" width="22" height="2" fill="#e8bb8f"/>
  <rect x="698" y="54" width="6" height="2" fill="#e8bb8d"/>
  <rect x="704" y="54" width="26" height="2" fill="#e7bc8f"/>
  <rect x="730" y="54" width="2" height="2" fill="#e7bc8d"/>
  <rect x="732" y="54" width="4" height="2" fill="#e8bb8d"/>
  <rect x="736" y="54" width="16" height="2" fill="#e8bb8f"/>
  <rect x="752" y="54" width="10" height="2" fill="#e7bc8f"/>
  <rect x="762" y="54" width="6" height="2" fill="#e7bc8d"/>
  <rect x="768" y="54" width="4" height="2" fill="#e7bc8f"/>
  <rect x="772" y="54" width="22" height="2" fill="#e8bb8f"/>
  <rect x="794" y="54" width="6" height="2" fill="#e8bb8d"/>
  <rect x="0" y="55" width="19" height="1" fill="#e7bc8f"/>
  <rect x="19" y="55" width="7" height="1" fill="#e8bb8f"/>
  <rect x="0" y="56" width="12" height="4" fill="#e6bb8e"/>
  <rect x="12" y="56" width="8" height="4" fill="#e7ba8e"/>
  <rect x="20" y="56" width="2" height="4" fill="#e9b98e"/>
  <rect x="22" y="56" width="4" height="4" fill="#e7ba8c"/>
  <rect x="26" y="56" width="2" height="2" fill="#e6bb8c"/>
  <rect x="28" y="56" width="4" height="2" fill="#e7ba8c"/>
  <rect x="32" y="56" width="20" height="2" fill="#e6bb8e"/>
  <rect x="52" y="56" width="2" height="4" fill="#e7ba8e"/>
  <rect x="54" y="56" width="10" height="2" fill="#e7ba8c"/>
  <rect x="64" y="56" width="16" height="2" fill="#e7ba8e"/>
  <rect x="80" y="56" width="6" height="4" fill="#e6bb8e"/>
  <rect x="86" y="56" width="10" height="2" fill="#e6bb8c"/>
  <rect x="96" y="56" width="12" height="2" fill="#e6bb8e"/>
  <rect x="108" y="56" width="10" height="2" fill="#e7ba8e"/>
  <rect x="118" y="56" width="10" height="2" fill="#e7ba8c"/>
  <rect x="128" y="56" width="20" height="2" fill="#e6bb8e"/>
  <rect x="148" y="56" width="2" height="4" fill="#e7ba8e"/>
  <rect x="150" y="56" width="10" height="2" fill="#e7ba8c"/>
  <rect x="160" y="56" width="16" height="2" fill="#e7ba8e"/>
  <rect x="176" y="56" width="6" height="4" fill="#e6bb8e"/>
  <rect x="182" y="56" width="10" height="2" fill="#e6bb8c"/>
  <rect x="192" y="56" width="12" height="2" fill="#e6bb8e"/>
  <rect x="204" y="56" width="10" height="2" fill="#e7ba8e"/>
  <rect x="214" y="56" width="10" height="2" fill="#e7ba8c"/>
  <rect x="224" y="56" width="20" height="2" fill="#e6bb8e"/>
  <rect x="244" y="56" width="2" height="4" fill="#e7ba8e"/>
  <rect x="246" y="56" width="10" height="2" fill="#e7ba8c"/>
  <rect x="256" y="56" width="16" height="2" fill="#e7ba8e"/>
  <rect x="272" y="56" width="6" height="4" fill="#e6bb8e"/>
  <rect x="278" y="56" width="10" height="2" fill="#e6bb8c"/>
  <rect x="288" y="56" width="12" height="2" fill="#e6bb8e"/>
  <rect x="300" y="56" width="10" height="2" fill="#e7ba8e"/>
  <rect x="310" y="56" width="10" height="2" fill="#e7ba8c"/>
  <rect x="320" y="56" width="20" height="2" fill="#e6bb8e"/>
  <rect x="340" y="56" width="2" height="4" fill="#e7ba8e"/>
  <rect x="342" y="56" width="10" height="2" fill="#e7ba8c"/>
  <rect x="352" y="56" width="16" height="2" fill="#e7ba8e"/>
  <rect x="368" y="56" width="6" height="4" fill="#e6bb8e"/>
  <rect x="374" y="56" width="10" height="2" fill="#e6bb8c"/>
  <rect x="384" y="56" width="12" height="2" fill="#e6bb8e"/>
  <rect x="396" y="56" width="10" height="2" fill="#e7ba8e"/>
  <rect x="406" y="56" width="10" height="2" fill="#e7ba8c"/>
  <rect x="416" y="56" width="20" height="2" fill="#e6bb8e"/>
  <rect x="436" y="56" width="2" height="4" fill="#e7ba8e"/>
  <rect x="438" y="56" width="10" height="2" fill="#e7ba8c"/>
  <rect x="448" y="56" width="16" height="2" fill="#e7ba8e"/>
  <rect x="464" y="56" width="6" height="4" fill="#e6bb8e"/>
  <rect x="470" y="56" width="10" height="2" fill="#e6bb8c"/>
  <rect x="480" y="56" width="12" height="2" fill="#e6bb8e"/>
  <rect x="492" y="56" width="10" height="2" fill="#e7ba8e"/>
  <rect x="502" y="56" width="10" height="2" fill="#e7ba8c"/>
  <rect x="512" y="56" width="20" height="2" fill="#e6bb8e"/>
  <rect x="532" y="56" width="2" height="4" fill="#e7ba8e"/>
  <rect x="534" y="56" width="10" height="2" fill="#e7ba8c"/>
  <rect x="544" y="56" width="16" height="2" fill="#e7ba8e"/>
  <rect x="560" y="56" width="6" height="4" fill="#e6bb8e"/>
  <rect x="566" y="56" width="10" height="2" fill="#e6bb8c"/>
  <rect x="576" y="56" width="12" height="2" fill="#e6bb8e"/>
  <rect x="588" y="56" width="10" height="2" fill="#e7ba8e"/>
  <rect x="598" y="56" width="10" height="2" fill="#e7ba8c"/>
  <rect x="608" y="56" width="20" height="2" fill="#e6bb8e"/>
  <rect x="628" y="56" width="2" height="4" fill="#e7ba8e"/>
  <rect x="630" y="56" width="10" height="2" fill="#e7ba8c"/>
  <rect x="640" y="56" width="16" height="2" fill="#e7ba8e"/>
  <rect x="656" y="56" width="6" height="4" fill="#e6bb8e"/>
  <rect x="662" y="56" width="10" height="2" fill="#e6bb8c"/>
  <rect x="672" y="56" width="12" height="2" fill="#e6bb8e"/>
  <rect x="684" y="56" width="10" height="2" fill="#e7ba8e"/>
  <rect x="694" y="56" width="10" height="2" fill="#e7ba8c"/>
  <rect x="704" y="56" width="20" height="2" fill="#e6bb8e"/>
  <rect x="724" y="56" width="2" height="4" fill="#e7ba8e"/>
  <rect x="726" y="56" width="10" height="2" fill="#e7ba8c"/>
  <rect x="736" y="56" width="16" height="2" fill="#e7ba8e"/>
  <rect x="752" y="56" width="6" height="4" fill="#e6bb8e"/>
  <rect x="758" y="56" width="10" height="2" fill="#e6bb8c"/>
  <rect x="768" y="56" width="12" height="2" fill="#e6bb8e"/>
  <rect x="780" y="56" width="10" height="2" fill="#e7ba8e"/>
  <rect x="790" y="56" width="10" height="2" fill="#e7ba8c"/>
  <rect x="26" y="58" width="2" height="2" fill="#e6bc8a"/>
  <rect x="28" y="58" width="8" height="2" fill="#e6bb8c"/>
  <rect x="36" y="58" width="16" height="2" fill="#e6bb8e"/>
  <rect x="54" y="58" width="4" height="2" fill="#e7ba8c"/>
  <rect x="58" y="58" width="2" height="2" fill="#e7bb8a"/>
  <rect x="60" y="58" width="8" height="2" fill="#e7ba8c"/>
  <rect x="68" y="58" width="12" height="2" fill="#e7ba8e"/>
  <rect x="86" y="58" width="4" height="2" fill="#e6bb8c"/>
  <rect x="90" y="58" width="2" height="2" fill="#e6bc8a"/>
  <rect x="92" y="58" width="8" height="2" fill="#e6bb8c"/>
  <rect x="100" y="58" width="12" height="2" fill="#e6bb8e"/>
  <rect x="112" y="58" width="6" height="2" fill="#e7ba8e"/>
  <rect x="118" y="58" width="4" height="2" fill="#e7ba8c"/>
  <rect x="122" y="58" width="2" height="2" fill="#e7bb8a"/>
  <rect x="124" y="58" width="4" height="2" fill="#e7ba8c"/>
  <rect x="128" y="58" width="4" height="2" fill="#e6bb8c"/>
  <rect x="132" y="58" width="16" height="2" fill="#e6bb8e"/>
  <rect x="150" y="58" width="4" height="2" fill="#e7ba8c"/>
  <rect x="154" y="58" width="2" height="2" fill="#e7bb8a"/>
  <rect x="156" y="58" width="8" height="2" fill="#e7ba8c"/>
  <rect x="164" y="58" width="12" height="2" fill="#e7ba8e"/>
  <rect x="182" y="58" width="4" height="2" fill="#e6bb8c"/>
  <rect x="186" y="58" width="2" height="2" fill="#e6bc8a"/>
  <rect x="188" y="58" width="8" height="2" fill="#e6bb8c"/>
  <rect x="196" y="58" width="12" height="2" fill="#e6bb8e"/>
  <rect x="208" y="58" width="6" height="2" fill="#e7ba8e"/>
  <rect x="214" y="58" width="4" height="2" fill="#e7ba8c"/>
  <rect x="218" y="58" width="2" height="2" fill="#e7bb8a"/>
  <rect x="220" y="58" width="4" height="2" fill="#e7ba8c"/>
  <rect x="224" y="58" width="4" height="2" fill="#e6bb8c"/>
  <rect x="228" y="58" width="16" height="2" fill="#e6bb8e"/>
  <rect x="246" y="58" width="4" height="2" fill="#e7ba8c"/>
  <rect x="250" y="58" width="2" height="2" fill="#e7bb8a"/>
  <rect x="252" y="58" width="8" height="2" fill="#e7ba8c"/>
  <rect x="260" y="58" width="12" height="2" fill="#e7ba8e"/>
  <rect x="278" y="58" width="4" height="2" fill="#e6bb8c"/>
  <rect x="282" y="58" width="2" height="2" fill="#e6bc8a"/>
  <rect x="284" y="58" width="8" height="2" fill="#e6bb8c"/>
  <rect x="292" y="58" width="12" height="2" fill="#e6bb8e"/>
  <rect x="304" y="58" width="6" height="2" fill="#e7ba8e"/>
  <rect x="310" y="58" width="4" height="2" fill="#e7ba8c"/>
  <rect x="314" y="58" width="2" height="2" fill="#e7bb8a"/>
  <rect x="316" y="58" width="4" height="2" fill="#e7ba8c"/>
  <rect x="320" y="58" width="4" height="2" fill="#e6bb8c"/>
  <rect x="324" y="58" width="16" height="2" fill="#e6bb8e"/>
  <rect x="342" y="58" width="4" height="2" fill="#e7ba8c"/>
  <rect x="346" y="58" width="2" height="2" fill="#e7bb8a"/>
  <rect x="348" y="58" width="8" height="2" fill="#e7ba8c"/>
  <rect x="356" y="58" width="12" height="2" fill="#e7ba8e"/>
  <rect x="374" y="58" width="4" height="2" fill="#e6bb8c"/>
  <rect x="378" y="58" width="2" height="2" fill="#e6bc8a"/>
  <rect x="380" y="58" width="8" height="2" fill="#e6bb8c"/>
  <rect x="388" y="58" width="12" height="2" fill="#e6bb8e"/>
  <rect x="400" y="58" width="6" height="2" fill="#e7ba8e"/>
  <rect x="406" y="58" width="4" height="2" fill="#e7ba8c"/>
  <rect x="410" y="58" width="2" height="2" fill="#e7bb8a"/>
  <rect x="412" y="58" width="4" height="2" fill="#e7ba8c"/>
  <rect x="416" y="58" width="4" height="2" fill="#e6bb8c"/>
  <rect x="420" y="58" width="16" height="2" fill="#e6bb8e"/>
  <rect x="438" y="58" width="4" height="2" fill="#e7ba8c"/>
  <rect x="442" y="58" width="2" height="2" fill="#e7bb8a"/>
  <rect x="444" y="58" width="8" height="2" fill="#e7ba8c"/>
  <rect x="452" y="58" width="12" height="2" fill="#e7ba8e"/>
  <rect x="470" y="58" width="4" height="2" fill="#e6bb8c"/>
  <rect x="474" y="58" width="2" height="2" fill="#e6bc8a"/>
  <rect x="476" y="58" width="8" height="2" fill="#e6bb8c"/>
  <rect x="484" y="58" width="12" height="2" fill="#e6bb8e"/>
  <rect x="496" y="58" width="6" height="2" fill="#e7ba8e"/>
  <rect x="502" y="58" width="4" height="2" fill="#e7ba8c"/>
  <rect x="506" y="58" width="2" height="2" fill="#e7bb8a"/>
  <rect x="508" y="58" width="4" height="2" fill="#e7ba8c"/>
  <rect x="512" y="58" width="4" height="2" fill="#e6bb8c"/>
  <rect x="516" y="58" width="16" height="2" fill="#e6bb8e"/>
  <rect x="534" y="58" width="4" height="2" fill="#e7ba8c"/>
  <rect x="538" y="58" width="2" height="2" fill="#e7bb8a"/>
  <rect x="540" y="58" width="8" height="2" fill="#e7ba8c"/>
  <rect x="548" y="58" width="12" height="2" fill="#e7ba8e"/>
  <rect x="566" y="58" width="4" height="2" fill="#e6bb8c"/>
  <rect x="570" y="58" width="2" height="2" fill="#e6bc8a"/>
  <rect x="572" y="58" width="8" height="2" fill="#e6bb8c"/>
  <rect x="580" y="58" width="12" height="2" fill="#e6bb8e"/>
  <rect x="592" y="58" width="6" height="2" fill="#e7ba8e"/>
  <rect x="598" y="58" width="4" height="2" fill="#e7ba8c"/>
  <rect x="602" y="58" width="2" height="2" fill="#e7bb8a"/>
  <rect x="604" y="58" width="4" height="2" fill="#e7ba8c"/>
  <rect x="608" y="58" width="4" height="2" fill="#e6bb8c"/>
  <rect x="612" y="58" width="16" height="2" fill="#e6bb8e"/>
  <rect x="630" y="58" width="4" height="2" fill="#e7ba8c"/>
  <rect x="634" y="58" width="2" height="2" fill="#e7bb8a"/>
  <rect x="636" y="58" width="8" height="2" fill="#e7ba8c"/>
  <rect x="644" y="58" width="12" height="2" fill="#e7ba8e"/>
  <rect x="662" y="58" width="4" height="2" fill="#e6bb8c"/>
  <rect x="666" y="58" width="2" height="2" fill="#e6bc8a"/>
  <rect x="668" y="58" width="8" height="2" fill="#e6bb8c"/>
  <rect x="676" y="58" width="12" height="2" fill="#e6bb8e"/>
  <rect x="688" y="58" width="6" height="2" fill="#e7ba8e"/>
  <rect x="694" y="58" width="4" height="2" fill="#e7ba8c"/>
  <rect x="698" y="58" width="2" height="2" fill="#e7bb8a"/>
  <rect x="700" y="58" width="4" height="2" fill="#e7ba8c"/>
  <rect x="704" y="58" width="4" height="2" fill="#e6bb8c"/>
  <rect x="708" y="58" width="16" height="2" fill="#e6bb8e"/>
  <rect x="726" y="58" width="4" height="2" fill="#e7ba8c"/>
  <rect x="730" y="58" width="2" height="2" fill="#e7bb8a"/>
  <rect x="732" y="58" width="8" height="2" fill="#e7ba8c"/>
  <rect x="740" y="58" width="12" height="2" fill="#e7ba8e"/>
  <rect x="758" y="58" width="4" height="2" fill="#e6bb8c"/>
  <rect x="762" y="58" width="2" height="2" fill="#e6bc8a"/>
  <rect x="764" y="58" width="8" height="2" fill="#e6bb8c"/>
  <rect x="772" y="58" width="12" height="2" fill="#e6bb8e"/>
  <rect x="784" y="58" width="6" height="2" fill="#e7ba8e"/>
  <rect x="790" y="58" width="4" height="2" fill="#e7ba8c"/>
  <rect x="794" y="58" width="6" height="2" fill="#e7bb8a"/>
  <rect x="0" y="60" width="12" height="3" fill="#e4ba8d"/>
  <rect x="12" y="60" width="8" height="3" fill="#e6b98d"/>
  <rect x="20" y="60" width="2" height="4" fill="#e8b88d"/>
  <rect x="22" y="60" width="4" height="4" fill="#e6b98b"/>
  <rect x="26" y="60" width="2" height="3" fill="#e4ba89"/>
  <rect x="28" y="60" width="8" height="3" fill="#e4ba8b"/>
  <rect x="36" y="60" width="16" height="4" fill="#e4ba8d"/>
  <rect x="52" y="60" width="2" height="4" fill="#e6b98d"/>
  <rect x="54" y="60" width="4" height="4" fill="#e6b98b"/>
  <rect x="58" y="60" width="2" height="4" fill="#e6ba89"/>
  <rect x="60" y="60" width="4" height="4" fill="#e8b88b"/>
  <rect x="64" y="60" width="4" height="4" fill="#e6b98b"/>
  <rect x="68" y="60" width="12" height="4" fill="#e6b98d"/>
  <rect x="80" y="60" width="6" height="4" fill="#e4ba8d"/>
  <rect x="86" y="60" width="4" height="4" fill="#e4ba8b"/>
  <rect x="90" y="60" width="2" height="4" fill="#e4ba89"/>
  <rect x="92" y="60" width="8" height="4" fill="#e4ba8b"/>
  <rect x="100" y="60" width="12" height="4" fill="#e4ba8d"/>
  <rect x="112" y="60" width="6" height="4" fill="#e6b98d"/>
  <rect x="118" y="60" width="4" height="4" fill="#e6b98b"/>
  <rect x="122" y="60" width="2" height="4" fill="#e6ba89"/>
  <rect x="124" y="60" width="4" height="4" fill="#e6b98b"/>
  <rect x="128" y="60" width="4" height="4" fill="#e4ba8b"/>
  <rect x="132" y="60" width="16" height="4" fill="#e4ba8d"/>
  <rect x="148" y="60" width="2" height="4" fill="#e6b98d"/>
  <rect x="150" y="60" width="4" height="4" fill="#e6b98b"/>
  <rect x="154" y="60" width="2" height="4" fill="#e6ba89"/>
  <rect x="156" y="60" width="4" height="4" fill="#e8b88b"/>
  <rect x="160" y="60" width="4" height="4" fill="#e6b98b"/>
  <rect x="164" y="60" width="12" height="4" fill="#e6b98d"/>
  <rect x="176" y="60" width="6" height="4" fill="#e4ba8d"/>
  <rect x="182" y="60" width="4" height="4" fill="#e4ba8b"/>
  <rect x="186" y="60" width="2" height="4" fill="#e4ba89"/>
  <rect x="188" y="60" width="8" height="4" fill="#e4ba8b"/>
  <rect x="196" y="60" width="12" height="4" fill="#e4ba8d"/>
  <rect x="208" y="60" width="6" height="4" fill="#e6b98d"/>
  <rect x="214" y="60" width="4" height="4" fill="#e6b98b"/>
  <rect x="218" y="60" width="2" height="4" fill="#e6ba89"/>
  <rect x="220" y="60" width="4" height="4" fill="#e6b98b"/>
  <rect x="224" y="60" width="4" height="4" fill="#e4ba8b"/>
  <rect x="228" y="60" width="16" height="4" fill="#e4ba8d"/>
  <rect x="244" y="60" width="2" height="4" fill="#e6b98d"/>
  <rect x="246" y="60" width="4" height="4" fill="#e6b98b"/>
  <rect x="250" y="60" width="2" height="4" fill="#e6ba89"/>
  <rect x="252" y="60" width="4" height="4" fill="#e8b88b"/>
  <rect x="256" y="60" width="4" height="4" fill="#e6b98b"/>
  <rect x="260" y="60" width="12" height="4" fill="#e6b98d"/>
  <rect x="272" y="60" width="6" height="4" fill="#e4ba8d"/>
  <rect x="278" y="60" width="4" height="4" fill="#e4ba8b"/>
  <rect x="282" y="60" width="2" height="4" fill="#e4ba89"/>
  <rect x="284" y="60" width="8" height="4" fill="#e4ba8b"/>
  <rect x="292" y="60" width="12" height="4" fill="#e4ba8d"/>
  <rect x="304" y="60" width="6" height="4" fill="#e6b98d"/>
  <rect x="310" y="60" width="4" height="4" fill="#e6b98b"/>
  <rect x="314" y="60" width="2" height="4" fill="#e6ba89"/>
  <rect x="316" y="60" width="4" height="4" fill="#e6b98b"/>
  <rect x="320" y="60" width="4" height="4" fill="#e4ba8b"/>
  <rect x="324" y="60" width="16" height="4" fill="#e4ba8d"/>
  <rect x="340" y="60" width="2" height="4" fill="#e6b98d"/>
  <rect x="342" y="60" width="4" height="4" fill="#e6b98b"/>
  <rect x="346" y="60" width="2" height="4" fill="#e6ba89"/>
  <rect x="348" y="60" width="4" height="4" fill="#e8b88b"/>
  <rect x="352" y="60" width="4" height="4" fill="#e6b98b"/>
  <rect x="356" y="60" width="12" height="4" fill="#e6b98d"/>
  <rect x="368" y="60" width="6" height="4" fill="#e4ba8d"/>
  <rect x="374" y="60" width="4" height="4" fill="#e4ba8b"/>
  <rect x="378" y="60" width="2" height="4" fill="#e4ba89"/>
  <rect x="380" y="60" width="8" height="4" fill="#e4ba8b"/>
  <rect x="388" y="60" width="12" height="4" fill="#e4ba8d"/>
  <rect x="400" y="60" width="6" height="4" fill="#e6b98d"/>
  <rect x="406" y="60" width="4" height="4" fill="#e6b98b"/>
  <rect x="410" y="60" width="2" height="4" fill="#e6ba89"/>
  <rect x="412" y="60" width="4" height="4" fill="#e6b98b"/>
  <rect x="416" y="60" width="4" height="4" fill="#e4ba8b"/>
  <rect x="420" y="60" width="16" height="4" fill="#e4ba8d"/>
  <rect x="436" y="60" width="2" height="4" fill="#e6b98d"/>
  <rect x="438" y="60" width="4" height="4" fill="#e6b98b"/>
  <rect x="442" y="60" width="2" height="4" fill="#e6ba89"/>
  <rect x="444" y="60" width="4" height="4" fill="#e8b88b"/>
  <rect x="448" y="60" width="4" height="4" fill="#e6b98b"/>
  <rect x="452" y="60" width="12" height="4" fill="#e6b98d"/>
  <rect x="464" y="60" width="6" height="4" fill="#e4ba8d"/>
  <rect x="470" y="60" width="4" height="4" fill="#e4ba8b"/>
  <rect x="474" y="60" width="2" height="4" fill="#e4ba89"/>
  <rect x="476" y="60" width="8" height="4" fill="#e4ba8b"/>
  <rect x="484" y="60" width="12" height="4" fill="#e4ba8d"/>
  <rect x="496" y="60" width="6" height="4" fill="#e6b98d"/>
  <rect x="502" y="60" width="4" height="4" fill="#e6b98b"/>
  <rect x="506" y="60" width="2" height="4" fill="#e6ba89"/>
  <rect x="508" y="60" width="4" height="4" fill="#e6b98b"/>
  <rect x="512" y="60" width="4" height="4" fill="#e4ba8b"/>
  <rect x="516" y="60" width="16" height="4" fill="#e4ba8d"/>
  <rect x="532" y="60" width="2" height="4" fill="#e6b98d"/>
  <rect x="534" y="60" width="4" height="4" fill="#e6b98b"/>
  <rect x="538" y="60" width="2" height="4" fill="#e6ba89"/>
  <rect x="540" y="60" width="4" height="4" fill="#e8b88b"/>
  <rect x="544" y="60" width="4" height="4" fill="#e6b98b"/>
  <rect x="548" y="60" width="12" height="4" fill="#e6b98d"/>
  <rect x="560" y="60" width="6" height="4" fill="#e4ba8d"/>
  <rect x="566" y="60" width="4" height="4" fill="#e4ba8b"/>
  <rect x="570" y="60" width="2" height="4" fill="#e4ba89"/>
  <rect x="572" y="60" width="8" height="4" fill="#e4ba8b"/>
  <rect x="580" y="60" width="12" height="4" fill="#e4ba8d"/>
  <rect x="592" y="60" width="6" height="4" fill="#e6b98d"/>
  <rect x="598" y="60" width="4" height="4" fill="#e6b98b"/>
  <rect x="602" y="60" width="2" height="4" fill="#e6ba89"/>
  <rect x="604" y="60" width="4" height="4" fill="#e6b98b"/>
  <rect x="608" y="60" width="4" height="4" fill="#e4ba8b"/>
  <rect x="612" y="60" width="16" height="4" fill="#e4ba8d"/>
  <rect x="628" y="60" width="2" height="4" fill="#e6b98d"/>
  <rect x="630" y="60" width="4" height="4" fill="#e6b98b"/>
  <rect x="634" y="60" width="2" height="4" fill="#e6ba89"/>
  <rect x="636" y="60" width="4" height="4" fill="#e8b88b"/>
  <rect x="640" y="60" width="4" height="4" fill="#e6b98b"/>
  <rect x="644" y="60" width="12" height="4" fill="#e6b98d"/>
  <rect x="656" y="60" width="6" height="4" fill="#e4ba8d"/>
  <rect x="662" y="60" width="4" height="4" fill="#e4ba8b"/>
  <rect x="666" y="60" width="2" height="4" fill="#e4ba89"/>
  <rect x="668" y="60" width="8" height="4" fill="#e4ba8b"/>
  <rect x="676" y="60" width="12" height="4" fill="#e4ba8d"/>
  <rect x="688" y="60" width="6" height="4" fill="#e6b98d"/>
  <rect x="694" y="60" width="4" height="4" fill="#e6b98b"/>
  <rect x="698" y="60" width="2" height="4" fill="#e6ba89"/>
  <rect x="700" y="60" width="4" height="4" fill="#e6b98b"/>
  <rect x="704" y="60" width="4" height="4" fill="#e4ba8b"/>
  <rect x="708" y="60" width="16" height="4" fill="#e4ba8d"/>
  <rect x="724" y="60" width="2" height="4" fill="#e6b98d"/>
  <rect x="726" y="60" width="4" height="4" fill="#e6b98b"/>
  <rect x="730" y="60" width="2" height="4" fill="#e6ba89"/>
  <rect x="732" y="60" width="4" height="4" fill="#e8b88b"/>
  <rect x="736" y="60" width="4" height="4" fill="#e6b98b"/>
  <rect x="740" y="60" width="12" height="4" fill="#e6b98d"/>
  <rect x="752" y="60" width="6" height="4" fill="#e4ba8d"/>
  <rect x="758" y="60" width="4" height="4" fill="#e4ba8b"/>
  <rect x="762" y="60" width="2" height="4" fill="#e4ba89"/>
  <rect x="764" y="60" width="8" height="4" fill="#e4ba8b"/>
  <rect x="772" y="60" width="12" height="4" fill="#e4ba8d"/>
  <rect x="784" y="60" width="6" height="4" fill="#e6b98d"/>
  <rect x="790" y="60" width="4" height="4" fill="#e6b98b"/>
  <rect x="794" y="60" width="6" height="4" fill="#e6ba89"/>
  <rect x="0" y="63" width="11" height="1" fill="#e4ba8d"/>
  <rect x="11" y="63" width="9" height="1" fill="#e6b98d"/>
  <rect x="26" y="63" width="1" height="1" fill="#e4ba89"/>
  <rect x="27" y="63" width="9" height="1" fill="#e4ba8b"/>
  <rect x="0" y="64" width="4" height="4" fill="#e4ba8d"/>
  <rect x="4" y="64" width="8" height="4" fill="#e6b98d"/>
  <rect x="12" y="64" width="4" height="4" fill="#e8b88b"/>
  <rect x="16" y="64" width="12" height="4" fill="#e6b98b"/>
  <rect x="28" y="64" width="20" height="4" fill="#e6b98d"/>
  <rect x="48" y="64" width="752" height="4" fill="#e6b98b"/>
  <rect x="0" y="68" width="12" height="2" fill="#e5b88c"/>
  <rect x="12" y="68" width="4" height="2" fill="#e6b78a"/>
  <rect x="16" y="68" width="12" height="2" fill="#e5b88a"/>
  <rect x="28" y="68" width="20" height="2" fill="#e5b88c"/>
  <rect x="48" y="68" width="752" height="2" fill="#e5b88a"/>
  <rect x="0" y="70" width="4" height="2" fill="#e5b88a"/>
  <rect x="4" y="70" width="8" height="2" fill="#e5b88c"/>
  <rect x="12" y="70" width="20" height="2" fill="#e5b88a"/>
  <rect x="32" y="70" width="10" height="2" fill="#e5b88c"/>
  <rect x="42" y="70" width="758" height="2" fill="#e5b88a"/>
  <rect x="0" y="72" width="4" height="2" fill="#e4b788"/>
  <rect x="4" y="72" width="2" height="4" fill="#e5b688"/>
  <rect x="6" y="72" width="4" height="4" fill="#e4b788"/>
  <rect x="10" y="72" width="2" height="4" fill="#e2b888"/>
  <rect x="12" y="72" width="10" height="2" fill="#e4b68b"/>
  <rect x="22" y="72" width="4" height="4" fill="#e4b788"/>
  <rect x="26" y="72" width="2" height="4" fill="#e4b786"/>
  <rect x="28" y="72" width="4" height="2" fill="#e4b788"/>
  <rect x="32" y="72" width="6" height="2" fill="#e4b68b"/>
  <rect x="38" y="72" width="762" height="2" fill="#e4b788"/>
  <rect x="0" y="74" width="4" height="2" fill="#e4b786"/>
  <rect x="12" y="74" width="4" height="2" fill="#e2b78b"/>
  <rect x="16" y="74" width="6" height="2" fill="#e4b68b"/>
  <rect x="28" y="74" width="8" height="2" fill="#e4b788"/>
  <rect x="36" y="74" width="2" height="2" fill="#e4b68b"/>
  <rect x="38" y="74" width="4" height="2" fill="#e4b788"/>
  <rect x="42" y="74" width="6" height="2" fill="#e4b786"/>
  <rect x="48" y="74" width="752" height="2" fill="#e4b788"/>
  <rect x="0" y="76" width="4" height="4" fill="#e4b585"/>
  <rect x="4" y="76" width="2" height="4" fill="#e4b587"/>
  <rect x="6" y="76" width="4" height="4" fill="#e2b687"/>
  <rect x="10" y="76" width="2" height="4" fill="#e1b687"/>
  <rect x="12" y="76" width="4" height="4" fill="#e1b689"/>
  <rect x="16" y="76" width="6" height="4" fill="#e2b589"/>
  <rect x="22" y="76" width="4" height="4" fill="#e2b687"/>
  <rect x="26" y="76" width="2" height="4" fill="#e2b685"/>
  <rect x="28" y="76" width="8" height="4" fill="#e2b687"/>
  <rect x="36" y="76" width="2" height="4" fill="#e2b589"/>
  <rect x="38" y="76" width="4" height="4" fill="#e2b687"/>
  <rect x="42" y="76" width="6" height="4" fill="#e2b685"/>
  <rect x="48" y="76" width="752" height="4" fill="#e2b687"/>
  <rect x="0" y="80" width="800" height="120" fill="#e1b586"/>
</svg>