<svg xmlns="http://www.w3.org/2000/svg" width="121" height="121" viewBox="0 0 121 121" shape-rendering="crispEdges">
  <rect x="0" y="0" width="6" height="6" fill="#6f98df"/>
  <rect x="6" y="0" width="4" height="7" fill="#6f98dc"/>
  <rect x="10" y="0" width="6" height="4" fill="#6f99da"/>
  <rect x="16" y="0" width="16" height="7" fill="#709ade"/>
  <rect x="32" y="0" width="16" height="7" fill="#6f98dc"/>
  <rect x="48" y="0" width="16" height="7" fill="#709ade"/>
  <rect x="64" y="0" width="16" height="7" fill="#6f98dc"/>
  <rect x="80" y="0" width="16" height="7" fill="#709ade"/>
  <rect x="96" y="0" width="16" height="7" fill="#6f98dc"/>
  <rect x="112" y="0" width="9" height="7" fill="#709ade"/>
  <rect x="10" y="4" width="2" height="3" fill="#6f99da"/>
  <rect x="12" y="4" width="4" height="3" fill="#6f98dc"/>
  <rect x="0" y="6" width="4" height="1" fill="#6f98dc"/>
  <rect x="4" y="6" width="2" height="1" fill="#6f98df"/>
  <rect x="0" y="7" width="4" height="1" fill="#6e97db"/>
  <rect x="4" y="7" width="2" height="1" fill="#6e97dd"/>
  <rect x="6" y="7" width="4" height="1" fill="#6e97db"/>
  <rect x="10" y="7" width="2" height="1" fill="#6e98d9"/>
  <rect x="12" y="7" width="2" height="1" fill="#6e97db"/>
  <rect x="14" y="7" width="20" height="1" fill="#6f98dc"/>
  <rect x="34" y="7" width="12" height="1" fill="#6e97db"/>
  <rect x="46" y="7" width="20" height="1" fill="#6f98dc"/>
  <rect x="66" y="7" width="12" height="1" fill="#6e97db"/>
  <rect x="78" y="7" width="20" height="1" fill="#6f98dc"/>
  <rect x="98" y="7" width="12" height="1" fill="#6e97db"/>
  <rect x="110" y="7" width="11" height="1" fill="#6f98dc"/>
  <rect x="0" y="8" width="18" height="1" fill="#6e97db"/>
  <rect x="18" y="8" width="12" height="1" fill="#6f98dc"/>
  <rect x="30" y="8" width="20" height="1" fill="#6e97db"/>
  <rect x="50" y="8" width="12" height="1" fill="#6f98dc"/>
  <rect x="62" y="8" width="20" height="1" fill="#6e97db"/>
  <rect x="82" y="8" width="12" height="1" fill="#6f98dc"/>
  <rect x="94" y="8" width="20" height="1" fill="#6e97db"/>
  <rect x="114" y="8" width="7" height="1" fill="#6f98dc"/>
  <rect x="0" y="9" width="16" height="1" fill="#6d96da"/>
  <rect x="16" y="9" width="16" height="7" fill="#6e97db"/>
  <rect x="32" y="9" width="16" height="7" fill="#6d96da"/>
  <rect x="48" y="9" width="16" height="7" fill="#6e97db"/>
  <rect x="64" y="9" width="16" height="7" fill="#6d96da"/>
  <rect x="80" y="9" width="16" height="7" fill="#6e97db"/>
  <rect x="96" y="9" width="16" height="7" fill="#6d96da"/>
  <rect x="112" y="9" width="9" height="7" fill="#6e97db"/>
  <rect x="0" y="10" width="4" height="6" fill="#6d97d8"/>
  <rect x="4" y="10" width="12" height="2" fill="#6d96da"/>
  <rect x="4" y="12" width="8" height="4" fill="#6d96da"/>
  <rect x="12" y="12" width="4" height="4" fill="#6d96dc"/>
  <rect x="0" y="16" width="121" height="105" fill="#6d96da"/>
</svg>