<svg xmlns="http://www.w3.org/2000/svg" width="121" height="121" viewBox="0 0 121 121" shape-rendering="crispEdges">
  <rect x="0" y="0" width="32" height="4" fill="#8fb619"/>
  <rect x="32" y="0" width="48" height="4" fill="#91b519"/>
  <rect x="80" y="0" width="20" height="4" fill="#8fb619"/>
  <rect x="100" y="0" width="8" height="4" fill="#91b519"/>
  <rect x="108" y="0" width="4" height="4" fill="#92b419"/>
  <rect x="112" y="0" width="4" height="4" fill="#91b617"/>
  <rect x="116" y="0" width="5" height="4" fill="#91b519"/>
  <rect x="0" y="4" width="8" height="3" fill="#8eb51a"/>
  <rect x="8" y="4" width="12" height="3" fill="#8eb518"/>
  <rect x="20" y="4" width="2" height="3" fill="#8eb51a"/>
  <rect x="22" y="4" width="6" height="3" fill="#8eb518"/>
  <rect x="28" y="4" width="16" height="3" fill="#8fb418"/>
  <rect x="44" y="4" width="4" height="3" fill="#8fb41a"/>
  <rect x="48" y="4" width="12" height="2" fill="#8fb418"/>
  <rect x="60" y="4" width="10" height="2" fill="#8fb41a"/>
  <rect x="70" y="4" width="10" height="2" fill="#8fb418"/>
  <rect x="80" y="4" width="12" height="2" fill="#8eb518"/>
  <rect x="92" y="4" width="4" height="3" fill="#8eb51a"/>
  <rect x="96" y="4" width="4" height="3" fill="#8eb518"/>
  <rect x="100" y="4" width="8" height="2" fill="#8fb418"/>
  <rect x="108" y="4" width="4" height="2" fill="#91b318"/>
  <rect x="112" y="4" width="9" height="2" fill="#8fb418"/>
  <rect x="48" y="6" width="10" height="1" fill="#8fb418"/>
  <rect x="58" y="6" width="2" height="1" fill="#8eb518"/>
  <rect x="60" y="6" width="4" height="1" fill="#8eb51a"/>
  <rect x="64" y="6" width="6" height="1" fill="#8fb41a"/>
  <rect x="70" y="6" width="4" height="1" fill="#8fb418"/>
  <rect x="74" y="6" width="18" height="1" fill="#8eb518"/>
  <rect x="100" y="6" width="21" height="1" fill="#8fb418"/>
  <rect x="0" y="7" width="8" height="1" fill="#8db319"/>
  <rect x="8" y="7" width="12" height="1" fill="#8db417"/>
  <rect x="20" y="7" width="2" height="1" fill="#8db319"/>
  <rect x="22" y="7" width="6" height="1" fill="#8db417"/>
  <rect x="28" y="7" width="16" height="1" fill="#8eb317"/>
  <rect x="44" y="7" width="4" height="1" fill="#8eb319"/>
  <rect x="48" y="7" width="10" height="1" fill="#8eb317"/>
  <rect x="58" y="7" width="2" height="1" fill="#8db417"/>
  <rect x="60" y="7" width="4" height="1" fill="#8db319"/>
  <rect x="64" y="7" width="6" height="2" fill="#8eb319"/>
  <rect x="70" y="7" width="4" height="1" fill="#8eb317"/>
  <rect x="74" y="7" width="18" height="1" fill="#8db417"/>
  <rect x="92" y="7" width="4" height="1" fill="#8db319"/>
  <rect x="96" y="7" width="3" height="1" fill="#8db417"/>
  <rect x="99" y="7" width="22" height="1" fill="#8eb317"/>
  <rect x="0" y="8" width="6" height="1" fill="#8db31b"/>
  <rect x="6" y="8" width="4" height="1" fill="#8db319"/>
  <rect x="10" y="8" width="2" height="1" fill="#8db417"/>
  <rect x="12" y="8" width="8" height="1" fill="#8db319"/>
  <rect x="20" y="8" width="6" height="1" fill="#8eb319"/>
  <rect x="26" y="8" width="10" height="1" fill="#8eb317"/>
  <rect x="36" y="8" width="12" height="1" fill="#8eb319"/>
  <rect x="48" y="8" width="4" height="1" fill="#8eb317"/>
  <rect x="52" y="8" width="2" height="1" fill="#8eb319"/>
  <rect x="54" y="8" width="10" height="1" fill="#8db319"/>
  <rect x="70" y="8" width="4" height="1" fill="#8db319"/>
  <rect x="74" y="8" width="10" height="1" fill="#8db417"/>
  <rect x="84" y="8" width="8" height="1" fill="#8db319"/>
  <rect x="92" y="8" width="4" height="1" fill="#8eb319"/>
  <rect x="96" y="8" width="4" height="1" fill="#8eb317"/>
  <rect x="100" y="8" width="2" height="1" fill="#90b219"/>
  <rect x="102" y="8" width="4" height="1" fill="#8eb319"/>
  <rect x="106" y="8" width="2" height="1" fill="#8db319"/>
  <rect x="108" y="8" width="10" height="1" fill="#8eb319"/>
  <rect x="118" y="8" width="3" height="1" fill="#8db319"/>
  <rect x="0" y="9" width="6" height="2" fill="#8bb21a"/>
  <rect x="6" y="9" width="4" height="2" fill="#8bb218"/>
  <rect x="10" y="9" width="2" height="3" fill="#8bb316"/>
  <rect x="12" y="9" width="8" height="3" fill="#8bb218"/>
  <rect x="20" y="9" width="6" height="3" fill="#8db118"/>
  <rect x="26" y="9" width="10" height="3" fill="#8db216"/>
  <rect x="36" y="9" width="12" height="3" fill="#8db118"/>
  <rect x="48" y="9" width="4" height="3" fill="#8db216"/>
  <rect x="52" y="9" width="2" height="3" fill="#8db118"/>
  <rect x="54" y="9" width="10" height="1" fill="#8bb218"/>
  <rect x="64" y="9" width="6" height="1" fill="#8db118"/>
  <rect x="70" y="9" width="4" height="3" fill="#8bb218"/>
  <rect x="74" y="9" width="10" height="1" fill="#8bb316"/>
  <rect x="84" y="9" width="8" height="3" fill="#8bb218"/>
  <rect x="92" y="9" width="4" height="2" fill="#8db118"/>
  <rect x="96" y="9" width="4" height="2" fill="#8db216"/>
  <rect x="100" y="9" width="2" height="3" fill="#8fb118"/>
  <rect x="102" y="9" width="4" height="3" fill="#8db118"/>
  <rect x="106" y="9" width="2" height="1" fill="#8bb218"/>
  <rect x="108" y="9" width="10" height="1" fill="#8db118"/>
  <rect x="118" y="9" width="3" height="3" fill="#8bb218"/>
  <rect x="54" y="10" width="4" height="2" fill="#8bb218"/>
  <rect x="58" y="10" width="2" height="2" fill="#8ab318"/>
  <rect x="60" y="10" width="8" height="2" fill="#8bb218"/>
  <rect x="68" y="10" width="2" height="2" fill="#8db118"/>
  <rect x="74" y="10" width="6" height="2" fill="#8ab316"/>
  <rect x="80" y="10" width="4" height="2" fill="#8bb316"/>
  <rect x="106" y="10" width="6" height="2" fill="#8bb218"/>
  <rect x="112" y="10" width="6" height="2" fill="#8db118"/>
  <rect x="0" y="11" width="7" height="1" fill="#8bb21a"/>
  <rect x="7" y="11" width="3" height="1" fill="#8bb218"/>
  <rect x="92" y="11" width="8" height="1" fill="#8db118"/>
  <rect x="0" y="12" width="6" height="4" fill="#8ab01b"/>
  <rect x="6" y="12" width="2" height="4" fill="#8ab119"/>
  <rect x="8" y="12" width="12" height="4" fill="#8ab117"/>
  <rect x="20" y="12" width="2" height="4" fill="#8cb019"/>
  <rect x="22" y="12" width="32" height="4" fill="#8cb017"/>
  <rect x="54" y="12" width="4" height="4" fill="#8ab117"/>
  <rect x="58" y="12" width="2" height="4" fill="#89b217"/>
  <rect x="60" y="12" width="8" height="4" fill="#8ab119"/>
  <rect x="68" y="12" width="2" height="4" fill="#8cb019"/>
  <rect x="70" y="12" width="4" height="4" fill="#8ab117"/>
  <rect x="74" y="12" width="6" height="4" fill="#89b217"/>
  <rect x="80" y="12" width="12" height="4" fill="#8ab117"/>
  <rect x="92" y="12" width="5" height="1" fill="#8cb017"/>
  <rect x="97" y="12" width="9" height="1" fill="#8cb019"/>
  <rect x="106" y="12" width="2" height="4" fill="#8ab117"/>
  <rect x="108" y="12" width="4" height="4" fill="#8ab119"/>
  <rect x="112" y="12" width="6" height="4" fill="#8cb017"/>
  <rect x="118" y="12" width="3" height="4" fill="#8ab117"/>
  <rect x="92" y="13" width="4" height="2" fill="#8cb017"/>
  <rect x="96" y="13" width="10" height="2" fill="#8cb019"/>
  <rect x="92" y="15" width="1" height="1" fill="#8cb017"/>
  <rect x="93" y="15" width="13" height="1" fill="#8cb019"/>
  <rect x="0" y="16" width="10" height="3" fill="#89af18"/>
  <rect x="10" y="16" width="2" height="3" fill="#89b016"/>
  <rect x="12" y="16" width="14" height="3" fill="#89af18"/>
  <rect x="26" y="16" width="2" height="4" fill="#89b016"/>
  <rect x="28" y="16" width="4" height="4" fill="#8baf16"/>
  <rect x="32" y="16" width="4" height="4" fill="#89b016"/>
  <rect x="36" y="16" width="38" height="4" fill="#89af18"/>
  <rect x="74" y="16" width="10" height="4" fill="#89b016"/>
  <rect x="84" y="16" width="9" height="1" fill="#89af18"/>
  <rect x="93" y="16" width="2" height="1" fill="#89af1a"/>
  <rect x="95" y="16" width="5" height="1" fill="#89af18"/>
  <rect x="100" y="16" width="2" height="4" fill="#8bae1a"/>
  <rect x="102" y="16" width="19" height="3" fill="#89af18"/>
  <rect x="84" y="17" width="8" height="3" fill="#89af18"/>
  <rect x="92" y="17" width="4" height="3" fill="#89af1a"/>
  <rect x="96" y="17" width="4" height="2" fill="#89af18"/>
  <rect x="0" y="19" width="26" height="1" fill="#89af18"/>
  <rect x="96" y="19" width="3" height="1" fill="#89af18"/>
  <rect x="99" y="19" width="1" height="1" fill="#89af1a"/>
  <rect x="102" y="19" width="1" height="1" fill="#89af1a"/>
  <rect x="103" y="19" width="18" height="1" fill="#89af18"/>
  <rect x="0" y="20" width="16" height="3" fill="#88ae19"/>
  <rect x="16" y="20" width="76" height="3" fill="#88ae16"/>
  <rect x="92" y="20" width="8" height="3" fill="#88ae19"/>
  <rect x="100" y="20" width="2" height="3" fill="#88ae1b"/>
  <rect x="102" y="20" width="10" height="3" fill="#88ae19"/>
  <rect x="112" y="20" width="9" height="3" fill="#88ae16"/>
  <rect x="0" y="23" width="16" height="2" fill="#87ad17"/>
  <rect x="16" y="23" width="80" height="1" fill="#88ae19"/>
  <rect x="96" y="23" width="4" height="1" fill="#87ad17"/>
  <rect x="100" y="23" width="2" height="1" fill="#87ac19"/>
  <rect x="102" y="23" width="10" height="1" fill="#87ad17"/>
  <rect x="112" y="23" width="9" height="1" fill="#88ae19"/>
  <rect x="16" y="24" width="1" height="1" fill="#86ac16"/>
  <rect x="17" y="24" width="79" height="1" fill="#86ab18"/>
  <rect x="96" y="24" width="10" height="1" fill="#87ac19"/>
  <rect x="106" y="24" width="6" height="1" fill="#87ad17"/>
  <rect x="112" y="24" width="1" height="1" fill="#86ac16"/>
  <rect x="113" y="24" width="8" height="1" fill="#86ab18"/>
  <rect x="0" y="25" width="16" height="2" fill="#86ac16"/>
  <rect x="16" y="25" width="90" height="2" fill="#86ab18"/>
  <rect x="106" y="25" width="6" height="3" fill="#86ac16"/>
  <rect x="112" y="25" width="9" height="3" fill="#86ab18"/>
  <rect x="0" y="27" width="13" height="1" fill="#86ac16"/>
  <rect x="13" y="27" width="93" height="1" fill="#86ab18"/>
  <rect x="0" y="28" width="13" height="1" fill="#84aa17"/>
  <rect x="13" y="28" width="2" height="1" fill="#84aa19"/>
  <rect x="15" y="28" width="106" height="1" fill="#84aa17"/>
  <rect x="0" y="29" width="12" height="1" fill="#84aa17"/>
  <rect x="12" y="29" width="4" height="1" fill="#84aa19"/>
  <rect x="16" y="29" width="105" height="1" fill="#84aa17"/>
  <rect x="0" y="30" width="12" height="2" fill="#83a916"/>
  <rect x="12" y="30" width="4" height="2" fill="#83a818"/>
  <rect x="16" y="30" width="105" height="2" fill="#83a916"/>
  <rect x="0" y="32" width="4" height="2" fill="#83a916"/>
  <rect x="4" y="32" width="117" height="2" fill="#83a818"/>
  <rect x="0" y="34" width="4" height="2" fill="#82a815"/>
  <rect x="4" y="34" width="117" height="2" fill="#82a717"/>
  <rect x="0" y="36" width="12" height="2" fill="#81a616"/>
  <rect x="12" y="36" width="109" height="2" fill="#81a618"/>
  <rect x="0" y="38" width="10" height="1" fill="#81a616"/>
  <rect x="10" y="38" width="2" height="1" fill="#7fa716"/>
  <rect x="12" y="38" width="4" height="1" fill="#7fa718"/>
  <rect x="16" y="38" width="10" height="1" fill="#81a618"/>
  <rect x="26" y="38" width="6" height="1" fill="#7fa718"/>
  <rect x="32" y="38" width="10" height="1" fill="#81a618"/>
  <rect x="42" y="38" width="6" height="1" fill="#7fa718"/>
  <rect x="48" y="38" width="10" height="1" fill="#81a618"/>
  <rect x="58" y="38" width="6" height="1" fill="#7fa718"/>
  <rect x="64" y="38" width="10" height="1" fill="#81a618"/>
  <rect x="74" y="38" width="6" height="1" fill="#7fa718"/>
  <rect x="80" y="38" width="10" height="1" fill="#81a618"/>
  <rect x="90" y="38" width="6" height="1" fill="#7fa718"/>
  <rect x="96" y="38" width="10" height="1" fill="#81a618"/>
  <rect x="106" y="38" width="6" height="1" fill="#7fa718"/>
  <rect x="112" y="38" width="9" height="1" fill="#81a618"/>
  <rect x="0" y="39" width="10" height="1" fill="#80a514"/>
  <rect x="10" y="39" width="2" height="1" fill="#7ea614"/>
  <rect x="12" y="39" width="4" height="1" fill="#7ea516"/>
  <rect x="16" y="39" width="10" height="1" fill="#80a516"/>
  <rect x="26" y="39" width="6" height="1" fill="#7ea516"/>
  <rect x="32" y="39" width="10" height="1" fill="#80a516"/>
  <rect x="42" y="39" width="6" height="1" fill="#7ea516"/>
  <rect x="48" y="39" width="10" height="1" fill="#80a516"/>
  <rect x="58" y="39" width="6" height="1" fill="#7ea516"/>
  <rect x="64" y="39" width="10" height="1" fill="#80a516"/>
  <rect x="74" y="39" width="6" height="1" fill="#7ea516"/>
  <rect x="80" y="39" width="10" height="1" fill="#80a516"/>
  <rect x="90" y="39" width="6" height="1" fill="#7ea516"/>
  <rect x="96" y="39" width="10" height="1" fill="#80a516"/>
  <rect x="106" y="39" width="6" height="1" fill="#7ea516"/>
  <rect x="112" y="39" width="9" height="1" fill="#80a516"/>
  <rect x="0" y="40" width="4" height="1" fill="#80a514"/>
  <rect x="4" y="40" width="2" height="1" fill="#80a516"/>
  <rect x="6" y="40" width="10" height="1" fill="#7ea516"/>
  <rect x="16" y="40" width="6" height="1" fill="#80a516"/>
  <rect x="22" y="40" width="10" height="1" fill="#7ea516"/>
  <rect x="32" y="40" width="6" height="1" fill="#80a516"/>
  <rect x="38" y="40" width="10" height="1" fill="#7ea516"/>
  <rect x="48" y="40" width="6" height="1" fill="#80a516"/>
  <rect x="54" y="40" width="10" height="1" fill="#7ea516"/>
  <rect x="64" y="40" width="6" height="1" fill="#80a516"/>
  <rect x="70" y="40" width="10" height="1" fill="#7ea516"/>
  <rect x="80" y="40" width="6" height="1" fill="#80a516"/>
  <rect x="86" y="40" width="10" height="1" fill="#7ea516"/>
  <rect x="96" y="40" width="6" height="1" fill="#80a516"/>
  <rect x="102" y="40" width="10" height="1" fill="#7ea516"/>
  <rect x="112" y="40" width="6" height="1" fill="#80a516"/>
  <rect x="118" y="40" width="3" height="1" fill="#7ea516"/>
  <rect x="0" y="41" width="4" height="2" fill="#7fa413"/>
  <rect x="4" y="41" width="2" height="2" fill="#7fa315"/>
  <rect x="6" y="41" width="10" height="1" fill="#7da415"/>
  <rect x="16" y="41" width="6" height="1" fill="#7fa315"/>
  <rect x="22" y="41" width="10" height="1" fill="#7da415"/>
  <rect x="32" y="41" width="6" height="1" fill="#7fa315"/>
  <rect x="38" y="41" width="10" height="1" fill="#7da415"/>
  <rect x="48" y="41" width="6" height="1" fill="#7fa315"/>
  <rect x="54" y="41" width="10" height="1" fill="#7da415"/>
  <rect x="64" y="41" width="6" height="1" fill="#7fa315"/>
  <rect x="70" y="41" width="10" height="1" fill="#7da415"/>
  <rect x="80" y="41" width="6" height="1" fill="#7fa315"/>
  <rect x="86" y="41" width="10" height="1" fill="#7da415"/>
  <rect x="96" y="41" width="6" height="1" fill="#7fa315"/>
  <rect x="102" y="41" width="10" height="1" fill="#7da415"/>
  <rect x="112" y="41" width="6" height="1" fill="#7fa315"/>
  <rect x="118" y="41" width="3" height="2" fill="#7da415"/>
  <rect x="6" y="42" width="4" height="1" fill="#7da415"/>
  <rect x="10" y="42" width="2" height="1" fill="#7ba515"/>
  <rect x="12" y="42" width="8" height="1" fill="#7da415"/>
  <rect x="20" y="42" width="2" height="1" fill="#7fa315"/>
  <rect x="22" y="42" width="4" height="1" fill="#7da415"/>
  <rect x="26" y="42" width="2" height="1" fill="#7ba515"/>
  <rect x="28" y="42" width="8" height="1" fill="#7da415"/>
  <rect x="36" y="42" width="2" height="1" fill="#7fa315"/>
  <rect x="38" y="42" width="4" height="1" fill="#7da415"/>
  <rect x="42" y="42" width="2" height="1" fill="#7ba515"/>
  <rect x="44" y="42" width="8" height="1" fill="#7da415"/>
  <rect x="52" y="42" width="2" height="1" fill="#7fa315"/>
  <rect x="54" y="42" width="4" height="1" fill="#7da415"/>
  <rect x="58" y="42" width="2" height="1" fill="#7ba515"/>
  <rect x="60" y="42" width="8" height="1" fill="#7da415"/>
  <rect x="68" y="42" width="2" height="1" fill="#7fa315"/>
  <rect x="70" y="42" width="4" height="1" fill="#7da415"/>
  <rect x="74" y="42" width="2" height="1" fill="#7ba515"/>
  <rect x="76" y="42" width="8" height="1" fill="#7da415"/>
  <rect x="84" y="42" width="2" height="1" fill="#7fa315"/>
  <rect x="86" y="42" width="4" height="1" fill="#7da415"/>
  <rect x="90" y="42" width="2" height="1" fill="#7ba515"/>
  <rect x="92" y="42" width="8" height="1" fill="#7da415"/>
  <rect x="100" y="42" width="2" height="1" fill="#7fa315"/>
  <rect x="102" y="42" width="4" height="1" fill="#7da415"/>
  <rect x="106" y="42" width="2" height="1" fill="#7ba515"/>
  <rect x="108" y="42" width="8" height="1" fill="#7da415"/>
  <rect x="116" y="42" width="2" height="1" fill="#7fa315"/>
  <rect x="0" y="43" width="6" height="1" fill="#7da214"/>
  <rect x="6" y="43" width="4" height="1" fill="#7ca314"/>
  <rect x="10" y="43" width="2" height="1" fill="#7aa414"/>
  <rect x="12" y="43" width="8" height="1" fill="#7ca314"/>
  <rect x="20" y="43" width="2" height="1" fill="#7da214"/>
  <rect x="22" y="43" width="4" height="1" fill="#7ca314"/>
  <rect x="26" y="43" width="2" height="1" fill="#7aa414"/>
  <rect x="28" y="43" width="8" height="1" fill="#7ca314"/>
  <rect x="36" y="43" width="2" height="1" fill="#7da214"/>
  <rect x="38" y="43" width="4" height="1" fill="#7ca314"/>
  <rect x="42" y="43" width="2" height="1" fill="#7aa414"/>
  <rect x="44" y="43" width="8" height="1" fill="#7ca314"/>
  <rect x="52" y="43" width="2" height="1" fill="#7da214"/>
  <rect x="54" y="43" width="4" height="1" fill="#7ca314"/>
  <rect x="58" y="43" width="2" height="1" fill="#7aa414"/>
  <rect x="60" y="43" width="8" height="1" fill="#7ca314"/>
  <rect x="68" y="43" width="2" height="1" fill="#7da214"/>
  <rect x="70" y="43" width="4" height="1" fill="#7ca314"/>
  <rect x="74" y="43" width="2" height="1" fill="#7aa414"/>
  <rect x="76" y="43" width="8" height="1" fill="#7ca314"/>
  <rect x="84" y="43" width="2" height="1" fill="#7da214"/>
  <rect x="86" y="43" width="4" height="1" fill="#7ca314"/>
  <rect x="90" y="43" width="2" height="1" fill="#7aa414"/>
  <rect x="92" y="43" width="8" height="1" fill="#7ca314"/>
  <rect x="100" y="43" width="2" height="1" fill="#7da214"/>
  <rect x="102" y="43" width="4" height="1" fill="#7ca314"/>
  <rect x="106" y="43" width="2" height="1" fill="#7aa414"/>
  <rect x="108" y="43" width="8" height="1" fill="#7ca314"/>
  <rect x="116" y="43" width="2" height="1" fill="#7da214"/>
  <rect x="118" y="43" width="3" height="1" fill="#7ca314"/>
  <rect x="0" y="44" width="6" height="1" fill="#7da216"/>
  <rect x="6" y="44" width="4" height="1" fill="#7ca316"/>
  <rect x="10" y="44" width="2" height="1" fill="#7aa416"/>
  <rect x="12" y="44" width="8" height="1" fill="#7ca316"/>
  <rect x="20" y="44" width="2" height="1" fill="#7da216"/>
  <rect x="22" y="44" width="4" height="1" fill="#7ca316"/>
  <rect x="26" y="44" width="2" height="1" fill="#7aa416"/>
  <rect x="28" y="44" width="8" height="1" fill="#7ca316"/>
  <rect x="36" y="44" width="2" height="1" fill="#7da216"/>
  <rect x="38" y="44" width="4" height="1" fill="#7ca316"/>
  <rect x="42" y="44" width="2" height="1" fill="#7aa416"/>
  <rect x="44" y="44" width="8" height="1" fill="#7ca316"/>
  <rect x="52" y="44" width="2" height="1" fill="#7da216"/>
  <rect x="54" y="44" width="4" height="1" fill="#7ca316"/>
  <rect x="58" y="44" width="2" height="1" fill="#7aa416"/>
  <rect x="60" y="44" width="8" height="1" fill="#7ca316"/>
  <rect x="68" y="44" width="2" height="1" fill="#7da216"/>
  <rect x="70" y="44" width="4" height="1" fill="#7ca316"/>
  <rect x="74" y="44" width="2" height="1" fill="#7aa416"/>
  <rect x="76" y="44" width="8" height="1" fill="#7ca316"/>
  <rect x="84" y="44" width="2" height="1" fill="#7da216"/>
  <rect x="86" y="44" width="4" height="1" fill="#7ca316"/>
  <rect x="90" y="44" width="2" height="1" fill="#7aa416"/>
  <rect x="92" y="44" width="8" height="1" fill="#7ca316"/>
  <rect x="100" y="44" width="2" height="1" fill="#7da216"/>
  <rect x="102" y="44" width="4" height="1" fill="#7ca316"/>
  <rect x="106" y="44" width="2" height="1" fill="#7aa416"/>
  <rect x="108" y="44" width="8" height="1" fill="#7ca316"/>
  <rect x="116" y="44" width="2" height="1" fill="#7da216"/>
  <rect x="118" y="44" width="3" height="1" fill="#7ca316"/>
  <rect x="0" y="45" width="6" height="1" fill="#7ca115"/>
  <rect x="6" y="45" width="4" height="1" fill="#7ba215"/>
  <rect x="10" y="45" width="2" height="1" fill="#79a215"/>
  <rect x="12" y="45" width="8" height="1" fill="#7ba215"/>
  <rect x="20" y="45" width="2" height="1" fill="#7ca115"/>
  <rect x="22" y="45" width="4" height="1" fill="#7ba215"/>
  <rect x="26" y="45" width="2" height="1" fill="#79a215"/>
  <rect x="28" y="45" width="8" height="1" fill="#7ba215"/>
  <rect x="36" y="45" width="2" height="1" fill="#7ca115"/>
  <rect x="38" y="45" width="4" height="1" fill="#7ba215"/>
  <rect x="42" y="45" width="2" height="1" fill="#79a215"/>
  <rect x="44" y="45" width="8" height="1" fill="#7ba215"/>
  <rect x="52" y="45" width="2" height="1" fill="#7ca115"/>
  <rect x="54" y="45" width="4" height="1" fill="#7ba215"/>
  <rect x="58" y="45" width="2" height="1" fill="#79a215"/>
  <rect x="60" y="45" width="8" height="1" fill="#7ba215"/>
  <rect x="68" y="45" width="2" height="1" fill="#7ca115"/>
  <rect x="70" y="45" width="4" height="1" fill="#7ba215"/>
  <rect x="74" y="45" width="2" height="1" fill="#79a215"/>
  <rect x="76" y="45" width="8" height="1" fill="#7ba215"/>
  <rect x="84" y="45" width="2" height="1" fill="#7ca115"/>
  <rect x="86" y="45" width="4" height="1" fill="#7ba215"/>
  <rect x="90" y="45" width="2" height="1" fill="#79a215"/>
  <rect x="92" y="45" width="8" height="1" fill="#7ba215"/>
  <rect x="100" y="45" width="2" height="1" fill="#7ca115"/>
  <rect x="102" y="45" width="4" height="1" fill="#7ba215"/>
  <rect x="106" y="45" width="2" height="1" fill="#79a215"/>
  <rect x="108" y="45" width="8" height="1" fill="#7ba215"/>
  <rect x="116" y="45" width="2" height="1" fill="#7ca115"/>
  <rect x="118" y="45" width="3" height="1" fill="#7ba215"/>
  <rect x="0" y="46" width="6" height="2" fill="#7ba014"/>
  <rect x="6" y="46" width="4" height="2" fill="#7aa014"/>
  <rect x="10" y="46" width="2" height="2" fill="#78a114"/>
  <rect x="12" y="46" width="8" height="2" fill="#7aa014"/>
  <rect x="20" y="46" width="2" height="2" fill="#7ba014"/>
  <rect x="22" y="46" width="4" height="2" fill="#7aa014"/>
  <rect x="26" y="46" width="2" height="2" fill="#78a114"/>
  <rect x="28" y="46" width="8" height="2" fill="#7aa014"/>
  <rect x="36" y="46" width="2" height="2" fill="#7ba014"/>
  <rect x="38" y="46" width="4" height="2" fill="#7aa014"/>
  <rect x="42" y="46" width="2" height="2" fill="#78a114"/>
  <rect x="44" y="46" width="8" height="2" fill="#7aa014"/>
  <rect x="52" y="46" width="2" height="2" fill="#7ba014"/>
  <rect x="54" y="46" width="4" height="2" fill="#7aa014"/>
  <rect x="58" y="46" width="2" height="2" fill="#78a114"/>
  <rect x="60" y="46" width="8" height="2" fill="#7aa014"/>
  <rect x="68" y="46" width="2" height="2" fill="#7ba014"/>
  <rect x="70" y="46" width="4" height="2" fill="#7aa014"/>
  <rect x="74" y="46" width="2" height="2" fill="#78a114"/>
  <rect x="76" y="46" width="8" height="2" fill="#7aa014"/>
  <rect x="84" y="46" width="2" height="2" fill="#7ba014"/>
  <rect x="86" y="46" width="4" height="2" fill="#7aa014"/>
  <rect x="90" y="46" width="2" height="2" fill="#78a114"/>
  <rect x="92" y="46" width="8" height="2" fill="#7aa014"/>
  <rect x="100" y="46" width="2" height="2" fill="#7ba014"/>
  <rect x="102" y="46" width="4" height="2" fill="#7aa014"/>
  <rect x="106" y="46" width="2" height="2" fill="#78a114"/>
  <rect x="108" y="46" width="8" height="2" fill="#7aa014"/>
  <rect x="116" y="46" width="2" height="2" fill="#7ba014"/>
  <rect x="118" y="46" width="3" height="2" fill="#7aa014"/>
  <rect x="0" y="48" width="16" height="2" fill="#7aa014"/>
  <rect x="16" y="48" width="105" height="2" fill="#7aa016"/>
  <rect x="0" y="50" width="16" height="2" fill="#789f13"/>
  <rect x="16" y="50" width="105" height="2" fill="#789f15"/>
  <rect x="0" y="52" width="28" height="3" fill="#779e13"/>
  <rect x="28" y="52" width="4" height="3" fill="#779d15"/>
  <rect x="32" y="52" width="89" height="3" fill="#779e13"/>
  <rect x="0" y="55" width="8" height="1" fill="#779e13"/>
  <rect x="8" y="55" width="7" height="1" fill="#779d15"/>
  <rect x="15" y="55" width="13" height="1" fill="#779e13"/>
  <rect x="28" y="55" width="93" height="1" fill="#779d15"/>
  <rect x="0" y="56" width="7" height="4" fill="#769c12"/>
  <rect x="7" y="56" width="1" height="4" fill="#769c14"/>
  <rect x="8" y="56" width="7" height="1" fill="#769c16"/>
  <rect x="15" y="56" width="18" height="1" fill="#769c14"/>
  <rect x="33" y="56" width="88" height="1" fill="#769c16"/>
  <rect x="8" y="57" width="1" height="3" fill="#769c16"/>
  <rect x="9" y="57" width="3" height="3" fill="#769b18"/>
  <rect x="12" y="57" width="4" height="3" fill="#769c16"/>
  <rect x="16" y="57" width="16" height="3" fill="#769c14"/>
  <rect x="32" y="57" width="89" height="3" fill="#769c16"/>
  <rect x="0" y="60" width="8" height="1" fill="#759b13"/>
  <rect x="8" y="60" width="1" height="1" fill="#759b15"/>
  <rect x="9" y="60" width="3" height="1" fill="#759a17"/>
  <rect x="12" y="60" width="4" height="2" fill="#759b15"/>
  <rect x="16" y="60" width="12" height="2" fill="#759b13"/>
  <rect x="28" y="60" width="93" height="2" fill="#759b15"/>
  <rect x="0" y="61" width="7" height="1" fill="#759b13"/>
  <rect x="7" y="61" width="1" height="1" fill="#759b15"/>
  <rect x="8" y="61" width="4" height="1" fill="#759a17"/>
  <rect x="0" y="62" width="7" height="1" fill="#749a12"/>
  <rect x="7" y="62" width="1" height="1" fill="#749914"/>
  <rect x="8" y="62" width="4" height="1" fill="#749916"/>
  <rect x="12" y="62" width="4" height="2" fill="#749914"/>
  <rect x="16" y="62" width="12" height="2" fill="#749a12"/>
  <rect x="28" y="62" width="93" height="2" fill="#749914"/>
  <rect x="0" y="63" width="8" height="3" fill="#749a12"/>
  <rect x="8" y="63" width="1" height="1" fill="#749914"/>
  <rect x="9" y="63" width="3" height="1" fill="#749916"/>
  <rect x="8" y="64" width="113" height="2" fill="#749914"/>
  <rect x="0" y="66" width="8" height="2" fill="#739911"/>
  <rect x="8" y="66" width="113" height="2" fill="#739813"/>
  <rect x="0" y="68" width="12" height="4" fill="#739813"/>
  <rect x="12" y="68" width="4" height="4" fill="#739815"/>
  <rect x="16" y="68" width="12" height="4" fill="#739813"/>
  <rect x="28" y="68" width="4" height="4" fill="#739815"/>
  <rect x="32" y="68" width="28" height="4" fill="#739813"/>
  <rect x="60" y="68" width="4" height="4" fill="#739815"/>
  <rect x="64" y="68" width="28" height="4" fill="#739813"/>
  <rect x="92" y="68" width="4" height="4" fill="#739815"/>
  <rect x="96" y="68" width="25" height="4" fill="#739813"/>
  <rect x="0" y="72" width="4" height="8" fill="#719712"/>
  <rect x="4" y="72" width="12" height="4" fill="#719714"/>
  <rect x="16" y="72" width="4" height="4" fill="#719712"/>
  <rect x="20" y="72" width="12" height="4" fill="#719714"/>
  <rect x="32" y="72" width="20" height="4" fill="#719712"/>
  <rect x="52" y="72" width="12" height="4" fill="#719714"/>
  <rect x="64" y="72" width="20" height="4" fill="#719712"/>
  <rect x="84" y="72" width="12" height="4" fill="#719714"/>
  <rect x="96" y="72" width="20" height="4" fill="#719712"/>
  <rect x="116" y="72" width="5" height="8" fill="#719714"/>
  <rect x="4" y="76" width="32" height="4" fill="#719714"/>
  <rect x="36" y="76" width="16" height="4" fill="#719712"/>
  <rect x="52" y="76" width="16" height="4" fill="#719714"/>
  <rect x="68" y="76" width="16" height="4" fill="#719712"/>
  <rect x="84" y="76" width="16" height="4" fill="#719714"/>
  <rect x="100" y="76" width="16" height="4" fill="#719712"/>
  <rect x="0" y="80" width="121" height="41" fill="#719714"/>
</svg>