<svg xmlns="http://www.w3.org/2000/svg" width="121" height="121" viewBox="0 0 121 121" shape-rendering="crispEdges">
  <rect x="0" y="0" width="6" height="6" fill="#f4c79b"/>
  <rect x="6" y="0" width="2" height="6" fill="#f2c89b"/>
  <rect x="8" y="0" width="2" height="4" fill="#f1c89b"/>
  <rect x="10" y="0" width="2" height="4" fill="#efc99b"/>
  <rect x="12" y="0" width="8" height="4" fill="#f1c89b"/>
  <rect x="20" y="0" width="28" height="4" fill="#f2c89b"/>
  <rect x="48" y="0" width="32" height="4" fill="#f2c899"/>
  <rect x="80" y="0" width="41" height="4" fill="#f2c89b"/>
  <rect x="8" y="4" width="8" height="4" fill="#f1c89b"/>
  <rect x="16" y="4" width="32" height="2" fill="#f2c89b"/>
  <rect x="48" y="4" width="28" height="2" fill="#f2c899"/>
  <rect x="76" y="4" width="45" height="2" fill="#f2c89b"/>
  <rect x="0" y="6" width="8" height="2" fill="#f2c89b"/>
  <rect x="16" y="6" width="26" height="2" fill="#f2c89b"/>
  <rect x="42" y="6" width="34" height="2" fill="#f2c899"/>
  <rect x="76" y="6" width="30" height="2" fill="#f2c89b"/>
  <rect x="106" y="6" width="6" height="2" fill="#f2c899"/>
  <rect x="112" y="6" width="9" height="2" fill="#f2c89b"/>
  <rect x="0" y="8" width="4" height="2" fill="#f0c79a"/>
  <rect x="4" y="8" width="2" height="2" fill="#f1c69a"/>
  <rect x="6" y="8" width="2" height="2" fill="#f0c79a"/>
  <rect x="8" y="8" width="2" height="4" fill="#f1c69a"/>
  <rect x="10" y="8" width="2" height="3" fill="#f0c79a"/>
  <rect x="12" y="8" width="16" height="4" fill="#f1c798"/>
  <rect x="28" y="8" width="10" height="8" fill="#f1c69a"/>
  <rect x="38" y="8" width="30" height="2" fill="#f1c798"/>
  <rect x="68" y="8" width="34" height="4" fill="#f1c69a"/>
  <rect x="102" y="8" width="10" height="2" fill="#f1c798"/>
  <rect x="112" y="8" width="6" height="2" fill="#f1c69a"/>
  <rect x="118" y="8" width="3" height="8" fill="#f1c798"/>
  <rect x="0" y="10" width="3" height="1" fill="#eec89a"/>
  <rect x="3" y="10" width="5" height="1" fill="#f0c79a"/>
  <rect x="38" y="10" width="4" height="6" fill="#f1c798"/>
  <rect x="42" y="10" width="6" height="6" fill="#f1c796"/>
  <rect x="48" y="10" width="20" height="6" fill="#f1c798"/>
  <rect x="102" y="10" width="4" height="6" fill="#f1c798"/>
  <rect x="106" y="10" width="2" height="6" fill="#f1c796"/>
  <rect x="108" y="10" width="8" height="6" fill="#f1c798"/>
  <rect x="116" y="10" width="2" height="6" fill="#f1c69a"/>
  <rect x="0" y="11" width="4" height="1" fill="#eec89a"/>
  <rect x="4" y="11" width="4" height="1" fill="#f0c79a"/>
  <rect x="10" y="11" width="1" height="1" fill="#f0c79a"/>
  <rect x="11" y="11" width="1" height="1" fill="#f1c69a"/>
  <rect x="0" y="12" width="8" height="4" fill="#f0c79a"/>
  <rect x="8" y="12" width="4" height="4" fill="#f1c69a"/>
  <rect x="12" y="12" width="4" height="4" fill="#f3c698"/>
  <rect x="16" y="12" width="12" height="4" fill="#f1c798"/>
  <rect x="68" y="12" width="8" height="4" fill="#f1c69a"/>
  <rect x="76" y="12" width="4" height="4" fill="#f1c69c"/>
  <rect x="80" y="12" width="22" height="4" fill="#f1c69a"/>
  <rect x="0" y="16" width="4" height="4" fill="#eec698"/>
  <rect x="4" y="16" width="12" height="4" fill="#f0c598"/>
  <rect x="16" y="16" width="48" height="6" fill="#f0c696"/>
  <rect x="64" y="16" width="17" height="1" fill="#f0c598"/>
  <rect x="81" y="16" width="40" height="1" fill="#f0c696"/>
  <rect x="64" y="17" width="16" height="7" fill="#f0c598"/>
  <rect x="80" y="17" width="41" height="7" fill="#f0c696"/>
  <rect x="0" y="20" width="16" height="2" fill="#f0c598"/>
  <rect x="0" y="22" width="10" height="2" fill="#f0c598"/>
  <rect x="10" y="22" width="54" height="2" fill="#f0c696"/>
  <rect x="0" y="24" width="6" height="8" fill="#efc497"/>
  <rect x="6" y="24" width="58" height="2" fill="#efc495"/>
  <rect x="64" y="24" width="16" height="8" fill="#efc497"/>
  <rect x="80" y="24" width="41" height="8" fill="#efc495"/>
  <rect x="6" y="26" width="4" height="6" fill="#efc495"/>
  <rect x="10" y="26" width="6" height="6" fill="#efc593"/>
  <rect x="16" y="26" width="48" height="6" fill="#efc495"/>
  <rect x="0" y="32" width="121" height="16" fill="#eec394"/>
  <rect x="0" y="48" width="121" height="73" fill="#edc293"/>
</svg>