<svg xmlns="http://www.w3.org/2000/svg" width="121" height="121" viewBox="0 0 121 121" shape-rendering="crispEdges">
  <rect x="0" y="0" width="121" height="8" fill="#d7aa35"/>
  <rect x="0" y="8" width="16" height="6" fill="#d7aa35"/>
  <rect x="16" y="8" width="105" height="6" fill="#d6a934"/>
  <rect x="0" y="14" width="121" height="2" fill="#d6a934"/>
  <rect x="0" y="16" width="16" height="2" fill="#d6a934"/>
  <rect x="16" y="16" width="105" height="2" fill="#d4a833"/>
  <rect x="0" y="18" width="121" height="6" fill="#d4a833"/>
  <rect x="0" y="24" width="121" height="4" fill="#d3a632"/>
  <rect x="0" y="28" width="12" height="4" fill="#d3a632"/>
  <rect x="12" y="28" width="4" height="4" fill="#d3a634"/>
  <rect x="16" y="28" width="105" height="4" fill="#d3a632"/>
  <rect x="0" y="32" width="4" height="4" fill="#d2a530"/>
  <rect x="4" y="32" width="8" height="4" fill="#d2a532"/>
  <rect x="12" y="32" width="16" height="4" fill="#d0a632"/>
  <rect x="28" y="32" width="16" height="4" fill="#d2a532"/>
  <rect x="44" y="32" width="16" height="4" fill="#d0a632"/>
  <rect x="60" y="32" width="16" height="4" fill="#d2a532"/>
  <rect x="76" y="32" width="16" height="4" fill="#d0a632"/>
  <rect x="92" y="32" width="16" height="4" fill="#d2a532"/>
  <rect x="108" y="32" width="13" height="4" fill="#d0a632"/>
  <rect x="0" y="36" width="12" height="2" fill="#d1a431"/>
  <rect x="12" y="36" width="4" height="2" fill="#cfa433"/>
  <rect x="16" y="36" width="12" height="2" fill="#cfa531"/>
  <rect x="28" y="36" width="16" height="2" fill="#d1a431"/>
  <rect x="44" y="36" width="16" height="2" fill="#cfa531"/>
  <rect x="60" y="36" width="16" height="2" fill="#d1a431"/>
  <rect x="76" y="36" width="16" height="2" fill="#cfa531"/>
  <rect x="92" y="36" width="16" height="2" fill="#d1a431"/>
  <rect x="108" y="36" width="13" height="4" fill="#cfa531"/>
  <rect x="0" y="38" width="4" height="4" fill="#cfa531"/>
  <rect x="4" y="38" width="8" height="2" fill="#d1a431"/>
  <rect x="12" y="38" width="24" height="2" fill="#cfa531"/>
  <rect x="36" y="38" width="8" height="2" fill="#d1a431"/>
  <rect x="44" y="38" width="24" height="2" fill="#cfa531"/>
  <rect x="68" y="38" width="8" height="2" fill="#d1a431"/>
  <rect x="76" y="38" width="24" height="2" fill="#cfa531"/>
  <rect x="100" y="38" width="8" height="2" fill="#d1a431"/>
  <rect x="4" y="40" width="2" height="3" fill="#cfa433"/>
  <rect x="6" y="40" width="4" height="3" fill="#cfa531"/>
  <rect x="10" y="40" width="2" height="3" fill="#cfa52f"/>
  <rect x="12" y="40" width="10" height="2" fill="#d1a431"/>
  <rect x="22" y="40" width="4" height="3" fill="#cfa531"/>
  <rect x="26" y="40" width="2" height="2" fill="#cea531"/>
  <rect x="28" y="40" width="16" height="2" fill="#cfa531"/>
  <rect x="44" y="40" width="10" height="3" fill="#d1a431"/>
  <rect x="54" y="40" width="4" height="3" fill="#cfa531"/>
  <rect x="58" y="40" width="2" height="2" fill="#cea531"/>
  <rect x="60" y="40" width="16" height="2" fill="#cfa531"/>
  <rect x="76" y="40" width="10" height="3" fill="#d1a431"/>
  <rect x="86" y="40" width="4" height="3" fill="#cfa531"/>
  <rect x="90" y="40" width="2" height="2" fill="#cea531"/>
  <rect x="92" y="40" width="16" height="2" fill="#cfa531"/>
  <rect x="108" y="40" width="10" height="3" fill="#d1a431"/>
  <rect x="118" y="40" width="3" height="3" fill="#cfa531"/>
  <rect x="0" y="42" width="4" height="1" fill="#cea531"/>
  <rect x="12" y="42" width="4" height="1" fill="#d1a42f"/>
  <rect x="16" y="42" width="6" height="1" fill="#d1a431"/>
  <rect x="26" y="42" width="10" height="1" fill="#cea531"/>
  <rect x="36" y="42" width="8" height="1" fill="#cfa531"/>
  <rect x="58" y="42" width="10" height="1" fill="#cea531"/>
  <rect x="68" y="42" width="8" height="1" fill="#cfa531"/>
  <rect x="90" y="42" width="10" height="1" fill="#cea531"/>
  <rect x="100" y="42" width="8" height="1" fill="#cfa531"/>
  <rect x="0" y="43" width="4" height="1" fill="#cda430"/>
  <rect x="4" y="43" width="2" height="2" fill="#cea332"/>
  <rect x="6" y="43" width="4" height="2" fill="#cea330"/>
  <rect x="10" y="43" width="2" height="2" fill="#cea42e"/>
  <rect x="12" y="43" width="4" height="2" fill="#d0a32e"/>
  <rect x="16" y="43" width="6" height="2" fill="#d0a330"/>
  <rect x="22" y="43" width="4" height="2" fill="#cea330"/>
  <rect x="26" y="43" width="10" height="2" fill="#cda430"/>
  <rect x="36" y="43" width="8" height="2" fill="#cea330"/>
  <rect x="44" y="43" width="10" height="2" fill="#d0a330"/>
  <rect x="54" y="43" width="4" height="2" fill="#cea330"/>
  <rect x="58" y="43" width="10" height="2" fill="#cda430"/>
  <rect x="68" y="43" width="8" height="2" fill="#cea330"/>
  <rect x="76" y="43" width="10" height="2" fill="#d0a330"/>
  <rect x="86" y="43" width="4" height="2" fill="#cea330"/>
  <rect x="90" y="43" width="10" height="2" fill="#cda430"/>
  <rect x="100" y="43" width="8" height="2" fill="#cea330"/>
  <rect x="108" y="43" width="10" height="2" fill="#d0a330"/>
  <rect x="118" y="43" width="3" height="2" fill="#cea330"/>
  <rect x="0" y="44" width="4" height="1" fill="#cda432"/>
  <rect x="0" y="45" width="4" height="3" fill="#cba331"/>
  <rect x="4" y="45" width="2" height="3" fill="#cda231"/>
  <rect x="6" y="45" width="4" height="3" fill="#cda22f"/>
  <rect x="10" y="45" width="2" height="3" fill="#cda32d"/>
  <rect x="12" y="45" width="4" height="2" fill="#cfa22d"/>
  <rect x="16" y="45" width="6" height="2" fill="#cfa12f"/>
  <rect x="22" y="45" width="4" height="3" fill="#cda22f"/>
  <rect x="26" y="45" width="10" height="3" fill="#cba32f"/>
  <rect x="36" y="45" width="8" height="3" fill="#cda22f"/>
  <rect x="44" y="45" width="10" height="3" fill="#cfa12f"/>
  <rect x="54" y="45" width="4" height="3" fill="#cda22f"/>
  <rect x="58" y="45" width="10" height="3" fill="#cba32f"/>
  <rect x="68" y="45" width="8" height="3" fill="#cda22f"/>
  <rect x="76" y="45" width="10" height="3" fill="#cfa12f"/>
  <rect x="86" y="45" width="4" height="3" fill="#cda22f"/>
  <rect x="90" y="45" width="10" height="3" fill="#cba32f"/>
  <rect x="100" y="45" width="8" height="3" fill="#cda22f"/>
  <rect x="108" y="45" width="10" height="3" fill="#cfa12f"/>
  <rect x="118" y="45" width="3" height="3" fill="#cda22f"/>
  <rect x="12" y="47" width="3" height="1" fill="#cfa22d"/>
  <rect x="15" y="47" width="7" height="1" fill="#cfa12f"/>
  <rect x="0" y="48" width="16" height="4" fill="#cca12e"/>
  <rect x="16" y="48" width="16" height="8" fill="#cda231"/>
  <rect x="32" y="48" width="16" height="8" fill="#cca130"/>
  <rect x="48" y="48" width="16" height="8" fill="#cda231"/>
  <rect x="64" y="48" width="16" height="8" fill="#cca130"/>
  <rect x="80" y="48" width="16" height="8" fill="#cda231"/>
  <rect x="96" y="48" width="16" height="8" fill="#cca130"/>
  <rect x="112" y="48" width="9" height="8" fill="#cda231"/>
  <rect x="0" y="52" width="12" height="4" fill="#cca12e"/>
  <rect x="12" y="52" width="4" height="4" fill="#cca130"/>
  <rect x="0" y="56" width="4" height="8" fill="#cba02d"/>
  <rect x="4" y="56" width="12" height="4" fill="#cba02f"/>
  <rect x="16" y="56" width="16" height="6" fill="#cca130"/>
  <rect x="32" y="56" width="16" height="6" fill="#cba02f"/>
  <rect x="48" y="56" width="16" height="6" fill="#cca130"/>
  <rect x="64" y="56" width="16" height="6" fill="#cba02f"/>
  <rect x="80" y="56" width="16" height="6" fill="#cca130"/>
  <rect x="96" y="56" width="16" height="6" fill="#cba02f"/>
  <rect x="112" y="56" width="9" height="6" fill="#cca130"/>
  <rect x="4" y="60" width="8" height="4" fill="#cba02f"/>
  <rect x="12" y="60" width="4" height="4" fill="#cb9f31"/>
  <rect x="16" y="62" width="105" height="2" fill="#cba02f"/>
  <rect x="0" y="64" width="16" height="2" fill="#c99e2d"/>
  <rect x="16" y="64" width="16" height="2" fill="#cba02f"/>
  <rect x="32" y="64" width="16" height="2" fill="#c99e2d"/>
  <rect x="48" y="64" width="16" height="2" fill="#cba02f"/>
  <rect x="64" y="64" width="16" height="2" fill="#c99e2d"/>
  <rect x="80" y="64" width="16" height="2" fill="#cba02f"/>
  <rect x="96" y="64" width="16" height="2" fill="#c99e2d"/>
  <rect x="112" y="64" width="9" height="2" fill="#cba02f"/>
  <rect x="0" y="66" width="121" height="6" fill="#c99e2d"/>
  <rect x="0" y="72" width="121" height="4" fill="#c89d2c"/>
  <rect x="0" y="76" width="12" height="4" fill="#c89d2c"/>
  <rect x="12" y="76" width="4" height="4" fill="#c89d2e"/>
  <rect x="16" y="76" width="105" height="4" fill="#c89d2c"/>
  <rect x="0" y="80" width="4" height="4" fill="#c79c2b"/>
  <rect x="4" y="80" width="117" height="4" fill="#c79c2d"/>
  <rect x="0" y="84" width="12" height="2" fill="#c79c2d"/>
  <rect x="12" y="84" width="4" height="2" fill="#c79b2f"/>
  <rect x="16" y="84" width="105" height="2" fill="#c79c2d"/>
  <rect x="0" y="86" width="121" height="2" fill="#c79c2d"/>
  <rect x="0" y="88" width="4" height="4" fill="#c79c2d"/>
  <rect x="4" y="88" width="2" height="4" fill="#c79b2f"/>
  <rect x="6" y="88" width="4" height="8" fill="#c79c2d"/>
  <rect x="10" y="88" width="2" height="2" fill="#c79c2b"/>
  <rect x="12" y="88" width="109" height="2" fill="#c79c2d"/>
  <rect x="10" y="90" width="6" height="6" fill="#c79c2b"/>
  <rect x="16" y="90" width="105" height="6" fill="#c79c2d"/>
  <rect x="0" y="92" width="6" height="4" fill="#c79b2f"/>
  <rect x="0" y="96" width="121" height="25" fill="#c79c2d"/>
</svg>