<svg xmlns="http://www.w3.org/2000/svg" width="30" height="28" viewBox="0 0 30 28" shape-rendering="crispEdges">
  <rect x="13" y="0" width="1" height="1" fill="#36a00051"/>
  <rect x="14" y="0" width="1" height="1" fill="#3bad07eb"/>
  <rect x="15" y="0" width="1" height="1" fill="#47b110ed"/>
  <rect x="16" y="0" width="1" height="1" fill="#4b9e0a79"/>
  <rect x="9" y="1" width="1" height="1" fill="#37a60112"/>
  <rect x="10" y="1" width="1" height="1" fill="#3aa5012a"/>
  <rect x="11" y="1" width="1" height="1" fill="#3aa10013"/>
  <rect x="13" y="1" width="1" height="1" fill="#37a100c3"/>
  <rect x="14" y="1" width="1" height="1" fill="#3baa05"/>
  <rect x="15" y="1" width="1" height="1" fill="#44ad0c"/>
  <rect x="16" y="1" width="1" height="1" fill="#4ca50efb"/>
  <rect x="17" y="1" width="1" height="1" fill="#599c260b"/>
  <rect x="7" y="2" width="1" height="1" fill="#3e960f0f"/>
  <rect x="8" y="2" width="1" height="1" fill="#41a70eae"/>
  <rect x="9" y="2" width="1" height="1" fill="#3daa08fd"/>
  <rect x="10" y="2" width="1" height="1" fill="#3fa908"/>
  <rect x="11" y="2" width="1" height="1" fill="#3da605"/>
  <rect x="12" y="2" width="1" height="1" fill="#3aa403cb"/>
  <rect x="13" y="2" width="1" height="1" fill="#39a302e0"/>
  <rect x="14" y="2" width="1" height="1" fill="#3aa604"/>
  <rect x="15" y="2" width="1" height="1" fill="#3da605"/>
  <rect x="16" y="2" width="1" height="1" fill="#3d9f05fd"/>
  <rect x="17" y="2" width="1" height="1" fill="#3795061c"/>
  <rect x="18" y="2" width="1" height="1" fill="#49a4284c"/>
  <rect x="19" y="2" width="1" height="1" fill="#429b2b6e"/>
  <rect x="20" y="2" width="1" height="1" fill="#45992d62"/>
  <rect x="21" y="2" width="1" height="1" fill="#42922512"/>
  <rect x="7" y="3" width="1" height="1" fill="#6e8c1565"/>
  <rect x="8" y="3" width="1" height="1" fill="#57920c"/>
  <rect x="9" y="3" width="1" height="1" fill="#4c980a"/>
  <rect x="10" y="3" width="1" height="1" fill="#449c0a"/>
  <rect x="11" y="3" width="1" height="1" fill="#429e0b"/>
  <rect x="12" y="3" width="1" height="1" fill="#43a00c"/>
  <rect x="13" y="3" width="1" height="1" fill="#479e0c"/>
  <rect x="14" y="3" width="1" height="1" fill="#4d990b"/>
  <rect x="15" y="3" width="1" height="1" fill="#4c980a"/>
  <rect x="16" y="3" width="1" height="1" fill="#489d0cfa"/>
  <rect x="17" y="3" width="1" height="1" fill="#46a513fb"/>
  <rect x="18" y="3" width="1" height="1" fill="#37a20a"/>
  <rect x="19" y="3" width="1" height="1" fill="#3ea314"/>
  <rect x="20" y="3" width="1" height="1" fill="#4ea224"/>
  <rect x="21" y="3" width="1" height="1" fill="#579221e2"/>
  <rect x="22" y="3" width="1" height="1" fill="#617e1013"/>
  <rect x="7" y="4" width="1" height="1" fill="#9a270553"/>
  <rect x="8" y="4" width="1" height="1" fill="#8d6819e5"/>
  <rect x="9" y="4" width="1" height="1" fill="#6f8016"/>
  <rect x="10" y="4" width="1" height="1" fill="#64921e"/>
  <rect x="11" y="4" width="1" height="1" fill="#609c24"/>
  <rect x="12" y="4" width="1" height="1" fill="#5f9b23"/>
  <rect x="13" y="4" width="1" height="1" fill="#64921e"/>
  <rect x="14" y="4" width="1" height="1" fill="#6f8016fd"/>
  <rect x="15" y="4" width="1" height="1" fill="#6c7e12f4"/>
  <rect x="16" y="4" width="1" height="1" fill="#5b8c15"/>
  <rect x="17" y="4" width="1" height="1" fill="#509814"/>
  <rect x="18" y="4" width="1" height="1" fill="#4ba00f"/>
  <rect x="19" y="4" width="1" height="1" fill="#539814"/>
  <rect x="20" y="4" width="1" height="1" fill="#728a2d"/>
  <rect x="21" y="4" width="1" height="1" fill="#7a5b1bcd"/>
  <rect x="22" y="4" width="1" height="1" fill="#8b290018"/>
  <rect x="4" y="5" width="1" height="1" fill="#ea121d24"/>
  <rect x="5" y="5" width="1" height="1" fill="#e913239f"/>
  <rect x="6" y="5" width="1" height="1" fill="#f10a28f3"/>
  <rect x="7" y="5" width="1" height="1" fill="#d6101e"/>
  <rect x="8" y="5" width="1" height="1" fill="#a12b0a"/>
  <rect x="9" y="5" width="1" height="1" fill="#86470a"/>
  <rect x="10" y="5" width="1" height="1" fill="#7e5e17"/>
  <rect x="11" y="5" width="1" height="1" fill="#7e6c20"/>
  <rect x="12" y="5" width="1" height="1" fill="#736216"/>
  <rect x="13" y="5" width="1" height="1" fill="#73540c"/>
  <rect x="14" y="5" width="1" height="1" fill="#7a3d00"/>
  <rect x="15" y="5" width="1" height="1" fill="#723500"/>
  <rect x="16" y="5" width="1" height="1" fill="#765911"/>
  <rect x="17" y="5" width="1" height="1" fill="#726c17"/>
  <rect x="18" y="5" width="1" height="1" fill="#757a17"/>
  <rect x="19" y="5" width="1" height="1" fill="#81731d"/>
  <rect x="20" y="5" width="1" height="1" fill="#8b5322"/>
  <rect x="21" y="5" width="1" height="1" fill="#93250d"/>
  <rect x="22" y="5" width="1" height="1" fill="#d2241df9"/>
  <rect x="23" y="5" width="1" height="1" fill="#e20e14a0"/>
  <rect x="24" y="5" width="1" height="1" fill="#f0111f21"/>
  <rect x="3" y="6" width="1" height="1" fill="#f311226c"/>
  <rect x="4" y="6" width="1" height="1" fill="#e9111cf8"/>
  <rect x="5" y="6" width="1" height="1" fill="#e20c1c"/>
  <rect x="6" y="6" width="1" height="1" fill="#ec0a29"/>
  <rect x="7" y="6" width="1" height="1" fill="#e9112d"/>
  <rect x="8" y="6" width="1" height="1" fill="#d41b20"/>
  <rect x="9" y="6" width="1" height="1" fill="#c11e18"/>
  <rect x="10" y="6" width="1" height="1" fill="#b41f14"/>
  <rect x="11" y="6" width="2" height="1" fill="#ab2012"/>
  <rect x="13" y="6" width="1" height="1" fill="#b22014"/>
  <rect x="14" y="6" width="1" height="1" fill="#be2018"/>
  <rect x="15" y="6" width="1" height="1" fill="#c1231b"/>
  <rect x="16" y="6" width="1" height="1" fill="#b9261f"/>
  <rect x="17" y="6" width="1" height="1" fill="#b0241a"/>
  <rect x="18" y="6" width="1" height="1" fill="#a61d10"/>
  <rect x="19" y="6" width="1" height="1" fill="#ad1d15"/>
  <rect x="20" y="6" width="1" height="1" fill="#ba1a1e"/>
  <rect x="21" y="6" width="1" height="1" fill="#d11f27"/>
  <rect x="22" y="6" width="1" height="1" fill="#e11a20"/>
  <rect x="23" y="6" width="1" height="1" fill="#e8131b"/>
  <rect x="24" y="6" width="1" height="1" fill="#f11220f3"/>
  <rect x="25" y="6" width="1" height="1" fill="#f40f244b"/>
  <rect x="2" y="7" width="1" height="1" fill="#df192a67"/>
  <rect x="3" y="7" width="1" height="1" fill="#ee1324"/>
  <rect x="4" y="7" width="1" height="1" fill="#e20d1a"/>
  <rect x="5" y="7" width="1" height="1" fill="#db0515"/>
  <rect x="6" y="7" width="1" height="1" fill="#e70a25"/>
  <rect x="7" y="7" width="1" height="1" fill="#f61936"/>
  <rect x="8" y="7" width="1" height="1" fill="#e90f26"/>
  <rect x="9" y="7" width="1" height="1" fill="#e61124"/>
  <rect x="10" y="7" width="1" height="1" fill="#e31425"/>
  <rect x="11" y="7" width="1" height="1" fill="#e31627"/>
  <rect x="12" y="7" width="2" height="1" fill="#e51829"/>
  <rect x="14" y="7" width="1" height="1" fill="#e61628"/>
  <rect x="15" y="7" width="1" height="1" fill="#e71528"/>
  <rect x="16" y="7" width="1" height="1" fill="#e6152c"/>
  <rect x="17" y="7" width="1" height="1" fill="#e2112a"/>
  <rect x="18" y="7" width="1" height="1" fill="#e30f29"/>
  <rect x="19" y="7" width="1" height="1" fill="#ea142f"/>
  <rect x="20" y="7" width="1" height="1" fill="#ed1530"/>
  <rect x="21" y="7" width="1" height="1" fill="#e91229"/>
  <rect x="22" y="7" width="1" height="1" fill="#e2111c"/>
  <rect x="23" y="7" width="1" height="1" fill="#ec171f"/>
  <rect x="24" y="7" width="1" height="1" fill="#f21321"/>
  <rect x="25" y="7" width="1" height="1" fill="#f10f23f9"/>
  <rect x="26" y="7" width="1" height="1" fill="#f0102536"/>
  <rect x="1" y="8" width="1" height="1" fill="#d51d2921"/>
  <rect x="2" y="8" width="1" height="1" fill="#e01825f8"/>
  <rect x="3" y="8" width="1" height="1" fill="#e61523"/>
  <rect x="4" y="8" width="1" height="1" fill="#dd0c19"/>
  <rect x="5" y="8" width="1" height="1" fill="#d2010f"/>
  <rect x="6" y="8" width="1" height="1" fill="#d40011"/>
  <rect x="7" y="8" width="1" height="1" fill="#e00b1e"/>
  <rect x="8" y="8" width="4" height="1" fill="#e71223"/>
  <rect x="12" y="8" width="2" height="1" fill="#e81425"/>
  <rect x="14" y="8" width="1" height="1" fill="#e91325"/>
  <rect x="15" y="8" width="1" height="1" fill="#e81425"/>
  <rect x="16" y="8" width="1" height="1" fill="#e61425"/>
  <rect x="17" y="8" width="1" height="1" fill="#e81425"/>
  <rect x="18" y="8" width="1" height="1" fill="#eb1225"/>
  <rect x="19" y="8" width="1" height="1" fill="#ef1226"/>
  <rect x="20" y="8" width="1" height="1" fill="#f11327"/>
  <rect x="21" y="8" width="1" height="1" fill="#e91020"/>
  <rect x="22" y="8" width="1" height="1" fill="#da0c16"/>
  <rect x="23" y="8" width="1" height="1" fill="#d5040d"/>
  <rect x="24" y="8" width="1" height="1" fill="#ee1121"/>
  <rect x="25" y="8" width="1" height="1" fill="#f10f23"/>
  <rect x="26" y="8" width="1" height="1" fill="#f01025ca"/>
  <rect x="1" y="9" width="1" height="1" fill="#e215218e"/>
  <rect x="2" y="9" width="2" height="1" fill="#e21521"/>
  <rect x="4" y="9" width="1" height="1" fill="#de0d1a"/>
  <rect x="5" y="9" width="1" height="1" fill="#d40210"/>
  <rect x="6" y="9" width="1" height="1" fill="#d50311"/>
  <rect x="7" y="9" width="1" height="1" fill="#e2101e"/>
  <rect x="8" y="9" width="2" height="1" fill="#eb1726"/>
  <rect x="10" y="9" width="1" height="1" fill="#ed1726"/>
  <rect x="11" y="9" width="1" height="1" fill="#ec1625"/>
  <rect x="12" y="9" width="1" height="1" fill="#ec1424"/>
  <rect x="13" y="9" width="3" height="1" fill="#eb1223"/>
  <rect x="16" y="9" width="1" height="1" fill="#e91421"/>
  <rect x="17" y="9" width="1" height="1" fill="#eb1321"/>
  <rect x="18" y="9" width="1" height="1" fill="#f01021"/>
  <rect x="19" y="9" width="1" height="1" fill="#f31122"/>
  <rect x="20" y="9" width="1" height="1" fill="#f21323"/>
  <rect x="21" y="9" width="1" height="1" fill="#e9101e"/>
  <rect x="22" y="9" width="1" height="1" fill="#d70d16"/>
  <rect x="23" y="9" width="1" height="1" fill="#d2050f"/>
  <rect x="24" y="9" width="1" height="1" fill="#eb111f"/>
  <rect x="25" y="9" width="1" height="2" fill="#ef0f21"/>
  <rect x="26" y="9" width="1" height="2" fill="#ed0f23"/>
  <rect x="27" y="9" width="1" height="1" fill="#c820304d"/>
  <rect x="1" y="10" width="1" height="1" fill="#e31421d9"/>
  <rect x="2" y="10" width="1" height="1" fill="#e31421"/>
  <rect x="3" y="10" width="1" height="1" fill="#e51421"/>
  <rect x="4" y="10" width="1" height="1" fill="#e3111f"/>
  <rect x="5" y="10" width="1" height="1" fill="#da0615"/>
  <rect x="6" y="10" width="1" height="1" fill="#db0716"/>
  <rect x="7" y="10" width="2" height="1" fill="#e81423"/>
  <rect x="9" y="10" width="3" height="1" fill="#e91323"/>
  <rect x="12" y="10" width="4" height="1" fill="#eb1223"/>
  <rect x="16" y="10" width="1" height="2" fill="#ed1221"/>
  <rect x="17" y="10" width="1" height="1" fill="#f01021"/>
  <rect x="18" y="10" width="1" height="1" fill="#f30f21"/>
  <rect x="19" y="10" width="1" height="1" fill="#f41022"/>
  <rect x="20" y="10" width="1" height="1" fill="#f11323"/>
  <rect x="21" y="10" width="1" height="2" fill="#e7131f"/>
  <rect x="22" y="10" width="1" height="1" fill="#d61118"/>
  <rect x="23" y="10" width="1" height="2" fill="#cd080f"/>
  <rect x="24" y="10" width="1" height="1" fill="#ea121f"/>
  <rect x="27" y="10" width="1" height="1" fill="#c720309e"/>
  <rect x="1" y="11" width="1" height="1" fill="#e71321f7"/>
  <rect x="2" y="11" width="2" height="1" fill="#e71321"/>
  <rect x="4" y="11" width="1" height="1" fill="#e81221"/>
  <rect x="5" y="11" width="1" height="1" fill="#e10b1a"/>
  <rect x="6" y="11" width="1" height="1" fill="#e20c1c"/>
  <rect x="7" y="11" width="1" height="1" fill="#ec1625"/>
  <rect x="8" y="11" width="4" height="1" fill="#de0817"/>
  <rect x="12" y="11" width="4" height="1" fill="#ea1121"/>
  <rect x="17" y="11" width="1" height="1" fill="#f11122"/>
  <rect x="18" y="11" width="2" height="1" fill="#f30f21"/>
  <rect x="20" y="11" width="1" height="1" fill="#ef1222"/>
  <rect x="22" y="11" width="1" height="1" fill="#d7121a"/>
  <rect x="24" y="11" width="1" height="1" fill="#e8121f"/>
  <rect x="25" y="11" width="1" height="1" fill="#ed1021"/>
  <rect x="26" y="11" width="1" height="1" fill="#eb1023"/>
  <rect x="27" y="11" width="1" height="1" fill="#c72030d5"/>
  <rect x="1" y="12" width="1" height="1" fill="#eb1021"/>
  <rect x="2" y="12" width="3" height="1" fill="#ed1223"/>
  <rect x="5" y="12" width="1" height="1" fill="#ea0f20"/>
  <rect x="6" y="12" width="1" height="1" fill="#ea1121"/>
  <rect x="7" y="12" width="1" height="1" fill="#ec1424"/>
  <rect x="8" y="12" width="1" height="1" fill="#e20919"/>
  <rect x="9" y="12" width="2" height="1" fill="#da0111"/>
  <rect x="11" y="12" width="1" height="1" fill="#e30a1a"/>
  <rect x="12" y="12" width="1" height="1" fill="#e91020"/>
  <rect x="13" y="12" width="2" height="1" fill="#ea1121"/>
  <rect x="15" y="12" width="1" height="1" fill="#eb1223"/>
  <rect x="16" y="12" width="1" height="1" fill="#eb1424"/>
  <rect x="17" y="12" width="1" height="1" fill="#ed1223"/>
  <rect x="18" y="12" width="1" height="1" fill="#f10f23"/>
  <rect x="19" y="12" width="1" height="1" fill="#f30e23"/>
  <rect x="20" y="12" width="1" height="1" fill="#f11124"/>
  <rect x="21" y="12" width="1" height="1" fill="#ea1121"/>
  <rect x="22" y="12" width="1" height="1" fill="#de141f"/>
  <rect x="23" y="12" width="1" height="1" fill="#e11723"/>
  <rect x="24" y="12" width="1" height="1" fill="#eb1321"/>
  <rect x="25" y="12" width="1" height="2" fill="#ee1123"/>
  <rect x="26" y="12" width="1" height="2" fill="#ed1125"/>
  <rect x="27" y="12" width="1" height="1" fill="#c82231f4"/>
  <rect x="1" y="13" width="1" height="1" fill="#ef0f21f0"/>
  <rect x="2" y="13" width="3" height="1" fill="#f01023"/>
  <rect x="5" y="13" width="1" height="1" fill="#ee1123"/>
  <rect x="6" y="13" width="1" height="1" fill="#ef1224"/>
  <rect x="7" y="13" width="1" height="1" fill="#ed1223"/>
  <rect x="8" y="13" width="1" height="1" fill="#e80d1e"/>
  <rect x="9" y="13" width="2" height="1" fill="#df0415"/>
  <rect x="11" y="13" width="1" height="1" fill="#e50d1d"/>
  <rect x="12" y="13" width="3" height="1" fill="#e91020"/>
  <rect x="15" y="13" width="1" height="1" fill="#e6101f"/>
  <rect x="16" y="13" width="2" height="1" fill="#e1121f"/>
  <rect x="18" y="13" width="1" height="1" fill="#eb1021"/>
  <rect x="19" y="13" width="2" height="1" fill="#f10f23"/>
  <rect x="21" y="13" width="1" height="1" fill="#ef0f21"/>
  <rect x="22" y="13" width="1" height="1" fill="#e71120"/>
  <rect x="23" y="13" width="1" height="1" fill="#e81423"/>
  <rect x="24" y="13" width="1" height="1" fill="#ed1221"/>
  <rect x="27" y="13" width="1" height="1" fill="#c82231fd"/>
  <rect x="1" y="14" width="1" height="1" fill="#f00e21e1"/>
  <rect x="2" y="14" width="3" height="1" fill="#f10f23"/>
  <rect x="5" y="14" width="1" height="1" fill="#f01023"/>
  <rect x="6" y="14" width="1" height="1" fill="#f11124"/>
  <rect x="7" y="14" width="1" height="1" fill="#ef1224"/>
  <rect x="8" y="14" width="1" height="1" fill="#ed1021"/>
  <rect x="9" y="14" width="1" height="1" fill="#e50719"/>
  <rect x="10" y="14" width="1" height="1" fill="#e30819"/>
  <rect x="11" y="14" width="1" height="1" fill="#ea0f20"/>
  <rect x="12" y="14" width="1" height="1" fill="#ea1121"/>
  <rect x="13" y="14" width="2" height="1" fill="#e91020"/>
  <rect x="15" y="14" width="1" height="1" fill="#e00f1d"/>
  <rect x="16" y="14" width="1" height="1" fill="#cf0f17"/>
  <rect x="17" y="14" width="1" height="1" fill="#cf1118"/>
  <rect x="18" y="14" width="1" height="1" fill="#e1121f"/>
  <rect x="19" y="14" width="1" height="1" fill="#ee1123"/>
  <rect x="20" y="14" width="1" height="1" fill="#f60f24"/>
  <rect x="21" y="14" width="1" height="2" fill="#f60d23"/>
  <rect x="22" y="14" width="1" height="1" fill="#f30e23"/>
  <rect x="23" y="14" width="1" height="2" fill="#f10f23"/>
  <rect x="24" y="14" width="1" height="1" fill="#f01021"/>
  <rect x="25" y="14" width="1" height="1" fill="#ed1021"/>
  <rect x="26" y="14" width="1" height="1" fill="#eb1023"/>
  <rect x="27" y="14" width="1" height="1" fill="#c72030ec"/>
  <rect x="1" y="15" width="1" height="1" fill="#f00e23bd"/>
  <rect x="2" y="15" width="2" height="1" fill="#f10f23"/>
  <rect x="4" y="15" width="1" height="1" fill="#ee1123"/>
  <rect x="5" y="15" width="1" height="1" fill="#ed1125"/>
  <rect x="6" y="15" width="1" height="1" fill="#eb1426"/>
  <rect x="7" y="15" width="1" height="1" fill="#ec1527"/>
  <rect x="8" y="15" width="1" height="1" fill="#eb1223"/>
  <rect x="9" y="15" width="2" height="1" fill="#e60b1c"/>
  <rect x="11" y="15" width="1" height="1" fill="#ed1021"/>
  <rect x="12" y="15" width="1" height="1" fill="#ee1123"/>
  <rect x="13" y="15" width="1" height="1" fill="#ea0f20"/>
  <rect x="14" y="15" width="1" height="1" fill="#e91020"/>
  <rect x="15" y="15" width="1" height="1" fill="#e21320"/>
  <rect x="16" y="15" width="1" height="1" fill="#c2060c"/>
  <rect x="17" y="15" width="1" height="1" fill="#c90d13"/>
  <rect x="18" y="15" width="1" height="1" fill="#e0131f"/>
  <rect x="19" y="15" width="1" height="1" fill="#ee1324"/>
  <rect x="20" y="15" width="1" height="1" fill="#f30c21"/>
  <rect x="22" y="15" width="1" height="1" fill="#f50d23"/>
  <rect x="24" y="15" width="1" height="1" fill="#ed1221"/>
  <rect x="25" y="15" width="1" height="1" fill="#ea1121"/>
  <rect x="26" y="15" width="1" height="1" fill="#ed0f23"/>
  <rect x="27" y="15" width="1" height="1" fill="#ca1f30c8"/>
  <rect x="1" y="16" width="1" height="1" fill="#ef0e258f"/>
  <rect x="2" y="16" width="1" height="1" fill="#ef0e23"/>
  <rect x="3" y="16" width="1" height="1" fill="#ed1021"/>
  <rect x="4" y="16" width="1" height="1" fill="#e91526"/>
  <rect x="5" y="16" width="1" height="1" fill="#e31627"/>
  <rect x="6" y="16" width="1" height="1" fill="#ca0518"/>
  <rect x="7" y="16" width="1" height="1" fill="#d40d20"/>
  <rect x="8" y="16" width="1" height="1" fill="#e31423"/>
  <rect x="9" y="16" width="1" height="2" fill="#e81221"/>
  <rect x="10" y="16" width="1" height="1" fill="#eb1021"/>
  <rect x="11" y="16" width="1" height="1" fill="#ef0f21"/>
  <rect x="12" y="16" width="1" height="1" fill="#f7152a"/>
  <rect x="13" y="16" width="1" height="1" fill="#f21227"/>
  <rect x="14" y="16" width="1" height="1" fill="#e80e21"/>
  <rect x="15" y="16" width="1" height="1" fill="#de0e1e"/>
  <rect x="16" y="16" width="1" height="1" fill="#cc0610"/>
  <rect x="17" y="16" width="1" height="1" fill="#d51019"/>
  <rect x="18" y="16" width="1" height="1" fill="#e61220"/>
  <rect x="19" y="16" width="1" height="1" fill="#ef1224"/>
  <rect x="20" y="16" width="2" height="1" fill="#f10c22"/>
  <rect x="22" y="16" width="1" height="1" fill="#ed0f23"/>
  <rect x="23" y="16" width="1" height="1" fill="#e81221"/>
  <rect x="24" y="16" width="1" height="1" fill="#e3151f"/>
  <rect x="25" y="16" width="1" height="1" fill="#e71321"/>
  <rect x="26" y="16" width="1" height="1" fill="#f00e23"/>
  <rect x="27" y="16" width="1" height="1" fill="#cf1c308f"/>
  <rect x="1" y="17" width="1" height="1" fill="#ed0e294f"/>
  <rect x="2" y="17" width="1" height="1" fill="#ed0f23"/>
  <rect x="3" y="17" width="1" height="1" fill="#eb1021"/>
  <rect x="4" y="17" width="1" height="1" fill="#e51323"/>
  <rect x="5" y="17" width="1" height="1" fill="#d50d1c"/>
  <rect x="6" y="17" width="2" height="1" fill="#c8081b"/>
  <rect x="8" y="17" width="1" height="1" fill="#e21425"/>
  <rect x="10" y="17" width="1" height="1" fill="#ef0f21"/>
  <rect x="11" y="17" width="1" height="1" fill="#f20d21"/>
  <rect x="12" y="17" width="1" height="1" fill="#f61128"/>
  <rect x="13" y="17" width="1" height="1" fill="#f31026"/>
  <rect x="14" y="17" width="1" height="1" fill="#ea0f22"/>
  <rect x="15" y="17" width="1" height="1" fill="#e30f20"/>
  <rect x="16" y="17" width="1" height="1" fill="#d70815"/>
  <rect x="17" y="17" width="1" height="1" fill="#e00f1d"/>
  <rect x="18" y="17" width="1" height="1" fill="#ed1223"/>
  <rect x="19" y="17" width="1" height="1" fill="#f11124"/>
  <rect x="20" y="17" width="1" height="1" fill="#ef0c22"/>
  <rect x="21" y="17" width="1" height="1" fill="#eb0d21"/>
  <rect x="22" y="17" width="1" height="1" fill="#e30f20"/>
  <rect x="23" y="17" width="1" height="1" fill="#de1120"/>
  <rect x="24" y="17" width="1" height="1" fill="#de141f"/>
  <rect x="25" y="17" width="1" height="1" fill="#e51421"/>
  <rect x="26" y="17" width="1" height="1" fill="#f20d23"/>
  <rect x="27" y="17" width="1" height="1" fill="#cf1c303e"/>
  <rect x="1" y="18" width="1" height="1" fill="#ed0e2b0a"/>
  <rect x="2" y="18" width="1" height="1" fill="#eb1025f1"/>
  <rect x="3" y="18" width="1" height="1" fill="#ea1123"/>
  <rect x="4" y="18" width="1" height="1" fill="#ea1121"/>
  <rect x="5" y="18" width="1" height="1" fill="#dc0a1a"/>
  <rect x="6" y="18" width="2" height="1" fill="#cd0619"/>
  <rect x="8" y="18" width="1" height="1" fill="#e71223"/>
  <rect x="9" y="18" width="1" height="1" fill="#ef0f21"/>
  <rect x="10" y="18" width="1" height="1" fill="#f20d21"/>
  <rect x="11" y="18" width="1" height="2" fill="#f30c21"/>
  <rect x="12" y="18" width="1" height="1" fill="#f30e25"/>
  <rect x="13" y="18" width="1" height="1" fill="#f01025"/>
  <rect x="14" y="18" width="1" height="1" fill="#ed0f23"/>
  <rect x="15" y="18" width="1" height="1" fill="#ea0f22"/>
  <rect x="16" y="18" width="1" height="1" fill="#e20919"/>
  <rect x="17" y="18" width="1" height="1" fill="#eb1021"/>
  <rect x="18" y="18" width="1" height="1" fill="#f31024"/>
  <rect x="19" y="18" width="1" height="1" fill="#f10f23"/>
  <rect x="20" y="18" width="1" height="1" fill="#ef0e23"/>
  <rect x="21" y="18" width="1" height="1" fill="#e50e20"/>
  <rect x="22" y="18" width="1" height="1" fill="#d50d1a"/>
  <rect x="23" y="18" width="1" height="1" fill="#cf0915"/>
  <rect x="24" y="18" width="1" height="1" fill="#df1520"/>
  <rect x="25" y="18" width="1" height="1" fill="#e61220"/>
  <rect x="26" y="18" width="1" height="1" fill="#ed0d22d5"/>
  <rect x="2" y="19" width="1" height="1" fill="#e8112798"/>
  <rect x="3" y="19" width="1" height="1" fill="#eb1023"/>
  <rect x="4" y="19" width="1" height="1" fill="#ee1324"/>
  <rect x="5" y="19" width="1" height="1" fill="#e91323"/>
  <rect x="6" y="19" width="1" height="1" fill="#d00314"/>
  <rect x="7" y="19" width="1" height="1" fill="#da0a1c"/>
  <rect x="8" y="19" width="1" height="1" fill="#eb1023"/>
  <rect x="9" y="19" width="1" height="1" fill="#f20d21"/>
  <rect x="10" y="19" width="1" height="2" fill="#f50c21"/>
  <rect x="12" y="19" width="1" height="1" fill="#ed0f23"/>
  <rect x="13" y="19" width="1" height="1" fill="#eb1023"/>
  <rect x="14" y="19" width="1" height="1" fill="#ed1125"/>
  <rect x="15" y="19" width="1" height="1" fill="#ec0e22"/>
  <rect x="16" y="19" width="1" height="1" fill="#ec0e20"/>
  <rect x="17" y="19" width="1" height="1" fill="#f01023"/>
  <rect x="18" y="19" width="1" height="1" fill="#f40f24"/>
  <rect x="19" y="19" width="1" height="1" fill="#f30e25"/>
  <rect x="20" y="19" width="1" height="1" fill="#ee1025"/>
  <rect x="21" y="19" width="1" height="1" fill="#e30f20"/>
  <rect x="22" y="19" width="1" height="1" fill="#ce0a15"/>
  <rect x="23" y="19" width="1" height="1" fill="#c5040e"/>
  <rect x="24" y="19" width="1" height="1" fill="#e11420"/>
  <rect x="25" y="19" width="1" height="1" fill="#e71120"/>
  <rect x="26" y="19" width="1" height="1" fill="#ea0f2254"/>
  <rect x="2" y="20" width="1" height="1" fill="#df132821"/>
  <rect x="3" y="20" width="1" height="1" fill="#ed0d24fa"/>
  <rect x="4" y="20" width="1" height="1" fill="#ed1021"/>
  <rect x="5" y="20" width="1" height="1" fill="#ea121f"/>
  <rect x="6" y="20" width="1" height="1" fill="#e51421"/>
  <rect x="7" y="20" width="1" height="1" fill="#e81223"/>
  <rect x="8" y="20" width="1" height="1" fill="#ef0f21"/>
  <rect x="9" y="20" width="1" height="1" fill="#f30c21"/>
  <rect x="11" y="20" width="1" height="1" fill="#f00e21"/>
  <rect x="12" y="20" width="1" height="1" fill="#e81425"/>
  <rect x="13" y="20" width="1" height="1" fill="#e21322"/>
  <rect x="14" y="20" width="1" height="1" fill="#e81223"/>
  <rect x="15" y="20" width="1" height="1" fill="#ef1427"/>
  <rect x="16" y="20" width="1" height="1" fill="#ef1226"/>
  <rect x="17" y="20" width="1" height="1" fill="#f01025"/>
  <rect x="18" y="20" width="2" height="1" fill="#f30e25"/>
  <rect x="20" y="20" width="1" height="2" fill="#ee1027"/>
  <rect x="21" y="20" width="1" height="1" fill="#e61124"/>
  <rect x="22" y="20" width="1" height="1" fill="#d61220"/>
  <rect x="23" y="20" width="1" height="1" fill="#cf0b17"/>
  <rect x="24" y="20" width="1" height="1" fill="#e4111f"/>
  <rect x="25" y="20" width="1" height="1" fill="#e80f1fbb"/>
  <rect x="3" y="21" width="1" height="1" fill="#ef0c2485"/>
  <rect x="4" y="21" width="1" height="1" fill="#ef0f1f"/>
  <rect x="5" y="21" width="1" height="1" fill="#ed101d"/>
  <rect x="6" y="21" width="1" height="1" fill="#ea121f"/>
  <rect x="7" y="21" width="1" height="1" fill="#eb1021"/>
  <rect x="8" y="21" width="1" height="1" fill="#f00e21"/>
  <rect x="9" y="21" width="1" height="1" fill="#f20d21"/>
  <rect x="10" y="21" width="1" height="1" fill="#f30c21"/>
  <rect x="11" y="21" width="1" height="1" fill="#ed1021"/>
  <rect x="12" y="21" width="1" height="1" fill="#d70e1b"/>
  <rect x="13" y="21" width="1" height="1" fill="#d10e19"/>
  <rect x="14" y="21" width="1" height="1" fill="#dc0d1c"/>
  <rect x="15" y="21" width="1" height="1" fill="#e81223"/>
  <rect x="16" y="21" width="1" height="1" fill="#e91325"/>
  <rect x="17" y="21" width="1" height="1" fill="#ed1125"/>
  <rect x="18" y="21" width="2" height="1" fill="#f10f25"/>
  <rect x="21" y="21" width="1" height="1" fill="#e91227"/>
  <rect x="22" y="21" width="1" height="1" fill="#df1625"/>
  <rect x="23" y="21" width="1" height="1" fill="#dc1121"/>
  <rect x="24" y="21" width="1" height="1" fill="#e80d20ea"/>
  <rect x="25" y="21" width="1" height="1" fill="#e90e211d"/>
  <rect x="4" y="22" width="1" height="1" fill="#f30d1fcf"/>
  <rect x="5" y="22" width="1" height="1" fill="#f30d1d"/>
  <rect x="6" y="22" width="1" height="1" fill="#f00f1d"/>
  <rect x="7" y="22" width="1" height="2" fill="#ef0f1f"/>
  <rect x="8" y="22" width="3" height="1" fill="#ef0f21"/>
  <rect x="11" y="22" width="1" height="2" fill="#e71321"/>
  <rect x="12" y="22" width="1" height="1" fill="#c60a13"/>
  <rect x="13" y="22" width="1" height="1" fill="#c20d13"/>
  <rect x="14" y="22" width="1" height="1" fill="#d30d19"/>
  <rect x="15" y="22" width="1" height="1" fill="#e11422"/>
  <rect x="16" y="22" width="1" height="2" fill="#e31625"/>
  <rect x="17" y="22" width="1" height="1" fill="#e61425"/>
  <rect x="18" y="22" width="1" height="1" fill="#ed1125"/>
  <rect x="19" y="22" width="1" height="1" fill="#f01025"/>
  <rect x="20" y="22" width="1" height="1" fill="#f00f27"/>
  <rect x="21" y="22" width="1" height="2" fill="#ed1127"/>
  <rect x="22" y="22" width="1" height="1" fill="#e61427"/>
  <rect x="23" y="22" width="1" height="1" fill="#e71225f7"/>
  <rect x="24" y="22" width="1" height="1" fill="#ec0c213c"/>
  <rect x="4" y="23" width="1" height="1" fill="#f20e1f1c"/>
  <rect x="5" y="23" width="1" height="1" fill="#f50c1de2"/>
  <rect x="6" y="23" width="1" height="1" fill="#f20e1d"/>
  <rect x="8" y="23" width="3" height="1" fill="#ed1021"/>
  <rect x="12" y="23" width="1" height="1" fill="#c70812"/>
  <rect x="13" y="23" width="1" height="1" fill="#c50b13"/>
  <rect x="14" y="23" width="1" height="1" fill="#d70e1b"/>
  <rect x="15" y="23" width="1" height="1" fill="#e41726"/>
  <rect x="17" y="23" width="1" height="1" fill="#e51525"/>
  <rect x="18" y="23" width="1" height="2" fill="#eb1225"/>
  <rect x="19" y="23" width="1" height="1" fill="#ee1025"/>
  <rect x="20" y="23" width="1" height="1" fill="#ee1027"/>
  <rect x="22" y="23" width="1" height="1" fill="#e91227f7"/>
  <rect x="23" y="23" width="1" height="1" fill="#e8112548"/>
  <rect x="5" y="24" width="1" height="1" fill="#f30f2120"/>
  <rect x="6" y="24" width="1" height="1" fill="#f01021d5"/>
  <rect x="7" y="24" width="4" height="1" fill="#ee1123"/>
  <rect x="11" y="24" width="1" height="1" fill="#ed1223"/>
  <rect x="12" y="24" width="1" height="1" fill="#dd091a"/>
  <rect x="13" y="24" width="1" height="1" fill="#d60414"/>
  <rect x="14" y="24" width="1" height="1" fill="#ec1527"/>
  <rect x="15" y="24" width="1" height="1" fill="#e91022"/>
  <rect x="16" y="24" width="2" height="1" fill="#e91325"/>
  <rect x="19" y="24" width="1" height="1" fill="#ed1125"/>
  <rect x="20" y="24" width="1" height="1" fill="#ed1127"/>
  <rect x="21" y="24" width="1" height="1" fill="#eb1227ea"/>
  <rect x="22" y="24" width="1" height="1" fill="#e813273a"/>
  <rect x="6" y="25" width="1" height="1" fill="#ed12230e"/>
  <rect x="7" y="25" width="1" height="1" fill="#ed1223a3"/>
  <rect x="8" y="25" width="4" height="1" fill="#ee1123"/>
  <rect x="12" y="25" width="1" height="1" fill="#eb0d21"/>
  <rect x="13" y="25" width="1" height="1" fill="#e7091e"/>
  <rect x="14" y="25" width="1" height="1" fill="#f4162a"/>
  <rect x="15" y="25" width="1" height="2" fill="#f11327"/>
  <rect x="16" y="25" width="2" height="2" fill="#ed1125"/>
  <rect x="18" y="25" width="2" height="1" fill="#eb1225"/>
  <rect x="20" y="25" width="1" height="1" fill="#eb1227ba"/>
  <rect x="21" y="25" width="1" height="1" fill="#eb12271b"/>
  <rect x="8" y="26" width="1" height="1" fill="#ed122341"/>
  <rect x="9" y="26" width="1" height="1" fill="#ee1123c6"/>
  <rect x="10" y="26" width="2" height="1" fill="#ee1123"/>
  <rect x="12" y="26" width="1" height="1" fill="#ef1226"/>
  <rect x="13" y="26" width="1" height="1" fill="#ee1025"/>
  <rect x="14" y="26" width="1" height="1" fill="#f21428"/>
  <rect x="18" y="26" width="1" height="1" fill="#eb1225db"/>
  <rect x="19" y="26" width="1" height="1" fill="#eb122559"/>
  <rect x="10" y="27" width="1" height="1" fill="#ee11232b"/>
  <rect x="11" y="27" width="1" height="1" fill="#ee112380"/>
  <rect x="12" y="27" width="1" height="1" fill="#ee1025c5"/>
  <rect x="13" y="27" width="1" height="1" fill="#ee1025ee"/>
  <rect x="14" y="27" width="1" height="1" fill="#ec0e22fb"/>
  <rect x="15" y="27" width="1" height="1" fill="#ed0f23e0"/>
  <rect x="16" y="27" width="1" height="1" fill="#ed1125a5"/>
  <rect x="17" y="27" width="1" height="1" fill="#ed11254e"/>
</svg>