<svg xmlns="http://www.w3.org/2000/svg" width="30" height="28" viewBox="0 0 30 28" shape-rendering="crispEdges">
  <rect x="4" y="1" width="1" height="1" fill="#f1988926"/>
  <rect x="5" y="1" width="1" height="1" fill="#f7958986"/>
  <rect x="6" y="1" width="1" height="1" fill="#fe9289c3"/>
  <rect x="7" y="1" width="1" height="1" fill="#ff9089e4"/>
  <rect x="8" y="1" width="1" height="1" fill="#ff9089e7"/>
  <rect x="9" y="1" width="1" height="1" fill="#fe9289be"/>
  <rect x="10" y="1" width="1" height="1" fill="#f7958966"/>
  <rect x="11" y="1" width="1" height="1" fill="#f198890b"/>
  <rect x="18" y="1" width="1" height="1" fill="#f1988b0c"/>
  <rect x="19" y="1" width="1" height="1" fill="#f9948b6c"/>
  <rect x="20" y="1" width="1" height="1" fill="#ff9189c4"/>
  <rect x="21" y="1" width="1" height="1" fill="#ff9187ec"/>
  <rect x="22" y="1" width="1" height="1" fill="#f99585e9"/>
  <rect x="23" y="1" width="1" height="1" fill="#f79587cc"/>
  <rect x="24" y="1" width="1" height="1" fill="#f9938f88"/>
  <rect x="25" y="1" width="1" height="1" fill="#f2969325"/>
  <rect x="3" y="2" width="1" height="1" fill="#f2978989"/>
  <rect x="4" y="2" width="1" height="1" fill="#f79589fb"/>
  <rect x="5" y="2" width="1" height="1" fill="#fa9389"/>
  <rect x="6" y="2" width="1" height="1" fill="#fe9289"/>
  <rect x="7" y="2" width="1" height="1" fill="#ff9189"/>
  <rect x="8" y="2" width="1" height="1" fill="#fe9289"/>
  <rect x="9" y="2" width="1" height="1" fill="#fc9389"/>
  <rect x="10" y="2" width="1" height="1" fill="#fa9389"/>
  <rect x="11" y="2" width="1" height="1" fill="#f79589e0"/>
  <rect x="12" y="2" width="1" height="1" fill="#f2978941"/>
  <rect x="17" y="2" width="1" height="1" fill="#f1988b41"/>
  <rect x="18" y="2" width="1" height="1" fill="#f7958be2"/>
  <rect x="19" y="2" width="1" height="1" fill="#fa938b"/>
  <rect x="20" y="2" width="1" height="1" fill="#fe9289"/>
  <rect x="21" y="2" width="1" height="1" fill="#fe9287"/>
  <rect x="22" y="2" width="2" height="1" fill="#fa9487"/>
  <rect x="24" y="2" width="1" height="1" fill="#fc928b"/>
  <rect x="25" y="2" width="1" height="1" fill="#f9938dfa"/>
  <rect x="26" y="2" width="1" height="1" fill="#f2978d7d"/>
  <rect x="1" y="3" width="1" height="1" fill="#f994890a"/>
  <rect x="2" y="3" width="1" height="1" fill="#f99489bc"/>
  <rect x="3" y="3" width="2" height="1" fill="#fa9389"/>
  <rect x="5" y="3" width="6" height="2" fill="#fc9389"/>
  <rect x="11" y="3" width="1" height="1" fill="#fa9389"/>
  <rect x="12" y="3" width="1" height="1" fill="#fa9389f9"/>
  <rect x="13" y="3" width="1" height="1" fill="#f994894e"/>
  <rect x="16" y="3" width="1" height="1" fill="#f994894e"/>
  <rect x="17" y="3" width="1" height="1" fill="#f9948bfa"/>
  <rect x="18" y="3" width="1" height="1" fill="#fa938b"/>
  <rect x="19" y="3" width="6" height="1" fill="#fc9389"/>
  <rect x="25" y="3" width="1" height="1" fill="#fc928b"/>
  <rect x="26" y="3" width="1" height="1" fill="#fa938b"/>
  <rect x="27" y="3" width="1" height="1" fill="#f9948baa"/>
  <rect x="1" y="4" width="1" height="1" fill="#ff9189ac"/>
  <rect x="2" y="4" width="1" height="1" fill="#ff9189"/>
  <rect x="3" y="4" width="2" height="2" fill="#fe9289"/>
  <rect x="11" y="4" width="2" height="2" fill="#fe9289"/>
  <rect x="13" y="4" width="1" height="1" fill="#ff9189f5"/>
  <rect x="14" y="4" width="1" height="1" fill="#ff91892d"/>
  <rect x="15" y="4" width="1" height="1" fill="#ff918930"/>
  <rect x="16" y="4" width="1" height="1" fill="#ff9189f5"/>
  <rect x="17" y="4" width="1" height="1" fill="#ff9189"/>
  <rect x="18" y="4" width="1" height="1" fill="#fe9289"/>
  <rect x="19" y="4" width="2" height="1" fill="#fc9389"/>
  <rect x="21" y="4" width="2" height="1" fill="#fc928b"/>
  <rect x="23" y="4" width="1" height="1" fill="#fc9389"/>
  <rect x="24" y="4" width="2" height="2" fill="#fa9389"/>
  <rect x="26" y="4" width="2" height="1" fill="#fc9389"/>
  <rect x="28" y="4" width="1" height="1" fill="#fc938997"/>
  <rect x="0" y="5" width="1" height="1" fill="#ff91894d"/>
  <rect x="1" y="5" width="2" height="1" fill="#ff9189"/>
  <rect x="5" y="5" width="2" height="1" fill="#fc9389"/>
  <rect x="7" y="5" width="1" height="1" fill="#fa9389"/>
  <rect x="8" y="5" width="3" height="1" fill="#fc9389"/>
  <rect x="13" y="5" width="1" height="1" fill="#ff9189"/>
  <rect x="14" y="5" width="1" height="1" fill="#ff9189d3"/>
  <rect x="15" y="5" width="1" height="1" fill="#ff9189d8"/>
  <rect x="16" y="5" width="1" height="1" fill="#ff9187"/>
  <rect x="17" y="5" width="2" height="1" fill="#fe9287"/>
  <rect x="19" y="5" width="1" height="2" fill="#fc9389"/>
  <rect x="20" y="5" width="4" height="1" fill="#fc928b"/>
  <rect x="26" y="5" width="2" height="1" fill="#fe9289"/>
  <rect x="28" y="5" width="1" height="1" fill="#fa9389"/>
  <rect x="29" y="5" width="1" height="1" fill="#fa93893c"/>
  <rect x="0" y="6" width="1" height="1" fill="#f79589b4"/>
  <rect x="1" y="6" width="1" height="1" fill="#f79589"/>
  <rect x="2" y="6" width="2" height="1" fill="#f99489"/>
  <rect x="4" y="6" width="1" height="1" fill="#fa9389"/>
  <rect x="5" y="6" width="6" height="1" fill="#fc9389"/>
  <rect x="11" y="6" width="1" height="1" fill="#fa9389"/>
  <rect x="12" y="6" width="2" height="1" fill="#f99489"/>
  <rect x="14" y="6" width="1" height="1" fill="#f79589"/>
  <rect x="15" y="6" width="1" height="1" fill="#f79587"/>
  <rect x="16" y="6" width="1" height="1" fill="#f79685"/>
  <rect x="17" y="6" width="1" height="1" fill="#f99585"/>
  <rect x="18" y="6" width="1" height="1" fill="#fa9487"/>
  <rect x="20" y="6" width="2" height="1" fill="#fc928b"/>
  <rect x="22" y="6" width="2" height="1" fill="#fc928d"/>
  <rect x="24" y="6" width="1" height="1" fill="#fc928b"/>
  <rect x="25" y="6" width="1" height="1" fill="#fe918b"/>
  <rect x="26" y="6" width="1" height="1" fill="#ff918b"/>
  <rect x="27" y="6" width="1" height="2" fill="#fe918b"/>
  <rect x="28" y="6" width="1" height="2" fill="#f7958b"/>
  <rect x="29" y="6" width="1" height="1" fill="#f6958ba7"/>
  <rect x="0" y="7" width="1" height="1" fill="#f49789eb"/>
  <rect x="1" y="7" width="2" height="1" fill="#f69689"/>
  <rect x="3" y="7" width="1" height="1" fill="#f79589"/>
  <rect x="4" y="7" width="1" height="1" fill="#f99489"/>
  <rect x="5" y="7" width="1" height="1" fill="#fa9389"/>
  <rect x="6" y="7" width="4" height="3" fill="#fc9389"/>
  <rect x="10" y="7" width="1" height="1" fill="#fa9389"/>
  <rect x="11" y="7" width="1" height="1" fill="#f99489"/>
  <rect x="12" y="7" width="1" height="1" fill="#f79589"/>
  <rect x="13" y="7" width="2" height="1" fill="#f69689"/>
  <rect x="15" y="7" width="1" height="1" fill="#f49787"/>
  <rect x="16" y="7" width="1" height="1" fill="#f69785"/>
  <rect x="17" y="7" width="1" height="1" fill="#f79685"/>
  <rect x="18" y="7" width="1" height="1" fill="#f99587"/>
  <rect x="19" y="7" width="1" height="1" fill="#fa9487"/>
  <rect x="20" y="7" width="1" height="1" fill="#fc9389"/>
  <rect x="21" y="7" width="1" height="1" fill="#fc928b"/>
  <rect x="22" y="7" width="2" height="1" fill="#fa938d"/>
  <rect x="24" y="7" width="1" height="1" fill="#fe918b"/>
  <rect x="25" y="7" width="2" height="1" fill="#ff918b"/>
  <rect x="29" y="7" width="1" height="1" fill="#f6958be4"/>
  <rect x="0" y="8" width="1" height="1" fill="#f99489fa"/>
  <rect x="1" y="8" width="3" height="1" fill="#f99489"/>
  <rect x="4" y="8" width="2" height="1" fill="#fa9389"/>
  <rect x="10" y="8" width="2" height="1" fill="#fa9389"/>
  <rect x="12" y="8" width="4" height="1" fill="#f99489"/>
  <rect x="16" y="8" width="1" height="1" fill="#f79587"/>
  <rect x="17" y="8" width="3" height="1" fill="#f99587"/>
  <rect x="20" y="8" width="1" height="1" fill="#fa9487"/>
  <rect x="21" y="8" width="1" height="1" fill="#fa9389"/>
  <rect x="22" y="8" width="1" height="1" fill="#f99489"/>
  <rect x="23" y="8" width="1" height="1" fill="#fa9389"/>
  <rect x="24" y="8" width="1" height="1" fill="#fc9389"/>
  <rect x="25" y="8" width="2" height="1" fill="#fe9289"/>
  <rect x="27" y="8" width="1" height="1" fill="#fc9389"/>
  <rect x="28" y="8" width="1" height="1" fill="#fa9389"/>
  <rect x="29" y="8" width="1" height="1" fill="#fa9389fb"/>
  <rect x="0" y="9" width="1" height="1" fill="#fa9389e0"/>
  <rect x="1" y="9" width="5" height="1" fill="#fa9389"/>
  <rect x="10" y="9" width="6" height="1" fill="#fa9389"/>
  <rect x="16" y="9" width="7" height="7" fill="#f99587"/>
  <rect x="23" y="9" width="1" height="6" fill="#fa9487"/>
  <rect x="24" y="9" width="5" height="3" fill="#fc9387"/>
  <rect x="29" y="9" width="1" height="1" fill="#fc9387e8"/>
  <rect x="0" y="10" width="1" height="1" fill="#fa9389aa"/>
  <rect x="1" y="10" width="15" height="2" fill="#fa9389"/>
  <rect x="29" y="10" width="1" height="1" fill="#fc9387bc"/>
  <rect x="0" y="11" width="1" height="1" fill="#fa93895d"/>
  <rect x="29" y="11" width="1" height="1" fill="#fc938772"/>
  <rect x="1" y="12" width="1" height="1" fill="#fa9389e6"/>
  <rect x="2" y="12" width="8" height="2" fill="#fa9389"/>
  <rect x="10" y="12" width="6" height="4" fill="#fa9487"/>
  <rect x="24" y="12" width="4" height="2" fill="#fc9387"/>
  <rect x="28" y="12" width="1" height="1" fill="#fc9387f6"/>
  <rect x="29" y="12" width="1" height="1" fill="#fc938714"/>
  <rect x="1" y="13" width="1" height="1" fill="#fa93896e"/>
  <rect x="28" y="13" width="1" height="1" fill="#fc938793"/>
  <rect x="2" y="14" width="1" height="1" fill="#fa9389d2"/>
  <rect x="3" y="14" width="7" height="1" fill="#fa9389"/>
  <rect x="24" y="14" width="3" height="1" fill="#fc9387"/>
  <rect x="27" y="14" width="1" height="1" fill="#fc9387ec"/>
  <rect x="28" y="14" width="1" height="1" fill="#fc938713"/>
  <rect x="2" y="15" width="1" height="1" fill="#fa938930"/>
  <rect x="3" y="15" width="1" height="1" fill="#fa9389f8"/>
  <rect x="4" y="15" width="6" height="1" fill="#fa9389"/>
  <rect x="23" y="15" width="2" height="1" fill="#fa9487"/>
  <rect x="25" y="15" width="2" height="1" fill="#fc9387"/>
  <rect x="27" y="15" width="1" height="1" fill="#fc938758"/>
  <rect x="3" y="16" width="1" height="1" fill="#fa93896c"/>
  <rect x="4" y="16" width="2" height="1" fill="#fa9389"/>
  <rect x="6" y="16" width="20" height="1" fill="#fa9487"/>
  <rect x="26" y="16" width="1" height="1" fill="#fa94879d"/>
  <rect x="4" y="17" width="1" height="1" fill="#fa93899a"/>
  <rect x="5" y="17" width="1" height="1" fill="#fa9389"/>
  <rect x="6" y="17" width="19" height="1" fill="#fa9487"/>
  <rect x="25" y="17" width="1" height="1" fill="#fa9487c8"/>
  <rect x="5" y="18" width="1" height="1" fill="#fa9389b4"/>
  <rect x="6" y="18" width="18" height="1" fill="#fa9487"/>
  <rect x="24" y="18" width="1" height="1" fill="#fa9487db"/>
  <rect x="25" y="18" width="1" height="1" fill="#fa948715"/>
  <rect x="5" y="19" width="1" height="1" fill="#fa93890a"/>
  <rect x="6" y="19" width="1" height="1" fill="#fa9487c2"/>
  <rect x="7" y="19" width="16" height="1" fill="#fa9487"/>
  <rect x="23" y="19" width="1" height="1" fill="#fa9487e3"/>
  <rect x="24" y="19" width="1" height="1" fill="#fa948724"/>
  <rect x="6" y="20" width="1" height="1" fill="#fa94870b"/>
  <rect x="7" y="20" width="1" height="1" fill="#fa9487bf"/>
  <rect x="8" y="20" width="6" height="1" fill="#fa9487"/>
  <rect x="14" y="20" width="2" height="2" fill="#fa9485"/>
  <rect x="16" y="20" width="6" height="1" fill="#fa9487"/>
  <rect x="22" y="20" width="1" height="1" fill="#fa9487e2"/>
  <rect x="23" y="20" width="1" height="1" fill="#fa948724"/>
  <rect x="8" y="21" width="1" height="1" fill="#fa9487b3"/>
  <rect x="9" y="21" width="5" height="1" fill="#fa9487"/>
  <rect x="16" y="21" width="5" height="1" fill="#fa9487"/>
  <rect x="21" y="21" width="1" height="1" fill="#fa9487d5"/>
  <rect x="22" y="21" width="1" height="1" fill="#fa94871f"/>
  <rect x="9" y="22" width="1" height="1" fill="#fa94879c"/>
  <rect x="10" y="22" width="2" height="1" fill="#fa9389"/>
  <rect x="12" y="22" width="1" height="1" fill="#fc9387"/>
  <rect x="13" y="22" width="1" height="1" fill="#fa9487"/>
  <rect x="14" y="22" width="1" height="1" fill="#fa9485"/>
  <rect x="15" y="22" width="1" height="1" fill="#f99585"/>
  <rect x="16" y="22" width="2" height="1" fill="#f99587"/>
  <rect x="18" y="22" width="2" height="1" fill="#fa9487"/>
  <rect x="20" y="22" width="1" height="1" fill="#fa9487c3"/>
  <rect x="21" y="22" width="1" height="1" fill="#fa948712"/>
  <rect x="10" y="23" width="1" height="1" fill="#f9948b78"/>
  <rect x="11" y="23" width="1" height="1" fill="#fa9389fc"/>
  <rect x="12" y="23" width="1" height="1" fill="#fc9389"/>
  <rect x="13" y="23" width="1" height="2" fill="#fc9387"/>
  <rect x="14" y="23" width="2" height="1" fill="#f99585"/>
  <rect x="16" y="23" width="2" height="1" fill="#fc9483"/>
  <rect x="18" y="23" width="1" height="1" fill="#f99585"/>
  <rect x="19" y="23" width="1" height="1" fill="#f99587a8"/>
  <rect x="11" y="24" width="1" height="1" fill="#f7958b49"/>
  <rect x="12" y="24" width="1" height="1" fill="#fc9389ef"/>
  <rect x="14" y="24" width="1" height="1" fill="#f99585"/>
  <rect x="15" y="24" width="1" height="2" fill="#fa9581"/>
  <rect x="16" y="24" width="1" height="1" fill="#ff937b"/>
  <rect x="17" y="24" width="1" height="1" fill="#ff937bfc"/>
  <rect x="18" y="24" width="1" height="1" fill="#f9958374"/>
  <rect x="12" y="25" width="1" height="1" fill="#f9948b25"/>
  <rect x="13" y="25" width="1" height="1" fill="#fc9389cd"/>
  <rect x="14" y="25" width="1" height="1" fill="#f99587"/>
  <rect x="16" y="25" width="1" height="1" fill="#ff937be6"/>
  <rect x="17" y="25" width="1" height="1" fill="#fe947d41"/>
  <rect x="14" y="26" width="1" height="1" fill="#fa948790"/>
  <rect x="15" y="26" width="1" height="1" fill="#f99583b3"/>
  <rect x="16" y="26" width="1" height="1" fill="#f9968115"/>
</svg>