<svg xmlns="http://www.w3.org/2000/svg" width="30" height="28" viewBox="0 0 30 28" shape-rendering="crispEdges">
  <rect x="15" y="0" width="1" height="1" fill="#ec16437c"/>
  <rect x="8" y="1" width="1" height="1" fill="#ee9912a3"/>
  <rect x="9" y="1" width="1" height="1" fill="#f89a0628"/>
  <rect x="14" y="1" width="1" height="1" fill="#e2232d5c"/>
  <rect x="15" y="1" width="1" height="1" fill="#ed1943fb"/>
  <rect x="16" y="1" width="1" height="1" fill="#f21a4e26"/>
  <rect x="8" y="2" width="1" height="1" fill="#e7990fe1"/>
  <rect x="9" y="2" width="1" height="1" fill="#f39904f9"/>
  <rect x="10" y="2" width="1" height="1" fill="#f69c0d78"/>
  <rect x="14" y="2" width="1" height="1" fill="#dc1e23b7"/>
  <rect x="15" y="2" width="1" height="1" fill="#e41639dd"/>
  <rect x="16" y="2" width="1" height="1" fill="#ed1c5186"/>
  <rect x="22" y="2" width="1" height="1" fill="#eba01521"/>
  <rect x="23" y="2" width="1" height="1" fill="#e99b12b0"/>
  <rect x="8" y="3" width="1" height="1" fill="#e3950ebc"/>
  <rect x="9" y="3" width="1" height="1" fill="#ed990178"/>
  <rect x="10" y="3" width="1" height="1" fill="#f19b0913"/>
  <rect x="21" y="3" width="1" height="1" fill="#f99e0670"/>
  <rect x="22" y="3" width="1" height="1" fill="#f49a00f6"/>
  <rect x="23" y="3" width="1" height="1" fill="#f39500"/>
  <rect x="10" y="4" width="1" height="1" fill="#f9ab141c"/>
  <rect x="11" y="4" width="1" height="1" fill="#fbac1c6c"/>
  <rect x="12" y="4" width="1" height="1" fill="#fdaa24b4"/>
  <rect x="13" y="4" width="1" height="1" fill="#ffa530e1"/>
  <rect x="14" y="4" width="1" height="1" fill="#ffa23df6"/>
  <rect x="15" y="4" width="1" height="1" fill="#ffa143f6"/>
  <rect x="16" y="4" width="1" height="1" fill="#ffa441e2"/>
  <rect x="17" y="4" width="1" height="1" fill="#ffa83db4"/>
  <rect x="18" y="4" width="1" height="1" fill="#f3ab346c"/>
  <rect x="19" y="4" width="1" height="1" fill="#f4ab291d"/>
  <rect x="21" y="4" width="1" height="1" fill="#faa00b0c"/>
  <rect x="22" y="4" width="1" height="1" fill="#f89b0066"/>
  <rect x="23" y="4" width="1" height="1" fill="#f59800cf"/>
  <rect x="3" y="5" width="1" height="1" fill="#f66e6875"/>
  <rect x="4" y="5" width="1" height="1" fill="#f46b626a"/>
  <rect x="5" y="5" width="1" height="1" fill="#f7725f37"/>
  <rect x="8" y="5" width="1" height="1" fill="#ffa6271a"/>
  <rect x="9" y="5" width="1" height="1" fill="#fcaf1599"/>
  <rect x="10" y="5" width="1" height="1" fill="#fdb419f9"/>
  <rect x="11" y="5" width="1" height="1" fill="#fdb71d"/>
  <rect x="12" y="5" width="1" height="1" fill="#fdb621"/>
  <rect x="13" y="5" width="1" height="1" fill="#fdb525"/>
  <rect x="14" y="5" width="1" height="1" fill="#ffb72b"/>
  <rect x="15" y="5" width="1" height="1" fill="#feb72b"/>
  <rect x="16" y="5" width="1" height="1" fill="#f9bb25"/>
  <rect x="17" y="5" width="1" height="1" fill="#fbbb1f"/>
  <rect x="18" y="5" width="1" height="1" fill="#ffb919"/>
  <rect x="19" y="5" width="1" height="1" fill="#ffb616fc"/>
  <rect x="20" y="5" width="1" height="1" fill="#ffaf16a4"/>
  <rect x="21" y="5" width="1" height="1" fill="#fcaa121a"/>
  <rect x="3" y="6" width="1" height="1" fill="#f86d6c62"/>
  <rect x="4" y="6" width="1" height="1" fill="#f26563"/>
  <rect x="5" y="6" width="1" height="1" fill="#f26f50a0"/>
  <rect x="7" y="6" width="1" height="1" fill="#ffa22546"/>
  <rect x="8" y="6" width="1" height="1" fill="#ffb21dea"/>
  <rect x="9" y="6" width="1" height="1" fill="#ffb719"/>
  <rect x="10" y="6" width="1" height="1" fill="#ffb920"/>
  <rect x="11" y="6" width="1" height="1" fill="#ffbb25"/>
  <rect x="12" y="6" width="1" height="1" fill="#ffbb27"/>
  <rect x="13" y="6" width="1" height="1" fill="#ffbb29"/>
  <rect x="14" y="6" width="1" height="1" fill="#ffbe2d"/>
  <rect x="15" y="6" width="1" height="1" fill="#ffc02b"/>
  <rect x="16" y="6" width="1" height="1" fill="#fec229"/>
  <rect x="17" y="6" width="1" height="1" fill="#fec327"/>
  <rect x="18" y="6" width="1" height="1" fill="#ffc125"/>
  <rect x="19" y="6" width="1" height="1" fill="#ffc020"/>
  <rect x="20" y="6" width="1" height="1" fill="#fdba18"/>
  <rect x="21" y="6" width="1" height="1" fill="#fab511ea"/>
  <rect x="22" y="6" width="1" height="1" fill="#f7af0d47"/>
  <rect x="4" y="7" width="1" height="1" fill="#ef6e4cbf"/>
  <rect x="5" y="7" width="1" height="1" fill="#ee7a380c"/>
  <rect x="6" y="7" width="1" height="1" fill="#ffab3057"/>
  <rect x="7" y="7" width="1" height="1" fill="#ffb017fc"/>
  <rect x="8" y="7" width="1" height="1" fill="#fdb71b"/>
  <rect x="9" y="7" width="1" height="1" fill="#fcbb1d"/>
  <rect x="10" y="7" width="1" height="1" fill="#ffbd25"/>
  <rect x="11" y="7" width="1" height="1" fill="#ffbf29"/>
  <rect x="12" y="7" width="2" height="1" fill="#ffbf2b"/>
  <rect x="14" y="7" width="1" height="1" fill="#ffc32b"/>
  <rect x="15" y="7" width="2" height="1" fill="#ffc42b"/>
  <rect x="17" y="7" width="1" height="1" fill="#fec52b"/>
  <rect x="18" y="7" width="1" height="1" fill="#ffc42b"/>
  <rect x="19" y="7" width="1" height="1" fill="#ffc426"/>
  <rect x="20" y="7" width="1" height="1" fill="#fabe1c"/>
  <rect x="21" y="7" width="1" height="1" fill="#f7b916"/>
  <rect x="22" y="7" width="1" height="1" fill="#f4b313fc"/>
  <rect x="23" y="7" width="1" height="1" fill="#f1ac2259"/>
  <rect x="26" y="7" width="1" height="1" fill="#e5755b3a"/>
  <rect x="27" y="7" width="1" height="1" fill="#ef6e6773"/>
  <rect x="28" y="7" width="1" height="1" fill="#f56b6a9d"/>
  <rect x="29" y="7" width="1" height="1" fill="#f8696a0b"/>
  <rect x="5" y="8" width="1" height="1" fill="#fea3272e"/>
  <rect x="6" y="8" width="1" height="1" fill="#feb21ff8"/>
  <rect x="7" y="8" width="1" height="1" fill="#fab91b"/>
  <rect x="8" y="8" width="1" height="1" fill="#fcbf22"/>
  <rect x="9" y="8" width="1" height="1" fill="#fec327"/>
  <rect x="10" y="8" width="2" height="1" fill="#ffc42b"/>
  <rect x="12" y="8" width="2" height="1" fill="#ffc32d"/>
  <rect x="14" y="8" width="5" height="1" fill="#ffc42d"/>
  <rect x="19" y="8" width="1" height="1" fill="#ffc42b"/>
  <rect x="20" y="8" width="1" height="1" fill="#fcc128"/>
  <rect x="21" y="8" width="1" height="1" fill="#fabd24"/>
  <rect x="22" y="8" width="1" height="1" fill="#f6b820"/>
  <rect x="23" y="8" width="1" height="1" fill="#f1b223f9"/>
  <rect x="24" y="8" width="1" height="1" fill="#f2ad3030"/>
  <rect x="26" y="8" width="1" height="1" fill="#ee7d5c60"/>
  <rect x="27" y="8" width="1" height="1" fill="#ef6c68"/>
  <rect x="28" y="8" width="1" height="1" fill="#f6696897"/>
  <rect x="5" y="9" width="1" height="1" fill="#feb31bc2"/>
  <rect x="6" y="9" width="1" height="1" fill="#fab91b"/>
  <rect x="7" y="9" width="1" height="1" fill="#f8bd1f"/>
  <rect x="8" y="9" width="1" height="1" fill="#fcc327"/>
  <rect x="9" y="9" width="2" height="1" fill="#fec52b"/>
  <rect x="11" y="9" width="1" height="1" fill="#ffc62d"/>
  <rect x="12" y="9" width="4" height="1" fill="#fec52d"/>
  <rect x="16" y="9" width="4" height="6" fill="#ffc42d"/>
  <rect x="20" y="9" width="1" height="1" fill="#ffc430"/>
  <rect x="21" y="9" width="1" height="1" fill="#fec12d"/>
  <rect x="22" y="9" width="1" height="1" fill="#f9bd29"/>
  <rect x="23" y="9" width="1" height="1" fill="#f6b724"/>
  <rect x="24" y="9" width="1" height="1" fill="#f6b021c6"/>
  <rect x="27" y="9" width="1" height="1" fill="#e8625d98"/>
  <rect x="28" y="9" width="1" height="1" fill="#ff747420"/>
  <rect x="2" y="10" width="1" height="1" fill="#f4cc0f17"/>
  <rect x="4" y="10" width="1" height="1" fill="#f9b61549"/>
  <rect x="5" y="10" width="1" height="1" fill="#fdb71d"/>
  <rect x="6" y="10" width="1" height="1" fill="#f9bc1f"/>
  <rect x="7" y="10" width="1" height="1" fill="#fac125"/>
  <rect x="8" y="10" width="2" height="1" fill="#fec52b"/>
  <rect x="10" y="10" width="2" height="1" fill="#ffc62d"/>
  <rect x="12" y="10" width="1" height="2" fill="#ffc62f"/>
  <rect x="13" y="10" width="3" height="2" fill="#fec52d"/>
  <rect x="20" y="10" width="2" height="1" fill="#ffc430"/>
  <rect x="22" y="10" width="1" height="1" fill="#fec12d"/>
  <rect x="23" y="10" width="1" height="1" fill="#feba29"/>
  <rect x="24" y="10" width="1" height="1" fill="#fbac1c"/>
  <rect x="25" y="10" width="1" height="1" fill="#ffa6374d"/>
  <rect x="0" y="11" width="1" height="1" fill="#f2d30057"/>
  <rect x="1" y="11" width="1" height="1" fill="#f3d400c9"/>
  <rect x="2" y="11" width="1" height="1" fill="#f3d400a5"/>
  <rect x="4" y="11" width="1" height="1" fill="#f7bc11a3"/>
  <rect x="5" y="11" width="1" height="1" fill="#fcbb1f"/>
  <rect x="6" y="11" width="1" height="1" fill="#fcbe24"/>
  <rect x="7" y="11" width="1" height="1" fill="#fec327"/>
  <rect x="8" y="11" width="1" height="1" fill="#fec52b"/>
  <rect x="9" y="11" width="3" height="1" fill="#ffc62d"/>
  <rect x="20" y="11" width="3" height="1" fill="#ffc430"/>
  <rect x="23" y="11" width="1" height="1" fill="#ffbf2b"/>
  <rect x="24" y="11" width="1" height="1" fill="#ffb11f"/>
  <rect x="25" y="11" width="1" height="1" fill="#ffa627a5"/>
  <rect x="0" y="12" width="1" height="1" fill="#facd0049"/>
  <rect x="1" y="12" width="1" height="1" fill="#ffd500ef"/>
  <rect x="2" y="12" width="1" height="1" fill="#fbd702a5"/>
  <rect x="4" y="12" width="1" height="1" fill="#f3b90ddb"/>
  <rect x="5" y="12" width="1" height="1" fill="#f8b61b"/>
  <rect x="6" y="12" width="1" height="1" fill="#febf25"/>
  <rect x="7" y="12" width="1" height="1" fill="#ffc328"/>
  <rect x="8" y="12" width="1" height="2" fill="#ffc42b"/>
  <rect x="9" y="12" width="1" height="1" fill="#fec52b"/>
  <rect x="10" y="12" width="1" height="1" fill="#ffc62d"/>
  <rect x="11" y="12" width="1" height="1" fill="#fec52b"/>
  <rect x="12" y="12" width="4" height="2" fill="#fec52d"/>
  <rect x="20" y="12" width="2" height="2" fill="#ffc430"/>
  <rect x="22" y="12" width="1" height="2" fill="#ffc330"/>
  <rect x="23" y="12" width="1" height="2" fill="#ffc12c"/>
  <rect x="24" y="12" width="1" height="1" fill="#fcba23"/>
  <rect x="25" y="12" width="1" height="1" fill="#f4af15de"/>
  <rect x="1" y="13" width="1" height="1" fill="#ffcb1426"/>
  <rect x="2" y="13" width="1" height="1" fill="#ffcc147c"/>
  <rect x="4" y="13" width="1" height="1" fill="#f7b613f8"/>
  <rect x="5" y="13" width="1" height="1" fill="#f9b51b"/>
  <rect x="6" y="13" width="1" height="1" fill="#ffbd22"/>
  <rect x="7" y="13" width="1" height="1" fill="#ffc228"/>
  <rect x="9" y="13" width="3" height="1" fill="#fec52b"/>
  <rect x="24" y="13" width="1" height="1" fill="#febb22"/>
  <rect x="25" y="13" width="1" height="1" fill="#f5b80dfb"/>
  <rect x="27" y="13" width="1" height="1" fill="#f3cd0023"/>
  <rect x="28" y="13" width="1" height="1" fill="#efcd0014"/>
  <rect x="4" y="14" width="1" height="1" fill="#fdb11df1"/>
  <rect x="5" y="14" width="1" height="1" fill="#fbb41b"/>
  <rect x="6" y="14" width="1" height="2" fill="#ffbb20"/>
  <rect x="7" y="14" width="1" height="2" fill="#ffc126"/>
  <rect x="8" y="14" width="1" height="2" fill="#ffc529"/>
  <rect x="9" y="14" width="3" height="2" fill="#fdc62b"/>
  <rect x="12" y="14" width="3" height="1" fill="#fdc62d"/>
  <rect x="15" y="14" width="1" height="1" fill="#fec52d"/>
  <rect x="20" y="14" width="3" height="1" fill="#ffc430"/>
  <rect x="23" y="14" width="1" height="1" fill="#ffc22b"/>
  <rect x="24" y="14" width="1" height="1" fill="#ffb71d"/>
  <rect x="25" y="14" width="1" height="1" fill="#fdb507fb"/>
  <rect x="27" y="14" width="1" height="1" fill="#fbd70069"/>
  <rect x="28" y="14" width="1" height="1" fill="#f4d500f8"/>
  <rect x="29" y="14" width="1" height="1" fill="#f3d502a3"/>
  <rect x="4" y="15" width="1" height="1" fill="#ffae28d5"/>
  <rect x="5" y="15" width="1" height="1" fill="#fdb41b"/>
  <rect x="12" y="15" width="4" height="1" fill="#fdc62d"/>
  <rect x="16" y="15" width="1" height="1" fill="#fec52d"/>
  <rect x="17" y="15" width="3" height="1" fill="#ffc42b"/>
  <rect x="20" y="15" width="1" height="1" fill="#ffc32d"/>
  <rect x="21" y="15" width="2" height="1" fill="#ffc330"/>
  <rect x="23" y="15" width="1" height="1" fill="#ffc12d"/>
  <rect x="24" y="15" width="1" height="1" fill="#ffb61f"/>
  <rect x="25" y="15" width="1" height="1" fill="#ffb409df"/>
  <rect x="27" y="15" width="1" height="1" fill="#fad70069"/>
  <rect x="28" y="15" width="1" height="1" fill="#f7db03f5"/>
  <rect x="29" y="15" width="1" height="1" fill="#f6db075d"/>
  <rect x="4" y="16" width="1" height="1" fill="#ffac32a4"/>
  <rect x="5" y="16" width="1" height="1" fill="#ffc129"/>
  <rect x="6" y="16" width="1" height="1" fill="#febb22"/>
  <rect x="7" y="16" width="1" height="1" fill="#ffc227"/>
  <rect x="8" y="16" width="1" height="1" fill="#fec52b"/>
  <rect x="9" y="16" width="6" height="1" fill="#fbc72d"/>
  <rect x="15" y="16" width="1" height="1" fill="#fdc62d"/>
  <rect x="16" y="16" width="1" height="2" fill="#fdc62b"/>
  <rect x="17" y="16" width="1" height="2" fill="#fec629"/>
  <rect x="18" y="16" width="1" height="1" fill="#ffc527"/>
  <rect x="19" y="16" width="1" height="1" fill="#ffc427"/>
  <rect x="20" y="16" width="1" height="1" fill="#ffc82e"/>
  <rect x="21" y="16" width="1" height="1" fill="#ffc32f"/>
  <rect x="22" y="16" width="1" height="1" fill="#ffbd2e"/>
  <rect x="23" y="16" width="1" height="1" fill="#ffb82b"/>
  <rect x="24" y="16" width="1" height="1" fill="#ffb222"/>
  <rect x="25" y="16" width="1" height="1" fill="#fbb413a6"/>
  <rect x="27" y="16" width="1" height="1" fill="#f7d80041"/>
  <rect x="28" y="16" width="1" height="1" fill="#f8dc042c"/>
  <rect x="2" y="17" width="1" height="1" fill="#ee756771"/>
  <rect x="3" y="17" width="1" height="1" fill="#e87b4c5d"/>
  <rect x="4" y="17" width="1" height="1" fill="#ffac3a4b"/>
  <rect x="5" y="17" width="1" height="1" fill="#f5ae19"/>
  <rect x="6" y="17" width="1" height="1" fill="#febb24"/>
  <rect x="7" y="17" width="1" height="1" fill="#ffc22a"/>
  <rect x="8" y="17" width="1" height="1" fill="#fdc42c"/>
  <rect x="9" y="17" width="7" height="1" fill="#fdc62d"/>
  <rect x="18" y="17" width="1" height="1" fill="#ffc529"/>
  <rect x="19" y="17" width="1" height="1" fill="#ffc429"/>
  <rect x="20" y="17" width="1" height="1" fill="#ffc52c"/>
  <rect x="21" y="17" width="1" height="1" fill="#ffc12b"/>
  <rect x="22" y="17" width="1" height="1" fill="#ffbb29"/>
  <rect x="23" y="17" width="1" height="1" fill="#ffb727"/>
  <rect x="24" y="17" width="1" height="1" fill="#fdb022"/>
  <rect x="25" y="17" width="1" height="1" fill="#fdb31f4f"/>
  <rect x="1" y="18" width="1" height="1" fill="#f2716f68"/>
  <rect x="2" y="18" width="1" height="1" fill="#f17972fe"/>
  <rect x="3" y="18" width="1" height="1" fill="#e0754ab7"/>
  <rect x="5" y="18" width="1" height="1" fill="#fbad1ac4"/>
  <rect x="6" y="18" width="1" height="1" fill="#feb923"/>
  <rect x="7" y="18" width="1" height="1" fill="#febe27"/>
  <rect x="8" y="18" width="1" height="1" fill="#ffc32c"/>
  <rect x="9" y="18" width="7" height="1" fill="#fec52d"/>
  <rect x="16" y="18" width="1" height="1" fill="#fec52b"/>
  <rect x="17" y="18" width="1" height="1" fill="#ffc42b"/>
  <rect x="18" y="18" width="1" height="1" fill="#ffc32d"/>
  <rect x="19" y="18" width="1" height="1" fill="#ffc22d"/>
  <rect x="20" y="18" width="1" height="1" fill="#ffc12b"/>
  <rect x="21" y="18" width="1" height="1" fill="#ffbe27"/>
  <rect x="22" y="18" width="1" height="1" fill="#ffb920"/>
  <rect x="23" y="18" width="1" height="1" fill="#ffb61d"/>
  <rect x="24" y="18" width="1" height="1" fill="#fdb41bc7"/>
  <rect x="1" y="19" width="1" height="1" fill="#eb76790f"/>
  <rect x="2" y="19" width="1" height="1" fill="#d76e6159"/>
  <rect x="3" y="19" width="1" height="1" fill="#de7d4ea5"/>
  <rect x="4" y="19" width="1" height="1" fill="#de821b0d"/>
  <rect x="5" y="19" width="1" height="1" fill="#ffb3292e"/>
  <rect x="6" y="19" width="1" height="1" fill="#ffb61ff5"/>
  <rect x="7" y="19" width="1" height="1" fill="#fab81d"/>
  <rect x="8" y="19" width="1" height="1" fill="#ffc129"/>
  <rect x="9" y="19" width="1" height="1" fill="#fec22b"/>
  <rect x="10" y="19" width="3" height="1" fill="#ffc32c"/>
  <rect x="13" y="19" width="3" height="1" fill="#ffc42d"/>
  <rect x="16" y="19" width="2" height="1" fill="#ffc42b"/>
  <rect x="18" y="19" width="1" height="1" fill="#ffc22d"/>
  <rect x="19" y="19" width="1" height="1" fill="#ffc12d"/>
  <rect x="20" y="19" width="1" height="1" fill="#ffbf2a"/>
  <rect x="21" y="19" width="1" height="1" fill="#ffbb25"/>
  <rect x="22" y="19" width="1" height="1" fill="#ffb61e"/>
  <rect x="23" y="19" width="1" height="1" fill="#ffb121f9"/>
  <rect x="24" y="19" width="1" height="1" fill="#feaa2b33"/>
  <rect x="6" y="20" width="1" height="1" fill="#fcab154e"/>
  <rect x="7" y="20" width="1" height="1" fill="#fab212fc"/>
  <rect x="8" y="20" width="1" height="1" fill="#fbb61e"/>
  <rect x="9" y="20" width="1" height="1" fill="#ffbc28"/>
  <rect x="10" y="20" width="2" height="1" fill="#ffbe2a"/>
  <rect x="12" y="20" width="2" height="1" fill="#ffbf2b"/>
  <rect x="14" y="20" width="2" height="1" fill="#ffc02c"/>
  <rect x="16" y="20" width="1" height="1" fill="#ffc32b"/>
  <rect x="17" y="20" width="1" height="1" fill="#ffc027"/>
  <rect x="18" y="20" width="1" height="1" fill="#ffbd25"/>
  <rect x="19" y="20" width="1" height="1" fill="#ffbb24"/>
  <rect x="20" y="20" width="1" height="1" fill="#ffb822"/>
  <rect x="21" y="20" width="1" height="1" fill="#ffb623"/>
  <rect x="22" y="20" width="1" height="1" fill="#ffb021fc"/>
  <rect x="23" y="20" width="1" height="1" fill="#ffa7334e"/>
  <rect x="25" y="20" width="1" height="1" fill="#f0745284"/>
  <rect x="26" y="20" width="1" height="1" fill="#f9726939"/>
  <rect x="7" y="21" width="1" height="1" fill="#f9aa0c4f"/>
  <rect x="8" y="21" width="1" height="1" fill="#fab11af0"/>
  <rect x="9" y="21" width="1" height="1" fill="#feb724"/>
  <rect x="10" y="21" width="1" height="1" fill="#ffb926"/>
  <rect x="11" y="21" width="1" height="1" fill="#ffba28"/>
  <rect x="12" y="21" width="3" height="1" fill="#ffbb29"/>
  <rect x="15" y="21" width="1" height="1" fill="#ffbd27"/>
  <rect x="16" y="21" width="1" height="1" fill="#ffbe26"/>
  <rect x="17" y="21" width="1" height="1" fill="#ffbd20"/>
  <rect x="18" y="21" width="1" height="1" fill="#ffba19"/>
  <rect x="19" y="21" width="1" height="1" fill="#ffb818"/>
  <rect x="20" y="21" width="1" height="1" fill="#ffb219"/>
  <rect x="21" y="21" width="1" height="1" fill="#ffae1ef1"/>
  <rect x="22" y="21" width="1" height="1" fill="#ffae2951"/>
  <rect x="24" y="21" width="1" height="1" fill="#ee724c25"/>
  <rect x="25" y="21" width="1" height="1" fill="#f16a63f8"/>
  <rect x="26" y="21" width="1" height="1" fill="#f16967d7"/>
  <rect x="6" y="22" width="1" height="1" fill="#fb9c0a45"/>
  <rect x="8" y="22" width="1" height="1" fill="#f8a9171c"/>
  <rect x="9" y="22" width="1" height="1" fill="#feb4229d"/>
  <rect x="10" y="22" width="1" height="1" fill="#ffb826fa"/>
  <rect x="11" y="22" width="1" height="1" fill="#ffb928"/>
  <rect x="12" y="22" width="3" height="1" fill="#ffb725"/>
  <rect x="15" y="22" width="1" height="1" fill="#ffb723"/>
  <rect x="16" y="22" width="1" height="1" fill="#ffba20"/>
  <rect x="17" y="22" width="1" height="1" fill="#feb918"/>
  <rect x="18" y="22" width="1" height="1" fill="#feb70e"/>
  <rect x="19" y="22" width="1" height="1" fill="#feb50dfd"/>
  <rect x="20" y="22" width="1" height="1" fill="#feaf11a5"/>
  <rect x="21" y="22" width="1" height="1" fill="#fda91d1e"/>
  <rect x="24" y="22" width="1" height="1" fill="#f3745230"/>
  <rect x="25" y="22" width="1" height="1" fill="#f86e6669"/>
  <rect x="26" y="22" width="1" height="1" fill="#f86e6878"/>
  <rect x="27" y="22" width="1" height="1" fill="#ec746f34"/>
  <rect x="5" y="23" width="1" height="1" fill="#f89a0f0c"/>
  <rect x="6" y="23" width="1" height="1" fill="#f6970af0"/>
  <rect x="7" y="23" width="1" height="1" fill="#f093059c"/>
  <rect x="10" y="23" width="1" height="1" fill="#f5b63e1e"/>
  <rect x="11" y="23" width="1" height="1" fill="#fcb54778"/>
  <rect x="12" y="23" width="1" height="1" fill="#ffa842ba"/>
  <rect x="13" y="23" width="1" height="1" fill="#ffa442e4"/>
  <rect x="14" y="23" width="1" height="1" fill="#ffa640fb"/>
  <rect x="15" y="23" width="1" height="1" fill="#ffa83efc"/>
  <rect x="16" y="23" width="1" height="1" fill="#ffad3fe6"/>
  <rect x="17" y="23" width="1" height="1" fill="#feae31ba"/>
  <rect x="18" y="23" width="1" height="1" fill="#fdb11279"/>
  <rect x="19" y="23" width="1" height="1" fill="#feb00921"/>
  <rect x="20" y="23" width="1" height="1" fill="#f2a00321"/>
  <rect x="21" y="23" width="1" height="1" fill="#f29c0eb0"/>
  <rect x="5" y="24" width="1" height="1" fill="#f098146b"/>
  <rect x="6" y="24" width="1" height="1" fill="#f5950bfb"/>
  <rect x="7" y="24" width="1" height="1" fill="#f4970ac4"/>
  <rect x="8" y="24" width="1" height="1" fill="#e396083b"/>
  <rect x="19" y="24" width="1" height="1" fill="#ee9b0070"/>
  <rect x="20" y="24" width="1" height="1" fill="#ee9a02f6"/>
  <rect x="21" y="24" width="1" height="1" fill="#f09809"/>
  <rect x="5" y="25" width="1" height="1" fill="#e599212c"/>
  <rect x="6" y="25" width="1" height="1" fill="#eb991a0c"/>
  <rect x="13" y="25" width="1" height="1" fill="#e62446c1"/>
  <rect x="14" y="25" width="1" height="1" fill="#e0243a"/>
  <rect x="15" y="25" width="1" height="1" fill="#d0293dbf"/>
  <rect x="19" y="25" width="1" height="1" fill="#f099050c"/>
  <rect x="20" y="25" width="1" height="1" fill="#f0980766"/>
  <rect x="21" y="25" width="1" height="1" fill="#f09807cf"/>
  <rect x="13" y="26" width="1" height="1" fill="#e7233c41"/>
  <rect x="14" y="26" width="1" height="1" fill="#e32332"/>
  <rect x="15" y="26" width="1" height="1" fill="#d227363e"/>
  <rect x="14" y="27" width="1" height="1" fill="#e2212c80"/>
</svg>