<svg xmlns="http://www.w3.org/2000/svg" width="16" height="16" viewBox="0 0 16 16" shape-rendering="crispEdges">
  <rect x="5" y="2" width="1" height="1" fill="#8585854f"/>
  <rect x="6" y="2" width="2" height="1" fill="#858585"/>
  <rect x="8" y="2" width="1" height="1" fill="#8585858f"/>
  <rect x="6" y="3" width="1" height="1" fill="#8585855f"/>
  <rect x="7" y="3" width="2" height="1" fill="#858585"/>
  <rect x="9" y="3" width="1" height="1" fill="#8585858f"/>
  <rect x="2" y="4" width="1" height="1" fill="#8585851f"/>
  <rect x="3" y="4" width="1" height="1" fill="#8585852f"/>
  <rect x="7" y="4" width="1" height="1" fill="#858585bf"/>
  <rect x="8" y="4" width="2" height="1" fill="#858585"/>
  <rect x="10" y="4" width="1" height="1" fill="#8585851f"/>
  <rect x="2" y="5" width="1" height="1" fill="#8585853f"/>
  <rect x="3" y="5" width="1" height="1" fill="#858585ef"/>
  <rect x="4" y="5" width="1" height="1" fill="#8585852f"/>
  <rect x="7" y="5" width="3" height="2" fill="#858585"/>
  <rect x="10" y="5" width="1" height="1" fill="#8585853f"/>
  <rect x="2" y="6" width="1" height="1" fill="#8585852f"/>
  <rect x="3" y="6" width="1" height="1" fill="#858585"/>
  <rect x="4" y="6" width="1" height="1" fill="#858585ef"/>
  <rect x="5" y="6" width="1" height="1" fill="#858585af"/>
  <rect x="6" y="6" width="1" height="1" fill="#858585df"/>
  <rect x="10" y="6" width="1" height="1" fill="#85858531"/>
  <rect x="3" y="7" width="1" height="1" fill="#858585bf"/>
  <rect x="4" y="7" width="6" height="1" fill="#858585"/>
  <rect x="10" y="7" width="1" height="1" fill="#858585f1"/>
  <rect x="11" y="7" width="1" height="1" fill="#8585851d"/>
  <rect x="3" y="8" width="1" height="1" fill="#8585850f"/>
  <rect x="4" y="8" width="1" height="1" fill="#858585cf"/>
  <rect x="5" y="8" width="6" height="1" fill="#858585"/>
  <rect x="11" y="8" width="1" height="1" fill="#858585f6"/>
  <rect x="12" y="8" width="1" height="1" fill="#8585851d"/>
  <rect x="5" y="9" width="2" height="1" fill="#8585853f"/>
  <rect x="7" y="9" width="1" height="1" fill="#858585a3"/>
  <rect x="8" y="9" width="4" height="1" fill="#858585"/>
  <rect x="12" y="9" width="1" height="1" fill="#858585f6"/>
  <rect x="13" y="9" width="1" height="1" fill="#8585851b"/>
  <rect x="8" y="10" width="1" height="1" fill="#858585c3"/>
  <rect x="9" y="10" width="4" height="1" fill="#858585"/>
  <rect x="13" y="10" width="1" height="1" fill="#858585d4"/>
  <rect x="9" y="11" width="1" height="1" fill="#858585b9"/>
  <rect x="10" y="11" width="4" height="1" fill="#858585"/>
  <rect x="14" y="11" width="1" height="1" fill="#8585852f"/>
  <rect x="10" y="12" width="1" height="1" fill="#85858594"/>
  <rect x="11" y="12" width="3" height="1" fill="#858585"/>
  <rect x="14" y="12" width="1" height="1" fill="#8585851f"/>
  <rect x="11" y="13" width="1" height="1" fill="#8585853f"/>
  <rect x="12" y="13" width="1" height="1" fill="#8585857f"/>
  <rect x="13" y="13" width="1" height="1" fill="#8585853f"/>
</svg>