<svg xmlns="http://www.w3.org/2000/svg" width="23" height="22" viewBox="0 0 23 22" shape-rendering="crispEdges">
  <rect x="7" y="6" width="1" height="1" fill="#8494a1"/>
  <rect x="8" y="6" width="1" height="1" fill="#758fa4"/>
  <rect x="9" y="6" width="1" height="1" fill="#82a0b8"/>
  <rect x="10" y="6" width="1" height="1" fill="#7d9bb3"/>
  <rect x="11" y="6" width="1" height="1" fill="#7796ad"/>
  <rect x="12" y="6" width="1" height="1" fill="#7b99b1ef"/>
  <rect x="13" y="6" width="1" height="1" fill="#7b99b1be"/>
  <rect x="14" y="6" width="1" height="1" fill="#819fb72b"/>
  <rect x="7" y="7" width="1" height="1" fill="#8295a12b"/>
  <rect x="8" y="7" width="1" height="1" fill="#7595ae"/>
  <rect x="9" y="7" width="1" height="1" fill="#7197b8"/>
  <rect x="10" y="7" width="1" height="1" fill="#7599b8"/>
  <rect x="11" y="7" width="1" height="1" fill="#e1ffff"/>
  <rect x="12" y="7" width="1" height="1" fill="#a9cfed"/>
  <rect x="13" y="7" width="1" height="1" fill="#6f93b2"/>
  <rect x="14" y="7" width="1" height="1" fill="#87a9c6f0"/>
  <rect x="15" y="7" width="1" height="1" fill="#e7ffff2b"/>
  <rect x="8" y="8" width="1" height="1" fill="#7c9cb5"/>
  <rect x="9" y="8" width="1" height="1" fill="#6a8eaf"/>
  <rect x="10" y="8" width="1" height="1" fill="#7893ae"/>
  <rect x="11" y="8" width="1" height="1" fill="#e9ffff"/>
  <rect x="13" y="8" width="1" height="1" fill="#7896b3"/>
  <rect x="14" y="8" width="1" height="1" fill="#8399af"/>
  <rect x="15" y="8" width="1" height="1" fill="#edfaffc6"/>
  <rect x="8" y="9" width="1" height="1" fill="#6b8ba5"/>
  <rect x="9" y="9" width="1" height="1" fill="#6586a8"/>
  <rect x="10" y="9" width="1" height="1" fill="#7a91ab"/>
  <rect x="11" y="9" width="1" height="1" fill="#e5faff"/>
  <rect x="12" y="9" width="1" height="1" fill="#728dab74"/>
  <rect x="13" y="9" width="1" height="1" fill="#728ba7"/>
  <rect x="14" y="9" width="1" height="1" fill="#a0afc3"/>
  <rect x="15" y="9" width="1" height="1" fill="#f9fffff1"/>
  <rect x="8" y="10" width="1" height="1" fill="#6989a3"/>
  <rect x="9" y="10" width="1" height="1" fill="#6788ab"/>
  <rect x="10" y="10" width="1" height="1" fill="#6f86a1"/>
  <rect x="11" y="10" width="1" height="1" fill="#71869f"/>
  <rect x="12" y="10" width="1" height="1" fill="#738eac"/>
  <rect x="13" y="10" width="1" height="1" fill="#8ea7c3c8"/>
  <rect x="14" y="10" width="1" height="1" fill="#e7f6ff"/>
  <rect x="15" y="10" width="1" height="1" fill="#f6fdffb5"/>
  <rect x="8" y="11" width="1" height="1" fill="#6886a2"/>
  <rect x="9" y="11" width="1" height="1" fill="#6384a6"/>
  <rect x="10" y="11" width="1" height="1" fill="#6b829c"/>
  <rect x="11" y="11" width="1" height="1" fill="#e4f9ff"/>
  <rect x="12" y="11" width="1" height="1" fill="#b2cdeb"/>
  <rect x="13" y="11" width="1" height="1" fill="#728ba7"/>
  <rect x="14" y="11" width="1" height="1" fill="#c2d1e5be"/>
  <rect x="15" y="11" width="1" height="1" fill="#faffff0a"/>
  <rect x="8" y="12" width="1" height="1" fill="#63819e"/>
  <rect x="9" y="12" width="1" height="1" fill="#5e7fa1"/>
  <rect x="10" y="12" width="1" height="1" fill="#6c839d"/>
  <rect x="11" y="12" width="1" height="1" fill="#e3f8ff"/>
  <rect x="12" y="12" width="1" height="1" fill="#e4ffff15"/>
  <rect x="13" y="12" width="1" height="1" fill="#718aa6e8"/>
  <rect x="14" y="12" width="1" height="1" fill="#8491a5fe"/>
  <rect x="15" y="12" width="1" height="1" fill="#fbffff58"/>
  <rect x="8" y="13" width="1" height="1" fill="#597695"/>
  <rect x="9" y="13" width="1" height="1" fill="#5c7d9f"/>
  <rect x="10" y="13" width="1" height="2" fill="#667d97"/>
  <rect x="11" y="13" width="1" height="1" fill="#f2ffff"/>
  <rect x="13" y="13" width="1" height="1" fill="#69829ec8"/>
  <rect x="14" y="13" width="1" height="1" fill="#717e93fd"/>
  <rect x="15" y="13" width="1" height="1" fill="#f7fbffde"/>
  <rect x="7" y="14" width="1" height="1" fill="#69738436"/>
  <rect x="8" y="14" width="1" height="1" fill="#5f7c9b"/>
  <rect x="9" y="14" width="1" height="1" fill="#527396"/>
  <rect x="11" y="14" width="1" height="1" fill="#ebffff"/>
  <rect x="12" y="14" width="1" height="1" fill="#607b9958"/>
  <rect x="13" y="14" width="1" height="1" fill="#5d7692fb"/>
  <rect x="14" y="14" width="1" height="1" fill="#8e98aeee"/>
  <rect x="15" y="14" width="1" height="1" fill="#fffffff0"/>
  <rect x="7" y="15" width="1" height="1" fill="#6c7380"/>
  <rect x="8" y="15" width="1" height="1" fill="#62778d"/>
  <rect x="9" y="15" width="1" height="1" fill="#5d7790"/>
  <rect x="10" y="15" width="1" height="1" fill="#5f7084"/>
  <rect x="11" y="15" width="1" height="1" fill="#6c7c8d"/>
  <rect x="12" y="15" width="1" height="1" fill="#5c7286eb"/>
  <rect x="13" y="15" width="1" height="1" fill="#7c8da3c5"/>
  <rect x="14" y="15" width="1" height="1" fill="#e8f1fffb"/>
  <rect x="15" y="15" width="1" height="1" fill="#f8fbffb1"/>
  <rect x="8" y="16" width="1" height="1" fill="#faffff"/>
  <rect x="9" y="16" width="1" height="1" fill="#f9ffff"/>
  <rect x="10" y="16" width="2" height="1" fill="#fcffff"/>
  <rect x="12" y="16" width="1" height="1" fill="#faffff"/>
  <rect x="13" y="16" width="1" height="1" fill="#faffffea"/>
  <rect x="14" y="16" width="1" height="1" fill="#fcffffa7"/>
  <rect x="15" y="16" width="1" height="1" fill="#fcffff16"/>
</svg>