<svg xmlns="http://www.w3.org/2000/svg" width="12" height="11" viewBox="0 0 12 11" shape-rendering="crispEdges">
  <rect x="8" y="0" width="1" height="1" fill="#6e7c7c9f"/>
  <rect x="9" y="0" width="1" height="1" fill="#6e7c7c0a"/>
  <rect x="8" y="1" width="1" height="1" fill="#6e7c7c"/>
  <rect x="9" y="1" width="1" height="1" fill="#6e7c7cd3"/>
  <rect x="10" y="1" width="1" height="1" fill="#6d7d7c2b"/>
  <rect x="2" y="2" width="1" height="1" fill="#707b7c81"/>
  <rect x="3" y="2" width="1" height="1" fill="#707b7cdc"/>
  <rect x="4" y="2" width="1" height="1" fill="#707b7cfc"/>
  <rect x="5" y="2" width="1" height="1" fill="#707b7c"/>
  <rect x="6" y="2" width="4" height="2" fill="#6e7c7c"/>
  <rect x="10" y="2" width="1" height="2" fill="#6d7d7cf5"/>
  <rect x="11" y="2" width="1" height="2" fill="#6d7d7c60"/>
  <rect x="0" y="3" width="1" height="1" fill="#707b7c0a"/>
  <rect x="1" y="3" width="1" height="1" fill="#707b7cc5"/>
  <rect x="2" y="3" width="4" height="1" fill="#707b7c"/>
  <rect x="0" y="4" width="1" height="1" fill="#707b7c82"/>
  <rect x="1" y="4" width="1" height="2" fill="#707b7c"/>
  <rect x="2" y="4" width="1" height="1" fill="#707b7cdd"/>
  <rect x="3" y="4" width="1" height="1" fill="#707b7c42"/>
  <rect x="8" y="4" width="1" height="1" fill="#6e7c7c"/>
  <rect x="9" y="4" width="1" height="1" fill="#6e7c7cd6"/>
  <rect x="10" y="4" width="1" height="1" fill="#6d7d7c2c"/>
  <rect x="0" y="5" width="1" height="1" fill="#707b7cdc"/>
  <rect x="2" y="5" width="1" height="1" fill="#707b7c3c"/>
  <rect x="8" y="5" width="1" height="1" fill="#6e7c7c9f"/>
  <rect x="9" y="5" width="1" height="1" fill="#6e7c7c0a"/>
  <rect x="0" y="6" width="1" height="1" fill="#6e7c7cf9"/>
  <rect x="1" y="6" width="1" height="1" fill="#6e7c7cfe"/>
  <rect x="0" y="7" width="1" height="1" fill="#6e7c7cdc"/>
  <rect x="1" y="7" width="1" height="2" fill="#6e7c7c"/>
  <rect x="2" y="7" width="1" height="1" fill="#6e7c7c3c"/>
  <rect x="0" y="8" width="1" height="1" fill="#6e7c7c83"/>
  <rect x="2" y="8" width="1" height="1" fill="#6e7c7cdc"/>
  <rect x="3" y="8" width="1" height="1" fill="#6e7c7c40"/>
  <rect x="0" y="9" width="1" height="1" fill="#6e7c7c0a"/>
  <rect x="1" y="9" width="1" height="1" fill="#6e7c7cc5"/>
  <rect x="2" y="9" width="9" height="1" fill="#6e7c7c"/>
  <rect x="11" y="9" width="1" height="2" fill="#6e7c7cb4"/>
  <rect x="2" y="10" width="1" height="1" fill="#6d7d7c81"/>
  <rect x="3" y="10" width="1" height="1" fill="#6d7d7cdc"/>
  <rect x="4" y="10" width="1" height="1" fill="#6e7c7cfc"/>
  <rect x="5" y="10" width="6" height="1" fill="#6e7c7c"/>
</svg>