<svg xmlns="http://www.w3.org/2000/svg" width="32" height="16" viewBox="0 0 32 16" shape-rendering="crispEdges">
  <rect x="5" y="1" width="1" height="1" fill="#8585858a"/>
  <rect x="6" y="1" width="1" height="1" fill="#858585cd"/>
  <rect x="7" y="1" width="1" height="1" fill="#858585"/>
  <rect x="8" y="1" width="1" height="1" fill="#858585fc"/>
  <rect x="9" y="1" width="1" height="1" fill="#858585cd"/>
  <rect x="10" y="1" width="1" height="1" fill="#8585858a"/>
  <rect x="23" y="1" width="1" height="1" fill="#8585858a"/>
  <rect x="24" y="1" width="1" height="1" fill="#858585cd"/>
  <rect x="25" y="1" width="1" height="1" fill="#858585"/>
  <rect x="26" y="1" width="1" height="1" fill="#85858597"/>
  <rect x="27" y="1" width="1" height="1" fill="#85858533"/>
  <rect x="4" y="2" width="1" height="1" fill="#858585c2"/>
  <rect x="5" y="2" width="6" height="1" fill="#858585"/>
  <rect x="11" y="2" width="1" height="1" fill="#858585c2"/>
  <rect x="22" y="2" width="1" height="1" fill="#858585c2"/>
  <rect x="23" y="2" width="5" height="1" fill="#858585"/>
  <rect x="28" y="2" width="1" height="1" fill="#8585857d"/>
  <rect x="3" y="3" width="1" height="1" fill="#85858593"/>
  <rect x="4" y="3" width="1" height="3" fill="#858585"/>
  <rect x="5" y="3" width="1" height="1" fill="#858585f9"/>
  <rect x="6" y="3" width="1" height="1" fill="#858585cf"/>
  <rect x="9" y="3" width="1" height="1" fill="#858585cf"/>
  <rect x="10" y="3" width="1" height="1" fill="#858585f9"/>
  <rect x="11" y="3" width="1" height="3" fill="#858585"/>
  <rect x="12" y="3" width="1" height="1" fill="#85858598"/>
  <rect x="21" y="3" width="1" height="1" fill="#85858593"/>
  <rect x="22" y="3" width="1" height="3" fill="#858585"/>
  <rect x="23" y="3" width="1" height="1" fill="#858585f9"/>
  <rect x="24" y="3" width="1" height="1" fill="#858585cf"/>
  <rect x="25" y="3" width="1" height="1" fill="#85858533"/>
  <rect x="26" y="3" width="1" height="1" fill="#858585c4"/>
  <rect x="27" y="3" width="1" height="1" fill="#85858597"/>
  <rect x="28" y="3" width="1" height="1" fill="#858585"/>
  <rect x="29" y="3" width="1" height="1" fill="#85858597"/>
  <rect x="3" y="4" width="1" height="1" fill="#858585e1"/>
  <rect x="5" y="4" width="1" height="1" fill="#858585c4"/>
  <rect x="10" y="4" width="1" height="1" fill="#858585c1"/>
  <rect x="12" y="4" width="1" height="1" fill="#858585e4"/>
  <rect x="21" y="4" width="1" height="1" fill="#858585e1"/>
  <rect x="23" y="4" width="1" height="1" fill="#858585c4"/>
  <rect x="24" y="4" width="1" height="1" fill="#85858543"/>
  <rect x="27" y="4" width="1" height="1" fill="#8585855c"/>
  <rect x="28" y="4" width="1" height="1" fill="#858585e9"/>
  <rect x="29" y="4" width="1" height="1" fill="#8585855c"/>
  <rect x="3" y="5" width="1" height="1" fill="#858585fe"/>
  <rect x="12" y="5" width="1" height="1" fill="#858585fe"/>
  <rect x="21" y="5" width="1" height="1" fill="#858585fe"/>
  <rect x="23" y="5" width="1" height="1" fill="#85858542"/>
  <rect x="3" y="6" width="2" height="1" fill="#858585"/>
  <rect x="11" y="6" width="2" height="1" fill="#858585"/>
  <rect x="21" y="6" width="2" height="1" fill="#858585"/>
  <rect x="2" y="7" width="1" height="1" fill="#858585cc"/>
  <rect x="3" y="7" width="10" height="1" fill="#858585"/>
  <rect x="13" y="7" width="1" height="1" fill="#858585cc"/>
  <rect x="18" y="7" width="1" height="1" fill="#858585cc"/>
  <rect x="19" y="7" width="10" height="1" fill="#858585"/>
  <rect x="29" y="7" width="1" height="1" fill="#858585cc"/>
  <rect x="2" y="8" width="12" height="1" fill="#858585"/>
  <rect x="18" y="8" width="12" height="6" fill="#858585"/>
  <rect x="2" y="9" width="5" height="1" fill="#858585"/>
  <rect x="7" y="9" width="1" height="1" fill="#858585ea"/>
  <rect x="8" y="9" width="1" height="1" fill="#858585d2"/>
  <rect x="9" y="9" width="5" height="1" fill="#858585"/>
  <rect x="2" y="10" width="4" height="2" fill="#858585"/>
  <rect x="6" y="10" width="1" height="1" fill="#858585f3"/>
  <rect x="9" y="10" width="1" height="1" fill="#858585ba"/>
  <rect x="10" y="10" width="4" height="2" fill="#858585"/>
  <rect x="6" y="11" width="1" height="1" fill="#858585f6"/>
  <rect x="9" y="11" width="1" height="1" fill="#858585c9"/>
  <rect x="2" y="12" width="5" height="1" fill="#858585"/>
  <rect x="7" y="12" width="1" height="1" fill="#858585fc"/>
  <rect x="8" y="12" width="1" height="1" fill="#858585ed"/>
  <rect x="9" y="12" width="5" height="1" fill="#858585"/>
  <rect x="2" y="13" width="12" height="1" fill="#858585"/>
  <rect x="2" y="14" width="1" height="1" fill="#858585f0"/>
  <rect x="3" y="14" width="10" height="1" fill="#858585"/>
  <rect x="13" y="14" width="1" height="1" fill="#858585f0"/>
  <rect x="18" y="14" width="1" height="1" fill="#858585f0"/>
  <rect x="19" y="14" width="10" height="1" fill="#858585"/>
  <rect x="29" y="14" width="1" height="1" fill="#858585f0"/>
</svg>