<svg xmlns="http://www.w3.org/2000/svg" width="88" height="11" viewBox="0 0 88 11" shape-rendering="crispEdges">
  <rect x="0" y="0" width="1" height="1" fill="#5c93d9"/>
  <rect x="1" y="0" width="1" height="1" fill="#5f90c4"/>
  <rect x="7" y="0" width="1" height="1" fill="#6790c9"/>
  <rect x="16" y="0" width="1" height="1" fill="#5aa0da"/>
  <rect x="27" y="0" width="1" height="1" fill="#559ada"/>
  <rect x="36" y="0" width="1" height="1" fill="#6c94d4"/>
  <rect x="42" y="0" width="1" height="1" fill="#638cc0"/>
  <rect x="43" y="0" width="1" height="2" fill="#608ebe"/>
  <rect x="44" y="0" width="1" height="2" fill="#859ab0cc"/>
  <rect x="45" y="0" width="1" height="1" fill="#93999bcc"/>
  <rect x="51" y="0" width="1" height="1" fill="#a09e9ecc"/>
  <rect x="60" y="0" width="1" height="1" fill="#9c9c9ccc"/>
  <rect x="71" y="0" width="1" height="1" fill="#9c9c9ccc"/>
  <rect x="80" y="0" width="1" height="1" fill="#9b9b9bcc"/>
  <rect x="86" y="0" width="1" height="1" fill="#999999cc"/>
  <rect x="87" y="0" width="1" height="1" fill="#979797cc"/>
  <rect x="0" y="1" width="1" height="1" fill="#5994dd"/>
  <rect x="1" y="1" width="1" height="1" fill="#5e90c6"/>
  <rect x="6" y="1" width="1" height="1" fill="#5f8fc6"/>
  <rect x="7" y="1" width="1" height="1" fill="#6691cb"/>
  <rect x="15" y="1" width="1" height="1" fill="#4d91ce"/>
  <rect x="16" y="1" width="1" height="1" fill="#529ad6"/>
  <rect x="27" y="1" width="1" height="1" fill="#5396d6"/>
  <rect x="28" y="1" width="1" height="1" fill="#4d90d0"/>
  <rect x="36" y="1" width="1" height="1" fill="#6390d5"/>
  <rect x="37" y="1" width="1" height="1" fill="#5e8dca"/>
  <rect x="42" y="1" width="1" height="1" fill="#618dc0"/>
  <rect x="45" y="1" width="1" height="1" fill="#93999dcc"/>
  <rect x="50" y="1" width="1" height="1" fill="#9a9899cc"/>
  <rect x="51" y="1" width="1" height="1" fill="#949293cc"/>
  <rect x="59" y="1" width="1" height="1" fill="#939695cc"/>
  <rect x="60" y="1" width="1" height="1" fill="#979797cc"/>
  <rect x="71" y="1" width="1" height="1" fill="#979797cc"/>
  <rect x="72" y="1" width="1" height="1" fill="#949494cc"/>
  <rect x="80" y="1" width="1" height="1" fill="#9a9a9acc"/>
  <rect x="81" y="1" width="1" height="1" fill="#949494cc"/>
  <rect x="86" y="1" width="2" height="1" fill="#999999cc"/>
  <rect x="0" y="2" width="1" height="1" fill="#5196e7"/>
  <rect x="1" y="2" width="1" height="1" fill="#5c90cc"/>
  <rect x="5" y="2" width="1" height="1" fill="#568fb7"/>
  <rect x="6" y="2" width="1" height="1" fill="#5f8fc8"/>
  <rect x="7" y="2" width="1" height="1" fill="#6491cf"/>
  <rect x="14" y="2" width="1" height="1" fill="#4d8ad3"/>
  <rect x="15" y="2" width="1" height="1" fill="#4a90da"/>
  <rect x="16" y="2" width="1" height="1" fill="#4992d6"/>
  <rect x="27" y="2" width="1" height="1" fill="#5091d1"/>
  <rect x="28" y="2" width="1" height="1" fill="#4f90d0"/>
  <rect x="29" y="2" width="1" height="1" fill="#528fcc"/>
  <rect x="36" y="2" width="1" height="1" fill="#538ddb"/>
  <rect x="37" y="2" width="1" height="1" fill="#548cd6"/>
  <rect x="38" y="2" width="1" height="1" fill="#5e87c0"/>
  <rect x="42" y="2" width="2" height="1" fill="#5e8fbe"/>
  <rect x="44" y="2" width="1" height="1" fill="#859ab2cc"/>
  <rect x="45" y="2" width="1" height="1" fill="#9397a3cc"/>
  <rect x="49" y="2" width="1" height="1" fill="#999797cc"/>
  <rect x="50" y="2" width="1" height="1" fill="#929090cc"/>
  <rect x="51" y="2" width="1" height="1" fill="#918e8fcc"/>
  <rect x="58" y="2" width="1" height="1" fill="#959796cc"/>
  <rect x="59" y="2" width="1" height="1" fill="#929594cc"/>
  <rect x="60" y="2" width="1" height="1" fill="#929292cc"/>
  <rect x="71" y="2" width="1" height="1" fill="#929292cc"/>
  <rect x="72" y="2" width="1" height="1" fill="#959595cc"/>
  <rect x="73" y="2" width="1" height="1" fill="#949494cc"/>
  <rect x="80" y="2" width="1" height="1" fill="#949494cc"/>
  <rect x="81" y="2" width="1" height="1" fill="#939393cc"/>
  <rect x="82" y="2" width="1" height="1" fill="#929292cc"/>
  <rect x="86" y="2" width="2" height="1" fill="#969696cc"/>
  <rect x="0" y="3" width="1" height="1" fill="#5195e9"/>
  <rect x="1" y="3" width="1" height="1" fill="#588dcd"/>
  <rect x="4" y="3" width="1" height="1" fill="#548bb3"/>
  <rect x="5" y="3" width="1" height="1" fill="#4e8ec4"/>
  <rect x="6" y="3" width="1" height="1" fill="#5b8dc9"/>
  <rect x="7" y="3" width="1" height="1" fill="#6391d3"/>
  <rect x="8" y="3" width="1" height="1" fill="#4f86cc"/>
  <rect x="9" y="3" width="2" height="1" fill="#4e86ce"/>
  <rect x="13" y="3" width="1" height="1" fill="#4b85d1"/>
  <rect x="14" y="3" width="1" height="1" fill="#4d89d7"/>
  <rect x="15" y="3" width="1" height="1" fill="#4a8bd7"/>
  <rect x="16" y="3" width="1" height="1" fill="#458cd2"/>
  <rect x="17" y="3" width="1" height="1" fill="#478ed1"/>
  <rect x="18" y="3" width="1" height="1" fill="#498ed0"/>
  <rect x="19" y="3" width="1" height="1" fill="#4b8ece"/>
  <rect x="20" y="3" width="1" height="1" fill="#4f90ce"/>
  <rect x="21" y="3" width="1" height="1" fill="#5091cf"/>
  <rect x="22" y="3" width="2" height="1" fill="#4e91d1"/>
  <rect x="24" y="3" width="1" height="1" fill="#4f90d0"/>
  <rect x="25" y="3" width="1" height="1" fill="#4a88c9"/>
  <rect x="26" y="3" width="1" height="1" fill="#4a86c8"/>
  <rect x="27" y="3" width="1" height="1" fill="#508cce"/>
  <rect x="28" y="3" width="1" height="1" fill="#4d89cc"/>
  <rect x="29" y="3" width="1" height="1" fill="#528ed0"/>
  <rect x="30" y="3" width="1" height="1" fill="#518fd0"/>
  <rect x="33" y="3" width="1" height="1" fill="#4f85d0"/>
  <rect x="34" y="3" width="1" height="1" fill="#5186d2"/>
  <rect x="35" y="3" width="1" height="1" fill="#5088d5"/>
  <rect x="36" y="3" width="2" height="1" fill="#508ad8"/>
  <rect x="38" y="3" width="1" height="1" fill="#588cd5"/>
  <rect x="39" y="3" width="1" height="1" fill="#5e8bc9"/>
  <rect x="42" y="3" width="1" height="1" fill="#5b90c4"/>
  <rect x="43" y="3" width="1" height="1" fill="#5e8fbe"/>
  <rect x="44" y="3" width="1" height="1" fill="#859ab0cc"/>
  <rect x="45" y="3" width="1" height="1" fill="#9398a1cc"/>
  <rect x="48" y="3" width="1" height="1" fill="#929194cc"/>
  <rect x="49" y="3" width="1" height="1" fill="#918e8fcc"/>
  <rect x="50" y="3" width="1" height="1" fill="#949293cc"/>
  <rect x="51" y="3" width="3" height="1" fill="#908d8ecc"/>
  <rect x="54" y="3" width="1" height="1" fill="#8e8e8ecc"/>
  <rect x="57" y="3" width="1" height="1" fill="#939393cc"/>
  <rect x="58" y="3" width="1" height="1" fill="#8e908fcc"/>
  <rect x="59" y="3" width="1" height="1" fill="#909292cc"/>
  <rect x="60" y="3" width="1" height="1" fill="#8d8d8dcc"/>
  <rect x="61" y="3" width="1" height="1" fill="#8f8f8fcc"/>
  <rect x="62" y="3" width="2" height="1" fill="#909090cc"/>
  <rect x="64" y="3" width="2" height="1" fill="#929292cc"/>
  <rect x="66" y="3" width="2" height="1" fill="#939393cc"/>
  <rect x="68" y="3" width="2" height="1" fill="#918e8fcc"/>
  <rect x="70" y="3" width="1" height="1" fill="#8f8f8fcc"/>
  <rect x="71" y="3" width="2" height="1" fill="#8d8d8dcc"/>
  <rect x="73" y="3" width="1" height="1" fill="#959595cc"/>
  <rect x="74" y="3" width="1" height="1" fill="#939695cc"/>
  <rect x="77" y="3" width="2" height="1" fill="#8f9190cc"/>
  <rect x="79" y="3" width="1" height="1" fill="#909292cc"/>
  <rect x="80" y="3" width="2" height="1" fill="#929292cc"/>
  <rect x="82" y="3" width="1" height="1" fill="#909090cc"/>
  <rect x="83" y="3" width="1" height="1" fill="#929292cc"/>
  <rect x="86" y="3" width="1" height="1" fill="#959595cc"/>
  <rect x="87" y="3" width="1" height="1" fill="#949494cc"/>
  <rect x="0" y="4" width="1" height="1" fill="#4987d7"/>
  <rect x="1" y="4" width="1" height="1" fill="#5289cd"/>
  <rect x="3" y="4" width="1" height="1" fill="#5e85ae"/>
  <rect x="4" y="4" width="1" height="1" fill="#5188bc"/>
  <rect x="5" y="4" width="1" height="1" fill="#4f89c8"/>
  <rect x="6" y="4" width="1" height="1" fill="#5388cb"/>
  <rect x="7" y="4" width="1" height="1" fill="#5385ca"/>
  <rect x="8" y="4" width="1" height="1" fill="#4f86ce"/>
  <rect x="9" y="4" width="2" height="1" fill="#4c87d0"/>
  <rect x="12" y="4" width="1" height="1" fill="#4d85cf"/>
  <rect x="13" y="4" width="1" height="1" fill="#4e84cd"/>
  <rect x="14" y="4" width="1" height="1" fill="#5186ca"/>
  <rect x="15" y="4" width="1" height="1" fill="#5085c7"/>
  <rect x="16" y="4" width="1" height="1" fill="#4c85c6"/>
  <rect x="17" y="4" width="1" height="1" fill="#4b89ca"/>
  <rect x="18" y="4" width="1" height="1" fill="#4a8ace"/>
  <rect x="19" y="4" width="1" height="1" fill="#478ace"/>
  <rect x="20" y="4" width="2" height="1" fill="#4589cf"/>
  <rect x="22" y="4" width="1" height="1" fill="#4689cd"/>
  <rect x="23" y="4" width="1" height="1" fill="#4888cb"/>
  <rect x="24" y="4" width="1" height="1" fill="#4e87ca"/>
  <rect x="25" y="4" width="1" height="1" fill="#4f87c8"/>
  <rect x="26" y="4" width="1" height="1" fill="#4f86ca"/>
  <rect x="27" y="4" width="2" height="1" fill="#4e87ca"/>
  <rect x="29" y="4" width="1" height="1" fill="#4f86ca"/>
  <rect x="30" y="4" width="1" height="1" fill="#4f87c8"/>
  <rect x="31" y="4" width="1" height="1" fill="#4f86ca"/>
  <rect x="33" y="4" width="1" height="1" fill="#4e84cf"/>
  <rect x="34" y="4" width="1" height="1" fill="#5187d0"/>
  <rect x="35" y="4" width="1" height="1" fill="#5286d0"/>
  <rect x="36" y="4" width="1" height="1" fill="#5486ce"/>
  <rect x="37" y="4" width="1" height="1" fill="#5587cf"/>
  <rect x="38" y="4" width="1" height="1" fill="#548ad5"/>
  <rect x="39" y="4" width="1" height="1" fill="#5789d1"/>
  <rect x="40" y="4" width="1" height="1" fill="#5880c0"/>
  <rect x="42" y="4" width="1" height="1" fill="#4a84c7"/>
  <rect x="43" y="4" width="1" height="1" fill="#5a8dc0"/>
  <rect x="44" y="4" width="1" height="1" fill="#7d91a3cc"/>
  <rect x="45" y="4" width="1" height="1" fill="#8a8f8dcc"/>
  <rect x="47" y="4" width="1" height="1" fill="#878f88cc"/>
  <rect x="48" y="4" width="1" height="1" fill="#8d8d8bcc"/>
  <rect x="49" y="4" width="1" height="1" fill="#8e8c8dcc"/>
  <rect x="50" y="4" width="1" height="1" fill="#908d8ecc"/>
  <rect x="51" y="4" width="2" height="1" fill="#8e8c8dcc"/>
  <rect x="53" y="4" width="1" height="1" fill="#8d8b8ccc"/>
  <rect x="54" y="4" width="1" height="1" fill="#8c8c8ccc"/>
  <rect x="56" y="4" width="1" height="1" fill="#8d8d8dcc"/>
  <rect x="57" y="4" width="1" height="1" fill="#8e8e8ecc"/>
  <rect x="58" y="4" width="1" height="1" fill="#8a8d8ccc"/>
  <rect x="59" y="4" width="1" height="1" fill="#888a89cc"/>
  <rect x="60" y="4" width="4" height="1" fill="#8f8f8fcc"/>
  <rect x="64" y="4" width="4" height="1" fill="#8e8e8ecc"/>
  <rect x="68" y="4" width="2" height="1" fill="#908d8ecc"/>
  <rect x="70" y="4" width="2" height="1" fill="#8e8e8ecc"/>
  <rect x="72" y="4" width="2" height="1" fill="#8d8d8dcc"/>
  <rect x="74" y="4" width="2" height="1" fill="#8b8e8dcc"/>
  <rect x="77" y="4" width="1" height="1" fill="#898989cc"/>
  <rect x="78" y="4" width="1" height="1" fill="#8e8e8ecc"/>
  <rect x="79" y="4" width="1" height="1" fill="#909090cc"/>
  <rect x="80" y="4" width="4" height="1" fill="#8f8f8fcc"/>
  <rect x="84" y="4" width="1" height="1" fill="#8b8b8bcc"/>
  <rect x="86" y="4" width="2" height="1" fill="#8d8d8dcc"/>
  <rect x="0" y="5" width="1" height="1" fill="#4784cf"/>
  <rect x="1" y="5" width="1" height="1" fill="#4a83c9"/>
  <rect x="2" y="5" width="2" height="1" fill="#5182bf"/>
  <rect x="4" y="5" width="1" height="1" fill="#4a84c5"/>
  <rect x="5" y="5" width="1" height="1" fill="#4984c9"/>
  <rect x="6" y="5" width="1" height="1" fill="#4c83c9"/>
  <rect x="7" y="5" width="1" height="1" fill="#4e82c7"/>
  <rect x="8" y="5" width="1" height="1" fill="#4c83c5"/>
  <rect x="9" y="5" width="1" height="1" fill="#4a84c7"/>
  <rect x="10" y="5" width="1" height="1" fill="#4685cd"/>
  <rect x="11" y="5" width="1" height="1" fill="#4485cf"/>
  <rect x="12" y="5" width="1" height="1" fill="#4685cd"/>
  <rect x="13" y="5" width="1" height="1" fill="#4984c9"/>
  <rect x="14" y="5" width="1" height="1" fill="#4e83c3"/>
  <rect x="15" y="5" width="1" height="1" fill="#4e81c0"/>
  <rect x="16" y="5" width="1" height="1" fill="#4882c3"/>
  <rect x="17" y="5" width="1" height="1" fill="#4984c9"/>
  <rect x="18" y="5" width="1" height="1" fill="#4886cc"/>
  <rect x="19" y="5" width="1" height="1" fill="#4685cd"/>
  <rect x="20" y="5" width="2" height="1" fill="#4385cc"/>
  <rect x="22" y="5" width="1" height="1" fill="#4484cc"/>
  <rect x="23" y="5" width="1" height="1" fill="#4683ca"/>
  <rect x="24" y="5" width="1" height="1" fill="#4982c8"/>
  <rect x="25" y="5" width="1" height="1" fill="#4b82c6"/>
  <rect x="26" y="5" width="4" height="1" fill="#4c81c6"/>
  <rect x="30" y="5" width="1" height="1" fill="#4b82c6"/>
  <rect x="31" y="5" width="1" height="1" fill="#4b81c8"/>
  <rect x="32" y="5" width="1" height="1" fill="#4883c8"/>
  <rect x="33" y="5" width="1" height="1" fill="#4883ca"/>
  <rect x="34" y="5" width="1" height="1" fill="#4c83c9"/>
  <rect x="35" y="5" width="1" height="1" fill="#4f81c9"/>
  <rect x="36" y="5" width="1" height="1" fill="#5180c7"/>
  <rect x="37" y="5" width="1" height="1" fill="#4f81c7"/>
  <rect x="38" y="5" width="2" height="1" fill="#4a85cc"/>
  <rect x="40" y="5" width="1" height="1" fill="#5183cb"/>
  <rect x="41" y="5" width="1" height="1" fill="#578bd2"/>
  <rect x="42" y="5" width="1" height="1" fill="#4380c8"/>
  <rect x="43" y="5" width="1" height="1" fill="#5386bb"/>
  <rect x="44" y="5" width="1" height="1" fill="#7b8d9ecc"/>
  <rect x="45" y="5" width="1" height="1" fill="#868b87cc"/>
  <rect x="46" y="5" width="1" height="1" fill="#838d85cc"/>
  <rect x="47" y="5" width="1" height="1" fill="#838d87cc"/>
  <rect x="48" y="5" width="1" height="1" fill="#888a89cc"/>
  <rect x="49" y="5" width="4" height="1" fill="#8b8989cc"/>
  <rect x="53" y="5" width="1" height="1" fill="#8c8a8bcc"/>
  <rect x="54" y="5" width="2" height="1" fill="#8c8c8ccc"/>
  <rect x="56" y="5" width="1" height="1" fill="#8b8b8bcc"/>
  <rect x="57" y="5" width="1" height="1" fill="#898989cc"/>
  <rect x="58" y="5" width="1" height="1" fill="#888a89cc"/>
  <rect x="59" y="5" width="1" height="1" fill="#878988cc"/>
  <rect x="60" y="5" width="8" height="1" fill="#898989cc"/>
  <rect x="68" y="5" width="2" height="1" fill="#8b8989cc"/>
  <rect x="70" y="5" width="4" height="1" fill="#898989cc"/>
  <rect x="74" y="5" width="1" height="1" fill="#888a89cc"/>
  <rect x="75" y="5" width="1" height="1" fill="#878988cc"/>
  <rect x="76" y="5" width="2" height="1" fill="#888888cc"/>
  <rect x="78" y="5" width="1" height="1" fill="#8b8b8bcc"/>
  <rect x="79" y="5" width="1" height="1" fill="#8c8c8ccc"/>
  <rect x="80" y="5" width="5" height="1" fill="#8b8b8bcc"/>
  <rect x="85" y="5" width="1" height="1" fill="#898989cc"/>
  <rect x="86" y="5" width="2" height="1" fill="#888888cc"/>
  <rect x="0" y="6" width="1" height="1" fill="#447eca"/>
  <rect x="1" y="6" width="1" height="1" fill="#467ec8"/>
  <rect x="3" y="6" width="1" height="1" fill="#467ec8"/>
  <rect x="4" y="6" width="2" height="1" fill="#417fce"/>
  <rect x="6" y="6" width="1" height="1" fill="#467ec8"/>
  <rect x="7" y="6" width="1" height="1" fill="#497ec0"/>
  <rect x="8" y="6" width="1" height="1" fill="#4b7fb6"/>
  <rect x="9" y="6" width="1" height="1" fill="#4780b8"/>
  <rect x="10" y="6" width="1" height="1" fill="#3e83c4"/>
  <rect x="12" y="6" width="1" height="1" fill="#3784cc"/>
  <rect x="13" y="6" width="1" height="1" fill="#3b84c8"/>
  <rect x="14" y="6" width="1" height="1" fill="#4182c0"/>
  <rect x="15" y="6" width="1" height="1" fill="#4180bf"/>
  <rect x="16" y="6" width="1" height="1" fill="#3f7ec6"/>
  <rect x="17" y="6" width="1" height="1" fill="#4180cc"/>
  <rect x="18" y="6" width="1" height="1" fill="#4481c9"/>
  <rect x="19" y="6" width="1" height="1" fill="#4480c4"/>
  <rect x="20" y="6" width="2" height="1" fill="#457ec3"/>
  <rect x="22" y="6" width="1" height="1" fill="#437ec5"/>
  <rect x="23" y="6" width="1" height="1" fill="#437ec7"/>
  <rect x="24" y="6" width="1" height="1" fill="#417ecb"/>
  <rect x="25" y="6" width="1" height="1" fill="#437dc9"/>
  <rect x="26" y="6" width="1" height="1" fill="#487cc3"/>
  <rect x="27" y="6" width="1" height="1" fill="#497bc1"/>
  <rect x="28" y="6" width="1" height="1" fill="#4b7dc2"/>
  <rect x="29" y="6" width="1" height="1" fill="#497dc4"/>
  <rect x="30" y="6" width="1" height="1" fill="#447eca"/>
  <rect x="31" y="6" width="1" height="1" fill="#4180ca"/>
  <rect x="33" y="6" width="1" height="1" fill="#3f83c0"/>
  <rect x="34" y="6" width="1" height="1" fill="#497ec0"/>
  <rect x="35" y="6" width="1" height="1" fill="#4c7cc2"/>
  <rect x="36" y="6" width="1" height="1" fill="#467cc7"/>
  <rect x="37" y="6" width="1" height="1" fill="#437ec5"/>
  <rect x="38" y="6" width="1" height="1" fill="#3e82bf"/>
  <rect x="39" y="6" width="1" height="1" fill="#3e82bd"/>
  <rect x="40" y="6" width="1" height="1" fill="#4d8bcd"/>
  <rect x="42" y="6" width="1" height="1" fill="#3c7cc2"/>
  <rect x="43" y="6" width="1" height="1" fill="#4b7db3"/>
  <rect x="44" y="6" width="1" height="1" fill="#76889bcc"/>
  <rect x="45" y="6" width="1" height="1" fill="#828687cc"/>
  <rect x="47" y="6" width="1" height="1" fill="#7d888bcc"/>
  <rect x="48" y="6" width="1" height="1" fill="#828486cc"/>
  <rect x="49" y="6" width="3" height="1" fill="#858384cc"/>
  <rect x="52" y="6" width="1" height="1" fill="#868485cc"/>
  <rect x="53" y="6" width="1" height="1" fill="#898687cc"/>
  <rect x="54" y="6" width="1" height="1" fill="#898989cc"/>
  <rect x="56" y="6" width="2" height="1" fill="#868686cc"/>
  <rect x="58" y="6" width="1" height="1" fill="#828484cc"/>
  <rect x="59" y="6" width="1" height="1" fill="#838685cc"/>
  <rect x="60" y="6" width="8" height="1" fill="#848484cc"/>
  <rect x="68" y="6" width="2" height="1" fill="#858384cc"/>
  <rect x="70" y="6" width="2" height="1" fill="#848484cc"/>
  <rect x="72" y="6" width="2" height="1" fill="#858585cc"/>
  <rect x="74" y="6" width="1" height="1" fill="#838685cc"/>
  <rect x="75" y="6" width="1" height="1" fill="#848786cc"/>
  <rect x="77" y="6" width="1" height="1" fill="#868686cc"/>
  <rect x="78" y="6" width="1" height="1" fill="#848484cc"/>
  <rect x="79" y="6" width="1" height="1" fill="#828282cc"/>
  <rect x="80" y="6" width="4" height="1" fill="#848484cc"/>
  <rect x="84" y="6" width="1" height="1" fill="#8c8c8ccc"/>
  <rect x="86" y="6" width="1" height="1" fill="#848484cc"/>
  <rect x="87" y="6" width="1" height="1" fill="#818181cc"/>
  <rect x="0" y="7" width="1" height="1" fill="#3d7cc9"/>
  <rect x="1" y="7" width="1" height="1" fill="#427bc3"/>
  <rect x="4" y="7" width="1" height="1" fill="#3f7bc9"/>
  <rect x="5" y="7" width="1" height="1" fill="#3d7ccb"/>
  <rect x="6" y="7" width="1" height="1" fill="#4278be"/>
  <rect x="7" y="7" width="1" height="1" fill="#4877b2"/>
  <rect x="8" y="7" width="1" height="1" fill="#5076a4"/>
  <rect x="9" y="7" width="1" height="1" fill="#5077a0"/>
  <rect x="10" y="7" width="1" height="1" fill="#497ba7"/>
  <rect x="13" y="7" width="1" height="1" fill="#3b7fb8"/>
  <rect x="14" y="7" width="1" height="1" fill="#3c7dbc"/>
  <rect x="15" y="7" width="1" height="1" fill="#3b7bc0"/>
  <rect x="16" y="7" width="1" height="1" fill="#3a7bc7"/>
  <rect x="17" y="7" width="1" height="1" fill="#3f7cc5"/>
  <rect x="18" y="7" width="1" height="1" fill="#4a7bb6"/>
  <rect x="19" y="7" width="1" height="1" fill="#4f79ad"/>
  <rect x="20" y="7" width="1" height="1" fill="#4f77a9"/>
  <rect x="21" y="7" width="1" height="1" fill="#4f77ab"/>
  <rect x="22" y="7" width="1" height="1" fill="#4e77ad"/>
  <rect x="23" y="7" width="1" height="1" fill="#4b78af"/>
  <rect x="24" y="7" width="1" height="1" fill="#497ab7"/>
  <rect x="25" y="7" width="1" height="1" fill="#477abd"/>
  <rect x="26" y="7" width="1" height="1" fill="#457ac1"/>
  <rect x="27" y="7" width="1" height="1" fill="#447ac1"/>
  <rect x="28" y="7" width="1" height="1" fill="#457cc2"/>
  <rect x="29" y="7" width="1" height="1" fill="#487bbe"/>
  <rect x="30" y="7" width="1" height="1" fill="#4b7aba"/>
  <rect x="33" y="7" width="1" height="1" fill="#4b7fad"/>
  <rect x="34" y="7" width="1" height="1" fill="#5379aa"/>
  <rect x="35" y="7" width="1" height="1" fill="#5177b1"/>
  <rect x="36" y="7" width="1" height="1" fill="#4379c2"/>
  <rect x="37" y="7" width="1" height="1" fill="#387ac3"/>
  <rect x="38" y="7" width="1" height="1" fill="#357db9"/>
  <rect x="39" y="7" width="1" height="1" fill="#387db3"/>
  <rect x="42" y="7" width="1" height="1" fill="#3c78b8"/>
  <rect x="43" y="7" width="1" height="1" fill="#4777ab"/>
  <rect x="44" y="7" width="1" height="1" fill="#738595cc"/>
  <rect x="45" y="7" width="1" height="1" fill="#7e8285cc"/>
  <rect x="48" y="7" width="1" height="1" fill="#807f84cc"/>
  <rect x="49" y="7" width="4" height="1" fill="#827f80cc"/>
  <rect x="53" y="7" width="1" height="1" fill="#848282cc"/>
  <rect x="54" y="7" width="1" height="1" fill="#858585cc"/>
  <rect x="57" y="7" width="1" height="1" fill="#828282cc"/>
  <rect x="58" y="7" width="1" height="1" fill="#808281cc"/>
  <rect x="59" y="7" width="1" height="1" fill="#7e8180cc"/>
  <rect x="60" y="7" width="4" height="1" fill="#7e7e7ecc"/>
  <rect x="64" y="7" width="4" height="1" fill="#7f7f7fcc"/>
  <rect x="68" y="7" width="2" height="1" fill="#827f80cc"/>
  <rect x="70" y="7" width="2" height="1" fill="#808080cc"/>
  <rect x="72" y="7" width="2" height="1" fill="#818181cc"/>
  <rect x="74" y="7" width="1" height="1" fill="#808281cc"/>
  <rect x="77" y="7" width="1" height="1" fill="#858585cc"/>
  <rect x="78" y="7" width="1" height="1" fill="#818181cc"/>
  <rect x="79" y="7" width="1" height="1" fill="#7e7e7ecc"/>
  <rect x="80" y="7" width="4" height="1" fill="#7f7f7fcc"/>
  <rect x="86" y="7" width="1" height="1" fill="#808080cc"/>
  <rect x="87" y="7" width="1" height="1" fill="#7b7b7bcc"/>
  <rect x="0" y="8" width="1" height="1" fill="#2d73bf"/>
  <rect x="1" y="8" width="1" height="1" fill="#3a6faf"/>
  <rect x="5" y="8" width="1" height="1" fill="#3371b5"/>
  <rect x="6" y="8" width="1" height="1" fill="#3f73af"/>
  <rect x="7" y="8" width="1" height="1" fill="#4c6f9e"/>
  <rect x="14" y="8" width="1" height="1" fill="#3d75b4"/>
  <rect x="15" y="8" width="1" height="1" fill="#3473c0"/>
  <rect x="16" y="8" width="1" height="1" fill="#3370bd"/>
  <rect x="27" y="8" width="1" height="1" fill="#3173bc"/>
  <rect x="28" y="8" width="1" height="1" fill="#3375b9"/>
  <rect x="29" y="8" width="1" height="1" fill="#3f71a9"/>
  <rect x="36" y="8" width="1" height="1" fill="#3f70b1"/>
  <rect x="37" y="8" width="1" height="1" fill="#3275c3"/>
  <rect x="38" y="8" width="1" height="1" fill="#2f76bc"/>
  <rect x="42" y="8" width="1" height="1" fill="#4274aa"/>
  <rect x="43" y="8" width="1" height="1" fill="#4170a0"/>
  <rect x="44" y="8" width="1" height="1" fill="#6b7c8dcc"/>
  <rect x="45" y="8" width="1" height="1" fill="#727778cc"/>
  <rect x="49" y="8" width="3" height="1" fill="#7b7879cc"/>
  <rect x="58" y="8" width="3" height="1" fill="#797b7acc"/>
  <rect x="71" y="8" width="3" height="1" fill="#7a7a7acc"/>
  <rect x="80" y="8" width="3" height="1" fill="#797979cc"/>
  <rect x="86" y="8" width="2" height="1" fill="#7a7a7acc"/>
  <rect x="0" y="9" width="1" height="1" fill="#2d72c1"/>
  <rect x="1" y="9" width="1" height="1" fill="#3b6fab"/>
  <rect x="6" y="9" width="1" height="1" fill="#406fa8"/>
  <rect x="7" y="9" width="1" height="1" fill="#4b6c9c"/>
  <rect x="15" y="9" width="1" height="1" fill="#3b6fb4"/>
  <rect x="16" y="9" width="1" height="1" fill="#386eb9"/>
  <rect x="27" y="9" width="1" height="1" fill="#3372bc"/>
  <rect x="28" y="9" width="1" height="1" fill="#3974ad"/>
  <rect x="36" y="9" width="1" height="1" fill="#406dab"/>
  <rect x="37" y="9" width="1" height="1" fill="#3170ba"/>
  <rect x="42" y="9" width="1" height="1" fill="#436fa0"/>
  <rect x="43" y="9" width="1" height="1" fill="#3f6c9d"/>
  <rect x="44" y="9" width="1" height="2" fill="#6b7d8bcc"/>
  <rect x="45" y="9" width="1" height="1" fill="#747678cc"/>
  <rect x="50" y="9" width="2" height="1" fill="#7b7879cc"/>
  <rect x="59" y="9" width="2" height="1" fill="#787a79cc"/>
  <rect x="71" y="9" width="2" height="1" fill="#797979cc"/>
  <rect x="80" y="9" width="2" height="1" fill="#797979cc"/>
  <rect x="86" y="9" width="2" height="2" fill="#787878cc"/>
  <rect x="0" y="10" width="1" height="1" fill="#326fc3"/>
  <rect x="1" y="10" width="1" height="1" fill="#3d6ead"/>
  <rect x="7" y="10" width="1" height="1" fill="#466da6"/>
  <rect x="16" y="10" width="1" height="1" fill="#3d6daf"/>
  <rect x="27" y="10" width="1" height="1" fill="#3d6fb2"/>
  <rect x="36" y="10" width="1" height="1" fill="#426da7"/>
  <rect x="42" y="10" width="1" height="1" fill="#436d9f"/>
  <rect x="43" y="10" width="1" height="1" fill="#3e6b9b"/>
  <rect x="45" y="10" width="1" height="1" fill="#727778cc"/>
  <rect x="51" y="10" width="1" height="1" fill="#7b7879cc"/>
  <rect x="60" y="10" width="1" height="1" fill="#787a79cc"/>
  <rect x="71" y="10" width="1" height="1" fill="#777777cc"/>
  <rect x="80" y="10" width="1" height="1" fill="#797979cc"/>
</svg>