<svg xmlns="http://www.w3.org/2000/svg" width="202" height="90" viewBox="0 0 202 90" shape-rendering="crispEdges">
  <rect x="5" y="1" width="1" height="1" fill="#b6b6b612"/>
  <rect x="6" y="1" width="1" height="1" fill="#c1c1c119"/>
  <rect x="7" y="1" width="1" height="1" fill="#bdbdbd1a"/>
  <rect x="8" y="1" width="187" height="1" fill="#bfbfbf1a"/>
  <rect x="195" y="1" width="1" height="1" fill="#bfbfbf19"/>
  <rect x="196" y="1" width="1" height="1" fill="#b6b6b612"/>
  <rect x="3" y="2" width="1" height="1" fill="#dedede3f"/>
  <rect x="4" y="2" width="1" height="1" fill="#e8e8e8c9"/>
  <rect x="5" y="2" width="1" height="1" fill="#eaeaeafe"/>
  <rect x="6" y="2" width="1" height="1" fill="#e3e3e3"/>
  <rect x="7" y="2" width="1" height="1" fill="#e5e5e5"/>
  <rect x="8" y="2" width="1" height="1" fill="#e4e4e4"/>
  <rect x="9" y="2" width="187" height="1" fill="#e3e3e3"/>
  <rect x="196" y="2" width="1" height="1" fill="#dbdbdbfe"/>
  <rect x="197" y="2" width="1" height="1" fill="#e2e2e2c9"/>
  <rect x="198" y="2" width="1" height="1" fill="#d5d5d53f"/>
  <rect x="2" y="3" width="1" height="1" fill="#c6c6c63d"/>
  <rect x="3" y="3" width="1" height="1" fill="#e5e5e5f6"/>
  <rect x="4" y="3" width="1" height="1" fill="#ececec"/>
  <rect x="5" y="3" width="1" height="1" fill="#f8f8f8"/>
  <rect x="6" y="3" width="1" height="1" fill="#fefefe"/>
  <rect x="7" y="3" width="1" height="1" fill="#efefef"/>
  <rect x="8" y="3" width="189" height="1" fill="#ffffff"/>
  <rect x="197" y="3" width="1" height="1" fill="#f0f0f0"/>
  <rect x="198" y="3" width="1" height="1" fill="#e1e1e1f6"/>
  <rect x="199" y="3" width="1" height="1" fill="#c7c7c73d"/>
  <rect x="1" y="4" width="1" height="1" fill="#7777770c"/>
  <rect x="2" y="4" width="1" height="1" fill="#e1e1e1bf"/>
  <rect x="3" y="4" width="1" height="10" fill="#f6f6f6"/>
  <rect x="4" y="4" width="12" height="4" fill="#f8f8f8"/>
  <rect x="16" y="4" width="180" height="4" fill="#f9f9f9"/>
  <rect x="196" y="4" width="1" height="3" fill="#fafafa"/>
  <rect x="197" y="4" width="1" height="2" fill="#fdfdfd"/>
  <rect x="198" y="4" width="1" height="2" fill="#f3f3f3"/>
  <rect x="199" y="4" width="1" height="1" fill="#e3e3e3bf"/>
  <rect x="200" y="4" width="1" height="1" fill="#7777770c"/>
  <rect x="1" y="5" width="1" height="1" fill="#77777712"/>
  <rect x="2" y="5" width="1" height="1" fill="#e1e1e1f7"/>
  <rect x="199" y="5" width="1" height="1" fill="#e3e3e3f7"/>
  <rect x="200" y="5" width="1" height="1" fill="#77777712"/>
  <rect x="1" y="6" width="1" height="1" fill="#77777717"/>
  <rect x="2" y="6" width="1" height="10" fill="#e1e1e1"/>
  <rect x="197" y="6" width="1" height="1" fill="#fcfbfc"/>
  <rect x="198" y="6" width="1" height="2" fill="#f5f5f5"/>
  <rect x="199" y="6" width="1" height="1" fill="#e3e3e3"/>
  <rect x="200" y="6" width="1" height="1" fill="#77777717"/>
  <rect x="1" y="7" width="1" height="1" fill="#77777719"/>
  <rect x="196" y="7" width="2" height="1" fill="#fafafa"/>
  <rect x="199" y="7" width="1" height="1" fill="#e2e2e2"/>
  <rect x="200" y="7" width="1" height="1" fill="#77777719"/>
  <rect x="1" y="8" width="1" height="8" fill="#7777771a"/>
  <rect x="4" y="8" width="4" height="5" fill="#f7f7f7"/>
  <rect x="8" y="8" width="188" height="4" fill="#f8f8f8"/>
  <rect x="196" y="8" width="1" height="4" fill="#fcfbfc"/>
  <rect x="197" y="8" width="1" height="1" fill="#f8f8f8"/>
  <rect x="198" y="8" width="1" height="1" fill="#f6f6f6"/>
  <rect x="199" y="8" width="1" height="1" fill="#e1e1e1"/>
  <rect x="200" y="8" width="1" height="24" fill="#7777771a"/>
  <rect x="197" y="9" width="2" height="1" fill="#f7f7f7"/>
  <rect x="199" y="9" width="1" height="3" fill="#e0e0e0"/>
  <rect x="197" y="10" width="1" height="2" fill="#f6f6f6"/>
  <rect x="198" y="10" width="1" height="2" fill="#f8f8f8"/>
  <rect x="8" y="12" width="8" height="1" fill="#f8f8f8"/>
  <rect x="16" y="12" width="180" height="1" fill="#f7f7f7"/>
  <rect x="196" y="12" width="1" height="2" fill="#fafafa"/>
  <rect x="197" y="12" width="1" height="2" fill="#f5f5f5"/>
  <rect x="198" y="12" width="1" height="2" fill="#f7f7f7"/>
  <rect x="199" y="12" width="1" height="2" fill="#dedede"/>
  <rect x="4" y="13" width="192" height="1" fill="#f7f7f7"/>
  <rect x="3" y="14" width="5" height="1" fill="#f6f6f6"/>
  <rect x="8" y="14" width="184" height="1" fill="#f7f7f7"/>
  <rect x="192" y="14" width="4" height="4" fill="#f6f6f6"/>
  <rect x="196" y="14" width="1" height="4" fill="#f9f9f9"/>
  <rect x="197" y="14" width="1" height="4" fill="#f3f3f3"/>
  <rect x="198" y="14" width="1" height="4" fill="#f6f6f6"/>
  <rect x="199" y="14" width="1" height="4" fill="#dddddd"/>
  <rect x="3" y="15" width="13" height="1" fill="#f6f6f6"/>
  <rect x="16" y="15" width="176" height="1" fill="#f7f7f7"/>
  <rect x="1" y="16" width="1" height="8" fill="#7878781a"/>
  <rect x="2" y="16" width="1" height="3" fill="#e2e2e2"/>
  <rect x="3" y="16" width="1" height="2" fill="#f7f7f7"/>
  <rect x="4" y="16" width="12" height="1" fill="#f6f6f6"/>
  <rect x="16" y="16" width="7" height="4" fill="#f3f5f7"/>
  <rect x="23" y="16" width="2" height="1" fill="#f5f4f7"/>
  <rect x="25" y="16" width="7" height="1" fill="#f6f3f7"/>
  <rect x="32" y="16" width="160" height="4" fill="#f5f4f7"/>
  <rect x="4" y="17" width="4" height="1" fill="#f6f6f6"/>
  <rect x="8" y="17" width="8" height="1" fill="#f5f5f5"/>
  <rect x="23" y="17" width="1" height="3" fill="#f5f4f7"/>
  <rect x="24" y="17" width="8" height="3" fill="#f6f3f7"/>
  <rect x="3" y="18" width="1" height="1" fill="#f6f6f6"/>
  <rect x="4" y="18" width="12" height="1" fill="#f5f5f5"/>
  <rect x="192" y="18" width="4" height="1" fill="#f5f5f5"/>
  <rect x="196" y="18" width="1" height="1" fill="#f8f8f8"/>
  <rect x="197" y="18" width="1" height="1" fill="#f2f2f2"/>
  <rect x="198" y="18" width="1" height="1" fill="#f5f5f5"/>
  <rect x="199" y="18" width="1" height="1" fill="#dcdcdc"/>
  <rect x="2" y="19" width="1" height="1" fill="#e0e0e0"/>
  <rect x="3" y="19" width="1" height="1" fill="#f5f5f5"/>
  <rect x="4" y="19" width="12" height="1" fill="#f3f3f3"/>
  <rect x="192" y="19" width="4" height="2" fill="#f3f3f3"/>
  <rect x="196" y="19" width="1" height="2" fill="#f7f7f7"/>
  <rect x="197" y="19" width="1" height="2" fill="#f1f1f1"/>
  <rect x="198" y="19" width="1" height="2" fill="#f3f3f3"/>
  <rect x="199" y="19" width="1" height="2" fill="#dbdbdb"/>
  <rect x="2" y="20" width="1" height="1" fill="#dedede"/>
  <rect x="3" y="20" width="1" height="1" fill="#f2f2f2"/>
  <rect x="4" y="20" width="4" height="1" fill="#f3f3f3"/>
  <rect x="8" y="20" width="8" height="2" fill="#f2f2f4"/>
  <rect x="16" y="20" width="7" height="2" fill="#f1f3f4"/>
  <rect x="23" y="20" width="1" height="3" fill="#f2f2f4"/>
  <rect x="24" y="20" width="8" height="3" fill="#f4f1f4"/>
  <rect x="32" y="20" width="160" height="3" fill="#f2f2f4"/>
  <rect x="2" y="21" width="1" height="3" fill="#dddddd"/>
  <rect x="3" y="21" width="1" height="1" fill="#f1f1f1"/>
  <rect x="4" y="21" width="4" height="3" fill="#f2f2f2"/>
  <rect x="192" y="21" width="4" height="3" fill="#f2f2f2"/>
  <rect x="196" y="21" width="1" height="3" fill="#f6f6f6"/>
  <rect x="197" y="21" width="1" height="3" fill="#f0f0f0"/>
  <rect x="198" y="21" width="1" height="3" fill="#f2f2f2"/>
  <rect x="199" y="21" width="1" height="3" fill="#dadada"/>
  <rect x="3" y="22" width="1" height="1" fill="#f0f0f0"/>
  <rect x="8" y="22" width="15" height="1" fill="#f1f3f4"/>
  <rect x="3" y="23" width="1" height="2" fill="#efefef"/>
  <rect x="8" y="23" width="16" height="1" fill="#f1f3f4"/>
  <rect x="24" y="23" width="1" height="1" fill="#f2f2f4"/>
  <rect x="25" y="23" width="6" height="1" fill="#f4f1f4"/>
  <rect x="31" y="23" width="161" height="1" fill="#f2f2f4"/>
  <rect x="1" y="24" width="1" height="3" fill="#7777771a"/>
  <rect x="2" y="24" width="1" height="4" fill="#dcdcdc"/>
  <rect x="4" y="24" width="2" height="4" fill="#f1f1f3"/>
  <rect x="6" y="24" width="4" height="2" fill="#eff1f3"/>
  <rect x="10" y="24" width="2" height="2" fill="#eef2f3"/>
  <rect x="12" y="24" width="4" height="2" fill="#eef2f5"/>
  <rect x="16" y="24" width="9" height="1" fill="#eff1f3"/>
  <rect x="25" y="24" width="6" height="1" fill="#f1f1f3"/>
  <rect x="31" y="24" width="161" height="1" fill="#eff1f3"/>
  <rect x="192" y="24" width="4" height="3" fill="#f1f1f1"/>
  <rect x="196" y="24" width="1" height="3" fill="#f5f5f5"/>
  <rect x="197" y="24" width="1" height="3" fill="#efefef"/>
  <rect x="198" y="24" width="1" height="3" fill="#f1f1f1"/>
  <rect x="199" y="24" width="1" height="3" fill="#d9d9d9"/>
  <rect x="3" y="25" width="1" height="3" fill="#eeeeee"/>
  <rect x="16" y="25" width="176" height="3" fill="#eff1f3"/>
  <rect x="6" y="26" width="2" height="2" fill="#eff1f3"/>
  <rect x="8" y="26" width="3" height="1" fill="#eef2f3"/>
  <rect x="11" y="26" width="1" height="1" fill="#ecf3f3"/>
  <rect x="12" y="26" width="3" height="1" fill="#ecf3f5"/>
  <rect x="15" y="26" width="1" height="1" fill="#eef2f5"/>
  <rect x="1" y="27" width="1" height="1" fill="#7676761a"/>
  <rect x="8" y="27" width="2" height="1" fill="#edf1f2"/>
  <rect x="10" y="27" width="1" height="1" fill="#ebf2f2"/>
  <rect x="11" y="27" width="4" height="1" fill="#ebf2f4"/>
  <rect x="15" y="27" width="1" height="2" fill="#edf1f4"/>
  <rect x="192" y="27" width="4" height="2" fill="#f0f0f0"/>
  <rect x="196" y="27" width="1" height="2" fill="#f3f3f3"/>
  <rect x="197" y="27" width="1" height="2" fill="#eeeeee"/>
  <rect x="198" y="27" width="1" height="2" fill="#f0f0f0"/>
  <rect x="199" y="27" width="1" height="2" fill="#d7d7d7"/>
  <rect x="1" y="28" width="1" height="1" fill="#7675781a"/>
  <rect x="2" y="28" width="1" height="4" fill="#dbdadd"/>
  <rect x="3" y="28" width="1" height="4" fill="#ececee"/>
  <rect x="4" y="28" width="2" height="4" fill="#f0eff2"/>
  <rect x="6" y="28" width="2" height="4" fill="#eef0f2"/>
  <rect x="8" y="28" width="4" height="1" fill="#edf1f4"/>
  <rect x="12" y="28" width="3" height="1" fill="#edf0f6"/>
  <rect x="16" y="28" width="176" height="1" fill="#edeff1"/>
  <rect x="1" y="29" width="1" height="3" fill="#7474761a"/>
  <rect x="8" y="29" width="4" height="3" fill="#ecf0f3"/>
  <rect x="12" y="29" width="4" height="2" fill="#eceff5"/>
  <rect x="16" y="29" width="1" height="1" fill="#edeff3"/>
  <rect x="17" y="29" width="175" height="1" fill="#edeff1"/>
  <rect x="192" y="29" width="4" height="1" fill="#efefef"/>
  <rect x="196" y="29" width="1" height="1" fill="#f2f2f2"/>
  <rect x="197" y="29" width="1" height="1" fill="#ececec"/>
  <rect x="198" y="29" width="1" height="1" fill="#efefef"/>
  <rect x="199" y="29" width="1" height="1" fill="#d6d6d6"/>
  <rect x="16" y="30" width="1" height="1" fill="#eceef2"/>
  <rect x="17" y="30" width="175" height="1" fill="#eceef0"/>
  <rect x="192" y="30" width="4" height="2" fill="#eeeeee"/>
  <rect x="196" y="30" width="1" height="2" fill="#f1f1f1"/>
  <rect x="197" y="30" width="1" height="2" fill="#ebebeb"/>
  <rect x="198" y="30" width="1" height="2" fill="#eeeeee"/>
  <rect x="199" y="30" width="1" height="2" fill="#d5d5d5"/>
  <rect x="12" y="31" width="3" height="1" fill="#eceff5"/>
  <rect x="15" y="31" width="1" height="1" fill="#ecf0f3"/>
  <rect x="16" y="31" width="176" height="1" fill="#eceef0"/>
  <rect x="1" y="32" width="1" height="2" fill="#7375761a"/>
  <rect x="2" y="32" width="1" height="2" fill="#d9dbdd"/>
  <rect x="3" y="32" width="1" height="3" fill="#ebedee"/>
  <rect x="4" y="32" width="4" height="3" fill="#edeff3"/>
  <rect x="8" y="32" width="2" height="3" fill="#eceef2"/>
  <rect x="10" y="32" width="6" height="3" fill="#eaeef2"/>
  <rect x="16" y="32" width="180" height="2" fill="#eceef0"/>
  <rect x="196" y="32" width="1" height="2" fill="#eff1f3"/>
  <rect x="197" y="32" width="1" height="2" fill="#eaeced"/>
  <rect x="198" y="32" width="1" height="2" fill="#eceef0"/>
  <rect x="199" y="32" width="1" height="2" fill="#d3d6d7"/>
  <rect x="200" y="32" width="1" height="6" fill="#7577791a"/>
  <rect x="1" y="34" width="1" height="1" fill="#7577791a"/>
  <rect x="2" y="34" width="1" height="1" fill="#d8dadc"/>
  <rect x="16" y="34" width="180" height="2" fill="#ebedee"/>
  <rect x="196" y="34" width="1" height="2" fill="#eef0f2"/>
  <rect x="197" y="34" width="1" height="2" fill="#e8eaec"/>
  <rect x="198" y="34" width="1" height="2" fill="#ebedee"/>
  <rect x="199" y="34" width="1" height="2" fill="#d2d4d6"/>
  <rect x="1" y="35" width="1" height="1" fill="#76787a1a"/>
  <rect x="2" y="35" width="1" height="1" fill="#d6d8d9"/>
  <rect x="3" y="35" width="1" height="1" fill="#eaeced"/>
  <rect x="4" y="35" width="4" height="2" fill="#eceef2"/>
  <rect x="8" y="35" width="2" height="1" fill="#ebecf0"/>
  <rect x="10" y="35" width="6" height="1" fill="#e9edf0"/>
  <rect x="1" y="36" width="1" height="1" fill="#78797d1a"/>
  <rect x="2" y="36" width="1" height="1" fill="#d5d6da"/>
  <rect x="3" y="36" width="1" height="1" fill="#e8eaee"/>
  <rect x="8" y="36" width="8" height="1" fill="#ebecf0"/>
  <rect x="16" y="36" width="180" height="2" fill="#eaeced"/>
  <rect x="196" y="36" width="1" height="4" fill="#edeff1"/>
  <rect x="197" y="36" width="1" height="4" fill="#e7e9eb"/>
  <rect x="198" y="36" width="1" height="4" fill="#eaeced"/>
  <rect x="199" y="36" width="1" height="2" fill="#d1d3d5"/>
  <rect x="1" y="37" width="1" height="1" fill="#797a7e1a"/>
  <rect x="2" y="37" width="1" height="1" fill="#d2d4d8"/>
  <rect x="3" y="37" width="1" height="3" fill="#e7e9ed"/>
  <rect x="4" y="37" width="4" height="3" fill="#ebecf0"/>
  <rect x="8" y="37" width="8" height="1" fill="#eaebef"/>
  <rect x="1" y="38" width="1" height="1" fill="#7b7d8119"/>
  <rect x="2" y="38" width="1" height="1" fill="#d1d3d7f1"/>
  <rect x="8" y="38" width="188" height="2" fill="#eaeced"/>
  <rect x="199" y="38" width="1" height="1" fill="#d1d3d5f1"/>
  <rect x="200" y="38" width="1" height="1" fill="#75777919"/>
  <rect x="1" y="39" width="1" height="1" fill="#797a7e16"/>
  <rect x="2" y="39" width="1" height="1" fill="#d1d3d7b5"/>
  <rect x="199" y="39" width="1" height="1" fill="#d1d3d5b5"/>
  <rect x="200" y="39" width="1" height="1" fill="#75777916"/>
  <rect x="1" y="40" width="1" height="1" fill="#76787c11"/>
  <rect x="2" y="40" width="1" height="1" fill="#a7a9ad3d"/>
  <rect x="3" y="40" width="1" height="1" fill="#d9dbdfec"/>
  <rect x="4" y="40" width="2" height="1" fill="#e8eaee"/>
  <rect x="6" y="40" width="1" height="1" fill="#e8eaec"/>
  <rect x="7" y="40" width="1" height="1" fill="#e7e9eb"/>
  <rect x="8" y="40" width="1" height="1" fill="#e6e8ea"/>
  <rect x="9" y="40" width="1" height="1" fill="#e5e7e9"/>
  <rect x="10" y="40" width="4" height="1" fill="#e5e7e7"/>
  <rect x="14" y="40" width="2" height="1" fill="#e6e9e8"/>
  <rect x="16" y="40" width="2" height="1" fill="#e6e8ea"/>
  <rect x="18" y="40" width="178" height="1" fill="#e7e9eb"/>
  <rect x="196" y="40" width="1" height="1" fill="#eaeced"/>
  <rect x="197" y="40" width="1" height="1" fill="#dfe1e3"/>
  <rect x="198" y="40" width="1" height="1" fill="#c6c8c9ec"/>
  <rect x="199" y="40" width="1" height="1" fill="#a0a2a43c"/>
  <rect x="200" y="40" width="1" height="1" fill="#75777911"/>
  <rect x="1" y="41" width="1" height="1" fill="#797a7e0b"/>
  <rect x="2" y="41" width="1" height="1" fill="#73747819"/>
  <rect x="3" y="41" width="1" height="1" fill="#9c9da141"/>
  <rect x="4" y="41" width="1" height="1" fill="#cdced2af"/>
  <rect x="5" y="41" width="1" height="1" fill="#cdced2e4"/>
  <rect x="6" y="41" width="2" height="1" fill="#ced0d1f2"/>
  <rect x="8" y="41" width="1" height="1" fill="#cfd1d2f2"/>
  <rect x="9" y="41" width="1" height="1" fill="#d0d2d4f2"/>
  <rect x="10" y="41" width="4" height="1" fill="#d1d4d3f2"/>
  <rect x="14" y="41" width="2" height="1" fill="#d2d5d4f2"/>
  <rect x="16" y="41" width="2" height="1" fill="#d2d4d6f2"/>
  <rect x="18" y="41" width="178" height="1" fill="#d3d6d7f2"/>
  <rect x="196" y="41" width="1" height="1" fill="#c9cbcde4"/>
  <rect x="197" y="41" width="1" height="1" fill="#c1c3c4af"/>
  <rect x="198" y="41" width="1" height="1" fill="#999b9d41"/>
  <rect x="199" y="41" width="1" height="1" fill="#75777919"/>
  <rect x="200" y="41" width="1" height="1" fill="#7577790b"/>
  <rect x="2" y="42" width="1" height="1" fill="#686a6e0d"/>
  <rect x="3" y="42" width="1" height="1" fill="#7a7b7f19"/>
  <rect x="4" y="42" width="1" height="1" fill="#797a7e25"/>
  <rect x="5" y="42" width="1" height="1" fill="#797a7e2c"/>
  <rect x="6" y="42" width="1" height="1" fill="#787a7b30"/>
  <rect x="7" y="42" width="1" height="1" fill="#76787a32"/>
  <rect x="8" y="42" width="1" height="1" fill="#74767632"/>
  <rect x="9" y="42" width="1" height="1" fill="#73757432"/>
  <rect x="10" y="42" width="1" height="1" fill="#72747332"/>
  <rect x="11" y="42" width="1" height="1" fill="#72747132"/>
  <rect x="12" y="42" width="2" height="1" fill="#72747332"/>
  <rect x="14" y="42" width="4" height="1" fill="#73757432"/>
  <rect x="18" y="42" width="2" height="1" fill="#74767632"/>
  <rect x="20" y="42" width="175" height="1" fill="#74767832"/>
  <rect x="195" y="42" width="1" height="1" fill="#75777930"/>
  <rect x="196" y="42" width="1" height="1" fill="#7476782c"/>
  <rect x="197" y="42" width="1" height="1" fill="#6d6f7125"/>
  <rect x="198" y="42" width="1" height="1" fill="#6b6d6e19"/>
  <rect x="199" y="42" width="1" height="1" fill="#7173740d"/>
  <rect x="3" y="43" width="1" height="1" fill="#7a7b7f0a"/>
  <rect x="4" y="43" width="1" height="1" fill="#75777b10"/>
  <rect x="5" y="43" width="1" height="1" fill="#75777b15"/>
  <rect x="6" y="43" width="2" height="1" fill="#75777918"/>
  <rect x="8" y="43" width="2" height="1" fill="#76797818"/>
  <rect x="10" y="43" width="2" height="1" fill="#76797618"/>
  <rect x="12" y="43" width="2" height="1" fill="#76797818"/>
  <rect x="14" y="43" width="4" height="1" fill="#787a7918"/>
  <rect x="18" y="43" width="2" height="1" fill="#797b7a18"/>
  <rect x="20" y="43" width="176" height="1" fill="#797b7c18"/>
  <rect x="196" y="43" width="1" height="1" fill="#7a7c7d15"/>
  <rect x="197" y="43" width="1" height="1" fill="#797b7c10"/>
  <rect x="198" y="43" width="1" height="1" fill="#76787a0a"/>
  <rect x="5" y="46" width="1" height="1" fill="#babbbf12"/>
  <rect x="6" y="46" width="1" height="1" fill="#bcbec019"/>
  <rect x="7" y="46" width="1" height="1" fill="#bdbfc11a"/>
  <rect x="8" y="46" width="12" height="1" fill="#bdc0bf1a"/>
  <rect x="20" y="46" width="175" height="1" fill="#bdbfc11a"/>
  <rect x="195" y="46" width="1" height="1" fill="#bdbfc119"/>
  <rect x="196" y="46" width="1" height="1" fill="#b3b5b612"/>
  <rect x="3" y="47" width="1" height="1" fill="#c9cbcf3f"/>
  <rect x="4" y="47" width="1" height="1" fill="#dadce0c9"/>
  <rect x="5" y="47" width="1" height="1" fill="#e4e5e9fe"/>
  <rect x="6" y="47" width="1" height="1" fill="#e7e9eb"/>
  <rect x="7" y="47" width="1" height="1" fill="#e4e6e7"/>
  <rect x="8" y="47" width="1" height="1" fill="#e5e7e7"/>
  <rect x="9" y="47" width="11" height="1" fill="#e6e9e8"/>
  <rect x="20" y="47" width="176" height="1" fill="#e6e8ea"/>
  <rect x="196" y="47" width="1" height="1" fill="#e4e6e7fe"/>
  <rect x="197" y="47" width="1" height="1" fill="#dddfe0c9"/>
  <rect x="198" y="47" width="1" height="1" fill="#d1d3d53f"/>
  <rect x="2" y="48" width="1" height="1" fill="#d0d2d43d"/>
  <rect x="3" y="48" width="1" height="1" fill="#e3e5e6f6"/>
  <rect x="4" y="48" width="4" height="3" fill="#f1f3f4"/>
  <rect x="8" y="48" width="2" height="3" fill="#eff1f3"/>
  <rect x="10" y="48" width="2" height="4" fill="#eff2f1"/>
  <rect x="12" y="48" width="4" height="4" fill="#eff1f3"/>
  <rect x="16" y="48" width="180" height="1" fill="#f1f3f4"/>
  <rect x="196" y="48" width="1" height="1" fill="#f2f4f5"/>
  <rect x="197" y="48" width="1" height="1" fill="#eceef0"/>
  <rect x="198" y="48" width="1" height="1" fill="#e5e7e9f6"/>
  <rect x="199" y="48" width="1" height="1" fill="#c8cacb3d"/>
  <rect x="1" y="49" width="1" height="1" fill="#7577790c"/>
  <rect x="2" y="49" width="1" height="1" fill="#d6d8d9bf"/>
  <rect x="3" y="49" width="1" height="1" fill="#ebedee"/>
  <rect x="16" y="49" width="179" height="1" fill="#f1f3f4"/>
  <rect x="195" y="49" width="1" height="1" fill="#f2f4f5"/>
  <rect x="196" y="49" width="1" height="1" fill="#f3f5f7"/>
  <rect x="197" y="49" width="1" height="1" fill="#eef0f2"/>
  <rect x="198" y="49" width="1" height="1" fill="#e8eaec"/>
  <rect x="199" y="49" width="1" height="1" fill="#e1e3e5bf"/>
  <rect x="200" y="49" width="1" height="1" fill="#7577790c"/>
  <rect x="1" y="50" width="1" height="1" fill="#787a7b12"/>
  <rect x="2" y="50" width="1" height="1" fill="#dddfe0f7"/>
  <rect x="3" y="50" width="1" height="1" fill="#f5f7f9"/>
  <rect x="16" y="50" width="181" height="1" fill="#f1f3f4"/>
  <rect x="197" y="50" width="1" height="1" fill="#eff1f3"/>
  <rect x="198" y="50" width="1" height="1" fill="#eaeced"/>
  <rect x="199" y="50" width="1" height="1" fill="#e4e6e7f7"/>
  <rect x="200" y="50" width="1" height="1" fill="#75777912"/>
  <rect x="1" y="51" width="1" height="1" fill="#76787a17"/>
  <rect x="2" y="51" width="1" height="1" fill="#e1e3e5"/>
  <rect x="3" y="51" width="1" height="1" fill="#fdffff"/>
  <rect x="4" y="51" width="6" height="1" fill="#eff1f3"/>
  <rect x="16" y="51" width="179" height="1" fill="#f1f3f4"/>
  <rect x="195" y="51" width="2" height="1" fill="#eff1f3"/>
  <rect x="197" y="51" width="1" height="1" fill="#eef0f2"/>
  <rect x="198" y="51" width="1" height="5" fill="#ebedee"/>
  <rect x="199" y="51" width="1" height="1" fill="#e6e8ea"/>
  <rect x="200" y="51" width="1" height="1" fill="#75777917"/>
  <rect x="1" y="52" width="1" height="1" fill="#74767819"/>
  <rect x="2" y="52" width="1" height="1" fill="#e4e6e7"/>
  <rect x="3" y="52" width="1" height="8" fill="#f2f4f5"/>
  <rect x="4" y="52" width="191" height="1" fill="#eff1f3"/>
  <rect x="195" y="52" width="2" height="4" fill="#eef0f2"/>
  <rect x="197" y="52" width="1" height="4" fill="#edeff1"/>
  <rect x="199" y="52" width="1" height="4" fill="#e5e7e9"/>
  <rect x="200" y="52" width="1" height="1" fill="#75777919"/>
  <rect x="1" y="53" width="1" height="5" fill="#7274751a"/>
  <rect x="2" y="53" width="1" height="5" fill="#e3e5e6"/>
  <rect x="4" y="53" width="4" height="7" fill="#eef0f2"/>
  <rect x="8" y="53" width="187" height="3" fill="#eff1f3"/>
  <rect x="200" y="53" width="1" height="1" fill="#7577791a"/>
  <rect x="200" y="54" width="1" height="4" fill="#7578771a"/>
  <rect x="8" y="56" width="8" height="4" fill="#eff1f3"/>
  <rect x="16" y="56" width="179" height="4" fill="#eef0f2"/>
  <rect x="195" y="56" width="2" height="2" fill="#edeff1"/>
  <rect x="197" y="56" width="1" height="2" fill="#eceef0"/>
  <rect x="198" y="56" width="1" height="4" fill="#eaeceb"/>
  <rect x="199" y="56" width="1" height="2" fill="#e4e6e5"/>
  <rect x="1" y="58" width="1" height="4" fill="#7375761a"/>
  <rect x="2" y="58" width="1" height="1" fill="#e1e3e5"/>
  <rect x="195" y="58" width="3" height="1" fill="#edeff1"/>
  <rect x="199" y="58" width="1" height="1" fill="#e3e5e4"/>
  <rect x="200" y="58" width="1" height="6" fill="#7578751a"/>
  <rect x="2" y="59" width="1" height="1" fill="#dfe1e3"/>
  <rect x="195" y="59" width="1" height="1" fill="#edeff1"/>
  <rect x="196" y="59" width="1" height="1" fill="#eceef0"/>
  <rect x="197" y="59" width="1" height="1" fill="#edeff1"/>
  <rect x="199" y="59" width="1" height="1" fill="#e1e4e3"/>
  <rect x="2" y="60" width="1" height="1" fill="#dddfe0"/>
  <rect x="3" y="60" width="1" height="6" fill="#f1f3f4"/>
  <rect x="4" y="60" width="4" height="4" fill="#edeff1"/>
  <rect x="8" y="60" width="4" height="2" fill="#eef0f2"/>
  <rect x="12" y="60" width="4" height="2" fill="#eff1f3"/>
  <rect x="16" y="60" width="180" height="2" fill="#eef0f2"/>
  <rect x="196" y="60" width="1" height="1" fill="#ebedee"/>
  <rect x="197" y="60" width="1" height="1" fill="#eef0f2"/>
  <rect x="198" y="60" width="1" height="1" fill="#ebedec"/>
  <rect x="199" y="60" width="1" height="1" fill="#e0e3e2"/>
  <rect x="2" y="61" width="1" height="1" fill="#dadcde"/>
  <rect x="196" y="61" width="1" height="1" fill="#eaeced"/>
  <rect x="197" y="61" width="1" height="1" fill="#edeff1"/>
  <rect x="198" y="61" width="1" height="2" fill="#eceeee"/>
  <rect x="199" y="61" width="1" height="1" fill="#dfe2e1"/>
  <rect x="1" y="62" width="1" height="4" fill="#7476781a"/>
  <rect x="2" y="62" width="1" height="5" fill="#d9dbdd"/>
  <rect x="8" y="62" width="188" height="2" fill="#eef0f2"/>
  <rect x="196" y="62" width="1" height="2" fill="#ebedee"/>
  <rect x="197" y="62" width="1" height="1" fill="#eef0f2"/>
  <rect x="199" y="62" width="1" height="2" fill="#dee0e0"/>
  <rect x="197" y="63" width="1" height="1" fill="#edeff1"/>
  <rect x="198" y="63" width="1" height="1" fill="#edf0ef"/>
  <rect x="4" y="64" width="4" height="5" fill="#eceef0"/>
  <rect x="8" y="64" width="8" height="2" fill="#edeff1"/>
  <rect x="16" y="64" width="16" height="1" fill="#eceef0"/>
  <rect x="32" y="64" width="160" height="1" fill="#edeff1"/>
  <rect x="192" y="64" width="4" height="1" fill="#edf0ef"/>
  <rect x="196" y="64" width="1" height="2" fill="#ebedec"/>
  <rect x="197" y="64" width="2" height="1" fill="#edf0ef"/>
  <rect x="199" y="64" width="1" height="8" fill="#dddfde"/>
  <rect x="200" y="64" width="1" height="19" fill="#7578771a"/>
  <rect x="16" y="65" width="176" height="1" fill="#eceef0"/>
  <rect x="192" y="65" width="4" height="1" fill="#eceeee"/>
  <rect x="197" y="65" width="1" height="1" fill="#eceeee"/>
  <rect x="198" y="65" width="1" height="2" fill="#eef1f0"/>
  <rect x="1" y="66" width="1" height="4" fill="#7577791a"/>
  <rect x="3" y="66" width="1" height="1" fill="#eff1f3"/>
  <rect x="8" y="66" width="4" height="5" fill="#edeff1"/>
  <rect x="12" y="66" width="180" height="5" fill="#eceef0"/>
  <rect x="192" y="66" width="6" height="1" fill="#eceeee"/>
  <rect x="2" y="67" width="1" height="2" fill="#d8dadc"/>
  <rect x="3" y="67" width="1" height="1" fill="#eef0f2"/>
  <rect x="192" y="67" width="5" height="5" fill="#eceeee"/>
  <rect x="197" y="67" width="1" height="5" fill="#ebedec"/>
  <rect x="198" y="67" width="1" height="5" fill="#eff2f1"/>
  <rect x="3" y="68" width="1" height="1" fill="#edeff1"/>
  <rect x="2" y="69" width="1" height="3" fill="#d7d9db"/>
  <rect x="3" y="69" width="5" height="1" fill="#eceef0"/>
  <rect x="1" y="70" width="1" height="1" fill="#76787a1a"/>
  <rect x="3" y="70" width="1" height="1" fill="#ebedee"/>
  <rect x="4" y="70" width="4" height="1" fill="#eceef0"/>
  <rect x="1" y="71" width="1" height="2" fill="#7577791a"/>
  <rect x="3" y="71" width="5" height="1" fill="#ebedee"/>
  <rect x="8" y="71" width="184" height="1" fill="#eceef0"/>
  <rect x="2" y="72" width="1" height="11" fill="#d6d8d9"/>
  <rect x="3" y="72" width="1" height="1" fill="#eaeced"/>
  <rect x="4" y="72" width="4" height="1" fill="#ebedee"/>
  <rect x="8" y="72" width="4" height="1" fill="#eceef0"/>
  <rect x="12" y="72" width="180" height="1" fill="#ebedee"/>
  <rect x="192" y="72" width="5" height="2" fill="#ebedec"/>
  <rect x="197" y="72" width="1" height="4" fill="#eaeceb"/>
  <rect x="198" y="72" width="1" height="2" fill="#eef1f0"/>
  <rect x="199" y="72" width="1" height="2" fill="#dcdedd"/>
  <rect x="1" y="73" width="1" height="10" fill="#7476781a"/>
  <rect x="3" y="73" width="5" height="11" fill="#eaeced"/>
  <rect x="8" y="73" width="184" height="7" fill="#ebedee"/>
  <rect x="192" y="74" width="4" height="6" fill="#ebedec"/>
  <rect x="196" y="74" width="1" height="4" fill="#eceeee"/>
  <rect x="198" y="74" width="1" height="1" fill="#edf0ef"/>
  <rect x="199" y="74" width="1" height="1" fill="#dadddc"/>
  <rect x="198" y="75" width="1" height="1" fill="#eceeee"/>
  <rect x="199" y="75" width="1" height="1" fill="#d8dbda"/>
  <rect x="197" y="76" width="1" height="2" fill="#e8ebea"/>
  <rect x="198" y="76" width="1" height="1" fill="#ebedec"/>
  <rect x="199" y="76" width="1" height="1" fill="#d7d9d9"/>
  <rect x="198" y="77" width="1" height="1" fill="#eaeceb"/>
  <rect x="199" y="77" width="1" height="1" fill="#d5d7d6"/>
  <rect x="196" y="78" width="1" height="2" fill="#edf0ef"/>
  <rect x="197" y="78" width="2" height="2" fill="#e8ebea"/>
  <rect x="199" y="78" width="1" height="2" fill="#d3d6d5"/>
  <rect x="8" y="80" width="8" height="4" fill="#ebedee"/>
  <rect x="16" y="80" width="16" height="4" fill="#eaeceb"/>
  <rect x="32" y="80" width="16" height="4" fill="#ebebed"/>
  <rect x="48" y="80" width="144" height="4" fill="#eaeced"/>
  <rect x="192" y="80" width="4" height="4" fill="#eaeceb"/>
  <rect x="196" y="80" width="1" height="4" fill="#eceeee"/>
  <rect x="197" y="80" width="2" height="4" fill="#e7eae9"/>
  <rect x="199" y="80" width="1" height="3" fill="#d2d5d4"/>
  <rect x="1" y="83" width="1" height="1" fill="#73757619"/>
  <rect x="2" y="83" width="1" height="1" fill="#d6d8d9f1"/>
  <rect x="199" y="83" width="1" height="1" fill="#d2d5d4f1"/>
  <rect x="200" y="83" width="1" height="1" fill="#75787719"/>
  <rect x="1" y="84" width="1" height="1" fill="#72747516"/>
  <rect x="2" y="84" width="1" height="1" fill="#d2d4d6b5"/>
  <rect x="3" y="84" width="1" height="1" fill="#e8eaec"/>
  <rect x="4" y="84" width="1" height="1" fill="#eaeced"/>
  <rect x="5" y="84" width="1" height="1" fill="#e8eaec"/>
  <rect x="6" y="84" width="1" height="1" fill="#e7e9eb"/>
  <rect x="7" y="84" width="1" height="1" fill="#e6e8ea"/>
  <rect x="8" y="84" width="1" height="1" fill="#e8eaec"/>
  <rect x="9" y="84" width="7" height="1" fill="#ebedee"/>
  <rect x="16" y="84" width="8" height="1" fill="#eceeee"/>
  <rect x="24" y="84" width="8" height="1" fill="#eeeeee"/>
  <rect x="32" y="84" width="16" height="1" fill="#eeedf0"/>
  <rect x="48" y="84" width="144" height="1" fill="#eceef0"/>
  <rect x="192" y="84" width="4" height="1" fill="#eceeee"/>
  <rect x="196" y="84" width="1" height="1" fill="#e8ebea"/>
  <rect x="197" y="84" width="1" height="1" fill="#e4e6e5"/>
  <rect x="198" y="84" width="1" height="1" fill="#e7eae9"/>
  <rect x="199" y="84" width="1" height="1" fill="#c4c7c6b5"/>
  <rect x="200" y="84" width="1" height="1" fill="#77777716"/>
  <rect x="1" y="85" width="1" height="1" fill="#76787a11"/>
  <rect x="2" y="85" width="1" height="1" fill="#999b9d3d"/>
  <rect x="3" y="85" width="1" height="1" fill="#cfd1d2ec"/>
  <rect x="4" y="85" width="1" height="1" fill="#dee0e2"/>
  <rect x="5" y="85" width="1" height="1" fill="#e5e7e9"/>
  <rect x="6" y="85" width="1" height="1" fill="#edeff1"/>
  <rect x="7" y="85" width="1" height="1" fill="#eceef0"/>
  <rect x="8" y="85" width="1" height="1" fill="#ebedee"/>
  <rect x="9" y="85" width="4" height="1" fill="#eaeced"/>
  <rect x="13" y="85" width="2" height="1" fill="#e8eaec"/>
  <rect x="15" y="85" width="1" height="1" fill="#e7e9eb"/>
  <rect x="16" y="85" width="1" height="1" fill="#e6e9e8"/>
  <rect x="17" y="85" width="2" height="1" fill="#e5e7e7"/>
  <rect x="19" y="85" width="5" height="1" fill="#e4e6e5"/>
  <rect x="24" y="85" width="8" height="1" fill="#e5e5e5"/>
  <rect x="32" y="85" width="16" height="1" fill="#e5e5e7"/>
  <rect x="48" y="85" width="144" height="1" fill="#e4e6e7"/>
  <rect x="192" y="85" width="4" height="1" fill="#e4e6e5"/>
  <rect x="196" y="85" width="1" height="1" fill="#e7eae9"/>
  <rect x="197" y="85" width="1" height="1" fill="#e5e7e7"/>
  <rect x="198" y="85" width="1" height="1" fill="#cfd1d0ec"/>
  <rect x="199" y="85" width="1" height="1" fill="#a6a8a83c"/>
  <rect x="200" y="85" width="1" height="1" fill="#77777711"/>
  <rect x="1" y="86" width="1" height="1" fill="#797b7c0b"/>
  <rect x="2" y="86" width="1" height="1" fill="#6e707219"/>
  <rect x="3" y="86" width="1" height="1" fill="#a4a6a741"/>
  <rect x="4" y="86" width="1" height="1" fill="#c1c3c4af"/>
  <rect x="5" y="86" width="1" height="1" fill="#cacccee4"/>
  <rect x="6" y="86" width="1" height="1" fill="#d1d3d5f2"/>
  <rect x="7" y="86" width="1" height="1" fill="#d0d2d4f2"/>
  <rect x="8" y="86" width="1" height="1" fill="#cfd1d0f2"/>
  <rect x="9" y="86" width="4" height="1" fill="#ced0cff2"/>
  <rect x="13" y="86" width="2" height="1" fill="#cfd1d0f2"/>
  <rect x="15" y="86" width="2" height="1" fill="#d0d2d2f2"/>
  <rect x="17" y="86" width="2" height="1" fill="#d1d4d3f2"/>
  <rect x="19" y="86" width="5" height="1" fill="#d2d5d4f2"/>
  <rect x="24" y="86" width="8" height="1" fill="#d4d4d4f2"/>
  <rect x="32" y="86" width="16" height="1" fill="#d4d4d6f2"/>
  <rect x="48" y="86" width="8" height="1" fill="#d2d5d4f2"/>
  <rect x="56" y="86" width="8" height="1" fill="#d2d4d6f2"/>
  <rect x="64" y="86" width="8" height="1" fill="#d2d5d4f2"/>
  <rect x="72" y="86" width="8" height="1" fill="#d2d4d6f2"/>
  <rect x="80" y="86" width="8" height="1" fill="#d2d5d4f2"/>
  <rect x="88" y="86" width="8" height="1" fill="#d2d4d6f2"/>
  <rect x="96" y="86" width="8" height="1" fill="#d2d5d4f2"/>
  <rect x="104" y="86" width="8" height="1" fill="#d2d4d6f2"/>
  <rect x="112" y="86" width="8" height="1" fill="#d2d5d4f2"/>
  <rect x="120" y="86" width="8" height="1" fill="#d2d4d6f2"/>
  <rect x="128" y="86" width="8" height="1" fill="#d2d5d4f2"/>
  <rect x="136" y="86" width="8" height="1" fill="#d2d4d6f2"/>
  <rect x="144" y="86" width="8" height="1" fill="#d2d5d4f2"/>
  <rect x="152" y="86" width="8" height="1" fill="#d2d4d6f2"/>
  <rect x="160" y="86" width="8" height="1" fill="#d2d5d4f2"/>
  <rect x="168" y="86" width="8" height="1" fill="#d2d4d6f2"/>
  <rect x="176" y="86" width="8" height="1" fill="#d2d5d4f2"/>
  <rect x="184" y="86" width="8" height="1" fill="#d2d4d6f2"/>
  <rect x="192" y="86" width="4" height="1" fill="#d2d5d4f2"/>
  <rect x="196" y="86" width="1" height="1" fill="#cdcfcee4"/>
  <rect x="197" y="86" width="1" height="1" fill="#cdcfceaf"/>
  <rect x="198" y="86" width="1" height="1" fill="#9d9f9e41"/>
  <rect x="199" y="86" width="1" height="1" fill="#6f727119"/>
  <rect x="200" y="86" width="1" height="1" fill="#7777770b"/>
  <rect x="2" y="87" width="1" height="1" fill="#7a7c7d0d"/>
  <rect x="3" y="87" width="1" height="1" fill="#76787a19"/>
  <rect x="4" y="87" width="1" height="1" fill="#76787a25"/>
  <rect x="5" y="87" width="1" height="1" fill="#7a7c7d2c"/>
  <rect x="6" y="87" width="1" height="1" fill="#76787a30"/>
  <rect x="7" y="87" width="1" height="1" fill="#75777932"/>
  <rect x="8" y="87" width="1" height="1" fill="#76797832"/>
  <rect x="9" y="87" width="5" height="1" fill="#797b7a32"/>
  <rect x="14" y="87" width="2" height="1" fill="#787a7932"/>
  <rect x="16" y="87" width="2" height="1" fill="#76797832"/>
  <rect x="18" y="87" width="6" height="1" fill="#75787732"/>
  <rect x="24" y="87" width="8" height="1" fill="#77777732"/>
  <rect x="32" y="87" width="16" height="1" fill="#77767932"/>
  <rect x="48" y="87" width="8" height="1" fill="#75787732"/>
  <rect x="56" y="87" width="8" height="1" fill="#75777932"/>
  <rect x="64" y="87" width="8" height="1" fill="#75787732"/>
  <rect x="72" y="87" width="8" height="1" fill="#75777932"/>
  <rect x="80" y="87" width="8" height="1" fill="#75787732"/>
  <rect x="88" y="87" width="8" height="1" fill="#75777932"/>
  <rect x="96" y="87" width="8" height="1" fill="#75787732"/>
  <rect x="104" y="87" width="8" height="1" fill="#75777932"/>
  <rect x="112" y="87" width="8" height="1" fill="#75787732"/>
  <rect x="120" y="87" width="8" height="1" fill="#75777932"/>
  <rect x="128" y="87" width="8" height="1" fill="#75787732"/>
  <rect x="136" y="87" width="8" height="1" fill="#75777932"/>
  <rect x="144" y="87" width="8" height="1" fill="#75787732"/>
  <rect x="152" y="87" width="8" height="1" fill="#75777932"/>
  <rect x="160" y="87" width="8" height="1" fill="#75787732"/>
  <rect x="168" y="87" width="8" height="1" fill="#75777932"/>
  <rect x="176" y="87" width="8" height="1" fill="#75787732"/>
  <rect x="184" y="87" width="8" height="1" fill="#75777932"/>
  <rect x="192" y="87" width="3" height="1" fill="#75787732"/>
  <rect x="195" y="87" width="1" height="1" fill="#74767630"/>
  <rect x="196" y="87" width="1" height="1" fill="#7679782c"/>
  <rect x="197" y="87" width="1" height="1" fill="#7e818025"/>
  <rect x="198" y="87" width="1" height="1" fill="#787a7919"/>
  <rect x="199" y="87" width="1" height="1" fill="#7578770d"/>
  <rect x="3" y="88" width="1" height="1" fill="#7476780a"/>
  <rect x="4" y="88" width="1" height="1" fill="#75777910"/>
  <rect x="5" y="88" width="1" height="1" fill="#75777915"/>
  <rect x="6" y="88" width="2" height="1" fill="#75787718"/>
  <rect x="8" y="88" width="2" height="1" fill="#74767618"/>
  <rect x="10" y="88" width="4" height="1" fill="#75787518"/>
  <rect x="14" y="88" width="2" height="1" fill="#76797618"/>
  <rect x="16" y="88" width="4" height="1" fill="#75787718"/>
  <rect x="20" y="88" width="8" height="1" fill="#77777718"/>
  <rect x="28" y="88" width="4" height="1" fill="#78767718"/>
  <rect x="32" y="88" width="12" height="1" fill="#77767918"/>
  <rect x="44" y="88" width="4" height="1" fill="#77777718"/>
  <rect x="48" y="88" width="140" height="1" fill="#75787718"/>
  <rect x="188" y="88" width="4" height="1" fill="#75777918"/>
  <rect x="192" y="88" width="4" height="1" fill="#75787718"/>
  <rect x="196" y="88" width="1" height="1" fill="#78787815"/>
  <rect x="197" y="88" width="1" height="1" fill="#78787810"/>
  <rect x="198" y="88" width="1" height="1" fill="#7878780a"/>
</svg>