<svg xmlns="http://www.w3.org/2000/svg" width="80" height="20" viewBox="0 0 80 20" shape-rendering="crispEdges">
  <rect x="20" y="0" width="1" height="1" fill="#01010112"/>
  <rect x="21" y="0" width="1" height="1" fill="#0101013a"/>
  <rect x="22" y="0" width="16" height="1" fill="#01010140"/>
  <rect x="38" y="0" width="1" height="1" fill="#0101013a"/>
  <rect x="39" y="0" width="2" height="1" fill="#01010112"/>
  <rect x="41" y="0" width="1" height="1" fill="#0101013a"/>
  <rect x="42" y="0" width="16" height="1" fill="#01010140"/>
  <rect x="58" y="0" width="1" height="1" fill="#0101013a"/>
  <rect x="59" y="0" width="1" height="1" fill="#01010112"/>
  <rect x="20" y="1" width="1" height="1" fill="#0101013a"/>
  <rect x="21" y="1" width="18" height="1" fill="#01010140"/>
  <rect x="39" y="1" width="2" height="1" fill="#0101013a"/>
  <rect x="41" y="1" width="18" height="1" fill="#01010140"/>
  <rect x="59" y="1" width="1" height="1" fill="#0101013a"/>
  <rect x="20" y="2" width="40" height="1" fill="#01010140"/>
  <rect x="1" y="3" width="1" height="1" fill="#bdbdbd16"/>
  <rect x="2" y="3" width="1" height="1" fill="#acacac40"/>
  <rect x="3" y="3" width="1" height="1" fill="#b6b6b656"/>
  <rect x="4" y="3" width="2" height="1" fill="#b9b9b956"/>
  <rect x="6" y="3" width="1" height="1" fill="#b8b8b856"/>
  <rect x="7" y="3" width="1" height="1" fill="#b7b7b756"/>
  <rect x="8" y="3" width="1" height="1" fill="#b6b6b656"/>
  <rect x="9" y="3" width="1" height="1" fill="#b4b4b456"/>
  <rect x="10" y="3" width="6" height="1" fill="#b3b3b356"/>
  <rect x="16" y="3" width="1" height="1" fill="#acacac40"/>
  <rect x="17" y="3" width="1" height="1" fill="#afafaf16"/>
  <rect x="20" y="3" width="1" height="1" fill="#01010140"/>
  <rect x="21" y="3" width="1" height="1" fill="#00000044"/>
  <rect x="22" y="3" width="1" height="1" fill="#0101014b"/>
  <rect x="23" y="3" width="13" height="1" fill="#0101014f"/>
  <rect x="36" y="3" width="1" height="1" fill="#0101014b"/>
  <rect x="37" y="3" width="1" height="1" fill="#00000044"/>
  <rect x="38" y="3" width="1" height="1" fill="#00000040"/>
  <rect x="39" y="3" width="2" height="1" fill="#01010140"/>
  <rect x="41" y="3" width="1" height="1" fill="#00000040"/>
  <rect x="42" y="3" width="18" height="1" fill="#01010140"/>
  <rect x="61" y="3" width="1" height="1" fill="#b2b2b216"/>
  <rect x="62" y="3" width="1" height="1" fill="#afafaf40"/>
  <rect x="63" y="3" width="1" height="1" fill="#acacac56"/>
  <rect x="64" y="3" width="8" height="1" fill="#b3b5b456"/>
  <rect x="72" y="3" width="4" height="1" fill="#b4b4b456"/>
  <rect x="76" y="3" width="1" height="1" fill="#b7b7b740"/>
  <rect x="77" y="3" width="1" height="1" fill="#b9b9b916"/>
  <rect x="1" y="4" width="1" height="1" fill="#bababa40"/>
  <rect x="2" y="4" width="1" height="1" fill="#fdfdfde6"/>
  <rect x="3" y="4" width="1" height="1" fill="#fafafae6"/>
  <rect x="4" y="4" width="5" height="1" fill="#ffffffe6"/>
  <rect x="9" y="4" width="7" height="1" fill="#fefefee6"/>
  <rect x="16" y="4" width="1" height="1" fill="#ffffffe6"/>
  <rect x="17" y="4" width="1" height="1" fill="#b4b4b440"/>
  <rect x="20" y="4" width="1" height="1" fill="#00000040"/>
  <rect x="21" y="4" width="1" height="1" fill="#0000004b"/>
  <rect x="22" y="4" width="1" height="1" fill="#f8f8f8f0"/>
  <rect x="23" y="4" width="1" height="1" fill="#efefeff1"/>
  <rect x="24" y="4" width="6" height="1" fill="#f3f3f3f1"/>
  <rect x="30" y="4" width="4" height="1" fill="#f2f2f2f1"/>
  <rect x="34" y="4" width="2" height="1" fill="#f1f1f1f1"/>
  <rect x="36" y="4" width="1" height="1" fill="#f5f5f5f0"/>
  <rect x="37" y="4" width="1" height="1" fill="#0000004b"/>
  <rect x="38" y="4" width="2" height="2" fill="#00000040"/>
  <rect x="40" y="4" width="1" height="2" fill="#02020240"/>
  <rect x="41" y="4" width="1" height="1" fill="#00000044"/>
  <rect x="42" y="4" width="1" height="1" fill="#0303034b"/>
  <rect x="43" y="4" width="13" height="1" fill="#0000004f"/>
  <rect x="56" y="4" width="1" height="1" fill="#0000004b"/>
  <rect x="57" y="4" width="1" height="1" fill="#08080844"/>
  <rect x="58" y="4" width="2" height="1" fill="#01010140"/>
  <rect x="61" y="4" width="1" height="1" fill="#afb2b140"/>
  <rect x="62" y="4" width="1" height="1" fill="#c2c4c4e6"/>
  <rect x="63" y="4" width="1" height="1" fill="#c1c3c2e6"/>
  <rect x="64" y="4" width="1" height="1" fill="#c2c4c4e6"/>
  <rect x="65" y="4" width="3" height="1" fill="#c0c5c4e6"/>
  <rect x="68" y="4" width="2" height="1" fill="#c0c5c6e6"/>
  <rect x="70" y="4" width="2" height="1" fill="#c0c5c4e6"/>
  <rect x="72" y="4" width="1" height="1" fill="#c2c4c4e6"/>
  <rect x="73" y="4" width="3" height="1" fill="#c4c4c4e6"/>
  <rect x="76" y="4" width="1" height="2" fill="#c2c2c2e6"/>
  <rect x="77" y="4" width="1" height="1" fill="#b8b8b840"/>
  <rect x="1" y="5" width="1" height="1" fill="#bdbdbd56"/>
  <rect x="2" y="5" width="15" height="1" fill="#ffffffe6"/>
  <rect x="17" y="5" width="1" height="3" fill="#b4b4b456"/>
  <rect x="20" y="5" width="1" height="1" fill="#03030340"/>
  <rect x="21" y="5" width="1" height="2" fill="#0000004f"/>
  <rect x="22" y="5" width="1" height="1" fill="#f5f5f5f1"/>
  <rect x="23" y="5" width="1" height="1" fill="#f3f3f3f2"/>
  <rect x="24" y="5" width="5" height="1" fill="#efefeff2"/>
  <rect x="29" y="5" width="2" height="1" fill="#f0f0f0f2"/>
  <rect x="31" y="5" width="2" height="1" fill="#f1f1f1f2"/>
  <rect x="33" y="5" width="2" height="1" fill="#f2f2f2f2"/>
  <rect x="35" y="5" width="1" height="1" fill="#f3f3f3f2"/>
  <rect x="36" y="5" width="1" height="1" fill="#f5f5f5f1"/>
  <rect x="37" y="5" width="1" height="3" fill="#0000004f"/>
  <rect x="41" y="5" width="1" height="1" fill="#0000004b"/>
  <rect x="42" y="5" width="1" height="1" fill="#f8f8f8f0"/>
  <rect x="43" y="5" width="13" height="1" fill="#f3f3f3f1"/>
  <rect x="56" y="5" width="1" height="1" fill="#f3f3f3f0"/>
  <rect x="57" y="5" width="1" height="1" fill="#0606064b"/>
  <rect x="58" y="5" width="2" height="1" fill="#00000040"/>
  <rect x="61" y="5" width="1" height="1" fill="#b5b8b756"/>
  <rect x="62" y="5" width="1" height="1" fill="#c7c9c8e6"/>
  <rect x="63" y="5" width="1" height="1" fill="#c6c8c7e6"/>
  <rect x="64" y="5" width="4" height="1" fill="#bec3c1e6"/>
  <rect x="68" y="5" width="2" height="1" fill="#bec3c3e6"/>
  <rect x="70" y="5" width="1" height="1" fill="#bdc4c1e6"/>
  <rect x="71" y="5" width="1" height="1" fill="#bec3c1e6"/>
  <rect x="72" y="5" width="1" height="1" fill="#c0c2c1e6"/>
  <rect x="73" y="5" width="3" height="1" fill="#c1c1c1e6"/>
  <rect x="77" y="5" width="1" height="3" fill="#b8b8b856"/>
  <rect x="1" y="6" width="1" height="1" fill="#b4b4b456"/>
  <rect x="2" y="6" width="5" height="1" fill="#ffffffe6"/>
  <rect x="7" y="6" width="2" height="1" fill="#fefefee6"/>
  <rect x="9" y="6" width="7" height="1" fill="#fdfdfde6"/>
  <rect x="16" y="6" width="1" height="1" fill="#ffffffe6"/>
  <rect x="20" y="6" width="1" height="2" fill="#00000040"/>
  <rect x="22" y="6" width="1" height="1" fill="#f6f6f6f0"/>
  <rect x="23" y="6" width="1" height="1" fill="#f9f9f9f1"/>
  <rect x="24" y="6" width="5" height="1" fill="#f5f5f5f1"/>
  <rect x="29" y="6" width="2" height="1" fill="#f3f3f3f1"/>
  <rect x="31" y="6" width="2" height="1" fill="#f2f2f2f1"/>
  <rect x="33" y="6" width="2" height="1" fill="#f1f1f1f1"/>
  <rect x="35" y="6" width="1" height="1" fill="#f0f0f0f1"/>
  <rect x="36" y="6" width="1" height="2" fill="#f5f5f5f0"/>
  <rect x="38" y="6" width="3" height="1" fill="#00000040"/>
  <rect x="41" y="6" width="1" height="1" fill="#0000004f"/>
  <rect x="42" y="6" width="1" height="1" fill="#f0f0f0f1"/>
  <rect x="43" y="6" width="13" height="1" fill="#f2f2f2f2"/>
  <rect x="56" y="6" width="1" height="1" fill="#efefeff1"/>
  <rect x="57" y="6" width="1" height="1" fill="#0101014f"/>
  <rect x="58" y="6" width="1" height="1" fill="#03050540"/>
  <rect x="59" y="6" width="1" height="1" fill="#00000040"/>
  <rect x="61" y="6" width="1" height="1" fill="#b3b5b456"/>
  <rect x="62" y="6" width="1" height="1" fill="#c3c8c6e6"/>
  <rect x="63" y="6" width="1" height="1" fill="#c2c6c5e6"/>
  <rect x="64" y="6" width="4" height="1" fill="#bfc4c2e6"/>
  <rect x="68" y="6" width="2" height="1" fill="#bfc4c4e6"/>
  <rect x="70" y="6" width="2" height="1" fill="#bec5c2e6"/>
  <rect x="72" y="6" width="1" height="1" fill="#c1c3c2e6"/>
  <rect x="73" y="6" width="4" height="1" fill="#c2c2c2e6"/>
  <rect x="1" y="7" width="1" height="1" fill="#b3b3b356"/>
  <rect x="2" y="7" width="1" height="5" fill="#ffffffe6"/>
  <rect x="3" y="7" width="1" height="1" fill="#b9b9b996"/>
  <rect x="4" y="7" width="3" height="1" fill="#b3b3b356"/>
  <rect x="7" y="7" width="2" height="1" fill="#b2b2b256"/>
  <rect x="9" y="7" width="6" height="1" fill="#b1b1b156"/>
  <rect x="15" y="7" width="1" height="1" fill="#b1b1b196"/>
  <rect x="16" y="7" width="1" height="1" fill="#fefefee6"/>
  <rect x="21" y="7" width="1" height="2" fill="#0202024f"/>
  <rect x="22" y="7" width="1" height="1" fill="#f1f1f1f0"/>
  <rect x="23" y="7" width="1" height="1" fill="#0000005a"/>
  <rect x="24" y="7" width="11" height="1" fill="#0000004f"/>
  <rect x="35" y="7" width="1" height="1" fill="#0000005a"/>
  <rect x="38" y="7" width="2" height="1" fill="#00000040"/>
  <rect x="40" y="7" width="1" height="1" fill="#07070740"/>
  <rect x="41" y="7" width="1" height="1" fill="#0101014f"/>
  <rect x="42" y="7" width="1" height="1" fill="#f8f8f8f0"/>
  <rect x="43" y="7" width="13" height="1" fill="#f2f2f2f1"/>
  <rect x="56" y="7" width="1" height="1" fill="#f9f9f9f0"/>
  <rect x="57" y="7" width="1" height="1" fill="#0303034f"/>
  <rect x="58" y="7" width="2" height="1" fill="#00010040"/>
  <rect x="61" y="7" width="1" height="1" fill="#aeb1b056"/>
  <rect x="62" y="7" width="1" height="1" fill="#bfc4c2e6"/>
  <rect x="63" y="7" width="1" height="1" fill="#bec3c196"/>
  <rect x="64" y="7" width="4" height="1" fill="#b5bab856"/>
  <rect x="68" y="7" width="2" height="1" fill="#b5b9ba56"/>
  <rect x="70" y="7" width="1" height="1" fill="#b3bab856"/>
  <rect x="71" y="7" width="1" height="1" fill="#b5bab856"/>
  <rect x="72" y="7" width="1" height="1" fill="#b6b9b856"/>
  <rect x="73" y="7" width="2" height="1" fill="#b8b8b856"/>
  <rect x="75" y="7" width="1" height="1" fill="#b8b8b896"/>
  <rect x="76" y="7" width="1" height="1" fill="#c2c2c2e6"/>
  <rect x="1" y="8" width="1" height="4" fill="#b4b4b456"/>
  <rect x="3" y="8" width="1" height="4" fill="#b1b1b156"/>
  <rect x="15" y="8" width="1" height="1" fill="#b8b8b856"/>
  <rect x="16" y="8" width="1" height="2" fill="#ffffffe6"/>
  <rect x="17" y="8" width="1" height="1" fill="#b6b6b656"/>
  <rect x="20" y="8" width="1" height="1" fill="#01010140"/>
  <rect x="22" y="8" width="1" height="1" fill="#f5f5f5ef"/>
  <rect x="23" y="8" width="1" height="1" fill="#0000004f"/>
  <rect x="24" y="8" width="1" height="1" fill="#07070740"/>
  <rect x="25" y="8" width="1" height="1" fill="#02020240"/>
  <rect x="26" y="8" width="8" height="1" fill="#00000040"/>
  <rect x="34" y="8" width="1" height="1" fill="#03030340"/>
  <rect x="35" y="8" width="1" height="1" fill="#0202024f"/>
  <rect x="36" y="8" width="1" height="2" fill="#f8f8f8ef"/>
  <rect x="37" y="8" width="1" height="2" fill="#0202024f"/>
  <rect x="38" y="8" width="1" height="2" fill="#01010140"/>
  <rect x="39" y="8" width="1" height="2" fill="#03030340"/>
  <rect x="40" y="8" width="1" height="3" fill="#00000040"/>
  <rect x="41" y="8" width="1" height="1" fill="#0202024f"/>
  <rect x="42" y="8" width="1" height="1" fill="#f6f6f6f0"/>
  <rect x="43" y="8" width="1" height="1" fill="#0000005a"/>
  <rect x="44" y="8" width="4" height="1" fill="#0000004f"/>
  <rect x="48" y="8" width="4" height="1" fill="#0101014f"/>
  <rect x="52" y="8" width="1" height="1" fill="#0000004f"/>
  <rect x="53" y="8" width="1" height="1" fill="#0101014f"/>
  <rect x="54" y="8" width="1" height="1" fill="#0000004f"/>
  <rect x="55" y="8" width="1" height="1" fill="#0808085a"/>
  <rect x="56" y="8" width="1" height="1" fill="#f7f7f7f0"/>
  <rect x="57" y="8" width="1" height="1" fill="#0202024f"/>
  <rect x="58" y="8" width="1" height="4" fill="#02020240"/>
  <rect x="59" y="8" width="1" height="8" fill="#00000040"/>
  <rect x="61" y="8" width="1" height="4" fill="#b3b5b656"/>
  <rect x="62" y="8" width="1" height="4" fill="#c1c3c4e6"/>
  <rect x="63" y="8" width="1" height="4" fill="#b4b6b856"/>
  <rect x="75" y="8" width="1" height="1" fill="#b4b6b656"/>
  <rect x="76" y="8" width="1" height="8" fill="#c4c4c4e6"/>
  <rect x="77" y="8" width="1" height="7" fill="#b7b7b756"/>
  <rect x="5" y="9" width="1" height="1" fill="#b6b6b616"/>
  <rect x="6" y="9" width="1" height="1" fill="#b6b6b640"/>
  <rect x="7" y="9" width="1" height="1" fill="#b6b6b656"/>
  <rect x="8" y="9" width="4" height="1" fill="#b7b7b756"/>
  <rect x="12" y="9" width="1" height="1" fill="#afafaf40"/>
  <rect x="13" y="9" width="1" height="1" fill="#bbbbbb16"/>
  <rect x="15" y="9" width="1" height="1" fill="#bdbdbd56"/>
  <rect x="17" y="9" width="1" height="1" fill="#bababa56"/>
  <rect x="20" y="9" width="1" height="1" fill="#06060640"/>
  <rect x="21" y="9" width="1" height="1" fill="#0505054f"/>
  <rect x="22" y="9" width="1" height="1" fill="#fafafaef"/>
  <rect x="23" y="9" width="1" height="1" fill="#0202024f"/>
  <rect x="24" y="9" width="1" height="1" fill="#00000040"/>
  <rect x="25" y="9" width="1" height="1" fill="#00000044"/>
  <rect x="26" y="9" width="1" height="1" fill="#0000004b"/>
  <rect x="27" y="9" width="2" height="1" fill="#0000004f"/>
  <rect x="29" y="9" width="3" height="1" fill="#0101014f"/>
  <rect x="32" y="9" width="1" height="1" fill="#0000004b"/>
  <rect x="33" y="9" width="1" height="1" fill="#02020244"/>
  <rect x="34" y="9" width="1" height="2" fill="#01010140"/>
  <rect x="35" y="9" width="1" height="1" fill="#0909094f"/>
  <rect x="41" y="9" width="1" height="7" fill="#0101014f"/>
  <rect x="42" y="9" width="1" height="6" fill="#f6f6f6ef"/>
  <rect x="43" y="9" width="1" height="6" fill="#0000004f"/>
  <rect x="44" y="9" width="1" height="1" fill="#05050540"/>
  <rect x="45" y="9" width="1" height="1" fill="#01010140"/>
  <rect x="46" y="9" width="1" height="1" fill="#05050540"/>
  <rect x="47" y="9" width="4" height="1" fill="#01010140"/>
  <rect x="51" y="9" width="2" height="1" fill="#00000040"/>
  <rect x="53" y="9" width="1" height="1" fill="#02020240"/>
  <rect x="54" y="9" width="1" height="1" fill="#00000040"/>
  <rect x="55" y="9" width="1" height="1" fill="#0000004f"/>
  <rect x="56" y="9" width="1" height="3" fill="#f7f7f7ef"/>
  <rect x="57" y="9" width="1" height="3" fill="#0101014f"/>
  <rect x="65" y="9" width="1" height="1" fill="#b6b8ba16"/>
  <rect x="66" y="9" width="1" height="1" fill="#b2b7b840"/>
  <rect x="67" y="9" width="1" height="1" fill="#b1b6b656"/>
  <rect x="68" y="9" width="2" height="1" fill="#b2b7b856"/>
  <rect x="70" y="9" width="2" height="1" fill="#b4b6b856"/>
  <rect x="72" y="9" width="1" height="1" fill="#b4b6b840"/>
  <rect x="73" y="9" width="1" height="1" fill="#b2b4b516"/>
  <rect x="75" y="9" width="1" height="1" fill="#bbbdbd56"/>
  <rect x="5" y="10" width="1" height="1" fill="#bfbfbf2b"/>
  <rect x="6" y="10" width="6" height="1" fill="#ffffffe6"/>
  <rect x="12" y="10" width="1" height="1" fill="#fafafae6"/>
  <rect x="13" y="10" width="1" height="1" fill="#b4b4b42b"/>
  <rect x="15" y="10" width="1" height="1" fill="#b8b8b856"/>
  <rect x="16" y="10" width="1" height="1" fill="#fefefee6"/>
  <rect x="17" y="10" width="1" height="1" fill="#b6b6b656"/>
  <rect x="20" y="10" width="1" height="1" fill="#01010140"/>
  <rect x="21" y="10" width="1" height="4" fill="#0000004f"/>
  <rect x="22" y="10" width="1" height="1" fill="#f6f6f6ef"/>
  <rect x="23" y="10" width="1" height="2" fill="#0000004f"/>
  <rect x="24" y="10" width="1" height="1" fill="#06060640"/>
  <rect x="25" y="10" width="1" height="1" fill="#00000047"/>
  <rect x="26" y="10" width="1" height="1" fill="#f9f9f9ef"/>
  <rect x="27" y="10" width="1" height="1" fill="#f1f1f1f0"/>
  <rect x="28" y="10" width="3" height="1" fill="#f6f6f6f1"/>
  <rect x="31" y="10" width="1" height="1" fill="#f6f6f6f0"/>
  <rect x="32" y="10" width="1" height="1" fill="#e8e8e8ef"/>
  <rect x="33" y="10" width="1" height="1" fill="#02020247"/>
  <rect x="35" y="10" width="1" height="2" fill="#0101014f"/>
  <rect x="36" y="10" width="1" height="1" fill="#f9f9f9ef"/>
  <rect x="37" y="10" width="1" height="1" fill="#0303034f"/>
  <rect x="38" y="10" width="1" height="1" fill="#02020240"/>
  <rect x="39" y="10" width="1" height="1" fill="#05050540"/>
  <rect x="44" y="10" width="1" height="2" fill="#00000040"/>
  <rect x="45" y="10" width="1" height="1" fill="#00000044"/>
  <rect x="46" y="10" width="1" height="1" fill="#0000004b"/>
  <rect x="47" y="10" width="5" height="1" fill="#0000004f"/>
  <rect x="52" y="10" width="1" height="1" fill="#0000004b"/>
  <rect x="53" y="10" width="1" height="1" fill="#00000044"/>
  <rect x="54" y="10" width="1" height="1" fill="#02020240"/>
  <rect x="55" y="10" width="1" height="1" fill="#0101014f"/>
  <rect x="65" y="10" width="1" height="1" fill="#b8babb2b"/>
  <rect x="66" y="10" width="1" height="1" fill="#c1c3c4e6"/>
  <rect x="67" y="10" width="1" height="1" fill="#c7c9cae6"/>
  <rect x="68" y="10" width="2" height="1" fill="#bfc4c4e6"/>
  <rect x="70" y="10" width="2" height="1" fill="#c1c3c4e6"/>
  <rect x="72" y="10" width="1" height="1" fill="#bdbfc1e6"/>
  <rect x="73" y="10" width="1" height="1" fill="#b5b7b92b"/>
  <rect x="75" y="10" width="1" height="1" fill="#b2b4b356"/>
  <rect x="5" y="11" width="1" height="1" fill="#acacac16"/>
  <rect x="6" y="11" width="1" height="1" fill="#b8b8b86b"/>
  <rect x="7" y="11" width="5" height="1" fill="#ffffffe6"/>
  <rect x="12" y="11" width="1" height="1" fill="#bbbbbb6b"/>
  <rect x="13" y="11" width="1" height="1" fill="#b7b7b716"/>
  <rect x="15" y="11" width="1" height="1" fill="#b3b3b356"/>
  <rect x="16" y="11" width="1" height="1" fill="#fcfbfce6"/>
  <rect x="17" y="11" width="1" height="1" fill="#b3b3b356"/>
  <rect x="20" y="11" width="1" height="1" fill="#00000040"/>
  <rect x="22" y="11" width="1" height="1" fill="#f1f1f1ef"/>
  <rect x="24" y="11" width="1" height="1" fill="#05050540"/>
  <rect x="25" y="11" width="1" height="1" fill="#00000044"/>
  <rect x="26" y="11" width="1" height="1" fill="#00000053"/>
  <rect x="27" y="11" width="1" height="1" fill="#f8f8f8f0"/>
  <rect x="28" y="11" width="3" height="1" fill="#f3f3f3f2"/>
  <rect x="31" y="11" width="1" height="1" fill="#f3f3f3f0"/>
  <rect x="32" y="11" width="1" height="1" fill="#02020253"/>
  <rect x="33" y="11" width="1" height="1" fill="#03030344"/>
  <rect x="34" y="11" width="1" height="1" fill="#00000040"/>
  <rect x="36" y="11" width="1" height="1" fill="#f3f3f3ef"/>
  <rect x="37" y="11" width="1" height="1" fill="#0000004f"/>
  <rect x="38" y="11" width="3" height="6" fill="#00000040"/>
  <rect x="45" y="11" width="1" height="1" fill="#01010147"/>
  <rect x="46" y="11" width="1" height="1" fill="#f1f1f1ef"/>
  <rect x="47" y="11" width="1" height="1" fill="#f5f5f5f0"/>
  <rect x="48" y="11" width="3" height="1" fill="#f5f5f5f1"/>
  <rect x="51" y="11" width="1" height="1" fill="#f5f5f5f0"/>
  <rect x="52" y="11" width="1" height="1" fill="#e7e7e7ef"/>
  <rect x="53" y="11" width="1" height="1" fill="#00000047"/>
  <rect x="54" y="11" width="1" height="2" fill="#00000040"/>
  <rect x="55" y="11" width="1" height="4" fill="#0000004f"/>
  <rect x="65" y="11" width="1" height="1" fill="#b5b7b916"/>
  <rect x="66" y="11" width="1" height="1" fill="#babcbd6b"/>
  <rect x="67" y="11" width="1" height="1" fill="#bdbfc1e6"/>
  <rect x="68" y="11" width="2" height="1" fill="#c0c5c6e6"/>
  <rect x="70" y="11" width="2" height="1" fill="#c2c4c6e6"/>
  <rect x="72" y="11" width="1" height="1" fill="#b6b8ba6b"/>
  <rect x="73" y="11" width="1" height="1" fill="#b3b5b616"/>
  <rect x="75" y="11" width="1" height="1" fill="#b8bab956"/>
  <rect x="1" y="12" width="1" height="1" fill="#ababab56"/>
  <rect x="2" y="12" width="1" height="1" fill="#fdfdfde6"/>
  <rect x="3" y="12" width="1" height="1" fill="#b0b0b056"/>
  <rect x="6" y="12" width="1" height="1" fill="#bababa16"/>
  <rect x="7" y="12" width="1" height="1" fill="#b2b2b26b"/>
  <rect x="8" y="12" width="3" height="1" fill="#ffffffe6"/>
  <rect x="11" y="12" width="1" height="1" fill="#b4b4b46b"/>
  <rect x="12" y="12" width="1" height="1" fill="#b9b9b916"/>
  <rect x="15" y="12" width="1" height="1" fill="#bfbfbf56"/>
  <rect x="16" y="12" width="1" height="1" fill="#fdfdfde6"/>
  <rect x="17" y="12" width="1" height="1" fill="#b4b4b456"/>
  <rect x="20" y="12" width="1" height="1" fill="#01010140"/>
  <rect x="22" y="12" width="1" height="2" fill="#f8f8f8ef"/>
  <rect x="23" y="12" width="1" height="1" fill="#0101014f"/>
  <rect x="24" y="12" width="2" height="1" fill="#03030340"/>
  <rect x="26" y="12" width="1" height="1" fill="#03030344"/>
  <rect x="27" y="12" width="1" height="1" fill="#03030353"/>
  <rect x="28" y="12" width="1" height="1" fill="#f5f5f5f0"/>
  <rect x="29" y="12" width="1" height="1" fill="#f5f5f5f1"/>
  <rect x="30" y="12" width="1" height="1" fill="#f3f3f3f0"/>
  <rect x="31" y="12" width="1" height="1" fill="#00000053"/>
  <rect x="32" y="12" width="1" height="1" fill="#00000044"/>
  <rect x="33" y="12" width="2" height="1" fill="#00000040"/>
  <rect x="35" y="12" width="1" height="2" fill="#0000004f"/>
  <rect x="36" y="12" width="1" height="2" fill="#f2f2f2ef"/>
  <rect x="37" y="12" width="1" height="3" fill="#0101014f"/>
  <rect x="44" y="12" width="1" height="1" fill="#02020240"/>
  <rect x="45" y="12" width="1" height="1" fill="#00000044"/>
  <rect x="46" y="12" width="1" height="1" fill="#00000053"/>
  <rect x="47" y="12" width="1" height="1" fill="#e9e9e9f0"/>
  <rect x="48" y="12" width="1" height="1" fill="#f7f7f7f2"/>
  <rect x="49" y="12" width="1" height="1" fill="#f2f2f2f2"/>
  <rect x="50" y="12" width="1" height="1" fill="#eaeaeaf2"/>
  <rect x="51" y="12" width="1" height="1" fill="#f2f2f2f0"/>
  <rect x="52" y="12" width="1" height="1" fill="#00000053"/>
  <rect x="53" y="12" width="1" height="1" fill="#00000044"/>
  <rect x="56" y="12" width="1" height="3" fill="#f8f8f8ef"/>
  <rect x="57" y="12" width="1" height="4" fill="#0202024f"/>
  <rect x="58" y="12" width="1" height="4" fill="#03030340"/>
  <rect x="61" y="12" width="1" height="3" fill="#b4b6b856"/>
  <rect x="62" y="12" width="1" height="4" fill="#c2c4c6e6"/>
  <rect x="63" y="12" width="1" height="2" fill="#b5b7b956"/>
  <rect x="66" y="12" width="1" height="1" fill="#b6b8ba16"/>
  <rect x="67" y="12" width="1" height="1" fill="#b6b8ba6b"/>
  <rect x="68" y="12" width="1" height="1" fill="#c7c9cae6"/>
  <rect x="69" y="12" width="1" height="1" fill="#c0c2c3e6"/>
  <rect x="70" y="12" width="1" height="1" fill="#c3c5c7e6"/>
  <rect x="71" y="12" width="1" height="1" fill="#b2b4b56b"/>
  <rect x="72" y="12" width="1" height="1" fill="#b6b8ba16"/>
  <rect x="75" y="12" width="1" height="1" fill="#b6b9b856"/>
  <rect x="1" y="13" width="1" height="1" fill="#b0b0b056"/>
  <rect x="2" y="13" width="1" height="1" fill="#ffffffe6"/>
  <rect x="3" y="13" width="1" height="1" fill="#b2b2b256"/>
  <rect x="7" y="13" width="1" height="1" fill="#bebebe16"/>
  <rect x="8" y="13" width="1" height="1" fill="#b3b3b36b"/>
  <rect x="9" y="13" width="1" height="1" fill="#ffffffe6"/>
  <rect x="10" y="13" width="1" height="1" fill="#b7b7b76b"/>
  <rect x="11" y="13" width="1" height="1" fill="#b7b7b716"/>
  <rect x="15" y="13" width="1" height="1" fill="#b3b3b356"/>
  <rect x="16" y="13" width="1" height="3" fill="#ffffffe6"/>
  <rect x="17" y="13" width="1" height="2" fill="#b7b7b756"/>
  <rect x="20" y="13" width="1" height="1" fill="#00000040"/>
  <rect x="23" y="13" width="1" height="1" fill="#0000004f"/>
  <rect x="24" y="13" width="3" height="1" fill="#00000040"/>
  <rect x="27" y="13" width="1" height="1" fill="#00000044"/>
  <rect x="28" y="13" width="1" height="1" fill="#00000053"/>
  <rect x="29" y="13" width="1" height="1" fill="#f3f3f3ef"/>
  <rect x="30" y="13" width="1" height="2" fill="#00000053"/>
  <rect x="31" y="13" width="1" height="1" fill="#00000044"/>
  <rect x="32" y="13" width="3" height="1" fill="#00000040"/>
  <rect x="44" y="13" width="1" height="1" fill="#00000040"/>
  <rect x="45" y="13" width="1" height="1" fill="#02020240"/>
  <rect x="46" y="13" width="1" height="1" fill="#03030344"/>
  <rect x="47" y="13" width="1" height="1" fill="#00000053"/>
  <rect x="48" y="13" width="1" height="1" fill="#f3f3f3f0"/>
  <rect x="49" y="13" width="1" height="1" fill="#f8f8f8f1"/>
  <rect x="50" y="13" width="1" height="1" fill="#f6f6f6f0"/>
  <rect x="51" y="13" width="1" height="1" fill="#08080853"/>
  <rect x="52" y="13" width="1" height="1" fill="#00000044"/>
  <rect x="53" y="13" width="2" height="1" fill="#00000040"/>
  <rect x="67" y="13" width="1" height="1" fill="#b9bbbc16"/>
  <rect x="68" y="13" width="1" height="1" fill="#b9bbbc6b"/>
  <rect x="69" y="13" width="1" height="1" fill="#c7c9cae6"/>
  <rect x="70" y="13" width="1" height="1" fill="#b2b4b56b"/>
  <rect x="71" y="13" width="1" height="1" fill="#b5b7b916"/>
  <rect x="75" y="13" width="1" height="1" fill="#b9bbba56"/>
  <rect x="1" y="14" width="1" height="1" fill="#b9b9b956"/>
  <rect x="2" y="14" width="1" height="1" fill="#f5f5f5e6"/>
  <rect x="3" y="14" width="1" height="1" fill="#bdbdbd96"/>
  <rect x="4" y="14" width="1" height="1" fill="#b9b9b956"/>
  <rect x="5" y="14" width="1" height="1" fill="#b7b7b756"/>
  <rect x="6" y="14" width="2" height="1" fill="#b4b4b456"/>
  <rect x="8" y="14" width="1" height="1" fill="#b4b4b46b"/>
  <rect x="9" y="14" width="1" height="1" fill="#b6b6b681"/>
  <rect x="10" y="14" width="1" height="1" fill="#b1b1b16b"/>
  <rect x="11" y="14" width="1" height="1" fill="#b6b6b656"/>
  <rect x="12" y="14" width="1" height="1" fill="#b4b4b456"/>
  <rect x="13" y="14" width="1" height="1" fill="#b3b3b356"/>
  <rect x="14" y="14" width="1" height="1" fill="#b0b0b056"/>
  <rect x="15" y="14" width="1" height="1" fill="#aaaaaa96"/>
  <rect x="20" y="14" width="1" height="1" fill="#03030340"/>
  <rect x="21" y="14" width="1" height="1" fill="#0202024f"/>
  <rect x="22" y="14" width="1" height="1" fill="#f1f1f1f0"/>
  <rect x="23" y="14" width="1" height="1" fill="#0000005a"/>
  <rect x="24" y="14" width="4" height="1" fill="#0202024f"/>
  <rect x="28" y="14" width="1" height="1" fill="#02020253"/>
  <rect x="29" y="14" width="1" height="1" fill="#03030356"/>
  <rect x="31" y="14" width="1" height="1" fill="#0505054f"/>
  <rect x="32" y="14" width="3" height="1" fill="#0202024f"/>
  <rect x="35" y="14" width="1" height="1" fill="#0202025a"/>
  <rect x="36" y="14" width="1" height="1" fill="#f2f2f2f0"/>
  <rect x="44" y="14" width="1" height="1" fill="#02020240"/>
  <rect x="45" y="14" width="2" height="1" fill="#00000040"/>
  <rect x="47" y="14" width="1" height="1" fill="#01010144"/>
  <rect x="48" y="14" width="1" height="1" fill="#00000053"/>
  <rect x="49" y="14" width="1" height="1" fill="#fdfdfdef"/>
  <rect x="50" y="14" width="1" height="2" fill="#00000053"/>
  <rect x="51" y="14" width="1" height="1" fill="#03030344"/>
  <rect x="52" y="14" width="3" height="1" fill="#00000040"/>
  <rect x="63" y="14" width="1" height="1" fill="#b5b7b996"/>
  <rect x="64" y="14" width="4" height="1" fill="#b4b6b856"/>
  <rect x="68" y="14" width="1" height="1" fill="#b2b4b56b"/>
  <rect x="69" y="14" width="1" height="1" fill="#b4b6b881"/>
  <rect x="70" y="14" width="1" height="1" fill="#b5b7b96b"/>
  <rect x="71" y="14" width="1" height="1" fill="#adafb156"/>
  <rect x="72" y="14" width="2" height="1" fill="#b4b6b856"/>
  <rect x="74" y="14" width="1" height="1" fill="#b4b6b656"/>
  <rect x="75" y="14" width="1" height="1" fill="#b4b6b696"/>
  <rect x="1" y="15" width="1" height="1" fill="#afafaf40"/>
  <rect x="2" y="15" width="7" height="1" fill="#ffffffe6"/>
  <rect x="9" y="15" width="1" height="1" fill="#fdfdfde6"/>
  <rect x="10" y="15" width="1" height="1" fill="#fafafae6"/>
  <rect x="11" y="15" width="1" height="1" fill="#fdfdfde6"/>
  <rect x="12" y="15" width="1" height="1" fill="#ffffffe6"/>
  <rect x="13" y="15" width="1" height="1" fill="#fcfbfce6"/>
  <rect x="14" y="15" width="1" height="1" fill="#f9f9f9e6"/>
  <rect x="15" y="15" width="1" height="1" fill="#fafafae6"/>
  <rect x="17" y="15" width="1" height="1" fill="#b7b7b740"/>
  <rect x="20" y="15" width="1" height="1" fill="#06060640"/>
  <rect x="21" y="15" width="1" height="1" fill="#0101014b"/>
  <rect x="22" y="15" width="1" height="1" fill="#f2f2f2ef"/>
  <rect x="23" y="15" width="1" height="1" fill="#fffffff0"/>
  <rect x="24" y="15" width="4" height="1" fill="#f5f5f5ef"/>
  <rect x="28" y="15" width="1" height="1" fill="#fafafaef"/>
  <rect x="29" y="15" width="1" height="1" fill="#f1f1f1ef"/>
  <rect x="30" y="15" width="2" height="1" fill="#f0f0f0ef"/>
  <rect x="32" y="15" width="3" height="1" fill="#f3f3f3ef"/>
  <rect x="35" y="15" width="1" height="1" fill="#f3f3f3f0"/>
  <rect x="36" y="15" width="1" height="1" fill="#f2f2f2ef"/>
  <rect x="37" y="15" width="1" height="1" fill="#0101014b"/>
  <rect x="42" y="15" width="1" height="1" fill="#f6f6f6f0"/>
  <rect x="43" y="15" width="1" height="1" fill="#0000005a"/>
  <rect x="44" y="15" width="1" height="1" fill="#0303034f"/>
  <rect x="45" y="15" width="1" height="1" fill="#0000004f"/>
  <rect x="46" y="15" width="1" height="1" fill="#0707074f"/>
  <rect x="47" y="15" width="1" height="1" fill="#0000004f"/>
  <rect x="48" y="15" width="1" height="1" fill="#01010153"/>
  <rect x="49" y="15" width="1" height="1" fill="#00000056"/>
  <rect x="51" y="15" width="1" height="1" fill="#0303034f"/>
  <rect x="52" y="15" width="3" height="1" fill="#0000004f"/>
  <rect x="55" y="15" width="1" height="1" fill="#0000005a"/>
  <rect x="56" y="15" width="1" height="1" fill="#f8f8f8f0"/>
  <rect x="61" y="15" width="1" height="1" fill="#b4b6b840"/>
  <rect x="63" y="15" width="1" height="1" fill="#b5b7b9e6"/>
  <rect x="64" y="15" width="4" height="1" fill="#c1c3c4e6"/>
  <rect x="68" y="15" width="1" height="1" fill="#c0c2c3e6"/>
  <rect x="69" y="15" width="1" height="1" fill="#c3c5c7e6"/>
  <rect x="70" y="15" width="1" height="1" fill="#c7c9cae6"/>
  <rect x="71" y="15" width="1" height="1" fill="#c0c2c3e6"/>
  <rect x="72" y="15" width="2" height="1" fill="#c1c3c4e6"/>
  <rect x="74" y="15" width="2" height="1" fill="#c1c3c2e6"/>
  <rect x="77" y="15" width="1" height="1" fill="#b7b7b740"/>
  <rect x="1" y="16" width="1" height="1" fill="#b6b6b616"/>
  <rect x="2" y="16" width="1" height="1" fill="#b6b6b640"/>
  <rect x="3" y="16" width="13" height="1" fill="#b6b6b656"/>
  <rect x="16" y="16" width="1" height="1" fill="#b7b7b740"/>
  <rect x="17" y="16" width="1" height="1" fill="#b8b8b816"/>
  <rect x="20" y="16" width="1" height="1" fill="#00000040"/>
  <rect x="21" y="16" width="1" height="1" fill="#00000044"/>
  <rect x="22" y="16" width="1" height="1" fill="#0000004b"/>
  <rect x="23" y="16" width="13" height="1" fill="#0000004f"/>
  <rect x="36" y="16" width="1" height="1" fill="#0000004b"/>
  <rect x="37" y="16" width="1" height="1" fill="#00000044"/>
  <rect x="41" y="16" width="1" height="1" fill="#0000004b"/>
  <rect x="42" y="16" width="1" height="1" fill="#f8f8f8ef"/>
  <rect x="43" y="16" width="1" height="1" fill="#f0f0f0f0"/>
  <rect x="44" y="16" width="1" height="1" fill="#f6f6f6ef"/>
  <rect x="45" y="16" width="2" height="1" fill="#f8f8f8ef"/>
  <rect x="47" y="16" width="1" height="1" fill="#f6f6f6ef"/>
  <rect x="48" y="16" width="2" height="1" fill="#f8f8f8ef"/>
  <rect x="50" y="16" width="1" height="1" fill="#f3f3f3ef"/>
  <rect x="51" y="16" width="1" height="1" fill="#f7f7f7ef"/>
  <rect x="52" y="16" width="3" height="1" fill="#f6f6f6ef"/>
  <rect x="55" y="16" width="1" height="1" fill="#f6f6f6f0"/>
  <rect x="56" y="16" width="1" height="1" fill="#f5f5f5ef"/>
  <rect x="57" y="16" width="1" height="1" fill="#0808084b"/>
  <rect x="58" y="16" width="2" height="1" fill="#00000040"/>
  <rect x="61" y="16" width="1" height="1" fill="#b1b1b116"/>
  <rect x="62" y="16" width="1" height="1" fill="#b9b9b940"/>
  <rect x="63" y="16" width="1" height="1" fill="#b3b3b356"/>
  <rect x="64" y="16" width="4" height="1" fill="#b6b6b656"/>
  <rect x="68" y="16" width="2" height="1" fill="#b6b5b856"/>
  <rect x="70" y="16" width="6" height="1" fill="#b6b6b656"/>
  <rect x="76" y="16" width="1" height="1" fill="#b6b6b640"/>
  <rect x="77" y="16" width="1" height="1" fill="#b6b6b616"/>
  <rect x="20" y="17" width="20" height="1" fill="#00000040"/>
  <rect x="40" y="17" width="1" height="1" fill="#02020240"/>
  <rect x="41" y="17" width="1" height="1" fill="#00000044"/>
  <rect x="42" y="17" width="1" height="1" fill="#0000004b"/>
  <rect x="43" y="17" width="2" height="1" fill="#0000004f"/>
  <rect x="45" y="17" width="1" height="1" fill="#0101014f"/>
  <rect x="46" y="17" width="2" height="1" fill="#0000004f"/>
  <rect x="48" y="17" width="2" height="1" fill="#0101014f"/>
  <rect x="50" y="17" width="6" height="1" fill="#0000004f"/>
  <rect x="56" y="17" width="1" height="1" fill="#0000004b"/>
  <rect x="57" y="17" width="1" height="1" fill="#00000044"/>
  <rect x="58" y="17" width="1" height="1" fill="#00000040"/>
  <rect x="59" y="17" width="1" height="1" fill="#02020240"/>
  <rect x="20" y="18" width="1" height="1" fill="#0000003a"/>
  <rect x="21" y="18" width="18" height="1" fill="#00000040"/>
  <rect x="39" y="18" width="2" height="1" fill="#0000003a"/>
  <rect x="41" y="18" width="1" height="1" fill="#00000040"/>
  <rect x="42" y="18" width="1" height="1" fill="#01010140"/>
  <rect x="43" y="18" width="1" height="1" fill="#03030340"/>
  <rect x="44" y="18" width="12" height="1" fill="#00000040"/>
  <rect x="56" y="18" width="1" height="1" fill="#02020240"/>
  <rect x="57" y="18" width="1" height="1" fill="#00000040"/>
  <rect x="58" y="18" width="1" height="1" fill="#01010140"/>
  <rect x="59" y="18" width="1" height="1" fill="#0000003a"/>
  <rect x="20" y="19" width="1" height="1" fill="#00000013"/>
  <rect x="21" y="19" width="1" height="1" fill="#0000003a"/>
  <rect x="22" y="19" width="16" height="1" fill="#00000040"/>
  <rect x="38" y="19" width="1" height="1" fill="#00000039"/>
  <rect x="39" y="19" width="2" height="1" fill="#00000013"/>
  <rect x="41" y="19" width="1" height="1" fill="#0000003a"/>
  <rect x="42" y="19" width="1" height="1" fill="#00000040"/>
  <rect x="43" y="19" width="1" height="1" fill="#02020240"/>
  <rect x="44" y="19" width="14" height="1" fill="#00000040"/>
  <rect x="58" y="19" width="1" height="1" fill="#00000039"/>
  <rect x="59" y="19" width="1" height="1" fill="#00000013"/>
</svg>