<svg xmlns="http://www.w3.org/2000/svg" width="80" height="20" viewBox="0 0 80 20" shape-rendering="crispEdges">
  <rect x="20" y="0" width="1" height="1" fill="#00000012"/>
  <rect x="21" y="0" width="1" height="1" fill="#0000003a"/>
  <rect x="22" y="0" width="16" height="1" fill="#00000040"/>
  <rect x="38" y="0" width="1" height="1" fill="#0000003a"/>
  <rect x="39" y="0" width="2" height="1" fill="#00000012"/>
  <rect x="41" y="0" width="1" height="1" fill="#0000003a"/>
  <rect x="42" y="0" width="16" height="1" fill="#00000040"/>
  <rect x="58" y="0" width="1" height="1" fill="#0000003a"/>
  <rect x="59" y="0" width="1" height="1" fill="#00000012"/>
  <rect x="20" y="1" width="1" height="1" fill="#0000003a"/>
  <rect x="21" y="1" width="18" height="1" fill="#00000040"/>
  <rect x="39" y="1" width="2" height="1" fill="#0000003a"/>
  <rect x="41" y="1" width="18" height="1" fill="#00000040"/>
  <rect x="59" y="1" width="1" height="1" fill="#0000003a"/>
  <rect x="20" y="2" width="40" height="1" fill="#00000040"/>
  <rect x="3" y="3" width="1" height="1" fill="#bababa16"/>
  <rect x="4" y="3" width="1" height="1" fill="#b6b6b640"/>
  <rect x="5" y="3" width="3" height="1" fill="#b6b6b656"/>
  <rect x="8" y="3" width="7" height="1" fill="#b7b7b756"/>
  <rect x="15" y="3" width="1" height="1" fill="#b7b7b740"/>
  <rect x="16" y="3" width="1" height="1" fill="#b9b9b916"/>
  <rect x="20" y="3" width="3" height="10" fill="#00000040"/>
  <rect x="23" y="3" width="1" height="1" fill="#00000044"/>
  <rect x="24" y="3" width="1" height="1" fill="#0000004b"/>
  <rect x="25" y="3" width="10" height="1" fill="#0000004f"/>
  <rect x="35" y="3" width="1" height="1" fill="#0000004b"/>
  <rect x="36" y="3" width="1" height="1" fill="#00000044"/>
  <rect x="37" y="3" width="23" height="1" fill="#00000040"/>
  <rect x="63" y="3" width="1" height="1" fill="#b4b4b616"/>
  <rect x="64" y="3" width="1" height="1" fill="#b3b5b640"/>
  <rect x="65" y="3" width="3" height="1" fill="#b3b5b656"/>
  <rect x="68" y="3" width="2" height="1" fill="#b3b5b956"/>
  <rect x="70" y="3" width="2" height="1" fill="#b3b5b656"/>
  <rect x="72" y="3" width="3" height="1" fill="#b3b5b456"/>
  <rect x="75" y="3" width="1" height="1" fill="#b3b6b240"/>
  <rect x="76" y="3" width="1" height="1" fill="#b9bcb816"/>
  <rect x="3" y="4" width="1" height="1" fill="#b6b6b640"/>
  <rect x="4" y="4" width="1" height="1" fill="#f8f8f8e6"/>
  <rect x="5" y="4" width="1" height="1" fill="#fdfdfde6"/>
  <rect x="6" y="4" width="8" height="1" fill="#ffffffe6"/>
  <rect x="14" y="4" width="1" height="1" fill="#f7f7f7e6"/>
  <rect x="15" y="4" width="1" height="1" fill="#fafafae6"/>
  <rect x="16" y="4" width="1" height="1" fill="#b9b9b940"/>
  <rect x="23" y="4" width="1" height="1" fill="#0000004b"/>
  <rect x="24" y="4" width="1" height="1" fill="#f7f7f7f0"/>
  <rect x="25" y="4" width="1" height="1" fill="#f7f7f7f1"/>
  <rect x="26" y="4" width="1" height="1" fill="#efefeff1"/>
  <rect x="27" y="4" width="5" height="1" fill="#f5f5f5f1"/>
  <rect x="32" y="4" width="1" height="1" fill="#e8e8e8f1"/>
  <rect x="33" y="4" width="1" height="1" fill="#f0f0f0f1"/>
  <rect x="34" y="4" width="1" height="1" fill="#f8f8f8f1"/>
  <rect x="35" y="4" width="1" height="1" fill="#f2f2f2f0"/>
  <rect x="36" y="4" width="1" height="1" fill="#0000004b"/>
  <rect x="37" y="4" width="6" height="6" fill="#00000040"/>
  <rect x="43" y="4" width="1" height="1" fill="#00000044"/>
  <rect x="44" y="4" width="1" height="1" fill="#0000004b"/>
  <rect x="45" y="4" width="10" height="1" fill="#0000004f"/>
  <rect x="55" y="4" width="1" height="1" fill="#0000004b"/>
  <rect x="56" y="4" width="1" height="1" fill="#02020244"/>
  <rect x="57" y="4" width="3" height="2" fill="#00000040"/>
  <rect x="63" y="4" width="1" height="1" fill="#b6b5b840"/>
  <rect x="64" y="4" width="2" height="1" fill="#c1c3c4e6"/>
  <rect x="66" y="4" width="2" height="1" fill="#c2c4c6e6"/>
  <rect x="68" y="4" width="2" height="1" fill="#c3c5c9e6"/>
  <rect x="70" y="4" width="1" height="1" fill="#c4c6c8e6"/>
  <rect x="71" y="4" width="1" height="1" fill="#c2c4c6e6"/>
  <rect x="72" y="4" width="1" height="1" fill="#c1c3c4e6"/>
  <rect x="73" y="4" width="1" height="1" fill="#c0c2c3e6"/>
  <rect x="74" y="4" width="2" height="1" fill="#c0c2c1e6"/>
  <rect x="76" y="4" width="1" height="1" fill="#b8bab940"/>
  <rect x="3" y="5" width="1" height="3" fill="#b6b6b656"/>
  <rect x="4" y="5" width="1" height="1" fill="#fefefee6"/>
  <rect x="5" y="5" width="1" height="1" fill="#ffffffe6"/>
  <rect x="6" y="5" width="1" height="1" fill="#efefefe6"/>
  <rect x="7" y="5" width="1" height="1" fill="#ffffffe6"/>
  <rect x="8" y="5" width="4" height="1" fill="#fdfdfde6"/>
  <rect x="12" y="5" width="1" height="1" fill="#ffffffe6"/>
  <rect x="13" y="5" width="1" height="1" fill="#f8f8f8e6"/>
  <rect x="14" y="5" width="2" height="1" fill="#ffffffe6"/>
  <rect x="16" y="5" width="1" height="1" fill="#bababa56"/>
  <rect x="23" y="5" width="1" height="8" fill="#0000004f"/>
  <rect x="24" y="5" width="1" height="1" fill="#f5f5f5f1"/>
  <rect x="25" y="5" width="1" height="1" fill="#f6f6f6f2"/>
  <rect x="26" y="5" width="6" height="1" fill="#f0f0f0f2"/>
  <rect x="32" y="5" width="1" height="1" fill="#f1f1f1f2"/>
  <rect x="33" y="5" width="1" height="1" fill="#f5f5f5f2"/>
  <rect x="34" y="5" width="1" height="1" fill="#f8f8f8f2"/>
  <rect x="35" y="5" width="1" height="1" fill="#f2f2f2f1"/>
  <rect x="36" y="5" width="1" height="5" fill="#0000004f"/>
  <rect x="43" y="5" width="1" height="1" fill="#0000004b"/>
  <rect x="44" y="5" width="1" height="1" fill="#f3f3f3f0"/>
  <rect x="45" y="5" width="10" height="1" fill="#f3f3f3f1"/>
  <rect x="55" y="5" width="1" height="1" fill="#f3f3f3f0"/>
  <rect x="56" y="5" width="1" height="1" fill="#0202024b"/>
  <rect x="63" y="5" width="1" height="10" fill="#b6b5b856"/>
  <rect x="64" y="5" width="3" height="1" fill="#c6c8c9e6"/>
  <rect x="67" y="5" width="1" height="1" fill="#c3c5c7e6"/>
  <rect x="68" y="5" width="1" height="1" fill="#c2c4c8e6"/>
  <rect x="69" y="5" width="1" height="1" fill="#c1c2c6e6"/>
  <rect x="70" y="5" width="2" height="1" fill="#c1c3c4e6"/>
  <rect x="72" y="5" width="2" height="1" fill="#c2c4c6e6"/>
  <rect x="74" y="5" width="2" height="1" fill="#c2c4c4e6"/>
  <rect x="76" y="5" width="1" height="1" fill="#b6b9b856"/>
  <rect x="4" y="6" width="1" height="1" fill="#fafafae6"/>
  <rect x="5" y="6" width="7" height="1" fill="#ffffffe6"/>
  <rect x="12" y="6" width="1" height="1" fill="#f7f7f7e6"/>
  <rect x="13" y="6" width="1" height="1" fill="#ffffffe6"/>
  <rect x="14" y="6" width="1" height="1" fill="#fafafae6"/>
  <rect x="15" y="6" width="1" height="1" fill="#f7f7f7e6"/>
  <rect x="16" y="6" width="1" height="1" fill="#b8b8b856"/>
  <rect x="24" y="6" width="1" height="1" fill="#eeeeeef0"/>
  <rect x="25" y="6" width="1" height="1" fill="#ecececf1"/>
  <rect x="26" y="6" width="6" height="1" fill="#f3f3f3f1"/>
  <rect x="32" y="6" width="1" height="1" fill="#f5f5f5f1"/>
  <rect x="33" y="6" width="1" height="1" fill="#f2f2f2f1"/>
  <rect x="34" y="6" width="1" height="1" fill="#efefeff1"/>
  <rect x="35" y="6" width="1" height="1" fill="#f5f5f5f0"/>
  <rect x="43" y="6" width="1" height="10" fill="#0000004f"/>
  <rect x="44" y="6" width="1" height="1" fill="#f0f0f0f1"/>
  <rect x="45" y="6" width="10" height="1" fill="#f0f0f0f2"/>
  <rect x="55" y="6" width="1" height="1" fill="#f0f0f0f1"/>
  <rect x="56" y="6" width="1" height="2" fill="#0202024f"/>
  <rect x="57" y="6" width="2" height="2" fill="#00000040"/>
  <rect x="59" y="6" width="1" height="2" fill="#01010140"/>
  <rect x="64" y="6" width="4" height="1" fill="#c2c4c6e6"/>
  <rect x="68" y="6" width="2" height="1" fill="#c3c5c9e6"/>
  <rect x="70" y="6" width="1" height="1" fill="#c3c5c7e6"/>
  <rect x="71" y="6" width="1" height="1" fill="#c2c4c6e6"/>
  <rect x="72" y="6" width="1" height="1" fill="#c1c3c4e6"/>
  <rect x="73" y="6" width="1" height="1" fill="#c0c2c3e6"/>
  <rect x="74" y="6" width="2" height="1" fill="#c0c2c1e6"/>
  <rect x="76" y="6" width="1" height="1" fill="#b5b8b756"/>
  <rect x="4" y="7" width="1" height="5" fill="#fdfdfde6"/>
  <rect x="5" y="7" width="1" height="1" fill="#b3b3b396"/>
  <rect x="6" y="7" width="1" height="1" fill="#b6b6b656"/>
  <rect x="7" y="7" width="1" height="1" fill="#b3b3b356"/>
  <rect x="8" y="7" width="4" height="1" fill="#b7b7b756"/>
  <rect x="12" y="7" width="1" height="1" fill="#b2b2b256"/>
  <rect x="13" y="7" width="1" height="1" fill="#bdbdbd56"/>
  <rect x="14" y="7" width="1" height="1" fill="#afafaf96"/>
  <rect x="15" y="7" width="1" height="7" fill="#ffffffe6"/>
  <rect x="16" y="7" width="1" height="4" fill="#b9b9b956"/>
  <rect x="24" y="7" width="1" height="1" fill="#f5f5f5f0"/>
  <rect x="25" y="7" width="1" height="1" fill="#0000005a"/>
  <rect x="26" y="7" width="6" height="1" fill="#0000004f"/>
  <rect x="32" y="7" width="1" height="1" fill="#0202024f"/>
  <rect x="33" y="7" width="1" height="1" fill="#0000004f"/>
  <rect x="34" y="7" width="1" height="1" fill="#0808085a"/>
  <rect x="35" y="7" width="1" height="1" fill="#f3f3f3f0"/>
  <rect x="44" y="7" width="1" height="1" fill="#f7f7f7f0"/>
  <rect x="45" y="7" width="10" height="1" fill="#f7f7f7f1"/>
  <rect x="55" y="7" width="1" height="1" fill="#f7f7f7f0"/>
  <rect x="64" y="7" width="1" height="1" fill="#b9bbbce6"/>
  <rect x="65" y="7" width="1" height="1" fill="#b9bbbc96"/>
  <rect x="66" y="7" width="1" height="1" fill="#b9bbbc56"/>
  <rect x="67" y="7" width="1" height="1" fill="#b8babb56"/>
  <rect x="68" y="7" width="1" height="1" fill="#b6b8bc56"/>
  <rect x="69" y="7" width="1" height="1" fill="#b5b7bb56"/>
  <rect x="70" y="7" width="2" height="1" fill="#b6b8ba56"/>
  <rect x="72" y="7" width="2" height="1" fill="#b8babb56"/>
  <rect x="74" y="7" width="1" height="1" fill="#b9bbba96"/>
  <rect x="75" y="7" width="1" height="1" fill="#b8bab9e6"/>
  <rect x="76" y="7" width="1" height="1" fill="#b6b9b856"/>
  <rect x="3" y="8" width="1" height="3" fill="#b7b7b756"/>
  <rect x="5" y="8" width="1" height="4" fill="#b6b6b656"/>
  <rect x="14" y="8" width="1" height="4" fill="#b4b4b456"/>
  <rect x="24" y="8" width="1" height="3" fill="#f8f8f8ef"/>
  <rect x="25" y="8" width="1" height="6" fill="#0000004f"/>
  <rect x="26" y="8" width="1" height="4" fill="#01010140"/>
  <rect x="27" y="8" width="1" height="4" fill="#03030340"/>
  <rect x="28" y="8" width="4" height="4" fill="#00000040"/>
  <rect x="32" y="8" width="1" height="4" fill="#03030340"/>
  <rect x="33" y="8" width="1" height="4" fill="#00000040"/>
  <rect x="34" y="8" width="1" height="6" fill="#0000004f"/>
  <rect x="35" y="8" width="1" height="1" fill="#f5f5f5ef"/>
  <rect x="44" y="8" width="1" height="1" fill="#f3f3f3f0"/>
  <rect x="45" y="8" width="1" height="1" fill="#0606065a"/>
  <rect x="46" y="8" width="1" height="1" fill="#0101014f"/>
  <rect x="47" y="8" width="6" height="1" fill="#0000004f"/>
  <rect x="53" y="8" width="1" height="1" fill="#0101014f"/>
  <rect x="54" y="8" width="1" height="1" fill="#0101015a"/>
  <rect x="55" y="8" width="1" height="1" fill="#f6f6f6f0"/>
  <rect x="56" y="8" width="1" height="8" fill="#0101014f"/>
  <rect x="57" y="8" width="3" height="8" fill="#00000040"/>
  <rect x="64" y="8" width="1" height="4" fill="#bfc1c2e6"/>
  <rect x="65" y="8" width="1" height="4" fill="#b2b4b556"/>
  <rect x="74" y="8" width="1" height="4" fill="#b5b7b956"/>
  <rect x="75" y="8" width="1" height="4" fill="#c6c8c9e6"/>
  <rect x="76" y="8" width="1" height="4" fill="#b6b8ba56"/>
  <rect x="35" y="9" width="1" height="3" fill="#f7f7f7ef"/>
  <rect x="44" y="9" width="1" height="1" fill="#f3f3f3ef"/>
  <rect x="45" y="9" width="1" height="3" fill="#0606064f"/>
  <rect x="46" y="9" width="1" height="1" fill="#01010140"/>
  <rect x="47" y="9" width="6" height="1" fill="#00000040"/>
  <rect x="53" y="9" width="1" height="6" fill="#01010140"/>
  <rect x="54" y="9" width="1" height="6" fill="#0101014f"/>
  <rect x="55" y="9" width="1" height="6" fill="#f6f6f6ef"/>
  <rect x="36" y="10" width="1" height="5" fill="#0101014f"/>
  <rect x="37" y="10" width="3" height="3" fill="#01010140"/>
  <rect x="40" y="10" width="3" height="3" fill="#00000040"/>
  <rect x="44" y="10" width="1" height="1" fill="#f5f5f5ef"/>
  <rect x="46" y="10" width="2" height="2" fill="#01010140"/>
  <rect x="48" y="10" width="5" height="5" fill="#00000040"/>
  <rect x="3" y="11" width="1" height="1" fill="#b6b6b656"/>
  <rect x="16" y="11" width="1" height="1" fill="#b8b8b856"/>
  <rect x="24" y="11" width="1" height="1" fill="#f7f7f7ef"/>
  <rect x="44" y="11" width="1" height="1" fill="#f6f6f6ef"/>
  <rect x="3" y="12" width="1" height="1" fill="#b4b4b456"/>
  <rect x="4" y="12" width="1" height="1" fill="#fcfbfce6"/>
  <rect x="5" y="12" width="1" height="1" fill="#bebebe56"/>
  <rect x="14" y="12" width="1" height="1" fill="#b1b1b156"/>
  <rect x="16" y="12" width="1" height="1" fill="#b9b9b956"/>
  <rect x="24" y="12" width="1" height="2" fill="#f3f3f3ef"/>
  <rect x="26" y="12" width="1" height="1" fill="#05050540"/>
  <rect x="27" y="12" width="1" height="1" fill="#02020240"/>
  <rect x="28" y="12" width="4" height="1" fill="#05050540"/>
  <rect x="32" y="12" width="2" height="1" fill="#02020240"/>
  <rect x="35" y="12" width="1" height="1" fill="#f0f0f0ef"/>
  <rect x="44" y="12" width="1" height="1" fill="#f7f7f7ef"/>
  <rect x="45" y="12" width="1" height="3" fill="#0000004f"/>
  <rect x="46" y="12" width="1" height="2" fill="#02020240"/>
  <rect x="47" y="12" width="1" height="2" fill="#01010140"/>
  <rect x="64" y="12" width="1" height="2" fill="#c8cacbe6"/>
  <rect x="65" y="12" width="1" height="1" fill="#b9bbbc56"/>
  <rect x="74" y="12" width="1" height="1" fill="#b1b3b456"/>
  <rect x="75" y="12" width="1" height="1" fill="#c1c3c4e6"/>
  <rect x="76" y="12" width="1" height="2" fill="#b8babb56"/>
  <rect x="3" y="13" width="1" height="1" fill="#b3b3b356"/>
  <rect x="4" y="13" width="1" height="1" fill="#f9f9f9e6"/>
  <rect x="5" y="13" width="1" height="1" fill="#b7b7b756"/>
  <rect x="14" y="13" width="1" height="1" fill="#b3b3b356"/>
  <rect x="16" y="13" width="1" height="1" fill="#bebebe56"/>
  <rect x="20" y="13" width="3" height="1" fill="#03030340"/>
  <rect x="23" y="13" width="1" height="1" fill="#0303034f"/>
  <rect x="26" y="13" width="1" height="1" fill="#02020240"/>
  <rect x="27" y="13" width="1" height="1" fill="#05050540"/>
  <rect x="28" y="13" width="4" height="1" fill="#00000040"/>
  <rect x="32" y="13" width="1" height="1" fill="#02020240"/>
  <rect x="33" y="13" width="1" height="1" fill="#00000040"/>
  <rect x="35" y="13" width="1" height="1" fill="#fafafaef"/>
  <rect x="37" y="13" width="2" height="2" fill="#01010140"/>
  <rect x="39" y="13" width="4" height="2" fill="#00000040"/>
  <rect x="44" y="13" width="1" height="1" fill="#f8f8f8ef"/>
  <rect x="65" y="13" width="1" height="1" fill="#b8babb56"/>
  <rect x="74" y="13" width="1" height="1" fill="#b3b5b656"/>
  <rect x="75" y="13" width="1" height="1" fill="#c3c5c7e6"/>
  <rect x="3" y="14" width="1" height="1" fill="#b4b4b456"/>
  <rect x="4" y="14" width="1" height="2" fill="#ffffffe6"/>
  <rect x="5" y="14" width="1" height="1" fill="#adadad96"/>
  <rect x="6" y="14" width="1" height="1" fill="#b9b9b956"/>
  <rect x="7" y="14" width="1" height="1" fill="#bdbdbd56"/>
  <rect x="8" y="14" width="4" height="1" fill="#bababa56"/>
  <rect x="12" y="14" width="1" height="1" fill="#b9b9b956"/>
  <rect x="13" y="14" width="1" height="1" fill="#bbbbbb56"/>
  <rect x="14" y="14" width="1" height="1" fill="#b6b6b696"/>
  <rect x="15" y="14" width="1" height="1" fill="#fdfdfde6"/>
  <rect x="16" y="14" width="1" height="1" fill="#b8b8b856"/>
  <rect x="20" y="14" width="3" height="3" fill="#00000040"/>
  <rect x="23" y="14" width="1" height="1" fill="#0000004f"/>
  <rect x="24" y="14" width="1" height="1" fill="#f6f6f6f0"/>
  <rect x="25" y="14" width="1" height="1" fill="#0000005a"/>
  <rect x="26" y="14" width="6" height="1" fill="#0000004f"/>
  <rect x="32" y="14" width="1" height="1" fill="#0505054f"/>
  <rect x="33" y="14" width="1" height="1" fill="#0303034f"/>
  <rect x="34" y="14" width="1" height="1" fill="#0101015a"/>
  <rect x="35" y="14" width="1" height="1" fill="#f3f3f3f0"/>
  <rect x="44" y="14" width="1" height="1" fill="#f9f9f9ef"/>
  <rect x="46" y="14" width="2" height="1" fill="#02020240"/>
  <rect x="64" y="14" width="1" height="1" fill="#bfc1c2e6"/>
  <rect x="65" y="14" width="1" height="1" fill="#aeb0b296"/>
  <rect x="66" y="14" width="1" height="1" fill="#b4b6b856"/>
  <rect x="67" y="14" width="1" height="1" fill="#b2b4b556"/>
  <rect x="68" y="14" width="4" height="1" fill="#b3b5b656"/>
  <rect x="72" y="14" width="1" height="1" fill="#b1b3b456"/>
  <rect x="73" y="14" width="1" height="1" fill="#b3b5b656"/>
  <rect x="74" y="14" width="1" height="1" fill="#aeb0b296"/>
  <rect x="75" y="14" width="1" height="1" fill="#bfc1c2e6"/>
  <rect x="76" y="14" width="1" height="1" fill="#b6b8ba56"/>
  <rect x="3" y="15" width="1" height="1" fill="#b4b4b440"/>
  <rect x="5" y="15" width="1" height="1" fill="#fdfdfde6"/>
  <rect x="6" y="15" width="2" height="1" fill="#fafafae6"/>
  <rect x="8" y="15" width="1" height="1" fill="#fefefee6"/>
  <rect x="9" y="15" width="3" height="1" fill="#ffffffe6"/>
  <rect x="12" y="15" width="1" height="1" fill="#fdfdfde6"/>
  <rect x="13" y="15" width="1" height="1" fill="#ffffffe6"/>
  <rect x="14" y="15" width="1" height="1" fill="#f5f5f5e6"/>
  <rect x="15" y="15" width="1" height="1" fill="#fefefee6"/>
  <rect x="16" y="15" width="1" height="1" fill="#b9b9b940"/>
  <rect x="23" y="15" width="1" height="1" fill="#0000004b"/>
  <rect x="24" y="15" width="1" height="1" fill="#f8f8f8ef"/>
  <rect x="25" y="15" width="1" height="1" fill="#f8f8f8f0"/>
  <rect x="26" y="15" width="1" height="1" fill="#f8f8f8ef"/>
  <rect x="27" y="15" width="2" height="1" fill="#f7f7f7ef"/>
  <rect x="29" y="15" width="3" height="1" fill="#f6f6f6ef"/>
  <rect x="32" y="15" width="1" height="1" fill="#f7f7f7ef"/>
  <rect x="33" y="15" width="1" height="1" fill="#ffffffef"/>
  <rect x="34" y="15" width="1" height="1" fill="#f5f5f5f0"/>
  <rect x="35" y="15" width="1" height="1" fill="#f6f6f6ef"/>
  <rect x="36" y="15" width="1" height="1" fill="#0101014b"/>
  <rect x="37" y="15" width="1" height="1" fill="#01010140"/>
  <rect x="38" y="15" width="5" height="1" fill="#00000040"/>
  <rect x="44" y="15" width="1" height="1" fill="#f9f9f9f0"/>
  <rect x="45" y="15" width="1" height="1" fill="#0000005a"/>
  <rect x="46" y="15" width="2" height="1" fill="#0202024f"/>
  <rect x="48" y="15" width="5" height="1" fill="#0000004f"/>
  <rect x="53" y="15" width="1" height="1" fill="#0101014f"/>
  <rect x="54" y="15" width="1" height="1" fill="#0101015a"/>
  <rect x="55" y="15" width="1" height="1" fill="#f6f6f6f0"/>
  <rect x="63" y="15" width="1" height="1" fill="#b6b5b840"/>
  <rect x="64" y="15" width="1" height="1" fill="#cbcdcfe6"/>
  <rect x="65" y="15" width="1" height="1" fill="#bcbec0e6"/>
  <rect x="66" y="15" width="1" height="1" fill="#c2c4c6e6"/>
  <rect x="67" y="15" width="1" height="1" fill="#bfc1c2e6"/>
  <rect x="68" y="15" width="5" height="1" fill="#c0c2c3e6"/>
  <rect x="73" y="15" width="1" height="1" fill="#c2c4c6e6"/>
  <rect x="74" y="15" width="1" height="1" fill="#bdbfc1e6"/>
  <rect x="75" y="15" width="1" height="1" fill="#ced0d1e6"/>
  <rect x="76" y="15" width="1" height="1" fill="#b6b8ba40"/>
  <rect x="3" y="16" width="1" height="1" fill="#b4b4b416"/>
  <rect x="4" y="16" width="1" height="1" fill="#b6b6b640"/>
  <rect x="5" y="16" width="10" height="1" fill="#b6b6b656"/>
  <rect x="15" y="16" width="1" height="1" fill="#b6b6b640"/>
  <rect x="16" y="16" width="1" height="1" fill="#b6b6b616"/>
  <rect x="23" y="16" width="1" height="1" fill="#00000044"/>
  <rect x="24" y="16" width="1" height="1" fill="#0000004b"/>
  <rect x="25" y="16" width="10" height="1" fill="#0000004f"/>
  <rect x="35" y="16" width="1" height="1" fill="#0000004b"/>
  <rect x="36" y="16" width="1" height="1" fill="#00000044"/>
  <rect x="37" y="16" width="6" height="1" fill="#00000040"/>
  <rect x="43" y="16" width="1" height="1" fill="#0000004b"/>
  <rect x="44" y="16" width="1" height="1" fill="#f5f5f5ef"/>
  <rect x="45" y="16" width="1" height="1" fill="#f5f5f5f0"/>
  <rect x="46" y="16" width="2" height="1" fill="#f5f5f5ef"/>
  <rect x="48" y="16" width="3" height="1" fill="#f6f6f6ef"/>
  <rect x="51" y="16" width="2" height="1" fill="#f5f5f5ef"/>
  <rect x="53" y="16" width="1" height="1" fill="#f3f3f3ef"/>
  <rect x="54" y="16" width="1" height="1" fill="#f3f3f3f0"/>
  <rect x="55" y="16" width="1" height="1" fill="#f3f3f3ef"/>
  <rect x="56" y="16" width="1" height="1" fill="#0101014b"/>
  <rect x="57" y="16" width="2" height="2" fill="#00000040"/>
  <rect x="59" y="16" width="1" height="2" fill="#01010140"/>
  <rect x="63" y="16" width="1" height="1" fill="#ababab16"/>
  <rect x="64" y="16" width="1" height="1" fill="#b6b6b640"/>
  <rect x="65" y="16" width="3" height="1" fill="#b6b6b656"/>
  <rect x="68" y="16" width="7" height="1" fill="#b6b5b856"/>
  <rect x="75" y="16" width="1" height="1" fill="#b6b5b840"/>
  <rect x="76" y="16" width="1" height="1" fill="#b7b6b916"/>
  <rect x="20" y="17" width="23" height="1" fill="#00000040"/>
  <rect x="43" y="17" width="1" height="1" fill="#00000044"/>
  <rect x="44" y="17" width="1" height="1" fill="#0000004b"/>
  <rect x="45" y="17" width="3" height="1" fill="#0000004f"/>
  <rect x="48" y="17" width="3" height="1" fill="#0101014f"/>
  <rect x="51" y="17" width="4" height="1" fill="#0000004f"/>
  <rect x="55" y="17" width="1" height="1" fill="#0000004b"/>
  <rect x="56" y="17" width="1" height="1" fill="#00000044"/>
  <rect x="20" y="18" width="1" height="1" fill="#0000003a"/>
  <rect x="21" y="18" width="18" height="1" fill="#00000040"/>
  <rect x="39" y="18" width="2" height="1" fill="#0000003a"/>
  <rect x="41" y="18" width="7" height="1" fill="#00000040"/>
  <rect x="48" y="18" width="10" height="1" fill="#01010140"/>
  <rect x="58" y="18" width="1" height="1" fill="#00000040"/>
  <rect x="59" y="18" width="1" height="1" fill="#0101013a"/>
  <rect x="20" y="19" width="1" height="1" fill="#00000013"/>
  <rect x="21" y="19" width="1" height="1" fill="#0000003a"/>
  <rect x="22" y="19" width="16" height="1" fill="#00000040"/>
  <rect x="38" y="19" width="1" height="1" fill="#00000039"/>
  <rect x="39" y="19" width="2" height="1" fill="#00000013"/>
  <rect x="41" y="19" width="1" height="1" fill="#0000003a"/>
  <rect x="42" y="19" width="6" height="1" fill="#00000040"/>
  <rect x="48" y="19" width="3" height="1" fill="#01010140"/>
  <rect x="51" y="19" width="7" height="1" fill="#00000040"/>
  <rect x="58" y="19" width="1" height="1" fill="#01010139"/>
  <rect x="59" y="19" width="1" height="1" fill="#01010113"/>
</svg>