<svg xmlns="http://www.w3.org/2000/svg" width="80" height="20" viewBox="0 0 80 20" shape-rendering="crispEdges">
  <rect x="20" y="0" width="1" height="1" fill="#01010112"/>
  <rect x="21" y="0" width="1" height="1" fill="#0101013a"/>
  <rect x="22" y="0" width="16" height="1" fill="#01010140"/>
  <rect x="38" y="0" width="1" height="1" fill="#0101013a"/>
  <rect x="39" y="0" width="2" height="1" fill="#01010112"/>
  <rect x="41" y="0" width="1" height="1" fill="#0101013a"/>
  <rect x="42" y="0" width="16" height="1" fill="#01010140"/>
  <rect x="58" y="0" width="1" height="1" fill="#0101013a"/>
  <rect x="59" y="0" width="1" height="1" fill="#01010112"/>
  <rect x="20" y="1" width="1" height="1" fill="#0101013a"/>
  <rect x="21" y="1" width="18" height="1" fill="#01010140"/>
  <rect x="39" y="1" width="2" height="1" fill="#0101013a"/>
  <rect x="41" y="1" width="18" height="1" fill="#01010140"/>
  <rect x="59" y="1" width="1" height="1" fill="#0101013a"/>
  <rect x="20" y="2" width="40" height="6" fill="#01010140"/>
  <rect x="3" y="8" width="1" height="1" fill="#b8b8b816"/>
  <rect x="4" y="8" width="1" height="1" fill="#b7b7b740"/>
  <rect x="5" y="8" width="10" height="1" fill="#b7b7b756"/>
  <rect x="15" y="8" width="1" height="1" fill="#b7b7b740"/>
  <rect x="16" y="8" width="1" height="1" fill="#b1b1b116"/>
  <rect x="20" y="8" width="3" height="4" fill="#01010140"/>
  <rect x="23" y="8" width="1" height="1" fill="#00000044"/>
  <rect x="24" y="8" width="1" height="1" fill="#0000004b"/>
  <rect x="25" y="8" width="10" height="1" fill="#0000004f"/>
  <rect x="35" y="8" width="1" height="1" fill="#0000004b"/>
  <rect x="36" y="8" width="1" height="1" fill="#00000044"/>
  <rect x="37" y="8" width="1" height="1" fill="#00000040"/>
  <rect x="38" y="8" width="4" height="1" fill="#01010140"/>
  <rect x="42" y="8" width="4" height="1" fill="#02020240"/>
  <rect x="46" y="8" width="9" height="1" fill="#03030340"/>
  <rect x="55" y="8" width="2" height="1" fill="#02020240"/>
  <rect x="57" y="8" width="3" height="4" fill="#01010140"/>
  <rect x="63" y="8" width="1" height="1" fill="#b4b4b416"/>
  <rect x="64" y="8" width="1" height="1" fill="#b9b9b940"/>
  <rect x="65" y="8" width="2" height="1" fill="#b9b9b956"/>
  <rect x="67" y="8" width="2" height="1" fill="#b8b8b856"/>
  <rect x="69" y="8" width="6" height="1" fill="#b7b7b756"/>
  <rect x="75" y="8" width="1" height="1" fill="#b6b6b640"/>
  <rect x="76" y="8" width="1" height="1" fill="#b7b7b716"/>
  <rect x="3" y="9" width="1" height="1" fill="#b8b8b840"/>
  <rect x="4" y="9" width="12" height="1" fill="#ffffffe6"/>
  <rect x="16" y="9" width="1" height="1" fill="#b1b1b140"/>
  <rect x="23" y="9" width="1" height="1" fill="#0101014b"/>
  <rect x="24" y="9" width="1" height="1" fill="#f3f3f3f0"/>
  <rect x="25" y="9" width="10" height="1" fill="#f3f3f3f1"/>
  <rect x="35" y="9" width="1" height="1" fill="#f3f3f3f0"/>
  <rect x="36" y="9" width="1" height="1" fill="#0101014b"/>
  <rect x="37" y="9" width="6" height="3" fill="#01010140"/>
  <rect x="43" y="9" width="1" height="1" fill="#01010144"/>
  <rect x="44" y="9" width="1" height="1" fill="#0000004d"/>
  <rect x="45" y="9" width="10" height="1" fill="#00000050"/>
  <rect x="55" y="9" width="1" height="1" fill="#0000004d"/>
  <rect x="56" y="9" width="1" height="1" fill="#01010144"/>
  <rect x="63" y="9" width="1" height="1" fill="#b4b4b440"/>
  <rect x="64" y="9" width="2" height="1" fill="#c2c2c2e6"/>
  <rect x="66" y="9" width="2" height="1" fill="#c4c4c4e6"/>
  <rect x="68" y="9" width="1" height="1" fill="#c5c5c5e6"/>
  <rect x="69" y="9" width="1" height="1" fill="#c6c6c6e6"/>
  <rect x="70" y="9" width="6" height="1" fill="#c7c7c7e6"/>
  <rect x="76" y="9" width="1" height="1" fill="#bbbbbb40"/>
  <rect x="3" y="10" width="1" height="1" fill="#b8b8b856"/>
  <rect x="4" y="10" width="12" height="2" fill="#fcfbfce6"/>
  <rect x="16" y="10" width="1" height="1" fill="#b1b1b156"/>
  <rect x="23" y="10" width="1" height="1" fill="#0101014f"/>
  <rect x="24" y="10" width="1" height="1" fill="#f5f5f5f1"/>
  <rect x="25" y="10" width="10" height="1" fill="#f5f5f5f2"/>
  <rect x="35" y="10" width="1" height="1" fill="#f5f5f5f1"/>
  <rect x="36" y="10" width="1" height="1" fill="#0101014f"/>
  <rect x="43" y="10" width="1" height="1" fill="#0101014d"/>
  <rect x="44" y="10" width="12" height="1" fill="#f1f1f1"/>
  <rect x="56" y="10" width="1" height="1" fill="#0101014d"/>
  <rect x="63" y="10" width="1" height="1" fill="#b4b4b456"/>
  <rect x="64" y="10" width="3" height="1" fill="#c7c7c7e6"/>
  <rect x="67" y="10" width="1" height="1" fill="#c5c5c5e6"/>
  <rect x="68" y="10" width="1" height="1" fill="#c4c4c4e6"/>
  <rect x="69" y="10" width="6" height="1" fill="#c2c2c2e6"/>
  <rect x="75" y="10" width="1" height="1" fill="#c0c0c0e6"/>
  <rect x="76" y="10" width="1" height="1" fill="#bdbdbd56"/>
  <rect x="3" y="11" width="1" height="1" fill="#b8b8b840"/>
  <rect x="16" y="11" width="1" height="1" fill="#b1b1b140"/>
  <rect x="23" y="11" width="1" height="1" fill="#0101014b"/>
  <rect x="24" y="11" width="1" height="1" fill="#f2f2f2f0"/>
  <rect x="25" y="11" width="10" height="1" fill="#f2f2f2f1"/>
  <rect x="35" y="11" width="1" height="1" fill="#f2f2f2f0"/>
  <rect x="36" y="11" width="1" height="1" fill="#0101014b"/>
  <rect x="43" y="11" width="1" height="1" fill="#01010150"/>
  <rect x="44" y="11" width="12" height="1" fill="#eeeeee"/>
  <rect x="56" y="11" width="1" height="1" fill="#01010150"/>
  <rect x="63" y="11" width="1" height="1" fill="#b4b4b440"/>
  <rect x="64" y="11" width="2" height="1" fill="#c2c2c2e6"/>
  <rect x="66" y="11" width="4" height="1" fill="#c4c4c4e6"/>
  <rect x="70" y="11" width="4" height="1" fill="#c5c5c5e6"/>
  <rect x="74" y="11" width="1" height="1" fill="#c4c4c4e6"/>
  <rect x="75" y="11" width="1" height="1" fill="#c1c1c1e6"/>
  <rect x="76" y="11" width="1" height="1" fill="#bdbdbd40"/>
  <rect x="3" y="12" width="1" height="1" fill="#b2b2b216"/>
  <rect x="4" y="12" width="1" height="1" fill="#b9b9b940"/>
  <rect x="5" y="12" width="1" height="1" fill="#b9b9b956"/>
  <rect x="6" y="12" width="1" height="1" fill="#b8b8b856"/>
  <rect x="7" y="12" width="1" height="1" fill="#b7b7b756"/>
  <rect x="8" y="12" width="1" height="1" fill="#b6b6b656"/>
  <rect x="9" y="12" width="1" height="1" fill="#b4b4b456"/>
  <rect x="10" y="12" width="5" height="1" fill="#b3b3b356"/>
  <rect x="15" y="12" width="1" height="1" fill="#b3b3b340"/>
  <rect x="16" y="12" width="1" height="1" fill="#b1b1b116"/>
  <rect x="20" y="12" width="3" height="1" fill="#00000040"/>
  <rect x="23" y="12" width="1" height="1" fill="#00000044"/>
  <rect x="24" y="12" width="1" height="1" fill="#0000004b"/>
  <rect x="25" y="12" width="10" height="1" fill="#0000004f"/>
  <rect x="35" y="12" width="1" height="1" fill="#0000004b"/>
  <rect x="36" y="12" width="1" height="1" fill="#00000044"/>
  <rect x="37" y="12" width="3" height="1" fill="#00000040"/>
  <rect x="40" y="12" width="3" height="2" fill="#01010140"/>
  <rect x="43" y="12" width="1" height="1" fill="#0101014d"/>
  <rect x="44" y="12" width="12" height="1" fill="#eaeaea"/>
  <rect x="56" y="12" width="1" height="1" fill="#0000004d"/>
  <rect x="57" y="12" width="3" height="3" fill="#00000040"/>
  <rect x="63" y="12" width="1" height="1" fill="#b2b2b216"/>
  <rect x="64" y="12" width="1" height="1" fill="#b4b4b440"/>
  <rect x="65" y="12" width="2" height="1" fill="#b8b8b856"/>
  <rect x="67" y="12" width="1" height="1" fill="#b9b9b956"/>
  <rect x="68" y="12" width="3" height="1" fill="#b8b8b856"/>
  <rect x="71" y="12" width="1" height="1" fill="#b7b7b756"/>
  <rect x="72" y="12" width="1" height="1" fill="#b6b6b656"/>
  <rect x="73" y="12" width="1" height="1" fill="#b4b4b456"/>
  <rect x="74" y="12" width="1" height="1" fill="#b6b6b656"/>
  <rect x="75" y="12" width="1" height="1" fill="#b7b7b740"/>
  <rect x="76" y="12" width="1" height="1" fill="#bababa16"/>
  <rect x="20" y="13" width="20" height="3" fill="#00000040"/>
  <rect x="43" y="13" width="1" height="1" fill="#00000044"/>
  <rect x="44" y="13" width="1" height="1" fill="#0000004d"/>
  <rect x="45" y="13" width="10" height="1" fill="#00000050"/>
  <rect x="55" y="13" width="1" height="1" fill="#0000004d"/>
  <rect x="56" y="13" width="1" height="1" fill="#00000044"/>
  <rect x="40" y="14" width="4" height="2" fill="#01010140"/>
  <rect x="44" y="14" width="11" height="1" fill="#02020240"/>
  <rect x="55" y="14" width="2" height="1" fill="#01010140"/>
  <rect x="44" y="15" width="16" height="1" fill="#00000040"/>
  <rect x="20" y="16" width="40" height="2" fill="#00000040"/>
  <rect x="20" y="18" width="1" height="1" fill="#0000003a"/>
  <rect x="21" y="18" width="18" height="1" fill="#00000040"/>
  <rect x="39" y="18" width="2" height="1" fill="#0000003a"/>
  <rect x="41" y="18" width="18" height="1" fill="#00000040"/>
  <rect x="59" y="18" width="1" height="1" fill="#0000003a"/>
  <rect x="20" y="19" width="1" height="1" fill="#00000013"/>
  <rect x="21" y="19" width="1" height="1" fill="#0000003a"/>
  <rect x="22" y="19" width="16" height="1" fill="#00000040"/>
  <rect x="38" y="19" width="1" height="1" fill="#00000039"/>
  <rect x="39" y="19" width="2" height="1" fill="#00000013"/>
  <rect x="41" y="19" width="1" height="1" fill="#0000003a"/>
  <rect x="42" y="19" width="16" height="1" fill="#00000040"/>
  <rect x="58" y="19" width="1" height="1" fill="#00000039"/>
  <rect x="59" y="19" width="1" height="1" fill="#00000013"/>
</svg>