<svg xmlns="http://www.w3.org/2000/svg" width="80" height="20" viewBox="0 0 80 20" shape-rendering="crispEdges">
  <rect x="20" y="0" width="1" height="1" fill="#00000012"/>
  <rect x="21" y="0" width="1" height="1" fill="#0000003a"/>
  <rect x="22" y="0" width="2" height="1" fill="#00000040"/>
  <rect x="24" y="0" width="3" height="1" fill="#01010140"/>
  <rect x="27" y="0" width="9" height="1" fill="#00000040"/>
  <rect x="36" y="0" width="2" height="1" fill="#01010140"/>
  <rect x="38" y="0" width="1" height="1" fill="#0101013a"/>
  <rect x="39" y="0" width="2" height="1" fill="#01010112"/>
  <rect x="41" y="0" width="1" height="1" fill="#0101013a"/>
  <rect x="42" y="0" width="16" height="1" fill="#01010140"/>
  <rect x="58" y="0" width="1" height="1" fill="#0101013a"/>
  <rect x="59" y="0" width="1" height="1" fill="#01010112"/>
  <rect x="20" y="1" width="1" height="1" fill="#0000003a"/>
  <rect x="21" y="1" width="1" height="1" fill="#00000040"/>
  <rect x="22" y="1" width="3" height="1" fill="#01010140"/>
  <rect x="25" y="1" width="11" height="1" fill="#00000040"/>
  <rect x="36" y="1" width="3" height="1" fill="#01010140"/>
  <rect x="39" y="1" width="2" height="1" fill="#0101013a"/>
  <rect x="41" y="1" width="18" height="1" fill="#01010140"/>
  <rect x="59" y="1" width="1" height="1" fill="#0101013a"/>
  <rect x="7" y="2" width="1" height="1" fill="#b8b8b816"/>
  <rect x="8" y="2" width="1" height="1" fill="#b7b7b740"/>
  <rect x="9" y="2" width="6" height="1" fill="#b7b7b756"/>
  <rect x="15" y="2" width="1" height="1" fill="#b7b7b740"/>
  <rect x="16" y="2" width="1" height="1" fill="#b6b6b616"/>
  <rect x="20" y="2" width="2" height="1" fill="#01010140"/>
  <rect x="22" y="2" width="4" height="1" fill="#00000040"/>
  <rect x="26" y="2" width="1" height="1" fill="#01010140"/>
  <rect x="27" y="2" width="1" height="1" fill="#01010144"/>
  <rect x="28" y="2" width="1" height="1" fill="#0202024b"/>
  <rect x="29" y="2" width="1" height="1" fill="#0303034f"/>
  <rect x="30" y="2" width="5" height="1" fill="#0505054f"/>
  <rect x="35" y="2" width="1" height="1" fill="#0303034b"/>
  <rect x="36" y="2" width="1" height="1" fill="#02020244"/>
  <rect x="37" y="2" width="20" height="1" fill="#01010140"/>
  <rect x="57" y="2" width="1" height="1" fill="#02020240"/>
  <rect x="58" y="2" width="2" height="1" fill="#01010140"/>
  <rect x="67" y="2" width="1" height="1" fill="#bdbdbd16"/>
  <rect x="68" y="2" width="1" height="1" fill="#b7b7b740"/>
  <rect x="69" y="2" width="3" height="1" fill="#b7b7b756"/>
  <rect x="72" y="2" width="3" height="1" fill="#b6b6b656"/>
  <rect x="75" y="2" width="1" height="1" fill="#b6b6b640"/>
  <rect x="76" y="2" width="1" height="1" fill="#c1c1c116"/>
  <rect x="7" y="3" width="1" height="1" fill="#b0b0b040"/>
  <rect x="8" y="3" width="8" height="1" fill="#fefefee6"/>
  <rect x="16" y="3" width="1" height="1" fill="#bdbdbd40"/>
  <rect x="20" y="3" width="7" height="3" fill="#00000040"/>
  <rect x="27" y="3" width="1" height="1" fill="#0000004b"/>
  <rect x="28" y="3" width="1" height="1" fill="#f3f3f3f0"/>
  <rect x="29" y="3" width="6" height="1" fill="#f3f3f3f1"/>
  <rect x="35" y="3" width="1" height="1" fill="#f3f3f3f0"/>
  <rect x="36" y="3" width="1" height="1" fill="#0000004b"/>
  <rect x="37" y="3" width="3" height="1" fill="#00000040"/>
  <rect x="40" y="3" width="8" height="1" fill="#01010140"/>
  <rect x="48" y="3" width="1" height="1" fill="#01010144"/>
  <rect x="49" y="3" width="1" height="1" fill="#0101014b"/>
  <rect x="50" y="3" width="6" height="1" fill="#0101014f"/>
  <rect x="56" y="3" width="1" height="1" fill="#0101014b"/>
  <rect x="57" y="3" width="1" height="1" fill="#02020244"/>
  <rect x="58" y="3" width="1" height="1" fill="#01010140"/>
  <rect x="59" y="3" width="1" height="1" fill="#00000040"/>
  <rect x="67" y="3" width="1" height="1" fill="#bababa40"/>
  <rect x="68" y="3" width="8" height="1" fill="#ffffffe6"/>
  <rect x="76" y="3" width="1" height="1" fill="#b6b6b640"/>
  <rect x="7" y="4" width="1" height="1" fill="#b0b0b056"/>
  <rect x="8" y="4" width="3" height="1" fill="#ffffffe6"/>
  <rect x="11" y="4" width="1" height="1" fill="#fcfbfce6"/>
  <rect x="12" y="4" width="4" height="1" fill="#ffffffe6"/>
  <rect x="16" y="4" width="1" height="3" fill="#b9b9b956"/>
  <rect x="27" y="4" width="1" height="2" fill="#0000004f"/>
  <rect x="28" y="4" width="1" height="1" fill="#f5f5f5f1"/>
  <rect x="29" y="4" width="1" height="1" fill="#f0f0f0f2"/>
  <rect x="30" y="4" width="1" height="1" fill="#f3f3f3f2"/>
  <rect x="31" y="4" width="2" height="1" fill="#f5f5f5f2"/>
  <rect x="33" y="4" width="1" height="1" fill="#f3f3f3f2"/>
  <rect x="34" y="4" width="1" height="1" fill="#f0f0f0f2"/>
  <rect x="35" y="4" width="1" height="1" fill="#f1f1f1f1"/>
  <rect x="36" y="4" width="1" height="6" fill="#0000004f"/>
  <rect x="37" y="4" width="11" height="3" fill="#00000040"/>
  <rect x="48" y="4" width="1" height="1" fill="#0101014b"/>
  <rect x="49" y="4" width="1" height="1" fill="#f2f2f2f0"/>
  <rect x="50" y="4" width="1" height="1" fill="#eeeeeef1"/>
  <rect x="51" y="4" width="1" height="1" fill="#f1f1f1f1"/>
  <rect x="52" y="4" width="4" height="1" fill="#f2f2f2f1"/>
  <rect x="56" y="4" width="1" height="1" fill="#f2f2f2f0"/>
  <rect x="57" y="4" width="1" height="1" fill="#0303034b"/>
  <rect x="58" y="4" width="2" height="9" fill="#00000040"/>
  <rect x="67" y="4" width="1" height="1" fill="#acacac56"/>
  <rect x="68" y="4" width="1" height="1" fill="#fcfbfce6"/>
  <rect x="69" y="4" width="2" height="1" fill="#ffffffe6"/>
  <rect x="71" y="4" width="1" height="1" fill="#fdfdfde6"/>
  <rect x="72" y="4" width="1" height="1" fill="#fafafae6"/>
  <rect x="73" y="4" width="1" height="1" fill="#f7f7f7e6"/>
  <rect x="74" y="4" width="1" height="1" fill="#f6f6f6e6"/>
  <rect x="75" y="4" width="1" height="1" fill="#ffffffe6"/>
  <rect x="76" y="4" width="1" height="1" fill="#b8b8b856"/>
  <rect x="7" y="5" width="1" height="1" fill="#b7b7b756"/>
  <rect x="8" y="5" width="2" height="1" fill="#fefefee6"/>
  <rect x="10" y="5" width="6" height="1" fill="#ffffffe6"/>
  <rect x="28" y="5" width="1" height="1" fill="#f6f6f6f0"/>
  <rect x="29" y="5" width="1" height="1" fill="#fcfbfcf1"/>
  <rect x="30" y="5" width="1" height="1" fill="#f2f2f2f1"/>
  <rect x="31" y="5" width="1" height="1" fill="#ecececf1"/>
  <rect x="32" y="5" width="1" height="1" fill="#f3f3f3f1"/>
  <rect x="33" y="5" width="1" height="1" fill="#efefeff1"/>
  <rect x="34" y="5" width="1" height="1" fill="#f2f2f2f1"/>
  <rect x="35" y="5" width="1" height="1" fill="#f2f2f2f0"/>
  <rect x="48" y="5" width="1" height="1" fill="#0000004f"/>
  <rect x="49" y="5" width="1" height="1" fill="#f6f6f6f1"/>
  <rect x="50" y="5" width="1" height="1" fill="#eeeeeef2"/>
  <rect x="51" y="5" width="1" height="1" fill="#f8f8f8f2"/>
  <rect x="52" y="5" width="4" height="1" fill="#f7f7f7f2"/>
  <rect x="56" y="5" width="1" height="1" fill="#f2f2f2f1"/>
  <rect x="57" y="5" width="1" height="2" fill="#0303034f"/>
  <rect x="67" y="5" width="1" height="1" fill="#b0b0b056"/>
  <rect x="68" y="5" width="1" height="1" fill="#fafafae6"/>
  <rect x="69" y="5" width="1" height="1" fill="#f8f8f8e6"/>
  <rect x="70" y="5" width="2" height="1" fill="#ffffffe6"/>
  <rect x="72" y="5" width="1" height="1" fill="#fcfbfce6"/>
  <rect x="73" y="5" width="1" height="1" fill="#ffffffe6"/>
  <rect x="74" y="5" width="1" height="1" fill="#fdfdfde6"/>
  <rect x="75" y="5" width="1" height="1" fill="#fefefee6"/>
  <rect x="76" y="5" width="1" height="1" fill="#b6b6b656"/>
  <rect x="3" y="6" width="1" height="1" fill="#bfbfbf16"/>
  <rect x="4" y="6" width="1" height="1" fill="#b3b3b340"/>
  <rect x="5" y="6" width="1" height="1" fill="#bababa56"/>
  <rect x="6" y="6" width="1" height="1" fill="#b8b8b856"/>
  <rect x="7" y="6" width="1" height="1" fill="#adadad96"/>
  <rect x="8" y="6" width="1" height="1" fill="#ffffffe6"/>
  <rect x="9" y="6" width="1" height="1" fill="#b4b4b4ac"/>
  <rect x="10" y="6" width="1" height="1" fill="#b9b9b9ab"/>
  <rect x="11" y="6" width="1" height="1" fill="#b0b0b096"/>
  <rect x="12" y="6" width="1" height="1" fill="#b9b9b96b"/>
  <rect x="13" y="6" width="1" height="1" fill="#b7b7b756"/>
  <rect x="14" y="6" width="1" height="1" fill="#b3b3b396"/>
  <rect x="15" y="6" width="1" height="1" fill="#f7f7f7e6"/>
  <rect x="20" y="6" width="2" height="1" fill="#00000040"/>
  <rect x="22" y="6" width="1" height="1" fill="#01010140"/>
  <rect x="23" y="6" width="1" height="1" fill="#01010144"/>
  <rect x="24" y="6" width="1" height="1" fill="#0202024b"/>
  <rect x="25" y="6" width="1" height="1" fill="#0303034f"/>
  <rect x="26" y="6" width="1" height="1" fill="#0505054f"/>
  <rect x="27" y="6" width="1" height="1" fill="#0505055a"/>
  <rect x="28" y="6" width="1" height="1" fill="#f1f1f1f0"/>
  <rect x="29" y="6" width="1" height="1" fill="#07070765"/>
  <rect x="30" y="6" width="1" height="1" fill="#0000005e"/>
  <rect x="31" y="6" width="1" height="1" fill="#0101015a"/>
  <rect x="32" y="6" width="1" height="1" fill="#06060653"/>
  <rect x="33" y="6" width="1" height="1" fill="#0202024f"/>
  <rect x="34" y="6" width="1" height="1" fill="#0505055a"/>
  <rect x="35" y="6" width="1" height="1" fill="#efefeff0"/>
  <rect x="48" y="6" width="1" height="1" fill="#0505054f"/>
  <rect x="49" y="6" width="1" height="1" fill="#f6f6f6f0"/>
  <rect x="50" y="6" width="1" height="1" fill="#f6f6f6f1"/>
  <rect x="51" y="6" width="1" height="1" fill="#f9f9f9f1"/>
  <rect x="52" y="6" width="4" height="1" fill="#f5f5f5f1"/>
  <rect x="56" y="6" width="1" height="2" fill="#f3f3f3f0"/>
  <rect x="63" y="6" width="1" height="1" fill="#b7b7b716"/>
  <rect x="64" y="6" width="1" height="1" fill="#b9b9b940"/>
  <rect x="65" y="6" width="1" height="1" fill="#b8b8b856"/>
  <rect x="66" y="6" width="1" height="1" fill="#b6b6b656"/>
  <rect x="67" y="6" width="1" height="1" fill="#b3b3b396"/>
  <rect x="68" y="6" width="1" height="1" fill="#fefefee6"/>
  <rect x="69" y="6" width="1" height="1" fill="#afafafac"/>
  <rect x="70" y="6" width="1" height="1" fill="#bbbbbbab"/>
  <rect x="71" y="6" width="1" height="1" fill="#b1b1b196"/>
  <rect x="72" y="6" width="1" height="1" fill="#b2b2b26b"/>
  <rect x="73" y="6" width="1" height="1" fill="#b2b2b256"/>
  <rect x="74" y="6" width="1" height="1" fill="#bbbbbb96"/>
  <rect x="75" y="6" width="1" height="1" fill="#fafafae6"/>
  <rect x="76" y="6" width="1" height="1" fill="#b2b2b256"/>
  <rect x="3" y="7" width="1" height="1" fill="#b9b9b940"/>
  <rect x="4" y="7" width="1" height="1" fill="#f9f9f9e6"/>
  <rect x="5" y="7" width="2" height="1" fill="#ffffffe6"/>
  <rect x="7" y="7" width="1" height="1" fill="#fdfdfde6"/>
  <rect x="8" y="7" width="2" height="1" fill="#ffffffe6"/>
  <rect x="10" y="7" width="1" height="1" fill="#f2f2f2e6"/>
  <rect x="11" y="7" width="1" height="1" fill="#ffffffe6"/>
  <rect x="12" y="7" width="1" height="1" fill="#b4b4b440"/>
  <rect x="14" y="7" width="1" height="1" fill="#bbbbbb56"/>
  <rect x="15" y="7" width="1" height="4" fill="#ffffffe6"/>
  <rect x="16" y="7" width="1" height="1" fill="#b6b6b656"/>
  <rect x="20" y="7" width="3" height="9" fill="#00000040"/>
  <rect x="23" y="7" width="1" height="1" fill="#0000004b"/>
  <rect x="24" y="7" width="1" height="1" fill="#f2f2f2f0"/>
  <rect x="25" y="7" width="4" height="1" fill="#f2f2f2f1"/>
  <rect x="29" y="7" width="1" height="1" fill="#f8f8f8f1"/>
  <rect x="30" y="7" width="1" height="1" fill="#f5f5f5f1"/>
  <rect x="31" y="7" width="1" height="1" fill="#f2f2f2f0"/>
  <rect x="32" y="7" width="1" height="1" fill="#0303034b"/>
  <rect x="33" y="7" width="1" height="2" fill="#00000040"/>
  <rect x="34" y="7" width="1" height="1" fill="#0101014f"/>
  <rect x="35" y="7" width="1" height="1" fill="#f1f1f1ef"/>
  <rect x="37" y="7" width="7" height="5" fill="#00000040"/>
  <rect x="44" y="7" width="1" height="1" fill="#00000044"/>
  <rect x="45" y="7" width="1" height="1" fill="#0000004b"/>
  <rect x="46" y="7" width="2" height="1" fill="#0000004f"/>
  <rect x="48" y="7" width="1" height="1" fill="#0000005a"/>
  <rect x="49" y="7" width="1" height="1" fill="#efefeff0"/>
  <rect x="50" y="7" width="1" height="1" fill="#05050565"/>
  <rect x="51" y="7" width="1" height="1" fill="#0707075e"/>
  <rect x="52" y="7" width="1" height="1" fill="#0000005a"/>
  <rect x="53" y="7" width="1" height="1" fill="#00000053"/>
  <rect x="54" y="7" width="1" height="1" fill="#0000004f"/>
  <rect x="55" y="7" width="1" height="1" fill="#0000005a"/>
  <rect x="57" y="7" width="1" height="1" fill="#0202024f"/>
  <rect x="63" y="7" width="1" height="1" fill="#c0c0c040"/>
  <rect x="64" y="7" width="1" height="3" fill="#fdfdfde6"/>
  <rect x="65" y="7" width="1" height="1" fill="#fefefee6"/>
  <rect x="66" y="7" width="3" height="1" fill="#ffffffe6"/>
  <rect x="69" y="7" width="1" height="1" fill="#fdfdfde6"/>
  <rect x="70" y="7" width="1" height="1" fill="#f5f5f5e6"/>
  <rect x="71" y="7" width="1" height="1" fill="#ffffffe6"/>
  <rect x="72" y="7" width="1" height="1" fill="#b4b4b440"/>
  <rect x="74" y="7" width="1" height="1" fill="#b7b7b756"/>
  <rect x="75" y="7" width="1" height="1" fill="#fdfdfde6"/>
  <rect x="76" y="7" width="1" height="1" fill="#b4b4b456"/>
  <rect x="3" y="8" width="1" height="2" fill="#b3b3b356"/>
  <rect x="4" y="8" width="1" height="1" fill="#fdfdfde6"/>
  <rect x="5" y="8" width="1" height="1" fill="#ffffffe6"/>
  <rect x="6" y="8" width="1" height="1" fill="#fcfbfce6"/>
  <rect x="7" y="8" width="1" height="1" fill="#fefefee6"/>
  <rect x="8" y="8" width="3" height="1" fill="#ffffffe6"/>
  <rect x="11" y="8" width="1" height="1" fill="#fefefee6"/>
  <rect x="12" y="8" width="1" height="1" fill="#bbbbbb56"/>
  <rect x="14" y="8" width="1" height="1" fill="#b3b3b356"/>
  <rect x="16" y="8" width="1" height="2" fill="#b4b4b456"/>
  <rect x="23" y="8" width="1" height="6" fill="#0000004f"/>
  <rect x="24" y="8" width="1" height="1" fill="#f5f5f5f1"/>
  <rect x="25" y="8" width="1" height="1" fill="#efefeff2"/>
  <rect x="26" y="8" width="1" height="1" fill="#f6f6f6f2"/>
  <rect x="27" y="8" width="1" height="1" fill="#f1f1f1f2"/>
  <rect x="28" y="8" width="1" height="1" fill="#eeeeeef2"/>
  <rect x="29" y="8" width="1" height="1" fill="#f5f5f5f2"/>
  <rect x="30" y="8" width="1" height="1" fill="#f7f7f7f2"/>
  <rect x="31" y="8" width="1" height="1" fill="#f8f8f8f1"/>
  <rect x="32" y="8" width="1" height="1" fill="#0000004f"/>
  <rect x="34" y="8" width="1" height="1" fill="#0000004f"/>
  <rect x="35" y="8" width="1" height="1" fill="#f7f7f7ef"/>
  <rect x="44" y="8" width="1" height="1" fill="#0101014b"/>
  <rect x="45" y="8" width="1" height="1" fill="#f7f7f7f0"/>
  <rect x="46" y="8" width="1" height="1" fill="#f5f5f5f1"/>
  <rect x="47" y="8" width="1" height="1" fill="#f0f0f0f1"/>
  <rect x="48" y="8" width="4" height="1" fill="#f5f5f5f1"/>
  <rect x="52" y="8" width="1" height="1" fill="#f2f2f2f0"/>
  <rect x="53" y="8" width="1" height="1" fill="#0000004b"/>
  <rect x="54" y="8" width="1" height="1" fill="#00000040"/>
  <rect x="55" y="8" width="1" height="2" fill="#0000004f"/>
  <rect x="56" y="8" width="1" height="2" fill="#f5f5f5ef"/>
  <rect x="57" y="8" width="1" height="1" fill="#0101014f"/>
  <rect x="63" y="8" width="1" height="4" fill="#b8b8b856"/>
  <rect x="65" y="8" width="1" height="1" fill="#ffffffe6"/>
  <rect x="66" y="8" width="1" height="1" fill="#f8f8f8e6"/>
  <rect x="67" y="8" width="1" height="1" fill="#fafafae6"/>
  <rect x="68" y="8" width="1" height="1" fill="#ffffffe6"/>
  <rect x="69" y="8" width="1" height="1" fill="#fcfbfce6"/>
  <rect x="70" y="8" width="2" height="1" fill="#ffffffe6"/>
  <rect x="72" y="8" width="1" height="1" fill="#bdbdbd56"/>
  <rect x="74" y="8" width="1" height="1" fill="#b6b6b656"/>
  <rect x="75" y="8" width="1" height="1" fill="#f7f7f7e6"/>
  <rect x="76" y="8" width="1" height="2" fill="#b6b6b656"/>
  <rect x="4" y="9" width="3" height="1" fill="#ffffffe6"/>
  <rect x="7" y="9" width="1" height="1" fill="#f6f6f6e6"/>
  <rect x="8" y="9" width="1" height="1" fill="#fafafae6"/>
  <rect x="9" y="9" width="3" height="1" fill="#ffffffe6"/>
  <rect x="12" y="9" width="1" height="1" fill="#b8b8b896"/>
  <rect x="13" y="9" width="1" height="1" fill="#bbbbbb56"/>
  <rect x="14" y="9" width="1" height="1" fill="#b7b7b796"/>
  <rect x="24" y="9" width="1" height="1" fill="#f7f7f7f0"/>
  <rect x="25" y="9" width="1" height="1" fill="#f0f0f0f1"/>
  <rect x="26" y="9" width="1" height="1" fill="#f1f1f1f1"/>
  <rect x="27" y="9" width="1" height="1" fill="#f3f3f3f1"/>
  <rect x="28" y="9" width="2" height="1" fill="#f1f1f1f1"/>
  <rect x="30" y="9" width="1" height="1" fill="#f9f9f9f1"/>
  <rect x="31" y="9" width="1" height="1" fill="#fcfbfcf1"/>
  <rect x="32" y="9" width="1" height="1" fill="#0000005a"/>
  <rect x="33" y="9" width="1" height="1" fill="#0606064f"/>
  <rect x="34" y="9" width="1" height="1" fill="#0000005a"/>
  <rect x="35" y="9" width="1" height="1" fill="#f9f9f9f0"/>
  <rect x="44" y="9" width="1" height="1" fill="#0505054f"/>
  <rect x="45" y="9" width="1" height="1" fill="#f3f3f3f1"/>
  <rect x="46" y="9" width="1" height="1" fill="#f8f8f8f2"/>
  <rect x="47" y="9" width="1" height="1" fill="#ecececf2"/>
  <rect x="48" y="9" width="4" height="1" fill="#f2f2f2f2"/>
  <rect x="52" y="9" width="1" height="2" fill="#f1f1f1f1"/>
  <rect x="53" y="9" width="1" height="1" fill="#0000004f"/>
  <rect x="54" y="9" width="1" height="1" fill="#03030340"/>
  <rect x="57" y="9" width="1" height="2" fill="#0000004f"/>
  <rect x="65" y="9" width="1" height="1" fill="#fafafae6"/>
  <rect x="66" y="9" width="1" height="1" fill="#ffffffe6"/>
  <rect x="67" y="9" width="1" height="1" fill="#fefefee6"/>
  <rect x="68" y="9" width="1" height="1" fill="#fdfdfde6"/>
  <rect x="69" y="9" width="1" height="1" fill="#ffffffe6"/>
  <rect x="70" y="9" width="1" height="1" fill="#fdfdfde6"/>
  <rect x="71" y="9" width="1" height="1" fill="#fafafae6"/>
  <rect x="72" y="9" width="1" height="1" fill="#bababa96"/>
  <rect x="73" y="9" width="1" height="1" fill="#b1b1b156"/>
  <rect x="74" y="9" width="1" height="1" fill="#bababa96"/>
  <rect x="75" y="9" width="1" height="1" fill="#f9f9f9e6"/>
  <rect x="3" y="10" width="1" height="2" fill="#b4b4b456"/>
  <rect x="4" y="10" width="1" height="1" fill="#fdfdfde6"/>
  <rect x="5" y="10" width="1" height="1" fill="#b7b7b796"/>
  <rect x="6" y="10" width="1" height="1" fill="#b2b2b256"/>
  <rect x="7" y="10" width="1" height="1" fill="#bdbdbd56"/>
  <rect x="8" y="10" width="1" height="1" fill="#bababa56"/>
  <rect x="9" y="10" width="1" height="1" fill="#b0b0b056"/>
  <rect x="10" y="10" width="1" height="1" fill="#b2b2b296"/>
  <rect x="11" y="10" width="1" height="1" fill="#f2f2f2e6"/>
  <rect x="12" y="10" width="2" height="1" fill="#ffffffe6"/>
  <rect x="14" y="10" width="1" height="1" fill="#f6f6f6e6"/>
  <rect x="16" y="10" width="1" height="1" fill="#b4b4b440"/>
  <rect x="24" y="10" width="1" height="1" fill="#eeeeeef0"/>
  <rect x="25" y="10" width="1" height="1" fill="#0000005a"/>
  <rect x="26" y="10" width="1" height="1" fill="#0505054f"/>
  <rect x="27" y="10" width="1" height="1" fill="#0303034f"/>
  <rect x="28" y="10" width="1" height="1" fill="#0000004f"/>
  <rect x="29" y="10" width="1" height="1" fill="#0101014f"/>
  <rect x="30" y="10" width="1" height="1" fill="#0202025a"/>
  <rect x="31" y="10" width="1" height="1" fill="#efefeff0"/>
  <rect x="32" y="10" width="1" height="1" fill="#fafafaf0"/>
  <rect x="33" y="10" width="1" height="1" fill="#f7f7f7ef"/>
  <rect x="34" y="10" width="1" height="1" fill="#ecececf0"/>
  <rect x="35" y="10" width="1" height="1" fill="#f1f1f1ef"/>
  <rect x="36" y="10" width="1" height="1" fill="#0000004b"/>
  <rect x="44" y="10" width="1" height="2" fill="#0000004f"/>
  <rect x="45" y="10" width="1" height="1" fill="#efefeff0"/>
  <rect x="46" y="10" width="1" height="1" fill="#f1f1f1f1"/>
  <rect x="47" y="10" width="1" height="1" fill="#f6f6f6f1"/>
  <rect x="48" y="10" width="4" height="1" fill="#efefeff1"/>
  <rect x="53" y="10" width="1" height="1" fill="#0606065a"/>
  <rect x="54" y="10" width="1" height="1" fill="#0101014f"/>
  <rect x="55" y="10" width="1" height="1" fill="#0000005a"/>
  <rect x="56" y="10" width="1" height="1" fill="#f6f6f6f0"/>
  <rect x="64" y="10" width="1" height="4" fill="#ffffffe6"/>
  <rect x="65" y="10" width="1" height="1" fill="#b0b0b096"/>
  <rect x="66" y="10" width="1" height="1" fill="#b8b8b856"/>
  <rect x="67" y="10" width="1" height="1" fill="#b2b2b256"/>
  <rect x="68" y="10" width="1" height="1" fill="#b3b3b356"/>
  <rect x="69" y="10" width="1" height="1" fill="#b8b8b856"/>
  <rect x="70" y="10" width="1" height="1" fill="#b6b6b696"/>
  <rect x="71" y="10" width="2" height="1" fill="#ffffffe6"/>
  <rect x="73" y="10" width="1" height="1" fill="#fcfbfce6"/>
  <rect x="74" y="10" width="2" height="1" fill="#ffffffe6"/>
  <rect x="76" y="10" width="1" height="1" fill="#b6b6b640"/>
  <rect x="4" y="11" width="1" height="1" fill="#ffffffe6"/>
  <rect x="5" y="11" width="1" height="1" fill="#c1c1c156"/>
  <rect x="10" y="11" width="1" height="1" fill="#bdbdbd56"/>
  <rect x="11" y="11" width="1" height="1" fill="#f7f7f7e6"/>
  <rect x="12" y="11" width="1" height="1" fill="#c0c0c096"/>
  <rect x="13" y="11" width="1" height="1" fill="#b6b6b656"/>
  <rect x="14" y="11" width="1" height="1" fill="#b7b7b756"/>
  <rect x="15" y="11" width="1" height="1" fill="#b2b2b240"/>
  <rect x="16" y="11" width="1" height="1" fill="#b4b4b416"/>
  <rect x="24" y="11" width="1" height="1" fill="#f1f1f1ef"/>
  <rect x="25" y="11" width="1" height="2" fill="#0000004f"/>
  <rect x="26" y="11" width="1" height="1" fill="#00000040"/>
  <rect x="27" y="11" width="1" height="1" fill="#06060640"/>
  <rect x="28" y="11" width="1" height="1" fill="#02020240"/>
  <rect x="29" y="11" width="1" height="1" fill="#00000040"/>
  <rect x="30" y="11" width="1" height="1" fill="#0606064f"/>
  <rect x="31" y="11" width="1" height="1" fill="#f2f2f2f0"/>
  <rect x="32" y="11" width="1" height="1" fill="#0000005a"/>
  <rect x="33" y="11" width="1" height="1" fill="#0101014f"/>
  <rect x="34" y="11" width="1" height="1" fill="#0000004f"/>
  <rect x="35" y="11" width="1" height="1" fill="#0000004b"/>
  <rect x="36" y="11" width="1" height="1" fill="#00000044"/>
  <rect x="45" y="11" width="1" height="1" fill="#f3f3f3f0"/>
  <rect x="46" y="11" width="1" height="1" fill="#0505055a"/>
  <rect x="47" y="11" width="1" height="1" fill="#0101014f"/>
  <rect x="48" y="11" width="3" height="1" fill="#0000004f"/>
  <rect x="51" y="11" width="1" height="1" fill="#0000005a"/>
  <rect x="52" y="11" width="1" height="2" fill="#f3f3f3f0"/>
  <rect x="53" y="11" width="1" height="1" fill="#f6f6f6f0"/>
  <rect x="54" y="11" width="1" height="1" fill="#f5f5f5ef"/>
  <rect x="55" y="11" width="1" height="1" fill="#f2f2f2f0"/>
  <rect x="56" y="11" width="1" height="1" fill="#f6f6f6ef"/>
  <rect x="57" y="11" width="1" height="1" fill="#0000004b"/>
  <rect x="65" y="11" width="1" height="1" fill="#b1b1b156"/>
  <rect x="70" y="11" width="1" height="1" fill="#b4b4b456"/>
  <rect x="71" y="11" width="1" height="1" fill="#fefefee6"/>
  <rect x="72" y="11" width="1" height="1" fill="#b6b6b696"/>
  <rect x="73" y="11" width="1" height="1" fill="#b8b8b856"/>
  <rect x="74" y="11" width="1" height="1" fill="#b3b3b356"/>
  <rect x="75" y="11" width="1" height="1" fill="#b2b2b240"/>
  <rect x="76" y="11" width="1" height="1" fill="#b6b6b616"/>
  <rect x="3" y="12" width="1" height="2" fill="#b6b6b656"/>
  <rect x="4" y="12" width="1" height="2" fill="#fcfbfce6"/>
  <rect x="5" y="12" width="1" height="1" fill="#bbbbbb56"/>
  <rect x="10" y="12" width="1" height="1" fill="#bebebe56"/>
  <rect x="11" y="12" width="1" height="1" fill="#ffffffe6"/>
  <rect x="12" y="12" width="1" height="2" fill="#b7b7b756"/>
  <rect x="24" y="12" width="1" height="1" fill="#efefefef"/>
  <rect x="26" y="12" width="1" height="1" fill="#01010140"/>
  <rect x="27" y="12" width="3" height="1" fill="#00000040"/>
  <rect x="30" y="12" width="1" height="1" fill="#0505054f"/>
  <rect x="31" y="12" width="1" height="1" fill="#f1f1f1ef"/>
  <rect x="32" y="12" width="1" height="2" fill="#0000004f"/>
  <rect x="33" y="12" width="11" height="4" fill="#00000040"/>
  <rect x="44" y="12" width="1" height="1" fill="#0505054f"/>
  <rect x="45" y="12" width="1" height="1" fill="#fafafaef"/>
  <rect x="46" y="12" width="1" height="1" fill="#0202024f"/>
  <rect x="47" y="12" width="4" height="2" fill="#00000040"/>
  <rect x="51" y="12" width="1" height="2" fill="#0000004f"/>
  <rect x="53" y="12" width="1" height="1" fill="#0303035a"/>
  <rect x="54" y="12" width="2" height="1" fill="#0000004f"/>
  <rect x="56" y="12" width="1" height="1" fill="#0000004b"/>
  <rect x="57" y="12" width="1" height="1" fill="#00000044"/>
  <rect x="63" y="12" width="1" height="2" fill="#b7b7b756"/>
  <rect x="65" y="12" width="1" height="1" fill="#b3b3b356"/>
  <rect x="70" y="12" width="1" height="1" fill="#b9b9b956"/>
  <rect x="71" y="12" width="1" height="1" fill="#ffffffe6"/>
  <rect x="72" y="12" width="1" height="2" fill="#b9b9b956"/>
  <rect x="5" y="13" width="1" height="1" fill="#b4b4b496"/>
  <rect x="6" y="13" width="1" height="1" fill="#b3b3b356"/>
  <rect x="7" y="13" width="1" height="1" fill="#bdbdbd56"/>
  <rect x="8" y="13" width="1" height="1" fill="#b4b4b456"/>
  <rect x="9" y="13" width="1" height="1" fill="#afafaf56"/>
  <rect x="10" y="13" width="1" height="1" fill="#b0b0b096"/>
  <rect x="11" y="13" width="1" height="1" fill="#f7f7f7e6"/>
  <rect x="24" y="13" width="1" height="1" fill="#efefeff0"/>
  <rect x="25" y="13" width="1" height="1" fill="#0707075a"/>
  <rect x="26" y="13" width="2" height="1" fill="#0000004f"/>
  <rect x="28" y="13" width="1" height="1" fill="#0101014f"/>
  <rect x="29" y="13" width="1" height="1" fill="#0000004f"/>
  <rect x="30" y="13" width="1" height="1" fill="#0202025a"/>
  <rect x="31" y="13" width="1" height="1" fill="#f9f9f9f0"/>
  <rect x="44" y="13" width="1" height="1" fill="#0606064f"/>
  <rect x="45" y="13" width="1" height="1" fill="#f6f6f6ef"/>
  <rect x="46" y="13" width="1" height="1" fill="#0505054f"/>
  <rect x="52" y="13" width="1" height="1" fill="#f2f2f2ef"/>
  <rect x="53" y="13" width="1" height="1" fill="#0303034f"/>
  <rect x="54" y="13" width="6" height="5" fill="#00000040"/>
  <rect x="65" y="13" width="1" height="1" fill="#b4b4b496"/>
  <rect x="66" y="13" width="1" height="1" fill="#b6b6b656"/>
  <rect x="67" y="13" width="1" height="1" fill="#b4b4b456"/>
  <rect x="68" y="13" width="1" height="1" fill="#b6b6b656"/>
  <rect x="69" y="13" width="1" height="1" fill="#b2b2b256"/>
  <rect x="70" y="13" width="1" height="1" fill="#b0b0b096"/>
  <rect x="71" y="13" width="1" height="1" fill="#f9f9f9e6"/>
  <rect x="3" y="14" width="1" height="1" fill="#b7b7b740"/>
  <rect x="4" y="14" width="1" height="1" fill="#ffffffe6"/>
  <rect x="5" y="14" width="1" height="1" fill="#fdfdfde6"/>
  <rect x="6" y="14" width="1" height="1" fill="#ffffffe6"/>
  <rect x="7" y="14" width="1" height="1" fill="#f6f6f6e6"/>
  <rect x="8" y="14" width="1" height="1" fill="#f0f0f0e6"/>
  <rect x="9" y="14" width="1" height="1" fill="#ffffffe6"/>
  <rect x="10" y="14" width="1" height="1" fill="#fcfbfce6"/>
  <rect x="11" y="14" width="1" height="1" fill="#ffffffe6"/>
  <rect x="12" y="14" width="1" height="1" fill="#b7b7b740"/>
  <rect x="23" y="14" width="1" height="1" fill="#0000004b"/>
  <rect x="24" y="14" width="1" height="1" fill="#f6f6f6ef"/>
  <rect x="25" y="14" width="1" height="1" fill="#f5f5f5f0"/>
  <rect x="26" y="14" width="1" height="1" fill="#fafafaef"/>
  <rect x="27" y="14" width="1" height="1" fill="#f8f8f8ef"/>
  <rect x="28" y="14" width="1" height="1" fill="#f0f0f0ef"/>
  <rect x="29" y="14" width="1" height="1" fill="#f6f6f6ef"/>
  <rect x="30" y="14" width="1" height="1" fill="#f8f8f8f0"/>
  <rect x="31" y="14" width="1" height="1" fill="#f9f9f9ef"/>
  <rect x="32" y="14" width="1" height="1" fill="#0000004b"/>
  <rect x="44" y="14" width="1" height="1" fill="#0000004f"/>
  <rect x="45" y="14" width="1" height="1" fill="#f3f3f3f0"/>
  <rect x="46" y="14" width="1" height="1" fill="#0000005a"/>
  <rect x="47" y="14" width="4" height="1" fill="#0000004f"/>
  <rect x="51" y="14" width="1" height="1" fill="#0000005a"/>
  <rect x="52" y="14" width="1" height="1" fill="#f2f2f2f0"/>
  <rect x="53" y="14" width="1" height="1" fill="#0202024f"/>
  <rect x="63" y="14" width="1" height="1" fill="#b7b7b740"/>
  <rect x="64" y="14" width="2" height="1" fill="#fefefee6"/>
  <rect x="66" y="14" width="1" height="1" fill="#ffffffe6"/>
  <rect x="67" y="14" width="1" height="1" fill="#fefefee6"/>
  <rect x="68" y="14" width="1" height="1" fill="#fcfbfce6"/>
  <rect x="69" y="14" width="3" height="1" fill="#ffffffe6"/>
  <rect x="72" y="14" width="1" height="1" fill="#b9b9b940"/>
  <rect x="3" y="15" width="1" height="1" fill="#b7b7b716"/>
  <rect x="4" y="15" width="1" height="1" fill="#b6b6b640"/>
  <rect x="5" y="15" width="1" height="1" fill="#b6b6b656"/>
  <rect x="6" y="15" width="1" height="1" fill="#b7b7b756"/>
  <rect x="7" y="15" width="1" height="1" fill="#b4b4b456"/>
  <rect x="8" y="15" width="1" height="1" fill="#b3b3b356"/>
  <rect x="9" y="15" width="2" height="1" fill="#b4b4b456"/>
  <rect x="11" y="15" width="1" height="1" fill="#b4b4b440"/>
  <rect x="12" y="15" width="1" height="1" fill="#b7b7b716"/>
  <rect x="23" y="15" width="1" height="1" fill="#00000044"/>
  <rect x="24" y="15" width="1" height="1" fill="#0000004b"/>
  <rect x="25" y="15" width="1" height="1" fill="#0202024f"/>
  <rect x="26" y="15" width="1" height="1" fill="#0000004f"/>
  <rect x="27" y="15" width="1" height="1" fill="#0505054f"/>
  <rect x="28" y="15" width="2" height="1" fill="#0000004f"/>
  <rect x="30" y="15" width="1" height="1" fill="#0101014f"/>
  <rect x="31" y="15" width="1" height="1" fill="#0101014b"/>
  <rect x="32" y="15" width="1" height="1" fill="#00000044"/>
  <rect x="44" y="15" width="1" height="1" fill="#0000004b"/>
  <rect x="45" y="15" width="1" height="1" fill="#f9f9f9ef"/>
  <rect x="46" y="15" width="1" height="1" fill="#f2f2f2f0"/>
  <rect x="47" y="15" width="1" height="1" fill="#f3f3f3ef"/>
  <rect x="48" y="15" width="3" height="1" fill="#f6f6f6ef"/>
  <rect x="51" y="15" width="1" height="1" fill="#f6f6f6f0"/>
  <rect x="52" y="15" width="1" height="1" fill="#f2f2f2ef"/>
  <rect x="53" y="15" width="1" height="1" fill="#0202024b"/>
  <rect x="63" y="15" width="1" height="1" fill="#b7b7b716"/>
  <rect x="64" y="15" width="1" height="1" fill="#b9b9b940"/>
  <rect x="65" y="15" width="1" height="1" fill="#c0c0c056"/>
  <rect x="66" y="15" width="1" height="1" fill="#b0b0b056"/>
  <rect x="67" y="15" width="1" height="1" fill="#b7b7b756"/>
  <rect x="68" y="15" width="1" height="1" fill="#bdbdbd56"/>
  <rect x="69" y="15" width="1" height="1" fill="#b1b1b156"/>
  <rect x="70" y="15" width="1" height="1" fill="#c4c4c456"/>
  <rect x="71" y="15" width="1" height="1" fill="#b7b7b740"/>
  <rect x="72" y="15" width="1" height="1" fill="#b9b9b916"/>
  <rect x="20" y="16" width="24" height="1" fill="#00000040"/>
  <rect x="44" y="16" width="1" height="1" fill="#00000044"/>
  <rect x="45" y="16" width="1" height="1" fill="#0000004b"/>
  <rect x="46" y="16" width="6" height="1" fill="#0000004f"/>
  <rect x="52" y="16" width="1" height="1" fill="#0000004b"/>
  <rect x="53" y="16" width="1" height="1" fill="#01010144"/>
  <rect x="20" y="17" width="33" height="1" fill="#00000040"/>
  <rect x="53" y="17" width="1" height="1" fill="#01010140"/>
  <rect x="20" y="18" width="1" height="1" fill="#0000003a"/>
  <rect x="21" y="18" width="18" height="1" fill="#00000040"/>
  <rect x="39" y="18" width="2" height="1" fill="#0000003a"/>
  <rect x="41" y="18" width="18" height="1" fill="#00000040"/>
  <rect x="59" y="18" width="1" height="1" fill="#0000003a"/>
  <rect x="20" y="19" width="1" height="1" fill="#00000013"/>
  <rect x="21" y="19" width="1" height="1" fill="#0000003a"/>
  <rect x="22" y="19" width="16" height="1" fill="#00000040"/>
  <rect x="38" y="19" width="1" height="1" fill="#00000039"/>
  <rect x="39" y="19" width="2" height="1" fill="#00000013"/>
  <rect x="41" y="19" width="1" height="1" fill="#0000003a"/>
  <rect x="42" y="19" width="16" height="1" fill="#00000040"/>
  <rect x="58" y="19" width="1" height="1" fill="#00000039"/>
  <rect x="59" y="19" width="1" height="1" fill="#00000013"/>
</svg>