<svg xmlns="http://www.w3.org/2000/svg" width="130" height="52" viewBox="0 0 130 52" shape-rendering="crispEdges">
  <rect x="27" y="0" width="1" height="1" fill="#00000033"/>
  <rect x="28" y="0" width="20" height="1" fill="#02020233"/>
  <rect x="48" y="0" width="2" height="1" fill="#01010133"/>
  <rect x="50" y="0" width="1" height="1" fill="#05050533"/>
  <rect x="53" y="0" width="1" height="1" fill="#00000033"/>
  <rect x="54" y="0" width="1" height="1" fill="#07070733"/>
  <rect x="55" y="0" width="1" height="1" fill="#00000033"/>
  <rect x="56" y="0" width="20" height="1" fill="#02020233"/>
  <rect x="76" y="0" width="1" height="1" fill="#05050533"/>
  <rect x="105" y="0" width="1" height="1" fill="#00000033"/>
  <rect x="106" y="0" width="1" height="1" fill="#01010133"/>
  <rect x="107" y="0" width="1" height="1" fill="#00000033"/>
  <rect x="108" y="0" width="4" height="1" fill="#03030333"/>
  <rect x="112" y="0" width="16" height="1" fill="#02020233"/>
  <rect x="128" y="0" width="1" height="1" fill="#00000033"/>
  <rect x="26" y="1" width="1" height="7" fill="#00000033"/>
  <rect x="27" y="1" width="1" height="1" fill="#b3b3b369"/>
  <rect x="28" y="1" width="22" height="1" fill="#fefefeb6"/>
  <rect x="50" y="1" width="1" height="1" fill="#b3b3b369"/>
  <rect x="51" y="1" width="1" height="1" fill="#02020233"/>
  <rect x="52" y="1" width="1" height="1" fill="#00000033"/>
  <rect x="53" y="1" width="1" height="1" fill="#96969649"/>
  <rect x="54" y="1" width="1" height="1" fill="#f7f7f768"/>
  <rect x="55" y="1" width="1" height="1" fill="#f9f9f968"/>
  <rect x="56" y="1" width="20" height="1" fill="#fdfdfd68"/>
  <rect x="76" y="1" width="1" height="1" fill="#9b9b9b49"/>
  <rect x="77" y="1" width="1" height="3" fill="#00000033"/>
  <rect x="104" y="1" width="1" height="1" fill="#02020233"/>
  <rect x="105" y="1" width="1" height="1" fill="#adadad69"/>
  <rect x="106" y="1" width="1" height="1" fill="#fafafab6"/>
  <rect x="107" y="1" width="1" height="1" fill="#fefefeb6"/>
  <rect x="108" y="1" width="20" height="1" fill="#ffffffb6"/>
  <rect x="128" y="1" width="1" height="1" fill="#b6b6b669"/>
  <rect x="129" y="1" width="1" height="1" fill="#03030333"/>
  <rect x="27" y="2" width="1" height="1" fill="#fcfbfcb2"/>
  <rect x="28" y="2" width="1" height="1" fill="#ffffff9d"/>
  <rect x="29" y="2" width="19" height="1" fill="#ffffff91"/>
  <rect x="48" y="2" width="1" height="1" fill="#f8f8f891"/>
  <rect x="49" y="2" width="1" height="1" fill="#fcfbfc9d"/>
  <rect x="50" y="2" width="1" height="1" fill="#fcfbfcb2"/>
  <rect x="51" y="2" width="1" height="1" fill="#00000033"/>
  <rect x="52" y="2" width="1" height="1" fill="#01010133"/>
  <rect x="53" y="2" width="1" height="1" fill="#ffffff68"/>
  <rect x="54" y="2" width="1" height="1" fill="#fefefe3d"/>
  <rect x="55" y="2" width="1" height="1" fill="#f9f9f926"/>
  <rect x="56" y="2" width="19" height="1" fill="#fdfdfd26"/>
  <rect x="75" y="2" width="1" height="1" fill="#fdfdfd3d"/>
  <rect x="76" y="2" width="1" height="1" fill="#ffffff68"/>
  <rect x="104" y="2" width="1" height="1" fill="#08080833"/>
  <rect x="105" y="2" width="1" height="1" fill="#ffffffb2"/>
  <rect x="106" y="2" width="1" height="1" fill="#fcfbfc9d"/>
  <rect x="107" y="2" width="1" height="1" fill="#ffffff91"/>
  <rect x="108" y="2" width="4" height="1" fill="#fefefe91"/>
  <rect x="112" y="2" width="15" height="1" fill="#fdfdfd91"/>
  <rect x="127" y="2" width="1" height="1" fill="#fdfdfd9d"/>
  <rect x="128" y="2" width="1" height="1" fill="#ffffffb2"/>
  <rect x="129" y="2" width="1" height="2" fill="#00000033"/>
  <rect x="27" y="3" width="1" height="1" fill="#fefefeaf"/>
  <rect x="28" y="3" width="21" height="1" fill="#ffffff8c"/>
  <rect x="49" y="3" width="1" height="1" fill="#fcfbfc8c"/>
  <rect x="50" y="3" width="1" height="1" fill="#ffffffaf"/>
  <rect x="51" y="3" width="2" height="1" fill="#00000033"/>
  <rect x="53" y="3" width="1" height="1" fill="#fafafa68"/>
  <rect x="54" y="3" width="1" height="1" fill="#fdfdfd26"/>
  <rect x="55" y="3" width="1" height="1" fill="#f8f8f826"/>
  <rect x="56" y="3" width="20" height="1" fill="#fcfbfc26"/>
  <rect x="76" y="3" width="1" height="1" fill="#f9f9f968"/>
  <rect x="104" y="3" width="1" height="21" fill="#00000033"/>
  <rect x="105" y="3" width="1" height="1" fill="#ffffffaf"/>
  <rect x="106" y="3" width="6" height="1" fill="#ffffff8c"/>
  <rect x="112" y="3" width="16" height="1" fill="#fefefe8c"/>
  <rect x="128" y="3" width="1" height="1" fill="#fcfbfcaf"/>
  <rect x="27" y="4" width="1" height="1" fill="#fefefeab"/>
  <rect x="28" y="4" width="21" height="1" fill="#ffffff86"/>
  <rect x="49" y="4" width="1" height="1" fill="#fcfbfc86"/>
  <rect x="50" y="4" width="1" height="1" fill="#ffffffab"/>
  <rect x="51" y="4" width="1" height="12" fill="#00000033"/>
  <rect x="52" y="4" width="1" height="12" fill="#02020233"/>
  <rect x="53" y="4" width="1" height="10" fill="#fefefe68"/>
  <rect x="54" y="4" width="1" height="10" fill="#ffffff26"/>
  <rect x="55" y="4" width="1" height="10" fill="#fcfbfc26"/>
  <rect x="56" y="4" width="20" height="10" fill="#ffffff26"/>
  <rect x="76" y="4" width="1" height="2" fill="#fefefe68"/>
  <rect x="77" y="4" width="1" height="3" fill="#02020233"/>
  <rect x="105" y="4" width="1" height="1" fill="#ffffffab"/>
  <rect x="106" y="4" width="22" height="1" fill="#ffffff86"/>
  <rect x="128" y="4" width="1" height="1" fill="#ffffffab"/>
  <rect x="129" y="4" width="1" height="20" fill="#05050533"/>
  <rect x="27" y="5" width="1" height="1" fill="#fefefea6"/>
  <rect x="28" y="5" width="21" height="1" fill="#ffffff80"/>
  <rect x="49" y="5" width="1" height="1" fill="#fcfbfc80"/>
  <rect x="50" y="5" width="1" height="1" fill="#ffffffa6"/>
  <rect x="105" y="5" width="1" height="1" fill="#ffffffa6"/>
  <rect x="106" y="5" width="22" height="1" fill="#ffffff80"/>
  <rect x="128" y="5" width="1" height="1" fill="#ffffffa6"/>
  <rect x="27" y="6" width="1" height="1" fill="#fefefea1"/>
  <rect x="28" y="6" width="21" height="1" fill="#ffffff79"/>
  <rect x="49" y="6" width="1" height="1" fill="#fcfbfc79"/>
  <rect x="50" y="6" width="1" height="1" fill="#ffffffa1"/>
  <rect x="76" y="6" width="1" height="8" fill="#ffffff68"/>
  <rect x="105" y="6" width="1" height="1" fill="#ffffffa1"/>
  <rect x="106" y="6" width="22" height="1" fill="#ffffff79"/>
  <rect x="128" y="6" width="1" height="1" fill="#ffffffa1"/>
  <rect x="27" y="7" width="1" height="1" fill="#fefefe9d"/>
  <rect x="28" y="7" width="21" height="1" fill="#ffffff72"/>
  <rect x="49" y="7" width="1" height="1" fill="#fcfbfc72"/>
  <rect x="50" y="7" width="1" height="1" fill="#ffffff9d"/>
  <rect x="77" y="7" width="1" height="1" fill="#01010133"/>
  <rect x="105" y="7" width="1" height="1" fill="#ffffff9d"/>
  <rect x="106" y="7" width="22" height="1" fill="#ffffff72"/>
  <rect x="128" y="7" width="1" height="1" fill="#ffffff9d"/>
  <rect x="26" y="8" width="1" height="16" fill="#01010133"/>
  <rect x="27" y="8" width="1" height="1" fill="#fefefe98"/>
  <rect x="28" y="8" width="21" height="1" fill="#ffffff6b"/>
  <rect x="49" y="8" width="1" height="1" fill="#fcfbfc6b"/>
  <rect x="50" y="8" width="1" height="1" fill="#ffffff98"/>
  <rect x="77" y="8" width="1" height="17" fill="#00000033"/>
  <rect x="105" y="8" width="1" height="1" fill="#ffffff98"/>
  <rect x="106" y="8" width="22" height="1" fill="#ffffff6b"/>
  <rect x="128" y="8" width="1" height="1" fill="#ffffff98"/>
  <rect x="27" y="9" width="1" height="1" fill="#fefefe93"/>
  <rect x="28" y="9" width="21" height="1" fill="#ffffff64"/>
  <rect x="49" y="9" width="1" height="1" fill="#fcfbfc64"/>
  <rect x="50" y="9" width="1" height="1" fill="#ffffff93"/>
  <rect x="105" y="9" width="1" height="1" fill="#ffffff93"/>
  <rect x="106" y="9" width="22" height="1" fill="#ffffff64"/>
  <rect x="128" y="9" width="1" height="1" fill="#ffffff93"/>
  <rect x="27" y="10" width="1" height="1" fill="#fefefe8f"/>
  <rect x="28" y="10" width="21" height="1" fill="#ffffff5e"/>
  <rect x="49" y="10" width="1" height="1" fill="#fcfbfc5e"/>
  <rect x="50" y="10" width="1" height="1" fill="#ffffff8f"/>
  <rect x="105" y="10" width="1" height="1" fill="#ffffff8f"/>
  <rect x="106" y="10" width="22" height="1" fill="#ffffff5e"/>
  <rect x="128" y="10" width="1" height="1" fill="#ffffff8f"/>
  <rect x="27" y="11" width="1" height="1" fill="#fefefe8a"/>
  <rect x="28" y="11" width="21" height="1" fill="#ffffff57"/>
  <rect x="49" y="11" width="1" height="1" fill="#fcfbfc57"/>
  <rect x="50" y="11" width="1" height="1" fill="#ffffff8a"/>
  <rect x="105" y="11" width="1" height="1" fill="#ffffff8a"/>
  <rect x="106" y="11" width="22" height="1" fill="#ffffff57"/>
  <rect x="128" y="11" width="1" height="1" fill="#ffffff8a"/>
  <rect x="27" y="12" width="1" height="1" fill="#fefefe86"/>
  <rect x="28" y="12" width="21" height="1" fill="#ffffff52"/>
  <rect x="49" y="12" width="1" height="1" fill="#fcfbfc52"/>
  <rect x="50" y="12" width="1" height="1" fill="#ffffff86"/>
  <rect x="105" y="12" width="1" height="1" fill="#ffffff86"/>
  <rect x="106" y="12" width="22" height="1" fill="#ffffff52"/>
  <rect x="128" y="12" width="1" height="1" fill="#ffffff86"/>
  <rect x="27" y="13" width="1" height="11" fill="#fefefe68"/>
  <rect x="28" y="13" width="21" height="10" fill="#ffffff26"/>
  <rect x="49" y="13" width="1" height="3" fill="#fcfbfc26"/>
  <rect x="50" y="13" width="1" height="11" fill="#ffffff68"/>
  <rect x="105" y="13" width="1" height="11" fill="#ffffff68"/>
  <rect x="106" y="13" width="22" height="10" fill="#ffffff26"/>
  <rect x="128" y="13" width="1" height="11" fill="#ffffff68"/>
  <rect x="53" y="14" width="1" height="1" fill="#fefefe86"/>
  <rect x="54" y="14" width="1" height="1" fill="#ffffff52"/>
  <rect x="55" y="14" width="1" height="1" fill="#fcfbfc52"/>
  <rect x="56" y="14" width="20" height="1" fill="#ffffff52"/>
  <rect x="76" y="14" width="1" height="1" fill="#ffffff86"/>
  <rect x="53" y="15" width="1" height="1" fill="#fefefe8a"/>
  <rect x="54" y="15" width="1" height="1" fill="#ffffff57"/>
  <rect x="55" y="15" width="1" height="1" fill="#fcfbfc57"/>
  <rect x="56" y="15" width="20" height="1" fill="#ffffff57"/>
  <rect x="76" y="15" width="1" height="1" fill="#ffffff8a"/>
  <rect x="49" y="16" width="1" height="7" fill="#fdfdfd26"/>
  <rect x="51" y="16" width="1" height="8" fill="#01010133"/>
  <rect x="52" y="16" width="1" height="8" fill="#03030333"/>
  <rect x="53" y="16" width="1" height="1" fill="#ffffff8f"/>
  <rect x="54" y="16" width="1" height="1" fill="#ffffff5e"/>
  <rect x="55" y="16" width="1" height="1" fill="#fdfdfd5e"/>
  <rect x="56" y="16" width="20" height="1" fill="#ffffff5e"/>
  <rect x="76" y="16" width="1" height="1" fill="#ffffff8f"/>
  <rect x="53" y="17" width="1" height="1" fill="#ffffff93"/>
  <rect x="54" y="17" width="1" height="1" fill="#ffffff64"/>
  <rect x="55" y="17" width="1" height="1" fill="#fdfdfd64"/>
  <rect x="56" y="17" width="20" height="1" fill="#ffffff64"/>
  <rect x="76" y="17" width="1" height="1" fill="#ffffff93"/>
  <rect x="53" y="18" width="1" height="1" fill="#ffffff98"/>
  <rect x="54" y="18" width="1" height="1" fill="#ffffff6b"/>
  <rect x="55" y="18" width="1" height="1" fill="#fdfdfd6b"/>
  <rect x="56" y="18" width="20" height="1" fill="#ffffff6b"/>
  <rect x="76" y="18" width="1" height="1" fill="#ffffff98"/>
  <rect x="53" y="19" width="1" height="1" fill="#ffffff9d"/>
  <rect x="54" y="19" width="1" height="1" fill="#ffffff72"/>
  <rect x="55" y="19" width="1" height="1" fill="#fdfdfd72"/>
  <rect x="56" y="19" width="20" height="1" fill="#ffffff72"/>
  <rect x="76" y="19" width="1" height="1" fill="#ffffff9d"/>
  <rect x="53" y="20" width="1" height="1" fill="#ffffffa1"/>
  <rect x="54" y="20" width="1" height="1" fill="#ffffff79"/>
  <rect x="55" y="20" width="1" height="1" fill="#fdfdfd79"/>
  <rect x="56" y="20" width="20" height="1" fill="#ffffff79"/>
  <rect x="76" y="20" width="1" height="1" fill="#ffffffa1"/>
  <rect x="53" y="21" width="1" height="1" fill="#ffffffa6"/>
  <rect x="54" y="21" width="1" height="1" fill="#ffffff80"/>
  <rect x="55" y="21" width="1" height="1" fill="#fdfdfd80"/>
  <rect x="56" y="21" width="20" height="1" fill="#ffffff80"/>
  <rect x="76" y="21" width="1" height="1" fill="#ffffffa6"/>
  <rect x="53" y="22" width="1" height="1" fill="#ffffffab"/>
  <rect x="54" y="22" width="1" height="1" fill="#ffffff86"/>
  <rect x="55" y="22" width="1" height="1" fill="#fdfdfd86"/>
  <rect x="56" y="22" width="20" height="1" fill="#ffffff86"/>
  <rect x="76" y="22" width="1" height="1" fill="#ffffffab"/>
  <rect x="28" y="23" width="1" height="1" fill="#ffffff3d"/>
  <rect x="29" y="23" width="20" height="1" fill="#ffffff26"/>
  <rect x="49" y="23" width="1" height="1" fill="#fdfdfd3d"/>
  <rect x="53" y="23" width="1" height="1" fill="#ffffffaf"/>
  <rect x="54" y="23" width="1" height="1" fill="#ffffff98"/>
  <rect x="55" y="23" width="1" height="1" fill="#fdfdfd8c"/>
  <rect x="56" y="23" width="19" height="1" fill="#ffffff8c"/>
  <rect x="75" y="23" width="1" height="1" fill="#ffffff98"/>
  <rect x="76" y="23" width="1" height="1" fill="#ffffffaf"/>
  <rect x="106" y="23" width="1" height="1" fill="#ffffff3d"/>
  <rect x="107" y="23" width="20" height="1" fill="#ffffff26"/>
  <rect x="127" y="23" width="1" height="1" fill="#ffffff3d"/>
  <rect x="26" y="24" width="1" height="1" fill="#00000033"/>
  <rect x="27" y="24" width="1" height="1" fill="#95959549"/>
  <rect x="28" y="24" width="22" height="1" fill="#ffffff68"/>
  <rect x="50" y="24" width="1" height="1" fill="#94949449"/>
  <rect x="51" y="24" width="2" height="1" fill="#00000033"/>
  <rect x="53" y="24" width="1" height="1" fill="#b0b0b067"/>
  <rect x="54" y="24" width="1" height="1" fill="#ffffffb2"/>
  <rect x="55" y="24" width="1" height="1" fill="#fdfdfdb2"/>
  <rect x="56" y="24" width="20" height="1" fill="#ffffffb2"/>
  <rect x="76" y="24" width="1" height="1" fill="#b0b0b067"/>
  <rect x="104" y="24" width="1" height="1" fill="#02020233"/>
  <rect x="105" y="24" width="1" height="1" fill="#96969649"/>
  <rect x="106" y="24" width="2" height="1" fill="#ffffff68"/>
  <rect x="108" y="24" width="4" height="1" fill="#fefefe68"/>
  <rect x="112" y="24" width="16" height="1" fill="#ffffff68"/>
  <rect x="128" y="24" width="1" height="1" fill="#94949449"/>
  <rect x="129" y="24" width="1" height="1" fill="#02020233"/>
  <rect x="27" y="25" width="21" height="1" fill="#00000033"/>
  <rect x="48" y="25" width="1" height="2" fill="#02020233"/>
  <rect x="49" y="25" width="2" height="2" fill="#00000033"/>
  <rect x="53" y="25" width="2" height="1" fill="#00000033"/>
  <rect x="55" y="25" width="1" height="1" fill="#02020233"/>
  <rect x="56" y="25" width="21" height="1" fill="#00000033"/>
  <rect x="105" y="25" width="2" height="2" fill="#00000033"/>
  <rect x="107" y="25" width="1" height="2" fill="#03030333"/>
  <rect x="108" y="25" width="20" height="2" fill="#00000033"/>
  <rect x="128" y="25" width="1" height="2" fill="#02020233"/>
  <rect x="1" y="26" width="2" height="1" fill="#06060633"/>
  <rect x="3" y="26" width="22" height="1" fill="#00000033"/>
  <rect x="27" y="26" width="1" height="1" fill="#02020233"/>
  <rect x="28" y="26" width="20" height="1" fill="#00000033"/>
  <rect x="53" y="26" width="24" height="1" fill="#00000033"/>
  <rect x="79" y="26" width="17" height="1" fill="#02020233"/>
  <rect x="96" y="26" width="4" height="1" fill="#01010133"/>
  <rect x="100" y="26" width="3" height="1" fill="#00000033"/>
  <rect x="0" y="27" width="1" height="1" fill="#07070733"/>
  <rect x="1" y="27" width="1" height="1" fill="#93939349"/>
  <rect x="2" y="27" width="1" height="1" fill="#fafafa68"/>
  <rect x="3" y="27" width="1" height="1" fill="#fcfbfc68"/>
  <rect x="4" y="27" width="5" height="1" fill="#ffffff68"/>
  <rect x="9" y="27" width="15" height="1" fill="#fefefe68"/>
  <rect x="24" y="27" width="1" height="1" fill="#95959549"/>
  <rect x="25" y="27" width="1" height="1" fill="#00000033"/>
  <rect x="26" y="27" width="1" height="1" fill="#02020233"/>
  <rect x="27" y="27" width="1" height="1" fill="#94949449"/>
  <rect x="28" y="27" width="22" height="1" fill="#ffffff68"/>
  <rect x="50" y="27" width="1" height="1" fill="#94949449"/>
  <rect x="51" y="27" width="2" height="1" fill="#00000033"/>
  <rect x="53" y="27" width="1" height="1" fill="#90909049"/>
  <rect x="54" y="27" width="1" height="1" fill="#fafafa68"/>
  <rect x="55" y="27" width="1" height="1" fill="#f8f8f868"/>
  <rect x="56" y="27" width="20" height="1" fill="#ffffff68"/>
  <rect x="76" y="27" width="1" height="1" fill="#96969649"/>
  <rect x="77" y="27" width="1" height="1" fill="#08080833"/>
  <rect x="78" y="27" width="1" height="1" fill="#02020233"/>
  <rect x="79" y="27" width="1" height="1" fill="#90909049"/>
  <rect x="80" y="27" width="20" height="1" fill="#ffffff68"/>
  <rect x="100" y="27" width="1" height="1" fill="#f8f8f868"/>
  <rect x="101" y="27" width="1" height="1" fill="#ffffff68"/>
  <rect x="102" y="27" width="1" height="1" fill="#9a9a9a49"/>
  <rect x="103" y="27" width="1" height="1" fill="#05050533"/>
  <rect x="104" y="27" width="1" height="21" fill="#02020233"/>
  <rect x="105" y="27" width="1" height="1" fill="#96969649"/>
  <rect x="106" y="27" width="2" height="1" fill="#ffffff68"/>
  <rect x="108" y="27" width="4" height="1" fill="#fefefe68"/>
  <rect x="112" y="27" width="16" height="1" fill="#ffffff68"/>
  <rect x="128" y="27" width="1" height="1" fill="#94949449"/>
  <rect x="129" y="27" width="1" height="1" fill="#02020233"/>
  <rect x="0" y="28" width="1" height="22" fill="#00000033"/>
  <rect x="1" y="28" width="1" height="12" fill="#ffffff68"/>
  <rect x="2" y="28" width="1" height="1" fill="#fefefe3d"/>
  <rect x="3" y="28" width="1" height="4" fill="#ffffff26"/>
  <rect x="4" y="28" width="19" height="1" fill="#fefefe26"/>
  <rect x="23" y="28" width="1" height="1" fill="#fefefe3d"/>
  <rect x="24" y="28" width="1" height="12" fill="#ffffff68"/>
  <rect x="25" y="28" width="2" height="20" fill="#00000033"/>
  <rect x="27" y="28" width="1" height="12" fill="#ffffff68"/>
  <rect x="28" y="28" width="1" height="1" fill="#ffffff3d"/>
  <rect x="29" y="28" width="20" height="1" fill="#ffffff26"/>
  <rect x="49" y="28" width="1" height="1" fill="#fdfdfd3d"/>
  <rect x="50" y="28" width="1" height="12" fill="#ffffff68"/>
  <rect x="51" y="28" width="1" height="20" fill="#01010133"/>
  <rect x="52" y="28" width="1" height="20" fill="#03030333"/>
  <rect x="53" y="28" width="1" height="12" fill="#ffffff68"/>
  <rect x="54" y="28" width="1" height="1" fill="#ffffff3d"/>
  <rect x="55" y="28" width="1" height="12" fill="#fdfdfd26"/>
  <rect x="56" y="28" width="19" height="1" fill="#ffffff26"/>
  <rect x="75" y="28" width="1" height="1" fill="#ffffff3d"/>
  <rect x="76" y="28" width="1" height="12" fill="#ffffff68"/>
  <rect x="77" y="28" width="2" height="20" fill="#01010133"/>
  <rect x="79" y="28" width="1" height="12" fill="#ffffff68"/>
  <rect x="80" y="28" width="1" height="1" fill="#ffffff3d"/>
  <rect x="81" y="28" width="19" height="1" fill="#ffffff26"/>
  <rect x="100" y="28" width="1" height="1" fill="#fdfdfd26"/>
  <rect x="101" y="28" width="1" height="1" fill="#fdfdfd3d"/>
  <rect x="102" y="28" width="1" height="12" fill="#ffffff68"/>
  <rect x="103" y="28" width="1" height="20" fill="#00000033"/>
  <rect x="105" y="28" width="1" height="12" fill="#fcfbfc68"/>
  <rect x="106" y="28" width="1" height="1" fill="#ffffff3d"/>
  <rect x="107" y="28" width="20" height="1" fill="#ffffff26"/>
  <rect x="127" y="28" width="1" height="1" fill="#ffffff3d"/>
  <rect x="128" y="28" width="1" height="4" fill="#fefefe68"/>
  <rect x="129" y="28" width="1" height="4" fill="#03030333"/>
  <rect x="2" y="29" width="1" height="3" fill="#fefefe26"/>
  <rect x="4" y="29" width="20" height="3" fill="#fefefe26"/>
  <rect x="28" y="29" width="21" height="11" fill="#ffffff26"/>
  <rect x="49" y="29" width="1" height="11" fill="#fdfdfd26"/>
  <rect x="54" y="29" width="1" height="11" fill="#ffffff26"/>
  <rect x="56" y="29" width="20" height="11" fill="#ffffff26"/>
  <rect x="80" y="29" width="20" height="11" fill="#ffffff26"/>
  <rect x="100" y="29" width="2" height="3" fill="#fdfdfd26"/>
  <rect x="106" y="29" width="22" height="11" fill="#ffffff26"/>
  <rect x="2" y="32" width="1" height="8" fill="#fdfdfd26"/>
  <rect x="3" y="32" width="21" height="8" fill="#ffffff26"/>
  <rect x="100" y="32" width="2" height="8" fill="#fefefe26"/>
  <rect x="128" y="32" width="1" height="8" fill="#ffffff68"/>
  <rect x="129" y="32" width="1" height="16" fill="#05050533"/>
  <rect x="1" y="40" width="1" height="1" fill="#ffffff86"/>
  <rect x="2" y="40" width="1" height="1" fill="#fdfdfd52"/>
  <rect x="3" y="40" width="21" height="1" fill="#ffffff52"/>
  <rect x="24" y="40" width="1" height="1" fill="#ffffff86"/>
  <rect x="27" y="40" width="1" height="1" fill="#ffffff86"/>
  <rect x="28" y="40" width="21" height="1" fill="#ffffff52"/>
  <rect x="49" y="40" width="1" height="1" fill="#fdfdfd52"/>
  <rect x="50" y="40" width="1" height="1" fill="#ffffff86"/>
  <rect x="53" y="40" width="1" height="1" fill="#ffffff86"/>
  <rect x="54" y="40" width="1" height="1" fill="#ffffff52"/>
  <rect x="55" y="40" width="1" height="1" fill="#fdfdfd52"/>
  <rect x="56" y="40" width="20" height="1" fill="#ffffff52"/>
  <rect x="76" y="40" width="1" height="1" fill="#ffffff86"/>
  <rect x="79" y="40" width="1" height="1" fill="#ffffff86"/>
  <rect x="80" y="40" width="20" height="1" fill="#ffffff52"/>
  <rect x="100" y="40" width="2" height="1" fill="#fefefe52"/>
  <rect x="102" y="40" width="1" height="1" fill="#ffffff86"/>
  <rect x="105" y="40" width="1" height="1" fill="#fcfbfc86"/>
  <rect x="106" y="40" width="22" height="1" fill="#ffffff52"/>
  <rect x="128" y="40" width="1" height="1" fill="#ffffff86"/>
  <rect x="1" y="41" width="1" height="1" fill="#ffffff8a"/>
  <rect x="2" y="41" width="1" height="1" fill="#fdfdfd57"/>
  <rect x="3" y="41" width="21" height="1" fill="#ffffff57"/>
  <rect x="24" y="41" width="1" height="1" fill="#ffffff8a"/>
  <rect x="27" y="41" width="1" height="1" fill="#ffffff8a"/>
  <rect x="28" y="41" width="21" height="1" fill="#ffffff57"/>
  <rect x="49" y="41" width="1" height="1" fill="#fdfdfd57"/>
  <rect x="50" y="41" width="1" height="1" fill="#ffffff8a"/>
  <rect x="53" y="41" width="1" height="1" fill="#ffffff8a"/>
  <rect x="54" y="41" width="1" height="1" fill="#ffffff57"/>
  <rect x="55" y="41" width="1" height="1" fill="#fdfdfd57"/>
  <rect x="56" y="41" width="20" height="1" fill="#ffffff57"/>
  <rect x="76" y="41" width="1" height="1" fill="#ffffff8a"/>
  <rect x="79" y="41" width="1" height="1" fill="#ffffff8a"/>
  <rect x="80" y="41" width="20" height="1" fill="#ffffff57"/>
  <rect x="100" y="41" width="2" height="1" fill="#fefefe57"/>
  <rect x="102" y="41" width="1" height="1" fill="#ffffff8a"/>
  <rect x="105" y="41" width="1" height="1" fill="#fcfbfc8a"/>
  <rect x="106" y="41" width="22" height="1" fill="#ffffff57"/>
  <rect x="128" y="41" width="1" height="1" fill="#ffffff8a"/>
  <rect x="1" y="42" width="1" height="1" fill="#ffffff8f"/>
  <rect x="2" y="42" width="1" height="1" fill="#fdfdfd5e"/>
  <rect x="3" y="42" width="21" height="1" fill="#ffffff5e"/>
  <rect x="24" y="42" width="1" height="1" fill="#ffffff8f"/>
  <rect x="27" y="42" width="1" height="1" fill="#ffffff8f"/>
  <rect x="28" y="42" width="21" height="1" fill="#ffffff5e"/>
  <rect x="49" y="42" width="1" height="1" fill="#fdfdfd5e"/>
  <rect x="50" y="42" width="1" height="1" fill="#ffffff8f"/>
  <rect x="53" y="42" width="1" height="1" fill="#ffffff8f"/>
  <rect x="54" y="42" width="1" height="1" fill="#ffffff5e"/>
  <rect x="55" y="42" width="1" height="1" fill="#fdfdfd5e"/>
  <rect x="56" y="42" width="20" height="1" fill="#ffffff5e"/>
  <rect x="76" y="42" width="1" height="1" fill="#ffffff8f"/>
  <rect x="79" y="42" width="1" height="1" fill="#ffffff8f"/>
  <rect x="80" y="42" width="20" height="1" fill="#ffffff5e"/>
  <rect x="100" y="42" width="2" height="1" fill="#fefefe5e"/>
  <rect x="102" y="42" width="1" height="1" fill="#ffffff8f"/>
  <rect x="105" y="42" width="1" height="1" fill="#fcfbfc8f"/>
  <rect x="106" y="42" width="22" height="1" fill="#ffffff5e"/>
  <rect x="128" y="42" width="1" height="1" fill="#ffffff8f"/>
  <rect x="1" y="43" width="1" height="1" fill="#ffffff93"/>
  <rect x="2" y="43" width="1" height="1" fill="#fdfdfd64"/>
  <rect x="3" y="43" width="21" height="1" fill="#ffffff64"/>
  <rect x="24" y="43" width="1" height="1" fill="#ffffff93"/>
  <rect x="27" y="43" width="1" height="1" fill="#ffffff93"/>
  <rect x="28" y="43" width="21" height="1" fill="#ffffff64"/>
  <rect x="49" y="43" width="1" height="1" fill="#fdfdfd64"/>
  <rect x="50" y="43" width="1" height="1" fill="#ffffff93"/>
  <rect x="53" y="43" width="1" height="1" fill="#ffffff93"/>
  <rect x="54" y="43" width="1" height="1" fill="#ffffff64"/>
  <rect x="55" y="43" width="1" height="1" fill="#fdfdfd64"/>
  <rect x="56" y="43" width="20" height="1" fill="#ffffff64"/>
  <rect x="76" y="43" width="1" height="1" fill="#ffffff93"/>
  <rect x="79" y="43" width="1" height="1" fill="#ffffff93"/>
  <rect x="80" y="43" width="20" height="1" fill="#ffffff64"/>
  <rect x="100" y="43" width="2" height="1" fill="#fefefe64"/>
  <rect x="102" y="43" width="1" height="1" fill="#ffffff93"/>
  <rect x="105" y="43" width="1" height="1" fill="#fcfbfc93"/>
  <rect x="106" y="43" width="22" height="1" fill="#ffffff64"/>
  <rect x="128" y="43" width="1" height="1" fill="#ffffff93"/>
  <rect x="1" y="44" width="1" height="1" fill="#ffffff98"/>
  <rect x="2" y="44" width="1" height="1" fill="#fdfdfd6b"/>
  <rect x="3" y="44" width="21" height="1" fill="#ffffff6b"/>
  <rect x="24" y="44" width="1" height="1" fill="#ffffff98"/>
  <rect x="27" y="44" width="1" height="1" fill="#ffffff98"/>
  <rect x="28" y="44" width="21" height="1" fill="#ffffff6b"/>
  <rect x="49" y="44" width="1" height="1" fill="#fdfdfd6b"/>
  <rect x="50" y="44" width="1" height="1" fill="#ffffff98"/>
  <rect x="53" y="44" width="1" height="1" fill="#ffffff98"/>
  <rect x="54" y="44" width="1" height="1" fill="#ffffff6b"/>
  <rect x="55" y="44" width="1" height="1" fill="#fdfdfd6b"/>
  <rect x="56" y="44" width="20" height="1" fill="#ffffff6b"/>
  <rect x="76" y="44" width="1" height="1" fill="#ffffff98"/>
  <rect x="79" y="44" width="1" height="1" fill="#ffffff98"/>
  <rect x="80" y="44" width="20" height="1" fill="#ffffff6b"/>
  <rect x="100" y="44" width="2" height="1" fill="#fefefe6b"/>
  <rect x="102" y="44" width="1" height="1" fill="#ffffff98"/>
  <rect x="105" y="44" width="1" height="1" fill="#fcfbfc98"/>
  <rect x="106" y="44" width="22" height="1" fill="#ffffff6b"/>
  <rect x="128" y="44" width="1" height="1" fill="#ffffff98"/>
  <rect x="1" y="45" width="1" height="1" fill="#ffffff9d"/>
  <rect x="2" y="45" width="1" height="1" fill="#fdfdfd72"/>
  <rect x="3" y="45" width="21" height="1" fill="#ffffff72"/>
  <rect x="24" y="45" width="1" height="1" fill="#ffffff9d"/>
  <rect x="27" y="45" width="1" height="1" fill="#ffffff9d"/>
  <rect x="28" y="45" width="21" height="1" fill="#ffffff72"/>
  <rect x="49" y="45" width="1" height="1" fill="#fdfdfd72"/>
  <rect x="50" y="45" width="1" height="1" fill="#ffffff9d"/>
  <rect x="53" y="45" width="1" height="1" fill="#ffffff9d"/>
  <rect x="54" y="45" width="1" height="1" fill="#ffffff72"/>
  <rect x="55" y="45" width="1" height="1" fill="#fdfdfd72"/>
  <rect x="56" y="45" width="20" height="1" fill="#ffffff72"/>
  <rect x="76" y="45" width="1" height="1" fill="#ffffff9d"/>
  <rect x="79" y="45" width="1" height="1" fill="#ffffff9d"/>
  <rect x="80" y="45" width="20" height="1" fill="#ffffff72"/>
  <rect x="100" y="45" width="2" height="1" fill="#fefefe72"/>
  <rect x="102" y="45" width="1" height="1" fill="#ffffff9d"/>
  <rect x="105" y="45" width="1" height="1" fill="#fcfbfc9d"/>
  <rect x="106" y="45" width="22" height="1" fill="#ffffff72"/>
  <rect x="128" y="45" width="1" height="1" fill="#ffffff9d"/>
  <rect x="1" y="46" width="1" height="1" fill="#ffffffa1"/>
  <rect x="2" y="46" width="1" height="1" fill="#fdfdfd79"/>
  <rect x="3" y="46" width="21" height="1" fill="#ffffff79"/>
  <rect x="24" y="46" width="1" height="1" fill="#ffffffa1"/>
  <rect x="27" y="46" width="1" height="1" fill="#ffffffa1"/>
  <rect x="28" y="46" width="21" height="1" fill="#ffffff79"/>
  <rect x="49" y="46" width="1" height="1" fill="#fdfdfd79"/>
  <rect x="50" y="46" width="1" height="1" fill="#ffffffa1"/>
  <rect x="53" y="46" width="1" height="1" fill="#ffffffa1"/>
  <rect x="54" y="46" width="1" height="1" fill="#ffffff79"/>
  <rect x="55" y="46" width="1" height="1" fill="#fdfdfd79"/>
  <rect x="56" y="46" width="20" height="1" fill="#ffffff79"/>
  <rect x="76" y="46" width="1" height="1" fill="#ffffffa1"/>
  <rect x="79" y="46" width="1" height="1" fill="#ffffffa1"/>
  <rect x="80" y="46" width="20" height="1" fill="#ffffff79"/>
  <rect x="100" y="46" width="2" height="1" fill="#fefefe79"/>
  <rect x="102" y="46" width="1" height="1" fill="#ffffffa1"/>
  <rect x="105" y="46" width="1" height="1" fill="#fcfbfca1"/>
  <rect x="106" y="46" width="22" height="1" fill="#ffffff79"/>
  <rect x="128" y="46" width="1" height="1" fill="#ffffffa1"/>
  <rect x="1" y="47" width="1" height="1" fill="#ffffffa6"/>
  <rect x="2" y="47" width="1" height="1" fill="#fdfdfd80"/>
  <rect x="3" y="47" width="21" height="1" fill="#ffffff80"/>
  <rect x="24" y="47" width="1" height="1" fill="#ffffffa6"/>
  <rect x="27" y="47" width="1" height="1" fill="#ffffffa6"/>
  <rect x="28" y="47" width="21" height="1" fill="#ffffff80"/>
  <rect x="49" y="47" width="1" height="1" fill="#fdfdfd80"/>
  <rect x="50" y="47" width="1" height="1" fill="#ffffffa6"/>
  <rect x="53" y="47" width="1" height="1" fill="#ffffffa6"/>
  <rect x="54" y="47" width="1" height="1" fill="#ffffff80"/>
  <rect x="55" y="47" width="1" height="1" fill="#fdfdfd80"/>
  <rect x="56" y="47" width="20" height="1" fill="#ffffff80"/>
  <rect x="76" y="47" width="1" height="1" fill="#ffffffa6"/>
  <rect x="79" y="47" width="1" height="1" fill="#ffffffa6"/>
  <rect x="80" y="47" width="20" height="1" fill="#ffffff80"/>
  <rect x="100" y="47" width="2" height="1" fill="#fefefe80"/>
  <rect x="102" y="47" width="1" height="1" fill="#ffffffa6"/>
  <rect x="105" y="47" width="1" height="1" fill="#fcfbfca6"/>
  <rect x="106" y="47" width="22" height="1" fill="#ffffff80"/>
  <rect x="128" y="47" width="1" height="1" fill="#ffffffa6"/>
  <rect x="1" y="48" width="1" height="1" fill="#fefefeab"/>
  <rect x="2" y="48" width="1" height="1" fill="#fafafa86"/>
  <rect x="3" y="48" width="21" height="1" fill="#ffffff86"/>
  <rect x="24" y="48" width="1" height="1" fill="#fefefeab"/>
  <rect x="25" y="48" width="2" height="1" fill="#03030333"/>
  <rect x="27" y="48" width="1" height="1" fill="#fefefeab"/>
  <rect x="28" y="48" width="21" height="1" fill="#ffffff86"/>
  <rect x="49" y="48" width="1" height="1" fill="#fcfbfc86"/>
  <rect x="50" y="48" width="1" height="1" fill="#f9f9f9ab"/>
  <rect x="51" y="48" width="1" height="1" fill="#06060633"/>
  <rect x="52" y="48" width="1" height="2" fill="#00000033"/>
  <rect x="53" y="48" width="1" height="1" fill="#ffffffab"/>
  <rect x="54" y="48" width="1" height="1" fill="#ffffff86"/>
  <rect x="55" y="48" width="1" height="1" fill="#fdfdfd86"/>
  <rect x="56" y="48" width="20" height="1" fill="#fcfbfc86"/>
  <rect x="76" y="48" width="1" height="1" fill="#fdfdfdab"/>
  <rect x="77" y="48" width="2" height="1" fill="#02020233"/>
  <rect x="79" y="48" width="1" height="1" fill="#fdfdfdab"/>
  <rect x="80" y="48" width="20" height="1" fill="#ffffff86"/>
  <rect x="100" y="48" width="1" height="1" fill="#fdfdfd86"/>
  <rect x="101" y="48" width="1" height="1" fill="#fefefe86"/>
  <rect x="102" y="48" width="1" height="1" fill="#fcfbfcab"/>
  <rect x="103" y="48" width="1" height="1" fill="#01010133"/>
  <rect x="104" y="48" width="1" height="2" fill="#03030333"/>
  <rect x="105" y="48" width="1" height="1" fill="#fcfbfcab"/>
  <rect x="106" y="48" width="1" height="1" fill="#fdfdfd86"/>
  <rect x="107" y="48" width="21" height="1" fill="#ffffff86"/>
  <rect x="128" y="48" width="1" height="1" fill="#ffffffab"/>
  <rect x="129" y="48" width="1" height="1" fill="#00000033"/>
  <rect x="1" y="49" width="1" height="1" fill="#fefefeaf"/>
  <rect x="2" y="49" width="1" height="1" fill="#ffffff98"/>
  <rect x="3" y="49" width="1" height="1" fill="#ffffff8c"/>
  <rect x="4" y="49" width="19" height="1" fill="#fdfdfd8c"/>
  <rect x="23" y="49" width="1" height="1" fill="#fdfdfd98"/>
  <rect x="24" y="49" width="1" height="1" fill="#fcfbfcaf"/>
  <rect x="25" y="49" width="2" height="1" fill="#01010133"/>
  <rect x="27" y="49" width="1" height="1" fill="#fcfbfcaf"/>
  <rect x="28" y="49" width="1" height="1" fill="#ffffff98"/>
  <rect x="29" y="49" width="2" height="1" fill="#ffffff8c"/>
  <rect x="31" y="49" width="2" height="1" fill="#fefefe8c"/>
  <rect x="33" y="49" width="2" height="1" fill="#fdfdfd8c"/>
  <rect x="35" y="49" width="13" height="1" fill="#fcfbfc8c"/>
  <rect x="48" y="49" width="1" height="1" fill="#fafafa8c"/>
  <rect x="49" y="49" width="1" height="1" fill="#ffffff98"/>
  <rect x="50" y="49" width="1" height="1" fill="#fcfbfcaf"/>
  <rect x="51" y="49" width="1" height="1" fill="#05050533"/>
  <rect x="53" y="49" width="1" height="1" fill="#fafafaaf"/>
  <rect x="54" y="49" width="1" height="1" fill="#ffffff98"/>
  <rect x="55" y="49" width="1" height="1" fill="#ffffff8c"/>
  <rect x="56" y="49" width="19" height="1" fill="#fefefe8c"/>
  <rect x="75" y="49" width="1" height="1" fill="#fefefe98"/>
  <rect x="76" y="49" width="1" height="1" fill="#fafafaaf"/>
  <rect x="77" y="49" width="2" height="1" fill="#00000033"/>
  <rect x="79" y="49" width="1" height="1" fill="#fafafaaf"/>
  <rect x="80" y="49" width="1" height="1" fill="#ffffff98"/>
  <rect x="81" y="49" width="20" height="1" fill="#ffffff8c"/>
  <rect x="101" y="49" width="1" height="1" fill="#ffffff98"/>
  <rect x="102" y="49" width="1" height="1" fill="#fafafaaf"/>
  <rect x="103" y="49" width="1" height="1" fill="#00000033"/>
  <rect x="105" y="49" width="1" height="1" fill="#fafafaaf"/>
  <rect x="106" y="49" width="1" height="1" fill="#ffffff98"/>
  <rect x="107" y="49" width="1" height="1" fill="#fafafa8c"/>
  <rect x="108" y="49" width="4" height="1" fill="#fdfdfd8c"/>
  <rect x="112" y="49" width="15" height="1" fill="#fcfbfc8c"/>
  <rect x="127" y="49" width="1" height="1" fill="#fcfbfc98"/>
  <rect x="128" y="49" width="1" height="1" fill="#fdfdfdaf"/>
  <rect x="129" y="49" width="1" height="1" fill="#03030333"/>
  <rect x="0" y="50" width="1" height="1" fill="#03030333"/>
  <rect x="1" y="50" width="1" height="1" fill="#b3b3b367"/>
  <rect x="2" y="50" width="1" height="1" fill="#fefefeb2"/>
  <rect x="3" y="50" width="21" height="1" fill="#ffffffb2"/>
  <rect x="24" y="50" width="1" height="1" fill="#b6b6b667"/>
  <rect x="25" y="50" width="2" height="1" fill="#05050533"/>
  <rect x="27" y="50" width="1" height="1" fill="#b6b6b667"/>
  <rect x="28" y="50" width="1" height="1" fill="#fafafab2"/>
  <rect x="29" y="50" width="2" height="1" fill="#fcfbfcb2"/>
  <rect x="31" y="50" width="2" height="1" fill="#fdfdfdb2"/>
  <rect x="33" y="50" width="2" height="1" fill="#fefefeb2"/>
  <rect x="35" y="50" width="13" height="1" fill="#ffffffb2"/>
  <rect x="48" y="50" width="1" height="1" fill="#f8f8f8b2"/>
  <rect x="49" y="50" width="1" height="1" fill="#fcfbfcb2"/>
  <rect x="50" y="50" width="1" height="1" fill="#b2b2b267"/>
  <rect x="51" y="50" width="1" height="1" fill="#00000033"/>
  <rect x="52" y="50" width="1" height="1" fill="#03030333"/>
  <rect x="53" y="50" width="1" height="1" fill="#b3b3b367"/>
  <rect x="54" y="50" width="1" height="1" fill="#fafafab2"/>
  <rect x="55" y="50" width="21" height="1" fill="#ffffffb2"/>
  <rect x="76" y="50" width="1" height="1" fill="#b4b4b467"/>
  <rect x="77" y="50" width="2" height="1" fill="#02020233"/>
  <rect x="79" y="50" width="1" height="1" fill="#b4b4b467"/>
  <rect x="80" y="50" width="20" height="1" fill="#fcfbfcb2"/>
  <rect x="100" y="50" width="1" height="1" fill="#ffffffb2"/>
  <rect x="101" y="50" width="1" height="1" fill="#fefefeb2"/>
  <rect x="102" y="50" width="1" height="1" fill="#b4b4b467"/>
  <rect x="103" y="50" width="1" height="1" fill="#01010133"/>
  <rect x="104" y="50" width="1" height="1" fill="#07070733"/>
  <rect x="105" y="50" width="1" height="1" fill="#b1b1b167"/>
  <rect x="106" y="50" width="1" height="1" fill="#ffffffb2"/>
  <rect x="107" y="50" width="1" height="1" fill="#fdfdfdb2"/>
  <rect x="108" y="50" width="4" height="1" fill="#ffffffb2"/>
  <rect x="112" y="50" width="16" height="1" fill="#fefefeb2"/>
  <rect x="128" y="50" width="1" height="1" fill="#b9b9b967"/>
  <rect x="129" y="50" width="1" height="1" fill="#00000033"/>
  <rect x="1" y="51" width="1" height="1" fill="#02020233"/>
  <rect x="2" y="51" width="1" height="1" fill="#00000033"/>
  <rect x="3" y="51" width="1" height="1" fill="#07070733"/>
  <rect x="4" y="51" width="20" height="1" fill="#01010133"/>
  <rect x="24" y="51" width="1" height="1" fill="#05050533"/>
  <rect x="27" y="51" width="1" height="1" fill="#05050533"/>
  <rect x="28" y="51" width="2" height="1" fill="#02020233"/>
  <rect x="30" y="51" width="4" height="1" fill="#01010133"/>
  <rect x="34" y="51" width="14" height="1" fill="#00000033"/>
  <rect x="48" y="51" width="2" height="1" fill="#05050533"/>
  <rect x="50" y="51" width="1" height="1" fill="#00000033"/>
  <rect x="53" y="51" width="1" height="1" fill="#03030333"/>
  <rect x="54" y="51" width="22" height="1" fill="#00000033"/>
  <rect x="76" y="51" width="1" height="1" fill="#03030333"/>
  <rect x="79" y="51" width="21" height="1" fill="#03030333"/>
  <rect x="100" y="51" width="1" height="1" fill="#06060633"/>
  <rect x="101" y="51" width="1" height="1" fill="#02020233"/>
  <rect x="102" y="51" width="1" height="1" fill="#00000033"/>
  <rect x="105" y="51" width="3" height="1" fill="#00000033"/>
  <rect x="108" y="51" width="4" height="1" fill="#01010133"/>
  <rect x="112" y="51" width="16" height="1" fill="#00000033"/>
  <rect x="128" y="51" width="1" height="1" fill="#02020233"/>
</svg>