<svg xmlns="http://www.w3.org/2000/svg" width="16" height="16" viewBox="0 0 16 16" shape-rendering="crispEdges">
  <rect x="5" y="2" width="1" height="1" fill="#768a91c3"/>
  <rect x="6" y="2" width="2" height="1" fill="#7a8795"/>
  <rect x="8" y="2" width="1" height="1" fill="#788895"/>
  <rect x="9" y="2" width="1" height="1" fill="#758a93"/>
  <rect x="10" y="2" width="1" height="1" fill="#738b91c3"/>
  <rect x="5" y="3" width="1" height="1" fill="#728b95"/>
  <rect x="6" y="3" width="1" height="1" fill="#7589973c"/>
  <rect x="9" y="3" width="1" height="1" fill="#728b953c"/>
  <rect x="10" y="3" width="1" height="1" fill="#6e8d93"/>
  <rect x="2" y="4" width="1" height="1" fill="#768a8f85"/>
  <rect x="3" y="4" width="1" height="1" fill="#728c91f9"/>
  <rect x="4" y="4" width="1" height="1" fill="#708c95"/>
  <rect x="5" y="4" width="1" height="1" fill="#708c97"/>
  <rect x="6" y="4" width="2" height="1" fill="#73899b"/>
  <rect x="8" y="4" width="1" height="1" fill="#728a9b"/>
  <rect x="9" y="4" width="1" height="1" fill="#6e8c99"/>
  <rect x="10" y="4" width="1" height="1" fill="#6d8d97"/>
  <rect x="11" y="4" width="1" height="1" fill="#6d8e95"/>
  <rect x="12" y="4" width="1" height="1" fill="#6e8e91f9"/>
  <rect x="13" y="4" width="1" height="1" fill="#738c8f85"/>
  <rect x="2" y="5" width="1" height="1" fill="#768a91f9"/>
  <rect x="3" y="5" width="1" height="1" fill="#728b951e"/>
  <rect x="12" y="5" width="1" height="1" fill="#6e8d951e"/>
  <rect x="13" y="5" width="1" height="1" fill="#738b91f3"/>
  <rect x="2" y="6" width="1" height="1" fill="#7a879585"/>
  <rect x="3" y="6" width="1" height="1" fill="#758997"/>
  <rect x="4" y="6" width="1" height="1" fill="#73899b"/>
  <rect x="5" y="6" width="1" height="1" fill="#73899d"/>
  <rect x="6" y="6" width="1" height="1" fill="#76879f"/>
  <rect x="7" y="6" width="1" height="1" fill="#7687a1"/>
  <rect x="8" y="6" width="1" height="1" fill="#7587a1"/>
  <rect x="9" y="6" width="1" height="1" fill="#72899f"/>
  <rect x="10" y="6" width="1" height="1" fill="#6e8b9d"/>
  <rect x="11" y="6" width="1" height="1" fill="#6e8c9b"/>
  <rect x="12" y="6" width="1" height="1" fill="#728b97"/>
  <rect x="13" y="6" width="1" height="1" fill="#76899585"/>
  <rect x="3" y="7" width="1" height="1" fill="#768899"/>
  <rect x="4" y="7" width="1" height="1" fill="#73899bfd"/>
  <rect x="5" y="7" width="1" height="1" fill="#73899d2e"/>
  <rect x="6" y="7" width="1" height="1" fill="#76879de1"/>
  <rect x="9" y="7" width="1" height="1" fill="#73899de1"/>
  <rect x="10" y="7" width="1" height="1" fill="#708b9d3c"/>
  <rect x="11" y="7" width="1" height="2" fill="#708b9b"/>
  <rect x="12" y="7" width="1" height="2" fill="#738a99"/>
  <rect x="3" y="8" width="1" height="1" fill="#738a97"/>
  <rect x="4" y="8" width="1" height="1" fill="#728a9bf0"/>
  <rect x="6" y="8" width="1" height="1" fill="#758999"/>
  <rect x="9" y="8" width="1" height="1" fill="#738a99"/>
  <rect x="3" y="9" width="1" height="1" fill="#728b99"/>
  <rect x="4" y="9" width="1" height="1" fill="#6e8b9df0"/>
  <rect x="6" y="9" width="1" height="1" fill="#728b99"/>
  <rect x="9" y="9" width="1" height="1" fill="#728b99"/>
  <rect x="11" y="9" width="1" height="1" fill="#6e8b9d"/>
  <rect x="12" y="9" width="1" height="1" fill="#728a9b"/>
  <rect x="3" y="10" width="1" height="2" fill="#6e8b9d"/>
  <rect x="4" y="10" width="1" height="1" fill="#6d8c9ff0"/>
  <rect x="6" y="10" width="1" height="2" fill="#6e8b9d"/>
  <rect x="9" y="10" width="1" height="2" fill="#6e8b9d"/>
  <rect x="11" y="10" width="1" height="2" fill="#6d8ba1"/>
  <rect x="12" y="10" width="1" height="2" fill="#6e8b9d"/>
  <rect x="4" y="11" width="1" height="1" fill="#6d8ba1f0"/>
  <rect x="3" y="12" width="1" height="1" fill="#728a9b"/>
  <rect x="4" y="12" width="1" height="1" fill="#6e8b9dfd"/>
  <rect x="5" y="12" width="1" height="1" fill="#6e8b9d2e"/>
  <rect x="6" y="12" width="1" height="1" fill="#728a9b"/>
  <rect x="9" y="12" width="1" height="1" fill="#728a9b"/>
  <rect x="10" y="12" width="1" height="1" fill="#6e8b9d3b"/>
  <rect x="11" y="12" width="1" height="1" fill="#6e8b9d"/>
  <rect x="12" y="12" width="1" height="1" fill="#728a9b"/>
  <rect x="3" y="13" width="1" height="1" fill="#758a95c3"/>
  <rect x="4" y="13" width="2" height="1" fill="#738a97"/>
  <rect x="6" y="13" width="1" height="1" fill="#768995"/>
  <rect x="7" y="13" width="2" height="1" fill="#788893"/>
  <rect x="9" y="13" width="1" height="1" fill="#768995"/>
  <rect x="10" y="13" width="2" height="1" fill="#738a97"/>
  <rect x="12" y="13" width="1" height="1" fill="#758a95c4"/>
</svg>