<svg xmlns="http://www.w3.org/2000/svg" width="20" height="36" viewBox="0 0 20 36" shape-rendering="crispEdges">
  <rect x="0" y="0" width="12" height="1" fill="#e1e1e1"/>
  <rect x="12" y="0" width="4" height="1" fill="#e1e0e3"/>
  <rect x="16" y="0" width="4" height="1" fill="#dfe1e3"/>
  <rect x="0" y="1" width="12" height="1" fill="#eeeeee"/>
  <rect x="12" y="1" width="4" height="1" fill="#eeedf0"/>
  <rect x="16" y="1" width="4" height="1" fill="#eceef0"/>
  <rect x="0" y="2" width="12" height="1" fill="#f2f2f2"/>
  <rect x="12" y="2" width="4" height="1" fill="#f2f2f4"/>
  <rect x="16" y="2" width="4" height="1" fill="#f1f3f4"/>
  <rect x="0" y="3" width="12" height="1" fill="#ececec"/>
  <rect x="12" y="3" width="4" height="1" fill="#ececee"/>
  <rect x="16" y="3" width="4" height="1" fill="#ebedee"/>
  <rect x="0" y="4" width="8" height="4" fill="#efefef"/>
  <rect x="8" y="4" width="8" height="2" fill="#efeef1"/>
  <rect x="16" y="4" width="4" height="4" fill="#edeff3"/>
  <rect x="8" y="6" width="8" height="2" fill="#edeff1"/>
  <rect x="0" y="8" width="4" height="4" fill="#efefef"/>
  <rect x="4" y="8" width="2" height="4" fill="#efeef1"/>
  <rect x="6" y="8" width="4" height="2" fill="#edeff1"/>
  <rect x="10" y="8" width="6" height="2" fill="#ecf0f1"/>
  <rect x="16" y="8" width="4" height="2" fill="#edeff1"/>
  <rect x="6" y="10" width="2" height="6" fill="#edeff1"/>
  <rect x="8" y="10" width="3" height="1" fill="#ecf0f1"/>
  <rect x="11" y="10" width="1" height="1" fill="#eaf1f1"/>
  <rect x="12" y="10" width="8" height="2" fill="#ecf0f1"/>
  <rect x="8" y="11" width="2" height="1" fill="#ecf0f1"/>
  <rect x="10" y="11" width="2" height="1" fill="#eaf1f1"/>
  <rect x="0" y="12" width="6" height="4" fill="#efeef1"/>
  <rect x="8" y="12" width="2" height="4" fill="#ecf0f3"/>
  <rect x="10" y="12" width="10" height="4" fill="#ecf0f1"/>
  <rect x="0" y="16" width="4" height="4" fill="#edeff1"/>
  <rect x="4" y="16" width="2" height="4" fill="#edeff3"/>
  <rect x="6" y="16" width="4" height="8" fill="#edeff1"/>
  <rect x="10" y="16" width="2" height="4" fill="#ecf0f1"/>
  <rect x="12" y="16" width="8" height="8" fill="#edeff1"/>
  <rect x="0" y="20" width="6" height="2" fill="#edeff3"/>
  <rect x="10" y="20" width="2" height="4" fill="#edf0ef"/>
  <rect x="0" y="22" width="4" height="2" fill="#edeff1"/>
  <rect x="4" y="22" width="2" height="2" fill="#edeff3"/>
  <rect x="0" y="24" width="20" height="2" fill="#edeff1"/>
  <rect x="0" y="26" width="4" height="6" fill="#edf0ef"/>
  <rect x="4" y="26" width="16" height="2" fill="#edeff1"/>
  <rect x="4" y="28" width="8" height="4" fill="#edeff1"/>
  <rect x="12" y="28" width="4" height="4" fill="#edeff3"/>
  <rect x="16" y="28" width="4" height="4" fill="#edeff1"/>
  <rect x="0" y="32" width="20" height="1" fill="#edeff1"/>
  <rect x="0" y="33" width="1" height="1" fill="#edeff1dd"/>
  <rect x="1" y="33" width="18" height="2" fill="#edeff1"/>
  <rect x="19" y="33" width="1" height="1" fill="#edeff1dd"/>
  <rect x="0" y="34" width="1" height="1" fill="#edeff148"/>
  <rect x="19" y="34" width="1" height="1" fill="#edeff148"/>
  <rect x="1" y="35" width="1" height="1" fill="#edeff184"/>
  <rect x="2" y="35" width="16" height="1" fill="#edeff1"/>
  <rect x="18" y="35" width="1" height="1" fill="#edeff184"/>
</svg>