<svg xmlns="http://www.w3.org/2000/svg" width="18" height="18" viewBox="0 0 18 18" shape-rendering="crispEdges">
  <rect x="4" y="1" width="1" height="1" fill="#af83402a"/>
  <rect x="5" y="1" width="1" height="1" fill="#b587428e"/>
  <rect x="6" y="1" width="1" height="1" fill="#b4843ed7"/>
  <rect x="7" y="1" width="1" height="1" fill="#af8037f8"/>
  <rect x="8" y="1" width="1" height="1" fill="#b38437f8"/>
  <rect x="9" y="1" width="1" height="1" fill="#b48739d6"/>
  <rect x="10" y="1" width="1" height="1" fill="#b689418e"/>
  <rect x="11" y="1" width="1" height="1" fill="#b98d4e2a"/>
  <rect x="3" y="2" width="1" height="1" fill="#b1863c94"/>
  <rect x="4" y="2" width="1" height="1" fill="#a87f3dfd"/>
  <rect x="5" y="2" width="1" height="1" fill="#e2ba7e"/>
  <rect x="6" y="2" width="1" height="1" fill="#ffe2ab"/>
  <rect x="7" y="2" width="1" height="1" fill="#ffe3aa"/>
  <rect x="8" y="2" width="1" height="1" fill="#fff1b4"/>
  <rect x="9" y="2" width="1" height="1" fill="#ffe8a8"/>
  <rect x="10" y="2" width="1" height="1" fill="#ddbe7e"/>
  <rect x="11" y="2" width="1" height="1" fill="#b08a49fd"/>
  <rect x="12" y="2" width="1" height="1" fill="#bc8d4f98"/>
  <rect x="2" y="3" width="1" height="1" fill="#b68630bb"/>
  <rect x="3" y="3" width="1" height="1" fill="#dfb364"/>
  <rect x="4" y="3" width="1" height="1" fill="#ffe29b"/>
  <rect x="5" y="3" width="1" height="1" fill="#fedb9c"/>
  <rect x="6" y="3" width="1" height="1" fill="#fcda9f"/>
  <rect x="7" y="3" width="1" height="1" fill="#fadfa4"/>
  <rect x="8" y="3" width="1" height="1" fill="#ffeaaa"/>
  <rect x="9" y="3" width="1" height="1" fill="#f2de99"/>
  <rect x="10" y="3" width="1" height="1" fill="#f8dd99"/>
  <rect x="11" y="3" width="1" height="1" fill="#ffe9a6"/>
  <rect x="12" y="3" width="1" height="1" fill="#daac68"/>
  <rect x="13" y="3" width="1" height="1" fill="#c08945bc"/>
  <rect x="1" y="4" width="1" height="1" fill="#ae7b2a95"/>
  <rect x="2" y="4" width="1" height="1" fill="#ddad5b"/>
  <rect x="3" y="4" width="1" height="1" fill="#ffd483"/>
  <rect x="4" y="4" width="1" height="1" fill="#ffda89"/>
  <rect x="5" y="4" width="1" height="1" fill="#ffdf90"/>
  <rect x="6" y="4" width="1" height="1" fill="#ffe090"/>
  <rect x="7" y="4" width="1" height="1" fill="#fadd89"/>
  <rect x="8" y="4" width="1" height="1" fill="#f9dc86"/>
  <rect x="9" y="4" width="1" height="1" fill="#fbdb86"/>
  <rect x="10" y="4" width="1" height="1" fill="#fedb89"/>
  <rect x="11" y="4" width="1" height="1" fill="#ffdb90"/>
  <rect x="12" y="4" width="1" height="1" fill="#fdd48e"/>
  <rect x="13" y="4" width="1" height="1" fill="#daae6b"/>
  <rect x="14" y="4" width="1" height="1" fill="#ab7d3d94"/>
  <rect x="0" y="5" width="1" height="1" fill="#b6883a2b"/>
  <rect x="1" y="5" width="1" height="1" fill="#a77929fc"/>
  <rect x="2" y="5" width="1" height="1" fill="#ffd887"/>
  <rect x="3" y="5" width="1" height="1" fill="#f6cd79"/>
  <rect x="4" y="5" width="1" height="1" fill="#fdd780"/>
  <rect x="5" y="5" width="1" height="1" fill="#a48126"/>
  <rect x="6" y="5" width="1" height="1" fill="#a48124"/>
  <rect x="7" y="5" width="1" height="1" fill="#fcd97a"/>
  <rect x="8" y="5" width="1" height="1" fill="#fcd877"/>
  <rect x="9" y="5" width="1" height="1" fill="#a17c1e"/>
  <rect x="10" y="5" width="1" height="1" fill="#a47c23"/>
  <rect x="11" y="5" width="1" height="1" fill="#ffd886"/>
  <rect x="12" y="5" width="1" height="1" fill="#f6ce83"/>
  <rect x="13" y="5" width="1" height="1" fill="#ffd995"/>
  <rect x="14" y="5" width="1" height="1" fill="#a07b3afc"/>
  <rect x="15" y="5" width="1" height="1" fill="#a487582b"/>
  <rect x="0" y="6" width="1" height="1" fill="#a8883491"/>
  <rect x="1" y="6" width="1" height="1" fill="#dbb962"/>
  <rect x="2" y="6" width="1" height="1" fill="#ffd982"/>
  <rect x="3" y="6" width="1" height="1" fill="#fbd37a"/>
  <rect x="4" y="6" width="1" height="1" fill="#f9d377"/>
  <rect x="5" y="6" width="1" height="1" fill="#9d7618"/>
  <rect x="6" y="6" width="1" height="1" fill="#9f7516"/>
  <rect x="7" y="6" width="1" height="1" fill="#fdd271"/>
  <rect x="8" y="6" width="1" height="1" fill="#fcd16e"/>
  <rect x="9" y="6" width="1" height="1" fill="#9a710f"/>
  <rect x="10" y="6" width="1" height="1" fill="#9a7214"/>
  <rect x="11" y="6" width="1" height="1" fill="#fdd47d"/>
  <rect x="12" y="6" width="1" height="1" fill="#fad282"/>
  <rect x="13" y="6" width="1" height="1" fill="#ffd98f"/>
  <rect x="14" y="6" width="1" height="1" fill="#dcb774"/>
  <rect x="15" y="6" width="1" height="1" fill="#a3895691"/>
  <rect x="0" y="7" width="1" height="1" fill="#a38128d9"/>
  <rect x="1" y="7" width="1" height="1" fill="#e8c46c"/>
  <rect x="2" y="7" width="1" height="1" fill="#f4ce74"/>
  <rect x="3" y="7" width="1" height="1" fill="#ffd87f"/>
  <rect x="4" y="7" width="1" height="1" fill="#f7cf74"/>
  <rect x="5" y="7" width="1" height="1" fill="#ab8225"/>
  <rect x="6" y="7" width="1" height="1" fill="#ab8221"/>
  <rect x="7" y="7" width="1" height="1" fill="#f8d06c"/>
  <rect x="8" y="7" width="1" height="1" fill="#f7cf6a"/>
  <rect x="9" y="7" width="1" height="1" fill="#a77e1c"/>
  <rect x="10" y="7" width="1" height="1" fill="#a67f21"/>
  <rect x="11" y="7" width="1" height="1" fill="#f9d178"/>
  <rect x="12" y="7" width="1" height="1" fill="#ffd684"/>
  <rect x="13" y="7" width="1" height="1" fill="#f8ce81"/>
  <rect x="14" y="7" width="1" height="1" fill="#ecc277"/>
  <rect x="15" y="7" width="1" height="1" fill="#9f7f4ad9"/>
  <rect x="0" y="8" width="1" height="1" fill="#a26c15fa"/>
  <rect x="1" y="8" width="1" height="1" fill="#ffd179"/>
  <rect x="2" y="8" width="1" height="1" fill="#facd76"/>
  <rect x="3" y="8" width="1" height="1" fill="#fed47b"/>
  <rect x="4" y="8" width="1" height="1" fill="#f5ca72"/>
  <rect x="5" y="8" width="1" height="1" fill="#fff297"/>
  <rect x="6" y="8" width="1" height="1" fill="#ffe482"/>
  <rect x="7" y="8" width="1" height="1" fill="#efd26c"/>
  <rect x="8" y="8" width="1" height="1" fill="#f3d670"/>
  <rect x="9" y="8" width="1" height="1" fill="#ffe683"/>
  <rect x="10" y="8" width="1" height="1" fill="#ffed91"/>
  <rect x="11" y="8" width="1" height="1" fill="#ebc36a"/>
  <rect x="12" y="8" width="1" height="1" fill="#ffd580"/>
  <rect x="13" y="8" width="1" height="1" fill="#ffcd7c"/>
  <rect x="14" y="8" width="1" height="1" fill="#ffcf7f"/>
  <rect x="15" y="8" width="1" height="1" fill="#a0753bfa"/>
  <rect x="0" y="9" width="1" height="1" fill="#a96b1afa"/>
  <rect x="1" y="9" width="1" height="1" fill="#fcc370"/>
  <rect x="2" y="9" width="1" height="1" fill="#fbc973"/>
  <rect x="3" y="9" width="1" height="1" fill="#fbce77"/>
  <rect x="4" y="9" width="1" height="1" fill="#fdd378"/>
  <rect x="5" y="9" width="1" height="1" fill="#f2cb6d"/>
  <rect x="6" y="9" width="1" height="1" fill="#e9c966"/>
  <rect x="7" y="9" width="1" height="1" fill="#e3c864"/>
  <rect x="8" y="9" width="1" height="1" fill="#e7cc67"/>
  <rect x="9" y="9" width="1" height="1" fill="#ecce6b"/>
  <rect x="10" y="9" width="1" height="1" fill="#efcc6d"/>
  <rect x="11" y="9" width="1" height="1" fill="#f9cf75"/>
  <rect x="12" y="9" width="1" height="1" fill="#fdcd77"/>
  <rect x="13" y="9" width="1" height="1" fill="#fcc573"/>
  <rect x="14" y="9" width="1" height="1" fill="#f9bd6d"/>
  <rect x="15" y="9" width="1" height="1" fill="#a17237f4"/>
  <rect x="0" y="10" width="1" height="1" fill="#a76e24db"/>
  <rect x="1" y="10" width="1" height="1" fill="#e9b366"/>
  <rect x="2" y="10" width="1" height="1" fill="#f7c572"/>
  <rect x="3" y="10" width="1" height="1" fill="#f9cc72"/>
  <rect x="4" y="10" width="1" height="1" fill="#f0c767"/>
  <rect x="5" y="10" width="1" height="1" fill="#f1ca68"/>
  <rect x="6" y="10" width="1" height="1" fill="#ebc665"/>
  <rect x="7" y="10" width="1" height="1" fill="#eac866"/>
  <rect x="8" y="10" width="1" height="1" fill="#edce69"/>
  <rect x="9" y="10" width="1" height="1" fill="#f1cf6b"/>
  <rect x="10" y="10" width="1" height="1" fill="#f3cf6b"/>
  <rect x="11" y="10" width="1" height="1" fill="#f0c767"/>
  <rect x="12" y="10" width="1" height="1" fill="#fdce75"/>
  <rect x="13" y="10" width="1" height="1" fill="#f7c572"/>
  <rect x="14" y="10" width="1" height="1" fill="#e9b164"/>
  <rect x="15" y="10" width="1" height="1" fill="#a47840d8"/>
  <rect x="0" y="11" width="1" height="1" fill="#a6722899"/>
  <rect x="1" y="11" width="1" height="1" fill="#daa95a"/>
  <rect x="2" y="11" width="1" height="1" fill="#f3c46b"/>
  <rect x="3" y="11" width="1" height="1" fill="#f6cb6a"/>
  <rect x="4" y="11" width="1" height="1" fill="#ecc15e"/>
  <rect x="5" y="11" width="1" height="1" fill="#aa8120"/>
  <rect x="6" y="11" width="1" height="1" fill="#f3c86e"/>
  <rect x="7" y="11" width="1" height="1" fill="#eac269"/>
  <rect x="8" y="11" width="1" height="1" fill="#f0c86f"/>
  <rect x="9" y="11" width="1" height="1" fill="#f3cb70"/>
  <rect x="10" y="11" width="1" height="1" fill="#a87f1d"/>
  <rect x="11" y="11" width="1" height="1" fill="#e5bc58"/>
  <rect x="12" y="11" width="1" height="1" fill="#eec362"/>
  <rect x="13" y="11" width="1" height="1" fill="#e9ba61"/>
  <rect x="14" y="11" width="1" height="1" fill="#cd9c4d"/>
  <rect x="15" y="11" width="1" height="1" fill="#9671399a"/>
  <rect x="0" y="12" width="1" height="1" fill="#7b4f0038"/>
  <rect x="1" y="12" width="1" height="1" fill="#9e731bfc"/>
  <rect x="2" y="12" width="1" height="1" fill="#efc662"/>
  <rect x="3" y="12" width="1" height="1" fill="#edc35b"/>
  <rect x="4" y="12" width="1" height="1" fill="#f2c761"/>
  <rect x="5" y="12" width="1" height="1" fill="#ffe388"/>
  <rect x="6" y="12" width="1" height="1" fill="#a9782b"/>
  <rect x="7" y="12" width="1" height="1" fill="#a4722c"/>
  <rect x="8" y="12" width="1" height="1" fill="#a87630"/>
  <rect x="9" y="12" width="1" height="1" fill="#ac7b2f"/>
  <rect x="10" y="12" width="1" height="1" fill="#ffdd82"/>
  <rect x="11" y="12" width="1" height="1" fill="#ecc15c"/>
  <rect x="12" y="12" width="1" height="1" fill="#e7bd55"/>
  <rect x="13" y="12" width="1" height="1" fill="#f1c965"/>
  <rect x="14" y="12" width="1" height="1" fill="#976c14fc"/>
  <rect x="15" y="12" width="1" height="1" fill="#76571b38"/>
  <rect x="1" y="13" width="1" height="1" fill="#967123a0"/>
  <rect x="2" y="13" width="1" height="1" fill="#b8912f"/>
  <rect x="3" y="13" width="1" height="1" fill="#ecc459"/>
  <rect x="4" y="13" width="1" height="1" fill="#face62"/>
  <rect x="5" y="13" width="1" height="1" fill="#edbd59"/>
  <rect x="6" y="13" width="1" height="1" fill="#ffd786"/>
  <rect x="7" y="13" width="1" height="1" fill="#ffd68e"/>
  <rect x="8" y="13" width="1" height="1" fill="#ffd58d"/>
  <rect x="9" y="13" width="1" height="1" fill="#ffdb89"/>
  <rect x="10" y="13" width="1" height="1" fill="#edbd59"/>
  <rect x="11" y="13" width="1" height="1" fill="#f1c559"/>
  <rect x="12" y="13" width="1" height="1" fill="#e6be53"/>
  <rect x="13" y="13" width="1" height="1" fill="#bb9532"/>
  <rect x="14" y="13" width="1" height="1" fill="#926c1ea0"/>
  <rect x="1" y="14" width="1" height="1" fill="#421c0015"/>
  <rect x="2" y="14" width="1" height="1" fill="#8f6b18c2"/>
  <rect x="3" y="14" width="1" height="1" fill="#bb932a"/>
  <rect x="4" y="14" width="1" height="1" fill="#eac048"/>
  <rect x="5" y="14" width="1" height="1" fill="#ebbb42"/>
  <rect x="6" y="14" width="1" height="1" fill="#f6be54"/>
  <rect x="7" y="14" width="1" height="1" fill="#f7bc58"/>
  <rect x="8" y="14" width="1" height="1" fill="#f4b856"/>
  <rect x="9" y="14" width="1" height="1" fill="#f3bc51"/>
  <rect x="10" y="14" width="1" height="1" fill="#f1c048"/>
  <rect x="11" y="14" width="1" height="1" fill="#f1c74f"/>
  <rect x="12" y="14" width="1" height="1" fill="#b48c23"/>
  <rect x="13" y="14" width="1" height="1" fill="#94701cc3"/>
  <rect x="14" y="14" width="1" height="1" fill="#3f1a0015"/>
  <rect x="2" y="15" width="1" height="1" fill="#3e1d0019"/>
  <rect x="3" y="15" width="1" height="1" fill="#92721f9f"/>
  <rect x="4" y="15" width="1" height="1" fill="#9a7106fd"/>
  <rect x="5" y="15" width="1" height="1" fill="#ce9d29"/>
  <rect x="6" y="15" width="1" height="1" fill="#e1a73b"/>
  <rect x="7" y="15" width="1" height="1" fill="#f6ba51"/>
  <rect x="8" y="15" width="1" height="1" fill="#f2b84f"/>
  <rect x="9" y="15" width="1" height="1" fill="#e5ae41"/>
  <rect x="10" y="15" width="1" height="1" fill="#d3a12e"/>
  <rect x="11" y="15" width="1" height="1" fill="#9d7308fd"/>
  <rect x="12" y="15" width="1" height="1" fill="#8f6c1ba3"/>
  <rect x="13" y="15" width="1" height="1" fill="#4324001b"/>
  <rect x="3" y="16" width="1" height="1" fill="#1200000f"/>
  <rect x="4" y="16" width="1" height="1" fill="#6f460241"/>
  <rect x="5" y="16" width="1" height="1" fill="#9b64109b"/>
  <rect x="6" y="16" width="1" height="1" fill="#a66b16dc"/>
  <rect x="7" y="16" width="1" height="1" fill="#a66912fb"/>
  <rect x="8" y="16" width="1" height="1" fill="#a66c14f5"/>
  <rect x="9" y="16" width="1" height="1" fill="#a06a11d8"/>
  <rect x="10" y="16" width="1" height="1" fill="#9e6a139b"/>
  <rect x="11" y="16" width="1" height="1" fill="#70470142"/>
  <rect x="12" y="16" width="1" height="1" fill="#1500000f"/>
  <rect x="5" y="17" width="1" height="1" fill="#2e00000f"/>
  <rect x="6" y="17" width="1" height="1" fill="#31000016"/>
  <rect x="7" y="17" width="2" height="1" fill="#33000019"/>
  <rect x="9" y="17" width="1" height="1" fill="#2e000016"/>
  <rect x="10" y="17" width="1" height="1" fill="#2e00000f"/>
</svg>