<svg xmlns="http://www.w3.org/2000/svg" width="49" height="16" viewBox="0 0 49 16" shape-rendering="crispEdges">
  <rect x="0" y="0" width="1" height="1" fill="#3d599bde"/>
  <rect x="1" y="0" width="5" height="1" fill="#3d599bee"/>
  <rect x="6" y="0" width="1" height="1" fill="#3d599dee"/>
  <rect x="7" y="0" width="1" height="1" fill="#3b579bee"/>
  <rect x="8" y="0" width="1" height="1" fill="#3d5699ee"/>
  <rect x="9" y="0" width="1" height="1" fill="#425c9dee"/>
  <rect x="10" y="0" width="1" height="1" fill="#3a528eee"/>
  <rect x="11" y="0" width="1" height="1" fill="#36518aee"/>
  <rect x="12" y="0" width="1" height="1" fill="#38598dee"/>
  <rect x="13" y="0" width="1" height="1" fill="#395d8cee"/>
  <rect x="14" y="0" width="1" height="1" fill="#32577fee"/>
  <rect x="15" y="0" width="1" height="1" fill="#3d5c7ade"/>
  <rect x="33" y="0" width="1" height="1" fill="#6c90bd0b"/>
  <rect x="34" y="0" width="1" height="1" fill="#6a92c478"/>
  <rect x="35" y="0" width="1" height="1" fill="#6494c8d2"/>
  <rect x="36" y="0" width="1" height="1" fill="#5c98caed"/>
  <rect x="37" y="0" width="1" height="1" fill="#549cccfd"/>
  <rect x="38" y="0" width="1" height="1" fill="#4ea1d3fa"/>
  <rect x="39" y="0" width="1" height="1" fill="#4ba4d6e5"/>
  <rect x="40" y="0" width="1" height="1" fill="#4aa6d7de"/>
  <rect x="41" y="0" width="1" height="1" fill="#4ba8d8de"/>
  <rect x="42" y="0" width="1" height="1" fill="#4faad8dd"/>
  <rect x="43" y="0" width="1" height="1" fill="#4eabd6d8"/>
  <rect x="44" y="0" width="1" height="1" fill="#4caed8e5"/>
  <rect x="45" y="0" width="1" height="1" fill="#48afd8f8"/>
  <rect x="46" y="0" width="2" height="1" fill="#46b2d9f9"/>
  <rect x="48" y="0" width="1" height="1" fill="#4db6dbf3"/>
  <rect x="0" y="1" width="1" height="1" fill="#3d599bf2"/>
  <rect x="1" y="1" width="5" height="2" fill="#3d599b"/>
  <rect x="6" y="1" width="1" height="1" fill="#3d599d"/>
  <rect x="7" y="1" width="1" height="1" fill="#3c589a"/>
  <rect x="8" y="1" width="1" height="1" fill="#3d5596"/>
  <rect x="9" y="1" width="1" height="1" fill="#3b528c"/>
  <rect x="10" y="1" width="1" height="1" fill="#3b4e82"/>
  <rect x="11" y="1" width="1" height="1" fill="#4f6091"/>
  <rect x="12" y="1" width="1" height="1" fill="#516696"/>
  <rect x="13" y="1" width="1" height="1" fill="#415c87"/>
  <rect x="14" y="1" width="1" height="1" fill="#3a5a81"/>
  <rect x="15" y="1" width="1" height="1" fill="#415d7ff2"/>
  <rect x="20" y="1" width="1" height="1" fill="#0e2532"/>
  <rect x="33" y="1" width="1" height="1" fill="#6991c176"/>
  <rect x="34" y="1" width="1" height="1" fill="#6793c6"/>
  <rect x="35" y="1" width="1" height="1" fill="#6494c8"/>
  <rect x="36" y="1" width="1" height="1" fill="#5f97c6"/>
  <rect x="37" y="1" width="1" height="1" fill="#5c99c6ee"/>
  <rect x="38" y="1" width="1" height="1" fill="#5b9ccba0"/>
  <rect x="39" y="1" width="1" height="1" fill="#57a0cc24"/>
  <rect x="43" y="1" width="1" height="1" fill="#4faad618"/>
  <rect x="44" y="1" width="1" height="1" fill="#4dadd88c"/>
  <rect x="45" y="1" width="1" height="1" fill="#4aaed8fb"/>
  <rect x="46" y="1" width="1" height="1" fill="#48b1d9"/>
  <rect x="47" y="1" width="1" height="1" fill="#46b2d9"/>
  <rect x="48" y="1" width="1" height="1" fill="#4bb5daf9"/>
  <rect x="0" y="2" width="1" height="4" fill="#3d599bee"/>
  <rect x="6" y="2" width="1" height="1" fill="#3c5a9b"/>
  <rect x="7" y="2" width="1" height="1" fill="#3f5999"/>
  <rect x="8" y="2" width="1" height="1" fill="#384e89"/>
  <rect x="9" y="2" width="1" height="1" fill="#6473a5"/>
  <rect x="10" y="2" width="1" height="1" fill="#c2c5eb"/>
  <rect x="11" y="2" width="1" height="1" fill="#f0efff"/>
  <rect x="12" y="2" width="1" height="1" fill="#edf1ff"/>
  <rect x="13" y="2" width="1" height="1" fill="#909dbf"/>
  <rect x="14" y="2" width="1" height="1" fill="#3a4f75"/>
  <rect x="15" y="2" width="1" height="1" fill="#435d82ee"/>
  <rect x="19" y="2" width="1" height="1" fill="#09263a"/>
  <rect x="20" y="2" width="1" height="1" fill="#0b253a"/>
  <rect x="33" y="2" width="1" height="1" fill="#6393c7d3"/>
  <rect x="34" y="2" width="1" height="1" fill="#6195cc"/>
  <rect x="35" y="2" width="1" height="1" fill="#6196ca"/>
  <rect x="36" y="2" width="1" height="1" fill="#6595c2c1"/>
  <rect x="37" y="2" width="1" height="1" fill="#6c93bc4e"/>
  <rect x="42" y="2" width="1" height="1" fill="#54a8d251"/>
  <rect x="43" y="2" width="1" height="1" fill="#51a9d6d7"/>
  <rect x="44" y="2" width="1" height="1" fill="#4facd8"/>
  <rect x="45" y="2" width="1" height="1" fill="#4caed8"/>
  <rect x="46" y="2" width="1" height="1" fill="#4bafd9"/>
  <rect x="47" y="2" width="1" height="1" fill="#4ab0d9"/>
  <rect x="48" y="2" width="1" height="1" fill="#4bb2d8f9"/>
  <rect x="1" y="3" width="2" height="3" fill="#3d599b"/>
  <rect x="3" y="3" width="2" height="1" fill="#3f5b9c"/>
  <rect x="5" y="3" width="1" height="1" fill="#3c589a"/>
  <rect x="6" y="3" width="1" height="1" fill="#3b5797"/>
  <rect x="7" y="3" width="1" height="1" fill="#415995"/>
  <rect x="8" y="3" width="1" height="1" fill="#45588f"/>
  <rect x="9" y="3" width="1" height="1" fill="#cedbff"/>
  <rect x="10" y="3" width="1" height="1" fill="#ffffff"/>
  <rect x="11" y="3" width="1" height="1" fill="#f8f8ff"/>
  <rect x="12" y="3" width="1" height="1" fill="#eff3ff"/>
  <rect x="13" y="3" width="1" height="1" fill="#97a4c8"/>
  <rect x="14" y="3" width="1" height="1" fill="#3a4e77"/>
  <rect x="15" y="3" width="1" height="1" fill="#455c84ee"/>
  <rect x="18" y="3" width="1" height="1" fill="#03283e"/>
  <rect x="19" y="3" width="1" height="1" fill="#002a3e"/>
  <rect x="20" y="3" width="1" height="1" fill="#04273e"/>
  <rect x="22" y="3" width="1" height="1" fill="#082736"/>
  <rect x="24" y="3" width="1" height="1" fill="#082834"/>
  <rect x="26" y="3" width="1" height="1" fill="#09263a"/>
  <rect x="28" y="3" width="1" height="1" fill="#092442"/>
  <rect x="30" y="3" width="1" height="1" fill="#082446"/>
  <rect x="33" y="3" width="1" height="1" fill="#5d92d0f6"/>
  <rect x="34" y="3" width="1" height="1" fill="#5e94d1f9"/>
  <rect x="35" y="3" width="1" height="1" fill="#5f94cd85"/>
  <rect x="36" y="3" width="1" height="1" fill="#6692c50f"/>
  <rect x="41" y="3" width="1" height="1" fill="#55a3cb65"/>
  <rect x="42" y="3" width="1" height="1" fill="#56a5d3"/>
  <rect x="43" y="3" width="1" height="1" fill="#53a6d5"/>
  <rect x="44" y="3" width="1" height="1" fill="#51a9d6"/>
  <rect x="45" y="3" width="1" height="1" fill="#4eabd6"/>
  <rect x="46" y="3" width="1" height="1" fill="#4dadd8"/>
  <rect x="47" y="3" width="1" height="1" fill="#4caed8"/>
  <rect x="48" y="3" width="1" height="1" fill="#4aafd6f9"/>
  <rect x="3" y="4" width="1" height="1" fill="#3f5b9c"/>
  <rect x="4" y="4" width="1" height="1" fill="#415d9f"/>
  <rect x="5" y="4" width="1" height="1" fill="#405a9a"/>
  <rect x="6" y="4" width="1" height="1" fill="#3e5793"/>
  <rect x="7" y="4" width="1" height="1" fill="#374d85"/>
  <rect x="8" y="4" width="1" height="1" fill="#536797"/>
  <rect x="9" y="4" width="1" height="1" fill="#f7ffff"/>
  <rect x="10" y="4" width="1" height="1" fill="#eefeff"/>
  <rect x="11" y="4" width="1" height="1" fill="#8294c0"/>
  <rect x="12" y="4" width="1" height="1" fill="#516698"/>
  <rect x="13" y="4" width="1" height="1" fill="#4a6496"/>
  <rect x="14" y="4" width="1" height="1" fill="#3c5b8a"/>
  <rect x="15" y="4" width="1" height="1" fill="#485c87ee"/>
  <rect x="19" y="4" width="1" height="1" fill="#002f3e"/>
  <rect x="20" y="4" width="1" height="1" fill="#002b3e"/>
  <rect x="33" y="4" width="1" height="1" fill="#588fe1f3"/>
  <rect x="34" y="4" width="1" height="1" fill="#5e90da69"/>
  <rect x="40" y="4" width="1" height="1" fill="#5b9dd40f"/>
  <rect x="41" y="4" width="1" height="1" fill="#57a0d5f0"/>
  <rect x="42" y="4" width="1" height="1" fill="#59a3d7"/>
  <rect x="43" y="4" width="1" height="1" fill="#58a3d7"/>
  <rect x="44" y="4" width="1" height="1" fill="#53a6d7"/>
  <rect x="45" y="4" width="1" height="1" fill="#50a8d7"/>
  <rect x="46" y="4" width="1" height="1" fill="#4faad8"/>
  <rect x="47" y="4" width="1" height="1" fill="#4cacd6"/>
  <rect x="48" y="4" width="1" height="1" fill="#4eb0d8f9"/>
  <rect x="3" y="5" width="1" height="1" fill="#3c589a"/>
  <rect x="4" y="5" width="1" height="1" fill="#405c9d"/>
  <rect x="5" y="5" width="1" height="1" fill="#4863a0"/>
  <rect x="6" y="5" width="1" height="1" fill="#465f99"/>
  <rect x="7" y="5" width="1" height="1" fill="#324879"/>
  <rect x="8" y="5" width="1" height="1" fill="#4e608a"/>
  <rect x="9" y="5" width="1" height="1" fill="#e4f7ff"/>
  <rect x="10" y="5" width="1" height="1" fill="#ecffff"/>
  <rect x="11" y="5" width="1" height="1" fill="#546994"/>
  <rect x="12" y="5" width="1" height="1" fill="#324a7b"/>
  <rect x="13" y="5" width="1" height="1" fill="#3a5788"/>
  <rect x="14" y="5" width="1" height="1" fill="#41608c"/>
  <rect x="15" y="5" width="1" height="1" fill="#475b84ee"/>
  <rect x="20" y="5" width="1" height="1" fill="#002b3a"/>
  <rect x="33" y="5" width="1" height="1" fill="#598ce6de"/>
  <rect x="37" y="5" width="1" height="1" fill="#5b92d62d"/>
  <rect x="38" y="5" width="1" height="1" fill="#5996da1e"/>
  <rect x="40" y="5" width="1" height="1" fill="#589bd90c"/>
  <rect x="41" y="5" width="1" height="1" fill="#599dd8"/>
  <rect x="42" y="5" width="1" height="1" fill="#5aa0d8"/>
  <rect x="43" y="5" width="1" height="1" fill="#58a1d6"/>
  <rect x="44" y="5" width="1" height="1" fill="#55a3d6"/>
  <rect x="45" y="5" width="1" height="1" fill="#52a5d6"/>
  <rect x="46" y="5" width="1" height="1" fill="#50a8d7df"/>
  <rect x="47" y="5" width="1" height="1" fill="#4ea8d75a"/>
  <rect x="48" y="5" width="1" height="1" fill="#4eaed9e2"/>
  <rect x="0" y="6" width="1" height="4" fill="#3d5a99ee"/>
  <rect x="1" y="6" width="3" height="3" fill="#3d5a99"/>
  <rect x="4" y="6" width="1" height="2" fill="#3a5696"/>
  <rect x="5" y="6" width="1" height="1" fill="#47629f"/>
  <rect x="6" y="6" width="1" height="1" fill="#364f86"/>
  <rect x="7" y="6" width="1" height="1" fill="#7389b9"/>
  <rect x="8" y="6" width="1" height="1" fill="#97abcd"/>
  <rect x="9" y="6" width="1" height="1" fill="#f2ffff"/>
  <rect x="10" y="6" width="1" height="1" fill="#f2fcff"/>
  <rect x="11" y="6" width="1" height="1" fill="#a5aec9"/>
  <rect x="12" y="6" width="1" height="1" fill="#8b97bc"/>
  <rect x="13" y="6" width="1" height="1" fill="#6a7da4"/>
  <rect x="14" y="6" width="1" height="1" fill="#395378"/>
  <rect x="15" y="6" width="1" height="1" fill="#425879ee"/>
  <rect x="33" y="6" width="1" height="1" fill="#6289dcde"/>
  <rect x="36" y="6" width="1" height="1" fill="#5d90da6e"/>
  <rect x="37" y="6" width="1" height="1" fill="#5a92d8d0"/>
  <rect x="38" y="6" width="1" height="1" fill="#5a96d62f"/>
  <rect x="41" y="6" width="1" height="1" fill="#599bd5a4"/>
  <rect x="42" y="6" width="1" height="1" fill="#5a9ed7"/>
  <rect x="43" y="6" width="1" height="1" fill="#599fd7"/>
  <rect x="44" y="6" width="1" height="1" fill="#55a1d7"/>
  <rect x="45" y="6" width="1" height="1" fill="#52a2d7a6"/>
  <rect x="46" y="6" width="1" height="1" fill="#50a5d828"/>
  <rect x="48" y="6" width="1" height="1" fill="#4eabd6dc"/>
  <rect x="5" y="7" width="1" height="1" fill="#3e5994"/>
  <rect x="6" y="7" width="1" height="1" fill="#365084"/>
  <rect x="7" y="7" width="1" height="1" fill="#bbd4ff"/>
  <rect x="8" y="7" width="1" height="1" fill="#edffff"/>
  <rect x="9" y="7" width="1" height="1" fill="#f3ffff"/>
  <rect x="10" y="7" width="1" height="1" fill="#f7feff"/>
  <rect x="11" y="7" width="1" height="1" fill="#f2f8ff"/>
  <rect x="12" y="7" width="1" height="1" fill="#fbffff"/>
  <rect x="13" y="7" width="1" height="1" fill="#95a4c5"/>
  <rect x="14" y="7" width="1" height="1" fill="#394e72"/>
  <rect x="15" y="7" width="1" height="1" fill="#435978ee"/>
  <rect x="33" y="7" width="1" height="1" fill="#6985d7de"/>
  <rect x="35" y="7" width="1" height="1" fill="#5e8bde32"/>
  <rect x="36" y="7" width="1" height="1" fill="#5c8fdbea"/>
  <rect x="37" y="7" width="1" height="1" fill="#5a91d7"/>
  <rect x="38" y="7" width="1" height="1" fill="#5c94d566"/>
  <rect x="41" y="7" width="1" height="1" fill="#5a99d310"/>
  <rect x="42" y="7" width="1" height="1" fill="#5b9cd682"/>
  <rect x="43" y="7" width="1" height="1" fill="#579ed6ae"/>
  <rect x="44" y="7" width="1" height="1" fill="#54a0d653"/>
  <rect x="45" y="7" width="1" height="1" fill="#51a1d60a"/>
  <rect x="48" y="7" width="1" height="1" fill="#4ea8d7de"/>
  <rect x="4" y="8" width="1" height="1" fill="#3b5797"/>
  <rect x="5" y="8" width="1" height="1" fill="#3a5590"/>
  <rect x="6" y="8" width="1" height="1" fill="#385287"/>
  <rect x="7" y="8" width="1" height="1" fill="#8ea7d1"/>
  <rect x="8" y="8" width="1" height="1" fill="#c1d5f3"/>
  <rect x="9" y="8" width="1" height="1" fill="#f2ffff"/>
  <rect x="10" y="8" width="1" height="1" fill="#f4ffff"/>
  <rect x="11" y="8" width="1" height="1" fill="#cbd3e5"/>
  <rect x="12" y="8" width="1" height="1" fill="#bac8e3"/>
  <rect x="13" y="8" width="1" height="1" fill="#7687aa"/>
  <rect x="14" y="8" width="1" height="1" fill="#405579"/>
  <rect x="15" y="8" width="1" height="1" fill="#445a7aee"/>
  <rect x="33" y="8" width="1" height="1" fill="#6e82d7de"/>
  <rect x="35" y="8" width="1" height="1" fill="#6189e050"/>
  <rect x="36" y="8" width="1" height="1" fill="#5f8bdc"/>
  <rect x="37" y="8" width="1" height="1" fill="#5e8dd8"/>
  <rect x="38" y="8" width="1" height="1" fill="#608fd8d8"/>
  <rect x="39" y="8" width="1" height="1" fill="#5e90d62b"/>
  <rect x="47" y="8" width="1" height="1" fill="#4ea2d80d"/>
  <rect x="48" y="8" width="1" height="1" fill="#53a5dbe1"/>
  <rect x="1" y="9" width="2" height="1" fill="#3d5a99"/>
  <rect x="3" y="9" width="1" height="1" fill="#3b5797"/>
  <rect x="4" y="9" width="1" height="1" fill="#3a5696"/>
  <rect x="5" y="9" width="1" height="1" fill="#39548f"/>
  <rect x="6" y="9" width="1" height="1" fill="#3d578b"/>
  <rect x="7" y="9" width="1" height="1" fill="#3a537d"/>
  <rect x="8" y="9" width="1" height="1" fill="#5b6f8f"/>
  <rect x="9" y="9" width="1" height="1" fill="#eeffff"/>
  <rect x="10" y="9" width="1" height="1" fill="#f0ffff"/>
  <rect x="11" y="9" width="1" height="1" fill="#606e87"/>
  <rect x="12" y="9" width="1" height="1" fill="#394a6e"/>
  <rect x="13" y="9" width="1" height="1" fill="#495e86"/>
  <rect x="14" y="9" width="1" height="1" fill="#4d6390"/>
  <rect x="15" y="9" width="1" height="1" fill="#43587fee"/>
  <rect x="33" y="9" width="1" height="1" fill="#7080d3de"/>
  <rect x="35" y="9" width="1" height="1" fill="#638acd31"/>
  <rect x="36" y="9" width="1" height="1" fill="#618ad1eb"/>
  <rect x="37" y="9" width="1" height="1" fill="#608bd3"/>
  <rect x="38" y="9" width="1" height="1" fill="#608dd7"/>
  <rect x="39" y="9" width="1" height="1" fill="#5f8ed5cc"/>
  <rect x="40" y="9" width="1" height="1" fill="#5b92d432"/>
  <rect x="46" y="9" width="1" height="1" fill="#4ea0d730"/>
  <rect x="47" y="9" width="1" height="1" fill="#4ea0d7b8"/>
  <rect x="48" y="9" width="1" height="1" fill="#55a2dcf9"/>
  <rect x="0" y="10" width="1" height="2" fill="#3d5a97ee"/>
  <rect x="1" y="10" width="2" height="2" fill="#3d5a97"/>
  <rect x="3" y="10" width="2" height="1" fill="#3c5996"/>
  <rect x="5" y="10" width="1" height="1" fill="#425d99"/>
  <rect x="6" y="10" width="1" height="1" fill="#375186"/>
  <rect x="7" y="10" width="1" height="1" fill="#425a89"/>
  <rect x="8" y="10" width="1" height="1" fill="#5e7399"/>
  <rect x="9" y="10" width="1" height="1" fill="#eafdff"/>
  <rect x="10" y="10" width="1" height="1" fill="#ecfdff"/>
  <rect x="11" y="10" width="1" height="1" fill="#5f7299"/>
  <rect x="12" y="10" width="1" height="1" fill="#405685"/>
  <rect x="13" y="10" width="1" height="1" fill="#425991"/>
  <rect x="14" y="10" width="1" height="1" fill="#445a99"/>
  <rect x="15" y="10" width="1" height="1" fill="#495c8eee"/>
  <rect x="28" y="10" width="1" height="1" fill="#0b2730"/>
  <rect x="33" y="10" width="1" height="1" fill="#6e81d1de"/>
  <rect x="36" y="10" width="1" height="1" fill="#648cbe77"/>
  <rect x="37" y="10" width="1" height="1" fill="#618bcdfb"/>
  <rect x="38" y="10" width="1" height="1" fill="#628ed1"/>
  <rect x="39" y="10" width="1" height="1" fill="#5f8fd3"/>
  <rect x="40" y="10" width="1" height="1" fill="#5d92d4ef"/>
  <rect x="41" y="10" width="1" height="1" fill="#5a93d495"/>
  <rect x="42" y="10" width="1" height="1" fill="#5997d658"/>
  <rect x="43" y="10" width="1" height="1" fill="#5798d650"/>
  <rect x="44" y="10" width="1" height="1" fill="#549ad654"/>
  <rect x="45" y="10" width="1" height="1" fill="#519bd68c"/>
  <rect x="46" y="10" width="1" height="1" fill="#4f9ed8f0"/>
  <rect x="47" y="10" width="1" height="1" fill="#4f9ed8"/>
  <rect x="48" y="10" width="1" height="1" fill="#549fdafa"/>
  <rect x="3" y="11" width="2" height="1" fill="#3f5b98"/>
  <rect x="5" y="11" width="1" height="1" fill="#3a5590"/>
  <rect x="6" y="11" width="1" height="1" fill="#415a8f"/>
  <rect x="7" y="11" width="1" height="1" fill="#415988"/>
  <rect x="8" y="11" width="1" height="1" fill="#5b7099"/>
  <rect x="9" y="11" width="1" height="1" fill="#ecffff"/>
  <rect x="10" y="11" width="1" height="1" fill="#ebffff"/>
  <rect x="11" y="11" width="1" height="1" fill="#5a719b"/>
  <rect x="12" y="11" width="1" height="1" fill="#375184"/>
  <rect x="13" y="11" width="1" height="1" fill="#3d5793"/>
  <rect x="14" y="11" width="1" height="1" fill="#445c9d"/>
  <rect x="15" y="11" width="1" height="1" fill="#405589ee"/>
  <rect x="28" y="11" width="1" height="1" fill="#032938"/>
  <rect x="29" y="11" width="1" height="1" fill="#04283c"/>
  <rect x="33" y="11" width="1" height="1" fill="#6d80cedd"/>
  <rect x="36" y="11" width="1" height="1" fill="#658abf13"/>
  <rect x="37" y="11" width="1" height="1" fill="#6289cdbd"/>
  <rect x="38" y="11" width="1" height="1" fill="#618cd2"/>
  <rect x="39" y="11" width="1" height="1" fill="#5f8dd2"/>
  <rect x="40" y="11" width="1" height="1" fill="#5d8fd5"/>
  <rect x="41" y="11" width="1" height="1" fill="#5a91d5"/>
  <rect x="42" y="11" width="1" height="1" fill="#5b94d7"/>
  <rect x="43" y="11" width="1" height="1" fill="#5796d5"/>
  <rect x="44" y="11" width="1" height="1" fill="#5498d5"/>
  <rect x="45" y="11" width="1" height="1" fill="#5199d5"/>
  <rect x="46" y="11" width="2" height="1" fill="#519bd6"/>
  <rect x="48" y="11" width="1" height="1" fill="#559dd9f7"/>
  <rect x="0" y="12" width="1" height="1" fill="#415e9bee"/>
  <rect x="1" y="12" width="2" height="1" fill="#5976b3"/>
  <rect x="3" y="12" width="2" height="1" fill="#5c78b5"/>
  <rect x="5" y="12" width="1" height="1" fill="#5c77b2"/>
  <rect x="6" y="12" width="1" height="1" fill="#5e77ac"/>
  <rect x="7" y="12" width="1" height="1" fill="#5f78a4"/>
  <rect x="8" y="12" width="1" height="1" fill="#7388ac"/>
  <rect x="9" y="12" width="1" height="1" fill="#ebffff"/>
  <rect x="10" y="12" width="1" height="1" fill="#eaffff"/>
  <rect x="11" y="12" width="1" height="1" fill="#6f87aa"/>
  <rect x="12" y="12" width="1" height="1" fill="#59749f"/>
  <rect x="13" y="12" width="1" height="1" fill="#5571a3"/>
  <rect x="14" y="12" width="1" height="1" fill="#4e6a9e"/>
  <rect x="15" y="12" width="1" height="1" fill="#3e5985ee"/>
  <rect x="18" y="12" width="1" height="1" fill="#0e2532"/>
  <rect x="20" y="12" width="1" height="1" fill="#0f2430"/>
  <rect x="22" y="12" width="1" height="1" fill="#0f2434"/>
  <rect x="24" y="12" width="1" height="1" fill="#0b253a"/>
  <rect x="26" y="12" width="1" height="1" fill="#03293c"/>
  <rect x="28" y="12" width="1" height="2" fill="#002b40"/>
  <rect x="29" y="12" width="1" height="1" fill="#002944"/>
  <rect x="30" y="12" width="1" height="1" fill="#092346"/>
  <rect x="33" y="12" width="1" height="1" fill="#6a7fd1ec"/>
  <rect x="34" y="12" width="1" height="1" fill="#6a84c248"/>
  <rect x="37" y="12" width="1" height="1" fill="#6287d73c"/>
  <rect x="38" y="12" width="1" height="1" fill="#628adae8"/>
  <rect x="39" y="12" width="1" height="1" fill="#618bda"/>
  <rect x="40" y="12" width="1" height="1" fill="#5f8cd8"/>
  <rect x="41" y="12" width="1" height="1" fill="#5c8dd8"/>
  <rect x="42" y="12" width="1" height="1" fill="#5d91d8"/>
  <rect x="43" y="12" width="1" height="1" fill="#5b92d6"/>
  <rect x="44" y="12" width="1" height="1" fill="#5796d7"/>
  <rect x="45" y="12" width="1" height="1" fill="#5497d7"/>
  <rect x="46" y="12" width="1" height="1" fill="#5499d8"/>
  <rect x="47" y="12" width="1" height="1" fill="#529ad8"/>
  <rect x="48" y="12" width="1" height="1" fill="#559bd8e4"/>
  <rect x="0" y="13" width="1" height="1" fill="#44619eee"/>
  <rect x="1" y="13" width="1" height="1" fill="#6a86c3"/>
  <rect x="2" y="13" width="1" height="1" fill="#6e8bc8"/>
  <rect x="3" y="13" width="1" height="1" fill="#6d8ac7"/>
  <rect x="4" y="13" width="1" height="1" fill="#6c89c6"/>
  <rect x="5" y="13" width="1" height="1" fill="#6e88c4"/>
  <rect x="6" y="13" width="1" height="1" fill="#6f89be"/>
  <rect x="7" y="13" width="1" height="1" fill="#7189b5"/>
  <rect x="8" y="13" width="1" height="1" fill="#8aa0c4"/>
  <rect x="9" y="13" width="1" height="1" fill="#f0ffff"/>
  <rect x="10" y="13" width="1" height="1" fill="#eeffff"/>
  <rect x="11" y="13" width="1" height="1" fill="#869ec3"/>
  <rect x="12" y="13" width="1" height="1" fill="#6e88b8"/>
  <rect x="13" y="13" width="1" height="1" fill="#6a86ba"/>
  <rect x="14" y="13" width="1" height="1" fill="#5974ab"/>
  <rect x="15" y="13" width="1" height="1" fill="#415b89ee"/>
  <rect x="29" y="13" width="1" height="1" fill="#002942"/>
  <rect x="33" y="13" width="1" height="1" fill="#6b7cd6"/>
  <rect x="34" y="13" width="1" height="1" fill="#6980d3cb"/>
  <rect x="35" y="13" width="1" height="1" fill="#6681d50a"/>
  <rect x="38" y="13" width="1" height="1" fill="#6387df91"/>
  <rect x="39" y="13" width="1" height="1" fill="#6188dd"/>
  <rect x="40" y="13" width="1" height="1" fill="#6089db"/>
  <rect x="41" y="13" width="1" height="1" fill="#5e8ad9"/>
  <rect x="42" y="13" width="1" height="1" fill="#5f8ed9"/>
  <rect x="43" y="13" width="1" height="1" fill="#5d8fd7"/>
  <rect x="44" y="13" width="1" height="1" fill="#5a93d6"/>
  <rect x="45" y="13" width="1" height="1" fill="#5695d6"/>
  <rect x="46" y="13" width="1" height="1" fill="#5697d7"/>
  <rect x="47" y="13" width="1" height="1" fill="#5497d7"/>
  <rect x="48" y="13" width="1" height="1" fill="#559bd8b3"/>
  <rect x="0" y="14" width="1" height="1" fill="#415e9bf2"/>
  <rect x="1" y="14" width="2" height="1" fill="#5c78b5"/>
  <rect x="3" y="14" width="1" height="1" fill="#5e7bb8"/>
  <rect x="4" y="14" width="1" height="1" fill="#5d7ab6"/>
  <rect x="5" y="14" width="1" height="1" fill="#5d78b3"/>
  <rect x="6" y="14" width="1" height="1" fill="#5f78af"/>
  <rect x="7" y="14" width="1" height="1" fill="#6078a9"/>
  <rect x="8" y="14" width="1" height="1" fill="#6b7faa"/>
  <rect x="9" y="14" width="1" height="1" fill="#b2c4f0"/>
  <rect x="10" y="14" width="1" height="1" fill="#b0c4f2"/>
  <rect x="11" y="14" width="1" height="1" fill="#677cb0"/>
  <rect x="12" y="14" width="1" height="1" fill="#576fab"/>
  <rect x="13" y="14" width="1" height="1" fill="#5e75b8"/>
  <rect x="14" y="14" width="1" height="1" fill="#5568b4"/>
  <rect x="15" y="14" width="1" height="1" fill="#485a93f2"/>
  <rect x="28" y="14" width="1" height="1" fill="#032938"/>
  <rect x="33" y="14" width="1" height="1" fill="#7078e0fc"/>
  <rect x="34" y="14" width="1" height="1" fill="#6a7ddbfe"/>
  <rect x="35" y="14" width="1" height="1" fill="#6680d982"/>
  <rect x="39" y="14" width="1" height="1" fill="#6187dfd7"/>
  <rect x="40" y="14" width="1" height="1" fill="#6188db"/>
  <rect x="41" y="14" width="1" height="1" fill="#6089d9"/>
  <rect x="42" y="14" width="1" height="1" fill="#628cd9"/>
  <rect x="43" y="14" width="1" height="1" fill="#5f8ed7"/>
  <rect x="44" y="14" width="1" height="1" fill="#5d91d6"/>
  <rect x="45" y="14" width="1" height="1" fill="#5a93d6"/>
  <rect x="46" y="14" width="1" height="1" fill="#5796d7"/>
  <rect x="47" y="14" width="1" height="1" fill="#5697d7fa"/>
  <rect x="48" y="14" width="1" height="1" fill="#579ad842"/>
  <rect x="0" y="15" width="1" height="1" fill="#3a5794de"/>
  <rect x="1" y="15" width="1" height="1" fill="#365390ee"/>
  <rect x="2" y="15" width="1" height="1" fill="#2b4884ee"/>
  <rect x="3" y="15" width="1" height="1" fill="#395692ee"/>
  <rect x="4" y="15" width="1" height="1" fill="#3d5a97ee"/>
  <rect x="5" y="15" width="1" height="1" fill="#3d5793ee"/>
  <rect x="6" y="15" width="1" height="1" fill="#3e578fee"/>
  <rect x="7" y="15" width="1" height="1" fill="#41598cee"/>
  <rect x="8" y="15" width="1" height="1" fill="#425585ee"/>
  <rect x="9" y="15" width="1" height="1" fill="#38497aee"/>
  <rect x="10" y="15" width="1" height="1" fill="#36497cee"/>
  <rect x="11" y="15" width="1" height="1" fill="#3e528bee"/>
  <rect x="12" y="15" width="1" height="1" fill="#3d5498ee"/>
  <rect x="13" y="15" width="1" height="1" fill="#3c529eee"/>
  <rect x="14" y="15" width="1" height="1" fill="#3d50a5ee"/>
  <rect x="15" y="15" width="1" height="1" fill="#445090de"/>
  <rect x="33" y="15" width="1" height="1" fill="#7176e6f3"/>
  <rect x="34" y="15" width="1" height="1" fill="#6a7dddfa"/>
  <rect x="35" y="15" width="1" height="1" fill="#6680dbf3"/>
  <rect x="36" y="15" width="1" height="1" fill="#6482e0de"/>
  <rect x="37" y="15" width="1" height="1" fill="#6282e2de"/>
  <rect x="38" y="15" width="1" height="1" fill="#6386e3da"/>
  <rect x="39" y="15" width="1" height="1" fill="#6187dff2"/>
  <rect x="40" y="15" width="1" height="1" fill="#6188ddf9"/>
  <rect x="41" y="15" width="1" height="1" fill="#6188dbf9"/>
  <rect x="42" y="15" width="1" height="1" fill="#628cdbf9"/>
  <rect x="43" y="15" width="1" height="1" fill="#608dd9f9"/>
  <rect x="44" y="15" width="1" height="1" fill="#5e90d8f6"/>
  <rect x="45" y="15" width="1" height="1" fill="#5b92d6de"/>
  <rect x="46" y="15" width="1" height="1" fill="#5995d7ab"/>
  <rect x="47" y="15" width="1" height="1" fill="#5796d736"/>
</svg>