<svg xmlns="http://www.w3.org/2000/svg" width="16" height="16" viewBox="0 0 16 16" shape-rendering="crispEdges">
  <rect x="2" y="2" width="1" height="1" fill="#5988aad9"/>
  <rect x="3" y="2" width="1" height="1" fill="#4f8bb4"/>
  <rect x="4" y="2" width="1" height="1" fill="#4e8cb4"/>
  <rect x="5" y="2" width="1" height="1" fill="#4c8cb6"/>
  <rect x="6" y="2" width="1" height="1" fill="#478eba"/>
  <rect x="7" y="2" width="1" height="1" fill="#478dbc"/>
  <rect x="8" y="2" width="1" height="1" fill="#4b8cba"/>
  <rect x="9" y="2" width="1" height="1" fill="#4c8bbab0"/>
  <rect x="10" y="2" width="1" height="1" fill="#498db810"/>
  <rect x="11" y="2" width="1" height="1" fill="#4b8db6b9"/>
  <rect x="12" y="2" width="1" height="1" fill="#518ab6dd"/>
  <rect x="13" y="2" width="1" height="1" fill="#5e86a81e"/>
  <rect x="2" y="3" width="1" height="1" fill="#4f8ab8"/>
  <rect x="3" y="3" width="1" height="1" fill="#468dc2"/>
  <rect x="4" y="3" width="1" height="1" fill="#4b8cb8"/>
  <rect x="5" y="3" width="1" height="1" fill="#478eb8"/>
  <rect x="6" y="3" width="1" height="1" fill="#3e91c4"/>
  <rect x="7" y="3" width="1" height="1" fill="#3992ca"/>
  <rect x="8" y="3" width="1" height="1" fill="#3c90cca6"/>
  <rect x="9" y="3" width="1" height="1" fill="#3b90ce0e"/>
  <rect x="10" y="3" width="1" height="1" fill="#3891d0b9"/>
  <rect x="11" y="3" width="1" height="1" fill="#3991d0c5"/>
  <rect x="12" y="3" width="1" height="1" fill="#408fcaf9"/>
  <rect x="13" y="3" width="1" height="1" fill="#518ab6de"/>
  <rect x="2" y="4" width="1" height="1" fill="#4e8aba"/>
  <rect x="3" y="4" width="1" height="1" fill="#4b8cbc"/>
  <rect x="9" y="4" width="1" height="1" fill="#3891d2b9"/>
  <rect x="10" y="4" width="1" height="1" fill="#3492d9b6"/>
  <rect x="11" y="4" width="1" height="1" fill="#3492d710"/>
  <rect x="12" y="4" width="1" height="1" fill="#3991d0c9"/>
  <rect x="13" y="4" width="1" height="1" fill="#4c8cb6b5"/>
  <rect x="2" y="5" width="1" height="1" fill="#4c8bbc"/>
  <rect x="3" y="5" width="1" height="1" fill="#478cc0"/>
  <rect x="8" y="5" width="1" height="1" fill="#3991ceb9"/>
  <rect x="9" y="5" width="1" height="1" fill="#3691d4b6"/>
  <rect x="10" y="5" width="1" height="1" fill="#3691d910"/>
  <rect x="11" y="5" width="1" height="1" fill="#3691d9b9"/>
  <rect x="12" y="5" width="1" height="1" fill="#3692d0b5"/>
  <rect x="13" y="5" width="1" height="1" fill="#498db810"/>
  <rect x="2" y="6" width="1" height="1" fill="#478dbc"/>
  <rect x="3" y="6" width="1" height="1" fill="#3e8fca"/>
  <rect x="7" y="6" width="1" height="1" fill="#3e8fceb9"/>
  <rect x="8" y="6" width="1" height="1" fill="#3991d0b6"/>
  <rect x="9" y="6" width="1" height="1" fill="#3891d210"/>
  <rect x="10" y="6" width="1" height="1" fill="#3c8ed4b9"/>
  <rect x="11" y="6" width="1" height="1" fill="#3c8fd2b5"/>
  <rect x="12" y="6" width="1" height="1" fill="#3892ce10"/>
  <rect x="13" y="6" width="1" height="1" fill="#468ebabc"/>
  <rect x="2" y="7" width="1" height="3" fill="#468eba"/>
  <rect x="3" y="7" width="1" height="1" fill="#3991ce"/>
  <rect x="6" y="7" width="1" height="1" fill="#3c8fd0b9"/>
  <rect x="7" y="7" width="1" height="1" fill="#3b8fd2da"/>
  <rect x="8" y="7" width="1" height="1" fill="#3990d210"/>
  <rect x="9" y="7" width="1" height="1" fill="#3c8fd2b9"/>
  <rect x="10" y="7" width="1" height="1" fill="#418dd0b5"/>
  <rect x="12" y="7" width="1" height="1" fill="#3992cac0"/>
  <rect x="13" y="7" width="1" height="1" fill="#468fb8"/>
  <rect x="3" y="8" width="1" height="1" fill="#3991cc"/>
  <rect x="5" y="8" width="1" height="1" fill="#3c8fd0b9"/>
  <rect x="6" y="8" width="1" height="1" fill="#3891d0ef"/>
  <rect x="7" y="8" width="1" height="1" fill="#3891d2"/>
  <rect x="8" y="8" width="1" height="1" fill="#3c8ed7de"/>
  <rect x="9" y="8" width="1" height="1" fill="#418cd4b5"/>
  <rect x="12" y="8" width="1" height="1" fill="#3b91c8"/>
  <rect x="13" y="8" width="1" height="1" fill="#498eb6"/>
  <rect x="3" y="9" width="1" height="1" fill="#3892ce"/>
  <rect x="5" y="9" width="1" height="1" fill="#3b8fd4d9"/>
  <rect x="6" y="9" width="1" height="1" fill="#3891d218"/>
  <rect x="7" y="9" width="1" height="1" fill="#3891d2ef"/>
  <rect x="8" y="9" width="1" height="1" fill="#408dd4b5"/>
  <rect x="12" y="9" width="1" height="1" fill="#418fc2"/>
  <rect x="13" y="9" width="1" height="1" fill="#4c8cb6"/>
  <rect x="2" y="10" width="1" height="1" fill="#468fb8"/>
  <rect x="3" y="10" width="1" height="1" fill="#3493d0"/>
  <rect x="5" y="10" width="1" height="1" fill="#398fd9ef"/>
  <rect x="6" y="10" width="1" height="1" fill="#3b8fd4d6"/>
  <rect x="7" y="10" width="1" height="1" fill="#3e8ed0b5"/>
  <rect x="12" y="10" width="1" height="1" fill="#4c8bba"/>
  <rect x="13" y="10" width="1" height="1" fill="#5189b8"/>
  <rect x="2" y="11" width="1" height="1" fill="#498eb6"/>
  <rect x="3" y="11" width="1" height="1" fill="#3891d0"/>
  <rect x="12" y="11" width="1" height="1" fill="#4e8aba"/>
  <rect x="13" y="11" width="1" height="1" fill="#5388ba"/>
  <rect x="2" y="12" width="1" height="1" fill="#5389b6"/>
  <rect x="3" y="12" width="1" height="1" fill="#408fca"/>
  <rect x="4" y="12" width="1" height="1" fill="#3891d0"/>
  <rect x="5" y="12" width="1" height="1" fill="#3493d0"/>
  <rect x="6" y="12" width="1" height="1" fill="#3892ce"/>
  <rect x="7" y="12" width="1" height="1" fill="#3992ca"/>
  <rect x="8" y="12" width="1" height="1" fill="#3b91c8"/>
  <rect x="9" y="12" width="1" height="1" fill="#418fc2"/>
  <rect x="10" y="12" width="1" height="1" fill="#4c8bba"/>
  <rect x="11" y="12" width="1" height="1" fill="#4e8aba"/>
  <rect x="12" y="12" width="1" height="1" fill="#498bc4"/>
  <rect x="13" y="12" width="1" height="1" fill="#5487ba"/>
  <rect x="2" y="13" width="1" height="1" fill="#6184a8d8"/>
  <rect x="3" y="13" width="1" height="1" fill="#5389b6"/>
  <rect x="4" y="13" width="1" height="1" fill="#498eb6"/>
  <rect x="5" y="13" width="1" height="1" fill="#468fb8"/>
  <rect x="6" y="13" width="1" height="1" fill="#468eba"/>
  <rect x="7" y="13" width="1" height="1" fill="#478eb8"/>
  <rect x="8" y="13" width="1" height="1" fill="#498eb6"/>
  <rect x="9" y="13" width="1" height="1" fill="#4c8cb6"/>
  <rect x="10" y="13" width="1" height="1" fill="#5189b8"/>
  <rect x="11" y="13" width="1" height="1" fill="#5388ba"/>
  <rect x="12" y="13" width="1" height="1" fill="#5487ba"/>
  <rect x="13" y="13" width="1" height="1" fill="#5c85aed4"/>
</svg>