<svg xmlns="http://www.w3.org/2000/svg" width="18" height="18" viewBox="0 0 18 18" shape-rendering="crispEdges">
  <rect x="8" y="1" width="1" height="1" fill="#718fd548"/>
  <rect x="9" y="1" width="1" height="1" fill="#7091d140"/>
  <rect x="8" y="2" width="1" height="1" fill="#6d8fe1d7"/>
  <rect x="9" y="2" width="1" height="1" fill="#6d90ddc1"/>
  <rect x="7" y="3" width="1" height="1" fill="#5f90e16d"/>
  <rect x="8" y="3" width="1" height="1" fill="#6890e7"/>
  <rect x="9" y="3" width="1" height="1" fill="#6992e4"/>
  <rect x="10" y="3" width="1" height="1" fill="#6193d840"/>
  <rect x="6" y="4" width="1" height="1" fill="#5a96da12"/>
  <rect x="7" y="4" width="1" height="1" fill="#6399e2ed"/>
  <rect x="8" y="4" width="1" height="1" fill="#6795e7"/>
  <rect x="9" y="4" width="1" height="1" fill="#6694e6"/>
  <rect x="10" y="4" width="1" height="1" fill="#6096e1c1"/>
  <rect x="6" y="5" width="1" height="1" fill="#5892d592"/>
  <rect x="7" y="5" width="1" height="1" fill="#5b94d9"/>
  <rect x="8" y="5" width="1" height="1" fill="#6094e0"/>
  <rect x="9" y="5" width="1" height="1" fill="#5f92e0"/>
  <rect x="10" y="5" width="1" height="1" fill="#5b96e2"/>
  <rect x="11" y="5" width="1" height="1" fill="#5993e140"/>
  <rect x="5" y="6" width="1" height="1" fill="#588ad228"/>
  <rect x="6" y="6" width="1" height="1" fill="#5688d0fb"/>
  <rect x="7" y="6" width="1" height="1" fill="#5388cfc6"/>
  <rect x="8" y="6" width="1" height="1" fill="#568acfc6"/>
  <rect x="9" y="6" width="1" height="1" fill="#5892d5"/>
  <rect x="10" y="6" width="1" height="1" fill="#5292d8"/>
  <rect x="11" y="6" width="1" height="1" fill="#5493ddc1"/>
  <rect x="5" y="7" width="1" height="1" fill="#5b85d0b7"/>
  <rect x="6" y="7" width="1" height="1" fill="#5580c8"/>
  <rect x="7" y="7" width="1" height="1" fill="#4e7bc04f"/>
  <rect x="8" y="7" width="1" height="1" fill="#4c7fbd4e"/>
  <rect x="9" y="7" width="1" height="1" fill="#528ac7"/>
  <rect x="10" y="7" width="1" height="1" fill="#5290d1"/>
  <rect x="11" y="7" width="1" height="1" fill="#4f8fd2"/>
  <rect x="12" y="7" width="1" height="1" fill="#5390d940"/>
  <rect x="4" y="8" width="1" height="1" fill="#547ecb48"/>
  <rect x="5" y="8" width="1" height="1" fill="#5b7fc9"/>
  <rect x="6" y="8" width="1" height="1" fill="#5f7fc4c6"/>
  <rect x="9" y="8" width="1" height="1" fill="#5387c0c6"/>
  <rect x="10" y="8" width="1" height="1" fill="#5189c3"/>
  <rect x="11" y="8" width="1" height="1" fill="#4d8ac6"/>
  <rect x="12" y="8" width="1" height="1" fill="#4d8ccbc1"/>
  <rect x="4" y="9" width="1" height="1" fill="#5282c6d7"/>
  <rect x="5" y="9" width="1" height="1" fill="#527bbf"/>
  <rect x="6" y="9" width="1" height="1" fill="#3e65a54f"/>
  <rect x="9" y="9" width="1" height="1" fill="#3c6ca74e"/>
  <rect x="10" y="9" width="1" height="1" fill="#5185c1"/>
  <rect x="11" y="9" width="1" height="1" fill="#4f88c4"/>
  <rect x="12" y="9" width="1" height="1" fill="#4683c1"/>
  <rect x="13" y="9" width="1" height="1" fill="#4b7fb840"/>
  <rect x="3" y="10" width="1" height="1" fill="#4a89c16d"/>
  <rect x="4" y="10" width="1" height="1" fill="#4280b4"/>
  <rect x="5" y="10" width="1" height="1" fill="#3f7db4"/>
  <rect x="6" y="10" width="1" height="1" fill="#4c89c6"/>
  <rect x="7" y="10" width="1" height="1" fill="#4a81c3"/>
  <rect x="8" y="10" width="1" height="1" fill="#4a79b9"/>
  <rect x="9" y="10" width="1" height="1" fill="#5583c5"/>
  <rect x="10" y="10" width="1" height="1" fill="#4a7ec5"/>
  <rect x="11" y="10" width="1" height="1" fill="#5288cf"/>
  <rect x="12" y="10" width="1" height="1" fill="#477bc0"/>
  <rect x="13" y="10" width="1" height="1" fill="#4c84c3c1"/>
  <rect x="2" y="11" width="1" height="1" fill="#4482c113"/>
  <rect x="3" y="11" width="1" height="1" fill="#4583b9ed"/>
  <rect x="4" y="11" width="1" height="1" fill="#4885b2"/>
  <rect x="5" y="11" width="1" height="1" fill="#4c87b3"/>
  <rect x="6" y="11" width="1" height="1" fill="#4883b1"/>
  <rect x="7" y="11" width="1" height="1" fill="#4074a2"/>
  <rect x="8" y="11" width="1" height="1" fill="#5076a4"/>
  <rect x="9" y="11" width="1" height="1" fill="#4a6da1"/>
  <rect x="10" y="11" width="1" height="1" fill="#4271b1"/>
  <rect x="11" y="11" width="1" height="1" fill="#4e80c6"/>
  <rect x="12" y="11" width="1" height="1" fill="#4d79c3"/>
  <rect x="13" y="11" width="1" height="1" fill="#4379c2"/>
  <rect x="14" y="11" width="1" height="1" fill="#3782c440"/>
  <rect x="2" y="12" width="1" height="1" fill="#336eb192"/>
  <rect x="3" y="12" width="1" height="1" fill="#477bb7"/>
  <rect x="4" y="12" width="1" height="1" fill="#4975a6b4"/>
  <rect x="5" y="12" width="1" height="1" fill="#000b2e1a"/>
  <rect x="6" y="12" width="1" height="1" fill="#000d1f1a"/>
  <rect x="7" y="12" width="1" height="1" fill="#0007101a"/>
  <rect x="8" y="12" width="1" height="1" fill="#0000091a"/>
  <rect x="9" y="12" width="1" height="1" fill="#000a1d1a"/>
  <rect x="10" y="12" width="1" height="1" fill="#00092f1a"/>
  <rect x="11" y="12" width="1" height="1" fill="#406da7b4"/>
  <rect x="12" y="12" width="1" height="1" fill="#4c76c5"/>
  <rect x="13" y="12" width="1" height="1" fill="#4473c7"/>
  <rect x="14" y="12" width="1" height="1" fill="#3575bdc1"/>
  <rect x="1" y="13" width="1" height="1" fill="#3375b928"/>
  <rect x="2" y="13" width="1" height="1" fill="#3c75bbfb"/>
  <rect x="3" y="13" width="1" height="1" fill="#3b6baded"/>
  <rect x="4" y="13" width="1" height="1" fill="#18417a26"/>
  <rect x="11" y="13" width="1" height="1" fill="#19406926"/>
  <rect x="12" y="13" width="1" height="1" fill="#3d65b0eb"/>
  <rect x="13" y="13" width="1" height="1" fill="#3a69c2"/>
  <rect x="14" y="13" width="1" height="1" fill="#3874c2"/>
  <rect x="15" y="13" width="1" height="1" fill="#4278b140"/>
  <rect x="1" y="14" width="1" height="1" fill="#3676beb7"/>
  <rect x="2" y="14" width="1" height="1" fill="#3772b9"/>
  <rect x="3" y="14" width="1" height="1" fill="#3067ad64"/>
  <rect x="12" y="14" width="1" height="1" fill="#3862a464"/>
  <rect x="13" y="14" width="1" height="1" fill="#3167bb"/>
  <rect x="14" y="14" width="1" height="1" fill="#2d73bf"/>
  <rect x="15" y="14" width="1" height="1" fill="#3277bbc1"/>
  <rect x="0" y="15" width="1" height="1" fill="#4c79b3"/>
  <rect x="1" y="15" width="1" height="1" fill="#3e6ba5"/>
  <rect x="2" y="15" width="1" height="1" fill="#38669b"/>
  <rect x="3" y="15" width="1" height="1" fill="#3e6a9f"/>
  <rect x="4" y="15" width="1" height="1" fill="#3c659e"/>
  <rect x="12" y="15" width="1" height="1" fill="#486c9b"/>
  <rect x="13" y="15" width="1" height="1" fill="#3e68a8"/>
  <rect x="14" y="15" width="1" height="1" fill="#3268a3"/>
  <rect x="15" y="15" width="1" height="1" fill="#2e659d"/>
  <rect x="16" y="15" width="1" height="1" fill="#3f6da4"/>
  <rect x="0" y="16" width="1" height="1" fill="#00011a1a"/>
  <rect x="1" y="16" width="1" height="1" fill="#0001181a"/>
  <rect x="2" y="16" width="2" height="1" fill="#0003161a"/>
  <rect x="4" y="16" width="1" height="1" fill="#0002161a"/>
  <rect x="12" y="16" width="1" height="1" fill="#00021a1a"/>
  <rect x="13" y="16" width="1" height="1" fill="#0001181a"/>
  <rect x="14" y="16" width="2" height="1" fill="#0002181a"/>
  <rect x="16" y="16" width="1" height="1" fill="#0002161a"/>
</svg>