<svg xmlns="http://www.w3.org/2000/svg" width="30" height="30" viewBox="0 0 30 30" shape-rendering="crispEdges">
  <rect x="7" y="0" width="1" height="1" fill="#23a6e57a"/>
  <rect x="8" y="0" width="1" height="1" fill="#22a3e0"/>
  <rect x="9" y="0" width="1" height="1" fill="#25a0d8"/>
  <rect x="10" y="0" width="1" height="1" fill="#2fa0d0"/>
  <rect x="11" y="0" width="1" height="1" fill="#2e9ac8"/>
  <rect x="12" y="0" width="1" height="1" fill="#329fcc"/>
  <rect x="13" y="0" width="1" height="1" fill="#2d9dce"/>
  <rect x="14" y="0" width="1" height="1" fill="#25a0d8"/>
  <rect x="15" y="0" width="1" height="1" fill="#2aace6"/>
  <rect x="16" y="0" width="1" height="1" fill="#2db2e9"/>
  <rect x="17" y="0" width="1" height="1" fill="#23a7dd"/>
  <rect x="18" y="0" width="1" height="1" fill="#23a6d9"/>
  <rect x="19" y="0" width="1" height="1" fill="#2aade0"/>
  <rect x="20" y="0" width="1" height="1" fill="#26b0de"/>
  <rect x="21" y="0" width="1" height="1" fill="#1fb3de"/>
  <rect x="22" y="0" width="1" height="1" fill="#16b8dc"/>
  <rect x="23" y="0" width="1" height="1" fill="#14b8e0"/>
  <rect x="24" y="0" width="1" height="1" fill="#19b4eb"/>
  <rect x="25" y="0" width="1" height="1" fill="#17b5eb"/>
  <rect x="26" y="0" width="1" height="1" fill="#12b8e4"/>
  <rect x="27" y="0" width="1" height="1" fill="#0ebbe2"/>
  <rect x="28" y="0" width="1" height="1" fill="#0abce9"/>
  <rect x="29" y="0" width="1" height="1" fill="#09bceb84"/>
  <rect x="6" y="1" width="1" height="1" fill="#24a7e67a"/>
  <rect x="7" y="1" width="1" height="1" fill="#25a5e3"/>
  <rect x="8" y="1" width="1" height="1" fill="#2da7e4"/>
  <rect x="9" y="1" width="1" height="1" fill="#3aace3"/>
  <rect x="10" y="1" width="1" height="1" fill="#3ea3d3"/>
  <rect x="11" y="1" width="1" height="1" fill="#44a3ce"/>
  <rect x="12" y="1" width="1" height="1" fill="#5ab5dd"/>
  <rect x="13" y="1" width="1" height="1" fill="#9efdff"/>
  <rect x="14" y="1" width="1" height="1" fill="#62caf8"/>
  <rect x="15" y="1" width="1" height="1" fill="#32a3d6"/>
  <rect x="16" y="1" width="1" height="1" fill="#2ca5dc"/>
  <rect x="17" y="1" width="1" height="1" fill="#2eabe2"/>
  <rect x="18" y="1" width="1" height="1" fill="#2caae1"/>
  <rect x="19" y="1" width="1" height="1" fill="#27a7de"/>
  <rect x="20" y="1" width="1" height="1" fill="#26abe0"/>
  <rect x="21" y="1" width="1" height="1" fill="#24b0e0"/>
  <rect x="22" y="1" width="1" height="1" fill="#1eb3e0"/>
  <rect x="23" y="1" width="1" height="1" fill="#1ab5e2"/>
  <rect x="24" y="1" width="1" height="1" fill="#1cb3e9"/>
  <rect x="25" y="1" width="1" height="1" fill="#19b5e6"/>
  <rect x="26" y="1" width="1" height="1" fill="#14b9de"/>
  <rect x="27" y="1" width="1" height="1" fill="#16b9da"/>
  <rect x="28" y="1" width="1" height="1" fill="#21b4d684"/>
  <rect x="5" y="2" width="1" height="1" fill="#24a7e67a"/>
  <rect x="6" y="2" width="1" height="1" fill="#24a7e6"/>
  <rect x="7" y="2" width="1" height="1" fill="#29a5e4"/>
  <rect x="8" y="2" width="1" height="1" fill="#35a2df"/>
  <rect x="9" y="2" width="1" height="1" fill="#3997ce"/>
  <rect x="10" y="2" width="1" height="1" fill="#529fcb"/>
  <rect x="11" y="2" width="1" height="1" fill="#a2e5ff"/>
  <rect x="12" y="2" width="1" height="1" fill="#baf5ff"/>
  <rect x="13" y="2" width="1" height="1" fill="#9dd6f3"/>
  <rect x="14" y="2" width="1" height="1" fill="#bcf9ff"/>
  <rect x="15" y="2" width="1" height="1" fill="#97e0ff"/>
  <rect x="16" y="2" width="1" height="1" fill="#4aa7de"/>
  <rect x="17" y="2" width="1" height="1" fill="#39a3e1"/>
  <rect x="18" y="2" width="1" height="1" fill="#34a7e4"/>
  <rect x="19" y="2" width="1" height="1" fill="#2ba3e1"/>
  <rect x="20" y="2" width="1" height="1" fill="#2eaae6"/>
  <rect x="21" y="2" width="2" height="1" fill="#2caae9"/>
  <rect x="23" y="2" width="1" height="1" fill="#29ace6"/>
  <rect x="24" y="2" width="1" height="1" fill="#22b1e2"/>
  <rect x="25" y="2" width="1" height="1" fill="#1cb5dc"/>
  <rect x="26" y="2" width="1" height="1" fill="#17b9d4"/>
  <rect x="27" y="2" width="1" height="1" fill="#27b4c684"/>
  <rect x="4" y="3" width="1" height="1" fill="#24a7e67a"/>
  <rect x="5" y="3" width="2" height="1" fill="#24a7e6"/>
  <rect x="7" y="3" width="1" height="1" fill="#2ca4e2"/>
  <rect x="8" y="3" width="1" height="1" fill="#40a4e0"/>
  <rect x="9" y="3" width="1" height="1" fill="#52a2d7"/>
  <rect x="10" y="3" width="1" height="1" fill="#64a4cb"/>
  <rect x="11" y="3" width="1" height="1" fill="#bbf0ff"/>
  <rect x="12" y="3" width="1" height="1" fill="#cbf6ff"/>
  <rect x="13" y="3" width="1" height="1" fill="#bfe6f6"/>
  <rect x="14" y="3" width="1" height="1" fill="#bee6f8"/>
  <rect x="15" y="3" width="1" height="1" fill="#bbefff"/>
  <rect x="16" y="3" width="1" height="1" fill="#7ecafe"/>
  <rect x="17" y="3" width="1" height="1" fill="#4aa6e4"/>
  <rect x="18" y="3" width="1" height="1" fill="#36a0de"/>
  <rect x="19" y="3" width="1" height="1" fill="#37ade9"/>
  <rect x="20" y="3" width="1" height="1" fill="#2eaae9"/>
  <rect x="21" y="3" width="1" height="1" fill="#2ba9e9"/>
  <rect x="22" y="3" width="1" height="1" fill="#2ea7eb"/>
  <rect x="23" y="3" width="1" height="1" fill="#2caaeb"/>
  <rect x="24" y="3" width="1" height="1" fill="#23aee3"/>
  <rect x="25" y="3" width="1" height="1" fill="#24b2d8"/>
  <rect x="26" y="3" width="1" height="1" fill="#31afc683"/>
  <rect x="3" y="4" width="1" height="1" fill="#23a6e57a"/>
  <rect x="4" y="4" width="2" height="1" fill="#23a6e5"/>
  <rect x="6" y="4" width="1" height="1" fill="#24a7e6"/>
  <rect x="7" y="4" width="1" height="1" fill="#30a8e3"/>
  <rect x="8" y="4" width="1" height="1" fill="#48aadd"/>
  <rect x="9" y="4" width="1" height="1" fill="#93e2ff"/>
  <rect x="10" y="4" width="1" height="1" fill="#b8f7ff"/>
  <rect x="11" y="4" width="1" height="1" fill="#a0d2e3"/>
  <rect x="12" y="4" width="1" height="1" fill="#caf1fb"/>
  <rect x="13" y="4" width="1" height="1" fill="#e5ffff"/>
  <rect x="14" y="4" width="1" height="1" fill="#abd0d8"/>
  <rect x="15" y="4" width="1" height="1" fill="#ccfdff"/>
  <rect x="16" y="4" width="1" height="1" fill="#90d4ff"/>
  <rect x="17" y="4" width="1" height="1" fill="#4ba0d8"/>
  <rect x="18" y="4" width="1" height="1" fill="#40a7dd"/>
  <rect x="19" y="4" width="1" height="1" fill="#3aaee6"/>
  <rect x="20" y="4" width="1" height="1" fill="#26a7e0"/>
  <rect x="21" y="4" width="1" height="1" fill="#24ace9"/>
  <rect x="22" y="4" width="1" height="1" fill="#24abed"/>
  <rect x="23" y="4" width="1" height="1" fill="#21aaeb"/>
  <rect x="24" y="4" width="1" height="1" fill="#1cb0e9"/>
  <rect x="25" y="4" width="1" height="1" fill="#31aad583"/>
  <rect x="2" y="5" width="1" height="1" fill="#23a6e57a"/>
  <rect x="3" y="5" width="3" height="1" fill="#23a6e5"/>
  <rect x="6" y="5" width="1" height="1" fill="#25a8e7"/>
  <rect x="7" y="5" width="1" height="1" fill="#35a9e2"/>
  <rect x="8" y="5" width="1" height="1" fill="#4ca4d2"/>
  <rect x="9" y="5" width="1" height="1" fill="#a1e4ff"/>
  <rect x="10" y="5" width="1" height="1" fill="#c1f6ff"/>
  <rect x="11" y="5" width="1" height="1" fill="#c7f0fe"/>
  <rect x="12" y="5" width="1" height="1" fill="#bcdfe7"/>
  <rect x="13" y="5" width="1" height="1" fill="#b8d9e1"/>
  <rect x="14" y="5" width="1" height="1" fill="#d2f7ff"/>
  <rect x="15" y="5" width="1" height="1" fill="#b7e1f8"/>
  <rect x="16" y="5" width="1" height="1" fill="#cbffff"/>
  <rect x="17" y="5" width="1" height="1" fill="#84c7fa"/>
  <rect x="18" y="5" width="1" height="1" fill="#4fa4d5"/>
  <rect x="19" y="5" width="1" height="1" fill="#3ba2d6"/>
  <rect x="20" y="5" width="1" height="1" fill="#30ace0"/>
  <rect x="21" y="5" width="1" height="1" fill="#23ace2"/>
  <rect x="22" y="5" width="1" height="1" fill="#1daee8"/>
  <rect x="23" y="5" width="1" height="1" fill="#22b0e6"/>
  <rect x="24" y="5" width="1" height="1" fill="#2eacda83"/>
  <rect x="1" y="6" width="1" height="1" fill="#22a4e67b"/>
  <rect x="2" y="6" width="4" height="1" fill="#23a6e5"/>
  <rect x="6" y="6" width="1" height="1" fill="#28abe9"/>
  <rect x="7" y="6" width="1" height="1" fill="#3cabe3"/>
  <rect x="8" y="6" width="1" height="1" fill="#a6ecff"/>
  <rect x="9" y="6" width="1" height="1" fill="#addafb"/>
  <rect x="10" y="6" width="1" height="1" fill="#c4e4fb"/>
  <rect x="11" y="6" width="1" height="1" fill="#e6ffff"/>
  <rect x="12" y="6" width="1" height="1" fill="#b3cbdc"/>
  <rect x="13" y="6" width="1" height="1" fill="#cfeafc"/>
  <rect x="14" y="6" width="1" height="1" fill="#b5d8f1"/>
  <rect x="15" y="6" width="1" height="1" fill="#c1e4ff"/>
  <rect x="16" y="6" width="1" height="1" fill="#bfe2ff"/>
  <rect x="17" y="6" width="1" height="1" fill="#c7f0ff"/>
  <rect x="18" y="6" width="1" height="1" fill="#82bae7"/>
  <rect x="19" y="6" width="1" height="1" fill="#82cefd"/>
  <rect x="20" y="6" width="1" height="1" fill="#47afde"/>
  <rect x="21" y="6" width="1" height="1" fill="#2aaada"/>
  <rect x="22" y="6" width="1" height="1" fill="#19b3e1"/>
  <rect x="23" y="6" width="1" height="1" fill="#32b9de83"/>
  <rect x="0" y="7" width="1" height="1" fill="#21a2e87b"/>
  <rect x="1" y="7" width="1" height="1" fill="#21a3e6"/>
  <rect x="2" y="7" width="1" height="1" fill="#22a5e4"/>
  <rect x="3" y="7" width="1" height="1" fill="#22a5e2"/>
  <rect x="4" y="7" width="1" height="1" fill="#27a6e4"/>
  <rect x="5" y="7" width="1" height="1" fill="#2aa7e3"/>
  <rect x="6" y="7" width="1" height="1" fill="#30abe6"/>
  <rect x="7" y="7" width="1" height="1" fill="#58c1f6"/>
  <rect x="8" y="7" width="1" height="1" fill="#86cff8"/>
  <rect x="9" y="7" width="1" height="1" fill="#c5f4ff"/>
  <rect x="10" y="7" width="1" height="1" fill="#b5d1ea"/>
  <rect x="11" y="7" width="1" height="1" fill="#e2f5ff"/>
  <rect x="12" y="7" width="1" height="1" fill="#d7eaff"/>
  <rect x="13" y="7" width="1" height="1" fill="#c4dbf6"/>
  <rect x="14" y="7" width="1" height="1" fill="#beddfc"/>
  <rect x="15" y="7" width="1" height="1" fill="#bde1ff"/>
  <rect x="16" y="7" width="1" height="1" fill="#b3d4f8"/>
  <rect x="17" y="7" width="1" height="1" fill="#d2fbff"/>
  <rect x="18" y="7" width="1" height="1" fill="#bbf5ff"/>
  <rect x="19" y="7" width="1" height="1" fill="#9aebff"/>
  <rect x="20" y="7" width="1" height="1" fill="#48b5e4"/>
  <rect x="21" y="7" width="1" height="1" fill="#30aad5"/>
  <rect x="22" y="7" width="1" height="1" fill="#2faed083"/>
  <rect x="0" y="8" width="1" height="1" fill="#1d9ee7"/>
  <rect x="1" y="8" width="1" height="1" fill="#23a5e9"/>
  <rect x="2" y="8" width="1" height="1" fill="#2eb4ed"/>
  <rect x="3" y="8" width="1" height="1" fill="#27a9df"/>
  <rect x="4" y="8" width="1" height="1" fill="#2aa0dc"/>
  <rect x="5" y="8" width="1" height="1" fill="#329fd9"/>
  <rect x="6" y="8" width="1" height="1" fill="#3da9db"/>
  <rect x="7" y="8" width="1" height="1" fill="#379fcb"/>
  <rect x="8" y="8" width="1" height="1" fill="#3f9fca"/>
  <rect x="9" y="8" width="1" height="1" fill="#9de7ff"/>
  <rect x="10" y="8" width="1" height="1" fill="#aed2ef"/>
  <rect x="11" y="8" width="1" height="1" fill="#e6f8ff"/>
  <rect x="12" y="8" width="1" height="1" fill="#c0cfee"/>
  <rect x="13" y="8" width="1" height="1" fill="#cce0ff"/>
  <rect x="14" y="8" width="1" height="1" fill="#cee9ff"/>
  <rect x="15" y="8" width="1" height="1" fill="#b2d9f5"/>
  <rect x="16" y="8" width="1" height="1" fill="#beefff"/>
  <rect x="17" y="8" width="1" height="1" fill="#b1f5ff"/>
  <rect x="18" y="8" width="1" height="1" fill="#5db8f2"/>
  <rect x="19" y="8" width="1" height="1" fill="#33a4e2"/>
  <rect x="20" y="8" width="1" height="1" fill="#2cb0e8"/>
  <rect x="21" y="8" width="1" height="1" fill="#38acd583"/>
  <rect x="0" y="9" width="1" height="1" fill="#1b9ae3"/>
  <rect x="1" y="9" width="1" height="1" fill="#2dabec"/>
  <rect x="2" y="9" width="1" height="1" fill="#2ca7db"/>
  <rect x="3" y="9" width="1" height="1" fill="#34a3d0"/>
  <rect x="4" y="9" width="1" height="1" fill="#46a0cf"/>
  <rect x="5" y="9" width="1" height="1" fill="#88daff"/>
  <rect x="6" y="9" width="1" height="1" fill="#489fc4"/>
  <rect x="7" y="9" width="1" height="1" fill="#59b5d8"/>
  <rect x="8" y="9" width="1" height="1" fill="#3c9cc2"/>
  <rect x="9" y="9" width="1" height="1" fill="#4fa1c7"/>
  <rect x="10" y="9" width="1" height="1" fill="#a7dbfc"/>
  <rect x="11" y="9" width="1" height="1" fill="#d8faff"/>
  <rect x="12" y="9" width="1" height="1" fill="#c3ddff"/>
  <rect x="13" y="9" width="1" height="1" fill="#c6e0ff"/>
  <rect x="14" y="9" width="1" height="1" fill="#b4d1ee"/>
  <rect x="15" y="9" width="1" height="1" fill="#bfeaff"/>
  <rect x="16" y="9" width="1" height="1" fill="#4d91b8"/>
  <rect x="17" y="9" width="1" height="1" fill="#3f9ece"/>
  <rect x="18" y="9" width="1" height="1" fill="#2ea7e0"/>
  <rect x="19" y="9" width="1" height="1" fill="#28ace3"/>
  <rect x="20" y="9" width="1" height="1" fill="#30adda83"/>
  <rect x="0" y="10" width="1" height="1" fill="#219ee6"/>
  <rect x="1" y="10" width="1" height="1" fill="#2ea1df"/>
  <rect x="2" y="10" width="1" height="1" fill="#45a6d3"/>
  <rect x="3" y="10" width="1" height="1" fill="#529cba"/>
  <rect x="4" y="10" width="1" height="1" fill="#b1e0f4"/>
  <rect x="5" y="10" width="1" height="1" fill="#ddffff"/>
  <rect x="6" y="10" width="1" height="1" fill="#97d2e3"/>
  <rect x="7" y="10" width="1" height="1" fill="#c7ffff"/>
  <rect x="8" y="10" width="1" height="1" fill="#98dff9"/>
  <rect x="9" y="10" width="1" height="1" fill="#529abd"/>
  <rect x="10" y="10" width="1" height="1" fill="#86cdf7"/>
  <rect x="11" y="10" width="1" height="1" fill="#67a7d1"/>
  <rect x="12" y="10" width="1" height="1" fill="#bff1ff"/>
  <rect x="13" y="10" width="1" height="1" fill="#bee9ff"/>
  <rect x="14" y="10" width="1" height="1" fill="#cef2ff"/>
  <rect x="15" y="10" width="1" height="1" fill="#b1e7ff"/>
  <rect x="16" y="10" width="1" height="1" fill="#49a3d9"/>
  <rect x="17" y="10" width="1" height="1" fill="#259ed7"/>
  <rect x="18" y="10" width="1" height="1" fill="#1cafdb"/>
  <rect x="19" y="10" width="1" height="1" fill="#2ab0ce83"/>
  <rect x="0" y="11" width="1" height="1" fill="#229be0"/>
  <rect x="1" y="11" width="1" height="1" fill="#339ed7"/>
  <rect x="2" y="11" width="1" height="1" fill="#a1edff"/>
  <rect x="3" y="11" width="1" height="1" fill="#b9e9ff"/>
  <rect x="4" y="11" width="1" height="1" fill="#afcad8"/>
  <rect x="5" y="11" width="1" height="1" fill="#e1fdff"/>
  <rect x="6" y="11" width="1" height="1" fill="#c6faff"/>
  <rect x="7" y="11" width="1" height="1" fill="#75b4c7"/>
  <rect x="8" y="11" width="1" height="1" fill="#abeaff"/>
  <rect x="9" y="11" width="1" height="1" fill="#8cd0ef"/>
  <rect x="10" y="11" width="1" height="1" fill="#4190c0"/>
  <rect x="11" y="11" width="1" height="1" fill="#5eacdf"/>
  <rect x="12" y="11" width="1" height="1" fill="#71aed7"/>
  <rect x="13" y="11" width="1" height="1" fill="#c4fcff"/>
  <rect x="14" y="11" width="1" height="1" fill="#bdf5ff"/>
  <rect x="15" y="11" width="1" height="1" fill="#80cbf4"/>
  <rect x="16" y="11" width="1" height="1" fill="#31a1db"/>
  <rect x="17" y="11" width="1" height="1" fill="#23a7df"/>
  <rect x="18" y="11" width="1" height="1" fill="#26acca83"/>
  <rect x="0" y="12" width="1" height="1" fill="#2aa1e0"/>
  <rect x="1" y="12" width="1" height="1" fill="#399bd0"/>
  <rect x="2" y="12" width="1" height="1" fill="#c9ffff"/>
  <rect x="3" y="12" width="1" height="1" fill="#accded"/>
  <rect x="4" y="12" width="1" height="1" fill="#81a3be"/>
  <rect x="5" y="12" width="1" height="1" fill="#d5ffff"/>
  <rect x="6" y="12" width="1" height="1" fill="#6aadd0"/>
  <rect x="7" y="12" width="1" height="1" fill="#52a1c1"/>
  <rect x="8" y="12" width="1" height="1" fill="#94def5"/>
  <rect x="9" y="12" width="1" height="1" fill="#c1ffff"/>
  <rect x="10" y="12" width="1" height="1" fill="#82cdff"/>
  <rect x="11" y="12" width="1" height="1" fill="#b6fcff"/>
  <rect x="12" y="12" width="1" height="1" fill="#6dacdb"/>
  <rect x="13" y="12" width="1" height="1" fill="#7fc2e9"/>
  <rect x="14" y="12" width="1" height="1" fill="#9cf4ff"/>
  <rect x="15" y="12" width="1" height="1" fill="#37a5cb"/>
  <rect x="16" y="12" width="1" height="1" fill="#26abde"/>
  <rect x="17" y="12" width="1" height="1" fill="#2eabd783"/>
  <rect x="0" y="13" width="1" height="1" fill="#2ba5e2"/>
  <rect x="1" y="13" width="1" height="1" fill="#429fd6"/>
  <rect x="2" y="13" width="1" height="1" fill="#caf1ff"/>
  <rect x="3" y="13" width="1" height="1" fill="#9fb4d8"/>
  <rect x="4" y="13" width="1" height="1" fill="#d2fbff"/>
  <rect x="5" y="13" width="1" height="1" fill="#b6ecff"/>
  <rect x="6" y="13" width="1" height="1" fill="#9fe2ff"/>
  <rect x="7" y="13" width="1" height="1" fill="#8cd4f5"/>
  <rect x="8" y="13" width="1" height="1" fill="#a3eeff"/>
  <rect x="9" y="13" width="1" height="1" fill="#4994b4"/>
  <rect x="10" y="13" width="1" height="1" fill="#4a90bf"/>
  <rect x="11" y="13" width="1" height="1" fill="#8fd4ff"/>
  <rect x="12" y="13" width="1" height="1" fill="#9be1ff"/>
  <rect x="13" y="13" width="1" height="1" fill="#7ed2fe"/>
  <rect x="14" y="13" width="1" height="1" fill="#4bb9df"/>
  <rect x="15" y="13" width="1" height="1" fill="#31abcf"/>
  <rect x="16" y="13" width="1" height="1" fill="#33a8ce83"/>
  <rect x="0" y="14" width="1" height="1" fill="#26a9ea"/>
  <rect x="1" y="14" width="1" height="1" fill="#3b9ad5"/>
  <rect x="2" y="14" width="1" height="1" fill="#daf3ff"/>
  <rect x="3" y="14" width="1" height="1" fill="#e7f0ff"/>
  <rect x="4" y="14" width="1" height="1" fill="#87b5ea"/>
  <rect x="5" y="14" width="1" height="1" fill="#5590be"/>
  <rect x="6" y="14" width="1" height="1" fill="#c9f8ff"/>
  <rect x="7" y="14" width="1" height="1" fill="#baebfd"/>
  <rect x="8" y="14" width="1" height="1" fill="#74bad9"/>
  <rect x="9" y="14" width="1" height="1" fill="#4995bb"/>
  <rect x="10" y="14" width="1" height="1" fill="#4b8caf"/>
  <rect x="11" y="14" width="1" height="1" fill="#acf1ff"/>
  <rect x="12" y="14" width="1" height="1" fill="#89dfff"/>
  <rect x="13" y="14" width="1" height="1" fill="#339dcd"/>
  <rect x="14" y="14" width="1" height="1" fill="#29a6d5"/>
  <rect x="15" y="14" width="1" height="1" fill="#40aed483"/>
  <rect x="0" y="15" width="1" height="1" fill="#1094d9"/>
  <rect x="1" y="15" width="1" height="1" fill="#379cd9"/>
  <rect x="2" y="15" width="1" height="1" fill="#cdf6ff"/>
  <rect x="3" y="15" width="1" height="1" fill="#e0f6ff"/>
  <rect x="4" y="15" width="1" height="1" fill="#86b9ec"/>
  <rect x="5" y="15" width="1" height="1" fill="#a2d8ff"/>
  <rect x="6" y="15" width="1" height="1" fill="#d2f8ff"/>
  <rect x="7" y="15" width="1" height="1" fill="#bce7f8"/>
  <rect x="8" y="15" width="1" height="1" fill="#b3faff"/>
  <rect x="9" y="15" width="1" height="1" fill="#75c6f6"/>
  <rect x="10" y="15" width="1" height="1" fill="#9ee8ff"/>
  <rect x="11" y="15" width="1" height="1" fill="#8adbff"/>
  <rect x="12" y="15" width="1" height="1" fill="#3fa7d6"/>
  <rect x="13" y="15" width="1" height="1" fill="#2eaadd"/>
  <rect x="14" y="15" width="1" height="1" fill="#2bb5e883"/>
  <rect x="0" y="16" width="1" height="1" fill="#1796db"/>
  <rect x="1" y="16" width="1" height="1" fill="#299ad8"/>
  <rect x="2" y="16" width="1" height="1" fill="#89d9ff"/>
  <rect x="3" y="16" width="1" height="1" fill="#89c3ef"/>
  <rect x="4" y="16" width="1" height="1" fill="#d2ffff"/>
  <rect x="5" y="16" width="1" height="1" fill="#b9e6ff"/>
  <rect x="6" y="16" width="1" height="1" fill="#7ca5c2"/>
  <rect x="7" y="16" width="1" height="1" fill="#c3f8ff"/>
  <rect x="8" y="16" width="1" height="1" fill="#61aee6"/>
  <rect x="9" y="16" width="1" height="1" fill="#a6ffff"/>
  <rect x="10" y="16" width="1" height="1" fill="#7adaff"/>
  <rect x="11" y="16" width="1" height="1" fill="#2e99d0"/>
  <rect x="12" y="16" width="1" height="1" fill="#2faae0"/>
  <rect x="13" y="16" width="1" height="1" fill="#24afe483"/>
  <rect x="0" y="17" width="1" height="1" fill="#23a0e3"/>
  <rect x="1" y="17" width="1" height="1" fill="#249bdc"/>
  <rect x="2" y="17" width="1" height="1" fill="#359fdb"/>
  <rect x="3" y="17" width="1" height="1" fill="#409acd"/>
  <rect x="4" y="17" width="1" height="1" fill="#75bae2"/>
  <rect x="5" y="17" width="1" height="1" fill="#84bbdf"/>
  <rect x="6" y="17" width="1" height="1" fill="#73a6c9"/>
  <rect x="7" y="17" width="1" height="1" fill="#c2ffff"/>
  <rect x="8" y="17" width="1" height="1" fill="#4098d3"/>
  <rect x="9" y="17" width="1" height="1" fill="#329bde"/>
  <rect x="10" y="17" width="1" height="1" fill="#299cdc"/>
  <rect x="11" y="17" width="1" height="1" fill="#27a6e2"/>
  <rect x="12" y="17" width="1" height="1" fill="#24afe683"/>
  <rect x="0" y="18" width="1" height="1" fill="#24a0e1"/>
  <rect x="1" y="18" width="1" height="1" fill="#269fe1"/>
  <rect x="2" y="18" width="1" height="1" fill="#2aa1e4"/>
  <rect x="3" y="18" width="1" height="1" fill="#34a5e5"/>
  <rect x="4" y="18" width="1" height="1" fill="#369edd"/>
  <rect x="5" y="18" width="1" height="1" fill="#4197ce"/>
  <rect x="6" y="18" width="1" height="1" fill="#84c4ec"/>
  <rect x="7" y="18" width="1" height="1" fill="#aaeeff"/>
  <rect x="8" y="18" width="1" height="1" fill="#389cd3"/>
  <rect x="9" y="18" width="1" height="1" fill="#269edc"/>
  <rect x="10" y="18" width="1" height="1" fill="#27a6e2"/>
  <rect x="11" y="18" width="1" height="1" fill="#18a3db83"/>
  <rect x="0" y="19" width="1" height="1" fill="#21a0e7"/>
  <rect x="1" y="19" width="1" height="1" fill="#1b9be1"/>
  <rect x="2" y="19" width="1" height="1" fill="#23a0e5"/>
  <rect x="3" y="19" width="2" height="1" fill="#25a0e8"/>
  <rect x="5" y="19" width="1" height="1" fill="#319fe1"/>
  <rect x="6" y="19" width="1" height="1" fill="#8fe5ff"/>
  <rect x="7" y="19" width="1" height="1" fill="#81d7ff"/>
  <rect x="8" y="19" width="1" height="1" fill="#2b9dd4"/>
  <rect x="9" y="19" width="1" height="1" fill="#21a4de"/>
  <rect x="10" y="19" width="1" height="1" fill="#1ca7de83"/>
  <rect x="0" y="20" width="1" height="1" fill="#17a0f1"/>
  <rect x="1" y="20" width="1" height="1" fill="#1a9fed"/>
  <rect x="2" y="20" width="1" height="1" fill="#209de5"/>
  <rect x="3" y="20" width="1" height="1" fill="#229de3"/>
  <rect x="4" y="20" width="1" height="1" fill="#209fe6"/>
  <rect x="5" y="20" width="1" height="1" fill="#2aa5e9"/>
  <rect x="6" y="20" width="1" height="1" fill="#74e3ff"/>
  <rect x="7" y="20" width="1" height="1" fill="#46b6ec"/>
  <rect x="8" y="20" width="1" height="1" fill="#24a3dc"/>
  <rect x="9" y="20" width="1" height="1" fill="#1ea9e382"/>
  <rect x="0" y="21" width="1" height="1" fill="#15a0f3"/>
  <rect x="1" y="21" width="1" height="1" fill="#189fef"/>
  <rect x="2" y="21" width="1" height="1" fill="#1f9ee5"/>
  <rect x="3" y="21" width="1" height="1" fill="#209ee1"/>
  <rect x="4" y="21" width="1" height="1" fill="#1c9ddf"/>
  <rect x="5" y="21" width="1" height="1" fill="#23a4e6"/>
  <rect x="6" y="21" width="1" height="1" fill="#25a3e2"/>
  <rect x="7" y="21" width="1" height="1" fill="#1c9ed9"/>
  <rect x="8" y="21" width="1" height="1" fill="#20a8e382"/>
  <rect x="0" y="22" width="1" height="1" fill="#1d9eeb"/>
  <rect x="1" y="22" width="1" height="1" fill="#1d9ee9"/>
  <rect x="2" y="22" width="1" height="1" fill="#1d9ee7"/>
  <rect x="3" y="22" width="1" height="1" fill="#1d9fe3"/>
  <rect x="4" y="22" width="1" height="1" fill="#2baae5"/>
  <rect x="5" y="22" width="1" height="1" fill="#1c9ed9"/>
  <rect x="6" y="22" width="1" height="1" fill="#1da5e2"/>
  <rect x="7" y="22" width="1" height="1" fill="#17a3df82"/>
  <rect x="0" y="23" width="1" height="1" fill="#209de7"/>
  <rect x="1" y="23" width="1" height="1" fill="#1f9ee7"/>
  <rect x="2" y="23" width="1" height="1" fill="#1c9fe7"/>
  <rect x="3" y="23" width="1" height="3" fill="#1ca0e3"/>
  <rect x="4" y="23" width="1" height="1" fill="#1e9fda"/>
  <rect x="5" y="23" width="1" height="1" fill="#1a9ed5"/>
  <rect x="6" y="23" width="1" height="1" fill="#18a4e082"/>
  <rect x="0" y="24" width="1" height="1" fill="#229ce5"/>
  <rect x="1" y="24" width="1" height="1" fill="#209de5"/>
  <rect x="2" y="24" width="1" height="1" fill="#1d9fe5"/>
  <rect x="4" y="24" width="1" height="1" fill="#1da2e2"/>
  <rect x="5" y="24" width="1" height="1" fill="#1ba3e082"/>
  <rect x="0" y="25" width="1" height="4" fill="#229de3"/>
  <rect x="1" y="25" width="1" height="3" fill="#209ee3"/>
  <rect x="2" y="25" width="1" height="2" fill="#1f9ee3"/>
  <rect x="4" y="25" width="1" height="1" fill="#1ba2e482"/>
  <rect x="3" y="26" width="1" height="1" fill="#1ca0e382"/>
  <rect x="2" y="27" width="1" height="1" fill="#1f9ee382"/>
  <rect x="1" y="28" width="1" height="1" fill="#209ee382"/>
  <rect x="0" y="29" width="1" height="1" fill="#229de382"/>
</svg>