<svg xmlns="http://www.w3.org/2000/svg" width="23" height="61" viewBox="0 0 23 61" shape-rendering="crispEdges">
  <rect x="2" y="0" width="19" height="1" fill="#fdfdfdd9"/>
  <rect x="1" y="1" width="21" height="1" fill="#fdfdfdd8"/>
  <rect x="0" y="2" width="23" height="1" fill="#fdfdfdd8"/>
  <rect x="0" y="3" width="14" height="1" fill="#fafafad7"/>
  <rect x="14" y="3" width="4" height="1" fill="#fcfbfcd7"/>
  <rect x="18" y="3" width="5" height="1" fill="#fdfdfdd7"/>
  <rect x="0" y="4" width="14" height="1" fill="#f9f9f9d7"/>
  <rect x="14" y="4" width="4" height="1" fill="#fafafad7"/>
  <rect x="18" y="4" width="2" height="1" fill="#fcfbfcd7"/>
  <rect x="20" y="4" width="2" height="1" fill="#fcfbfed7"/>
  <rect x="22" y="4" width="1" height="1" fill="#fcfbfcd7"/>
  <rect x="0" y="5" width="16" height="1" fill="#f8f8f8d6"/>
  <rect x="16" y="5" width="4" height="1" fill="#f9f9f9d6"/>
  <rect x="20" y="5" width="2" height="1" fill="#f9f9fbd6"/>
  <rect x="22" y="5" width="1" height="1" fill="#f9f9f9d6"/>
  <rect x="0" y="6" width="16" height="1" fill="#f8f8f8d5"/>
  <rect x="16" y="6" width="4" height="1" fill="#f7f7f7d5"/>
  <rect x="20" y="6" width="2" height="1" fill="#f7f6f9d5"/>
  <rect x="22" y="6" width="1" height="1" fill="#f7f7f7d5"/>
  <rect x="0" y="7" width="14" height="1" fill="#f7f7f7d3"/>
  <rect x="14" y="7" width="4" height="1" fill="#f6f6f6d3"/>
  <rect x="18" y="7" width="2" height="1" fill="#f5f5f5d3"/>
  <rect x="20" y="7" width="2" height="1" fill="#f5f4f7d3"/>
  <rect x="22" y="7" width="1" height="1" fill="#f5f5f5d3"/>
  <rect x="0" y="8" width="12" height="1" fill="#f6f6f6d1"/>
  <rect x="12" y="8" width="4" height="1" fill="#f4f6f8d1"/>
  <rect x="16" y="8" width="7" height="1" fill="#f3f5f7d1"/>
  <rect x="0" y="9" width="12" height="1" fill="#f5f5f5cf"/>
  <rect x="12" y="9" width="11" height="1" fill="#f3f5f7cf"/>
  <rect x="0" y="10" width="12" height="1" fill="#f5f5f5cc"/>
  <rect x="12" y="10" width="11" height="1" fill="#f3f5f7cc"/>
  <rect x="0" y="11" width="12" height="1" fill="#f5f5f5ca"/>
  <rect x="12" y="11" width="11" height="1" fill="#f3f5f7ca"/>
  <rect x="0" y="12" width="12" height="1" fill="#f6f6f6c8"/>
  <rect x="12" y="12" width="11" height="1" fill="#f4f6f8c8"/>
  <rect x="0" y="13" width="12" height="1" fill="#f6f6f6c6"/>
  <rect x="12" y="13" width="11" height="1" fill="#f4f6f8c6"/>
  <rect x="0" y="14" width="12" height="1" fill="#f7f7f7c3"/>
  <rect x="12" y="14" width="11" height="1" fill="#f5f7f9c3"/>
  <rect x="0" y="15" width="12" height="1" fill="#f7f7f7c1"/>
  <rect x="12" y="15" width="11" height="1" fill="#f5f7f9c1"/>
  <rect x="0" y="16" width="14" height="1" fill="#f7f7f7be"/>
  <rect x="14" y="16" width="2" height="1" fill="#f8f8f8be"/>
  <rect x="16" y="16" width="2" height="1" fill="#f7f7f7be"/>
  <rect x="18" y="16" width="2" height="1" fill="#f8f8f8be"/>
  <rect x="20" y="16" width="2" height="1" fill="#f8f8fabe"/>
  <rect x="22" y="16" width="1" height="1" fill="#f8f8f8be"/>
  <rect x="0" y="17" width="14" height="1" fill="#f7f7f7bb"/>
  <rect x="14" y="17" width="2" height="1" fill="#f8f8f8bb"/>
  <rect x="16" y="17" width="2" height="1" fill="#f7f7f7bb"/>
  <rect x="18" y="17" width="2" height="1" fill="#f8f8f8bb"/>
  <rect x="20" y="17" width="2" height="1" fill="#f8f8fabb"/>
  <rect x="22" y="17" width="1" height="1" fill="#f8f8f8bb"/>
  <rect x="0" y="18" width="16" height="1" fill="#f9f9f9b8"/>
  <rect x="16" y="18" width="4" height="1" fill="#fafafab8"/>
  <rect x="20" y="18" width="2" height="1" fill="#fafafcb8"/>
  <rect x="22" y="18" width="1" height="1" fill="#fafafab8"/>
  <rect x="0" y="19" width="16" height="1" fill="#f9f9f9b5"/>
  <rect x="16" y="19" width="4" height="1" fill="#fafafab5"/>
  <rect x="20" y="19" width="2" height="1" fill="#fafafcb5"/>
  <rect x="22" y="19" width="1" height="1" fill="#fafafab5"/>
  <rect x="0" y="20" width="23" height="1" fill="#fafafab2"/>
  <rect x="0" y="21" width="23" height="1" fill="#fafafaaf"/>
  <rect x="0" y="22" width="16" height="1" fill="#fcfbfcac"/>
  <rect x="16" y="22" width="7" height="1" fill="#fdfdfdac"/>
  <rect x="0" y="23" width="16" height="1" fill="#fcfbfca9"/>
  <rect x="16" y="23" width="7" height="1" fill="#fdfdfda9"/>
  <rect x="0" y="24" width="23" height="1" fill="#fdfdfda6"/>
  <rect x="0" y="25" width="23" height="1" fill="#fdfdfda3"/>
  <rect x="0" y="26" width="23" height="1" fill="#fefefea0"/>
  <rect x="0" y="27" width="23" height="1" fill="#fefefe9e"/>
  <rect x="0" y="28" width="16" height="1" fill="#fefefe9c"/>
  <rect x="16" y="28" width="7" height="1" fill="#ffffff9c"/>
  <rect x="0" y="29" width="16" height="1" fill="#fefefe9a"/>
  <rect x="16" y="29" width="7" height="1" fill="#ffffff9a"/>
  <rect x="0" y="30" width="23" height="1" fill="#ffffff98"/>
  <rect x="0" y="31" width="23" height="2" fill="#ffffff97"/>
  <rect x="0" y="33" width="23" height="1" fill="#ffffff96"/>
  <rect x="0" y="34" width="23" height="1" fill="#ffffff95"/>
  <rect x="0" y="35" width="23" height="1" fill="#ffffff94"/>
  <rect x="0" y="36" width="23" height="2" fill="#ffffff93"/>
  <rect x="0" y="38" width="23" height="2" fill="#ffffff92"/>
  <rect x="0" y="40" width="23" height="2" fill="#ffffff91"/>
  <rect x="0" y="42" width="23" height="2" fill="#ffffff90"/>
  <rect x="0" y="44" width="23" height="3" fill="#ffffff8f"/>
  <rect x="0" y="47" width="23" height="5" fill="#ffffff8e"/>
  <rect x="0" y="52" width="23" height="4" fill="#ffffff8d"/>
  <rect x="0" y="56" width="23" height="1" fill="#fdfdfd8d"/>
  <rect x="0" y="57" width="23" height="1" fill="#ffffff8c"/>
  <rect x="0" y="58" width="23" height="1" fill="#fefefe8c"/>
  <rect x="0" y="59" width="23" height="1" fill="#f5f5f573"/>
  <rect x="0" y="60" width="23" height="1" fill="#f5f5f5b3"/>
</svg>