<svg xmlns="http://www.w3.org/2000/svg" width="14" height="7" viewBox="0 0 14 7" shape-rendering="crispEdges">
  <rect x="0" y="0" width="2" height="1" fill="#00000033"/>
  <rect x="5" y="0" width="2" height="1" fill="#00000033"/>
  <rect x="7" y="0" width="2" height="1" fill="#00000080"/>
  <rect x="12" y="0" width="2" height="1" fill="#00000080"/>
  <rect x="0" y="1" width="3" height="1" fill="#00000033"/>
  <rect x="4" y="1" width="3" height="1" fill="#00000033"/>
  <rect x="7" y="1" width="3" height="1" fill="#00000080"/>
  <rect x="11" y="1" width="3" height="1" fill="#00000080"/>
  <rect x="1" y="2" width="5" height="1" fill="#00000033"/>
  <rect x="8" y="2" width="5" height="1" fill="#00000080"/>
  <rect x="2" y="3" width="3" height="1" fill="#00000033"/>
  <rect x="9" y="3" width="3" height="1" fill="#00000080"/>
  <rect x="1" y="4" width="5" height="1" fill="#00000033"/>
  <rect x="8" y="4" width="5" height="1" fill="#00000080"/>
  <rect x="0" y="5" width="3" height="1" fill="#00000033"/>
  <rect x="4" y="5" width="3" height="1" fill="#00000033"/>
  <rect x="7" y="5" width="3" height="1" fill="#00000080"/>
  <rect x="11" y="5" width="3" height="1" fill="#00000080"/>
  <rect x="0" y="6" width="2" height="1" fill="#00000033"/>
  <rect x="5" y="6" width="2" height="1" fill="#00000033"/>
  <rect x="7" y="6" width="2" height="1" fill="#00000080"/>
  <rect x="12" y="6" width="2" height="1" fill="#00000080"/>
</svg>