<svg xmlns="http://www.w3.org/2000/svg" width="10" height="10" viewBox="0 0 10 10" shape-rendering="crispEdges">
  <rect x="3" y="0" width="1" height="1" fill="#a1a4ae93"/>
  <rect x="4" y="0" width="1" height="1" fill="#a1a4acee"/>
  <rect x="5" y="0" width="1" height="1" fill="#a1a4ace5"/>
  <rect x="6" y="0" width="1" height="1" fill="#a1a5aa92"/>
  <rect x="2" y="1" width="1" height="1" fill="#a1a4aea3"/>
  <rect x="3" y="1" width="1" height="1" fill="#a1a4ae"/>
  <rect x="4" y="1" width="2" height="1" fill="#a1a4ac"/>
  <rect x="6" y="1" width="1" height="2" fill="#a1a5aa"/>
  <rect x="7" y="1" width="1" height="1" fill="#a1a5aaa2"/>
  <rect x="1" y="2" width="1" height="1" fill="#a1a4ae12"/>
  <rect x="2" y="2" width="1" height="1" fill="#a1a4aefd"/>
  <rect x="3" y="2" width="2" height="1" fill="#a1a4ae"/>
  <rect x="5" y="2" width="1" height="1" fill="#a1a4ac"/>
  <rect x="7" y="2" width="1" height="1" fill="#a1a5aafd"/>
  <rect x="8" y="2" width="1" height="1" fill="#a1a5a812"/>
  <rect x="1" y="3" width="1" height="1" fill="#a1a4ae22"/>
  <rect x="2" y="3" width="4" height="1" fill="#a1a4ae"/>
  <rect x="6" y="3" width="1" height="1" fill="#a1a4ac"/>
  <rect x="7" y="3" width="1" height="1" fill="#a1a5aa"/>
  <rect x="8" y="3" width="1" height="1" fill="#a1a5aa24"/>
  <rect x="2" y="4" width="1" height="1" fill="#a1a4aec2"/>
  <rect x="3" y="4" width="4" height="1" fill="#a1a4ae"/>
  <rect x="7" y="4" width="1" height="1" fill="#a1a4acd2"/>
  <rect x="1" y="5" width="1" height="1" fill="#a1a4ae28"/>
  <rect x="2" y="5" width="1" height="1" fill="#a1a4ae54"/>
  <rect x="3" y="5" width="1" height="1" fill="#a1a4aeaf"/>
  <rect x="4" y="5" width="2" height="1" fill="#a1a4ae"/>
  <rect x="6" y="5" width="1" height="1" fill="#a1a4aecc"/>
  <rect x="7" y="5" width="1" height="1" fill="#a1a4ae65"/>
  <rect x="8" y="5" width="1" height="1" fill="#a1a4ac28"/>
  <rect x="0" y="6" width="1" height="1" fill="#a1a4ae1a"/>
  <rect x="1" y="6" width="1" height="1" fill="#a1a4aeea"/>
  <rect x="2" y="6" width="1" height="1" fill="#a1a4aeeb"/>
  <rect x="3" y="6" width="1" height="1" fill="#a1a4ae38"/>
  <rect x="4" y="6" width="1" height="1" fill="#a1a4ae24"/>
  <rect x="5" y="6" width="1" height="1" fill="#a1a4ae25"/>
  <rect x="6" y="6" width="1" height="1" fill="#a1a4ae39"/>
  <rect x="7" y="6" width="1" height="1" fill="#a1a4aeed"/>
  <rect x="8" y="6" width="1" height="1" fill="#a1a4aeea"/>
  <rect x="9" y="6" width="1" height="1" fill="#a1a4ae1a"/>
  <rect x="0" y="7" width="1" height="1" fill="#a1a4aea0"/>
  <rect x="1" y="7" width="2" height="1" fill="#a1a4ae"/>
  <rect x="3" y="7" width="1" height="1" fill="#a1a4aefb"/>
  <rect x="4" y="7" width="1" height="1" fill="#a1a4aea5"/>
  <rect x="5" y="7" width="1" height="1" fill="#a1a4aea6"/>
  <rect x="6" y="7" width="1" height="1" fill="#a1a4aefb"/>
  <rect x="7" y="7" width="2" height="1" fill="#a1a4ae"/>
  <rect x="9" y="7" width="1" height="1" fill="#a1a4aea0"/>
  <rect x="0" y="8" width="1" height="1" fill="#a1a4aeeb"/>
  <rect x="1" y="8" width="8" height="2" fill="#a1a4ae"/>
  <rect x="9" y="8" width="1" height="1" fill="#a1a4aeeb"/>
  <rect x="0" y="9" width="1" height="1" fill="#a1a4aef9"/>
  <rect x="9" y="9" width="1" height="1" fill="#a1a4aef9"/>
</svg>