<svg xmlns="http://www.w3.org/2000/svg" width="90" height="30" viewBox="0 0 90 30" shape-rendering="crispEdges">
  <rect x="1" y="0" width="1" height="1" fill="#ee5c5e25"/>
  <rect x="2" y="0" width="1" height="1" fill="#ee5c5ead"/>
  <rect x="3" y="0" width="1" height="1" fill="#ee5c5ef1"/>
  <rect x="4" y="0" width="2" height="1" fill="#e95758"/>
  <rect x="6" y="0" width="4" height="1" fill="#ea5859"/>
  <rect x="10" y="0" width="2" height="1" fill="#eb595a"/>
  <rect x="12" y="0" width="4" height="1" fill="#ee595c"/>
  <rect x="16" y="0" width="4" height="1" fill="#ef5a5d"/>
  <rect x="20" y="0" width="2" height="1" fill="#f05a5d"/>
  <rect x="22" y="0" width="4" height="1" fill="#ef5a5d"/>
  <rect x="26" y="0" width="22" height="1" fill="#ed5b5d"/>
  <rect x="48" y="0" width="16" height="1" fill="#ef5a5d"/>
  <rect x="64" y="0" width="4" height="1" fill="#ef5b5b"/>
  <rect x="68" y="0" width="8" height="1" fill="#ef5a5d"/>
  <rect x="76" y="0" width="4" height="1" fill="#ef5a5f"/>
  <rect x="80" y="0" width="6" height="1" fill="#ef5a5d"/>
  <rect x="86" y="0" width="1" height="1" fill="#ed5b5df1"/>
  <rect x="87" y="0" width="1" height="1" fill="#ed5b5dad"/>
  <rect x="88" y="0" width="1" height="1" fill="#ed5b5d25"/>
  <rect x="0" y="1" width="1" height="1" fill="#ee5c5e27"/>
  <rect x="1" y="1" width="1" height="1" fill="#ee5c5eef"/>
  <rect x="2" y="1" width="2" height="1" fill="#f05e5f"/>
  <rect x="4" y="1" width="2" height="1" fill="#f15f60"/>
  <rect x="6" y="1" width="2" height="1" fill="#f26061"/>
  <rect x="8" y="1" width="4" height="1" fill="#f15f60"/>
  <rect x="12" y="1" width="4" height="1" fill="#f25e60"/>
  <rect x="16" y="1" width="4" height="1" fill="#f35f61"/>
  <rect x="20" y="1" width="2" height="1" fill="#f55e61"/>
  <rect x="22" y="1" width="4" height="1" fill="#f35f61"/>
  <rect x="26" y="1" width="22" height="1" fill="#f26061"/>
  <rect x="48" y="1" width="16" height="1" fill="#f35f61"/>
  <rect x="64" y="1" width="4" height="1" fill="#f35f5f"/>
  <rect x="68" y="1" width="8" height="1" fill="#f35f61"/>
  <rect x="76" y="1" width="4" height="1" fill="#f35f63"/>
  <rect x="80" y="1" width="6" height="1" fill="#f35f61"/>
  <rect x="86" y="1" width="2" height="1" fill="#f26061"/>
  <rect x="88" y="1" width="1" height="1" fill="#ed5b5def"/>
  <rect x="89" y="1" width="1" height="1" fill="#ed5b5d27"/>
  <rect x="0" y="2" width="1" height="1" fill="#ee5c5ead"/>
  <rect x="1" y="2" width="3" height="1" fill="#ee5c5e"/>
  <rect x="4" y="2" width="3" height="1" fill="#f76566"/>
  <rect x="7" y="2" width="2" height="1" fill="#f56365"/>
  <rect x="9" y="2" width="3" height="1" fill="#f46264"/>
  <rect x="12" y="2" width="4" height="2" fill="#f56063"/>
  <rect x="16" y="2" width="4" height="2" fill="#f66164"/>
  <rect x="20" y="2" width="2" height="2" fill="#f76164"/>
  <rect x="22" y="2" width="4" height="4" fill="#f66164"/>
  <rect x="26" y="2" width="22" height="4" fill="#f46264"/>
  <rect x="48" y="2" width="16" height="2" fill="#f66164"/>
  <rect x="64" y="2" width="4" height="2" fill="#f66262"/>
  <rect x="68" y="2" width="8" height="2" fill="#f66164"/>
  <rect x="76" y="2" width="4" height="4" fill="#f66166"/>
  <rect x="80" y="2" width="6" height="4" fill="#f66164"/>
  <rect x="86" y="2" width="2" height="2" fill="#f46264"/>
  <rect x="88" y="2" width="1" height="2" fill="#ed5b5d"/>
  <rect x="89" y="2" width="1" height="1" fill="#ed5b5dad"/>
  <rect x="0" y="3" width="1" height="1" fill="#ee5c5ef1"/>
  <rect x="1" y="3" width="1" height="1" fill="#ee5c5e"/>
  <rect x="2" y="3" width="1" height="1" fill="#f05e5f"/>
  <rect x="3" y="3" width="3" height="1" fill="#f15f60"/>
  <rect x="6" y="3" width="2" height="1" fill="#f26061"/>
  <rect x="8" y="3" width="4" height="1" fill="#f36163"/>
  <rect x="89" y="3" width="1" height="1" fill="#ed5b5df3"/>
  <rect x="0" y="4" width="1" height="2" fill="#ea5859"/>
  <rect x="1" y="4" width="1" height="4" fill="#f36163"/>
  <rect x="2" y="4" width="1" height="3" fill="#f86667"/>
  <rect x="3" y="4" width="1" height="1" fill="#f26061"/>
  <rect x="4" y="4" width="4" height="1" fill="#f36163"/>
  <rect x="8" y="4" width="8" height="4" fill="#f56063"/>
  <rect x="16" y="4" width="6" height="2" fill="#f76164"/>
  <rect x="48" y="4" width="28" height="2" fill="#f66164"/>
  <rect x="86" y="4" width="3" height="4" fill="#f46264"/>
  <rect x="89" y="4" width="1" height="4" fill="#ed5b5d"/>
  <rect x="3" y="5" width="5" height="3" fill="#f36163"/>
  <rect x="0" y="6" width="1" height="4" fill="#eb595a"/>
  <rect x="16" y="6" width="4" height="2" fill="#f76164"/>
  <rect x="20" y="6" width="6" height="2" fill="#f66164"/>
  <rect x="26" y="6" width="20" height="1" fill="#f46264"/>
  <rect x="46" y="6" width="2" height="1" fill="#f46266"/>
  <rect x="48" y="6" width="8" height="1" fill="#f66164"/>
  <rect x="56" y="6" width="2" height="1" fill="#f66166"/>
  <rect x="58" y="6" width="28" height="1" fill="#f66164"/>
  <rect x="2" y="7" width="1" height="2" fill="#f76566"/>
  <rect x="26" y="7" width="6" height="1" fill="#f46264"/>
  <rect x="32" y="7" width="1" height="1" fill="#f36362"/>
  <rect x="33" y="7" width="1" height="1" fill="#ef6562"/>
  <rect x="34" y="7" width="1" height="1" fill="#e96866"/>
  <rect x="35" y="7" width="1" height="1" fill="#e36a6a"/>
  <rect x="36" y="7" width="1" height="1" fill="#de6c6c"/>
  <rect x="37" y="7" width="1" height="1" fill="#db6d6e"/>
  <rect x="38" y="7" width="2" height="1" fill="#dc6d6c"/>
  <rect x="40" y="7" width="1" height="1" fill="#de6c6c"/>
  <rect x="41" y="7" width="1" height="1" fill="#e36a6a"/>
  <rect x="42" y="7" width="1" height="1" fill="#eb6668"/>
  <rect x="43" y="7" width="1" height="1" fill="#ef6466"/>
  <rect x="44" y="7" width="1" height="1" fill="#f16366"/>
  <rect x="45" y="7" width="1" height="1" fill="#f36366"/>
  <rect x="46" y="7" width="1" height="1" fill="#f16368"/>
  <rect x="47" y="7" width="1" height="1" fill="#ee646a"/>
  <rect x="48" y="7" width="1" height="1" fill="#e7676c"/>
  <rect x="49" y="7" width="1" height="1" fill="#e3696e"/>
  <rect x="50" y="7" width="1" height="1" fill="#df6a70"/>
  <rect x="51" y="7" width="2" height="1" fill="#de6b70"/>
  <rect x="53" y="7" width="1" height="1" fill="#df6a70"/>
  <rect x="54" y="7" width="1" height="1" fill="#e3696e"/>
  <rect x="55" y="7" width="1" height="1" fill="#e7686a"/>
  <rect x="56" y="7" width="1" height="1" fill="#ef6468"/>
  <rect x="57" y="7" width="1" height="1" fill="#f46266"/>
  <rect x="58" y="7" width="2" height="1" fill="#f46264"/>
  <rect x="60" y="7" width="1" height="1" fill="#f36364"/>
  <rect x="61" y="7" width="1" height="1" fill="#f36366"/>
  <rect x="62" y="7" width="2" height="1" fill="#f66168"/>
  <rect x="64" y="7" width="1" height="1" fill="#f66166"/>
  <rect x="65" y="7" width="21" height="1" fill="#f66164"/>
  <rect x="1" y="8" width="1" height="20" fill="#f26061"/>
  <rect x="3" y="8" width="1" height="8" fill="#f46264"/>
  <rect x="4" y="8" width="18" height="2" fill="#f66164"/>
  <rect x="22" y="8" width="9" height="2" fill="#f46264"/>
  <rect x="31" y="8" width="1" height="1" fill="#f36362"/>
  <rect x="32" y="8" width="1" height="1" fill="#e65d52"/>
  <rect x="33" y="8" width="1" height="1" fill="#e46c5e"/>
  <rect x="34" y="8" width="1" height="1" fill="#d77670"/>
  <rect x="35" y="8" width="1" height="1" fill="#d58d8a"/>
  <rect x="36" y="8" width="1" height="1" fill="#f4c5c1"/>
  <rect x="37" y="8" width="1" height="1" fill="#fff6f2"/>
  <rect x="38" y="8" width="1" height="1" fill="#fff3ec"/>
  <rect x="39" y="8" width="1" height="1" fill="#fff5ed"/>
  <rect x="40" y="8" width="1" height="1" fill="#ffede8"/>
  <rect x="41" y="8" width="1" height="1" fill="#ffc4c2"/>
  <rect x="42" y="8" width="1" height="1" fill="#de7778"/>
  <rect x="43" y="8" width="1" height="1" fill="#e76b6e"/>
  <rect x="44" y="8" width="1" height="1" fill="#ef686a"/>
  <rect x="45" y="8" width="1" height="1" fill="#eb6265"/>
  <rect x="46" y="8" width="1" height="1" fill="#e05b5f"/>
  <rect x="47" y="8" width="1" height="1" fill="#e16f73"/>
  <rect x="48" y="8" width="1" height="1" fill="#de878c"/>
  <rect x="49" y="8" width="1" height="1" fill="#fdbcc2"/>
  <rect x="50" y="8" width="1" height="1" fill="#ffe2ea"/>
  <rect x="51" y="8" width="1" height="1" fill="#fff1f9"/>
  <rect x="52" y="8" width="1" height="1" fill="#fff4fc"/>
  <rect x="53" y="8" width="1" height="1" fill="#ffe3eb"/>
  <rect x="54" y="8" width="1" height="1" fill="#f6b5bb"/>
  <rect x="55" y="8" width="1" height="1" fill="#d27a7f"/>
  <rect x="56" y="8" width="1" height="1" fill="#e3696e"/>
  <rect x="57" y="8" width="1" height="1" fill="#f56a6e"/>
  <rect x="58" y="8" width="1" height="1" fill="#e85959"/>
  <rect x="59" y="8" width="1" height="1" fill="#e95a58"/>
  <rect x="60" y="8" width="1" height="1" fill="#ec6664"/>
  <rect x="61" y="8" width="1" height="2" fill="#ee6568"/>
  <rect x="62" y="8" width="1" height="1" fill="#f4606e"/>
  <rect x="63" y="8" width="1" height="1" fill="#f75f6e"/>
  <rect x="64" y="8" width="1" height="3" fill="#f66168"/>
  <rect x="65" y="8" width="3" height="4" fill="#f66164"/>
  <rect x="68" y="8" width="2" height="4" fill="#f66166"/>
  <rect x="70" y="8" width="4" height="14" fill="#f66164"/>
  <rect x="74" y="8" width="2" height="2" fill="#f66262"/>
  <rect x="76" y="8" width="13" height="2" fill="#f66164"/>
  <rect x="89" y="8" width="1" height="8" fill="#ef5a5d"/>
  <rect x="2" y="9" width="1" height="19" fill="#f56365"/>
  <rect x="31" y="9" width="1" height="1" fill="#ef6562"/>
  <rect x="32" y="9" width="1" height="1" fill="#e56d5f"/>
  <rect x="33" y="9" width="1" height="1" fill="#da786a"/>
  <rect x="34" y="9" width="1" height="1" fill="#ffbcb2"/>
  <rect x="35" y="9" width="1" height="1" fill="#ffe8e5"/>
  <rect x="36" y="9" width="1" height="1" fill="#fff5f4"/>
  <rect x="37" y="9" width="1" height="1" fill="#fff3f3"/>
  <rect x="38" y="9" width="1" height="1" fill="#fff9f4"/>
  <rect x="39" y="9" width="1" height="1" fill="#ffece7"/>
  <rect x="40" y="9" width="1" height="1" fill="#fff0ec"/>
  <rect x="41" y="9" width="1" height="1" fill="#fff5f1"/>
  <rect x="42" y="9" width="1" height="1" fill="#ffd9d7"/>
  <rect x="43" y="9" width="1" height="1" fill="#e57170"/>
  <rect x="44" y="9" width="1" height="1" fill="#e86465"/>
  <rect x="45" y="9" width="1" height="1" fill="#e46466"/>
  <rect x="46" y="9" width="1" height="1" fill="#de7677"/>
  <rect x="47" y="9" width="1" height="1" fill="#ffb0b0"/>
  <rect x="48" y="9" width="1" height="1" fill="#ffe7e8"/>
  <rect x="49" y="9" width="1" height="1" fill="#fff8fc"/>
  <rect x="50" y="9" width="1" height="1" fill="#ffe6ee"/>
  <rect x="51" y="9" width="1" height="1" fill="#ffedf7"/>
  <rect x="52" y="9" width="1" height="1" fill="#ffecf6"/>
  <rect x="53" y="9" width="1" height="1" fill="#ffe6ee"/>
  <rect x="54" y="9" width="1" height="1" fill="#fff7fb"/>
  <rect x="55" y="9" width="1" height="1" fill="#ffe0e0"/>
  <rect x="56" y="9" width="1" height="1" fill="#fc9c9f"/>
  <rect x="57" y="9" width="1" height="1" fill="#e46b6d"/>
  <rect x="58" y="9" width="1" height="1" fill="#f46b6c"/>
  <rect x="59" y="9" width="1" height="1" fill="#f06361"/>
  <rect x="60" y="9" width="1" height="1" fill="#ee6662"/>
  <rect x="62" y="9" width="1" height="1" fill="#f46070"/>
  <rect x="63" y="9" width="1" height="1" fill="#f75e70"/>
  <rect x="0" y="10" width="1" height="16" fill="#ec5a5c"/>
  <rect x="4" y="10" width="16" height="2" fill="#f66164"/>
  <rect x="20" y="10" width="11" height="2" fill="#f46264"/>
  <rect x="31" y="10" width="1" height="1" fill="#e96866"/>
  <rect x="32" y="10" width="1" height="1" fill="#dc7b75"/>
  <rect x="33" y="10" width="1" height="1" fill="#ffcdc2"/>
  <rect x="34" y="10" width="1" height="1" fill="#ffe8e3"/>
  <rect x="35" y="10" width="1" height="1" fill="#ffebec"/>
  <rect x="36" y="10" width="1" height="1" fill="#ffbdc3"/>
  <rect x="37" y="10" width="1" height="1" fill="#dc7d87"/>
  <rect x="38" y="10" width="1" height="1" fill="#d96f75"/>
  <rect x="39" y="10" width="1" height="1" fill="#da6a6d"/>
  <rect x="40" y="10" width="1" height="1" fill="#e67677"/>
  <rect x="41" y="10" width="1" height="1" fill="#ffaba7"/>
  <rect x="42" y="10" width="1" height="1" fill="#ffdbd3"/>
  <rect x="43" y="10" width="1" height="1" fill="#e26d65"/>
  <rect x="44" y="10" width="1" height="1" fill="#ef6868"/>
  <rect x="45" y="10" width="1" height="1" fill="#dd6969"/>
  <rect x="46" y="10" width="1" height="1" fill="#f0b2a9"/>
  <rect x="47" y="10" width="1" height="1" fill="#ffe9df"/>
  <rect x="48" y="10" width="1" height="1" fill="#ffebe3"/>
  <rect x="49" y="10" width="1" height="1" fill="#ffccca"/>
  <rect x="50" y="10" width="1" height="1" fill="#f19095"/>
  <rect x="51" y="10" width="1" height="1" fill="#dd6c75"/>
  <rect x="52" y="10" width="1" height="1" fill="#e17078"/>
  <rect x="53" y="10" width="1" height="1" fill="#fe9ea3"/>
  <rect x="54" y="10" width="1" height="1" fill="#ffdfdd"/>
  <rect x="55" y="10" width="1" height="1" fill="#fff5ef"/>
  <rect x="56" y="10" width="1" height="1" fill="#ffe0db"/>
  <rect x="57" y="10" width="1" height="1" fill="#e48c87"/>
  <rect x="58" y="10" width="1" height="1" fill="#e86d6b"/>
  <rect x="59" y="10" width="1" height="1" fill="#f66765"/>
  <rect x="60" y="10" width="1" height="1" fill="#f46362"/>
  <rect x="61" y="10" width="1" height="1" fill="#f66164"/>
  <rect x="62" y="10" width="1" height="1" fill="#f75f6c"/>
  <rect x="63" y="10" width="1" height="1" fill="#f75f6e"/>
  <rect x="74" y="10" width="6" height="6" fill="#f66262"/>
  <rect x="80" y="10" width="9" height="6" fill="#f66164"/>
  <rect x="31" y="11" width="1" height="1" fill="#e36a6a"/>
  <rect x="32" y="11" width="1" height="1" fill="#fdb4b1"/>
  <rect x="33" y="11" width="1" height="1" fill="#ffece9"/>
  <rect x="34" y="11" width="1" height="1" fill="#ffeeee"/>
  <rect x="35" y="11" width="1" height="1" fill="#faaaae"/>
  <rect x="36" y="11" width="1" height="1" fill="#d76872"/>
  <rect x="37" y="11" width="1" height="1" fill="#f06c79"/>
  <rect x="38" y="11" width="1" height="1" fill="#fa6b77"/>
  <rect x="39" y="11" width="1" height="1" fill="#ed5a63"/>
  <rect x="40" y="11" width="1" height="1" fill="#fc6972"/>
  <rect x="41" y="11" width="1" height="1" fill="#f26768"/>
  <rect x="42" y="11" width="1" height="1" fill="#f2746c"/>
  <rect x="43" y="11" width="1" height="1" fill="#ea6f66"/>
  <rect x="44" y="11" width="1" height="1" fill="#f97373"/>
  <rect x="45" y="11" width="1" height="1" fill="#d96e6e"/>
  <rect x="46" y="11" width="1" height="1" fill="#ffe8dd"/>
  <rect x="47" y="11" width="1" height="1" fill="#fff4e7"/>
  <rect x="48" y="11" width="1" height="1" fill="#ffdad1"/>
  <rect x="49" y="11" width="1" height="1" fill="#d07873"/>
  <rect x="50" y="11" width="1" height="1" fill="#e66767"/>
  <rect x="51" y="11" width="1" height="1" fill="#f86667"/>
  <rect x="52" y="11" width="1" height="1" fill="#ee5c5e"/>
  <rect x="53" y="11" width="1" height="1" fill="#ea6a6a"/>
  <rect x="54" y="11" width="1" height="1" fill="#d8807b"/>
  <rect x="55" y="11" width="1" height="1" fill="#ffd9d2"/>
  <rect x="56" y="11" width="1" height="1" fill="#fff6ec"/>
  <rect x="57" y="11" width="1" height="1" fill="#ffc8c0"/>
  <rect x="58" y="11" width="1" height="1" fill="#e37471"/>
  <rect x="59" y="11" width="1" height="1" fill="#f46968"/>
  <rect x="60" y="11" width="1" height="1" fill="#f76160"/>
  <rect x="61" y="11" width="1" height="1" fill="#fb5f62"/>
  <rect x="62" y="11" width="1" height="1" fill="#f95f68"/>
  <rect x="63" y="11" width="1" height="1" fill="#f75f6a"/>
  <rect x="64" y="11" width="1" height="1" fill="#f66166"/>
  <rect x="4" y="12" width="4" height="4" fill="#f66164"/>
  <rect x="8" y="12" width="8" height="4" fill="#f76164"/>
  <rect x="16" y="12" width="4" height="4" fill="#f66164"/>
  <rect x="20" y="12" width="8" height="2" fill="#f46264"/>
  <rect x="28" y="12" width="1" height="1" fill="#fa686a"/>
  <rect x="29" y="12" width="1" height="1" fill="#f56365"/>
  <rect x="30" y="12" width="1" height="2" fill="#f96768"/>
  <rect x="31" y="12" width="1" height="1" fill="#e67474"/>
  <rect x="32" y="12" width="1" height="1" fill="#ffd3cf"/>
  <rect x="33" y="12" width="1" height="1" fill="#fff0ee"/>
  <rect x="34" y="12" width="1" height="1" fill="#ffc3c9"/>
  <rect x="35" y="12" width="1" height="1" fill="#df707a"/>
  <rect x="36" y="12" width="1" height="1" fill="#e6656f"/>
  <rect x="37" y="12" width="1" height="1" fill="#ee5f68"/>
  <rect x="38" y="12" width="1" height="1" fill="#fd6773"/>
  <rect x="39" y="12" width="1" height="1" fill="#f65e6b"/>
  <rect x="40" y="12" width="1" height="1" fill="#f15b67"/>
  <rect x="41" y="12" width="1" height="1" fill="#f4616c"/>
  <rect x="42" y="12" width="1" height="1" fill="#ec5c5f"/>
  <rect x="43" y="12" width="1" height="1" fill="#ed6465"/>
  <rect x="44" y="12" width="1" height="1" fill="#e46466"/>
  <rect x="45" y="12" width="1" height="1" fill="#ffa6a6"/>
  <rect x="46" y="12" width="1" height="1" fill="#ffece5"/>
  <rect x="47" y="12" width="1" height="1" fill="#ffefe7"/>
  <rect x="48" y="12" width="1" height="1" fill="#de8382"/>
  <rect x="49" y="12" width="1" height="1" fill="#ed706f"/>
  <rect x="50" y="12" width="1" height="1" fill="#ed635d"/>
  <rect x="51" y="12" width="1" height="1" fill="#f36159"/>
  <rect x="52" y="12" width="1" height="1" fill="#f5625a"/>
  <rect x="53" y="12" width="1" height="1" fill="#ee645e"/>
  <rect x="54" y="12" width="1" height="1" fill="#ed706f"/>
  <rect x="55" y="12" width="1" height="1" fill="#ffa8a4"/>
  <rect x="56" y="12" width="1" height="1" fill="#fffaef"/>
  <rect x="57" y="12" width="1" height="1" fill="#fff1e7"/>
  <rect x="58" y="12" width="1" height="1" fill="#e88683"/>
  <rect x="59" y="12" width="1" height="1" fill="#e6625f"/>
  <rect x="60" y="12" width="1" height="1" fill="#f66260"/>
  <rect x="61" y="12" width="1" height="1" fill="#fb6060"/>
  <rect x="62" y="12" width="1" height="1" fill="#f96064"/>
  <rect x="63" y="12" width="1" height="1" fill="#f76066"/>
  <rect x="64" y="12" width="6" height="1" fill="#f66166"/>
  <rect x="28" y="13" width="1" height="1" fill="#f86667"/>
  <rect x="29" y="13" width="1" height="3" fill="#f76566"/>
  <rect x="31" y="13" width="1" height="1" fill="#ed8080"/>
  <rect x="32" y="13" width="1" height="1" fill="#fff8f4"/>
  <rect x="33" y="13" width="1" height="1" fill="#ffeded"/>
  <rect x="34" y="13" width="1" height="1" fill="#f798a1"/>
  <rect x="35" y="13" width="1" height="1" fill="#e6626e"/>
  <rect x="36" y="13" width="1" height="1" fill="#f0616b"/>
  <rect x="37" y="13" width="1" height="1" fill="#ee646c"/>
  <rect x="38" y="13" width="1" height="1" fill="#e46a6f"/>
  <rect x="39" y="13" width="1" height="1" fill="#e06f75"/>
  <rect x="40" y="13" width="1" height="1" fill="#dc6b78"/>
  <rect x="41" y="13" width="1" height="1" fill="#da6674"/>
  <rect x="42" y="13" width="1" height="1" fill="#e46870"/>
  <rect x="43" y="13" width="1" height="1" fill="#e86c71"/>
  <rect x="44" y="13" width="1" height="1" fill="#dc6c70"/>
  <rect x="45" y="13" width="1" height="1" fill="#ffbcbd"/>
  <rect x="46" y="13" width="1" height="1" fill="#fff1ef"/>
  <rect x="47" y="13" width="1" height="1" fill="#ffcecd"/>
  <rect x="48" y="13" width="1" height="1" fill="#da6a6b"/>
  <rect x="49" y="13" width="1" height="1" fill="#f06161"/>
  <rect x="50" y="13" width="1" height="1" fill="#f2615d"/>
  <rect x="51" y="13" width="1" height="1" fill="#f7645f"/>
  <rect x="52" y="13" width="1" height="1" fill="#f6635e"/>
  <rect x="53" y="13" width="1" height="1" fill="#f3625e"/>
  <rect x="54" y="13" width="1" height="1" fill="#f56566"/>
  <rect x="55" y="13" width="1" height="1" fill="#f68c89"/>
  <rect x="56" y="13" width="1" height="1" fill="#fff8ef"/>
  <rect x="57" y="13" width="1" height="1" fill="#fff4eb"/>
  <rect x="58" y="13" width="1" height="1" fill="#ec9792"/>
  <rect x="59" y="13" width="1" height="1" fill="#e36965"/>
  <rect x="60" y="13" width="1" height="1" fill="#ef6560"/>
  <rect x="61" y="13" width="1" height="1" fill="#f6635e"/>
  <rect x="62" y="13" width="1" height="1" fill="#f66260"/>
  <rect x="63" y="13" width="1" height="1" fill="#f66262"/>
  <rect x="64" y="13" width="1" height="2" fill="#f66164"/>
  <rect x="65" y="13" width="5" height="3" fill="#f66166"/>
  <rect x="20" y="14" width="9" height="1" fill="#f46264"/>
  <rect x="30" y="14" width="1" height="2" fill="#f86667"/>
  <rect x="31" y="14" width="1" height="1" fill="#ff908f"/>
  <rect x="32" y="14" width="1" height="1" fill="#fff9f2"/>
  <rect x="33" y="14" width="1" height="1" fill="#ffece7"/>
  <rect x="34" y="14" width="1" height="1" fill="#f0868c"/>
  <rect x="35" y="14" width="1" height="1" fill="#fb6c78"/>
  <rect x="36" y="14" width="1" height="1" fill="#f25c68"/>
  <rect x="37" y="14" width="1" height="1" fill="#df666a"/>
  <rect x="38" y="14" width="1" height="1" fill="#ffdbd2"/>
  <rect x="39" y="14" width="1" height="1" fill="#ffefe8"/>
  <rect x="40" y="14" width="1" height="1" fill="#ffebf3"/>
  <rect x="41" y="14" width="1" height="1" fill="#fff5ff"/>
  <rect x="42" y="14" width="1" height="1" fill="#ffe8f2"/>
  <rect x="43" y="14" width="1" height="1" fill="#f8a6ab"/>
  <rect x="44" y="14" width="1" height="1" fill="#cd767a"/>
  <rect x="45" y="14" width="1" height="1" fill="#ffc5c8"/>
  <rect x="46" y="14" width="1" height="1" fill="#fff2f3"/>
  <rect x="47" y="14" width="1" height="1" fill="#fbc2c3"/>
  <rect x="48" y="14" width="1" height="1" fill="#dc6a67"/>
  <rect x="49" y="14" width="1" height="1" fill="#f26563"/>
  <rect x="50" y="14" width="1" height="1" fill="#f66669"/>
  <rect x="51" y="14" width="1" height="1" fill="#f8656b"/>
  <rect x="52" y="14" width="1" height="1" fill="#f46168"/>
  <rect x="53" y="14" width="1" height="1" fill="#f16265"/>
  <rect x="54" y="14" width="1" height="2" fill="#f06361"/>
  <rect x="55" y="14" width="1" height="1" fill="#e07671"/>
  <rect x="56" y="14" width="1" height="1" fill="#fff4ee"/>
  <rect x="57" y="14" width="1" height="1" fill="#fff4ef"/>
  <rect x="58" y="14" width="1" height="1" fill="#f9aca8"/>
  <rect x="59" y="14" width="1" height="1" fill="#df706c"/>
  <rect x="60" y="14" width="1" height="1" fill="#e76962"/>
  <rect x="61" y="14" width="1" height="1" fill="#ee675e"/>
  <rect x="62" y="14" width="1" height="1" fill="#f1655e"/>
  <rect x="63" y="14" width="1" height="1" fill="#f46360"/>
  <rect x="20" y="15" width="8" height="1" fill="#f46264"/>
  <rect x="28" y="15" width="1" height="1" fill="#f26061"/>
  <rect x="31" y="15" width="1" height="1" fill="#ff9a99"/>
  <rect x="32" y="15" width="1" height="1" fill="#ffeee5"/>
  <rect x="33" y="15" width="1" height="1" fill="#ffeae2"/>
  <rect x="34" y="15" width="1" height="1" fill="#ef8589"/>
  <rect x="35" y="15" width="1" height="1" fill="#ee5f68"/>
  <rect x="36" y="15" width="1" height="1" fill="#eb5860"/>
  <rect x="37" y="15" width="1" height="1" fill="#e66d6f"/>
  <rect x="38" y="15" width="1" height="1" fill="#ffd9cb"/>
  <rect x="39" y="15" width="1" height="1" fill="#fff6eb"/>
  <rect x="40" y="15" width="1" height="1" fill="#fff3f8"/>
  <rect x="41" y="15" width="1" height="1" fill="#fff6ff"/>
  <rect x="42" y="15" width="1" height="1" fill="#fff7fe"/>
  <rect x="43" y="15" width="1" height="1" fill="#e9b0b3"/>
  <rect x="44" y="15" width="1" height="1" fill="#c6767a"/>
  <rect x="45" y="15" width="1" height="1" fill="#ffbdc2"/>
  <rect x="46" y="15" width="1" height="1" fill="#ffeff3"/>
  <rect x="47" y="15" width="1" height="1" fill="#ffcdce"/>
  <rect x="48" y="15" width="1" height="1" fill="#e0716d"/>
  <rect x="49" y="15" width="1" height="1" fill="#f56865"/>
  <rect x="50" y="15" width="1" height="1" fill="#f6656d"/>
  <rect x="51" y="15" width="1" height="1" fill="#f8646f"/>
  <rect x="52" y="15" width="1" height="1" fill="#f5626d"/>
  <rect x="53" y="15" width="1" height="1" fill="#f3626a"/>
  <rect x="55" y="15" width="1" height="1" fill="#da726c"/>
  <rect x="56" y="15" width="1" height="1" fill="#fff0ed"/>
  <rect x="57" y="15" width="1" height="1" fill="#fff4f3"/>
  <rect x="58" y="15" width="1" height="1" fill="#ffb6b9"/>
  <rect x="59" y="15" width="1" height="1" fill="#e37072"/>
  <rect x="60" y="15" width="1" height="1" fill="#e46a64"/>
  <rect x="61" y="15" width="1" height="1" fill="#eb685e"/>
  <rect x="62" y="15" width="1" height="1" fill="#ee675c"/>
  <rect x="63" y="15" width="1" height="1" fill="#f3645e"/>
  <rect x="64" y="15" width="1" height="1" fill="#f46264"/>
  <rect x="3" y="16" width="4" height="1" fill="#f46264"/>
  <rect x="7" y="16" width="22" height="1" fill="#f66164"/>
  <rect x="29" y="16" width="1" height="1" fill="#f76365"/>
  <rect x="30" y="16" width="1" height="1" fill="#f86466"/>
  <rect x="31" y="16" width="1" height="1" fill="#ea7b78"/>
  <rect x="32" y="16" width="1" height="1" fill="#ffecdf"/>
  <rect x="33" y="16" width="1" height="1" fill="#fff6ed"/>
  <rect x="34" y="16" width="1" height="1" fill="#ee8e93"/>
  <rect x="35" y="16" width="1" height="1" fill="#ef6a72"/>
  <rect x="36" y="16" width="1" height="1" fill="#ec6064"/>
  <rect x="37" y="16" width="1" height="1" fill="#e8625f"/>
  <rect x="38" y="16" width="1" height="1" fill="#e26f66"/>
  <rect x="39" y="16" width="1" height="1" fill="#c66a62"/>
  <rect x="40" y="16" width="1" height="1" fill="#b9747b"/>
  <rect x="41" y="16" width="1" height="1" fill="#ffe6f1"/>
  <rect x="42" y="16" width="1" height="1" fill="#fff2f3"/>
  <rect x="43" y="16" width="1" height="1" fill="#e4b3b1"/>
  <rect x="44" y="16" width="1" height="1" fill="#cf787d"/>
  <rect x="45" y="16" width="1" height="1" fill="#ffc4ca"/>
  <rect x="46" y="16" width="1" height="1" fill="#ffeef1"/>
  <rect x="47" y="16" width="1" height="1" fill="#ffd5d6"/>
  <rect x="48" y="16" width="1" height="1" fill="#d06564"/>
  <rect x="49" y="16" width="1" height="1" fill="#e75c5e"/>
  <rect x="50" y="16" width="1" height="1" fill="#f9636f"/>
  <rect x="51" y="16" width="1" height="1" fill="#f45969"/>
  <rect x="52" y="16" width="1" height="1" fill="#f95e6e"/>
  <rect x="53" y="16" width="1" height="1" fill="#f6606c"/>
  <rect x="54" y="16" width="1" height="1" fill="#f36869"/>
  <rect x="55" y="16" width="1" height="1" fill="#ea8482"/>
  <rect x="56" y="16" width="1" height="1" fill="#fff9f7"/>
  <rect x="57" y="16" width="1" height="1" fill="#ffe6ea"/>
  <rect x="58" y="16" width="1" height="1" fill="#fc95a3"/>
  <rect x="59" y="16" width="1" height="1" fill="#ee6a76"/>
  <rect x="60" y="16" width="1" height="1" fill="#ea6869"/>
  <rect x="61" y="16" width="1" height="1" fill="#ec6961"/>
  <rect x="62" y="16" width="1" height="1" fill="#ef685d"/>
  <rect x="63" y="16" width="1" height="2" fill="#f2665f"/>
  <rect x="64" y="16" width="1" height="6" fill="#f66262"/>
  <rect x="65" y="16" width="5" height="4" fill="#f76164"/>
  <rect x="74" y="16" width="15" height="8" fill="#f46264"/>
  <rect x="89" y="16" width="1" height="10" fill="#ed5b5d"/>
  <rect x="3" y="17" width="5" height="12" fill="#f46264"/>
  <rect x="8" y="17" width="22" height="1" fill="#f66164"/>
  <rect x="30" y="17" width="1" height="1" fill="#f66166"/>
  <rect x="31" y="17" width="1" height="1" fill="#e06f6c"/>
  <rect x="32" y="17" width="1" height="1" fill="#fff1e6"/>
  <rect x="33" y="17" width="1" height="1" fill="#fff5e8"/>
  <rect x="34" y="17" width="1" height="1" fill="#ffb9b5"/>
  <rect x="35" y="17" width="1" height="1" fill="#d96e70"/>
  <rect x="36" y="17" width="1" height="1" fill="#e56867"/>
  <rect x="37" y="17" width="1" height="1" fill="#f06866"/>
  <rect x="38" y="17" width="1" height="1" fill="#f86c65"/>
  <rect x="39" y="17" width="1" height="1" fill="#e86b68"/>
  <rect x="40" y="17" width="1" height="1" fill="#d0767d"/>
  <rect x="41" y="17" width="1" height="1" fill="#ffecf3"/>
  <rect x="42" y="17" width="1" height="1" fill="#fffbfa"/>
  <rect x="43" y="17" width="1" height="1" fill="#d8a6a2"/>
  <rect x="44" y="17" width="1" height="1" fill="#cd6a6e"/>
  <rect x="45" y="17" width="1" height="1" fill="#ffa3a8"/>
  <rect x="46" y="17" width="1" height="1" fill="#ffe9eb"/>
  <rect x="47" y="17" width="1" height="1" fill="#ffe9ea"/>
  <rect x="48" y="17" width="1" height="1" fill="#d87d7c"/>
  <rect x="49" y="17" width="1" height="1" fill="#e86d6d"/>
  <rect x="50" y="17" width="1" height="1" fill="#f1636a"/>
  <rect x="51" y="17" width="1" height="1" fill="#f75f6c"/>
  <rect x="52" y="17" width="1" height="1" fill="#fc6470"/>
  <rect x="53" y="17" width="1" height="1" fill="#f3656c"/>
  <rect x="54" y="17" width="1" height="1" fill="#e36869"/>
  <rect x="55" y="17" width="1" height="1" fill="#ffaead"/>
  <rect x="56" y="17" width="1" height="1" fill="#ffeceb"/>
  <rect x="57" y="17" width="1" height="1" fill="#ffe9ed"/>
  <rect x="58" y="17" width="1" height="1" fill="#ed7a8a"/>
  <rect x="59" y="17" width="1" height="1" fill="#f96b7b"/>
  <rect x="60" y="17" width="1" height="1" fill="#ed666b"/>
  <rect x="61" y="17" width="1" height="1" fill="#ed6863"/>
  <rect x="62" y="17" width="1" height="1" fill="#ef685f"/>
  <rect x="8" y="18" width="21" height="2" fill="#f66164"/>
  <rect x="29" y="18" width="1" height="2" fill="#f66166"/>
  <rect x="30" y="18" width="1" height="2" fill="#f66168"/>
  <rect x="31" y="18" width="1" height="1" fill="#e36a6c"/>
  <rect x="32" y="18" width="1" height="1" fill="#ffbdb1"/>
  <rect x="33" y="18" width="1" height="1" fill="#fff3e2"/>
  <rect x="34" y="18" width="1" height="1" fill="#fff1e0"/>
  <rect x="35" y="18" width="1" height="1" fill="#e6a495"/>
  <rect x="36" y="18" width="1" height="1" fill="#de746e"/>
  <rect x="37" y="18" width="1" height="1" fill="#df5b5a"/>
  <rect x="38" y="18" width="1" height="1" fill="#f26766"/>
  <rect x="39" y="18" width="1" height="1" fill="#e16666"/>
  <rect x="40" y="18" width="1" height="1" fill="#ca7579"/>
  <rect x="41" y="18" width="1" height="1" fill="#ffdadd"/>
  <rect x="42" y="18" width="1" height="1" fill="#fff5f1"/>
  <rect x="43" y="18" width="1" height="1" fill="#dea29d"/>
  <rect x="44" y="18" width="1" height="1" fill="#e27276"/>
  <rect x="45" y="18" width="1" height="1" fill="#de7276"/>
  <rect x="46" y="18" width="1" height="1" fill="#ffebec"/>
  <rect x="47" y="18" width="1" height="1" fill="#fff2ef"/>
  <rect x="48" y="18" width="1" height="1" fill="#ffcecb"/>
  <rect x="49" y="18" width="1" height="1" fill="#d57974"/>
  <rect x="50" y="18" width="1" height="1" fill="#e96c6b"/>
  <rect x="51" y="18" width="1" height="1" fill="#f66b6d"/>
  <rect x="52" y="18" width="1" height="1" fill="#e85d5f"/>
  <rect x="53" y="18" width="1" height="1" fill="#e46665"/>
  <rect x="54" y="18" width="1" height="1" fill="#e28680"/>
  <rect x="55" y="18" width="1" height="1" fill="#ffd7d3"/>
  <rect x="56" y="18" width="1" height="1" fill="#ffeeeb"/>
  <rect x="57" y="18" width="1" height="1" fill="#ffc1c4"/>
  <rect x="58" y="18" width="1" height="1" fill="#e06775"/>
  <rect x="59" y="18" width="1" height="1" fill="#f76574"/>
  <rect x="60" y="18" width="1" height="1" fill="#f1656b"/>
  <rect x="61" y="18" width="1" height="1" fill="#ef6765"/>
  <rect x="62" y="18" width="1" height="1" fill="#f16761"/>
  <rect x="63" y="18" width="1" height="1" fill="#f4655f"/>
  <rect x="31" y="19" width="1" height="1" fill="#eb666a"/>
  <rect x="32" y="19" width="1" height="1" fill="#d4736d"/>
  <rect x="33" y="19" width="1" height="1" fill="#ffddce"/>
  <rect x="34" y="19" width="1" height="1" fill="#fff9e5"/>
  <rect x="35" y="19" width="1" height="1" fill="#fff0df"/>
  <rect x="36" y="19" width="1" height="1" fill="#ffbdb7"/>
  <rect x="37" y="19" width="1" height="1" fill="#d47678"/>
  <rect x="38" y="19" width="1" height="1" fill="#d56d73"/>
  <rect x="39" y="19" width="1" height="1" fill="#cd6f74"/>
  <rect x="40" y="19" width="1" height="1" fill="#ffbfbf"/>
  <rect x="41" y="19" width="1" height="1" fill="#ffedeb"/>
  <rect x="42" y="19" width="1" height="1" fill="#fff0ed"/>
  <rect x="43" y="19" width="1" height="1" fill="#ec9a98"/>
  <rect x="44" y="19" width="1" height="1" fill="#e86b6c"/>
  <rect x="45" y="19" width="1" height="1" fill="#e56c70"/>
  <rect x="46" y="19" width="1" height="1" fill="#ffb6bb"/>
  <rect x="47" y="19" width="1" height="1" fill="#ffe9ea"/>
  <rect x="48" y="19" width="1" height="1" fill="#ffeae5"/>
  <rect x="49" y="19" width="1" height="1" fill="#ffd2ca"/>
  <rect x="50" y="19" width="1" height="1" fill="#e18a83"/>
  <rect x="51" y="19" width="1" height="1" fill="#d26f69"/>
  <rect x="52" y="19" width="1" height="1" fill="#d7736e"/>
  <rect x="53" y="19" width="1" height="1" fill="#fba39c"/>
  <rect x="54" y="19" width="1" height="1" fill="#ffdfd7"/>
  <rect x="55" y="19" width="1" height="1" fill="#ffe2da"/>
  <rect x="56" y="19" width="1" height="1" fill="#ffe1de"/>
  <rect x="57" y="19" width="1" height="1" fill="#d67c7f"/>
  <rect x="58" y="19" width="1" height="1" fill="#ea6874"/>
  <rect x="59" y="19" width="1" height="1" fill="#ec5964"/>
  <rect x="60" y="19" width="1" height="1" fill="#f46369"/>
  <rect x="61" y="19" width="1" height="1" fill="#f26565"/>
  <rect x="62" y="19" width="1" height="1" fill="#f26661"/>
  <rect x="63" y="19" width="1" height="1" fill="#f46561"/>
  <rect x="8" y="20" width="22" height="1" fill="#f66164"/>
  <rect x="30" y="20" width="1" height="1" fill="#f66166"/>
  <rect x="31" y="20" width="1" height="1" fill="#f36366"/>
  <rect x="32" y="20" width="1" height="1" fill="#ed6968"/>
  <rect x="33" y="20" width="1" height="1" fill="#ec827c"/>
  <rect x="34" y="20" width="1" height="1" fill="#ffd5cd"/>
  <rect x="35" y="20" width="1" height="1" fill="#ffece2"/>
  <rect x="36" y="20" width="1" height="1" fill="#fff5f0"/>
  <rect x="37" y="20" width="1" height="1" fill="#fff5f8"/>
  <rect x="38" y="20" width="1" height="1" fill="#fff2fe"/>
  <rect x="39" y="20" width="1" height="1" fill="#fff2fa"/>
  <rect x="40" y="20" width="1" height="1" fill="#fff4ef"/>
  <rect x="41" y="20" width="1" height="1" fill="#fff0e7"/>
  <rect x="42" y="20" width="1" height="1" fill="#ffbebf"/>
  <rect x="43" y="20" width="1" height="1" fill="#e17174"/>
  <rect x="44" y="20" width="1" height="1" fill="#ed6767"/>
  <rect x="45" y="20" width="1" height="1" fill="#ea6164"/>
  <rect x="46" y="20" width="1" height="1" fill="#e77582"/>
  <rect x="47" y="20" width="1" height="1" fill="#ffa9b5"/>
  <rect x="48" y="20" width="1" height="1" fill="#fff3ed"/>
  <rect x="49" y="20" width="1" height="1" fill="#ffebdf"/>
  <rect x="50" y="20" width="1" height="1" fill="#fff0ea"/>
  <rect x="51" y="20" width="1" height="1" fill="#ffede9"/>
  <rect x="52" y="20" width="1" height="1" fill="#ffe9e4"/>
  <rect x="53" y="20" width="1" height="1" fill="#fff0ea"/>
  <rect x="54" y="20" width="1" height="1" fill="#fff1e5"/>
  <rect x="55" y="20" width="1" height="1" fill="#ffe6db"/>
  <rect x="56" y="20" width="1" height="1" fill="#ea948f"/>
  <rect x="57" y="20" width="1" height="1" fill="#dd6e6f"/>
  <rect x="58" y="20" width="1" height="1" fill="#ec6066"/>
  <rect x="59" y="20" width="1" height="1" fill="#f65f67"/>
  <rect x="60" y="20" width="1" height="1" fill="#f76365"/>
  <rect x="61" y="20" width="1" height="1" fill="#f56463"/>
  <rect x="62" y="20" width="2" height="2" fill="#f46563"/>
  <rect x="65" y="20" width="1" height="2" fill="#f76162"/>
  <rect x="66" y="20" width="4" height="2" fill="#f76164"/>
  <rect x="8" y="21" width="23" height="4" fill="#f66164"/>
  <rect x="31" y="21" width="1" height="1" fill="#f46264"/>
  <rect x="32" y="21" width="1" height="1" fill="#f66767"/>
  <rect x="33" y="21" width="1" height="1" fill="#ec6d6c"/>
  <rect x="34" y="21" width="1" height="1" fill="#cb6966"/>
  <rect x="35" y="21" width="1" height="1" fill="#ffbfbc"/>
  <rect x="36" y="21" width="1" height="1" fill="#ffede9"/>
  <rect x="37" y="21" width="1" height="1" fill="#ffeff1"/>
  <rect x="38" y="21" width="1" height="1" fill="#ffedf7"/>
  <rect x="39" y="21" width="1" height="1" fill="#ffecf3"/>
  <rect x="40" y="21" width="1" height="1" fill="#ffcec9"/>
  <rect x="41" y="21" width="1" height="1" fill="#eaa099"/>
  <rect x="42" y="21" width="1" height="1" fill="#e27278"/>
  <rect x="43" y="21" width="1" height="1" fill="#f46d74"/>
  <rect x="44" y="21" width="1" height="1" fill="#f46362"/>
  <rect x="45" y="21" width="1" height="1" fill="#fd686d"/>
  <rect x="46" y="21" width="1" height="1" fill="#f16375"/>
  <rect x="47" y="21" width="1" height="1" fill="#ea7384"/>
  <rect x="48" y="21" width="1" height="1" fill="#de8c8a"/>
  <rect x="49" y="21" width="1" height="1" fill="#fdc3bc"/>
  <rect x="50" y="21" width="1" height="1" fill="#ffe9e4"/>
  <rect x="51" y="21" width="1" height="1" fill="#ffeeeb"/>
  <rect x="52" y="21" width="1" height="1" fill="#ffe9e6"/>
  <rect x="53" y="21" width="1" height="1" fill="#ffece7"/>
  <rect x="54" y="21" width="1" height="1" fill="#fbc2b7"/>
  <rect x="55" y="21" width="1" height="1" fill="#cc7e74"/>
  <rect x="56" y="21" width="1" height="1" fill="#dc6f6b"/>
  <rect x="57" y="21" width="1" height="1" fill="#e76362"/>
  <rect x="58" y="21" width="1" height="1" fill="#f36165"/>
  <rect x="59" y="21" width="1" height="1" fill="#fa6165"/>
  <rect x="60" y="21" width="1" height="1" fill="#fa6163"/>
  <rect x="61" y="21" width="1" height="1" fill="#f76363"/>
  <rect x="31" y="22" width="1" height="1" fill="#f16263"/>
  <rect x="32" y="22" width="1" height="1" fill="#ed6465"/>
  <rect x="33" y="22" width="1" height="1" fill="#ec6867"/>
  <rect x="34" y="22" width="1" height="1" fill="#e36162"/>
  <rect x="35" y="22" width="1" height="1" fill="#e56769"/>
  <rect x="36" y="22" width="1" height="1" fill="#e16c6d"/>
  <rect x="37" y="22" width="1" height="1" fill="#df6f70"/>
  <rect x="38" y="22" width="1" height="1" fill="#df6e72"/>
  <rect x="39" y="22" width="1" height="1" fill="#db6d70"/>
  <rect x="40" y="22" width="1" height="1" fill="#d86b6b"/>
  <rect x="41" y="22" width="1" height="1" fill="#e26b6f"/>
  <rect x="42" y="22" width="1" height="1" fill="#ed606b"/>
  <rect x="43" y="22" width="1" height="1" fill="#ef545f"/>
  <rect x="44" y="22" width="1" height="1" fill="#f6595a"/>
  <rect x="45" y="22" width="1" height="1" fill="#ff6368"/>
  <rect x="46" y="22" width="1" height="1" fill="#ff667a"/>
  <rect x="47" y="22" width="1" height="1" fill="#ec5e72"/>
  <rect x="48" y="22" width="1" height="1" fill="#e5666d"/>
  <rect x="49" y="22" width="1" height="1" fill="#e36d6c"/>
  <rect x="50" y="22" width="1" height="1" fill="#de6766"/>
  <rect x="51" y="22" width="1" height="1" fill="#e66f6e"/>
  <rect x="52" y="22" width="1" height="1" fill="#df6867"/>
  <rect x="53" y="22" width="1" height="1" fill="#e16b68"/>
  <rect x="54" y="22" width="1" height="1" fill="#e36e6a"/>
  <rect x="55" y="22" width="1" height="1" fill="#e66966"/>
  <rect x="56" y="22" width="1" height="1" fill="#ed6261"/>
  <rect x="57" y="22" width="1" height="1" fill="#f36161"/>
  <rect x="58" y="22" width="1" height="1" fill="#f96263"/>
  <rect x="59" y="22" width="2" height="2" fill="#fa6163"/>
  <rect x="61" y="22" width="1" height="1" fill="#f96263"/>
  <rect x="62" y="22" width="2" height="1" fill="#f46465"/>
  <rect x="64" y="22" width="1" height="4" fill="#f46264"/>
  <rect x="65" y="22" width="9" height="2" fill="#f66164"/>
  <rect x="31" y="23" width="1" height="1" fill="#f56566"/>
  <rect x="32" y="23" width="1" height="1" fill="#ef6667"/>
  <rect x="33" y="23" width="1" height="1" fill="#e96061"/>
  <rect x="34" y="23" width="1" height="1" fill="#f56365"/>
  <rect x="35" y="23" width="1" height="1" fill="#f96265"/>
  <rect x="36" y="23" width="1" height="1" fill="#f96263"/>
  <rect x="37" y="23" width="1" height="1" fill="#f76162"/>
  <rect x="38" y="23" width="1" height="1" fill="#f66262"/>
  <rect x="39" y="23" width="1" height="1" fill="#f36163"/>
  <rect x="40" y="23" width="1" height="1" fill="#f06267"/>
  <rect x="41" y="23" width="1" height="1" fill="#f3626a"/>
  <rect x="42" y="23" width="1" height="1" fill="#f95f6a"/>
  <rect x="43" y="23" width="1" height="1" fill="#fb5c67"/>
  <rect x="44" y="23" width="1" height="1" fill="#fa5b5c"/>
  <rect x="45" y="23" width="1" height="1" fill="#f85a5d"/>
  <rect x="46" y="23" width="1" height="1" fill="#fa5f6f"/>
  <rect x="47" y="23" width="1" height="1" fill="#f75e70"/>
  <rect x="48" y="23" width="1" height="1" fill="#f46168"/>
  <rect x="49" y="23" width="1" height="1" fill="#f96768"/>
  <rect x="50" y="23" width="1" height="1" fill="#fa6261"/>
  <rect x="51" y="23" width="1" height="1" fill="#ff6464"/>
  <rect x="52" y="23" width="1" height="1" fill="#ff6665"/>
  <rect x="53" y="23" width="1" height="1" fill="#f75e5d"/>
  <rect x="54" y="23" width="1" height="1" fill="#f15f5e"/>
  <rect x="55" y="23" width="1" height="1" fill="#f76564"/>
  <rect x="56" y="23" width="1" height="1" fill="#f66061"/>
  <rect x="57" y="23" width="1" height="1" fill="#fa6163"/>
  <rect x="58" y="23" width="1" height="1" fill="#fa6261"/>
  <rect x="61" y="23" width="1" height="1" fill="#f96265"/>
  <rect x="62" y="23" width="1" height="1" fill="#f56365"/>
  <rect x="63" y="23" width="1" height="1" fill="#f46465"/>
  <rect x="31" y="24" width="1" height="1" fill="#f46264"/>
  <rect x="32" y="24" width="1" height="1" fill="#f46465"/>
  <rect x="33" y="24" width="1" height="1" fill="#f36364"/>
  <rect x="34" y="24" width="6" height="1" fill="#f66164"/>
  <rect x="40" y="24" width="1" height="1" fill="#f46266"/>
  <rect x="41" y="24" width="1" height="1" fill="#f46168"/>
  <rect x="42" y="24" width="1" height="1" fill="#f76068"/>
  <rect x="43" y="24" width="1" height="1" fill="#f76066"/>
  <rect x="44" y="24" width="2" height="1" fill="#f66061"/>
  <rect x="46" y="24" width="1" height="1" fill="#f35f63"/>
  <rect x="47" y="24" width="1" height="1" fill="#f56065"/>
  <rect x="48" y="24" width="1" height="1" fill="#f56365"/>
  <rect x="49" y="24" width="1" height="1" fill="#f56463"/>
  <rect x="50" y="24" width="4" height="1" fill="#f76363"/>
  <rect x="54" y="24" width="2" height="1" fill="#f56365"/>
  <rect x="56" y="24" width="2" height="1" fill="#f76365"/>
  <rect x="58" y="24" width="1" height="1" fill="#f76363"/>
  <rect x="59" y="24" width="1" height="1" fill="#f96263"/>
  <rect x="60" y="24" width="1" height="1" fill="#fa6165"/>
  <rect x="61" y="24" width="1" height="1" fill="#f96167"/>
  <rect x="62" y="24" width="1" height="1" fill="#f56367"/>
  <rect x="63" y="24" width="1" height="1" fill="#f46467"/>
  <rect x="65" y="24" width="5" height="2" fill="#f66164"/>
  <rect x="70" y="24" width="19" height="2" fill="#f46264"/>
  <rect x="8" y="25" width="32" height="1" fill="#f66164"/>
  <rect x="40" y="25" width="3" height="1" fill="#f66166"/>
  <rect x="43" y="25" width="1" height="1" fill="#f66164"/>
  <rect x="44" y="25" width="2" height="1" fill="#f36161"/>
  <rect x="46" y="25" width="4" height="1" fill="#f46362"/>
  <rect x="50" y="25" width="2" height="2" fill="#f56463"/>
  <rect x="52" y="25" width="4" height="2" fill="#f56365"/>
  <rect x="56" y="25" width="2" height="1" fill="#f56367"/>
  <rect x="58" y="25" width="2" height="1" fill="#f76365"/>
  <rect x="60" y="25" width="2" height="1" fill="#f96167"/>
  <rect x="62" y="25" width="2" height="2" fill="#f56367"/>
  <rect x="0" y="26" width="1" height="1" fill="#ec5a5cf1"/>
  <rect x="8" y="26" width="36" height="1" fill="#f66164"/>
  <rect x="44" y="26" width="2" height="1" fill="#f36163"/>
  <rect x="46" y="26" width="2" height="1" fill="#f46264"/>
  <rect x="48" y="26" width="2" height="1" fill="#f46362"/>
  <rect x="56" y="26" width="3" height="1" fill="#f56367"/>
  <rect x="59" y="26" width="3" height="1" fill="#f76267"/>
  <rect x="64" y="26" width="4" height="1" fill="#f46266"/>
  <rect x="68" y="26" width="21" height="2" fill="#f46264"/>
  <rect x="89" y="26" width="1" height="1" fill="#ed5b5df3"/>
  <rect x="0" y="27" width="1" height="1" fill="#ec5a5cad"/>
  <rect x="8" y="27" width="24" height="2" fill="#f66164"/>
  <rect x="32" y="27" width="12" height="1" fill="#f76365"/>
  <rect x="44" y="27" width="4" height="1" fill="#f46264"/>
  <rect x="48" y="27" width="2" height="1" fill="#f56463"/>
  <rect x="50" y="27" width="2" height="1" fill="#f76564"/>
  <rect x="52" y="27" width="4" height="1" fill="#f76566"/>
  <rect x="56" y="27" width="4" height="1" fill="#f76468"/>
  <rect x="60" y="27" width="2" height="1" fill="#f86368"/>
  <rect x="62" y="27" width="4" height="1" fill="#f56367"/>
  <rect x="66" y="27" width="2" height="1" fill="#f46266"/>
  <rect x="89" y="27" width="1" height="1" fill="#ed5b5dad"/>
  <rect x="0" y="28" width="1" height="1" fill="#ec5a5c28"/>
  <rect x="1" y="28" width="1" height="1" fill="#ed5b5def"/>
  <rect x="2" y="28" width="1" height="1" fill="#f05e5f"/>
  <rect x="32" y="28" width="12" height="1" fill="#f56063"/>
  <rect x="44" y="28" width="2" height="1" fill="#f26061"/>
  <rect x="46" y="28" width="2" height="1" fill="#f36163"/>
  <rect x="48" y="28" width="4" height="1" fill="#f46362"/>
  <rect x="52" y="28" width="4" height="1" fill="#f46264"/>
  <rect x="56" y="28" width="4" height="1" fill="#f46266"/>
  <rect x="60" y="28" width="4" height="1" fill="#f66166"/>
  <rect x="64" y="28" width="4" height="1" fill="#f46266"/>
  <rect x="68" y="28" width="20" height="1" fill="#f46264"/>
  <rect x="88" y="28" width="1" height="1" fill="#ee5c5eef"/>
  <rect x="89" y="28" width="1" height="1" fill="#ee5c5e28"/>
  <rect x="1" y="29" width="1" height="1" fill="#ec5a5c27"/>
  <rect x="2" y="29" width="1" height="1" fill="#ec5a5cad"/>
  <rect x="3" y="29" width="1" height="1" fill="#ed5b5df2"/>
  <rect x="4" y="29" width="4" height="1" fill="#ed5b5d"/>
  <rect x="8" y="29" width="36" height="1" fill="#ef5a5d"/>
  <rect x="44" y="29" width="2" height="1" fill="#ec5a5c"/>
  <rect x="46" y="29" width="2" height="1" fill="#ed5b5d"/>
  <rect x="48" y="29" width="2" height="1" fill="#ed5c5b"/>
  <rect x="50" y="29" width="2" height="1" fill="#ee5d5c"/>
  <rect x="52" y="29" width="4" height="1" fill="#ee5c5e"/>
  <rect x="56" y="29" width="4" height="1" fill="#ee5c60"/>
  <rect x="60" y="29" width="4" height="1" fill="#f05b60"/>
  <rect x="64" y="29" width="4" height="1" fill="#ed5b5f"/>
  <rect x="68" y="29" width="18" height="1" fill="#ed5b5d"/>
  <rect x="86" y="29" width="1" height="1" fill="#ed5b5df2"/>
  <rect x="87" y="29" width="1" height="1" fill="#ed5b5dad"/>
  <rect x="88" y="29" width="1" height="1" fill="#ee5c5e27"/>
</svg>