<svg xmlns="http://www.w3.org/2000/svg" width="74" height="23" viewBox="0 0 74 23" shape-rendering="crispEdges">
  <rect x="0" y="0" width="1" height="1" fill="#fafafa25"/>
  <rect x="1" y="0" width="1" height="1" fill="#fafafaad"/>
  <rect x="2" y="0" width="1" height="1" fill="#fafafaf1"/>
  <rect x="3" y="0" width="69" height="1" fill="#fafafa"/>
  <rect x="72" y="0" width="1" height="3" fill="#f7f7f7"/>
  <rect x="73" y="0" width="1" height="3" fill="#d2d2d2"/>
  <rect x="0" y="1" width="1" height="1" fill="#fafafaef"/>
  <rect x="1" y="1" width="71" height="1" fill="#fafafa"/>
  <rect x="0" y="2" width="72" height="1" fill="#fafafa"/>
  <rect x="0" y="3" width="72" height="1" fill="#f9f9f9"/>
  <rect x="72" y="3" width="1" height="2" fill="#f6f6f6"/>
  <rect x="73" y="3" width="1" height="2" fill="#d0d0d0"/>
  <rect x="0" y="4" width="16" height="1" fill="#f8f8f8"/>
  <rect x="16" y="4" width="56" height="1" fill="#f9f9f9"/>
  <rect x="0" y="5" width="16" height="2" fill="#f7f7f7"/>
  <rect x="16" y="5" width="56" height="2" fill="#f8f8f8"/>
  <rect x="72" y="5" width="1" height="3" fill="#f5f5f5"/>
  <rect x="73" y="5" width="1" height="3" fill="#cfcfcf"/>
  <rect x="0" y="7" width="72" height="1" fill="#f7f7f7"/>
  <rect x="0" y="8" width="16" height="1" fill="#f6f6f6"/>
  <rect x="16" y="8" width="56" height="1" fill="#f7f7f7"/>
  <rect x="72" y="8" width="1" height="1" fill="#f6f6f6"/>
  <rect x="73" y="8" width="1" height="3" fill="#d0d0d0"/>
  <rect x="0" y="9" width="73" height="2" fill="#f6f6f6"/>
  <rect x="0" y="11" width="73" height="1" fill="#f5f5f5"/>
  <rect x="73" y="11" width="1" height="2" fill="#cfcfcf"/>
  <rect x="0" y="12" width="16" height="1" fill="#f3f3f3"/>
  <rect x="16" y="12" width="57" height="1" fill="#f5f5f5"/>
  <rect x="0" y="13" width="16" height="1" fill="#f2f2f2"/>
  <rect x="16" y="13" width="56" height="1" fill="#f3f3f3"/>
  <rect x="72" y="13" width="1" height="1" fill="#f2f2f2"/>
  <rect x="73" y="13" width="1" height="1" fill="#cecece"/>
  <rect x="0" y="14" width="16" height="2" fill="#f1f1f1"/>
  <rect x="16" y="14" width="57" height="1" fill="#f2f2f2"/>
  <rect x="73" y="14" width="1" height="4" fill="#cdcdcd"/>
  <rect x="16" y="15" width="56" height="1" fill="#f2f2f2"/>
  <rect x="72" y="15" width="1" height="1" fill="#f1f1f1"/>
  <rect x="0" y="16" width="72" height="2" fill="#f1f1f1"/>
  <rect x="72" y="16" width="1" height="1" fill="#f0f0f0"/>
  <rect x="72" y="17" width="1" height="2" fill="#efefef"/>
  <rect x="0" y="18" width="72" height="1" fill="#f0f0f0"/>
  <rect x="73" y="18" width="1" height="2" fill="#cccccc"/>
  <rect x="0" y="19" width="16" height="2" fill="#efefef"/>
  <rect x="16" y="19" width="48" height="1" fill="#f0f0f0"/>
  <rect x="64" y="19" width="8" height="1" fill="#efefef"/>
  <rect x="72" y="19" width="1" height="1" fill="#eeeeee"/>
  <rect x="16" y="20" width="48" height="1" fill="#eeeeee"/>
  <rect x="64" y="20" width="9" height="1" fill="#efefef"/>
  <rect x="73" y="20" width="1" height="3" fill="#cdcdcd"/>
  <rect x="0" y="21" width="1" height="1" fill="#eeeeeeef"/>
  <rect x="1" y="21" width="71" height="1" fill="#eeeeee"/>
  <rect x="72" y="21" width="1" height="2" fill="#efefef"/>
  <rect x="0" y="22" width="1" height="1" fill="#eeeeee27"/>
  <rect x="1" y="22" width="1" height="1" fill="#eeeeeead"/>
  <rect x="2" y="22" width="1" height="1" fill="#eeeeeef2"/>
  <rect x="3" y="22" width="69" height="1" fill="#eeeeee"/>
</svg>