<svg xmlns="http://www.w3.org/2000/svg" width="240" height="80" viewBox="0 0 240 80" shape-rendering="crispEdges">
  <rect x="81" y="1" width="1" height="1" fill="#dcdcdc49"/>
  <rect x="82" y="1" width="1" height="1" fill="#d3d3d3e6"/>
  <rect x="83" y="1" width="1" height="1" fill="#d3d3d3"/>
  <rect x="84" y="1" width="4" height="1" fill="#d6d6d6"/>
  <rect x="88" y="1" width="8" height="1" fill="#cccccc"/>
  <rect x="96" y="1" width="56" height="1" fill="#cdcdcb"/>
  <rect x="152" y="1" width="4" height="1" fill="#d6d7d4"/>
  <rect x="156" y="1" width="1" height="1" fill="#d3d3d1"/>
  <rect x="157" y="1" width="1" height="1" fill="#cccccae6"/>
  <rect x="158" y="1" width="1" height="1" fill="#d4d4d249"/>
  <rect x="161" y="1" width="1" height="1" fill="#d2d2d049"/>
  <rect x="162" y="1" width="1" height="1" fill="#d5d5d3e6"/>
  <rect x="163" y="1" width="4" height="1" fill="#d5d5d3"/>
  <rect x="167" y="1" width="1" height="1" fill="#d4d4d2"/>
  <rect x="168" y="1" width="1" height="1" fill="#d3d3d1"/>
  <rect x="169" y="1" width="7" height="1" fill="#d2d2d0"/>
  <rect x="176" y="1" width="60" height="1" fill="#d3d3d1"/>
  <rect x="236" y="1" width="1" height="1" fill="#d4d4d2"/>
  <rect x="237" y="1" width="1" height="1" fill="#cdcdcbe6"/>
  <rect x="238" y="1" width="1" height="1" fill="#d4d4d249"/>
  <rect x="81" y="2" width="1" height="1" fill="#d3d3d3e6"/>
  <rect x="82" y="2" width="1" height="1" fill="#e9e9e9"/>
  <rect x="83" y="2" width="1" height="1" fill="#f7f7f7"/>
  <rect x="84" y="2" width="4" height="1" fill="#fafafa"/>
  <rect x="88" y="2" width="8" height="1" fill="#fcfbfc"/>
  <rect x="96" y="2" width="56" height="2" fill="#fdfdfb"/>
  <rect x="152" y="2" width="4" height="2" fill="#fcfcf9"/>
  <rect x="156" y="2" width="1" height="2" fill="#fafbf8"/>
  <rect x="157" y="2" width="1" height="1" fill="#e8e8e6"/>
  <rect x="158" y="2" width="1" height="1" fill="#d4d4d2e6"/>
  <rect x="161" y="2" width="1" height="1" fill="#d0d1cee6"/>
  <rect x="162" y="2" width="1" height="1" fill="#eeeeec"/>
  <rect x="163" y="2" width="4" height="1" fill="#fafbf8"/>
  <rect x="167" y="2" width="1" height="1" fill="#f9faf7"/>
  <rect x="168" y="2" width="1" height="1" fill="#f8f8f6"/>
  <rect x="169" y="2" width="7" height="1" fill="#f7f7f5"/>
  <rect x="176" y="2" width="60" height="1" fill="#f8f8f6"/>
  <rect x="236" y="2" width="1" height="1" fill="#fcfcf9"/>
  <rect x="237" y="2" width="1" height="1" fill="#e8e8e6"/>
  <rect x="238" y="2" width="1" height="1" fill="#d5d5d3e6"/>
  <rect x="81" y="3" width="1" height="1" fill="#d3d3d3"/>
  <rect x="82" y="3" width="1" height="1" fill="#f7f7f7"/>
  <rect x="83" y="3" width="1" height="1" fill="#f6f6f6"/>
  <rect x="84" y="3" width="2" height="1" fill="#f9f9f9"/>
  <rect x="86" y="3" width="4" height="1" fill="#fafafa"/>
  <rect x="90" y="3" width="6" height="1" fill="#fcfbfc"/>
  <rect x="157" y="3" width="1" height="1" fill="#f3f4f1"/>
  <rect x="158" y="3" width="1" height="1" fill="#d4d4d2"/>
  <rect x="161" y="3" width="1" height="1" fill="#d0d1ce"/>
  <rect x="162" y="3" width="1" height="1" fill="#fafbf8"/>
  <rect x="163" y="3" width="3" height="1" fill="#f9faf7"/>
  <rect x="166" y="3" width="2" height="1" fill="#fafbf8"/>
  <rect x="168" y="3" width="2" height="1" fill="#fcfcf9"/>
  <rect x="170" y="3" width="6" height="1" fill="#fdfdfb"/>
  <rect x="176" y="3" width="60" height="1" fill="#fefefc"/>
  <rect x="236" y="3" width="1" height="1" fill="#f9faf7"/>
  <rect x="237" y="3" width="1" height="1" fill="#f2f3f0"/>
  <rect x="238" y="3" width="1" height="1" fill="#d3d3d1"/>
  <rect x="81" y="4" width="1" height="4" fill="#d6d6d6"/>
  <rect x="82" y="4" width="1" height="2" fill="#fafafa"/>
  <rect x="83" y="4" width="1" height="2" fill="#f9f9f9"/>
  <rect x="84" y="4" width="12" height="2" fill="#fdfdfd"/>
  <rect x="96" y="4" width="60" height="5" fill="#fcfcf9"/>
  <rect x="156" y="4" width="1" height="3" fill="#fefefc"/>
  <rect x="157" y="4" width="1" height="4" fill="#fafbf8"/>
  <rect x="158" y="4" width="1" height="2" fill="#cdcdcb"/>
  <rect x="161" y="4" width="1" height="2" fill="#cfd0cd"/>
  <rect x="162" y="4" width="1" height="3" fill="#fefefc"/>
  <rect x="163" y="4" width="1" height="3" fill="#fffffd"/>
  <rect x="164" y="4" width="12" height="4" fill="#fdfdfb"/>
  <rect x="176" y="4" width="60" height="3" fill="#fcfcf9"/>
  <rect x="236" y="4" width="1" height="3" fill="#fdfdfb"/>
  <rect x="237" y="4" width="1" height="4" fill="#fafbf8"/>
  <rect x="238" y="4" width="1" height="2" fill="#cdcdcb"/>
  <rect x="82" y="6" width="2" height="2" fill="#fafafa"/>
  <rect x="84" y="6" width="4" height="2" fill="#fdfdfd"/>
  <rect x="88" y="6" width="8" height="2" fill="#fdfdfb"/>
  <rect x="158" y="6" width="1" height="1" fill="#cececc"/>
  <rect x="161" y="6" width="1" height="2" fill="#d0d1ce"/>
  <rect x="238" y="6" width="1" height="1" fill="#cececc"/>
  <rect x="156" y="7" width="1" height="2" fill="#fdfdfb"/>
  <rect x="158" y="7" width="1" height="1" fill="#cfd0cd"/>
  <rect x="162" y="7" width="2" height="1" fill="#fefefc"/>
  <rect x="176" y="7" width="61" height="1" fill="#fcfcf9"/>
  <rect x="238" y="7" width="1" height="1" fill="#cfd0cd"/>
  <rect x="81" y="8" width="1" height="8" fill="#cccccc"/>
  <rect x="82" y="8" width="1" height="2" fill="#fcfbfc"/>
  <rect x="83" y="8" width="1" height="2" fill="#fafafa"/>
  <rect x="84" y="8" width="2" height="8" fill="#fdfdfd"/>
  <rect x="86" y="8" width="4" height="2" fill="#fdfdfb"/>
  <rect x="90" y="8" width="6" height="2" fill="#fdfdf9"/>
  <rect x="157" y="8" width="1" height="1" fill="#fcfcf9"/>
  <rect x="158" y="8" width="1" height="1" fill="#d0d1ce"/>
  <rect x="161" y="8" width="1" height="2" fill="#d2d2d0"/>
  <rect x="162" y="8" width="1" height="8" fill="#fefefc"/>
  <rect x="163" y="8" width="13" height="1" fill="#fdfdfb"/>
  <rect x="176" y="8" width="62" height="1" fill="#fcfcf9"/>
  <rect x="238" y="8" width="1" height="1" fill="#d0d1ce"/>
  <rect x="96" y="9" width="62" height="1" fill="#fcfcf9"/>
  <rect x="158" y="9" width="1" height="1" fill="#d2d2d0"/>
  <rect x="163" y="9" width="1" height="7" fill="#fcfcf9"/>
  <rect x="164" y="9" width="12" height="7" fill="#fdfdfb"/>
  <rect x="176" y="9" width="60" height="7" fill="#fcfcf9"/>
  <rect x="236" y="9" width="1" height="61" fill="#fafbf8"/>
  <rect x="237" y="9" width="1" height="61" fill="#fcfcf9"/>
  <rect x="238" y="9" width="1" height="1" fill="#d2d2d0"/>
  <rect x="82" y="10" width="2" height="6" fill="#fcfbfc"/>
  <rect x="86" y="10" width="2" height="6" fill="#fdfdfb"/>
  <rect x="88" y="10" width="3" height="1" fill="#fdfdf9"/>
  <rect x="91" y="10" width="1" height="1" fill="#fdfef7"/>
  <rect x="92" y="10" width="4" height="2" fill="#fdfdf9"/>
  <rect x="96" y="10" width="4" height="6" fill="#fcfcf7"/>
  <rect x="100" y="10" width="58" height="6" fill="#fcfcf9"/>
  <rect x="158" y="10" width="1" height="61" fill="#d3d3d1"/>
  <rect x="161" y="10" width="1" height="6" fill="#d3d3d1"/>
  <rect x="238" y="10" width="1" height="61" fill="#d3d3d1"/>
  <rect x="88" y="11" width="2" height="1" fill="#fdfdf9"/>
  <rect x="90" y="11" width="2" height="1" fill="#fdfef7"/>
  <rect x="88" y="12" width="8" height="4" fill="#fdfdf9"/>
  <rect x="81" y="16" width="1" height="56" fill="#cdcdcb"/>
  <rect x="82" y="16" width="2" height="55" fill="#fdfdfb"/>
  <rect x="84" y="16" width="6" height="4" fill="#fcfcf9"/>
  <rect x="90" y="16" width="2" height="4" fill="#fcfcf7"/>
  <rect x="92" y="16" width="66" height="4" fill="#fcfcf9"/>
  <rect x="161" y="16" width="1" height="55" fill="#d2d2d0"/>
  <rect x="162" y="16" width="1" height="56" fill="#fdfdfb"/>
  <rect x="163" y="16" width="1" height="54" fill="#fafbf8"/>
  <rect x="164" y="16" width="72" height="54" fill="#fcfcf9"/>
  <rect x="84" y="20" width="74" height="50" fill="#fcfcf9"/>
  <rect x="84" y="70" width="72" height="1" fill="#fcfcf9"/>
  <rect x="156" y="70" width="1" height="4" fill="#fdfdfb"/>
  <rect x="157" y="70" width="1" height="2" fill="#fcfcf9"/>
  <rect x="163" y="70" width="74" height="2" fill="#fcfcf9"/>
  <rect x="237" y="70" width="1" height="2" fill="#fdfdfb"/>
  <rect x="82" y="71" width="1" height="1" fill="#fdfdfb"/>
  <rect x="83" y="71" width="73" height="1" fill="#fcfcf9"/>
  <rect x="158" y="71" width="1" height="1" fill="#d0d1ce"/>
  <rect x="161" y="71" width="1" height="1" fill="#d0d1ce"/>
  <rect x="238" y="71" width="1" height="2" fill="#d2d2d0"/>
  <rect x="81" y="72" width="1" height="4" fill="#d7d8d5"/>
  <rect x="82" y="72" width="74" height="1" fill="#fcfcf9"/>
  <rect x="157" y="72" width="1" height="4" fill="#fafbf8"/>
  <rect x="158" y="72" width="1" height="1" fill="#cfd0cd"/>
  <rect x="161" y="72" width="1" height="1" fill="#cfd0cd"/>
  <rect x="162" y="72" width="2" height="2" fill="#fdfdfb"/>
  <rect x="164" y="72" width="72" height="4" fill="#fcfcf9"/>
  <rect x="236" y="72" width="2" height="1" fill="#fdfdfb"/>
  <rect x="82" y="73" width="1" height="3" fill="#fcfcf9"/>
  <rect x="83" y="73" width="1" height="4" fill="#fafbf8"/>
  <rect x="84" y="73" width="72" height="3" fill="#fcfcf9"/>
  <rect x="158" y="73" width="1" height="3" fill="#cececc"/>
  <rect x="161" y="73" width="1" height="3" fill="#cececc"/>
  <rect x="236" y="73" width="1" height="1" fill="#fefefc"/>
  <rect x="237" y="73" width="1" height="1" fill="#fdfdfb"/>
  <rect x="238" y="73" width="1" height="4" fill="#d0d1ce"/>
  <rect x="156" y="74" width="1" height="3" fill="#fefefc"/>
  <rect x="162" y="74" width="1" height="2" fill="#fdfdfb"/>
  <rect x="163" y="74" width="1" height="2" fill="#fefefc"/>
  <rect x="236" y="74" width="1" height="2" fill="#fffffd"/>
  <rect x="237" y="74" width="1" height="2" fill="#fefefc"/>
  <rect x="81" y="76" width="1" height="1" fill="#cdcdcb"/>
  <rect x="82" y="76" width="1" height="1" fill="#f9faf7"/>
  <rect x="84" y="76" width="2" height="1" fill="#f8f8f6"/>
  <rect x="86" y="76" width="4" height="1" fill="#f9faf7"/>
  <rect x="90" y="76" width="61" height="1" fill="#fafbf8"/>
  <rect x="151" y="76" width="2" height="1" fill="#f9faf7"/>
  <rect x="153" y="76" width="3" height="1" fill="#f8f8f6"/>
  <rect x="157" y="76" width="1" height="1" fill="#fdfdfb"/>
  <rect x="158" y="76" width="1" height="1" fill="#d7d8d5"/>
  <rect x="161" y="76" width="1" height="1" fill="#ccccca"/>
  <rect x="162" y="76" width="1" height="1" fill="#f6f6f4"/>
  <rect x="163" y="76" width="3" height="1" fill="#f8f8f6"/>
  <rect x="166" y="76" width="1" height="1" fill="#f9faf7"/>
  <rect x="167" y="76" width="1" height="1" fill="#fafbf8"/>
  <rect x="168" y="76" width="1" height="1" fill="#fdfdfb"/>
  <rect x="169" y="76" width="1" height="1" fill="#fefefc"/>
  <rect x="170" y="76" width="61" height="1" fill="#fffffd"/>
  <rect x="231" y="76" width="1" height="1" fill="#fefefc"/>
  <rect x="232" y="76" width="1" height="1" fill="#fdfdfb"/>
  <rect x="233" y="76" width="3" height="1" fill="#fcfcf9"/>
  <rect x="236" y="76" width="1" height="1" fill="#fdfdfb"/>
  <rect x="237" y="76" width="1" height="1" fill="#f6f6f4"/>
  <rect x="81" y="77" width="1" height="1" fill="#cececce6"/>
  <rect x="82" y="77" width="1" height="1" fill="#ebece9"/>
  <rect x="83" y="77" width="1" height="1" fill="#fcfcf9"/>
  <rect x="84" y="77" width="4" height="1" fill="#f9faf7"/>
  <rect x="88" y="77" width="64" height="1" fill="#fafbf8"/>
  <rect x="152" y="77" width="4" height="1" fill="#f9faf7"/>
  <rect x="156" y="77" width="1" height="1" fill="#fdfdfb"/>
  <rect x="157" y="77" width="1" height="1" fill="#efefed"/>
  <rect x="158" y="77" width="1" height="1" fill="#d6d7d4e7"/>
  <rect x="161" y="77" width="1" height="1" fill="#cccccae6"/>
  <rect x="162" y="77" width="1" height="1" fill="#eaeae8"/>
  <rect x="163" y="77" width="1" height="1" fill="#fefefc"/>
  <rect x="164" y="77" width="4" height="1" fill="#fdfdfb"/>
  <rect x="168" y="77" width="62" height="1" fill="#fcfcf9"/>
  <rect x="230" y="77" width="2" height="1" fill="#fdfdfb"/>
  <rect x="232" y="77" width="2" height="1" fill="#fefefc"/>
  <rect x="234" y="77" width="2" height="1" fill="#fffffd"/>
  <rect x="236" y="77" width="1" height="1" fill="#fafbf8"/>
  <rect x="237" y="77" width="1" height="1" fill="#e7e7e5"/>
  <rect x="238" y="77" width="1" height="1" fill="#cdcdcbe7"/>
  <rect x="81" y="78" width="1" height="1" fill="#d6d7d44a"/>
  <rect x="82" y="78" width="1" height="1" fill="#d5d5d3e7"/>
  <rect x="83" y="78" width="1" height="1" fill="#d9d9d7"/>
  <rect x="84" y="78" width="4" height="1" fill="#d6d7d4"/>
  <rect x="88" y="78" width="64" height="1" fill="#ccccca"/>
  <rect x="152" y="78" width="4" height="1" fill="#d5d5d3"/>
  <rect x="156" y="78" width="1" height="1" fill="#d3d3d1"/>
  <rect x="157" y="78" width="1" height="1" fill="#cfd0cde4"/>
  <rect x="158" y="78" width="1" height="1" fill="#d2d2d04a"/>
  <rect x="161" y="78" width="1" height="1" fill="#d5d5d34a"/>
  <rect x="162" y="78" width="1" height="1" fill="#d3d3d1e7"/>
  <rect x="163" y="78" width="1" height="1" fill="#dcdcda"/>
  <rect x="164" y="78" width="4" height="1" fill="#d0d1ce"/>
  <rect x="168" y="78" width="62" height="1" fill="#cfd0cd"/>
  <rect x="230" y="78" width="2" height="1" fill="#d0d1ce"/>
  <rect x="232" y="78" width="2" height="1" fill="#d2d2d0"/>
  <rect x="234" y="78" width="2" height="1" fill="#d3d3d1"/>
  <rect x="236" y="78" width="1" height="1" fill="#d6d7d4"/>
  <rect x="237" y="78" width="1" height="1" fill="#cececce4"/>
  <rect x="238" y="78" width="1" height="1" fill="#cfd0cd4a"/>
</svg>