<svg xmlns="http://www.w3.org/2000/svg" width="16" height="16" viewBox="0 0 16 16" shape-rendering="crispEdges">
  <rect x="7" y="0" width="1" height="1" fill="#9fe27c51"/>
  <rect x="8" y="0" width="1" height="1" fill="#78d04896"/>
  <rect x="9" y="0" width="1" height="1" fill="#4aa5097b"/>
  <rect x="6" y="1" width="1" height="1" fill="#a5e880ae"/>
  <rect x="7" y="1" width="1" height="1" fill="#89d05d"/>
  <rect x="8" y="1" width="1" height="1" fill="#42990c"/>
  <rect x="9" y="1" width="1" height="1" fill="#3a8a008a"/>
  <rect x="5" y="2" width="1" height="1" fill="#9aec6a81"/>
  <rect x="6" y="2" width="1" height="1" fill="#81d249"/>
  <rect x="7" y="2" width="1" height="1" fill="#4a9a0b"/>
  <rect x="8" y="2" width="1" height="1" fill="#3a8900e5"/>
  <rect x="9" y="2" width="1" height="1" fill="#497d000c"/>
  <rect x="2" y="3" width="1" height="1" fill="#c6f45357"/>
  <rect x="3" y="3" width="1" height="1" fill="#b8ed5c8d"/>
  <rect x="4" y="3" width="1" height="1" fill="#b0f86336"/>
  <rect x="5" y="3" width="1" height="1" fill="#88d840f7"/>
  <rect x="6" y="3" width="1" height="1" fill="#509d03"/>
  <rect x="7" y="3" width="1" height="1" fill="#4a8b00de"/>
  <rect x="8" y="3" width="1" height="1" fill="#4c7b001e"/>
  <rect x="9" y="3" width="1" height="1" fill="#aebb274b"/>
  <rect x="10" y="3" width="1" height="1" fill="#c6a511bd"/>
  <rect x="11" y="3" width="1" height="1" fill="#d9a008f0"/>
  <rect x="12" y="3" width="1" height="1" fill="#e1a407d8"/>
  <rect x="13" y="3" width="1" height="1" fill="#e8a70272"/>
  <rect x="1" y="4" width="1" height="1" fill="#abe613ae"/>
  <rect x="2" y="4" width="1" height="1" fill="#a3d414"/>
  <rect x="3" y="4" width="1" height="1" fill="#a0d31b"/>
  <rect x="4" y="4" width="1" height="1" fill="#90ce15"/>
  <rect x="5" y="4" width="1" height="1" fill="#79ba0ce2"/>
  <rect x="6" y="4" width="1" height="1" fill="#6aa00a75"/>
  <rect x="7" y="4" width="1" height="1" fill="#708c000c"/>
  <rect x="8" y="4" width="1" height="1" fill="#bbae1f66"/>
  <rect x="9" y="4" width="1" height="1" fill="#e1ba2c"/>
  <rect x="10" y="4" width="1" height="1" fill="#fbd046"/>
  <rect x="11" y="4" width="1" height="1" fill="#fcce43"/>
  <rect x="12" y="4" width="1" height="1" fill="#fed23d"/>
  <rect x="13" y="4" width="1" height="1" fill="#f4c226"/>
  <rect x="14" y="4" width="1" height="1" fill="#df9e00b7"/>
  <rect x="2" y="5" width="1" height="1" fill="#b0c50012"/>
  <rect x="4" y="5" width="1" height="1" fill="#a0c3002d"/>
  <rect x="5" y="5" width="1" height="1" fill="#a2c50ae2"/>
  <rect x="7" y="5" width="1" height="1" fill="#afaf2424"/>
  <rect x="8" y="5" width="1" height="1" fill="#d4ad2dfe"/>
  <rect x="9" y="5" width="1" height="1" fill="#ffd154"/>
  <rect x="10" y="5" width="1" height="1" fill="#ffdb59"/>
  <rect x="11" y="5" width="1" height="1" fill="#ffef66"/>
  <rect x="12" y="5" width="1" height="1" fill="#ffee5a"/>
  <rect x="13" y="5" width="1" height="1" fill="#ffd73e"/>
  <rect x="14" y="5" width="1" height="1" fill="#ffc32a"/>
  <rect x="15" y="5" width="1" height="1" fill="#e19f0375"/>
  <rect x="5" y="6" width="1" height="1" fill="#dbd411e5"/>
  <rect x="6" y="6" width="1" height="1" fill="#cebf1249"/>
  <rect x="7" y="6" width="1" height="1" fill="#c8b125bd"/>
  <rect x="8" y="6" width="1" height="1" fill="#efd26e"/>
  <rect x="9" y="6" width="1" height="1" fill="#fff194"/>
  <rect x="10" y="6" width="1" height="1" fill="#fff072"/>
  <rect x="11" y="6" width="1" height="1" fill="#f5cd3d"/>
  <rect x="12" y="6" width="1" height="1" fill="#ffeb56"/>
  <rect x="13" y="6" width="1" height="1" fill="#f8ce36"/>
  <rect x="14" y="6" width="1" height="1" fill="#ffcf32"/>
  <rect x="15" y="6" width="1" height="1" fill="#d09a00e2"/>
  <rect x="3" y="7" width="1" height="1" fill="#d3a10033"/>
  <rect x="4" y="7" width="1" height="1" fill="#cfb00460"/>
  <rect x="5" y="7" width="1" height="1" fill="#d1b914de"/>
  <rect x="6" y="7" width="1" height="1" fill="#ccb220fa"/>
  <rect x="7" y="7" width="1" height="1" fill="#fbe16a"/>
  <rect x="8" y="7" width="1" height="1" fill="#fff6a4"/>
  <rect x="9" y="7" width="1" height="1" fill="#fffaa4"/>
  <rect x="10" y="7" width="1" height="1" fill="#f0cc4b"/>
  <rect x="11" y="7" width="1" height="1" fill="#f4cd36"/>
  <rect x="12" y="7" width="1" height="1" fill="#eec72e"/>
  <rect x="13" y="7" width="1" height="1" fill="#f5cd32"/>
  <rect x="14" y="7" width="1" height="1" fill="#fcce35"/>
  <rect x="15" y="7" width="1" height="1" fill="#d7a80d"/>
  <rect x="0" y="8" width="1" height="1" fill="#e3a4150f"/>
  <rect x="1" y="8" width="1" height="1" fill="#dea313a5"/>
  <rect x="2" y="8" width="1" height="1" fill="#d8a814"/>
  <rect x="3" y="8" width="1" height="1" fill="#e3bc31"/>
  <rect x="4" y="8" width="1" height="1" fill="#f3dc64"/>
  <rect x="5" y="8" width="1" height="1" fill="#f8e887"/>
  <rect x="6" y="8" width="1" height="1" fill="#ffffb3"/>
  <rect x="7" y="8" width="1" height="1" fill="#ffffbc"/>
  <rect x="8" y="8" width="1" height="1" fill="#fffdad"/>
  <rect x="9" y="8" width="1" height="1" fill="#ffe67f"/>
  <rect x="10" y="8" width="1" height="1" fill="#f8d64d"/>
  <rect x="11" y="8" width="1" height="1" fill="#f6d235"/>
  <rect x="12" y="8" width="1" height="1" fill="#fed632"/>
  <rect x="13" y="8" width="1" height="1" fill="#ffdb3a"/>
  <rect x="14" y="8" width="1" height="1" fill="#ffd642"/>
  <rect x="15" y="8" width="1" height="1" fill="#d3a112df"/>
  <rect x="0" y="9" width="1" height="1" fill="#dca31993"/>
  <rect x="1" y="9" width="1" height="1" fill="#f6c138"/>
  <rect x="2" y="9" width="1" height="1" fill="#ffe35d"/>
  <rect x="3" y="9" width="1" height="1" fill="#ffe56b"/>
  <rect x="4" y="9" width="1" height="1" fill="#fffc96"/>
  <rect x="5" y="9" width="1" height="1" fill="#ffffac"/>
  <rect x="6" y="9" width="1" height="1" fill="#ffffb9"/>
  <rect x="7" y="9" width="1" height="1" fill="#fff3a9"/>
  <rect x="8" y="9" width="1" height="1" fill="#ffe586"/>
  <rect x="9" y="9" width="1" height="1" fill="#ffdc69"/>
  <rect x="10" y="9" width="1" height="1" fill="#fcd74e"/>
  <rect x="11" y="9" width="1" height="1" fill="#fed83c"/>
  <rect x="12" y="9" width="1" height="1" fill="#ffd834"/>
  <rect x="13" y="9" width="1" height="1" fill="#ffd835"/>
  <rect x="14" y="9" width="1" height="1" fill="#f7c630"/>
  <rect x="15" y="9" width="1" height="1" fill="#cd990b87"/>
  <rect x="0" y="10" width="1" height="1" fill="#c89c07cd"/>
  <rect x="1" y="10" width="1" height="1" fill="#ffd246"/>
  <rect x="2" y="10" width="1" height="1" fill="#ffd75c"/>
  <rect x="3" y="10" width="1" height="1" fill="#ffee7a"/>
  <rect x="4" y="10" width="1" height="1" fill="#ffd45d"/>
  <rect x="5" y="10" width="1" height="1" fill="#fed357"/>
  <rect x="6" y="10" width="1" height="1" fill="#f5cc4a"/>
  <rect x="7" y="10" width="1" height="1" fill="#efc645"/>
  <rect x="8" y="10" width="1" height="1" fill="#ffd95d"/>
  <rect x="9" y="10" width="1" height="1" fill="#ffdd5f"/>
  <rect x="10" y="10" width="1" height="1" fill="#ffde55"/>
  <rect x="11" y="10" width="1" height="1" fill="#ffda47"/>
  <rect x="12" y="10" width="1" height="1" fill="#ffde44"/>
  <rect x="13" y="10" width="1" height="1" fill="#ffd437"/>
  <rect x="14" y="10" width="1" height="1" fill="#d19d04fb"/>
  <rect x="15" y="10" width="1" height="1" fill="#d7a20915"/>
  <rect x="0" y="11" width="1" height="1" fill="#ce9e06c0"/>
  <rect x="1" y="11" width="1" height="1" fill="#ffd446"/>
  <rect x="2" y="11" width="1" height="1" fill="#ffd457"/>
  <rect x="3" y="11" width="1" height="1" fill="#fcc548"/>
  <rect x="4" y="11" width="1" height="1" fill="#ffc83b"/>
  <rect x="5" y="11" width="1" height="1" fill="#f8c129"/>
  <rect x="6" y="11" width="1" height="1" fill="#f7c120"/>
  <rect x="7" y="11" width="1" height="1" fill="#fbc72b"/>
  <rect x="8" y="11" width="1" height="1" fill="#ffdf55"/>
  <rect x="9" y="11" width="1" height="1" fill="#ffe761"/>
  <rect x="10" y="11" width="1" height="1" fill="#ffe758"/>
  <rect x="11" y="11" width="1" height="1" fill="#ffdc47"/>
  <rect x="12" y="11" width="1" height="1" fill="#ffd137"/>
  <rect x="13" y="11" width="1" height="1" fill="#d6a206"/>
  <rect x="14" y="11" width="1" height="1" fill="#d69f074e"/>
  <rect x="0" y="12" width="1" height="1" fill="#dd9d0381"/>
  <rect x="1" y="12" width="1" height="1" fill="#f7b722"/>
  <rect x="2" y="12" width="1" height="1" fill="#ffca3f"/>
  <rect x="3" y="12" width="1" height="1" fill="#ffc534"/>
  <rect x="4" y="12" width="1" height="1" fill="#f8bc1a"/>
  <rect x="5" y="12" width="1" height="1" fill="#f4bb14"/>
  <rect x="6" y="12" width="1" height="1" fill="#fbc41e"/>
  <rect x="7" y="12" width="1" height="1" fill="#ffd335"/>
  <rect x="8" y="12" width="1" height="1" fill="#ffd74c"/>
  <rect x="9" y="12" width="1" height="1" fill="#ffdf56"/>
  <rect x="10" y="12" width="1" height="1" fill="#ffe34a"/>
  <rect x="11" y="12" width="1" height="1" fill="#f8c927"/>
  <rect x="12" y="12" width="1" height="1" fill="#d09d00"/>
  <rect x="13" y="12" width="1" height="1" fill="#d2990066"/>
  <rect x="0" y="13" width="1" height="1" fill="#e69f0a12"/>
  <rect x="1" y="13" width="1" height="1" fill="#da9300ed"/>
  <rect x="2" y="13" width="1" height="1" fill="#ffbd27"/>
  <rect x="3" y="13" width="1" height="1" fill="#ffc92d"/>
  <rect x="4" y="13" width="1" height="1" fill="#ffc41e"/>
  <rect x="5" y="13" width="1" height="1" fill="#ffc51c"/>
  <rect x="6" y="13" width="1" height="1" fill="#ffcc26"/>
  <rect x="7" y="13" width="1" height="1" fill="#ffd436"/>
  <rect x="8" y="13" width="1" height="1" fill="#ffdb47"/>
  <rect x="9" y="13" width="1" height="1" fill="#ffd140"/>
  <rect x="10" y="13" width="1" height="1" fill="#e4b518"/>
  <rect x="11" y="13" width="1" height="1" fill="#cf9c00d7"/>
  <rect x="12" y="13" width="1" height="1" fill="#d39b002d"/>
  <rect x="1" y="14" width="1" height="1" fill="#db97062a"/>
  <rect x="2" y="14" width="1" height="1" fill="#d18f00c6"/>
  <rect x="3" y="14" width="1" height="1" fill="#ecac10"/>
  <rect x="4" y="14" width="1" height="1" fill="#f2b218"/>
  <rect x="5" y="14" width="1" height="1" fill="#f3b81f"/>
  <rect x="6" y="14" width="1" height="1" fill="#f3ba20"/>
  <rect x="7" y="14" width="1" height="1" fill="#edb91b"/>
  <rect x="8" y="14" width="1" height="1" fill="#daa90a"/>
  <rect x="9" y="14" width="1" height="1" fill="#cd9c00b4"/>
  <rect x="10" y="14" width="1" height="1" fill="#c9950048"/>
  <rect x="3" y="15" width="1" height="1" fill="#d1920045"/>
  <rect x="4" y="15" width="1" height="1" fill="#cf910069"/>
  <rect x="5" y="15" width="1" height="1" fill="#d6990899"/>
  <rect x="6" y="15" width="1" height="1" fill="#d3990490"/>
  <rect x="7" y="15" width="1" height="1" fill="#c892005d"/>
  <rect x="8" y="15" width="1" height="1" fill="#c794001b"/>
</svg>