<svg xmlns="http://www.w3.org/2000/svg" width="14" height="14" viewBox="0 0 14 14" shape-rendering="crispEdges">
  <rect x="0" y="1" width="2" height="1" fill="#858585"/>
  <rect x="2" y="1" width="1" height="1" fill="#8585850f"/>
  <rect x="5" y="1" width="4" height="1" fill="#858585"/>
  <rect x="12" y="1" width="2" height="1" fill="#858585"/>
  <rect x="0" y="2" width="14" height="2" fill="#858585"/>
  <rect x="0" y="4" width="3" height="1" fill="#858585"/>
  <rect x="5" y="4" width="9" height="1" fill="#858585"/>
  <rect x="0" y="5" width="2" height="4" fill="#858585"/>
  <rect x="6" y="5" width="2" height="1" fill="#858585"/>
  <rect x="9" y="5" width="1" height="1" fill="#858585"/>
  <rect x="13" y="5" width="1" height="1" fill="#858585"/>
  <rect x="5" y="6" width="1" height="1" fill="#8585850f"/>
  <rect x="6" y="6" width="1" height="1" fill="#858585fe"/>
  <rect x="7" y="6" width="7" height="1" fill="#858585"/>
  <rect x="2" y="7" width="1" height="1" fill="#858585d2"/>
  <rect x="3" y="7" width="1" height="2" fill="#8585850c"/>
  <rect x="5" y="7" width="1" height="1" fill="#858585b5"/>
  <rect x="6" y="7" width="2" height="1" fill="#858585"/>
  <rect x="9" y="7" width="1" height="1" fill="#858585"/>
  <rect x="13" y="7" width="1" height="1" fill="#858585"/>
  <rect x="6" y="8" width="8" height="1" fill="#858585"/>
  <rect x="0" y="9" width="1" height="2" fill="#858585"/>
  <rect x="7" y="9" width="2" height="1" fill="#858585"/>
  <rect x="13" y="9" width="1" height="1" fill="#858585"/>
  <rect x="7" y="10" width="7" height="1" fill="#858585"/>
  <rect x="0" y="11" width="14" height="2" fill="#858585"/>
</svg>