<svg xmlns="http://www.w3.org/2000/svg" width="16" height="16" viewBox="0 0 16 16" shape-rendering="crispEdges">
  <rect x="5" y="1" width="1" height="1" fill="#b2b4b559"/>
  <rect x="6" y="1" width="1" height="1" fill="#b8babbb2"/>
  <rect x="7" y="1" width="1" height="1" fill="#b9bbbcea"/>
  <rect x="8" y="1" width="1" height="1" fill="#b3b5b6"/>
  <rect x="9" y="1" width="1" height="1" fill="#b5b7b9ea"/>
  <rect x="10" y="1" width="1" height="1" fill="#b4b6b8b2"/>
  <rect x="11" y="1" width="1" height="1" fill="#aeb0b259"/>
  <rect x="3" y="2" width="1" height="1" fill="#afb1b322"/>
  <rect x="4" y="2" width="1" height="1" fill="#acaeb0cc"/>
  <rect x="5" y="2" width="1" height="2" fill="#b8babb"/>
  <rect x="6" y="2" width="1" height="1" fill="#b9bbbc"/>
  <rect x="7" y="2" width="1" height="1" fill="#afb1b3"/>
  <rect x="8" y="2" width="1" height="1" fill="#b5b7b9"/>
  <rect x="9" y="2" width="1" height="1" fill="#b3b5b6"/>
  <rect x="10" y="2" width="1" height="1" fill="#b5b7b9"/>
  <rect x="11" y="2" width="1" height="1" fill="#babcbd"/>
  <rect x="12" y="2" width="1" height="1" fill="#adafb1cc"/>
  <rect x="13" y="2" width="1" height="1" fill="#adafb122"/>
  <rect x="2" y="3" width="1" height="1" fill="#b2b4b522"/>
  <rect x="3" y="3" width="1" height="1" fill="#aeb0b2e9"/>
  <rect x="4" y="3" width="1" height="1" fill="#aeb0b2"/>
  <rect x="6" y="3" width="1" height="1" fill="#afb1b3"/>
  <rect x="7" y="3" width="1" height="1" fill="#9a9c9e"/>
  <rect x="8" y="3" width="1" height="1" fill="#939597"/>
  <rect x="9" y="3" width="1" height="1" fill="#929496"/>
  <rect x="10" y="3" width="1" height="1" fill="#9fa1a3"/>
  <rect x="11" y="3" width="1" height="1" fill="#b1b3b4"/>
  <rect x="12" y="3" width="1" height="1" fill="#adafb1"/>
  <rect x="13" y="3" width="1" height="1" fill="#afb1b3e9"/>
  <rect x="14" y="3" width="1" height="1" fill="#adafb122"/>
  <rect x="2" y="4" width="1" height="1" fill="#b3b5b6cb"/>
  <rect x="3" y="4" width="2" height="1" fill="#aeb0b2"/>
  <rect x="5" y="4" width="1" height="1" fill="#b2b4b5"/>
  <rect x="6" y="4" width="1" height="1" fill="#999b9d"/>
  <rect x="11" y="4" width="1" height="1" fill="#969899"/>
  <rect x="12" y="4" width="1" height="1" fill="#babcbd"/>
  <rect x="13" y="4" width="1" height="2" fill="#b2b4b5"/>
  <rect x="14" y="4" width="1" height="1" fill="#acaeb0cb"/>
  <rect x="1" y="5" width="1" height="1" fill="#adafb15a"/>
  <rect x="2" y="5" width="1" height="1" fill="#b2b4b5"/>
  <rect x="3" y="5" width="1" height="1" fill="#aeb0b2"/>
  <rect x="4" y="5" width="1" height="1" fill="#afb1b3"/>
  <rect x="5" y="5" width="1" height="1" fill="#b3b5b6"/>
  <rect x="8" y="5" width="2" height="1" fill="#b3b5b6"/>
  <rect x="12" y="5" width="1" height="1" fill="#b6b8ba"/>
  <rect x="14" y="5" width="1" height="1" fill="#adafb1"/>
  <rect x="15" y="5" width="1" height="1" fill="#a8aaac5a"/>
  <rect x="1" y="6" width="1" height="1" fill="#b2b4b5b7"/>
  <rect x="2" y="6" width="1" height="1" fill="#adafb1"/>
  <rect x="3" y="6" width="1" height="1" fill="#b1b3b4"/>
  <rect x="4" y="6" width="1" height="1" fill="#b2b4b5"/>
  <rect x="5" y="6" width="1" height="1" fill="#b5b7b9"/>
  <rect x="8" y="6" width="1" height="1" fill="#b2b4b5"/>
  <rect x="9" y="6" width="1" height="1" fill="#adafb1"/>
  <rect x="12" y="6" width="2" height="1" fill="#b1b3b4"/>
  <rect x="14" y="6" width="1" height="1" fill="#aeb0b2"/>
  <rect x="15" y="6" width="1" height="1" fill="#adafb1b7"/>
  <rect x="1" y="7" width="1" height="1" fill="#b5b7b9eb"/>
  <rect x="2" y="7" width="1" height="1" fill="#acaeb0"/>
  <rect x="3" y="7" width="1" height="1" fill="#b2b4b5"/>
  <rect x="4" y="7" width="1" height="1" fill="#b3b5b6"/>
  <rect x="5" y="7" width="2" height="1" fill="#b6b8ba"/>
  <rect x="7" y="7" width="1" height="1" fill="#aaacad"/>
  <rect x="8" y="7" width="1" height="1" fill="#aeb0b2"/>
  <rect x="9" y="7" width="1" height="1" fill="#999b9d"/>
  <rect x="12" y="7" width="2" height="1" fill="#afb1b3"/>
  <rect x="14" y="7" width="1" height="1" fill="#b1b3b4"/>
  <rect x="15" y="7" width="1" height="1" fill="#b1b3b4e6"/>
  <rect x="1" y="8" width="1" height="1" fill="#b8babb"/>
  <rect x="2" y="8" width="1" height="1" fill="#afb1b3"/>
  <rect x="3" y="8" width="2" height="1" fill="#b3b5b6"/>
  <rect x="5" y="8" width="1" height="1" fill="#b4b6b8"/>
  <rect x="6" y="8" width="2" height="1" fill="#b3b5b6"/>
  <rect x="8" y="8" width="1" height="1" fill="#97999b"/>
  <rect x="11" y="8" width="1" height="1" fill="#b6b8ba"/>
  <rect x="12" y="8" width="1" height="1" fill="#b2b4b5"/>
  <rect x="13" y="8" width="1" height="1" fill="#b1b3b4"/>
  <rect x="14" y="8" width="1" height="1" fill="#b3b5b6"/>
  <rect x="15" y="8" width="1" height="1" fill="#b6b8baf9"/>
  <rect x="1" y="9" width="1" height="1" fill="#afb1b3eb"/>
  <rect x="2" y="9" width="1" height="1" fill="#b1b3b4"/>
  <rect x="3" y="9" width="5" height="1" fill="#b3b5b6"/>
  <rect x="10" y="9" width="1" height="1" fill="#adafb1"/>
  <rect x="11" y="9" width="2" height="1" fill="#b2b4b5"/>
  <rect x="13" y="9" width="1" height="1" fill="#b3b5b6"/>
  <rect x="14" y="9" width="1" height="1" fill="#b2b4b5"/>
  <rect x="15" y="9" width="1" height="1" fill="#adafb1e6"/>
  <rect x="1" y="10" width="1" height="1" fill="#a3a5a6b7"/>
  <rect x="2" y="10" width="1" height="1" fill="#aeb0b2"/>
  <rect x="3" y="10" width="1" height="1" fill="#b2b4b5"/>
  <rect x="4" y="10" width="4" height="2" fill="#b3b5b6"/>
  <rect x="10" y="10" width="1" height="1" fill="#b2b4b5"/>
  <rect x="11" y="10" width="1" height="1" fill="#b1b3b4"/>
  <rect x="12" y="10" width="1" height="1" fill="#afb1b3"/>
  <rect x="13" y="10" width="1" height="1" fill="#b5b7b9"/>
  <rect x="14" y="10" width="1" height="1" fill="#afb1b3"/>
  <rect x="15" y="10" width="1" height="1" fill="#a1a3a5b7"/>
  <rect x="1" y="11" width="1" height="1" fill="#9a9c9e5a"/>
  <rect x="2" y="11" width="1" height="1" fill="#acaeb0"/>
  <rect x="3" y="11" width="1" height="1" fill="#afb1b3"/>
  <rect x="8" y="11" width="2" height="1" fill="#9c9e9f"/>
  <rect x="10" y="11" width="2" height="1" fill="#b2b4b5"/>
  <rect x="12" y="11" width="1" height="1" fill="#adafb1"/>
  <rect x="13" y="11" width="1" height="1" fill="#b6b8ba"/>
  <rect x="14" y="11" width="1" height="1" fill="#aeb0b2"/>
  <rect x="15" y="11" width="1" height="1" fill="#989a9c5a"/>
  <rect x="2" y="12" width="1" height="1" fill="#9a9c9ecb"/>
  <rect x="3" y="12" width="1" height="1" fill="#a7a9ab"/>
  <rect x="4" y="12" width="1" height="1" fill="#b5b7b9"/>
  <rect x="5" y="12" width="1" height="1" fill="#b4b6b8"/>
  <rect x="6" y="12" width="1" height="2" fill="#b3b5b6"/>
  <rect x="7" y="12" width="1" height="1" fill="#b2b4b5"/>
  <rect x="10" y="12" width="1" height="1" fill="#adafb1"/>
  <rect x="11" y="12" width="2" height="1" fill="#afb1b3"/>
  <rect x="13" y="12" width="1" height="1" fill="#aeb0b2"/>
  <rect x="14" y="12" width="1" height="1" fill="#989a9ccb"/>
  <rect x="2" y="13" width="1" height="1" fill="#9a9c9e23"/>
  <rect x="3" y="13" width="1" height="1" fill="#9a9c9ee9"/>
  <rect x="4" y="13" width="1" height="1" fill="#acaeb0"/>
  <rect x="5" y="13" width="1" height="1" fill="#afb1b3"/>
  <rect x="7" y="13" width="1" height="1" fill="#b4b6b8"/>
  <rect x="10" y="13" width="1" height="1" fill="#aeb0b2"/>
  <rect x="11" y="13" width="1" height="1" fill="#b3b5b6"/>
  <rect x="12" y="13" width="1" height="1" fill="#aeb0b2"/>
  <rect x="13" y="13" width="1" height="1" fill="#959798e9"/>
  <rect x="14" y="13" width="1" height="1" fill="#9ea0a223"/>
  <rect x="3" y="14" width="1" height="1" fill="#96989923"/>
  <rect x="4" y="14" width="1" height="1" fill="#9a9c9ecc"/>
  <rect x="5" y="14" width="1" height="1" fill="#a0a2a4"/>
  <rect x="6" y="14" width="1" height="1" fill="#a7a9ab"/>
  <rect x="7" y="14" width="1" height="1" fill="#adafb1"/>
  <rect x="8" y="14" width="1" height="1" fill="#b5b7b9"/>
  <rect x="9" y="14" width="1" height="1" fill="#b1b3b4"/>
  <rect x="10" y="14" width="1" height="1" fill="#aaacad"/>
  <rect x="11" y="14" width="1" height="1" fill="#a5a7a9"/>
  <rect x="12" y="14" width="1" height="1" fill="#989a9ccc"/>
  <rect x="13" y="14" width="1" height="1" fill="#9ea0a223"/>
  <rect x="5" y="15" width="1" height="1" fill="#95979859"/>
  <rect x="6" y="15" width="1" height="1" fill="#969899b2"/>
  <rect x="7" y="15" width="1" height="1" fill="#9ea0a2e5"/>
  <rect x="8" y="15" width="1" height="1" fill="#9a9c9ef9"/>
  <rect x="9" y="15" width="1" height="1" fill="#989a9ce6"/>
  <rect x="10" y="15" width="1" height="1" fill="#959798b2"/>
  <rect x="11" y="15" width="1" height="1" fill="#9395975a"/>
</svg>