<svg xmlns="http://www.w3.org/2000/svg" width="13" height="13" viewBox="0 0 13 13" shape-rendering="crispEdges">
  <rect x="1" y="0" width="1" height="1" fill="#a2b6c8"/>
  <rect x="2" y="0" width="1" height="1" fill="#a7b3bf"/>
  <rect x="3" y="0" width="1" height="1" fill="#a9b1ba"/>
  <rect x="4" y="0" width="1" height="1" fill="#a7afb8"/>
  <rect x="5" y="0" width="1" height="1" fill="#aebac6"/>
  <rect x="6" y="0" width="1" height="1" fill="#a8bcce"/>
  <rect x="7" y="0" width="1" height="1" fill="#a7bad1"/>
  <rect x="8" y="0" width="1" height="1" fill="#a7b1cb"/>
  <rect x="9" y="0" width="1" height="1" fill="#b2b7d0"/>
  <rect x="10" y="0" width="1" height="1" fill="#afb7cd"/>
  <rect x="11" y="0" width="1" height="1" fill="#a6b2cb"/>
  <rect x="0" y="1" width="1" height="1" fill="#a1b6cc"/>
  <rect x="1" y="1" width="1" height="1" fill="#c0d4e7"/>
  <rect x="2" y="1" width="1" height="1" fill="#f4ffff"/>
  <rect x="3" y="1" width="1" height="1" fill="#f6feff"/>
  <rect x="4" y="1" width="1" height="1" fill="#f3faff"/>
  <rect x="5" y="1" width="1" height="1" fill="#eefaff"/>
  <rect x="6" y="1" width="1" height="1" fill="#eeffff"/>
  <rect x="7" y="1" width="1" height="1" fill="#e8f9ff"/>
  <rect x="8" y="1" width="1" height="1" fill="#edf7ff"/>
  <rect x="9" y="1" width="1" height="1" fill="#e9f0ff"/>
  <rect x="10" y="1" width="1" height="1" fill="#eaf4ff"/>
  <rect x="11" y="1" width="1" height="1" fill="#becae4"/>
  <rect x="12" y="1" width="1" height="1" fill="#a5b3da"/>
  <rect x="0" y="2" width="1" height="1" fill="#a1b4cb"/>
  <rect x="1" y="2" width="1" height="1" fill="#efffff"/>
  <rect x="2" y="2" width="1" height="1" fill="#eefbff"/>
  <rect x="3" y="2" width="1" height="1" fill="#f2fbff"/>
  <rect x="4" y="2" width="1" height="1" fill="#f0f9ff"/>
  <rect x="5" y="2" width="1" height="1" fill="#f0faff"/>
  <rect x="6" y="2" width="1" height="1" fill="#94a2b9"/>
  <rect x="7" y="2" width="1" height="1" fill="#e8f6ff"/>
  <rect x="8" y="2" width="1" height="1" fill="#e9f2ff"/>
  <rect x="9" y="2" width="1" height="1" fill="#e5efff"/>
  <rect x="10" y="2" width="1" height="1" fill="#e6f0ff"/>
  <rect x="11" y="2" width="1" height="1" fill="#ebf6ff"/>
  <rect x="12" y="2" width="1" height="1" fill="#a3b1d7"/>
  <rect x="0" y="3" width="1" height="1" fill="#a1b2ca"/>
  <rect x="1" y="3" width="1" height="1" fill="#f0feff"/>
  <rect x="2" y="3" width="1" height="1" fill="#effbff"/>
  <rect x="3" y="3" width="1" height="1" fill="#edf9ff"/>
  <rect x="4" y="3" width="1" height="1" fill="#f4ffff"/>
  <rect x="5" y="3" width="1" height="1" fill="#8c98b0"/>
  <rect x="6" y="3" width="1" height="1" fill="#8c98b2"/>
  <rect x="7" y="3" width="1" height="1" fill="#ecf7ff"/>
  <rect x="8" y="3" width="1" height="1" fill="#eaf3ff"/>
  <rect x="9" y="3" width="1" height="1" fill="#8892aa"/>
  <rect x="10" y="3" width="1" height="1" fill="#eef9ff"/>
  <rect x="11" y="3" width="1" height="1" fill="#e7f3ff"/>
  <rect x="12" y="3" width="1" height="1" fill="#a8b7dd"/>
  <rect x="0" y="4" width="1" height="1" fill="#acb7d1"/>
  <rect x="1" y="4" width="1" height="1" fill="#f6ffff"/>
  <rect x="2" y="4" width="1" height="1" fill="#f1feff"/>
  <rect x="3" y="4" width="1" height="1" fill="#ebfbff"/>
  <rect x="4" y="4" width="1" height="1" fill="#8b9bb8"/>
  <rect x="5" y="4" width="1" height="1" fill="#8e9bb9"/>
  <rect x="6" y="4" width="1" height="2" fill="#8d99b5"/>
  <rect x="7" y="4" width="1" height="1" fill="#edf7ff"/>
  <rect x="8" y="4" width="1" height="1" fill="#989eba"/>
  <rect x="9" y="4" width="1" height="1" fill="#fbffff"/>
  <rect x="10" y="4" width="1" height="1" fill="#e7f2ff"/>
  <rect x="11" y="4" width="1" height="1" fill="#e9f5ff"/>
  <rect x="12" y="4" width="1" height="1" fill="#abb9df"/>
  <rect x="0" y="5" width="1" height="1" fill="#a9b0cb"/>
  <rect x="1" y="5" width="1" height="1" fill="#f2fdff"/>
  <rect x="2" y="5" width="1" height="1" fill="#8d9cbd"/>
  <rect x="3" y="5" width="1" height="1" fill="#8697bb"/>
  <rect x="4" y="5" width="1" height="1" fill="#8a9bbe"/>
  <rect x="5" y="5" width="1" height="1" fill="#8d9cbd"/>
  <rect x="7" y="5" width="1" height="2" fill="#eff6ff"/>
  <rect x="8" y="5" width="1" height="1" fill="#feffff"/>
  <rect x="9" y="5" width="1" height="1" fill="#f2faff"/>
  <rect x="10" y="5" width="1" height="1" fill="#edf7ff"/>
  <rect x="11" y="5" width="1" height="1" fill="#e5f0ff"/>
  <rect x="12" y="5" width="1" height="1" fill="#a6b4db"/>
  <rect x="0" y="6" width="1" height="1" fill="#a7acc8"/>
  <rect x="1" y="6" width="1" height="1" fill="#eef7ff"/>
  <rect x="2" y="6" width="1" height="1" fill="#8e9fc5"/>
  <rect x="3" y="6" width="2" height="1" fill="#889ac4"/>
  <rect x="5" y="6" width="1" height="1" fill="#8b9cc1"/>
  <rect x="6" y="6" width="1" height="1" fill="#8f98b7"/>
  <rect x="8" y="6" width="1" height="1" fill="#9198b3"/>
  <rect x="9" y="6" width="1" height="1" fill="#8f97b0"/>
  <rect x="10" y="6" width="1" height="1" fill="#e9f6ff"/>
  <rect x="11" y="6" width="1" height="1" fill="#e3f1ff"/>
  <rect x="12" y="6" width="1" height="1" fill="#a7b6da"/>
  <rect x="0" y="7" width="1" height="1" fill="#a9aeca"/>
  <rect x="1" y="7" width="1" height="1" fill="#f8ffff"/>
  <rect x="2" y="7" width="1" height="1" fill="#8a99bb"/>
  <rect x="3" y="7" width="1" height="1" fill="#8a9bbe"/>
  <rect x="4" y="7" width="1" height="1" fill="#8a9ac2"/>
  <rect x="5" y="7" width="1" height="1" fill="#8d9bbf"/>
  <rect x="6" y="7" width="1" height="1" fill="#8f98b5"/>
  <rect x="7" y="7" width="1" height="1" fill="#f0f7ff"/>
  <rect x="8" y="7" width="1" height="1" fill="#f1fbff"/>
  <rect x="9" y="7" width="1" height="1" fill="#f8ffff"/>
  <rect x="10" y="7" width="1" height="1" fill="#e8f7ff"/>
  <rect x="11" y="7" width="1" height="1" fill="#e2f2ff"/>
  <rect x="12" y="7" width="1" height="1" fill="#a6b7da"/>
  <rect x="0" y="8" width="1" height="1" fill="#afb6d1"/>
  <rect x="1" y="8" width="1" height="1" fill="#f1fbff"/>
  <rect x="2" y="8" width="1" height="1" fill="#effcff"/>
  <rect x="3" y="8" width="1" height="1" fill="#edf9ff"/>
  <rect x="4" y="8" width="1" height="1" fill="#919cba"/>
  <rect x="5" y="8" width="1" height="1" fill="#8f99ba"/>
  <rect x="6" y="8" width="1" height="1" fill="#8f9bb2"/>
  <rect x="7" y="8" width="1" height="1" fill="#ecf9ff"/>
  <rect x="8" y="8" width="1" height="1" fill="#919fac"/>
  <rect x="9" y="8" width="1" height="1" fill="#e3f3ff"/>
  <rect x="10" y="8" width="1" height="1" fill="#e9f9ff"/>
  <rect x="11" y="8" width="1" height="1" fill="#e6f7ff"/>
  <rect x="12" y="8" width="1" height="1" fill="#a6b8d6"/>
  <rect x="0" y="9" width="1" height="1" fill="#acb4cd"/>
  <rect x="1" y="9" width="1" height="1" fill="#f6feff"/>
  <rect x="2" y="9" width="1" height="1" fill="#feffff"/>
  <rect x="3" y="9" width="1" height="1" fill="#f2fcff"/>
  <rect x="4" y="9" width="1" height="1" fill="#f5fcff"/>
  <rect x="5" y="9" width="1" height="1" fill="#8e95b0"/>
  <rect x="6" y="9" width="1" height="1" fill="#8e98ac"/>
  <rect x="7" y="9" width="1" height="1" fill="#e8f6ff"/>
  <rect x="8" y="9" width="1" height="1" fill="#f8ffff"/>
  <rect x="9" y="9" width="1" height="1" fill="#879a9f"/>
  <rect x="10" y="9" width="1" height="1" fill="#e7faff"/>
  <rect x="11" y="9" width="1" height="1" fill="#e3f4ff"/>
  <rect x="12" y="9" width="1" height="1" fill="#a6b8d4"/>
  <rect x="0" y="10" width="1" height="1" fill="#a9acc0"/>
  <rect x="1" y="10" width="1" height="1" fill="#f7fbff"/>
  <rect x="2" y="10" width="1" height="1" fill="#f6faff"/>
  <rect x="3" y="10" width="1" height="1" fill="#feffff"/>
  <rect x="4" y="10" width="1" height="1" fill="#fbffff"/>
  <rect x="5" y="10" width="1" height="1" fill="#f4f8ff"/>
  <rect x="6" y="10" width="1" height="1" fill="#989cad"/>
  <rect x="7" y="10" width="1" height="1" fill="#f0faff"/>
  <rect x="8" y="10" width="1" height="2" fill="#f1ffff"/>
  <rect x="9" y="10" width="1" height="1" fill="#eeffff"/>
  <rect x="10" y="10" width="1" height="1" fill="#e7fdff"/>
  <rect x="11" y="10" width="1" height="1" fill="#e9feff"/>
  <rect x="12" y="10" width="1" height="1" fill="#a7bad1"/>
  <rect x="0" y="11" width="1" height="1" fill="#aab2c8"/>
  <rect x="1" y="11" width="1" height="1" fill="#cbd3e7"/>
  <rect x="2" y="11" width="1" height="1" fill="#f6feff"/>
  <rect x="3" y="11" width="1" height="1" fill="#f5fdff"/>
  <rect x="4" y="11" width="1" height="1" fill="#edf4ff"/>
  <rect x="5" y="11" width="1" height="1" fill="#f2faff"/>
  <rect x="6" y="11" width="1" height="1" fill="#f6feff"/>
  <rect x="7" y="11" width="1" height="1" fill="#edf9ff"/>
  <rect x="9" y="11" width="1" height="1" fill="#e9ffff"/>
  <rect x="10" y="11" width="1" height="1" fill="#e2f7ff"/>
  <rect x="11" y="11" width="1" height="1" fill="#bfd3e5"/>
  <rect x="12" y="11" width="1" height="1" fill="#a7b9d5"/>
  <rect x="1" y="12" width="1" height="1" fill="#a3b7d5"/>
  <rect x="2" y="12" width="1" height="1" fill="#a2b6d6"/>
  <rect x="3" y="12" width="1" height="1" fill="#a8bbdb"/>
  <rect x="4" y="12" width="2" height="1" fill="#a7b9d7"/>
  <rect x="6" y="12" width="1" height="1" fill="#a7b8d9"/>
  <rect x="7" y="12" width="2" height="1" fill="#a4b8d8"/>
  <rect x="9" y="12" width="2" height="1" fill="#a3b6d9"/>
  <rect x="11" y="12" width="1" height="1" fill="#a3b6db"/>
</svg>