<svg xmlns="http://www.w3.org/2000/svg" width="88" height="22" viewBox="0 0 88 22" shape-rendering="crispEdges">
  <rect x="23" y="0" width="1" height="1" fill="#cdcfd07d"/>
  <rect x="24" y="0" width="1" height="1" fill="#caced1e6"/>
  <rect x="25" y="0" width="1" height="1" fill="#cbcfd2"/>
  <rect x="26" y="0" width="2" height="1" fill="#c9d0d2"/>
  <rect x="28" y="0" width="4" height="1" fill="#c9cfd4"/>
  <rect x="32" y="0" width="8" height="1" fill="#c9d0d2"/>
  <rect x="40" y="0" width="1" height="1" fill="#c6cccf"/>
  <rect x="41" y="0" width="1" height="1" fill="#c9d0d2e6"/>
  <rect x="42" y="0" width="1" height="1" fill="#c6cccf7d"/>
  <rect x="45" y="0" width="1" height="1" fill="#c9cdd07a"/>
  <rect x="46" y="0" width="1" height="1" fill="#cdd1d4e3"/>
  <rect x="47" y="0" width="1" height="1" fill="#caced1"/>
  <rect x="48" y="0" width="4" height="1" fill="#cbcfd2"/>
  <rect x="52" y="0" width="2" height="1" fill="#cdced2"/>
  <rect x="54" y="0" width="4" height="1" fill="#cbcfd0"/>
  <rect x="58" y="0" width="2" height="1" fill="#c9d1ce"/>
  <rect x="60" y="0" width="3" height="1" fill="#c7cccd"/>
  <rect x="63" y="0" width="1" height="1" fill="#c7cccde5"/>
  <rect x="64" y="0" width="1" height="1" fill="#cacecf7c"/>
  <rect x="22" y="1" width="1" height="1" fill="#d2d4d675"/>
  <rect x="23" y="1" width="1" height="1" fill="#d8dadc"/>
  <rect x="24" y="1" width="2" height="1" fill="#eff3f6"/>
  <rect x="26" y="1" width="2" height="1" fill="#edf4f6"/>
  <rect x="28" y="1" width="4" height="1" fill="#edf3f8"/>
  <rect x="32" y="1" width="8" height="1" fill="#edf4f6"/>
  <rect x="40" y="1" width="1" height="2" fill="#f8feff"/>
  <rect x="41" y="1" width="1" height="1" fill="#edf4f6"/>
  <rect x="42" y="1" width="1" height="1" fill="#d5dbde"/>
  <rect x="43" y="1" width="1" height="1" fill="#cad1d37d"/>
  <rect x="44" y="1" width="1" height="1" fill="#caced175"/>
  <rect x="45" y="1" width="1" height="1" fill="#cbcfd2"/>
  <rect x="46" y="1" width="1" height="1" fill="#dadee1"/>
  <rect x="47" y="1" width="1" height="1" fill="#e2e6e9"/>
  <rect x="48" y="1" width="4" height="1" fill="#e3e7eb"/>
  <rect x="52" y="1" width="2" height="1" fill="#e5e7eb"/>
  <rect x="54" y="1" width="4" height="1" fill="#e3e8e9"/>
  <rect x="58" y="1" width="2" height="1" fill="#e2e9e7"/>
  <rect x="60" y="1" width="4" height="1" fill="#e2e7e7"/>
  <rect x="64" y="1" width="1" height="1" fill="#d3d7d8"/>
  <rect x="65" y="1" width="1" height="1" fill="#ced3d47d"/>
  <rect x="22" y="2" width="1" height="1" fill="#cfd1d2de"/>
  <rect x="23" y="2" width="1" height="1" fill="#ebedee"/>
  <rect x="24" y="2" width="2" height="4" fill="#f1f5f9"/>
  <rect x="26" y="2" width="2" height="4" fill="#f0f6f9"/>
  <rect x="28" y="2" width="4" height="4" fill="#f0f6fb"/>
  <rect x="32" y="2" width="8" height="1" fill="#f0f6f9"/>
  <rect x="41" y="2" width="1" height="1" fill="#f7fdff"/>
  <rect x="42" y="2" width="1" height="1" fill="#eaf0f3"/>
  <rect x="43" y="2" width="1" height="1" fill="#ccd2d4e6"/>
  <rect x="44" y="2" width="1" height="1" fill="#d2d6d9de"/>
  <rect x="45" y="2" width="2" height="1" fill="#dce0e4"/>
  <rect x="47" y="2" width="1" height="1" fill="#dfe3e6"/>
  <rect x="48" y="2" width="4" height="1" fill="#e0e4e7"/>
  <rect x="52" y="2" width="2" height="1" fill="#e1e3e7"/>
  <rect x="54" y="2" width="4" height="1" fill="#e0e4e5"/>
  <rect x="58" y="2" width="2" height="1" fill="#dee5e3"/>
  <rect x="60" y="2" width="5" height="1" fill="#e1e5e6"/>
  <rect x="65" y="2" width="1" height="1" fill="#c5cacae6"/>
  <rect x="22" y="3" width="1" height="1" fill="#cbcdcf"/>
  <rect x="23" y="3" width="1" height="1" fill="#f8fafb"/>
  <rect x="32" y="3" width="9" height="1" fill="#f0f6f9"/>
  <rect x="41" y="3" width="1" height="1" fill="#f6fcfe"/>
  <rect x="42" y="3" width="1" height="1" fill="#f2f9fb"/>
  <rect x="43" y="3" width="1" height="1" fill="#c5cbcd"/>
  <rect x="44" y="3" width="1" height="1" fill="#ccd0d3"/>
  <rect x="45" y="3" width="1" height="1" fill="#e2e6e9"/>
  <rect x="46" y="3" width="1" height="1" fill="#dee2e5"/>
  <rect x="47" y="3" width="1" height="1" fill="#e1e5e8"/>
  <rect x="48" y="3" width="4" height="1" fill="#e2e6e9"/>
  <rect x="52" y="3" width="2" height="1" fill="#e4e5e9"/>
  <rect x="54" y="3" width="4" height="1" fill="#e2e7e7"/>
  <rect x="58" y="3" width="2" height="1" fill="#e1e8e5"/>
  <rect x="60" y="3" width="4" height="1" fill="#e6eaeb"/>
  <rect x="64" y="3" width="1" height="1" fill="#eaeff0"/>
  <rect x="65" y="3" width="1" height="1" fill="#c2c6c7"/>
  <rect x="22" y="4" width="1" height="4" fill="#c9cbcd"/>
  <rect x="23" y="4" width="1" height="4" fill="#f4f6f8"/>
  <rect x="32" y="4" width="8" height="2" fill="#f0f6f9"/>
  <rect x="40" y="4" width="1" height="4" fill="#f3fafc"/>
  <rect x="41" y="4" width="1" height="2" fill="#f2f9fb"/>
  <rect x="42" y="4" width="1" height="4" fill="#eff5f7"/>
  <rect x="43" y="4" width="1" height="4" fill="#c8cfd1"/>
  <rect x="44" y="4" width="1" height="4" fill="#c7cbcf"/>
  <rect x="45" y="4" width="2" height="4" fill="#e7ebee"/>
  <rect x="47" y="4" width="1" height="4" fill="#e6eaed"/>
  <rect x="48" y="4" width="4" height="4" fill="#e5e9ec"/>
  <rect x="52" y="4" width="2" height="4" fill="#e6e8ec"/>
  <rect x="54" y="4" width="4" height="4" fill="#e5e9ea"/>
  <rect x="58" y="4" width="2" height="4" fill="#e3eaea"/>
  <rect x="60" y="4" width="4" height="4" fill="#e5e9ea"/>
  <rect x="64" y="4" width="1" height="2" fill="#e6e8ec"/>
  <rect x="65" y="4" width="1" height="1" fill="#c7c8cc"/>
  <rect x="65" y="5" width="1" height="1" fill="#c9cbcf"/>
  <rect x="24" y="6" width="2" height="1" fill="#f1f6f7"/>
  <rect x="26" y="6" width="1" height="1" fill="#f0f7f7"/>
  <rect x="27" y="6" width="13" height="1" fill="#f0f6f9"/>
  <rect x="41" y="6" width="1" height="1" fill="#f1f7fa"/>
  <rect x="64" y="6" width="1" height="1" fill="#e8eaec"/>
  <rect x="65" y="6" width="1" height="2" fill="#c9cbcd"/>
  <rect x="24" y="7" width="2" height="1" fill="#f0f5f5"/>
  <rect x="26" y="7" width="2" height="1" fill="#eff5f5"/>
  <rect x="28" y="7" width="12" height="1" fill="#eff5f7"/>
  <rect x="41" y="7" width="1" height="1" fill="#f0f6f9"/>
  <rect x="64" y="7" width="1" height="1" fill="#eaeced"/>
  <rect x="22" y="8" width="1" height="6" fill="#c9cbcb"/>
  <rect x="23" y="8" width="1" height="4" fill="#f4f6f6"/>
  <rect x="24" y="8" width="2" height="1" fill="#eff3f4"/>
  <rect x="26" y="8" width="6" height="1" fill="#edf4f4"/>
  <rect x="32" y="8" width="8" height="1" fill="#edf4f6"/>
  <rect x="40" y="8" width="1" height="2" fill="#ebf2f4"/>
  <rect x="41" y="8" width="1" height="1" fill="#eff5f7"/>
  <rect x="42" y="8" width="1" height="1" fill="#edf4f6"/>
  <rect x="43" y="8" width="1" height="2" fill="#c9d0d2"/>
  <rect x="44" y="8" width="1" height="3" fill="#c7cdd0"/>
  <rect x="45" y="8" width="2" height="2" fill="#e6edef"/>
  <rect x="47" y="8" width="1" height="4" fill="#e5ecee"/>
  <rect x="48" y="8" width="3" height="1" fill="#e9eff2"/>
  <rect x="51" y="8" width="7" height="1" fill="#eaeef2"/>
  <rect x="58" y="8" width="2" height="3" fill="#eaeff0"/>
  <rect x="60" y="8" width="4" height="3" fill="#eaefee"/>
  <rect x="64" y="8" width="1" height="1" fill="#eceef0"/>
  <rect x="65" y="8" width="1" height="2" fill="#caccce"/>
  <rect x="24" y="9" width="2" height="1" fill="#eef2f3"/>
  <rect x="26" y="9" width="6" height="1" fill="#ecf3f3"/>
  <rect x="32" y="9" width="8" height="1" fill="#ecf3f5"/>
  <rect x="41" y="9" width="2" height="1" fill="#edf4f6"/>
  <rect x="48" y="9" width="4" height="3" fill="#e9eff2"/>
  <rect x="52" y="9" width="6" height="3" fill="#eaeef2"/>
  <rect x="64" y="9" width="1" height="1" fill="#edeff1"/>
  <rect x="24" y="10" width="2" height="1" fill="#edf1f0"/>
  <rect x="26" y="10" width="2" height="1" fill="#ebf2f0"/>
  <rect x="28" y="10" width="4" height="1" fill="#ebf2f2"/>
  <rect x="32" y="10" width="2" height="1" fill="#ecf3f3"/>
  <rect x="34" y="10" width="2" height="1" fill="#ebf2f2"/>
  <rect x="36" y="10" width="4" height="1" fill="#ebf2f4"/>
  <rect x="40" y="10" width="1" height="1" fill="#eaf0f3"/>
  <rect x="41" y="10" width="1" height="1" fill="#ebf2f4"/>
  <rect x="42" y="10" width="1" height="1" fill="#ecf3f5"/>
  <rect x="43" y="10" width="1" height="1" fill="#c8cfd1"/>
  <rect x="45" y="10" width="2" height="1" fill="#e8eef0"/>
  <rect x="64" y="10" width="1" height="5" fill="#eff2f1"/>
  <rect x="65" y="10" width="1" height="6" fill="#cacdcc"/>
  <rect x="24" y="11" width="2" height="1" fill="#ecf0ef"/>
  <rect x="26" y="11" width="1" height="1" fill="#eaf1ef"/>
  <rect x="27" y="11" width="3" height="1" fill="#eaf1f1"/>
  <rect x="30" y="11" width="2" height="1" fill="#ebf2f2"/>
  <rect x="32" y="11" width="4" height="1" fill="#eaf1f1"/>
  <rect x="36" y="11" width="4" height="1" fill="#eaf0f3"/>
  <rect x="40" y="11" width="1" height="1" fill="#e9eff2"/>
  <rect x="41" y="11" width="1" height="1" fill="#eaf0f3"/>
  <rect x="42" y="11" width="1" height="1" fill="#ebf2f4"/>
  <rect x="43" y="11" width="2" height="1" fill="#c7cdd0"/>
  <rect x="45" y="11" width="1" height="1" fill="#e8eef0"/>
  <rect x="46" y="11" width="1" height="1" fill="#e9eff2"/>
  <rect x="58" y="11" width="3" height="1" fill="#eaeff0"/>
  <rect x="61" y="11" width="3" height="1" fill="#eaefee"/>
  <rect x="23" y="12" width="1" height="2" fill="#e8ebea"/>
  <rect x="24" y="12" width="2" height="1" fill="#e9eeee"/>
  <rect x="26" y="12" width="2" height="1" fill="#e8eeee"/>
  <rect x="28" y="12" width="2" height="1" fill="#e8eef0"/>
  <rect x="30" y="12" width="2" height="1" fill="#e6edef"/>
  <rect x="32" y="12" width="4" height="1" fill="#e8eeee"/>
  <rect x="36" y="12" width="4" height="1" fill="#e8eef0"/>
  <rect x="40" y="12" width="1" height="1" fill="#e6edef"/>
  <rect x="41" y="12" width="1" height="1" fill="#e8eef0"/>
  <rect x="42" y="12" width="1" height="1" fill="#e9eff2"/>
  <rect x="43" y="12" width="1" height="1" fill="#c5cbcd"/>
  <rect x="44" y="12" width="1" height="2" fill="#c8cfd1"/>
  <rect x="45" y="12" width="1" height="1" fill="#e9eff2"/>
  <rect x="46" y="12" width="1" height="1" fill="#ebf2f4"/>
  <rect x="47" y="12" width="1" height="2" fill="#f0f6f9"/>
  <rect x="48" y="12" width="4" height="1" fill="#edf4f6"/>
  <rect x="52" y="12" width="8" height="1" fill="#eff3f6"/>
  <rect x="60" y="12" width="4" height="1" fill="#f1f3f4"/>
  <rect x="24" y="13" width="2" height="1" fill="#e8eced"/>
  <rect x="26" y="13" width="2" height="1" fill="#e6eded"/>
  <rect x="28" y="13" width="4" height="1" fill="#e6edef"/>
  <rect x="32" y="13" width="2" height="1" fill="#e5ecec"/>
  <rect x="34" y="13" width="2" height="1" fill="#e6eded"/>
  <rect x="36" y="13" width="4" height="1" fill="#e6edef"/>
  <rect x="40" y="13" width="2" height="1" fill="#e5ecee"/>
  <rect x="42" y="13" width="1" height="1" fill="#e6edef"/>
  <rect x="43" y="13" width="1" height="1" fill="#c3cacc"/>
  <rect x="45" y="13" width="1" height="1" fill="#eaf0f3"/>
  <rect x="46" y="13" width="1" height="1" fill="#edf4f6"/>
  <rect x="48" y="13" width="4" height="1" fill="#eff5f7"/>
  <rect x="52" y="13" width="8" height="2" fill="#f0f4f7"/>
  <rect x="60" y="13" width="4" height="2" fill="#f2f4f5"/>
  <rect x="22" y="14" width="1" height="2" fill="#cacdcc"/>
  <rect x="23" y="14" width="1" height="2" fill="#e7eae9"/>
  <rect x="24" y="14" width="2" height="4" fill="#e6eaeb"/>
  <rect x="26" y="14" width="2" height="4" fill="#e4ebeb"/>
  <rect x="28" y="14" width="4" height="2" fill="#e4ebed"/>
  <rect x="32" y="14" width="4" height="2" fill="#e4ebeb"/>
  <rect x="36" y="14" width="6" height="1" fill="#e4ebed"/>
  <rect x="42" y="14" width="1" height="1" fill="#e5ecee"/>
  <rect x="43" y="14" width="1" height="2" fill="#c2c9cb"/>
  <rect x="44" y="14" width="1" height="4" fill="#c7cdd0"/>
  <rect x="45" y="14" width="1" height="1" fill="#ebf2f4"/>
  <rect x="46" y="14" width="6" height="1" fill="#eff5f7"/>
  <rect x="36" y="15" width="5" height="1" fill="#e4ebed"/>
  <rect x="41" y="15" width="1" height="1" fill="#e3e9ec"/>
  <rect x="42" y="15" width="1" height="1" fill="#e4ebed"/>
  <rect x="45" y="15" width="1" height="2" fill="#ecf3f5"/>
  <rect x="46" y="15" width="1" height="2" fill="#f0f6f9"/>
  <rect x="47" y="15" width="1" height="3" fill="#eff5f7"/>
  <rect x="48" y="15" width="4" height="1" fill="#f0f6f9"/>
  <rect x="52" y="15" width="8" height="1" fill="#f1f5f9"/>
  <rect x="60" y="15" width="4" height="1" fill="#f3f5f7"/>
  <rect x="64" y="15" width="1" height="1" fill="#eff1f3"/>
  <rect x="22" y="16" width="1" height="2" fill="#cbcdcf"/>
  <rect x="23" y="16" width="1" height="2" fill="#e7e9eb"/>
  <rect x="28" y="16" width="12" height="2" fill="#e4ebed"/>
  <rect x="40" y="16" width="1" height="4" fill="#e5ecee"/>
  <rect x="41" y="16" width="1" height="1" fill="#e2e8eb"/>
  <rect x="42" y="16" width="1" height="1" fill="#e3e9ec"/>
  <rect x="43" y="16" width="1" height="3" fill="#c3cacc"/>
  <rect x="48" y="16" width="16" height="1" fill="#f1f5f9"/>
  <rect x="64" y="16" width="1" height="4" fill="#f1f3f4"/>
  <rect x="65" y="16" width="1" height="3" fill="#cbcdcf"/>
  <rect x="41" y="17" width="1" height="2" fill="#e1e7e9"/>
  <rect x="42" y="17" width="1" height="2" fill="#e2e8eb"/>
  <rect x="45" y="17" width="1" height="2" fill="#edf4f6"/>
  <rect x="46" y="17" width="1" height="2" fill="#f1f7fa"/>
  <rect x="48" y="17" width="16" height="2" fill="#f2f7fa"/>
  <rect x="22" y="18" width="1" height="1" fill="#ced0d1"/>
  <rect x="23" y="18" width="1" height="2" fill="#e6e8ea"/>
  <rect x="24" y="18" width="2" height="2" fill="#e5e9ea"/>
  <rect x="26" y="18" width="2" height="1" fill="#e3eaea"/>
  <rect x="28" y="18" width="12" height="1" fill="#e3e9ec"/>
  <rect x="44" y="18" width="1" height="1" fill="#c6cccf"/>
  <rect x="47" y="18" width="1" height="2" fill="#edf4f6"/>
  <rect x="22" y="19" width="1" height="1" fill="#ced0d1de"/>
  <rect x="26" y="19" width="1" height="1" fill="#e3eaea"/>
  <rect x="27" y="19" width="13" height="1" fill="#e3e9ec"/>
  <rect x="41" y="19" width="1" height="1" fill="#dfe6e8"/>
  <rect x="42" y="19" width="1" height="1" fill="#e1e7e9"/>
  <rect x="43" y="19" width="1" height="1" fill="#c3cacce6"/>
  <rect x="44" y="19" width="1" height="1" fill="#c6cccfde"/>
  <rect x="45" y="19" width="1" height="1" fill="#eff5f7"/>
  <rect x="46" y="19" width="1" height="1" fill="#f2f9fb"/>
  <rect x="48" y="19" width="16" height="1" fill="#f4f8fb"/>
  <rect x="65" y="19" width="1" height="1" fill="#cbcdcfe6"/>
  <rect x="22" y="20" width="1" height="1" fill="#ced0d175"/>
  <rect x="23" y="20" width="1" height="1" fill="#cbcdcf"/>
  <rect x="24" y="20" width="2" height="1" fill="#e0e4e7"/>
  <rect x="26" y="20" width="2" height="1" fill="#dee5e7"/>
  <rect x="28" y="20" width="4" height="1" fill="#dee4e9"/>
  <rect x="32" y="20" width="10" height="1" fill="#dee5e7"/>
  <rect x="42" y="20" width="1" height="1" fill="#cad1d3"/>
  <rect x="43" y="20" width="1" height="1" fill="#cad1d37d"/>
  <rect x="44" y="20" width="1" height="1" fill="#c8cfd175"/>
  <rect x="45" y="20" width="1" height="1" fill="#d5dbde"/>
  <rect x="46" y="20" width="1" height="1" fill="#f6fcfe"/>
  <rect x="47" y="20" width="1" height="1" fill="#f1f7fa"/>
  <rect x="48" y="20" width="11" height="1" fill="#f5f9fc"/>
  <rect x="59" y="20" width="1" height="1" fill="#f2f7fa"/>
  <rect x="60" y="20" width="1" height="1" fill="#f1f5f9"/>
  <rect x="61" y="20" width="3" height="1" fill="#f0f4f7"/>
  <rect x="64" y="20" width="1" height="1" fill="#d5d7d8"/>
  <rect x="65" y="20" width="1" height="1" fill="#cfd1d27d"/>
  <rect x="23" y="21" width="1" height="1" fill="#cbcdcf7a"/>
  <rect x="24" y="21" width="1" height="1" fill="#c7cbcfe3"/>
  <rect x="25" y="21" width="1" height="1" fill="#c7cbcf"/>
  <rect x="26" y="21" width="2" height="1" fill="#c6cccf"/>
  <rect x="28" y="21" width="4" height="1" fill="#c6ccd1"/>
  <rect x="32" y="21" width="8" height="1" fill="#c6cccf"/>
  <rect x="40" y="21" width="1" height="1" fill="#c9d0d2"/>
  <rect x="41" y="21" width="1" height="1" fill="#cfd6d8e5"/>
  <rect x="42" y="21" width="1" height="1" fill="#ccd2d47c"/>
  <rect x="45" y="21" width="1" height="1" fill="#c9d0d27d"/>
  <rect x="46" y="21" width="1" height="1" fill="#c9d0d2e6"/>
  <rect x="47" y="21" width="1" height="1" fill="#c9d0d2"/>
  <rect x="48" y="21" width="12" height="1" fill="#caced1"/>
  <rect x="60" y="21" width="3" height="1" fill="#c9cdd0"/>
  <rect x="63" y="21" width="1" height="1" fill="#caced1e6"/>
  <rect x="64" y="21" width="1" height="1" fill="#cfd1d27d"/>
</svg>