<svg xmlns="http://www.w3.org/2000/svg" width="23" height="22" viewBox="0 0 23 22" shape-rendering="crispEdges">
  <rect x="10" y="6" width="1" height="1" fill="#8493a7"/>
  <rect x="11" y="6" width="1" height="1" fill="#7b8aa2"/>
  <rect x="12" y="6" width="1" height="1" fill="#8492ab"/>
  <rect x="13" y="6" width="1" height="1" fill="#808fa1"/>
  <rect x="14" y="6" width="1" height="1" fill="#889a9f"/>
  <rect x="15" y="6" width="1" height="1" fill="#869696"/>
  <rect x="11" y="7" width="1" height="1" fill="#e1fbff"/>
  <rect x="12" y="7" width="1" height="1" fill="#8099b7"/>
  <rect x="13" y="7" width="1" height="1" fill="#8ca1b7"/>
  <rect x="14" y="7" width="1" height="1" fill="#e8fbff"/>
  <rect x="15" y="7" width="1" height="1" fill="#f7ffff"/>
  <rect x="16" y="7" width="1" height="1" fill="#faffff"/>
  <rect x="11" y="8" width="1" height="1" fill="#79a1c34a"/>
  <rect x="12" y="8" width="1" height="1" fill="#7292b0"/>
  <rect x="13" y="8" width="1" height="1" fill="#b0c8defd"/>
  <rect x="14" y="8" width="1" height="1" fill="#faffffdc"/>
  <rect x="11" y="9" width="1" height="1" fill="#608cb28e"/>
  <rect x="12" y="9" width="1" height="1" fill="#7192b0"/>
  <rect x="13" y="9" width="1" height="1" fill="#c4d9ed"/>
  <rect x="14" y="9" width="1" height="1" fill="#faffff9a"/>
  <rect x="11" y="10" width="1" height="1" fill="#5a84a8d3"/>
  <rect x="12" y="10" width="1" height="1" fill="#7595ae"/>
  <rect x="13" y="10" width="1" height="1" fill="#dff3ff"/>
  <rect x="14" y="10" width="1" height="1" fill="#f6fcff59"/>
  <rect x="10" y="11" width="1" height="1" fill="#6286a318"/>
  <rect x="11" y="11" width="1" height="1" fill="#648cacfe"/>
  <rect x="12" y="11" width="1" height="1" fill="#7894aaf8"/>
  <rect x="13" y="11" width="1" height="1" fill="#f3ffff"/>
  <rect x="14" y="11" width="1" height="1" fill="#f4f8fb18"/>
  <rect x="10" y="12" width="1" height="1" fill="#6084a35c"/>
  <rect x="11" y="12" width="1" height="1" fill="#5a809e"/>
  <rect x="12" y="12" width="1" height="1" fill="#9fb6c7"/>
  <rect x="13" y="12" width="1" height="1" fill="#fcffffd5"/>
  <rect x="10" y="13" width="1" height="1" fill="#517896a1"/>
  <rect x="11" y="13" width="1" height="1" fill="#5e809b"/>
  <rect x="12" y="13" width="1" height="1" fill="#c4d7e5"/>
  <rect x="13" y="13" width="1" height="1" fill="#faffff94"/>
  <rect x="10" y="14" width="1" height="1" fill="#567c9be4"/>
  <rect x="11" y="14" width="1" height="1" fill="#55758ffe"/>
  <rect x="12" y="14" width="1" height="1" fill="#e7f5ff"/>
  <rect x="13" y="14" width="1" height="1" fill="#fcffff54"/>
  <rect x="8" y="15" width="1" height="1" fill="#748591"/>
  <rect x="9" y="15" width="1" height="1" fill="#60788b"/>
  <rect x="10" y="15" width="1" height="1" fill="#627e94"/>
  <rect x="11" y="15" width="1" height="1" fill="#587181"/>
  <rect x="12" y="15" width="1" height="1" fill="#6f7981"/>
  <rect x="13" y="15" width="1" height="1" fill="#717372"/>
  <rect x="9" y="16" width="1" height="1" fill="#f9ffff"/>
  <rect x="10" y="16" width="2" height="1" fill="#f7ffff"/>
  <rect x="12" y="16" width="1" height="1" fill="#fcffff"/>
  <rect x="13" y="16" width="1" height="1" fill="#fdfffd"/>
  <rect x="14" y="16" width="1" height="1" fill="#fffffb"/>
</svg>