<svg xmlns="http://www.w3.org/2000/svg" width="30" height="31" viewBox="0 0 30 31" shape-rendering="crispEdges">
  <rect x="0" y="0" width="1" height="1" fill="#bdbdbd49"/>
  <rect x="1" y="0" width="1" height="1" fill="#bababae6"/>
  <rect x="2" y="0" width="2" height="1" fill="#bbbbbb"/>
  <rect x="4" y="0" width="1" height="1" fill="#bebebe"/>
  <rect x="5" y="0" width="3" height="1" fill="#c0c0c0"/>
  <rect x="8" y="0" width="1" height="1" fill="#bdbdbde6"/>
  <rect x="9" y="0" width="1" height="1" fill="#bdbdbd49"/>
  <rect x="11" y="0" width="1" height="1" fill="#bbbbbbc3"/>
  <rect x="12" y="0" width="3" height="1" fill="#bababa"/>
  <rect x="15" y="0" width="1" height="1" fill="#bababc"/>
  <rect x="16" y="0" width="1" height="1" fill="#babbbf"/>
  <rect x="17" y="0" width="1" height="1" fill="#b6b8bc"/>
  <rect x="18" y="0" width="1" height="1" fill="#bfc0c4c3"/>
  <rect x="20" y="0" width="1" height="1" fill="#b9babe49"/>
  <rect x="21" y="0" width="1" height="1" fill="#b8b9bde6"/>
  <rect x="22" y="0" width="1" height="1" fill="#bfc0c4"/>
  <rect x="23" y="0" width="1" height="1" fill="#bdbfc3"/>
  <rect x="24" y="0" width="1" height="1" fill="#bfc1c2"/>
  <rect x="25" y="0" width="1" height="1" fill="#bcbec0"/>
  <rect x="26" y="0" width="1" height="1" fill="#babcbd"/>
  <rect x="27" y="0" width="1" height="1" fill="#b8babb"/>
  <rect x="28" y="0" width="1" height="1" fill="#bbbdbfe6"/>
  <rect x="29" y="0" width="1" height="1" fill="#bbbdbf49"/>
  <rect x="0" y="1" width="1" height="1" fill="#b9b9b9ed"/>
  <rect x="1" y="1" width="1" height="1" fill="#c2c2c2"/>
  <rect x="2" y="1" width="1" height="1" fill="#bdbdbd"/>
  <rect x="3" y="1" width="1" height="1" fill="#c7c7c7"/>
  <rect x="4" y="1" width="4" height="1" fill="#bdbdbd"/>
  <rect x="8" y="1" width="1" height="1" fill="#b4b4b4"/>
  <rect x="9" y="1" width="1" height="1" fill="#c0c0c0ed"/>
  <rect x="11" y="1" width="1" height="1" fill="#c7c7c7f1"/>
  <rect x="12" y="1" width="3" height="1" fill="#bebebe"/>
  <rect x="15" y="1" width="1" height="1" fill="#bebdc0"/>
  <rect x="16" y="1" width="2" height="1" fill="#bcbec2"/>
  <rect x="18" y="1" width="1" height="1" fill="#c4c6caf1"/>
  <rect x="20" y="1" width="1" height="1" fill="#babbbfed"/>
  <rect x="21" y="1" width="1" height="1" fill="#babbbf"/>
  <rect x="22" y="1" width="2" height="1" fill="#b8b9bd"/>
  <rect x="24" y="1" width="1" height="1" fill="#bbbdbf"/>
  <rect x="25" y="1" width="1" height="1" fill="#babcbd"/>
  <rect x="26" y="1" width="2" height="1" fill="#b9bbbc"/>
  <rect x="28" y="1" width="1" height="1" fill="#bbbdbf"/>
  <rect x="29" y="1" width="1" height="1" fill="#bbbdbfed"/>
  <rect x="0" y="2" width="1" height="1" fill="#b9b9b9"/>
  <rect x="1" y="2" width="1" height="1" fill="#bababa"/>
  <rect x="2" y="2" width="1" height="1" fill="#fdfdfd"/>
  <rect x="3" y="2" width="1" height="1" fill="#fefefe"/>
  <rect x="4" y="2" width="4" height="1" fill="#ffffff"/>
  <rect x="8" y="2" width="1" height="1" fill="#c2c2c2"/>
  <rect x="9" y="2" width="1" height="1" fill="#b9b9b9"/>
  <rect x="11" y="2" width="1" height="1" fill="#ffffffc3"/>
  <rect x="12" y="2" width="4" height="1" fill="#ffffff"/>
  <rect x="16" y="2" width="1" height="1" fill="#fbfdff"/>
  <rect x="17" y="2" width="1" height="1" fill="#fcfeff"/>
  <rect x="18" y="2" width="1" height="1" fill="#fcfeffc4"/>
  <rect x="20" y="2" width="1" height="1" fill="#b8b9bd"/>
  <rect x="21" y="2" width="1" height="1" fill="#b6b8bc"/>
  <rect x="22" y="2" width="2" height="1" fill="#fcfeff"/>
  <rect x="24" y="2" width="2" height="1" fill="#fdffff"/>
  <rect x="26" y="2" width="2" height="1" fill="#ffffff"/>
  <rect x="28" y="2" width="2" height="6" fill="#bbbdbf"/>
  <rect x="0" y="3" width="1" height="1" fill="#bdbdbd"/>
  <rect x="1" y="3" width="1" height="1" fill="#b3b3b3"/>
  <rect x="3" y="3" width="1" height="1" fill="#bababa49"/>
  <rect x="4" y="3" width="2" height="1" fill="#bdbdbde6"/>
  <rect x="6" y="3" width="1" height="1" fill="#bdbdbd49"/>
  <rect x="8" y="3" width="1" height="1" fill="#bdbdbd"/>
  <rect x="9" y="3" width="1" height="1" fill="#b7b7b7"/>
  <rect x="20" y="3" width="1" height="1" fill="#bbbdc1"/>
  <rect x="21" y="3" width="1" height="1" fill="#b8b9bd"/>
  <rect x="23" y="3" width="1" height="1" fill="#bdbfc349"/>
  <rect x="24" y="3" width="1" height="1" fill="#b8babbe6"/>
  <rect x="25" y="3" width="1" height="1" fill="#babcbde6"/>
  <rect x="26" y="3" width="1" height="1" fill="#bdbfc149"/>
  <rect x="0" y="4" width="1" height="1" fill="#bababa"/>
  <rect x="1" y="4" width="1" height="1" fill="#b2b2b2"/>
  <rect x="3" y="4" width="1" height="1" fill="#b6b6b6ed"/>
  <rect x="4" y="4" width="1" height="1" fill="#c4c4c4"/>
  <rect x="5" y="4" width="1" height="1" fill="#b8b8b8"/>
  <rect x="6" y="4" width="1" height="1" fill="#bebebeed"/>
  <rect x="8" y="4" width="1" height="2" fill="#bdbcbf"/>
  <rect x="9" y="4" width="1" height="1" fill="#bababc"/>
  <rect x="11" y="4" width="1" height="1" fill="#b8b8bac3"/>
  <rect x="12" y="4" width="1" height="1" fill="#bababcc3"/>
  <rect x="17" y="4" width="1" height="1" fill="#bcbec2c3"/>
  <rect x="18" y="4" width="1" height="1" fill="#babbbfc3"/>
  <rect x="20" y="4" width="2" height="1" fill="#babbbf"/>
  <rect x="23" y="4" width="1" height="1" fill="#bcbec2ed"/>
  <rect x="24" y="4" width="1" height="1" fill="#bcbec0"/>
  <rect x="25" y="4" width="1" height="2" fill="#bbbdbf"/>
  <rect x="26" y="4" width="1" height="1" fill="#b9bbbced"/>
  <rect x="0" y="5" width="1" height="2" fill="#b9b9b9"/>
  <rect x="1" y="5" width="1" height="1" fill="#b8b8b8"/>
  <rect x="3" y="5" width="1" height="1" fill="#cbcbcbfd"/>
  <rect x="4" y="5" width="1" height="1" fill="#bbbbbb"/>
  <rect x="5" y="5" width="1" height="1" fill="#c2c2c2"/>
  <rect x="6" y="5" width="1" height="1" fill="#bababafd"/>
  <rect x="9" y="5" width="1" height="1" fill="#bebdc0"/>
  <rect x="11" y="5" width="2" height="1" fill="#b8b8ba"/>
  <rect x="14" y="5" width="1" height="1" fill="#bebdc0c3"/>
  <rect x="15" y="5" width="1" height="1" fill="#c2c2c4"/>
  <rect x="16" y="5" width="1" height="1" fill="#babbbf"/>
  <rect x="17" y="5" width="1" height="1" fill="#bfc0c4"/>
  <rect x="18" y="5" width="1" height="1" fill="#b9babe"/>
  <rect x="20" y="5" width="1" height="1" fill="#babbbf"/>
  <rect x="21" y="5" width="1" height="1" fill="#b9babe"/>
  <rect x="23" y="5" width="1" height="1" fill="#c2c4c8fd"/>
  <rect x="24" y="5" width="1" height="1" fill="#babcbd"/>
  <rect x="26" y="5" width="1" height="1" fill="#c2c4c6fd"/>
  <rect x="1" y="6" width="1" height="1" fill="#bbbbbb"/>
  <rect x="3" y="6" width="1" height="1" fill="#e8e8e8ed"/>
  <rect x="4" y="6" width="1" height="1" fill="#c6c6c6"/>
  <rect x="5" y="6" width="1" height="1" fill="#c7c7c7"/>
  <rect x="6" y="6" width="1" height="1" fill="#f0f0f0ee"/>
  <rect x="8" y="6" width="1" height="2" fill="#bbbdbf"/>
  <rect x="9" y="6" width="1" height="2" fill="#bcbec0"/>
  <rect x="11" y="6" width="1" height="2" fill="#b6b8ba"/>
  <rect x="12" y="6" width="1" height="1" fill="#babcbd"/>
  <rect x="14" y="6" width="1" height="1" fill="#c0c2c3f1"/>
  <rect x="15" y="6" width="1" height="1" fill="#babcbd"/>
  <rect x="16" y="6" width="1" height="1" fill="#b8b9bd"/>
  <rect x="17" y="6" width="1" height="1" fill="#bbbdc1"/>
  <rect x="18" y="6" width="1" height="1" fill="#bcbec2"/>
  <rect x="20" y="6" width="1" height="1" fill="#b8b9bd"/>
  <rect x="21" y="6" width="1" height="1" fill="#babbbf"/>
  <rect x="23" y="6" width="1" height="1" fill="#eaebefed"/>
  <rect x="24" y="6" width="2" height="1" fill="#c2c4c6"/>
  <rect x="26" y="6" width="1" height="1" fill="#e8eaecee"/>
  <rect x="0" y="7" width="1" height="1" fill="#b6b6b6"/>
  <rect x="1" y="7" width="1" height="1" fill="#bfbfbf"/>
  <rect x="3" y="7" width="1" height="1" fill="#fdfdfd4a"/>
  <rect x="4" y="7" width="1" height="1" fill="#f7f7f7e7"/>
  <rect x="5" y="7" width="1" height="1" fill="#fefefee4"/>
  <rect x="6" y="7" width="1" height="1" fill="#ffffff4a"/>
  <rect x="12" y="7" width="1" height="1" fill="#b9bbbc"/>
  <rect x="14" y="7" width="1" height="1" fill="#ffffffc3"/>
  <rect x="15" y="7" width="1" height="1" fill="#fdffff"/>
  <rect x="16" y="7" width="1" height="1" fill="#f8f9fd"/>
  <rect x="17" y="7" width="1" height="1" fill="#caccd0"/>
  <rect x="18" y="7" width="1" height="1" fill="#cdced2"/>
  <rect x="20" y="7" width="1" height="1" fill="#babbbf"/>
  <rect x="21" y="7" width="1" height="1" fill="#bbbdc1"/>
  <rect x="23" y="7" width="1" height="1" fill="#fafcff4a"/>
  <rect x="24" y="7" width="1" height="1" fill="#ffffffe7"/>
  <rect x="25" y="7" width="1" height="1" fill="#ffffffe4"/>
  <rect x="26" y="7" width="1" height="1" fill="#fdffff4a"/>
  <rect x="0" y="8" width="1" height="1" fill="#c8c8c8"/>
  <rect x="1" y="8" width="1" height="1" fill="#bbbbbb"/>
  <rect x="2" y="8" width="1" height="1" fill="#bababa"/>
  <rect x="3" y="8" width="1" height="1" fill="#b9b9b9"/>
  <rect x="4" y="8" width="1" height="1" fill="#b2b2b4"/>
  <rect x="5" y="8" width="1" height="1" fill="#b9b9bb"/>
  <rect x="6" y="8" width="1" height="1" fill="#b6b8ba"/>
  <rect x="7" y="8" width="1" height="1" fill="#b5b7b9"/>
  <rect x="8" y="8" width="1" height="1" fill="#babcbd"/>
  <rect x="9" y="8" width="1" height="1" fill="#c4c6c8"/>
  <rect x="11" y="8" width="1" height="1" fill="#bfc4c4"/>
  <rect x="12" y="8" width="1" height="2" fill="#b7bbbe"/>
  <rect x="17" y="8" width="1" height="1" fill="#ffffffc3"/>
  <rect x="18" y="8" width="1" height="1" fill="#ffffffc4"/>
  <rect x="20" y="8" width="1" height="1" fill="#bfc1c2"/>
  <rect x="21" y="8" width="1" height="1" fill="#b9bbbc"/>
  <rect x="22" y="8" width="1" height="1" fill="#bcbec0"/>
  <rect x="23" y="8" width="3" height="1" fill="#b9bbbc"/>
  <rect x="26" y="8" width="2" height="1" fill="#babcbd"/>
  <rect x="28" y="8" width="1" height="1" fill="#b9bbbc"/>
  <rect x="29" y="8" width="1" height="1" fill="#bfc1c2"/>
  <rect x="0" y="9" width="1" height="1" fill="#e8e8e8ed"/>
  <rect x="1" y="9" width="1" height="1" fill="#cbcbcb"/>
  <rect x="2" y="9" width="1" height="1" fill="#b9b9b9"/>
  <rect x="3" y="9" width="1" height="1" fill="#b7b7b7"/>
  <rect x="4" y="9" width="1" height="1" fill="#b8b8ba"/>
  <rect x="5" y="9" width="1" height="1" fill="#c0c0c2"/>
  <rect x="6" y="9" width="1" height="1" fill="#bcbec0"/>
  <rect x="7" y="9" width="1" height="1" fill="#babcbd"/>
  <rect x="8" y="9" width="1" height="1" fill="#c6c8c9"/>
  <rect x="9" y="9" width="1" height="1" fill="#e5e7e9ee"/>
  <rect x="11" y="9" width="1" height="1" fill="#b4b8b9"/>
  <rect x="14" y="9" width="1" height="1" fill="#bdc1c4c3"/>
  <rect x="15" y="9" width="1" height="1" fill="#bcc0c3c3"/>
  <rect x="20" y="9" width="1" height="1" fill="#e7e9ebed"/>
  <rect x="21" y="9" width="1" height="1" fill="#c2c4c6"/>
  <rect x="22" y="9" width="1" height="1" fill="#b8babb"/>
  <rect x="23" y="9" width="1" height="1" fill="#c1c3c4"/>
  <rect x="24" y="9" width="1" height="1" fill="#bdbfc1"/>
  <rect x="25" y="9" width="1" height="1" fill="#bbbdbf"/>
  <rect x="26" y="9" width="1" height="1" fill="#b9bbbc"/>
  <rect x="27" y="9" width="1" height="1" fill="#b6b8ba"/>
  <rect x="28" y="9" width="1" height="1" fill="#c3c5c7"/>
  <rect x="29" y="9" width="1" height="1" fill="#e7e9ebee"/>
  <rect x="0" y="10" width="1" height="1" fill="#ffffff4a"/>
  <rect x="1" y="10" width="1" height="1" fill="#fdfdfde7"/>
  <rect x="2" y="10" width="1" height="1" fill="#fefefe"/>
  <rect x="3" y="10" width="1" height="1" fill="#ffffff"/>
  <rect x="4" y="10" width="1" height="1" fill="#fefdff"/>
  <rect x="5" y="10" width="1" height="1" fill="#ffffff"/>
  <rect x="6" y="10" width="1" height="1" fill="#fdffff"/>
  <rect x="7" y="10" width="1" height="1" fill="#fbfdff"/>
  <rect x="8" y="10" width="1" height="1" fill="#f2f7f8e4"/>
  <rect x="9" y="10" width="1" height="1" fill="#f8fdfe4a"/>
  <rect x="11" y="10" width="1" height="1" fill="#b3baba"/>
  <rect x="12" y="10" width="1" height="1" fill="#b2b9b9"/>
  <rect x="14" y="10" width="1" height="1" fill="#b8bfbf"/>
  <rect x="15" y="10" width="1" height="1" fill="#b8bdbd"/>
  <rect x="20" y="10" width="1" height="1" fill="#fbfdff4a"/>
  <rect x="21" y="10" width="1" height="1" fill="#fdffffe7"/>
  <rect x="22" y="10" width="1" height="1" fill="#fdffff"/>
  <rect x="23" y="10" width="1" height="1" fill="#ffffff"/>
  <rect x="24" y="10" width="4" height="1" fill="#fbfdff"/>
  <rect x="28" y="10" width="1" height="1" fill="#fcfeffe4"/>
  <rect x="29" y="10" width="1" height="1" fill="#ffffff4a"/>
  <rect x="0" y="11" width="1" height="1" fill="#b9b9b9c3"/>
  <rect x="1" y="11" width="1" height="1" fill="#c9c9c9c3"/>
  <rect x="3" y="11" width="1" height="1" fill="#b9b9b9c3"/>
  <rect x="4" y="11" width="1" height="1" fill="#b8b8ba"/>
  <rect x="5" y="11" width="1" height="1" fill="#bfbfc1"/>
  <rect x="6" y="11" width="1" height="1" fill="#bbbdbf"/>
  <rect x="7" y="11" width="1" height="1" fill="#bcbec0"/>
  <rect x="8" y="11" width="1" height="1" fill="#bec3c3"/>
  <rect x="9" y="11" width="1" height="1" fill="#bdc1c2"/>
  <rect x="10" y="11" width="1" height="1" fill="#b4bbbb"/>
  <rect x="11" y="11" width="1" height="1" fill="#b0b7b6"/>
  <rect x="12" y="11" width="1" height="1" fill="#b1b8b8"/>
  <rect x="14" y="11" width="1" height="1" fill="#b7bebd"/>
  <rect x="15" y="11" width="1" height="1" fill="#b7bcbc"/>
  <rect x="17" y="11" width="2" height="1" fill="#babcbdc3"/>
  <rect x="20" y="11" width="1" height="1" fill="#babcbdc3"/>
  <rect x="21" y="11" width="1" height="1" fill="#babcbd"/>
  <rect x="22" y="11" width="1" height="1" fill="#b9bbbcc3"/>
  <rect x="24" y="11" width="1" height="1" fill="#b6b8bac3"/>
  <rect x="25" y="11" width="1" height="1" fill="#bbbdbfc3"/>
  <rect x="28" y="11" width="2" height="1" fill="#b9bbbcc3"/>
  <rect x="0" y="12" width="1" height="1" fill="#b7b6b9"/>
  <rect x="1" y="12" width="1" height="1" fill="#c5c4c7"/>
  <rect x="3" y="12" width="1" height="1" fill="#c8c8caf1"/>
  <rect x="4" y="12" width="1" height="1" fill="#bababc"/>
  <rect x="5" y="12" width="1" height="4" fill="#bbbbbd"/>
  <rect x="6" y="12" width="1" height="4" fill="#babcbd"/>
  <rect x="7" y="12" width="1" height="1" fill="#b9bbbc"/>
  <rect x="8" y="12" width="1" height="1" fill="#b7bcbc"/>
  <rect x="9" y="12" width="1" height="1" fill="#b8bdbd"/>
  <rect x="10" y="12" width="1" height="1" fill="#b6babb"/>
  <rect x="11" y="12" width="1" height="1" fill="#b2b7b8"/>
  <rect x="12" y="12" width="1" height="1" fill="#bdc1c4"/>
  <rect x="14" y="12" width="1" height="1" fill="#c0c4c8"/>
  <rect x="15" y="12" width="1" height="1" fill="#b5b9bc"/>
  <rect x="17" y="12" width="2" height="1" fill="#bbbdbf"/>
  <rect x="20" y="12" width="1" height="1" fill="#c3c5c7f1"/>
  <rect x="21" y="12" width="1" height="1" fill="#bfc1c2"/>
  <rect x="22" y="12" width="1" height="1" fill="#c7c9caf1"/>
  <rect x="24" y="12" width="1" height="4" fill="#bbbdbf"/>
  <rect x="25" y="12" width="1" height="5" fill="#babcbd"/>
  <rect x="28" y="12" width="2" height="4" fill="#bbbdbf"/>
  <rect x="0" y="13" width="1" height="1" fill="#bababc"/>
  <rect x="1" y="13" width="1" height="1" fill="#bfbfc1"/>
  <rect x="3" y="13" width="1" height="1" fill="#f8f8fac3"/>
  <rect x="4" y="13" width="1" height="1" fill="#fefdff"/>
  <rect x="7" y="13" width="1" height="1" fill="#fcfeff"/>
  <rect x="8" y="13" width="1" height="1" fill="#ffffff"/>
  <rect x="9" y="13" width="1" height="1" fill="#fdffff"/>
  <rect x="10" y="13" width="1" height="1" fill="#fcffff"/>
  <rect x="11" y="13" width="1" height="1" fill="#feffff"/>
  <rect x="12" y="13" width="1" height="1" fill="#fbffffc4"/>
  <rect x="14" y="13" width="1" height="1" fill="#b2b6ba"/>
  <rect x="15" y="13" width="1" height="1" fill="#b1b5b9"/>
  <rect x="17" y="13" width="2" height="1" fill="#b5b7b9"/>
  <rect x="20" y="13" width="1" height="1" fill="#f9fbfcc3"/>
  <rect x="21" y="13" width="1" height="1" fill="#fbfdff"/>
  <rect x="22" y="13" width="1" height="1" fill="#f9fbfcc4"/>
  <rect x="0" y="14" width="1" height="1" fill="#bebdc0"/>
  <rect x="1" y="14" width="1" height="1" fill="#b9b9bb"/>
  <rect x="9" y="14" width="1" height="1" fill="#bbbfc0c3"/>
  <rect x="10" y="14" width="1" height="1" fill="#b8bdbdc3"/>
  <rect x="14" y="14" width="1" height="1" fill="#b6babb"/>
  <rect x="15" y="14" width="1" height="1" fill="#b5b9ba"/>
  <rect x="17" y="14" width="2" height="1" fill="#babcbd"/>
  <rect x="20" y="14" width="1" height="1" fill="#bbbdbfc3"/>
  <rect x="21" y="14" width="1" height="1" fill="#bbbdbf"/>
  <rect x="22" y="14" width="1" height="1" fill="#c0c2c3c3"/>
  <rect x="0" y="15" width="1" height="1" fill="#c7c7c9"/>
  <rect x="1" y="15" width="1" height="1" fill="#ceced0"/>
  <rect x="9" y="15" width="1" height="1" fill="#b9bebf"/>
  <rect x="10" y="15" width="1" height="1" fill="#b8bdbd"/>
  <rect x="14" y="15" width="1" height="1" fill="#b9bebf"/>
  <rect x="15" y="15" width="1" height="1" fill="#b0b5b5"/>
  <rect x="17" y="15" width="2" height="1" fill="#c7c9ca"/>
  <rect x="20" y="15" width="1" height="1" fill="#c8cacbf1"/>
  <rect x="21" y="15" width="1" height="1" fill="#babcbd"/>
  <rect x="22" y="15" width="1" height="1" fill="#c7c9caf1"/>
  <rect x="0" y="16" width="1" height="1" fill="#fbfdffc3"/>
  <rect x="1" y="16" width="1" height="1" fill="#f9fbfcc4"/>
  <rect x="5" y="16" width="1" height="1" fill="#c0c1c5"/>
  <rect x="6" y="16" width="1" height="1" fill="#c0c2c3"/>
  <rect x="9" y="16" width="1" height="1" fill="#c0c2c3"/>
  <rect x="10" y="16" width="1" height="1" fill="#bec3c1"/>
  <rect x="14" y="16" width="1" height="1" fill="#bbbfc0"/>
  <rect x="15" y="16" width="1" height="1" fill="#bdc1c2"/>
  <rect x="17" y="16" width="1" height="1" fill="#fbfdffc3"/>
  <rect x="18" y="16" width="1" height="1" fill="#fbfdffc4"/>
  <rect x="20" y="16" width="1" height="1" fill="#ffffffc3"/>
  <rect x="21" y="16" width="1" height="1" fill="#fcfeff"/>
  <rect x="22" y="16" width="1" height="1" fill="#fcfeffc4"/>
  <rect x="24" y="16" width="1" height="1" fill="#b4b6b8"/>
  <rect x="28" y="16" width="2" height="1" fill="#b9bbbc"/>
  <rect x="0" y="17" width="1" height="1" fill="#c3c5c7c3"/>
  <rect x="1" y="17" width="1" height="1" fill="#c6c8c9c3"/>
  <rect x="5" y="17" width="1" height="1" fill="#c9cbcf"/>
  <rect x="6" y="17" width="1" height="1" fill="#c9cbcd"/>
  <rect x="9" y="17" width="1" height="1" fill="#c9cbcd"/>
  <rect x="10" y="17" width="1" height="1" fill="#c7cccb"/>
  <rect x="14" y="17" width="2" height="1" fill="#bdc1c2"/>
  <rect x="16" y="17" width="1" height="1" fill="#bbbdbf"/>
  <rect x="17" y="17" width="2" height="1" fill="#b9bbbc"/>
  <rect x="19" y="17" width="1" height="1" fill="#bbbdbf"/>
  <rect x="20" y="17" width="2" height="1" fill="#b4b6b8"/>
  <rect x="22" y="17" width="1" height="1" fill="#bfc1c2c3"/>
  <rect x="24" y="17" width="1" height="1" fill="#bdbfc1"/>
  <rect x="25" y="17" width="1" height="1" fill="#b9bbbc"/>
  <rect x="28" y="17" width="2" height="1" fill="#babcbd"/>
  <rect x="0" y="18" width="1" height="1" fill="#c3c5c7f1"/>
  <rect x="1" y="18" width="1" height="1" fill="#c6c8c9f1"/>
  <rect x="5" y="18" width="1" height="1" fill="#ffffffc3"/>
  <rect x="6" y="18" width="1" height="1" fill="#ffffffc4"/>
  <rect x="9" y="18" width="1" height="1" fill="#ffffffc3"/>
  <rect x="10" y="18" width="1" height="1" fill="#ffffffc4"/>
  <rect x="14" y="18" width="1" height="1" fill="#c3c8c6"/>
  <rect x="15" y="18" width="1" height="1" fill="#b8bdbb"/>
  <rect x="16" y="18" width="1" height="1" fill="#bcbec0"/>
  <rect x="17" y="18" width="2" height="1" fill="#bdbfc1"/>
  <rect x="19" y="18" width="1" height="1" fill="#bcbec0"/>
  <rect x="20" y="18" width="1" height="1" fill="#b9bbbc"/>
  <rect x="21" y="18" width="1" height="1" fill="#babcbd"/>
  <rect x="22" y="18" width="1" height="1" fill="#c4c6c8f1"/>
  <rect x="24" y="18" width="1" height="1" fill="#c8cacb"/>
  <rect x="25" y="18" width="1" height="1" fill="#c6c8c9"/>
  <rect x="28" y="18" width="1" height="1" fill="#caccce"/>
  <rect x="29" y="18" width="1" height="1" fill="#cbcdcf"/>
  <rect x="0" y="19" width="1" height="1" fill="#fbfdffc3"/>
  <rect x="1" y="19" width="1" height="1" fill="#f9fbfcc4"/>
  <rect x="14" y="19" width="1" height="1" fill="#fbfffec3"/>
  <rect x="15" y="19" width="1" height="1" fill="#ffffff"/>
  <rect x="16" y="19" width="1" height="1" fill="#fafcfe"/>
  <rect x="17" y="19" width="2" height="1" fill="#ffffff"/>
  <rect x="19" y="19" width="1" height="1" fill="#fafcfe"/>
  <rect x="20" y="19" width="1" height="1" fill="#ffffff"/>
  <rect x="21" y="19" width="1" height="1" fill="#fafcfe"/>
  <rect x="22" y="19" width="1" height="1" fill="#fafcfec4"/>
  <rect x="24" y="19" width="1" height="1" fill="#ffffffc3"/>
  <rect x="25" y="19" width="1" height="1" fill="#fafcfec4"/>
  <rect x="28" y="19" width="1" height="1" fill="#fcfeffc3"/>
  <rect x="29" y="19" width="1" height="1" fill="#fcfeffc4"/>
  <rect x="0" y="20" width="1" height="1" fill="#babbbf49"/>
  <rect x="1" y="20" width="1" height="1" fill="#b4b6bae6"/>
  <rect x="2" y="20" width="3" height="1" fill="#babbbf"/>
  <rect x="5" y="20" width="1" height="1" fill="#b5b7bb"/>
  <rect x="6" y="20" width="1" height="1" fill="#b5b7b9"/>
  <rect x="7" y="20" width="1" height="1" fill="#bcbec0"/>
  <rect x="8" y="20" width="1" height="1" fill="#b3b5b4e6"/>
  <rect x="9" y="20" width="1" height="1" fill="#c3c6c549"/>
  <rect x="11" y="20" width="1" height="1" fill="#b6b9b8c3"/>
  <rect x="12" y="20" width="1" height="1" fill="#b6b9b8"/>
  <rect x="13" y="20" width="2" height="1" fill="#c2c4c4"/>
  <rect x="15" y="20" width="1" height="1" fill="#b6b9b8"/>
  <rect x="16" y="20" width="1" height="1" fill="#bbbdbfc3"/>
  <rect x="20" y="20" width="1" height="1" fill="#bfc1c249"/>
  <rect x="21" y="20" width="1" height="1" fill="#afb1b3e6"/>
  <rect x="22" y="20" width="1" height="1" fill="#babcbd"/>
  <rect x="23" y="20" width="1" height="1" fill="#bbbdbf"/>
  <rect x="24" y="20" width="1" height="1" fill="#c0c2c3"/>
  <rect x="25" y="20" width="1" height="1" fill="#bdbfc1"/>
  <rect x="26" y="20" width="1" height="1" fill="#b9bbbc"/>
  <rect x="27" y="20" width="1" height="1" fill="#b5b7b9"/>
  <rect x="28" y="20" width="1" height="1" fill="#babcbde6"/>
  <rect x="29" y="20" width="1" height="1" fill="#babcbd49"/>
  <rect x="0" y="21" width="1" height="1" fill="#b5b7bbed"/>
  <rect x="1" y="21" width="1" height="1" fill="#bfc0c4"/>
  <rect x="2" y="21" width="1" height="1" fill="#b9babe"/>
  <rect x="3" y="21" width="1" height="1" fill="#bbbdc1"/>
  <rect x="4" y="21" width="1" height="1" fill="#bcbec2"/>
  <rect x="5" y="21" width="1" height="1" fill="#b8b9bd"/>
  <rect x="6" y="21" width="1" height="1" fill="#b8babb"/>
  <rect x="7" y="21" width="1" height="1" fill="#bfc1c2"/>
  <rect x="8" y="21" width="1" height="1" fill="#b6b9b8"/>
  <rect x="9" y="21" width="1" height="1" fill="#c2c4c4ed"/>
  <rect x="11" y="21" width="1" height="1" fill="#c3c6c5f1"/>
  <rect x="12" y="21" width="1" height="1" fill="#babcbb"/>
  <rect x="13" y="21" width="2" height="1" fill="#bfc1c0"/>
  <rect x="15" y="21" width="1" height="1" fill="#babcbb"/>
  <rect x="16" y="21" width="1" height="1" fill="#c1c3c4f1"/>
  <rect x="20" y="21" width="1" height="1" fill="#bbbdbfed"/>
  <rect x="21" y="21" width="2" height="1" fill="#b8babb"/>
  <rect x="23" y="21" width="2" height="1" fill="#babcbd"/>
  <rect x="25" y="21" width="1" height="1" fill="#b9bbbc"/>
  <rect x="26" y="21" width="2" height="1" fill="#b8babb"/>
  <rect x="28" y="21" width="1" height="1" fill="#b9bbbc"/>
  <rect x="29" y="21" width="1" height="1" fill="#babcbded"/>
  <rect x="0" y="22" width="1" height="1" fill="#babcbd"/>
  <rect x="1" y="22" width="1" height="1" fill="#c0c2c3"/>
  <rect x="2" y="22" width="1" height="1" fill="#fcfeff"/>
  <rect x="3" y="22" width="1" height="1" fill="#f3f5f7"/>
  <rect x="4" y="22" width="1" height="1" fill="#ffffff"/>
  <rect x="5" y="22" width="2" height="1" fill="#fdffff"/>
  <rect x="7" y="22" width="1" height="1" fill="#ffffff"/>
  <rect x="8" y="22" width="1" height="1" fill="#c2c4c4"/>
  <rect x="9" y="22" width="1" height="1" fill="#b9bbba"/>
  <rect x="11" y="22" width="1" height="1" fill="#f9fbfac3"/>
  <rect x="12" y="22" width="1" height="1" fill="#ffffff"/>
  <rect x="13" y="22" width="2" height="1" fill="#fafcfc"/>
  <rect x="15" y="22" width="1" height="1" fill="#ffffff"/>
  <rect x="16" y="22" width="1" height="1" fill="#fbfdffc4"/>
  <rect x="20" y="22" width="1" height="1" fill="#b6b8ba"/>
  <rect x="21" y="22" width="1" height="1" fill="#bbbdbf"/>
  <rect x="22" y="22" width="1" height="1" fill="#fbfdff"/>
  <rect x="23" y="22" width="2" height="1" fill="#fafcfe"/>
  <rect x="25" y="22" width="1" height="1" fill="#fbfdff"/>
  <rect x="26" y="22" width="1" height="1" fill="#fcfffe"/>
  <rect x="27" y="22" width="1" height="1" fill="#fdffff"/>
  <rect x="28" y="22" width="1" height="4" fill="#bbbdbd"/>
  <rect x="29" y="22" width="1" height="4" fill="#babcbb"/>
  <rect x="0" y="23" width="1" height="1" fill="#bdbfc1"/>
  <rect x="1" y="23" width="1" height="1" fill="#b8babb"/>
  <rect x="3" y="23" width="1" height="1" fill="#c0c2c349"/>
  <rect x="4" y="23" width="1" height="1" fill="#c0c2c3e6"/>
  <rect x="5" y="23" width="1" height="1" fill="#b9bbbce6"/>
  <rect x="6" y="23" width="1" height="1" fill="#b9bbbc49"/>
  <rect x="8" y="23" width="1" height="1" fill="#bcbfbe"/>
  <rect x="9" y="23" width="1" height="1" fill="#bdc0bf"/>
  <rect x="13" y="23" width="2" height="1" fill="#bdc0bfc3"/>
  <rect x="20" y="23" width="1" height="1" fill="#b9bbbc"/>
  <rect x="21" y="23" width="1" height="1" fill="#b5b7b9"/>
  <rect x="23" y="23" width="1" height="1" fill="#bfc1c249"/>
  <rect x="24" y="23" width="1" height="1" fill="#b6b8bae6"/>
  <rect x="25" y="23" width="1" height="1" fill="#babcbde6"/>
  <rect x="26" y="23" width="1" height="1" fill="#bfc1c049"/>
  <rect x="0" y="24" width="1" height="1" fill="#bfc1c0"/>
  <rect x="1" y="24" width="1" height="1" fill="#b5b8b7"/>
  <rect x="3" y="24" width="1" height="1" fill="#b5b8b7ed"/>
  <rect x="4" y="24" width="1" height="1" fill="#bfc1c2"/>
  <rect x="5" y="24" width="1" height="1" fill="#b8babb"/>
  <rect x="6" y="24" width="1" height="1" fill="#c2c4c4ed"/>
  <rect x="8" y="24" width="1" height="1" fill="#babcbd"/>
  <rect x="9" y="24" width="1" height="1" fill="#bbbdbf"/>
  <rect x="13" y="24" width="1" height="1" fill="#bcbec0"/>
  <rect x="14" y="24" width="1" height="1" fill="#aeb0b2"/>
  <rect x="15" y="24" width="1" height="1" fill="#bbbdbf"/>
  <rect x="16" y="24" width="1" height="1" fill="#b9bbbc"/>
  <rect x="17" y="24" width="1" height="2" fill="#babcbd"/>
  <rect x="18" y="24" width="1" height="1" fill="#babcbdc3"/>
  <rect x="20" y="24" width="2" height="1" fill="#bfc1c2"/>
  <rect x="23" y="24" width="1" height="1" fill="#b8bab9ed"/>
  <rect x="24" y="24" width="1" height="1" fill="#babcbb"/>
  <rect x="25" y="24" width="1" height="1" fill="#b4b6b6"/>
  <rect x="26" y="24" width="1" height="1" fill="#bbbdbded"/>
  <rect x="0" y="25" width="1" height="1" fill="#c3c6c5"/>
  <rect x="1" y="25" width="1" height="1" fill="#b8bab9"/>
  <rect x="3" y="25" width="1" height="1" fill="#c7c9c8fd"/>
  <rect x="4" y="25" width="1" height="1" fill="#b3b5b6"/>
  <rect x="5" y="25" width="1" height="1" fill="#bdbfc1"/>
  <rect x="6" y="25" width="1" height="1" fill="#babcbbfd"/>
  <rect x="8" y="25" width="1" height="1" fill="#bbbdbf"/>
  <rect x="9" y="25" width="1" height="1" fill="#babcbd"/>
  <rect x="13" y="25" width="1" height="1" fill="#b3b5b6"/>
  <rect x="14" y="25" width="1" height="1" fill="#bdbfc1"/>
  <rect x="15" y="25" width="1" height="1" fill="#b4b6b8"/>
  <rect x="16" y="25" width="1" height="1" fill="#bfc1c2"/>
  <rect x="18" y="25" width="1" height="1" fill="#cacccef1"/>
  <rect x="20" y="25" width="2" height="1" fill="#b9bbbc"/>
  <rect x="23" y="25" width="1" height="1" fill="#c7c9c8fd"/>
  <rect x="24" y="25" width="1" height="1" fill="#b6b9b8"/>
  <rect x="25" y="25" width="1" height="1" fill="#c0c2c1"/>
  <rect x="26" y="25" width="1" height="1" fill="#c0c2c1fd"/>
  <rect x="0" y="26" width="1" height="1" fill="#c1c4c0"/>
  <rect x="1" y="26" width="1" height="2" fill="#b8bab7"/>
  <rect x="3" y="26" width="1" height="1" fill="#e4e6e5ed"/>
  <rect x="4" y="26" width="1" height="1" fill="#c0c2c1"/>
  <rect x="5" y="26" width="1" height="1" fill="#bdc0bf"/>
  <rect x="6" y="26" width="1" height="1" fill="#e7eae9ee"/>
  <rect x="8" y="26" width="1" height="3" fill="#babcbd"/>
  <rect x="9" y="26" width="1" height="2" fill="#b9bbbc"/>
  <rect x="13" y="26" width="1" height="1" fill="#c9cbcf"/>
  <rect x="14" y="26" width="1" height="1" fill="#c7c8cc"/>
  <rect x="15" y="26" width="1" height="1" fill="#fafcff"/>
  <rect x="16" y="26" width="1" height="1" fill="#fdffff"/>
  <rect x="17" y="26" width="1" height="1" fill="#ffffff"/>
  <rect x="18" y="26" width="1" height="1" fill="#f6f8fac4"/>
  <rect x="20" y="26" width="1" height="1" fill="#babcbd"/>
  <rect x="21" y="26" width="1" height="1" fill="#bbbdbf"/>
  <rect x="23" y="26" width="1" height="1" fill="#e6e9e8ed"/>
  <rect x="24" y="26" width="1" height="1" fill="#c4c7c6"/>
  <rect x="25" y="26" width="1" height="1" fill="#c8cac9"/>
  <rect x="26" y="26" width="1" height="1" fill="#e7eae7ee"/>
  <rect x="28" y="26" width="1" height="2" fill="#bcbfbc"/>
  <rect x="29" y="26" width="1" height="2" fill="#babdb9"/>
  <rect x="0" y="27" width="1" height="1" fill="#bbbebb"/>
  <rect x="3" y="27" width="1" height="1" fill="#fcfffc4a"/>
  <rect x="4" y="27" width="1" height="1" fill="#f4f6f6e7"/>
  <rect x="5" y="27" width="1" height="1" fill="#f9fbfae4"/>
  <rect x="6" y="27" width="1" height="1" fill="#ffffff4a"/>
  <rect x="13" y="27" width="1" height="1" fill="#fbfdffc3"/>
  <rect x="14" y="27" width="1" height="1" fill="#ffffffc4"/>
  <rect x="20" y="27" width="2" height="1" fill="#b9bbbc"/>
  <rect x="23" y="27" width="1" height="1" fill="#f9fbfa4a"/>
  <rect x="24" y="27" width="1" height="1" fill="#fcfffee7"/>
  <rect x="25" y="27" width="1" height="1" fill="#fcfffee4"/>
  <rect x="26" y="27" width="1" height="1" fill="#fbfefb4a"/>
  <rect x="0" y="28" width="1" height="1" fill="#c3c6c3"/>
  <rect x="1" y="28" width="1" height="1" fill="#b4b7b4"/>
  <rect x="2" y="28" width="1" height="1" fill="#bbbebb"/>
  <rect x="3" y="28" width="1" height="1" fill="#bdc0bd"/>
  <rect x="4" y="28" width="4" height="1" fill="#bbbdbd"/>
  <rect x="9" y="28" width="1" height="1" fill="#c1c3c4"/>
  <rect x="11" y="28" width="1" height="1" fill="#b6b8bac3"/>
  <rect x="12" y="28" width="1" height="1" fill="#bcbec2c3"/>
  <rect x="14" y="28" width="1" height="1" fill="#bbbdc1c3"/>
  <rect x="15" y="28" width="1" height="1" fill="#bcbec2"/>
  <rect x="16" y="28" width="2" height="1" fill="#bcbec0"/>
  <rect x="18" y="28" width="1" height="1" fill="#c0c2c3c3"/>
  <rect x="20" y="28" width="1" height="1" fill="#c0c2c3"/>
  <rect x="21" y="28" width="1" height="1" fill="#b9bbbc"/>
  <rect x="22" y="28" width="1" height="1" fill="#b6b9b8"/>
  <rect x="23" y="28" width="1" height="1" fill="#b9bbba"/>
  <rect x="24" y="28" width="2" height="1" fill="#bcbfbe"/>
  <rect x="26" y="28" width="2" height="1" fill="#bcbfbc"/>
  <rect x="28" y="28" width="1" height="1" fill="#bbbebb"/>
  <rect x="29" y="28" width="1" height="1" fill="#bfc1be"/>
  <rect x="0" y="29" width="1" height="1" fill="#e6e9e6ed"/>
  <rect x="1" y="29" width="1" height="1" fill="#bbbebb"/>
  <rect x="2" y="29" width="1" height="1" fill="#aeb1ae"/>
  <rect x="3" y="29" width="1" height="1" fill="#c0c2bf"/>
  <rect x="4" y="29" width="4" height="1" fill="#bdc0bf"/>
  <rect x="8" y="29" width="1" height="1" fill="#c8cacb"/>
  <rect x="9" y="29" width="1" height="1" fill="#ebedeeee"/>
  <rect x="11" y="29" width="1" height="1" fill="#cdcfd0f1"/>
  <rect x="12" y="29" width="1" height="1" fill="#cfd0d4f1"/>
  <rect x="14" y="29" width="1" height="1" fill="#cbcdd1f1"/>
  <rect x="15" y="29" width="1" height="1" fill="#babbbf"/>
  <rect x="16" y="29" width="1" height="1" fill="#babcbd"/>
  <rect x="17" y="29" width="1" height="1" fill="#b6b8ba"/>
  <rect x="18" y="29" width="1" height="1" fill="#c4c6c8f1"/>
  <rect x="20" y="29" width="1" height="1" fill="#e8eaeced"/>
  <rect x="21" y="29" width="1" height="1" fill="#c4c6c8"/>
  <rect x="22" y="29" width="1" height="1" fill="#b1b3b2"/>
  <rect x="23" y="29" width="3" height="1" fill="#bbbdbd"/>
  <rect x="26" y="29" width="2" height="1" fill="#bbbebb"/>
  <rect x="28" y="29" width="1" height="1" fill="#c1c4c0"/>
  <rect x="29" y="29" width="1" height="1" fill="#e8ebe8ee"/>
  <rect x="0" y="30" width="1" height="1" fill="#f3f6f24a"/>
  <rect x="1" y="30" width="1" height="1" fill="#fbfefbe7"/>
  <rect x="2" y="30" width="1" height="1" fill="#fdfffd"/>
  <rect x="3" y="30" width="5" height="1" fill="#ffffff"/>
  <rect x="8" y="30" width="1" height="1" fill="#fafcfee4"/>
  <rect x="9" y="30" width="1" height="1" fill="#ffffff4a"/>
  <rect x="11" y="30" width="1" height="1" fill="#fcfeffc3"/>
  <rect x="12" y="30" width="1" height="1" fill="#fbfdffc4"/>
  <rect x="14" y="30" width="1" height="1" fill="#f3f5f9c3"/>
  <rect x="15" y="30" width="3" height="1" fill="#ffffff"/>
  <rect x="18" y="30" width="1" height="1" fill="#fafcfec4"/>
  <rect x="20" y="30" width="1" height="1" fill="#fcfeff4a"/>
  <rect x="21" y="30" width="1" height="1" fill="#fdffffe7"/>
  <rect x="22" y="30" width="4" height="1" fill="#ffffff"/>
  <rect x="26" y="30" width="2" height="1" fill="#fffffe"/>
  <rect x="28" y="30" width="1" height="1" fill="#ffffffe4"/>
  <rect x="29" y="30" width="1" height="1" fill="#fafdf94a"/>
</svg>