<svg xmlns="http://www.w3.org/2000/svg" width="72" height="24" viewBox="0 0 72 24" shape-rendering="crispEdges">
  <rect x="10" y="0" width="1" height="1" fill="#b6b6b61c"/>
  <rect x="11" y="0" width="1" height="1" fill="#b9b9b935"/>
  <rect x="12" y="0" width="1" height="1" fill="#b3b3b334"/>
  <rect x="13" y="0" width="1" height="1" fill="#b8b8b81b"/>
  <rect x="34" y="0" width="1" height="1" fill="#b7b7b728"/>
  <rect x="35" y="0" width="1" height="1" fill="#bababa4b"/>
  <rect x="36" y="0" width="1" height="1" fill="#b3b3b34a"/>
  <rect x="37" y="0" width="1" height="1" fill="#b8b8b826"/>
  <rect x="9" y="1" width="1" height="1" fill="#b7b7b71a"/>
  <rect x="10" y="1" width="1" height="1" fill="#dedede81"/>
  <rect x="11" y="1" width="1" height="1" fill="#fafafaaf"/>
  <rect x="12" y="1" width="1" height="1" fill="#ffffffaf"/>
  <rect x="13" y="1" width="1" height="1" fill="#dbdbdb7e"/>
  <rect x="14" y="1" width="1" height="1" fill="#b8b8b819"/>
  <rect x="33" y="1" width="1" height="1" fill="#b6b6b625"/>
  <rect x="34" y="1" width="1" height="1" fill="#ddddddb8"/>
  <rect x="35" y="1" width="1" height="1" fill="#fafafafa"/>
  <rect x="36" y="1" width="1" height="1" fill="#fdfdfdfa"/>
  <rect x="37" y="1" width="1" height="1" fill="#d6d6d6b3"/>
  <rect x="38" y="1" width="1" height="1" fill="#b2b2b224"/>
  <rect x="59" y="1" width="1" height="1" fill="#bbbbbb28"/>
  <rect x="60" y="1" width="1" height="1" fill="#b1b1b14b"/>
  <rect x="61" y="1" width="1" height="1" fill="#bababa4a"/>
  <rect x="62" y="1" width="1" height="1" fill="#adadad26"/>
  <rect x="9" y="2" width="1" height="1" fill="#bababa33"/>
  <rect x="10" y="2" width="1" height="1" fill="#f6f6f6ad"/>
  <rect x="11" y="2" width="2" height="1" fill="#ffffffb3"/>
  <rect x="13" y="2" width="1" height="1" fill="#f6f6f6ac"/>
  <rect x="14" y="2" width="1" height="1" fill="#b9b9b933"/>
  <rect x="33" y="2" width="1" height="1" fill="#b8b8b849"/>
  <rect x="34" y="2" width="1" height="1" fill="#f3f3f3f6"/>
  <rect x="35" y="2" width="2" height="1" fill="#ffffff"/>
  <rect x="37" y="2" width="1" height="1" fill="#f3f3f3f5"/>
  <rect x="38" y="2" width="1" height="1" fill="#b8b8b849"/>
  <rect x="58" y="2" width="1" height="1" fill="#b6b6b625"/>
  <rect x="59" y="2" width="1" height="1" fill="#dbdbdbb8"/>
  <rect x="60" y="2" width="1" height="1" fill="#fefefefa"/>
  <rect x="61" y="2" width="1" height="1" fill="#f9f9f9fa"/>
  <rect x="62" y="2" width="1" height="1" fill="#d7d7d7b3"/>
  <rect x="63" y="2" width="1" height="1" fill="#b8b8b824"/>
  <rect x="7" y="3" width="1" height="1" fill="#b9b9b90d"/>
  <rect x="8" y="3" width="1" height="1" fill="#bebebe20"/>
  <rect x="9" y="3" width="1" height="1" fill="#b0b0b063"/>
  <rect x="10" y="3" width="1" height="1" fill="#ffffffb2"/>
  <rect x="11" y="3" width="1" height="1" fill="#fefefeb3"/>
  <rect x="12" y="3" width="1" height="1" fill="#ffffffb3"/>
  <rect x="13" y="3" width="1" height="1" fill="#ffffffb1"/>
  <rect x="14" y="3" width="1" height="1" fill="#c4c4c470"/>
  <rect x="15" y="3" width="1" height="1" fill="#b0b0b02b"/>
  <rect x="16" y="3" width="1" height="1" fill="#b6b6b613"/>
  <rect x="31" y="3" width="1" height="1" fill="#b7b7b712"/>
  <rect x="32" y="3" width="1" height="1" fill="#b9b9b92e"/>
  <rect x="33" y="3" width="1" height="1" fill="#ababab8d"/>
  <rect x="34" y="3" width="1" height="1" fill="#fcfbfcfd"/>
  <rect x="35" y="3" width="1" height="1" fill="#f9f9f9"/>
  <rect x="36" y="3" width="1" height="1" fill="#ffffff"/>
  <rect x="37" y="3" width="1" height="1" fill="#fffffffc"/>
  <rect x="38" y="3" width="1" height="1" fill="#c5c5c59f"/>
  <rect x="39" y="3" width="1" height="1" fill="#b1b1b13d"/>
  <rect x="40" y="3" width="1" height="1" fill="#b4b4b41b"/>
  <rect x="58" y="3" width="1" height="1" fill="#b4b4b449"/>
  <rect x="59" y="3" width="1" height="1" fill="#f3f3f3f6"/>
  <rect x="60" y="3" width="1" height="1" fill="#fcfbfc"/>
  <rect x="61" y="3" width="1" height="2" fill="#ffffff"/>
  <rect x="62" y="3" width="1" height="1" fill="#fcfbfcf5"/>
  <rect x="63" y="3" width="1" height="1" fill="#b7b7b749"/>
  <rect x="5" y="4" width="1" height="1" fill="#b4b4b40f"/>
  <rect x="6" y="4" width="1" height="1" fill="#b4b4b42f"/>
  <rect x="7" y="4" width="1" height="1" fill="#cccccc64"/>
  <rect x="8" y="4" width="1" height="1" fill="#e7e7e79a"/>
  <rect x="9" y="4" width="1" height="1" fill="#f3f3f3ab"/>
  <rect x="10" y="4" width="2" height="1" fill="#ffffffb3"/>
  <rect x="12" y="4" width="1" height="1" fill="#fefefeb3"/>
  <rect x="13" y="4" width="1" height="1" fill="#fdfdfdb3"/>
  <rect x="14" y="4" width="1" height="1" fill="#fdfdfdb1"/>
  <rect x="15" y="4" width="1" height="1" fill="#eeeeeea3"/>
  <rect x="16" y="4" width="1" height="1" fill="#d3d3d379"/>
  <rect x="17" y="4" width="1" height="1" fill="#b4b4b435"/>
  <rect x="18" y="4" width="1" height="1" fill="#b9b9b911"/>
  <rect x="29" y="4" width="1" height="1" fill="#bbbbbb16"/>
  <rect x="30" y="4" width="1" height="1" fill="#bbbbbb43"/>
  <rect x="31" y="4" width="1" height="1" fill="#d2d2d28e"/>
  <rect x="32" y="4" width="1" height="1" fill="#e5e5e5dc"/>
  <rect x="33" y="4" width="1" height="1" fill="#efefeff4"/>
  <rect x="34" y="4" width="1" height="1" fill="#f8f8f8"/>
  <rect x="35" y="4" width="2" height="1" fill="#fafafa"/>
  <rect x="37" y="4" width="1" height="2" fill="#fcfbfc"/>
  <rect x="38" y="4" width="1" height="1" fill="#fffffffc"/>
  <rect x="39" y="4" width="1" height="1" fill="#f2f2f2e8"/>
  <rect x="40" y="4" width="1" height="1" fill="#cfcfcfac"/>
  <rect x="41" y="4" width="1" height="1" fill="#b6b6b64c"/>
  <rect x="42" y="4" width="1" height="1" fill="#b0b0b018"/>
  <rect x="56" y="4" width="1" height="1" fill="#b9b9b912"/>
  <rect x="57" y="4" width="1" height="1" fill="#bbbbbb2e"/>
  <rect x="58" y="4" width="1" height="1" fill="#b1b1b18d"/>
  <rect x="59" y="4" width="1" height="1" fill="#fffffffd"/>
  <rect x="60" y="4" width="1" height="1" fill="#fefefe"/>
  <rect x="62" y="4" width="1" height="1" fill="#f6f6f6fc"/>
  <rect x="63" y="4" width="1" height="1" fill="#c7c7c79f"/>
  <rect x="64" y="4" width="1" height="1" fill="#b9b9b93d"/>
  <rect x="65" y="4" width="1" height="1" fill="#afafaf1b"/>
  <rect x="4" y="5" width="1" height="1" fill="#b2b2b20f"/>
  <rect x="5" y="5" width="1" height="1" fill="#c1c1c153"/>
  <rect x="6" y="5" width="1" height="1" fill="#eaeaeaa6"/>
  <rect x="7" y="5" width="1" height="1" fill="#fcfbfcb3"/>
  <rect x="8" y="5" width="1" height="1" fill="#fefefeb3"/>
  <rect x="9" y="5" width="5" height="1" fill="#ffffffb3"/>
  <rect x="14" y="5" width="1" height="1" fill="#fefefeb3"/>
  <rect x="15" y="5" width="1" height="1" fill="#fdfdfdb3"/>
  <rect x="16" y="5" width="1" height="1" fill="#ffffffb3"/>
  <rect x="17" y="5" width="1" height="1" fill="#f5f5f5aa"/>
  <rect x="18" y="5" width="1" height="1" fill="#d5d5d556"/>
  <rect x="19" y="5" width="1" height="1" fill="#b2b2b20f"/>
  <rect x="28" y="5" width="1" height="1" fill="#afafaf16"/>
  <rect x="29" y="5" width="1" height="1" fill="#c7c7c776"/>
  <rect x="30" y="5" width="1" height="1" fill="#eeeeeeed"/>
  <rect x="31" y="5" width="2" height="1" fill="#f8f8f8"/>
  <rect x="33" y="5" width="1" height="1" fill="#fafafa"/>
  <rect x="34" y="5" width="1" height="1" fill="#fcfbfc"/>
  <rect x="35" y="5" width="1" height="1" fill="#fefefe"/>
  <rect x="36" y="5" width="1" height="1" fill="#fdfdfd"/>
  <rect x="38" y="5" width="1" height="1" fill="#fafafa"/>
  <rect x="39" y="5" width="1" height="1" fill="#fcfbfc"/>
  <rect x="40" y="5" width="1" height="1" fill="#ffffff"/>
  <rect x="41" y="5" width="1" height="1" fill="#f5f5f5f2"/>
  <rect x="42" y="5" width="1" height="1" fill="#d3d3d37a"/>
  <rect x="43" y="5" width="1" height="1" fill="#bbbbbb16"/>
  <rect x="54" y="5" width="1" height="1" fill="#ababab16"/>
  <rect x="55" y="5" width="1" height="1" fill="#b6b6b643"/>
  <rect x="56" y="5" width="1" height="1" fill="#cbcbcb8e"/>
  <rect x="57" y="5" width="1" height="1" fill="#e4e4e4dc"/>
  <rect x="58" y="5" width="1" height="1" fill="#f6f6f6f4"/>
  <rect x="59" y="5" width="2" height="2" fill="#fefefe"/>
  <rect x="61" y="5" width="2" height="1" fill="#ffffff"/>
  <rect x="63" y="5" width="1" height="1" fill="#f6f6f6fc"/>
  <rect x="64" y="5" width="1" height="1" fill="#e8e8e8e8"/>
  <rect x="65" y="5" width="1" height="1" fill="#cececeac"/>
  <rect x="66" y="5" width="1" height="1" fill="#b7b7b74c"/>
  <rect x="67" y="5" width="1" height="1" fill="#b2b2b218"/>
  <rect x="4" y="6" width="1" height="1" fill="#bdbdbd29"/>
  <rect x="5" y="6" width="1" height="1" fill="#eaeaeaa6"/>
  <rect x="6" y="6" width="10" height="1" fill="#ffffffb3"/>
  <rect x="16" y="6" width="1" height="1" fill="#fdfdfdb3"/>
  <rect x="17" y="6" width="1" height="1" fill="#ffffffb3"/>
  <rect x="18" y="6" width="1" height="1" fill="#eeeeeea6"/>
  <rect x="19" y="6" width="1" height="1" fill="#b7b7b729"/>
  <rect x="28" y="6" width="1" height="1" fill="#bebebe3a"/>
  <rect x="29" y="6" width="1" height="1" fill="#eeeeeeec"/>
  <rect x="30" y="6" width="1" height="1" fill="#ffffff"/>
  <rect x="31" y="6" width="1" height="1" fill="#f8f8f8"/>
  <rect x="32" y="6" width="1" height="1" fill="#fcfbfc"/>
  <rect x="33" y="6" width="1" height="1" fill="#fefefe"/>
  <rect x="34" y="6" width="3" height="1" fill="#ffffff"/>
  <rect x="37" y="6" width="1" height="1" fill="#fefefe"/>
  <rect x="38" y="6" width="1" height="1" fill="#fdfdfd"/>
  <rect x="39" y="6" width="2" height="1" fill="#fcfbfc"/>
  <rect x="41" y="6" width="1" height="1" fill="#ffffff"/>
  <rect x="42" y="6" width="1" height="1" fill="#f3f3f3ec"/>
  <rect x="43" y="6" width="1" height="1" fill="#b7b7b73a"/>
  <rect x="53" y="6" width="1" height="1" fill="#b4b4b416"/>
  <rect x="54" y="6" width="1" height="1" fill="#c9c9c976"/>
  <rect x="55" y="6" width="1" height="1" fill="#eeeeeeed"/>
  <rect x="56" y="6" width="1" height="1" fill="#fafafa"/>
  <rect x="57" y="6" width="1" height="1" fill="#f9f9f9"/>
  <rect x="58" y="6" width="1" height="1" fill="#ffffff"/>
  <rect x="61" y="6" width="3" height="1" fill="#ffffff"/>
  <rect x="64" y="6" width="1" height="1" fill="#fcfbfc"/>
  <rect x="65" y="6" width="1" height="1" fill="#fefefe"/>
  <rect x="66" y="6" width="1" height="1" fill="#f0f0f0f2"/>
  <rect x="67" y="6" width="1" height="1" fill="#d0d0d07a"/>
  <rect x="68" y="6" width="1" height="1" fill="#b8b8b816"/>
  <rect x="4" y="7" width="1" height="1" fill="#afafaf3c"/>
  <rect x="5" y="7" width="1" height="1" fill="#ffffffb1"/>
  <rect x="6" y="7" width="2" height="1" fill="#ffffffb3"/>
  <rect x="8" y="7" width="2" height="1" fill="#fefefeb3"/>
  <rect x="10" y="7" width="1" height="1" fill="#ffffffb3"/>
  <rect x="11" y="7" width="3" height="1" fill="#fefefeb3"/>
  <rect x="14" y="7" width="3" height="2" fill="#ffffffb3"/>
  <rect x="17" y="7" width="1" height="5" fill="#fefefeb3"/>
  <rect x="18" y="7" width="1" height="1" fill="#ffffffb0"/>
  <rect x="19" y="7" width="1" height="1" fill="#bbbbbb3c"/>
  <rect x="28" y="7" width="1" height="1" fill="#b3b3b355"/>
  <rect x="29" y="7" width="1" height="1" fill="#fffffffc"/>
  <rect x="30" y="7" width="1" height="1" fill="#f9f9f9"/>
  <rect x="31" y="7" width="8" height="1" fill="#ffffff"/>
  <rect x="39" y="7" width="1" height="1" fill="#fefefe"/>
  <rect x="40" y="7" width="1" height="1" fill="#ffffff"/>
  <rect x="41" y="7" width="1" height="1" fill="#fdfdfd"/>
  <rect x="42" y="7" width="1" height="1" fill="#fffffffb"/>
  <rect x="43" y="7" width="1" height="1" fill="#b3b3b355"/>
  <rect x="53" y="7" width="1" height="1" fill="#b3b3b33a"/>
  <rect x="54" y="7" width="1" height="1" fill="#ecececec"/>
  <rect x="55" y="7" width="4" height="1" fill="#ffffff"/>
  <rect x="59" y="7" width="1" height="1" fill="#f8f8f8"/>
  <rect x="60" y="7" width="1" height="1" fill="#fefefe"/>
  <rect x="61" y="7" width="1" height="1" fill="#ffffff"/>
  <rect x="62" y="7" width="2" height="1" fill="#fefefe"/>
  <rect x="64" y="7" width="1" height="1" fill="#ffffff"/>
  <rect x="65" y="7" width="1" height="1" fill="#fcfbfc"/>
  <rect x="66" y="7" width="1" height="1" fill="#fdfdfd"/>
  <rect x="67" y="7" width="1" height="1" fill="#f0f0f0ec"/>
  <rect x="68" y="7" width="1" height="1" fill="#bbbbbb3a"/>
  <rect x="4" y="8" width="1" height="1" fill="#b9b9b942"/>
  <rect x="5" y="8" width="1" height="3" fill="#fcfbfcb3"/>
  <rect x="6" y="8" width="6" height="1" fill="#ffffffb3"/>
  <rect x="12" y="8" width="2" height="1" fill="#fefefeb3"/>
  <rect x="18" y="8" width="1" height="8" fill="#ffffffb3"/>
  <rect x="19" y="8" width="1" height="1" fill="#bebebe42"/>
  <rect x="28" y="8" width="1" height="1" fill="#b7b7b75e"/>
  <rect x="29" y="8" width="2" height="1" fill="#ffffff"/>
  <rect x="31" y="8" width="1" height="1" fill="#fefefe"/>
  <rect x="32" y="8" width="8" height="1" fill="#ffffff"/>
  <rect x="40" y="8" width="1" height="4" fill="#fdfdfd"/>
  <rect x="41" y="8" width="2" height="4" fill="#ffffff"/>
  <rect x="43" y="8" width="1" height="1" fill="#b3b3b35e"/>
  <rect x="53" y="8" width="1" height="1" fill="#b8b8b855"/>
  <rect x="54" y="8" width="1" height="1" fill="#fffffffc"/>
  <rect x="55" y="8" width="5" height="1" fill="#ffffff"/>
  <rect x="60" y="8" width="2" height="1" fill="#fefefe"/>
  <rect x="62" y="8" width="5" height="1" fill="#ffffff"/>
  <rect x="67" y="8" width="1" height="1" fill="#fffffffb"/>
  <rect x="68" y="8" width="1" height="1" fill="#b4b4b455"/>
  <rect x="4" y="9" width="1" height="2" fill="#b9b9b943"/>
  <rect x="6" y="9" width="11" height="3" fill="#ffffffb3"/>
  <rect x="19" y="9" width="1" height="2" fill="#bdbdbd43"/>
  <rect x="28" y="9" width="1" height="2" fill="#b8b8b85f"/>
  <rect x="29" y="9" width="1" height="1" fill="#fcfbfc"/>
  <rect x="30" y="9" width="10" height="1" fill="#ffffff"/>
  <rect x="43" y="9" width="1" height="2" fill="#b3b3b35f"/>
  <rect x="53" y="9" width="1" height="1" fill="#b6b6b65e"/>
  <rect x="54" y="9" width="1" height="1" fill="#fdfdfd"/>
  <rect x="55" y="9" width="13" height="3" fill="#ffffff"/>
  <rect x="68" y="9" width="1" height="1" fill="#b4b4b45e"/>
  <rect x="29" y="10" width="11" height="1" fill="#ffffff"/>
  <rect x="53" y="10" width="1" height="2" fill="#b7b7b75f"/>
  <rect x="54" y="10" width="1" height="2" fill="#fefefe"/>
  <rect x="68" y="10" width="1" height="2" fill="#b4b4b45f"/>
  <rect x="4" y="11" width="1" height="1" fill="#b9b9b947"/>
  <rect x="5" y="11" width="1" height="1" fill="#fdfdfdb3"/>
  <rect x="19" y="11" width="1" height="1" fill="#bdbdbd47"/>
  <rect x="28" y="11" width="1" height="1" fill="#b7b7b765"/>
  <rect x="29" y="11" width="2" height="3" fill="#ffffff"/>
  <rect x="31" y="11" width="1" height="2" fill="#fdfdfd"/>
  <rect x="32" y="11" width="8" height="2" fill="#ffffff"/>
  <rect x="43" y="11" width="1" height="1" fill="#b3b3b365"/>
  <rect x="3" y="12" width="1" height="1" fill="#b1b1b10b"/>
  <rect x="4" y="12" width="1" height="1" fill="#cccccc62"/>
  <rect x="5" y="12" width="1" height="2" fill="#ffffffb3"/>
  <rect x="6" y="12" width="1" height="2" fill="#fefefeb3"/>
  <rect x="7" y="12" width="10" height="2" fill="#ffffffb3"/>
  <rect x="17" y="12" width="1" height="4" fill="#fdfdfdb3"/>
  <rect x="19" y="12" width="1" height="1" fill="#cecece63"/>
  <rect x="20" y="12" width="1" height="1" fill="#b3b3b30b"/>
  <rect x="27" y="12" width="1" height="1" fill="#b7b7b70f"/>
  <rect x="28" y="12" width="1" height="1" fill="#cccccc8c"/>
  <rect x="40" y="12" width="2" height="1" fill="#fefefe"/>
  <rect x="42" y="12" width="1" height="4" fill="#ffffff"/>
  <rect x="43" y="12" width="1" height="1" fill="#cbcbcb8d"/>
  <rect x="44" y="12" width="1" height="1" fill="#bbbbbb0f"/>
  <rect x="53" y="12" width="1" height="1" fill="#b8b8b865"/>
  <rect x="54" y="12" width="14" height="2" fill="#ffffff"/>
  <rect x="68" y="12" width="1" height="1" fill="#b2b2b265"/>
  <rect x="3" y="13" width="1" height="1" fill="#b3b3b319"/>
  <rect x="4" y="13" width="1" height="1" fill="#dddddd8c"/>
  <rect x="19" y="13" width="1" height="1" fill="#dedede8c"/>
  <rect x="20" y="13" width="1" height="1" fill="#b1b1b119"/>
  <rect x="27" y="13" width="1" height="1" fill="#b4b4b423"/>
  <rect x="28" y="13" width="1" height="1" fill="#d7d7d7c7"/>
  <rect x="31" y="13" width="1" height="1" fill="#fefefe"/>
  <rect x="32" y="13" width="9" height="1" fill="#ffffff"/>
  <rect x="41" y="13" width="1" height="2" fill="#fcfbfc"/>
  <rect x="43" y="13" width="1" height="1" fill="#ddddddc8"/>
  <rect x="44" y="13" width="1" height="1" fill="#b9b9b924"/>
  <rect x="52" y="13" width="1" height="1" fill="#b6b6b60f"/>
  <rect x="53" y="13" width="1" height="1" fill="#c6c6c68c"/>
  <rect x="68" y="13" width="1" height="1" fill="#c2c2c28d"/>
  <rect x="69" y="13" width="1" height="1" fill="#b8b8b80f"/>
  <rect x="3" y="14" width="1" height="1" fill="#b0b0b029"/>
  <rect x="4" y="14" width="1" height="1" fill="#efefefa2"/>
  <rect x="5" y="14" width="12" height="1" fill="#ffffffb3"/>
  <rect x="19" y="14" width="1" height="1" fill="#efefefa2"/>
  <rect x="20" y="14" width="1" height="1" fill="#b3b3b32a"/>
  <rect x="27" y="14" width="1" height="1" fill="#b7b7b73b"/>
  <rect x="28" y="14" width="1" height="1" fill="#e8e8e8e7"/>
  <rect x="29" y="14" width="1" height="2" fill="#ffffff"/>
  <rect x="30" y="14" width="1" height="1" fill="#fdfdfd"/>
  <rect x="31" y="14" width="10" height="2" fill="#ffffff"/>
  <rect x="43" y="14" width="1" height="1" fill="#f1f1f1e7"/>
  <rect x="44" y="14" width="1" height="1" fill="#b0b0b03c"/>
  <rect x="52" y="14" width="1" height="1" fill="#b8b8b823"/>
  <rect x="53" y="14" width="1" height="1" fill="#d9d9d9c7"/>
  <rect x="54" y="14" width="1" height="1" fill="#ffffff"/>
  <rect x="55" y="14" width="1" height="2" fill="#fefefe"/>
  <rect x="56" y="14" width="12" height="2" fill="#ffffff"/>
  <rect x="68" y="14" width="1" height="1" fill="#dadadac8"/>
  <rect x="69" y="14" width="1" height="1" fill="#b7b7b724"/>
  <rect x="2" y="15" width="1" height="1" fill="#b6b6b60b"/>
  <rect x="3" y="15" width="1" height="1" fill="#bababa4d"/>
  <rect x="4" y="15" width="1" height="1" fill="#f0f0f0ad"/>
  <rect x="5" y="15" width="1" height="1" fill="#ffffffb3"/>
  <rect x="6" y="15" width="1" height="1" fill="#fefefeb3"/>
  <rect x="7" y="15" width="10" height="1" fill="#ffffffb3"/>
  <rect x="19" y="15" width="1" height="1" fill="#efefefad"/>
  <rect x="20" y="15" width="1" height="1" fill="#bababa4d"/>
  <rect x="21" y="15" width="1" height="1" fill="#b6b6b60b"/>
  <rect x="26" y="15" width="1" height="1" fill="#bababa0f"/>
  <rect x="27" y="15" width="1" height="1" fill="#bebebe6d"/>
  <rect x="28" y="15" width="1" height="1" fill="#f3f3f3f7"/>
  <rect x="30" y="15" width="1" height="1" fill="#fafafa"/>
  <rect x="41" y="15" width="1" height="1" fill="#fdfdfd"/>
  <rect x="43" y="15" width="1" height="1" fill="#f0f0f0f7"/>
  <rect x="44" y="15" width="1" height="1" fill="#b6b6b66d"/>
  <rect x="45" y="15" width="1" height="1" fill="#b4b4b40f"/>
  <rect x="52" y="15" width="1" height="1" fill="#b8b8b83b"/>
  <rect x="53" y="15" width="1" height="1" fill="#e5e5e5e7"/>
  <rect x="54" y="15" width="1" height="1" fill="#fdfdfd"/>
  <rect x="68" y="15" width="1" height="1" fill="#eaeaeae7"/>
  <rect x="69" y="15" width="1" height="1" fill="#b7b7b73c"/>
  <rect x="2" y="16" width="1" height="1" fill="#c5c5c51a"/>
  <rect x="3" y="16" width="1" height="1" fill="#ececec8e"/>
  <rect x="4" y="16" width="12" height="1" fill="#fefefeb3"/>
  <rect x="16" y="16" width="1" height="1" fill="#fcfbfcb3"/>
  <rect x="17" y="16" width="3" height="1" fill="#ffffffb3"/>
  <rect x="20" y="16" width="1" height="1" fill="#e8e8e88e"/>
  <rect x="21" y="16" width="1" height="1" fill="#c7c7c719"/>
  <rect x="26" y="16" width="1" height="1" fill="#c6c6c625"/>
  <rect x="27" y="16" width="1" height="1" fill="#efefefca"/>
  <rect x="28" y="16" width="6" height="1" fill="#ffffff"/>
  <rect x="34" y="16" width="6" height="1" fill="#fefefe"/>
  <rect x="40" y="16" width="3" height="1" fill="#ffffff"/>
  <rect x="43" y="16" width="1" height="1" fill="#fdfdfd"/>
  <rect x="44" y="16" width="1" height="1" fill="#ecececcb"/>
  <rect x="45" y="16" width="1" height="1" fill="#c1c1c124"/>
  <rect x="51" y="16" width="1" height="1" fill="#b8b8b80f"/>
  <rect x="52" y="16" width="1" height="1" fill="#b4b4b46d"/>
  <rect x="53" y="16" width="1" height="1" fill="#f5f5f5f7"/>
  <rect x="54" y="16" width="14" height="1" fill="#fefefe"/>
  <rect x="68" y="16" width="1" height="1" fill="#f8f8f8f7"/>
  <rect x="69" y="16" width="1" height="1" fill="#b6b6b66d"/>
  <rect x="70" y="16" width="1" height="1" fill="#b7b7b70f"/>
  <rect x="0" y="17" width="1" height="1" fill="#b9b9b912"/>
  <rect x="1" y="17" width="1" height="1" fill="#c8c8c840"/>
  <rect x="2" y="17" width="1" height="1" fill="#b6b6b64f"/>
  <rect x="3" y="17" width="1" height="1" fill="#b3b3b368"/>
  <rect x="4" y="17" width="1" height="1" fill="#b7b7b77f"/>
  <rect x="5" y="17" width="11" height="1" fill="#b7b7b785"/>
  <rect x="16" y="17" width="1" height="1" fill="#b4b4b485"/>
  <rect x="17" y="17" width="1" height="1" fill="#bababa85"/>
  <rect x="18" y="17" width="1" height="1" fill="#b8b8b885"/>
  <rect x="19" y="17" width="1" height="1" fill="#b8b8b87f"/>
  <rect x="20" y="17" width="1" height="1" fill="#b2b2b268"/>
  <rect x="21" y="17" width="1" height="1" fill="#b8b8b84c"/>
  <rect x="22" y="17" width="1" height="1" fill="#b7b7b72f"/>
  <rect x="23" y="17" width="1" height="1" fill="#b6b6b60f"/>
  <rect x="24" y="17" width="1" height="1" fill="#bababa19"/>
  <rect x="25" y="17" width="1" height="1" fill="#c7c7c75b"/>
  <rect x="26" y="17" width="1" height="1" fill="#b7b7b770"/>
  <rect x="27" y="17" width="1" height="1" fill="#b4b4b494"/>
  <rect x="28" y="17" width="1" height="1" fill="#b9b9b9b5"/>
  <rect x="29" y="17" width="1" height="1" fill="#b9b9b9be"/>
  <rect x="30" y="17" width="4" height="1" fill="#b8b8b8be"/>
  <rect x="34" y="17" width="6" height="1" fill="#b7b7b7be"/>
  <rect x="40" y="17" width="3" height="1" fill="#b9b9b9be"/>
  <rect x="43" y="17" width="1" height="1" fill="#b6b6b6b5"/>
  <rect x="44" y="17" width="1" height="1" fill="#b7b7b794"/>
  <rect x="45" y="17" width="1" height="1" fill="#b1b1b16c"/>
  <rect x="46" y="17" width="1" height="1" fill="#b4b4b443"/>
  <rect x="47" y="17" width="1" height="1" fill="#b7b7b715"/>
  <rect x="51" y="17" width="1" height="1" fill="#c2c2c225"/>
  <rect x="52" y="17" width="1" height="1" fill="#e7e7e7ca"/>
  <rect x="53" y="17" width="1" height="1" fill="#fdfdfd"/>
  <rect x="54" y="17" width="1" height="1" fill="#fefefe"/>
  <rect x="55" y="17" width="1" height="1" fill="#ffffff"/>
  <rect x="56" y="17" width="12" height="1" fill="#fefefe"/>
  <rect x="68" y="17" width="1" height="1" fill="#fdfdfd"/>
  <rect x="69" y="17" width="1" height="1" fill="#eeeeeecb"/>
  <rect x="70" y="17" width="1" height="1" fill="#c7c7c724"/>
  <rect x="0" y="18" width="1" height="1" fill="#b6b6b630"/>
  <rect x="1" y="18" width="1" height="1" fill="#fafafaae"/>
  <rect x="2" y="18" width="2" height="1" fill="#ffffffb3"/>
  <rect x="4" y="18" width="12" height="1" fill="#fefefeb3"/>
  <rect x="16" y="18" width="1" height="1" fill="#fcfbfcb3"/>
  <rect x="17" y="18" width="4" height="1" fill="#ffffffb3"/>
  <rect x="21" y="18" width="1" height="1" fill="#fcfbfcb3"/>
  <rect x="22" y="18" width="1" height="1" fill="#f8f8f8ae"/>
  <rect x="23" y="18" width="1" height="1" fill="#b7b7b72f"/>
  <rect x="24" y="18" width="1" height="1" fill="#b8b8b844"/>
  <rect x="25" y="18" width="1" height="1" fill="#f9f9f9f8"/>
  <rect x="26" y="18" width="8" height="1" fill="#ffffff"/>
  <rect x="34" y="18" width="6" height="1" fill="#fefefe"/>
  <rect x="40" y="18" width="3" height="2" fill="#ffffff"/>
  <rect x="43" y="18" width="1" height="1" fill="#fdfdfd"/>
  <rect x="44" y="18" width="2" height="1" fill="#ffffff"/>
  <rect x="46" y="18" width="1" height="1" fill="#f5f5f5f8"/>
  <rect x="47" y="18" width="1" height="1" fill="#bebebe43"/>
  <rect x="49" y="18" width="1" height="1" fill="#b8b8b819"/>
  <rect x="50" y="18" width="1" height="1" fill="#c4c4c45b"/>
  <rect x="51" y="18" width="1" height="1" fill="#bdbdbd70"/>
  <rect x="52" y="18" width="1" height="1" fill="#b6b6b694"/>
  <rect x="53" y="18" width="1" height="1" fill="#b0b0b0b5"/>
  <rect x="54" y="18" width="1" height="1" fill="#b1b1b1be"/>
  <rect x="55" y="18" width="1" height="1" fill="#b3b3b3be"/>
  <rect x="56" y="18" width="12" height="1" fill="#b6b6b6be"/>
  <rect x="68" y="18" width="1" height="1" fill="#bababab5"/>
  <rect x="69" y="18" width="1" height="1" fill="#b7b7b794"/>
  <rect x="70" y="18" width="1" height="1" fill="#b7b7b76c"/>
  <rect x="71" y="18" width="1" height="1" fill="#b6b6b643"/>
  <rect x="0" y="19" width="1" height="1" fill="#b0b0b030"/>
  <rect x="1" y="19" width="2" height="1" fill="#fefefeb3"/>
  <rect x="3" y="19" width="1" height="1" fill="#fcfbfcb3"/>
  <rect x="4" y="19" width="12" height="1" fill="#fdfdfdb3"/>
  <rect x="16" y="19" width="1" height="1" fill="#fafafab3"/>
  <rect x="17" y="19" width="1" height="1" fill="#ffffffb3"/>
  <rect x="18" y="19" width="3" height="1" fill="#fefefeb3"/>
  <rect x="21" y="19" width="2" height="1" fill="#ffffffb3"/>
  <rect x="23" y="19" width="1" height="1" fill="#b8b8b830"/>
  <rect x="24" y="19" width="1" height="1" fill="#b2b2b245"/>
  <rect x="25" y="19" width="1" height="1" fill="#fdfdfd"/>
  <rect x="26" y="19" width="1" height="1" fill="#fefefe"/>
  <rect x="27" y="19" width="1" height="1" fill="#fdfdfd"/>
  <rect x="28" y="19" width="2" height="1" fill="#ffffff"/>
  <rect x="30" y="19" width="4" height="1" fill="#fefefe"/>
  <rect x="34" y="19" width="6" height="1" fill="#fdfdfd"/>
  <rect x="43" y="19" width="1" height="1" fill="#fcfbfc"/>
  <rect x="44" y="19" width="1" height="1" fill="#fefefe"/>
  <rect x="45" y="19" width="1" height="1" fill="#ffffff"/>
  <rect x="46" y="19" width="1" height="1" fill="#f9f9f9"/>
  <rect x="47" y="19" width="1" height="1" fill="#b3b3b345"/>
  <rect x="49" y="19" width="1" height="1" fill="#bababa44"/>
  <rect x="50" y="19" width="1" height="1" fill="#fcfbfcf8"/>
  <rect x="51" y="19" width="1" height="1" fill="#fdfdfd"/>
  <rect x="52" y="19" width="1" height="1" fill="#ffffff"/>
  <rect x="53" y="19" width="1" height="2" fill="#fdfdfd"/>
  <rect x="54" y="19" width="2" height="2" fill="#ffffff"/>
  <rect x="56" y="19" width="12" height="1" fill="#fefefe"/>
  <rect x="68" y="19" width="1" height="1" fill="#fafafa"/>
  <rect x="69" y="19" width="1" height="1" fill="#ffffff"/>
  <rect x="70" y="19" width="1" height="1" fill="#fdfdfd"/>
  <rect x="71" y="19" width="1" height="1" fill="#f9f9f9f8"/>
  <rect x="0" y="20" width="1" height="1" fill="#b4b4b411"/>
  <rect x="1" y="20" width="1" height="1" fill="#b4b4b432"/>
  <rect x="2" y="20" width="4" height="1" fill="#b6b6b643"/>
  <rect x="6" y="20" width="1" height="1" fill="#b7b7b743"/>
  <rect x="7" y="20" width="1" height="1" fill="#b7b7b766"/>
  <rect x="8" y="20" width="1" height="1" fill="#fcfbfcae"/>
  <rect x="9" y="20" width="1" height="1" fill="#fcfbfcb3"/>
  <rect x="10" y="20" width="2" height="2" fill="#ffffffb3"/>
  <rect x="12" y="20" width="1" height="1" fill="#fdfdfdb3"/>
  <rect x="13" y="20" width="2" height="1" fill="#ffffffb3"/>
  <rect x="15" y="20" width="1" height="1" fill="#fafafaae"/>
  <rect x="16" y="20" width="1" height="1" fill="#b6b6b666"/>
  <rect x="17" y="20" width="5" height="1" fill="#b6b6b643"/>
  <rect x="22" y="20" width="1" height="1" fill="#b6b6b632"/>
  <rect x="23" y="20" width="1" height="1" fill="#b6b6b611"/>
  <rect x="24" y="20" width="1" height="1" fill="#b9b9b918"/>
  <rect x="25" y="20" width="1" height="1" fill="#b9b9b947"/>
  <rect x="26" y="20" width="1" height="1" fill="#b9b9b95f"/>
  <rect x="27" y="20" width="2" height="1" fill="#b8b8b85f"/>
  <rect x="29" y="20" width="2" height="1" fill="#b7b7b75f"/>
  <rect x="31" y="20" width="1" height="1" fill="#b7b7b792"/>
  <rect x="32" y="20" width="1" height="1" fill="#fdfdfdf8"/>
  <rect x="33" y="20" width="1" height="1" fill="#fdfdfd"/>
  <rect x="34" y="20" width="5" height="1" fill="#ffffff"/>
  <rect x="39" y="20" width="1" height="1" fill="#f7f7f7f8"/>
  <rect x="40" y="20" width="1" height="1" fill="#b3b3b392"/>
  <rect x="41" y="20" width="1" height="1" fill="#b6b6b65f"/>
  <rect x="42" y="20" width="1" height="1" fill="#b9b9b95f"/>
  <rect x="43" y="20" width="1" height="1" fill="#b7b7b75f"/>
  <rect x="44" y="20" width="2" height="1" fill="#b3b3b35f"/>
  <rect x="46" y="20" width="1" height="1" fill="#b3b3b347"/>
  <rect x="47" y="20" width="1" height="1" fill="#b3b3b318"/>
  <rect x="49" y="20" width="1" height="1" fill="#b2b2b245"/>
  <rect x="50" y="20" width="1" height="1" fill="#f9f9f9"/>
  <rect x="51" y="20" width="1" height="1" fill="#f8f8f8"/>
  <rect x="52" y="20" width="1" height="1" fill="#fcfbfc"/>
  <rect x="56" y="20" width="2" height="1" fill="#fdfdfd"/>
  <rect x="58" y="20" width="1" height="1" fill="#fefefe"/>
  <rect x="59" y="20" width="1" height="1" fill="#f5f5f5"/>
  <rect x="60" y="20" width="1" height="1" fill="#ffffff"/>
  <rect x="61" y="20" width="1" height="1" fill="#f9f9f9"/>
  <rect x="62" y="20" width="1" height="1" fill="#fafafa"/>
  <rect x="63" y="20" width="3" height="1" fill="#ffffff"/>
  <rect x="66" y="20" width="1" height="1" fill="#fdfdfd"/>
  <rect x="67" y="20" width="1" height="1" fill="#f7f7f7"/>
  <rect x="68" y="20" width="3" height="1" fill="#ffffff"/>
  <rect x="71" y="20" width="1" height="1" fill="#fefefe"/>
  <rect x="7" y="21" width="1" height="1" fill="#b3b3b31a"/>
  <rect x="8" y="21" width="1" height="1" fill="#d7d7d783"/>
  <rect x="9" y="21" width="1" height="1" fill="#fdfdfdb2"/>
  <rect x="12" y="21" width="1" height="1" fill="#fcfbfcb3"/>
  <rect x="13" y="21" width="1" height="1" fill="#fdfdfdb3"/>
  <rect x="14" y="21" width="1" height="1" fill="#f3f3f3b2"/>
  <rect x="15" y="21" width="1" height="1" fill="#dddddd83"/>
  <rect x="16" y="21" width="1" height="1" fill="#b2b2b21a"/>
  <rect x="31" y="21" width="1" height="1" fill="#b4b4b425"/>
  <rect x="32" y="21" width="1" height="1" fill="#d9d9d9bb"/>
  <rect x="33" y="21" width="1" height="1" fill="#fefefefe"/>
  <rect x="34" y="21" width="3" height="1" fill="#ffffff"/>
  <rect x="37" y="21" width="1" height="1" fill="#fefefe"/>
  <rect x="38" y="21" width="1" height="1" fill="#f3f3f3fe"/>
  <rect x="39" y="21" width="1" height="1" fill="#dcdcdcbb"/>
  <rect x="40" y="21" width="1" height="1" fill="#b6b6b625"/>
  <rect x="49" y="21" width="1" height="1" fill="#b7b7b718"/>
  <rect x="50" y="21" width="1" height="1" fill="#b6b6b647"/>
  <rect x="51" y="21" width="1" height="1" fill="#b6b6b65f"/>
  <rect x="52" y="21" width="1" height="1" fill="#b2b2b25f"/>
  <rect x="53" y="21" width="1" height="1" fill="#b4b4b45f"/>
  <rect x="54" y="21" width="1" height="1" fill="#b7b7b75f"/>
  <rect x="55" y="21" width="1" height="1" fill="#b6b6b65f"/>
  <rect x="56" y="21" width="1" height="1" fill="#b8b8b892"/>
  <rect x="57" y="21" width="1" height="1" fill="#fafafaf8"/>
  <rect x="58" y="21" width="1" height="1" fill="#ffffff"/>
  <rect x="59" y="21" width="1" height="1" fill="#fcfbfc"/>
  <rect x="60" y="21" width="1" height="1" fill="#f9f9f9"/>
  <rect x="61" y="21" width="1" height="1" fill="#f7f7f7"/>
  <rect x="62" y="21" width="1" height="1" fill="#fcfbfc"/>
  <rect x="63" y="21" width="1" height="1" fill="#ffffff"/>
  <rect x="64" y="21" width="1" height="1" fill="#fafafaf8"/>
  <rect x="65" y="21" width="1" height="1" fill="#b7b7b792"/>
  <rect x="66" y="21" width="1" height="1" fill="#b3b3b35f"/>
  <rect x="67" y="21" width="1" height="1" fill="#b8b8b85f"/>
  <rect x="68" y="21" width="1" height="1" fill="#b6b6b65f"/>
  <rect x="69" y="21" width="2" height="1" fill="#b4b4b45f"/>
  <rect x="71" y="21" width="1" height="1" fill="#b3b3b347"/>
  <rect x="8" y="22" width="1" height="1" fill="#b0b0b022"/>
  <rect x="9" y="22" width="1" height="1" fill="#d3d3d36e"/>
  <rect x="10" y="22" width="1" height="1" fill="#efefefa5"/>
  <rect x="11" y="22" width="1" height="1" fill="#f9f9f9b1"/>
  <rect x="12" y="22" width="1" height="1" fill="#fafafab1"/>
  <rect x="13" y="22" width="1" height="1" fill="#ebebeba5"/>
  <rect x="14" y="22" width="1" height="1" fill="#cdcdcd6e"/>
  <rect x="15" y="22" width="1" height="1" fill="#b7b7b722"/>
  <rect x="32" y="22" width="1" height="1" fill="#b0b0b031"/>
  <rect x="33" y="22" width="1" height="1" fill="#d4d4d49c"/>
  <rect x="34" y="22" width="1" height="1" fill="#f0f0f0eb"/>
  <rect x="35" y="22" width="1" height="1" fill="#fafafafc"/>
  <rect x="36" y="22" width="1" height="1" fill="#f9f9f9fc"/>
  <rect x="37" y="22" width="1" height="1" fill="#ebebebeb"/>
  <rect x="38" y="22" width="1" height="1" fill="#cfcfcf9c"/>
  <rect x="39" y="22" width="1" height="1" fill="#bababa31"/>
  <rect x="56" y="22" width="1" height="1" fill="#b9b9b925"/>
  <rect x="57" y="22" width="1" height="1" fill="#d6d6d6bb"/>
  <rect x="58" y="22" width="1" height="1" fill="#fefefefe"/>
  <rect x="59" y="22" width="1" height="1" fill="#fafafa"/>
  <rect x="60" y="22" width="2" height="1" fill="#ffffff"/>
  <rect x="62" y="22" width="1" height="1" fill="#fdfdfd"/>
  <rect x="63" y="22" width="1" height="1" fill="#f9f9f9fe"/>
  <rect x="64" y="22" width="1" height="1" fill="#d6d6d6bb"/>
  <rect x="65" y="22" width="1" height="1" fill="#b9b9b925"/>
  <rect x="9" y="23" width="1" height="1" fill="#b3b3b312"/>
  <rect x="10" y="23" width="1" height="1" fill="#bdbdbd2a"/>
  <rect x="11" y="23" width="1" height="1" fill="#bbbbbb3b"/>
  <rect x="12" y="23" width="1" height="1" fill="#b8b8b83b"/>
  <rect x="13" y="23" width="1" height="1" fill="#b7b7b72a"/>
  <rect x="14" y="23" width="1" height="1" fill="#b4b4b412"/>
  <rect x="33" y="23" width="1" height="1" fill="#b3b3b31a"/>
  <rect x="34" y="23" width="1" height="1" fill="#bebebe3c"/>
  <rect x="35" y="23" width="1" height="1" fill="#bdbdbd54"/>
  <rect x="36" y="23" width="1" height="1" fill="#b3b3b354"/>
  <rect x="37" y="23" width="1" height="1" fill="#b6b6b63c"/>
  <rect x="38" y="23" width="1" height="1" fill="#b8b8b81a"/>
  <rect x="57" y="23" width="1" height="1" fill="#b6b6b631"/>
  <rect x="58" y="23" width="1" height="1" fill="#d0d0d09c"/>
  <rect x="59" y="23" width="1" height="1" fill="#eeeeeeeb"/>
  <rect x="60" y="23" width="1" height="1" fill="#fffffffc"/>
  <rect x="61" y="23" width="1" height="1" fill="#fdfdfdfc"/>
  <rect x="62" y="23" width="1" height="1" fill="#e9e9e9eb"/>
  <rect x="63" y="23" width="1" height="1" fill="#d2d2d29c"/>
  <rect x="64" y="23" width="1" height="1" fill="#b2b2b231"/>
</svg>