<svg xmlns="http://www.w3.org/2000/svg" width="11" height="13" viewBox="0 0 11 13" shape-rendering="crispEdges">
  <rect x="3" y="0" width="1" height="1" fill="#a3a7d6"/>
  <rect x="4" y="0" width="1" height="1" fill="#a6a7cf"/>
  <rect x="5" y="0" width="1" height="1" fill="#aaabcf"/>
  <rect x="6" y="0" width="1" height="1" fill="#a7acc8"/>
  <rect x="7" y="0" width="1" height="1" fill="#9badc9"/>
  <rect x="2" y="1" width="1" height="1" fill="#a1accb"/>
  <rect x="3" y="1" width="1" height="1" fill="#f4fdff"/>
  <rect x="4" y="1" width="1" height="1" fill="#f3fbff"/>
  <rect x="5" y="1" width="1" height="1" fill="#f4fdff"/>
  <rect x="6" y="1" width="1" height="1" fill="#effaff"/>
  <rect x="7" y="1" width="1" height="1" fill="#ebffff"/>
  <rect x="8" y="1" width="1" height="1" fill="#81a7ca"/>
  <rect x="1" y="2" width="1" height="1" fill="#98b3d3"/>
  <rect x="2" y="2" width="1" height="1" fill="#ebffff"/>
  <rect x="3" y="2" width="1" height="1" fill="#f2ffff"/>
  <rect x="4" y="2" width="1" height="1" fill="#405c90"/>
  <rect x="5" y="2" width="1" height="1" fill="#5775ad"/>
  <rect x="6" y="2" width="1" height="1" fill="#667fad"/>
  <rect x="7" y="2" width="1" height="1" fill="#e7ffff"/>
  <rect x="8" y="2" width="1" height="1" fill="#ecffff"/>
  <rect x="9" y="2" width="1" height="1" fill="#839cb4"/>
  <rect x="1" y="3" width="1" height="1" fill="#9bb6e2"/>
  <rect x="2" y="3" width="1" height="1" fill="#e9ffff"/>
  <rect x="3" y="3" width="1" height="1" fill="#4a6583"/>
  <rect x="7" y="3" width="1" height="1" fill="#839cc8"/>
  <rect x="8" y="3" width="1" height="1" fill="#eaffff"/>
  <rect x="9" y="3" width="1" height="1" fill="#647793"/>
  <rect x="1" y="4" width="1" height="1" fill="#9fafd9"/>
  <rect x="2" y="4" width="1" height="1" fill="#e7fcff"/>
  <rect x="3" y="4" width="1" height="1" fill="#59708d"/>
  <rect x="7" y="4" width="1" height="1" fill="#9fb2e3"/>
  <rect x="8" y="4" width="1" height="1" fill="#f1ffff"/>
  <rect x="9" y="4" width="1" height="1" fill="#6b799d"/>
  <rect x="1" y="5" width="1" height="1" fill="#a1acd6"/>
  <rect x="2" y="5" width="1" height="1" fill="#e9f9ff"/>
  <rect x="3" y="5" width="1" height="1" fill="#647793"/>
  <rect x="7" y="5" width="1" height="1" fill="#a6b6e0"/>
  <rect x="8" y="5" width="1" height="1" fill="#efffff"/>
  <rect x="9" y="5" width="1" height="1" fill="#65739c"/>
  <rect x="0" y="6" width="1" height="1" fill="#bac5f6"/>
  <rect x="1" y="6" width="1" height="1" fill="#a3aed8"/>
  <rect x="2" y="6" width="1" height="1" fill="#aab5d6"/>
  <rect x="3" y="6" width="1" height="1" fill="#a7b3cc"/>
  <rect x="4" y="6" width="1" height="1" fill="#a4b3c9"/>
  <rect x="5" y="6" width="1" height="1" fill="#a5b4ca"/>
  <rect x="6" y="6" width="1" height="1" fill="#a3b4c9"/>
  <rect x="7" y="6" width="1" height="1" fill="#9eb1c8"/>
  <rect x="8" y="6" width="1" height="1" fill="#9db2cd"/>
  <rect x="9" y="6" width="1" height="1" fill="#a0b5dc"/>
  <rect x="10" y="6" width="1" height="1" fill="#889dd4"/>
  <rect x="0" y="7" width="1" height="1" fill="#a1abda"/>
  <rect x="1" y="7" width="1" height="1" fill="#f6ffff"/>
  <rect x="2" y="7" width="1" height="1" fill="#f9ffff"/>
  <rect x="3" y="7" width="1" height="1" fill="#f5ffff"/>
  <rect x="4" y="7" width="1" height="1" fill="#f1ffff"/>
  <rect x="5" y="7" width="1" height="1" fill="#f0feff"/>
  <rect x="6" y="7" width="1" height="1" fill="#f1ffff"/>
  <rect x="7" y="7" width="1" height="1" fill="#f5ffff"/>
  <rect x="8" y="7" width="1" height="1" fill="#e6f8ff"/>
  <rect x="9" y="7" width="1" height="1" fill="#dcefff"/>
  <rect x="10" y="7" width="1" height="1" fill="#5a73ba"/>
  <rect x="0" y="8" width="1" height="1" fill="#a4aacf"/>
  <rect x="1" y="8" width="1" height="1" fill="#ccd2f4"/>
  <rect x="2" y="8" width="1" height="1" fill="#d6daf6"/>
  <rect x="3" y="8" width="1" height="1" fill="#d8e0f4"/>
  <rect x="4" y="8" width="1" height="1" fill="#cfd8ea"/>
  <rect x="5" y="8" width="1" height="1" fill="#cfd8e8"/>
  <rect x="6" y="8" width="1" height="1" fill="#cfdae1"/>
  <rect x="7" y="8" width="1" height="1" fill="#cfd9e4"/>
  <rect x="8" y="8" width="1" height="1" fill="#dce1f6"/>
  <rect x="9" y="8" width="1" height="1" fill="#ced9ff"/>
  <rect x="10" y="8" width="1" height="1" fill="#5670be"/>
  <rect x="0" y="9" width="1" height="1" fill="#a7abca"/>
  <rect x="1" y="9" width="1" height="1" fill="#fdffff"/>
  <rect x="2" y="9" width="1" height="1" fill="#fbffff"/>
  <rect x="3" y="9" width="1" height="1" fill="#f0f7ff"/>
  <rect x="4" y="9" width="1" height="1" fill="#f6fdff"/>
  <rect x="5" y="9" width="1" height="1" fill="#f9ffff"/>
  <rect x="6" y="9" width="1" height="1" fill="#f2faff"/>
  <rect x="7" y="9" width="1" height="1" fill="#e5ecf7"/>
  <rect x="8" y="9" width="1" height="1" fill="#f6f9ff"/>
  <rect x="9" y="9" width="1" height="1" fill="#dfe7ff"/>
  <rect x="10" y="9" width="1" height="1" fill="#5571c1"/>
  <rect x="0" y="10" width="1" height="1" fill="#a4acc3"/>
  <rect x="1" y="10" width="1" height="1" fill="#c7cfe3"/>
  <rect x="2" y="10" width="1" height="1" fill="#d3dbed"/>
  <rect x="3" y="10" width="1" height="1" fill="#cdd6e5"/>
  <rect x="4" y="10" width="1" height="1" fill="#ced8e4"/>
  <rect x="5" y="10" width="1" height="1" fill="#d1dbe3"/>
  <rect x="6" y="10" width="1" height="1" fill="#d3dde3"/>
  <rect x="7" y="10" width="1" height="1" fill="#d4e0e9"/>
  <rect x="8" y="10" width="1" height="1" fill="#ced8ee"/>
  <rect x="9" y="10" width="1" height="1" fill="#c2d5fe"/>
  <rect x="10" y="10" width="1" height="1" fill="#5171ba"/>
  <rect x="0" y="11" width="1" height="1" fill="#9cb0d0"/>
  <rect x="1" y="11" width="1" height="1" fill="#ecffff"/>
  <rect x="2" y="11" width="1" height="1" fill="#efffff"/>
  <rect x="3" y="11" width="1" height="1" fill="#dcf0ff"/>
  <rect x="4" y="11" width="1" height="1" fill="#ebffff"/>
  <rect x="5" y="11" width="1" height="1" fill="#d6ebff"/>
  <rect x="6" y="11" width="1" height="1" fill="#d1e7ff"/>
  <rect x="7" y="11" width="1" height="1" fill="#e1f5ff"/>
  <rect x="8" y="11" width="1" height="1" fill="#def3ff"/>
  <rect x="9" y="11" width="1" height="1" fill="#cbe7ff"/>
  <rect x="10" y="11" width="1" height="1" fill="#4f75bf"/>
  <rect x="0" y="12" width="1" height="1" fill="#7aa3de"/>
  <rect x="1" y="12" width="1" height="1" fill="#4f77b3"/>
  <rect x="2" y="12" width="1" height="1" fill="#527bb6"/>
  <rect x="3" y="12" width="1" height="1" fill="#5079b4"/>
  <rect x="4" y="12" width="1" height="1" fill="#5078b6"/>
  <rect x="5" y="12" width="1" height="1" fill="#5277b6"/>
  <rect x="6" y="12" width="1" height="1" fill="#5277b8"/>
  <rect x="7" y="12" width="1" height="1" fill="#5376b8"/>
  <rect x="8" y="12" width="1" height="1" fill="#5174b6"/>
  <rect x="9" y="12" width="1" height="1" fill="#4f75bd"/>
  <rect x="10" y="12" width="1" height="1" fill="#3d66b8"/>
</svg>