<svg xmlns="http://www.w3.org/2000/svg" width="14" height="14" viewBox="0 0 14 14" shape-rendering="crispEdges">
  <rect x="0" y="0" width="1" height="1" fill="#afb1b346"/>
  <rect x="1" y="0" width="1" height="1" fill="#aeb0b2d9"/>
  <rect x="2" y="0" width="2" height="1" fill="#acaeb0"/>
  <rect x="4" y="0" width="1" height="1" fill="#aeb0b2"/>
  <rect x="5" y="0" width="4" height="1" fill="#afb1b3"/>
  <rect x="9" y="0" width="1" height="1" fill="#afb1b3d9"/>
  <rect x="10" y="0" width="1" height="1" fill="#afb1b346"/>
  <rect x="0" y="1" width="1" height="1" fill="#b5b7b9e6"/>
  <rect x="1" y="1" width="1" height="1" fill="#b8babb"/>
  <rect x="2" y="1" width="1" height="1" fill="#969899"/>
  <rect x="3" y="1" width="1" height="1" fill="#97999b"/>
  <rect x="4" y="1" width="4" height="1" fill="#969899"/>
  <rect x="8" y="1" width="1" height="1" fill="#999b9d"/>
  <rect x="9" y="1" width="1" height="2" fill="#acaeb0"/>
  <rect x="10" y="1" width="1" height="1" fill="#b4b6b8e1"/>
  <rect x="0" y="2" width="1" height="1" fill="#aaacad"/>
  <rect x="1" y="2" width="1" height="1" fill="#b2b4b5"/>
  <rect x="2" y="2" width="1" height="1" fill="#9a9c9e34"/>
  <rect x="8" y="2" width="1" height="1" fill="#999b9d35"/>
  <rect x="10" y="2" width="1" height="1" fill="#b4b6b8"/>
  <rect x="0" y="3" width="1" height="1" fill="#b4b6b8"/>
  <rect x="1" y="3" width="1" height="2" fill="#afb1b3"/>
  <rect x="9" y="3" width="2" height="1" fill="#afb1b3"/>
  <rect x="0" y="4" width="1" height="1" fill="#b8babb"/>
  <rect x="3" y="4" width="1" height="1" fill="#9d9fa0ee"/>
  <rect x="4" y="4" width="1" height="1" fill="#97999bee"/>
  <rect x="5" y="4" width="1" height="1" fill="#989a9cee"/>
  <rect x="6" y="4" width="1" height="1" fill="#9a9c9eee"/>
  <rect x="7" y="4" width="1" height="1" fill="#9c9e9fee"/>
  <rect x="9" y="4" width="2" height="1" fill="#b3b5b6"/>
  <rect x="0" y="5" width="1" height="1" fill="#afb1b3"/>
  <rect x="1" y="5" width="1" height="1" fill="#acaeb0"/>
  <rect x="9" y="5" width="2" height="1" fill="#999b9d"/>
  <rect x="0" y="6" width="1" height="1" fill="#bbbdbf"/>
  <rect x="1" y="6" width="1" height="1" fill="#b1b3b4"/>
  <rect x="3" y="6" width="1" height="1" fill="#999b9dee"/>
  <rect x="4" y="6" width="1" height="1" fill="#97999bee"/>
  <rect x="5" y="6" width="1" height="1" fill="#9a9c9eee"/>
  <rect x="0" y="7" width="1" height="1" fill="#b3b5b6"/>
  <rect x="1" y="7" width="1" height="1" fill="#afb1b3"/>
  <rect x="9" y="7" width="2" height="1" fill="#acaeb0"/>
  <rect x="0" y="8" width="1" height="1" fill="#b6b8ba"/>
  <rect x="1" y="8" width="1" height="2" fill="#b1b3b4"/>
  <rect x="3" y="8" width="1" height="1" fill="#97999bee"/>
  <rect x="4" y="8" width="1" height="1" fill="#999b9dee"/>
  <rect x="9" y="8" width="2" height="1" fill="#b2b4b5"/>
  <rect x="0" y="9" width="1" height="1" fill="#afb1b3"/>
  <rect x="7" y="9" width="2" height="1" fill="#afb1b3"/>
  <rect x="9" y="9" width="2" height="2" fill="#b1b3b4"/>
  <rect x="11" y="9" width="1" height="1" fill="#afb1b3"/>
  <rect x="12" y="9" width="1" height="1" fill="#b8babb"/>
  <rect x="0" y="10" width="1" height="1" fill="#a6a8aa"/>
  <rect x="1" y="10" width="1" height="1" fill="#adafb1"/>
  <rect x="2" y="10" width="1" height="1" fill="#aeb0b23b"/>
  <rect x="7" y="10" width="2" height="1" fill="#9d9fa0"/>
  <rect x="11" y="10" width="1" height="1" fill="#9d9fa0"/>
  <rect x="12" y="10" width="1" height="1" fill="#999b9d"/>
  <rect x="0" y="11" width="1" height="1" fill="#a0a2a4e6"/>
  <rect x="1" y="11" width="1" height="1" fill="#aaacad"/>
  <rect x="2" y="11" width="1" height="1" fill="#b2b4b5"/>
  <rect x="3" y="11" width="1" height="1" fill="#aeb0b2"/>
  <rect x="4" y="11" width="1" height="1" fill="#b5b7b9"/>
  <rect x="5" y="11" width="1" height="1" fill="#afb1b3"/>
  <rect x="9" y="11" width="2" height="1" fill="#afb1b3"/>
  <rect x="0" y="12" width="1" height="1" fill="#989a9c46"/>
  <rect x="1" y="12" width="1" height="1" fill="#989a9cda"/>
  <rect x="2" y="12" width="2" height="1" fill="#989a9c"/>
  <rect x="4" y="12" width="1" height="1" fill="#a0a2a4"/>
  <rect x="5" y="12" width="1" height="1" fill="#a3a5a6"/>
  <rect x="9" y="12" width="2" height="1" fill="#939597"/>
</svg>