<svg xmlns="http://www.w3.org/2000/svg" width="16" height="16" viewBox="0 0 16 16" shape-rendering="crispEdges">
  <rect x="1" y="3" width="1" height="1" fill="#ababab49"/>
  <rect x="2" y="3" width="1" height="1" fill="#acacace6"/>
  <rect x="3" y="3" width="6" height="1" fill="#ababab"/>
  <rect x="9" y="3" width="2" height="1" fill="#acacac"/>
  <rect x="11" y="3" width="2" height="1" fill="#ababab"/>
  <rect x="13" y="3" width="1" height="1" fill="#acacace4"/>
  <rect x="14" y="3" width="1" height="1" fill="#acacac46"/>
  <rect x="1" y="4" width="1" height="1" fill="#adadade6"/>
  <rect x="2" y="4" width="1" height="1" fill="#afafaf"/>
  <rect x="3" y="4" width="1" height="1" fill="#b1b1b1"/>
  <rect x="4" y="4" width="3" height="1" fill="#b0b0b0"/>
  <rect x="7" y="4" width="1" height="1" fill="#adadad"/>
  <rect x="8" y="4" width="3" height="1" fill="#acacac"/>
  <rect x="11" y="4" width="1" height="2" fill="#afafaf"/>
  <rect x="12" y="4" width="1" height="1" fill="#b0afb2"/>
  <rect x="13" y="4" width="1" height="2" fill="#afaeb1"/>
  <rect x="14" y="4" width="1" height="1" fill="#adadb0df"/>
  <rect x="1" y="5" width="1" height="1" fill="#b0b0b0"/>
  <rect x="2" y="5" width="1" height="1" fill="#adadad"/>
  <rect x="3" y="5" width="2" height="1" fill="#acacac"/>
  <rect x="5" y="5" width="2" height="1" fill="#a9a9a9"/>
  <rect x="7" y="5" width="1" height="1" fill="#b0b0b0"/>
  <rect x="8" y="5" width="1" height="1" fill="#b1b1b1"/>
  <rect x="9" y="5" width="2" height="1" fill="#acacac"/>
  <rect x="12" y="5" width="1" height="1" fill="#adadb0"/>
  <rect x="14" y="5" width="1" height="1" fill="#b0afb2f0"/>
  <rect x="1" y="6" width="1" height="1" fill="#b1b1b1"/>
  <rect x="2" y="6" width="1" height="1" fill="#acacac"/>
  <rect x="3" y="6" width="2" height="1" fill="#9d9d9d"/>
  <rect x="5" y="6" width="2" height="1" fill="#b0b0b0"/>
  <rect x="7" y="6" width="1" height="1" fill="#9d9d9d"/>
  <rect x="8" y="6" width="1" height="1" fill="#999999"/>
  <rect x="9" y="6" width="1" height="2" fill="#acacac"/>
  <rect x="10" y="6" width="1" height="2" fill="#abadac"/>
  <rect x="11" y="6" width="1" height="1" fill="#979999"/>
  <rect x="12" y="6" width="1" height="1" fill="#9d9fa0"/>
  <rect x="13" y="6" width="1" height="1" fill="#abadae"/>
  <rect x="14" y="6" width="1" height="2" fill="#b1b3b4f0"/>
  <rect x="1" y="7" width="1" height="1" fill="#b3b3b3"/>
  <rect x="2" y="7" width="1" height="1" fill="#ababab"/>
  <rect x="3" y="7" width="1" height="1" fill="#9595953b"/>
  <rect x="4" y="7" width="1" height="1" fill="#9e9e9e3c"/>
  <rect x="5" y="7" width="2" height="1" fill="#aaaaaa"/>
  <rect x="7" y="7" width="1" height="1" fill="#9e9e9e3b"/>
  <rect x="8" y="7" width="1" height="1" fill="#a0a0a03c"/>
  <rect x="11" y="7" width="1" height="1" fill="#9ea0a03b"/>
  <rect x="12" y="7" width="1" height="1" fill="#9395973c"/>
  <rect x="13" y="7" width="1" height="1" fill="#a8aaac"/>
  <rect x="1" y="8" width="1" height="3" fill="#aaaaaa"/>
  <rect x="2" y="8" width="1" height="1" fill="#adadad"/>
  <rect x="3" y="8" width="1" height="1" fill="#b0b0b03b"/>
  <rect x="4" y="8" width="1" height="1" fill="#b0afb23b"/>
  <rect x="5" y="8" width="1" height="4" fill="#afaeb1"/>
  <rect x="6" y="8" width="1" height="1" fill="#adafb1"/>
  <rect x="7" y="8" width="1" height="1" fill="#adafb13b"/>
  <rect x="8" y="8" width="1" height="1" fill="#acaeb03b"/>
  <rect x="9" y="8" width="2" height="2" fill="#abadae"/>
  <rect x="11" y="8" width="1" height="1" fill="#acaeb03b"/>
  <rect x="12" y="8" width="1" height="1" fill="#afb1b33b"/>
  <rect x="13" y="8" width="1" height="1" fill="#a6a8aa"/>
  <rect x="14" y="8" width="1" height="1" fill="#adafb1f0"/>
  <rect x="2" y="9" width="1" height="3" fill="#afafaf"/>
  <rect x="3" y="9" width="1" height="3" fill="#b0b0b0"/>
  <rect x="4" y="9" width="1" height="3" fill="#b0afb2"/>
  <rect x="6" y="9" width="2" height="3" fill="#adafb1"/>
  <rect x="8" y="9" width="1" height="1" fill="#acaeb0"/>
  <rect x="11" y="9" width="2" height="1" fill="#adafb1"/>
  <rect x="13" y="9" width="1" height="1" fill="#a8aaac"/>
  <rect x="14" y="9" width="1" height="1" fill="#a8aaacf0"/>
  <rect x="8" y="10" width="2" height="2" fill="#acaeb0"/>
  <rect x="10" y="10" width="3" height="1" fill="#aaafb0"/>
  <rect x="13" y="10" width="1" height="1" fill="#abb0b1"/>
  <rect x="14" y="10" width="1" height="1" fill="#a3a8a9f0"/>
  <rect x="1" y="11" width="1" height="1" fill="#aaaaaae6"/>
  <rect x="10" y="11" width="2" height="1" fill="#aaafb0"/>
  <rect x="12" y="11" width="1" height="1" fill="#a9aeae"/>
  <rect x="13" y="11" width="1" height="1" fill="#afb3b4"/>
  <rect x="14" y="11" width="1" height="1" fill="#a0a4a5df"/>
  <rect x="1" y="12" width="1" height="1" fill="#9c9c9c4a"/>
  <rect x="2" y="12" width="1" height="1" fill="#979797e7"/>
  <rect x="3" y="12" width="1" height="1" fill="#999999"/>
  <rect x="4" y="12" width="2" height="1" fill="#949396"/>
  <rect x="6" y="12" width="2" height="1" fill="#929496"/>
  <rect x="8" y="12" width="2" height="1" fill="#919395"/>
  <rect x="10" y="12" width="1" height="1" fill="#909495"/>
  <rect x="11" y="12" width="1" height="1" fill="#919596"/>
  <rect x="12" y="12" width="1" height="1" fill="#93979a"/>
  <rect x="13" y="12" width="1" height="1" fill="#989c9fe5"/>
  <rect x="14" y="12" width="1" height="1" fill="#9ca0a446"/>
</svg>