<svg xmlns="http://www.w3.org/2000/svg" width="64" height="16" viewBox="0 0 64 16" shape-rendering="crispEdges">
  <rect x="6" y="0" width="1" height="1" fill="#a9a9a978"/>
  <rect x="7" y="0" width="1" height="1" fill="#a9a9a99f"/>
  <rect x="8" y="0" width="1" height="1" fill="#a9a9a91f"/>
  <rect x="22" y="0" width="1" height="1" fill="#76767678"/>
  <rect x="23" y="0" width="1" height="1" fill="#7676769f"/>
  <rect x="24" y="0" width="1" height="1" fill="#7676761f"/>
  <rect x="54" y="0" width="1" height="1" fill="#cccccc78"/>
  <rect x="55" y="0" width="1" height="1" fill="#cccccc9f"/>
  <rect x="56" y="0" width="1" height="1" fill="#cccccc1f"/>
  <rect x="5" y="1" width="1" height="1" fill="#a9a9a99d"/>
  <rect x="6" y="1" width="2" height="1" fill="#a9a9a9"/>
  <rect x="8" y="1" width="1" height="1" fill="#a9a9a9a0"/>
  <rect x="21" y="1" width="1" height="1" fill="#7676769d"/>
  <rect x="22" y="1" width="2" height="1" fill="#767676"/>
  <rect x="24" y="1" width="1" height="1" fill="#767676a0"/>
  <rect x="39" y="1" width="1" height="1" fill="#76767678"/>
  <rect x="40" y="1" width="1" height="1" fill="#7676769f"/>
  <rect x="41" y="1" width="1" height="1" fill="#7676761f"/>
  <rect x="53" y="1" width="1" height="1" fill="#cccccc9d"/>
  <rect x="54" y="1" width="2" height="1" fill="#cccccc"/>
  <rect x="56" y="1" width="1" height="1" fill="#cccccca0"/>
  <rect x="4" y="2" width="1" height="1" fill="#a9a9a99d"/>
  <rect x="5" y="2" width="3" height="1" fill="#a9a9a9"/>
  <rect x="8" y="2" width="1" height="1" fill="#a9a9a979"/>
  <rect x="20" y="2" width="1" height="1" fill="#7676769d"/>
  <rect x="21" y="2" width="3" height="1" fill="#767676"/>
  <rect x="24" y="2" width="1" height="1" fill="#76767679"/>
  <rect x="38" y="2" width="1" height="1" fill="#7676769d"/>
  <rect x="39" y="2" width="2" height="1" fill="#767676"/>
  <rect x="41" y="2" width="1" height="1" fill="#767676a0"/>
  <rect x="52" y="2" width="1" height="1" fill="#cccccc9d"/>
  <rect x="53" y="2" width="3" height="1" fill="#cccccc"/>
  <rect x="56" y="2" width="1" height="1" fill="#cccccc79"/>
  <rect x="3" y="3" width="1" height="1" fill="#a9a9a99d"/>
  <rect x="4" y="3" width="3" height="1" fill="#a9a9a9"/>
  <rect x="7" y="3" width="1" height="1" fill="#a9a9a99d"/>
  <rect x="19" y="3" width="1" height="1" fill="#7676769d"/>
  <rect x="20" y="3" width="3" height="1" fill="#767676"/>
  <rect x="23" y="3" width="1" height="1" fill="#7676769d"/>
  <rect x="37" y="3" width="1" height="1" fill="#7676769d"/>
  <rect x="38" y="3" width="3" height="1" fill="#767676"/>
  <rect x="41" y="3" width="1" height="1" fill="#76767679"/>
  <rect x="51" y="3" width="1" height="1" fill="#cccccc9d"/>
  <rect x="52" y="3" width="3" height="1" fill="#cccccc"/>
  <rect x="55" y="3" width="1" height="1" fill="#cccccc9d"/>
  <rect x="2" y="4" width="1" height="1" fill="#a9a9a99d"/>
  <rect x="3" y="4" width="3" height="1" fill="#a9a9a9"/>
  <rect x="6" y="4" width="1" height="1" fill="#a9a9a99d"/>
  <rect x="18" y="4" width="1" height="1" fill="#7676769d"/>
  <rect x="19" y="4" width="3" height="1" fill="#767676"/>
  <rect x="22" y="4" width="1" height="1" fill="#7676769d"/>
  <rect x="36" y="4" width="1" height="1" fill="#7676769d"/>
  <rect x="37" y="4" width="3" height="1" fill="#767676"/>
  <rect x="40" y="4" width="1" height="1" fill="#7676769d"/>
  <rect x="50" y="4" width="1" height="1" fill="#cccccc9d"/>
  <rect x="51" y="4" width="3" height="1" fill="#cccccc"/>
  <rect x="54" y="4" width="1" height="1" fill="#cccccc9d"/>
  <rect x="1" y="5" width="1" height="1" fill="#a9a9a99d"/>
  <rect x="2" y="5" width="3" height="1" fill="#a9a9a9"/>
  <rect x="5" y="5" width="1" height="1" fill="#a9a9a99d"/>
  <rect x="17" y="5" width="1" height="1" fill="#7676769d"/>
  <rect x="18" y="5" width="3" height="1" fill="#767676"/>
  <rect x="21" y="5" width="1" height="1" fill="#7676769d"/>
  <rect x="35" y="5" width="1" height="1" fill="#7676769d"/>
  <rect x="36" y="5" width="3" height="1" fill="#767676"/>
  <rect x="39" y="5" width="1" height="1" fill="#7676769d"/>
  <rect x="49" y="5" width="1" height="1" fill="#cccccc9d"/>
  <rect x="50" y="5" width="3" height="1" fill="#cccccc"/>
  <rect x="53" y="5" width="1" height="1" fill="#cccccc9d"/>
  <rect x="0" y="6" width="1" height="1" fill="#a9a9a985"/>
  <rect x="1" y="6" width="1" height="1" fill="#a9a9a9f9"/>
  <rect x="2" y="6" width="11" height="1" fill="#a9a9a9"/>
  <rect x="13" y="6" width="1" height="1" fill="#a9a9a9f9"/>
  <rect x="14" y="6" width="1" height="1" fill="#a9a9a985"/>
  <rect x="16" y="6" width="1" height="1" fill="#76767685"/>
  <rect x="17" y="6" width="1" height="1" fill="#767676f9"/>
  <rect x="18" y="6" width="11" height="1" fill="#767676"/>
  <rect x="29" y="6" width="1" height="1" fill="#767676f9"/>
  <rect x="30" y="6" width="1" height="1" fill="#76767685"/>
  <rect x="34" y="6" width="1" height="1" fill="#7676769d"/>
  <rect x="35" y="6" width="3" height="1" fill="#767676"/>
  <rect x="38" y="6" width="1" height="1" fill="#7676769d"/>
  <rect x="48" y="6" width="1" height="1" fill="#cccccc85"/>
  <rect x="49" y="6" width="1" height="1" fill="#ccccccf9"/>
  <rect x="50" y="6" width="11" height="1" fill="#cccccc"/>
  <rect x="61" y="6" width="1" height="1" fill="#ccccccf9"/>
  <rect x="62" y="6" width="1" height="1" fill="#cccccc85"/>
  <rect x="0" y="7" width="1" height="1" fill="#a9a9a9f9"/>
  <rect x="1" y="7" width="13" height="1" fill="#a9a9a9"/>
  <rect x="14" y="7" width="1" height="1" fill="#a9a9a9f3"/>
  <rect x="16" y="7" width="1" height="1" fill="#767676f9"/>
  <rect x="17" y="7" width="13" height="1" fill="#767676"/>
  <rect x="30" y="7" width="1" height="1" fill="#767676f3"/>
  <rect x="33" y="7" width="1" height="1" fill="#76767685"/>
  <rect x="34" y="7" width="1" height="1" fill="#767676f9"/>
  <rect x="35" y="7" width="11" height="1" fill="#767676"/>
  <rect x="46" y="7" width="1" height="1" fill="#767676f9"/>
  <rect x="47" y="7" width="1" height="1" fill="#76767685"/>
  <rect x="48" y="7" width="1" height="1" fill="#ccccccf9"/>
  <rect x="49" y="7" width="13" height="1" fill="#cccccc"/>
  <rect x="62" y="7" width="1" height="1" fill="#ccccccf3"/>
  <rect x="0" y="8" width="1" height="1" fill="#a9a9a985"/>
  <rect x="1" y="8" width="1" height="1" fill="#a9a9a9f9"/>
  <rect x="2" y="8" width="11" height="1" fill="#a9a9a9"/>
  <rect x="13" y="8" width="1" height="1" fill="#a9a9a9fa"/>
  <rect x="14" y="8" width="1" height="1" fill="#a9a9a985"/>
  <rect x="16" y="8" width="1" height="1" fill="#76767685"/>
  <rect x="17" y="8" width="1" height="1" fill="#767676f9"/>
  <rect x="18" y="8" width="11" height="1" fill="#767676"/>
  <rect x="29" y="8" width="1" height="1" fill="#767676fa"/>
  <rect x="30" y="8" width="1" height="1" fill="#76767685"/>
  <rect x="33" y="8" width="1" height="1" fill="#767676f9"/>
  <rect x="34" y="8" width="13" height="1" fill="#767676"/>
  <rect x="47" y="8" width="1" height="1" fill="#767676f3"/>
  <rect x="48" y="8" width="1" height="1" fill="#cccccc85"/>
  <rect x="49" y="8" width="1" height="1" fill="#ccccccf9"/>
  <rect x="50" y="8" width="11" height="1" fill="#cccccc"/>
  <rect x="61" y="8" width="1" height="1" fill="#ccccccfa"/>
  <rect x="62" y="8" width="1" height="1" fill="#cccccc85"/>
  <rect x="1" y="9" width="1" height="1" fill="#a9a9a996"/>
  <rect x="2" y="9" width="3" height="1" fill="#a9a9a9"/>
  <rect x="5" y="9" width="1" height="1" fill="#a9a9a9a2"/>
  <rect x="17" y="9" width="1" height="1" fill="#76767696"/>
  <rect x="18" y="9" width="3" height="1" fill="#767676"/>
  <rect x="21" y="9" width="1" height="1" fill="#767676a2"/>
  <rect x="33" y="9" width="1" height="1" fill="#76767685"/>
  <rect x="34" y="9" width="1" height="1" fill="#767676f9"/>
  <rect x="35" y="9" width="11" height="1" fill="#767676"/>
  <rect x="46" y="9" width="1" height="1" fill="#767676fa"/>
  <rect x="47" y="9" width="1" height="1" fill="#76767685"/>
  <rect x="49" y="9" width="1" height="1" fill="#cccccc96"/>
  <rect x="50" y="9" width="3" height="1" fill="#cccccc"/>
  <rect x="53" y="9" width="1" height="1" fill="#cccccca2"/>
  <rect x="2" y="10" width="1" height="1" fill="#a9a9a996"/>
  <rect x="3" y="10" width="3" height="1" fill="#a9a9a9"/>
  <rect x="6" y="10" width="1" height="1" fill="#a9a9a9a3"/>
  <rect x="18" y="10" width="1" height="1" fill="#76767696"/>
  <rect x="19" y="10" width="3" height="1" fill="#767676"/>
  <rect x="22" y="10" width="1" height="1" fill="#767676a3"/>
  <rect x="34" y="10" width="1" height="1" fill="#76767696"/>
  <rect x="35" y="10" width="3" height="1" fill="#767676"/>
  <rect x="38" y="10" width="1" height="1" fill="#767676a2"/>
  <rect x="50" y="10" width="1" height="1" fill="#cccccc96"/>
  <rect x="51" y="10" width="3" height="1" fill="#cccccc"/>
  <rect x="54" y="10" width="1" height="1" fill="#cccccca3"/>
  <rect x="3" y="11" width="1" height="1" fill="#a9a9a996"/>
  <rect x="4" y="11" width="3" height="1" fill="#a9a9a9"/>
  <rect x="7" y="11" width="1" height="1" fill="#a9a9a9a3"/>
  <rect x="19" y="11" width="1" height="1" fill="#76767696"/>
  <rect x="20" y="11" width="3" height="1" fill="#767676"/>
  <rect x="23" y="11" width="1" height="1" fill="#767676a3"/>
  <rect x="35" y="11" width="1" height="1" fill="#76767696"/>
  <rect x="36" y="11" width="3" height="1" fill="#767676"/>
  <rect x="39" y="11" width="1" height="1" fill="#767676a3"/>
  <rect x="51" y="11" width="1" height="1" fill="#cccccc96"/>
  <rect x="52" y="11" width="3" height="1" fill="#cccccc"/>
  <rect x="55" y="11" width="1" height="1" fill="#cccccca3"/>
  <rect x="4" y="12" width="1" height="1" fill="#a9a9a996"/>
  <rect x="5" y="12" width="3" height="1" fill="#a9a9a9"/>
  <rect x="8" y="12" width="1" height="1" fill="#a9a9a972"/>
  <rect x="20" y="12" width="1" height="1" fill="#76767696"/>
  <rect x="21" y="12" width="3" height="1" fill="#767676"/>
  <rect x="24" y="12" width="1" height="1" fill="#76767672"/>
  <rect x="36" y="12" width="1" height="1" fill="#76767696"/>
  <rect x="37" y="12" width="3" height="1" fill="#767676"/>
  <rect x="40" y="12" width="1" height="1" fill="#767676a3"/>
  <rect x="52" y="12" width="1" height="1" fill="#cccccc96"/>
  <rect x="53" y="12" width="3" height="1" fill="#cccccc"/>
  <rect x="56" y="12" width="1" height="1" fill="#cccccc72"/>
  <rect x="5" y="13" width="1" height="1" fill="#a9a9a996"/>
  <rect x="6" y="13" width="2" height="1" fill="#a9a9a9"/>
  <rect x="8" y="13" width="1" height="1" fill="#a9a9a98b"/>
  <rect x="21" y="13" width="1" height="1" fill="#76767696"/>
  <rect x="22" y="13" width="2" height="1" fill="#767676"/>
  <rect x="24" y="13" width="1" height="1" fill="#7676768b"/>
  <rect x="37" y="13" width="1" height="1" fill="#76767696"/>
  <rect x="38" y="13" width="3" height="1" fill="#767676"/>
  <rect x="41" y="13" width="1" height="1" fill="#76767672"/>
  <rect x="53" y="13" width="1" height="1" fill="#cccccc96"/>
  <rect x="54" y="13" width="2" height="1" fill="#cccccc"/>
  <rect x="56" y="13" width="1" height="1" fill="#cccccc8b"/>
  <rect x="6" y="14" width="1" height="1" fill="#a9a9a968"/>
  <rect x="7" y="14" width="1" height="1" fill="#a9a9a984"/>
  <rect x="8" y="14" width="1" height="1" fill="#a9a9a90f"/>
  <rect x="22" y="14" width="1" height="1" fill="#76767668"/>
  <rect x="23" y="14" width="1" height="1" fill="#76767684"/>
  <rect x="24" y="14" width="1" height="1" fill="#7676760f"/>
  <rect x="38" y="14" width="1" height="1" fill="#76767696"/>
  <rect x="39" y="14" width="2" height="1" fill="#767676"/>
  <rect x="41" y="14" width="1" height="1" fill="#7676768b"/>
  <rect x="54" y="14" width="1" height="1" fill="#cccccc68"/>
  <rect x="55" y="14" width="1" height="1" fill="#cccccc84"/>
  <rect x="56" y="14" width="1" height="1" fill="#cccccc0f"/>
  <rect x="39" y="15" width="1" height="1" fill="#76767668"/>
  <rect x="40" y="15" width="1" height="1" fill="#76767684"/>
  <rect x="41" y="15" width="1" height="1" fill="#7676760f"/>
</svg>