<svg xmlns="http://www.w3.org/2000/svg" width="16" height="16" viewBox="0 0 16 16" shape-rendering="crispEdges">
  <rect x="7" y="1" width="1" height="1" fill="#b3b3b383"/>
  <rect x="8" y="1" width="1" height="1" fill="#b7b7b77b"/>
  <rect x="3" y="2" width="1" height="1" fill="#adadad15"/>
  <rect x="4" y="2" width="1" height="1" fill="#afafaf3a"/>
  <rect x="5" y="2" width="1" height="1" fill="#ababab77"/>
  <rect x="6" y="2" width="1" height="1" fill="#a9a9a9d6"/>
  <rect x="7" y="2" width="1" height="1" fill="#acacac"/>
  <rect x="8" y="2" width="1" height="1" fill="#adadad"/>
  <rect x="9" y="2" width="1" height="1" fill="#abababce"/>
  <rect x="10" y="2" width="1" height="1" fill="#a9a9a971"/>
  <rect x="11" y="2" width="1" height="1" fill="#ababab36"/>
  <rect x="12" y="2" width="1" height="1" fill="#acacac14"/>
  <rect x="2" y="3" width="1" height="1" fill="#acacacfd"/>
  <rect x="3" y="3" width="1" height="1" fill="#acacac"/>
  <rect x="4" y="3" width="1" height="1" fill="#b1b1b1"/>
  <rect x="5" y="3" width="1" height="1" fill="#b9b9b9"/>
  <rect x="6" y="3" width="1" height="1" fill="#adadad"/>
  <rect x="7" y="3" width="1" height="1" fill="#959595"/>
  <rect x="8" y="3" width="1" height="1" fill="#9a9a9a"/>
  <rect x="9" y="3" width="1" height="1" fill="#afafaf"/>
  <rect x="10" y="3" width="1" height="1" fill="#b8b8b8"/>
  <rect x="11" y="3" width="1" height="3" fill="#adadad"/>
  <rect x="12" y="3" width="2" height="1" fill="#acacac"/>
  <rect x="2" y="4" width="1" height="1" fill="#adadadf0"/>
  <rect x="3" y="4" width="1" height="1" fill="#adadad"/>
  <rect x="4" y="4" width="1" height="1" fill="#afafaf"/>
  <rect x="5" y="4" width="1" height="1" fill="#adadad"/>
  <rect x="6" y="4" width="1" height="4" fill="#afafaf"/>
  <rect x="9" y="4" width="2" height="2" fill="#afafaf"/>
  <rect x="12" y="4" width="1" height="2" fill="#adadb0"/>
  <rect x="13" y="4" width="1" height="1" fill="#acacaefc"/>
  <rect x="2" y="5" width="1" height="1" fill="#adadade9"/>
  <rect x="3" y="5" width="3" height="2" fill="#adadad"/>
  <rect x="13" y="5" width="1" height="1" fill="#acacaef0"/>
  <rect x="2" y="6" width="1" height="1" fill="#adadadd9"/>
  <rect x="9" y="6" width="1" height="2" fill="#afafaf"/>
  <rect x="10" y="6" width="1" height="1" fill="#adafaf"/>
  <rect x="11" y="6" width="1" height="1" fill="#acaead"/>
  <rect x="12" y="6" width="1" height="2" fill="#acaeb0"/>
  <rect x="13" y="6" width="1" height="1" fill="#abadaedb"/>
  <rect x="2" y="7" width="1" height="1" fill="#adadadba"/>
  <rect x="3" y="7" width="2" height="1" fill="#adadad"/>
  <rect x="5" y="7" width="1" height="1" fill="#acacac"/>
  <rect x="10" y="7" width="2" height="1" fill="#acaead"/>
  <rect x="13" y="7" width="1" height="1" fill="#abadaebf"/>
  <rect x="2" y="8" width="1" height="1" fill="#a2a2a291"/>
  <rect x="3" y="8" width="1" height="1" fill="#afafaf"/>
  <rect x="4" y="8" width="1" height="4" fill="#adadb0"/>
  <rect x="5" y="8" width="1" height="1" fill="#acacae"/>
  <rect x="6" y="8" width="1" height="4" fill="#aeb0b2"/>
  <rect x="9" y="8" width="1" height="4" fill="#aeb0b2"/>
  <rect x="10" y="8" width="1" height="1" fill="#abadae"/>
  <rect x="11" y="8" width="2" height="1" fill="#acaeb0"/>
  <rect x="13" y="8" width="1" height="1" fill="#a0a2a498"/>
  <rect x="2" y="9" width="1" height="1" fill="#94949458"/>
  <rect x="3" y="9" width="1" height="1" fill="#b2b2b2"/>
  <rect x="5" y="9" width="1" height="3" fill="#ababad"/>
  <rect x="10" y="9" width="1" height="1" fill="#aaacad"/>
  <rect x="11" y="9" width="1" height="1" fill="#acaeb0"/>
  <rect x="12" y="9" width="1" height="1" fill="#b1b3b4"/>
  <rect x="13" y="9" width="1" height="1" fill="#92949660"/>
  <rect x="2" y="10" width="1" height="1" fill="#95959518"/>
  <rect x="3" y="10" width="1" height="1" fill="#aaaaaafd"/>
  <rect x="7" y="10" width="2" height="1" fill="#9fa1a3"/>
  <rect x="10" y="10" width="1" height="2" fill="#a8acad"/>
  <rect x="11" y="10" width="1" height="2" fill="#aaafb0"/>
  <rect x="12" y="10" width="1" height="1" fill="#a7abacfe"/>
  <rect x="13" y="10" width="1" height="1" fill="#9296971f"/>
  <rect x="3" y="11" width="1" height="1" fill="#9a9a9ab7"/>
  <rect x="7" y="11" width="2" height="1" fill="#9fa1a33c"/>
  <rect x="12" y="11" width="1" height="1" fill="#979b9cbf"/>
  <rect x="3" y="12" width="1" height="1" fill="#a4a4a434"/>
  <rect x="4" y="12" width="1" height="1" fill="#a1a0a3fc"/>
  <rect x="5" y="12" width="1" height="1" fill="#acacae"/>
  <rect x="6" y="12" width="1" height="1" fill="#b1b3b4"/>
  <rect x="7" y="12" width="1" height="1" fill="#afb1b33c"/>
  <rect x="8" y="12" width="1" height="1" fill="#aeb0b23b"/>
  <rect x="9" y="12" width="1" height="2" fill="#aaacad"/>
  <rect x="10" y="12" width="1" height="1" fill="#a2a7a7"/>
  <rect x="11" y="12" width="1" height="1" fill="#9fa3a4fe"/>
  <rect x="12" y="12" width="1" height="1" fill="#a0a4a73d"/>
  <rect x="4" y="13" width="1" height="1" fill="#99989b70"/>
  <rect x="5" y="13" width="1" height="1" fill="#9a999cfe"/>
  <rect x="6" y="13" width="1" height="1" fill="#a3a5a6"/>
  <rect x="7" y="13" width="2" height="1" fill="#b1b3b4"/>
  <rect x="10" y="13" width="1" height="1" fill="#9ea2a3"/>
  <rect x="11" y="13" width="1" height="1" fill="#959a9b77"/>
  <rect x="5" y="14" width="1" height="1" fill="#94939647"/>
  <rect x="6" y="14" width="1" height="1" fill="#8f9192bf"/>
  <rect x="7" y="14" width="2" height="1" fill="#939597f4"/>
  <rect x="9" y="14" width="1" height="1" fill="#969899c1"/>
  <rect x="10" y="14" width="1" height="1" fill="#989c9d4e"/>
</svg>