<svg xmlns="http://www.w3.org/2000/svg" width="64" height="16" viewBox="0 0 64 16" shape-rendering="crispEdges">
  <rect x="6" y="0" width="1" height="1" fill="#a9a9a91e"/>
  <rect x="7" y="0" width="1" height="1" fill="#a9a9a99e"/>
  <rect x="8" y="0" width="1" height="1" fill="#a9a9a978"/>
  <rect x="22" y="0" width="1" height="1" fill="#7676761e"/>
  <rect x="23" y="0" width="1" height="1" fill="#7676769e"/>
  <rect x="24" y="0" width="1" height="1" fill="#76767678"/>
  <rect x="54" y="0" width="1" height="1" fill="#cccccc1e"/>
  <rect x="55" y="0" width="1" height="1" fill="#cccccc9e"/>
  <rect x="56" y="0" width="1" height="1" fill="#cccccc78"/>
  <rect x="6" y="1" width="1" height="1" fill="#a9a9a9a0"/>
  <rect x="7" y="1" width="2" height="1" fill="#a9a9a9"/>
  <rect x="9" y="1" width="1" height="1" fill="#a9a9a99d"/>
  <rect x="22" y="1" width="1" height="1" fill="#767676a0"/>
  <rect x="23" y="1" width="2" height="1" fill="#767676"/>
  <rect x="25" y="1" width="1" height="1" fill="#7676769d"/>
  <rect x="39" y="1" width="1" height="1" fill="#6565651e"/>
  <rect x="40" y="1" width="1" height="1" fill="#6565659e"/>
  <rect x="41" y="1" width="1" height="1" fill="#65656578"/>
  <rect x="54" y="1" width="1" height="1" fill="#cccccca0"/>
  <rect x="55" y="1" width="2" height="1" fill="#cccccc"/>
  <rect x="57" y="1" width="1" height="1" fill="#cccccc9d"/>
  <rect x="6" y="2" width="1" height="1" fill="#a9a9a978"/>
  <rect x="7" y="2" width="3" height="1" fill="#a9a9a9"/>
  <rect x="10" y="2" width="1" height="1" fill="#a9a9a99d"/>
  <rect x="22" y="2" width="1" height="1" fill="#76767678"/>
  <rect x="23" y="2" width="3" height="1" fill="#767676"/>
  <rect x="26" y="2" width="1" height="1" fill="#7676769d"/>
  <rect x="39" y="2" width="1" height="1" fill="#656565a0"/>
  <rect x="40" y="2" width="2" height="1" fill="#656565"/>
  <rect x="42" y="2" width="1" height="1" fill="#6565659d"/>
  <rect x="54" y="2" width="1" height="1" fill="#cccccc78"/>
  <rect x="55" y="2" width="3" height="1" fill="#cccccc"/>
  <rect x="58" y="2" width="1" height="1" fill="#cccccc9d"/>
  <rect x="7" y="3" width="1" height="1" fill="#a9a9a99d"/>
  <rect x="8" y="3" width="3" height="1" fill="#a9a9a9"/>
  <rect x="11" y="3" width="1" height="1" fill="#a9a9a99d"/>
  <rect x="23" y="3" width="1" height="1" fill="#7676769d"/>
  <rect x="24" y="3" width="3" height="1" fill="#767676"/>
  <rect x="27" y="3" width="1" height="1" fill="#7676769d"/>
  <rect x="39" y="3" width="1" height="1" fill="#65656578"/>
  <rect x="40" y="3" width="3" height="1" fill="#656565"/>
  <rect x="43" y="3" width="1" height="1" fill="#6565659d"/>
  <rect x="55" y="3" width="1" height="1" fill="#cccccc9d"/>
  <rect x="56" y="3" width="3" height="1" fill="#cccccc"/>
  <rect x="59" y="3" width="1" height="1" fill="#cccccc9d"/>
  <rect x="8" y="4" width="1" height="1" fill="#a9a9a99d"/>
  <rect x="9" y="4" width="3" height="1" fill="#a9a9a9"/>
  <rect x="12" y="4" width="1" height="1" fill="#a9a9a99d"/>
  <rect x="24" y="4" width="1" height="1" fill="#7676769d"/>
  <rect x="25" y="4" width="3" height="1" fill="#767676"/>
  <rect x="28" y="4" width="1" height="1" fill="#7676769d"/>
  <rect x="40" y="4" width="1" height="1" fill="#6565659d"/>
  <rect x="41" y="4" width="3" height="1" fill="#656565"/>
  <rect x="44" y="4" width="1" height="1" fill="#6565659d"/>
  <rect x="56" y="4" width="1" height="1" fill="#cccccc9d"/>
  <rect x="57" y="4" width="3" height="1" fill="#cccccc"/>
  <rect x="60" y="4" width="1" height="1" fill="#cccccc9d"/>
  <rect x="9" y="5" width="1" height="1" fill="#a9a9a99d"/>
  <rect x="10" y="5" width="3" height="1" fill="#a9a9a9"/>
  <rect x="13" y="5" width="1" height="1" fill="#a9a9a99d"/>
  <rect x="25" y="5" width="1" height="1" fill="#7676769d"/>
  <rect x="26" y="5" width="3" height="1" fill="#767676"/>
  <rect x="29" y="5" width="1" height="1" fill="#7676769d"/>
  <rect x="41" y="5" width="1" height="1" fill="#6565659d"/>
  <rect x="42" y="5" width="3" height="1" fill="#656565"/>
  <rect x="45" y="5" width="1" height="1" fill="#6565659d"/>
  <rect x="57" y="5" width="1" height="1" fill="#cccccc9d"/>
  <rect x="58" y="5" width="3" height="1" fill="#cccccc"/>
  <rect x="61" y="5" width="1" height="1" fill="#cccccc9d"/>
  <rect x="0" y="6" width="1" height="1" fill="#a9a9a985"/>
  <rect x="1" y="6" width="1" height="1" fill="#a9a9a9f9"/>
  <rect x="2" y="6" width="11" height="1" fill="#a9a9a9"/>
  <rect x="13" y="6" width="1" height="1" fill="#a9a9a9f9"/>
  <rect x="14" y="6" width="1" height="1" fill="#a9a9a985"/>
  <rect x="16" y="6" width="1" height="1" fill="#76767685"/>
  <rect x="17" y="6" width="1" height="1" fill="#767676f9"/>
  <rect x="18" y="6" width="11" height="1" fill="#767676"/>
  <rect x="29" y="6" width="1" height="1" fill="#767676f9"/>
  <rect x="30" y="6" width="1" height="1" fill="#76767685"/>
  <rect x="42" y="6" width="1" height="1" fill="#6565659d"/>
  <rect x="43" y="6" width="3" height="1" fill="#656565"/>
  <rect x="46" y="6" width="1" height="1" fill="#6565659d"/>
  <rect x="48" y="6" width="1" height="1" fill="#cccccc85"/>
  <rect x="49" y="6" width="1" height="1" fill="#ccccccf9"/>
  <rect x="50" y="6" width="11" height="1" fill="#cccccc"/>
  <rect x="61" y="6" width="1" height="1" fill="#ccccccf9"/>
  <rect x="62" y="6" width="1" height="1" fill="#cccccc85"/>
  <rect x="0" y="7" width="1" height="1" fill="#a9a9a9f9"/>
  <rect x="1" y="7" width="13" height="1" fill="#a9a9a9"/>
  <rect x="14" y="7" width="1" height="1" fill="#a9a9a9f3"/>
  <rect x="16" y="7" width="1" height="1" fill="#767676f9"/>
  <rect x="17" y="7" width="13" height="1" fill="#767676"/>
  <rect x="30" y="7" width="1" height="1" fill="#767676f3"/>
  <rect x="33" y="7" width="1" height="1" fill="#65656585"/>
  <rect x="34" y="7" width="1" height="1" fill="#656565f9"/>
  <rect x="35" y="7" width="11" height="1" fill="#656565"/>
  <rect x="46" y="7" width="1" height="1" fill="#656565f9"/>
  <rect x="47" y="7" width="1" height="1" fill="#65656585"/>
  <rect x="48" y="7" width="1" height="1" fill="#ccccccf9"/>
  <rect x="49" y="7" width="13" height="1" fill="#cccccc"/>
  <rect x="62" y="7" width="1" height="1" fill="#ccccccf3"/>
  <rect x="0" y="8" width="1" height="1" fill="#a9a9a985"/>
  <rect x="1" y="8" width="1" height="1" fill="#a9a9a9f9"/>
  <rect x="2" y="8" width="11" height="1" fill="#a9a9a9"/>
  <rect x="13" y="8" width="1" height="1" fill="#a9a9a9fa"/>
  <rect x="14" y="8" width="1" height="1" fill="#a9a9a985"/>
  <rect x="16" y="8" width="1" height="1" fill="#76767685"/>
  <rect x="17" y="8" width="1" height="1" fill="#767676f9"/>
  <rect x="18" y="8" width="11" height="1" fill="#767676"/>
  <rect x="29" y="8" width="1" height="1" fill="#767676fa"/>
  <rect x="30" y="8" width="1" height="1" fill="#76767685"/>
  <rect x="33" y="8" width="1" height="1" fill="#656565f9"/>
  <rect x="34" y="8" width="13" height="1" fill="#656565"/>
  <rect x="47" y="8" width="1" height="1" fill="#656565f3"/>
  <rect x="48" y="8" width="1" height="1" fill="#cccccc85"/>
  <rect x="49" y="8" width="1" height="1" fill="#ccccccf9"/>
  <rect x="50" y="8" width="11" height="1" fill="#cccccc"/>
  <rect x="61" y="8" width="1" height="1" fill="#ccccccfa"/>
  <rect x="62" y="8" width="1" height="1" fill="#cccccc85"/>
  <rect x="9" y="9" width="1" height="1" fill="#a9a9a9a3"/>
  <rect x="10" y="9" width="3" height="1" fill="#a9a9a9"/>
  <rect x="13" y="9" width="1" height="1" fill="#a9a9a996"/>
  <rect x="25" y="9" width="1" height="1" fill="#767676a3"/>
  <rect x="26" y="9" width="3" height="1" fill="#767676"/>
  <rect x="29" y="9" width="1" height="1" fill="#76767696"/>
  <rect x="33" y="9" width="1" height="1" fill="#65656585"/>
  <rect x="34" y="9" width="1" height="1" fill="#656565f9"/>
  <rect x="35" y="9" width="11" height="1" fill="#656565"/>
  <rect x="46" y="9" width="1" height="1" fill="#656565fa"/>
  <rect x="47" y="9" width="1" height="1" fill="#65656585"/>
  <rect x="57" y="9" width="1" height="1" fill="#cccccca3"/>
  <rect x="58" y="9" width="3" height="1" fill="#cccccc"/>
  <rect x="61" y="9" width="1" height="1" fill="#cccccc96"/>
  <rect x="8" y="10" width="1" height="1" fill="#a9a9a9a3"/>
  <rect x="9" y="10" width="3" height="1" fill="#a9a9a9"/>
  <rect x="12" y="10" width="1" height="1" fill="#a9a9a996"/>
  <rect x="24" y="10" width="1" height="1" fill="#767676a3"/>
  <rect x="25" y="10" width="3" height="1" fill="#767676"/>
  <rect x="28" y="10" width="1" height="1" fill="#76767696"/>
  <rect x="42" y="10" width="1" height="1" fill="#656565a3"/>
  <rect x="43" y="10" width="3" height="1" fill="#656565"/>
  <rect x="46" y="10" width="1" height="1" fill="#65656596"/>
  <rect x="56" y="10" width="1" height="1" fill="#cccccca3"/>
  <rect x="57" y="10" width="3" height="1" fill="#cccccc"/>
  <rect x="60" y="10" width="1" height="1" fill="#cccccc96"/>
  <rect x="7" y="11" width="1" height="1" fill="#a9a9a9a3"/>
  <rect x="8" y="11" width="3" height="1" fill="#a9a9a9"/>
  <rect x="11" y="11" width="1" height="1" fill="#a9a9a996"/>
  <rect x="23" y="11" width="1" height="1" fill="#767676a3"/>
  <rect x="24" y="11" width="3" height="1" fill="#767676"/>
  <rect x="27" y="11" width="1" height="1" fill="#76767696"/>
  <rect x="41" y="11" width="1" height="1" fill="#656565a3"/>
  <rect x="42" y="11" width="3" height="1" fill="#656565"/>
  <rect x="45" y="11" width="1" height="1" fill="#65656596"/>
  <rect x="55" y="11" width="1" height="1" fill="#cccccca3"/>
  <rect x="56" y="11" width="3" height="1" fill="#cccccc"/>
  <rect x="59" y="11" width="1" height="1" fill="#cccccc96"/>
  <rect x="6" y="12" width="1" height="1" fill="#a9a9a973"/>
  <rect x="7" y="12" width="3" height="1" fill="#a9a9a9"/>
  <rect x="10" y="12" width="1" height="1" fill="#a9a9a996"/>
  <rect x="22" y="12" width="1" height="1" fill="#76767673"/>
  <rect x="23" y="12" width="3" height="1" fill="#767676"/>
  <rect x="26" y="12" width="1" height="1" fill="#76767696"/>
  <rect x="40" y="12" width="1" height="1" fill="#656565a3"/>
  <rect x="41" y="12" width="3" height="1" fill="#656565"/>
  <rect x="44" y="12" width="1" height="1" fill="#65656596"/>
  <rect x="54" y="12" width="1" height="1" fill="#cccccc73"/>
  <rect x="55" y="12" width="3" height="1" fill="#cccccc"/>
  <rect x="58" y="12" width="1" height="1" fill="#cccccc96"/>
  <rect x="6" y="13" width="1" height="1" fill="#a9a9a98a"/>
  <rect x="7" y="13" width="2" height="1" fill="#a9a9a9"/>
  <rect x="9" y="13" width="1" height="1" fill="#a9a9a996"/>
  <rect x="22" y="13" width="1" height="1" fill="#7676768a"/>
  <rect x="23" y="13" width="2" height="1" fill="#767676"/>
  <rect x="25" y="13" width="1" height="1" fill="#76767696"/>
  <rect x="39" y="13" width="1" height="1" fill="#65656573"/>
  <rect x="40" y="13" width="3" height="1" fill="#656565"/>
  <rect x="43" y="13" width="1" height="1" fill="#65656596"/>
  <rect x="54" y="13" width="1" height="1" fill="#cccccc8a"/>
  <rect x="55" y="13" width="2" height="1" fill="#cccccc"/>
  <rect x="57" y="13" width="1" height="1" fill="#cccccc96"/>
  <rect x="6" y="14" width="1" height="1" fill="#a9a9a90e"/>
  <rect x="7" y="14" width="1" height="1" fill="#a9a9a984"/>
  <rect x="8" y="14" width="1" height="1" fill="#a9a9a968"/>
  <rect x="22" y="14" width="1" height="1" fill="#7676760e"/>
  <rect x="23" y="14" width="1" height="1" fill="#76767684"/>
  <rect x="24" y="14" width="1" height="1" fill="#76767668"/>
  <rect x="39" y="14" width="1" height="1" fill="#6565658a"/>
  <rect x="40" y="14" width="2" height="1" fill="#656565"/>
  <rect x="42" y="14" width="1" height="1" fill="#65656596"/>
  <rect x="54" y="14" width="1" height="1" fill="#cccccc0e"/>
  <rect x="55" y="14" width="1" height="1" fill="#cccccc84"/>
  <rect x="56" y="14" width="1" height="1" fill="#cccccc68"/>
  <rect x="39" y="15" width="1" height="1" fill="#6565650e"/>
  <rect x="40" y="15" width="1" height="1" fill="#65656584"/>
  <rect x="41" y="15" width="1" height="1" fill="#65656568"/>
</svg>