<svg xmlns="http://www.w3.org/2000/svg" width="52" height="13" viewBox="0 0 52 13" shape-rendering="crispEdges">
  <rect x="1" y="1" width="1" height="1" fill="#0001002d"/>
  <rect x="2" y="1" width="1" height="1" fill="#0000004d"/>
  <rect x="3" y="1" width="1" height="1" fill="#0306034d"/>
  <rect x="4" y="1" width="1" height="1" fill="#0001002d"/>
  <rect x="8" y="1" width="1" height="1" fill="#0001002d"/>
  <rect x="9" y="1" width="1" height="1" fill="#0007034d"/>
  <rect x="10" y="1" width="1" height="1" fill="#0004004d"/>
  <rect x="11" y="1" width="1" height="1" fill="#0000002d"/>
  <rect x="14" y="1" width="1" height="1" fill="#fff3fa4b"/>
  <rect x="15" y="1" width="1" height="1" fill="#ffeff580"/>
  <rect x="16" y="1" width="1" height="1" fill="#fff0f680"/>
  <rect x="17" y="1" width="1" height="1" fill="#fff2f64b"/>
  <rect x="21" y="1" width="1" height="1" fill="#fff9fc4b"/>
  <rect x="22" y="1" width="1" height="1" fill="#ffefef80"/>
  <rect x="23" y="1" width="1" height="1" fill="#fff6f580"/>
  <rect x="24" y="1" width="1" height="1" fill="#f6f6f44b"/>
  <rect x="1" y="2" width="1" height="1" fill="#0000004d"/>
  <rect x="2" y="2" width="1" height="1" fill="#e3e5e2"/>
  <rect x="3" y="2" width="1" height="1" fill="#e4e7e3"/>
  <rect x="4" y="2" width="1" height="1" fill="#0104004d"/>
  <rect x="5" y="2" width="1" height="1" fill="#0002002d"/>
  <rect x="7" y="2" width="1" height="1" fill="#0000002d"/>
  <rect x="8" y="2" width="1" height="1" fill="#0503014d"/>
  <rect x="9" y="2" width="1" height="1" fill="#e7e5e3"/>
  <rect x="10" y="2" width="1" height="1" fill="#e7eae7"/>
  <rect x="11" y="2" width="1" height="1" fill="#0205014d"/>
  <rect x="14" y="2" width="1" height="1" fill="#ffe8fb80"/>
  <rect x="15" y="2" width="1" height="1" fill="#9b4658"/>
  <rect x="16" y="2" width="1" height="1" fill="#aa4d4f"/>
  <rect x="17" y="2" width="1" height="1" fill="#ffe8e280"/>
  <rect x="18" y="2" width="1" height="1" fill="#fff7f34b"/>
  <rect x="20" y="2" width="1" height="1" fill="#fffeff4b"/>
  <rect x="21" y="2" width="1" height="1" fill="#fff1fc80"/>
  <rect x="22" y="2" width="1" height="1" fill="#a8484b"/>
  <rect x="23" y="2" width="1" height="1" fill="#9f4d4d"/>
  <rect x="24" y="2" width="1" height="1" fill="#ffffff80"/>
  <rect x="28" y="2" width="1" height="1" fill="#fff6f14b"/>
  <rect x="29" y="2" width="1" height="1" fill="#fff3ed80"/>
  <rect x="30" y="2" width="1" height="1" fill="#fff0e780"/>
  <rect x="31" y="2" width="1" height="1" fill="#fff0eb4b"/>
  <rect x="35" y="2" width="1" height="1" fill="#fffcef4b"/>
  <rect x="36" y="2" width="1" height="1" fill="#ffefed80"/>
  <rect x="37" y="2" width="1" height="1" fill="#ffeff280"/>
  <rect x="38" y="2" width="1" height="1" fill="#fff3f84b"/>
  <rect x="1" y="3" width="1" height="1" fill="#0306034d"/>
  <rect x="2" y="3" width="1" height="1" fill="#e4e7e3"/>
  <rect x="3" y="3" width="1" height="1" fill="#dfe2df"/>
  <rect x="4" y="3" width="1" height="1" fill="#e3e5e2"/>
  <rect x="5" y="3" width="1" height="1" fill="#0000004d"/>
  <rect x="6" y="3" width="1" height="1" fill="#0002002d"/>
  <rect x="7" y="3" width="1" height="1" fill="#0505034d"/>
  <rect x="8" y="3" width="1" height="1" fill="#e7e0e0"/>
  <rect x="9" y="3" width="1" height="1" fill="#e4dede"/>
  <rect x="10" y="3" width="1" height="1" fill="#dddedb"/>
  <rect x="11" y="3" width="1" height="1" fill="#0000004d"/>
  <rect x="14" y="3" width="1" height="1" fill="#ffe8fc80"/>
  <rect x="15" y="3" width="1" height="1" fill="#a54759"/>
  <rect x="16" y="3" width="1" height="1" fill="#ba474c"/>
  <rect x="17" y="3" width="1" height="1" fill="#b45350"/>
  <rect x="18" y="3" width="1" height="1" fill="#fff5f280"/>
  <rect x="19" y="3" width="1" height="1" fill="#fff8fa4b"/>
  <rect x="20" y="3" width="1" height="1" fill="#ffedfa80"/>
  <rect x="21" y="3" width="1" height="1" fill="#a44754"/>
  <rect x="22" y="3" width="1" height="1" fill="#ba4649"/>
  <rect x="23" y="3" width="1" height="1" fill="#aa4a4a"/>
  <rect x="24" y="3" width="1" height="1" fill="#ffebed80"/>
  <rect x="28" y="3" width="1" height="1" fill="#ffede780"/>
  <rect x="29" y="3" width="1" height="1" fill="#9a4e48"/>
  <rect x="30" y="3" width="1" height="1" fill="#a44a42"/>
  <rect x="31" y="3" width="1" height="1" fill="#ffe5df80"/>
  <rect x="32" y="3" width="1" height="1" fill="#fff0f84b"/>
  <rect x="34" y="3" width="1" height="1" fill="#fffefa4b"/>
  <rect x="35" y="3" width="1" height="1" fill="#ffefe780"/>
  <rect x="36" y="3" width="1" height="1" fill="#aa4f4c"/>
  <rect x="37" y="3" width="1" height="1" fill="#a14a4c"/>
  <rect x="38" y="3" width="1" height="1" fill="#fff3fa80"/>
  <rect x="1" y="4" width="1" height="1" fill="#0001002d"/>
  <rect x="2" y="4" width="1" height="1" fill="#0104004d"/>
  <rect x="3" y="4" width="1" height="1" fill="#e3e5e2"/>
  <rect x="4" y="4" width="1" height="1" fill="#e7eae7"/>
  <rect x="5" y="4" width="1" height="1" fill="#dde0dc"/>
  <rect x="6" y="4" width="1" height="1" fill="#0002004d"/>
  <rect x="7" y="4" width="1" height="1" fill="#e5e3e1"/>
  <rect x="8" y="4" width="1" height="1" fill="#e9e0e1"/>
  <rect x="9" y="4" width="1" height="1" fill="#ebe1e2"/>
  <rect x="10" y="4" width="1" height="1" fill="#050a064d"/>
  <rect x="11" y="4" width="1" height="1" fill="#0000002d"/>
  <rect x="14" y="4" width="1" height="1" fill="#fff4fc4b"/>
  <rect x="15" y="4" width="1" height="1" fill="#ffe7f180"/>
  <rect x="16" y="4" width="1" height="1" fill="#ac464f"/>
  <rect x="17" y="4" width="1" height="1" fill="#b34045"/>
  <rect x="18" y="4" width="1" height="1" fill="#a64848"/>
  <rect x="19" y="4" width="1" height="1" fill="#ffeaea80"/>
  <rect x="20" y="4" width="1" height="1" fill="#ba474e"/>
  <rect x="21" y="4" width="1" height="1" fill="#b54249"/>
  <rect x="22" y="4" width="1" height="1" fill="#aa4f4c"/>
  <rect x="23" y="4" width="1" height="1" fill="#ffe7e480"/>
  <rect x="24" y="4" width="1" height="1" fill="#fffafe4b"/>
  <rect x="28" y="4" width="1" height="1" fill="#fff3ed80"/>
  <rect x="29" y="4" width="1" height="1" fill="#a5534f"/>
  <rect x="30" y="4" width="1" height="1" fill="#ac4441"/>
  <rect x="31" y="4" width="1" height="1" fill="#b04e4d"/>
  <rect x="32" y="4" width="1" height="1" fill="#ffecf180"/>
  <rect x="33" y="4" width="1" height="1" fill="#fff0f94b"/>
  <rect x="34" y="4" width="1" height="1" fill="#ffeaf180"/>
  <rect x="35" y="4" width="1" height="1" fill="#aa4c51"/>
  <rect x="36" y="4" width="1" height="1" fill="#bd4d4e"/>
  <rect x="37" y="4" width="1" height="1" fill="#a44749"/>
  <rect x="38" y="4" width="1" height="1" fill="#fff2fa80"/>
  <rect x="2" y="5" width="1" height="1" fill="#0002002d"/>
  <rect x="3" y="5" width="1" height="1" fill="#0000004d"/>
  <rect x="4" y="5" width="1" height="1" fill="#dfe2df"/>
  <rect x="5" y="5" width="1" height="1" fill="#e7eae7"/>
  <rect x="6" y="5" width="1" height="1" fill="#e3e5e2"/>
  <rect x="7" y="5" width="1" height="1" fill="#e8e6e5"/>
  <rect x="8" y="5" width="1" height="1" fill="#efe3e5"/>
  <rect x="9" y="5" width="1" height="1" fill="#0c03044d"/>
  <rect x="10" y="5" width="1" height="1" fill="#0104002d"/>
  <rect x="15" y="5" width="1" height="1" fill="#fff5fa4b"/>
  <rect x="16" y="5" width="1" height="1" fill="#ffe5f080"/>
  <rect x="17" y="5" width="1" height="1" fill="#b03f4a"/>
  <rect x="18" y="5" width="1" height="1" fill="#b84145"/>
  <rect x="19" y="5" width="1" height="1" fill="#bc3f3e"/>
  <rect x="20" y="5" width="1" height="1" fill="#c94345"/>
  <rect x="21" y="5" width="1" height="1" fill="#b44244"/>
  <rect x="22" y="5" width="1" height="1" fill="#ffeee980"/>
  <rect x="23" y="5" width="1" height="1" fill="#ffeee94b"/>
  <rect x="28" y="5" width="1" height="1" fill="#ffece94b"/>
  <rect x="29" y="5" width="1" height="1" fill="#ffe9ea80"/>
  <rect x="30" y="5" width="1" height="1" fill="#9f3d41"/>
  <rect x="31" y="5" width="1" height="1" fill="#b24a50"/>
  <rect x="32" y="5" width="1" height="1" fill="#a0484d"/>
  <rect x="33" y="5" width="1" height="1" fill="#ffe8ec80"/>
  <rect x="34" y="5" width="1" height="1" fill="#b0464c"/>
  <rect x="35" y="5" width="1" height="1" fill="#b24449"/>
  <rect x="36" y="5" width="1" height="1" fill="#ad484a"/>
  <rect x="37" y="5" width="1" height="1" fill="#ffebed80"/>
  <rect x="38" y="5" width="1" height="1" fill="#fffaff4b"/>
  <rect x="3" y="6" width="1" height="1" fill="#0002002d"/>
  <rect x="4" y="6" width="1" height="1" fill="#0104004d"/>
  <rect x="5" y="6" width="1" height="2" fill="#e3e5e2"/>
  <rect x="6" y="6" width="1" height="2" fill="#e0e3e0"/>
  <rect x="7" y="6" width="1" height="1" fill="#e9e7e6"/>
  <rect x="8" y="6" width="1" height="1" fill="#0a00004d"/>
  <rect x="9" y="6" width="1" height="1" fill="#0c00002d"/>
  <rect x="16" y="6" width="1" height="1" fill="#ffebf74b"/>
  <rect x="17" y="6" width="1" height="1" fill="#ffe3f180"/>
  <rect x="18" y="6" width="1" height="1" fill="#b84147"/>
  <rect x="19" y="6" width="1" height="1" fill="#c54547"/>
  <rect x="20" y="6" width="1" height="1" fill="#b94040"/>
  <rect x="21" y="6" width="1" height="1" fill="#ffd9d580"/>
  <rect x="22" y="6" width="1" height="1" fill="#fff5ef4b"/>
  <rect x="29" y="6" width="1" height="1" fill="#fff4f84b"/>
  <rect x="30" y="6" width="1" height="1" fill="#ffe6f580"/>
  <rect x="31" y="6" width="1" height="1" fill="#af4d5c"/>
  <rect x="32" y="6" width="1" height="1" fill="#b34143"/>
  <rect x="33" y="6" width="1" height="1" fill="#bc4441"/>
  <rect x="34" y="6" width="1" height="1" fill="#b4413d"/>
  <rect x="35" y="6" width="1" height="1" fill="#a74a47"/>
  <rect x="36" y="6" width="1" height="1" fill="#ffedee80"/>
  <rect x="37" y="6" width="1" height="1" fill="#fff3f74b"/>
  <rect x="2" y="7" width="1" height="1" fill="#0000002d"/>
  <rect x="3" y="7" width="1" height="1" fill="#0306034d"/>
  <rect x="4" y="7" width="1" height="1" fill="#e7eae7"/>
  <rect x="7" y="7" width="1" height="1" fill="#eceae8"/>
  <rect x="8" y="7" width="1" height="1" fill="#e6dbdc"/>
  <rect x="9" y="7" width="1" height="1" fill="#0a00004d"/>
  <rect x="10" y="7" width="1" height="1" fill="#0400002d"/>
  <rect x="15" y="7" width="1" height="1" fill="#fff4fb4b"/>
  <rect x="16" y="7" width="1" height="1" fill="#ffe7f380"/>
  <rect x="17" y="7" width="1" height="1" fill="#9c3f4a"/>
  <rect x="18" y="7" width="1" height="1" fill="#b5484b"/>
  <rect x="19" y="7" width="1" height="1" fill="#ba4647"/>
  <rect x="20" y="7" width="1" height="1" fill="#b44443"/>
  <rect x="21" y="7" width="1" height="1" fill="#a8504c"/>
  <rect x="22" y="7" width="1" height="1" fill="#ffebe680"/>
  <rect x="23" y="7" width="1" height="1" fill="#fffaf74b"/>
  <rect x="30" y="7" width="1" height="1" fill="#ffeef84b"/>
  <rect x="31" y="7" width="1" height="1" fill="#ffe0eb80"/>
  <rect x="32" y="7" width="1" height="1" fill="#c14344"/>
  <rect x="33" y="7" width="1" height="1" fill="#c53f3a"/>
  <rect x="34" y="7" width="1" height="1" fill="#be423a"/>
  <rect x="35" y="7" width="1" height="1" fill="#ffe2dc80"/>
  <rect x="36" y="7" width="1" height="1" fill="#ffebea4b"/>
  <rect x="1" y="8" width="1" height="1" fill="#0000002d"/>
  <rect x="2" y="8" width="1" height="1" fill="#0002004d"/>
  <rect x="3" y="8" width="2" height="1" fill="#e8ebe8"/>
  <rect x="5" y="8" width="1" height="1" fill="#daddda"/>
  <rect x="6" y="8" width="1" height="1" fill="#0709064d"/>
  <rect x="7" y="8" width="1" height="1" fill="#e6e4e2"/>
  <rect x="8" y="8" width="1" height="1" fill="#e9e0e1"/>
  <rect x="9" y="8" width="1" height="1" fill="#ebe1e2"/>
  <rect x="10" y="8" width="1" height="1" fill="#0000004d"/>
  <rect x="11" y="8" width="1" height="1" fill="#0205012d"/>
  <rect x="14" y="8" width="1" height="1" fill="#ffeffb4b"/>
  <rect x="15" y="8" width="1" height="1" fill="#ffe9f780"/>
  <rect x="16" y="8" width="1" height="1" fill="#b14d58"/>
  <rect x="17" y="8" width="1" height="1" fill="#b1464a"/>
  <rect x="18" y="8" width="1" height="1" fill="#af5751"/>
  <rect x="19" y="8" width="1" height="1" fill="#ffe5de80"/>
  <rect x="20" y="8" width="1" height="1" fill="#b74e4d"/>
  <rect x="21" y="8" width="1" height="1" fill="#b34b4a"/>
  <rect x="22" y="8" width="1" height="1" fill="#a9514f"/>
  <rect x="23" y="8" width="1" height="1" fill="#ffe6e680"/>
  <rect x="24" y="8" width="1" height="1" fill="#fff3f74b"/>
  <rect x="29" y="8" width="1" height="1" fill="#fff9e74b"/>
  <rect x="30" y="8" width="1" height="1" fill="#ffebe580"/>
  <rect x="31" y="8" width="1" height="1" fill="#bb4949"/>
  <rect x="32" y="8" width="1" height="1" fill="#b63d40"/>
  <rect x="33" y="8" width="1" height="1" fill="#c04042"/>
  <rect x="34" y="8" width="1" height="1" fill="#c74340"/>
  <rect x="35" y="8" width="1" height="1" fill="#b74641"/>
  <rect x="36" y="8" width="1" height="1" fill="#ffece780"/>
  <rect x="37" y="8" width="1" height="1" fill="#fff7f64b"/>
  <rect x="1" y="9" width="1" height="1" fill="#0407044d"/>
  <rect x="2" y="9" width="1" height="1" fill="#e1e4e1"/>
  <rect x="3" y="9" width="2" height="1" fill="#e5e8e5"/>
  <rect x="5" y="9" width="1" height="1" fill="#0000004d"/>
  <rect x="6" y="9" width="1" height="1" fill="#0000002d"/>
  <rect x="7" y="9" width="1" height="1" fill="#0000004d"/>
  <rect x="8" y="9" width="1" height="1" fill="#efe6e7"/>
  <rect x="9" y="9" width="1" height="1" fill="#f3eded"/>
  <rect x="10" y="9" width="1" height="1" fill="#e1e4e1"/>
  <rect x="11" y="9" width="1" height="2" fill="#0000004d"/>
  <rect x="14" y="9" width="1" height="1" fill="#ffeefd80"/>
  <rect x="15" y="9" width="1" height="1" fill="#984d5d"/>
  <rect x="16" y="9" width="1" height="1" fill="#a83d4a"/>
  <rect x="17" y="9" width="1" height="1" fill="#a74246"/>
  <rect x="18" y="9" width="1" height="1" fill="#ffede580"/>
  <rect x="19" y="9" width="1" height="1" fill="#ffeade4b"/>
  <rect x="20" y="9" width="1" height="1" fill="#ffe8e280"/>
  <rect x="21" y="9" width="1" height="1" fill="#a44b4b"/>
  <rect x="22" y="9" width="1" height="1" fill="#ad4b4f"/>
  <rect x="23" y="9" width="1" height="1" fill="#9b4a51"/>
  <rect x="24" y="9" width="1" height="1" fill="#fff0f580"/>
  <rect x="28" y="9" width="1" height="1" fill="#fff5e54b"/>
  <rect x="29" y="9" width="1" height="1" fill="#fff0de80"/>
  <rect x="30" y="9" width="1" height="1" fill="#a4463c"/>
  <rect x="31" y="9" width="1" height="1" fill="#b94c48"/>
  <rect x="32" y="9" width="1" height="1" fill="#ad4f51"/>
  <rect x="33" y="9" width="1" height="1" fill="#ffe3e680"/>
  <rect x="34" y="9" width="1" height="1" fill="#b74341"/>
  <rect x="35" y="9" width="1" height="1" fill="#b2413b"/>
  <rect x="36" y="9" width="1" height="1" fill="#ad5550"/>
  <rect x="37" y="9" width="1" height="1" fill="#ffe6e580"/>
  <rect x="38" y="9" width="1" height="1" fill="#fff8ff4b"/>
  <rect x="1" y="10" width="1" height="1" fill="#0104004d"/>
  <rect x="2" y="10" width="1" height="1" fill="#e5e8e5"/>
  <rect x="3" y="10" width="1" height="1" fill="#e4e7e3"/>
  <rect x="4" y="10" width="1" height="1" fill="#0000004d"/>
  <rect x="5" y="10" width="1" height="1" fill="#0001002d"/>
  <rect x="7" y="10" width="1" height="1" fill="#0000002d"/>
  <rect x="8" y="10" width="1" height="1" fill="#0801014d"/>
  <rect x="9" y="10" width="1" height="1" fill="#ece6e6"/>
  <rect x="10" y="10" width="1" height="1" fill="#e7eae5"/>
  <rect x="14" y="10" width="1" height="1" fill="#fff5fe80"/>
  <rect x="15" y="10" width="1" height="1" fill="#965866"/>
  <rect x="16" y="10" width="1" height="1" fill="#9c4859"/>
  <rect x="17" y="10" width="1" height="1" fill="#ffe0ec80"/>
  <rect x="18" y="10" width="1" height="1" fill="#fffaf64b"/>
  <rect x="20" y="10" width="1" height="1" fill="#fffff94b"/>
  <rect x="21" y="10" width="1" height="1" fill="#fff8f480"/>
  <rect x="22" y="10" width="1" height="1" fill="#944955"/>
  <rect x="23" y="10" width="1" height="1" fill="#9b505e"/>
  <rect x="24" y="10" width="1" height="1" fill="#fff0f780"/>
  <rect x="28" y="10" width="1" height="1" fill="#ffe7e980"/>
  <rect x="29" y="10" width="1" height="1" fill="#a44d4f"/>
  <rect x="30" y="10" width="1" height="1" fill="#af4b4b"/>
  <rect x="31" y="10" width="1" height="1" fill="#a34c4e"/>
  <rect x="32" y="10" width="1" height="1" fill="#fff1f580"/>
  <rect x="33" y="10" width="1" height="1" fill="#fff1f44b"/>
  <rect x="34" y="10" width="1" height="1" fill="#ffe3dd80"/>
  <rect x="35" y="10" width="1" height="1" fill="#ad4a42"/>
  <rect x="36" y="10" width="1" height="1" fill="#b24342"/>
  <rect x="37" y="10" width="1" height="1" fill="#a0494b"/>
  <rect x="38" y="10" width="1" height="1" fill="#fff9fc80"/>
  <rect x="1" y="11" width="1" height="1" fill="#0000002d"/>
  <rect x="2" y="11" width="1" height="1" fill="#0002004d"/>
  <rect x="3" y="11" width="1" height="1" fill="#0104004d"/>
  <rect x="4" y="11" width="1" height="1" fill="#0104002d"/>
  <rect x="8" y="11" width="1" height="1" fill="#0601002d"/>
  <rect x="9" y="11" width="1" height="1" fill="#0601004d"/>
  <rect x="10" y="11" width="1" height="1" fill="#0205004d"/>
  <rect x="11" y="11" width="1" height="1" fill="#0000002d"/>
  <rect x="14" y="11" width="1" height="1" fill="#fff8fd4b"/>
  <rect x="15" y="11" width="1" height="1" fill="#fff5fe80"/>
  <rect x="16" y="11" width="1" height="1" fill="#ffedfc80"/>
  <rect x="17" y="11" width="1" height="1" fill="#fff3fe4b"/>
  <rect x="21" y="11" width="1" height="1" fill="#fffff94b"/>
  <rect x="22" y="11" width="1" height="1" fill="#ffeaf680"/>
  <rect x="23" y="11" width="1" height="1" fill="#ffe6f580"/>
  <rect x="24" y="11" width="1" height="1" fill="#fff1f94b"/>
  <rect x="28" y="11" width="1" height="1" fill="#ffe8ef80"/>
  <rect x="29" y="11" width="1" height="1" fill="#9a4852"/>
  <rect x="30" y="11" width="1" height="1" fill="#97494c"/>
  <rect x="31" y="11" width="1" height="1" fill="#ffedee80"/>
  <rect x="32" y="11" width="1" height="1" fill="#fffcfe4b"/>
  <rect x="34" y="11" width="1" height="1" fill="#fff4ef4b"/>
  <rect x="35" y="11" width="1" height="1" fill="#ffeae280"/>
  <rect x="36" y="11" width="1" height="1" fill="#a04846"/>
  <rect x="37" y="11" width="1" height="1" fill="#944947"/>
  <rect x="38" y="11" width="1" height="1" fill="#ffeeea80"/>
  <rect x="28" y="12" width="1" height="1" fill="#fff8fa4b"/>
  <rect x="29" y="12" width="1" height="1" fill="#fff6f880"/>
  <rect x="30" y="12" width="1" height="1" fill="#fff8f480"/>
  <rect x="31" y="12" width="1" height="1" fill="#fffcf64b"/>
  <rect x="35" y="12" width="1" height="1" fill="#fffbf74b"/>
  <rect x="36" y="12" width="1" height="1" fill="#fff5ee80"/>
  <rect x="37" y="12" width="1" height="1" fill="#fffcf180"/>
  <rect x="38" y="12" width="1" height="1" fill="#fffce84b"/>
</svg>