<svg xmlns="http://www.w3.org/2000/svg" width="10" height="10" viewBox="0 0 10 10" shape-rendering="crispEdges">
  <rect x="4" y="0" width="1" height="1" fill="#a0a3ab4b"/>
  <rect x="5" y="0" width="1" height="1" fill="#a0a3ab4d"/>
  <rect x="4" y="1" width="1" height="1" fill="#a0a3abdc"/>
  <rect x="5" y="1" width="1" height="1" fill="#a0a3abde"/>
  <rect x="3" y="2" width="1" height="1" fill="#9ea4ab7f"/>
  <rect x="4" y="2" width="2" height="2" fill="#9ea4ad"/>
  <rect x="6" y="2" width="1" height="1" fill="#9ea4ad81"/>
  <rect x="0" y="3" width="1" height="1" fill="#9ea4ab7d"/>
  <rect x="1" y="3" width="2" height="1" fill="#9ea4abaa"/>
  <rect x="3" y="3" width="1" height="1" fill="#9ea4abf7"/>
  <rect x="6" y="3" width="1" height="1" fill="#9ea4adf7"/>
  <rect x="7" y="3" width="2" height="1" fill="#9ea4adaa"/>
  <rect x="9" y="3" width="1" height="1" fill="#9ea4ad7d"/>
  <rect x="0" y="4" width="1" height="1" fill="#a0a3ab1f"/>
  <rect x="1" y="4" width="1" height="1" fill="#a0a3abea"/>
  <rect x="2" y="4" width="2" height="1" fill="#a0a3ab"/>
  <rect x="4" y="4" width="4" height="1" fill="#9ea4ad"/>
  <rect x="8" y="4" width="1" height="1" fill="#9ea4adea"/>
  <rect x="9" y="4" width="1" height="1" fill="#9ea4ad21"/>
  <rect x="1" y="5" width="1" height="1" fill="#a0a3ab3c"/>
  <rect x="2" y="5" width="1" height="1" fill="#a0a3abf9"/>
  <rect x="3" y="5" width="1" height="1" fill="#a0a3ab"/>
  <rect x="4" y="5" width="3" height="1" fill="#9ea4ad"/>
  <rect x="7" y="5" width="1" height="1" fill="#a0a3adf9"/>
  <rect x="8" y="5" width="1" height="1" fill="#a0a3ab3e"/>
  <rect x="2" y="6" width="1" height="1" fill="#a0a3a993"/>
  <rect x="3" y="6" width="4" height="1" fill="#a0a3ab"/>
  <rect x="7" y="6" width="1" height="1" fill="#a1a2ab95"/>
  <rect x="2" y="7" width="1" height="1" fill="#a0a3a9a7"/>
  <rect x="3" y="7" width="1" height="1" fill="#a0a3a9"/>
  <rect x="4" y="7" width="2" height="1" fill="#a0a3abf7"/>
  <rect x="6" y="7" width="1" height="1" fill="#a1a2ab"/>
  <rect x="7" y="7" width="1" height="1" fill="#a1a2aba8"/>
  <rect x="2" y="8" width="1" height="1" fill="#a0a3a9ca"/>
  <rect x="3" y="8" width="1" height="1" fill="#a0a3a9d7"/>
  <rect x="4" y="8" width="1" height="1" fill="#a1a2ab2f"/>
  <rect x="5" y="8" width="1" height="1" fill="#a1a2ad2d"/>
  <rect x="6" y="8" width="1" height="1" fill="#a1a2add7"/>
  <rect x="7" y="8" width="1" height="1" fill="#a1a2abcc"/>
  <rect x="2" y="9" width="1" height="1" fill="#a0a3a990"/>
  <rect x="3" y="9" width="1" height="1" fill="#a0a3ab0c"/>
  <rect x="6" y="9" width="1" height="1" fill="#a1a1af0c"/>
  <rect x="7" y="9" width="1" height="1" fill="#a1a2ab8f"/>
</svg>