<svg xmlns="http://www.w3.org/2000/svg" width="12" height="12" viewBox="0 0 12 12" shape-rendering="crispEdges">
  <rect x="4" y="0" width="1" height="1" fill="#7676760f"/>
  <rect x="5" y="0" width="1" height="1" fill="#767676c5"/>
  <rect x="6" y="0" width="1" height="1" fill="#767676c3"/>
  <rect x="7" y="0" width="1" height="1" fill="#7676760f"/>
  <rect x="3" y="1" width="1" height="1" fill="#7676760f"/>
  <rect x="4" y="1" width="1" height="1" fill="#767676c7"/>
  <rect x="5" y="1" width="1" height="1" fill="#767676df"/>
  <rect x="6" y="1" width="1" height="1" fill="#767676de"/>
  <rect x="7" y="1" width="1" height="1" fill="#767676c2"/>
  <rect x="8" y="1" width="1" height="1" fill="#7676767c"/>
  <rect x="9" y="1" width="1" height="1" fill="#76767660"/>
  <rect x="2" y="2" width="1" height="1" fill="#7676760f"/>
  <rect x="3" y="2" width="1" height="1" fill="#767676c7"/>
  <rect x="4" y="2" width="1" height="1" fill="#767676df"/>
  <rect x="5" y="2" width="2" height="1" fill="#76767658"/>
  <rect x="7" y="2" width="1" height="1" fill="#767676de"/>
  <rect x="8" y="2" width="1" height="1" fill="#767676df"/>
  <rect x="9" y="2" width="1" height="1" fill="#767676a8"/>
  <rect x="1" y="3" width="1" height="1" fill="#7676760f"/>
  <rect x="2" y="3" width="1" height="1" fill="#767676c7"/>
  <rect x="3" y="3" width="1" height="1" fill="#767676df"/>
  <rect x="4" y="3" width="1" height="1" fill="#76767657"/>
  <rect x="5" y="3" width="2" height="1" fill="#767676f0"/>
  <rect x="7" y="3" width="1" height="1" fill="#76767658"/>
  <rect x="8" y="3" width="1" height="1" fill="#767676de"/>
  <rect x="9" y="3" width="1" height="1" fill="#767676c4"/>
  <rect x="10" y="3" width="1" height="1" fill="#7676760f"/>
  <rect x="0" y="4" width="1" height="1" fill="#7676760f"/>
  <rect x="1" y="4" width="1" height="1" fill="#767676c8"/>
  <rect x="2" y="4" width="1" height="1" fill="#767676df"/>
  <rect x="3" y="4" width="1" height="1" fill="#76767657"/>
  <rect x="4" y="4" width="1" height="1" fill="#767676f0"/>
  <rect x="5" y="4" width="2" height="1" fill="#767676"/>
  <rect x="7" y="4" width="1" height="1" fill="#767676f0"/>
  <rect x="8" y="4" width="1" height="1" fill="#76767658"/>
  <rect x="9" y="4" width="1" height="1" fill="#767676de"/>
  <rect x="10" y="4" width="1" height="1" fill="#767676c9"/>
  <rect x="11" y="4" width="1" height="1" fill="#7676760f"/>
  <rect x="0" y="5" width="1" height="1" fill="#767676c6"/>
  <rect x="1" y="5" width="1" height="1" fill="#767676de"/>
  <rect x="2" y="5" width="1" height="1" fill="#76767657"/>
  <rect x="3" y="5" width="1" height="1" fill="#767676f0"/>
  <rect x="4" y="5" width="3" height="1" fill="#767676"/>
  <rect x="7" y="5" width="1" height="1" fill="#767676a8"/>
  <rect x="8" y="5" width="1" height="1" fill="#76767623"/>
  <rect x="10" y="5" width="1" height="1" fill="#76767621"/>
  <rect x="11" y="5" width="1" height="1" fill="#76767665"/>
  <rect x="0" y="6" width="1" height="1" fill="#76767671"/>
  <rect x="1" y="6" width="1" height="1" fill="#76767657"/>
  <rect x="2" y="6" width="1" height="1" fill="#767676f0"/>
  <rect x="3" y="6" width="3" height="1" fill="#767676"/>
  <rect x="6" y="6" width="1" height="1" fill="#767676ac"/>
  <rect x="1" y="7" width="1" height="1" fill="#767676f0"/>
  <rect x="2" y="7" width="4" height="1" fill="#767676"/>
  <rect x="6" y="7" width="1" height="1" fill="#76767630"/>
  <rect x="7" y="7" width="1" height="1" fill="#7676761b"/>
  <rect x="8" y="7" width="1" height="1" fill="#767676b7"/>
  <rect x="9" y="7" width="1" height="1" fill="#767676f3"/>
  <rect x="10" y="7" width="1" height="1" fill="#767676bc"/>
  <rect x="11" y="7" width="1" height="1" fill="#76767621"/>
  <rect x="1" y="8" width="4" height="3" fill="#767676"/>
  <rect x="5" y="8" width="1" height="1" fill="#767676f9"/>
  <rect x="6" y="8" width="1" height="1" fill="#7676760b"/>
  <rect x="7" y="8" width="1" height="1" fill="#767676b3"/>
  <rect x="8" y="8" width="1" height="1" fill="#767676"/>
  <rect x="10" y="8" width="1" height="1" fill="#767676"/>
  <rect x="11" y="8" width="1" height="1" fill="#767676c2"/>
  <rect x="7" y="9" width="1" height="1" fill="#767676ed"/>
  <rect x="8" y="9" width="1" height="1" fill="#76767611"/>
  <rect x="10" y="9" width="1" height="1" fill="#76767611"/>
  <rect x="11" y="9" width="1" height="1" fill="#767676fc"/>
  <rect x="7" y="10" width="1" height="1" fill="#767676b4"/>
  <rect x="8" y="10" width="1" height="1" fill="#767676"/>
  <rect x="10" y="10" width="1" height="1" fill="#767676"/>
  <rect x="11" y="10" width="1" height="1" fill="#767676c4"/>
  <rect x="1" y="11" width="1" height="1" fill="#767676df"/>
  <rect x="2" y="11" width="3" height="1" fill="#767676"/>
  <rect x="7" y="11" width="1" height="1" fill="#7676761b"/>
  <rect x="8" y="11" width="1" height="1" fill="#767676b7"/>
  <rect x="9" y="11" width="1" height="1" fill="#767676ef"/>
  <rect x="10" y="11" width="1" height="1" fill="#767676c0"/>
  <rect x="11" y="11" width="1" height="1" fill="#76767621"/>
</svg>