<svg xmlns="http://www.w3.org/2000/svg" width="12" height="11" viewBox="0 0 12 11" shape-rendering="crispEdges">
  <rect x="5" y="0" width="1" height="1" fill="#7676762b"/>
  <rect x="6" y="0" width="1" height="1" fill="#7676767b"/>
  <rect x="7" y="0" width="1" height="1" fill="#767676cb"/>
  <rect x="8" y="0" width="1" height="1" fill="#767676ee"/>
  <rect x="9" y="0" width="1" height="1" fill="#76767636"/>
  <rect x="3" y="1" width="1" height="1" fill="#7676761b"/>
  <rect x="4" y="1" width="1" height="1" fill="#767676d0"/>
  <rect x="5" y="1" width="2" height="1" fill="#767676"/>
  <rect x="7" y="1" width="1" height="1" fill="#767676c8"/>
  <rect x="8" y="1" width="1" height="1" fill="#767676e9"/>
  <rect x="9" y="1" width="1" height="1" fill="#767676f0"/>
  <rect x="10" y="1" width="1" height="1" fill="#76767631"/>
  <rect x="2" y="2" width="1" height="1" fill="#7676761a"/>
  <rect x="3" y="2" width="1" height="1" fill="#767676d9"/>
  <rect x="4" y="2" width="2" height="1" fill="#767676"/>
  <rect x="6" y="2" width="1" height="1" fill="#767676e1"/>
  <rect x="7" y="2" width="1" height="1" fill="#7676766a"/>
  <rect x="8" y="2" width="1" height="1" fill="#7676768e"/>
  <rect x="9" y="2" width="1" height="1" fill="#767676"/>
  <rect x="10" y="2" width="1" height="1" fill="#767676a0"/>
  <rect x="11" y="2" width="1" height="1" fill="#76767620"/>
  <rect x="1" y="3" width="1" height="1" fill="#7676761a"/>
  <rect x="2" y="3" width="1" height="1" fill="#767676d9"/>
  <rect x="3" y="3" width="3" height="1" fill="#767676"/>
  <rect x="6" y="3" width="1" height="1" fill="#767676f1"/>
  <rect x="7" y="3" width="1" height="1" fill="#767676a6"/>
  <rect x="8" y="3" width="1" height="1" fill="#767676c0"/>
  <rect x="9" y="3" width="1" height="1" fill="#767676fc"/>
  <rect x="10" y="3" width="1" height="1" fill="#76767620"/>
  <rect x="11" y="3" width="1" height="1" fill="#7676769b"/>
  <rect x="0" y="4" width="1" height="1" fill="#7676761a"/>
  <rect x="1" y="4" width="1" height="1" fill="#767676d9"/>
  <rect x="2" y="4" width="4" height="1" fill="#767676"/>
  <rect x="6" y="4" width="1" height="1" fill="#767676fb"/>
  <rect x="7" y="4" width="1" height="1" fill="#767676a7"/>
  <rect x="8" y="4" width="1" height="1" fill="#767676dd"/>
  <rect x="9" y="4" width="1" height="1" fill="#767676c0"/>
  <rect x="11" y="4" width="1" height="1" fill="#76767690"/>
  <rect x="0" y="5" width="1" height="1" fill="#767676c4"/>
  <rect x="1" y="5" width="6" height="1" fill="#767676"/>
  <rect x="7" y="5" width="1" height="1" fill="#767676c3"/>
  <rect x="8" y="5" width="1" height="1" fill="#767676ba"/>
  <rect x="9" y="5" width="1" height="1" fill="#7676765a"/>
  <rect x="10" y="5" width="1" height="1" fill="#76767612"/>
  <rect x="11" y="5" width="1" height="1" fill="#767676a1"/>
  <rect x="0" y="6" width="1" height="1" fill="#767676fa"/>
  <rect x="1" y="6" width="7" height="1" fill="#767676"/>
  <rect x="8" y="6" width="1" height="1" fill="#7676769d"/>
  <rect x="9" y="6" width="1" height="1" fill="#76767685"/>
  <rect x="10" y="6" width="1" height="1" fill="#7676768f"/>
  <rect x="11" y="6" width="1" height="1" fill="#7676761d"/>
  <rect x="0" y="7" width="1" height="1" fill="#7676768e"/>
  <rect x="1" y="7" width="6" height="1" fill="#767676"/>
  <rect x="7" y="7" width="1" height="1" fill="#767676cd"/>
  <rect x="8" y="7" width="1" height="1" fill="#76767611"/>
  <rect x="1" y="8" width="1" height="1" fill="#76767696"/>
  <rect x="2" y="8" width="4" height="1" fill="#767676"/>
  <rect x="6" y="8" width="1" height="1" fill="#767676cd"/>
  <rect x="7" y="8" width="1" height="1" fill="#76767611"/>
  <rect x="2" y="9" width="1" height="1" fill="#76767693"/>
  <rect x="3" y="9" width="2" height="1" fill="#767676"/>
  <rect x="5" y="9" width="1" height="1" fill="#767676cb"/>
  <rect x="6" y="9" width="1" height="1" fill="#76767611"/>
  <rect x="3" y="10" width="1" height="1" fill="#76767655"/>
  <rect x="4" y="10" width="1" height="1" fill="#76767667"/>
</svg>