<svg xmlns="http://www.w3.org/2000/svg" width="14" height="8" viewBox="0 0 14 8" shape-rendering="crispEdges">
  <rect x="0" y="0" width="1" height="1" fill="#616a6a"/>
  <rect x="1" y="0" width="1" height="1" fill="#646968"/>
  <rect x="5" y="0" width="1" height="1" fill="#54636a"/>
  <rect x="6" y="0" width="1" height="1" fill="#516e80"/>
  <rect x="7" y="0" width="1" height="1" fill="#4f839f"/>
  <rect x="8" y="0" width="1" height="1" fill="#4095bb"/>
  <rect x="12" y="0" width="1" height="1" fill="#3797c9"/>
  <rect x="13" y="0" width="1" height="1" fill="#3897c7"/>
  <rect x="1" y="1" width="1" height="1" fill="#666966"/>
  <rect x="2" y="1" width="1" height="2" fill="#696862"/>
  <rect x="4" y="1" width="1" height="1" fill="#616461"/>
  <rect x="5" y="1" width="1" height="1" fill="#5b6669"/>
  <rect x="8" y="1" width="1" height="1" fill="#4295b9"/>
  <rect x="9" y="1" width="1" height="1" fill="#3399c7"/>
  <rect x="11" y="1" width="1" height="1" fill="#3798c7"/>
  <rect x="12" y="1" width="1" height="1" fill="#4394bb"/>
  <rect x="3" y="2" width="1" height="1" fill="#686760"/>
  <rect x="4" y="2" width="1" height="1" fill="#656661"/>
  <rect x="9" y="2" width="1" height="1" fill="#329ac9"/>
  <rect x="10" y="2" width="1" height="1" fill="#3299cd"/>
  <rect x="11" y="2" width="1" height="1" fill="#4294bf"/>
  <rect x="3" y="3" width="1" height="1" fill="#696862"/>
  <rect x="10" y="3" width="1" height="1" fill="#3399cb"/>
  <rect x="0" y="4" width="1" height="1" fill="#616a6c"/>
  <rect x="1" y="4" width="1" height="1" fill="#646968"/>
  <rect x="5" y="4" width="1" height="1" fill="#54636a"/>
  <rect x="6" y="4" width="1" height="1" fill="#517083"/>
  <rect x="7" y="4" width="1" height="1" fill="#4c84a3"/>
  <rect x="8" y="4" width="1" height="1" fill="#3f95bf"/>
  <rect x="12" y="4" width="1" height="1" fill="#3f96bd"/>
  <rect x="13" y="4" width="1" height="1" fill="#4394b9"/>
  <rect x="1" y="5" width="1" height="1" fill="#636a68"/>
  <rect x="2" y="5" width="1" height="1" fill="#6b6860"/>
  <rect x="4" y="5" width="1" height="1" fill="#616461"/>
  <rect x="5" y="5" width="1" height="1" fill="#56676f"/>
  <rect x="8" y="5" width="1" height="1" fill="#3d96c1"/>
  <rect x="9" y="5" width="1" height="1" fill="#3399c7"/>
  <rect x="11" y="5" width="1" height="1" fill="#3898c3"/>
  <rect x="12" y="5" width="1" height="1" fill="#3d96bd"/>
  <rect x="2" y="6" width="1" height="1" fill="#696862"/>
  <rect x="3" y="6" width="1" height="1" fill="#686760"/>
  <rect x="4" y="6" width="1" height="1" fill="#656864"/>
  <rect x="9" y="6" width="1" height="1" fill="#329ac9"/>
  <rect x="10" y="6" width="1" height="1" fill="#3399c7"/>
  <rect x="11" y="6" width="1" height="1" fill="#4095bb"/>
  <rect x="3" y="7" width="1" height="1" fill="#696864"/>
  <rect x="10" y="7" width="1" height="1" fill="#3399c9"/>
</svg>