<svg xmlns="http://www.w3.org/2000/svg" width="20" height="20" viewBox="0 0 20 20" shape-rendering="crispEdges">
  <rect x="0" y="0" width="1" height="1" fill="#58bbde49"/>
  <rect x="1" y="0" width="1" height="1" fill="#58bbdee6"/>
  <rect x="2" y="0" width="1" height="1" fill="#58bbe0"/>
  <rect x="3" y="0" width="1" height="2" fill="#57bce0"/>
  <rect x="4" y="0" width="1" height="1" fill="#52bee2"/>
  <rect x="5" y="0" width="1" height="1" fill="#4fc0e2"/>
  <rect x="6" y="0" width="1" height="1" fill="#50bee4"/>
  <rect x="7" y="0" width="1" height="1" fill="#58bce6"/>
  <rect x="8" y="0" width="1" height="1" fill="#60b4e0"/>
  <rect x="9" y="0" width="1" height="1" fill="#5ca9d8"/>
  <rect x="10" y="0" width="1" height="1" fill="#5baad6"/>
  <rect x="11" y="0" width="1" height="1" fill="#60b4dc"/>
  <rect x="12" y="0" width="1" height="1" fill="#5fb9dc"/>
  <rect x="13" y="0" width="1" height="1" fill="#5cb9d9"/>
  <rect x="14" y="0" width="1" height="1" fill="#5ab9db"/>
  <rect x="15" y="0" width="1" height="1" fill="#59badd"/>
  <rect x="16" y="0" width="1" height="1" fill="#5abae0"/>
  <rect x="17" y="0" width="1" height="2" fill="#5abae4"/>
  <rect x="18" y="0" width="1" height="1" fill="#5ab9e6e6"/>
  <rect x="19" y="0" width="1" height="1" fill="#5ab9e649"/>
  <rect x="0" y="1" width="1" height="1" fill="#58bbdee6"/>
  <rect x="1" y="1" width="2" height="1" fill="#58bbde"/>
  <rect x="4" y="1" width="2" height="1" fill="#55bde0"/>
  <rect x="6" y="1" width="1" height="1" fill="#55bce2"/>
  <rect x="7" y="1" width="1" height="1" fill="#59b9e1"/>
  <rect x="8" y="1" width="1" height="1" fill="#62b4e1"/>
  <rect x="9" y="1" width="1" height="1" fill="#68b5e2"/>
  <rect x="10" y="1" width="1" height="1" fill="#66b6e2"/>
  <rect x="11" y="1" width="1" height="1" fill="#61b5dd"/>
  <rect x="12" y="1" width="1" height="1" fill="#5fb7db"/>
  <rect x="13" y="1" width="1" height="1" fill="#5eb7db"/>
  <rect x="14" y="1" width="1" height="1" fill="#5cb8db"/>
  <rect x="15" y="1" width="1" height="1" fill="#5ab9dd"/>
  <rect x="16" y="1" width="1" height="1" fill="#5abae2"/>
  <rect x="18" y="1" width="1" height="1" fill="#5ab9e6"/>
  <rect x="19" y="1" width="1" height="1" fill="#5ab9e6e6"/>
  <rect x="0" y="2" width="1" height="1" fill="#57bce0"/>
  <rect x="1" y="2" width="2" height="1" fill="#57bcde"/>
  <rect x="3" y="2" width="1" height="1" fill="#5abbdc"/>
  <rect x="4" y="2" width="1" height="1" fill="#5fb9dc"/>
  <rect x="5" y="2" width="2" height="1" fill="#60b8dc"/>
  <rect x="7" y="2" width="1" height="1" fill="#62b7de"/>
  <rect x="8" y="2" width="1" height="1" fill="#64b4dd"/>
  <rect x="9" y="2" width="1" height="1" fill="#64b1de"/>
  <rect x="10" y="2" width="1" height="1" fill="#63b2de"/>
  <rect x="11" y="2" width="1" height="1" fill="#62b5dd"/>
  <rect x="12" y="2" width="2" height="1" fill="#61b5dd"/>
  <rect x="14" y="2" width="1" height="1" fill="#5fb6dd"/>
  <rect x="15" y="2" width="1" height="1" fill="#5cb8df"/>
  <rect x="16" y="2" width="1" height="1" fill="#5cb9e2"/>
  <rect x="17" y="2" width="1" height="1" fill="#5cb9e4"/>
  <rect x="18" y="2" width="2" height="1" fill="#5ab9e6"/>
  <rect x="0" y="3" width="2" height="1" fill="#56bbdf"/>
  <rect x="2" y="3" width="1" height="1" fill="#56bcdb"/>
  <rect x="3" y="3" width="1" height="1" fill="#5ab9d9"/>
  <rect x="4" y="3" width="1" height="1" fill="#68b5d6"/>
  <rect x="5" y="3" width="1" height="1" fill="#6fb2d4"/>
  <rect x="6" y="3" width="1" height="1" fill="#6db3d4"/>
  <rect x="7" y="3" width="1" height="1" fill="#6fb2d2"/>
  <rect x="8" y="3" width="1" height="1" fill="#72b1d0"/>
  <rect x="9" y="3" width="1" height="1" fill="#a0ddfa"/>
  <rect x="10" y="3" width="1" height="1" fill="#9eddff"/>
  <rect x="11" y="3" width="1" height="1" fill="#70b1d4"/>
  <rect x="12" y="3" width="1" height="1" fill="#6db2d6"/>
  <rect x="13" y="3" width="1" height="1" fill="#6cb3d8"/>
  <rect x="14" y="3" width="1" height="1" fill="#68b4da"/>
  <rect x="15" y="3" width="1" height="1" fill="#65b5de"/>
  <rect x="16" y="3" width="1" height="1" fill="#5eb6e1"/>
  <rect x="17" y="3" width="1" height="1" fill="#5ab8e3"/>
  <rect x="18" y="3" width="2" height="1" fill="#59b8e5"/>
  <rect x="0" y="4" width="1" height="1" fill="#56b8e0"/>
  <rect x="1" y="4" width="1" height="1" fill="#55bade"/>
  <rect x="2" y="4" width="1" height="1" fill="#53bbda"/>
  <rect x="3" y="4" width="1" height="1" fill="#5cb7d4"/>
  <rect x="4" y="4" width="1" height="1" fill="#79b6d6"/>
  <rect x="5" y="4" width="1" height="1" fill="#85b1d2"/>
  <rect x="6" y="4" width="1" height="1" fill="#92c2dd"/>
  <rect x="7" y="4" width="1" height="1" fill="#add9ec"/>
  <rect x="8" y="4" width="1" height="1" fill="#d4f5ff"/>
  <rect x="9" y="4" width="1" height="1" fill="#ebffff"/>
  <rect x="10" y="4" width="1" height="1" fill="#e8ffff"/>
  <rect x="11" y="4" width="1" height="1" fill="#d0f6ff"/>
  <rect x="12" y="4" width="1" height="1" fill="#a4d0e8"/>
  <rect x="13" y="4" width="1" height="1" fill="#95c7e4"/>
  <rect x="14" y="4" width="1" height="1" fill="#82b7da"/>
  <rect x="15" y="4" width="1" height="1" fill="#6eb0d7"/>
  <rect x="16" y="4" width="1" height="1" fill="#61b5e1"/>
  <rect x="17" y="4" width="3" height="1" fill="#59b8e5"/>
  <rect x="0" y="5" width="1" height="1" fill="#53b8df"/>
  <rect x="1" y="5" width="1" height="1" fill="#53b8dd"/>
  <rect x="2" y="5" width="1" height="2" fill="#52bad9"/>
  <rect x="3" y="5" width="1" height="1" fill="#5fb5d1"/>
  <rect x="4" y="5" width="1" height="1" fill="#d5ffff"/>
  <rect x="5" y="5" width="1" height="1" fill="#def9ff"/>
  <rect x="6" y="5" width="1" height="1" fill="#e0ffff"/>
  <rect x="7" y="5" width="1" height="1" fill="#e5ffff"/>
  <rect x="8" y="5" width="1" height="1" fill="#ebffff"/>
  <rect x="9" y="5" width="1" height="1" fill="#f3ffff"/>
  <rect x="10" y="5" width="1" height="1" fill="#f1ffff"/>
  <rect x="11" y="5" width="2" height="1" fill="#ebffff"/>
  <rect x="13" y="5" width="1" height="1" fill="#ecffff"/>
  <rect x="14" y="5" width="1" height="1" fill="#e8ffff"/>
  <rect x="15" y="5" width="1" height="1" fill="#daffff"/>
  <rect x="16" y="5" width="1" height="1" fill="#63b3dc"/>
  <rect x="17" y="5" width="3" height="1" fill="#58b7e4"/>
  <rect x="0" y="6" width="2" height="1" fill="#52b9dd"/>
  <rect x="3" y="6" width="1" height="1" fill="#62b3d1"/>
  <rect x="4" y="6" width="1" height="1" fill="#e1ffff"/>
  <rect x="5" y="6" width="1" height="1" fill="#f4fdff"/>
  <rect x="6" y="6" width="1" height="1" fill="#eefdff"/>
  <rect x="7" y="6" width="1" height="1" fill="#e1faff"/>
  <rect x="8" y="6" width="1" height="1" fill="#e1ffff"/>
  <rect x="9" y="6" width="1" height="1" fill="#6b95a7"/>
  <rect x="10" y="6" width="1" height="1" fill="#6f93a5"/>
  <rect x="11" y="6" width="1" height="1" fill="#e7ffff"/>
  <rect x="12" y="6" width="1" height="1" fill="#ecfeff"/>
  <rect x="13" y="6" width="1" height="1" fill="#f2fdff"/>
  <rect x="14" y="6" width="1" height="1" fill="#fafeff"/>
  <rect x="15" y="6" width="1" height="1" fill="#ebffff"/>
  <rect x="16" y="6" width="1" height="1" fill="#68b1d6"/>
  <rect x="17" y="6" width="3" height="1" fill="#56b8e4"/>
  <rect x="0" y="7" width="1" height="1" fill="#4fb9dc"/>
  <rect x="1" y="7" width="1" height="1" fill="#4fb9da"/>
  <rect x="2" y="7" width="1" height="1" fill="#51b8da"/>
  <rect x="3" y="7" width="1" height="1" fill="#64b0d2"/>
  <rect x="4" y="7" width="1" height="1" fill="#d9f1ff"/>
  <rect x="5" y="7" width="1" height="1" fill="#f8f9ff"/>
  <rect x="6" y="7" width="1" height="1" fill="#faffff"/>
  <rect x="7" y="7" width="1" height="1" fill="#e7f9ff"/>
  <rect x="8" y="7" width="1" height="1" fill="#d6ffff"/>
  <rect x="9" y="7" width="1" height="1" fill="#75acc5"/>
  <rect x="10" y="7" width="1" height="1" fill="#7aaac1"/>
  <rect x="11" y="7" width="1" height="1" fill="#ddffff"/>
  <rect x="12" y="7" width="1" height="1" fill="#f1ffff"/>
  <rect x="13" y="7" width="1" height="1" fill="#f8fdff"/>
  <rect x="14" y="7" width="1" height="1" fill="#fbf6ff"/>
  <rect x="15" y="7" width="1" height="1" fill="#e8f9ff"/>
  <rect x="16" y="7" width="1" height="1" fill="#68afd5"/>
  <rect x="17" y="7" width="3" height="1" fill="#55b6e3"/>
  <rect x="0" y="8" width="1" height="1" fill="#4cb9d9"/>
  <rect x="1" y="8" width="1" height="1" fill="#4eb8d9"/>
  <rect x="2" y="8" width="1" height="1" fill="#53b5db"/>
  <rect x="3" y="8" width="1" height="1" fill="#66add0"/>
  <rect x="4" y="8" width="1" height="1" fill="#cee8ff"/>
  <rect x="5" y="8" width="1" height="1" fill="#f8f7ff"/>
  <rect x="6" y="8" width="1" height="1" fill="#fefdff"/>
  <rect x="7" y="8" width="1" height="1" fill="#f1fdff"/>
  <rect x="8" y="8" width="1" height="1" fill="#d8ffff"/>
  <rect x="9" y="8" width="1" height="1" fill="#73aec8"/>
  <rect x="10" y="8" width="1" height="1" fill="#74afc2"/>
  <rect x="11" y="8" width="1" height="1" fill="#d6ffff"/>
  <rect x="12" y="8" width="1" height="1" fill="#ebffff"/>
  <rect x="13" y="8" width="1" height="1" fill="#eef9fc"/>
  <rect x="14" y="8" width="1" height="1" fill="#f6f8ff"/>
  <rect x="15" y="8" width="1" height="1" fill="#d6edff"/>
  <rect x="16" y="8" width="1" height="1" fill="#65afd6"/>
  <rect x="17" y="8" width="3" height="1" fill="#54b5e2"/>
  <rect x="0" y="9" width="1" height="1" fill="#4bb8d7"/>
  <rect x="1" y="9" width="1" height="1" fill="#4db7d9"/>
  <rect x="2" y="9" width="1" height="1" fill="#53b3dd"/>
  <rect x="3" y="9" width="1" height="1" fill="#65acd1"/>
  <rect x="4" y="9" width="1" height="1" fill="#beddf4"/>
  <rect x="5" y="9" width="1" height="1" fill="#f7fbff"/>
  <rect x="6" y="9" width="1" height="1" fill="#fafafe"/>
  <rect x="7" y="9" width="1" height="1" fill="#f2fcff"/>
  <rect x="8" y="9" width="1" height="1" fill="#d9ffff"/>
  <rect x="9" y="9" width="1" height="1" fill="#73afc6"/>
  <rect x="10" y="9" width="1" height="1" fill="#73b0c2"/>
  <rect x="11" y="9" width="1" height="1" fill="#d4ffff"/>
  <rect x="12" y="9" width="1" height="1" fill="#e7ffff"/>
  <rect x="13" y="9" width="1" height="1" fill="#edfdfc"/>
  <rect x="14" y="9" width="1" height="1" fill="#edf8ff"/>
  <rect x="15" y="9" width="1" height="1" fill="#c5e4ff"/>
  <rect x="16" y="9" width="1" height="1" fill="#63aed7"/>
  <rect x="17" y="9" width="3" height="1" fill="#53b4e1"/>
  <rect x="0" y="10" width="1" height="1" fill="#4db7d9"/>
  <rect x="1" y="10" width="1" height="1" fill="#4eb5db"/>
  <rect x="2" y="10" width="1" height="1" fill="#53b2df"/>
  <rect x="3" y="10" width="1" height="1" fill="#63acd5"/>
  <rect x="4" y="10" width="1" height="1" fill="#a5cee9"/>
  <rect x="5" y="10" width="1" height="1" fill="#f1ffff"/>
  <rect x="6" y="10" width="1" height="1" fill="#f4f7ff"/>
  <rect x="7" y="10" width="1" height="1" fill="#f0fcff"/>
  <rect x="8" y="10" width="1" height="1" fill="#dbffff"/>
  <rect x="9" y="10" width="1" height="1" fill="#76acc1"/>
  <rect x="10" y="10" width="1" height="1" fill="#76adbd"/>
  <rect x="11" y="10" width="1" height="1" fill="#d8ffff"/>
  <rect x="12" y="10" width="1" height="1" fill="#e6fffe"/>
  <rect x="13" y="10" width="1" height="1" fill="#eeffff"/>
  <rect x="14" y="10" width="1" height="1" fill="#e3faff"/>
  <rect x="15" y="10" width="1" height="1" fill="#add8f4"/>
  <rect x="16" y="10" width="1" height="1" fill="#5fb0d7"/>
  <rect x="17" y="10" width="3" height="1" fill="#51b5e1"/>
  <rect x="0" y="11" width="1" height="1" fill="#4eb5df"/>
  <rect x="1" y="11" width="1" height="1" fill="#50b4df"/>
  <rect x="2" y="11" width="1" height="2" fill="#55b1e1"/>
  <rect x="3" y="11" width="1" height="1" fill="#60add9"/>
  <rect x="4" y="11" width="1" height="1" fill="#8fc2e3"/>
  <rect x="5" y="11" width="1" height="1" fill="#e9ffff"/>
  <rect x="6" y="11" width="1" height="1" fill="#edf6ff"/>
  <rect x="7" y="11" width="1" height="1" fill="#f1fdff"/>
  <rect x="8" y="11" width="1" height="1" fill="#deffff"/>
  <rect x="9" y="11" width="2" height="1" fill="#7daabb"/>
  <rect x="11" y="11" width="1" height="1" fill="#dcffff"/>
  <rect x="12" y="11" width="1" height="1" fill="#e7fdff"/>
  <rect x="13" y="11" width="1" height="1" fill="#edffff"/>
  <rect x="14" y="11" width="1" height="1" fill="#d9faff"/>
  <rect x="15" y="11" width="1" height="1" fill="#9ad1ee"/>
  <rect x="16" y="11" width="1" height="1" fill="#5bb0d7"/>
  <rect x="17" y="11" width="3" height="2" fill="#50b4df"/>
  <rect x="0" y="12" width="1" height="1" fill="#51b2e5"/>
  <rect x="1" y="12" width="1" height="1" fill="#53b1e5"/>
  <rect x="3" y="12" width="1" height="1" fill="#5bafdb"/>
  <rect x="4" y="12" width="1" height="1" fill="#71b4d9"/>
  <rect x="5" y="12" width="1" height="1" fill="#d1fcff"/>
  <rect x="6" y="12" width="1" height="1" fill="#eeffff"/>
  <rect x="7" y="12" width="1" height="1" fill="#f0fcff"/>
  <rect x="8" y="12" width="1" height="1" fill="#e2fdff"/>
  <rect x="9" y="12" width="1" height="1" fill="#dbffff"/>
  <rect x="10" y="12" width="1" height="1" fill="#dcfeff"/>
  <rect x="11" y="12" width="1" height="1" fill="#e1feff"/>
  <rect x="12" y="12" width="1" height="1" fill="#e7fbff"/>
  <rect x="13" y="12" width="1" height="1" fill="#e7ffff"/>
  <rect x="14" y="12" width="1" height="1" fill="#d1ffff"/>
  <rect x="15" y="12" width="1" height="1" fill="#70b6d3"/>
  <rect x="16" y="12" width="1" height="1" fill="#58b1d7"/>
  <rect x="0" y="13" width="1" height="1" fill="#53afee"/>
  <rect x="1" y="13" width="1" height="1" fill="#53b0ea"/>
  <rect x="2" y="13" width="1" height="1" fill="#55b1e3"/>
  <rect x="3" y="13" width="1" height="1" fill="#58b0dd"/>
  <rect x="4" y="13" width="1" height="1" fill="#5caad4"/>
  <rect x="5" y="13" width="1" height="1" fill="#aae2ff"/>
  <rect x="6" y="13" width="1" height="1" fill="#e0faff"/>
  <rect x="7" y="13" width="1" height="1" fill="#e9f5fc"/>
  <rect x="8" y="13" width="1" height="1" fill="#e5fdff"/>
  <rect x="9" y="13" width="1" height="1" fill="#8aa5b3"/>
  <rect x="10" y="13" width="1" height="1" fill="#8aa5b5"/>
  <rect x="11" y="13" width="1" height="1" fill="#e4fbff"/>
  <rect x="12" y="13" width="1" height="1" fill="#e5f6fe"/>
  <rect x="13" y="13" width="1" height="1" fill="#dcfaff"/>
  <rect x="14" y="13" width="1" height="1" fill="#aae6fb"/>
  <rect x="15" y="13" width="1" height="1" fill="#56a8c5"/>
  <rect x="16" y="13" width="1" height="1" fill="#53b1d8"/>
  <rect x="17" y="13" width="3" height="3" fill="#4fb3de"/>
  <rect x="0" y="14" width="1" height="1" fill="#52adf2"/>
  <rect x="1" y="14" width="1" height="1" fill="#52aeec"/>
  <rect x="2" y="14" width="1" height="2" fill="#52b0e2"/>
  <rect x="3" y="14" width="1" height="1" fill="#55b1df"/>
  <rect x="4" y="14" width="1" height="1" fill="#56aedb"/>
  <rect x="5" y="14" width="1" height="1" fill="#67adce"/>
  <rect x="6" y="14" width="1" height="1" fill="#daf7ff"/>
  <rect x="7" y="14" width="1" height="1" fill="#e1f0f6"/>
  <rect x="8" y="14" width="1" height="1" fill="#e7fdff"/>
  <rect x="9" y="14" width="1" height="1" fill="#8da4ae"/>
  <rect x="10" y="14" width="1" height="1" fill="#90a2b3"/>
  <rect x="11" y="14" width="1" height="1" fill="#e9f9ff"/>
  <rect x="12" y="14" width="1" height="1" fill="#e7f8ff"/>
  <rect x="13" y="14" width="1" height="1" fill="#d6f9ff"/>
  <rect x="14" y="14" width="1" height="1" fill="#67afc4"/>
  <rect x="15" y="14" width="1" height="1" fill="#52adcb"/>
  <rect x="16" y="14" width="1" height="1" fill="#52b2da"/>
  <rect x="0" y="15" width="1" height="1" fill="#52adf0"/>
  <rect x="1" y="15" width="1" height="1" fill="#52afea"/>
  <rect x="3" y="15" width="1" height="1" fill="#52b1de"/>
  <rect x="4" y="15" width="1" height="1" fill="#51b3df"/>
  <rect x="5" y="15" width="1" height="1" fill="#5babd2"/>
  <rect x="6" y="15" width="1" height="1" fill="#8fc2d8"/>
  <rect x="7" y="15" width="1" height="1" fill="#d3f5ff"/>
  <rect x="8" y="15" width="1" height="1" fill="#e1feff"/>
  <rect x="9" y="15" width="1" height="1" fill="#e1fcff"/>
  <rect x="10" y="15" width="1" height="1" fill="#e1fbff"/>
  <rect x="11" y="15" width="1" height="1" fill="#dffcff"/>
  <rect x="12" y="15" width="1" height="1" fill="#e1ffff"/>
  <rect x="13" y="15" width="1" height="1" fill="#8cc0ce"/>
  <rect x="14" y="15" width="1" height="1" fill="#4fa4b9"/>
  <rect x="15" y="15" width="1" height="1" fill="#52b8d6"/>
  <rect x="16" y="15" width="1" height="1" fill="#4fb3da"/>
  <rect x="0" y="16" width="1" height="1" fill="#4fafe5"/>
  <rect x="1" y="16" width="1" height="1" fill="#4fafe3"/>
  <rect x="2" y="16" width="1" height="1" fill="#4fb0df"/>
  <rect x="3" y="16" width="1" height="1" fill="#4fb1dd"/>
  <rect x="4" y="16" width="1" height="1" fill="#4bafdd"/>
  <rect x="5" y="16" width="1" height="1" fill="#4eaed9"/>
  <rect x="6" y="16" width="1" height="1" fill="#56abd1"/>
  <rect x="7" y="16" width="1" height="1" fill="#67add0"/>
  <rect x="8" y="16" width="1" height="1" fill="#b2e0ff"/>
  <rect x="9" y="16" width="1" height="1" fill="#d3fbff"/>
  <rect x="10" y="16" width="1" height="1" fill="#cffdff"/>
  <rect x="11" y="16" width="1" height="1" fill="#abe4ff"/>
  <rect x="12" y="16" width="1" height="1" fill="#72b7d0"/>
  <rect x="13" y="16" width="1" height="1" fill="#4da3b8"/>
  <rect x="14" y="16" width="1" height="1" fill="#48afc5"/>
  <rect x="15" y="16" width="1" height="1" fill="#4bb9d3"/>
  <rect x="16" y="16" width="1" height="1" fill="#4bb5dc"/>
  <rect x="17" y="16" width="3" height="1" fill="#4db3e0"/>
  <rect x="0" y="17" width="2" height="1" fill="#4eb1df"/>
  <rect x="2" y="17" width="1" height="1" fill="#4fb1dd"/>
  <rect x="3" y="17" width="1" height="3" fill="#4bafdd"/>
  <rect x="4" y="17" width="2" height="1" fill="#48aedc"/>
  <rect x="6" y="17" width="1" height="1" fill="#4ab0dd"/>
  <rect x="7" y="17" width="1" height="1" fill="#52acdb"/>
  <rect x="8" y="17" width="1" height="1" fill="#5394c2"/>
  <rect x="9" y="17" width="1" height="1" fill="#528cbb"/>
  <rect x="10" y="17" width="1" height="1" fill="#4b90bb"/>
  <rect x="11" y="17" width="1" height="1" fill="#4999c0"/>
  <rect x="12" y="17" width="1" height="1" fill="#47a3c6"/>
  <rect x="13" y="17" width="1" height="1" fill="#42a8c7"/>
  <rect x="14" y="17" width="1" height="1" fill="#46b3d1"/>
  <rect x="15" y="17" width="1" height="1" fill="#47b6d5"/>
  <rect x="16" y="17" width="1" height="1" fill="#48b3da"/>
  <rect x="17" y="17" width="3" height="1" fill="#49b1de"/>
  <rect x="0" y="18" width="1" height="1" fill="#4bb1dee6"/>
  <rect x="1" y="18" width="2" height="1" fill="#4cb0de"/>
  <rect x="4" y="18" width="2" height="2" fill="#48aede"/>
  <rect x="6" y="18" width="1" height="1" fill="#4aadde"/>
  <rect x="7" y="18" width="1" height="1" fill="#4dacdc"/>
  <rect x="8" y="18" width="1" height="1" fill="#52aada"/>
  <rect x="9" y="18" width="1" height="1" fill="#58aede"/>
  <rect x="10" y="18" width="1" height="1" fill="#57afde"/>
  <rect x="11" y="18" width="1" height="1" fill="#4eaad8"/>
  <rect x="12" y="18" width="1" height="1" fill="#48acd7"/>
  <rect x="13" y="18" width="1" height="1" fill="#4ab0db"/>
  <rect x="14" y="18" width="1" height="1" fill="#46b2db"/>
  <rect x="15" y="18" width="1" height="1" fill="#48b3dc"/>
  <rect x="16" y="18" width="3" height="1" fill="#48b0dd"/>
  <rect x="19" y="18" width="1" height="1" fill="#48b0dde7"/>
  <rect x="0" y="19" width="1" height="1" fill="#4bb1de4a"/>
  <rect x="1" y="19" width="1" height="1" fill="#4bb1dee7"/>
  <rect x="2" y="19" width="1" height="1" fill="#4cb0de"/>
  <rect x="6" y="19" width="2" height="1" fill="#4aadde"/>
  <rect x="8" y="19" width="1" height="1" fill="#4aabdc"/>
  <rect x="9" y="19" width="1" height="1" fill="#4cacde"/>
  <rect x="10" y="19" width="1" height="1" fill="#4aadde"/>
  <rect x="11" y="19" width="1" height="1" fill="#4baedf"/>
  <rect x="12" y="19" width="1" height="1" fill="#4cb1e3"/>
  <rect x="13" y="19" width="1" height="1" fill="#4ab2e3"/>
  <rect x="14" y="19" width="2" height="1" fill="#48b2e2"/>
  <rect x="16" y="19" width="1" height="1" fill="#48b0df"/>
  <rect x="17" y="19" width="1" height="1" fill="#48b0dd"/>
  <rect x="18" y="19" width="1" height="1" fill="#48b0dde4"/>
  <rect x="19" y="19" width="1" height="1" fill="#48b0dd4a"/>
</svg>