<svg xmlns="http://www.w3.org/2000/svg" width="16" height="16" viewBox="0 0 16 16" shape-rendering="crispEdges">
  <rect x="3" y="0" width="1" height="1" fill="#d3d9d92a"/>
  <rect x="4" y="0" width="1" height="1" fill="#d3d9d99a"/>
  <rect x="5" y="0" width="1" height="1" fill="#d3d9d9e7"/>
  <rect x="6" y="0" width="2" height="1" fill="#d3d9d9"/>
  <rect x="8" y="0" width="1" height="1" fill="#d3d9d9df"/>
  <rect x="9" y="0" width="1" height="1" fill="#d3d9d98f"/>
  <rect x="10" y="0" width="1" height="1" fill="#d3d9d919"/>
  <rect x="2" y="1" width="1" height="1" fill="#d3d9d96c"/>
  <rect x="3" y="1" width="1" height="1" fill="#d3d9d9fb"/>
  <rect x="4" y="1" width="6" height="1" fill="#d3d9d9"/>
  <rect x="10" y="1" width="1" height="1" fill="#d3d9d9f4"/>
  <rect x="11" y="1" width="1" height="1" fill="#d3d9d955"/>
  <rect x="1" y="2" width="1" height="1" fill="#d3d9d968"/>
  <rect x="2" y="2" width="2" height="1" fill="#d3d9d9"/>
  <rect x="4" y="2" width="1" height="1" fill="#d3d9d9e6"/>
  <rect x="5" y="2" width="1" height="1" fill="#d3d9d981"/>
  <rect x="6" y="2" width="1" height="1" fill="#d3d9d94d"/>
  <rect x="7" y="2" width="1" height="1" fill="#d3d9d950"/>
  <rect x="8" y="2" width="1" height="1" fill="#d3d9d98a"/>
  <rect x="9" y="2" width="1" height="1" fill="#d3d9d9ef"/>
  <rect x="10" y="2" width="1" height="1" fill="#d3d9d9"/>
  <rect x="11" y="2" width="1" height="1" fill="#d3d9d9fc"/>
  <rect x="12" y="2" width="1" height="1" fill="#d3d9d94d"/>
  <rect x="0" y="3" width="1" height="1" fill="#d3d9d922"/>
  <rect x="1" y="3" width="1" height="1" fill="#d3d9d9f8"/>
  <rect x="2" y="3" width="1" height="1" fill="#d3d9d9"/>
  <rect x="3" y="3" width="1" height="1" fill="#d3d9d9bb"/>
  <rect x="4" y="3" width="1" height="1" fill="#d3d9d90f"/>
  <rect x="9" y="3" width="1" height="1" fill="#d3d9d91a"/>
  <rect x="10" y="3" width="1" height="1" fill="#d3d9d9ce"/>
  <rect x="11" y="3" width="1" height="1" fill="#d3d9d9"/>
  <rect x="12" y="3" width="1" height="1" fill="#d3d9d9ea"/>
  <rect x="13" y="3" width="1" height="1" fill="#d3d9d90e"/>
  <rect x="0" y="4" width="1" height="1" fill="#d3d9d991"/>
  <rect x="1" y="4" width="1" height="6" fill="#d3d9d9"/>
  <rect x="2" y="4" width="1" height="1" fill="#d3d9d9e5"/>
  <rect x="3" y="4" width="1" height="1" fill="#d3d9d90f"/>
  <rect x="10" y="4" width="1" height="1" fill="#d3d9d91d"/>
  <rect x="11" y="4" width="1" height="1" fill="#d3d9d9f4"/>
  <rect x="12" y="4" width="1" height="6" fill="#d3d9d9"/>
  <rect x="13" y="4" width="1" height="1" fill="#d3d9d973"/>
  <rect x="0" y="5" width="1" height="1" fill="#d3d9d9d8"/>
  <rect x="2" y="5" width="1" height="1" fill="#d3d9d979"/>
  <rect x="11" y="5" width="1" height="1" fill="#d3d9d997"/>
  <rect x="13" y="5" width="1" height="1" fill="#d3d9d9ba"/>
  <rect x="0" y="6" width="1" height="1" fill="#d3d9d9f7"/>
  <rect x="2" y="6" width="1" height="2" fill="#d3d9d943"/>
  <rect x="11" y="6" width="1" height="1" fill="#d3d9d960"/>
  <rect x="13" y="6" width="1" height="2" fill="#d3d9d9d9"/>
  <rect x="0" y="7" width="1" height="1" fill="#d3d9d9fa"/>
  <rect x="11" y="7" width="1" height="1" fill="#d3d9d961"/>
  <rect x="0" y="8" width="1" height="1" fill="#d3d9d9d1"/>
  <rect x="2" y="8" width="1" height="1" fill="#d3d9d97b"/>
  <rect x="11" y="8" width="1" height="1" fill="#d3d9d998"/>
  <rect x="13" y="8" width="1" height="1" fill="#d3d9d9b2"/>
  <rect x="0" y="9" width="1" height="1" fill="#d3d9d982"/>
  <rect x="2" y="9" width="1" height="1" fill="#d3d9d9e6"/>
  <rect x="3" y="9" width="1" height="1" fill="#d3d9d90f"/>
  <rect x="10" y="9" width="1" height="1" fill="#d3d9d91e"/>
  <rect x="11" y="9" width="1" height="1" fill="#d3d9d9f5"/>
  <rect x="13" y="9" width="1" height="1" fill="#d3d9d960"/>
  <rect x="0" y="10" width="1" height="1" fill="#d3d9d917"/>
  <rect x="1" y="10" width="1" height="1" fill="#d3d9d9ee"/>
  <rect x="2" y="10" width="1" height="1" fill="#d3d9d9"/>
  <rect x="3" y="10" width="1" height="1" fill="#d3d9d9c1"/>
  <rect x="4" y="10" width="1" height="1" fill="#d3d9d912"/>
  <rect x="9" y="10" width="1" height="1" fill="#d3d9d91d"/>
  <rect x="10" y="10" width="1" height="1" fill="#d3d9d9d3"/>
  <rect x="11" y="10" width="1" height="1" fill="#d3d9d9"/>
  <rect x="12" y="10" width="1" height="1" fill="#d3d9d9f7"/>
  <rect x="13" y="10" width="1" height="1" fill="#d3d9d911"/>
  <rect x="1" y="11" width="1" height="1" fill="#d3d9d94c"/>
  <rect x="2" y="11" width="1" height="1" fill="#d3d9d9fc"/>
  <rect x="3" y="11" width="1" height="1" fill="#d3d9d9"/>
  <rect x="4" y="11" width="1" height="1" fill="#d3d9d9eb"/>
  <rect x="5" y="11" width="1" height="1" fill="#d3d9d986"/>
  <rect x="6" y="11" width="1" height="1" fill="#d3d9d951"/>
  <rect x="7" y="11" width="1" height="1" fill="#d3d9d955"/>
  <rect x="8" y="11" width="1" height="1" fill="#d3d9d98f"/>
  <rect x="9" y="11" width="1" height="1" fill="#d3d9d9f3"/>
  <rect x="10" y="11" width="3" height="1" fill="#d3d9d9"/>
  <rect x="13" y="11" width="1" height="1" fill="#d3d9d9c8"/>
  <rect x="14" y="11" width="1" height="1" fill="#d3d9d913"/>
  <rect x="2" y="12" width="1" height="1" fill="#d3d9d94a"/>
  <rect x="3" y="12" width="1" height="1" fill="#d3d9d9ee"/>
  <rect x="4" y="12" width="10" height="1" fill="#d3d9d9"/>
  <rect x="14" y="12" width="1" height="1" fill="#d3d9d9d7"/>
  <rect x="15" y="12" width="1" height="1" fill="#d3d9d91f"/>
  <rect x="3" y="13" width="1" height="1" fill="#d3d9d913"/>
  <rect x="4" y="13" width="1" height="1" fill="#d3d9d97c"/>
  <rect x="5" y="13" width="1" height="1" fill="#d3d9d9c6"/>
  <rect x="6" y="13" width="1" height="1" fill="#d3d9d9eb"/>
  <rect x="7" y="13" width="1" height="1" fill="#d3d9d9e6"/>
  <rect x="8" y="13" width="1" height="1" fill="#d3d9d9bb"/>
  <rect x="9" y="13" width="1" height="1" fill="#d3d9d967"/>
  <rect x="10" y="13" width="1" height="1" fill="#d3d9d963"/>
  <rect x="11" y="13" width="1" height="1" fill="#d3d9d9fa"/>
  <rect x="12" y="13" width="3" height="1" fill="#d3d9d9"/>
  <rect x="15" y="13" width="1" height="1" fill="#d3d9d9d4"/>
  <rect x="11" y="14" width="1" height="1" fill="#d3d9d946"/>
  <rect x="12" y="14" width="1" height="1" fill="#d3d9d9f3"/>
  <rect x="13" y="14" width="2" height="1" fill="#d3d9d9"/>
  <rect x="15" y="14" width="1" height="1" fill="#d3d9d99d"/>
  <rect x="12" y="15" width="1" height="1" fill="#d3d9d935"/>
  <rect x="13" y="15" width="1" height="1" fill="#d3d9d9e8"/>
  <rect x="14" y="15" width="1" height="1" fill="#d3d9d9af"/>
</svg>