<svg xmlns="http://www.w3.org/2000/svg" width="20" height="20" viewBox="0 0 20 20" shape-rendering="crispEdges">
  <rect x="6" y="0" width="1" height="1" fill="#9c9c9c5b"/>
  <rect x="7" y="0" width="1" height="1" fill="#979797aa"/>
  <rect x="8" y="0" width="1" height="1" fill="#969696dc"/>
  <rect x="9" y="0" width="1" height="1" fill="#959595f5"/>
  <rect x="10" y="0" width="1" height="1" fill="#959595f3"/>
  <rect x="11" y="0" width="1" height="1" fill="#969696da"/>
  <rect x="12" y="0" width="1" height="1" fill="#a0a0a0a5"/>
  <rect x="13" y="0" width="1" height="1" fill="#8d8d8d55"/>
  <rect x="4" y="1" width="1" height="1" fill="#a0a0a053"/>
  <rect x="5" y="1" width="1" height="1" fill="#9b9b9be3"/>
  <rect x="6" y="1" width="1" height="1" fill="#969696"/>
  <rect x="7" y="1" width="1" height="1" fill="#949494"/>
  <rect x="8" y="1" width="1" height="1" fill="#959595"/>
  <rect x="9" y="1" width="1" height="1" fill="#969696"/>
  <rect x="10" y="1" width="3" height="1" fill="#999999"/>
  <rect x="13" y="1" width="1" height="1" fill="#969696"/>
  <rect x="14" y="1" width="1" height="1" fill="#9a9a9add"/>
  <rect x="15" y="1" width="1" height="1" fill="#a0a0a04a"/>
  <rect x="3" y="2" width="1" height="1" fill="#a0a0a08b"/>
  <rect x="4" y="2" width="1" height="1" fill="#9b9b9b"/>
  <rect x="5" y="2" width="1" height="1" fill="#999999"/>
  <rect x="6" y="2" width="4" height="1" fill="#979797"/>
  <rect x="10" y="2" width="1" height="1" fill="#9a9a9a"/>
  <rect x="11" y="2" width="2" height="1" fill="#999999"/>
  <rect x="13" y="2" width="1" height="1" fill="#9a9a9a"/>
  <rect x="14" y="2" width="1" height="1" fill="#979797"/>
  <rect x="15" y="2" width="1" height="1" fill="#929292fe"/>
  <rect x="16" y="2" width="1" height="1" fill="#9999997f"/>
  <rect x="2" y="3" width="1" height="1" fill="#9e9e9e95"/>
  <rect x="3" y="3" width="1" height="1" fill="#979797"/>
  <rect x="4" y="3" width="7" height="1" fill="#9a9a9a"/>
  <rect x="11" y="3" width="1" height="1" fill="#9b9b9b"/>
  <rect x="12" y="3" width="1" height="1" fill="#9a9a9a"/>
  <rect x="13" y="3" width="1" height="1" fill="#979797"/>
  <rect x="14" y="3" width="1" height="1" fill="#9b9b9b"/>
  <rect x="15" y="3" width="1" height="1" fill="#a3a3a3"/>
  <rect x="16" y="3" width="1" height="2" fill="#999999"/>
  <rect x="17" y="3" width="1" height="1" fill="#99999986"/>
  <rect x="1" y="4" width="1" height="1" fill="#a2a2a258"/>
  <rect x="2" y="4" width="1" height="1" fill="#9b9b9b"/>
  <rect x="3" y="4" width="1" height="1" fill="#9a9a9a"/>
  <rect x="4" y="4" width="4" height="1" fill="#ffffff"/>
  <rect x="8" y="4" width="1" height="1" fill="#fdfdfd"/>
  <rect x="9" y="4" width="2" height="1" fill="#ffffff"/>
  <rect x="11" y="4" width="3" height="1" fill="#fcfbfc"/>
  <rect x="14" y="4" width="1" height="2" fill="#ffffff"/>
  <rect x="15" y="4" width="1" height="1" fill="#fcfbfc"/>
  <rect x="17" y="4" width="1" height="1" fill="#999999fe"/>
  <rect x="18" y="4" width="1" height="1" fill="#99999949"/>
  <rect x="1" y="5" width="1" height="1" fill="#9a9a9ae5"/>
  <rect x="2" y="5" width="2" height="1" fill="#9a9a9a"/>
  <rect x="4" y="5" width="1" height="1" fill="#9b9b9b"/>
  <rect x="5" y="5" width="1" height="1" fill="#ffffff"/>
  <rect x="6" y="5" width="1" height="1" fill="#9b9b9b"/>
  <rect x="7" y="5" width="1" height="1" fill="#969696"/>
  <rect x="8" y="5" width="1" height="1" fill="#ffffff"/>
  <rect x="9" y="5" width="2" height="1" fill="#999999"/>
  <rect x="11" y="5" width="1" height="1" fill="#ffffff"/>
  <rect x="12" y="5" width="1" height="1" fill="#959595"/>
  <rect x="13" y="5" width="1" height="1" fill="#999999"/>
  <rect x="15" y="5" width="1" height="1" fill="#9a9a9a"/>
  <rect x="16" y="5" width="2" height="1" fill="#999999"/>
  <rect x="18" y="5" width="1" height="1" fill="#999999da"/>
  <rect x="0" y="6" width="1" height="1" fill="#9a9a9a5e"/>
  <rect x="1" y="6" width="3" height="5" fill="#9a9a9a"/>
  <rect x="4" y="6" width="1" height="1" fill="#ffffff"/>
  <rect x="5" y="6" width="1" height="1" fill="#fcfbfc"/>
  <rect x="6" y="6" width="1" height="1" fill="#f9f9f9"/>
  <rect x="7" y="6" width="1" height="1" fill="#fcfbfc"/>
  <rect x="8" y="6" width="1" height="1" fill="#fdfdfd"/>
  <rect x="9" y="6" width="2" height="2" fill="#fcfbfc"/>
  <rect x="11" y="6" width="2" height="1" fill="#fefefe"/>
  <rect x="13" y="6" width="1" height="1" fill="#fcfbfc"/>
  <rect x="14" y="6" width="1" height="1" fill="#fefefe"/>
  <rect x="15" y="6" width="1" height="1" fill="#ffffff"/>
  <rect x="16" y="6" width="3" height="2" fill="#999999"/>
  <rect x="19" y="6" width="1" height="1" fill="#9999994e"/>
  <rect x="0" y="7" width="1" height="1" fill="#9a9a9aaf"/>
  <rect x="4" y="7" width="1" height="1" fill="#939393"/>
  <rect x="5" y="7" width="1" height="1" fill="#ffffff"/>
  <rect x="6" y="7" width="1" height="1" fill="#fefefe"/>
  <rect x="7" y="7" width="2" height="1" fill="#ffffff"/>
  <rect x="11" y="7" width="2" height="1" fill="#ffffff"/>
  <rect x="13" y="7" width="1" height="1" fill="#fafafa"/>
  <rect x="14" y="7" width="1" height="1" fill="#ffffff"/>
  <rect x="15" y="7" width="1" height="1" fill="#8f8f8f"/>
  <rect x="19" y="7" width="1" height="1" fill="#999999a0"/>
  <rect x="0" y="8" width="1" height="1" fill="#9a9a9ae2"/>
  <rect x="4" y="8" width="1" height="4" fill="#9b9b9b"/>
  <rect x="5" y="8" width="1" height="4" fill="#fefefe"/>
  <rect x="6" y="8" width="1" height="5" fill="#ffffff"/>
  <rect x="7" y="8" width="1" height="4" fill="#fafafa"/>
  <rect x="8" y="8" width="1" height="4" fill="#fefefe"/>
  <rect x="9" y="8" width="1" height="1" fill="#aaaaaa"/>
  <rect x="10" y="8" width="1" height="1" fill="#e3e3e3"/>
  <rect x="11" y="8" width="1" height="1" fill="#fefefe"/>
  <rect x="12" y="8" width="1" height="4" fill="#fafafa"/>
  <rect x="13" y="8" width="2" height="5" fill="#ffffff"/>
  <rect x="15" y="8" width="4" height="4" fill="#999999"/>
  <rect x="19" y="8" width="1" height="1" fill="#999999d3"/>
  <rect x="0" y="9" width="1" height="2" fill="#9a9a9afd"/>
  <rect x="9" y="9" width="1" height="2" fill="#979797"/>
  <rect x="10" y="9" width="1" height="2" fill="#9c9c9c"/>
  <rect x="11" y="9" width="1" height="2" fill="#c5c5c5"/>
  <rect x="19" y="9" width="1" height="2" fill="#999999ed"/>
  <rect x="0" y="11" width="1" height="1" fill="#9a9a9ae2"/>
  <rect x="1" y="11" width="1" height="2" fill="#9a9a9a"/>
  <rect x="2" y="11" width="1" height="2" fill="#999999"/>
  <rect x="3" y="11" width="1" height="1" fill="#9a9a9a"/>
  <rect x="9" y="11" width="1" height="1" fill="#aaaaaa"/>
  <rect x="10" y="11" width="1" height="1" fill="#e3e3e3"/>
  <rect x="11" y="11" width="1" height="1" fill="#fefefe"/>
  <rect x="19" y="11" width="1" height="1" fill="#999999d3"/>
  <rect x="0" y="12" width="1" height="1" fill="#929292b0"/>
  <rect x="3" y="12" width="1" height="1" fill="#898989"/>
  <rect x="4" y="12" width="1" height="1" fill="#9e9e9e"/>
  <rect x="5" y="12" width="1" height="1" fill="#f6f6f6"/>
  <rect x="7" y="12" width="1" height="1" fill="#fefefe"/>
  <rect x="8" y="12" width="4" height="1" fill="#ffffff"/>
  <rect x="12" y="12" width="1" height="1" fill="#f8f8f8"/>
  <rect x="15" y="12" width="1" height="1" fill="#9a9a9a"/>
  <rect x="16" y="12" width="3" height="2" fill="#999999"/>
  <rect x="19" y="12" width="1" height="1" fill="#999999a0"/>
  <rect x="0" y="13" width="1" height="1" fill="#9292925f"/>
  <rect x="1" y="13" width="1" height="1" fill="#999999"/>
  <rect x="2" y="13" width="1" height="1" fill="#9b9b9b"/>
  <rect x="3" y="13" width="1" height="1" fill="#999999"/>
  <rect x="4" y="13" width="1" height="1" fill="#fafafa"/>
  <rect x="5" y="13" width="2" height="1" fill="#ffffff"/>
  <rect x="7" y="13" width="1" height="1" fill="#f8f8f8"/>
  <rect x="8" y="13" width="6" height="1" fill="#ffffff"/>
  <rect x="14" y="13" width="1" height="1" fill="#f8f8f8"/>
  <rect x="15" y="13" width="1" height="1" fill="#ffffff"/>
  <rect x="19" y="13" width="1" height="1" fill="#9999994f"/>
  <rect x="1" y="14" width="1" height="1" fill="#9b9b9be5"/>
  <rect x="2" y="14" width="1" height="1" fill="#999999"/>
  <rect x="3" y="14" width="1" height="1" fill="#9c9c9c"/>
  <rect x="4" y="14" width="1" height="1" fill="#a0a0a0"/>
  <rect x="5" y="14" width="1" height="1" fill="#ffffff"/>
  <rect x="6" y="14" width="1" height="1" fill="#9d9d9d"/>
  <rect x="7" y="14" width="1" height="1" fill="#959595"/>
  <rect x="8" y="14" width="1" height="1" fill="#fcfbfc"/>
  <rect x="9" y="14" width="2" height="1" fill="#929292"/>
  <rect x="11" y="14" width="1" height="1" fill="#fcfbfc"/>
  <rect x="12" y="14" width="1" height="1" fill="#a1a1a1"/>
  <rect x="13" y="14" width="1" height="1" fill="#9a9a9a"/>
  <rect x="14" y="14" width="1" height="1" fill="#ffffff"/>
  <rect x="15" y="14" width="1" height="1" fill="#979797"/>
  <rect x="16" y="14" width="2" height="1" fill="#999999"/>
  <rect x="18" y="14" width="1" height="1" fill="#999999da"/>
  <rect x="1" y="15" width="1" height="1" fill="#a2a2a258"/>
  <rect x="2" y="15" width="1" height="1" fill="#929292"/>
  <rect x="3" y="15" width="1" height="1" fill="#939393"/>
  <rect x="4" y="15" width="1" height="1" fill="#fafafa"/>
  <rect x="5" y="15" width="6" height="1" fill="#ffffff"/>
  <rect x="11" y="15" width="1" height="1" fill="#fefefe"/>
  <rect x="12" y="15" width="1" height="1" fill="#fdfdfd"/>
  <rect x="13" y="15" width="1" height="1" fill="#f9f9f9"/>
  <rect x="14" y="15" width="1" height="1" fill="#fdfdfd"/>
  <rect x="15" y="15" width="1" height="1" fill="#f3f3f3"/>
  <rect x="16" y="15" width="1" height="1" fill="#999999"/>
  <rect x="17" y="15" width="1" height="1" fill="#999999fe"/>
  <rect x="18" y="15" width="1" height="1" fill="#9999994a"/>
  <rect x="2" y="16" width="1" height="1" fill="#99999996"/>
  <rect x="3" y="16" width="14" height="1" fill="#999999"/>
  <rect x="17" y="16" width="1" height="1" fill="#99999987"/>
  <rect x="3" y="17" width="1" height="1" fill="#9999998c"/>
  <rect x="4" y="17" width="11" height="1" fill="#999999"/>
  <rect x="15" y="17" width="1" height="1" fill="#999999fe"/>
  <rect x="16" y="17" width="1" height="1" fill="#9999997f"/>
  <rect x="4" y="18" width="1" height="1" fill="#99999953"/>
  <rect x="5" y="18" width="1" height="1" fill="#999999db"/>
  <rect x="6" y="18" width="8" height="1" fill="#999999"/>
  <rect x="14" y="18" width="1" height="1" fill="#999999d5"/>
  <rect x="15" y="18" width="1" height="1" fill="#99999949"/>
  <rect x="6" y="19" width="1" height="1" fill="#99999955"/>
  <rect x="7" y="19" width="1" height="1" fill="#999999a4"/>
  <rect x="8" y="19" width="1" height="1" fill="#999999dd"/>
  <rect x="9" y="19" width="1" height="1" fill="#999999f5"/>
  <rect x="10" y="19" width="1" height="1" fill="#999999f4"/>
  <rect x="11" y="19" width="1" height="1" fill="#999999db"/>
  <rect x="12" y="19" width="1" height="1" fill="#9999999d"/>
  <rect x="13" y="19" width="1" height="1" fill="#9999994f"/>
</svg>