<svg xmlns="http://www.w3.org/2000/svg" width="20" height="20" viewBox="0 0 20 20" shape-rendering="crispEdges">
  <rect x="0" y="0" width="1" height="1" fill="#f8a90d49"/>
  <rect x="1" y="0" width="1" height="1" fill="#f6a90fe6"/>
  <rect x="2" y="0" width="1" height="1" fill="#f5a911"/>
  <rect x="3" y="0" width="1" height="1" fill="#f2ab13"/>
  <rect x="4" y="0" width="1" height="1" fill="#f0ab17"/>
  <rect x="5" y="0" width="1" height="1" fill="#efab1b"/>
  <rect x="6" y="0" width="1" height="1" fill="#edab1d"/>
  <rect x="7" y="0" width="1" height="1" fill="#f2a91d"/>
  <rect x="8" y="0" width="1" height="1" fill="#fda31d"/>
  <rect x="9" y="0" width="1" height="1" fill="#fda419"/>
  <rect x="10" y="0" width="1" height="1" fill="#f2ab0f"/>
  <rect x="11" y="0" width="1" height="1" fill="#edaf07"/>
  <rect x="12" y="0" width="1" height="1" fill="#ebb101"/>
  <rect x="13" y="0" width="1" height="1" fill="#efb000"/>
  <rect x="14" y="0" width="1" height="1" fill="#f6ac01"/>
  <rect x="15" y="0" width="1" height="1" fill="#faa907"/>
  <rect x="16" y="0" width="1" height="2" fill="#f6a911"/>
  <rect x="17" y="0" width="1" height="1" fill="#f5a915"/>
  <rect x="18" y="0" width="1" height="1" fill="#f5a915e6"/>
  <rect x="19" y="0" width="1" height="1" fill="#f5a91549"/>
  <rect x="0" y="1" width="1" height="1" fill="#f8a713e6"/>
  <rect x="1" y="1" width="1" height="1" fill="#f6a813"/>
  <rect x="2" y="1" width="1" height="1" fill="#f5a913"/>
  <rect x="3" y="1" width="1" height="1" fill="#f3a915"/>
  <rect x="4" y="1" width="1" height="1" fill="#f3a917"/>
  <rect x="5" y="1" width="1" height="1" fill="#f2a919"/>
  <rect x="6" y="1" width="1" height="1" fill="#f0aa1b"/>
  <rect x="7" y="1" width="1" height="1" fill="#f3a81b"/>
  <rect x="8" y="1" width="1" height="1" fill="#fba41b"/>
  <rect x="9" y="1" width="1" height="1" fill="#fba517"/>
  <rect x="10" y="1" width="1" height="1" fill="#f2ab11"/>
  <rect x="11" y="1" width="1" height="1" fill="#efae0b"/>
  <rect x="12" y="1" width="1" height="1" fill="#edaf07"/>
  <rect x="13" y="1" width="1" height="1" fill="#f0ae05"/>
  <rect x="14" y="1" width="1" height="1" fill="#f8aa05"/>
  <rect x="15" y="1" width="1" height="1" fill="#fba809"/>
  <rect x="17" y="1" width="2" height="1" fill="#f5a915"/>
  <rect x="19" y="1" width="1" height="1" fill="#f5a915e6"/>
  <rect x="0" y="2" width="1" height="1" fill="#f6a61d"/>
  <rect x="1" y="2" width="2" height="1" fill="#f6a71b"/>
  <rect x="3" y="2" width="2" height="1" fill="#f8a619"/>
  <rect x="5" y="2" width="1" height="1" fill="#faa519"/>
  <rect x="6" y="2" width="1" height="1" fill="#faa617"/>
  <rect x="7" y="2" width="2" height="1" fill="#faa615"/>
  <rect x="9" y="2" width="1" height="1" fill="#f8a715"/>
  <rect x="10" y="2" width="1" height="1" fill="#f3a915"/>
  <rect x="11" y="2" width="1" height="1" fill="#f2aa15"/>
  <rect x="12" y="2" width="1" height="1" fill="#f2ab13"/>
  <rect x="13" y="2" width="1" height="1" fill="#f5a911"/>
  <rect x="14" y="2" width="1" height="1" fill="#fba70d"/>
  <rect x="15" y="2" width="1" height="1" fill="#fda60d"/>
  <rect x="16" y="2" width="1" height="1" fill="#f8a713"/>
  <rect x="17" y="2" width="3" height="1" fill="#f5a915"/>
  <rect x="0" y="3" width="2" height="1" fill="#f6a71b"/>
  <rect x="2" y="3" width="1" height="1" fill="#f8a81b"/>
  <rect x="3" y="3" width="1" height="1" fill="#f8a619"/>
  <rect x="4" y="3" width="1" height="1" fill="#faa617"/>
  <rect x="5" y="3" width="1" height="1" fill="#faa615"/>
  <rect x="6" y="3" width="1" height="1" fill="#faa713"/>
  <rect x="7" y="3" width="1" height="1" fill="#f6a71b"/>
  <rect x="8" y="3" width="1" height="1" fill="#efa82a"/>
  <rect x="9" y="3" width="1" height="1" fill="#eaa930"/>
  <rect x="10" y="3" width="1" height="1" fill="#eaaa2e"/>
  <rect x="11" y="3" width="1" height="1" fill="#ebaa2a"/>
  <rect x="12" y="3" width="1" height="1" fill="#efa925"/>
  <rect x="13" y="3" width="1" height="1" fill="#f2a81f"/>
  <rect x="14" y="3" width="1" height="1" fill="#f5a817"/>
  <rect x="15" y="3" width="1" height="1" fill="#f6a815"/>
  <rect x="16" y="3" width="1" height="1" fill="#f5a915"/>
  <rect x="17" y="3" width="3" height="2" fill="#f4a714"/>
  <rect x="0" y="4" width="1" height="1" fill="#ee9e03"/>
  <rect x="1" y="4" width="1" height="1" fill="#f9ab12"/>
  <rect x="2" y="4" width="1" height="1" fill="#f6a90f"/>
  <rect x="3" y="4" width="1" height="1" fill="#f1a60e"/>
  <rect x="4" y="4" width="1" height="1" fill="#f4ab12"/>
  <rect x="5" y="4" width="1" height="1" fill="#eca30a"/>
  <rect x="6" y="4" width="1" height="1" fill="#e7a009"/>
  <rect x="7" y="4" width="1" height="1" fill="#e0a321"/>
  <rect x="8" y="4" width="1" height="1" fill="#e7ba65"/>
  <rect x="9" y="4" width="1" height="1" fill="#fffab5"/>
  <rect x="10" y="4" width="1" height="1" fill="#fff09d"/>
  <rect x="11" y="4" width="1" height="1" fill="#deac4b"/>
  <rect x="12" y="4" width="1" height="1" fill="#d39c2d"/>
  <rect x="13" y="4" width="1" height="1" fill="#e4ab2e"/>
  <rect x="14" y="4" width="1" height="1" fill="#e2a823"/>
  <rect x="15" y="4" width="1" height="1" fill="#e5a81b"/>
  <rect x="16" y="4" width="1" height="1" fill="#efa717"/>
  <rect x="0" y="5" width="1" height="1" fill="#f8a909"/>
  <rect x="1" y="5" width="1" height="1" fill="#f8ab0c"/>
  <rect x="2" y="5" width="1" height="1" fill="#eda509"/>
  <rect x="3" y="5" width="1" height="1" fill="#eaa510"/>
  <rect x="4" y="5" width="1" height="1" fill="#e5a716"/>
  <rect x="5" y="5" width="1" height="1" fill="#dda516"/>
  <rect x="6" y="5" width="1" height="1" fill="#dba61d"/>
  <rect x="7" y="5" width="1" height="1" fill="#d7ae41"/>
  <rect x="8" y="5" width="1" height="1" fill="#ffebb5"/>
  <rect x="9" y="5" width="1" height="1" fill="#ffffd8"/>
  <rect x="10" y="5" width="1" height="1" fill="#ffedad"/>
  <rect x="11" y="5" width="1" height="1" fill="#daaf59"/>
  <rect x="12" y="5" width="1" height="1" fill="#fffe96"/>
  <rect x="13" y="5" width="1" height="1" fill="#ffe270"/>
  <rect x="14" y="5" width="1" height="1" fill="#f0bc4a"/>
  <rect x="15" y="5" width="1" height="1" fill="#e3a92d"/>
  <rect x="16" y="5" width="1" height="1" fill="#eda61a"/>
  <rect x="17" y="5" width="3" height="1" fill="#f3a613"/>
  <rect x="0" y="6" width="1" height="1" fill="#f7a70e"/>
  <rect x="1" y="6" width="1" height="1" fill="#efa30e"/>
  <rect x="2" y="6" width="1" height="1" fill="#e8a213"/>
  <rect x="3" y="6" width="1" height="1" fill="#edb02c"/>
  <rect x="4" y="6" width="1" height="1" fill="#e3b539"/>
  <rect x="5" y="6" width="1" height="1" fill="#caa635"/>
  <rect x="6" y="6" width="1" height="1" fill="#d6bc53"/>
  <rect x="7" y="6" width="1" height="1" fill="#fae595"/>
  <rect x="8" y="6" width="1" height="1" fill="#ffffe1"/>
  <rect x="9" y="6" width="1" height="1" fill="#ffffdd"/>
  <rect x="10" y="6" width="1" height="1" fill="#ffefa8"/>
  <rect x="11" y="6" width="1" height="1" fill="#d7a94c"/>
  <rect x="12" y="6" width="1" height="1" fill="#d0962a"/>
  <rect x="13" y="6" width="1" height="1" fill="#eaac41"/>
  <rect x="14" y="6" width="1" height="1" fill="#ffdf82"/>
  <rect x="15" y="6" width="1" height="1" fill="#ffc862"/>
  <rect x="16" y="6" width="1" height="1" fill="#eba41f"/>
  <rect x="17" y="6" width="1" height="1" fill="#f3a613"/>
  <rect x="18" y="6" width="2" height="1" fill="#f1a715"/>
  <rect x="0" y="7" width="1" height="1" fill="#ea9a01"/>
  <rect x="1" y="7" width="1" height="1" fill="#e19a07"/>
  <rect x="2" y="7" width="1" height="1" fill="#e2a524"/>
  <rect x="3" y="7" width="1" height="1" fill="#f5c558"/>
  <rect x="4" y="7" width="1" height="1" fill="#fff29b"/>
  <rect x="5" y="7" width="1" height="1" fill="#fffcb3"/>
  <rect x="6" y="7" width="1" height="1" fill="#ffffbe"/>
  <rect x="7" y="7" width="1" height="1" fill="#fffecf"/>
  <rect x="8" y="7" width="1" height="1" fill="#fffbe7"/>
  <rect x="9" y="7" width="1" height="1" fill="#fffbe0"/>
  <rect x="10" y="7" width="1" height="1" fill="#fff4b0"/>
  <rect x="11" y="7" width="1" height="1" fill="#cd9e43"/>
  <rect x="12" y="7" width="1" height="1" fill="#ffc869"/>
  <rect x="13" y="7" width="1" height="1" fill="#d89c3c"/>
  <rect x="14" y="7" width="1" height="1" fill="#cd9134"/>
  <rect x="15" y="7" width="1" height="1" fill="#ffe07a"/>
  <rect x="16" y="7" width="1" height="1" fill="#efac33"/>
  <rect x="17" y="7" width="1" height="1" fill="#eda51e"/>
  <rect x="18" y="7" width="1" height="1" fill="#efa719"/>
  <rect x="19" y="7" width="1" height="1" fill="#f1a715"/>
  <rect x="0" y="8" width="1" height="1" fill="#eea201"/>
  <rect x="1" y="8" width="1" height="1" fill="#e2a10f"/>
  <rect x="2" y="8" width="1" height="1" fill="#d6a733"/>
  <rect x="3" y="8" width="1" height="1" fill="#fffaaa"/>
  <rect x="4" y="8" width="1" height="1" fill="#fff7d1"/>
  <rect x="5" y="8" width="1" height="1" fill="#fff8e5"/>
  <rect x="6" y="8" width="1" height="1" fill="#fffae5"/>
  <rect x="7" y="8" width="1" height="1" fill="#fcfaeb"/>
  <rect x="8" y="8" width="1" height="1" fill="#fffbfb"/>
  <rect x="9" y="8" width="1" height="1" fill="#fff9e9"/>
  <rect x="10" y="8" width="1" height="1" fill="#fff4b9"/>
  <rect x="11" y="8" width="1" height="1" fill="#cd9e52"/>
  <rect x="12" y="8" width="1" height="1" fill="#ffdf9e"/>
  <rect x="13" y="8" width="1" height="1" fill="#ffd786"/>
  <rect x="14" y="8" width="1" height="1" fill="#d4a32d"/>
  <rect x="15" y="8" width="1" height="1" fill="#e5b334"/>
  <rect x="16" y="8" width="1" height="1" fill="#ffcf65"/>
  <rect x="17" y="8" width="1" height="1" fill="#dea034"/>
  <rect x="18" y="8" width="1" height="1" fill="#eda822"/>
  <rect x="19" y="8" width="1" height="1" fill="#e8a10e"/>
  <rect x="0" y="9" width="1" height="1" fill="#eda205"/>
  <rect x="1" y="9" width="1" height="1" fill="#e1a115"/>
  <rect x="2" y="9" width="1" height="1" fill="#d0a73a"/>
  <rect x="3" y="9" width="1" height="1" fill="#fffbb6"/>
  <rect x="4" y="9" width="1" height="1" fill="#fff9e3"/>
  <rect x="5" y="9" width="1" height="1" fill="#fbf8f9"/>
  <rect x="6" y="9" width="1" height="1" fill="#f8fbf5"/>
  <rect x="7" y="9" width="1" height="1" fill="#f8faf7"/>
  <rect x="8" y="9" width="1" height="1" fill="#fdfcff"/>
  <rect x="9" y="9" width="1" height="1" fill="#fffaed"/>
  <rect x="10" y="9" width="1" height="1" fill="#fff3be"/>
  <rect x="11" y="9" width="1" height="1" fill="#cd9c58"/>
  <rect x="12" y="9" width="1" height="1" fill="#d1a16a"/>
  <rect x="13" y="9" width="1" height="1" fill="#ffeda5"/>
  <rect x="14" y="9" width="1" height="1" fill="#d9ac2e"/>
  <rect x="15" y="9" width="1" height="1" fill="#d1a21c"/>
  <rect x="16" y="9" width="1" height="1" fill="#ffeb86"/>
  <rect x="17" y="9" width="1" height="1" fill="#dca340"/>
  <rect x="18" y="9" width="1" height="1" fill="#e5a11f"/>
  <rect x="19" y="9" width="1" height="1" fill="#eda513"/>
  <rect x="0" y="10" width="1" height="1" fill="#ee9f0f"/>
  <rect x="1" y="10" width="1" height="1" fill="#e29f1d"/>
  <rect x="2" y="10" width="1" height="1" fill="#d0a63c"/>
  <rect x="3" y="10" width="1" height="1" fill="#fffdb4"/>
  <rect x="4" y="10" width="1" height="1" fill="#fffbdd"/>
  <rect x="5" y="10" width="1" height="1" fill="#f4fdf1"/>
  <rect x="6" y="10" width="1" height="1" fill="#f1ffef"/>
  <rect x="7" y="10" width="1" height="1" fill="#f1fff1"/>
  <rect x="8" y="10" width="1" height="1" fill="#fbfdfd"/>
  <rect x="9" y="10" width="1" height="1" fill="#fffbeb"/>
  <rect x="10" y="10" width="1" height="1" fill="#fff3bb"/>
  <rect x="11" y="10" width="1" height="1" fill="#cd9d56"/>
  <rect x="12" y="10" width="1" height="1" fill="#c7985d"/>
  <rect x="13" y="10" width="1" height="1" fill="#ffeca0"/>
  <rect x="14" y="10" width="1" height="1" fill="#d2a42d"/>
  <rect x="15" y="10" width="1" height="1" fill="#d6a725"/>
  <rect x="16" y="10" width="1" height="1" fill="#fff48a"/>
  <rect x="17" y="10" width="1" height="1" fill="#dca239"/>
  <rect x="18" y="10" width="1" height="1" fill="#df9c18"/>
  <rect x="19" y="10" width="1" height="1" fill="#eca412"/>
  <rect x="0" y="11" width="1" height="1" fill="#ee9b13"/>
  <rect x="1" y="11" width="1" height="1" fill="#e49e1f"/>
  <rect x="2" y="11" width="1" height="1" fill="#d3a53a"/>
  <rect x="3" y="11" width="1" height="1" fill="#fffbae"/>
  <rect x="4" y="11" width="1" height="1" fill="#fffbd7"/>
  <rect x="5" y="11" width="1" height="1" fill="#f8fced"/>
  <rect x="6" y="11" width="1" height="1" fill="#f3ffed"/>
  <rect x="7" y="11" width="1" height="1" fill="#f4fdf1"/>
  <rect x="8" y="11" width="1" height="1" fill="#fcfcf9"/>
  <rect x="9" y="11" width="1" height="1" fill="#fff9e6"/>
  <rect x="10" y="11" width="1" height="1" fill="#fff1b9"/>
  <rect x="11" y="11" width="1" height="1" fill="#cd9d54"/>
  <rect x="12" y="11" width="1" height="1" fill="#d9ab68"/>
  <rect x="13" y="11" width="1" height="1" fill="#ffea9c"/>
  <rect x="14" y="11" width="1" height="1" fill="#d8a83b"/>
  <rect x="15" y="11" width="1" height="1" fill="#e7b43d"/>
  <rect x="16" y="11" width="1" height="1" fill="#ffe477"/>
  <rect x="17" y="11" width="1" height="1" fill="#db9e2a"/>
  <rect x="18" y="11" width="1" height="1" fill="#e19c13"/>
  <rect x="19" y="11" width="1" height="1" fill="#e89d0c"/>
  <rect x="0" y="12" width="1" height="1" fill="#f09812"/>
  <rect x="1" y="12" width="1" height="1" fill="#e89a1c"/>
  <rect x="2" y="12" width="1" height="1" fill="#dea836"/>
  <rect x="3" y="12" width="1" height="1" fill="#ffef9b"/>
  <rect x="4" y="12" width="1" height="1" fill="#fffad1"/>
  <rect x="5" y="12" width="1" height="1" fill="#f9eee0"/>
  <rect x="6" y="12" width="1" height="1" fill="#fcf4ec"/>
  <rect x="7" y="12" width="1" height="1" fill="#fffaf5"/>
  <rect x="8" y="12" width="1" height="1" fill="#fef9f6"/>
  <rect x="9" y="12" width="1" height="1" fill="#fff8e1"/>
  <rect x="10" y="12" width="1" height="1" fill="#fff1b4"/>
  <rect x="11" y="12" width="1" height="1" fill="#ce9f51"/>
  <rect x="12" y="12" width="1" height="1" fill="#ffdd91"/>
  <rect x="13" y="12" width="1" height="1" fill="#eec06e"/>
  <rect x="14" y="12" width="1" height="1" fill="#d8a643"/>
  <rect x="15" y="12" width="1" height="1" fill="#ffd060"/>
  <rect x="16" y="12" width="1" height="1" fill="#ffca57"/>
  <rect x="17" y="12" width="1" height="1" fill="#e3a325"/>
  <rect x="18" y="12" width="1" height="1" fill="#e69f11"/>
  <rect x="19" y="12" width="1" height="1" fill="#ec9f0c"/>
  <rect x="0" y="13" width="1" height="1" fill="#f09611"/>
  <rect x="1" y="13" width="1" height="1" fill="#e39510"/>
  <rect x="2" y="13" width="1" height="1" fill="#d59a1a"/>
  <rect x="3" y="13" width="1" height="1" fill="#e5b94f"/>
  <rect x="4" y="13" width="1" height="1" fill="#fff3ae"/>
  <rect x="5" y="13" width="1" height="1" fill="#fffacd"/>
  <rect x="6" y="13" width="1" height="1" fill="#ffffdc"/>
  <rect x="7" y="13" width="1" height="1" fill="#fff1d6"/>
  <rect x="8" y="13" width="1" height="1" fill="#fff8eb"/>
  <rect x="9" y="13" width="1" height="1" fill="#fff7de"/>
  <rect x="10" y="13" width="1" height="2" fill="#fff0b1"/>
  <rect x="11" y="13" width="1" height="1" fill="#cea04d"/>
  <rect x="12" y="13" width="1" height="1" fill="#d7ab58"/>
  <rect x="13" y="13" width="1" height="1" fill="#c69941"/>
  <rect x="14" y="13" width="1" height="1" fill="#dca94d"/>
  <rect x="15" y="13" width="1" height="1" fill="#fff28a"/>
  <rect x="16" y="13" width="1" height="1" fill="#e9ad34"/>
  <rect x="17" y="13" width="1" height="1" fill="#e09d17"/>
  <rect x="18" y="13" width="1" height="1" fill="#eaa111"/>
  <rect x="19" y="13" width="1" height="1" fill="#f1a610"/>
  <rect x="0" y="14" width="1" height="1" fill="#ef950d"/>
  <rect x="1" y="14" width="1" height="1" fill="#e7980a"/>
  <rect x="2" y="14" width="1" height="1" fill="#d99b05"/>
  <rect x="3" y="14" width="1" height="1" fill="#c79305"/>
  <rect x="4" y="14" width="1" height="1" fill="#c39420"/>
  <rect x="5" y="14" width="1" height="1" fill="#be8f29"/>
  <rect x="6" y="14" width="1" height="1" fill="#b9821e"/>
  <rect x="7" y="14" width="1" height="1" fill="#f7cd80"/>
  <rect x="8" y="14" width="1" height="1" fill="#fff9d7"/>
  <rect x="9" y="14" width="1" height="1" fill="#fff8da"/>
  <rect x="11" y="14" width="1" height="1" fill="#cd9f4a"/>
  <rect x="12" y="14" width="1" height="1" fill="#be9439"/>
  <rect x="13" y="14" width="1" height="1" fill="#e5b85f"/>
  <rect x="14" y="14" width="1" height="1" fill="#ffec97"/>
  <rect x="15" y="14" width="1" height="1" fill="#f0b756"/>
  <rect x="16" y="14" width="1" height="1" fill="#d7971b"/>
  <rect x="17" y="14" width="1" height="1" fill="#de9a0d"/>
  <rect x="18" y="14" width="1" height="1" fill="#eaa00c"/>
  <rect x="19" y="14" width="1" height="1" fill="#f1a30b"/>
  <rect x="0" y="15" width="1" height="1" fill="#ee980d"/>
  <rect x="1" y="15" width="1" height="1" fill="#ec9b0a"/>
  <rect x="2" y="15" width="1" height="1" fill="#e39f02"/>
  <rect x="3" y="15" width="1" height="1" fill="#d89b00"/>
  <rect x="4" y="15" width="1" height="1" fill="#e4a71a"/>
  <rect x="5" y="15" width="1" height="1" fill="#d99b13"/>
  <rect x="6" y="15" width="1" height="1" fill="#e6a119"/>
  <rect x="7" y="15" width="1" height="1" fill="#ce9527"/>
  <rect x="8" y="15" width="1" height="1" fill="#fff6bd"/>
  <rect x="9" y="15" width="1" height="1" fill="#fff6c6"/>
  <rect x="10" y="15" width="1" height="1" fill="#ffefa3"/>
  <rect x="11" y="15" width="1" height="1" fill="#d19f40"/>
  <rect x="12" y="15" width="1" height="1" fill="#fff790"/>
  <rect x="13" y="15" width="1" height="1" fill="#ffd169"/>
  <rect x="14" y="15" width="1" height="1" fill="#dda441"/>
  <rect x="15" y="15" width="1" height="1" fill="#cf9124"/>
  <rect x="16" y="15" width="1" height="1" fill="#de9d1b"/>
  <rect x="17" y="15" width="1" height="1" fill="#e29c0b"/>
  <rect x="18" y="15" width="1" height="2" fill="#e49a06"/>
  <rect x="19" y="15" width="1" height="1" fill="#e69803"/>
  <rect x="0" y="16" width="1" height="1" fill="#ea9a0d"/>
  <rect x="1" y="16" width="1" height="1" fill="#ea9b0b"/>
  <rect x="2" y="16" width="1" height="1" fill="#e69d09"/>
  <rect x="3" y="16" width="1" height="1" fill="#e59d0b"/>
  <rect x="4" y="16" width="1" height="1" fill="#e59c0f"/>
  <rect x="5" y="16" width="1" height="1" fill="#e59c11"/>
  <rect x="6" y="16" width="1" height="1" fill="#e69b0f"/>
  <rect x="7" y="16" width="1" height="1" fill="#e29a21"/>
  <rect x="8" y="16" width="1" height="1" fill="#d59940"/>
  <rect x="9" y="16" width="1" height="1" fill="#ffea99"/>
  <rect x="10" y="16" width="1" height="1" fill="#ffea89"/>
  <rect x="11" y="16" width="1" height="1" fill="#db9b2d"/>
  <rect x="12" y="16" width="1" height="1" fill="#c28409"/>
  <rect x="13" y="16" width="1" height="1" fill="#cb8d09"/>
  <rect x="14" y="16" width="1" height="1" fill="#d9990f"/>
  <rect x="15" y="16" width="1" height="1" fill="#e2a113"/>
  <rect x="16" y="16" width="1" height="1" fill="#df9c0c"/>
  <rect x="17" y="16" width="1" height="1" fill="#e19c08"/>
  <rect x="19" y="16" width="1" height="1" fill="#e69a06"/>
  <rect x="0" y="17" width="7" height="1" fill="#e89b0d"/>
  <rect x="7" y="17" width="1" height="1" fill="#e69a15"/>
  <rect x="8" y="17" width="1" height="1" fill="#e29726"/>
  <rect x="9" y="17" width="1" height="1" fill="#c87e13"/>
  <rect x="10" y="17" width="1" height="1" fill="#c8800b"/>
  <rect x="11" y="17" width="1" height="1" fill="#e39a1d"/>
  <rect x="12" y="17" width="1" height="1" fill="#dd960d"/>
  <rect x="13" y="17" width="1" height="1" fill="#df9906"/>
  <rect x="14" y="17" width="1" height="1" fill="#e19d02"/>
  <rect x="15" y="17" width="1" height="1" fill="#e29e01"/>
  <rect x="16" y="17" width="1" height="1" fill="#e19c06"/>
  <rect x="17" y="17" width="1" height="1" fill="#e39b08"/>
  <rect x="18" y="17" width="2" height="1" fill="#e49a06"/>
  <rect x="0" y="18" width="1" height="1" fill="#e89b0de6"/>
  <rect x="1" y="18" width="5" height="1" fill="#e89b0d"/>
  <rect x="6" y="18" width="1" height="1" fill="#e69c0d"/>
  <rect x="7" y="18" width="1" height="1" fill="#e69b0f"/>
  <rect x="8" y="18" width="1" height="1" fill="#e49a13"/>
  <rect x="9" y="18" width="1" height="1" fill="#e39814"/>
  <rect x="10" y="18" width="1" height="1" fill="#e39912"/>
  <rect x="11" y="18" width="1" height="1" fill="#e59c11"/>
  <rect x="12" y="18" width="1" height="1" fill="#e69e0c"/>
  <rect x="13" y="18" width="1" height="1" fill="#e69f0a"/>
  <rect x="14" y="18" width="1" height="1" fill="#e49d05"/>
  <rect x="15" y="18" width="1" height="1" fill="#e39c04"/>
  <rect x="16" y="18" width="1" height="1" fill="#e39b06"/>
  <rect x="17" y="18" width="1" height="1" fill="#e49a06"/>
  <rect x="18" y="18" width="1" height="1" fill="#e49a08"/>
  <rect x="19" y="18" width="1" height="1" fill="#e49a08e7"/>
  <rect x="0" y="19" width="1" height="1" fill="#e79a0b4a"/>
  <rect x="1" y="19" width="1" height="1" fill="#e79a0be7"/>
  <rect x="2" y="19" width="4" height="1" fill="#e79a0b"/>
  <rect x="6" y="19" width="3" height="1" fill="#e59b0b"/>
  <rect x="9" y="19" width="1" height="1" fill="#df9506"/>
  <rect x="10" y="19" width="1" height="1" fill="#de9604"/>
  <rect x="11" y="19" width="1" height="1" fill="#e49c09"/>
  <rect x="12" y="19" width="1" height="1" fill="#de9602"/>
  <rect x="13" y="19" width="1" height="1" fill="#e09902"/>
  <rect x="14" y="19" width="1" height="1" fill="#e39c04"/>
  <rect x="15" y="19" width="1" height="1" fill="#e49d05"/>
  <rect x="16" y="19" width="2" height="1" fill="#e49a06"/>
  <rect x="18" y="19" width="1" height="1" fill="#e49a08e4"/>
  <rect x="19" y="19" width="1" height="1" fill="#e49a084a"/>
</svg>