<svg xmlns="http://www.w3.org/2000/svg" width="20" height="20" viewBox="0 0 20 20" shape-rendering="crispEdges">
  <rect x="6" y="0" width="1" height="1" fill="#97979758"/>
  <rect x="7" y="0" width="1" height="1" fill="#979797a7"/>
  <rect x="8" y="0" width="1" height="1" fill="#979797e0"/>
  <rect x="9" y="0" width="1" height="1" fill="#979797f9"/>
  <rect x="10" y="0" width="1" height="1" fill="#999999f8"/>
  <rect x="11" y="0" width="1" height="1" fill="#999999de"/>
  <rect x="12" y="0" width="1" height="1" fill="#9a9a9aa2"/>
  <rect x="13" y="0" width="1" height="1" fill="#9a9a9a53"/>
  <rect x="4" y="1" width="1" height="1" fill="#97979755"/>
  <rect x="5" y="1" width="1" height="1" fill="#979797df"/>
  <rect x="6" y="1" width="4" height="1" fill="#979797"/>
  <rect x="10" y="1" width="2" height="2" fill="#999999"/>
  <rect x="12" y="1" width="2" height="3" fill="#9a9a9a"/>
  <rect x="14" y="1" width="1" height="1" fill="#9c9c9cd9"/>
  <rect x="15" y="1" width="1" height="1" fill="#9c9c9c4c"/>
  <rect x="3" y="2" width="1" height="1" fill="#97979790"/>
  <rect x="4" y="2" width="6" height="1" fill="#979797"/>
  <rect x="14" y="2" width="1" height="1" fill="#9c9c9c"/>
  <rect x="15" y="2" width="1" height="1" fill="#9c9c9cfe"/>
  <rect x="16" y="2" width="1" height="1" fill="#9d9d9d84"/>
  <rect x="2" y="3" width="1" height="1" fill="#97979798"/>
  <rect x="3" y="3" width="5" height="1" fill="#979797"/>
  <rect x="8" y="3" width="1" height="1" fill="#969696"/>
  <rect x="9" y="3" width="3" height="1" fill="#999999"/>
  <rect x="14" y="3" width="2" height="1" fill="#9c9c9c"/>
  <rect x="16" y="3" width="1" height="1" fill="#9d9d9d"/>
  <rect x="17" y="3" width="1" height="1" fill="#9d9d9d87"/>
  <rect x="1" y="4" width="1" height="1" fill="#9797975b"/>
  <rect x="2" y="4" width="7" height="1" fill="#979797"/>
  <rect x="9" y="4" width="1" height="1" fill="#9a9a9a"/>
  <rect x="10" y="4" width="1" height="1" fill="#9c9c9c"/>
  <rect x="11" y="4" width="1" height="1" fill="#c4c4c4"/>
  <rect x="12" y="4" width="1" height="1" fill="#c1c1c1"/>
  <rect x="13" y="4" width="1" height="1" fill="#a1a1a1"/>
  <rect x="14" y="4" width="1" height="1" fill="#939393"/>
  <rect x="15" y="4" width="1" height="1" fill="#a0a0a0"/>
  <rect x="16" y="4" width="1" height="1" fill="#999999"/>
  <rect x="17" y="4" width="1" height="1" fill="#959595"/>
  <rect x="18" y="4" width="1" height="1" fill="#9b9b9b4a"/>
  <rect x="1" y="5" width="1" height="1" fill="#979797e1"/>
  <rect x="2" y="5" width="6" height="1" fill="#979797"/>
  <rect x="8" y="5" width="1" height="1" fill="#9a9a9a"/>
  <rect x="9" y="5" width="1" height="1" fill="#9c9c9c"/>
  <rect x="10" y="5" width="1" height="1" fill="#969696"/>
  <rect x="11" y="5" width="1" height="1" fill="#dedede"/>
  <rect x="12" y="5" width="1" height="1" fill="#ececec"/>
  <rect x="13" y="5" width="1" height="1" fill="#bfbfbf"/>
  <rect x="14" y="5" width="1" height="1" fill="#a5a5a5"/>
  <rect x="15" y="5" width="1" height="1" fill="#afafaf"/>
  <rect x="16" y="5" width="1" height="1" fill="#dadada"/>
  <rect x="17" y="5" width="1" height="1" fill="#999999"/>
  <rect x="18" y="5" width="1" height="1" fill="#969696d6"/>
  <rect x="0" y="6" width="1" height="1" fill="#9797975d"/>
  <rect x="1" y="6" width="7" height="1" fill="#979797"/>
  <rect x="8" y="6" width="2" height="1" fill="#9b9b9b"/>
  <rect x="10" y="6" width="1" height="1" fill="#ababab"/>
  <rect x="11" y="6" width="1" height="2" fill="#f2f2f2"/>
  <rect x="12" y="6" width="1" height="1" fill="#ffffff"/>
  <rect x="13" y="6" width="1" height="1" fill="#fdfdfd"/>
  <rect x="14" y="6" width="1" height="1" fill="#fafafa"/>
  <rect x="15" y="6" width="1" height="1" fill="#ffffff"/>
  <rect x="16" y="6" width="1" height="1" fill="#dedede"/>
  <rect x="17" y="6" width="1" height="1" fill="#9b9b9b"/>
  <rect x="18" y="6" width="1" height="1" fill="#949494"/>
  <rect x="19" y="6" width="1" height="1" fill="#9999994d"/>
  <rect x="0" y="7" width="1" height="1" fill="#979797ac"/>
  <rect x="1" y="7" width="2" height="2" fill="#979797"/>
  <rect x="3" y="7" width="1" height="2" fill="#969696"/>
  <rect x="4" y="7" width="4" height="1" fill="#979797"/>
  <rect x="8" y="7" width="2" height="1" fill="#969696"/>
  <rect x="10" y="7" width="1" height="1" fill="#cecece"/>
  <rect x="12" y="7" width="1" height="1" fill="#cccccc"/>
  <rect x="13" y="7" width="1" height="1" fill="#e5e5e5"/>
  <rect x="14" y="7" width="1" height="1" fill="#eaeaea"/>
  <rect x="15" y="7" width="1" height="1" fill="#d7d7d7"/>
  <rect x="16" y="7" width="1" height="1" fill="#a5a5a5"/>
  <rect x="17" y="7" width="1" height="1" fill="#9a9a9a"/>
  <rect x="18" y="7" width="1" height="1" fill="#969696"/>
  <rect x="19" y="7" width="1" height="1" fill="#9999999d"/>
  <rect x="0" y="8" width="1" height="1" fill="#979797e7"/>
  <rect x="4" y="8" width="1" height="1" fill="#959595"/>
  <rect x="5" y="8" width="1" height="1" fill="#999999"/>
  <rect x="6" y="8" width="1" height="1" fill="#959595"/>
  <rect x="7" y="8" width="1" height="1" fill="#9b9b9b"/>
  <rect x="8" y="8" width="1" height="1" fill="#959595"/>
  <rect x="9" y="8" width="1" height="1" fill="#969696"/>
  <rect x="10" y="8" width="1" height="1" fill="#e9e9e9"/>
  <rect x="11" y="8" width="1" height="1" fill="#f0f0f0"/>
  <rect x="12" y="8" width="2" height="3" fill="#9b9b9b"/>
  <rect x="14" y="8" width="2" height="3" fill="#9a9a9a"/>
  <rect x="16" y="8" width="2" height="1" fill="#999999"/>
  <rect x="18" y="8" width="1" height="1" fill="#979797"/>
  <rect x="19" y="8" width="1" height="1" fill="#999999d7"/>
  <rect x="0" y="9" width="4" height="1" fill="#979797"/>
  <rect x="4" y="9" width="1" height="1" fill="#9c9c9c"/>
  <rect x="5" y="9" width="1" height="1" fill="#b8b8b8"/>
  <rect x="6" y="9" width="1" height="1" fill="#e5e5e5"/>
  <rect x="7" y="9" width="1" height="1" fill="#dedede"/>
  <rect x="8" y="9" width="1" height="1" fill="#b1b1b1"/>
  <rect x="9" y="9" width="1" height="1" fill="#b4b4b4"/>
  <rect x="10" y="9" width="1" height="2" fill="#ffffff"/>
  <rect x="11" y="9" width="1" height="1" fill="#dbdbdb"/>
  <rect x="16" y="9" width="3" height="2" fill="#999999"/>
  <rect x="19" y="9" width="1" height="1" fill="#999999f0"/>
  <rect x="0" y="10" width="1" height="1" fill="#979797f9"/>
  <rect x="1" y="10" width="3" height="1" fill="#979797"/>
  <rect x="4" y="10" width="1" height="1" fill="#cfcfcf"/>
  <rect x="5" y="10" width="1" height="1" fill="#f8f8f8"/>
  <rect x="6" y="10" width="1" height="1" fill="#fafafa"/>
  <rect x="7" y="10" width="2" height="1" fill="#ffffff"/>
  <rect x="9" y="10" width="1" height="1" fill="#f5f5f5"/>
  <rect x="11" y="10" width="1" height="1" fill="#b8b8b8"/>
  <rect x="19" y="10" width="1" height="1" fill="#999999e9"/>
  <rect x="0" y="11" width="1" height="1" fill="#979797e0"/>
  <rect x="1" y="11" width="1" height="1" fill="#999999"/>
  <rect x="2" y="11" width="2" height="1" fill="#979797"/>
  <rect x="4" y="11" width="1" height="1" fill="#f6f6f6"/>
  <rect x="5" y="11" width="1" height="1" fill="#f7f7f7"/>
  <rect x="6" y="11" width="2" height="1" fill="#ffffff"/>
  <rect x="8" y="11" width="1" height="1" fill="#fefefe"/>
  <rect x="9" y="11" width="2" height="1" fill="#f7f7f7"/>
  <rect x="11" y="11" width="1" height="1" fill="#a4a4a4"/>
  <rect x="12" y="11" width="2" height="1" fill="#9a9a9a"/>
  <rect x="14" y="11" width="5" height="1" fill="#999999"/>
  <rect x="19" y="11" width="1" height="1" fill="#999999d0"/>
  <rect x="0" y="12" width="1" height="1" fill="#939393ad"/>
  <rect x="1" y="12" width="1" height="1" fill="#9b9b9b"/>
  <rect x="2" y="12" width="1" height="1" fill="#9a9a9a"/>
  <rect x="3" y="12" width="1" height="1" fill="#8c8c8c"/>
  <rect x="4" y="12" width="1" height="1" fill="#f8f8f8"/>
  <rect x="5" y="12" width="1" height="2" fill="#ffffff"/>
  <rect x="6" y="12" width="1" height="1" fill="#f8f8f8"/>
  <rect x="7" y="12" width="1" height="1" fill="#fdfdfd"/>
  <rect x="8" y="12" width="1" height="1" fill="#fcfbfc"/>
  <rect x="9" y="12" width="1" height="1" fill="#ffffff"/>
  <rect x="10" y="12" width="1" height="1" fill="#dcdcdc"/>
  <rect x="11" y="12" width="1" height="1" fill="#8d8d8d"/>
  <rect x="12" y="12" width="4" height="1" fill="#999999"/>
  <rect x="16" y="12" width="3" height="1" fill="#979797"/>
  <rect x="19" y="12" width="1" height="1" fill="#9797979d"/>
  <rect x="0" y="13" width="1" height="1" fill="#9393935e"/>
  <rect x="1" y="13" width="1" height="1" fill="#9a9a9a"/>
  <rect x="2" y="13" width="1" height="1" fill="#9c9c9c"/>
  <rect x="3" y="13" width="1" height="1" fill="#9a9a9a"/>
  <rect x="4" y="13" width="1" height="1" fill="#f2f2f2"/>
  <rect x="6" y="13" width="1" height="1" fill="#fcfbfc"/>
  <rect x="7" y="13" width="1" height="1" fill="#fafafa"/>
  <rect x="8" y="13" width="1" height="1" fill="#ffffff"/>
  <rect x="9" y="13" width="1" height="1" fill="#fcfbfc"/>
  <rect x="10" y="13" width="1" height="1" fill="#b9b9b9"/>
  <rect x="11" y="13" width="1" height="1" fill="#929292"/>
  <rect x="12" y="13" width="7" height="1" fill="#979797"/>
  <rect x="19" y="13" width="1" height="1" fill="#9797974e"/>
  <rect x="1" y="14" width="1" height="1" fill="#9c9c9ce1"/>
  <rect x="2" y="14" width="1" height="1" fill="#9a9a9a"/>
  <rect x="3" y="14" width="1" height="1" fill="#9d9d9d"/>
  <rect x="4" y="14" width="1" height="1" fill="#d9d9d9"/>
  <rect x="5" y="14" width="1" height="1" fill="#fcfbfc"/>
  <rect x="6" y="14" width="2" height="1" fill="#ffffff"/>
  <rect x="8" y="14" width="1" height="1" fill="#fdfdfd"/>
  <rect x="9" y="14" width="1" height="1" fill="#dbdbdb"/>
  <rect x="10" y="14" width="1" height="2" fill="#9b9b9b"/>
  <rect x="11" y="14" width="1" height="1" fill="#959595"/>
  <rect x="12" y="14" width="6" height="1" fill="#979797"/>
  <rect x="18" y="14" width="1" height="1" fill="#979797d6"/>
  <rect x="1" y="15" width="1" height="1" fill="#a3a3a35b"/>
  <rect x="2" y="15" width="1" height="1" fill="#939393"/>
  <rect x="3" y="15" width="1" height="1" fill="#949494"/>
  <rect x="4" y="15" width="1" height="1" fill="#9a9a9a"/>
  <rect x="5" y="15" width="1" height="1" fill="#d2d2d2"/>
  <rect x="6" y="15" width="1" height="1" fill="#f0f0f0"/>
  <rect x="7" y="15" width="1" height="1" fill="#f7f7f7"/>
  <rect x="8" y="15" width="1" height="1" fill="#d4d4d4"/>
  <rect x="9" y="15" width="1" height="1" fill="#a3a3a3"/>
  <rect x="11" y="15" width="7" height="1" fill="#979797"/>
  <rect x="18" y="15" width="1" height="1" fill="#9797974c"/>
  <rect x="2" y="16" width="1" height="1" fill="#9999999a"/>
  <rect x="3" y="16" width="14" height="1" fill="#999999"/>
  <rect x="17" y="16" width="1" height="1" fill="#9999998a"/>
  <rect x="3" y="17" width="1" height="1" fill="#9999999c"/>
  <rect x="4" y="17" width="12" height="1" fill="#999999"/>
  <rect x="16" y="17" width="1" height="1" fill="#9999998e"/>
  <rect x="4" y="18" width="1" height="1" fill="#99999956"/>
  <rect x="5" y="18" width="1" height="1" fill="#999999e0"/>
  <rect x="6" y="18" width="8" height="1" fill="#999999"/>
  <rect x="14" y="18" width="1" height="1" fill="#999999da"/>
  <rect x="15" y="18" width="1" height="1" fill="#9999994d"/>
  <rect x="6" y="19" width="1" height="1" fill="#9999995f"/>
  <rect x="7" y="19" width="1" height="1" fill="#999999ae"/>
  <rect x="8" y="19" width="1" height="1" fill="#999999e1"/>
  <rect x="9" y="19" width="1" height="1" fill="#999999fb"/>
  <rect x="10" y="19" width="1" height="1" fill="#999999fa"/>
  <rect x="11" y="19" width="1" height="1" fill="#999999df"/>
  <rect x="12" y="19" width="1" height="1" fill="#999999aa"/>
  <rect x="13" y="19" width="1" height="1" fill="#99999959"/>
</svg>