<svg xmlns="http://www.w3.org/2000/svg" width="16" height="16" viewBox="0 0 16 16" shape-rendering="crispEdges">
  <rect x="3" y="2" width="1" height="1" fill="#ffffff49"/>
  <rect x="4" y="2" width="1" height="1" fill="#fffffff0"/>
  <rect x="5" y="2" width="1" height="1" fill="#ffffffcd"/>
  <rect x="10" y="2" width="1" height="1" fill="#ffffffc7"/>
  <rect x="11" y="2" width="1" height="1" fill="#fffffff2"/>
  <rect x="12" y="2" width="1" height="1" fill="#ffffff4d"/>
  <rect x="2" y="3" width="1" height="1" fill="#ffffff70"/>
  <rect x="3" y="3" width="1" height="1" fill="#fffffffc"/>
  <rect x="4" y="3" width="1" height="1" fill="#ffffff"/>
  <rect x="5" y="3" width="1" height="1" fill="#fffffffa"/>
  <rect x="6" y="3" width="1" height="1" fill="#ffffff3b"/>
  <rect x="9" y="3" width="1" height="1" fill="#ffffff38"/>
  <rect x="10" y="3" width="1" height="1" fill="#fffffff8"/>
  <rect x="11" y="3" width="1" height="1" fill="#ffffff"/>
  <rect x="12" y="3" width="1" height="1" fill="#fffffffc"/>
  <rect x="13" y="3" width="1" height="1" fill="#ffffff75"/>
  <rect x="1" y="4" width="1" height="1" fill="#ffffff9b"/>
  <rect x="2" y="4" width="5" height="1" fill="#ffffff"/>
  <rect x="7" y="4" width="1" height="1" fill="#ffffffe3"/>
  <rect x="8" y="4" width="1" height="1" fill="#ffffffe2"/>
  <rect x="9" y="4" width="1" height="1" fill="#fffffffe"/>
  <rect x="10" y="4" width="4" height="1" fill="#ffffff"/>
  <rect x="14" y="4" width="1" height="1" fill="#ffffffa0"/>
  <rect x="0" y="5" width="1" height="1" fill="#ffffffb1"/>
  <rect x="1" y="5" width="14" height="1" fill="#ffffff"/>
  <rect x="15" y="5" width="1" height="1" fill="#ffffffb9"/>
  <rect x="0" y="6" width="1" height="1" fill="#ffffff42"/>
  <rect x="1" y="6" width="1" height="1" fill="#fffffffa"/>
  <rect x="2" y="6" width="1" height="1" fill="#ffffff"/>
  <rect x="3" y="6" width="1" height="1" fill="#ffffffbd"/>
  <rect x="4" y="6" width="8" height="4" fill="#ffffff"/>
  <rect x="12" y="6" width="1" height="1" fill="#ffffffc3"/>
  <rect x="13" y="6" width="1" height="1" fill="#ffffff"/>
  <rect x="14" y="6" width="1" height="1" fill="#fffffffc"/>
  <rect x="15" y="6" width="1" height="1" fill="#ffffff4e"/>
  <rect x="1" y="7" width="1" height="1" fill="#ffffff69"/>
  <rect x="2" y="7" width="1" height="1" fill="#ffffff83"/>
  <rect x="13" y="7" width="1" height="1" fill="#ffffff9f"/>
  <rect x="14" y="7" width="1" height="1" fill="#ffffff69"/>
  <rect x="4" y="11" width="1" height="1" fill="#ffffffe6"/>
  <rect x="5" y="11" width="6" height="1" fill="#ffffff"/>
  <rect x="11" y="11" width="1" height="1" fill="#ffffffea"/>
  <rect x="4" y="12" width="1" height="1" fill="#ffffff65"/>
  <rect x="5" y="12" width="1" height="1" fill="#fffffff6"/>
  <rect x="6" y="12" width="4" height="1" fill="#ffffff"/>
  <rect x="10" y="12" width="1" height="1" fill="#fffffff7"/>
  <rect x="11" y="12" width="1" height="1" fill="#ffffff74"/>
</svg>