<svg xmlns="http://www.w3.org/2000/svg" width="64" height="16" viewBox="0 0 64 16" shape-rendering="crispEdges">
  <rect x="4" y="2" width="1" height="1" fill="#a3a3a375"/>
  <rect x="5" y="2" width="1" height="1" fill="#a3a3a3f4"/>
  <rect x="6" y="2" width="2" height="1" fill="#a3a3a3"/>
  <rect x="8" y="2" width="1" height="1" fill="#a3a3a3f7"/>
  <rect x="9" y="2" width="1" height="1" fill="#a3a3a38b"/>
  <rect x="20" y="2" width="1" height="1" fill="#80808075"/>
  <rect x="21" y="2" width="1" height="1" fill="#808080f4"/>
  <rect x="22" y="2" width="2" height="1" fill="#808080"/>
  <rect x="24" y="2" width="1" height="1" fill="#808080f7"/>
  <rect x="25" y="2" width="1" height="1" fill="#8080808b"/>
  <rect x="52" y="2" width="1" height="1" fill="#a3a3a375"/>
  <rect x="53" y="2" width="1" height="1" fill="#a3a3a3f4"/>
  <rect x="54" y="2" width="2" height="1" fill="#a3a3a3"/>
  <rect x="56" y="2" width="1" height="1" fill="#a3a3a3f7"/>
  <rect x="57" y="2" width="1" height="1" fill="#a3a3a38b"/>
  <rect x="3" y="3" width="1" height="1" fill="#a3a3a3ad"/>
  <rect x="4" y="3" width="1" height="1" fill="#a3a3a3"/>
  <rect x="5" y="3" width="1" height="1" fill="#a3a3a3e7"/>
  <rect x="6" y="3" width="1" height="1" fill="#a3a3a3a0"/>
  <rect x="7" y="3" width="1" height="1" fill="#a3a3a39e"/>
  <rect x="8" y="3" width="1" height="1" fill="#a3a3a3dd"/>
  <rect x="9" y="3" width="1" height="1" fill="#a3a3a3"/>
  <rect x="10" y="3" width="1" height="1" fill="#a3a3a3be"/>
  <rect x="11" y="3" width="1" height="1" fill="#a3a3a30e"/>
  <rect x="19" y="3" width="1" height="1" fill="#808080ad"/>
  <rect x="20" y="3" width="1" height="1" fill="#808080"/>
  <rect x="21" y="3" width="1" height="1" fill="#808080e7"/>
  <rect x="22" y="3" width="1" height="1" fill="#808080a0"/>
  <rect x="23" y="3" width="1" height="1" fill="#8080809e"/>
  <rect x="24" y="3" width="1" height="1" fill="#808080dd"/>
  <rect x="25" y="3" width="1" height="1" fill="#808080"/>
  <rect x="26" y="3" width="1" height="1" fill="#808080be"/>
  <rect x="27" y="3" width="1" height="1" fill="#8080800e"/>
  <rect x="37" y="3" width="1" height="1" fill="#a3a3a375"/>
  <rect x="38" y="3" width="1" height="1" fill="#a3a3a3f4"/>
  <rect x="39" y="3" width="2" height="1" fill="#a3a3a3"/>
  <rect x="41" y="3" width="1" height="1" fill="#a3a3a3f7"/>
  <rect x="42" y="3" width="1" height="1" fill="#a3a3a38b"/>
  <rect x="51" y="3" width="1" height="1" fill="#a3a3a3ad"/>
  <rect x="52" y="3" width="1" height="1" fill="#a3a3a3"/>
  <rect x="53" y="3" width="1" height="1" fill="#a3a3a3e7"/>
  <rect x="54" y="3" width="1" height="1" fill="#a3a3a3a0"/>
  <rect x="55" y="3" width="1" height="1" fill="#a3a3a39e"/>
  <rect x="56" y="3" width="1" height="1" fill="#a3a3a3dd"/>
  <rect x="57" y="3" width="1" height="1" fill="#a3a3a3"/>
  <rect x="58" y="3" width="1" height="1" fill="#a3a3a3be"/>
  <rect x="59" y="3" width="1" height="1" fill="#a3a3a30e"/>
  <rect x="2" y="4" width="1" height="1" fill="#a3a3a374"/>
  <rect x="3" y="4" width="1" height="1" fill="#a3a3a3"/>
  <rect x="4" y="4" width="1" height="1" fill="#a3a3a3c7"/>
  <rect x="5" y="4" width="1" height="1" fill="#a3a3a313"/>
  <rect x="8" y="4" width="1" height="1" fill="#a3a3a30f"/>
  <rect x="9" y="4" width="1" height="1" fill="#a3a3a3bb"/>
  <rect x="10" y="4" width="1" height="1" fill="#a3a3a3"/>
  <rect x="11" y="4" width="1" height="1" fill="#a3a3a38c"/>
  <rect x="18" y="4" width="1" height="1" fill="#80808074"/>
  <rect x="19" y="4" width="1" height="1" fill="#808080"/>
  <rect x="20" y="4" width="1" height="1" fill="#808080c7"/>
  <rect x="21" y="4" width="1" height="1" fill="#80808013"/>
  <rect x="24" y="4" width="1" height="1" fill="#8080800f"/>
  <rect x="25" y="4" width="1" height="1" fill="#808080bb"/>
  <rect x="26" y="4" width="1" height="1" fill="#808080"/>
  <rect x="27" y="4" width="1" height="1" fill="#8080808c"/>
  <rect x="36" y="4" width="1" height="1" fill="#a3a3a3ad"/>
  <rect x="37" y="4" width="1" height="1" fill="#a3a3a3"/>
  <rect x="38" y="4" width="1" height="1" fill="#a3a3a3e7"/>
  <rect x="39" y="4" width="1" height="1" fill="#a3a3a3a0"/>
  <rect x="40" y="4" width="1" height="1" fill="#a3a3a39e"/>
  <rect x="41" y="4" width="1" height="1" fill="#a3a3a3dd"/>
  <rect x="42" y="4" width="1" height="1" fill="#a3a3a3"/>
  <rect x="43" y="4" width="1" height="1" fill="#a3a3a3be"/>
  <rect x="44" y="4" width="1" height="1" fill="#a3a3a30e"/>
  <rect x="50" y="4" width="1" height="1" fill="#a3a3a374"/>
  <rect x="51" y="4" width="1" height="1" fill="#a3a3a3"/>
  <rect x="52" y="4" width="1" height="1" fill="#a3a3a3c7"/>
  <rect x="53" y="4" width="1" height="1" fill="#a3a3a313"/>
  <rect x="56" y="4" width="1" height="1" fill="#a3a3a30f"/>
  <rect x="57" y="4" width="1" height="1" fill="#a3a3a3bb"/>
  <rect x="58" y="4" width="1" height="1" fill="#a3a3a3"/>
  <rect x="59" y="4" width="1" height="1" fill="#a3a3a38c"/>
  <rect x="2" y="5" width="1" height="1" fill="#a3a3a3f4"/>
  <rect x="3" y="5" width="1" height="1" fill="#a3a3a3e7"/>
  <rect x="4" y="5" width="1" height="1" fill="#a3a3a314"/>
  <rect x="9" y="5" width="1" height="1" fill="#a3a3a312"/>
  <rect x="10" y="5" width="1" height="1" fill="#a3a3a3d6"/>
  <rect x="11" y="5" width="1" height="1" fill="#a3a3a3f5"/>
  <rect x="12" y="5" width="1" height="1" fill="#a3a3a318"/>
  <rect x="18" y="5" width="1" height="1" fill="#808080f4"/>
  <rect x="19" y="5" width="1" height="1" fill="#808080e7"/>
  <rect x="20" y="5" width="1" height="1" fill="#80808014"/>
  <rect x="25" y="5" width="1" height="1" fill="#80808012"/>
  <rect x="26" y="5" width="1" height="1" fill="#808080d6"/>
  <rect x="27" y="5" width="1" height="1" fill="#808080f5"/>
  <rect x="28" y="5" width="1" height="1" fill="#80808018"/>
  <rect x="35" y="5" width="1" height="1" fill="#a3a3a374"/>
  <rect x="36" y="5" width="1" height="1" fill="#a3a3a3"/>
  <rect x="37" y="5" width="1" height="1" fill="#a3a3a3c7"/>
  <rect x="38" y="5" width="1" height="1" fill="#a3a3a313"/>
  <rect x="41" y="5" width="1" height="1" fill="#a3a3a30f"/>
  <rect x="42" y="5" width="1" height="1" fill="#a3a3a3bb"/>
  <rect x="43" y="5" width="1" height="1" fill="#a3a3a3"/>
  <rect x="44" y="5" width="1" height="1" fill="#a3a3a38c"/>
  <rect x="50" y="5" width="1" height="1" fill="#a3a3a3f4"/>
  <rect x="51" y="5" width="1" height="1" fill="#a3a3a3e7"/>
  <rect x="52" y="5" width="1" height="1" fill="#a3a3a314"/>
  <rect x="57" y="5" width="1" height="1" fill="#a3a3a312"/>
  <rect x="58" y="5" width="1" height="1" fill="#a3a3a3d6"/>
  <rect x="59" y="5" width="1" height="1" fill="#a3a3a3f5"/>
  <rect x="60" y="5" width="1" height="1" fill="#a3a3a318"/>
  <rect x="2" y="6" width="1" height="3" fill="#a3a3a3"/>
  <rect x="3" y="6" width="1" height="1" fill="#a3a3a39f"/>
  <rect x="10" y="6" width="1" height="1" fill="#a3a3a38a"/>
  <rect x="11" y="6" width="1" height="3" fill="#a3a3a3"/>
  <rect x="12" y="6" width="1" height="2" fill="#a3a3a34a"/>
  <rect x="18" y="6" width="1" height="3" fill="#808080"/>
  <rect x="19" y="6" width="1" height="1" fill="#8080809f"/>
  <rect x="26" y="6" width="1" height="1" fill="#8080808a"/>
  <rect x="27" y="6" width="1" height="3" fill="#808080"/>
  <rect x="28" y="6" width="1" height="2" fill="#8080804a"/>
  <rect x="35" y="6" width="1" height="1" fill="#a3a3a3f4"/>
  <rect x="36" y="6" width="1" height="1" fill="#a3a3a3e7"/>
  <rect x="37" y="6" width="1" height="1" fill="#a3a3a314"/>
  <rect x="42" y="6" width="1" height="1" fill="#a3a3a312"/>
  <rect x="43" y="6" width="1" height="1" fill="#a3a3a3d6"/>
  <rect x="44" y="6" width="1" height="1" fill="#a3a3a3f5"/>
  <rect x="45" y="6" width="1" height="1" fill="#a3a3a318"/>
  <rect x="50" y="6" width="1" height="3" fill="#a3a3a3"/>
  <rect x="51" y="6" width="1" height="1" fill="#a3a3a39f"/>
  <rect x="58" y="6" width="1" height="1" fill="#a3a3a38a"/>
  <rect x="59" y="6" width="1" height="3" fill="#a3a3a3"/>
  <rect x="60" y="6" width="1" height="2" fill="#a3a3a34a"/>
  <rect x="3" y="7" width="1" height="1" fill="#a3a3a391"/>
  <rect x="10" y="7" width="1" height="1" fill="#a3a3a382"/>
  <rect x="19" y="7" width="1" height="1" fill="#80808091"/>
  <rect x="26" y="7" width="1" height="1" fill="#80808082"/>
  <rect x="35" y="7" width="1" height="3" fill="#a3a3a3"/>
  <rect x="36" y="7" width="1" height="1" fill="#a3a3a39f"/>
  <rect x="43" y="7" width="1" height="1" fill="#a3a3a38a"/>
  <rect x="44" y="7" width="1" height="3" fill="#a3a3a3"/>
  <rect x="45" y="7" width="1" height="2" fill="#a3a3a34a"/>
  <rect x="51" y="7" width="1" height="1" fill="#a3a3a391"/>
  <rect x="58" y="7" width="1" height="1" fill="#a3a3a382"/>
  <rect x="3" y="8" width="1" height="1" fill="#a3a3a3cd"/>
  <rect x="10" y="8" width="1" height="1" fill="#a3a3a3c7"/>
  <rect x="12" y="8" width="1" height="1" fill="#a3a3a324"/>
  <rect x="19" y="8" width="1" height="1" fill="#808080cd"/>
  <rect x="26" y="8" width="1" height="1" fill="#808080c7"/>
  <rect x="28" y="8" width="1" height="1" fill="#80808024"/>
  <rect x="36" y="8" width="1" height="1" fill="#a3a3a391"/>
  <rect x="43" y="8" width="1" height="1" fill="#a3a3a382"/>
  <rect x="51" y="8" width="1" height="1" fill="#a3a3a3cd"/>
  <rect x="58" y="8" width="1" height="1" fill="#a3a3a3c7"/>
  <rect x="60" y="8" width="1" height="1" fill="#a3a3a324"/>
  <rect x="2" y="9" width="1" height="1" fill="#a3a3a3b5"/>
  <rect x="3" y="9" width="1" height="1" fill="#a3a3a3fd"/>
  <rect x="4" y="9" width="1" height="1" fill="#a3a3a398"/>
  <rect x="9" y="9" width="1" height="1" fill="#a3a3a381"/>
  <rect x="10" y="9" width="1" height="1" fill="#a3a3a3fd"/>
  <rect x="11" y="9" width="1" height="1" fill="#a3a3a3c6"/>
  <rect x="18" y="9" width="1" height="1" fill="#808080b5"/>
  <rect x="19" y="9" width="1" height="1" fill="#808080fd"/>
  <rect x="20" y="9" width="1" height="1" fill="#80808098"/>
  <rect x="25" y="9" width="1" height="1" fill="#80808081"/>
  <rect x="26" y="9" width="1" height="1" fill="#808080fd"/>
  <rect x="27" y="9" width="1" height="1" fill="#808080c6"/>
  <rect x="36" y="9" width="1" height="1" fill="#a3a3a3cd"/>
  <rect x="43" y="9" width="1" height="1" fill="#a3a3a3c7"/>
  <rect x="45" y="9" width="1" height="1" fill="#a3a3a324"/>
  <rect x="50" y="9" width="1" height="1" fill="#a3a3a3b5"/>
  <rect x="51" y="9" width="1" height="1" fill="#a3a3a3fd"/>
  <rect x="52" y="9" width="1" height="1" fill="#a3a3a398"/>
  <rect x="57" y="9" width="1" height="1" fill="#a3a3a381"/>
  <rect x="58" y="9" width="1" height="1" fill="#a3a3a3fd"/>
  <rect x="59" y="9" width="1" height="1" fill="#a3a3a3c6"/>
  <rect x="2" y="10" width="1" height="1" fill="#a3a3a311"/>
  <rect x="3" y="10" width="1" height="1" fill="#a3a3a3d9"/>
  <rect x="4" y="10" width="1" height="1" fill="#a3a3a3fc"/>
  <rect x="5" y="10" width="1" height="1" fill="#a3a3a3ac"/>
  <rect x="6" y="10" width="1" height="1" fill="#a3a3a355"/>
  <rect x="7" y="10" width="1" height="1" fill="#a3a3a353"/>
  <rect x="8" y="10" width="1" height="1" fill="#a3a3a3a2"/>
  <rect x="9" y="10" width="1" height="1" fill="#a3a3a3f9"/>
  <rect x="10" y="10" width="2" height="1" fill="#a3a3a3"/>
  <rect x="12" y="10" width="1" height="1" fill="#a3a3a365"/>
  <rect x="18" y="10" width="1" height="1" fill="#80808011"/>
  <rect x="19" y="10" width="1" height="1" fill="#808080d9"/>
  <rect x="20" y="10" width="1" height="1" fill="#808080fc"/>
  <rect x="21" y="10" width="1" height="1" fill="#808080ac"/>
  <rect x="22" y="10" width="1" height="1" fill="#80808055"/>
  <rect x="23" y="10" width="1" height="1" fill="#80808053"/>
  <rect x="24" y="10" width="1" height="1" fill="#808080a2"/>
  <rect x="25" y="10" width="1" height="1" fill="#808080f9"/>
  <rect x="26" y="10" width="2" height="1" fill="#808080"/>
  <rect x="28" y="10" width="1" height="1" fill="#80808065"/>
  <rect x="35" y="10" width="1" height="1" fill="#a3a3a3b5"/>
  <rect x="36" y="10" width="1" height="1" fill="#a3a3a3fd"/>
  <rect x="37" y="10" width="1" height="1" fill="#a3a3a398"/>
  <rect x="42" y="10" width="1" height="1" fill="#a3a3a381"/>
  <rect x="43" y="10" width="1" height="1" fill="#a3a3a3fd"/>
  <rect x="44" y="10" width="1" height="1" fill="#a3a3a3c6"/>
  <rect x="50" y="10" width="1" height="1" fill="#a3a3a311"/>
  <rect x="51" y="10" width="1" height="1" fill="#a3a3a3d9"/>
  <rect x="52" y="10" width="1" height="1" fill="#a3a3a3fc"/>
  <rect x="53" y="10" width="1" height="1" fill="#a3a3a3ac"/>
  <rect x="54" y="10" width="1" height="1" fill="#a3a3a355"/>
  <rect x="55" y="10" width="1" height="1" fill="#a3a3a353"/>
  <rect x="56" y="10" width="1" height="1" fill="#a3a3a3a2"/>
  <rect x="57" y="10" width="1" height="1" fill="#a3a3a3f9"/>
  <rect x="58" y="10" width="2" height="1" fill="#a3a3a3"/>
  <rect x="60" y="10" width="1" height="1" fill="#a3a3a365"/>
  <rect x="3" y="11" width="1" height="1" fill="#a3a3a32b"/>
  <rect x="4" y="11" width="1" height="1" fill="#a3a3a3da"/>
  <rect x="5" y="11" width="1" height="1" fill="#a3a3a3"/>
  <rect x="6" y="11" width="1" height="1" fill="#a3a3a3fe"/>
  <rect x="7" y="11" width="1" height="1" fill="#a3a3a3fd"/>
  <rect x="8" y="11" width="1" height="1" fill="#a3a3a3"/>
  <rect x="9" y="11" width="1" height="1" fill="#a3a3a3dd"/>
  <rect x="10" y="11" width="1" height="1" fill="#a3a3a3f6"/>
  <rect x="11" y="11" width="1" height="1" fill="#a3a3a3"/>
  <rect x="12" y="11" width="1" height="1" fill="#a3a3a3f7"/>
  <rect x="13" y="11" width="1" height="1" fill="#a3a3a35b"/>
  <rect x="19" y="11" width="1" height="1" fill="#8080802b"/>
  <rect x="20" y="11" width="1" height="1" fill="#808080da"/>
  <rect x="21" y="11" width="1" height="1" fill="#808080"/>
  <rect x="22" y="11" width="1" height="1" fill="#808080fe"/>
  <rect x="23" y="11" width="1" height="1" fill="#808080fd"/>
  <rect x="24" y="11" width="1" height="1" fill="#808080"/>
  <rect x="25" y="11" width="1" height="1" fill="#808080dd"/>
  <rect x="26" y="11" width="1" height="1" fill="#808080f6"/>
  <rect x="27" y="11" width="1" height="1" fill="#808080"/>
  <rect x="28" y="11" width="1" height="1" fill="#808080f7"/>
  <rect x="29" y="11" width="1" height="1" fill="#8080805b"/>
  <rect x="35" y="11" width="1" height="1" fill="#a3a3a311"/>
  <rect x="36" y="11" width="1" height="1" fill="#a3a3a3d9"/>
  <rect x="37" y="11" width="1" height="1" fill="#a3a3a3fc"/>
  <rect x="38" y="11" width="1" height="1" fill="#a3a3a3ac"/>
  <rect x="39" y="11" width="1" height="1" fill="#a3a3a355"/>
  <rect x="40" y="11" width="1" height="1" fill="#a3a3a353"/>
  <rect x="41" y="11" width="1" height="1" fill="#a3a3a3a2"/>
  <rect x="42" y="11" width="1" height="1" fill="#a3a3a3f9"/>
  <rect x="43" y="11" width="2" height="1" fill="#a3a3a3"/>
  <rect x="45" y="11" width="1" height="1" fill="#a3a3a365"/>
  <rect x="51" y="11" width="1" height="1" fill="#a3a3a32b"/>
  <rect x="52" y="11" width="1" height="1" fill="#a3a3a3da"/>
  <rect x="53" y="11" width="1" height="1" fill="#a3a3a3"/>
  <rect x="54" y="11" width="1" height="1" fill="#a3a3a3fe"/>
  <rect x="55" y="11" width="1" height="1" fill="#a3a3a3fd"/>
  <rect x="56" y="11" width="1" height="1" fill="#a3a3a3"/>
  <rect x="57" y="11" width="1" height="1" fill="#a3a3a3dd"/>
  <rect x="58" y="11" width="1" height="1" fill="#a3a3a3f6"/>
  <rect x="59" y="11" width="1" height="1" fill="#a3a3a3"/>
  <rect x="60" y="11" width="1" height="1" fill="#a3a3a3f7"/>
  <rect x="61" y="11" width="1" height="1" fill="#a3a3a35b"/>
  <rect x="5" y="12" width="1" height="1" fill="#a3a3a34c"/>
  <rect x="6" y="12" width="2" height="1" fill="#a3a3a36e"/>
  <rect x="8" y="12" width="1" height="1" fill="#a3a3a350"/>
  <rect x="10" y="12" width="1" height="1" fill="#a3a3a359"/>
  <rect x="11" y="12" width="1" height="1" fill="#a3a3a3f7"/>
  <rect x="12" y="12" width="2" height="2" fill="#a3a3a3"/>
  <rect x="14" y="12" width="1" height="1" fill="#a3a3a35b"/>
  <rect x="21" y="12" width="1" height="1" fill="#8080804c"/>
  <rect x="22" y="12" width="2" height="1" fill="#8080806e"/>
  <rect x="24" y="12" width="1" height="1" fill="#80808050"/>
  <rect x="26" y="12" width="1" height="1" fill="#80808059"/>
  <rect x="27" y="12" width="1" height="1" fill="#808080f7"/>
  <rect x="28" y="12" width="2" height="2" fill="#808080"/>
  <rect x="30" y="12" width="1" height="1" fill="#8080805b"/>
  <rect x="36" y="12" width="1" height="1" fill="#a3a3a32b"/>
  <rect x="37" y="12" width="1" height="1" fill="#a3a3a3da"/>
  <rect x="38" y="12" width="1" height="1" fill="#a3a3a3"/>
  <rect x="39" y="12" width="1" height="1" fill="#a3a3a3fe"/>
  <rect x="40" y="12" width="1" height="1" fill="#a3a3a3fd"/>
  <rect x="41" y="12" width="1" height="1" fill="#a3a3a3"/>
  <rect x="42" y="12" width="1" height="1" fill="#a3a3a3dd"/>
  <rect x="43" y="12" width="1" height="1" fill="#a3a3a3f6"/>
  <rect x="44" y="12" width="1" height="1" fill="#a3a3a3"/>
  <rect x="45" y="12" width="1" height="1" fill="#a3a3a3f7"/>
  <rect x="46" y="12" width="1" height="1" fill="#a3a3a35b"/>
  <rect x="53" y="12" width="1" height="1" fill="#a3a3a34c"/>
  <rect x="54" y="12" width="2" height="1" fill="#a3a3a36e"/>
  <rect x="56" y="12" width="1" height="1" fill="#a3a3a350"/>
  <rect x="58" y="12" width="1" height="1" fill="#a3a3a359"/>
  <rect x="59" y="12" width="1" height="1" fill="#a3a3a3f7"/>
  <rect x="60" y="12" width="2" height="2" fill="#a3a3a3"/>
  <rect x="62" y="12" width="1" height="1" fill="#a3a3a35b"/>
  <rect x="11" y="13" width="1" height="1" fill="#a3a3a35b"/>
  <rect x="14" y="13" width="1" height="1" fill="#a3a3a343"/>
  <rect x="27" y="13" width="1" height="1" fill="#8080805b"/>
  <rect x="30" y="13" width="1" height="1" fill="#80808043"/>
  <rect x="38" y="13" width="1" height="1" fill="#a3a3a34c"/>
  <rect x="39" y="13" width="2" height="1" fill="#a3a3a36e"/>
  <rect x="41" y="13" width="1" height="1" fill="#a3a3a350"/>
  <rect x="43" y="13" width="1" height="1" fill="#a3a3a359"/>
  <rect x="44" y="13" width="1" height="1" fill="#a3a3a3f7"/>
  <rect x="45" y="13" width="2" height="2" fill="#a3a3a3"/>
  <rect x="47" y="13" width="1" height="1" fill="#a3a3a35b"/>
  <rect x="59" y="13" width="1" height="1" fill="#a3a3a35b"/>
  <rect x="62" y="13" width="1" height="1" fill="#a3a3a343"/>
  <rect x="12" y="14" width="1" height="1" fill="#a3a3a35b"/>
  <rect x="13" y="14" width="1" height="1" fill="#a3a3a343"/>
  <rect x="28" y="14" width="1" height="1" fill="#8080805b"/>
  <rect x="29" y="14" width="1" height="1" fill="#80808043"/>
  <rect x="44" y="14" width="1" height="1" fill="#a3a3a35b"/>
  <rect x="47" y="14" width="1" height="1" fill="#a3a3a343"/>
  <rect x="60" y="14" width="1" height="1" fill="#a3a3a35b"/>
  <rect x="61" y="14" width="1" height="1" fill="#a3a3a343"/>
  <rect x="45" y="15" width="1" height="1" fill="#a3a3a35b"/>
  <rect x="46" y="15" width="1" height="1" fill="#a3a3a343"/>
</svg>