<svg xmlns="http://www.w3.org/2000/svg" width="16" height="16" viewBox="0 0 16 16" shape-rendering="crispEdges">
  <rect x="4" y="2" width="1" height="1" fill="#abadae6c"/>
  <rect x="5" y="2" width="2" height="1" fill="#abadaee5"/>
  <rect x="7" y="2" width="1" height="1" fill="#abadae6b"/>
  <rect x="10" y="2" width="1" height="1" fill="#aaacad27"/>
  <rect x="11" y="2" width="1" height="1" fill="#adafb1b0"/>
  <rect x="12" y="2" width="2" height="1" fill="#adafb1f4"/>
  <rect x="14" y="2" width="1" height="1" fill="#adafb1b0"/>
  <rect x="15" y="2" width="1" height="1" fill="#adafb123"/>
  <rect x="3" y="3" width="1" height="1" fill="#aaacad34"/>
  <rect x="4" y="3" width="4" height="1" fill="#abadae"/>
  <rect x="8" y="3" width="1" height="1" fill="#9fa1a33d"/>
  <rect x="10" y="3" width="1" height="1" fill="#adafb1db"/>
  <rect x="11" y="3" width="1" height="1" fill="#b3b5b6"/>
  <rect x="12" y="3" width="3" height="1" fill="#aaacad"/>
  <rect x="15" y="3" width="1" height="1" fill="#aaacaddb"/>
  <rect x="3" y="4" width="1" height="1" fill="#9ea0a27e"/>
  <rect x="4" y="4" width="2" height="2" fill="#abadae"/>
  <rect x="6" y="4" width="2" height="2" fill="#acaeb0"/>
  <rect x="8" y="4" width="1" height="1" fill="#9fa1a388"/>
  <rect x="10" y="4" width="1" height="1" fill="#9d9fa0db"/>
  <rect x="11" y="4" width="1" height="1" fill="#afb1b3"/>
  <rect x="12" y="4" width="1" height="1" fill="#acaeb0"/>
  <rect x="13" y="4" width="1" height="1" fill="#aaacad"/>
  <rect x="14" y="4" width="1" height="1" fill="#a1a3a5"/>
  <rect x="15" y="4" width="1" height="1" fill="#97999bdb"/>
  <rect x="3" y="5" width="1" height="1" fill="#9ea0a28f"/>
  <rect x="8" y="5" width="1" height="1" fill="#9ea0a291"/>
  <rect x="10" y="5" width="1" height="1" fill="#9a9c9e49"/>
  <rect x="11" y="5" width="1" height="1" fill="#a6a8aa"/>
  <rect x="12" y="5" width="1" height="1" fill="#999b9d"/>
  <rect x="13" y="5" width="1" height="1" fill="#919395f5"/>
  <rect x="14" y="5" width="1" height="1" fill="#939597b0"/>
  <rect x="15" y="5" width="1" height="1" fill="#9d9fa024"/>
  <rect x="3" y="6" width="1" height="1" fill="#9ea0a26e"/>
  <rect x="4" y="6" width="4" height="1" fill="#acaeb0"/>
  <rect x="8" y="6" width="1" height="1" fill="#9c9e9f70"/>
  <rect x="10" y="6" width="1" height="1" fill="#999b9d7f"/>
  <rect x="11" y="6" width="1" height="1" fill="#9a9c9ed6"/>
  <rect x="12" y="6" width="1" height="1" fill="#9597982c"/>
  <rect x="3" y="7" width="1" height="1" fill="#9ea0a229"/>
  <rect x="4" y="7" width="1" height="1" fill="#acaeb0fe"/>
  <rect x="5" y="7" width="3" height="1" fill="#acaeb0"/>
  <rect x="8" y="7" width="1" height="1" fill="#999b9d2e"/>
  <rect x="10" y="7" width="1" height="1" fill="#97999b75"/>
  <rect x="11" y="7" width="1" height="1" fill="#9193950a"/>
  <rect x="4" y="8" width="1" height="1" fill="#9ea0a2b4"/>
  <rect x="5" y="8" width="2" height="4" fill="#adafb1"/>
  <rect x="7" y="8" width="1" height="1" fill="#9ea0a2b7"/>
  <rect x="4" y="9" width="1" height="1" fill="#a3a5a66f"/>
  <rect x="7" y="9" width="1" height="1" fill="#a3a5a66f"/>
  <rect x="4" y="10" width="1" height="1" fill="#aaacadad"/>
  <rect x="7" y="10" width="1" height="1" fill="#aaacadad"/>
  <rect x="2" y="11" width="1" height="1" fill="#a7a9ab0d"/>
  <rect x="3" y="11" width="1" height="1" fill="#a7a9ab8a"/>
  <rect x="4" y="11" width="1" height="1" fill="#afb1b3"/>
  <rect x="7" y="11" width="1" height="1" fill="#afb1b3"/>
  <rect x="8" y="11" width="1" height="1" fill="#a6a8aa8a"/>
  <rect x="9" y="11" width="1" height="1" fill="#a6a8aa0d"/>
  <rect x="0" y="12" width="1" height="1" fill="#aeb0b255"/>
  <rect x="1" y="12" width="1" height="1" fill="#aeb0b2b0"/>
  <rect x="2" y="12" width="1" height="1" fill="#aeb0b2f4"/>
  <rect x="3" y="12" width="5" height="1" fill="#aeb0b2"/>
  <rect x="8" y="12" width="1" height="1" fill="#adafb1"/>
  <rect x="9" y="12" width="1" height="1" fill="#adafb1f4"/>
  <rect x="10" y="12" width="1" height="1" fill="#adafb1b0"/>
  <rect x="11" y="12" width="1" height="1" fill="#adafb155"/>
  <rect x="0" y="13" width="1" height="1" fill="#afb1b3fd"/>
  <rect x="1" y="13" width="7" height="1" fill="#afb1b3"/>
  <rect x="8" y="13" width="3" height="1" fill="#aeb0b2"/>
  <rect x="11" y="13" width="1" height="1" fill="#aeb0b2fd"/>
  <rect x="0" y="14" width="8" height="1" fill="#969899"/>
  <rect x="8" y="14" width="4" height="1" fill="#959798"/>
</svg>