<svg xmlns="http://www.w3.org/2000/svg" width="20" height="20" viewBox="0 0 20 20" shape-rendering="crispEdges">
  <rect x="0" y="0" width="1" height="1" fill="#94c75149"/>
  <rect x="1" y="0" width="1" height="1" fill="#94c653e6"/>
  <rect x="2" y="0" width="2" height="1" fill="#92c755"/>
  <rect x="4" y="0" width="1" height="1" fill="#90c853"/>
  <rect x="5" y="0" width="1" height="1" fill="#90c94f"/>
  <rect x="6" y="0" width="1" height="1" fill="#8fca4b"/>
  <rect x="7" y="0" width="1" height="1" fill="#8fcb49"/>
  <rect x="8" y="0" width="1" height="1" fill="#8dcb49"/>
  <rect x="9" y="0" width="1" height="1" fill="#8ccb4d"/>
  <rect x="10" y="0" width="2" height="1" fill="#8cca53"/>
  <rect x="12" y="0" width="1" height="1" fill="#8ccb4f"/>
  <rect x="13" y="0" width="2" height="1" fill="#8ccb4d"/>
  <rect x="15" y="0" width="1" height="1" fill="#8fca4d"/>
  <rect x="16" y="0" width="1" height="1" fill="#94c74d"/>
  <rect x="17" y="0" width="1" height="1" fill="#95c74b"/>
  <rect x="18" y="0" width="1" height="1" fill="#94c849e6"/>
  <rect x="19" y="0" width="1" height="1" fill="#92c94749"/>
  <rect x="0" y="1" width="1" height="1" fill="#92c753e6"/>
  <rect x="1" y="1" width="4" height="1" fill="#92c753"/>
  <rect x="5" y="1" width="1" height="1" fill="#90c851"/>
  <rect x="6" y="1" width="2" height="1" fill="#90c94f"/>
  <rect x="8" y="1" width="1" height="1" fill="#8fca4d"/>
  <rect x="9" y="1" width="1" height="1" fill="#8dca4f"/>
  <rect x="10" y="1" width="2" height="1" fill="#8dca51"/>
  <rect x="12" y="1" width="3" height="1" fill="#8dca4f"/>
  <rect x="15" y="1" width="1" height="1" fill="#8fc94f"/>
  <rect x="16" y="1" width="1" height="1" fill="#94c751"/>
  <rect x="17" y="1" width="1" height="1" fill="#95c64f"/>
  <rect x="18" y="1" width="1" height="1" fill="#94c84b"/>
  <rect x="19" y="1" width="1" height="1" fill="#92c947e6"/>
  <rect x="0" y="2" width="1" height="1" fill="#8fc855"/>
  <rect x="1" y="2" width="2" height="1" fill="#8fc953"/>
  <rect x="3" y="2" width="1" height="1" fill="#90c853"/>
  <rect x="4" y="2" width="1" height="1" fill="#92c753"/>
  <rect x="5" y="2" width="1" height="1" fill="#94c655"/>
  <rect x="6" y="2" width="2" height="1" fill="#94c559"/>
  <rect x="8" y="2" width="1" height="1" fill="#92c657"/>
  <rect x="9" y="2" width="1" height="1" fill="#92c753"/>
  <rect x="10" y="2" width="1" height="1" fill="#90c94f"/>
  <rect x="11" y="2" width="1" height="1" fill="#90c94d"/>
  <rect x="12" y="2" width="2" height="1" fill="#90c851"/>
  <rect x="14" y="2" width="1" height="1" fill="#90c853"/>
  <rect x="15" y="2" width="1" height="1" fill="#92c755"/>
  <rect x="16" y="2" width="1" height="1" fill="#94c559"/>
  <rect x="17" y="2" width="1" height="1" fill="#95c557"/>
  <rect x="18" y="2" width="1" height="1" fill="#94c74d"/>
  <rect x="19" y="2" width="1" height="1" fill="#92c949"/>
  <rect x="0" y="3" width="1" height="1" fill="#89c956"/>
  <rect x="1" y="3" width="1" height="1" fill="#8bc954"/>
  <rect x="2" y="3" width="1" height="1" fill="#8cc950"/>
  <rect x="3" y="3" width="1" height="1" fill="#8fc750"/>
  <rect x="4" y="3" width="1" height="1" fill="#90c252"/>
  <rect x="5" y="3" width="1" height="1" fill="#95c45b"/>
  <rect x="6" y="3" width="1" height="1" fill="#97c163"/>
  <rect x="7" y="3" width="1" height="1" fill="#97c069"/>
  <rect x="8" y="3" width="1" height="1" fill="#97c06b"/>
  <rect x="9" y="3" width="1" height="1" fill="#95c265"/>
  <rect x="10" y="3" width="1" height="1" fill="#95c557"/>
  <rect x="11" y="3" width="1" height="1" fill="#91c453"/>
  <rect x="12" y="3" width="1" height="1" fill="#94c45d"/>
  <rect x="13" y="3" width="2" height="1" fill="#94c363"/>
  <rect x="15" y="3" width="1" height="1" fill="#94c365"/>
  <rect x="16" y="3" width="1" height="1" fill="#95c265"/>
  <rect x="17" y="3" width="1" height="1" fill="#95c35f"/>
  <rect x="18" y="3" width="1" height="1" fill="#94c751"/>
  <rect x="19" y="3" width="1" height="1" fill="#92c94b"/>
  <rect x="0" y="4" width="1" height="1" fill="#83ca59"/>
  <rect x="1" y="4" width="1" height="1" fill="#85ca55"/>
  <rect x="2" y="4" width="1" height="1" fill="#88c94f"/>
  <rect x="3" y="4" width="1" height="1" fill="#8dc74d"/>
  <rect x="4" y="4" width="1" height="1" fill="#8ebe50"/>
  <rect x="5" y="4" width="1" height="1" fill="#96bf5f"/>
  <rect x="6" y="4" width="1" height="1" fill="#b8db90"/>
  <rect x="7" y="4" width="1" height="1" fill="#f2ffd6"/>
  <rect x="8" y="4" width="1" height="1" fill="#eeffdc"/>
  <rect x="9" y="4" width="1" height="1" fill="#bedea8"/>
  <rect x="10" y="4" width="1" height="1" fill="#90b763"/>
  <rect x="11" y="4" width="1" height="1" fill="#93ba62"/>
  <rect x="12" y="4" width="1" height="1" fill="#b0d48f"/>
  <rect x="13" y="4" width="1" height="1" fill="#cff2b6"/>
  <rect x="14" y="4" width="1" height="1" fill="#eaffd3"/>
  <rect x="15" y="4" width="1" height="1" fill="#e8ffcf"/>
  <rect x="16" y="4" width="1" height="1" fill="#cdf6af"/>
  <rect x="17" y="4" width="1" height="1" fill="#99c56d"/>
  <rect x="18" y="4" width="1" height="1" fill="#94c655"/>
  <rect x="19" y="4" width="1" height="1" fill="#91c74c"/>
  <rect x="0" y="5" width="1" height="1" fill="#7fc95c"/>
  <rect x="1" y="5" width="1" height="1" fill="#80ca56"/>
  <rect x="2" y="5" width="1" height="1" fill="#85c94c"/>
  <rect x="3" y="5" width="1" height="1" fill="#8bc64c"/>
  <rect x="4" y="5" width="1" height="1" fill="#94c356"/>
  <rect x="5" y="5" width="1" height="1" fill="#a1c66e"/>
  <rect x="6" y="5" width="1" height="1" fill="#f2ffd3"/>
  <rect x="7" y="5" width="1" height="1" fill="#ecffdd"/>
  <rect x="8" y="5" width="1" height="1" fill="#eeffed"/>
  <rect x="9" y="5" width="1" height="1" fill="#ecffe3"/>
  <rect x="10" y="5" width="1" height="1" fill="#a8c980"/>
  <rect x="11" y="5" width="1" height="1" fill="#97b86b"/>
  <rect x="12" y="5" width="1" height="1" fill="#e0fdc8"/>
  <rect x="13" y="5" width="1" height="1" fill="#edffe1"/>
  <rect x="14" y="5" width="1" height="1" fill="#ecffe2"/>
  <rect x="15" y="5" width="1" height="1" fill="#eeffe2"/>
  <rect x="16" y="5" width="1" height="1" fill="#eeffdb"/>
  <rect x="17" y="5" width="1" height="1" fill="#daffb6"/>
  <rect x="18" y="5" width="1" height="1" fill="#8ebf53"/>
  <rect x="19" y="5" width="1" height="1" fill="#93c950"/>
  <rect x="0" y="6" width="1" height="1" fill="#7cc95d"/>
  <rect x="1" y="6" width="1" height="1" fill="#7fc857"/>
  <rect x="2" y="6" width="1" height="1" fill="#84c84b"/>
  <rect x="3" y="6" width="1" height="1" fill="#8ac549"/>
  <rect x="4" y="6" width="1" height="1" fill="#90bc52"/>
  <rect x="5" y="6" width="1" height="1" fill="#c6e795"/>
  <rect x="6" y="6" width="1" height="1" fill="#faffe1"/>
  <rect x="7" y="6" width="1" height="1" fill="#f6fff0"/>
  <rect x="8" y="6" width="1" height="1" fill="#f7fffb"/>
  <rect x="9" y="6" width="1" height="1" fill="#f3ffeb"/>
  <rect x="10" y="6" width="1" height="1" fill="#cfeaa1"/>
  <rect x="11" y="6" width="1" height="1" fill="#94b161"/>
  <rect x="12" y="6" width="1" height="1" fill="#ddf4c3"/>
  <rect x="13" y="6" width="1" height="1" fill="#fbfff0"/>
  <rect x="14" y="6" width="1" height="1" fill="#eeffe5"/>
  <rect x="15" y="6" width="1" height="1" fill="#efffe3"/>
  <rect x="16" y="6" width="1" height="1" fill="#ecffe0"/>
  <rect x="17" y="6" width="1" height="1" fill="#d6ffbb"/>
  <rect x="18" y="6" width="1" height="1" fill="#8abb54"/>
  <rect x="19" y="6" width="1" height="1" fill="#90c54f"/>
  <rect x="0" y="7" width="1" height="1" fill="#7cc758"/>
  <rect x="1" y="7" width="1" height="1" fill="#7fc751"/>
  <rect x="2" y="7" width="1" height="1" fill="#84c649"/>
  <rect x="3" y="7" width="1" height="1" fill="#8bc349"/>
  <rect x="4" y="7" width="1" height="1" fill="#8fbb51"/>
  <rect x="5" y="7" width="1" height="1" fill="#c4e394"/>
  <rect x="6" y="7" width="1" height="2" fill="#f7ffe1"/>
  <rect x="7" y="7" width="1" height="1" fill="#f8fff5"/>
  <rect x="8" y="7" width="1" height="1" fill="#f6ffff"/>
  <rect x="9" y="7" width="1" height="1" fill="#fcfff8"/>
  <rect x="10" y="7" width="1" height="1" fill="#c3d994"/>
  <rect x="11" y="7" width="1" height="1" fill="#98b363"/>
  <rect x="12" y="7" width="1" height="1" fill="#a5bd89"/>
  <rect x="13" y="7" width="1" height="1" fill="#f0ffdf"/>
  <rect x="14" y="7" width="1" height="1" fill="#ebffda"/>
  <rect x="15" y="7" width="1" height="1" fill="#e6ffd1"/>
  <rect x="16" y="7" width="1" height="1" fill="#c5edad"/>
  <rect x="17" y="7" width="1" height="1" fill="#8dbd6b"/>
  <rect x="18" y="7" width="1" height="1" fill="#88bf51"/>
  <rect x="19" y="7" width="1" height="1" fill="#87bf46"/>
  <rect x="0" y="8" width="1" height="1" fill="#7dc647"/>
  <rect x="1" y="8" width="1" height="1" fill="#7fc547"/>
  <rect x="2" y="8" width="1" height="1" fill="#84c349"/>
  <rect x="3" y="8" width="1" height="1" fill="#88bf4d"/>
  <rect x="4" y="8" width="1" height="1" fill="#8eba50"/>
  <rect x="5" y="8" width="1" height="1" fill="#b5d483"/>
  <rect x="7" y="8" width="1" height="1" fill="#f3fcf2"/>
  <rect x="8" y="8" width="1" height="1" fill="#f5fdff"/>
  <rect x="9" y="8" width="1" height="1" fill="#f6fff7"/>
  <rect x="10" y="8" width="1" height="1" fill="#b7cc8f"/>
  <rect x="11" y="8" width="1" height="1" fill="#98b265"/>
  <rect x="12" y="8" width="1" height="1" fill="#c1dda2"/>
  <rect x="13" y="8" width="1" height="1" fill="#d1f1b6"/>
  <rect x="14" y="8" width="1" height="1" fill="#8cb167"/>
  <rect x="15" y="8" width="1" height="1" fill="#76a248"/>
  <rect x="16" y="8" width="1" height="1" fill="#86bb53"/>
  <rect x="17" y="8" width="1" height="1" fill="#83bf4b"/>
  <rect x="18" y="8" width="1" height="1" fill="#83c043"/>
  <rect x="19" y="8" width="1" height="1" fill="#83c13f"/>
  <rect x="0" y="9" width="1" height="1" fill="#7fc53e"/>
  <rect x="1" y="9" width="1" height="1" fill="#81c440"/>
  <rect x="2" y="9" width="1" height="1" fill="#84c144"/>
  <rect x="3" y="9" width="1" height="1" fill="#89be48"/>
  <rect x="4" y="9" width="1" height="1" fill="#90bd4e"/>
  <rect x="5" y="9" width="1" height="1" fill="#a0c06a"/>
  <rect x="6" y="9" width="1" height="1" fill="#f0ffd8"/>
  <rect x="7" y="9" width="1" height="1" fill="#edf8eb"/>
  <rect x="8" y="9" width="1" height="1" fill="#f2fefe"/>
  <rect x="9" y="9" width="1" height="1" fill="#ecfdec"/>
  <rect x="10" y="9" width="1" height="1" fill="#9fba74"/>
  <rect x="11" y="9" width="1" height="1" fill="#93b75b"/>
  <rect x="12" y="9" width="1" height="1" fill="#b8de8d"/>
  <rect x="13" y="9" width="1" height="1" fill="#7da853"/>
  <rect x="14" y="9" width="1" height="1" fill="#82b44f"/>
  <rect x="15" y="9" width="1" height="1" fill="#88c24c"/>
  <rect x="16" y="9" width="1" height="1" fill="#83c141"/>
  <rect x="17" y="9" width="3" height="3" fill="#81c23d"/>
  <rect x="0" y="10" width="1" height="1" fill="#80c33d"/>
  <rect x="1" y="10" width="1" height="1" fill="#81c23d"/>
  <rect x="2" y="10" width="1" height="1" fill="#84c13b"/>
  <rect x="3" y="10" width="1" height="1" fill="#89be3d"/>
  <rect x="4" y="10" width="1" height="1" fill="#8fbc40"/>
  <rect x="5" y="10" width="1" height="1" fill="#90b454"/>
  <rect x="6" y="10" width="1" height="1" fill="#d3ebbc"/>
  <rect x="7" y="10" width="1" height="1" fill="#ebfeea"/>
  <rect x="8" y="10" width="1" height="1" fill="#f0fff7"/>
  <rect x="9" y="10" width="1" height="1" fill="#cee8c2"/>
  <rect x="10" y="10" width="1" height="1" fill="#8cb455"/>
  <rect x="11" y="10" width="1" height="1" fill="#89bd43"/>
  <rect x="12" y="10" width="1" height="1" fill="#78af3b"/>
  <rect x="13" y="10" width="1" height="1" fill="#84c04a"/>
  <rect x="14" y="10" width="1" height="1" fill="#87c84c"/>
  <rect x="15" y="10" width="1" height="1" fill="#77ba39"/>
  <rect x="16" y="10" width="1" height="1" fill="#81c23f"/>
  <rect x="0" y="11" width="1" height="2" fill="#81c23d"/>
  <rect x="1" y="11" width="1" height="1" fill="#80bf3a"/>
  <rect x="2" y="11" width="1" height="1" fill="#86c03b"/>
  <rect x="3" y="11" width="1" height="1" fill="#89be3b"/>
  <rect x="4" y="11" width="1" height="1" fill="#89b73a"/>
  <rect x="5" y="11" width="1" height="1" fill="#92b756"/>
  <rect x="6" y="11" width="1" height="1" fill="#b3cd9e"/>
  <rect x="7" y="11" width="1" height="1" fill="#efffed"/>
  <rect x="8" y="11" width="1" height="1" fill="#f3fff3"/>
  <rect x="9" y="11" width="1" height="1" fill="#acce99"/>
  <rect x="10" y="11" width="1" height="1" fill="#89ba51"/>
  <rect x="11" y="11" width="1" height="1" fill="#7fb936"/>
  <rect x="12" y="11" width="1" height="1" fill="#7dbe38"/>
  <rect x="13" y="11" width="1" height="1" fill="#75ba33"/>
  <rect x="14" y="11" width="1" height="1" fill="#82ca43"/>
  <rect x="15" y="11" width="1" height="1" fill="#7fc73f"/>
  <rect x="16" y="11" width="1" height="1" fill="#7ec23c"/>
  <rect x="1" y="12" width="1" height="1" fill="#7fbd3b"/>
  <rect x="2" y="12" width="1" height="1" fill="#89c246"/>
  <rect x="3" y="12" width="1" height="1" fill="#87ba42"/>
  <rect x="4" y="12" width="1" height="1" fill="#85b03f"/>
  <rect x="5" y="12" width="1" height="1" fill="#90b35a"/>
  <rect x="6" y="12" width="1" height="1" fill="#c6e0b2"/>
  <rect x="7" y="12" width="1" height="1" fill="#efffeb"/>
  <rect x="8" y="12" width="1" height="1" fill="#efffea"/>
  <rect x="9" y="12" width="1" height="1" fill="#c1e3ac"/>
  <rect x="10" y="12" width="1" height="1" fill="#85b452"/>
  <rect x="11" y="12" width="1" height="1" fill="#87bf46"/>
  <rect x="12" y="12" width="1" height="1" fill="#7dbd3a"/>
  <rect x="13" y="12" width="1" height="1" fill="#79c036"/>
  <rect x="14" y="12" width="1" height="1" fill="#77bf35"/>
  <rect x="15" y="12" width="1" height="1" fill="#79c137"/>
  <rect x="16" y="12" width="1" height="1" fill="#7dc13a"/>
  <rect x="17" y="12" width="3" height="1" fill="#7dbe38"/>
  <rect x="0" y="13" width="1" height="1" fill="#80c13c"/>
  <rect x="1" y="13" width="1" height="1" fill="#83c043"/>
  <rect x="2" y="13" width="1" height="1" fill="#79af42"/>
  <rect x="3" y="13" width="1" height="1" fill="#89b957"/>
  <rect x="4" y="13" width="1" height="1" fill="#82aa4f"/>
  <rect x="5" y="13" width="1" height="1" fill="#bbdb93"/>
  <rect x="6" y="13" width="1" height="1" fill="#f0ffdf"/>
  <rect x="7" y="13" width="1" height="1" fill="#ecffe7"/>
  <rect x="8" y="13" width="1" height="1" fill="#e9ffdf"/>
  <rect x="9" y="13" width="1" height="1" fill="#edffd9"/>
  <rect x="10" y="13" width="1" height="1" fill="#bee399"/>
  <rect x="11" y="13" width="1" height="1" fill="#85b454"/>
  <rect x="12" y="13" width="1" height="1" fill="#82b949"/>
  <rect x="13" y="13" width="1" height="1" fill="#84c146"/>
  <rect x="14" y="13" width="1" height="1" fill="#75b834"/>
  <rect x="15" y="13" width="1" height="1" fill="#77bb35"/>
  <rect x="16" y="13" width="4" height="1" fill="#7dbe38"/>
  <rect x="0" y="14" width="1" height="1" fill="#7ebd38"/>
  <rect x="1" y="14" width="1" height="1" fill="#84be49"/>
  <rect x="2" y="14" width="1" height="1" fill="#a4d781"/>
  <rect x="3" y="14" width="1" height="1" fill="#cdf7b5"/>
  <rect x="4" y="14" width="1" height="1" fill="#deffc7"/>
  <rect x="5" y="14" width="1" height="1" fill="#e7ffd3"/>
  <rect x="6" y="14" width="1" height="1" fill="#e8fddf"/>
  <rect x="7" y="14" width="1" height="1" fill="#f0ffe8"/>
  <rect x="8" y="14" width="1" height="1" fill="#f4ffe9"/>
  <rect x="9" y="14" width="1" height="1" fill="#f5ffe6"/>
  <rect x="10" y="14" width="1" height="1" fill="#e9ffda"/>
  <rect x="11" y="14" width="1" height="1" fill="#e7ffd1"/>
  <rect x="12" y="14" width="1" height="1" fill="#c6eba3"/>
  <rect x="13" y="14" width="1" height="1" fill="#a2cf72"/>
  <rect x="14" y="14" width="1" height="1" fill="#8cc14f"/>
  <rect x="15" y="14" width="1" height="1" fill="#7cb839"/>
  <rect x="16" y="14" width="1" height="2" fill="#7ebc3a"/>
  <rect x="17" y="14" width="3" height="1" fill="#7dbe38"/>
  <rect x="0" y="15" width="1" height="1" fill="#87c245"/>
  <rect x="1" y="15" width="1" height="1" fill="#7cb547"/>
  <rect x="2" y="15" width="1" height="1" fill="#cdffae"/>
  <rect x="3" y="15" width="1" height="1" fill="#e1ffcc"/>
  <rect x="4" y="15" width="1" height="1" fill="#e4ffd3"/>
  <rect x="5" y="15" width="1" height="1" fill="#edffdf"/>
  <rect x="6" y="15" width="1" height="1" fill="#e0fbd4"/>
  <rect x="7" y="15" width="1" height="1" fill="#f3ffe6"/>
  <rect x="8" y="15" width="1" height="1" fill="#eafdd9"/>
  <rect x="9" y="15" width="1" height="1" fill="#f1ffe0"/>
  <rect x="10" y="15" width="1" height="1" fill="#e9ffdc"/>
  <rect x="11" y="15" width="1" height="1" fill="#f8ffe7"/>
  <rect x="12" y="15" width="1" height="1" fill="#e2ffc4"/>
  <rect x="13" y="15" width="1" height="1" fill="#dcffb0"/>
  <rect x="14" y="15" width="1" height="1" fill="#87b64d"/>
  <rect x="15" y="15" width="1" height="1" fill="#85bd44"/>
  <rect x="17" y="15" width="3" height="1" fill="#7bbf36"/>
  <rect x="0" y="16" width="1" height="1" fill="#7eb445"/>
  <rect x="1" y="16" width="1" height="1" fill="#7eb449"/>
  <rect x="2" y="16" width="1" height="1" fill="#dbffb1"/>
  <rect x="3" y="16" width="1" height="1" fill="#dbffb9"/>
  <rect x="4" y="16" width="1" height="1" fill="#e3ffc3"/>
  <rect x="5" y="16" width="1" height="1" fill="#e3ffc6"/>
  <rect x="6" y="16" width="1" height="1" fill="#e7ffcf"/>
  <rect x="7" y="16" width="1" height="1" fill="#e3ffcb"/>
  <rect x="8" y="16" width="1" height="1" fill="#e1ffc8"/>
  <rect x="9" y="16" width="1" height="1" fill="#e6ffcd"/>
  <rect x="10" y="16" width="1" height="1" fill="#e6ffcb"/>
  <rect x="11" y="16" width="1" height="1" fill="#e4ffc5"/>
  <rect x="12" y="16" width="1" height="1" fill="#e2ffba"/>
  <rect x="13" y="16" width="1" height="1" fill="#dcffae"/>
  <rect x="14" y="16" width="1" height="1" fill="#81b24b"/>
  <rect x="15" y="16" width="1" height="1" fill="#80b843"/>
  <rect x="16" y="16" width="1" height="1" fill="#76ba31"/>
  <rect x="17" y="16" width="3" height="1" fill="#75bc2b"/>
  <rect x="0" y="17" width="1" height="1" fill="#80b843"/>
  <rect x="1" y="17" width="1" height="1" fill="#80b745"/>
  <rect x="2" y="17" width="1" height="1" fill="#609626"/>
  <rect x="3" y="17" width="1" height="1" fill="#60952a"/>
  <rect x="4" y="17" width="1" height="1" fill="#6a9d38"/>
  <rect x="5" y="17" width="1" height="1" fill="#6a9c3c"/>
  <rect x="6" y="17" width="1" height="1" fill="#6b9f42"/>
  <rect x="7" y="17" width="1" height="1" fill="#65983e"/>
  <rect x="8" y="17" width="1" height="1" fill="#64973d"/>
  <rect x="9" y="17" width="1" height="1" fill="#699c40"/>
  <rect x="10" y="17" width="1" height="1" fill="#699d3c"/>
  <rect x="11" y="17" width="1" height="1" fill="#699e38"/>
  <rect x="12" y="17" width="1" height="1" fill="#679c31"/>
  <rect x="13" y="17" width="1" height="1" fill="#6ba232"/>
  <rect x="14" y="17" width="1" height="1" fill="#80b745"/>
  <rect x="15" y="17" width="1" height="1" fill="#7fba3d"/>
  <rect x="16" y="17" width="1" height="1" fill="#77bc30"/>
  <rect x="17" y="17" width="3" height="1" fill="#74be2a"/>
  <rect x="0" y="18" width="1" height="1" fill="#79b62be6"/>
  <rect x="1" y="18" width="1" height="1" fill="#7bb82f"/>
  <rect x="2" y="18" width="1" height="1" fill="#7ab630"/>
  <rect x="3" y="18" width="1" height="1" fill="#7bb733"/>
  <rect x="4" y="18" width="1" height="1" fill="#7ab536"/>
  <rect x="5" y="18" width="1" height="1" fill="#78b336"/>
  <rect x="6" y="18" width="1" height="1" fill="#7bb63b"/>
  <rect x="7" y="18" width="1" height="1" fill="#75af38"/>
  <rect x="8" y="18" width="1" height="1" fill="#74af34"/>
  <rect x="9" y="18" width="1" height="1" fill="#79b339"/>
  <rect x="10" y="18" width="1" height="1" fill="#79b437"/>
  <rect x="11" y="18" width="1" height="1" fill="#76b233"/>
  <rect x="12" y="18" width="1" height="1" fill="#75b12e"/>
  <rect x="13" y="18" width="1" height="1" fill="#79b52f"/>
  <rect x="14" y="18" width="1" height="1" fill="#7ab72e"/>
  <rect x="15" y="18" width="1" height="1" fill="#79b92d"/>
  <rect x="16" y="18" width="1" height="1" fill="#75bc2b"/>
  <rect x="17" y="18" width="2" height="1" fill="#73bd29"/>
  <rect x="19" y="18" width="1" height="1" fill="#73bd29e7"/>
  <rect x="0" y="19" width="1" height="1" fill="#76b7224a"/>
  <rect x="1" y="19" width="1" height="1" fill="#70b11ee7"/>
  <rect x="2" y="19" width="1" height="1" fill="#7ebf2e"/>
  <rect x="3" y="19" width="1" height="1" fill="#77b729"/>
  <rect x="4" y="19" width="1" height="1" fill="#77b72b"/>
  <rect x="5" y="19" width="1" height="1" fill="#77b62d"/>
  <rect x="6" y="19" width="1" height="1" fill="#79b831"/>
  <rect x="7" y="19" width="1" height="1" fill="#74b32c"/>
  <rect x="8" y="19" width="1" height="1" fill="#72b228"/>
  <rect x="9" y="19" width="1" height="1" fill="#77b62d"/>
  <rect x="10" y="19" width="2" height="1" fill="#77b72b"/>
  <rect x="12" y="19" width="1" height="1" fill="#80c132"/>
  <rect x="13" y="19" width="1" height="1" fill="#72b322"/>
  <rect x="14" y="19" width="1" height="1" fill="#7bbc28"/>
  <rect x="15" y="19" width="1" height="1" fill="#74b824"/>
  <rect x="16" y="19" width="1" height="1" fill="#72ba27"/>
  <rect x="17" y="19" width="1" height="1" fill="#71bb27"/>
  <rect x="18" y="19" width="1" height="1" fill="#71bb27e4"/>
  <rect x="19" y="19" width="1" height="1" fill="#71bb274a"/>
</svg>