<svg xmlns="http://www.w3.org/2000/svg" width="12" height="12" viewBox="0 0 12 12" shape-rendering="crispEdges">
  <rect x="0" y="1" width="1" height="1" fill="#ec591044"/>
  <rect x="1" y="1" width="1" height="1" fill="#ec590e44"/>
  <rect x="2" y="1" width="1" height="1" fill="#ec5a0a44"/>
  <rect x="3" y="1" width="1" height="1" fill="#eb5b0844"/>
  <rect x="4" y="1" width="1" height="1" fill="#e95c0844"/>
  <rect x="5" y="1" width="1" height="1" fill="#ee5a0822"/>
  <rect x="7" y="1" width="1" height="1" fill="#f6550a44"/>
  <rect x="8" y="1" width="1" height="1" fill="#ee580e44"/>
  <rect x="9" y="1" width="1" height="1" fill="#ec590e44"/>
  <rect x="10" y="1" width="1" height="1" fill="#ee590c44"/>
  <rect x="11" y="1" width="1" height="1" fill="#ef580c22"/>
  <rect x="0" y="2" width="1" height="1" fill="#ee580e88"/>
  <rect x="1" y="2" width="3" height="1" fill="#ee580e"/>
  <rect x="4" y="2" width="1" height="1" fill="#f1570c99"/>
  <rect x="5" y="2" width="1" height="1" fill="#f3570a44"/>
  <rect x="7" y="2" width="1" height="1" fill="#f1580877"/>
  <rect x="8" y="2" width="1" height="1" fill="#ee5810ee"/>
  <rect x="9" y="2" width="1" height="1" fill="#ee5714"/>
  <rect x="10" y="2" width="1" height="1" fill="#ee5812bb"/>
  <rect x="11" y="2" width="1" height="1" fill="#ef591144"/>
  <rect x="1" y="3" width="1" height="1" fill="#ec581499"/>
  <rect x="2" y="3" width="1" height="1" fill="#ec5814"/>
  <rect x="3" y="3" width="1" height="1" fill="#ee5714"/>
  <rect x="4" y="3" width="1" height="1" fill="#ef561444"/>
  <rect x="8" y="3" width="1" height="1" fill="#eb5816cc"/>
  <rect x="9" y="3" width="1" height="1" fill="#e45a1edd"/>
  <rect x="1" y="4" width="1" height="1" fill="#f1622522"/>
  <rect x="2" y="4" width="1" height="1" fill="#f46324"/>
  <rect x="3" y="4" width="1" height="1" fill="#ec5e1e"/>
  <rect x="4" y="4" width="1" height="1" fill="#ed612399"/>
  <rect x="7" y="4" width="1" height="1" fill="#f0602a44"/>
  <rect x="8" y="4" width="1" height="1" fill="#ee6128"/>
  <rect x="9" y="4" width="1" height="1" fill="#db683866"/>
  <rect x="2" y="5" width="1" height="1" fill="#e55d2baa"/>
  <rect x="3" y="5" width="1" height="1" fill="#f76731"/>
  <rect x="4" y="5" width="1" height="1" fill="#ed652c"/>
  <rect x="5" y="5" width="1" height="1" fill="#ed642e22"/>
  <rect x="7" y="5" width="1" height="1" fill="#f2603899"/>
  <rect x="8" y="5" width="1" height="1" fill="#ef6332ee"/>
  <rect x="9" y="5" width="1" height="1" fill="#d2684311"/>
  <rect x="2" y="6" width="1" height="1" fill="#dd624744"/>
  <rect x="3" y="6" width="1" height="1" fill="#fb623d"/>
  <rect x="4" y="6" width="1" height="1" fill="#fd6b36"/>
  <rect x="5" y="6" width="1" height="1" fill="#fd6a3899"/>
  <rect x="6" y="6" width="1" height="1" fill="#ff664211"/>
  <rect x="7" y="6" width="1" height="1" fill="#ff6646"/>
  <rect x="8" y="6" width="1" height="1" fill="#f15e3988"/>
  <rect x="3" y="7" width="1" height="1" fill="#df3c1cbb"/>
  <rect x="4" y="7" width="1" height="1" fill="#de3d0f"/>
  <rect x="5" y="7" width="1" height="1" fill="#e13b0d"/>
  <rect x="6" y="7" width="1" height="1" fill="#e4381788"/>
  <rect x="7" y="7" width="1" height="1" fill="#db3b21"/>
  <rect x="8" y="7" width="1" height="1" fill="#cc4e3422"/>
  <rect x="3" y="8" width="1" height="1" fill="#df301055"/>
  <rect x="4" y="8" width="1" height="1" fill="#e63007"/>
  <rect x="5" y="8" width="1" height="1" fill="#eb2e05"/>
  <rect x="6" y="8" width="1" height="1" fill="#ef2d0a"/>
  <rect x="7" y="8" width="1" height="1" fill="#d4371eaa"/>
  <rect x="4" y="9" width="1" height="1" fill="#e52e0cdd"/>
  <rect x="5" y="9" width="1" height="1" fill="#f32706"/>
  <rect x="6" y="9" width="1" height="1" fill="#f32708"/>
  <rect x="7" y="9" width="1" height="1" fill="#d0351e44"/>
  <rect x="4" y="10" width="1" height="1" fill="#d4301866"/>
  <rect x="5" y="10" width="1" height="1" fill="#f02308"/>
  <rect x="6" y="10" width="1" height="1" fill="#f0220add"/>
  <rect x="5" y="11" width="1" height="1" fill="#ef1f0a44"/>
  <rect x="6" y="11" width="1" height="1" fill="#ec1f0922"/>
</svg>