<svg xmlns="http://www.w3.org/2000/svg" width="14" height="14" viewBox="0 0 14 14" shape-rendering="crispEdges">
  <rect x="2" y="0" width="1" height="1" fill="#aeb0b233"/>
  <rect x="3" y="0" width="1" height="1" fill="#b2b4b5d1"/>
  <rect x="4" y="0" width="1" height="1" fill="#b3b5b6fb"/>
  <rect x="5" y="0" width="2" height="1" fill="#b2b4b5"/>
  <rect x="7" y="0" width="1" height="1" fill="#b4b6b8fb"/>
  <rect x="8" y="0" width="1" height="1" fill="#b4b6b8ce"/>
  <rect x="9" y="0" width="1" height="1" fill="#b2b4b531"/>
  <rect x="2" y="1" width="1" height="1" fill="#aeb0b2d3"/>
  <rect x="3" y="1" width="1" height="3" fill="#b1b3b4"/>
  <rect x="4" y="1" width="1" height="1" fill="#999b9d"/>
  <rect x="5" y="1" width="1" height="1" fill="#97999bf2"/>
  <rect x="6" y="1" width="1" height="1" fill="#97999bf3"/>
  <rect x="7" y="1" width="1" height="1" fill="#999b9d"/>
  <rect x="8" y="1" width="1" height="3" fill="#b4b6b8"/>
  <rect x="9" y="1" width="1" height="1" fill="#b2b4b5ce"/>
  <rect x="2" y="2" width="1" height="1" fill="#aeb0b2fe"/>
  <rect x="4" y="2" width="1" height="1" fill="#999b9d52"/>
  <rect x="7" y="2" width="1" height="1" fill="#999b9d57"/>
  <rect x="9" y="2" width="1" height="1" fill="#b2b4b5fc"/>
  <rect x="2" y="3" width="1" height="1" fill="#aeb0b2"/>
  <rect x="9" y="3" width="1" height="1" fill="#b2b4b5"/>
  <rect x="0" y="4" width="1" height="1" fill="#b2b4b588"/>
  <rect x="1" y="4" width="1" height="1" fill="#b1b3b4fa"/>
  <rect x="2" y="4" width="2" height="1" fill="#afb1b3"/>
  <rect x="4" y="4" width="1" height="1" fill="#b2b4b5"/>
  <rect x="5" y="4" width="3" height="1" fill="#b3b5b6"/>
  <rect x="8" y="4" width="1" height="1" fill="#b2b4b5"/>
  <rect x="9" y="4" width="1" height="1" fill="#aeb0b2"/>
  <rect x="10" y="4" width="1" height="1" fill="#adafb1f9"/>
  <rect x="11" y="4" width="1" height="1" fill="#aeb0b27b"/>
  <rect x="0" y="5" width="1" height="1" fill="#b3b5b6fc"/>
  <rect x="1" y="5" width="1" height="1" fill="#b4b6b8"/>
  <rect x="2" y="5" width="1" height="1" fill="#929496"/>
  <rect x="3" y="5" width="1" height="1" fill="#939597"/>
  <rect x="4" y="5" width="5" height="1" fill="#999b9d"/>
  <rect x="9" y="5" width="1" height="1" fill="#9ea0a2"/>
  <rect x="10" y="5" width="1" height="1" fill="#bcbec0"/>
  <rect x="11" y="5" width="1" height="1" fill="#afb1b3ec"/>
  <rect x="0" y="6" width="1" height="1" fill="#afb1b3"/>
  <rect x="1" y="6" width="1" height="1" fill="#b8babbfa"/>
  <rect x="2" y="6" width="1" height="1" fill="#a0a2a417"/>
  <rect x="9" y="6" width="1" height="1" fill="#9a9c9e23"/>
  <rect x="10" y="6" width="1" height="1" fill="#aeb0b2"/>
  <rect x="11" y="6" width="1" height="1" fill="#adafb1f0"/>
  <rect x="0" y="7" width="1" height="2" fill="#b3b5b6"/>
  <rect x="1" y="7" width="1" height="2" fill="#afb1b3f0"/>
  <rect x="5" y="7" width="1" height="1" fill="#acaeb019"/>
  <rect x="6" y="7" width="1" height="1" fill="#acaeb018"/>
  <rect x="10" y="7" width="1" height="2" fill="#b2b4b5"/>
  <rect x="11" y="7" width="1" height="1" fill="#b1b3b4f0"/>
  <rect x="4" y="8" width="1" height="1" fill="#989a9c60"/>
  <rect x="5" y="8" width="2" height="1" fill="#acaeb0"/>
  <rect x="7" y="8" width="1" height="1" fill="#989a9c60"/>
  <rect x="11" y="8" width="1" height="1" fill="#b4b6b8f0"/>
  <rect x="0" y="9" width="1" height="1" fill="#b9bbbc"/>
  <rect x="1" y="9" width="1" height="1" fill="#b2b4b5f0"/>
  <rect x="4" y="9" width="1" height="1" fill="#999b9d33"/>
  <rect x="5" y="9" width="1" height="1" fill="#9c9e9fea"/>
  <rect x="6" y="9" width="1" height="1" fill="#9c9e9fe6"/>
  <rect x="7" y="9" width="1" height="1" fill="#999b9d32"/>
  <rect x="10" y="9" width="1" height="1" fill="#afb1b3"/>
  <rect x="11" y="9" width="1" height="1" fill="#b2b4b5f0"/>
  <rect x="0" y="10" width="1" height="1" fill="#b4b6b8"/>
  <rect x="1" y="10" width="1" height="1" fill="#b1b3b4fb"/>
  <rect x="2" y="10" width="1" height="1" fill="#abadae1d"/>
  <rect x="5" y="10" width="1" height="1" fill="#b1b3b435"/>
  <rect x="6" y="10" width="1" height="1" fill="#b1b3b431"/>
  <rect x="9" y="10" width="1" height="1" fill="#afb1b32a"/>
  <rect x="10" y="10" width="1" height="1" fill="#aeb0b2"/>
  <rect x="11" y="10" width="1" height="1" fill="#acaeb0f0"/>
  <rect x="0" y="11" width="1" height="1" fill="#a7a9abfc"/>
  <rect x="1" y="11" width="1" height="1" fill="#abadae"/>
  <rect x="2" y="11" width="1" height="1" fill="#afb1b3"/>
  <rect x="3" y="11" width="2" height="1" fill="#b3b5b6"/>
  <rect x="5" y="11" width="2" height="1" fill="#adafb1"/>
  <rect x="7" y="11" width="1" height="1" fill="#b3b5b6"/>
  <rect x="8" y="11" width="1" height="1" fill="#b4b6b8"/>
  <rect x="9" y="11" width="1" height="1" fill="#b1b3b4"/>
  <rect x="10" y="11" width="1" height="1" fill="#acaeb0"/>
  <rect x="11" y="11" width="1" height="1" fill="#aaacadea"/>
  <rect x="0" y="12" width="1" height="1" fill="#989a9c82"/>
  <rect x="1" y="12" width="1" height="1" fill="#989a9cf9"/>
  <rect x="2" y="12" width="8" height="1" fill="#989a9c"/>
  <rect x="10" y="12" width="1" height="1" fill="#989a9cf7"/>
  <rect x="11" y="12" width="1" height="1" fill="#989a9c75"/>
</svg>