<svg xmlns="http://www.w3.org/2000/svg" width="16" height="16" viewBox="0 0 16 16" shape-rendering="crispEdges">
  <rect x="4" y="0" width="1" height="1" fill="#9999992a"/>
  <rect x="5" y="0" width="1" height="1" fill="#9999998e"/>
  <rect x="6" y="0" width="1" height="1" fill="#999999d7"/>
  <rect x="7" y="0" width="2" height="1" fill="#999999f8"/>
  <rect x="9" y="0" width="1" height="1" fill="#999999d6"/>
  <rect x="10" y="0" width="1" height="1" fill="#9999998e"/>
  <rect x="11" y="0" width="1" height="1" fill="#9999992a"/>
  <rect x="3" y="1" width="1" height="1" fill="#99999994"/>
  <rect x="4" y="1" width="1" height="1" fill="#999999fd"/>
  <rect x="5" y="1" width="2" height="1" fill="#999999"/>
  <rect x="7" y="1" width="2" height="1" fill="#999999f5"/>
  <rect x="9" y="1" width="2" height="1" fill="#999999"/>
  <rect x="11" y="1" width="1" height="1" fill="#999999fd"/>
  <rect x="12" y="1" width="1" height="1" fill="#99999998"/>
  <rect x="2" y="2" width="1" height="1" fill="#999999bb"/>
  <rect x="3" y="2" width="1" height="1" fill="#999999"/>
  <rect x="4" y="2" width="1" height="1" fill="#999999ec"/>
  <rect x="5" y="2" width="1" height="1" fill="#99999975"/>
  <rect x="6" y="2" width="1" height="1" fill="#9999991e"/>
  <rect x="9" y="2" width="1" height="1" fill="#9999991e"/>
  <rect x="10" y="2" width="1" height="1" fill="#99999975"/>
  <rect x="11" y="2" width="1" height="1" fill="#999999ec"/>
  <rect x="12" y="2" width="1" height="1" fill="#999999"/>
  <rect x="13" y="2" width="1" height="1" fill="#999999bd"/>
  <rect x="1" y="3" width="1" height="1" fill="#99999995"/>
  <rect x="2" y="3" width="1" height="1" fill="#999999"/>
  <rect x="3" y="3" width="1" height="1" fill="#999999d4"/>
  <rect x="4" y="3" width="1" height="1" fill="#9999991d"/>
  <rect x="7" y="3" width="2" height="1" fill="#999999c3"/>
  <rect x="11" y="3" width="1" height="1" fill="#9999991d"/>
  <rect x="12" y="3" width="1" height="1" fill="#999999d4"/>
  <rect x="13" y="3" width="1" height="1" fill="#999999"/>
  <rect x="14" y="3" width="1" height="1" fill="#99999994"/>
  <rect x="0" y="4" width="1" height="1" fill="#9999992b"/>
  <rect x="1" y="4" width="1" height="1" fill="#999999fc"/>
  <rect x="2" y="4" width="1" height="1" fill="#999999ee"/>
  <rect x="3" y="4" width="1" height="1" fill="#9999991c"/>
  <rect x="7" y="4" width="2" height="3" fill="#999999"/>
  <rect x="12" y="4" width="1" height="1" fill="#9999991c"/>
  <rect x="13" y="4" width="1" height="1" fill="#999999ee"/>
  <rect x="14" y="4" width="1" height="1" fill="#999999fc"/>
  <rect x="15" y="4" width="1" height="1" fill="#9999992b"/>
  <rect x="0" y="5" width="1" height="1" fill="#9999998f"/>
  <rect x="1" y="5" width="1" height="2" fill="#999999"/>
  <rect x="2" y="5" width="1" height="1" fill="#99999977"/>
  <rect x="13" y="5" width="1" height="1" fill="#99999977"/>
  <rect x="14" y="5" width="1" height="2" fill="#999999"/>
  <rect x="15" y="5" width="1" height="1" fill="#9999998f"/>
  <rect x="0" y="6" width="1" height="1" fill="#999999d7"/>
  <rect x="2" y="6" width="1" height="1" fill="#9999991b"/>
  <rect x="13" y="6" width="1" height="1" fill="#9999991a"/>
  <rect x="15" y="6" width="1" height="1" fill="#999999d7"/>
  <rect x="0" y="7" width="1" height="2" fill="#999999f9"/>
  <rect x="1" y="7" width="1" height="2" fill="#999999f4"/>
  <rect x="7" y="7" width="5" height="1" fill="#999999"/>
  <rect x="12" y="7" width="1" height="1" fill="#999999c3"/>
  <rect x="14" y="7" width="1" height="2" fill="#999999f4"/>
  <rect x="15" y="7" width="1" height="1" fill="#999999f9"/>
  <rect x="7" y="8" width="1" height="1" fill="#999999c3"/>
  <rect x="8" y="8" width="4" height="1" fill="#999999"/>
  <rect x="12" y="8" width="1" height="1" fill="#999999c4"/>
  <rect x="15" y="8" width="1" height="1" fill="#999999f3"/>
  <rect x="0" y="9" width="1" height="1" fill="#999999d7"/>
  <rect x="1" y="9" width="1" height="2" fill="#999999"/>
  <rect x="2" y="9" width="1" height="1" fill="#9999991b"/>
  <rect x="13" y="9" width="1" height="1" fill="#9999991a"/>
  <rect x="14" y="9" width="1" height="2" fill="#999999"/>
  <rect x="15" y="9" width="1" height="1" fill="#999999d4"/>
  <rect x="0" y="10" width="1" height="1" fill="#9999998f"/>
  <rect x="2" y="10" width="1" height="1" fill="#99999977"/>
  <rect x="13" y="10" width="1" height="1" fill="#99999977"/>
  <rect x="15" y="10" width="1" height="1" fill="#99999990"/>
  <rect x="0" y="11" width="1" height="1" fill="#9999992c"/>
  <rect x="1" y="11" width="1" height="1" fill="#999999fc"/>
  <rect x="2" y="11" width="1" height="1" fill="#999999ed"/>
  <rect x="3" y="11" width="1" height="1" fill="#9999991c"/>
  <rect x="12" y="11" width="1" height="1" fill="#9999991c"/>
  <rect x="13" y="11" width="1" height="1" fill="#999999ed"/>
  <rect x="14" y="11" width="1" height="1" fill="#999999fc"/>
  <rect x="15" y="11" width="1" height="1" fill="#9999992c"/>
  <rect x="1" y="12" width="1" height="1" fill="#99999995"/>
  <rect x="2" y="12" width="1" height="1" fill="#999999"/>
  <rect x="3" y="12" width="1" height="1" fill="#999999d4"/>
  <rect x="4" y="12" width="1" height="1" fill="#9999991d"/>
  <rect x="11" y="12" width="1" height="1" fill="#9999991d"/>
  <rect x="12" y="12" width="1" height="1" fill="#999999d4"/>
  <rect x="13" y="12" width="1" height="1" fill="#999999"/>
  <rect x="14" y="12" width="1" height="1" fill="#99999995"/>
  <rect x="2" y="13" width="1" height="1" fill="#999999bb"/>
  <rect x="3" y="13" width="1" height="1" fill="#999999"/>
  <rect x="4" y="13" width="1" height="1" fill="#999999ec"/>
  <rect x="5" y="13" width="1" height="1" fill="#99999975"/>
  <rect x="6" y="13" width="1" height="1" fill="#9999991e"/>
  <rect x="9" y="13" width="1" height="1" fill="#9999991e"/>
  <rect x="10" y="13" width="1" height="1" fill="#99999975"/>
  <rect x="11" y="13" width="1" height="1" fill="#999999ec"/>
  <rect x="12" y="13" width="1" height="1" fill="#999999"/>
  <rect x="13" y="13" width="1" height="1" fill="#999999bd"/>
  <rect x="3" y="14" width="1" height="1" fill="#99999994"/>
  <rect x="4" y="14" width="1" height="1" fill="#999999fd"/>
  <rect x="5" y="14" width="2" height="1" fill="#999999"/>
  <rect x="7" y="14" width="2" height="1" fill="#999999f5"/>
  <rect x="9" y="14" width="2" height="1" fill="#999999"/>
  <rect x="11" y="14" width="1" height="1" fill="#999999fd"/>
  <rect x="12" y="14" width="1" height="1" fill="#99999998"/>
  <rect x="4" y="15" width="1" height="1" fill="#9999992b"/>
  <rect x="5" y="15" width="1" height="1" fill="#99999990"/>
  <rect x="6" y="15" width="1" height="1" fill="#999999d8"/>
  <rect x="7" y="15" width="1" height="1" fill="#999999fa"/>
  <rect x="8" y="15" width="1" height="1" fill="#999999f4"/>
  <rect x="9" y="15" width="1" height="1" fill="#999999d4"/>
  <rect x="10" y="15" width="1" height="1" fill="#99999990"/>
  <rect x="11" y="15" width="1" height="1" fill="#9999992c"/>
</svg>