<svg xmlns="http://www.w3.org/2000/svg" width="48" height="24" viewBox="0 0 48 24" shape-rendering="crispEdges">
  <rect x="40" y="0" width="1" height="1" fill="#d1614a60"/>
  <rect x="41" y="0" width="1" height="1" fill="#c8654eb8"/>
  <rect x="42" y="0" width="1" height="1" fill="#bc6648f5"/>
  <rect x="43" y="0" width="1" height="1" fill="#be5f41b8"/>
  <rect x="44" y="0" width="1" height="1" fill="#e2644f60"/>
  <rect x="39" y="1" width="1" height="1" fill="#cb4e2f60"/>
  <rect x="40" y="1" width="1" height="1" fill="#c85840f8"/>
  <rect x="41" y="1" width="1" height="1" fill="#ffb8a1"/>
  <rect x="42" y="1" width="1" height="1" fill="#ffe4c7"/>
  <rect x="43" y="1" width="1" height="1" fill="#ffbda1"/>
  <rect x="44" y="1" width="1" height="1" fill="#d55742f8"/>
  <rect x="45" y="1" width="1" height="1" fill="#c05a4c60"/>
  <rect x="39" y="2" width="1" height="1" fill="#c8502fb8"/>
  <rect x="40" y="2" width="1" height="1" fill="#ed7a63"/>
  <rect x="41" y="2" width="1" height="1" fill="#f68a75"/>
  <rect x="42" y="2" width="1" height="1" fill="#f9977d"/>
  <rect x="43" y="2" width="1" height="1" fill="#fc9379"/>
  <rect x="44" y="2" width="1" height="1" fill="#f77964"/>
  <rect x="45" y="2" width="1" height="1" fill="#c46052b8"/>
  <rect x="39" y="3" width="1" height="1" fill="#c94e33f5"/>
  <rect x="40" y="3" width="1" height="1" fill="#f87e6c"/>
  <rect x="41" y="3" width="1" height="1" fill="#ed7967"/>
  <rect x="42" y="3" width="1" height="1" fill="#e2765f"/>
  <rect x="43" y="3" width="1" height="1" fill="#e3735b"/>
  <rect x="44" y="3" width="1" height="1" fill="#ea6c57"/>
  <rect x="45" y="3" width="1" height="1" fill="#af4d3ef5"/>
  <rect x="39" y="4" width="1" height="1" fill="#d1483db8"/>
  <rect x="40" y="4" width="1" height="1" fill="#e66258"/>
  <rect x="41" y="4" width="1" height="1" fill="#ec6f60"/>
  <rect x="42" y="4" width="1" height="1" fill="#ef7764"/>
  <rect x="43" y="4" width="1" height="1" fill="#e16753"/>
  <rect x="44" y="4" width="1" height="1" fill="#d1523d"/>
  <rect x="45" y="4" width="1" height="1" fill="#bb5c4cb8"/>
  <rect x="39" y="5" width="1" height="1" fill="#c34d4760"/>
  <rect x="40" y="5" width="1" height="1" fill="#c34239f8"/>
  <rect x="41" y="5" width="1" height="1" fill="#de574b"/>
  <rect x="42" y="5" width="1" height="1" fill="#e86455"/>
  <rect x="43" y="5" width="1" height="1" fill="#e2614f"/>
  <rect x="44" y="5" width="1" height="1" fill="#c1432ef8"/>
  <rect x="45" y="5" width="1" height="1" fill="#ac4f3e60"/>
  <rect x="40" y="6" width="1" height="1" fill="#b3403960"/>
  <rect x="41" y="6" width="1" height="1" fill="#c83a31b8"/>
  <rect x="42" y="6" width="1" height="1" fill="#c03529f5"/>
  <rect x="43" y="6" width="1" height="1" fill="#be3828b8"/>
  <rect x="44" y="6" width="1" height="1" fill="#be402a60"/>
</svg>