<svg xmlns="http://www.w3.org/2000/svg" width="13" height="15" viewBox="0 0 13 15" shape-rendering="crispEdges">
  <rect x="5" y="0" width="1" height="1" fill="#ffdca7"/>
  <rect x="6" y="0" width="1" height="1" fill="#d49a5c"/>
  <rect x="7" y="0" width="1" height="1" fill="#ffd998"/>
  <rect x="2" y="1" width="1" height="1" fill="#ffd9ad"/>
  <rect x="3" y="1" width="1" height="1" fill="#cb9359"/>
  <rect x="4" y="1" width="1" height="1" fill="#ffd79e"/>
  <rect x="5" y="1" width="1" height="1" fill="#cea062"/>
  <rect x="6" y="1" width="1" height="1" fill="#fff2ad"/>
  <rect x="7" y="1" width="1" height="1" fill="#da9b53"/>
  <rect x="8" y="1" width="1" height="1" fill="#ffd38d"/>
  <rect x="9" y="1" width="1" height="1" fill="#d59657"/>
  <rect x="10" y="1" width="1" height="1" fill="#ffd39f"/>
  <rect x="2" y="2" width="1" height="1" fill="#b98c52"/>
  <rect x="3" y="2" width="1" height="1" fill="#ffdd92"/>
  <rect x="4" y="2" width="1" height="1" fill="#cb924a"/>
  <rect x="5" y="2" width="1" height="1" fill="#fff1a4"/>
  <rect x="6" y="2" width="1" height="1" fill="#ffcd77"/>
  <rect x="7" y="2" width="1" height="1" fill="#ffd179"/>
  <rect x="8" y="2" width="1" height="1" fill="#d6903a"/>
  <rect x="9" y="2" width="1" height="1" fill="#ffc674"/>
  <rect x="10" y="2" width="1" height="1" fill="#d3893b"/>
  <rect x="2" y="3" width="1" height="1" fill="#b18d45"/>
  <rect x="3" y="3" width="1" height="1" fill="#fac76b"/>
  <rect x="4" y="3" width="1" height="1" fill="#ffe386"/>
  <rect x="5" y="3" width="1" height="1" fill="#ebbd5d"/>
  <rect x="6" y="3" width="1" height="1" fill="#fdd469"/>
  <rect x="7" y="3" width="1" height="1" fill="#d7a83d"/>
  <rect x="8" y="3" width="1" height="1" fill="#ffcc65"/>
  <rect x="9" y="3" width="1" height="1" fill="#f4b550"/>
  <rect x="10" y="3" width="1" height="1" fill="#c68520"/>
  <rect x="2" y="4" width="1" height="1" fill="#a08e39"/>
  <rect x="3" y="4" width="1" height="1" fill="#aa9121"/>
  <rect x="4" y="4" width="1" height="1" fill="#a18b18"/>
  <rect x="5" y="4" width="1" height="1" fill="#9f8c13"/>
  <rect x="6" y="4" width="1" height="1" fill="#9e9011"/>
  <rect x="7" y="4" width="1" height="1" fill="#a39314"/>
  <rect x="8" y="4" width="1" height="1" fill="#a88f13"/>
  <rect x="9" y="4" width="1" height="1" fill="#ab8a11"/>
  <rect x="10" y="4" width="1" height="1" fill="#af8c11"/>
  <rect x="2" y="5" width="1" height="1" fill="#858c2cdd"/>
  <rect x="3" y="5" width="1" height="1" fill="#b5bf3d"/>
  <rect x="4" y="5" width="1" height="1" fill="#bac73e"/>
  <rect x="5" y="5" width="1" height="1" fill="#adbf33"/>
  <rect x="6" y="5" width="1" height="1" fill="#abc332"/>
  <rect x="7" y="5" width="1" height="1" fill="#b8cd3e"/>
  <rect x="8" y="5" width="1" height="1" fill="#acbc33"/>
  <rect x="9" y="5" width="1" height="1" fill="#a8b22d"/>
  <rect x="10" y="5" width="1" height="1" fill="#7c8400dd"/>
  <rect x="2" y="6" width="1" height="1" fill="#63861f88"/>
  <rect x="3" y="6" width="1" height="1" fill="#6da00f"/>
  <rect x="4" y="6" width="1" height="1" fill="#96d136"/>
  <rect x="5" y="6" width="1" height="1" fill="#89c92b"/>
  <rect x="6" y="6" width="1" height="1" fill="#81c123"/>
  <rect x="7" y="6" width="1" height="1" fill="#7dbf25"/>
  <rect x="8" y="6" width="1" height="1" fill="#89cd39"/>
  <rect x="9" y="6" width="1" height="1" fill="#6aac1d"/>
  <rect x="10" y="6" width="1" height="1" fill="#55950988"/>
  <rect x="2" y="7" width="1" height="1" fill="#5d863111"/>
  <rect x="3" y="7" width="1" height="1" fill="#52900ecc"/>
  <rect x="4" y="7" width="1" height="1" fill="#62b217"/>
  <rect x="5" y="7" width="1" height="1" fill="#71c722"/>
  <rect x="6" y="7" width="1" height="1" fill="#79cd28"/>
  <rect x="7" y="7" width="1" height="1" fill="#6cc120"/>
  <rect x="8" y="7" width="1" height="1" fill="#53ac11"/>
  <rect x="9" y="7" width="1" height="1" fill="#479b0fcc"/>
  <rect x="10" y="7" width="1" height="1" fill="#488d1a11"/>
  <rect x="4" y="8" width="1" height="1" fill="#48900888"/>
  <rect x="5" y="8" width="1" height="1" fill="#449900dd"/>
  <rect x="6" y="8" width="1" height="1" fill="#4b9c00"/>
  <rect x="7" y="8" width="1" height="1" fill="#4d9c00dd"/>
  <rect x="8" y="8" width="1" height="1" fill="#4b9b0088"/>
  <rect x="2" y="10" width="1" height="1" fill="#5d952044"/>
  <rect x="3" y="10" width="1" height="1" fill="#579217aa"/>
  <rect x="4" y="10" width="1" height="1" fill="#4f9308ee"/>
  <rect x="5" y="10" width="1" height="1" fill="#57931d"/>
  <rect x="8" y="10" width="1" height="1" fill="#4f9014"/>
  <rect x="12" y="10" width="1" height="1" fill="#538d18"/>
  <rect x="0" y="11" width="1" height="1" fill="#46980011"/>
  <rect x="1" y="11" width="1" height="1" fill="#4e9e01bb"/>
  <rect x="2" y="11" width="1" height="1" fill="#5da60e"/>
  <rect x="3" y="11" width="1" height="1" fill="#66ac17"/>
  <rect x="4" y="11" width="1" height="1" fill="#72ba25"/>
  <rect x="5" y="11" width="1" height="1" fill="#73aa3c"/>
  <rect x="8" y="11" width="1" height="1" fill="#508e1c"/>
  <rect x="9" y="11" width="1" height="1" fill="#479900"/>
  <rect x="11" y="11" width="2" height="1" fill="#489800"/>
  <rect x="0" y="12" width="1" height="1" fill="#429600aa"/>
  <rect x="1" y="12" width="1" height="1" fill="#5bad11"/>
  <rect x="2" y="12" width="1" height="1" fill="#71bc1f"/>
  <rect x="3" y="12" width="1" height="1" fill="#70bc1c"/>
  <rect x="4" y="12" width="1" height="1" fill="#5baa09"/>
  <rect x="5" y="12" width="1" height="1" fill="#6aa72e"/>
  <rect x="8" y="12" width="1" height="1" fill="#508f18"/>
  <rect x="10" y="12" width="1" height="1" fill="#479800"/>
  <rect x="12" y="12" width="1" height="1" fill="#459a00"/>
  <rect x="0" y="13" width="1" height="1" fill="#419a00"/>
  <rect x="1" y="13" width="1" height="1" fill="#5db417"/>
  <rect x="2" y="13" width="1" height="1" fill="#6cbd20"/>
  <rect x="3" y="13" width="1" height="1" fill="#62b012"/>
  <rect x="4" y="13" width="1" height="1" fill="#64b516"/>
  <rect x="5" y="13" width="1" height="1" fill="#6baa31"/>
  <rect x="8" y="13" width="1" height="1" fill="#528e18"/>
  <rect x="12" y="13" width="1" height="1" fill="#489608"/>
  <rect x="0" y="14" width="1" height="1" fill="#3ba100"/>
  <rect x="1" y="14" width="1" height="1" fill="#3a9a00"/>
  <rect x="2" y="14" width="1" height="1" fill="#449a00"/>
  <rect x="3" y="14" width="1" height="1" fill="#4e9f09"/>
  <rect x="4" y="14" width="1" height="1" fill="#469500"/>
  <rect x="5" y="14" width="1" height="1" fill="#4f8d1d"/>
  <rect x="8" y="14" width="1" height="1" fill="#558c18"/>
  <rect x="12" y="14" width="1" height="1" fill="#538d1a"/>
</svg>