<svg xmlns="http://www.w3.org/2000/svg" width="15" height="15" viewBox="0 0 15 15" shape-rendering="crispEdges">
  <rect x="4" y="0" width="1" height="1" fill="#03030331"/>
  <rect x="5" y="0" width="1" height="1" fill="#02020262"/>
  <rect x="6" y="0" width="1" height="1" fill="#00000080"/>
  <rect x="7" y="0" width="1" height="1" fill="#0000008c"/>
  <rect x="8" y="0" width="1" height="1" fill="#00000080"/>
  <rect x="9" y="0" width="1" height="1" fill="#00000062"/>
  <rect x="10" y="0" width="1" height="1" fill="#00000031"/>
  <rect x="2" y="1" width="1" height="1" fill="#03030313"/>
  <rect x="3" y="1" width="1" height="1" fill="#03030370"/>
  <rect x="4" y="1" width="7" height="1" fill="#0000008c"/>
  <rect x="11" y="1" width="1" height="1" fill="#00000070"/>
  <rect x="12" y="1" width="1" height="1" fill="#00000013"/>
  <rect x="1" y="2" width="1" height="1" fill="#03030313"/>
  <rect x="2" y="2" width="1" height="1" fill="#02020280"/>
  <rect x="3" y="2" width="9" height="1" fill="#0000008c"/>
  <rect x="12" y="2" width="1" height="1" fill="#00000080"/>
  <rect x="13" y="2" width="1" height="1" fill="#03030313"/>
  <rect x="1" y="3" width="1" height="1" fill="#0303036f"/>
  <rect x="2" y="3" width="11" height="1" fill="#0000008c"/>
  <rect x="13" y="3" width="1" height="1" fill="#0505056f"/>
  <rect x="0" y="4" width="1" height="1" fill="#02020231"/>
  <rect x="1" y="4" width="3" height="2" fill="#0000008c"/>
  <rect x="4" y="4" width="1" height="1" fill="#d4d4d4e2"/>
  <rect x="5" y="4" width="1" height="1" fill="#cfcfcfe2"/>
  <rect x="6" y="4" width="1" height="1" fill="#0101018c"/>
  <rect x="7" y="4" width="2" height="1" fill="#0000008c"/>
  <rect x="9" y="4" width="1" height="1" fill="#cfcfcfe2"/>
  <rect x="10" y="4" width="1" height="1" fill="#cdcdcde2"/>
  <rect x="11" y="4" width="1" height="2" fill="#0303038c"/>
  <rect x="12" y="4" width="2" height="4" fill="#0101018c"/>
  <rect x="14" y="4" width="1" height="1" fill="#01010131"/>
  <rect x="0" y="5" width="1" height="1" fill="#00000064"/>
  <rect x="4" y="5" width="1" height="1" fill="#d6d6d6e2"/>
  <rect x="5" y="5" width="1" height="1" fill="#d3d3d3e2"/>
  <rect x="6" y="5" width="1" height="1" fill="#d4d4d4e2"/>
  <rect x="7" y="5" width="1" height="1" fill="#0000008c"/>
  <rect x="8" y="5" width="1" height="2" fill="#cececee2"/>
  <rect x="9" y="5" width="1" height="1" fill="#d2d2d2e2"/>
  <rect x="10" y="5" width="1" height="1" fill="#d4d4d4e2"/>
  <rect x="14" y="5" width="1" height="1" fill="#01010164"/>
  <rect x="0" y="6" width="1" height="1" fill="#00000081"/>
  <rect x="1" y="6" width="4" height="1" fill="#0000008c"/>
  <rect x="5" y="6" width="1" height="1" fill="#d4d4d4e2"/>
  <rect x="6" y="6" width="1" height="1" fill="#d3d3d3e2"/>
  <rect x="7" y="6" width="1" height="1" fill="#d6d6d6e2"/>
  <rect x="9" y="6" width="1" height="1" fill="#d4d4d4e2"/>
  <rect x="10" y="6" width="1" height="1" fill="#0000008c"/>
  <rect x="11" y="6" width="1" height="1" fill="#0505058c"/>
  <rect x="14" y="6" width="1" height="1" fill="#0101017e"/>
  <rect x="0" y="7" width="5" height="1" fill="#0000008c"/>
  <rect x="5" y="7" width="1" height="1" fill="#0101018c"/>
  <rect x="6" y="7" width="1" height="1" fill="#cfcfcfe2"/>
  <rect x="7" y="7" width="1" height="1" fill="#d4d4d4e2"/>
  <rect x="8" y="7" width="1" height="1" fill="#cfcfcfe2"/>
  <rect x="9" y="7" width="1" height="1" fill="#0505058c"/>
  <rect x="10" y="7" width="1" height="1" fill="#0303038c"/>
  <rect x="11" y="7" width="1" height="1" fill="#0000008c"/>
  <rect x="14" y="7" width="1" height="1" fill="#01010189"/>
  <rect x="0" y="8" width="1" height="1" fill="#00000081"/>
  <rect x="1" y="8" width="3" height="3" fill="#0000008c"/>
  <rect x="4" y="8" width="1" height="1" fill="#0202028c"/>
  <rect x="5" y="8" width="1" height="1" fill="#cfcfcfe2"/>
  <rect x="6" y="8" width="1" height="1" fill="#d3d3d3e2"/>
  <rect x="7" y="8" width="2" height="1" fill="#d2d2d2e2"/>
  <rect x="9" y="8" width="1" height="1" fill="#cfcfcfe2"/>
  <rect x="10" y="8" width="1" height="1" fill="#0505058c"/>
  <rect x="11" y="8" width="3" height="1" fill="#0000008c"/>
  <rect x="14" y="8" width="1" height="1" fill="#0000007e"/>
  <rect x="0" y="9" width="1" height="1" fill="#00000064"/>
  <rect x="4" y="9" width="1" height="1" fill="#d6d6d6e2"/>
  <rect x="5" y="9" width="1" height="1" fill="#dcdcdce2"/>
  <rect x="6" y="9" width="1" height="1" fill="#cfcfcfe2"/>
  <rect x="7" y="9" width="1" height="1" fill="#0202028c"/>
  <rect x="8" y="9" width="1" height="1" fill="#cececee2"/>
  <rect x="9" y="9" width="1" height="1" fill="#d7d7d7e2"/>
  <rect x="10" y="9" width="1" height="1" fill="#d4d4d4e2"/>
  <rect x="11" y="9" width="1" height="1" fill="#0606068c"/>
  <rect x="12" y="9" width="2" height="2" fill="#0000008c"/>
  <rect x="14" y="9" width="1" height="1" fill="#00000064"/>
  <rect x="0" y="10" width="1" height="1" fill="#00000031"/>
  <rect x="4" y="10" width="1" height="1" fill="#d4d4d4e2"/>
  <rect x="5" y="10" width="1" height="1" fill="#d3d3d3e2"/>
  <rect x="6" y="10" width="2" height="1" fill="#0000008c"/>
  <rect x="8" y="10" width="1" height="1" fill="#0303038c"/>
  <rect x="9" y="10" width="1" height="1" fill="#d4d4d4e2"/>
  <rect x="10" y="10" width="1" height="1" fill="#d5d5d5e2"/>
  <rect x="11" y="10" width="1" height="1" fill="#0101018c"/>
  <rect x="14" y="10" width="1" height="1" fill="#00000031"/>
  <rect x="1" y="11" width="1" height="1" fill="#0000006f"/>
  <rect x="2" y="11" width="3" height="1" fill="#0000008c"/>
  <rect x="5" y="11" width="1" height="1" fill="#0303038c"/>
  <rect x="6" y="11" width="1" height="1" fill="#0707078c"/>
  <rect x="7" y="11" width="1" height="1" fill="#0101018c"/>
  <rect x="8" y="11" width="1" height="1" fill="#0000008c"/>
  <rect x="9" y="11" width="1" height="1" fill="#0505058c"/>
  <rect x="10" y="11" width="1" height="1" fill="#0101018c"/>
  <rect x="11" y="11" width="1" height="1" fill="#0909098c"/>
  <rect x="12" y="11" width="1" height="1" fill="#0000008c"/>
  <rect x="13" y="11" width="1" height="1" fill="#0000006f"/>
  <rect x="1" y="12" width="1" height="1" fill="#00000013"/>
  <rect x="2" y="12" width="1" height="1" fill="#00000080"/>
  <rect x="3" y="12" width="1" height="1" fill="#0000008c"/>
  <rect x="4" y="12" width="4" height="2" fill="#0101018c"/>
  <rect x="8" y="12" width="4" height="1" fill="#0000008c"/>
  <rect x="12" y="12" width="1" height="1" fill="#00000080"/>
  <rect x="13" y="12" width="1" height="1" fill="#00000013"/>
  <rect x="2" y="13" width="1" height="1" fill="#03030313"/>
  <rect x="3" y="13" width="1" height="1" fill="#03030370"/>
  <rect x="8" y="13" width="3" height="1" fill="#0000008c"/>
  <rect x="11" y="13" width="1" height="1" fill="#00000070"/>
  <rect x="12" y="13" width="1" height="1" fill="#00000013"/>
  <rect x="4" y="14" width="1" height="1" fill="#01010131"/>
  <rect x="5" y="14" width="1" height="1" fill="#01010162"/>
  <rect x="6" y="14" width="1" height="1" fill="#0101017e"/>
  <rect x="7" y="14" width="1" height="1" fill="#01010189"/>
  <rect x="8" y="14" width="1" height="1" fill="#0000007e"/>
  <rect x="9" y="14" width="1" height="1" fill="#00000062"/>
  <rect x="10" y="14" width="1" height="1" fill="#00000031"/>
</svg>