<svg xmlns="http://www.w3.org/2000/svg" width="20" height="20" viewBox="0 0 20 20" shape-rendering="crispEdges">
  <rect x="5" y="0" width="1" height="1" fill="#9b9b9b0c"/>
  <rect x="6" y="0" width="1" height="1" fill="#9b9b9b66"/>
  <rect x="7" y="0" width="1" height="1" fill="#9a9a9ab5"/>
  <rect x="8" y="0" width="1" height="1" fill="#999999e9"/>
  <rect x="9" y="0" width="1" height="4" fill="#979797"/>
  <rect x="10" y="0" width="1" height="1" fill="#999999"/>
  <rect x="11" y="0" width="1" height="1" fill="#999999e6"/>
  <rect x="12" y="0" width="1" height="1" fill="#9a9a9ab2"/>
  <rect x="13" y="0" width="1" height="1" fill="#9a9a9a60"/>
  <rect x="4" y="1" width="1" height="1" fill="#9b9b9b65"/>
  <rect x="5" y="1" width="1" height="1" fill="#9b9b9beb"/>
  <rect x="6" y="1" width="1" height="1" fill="#9b9b9b"/>
  <rect x="7" y="1" width="1" height="3" fill="#9a9a9a"/>
  <rect x="8" y="1" width="1" height="3" fill="#999999"/>
  <rect x="10" y="1" width="2" height="3" fill="#999999"/>
  <rect x="12" y="1" width="2" height="1" fill="#9a9a9a"/>
  <rect x="14" y="1" width="1" height="1" fill="#9a9a9ae6"/>
  <rect x="15" y="1" width="1" height="1" fill="#9a9a9a5a"/>
  <rect x="3" y="2" width="1" height="1" fill="#9b9b9ba3"/>
  <rect x="4" y="2" width="3" height="1" fill="#9b9b9b"/>
  <rect x="12" y="2" width="4" height="1" fill="#9a9a9a"/>
  <rect x="16" y="2" width="1" height="1" fill="#9a9a9a97"/>
  <rect x="2" y="3" width="1" height="1" fill="#9b9b9b9c"/>
  <rect x="3" y="3" width="2" height="1" fill="#9b9b9b"/>
  <rect x="5" y="3" width="1" height="2" fill="#9a9a9a"/>
  <rect x="6" y="3" width="1" height="1" fill="#9b9b9b"/>
  <rect x="12" y="3" width="2" height="1" fill="#9a9a9a"/>
  <rect x="14" y="3" width="1" height="1" fill="#999999"/>
  <rect x="15" y="3" width="1" height="1" fill="#9a9a9a"/>
  <rect x="16" y="3" width="1" height="1" fill="#999999"/>
  <rect x="17" y="3" width="1" height="1" fill="#9999998d"/>
  <rect x="1" y="4" width="1" height="1" fill="#9b9b9b66"/>
  <rect x="2" y="4" width="2" height="1" fill="#9b9b9b"/>
  <rect x="4" y="4" width="1" height="1" fill="#949494"/>
  <rect x="6" y="4" width="1" height="1" fill="#8f8f8f"/>
  <rect x="7" y="4" width="1" height="1" fill="#9d9d9d"/>
  <rect x="8" y="4" width="1" height="1" fill="#a4a4a4"/>
  <rect x="9" y="4" width="2" height="1" fill="#e4e4e4"/>
  <rect x="11" y="4" width="1" height="1" fill="#a4a4a4"/>
  <rect x="12" y="4" width="1" height="1" fill="#9c9c9c"/>
  <rect x="13" y="4" width="1" height="1" fill="#9d9d9d"/>
  <rect x="14" y="4" width="1" height="1" fill="#969696"/>
  <rect x="15" y="4" width="3" height="1" fill="#999999"/>
  <rect x="18" y="4" width="1" height="1" fill="#99999957"/>
  <rect x="0" y="5" width="1" height="1" fill="#9b9b9b0e"/>
  <rect x="1" y="5" width="1" height="1" fill="#9b9b9bee"/>
  <rect x="2" y="5" width="1" height="1" fill="#9b9b9b"/>
  <rect x="3" y="5" width="1" height="1" fill="#9d9d9d"/>
  <rect x="4" y="5" width="1" height="1" fill="#9e9e9e"/>
  <rect x="5" y="5" width="1" height="2" fill="#9b9b9b"/>
  <rect x="6" y="5" width="1" height="1" fill="#959595"/>
  <rect x="7" y="5" width="1" height="1" fill="#9c9c9c"/>
  <rect x="8" y="5" width="1" height="1" fill="#e9e9e9"/>
  <rect x="9" y="5" width="2" height="1" fill="#eaeaea"/>
  <rect x="11" y="5" width="1" height="1" fill="#e9e9e9"/>
  <rect x="12" y="5" width="1" height="1" fill="#d2d2d2"/>
  <rect x="13" y="5" width="1" height="1" fill="#bdbdbd"/>
  <rect x="14" y="5" width="1" height="1" fill="#999999"/>
  <rect x="15" y="5" width="1" height="1" fill="#9b9b9b"/>
  <rect x="16" y="5" width="2" height="1" fill="#999999"/>
  <rect x="18" y="5" width="1" height="1" fill="#999999e3"/>
  <rect x="0" y="6" width="1" height="1" fill="#9b9b9b6b"/>
  <rect x="1" y="6" width="3" height="1" fill="#9b9b9b"/>
  <rect x="4" y="6" width="1" height="1" fill="#939393"/>
  <rect x="6" y="6" width="1" height="1" fill="#a4a4a4"/>
  <rect x="7" y="6" width="1" height="1" fill="#e5e5e5"/>
  <rect x="8" y="6" width="1" height="1" fill="#f2f2f2"/>
  <rect x="9" y="6" width="2" height="1" fill="#bdbdbd"/>
  <rect x="11" y="6" width="1" height="1" fill="#f2f2f2"/>
  <rect x="12" y="6" width="1" height="1" fill="#fefefe"/>
  <rect x="13" y="6" width="1" height="1" fill="#dbdbdb"/>
  <rect x="14" y="6" width="1" height="1" fill="#939393"/>
  <rect x="15" y="6" width="1" height="1" fill="#969696"/>
  <rect x="16" y="6" width="3" height="6" fill="#999999"/>
  <rect x="19" y="6" width="1" height="1" fill="#9999995c"/>
  <rect x="0" y="7" width="1" height="1" fill="#9a9a9abb"/>
  <rect x="1" y="7" width="3" height="1" fill="#9a9a9a"/>
  <rect x="4" y="7" width="1" height="1" fill="#929292"/>
  <rect x="5" y="7" width="1" height="1" fill="#a0a0a0"/>
  <rect x="6" y="7" width="1" height="1" fill="#eeeeee"/>
  <rect x="7" y="7" width="1" height="1" fill="#f2f2f2"/>
  <rect x="8" y="7" width="1" height="1" fill="#bbbbbb"/>
  <rect x="9" y="7" width="2" height="1" fill="#f7f7f7"/>
  <rect x="11" y="7" width="1" height="1" fill="#bbbbbb"/>
  <rect x="12" y="7" width="1" height="1" fill="#ebebeb"/>
  <rect x="13" y="7" width="1" height="1" fill="#f3f3f3"/>
  <rect x="14" y="7" width="1" height="1" fill="#969696"/>
  <rect x="15" y="7" width="1" height="1" fill="#8f8f8f"/>
  <rect x="19" y="7" width="1" height="1" fill="#999999ab"/>
  <rect x="0" y="8" width="1" height="1" fill="#999999ef"/>
  <rect x="1" y="8" width="3" height="1" fill="#999999"/>
  <rect x="4" y="8" width="1" height="1" fill="#a2a2a2"/>
  <rect x="5" y="8" width="1" height="1" fill="#e9e9e9"/>
  <rect x="6" y="8" width="1" height="1" fill="#efefef"/>
  <rect x="7" y="8" width="1" height="1" fill="#c2c2c2"/>
  <rect x="8" y="8" width="4" height="5" fill="#ffffff"/>
  <rect x="12" y="8" width="1" height="1" fill="#bababa"/>
  <rect x="13" y="8" width="1" height="1" fill="#f0f0f0"/>
  <rect x="14" y="8" width="1" height="1" fill="#ececec"/>
  <rect x="15" y="8" width="1" height="1" fill="#9b9b9b"/>
  <rect x="19" y="8" width="1" height="1" fill="#999999e0"/>
  <rect x="0" y="9" width="4" height="2" fill="#979797"/>
  <rect x="4" y="9" width="1" height="1" fill="#ebebeb"/>
  <rect x="5" y="9" width="1" height="1" fill="#f7f7f7"/>
  <rect x="6" y="9" width="1" height="1" fill="#bdbdbd"/>
  <rect x="7" y="9" width="1" height="1" fill="#f8f8f8"/>
  <rect x="12" y="9" width="1" height="1" fill="#f6f6f6"/>
  <rect x="13" y="9" width="1" height="1" fill="#bbbbbb"/>
  <rect x="14" y="9" width="1" height="1" fill="#f6f6f6"/>
  <rect x="15" y="9" width="1" height="1" fill="#e1e1e1"/>
  <rect x="19" y="9" width="1" height="2" fill="#999999f9"/>
  <rect x="4" y="10" width="1" height="1" fill="#c0c0c0"/>
  <rect x="5" y="10" width="1" height="1" fill="#bebebe"/>
  <rect x="6" y="10" width="1" height="1" fill="#f9f9f9"/>
  <rect x="7" y="10" width="1" height="1" fill="#fdfdfd"/>
  <rect x="12" y="10" width="1" height="1" fill="#f9f9f9"/>
  <rect x="13" y="10" width="1" height="1" fill="#f7f7f7"/>
  <rect x="14" y="10" width="2" height="1" fill="#bebebe"/>
  <rect x="0" y="11" width="1" height="1" fill="#979797ef"/>
  <rect x="1" y="11" width="1" height="1" fill="#999999"/>
  <rect x="2" y="11" width="2" height="1" fill="#979797"/>
  <rect x="4" y="11" width="1" height="1" fill="#9a9a9a"/>
  <rect x="5" y="11" width="1" height="1" fill="#ececec"/>
  <rect x="6" y="11" width="1" height="1" fill="#fefefe"/>
  <rect x="7" y="11" width="1" height="1" fill="#f9f9f9"/>
  <rect x="12" y="11" width="1" height="1" fill="#fdfdfd"/>
  <rect x="13" y="11" width="1" height="1" fill="#ffffff"/>
  <rect x="14" y="11" width="1" height="1" fill="#f8f8f8"/>
  <rect x="15" y="11" width="1" height="1" fill="#a9a9a9"/>
  <rect x="19" y="11" width="1" height="1" fill="#999999e0"/>
  <rect x="0" y="12" width="1" height="1" fill="#939393bc"/>
  <rect x="1" y="12" width="1" height="1" fill="#9b9b9b"/>
  <rect x="2" y="12" width="1" height="1" fill="#9a9a9a"/>
  <rect x="3" y="12" width="1" height="1" fill="#8c8c8c"/>
  <rect x="4" y="12" width="1" height="1" fill="#999999"/>
  <rect x="5" y="12" width="1" height="1" fill="#fcfbfc"/>
  <rect x="6" y="12" width="1" height="1" fill="#ffffff"/>
  <rect x="7" y="12" width="1" height="1" fill="#fdfdfd"/>
  <rect x="12" y="12" width="3" height="4" fill="#fdfdfd"/>
  <rect x="15" y="12" width="4" height="2" fill="#999999"/>
  <rect x="19" y="12" width="1" height="1" fill="#999999ab"/>
  <rect x="0" y="13" width="1" height="1" fill="#9393936c"/>
  <rect x="1" y="13" width="1" height="1" fill="#9a9a9a"/>
  <rect x="2" y="13" width="1" height="1" fill="#9c9c9c"/>
  <rect x="3" y="13" width="2" height="1" fill="#9a9a9a"/>
  <rect x="5" y="13" width="1" height="1" fill="#fefefe"/>
  <rect x="6" y="13" width="3" height="1" fill="#ffffff"/>
  <rect x="9" y="13" width="2" height="1" fill="#929292"/>
  <rect x="11" y="13" width="1" height="3" fill="#ffffff"/>
  <rect x="19" y="13" width="1" height="1" fill="#9999995c"/>
  <rect x="0" y="14" width="1" height="1" fill="#a3a3a30e"/>
  <rect x="1" y="14" width="1" height="1" fill="#9c9c9cee"/>
  <rect x="2" y="14" width="1" height="1" fill="#9a9a9a"/>
  <rect x="3" y="14" width="1" height="1" fill="#9d9d9d"/>
  <rect x="4" y="14" width="1" height="1" fill="#999999"/>
  <rect x="5" y="14" width="1" height="1" fill="#fdfdfd"/>
  <rect x="6" y="14" width="1" height="2" fill="#ffffff"/>
  <rect x="7" y="14" width="1" height="1" fill="#fefefe"/>
  <rect x="8" y="14" width="1" height="2" fill="#ffffff"/>
  <rect x="9" y="14" width="2" height="1" fill="#9a9a9a"/>
  <rect x="15" y="14" width="3" height="2" fill="#999999"/>
  <rect x="18" y="14" width="1" height="1" fill="#999999e3"/>
  <rect x="1" y="15" width="1" height="1" fill="#a3a3a367"/>
  <rect x="2" y="15" width="1" height="1" fill="#939393"/>
  <rect x="3" y="15" width="1" height="1" fill="#949494"/>
  <rect x="4" y="15" width="1" height="1" fill="#969696"/>
  <rect x="5" y="15" width="1" height="1" fill="#f9f9f9"/>
  <rect x="7" y="15" width="1" height="1" fill="#f9f9f9"/>
  <rect x="9" y="15" width="2" height="1" fill="#949494"/>
  <rect x="18" y="15" width="1" height="1" fill="#99999957"/>
  <rect x="2" y="16" width="1" height="1" fill="#9999999d"/>
  <rect x="3" y="16" width="1" height="1" fill="#999999"/>
  <rect x="4" y="16" width="1" height="1" fill="#979797"/>
  <rect x="5" y="16" width="12" height="1" fill="#999999"/>
  <rect x="17" y="16" width="1" height="1" fill="#9999998d"/>
  <rect x="3" y="17" width="1" height="1" fill="#999999a5"/>
  <rect x="4" y="17" width="12" height="1" fill="#999999"/>
  <rect x="16" y="17" width="1" height="1" fill="#99999997"/>
  <rect x="4" y="18" width="1" height="1" fill="#99999965"/>
  <rect x="5" y="18" width="1" height="1" fill="#999999eb"/>
  <rect x="6" y="18" width="8" height="1" fill="#999999"/>
  <rect x="14" y="18" width="1" height="1" fill="#999999e6"/>
  <rect x="15" y="18" width="1" height="1" fill="#9999995b"/>
  <rect x="5" y="19" width="1" height="1" fill="#9999990c"/>
  <rect x="6" y="19" width="1" height="1" fill="#99999966"/>
  <rect x="7" y="19" width="1" height="1" fill="#999999b5"/>
  <rect x="8" y="19" width="1" height="1" fill="#999999ea"/>
  <rect x="9" y="19" width="2" height="1" fill="#999999"/>
  <rect x="11" y="19" width="1" height="1" fill="#999999e6"/>
  <rect x="12" y="19" width="1" height="1" fill="#999999b2"/>
  <rect x="13" y="19" width="1" height="1" fill="#99999960"/>
</svg>