<svg xmlns="http://www.w3.org/2000/svg" width="56" height="14" viewBox="0 0 56 14" shape-rendering="crispEdges">
  <rect x="3" y="0" width="1" height="1" fill="#c2c2c21b"/>
  <rect x="4" y="0" width="1" height="1" fill="#bebebe86"/>
  <rect x="5" y="0" width="1" height="1" fill="#bebebed2"/>
  <rect x="6" y="0" width="2" height="1" fill="#bebebef6"/>
  <rect x="8" y="0" width="1" height="1" fill="#bebebed2"/>
  <rect x="9" y="0" width="1" height="1" fill="#bebebe86"/>
  <rect x="10" y="0" width="1" height="1" fill="#bebebe1c"/>
  <rect x="17" y="0" width="1" height="1" fill="#9d9d9d1b"/>
  <rect x="18" y="0" width="1" height="1" fill="#99999986"/>
  <rect x="19" y="0" width="1" height="1" fill="#959595d2"/>
  <rect x="20" y="0" width="2" height="1" fill="#979797f6"/>
  <rect x="22" y="0" width="1" height="1" fill="#979797d2"/>
  <rect x="23" y="0" width="1" height="1" fill="#97979786"/>
  <rect x="24" y="0" width="1" height="1" fill="#9797971c"/>
  <rect x="31" y="0" width="1" height="1" fill="#9797971b"/>
  <rect x="32" y="0" width="1" height="1" fill="#97979786"/>
  <rect x="33" y="0" width="1" height="1" fill="#979797d2"/>
  <rect x="34" y="0" width="2" height="1" fill="#979797f6"/>
  <rect x="36" y="0" width="1" height="1" fill="#979797d2"/>
  <rect x="37" y="0" width="1" height="1" fill="#97979786"/>
  <rect x="38" y="0" width="1" height="1" fill="#9797971c"/>
  <rect x="45" y="0" width="1" height="1" fill="#c7c7c71b"/>
  <rect x="46" y="0" width="1" height="1" fill="#c8c8c886"/>
  <rect x="47" y="0" width="1" height="1" fill="#c8c8c8d2"/>
  <rect x="48" y="0" width="2" height="1" fill="#c8c8c8f6"/>
  <rect x="50" y="0" width="1" height="1" fill="#c9c9c9d2"/>
  <rect x="51" y="0" width="1" height="1" fill="#c9c9c986"/>
  <rect x="52" y="0" width="1" height="1" fill="#c9c9c91c"/>
  <rect x="2" y="1" width="1" height="1" fill="#c2c2c257"/>
  <rect x="3" y="1" width="1" height="1" fill="#c0c0c0f3"/>
  <rect x="4" y="1" width="6" height="1" fill="#bebebe"/>
  <rect x="10" y="1" width="1" height="1" fill="#bebebef3"/>
  <rect x="11" y="1" width="1" height="1" fill="#bebebe57"/>
  <rect x="16" y="1" width="1" height="1" fill="#9c9c9c57"/>
  <rect x="17" y="1" width="1" height="1" fill="#9b9b9bf3"/>
  <rect x="18" y="1" width="1" height="1" fill="#9a9a9a"/>
  <rect x="19" y="1" width="1" height="1" fill="#999999"/>
  <rect x="20" y="1" width="4" height="1" fill="#979797"/>
  <rect x="24" y="1" width="1" height="1" fill="#979797f3"/>
  <rect x="25" y="1" width="1" height="1" fill="#97979757"/>
  <rect x="30" y="1" width="1" height="1" fill="#97979757"/>
  <rect x="31" y="1" width="1" height="1" fill="#979797f3"/>
  <rect x="32" y="1" width="6" height="1" fill="#979797"/>
  <rect x="38" y="1" width="1" height="1" fill="#979797f3"/>
  <rect x="39" y="1" width="1" height="1" fill="#97979757"/>
  <rect x="44" y="1" width="1" height="1" fill="#cfcfcf57"/>
  <rect x="45" y="1" width="1" height="1" fill="#d2d2d2f3"/>
  <rect x="46" y="1" width="4" height="1" fill="#d3d3d3"/>
  <rect x="50" y="1" width="2" height="1" fill="#d4d4d4"/>
  <rect x="52" y="1" width="1" height="1" fill="#cbcbcbf3"/>
  <rect x="53" y="1" width="1" height="1" fill="#cdcdcd57"/>
  <rect x="1" y="2" width="1" height="1" fill="#c2c2c257"/>
  <rect x="2" y="2" width="1" height="1" fill="#bfbfbffe"/>
  <rect x="3" y="2" width="2" height="1" fill="#bebebe"/>
  <rect x="5" y="2" width="6" height="2" fill="#bfbfbf"/>
  <rect x="11" y="2" width="1" height="1" fill="#bfbfbffe"/>
  <rect x="12" y="2" width="1" height="1" fill="#c0c0c057"/>
  <rect x="15" y="2" width="1" height="1" fill="#9d9d9d57"/>
  <rect x="16" y="2" width="1" height="1" fill="#999999fe"/>
  <rect x="17" y="2" width="1" height="1" fill="#9a9a9a"/>
  <rect x="18" y="2" width="1" height="1" fill="#9b9b9b"/>
  <rect x="19" y="2" width="1" height="1" fill="#9d9d9d"/>
  <rect x="20" y="2" width="5" height="1" fill="#979797"/>
  <rect x="25" y="2" width="1" height="1" fill="#979797fe"/>
  <rect x="26" y="2" width="1" height="1" fill="#97979757"/>
  <rect x="29" y="2" width="1" height="1" fill="#97979757"/>
  <rect x="30" y="2" width="1" height="1" fill="#979797fe"/>
  <rect x="31" y="2" width="8" height="1" fill="#979797"/>
  <rect x="39" y="2" width="1" height="1" fill="#979797fe"/>
  <rect x="40" y="2" width="1" height="1" fill="#99999957"/>
  <rect x="43" y="2" width="1" height="1" fill="#c8c8c857"/>
  <rect x="44" y="2" width="1" height="1" fill="#cfcfcffe"/>
  <rect x="45" y="2" width="1" height="1" fill="#cfcfcf"/>
  <rect x="46" y="2" width="4" height="1" fill="#d0d0d0"/>
  <rect x="50" y="2" width="2" height="1" fill="#d2d2d2"/>
  <rect x="52" y="2" width="1" height="1" fill="#cfcfcf"/>
  <rect x="53" y="2" width="1" height="1" fill="#cbcbcbfe"/>
  <rect x="54" y="2" width="1" height="1" fill="#cecece57"/>
  <rect x="0" y="3" width="1" height="1" fill="#c2c2c21c"/>
  <rect x="1" y="3" width="1" height="1" fill="#bfbfbff3"/>
  <rect x="2" y="3" width="2" height="1" fill="#bdbdbd"/>
  <rect x="4" y="3" width="1" height="1" fill="#bebebe"/>
  <rect x="11" y="3" width="1" height="1" fill="#bebebe"/>
  <rect x="12" y="3" width="1" height="1" fill="#c1c1c1f3"/>
  <rect x="13" y="3" width="1" height="1" fill="#bababa1c"/>
  <rect x="14" y="3" width="1" height="1" fill="#9d9d9d1c"/>
  <rect x="15" y="3" width="1" height="1" fill="#9e9e9ef3"/>
  <rect x="16" y="3" width="1" height="3" fill="#959595"/>
  <rect x="17" y="3" width="1" height="1" fill="#979797"/>
  <rect x="18" y="3" width="1" height="1" fill="#9d9d9d"/>
  <rect x="19" y="3" width="1" height="1" fill="#a1a1a1"/>
  <rect x="20" y="3" width="6" height="1" fill="#979797"/>
  <rect x="26" y="3" width="1" height="1" fill="#979797f3"/>
  <rect x="27" y="3" width="2" height="1" fill="#9797971c"/>
  <rect x="29" y="3" width="1" height="1" fill="#979797f3"/>
  <rect x="30" y="3" width="2" height="1" fill="#979797"/>
  <rect x="32" y="3" width="1" height="1" fill="#9a9a9a"/>
  <rect x="33" y="3" width="6" height="1" fill="#979797"/>
  <rect x="39" y="3" width="1" height="1" fill="#9a9a9a"/>
  <rect x="40" y="3" width="1" height="1" fill="#9a9a9af3"/>
  <rect x="41" y="3" width="1" height="1" fill="#9999991c"/>
  <rect x="42" y="3" width="1" height="1" fill="#c6c6c61c"/>
  <rect x="43" y="3" width="1" height="1" fill="#c9c9c9f3"/>
  <rect x="44" y="3" width="1" height="1" fill="#d2d2d2"/>
  <rect x="45" y="3" width="1" height="1" fill="#d0d0d0"/>
  <rect x="46" y="3" width="4" height="1" fill="#d2d2d2"/>
  <rect x="50" y="3" width="3" height="1" fill="#d3d3d3"/>
  <rect x="53" y="3" width="1" height="1" fill="#cfcfcf"/>
  <rect x="54" y="3" width="1" height="1" fill="#ccccccf3"/>
  <rect x="55" y="3" width="1" height="1" fill="#cbcbcb1c"/>
  <rect x="0" y="4" width="1" height="1" fill="#c0c0c08a"/>
  <rect x="1" y="4" width="3" height="1" fill="#bdbdbd"/>
  <rect x="4" y="4" width="2" height="1" fill="#ffffff"/>
  <rect x="6" y="4" width="1" height="1" fill="#c1c1c1"/>
  <rect x="7" y="4" width="1" height="1" fill="#bebebe"/>
  <rect x="8" y="4" width="2" height="1" fill="#ffffff"/>
  <rect x="10" y="4" width="2" height="1" fill="#bebebe"/>
  <rect x="12" y="4" width="1" height="1" fill="#bfbfbf"/>
  <rect x="13" y="4" width="1" height="1" fill="#c2c2c28a"/>
  <rect x="14" y="4" width="1" height="1" fill="#9a9a9a8a"/>
  <rect x="15" y="4" width="1" height="1" fill="#979797"/>
  <rect x="17" y="4" width="1" height="1" fill="#9d9d9d"/>
  <rect x="18" y="4" width="1" height="1" fill="#f7f7f7"/>
  <rect x="19" y="4" width="1" height="1" fill="#ffffff"/>
  <rect x="20" y="4" width="1" height="1" fill="#969696"/>
  <rect x="21" y="4" width="1" height="1" fill="#9b9b9b"/>
  <rect x="22" y="4" width="2" height="1" fill="#fefefe"/>
  <rect x="24" y="4" width="3" height="6" fill="#979797"/>
  <rect x="27" y="4" width="2" height="1" fill="#9797978a"/>
  <rect x="29" y="4" width="3" height="6" fill="#979797"/>
  <rect x="32" y="4" width="1" height="1" fill="#9c9c9c"/>
  <rect x="33" y="4" width="1" height="1" fill="#9d9d9d"/>
  <rect x="34" y="4" width="1" height="1" fill="#8d8d8d"/>
  <rect x="35" y="4" width="2" height="1" fill="#969696"/>
  <rect x="37" y="4" width="1" height="1" fill="#8d8d8d"/>
  <rect x="38" y="4" width="2" height="1" fill="#9d9d9d"/>
  <rect x="40" y="4" width="1" height="1" fill="#9c9c9c"/>
  <rect x="41" y="4" width="1" height="1" fill="#9e9e9e8a"/>
  <rect x="42" y="4" width="1" height="1" fill="#c7c7c78a"/>
  <rect x="43" y="4" width="1" height="1" fill="#d7d7d7"/>
  <rect x="44" y="4" width="1" height="1" fill="#d3d3d3"/>
  <rect x="45" y="4" width="1" height="1" fill="#d7d7d7"/>
  <rect x="46" y="4" width="1" height="1" fill="#fafafa"/>
  <rect x="47" y="4" width="1" height="1" fill="#f5f5f5"/>
  <rect x="48" y="4" width="1" height="1" fill="#d3d3d3"/>
  <rect x="49" y="4" width="1" height="1" fill="#d5d5d5"/>
  <rect x="50" y="4" width="1" height="2" fill="#fcfbfc"/>
  <rect x="51" y="4" width="1" height="1" fill="#f7f7f7"/>
  <rect x="52" y="4" width="1" height="4" fill="#d3d3d3"/>
  <rect x="53" y="4" width="1" height="4" fill="#d5d5d5"/>
  <rect x="54" y="4" width="1" height="4" fill="#d3d3d3"/>
  <rect x="55" y="4" width="1" height="1" fill="#cdcdcd8a"/>
  <rect x="0" y="5" width="1" height="1" fill="#bdbdbdd6"/>
  <rect x="1" y="5" width="1" height="1" fill="#bdbdbd"/>
  <rect x="2" y="5" width="1" height="1" fill="#bebebe"/>
  <rect x="3" y="5" width="1" height="1" fill="#bfbfbf"/>
  <rect x="4" y="5" width="1" height="1" fill="#b9b9b9"/>
  <rect x="5" y="5" width="4" height="1" fill="#ffffff"/>
  <rect x="9" y="5" width="1" height="1" fill="#bebebe"/>
  <rect x="10" y="5" width="1" height="1" fill="#bfbfbf"/>
  <rect x="11" y="5" width="1" height="1" fill="#c0c0c0"/>
  <rect x="12" y="5" width="1" height="1" fill="#c1c1c1"/>
  <rect x="13" y="5" width="1" height="1" fill="#c5c5c5d6"/>
  <rect x="14" y="5" width="1" height="1" fill="#9c9c9cd6"/>
  <rect x="15" y="5" width="1" height="1" fill="#9a9a9a"/>
  <rect x="17" y="5" width="2" height="1" fill="#969696"/>
  <rect x="19" y="5" width="1" height="1" fill="#f8f8f8"/>
  <rect x="20" y="5" width="1" height="1" fill="#fdfdfd"/>
  <rect x="21" y="5" width="1" height="1" fill="#f3f3f3"/>
  <rect x="22" y="5" width="1" height="1" fill="#ffffff"/>
  <rect x="23" y="5" width="1" height="1" fill="#999999"/>
  <rect x="27" y="5" width="2" height="1" fill="#979797d6"/>
  <rect x="32" y="5" width="1" height="1" fill="#999999"/>
  <rect x="33" y="5" width="1" height="1" fill="#fefefe"/>
  <rect x="34" y="5" width="1" height="1" fill="#f8f8f8"/>
  <rect x="35" y="5" width="2" height="1" fill="#9e9e9e"/>
  <rect x="37" y="5" width="1" height="1" fill="#f8f8f8"/>
  <rect x="38" y="5" width="1" height="1" fill="#fefefe"/>
  <rect x="39" y="5" width="1" height="1" fill="#9a9a9a"/>
  <rect x="40" y="5" width="1" height="1" fill="#969696"/>
  <rect x="41" y="5" width="1" height="1" fill="#999999d6"/>
  <rect x="42" y="5" width="1" height="1" fill="#c6c6c6d6"/>
  <rect x="43" y="5" width="1" height="1" fill="#d2d2d2"/>
  <rect x="44" y="5" width="1" height="1" fill="#d4d4d4"/>
  <rect x="45" y="5" width="1" height="1" fill="#e1e1e1"/>
  <rect x="46" y="5" width="1" height="1" fill="#d2d2d2"/>
  <rect x="47" y="5" width="1" height="1" fill="#fcfbfc"/>
  <rect x="48" y="5" width="1" height="1" fill="#f8f8f8"/>
  <rect x="49" y="5" width="1" height="1" fill="#f6f6f6"/>
  <rect x="51" y="5" width="1" height="1" fill="#d5d5d5"/>
  <rect x="55" y="5" width="1" height="1" fill="#cdcdcdd6"/>
  <rect x="0" y="6" width="1" height="1" fill="#bdbdbdfb"/>
  <rect x="1" y="6" width="1" height="1" fill="#bebebe"/>
  <rect x="2" y="6" width="2" height="1" fill="#bfbfbf"/>
  <rect x="4" y="6" width="1" height="1" fill="#bebebe"/>
  <rect x="5" y="6" width="1" height="1" fill="#bababa"/>
  <rect x="6" y="6" width="1" height="1" fill="#f3f3f3"/>
  <rect x="7" y="6" width="1" height="2" fill="#ffffff"/>
  <rect x="8" y="6" width="1" height="2" fill="#bebebe"/>
  <rect x="9" y="6" width="1" height="2" fill="#bfbfbf"/>
  <rect x="10" y="6" width="1" height="1" fill="#cccccc"/>
  <rect x="11" y="6" width="1" height="1" fill="#bebebe"/>
  <rect x="12" y="6" width="1" height="1" fill="#bfbfbf"/>
  <rect x="13" y="6" width="1" height="1" fill="#c2c2c2fc"/>
  <rect x="14" y="6" width="1" height="1" fill="#9a9a9afb"/>
  <rect x="15" y="6" width="1" height="1" fill="#979797"/>
  <rect x="16" y="6" width="1" height="1" fill="#9a9a9a"/>
  <rect x="17" y="6" width="1" height="1" fill="#959595"/>
  <rect x="18" y="6" width="1" height="1" fill="#979797"/>
  <rect x="19" y="6" width="1" height="1" fill="#9d9d9d"/>
  <rect x="20" y="6" width="2" height="1" fill="#ffffff"/>
  <rect x="22" y="6" width="1" height="1" fill="#9d9d9d"/>
  <rect x="23" y="6" width="1" height="1" fill="#949494"/>
  <rect x="27" y="6" width="1" height="1" fill="#979797fc"/>
  <rect x="28" y="6" width="1" height="1" fill="#979797fb"/>
  <rect x="32" y="6" width="1" height="1" fill="#9d9d9d"/>
  <rect x="33" y="6" width="1" height="1" fill="#949494"/>
  <rect x="34" y="6" width="4" height="1" fill="#fafafa"/>
  <rect x="38" y="6" width="1" height="1" fill="#949494"/>
  <rect x="39" y="6" width="1" height="1" fill="#9d9d9d"/>
  <rect x="40" y="6" width="1" height="1" fill="#9a9a9a"/>
  <rect x="41" y="6" width="1" height="1" fill="#9c9c9cfc"/>
  <rect x="42" y="6" width="1" height="1" fill="#c9c9c9fb"/>
  <rect x="43" y="6" width="1" height="1" fill="#d5d5d5"/>
  <rect x="44" y="6" width="1" height="1" fill="#cccccc"/>
  <rect x="45" y="6" width="1" height="1" fill="#dadada"/>
  <rect x="46" y="6" width="1" height="1" fill="#e1e1e1"/>
  <rect x="47" y="6" width="1" height="1" fill="#d7d7d7"/>
  <rect x="48" y="6" width="2" height="1" fill="#fdfdfd"/>
  <rect x="50" y="6" width="1" height="1" fill="#d7d7d7"/>
  <rect x="51" y="6" width="1" height="1" fill="#d6d6d6"/>
  <rect x="55" y="6" width="1" height="1" fill="#cdcdcdfc"/>
  <rect x="0" y="7" width="1" height="1" fill="#bebebef6"/>
  <rect x="1" y="7" width="3" height="3" fill="#bfbfbf"/>
  <rect x="4" y="7" width="2" height="1" fill="#bebebe"/>
  <rect x="6" y="7" width="1" height="1" fill="#fcfbfc"/>
  <rect x="10" y="7" width="1" height="1" fill="#bebebe"/>
  <rect x="11" y="7" width="1" height="1" fill="#bbbbbb"/>
  <rect x="12" y="7" width="1" height="1" fill="#bdbdbd"/>
  <rect x="13" y="7" width="1" height="1" fill="#bfbfbff7"/>
  <rect x="14" y="7" width="1" height="1" fill="#979797f6"/>
  <rect x="15" y="7" width="1" height="2" fill="#959595"/>
  <rect x="16" y="7" width="1" height="1" fill="#969696"/>
  <rect x="17" y="7" width="1" height="1" fill="#9a9a9a"/>
  <rect x="18" y="7" width="2" height="1" fill="#959595"/>
  <rect x="20" y="7" width="1" height="1" fill="#ffffff"/>
  <rect x="21" y="7" width="1" height="1" fill="#fafafa"/>
  <rect x="22" y="7" width="1" height="1" fill="#979797"/>
  <rect x="23" y="7" width="1" height="1" fill="#969696"/>
  <rect x="27" y="7" width="1" height="1" fill="#979797f7"/>
  <rect x="28" y="7" width="1" height="1" fill="#979797f6"/>
  <rect x="32" y="7" width="1" height="1" fill="#9b9b9b"/>
  <rect x="33" y="7" width="1" height="1" fill="#9d9d9d"/>
  <rect x="34" y="7" width="1" height="1" fill="#9c9c9c"/>
  <rect x="35" y="7" width="1" height="1" fill="#fefefe"/>
  <rect x="36" y="7" width="1" height="1" fill="#ffffff"/>
  <rect x="37" y="7" width="1" height="1" fill="#9c9c9c"/>
  <rect x="38" y="7" width="1" height="1" fill="#9d9d9d"/>
  <rect x="39" y="7" width="1" height="1" fill="#9c9c9c"/>
  <rect x="40" y="7" width="1" height="2" fill="#959595"/>
  <rect x="41" y="7" width="1" height="1" fill="#9a9a9af7"/>
  <rect x="42" y="7" width="1" height="1" fill="#cbcbcbf6"/>
  <rect x="43" y="7" width="1" height="1" fill="#d4d4d4"/>
  <rect x="44" y="7" width="1" height="1" fill="#d3d3d3"/>
  <rect x="45" y="7" width="1" height="1" fill="#cccccc"/>
  <rect x="46" y="7" width="2" height="1" fill="#d4d4d4"/>
  <rect x="48" y="7" width="1" height="2" fill="#fdfdfd"/>
  <rect x="49" y="7" width="1" height="1" fill="#fafafa"/>
  <rect x="50" y="7" width="1" height="1" fill="#d4d4d4"/>
  <rect x="51" y="7" width="1" height="1" fill="#dadada"/>
  <rect x="55" y="7" width="1" height="1" fill="#cdcdcdf7"/>
  <rect x="0" y="8" width="1" height="1" fill="#bebebed4"/>
  <rect x="4" y="8" width="1" height="1" fill="#c8c8c8"/>
  <rect x="5" y="8" width="1" height="1" fill="#ffffff"/>
  <rect x="6" y="8" width="2" height="1" fill="#fdfdfd"/>
  <rect x="8" y="8" width="1" height="1" fill="#fafafa"/>
  <rect x="9" y="8" width="1" height="1" fill="#bebebe"/>
  <rect x="10" y="8" width="1" height="1" fill="#c5c5c5"/>
  <rect x="11" y="8" width="1" height="1" fill="#bababa"/>
  <rect x="12" y="8" width="1" height="1" fill="#bfbfbf"/>
  <rect x="13" y="8" width="1" height="1" fill="#bebebed4"/>
  <rect x="14" y="8" width="1" height="1" fill="#9a9a9ad4"/>
  <rect x="16" y="8" width="1" height="1" fill="#9c9c9c"/>
  <rect x="17" y="8" width="1" height="1" fill="#939393"/>
  <rect x="18" y="8" width="1" height="1" fill="#9e9e9e"/>
  <rect x="19" y="8" width="4" height="1" fill="#ffffff"/>
  <rect x="23" y="8" width="1" height="1" fill="#9e9e9e"/>
  <rect x="27" y="8" width="2" height="1" fill="#979797d4"/>
  <rect x="32" y="8" width="1" height="1" fill="#9d9d9d"/>
  <rect x="33" y="8" width="1" height="1" fill="#8f8f8f"/>
  <rect x="34" y="8" width="1" height="1" fill="#939393"/>
  <rect x="35" y="8" width="2" height="1" fill="#fdfdfd"/>
  <rect x="37" y="8" width="1" height="1" fill="#8d8d8d"/>
  <rect x="38" y="8" width="1" height="1" fill="#9a9a9a"/>
  <rect x="39" y="8" width="1" height="1" fill="#9b9b9b"/>
  <rect x="41" y="8" width="1" height="1" fill="#9e9e9ed4"/>
  <rect x="42" y="8" width="1" height="1" fill="#ccccccd4"/>
  <rect x="43" y="8" width="1" height="1" fill="#d3d3d3"/>
  <rect x="44" y="8" width="1" height="1" fill="#cdcdcd"/>
  <rect x="45" y="8" width="1" height="1" fill="#d7d7d7"/>
  <rect x="46" y="8" width="1" height="1" fill="#d4d4d4"/>
  <rect x="47" y="8" width="1" height="1" fill="#f6f6f6"/>
  <rect x="49" y="8" width="1" height="1" fill="#fcfbfc"/>
  <rect x="50" y="8" width="1" height="1" fill="#f7f7f7"/>
  <rect x="51" y="8" width="1" height="1" fill="#d6d6d6"/>
  <rect x="52" y="8" width="2" height="1" fill="#d4d4d4"/>
  <rect x="54" y="8" width="1" height="1" fill="#d0d0d0"/>
  <rect x="55" y="8" width="1" height="1" fill="#cdcdcdd4"/>
  <rect x="0" y="9" width="1" height="1" fill="#bebebe8a"/>
  <rect x="4" y="9" width="1" height="1" fill="#ffffff"/>
  <rect x="5" y="9" width="1" height="1" fill="#f8f8f8"/>
  <rect x="6" y="9" width="1" height="1" fill="#c0c0c0"/>
  <rect x="7" y="9" width="1" height="1" fill="#bfbfbf"/>
  <rect x="8" y="9" width="1" height="1" fill="#ffffff"/>
  <rect x="9" y="9" width="1" height="1" fill="#f8f8f8"/>
  <rect x="10" y="9" width="1" height="1" fill="#bebebe"/>
  <rect x="11" y="9" width="1" height="1" fill="#bdbdbd"/>
  <rect x="12" y="9" width="1" height="1" fill="#c2c2c2"/>
  <rect x="13" y="9" width="1" height="1" fill="#c0c0c08b"/>
  <rect x="14" y="9" width="1" height="1" fill="#9393938a"/>
  <rect x="15" y="9" width="1" height="1" fill="#9d9d9d"/>
  <rect x="16" y="9" width="1" height="2" fill="#9a9a9a"/>
  <rect x="17" y="9" width="1" height="1" fill="#979797"/>
  <rect x="18" y="9" width="2" height="1" fill="#ffffff"/>
  <rect x="20" y="9" width="1" height="3" fill="#979797"/>
  <rect x="21" y="9" width="1" height="1" fill="#a0a0a0"/>
  <rect x="22" y="9" width="1" height="1" fill="#f9f9f9"/>
  <rect x="23" y="9" width="1" height="1" fill="#ffffff"/>
  <rect x="27" y="9" width="1" height="1" fill="#9797978b"/>
  <rect x="28" y="9" width="1" height="1" fill="#9797978a"/>
  <rect x="32" y="9" width="1" height="1" fill="#959595"/>
  <rect x="33" y="9" width="1" height="1" fill="#969696"/>
  <rect x="34" y="9" width="1" height="1" fill="#f9f9f9"/>
  <rect x="35" y="9" width="1" height="1" fill="#ffffff"/>
  <rect x="36" y="9" width="2" height="1" fill="#fefefe"/>
  <rect x="38" y="9" width="1" height="1" fill="#939393"/>
  <rect x="39" y="9" width="1" height="1" fill="#999999"/>
  <rect x="40" y="9" width="1" height="1" fill="#9b9b9b"/>
  <rect x="41" y="9" width="1" height="1" fill="#8e8e8e8b"/>
  <rect x="42" y="9" width="1" height="1" fill="#c9c9c98a"/>
  <rect x="43" y="9" width="1" height="1" fill="#cdcdcd"/>
  <rect x="44" y="9" width="1" height="1" fill="#d7d7d7"/>
  <rect x="45" y="9" width="1" height="1" fill="#cdcdcd"/>
  <rect x="46" y="9" width="1" height="1" fill="#fafafa"/>
  <rect x="47" y="9" width="1" height="1" fill="#f9f9f9"/>
  <rect x="48" y="9" width="1" height="2" fill="#d6d6d6"/>
  <rect x="49" y="9" width="1" height="1" fill="#d9d9d9"/>
  <rect x="50" y="9" width="1" height="1" fill="#fafafa"/>
  <rect x="51" y="9" width="1" height="1" fill="#f7f7f7"/>
  <rect x="52" y="9" width="1" height="2" fill="#d4d4d4"/>
  <rect x="53" y="9" width="1" height="1" fill="#d2d2d2"/>
  <rect x="54" y="9" width="1" height="1" fill="#cecece"/>
  <rect x="55" y="9" width="1" height="1" fill="#cccccc8b"/>
  <rect x="0" y="10" width="1" height="1" fill="#bebebe1c"/>
  <rect x="1" y="10" width="1" height="1" fill="#bfbfbff3"/>
  <rect x="2" y="10" width="1" height="1" fill="#bfbfbf"/>
  <rect x="3" y="10" width="2" height="1" fill="#c0c0c0"/>
  <rect x="5" y="10" width="1" height="1" fill="#bebebe"/>
  <rect x="6" y="10" width="1" height="1" fill="#bbbbbb"/>
  <rect x="7" y="10" width="1" height="1" fill="#bebebe"/>
  <rect x="8" y="10" width="1" height="2" fill="#b9b9b9"/>
  <rect x="9" y="10" width="1" height="1" fill="#c1c1c1"/>
  <rect x="10" y="10" width="1" height="1" fill="#c2c2c2"/>
  <rect x="11" y="10" width="1" height="1" fill="#c5c5c5"/>
  <rect x="12" y="10" width="1" height="1" fill="#c1c1c1f4"/>
  <rect x="13" y="10" width="1" height="1" fill="#bebebe1c"/>
  <rect x="14" y="10" width="1" height="1" fill="#9a9a9a1c"/>
  <rect x="15" y="10" width="1" height="1" fill="#979797f3"/>
  <rect x="17" y="10" width="1" height="1" fill="#999999"/>
  <rect x="18" y="10" width="1" height="1" fill="#959595"/>
  <rect x="19" y="10" width="1" height="1" fill="#939393"/>
  <rect x="21" y="10" width="1" height="1" fill="#9b9b9b"/>
  <rect x="22" y="10" width="2" height="1" fill="#969696"/>
  <rect x="24" y="10" width="2" height="1" fill="#979797"/>
  <rect x="26" y="10" width="1" height="1" fill="#979797f4"/>
  <rect x="27" y="10" width="2" height="1" fill="#9797971c"/>
  <rect x="29" y="10" width="1" height="1" fill="#979797f3"/>
  <rect x="30" y="10" width="2" height="1" fill="#979797"/>
  <rect x="32" y="10" width="1" height="1" fill="#a2a2a2"/>
  <rect x="33" y="10" width="1" height="1" fill="#fcfbfc"/>
  <rect x="34" y="10" width="1" height="1" fill="#fafafa"/>
  <rect x="35" y="10" width="1" height="1" fill="#9a9a9a"/>
  <rect x="36" y="10" width="1" height="1" fill="#9d9d9d"/>
  <rect x="37" y="10" width="1" height="1" fill="#ffffff"/>
  <rect x="38" y="10" width="1" height="1" fill="#fdfdfd"/>
  <rect x="39" y="10" width="1" height="1" fill="#9b9b9b"/>
  <rect x="40" y="10" width="1" height="1" fill="#9e9e9ef4"/>
  <rect x="41" y="10" width="1" height="1" fill="#a1a1a11c"/>
  <rect x="42" y="10" width="1" height="1" fill="#cbcbcb1c"/>
  <rect x="43" y="10" width="1" height="1" fill="#c9c9c9f3"/>
  <rect x="44" y="10" width="1" height="1" fill="#cecece"/>
  <rect x="45" y="10" width="1" height="1" fill="#d6d6d6"/>
  <rect x="46" y="10" width="1" height="1" fill="#d3d3d3"/>
  <rect x="47" y="10" width="1" height="2" fill="#d2d2d2"/>
  <rect x="49" y="10" width="1" height="1" fill="#d7d7d7"/>
  <rect x="50" y="10" width="1" height="1" fill="#d2d2d2"/>
  <rect x="51" y="10" width="1" height="1" fill="#d6d6d6"/>
  <rect x="53" y="10" width="1" height="1" fill="#d0d0d0"/>
  <rect x="54" y="10" width="1" height="1" fill="#cdcdcdf4"/>
  <rect x="55" y="10" width="1" height="1" fill="#cccccc1c"/>
  <rect x="1" y="11" width="1" height="1" fill="#bfbfbf58"/>
  <rect x="2" y="11" width="1" height="1" fill="#bfbfbffe"/>
  <rect x="3" y="11" width="1" height="1" fill="#bfbfbf"/>
  <rect x="4" y="11" width="1" height="1" fill="#c2c2c2"/>
  <rect x="5" y="11" width="1" height="1" fill="#b9b9b9"/>
  <rect x="6" y="11" width="1" height="1" fill="#c0c0c0"/>
  <rect x="7" y="11" width="1" height="1" fill="#bbbbbb"/>
  <rect x="9" y="11" width="1" height="1" fill="#bebebe"/>
  <rect x="10" y="11" width="1" height="1" fill="#c4c4c4"/>
  <rect x="11" y="11" width="1" height="1" fill="#bebebefe"/>
  <rect x="12" y="11" width="1" height="1" fill="#c1c1c158"/>
  <rect x="15" y="11" width="1" height="1" fill="#8f8f8f58"/>
  <rect x="16" y="11" width="1" height="1" fill="#959595fe"/>
  <rect x="17" y="11" width="1" height="1" fill="#949494"/>
  <rect x="18" y="11" width="1" height="1" fill="#9b9b9b"/>
  <rect x="19" y="11" width="1" height="1" fill="#9a9a9a"/>
  <rect x="21" y="11" width="1" height="1" fill="#9c9c9c"/>
  <rect x="22" y="11" width="1" height="1" fill="#9a9a9a"/>
  <rect x="23" y="11" width="1" height="1" fill="#949494"/>
  <rect x="24" y="11" width="1" height="1" fill="#979797"/>
  <rect x="25" y="11" width="1" height="1" fill="#979797fe"/>
  <rect x="26" y="11" width="1" height="1" fill="#97979758"/>
  <rect x="29" y="11" width="1" height="1" fill="#97979758"/>
  <rect x="30" y="11" width="1" height="1" fill="#979797fe"/>
  <rect x="31" y="11" width="2" height="1" fill="#969696"/>
  <rect x="33" y="11" width="1" height="1" fill="#9c9c9c"/>
  <rect x="34" y="11" width="1" height="1" fill="#9b9b9b"/>
  <rect x="35" y="11" width="1" height="1" fill="#979797"/>
  <rect x="36" y="11" width="1" height="2" fill="#9a9a9a"/>
  <rect x="37" y="11" width="1" height="1" fill="#9d9d9d"/>
  <rect x="38" y="11" width="1" height="1" fill="#959595"/>
  <rect x="39" y="11" width="1" height="1" fill="#9e9e9efe"/>
  <rect x="40" y="11" width="1" height="1" fill="#9c9c9c58"/>
  <rect x="43" y="11" width="1" height="1" fill="#cbcbcb58"/>
  <rect x="44" y="11" width="1" height="1" fill="#c1c1c1fe"/>
  <rect x="45" y="11" width="1" height="1" fill="#d4d4d4"/>
  <rect x="46" y="11" width="1" height="1" fill="#d5d5d5"/>
  <rect x="48" y="11" width="1" height="1" fill="#d3d3d3"/>
  <rect x="49" y="11" width="1" height="1" fill="#d5d5d5"/>
  <rect x="50" y="11" width="1" height="1" fill="#d6d6d6"/>
  <rect x="51" y="11" width="2" height="1" fill="#d2d2d2"/>
  <rect x="53" y="11" width="1" height="1" fill="#cececefe"/>
  <rect x="54" y="11" width="1" height="1" fill="#cccccc58"/>
  <rect x="2" y="12" width="1" height="1" fill="#c4c4c458"/>
  <rect x="3" y="12" width="1" height="1" fill="#c0c0c0f4"/>
  <rect x="4" y="12" width="6" height="1" fill="#bfbfbf"/>
  <rect x="10" y="12" width="1" height="1" fill="#bfbfbff4"/>
  <rect x="11" y="12" width="1" height="1" fill="#bebebe59"/>
  <rect x="16" y="12" width="1" height="1" fill="#a1a1a158"/>
  <rect x="17" y="12" width="1" height="1" fill="#9a9a9af4"/>
  <rect x="18" y="12" width="1" height="1" fill="#979797"/>
  <rect x="19" y="12" width="1" height="1" fill="#9c9c9c"/>
  <rect x="20" y="12" width="4" height="1" fill="#9a9a9a"/>
  <rect x="24" y="12" width="1" height="1" fill="#999999f4"/>
  <rect x="25" y="12" width="1" height="1" fill="#99999959"/>
  <rect x="30" y="12" width="1" height="1" fill="#99999958"/>
  <rect x="31" y="12" width="1" height="1" fill="#999999f4"/>
  <rect x="32" y="12" width="4" height="1" fill="#999999"/>
  <rect x="37" y="12" width="1" height="1" fill="#9e9e9e"/>
  <rect x="38" y="12" width="1" height="1" fill="#9b9b9bf4"/>
  <rect x="39" y="12" width="1" height="1" fill="#a3a3a359"/>
  <rect x="44" y="12" width="1" height="1" fill="#cbcbcb58"/>
  <rect x="45" y="12" width="1" height="1" fill="#cbcbcbf4"/>
  <rect x="46" y="12" width="2" height="1" fill="#cccccc"/>
  <rect x="48" y="12" width="4" height="1" fill="#d4d4d4"/>
  <rect x="52" y="12" width="1" height="1" fill="#cdcdcdf4"/>
  <rect x="53" y="12" width="1" height="1" fill="#d3d3d359"/>
  <rect x="3" y="13" width="1" height="1" fill="#c0c0c01d"/>
  <rect x="4" y="13" width="1" height="1" fill="#bfbfbf88"/>
  <rect x="5" y="13" width="1" height="1" fill="#bfbfbfd4"/>
  <rect x="6" y="13" width="2" height="1" fill="#bfbfbff7"/>
  <rect x="8" y="13" width="1" height="1" fill="#bfbfbfd4"/>
  <rect x="9" y="13" width="1" height="1" fill="#bfbfbf88"/>
  <rect x="10" y="13" width="1" height="1" fill="#bfbfbf1d"/>
  <rect x="17" y="13" width="1" height="1" fill="#9b9b9b1d"/>
  <rect x="18" y="13" width="1" height="1" fill="#97979788"/>
  <rect x="19" y="13" width="1" height="1" fill="#9d9d9dd4"/>
  <rect x="20" y="13" width="2" height="1" fill="#9a9a9af7"/>
  <rect x="22" y="13" width="1" height="1" fill="#9a9a9ad4"/>
  <rect x="23" y="13" width="1" height="1" fill="#9a9a9a88"/>
  <rect x="24" y="13" width="1" height="1" fill="#9999991d"/>
  <rect x="31" y="13" width="1" height="1" fill="#9999991d"/>
  <rect x="32" y="13" width="1" height="1" fill="#99999988"/>
  <rect x="33" y="13" width="1" height="1" fill="#999999d4"/>
  <rect x="34" y="13" width="2" height="1" fill="#999999f7"/>
  <rect x="36" y="13" width="1" height="1" fill="#9a9a9ad4"/>
  <rect x="37" y="13" width="1" height="1" fill="#9e9e9e88"/>
  <rect x="38" y="13" width="1" height="1" fill="#9b9b9b1d"/>
  <rect x="45" y="13" width="1" height="1" fill="#cbcbcb1d"/>
  <rect x="46" y="13" width="1" height="1" fill="#cccccc88"/>
  <rect x="47" y="13" width="1" height="1" fill="#ccccccd4"/>
  <rect x="48" y="13" width="2" height="1" fill="#cdcdcdf7"/>
  <rect x="50" y="13" width="1" height="1" fill="#cdcdcdd4"/>
  <rect x="51" y="13" width="1" height="1" fill="#cdcdcd88"/>
  <rect x="52" y="13" width="1" height="1" fill="#cdcdcd1d"/>
</svg>