<svg xmlns="http://www.w3.org/2000/svg" width="20" height="20" viewBox="0 0 20 20" shape-rendering="crispEdges">
  <rect x="6" y="0" width="1" height="1" fill="#99999958"/>
  <rect x="7" y="0" width="1" height="1" fill="#999999a7"/>
  <rect x="8" y="0" width="1" height="1" fill="#999999e0"/>
  <rect x="9" y="0" width="1" height="1" fill="#999999f9"/>
  <rect x="10" y="0" width="1" height="1" fill="#999999f8"/>
  <rect x="11" y="0" width="1" height="1" fill="#999999de"/>
  <rect x="12" y="0" width="1" height="1" fill="#999999a2"/>
  <rect x="13" y="0" width="1" height="1" fill="#99999953"/>
  <rect x="4" y="1" width="1" height="1" fill="#9a9a9a55"/>
  <rect x="5" y="1" width="1" height="1" fill="#999999df"/>
  <rect x="6" y="1" width="8" height="1" fill="#999999"/>
  <rect x="14" y="1" width="1" height="1" fill="#999999d9"/>
  <rect x="15" y="1" width="1" height="1" fill="#9999994c"/>
  <rect x="3" y="2" width="1" height="1" fill="#9b9b9b90"/>
  <rect x="4" y="2" width="1" height="2" fill="#9a9a9a"/>
  <rect x="5" y="2" width="10" height="1" fill="#999999"/>
  <rect x="15" y="2" width="1" height="1" fill="#999999fe"/>
  <rect x="16" y="2" width="1" height="1" fill="#99999984"/>
  <rect x="2" y="3" width="1" height="1" fill="#9b9b9b98"/>
  <rect x="3" y="3" width="1" height="1" fill="#9b9b9b"/>
  <rect x="5" y="3" width="12" height="1" fill="#999999"/>
  <rect x="17" y="3" width="1" height="1" fill="#99999987"/>
  <rect x="1" y="4" width="1" height="1" fill="#9a9a9a5b"/>
  <rect x="2" y="4" width="4" height="1" fill="#9a9a9a"/>
  <rect x="6" y="4" width="1" height="1" fill="#979797"/>
  <rect x="7" y="4" width="5" height="1" fill="#969696"/>
  <rect x="12" y="4" width="1" height="1" fill="#959595"/>
  <rect x="13" y="4" width="1" height="1" fill="#969696"/>
  <rect x="14" y="4" width="1" height="1" fill="#999999"/>
  <rect x="15" y="4" width="2" height="1" fill="#9a9a9a"/>
  <rect x="17" y="4" width="1" height="2" fill="#999999"/>
  <rect x="18" y="4" width="1" height="1" fill="#9999994a"/>
  <rect x="1" y="5" width="1" height="1" fill="#999999e1"/>
  <rect x="2" y="5" width="1" height="1" fill="#999999"/>
  <rect x="3" y="5" width="1" height="1" fill="#9a9a9a"/>
  <rect x="4" y="5" width="2" height="1" fill="#9c9c9c"/>
  <rect x="6" y="5" width="1" height="1" fill="#9b9b9b"/>
  <rect x="7" y="5" width="5" height="2" fill="#9a9a9a"/>
  <rect x="12" y="5" width="1" height="2" fill="#999999"/>
  <rect x="13" y="5" width="1" height="1" fill="#9a9a9a"/>
  <rect x="14" y="5" width="2" height="1" fill="#9c9c9c"/>
  <rect x="16" y="5" width="1" height="1" fill="#9a9a9a"/>
  <rect x="18" y="5" width="1" height="1" fill="#999999d6"/>
  <rect x="0" y="6" width="1" height="1" fill="#9999995d"/>
  <rect x="1" y="6" width="2" height="1" fill="#999999"/>
  <rect x="3" y="6" width="3" height="1" fill="#979797"/>
  <rect x="6" y="6" width="1" height="1" fill="#999999"/>
  <rect x="13" y="6" width="1" height="1" fill="#979797"/>
  <rect x="14" y="6" width="2" height="1" fill="#969696"/>
  <rect x="16" y="6" width="1" height="1" fill="#979797"/>
  <rect x="17" y="6" width="2" height="1" fill="#999999"/>
  <rect x="19" y="6" width="1" height="1" fill="#9999994d"/>
  <rect x="0" y="7" width="1" height="1" fill="#999999ac"/>
  <rect x="1" y="7" width="3" height="2" fill="#999999"/>
  <rect x="4" y="7" width="1" height="1" fill="#a0a0a0"/>
  <rect x="5" y="7" width="1" height="1" fill="#bdbdbd"/>
  <rect x="6" y="7" width="1" height="1" fill="#e7e7e7"/>
  <rect x="7" y="7" width="6" height="1" fill="#ffffff"/>
  <rect x="13" y="7" width="1" height="1" fill="#e5e5e5"/>
  <rect x="14" y="7" width="1" height="1" fill="#bdbdbd"/>
  <rect x="15" y="7" width="1" height="1" fill="#9e9e9e"/>
  <rect x="16" y="7" width="3" height="7" fill="#999999"/>
  <rect x="19" y="7" width="1" height="1" fill="#9999999d"/>
  <rect x="0" y="8" width="1" height="1" fill="#999999e7"/>
  <rect x="4" y="8" width="1" height="1" fill="#c0c0c0"/>
  <rect x="5" y="8" width="1" height="1" fill="#fefefe"/>
  <rect x="6" y="8" width="1" height="1" fill="#f8f8f8"/>
  <rect x="7" y="8" width="1" height="1" fill="#cfcfcf"/>
  <rect x="8" y="8" width="3" height="1" fill="#ffffff"/>
  <rect x="11" y="8" width="1" height="1" fill="#fefefe"/>
  <rect x="12" y="8" width="2" height="1" fill="#ffffff"/>
  <rect x="14" y="8" width="1" height="1" fill="#fcfbfc"/>
  <rect x="15" y="8" width="1" height="1" fill="#c7c7c7"/>
  <rect x="19" y="8" width="1" height="1" fill="#999999d7"/>
  <rect x="0" y="9" width="4" height="1" fill="#999999"/>
  <rect x="4" y="9" width="1" height="1" fill="#ebebeb"/>
  <rect x="5" y="9" width="2" height="1" fill="#ffffff"/>
  <rect x="7" y="9" width="1" height="1" fill="#a4a4a4"/>
  <rect x="8" y="9" width="2" height="1" fill="#ffffff"/>
  <rect x="10" y="9" width="1" height="1" fill="#f8f8f8"/>
  <rect x="11" y="9" width="2" height="1" fill="#fafafa"/>
  <rect x="13" y="9" width="1" height="1" fill="#c8c8c8"/>
  <rect x="14" y="9" width="1" height="1" fill="#e0e0e0"/>
  <rect x="15" y="9" width="1" height="1" fill="#f8f8f8"/>
  <rect x="19" y="9" width="1" height="1" fill="#999999f0"/>
  <rect x="0" y="10" width="1" height="1" fill="#999999f9"/>
  <rect x="1" y="10" width="3" height="4" fill="#999999"/>
  <rect x="4" y="10" width="1" height="1" fill="#fcfbfc"/>
  <rect x="5" y="10" width="1" height="1" fill="#c6c6c6"/>
  <rect x="6" y="10" width="1" height="1" fill="#9e9e9e"/>
  <rect x="7" y="10" width="1" height="1" fill="#959595"/>
  <rect x="8" y="10" width="1" height="1" fill="#a0a0a0"/>
  <rect x="9" y="10" width="1" height="1" fill="#d0d0d0"/>
  <rect x="10" y="10" width="1" height="1" fill="#f5f5f5"/>
  <rect x="11" y="10" width="1" height="1" fill="#9b9b9b"/>
  <rect x="12" y="10" width="1" height="1" fill="#ffffff"/>
  <rect x="13" y="10" width="1" height="1" fill="#9b9b9b"/>
  <rect x="14" y="10" width="1" height="1" fill="#d4d4d4"/>
  <rect x="15" y="10" width="1" height="1" fill="#fdfdfd"/>
  <rect x="19" y="10" width="1" height="1" fill="#999999e9"/>
  <rect x="0" y="11" width="1" height="1" fill="#999999e0"/>
  <rect x="4" y="11" width="1" height="1" fill="#f8f8f8"/>
  <rect x="5" y="11" width="2" height="1" fill="#ffffff"/>
  <rect x="7" y="11" width="1" height="1" fill="#999999"/>
  <rect x="8" y="11" width="1" height="1" fill="#fdfdfd"/>
  <rect x="9" y="11" width="2" height="1" fill="#ffffff"/>
  <rect x="11" y="11" width="1" height="1" fill="#c7c7c7"/>
  <rect x="12" y="11" width="2" height="1" fill="#fcfbfc"/>
  <rect x="14" y="11" width="1" height="1" fill="#f9f9f9"/>
  <rect x="15" y="11" width="1" height="1" fill="#e4e4e4"/>
  <rect x="19" y="11" width="1" height="1" fill="#999999d0"/>
  <rect x="0" y="12" width="1" height="1" fill="#999999ad"/>
  <rect x="4" y="12" width="1" height="1" fill="#c7c7c7"/>
  <rect x="5" y="12" width="1" height="1" fill="#fefefe"/>
  <rect x="6" y="12" width="1" height="1" fill="#ffffff"/>
  <rect x="7" y="12" width="1" height="1" fill="#cecece"/>
  <rect x="8" y="12" width="1" height="1" fill="#fcfbfc"/>
  <rect x="9" y="12" width="2" height="1" fill="#fafafa"/>
  <rect x="11" y="12" width="2" height="1" fill="#fcfbfc"/>
  <rect x="13" y="12" width="1" height="1" fill="#fefefe"/>
  <rect x="14" y="12" width="1" height="1" fill="#f8f8f8"/>
  <rect x="15" y="12" width="1" height="1" fill="#b8b8b8"/>
  <rect x="19" y="12" width="1" height="1" fill="#9999999d"/>
  <rect x="0" y="13" width="1" height="1" fill="#9999995e"/>
  <rect x="4" y="13" width="1" height="1" fill="#9b9b9b"/>
  <rect x="5" y="13" width="1" height="1" fill="#c4c4c4"/>
  <rect x="6" y="13" width="1" height="1" fill="#f3f3f3"/>
  <rect x="7" y="13" width="1" height="1" fill="#fdfdfd"/>
  <rect x="8" y="13" width="1" height="1" fill="#eeeeee"/>
  <rect x="9" y="13" width="2" height="1" fill="#acacac"/>
  <rect x="11" y="13" width="1" height="1" fill="#eeeeee"/>
  <rect x="12" y="13" width="1" height="1" fill="#f8f8f8"/>
  <rect x="13" y="13" width="1" height="1" fill="#f0f0f0"/>
  <rect x="14" y="13" width="1" height="1" fill="#c6c6c6"/>
  <rect x="15" y="13" width="1" height="1" fill="#939393"/>
  <rect x="19" y="13" width="1" height="1" fill="#9999994e"/>
  <rect x="1" y="14" width="1" height="1" fill="#999999e1"/>
  <rect x="2" y="14" width="2" height="2" fill="#999999"/>
  <rect x="4" y="14" width="1" height="1" fill="#979797"/>
  <rect x="5" y="14" width="1" height="1" fill="#969696"/>
  <rect x="6" y="14" width="1" height="1" fill="#949494"/>
  <rect x="7" y="14" width="1" height="1" fill="#a1a1a1"/>
  <rect x="8" y="14" width="1" height="1" fill="#9a9a9a"/>
  <rect x="9" y="14" width="2" height="1" fill="#929292"/>
  <rect x="11" y="14" width="1" height="1" fill="#979797"/>
  <rect x="12" y="14" width="1" height="1" fill="#999999"/>
  <rect x="13" y="14" width="1" height="1" fill="#969696"/>
  <rect x="14" y="14" width="1" height="1" fill="#979797"/>
  <rect x="15" y="14" width="3" height="1" fill="#999999"/>
  <rect x="18" y="14" width="1" height="1" fill="#999999d6"/>
  <rect x="1" y="15" width="1" height="1" fill="#9999995b"/>
  <rect x="4" y="15" width="1" height="1" fill="#959595"/>
  <rect x="5" y="15" width="1" height="1" fill="#a1a1a1"/>
  <rect x="6" y="15" width="1" height="1" fill="#979797"/>
  <rect x="7" y="15" width="2" height="1" fill="#969696"/>
  <rect x="9" y="15" width="2" height="1" fill="#999999"/>
  <rect x="11" y="15" width="1" height="1" fill="#969696"/>
  <rect x="12" y="15" width="1" height="1" fill="#9e9e9e"/>
  <rect x="13" y="15" width="1" height="1" fill="#9d9d9d"/>
  <rect x="14" y="15" width="1" height="1" fill="#939393"/>
  <rect x="15" y="15" width="1" height="1" fill="#979797"/>
  <rect x="16" y="15" width="2" height="1" fill="#999999"/>
  <rect x="18" y="15" width="1" height="1" fill="#9999994c"/>
  <rect x="2" y="16" width="1" height="1" fill="#9999999a"/>
  <rect x="3" y="16" width="14" height="1" fill="#999999"/>
  <rect x="17" y="16" width="1" height="1" fill="#9999998a"/>
  <rect x="3" y="17" width="1" height="1" fill="#9999999c"/>
  <rect x="4" y="17" width="12" height="1" fill="#999999"/>
  <rect x="16" y="17" width="1" height="1" fill="#9999998e"/>
  <rect x="4" y="18" width="1" height="1" fill="#99999956"/>
  <rect x="5" y="18" width="1" height="1" fill="#999999e0"/>
  <rect x="6" y="18" width="8" height="1" fill="#999999"/>
  <rect x="14" y="18" width="1" height="1" fill="#999999da"/>
  <rect x="15" y="18" width="1" height="1" fill="#9999994d"/>
  <rect x="6" y="19" width="1" height="1" fill="#9999995f"/>
  <rect x="7" y="19" width="1" height="1" fill="#999999ae"/>
  <rect x="8" y="19" width="1" height="1" fill="#999999e1"/>
  <rect x="9" y="19" width="1" height="1" fill="#999999fb"/>
  <rect x="10" y="19" width="1" height="1" fill="#999999fa"/>
  <rect x="11" y="19" width="1" height="1" fill="#999999df"/>
  <rect x="12" y="19" width="1" height="1" fill="#999999aa"/>
  <rect x="13" y="19" width="1" height="1" fill="#99999959"/>
</svg>