<svg xmlns="http://www.w3.org/2000/svg" width="16" height="16" viewBox="0 0 16 16" shape-rendering="crispEdges">
  <rect x="6" y="2" width="1" height="1" fill="#afafaf34"/>
  <rect x="7" y="2" width="1" height="1" fill="#afafaff9"/>
  <rect x="8" y="2" width="1" height="1" fill="#abababf0"/>
  <rect x="5" y="3" width="1" height="1" fill="#afafaf0d"/>
  <rect x="6" y="3" width="1" height="1" fill="#afafafdb"/>
  <rect x="7" y="3" width="1" height="1" fill="#afafaf"/>
  <rect x="8" y="3" width="1" height="1" fill="#adadadf0"/>
  <rect x="10" y="3" width="1" height="1" fill="#a0a0a0f2"/>
  <rect x="11" y="3" width="1" height="1" fill="#9a9a9abb"/>
  <rect x="12" y="3" width="1" height="1" fill="#a2a2a241"/>
  <rect x="5" y="4" width="1" height="1" fill="#afafafa3"/>
  <rect x="6" y="4" width="2" height="1" fill="#afafaf"/>
  <rect x="8" y="4" width="1" height="1" fill="#afafaff0"/>
  <rect x="10" y="4" width="1" height="1" fill="#a7a6a714"/>
  <rect x="11" y="4" width="1" height="1" fill="#9b9b9b43"/>
  <rect x="12" y="4" width="1" height="1" fill="#9a999cba"/>
  <rect x="13" y="4" width="1" height="1" fill="#a5a5a770"/>
  <rect x="1" y="5" width="1" height="1" fill="#afafaf5d"/>
  <rect x="2" y="5" width="1" height="1" fill="#afafafe4"/>
  <rect x="3" y="5" width="5" height="1" fill="#afafaf"/>
  <rect x="8" y="5" width="1" height="1" fill="#b0b0b0f0"/>
  <rect x="10" y="5" width="1" height="1" fill="#a2a2a25d"/>
  <rect x="13" y="5" width="1" height="1" fill="#9d9d9fb5"/>
  <rect x="14" y="5" width="1" height="1" fill="#a5a5a732"/>
  <rect x="1" y="6" width="1" height="1" fill="#afafaff3"/>
  <rect x="2" y="6" width="6" height="1" fill="#afafaf"/>
  <rect x="8" y="6" width="1" height="1" fill="#b2b2b2f0"/>
  <rect x="10" y="6" width="1" height="1" fill="#989b9abb"/>
  <rect x="11" y="6" width="1" height="1" fill="#aaacabb6"/>
  <rect x="13" y="6" width="1" height="1" fill="#9698993d"/>
  <rect x="14" y="6" width="1" height="1" fill="#a7a9aba3"/>
  <rect x="1" y="7" width="7" height="1" fill="#afafaf"/>
  <rect x="8" y="7" width="1" height="1" fill="#b3b3b3f0"/>
  <rect x="10" y="7" width="1" height="1" fill="#9194931b"/>
  <rect x="11" y="7" width="1" height="1" fill="#aeb1b0f9"/>
  <rect x="14" y="7" width="1" height="1" fill="#adafb1e4"/>
  <rect x="1" y="8" width="1" height="1" fill="#afafaf"/>
  <rect x="2" y="8" width="1" height="1" fill="#b1b1b1"/>
  <rect x="3" y="8" width="1" height="1" fill="#a9a9a9"/>
  <rect x="4" y="8" width="1" height="1" fill="#acacae"/>
  <rect x="5" y="8" width="1" height="1" fill="#adadb0"/>
  <rect x="6" y="8" width="2" height="1" fill="#adafb1"/>
  <rect x="8" y="8" width="1" height="1" fill="#afb1b3f0"/>
  <rect x="11" y="8" width="1" height="1" fill="#a7a9abf9"/>
  <rect x="14" y="8" width="1" height="1" fill="#a4a6a7f7"/>
  <rect x="1" y="9" width="1" height="1" fill="#acacac"/>
  <rect x="2" y="9" width="2" height="1" fill="#b2b2b2"/>
  <rect x="4" y="9" width="1" height="1" fill="#adadb0"/>
  <rect x="5" y="9" width="1" height="1" fill="#acacae"/>
  <rect x="6" y="9" width="1" height="1" fill="#abadae"/>
  <rect x="7" y="9" width="1" height="1" fill="#acaeb0"/>
  <rect x="8" y="9" width="1" height="1" fill="#abadaef0"/>
  <rect x="10" y="9" width="1" height="1" fill="#a1a3a51b"/>
  <rect x="11" y="9" width="1" height="1" fill="#9ea0a2e0"/>
  <rect x="13" y="9" width="1" height="1" fill="#a3a5a635"/>
  <rect x="14" y="9" width="1" height="1" fill="#a3a5a6e4"/>
  <rect x="1" y="10" width="1" height="1" fill="#a3a3a3f3"/>
  <rect x="2" y="10" width="1" height="1" fill="#a5a5a5"/>
  <rect x="3" y="10" width="1" height="1" fill="#ababab"/>
  <rect x="4" y="10" width="2" height="1" fill="#adadb0"/>
  <rect x="6" y="10" width="1" height="1" fill="#acaeb0"/>
  <rect x="7" y="10" width="1" height="1" fill="#abadae"/>
  <rect x="8" y="10" width="1" height="1" fill="#a8aaacf0"/>
  <rect x="10" y="10" width="1" height="1" fill="#9a9e9fbb"/>
  <rect x="11" y="10" width="1" height="1" fill="#959a9b7d"/>
  <rect x="13" y="10" width="1" height="1" fill="#a6aaab8d"/>
  <rect x="14" y="10" width="1" height="1" fill="#999d9ea4"/>
  <rect x="1" y="11" width="1" height="1" fill="#9a9a9a5d"/>
  <rect x="2" y="11" width="1" height="1" fill="#929292e6"/>
  <rect x="3" y="11" width="1" height="1" fill="#949494"/>
  <rect x="4" y="11" width="1" height="1" fill="#a09fa2"/>
  <rect x="5" y="11" width="1" height="1" fill="#a7a6a9"/>
  <rect x="6" y="11" width="1" height="1" fill="#adafb1"/>
  <rect x="7" y="11" width="1" height="1" fill="#acaeb0"/>
  <rect x="8" y="11" width="1" height="1" fill="#afb1b3f0"/>
  <rect x="10" y="11" width="1" height="1" fill="#8d929258"/>
  <rect x="12" y="11" width="1" height="1" fill="#a8acad30"/>
  <rect x="13" y="11" width="1" height="1" fill="#a0a4a5f5"/>
  <rect x="14" y="11" width="1" height="1" fill="#93979833"/>
  <rect x="5" y="12" width="1" height="1" fill="#929194a3"/>
  <rect x="6" y="12" width="1" height="1" fill="#abadae"/>
  <rect x="7" y="12" width="1" height="1" fill="#adafb1"/>
  <rect x="8" y="12" width="1" height="1" fill="#a8aaacf0"/>
  <rect x="10" y="12" width="1" height="1" fill="#a8acad0f"/>
  <rect x="11" y="12" width="1" height="1" fill="#a2a7a763"/>
  <rect x="12" y="12" width="1" height="1" fill="#9b9fa2ec"/>
  <rect x="13" y="12" width="1" height="1" fill="#9a9ea171"/>
  <rect x="5" y="13" width="1" height="1" fill="#9595970d"/>
  <rect x="6" y="13" width="1" height="1" fill="#929496dc"/>
  <rect x="7" y="13" width="1" height="1" fill="#acaeb0"/>
  <rect x="8" y="13" width="1" height="1" fill="#acaeb0f0"/>
  <rect x="10" y="13" width="1" height="1" fill="#8d9292f3"/>
  <rect x="11" y="13" width="1" height="1" fill="#919596bb"/>
  <rect x="12" y="13" width="1" height="1" fill="#979b9e42"/>
  <rect x="6" y="14" width="1" height="1" fill="#95979835"/>
  <rect x="7" y="14" width="1" height="1" fill="#909294f9"/>
  <rect x="8" y="14" width="1" height="1" fill="#9a9c9ef0"/>
</svg>