<svg xmlns="http://www.w3.org/2000/svg" width="16" height="16" viewBox="0 0 16 16" shape-rendering="crispEdges">
  <rect x="2" y="2" width="1" height="1" fill="#5b87a8d9"/>
  <rect x="3" y="2" width="1" height="1" fill="#4f8ab6"/>
  <rect x="4" y="2" width="1" height="1" fill="#4e8bb6"/>
  <rect x="5" y="2" width="1" height="1" fill="#4c8cb8"/>
  <rect x="6" y="2" width="2" height="1" fill="#4b8cba"/>
  <rect x="8" y="2" width="2" height="1" fill="#4c8bba"/>
  <rect x="10" y="2" width="1" height="1" fill="#498db8"/>
  <rect x="11" y="2" width="1" height="1" fill="#4b8db6"/>
  <rect x="12" y="2" width="1" height="1" fill="#518ab6"/>
  <rect x="13" y="2" width="1" height="1" fill="#5e86a8d6"/>
  <rect x="2" y="3" width="1" height="1" fill="#4f8ab6"/>
  <rect x="3" y="3" width="1" height="1" fill="#3e8fca"/>
  <rect x="4" y="3" width="2" height="1" fill="#3991d0"/>
  <rect x="6" y="3" width="1" height="1" fill="#3b90ce"/>
  <rect x="7" y="3" width="2" height="1" fill="#3c90cc"/>
  <rect x="9" y="3" width="1" height="1" fill="#3b90ce"/>
  <rect x="10" y="3" width="1" height="1" fill="#3891d0"/>
  <rect x="11" y="3" width="1" height="1" fill="#3991d0"/>
  <rect x="12" y="3" width="1" height="1" fill="#408fca"/>
  <rect x="13" y="3" width="1" height="1" fill="#518ab6"/>
  <rect x="2" y="4" width="1" height="1" fill="#4e8bb6"/>
  <rect x="3" y="4" width="1" height="2" fill="#3991d0"/>
  <rect x="12" y="4" width="1" height="1" fill="#3991d0"/>
  <rect x="13" y="4" width="1" height="1" fill="#4c8cb6"/>
  <rect x="2" y="5" width="1" height="1" fill="#4c8cb8"/>
  <rect x="5" y="5" width="1" height="1" fill="#3392d9"/>
  <rect x="6" y="5" width="1" height="1" fill="#3691d4"/>
  <rect x="7" y="5" width="1" height="1" fill="#3891d2"/>
  <rect x="8" y="5" width="1" height="1" fill="#3692d2"/>
  <rect x="9" y="5" width="1" height="1" fill="#3691d4"/>
  <rect x="10" y="5" width="1" height="1" fill="#3691d9"/>
  <rect x="12" y="5" width="1" height="1" fill="#3692d0"/>
  <rect x="13" y="5" width="1" height="1" fill="#498db8"/>
  <rect x="2" y="6" width="1" height="1" fill="#4b8cba"/>
  <rect x="3" y="6" width="1" height="1" fill="#3b90ce"/>
  <rect x="12" y="6" width="1" height="1" fill="#3892ce"/>
  <rect x="13" y="6" width="1" height="1" fill="#468eba"/>
  <rect x="2" y="7" width="1" height="1" fill="#4b8cb8"/>
  <rect x="3" y="7" width="1" height="1" fill="#3c90ca"/>
  <rect x="5" y="7" width="1" height="1" fill="#3990d2ee"/>
  <rect x="6" y="7" width="1" height="1" fill="#3891d2ee"/>
  <rect x="7" y="7" width="2" height="1" fill="#3692d2ee"/>
  <rect x="9" y="7" width="1" height="1" fill="#3991d0ee"/>
  <rect x="10" y="7" width="1" height="1" fill="#408eceee"/>
  <rect x="12" y="7" width="1" height="1" fill="#3b91ca"/>
  <rect x="13" y="7" width="1" height="1" fill="#478eba"/>
  <rect x="2" y="8" width="1" height="1" fill="#4c8cb4"/>
  <rect x="3" y="8" width="1" height="2" fill="#3e90c8"/>
  <rect x="12" y="8" width="1" height="2" fill="#408fc8"/>
  <rect x="13" y="8" width="1" height="1" fill="#4c8cb8"/>
  <rect x="2" y="9" width="1" height="1" fill="#4c8cb6"/>
  <rect x="4" y="9" width="1" height="1" fill="#3e8fcc"/>
  <rect x="5" y="9" width="1" height="1" fill="#3c8fd0c3"/>
  <rect x="6" y="9" width="1" height="1" fill="#3891d231"/>
  <rect x="7" y="9" width="1" height="1" fill="#3492d4d9"/>
  <rect x="8" y="9" width="1" height="1" fill="#3393d7"/>
  <rect x="9" y="9" width="1" height="1" fill="#3692d2"/>
  <rect x="10" y="9" width="1" height="1" fill="#408fc8"/>
  <rect x="11" y="9" width="1" height="1" fill="#438ec4"/>
  <rect x="13" y="9" width="1" height="1" fill="#4f8ab6"/>
  <rect x="2" y="10" width="1" height="1" fill="#4c8bbce0"/>
  <rect x="3" y="10" width="1" height="1" fill="#3c8fce"/>
  <rect x="4" y="10" width="1" height="1" fill="#3b91cc"/>
  <rect x="5" y="10" width="1" height="1" fill="#3991ccee"/>
  <rect x="6" y="10" width="1" height="1" fill="#3c8fcef8"/>
  <rect x="7" y="10" width="1" height="1" fill="#3b90d0"/>
  <rect x="8" y="10" width="2" height="1" fill="#3691d4"/>
  <rect x="10" y="10" width="1" height="1" fill="#3991d0"/>
  <rect x="11" y="10" width="2" height="1" fill="#3c90cc"/>
  <rect x="13" y="10" width="1" height="1" fill="#4e8bb6dd"/>
  <rect x="4" y="11" width="1" height="1" fill="#3e91c4"/>
  <rect x="5" y="11" width="1" height="1" fill="#3b91c8"/>
  <rect x="6" y="11" width="1" height="1" fill="#3e8fccdc"/>
  <rect x="7" y="11" width="1" height="1" fill="#438dca2b"/>
  <rect x="4" y="12" width="1" height="1" fill="#4b8db6"/>
  <rect x="5" y="12" width="1" height="1" fill="#3c91c6bf"/>
  <rect x="6" y="12" width="1" height="1" fill="#3e8fca14"/>
  <rect x="4" y="13" width="1" height="1" fill="#5989a499"/>
</svg>