<svg xmlns="http://www.w3.org/2000/svg" width="72" height="18" viewBox="0 0 72 18" shape-rendering="crispEdges">
  <rect x="18" y="0" width="1" height="1" fill="#6e342e5a"/>
  <rect x="19" y="0" width="1" height="1" fill="#862e2ac3"/>
  <rect x="20" y="0" width="1" height="1" fill="#8f221e"/>
  <rect x="21" y="0" width="1" height="1" fill="#951f1e"/>
  <rect x="22" y="0" width="1" height="1" fill="#951e24"/>
  <rect x="23" y="0" width="1" height="1" fill="#912026"/>
  <rect x="24" y="0" width="1" height="1" fill="#872526"/>
  <rect x="25" y="0" width="1" height="1" fill="#852626"/>
  <rect x="26" y="0" width="1" height="1" fill="#8d2224"/>
  <rect x="27" y="0" width="1" height="1" fill="#922022"/>
  <rect x="28" y="0" width="1" height="1" fill="#942020"/>
  <rect x="29" y="0" width="1" height="1" fill="#951f1e"/>
  <rect x="30" y="0" width="1" height="1" fill="#94201c"/>
  <rect x="31" y="0" width="1" height="1" fill="#95201c"/>
  <rect x="32" y="0" width="1" height="1" fill="#a02523"/>
  <rect x="33" y="0" width="1" height="1" fill="#961e1b"/>
  <rect x="34" y="0" width="1" height="1" fill="#9b2c27c3"/>
  <rect x="35" y="0" width="1" height="1" fill="#942b235a"/>
  <rect x="36" y="0" width="1" height="1" fill="#90261e5a"/>
  <rect x="37" y="0" width="1" height="1" fill="#92231dc3"/>
  <rect x="38" y="0" width="1" height="1" fill="#99211e"/>
  <rect x="39" y="0" width="1" height="1" fill="#9f2125"/>
  <rect x="40" y="0" width="1" height="1" fill="#9b1e28"/>
  <rect x="41" y="0" width="1" height="1" fill="#951f29"/>
  <rect x="42" y="0" width="1" height="1" fill="#8d2329"/>
  <rect x="43" y="0" width="1" height="1" fill="#8a2529"/>
  <rect x="44" y="0" width="1" height="1" fill="#8f2229"/>
  <rect x="45" y="0" width="2" height="1" fill="#902229"/>
  <rect x="47" y="0" width="1" height="1" fill="#902227"/>
  <rect x="48" y="0" width="1" height="1" fill="#902321"/>
  <rect x="49" y="0" width="1" height="1" fill="#93221d"/>
  <rect x="50" y="0" width="1" height="1" fill="#98201b"/>
  <rect x="51" y="0" width="1" height="1" fill="#981f21"/>
  <rect x="52" y="0" width="1" height="1" fill="#8a1b25c3"/>
  <rect x="53" y="0" width="1" height="1" fill="#7929365a"/>
  <rect x="18" y="1" width="1" height="1" fill="#773331c3"/>
  <rect x="19" y="1" width="1" height="1" fill="#9a3636"/>
  <rect x="20" y="1" width="1" height="1" fill="#b44541"/>
  <rect x="21" y="1" width="1" height="1" fill="#b84241"/>
  <rect x="22" y="1" width="1" height="1" fill="#ba4047"/>
  <rect x="23" y="1" width="1" height="1" fill="#b74149"/>
  <rect x="24" y="1" width="1" height="1" fill="#af4647"/>
  <rect x="25" y="1" width="1" height="1" fill="#af4645"/>
  <rect x="26" y="1" width="1" height="1" fill="#b74243"/>
  <rect x="27" y="1" width="1" height="1" fill="#bb4041"/>
  <rect x="28" y="1" width="2" height="1" fill="#bd403f"/>
  <rect x="30" y="1" width="2" height="1" fill="#bd403d"/>
  <rect x="32" y="1" width="1" height="1" fill="#c54847"/>
  <rect x="33" y="1" width="1" height="1" fill="#b83d3b"/>
  <rect x="34" y="1" width="1" height="1" fill="#b2413b"/>
  <rect x="35" y="1" width="1" height="1" fill="#9d312ac3"/>
  <rect x="36" y="1" width="1" height="1" fill="#8d201ac3"/>
  <rect x="37" y="1" width="1" height="1" fill="#91201b"/>
  <rect x="38" y="1" width="1" height="1" fill="#941917"/>
  <rect x="39" y="1" width="1" height="1" fill="#901214"/>
  <rect x="40" y="1" width="1" height="1" fill="#8c1015"/>
  <rect x="41" y="1" width="1" height="1" fill="#891117"/>
  <rect x="42" y="1" width="1" height="1" fill="#851317"/>
  <rect x="43" y="1" width="1" height="1" fill="#841417"/>
  <rect x="44" y="1" width="1" height="1" fill="#851317"/>
  <rect x="45" y="1" width="2" height="1" fill="#871217"/>
  <rect x="47" y="1" width="1" height="1" fill="#871215"/>
  <rect x="48" y="1" width="1" height="1" fill="#871313"/>
  <rect x="49" y="1" width="1" height="1" fill="#891211"/>
  <rect x="50" y="1" width="1" height="1" fill="#8c110f"/>
  <rect x="51" y="1" width="1" height="1" fill="#8a1113"/>
  <rect x="52" y="1" width="1" height="1" fill="#95262e"/>
  <rect x="53" y="1" width="1" height="1" fill="#7d2b37c3"/>
  <rect x="18" y="2" width="1" height="1" fill="#892d33"/>
  <rect x="19" y="2" width="1" height="1" fill="#b83e45"/>
  <rect x="20" y="2" width="1" height="1" fill="#b74140"/>
  <rect x="21" y="2" width="1" height="1" fill="#b94040"/>
  <rect x="22" y="2" width="2" height="1" fill="#ba3e46"/>
  <rect x="24" y="2" width="1" height="1" fill="#b74142"/>
  <rect x="25" y="2" width="1" height="1" fill="#ba403e"/>
  <rect x="26" y="2" width="1" height="1" fill="#c53a3e"/>
  <rect x="27" y="2" width="1" height="1" fill="#c9393c"/>
  <rect x="28" y="2" width="1" height="1" fill="#c53b3a"/>
  <rect x="29" y="2" width="1" height="1" fill="#c53b38"/>
  <rect x="30" y="2" width="1" height="1" fill="#c73a38"/>
  <rect x="31" y="2" width="1" height="1" fill="#c53b3a"/>
  <rect x="32" y="2" width="1" height="1" fill="#c54140"/>
  <rect x="33" y="2" width="1" height="1" fill="#bb3e3b"/>
  <rect x="34" y="2" width="1" height="1" fill="#b03c38"/>
  <rect x="35" y="2" width="1" height="1" fill="#8f211b"/>
  <rect x="36" y="2" width="1" height="1" fill="#942520"/>
  <rect x="37" y="2" width="1" height="1" fill="#ab3833"/>
  <rect x="38" y="2" width="1" height="1" fill="#be4140"/>
  <rect x="39" y="2" width="1" height="1" fill="#bc3d3d"/>
  <rect x="40" y="2" width="1" height="1" fill="#bb4041"/>
  <rect x="41" y="2" width="1" height="1" fill="#bd4041"/>
  <rect x="42" y="2" width="2" height="1" fill="#c23d41"/>
  <rect x="44" y="2" width="2" height="1" fill="#c03e41"/>
  <rect x="46" y="2" width="2" height="1" fill="#c23d41"/>
  <rect x="48" y="2" width="1" height="1" fill="#c03e43"/>
  <rect x="49" y="2" width="1" height="1" fill="#bf3e43"/>
  <rect x="50" y="2" width="1" height="1" fill="#bf3f41"/>
  <rect x="51" y="2" width="1" height="1" fill="#ba4143"/>
  <rect x="52" y="2" width="1" height="1" fill="#a4353d"/>
  <rect x="53" y="2" width="1" height="1" fill="#7f2e37"/>
  <rect x="18" y="3" width="1" height="1" fill="#912933"/>
  <rect x="19" y="3" width="1" height="1" fill="#cb4550"/>
  <rect x="20" y="3" width="1" height="1" fill="#bb3b3d"/>
  <rect x="21" y="3" width="1" height="1" fill="#b53f3d"/>
  <rect x="22" y="3" width="1" height="1" fill="#ab4244"/>
  <rect x="23" y="3" width="1" height="1" fill="#aa4342"/>
  <rect x="24" y="3" width="1" height="1" fill="#b34039"/>
  <rect x="25" y="3" width="1" height="1" fill="#bd3c35"/>
  <rect x="26" y="3" width="1" height="1" fill="#c63735"/>
  <rect x="27" y="3" width="1" height="1" fill="#ca3537"/>
  <rect x="28" y="3" width="1" height="1" fill="#c33837"/>
  <rect x="29" y="3" width="1" height="1" fill="#bb3c39"/>
  <rect x="30" y="3" width="2" height="1" fill="#b3403b"/>
  <rect x="32" y="3" width="1" height="1" fill="#bc3d3d"/>
  <rect x="33" y="3" width="1" height="1" fill="#c0413e"/>
  <rect x="34" y="3" width="1" height="1" fill="#bb4340"/>
  <rect x="35" y="3" width="1" height="1" fill="#982521"/>
  <rect x="36" y="3" width="1" height="1" fill="#a12d29"/>
  <rect x="37" y="3" width="1" height="1" fill="#bb4340"/>
  <rect x="38" y="3" width="1" height="1" fill="#c74747"/>
  <rect x="39" y="3" width="1" height="1" fill="#bc3a3a"/>
  <rect x="40" y="3" width="2" height="1" fill="#be423e"/>
  <rect x="42" y="3" width="1" height="1" fill="#c33f3e"/>
  <rect x="43" y="3" width="2" height="1" fill="#c63e3e"/>
  <rect x="45" y="3" width="1" height="1" fill="#c83d3e"/>
  <rect x="46" y="3" width="1" height="1" fill="#c93c3e"/>
  <rect x="47" y="3" width="1" height="1" fill="#c83c42"/>
  <rect x="48" y="3" width="1" height="1" fill="#c13e48"/>
  <rect x="49" y="3" width="1" height="1" fill="#be4048"/>
  <rect x="50" y="3" width="1" height="1" fill="#be4044"/>
  <rect x="51" y="3" width="1" height="1" fill="#bb4246"/>
  <rect x="52" y="3" width="1" height="1" fill="#ad3f44"/>
  <rect x="53" y="3" width="1" height="1" fill="#802e33"/>
  <rect x="4" y="4" width="2" height="1" fill="#999999"/>
  <rect x="12" y="4" width="2" height="2" fill="#99989b"/>
  <rect x="18" y="4" width="1" height="1" fill="#8d2831"/>
  <rect x="19" y="4" width="1" height="1" fill="#c13945"/>
  <rect x="20" y="4" width="1" height="1" fill="#c23b40"/>
  <rect x="21" y="4" width="1" height="1" fill="#b24340"/>
  <rect x="22" y="4" width="1" height="1" fill="#fff1e3"/>
  <rect x="23" y="4" width="1" height="1" fill="#fff8e4"/>
  <rect x="24" y="4" width="1" height="1" fill="#a94b34"/>
  <rect x="25" y="4" width="1" height="1" fill="#b73f2c"/>
  <rect x="26" y="4" width="1" height="1" fill="#bf3a30"/>
  <rect x="27" y="4" width="1" height="1" fill="#c6403d"/>
  <rect x="28" y="4" width="1" height="1" fill="#bc4345"/>
  <rect x="29" y="4" width="1" height="1" fill="#a84a4c"/>
  <rect x="30" y="4" width="1" height="1" fill="#fff0eb"/>
  <rect x="31" y="4" width="1" height="1" fill="#ffece6"/>
  <rect x="32" y="4" width="1" height="1" fill="#b64645"/>
  <rect x="33" y="4" width="1" height="1" fill="#c53e40"/>
  <rect x="34" y="4" width="1" height="1" fill="#bd403f"/>
  <rect x="35" y="4" width="1" height="1" fill="#9c2321"/>
  <rect x="36" y="4" width="1" height="1" fill="#99211e"/>
  <rect x="37" y="4" width="1" height="1" fill="#be4140"/>
  <rect x="38" y="4" width="1" height="1" fill="#c63f41"/>
  <rect x="39" y="4" width="1" height="1" fill="#c33d3f"/>
  <rect x="40" y="4" width="1" height="1" fill="#bf433f"/>
  <rect x="41" y="4" width="1" height="1" fill="#b9443e"/>
  <rect x="42" y="4" width="1" height="1" fill="#b53f39"/>
  <rect x="43" y="4" width="1" height="1" fill="#bb413d"/>
  <rect x="44" y="4" width="1" height="1" fill="#c33f3e"/>
  <rect x="45" y="4" width="1" height="1" fill="#c73c3d"/>
  <rect x="46" y="4" width="1" height="1" fill="#c9393c"/>
  <rect x="47" y="4" width="1" height="1" fill="#c43a40"/>
  <rect x="48" y="4" width="1" height="1" fill="#bb4851"/>
  <rect x="49" y="4" width="1" height="1" fill="#b3474d"/>
  <rect x="50" y="4" width="1" height="1" fill="#b03b40"/>
  <rect x="51" y="4" width="1" height="1" fill="#bc4549"/>
  <rect x="52" y="4" width="1" height="1" fill="#b54249"/>
  <rect x="53" y="4" width="1" height="1" fill="#842c31"/>
  <rect x="58" y="4" width="2" height="2" fill="#c8cbc7"/>
  <rect x="66" y="4" width="2" height="1" fill="#c8c8c8"/>
  <rect x="4" y="5" width="3" height="1" fill="#999999"/>
  <rect x="11" y="5" width="1" height="1" fill="#999999"/>
  <rect x="18" y="5" width="1" height="1" fill="#89262e"/>
  <rect x="19" y="5" width="1" height="1" fill="#c03a45"/>
  <rect x="20" y="5" width="1" height="1" fill="#be373b"/>
  <rect x="21" y="5" width="1" height="1" fill="#ac3f3b"/>
  <rect x="22" y="5" width="1" height="1" fill="#fff4e3"/>
  <rect x="23" y="5" width="1" height="1" fill="#fff0d9"/>
  <rect x="24" y="5" width="1" height="1" fill="#ffe5ce"/>
  <rect x="25" y="5" width="1" height="1" fill="#ad5241"/>
  <rect x="26" y="5" width="1" height="1" fill="#b74a44"/>
  <rect x="27" y="5" width="1" height="1" fill="#b94c4c"/>
  <rect x="28" y="5" width="1" height="1" fill="#a44b4b"/>
  <rect x="29" y="5" width="1" height="1" fill="#ffe9e8"/>
  <rect x="30" y="5" width="1" height="1" fill="#ffeee8"/>
  <rect x="31" y="5" width="1" height="1" fill="#fff0eb"/>
  <rect x="32" y="5" width="1" height="1" fill="#b74547"/>
  <rect x="33" y="5" width="1" height="1" fill="#c83c40"/>
  <rect x="34" y="5" width="1" height="1" fill="#bf3f3f"/>
  <rect x="35" y="5" width="1" height="1" fill="#9d2321"/>
  <rect x="36" y="5" width="1" height="1" fill="#9b201e"/>
  <rect x="37" y="5" width="1" height="1" fill="#c04040"/>
  <rect x="38" y="5" width="1" height="1" fill="#c93d41"/>
  <rect x="39" y="5" width="1" height="1" fill="#c53c3f"/>
  <rect x="40" y="5" width="1" height="1" fill="#bd4242"/>
  <rect x="41" y="5" width="1" height="1" fill="#ffd2cd"/>
  <rect x="42" y="5" width="1" height="1" fill="#ffe0d6"/>
  <rect x="43" y="5" width="1" height="1" fill="#a74940"/>
  <rect x="44" y="5" width="1" height="1" fill="#bf4948"/>
  <rect x="45" y="5" width="1" height="1" fill="#c13c40"/>
  <rect x="46" y="5" width="1" height="1" fill="#c1353b"/>
  <rect x="47" y="5" width="1" height="1" fill="#ba3b42"/>
  <rect x="48" y="5" width="1" height="1" fill="#a64c51"/>
  <rect x="49" y="5" width="1" height="1" fill="#ffe1e4"/>
  <rect x="50" y="5" width="1" height="1" fill="#ffe3e6"/>
  <rect x="51" y="5" width="2" height="1" fill="#b74247"/>
  <rect x="53" y="5" width="1" height="1" fill="#872a2c"/>
  <rect x="60" y="5" width="1" height="1" fill="#c9c9c9"/>
  <rect x="65" y="5" width="3" height="1" fill="#c8c8c8"/>
  <rect x="5" y="6" width="3" height="1" fill="#999999"/>
  <rect x="10" y="6" width="2" height="2" fill="#979999"/>
  <rect x="12" y="6" width="1" height="1" fill="#97999b"/>
  <rect x="18" y="6" width="1" height="2" fill="#8a2730"/>
  <rect x="19" y="6" width="1" height="2" fill="#be3c46"/>
  <rect x="20" y="6" width="1" height="1" fill="#b8383a"/>
  <rect x="21" y="6" width="1" height="1" fill="#b64542"/>
  <rect x="22" y="6" width="1" height="1" fill="#a44b47"/>
  <rect x="23" y="6" width="1" height="1" fill="#fff4ee"/>
  <rect x="24" y="6" width="1" height="1" fill="#fff5f1"/>
  <rect x="25" y="6" width="1" height="1" fill="#fff0ef"/>
  <rect x="26" y="6" width="1" height="1" fill="#964e56"/>
  <rect x="27" y="6" width="1" height="1" fill="#9a5056"/>
  <rect x="28" y="6" width="1" height="1" fill="#fff2ed"/>
  <rect x="29" y="6" width="1" height="1" fill="#ffece4"/>
  <rect x="30" y="6" width="1" height="1" fill="#ffe9e6"/>
  <rect x="31" y="6" width="1" height="1" fill="#aa474b"/>
  <rect x="32" y="6" width="1" height="1" fill="#c34045"/>
  <rect x="33" y="6" width="1" height="2" fill="#c93c40"/>
  <rect x="34" y="6" width="1" height="2" fill="#c14040"/>
  <rect x="35" y="6" width="1" height="2" fill="#9f2221"/>
  <rect x="36" y="6" width="1" height="2" fill="#9c1f1e"/>
  <rect x="37" y="6" width="1" height="2" fill="#c14040"/>
  <rect x="38" y="6" width="1" height="2" fill="#cb3d41"/>
  <rect x="39" y="6" width="1" height="1" fill="#c53c41"/>
  <rect x="40" y="6" width="1" height="1" fill="#b53e42"/>
  <rect x="41" y="6" width="1" height="1" fill="#ffe0dc"/>
  <rect x="42" y="6" width="1" height="1" fill="#fff6e5"/>
  <rect x="43" y="6" width="1" height="1" fill="#fff8e8"/>
  <rect x="44" y="6" width="1" height="1" fill="#ac4d4b"/>
  <rect x="45" y="6" width="1" height="1" fill="#b23b41"/>
  <rect x="46" y="6" width="1" height="1" fill="#c84750"/>
  <rect x="47" y="6" width="1" height="1" fill="#ac4349"/>
  <rect x="48" y="6" width="1" height="1" fill="#ffefed"/>
  <rect x="49" y="6" width="1" height="1" fill="#fff0ec"/>
  <rect x="50" y="6" width="1" height="1" fill="#ffe4e4"/>
  <rect x="51" y="6" width="1" height="1" fill="#bd4d50"/>
  <rect x="52" y="6" width="1" height="1" fill="#ba4047"/>
  <rect x="53" y="6" width="1" height="2" fill="#8a282a"/>
  <rect x="59" y="6" width="1" height="1" fill="#c8cbc7"/>
  <rect x="60" y="6" width="2" height="1" fill="#c9c9c9"/>
  <rect x="64" y="6" width="3" height="1" fill="#c8c8c8"/>
  <rect x="6" y="7" width="4" height="1" fill="#999999"/>
  <rect x="20" y="7" width="1" height="1" fill="#b83b3c"/>
  <rect x="21" y="7" width="1" height="1" fill="#bb4443"/>
  <rect x="22" y="7" width="1" height="1" fill="#ab3d40"/>
  <rect x="23" y="7" width="1" height="1" fill="#994749"/>
  <rect x="24" y="7" width="1" height="1" fill="#ffeff0"/>
  <rect x="25" y="7" width="1" height="1" fill="#ffffff"/>
  <rect x="26" y="7" width="1" height="1" fill="#ffeffc"/>
  <rect x="27" y="7" width="1" height="1" fill="#fff1f9"/>
  <rect x="28" y="7" width="1" height="1" fill="#fff4f1"/>
  <rect x="29" y="7" width="1" height="1" fill="#fff3eb"/>
  <rect x="30" y="7" width="1" height="1" fill="#a64b4a"/>
  <rect x="31" y="7" width="1" height="1" fill="#be4245"/>
  <rect x="32" y="7" width="1" height="1" fill="#c63d42"/>
  <rect x="39" y="7" width="1" height="1" fill="#c53b43"/>
  <rect x="40" y="7" width="1" height="1" fill="#b9424a"/>
  <rect x="41" y="7" width="1" height="1" fill="#a34849"/>
  <rect x="42" y="7" width="1" height="1" fill="#fff8ea"/>
  <rect x="43" y="7" width="1" height="1" fill="#fff3e7"/>
  <rect x="44" y="7" width="1" height="1" fill="#ffefef"/>
  <rect x="45" y="7" width="1" height="1" fill="#a04d54"/>
  <rect x="46" y="7" width="1" height="1" fill="#a94f59"/>
  <rect x="47" y="7" width="1" height="1" fill="#ffe0e6"/>
  <rect x="48" y="7" width="1" height="1" fill="#fff4f4"/>
  <rect x="49" y="7" width="1" height="1" fill="#fff0ee"/>
  <rect x="50" y="7" width="1" height="1" fill="#af5251"/>
  <rect x="51" y="7" width="1" height="1" fill="#b44043"/>
  <rect x="52" y="7" width="1" height="1" fill="#bd3f45"/>
  <rect x="60" y="7" width="4" height="1" fill="#c9c9c9"/>
  <rect x="64" y="7" width="2" height="1" fill="#c8c8c8"/>
  <rect x="7" y="8" width="4" height="2" fill="#97999b"/>
  <rect x="18" y="8" width="1" height="1" fill="#8d2831"/>
  <rect x="19" y="8" width="1" height="1" fill="#c03d47"/>
  <rect x="20" y="8" width="1" height="1" fill="#bc3e40"/>
  <rect x="21" y="8" width="1" height="1" fill="#bd4746"/>
  <rect x="22" y="8" width="1" height="1" fill="#b23f44"/>
  <rect x="23" y="8" width="1" height="1" fill="#a54344"/>
  <rect x="24" y="8" width="1" height="1" fill="#9d534f"/>
  <rect x="25" y="8" width="1" height="1" fill="#fffaf7"/>
  <rect x="26" y="8" width="1" height="1" fill="#fff8fc"/>
  <rect x="27" y="8" width="1" height="1" fill="#fff9ff"/>
  <rect x="28" y="8" width="1" height="1" fill="#fff0f4"/>
  <rect x="29" y="8" width="1" height="1" fill="#954c4e"/>
  <rect x="30" y="8" width="1" height="1" fill="#a73b37"/>
  <rect x="31" y="8" width="1" height="1" fill="#c54440"/>
  <rect x="32" y="8" width="1" height="1" fill="#c63e3e"/>
  <rect x="33" y="8" width="1" height="1" fill="#c53c3f"/>
  <rect x="34" y="8" width="1" height="1" fill="#c04040"/>
  <rect x="35" y="8" width="1" height="2" fill="#9e2422"/>
  <rect x="36" y="8" width="1" height="2" fill="#9c2120"/>
  <rect x="37" y="8" width="1" height="1" fill="#c14241"/>
  <rect x="38" y="8" width="1" height="1" fill="#c93f42"/>
  <rect x="39" y="8" width="1" height="1" fill="#c53d44"/>
  <rect x="40" y="8" width="1" height="1" fill="#be3f4a"/>
  <rect x="41" y="8" width="1" height="1" fill="#bc4b51"/>
  <rect x="42" y="8" width="1" height="1" fill="#ac4d4b"/>
  <rect x="43" y="8" width="1" height="1" fill="#ffefed"/>
  <rect x="44" y="8" width="1" height="1" fill="#fff5f8"/>
  <rect x="45" y="8" width="1" height="1" fill="#fff9fe"/>
  <rect x="46" y="8" width="1" height="1" fill="#fff9fc"/>
  <rect x="47" y="8" width="1" height="1" fill="#fff3f8"/>
  <rect x="48" y="8" width="1" height="1" fill="#ffe7f0"/>
  <rect x="49" y="8" width="1" height="1" fill="#ad4750"/>
  <rect x="50" y="8" width="1" height="1" fill="#ba3f42"/>
  <rect x="51" y="8" width="1" height="1" fill="#c74244"/>
  <rect x="52" y="8" width="1" height="1" fill="#c14145"/>
  <rect x="53" y="8" width="1" height="1" fill="#8a2a2d"/>
  <rect x="61" y="8" width="3" height="2" fill="#c8cbc7"/>
  <rect x="64" y="8" width="1" height="2" fill="#c7c9c6"/>
  <rect x="18" y="9" width="1" height="1" fill="#8c2831"/>
  <rect x="19" y="9" width="1" height="1" fill="#bf3e47"/>
  <rect x="20" y="9" width="1" height="1" fill="#c34346"/>
  <rect x="21" y="9" width="1" height="1" fill="#c64b4b"/>
  <rect x="22" y="9" width="1" height="1" fill="#ac393e"/>
  <rect x="23" y="9" width="1" height="1" fill="#a33e43"/>
  <rect x="24" y="9" width="1" height="1" fill="#974a48"/>
  <rect x="25" y="9" width="1" height="1" fill="#fff5f3"/>
  <rect x="26" y="9" width="1" height="1" fill="#fff8fb"/>
  <rect x="27" y="9" width="1" height="1" fill="#fff3f7"/>
  <rect x="28" y="9" width="1" height="1" fill="#fff5fd"/>
  <rect x="29" y="9" width="1" height="1" fill="#a15558"/>
  <rect x="30" y="9" width="1" height="1" fill="#b54944"/>
  <rect x="31" y="9" width="1" height="1" fill="#be3d39"/>
  <rect x="32" y="9" width="1" height="1" fill="#c33d3d"/>
  <rect x="33" y="9" width="1" height="1" fill="#c23e3f"/>
  <rect x="34" y="9" width="1" height="1" fill="#be4140"/>
  <rect x="37" y="9" width="1" height="1" fill="#bf4241"/>
  <rect x="38" y="9" width="1" height="2" fill="#c54142"/>
  <rect x="39" y="9" width="1" height="1" fill="#c53e42"/>
  <rect x="40" y="9" width="1" height="1" fill="#bf3c44"/>
  <rect x="41" y="9" width="1" height="1" fill="#bc3e44"/>
  <rect x="42" y="9" width="1" height="1" fill="#b23d40"/>
  <rect x="43" y="9" width="1" height="1" fill="#a04e4e"/>
  <rect x="44" y="9" width="1" height="1" fill="#fffafc"/>
  <rect x="45" y="9" width="2" height="1" fill="#f8ffff"/>
  <rect x="47" y="9" width="1" height="1" fill="#fff9fe"/>
  <rect x="48" y="9" width="1" height="1" fill="#994755"/>
  <rect x="49" y="9" width="1" height="1" fill="#a9313e"/>
  <rect x="50" y="9" width="1" height="1" fill="#c33c41"/>
  <rect x="51" y="9" width="1" height="1" fill="#c53a3c"/>
  <rect x="52" y="9" width="1" height="1" fill="#bd3b3d"/>
  <rect x="53" y="9" width="1" height="1" fill="#832529"/>
  <rect x="6" y="10" width="4" height="1" fill="#97999b"/>
  <rect x="10" y="10" width="2" height="1" fill="#959a9b"/>
  <rect x="18" y="10" width="1" height="1" fill="#882c32"/>
  <rect x="19" y="10" width="1" height="2" fill="#bd4048"/>
  <rect x="20" y="10" width="1" height="1" fill="#c84146"/>
  <rect x="21" y="10" width="1" height="1" fill="#be3c3f"/>
  <rect x="22" y="10" width="1" height="1" fill="#b8484a"/>
  <rect x="23" y="10" width="1" height="1" fill="#a35156"/>
  <rect x="24" y="10" width="1" height="1" fill="#ffeefa"/>
  <rect x="25" y="10" width="1" height="1" fill="#ffeffc"/>
  <rect x="26" y="10" width="1" height="1" fill="#ffeff6"/>
  <rect x="27" y="10" width="1" height="1" fill="#fff0f2"/>
  <rect x="28" y="10" width="1" height="1" fill="#fff4f3"/>
  <rect x="29" y="10" width="1" height="1" fill="#ffefec"/>
  <rect x="30" y="10" width="1" height="1" fill="#a44442"/>
  <rect x="31" y="10" width="1" height="1" fill="#bd4542"/>
  <rect x="32" y="10" width="1" height="1" fill="#c23e3f"/>
  <rect x="33" y="10" width="1" height="2" fill="#c33f40"/>
  <rect x="34" y="10" width="1" height="2" fill="#be4341"/>
  <rect x="35" y="10" width="1" height="1" fill="#9d2522"/>
  <rect x="36" y="10" width="1" height="1" fill="#9a2220"/>
  <rect x="37" y="10" width="1" height="1" fill="#be4341"/>
  <rect x="39" y="10" width="1" height="1" fill="#c63d40"/>
  <rect x="40" y="10" width="1" height="1" fill="#c23c3c"/>
  <rect x="41" y="10" width="1" height="1" fill="#ba3939"/>
  <rect x="42" y="10" width="1" height="1" fill="#c34b4a"/>
  <rect x="43" y="10" width="1" height="1" fill="#a55351"/>
  <rect x="44" y="10" width="1" height="1" fill="#fffbf8"/>
  <rect x="45" y="10" width="1" height="1" fill="#f7ffff"/>
  <rect x="46" y="10" width="1" height="1" fill="#f8ffff"/>
  <rect x="47" y="10" width="1" height="1" fill="#fffaff"/>
  <rect x="48" y="10" width="1" height="1" fill="#9d525e"/>
  <rect x="49" y="10" width="1" height="1" fill="#b2434d"/>
  <rect x="50" y="10" width="1" height="1" fill="#ba3a3c"/>
  <rect x="51" y="10" width="1" height="1" fill="#c74140"/>
  <rect x="52" y="10" width="1" height="1" fill="#c04042"/>
  <rect x="53" y="10" width="1" height="1" fill="#87292e"/>
  <rect x="60" y="10" width="4" height="1" fill="#c8cbc7"/>
  <rect x="64" y="10" width="2" height="1" fill="#c7c9c6"/>
  <rect x="5" y="11" width="1" height="1" fill="#99989b"/>
  <rect x="6" y="11" width="2" height="1" fill="#97999b"/>
  <rect x="10" y="11" width="3" height="1" fill="#959a9b"/>
  <rect x="18" y="11" width="1" height="1" fill="#862d32"/>
  <rect x="20" y="11" width="1" height="1" fill="#c93f44"/>
  <rect x="21" y="11" width="1" height="1" fill="#bb3d3f"/>
  <rect x="22" y="11" width="1" height="1" fill="#aa4e49"/>
  <rect x="23" y="11" width="1" height="1" fill="#ffece9"/>
  <rect x="24" y="11" width="1" height="1" fill="#ffe9f4"/>
  <rect x="25" y="11" width="1" height="1" fill="#fff4ff"/>
  <rect x="26" y="11" width="1" height="1" fill="#9b4a53"/>
  <rect x="27" y="11" width="1" height="1" fill="#a14f51"/>
  <rect x="28" y="11" width="1" height="1" fill="#fffbfa"/>
  <rect x="29" y="11" width="1" height="1" fill="#fff1ee"/>
  <rect x="30" y="11" width="1" height="1" fill="#fff2f3"/>
  <rect x="31" y="11" width="1" height="1" fill="#9d3f44"/>
  <rect x="32" y="11" width="1" height="1" fill="#bb4043"/>
  <rect x="35" y="11" width="1" height="1" fill="#9a2421"/>
  <rect x="36" y="11" width="1" height="1" fill="#98221e"/>
  <rect x="37" y="11" width="1" height="1" fill="#bd4240"/>
  <rect x="38" y="11" width="1" height="1" fill="#c44041"/>
  <rect x="39" y="11" width="1" height="1" fill="#c33d3f"/>
  <rect x="40" y="11" width="1" height="1" fill="#c13c3e"/>
  <rect x="41" y="11" width="1" height="1" fill="#b63e3d"/>
  <rect x="42" y="11" width="1" height="1" fill="#a84741"/>
  <rect x="43" y="11" width="1" height="1" fill="#ffe5de"/>
  <rect x="44" y="11" width="1" height="1" fill="#fff7f0"/>
  <rect x="45" y="11" width="1" height="1" fill="#fffbf8"/>
  <rect x="46" y="11" width="1" height="1" fill="#fffafc"/>
  <rect x="47" y="11" width="1" height="1" fill="#fff6fa"/>
  <rect x="48" y="11" width="1" height="1" fill="#ffe3e8"/>
  <rect x="49" y="11" width="1" height="1" fill="#a54f51"/>
  <rect x="50" y="11" width="1" height="1" fill="#b44340"/>
  <rect x="51" y="11" width="1" height="1" fill="#c34442"/>
  <rect x="52" y="11" width="1" height="1" fill="#bf4243"/>
  <rect x="53" y="11" width="1" height="1" fill="#882a2f"/>
  <rect x="59" y="11" width="3" height="1" fill="#c8cbc7"/>
  <rect x="64" y="11" width="3" height="1" fill="#c7c9c6"/>
  <rect x="4" y="12" width="2" height="2" fill="#99989b"/>
  <rect x="6" y="12" width="1" height="1" fill="#97999b"/>
  <rect x="11" y="12" width="3" height="1" fill="#97999b"/>
  <rect x="18" y="12" width="1" height="1" fill="#882c32"/>
  <rect x="19" y="12" width="1" height="1" fill="#be4046"/>
  <rect x="20" y="12" width="1" height="1" fill="#c33e44"/>
  <rect x="21" y="12" width="1" height="1" fill="#b24340"/>
  <rect x="22" y="12" width="1" height="1" fill="#fff3e2"/>
  <rect x="23" y="12" width="1" height="1" fill="#fff7e6"/>
  <rect x="24" y="12" width="1" height="1" fill="#ffedea"/>
  <rect x="25" y="12" width="1" height="1" fill="#ae4f56"/>
  <rect x="26" y="12" width="1" height="1" fill="#ab3a43"/>
  <rect x="27" y="12" width="1" height="1" fill="#b6434a"/>
  <rect x="28" y="12" width="1" height="1" fill="#b54f4f"/>
  <rect x="29" y="12" width="1" height="1" fill="#ffdfdf"/>
  <rect x="30" y="12" width="1" height="1" fill="#fffeff"/>
  <rect x="31" y="12" width="1" height="1" fill="#fff1fc"/>
  <rect x="32" y="12" width="1" height="1" fill="#b0464c"/>
  <rect x="33" y="12" width="1" height="2" fill="#c33e42"/>
  <rect x="34" y="12" width="1" height="3" fill="#bd4242"/>
  <rect x="35" y="12" width="1" height="1" fill="#992322"/>
  <rect x="36" y="12" width="1" height="1" fill="#97201f"/>
  <rect x="37" y="12" width="1" height="1" fill="#bb4041"/>
  <rect x="38" y="12" width="1" height="1" fill="#c33e42"/>
  <rect x="39" y="12" width="1" height="1" fill="#c13c42"/>
  <rect x="40" y="12" width="1" height="1" fill="#bb3f49"/>
  <rect x="41" y="12" width="1" height="1" fill="#af4f52"/>
  <rect x="42" y="12" width="1" height="1" fill="#fff1e6"/>
  <rect x="43" y="12" width="1" height="1" fill="#fff0e2"/>
  <rect x="44" y="12" width="1" height="1" fill="#ffece5"/>
  <rect x="45" y="12" width="1" height="1" fill="#a14f4d"/>
  <rect x="46" y="12" width="1" height="1" fill="#a75555"/>
  <rect x="47" y="12" width="1" height="1" fill="#ffe6e5"/>
  <rect x="48" y="12" width="1" height="1" fill="#fff2eb"/>
  <rect x="49" y="12" width="1" height="1" fill="#fff5e9"/>
  <rect x="50" y="12" width="1" height="1" fill="#a3483d"/>
  <rect x="51" y="12" width="1" height="1" fill="#b7423c"/>
  <rect x="52" y="12" width="1" height="1" fill="#bd3f43"/>
  <rect x="53" y="12" width="1" height="1" fill="#86282c"/>
  <rect x="58" y="12" width="3" height="1" fill="#c9cac7"/>
  <rect x="65" y="12" width="3" height="1" fill="#c7c9c6"/>
  <rect x="12" y="13" width="2" height="1" fill="#97999b"/>
  <rect x="18" y="13" width="1" height="1" fill="#8b2a32"/>
  <rect x="19" y="13" width="1" height="1" fill="#c03f46"/>
  <rect x="20" y="13" width="1" height="1" fill="#be3b41"/>
  <rect x="21" y="13" width="1" height="1" fill="#b1423f"/>
  <rect x="22" y="13" width="1" height="1" fill="#ffebdc"/>
  <rect x="23" y="13" width="1" height="1" fill="#fff0df"/>
  <rect x="24" y="13" width="1" height="1" fill="#b54d47"/>
  <rect x="25" y="13" width="1" height="1" fill="#bc3e40"/>
  <rect x="26" y="13" width="1" height="1" fill="#c33e42"/>
  <rect x="27" y="13" width="1" height="1" fill="#cc4549"/>
  <rect x="28" y="13" width="1" height="1" fill="#b93738"/>
  <rect x="29" y="13" width="1" height="1" fill="#ae494b"/>
  <rect x="30" y="13" width="1" height="1" fill="#fff2fb"/>
  <rect x="31" y="13" width="1" height="1" fill="#fff6ff"/>
  <rect x="32" y="13" width="1" height="1" fill="#b1454c"/>
  <rect x="35" y="13" width="1" height="2" fill="#982120"/>
  <rect x="36" y="13" width="1" height="2" fill="#951f1e"/>
  <rect x="37" y="13" width="1" height="2" fill="#ba3f40"/>
  <rect x="38" y="13" width="1" height="2" fill="#c23d41"/>
  <rect x="39" y="13" width="1" height="1" fill="#be3b41"/>
  <rect x="40" y="13" width="1" height="1" fill="#b9424a"/>
  <rect x="41" y="13" width="1" height="1" fill="#ffdce0"/>
  <rect x="42" y="13" width="1" height="1" fill="#ffeae3"/>
  <rect x="43" y="13" width="1" height="1" fill="#ffede2"/>
  <rect x="44" y="13" width="1" height="1" fill="#ad4c47"/>
  <rect x="45" y="13" width="1" height="1" fill="#bb4242"/>
  <rect x="46" y="13" width="1" height="1" fill="#b13c3f"/>
  <rect x="47" y="13" width="1" height="1" fill="#a7494b"/>
  <rect x="48" y="13" width="1" height="1" fill="#fff5ee"/>
  <rect x="49" y="13" width="1" height="1" fill="#fffff2"/>
  <rect x="50" y="13" width="1" height="1" fill="#ffe9dd"/>
  <rect x="51" y="13" width="1" height="2" fill="#b24139"/>
  <rect x="52" y="13" width="1" height="1" fill="#b83f41"/>
  <rect x="53" y="13" width="1" height="1" fill="#84262a"/>
  <rect x="58" y="13" width="2" height="1" fill="#c9cac7"/>
  <rect x="66" y="13" width="2" height="1" fill="#c7c9c6"/>
  <rect x="18" y="14" width="1" height="1" fill="#8d2a32"/>
  <rect x="19" y="14" width="1" height="1" fill="#c13e46"/>
  <rect x="20" y="14" width="1" height="1" fill="#c03e43"/>
  <rect x="21" y="14" width="1" height="1" fill="#b83b3c"/>
  <rect x="22" y="14" width="1" height="1" fill="#be4849"/>
  <rect x="23" y="14" width="1" height="1" fill="#c04546"/>
  <rect x="24" y="14" width="1" height="1" fill="#c43c3a"/>
  <rect x="25" y="14" width="1" height="2" fill="#ca3b37"/>
  <rect x="26" y="14" width="1" height="1" fill="#c93833"/>
  <rect x="27" y="14" width="1" height="1" fill="#d2433f"/>
  <rect x="28" y="14" width="1" height="1" fill="#cb3d3d"/>
  <rect x="29" y="14" width="1" height="1" fill="#bc393e"/>
  <rect x="30" y="14" width="1" height="1" fill="#b3454c"/>
  <rect x="31" y="14" width="1" height="1" fill="#b94a52"/>
  <rect x="32" y="14" width="1" height="1" fill="#c03f46"/>
  <rect x="33" y="14" width="1" height="1" fill="#c44043"/>
  <rect x="39" y="14" width="1" height="1" fill="#be3c3f"/>
  <rect x="40" y="14" width="1" height="1" fill="#b94543"/>
  <rect x="41" y="14" width="1" height="1" fill="#ffd5d3"/>
  <rect x="42" y="14" width="1" height="1" fill="#ffe6e9"/>
  <rect x="43" y="14" width="1" height="1" fill="#af4f52"/>
  <rect x="44" y="14" width="1" height="1" fill="#bd4544"/>
  <rect x="45" y="14" width="1" height="1" fill="#c54344"/>
  <rect x="46" y="14" width="1" height="1" fill="#c1424b"/>
  <rect x="47" y="14" width="1" height="1" fill="#b2414c"/>
  <rect x="48" y="14" width="1" height="1" fill="#9d484e"/>
  <rect x="49" y="14" width="1" height="1" fill="#ffeaea"/>
  <rect x="50" y="14" width="1" height="1" fill="#ffdad4"/>
  <rect x="52" y="14" width="1" height="1" fill="#b34141"/>
  <rect x="53" y="14" width="1" height="1" fill="#81272a"/>
  <rect x="18" y="15" width="1" height="1" fill="#8b2a32"/>
  <rect x="19" y="15" width="1" height="1" fill="#bd4146"/>
  <rect x="20" y="15" width="1" height="1" fill="#b83b3e"/>
  <rect x="21" y="15" width="1" height="1" fill="#bc393c"/>
  <rect x="22" y="15" width="1" height="1" fill="#c83c44"/>
  <rect x="23" y="15" width="1" height="1" fill="#cb3a42"/>
  <rect x="24" y="15" width="1" height="1" fill="#c9393a"/>
  <rect x="26" y="15" width="1" height="1" fill="#cf4138"/>
  <rect x="27" y="15" width="1" height="1" fill="#c83c35"/>
  <rect x="28" y="15" width="1" height="1" fill="#c33837"/>
  <rect x="29" y="15" width="1" height="1" fill="#c43b3e"/>
  <rect x="30" y="15" width="1" height="1" fill="#c53c41"/>
  <rect x="31" y="15" width="1" height="1" fill="#bf363b"/>
  <rect x="32" y="15" width="1" height="1" fill="#c53e42"/>
  <rect x="33" y="15" width="1" height="1" fill="#c14143"/>
  <rect x="34" y="15" width="1" height="1" fill="#bb4242"/>
  <rect x="35" y="15" width="1" height="1" fill="#972322"/>
  <rect x="36" y="15" width="1" height="1" fill="#94201e"/>
  <rect x="37" y="15" width="1" height="1" fill="#b94040"/>
  <rect x="38" y="15" width="1" height="1" fill="#bf3f41"/>
  <rect x="39" y="15" width="1" height="1" fill="#bc3c3f"/>
  <rect x="40" y="15" width="1" height="1" fill="#bb4844"/>
  <rect x="41" y="15" width="1" height="1" fill="#b44443"/>
  <rect x="42" y="15" width="1" height="1" fill="#b6434a"/>
  <rect x="43" y="15" width="1" height="1" fill="#c04951"/>
  <rect x="44" y="15" width="1" height="1" fill="#be3e40"/>
  <rect x="45" y="15" width="1" height="1" fill="#c44242"/>
  <rect x="46" y="15" width="1" height="1" fill="#c3424c"/>
  <rect x="47" y="15" width="1" height="1" fill="#b9414c"/>
  <rect x="48" y="15" width="1" height="1" fill="#ae414b"/>
  <rect x="49" y="15" width="1" height="1" fill="#aa4144"/>
  <rect x="50" y="15" width="1" height="1" fill="#b1433d"/>
  <rect x="51" y="15" width="1" height="1" fill="#b6463e"/>
  <rect x="52" y="15" width="1" height="1" fill="#b64645"/>
  <rect x="53" y="15" width="1" height="1" fill="#822e2f"/>
  <rect x="18" y="16" width="1" height="1" fill="#7f2d2ec3"/>
  <rect x="19" y="16" width="1" height="1" fill="#ae3e3f"/>
  <rect x="20" y="16" width="1" height="1" fill="#b74142"/>
  <rect x="21" y="16" width="1" height="1" fill="#ba3c40"/>
  <rect x="22" y="16" width="1" height="1" fill="#bf3c42"/>
  <rect x="23" y="16" width="1" height="1" fill="#c03e41"/>
  <rect x="24" y="16" width="1" height="1" fill="#bd403f"/>
  <rect x="25" y="16" width="1" height="1" fill="#bd403d"/>
  <rect x="26" y="16" width="1" height="1" fill="#be423c"/>
  <rect x="27" y="16" width="1" height="1" fill="#b83c36"/>
  <rect x="28" y="16" width="1" height="1" fill="#bf443b"/>
  <rect x="29" y="16" width="1" height="1" fill="#bc403a"/>
  <rect x="30" y="16" width="1" height="1" fill="#bf3f3f"/>
  <rect x="31" y="16" width="1" height="1" fill="#c04042"/>
  <rect x="32" y="16" width="1" height="1" fill="#bb3d3f"/>
  <rect x="33" y="16" width="1" height="1" fill="#c24949"/>
  <rect x="34" y="16" width="1" height="1" fill="#b2403d"/>
  <rect x="35" y="16" width="1" height="1" fill="#942723c4"/>
  <rect x="36" y="16" width="1" height="1" fill="#962925c3"/>
  <rect x="37" y="16" width="1" height="1" fill="#b3413f"/>
  <rect x="38" y="16" width="1" height="1" fill="#c14848"/>
  <rect x="39" y="16" width="1" height="1" fill="#b83d3d"/>
  <rect x="40" y="16" width="1" height="1" fill="#b94342"/>
  <rect x="41" y="16" width="1" height="1" fill="#b84444"/>
  <rect x="42" y="16" width="1" height="1" fill="#b84346"/>
  <rect x="43" y="16" width="1" height="1" fill="#b94246"/>
  <rect x="44" y="16" width="1" height="1" fill="#bb4244"/>
  <rect x="45" y="16" width="1" height="1" fill="#bd4242"/>
  <rect x="46" y="16" width="1" height="1" fill="#bb4246"/>
  <rect x="47" y="16" width="1" height="1" fill="#b94246"/>
  <rect x="48" y="16" width="1" height="1" fill="#b74245"/>
  <rect x="49" y="16" width="1" height="1" fill="#b3413f"/>
  <rect x="50" y="16" width="1" height="1" fill="#b5443d"/>
  <rect x="51" y="16" width="1" height="1" fill="#b94840"/>
  <rect x="52" y="16" width="1" height="1" fill="#a93a39"/>
  <rect x="53" y="16" width="1" height="1" fill="#893639c4"/>
  <rect x="18" y="17" width="1" height="1" fill="#7b2e2c5a"/>
  <rect x="19" y="17" width="1" height="1" fill="#982d2dc3"/>
  <rect x="20" y="17" width="1" height="1" fill="#9b2727"/>
  <rect x="21" y="17" width="1" height="1" fill="#9c2124"/>
  <rect x="22" y="17" width="1" height="1" fill="#a02226"/>
  <rect x="23" y="17" width="1" height="1" fill="#a12327"/>
  <rect x="24" y="17" width="1" height="1" fill="#9c2625"/>
  <rect x="25" y="17" width="1" height="1" fill="#9b2723"/>
  <rect x="26" y="17" width="1" height="1" fill="#9e2824"/>
  <rect x="27" y="17" width="1" height="1" fill="#98221c"/>
  <rect x="28" y="17" width="1" height="1" fill="#9f2a1f"/>
  <rect x="29" y="17" width="1" height="1" fill="#9d261c"/>
  <rect x="30" y="17" width="1" height="1" fill="#a02523"/>
  <rect x="31" y="17" width="1" height="1" fill="#a12626"/>
  <rect x="32" y="17" width="1" height="1" fill="#951c1c"/>
  <rect x="33" y="17" width="1" height="1" fill="#982120"/>
  <rect x="34" y="17" width="1" height="1" fill="#952623c4"/>
  <rect x="35" y="17" width="1" height="1" fill="#9127225b"/>
  <rect x="36" y="17" width="1" height="1" fill="#8c221d5a"/>
  <rect x="37" y="17" width="1" height="1" fill="#942522c3"/>
  <rect x="38" y="17" width="1" height="1" fill="#9a2423"/>
  <rect x="39" y="17" width="1" height="1" fill="#992120"/>
  <rect x="40" y="17" width="8" height="1" fill="#9e2728"/>
  <rect x="48" y="17" width="1" height="1" fill="#9e2525"/>
  <rect x="49" y="17" width="1" height="1" fill="#9a251f"/>
  <rect x="50" y="17" width="1" height="1" fill="#9b281f"/>
  <rect x="51" y="17" width="1" height="1" fill="#9d2c24"/>
  <rect x="52" y="17" width="1" height="1" fill="#9a2b29c4"/>
  <rect x="53" y="17" width="1" height="1" fill="#7f2d305b"/>
</svg>