<svg xmlns="http://www.w3.org/2000/svg" width="104" height="12" viewBox="0 0 104 12" shape-rendering="crispEdges">
  <rect x="10" y="4" width="1" height="1" fill="#858585"/>
  <rect x="11" y="4" width="1" height="1" fill="#848484"/>
  <rect x="12" y="4" width="1" height="1" fill="#808080"/>
  <rect x="13" y="4" width="1" height="1" fill="#7a7a7a"/>
  <rect x="14" y="4" width="1" height="1" fill="#737373"/>
  <rect x="15" y="4" width="1" height="1" fill="#747474"/>
  <rect x="16" y="4" width="1" height="1" fill="#767676"/>
  <rect x="35" y="4" width="1" height="1" fill="#ffffff1a"/>
  <rect x="36" y="4" width="1" height="1" fill="#424242"/>
  <rect x="37" y="4" width="1" height="1" fill="#464646"/>
  <rect x="38" y="4" width="1" height="1" fill="#4b4b4b"/>
  <rect x="39" y="4" width="2" height="1" fill="#4f4f4f"/>
  <rect x="41" y="4" width="1" height="1" fill="#484848"/>
  <rect x="42" y="4" width="1" height="1" fill="#545454"/>
  <rect x="88" y="4" width="1" height="1" fill="#7b7b7b"/>
  <rect x="89" y="4" width="1" height="1" fill="#797979"/>
  <rect x="90" y="4" width="1" height="1" fill="#747474"/>
  <rect x="91" y="4" width="1" height="1" fill="#797979"/>
  <rect x="92" y="4" width="1" height="1" fill="#787878"/>
  <rect x="93" y="4" width="1" height="1" fill="#747474"/>
  <rect x="94" y="4" width="1" height="1" fill="#7b7b7b"/>
  <rect x="11" y="5" width="1" height="1" fill="#858585"/>
  <rect x="12" y="5" width="1" height="1" fill="#898989"/>
  <rect x="13" y="5" width="1" height="1" fill="#909090"/>
  <rect x="14" y="5" width="1" height="1" fill="#848484"/>
  <rect x="15" y="5" width="1" height="1" fill="#828282"/>
  <rect x="37" y="5" width="1" height="1" fill="#5d5d5d"/>
  <rect x="38" y="5" width="1" height="1" fill="#585858"/>
  <rect x="39" y="5" width="3" height="1" fill="#565656"/>
  <rect x="63" y="5" width="1" height="1" fill="#494949"/>
  <rect x="64" y="5" width="2" height="1" fill="#484848"/>
  <rect x="66" y="5" width="2" height="1" fill="#474747"/>
  <rect x="68" y="5" width="2" height="1" fill="#545454"/>
  <rect x="89" y="5" width="2" height="1" fill="#868686"/>
  <rect x="91" y="5" width="1" height="1" fill="#878787"/>
  <rect x="92" y="5" width="1" height="1" fill="#848484"/>
  <rect x="93" y="5" width="1" height="1" fill="#858585"/>
  <rect x="12" y="6" width="1" height="1" fill="#939393"/>
  <rect x="13" y="6" width="1" height="1" fill="#969696"/>
  <rect x="14" y="6" width="1" height="1" fill="#9a9a9a"/>
  <rect x="38" y="6" width="1" height="1" fill="#686868"/>
  <rect x="39" y="6" width="1" height="1" fill="#646464"/>
  <rect x="40" y="6" width="1" height="1" fill="#666666"/>
  <rect x="64" y="6" width="2" height="1" fill="#5a5a5a"/>
  <rect x="66" y="6" width="1" height="1" fill="#585858"/>
  <rect x="67" y="6" width="1" height="1" fill="#575757"/>
  <rect x="68" y="6" width="1" height="1" fill="#565656"/>
  <rect x="90" y="6" width="1" height="1" fill="#999999"/>
  <rect x="91" y="6" width="1" height="1" fill="#969696"/>
  <rect x="92" y="6" width="1" height="1" fill="#939393"/>
  <rect x="13" y="7" width="1" height="1" fill="#b2b2b2"/>
  <rect x="39" y="7" width="1" height="1" fill="#727272"/>
  <rect x="40" y="7" width="1" height="1" fill="#f2f2f21a"/>
  <rect x="65" y="7" width="3" height="1" fill="#5f5f5f"/>
  <rect x="91" y="7" width="1" height="1" fill="#aaaaaa"/>
  <rect x="35" y="8" width="2" height="1" fill="#ffffff1a"/>
  <rect x="66" y="8" width="1" height="1" fill="#777777"/>
</svg>