<svg xmlns="http://www.w3.org/2000/svg" width="400" height="21" viewBox="0 0 400 21" shape-rendering="crispEdges">
  <rect x="0" y="0" width="2" height="1" fill="#c8c8c8"/>
  <rect x="2" y="0" width="1" height="1" fill="#cccccc"/>
  <rect x="3" y="0" width="1" height="1" fill="#cecece"/>
  <rect x="4" y="0" width="1" height="1" fill="#cdcdcd"/>
  <rect x="5" y="0" width="9" height="1" fill="#cbcbcb"/>
  <rect x="14" y="0" width="4" height="1" fill="#cccccc"/>
  <rect x="18" y="0" width="78" height="1" fill="#cdcdcd"/>
  <rect x="96" y="0" width="1" height="1" fill="#d3d3d3"/>
  <rect x="97" y="0" width="1" height="1" fill="#c6c6c6"/>
  <rect x="98" y="0" width="1" height="1" fill="#cecece"/>
  <rect x="99" y="0" width="1" height="1" fill="#c7c7c7"/>
  <rect x="100" y="0" width="1" height="1" fill="#9a9a9a"/>
  <rect x="101" y="0" width="1" height="1" fill="#a2a2a2"/>
  <rect x="102" y="0" width="1" height="1" fill="#979797"/>
  <rect x="103" y="0" width="1" height="1" fill="#999999"/>
  <rect x="104" y="0" width="67" height="1" fill="#969696"/>
  <rect x="171" y="0" width="1" height="1" fill="#999999"/>
  <rect x="172" y="0" width="1" height="1" fill="#9a9a9a"/>
  <rect x="173" y="0" width="1" height="1" fill="#999999"/>
  <rect x="174" y="0" width="1" height="1" fill="#949494"/>
  <rect x="175" y="0" width="1" height="1" fill="#939393"/>
  <rect x="176" y="0" width="1" height="1" fill="#979797"/>
  <rect x="177" y="0" width="18" height="1" fill="#9a9a9a"/>
  <rect x="195" y="0" width="2" height="1" fill="#999999"/>
  <rect x="197" y="0" width="1" height="1" fill="#9b9b9b"/>
  <rect x="198" y="0" width="1" height="1" fill="#999999"/>
  <rect x="199" y="0" width="1" height="1" fill="#9d9d9d"/>
  <rect x="200" y="0" width="1" height="1" fill="#999999"/>
  <rect x="201" y="0" width="1" height="1" fill="#a1a1a1"/>
  <rect x="202" y="0" width="1" height="1" fill="#969696"/>
  <rect x="203" y="0" width="1" height="1" fill="#979797"/>
  <rect x="204" y="0" width="4" height="1" fill="#999999"/>
  <rect x="208" y="0" width="63" height="1" fill="#9a9a9a"/>
  <rect x="271" y="0" width="1" height="1" fill="#999999"/>
  <rect x="272" y="0" width="1" height="1" fill="#969696"/>
  <rect x="273" y="0" width="1" height="1" fill="#949494"/>
  <rect x="274" y="0" width="1" height="1" fill="#969696"/>
  <rect x="275" y="0" width="1" height="1" fill="#979797"/>
  <rect x="276" y="0" width="1" height="1" fill="#969696"/>
  <rect x="277" y="0" width="19" height="1" fill="#949494"/>
  <rect x="296" y="0" width="1" height="1" fill="#959595"/>
  <rect x="297" y="0" width="1" height="1" fill="#9b9b9b"/>
  <rect x="298" y="0" width="1" height="1" fill="#979797"/>
  <rect x="299" y="0" width="1" height="1" fill="#9a9a9a"/>
  <rect x="300" y="0" width="1" height="1" fill="#cecece"/>
  <rect x="301" y="0" width="1" height="1" fill="#d3d3d3"/>
  <rect x="302" y="0" width="1" height="1" fill="#c5c5c5"/>
  <rect x="303" y="0" width="1" height="1" fill="#cfcfcf"/>
  <rect x="304" y="0" width="92" height="1" fill="#cccccc"/>
  <rect x="396" y="0" width="2" height="1" fill="#c9c9c9"/>
  <rect x="398" y="0" width="1" height="1" fill="#cecece"/>
  <rect x="399" y="0" width="1" height="1" fill="#c8c8c8"/>
  <rect x="0" y="1" width="1" height="1" fill="#d3d3d3"/>
  <rect x="1" y="1" width="1" height="1" fill="#dddddd"/>
  <rect x="2" y="1" width="1" height="1" fill="#e4e4e4"/>
  <rect x="3" y="1" width="1" height="1" fill="#e5e5e5"/>
  <rect x="4" y="1" width="9" height="1" fill="#e3e3e3"/>
  <rect x="13" y="1" width="2" height="1" fill="#e4e4e4"/>
  <rect x="15" y="1" width="2" height="1" fill="#e5e5e5"/>
  <rect x="17" y="1" width="2" height="1" fill="#e7e7e7"/>
  <rect x="19" y="1" width="77" height="1" fill="#e8e8e8"/>
  <rect x="96" y="1" width="1" height="1" fill="#ebebeb"/>
  <rect x="97" y="1" width="1" height="1" fill="#e3e3e3"/>
  <rect x="98" y="1" width="1" height="1" fill="#e8e8e8"/>
  <rect x="99" y="1" width="1" height="1" fill="#d6d6d6"/>
  <rect x="100" y="1" width="1" height="1" fill="#9e9e9e"/>
  <rect x="101" y="1" width="1" height="1" fill="#e2e2e2"/>
  <rect x="102" y="1" width="1" height="1" fill="#ececec"/>
  <rect x="103" y="1" width="1" height="1" fill="#e9e9e9"/>
  <rect x="104" y="1" width="67" height="1" fill="#e8e8e8"/>
  <rect x="171" y="1" width="1" height="1" fill="#e5e5e5"/>
  <rect x="172" y="1" width="1" height="1" fill="#e4e4e4"/>
  <rect x="173" y="1" width="1" height="1" fill="#e5e5e5"/>
  <rect x="174" y="1" width="1" height="1" fill="#eaeaea"/>
  <rect x="175" y="1" width="1" height="1" fill="#eeeeee"/>
  <rect x="176" y="1" width="20" height="1" fill="#fcfbfc"/>
  <rect x="196" y="1" width="1" height="1" fill="#fdfdfd"/>
  <rect x="197" y="1" width="1" height="1" fill="#ffffff"/>
  <rect x="198" y="1" width="1" height="1" fill="#f8f8f8"/>
  <rect x="199" y="1" width="1" height="1" fill="#9c9c9c"/>
  <rect x="200" y="1" width="1" height="1" fill="#9b9b9b"/>
  <rect x="201" y="1" width="1" height="1" fill="#dedede"/>
  <rect x="202" y="1" width="1" height="1" fill="#e9e9e9"/>
  <rect x="203" y="1" width="1" height="1" fill="#e5e5e5"/>
  <rect x="204" y="1" width="4" height="1" fill="#ececec"/>
  <rect x="208" y="1" width="63" height="1" fill="#eeeeee"/>
  <rect x="271" y="1" width="1" height="1" fill="#ececec"/>
  <rect x="272" y="1" width="1" height="1" fill="#ebebeb"/>
  <rect x="273" y="1" width="1" height="1" fill="#eeeeee"/>
  <rect x="274" y="1" width="1" height="1" fill="#ebebeb"/>
  <rect x="275" y="1" width="1" height="1" fill="#e5e5e5"/>
  <rect x="276" y="1" width="20" height="1" fill="#e3e3e3"/>
  <rect x="296" y="1" width="1" height="1" fill="#dedede"/>
  <rect x="297" y="1" width="1" height="1" fill="#e3e3e3"/>
  <rect x="298" y="1" width="1" height="1" fill="#e7e7e7"/>
  <rect x="299" y="1" width="1" height="1" fill="#959595"/>
  <rect x="300" y="1" width="1" height="1" fill="#cdcdcd"/>
  <rect x="301" y="1" width="2" height="1" fill="#f5f5f5"/>
  <rect x="303" y="1" width="1" height="1" fill="#f0f0f0"/>
  <rect x="304" y="1" width="92" height="1" fill="#f3f3f3"/>
  <rect x="396" y="1" width="1" height="1" fill="#f5f5f5"/>
  <rect x="397" y="1" width="1" height="1" fill="#f6f6f6"/>
  <rect x="398" y="1" width="1" height="1" fill="#f2f2f2"/>
  <rect x="399" y="1" width="1" height="1" fill="#d2d2d2"/>
  <rect x="0" y="2" width="1" height="1" fill="#d7d7d7"/>
  <rect x="1" y="2" width="1" height="1" fill="#eeeeee"/>
  <rect x="2" y="2" width="1" height="1" fill="#fafafa"/>
  <rect x="3" y="2" width="1" height="1" fill="#f5f5f5"/>
  <rect x="4" y="2" width="10" height="1" fill="#f7f7f7"/>
  <rect x="14" y="2" width="2" height="1" fill="#f6f6f6"/>
  <rect x="16" y="2" width="2" height="1" fill="#f5f5f5"/>
  <rect x="18" y="2" width="78" height="1" fill="#f3f3f3"/>
  <rect x="96" y="2" width="1" height="1" fill="#f5f5f5"/>
  <rect x="97" y="2" width="1" height="1" fill="#f1f1f1"/>
  <rect x="98" y="2" width="1" height="1" fill="#f0f0f0"/>
  <rect x="99" y="2" width="1" height="1" fill="#d2d2d2"/>
  <rect x="100" y="2" width="1" height="1" fill="#969696"/>
  <rect x="101" y="2" width="1" height="1" fill="#f8f8f8"/>
  <rect x="102" y="2" width="1" height="1" fill="#f9f9f9"/>
  <rect x="103" y="2" width="1" height="1" fill="#eeeeee"/>
  <rect x="104" y="2" width="67" height="1" fill="#f8f8f8"/>
  <rect x="171" y="2" width="1" height="1" fill="#f6f6f6"/>
  <rect x="172" y="2" width="1" height="1" fill="#f5f5f5"/>
  <rect x="173" y="2" width="1" height="1" fill="#f6f6f6"/>
  <rect x="174" y="2" width="1" height="6" fill="#fafafa"/>
  <rect x="175" y="2" width="1" height="1" fill="#fdfdfd"/>
  <rect x="176" y="2" width="1" height="1" fill="#fefefe"/>
  <rect x="177" y="2" width="19" height="1" fill="#fdfdfd"/>
  <rect x="196" y="2" width="1" height="1" fill="#ffffff"/>
  <rect x="197" y="2" width="1" height="1" fill="#f8f8f8"/>
  <rect x="198" y="2" width="1" height="1" fill="#ffffff"/>
  <rect x="199" y="2" width="1" height="1" fill="#a1a1a1"/>
  <rect x="200" y="2" width="1" height="1" fill="#9c9c9c"/>
  <rect x="201" y="2" width="1" height="2" fill="#fefefe"/>
  <rect x="202" y="2" width="1" height="1" fill="#ffffff"/>
  <rect x="203" y="2" width="1" height="1" fill="#f3f3f3"/>
  <rect x="204" y="2" width="4" height="1" fill="#f6f6f6"/>
  <rect x="208" y="2" width="64" height="1" fill="#f7f7f7"/>
  <rect x="272" y="2" width="1" height="1" fill="#f6f6f6"/>
  <rect x="273" y="2" width="1" height="1" fill="#fefefe"/>
  <rect x="274" y="2" width="1" height="1" fill="#f7f7f7"/>
  <rect x="275" y="2" width="1" height="1" fill="#e3e3e3"/>
  <rect x="276" y="2" width="20" height="1" fill="#e5e5e5"/>
  <rect x="296" y="2" width="1" height="1" fill="#eaeaea"/>
  <rect x="297" y="2" width="1" height="1" fill="#d9d9d9"/>
  <rect x="298" y="2" width="1" height="1" fill="#ebebeb"/>
  <rect x="299" y="2" width="1" height="1" fill="#a1a1a1"/>
  <rect x="300" y="2" width="1" height="1" fill="#c0c0c0"/>
  <rect x="301" y="2" width="1" height="1" fill="#f5f5f5"/>
  <rect x="302" y="2" width="1" height="1" fill="#f9f9f9"/>
  <rect x="303" y="2" width="1" height="2" fill="#efefef"/>
  <rect x="304" y="2" width="92" height="1" fill="#f5f5f5"/>
  <rect x="396" y="2" width="1" height="1" fill="#f2f2f2"/>
  <rect x="397" y="2" width="1" height="1" fill="#f3f3f3"/>
  <rect x="398" y="2" width="1" height="1" fill="#f7f7f7"/>
  <rect x="399" y="2" width="1" height="1" fill="#cecece"/>
  <rect x="0" y="3" width="1" height="1" fill="#d0d0d0"/>
  <rect x="1" y="3" width="1" height="1" fill="#f1f1f1"/>
  <rect x="2" y="3" width="1" height="1" fill="#ffffff"/>
  <rect x="3" y="3" width="1" height="1" fill="#f8f8f8"/>
  <rect x="4" y="3" width="12" height="1" fill="#fefefe"/>
  <rect x="16" y="3" width="80" height="1" fill="#fdfdfd"/>
  <rect x="96" y="3" width="1" height="13" fill="#fcfbfc"/>
  <rect x="97" y="3" width="1" height="13" fill="#fdfdfd"/>
  <rect x="98" y="3" width="1" height="13" fill="#f8f8f8"/>
  <rect x="99" y="3" width="1" height="12" fill="#cfcfcf"/>
  <rect x="100" y="3" width="1" height="1" fill="#929292"/>
  <rect x="101" y="3" width="1" height="1" fill="#fafafa"/>
  <rect x="102" y="3" width="1" height="1" fill="#fdfdfd"/>
  <rect x="103" y="3" width="1" height="1" fill="#ffffff"/>
  <rect x="104" y="3" width="67" height="1" fill="#fdfdfd"/>
  <rect x="171" y="3" width="3" height="1" fill="#ffffff"/>
  <rect x="175" y="3" width="1" height="1" fill="#f8f8f8"/>
  <rect x="176" y="3" width="1" height="4" fill="#f9f9f9"/>
  <rect x="177" y="3" width="19" height="4" fill="#fafafa"/>
  <rect x="196" y="3" width="1" height="1" fill="#ececec"/>
  <rect x="197" y="3" width="1" height="1" fill="#fcfbfc"/>
  <rect x="198" y="3" width="1" height="1" fill="#f9f9f9"/>
  <rect x="199" y="3" width="1" height="1" fill="#9a9a9a"/>
  <rect x="200" y="3" width="1" height="1" fill="#969696"/>
  <rect x="202" y="3" width="2" height="1" fill="#ffffff"/>
  <rect x="204" y="3" width="4" height="1" fill="#fcfbfc"/>
  <rect x="208" y="3" width="65" height="1" fill="#fdfdfd"/>
  <rect x="273" y="3" width="1" height="1" fill="#ffffff"/>
  <rect x="274" y="3" width="1" height="1" fill="#fefefe"/>
  <rect x="275" y="3" width="1" height="1" fill="#e1e1e1"/>
  <rect x="276" y="3" width="20" height="1" fill="#e7e7e7"/>
  <rect x="296" y="3" width="1" height="1" fill="#e8e8e8"/>
  <rect x="297" y="3" width="1" height="1" fill="#e1e1e1"/>
  <rect x="298" y="3" width="1" height="1" fill="#dedede"/>
  <rect x="299" y="3" width="1" height="1" fill="#949494"/>
  <rect x="300" y="3" width="1" height="1" fill="#cfcfcf"/>
  <rect x="301" y="3" width="2" height="1" fill="#f3f3f3"/>
  <rect x="304" y="3" width="92" height="1" fill="#f2f2f2"/>
  <rect x="396" y="3" width="1" height="1" fill="#fafafa"/>
  <rect x="397" y="3" width="1" height="1" fill="#f0f0f0"/>
  <rect x="398" y="3" width="1" height="1" fill="#f5f5f5"/>
  <rect x="399" y="3" width="1" height="1" fill="#cdcdcd"/>
  <rect x="0" y="4" width="1" height="12" fill="#cfcfcf"/>
  <rect x="1" y="4" width="1" height="12" fill="#f3f3f3"/>
  <rect x="2" y="4" width="1" height="12" fill="#fdfdfd"/>
  <rect x="3" y="4" width="1" height="12" fill="#f9f9f9"/>
  <rect x="4" y="4" width="4" height="12" fill="#fcfbfc"/>
  <rect x="8" y="4" width="4" height="14" fill="#fdfdfd"/>
  <rect x="12" y="4" width="4" height="12" fill="#fefefe"/>
  <rect x="16" y="4" width="56" height="2" fill="#fdfdfd"/>
  <rect x="72" y="4" width="1" height="1" fill="#ffffff"/>
  <rect x="73" y="4" width="1" height="1" fill="#fafafa"/>
  <rect x="74" y="4" width="1" height="2" fill="#ffffff"/>
  <rect x="75" y="4" width="1" height="1" fill="#eaeaea"/>
  <rect x="76" y="4" width="4" height="2" fill="#fcfbfc"/>
  <rect x="80" y="4" width="16" height="2" fill="#fdfdfd"/>
  <rect x="100" y="4" width="1" height="1" fill="#949494"/>
  <rect x="101" y="4" width="1" height="12" fill="#f7f7f7"/>
  <rect x="102" y="4" width="1" height="13" fill="#ffffff"/>
  <rect x="103" y="4" width="1" height="12" fill="#fcfbfc"/>
  <rect x="104" y="4" width="70" height="5" fill="#ffffff"/>
  <rect x="175" y="4" width="1" height="3" fill="#dbdbdb"/>
  <rect x="196" y="4" width="1" height="3" fill="#fdfdfd"/>
  <rect x="197" y="4" width="1" height="3" fill="#f7f7f7"/>
  <rect x="198" y="4" width="1" height="3" fill="#fcfbfc"/>
  <rect x="199" y="4" width="2" height="1" fill="#979797"/>
  <rect x="201" y="4" width="1" height="5" fill="#fafafa"/>
  <rect x="202" y="4" width="1" height="12" fill="#ffffff"/>
  <rect x="203" y="4" width="1" height="5" fill="#fefefe"/>
  <rect x="204" y="4" width="6" height="3" fill="#ffffff"/>
  <rect x="210" y="4" width="62" height="3" fill="#fefefe"/>
  <rect x="272" y="4" width="2" height="4" fill="#ffffff"/>
  <rect x="274" y="4" width="1" height="4" fill="#fcfbfc"/>
  <rect x="275" y="4" width="1" height="4" fill="#d3d3d3"/>
  <rect x="276" y="4" width="1" height="2" fill="#f2f2f2"/>
  <rect x="277" y="4" width="1" height="2" fill="#efefef"/>
  <rect x="278" y="4" width="1" height="2" fill="#eaeaea"/>
  <rect x="279" y="4" width="1" height="2" fill="#e8e8e8"/>
  <rect x="280" y="4" width="1" height="2" fill="#e9e9e9"/>
  <rect x="281" y="4" width="16" height="2" fill="#eaeaea"/>
  <rect x="297" y="4" width="1" height="2" fill="#ececec"/>
  <rect x="298" y="4" width="1" height="2" fill="#eaeaea"/>
  <rect x="299" y="4" width="1" height="2" fill="#969696"/>
  <rect x="300" y="4" width="1" height="3" fill="#cccccc"/>
  <rect x="301" y="4" width="1" height="3" fill="#f3f3f3"/>
  <rect x="302" y="4" width="1" height="3" fill="#f8f8f8"/>
  <rect x="303" y="4" width="1" height="3" fill="#f7f7f7"/>
  <rect x="304" y="4" width="4" height="4" fill="#f5f5f5"/>
  <rect x="308" y="4" width="64" height="1" fill="#f3f3f3"/>
  <rect x="372" y="4" width="1" height="1" fill="#f1f1f1"/>
  <rect x="373" y="4" width="1" height="1" fill="#f3f3f3"/>
  <rect x="374" y="4" width="1" height="1" fill="#f5f5f5"/>
  <rect x="375" y="4" width="1" height="1" fill="#e4e4e4"/>
  <rect x="376" y="4" width="4" height="2" fill="#f5f5f5"/>
  <rect x="380" y="4" width="16" height="4" fill="#f3f3f3"/>
  <rect x="396" y="4" width="1" height="12" fill="#f6f6f6"/>
  <rect x="397" y="4" width="1" height="12" fill="#f5f5f5"/>
  <rect x="398" y="4" width="1" height="12" fill="#f3f3f3"/>
  <rect x="399" y="4" width="1" height="12" fill="#cbcbcb"/>
  <rect x="72" y="5" width="1" height="1" fill="#fefefe"/>
  <rect x="73" y="5" width="1" height="1" fill="#fcfbfc"/>
  <rect x="75" y="5" width="1" height="1" fill="#e4e4e4"/>
  <rect x="100" y="5" width="1" height="11" fill="#979797"/>
  <rect x="199" y="5" width="1" height="4" fill="#999999"/>
  <rect x="200" y="5" width="1" height="4" fill="#9b9b9b"/>
  <rect x="308" y="5" width="67" height="1" fill="#f3f3f3"/>
  <rect x="375" y="5" width="1" height="1" fill="#e2e2e2"/>
  <rect x="16" y="6" width="58" height="1" fill="#fdfdfd"/>
  <rect x="74" y="6" width="1" height="1" fill="#fefefe"/>
  <rect x="75" y="6" width="1" height="1" fill="#dcdcdc"/>
  <rect x="76" y="6" width="20" height="4" fill="#fdfdfd"/>
  <rect x="276" y="6" width="1" height="1" fill="#f5f5f5"/>
  <rect x="277" y="6" width="1" height="1" fill="#f1f1f1"/>
  <rect x="278" y="6" width="1" height="1" fill="#ececec"/>
  <rect x="279" y="6" width="1" height="1" fill="#eaeaea"/>
  <rect x="280" y="6" width="1" height="1" fill="#ebebeb"/>
  <rect x="281" y="6" width="5" height="1" fill="#ececec"/>
  <rect x="286" y="6" width="2" height="1" fill="#ebebeb"/>
  <rect x="288" y="6" width="9" height="1" fill="#ececec"/>
  <rect x="297" y="6" width="1" height="1" fill="#efefef"/>
  <rect x="298" y="6" width="1" height="1" fill="#ececec"/>
  <rect x="299" y="6" width="1" height="1" fill="#999999"/>
  <rect x="308" y="6" width="64" height="2" fill="#f3f3f3"/>
  <rect x="372" y="6" width="1" height="1" fill="#f7f7f7"/>
  <rect x="373" y="6" width="1" height="2" fill="#f6f6f6"/>
  <rect x="374" y="6" width="1" height="1" fill="#f2f2f2"/>
  <rect x="375" y="6" width="1" height="1" fill="#dedede"/>
  <rect x="376" y="6" width="1" height="4" fill="#f6f6f6"/>
  <rect x="377" y="6" width="3" height="1" fill="#f5f5f5"/>
  <rect x="16" y="7" width="56" height="9" fill="#fdfdfd"/>
  <rect x="72" y="7" width="1" height="5" fill="#fcfbfc"/>
  <rect x="73" y="7" width="1" height="5" fill="#fefefe"/>
  <rect x="74" y="7" width="1" height="5" fill="#fdfdfd"/>
  <rect x="75" y="7" width="1" height="5" fill="#d6d6d6"/>
  <rect x="175" y="7" width="1" height="1" fill="#d9d9d9"/>
  <rect x="176" y="7" width="1" height="1" fill="#f8f8f8"/>
  <rect x="177" y="7" width="7" height="1" fill="#f9f9f9"/>
  <rect x="184" y="7" width="12" height="1" fill="#fafafa"/>
  <rect x="196" y="7" width="1" height="1" fill="#fcfbfc"/>
  <rect x="197" y="7" width="1" height="1" fill="#f8f8f8"/>
  <rect x="198" y="7" width="1" height="1" fill="#f9f9f9"/>
  <rect x="204" y="7" width="4" height="1" fill="#ffffff"/>
  <rect x="208" y="7" width="64" height="1" fill="#fefefe"/>
  <rect x="276" y="7" width="1" height="1" fill="#f6f6f6"/>
  <rect x="277" y="7" width="1" height="1" fill="#f2f2f2"/>
  <rect x="278" y="7" width="1" height="1" fill="#eeeeee"/>
  <rect x="279" y="7" width="1" height="1" fill="#ebebeb"/>
  <rect x="280" y="7" width="1" height="1" fill="#ececec"/>
  <rect x="281" y="7" width="5" height="1" fill="#eeeeee"/>
  <rect x="286" y="7" width="2" height="1" fill="#ececec"/>
  <rect x="288" y="7" width="9" height="1" fill="#eeeeee"/>
  <rect x="297" y="7" width="1" height="1" fill="#f0f0f0"/>
  <rect x="298" y="7" width="1" height="1" fill="#eeeeee"/>
  <rect x="299" y="7" width="1" height="1" fill="#9a9a9a"/>
  <rect x="300" y="7" width="1" height="2" fill="#cbcbcb"/>
  <rect x="301" y="7" width="1" height="2" fill="#f2f2f2"/>
  <rect x="302" y="7" width="1" height="2" fill="#f7f7f7"/>
  <rect x="303" y="7" width="1" height="2" fill="#f6f6f6"/>
  <rect x="372" y="7" width="1" height="1" fill="#f9f9f9"/>
  <rect x="374" y="7" width="1" height="1" fill="#f1f1f1"/>
  <rect x="375" y="7" width="1" height="1" fill="#dcdcdc"/>
  <rect x="377" y="7" width="1" height="9" fill="#f5f5f5"/>
  <rect x="378" y="7" width="1" height="2" fill="#f3f3f3"/>
  <rect x="379" y="7" width="1" height="1" fill="#f5f5f5"/>
  <rect x="174" y="8" width="1" height="2" fill="#f9f9f9"/>
  <rect x="175" y="8" width="1" height="1" fill="#d7d7d7"/>
  <rect x="176" y="8" width="4" height="1" fill="#f8f8f8"/>
  <rect x="180" y="8" width="2" height="1" fill="#f7f7f7"/>
  <rect x="182" y="8" width="14" height="1" fill="#f8f8f8"/>
  <rect x="196" y="8" width="2" height="1" fill="#f9f9f9"/>
  <rect x="198" y="8" width="1" height="1" fill="#f5f5f5"/>
  <rect x="204" y="8" width="70" height="1" fill="#ffffff"/>
  <rect x="274" y="8" width="1" height="2" fill="#fdfdfd"/>
  <rect x="275" y="8" width="1" height="2" fill="#d4d4d4"/>
  <rect x="276" y="8" width="1" height="1" fill="#f7f7f7"/>
  <rect x="277" y="8" width="1" height="1" fill="#f3f3f3"/>
  <rect x="278" y="8" width="1" height="1" fill="#efefef"/>
  <rect x="279" y="8" width="1" height="1" fill="#ececec"/>
  <rect x="280" y="8" width="1" height="1" fill="#eeeeee"/>
  <rect x="281" y="8" width="5" height="1" fill="#efefef"/>
  <rect x="286" y="8" width="2" height="1" fill="#f0f0f0"/>
  <rect x="288" y="8" width="9" height="1" fill="#efefef"/>
  <rect x="297" y="8" width="1" height="1" fill="#f1f1f1"/>
  <rect x="298" y="8" width="1" height="1" fill="#efefef"/>
  <rect x="299" y="8" width="1" height="1" fill="#9b9b9b"/>
  <rect x="304" y="8" width="16" height="1" fill="#f5f5f5"/>
  <rect x="320" y="8" width="52" height="8" fill="#f3f3f3"/>
  <rect x="372" y="8" width="1" height="8" fill="#f2f2f2"/>
  <rect x="373" y="8" width="1" height="9" fill="#f5f5f5"/>
  <rect x="374" y="8" width="1" height="8" fill="#f2f2f2"/>
  <rect x="375" y="8" width="1" height="8" fill="#dbdbdb"/>
  <rect x="379" y="8" width="1" height="8" fill="#f1f1f1"/>
  <rect x="380" y="8" width="4" height="8" fill="#f2f2f2"/>
  <rect x="384" y="8" width="12" height="9" fill="#f3f3f3"/>
  <rect x="104" y="9" width="4" height="7" fill="#fefefe"/>
  <rect x="108" y="9" width="64" height="1" fill="#ffffff"/>
  <rect x="172" y="9" width="1" height="1" fill="#fefefe"/>
  <rect x="173" y="9" width="1" height="1" fill="#ffffff"/>
  <rect x="175" y="9" width="1" height="2" fill="#d6d6d6"/>
  <rect x="176" y="9" width="3" height="1" fill="#f7f7f7"/>
  <rect x="179" y="9" width="1" height="2" fill="#f6f6f6"/>
  <rect x="180" y="9" width="2" height="1" fill="#f5f5f5"/>
  <rect x="182" y="9" width="15" height="1" fill="#f6f6f6"/>
  <rect x="197" y="9" width="1" height="1" fill="#f8f8f8"/>
  <rect x="198" y="9" width="1" height="1" fill="#f1f1f1"/>
  <rect x="199" y="9" width="1" height="1" fill="#969696"/>
  <rect x="200" y="9" width="1" height="1" fill="#999999"/>
  <rect x="201" y="9" width="1" height="1" fill="#f8f8f8"/>
  <rect x="203" y="9" width="1" height="1" fill="#fcfbfc"/>
  <rect x="204" y="9" width="4" height="7" fill="#fefefe"/>
  <rect x="208" y="9" width="66" height="2" fill="#ffffff"/>
  <rect x="276" y="9" width="1" height="1" fill="#f8f8f8"/>
  <rect x="277" y="9" width="1" height="1" fill="#f5f5f5"/>
  <rect x="278" y="9" width="1" height="1" fill="#f0f0f0"/>
  <rect x="279" y="9" width="1" height="1" fill="#eeeeee"/>
  <rect x="280" y="9" width="1" height="1" fill="#efefef"/>
  <rect x="281" y="9" width="5" height="1" fill="#f0f0f0"/>
  <rect x="286" y="9" width="2" height="1" fill="#f1f1f1"/>
  <rect x="288" y="9" width="9" height="1" fill="#f0f0f0"/>
  <rect x="297" y="9" width="1" height="1" fill="#f2f2f2"/>
  <rect x="298" y="9" width="1" height="1" fill="#f0f0f0"/>
  <rect x="299" y="9" width="1" height="1" fill="#9c9c9c"/>
  <rect x="300" y="9" width="1" height="2" fill="#c9c9c9"/>
  <rect x="301" y="9" width="1" height="2" fill="#f1f1f1"/>
  <rect x="302" y="9" width="1" height="2" fill="#f6f6f6"/>
  <rect x="303" y="9" width="17" height="2" fill="#f5f5f5"/>
  <rect x="378" y="9" width="1" height="7" fill="#f2f2f2"/>
  <rect x="76" y="10" width="4" height="2" fill="#fefefe"/>
  <rect x="80" y="10" width="16" height="2" fill="#fdfdfd"/>
  <rect x="108" y="10" width="65" height="6" fill="#ffffff"/>
  <rect x="173" y="10" width="1" height="1" fill="#fefefe"/>
  <rect x="174" y="10" width="1" height="1" fill="#fafafa"/>
  <rect x="176" y="10" width="1" height="1" fill="#f6f6f6"/>
  <rect x="177" y="10" width="2" height="1" fill="#f7f7f7"/>
  <rect x="180" y="10" width="1" height="1" fill="#f5f5f5"/>
  <rect x="181" y="10" width="1" height="1" fill="#f2f2f2"/>
  <rect x="182" y="10" width="1" height="1" fill="#f3f3f3"/>
  <rect x="183" y="10" width="14" height="1" fill="#f5f5f5"/>
  <rect x="197" y="10" width="1" height="1" fill="#f7f7f7"/>
  <rect x="198" y="10" width="1" height="1" fill="#f0f0f0"/>
  <rect x="199" y="10" width="1" height="3" fill="#959595"/>
  <rect x="200" y="10" width="1" height="1" fill="#979797"/>
  <rect x="201" y="10" width="1" height="1" fill="#f7f7f7"/>
  <rect x="203" y="10" width="1" height="1" fill="#fafafa"/>
  <rect x="274" y="10" width="1" height="4" fill="#fefefe"/>
  <rect x="275" y="10" width="1" height="1" fill="#d5d5d5"/>
  <rect x="276" y="10" width="1" height="4" fill="#fafafa"/>
  <rect x="277" y="10" width="1" height="2" fill="#f8f8f8"/>
  <rect x="278" y="10" width="1" height="1" fill="#f5f5f5"/>
  <rect x="279" y="10" width="1" height="1" fill="#f0f0f0"/>
  <rect x="280" y="10" width="1" height="1" fill="#f1f1f1"/>
  <rect x="281" y="10" width="16" height="1" fill="#f2f2f2"/>
  <rect x="297" y="10" width="1" height="1" fill="#f5f5f5"/>
  <rect x="298" y="10" width="1" height="1" fill="#f2f2f2"/>
  <rect x="299" y="10" width="1" height="1" fill="#9e9e9e"/>
  <rect x="376" y="10" width="1" height="6" fill="#f7f7f7"/>
  <rect x="173" y="11" width="1" height="1" fill="#fdfdfd"/>
  <rect x="174" y="11" width="1" height="1" fill="#fcfbfc"/>
  <rect x="175" y="11" width="1" height="2" fill="#d5d5d5"/>
  <rect x="176" y="11" width="1" height="1" fill="#f5f5f5"/>
  <rect x="177" y="11" width="1" height="1" fill="#f6f6f6"/>
  <rect x="178" y="11" width="1" height="1" fill="#f5f5f5"/>
  <rect x="179" y="11" width="2" height="1" fill="#f3f3f3"/>
  <rect x="181" y="11" width="1" height="1" fill="#f1f1f1"/>
  <rect x="182" y="11" width="6" height="1" fill="#f2f2f2"/>
  <rect x="188" y="11" width="8" height="1" fill="#f3f3f3"/>
  <rect x="196" y="11" width="1" height="1" fill="#f1f1f1"/>
  <rect x="197" y="11" width="1" height="1" fill="#f5f5f5"/>
  <rect x="198" y="11" width="1" height="1" fill="#efefef"/>
  <rect x="200" y="11" width="1" height="1" fill="#999999"/>
  <rect x="201" y="11" width="1" height="1" fill="#f8f8f8"/>
  <rect x="203" y="11" width="1" height="1" fill="#fcfbfc"/>
  <rect x="208" y="11" width="64" height="5" fill="#ffffff"/>
  <rect x="272" y="11" width="1" height="1" fill="#fefefe"/>
  <rect x="273" y="11" width="1" height="3" fill="#ffffff"/>
  <rect x="275" y="11" width="1" height="1" fill="#d6d6d6"/>
  <rect x="278" y="11" width="1" height="1" fill="#f6f6f6"/>
  <rect x="279" y="11" width="1" height="1" fill="#f2f2f2"/>
  <rect x="280" y="11" width="17" height="1" fill="#f3f3f3"/>
  <rect x="297" y="11" width="2" height="1" fill="#f5f5f5"/>
  <rect x="299" y="11" width="1" height="1" fill="#9b9b9b"/>
  <rect x="300" y="11" width="1" height="2" fill="#c8c8c8"/>
  <rect x="301" y="11" width="1" height="2" fill="#f0f0f0"/>
  <rect x="302" y="11" width="1" height="2" fill="#f5f5f5"/>
  <rect x="303" y="11" width="1" height="1" fill="#f3f3f3"/>
  <rect x="304" y="11" width="16" height="1" fill="#f5f5f5"/>
  <rect x="72" y="12" width="2" height="4" fill="#fafafa"/>
  <rect x="74" y="12" width="1" height="5" fill="#fcfbfc"/>
  <rect x="75" y="12" width="1" height="4" fill="#dcdcdc"/>
  <rect x="76" y="12" width="20" height="4" fill="#fdfdfd"/>
  <rect x="173" y="12" width="1" height="1" fill="#fcfbfc"/>
  <rect x="174" y="12" width="1" height="1" fill="#fdfdfd"/>
  <rect x="176" y="12" width="1" height="1" fill="#f2f2f2"/>
  <rect x="177" y="12" width="2" height="1" fill="#f1f1f1"/>
  <rect x="179" y="12" width="1" height="1" fill="#f0f0f0"/>
  <rect x="180" y="12" width="6" height="1" fill="#efefef"/>
  <rect x="186" y="12" width="10" height="1" fill="#f0f0f0"/>
  <rect x="196" y="12" width="1" height="1" fill="#ececec"/>
  <rect x="197" y="12" width="1" height="1" fill="#f1f1f1"/>
  <rect x="198" y="12" width="1" height="1" fill="#eeeeee"/>
  <rect x="200" y="12" width="1" height="2" fill="#9a9a9a"/>
  <rect x="201" y="12" width="1" height="2" fill="#f9f9f9"/>
  <rect x="203" y="12" width="1" height="2" fill="#fdfdfd"/>
  <rect x="272" y="12" width="1" height="1" fill="#fdfdfd"/>
  <rect x="275" y="12" width="1" height="1" fill="#d7d7d7"/>
  <rect x="277" y="12" width="1" height="2" fill="#f9f9f9"/>
  <rect x="278" y="12" width="6" height="1" fill="#f7f7f7"/>
  <rect x="284" y="12" width="13" height="1" fill="#f6f6f6"/>
  <rect x="297" y="12" width="1" height="1" fill="#f7f7f7"/>
  <rect x="298" y="12" width="1" height="1" fill="#f9f9f9"/>
  <rect x="299" y="12" width="1" height="1" fill="#969696"/>
  <rect x="303" y="12" width="5" height="1" fill="#f3f3f3"/>
  <rect x="308" y="12" width="12" height="4" fill="#f5f5f5"/>
  <rect x="173" y="13" width="1" height="1" fill="#fafafa"/>
  <rect x="174" y="13" width="1" height="1" fill="#fefefe"/>
  <rect x="175" y="13" width="1" height="3" fill="#d4d4d4"/>
  <rect x="176" y="13" width="1" height="1" fill="#f1f1f1"/>
  <rect x="177" y="13" width="1" height="1" fill="#efefef"/>
  <rect x="178" y="13" width="1" height="1" fill="#eeeeee"/>
  <rect x="179" y="13" width="2" height="1" fill="#ececec"/>
  <rect x="181" y="13" width="1" height="1" fill="#eeeeee"/>
  <rect x="182" y="13" width="6" height="1" fill="#ececec"/>
  <rect x="188" y="13" width="8" height="1" fill="#eeeeee"/>
  <rect x="196" y="13" width="1" height="1" fill="#e8e8e8"/>
  <rect x="197" y="13" width="1" height="1" fill="#eeeeee"/>
  <rect x="198" y="13" width="1" height="1" fill="#ebebeb"/>
  <rect x="199" y="13" width="1" height="1" fill="#949494"/>
  <rect x="272" y="13" width="1" height="1" fill="#fcfbfc"/>
  <rect x="275" y="13" width="1" height="1" fill="#d9d9d9"/>
  <rect x="278" y="13" width="1" height="1" fill="#f8f8f8"/>
  <rect x="279" y="13" width="9" height="1" fill="#fafafa"/>
  <rect x="288" y="13" width="10" height="1" fill="#f9f9f9"/>
  <rect x="298" y="13" width="1" height="1" fill="#fefefe"/>
  <rect x="299" y="13" width="1" height="1" fill="#959595"/>
  <rect x="300" y="13" width="1" height="1" fill="#cbcbcb"/>
  <rect x="301" y="13" width="1" height="1" fill="#f2f2f2"/>
  <rect x="302" y="13" width="1" height="1" fill="#f7f7f7"/>
  <rect x="303" y="13" width="1" height="1" fill="#f6f6f6"/>
  <rect x="304" y="13" width="4" height="3" fill="#f3f3f3"/>
  <rect x="173" y="14" width="1" height="2" fill="#f9f9f9"/>
  <rect x="174" y="14" width="1" height="2" fill="#ffffff"/>
  <rect x="176" y="14" width="1" height="1" fill="#efefef"/>
  <rect x="177" y="14" width="1" height="1" fill="#eeeeee"/>
  <rect x="178" y="14" width="18" height="1" fill="#ececec"/>
  <rect x="196" y="14" width="1" height="2" fill="#e7e7e7"/>
  <rect x="197" y="14" width="1" height="3" fill="#ececec"/>
  <rect x="198" y="14" width="1" height="2" fill="#eaeaea"/>
  <rect x="199" y="14" width="1" height="2" fill="#939393"/>
  <rect x="200" y="14" width="1" height="1" fill="#999999"/>
  <rect x="201" y="14" width="1" height="2" fill="#f8f8f8"/>
  <rect x="203" y="14" width="1" height="2" fill="#fcfbfc"/>
  <rect x="272" y="14" width="1" height="2" fill="#fafafa"/>
  <rect x="273" y="14" width="2" height="3" fill="#ffffff"/>
  <rect x="275" y="14" width="1" height="2" fill="#dadada"/>
  <rect x="276" y="14" width="22" height="2" fill="#fafafa"/>
  <rect x="298" y="14" width="1" height="2" fill="#ffffff"/>
  <rect x="299" y="14" width="1" height="1" fill="#969696"/>
  <rect x="300" y="14" width="1" height="2" fill="#cccccc"/>
  <rect x="301" y="14" width="1" height="2" fill="#f3f3f3"/>
  <rect x="302" y="14" width="1" height="2" fill="#f8f8f8"/>
  <rect x="303" y="14" width="1" height="2" fill="#f7f7f7"/>
  <rect x="99" y="15" width="1" height="1" fill="#d0d0d0"/>
  <rect x="176" y="15" width="1" height="1" fill="#eeeeee"/>
  <rect x="177" y="15" width="19" height="1" fill="#ececec"/>
  <rect x="200" y="15" width="1" height="1" fill="#9b9b9b"/>
  <rect x="299" y="15" width="1" height="1" fill="#999999"/>
  <rect x="0" y="16" width="1" height="1" fill="#d0d0d0"/>
  <rect x="1" y="16" width="1" height="1" fill="#f1f1f1"/>
  <rect x="2" y="16" width="6" height="1" fill="#fcfbfc"/>
  <rect x="12" y="16" width="60" height="1" fill="#fcfbfc"/>
  <rect x="72" y="16" width="1" height="1" fill="#fafafa"/>
  <rect x="73" y="16" width="1" height="2" fill="#ffffff"/>
  <rect x="75" y="16" width="1" height="1" fill="#ececec"/>
  <rect x="76" y="16" width="20" height="2" fill="#fcfbfc"/>
  <rect x="96" y="16" width="1" height="1" fill="#ffffff"/>
  <rect x="97" y="16" width="1" height="1" fill="#f9f9f9"/>
  <rect x="98" y="16" width="1" height="1" fill="#f3f3f3"/>
  <rect x="99" y="16" width="1" height="1" fill="#cecece"/>
  <rect x="100" y="16" width="1" height="1" fill="#999999"/>
  <rect x="101" y="16" width="1" height="1" fill="#fafafa"/>
  <rect x="103" y="16" width="1" height="1" fill="#f2f2f2"/>
  <rect x="104" y="16" width="3" height="1" fill="#fdfdfd"/>
  <rect x="107" y="16" width="4" height="1" fill="#fcfbfc"/>
  <rect x="111" y="16" width="2" height="1" fill="#fdfdfd"/>
  <rect x="113" y="16" width="2" height="1" fill="#fefefe"/>
  <rect x="115" y="16" width="60" height="1" fill="#ffffff"/>
  <rect x="175" y="16" width="1" height="1" fill="#dadada"/>
  <rect x="176" y="16" width="1" height="1" fill="#ebebeb"/>
  <rect x="177" y="16" width="19" height="1" fill="#eaeaea"/>
  <rect x="196" y="16" width="1" height="1" fill="#ebebeb"/>
  <rect x="198" y="16" width="1" height="1" fill="#e2e2e2"/>
  <rect x="199" y="16" width="1" height="1" fill="#9a9a9a"/>
  <rect x="200" y="16" width="1" height="1" fill="#9d9d9d"/>
  <rect x="201" y="16" width="2" height="1" fill="#ffffff"/>
  <rect x="203" y="16" width="1" height="1" fill="#fafafa"/>
  <rect x="204" y="16" width="68" height="1" fill="#ffffff"/>
  <rect x="272" y="16" width="1" height="1" fill="#fdfdfd"/>
  <rect x="275" y="16" width="1" height="1" fill="#e9e9e9"/>
  <rect x="276" y="16" width="20" height="1" fill="#f9f9f9"/>
  <rect x="296" y="16" width="1" height="1" fill="#f6f6f6"/>
  <rect x="297" y="16" width="2" height="1" fill="#ffffff"/>
  <rect x="299" y="16" width="1" height="1" fill="#9d9d9d"/>
  <rect x="300" y="16" width="1" height="1" fill="#cecece"/>
  <rect x="301" y="16" width="1" height="1" fill="#efefef"/>
  <rect x="302" y="16" width="1" height="1" fill="#f2f2f2"/>
  <rect x="303" y="16" width="1" height="1" fill="#eaeaea"/>
  <rect x="304" y="16" width="4" height="1" fill="#f2f2f2"/>
  <rect x="308" y="16" width="12" height="1" fill="#f3f3f3"/>
  <rect x="320" y="16" width="52" height="1" fill="#f2f2f2"/>
  <rect x="372" y="16" width="1" height="2" fill="#f9f9f9"/>
  <rect x="374" y="16" width="1" height="1" fill="#f0f0f0"/>
  <rect x="375" y="16" width="1" height="1" fill="#ebebeb"/>
  <rect x="376" y="16" width="8" height="1" fill="#f2f2f2"/>
  <rect x="396" y="16" width="1" height="1" fill="#f8f8f8"/>
  <rect x="397" y="16" width="1" height="1" fill="#efefef"/>
  <rect x="398" y="16" width="1" height="1" fill="#f5f5f5"/>
  <rect x="399" y="16" width="1" height="1" fill="#c9c9c9"/>
  <rect x="0" y="17" width="1" height="2" fill="#cdcdcd"/>
  <rect x="1" y="17" width="1" height="1" fill="#f5f5f5"/>
  <rect x="2" y="17" width="1" height="1" fill="#ffffff"/>
  <rect x="3" y="17" width="5" height="1" fill="#fcfbfc"/>
  <rect x="12" y="17" width="61" height="1" fill="#fcfbfc"/>
  <rect x="74" y="17" width="1" height="1" fill="#fdfdfd"/>
  <rect x="75" y="17" width="1" height="1" fill="#f2f2f2"/>
  <rect x="96" y="17" width="2" height="1" fill="#ffffff"/>
  <rect x="98" y="17" width="1" height="1" fill="#f8f8f8"/>
  <rect x="99" y="17" width="1" height="1" fill="#c6c6c6"/>
  <rect x="100" y="17" width="1" height="1" fill="#9b9b9b"/>
  <rect x="101" y="17" width="1" height="1" fill="#fcfbfc"/>
  <rect x="102" y="17" width="1" height="1" fill="#f6f6f6"/>
  <rect x="103" y="17" width="6" height="1" fill="#ffffff"/>
  <rect x="109" y="17" width="1" height="1" fill="#fefefe"/>
  <rect x="110" y="17" width="2" height="1" fill="#fdfdfd"/>
  <rect x="112" y="17" width="2" height="1" fill="#fcfbfc"/>
  <rect x="114" y="17" width="58" height="1" fill="#fafafa"/>
  <rect x="172" y="17" width="1" height="1" fill="#ffffff"/>
  <rect x="173" y="17" width="1" height="1" fill="#fefefe"/>
  <rect x="174" y="17" width="1" height="1" fill="#fcfbfc"/>
  <rect x="175" y="17" width="1" height="1" fill="#dcdcdc"/>
  <rect x="176" y="17" width="1" height="1" fill="#e4e4e4"/>
  <rect x="177" y="17" width="19" height="1" fill="#e3e3e3"/>
  <rect x="196" y="17" width="1" height="1" fill="#e5e5e5"/>
  <rect x="197" y="17" width="1" height="1" fill="#dbdbdb"/>
  <rect x="198" y="17" width="1" height="1" fill="#e5e5e5"/>
  <rect x="199" y="17" width="2" height="1" fill="#9e9e9e"/>
  <rect x="201" y="17" width="1" height="1" fill="#ffffff"/>
  <rect x="202" y="17" width="1" height="1" fill="#f5f5f5"/>
  <rect x="203" y="17" width="5" height="1" fill="#ffffff"/>
  <rect x="208" y="17" width="1" height="1" fill="#fefefe"/>
  <rect x="209" y="17" width="2" height="1" fill="#fdfdfd"/>
  <rect x="211" y="17" width="61" height="1" fill="#fcfbfc"/>
  <rect x="272" y="17" width="1" height="1" fill="#f7f7f7"/>
  <rect x="273" y="17" width="1" height="1" fill="#fdfdfd"/>
  <rect x="274" y="17" width="1" height="1" fill="#f8f8f8"/>
  <rect x="275" y="17" width="1" height="1" fill="#ebebeb"/>
  <rect x="276" y="17" width="20" height="1" fill="#fdfdfd"/>
  <rect x="296" y="17" width="1" height="1" fill="#ffffff"/>
  <rect x="297" y="17" width="1" height="1" fill="#f2f2f2"/>
  <rect x="298" y="17" width="1" height="1" fill="#fefefe"/>
  <rect x="299" y="17" width="1" height="1" fill="#9c9c9c"/>
  <rect x="300" y="17" width="1" height="1" fill="#c5c5c5"/>
  <rect x="301" y="17" width="1" height="1" fill="#f5f5f5"/>
  <rect x="302" y="17" width="1" height="1" fill="#fefefe"/>
  <rect x="303" y="17" width="1" height="1" fill="#eeeeee"/>
  <rect x="304" y="17" width="4" height="1" fill="#f5f5f5"/>
  <rect x="308" y="17" width="12" height="1" fill="#f6f6f6"/>
  <rect x="320" y="17" width="52" height="1" fill="#f5f5f5"/>
  <rect x="373" y="17" width="1" height="1" fill="#f7f7f7"/>
  <rect x="374" y="17" width="1" height="2" fill="#f3f3f3"/>
  <rect x="375" y="17" width="1" height="1" fill="#f0f0f0"/>
  <rect x="376" y="17" width="8" height="1" fill="#f5f5f5"/>
  <rect x="384" y="17" width="12" height="1" fill="#f6f6f6"/>
  <rect x="396" y="17" width="1" height="1" fill="#f0f0f0"/>
  <rect x="397" y="17" width="1" height="1" fill="#f1f1f1"/>
  <rect x="398" y="17" width="1" height="1" fill="#f7f7f7"/>
  <rect x="399" y="17" width="1" height="1" fill="#cbcbcb"/>
  <rect x="1" y="18" width="1" height="1" fill="#f1f1f1"/>
  <rect x="2" y="18" width="1" height="1" fill="#fefefe"/>
  <rect x="3" y="18" width="72" height="1" fill="#ffffff"/>
  <rect x="75" y="18" width="1" height="1" fill="#fefefe"/>
  <rect x="76" y="18" width="21" height="1" fill="#ffffff"/>
  <rect x="97" y="18" width="1" height="1" fill="#f9f9f9"/>
  <rect x="98" y="18" width="1" height="1" fill="#f2f2f2"/>
  <rect x="99" y="18" width="1" height="1" fill="#cdcdcd"/>
  <rect x="100" y="18" width="1" height="1" fill="#979797"/>
  <rect x="101" y="18" width="1" height="1" fill="#f6f6f6"/>
  <rect x="102" y="18" width="1" height="1" fill="#fefefe"/>
  <rect x="103" y="18" width="70" height="1" fill="#ffffff"/>
  <rect x="173" y="18" width="1" height="1" fill="#fcfbfc"/>
  <rect x="174" y="18" width="1" height="1" fill="#fefefe"/>
  <rect x="175" y="18" width="1" height="1" fill="#ebebeb"/>
  <rect x="176" y="18" width="1" height="1" fill="#e7e7e7"/>
  <rect x="177" y="18" width="19" height="1" fill="#e5e5e5"/>
  <rect x="196" y="18" width="1" height="1" fill="#dadada"/>
  <rect x="197" y="18" width="1" height="1" fill="#e5e5e5"/>
  <rect x="198" y="18" width="1" height="1" fill="#e1e1e1"/>
  <rect x="199" y="18" width="1" height="1" fill="#929292"/>
  <rect x="200" y="18" width="1" height="1" fill="#9a9a9a"/>
  <rect x="201" y="18" width="1" height="1" fill="#f7f7f7"/>
  <rect x="202" y="18" width="1" height="1" fill="#fdfdfd"/>
  <rect x="203" y="18" width="69" height="1" fill="#ffffff"/>
  <rect x="272" y="18" width="5" height="1" fill="#fefefe"/>
  <rect x="277" y="18" width="19" height="1" fill="#ffffff"/>
  <rect x="296" y="18" width="1" height="1" fill="#f9f9f9"/>
  <rect x="297" y="18" width="1" height="1" fill="#f6f6f6"/>
  <rect x="298" y="18" width="1" height="1" fill="#f3f3f3"/>
  <rect x="299" y="18" width="1" height="1" fill="#959595"/>
  <rect x="300" y="18" width="1" height="1" fill="#d2d2d2"/>
  <rect x="301" y="18" width="1" height="1" fill="#f3f3f3"/>
  <rect x="302" y="18" width="1" height="1" fill="#f8f8f8"/>
  <rect x="303" y="18" width="1" height="1" fill="#efefef"/>
  <rect x="304" y="18" width="4" height="1" fill="#f3f3f3"/>
  <rect x="308" y="18" width="12" height="1" fill="#f5f5f5"/>
  <rect x="320" y="18" width="52" height="1" fill="#f3f3f3"/>
  <rect x="372" y="18" width="2" height="1" fill="#f5f5f5"/>
  <rect x="375" y="18" width="1" height="1" fill="#f2f2f2"/>
  <rect x="376" y="18" width="8" height="1" fill="#f3f3f3"/>
  <rect x="384" y="18" width="13" height="1" fill="#f5f5f5"/>
  <rect x="397" y="18" width="1" height="1" fill="#f3f3f3"/>
  <rect x="398" y="18" width="1" height="1" fill="#f2f2f2"/>
  <rect x="399" y="18" width="1" height="1" fill="#cfcfcf"/>
  <rect x="0" y="19" width="1" height="1" fill="#c6c6c6"/>
  <rect x="1" y="19" width="1" height="1" fill="#cfcfcf"/>
  <rect x="2" y="19" width="1" height="1" fill="#c9c9c9"/>
  <rect x="3" y="19" width="5" height="1" fill="#cbcbcb"/>
  <rect x="8" y="19" width="4" height="1" fill="#cccccc"/>
  <rect x="12" y="19" width="60" height="1" fill="#cbcbcb"/>
  <rect x="72" y="19" width="1" height="1" fill="#cecece"/>
  <rect x="73" y="19" width="2" height="1" fill="#cdcdcd"/>
  <rect x="75" y="19" width="1" height="1" fill="#cfcfcf"/>
  <rect x="76" y="19" width="20" height="1" fill="#cbcbcb"/>
  <rect x="96" y="19" width="1" height="1" fill="#dcdcdc"/>
  <rect x="97" y="19" width="1" height="1" fill="#c7c7c7"/>
  <rect x="98" y="19" width="1" height="1" fill="#cdcdcd"/>
  <rect x="99" y="19" width="1" height="1" fill="#cbcbcb"/>
  <rect x="100" y="19" width="1" height="1" fill="#9d9d9d"/>
  <rect x="101" y="19" width="1" height="1" fill="#999999"/>
  <rect x="102" y="19" width="1" height="1" fill="#9d9d9d"/>
  <rect x="103" y="19" width="1" height="1" fill="#9c9c9c"/>
  <rect x="104" y="19" width="1" height="1" fill="#9b9b9b"/>
  <rect x="105" y="19" width="1" height="1" fill="#9a9a9a"/>
  <rect x="106" y="19" width="1" height="1" fill="#999999"/>
  <rect x="107" y="19" width="4" height="1" fill="#979797"/>
  <rect x="111" y="19" width="2" height="1" fill="#999999"/>
  <rect x="113" y="19" width="2" height="1" fill="#9a9a9a"/>
  <rect x="115" y="19" width="57" height="1" fill="#9b9b9b"/>
  <rect x="172" y="19" width="1" height="1" fill="#9d9d9d"/>
  <rect x="173" y="19" width="1" height="1" fill="#939393"/>
  <rect x="174" y="19" width="1" height="1" fill="#979797"/>
  <rect x="175" y="19" width="1" height="1" fill="#8e8e8e"/>
  <rect x="176" y="19" width="1" height="1" fill="#9b9b9b"/>
  <rect x="177" y="19" width="19" height="1" fill="#9a9a9a"/>
  <rect x="196" y="19" width="1" height="1" fill="#929292"/>
  <rect x="197" y="19" width="1" height="1" fill="#9c9c9c"/>
  <rect x="198" y="19" width="1" height="1" fill="#929292"/>
  <rect x="199" y="19" width="1" height="1" fill="#969696"/>
  <rect x="200" y="19" width="1" height="1" fill="#9b9b9b"/>
  <rect x="201" y="19" width="1" height="1" fill="#979797"/>
  <rect x="202" y="19" width="1" height="1" fill="#999999"/>
  <rect x="203" y="19" width="1" height="1" fill="#9b9b9b"/>
  <rect x="204" y="19" width="1" height="1" fill="#999999"/>
  <rect x="205" y="19" width="1" height="1" fill="#959595"/>
  <rect x="206" y="19" width="4" height="1" fill="#969696"/>
  <rect x="210" y="19" width="62" height="1" fill="#979797"/>
  <rect x="272" y="19" width="1" height="1" fill="#999999"/>
  <rect x="273" y="19" width="1" height="1" fill="#949494"/>
  <rect x="274" y="19" width="1" height="1" fill="#979797"/>
  <rect x="275" y="19" width="1" height="1" fill="#a0a0a0"/>
  <rect x="276" y="19" width="20" height="1" fill="#9a9a9a"/>
  <rect x="296" y="19" width="1" height="1" fill="#999999"/>
  <rect x="297" y="19" width="2" height="1" fill="#959595"/>
  <rect x="299" y="19" width="1" height="1" fill="#999999"/>
  <rect x="300" y="19" width="1" height="1" fill="#cecece"/>
  <rect x="301" y="19" width="1" height="1" fill="#cdcdcd"/>
  <rect x="302" y="19" width="1" height="1" fill="#c4c4c4"/>
  <rect x="303" y="19" width="1" height="1" fill="#c9c9c9"/>
  <rect x="304" y="19" width="4" height="1" fill="#cccccc"/>
  <rect x="308" y="19" width="12" height="1" fill="#cdcdcd"/>
  <rect x="320" y="19" width="52" height="1" fill="#cccccc"/>
  <rect x="372" y="19" width="1" height="1" fill="#cbcbcb"/>
  <rect x="373" y="19" width="2" height="1" fill="#cccccc"/>
  <rect x="375" y="19" width="1" height="1" fill="#cdcdcd"/>
  <rect x="376" y="19" width="8" height="1" fill="#cccccc"/>
  <rect x="384" y="19" width="12" height="1" fill="#cdcdcd"/>
  <rect x="396" y="19" width="2" height="1" fill="#c8c8c8"/>
  <rect x="398" y="19" width="1" height="1" fill="#cecece"/>
  <rect x="399" y="19" width="1" height="1" fill="#c6c6c6"/>
  <rect x="0" y="20" width="400" height="1" fill="#ffffff"/>
</svg>