<svg xmlns="http://www.w3.org/2000/svg" width="16" height="16" viewBox="0 0 16 16" shape-rendering="crispEdges">
  <rect x="10" y="3" width="1" height="1" fill="#3891d0aa"/>
  <rect x="11" y="3" width="1" height="1" fill="#3991d00e"/>
  <rect x="10" y="4" width="1" height="1" fill="#3492d9"/>
  <rect x="11" y="4" width="1" height="1" fill="#3492d7d7"/>
  <rect x="12" y="4" width="1" height="1" fill="#3991d02c"/>
  <rect x="3" y="5" width="1" height="1" fill="#3991d02b"/>
  <rect x="4" y="5" width="1" height="1" fill="#3392d9aa"/>
  <rect x="5" y="5" width="1" height="1" fill="#3392d9eb"/>
  <rect x="6" y="5" width="1" height="1" fill="#3691d4"/>
  <rect x="7" y="5" width="1" height="1" fill="#3891d2"/>
  <rect x="8" y="5" width="1" height="1" fill="#3692d2"/>
  <rect x="9" y="5" width="1" height="1" fill="#3691d4"/>
  <rect x="10" y="5" width="2" height="1" fill="#3691d9"/>
  <rect x="12" y="5" width="1" height="1" fill="#3692d0f3"/>
  <rect x="13" y="5" width="1" height="1" fill="#498db85b"/>
  <rect x="2" y="6" width="1" height="1" fill="#4b8cba32"/>
  <rect x="3" y="6" width="1" height="1" fill="#3b90cef4"/>
  <rect x="4" y="6" width="1" height="1" fill="#3891d2"/>
  <rect x="5" y="6" width="1" height="1" fill="#3691d4"/>
  <rect x="6" y="6" width="1" height="1" fill="#3891d2"/>
  <rect x="7" y="6" width="1" height="1" fill="#3891d0"/>
  <rect x="8" y="6" width="1" height="1" fill="#3692d0"/>
  <rect x="9" y="6" width="1" height="1" fill="#3891d2"/>
  <rect x="10" y="6" width="1" height="1" fill="#3c8ed4"/>
  <rect x="11" y="6" width="1" height="1" fill="#3c8fd2"/>
  <rect x="12" y="6" width="1" height="1" fill="#3892cef8"/>
  <rect x="13" y="6" width="1" height="1" fill="#468eba6c"/>
  <rect x="2" y="7" width="1" height="1" fill="#498dbaba"/>
  <rect x="3" y="7" width="1" height="1" fill="#3b91cc"/>
  <rect x="4" y="7" width="1" height="1" fill="#3b90d0b4"/>
  <rect x="5" y="7" width="1" height="1" fill="#3990d222"/>
  <rect x="10" y="7" width="1" height="1" fill="#408dd0"/>
  <rect x="11" y="7" width="1" height="1" fill="#3e8ed0db"/>
  <rect x="12" y="7" width="1" height="1" fill="#3892ce34"/>
  <rect x="2" y="8" width="1" height="1" fill="#478ebaf6"/>
  <rect x="3" y="8" width="1" height="1" fill="#3991cc"/>
  <rect x="4" y="8" width="1" height="1" fill="#3c8fd014"/>
  <rect x="10" y="8" width="1" height="1" fill="#3e8fcc9c"/>
  <rect x="11" y="8" width="1" height="1" fill="#3c8fce0e"/>
  <rect x="2" y="9" width="1" height="1" fill="#468ebaec"/>
  <rect x="3" y="9" width="1" height="1" fill="#3892ce"/>
  <rect x="4" y="9" width="1" height="1" fill="#3b8fd227"/>
  <rect x="2" y="10" width="1" height="1" fill="#468fb8a1"/>
  <rect x="3" y="10" width="1" height="1" fill="#3493d0"/>
  <rect x="4" y="10" width="1" height="1" fill="#3890d9cc"/>
  <rect x="5" y="10" width="1" height="1" fill="#398fd92e"/>
  <rect x="2" y="11" width="1" height="1" fill="#498eb61b"/>
  <rect x="3" y="11" width="1" height="1" fill="#3891d0e5"/>
  <rect x="4" y="11" width="1" height="1" fill="#3691d7"/>
  <rect x="5" y="11" width="1" height="1" fill="#3890d9"/>
  <rect x="6" y="11" width="1" height="1" fill="#3b8fd2"/>
  <rect x="7" y="11" width="1" height="1" fill="#3c8fd0"/>
  <rect x="8" y="11" width="1" height="1" fill="#3c8fce"/>
  <rect x="9" y="11" width="1" height="1" fill="#3c90cc"/>
  <rect x="10" y="11" width="1" height="1" fill="#3e8fca"/>
  <rect x="11" y="11" width="1" height="1" fill="#408fc8"/>
  <rect x="3" y="12" width="1" height="1" fill="#408fca1d"/>
  <rect x="4" y="12" width="1" height="1" fill="#3891d0a1"/>
  <rect x="5" y="12" width="1" height="1" fill="#3493d0ed"/>
  <rect x="6" y="12" width="2" height="1" fill="#3892ce"/>
  <rect x="8" y="12" width="1" height="1" fill="#3692d2"/>
  <rect x="9" y="12" width="1" height="1" fill="#3891d2"/>
  <rect x="10" y="12" width="1" height="1" fill="#3b90ce"/>
  <rect x="11" y="12" width="1" height="1" fill="#418fc6"/>
</svg>