<svg xmlns="http://www.w3.org/2000/svg" width="14" height="14" viewBox="0 0 14 14" shape-rendering="crispEdges">
  <rect x="0" y="0" width="1" height="1" fill="#6facbe18"/>
  <rect x="1" y="0" width="1" height="1" fill="#75aebd47"/>
  <rect x="2" y="0" width="1" height="1" fill="#72a5ac5f"/>
  <rect x="3" y="0" width="1" height="1" fill="#75abad5f"/>
  <rect x="4" y="0" width="1" height="1" fill="#69b0af5f"/>
  <rect x="5" y="0" width="1" height="1" fill="#69afb55f"/>
  <rect x="6" y="0" width="1" height="1" fill="#71a9bf5f"/>
  <rect x="7" y="0" width="1" height="1" fill="#75a7c35f"/>
  <rect x="8" y="0" width="1" height="1" fill="#76a6c35f"/>
  <rect x="9" y="0" width="1" height="1" fill="#76a7bf5f"/>
  <rect x="10" y="0" width="1" height="1" fill="#75a9b55f"/>
  <rect x="11" y="0" width="1" height="1" fill="#71abb75f"/>
  <rect x="12" y="0" width="1" height="1" fill="#69a7be47"/>
  <rect x="13" y="0" width="1" height="1" fill="#65a7c318"/>
  <rect x="0" y="1" width="1" height="1" fill="#75acc347"/>
  <rect x="1" y="1" width="1" height="1" fill="#d2ffff"/>
  <rect x="2" y="1" width="1" height="1" fill="#d6ffff"/>
  <rect x="3" y="1" width="1" height="1" fill="#cdfcff"/>
  <rect x="4" y="1" width="1" height="1" fill="#c5ffff"/>
  <rect x="5" y="1" width="1" height="1" fill="#c4ffff"/>
  <rect x="6" y="1" width="1" height="1" fill="#cafbff"/>
  <rect x="7" y="1" width="1" height="1" fill="#cdf9ff"/>
  <rect x="8" y="1" width="1" height="1" fill="#cff8ff"/>
  <rect x="9" y="1" width="1" height="1" fill="#cdf9ff"/>
  <rect x="10" y="1" width="1" height="1" fill="#ccfcff"/>
  <rect x="11" y="1" width="1" height="1" fill="#c8fdff"/>
  <rect x="12" y="1" width="1" height="1" fill="#c7ffff"/>
  <rect x="13" y="1" width="1" height="1" fill="#6ca7c347"/>
  <rect x="0" y="2" width="1" height="1" fill="#72a1bd5f"/>
  <rect x="1" y="2" width="1" height="1" fill="#d3ffff"/>
  <rect x="2" y="2" width="1" height="1" fill="#d3f2ff"/>
  <rect x="3" y="2" width="1" height="1" fill="#daf7ff"/>
  <rect x="4" y="2" width="1" height="1" fill="#d6f9ff"/>
  <rect x="5" y="2" width="1" height="1" fill="#d5faff"/>
  <rect x="6" y="2" width="1" height="1" fill="#d6f8ff"/>
  <rect x="7" y="2" width="1" height="1" fill="#d8f7ff"/>
  <rect x="8" y="2" width="1" height="1" fill="#daf7ff"/>
  <rect x="9" y="2" width="1" height="1" fill="#d8f8ff"/>
  <rect x="10" y="2" width="1" height="1" fill="#d3fbff"/>
  <rect x="11" y="2" width="1" height="1" fill="#d0fcff"/>
  <rect x="12" y="2" width="1" height="1" fill="#d2ffff"/>
  <rect x="13" y="2" width="1" height="1" fill="#72a0b95f"/>
  <rect x="0" y="3" width="1" height="1" fill="#79a5bf5f"/>
  <rect x="1" y="3" width="1" height="1" fill="#cdf9ff"/>
  <rect x="2" y="3" width="1" height="1" fill="#cefbff"/>
  <rect x="3" y="3" width="1" height="1" fill="#d0fcff"/>
  <rect x="4" y="3" width="2" height="1" fill="#ccfdff"/>
  <rect x="6" y="3" width="1" height="1" fill="#cefcff"/>
  <rect x="7" y="3" width="2" height="1" fill="#d0fbff"/>
  <rect x="9" y="3" width="1" height="1" fill="#cefdff"/>
  <rect x="10" y="3" width="1" height="1" fill="#c9ffff"/>
  <rect x="11" y="3" width="1" height="1" fill="#cbffff"/>
  <rect x="12" y="3" width="1" height="1" fill="#cdf9ff"/>
  <rect x="13" y="3" width="1" height="1" fill="#7aa3bc5f"/>
  <rect x="0" y="4" width="1" height="1" fill="#76a0b65f"/>
  <rect x="1" y="4" width="1" height="1" fill="#c6feff"/>
  <rect x="2" y="4" width="1" height="1" fill="#60afc4a6"/>
  <rect x="3" y="4" width="1" height="1" fill="#5ab8d15f"/>
  <rect x="4" y="4" width="1" height="1" fill="#57b8d95f"/>
  <rect x="5" y="4" width="1" height="1" fill="#57b6df5f"/>
  <rect x="6" y="4" width="1" height="1" fill="#5db3e15f"/>
  <rect x="7" y="4" width="1" height="1" fill="#5fb2e15f"/>
  <rect x="8" y="4" width="1" height="1" fill="#60b4e05f"/>
  <rect x="9" y="4" width="1" height="1" fill="#56abd35f"/>
  <rect x="10" y="4" width="1" height="1" fill="#5cb4d65f"/>
  <rect x="11" y="4" width="1" height="1" fill="#5caccaa6"/>
  <rect x="12" y="4" width="1" height="1" fill="#c5fcff"/>
  <rect x="13" y="4" width="1" height="1" fill="#7ba6c05f"/>
  <rect x="0" y="5" width="1" height="1" fill="#71a0b25f"/>
  <rect x="1" y="5" width="1" height="1" fill="#bbfdff"/>
  <rect x="2" y="5" width="1" height="1" fill="#57bacf5f"/>
  <rect x="11" y="5" width="1" height="1" fill="#58b9da5f"/>
  <rect x="12" y="5" width="1" height="1" fill="#c0ffff"/>
  <rect x="13" y="5" width="1" height="1" fill="#77a8be5f"/>
  <rect x="0" y="6" width="1" height="1" fill="#76b0c15f"/>
  <rect x="1" y="6" width="1" height="1" fill="#bcffff"/>
  <rect x="2" y="6" width="1" height="1" fill="#4bb4cc5f"/>
  <rect x="11" y="6" width="1" height="1" fill="#48b3cf5f"/>
  <rect x="12" y="6" width="1" height="1" fill="#bdffff"/>
  <rect x="13" y="6" width="1" height="1" fill="#76aab85f"/>
  <rect x="0" y="7" width="1" height="1" fill="#64a6b25f"/>
  <rect x="1" y="7" width="1" height="1" fill="#bbffff"/>
  <rect x="2" y="7" width="1" height="1" fill="#45b3cb5f"/>
  <rect x="11" y="7" width="1" height="1" fill="#54bdd95f"/>
  <rect x="12" y="7" width="1" height="1" fill="#c1ffff"/>
  <rect x="13" y="7" width="1" height="1" fill="#7aacb95f"/>
  <rect x="0" y="8" width="1" height="1" fill="#6fb0b75f"/>
  <rect x="1" y="8" width="1" height="1" fill="#b9ffff"/>
  <rect x="2" y="8" width="1" height="1" fill="#4dbcd95f"/>
  <rect x="11" y="8" width="1" height="1" fill="#51afd45f"/>
  <rect x="12" y="8" width="1" height="1" fill="#c6ffff"/>
  <rect x="13" y="8" width="1" height="1" fill="#7fa7bb5f"/>
  <rect x="0" y="9" width="1" height="1" fill="#6dabb65f"/>
  <rect x="1" y="9" width="1" height="1" fill="#b2ffff"/>
  <rect x="2" y="9" width="1" height="1" fill="#4bb6d65f"/>
  <rect x="11" y="9" width="1" height="1" fill="#4da9ce5f"/>
  <rect x="12" y="9" width="1" height="1" fill="#c5feff"/>
  <rect x="13" y="9" width="1" height="1" fill="#7ea5bc5f"/>
  <rect x="0" y="10" width="1" height="1" fill="#6ca7ba5f"/>
  <rect x="1" y="10" width="1" height="1" fill="#b7fdff"/>
  <rect x="2" y="10" width="1" height="1" fill="#51b1d75f"/>
  <rect x="11" y="10" width="1" height="1" fill="#53b2d25f"/>
  <rect x="12" y="10" width="1" height="1" fill="#c0feff"/>
  <rect x="13" y="10" width="1" height="1" fill="#78a7b95f"/>
  <rect x="0" y="11" width="1" height="1" fill="#6fa7bb5f"/>
  <rect x="1" y="11" width="1" height="1" fill="#c7ffff"/>
  <rect x="2" y="11" width="1" height="1" fill="#5bafd0a6"/>
  <rect x="3" y="11" width="1" height="1" fill="#56b3dd5f"/>
  <rect x="4" y="11" width="1" height="1" fill="#4cb0dc5f"/>
  <rect x="5" y="11" width="1" height="1" fill="#4bb1dc5f"/>
  <rect x="6" y="11" width="1" height="1" fill="#4eb1d65f"/>
  <rect x="7" y="11" width="1" height="1" fill="#50b0d45f"/>
  <rect x="8" y="11" width="1" height="1" fill="#53aed65f"/>
  <rect x="9" y="11" width="1" height="1" fill="#53afd45f"/>
  <rect x="10" y="11" width="1" height="1" fill="#59b8d85f"/>
  <rect x="11" y="11" width="1" height="1" fill="#56aac6a6"/>
  <rect x="12" y="11" width="1" height="1" fill="#c2ffff"/>
  <rect x="13" y="11" width="1" height="1" fill="#75a8bd5f"/>
  <rect x="0" y="12" width="1" height="1" fill="#6ba7b047"/>
  <rect x="1" y="12" width="1" height="1" fill="#c3ffff"/>
  <rect x="2" y="12" width="1" height="1" fill="#c2ffff"/>
  <rect x="3" y="12" width="1" height="1" fill="#baffff"/>
  <rect x="4" y="12" width="1" height="1" fill="#b8ffff"/>
  <rect x="5" y="12" width="1" height="1" fill="#baffff"/>
  <rect x="6" y="12" width="1" height="1" fill="#c0feff"/>
  <rect x="7" y="12" width="1" height="1" fill="#c4fcff"/>
  <rect x="8" y="12" width="1" height="1" fill="#c6fdff"/>
  <rect x="9" y="12" width="1" height="1" fill="#c5feff"/>
  <rect x="10" y="12" width="1" height="1" fill="#c0feff"/>
  <rect x="11" y="12" width="1" height="1" fill="#c3ffff"/>
  <rect x="12" y="12" width="1" height="1" fill="#c3f9ff"/>
  <rect x="13" y="12" width="1" height="1" fill="#72a5c647"/>
  <rect x="0" y="13" width="1" height="1" fill="#68a7ab18"/>
  <rect x="1" y="13" width="1" height="1" fill="#6ca9b047"/>
  <rect x="2" y="13" width="1" height="1" fill="#6aa3b25f"/>
  <rect x="3" y="13" width="1" height="1" fill="#70a8bc5f"/>
  <rect x="4" y="13" width="1" height="1" fill="#70aabf5f"/>
  <rect x="5" y="13" width="1" height="1" fill="#73a8bf5f"/>
  <rect x="6" y="13" width="1" height="1" fill="#7ba4bd5f"/>
  <rect x="7" y="13" width="1" height="1" fill="#7ea3bb5f"/>
  <rect x="8" y="13" width="1" height="1" fill="#81a3be5f"/>
  <rect x="9" y="13" width="1" height="1" fill="#7ea5be5f"/>
  <rect x="10" y="13" width="1" height="1" fill="#78a6bb5f"/>
  <rect x="11" y="13" width="1" height="1" fill="#77aabf5f"/>
  <rect x="12" y="13" width="1" height="1" fill="#76aacb47"/>
  <rect x="13" y="13" width="1" height="1" fill="#74a7cc18"/>
</svg>