<svg xmlns="http://www.w3.org/2000/svg" width="16" height="16" viewBox="0 0 16 16" shape-rendering="crispEdges">
  <rect x="0" y="0" width="1" height="1" fill="#adafb149"/>
  <rect x="1" y="0" width="1" height="1" fill="#b5b7b9e6"/>
  <rect x="2" y="0" width="1" height="1" fill="#aeb0b2"/>
  <rect x="3" y="0" width="1" height="1" fill="#b6b8ba"/>
  <rect x="4" y="0" width="5" height="1" fill="#b4b6b8"/>
  <rect x="9" y="0" width="1" height="1" fill="#acaeb0"/>
  <rect x="10" y="0" width="1" height="1" fill="#abadae"/>
  <rect x="11" y="0" width="1" height="1" fill="#b1b3b4e5"/>
  <rect x="12" y="0" width="1" height="1" fill="#afb1b34c"/>
  <rect x="0" y="1" width="1" height="1" fill="#b2b4b5e6"/>
  <rect x="1" y="1" width="1" height="1" fill="#afb1b3"/>
  <rect x="2" y="1" width="1" height="1" fill="#9a9c9e"/>
  <rect x="3" y="1" width="1" height="1" fill="#989a9c"/>
  <rect x="4" y="1" width="4" height="1" fill="#969899"/>
  <rect x="8" y="1" width="1" height="1" fill="#929496"/>
  <rect x="9" y="1" width="1" height="1" fill="#959798"/>
  <rect x="10" y="1" width="1" height="1" fill="#a0a2a4"/>
  <rect x="11" y="1" width="1" height="1" fill="#afb1b3"/>
  <rect x="12" y="1" width="1" height="1" fill="#aeb0b2e8"/>
  <rect x="0" y="2" width="1" height="2" fill="#aeb0b2"/>
  <rect x="1" y="2" width="1" height="1" fill="#b3b5b6"/>
  <rect x="11" y="2" width="1" height="2" fill="#b1b3b4"/>
  <rect x="12" y="2" width="1" height="2" fill="#afb1b3"/>
  <rect x="1" y="3" width="1" height="1" fill="#b1b3b4"/>
  <rect x="0" y="4" width="1" height="1" fill="#adafb1"/>
  <rect x="1" y="4" width="1" height="1" fill="#aeb0b2"/>
  <rect x="3" y="4" width="1" height="1" fill="#b1b3b4"/>
  <rect x="4" y="4" width="1" height="1" fill="#b4b6b8"/>
  <rect x="5" y="4" width="1" height="1" fill="#b3b5b6"/>
  <rect x="6" y="4" width="1" height="1" fill="#b1b3b4"/>
  <rect x="7" y="4" width="1" height="1" fill="#afb1b3"/>
  <rect x="8" y="4" width="1" height="1" fill="#b6b8ba"/>
  <rect x="9" y="4" width="1" height="1" fill="#b2b4b5"/>
  <rect x="11" y="4" width="1" height="1" fill="#afb1b3"/>
  <rect x="12" y="4" width="1" height="1" fill="#acaeb0"/>
  <rect x="0" y="5" width="1" height="1" fill="#bcbec0"/>
  <rect x="1" y="5" width="1" height="1" fill="#b2b4b5"/>
  <rect x="3" y="5" width="1" height="1" fill="#9ea0a2"/>
  <rect x="4" y="5" width="1" height="1" fill="#919395"/>
  <rect x="5" y="5" width="1" height="1" fill="#929496"/>
  <rect x="6" y="5" width="1" height="1" fill="#959798"/>
  <rect x="7" y="5" width="1" height="1" fill="#97999b"/>
  <rect x="8" y="5" width="1" height="1" fill="#959798"/>
  <rect x="9" y="5" width="1" height="1" fill="#9c9e9f"/>
  <rect x="11" y="5" width="1" height="1" fill="#999b9d"/>
  <rect x="12" y="5" width="1" height="1" fill="#a3a5a6"/>
  <rect x="0" y="6" width="2" height="1" fill="#aeb0b2"/>
  <rect x="12" y="6" width="1" height="1" fill="#aaacad1e"/>
  <rect x="0" y="7" width="2" height="1" fill="#afb1b3"/>
  <rect x="3" y="7" width="1" height="1" fill="#aaacad"/>
  <rect x="4" y="7" width="1" height="1" fill="#b8babb"/>
  <rect x="5" y="7" width="1" height="1" fill="#afb1b3"/>
  <rect x="6" y="7" width="1" height="1" fill="#a3a5a6"/>
  <rect x="7" y="7" width="1" height="1" fill="#9a9c9eb7"/>
  <rect x="8" y="7" width="1" height="1" fill="#a5a7a916"/>
  <rect x="9" y="7" width="1" height="1" fill="#b2b4b581"/>
  <rect x="10" y="7" width="1" height="1" fill="#b3b5b6dc"/>
  <rect x="11" y="7" width="1" height="1" fill="#9a9c9ef9"/>
  <rect x="12" y="7" width="1" height="1" fill="#adafb1dc"/>
  <rect x="13" y="7" width="1" height="1" fill="#acaeb081"/>
  <rect x="0" y="8" width="1" height="1" fill="#aeb0b2"/>
  <rect x="1" y="8" width="1" height="1" fill="#b2b4b5"/>
  <rect x="3" y="8" width="1" height="1" fill="#959798"/>
  <rect x="4" y="8" width="1" height="1" fill="#969899"/>
  <rect x="5" y="8" width="1" height="1" fill="#9d9fa0"/>
  <rect x="6" y="8" width="1" height="1" fill="#939597df"/>
  <rect x="7" y="8" width="1" height="1" fill="#a8aaac18"/>
  <rect x="8" y="8" width="1" height="1" fill="#b2b4b5c5"/>
  <rect x="9" y="8" width="1" height="4" fill="#b5b7b9"/>
  <rect x="10" y="8" width="1" height="4" fill="#b2b4b5"/>
  <rect x="12" y="8" width="1" height="2" fill="#b3b5b6"/>
  <rect x="13" y="8" width="1" height="1" fill="#babcbd"/>
  <rect x="14" y="8" width="1" height="1" fill="#b2b4b5c5"/>
  <rect x="15" y="8" width="1" height="1" fill="#a1a3a50a"/>
  <rect x="0" y="9" width="1" height="2" fill="#b3b5b6"/>
  <rect x="1" y="9" width="1" height="2" fill="#b1b3b4"/>
  <rect x="7" y="9" width="1" height="1" fill="#b2b4b582"/>
  <rect x="8" y="9" width="1" height="3" fill="#b2b4b5"/>
  <rect x="13" y="9" width="2" height="1" fill="#b2b4b5"/>
  <rect x="15" y="9" width="1" height="1" fill="#aeb0b280"/>
  <rect x="3" y="10" width="1" height="1" fill="#abadae"/>
  <rect x="4" y="10" width="1" height="1" fill="#adafb1"/>
  <rect x="5" y="10" width="1" height="1" fill="#b2b4b5"/>
  <rect x="6" y="10" width="1" height="1" fill="#999b9d1d"/>
  <rect x="7" y="10" width="1" height="1" fill="#abadaedc"/>
  <rect x="12" y="10" width="1" height="1" fill="#909294"/>
  <rect x="13" y="10" width="1" height="1" fill="#929496"/>
  <rect x="14" y="10" width="1" height="1" fill="#9c9e9f"/>
  <rect x="15" y="10" width="1" height="1" fill="#aeb0b2dd"/>
  <rect x="0" y="11" width="1" height="1" fill="#aeb0b2"/>
  <rect x="1" y="11" width="1" height="2" fill="#b4b6b8"/>
  <rect x="3" y="11" width="1" height="1" fill="#959798"/>
  <rect x="4" y="11" width="1" height="1" fill="#929496"/>
  <rect x="5" y="11" width="1" height="1" fill="#969899"/>
  <rect x="7" y="11" width="1" height="1" fill="#abadaef9"/>
  <rect x="15" y="11" width="1" height="1" fill="#b2b4b5f9"/>
  <rect x="0" y="12" width="1" height="1" fill="#b2b4b5"/>
  <rect x="7" y="12" width="1" height="1" fill="#a3a5a6dc"/>
  <rect x="8" y="12" width="1" height="1" fill="#afb1b3"/>
  <rect x="9" y="12" width="1" height="1" fill="#b1b3b4"/>
  <rect x="10" y="12" width="1" height="2" fill="#b3b5b6"/>
  <rect x="11" y="12" width="1" height="1" fill="#b5b7b9"/>
  <rect x="12" y="12" width="1" height="1" fill="#b1b3b4"/>
  <rect x="13" y="12" width="1" height="2" fill="#b3b5b6"/>
  <rect x="14" y="12" width="1" height="1" fill="#b2b4b5"/>
  <rect x="15" y="12" width="1" height="1" fill="#a6a8aade"/>
  <rect x="0" y="13" width="2" height="1" fill="#b2b4b5"/>
  <rect x="7" y="13" width="1" height="1" fill="#9ea0a283"/>
  <rect x="8" y="13" width="1" height="1" fill="#aeb0b2"/>
  <rect x="9" y="13" width="1" height="1" fill="#afb1b3"/>
  <rect x="11" y="13" width="1" height="1" fill="#b4b6b8"/>
  <rect x="12" y="13" width="1" height="1" fill="#b5b7b9"/>
  <rect x="14" y="13" width="1" height="1" fill="#a7a9ab"/>
  <rect x="15" y="13" width="1" height="1" fill="#90929481"/>
  <rect x="0" y="14" width="1" height="1" fill="#a3a5a6e6"/>
  <rect x="1" y="14" width="2" height="1" fill="#adafb1"/>
  <rect x="3" y="14" width="1" height="1" fill="#afb1b3"/>
  <rect x="4" y="14" width="1" height="1" fill="#b6b8ba"/>
  <rect x="5" y="14" width="1" height="1" fill="#b3b5b6"/>
  <rect x="6" y="14" width="1" height="1" fill="#b5b7b9df"/>
  <rect x="7" y="14" width="1" height="1" fill="#b1b3b417"/>
  <rect x="8" y="14" width="1" height="1" fill="#989a9cc5"/>
  <rect x="9" y="14" width="1" height="1" fill="#a0a2a4"/>
  <rect x="10" y="14" width="1" height="1" fill="#adafb1"/>
  <rect x="11" y="14" width="1" height="1" fill="#b5b7b9"/>
  <rect x="12" y="14" width="1" height="1" fill="#a8aaac"/>
  <rect x="13" y="14" width="1" height="1" fill="#a3a5a6"/>
  <rect x="14" y="14" width="1" height="1" fill="#989a9cc5"/>
  <rect x="15" y="14" width="1" height="1" fill="#9597980a"/>
  <rect x="0" y="15" width="1" height="1" fill="#9698994d"/>
  <rect x="1" y="15" width="1" height="1" fill="#9d9fa0e5"/>
  <rect x="2" y="15" width="1" height="1" fill="#999b9d"/>
  <rect x="3" y="15" width="2" height="1" fill="#989a9c"/>
  <rect x="5" y="15" width="1" height="1" fill="#959798"/>
  <rect x="6" y="15" width="1" height="1" fill="#97999b"/>
  <rect x="7" y="15" width="1" height="1" fill="#969899b7"/>
  <rect x="8" y="15" width="1" height="1" fill="#989a9c16"/>
  <rect x="9" y="15" width="1" height="1" fill="#999b9d81"/>
  <rect x="10" y="15" width="1" height="1" fill="#97999bdc"/>
  <rect x="11" y="15" width="1" height="1" fill="#969899f9"/>
  <rect x="12" y="15" width="1" height="1" fill="#989a9cdc"/>
  <rect x="13" y="15" width="1" height="1" fill="#8f919281"/>
</svg>