<svg xmlns="http://www.w3.org/2000/svg" width="2" height="19" viewBox="0 0 2 19" shape-rendering="crispEdges">
  <rect x="0" y="0" width="1" height="1" fill="#0c0c0c4d"/>
  <rect x="1" y="0" width="1" height="1" fill="#ffffff4d"/>
  <rect x="0" y="2" width="1" height="1" fill="#0a0a0a4d"/>
  <rect x="1" y="2" width="1" height="1" fill="#fdfdfd4d"/>
  <rect x="0" y="4" width="1" height="1" fill="#0606064d"/>
  <rect x="1" y="4" width="1" height="1" fill="#ffffff4d"/>
  <rect x="0" y="6" width="1" height="1" fill="#0505054d"/>
  <rect x="1" y="6" width="1" height="1" fill="#ffffff4d"/>
  <rect x="0" y="8" width="1" height="1" fill="#0606064d"/>
  <rect x="1" y="8" width="1" height="1" fill="#ffffff4d"/>
  <rect x="0" y="10" width="1" height="1" fill="#0606064d"/>
  <rect x="1" y="10" width="1" height="1" fill="#ffffff4d"/>
  <rect x="0" y="12" width="1" height="1" fill="#0808084d"/>
  <rect x="1" y="12" width="1" height="1" fill="#ffffff4d"/>
  <rect x="0" y="14" width="1" height="1" fill="#0808084d"/>
  <rect x="1" y="14" width="1" height="1" fill="#fdfdfd4d"/>
  <rect x="0" y="16" width="1" height="1" fill="#0101014d"/>
  <rect x="1" y="16" width="1" height="1" fill="#fefefe4d"/>
  <rect x="0" y="18" width="1" height="1" fill="#0202024d"/>
  <rect x="1" y="18" width="1" height="1" fill="#ffffff4d"/>
</svg>