<svg xmlns="http://www.w3.org/2000/svg" width="14" height="5" viewBox="0 0 14 5" shape-rendering="crispEdges">
  <rect x="0" y="0" width="1" height="1" fill="#76aab618"/>
  <rect x="1" y="0" width="1" height="1" fill="#78adb947"/>
  <rect x="2" y="0" width="1" height="1" fill="#70a5b05f"/>
  <rect x="3" y="0" width="3" height="1" fill="#75a9b55f"/>
  <rect x="6" y="0" width="4" height="1" fill="#76a8b55f"/>
  <rect x="10" y="0" width="1" height="1" fill="#75a9b55f"/>
  <rect x="11" y="0" width="1" height="1" fill="#71abb55f"/>
  <rect x="12" y="0" width="1" height="1" fill="#6ba9b247"/>
  <rect x="13" y="0" width="1" height="1" fill="#68a9b018"/>
  <rect x="0" y="1" width="1" height="1" fill="#7bacb747"/>
  <rect x="1" y="1" width="1" height="1" fill="#d5ffff"/>
  <rect x="2" y="1" width="1" height="1" fill="#d3ffff"/>
  <rect x="3" y="1" width="2" height="1" fill="#ccfcff"/>
  <rect x="5" y="1" width="5" height="1" fill="#cdfbff"/>
  <rect x="10" y="1" width="1" height="1" fill="#ccfcff"/>
  <rect x="11" y="1" width="1" height="1" fill="#cafdff"/>
  <rect x="12" y="1" width="1" height="1" fill="#caffff"/>
  <rect x="13" y="1" width="1" height="1" fill="#6fa9b147"/>
  <rect x="0" y="2" width="1" height="1" fill="#7ba0a85f"/>
  <rect x="1" y="2" width="1" height="1" fill="#d9ffff"/>
  <rect x="2" y="2" width="1" height="1" fill="#d0f5fd"/>
  <rect x="3" y="2" width="3" height="1" fill="#d5faff"/>
  <rect x="6" y="2" width="4" height="1" fill="#d6f9ff"/>
  <rect x="10" y="2" width="1" height="1" fill="#d5faff"/>
  <rect x="11" y="2" width="1" height="1" fill="#d3fbff"/>
  <rect x="12" y="2" width="1" height="1" fill="#d3ffff"/>
  <rect x="13" y="2" width="1" height="1" fill="#74a3a75f"/>
  <rect x="0" y="3" width="1" height="1" fill="#76a7bb47"/>
  <rect x="1" y="3" width="1" height="1" fill="#cafbff"/>
  <rect x="2" y="3" width="1" height="1" fill="#cbfcff"/>
  <rect x="3" y="3" width="4" height="1" fill="#ccfdff"/>
  <rect x="7" y="3" width="3" height="1" fill="#cefdff"/>
  <rect x="10" y="3" width="1" height="1" fill="#ccfdff"/>
  <rect x="11" y="3" width="1" height="1" fill="#c9ffff"/>
  <rect x="12" y="3" width="1" height="1" fill="#c4feff"/>
  <rect x="13" y="3" width="1" height="1" fill="#6fa9ba47"/>
  <rect x="0" y="4" width="1" height="1" fill="#5bafd918"/>
  <rect x="1" y="4" width="1" height="1" fill="#5bafd947"/>
  <rect x="2" y="4" width="5" height="1" fill="#5bafd95f"/>
  <rect x="7" y="4" width="2" height="1" fill="#5daed95f"/>
  <rect x="9" y="4" width="1" height="1" fill="#5bafd95f"/>
  <rect x="10" y="4" width="1" height="1" fill="#59b0d95f"/>
  <rect x="11" y="4" width="1" height="1" fill="#58b1d95f"/>
  <rect x="12" y="4" width="1" height="1" fill="#55b2d947"/>
  <rect x="13" y="4" width="1" height="1" fill="#56b4db18"/>
</svg>