<svg xmlns="http://www.w3.org/2000/svg" width="16" height="16" viewBox="0 0 16 16" shape-rendering="crispEdges">
  <rect x="4" y="0" width="1" height="1" fill="#41b6e914"/>
  <rect x="5" y="0" width="1" height="1" fill="#3eb7e97b"/>
  <rect x="6" y="0" width="1" height="1" fill="#3fb9dbca"/>
  <rect x="7" y="0" width="1" height="1" fill="#41bad3eb"/>
  <rect x="8" y="0" width="1" height="1" fill="#46b8d1e8"/>
  <rect x="9" y="0" width="1" height="1" fill="#46b6d9cb"/>
  <rect x="10" y="0" width="1" height="1" fill="#42b5e783"/>
  <rect x="11" y="0" width="1" height="1" fill="#42b5e91e"/>
  <rect x="3" y="1" width="1" height="1" fill="#44b4dc48"/>
  <rect x="4" y="1" width="1" height="1" fill="#42b5e7ee"/>
  <rect x="5" y="1" width="1" height="1" fill="#41b6e7"/>
  <rect x="6" y="1" width="1" height="1" fill="#41b8dd"/>
  <rect x="7" y="1" width="1" height="1" fill="#44b7d7"/>
  <rect x="8" y="1" width="1" height="1" fill="#47b6d5"/>
  <rect x="9" y="1" width="1" height="1" fill="#47b5db"/>
  <rect x="10" y="1" width="1" height="1" fill="#44b4e7"/>
  <rect x="11" y="1" width="1" height="1" fill="#44b4e7f6"/>
  <rect x="12" y="1" width="1" height="1" fill="#43b5de5b"/>
  <rect x="2" y="2" width="1" height="1" fill="#48b4d644"/>
  <rect x="3" y="2" width="1" height="1" fill="#41b5e0f9"/>
  <rect x="4" y="2" width="1" height="1" fill="#44b5e5"/>
  <rect x="5" y="2" width="1" height="1" fill="#46b4e5a9"/>
  <rect x="6" y="2" width="1" height="1" fill="#46b5e13b"/>
  <rect x="9" y="2" width="1" height="1" fill="#4ab3df3c"/>
  <rect x="10" y="2" width="1" height="1" fill="#49b2e5ae"/>
  <rect x="11" y="2" width="1" height="1" fill="#46b4e5"/>
  <rect x="12" y="2" width="1" height="1" fill="#41b5e0fe"/>
  <rect x="13" y="2" width="1" height="1" fill="#44b5d858"/>
  <rect x="1" y="3" width="1" height="1" fill="#43b3db0d"/>
  <rect x="2" y="3" width="1" height="1" fill="#40b4dfe7"/>
  <rect x="3" y="3" width="1" height="1" fill="#40b4e1"/>
  <rect x="4" y="3" width="1" height="1" fill="#43b4e26f"/>
  <rect x="11" y="3" width="1" height="1" fill="#44b3e272"/>
  <rect x="12" y="3" width="1" height="1" fill="#40b4e1"/>
  <rect x="13" y="3" width="1" height="1" fill="#40b4dfef"/>
  <rect x="14" y="3" width="1" height="1" fill="#42b4dd10"/>
  <rect x="1" y="4" width="1" height="1" fill="#40b3e574"/>
  <rect x="2" y="4" width="1" height="1" fill="#42b2e3"/>
  <rect x="3" y="4" width="1" height="1" fill="#42b3e1a8"/>
  <rect x="6" y="4" width="1" height="1" fill="#40b6e235"/>
  <rect x="7" y="4" width="2" height="1" fill="#3eb6e29e"/>
  <rect x="9" y="4" width="1" height="1" fill="#3eb6e236"/>
  <rect x="12" y="4" width="1" height="1" fill="#43b2e1af"/>
  <rect x="13" y="4" width="1" height="1" fill="#43b2e3"/>
  <rect x="14" y="4" width="1" height="1" fill="#42b2e572"/>
  <rect x="1" y="5" width="1" height="1" fill="#3db2e4c7"/>
  <rect x="2" y="5" width="1" height="1" fill="#42b0e2"/>
  <rect x="3" y="5" width="1" height="1" fill="#42b1e033"/>
  <rect x="5" y="5" width="1" height="1" fill="#3eb4e134"/>
  <rect x="6" y="5" width="1" height="1" fill="#40b4e1f9"/>
  <rect x="7" y="5" width="1" height="1" fill="#40b4e1"/>
  <rect x="8" y="5" width="1" height="1" fill="#3db5e1"/>
  <rect x="9" y="5" width="1" height="1" fill="#3bb6e1f9"/>
  <rect x="10" y="5" width="1" height="1" fill="#3bb6e135"/>
  <rect x="12" y="5" width="1" height="1" fill="#44b0e03d"/>
  <rect x="13" y="5" width="1" height="1" fill="#45afe2"/>
  <rect x="14" y="5" width="1" height="1" fill="#42b0e4c0"/>
  <rect x="1" y="6" width="1" height="1" fill="#3db4daf7"/>
  <rect x="2" y="6" width="1" height="1" fill="#42b1defd"/>
  <rect x="5" y="6" width="1" height="1" fill="#3fb2e094"/>
  <rect x="6" y="6" width="1" height="1" fill="#4aadde"/>
  <rect x="7" y="6" width="1" height="1" fill="#4cacde"/>
  <rect x="8" y="6" width="1" height="1" fill="#48aede"/>
  <rect x="9" y="6" width="1" height="1" fill="#42b1de"/>
  <rect x="10" y="6" width="1" height="1" fill="#3ab5e097"/>
  <rect x="13" y="6" width="1" height="1" fill="#48aede"/>
  <rect x="14" y="6" width="1" height="1" fill="#45b0dae7"/>
  <rect x="1" y="7" width="1" height="1" fill="#3cb4d6"/>
  <rect x="2" y="7" width="1" height="1" fill="#3fb1dafd"/>
  <rect x="5" y="7" width="1" height="1" fill="#3eb1df91"/>
  <rect x="6" y="7" width="1" height="1" fill="#46aeda"/>
  <rect x="7" y="7" width="1" height="1" fill="#49add8"/>
  <rect x="8" y="7" width="1" height="1" fill="#44afd8"/>
  <rect x="9" y="7" width="1" height="1" fill="#3fb1dc"/>
  <rect x="10" y="7" width="1" height="1" fill="#3bb3e192"/>
  <rect x="13" y="7" width="1" height="1" fill="#44aedc"/>
  <rect x="14" y="7" width="1" height="1" fill="#42b0d6ee"/>
  <rect x="1" y="8" width="1" height="1" fill="#38b3dbdb"/>
  <rect x="2" y="8" width="1" height="1" fill="#39b2dd"/>
  <rect x="3" y="8" width="1" height="1" fill="#3bb1df35"/>
  <rect x="5" y="8" width="1" height="1" fill="#3bb1df28"/>
  <rect x="6" y="8" width="1" height="1" fill="#36b5d7f2"/>
  <rect x="7" y="8" width="1" height="1" fill="#35b6d3"/>
  <rect x="8" y="8" width="1" height="1" fill="#33b7d5"/>
  <rect x="9" y="8" width="1" height="1" fill="#35b5d9f2"/>
  <rect x="10" y="8" width="1" height="1" fill="#39b1e128"/>
  <rect x="12" y="8" width="1" height="1" fill="#3bb0e33e"/>
  <rect x="13" y="8" width="1" height="1" fill="#3bb0e1"/>
  <rect x="14" y="8" width="1" height="1" fill="#3bb1dfcb"/>
  <rect x="1" y="9" width="1" height="1" fill="#35b2dc83"/>
  <rect x="2" y="9" width="1" height="1" fill="#33b3de"/>
  <rect x="3" y="9" width="1" height="1" fill="#37b1e0a8"/>
  <rect x="6" y="9" width="1" height="1" fill="#32b5d820"/>
  <rect x="7" y="9" width="1" height="1" fill="#2fb7d685"/>
  <rect x="8" y="9" width="1" height="1" fill="#2fb6d886"/>
  <rect x="9" y="9" width="1" height="1" fill="#32b4dc21"/>
  <rect x="12" y="9" width="1" height="1" fill="#37b0e4af"/>
  <rect x="13" y="9" width="1" height="1" fill="#35b1e2"/>
  <rect x="14" y="9" width="1" height="1" fill="#37b0e273"/>
  <rect x="1" y="10" width="1" height="1" fill="#32b5d81b"/>
  <rect x="2" y="10" width="1" height="1" fill="#32b4dcf3"/>
  <rect x="3" y="10" width="1" height="1" fill="#33b2e0"/>
  <rect x="4" y="10" width="1" height="1" fill="#37ade570"/>
  <rect x="11" y="10" width="1" height="1" fill="#37ade973"/>
  <rect x="12" y="10" width="1" height="1" fill="#33b1e4"/>
  <rect x="13" y="10" width="1" height="1" fill="#32b3e0eb"/>
  <rect x="14" y="10" width="1" height="1" fill="#33b3dc10"/>
  <rect x="2" y="11" width="1" height="1" fill="#35b1d969"/>
  <rect x="3" y="11" width="1" height="1" fill="#32b0e3"/>
  <rect x="4" y="11" width="1" height="1" fill="#34ade4"/>
  <rect x="5" y="11" width="1" height="1" fill="#36ace4aa"/>
  <rect x="6" y="11" width="1" height="1" fill="#39abe03b"/>
  <rect x="9" y="11" width="1" height="1" fill="#37abe43d"/>
  <rect x="10" y="11" width="1" height="1" fill="#36ace8af"/>
  <rect x="11" y="11" width="1" height="1" fill="#34ace8"/>
  <rect x="12" y="11" width="1" height="1" fill="#32afe7"/>
  <rect x="13" y="11" width="1" height="1" fill="#35afdf57"/>
  <rect x="3" y="12" width="1" height="1" fill="#32afe9a4"/>
  <rect x="4" y="12" width="1" height="1" fill="#31afe2"/>
  <rect x="5" y="12" width="1" height="1" fill="#33afde"/>
  <rect x="6" y="12" width="2" height="1" fill="#34aede"/>
  <rect x="8" y="12" width="1" height="1" fill="#34aee0"/>
  <rect x="9" y="12" width="1" height="1" fill="#34ade2"/>
  <rect x="10" y="12" width="1" height="1" fill="#33aee2"/>
  <rect x="11" y="12" width="1" height="1" fill="#31aee6"/>
  <rect x="12" y="12" width="1" height="1" fill="#32aeed87"/>
  <rect x="4" y="13" width="1" height="1" fill="#35add7a6"/>
  <rect x="5" y="13" width="1" height="1" fill="#30b0d9"/>
  <rect x="6" y="13" width="1" height="1" fill="#31aedb"/>
  <rect x="7" y="13" width="1" height="1" fill="#33addd"/>
  <rect x="8" y="13" width="1" height="1" fill="#33addf"/>
  <rect x="9" y="13" width="1" height="1" fill="#31aedf"/>
  <rect x="10" y="13" width="1" height="1" fill="#30afdd"/>
  <rect x="11" y="13" width="1" height="1" fill="#35acdd97"/>
  <rect x="5" y="14" width="1" height="1" fill="#30b0d58a"/>
  <rect x="6" y="14" width="1" height="1" fill="#33aed9fe"/>
  <rect x="7" y="14" width="1" height="1" fill="#35acdd"/>
  <rect x="8" y="14" width="1" height="1" fill="#35acdf"/>
  <rect x="9" y="14" width="1" height="1" fill="#33addffd"/>
  <rect x="10" y="14" width="1" height="1" fill="#30b0d97a"/>
  <rect x="6" y="15" width="1" height="1" fill="#33aed94c"/>
  <rect x="7" y="15" width="1" height="1" fill="#35acdfd6"/>
  <rect x="8" y="15" width="1" height="1" fill="#35ace1cd"/>
  <rect x="9" y="15" width="1" height="1" fill="#33addf3e"/>
</svg>