<svg xmlns="http://www.w3.org/2000/svg" width="64" height="16" viewBox="0 0 64 16" shape-rendering="crispEdges">
  <rect x="3" y="4" width="1" height="1" fill="#838c8b0d"/>
  <rect x="12" y="4" width="1" height="1" fill="#838c8d0d"/>
  <rect x="19" y="4" width="1" height="1" fill="#939c9e0d"/>
  <rect x="28" y="4" width="1" height="1" fill="#989a9e0d"/>
  <rect x="51" y="4" width="1" height="1" fill="#838c8d0d"/>
  <rect x="60" y="4" width="1" height="1" fill="#868a8d0d"/>
  <rect x="2" y="5" width="1" height="1" fill="#818d8b0c"/>
  <rect x="3" y="5" width="1" height="1" fill="#818d8bed"/>
  <rect x="4" y="5" width="1" height="1" fill="#818d8bd1"/>
  <rect x="5" y="5" width="1" height="1" fill="#818d8b15"/>
  <rect x="10" y="5" width="1" height="1" fill="#818d8d15"/>
  <rect x="11" y="5" width="1" height="1" fill="#818d8dd1"/>
  <rect x="12" y="5" width="1" height="1" fill="#818d8ded"/>
  <rect x="13" y="5" width="1" height="1" fill="#818c8f0c"/>
  <rect x="18" y="5" width="1" height="1" fill="#929da00c"/>
  <rect x="19" y="5" width="1" height="1" fill="#929da0ed"/>
  <rect x="20" y="5" width="1" height="1" fill="#939ca0d1"/>
  <rect x="21" y="5" width="1" height="1" fill="#939ca015"/>
  <rect x="26" y="5" width="1" height="1" fill="#959ba015"/>
  <rect x="27" y="5" width="1" height="1" fill="#959ba0d1"/>
  <rect x="28" y="5" width="1" height="1" fill="#959ba0ed"/>
  <rect x="29" y="5" width="1" height="1" fill="#979aa00c"/>
  <rect x="35" y="5" width="1" height="1" fill="#8d9ea60d"/>
  <rect x="44" y="5" width="1" height="1" fill="#8d9ea60d"/>
  <rect x="50" y="5" width="1" height="1" fill="#818d8d0c"/>
  <rect x="51" y="5" width="1" height="1" fill="#818d8ded"/>
  <rect x="52" y="5" width="1" height="1" fill="#818d8dd1"/>
  <rect x="53" y="5" width="1" height="1" fill="#818d8d15"/>
  <rect x="58" y="5" width="1" height="1" fill="#818d8d15"/>
  <rect x="59" y="5" width="1" height="1" fill="#838c8dd1"/>
  <rect x="60" y="5" width="1" height="1" fill="#838c8ded"/>
  <rect x="61" y="5" width="1" height="1" fill="#838c8d0c"/>
  <rect x="3" y="6" width="1" height="1" fill="#808e8bd2"/>
  <rect x="4" y="6" width="1" height="1" fill="#808d8d"/>
  <rect x="5" y="6" width="1" height="1" fill="#808d8dd4"/>
  <rect x="6" y="6" width="1" height="1" fill="#808d8d15"/>
  <rect x="9" y="6" width="1" height="1" fill="#808d8f15"/>
  <rect x="10" y="6" width="1" height="1" fill="#808d8fd4"/>
  <rect x="11" y="6" width="1" height="1" fill="#808d8f"/>
  <rect x="12" y="6" width="1" height="1" fill="#808d8fd2"/>
  <rect x="19" y="6" width="1" height="1" fill="#929ca2d2"/>
  <rect x="20" y="6" width="1" height="1" fill="#929ca2"/>
  <rect x="21" y="6" width="1" height="1" fill="#929ca2d4"/>
  <rect x="22" y="6" width="1" height="1" fill="#929ca215"/>
  <rect x="25" y="6" width="1" height="1" fill="#939ba215"/>
  <rect x="26" y="6" width="1" height="1" fill="#939ba2d4"/>
  <rect x="27" y="6" width="1" height="1" fill="#939ba2"/>
  <rect x="28" y="6" width="1" height="1" fill="#939ba2d2"/>
  <rect x="34" y="6" width="1" height="1" fill="#8f9da40c"/>
  <rect x="35" y="6" width="1" height="1" fill="#8b9ea8ed"/>
  <rect x="36" y="6" width="1" height="1" fill="#8b9ea8d1"/>
  <rect x="37" y="6" width="1" height="1" fill="#8f9da415"/>
  <rect x="42" y="6" width="1" height="1" fill="#8f9da415"/>
  <rect x="43" y="6" width="1" height="1" fill="#8b9ea8d1"/>
  <rect x="44" y="6" width="1" height="1" fill="#8b9ea8ed"/>
  <rect x="45" y="6" width="1" height="1" fill="#8d9ea40c"/>
  <rect x="51" y="6" width="1" height="1" fill="#7e8e8dd2"/>
  <rect x="52" y="6" width="1" height="1" fill="#808d8d"/>
  <rect x="53" y="6" width="1" height="1" fill="#808d8dd4"/>
  <rect x="54" y="6" width="1" height="1" fill="#808d8d15"/>
  <rect x="57" y="6" width="1" height="1" fill="#808d8d15"/>
  <rect x="58" y="6" width="1" height="1" fill="#808d8dd4"/>
  <rect x="59" y="6" width="1" height="1" fill="#808d8d"/>
  <rect x="60" y="6" width="1" height="1" fill="#818d8dd2"/>
  <rect x="3" y="7" width="1" height="1" fill="#808e8b16"/>
  <rect x="4" y="7" width="1" height="1" fill="#7e8e8dd4"/>
  <rect x="5" y="7" width="1" height="1" fill="#7e8e8d"/>
  <rect x="6" y="7" width="1" height="1" fill="#7e8e8dd4"/>
  <rect x="7" y="7" width="2" height="1" fill="#7e8e8f15"/>
  <rect x="9" y="7" width="1" height="1" fill="#7e8e8fd4"/>
  <rect x="10" y="7" width="1" height="1" fill="#808d8f"/>
  <rect x="11" y="7" width="1" height="1" fill="#808d91d4"/>
  <rect x="12" y="7" width="1" height="1" fill="#808d9115"/>
  <rect x="19" y="7" width="1" height="1" fill="#929ca216"/>
  <rect x="20" y="7" width="1" height="1" fill="#929ca2d4"/>
  <rect x="21" y="7" width="1" height="1" fill="#929ca2"/>
  <rect x="22" y="7" width="1" height="1" fill="#929ca2d4"/>
  <rect x="23" y="7" width="2" height="1" fill="#929ca215"/>
  <rect x="25" y="7" width="1" height="1" fill="#929ca2d4"/>
  <rect x="26" y="7" width="1" height="1" fill="#929ca2"/>
  <rect x="27" y="7" width="1" height="1" fill="#929ca2d4"/>
  <rect x="28" y="7" width="1" height="1" fill="#929ca215"/>
  <rect x="35" y="7" width="1" height="1" fill="#8b9fa6d2"/>
  <rect x="36" y="7" width="1" height="1" fill="#8b9fa6"/>
  <rect x="37" y="7" width="1" height="1" fill="#8d9ea4d4"/>
  <rect x="38" y="7" width="1" height="1" fill="#929da015"/>
  <rect x="41" y="7" width="1" height="1" fill="#929da015"/>
  <rect x="42" y="7" width="1" height="1" fill="#8f9da4d4"/>
  <rect x="43" y="7" width="1" height="1" fill="#8b9fa6"/>
  <rect x="44" y="7" width="1" height="1" fill="#8b9fa6d2"/>
  <rect x="51" y="7" width="1" height="1" fill="#7d8f8d16"/>
  <rect x="52" y="7" width="1" height="1" fill="#7e8e8dd4"/>
  <rect x="53" y="7" width="1" height="1" fill="#7e8e8d"/>
  <rect x="54" y="7" width="1" height="1" fill="#7e8e8dd4"/>
  <rect x="55" y="7" width="2" height="1" fill="#7e8e8d15"/>
  <rect x="57" y="7" width="1" height="1" fill="#7e8e8dd4"/>
  <rect x="58" y="7" width="1" height="1" fill="#7e8e8d"/>
  <rect x="59" y="7" width="1" height="1" fill="#7e8e8dd4"/>
  <rect x="60" y="7" width="1" height="1" fill="#808d8d15"/>
  <rect x="4" y="8" width="1" height="1" fill="#7e8e8d16"/>
  <rect x="5" y="8" width="1" height="1" fill="#7e8e8dd4"/>
  <rect x="6" y="8" width="1" height="1" fill="#7d8f8f"/>
  <rect x="7" y="8" width="1" height="1" fill="#7d8f8fd4"/>
  <rect x="8" y="8" width="1" height="1" fill="#7e8e91d4"/>
  <rect x="9" y="8" width="1" height="1" fill="#7e8e91"/>
  <rect x="10" y="8" width="1" height="1" fill="#7e8e91d4"/>
  <rect x="11" y="8" width="1" height="1" fill="#7e8e9115"/>
  <rect x="20" y="8" width="1" height="1" fill="#939ca016"/>
  <rect x="21" y="8" width="1" height="1" fill="#939ca0d4"/>
  <rect x="22" y="8" width="1" height="1" fill="#929da0"/>
  <rect x="23" y="8" width="2" height="1" fill="#929da0d4"/>
  <rect x="25" y="8" width="1" height="1" fill="#929da0"/>
  <rect x="26" y="8" width="1" height="1" fill="#909da0d4"/>
  <rect x="27" y="8" width="1" height="1" fill="#909da015"/>
  <rect x="35" y="8" width="1" height="1" fill="#8d9fa216"/>
  <rect x="36" y="8" width="1" height="1" fill="#8d9ea4d4"/>
  <rect x="37" y="8" width="1" height="1" fill="#8f9da4"/>
  <rect x="38" y="8" width="1" height="1" fill="#929ca4d4"/>
  <rect x="39" y="8" width="2" height="1" fill="#939ba415"/>
  <rect x="41" y="8" width="1" height="1" fill="#929ca4d4"/>
  <rect x="42" y="8" width="1" height="1" fill="#8f9da4"/>
  <rect x="43" y="8" width="1" height="1" fill="#8d9ea4d4"/>
  <rect x="44" y="8" width="1" height="1" fill="#8d9fa215"/>
  <rect x="52" y="8" width="1" height="1" fill="#7d8f8d16"/>
  <rect x="53" y="8" width="1" height="1" fill="#7d8f8dd4"/>
  <rect x="54" y="8" width="1" height="1" fill="#7d8f8d"/>
  <rect x="55" y="8" width="2" height="1" fill="#7d8f8dd4"/>
  <rect x="57" y="8" width="1" height="1" fill="#7d8f8d"/>
  <rect x="58" y="8" width="1" height="1" fill="#7d8f8dd4"/>
  <rect x="59" y="8" width="1" height="1" fill="#7e8e8d15"/>
  <rect x="5" y="9" width="1" height="1" fill="#7e8e8d16"/>
  <rect x="6" y="9" width="1" height="1" fill="#7e8e8fd4"/>
  <rect x="7" y="9" width="1" height="1" fill="#7e8e8f"/>
  <rect x="8" y="9" width="1" height="1" fill="#7e8e91"/>
  <rect x="9" y="9" width="1" height="1" fill="#7e8e91d4"/>
  <rect x="10" y="9" width="1" height="1" fill="#7e8e9115"/>
  <rect x="21" y="9" width="1" height="1" fill="#939ca016"/>
  <rect x="22" y="9" width="1" height="1" fill="#939ca0d4"/>
  <rect x="23" y="9" width="2" height="1" fill="#929da0"/>
  <rect x="25" y="9" width="1" height="1" fill="#929da0d4"/>
  <rect x="26" y="9" width="1" height="1" fill="#929da015"/>
  <rect x="36" y="9" width="1" height="1" fill="#8f9ea216"/>
  <rect x="37" y="9" width="1" height="1" fill="#8f9da4d4"/>
  <rect x="38" y="9" width="1" height="1" fill="#909ca6"/>
  <rect x="39" y="9" width="1" height="1" fill="#929ba6d4"/>
  <rect x="40" y="9" width="1" height="1" fill="#939ba6d4"/>
  <rect x="41" y="9" width="1" height="1" fill="#929ba6"/>
  <rect x="42" y="9" width="1" height="1" fill="#909da4d4"/>
  <rect x="43" y="9" width="1" height="1" fill="#909da215"/>
  <rect x="53" y="9" width="1" height="1" fill="#7e8e8d16"/>
  <rect x="54" y="9" width="1" height="1" fill="#7e8e8dd4"/>
  <rect x="55" y="9" width="2" height="1" fill="#7e8e8d"/>
  <rect x="57" y="9" width="1" height="1" fill="#7e8e8dd4"/>
  <rect x="58" y="9" width="1" height="1" fill="#7e8e8d15"/>
  <rect x="6" y="10" width="1" height="1" fill="#7e8e8d18"/>
  <rect x="7" y="10" width="1" height="1" fill="#7e8e8fed"/>
  <rect x="8" y="10" width="1" height="1" fill="#808d8fed"/>
  <rect x="9" y="10" width="1" height="1" fill="#808d8f17"/>
  <rect x="22" y="10" width="1" height="1" fill="#959b9e18"/>
  <rect x="23" y="10" width="2" height="1" fill="#939c9eed"/>
  <rect x="25" y="10" width="1" height="1" fill="#939c9e17"/>
  <rect x="37" y="10" width="1" height="1" fill="#8f9da416"/>
  <rect x="38" y="10" width="1" height="1" fill="#8f9da4d4"/>
  <rect x="39" y="10" width="1" height="1" fill="#909da4"/>
  <rect x="40" y="10" width="1" height="1" fill="#929ca4"/>
  <rect x="41" y="10" width="1" height="1" fill="#929ca4d4"/>
  <rect x="42" y="10" width="1" height="1" fill="#909da415"/>
  <rect x="54" y="10" width="1" height="1" fill="#808d8d18"/>
  <rect x="55" y="10" width="2" height="1" fill="#808d8ded"/>
  <rect x="57" y="10" width="1" height="1" fill="#808d8d17"/>
  <rect x="7" y="11" width="1" height="1" fill="#808d8d0d"/>
  <rect x="8" y="11" width="1" height="1" fill="#818c8f0d"/>
  <rect x="23" y="11" width="1" height="1" fill="#979b9c0d"/>
  <rect x="24" y="11" width="1" height="1" fill="#959c9c0d"/>
  <rect x="38" y="11" width="1" height="1" fill="#8f9ea218"/>
  <rect x="39" y="11" width="1" height="1" fill="#8f9da4ed"/>
  <rect x="40" y="11" width="1" height="1" fill="#909da4ed"/>
  <rect x="41" y="11" width="1" height="1" fill="#929ca217"/>
  <rect x="55" y="11" width="2" height="1" fill="#818d8d0d"/>
  <rect x="39" y="12" width="1" height="1" fill="#8d9fa20d"/>
  <rect x="40" y="12" width="1" height="1" fill="#8f9ea20d"/>
</svg>