<svg xmlns="http://www.w3.org/2000/svg" width="132" height="28" viewBox="0 0 132 28" shape-rendering="crispEdges">
  <rect x="4" y="2" width="1" height="1" fill="#9696964f"/>
  <rect x="5" y="2" width="1" height="1" fill="#9c9c9ce7"/>
  <rect x="6" y="2" width="1" height="1" fill="#9e9e9e"/>
  <rect x="7" y="2" width="1" height="1" fill="#9b9b9b"/>
  <rect x="8" y="2" width="8" height="1" fill="#9a9a9a"/>
  <rect x="16" y="2" width="22" height="1" fill="#9b9b9b"/>
  <rect x="38" y="2" width="1" height="1" fill="#9c9c9c"/>
  <rect x="39" y="2" width="1" height="1" fill="#9d9d9d"/>
  <rect x="40" y="2" width="1" height="1" fill="#9e9e9e"/>
  <rect x="41" y="2" width="1" height="1" fill="#a0a0a0"/>
  <rect x="42" y="2" width="2" height="1" fill="#a1a1a1"/>
  <rect x="48" y="2" width="1" height="1" fill="#9e9e9ea0"/>
  <rect x="49" y="2" width="1" height="1" fill="#767676"/>
  <rect x="50" y="2" width="1" height="1" fill="#686868"/>
  <rect x="51" y="2" width="1" height="1" fill="#626262"/>
  <rect x="52" y="2" width="3" height="1" fill="#6a6a6a"/>
  <rect x="55" y="2" width="2" height="1" fill="#696969"/>
  <rect x="57" y="2" width="7" height="1" fill="#686868"/>
  <rect x="64" y="2" width="24" height="1" fill="#666666"/>
  <rect x="92" y="2" width="1" height="1" fill="#909090a0"/>
  <rect x="93" y="2" width="1" height="1" fill="#707070"/>
  <rect x="94" y="2" width="1" height="1" fill="#5e5e5e"/>
  <rect x="95" y="2" width="5" height="1" fill="#686868"/>
  <rect x="100" y="2" width="32" height="1" fill="#666666"/>
  <rect x="4" y="3" width="1" height="1" fill="#979797e8"/>
  <rect x="5" y="3" width="1" height="1" fill="#d3d3d3"/>
  <rect x="6" y="3" width="2" height="1" fill="#fcfbfc"/>
  <rect x="8" y="3" width="6" height="1" fill="#f9f9f9"/>
  <rect x="14" y="3" width="2" height="1" fill="#fafafa"/>
  <rect x="16" y="3" width="2" height="1" fill="#fcfbfc"/>
  <rect x="18" y="3" width="22" height="1" fill="#fdfdfd"/>
  <rect x="40" y="3" width="4" height="1" fill="#fcfbfc"/>
  <rect x="48" y="3" width="1" height="1" fill="#6f6f6f"/>
  <rect x="49" y="3" width="1" height="1" fill="#9e9e9e"/>
  <rect x="50" y="3" width="1" height="1" fill="#f0f0f0"/>
  <rect x="51" y="3" width="1" height="1" fill="#fdfdfd"/>
  <rect x="52" y="3" width="2" height="1" fill="#fefefe"/>
  <rect x="54" y="3" width="34" height="1" fill="#ffffff"/>
  <rect x="92" y="3" width="1" height="1" fill="#646464"/>
  <rect x="93" y="3" width="1" height="1" fill="#8c8c8c"/>
  <rect x="94" y="3" width="1" height="1" fill="#b1b1b1"/>
  <rect x="95" y="3" width="1" height="1" fill="#bebebe"/>
  <rect x="96" y="3" width="4" height="1" fill="#c7c7c7"/>
  <rect x="100" y="3" width="32" height="1" fill="#c4c4c4"/>
  <rect x="3" y="4" width="1" height="1" fill="#0202020d"/>
  <rect x="4" y="4" width="1" height="4" fill="#979797"/>
  <rect x="5" y="4" width="1" height="4" fill="#fafafa"/>
  <rect x="6" y="4" width="1" height="4" fill="#fcfbfc"/>
  <rect x="7" y="4" width="1" height="4" fill="#ffffff"/>
  <rect x="8" y="4" width="4" height="4" fill="#fdfdfd"/>
  <rect x="12" y="4" width="32" height="4" fill="#fcfbfc"/>
  <rect x="47" y="4" width="1" height="1" fill="#0202020d"/>
  <rect x="48" y="4" width="1" height="4" fill="#646464"/>
  <rect x="49" y="4" width="2" height="4" fill="#fafafa"/>
  <rect x="51" y="4" width="37" height="16" fill="#ffffff"/>
  <rect x="91" y="4" width="1" height="1" fill="#0000000d"/>
  <rect x="92" y="4" width="1" height="1" fill="#636363"/>
  <rect x="93" y="4" width="1" height="1" fill="#d0d0d0"/>
  <rect x="94" y="4" width="1" height="1" fill="#d6d6d6"/>
  <rect x="95" y="4" width="1" height="1" fill="#dedede"/>
  <rect x="96" y="4" width="4" height="1" fill="#dbdbdb"/>
  <rect x="100" y="4" width="28" height="1" fill="#dcdcdc"/>
  <rect x="128" y="4" width="1" height="1" fill="#dadada"/>
  <rect x="129" y="4" width="1" height="1" fill="#dedede"/>
  <rect x="130" y="4" width="1" height="1" fill="#dbdbdb"/>
  <rect x="131" y="4" width="1" height="1" fill="#d0d0d0"/>
  <rect x="3" y="5" width="1" height="1" fill="#02020210"/>
  <rect x="47" y="5" width="1" height="1" fill="#02020210"/>
  <rect x="91" y="5" width="1" height="1" fill="#00000010"/>
  <rect x="92" y="5" width="1" height="2" fill="#6c6c6c"/>
  <rect x="93" y="5" width="1" height="1" fill="#e1e1e1"/>
  <rect x="94" y="5" width="1" height="1" fill="#e7e7e7"/>
  <rect x="95" y="5" width="5" height="2" fill="#e8e8e8"/>
  <rect x="100" y="5" width="28" height="1" fill="#e7e7e7"/>
  <rect x="128" y="5" width="1" height="1" fill="#e4e4e4"/>
  <rect x="129" y="5" width="1" height="1" fill="#e9e9e9"/>
  <rect x="130" y="5" width="1" height="1" fill="#e5e5e5"/>
  <rect x="131" y="5" width="1" height="1" fill="#dbdbdb"/>
  <rect x="3" y="6" width="1" height="1" fill="#02020211"/>
  <rect x="47" y="6" width="1" height="1" fill="#02020211"/>
  <rect x="91" y="6" width="1" height="12" fill="#00000011"/>
  <rect x="93" y="6" width="1" height="1" fill="#eaeaea"/>
  <rect x="94" y="6" width="1" height="1" fill="#f0f0f0"/>
  <rect x="100" y="6" width="28" height="1" fill="#e9e9e9"/>
  <rect x="128" y="6" width="1" height="1" fill="#e7e7e7"/>
  <rect x="129" y="6" width="1" height="1" fill="#ebebeb"/>
  <rect x="130" y="6" width="1" height="1" fill="#e8e8e8"/>
  <rect x="131" y="6" width="1" height="1" fill="#dddddd"/>
  <rect x="3" y="7" width="1" height="15" fill="#00000011"/>
  <rect x="47" y="7" width="1" height="15" fill="#00000011"/>
  <rect x="92" y="7" width="1" height="1" fill="#646464"/>
  <rect x="93" y="7" width="1" height="1" fill="#e9e9e9"/>
  <rect x="94" y="7" width="1" height="1" fill="#efefef"/>
  <rect x="95" y="7" width="1" height="1" fill="#e1e1e1"/>
  <rect x="96" y="7" width="4" height="1" fill="#e3e3e3"/>
  <rect x="100" y="7" width="28" height="1" fill="#e7e7e7"/>
  <rect x="128" y="7" width="1" height="1" fill="#e4e4e4"/>
  <rect x="129" y="7" width="1" height="1" fill="#e9e9e9"/>
  <rect x="130" y="7" width="1" height="1" fill="#e5e5e5"/>
  <rect x="131" y="7" width="1" height="1" fill="#dbdbdb"/>
  <rect x="4" y="8" width="1" height="5" fill="#969696"/>
  <rect x="5" y="8" width="1" height="6" fill="#f9f9f9"/>
  <rect x="6" y="8" width="1" height="6" fill="#fafafa"/>
  <rect x="7" y="8" width="1" height="5" fill="#fefefe"/>
  <rect x="8" y="8" width="36" height="7" fill="#fcfbfc"/>
  <rect x="48" y="8" width="1" height="8" fill="#656565"/>
  <rect x="49" y="8" width="2" height="8" fill="#fcfbfc"/>
  <rect x="92" y="8" width="1" height="1" fill="#636363"/>
  <rect x="93" y="8" width="1" height="6" fill="#eaeaea"/>
  <rect x="94" y="8" width="1" height="6" fill="#e4e4e4"/>
  <rect x="95" y="8" width="1" height="1" fill="#e2e2e2"/>
  <rect x="96" y="8" width="32" height="10" fill="#e8e8e8"/>
  <rect x="128" y="8" width="1" height="13" fill="#e5e5e5"/>
  <rect x="129" y="8" width="1" height="13" fill="#eaeaea"/>
  <rect x="130" y="8" width="1" height="13" fill="#e7e7e7"/>
  <rect x="131" y="8" width="1" height="13" fill="#dcdcdc"/>
  <rect x="92" y="9" width="1" height="5" fill="#656565"/>
  <rect x="95" y="9" width="1" height="5" fill="#e5e5e5"/>
  <rect x="4" y="13" width="1" height="2" fill="#959595"/>
  <rect x="7" y="13" width="1" height="2" fill="#fdfdfd"/>
  <rect x="5" y="14" width="1" height="2" fill="#fafafa"/>
  <rect x="6" y="14" width="1" height="1" fill="#fcfbfc"/>
  <rect x="92" y="14" width="1" height="4" fill="#666666"/>
  <rect x="93" y="14" width="1" height="4" fill="#ebebeb"/>
  <rect x="94" y="14" width="1" height="4" fill="#e5e5e5"/>
  <rect x="95" y="14" width="1" height="4" fill="#e7e7e7"/>
  <rect x="4" y="15" width="1" height="2" fill="#949494"/>
  <rect x="6" y="15" width="38" height="1" fill="#fcfbfc"/>
  <rect x="5" y="16" width="1" height="2" fill="#fcfbfc"/>
  <rect x="6" y="16" width="1" height="2" fill="#fdfdfd"/>
  <rect x="7" y="16" width="1" height="1" fill="#fcfbfc"/>
  <rect x="8" y="16" width="4" height="1" fill="#fafafa"/>
  <rect x="12" y="16" width="32" height="4" fill="#fcfbfc"/>
  <rect x="48" y="16" width="1" height="5" fill="#666666"/>
  <rect x="49" y="16" width="2" height="4" fill="#fdfdfd"/>
  <rect x="4" y="17" width="1" height="2" fill="#939393"/>
  <rect x="7" y="17" width="5" height="2" fill="#fafafa"/>
  <rect x="5" y="18" width="1" height="2" fill="#fdfdfd"/>
  <rect x="6" y="18" width="1" height="2" fill="#fefefe"/>
  <rect x="91" y="18" width="1" height="4" fill="#02020211"/>
  <rect x="92" y="18" width="1" height="2" fill="#686868"/>
  <rect x="93" y="18" width="1" height="2" fill="#ececec"/>
  <rect x="94" y="18" width="1" height="2" fill="#e7e7e7"/>
  <rect x="95" y="18" width="33" height="2" fill="#e8e8e8"/>
  <rect x="4" y="19" width="1" height="2" fill="#929292"/>
  <rect x="7" y="19" width="1" height="1" fill="#f9f9f9"/>
  <rect x="8" y="19" width="4" height="1" fill="#fafafa"/>
  <rect x="5" y="20" width="1" height="1" fill="#f9f9f9"/>
  <rect x="6" y="20" width="1" height="1" fill="#fdfdfd"/>
  <rect x="7" y="20" width="1" height="1" fill="#fafafa"/>
  <rect x="8" y="20" width="4" height="1" fill="#fcfbfc"/>
  <rect x="12" y="20" width="32" height="1" fill="#fdfdfd"/>
  <rect x="49" y="20" width="1" height="1" fill="#f9f9f9"/>
  <rect x="50" y="20" width="38" height="2" fill="#ffffff"/>
  <rect x="92" y="20" width="1" height="1" fill="#656565"/>
  <rect x="93" y="20" width="1" height="1" fill="#e7e7e7"/>
  <rect x="94" y="20" width="1" height="1" fill="#e8e8e8"/>
  <rect x="95" y="20" width="1" height="1" fill="#e7e7e7"/>
  <rect x="96" y="20" width="32" height="1" fill="#e8e8e8"/>
  <rect x="4" y="21" width="1" height="1" fill="#898989"/>
  <rect x="5" y="21" width="1" height="1" fill="#fefefe"/>
  <rect x="6" y="21" width="1" height="1" fill="#f9f9f9"/>
  <rect x="7" y="21" width="1" height="1" fill="#fdfdfd"/>
  <rect x="8" y="21" width="4" height="1" fill="#fefefe"/>
  <rect x="12" y="21" width="32" height="1" fill="#ffffff"/>
  <rect x="48" y="21" width="1" height="1" fill="#6a6a6a"/>
  <rect x="49" y="21" width="1" height="1" fill="#ececec"/>
  <rect x="92" y="21" width="1" height="1" fill="#6b6b6b"/>
  <rect x="93" y="21" width="1" height="1" fill="#dadada"/>
  <rect x="94" y="21" width="1" height="1" fill="#ececec"/>
  <rect x="95" y="21" width="1" height="1" fill="#eaeaea"/>
  <rect x="96" y="21" width="32" height="2" fill="#e7e7e7"/>
  <rect x="128" y="21" width="1" height="2" fill="#e4e4e4"/>
  <rect x="129" y="21" width="1" height="2" fill="#e9e9e9"/>
  <rect x="130" y="21" width="1" height="2" fill="#e5e5e5"/>
  <rect x="131" y="21" width="1" height="2" fill="#dbdbdb"/>
  <rect x="3" y="22" width="1" height="1" fill="#00000010"/>
  <rect x="4" y="22" width="1" height="1" fill="#909090e9"/>
  <rect x="5" y="22" width="1" height="1" fill="#dcdcdc"/>
  <rect x="6" y="22" width="1" height="1" fill="#fdfdfd"/>
  <rect x="7" y="22" width="1" height="1" fill="#f8f8f8"/>
  <rect x="8" y="22" width="4" height="1" fill="#f9f9f9"/>
  <rect x="12" y="22" width="32" height="1" fill="#fafafa"/>
  <rect x="47" y="22" width="1" height="1" fill="#00000010"/>
  <rect x="48" y="22" width="1" height="1" fill="#777777"/>
  <rect x="49" y="22" width="1" height="1" fill="#9b9b9b"/>
  <rect x="50" y="22" width="1" height="1" fill="#eeeeee"/>
  <rect x="51" y="22" width="1" height="1" fill="#ffffff"/>
  <rect x="52" y="22" width="12" height="1" fill="#fefefe"/>
  <rect x="64" y="22" width="24" height="1" fill="#fdfdfd"/>
  <rect x="91" y="22" width="1" height="1" fill="#03030310"/>
  <rect x="92" y="22" width="1" height="1" fill="#797979"/>
  <rect x="93" y="22" width="1" height="1" fill="#949494"/>
  <rect x="94" y="22" width="1" height="1" fill="#d3d3d3"/>
  <rect x="95" y="22" width="1" height="1" fill="#e3e3e3"/>
  <rect x="3" y="23" width="1" height="1" fill="#0000000d"/>
  <rect x="4" y="23" width="1" height="1" fill="#6565655d"/>
  <rect x="5" y="23" width="1" height="1" fill="#8b8b8beb"/>
  <rect x="6" y="23" width="1" height="1" fill="#848484"/>
  <rect x="7" y="23" width="1" height="1" fill="#8b8b8b"/>
  <rect x="8" y="23" width="4" height="1" fill="#8c8c8c"/>
  <rect x="12" y="23" width="32" height="1" fill="#8d8d8d"/>
  <rect x="47" y="23" width="1" height="1" fill="#0000000d"/>
  <rect x="48" y="23" width="1" height="1" fill="#949494a8"/>
  <rect x="49" y="23" width="1" height="1" fill="#737373"/>
  <rect x="50" y="23" width="1" height="1" fill="#636363"/>
  <rect x="51" y="23" width="1" height="1" fill="#696969"/>
  <rect x="52" y="23" width="12" height="1" fill="#666666"/>
  <rect x="64" y="23" width="24" height="1" fill="#656565"/>
  <rect x="91" y="23" width="1" height="1" fill="#0202020d"/>
  <rect x="92" y="23" width="1" height="1" fill="#898989a8"/>
  <rect x="93" y="23" width="1" height="1" fill="#7f7f7f"/>
  <rect x="94" y="23" width="1" height="1" fill="#6b6b6b"/>
  <rect x="95" y="23" width="1" height="1" fill="#686868"/>
  <rect x="96" y="23" width="32" height="1" fill="#666666"/>
  <rect x="128" y="23" width="1" height="1" fill="#646464"/>
  <rect x="129" y="23" width="1" height="1" fill="#696969"/>
  <rect x="130" y="23" width="1" height="1" fill="#656565"/>
  <rect x="131" y="23" width="1" height="1" fill="#5b5b5b"/>
  <rect x="4" y="24" width="1" height="1" fill="#00000012"/>
  <rect x="5" y="24" width="1" height="1" fill="#0000001b"/>
  <rect x="6" y="24" width="1" height="1" fill="#00000020"/>
  <rect x="7" y="24" width="37" height="1" fill="#00000022"/>
  <rect x="48" y="24" width="1" height="1" fill="#00000012"/>
  <rect x="49" y="24" width="1" height="1" fill="#0000001b"/>
  <rect x="50" y="24" width="1" height="1" fill="#00000020"/>
  <rect x="51" y="24" width="37" height="1" fill="#00000022"/>
  <rect x="92" y="24" width="1" height="1" fill="#00000012"/>
  <rect x="93" y="24" width="1" height="1" fill="#0000001b"/>
  <rect x="94" y="24" width="1" height="1" fill="#00000020"/>
  <rect x="95" y="24" width="37" height="1" fill="#00000022"/>
  <rect x="5" y="25" width="1" height="1" fill="#0000000d"/>
  <rect x="6" y="25" width="1" height="1" fill="#00000010"/>
  <rect x="7" y="25" width="37" height="1" fill="#00000011"/>
  <rect x="49" y="25" width="1" height="1" fill="#0000000d"/>
  <rect x="50" y="25" width="1" height="1" fill="#00000010"/>
  <rect x="51" y="25" width="37" height="1" fill="#00000011"/>
  <rect x="93" y="25" width="1" height="1" fill="#0000000d"/>
  <rect x="94" y="25" width="1" height="1" fill="#00000010"/>
  <rect x="95" y="25" width="37" height="1" fill="#00000011"/>
</svg>