<svg xmlns="http://www.w3.org/2000/svg" width="132" height="28" viewBox="0 0 132 28" shape-rendering="crispEdges">
  <rect x="0" y="2" width="16" height="1" fill="#9d9d9d"/>
  <rect x="16" y="2" width="14" height="1" fill="#9c9c9c"/>
  <rect x="30" y="2" width="2" height="1" fill="#9d9d9d"/>
  <rect x="32" y="2" width="2" height="1" fill="#9e9e9e"/>
  <rect x="34" y="2" width="1" height="1" fill="#a0a0a0"/>
  <rect x="35" y="2" width="1" height="1" fill="#9e9e9e"/>
  <rect x="36" y="2" width="1" height="1" fill="#9c9c9c"/>
  <rect x="37" y="2" width="1" height="1" fill="#9e9e9e"/>
  <rect x="38" y="2" width="1" height="1" fill="#9d9d9de7"/>
  <rect x="39" y="2" width="1" height="1" fill="#9797974f"/>
  <rect x="44" y="2" width="2" height="1" fill="#656565"/>
  <rect x="46" y="2" width="2" height="1" fill="#666666"/>
  <rect x="48" y="2" width="2" height="1" fill="#686868"/>
  <rect x="50" y="2" width="30" height="1" fill="#696969"/>
  <rect x="80" y="2" width="1" height="1" fill="#5f5f5f"/>
  <rect x="81" y="2" width="1" height="1" fill="#6b6b6b"/>
  <rect x="82" y="2" width="1" height="1" fill="#767676"/>
  <rect x="83" y="2" width="1" height="1" fill="#a8a8a8a0"/>
  <rect x="88" y="2" width="8" height="1" fill="#666666"/>
  <rect x="96" y="2" width="24" height="1" fill="#656565"/>
  <rect x="120" y="2" width="4" height="1" fill="#646464"/>
  <rect x="124" y="2" width="1" height="1" fill="#616161"/>
  <rect x="125" y="2" width="1" height="1" fill="#656565"/>
  <rect x="126" y="2" width="1" height="1" fill="#646464"/>
  <rect x="127" y="2" width="1" height="1" fill="#8e8e8ea0"/>
  <rect x="0" y="3" width="16" height="13" fill="#fdfdfd"/>
  <rect x="16" y="3" width="14" height="1" fill="#fcfbfc"/>
  <rect x="30" y="3" width="4" height="1" fill="#fafafa"/>
  <rect x="34" y="3" width="2" height="1" fill="#f9f9f9"/>
  <rect x="36" y="3" width="2" height="1" fill="#fdfdfd"/>
  <rect x="38" y="3" width="1" height="1" fill="#d7d7d7"/>
  <rect x="39" y="3" width="1" height="1" fill="#a2a2a2e8"/>
  <rect x="44" y="3" width="37" height="1" fill="#ffffff"/>
  <rect x="81" y="3" width="1" height="1" fill="#f0f0f0"/>
  <rect x="82" y="3" width="1" height="1" fill="#979797"/>
  <rect x="83" y="3" width="1" height="1" fill="#707070"/>
  <rect x="88" y="3" width="8" height="1" fill="#c4c4c4"/>
  <rect x="96" y="3" width="22" height="1" fill="#c2c2c2"/>
  <rect x="118" y="3" width="4" height="1" fill="#c4c4c4"/>
  <rect x="122" y="3" width="2" height="1" fill="#c5c5c5"/>
  <rect x="124" y="3" width="1" height="1" fill="#bbbbbb"/>
  <rect x="125" y="3" width="1" height="1" fill="#c1c1c1"/>
  <rect x="126" y="3" width="1" height="1" fill="#878787"/>
  <rect x="127" y="3" width="1" height="1" fill="#737373"/>
  <rect x="16" y="4" width="16" height="4" fill="#fcfbfc"/>
  <rect x="32" y="4" width="4" height="4" fill="#fafafa"/>
  <rect x="36" y="4" width="1" height="3" fill="#f9f9f9"/>
  <rect x="37" y="4" width="1" height="3" fill="#ffffff"/>
  <rect x="38" y="4" width="1" height="3" fill="#fefefe"/>
  <rect x="39" y="4" width="1" height="3" fill="#9c9c9c"/>
  <rect x="40" y="4" width="1" height="1" fill="#0000000d"/>
  <rect x="44" y="4" width="4" height="4" fill="#fefefe"/>
  <rect x="48" y="4" width="34" height="4" fill="#ffffff"/>
  <rect x="82" y="4" width="1" height="16" fill="#fcfbfc"/>
  <rect x="83" y="4" width="1" height="16" fill="#636363"/>
  <rect x="84" y="4" width="1" height="1" fill="#0303030d"/>
  <rect x="88" y="4" width="1" height="1" fill="#cecece"/>
  <rect x="89" y="4" width="1" height="1" fill="#d9d9d9"/>
  <rect x="90" y="4" width="1" height="1" fill="#dddddd"/>
  <rect x="91" y="4" width="1" height="1" fill="#d9d9d9"/>
  <rect x="92" y="4" width="4" height="1" fill="#dcdcdc"/>
  <rect x="96" y="4" width="22" height="1" fill="#dbdbdb"/>
  <rect x="118" y="4" width="4" height="1" fill="#dcdcdc"/>
  <rect x="122" y="4" width="2" height="1" fill="#dddddd"/>
  <rect x="124" y="4" width="1" height="1" fill="#e1e1e1"/>
  <rect x="125" y="4" width="1" height="1" fill="#d7d7d7"/>
  <rect x="126" y="4" width="1" height="1" fill="#cfcfcf"/>
  <rect x="127" y="4" width="1" height="1" fill="#5f5f5f"/>
  <rect x="128" y="4" width="1" height="1" fill="#0000000d"/>
  <rect x="40" y="5" width="1" height="1" fill="#00000010"/>
  <rect x="84" y="5" width="1" height="1" fill="#03030310"/>
  <rect x="88" y="5" width="1" height="1" fill="#d9d9d9"/>
  <rect x="89" y="5" width="1" height="1" fill="#e4e4e4"/>
  <rect x="90" y="5" width="1" height="1" fill="#e9e9e9"/>
  <rect x="91" y="5" width="1" height="1" fill="#e4e4e4"/>
  <rect x="92" y="5" width="4" height="1" fill="#e8e8e8"/>
  <rect x="96" y="5" width="22" height="1" fill="#e7e7e7"/>
  <rect x="118" y="5" width="4" height="1" fill="#e8e8e8"/>
  <rect x="122" y="5" width="2" height="1" fill="#e9e9e9"/>
  <rect x="124" y="5" width="1" height="2" fill="#eaeaea"/>
  <rect x="125" y="5" width="1" height="1" fill="#e5e5e5"/>
  <rect x="126" y="5" width="1" height="1" fill="#dedede"/>
  <rect x="127" y="5" width="1" height="2" fill="#686868"/>
  <rect x="128" y="5" width="1" height="1" fill="#00000010"/>
  <rect x="40" y="6" width="1" height="8" fill="#00000011"/>
  <rect x="84" y="6" width="1" height="1" fill="#02020211"/>
  <rect x="88" y="6" width="1" height="1" fill="#dddddd"/>
  <rect x="89" y="6" width="1" height="1" fill="#e9e9e9"/>
  <rect x="90" y="6" width="1" height="1" fill="#eeeeee"/>
  <rect x="91" y="6" width="1" height="1" fill="#e9e9e9"/>
  <rect x="92" y="6" width="4" height="1" fill="#ececec"/>
  <rect x="96" y="6" width="22" height="1" fill="#ebebeb"/>
  <rect x="118" y="6" width="4" height="1" fill="#ececec"/>
  <rect x="122" y="6" width="2" height="1" fill="#eeeeee"/>
  <rect x="125" y="6" width="1" height="1" fill="#efefef"/>
  <rect x="126" y="6" width="1" height="1" fill="#e8e8e8"/>
  <rect x="128" y="6" width="1" height="16" fill="#00000011"/>
  <rect x="36" y="7" width="1" height="2" fill="#f8f8f8"/>
  <rect x="37" y="7" width="1" height="2" fill="#fefefe"/>
  <rect x="38" y="7" width="1" height="2" fill="#fdfdfd"/>
  <rect x="39" y="7" width="1" height="2" fill="#9b9b9b"/>
  <rect x="84" y="7" width="1" height="1" fill="#01010111"/>
  <rect x="88" y="7" width="1" height="1" fill="#d9d9d9"/>
  <rect x="89" y="7" width="1" height="1" fill="#e4e4e4"/>
  <rect x="90" y="7" width="1" height="1" fill="#e9e9e9"/>
  <rect x="91" y="7" width="1" height="1" fill="#e3e3e3"/>
  <rect x="92" y="7" width="4" height="1" fill="#e7e7e7"/>
  <rect x="96" y="7" width="22" height="1" fill="#e5e5e5"/>
  <rect x="118" y="7" width="4" height="1" fill="#e7e7e7"/>
  <rect x="122" y="7" width="2" height="1" fill="#e8e8e8"/>
  <rect x="124" y="7" width="1" height="1" fill="#e4e4e4"/>
  <rect x="125" y="7" width="1" height="1" fill="#ececec"/>
  <rect x="126" y="7" width="1" height="1" fill="#e4e4e4"/>
  <rect x="127" y="7" width="1" height="1" fill="#626262"/>
  <rect x="16" y="8" width="20" height="5" fill="#fcfbfc"/>
  <rect x="44" y="8" width="38" height="4" fill="#ffffff"/>
  <rect x="84" y="8" width="1" height="9" fill="#00000011"/>
  <rect x="88" y="8" width="1" height="8" fill="#dbdbdb"/>
  <rect x="89" y="8" width="1" height="8" fill="#e7e7e7"/>
  <rect x="90" y="8" width="1" height="8" fill="#ebebeb"/>
  <rect x="91" y="8" width="1" height="8" fill="#e5e5e5"/>
  <rect x="92" y="8" width="4" height="4" fill="#e9e9e9"/>
  <rect x="96" y="8" width="28" height="4" fill="#e8e8e8"/>
  <rect x="124" y="8" width="2" height="1" fill="#e7e7e7"/>
  <rect x="126" y="8" width="1" height="12" fill="#e9e9e9"/>
  <rect x="127" y="8" width="1" height="1" fill="#636363"/>
  <rect x="36" y="9" width="1" height="1" fill="#f7f7f7"/>
  <rect x="37" y="9" width="1" height="1" fill="#fdfdfd"/>
  <rect x="38" y="9" width="1" height="2" fill="#fcfbfc"/>
  <rect x="39" y="9" width="1" height="2" fill="#9a9a9a"/>
  <rect x="124" y="9" width="1" height="11" fill="#eaeaea"/>
  <rect x="125" y="9" width="1" height="11" fill="#e7e7e7"/>
  <rect x="127" y="9" width="1" height="11" fill="#656565"/>
  <rect x="36" y="10" width="1" height="1" fill="#f8f8f8"/>
  <rect x="37" y="10" width="1" height="3" fill="#fefefe"/>
  <rect x="36" y="11" width="1" height="1" fill="#f9f9f9"/>
  <rect x="38" y="11" width="1" height="2" fill="#fafafa"/>
  <rect x="39" y="11" width="1" height="1" fill="#979797"/>
  <rect x="36" y="12" width="1" height="1" fill="#fafafa"/>
  <rect x="39" y="12" width="1" height="1" fill="#969696"/>
  <rect x="44" y="12" width="4" height="4" fill="#fefefe"/>
  <rect x="48" y="12" width="34" height="4" fill="#ffffff"/>
  <rect x="92" y="12" width="4" height="4" fill="#e8e8e8"/>
  <rect x="96" y="12" width="16" height="4" fill="#e7e7e7"/>
  <rect x="112" y="12" width="12" height="4" fill="#e8e8e8"/>
  <rect x="16" y="13" width="21" height="1" fill="#fcfbfc"/>
  <rect x="37" y="13" width="1" height="1" fill="#fdfdfd"/>
  <rect x="38" y="13" width="1" height="1" fill="#f9f9f9"/>
  <rect x="39" y="13" width="1" height="1" fill="#959595"/>
  <rect x="16" y="14" width="20" height="2" fill="#fcfbfc"/>
  <rect x="36" y="14" width="1" height="1" fill="#fdfdfd"/>
  <rect x="37" y="14" width="1" height="1" fill="#fefefe"/>
  <rect x="38" y="14" width="1" height="3" fill="#fafafa"/>
  <rect x="39" y="14" width="1" height="2" fill="#949494"/>
  <rect x="40" y="14" width="1" height="5" fill="#01010111"/>
  <rect x="36" y="15" width="2" height="1" fill="#fdfdfd"/>
  <rect x="0" y="16" width="37" height="4" fill="#fdfdfd"/>
  <rect x="37" y="16" width="1" height="1" fill="#fcfbfc"/>
  <rect x="39" y="16" width="1" height="2" fill="#939393"/>
  <rect x="44" y="16" width="3" height="2" fill="#fefefe"/>
  <rect x="47" y="16" width="35" height="2" fill="#ffffff"/>
  <rect x="88" y="16" width="1" height="4" fill="#dadada"/>
  <rect x="89" y="16" width="1" height="4" fill="#e5e5e5"/>
  <rect x="90" y="16" width="1" height="4" fill="#eaeaea"/>
  <rect x="91" y="16" width="1" height="4" fill="#e4e4e4"/>
  <rect x="92" y="16" width="4" height="4" fill="#e7e7e7"/>
  <rect x="96" y="16" width="28" height="4" fill="#e8e8e8"/>
  <rect x="37" y="17" width="2" height="1" fill="#fafafa"/>
  <rect x="84" y="17" width="1" height="4" fill="#01010111"/>
  <rect x="37" y="18" width="1" height="1" fill="#fafafa"/>
  <rect x="38" y="18" width="1" height="2" fill="#fcfbfc"/>
  <rect x="39" y="18" width="1" height="2" fill="#929292"/>
  <rect x="44" y="18" width="2" height="2" fill="#fefefe"/>
  <rect x="46" y="18" width="36" height="2" fill="#ffffff"/>
  <rect x="37" y="19" width="1" height="1" fill="#f9f9f9"/>
  <rect x="40" y="19" width="1" height="2" fill="#00000011"/>
  <rect x="0" y="20" width="36" height="1" fill="#f9f9f9"/>
  <rect x="36" y="20" width="1" height="1" fill="#fcfbfc"/>
  <rect x="37" y="20" width="2" height="1" fill="#fafafa"/>
  <rect x="39" y="20" width="1" height="1" fill="#8b8b8b"/>
  <rect x="44" y="20" width="36" height="2" fill="#ffffff"/>
  <rect x="80" y="20" width="1" height="1" fill="#fdfdfd"/>
  <rect x="81" y="20" width="1" height="1" fill="#ffffff"/>
  <rect x="82" y="20" width="1" height="1" fill="#fafafa"/>
  <rect x="83" y="20" width="1" height="1" fill="#6a6a6a"/>
  <rect x="88" y="20" width="1" height="1" fill="#dcdcdc"/>
  <rect x="89" y="20" width="1" height="1" fill="#e0e0e0"/>
  <rect x="90" y="20" width="1" height="1" fill="#e4e4e4"/>
  <rect x="91" y="20" width="5" height="1" fill="#e5e5e5"/>
  <rect x="96" y="20" width="28" height="1" fill="#e4e4e4"/>
  <rect x="124" y="20" width="1" height="2" fill="#e8e8e8"/>
  <rect x="125" y="20" width="2" height="1" fill="#e3e3e3"/>
  <rect x="127" y="20" width="1" height="2" fill="#646464"/>
  <rect x="0" y="21" width="36" height="1" fill="#fafafa"/>
  <rect x="36" y="21" width="1" height="1" fill="#f8f8f8"/>
  <rect x="37" y="21" width="1" height="1" fill="#fcfbfc"/>
  <rect x="38" y="21" width="1" height="1" fill="#ffffff"/>
  <rect x="39" y="21" width="1" height="1" fill="#909090"/>
  <rect x="40" y="21" width="1" height="1" fill="#01010111"/>
  <rect x="80" y="21" width="1" height="1" fill="#f8f8f8"/>
  <rect x="81" y="21" width="1" height="1" fill="#fefefe"/>
  <rect x="82" y="21" width="1" height="1" fill="#f3f3f3"/>
  <rect x="83" y="21" width="1" height="1" fill="#616161"/>
  <rect x="84" y="21" width="1" height="1" fill="#00000011"/>
  <rect x="88" y="21" width="1" height="1" fill="#e0e0e0"/>
  <rect x="89" y="21" width="1" height="1" fill="#e3e3e3"/>
  <rect x="90" y="21" width="1" height="1" fill="#e8e8e8"/>
  <rect x="91" y="21" width="1" height="1" fill="#eaeaea"/>
  <rect x="92" y="21" width="1" height="1" fill="#ebebeb"/>
  <rect x="93" y="21" width="3" height="1" fill="#eaeaea"/>
  <rect x="96" y="21" width="28" height="1" fill="#e9e9e9"/>
  <rect x="125" y="21" width="1" height="1" fill="#f1f1f1"/>
  <rect x="126" y="21" width="1" height="1" fill="#dadada"/>
  <rect x="0" y="22" width="36" height="1" fill="#fefefe"/>
  <rect x="36" y="22" width="1" height="1" fill="#fafafa"/>
  <rect x="37" y="22" width="1" height="1" fill="#ffffff"/>
  <rect x="38" y="22" width="1" height="1" fill="#d6d6d6"/>
  <rect x="39" y="22" width="1" height="1" fill="#888888e9"/>
  <rect x="40" y="22" width="1" height="1" fill="#00000010"/>
  <rect x="44" y="22" width="36" height="1" fill="#fefefe"/>
  <rect x="80" y="22" width="1" height="1" fill="#fcfbfc"/>
  <rect x="81" y="22" width="1" height="1" fill="#e4e4e4"/>
  <rect x="82" y="22" width="1" height="1" fill="#969696"/>
  <rect x="83" y="22" width="1" height="1" fill="#7a7a7a"/>
  <rect x="84" y="22" width="1" height="1" fill="#03030310"/>
  <rect x="88" y="22" width="1" height="1" fill="#dedede"/>
  <rect x="89" y="22" width="1" height="1" fill="#e2e2e2"/>
  <rect x="90" y="22" width="1" height="1" fill="#e7e7e7"/>
  <rect x="91" y="22" width="5" height="1" fill="#e8e8e8"/>
  <rect x="96" y="22" width="28" height="1" fill="#e7e7e7"/>
  <rect x="124" y="22" width="1" height="1" fill="#eaeaea"/>
  <rect x="125" y="22" width="1" height="1" fill="#d9d9d9"/>
  <rect x="126" y="22" width="1" height="1" fill="#8c8c8c"/>
  <rect x="127" y="22" width="1" height="1" fill="#797979"/>
  <rect x="128" y="22" width="1" height="1" fill="#00000010"/>
  <rect x="0" y="23" width="36" height="1" fill="#8c8c8c"/>
  <rect x="36" y="23" width="1" height="1" fill="#888888"/>
  <rect x="37" y="23" width="1" height="1" fill="#909090"/>
  <rect x="38" y="23" width="1" height="1" fill="#878787eb"/>
  <rect x="39" y="23" width="1" height="1" fill="#6666665d"/>
  <rect x="40" y="23" width="1" height="1" fill="#0000000d"/>
  <rect x="44" y="23" width="36" height="1" fill="#696969"/>
  <rect x="80" y="23" width="2" height="1" fill="#686868"/>
  <rect x="82" y="23" width="1" height="1" fill="#727272"/>
  <rect x="83" y="23" width="1" height="1" fill="#a0a0a0a8"/>
  <rect x="84" y="23" width="1" height="1" fill="#0101010d"/>
  <rect x="88" y="23" width="1" height="1" fill="#616161"/>
  <rect x="89" y="23" width="1" height="1" fill="#636363"/>
  <rect x="90" y="23" width="1" height="1" fill="#686868"/>
  <rect x="91" y="23" width="1" height="1" fill="#6a6a6a"/>
  <rect x="92" y="23" width="1" height="1" fill="#6b6b6b"/>
  <rect x="93" y="23" width="3" height="1" fill="#6a6a6a"/>
  <rect x="96" y="23" width="28" height="1" fill="#696969"/>
  <rect x="124" y="23" width="1" height="1" fill="#6b6b6b"/>
  <rect x="125" y="23" width="1" height="1" fill="#636363"/>
  <rect x="126" y="23" width="1" height="1" fill="#717171"/>
  <rect x="127" y="23" width="1" height="1" fill="#8d8d8da8"/>
  <rect x="128" y="23" width="1" height="1" fill="#0000000d"/>
  <rect x="0" y="24" width="37" height="1" fill="#00000022"/>
  <rect x="37" y="24" width="1" height="1" fill="#00000020"/>
  <rect x="38" y="24" width="1" height="1" fill="#0000001b"/>
  <rect x="39" y="24" width="1" height="1" fill="#00000012"/>
  <rect x="44" y="24" width="37" height="1" fill="#00000022"/>
  <rect x="81" y="24" width="1" height="1" fill="#00000020"/>
  <rect x="82" y="24" width="1" height="1" fill="#0000001b"/>
  <rect x="83" y="24" width="1" height="1" fill="#00000012"/>
  <rect x="88" y="24" width="37" height="1" fill="#00000022"/>
  <rect x="125" y="24" width="1" height="1" fill="#00000020"/>
  <rect x="126" y="24" width="1" height="1" fill="#0000001b"/>
  <rect x="127" y="24" width="1" height="1" fill="#00000012"/>
  <rect x="0" y="25" width="37" height="1" fill="#00000011"/>
  <rect x="37" y="25" width="1" height="1" fill="#00000010"/>
  <rect x="38" y="25" width="1" height="1" fill="#0000000d"/>
  <rect x="44" y="25" width="37" height="1" fill="#00000011"/>
  <rect x="81" y="25" width="1" height="1" fill="#00000010"/>
  <rect x="82" y="25" width="1" height="1" fill="#0000000d"/>
  <rect x="88" y="25" width="37" height="1" fill="#00000011"/>
  <rect x="125" y="25" width="1" height="1" fill="#00000010"/>
  <rect x="126" y="25" width="1" height="1" fill="#0000000d"/>
</svg>