<svg xmlns="http://www.w3.org/2000/svg" width="90" height="28" viewBox="0 0 90 28" shape-rendering="crispEdges">
  <rect x="3" y="2" width="1" height="1" fill="#9494944f"/>
  <rect x="4" y="2" width="1" height="1" fill="#9a9a9ae7"/>
  <rect x="5" y="2" width="1" height="1" fill="#a0a0a0"/>
  <rect x="6" y="2" width="1" height="1" fill="#a2a2a2"/>
  <rect x="7" y="2" width="1" height="1" fill="#a0a0a0"/>
  <rect x="8" y="2" width="16" height="1" fill="#a1a1a1"/>
  <rect x="24" y="2" width="1" height="1" fill="#9d9d9d"/>
  <rect x="25" y="2" width="1" height="1" fill="#a0a0a0e7"/>
  <rect x="26" y="2" width="1" height="1" fill="#8f8f8f4f"/>
  <rect x="33" y="2" width="1" height="1" fill="#5f5f5f4f"/>
  <rect x="34" y="2" width="1" height="1" fill="#6b6b6be7"/>
  <rect x="35" y="2" width="1" height="1" fill="#6f6f6f"/>
  <rect x="36" y="2" width="4" height="1" fill="#6c6c6c"/>
  <rect x="40" y="2" width="11" height="1" fill="#646464"/>
  <rect x="51" y="2" width="1" height="1" fill="#666666"/>
  <rect x="52" y="2" width="1" height="1" fill="#6b6b6b"/>
  <rect x="53" y="2" width="1" height="1" fill="#707070"/>
  <rect x="54" y="2" width="1" height="1" fill="#6d6d6d"/>
  <rect x="55" y="2" width="1" height="1" fill="#666666e7"/>
  <rect x="56" y="2" width="1" height="1" fill="#5656564f"/>
  <rect x="63" y="2" width="1" height="1" fill="#9d9d9d49"/>
  <rect x="64" y="2" width="1" height="1" fill="#a0a0a0e6"/>
  <rect x="65" y="2" width="5" height="1" fill="#a0a0a0"/>
  <rect x="70" y="2" width="4" height="1" fill="#a1a1a1"/>
  <rect x="74" y="2" width="6" height="1" fill="#a2a2a2"/>
  <rect x="80" y="2" width="4" height="1" fill="#a1a1a1"/>
  <rect x="84" y="2" width="1" height="1" fill="#a4a4a4"/>
  <rect x="85" y="2" width="1" height="1" fill="#a2a2a2e6"/>
  <rect x="86" y="2" width="1" height="1" fill="#a1a1a149"/>
  <rect x="3" y="3" width="1" height="1" fill="#9c9c9ce8"/>
  <rect x="4" y="3" width="1" height="1" fill="#e0e0e0"/>
  <rect x="5" y="3" width="1" height="1" fill="#f3f3f3"/>
  <rect x="6" y="3" width="2" height="1" fill="#ffffff"/>
  <rect x="8" y="3" width="17" height="1" fill="#fdfdfd"/>
  <rect x="25" y="3" width="1" height="1" fill="#e2e2e2"/>
  <rect x="26" y="3" width="1" height="1" fill="#a1a1a1e8"/>
  <rect x="33" y="3" width="1" height="1" fill="#656565e8"/>
  <rect x="34" y="3" width="1" height="1" fill="#cbcbcb"/>
  <rect x="35" y="3" width="1" height="1" fill="#f9f9f9"/>
  <rect x="36" y="3" width="4" height="1" fill="#fdfdfd"/>
  <rect x="40" y="3" width="12" height="1" fill="#fcfbfc"/>
  <rect x="52" y="3" width="1" height="1" fill="#f3f3f3"/>
  <rect x="53" y="3" width="1" height="1" fill="#ffffff"/>
  <rect x="54" y="3" width="1" height="1" fill="#f6f6f6"/>
  <rect x="55" y="3" width="1" height="1" fill="#cdcdcd"/>
  <rect x="56" y="3" width="1" height="1" fill="#656565e8"/>
  <rect x="63" y="3" width="1" height="1" fill="#a0a0a0e6"/>
  <rect x="64" y="3" width="6" height="1" fill="#c2c2c2"/>
  <rect x="70" y="3" width="4" height="1" fill="#c4c4c4"/>
  <rect x="74" y="3" width="6" height="1" fill="#c5c5c5"/>
  <rect x="80" y="3" width="5" height="1" fill="#c6c6c6"/>
  <rect x="85" y="3" width="1" height="1" fill="#b3b3b3"/>
  <rect x="86" y="3" width="1" height="1" fill="#9d9d9de6"/>
  <rect x="2" y="4" width="1" height="1" fill="#0000000d"/>
  <rect x="3" y="4" width="1" height="3" fill="#9a9a9a"/>
  <rect x="4" y="4" width="1" height="1" fill="#f2f2f2"/>
  <rect x="5" y="4" width="1" height="1" fill="#fefefe"/>
  <rect x="6" y="4" width="1" height="1" fill="#ffffff"/>
  <rect x="7" y="4" width="1" height="1" fill="#fefefe"/>
  <rect x="8" y="4" width="16" height="1" fill="#fdfdfd"/>
  <rect x="24" y="4" width="1" height="3" fill="#fefefe"/>
  <rect x="25" y="4" width="1" height="4" fill="#fafafa"/>
  <rect x="26" y="4" width="1" height="4" fill="#9b9b9b"/>
  <rect x="27" y="4" width="1" height="1" fill="#0000000d"/>
  <rect x="32" y="4" width="1" height="1" fill="#0303030d"/>
  <rect x="33" y="4" width="1" height="4" fill="#696969"/>
  <rect x="34" y="4" width="2" height="2" fill="#fafafa"/>
  <rect x="36" y="4" width="20" height="16" fill="#fcfbfc"/>
  <rect x="56" y="4" width="1" height="2" fill="#6b6b6b"/>
  <rect x="57" y="4" width="1" height="1" fill="#0000000d"/>
  <rect x="63" y="4" width="1" height="9" fill="#9e9e9e"/>
  <rect x="64" y="4" width="2" height="1" fill="#dcdcdc"/>
  <rect x="66" y="4" width="4" height="1" fill="#dddddd"/>
  <rect x="70" y="4" width="10" height="1" fill="#dedede"/>
  <rect x="80" y="4" width="4" height="1" fill="#e0e0e0"/>
  <rect x="84" y="4" width="1" height="1" fill="#e1e1e1"/>
  <rect x="85" y="4" width="1" height="1" fill="#dbdbdb"/>
  <rect x="86" y="4" width="1" height="1" fill="#999999"/>
  <rect x="2" y="5" width="1" height="1" fill="#00000010"/>
  <rect x="4" y="5" width="1" height="1" fill="#fefefe"/>
  <rect x="5" y="5" width="1" height="1" fill="#ffffff"/>
  <rect x="6" y="5" width="1" height="1" fill="#fefefe"/>
  <rect x="7" y="5" width="17" height="1" fill="#fdfdfd"/>
  <rect x="27" y="5" width="1" height="1" fill="#00000010"/>
  <rect x="32" y="5" width="1" height="1" fill="#03030310"/>
  <rect x="57" y="5" width="1" height="1" fill="#00000010"/>
  <rect x="64" y="5" width="2" height="1" fill="#e4e4e4"/>
  <rect x="66" y="5" width="4" height="1" fill="#e5e5e5"/>
  <rect x="70" y="5" width="10" height="1" fill="#e7e7e7"/>
  <rect x="80" y="5" width="4" height="1" fill="#e8e8e8"/>
  <rect x="84" y="5" width="1" height="1" fill="#e9e9e9"/>
  <rect x="85" y="5" width="1" height="1" fill="#e3e3e3"/>
  <rect x="86" y="5" width="1" height="1" fill="#a1a1a1"/>
  <rect x="2" y="6" width="1" height="14" fill="#00000011"/>
  <rect x="4" y="6" width="1" height="1" fill="#ffffff"/>
  <rect x="5" y="6" width="1" height="1" fill="#fefefe"/>
  <rect x="6" y="6" width="18" height="1" fill="#fdfdfd"/>
  <rect x="27" y="6" width="1" height="14" fill="#00000011"/>
  <rect x="32" y="6" width="1" height="2" fill="#03030311"/>
  <rect x="34" y="6" width="1" height="4" fill="#fcfbfc"/>
  <rect x="35" y="6" width="1" height="2" fill="#fafafa"/>
  <rect x="56" y="6" width="1" height="1" fill="#6a6a6a"/>
  <rect x="57" y="6" width="1" height="16" fill="#00000011"/>
  <rect x="64" y="6" width="2" height="1" fill="#e8e8e8"/>
  <rect x="66" y="6" width="4" height="1" fill="#e9e9e9"/>
  <rect x="70" y="6" width="10" height="1" fill="#eaeaea"/>
  <rect x="80" y="6" width="4" height="1" fill="#ebebeb"/>
  <rect x="84" y="6" width="1" height="1" fill="#ececec"/>
  <rect x="85" y="6" width="1" height="1" fill="#e7e7e7"/>
  <rect x="86" y="6" width="1" height="1" fill="#a4a4a4"/>
  <rect x="3" y="7" width="1" height="2" fill="#999999"/>
  <rect x="4" y="7" width="1" height="1" fill="#fefefe"/>
  <rect x="5" y="7" width="1" height="1" fill="#fdfdfd"/>
  <rect x="6" y="7" width="2" height="1" fill="#fcfbfc"/>
  <rect x="8" y="7" width="17" height="1" fill="#fdfdfd"/>
  <rect x="56" y="7" width="1" height="1" fill="#696969"/>
  <rect x="64" y="7" width="2" height="1" fill="#e4e4e4"/>
  <rect x="66" y="7" width="4" height="1" fill="#e5e5e5"/>
  <rect x="70" y="7" width="10" height="1" fill="#e7e7e7"/>
  <rect x="80" y="7" width="4" height="1" fill="#e8e8e8"/>
  <rect x="84" y="7" width="1" height="1" fill="#e9e9e9"/>
  <rect x="85" y="7" width="1" height="1" fill="#e3e3e3"/>
  <rect x="86" y="7" width="1" height="9" fill="#a1a1a1"/>
  <rect x="4" y="8" width="1" height="5" fill="#fcfbfc"/>
  <rect x="5" y="8" width="1" height="1" fill="#fafafa"/>
  <rect x="6" y="8" width="6" height="1" fill="#fcfbfc"/>
  <rect x="12" y="8" width="13" height="1" fill="#fdfdfd"/>
  <rect x="25" y="8" width="1" height="8" fill="#ffffff"/>
  <rect x="26" y="8" width="1" height="8" fill="#969696"/>
  <rect x="32" y="8" width="1" height="14" fill="#00000011"/>
  <rect x="33" y="8" width="1" height="12" fill="#686868"/>
  <rect x="35" y="8" width="1" height="13" fill="#ffffff"/>
  <rect x="56" y="8" width="1" height="1" fill="#686868"/>
  <rect x="64" y="8" width="2" height="4" fill="#e7e7e7"/>
  <rect x="66" y="8" width="4" height="4" fill="#e8e8e8"/>
  <rect x="70" y="8" width="2" height="4" fill="#e9e9e9"/>
  <rect x="72" y="8" width="12" height="4" fill="#e8e8e8"/>
  <rect x="84" y="8" width="1" height="5" fill="#ebebeb"/>
  <rect x="85" y="8" width="1" height="8" fill="#e8e8e8"/>
  <rect x="3" y="9" width="1" height="2" fill="#979797"/>
  <rect x="5" y="9" width="3" height="3" fill="#fafafa"/>
  <rect x="8" y="9" width="4" height="3" fill="#fcfbfc"/>
  <rect x="12" y="9" width="12" height="11" fill="#fdfdfd"/>
  <rect x="24" y="9" width="1" height="11" fill="#fcfbfc"/>
  <rect x="56" y="9" width="1" height="1" fill="#666666"/>
  <rect x="34" y="10" width="1" height="10" fill="#fdfdfd"/>
  <rect x="56" y="10" width="1" height="10" fill="#656565"/>
  <rect x="3" y="11" width="1" height="1" fill="#959595"/>
  <rect x="3" y="12" width="1" height="1" fill="#949494"/>
  <rect x="5" y="12" width="2" height="1" fill="#fafafa"/>
  <rect x="7" y="12" width="5" height="2" fill="#fcfbfc"/>
  <rect x="64" y="12" width="4" height="2" fill="#e7e7e7"/>
  <rect x="68" y="12" width="16" height="2" fill="#e8e8e8"/>
  <rect x="3" y="13" width="1" height="3" fill="#939393"/>
  <rect x="4" y="13" width="3" height="1" fill="#fafafa"/>
  <rect x="63" y="13" width="1" height="2" fill="#a0a0a0"/>
  <rect x="84" y="13" width="1" height="2" fill="#eaeaea"/>
  <rect x="4" y="14" width="2" height="2" fill="#fafafa"/>
  <rect x="6" y="14" width="6" height="2" fill="#fcfbfc"/>
  <rect x="64" y="14" width="20" height="2" fill="#e8e8e8"/>
  <rect x="63" y="15" width="1" height="2" fill="#a1a1a1"/>
  <rect x="84" y="15" width="1" height="1" fill="#e9e9e9"/>
  <rect x="3" y="16" width="1" height="4" fill="#929292"/>
  <rect x="4" y="16" width="1" height="2" fill="#fafafa"/>
  <rect x="5" y="16" width="7" height="2" fill="#fcfbfc"/>
  <rect x="25" y="16" width="1" height="4" fill="#f9f9f9"/>
  <rect x="26" y="16" width="1" height="4" fill="#909090"/>
  <rect x="64" y="16" width="4" height="2" fill="#e8e8e8"/>
  <rect x="68" y="16" width="18" height="1" fill="#e9e9e9"/>
  <rect x="86" y="16" width="1" height="4" fill="#a2a2a2"/>
  <rect x="63" y="17" width="1" height="3" fill="#a2a2a2"/>
  <rect x="68" y="17" width="16" height="1" fill="#e9e9e9"/>
  <rect x="84" y="17" width="1" height="2" fill="#e8e8e8"/>
  <rect x="85" y="17" width="1" height="3" fill="#e9e9e9"/>
  <rect x="4" y="18" width="8" height="2" fill="#fcfbfc"/>
  <rect x="64" y="18" width="20" height="2" fill="#e9e9e9"/>
  <rect x="84" y="19" width="1" height="1" fill="#e7e7e7"/>
  <rect x="2" y="20" width="1" height="1" fill="#03030311"/>
  <rect x="3" y="20" width="1" height="1" fill="#909090"/>
  <rect x="4" y="20" width="1" height="1" fill="#fefefe"/>
  <rect x="5" y="20" width="1" height="1" fill="#ffffff"/>
  <rect x="6" y="20" width="1" height="1" fill="#fefefe"/>
  <rect x="7" y="20" width="1" height="1" fill="#f9f9f9"/>
  <rect x="8" y="20" width="4" height="2" fill="#fafafa"/>
  <rect x="12" y="20" width="12" height="2" fill="#fcfbfc"/>
  <rect x="24" y="20" width="1" height="1" fill="#f9f9f9"/>
  <rect x="25" y="20" width="1" height="1" fill="#fafafa"/>
  <rect x="26" y="20" width="1" height="2" fill="#8c8c8c"/>
  <rect x="27" y="20" width="1" height="1" fill="#03030311"/>
  <rect x="33" y="20" width="1" height="1" fill="#666666"/>
  <rect x="34" y="20" width="1" height="1" fill="#fcfbfc"/>
  <rect x="36" y="20" width="16" height="1" fill="#f9f9f9"/>
  <rect x="52" y="20" width="1" height="1" fill="#f6f6f6"/>
  <rect x="53" y="20" width="1" height="1" fill="#f9f9f9"/>
  <rect x="54" y="20" width="1" height="1" fill="#ffffff"/>
  <rect x="55" y="20" width="1" height="1" fill="#fcfbfc"/>
  <rect x="56" y="20" width="1" height="1" fill="#707070"/>
  <rect x="63" y="20" width="1" height="2" fill="#a1a1a1"/>
  <rect x="64" y="20" width="1" height="1" fill="#e4e4e4"/>
  <rect x="65" y="20" width="1" height="1" fill="#e9e9e9"/>
  <rect x="66" y="20" width="1" height="1" fill="#ebebeb"/>
  <rect x="67" y="20" width="17" height="1" fill="#e9e9e9"/>
  <rect x="84" y="20" width="1" height="1" fill="#eaeaea"/>
  <rect x="85" y="20" width="1" height="1" fill="#e8e8e8"/>
  <rect x="86" y="20" width="1" height="1" fill="#9d9d9d"/>
  <rect x="2" y="21" width="1" height="1" fill="#05050511"/>
  <rect x="3" y="21" width="1" height="1" fill="#8f8f8f"/>
  <rect x="4" y="21" width="1" height="1" fill="#fdfdfd"/>
  <rect x="5" y="21" width="2" height="1" fill="#ffffff"/>
  <rect x="7" y="21" width="1" height="1" fill="#fefefe"/>
  <rect x="24" y="21" width="1" height="1" fill="#f8f8f8"/>
  <rect x="25" y="21" width="1" height="1" fill="#f9f9f9"/>
  <rect x="27" y="21" width="1" height="1" fill="#00000011"/>
  <rect x="33" y="21" width="1" height="1" fill="#6c6c6c"/>
  <rect x="34" y="21" width="2" height="1" fill="#ffffff"/>
  <rect x="36" y="21" width="16" height="1" fill="#fdfdfd"/>
  <rect x="52" y="21" width="1" height="1" fill="#f9f9f9"/>
  <rect x="53" y="21" width="1" height="1" fill="#ffffff"/>
  <rect x="54" y="21" width="1" height="1" fill="#fafafa"/>
  <rect x="55" y="21" width="1" height="1" fill="#fefefe"/>
  <rect x="56" y="21" width="1" height="1" fill="#696969"/>
  <rect x="64" y="21" width="1" height="1" fill="#eaeaea"/>
  <rect x="65" y="21" width="1" height="2" fill="#e3e3e3"/>
  <rect x="66" y="21" width="1" height="1" fill="#e5e5e5"/>
  <rect x="67" y="21" width="1" height="1" fill="#efefef"/>
  <rect x="68" y="21" width="16" height="1" fill="#e9e9e9"/>
  <rect x="84" y="21" width="1" height="1" fill="#e8e8e8"/>
  <rect x="85" y="21" width="1" height="1" fill="#e5e5e5"/>
  <rect x="86" y="21" width="1" height="1" fill="#a2a2a2"/>
  <rect x="2" y="22" width="1" height="1" fill="#03030310"/>
  <rect x="3" y="22" width="1" height="1" fill="#868686e9"/>
  <rect x="4" y="22" width="1" height="1" fill="#dcdcdc"/>
  <rect x="5" y="22" width="1" height="1" fill="#f8f8f8"/>
  <rect x="6" y="22" width="1" height="1" fill="#ffffff"/>
  <rect x="7" y="22" width="1" height="1" fill="#f9f9f9"/>
  <rect x="8" y="22" width="4" height="1" fill="#fdfdfd"/>
  <rect x="12" y="22" width="12" height="1" fill="#fefefe"/>
  <rect x="24" y="22" width="1" height="1" fill="#fafafa"/>
  <rect x="25" y="22" width="1" height="1" fill="#d6d6d6"/>
  <rect x="26" y="22" width="1" height="1" fill="#888888ea"/>
  <rect x="27" y="22" width="1" height="1" fill="#06060610"/>
  <rect x="32" y="22" width="1" height="1" fill="#00000010"/>
  <rect x="33" y="22" width="1" height="1" fill="#636363e9"/>
  <rect x="34" y="22" width="1" height="1" fill="#d3d3d3"/>
  <rect x="35" y="22" width="1" height="1" fill="#f5f5f5"/>
  <rect x="36" y="22" width="17" height="1" fill="#f9f9f9"/>
  <rect x="53" y="22" width="1" height="1" fill="#fefefe"/>
  <rect x="54" y="22" width="1" height="1" fill="#fcfbfc"/>
  <rect x="55" y="22" width="1" height="1" fill="#d3d3d3"/>
  <rect x="56" y="22" width="1" height="1" fill="#616161ea"/>
  <rect x="57" y="22" width="1" height="1" fill="#01010110"/>
  <rect x="63" y="22" width="1" height="1" fill="#a2a2a2e6"/>
  <rect x="64" y="22" width="1" height="1" fill="#d4d4d4"/>
  <rect x="66" y="22" width="2" height="1" fill="#eeeeee"/>
  <rect x="68" y="22" width="16" height="1" fill="#e8e8e8"/>
  <rect x="84" y="22" width="1" height="1" fill="#e9e9e9"/>
  <rect x="85" y="22" width="1" height="1" fill="#cfcfcf"/>
  <rect x="86" y="22" width="1" height="1" fill="#a2a2a2e7"/>
  <rect x="2" y="23" width="1" height="1" fill="#0000000d"/>
  <rect x="3" y="23" width="1" height="1" fill="#7777775d"/>
  <rect x="4" y="23" width="1" height="1" fill="#898989eb"/>
  <rect x="5" y="23" width="1" height="1" fill="#888888"/>
  <rect x="6" y="23" width="1" height="1" fill="#8b8b8b"/>
  <rect x="7" y="23" width="1" height="1" fill="#8f8f8f"/>
  <rect x="8" y="23" width="4" height="1" fill="#8e8e8e"/>
  <rect x="12" y="23" width="12" height="1" fill="#8f8f8f"/>
  <rect x="24" y="23" width="1" height="1" fill="#8d8d8d"/>
  <rect x="25" y="23" width="1" height="1" fill="#8c8c8ce8"/>
  <rect x="26" y="23" width="1" height="1" fill="#6969695d"/>
  <rect x="27" y="23" width="1" height="1" fill="#0101010d"/>
  <rect x="32" y="23" width="1" height="1" fill="#0000000d"/>
  <rect x="33" y="23" width="1" height="1" fill="#5251525d"/>
  <rect x="34" y="23" width="1" height="1" fill="#626262eb"/>
  <rect x="35" y="23" width="1" height="1" fill="#696969"/>
  <rect x="36" y="23" width="16" height="1" fill="#656565"/>
  <rect x="52" y="23" width="1" height="1" fill="#6f6f6f"/>
  <rect x="53" y="23" width="1" height="1" fill="#6c6c6c"/>
  <rect x="54" y="23" width="1" height="1" fill="#656565"/>
  <rect x="55" y="23" width="1" height="1" fill="#6a6a6ae8"/>
  <rect x="56" y="23" width="1" height="1" fill="#5b5b5b5d"/>
  <rect x="57" y="23" width="1" height="1" fill="#0202020d"/>
  <rect x="63" y="23" width="1" height="1" fill="#a3a3a34a"/>
  <rect x="64" y="23" width="1" height="1" fill="#a2a2a2e7"/>
  <rect x="65" y="23" width="1" height="1" fill="#9d9d9d"/>
  <rect x="66" y="23" width="1" height="1" fill="#9c9c9c"/>
  <rect x="67" y="23" width="18" height="1" fill="#9e9e9e"/>
  <rect x="85" y="23" width="1" height="1" fill="#9e9e9ee4"/>
  <rect x="86" y="23" width="1" height="1" fill="#a0a0a04a"/>
  <rect x="3" y="24" width="1" height="1" fill="#01010112"/>
  <rect x="4" y="24" width="1" height="1" fill="#0101011b"/>
  <rect x="5" y="24" width="1" height="1" fill="#01010120"/>
  <rect x="6" y="24" width="2" height="1" fill="#01010122"/>
  <rect x="8" y="24" width="4" height="1" fill="#00000022"/>
  <rect x="12" y="24" width="12" height="1" fill="#01010122"/>
  <rect x="24" y="24" width="1" height="1" fill="#01010120"/>
  <rect x="25" y="24" width="1" height="1" fill="#0101011b"/>
  <rect x="26" y="24" width="1" height="1" fill="#01010112"/>
  <rect x="33" y="24" width="1" height="1" fill="#01010112"/>
  <rect x="34" y="24" width="1" height="1" fill="#0101011b"/>
  <rect x="35" y="24" width="1" height="1" fill="#01010120"/>
  <rect x="36" y="24" width="18" height="1" fill="#01010122"/>
  <rect x="54" y="24" width="1" height="1" fill="#01010120"/>
  <rect x="55" y="24" width="1" height="1" fill="#0101011b"/>
  <rect x="56" y="24" width="1" height="1" fill="#01010112"/>
  <rect x="4" y="25" width="1" height="1" fill="#0101010d"/>
  <rect x="5" y="25" width="1" height="1" fill="#01010110"/>
  <rect x="6" y="25" width="2" height="1" fill="#01010111"/>
  <rect x="8" y="25" width="4" height="1" fill="#00000011"/>
  <rect x="12" y="25" width="12" height="1" fill="#01010111"/>
  <rect x="24" y="25" width="1" height="1" fill="#01010110"/>
  <rect x="25" y="25" width="1" height="1" fill="#0101010d"/>
  <rect x="34" y="25" width="1" height="1" fill="#0101010d"/>
  <rect x="35" y="25" width="1" height="1" fill="#01010110"/>
  <rect x="36" y="25" width="18" height="1" fill="#01010111"/>
  <rect x="54" y="25" width="1" height="1" fill="#01010110"/>
  <rect x="55" y="25" width="1" height="1" fill="#0101010d"/>
</svg>