<svg xmlns="http://www.w3.org/2000/svg" width="16" height="16" viewBox="0 0 16 16" shape-rendering="crispEdges">
  <rect x="12" y="2" width="1" height="1" fill="#42a1339f"/>
  <rect x="13" y="2" width="1" height="1" fill="#42a133cf"/>
  <rect x="14" y="2" width="1" height="1" fill="#4b9a3f0f"/>
  <rect x="11" y="3" width="1" height="1" fill="#38a8279f"/>
  <rect x="12" y="3" width="2" height="1" fill="#30ae1d"/>
  <rect x="14" y="3" width="1" height="1" fill="#3aa729cf"/>
  <rect x="15" y="3" width="1" height="1" fill="#3ea32f0f"/>
  <rect x="10" y="4" width="1" height="1" fill="#40a2319f"/>
  <rect x="11" y="4" width="1" height="2" fill="#38a827"/>
  <rect x="12" y="4" width="2" height="1" fill="#35ab23"/>
  <rect x="14" y="4" width="1" height="2" fill="#3aa729"/>
  <rect x="15" y="4" width="1" height="1" fill="#3da52dcf"/>
  <rect x="9" y="5" width="1" height="1" fill="#40a2319f"/>
  <rect x="10" y="5" width="1" height="1" fill="#3ba62b"/>
  <rect x="12" y="5" width="2" height="1" fill="#36a925"/>
  <rect x="15" y="5" width="1" height="1" fill="#3aa7299f"/>
  <rect x="1" y="6" width="1" height="1" fill="#459e370f"/>
  <rect x="2" y="6" width="1" height="1" fill="#459e37cf"/>
  <rect x="3" y="6" width="1" height="1" fill="#459e379f"/>
  <rect x="8" y="6" width="1" height="1" fill="#42a1339f"/>
  <rect x="9" y="6" width="1" height="1" fill="#3da52d"/>
  <rect x="10" y="6" width="1" height="1" fill="#38a827"/>
  <rect x="11" y="6" width="1" height="1" fill="#35ab23"/>
  <rect x="12" y="6" width="1" height="1" fill="#33ac21"/>
  <rect x="13" y="6" width="1" height="1" fill="#35ab23"/>
  <rect x="14" y="6" width="1" height="1" fill="#36a9259f"/>
  <rect x="0" y="7" width="1" height="1" fill="#36aa210f"/>
  <rect x="1" y="7" width="1" height="1" fill="#36aa21cf"/>
  <rect x="2" y="7" width="2" height="1" fill="#36aa21"/>
  <rect x="4" y="7" width="1" height="1" fill="#35ab1f9f"/>
  <rect x="7" y="7" width="1" height="1" fill="#3aa7279f"/>
  <rect x="8" y="7" width="1" height="2" fill="#3da52b"/>
  <rect x="9" y="7" width="1" height="1" fill="#3ba62b"/>
  <rect x="10" y="7" width="1" height="1" fill="#36a927"/>
  <rect x="11" y="7" width="1" height="1" fill="#35aa25"/>
  <rect x="12" y="7" width="1" height="1" fill="#35ab23"/>
  <rect x="13" y="7" width="1" height="1" fill="#3aa7279f"/>
  <rect x="0" y="8" width="1" height="1" fill="#38a923cf"/>
  <rect x="1" y="8" width="1" height="1" fill="#38a923"/>
  <rect x="2" y="8" width="1" height="1" fill="#3aa823"/>
  <rect x="3" y="8" width="1" height="1" fill="#38a923"/>
  <rect x="4" y="8" width="1" height="2" fill="#36aa21"/>
  <rect x="5" y="8" width="1" height="1" fill="#38a9239f"/>
  <rect x="6" y="8" width="1" height="1" fill="#3ea42b9f"/>
  <rect x="7" y="8" width="1" height="2" fill="#40a32d"/>
  <rect x="9" y="8" width="1" height="2" fill="#3aa729"/>
  <rect x="10" y="8" width="1" height="1" fill="#36a82b"/>
  <rect x="11" y="8" width="1" height="1" fill="#36a929"/>
  <rect x="12" y="8" width="1" height="1" fill="#3ba6279f"/>
  <rect x="0" y="9" width="1" height="1" fill="#3ba6279f"/>
  <rect x="1" y="9" width="2" height="1" fill="#3ba725"/>
  <rect x="3" y="9" width="1" height="1" fill="#3aa823"/>
  <rect x="5" y="9" width="1" height="1" fill="#38a923"/>
  <rect x="6" y="9" width="1" height="1" fill="#3ea42b"/>
  <rect x="8" y="9" width="1" height="1" fill="#3ba629"/>
  <rect x="10" y="9" width="1" height="1" fill="#38a72b"/>
  <rect x="11" y="9" width="1" height="1" fill="#3da4319f"/>
  <rect x="1" y="10" width="1" height="1" fill="#3ea42b9f"/>
  <rect x="2" y="10" width="1" height="1" fill="#3ba627"/>
  <rect x="3" y="10" width="1" height="1" fill="#38a923"/>
  <rect x="4" y="10" width="1" height="1" fill="#33ad1d"/>
  <rect x="5" y="10" width="1" height="1" fill="#35ac1d"/>
  <rect x="6" y="10" width="1" height="1" fill="#3aa823"/>
  <rect x="7" y="10" width="1" height="1" fill="#3aa825"/>
  <rect x="8" y="10" width="2" height="1" fill="#38a827"/>
  <rect x="10" y="10" width="1" height="1" fill="#3ba6299f"/>
  <rect x="2" y="11" width="1" height="1" fill="#3da5299f"/>
  <rect x="3" y="11" width="1" height="1" fill="#35ab1f"/>
  <rect x="4" y="11" width="2" height="1" fill="#33ad1d"/>
  <rect x="6" y="11" width="1" height="1" fill="#36aa21"/>
  <rect x="7" y="11" width="1" height="1" fill="#38a925"/>
  <rect x="8" y="11" width="1" height="1" fill="#38a829"/>
  <rect x="9" y="11" width="1" height="1" fill="#3da42f9f"/>
  <rect x="3" y="12" width="1" height="1" fill="#32ae1b9f"/>
  <rect x="4" y="12" width="1" height="1" fill="#35ab1f"/>
  <rect x="5" y="12" width="2" height="1" fill="#38a923"/>
  <rect x="7" y="12" width="1" height="1" fill="#3ba627"/>
  <rect x="8" y="12" width="1" height="1" fill="#3da42f9f"/>
  <rect x="4" y="13" width="1" height="1" fill="#3da5299f"/>
  <rect x="5" y="13" width="1" height="1" fill="#3ba627"/>
  <rect x="6" y="13" width="1" height="1" fill="#3aa825"/>
  <rect x="7" y="13" width="1" height="1" fill="#3ea42d9f"/>
  <rect x="5" y="14" width="1" height="1" fill="#3ea42b9f"/>
  <rect x="6" y="14" width="1" height="1" fill="#3ba6279f"/>
</svg>