<svg xmlns="http://www.w3.org/2000/svg" width="16" height="16" viewBox="0 0 16 16" shape-rendering="crispEdges">
  <rect x="2" y="1" width="1" height="1" fill="#cc4b450f"/>
  <rect x="3" y="1" width="1" height="1" fill="#da4445cf"/>
  <rect x="4" y="1" width="1" height="1" fill="#d546499f"/>
  <rect x="11" y="1" width="1" height="1" fill="#d546499f"/>
  <rect x="12" y="1" width="1" height="1" fill="#da4445cf"/>
  <rect x="13" y="1" width="1" height="1" fill="#ce4a450f"/>
  <rect x="1" y="2" width="1" height="1" fill="#cc4b450f"/>
  <rect x="2" y="2" width="1" height="1" fill="#d44745cf"/>
  <rect x="3" y="2" width="1" height="1" fill="#d74645"/>
  <rect x="4" y="2" width="1" height="1" fill="#d94449"/>
  <rect x="5" y="2" width="1" height="1" fill="#d4464d9f"/>
  <rect x="10" y="2" width="1" height="1" fill="#d5454d9f"/>
  <rect x="11" y="2" width="1" height="1" fill="#d94449"/>
  <rect x="12" y="2" width="1" height="1" fill="#d74645"/>
  <rect x="13" y="2" width="1" height="1" fill="#d44745cf"/>
  <rect x="14" y="2" width="1" height="1" fill="#ce4a450f"/>
  <rect x="1" y="3" width="1" height="1" fill="#da4445cf"/>
  <rect x="2" y="3" width="1" height="1" fill="#d74645"/>
  <rect x="3" y="3" width="1" height="1" fill="#d74547"/>
  <rect x="4" y="3" width="1" height="1" fill="#d94447"/>
  <rect x="5" y="3" width="1" height="1" fill="#da4349"/>
  <rect x="6" y="3" width="1" height="1" fill="#dc42499f"/>
  <rect x="9" y="3" width="1" height="1" fill="#dc42499f"/>
  <rect x="10" y="3" width="1" height="1" fill="#dc4249"/>
  <rect x="11" y="3" width="1" height="1" fill="#da4447"/>
  <rect x="12" y="3" width="1" height="1" fill="#d74547"/>
  <rect x="13" y="3" width="1" height="1" fill="#d74645"/>
  <rect x="14" y="3" width="1" height="1" fill="#da4445cf"/>
  <rect x="1" y="4" width="1" height="1" fill="#d546499f"/>
  <rect x="2" y="4" width="1" height="1" fill="#d94449"/>
  <rect x="3" y="4" width="1" height="1" fill="#d94447"/>
  <rect x="4" y="4" width="1" height="1" fill="#d74547"/>
  <rect x="5" y="4" width="1" height="1" fill="#d54645"/>
  <rect x="6" y="4" width="1" height="1" fill="#d44745"/>
  <rect x="7" y="4" width="2" height="1" fill="#d448439f"/>
  <rect x="9" y="4" width="1" height="1" fill="#d44745"/>
  <rect x="10" y="4" width="1" height="1" fill="#d54645"/>
  <rect x="11" y="4" width="1" height="1" fill="#d74547"/>
  <rect x="12" y="4" width="1" height="1" fill="#da4447"/>
  <rect x="13" y="4" width="1" height="1" fill="#d94449"/>
  <rect x="14" y="4" width="1" height="1" fill="#d546499f"/>
  <rect x="2" y="5" width="1" height="1" fill="#d4464d9f"/>
  <rect x="3" y="5" width="1" height="1" fill="#da4349"/>
  <rect x="4" y="5" width="1" height="1" fill="#d54645"/>
  <rect x="5" y="5" width="2" height="1" fill="#d24845"/>
  <rect x="7" y="5" width="2" height="1" fill="#d24847"/>
  <rect x="9" y="5" width="2" height="1" fill="#d24845"/>
  <rect x="11" y="5" width="1" height="1" fill="#d54645"/>
  <rect x="12" y="5" width="1" height="1" fill="#dc4249"/>
  <rect x="13" y="5" width="1" height="1" fill="#d5454d9f"/>
  <rect x="3" y="6" width="1" height="1" fill="#dc42499f"/>
  <rect x="4" y="6" width="1" height="1" fill="#d44745"/>
  <rect x="5" y="6" width="1" height="1" fill="#d24845"/>
  <rect x="6" y="6" width="1" height="1" fill="#d5454d"/>
  <rect x="7" y="6" width="2" height="1" fill="#d74351"/>
  <rect x="9" y="6" width="1" height="1" fill="#d5454d"/>
  <rect x="10" y="6" width="1" height="1" fill="#d24845"/>
  <rect x="11" y="6" width="1" height="1" fill="#d44745"/>
  <rect x="12" y="6" width="1" height="1" fill="#dc42499f"/>
  <rect x="4" y="7" width="1" height="2" fill="#d448439f"/>
  <rect x="5" y="7" width="1" height="2" fill="#d24847"/>
  <rect x="6" y="7" width="1" height="2" fill="#d74351"/>
  <rect x="7" y="7" width="2" height="2" fill="#d94157"/>
  <rect x="9" y="7" width="1" height="2" fill="#d74351"/>
  <rect x="10" y="7" width="1" height="2" fill="#d24847"/>
  <rect x="11" y="7" width="1" height="2" fill="#d448439f"/>
  <rect x="3" y="9" width="1" height="1" fill="#dc42499f"/>
  <rect x="4" y="9" width="1" height="1" fill="#d44745"/>
  <rect x="5" y="9" width="1" height="1" fill="#d24845"/>
  <rect x="6" y="9" width="1" height="1" fill="#d5454d"/>
  <rect x="7" y="9" width="2" height="1" fill="#d74351"/>
  <rect x="9" y="9" width="1" height="1" fill="#d5454d"/>
  <rect x="10" y="9" width="1" height="1" fill="#d24845"/>
  <rect x="11" y="9" width="1" height="1" fill="#d44745"/>
  <rect x="12" y="9" width="1" height="1" fill="#dc42499f"/>
  <rect x="2" y="10" width="1" height="1" fill="#d5454d9f"/>
  <rect x="3" y="10" width="1" height="1" fill="#dc4249"/>
  <rect x="4" y="10" width="1" height="1" fill="#d54645"/>
  <rect x="5" y="10" width="2" height="1" fill="#d24845"/>
  <rect x="7" y="10" width="2" height="1" fill="#d24847"/>
  <rect x="9" y="10" width="2" height="1" fill="#d24845"/>
  <rect x="11" y="10" width="1" height="1" fill="#d54645"/>
  <rect x="12" y="10" width="1" height="1" fill="#da4349"/>
  <rect x="13" y="10" width="1" height="1" fill="#d4464d9f"/>
  <rect x="1" y="11" width="1" height="1" fill="#d546499f"/>
  <rect x="2" y="11" width="1" height="1" fill="#d94449"/>
  <rect x="3" y="11" width="1" height="1" fill="#da4447"/>
  <rect x="4" y="11" width="1" height="1" fill="#d74547"/>
  <rect x="5" y="11" width="1" height="1" fill="#d54645"/>
  <rect x="6" y="11" width="1" height="1" fill="#d44745"/>
  <rect x="7" y="11" width="2" height="1" fill="#d448439f"/>
  <rect x="9" y="11" width="1" height="1" fill="#d44745"/>
  <rect x="10" y="11" width="1" height="1" fill="#d54645"/>
  <rect x="11" y="11" width="1" height="1" fill="#d74547"/>
  <rect x="12" y="11" width="1" height="1" fill="#d94447"/>
  <rect x="13" y="11" width="1" height="1" fill="#d94449"/>
  <rect x="14" y="11" width="1" height="1" fill="#d546499f"/>
  <rect x="1" y="12" width="1" height="1" fill="#da4445cf"/>
  <rect x="2" y="12" width="1" height="1" fill="#d74645"/>
  <rect x="3" y="12" width="1" height="1" fill="#d74547"/>
  <rect x="4" y="12" width="1" height="1" fill="#da4447"/>
  <rect x="5" y="12" width="1" height="1" fill="#dc4249"/>
  <rect x="6" y="12" width="1" height="1" fill="#dc42499f"/>
  <rect x="9" y="12" width="1" height="1" fill="#dc42499f"/>
  <rect x="10" y="12" width="1" height="1" fill="#da4349"/>
  <rect x="11" y="12" width="1" height="1" fill="#d94447"/>
  <rect x="12" y="12" width="1" height="1" fill="#d74547"/>
  <rect x="13" y="12" width="1" height="1" fill="#d74645"/>
  <rect x="14" y="12" width="1" height="1" fill="#da4445cf"/>
  <rect x="1" y="13" width="1" height="1" fill="#ce4a450f"/>
  <rect x="2" y="13" width="1" height="1" fill="#d44745cf"/>
  <rect x="3" y="13" width="1" height="1" fill="#d74645"/>
  <rect x="4" y="13" width="1" height="1" fill="#d94449"/>
  <rect x="5" y="13" width="1" height="1" fill="#d5454d9f"/>
  <rect x="10" y="13" width="1" height="1" fill="#d4464d9f"/>
  <rect x="11" y="13" width="1" height="1" fill="#d94449"/>
  <rect x="12" y="13" width="1" height="1" fill="#d74645"/>
  <rect x="13" y="13" width="1" height="1" fill="#d44745cf"/>
  <rect x="14" y="13" width="1" height="1" fill="#ce4a450f"/>
  <rect x="2" y="14" width="1" height="1" fill="#ce4a450f"/>
  <rect x="3" y="14" width="1" height="1" fill="#da4445cf"/>
  <rect x="4" y="14" width="1" height="1" fill="#d546499f"/>
  <rect x="11" y="14" width="1" height="1" fill="#d546499f"/>
  <rect x="12" y="14" width="1" height="1" fill="#da4445cf"/>
  <rect x="13" y="14" width="1" height="1" fill="#ce4a450f"/>
</svg>