<svg xmlns="http://www.w3.org/2000/svg" width="32" height="42" viewBox="0 0 32 42" shape-rendering="crispEdges">
  <rect x="12" y="1" width="1" height="1" fill="#448ebe30"/>
  <rect x="13" y="1" width="1" height="1" fill="#3e90c693"/>
  <rect x="14" y="1" width="1" height="1" fill="#3893cadb"/>
  <rect x="15" y="1" width="1" height="1" fill="#3394d0"/>
  <rect x="16" y="1" width="1" height="1" fill="#3194d4"/>
  <rect x="17" y="1" width="1" height="1" fill="#3394d2db"/>
  <rect x="18" y="1" width="1" height="1" fill="#3892cc96"/>
  <rect x="19" y="1" width="1" height="1" fill="#3e91c430"/>
  <rect x="11" y="2" width="1" height="1" fill="#438ec496"/>
  <rect x="12" y="2" width="1" height="1" fill="#3e90c6"/>
  <rect x="13" y="2" width="1" height="1" fill="#3b91c8"/>
  <rect x="14" y="2" width="1" height="1" fill="#3893ca"/>
  <rect x="15" y="2" width="1" height="1" fill="#3494cc"/>
  <rect x="16" y="2" width="2" height="1" fill="#3493d0"/>
  <rect x="18" y="2" width="1" height="1" fill="#3693ce"/>
  <rect x="19" y="2" width="1" height="1" fill="#3992ca"/>
  <rect x="20" y="2" width="1" height="1" fill="#3c91c69c"/>
  <rect x="10" y="3" width="1" height="1" fill="#3c8fd0c3"/>
  <rect x="11" y="3" width="1" height="1" fill="#3b90ce"/>
  <rect x="12" y="3" width="1" height="1" fill="#3b91ccf9"/>
  <rect x="13" y="3" width="1" height="1" fill="#3992ca91"/>
  <rect x="14" y="3" width="1" height="1" fill="#3893ca38"/>
  <rect x="15" y="3" width="1" height="1" fill="#3693ca0c"/>
  <rect x="16" y="3" width="1" height="1" fill="#3693ce0c"/>
  <rect x="17" y="3" width="1" height="1" fill="#3693ce38"/>
  <rect x="18" y="3" width="1" height="1" fill="#3693ce91"/>
  <rect x="19" y="3" width="1" height="1" fill="#3693cef9"/>
  <rect x="20" y="3" width="1" height="1" fill="#3693ce"/>
  <rect x="21" y="3" width="1" height="1" fill="#3892cec6"/>
  <rect x="9" y="4" width="1" height="1" fill="#3690dd93"/>
  <rect x="10" y="4" width="1" height="1" fill="#3691d9"/>
  <rect x="11" y="4" width="1" height="1" fill="#3891d4e4"/>
  <rect x="12" y="4" width="1" height="1" fill="#3891d030"/>
  <rect x="19" y="4" width="1" height="1" fill="#3394d230"/>
  <rect x="20" y="4" width="1" height="1" fill="#3394d2e4"/>
  <rect x="21" y="4" width="1" height="1" fill="#3194d4"/>
  <rect x="22" y="4" width="1" height="1" fill="#3194d799"/>
  <rect x="8" y="5" width="1" height="1" fill="#478bc62d"/>
  <rect x="9" y="5" width="1" height="1" fill="#3690ddfc"/>
  <rect x="10" y="5" width="1" height="1" fill="#3890d9f9"/>
  <rect x="11" y="5" width="1" height="1" fill="#3891d430"/>
  <rect x="20" y="5" width="1" height="1" fill="#3394d22f"/>
  <rect x="21" y="5" width="1" height="1" fill="#3393d4f8"/>
  <rect x="22" y="5" width="1" height="1" fill="#3393d4fc"/>
  <rect x="23" y="5" width="1" height="1" fill="#3c90ca2d"/>
  <rect x="8" y="6" width="1" height="1" fill="#4e8abe93"/>
  <rect x="9" y="6" width="1" height="1" fill="#3e8ed2"/>
  <rect x="10" y="6" width="1" height="1" fill="#3e8ed092"/>
  <rect x="21" y="6" width="1" height="1" fill="#3991cc92"/>
  <rect x="22" y="6" width="1" height="1" fill="#3991cc"/>
  <rect x="23" y="6" width="1" height="1" fill="#438ec496"/>
  <rect x="8" y="7" width="1" height="1" fill="#4f8abadb"/>
  <rect x="9" y="7" width="1" height="1" fill="#408ece"/>
  <rect x="10" y="7" width="1" height="1" fill="#3e8fcc38"/>
  <rect x="21" y="7" width="1" height="1" fill="#3b91ca38"/>
  <rect x="22" y="7" width="1" height="1" fill="#3c91c8"/>
  <rect x="23" y="7" width="1" height="1" fill="#438ec4d5"/>
  <rect x="8" y="8" width="1" height="1" fill="#4b8cb8f9"/>
  <rect x="9" y="8" width="1" height="1" fill="#3991cc"/>
  <rect x="22" y="8" width="1" height="1" fill="#3b91cc"/>
  <rect x="23" y="8" width="1" height="1" fill="#3e8fcaf3"/>
  <rect x="8" y="9" width="1" height="3" fill="#478eb8"/>
  <rect x="9" y="9" width="1" height="3" fill="#3693cc"/>
  <rect x="22" y="9" width="2" height="7" fill="#3b90ce"/>
  <rect x="8" y="12" width="1" height="3" fill="#498db8"/>
  <rect x="9" y="12" width="1" height="4" fill="#3892cc"/>
  <rect x="8" y="15" width="1" height="1" fill="#448ebe"/>
  <rect x="8" y="16" width="1" height="1" fill="#3c91c8"/>
  <rect x="9" y="16" width="1" height="1" fill="#3991cc"/>
  <rect x="22" y="16" width="1" height="1" fill="#3991d0"/>
  <rect x="23" y="16" width="1" height="1" fill="#3991ce"/>
  <rect x="4" y="17" width="1" height="3" fill="#4b8cb8"/>
  <rect x="5" y="17" width="1" height="2" fill="#3992ca"/>
  <rect x="8" y="17" width="2" height="3" fill="#3991cc"/>
  <rect x="22" y="17" width="2" height="4" fill="#3991d0"/>
  <rect x="26" y="17" width="1" height="8" fill="#3893ca"/>
  <rect x="27" y="17" width="1" height="4" fill="#4b8cb8"/>
  <rect x="5" y="19" width="1" height="7" fill="#3b91ca"/>
  <rect x="4" y="20" width="1" height="1" fill="#4c8cb8"/>
  <rect x="8" y="20" width="1" height="1" fill="#3991cc"/>
  <rect x="9" y="20" width="1" height="2" fill="#3b91cc"/>
  <rect x="4" y="21" width="1" height="1" fill="#4c8cb8f1"/>
  <rect x="6" y="21" width="1" height="1" fill="#3991cc0f"/>
  <rect x="8" y="21" width="1" height="1" fill="#3991ccf9"/>
  <rect x="21" y="21" width="1" height="1" fill="#3991d00c"/>
  <rect x="22" y="21" width="1" height="3" fill="#3991d0"/>
  <rect x="23" y="21" width="1" height="1" fill="#3991d0f3"/>
  <rect x="25" y="21" width="1" height="1" fill="#3991cc0c"/>
  <rect x="27" y="21" width="1" height="1" fill="#4b8cb8f3"/>
  <rect x="4" y="22" width="1" height="1" fill="#4c8cb8d8"/>
  <rect x="6" y="22" width="1" height="1" fill="#3991cc27"/>
  <rect x="8" y="22" width="1" height="1" fill="#3991ccdb"/>
  <rect x="9" y="22" width="1" height="2" fill="#3991cc"/>
  <rect x="10" y="22" width="1" height="1" fill="#3991cc38"/>
  <rect x="21" y="22" width="1" height="1" fill="#3991d038"/>
  <rect x="23" y="22" width="1" height="1" fill="#3991d0d5"/>
  <rect x="25" y="22" width="1" height="1" fill="#3991cc27"/>
  <rect x="27" y="22" width="1" height="1" fill="#4b8cb8d8"/>
  <rect x="4" y="23" width="1" height="1" fill="#4c8cb8a6"/>
  <rect x="6" y="23" width="1" height="1" fill="#3991cc5a"/>
  <rect x="8" y="23" width="1" height="1" fill="#3991cc93"/>
  <rect x="10" y="23" width="1" height="1" fill="#3991cc91"/>
  <rect x="21" y="23" width="1" height="1" fill="#3991d091"/>
  <rect x="23" y="23" width="1" height="1" fill="#3991d096"/>
  <rect x="25" y="23" width="1" height="1" fill="#3991cc5a"/>
  <rect x="27" y="23" width="1" height="1" fill="#498db8a6"/>
  <rect x="4" y="24" width="1" height="1" fill="#4c8cb869"/>
  <rect x="6" y="24" width="1" height="1" fill="#3991cca5"/>
  <rect x="8" y="24" width="1" height="1" fill="#3892cc2d"/>
  <rect x="9" y="24" width="1" height="1" fill="#3892ccfc"/>
  <rect x="10" y="24" width="1" height="1" fill="#3892ccf8"/>
  <rect x="11" y="24" width="1" height="1" fill="#3892cc2f"/>
  <rect x="20" y="24" width="1" height="1" fill="#3b90d02e"/>
  <rect x="21" y="24" width="1" height="1" fill="#3b90d0f8"/>
  <rect x="22" y="24" width="1" height="1" fill="#3b90d0fc"/>
  <rect x="23" y="24" width="1" height="1" fill="#3991d02d"/>
  <rect x="25" y="24" width="1" height="1" fill="#3892cca5"/>
  <rect x="27" y="24" width="1" height="1" fill="#498db869"/>
  <rect x="4" y="25" width="1" height="1" fill="#4c8cb81e"/>
  <rect x="6" y="25" width="1" height="1" fill="#3991ccf9"/>
  <rect x="7" y="25" width="1" height="1" fill="#3892cc24"/>
  <rect x="9" y="25" width="1" height="1" fill="#3892cc93"/>
  <rect x="10" y="25" width="1" height="1" fill="#3892cc"/>
  <rect x="11" y="25" width="1" height="1" fill="#3892cce4"/>
  <rect x="12" y="25" width="1" height="1" fill="#3892cc30"/>
  <rect x="19" y="25" width="1" height="1" fill="#3b90d02f"/>
  <rect x="20" y="25" width="1" height="1" fill="#3b90d0e4"/>
  <rect x="21" y="25" width="1" height="1" fill="#3b90d0"/>
  <rect x="22" y="25" width="1" height="1" fill="#3b90d093"/>
  <rect x="24" y="25" width="1" height="1" fill="#3991ce21"/>
  <rect x="25" y="25" width="1" height="1" fill="#3892ccf9"/>
  <rect x="26" y="25" width="1" height="1" fill="#3693ca"/>
  <rect x="27" y="25" width="1" height="1" fill="#478eb81e"/>
  <rect x="5" y="26" width="1" height="1" fill="#3b91ca9f"/>
  <rect x="6" y="26" width="1" height="1" fill="#3991cc"/>
  <rect x="7" y="26" width="1" height="1" fill="#3892cca8"/>
  <rect x="10" y="26" width="1" height="1" fill="#3693ccb7"/>
  <rect x="11" y="26" width="1" height="1" fill="#3693cc"/>
  <rect x="12" y="26" width="1" height="1" fill="#3693ccf9"/>
  <rect x="13" y="26" width="1" height="1" fill="#3693cc90"/>
  <rect x="14" y="26" width="1" height="1" fill="#3693cc34"/>
  <rect x="15" y="26" width="1" height="1" fill="#3892ce0b"/>
  <rect x="16" y="26" width="1" height="1" fill="#3991d00b"/>
  <rect x="17" y="26" width="1" height="1" fill="#3b90d034"/>
  <rect x="18" y="26" width="1" height="1" fill="#3b90d090"/>
  <rect x="19" y="26" width="1" height="1" fill="#3b90d0f9"/>
  <rect x="20" y="26" width="1" height="1" fill="#3b90d0"/>
  <rect x="21" y="26" width="1" height="1" fill="#3b90d0b7"/>
  <rect x="24" y="26" width="1" height="1" fill="#3991cea8"/>
  <rect x="25" y="26" width="1" height="1" fill="#3892cc"/>
  <rect x="26" y="26" width="1" height="1" fill="#3693caa2"/>
  <rect x="5" y="27" width="1" height="1" fill="#3b91ca1b"/>
  <rect x="6" y="27" width="1" height="1" fill="#3991cced"/>
  <rect x="7" y="27" width="1" height="2" fill="#3892cc"/>
  <rect x="8" y="27" width="1" height="1" fill="#3693cc72"/>
  <rect x="11" y="27" width="1" height="1" fill="#3693cc72"/>
  <rect x="12" y="27" width="1" height="1" fill="#3693ccf6"/>
  <rect x="13" y="27" width="2" height="1" fill="#3693cc"/>
  <rect x="15" y="27" width="1" height="2" fill="#3892ce"/>
  <rect x="16" y="27" width="1" height="2" fill="#3991d0"/>
  <rect x="17" y="27" width="2" height="1" fill="#3b90d0"/>
  <rect x="19" y="27" width="1" height="1" fill="#3b90d0f6"/>
  <rect x="20" y="27" width="1" height="1" fill="#3b90d072"/>
  <rect x="23" y="27" width="1" height="1" fill="#3b90d072"/>
  <rect x="24" y="27" width="1" height="2" fill="#3991ce"/>
  <rect x="25" y="27" width="1" height="1" fill="#3892cced"/>
  <rect x="26" y="27" width="1" height="1" fill="#3693ca1b"/>
  <rect x="6" y="28" width="1" height="1" fill="#3991cc51"/>
  <rect x="8" y="28" width="1" height="1" fill="#3892ccfc"/>
  <rect x="9" y="28" width="1" height="1" fill="#3892cc84"/>
  <rect x="12" y="28" width="1" height="1" fill="#3892cc27"/>
  <rect x="13" y="28" width="1" height="1" fill="#3892cc8d"/>
  <rect x="14" y="28" width="1" height="1" fill="#3892cccf"/>
  <rect x="17" y="28" width="1" height="1" fill="#3b90d0cf"/>
  <rect x="18" y="28" width="1" height="1" fill="#3b90d08d"/>
  <rect x="19" y="28" width="1" height="1" fill="#3b90d027"/>
  <rect x="22" y="28" width="1" height="1" fill="#3b90d084"/>
  <rect x="23" y="28" width="1" height="1" fill="#3b90d0fc"/>
  <rect x="25" y="28" width="1" height="1" fill="#3892cc51"/>
  <rect x="7" y="29" width="1" height="1" fill="#3892cc99"/>
  <rect x="8" y="29" width="2" height="1" fill="#3892cc"/>
  <rect x="10" y="29" width="1" height="1" fill="#3892ccd8"/>
  <rect x="11" y="29" width="1" height="1" fill="#3892cc36"/>
  <rect x="20" y="29" width="1" height="1" fill="#3b90d036"/>
  <rect x="21" y="29" width="1" height="1" fill="#3b90d0d5"/>
  <rect x="22" y="29" width="2" height="1" fill="#3b90d0"/>
  <rect x="24" y="29" width="1" height="1" fill="#3991ce99"/>
  <rect x="8" y="30" width="1" height="1" fill="#3892cc3f"/>
  <rect x="9" y="30" width="1" height="1" fill="#3892ccbd"/>
  <rect x="10" y="30" width="1" height="1" fill="#3892cc"/>
  <rect x="11" y="30" width="1" height="1" fill="#3892ccfc"/>
  <rect x="12" y="30" width="1" height="1" fill="#3892ccab"/>
  <rect x="13" y="30" width="1" height="1" fill="#3892cc57"/>
  <rect x="14" y="30" width="1" height="1" fill="#3892cc33"/>
  <rect x="17" y="30" width="1" height="1" fill="#3b90d033"/>
  <rect x="18" y="30" width="1" height="1" fill="#3b90d054"/>
  <rect x="19" y="30" width="1" height="1" fill="#3b90d0ab"/>
  <rect x="20" y="30" width="1" height="1" fill="#3b90d0fc"/>
  <rect x="21" y="30" width="1" height="1" fill="#3b90d0"/>
  <rect x="22" y="30" width="1" height="1" fill="#3b90d0c0"/>
  <rect x="23" y="30" width="1" height="1" fill="#3b90d03f"/>
  <rect x="10" y="31" width="1" height="1" fill="#3892cc99"/>
  <rect x="11" y="31" width="4" height="1" fill="#3892cc"/>
  <rect x="15" y="31" width="1" height="1" fill="#3991ce"/>
  <rect x="16" y="31" width="1" height="1" fill="#3b90ce"/>
  <rect x="17" y="31" width="4" height="1" fill="#3b90d0"/>
  <rect x="21" y="31" width="1" height="1" fill="#3b90d099"/>
  <rect x="11" y="32" width="1" height="1" fill="#3991cc18"/>
  <rect x="12" y="32" width="1" height="1" fill="#3991ce6c"/>
  <rect x="13" y="32" width="1" height="1" fill="#3991cea9"/>
  <rect x="14" y="32" width="2" height="4" fill="#3991ce"/>
  <rect x="16" y="32" width="2" height="4" fill="#3b90ce"/>
  <rect x="18" y="32" width="1" height="1" fill="#3b90ceac"/>
  <rect x="19" y="32" width="1" height="1" fill="#3b90ce6f"/>
  <rect x="20" y="32" width="1" height="1" fill="#3b90d018"/>
  <rect x="9" y="36" width="1" height="1" fill="#3b90ce0c"/>
  <rect x="10" y="36" width="1" height="1" fill="#3b90ce57"/>
  <rect x="11" y="36" width="1" height="1" fill="#3b90ce8d"/>
  <rect x="12" y="36" width="1" height="1" fill="#3b90cec6"/>
  <rect x="13" y="36" width="1" height="1" fill="#3b90ced5"/>
  <rect x="14" y="36" width="2" height="1" fill="#3b90ce"/>
  <rect x="16" y="36" width="2" height="1" fill="#3b90d0"/>
  <rect x="18" y="36" width="1" height="1" fill="#3b90d0cf"/>
  <rect x="19" y="36" width="1" height="1" fill="#3b90d0c0"/>
  <rect x="20" y="36" width="1" height="1" fill="#3b90d087"/>
  <rect x="21" y="36" width="1" height="1" fill="#3b90d051"/>
  <rect x="8" y="37" width="1" height="1" fill="#3991ce6f"/>
  <rect x="9" y="37" width="1" height="1" fill="#3b90ceed"/>
  <rect x="10" y="37" width="6" height="1" fill="#3b90ce"/>
  <rect x="16" y="37" width="6" height="1" fill="#3b90d0"/>
  <rect x="22" y="37" width="1" height="1" fill="#3b90d0e4"/>
  <rect x="23" y="37" width="1" height="1" fill="#3991ce5d"/>
  <rect x="7" y="38" width="1" height="1" fill="#3892cc30"/>
  <rect x="8" y="38" width="1" height="1" fill="#3991ce"/>
  <rect x="9" y="38" width="7" height="2" fill="#3b90ce"/>
  <rect x="16" y="38" width="8" height="1" fill="#3991ce"/>
  <rect x="24" y="38" width="1" height="1" fill="#3892cc12"/>
  <rect x="8" y="39" width="1" height="1" fill="#3c90cca8"/>
  <rect x="16" y="39" width="6" height="1" fill="#3991ce"/>
  <rect x="22" y="39" width="1" height="1" fill="#3991cefc"/>
  <rect x="23" y="39" width="1" height="1" fill="#3b91cc96"/>
  <rect x="9" y="40" width="1" height="1" fill="#3b90d024"/>
  <rect x="10" y="40" width="1" height="1" fill="#3b90d07b"/>
  <rect x="11" y="40" width="1" height="1" fill="#3b90d0ab"/>
  <rect x="12" y="40" width="1" height="1" fill="#3991cedb"/>
  <rect x="13" y="40" width="6" height="1" fill="#3991ce"/>
  <rect x="19" y="40" width="1" height="1" fill="#3991ced5"/>
  <rect x="20" y="40" width="1" height="1" fill="#3892cca5"/>
  <rect x="21" y="40" width="1" height="1" fill="#3892cc75"/>
  <rect x="22" y="40" width="1" height="1" fill="#3892cc18"/>
</svg>