<svg xmlns="http://www.w3.org/2000/svg" width="84" height="40" viewBox="0 0 84 40" shape-rendering="crispEdges">
  <rect x="14" y="2" width="1" height="1" fill="#4c8cb64e"/>
  <rect x="15" y="2" width="1" height="1" fill="#4c8cb6"/>
  <rect x="16" y="2" width="1" height="1" fill="#4b8bb5"/>
  <rect x="17" y="2" width="1" height="1" fill="#4d8ab5"/>
  <rect x="18" y="2" width="3" height="1" fill="#4e8bb6"/>
  <rect x="56" y="2" width="1" height="1" fill="#4f8ab84e"/>
  <rect x="57" y="2" width="2" height="1" fill="#4f8ab8"/>
  <rect x="59" y="2" width="2" height="1" fill="#4f8ab6"/>
  <rect x="61" y="2" width="2" height="1" fill="#4e8bb6"/>
  <rect x="63" y="2" width="1" height="1" fill="#5b87aa0f"/>
  <rect x="13" y="3" width="1" height="1" fill="#3b91c821"/>
  <rect x="14" y="3" width="1" height="1" fill="#3b91c8f0"/>
  <rect x="15" y="3" width="1" height="1" fill="#3b91c8"/>
  <rect x="16" y="3" width="2" height="1" fill="#3a90c7"/>
  <rect x="18" y="3" width="3" height="1" fill="#3b91c8"/>
  <rect x="55" y="3" width="1" height="1" fill="#3b91c821"/>
  <rect x="56" y="3" width="1" height="1" fill="#3b91c8f0"/>
  <rect x="57" y="3" width="6" height="1" fill="#3b91c8"/>
  <rect x="63" y="3" width="1" height="1" fill="#4c8cb60f"/>
  <rect x="13" y="4" width="1" height="1" fill="#3693cacc"/>
  <rect x="14" y="4" width="6" height="1" fill="#3693ca"/>
  <rect x="20" y="4" width="1" height="2" fill="#3795cc"/>
  <rect x="55" y="4" width="1" height="1" fill="#3693cacc"/>
  <rect x="56" y="4" width="7" height="1" fill="#3693ca"/>
  <rect x="75" y="4" width="1" height="1" fill="#3693ca36"/>
  <rect x="76" y="4" width="1" height="1" fill="#3693caaf"/>
  <rect x="77" y="4" width="1" height="1" fill="#3693ca1a"/>
  <rect x="12" y="5" width="1" height="1" fill="#3893ca93"/>
  <rect x="13" y="5" width="4" height="1" fill="#3893ca"/>
  <rect x="17" y="5" width="3" height="1" fill="#3693ca"/>
  <rect x="54" y="5" width="1" height="1" fill="#3494cc93"/>
  <rect x="55" y="5" width="8" height="1" fill="#3494cc"/>
  <rect x="74" y="5" width="1" height="1" fill="#3494cc13"/>
  <rect x="75" y="5" width="1" height="1" fill="#3494ccce"/>
  <rect x="76" y="5" width="1" height="1" fill="#3494cc"/>
  <rect x="77" y="5" width="1" height="1" fill="#3494ccd5"/>
  <rect x="78" y="5" width="1" height="1" fill="#3494cc26"/>
  <rect x="11" y="6" width="1" height="1" fill="#3e8fcc57"/>
  <rect x="12" y="6" width="2" height="1" fill="#3e8fcc"/>
  <rect x="14" y="6" width="3" height="1" fill="#3c90cc"/>
  <rect x="17" y="6" width="3" height="1" fill="#3b91cc"/>
  <rect x="20" y="6" width="1" height="1" fill="#3c92ce"/>
  <rect x="53" y="6" width="1" height="1" fill="#3991ce57"/>
  <rect x="54" y="6" width="9" height="1" fill="#3991ce"/>
  <rect x="75" y="6" width="1" height="1" fill="#3991ce12"/>
  <rect x="76" y="6" width="1" height="1" fill="#3991cec0"/>
  <rect x="77" y="6" width="1" height="1" fill="#3991ce"/>
  <rect x="78" y="6" width="1" height="1" fill="#3991ced2"/>
  <rect x="79" y="6" width="1" height="1" fill="#3991ce14"/>
  <rect x="10" y="7" width="1" height="1" fill="#408ecc27"/>
  <rect x="11" y="7" width="1" height="1" fill="#408eccf3"/>
  <rect x="12" y="7" width="2" height="1" fill="#408ecc"/>
  <rect x="14" y="7" width="2" height="1" fill="#3e8fcc"/>
  <rect x="16" y="7" width="4" height="1" fill="#3c90cc"/>
  <rect x="20" y="7" width="1" height="1" fill="#3d91ce"/>
  <rect x="52" y="7" width="1" height="1" fill="#3b90ce27"/>
  <rect x="53" y="7" width="1" height="1" fill="#3b90cef3"/>
  <rect x="54" y="7" width="9" height="1" fill="#3b90ce"/>
  <rect x="77" y="7" width="1" height="1" fill="#3b90cec3"/>
  <rect x="78" y="7" width="1" height="1" fill="#3b90ce"/>
  <rect x="79" y="7" width="1" height="1" fill="#3b90ceab"/>
  <rect x="10" y="8" width="1" height="1" fill="#3b90ced2"/>
  <rect x="11" y="8" width="9" height="1" fill="#3b90ce"/>
  <rect x="20" y="8" width="1" height="1" fill="#3c91d0"/>
  <rect x="52" y="8" width="1" height="1" fill="#3991ced2"/>
  <rect x="53" y="8" width="10" height="1" fill="#3991ce"/>
  <rect x="71" y="8" width="1" height="1" fill="#468dc01c"/>
  <rect x="72" y="8" width="1" height="1" fill="#3e8fca3d"/>
  <rect x="73" y="8" width="1" height="1" fill="#3991ce11"/>
  <rect x="77" y="8" width="1" height="1" fill="#3991ce18"/>
  <rect x="78" y="8" width="1" height="1" fill="#3991ceea"/>
  <rect x="79" y="8" width="1" height="2" fill="#3991ce"/>
  <rect x="80" y="8" width="1" height="1" fill="#3991ce6c"/>
  <rect x="9" y="9" width="1" height="1" fill="#3991ce9c"/>
  <rect x="10" y="9" width="10" height="1" fill="#3991ce"/>
  <rect x="20" y="9" width="1" height="7" fill="#3a92d0"/>
  <rect x="51" y="9" width="1" height="1" fill="#3991ce9c"/>
  <rect x="52" y="9" width="11" height="1" fill="#3991ce"/>
  <rect x="71" y="9" width="1" height="1" fill="#3991ceeb"/>
  <rect x="72" y="9" width="1" height="1" fill="#3991ce"/>
  <rect x="73" y="9" width="1" height="1" fill="#3991ce97"/>
  <rect x="74" y="9" width="1" height="1" fill="#3991ce16"/>
  <rect x="78" y="9" width="1" height="1" fill="#3991ce57"/>
  <rect x="80" y="9" width="1" height="1" fill="#3991cec6"/>
  <rect x="8" y="10" width="1" height="1" fill="#3991ce60"/>
  <rect x="9" y="10" width="11" height="2" fill="#3991ce"/>
  <rect x="50" y="10" width="1" height="1" fill="#3991ce60"/>
  <rect x="51" y="10" width="12" height="2" fill="#3991ce"/>
  <rect x="71" y="10" width="1" height="1" fill="#3991ce6c"/>
  <rect x="72" y="10" width="1" height="1" fill="#3991cecf"/>
  <rect x="73" y="10" width="1" height="1" fill="#3991ce"/>
  <rect x="74" y="10" width="1" height="1" fill="#3991cea2"/>
  <rect x="79" y="10" width="1" height="1" fill="#3991cecf"/>
  <rect x="80" y="10" width="1" height="2" fill="#3991ce"/>
  <rect x="81" y="10" width="1" height="1" fill="#3991ce72"/>
  <rect x="7" y="11" width="1" height="1" fill="#3991ce2a"/>
  <rect x="8" y="11" width="1" height="1" fill="#3991cef6"/>
  <rect x="49" y="11" width="1" height="1" fill="#3991ce2a"/>
  <rect x="50" y="11" width="1" height="1" fill="#3991cef6"/>
  <rect x="72" y="11" width="1" height="1" fill="#3991ce24"/>
  <rect x="73" y="11" width="1" height="1" fill="#3991cedc"/>
  <rect x="74" y="11" width="1" height="1" fill="#3991ce"/>
  <rect x="75" y="11" width="1" height="1" fill="#3991ce60"/>
  <rect x="79" y="11" width="1" height="1" fill="#3991ce51"/>
  <rect x="81" y="11" width="1" height="1" fill="#3991cec0"/>
  <rect x="6" y="12" width="1" height="1" fill="#3991ce0c"/>
  <rect x="7" y="12" width="1" height="1" fill="#3991ced8"/>
  <rect x="8" y="12" width="12" height="1" fill="#3991ce"/>
  <rect x="48" y="12" width="1" height="1" fill="#3991ce0c"/>
  <rect x="49" y="12" width="1" height="1" fill="#3991ced8"/>
  <rect x="50" y="12" width="13" height="1" fill="#3991ce"/>
  <rect x="67" y="12" width="1" height="1" fill="#3991ce20"/>
  <rect x="68" y="12" width="1" height="1" fill="#3991ce17"/>
  <rect x="73" y="12" width="1" height="1" fill="#3991ce4f"/>
  <rect x="74" y="12" width="1" height="1" fill="#3991cefc"/>
  <rect x="75" y="12" width="1" height="1" fill="#3991cee3"/>
  <rect x="76" y="12" width="1" height="1" fill="#3991ce0c"/>
  <rect x="80" y="12" width="1" height="1" fill="#3991cee4"/>
  <rect x="81" y="12" width="1" height="3" fill="#3991ce"/>
  <rect x="82" y="12" width="1" height="1" fill="#3991ce2d"/>
  <rect x="6" y="13" width="1" height="1" fill="#3991cea5"/>
  <rect x="7" y="13" width="13" height="1" fill="#3991ce"/>
  <rect x="48" y="13" width="1" height="1" fill="#3991cea5"/>
  <rect x="49" y="13" width="14" height="1" fill="#3991ce"/>
  <rect x="66" y="13" width="1" height="1" fill="#3991ce36"/>
  <rect x="67" y="13" width="1" height="1" fill="#3991ceeb"/>
  <rect x="68" y="13" width="1" height="1" fill="#3991cecc"/>
  <rect x="69" y="13" width="1" height="1" fill="#3991ce10"/>
  <rect x="74" y="13" width="1" height="1" fill="#3991cec9"/>
  <rect x="75" y="13" width="1" height="2" fill="#3991ce"/>
  <rect x="76" y="13" width="1" height="1" fill="#3991ce53"/>
  <rect x="80" y="13" width="1" height="1" fill="#3991ce96"/>
  <rect x="82" y="13" width="1" height="1" fill="#3991ce78"/>
  <rect x="0" y="14" width="20" height="2" fill="#3991ce"/>
  <rect x="42" y="14" width="21" height="15" fill="#3991ce"/>
  <rect x="66" y="14" width="1" height="1" fill="#3991ce5b"/>
  <rect x="67" y="14" width="1" height="1" fill="#3991ced7"/>
  <rect x="68" y="14" width="1" height="1" fill="#3991ce"/>
  <rect x="69" y="14" width="1" height="1" fill="#3991cec5"/>
  <rect x="74" y="14" width="1" height="1" fill="#3991ce60"/>
  <rect x="76" y="14" width="1" height="1" fill="#3991cead"/>
  <rect x="80" y="14" width="1" height="1" fill="#3991ce4b"/>
  <rect x="82" y="14" width="1" height="1" fill="#3991ceb7"/>
  <rect x="66" y="15" width="1" height="1" fill="#3991ce0a"/>
  <rect x="67" y="15" width="1" height="1" fill="#3991ce3b"/>
  <rect x="68" y="15" width="1" height="1" fill="#3991ced8"/>
  <rect x="69" y="15" width="1" height="1" fill="#3991ce"/>
  <rect x="70" y="15" width="1" height="1" fill="#3991ce80"/>
  <rect x="74" y="15" width="1" height="1" fill="#3991ce14"/>
  <rect x="75" y="15" width="1" height="1" fill="#3991cefb"/>
  <rect x="76" y="15" width="1" height="1" fill="#3991ceed"/>
  <rect x="80" y="15" width="1" height="1" fill="#3991ce0c"/>
  <rect x="81" y="15" width="1" height="1" fill="#3991cefc"/>
  <rect x="82" y="15" width="1" height="11" fill="#3991ce"/>
  <rect x="0" y="16" width="21" height="13" fill="#3991ce"/>
  <rect x="68" y="16" width="1" height="1" fill="#3991ce48"/>
  <rect x="69" y="16" width="1" height="1" fill="#3991cefd"/>
  <rect x="70" y="16" width="1" height="1" fill="#3991cee6"/>
  <rect x="71" y="16" width="1" height="1" fill="#3991ce1e"/>
  <rect x="75" y="16" width="1" height="1" fill="#3991ced8"/>
  <rect x="76" y="16" width="1" height="10" fill="#3991ce"/>
  <rect x="77" y="16" width="1" height="1" fill="#3991ce27"/>
  <rect x="81" y="16" width="1" height="1" fill="#3991cedb"/>
  <rect x="83" y="16" width="1" height="1" fill="#3991ce24"/>
  <rect x="69" y="17" width="1" height="1" fill="#3991cebc"/>
  <rect x="70" y="17" width="1" height="4" fill="#3991ce"/>
  <rect x="71" y="17" width="1" height="1" fill="#3991ce60"/>
  <rect x="75" y="17" width="1" height="1" fill="#3991cea5"/>
  <rect x="77" y="17" width="1" height="1" fill="#3991ce5a"/>
  <rect x="81" y="17" width="1" height="1" fill="#3991ceb7"/>
  <rect x="83" y="17" width="1" height="1" fill="#3991ce48"/>
  <rect x="69" y="18" width="1" height="1" fill="#3991ce66"/>
  <rect x="71" y="18" width="1" height="1" fill="#3991cea2"/>
  <rect x="75" y="18" width="1" height="1" fill="#3991ce80"/>
  <rect x="77" y="18" width="1" height="1" fill="#3991ce80"/>
  <rect x="81" y="18" width="1" height="1" fill="#3991cea2"/>
  <rect x="83" y="18" width="1" height="1" fill="#3991ce5d"/>
  <rect x="69" y="19" width="1" height="1" fill="#3991ce27"/>
  <rect x="71" y="19" width="1" height="1" fill="#3991ced7"/>
  <rect x="75" y="19" width="1" height="1" fill="#3991ce6a"/>
  <rect x="77" y="19" width="1" height="1" fill="#3991ce96"/>
  <rect x="81" y="19" width="1" height="1" fill="#3991ce93"/>
  <rect x="83" y="19" width="1" height="1" fill="#3991ce6c"/>
  <rect x="71" y="20" width="1" height="1" fill="#3991cef8"/>
  <rect x="75" y="20" width="1" height="1" fill="#3991ce61"/>
  <rect x="77" y="20" width="1" height="1" fill="#3991ce9f"/>
  <rect x="81" y="20" width="1" height="1" fill="#3991ce84"/>
  <rect x="83" y="20" width="1" height="1" fill="#3991ce7b"/>
  <rect x="70" y="21" width="2" height="1" fill="#3991ce"/>
  <rect x="75" y="21" width="1" height="1" fill="#3991ce62"/>
  <rect x="77" y="21" width="1" height="1" fill="#3991ce9e"/>
  <rect x="81" y="21" width="1" height="1" fill="#3991ce8d"/>
  <rect x="83" y="21" width="1" height="1" fill="#3991ce72"/>
  <rect x="69" y="22" width="1" height="1" fill="#3991ce12"/>
  <rect x="70" y="22" width="1" height="4" fill="#3991ce"/>
  <rect x="71" y="22" width="1" height="1" fill="#3991ceed"/>
  <rect x="75" y="22" width="1" height="1" fill="#3991ce6c"/>
  <rect x="77" y="22" width="1" height="1" fill="#3991ce94"/>
  <rect x="81" y="22" width="1" height="1" fill="#3991ce9c"/>
  <rect x="83" y="22" width="1" height="1" fill="#3991ce63"/>
  <rect x="69" y="23" width="1" height="1" fill="#3991ce40"/>
  <rect x="71" y="23" width="1" height="1" fill="#3991cec0"/>
  <rect x="75" y="23" width="1" height="1" fill="#3991ce85"/>
  <rect x="77" y="23" width="1" height="1" fill="#3991ce7b"/>
  <rect x="81" y="23" width="1" height="1" fill="#3991ceab"/>
  <rect x="83" y="23" width="1" height="1" fill="#3991ce54"/>
  <rect x="69" y="24" width="1" height="1" fill="#3991ce8c"/>
  <rect x="71" y="24" width="1" height="1" fill="#3991ce84"/>
  <rect x="75" y="24" width="1" height="1" fill="#3991ceaa"/>
  <rect x="77" y="24" width="1" height="1" fill="#3991ce55"/>
  <rect x="81" y="24" width="1" height="1" fill="#3991cecc"/>
  <rect x="83" y="24" width="1" height="1" fill="#3991ce33"/>
  <rect x="68" y="25" width="1" height="1" fill="#3991ce14"/>
  <rect x="69" y="25" width="1" height="1" fill="#3991cedf"/>
  <rect x="71" y="25" width="1" height="1" fill="#3991ce3e"/>
  <rect x="75" y="25" width="1" height="1" fill="#3991cee1"/>
  <rect x="77" y="25" width="1" height="1" fill="#3991ce1f"/>
  <rect x="81" y="25" width="1" height="1" fill="#3991cef9"/>
  <rect x="67" y="26" width="1" height="1" fill="#3991ce0e"/>
  <rect x="68" y="26" width="1" height="1" fill="#3991ce87"/>
  <rect x="69" y="26" width="1" height="1" fill="#3991ce"/>
  <rect x="70" y="26" width="1" height="1" fill="#3991ced6"/>
  <rect x="74" y="26" width="1" height="1" fill="#3991ce1d"/>
  <rect x="75" y="26" width="1" height="1" fill="#3991cefe"/>
  <rect x="76" y="26" width="1" height="1" fill="#3991cee3"/>
  <rect x="80" y="26" width="1" height="1" fill="#3991ce33"/>
  <rect x="81" y="26" width="1" height="3" fill="#3991ce"/>
  <rect x="82" y="26" width="1" height="1" fill="#3991cecc"/>
  <rect x="67" y="27" width="1" height="1" fill="#3991ce5b"/>
  <rect x="68" y="27" width="1" height="1" fill="#3991ce"/>
  <rect x="69" y="27" width="1" height="1" fill="#3991cee7"/>
  <rect x="70" y="27" width="1" height="1" fill="#3991ce57"/>
  <rect x="74" y="27" width="1" height="1" fill="#3991ce72"/>
  <rect x="75" y="27" width="1" height="2" fill="#3991ce"/>
  <rect x="76" y="27" width="1" height="1" fill="#3991cea0"/>
  <rect x="80" y="27" width="1" height="1" fill="#3991ce72"/>
  <rect x="82" y="27" width="1" height="1" fill="#3991ce90"/>
  <rect x="67" y="28" width="1" height="1" fill="#3991ce0f"/>
  <rect x="68" y="28" width="1" height="1" fill="#3991cebc"/>
  <rect x="69" y="28" width="1" height="1" fill="#3991ce7b"/>
  <rect x="74" y="28" width="1" height="1" fill="#3991ced9"/>
  <rect x="76" y="28" width="1" height="1" fill="#3991ce43"/>
  <rect x="80" y="28" width="1" height="1" fill="#3991cec6"/>
  <rect x="82" y="28" width="1" height="1" fill="#3991ce51"/>
  <rect x="7" y="29" width="1" height="1" fill="#3991cec0"/>
  <rect x="8" y="29" width="13" height="1" fill="#3991ce"/>
  <rect x="49" y="29" width="1" height="1" fill="#3991cec0"/>
  <rect x="50" y="29" width="13" height="1" fill="#3991ce"/>
  <rect x="73" y="29" width="1" height="1" fill="#3991ce72"/>
  <rect x="74" y="29" width="1" height="2" fill="#3991ce"/>
  <rect x="75" y="29" width="1" height="1" fill="#3991ced1"/>
  <rect x="79" y="29" width="1" height="1" fill="#3991ce1e"/>
  <rect x="80" y="29" width="1" height="3" fill="#3991ce"/>
  <rect x="81" y="29" width="1" height="1" fill="#3991cee1"/>
  <rect x="7" y="30" width="1" height="1" fill="#3991ce0f"/>
  <rect x="8" y="30" width="1" height="1" fill="#3991cecc"/>
  <rect x="9" y="30" width="12" height="1" fill="#3991ce"/>
  <rect x="49" y="30" width="1" height="1" fill="#3991ce0f"/>
  <rect x="50" y="30" width="1" height="1" fill="#3991cecc"/>
  <rect x="51" y="30" width="12" height="1" fill="#3991ce"/>
  <rect x="72" y="30" width="1" height="1" fill="#3991ce50"/>
  <rect x="73" y="30" width="1" height="1" fill="#3991ceed"/>
  <rect x="75" y="30" width="1" height="1" fill="#3991ce40"/>
  <rect x="79" y="30" width="1" height="1" fill="#3991ce90"/>
  <rect x="81" y="30" width="1" height="1" fill="#3991cea5"/>
  <rect x="8" y="31" width="1" height="1" fill="#3991ce15"/>
  <rect x="9" y="31" width="1" height="1" fill="#3991ced8"/>
  <rect x="10" y="31" width="11" height="1" fill="#3991ce"/>
  <rect x="50" y="31" width="1" height="1" fill="#3991ce15"/>
  <rect x="51" y="31" width="1" height="1" fill="#3991ced8"/>
  <rect x="52" y="31" width="11" height="1" fill="#3991ce"/>
  <rect x="71" y="31" width="1" height="1" fill="#3991ce7d"/>
  <rect x="72" y="31" width="1" height="1" fill="#3991ceec"/>
  <rect x="73" y="31" width="1" height="1" fill="#3991ce"/>
  <rect x="74" y="31" width="1" height="1" fill="#3991ce6c"/>
  <rect x="78" y="31" width="1" height="1" fill="#3991ce1b"/>
  <rect x="79" y="31" width="1" height="1" fill="#3991cef9"/>
  <rect x="81" y="31" width="1" height="1" fill="#3991ce33"/>
  <rect x="9" y="32" width="1" height="1" fill="#3892ce1b"/>
  <rect x="10" y="32" width="1" height="1" fill="#3892cee1"/>
  <rect x="11" y="32" width="1" height="1" fill="#3892ce"/>
  <rect x="12" y="32" width="8" height="1" fill="#3991ce"/>
  <rect x="20" y="32" width="1" height="2" fill="#3b90ce"/>
  <rect x="51" y="32" width="1" height="1" fill="#3892ce1b"/>
  <rect x="52" y="32" width="1" height="1" fill="#3991cee1"/>
  <rect x="53" y="32" width="10" height="1" fill="#3991ce"/>
  <rect x="71" y="32" width="1" height="1" fill="#3991ce0f"/>
  <rect x="72" y="32" width="1" height="1" fill="#3991ceaf"/>
  <rect x="73" y="32" width="1" height="1" fill="#3991ce62"/>
  <rect x="78" y="32" width="1" height="1" fill="#3991ceab"/>
  <rect x="79" y="32" width="1" height="1" fill="#3991ce"/>
  <rect x="80" y="32" width="1" height="1" fill="#3991cea8"/>
  <rect x="10" y="33" width="1" height="1" fill="#3892ce24"/>
  <rect x="11" y="33" width="1" height="1" fill="#3892ceea"/>
  <rect x="12" y="33" width="1" height="1" fill="#3892ce"/>
  <rect x="13" y="33" width="7" height="1" fill="#3991ce"/>
  <rect x="52" y="33" width="1" height="1" fill="#3892ce24"/>
  <rect x="53" y="33" width="1" height="1" fill="#3991ceea"/>
  <rect x="54" y="33" width="9" height="1" fill="#3991ce"/>
  <rect x="77" y="33" width="1" height="1" fill="#3991ce69"/>
  <rect x="78" y="33" width="1" height="1" fill="#3991ce"/>
  <rect x="79" y="33" width="1" height="1" fill="#3991ceea"/>
  <rect x="80" y="33" width="1" height="1" fill="#3991ce18"/>
  <rect x="11" y="34" width="1" height="1" fill="#3693cc2d"/>
  <rect x="12" y="34" width="1" height="1" fill="#3693ccf0"/>
  <rect x="13" y="34" width="6" height="1" fill="#3892cc"/>
  <rect x="19" y="34" width="2" height="1" fill="#3991cc"/>
  <rect x="53" y="34" width="1" height="1" fill="#3892cc2d"/>
  <rect x="54" y="34" width="1" height="1" fill="#3892ccf0"/>
  <rect x="55" y="34" width="8" height="1" fill="#3892cc"/>
  <rect x="76" y="34" width="1" height="1" fill="#3892cc4e"/>
  <rect x="77" y="34" width="1" height="1" fill="#3892ccf9"/>
  <rect x="78" y="34" width="1" height="1" fill="#3892cc"/>
  <rect x="79" y="34" width="1" height="1" fill="#3892cc5a"/>
  <rect x="12" y="35" width="1" height="1" fill="#3693cc39"/>
  <rect x="13" y="35" width="1" height="1" fill="#3693ccf6"/>
  <rect x="14" y="35" width="2" height="1" fill="#3693cc"/>
  <rect x="16" y="35" width="4" height="1" fill="#3892cc"/>
  <rect x="20" y="35" width="1" height="1" fill="#3991cc"/>
  <rect x="54" y="35" width="1" height="1" fill="#3693cc39"/>
  <rect x="55" y="35" width="1" height="1" fill="#3693ccf6"/>
  <rect x="56" y="35" width="7" height="1" fill="#3892cc"/>
  <rect x="75" y="35" width="1" height="1" fill="#3892cc5a"/>
  <rect x="76" y="35" width="1" height="1" fill="#3892ccfc"/>
  <rect x="77" y="35" width="1" height="1" fill="#3892cc"/>
  <rect x="78" y="35" width="1" height="1" fill="#3892cc9c"/>
  <rect x="13" y="36" width="1" height="1" fill="#3892ce48"/>
  <rect x="14" y="36" width="1" height="1" fill="#3892cef9"/>
  <rect x="15" y="36" width="5" height="1" fill="#3892ce"/>
  <rect x="20" y="36" width="1" height="1" fill="#3991ce"/>
  <rect x="55" y="36" width="1" height="1" fill="#3892ce48"/>
  <rect x="56" y="36" width="1" height="1" fill="#3892cef9"/>
  <rect x="57" y="36" width="6" height="1" fill="#3892ce"/>
  <rect x="75" y="36" width="1" height="1" fill="#3892ce0f"/>
  <rect x="76" y="36" width="1" height="1" fill="#3892cec9"/>
  <rect x="77" y="36" width="1" height="1" fill="#3892ce99"/>
  <rect x="14" y="37" width="1" height="1" fill="#4b8bbe54"/>
  <rect x="15" y="37" width="1" height="1" fill="#4b8bbefc"/>
  <rect x="16" y="37" width="4" height="1" fill="#4b8bbe"/>
  <rect x="20" y="37" width="1" height="1" fill="#4c8abe"/>
  <rect x="56" y="37" width="1" height="1" fill="#4b8bbe54"/>
  <rect x="57" y="37" width="1" height="1" fill="#4b8bbefc"/>
  <rect x="58" y="37" width="5" height="1" fill="#4b8bbe"/>
</svg>