<svg xmlns="http://www.w3.org/2000/svg" width="16" height="16" viewBox="0 0 16 16" shape-rendering="crispEdges">
  <rect x="0" y="0" width="1" height="1" fill="#aa28340f"/>
  <rect x="1" y="0" width="1" height="1" fill="#ae2a36a7"/>
  <rect x="2" y="0" width="1" height="1" fill="#b82e3af7"/>
  <rect x="3" y="0" width="1" height="1" fill="#ba3741f7"/>
  <rect x="4" y="0" width="1" height="1" fill="#ab383bf7"/>
  <rect x="5" y="0" width="1" height="1" fill="#a33b39f7"/>
  <rect x="6" y="0" width="1" height="1" fill="#a73c3cf7"/>
  <rect x="7" y="0" width="1" height="1" fill="#aa3a3cf7"/>
  <rect x="8" y="0" width="1" height="1" fill="#b0393ff7"/>
  <rect x="9" y="0" width="1" height="1" fill="#b3373ff7"/>
  <rect x="10" y="0" width="1" height="1" fill="#b6383ef7"/>
  <rect x="11" y="0" width="1" height="1" fill="#b7393df7"/>
  <rect x="12" y="0" width="1" height="1" fill="#b93939f7"/>
  <rect x="13" y="0" width="1" height="1" fill="#b43532f7"/>
  <rect x="14" y="0" width="1" height="1" fill="#ad312ba7"/>
  <rect x="15" y="0" width="1" height="1" fill="#aa2f260f"/>
  <rect x="0" y="1" width="1" height="1" fill="#b02e3aa8"/>
  <rect x="1" y="1" width="1" height="1" fill="#d04a55ef"/>
  <rect x="2" y="1" width="1" height="1" fill="#ea5663"/>
  <rect x="3" y="1" width="1" height="1" fill="#e2515b"/>
  <rect x="4" y="1" width="1" height="1" fill="#e26063"/>
  <rect x="5" y="1" width="1" height="1" fill="#d45957"/>
  <rect x="6" y="1" width="1" height="1" fill="#d8605d"/>
  <rect x="7" y="1" width="1" height="1" fill="#d9615e"/>
  <rect x="8" y="1" width="1" height="1" fill="#d95c5b"/>
  <rect x="9" y="1" width="1" height="1" fill="#dc5a5b"/>
  <rect x="10" y="1" width="1" height="1" fill="#e1585b"/>
  <rect x="11" y="1" width="1" height="1" fill="#e3575b"/>
  <rect x="12" y="1" width="1" height="1" fill="#e15658"/>
  <rect x="13" y="1" width="1" height="1" fill="#e65d5c"/>
  <rect x="14" y="1" width="1" height="1" fill="#cf504bef"/>
  <rect x="15" y="1" width="1" height="1" fill="#b1352fa8"/>
  <rect x="0" y="2" width="1" height="1" fill="#b1333b"/>
  <rect x="1" y="2" width="1" height="1" fill="#df545f"/>
  <rect x="2" y="2" width="1" height="1" fill="#ff6070"/>
  <rect x="3" y="2" width="1" height="1" fill="#ff5562"/>
  <rect x="4" y="2" width="1" height="1" fill="#fb565c"/>
  <rect x="5" y="2" width="1" height="1" fill="#ff6562"/>
  <rect x="6" y="2" width="1" height="1" fill="#f36157"/>
  <rect x="7" y="2" width="1" height="1" fill="#f06357"/>
  <rect x="8" y="2" width="1" height="1" fill="#eb6054"/>
  <rect x="9" y="2" width="1" height="1" fill="#f05e54"/>
  <rect x="10" y="2" width="1" height="1" fill="#fa5856"/>
  <rect x="11" y="2" width="1" height="1" fill="#fe5558"/>
  <rect x="12" y="2" width="1" height="1" fill="#fb575a"/>
  <rect x="13" y="2" width="1" height="1" fill="#fc6465"/>
  <rect x="14" y="2" width="1" height="1" fill="#da5753"/>
  <rect x="15" y="2" width="1" height="1" fill="#af3430"/>
  <rect x="0" y="3" width="1" height="1" fill="#ae3036f7"/>
  <rect x="1" y="3" width="1" height="1" fill="#d2464f"/>
  <rect x="2" y="3" width="1" height="1" fill="#f64d5b"/>
  <rect x="3" y="3" width="1" height="1" fill="#f94552"/>
  <rect x="4" y="3" width="1" height="1" fill="#f94f54"/>
  <rect x="5" y="3" width="1" height="1" fill="#c0221c"/>
  <rect x="6" y="3" width="1" height="1" fill="#db473a"/>
  <rect x="7" y="3" width="1" height="1" fill="#dc4b3a"/>
  <rect x="8" y="3" width="1" height="1" fill="#e34d3b"/>
  <rect x="9" y="3" width="1" height="1" fill="#e94a3d"/>
  <rect x="10" y="3" width="1" height="1" fill="#f3443f"/>
  <rect x="11" y="3" width="1" height="1" fill="#f64243"/>
  <rect x="12" y="3" width="1" height="1" fill="#f7494d"/>
  <rect x="13" y="3" width="1" height="1" fill="#f15356"/>
  <rect x="14" y="3" width="1" height="1" fill="#cf4b48"/>
  <rect x="15" y="3" width="1" height="1" fill="#ad3530f7"/>
  <rect x="0" y="4" width="1" height="1" fill="#ac2d2cf7"/>
  <rect x="1" y="4" width="1" height="1" fill="#d84f52"/>
  <rect x="2" y="4" width="1" height="1" fill="#e84c51"/>
  <rect x="3" y="4" width="1" height="1" fill="#e44448"/>
  <rect x="4" y="4" width="1" height="1" fill="#d64541"/>
  <rect x="5" y="4" width="1" height="1" fill="#ff8076"/>
  <rect x="6" y="4" width="1" height="1" fill="#b13423"/>
  <rect x="7" y="4" width="1" height="1" fill="#ae2816"/>
  <rect x="8" y="4" width="1" height="1" fill="#e6493c"/>
  <rect x="9" y="4" width="1" height="1" fill="#f64a42"/>
  <rect x="10" y="4" width="1" height="1" fill="#f3423e"/>
  <rect x="11" y="4" width="1" height="1" fill="#f04141"/>
  <rect x="12" y="4" width="1" height="1" fill="#e94244"/>
  <rect x="13" y="4" width="1" height="1" fill="#e85253"/>
  <rect x="14" y="4" width="1" height="1" fill="#d2514c"/>
  <rect x="15" y="4" width="1" height="1" fill="#a6302af7"/>
  <rect x="0" y="5" width="1" height="1" fill="#a92622f7"/>
  <rect x="1" y="5" width="1" height="1" fill="#d34948"/>
  <rect x="2" y="5" width="1" height="1" fill="#e3484c"/>
  <rect x="3" y="5" width="1" height="1" fill="#da4044"/>
  <rect x="4" y="5" width="1" height="1" fill="#bf3e3c"/>
  <rect x="5" y="5" width="1" height="1" fill="#ffc7be"/>
  <rect x="6" y="5" width="1" height="1" fill="#ffd0c2"/>
  <rect x="7" y="5" width="1" height="1" fill="#e07d6c"/>
  <rect x="8" y="5" width="1" height="1" fill="#9a180d"/>
  <rect x="9" y="5" width="1" height="1" fill="#bf2721"/>
  <rect x="10" y="5" width="1" height="1" fill="#e44041"/>
  <rect x="11" y="5" width="1" height="1" fill="#e43e3f"/>
  <rect x="12" y="5" width="1" height="1" fill="#e03e40"/>
  <rect x="13" y="5" width="1" height="1" fill="#e44d4e"/>
  <rect x="14" y="5" width="1" height="1" fill="#ce4a47"/>
  <rect x="15" y="5" width="1" height="1" fill="#a42a26f7"/>
  <rect x="0" y="6" width="1" height="1" fill="#a71e15f7"/>
  <rect x="1" y="6" width="1" height="1" fill="#d33f3d"/>
  <rect x="2" y="6" width="1" height="1" fill="#e43d45"/>
  <rect x="3" y="6" width="1" height="1" fill="#d63741"/>
  <rect x="4" y="6" width="1" height="1" fill="#b73b40"/>
  <rect x="5" y="6" width="1" height="1" fill="#ffd0d0"/>
  <rect x="6" y="6" width="1" height="1" fill="#fff3eb"/>
  <rect x="7" y="6" width="1" height="1" fill="#ffebe2"/>
  <rect x="8" y="6" width="1" height="1" fill="#ffc6bb"/>
  <rect x="9" y="6" width="1" height="1" fill="#c6635e"/>
  <rect x="10" y="6" width="1" height="1" fill="#9a1619"/>
  <rect x="11" y="6" width="1" height="1" fill="#d33740"/>
  <rect x="12" y="6" width="1" height="1" fill="#db353f"/>
  <rect x="13" y="6" width="1" height="1" fill="#e34349"/>
  <rect x="14" y="6" width="1" height="1" fill="#cb4140"/>
  <rect x="15" y="6" width="1" height="1" fill="#a2211df7"/>
  <rect x="0" y="7" width="1" height="1" fill="#a61711f7"/>
  <rect x="1" y="7" width="1" height="1" fill="#d13938"/>
  <rect x="2" y="7" width="1" height="1" fill="#e23540"/>
  <rect x="3" y="7" width="1" height="1" fill="#d3313f"/>
  <rect x="4" y="7" width="1" height="1" fill="#ae3641"/>
  <rect x="5" y="7" width="1" height="1" fill="#ffced3"/>
  <rect x="6" y="7" width="1" height="1" fill="#ffefee"/>
  <rect x="7" y="7" width="1" height="1" fill="#fff6f0"/>
  <rect x="8" y="7" width="1" height="1" fill="#fff9ee"/>
  <rect x="9" y="7" width="1" height="1" fill="#ffe2db"/>
  <rect x="10" y="7" width="1" height="1" fill="#ffacb1"/>
  <rect x="11" y="7" width="1" height="1" fill="#df4c57"/>
  <rect x="12" y="7" width="1" height="1" fill="#d6303d"/>
  <rect x="13" y="7" width="1" height="1" fill="#e03b43"/>
  <rect x="14" y="7" width="1" height="1" fill="#cb3a39"/>
  <rect x="15" y="7" width="1" height="1" fill="#a11915f7"/>
  <rect x="0" y="8" width="1" height="1" fill="#ab1e1ef7"/>
  <rect x="1" y="8" width="1" height="1" fill="#c82f33"/>
  <rect x="2" y="8" width="1" height="1" fill="#e0313c"/>
  <rect x="3" y="8" width="1" height="1" fill="#ce2a39"/>
  <rect x="4" y="8" width="1" height="1" fill="#a72d36"/>
  <rect x="5" y="8" width="1" height="1" fill="#ffcdd2"/>
  <rect x="6" y="8" width="1" height="1" fill="#fffafc"/>
  <rect x="7" y="8" width="1" height="1" fill="#fffaf7"/>
  <rect x="8" y="8" width="1" height="1" fill="#fffdf2"/>
  <rect x="9" y="8" width="1" height="1" fill="#ffede2"/>
  <rect x="10" y="8" width="1" height="1" fill="#ffb5ba"/>
  <rect x="11" y="8" width="1" height="1" fill="#db4a56"/>
  <rect x="12" y="8" width="1" height="1" fill="#d22937"/>
  <rect x="13" y="8" width="1" height="1" fill="#d9313a"/>
  <rect x="14" y="8" width="1" height="1" fill="#c73431"/>
  <rect x="15" y="8" width="1" height="1" fill="#a61c16f7"/>
  <rect x="0" y="9" width="1" height="1" fill="#a71816f7"/>
  <rect x="1" y="9" width="1" height="1" fill="#c32b2c"/>
  <rect x="2" y="9" width="1" height="1" fill="#da2c32"/>
  <rect x="3" y="9" width="1" height="1" fill="#cb262e"/>
  <rect x="4" y="9" width="1" height="1" fill="#a92b2f"/>
  <rect x="5" y="9" width="1" height="1" fill="#ffcecf"/>
  <rect x="6" y="9" width="1" height="1" fill="#fff1f6"/>
  <rect x="7" y="9" width="1" height="1" fill="#fff2f3"/>
  <rect x="8" y="9" width="1" height="1" fill="#ffd6cf"/>
  <rect x="9" y="9" width="1" height="1" fill="#ce7e77"/>
  <rect x="10" y="9" width="1" height="1" fill="#a82c2f"/>
  <rect x="11" y="9" width="1" height="1" fill="#ca303b"/>
  <rect x="12" y="9" width="1" height="1" fill="#ca212d"/>
  <rect x="13" y="9" width="1" height="1" fill="#ce292e"/>
  <rect x="14" y="9" width="1" height="1" fill="#bb2c26"/>
  <rect x="15" y="9" width="1" height="1" fill="#9a1509f7"/>
  <rect x="0" y="10" width="1" height="1" fill="#a21109f7"/>
  <rect x="1" y="10" width="1" height="1" fill="#be241d"/>
  <rect x="2" y="10" width="1" height="1" fill="#d02823"/>
  <rect x="3" y="10" width="1" height="1" fill="#c3221d"/>
  <rect x="4" y="10" width="1" height="1" fill="#a8221b"/>
  <rect x="5" y="10" width="1" height="1" fill="#ffc3bf"/>
  <rect x="6" y="10" width="1" height="1" fill="#ffd1d3"/>
  <rect x="7" y="10" width="1" height="1" fill="#e3878d"/>
  <rect x="8" y="10" width="1" height="1" fill="#a83133"/>
  <rect x="9" y="10" width="1" height="1" fill="#b12424"/>
  <rect x="10" y="10" width="1" height="1" fill="#c6252c"/>
  <rect x="11" y="10" width="1" height="1" fill="#c91f26"/>
  <rect x="12" y="10" width="1" height="1" fill="#c72122"/>
  <rect x="13" y="10" width="1" height="1" fill="#c62c27"/>
  <rect x="14" y="10" width="1" height="1" fill="#b32f21"/>
  <rect x="15" y="10" width="1" height="1" fill="#921806f7"/>
  <rect x="0" y="11" width="1" height="1" fill="#a20a02f7"/>
  <rect x="1" y="11" width="1" height="1" fill="#ba1e15"/>
  <rect x="2" y="11" width="1" height="1" fill="#cd231b"/>
  <rect x="3" y="11" width="1" height="1" fill="#c21b11"/>
  <rect x="4" y="11" width="1" height="1" fill="#b32117"/>
  <rect x="5" y="11" width="1" height="1" fill="#ff8782"/>
  <rect x="6" y="11" width="1" height="1" fill="#ba3c40"/>
  <rect x="7" y="11" width="1" height="1" fill="#aa2229"/>
  <rect x="8" y="11" width="1" height="1" fill="#bd1d20"/>
  <rect x="9" y="11" width="1" height="1" fill="#c11418"/>
  <rect x="10" y="11" width="1" height="1" fill="#c00e13"/>
  <rect x="11" y="11" width="1" height="1" fill="#c8181a"/>
  <rect x="12" y="11" width="1" height="1" fill="#c31c1c"/>
  <rect x="13" y="11" width="1" height="1" fill="#c02921"/>
  <rect x="14" y="11" width="1" height="1" fill="#af2b1c"/>
  <rect x="15" y="11" width="1" height="1" fill="#8f1201f7"/>
  <rect x="0" y="12" width="1" height="1" fill="#a30401f7"/>
  <rect x="1" y="12" width="1" height="1" fill="#bc1913"/>
  <rect x="2" y="12" width="1" height="1" fill="#cd1c16"/>
  <rect x="3" y="12" width="1" height="1" fill="#c20f07"/>
  <rect x="4" y="12" width="1" height="1" fill="#ba120b"/>
  <rect x="5" y="12" width="1" height="1" fill="#b51411"/>
  <rect x="6" y="12" width="1" height="1" fill="#b61119"/>
  <rect x="7" y="12" width="1" height="1" fill="#b81019"/>
  <rect x="8" y="12" width="1" height="1" fill="#be0e13"/>
  <rect x="9" y="12" width="2" height="1" fill="#c20d0f"/>
  <rect x="11" y="12" width="1" height="1" fill="#be0f11"/>
  <rect x="12" y="12" width="1" height="1" fill="#b50d0c"/>
  <rect x="13" y="12" width="1" height="1" fill="#ba1d1b"/>
  <rect x="14" y="12" width="1" height="1" fill="#ac1d17"/>
  <rect x="15" y="12" width="1" height="1" fill="#950b05f7"/>
  <rect x="0" y="13" width="1" height="1" fill="#990301"/>
  <rect x="1" y="13" width="1" height="1" fill="#b21511"/>
  <rect x="2" y="13" width="1" height="1" fill="#c81c17"/>
  <rect x="3" y="13" width="1" height="1" fill="#c6150f"/>
  <rect x="4" y="13" width="1" height="1" fill="#c0170e"/>
  <rect x="5" y="13" width="1" height="1" fill="#be1614"/>
  <rect x="6" y="13" width="1" height="1" fill="#c1131a"/>
  <rect x="7" y="13" width="1" height="1" fill="#c1131c"/>
  <rect x="8" y="13" width="1" height="1" fill="#c11416"/>
  <rect x="9" y="13" width="1" height="1" fill="#c11514"/>
  <rect x="10" y="13" width="1" height="1" fill="#c11416"/>
  <rect x="11" y="13" width="1" height="1" fill="#c01518"/>
  <rect x="12" y="13" width="1" height="1" fill="#b81318"/>
  <rect x="13" y="13" width="1" height="1" fill="#b5191e"/>
  <rect x="14" y="13" width="1" height="1" fill="#a31518"/>
  <rect x="15" y="13" width="1" height="1" fill="#8e0508"/>
  <rect x="0" y="14" width="1" height="1" fill="#850807a8"/>
  <rect x="1" y="14" width="1" height="1" fill="#960e0cef"/>
  <rect x="2" y="14" width="1" height="1" fill="#ac0f0b"/>
  <rect x="3" y="14" width="1" height="1" fill="#b10e07"/>
  <rect x="4" y="14" width="1" height="1" fill="#ad1108"/>
  <rect x="5" y="14" width="1" height="1" fill="#ab110c"/>
  <rect x="6" y="14" width="1" height="1" fill="#aa1112"/>
  <rect x="7" y="14" width="1" height="1" fill="#aa1115"/>
  <rect x="8" y="14" width="1" height="1" fill="#a8130e"/>
  <rect x="9" y="14" width="1" height="1" fill="#aa120e"/>
  <rect x="10" y="14" width="1" height="1" fill="#b00e12"/>
  <rect x="11" y="14" width="1" height="1" fill="#b00d17"/>
  <rect x="12" y="14" width="1" height="1" fill="#aa0a17"/>
  <rect x="13" y="14" width="1" height="1" fill="#a20e19"/>
  <rect x="14" y="14" width="1" height="1" fill="#910d17ef"/>
  <rect x="15" y="14" width="1" height="1" fill="#830912a8"/>
  <rect x="0" y="15" width="1" height="1" fill="#7e0d0c0f"/>
  <rect x="1" y="15" width="1" height="1" fill="#830605a7"/>
  <rect x="2" y="15" width="1" height="1" fill="#920000f7"/>
  <rect x="3" y="15" width="1" height="1" fill="#970000f7"/>
  <rect x="4" y="15" width="1" height="1" fill="#930000f7"/>
  <rect x="5" y="15" width="1" height="1" fill="#8f0000f7"/>
  <rect x="6" y="15" width="1" height="1" fill="#8e0000f7"/>
  <rect x="7" y="15" width="1" height="1" fill="#8d0000f7"/>
  <rect x="8" y="15" width="1" height="1" fill="#8b0100f7"/>
  <rect x="9" y="15" width="1" height="1" fill="#8e0000f7"/>
  <rect x="10" y="15" width="1" height="1" fill="#980001f7"/>
  <rect x="11" y="15" width="1" height="1" fill="#980004f7"/>
  <rect x="12" y="15" width="1" height="1" fill="#910006f7"/>
  <rect x="13" y="15" width="1" height="1" fill="#89000af7"/>
  <rect x="14" y="15" width="1" height="1" fill="#810411a7"/>
  <rect x="15" y="15" width="1" height="1" fill="#810d190f"/>
</svg>