<svg xmlns="http://www.w3.org/2000/svg" width="68" height="17" viewBox="0 0 68 17" shape-rendering="crispEdges">
  <rect x="7" y="0" width="1" height="1" fill="#3991ce7f"/>
  <rect x="8" y="0" width="1" height="1" fill="#3991cece"/>
  <rect x="13" y="0" width="1" height="1" fill="#3991ce25"/>
  <rect x="14" y="0" width="1" height="1" fill="#3991cee0"/>
  <rect x="15" y="0" width="1" height="1" fill="#3991ced0"/>
  <rect x="24" y="0" width="1" height="1" fill="#3991ce7f"/>
  <rect x="25" y="0" width="1" height="1" fill="#3991cece"/>
  <rect x="30" y="0" width="1" height="1" fill="#3991ce25"/>
  <rect x="31" y="0" width="1" height="1" fill="#3991cee0"/>
  <rect x="32" y="0" width="1" height="1" fill="#3991ced0"/>
  <rect x="58" y="0" width="1" height="1" fill="#3991ce7f"/>
  <rect x="59" y="0" width="1" height="1" fill="#3991cece"/>
  <rect x="64" y="0" width="1" height="1" fill="#3991ce25"/>
  <rect x="65" y="0" width="1" height="1" fill="#3991cee0"/>
  <rect x="66" y="0" width="1" height="1" fill="#3991ced0"/>
  <rect x="6" y="1" width="1" height="1" fill="#3991ce7f"/>
  <rect x="7" y="1" width="2" height="1" fill="#3991ce"/>
  <rect x="12" y="1" width="1" height="1" fill="#3991ce25"/>
  <rect x="13" y="1" width="1" height="1" fill="#3991cee4"/>
  <rect x="14" y="1" width="1" height="1" fill="#3991ce"/>
  <rect x="15" y="1" width="1" height="1" fill="#3991ceb6"/>
  <rect x="23" y="1" width="1" height="1" fill="#3991ce7f"/>
  <rect x="24" y="1" width="2" height="1" fill="#3991ce"/>
  <rect x="29" y="1" width="1" height="1" fill="#3991ce25"/>
  <rect x="30" y="1" width="1" height="1" fill="#3991cee4"/>
  <rect x="31" y="1" width="1" height="1" fill="#3991ce"/>
  <rect x="32" y="1" width="1" height="1" fill="#3991ceb6"/>
  <rect x="42" y="1" width="1" height="1" fill="#3991ce7f"/>
  <rect x="43" y="1" width="1" height="1" fill="#3991cece"/>
  <rect x="48" y="1" width="1" height="1" fill="#3991ce25"/>
  <rect x="49" y="1" width="1" height="1" fill="#3991cee0"/>
  <rect x="50" y="1" width="1" height="1" fill="#3991ced0"/>
  <rect x="57" y="1" width="1" height="1" fill="#3991ce7f"/>
  <rect x="58" y="1" width="2" height="1" fill="#3991ce"/>
  <rect x="63" y="1" width="1" height="1" fill="#3991ce25"/>
  <rect x="64" y="1" width="1" height="1" fill="#3991cee4"/>
  <rect x="65" y="1" width="1" height="1" fill="#3991ce"/>
  <rect x="66" y="1" width="1" height="1" fill="#3991ceb6"/>
  <rect x="5" y="2" width="1" height="1" fill="#3991ce7f"/>
  <rect x="6" y="2" width="3" height="1" fill="#3991ce"/>
  <rect x="11" y="2" width="1" height="1" fill="#3991ce25"/>
  <rect x="12" y="2" width="1" height="1" fill="#3991cee4"/>
  <rect x="13" y="2" width="1" height="1" fill="#3991ce"/>
  <rect x="14" y="2" width="1" height="1" fill="#3991cec0"/>
  <rect x="15" y="2" width="1" height="1" fill="#3991ce0a"/>
  <rect x="22" y="2" width="1" height="1" fill="#3991ce7f"/>
  <rect x="23" y="2" width="3" height="1" fill="#3991ce"/>
  <rect x="28" y="2" width="1" height="1" fill="#3991ce25"/>
  <rect x="29" y="2" width="1" height="1" fill="#3991cee4"/>
  <rect x="30" y="2" width="1" height="1" fill="#3991ce"/>
  <rect x="31" y="2" width="1" height="1" fill="#3991cec0"/>
  <rect x="32" y="2" width="1" height="1" fill="#3991ce0a"/>
  <rect x="41" y="2" width="1" height="1" fill="#3991ce7f"/>
  <rect x="42" y="2" width="2" height="1" fill="#3991ce"/>
  <rect x="47" y="2" width="1" height="1" fill="#3991ce25"/>
  <rect x="48" y="2" width="1" height="1" fill="#3991cee4"/>
  <rect x="49" y="2" width="1" height="1" fill="#3991ce"/>
  <rect x="50" y="2" width="1" height="1" fill="#3991ceb6"/>
  <rect x="56" y="2" width="1" height="1" fill="#3991ce7f"/>
  <rect x="57" y="2" width="3" height="1" fill="#3991ce"/>
  <rect x="62" y="2" width="1" height="1" fill="#3991ce25"/>
  <rect x="63" y="2" width="1" height="1" fill="#3991cee4"/>
  <rect x="64" y="2" width="1" height="1" fill="#3991ce"/>
  <rect x="65" y="2" width="1" height="1" fill="#3991cec0"/>
  <rect x="66" y="2" width="1" height="1" fill="#3991ce0a"/>
  <rect x="4" y="3" width="1" height="1" fill="#3991ce7f"/>
  <rect x="5" y="3" width="4" height="1" fill="#3991ce"/>
  <rect x="11" y="3" width="1" height="1" fill="#3991cec2"/>
  <rect x="12" y="3" width="1" height="1" fill="#3991ce"/>
  <rect x="13" y="3" width="1" height="1" fill="#3991cebf"/>
  <rect x="14" y="3" width="1" height="1" fill="#3991ce0a"/>
  <rect x="21" y="3" width="1" height="1" fill="#3991ce7f"/>
  <rect x="22" y="3" width="4" height="1" fill="#3991ce"/>
  <rect x="28" y="3" width="1" height="1" fill="#3991cec2"/>
  <rect x="29" y="3" width="1" height="1" fill="#3991ce"/>
  <rect x="30" y="3" width="1" height="1" fill="#3991cebf"/>
  <rect x="31" y="3" width="1" height="1" fill="#3991ce0a"/>
  <rect x="40" y="3" width="1" height="1" fill="#3991ce7f"/>
  <rect x="41" y="3" width="3" height="1" fill="#3991ce"/>
  <rect x="46" y="3" width="1" height="1" fill="#3991ce25"/>
  <rect x="47" y="3" width="1" height="1" fill="#3991cee4"/>
  <rect x="48" y="3" width="1" height="1" fill="#3991ce"/>
  <rect x="49" y="3" width="1" height="1" fill="#3991cec0"/>
  <rect x="50" y="3" width="1" height="1" fill="#3991ce0a"/>
  <rect x="55" y="3" width="1" height="1" fill="#3991ce7f"/>
  <rect x="56" y="3" width="4" height="1" fill="#3991ce"/>
  <rect x="62" y="3" width="1" height="1" fill="#3991cec2"/>
  <rect x="63" y="3" width="1" height="1" fill="#3991ce"/>
  <rect x="64" y="3" width="1" height="1" fill="#3991cebf"/>
  <rect x="65" y="3" width="1" height="1" fill="#3991ce0a"/>
  <rect x="0" y="4" width="1" height="1" fill="#3991cec3"/>
  <rect x="1" y="4" width="5" height="1" fill="#3991ce"/>
  <rect x="6" y="4" width="1" height="1" fill="#3991ce80"/>
  <rect x="7" y="4" width="2" height="8" fill="#3991ce"/>
  <rect x="11" y="4" width="1" height="1" fill="#3991ce63"/>
  <rect x="12" y="4" width="1" height="1" fill="#3991ce9a"/>
  <rect x="13" y="4" width="1" height="1" fill="#3991ce0a"/>
  <rect x="17" y="4" width="1" height="1" fill="#3991cec3"/>
  <rect x="18" y="4" width="5" height="1" fill="#3991ce"/>
  <rect x="23" y="4" width="1" height="1" fill="#3991ce80"/>
  <rect x="24" y="4" width="2" height="8" fill="#3991ce"/>
  <rect x="28" y="4" width="1" height="1" fill="#3991ce63"/>
  <rect x="29" y="4" width="1" height="1" fill="#3991ce9a"/>
  <rect x="30" y="4" width="1" height="1" fill="#3991ce0a"/>
  <rect x="39" y="4" width="1" height="1" fill="#3991ce7f"/>
  <rect x="40" y="4" width="4" height="1" fill="#3991ce"/>
  <rect x="46" y="4" width="1" height="1" fill="#3991cec2"/>
  <rect x="47" y="4" width="1" height="1" fill="#3991ce"/>
  <rect x="48" y="4" width="1" height="1" fill="#3991cebf"/>
  <rect x="49" y="4" width="1" height="1" fill="#3991ce0a"/>
  <rect x="51" y="4" width="1" height="1" fill="#3991cec3"/>
  <rect x="52" y="4" width="5" height="1" fill="#3991ce"/>
  <rect x="57" y="4" width="1" height="1" fill="#3991ce80"/>
  <rect x="58" y="4" width="2" height="8" fill="#3991ce"/>
  <rect x="62" y="4" width="1" height="1" fill="#3991ce63"/>
  <rect x="63" y="4" width="1" height="1" fill="#3991ce9a"/>
  <rect x="64" y="4" width="1" height="1" fill="#3991ce0a"/>
  <rect x="0" y="5" width="5" height="1" fill="#3991ce"/>
  <rect x="5" y="5" width="1" height="1" fill="#3991ce80"/>
  <rect x="17" y="5" width="5" height="1" fill="#3991ce"/>
  <rect x="22" y="5" width="1" height="1" fill="#3991ce80"/>
  <rect x="35" y="5" width="1" height="1" fill="#3991cec3"/>
  <rect x="36" y="5" width="5" height="1" fill="#3991ce"/>
  <rect x="41" y="5" width="1" height="1" fill="#3991ce80"/>
  <rect x="42" y="5" width="2" height="8" fill="#3991ce"/>
  <rect x="46" y="5" width="1" height="1" fill="#3991ce63"/>
  <rect x="47" y="5" width="1" height="1" fill="#3991ce9a"/>
  <rect x="48" y="5" width="1" height="1" fill="#3991ce0a"/>
  <rect x="51" y="5" width="5" height="1" fill="#3991ce"/>
  <rect x="56" y="5" width="1" height="1" fill="#3991ce80"/>
  <rect x="0" y="6" width="2" height="4" fill="#3991ce"/>
  <rect x="17" y="6" width="2" height="4" fill="#3991ce"/>
  <rect x="35" y="6" width="5" height="1" fill="#3991ce"/>
  <rect x="40" y="6" width="1" height="1" fill="#3991ce80"/>
  <rect x="51" y="6" width="2" height="4" fill="#3991ce"/>
  <rect x="10" y="7" width="1" height="2" fill="#3991cec3"/>
  <rect x="11" y="7" width="4" height="2" fill="#3991ce"/>
  <rect x="15" y="7" width="1" height="1" fill="#3991cec3"/>
  <rect x="27" y="7" width="1" height="2" fill="#3991cec3"/>
  <rect x="28" y="7" width="4" height="2" fill="#3991ce"/>
  <rect x="32" y="7" width="1" height="1" fill="#3991cec3"/>
  <rect x="35" y="7" width="2" height="4" fill="#3991ce"/>
  <rect x="61" y="7" width="1" height="2" fill="#3991cec3"/>
  <rect x="62" y="7" width="4" height="2" fill="#3991ce"/>
  <rect x="66" y="7" width="1" height="1" fill="#3991cec3"/>
  <rect x="15" y="8" width="1" height="1" fill="#3991cec4"/>
  <rect x="32" y="8" width="1" height="1" fill="#3991cec4"/>
  <rect x="45" y="8" width="1" height="2" fill="#3991cec3"/>
  <rect x="46" y="8" width="4" height="2" fill="#3991ce"/>
  <rect x="50" y="8" width="1" height="1" fill="#3991cec3"/>
  <rect x="66" y="8" width="1" height="1" fill="#3991cec4"/>
  <rect x="50" y="9" width="1" height="1" fill="#3991cec4"/>
  <rect x="0" y="10" width="5" height="1" fill="#3991ce"/>
  <rect x="5" y="10" width="1" height="1" fill="#3991ce7f"/>
  <rect x="17" y="10" width="5" height="1" fill="#3991ce"/>
  <rect x="22" y="10" width="1" height="1" fill="#3991ce7f"/>
  <rect x="51" y="10" width="5" height="1" fill="#3991ce"/>
  <rect x="56" y="10" width="1" height="1" fill="#3991ce7f"/>
  <rect x="0" y="11" width="1" height="1" fill="#3991cec3"/>
  <rect x="1" y="11" width="5" height="1" fill="#3991ce"/>
  <rect x="6" y="11" width="1" height="1" fill="#3991ce7f"/>
  <rect x="11" y="11" width="1" height="1" fill="#3991ce58"/>
  <rect x="12" y="11" width="1" height="1" fill="#3991cea1"/>
  <rect x="13" y="11" width="1" height="1" fill="#3991ce0f"/>
  <rect x="17" y="11" width="1" height="1" fill="#3991cec3"/>
  <rect x="18" y="11" width="5" height="1" fill="#3991ce"/>
  <rect x="23" y="11" width="1" height="1" fill="#3991ce7f"/>
  <rect x="28" y="11" width="1" height="1" fill="#3991ce58"/>
  <rect x="29" y="11" width="1" height="1" fill="#3991cea1"/>
  <rect x="30" y="11" width="1" height="1" fill="#3991ce0f"/>
  <rect x="35" y="11" width="5" height="1" fill="#3991ce"/>
  <rect x="40" y="11" width="1" height="1" fill="#3991ce7f"/>
  <rect x="51" y="11" width="1" height="1" fill="#3991cec3"/>
  <rect x="52" y="11" width="5" height="1" fill="#3991ce"/>
  <rect x="57" y="11" width="1" height="1" fill="#3991ce7f"/>
  <rect x="62" y="11" width="1" height="1" fill="#3991ce58"/>
  <rect x="63" y="11" width="1" height="1" fill="#3991cea1"/>
  <rect x="64" y="11" width="1" height="1" fill="#3991ce0f"/>
  <rect x="4" y="12" width="1" height="1" fill="#3991ce80"/>
  <rect x="5" y="12" width="4" height="1" fill="#3991ce"/>
  <rect x="11" y="12" width="1" height="1" fill="#3991ceb3"/>
  <rect x="12" y="12" width="1" height="1" fill="#3991ce"/>
  <rect x="13" y="12" width="1" height="1" fill="#3991cec9"/>
  <rect x="14" y="12" width="1" height="1" fill="#3991ce0f"/>
  <rect x="21" y="12" width="1" height="1" fill="#3991ce80"/>
  <rect x="22" y="12" width="4" height="1" fill="#3991ce"/>
  <rect x="28" y="12" width="1" height="1" fill="#3991ceb3"/>
  <rect x="29" y="12" width="1" height="1" fill="#3991ce"/>
  <rect x="30" y="12" width="1" height="1" fill="#3991cec9"/>
  <rect x="31" y="12" width="1" height="1" fill="#3991ce0f"/>
  <rect x="35" y="12" width="1" height="1" fill="#3991cec3"/>
  <rect x="36" y="12" width="5" height="1" fill="#3991ce"/>
  <rect x="41" y="12" width="1" height="1" fill="#3991ce7f"/>
  <rect x="46" y="12" width="1" height="1" fill="#3991ce58"/>
  <rect x="47" y="12" width="1" height="1" fill="#3991cea1"/>
  <rect x="48" y="12" width="1" height="1" fill="#3991ce0f"/>
  <rect x="55" y="12" width="1" height="1" fill="#3991ce80"/>
  <rect x="56" y="12" width="4" height="1" fill="#3991ce"/>
  <rect x="62" y="12" width="1" height="1" fill="#3991ceb3"/>
  <rect x="63" y="12" width="1" height="1" fill="#3991ce"/>
  <rect x="64" y="12" width="1" height="1" fill="#3991cec9"/>
  <rect x="65" y="12" width="1" height="1" fill="#3991ce0f"/>
  <rect x="5" y="13" width="1" height="1" fill="#3991ce80"/>
  <rect x="6" y="13" width="3" height="1" fill="#3991ce"/>
  <rect x="11" y="13" width="1" height="1" fill="#3991ce1d"/>
  <rect x="12" y="13" width="1" height="1" fill="#3991cedc"/>
  <rect x="13" y="13" width="1" height="1" fill="#3991ce"/>
  <rect x="14" y="13" width="1" height="1" fill="#3991ceca"/>
  <rect x="15" y="13" width="1" height="1" fill="#3991ce0f"/>
  <rect x="22" y="13" width="1" height="1" fill="#3991ce80"/>
  <rect x="23" y="13" width="3" height="1" fill="#3991ce"/>
  <rect x="28" y="13" width="1" height="1" fill="#3991ce1d"/>
  <rect x="29" y="13" width="1" height="1" fill="#3991cedc"/>
  <rect x="30" y="13" width="1" height="1" fill="#3991ce"/>
  <rect x="31" y="13" width="1" height="1" fill="#3991ceca"/>
  <rect x="32" y="13" width="1" height="1" fill="#3991ce0f"/>
  <rect x="39" y="13" width="1" height="1" fill="#3991ce80"/>
  <rect x="40" y="13" width="4" height="1" fill="#3991ce"/>
  <rect x="46" y="13" width="1" height="1" fill="#3991ceb3"/>
  <rect x="47" y="13" width="1" height="1" fill="#3991ce"/>
  <rect x="48" y="13" width="1" height="1" fill="#3991cec9"/>
  <rect x="49" y="13" width="1" height="1" fill="#3991ce0f"/>
  <rect x="56" y="13" width="1" height="1" fill="#3991ce80"/>
  <rect x="57" y="13" width="3" height="1" fill="#3991ce"/>
  <rect x="62" y="13" width="1" height="1" fill="#3991ce1d"/>
  <rect x="63" y="13" width="1" height="1" fill="#3991cedc"/>
  <rect x="64" y="13" width="1" height="1" fill="#3991ce"/>
  <rect x="65" y="13" width="1" height="1" fill="#3991ceca"/>
  <rect x="66" y="13" width="1" height="1" fill="#3991ce0f"/>
  <rect x="6" y="14" width="1" height="1" fill="#3991ce80"/>
  <rect x="7" y="14" width="2" height="1" fill="#3991ce"/>
  <rect x="12" y="14" width="1" height="1" fill="#3991ce1d"/>
  <rect x="13" y="14" width="1" height="1" fill="#3991cedc"/>
  <rect x="14" y="14" width="1" height="1" fill="#3991ce"/>
  <rect x="15" y="14" width="1" height="1" fill="#3991cec6"/>
  <rect x="23" y="14" width="1" height="1" fill="#3991ce80"/>
  <rect x="24" y="14" width="2" height="1" fill="#3991ce"/>
  <rect x="29" y="14" width="1" height="1" fill="#3991ce1d"/>
  <rect x="30" y="14" width="1" height="1" fill="#3991cedc"/>
  <rect x="31" y="14" width="1" height="1" fill="#3991ce"/>
  <rect x="32" y="14" width="1" height="1" fill="#3991cec6"/>
  <rect x="40" y="14" width="1" height="1" fill="#3991ce80"/>
  <rect x="41" y="14" width="3" height="1" fill="#3991ce"/>
  <rect x="46" y="14" width="1" height="1" fill="#3991ce1d"/>
  <rect x="47" y="14" width="1" height="1" fill="#3991cedc"/>
  <rect x="48" y="14" width="1" height="1" fill="#3991ce"/>
  <rect x="49" y="14" width="1" height="1" fill="#3991ceca"/>
  <rect x="50" y="14" width="1" height="1" fill="#3991ce0f"/>
  <rect x="57" y="14" width="1" height="1" fill="#3991ce80"/>
  <rect x="58" y="14" width="2" height="1" fill="#3991ce"/>
  <rect x="63" y="14" width="1" height="1" fill="#3991ce1d"/>
  <rect x="64" y="14" width="1" height="1" fill="#3991cedc"/>
  <rect x="65" y="14" width="1" height="1" fill="#3991ce"/>
  <rect x="66" y="14" width="1" height="1" fill="#3991cec6"/>
  <rect x="7" y="15" width="1" height="1" fill="#3991ce80"/>
  <rect x="8" y="15" width="1" height="1" fill="#3991cece"/>
  <rect x="13" y="15" width="1" height="1" fill="#3991ce1d"/>
  <rect x="14" y="15" width="1" height="1" fill="#3991ced9"/>
  <rect x="15" y="15" width="1" height="1" fill="#3991cedf"/>
  <rect x="24" y="15" width="1" height="1" fill="#3991ce80"/>
  <rect x="25" y="15" width="1" height="1" fill="#3991cece"/>
  <rect x="30" y="15" width="1" height="1" fill="#3991ce1d"/>
  <rect x="31" y="15" width="1" height="1" fill="#3991ced9"/>
  <rect x="32" y="15" width="1" height="1" fill="#3991cedf"/>
  <rect x="41" y="15" width="1" height="1" fill="#3991ce80"/>
  <rect x="42" y="15" width="2" height="1" fill="#3991ce"/>
  <rect x="47" y="15" width="1" height="1" fill="#3991ce1d"/>
  <rect x="48" y="15" width="1" height="1" fill="#3991cedc"/>
  <rect x="49" y="15" width="1" height="1" fill="#3991ce"/>
  <rect x="50" y="15" width="1" height="1" fill="#3991cec6"/>
  <rect x="58" y="15" width="1" height="1" fill="#3991ce80"/>
  <rect x="59" y="15" width="1" height="1" fill="#3991cece"/>
  <rect x="64" y="15" width="1" height="1" fill="#3991ce1d"/>
  <rect x="65" y="15" width="1" height="1" fill="#3991ced9"/>
  <rect x="66" y="15" width="1" height="1" fill="#3991cedf"/>
  <rect x="42" y="16" width="1" height="1" fill="#3991ce80"/>
  <rect x="43" y="16" width="1" height="1" fill="#3991cece"/>
  <rect x="48" y="16" width="1" height="1" fill="#3991ce1d"/>
  <rect x="49" y="16" width="1" height="1" fill="#3991ced9"/>
  <rect x="50" y="16" width="1" height="1" fill="#3991cedf"/>
</svg>