<svg xmlns="http://www.w3.org/2000/svg" width="64" height="16" viewBox="0 0 64 16" shape-rendering="crispEdges">
  <rect x="7" y="4" width="2" height="1" fill="#858b8d0d"/>
  <rect x="23" y="4" width="2" height="1" fill="#979b9e0d"/>
  <rect x="55" y="4" width="1" height="1" fill="#838c8d0d"/>
  <rect x="56" y="4" width="1" height="1" fill="#858b8d0d"/>
  <rect x="6" y="5" width="1" height="1" fill="#838c8d18"/>
  <rect x="7" y="5" width="2" height="1" fill="#838c8ded"/>
  <rect x="9" y="5" width="1" height="1" fill="#838c8d17"/>
  <rect x="22" y="5" width="1" height="1" fill="#979aa018"/>
  <rect x="23" y="5" width="2" height="1" fill="#959ba0ed"/>
  <rect x="25" y="5" width="1" height="1" fill="#939ca017"/>
  <rect x="39" y="5" width="2" height="1" fill="#909ca60d"/>
  <rect x="54" y="5" width="1" height="1" fill="#818d8d18"/>
  <rect x="55" y="5" width="2" height="1" fill="#818d8ded"/>
  <rect x="57" y="5" width="1" height="1" fill="#818d8d17"/>
  <rect x="5" y="6" width="1" height="1" fill="#818c8f16"/>
  <rect x="6" y="6" width="1" height="1" fill="#818c8fd4"/>
  <rect x="7" y="6" width="2" height="1" fill="#818c8f"/>
  <rect x="9" y="6" width="1" height="1" fill="#818c8fd4"/>
  <rect x="10" y="6" width="1" height="1" fill="#818c8f15"/>
  <rect x="21" y="6" width="1" height="1" fill="#959ba216"/>
  <rect x="22" y="6" width="1" height="1" fill="#959ba2d4"/>
  <rect x="23" y="6" width="2" height="1" fill="#939ba2"/>
  <rect x="25" y="6" width="1" height="1" fill="#929ca2d4"/>
  <rect x="26" y="6" width="1" height="1" fill="#929ca215"/>
  <rect x="38" y="6" width="1" height="1" fill="#8f9da618"/>
  <rect x="39" y="6" width="2" height="1" fill="#8d9da8ed"/>
  <rect x="41" y="6" width="1" height="1" fill="#8f9da617"/>
  <rect x="53" y="6" width="1" height="1" fill="#808d8d16"/>
  <rect x="54" y="6" width="1" height="1" fill="#808d8dd4"/>
  <rect x="55" y="6" width="2" height="1" fill="#808d8d"/>
  <rect x="57" y="6" width="1" height="1" fill="#808d8dd4"/>
  <rect x="58" y="6" width="1" height="1" fill="#808d8d15"/>
  <rect x="4" y="7" width="1" height="1" fill="#808d8f16"/>
  <rect x="5" y="7" width="1" height="1" fill="#808d8fd4"/>
  <rect x="6" y="7" width="1" height="1" fill="#808d8f"/>
  <rect x="7" y="7" width="2" height="1" fill="#808d8fd4"/>
  <rect x="9" y="7" width="1" height="1" fill="#808d8f"/>
  <rect x="10" y="7" width="1" height="1" fill="#808d8fd4"/>
  <rect x="11" y="7" width="1" height="1" fill="#808d8f15"/>
  <rect x="20" y="7" width="1" height="1" fill="#939ba216"/>
  <rect x="21" y="7" width="1" height="1" fill="#939ba2d4"/>
  <rect x="22" y="7" width="1" height="1" fill="#939ba2"/>
  <rect x="23" y="7" width="2" height="1" fill="#929ca2d4"/>
  <rect x="25" y="7" width="1" height="1" fill="#929ca2"/>
  <rect x="26" y="7" width="1" height="1" fill="#909da2d4"/>
  <rect x="27" y="7" width="1" height="1" fill="#909da215"/>
  <rect x="37" y="7" width="1" height="1" fill="#8f9da416"/>
  <rect x="38" y="7" width="1" height="1" fill="#8b9fa4d4"/>
  <rect x="39" y="7" width="2" height="1" fill="#8b9fa6"/>
  <rect x="41" y="7" width="1" height="1" fill="#8b9fa6d4"/>
  <rect x="42" y="7" width="1" height="1" fill="#8f9da415"/>
  <rect x="52" y="7" width="1" height="1" fill="#7e8e8d16"/>
  <rect x="53" y="7" width="1" height="1" fill="#7e8e8dd4"/>
  <rect x="54" y="7" width="1" height="1" fill="#7e8e8d"/>
  <rect x="55" y="7" width="2" height="1" fill="#7e8e8dd4"/>
  <rect x="57" y="7" width="1" height="1" fill="#7e8e8d"/>
  <rect x="58" y="7" width="1" height="1" fill="#7e8e8dd4"/>
  <rect x="59" y="7" width="1" height="1" fill="#7e8e8d15"/>
  <rect x="3" y="8" width="1" height="1" fill="#808d8f16"/>
  <rect x="4" y="8" width="1" height="1" fill="#808d8fd4"/>
  <rect x="5" y="8" width="1" height="1" fill="#808d8f"/>
  <rect x="6" y="8" width="1" height="1" fill="#808d8fd4"/>
  <rect x="7" y="8" width="1" height="1" fill="#808d8f15"/>
  <rect x="8" y="8" width="1" height="1" fill="#808d9115"/>
  <rect x="9" y="8" width="1" height="1" fill="#808d91d4"/>
  <rect x="10" y="8" width="1" height="1" fill="#808d91"/>
  <rect x="11" y="8" width="1" height="1" fill="#808d91d4"/>
  <rect x="12" y="8" width="1" height="1" fill="#808d9115"/>
  <rect x="19" y="8" width="1" height="1" fill="#929ca216"/>
  <rect x="20" y="8" width="1" height="1" fill="#929ca2d4"/>
  <rect x="21" y="8" width="1" height="1" fill="#929ca2"/>
  <rect x="22" y="8" width="1" height="1" fill="#929ca2d4"/>
  <rect x="23" y="8" width="2" height="1" fill="#909da215"/>
  <rect x="25" y="8" width="1" height="1" fill="#909da2d4"/>
  <rect x="26" y="8" width="1" height="1" fill="#909da2"/>
  <rect x="27" y="8" width="1" height="1" fill="#909da2d4"/>
  <rect x="28" y="8" width="1" height="1" fill="#909da215"/>
  <rect x="36" y="8" width="1" height="1" fill="#8f9da416"/>
  <rect x="37" y="8" width="1" height="1" fill="#8d9fa2d4"/>
  <rect x="38" y="8" width="1" height="1" fill="#8b9fa2"/>
  <rect x="39" y="8" width="1" height="1" fill="#8aa0a2d4"/>
  <rect x="40" y="8" width="1" height="1" fill="#8aa0a4d4"/>
  <rect x="41" y="8" width="1" height="1" fill="#8aa0a4"/>
  <rect x="42" y="8" width="1" height="1" fill="#8d9ea4d4"/>
  <rect x="43" y="8" width="1" height="1" fill="#8f9ea215"/>
  <rect x="51" y="8" width="1" height="1" fill="#7d8f8d16"/>
  <rect x="52" y="8" width="1" height="1" fill="#7d8f8dd4"/>
  <rect x="53" y="8" width="1" height="1" fill="#7d8f8d"/>
  <rect x="54" y="8" width="1" height="1" fill="#7d8f8dd4"/>
  <rect x="55" y="8" width="2" height="1" fill="#7d8f8d15"/>
  <rect x="57" y="8" width="1" height="1" fill="#7d8f8dd4"/>
  <rect x="58" y="8" width="1" height="1" fill="#7d8f8d"/>
  <rect x="59" y="8" width="1" height="1" fill="#7e8e8dd4"/>
  <rect x="60" y="8" width="1" height="1" fill="#7e8e8d15"/>
  <rect x="3" y="9" width="1" height="1" fill="#808d8fd2"/>
  <rect x="4" y="9" width="1" height="1" fill="#808d8f"/>
  <rect x="5" y="9" width="1" height="1" fill="#808d8fd4"/>
  <rect x="6" y="9" width="1" height="1" fill="#808d8f15"/>
  <rect x="9" y="9" width="1" height="1" fill="#808d9115"/>
  <rect x="10" y="9" width="1" height="1" fill="#808d91d4"/>
  <rect x="11" y="9" width="1" height="1" fill="#808d91"/>
  <rect x="12" y="9" width="1" height="1" fill="#808d91d2"/>
  <rect x="19" y="9" width="1" height="1" fill="#909da2d2"/>
  <rect x="20" y="9" width="1" height="1" fill="#929ca2"/>
  <rect x="21" y="9" width="1" height="1" fill="#929ca2d4"/>
  <rect x="22" y="9" width="1" height="1" fill="#909da215"/>
  <rect x="25" y="9" width="1" height="1" fill="#909da215"/>
  <rect x="26" y="9" width="1" height="1" fill="#909da2d4"/>
  <rect x="27" y="9" width="1" height="1" fill="#909da2"/>
  <rect x="28" y="9" width="1" height="1" fill="#909da2d2"/>
  <rect x="35" y="9" width="1" height="1" fill="#909da416"/>
  <rect x="36" y="9" width="1" height="1" fill="#8f9da4d4"/>
  <rect x="37" y="9" width="1" height="1" fill="#8d9fa2"/>
  <rect x="38" y="9" width="1" height="1" fill="#8ba0a0d4"/>
  <rect x="39" y="9" width="1" height="1" fill="#8ba0a015"/>
  <rect x="40" y="9" width="1" height="1" fill="#8b9fa215"/>
  <rect x="41" y="9" width="1" height="1" fill="#8b9fa4d4"/>
  <rect x="42" y="9" width="1" height="1" fill="#8b9fa4"/>
  <rect x="43" y="9" width="1" height="1" fill="#8f9ea2d4"/>
  <rect x="44" y="9" width="1" height="1" fill="#909da015"/>
  <rect x="51" y="9" width="1" height="1" fill="#7e8e8dd2"/>
  <rect x="52" y="9" width="1" height="1" fill="#7e8e8d"/>
  <rect x="53" y="9" width="1" height="1" fill="#7e8e8dd4"/>
  <rect x="54" y="9" width="1" height="1" fill="#7e8e8d15"/>
  <rect x="57" y="9" width="1" height="1" fill="#7e8e8d15"/>
  <rect x="58" y="9" width="1" height="1" fill="#7e8e8dd4"/>
  <rect x="59" y="9" width="1" height="1" fill="#7e8e8d"/>
  <rect x="60" y="9" width="1" height="1" fill="#7e8e8dd2"/>
  <rect x="2" y="10" width="1" height="1" fill="#818c8f0c"/>
  <rect x="3" y="10" width="1" height="1" fill="#818c8fed"/>
  <rect x="4" y="10" width="1" height="1" fill="#818c8fd1"/>
  <rect x="5" y="10" width="1" height="1" fill="#818c8f15"/>
  <rect x="10" y="10" width="1" height="1" fill="#818c8f15"/>
  <rect x="11" y="10" width="1" height="1" fill="#818c8fd1"/>
  <rect x="12" y="10" width="1" height="1" fill="#818c8fed"/>
  <rect x="13" y="10" width="1" height="1" fill="#818c8f0c"/>
  <rect x="18" y="10" width="1" height="1" fill="#929da00c"/>
  <rect x="19" y="10" width="1" height="1" fill="#929da0ed"/>
  <rect x="20" y="10" width="1" height="1" fill="#929da0d1"/>
  <rect x="21" y="10" width="1" height="1" fill="#929da015"/>
  <rect x="26" y="10" width="1" height="1" fill="#929da015"/>
  <rect x="27" y="10" width="1" height="1" fill="#929da0d1"/>
  <rect x="28" y="10" width="1" height="1" fill="#929da0ed"/>
  <rect x="29" y="10" width="1" height="1" fill="#929da00c"/>
  <rect x="35" y="10" width="1" height="1" fill="#8f9da4d2"/>
  <rect x="36" y="10" width="1" height="1" fill="#8d9ea4"/>
  <rect x="37" y="10" width="1" height="1" fill="#8d9fa2d4"/>
  <rect x="38" y="10" width="1" height="1" fill="#8f9ea015"/>
  <rect x="41" y="10" width="1" height="1" fill="#8f9ea215"/>
  <rect x="42" y="10" width="1" height="1" fill="#8d9ea4d4"/>
  <rect x="43" y="10" width="1" height="1" fill="#8d9fa2"/>
  <rect x="44" y="10" width="1" height="1" fill="#8f9ea0d2"/>
  <rect x="50" y="10" width="1" height="1" fill="#808d8d0c"/>
  <rect x="51" y="10" width="1" height="1" fill="#808d8ded"/>
  <rect x="52" y="10" width="1" height="1" fill="#808d8dd1"/>
  <rect x="53" y="10" width="1" height="1" fill="#808d8d15"/>
  <rect x="58" y="10" width="1" height="1" fill="#808d8d15"/>
  <rect x="59" y="10" width="1" height="1" fill="#808d8dd1"/>
  <rect x="60" y="10" width="1" height="1" fill="#808d8ded"/>
  <rect x="61" y="10" width="1" height="1" fill="#808d8d0c"/>
  <rect x="3" y="11" width="1" height="1" fill="#838c8d0d"/>
  <rect x="12" y="11" width="1" height="1" fill="#838c8d0d"/>
  <rect x="19" y="11" width="1" height="1" fill="#939c9e0d"/>
  <rect x="28" y="11" width="1" height="1" fill="#939c9e0d"/>
  <rect x="34" y="11" width="1" height="1" fill="#929ca20c"/>
  <rect x="35" y="11" width="1" height="1" fill="#8f9da4ed"/>
  <rect x="36" y="11" width="1" height="1" fill="#8d9ea4d1"/>
  <rect x="37" y="11" width="1" height="1" fill="#8f9ea215"/>
  <rect x="42" y="11" width="1" height="1" fill="#8f9ea215"/>
  <rect x="43" y="11" width="1" height="1" fill="#8d9fa2d1"/>
  <rect x="44" y="11" width="1" height="1" fill="#8f9ea0ed"/>
  <rect x="45" y="11" width="1" height="1" fill="#929d9e0c"/>
  <rect x="51" y="11" width="1" height="1" fill="#818d8d0d"/>
  <rect x="60" y="11" width="1" height="1" fill="#818d8d0d"/>
  <rect x="35" y="12" width="1" height="1" fill="#909da20d"/>
  <rect x="44" y="12" width="1" height="1" fill="#909da00d"/>
</svg>