<svg xmlns="http://www.w3.org/2000/svg" width="18" height="18" viewBox="0 0 18 18" shape-rendering="crispEdges">
  <rect x="2" y="0" width="1" height="1" fill="#00004115"/>
  <rect x="3" y="0" width="1" height="1" fill="#0000461e"/>
  <rect x="4" y="0" width="1" height="1" fill="#00004220"/>
  <rect x="5" y="0" width="1" height="1" fill="#00003820"/>
  <rect x="6" y="0" width="1" height="1" fill="#00073220"/>
  <rect x="7" y="0" width="1" height="1" fill="#00062420"/>
  <rect x="8" y="0" width="1" height="1" fill="#00001820"/>
  <rect x="9" y="0" width="1" height="1" fill="#00021020"/>
  <rect x="10" y="0" width="1" height="1" fill="#00060c20"/>
  <rect x="11" y="0" width="1" height="1" fill="#00080a20"/>
  <rect x="12" y="0" width="1" height="1" fill="#00090e20"/>
  <rect x="13" y="0" width="1" height="1" fill="#00071420"/>
  <rect x="14" y="0" width="1" height="1" fill="#000d2a1e"/>
  <rect x="15" y="0" width="1" height="1" fill="#0007311d"/>
  <rect x="16" y="0" width="1" height="1" fill="#00043917"/>
  <rect x="1" y="1" width="1" height="1" fill="#182b5b30"/>
  <rect x="2" y="1" width="1" height="1" fill="#4a5d9dd1"/>
  <rect x="3" y="1" width="1" height="1" fill="#4e62a9"/>
  <rect x="4" y="1" width="1" height="1" fill="#5e75b8"/>
  <rect x="5" y="1" width="1" height="1" fill="#617cb3"/>
  <rect x="6" y="1" width="1" height="1" fill="#5c7b9c"/>
  <rect x="7" y="1" width="1" height="1" fill="#809cb0"/>
  <rect x="8" y="1" width="1" height="1" fill="#d5e4f8"/>
  <rect x="9" y="1" width="1" height="1" fill="#e0ecfa"/>
  <rect x="10" y="1" width="1" height="1" fill="#deeff7"/>
  <rect x="11" y="1" width="1" height="1" fill="#d5ebf3"/>
  <rect x="12" y="1" width="1" height="1" fill="#d5eefc"/>
  <rect x="13" y="1" width="1" height="1" fill="#a1bad4"/>
  <rect x="14" y="1" width="1" height="1" fill="#526e94f5"/>
  <rect x="15" y="1" width="1" height="1" fill="#445e90df"/>
  <rect x="16" y="1" width="1" height="1" fill="#475c92"/>
  <rect x="17" y="1" width="1" height="1" fill="#00003816"/>
  <rect x="0" y="2" width="1" height="1" fill="#00072b15"/>
  <rect x="1" y="2" width="1" height="1" fill="#46618fd1"/>
  <rect x="2" y="2" width="1" height="1" fill="#556aac"/>
  <rect x="3" y="2" width="1" height="1" fill="#697bc2"/>
  <rect x="4" y="2" width="1" height="1" fill="#7282c3"/>
  <rect x="5" y="2" width="1" height="1" fill="#8697c6"/>
  <rect x="6" y="2" width="1" height="1" fill="#c5dbec"/>
  <rect x="7" y="2" width="1" height="1" fill="#e3f6fb"/>
  <rect x="8" y="2" width="1" height="1" fill="#ecfdff"/>
  <rect x="9" y="2" width="1" height="1" fill="#e4f4ff"/>
  <rect x="10" y="2" width="1" height="1" fill="#e0f2ff"/>
  <rect x="11" y="2" width="1" height="1" fill="#e3f9ff"/>
  <rect x="12" y="2" width="1" height="1" fill="#8ca4c5"/>
  <rect x="13" y="2" width="1" height="1" fill="#607ba8"/>
  <rect x="14" y="2" width="1" height="1" fill="#5c76b4"/>
  <rect x="15" y="2" width="1" height="1" fill="#5672b4"/>
  <rect x="16" y="2" width="1" height="1" fill="#38518dd4"/>
  <rect x="17" y="2" width="1" height="1" fill="#0007401c"/>
  <rect x="0" y="3" width="1" height="1" fill="#00072f1e"/>
  <rect x="1" y="3" width="1" height="1" fill="#4c6795"/>
  <rect x="2" y="3" width="1" height="1" fill="#677eb6"/>
  <rect x="3" y="3" width="1" height="1" fill="#6779b3"/>
  <rect x="4" y="3" width="1" height="1" fill="#b5c4f5"/>
  <rect x="5" y="3" width="1" height="1" fill="#ddeaff"/>
  <rect x="6" y="3" width="1" height="1" fill="#ecf8ff"/>
  <rect x="7" y="3" width="1" height="1" fill="#e6f6f5"/>
  <rect x="8" y="3" width="1" height="1" fill="#eeffff"/>
  <rect x="9" y="3" width="1" height="1" fill="#efffff"/>
  <rect x="10" y="3" width="1" height="1" fill="#c5daf0"/>
  <rect x="11" y="3" width="1" height="1" fill="#819abb"/>
  <rect x="12" y="3" width="1" height="1" fill="#6883b0"/>
  <rect x="13" y="3" width="1" height="1" fill="#6886c0"/>
  <rect x="14" y="3" width="1" height="1" fill="#607dc5"/>
  <rect x="15" y="3" width="1" height="1" fill="#627fca"/>
  <rect x="16" y="3" width="1" height="1" fill="#4864a4f5"/>
  <rect x="17" y="3" width="1" height="1" fill="#0005401d"/>
  <rect x="0" y="4" width="1" height="1" fill="#00033420"/>
  <rect x="1" y="4" width="1" height="1" fill="#5c729f"/>
  <rect x="2" y="4" width="1" height="1" fill="#859ac1"/>
  <rect x="3" y="4" width="1" height="1" fill="#ccdefe"/>
  <rect x="4" y="4" width="1" height="1" fill="#ecf8ff"/>
  <rect x="5" y="4" width="1" height="1" fill="#e8f1ff"/>
  <rect x="6" y="4" width="1" height="1" fill="#f2f9ff"/>
  <rect x="7" y="4" width="1" height="1" fill="#eaf4fc"/>
  <rect x="8" y="4" width="1" height="1" fill="#ecffff"/>
  <rect x="9" y="4" width="1" height="1" fill="#c1d9ea"/>
  <rect x="10" y="4" width="1" height="1" fill="#819bb6"/>
  <rect x="11" y="4" width="1" height="1" fill="#7a95be"/>
  <rect x="12" y="4" width="1" height="1" fill="#7292ca"/>
  <rect x="13" y="4" width="1" height="1" fill="#6687c9"/>
  <rect x="14" y="4" width="1" height="1" fill="#5c80c8"/>
  <rect x="15" y="4" width="1" height="1" fill="#5f81ca"/>
  <rect x="16" y="4" width="1" height="1" fill="#4e6aab"/>
  <rect x="17" y="4" width="1" height="1" fill="#00013f20"/>
  <rect x="0" y="5" width="1" height="1" fill="#00002820"/>
  <rect x="1" y="5" width="1" height="1" fill="#8694b8"/>
  <rect x="2" y="5" width="1" height="1" fill="#ddebff"/>
  <rect x="3" y="5" width="1" height="1" fill="#eefbff"/>
  <rect x="4" y="5" width="1" height="1" fill="#e5f1fb"/>
  <rect x="5" y="5" width="1" height="1" fill="#eff9ff"/>
  <rect x="6" y="5" width="1" height="1" fill="#f0f8ff"/>
  <rect x="7" y="5" width="1" height="1" fill="#f7ffff"/>
  <rect x="8" y="5" width="1" height="1" fill="#eaffff"/>
  <rect x="9" y="5" width="1" height="1" fill="#86a1b3"/>
  <rect x="10" y="5" width="1" height="1" fill="#7e9bbb"/>
  <rect x="11" y="5" width="1" height="1" fill="#7696c2"/>
  <rect x="12" y="5" width="1" height="1" fill="#6c8ec7"/>
  <rect x="13" y="5" width="1" height="1" fill="#698fcd"/>
  <rect x="14" y="5" width="1" height="1" fill="#608ac9"/>
  <rect x="15" y="5" width="1" height="1" fill="#5a80bc"/>
  <rect x="16" y="5" width="1" height="1" fill="#5270a6"/>
  <rect x="17" y="5" width="1" height="1" fill="#00003020"/>
  <rect x="0" y="6" width="1" height="1" fill="#04051b20"/>
  <rect x="1" y="6" width="1" height="1" fill="#dee2f7"/>
  <rect x="2" y="6" width="1" height="1" fill="#edf3ff"/>
  <rect x="3" y="6" width="1" height="1" fill="#f4faff"/>
  <rect x="4" y="6" width="1" height="1" fill="#eef7ff"/>
  <rect x="5" y="6" width="1" height="1" fill="#eaf6ff"/>
  <rect x="6" y="6" width="1" height="1" fill="#f3ffff"/>
  <rect x="7" y="6" width="1" height="1" fill="#eeffff"/>
  <rect x="8" y="6" width="1" height="1" fill="#efffff"/>
  <rect x="9" y="6" width="1" height="1" fill="#819eb2"/>
  <rect x="10" y="6" width="1" height="1" fill="#7897b8"/>
  <rect x="11" y="6" width="1" height="1" fill="#7294c0"/>
  <rect x="12" y="6" width="1" height="1" fill="#6d94c7"/>
  <rect x="13" y="6" width="1" height="1" fill="#628ec2"/>
  <rect x="14" y="6" width="1" height="1" fill="#5d8dba"/>
  <rect x="15" y="6" width="1" height="1" fill="#6490b5"/>
  <rect x="16" y="6" width="1" height="1" fill="#a6c3e4"/>
  <rect x="17" y="6" width="1" height="1" fill="#00042320"/>
  <rect x="0" y="7" width="1" height="1" fill="#00000820"/>
  <rect x="1" y="7" width="1" height="1" fill="#eef0fd"/>
  <rect x="2" y="7" width="1" height="1" fill="#e4edfc"/>
  <rect x="3" y="7" width="1" height="1" fill="#edfaff"/>
  <rect x="4" y="7" width="1" height="1" fill="#afbcd8"/>
  <rect x="5" y="7" width="1" height="1" fill="#a7b8d0"/>
  <rect x="6" y="7" width="1" height="1" fill="#ecffff"/>
  <rect x="7" y="7" width="1" height="1" fill="#e5faff"/>
  <rect x="8" y="7" width="1" height="1" fill="#e4fcff"/>
  <rect x="9" y="7" width="1" height="1" fill="#acc4d5"/>
  <rect x="10" y="7" width="1" height="1" fill="#7994b2"/>
  <rect x="11" y="7" width="1" height="1" fill="#7591b7"/>
  <rect x="12" y="7" width="1" height="1" fill="#7595bf"/>
  <rect x="13" y="7" width="1" height="1" fill="#6d93b8"/>
  <rect x="14" y="7" width="1" height="1" fill="#90b9d4"/>
  <rect x="15" y="7" width="1" height="1" fill="#cbf0ff"/>
  <rect x="16" y="7" width="1" height="1" fill="#d4efff"/>
  <rect x="17" y="7" width="1" height="1" fill="#00071920"/>
  <rect x="0" y="8" width="1" height="1" fill="#00000120"/>
  <rect x="1" y="8" width="1" height="1" fill="#e2f0fc"/>
  <rect x="2" y="8" width="1" height="1" fill="#e4fdff"/>
  <rect x="3" y="8" width="1" height="1" fill="#bad5f3"/>
  <rect x="4" y="8" width="1" height="1" fill="#6781b5"/>
  <rect x="5" y="8" width="1" height="1" fill="#6e83b7"/>
  <rect x="6" y="8" width="1" height="1" fill="#eafeff"/>
  <rect x="7" y="8" width="1" height="1" fill="#f3ffff"/>
  <rect x="8" y="8" width="1" height="1" fill="#fcffff"/>
  <rect x="9" y="8" width="1" height="1" fill="#ebf9ff"/>
  <rect x="10" y="8" width="1" height="1" fill="#b4c0d5"/>
  <rect x="11" y="8" width="1" height="1" fill="#7886a1"/>
  <rect x="12" y="8" width="1" height="1" fill="#909eb9"/>
  <rect x="13" y="8" width="1" height="1" fill="#cfdff7"/>
  <rect x="14" y="8" width="1" height="1" fill="#e8fbff"/>
  <rect x="15" y="8" width="1" height="1" fill="#e9ffff"/>
  <rect x="16" y="8" width="1" height="1" fill="#dbf0fb"/>
  <rect x="17" y="8" width="1" height="1" fill="#00010f20"/>
  <rect x="0" y="9" width="1" height="1" fill="#00040920"/>
  <rect x="1" y="9" width="1" height="1" fill="#def0f5"/>
  <rect x="2" y="9" width="1" height="1" fill="#e4ffff"/>
  <rect x="3" y="9" width="1" height="1" fill="#87a9c6"/>
  <rect x="4" y="9" width="1" height="1" fill="#5f7ebc"/>
  <rect x="5" y="9" width="1" height="1" fill="#6a84c4"/>
  <rect x="6" y="9" width="1" height="1" fill="#9eb4d5"/>
  <rect x="7" y="9" width="1" height="1" fill="#f2ffff"/>
  <rect x="8" y="9" width="1" height="1" fill="#f4fdff"/>
  <rect x="9" y="9" width="1" height="1" fill="#f9ffff"/>
  <rect x="10" y="9" width="1" height="1" fill="#ffffff"/>
  <rect x="11" y="9" width="1" height="1" fill="#f6fcff"/>
  <rect x="12" y="9" width="1" height="1" fill="#f4faff"/>
  <rect x="13" y="9" width="1" height="1" fill="#fcffff"/>
  <rect x="14" y="9" width="1" height="1" fill="#f5fcff"/>
  <rect x="15" y="9" width="1" height="1" fill="#f3ffff"/>
  <rect x="16" y="9" width="1" height="1" fill="#d8ecfc"/>
  <rect x="17" y="9" width="1" height="1" fill="#00061920"/>
  <rect x="0" y="10" width="1" height="1" fill="#00020320"/>
  <rect x="1" y="10" width="1" height="1" fill="#e5eeef"/>
  <rect x="2" y="10" width="1" height="1" fill="#ebfeff"/>
  <rect x="3" y="10" width="1" height="1" fill="#8ca7c0"/>
  <rect x="4" y="10" width="1" height="1" fill="#6481b9"/>
  <rect x="5" y="10" width="1" height="1" fill="#6887c5"/>
  <rect x="6" y="10" width="1" height="1" fill="#6284af"/>
  <rect x="7" y="10" width="1" height="1" fill="#b7d2ef"/>
  <rect x="8" y="10" width="1" height="1" fill="#effbff"/>
  <rect x="9" y="10" width="1" height="1" fill="#f9fdff"/>
  <rect x="10" y="10" width="1" height="1" fill="#f8fcff"/>
  <rect x="11" y="10" width="1" height="1" fill="#f4f9ff"/>
  <rect x="12" y="10" width="1" height="1" fill="#eff3ff"/>
  <rect x="13" y="10" width="1" height="1" fill="#f6faff"/>
  <rect x="14" y="10" width="1" height="1" fill="#fafeff"/>
  <rect x="15" y="10" width="1" height="1" fill="#e2ebff"/>
  <rect x="16" y="10" width="1" height="1" fill="#9db3d2"/>
  <rect x="17" y="10" width="1" height="1" fill="#00072b20"/>
  <rect x="0" y="11" width="1" height="1" fill="#00000020"/>
  <rect x="1" y="11" width="1" height="1" fill="#e9eff2"/>
  <rect x="2" y="11" width="1" height="1" fill="#ecfbff"/>
  <rect x="3" y="11" width="1" height="1" fill="#bfd5e9"/>
  <rect x="4" y="11" width="1" height="1" fill="#6b88b7"/>
  <rect x="5" y="11" width="1" height="1" fill="#698bc4"/>
  <rect x="6" y="11" width="1" height="1" fill="#6087ba"/>
  <rect x="7" y="11" width="1" height="1" fill="#6687b5"/>
  <rect x="8" y="11" width="1" height="1" fill="#a4b7de"/>
  <rect x="9" y="11" width="1" height="1" fill="#e3f0ff"/>
  <rect x="10" y="11" width="1" height="1" fill="#f2ffff"/>
  <rect x="11" y="11" width="2" height="1" fill="#e9f8ff"/>
  <rect x="13" y="11" width="1" height="1" fill="#f0fcff"/>
  <rect x="14" y="11" width="1" height="1" fill="#e0ebff"/>
  <rect x="15" y="11" width="1" height="1" fill="#93a3cb"/>
  <rect x="16" y="11" width="1" height="1" fill="#516c99"/>
  <rect x="17" y="11" width="1" height="1" fill="#00003020"/>
  <rect x="0" y="12" width="1" height="1" fill="#00000520"/>
  <rect x="1" y="12" width="1" height="1" fill="#eff7fe"/>
  <rect x="2" y="12" width="1" height="1" fill="#edfaff"/>
  <rect x="3" y="12" width="1" height="1" fill="#e4f6ff"/>
  <rect x="4" y="12" width="1" height="1" fill="#a0bbdd"/>
  <rect x="5" y="12" width="1" height="1" fill="#698aba"/>
  <rect x="6" y="12" width="1" height="1" fill="#5b84ba"/>
  <rect x="7" y="12" width="1" height="1" fill="#6089c4"/>
  <rect x="8" y="12" width="1" height="1" fill="#5c7eb7"/>
  <rect x="9" y="12" width="1" height="1" fill="#6a88bb"/>
  <rect x="10" y="12" width="1" height="1" fill="#7999c2"/>
  <rect x="11" y="12" width="1" height="1" fill="#83a4c9"/>
  <rect x="12" y="12" width="1" height="1" fill="#81a2c6"/>
  <rect x="13" y="12" width="1" height="1" fill="#7693be"/>
  <rect x="14" y="12" width="1" height="1" fill="#6884b8"/>
  <rect x="15" y="12" width="1" height="1" fill="#6380b8"/>
  <rect x="16" y="12" width="1" height="1" fill="#5577b0"/>
  <rect x="17" y="12" width="1" height="1" fill="#00053d20"/>
  <rect x="0" y="13" width="1" height="1" fill="#00000d20"/>
  <rect x="1" y="13" width="1" height="1" fill="#ddeaf8"/>
  <rect x="2" y="13" width="1" height="1" fill="#e7f6fc"/>
  <rect x="3" y="13" width="1" height="1" fill="#e9f9ff"/>
  <rect x="4" y="13" width="1" height="1" fill="#dcf1ff"/>
  <rect x="5" y="13" width="1" height="1" fill="#7795bd"/>
  <rect x="6" y="13" width="1" height="1" fill="#567db4"/>
  <rect x="7" y="13" width="1" height="1" fill="#5f89c8"/>
  <rect x="8" y="13" width="1" height="1" fill="#5880c0"/>
  <rect x="9" y="13" width="1" height="1" fill="#5982bf"/>
  <rect x="10" y="13" width="1" height="1" fill="#5c85bd"/>
  <rect x="11" y="13" width="1" height="1" fill="#6289c0"/>
  <rect x="12" y="13" width="1" height="1" fill="#638ac1"/>
  <rect x="13" y="13" width="1" height="1" fill="#6187c1"/>
  <rect x="14" y="13" width="1" height="1" fill="#5d83c1"/>
  <rect x="15" y="13" width="1" height="1" fill="#5e81c0"/>
  <rect x="16" y="13" width="1" height="1" fill="#4c70ad"/>
  <rect x="17" y="13" width="1" height="1" fill="#00033d20"/>
  <rect x="0" y="14" width="1" height="1" fill="#00072520"/>
  <rect x="1" y="14" width="1" height="1" fill="#86a0b7"/>
  <rect x="2" y="14" width="1" height="1" fill="#e2f4ff"/>
  <rect x="3" y="14" width="1" height="1" fill="#e2f1fa"/>
  <rect x="4" y="14" width="1" height="1" fill="#ecfcff"/>
  <rect x="5" y="14" width="1" height="1" fill="#c0d6f3"/>
  <rect x="6" y="14" width="1" height="1" fill="#6381b6"/>
  <rect x="7" y="14" width="1" height="1" fill="#5e81c0"/>
  <rect x="8" y="14" width="1" height="1" fill="#5b82bb"/>
  <rect x="9" y="14" width="1" height="1" fill="#5a80bc"/>
  <rect x="10" y="14" width="1" height="1" fill="#597ebf"/>
  <rect x="11" y="14" width="1" height="1" fill="#5c7ec2"/>
  <rect x="12" y="14" width="1" height="1" fill="#5f81c6"/>
  <rect x="13" y="14" width="1" height="1" fill="#6184c6"/>
  <rect x="14" y="14" width="1" height="1" fill="#6084c1"/>
  <rect x="15" y="14" width="1" height="1" fill="#5e80b9"/>
  <rect x="16" y="14" width="1" height="1" fill="#43669c"/>
  <rect x="17" y="14" width="1" height="1" fill="#0001371e"/>
  <rect x="0" y="15" width="1" height="1" fill="#00042d20"/>
  <rect x="1" y="15" width="1" height="1" fill="#516e8f"/>
  <rect x="2" y="15" width="1" height="1" fill="#b6cbdf"/>
  <rect x="3" y="15" width="1" height="1" fill="#e4f4ff"/>
  <rect x="4" y="15" width="1" height="1" fill="#e9f7ff"/>
  <rect x="5" y="15" width="1" height="1" fill="#def1ff"/>
  <rect x="6" y="15" width="1" height="1" fill="#8faad5"/>
  <rect x="7" y="15" width="1" height="1" fill="#6686bd"/>
  <rect x="8" y="15" width="1" height="1" fill="#5e81b7"/>
  <rect x="9" y="15" width="1" height="1" fill="#5f83bd"/>
  <rect x="10" y="15" width="1" height="1" fill="#6485c7"/>
  <rect x="11" y="15" width="2" height="1" fill="#6686cd"/>
  <rect x="13" y="15" width="1" height="1" fill="#6383c6"/>
  <rect x="14" y="15" width="1" height="1" fill="#5e80bb"/>
  <rect x="15" y="15" width="1" height="1" fill="#5c7db2"/>
  <rect x="16" y="15" width="1" height="1" fill="#3e5b8ad1"/>
  <rect x="17" y="15" width="1" height="1" fill="#00002a15"/>
  <rect x="0" y="16" width="1" height="1" fill="#00043718"/>
  <rect x="1" y="16" width="1" height="1" fill="#4f6894"/>
  <rect x="2" y="16" width="1" height="1" fill="#607897"/>
  <rect x="3" y="16" width="1" height="1" fill="#d1e7fd"/>
  <rect x="4" y="16" width="1" height="1" fill="#e2f2ff"/>
  <rect x="5" y="16" width="1" height="1" fill="#dcf1ff"/>
  <rect x="6" y="16" width="1" height="1" fill="#d1eeff"/>
  <rect x="7" y="16" width="1" height="1" fill="#5f7fa9"/>
  <rect x="8" y="16" width="1" height="1" fill="#5070a5"/>
  <rect x="9" y="16" width="1" height="1" fill="#506fab"/>
  <rect x="10" y="16" width="1" height="1" fill="#5170ae"/>
  <rect x="11" y="16" width="1" height="1" fill="#516fb0"/>
  <rect x="12" y="16" width="1" height="1" fill="#5876b7"/>
  <rect x="13" y="16" width="1" height="1" fill="#5170ae"/>
  <rect x="14" y="16" width="1" height="1" fill="#4968a4"/>
  <rect x="15" y="16" width="1" height="1" fill="#486194d1"/>
  <rect x="16" y="16" width="1" height="1" fill="#0c1d4030"/>
  <rect x="1" y="17" width="1" height="1" fill="#00053618"/>
  <rect x="2" y="17" width="1" height="1" fill="#00082d20"/>
  <rect x="3" y="17" width="1" height="1" fill="#000b2520"/>
  <rect x="4" y="17" width="1" height="1" fill="#000c1a20"/>
  <rect x="5" y="17" width="1" height="1" fill="#00061420"/>
  <rect x="6" y="17" width="1" height="1" fill="#00001620"/>
  <rect x="7" y="17" width="1" height="1" fill="#00032820"/>
  <rect x="8" y="17" width="1" height="1" fill="#00023720"/>
  <rect x="9" y="17" width="1" height="1" fill="#00013d20"/>
  <rect x="10" y="17" width="4" height="1" fill="#00034020"/>
  <rect x="14" y="17" width="1" height="1" fill="#0004411e"/>
  <rect x="15" y="17" width="1" height="1" fill="#00023615"/>
</svg>