<svg xmlns="http://www.w3.org/2000/svg" width="18" height="18" viewBox="0 0 18 18" shape-rendering="crispEdges">
  <rect x="1" y="1" width="1" height="1" fill="#83a3cf"/>
  <rect x="2" y="1" width="1" height="1" fill="#93acc8"/>
  <rect x="3" y="1" width="1" height="1" fill="#8ea8bf"/>
  <rect x="4" y="1" width="1" height="1" fill="#85aacd"/>
  <rect x="5" y="1" width="1" height="1" fill="#83aad3"/>
  <rect x="6" y="1" width="1" height="1" fill="#8ba5d5"/>
  <rect x="7" y="1" width="1" height="1" fill="#8ea3db"/>
  <rect x="8" y="1" width="1" height="1" fill="#8da1e6"/>
  <rect x="9" y="1" width="1" height="1" fill="#8da1e8"/>
  <rect x="10" y="1" width="1" height="1" fill="#8ba3e2"/>
  <rect x="11" y="1" width="1" height="1" fill="#88a3dc"/>
  <rect x="12" y="1" width="1" height="1" fill="#87a5d6"/>
  <rect x="13" y="1" width="1" height="1" fill="#85a9d3"/>
  <rect x="14" y="1" width="1" height="1" fill="#85afd5"/>
  <rect x="15" y="1" width="1" height="1" fill="#85a5c1"/>
  <rect x="1" y="2" width="1" height="1" fill="#7b9ac9"/>
  <rect x="2" y="2" width="1" height="1" fill="#dff6ff"/>
  <rect x="3" y="2" width="1" height="1" fill="#ebffff"/>
  <rect x="4" y="2" width="1" height="1" fill="#e4ffff"/>
  <rect x="5" y="2" width="1" height="1" fill="#e6ffff"/>
  <rect x="6" y="2" width="1" height="1" fill="#eeffff"/>
  <rect x="7" y="2" width="1" height="1" fill="#ecffff"/>
  <rect x="8" y="2" width="1" height="1" fill="#e3ffff"/>
  <rect x="9" y="2" width="1" height="1" fill="#deffff"/>
  <rect x="10" y="2" width="1" height="1" fill="#e0ffff"/>
  <rect x="11" y="2" width="1" height="1" fill="#e1ffff"/>
  <rect x="12" y="2" width="1" height="1" fill="#e9ffff"/>
  <rect x="13" y="2" width="1" height="1" fill="#e3fcff"/>
  <rect x="14" y="2" width="1" height="2" fill="#ebffff"/>
  <rect x="15" y="2" width="1" height="1" fill="#8795ae"/>
  <rect x="1" y="3" width="1" height="1" fill="#809fcd"/>
  <rect x="2" y="3" width="1" height="1" fill="#e9ffff"/>
  <rect x="3" y="3" width="1" height="1" fill="#7794a5"/>
  <rect x="4" y="3" width="1" height="1" fill="#6d96af"/>
  <rect x="5" y="3" width="1" height="1" fill="#6b97b1"/>
  <rect x="6" y="3" width="1" height="1" fill="#7294af"/>
  <rect x="7" y="3" width="1" height="1" fill="#7094b5"/>
  <rect x="8" y="3" width="1" height="1" fill="#6597bf"/>
  <rect x="9" y="3" width="1" height="1" fill="#5f99c5"/>
  <rect x="10" y="3" width="1" height="1" fill="#5f99c9"/>
  <rect x="11" y="3" width="1" height="1" fill="#6297c7"/>
  <rect x="12" y="3" width="1" height="1" fill="#729ccb"/>
  <rect x="13" y="3" width="1" height="1" fill="#7292bb"/>
  <rect x="15" y="3" width="1" height="1" fill="#8f99b1"/>
  <rect x="1" y="4" width="1" height="1" fill="#7c99c5"/>
  <rect x="2" y="4" width="1" height="4" fill="#e2ffff"/>
  <rect x="3" y="4" width="1" height="1" fill="#85afc8"/>
  <rect x="4" y="4" width="1" height="1" fill="#80c1e1"/>
  <rect x="5" y="4" width="1" height="1" fill="#73bee7"/>
  <rect x="6" y="4" width="1" height="1" fill="#6fb7e3"/>
  <rect x="7" y="4" width="1" height="1" fill="#68b3e0"/>
  <rect x="8" y="4" width="1" height="1" fill="#61b3de"/>
  <rect x="9" y="4" width="1" height="1" fill="#6cc2f0"/>
  <rect x="10" y="4" width="1" height="1" fill="#64bdf3"/>
  <rect x="11" y="4" width="1" height="1" fill="#72c6ff"/>
  <rect x="12" y="4" width="1" height="1" fill="#6ab3ea"/>
  <rect x="13" y="4" width="1" height="1" fill="#639acc"/>
  <rect x="14" y="4" width="1" height="1" fill="#e6ffff"/>
  <rect x="15" y="4" width="1" height="1" fill="#8a9cb6"/>
  <rect x="1" y="5" width="1" height="1" fill="#7d98c5"/>
  <rect x="3" y="5" width="1" height="1" fill="#82b1c8"/>
  <rect x="4" y="5" width="1" height="1" fill="#7fc9eb"/>
  <rect x="5" y="5" width="1" height="1" fill="#73caf3"/>
  <rect x="6" y="5" width="1" height="1" fill="#71c7f3"/>
  <rect x="7" y="5" width="1" height="1" fill="#6cc4ef"/>
  <rect x="8" y="5" width="1" height="1" fill="#6cc5ed"/>
  <rect x="9" y="5" width="1" height="1" fill="#6ecdf8"/>
  <rect x="10" y="5" width="1" height="1" fill="#66cdff"/>
  <rect x="11" y="5" width="1" height="1" fill="#62c8ff"/>
  <rect x="12" y="5" width="1" height="1" fill="#59b1ea"/>
  <rect x="13" y="5" width="1" height="1" fill="#61a6d8"/>
  <rect x="14" y="5" width="1" height="1" fill="#deffff"/>
  <rect x="15" y="5" width="1" height="1" fill="#859db3"/>
  <rect x="1" y="6" width="1" height="1" fill="#7d97c7"/>
  <rect x="3" y="6" width="1" height="1" fill="#85b0c2"/>
  <rect x="4" y="6" width="1" height="1" fill="#8fd1e8"/>
  <rect x="5" y="6" width="1" height="1" fill="#86d6f0"/>
  <rect x="6" y="6" width="1" height="1" fill="#8ad8f2"/>
  <rect x="7" y="6" width="1" height="1" fill="#8cdaf4"/>
  <rect x="8" y="6" width="1" height="1" fill="#8ad7f4"/>
  <rect x="9" y="6" width="1" height="1" fill="#78cef0"/>
  <rect x="10" y="6" width="1" height="1" fill="#52b6e4"/>
  <rect x="11" y="6" width="1" height="1" fill="#2c93c7"/>
  <rect x="12" y="6" width="1" height="1" fill="#4eaddf"/>
  <rect x="13" y="6" width="1" height="1" fill="#68b4dc"/>
  <rect x="14" y="6" width="1" height="1" fill="#daffff"/>
  <rect x="15" y="6" width="1" height="1" fill="#819da8"/>
  <rect x="1" y="7" width="1" height="1" fill="#7c98c7"/>
  <rect x="3" y="7" width="1" height="1" fill="#89b0bc"/>
  <rect x="4" y="7" width="1" height="1" fill="#9dd3e5"/>
  <rect x="5" y="7" width="1" height="1" fill="#9ddaec"/>
  <rect x="6" y="7" width="1" height="1" fill="#a5e0f1"/>
  <rect x="7" y="7" width="1" height="1" fill="#aae5f5"/>
  <rect x="8" y="7" width="1" height="1" fill="#aae6f9"/>
  <rect x="9" y="7" width="1" height="1" fill="#a9edff"/>
  <rect x="10" y="7" width="1" height="1" fill="#4ca0ca"/>
  <rect x="11" y="7" width="1" height="1" fill="#beffff"/>
  <rect x="12" y="7" width="1" height="1" fill="#50a7d0"/>
  <rect x="13" y="7" width="1" height="1" fill="#74bcdc"/>
  <rect x="14" y="7" width="1" height="1" fill="#dcffff"/>
  <rect x="15" y="7" width="1" height="1" fill="#809ca5"/>
  <rect x="1" y="8" width="1" height="1" fill="#6d8cbb"/>
  <rect x="2" y="8" width="1" height="1" fill="#e5ffff"/>
  <rect x="3" y="8" width="1" height="1" fill="#9ebcc7"/>
  <rect x="4" y="8" width="1" height="1" fill="#bddded"/>
  <rect x="5" y="8" width="1" height="1" fill="#c5e4f7"/>
  <rect x="6" y="8" width="1" height="1" fill="#c8e3f3"/>
  <rect x="7" y="8" width="1" height="1" fill="#cfedfa"/>
  <rect x="8" y="8" width="1" height="1" fill="#d5fdff"/>
  <rect x="9" y="8" width="1" height="1" fill="#c9f8ff"/>
  <rect x="10" y="8" width="1" height="1" fill="#5a90b9"/>
  <rect x="11" y="8" width="1" height="1" fill="#d2ffff"/>
  <rect x="12" y="8" width="1" height="1" fill="#589ebf"/>
  <rect x="13" y="8" width="1" height="1" fill="#6ba6c2"/>
  <rect x="14" y="8" width="1" height="1" fill="#e2ffff"/>
  <rect x="15" y="8" width="1" height="1" fill="#839aab"/>
  <rect x="1" y="9" width="1" height="1" fill="#6789b4"/>
  <rect x="2" y="9" width="1" height="1" fill="#eaffff"/>
  <rect x="3" y="9" width="1" height="1" fill="#a5bbbd"/>
  <rect x="4" y="9" width="1" height="1" fill="#d4e5ed"/>
  <rect x="5" y="9" width="1" height="1" fill="#d4e3ee"/>
  <rect x="6" y="9" width="1" height="1" fill="#c2d3dd"/>
  <rect x="7" y="9" width="1" height="1" fill="#bfd4df"/>
  <rect x="8" y="9" width="1" height="1" fill="#daf5ff"/>
  <rect x="9" y="9" width="1" height="1" fill="#e5ffff"/>
  <rect x="10" y="9" width="1" height="1" fill="#6084a3"/>
  <rect x="11" y="9" width="1" height="1" fill="#deffff"/>
  <rect x="12" y="9" width="1" height="1" fill="#527773"/>
  <rect x="13" y="9" width="1" height="1" fill="#628170"/>
  <rect x="14" y="9" width="1" height="1" fill="#f8fff4"/>
  <rect x="15" y="9" width="1" height="1" fill="#888974"/>
  <rect x="1" y="10" width="1" height="1" fill="#668eb2"/>
  <rect x="2" y="10" width="1" height="1" fill="#edffff"/>
  <rect x="3" y="10" width="1" height="1" fill="#849280"/>
  <rect x="4" y="10" width="1" height="1" fill="#a2ab9e"/>
  <rect x="5" y="10" width="1" height="1" fill="#a4aea8"/>
  <rect x="6" y="10" width="1" height="1" fill="#677b7e"/>
  <rect x="7" y="10" width="1" height="1" fill="#405c65"/>
  <rect x="8" y="10" width="1" height="1" fill="#496678"/>
  <rect x="9" y="10" width="1" height="1" fill="#6a8798"/>
  <rect x="10" y="10" width="1" height="1" fill="#566d7c"/>
  <rect x="11" y="10" width="1" height="1" fill="#f6fff3"/>
  <rect x="12" y="10" width="1" height="1" fill="#655b18"/>
  <rect x="13" y="10" width="1" height="1" fill="#8d7914"/>
  <rect x="14" y="10" width="1" height="1" fill="#867200"/>
  <rect x="15" y="10" width="1" height="1" fill="#98770a"/>
  <rect x="16" y="10" width="1" height="1" fill="#9e651296"/>
  <rect x="1" y="11" width="1" height="1" fill="#7191b6"/>
  <rect x="2" y="11" width="1" height="1" fill="#f0fef7"/>
  <rect x="3" y="11" width="1" height="1" fill="#505538"/>
  <rect x="4" y="11" width="1" height="1" fill="#5e5c41"/>
  <rect x="5" y="11" width="1" height="1" fill="#6f735a"/>
  <rect x="6" y="11" width="1" height="1" fill="#233627"/>
  <rect x="7" y="11" width="1" height="1" fill="#e6fffd"/>
  <rect x="8" y="11" width="1" height="1" fill="#e9ffff"/>
  <rect x="9" y="11" width="1" height="1" fill="#edffff"/>
  <rect x="10" y="11" width="1" height="1" fill="#ffffee"/>
  <rect x="11" y="11" width="1" height="1" fill="#ffffc7"/>
  <rect x="12" y="11" width="1" height="1" fill="#946f01"/>
  <rect x="13" y="11" width="1" height="1" fill="#ffdf50"/>
  <rect x="14" y="11" width="1" height="1" fill="#ffe043"/>
  <rect x="15" y="11" width="1" height="1" fill="#ffe04d"/>
  <rect x="16" y="11" width="1" height="1" fill="#b36000"/>
  <rect x="1" y="12" width="1" height="1" fill="#6a7ca8"/>
  <rect x="2" y="12" width="1" height="1" fill="#fdfef7"/>
  <rect x="3" y="12" width="1" height="1" fill="#413a16"/>
  <rect x="4" y="12" width="1" height="1" fill="#504219"/>
  <rect x="5" y="12" width="1" height="1" fill="#433c11"/>
  <rect x="6" y="12" width="1" height="1" fill="#2c350b"/>
  <rect x="7" y="12" width="1" height="1" fill="#1d2f12"/>
  <rect x="8" y="12" width="1" height="1" fill="#233833"/>
  <rect x="9" y="12" width="1" height="1" fill="#313b25"/>
  <rect x="10" y="12" width="1" height="1" fill="#776617"/>
  <rect x="11" y="12" width="1" height="1" fill="#947300"/>
  <rect x="12" y="12" width="1" height="1" fill="#976b00"/>
  <rect x="13" y="12" width="1" height="1" fill="#ffe153"/>
  <rect x="14" y="12" width="1" height="1" fill="#e7a518"/>
  <rect x="15" y="12" width="1" height="1" fill="#ffb231"/>
  <rect x="16" y="12" width="1" height="1" fill="#b65e00"/>
  <rect x="1" y="13" width="1" height="1" fill="#6c80ad"/>
  <rect x="2" y="13" width="1" height="1" fill="#f9ffff"/>
  <rect x="3" y="13" width="1" height="1" fill="#4f4c34"/>
  <rect x="4" y="13" width="1" height="1" fill="#453e22"/>
  <rect x="5" y="13" width="1" height="1" fill="#444021"/>
  <rect x="6" y="13" width="1" height="1" fill="#3e4829"/>
  <rect x="7" y="13" width="1" height="1" fill="#394a32"/>
  <rect x="8" y="13" width="1" height="1" fill="#384d46"/>
  <rect x="9" y="13" width="1" height="1" fill="#6c734c"/>
  <rect x="10" y="13" width="1" height="1" fill="#947203"/>
  <rect x="11" y="13" width="1" height="1" fill="#ffe04f"/>
  <rect x="12" y="13" width="1" height="1" fill="#ffdd50"/>
  <rect x="13" y="13" width="1" height="1" fill="#aa6d00"/>
  <rect x="14" y="13" width="1" height="1" fill="#a16805"/>
  <rect x="15" y="13" width="1" height="1" fill="#99600d"/>
  <rect x="16" y="13" width="1" height="1" fill="#a3611896"/>
  <rect x="1" y="14" width="1" height="1" fill="#5b7faa"/>
  <rect x="2" y="14" width="1" height="1" fill="#ecffff"/>
  <rect x="3" y="14" width="1" height="1" fill="#edffff"/>
  <rect x="4" y="14" width="1" height="1" fill="#ebfcff"/>
  <rect x="5" y="14" width="1" height="1" fill="#f0ffff"/>
  <rect x="6" y="14" width="1" height="1" fill="#f8ffff"/>
  <rect x="7" y="14" width="1" height="1" fill="#faffff"/>
  <rect x="8" y="14" width="1" height="1" fill="#e9ffff"/>
  <rect x="9" y="14" width="1" height="1" fill="#faffda"/>
  <rect x="10" y="14" width="1" height="1" fill="#9d6e00"/>
  <rect x="11" y="14" width="1" height="1" fill="#ffd646"/>
  <rect x="12" y="14" width="1" height="1" fill="#ffa728"/>
  <rect x="13" y="14" width="1" height="1" fill="#9e5a01"/>
  <rect x="14" y="14" width="1" height="1" fill="#fffad9"/>
  <rect x="15" y="14" width="1" height="1" fill="#7d7c73"/>
  <rect x="1" y="15" width="1" height="1" fill="#597896"/>
  <rect x="2" y="15" width="1" height="1" fill="#658493"/>
  <rect x="3" y="15" width="1" height="1" fill="#607b89"/>
  <rect x="4" y="15" width="1" height="1" fill="#687d93"/>
  <rect x="5" y="15" width="1" height="1" fill="#6a7d99"/>
  <rect x="6" y="15" width="1" height="1" fill="#6d7d9a"/>
  <rect x="7" y="15" width="1" height="1" fill="#6e7f95"/>
  <rect x="8" y="15" width="1" height="1" fill="#6a8288"/>
  <rect x="9" y="15" width="1" height="1" fill="#7c7b56"/>
  <rect x="10" y="15" width="1" height="1" fill="#aa720a"/>
  <rect x="11" y="15" width="1" height="1" fill="#ffcf4e"/>
  <rect x="12" y="15" width="1" height="1" fill="#ffa535"/>
  <rect x="13" y="15" width="1" height="1" fill="#aa641e"/>
  <rect x="14" y="15" width="1" height="1" fill="#7d7a74"/>
  <rect x="15" y="15" width="1" height="1" fill="#667c90"/>
  <rect x="1" y="16" width="1" height="1" fill="#00010e1a"/>
  <rect x="2" y="16" width="1" height="1" fill="#0003081a"/>
  <rect x="3" y="16" width="1" height="1" fill="#0002081a"/>
  <rect x="4" y="16" width="1" height="1" fill="#00010a1a"/>
  <rect x="5" y="16" width="2" height="1" fill="#00000c1a"/>
  <rect x="7" y="16" width="1" height="1" fill="#0001081a"/>
  <rect x="8" y="16" width="1" height="1" fill="#0005041a"/>
  <rect x="9" y="16" width="1" height="1" fill="#0e01001a"/>
  <rect x="10" y="16" width="1" height="1" fill="#9c5e0fa1"/>
  <rect x="11" y="16" width="1" height="1" fill="#af5a00"/>
  <rect x="12" y="16" width="1" height="1" fill="#b05700"/>
  <rect x="13" y="16" width="1" height="1" fill="#9e5c17a1"/>
  <rect x="14" y="16" width="1" height="1" fill="#0e00001a"/>
  <rect x="15" y="16" width="1" height="1" fill="#0004081a"/>
</svg>