<svg xmlns="http://www.w3.org/2000/svg" width="11" height="10" viewBox="0 0 11 10" shape-rendering="crispEdges">
  <rect x="0" y="0" width="1" height="1" fill="#d35c6997"/>
  <rect x="1" y="0" width="1" height="1" fill="#cd5d6c"/>
  <rect x="2" y="0" width="1" height="1" fill="#c76274"/>
  <rect x="3" y="0" width="1" height="1" fill="#c9586e"/>
  <rect x="4" y="0" width="1" height="1" fill="#df4c6297"/>
  <rect x="6" y="0" width="1" height="1" fill="#ca5f5597"/>
  <rect x="7" y="0" width="1" height="1" fill="#c06856"/>
  <rect x="8" y="0" width="1" height="1" fill="#bd665b"/>
  <rect x="9" y="0" width="1" height="1" fill="#c05d58"/>
  <rect x="10" y="0" width="1" height="1" fill="#d7595b97"/>
  <rect x="0" y="1" width="1" height="1" fill="#d15762"/>
  <rect x="1" y="1" width="1" height="1" fill="#ffdfeb"/>
  <rect x="2" y="1" width="1" height="1" fill="#ffdbea"/>
  <rect x="3" y="1" width="1" height="1" fill="#ffdeed"/>
  <rect x="4" y="1" width="1" height="1" fill="#d05668"/>
  <rect x="5" y="1" width="1" height="1" fill="#ce586297"/>
  <rect x="6" y="1" width="1" height="1" fill="#b9665d"/>
  <rect x="7" y="1" width="1" height="1" fill="#ffecde"/>
  <rect x="8" y="1" width="1" height="1" fill="#ffe7de"/>
  <rect x="9" y="1" width="1" height="1" fill="#ffe2df"/>
  <rect x="10" y="1" width="1" height="1" fill="#da585b"/>
  <rect x="0" y="2" width="1" height="1" fill="#d4535a97"/>
  <rect x="1" y="2" width="1" height="1" fill="#c6585d"/>
  <rect x="2" y="2" width="1" height="1" fill="#ffeaf1"/>
  <rect x="3" y="2" width="1" height="1" fill="#ffe7f0"/>
  <rect x="4" y="2" width="1" height="1" fill="#ffeaf6"/>
  <rect x="5" y="2" width="1" height="1" fill="#a06168"/>
  <rect x="6" y="2" width="1" height="1" fill="#fff4f0"/>
  <rect x="7" y="2" width="1" height="1" fill="#fff4ec"/>
  <rect x="8" y="2" width="1" height="1" fill="#ffe3de"/>
  <rect x="9" y="2" width="1" height="1" fill="#d35c5e"/>
  <rect x="10" y="2" width="1" height="1" fill="#df535997"/>
  <rect x="1" y="3" width="1" height="1" fill="#cd595797"/>
  <rect x="2" y="3" width="1" height="1" fill="#b76664"/>
  <rect x="3" y="3" width="1" height="1" fill="#ffeced"/>
  <rect x="4" y="3" width="1" height="1" fill="#fff6fc"/>
  <rect x="5" y="3" width="1" height="1" fill="#fff5fa"/>
  <rect x="6" y="3" width="1" height="1" fill="#fff3f1"/>
  <rect x="7" y="3" width="1" height="1" fill="#fff0ed"/>
  <rect x="8" y="3" width="1" height="1" fill="#bd605f"/>
  <rect x="9" y="3" width="1" height="1" fill="#d8585d97"/>
  <rect x="2" y="4" width="1" height="1" fill="#c3564497"/>
  <rect x="3" y="4" width="1" height="1" fill="#b26458"/>
  <rect x="4" y="4" width="1" height="1" fill="#fff8f9"/>
  <rect x="5" y="4" width="1" height="1" fill="#ffffff"/>
  <rect x="6" y="4" width="1" height="1" fill="#fff2f0"/>
  <rect x="7" y="4" width="1" height="1" fill="#ae6864"/>
  <rect x="8" y="4" width="1" height="1" fill="#cc616397"/>
  <rect x="2" y="5" width="1" height="1" fill="#cb5e4e97"/>
  <rect x="3" y="5" width="1" height="1" fill="#b7695d"/>
  <rect x="4" y="5" width="1" height="1" fill="#fff7f4"/>
  <rect x="5" y="5" width="1" height="1" fill="#fff7f5"/>
  <rect x="6" y="5" width="1" height="1" fill="#fff6f0"/>
  <rect x="7" y="5" width="1" height="1" fill="#a96762"/>
  <rect x="8" y="5" width="1" height="1" fill="#c0575997"/>
  <rect x="1" y="6" width="1" height="1" fill="#cf575297"/>
  <rect x="2" y="6" width="1" height="1" fill="#b46260"/>
  <rect x="3" y="6" width="1" height="1" fill="#ffedee"/>
  <rect x="4" y="6" width="1" height="1" fill="#fff1ed"/>
  <rect x="5" y="6" width="1" height="1" fill="#ffeee6"/>
  <rect x="6" y="6" width="1" height="1" fill="#fff6ea"/>
  <rect x="7" y="6" width="1" height="1" fill="#fffcf3"/>
  <rect x="8" y="6" width="1" height="1" fill="#b75f5d"/>
  <rect x="9" y="6" width="1" height="1" fill="#d6585b97"/>
  <rect x="0" y="7" width="1" height="1" fill="#de565197"/>
  <rect x="1" y="7" width="1" height="1" fill="#d1605d"/>
  <rect x="2" y="7" width="1" height="1" fill="#ffe8ec"/>
  <rect x="3" y="7" width="1" height="1" fill="#ffeff2"/>
  <rect x="4" y="7" width="1" height="1" fill="#ffedea"/>
  <rect x="5" y="7" width="1" height="1" fill="#a16961"/>
  <rect x="6" y="7" width="1" height="1" fill="#fffaf1"/>
  <rect x="7" y="7" width="1" height="1" fill="#fff5ed"/>
  <rect x="8" y="7" width="1" height="1" fill="#ffe9e7"/>
  <rect x="9" y="7" width="1" height="1" fill="#cb5959"/>
  <rect x="10" y="7" width="1" height="1" fill="#d74e4e97"/>
  <rect x="0" y="8" width="1" height="1" fill="#d65e59"/>
  <rect x="1" y="8" width="1" height="1" fill="#ffdcd8"/>
  <rect x="2" y="8" width="1" height="1" fill="#ffe2e1"/>
  <rect x="3" y="8" width="1" height="1" fill="#ffe9e8"/>
  <rect x="4" y="8" width="1" height="1" fill="#c15655"/>
  <rect x="5" y="8" width="1" height="1" fill="#c95c5a97"/>
  <rect x="6" y="8" width="1" height="1" fill="#bc6563"/>
  <rect x="7" y="8" width="1" height="1" fill="#ffebe7"/>
  <rect x="8" y="8" width="1" height="1" fill="#ffe6e0"/>
  <rect x="9" y="8" width="1" height="1" fill="#ffe8e1"/>
  <rect x="10" y="8" width="1" height="1" fill="#d65754"/>
  <rect x="0" y="9" width="1" height="1" fill="#cc5d5797"/>
  <rect x="1" y="9" width="1" height="1" fill="#c6605b"/>
  <rect x="2" y="9" width="1" height="1" fill="#b76662"/>
  <rect x="3" y="9" width="1" height="1" fill="#b75f5d"/>
  <rect x="4" y="9" width="1" height="1" fill="#d1525297"/>
  <rect x="6" y="9" width="1" height="1" fill="#c9555897"/>
  <rect x="7" y="9" width="1" height="1" fill="#bb5c5a"/>
  <rect x="8" y="9" width="1" height="1" fill="#b1635b"/>
  <rect x="9" y="9" width="1" height="1" fill="#ba6259"/>
  <rect x="10" y="9" width="1" height="1" fill="#d3595497"/>
</svg>