<svg xmlns="http://www.w3.org/2000/svg" width="16" height="16" viewBox="0 0 16 16" shape-rendering="crispEdges">
  <rect x="6" y="0" width="1" height="1" fill="#a8aaac4a"/>
  <rect x="7" y="0" width="1" height="1" fill="#b4b6b8f8"/>
  <rect x="8" y="0" width="1" height="1" fill="#b5b7b9f8"/>
  <rect x="9" y="0" width="1" height="1" fill="#aaacad4a"/>
  <rect x="3" y="1" width="1" height="1" fill="#acaeb03d"/>
  <rect x="6" y="1" width="1" height="1" fill="#acaeb078"/>
  <rect x="7" y="1" width="2" height="1" fill="#b1b3b4"/>
  <rect x="9" y="1" width="1" height="1" fill="#acaeb087"/>
  <rect x="12" y="1" width="1" height="1" fill="#b1b3b43d"/>
  <rect x="2" y="2" width="1" height="1" fill="#aeb0b2c3"/>
  <rect x="3" y="2" width="1" height="1" fill="#b3b5b6"/>
  <rect x="4" y="2" width="1" height="1" fill="#afb1b39d"/>
  <rect x="5" y="2" width="1" height="1" fill="#b1b3b42c"/>
  <rect x="6" y="2" width="1" height="1" fill="#afb1b3b9"/>
  <rect x="7" y="2" width="2" height="1" fill="#abadae"/>
  <rect x="9" y="2" width="1" height="1" fill="#afb1b3c0"/>
  <rect x="10" y="2" width="1" height="1" fill="#b2b4b52c"/>
  <rect x="11" y="2" width="1" height="1" fill="#afb1b39d"/>
  <rect x="12" y="2" width="1" height="1" fill="#b2b4b5"/>
  <rect x="13" y="2" width="1" height="1" fill="#aeb0b2c3"/>
  <rect x="1" y="3" width="1" height="1" fill="#9395973e"/>
  <rect x="2" y="3" width="1" height="1" fill="#b1b3b4"/>
  <rect x="3" y="3" width="1" height="1" fill="#b8babb"/>
  <rect x="4" y="3" width="1" height="1" fill="#b2b4b5"/>
  <rect x="5" y="3" width="1" height="1" fill="#b8babb"/>
  <rect x="6" y="3" width="1" height="1" fill="#b3b5b6"/>
  <rect x="7" y="3" width="1" height="1" fill="#a6a8aa"/>
  <rect x="8" y="3" width="1" height="1" fill="#a5a7a9"/>
  <rect x="9" y="3" width="1" height="1" fill="#b1b3b4"/>
  <rect x="10" y="3" width="1" height="1" fill="#b6b8ba"/>
  <rect x="11" y="3" width="1" height="1" fill="#afb1b3"/>
  <rect x="12" y="3" width="1" height="2" fill="#b3b5b6"/>
  <rect x="13" y="3" width="1" height="1" fill="#adafb1"/>
  <rect x="14" y="3" width="1" height="1" fill="#9698993e"/>
  <rect x="2" y="4" width="1" height="1" fill="#9fa1a39d"/>
  <rect x="3" y="4" width="1" height="1" fill="#b3b5b6"/>
  <rect x="4" y="4" width="1" height="1" fill="#afb1b3"/>
  <rect x="5" y="4" width="1" height="1" fill="#a5a7a9"/>
  <rect x="6" y="4" width="1" height="1" fill="#9ea0a2db"/>
  <rect x="7" y="4" width="1" height="1" fill="#a3a5a690"/>
  <rect x="8" y="4" width="1" height="1" fill="#989a9c90"/>
  <rect x="9" y="4" width="1" height="1" fill="#989a9cdb"/>
  <rect x="10" y="4" width="1" height="1" fill="#acaeb0"/>
  <rect x="11" y="4" width="1" height="1" fill="#aeb0b2"/>
  <rect x="13" y="4" width="1" height="1" fill="#a5a7a99d"/>
  <rect x="2" y="5" width="1" height="1" fill="#aeb0b22b"/>
  <rect x="3" y="5" width="1" height="2" fill="#b1b3b4"/>
  <rect x="4" y="5" width="1" height="1" fill="#abadae"/>
  <rect x="5" y="5" width="1" height="1" fill="#9ea0a29c"/>
  <rect x="10" y="5" width="1" height="1" fill="#9395979c"/>
  <rect x="11" y="5" width="1" height="1" fill="#acaeb0"/>
  <rect x="12" y="5" width="1" height="1" fill="#b2b4b5"/>
  <rect x="13" y="5" width="1" height="1" fill="#aaacad2c"/>
  <rect x="0" y="6" width="1" height="1" fill="#afb1b349"/>
  <rect x="1" y="6" width="1" height="1" fill="#b5b7b977"/>
  <rect x="2" y="6" width="1" height="1" fill="#b8babbb9"/>
  <rect x="4" y="6" width="1" height="1" fill="#a4a6a7d9"/>
  <rect x="7" y="6" width="1" height="1" fill="#aeb0b25a"/>
  <rect x="8" y="6" width="1" height="1" fill="#afb1b35b"/>
  <rect x="11" y="6" width="1" height="1" fill="#a8aaacd9"/>
  <rect x="12" y="6" width="1" height="1" fill="#afb1b3"/>
  <rect x="13" y="6" width="1" height="1" fill="#aeb0b2b9"/>
  <rect x="14" y="6" width="1" height="1" fill="#b1b3b477"/>
  <rect x="15" y="6" width="1" height="1" fill="#b4b6b849"/>
  <rect x="0" y="7" width="1" height="1" fill="#b3b5b6f9"/>
  <rect x="1" y="7" width="1" height="1" fill="#b2b4b5"/>
  <rect x="2" y="7" width="2" height="1" fill="#b3b5b6"/>
  <rect x="4" y="7" width="1" height="1" fill="#a3a5a68f"/>
  <rect x="6" y="7" width="1" height="1" fill="#a8aaac5b"/>
  <rect x="7" y="7" width="1" height="1" fill="#acaeb0"/>
  <rect x="8" y="7" width="1" height="1" fill="#aaacad"/>
  <rect x="9" y="7" width="1" height="1" fill="#a3a5a65b"/>
  <rect x="11" y="7" width="1" height="1" fill="#a6a8aa8f"/>
  <rect x="12" y="7" width="1" height="1" fill="#adafb1"/>
  <rect x="13" y="7" width="1" height="1" fill="#b2b4b5"/>
  <rect x="14" y="7" width="1" height="1" fill="#b4b6b8"/>
  <rect x="15" y="7" width="1" height="1" fill="#b4b6b8f8"/>
  <rect x="0" y="8" width="1" height="1" fill="#a6a8aaf9"/>
  <rect x="1" y="8" width="1" height="1" fill="#a4a6a7"/>
  <rect x="2" y="8" width="1" height="1" fill="#acaeb0"/>
  <rect x="3" y="8" width="1" height="1" fill="#b8babb"/>
  <rect x="4" y="8" width="1" height="1" fill="#afb1b38f"/>
  <rect x="6" y="8" width="1" height="1" fill="#9ea0a25b"/>
  <rect x="7" y="8" width="1" height="1" fill="#9ea0a2"/>
  <rect x="8" y="8" width="1" height="1" fill="#a1a3a5"/>
  <rect x="9" y="8" width="1" height="1" fill="#9d9fa05b"/>
  <rect x="11" y="8" width="1" height="1" fill="#b2b4b58f"/>
  <rect x="12" y="8" width="1" height="1" fill="#aeb0b2"/>
  <rect x="13" y="8" width="1" height="1" fill="#aaacad"/>
  <rect x="14" y="8" width="1" height="1" fill="#a5a7a9"/>
  <rect x="15" y="8" width="1" height="1" fill="#a1a3a5f9"/>
  <rect x="0" y="9" width="1" height="1" fill="#999b9d4a"/>
  <rect x="1" y="9" width="1" height="1" fill="#97999b88"/>
  <rect x="2" y="9" width="1" height="1" fill="#9fa1a3c1"/>
  <rect x="3" y="9" width="1" height="1" fill="#abadae"/>
  <rect x="4" y="9" width="1" height="1" fill="#aeb0b2d9"/>
  <rect x="7" y="9" width="1" height="1" fill="#97999b5b"/>
  <rect x="8" y="9" width="1" height="1" fill="#9698995b"/>
  <rect x="11" y="9" width="1" height="1" fill="#b3b5b6d8"/>
  <rect x="12" y="9" width="1" height="1" fill="#b3b5b6"/>
  <rect x="13" y="9" width="1" height="1" fill="#a5a7a9c1"/>
  <rect x="14" y="9" width="1" height="1" fill="#989a9c88"/>
  <rect x="15" y="9" width="1" height="1" fill="#9294964a"/>
  <rect x="2" y="10" width="1" height="1" fill="#a7a9ab2b"/>
  <rect x="3" y="10" width="1" height="1" fill="#b3b5b6"/>
  <rect x="4" y="10" width="1" height="1" fill="#b9bbbc"/>
  <rect x="5" y="10" width="1" height="1" fill="#b8babb9b"/>
  <rect x="10" y="10" width="1" height="1" fill="#b4b6b89a"/>
  <rect x="11" y="10" width="1" height="1" fill="#bbbdbf"/>
  <rect x="12" y="10" width="1" height="1" fill="#b2b4b5"/>
  <rect x="13" y="10" width="1" height="1" fill="#abadae2c"/>
  <rect x="2" y="11" width="1" height="1" fill="#a8aaac9d"/>
  <rect x="3" y="11" width="1" height="1" fill="#b4b6b8"/>
  <rect x="4" y="11" width="1" height="1" fill="#b6b8ba"/>
  <rect x="5" y="11" width="1" height="1" fill="#b2b4b5"/>
  <rect x="6" y="11" width="1" height="1" fill="#b1b3b4db"/>
  <rect x="7" y="11" width="2" height="1" fill="#acaeb08e"/>
  <rect x="9" y="11" width="1" height="1" fill="#b2b4b5db"/>
  <rect x="10" y="11" width="1" height="1" fill="#b1b3b4"/>
  <rect x="11" y="11" width="1" height="1" fill="#adafb1"/>
  <rect x="12" y="11" width="1" height="1" fill="#b1b3b4"/>
  <rect x="13" y="11" width="1" height="1" fill="#adafb19d"/>
  <rect x="1" y="12" width="1" height="1" fill="#9294963e"/>
  <rect x="2" y="12" width="1" height="1" fill="#a6a8aa"/>
  <rect x="3" y="12" width="1" height="1" fill="#b3b5b6"/>
  <rect x="4" y="12" width="1" height="1" fill="#a8aaac"/>
  <rect x="5" y="12" width="1" height="1" fill="#9d9fa0"/>
  <rect x="6" y="12" width="1" height="1" fill="#adafb1"/>
  <rect x="7" y="12" width="2" height="1" fill="#afb1b3"/>
  <rect x="9" y="12" width="1" height="1" fill="#aeb0b2"/>
  <rect x="10" y="12" width="1" height="1" fill="#9ea0a2"/>
  <rect x="11" y="12" width="1" height="1" fill="#aaacad"/>
  <rect x="12" y="12" width="1" height="1" fill="#b5b7b9"/>
  <rect x="13" y="12" width="1" height="1" fill="#a7a9ab"/>
  <rect x="14" y="12" width="1" height="1" fill="#9395973e"/>
  <rect x="2" y="13" width="1" height="1" fill="#999b9dc3"/>
  <rect x="3" y="13" width="1" height="1" fill="#9fa1a3"/>
  <rect x="4" y="13" width="1" height="1" fill="#989a9c9d"/>
  <rect x="5" y="13" width="1" height="1" fill="#9698992c"/>
  <rect x="6" y="13" width="1" height="1" fill="#a3a5a6ba"/>
  <rect x="7" y="13" width="1" height="1" fill="#adafb1"/>
  <rect x="8" y="13" width="1" height="1" fill="#aeb0b2"/>
  <rect x="9" y="13" width="1" height="1" fill="#a4a6a7c0"/>
  <rect x="10" y="13" width="1" height="1" fill="#9698992c"/>
  <rect x="11" y="13" width="1" height="1" fill="#9a9c9e9d"/>
  <rect x="12" y="13" width="1" height="1" fill="#a0a2a4"/>
  <rect x="13" y="13" width="1" height="1" fill="#9c9e9fc3"/>
  <rect x="3" y="14" width="1" height="1" fill="#999b9d3e"/>
  <rect x="6" y="14" width="1" height="1" fill="#a1a3a578"/>
  <rect x="7" y="14" width="1" height="1" fill="#afb1b3"/>
  <rect x="8" y="14" width="1" height="1" fill="#b1b3b4"/>
  <rect x="9" y="14" width="1" height="1" fill="#a3a5a687"/>
  <rect x="12" y="14" width="1" height="1" fill="#9a9c9e3e"/>
  <rect x="6" y="15" width="1" height="1" fill="#9092944a"/>
  <rect x="7" y="15" width="1" height="1" fill="#9c9e9ff8"/>
  <rect x="8" y="15" width="1" height="1" fill="#9d9fa0f8"/>
  <rect x="9" y="15" width="1" height="1" fill="#9193954a"/>
</svg>