<svg xmlns="http://www.w3.org/2000/svg" width="162" height="213" viewBox="0 0 162 213" shape-rendering="crispEdges">
  <rect x="2" y="0" width="152" height="1" fill="#d8ecf3"/>
  <rect x="154" y="0" width="2" height="40" fill="#d7ecf3"/>
  <rect x="156" y="0" width="2" height="11" fill="#d5edf5"/>
  <rect x="158" y="0" width="2" height="11" fill="#d3eef5"/>
  <rect x="160" y="0" width="1" height="17" fill="#d5eef8"/>
  <rect x="161" y="0" width="1" height="16" fill="#bcd6df"/>
  <rect x="1" y="1" width="153" height="1" fill="#d8ecf3"/>
  <rect x="0" y="2" width="154" height="38" fill="#d8ecf3"/>
  <rect x="156" y="11" width="3" height="1" fill="#d5edf5"/>
  <rect x="159" y="11" width="1" height="1" fill="#d3eef5"/>
  <rect x="156" y="12" width="2" height="4" fill="#d7ecf5"/>
  <rect x="158" y="12" width="2" height="4" fill="#d5edf5"/>
  <rect x="156" y="16" width="3" height="1" fill="#d5edf5"/>
  <rect x="159" y="16" width="1" height="1" fill="#d3eef5"/>
  <rect x="161" y="16" width="1" height="4" fill="#bbd7df"/>
  <rect x="156" y="17" width="2" height="10" fill="#d5edf5"/>
  <rect x="158" y="17" width="2" height="10" fill="#d3eef5"/>
  <rect x="160" y="17" width="1" height="3" fill="#d3eff8"/>
  <rect x="160" y="20" width="1" height="12" fill="#d5eef8"/>
  <rect x="161" y="20" width="1" height="12" fill="#bcd6df"/>
  <rect x="156" y="27" width="3" height="1" fill="#d5edf5"/>
  <rect x="159" y="27" width="1" height="1" fill="#d3eef5"/>
  <rect x="156" y="28" width="2" height="4" fill="#d7ecf5"/>
  <rect x="158" y="28" width="2" height="4" fill="#d5edf5"/>
  <rect x="156" y="32" width="3" height="1" fill="#d5edf5"/>
  <rect x="159" y="32" width="1" height="1" fill="#d3eef5"/>
  <rect x="160" y="32" width="1" height="1" fill="#d6eff9"/>
  <rect x="161" y="32" width="1" height="4" fill="#bcd8e1"/>
  <rect x="156" y="33" width="2" height="6" fill="#d5edf5"/>
  <rect x="158" y="33" width="2" height="6" fill="#d3eef5"/>
  <rect x="160" y="33" width="1" height="3" fill="#d4f0f9"/>
  <rect x="160" y="36" width="1" height="4" fill="#d6eff9"/>
  <rect x="161" y="36" width="1" height="4" fill="#bdd7e1"/>
  <rect x="156" y="39" width="1" height="1" fill="#d7ecf5"/>
  <rect x="157" y="39" width="2" height="1" fill="#d5edf5"/>
  <rect x="159" y="39" width="1" height="1" fill="#d3eef5"/>
  <rect x="0" y="40" width="156" height="8" fill="#d8ecf3"/>
  <rect x="156" y="40" width="3" height="1" fill="#d7ecf5"/>
  <rect x="159" y="40" width="1" height="1" fill="#d5edf5"/>
  <rect x="160" y="40" width="1" height="8" fill="#d7eff9"/>
  <rect x="161" y="40" width="1" height="8" fill="#bfd6e1"/>
  <rect x="156" y="41" width="4" height="6" fill="#d7ecf5"/>
  <rect x="156" y="47" width="3" height="1" fill="#d7ecf5"/>
  <rect x="159" y="47" width="1" height="1" fill="#d5edf5"/>
  <rect x="0" y="48" width="154" height="8" fill="#d9edf4"/>
  <rect x="154" y="48" width="2" height="8" fill="#d8edf4"/>
  <rect x="156" y="48" width="1" height="1" fill="#d8edf6"/>
  <rect x="157" y="48" width="2" height="1" fill="#d6eef6"/>
  <rect x="159" y="48" width="1" height="1" fill="#d5eff6"/>
  <rect x="160" y="48" width="1" height="8" fill="#d6eff9"/>
  <rect x="161" y="48" width="1" height="8" fill="#bdd7e1"/>
  <rect x="156" y="49" width="2" height="6" fill="#d6eef6"/>
  <rect x="158" y="49" width="2" height="6" fill="#d5eff6"/>
  <rect x="156" y="55" width="1" height="1" fill="#d8edf6"/>
  <rect x="157" y="55" width="2" height="1" fill="#d6eef6"/>
  <rect x="159" y="55" width="1" height="1" fill="#d5eff6"/>
  <rect x="0" y="56" width="156" height="4" fill="#d9edf4"/>
  <rect x="156" y="56" width="3" height="1" fill="#d8edf6"/>
  <rect x="159" y="56" width="1" height="1" fill="#d6eef6"/>
  <rect x="160" y="56" width="1" height="5" fill="#d7eff9"/>
  <rect x="161" y="56" width="1" height="8" fill="#bfd6e1"/>
  <rect x="156" y="57" width="4" height="3" fill="#d8edf6"/>
  <rect x="0" y="60" width="12" height="4" fill="#d9edf4"/>
  <rect x="12" y="60" width="4" height="4" fill="#dbecf4"/>
  <rect x="16" y="60" width="140" height="4" fill="#d9edf4"/>
  <rect x="156" y="60" width="3" height="1" fill="#d9ecf6"/>
  <rect x="159" y="60" width="1" height="1" fill="#d8edf6"/>
  <rect x="156" y="61" width="4" height="2" fill="#d9ecf6"/>
  <rect x="160" y="61" width="1" height="2" fill="#d9eef9"/>
  <rect x="156" y="63" width="3" height="1" fill="#d9ecf6"/>
  <rect x="159" y="63" width="1" height="1" fill="#d8edf6"/>
  <rect x="160" y="63" width="1" height="1" fill="#d7eff9"/>
  <rect x="0" y="64" width="4" height="4" fill="#d9edf4"/>
  <rect x="4" y="64" width="150" height="4" fill="#dbecf4"/>
  <rect x="154" y="64" width="2" height="8" fill="#d9edf4"/>
  <rect x="156" y="64" width="3" height="1" fill="#d8edf6"/>
  <rect x="159" y="64" width="1" height="1" fill="#d6eef6"/>
  <rect x="160" y="64" width="1" height="1" fill="#d8f0fa"/>
  <rect x="161" y="64" width="1" height="4" fill="#bed8e2"/>
  <rect x="156" y="65" width="2" height="7" fill="#d8edf6"/>
  <rect x="158" y="65" width="2" height="7" fill="#d6eef6"/>
  <rect x="160" y="65" width="1" height="3" fill="#d7f1fa"/>
  <rect x="0" y="68" width="12" height="2" fill="#dbecf4"/>
  <rect x="12" y="68" width="4" height="2" fill="#ddebf4"/>
  <rect x="16" y="68" width="138" height="2" fill="#dbecf4"/>
  <rect x="160" y="68" width="1" height="4" fill="#d8f0fa"/>
  <rect x="161" y="68" width="1" height="4" fill="#c0d7e2"/>
  <rect x="0" y="70" width="154" height="2" fill="#dbecf4"/>
  <rect x="0" y="72" width="4" height="4" fill="#dcedf5"/>
  <rect x="4" y="72" width="2" height="4" fill="#deecf5"/>
  <rect x="6" y="72" width="4" height="8" fill="#dcedf5"/>
  <rect x="10" y="72" width="2" height="2" fill="#dbeef5"/>
  <rect x="12" y="72" width="142" height="2" fill="#dcedf5"/>
  <rect x="154" y="72" width="2" height="16" fill="#dbeef5"/>
  <rect x="156" y="72" width="2" height="3" fill="#d9eef7"/>
  <rect x="158" y="72" width="2" height="3" fill="#d7eff7"/>
  <rect x="160" y="72" width="1" height="8" fill="#daf1fb"/>
  <rect x="161" y="72" width="1" height="8" fill="#c1d9e3"/>
  <rect x="10" y="74" width="6" height="6" fill="#dbeef5"/>
  <rect x="16" y="74" width="138" height="6" fill="#dcedf5"/>
  <rect x="156" y="75" width="3" height="1" fill="#d9eef7"/>
  <rect x="159" y="75" width="1" height="1" fill="#d7eff7"/>
  <rect x="0" y="76" width="6" height="4" fill="#deecf5"/>
  <rect x="156" y="76" width="2" height="4" fill="#dbedf7"/>
  <rect x="158" y="76" width="2" height="4" fill="#d9eef7"/>
  <rect x="0" y="80" width="154" height="6" fill="#dcedf5"/>
  <rect x="156" y="80" width="3" height="1" fill="#d9eef7"/>
  <rect x="159" y="80" width="1" height="1" fill="#d7eff7"/>
  <rect x="160" y="80" width="1" height="1" fill="#daf1f9"/>
  <rect x="161" y="80" width="1" height="3" fill="#c0dae1"/>
  <rect x="156" y="81" width="2" height="6" fill="#d9eef7"/>
  <rect x="158" y="81" width="2" height="6" fill="#d7eff7"/>
  <rect x="160" y="81" width="1" height="2" fill="#d8f2f9"/>
  <rect x="160" y="83" width="1" height="1" fill="#d6f0f7"/>
  <rect x="161" y="83" width="1" height="1" fill="#bed9e0"/>
  <rect x="160" y="84" width="1" height="1" fill="#d6eef6"/>
  <rect x="161" y="84" width="1" height="1" fill="#c0d8e0"/>
  <rect x="160" y="85" width="1" height="3" fill="#d5edf5"/>
  <rect x="161" y="85" width="1" height="3" fill="#bfd7df"/>
  <rect x="0" y="86" width="42" height="2" fill="#dcedf5"/>
  <rect x="42" y="86" width="6" height="2" fill="#dcedf3"/>
  <rect x="48" y="86" width="58" height="2" fill="#dcedf5"/>
  <rect x="106" y="86" width="6" height="2" fill="#dcedf3"/>
  <rect x="112" y="86" width="42" height="2" fill="#dcedf5"/>
  <rect x="156" y="87" width="1" height="1" fill="#dbedf7"/>
  <rect x="157" y="87" width="2" height="1" fill="#d9eef7"/>
  <rect x="159" y="87" width="1" height="1" fill="#d7eff7"/>
  <rect x="0" y="88" width="12" height="4" fill="#ddeef6"/>
  <rect x="12" y="88" width="16" height="4" fill="#ddeff4"/>
  <rect x="28" y="88" width="10" height="8" fill="#ddeef6"/>
  <rect x="38" y="88" width="10" height="2" fill="#ddeff4"/>
  <rect x="48" y="88" width="12" height="2" fill="#ddeef6"/>
  <rect x="60" y="88" width="16" height="8" fill="#ddeff4"/>
  <rect x="76" y="88" width="26" height="8" fill="#ddeef6"/>
  <rect x="102" y="88" width="10" height="2" fill="#ddeff4"/>
  <rect x="112" y="88" width="12" height="2" fill="#ddeef6"/>
  <rect x="124" y="88" width="16" height="8" fill="#ddeff4"/>
  <rect x="140" y="88" width="16" height="4" fill="#ddeef6"/>
  <rect x="156" y="88" width="3" height="1" fill="#dceff8"/>
  <rect x="159" y="88" width="1" height="1" fill="#daeff8"/>
  <rect x="160" y="88" width="1" height="5" fill="#d8edf6"/>
  <rect x="161" y="88" width="1" height="5" fill="#c2d7e0"/>
  <rect x="156" y="89" width="4" height="3" fill="#dceff8"/>
  <rect x="38" y="90" width="4" height="6" fill="#ddeff4"/>
  <rect x="42" y="90" width="2" height="6" fill="#ddeff2"/>
  <rect x="44" y="90" width="8" height="6" fill="#ddeff4"/>
  <rect x="52" y="90" width="8" height="6" fill="#ddeef6"/>
  <rect x="102" y="90" width="4" height="6" fill="#ddeff4"/>
  <rect x="106" y="90" width="2" height="6" fill="#ddeff2"/>
  <rect x="108" y="90" width="8" height="6" fill="#ddeff4"/>
  <rect x="116" y="90" width="8" height="6" fill="#ddeef6"/>
  <rect x="0" y="92" width="10" height="4" fill="#ddeef6"/>
  <rect x="10" y="92" width="2" height="4" fill="#ddeff4"/>
  <rect x="12" y="92" width="4" height="4" fill="#dfeef4"/>
  <rect x="16" y="92" width="12" height="4" fill="#ddeff4"/>
  <rect x="140" y="92" width="19" height="1" fill="#ddeef6"/>
  <rect x="159" y="92" width="1" height="1" fill="#dceff6"/>
  <rect x="140" y="93" width="20" height="2" fill="#ddeef6"/>
  <rect x="160" y="93" width="1" height="2" fill="#d9ecf6"/>
  <rect x="161" y="93" width="1" height="1" fill="#c3d8e1"/>
  <rect x="161" y="94" width="1" height="1" fill="#c4d9e2"/>
  <rect x="140" y="95" width="19" height="1" fill="#ddeef6"/>
  <rect x="159" y="95" width="1" height="1" fill="#dceff6"/>
  <rect x="160" y="95" width="1" height="5" fill="#d8edf6"/>
  <rect x="161" y="95" width="1" height="1" fill="#c5dae3"/>
  <rect x="0" y="96" width="4" height="4" fill="#ddeef6"/>
  <rect x="4" y="96" width="2" height="4" fill="#dfedf6"/>
  <rect x="6" y="96" width="6" height="4" fill="#dfeef4"/>
  <rect x="12" y="96" width="4" height="4" fill="#dfeef2"/>
  <rect x="16" y="96" width="139" height="4" fill="#dfeef4"/>
  <rect x="155" y="96" width="2" height="1" fill="#ddeef6"/>
  <rect x="157" y="96" width="3" height="4" fill="#dceff8"/>
  <rect x="161" y="96" width="1" height="1" fill="#c6dce4"/>
  <rect x="155" y="97" width="1" height="2" fill="#dfedf6"/>
  <rect x="156" y="97" width="1" height="2" fill="#ddeef8"/>
  <rect x="161" y="97" width="1" height="1" fill="#c7dde6"/>
  <rect x="161" y="98" width="1" height="1" fill="#c9dee7"/>
  <rect x="155" y="99" width="1" height="1" fill="#ddeff4"/>
  <rect x="156" y="99" width="1" height="1" fill="#ddeef6"/>
  <rect x="161" y="99" width="1" height="1" fill="#cadfe8"/>
  <rect x="0" y="100" width="6" height="2" fill="#dfedf6"/>
  <rect x="6" y="100" width="4" height="4" fill="#dfeef4"/>
  <rect x="10" y="100" width="2" height="4" fill="#dfeef2"/>
  <rect x="12" y="100" width="4" height="2" fill="#e0edf4"/>
  <rect x="16" y="100" width="138" height="2" fill="#dfeef4"/>
  <rect x="154" y="100" width="2" height="4" fill="#ddeff4"/>
  <rect x="156" y="100" width="2" height="4" fill="#ddeef6"/>
  <rect x="158" y="100" width="2" height="4" fill="#dceff6"/>
  <rect x="160" y="100" width="1" height="4" fill="#d9ecf6"/>
  <rect x="161" y="100" width="1" height="4" fill="#cbdee8"/>
  <rect x="0" y="102" width="4" height="2" fill="#dfeef4"/>
  <rect x="4" y="102" width="2" height="2" fill="#dfedf6"/>
  <rect x="12" y="102" width="142" height="2" fill="#dfeef4"/>
  <rect x="0" y="104" width="4" height="2" fill="#e0eff5"/>
  <rect x="4" y="104" width="2" height="8" fill="#e2eef5"/>
  <rect x="6" y="104" width="4" height="8" fill="#e0eff5"/>
  <rect x="10" y="104" width="2" height="2" fill="#def0f5"/>
  <rect x="12" y="104" width="142" height="2" fill="#e0eff5"/>
  <rect x="154" y="104" width="2" height="4" fill="#def0f5"/>
  <rect x="156" y="104" width="2" height="3" fill="#deeff7"/>
  <rect x="158" y="104" width="2" height="3" fill="#ddf0f7"/>
  <rect x="160" y="104" width="1" height="2" fill="#dbedf7"/>
  <rect x="161" y="104" width="1" height="2" fill="#cddfe9"/>
  <rect x="0" y="106" width="4" height="2" fill="#e0eff3"/>
  <rect x="10" y="106" width="6" height="2" fill="#def0f5"/>
  <rect x="16" y="106" width="138" height="2" fill="#e0eff5"/>
  <rect x="160" y="106" width="1" height="4" fill="#dceff8"/>
  <rect x="161" y="106" width="1" height="1" fill="#cbdee8"/>
  <rect x="156" y="107" width="3" height="1" fill="#deeff7"/>
  <rect x="159" y="107" width="1" height="1" fill="#ddf0f7"/>
  <rect x="161" y="107" width="1" height="1" fill="#cadde7"/>
  <rect x="0" y="108" width="4" height="4" fill="#e2eff3"/>
  <rect x="10" y="108" width="2" height="4" fill="#def0f5"/>
  <rect x="12" y="108" width="4" height="3" fill="#deeff7"/>
  <rect x="16" y="108" width="140" height="4" fill="#e0eff5"/>
  <rect x="156" y="108" width="2" height="4" fill="#e0eff7"/>
  <rect x="158" y="108" width="2" height="4" fill="#deeff7"/>
  <rect x="161" y="108" width="1" height="1" fill="#c9dce6"/>
  <rect x="161" y="109" width="1" height="1" fill="#c8dbe4"/>
  <rect x="160" y="110" width="1" height="2" fill="#ddf0f9"/>
  <rect x="161" y="110" width="1" height="2" fill="#c7dae3"/>
  <rect x="12" y="111" width="3" height="1" fill="#deeff7"/>
  <rect x="15" y="111" width="1" height="1" fill="#e0eff7"/>
  <rect x="0" y="112" width="16" height="4" fill="#e1f0f6"/>
  <rect x="16" y="112" width="137" height="1" fill="#e3eff6"/>
  <rect x="153" y="112" width="2" height="1" fill="#e1f0f6"/>
  <rect x="155" y="112" width="1" height="4" fill="#e0f1f6"/>
  <rect x="156" y="112" width="3" height="1" fill="#e0f1f8"/>
  <rect x="159" y="112" width="1" height="1" fill="#def1f8"/>
  <rect x="160" y="112" width="1" height="4" fill="#ddf0f7"/>
  <rect x="161" y="112" width="1" height="2" fill="#c7dae1"/>
  <rect x="16" y="113" width="138" height="3" fill="#e3eff6"/>
  <rect x="154" y="113" width="1" height="3" fill="#e1f0f6"/>
  <rect x="156" y="113" width="2" height="2" fill="#e0f1f8"/>
  <rect x="158" y="113" width="2" height="2" fill="#def1f8"/>
  <rect x="161" y="114" width="1" height="1" fill="#c8dbe2"/>
  <rect x="156" y="115" width="3" height="1" fill="#e0f1f8"/>
  <rect x="159" y="115" width="1" height="1" fill="#def1f8"/>
  <rect x="161" y="115" width="1" height="1" fill="#c9dce4"/>
  <rect x="0" y="116" width="12" height="2" fill="#e1f0f6"/>
  <rect x="12" y="116" width="142" height="2" fill="#e3eff6"/>
  <rect x="154" y="116" width="2" height="4" fill="#e1f0f6"/>
  <rect x="156" y="116" width="2" height="7" fill="#e1f0f8"/>
  <rect x="158" y="116" width="2" height="8" fill="#e0f1f8"/>
  <rect x="160" y="116" width="1" height="4" fill="#dceff6"/>
  <rect x="161" y="116" width="1" height="1" fill="#cadee5"/>
  <rect x="161" y="117" width="1" height="1" fill="#cbdfe6"/>
  <rect x="0" y="118" width="10" height="2" fill="#e1f0f6"/>
  <rect x="10" y="118" width="2" height="2" fill="#e1f0f4"/>
  <rect x="12" y="118" width="4" height="2" fill="#e3f0f4"/>
  <rect x="16" y="118" width="10" height="2" fill="#e3eff6"/>
  <rect x="26" y="118" width="10" height="2" fill="#e3f0f4"/>
  <rect x="36" y="118" width="118" height="2" fill="#e3eff6"/>
  <rect x="161" y="118" width="1" height="2" fill="#cde0e7"/>
  <rect x="0" y="120" width="4" height="8" fill="#e1f0f6"/>
  <rect x="4" y="120" width="2" height="8" fill="#e3eff6"/>
  <rect x="6" y="120" width="10" height="2" fill="#e3f0f4"/>
  <rect x="16" y="120" width="6" height="2" fill="#e3eff6"/>
  <rect x="22" y="120" width="132" height="2" fill="#e3f0f4"/>
  <rect x="154" y="120" width="1" height="3" fill="#e1f0f4"/>
  <rect x="155" y="120" width="1" height="3" fill="#e1f0f6"/>
  <rect x="160" y="120" width="1" height="5" fill="#ddf0f7"/>
  <rect x="161" y="120" width="1" height="8" fill="#cee1e8"/>
  <rect x="6" y="122" width="4" height="6" fill="#e3f0f4"/>
  <rect x="10" y="122" width="2" height="6" fill="#e3f0f2"/>
  <rect x="12" y="122" width="8" height="2" fill="#e3f0f4"/>
  <rect x="20" y="122" width="2" height="6" fill="#e3eff6"/>
  <rect x="22" y="122" width="4" height="6" fill="#e3f0f4"/>
  <rect x="26" y="122" width="10" height="6" fill="#e3f0f2"/>
  <rect x="36" y="122" width="118" height="6" fill="#e3f0f4"/>
  <rect x="154" y="123" width="2" height="5" fill="#e1f0f4"/>
  <rect x="156" y="123" width="1" height="1" fill="#e1f0f6"/>
  <rect x="157" y="123" width="1" height="1" fill="#e1f0f8"/>
  <rect x="12" y="124" width="4" height="4" fill="#e4eff4"/>
  <rect x="16" y="124" width="4" height="4" fill="#e3f0f4"/>
  <rect x="156" y="124" width="3" height="1" fill="#e1f0f6"/>
  <rect x="159" y="124" width="1" height="1" fill="#e0f1f6"/>
  <rect x="156" y="125" width="4" height="2" fill="#e1f0f6"/>
  <rect x="160" y="125" width="1" height="2" fill="#deeff7"/>
  <rect x="156" y="127" width="3" height="1" fill="#e1f0f6"/>
  <rect x="159" y="127" width="1" height="4" fill="#e0f1f6"/>
  <rect x="160" y="127" width="1" height="1" fill="#ddf0f7"/>
  <rect x="0" y="128" width="48" height="4" fill="#e3f0f4"/>
  <rect x="48" y="128" width="16" height="4" fill="#e4f1f6"/>
  <rect x="64" y="128" width="92" height="4" fill="#e3f0f4"/>
  <rect x="156" y="128" width="1" height="1" fill="#e3eff6"/>
  <rect x="157" y="128" width="2" height="1" fill="#e1f0f6"/>
  <rect x="160" y="128" width="1" height="4" fill="#def1f8"/>
  <rect x="161" y="128" width="1" height="3" fill="#cde3e9"/>
  <rect x="156" y="129" width="2" height="2" fill="#e3eff6"/>
  <rect x="158" y="129" width="1" height="2" fill="#e1f0f6"/>
  <rect x="156" y="131" width="1" height="1" fill="#e3eff6"/>
  <rect x="157" y="131" width="1" height="1" fill="#e1f0f6"/>
  <rect x="158" y="131" width="2" height="1" fill="#e0f1f6"/>
  <rect x="161" y="131" width="1" height="1" fill="#cfe2e9"/>
  <rect x="0" y="132" width="48" height="8" fill="#e4f1f6"/>
  <rect x="48" y="132" width="16" height="8" fill="#e5f2f7"/>
  <rect x="64" y="132" width="90" height="4" fill="#e4f1f6"/>
  <rect x="154" y="132" width="2" height="4" fill="#e2f2f6"/>
  <rect x="156" y="132" width="2" height="4" fill="#e2f1f8"/>
  <rect x="158" y="132" width="3" height="4" fill="#e1f2f8"/>
  <rect x="161" y="132" width="1" height="8" fill="#d2e3e8"/>
  <rect x="64" y="136" width="92" height="4" fill="#e4f1f6"/>
  <rect x="156" y="136" width="4" height="3" fill="#e2f1f8"/>
  <rect x="160" y="136" width="1" height="3" fill="#e1f2f8"/>
  <rect x="156" y="139" width="5" height="1" fill="#e2f1f8"/>
  <rect x="0" y="140" width="12" height="4" fill="#e5f2f7"/>
  <rect x="12" y="140" width="4" height="4" fill="#e7f1f7"/>
  <rect x="16" y="140" width="32" height="4" fill="#e5f2f7"/>
  <rect x="48" y="140" width="16" height="4" fill="#e6f3f8"/>
  <rect x="64" y="140" width="26" height="4" fill="#e5f2f7"/>
  <rect x="90" y="140" width="6" height="4" fill="#e5f2f5"/>
  <rect x="96" y="140" width="26" height="4" fill="#e5f2f7"/>
  <rect x="122" y="140" width="6" height="4" fill="#e5f2f5"/>
  <rect x="128" y="140" width="28" height="4" fill="#e5f2f7"/>
  <rect x="156" y="140" width="4" height="4" fill="#e5f2f9"/>
  <rect x="160" y="140" width="1" height="2" fill="#e4f2f9"/>
  <rect x="161" y="140" width="1" height="2" fill="#d4e3ea"/>
  <rect x="160" y="142" width="1" height="2" fill="#e5f4fa"/>
  <rect x="161" y="142" width="1" height="4" fill="#d6e4eb"/>
  <rect x="0" y="144" width="4" height="4" fill="#e6f3f8"/>
  <rect x="4" y="144" width="8" height="4" fill="#e8f2f8"/>
  <rect x="12" y="144" width="16" height="4" fill="#e8f3f6"/>
  <rect x="28" y="144" width="16" height="6" fill="#e8f2f8"/>
  <rect x="44" y="144" width="16" height="6" fill="#e8f3f6"/>
  <rect x="60" y="144" width="26" height="8" fill="#e8f2f8"/>
  <rect x="86" y="144" width="10" height="8" fill="#e8f3f6"/>
  <rect x="96" y="144" width="22" height="8" fill="#e8f2f8"/>
  <rect x="118" y="144" width="10" height="8" fill="#e8f3f6"/>
  <rect x="128" y="144" width="27" height="1" fill="#e8f2f8"/>
  <rect x="155" y="144" width="1" height="1" fill="#e6f3f8"/>
  <rect x="156" y="144" width="1" height="4" fill="#e6f3fa"/>
  <rect x="157" y="144" width="4" height="2" fill="#e5f4fa"/>
  <rect x="128" y="145" width="28" height="7" fill="#e8f2f8"/>
  <rect x="157" y="146" width="3" height="2" fill="#e5f4fa"/>
  <rect x="160" y="146" width="1" height="6" fill="#e6f5fb"/>
  <rect x="161" y="146" width="1" height="6" fill="#d7e6ec"/>
  <rect x="0" y="148" width="12" height="4" fill="#e8f2f8"/>
  <rect x="12" y="148" width="4" height="2" fill="#e9f2f6"/>
  <rect x="16" y="148" width="12" height="2" fill="#e8f3f6"/>
  <rect x="156" y="148" width="4" height="8" fill="#e6f3fa"/>
  <rect x="12" y="150" width="16" height="2" fill="#e8f3f6"/>
  <rect x="28" y="150" width="14" height="2" fill="#e8f2f8"/>
  <rect x="42" y="150" width="18" height="2" fill="#e8f3f6"/>
  <rect x="0" y="152" width="4" height="4" fill="#e8f2f8"/>
  <rect x="4" y="152" width="2" height="4" fill="#e9f2f8"/>
  <rect x="6" y="152" width="4" height="8" fill="#e8f2f8"/>
  <rect x="10" y="152" width="2" height="2" fill="#e6f3f8"/>
  <rect x="12" y="152" width="4" height="2" fill="#e8f2f8"/>
  <rect x="16" y="152" width="22" height="8" fill="#e9f4f9"/>
  <rect x="38" y="152" width="10" height="2" fill="#e9f4f7"/>
  <rect x="48" y="152" width="4" height="8" fill="#e8f3f6"/>
  <rect x="52" y="152" width="38" height="4" fill="#e8f2f8"/>
  <rect x="90" y="152" width="6" height="4" fill="#e8f3f6"/>
  <rect x="96" y="152" width="26" height="4" fill="#e8f2f8"/>
  <rect x="122" y="152" width="6" height="4" fill="#e8f3f6"/>
  <rect x="128" y="152" width="12" height="4" fill="#e8f2f8"/>
  <rect x="140" y="152" width="15" height="8" fill="#e8f3f6"/>
  <rect x="155" y="152" width="1" height="8" fill="#e8f2f8"/>
  <rect x="160" y="152" width="1" height="5" fill="#e7f6fc"/>
  <rect x="161" y="152" width="1" height="8" fill="#d8e7ed"/>
  <rect x="10" y="154" width="6" height="5" fill="#e6f3f8"/>
  <rect x="38" y="154" width="4" height="2" fill="#e9f4f7"/>
  <rect x="42" y="154" width="2" height="2" fill="#e9f4f5"/>
  <rect x="44" y="154" width="4" height="2" fill="#e9f4f7"/>
  <rect x="0" y="156" width="6" height="4" fill="#e9f2f8"/>
  <rect x="38" y="156" width="10" height="4" fill="#e9f4f7"/>
  <rect x="52" y="156" width="32" height="4" fill="#e8f2f8"/>
  <rect x="84" y="156" width="2" height="4" fill="#e9f2f8"/>
  <rect x="86" y="156" width="54" height="4" fill="#e8f2f8"/>
  <rect x="156" y="156" width="3" height="1" fill="#e8f2fa"/>
  <rect x="159" y="156" width="1" height="1" fill="#e6f3fa"/>
  <rect x="156" y="157" width="4" height="3" fill="#e8f2fa"/>
  <rect x="160" y="157" width="1" height="3" fill="#e9f5fc"/>
  <rect x="10" y="159" width="5" height="1" fill="#e6f3f8"/>
  <rect x="15" y="159" width="1" height="1" fill="#e8f2f8"/>
  <rect x="0" y="160" width="16" height="4" fill="#e9f4f9"/>
  <rect x="16" y="160" width="26" height="4" fill="#ebf3f9"/>
  <rect x="42" y="160" width="2" height="4" fill="#ebf3f7"/>
  <rect x="44" y="160" width="4" height="4" fill="#ebf3f9"/>
  <rect x="48" y="160" width="28" height="4" fill="#e9f4f9"/>
  <rect x="76" y="160" width="14" height="4" fill="#ebf3f9"/>
  <rect x="90" y="160" width="22" height="4" fill="#e9f4f9"/>
  <rect x="112" y="160" width="32" height="4" fill="#ebf3f9"/>
  <rect x="144" y="160" width="4" height="6" fill="#ebf3f7"/>
  <rect x="148" y="160" width="8" height="8" fill="#ebf3f9"/>
  <rect x="156" y="160" width="4" height="4" fill="#e9f3fb"/>
  <rect x="160" y="160" width="1" height="4" fill="#e7f4fb"/>
  <rect x="161" y="160" width="1" height="4" fill="#dfecf3"/>
  <rect x="0" y="164" width="12" height="2" fill="#e9f4f9"/>
  <rect x="12" y="164" width="36" height="2" fill="#ebf3f9"/>
  <rect x="48" y="164" width="20" height="4" fill="#e9f4f9"/>
  <rect x="68" y="164" width="2" height="4" fill="#ebf3f9"/>
  <rect x="70" y="164" width="6" height="4" fill="#e9f4f9"/>
  <rect x="76" y="164" width="8" height="2" fill="#ebf3f9"/>
  <rect x="84" y="164" width="2" height="2" fill="#ecf2f9"/>
  <rect x="86" y="164" width="4" height="2" fill="#ebf3f9"/>
  <rect x="90" y="164" width="18" height="2" fill="#e9f4f9"/>
  <rect x="108" y="164" width="36" height="2" fill="#ebf3f9"/>
  <rect x="156" y="164" width="5" height="2" fill="#e9f3fb"/>
  <rect x="161" y="164" width="1" height="4" fill="#e1ebf3"/>
  <rect x="0" y="166" width="10" height="2" fill="#e9f4f9"/>
  <rect x="10" y="166" width="2" height="2" fill="#e9f4f7"/>
  <rect x="12" y="166" width="4" height="2" fill="#ebf3f7"/>
  <rect x="16" y="166" width="32" height="2" fill="#ebf3f9"/>
  <rect x="76" y="166" width="14" height="2" fill="#ebf3f9"/>
  <rect x="90" y="166" width="16" height="2" fill="#e9f4f9"/>
  <rect x="106" y="166" width="2" height="2" fill="#e9f4f7"/>
  <rect x="108" y="166" width="4" height="2" fill="#ebf3f7"/>
  <rect x="112" y="166" width="10" height="2" fill="#ebf3f9"/>
  <rect x="122" y="166" width="6" height="2" fill="#ebf3f7"/>
  <rect x="128" y="166" width="10" height="2" fill="#ebf3f9"/>
  <rect x="138" y="166" width="10" height="2" fill="#ebf3f7"/>
  <rect x="156" y="166" width="4" height="2" fill="#e9f4f9"/>
  <rect x="160" y="166" width="1" height="2" fill="#e9f3fb"/>
  <rect x="0" y="168" width="4" height="8" fill="#eaf5fa"/>
  <rect x="4" y="168" width="2" height="8" fill="#ecf4fa"/>
  <rect x="6" y="168" width="10" height="2" fill="#ecf4f8"/>
  <rect x="16" y="168" width="12" height="2" fill="#ecf4fa"/>
  <rect x="28" y="168" width="16" height="7" fill="#ecf4f8"/>
  <rect x="44" y="168" width="4" height="7" fill="#ecf4fa"/>
  <rect x="48" y="168" width="12" height="8" fill="#eaf5fa"/>
  <rect x="60" y="168" width="14" height="4" fill="#ecf4f8"/>
  <rect x="74" y="168" width="10" height="2" fill="#eaf5f8"/>
  <rect x="84" y="168" width="2" height="2" fill="#ecf4f8"/>
  <rect x="86" y="168" width="6" height="2" fill="#eaf5f8"/>
  <rect x="92" y="168" width="8" height="8" fill="#eaf5fa"/>
  <rect x="100" y="168" width="2" height="8" fill="#ecf4fa"/>
  <rect x="102" y="168" width="10" height="2" fill="#ecf4f8"/>
  <rect x="112" y="168" width="6" height="2" fill="#ecf4fa"/>
  <rect x="118" y="168" width="10" height="2" fill="#ecf4f8"/>
  <rect x="128" y="168" width="6" height="2" fill="#ecf4fa"/>
  <rect x="134" y="168" width="20" height="2" fill="#ecf4f8"/>
  <rect x="154" y="168" width="2" height="8" fill="#eaf5f8"/>
  <rect x="156" y="168" width="2" height="4" fill="#eaf5fa"/>
  <rect x="158" y="168" width="2" height="2" fill="#e9f6fa"/>
  <rect x="160" y="168" width="1" height="2" fill="#e9f5fc"/>
  <rect x="161" y="168" width="1" height="2" fill="#e0edf4"/>
  <rect x="6" y="170" width="4" height="6" fill="#ecf4f8"/>
  <rect x="10" y="170" width="2" height="6" fill="#ecf5f6"/>
  <rect x="12" y="170" width="8" height="2" fill="#ecf4f8"/>
  <rect x="20" y="170" width="8" height="6" fill="#ecf4fa"/>
  <rect x="74" y="170" width="18" height="6" fill="#eaf5f8"/>
  <rect x="102" y="170" width="4" height="6" fill="#ecf4f8"/>
  <rect x="106" y="170" width="2" height="6" fill="#ecf5f6"/>
  <rect x="108" y="170" width="8" height="2" fill="#ecf4f8"/>
  <rect x="116" y="170" width="2" height="6" fill="#ecf4fa"/>
  <rect x="118" y="170" width="4" height="2" fill="#ecf4f8"/>
  <rect x="122" y="170" width="2" height="1" fill="#ecf5f6"/>
  <rect x="124" y="170" width="8" height="1" fill="#ecf4f8"/>
  <rect x="132" y="170" width="2" height="6" fill="#ecf4fa"/>
  <rect x="134" y="170" width="4" height="2" fill="#ecf4f8"/>
  <rect x="138" y="170" width="6" height="2" fill="#ecf5f6"/>
  <rect x="144" y="170" width="10" height="2" fill="#ecf4f8"/>
  <rect x="158" y="170" width="3" height="2" fill="#e9f6fa"/>
  <rect x="161" y="170" width="1" height="6" fill="#e0edf2"/>
  <rect x="122" y="171" width="1" height="1" fill="#ecf5f6"/>
  <rect x="123" y="171" width="9" height="1" fill="#ecf4f8"/>
  <rect x="12" y="172" width="4" height="4" fill="#edf3f8"/>
  <rect x="16" y="172" width="4" height="4" fill="#ecf4f8"/>
  <rect x="60" y="172" width="8" height="4" fill="#ecf4f8"/>
  <rect x="68" y="172" width="2" height="4" fill="#edf3f8"/>
  <rect x="70" y="172" width="4" height="4" fill="#ecf4f8"/>
  <rect x="108" y="172" width="4" height="4" fill="#edf3f8"/>
  <rect x="112" y="172" width="4" height="4" fill="#ecf4f8"/>
  <rect x="118" y="172" width="6" height="4" fill="#ecf4f8"/>
  <rect x="124" y="172" width="4" height="4" fill="#ecf4fa"/>
  <rect x="128" y="172" width="4" height="4" fill="#ecf4f8"/>
  <rect x="134" y="172" width="20" height="4" fill="#ecf4f8"/>
  <rect x="156" y="172" width="4" height="4" fill="#eaf5fa"/>
  <rect x="160" y="172" width="1" height="4" fill="#e9f6fa"/>
  <rect x="28" y="175" width="15" height="1" fill="#ecf4f8"/>
  <rect x="43" y="175" width="5" height="1" fill="#ecf4fa"/>
  <rect x="0" y="176" width="16" height="8" fill="#ecf4f8"/>
  <rect x="16" y="176" width="16" height="6" fill="#ecf4fa"/>
  <rect x="32" y="176" width="4" height="6" fill="#ecf4f8"/>
  <rect x="36" y="176" width="8" height="6" fill="#ecf4fa"/>
  <rect x="44" y="176" width="4" height="6" fill="#ecf3fc"/>
  <rect x="48" y="176" width="48" height="6" fill="#ecf4fa"/>
  <rect x="96" y="176" width="20" height="6" fill="#ecf4f8"/>
  <rect x="116" y="176" width="6" height="4" fill="#ecf4fa"/>
  <rect x="122" y="176" width="2" height="3" fill="#ecf4f8"/>
  <rect x="124" y="176" width="14" height="3" fill="#ecf4fa"/>
  <rect x="138" y="176" width="20" height="4" fill="#ecf4f8"/>
  <rect x="158" y="176" width="2" height="4" fill="#eaf5f8"/>
  <rect x="160" y="176" width="1" height="6" fill="#ebf6fb"/>
  <rect x="161" y="176" width="1" height="6" fill="#e3eef3"/>
  <rect x="122" y="179" width="1" height="1" fill="#ecf4f8"/>
  <rect x="123" y="179" width="15" height="1" fill="#ecf4fa"/>
  <rect x="116" y="180" width="8" height="2" fill="#ecf4fa"/>
  <rect x="124" y="180" width="4" height="2" fill="#ecf3fc"/>
  <rect x="128" y="180" width="16" height="2" fill="#ecf4fa"/>
  <rect x="144" y="180" width="16" height="4" fill="#ecf4f8"/>
  <rect x="16" y="182" width="10" height="2" fill="#ecf4fa"/>
  <rect x="26" y="182" width="10" height="2" fill="#ecf4f8"/>
  <rect x="36" y="182" width="54" height="2" fill="#ecf4fa"/>
  <rect x="90" y="182" width="26" height="2" fill="#ecf4f8"/>
  <rect x="116" y="182" width="28" height="2" fill="#ecf4fa"/>
  <rect x="160" y="182" width="1" height="4" fill="#edf7fd"/>
  <rect x="161" y="182" width="1" height="4" fill="#e4eff4"/>
  <rect x="0" y="184" width="16" height="8" fill="#edf5f9"/>
  <rect x="16" y="184" width="6" height="8" fill="#edf5fb"/>
  <rect x="22" y="184" width="54" height="2" fill="#edf5f9"/>
  <rect x="76" y="184" width="10" height="8" fill="#edf5fb"/>
  <rect x="86" y="184" width="54" height="2" fill="#edf5f9"/>
  <rect x="140" y="184" width="4" height="8" fill="#edf5fb"/>
  <rect x="144" y="184" width="16" height="8" fill="#edf5f9"/>
  <rect x="22" y="186" width="4" height="6" fill="#edf5f9"/>
  <rect x="26" y="186" width="6" height="6" fill="#edf6f7"/>
  <rect x="32" y="186" width="16" height="6" fill="#edf5f9"/>
  <rect x="48" y="186" width="4" height="6" fill="#edf6f7"/>
  <rect x="52" y="186" width="24" height="6" fill="#edf5f9"/>
  <rect x="86" y="186" width="4" height="6" fill="#edf5f9"/>
  <rect x="90" y="186" width="6" height="6" fill="#edf6f7"/>
  <rect x="96" y="186" width="32" height="6" fill="#edf5f9"/>
  <rect x="128" y="186" width="4" height="6" fill="#edf6f7"/>
  <rect x="132" y="186" width="8" height="6" fill="#edf5f9"/>
  <rect x="160" y="186" width="1" height="3" fill="#eef8fe"/>
  <rect x="161" y="186" width="1" height="4" fill="#e6f0f6"/>
  <rect x="160" y="189" width="1" height="2" fill="#edf7fd"/>
  <rect x="161" y="190" width="1" height="4" fill="#e4eff4"/>
  <rect x="160" y="191" width="1" height="2" fill="#ebf6fb"/>
  <rect x="0" y="192" width="160" height="4" fill="#edf5f9"/>
  <rect x="160" y="193" width="1" height="2" fill="#eaf5fa"/>
  <rect x="161" y="194" width="1" height="2" fill="#e3eef3"/>
  <rect x="160" y="195" width="1" height="1" fill="#e9f4f9"/>
  <rect x="0" y="196" width="160" height="8" fill="#eef7fb"/>
  <rect x="160" y="196" width="1" height="4" fill="#eaf5fa"/>
  <rect x="161" y="196" width="1" height="4" fill="#e4eff4"/>
  <rect x="160" y="200" width="1" height="4" fill="#ebf6fb"/>
  <rect x="161" y="200" width="1" height="4" fill="#e6f0f6"/>
  <rect x="0" y="204" width="12" height="4" fill="#eff8fc"/>
  <rect x="12" y="204" width="4" height="4" fill="#f1f7fc"/>
  <rect x="16" y="204" width="144" height="4" fill="#eff8fc"/>
  <rect x="160" y="204" width="1" height="4" fill="#eef6fd"/>
  <rect x="161" y="204" width="1" height="4" fill="#e8f0f7"/>
  <rect x="0" y="208" width="4" height="4" fill="#eff8fc"/>
  <rect x="4" y="208" width="156" height="4" fill="#f1f7fc"/>
  <rect x="160" y="208" width="1" height="4" fill="#eef7fb"/>
  <rect x="161" y="208" width="1" height="4" fill="#e8f1f5"/>
  <rect x="0" y="212" width="12" height="1" fill="#f1f7fc"/>
  <rect x="12" y="212" width="4" height="1" fill="#f2f6fc"/>
  <rect x="16" y="212" width="144" height="1" fill="#f1f7fc"/>
  <rect x="160" y="212" width="1" height="1" fill="#f0f6fb"/>
  <rect x="161" y="212" width="1" height="1" fill="#eaf0f5"/>
</svg>