<svg xmlns="http://www.w3.org/2000/svg" width="90" height="97" viewBox="0 0 90 97" shape-rendering="crispEdges">
  <rect x="9" y="0" width="1" height="1" fill="#0101010a"/>
  <rect x="10" y="0" width="2" height="1" fill="#0101010b"/>
  <rect x="12" y="0" width="4" height="1" fill="#0101010c"/>
  <rect x="16" y="0" width="62" height="1" fill="#0000000c"/>
  <rect x="78" y="0" width="2" height="1" fill="#0000000b"/>
  <rect x="80" y="0" width="1" height="1" fill="#0000000a"/>
  <rect x="6" y="1" width="1" height="1" fill="#0101010b"/>
  <rect x="7" y="1" width="1" height="1" fill="#0101010d"/>
  <rect x="8" y="1" width="1" height="1" fill="#0101010f"/>
  <rect x="9" y="1" width="1" height="1" fill="#01010111"/>
  <rect x="10" y="1" width="1" height="1" fill="#01010112"/>
  <rect x="11" y="1" width="1" height="1" fill="#01010113"/>
  <rect x="12" y="1" width="4" height="1" fill="#01010114"/>
  <rect x="16" y="1" width="62" height="1" fill="#00000014"/>
  <rect x="78" y="1" width="1" height="1" fill="#00000013"/>
  <rect x="79" y="1" width="1" height="1" fill="#00000012"/>
  <rect x="80" y="1" width="1" height="1" fill="#00000011"/>
  <rect x="81" y="1" width="1" height="1" fill="#0000000f"/>
  <rect x="82" y="1" width="1" height="1" fill="#0000000d"/>
  <rect x="83" y="1" width="1" height="1" fill="#0000000b"/>
  <rect x="4" y="2" width="1" height="1" fill="#0101010a"/>
  <rect x="5" y="2" width="1" height="1" fill="#0101010d"/>
  <rect x="6" y="2" width="1" height="1" fill="#01010111"/>
  <rect x="7" y="2" width="1" height="1" fill="#01010114"/>
  <rect x="8" y="2" width="1" height="1" fill="#01010117"/>
  <rect x="9" y="2" width="1" height="1" fill="#01010119"/>
  <rect x="10" y="2" width="1" height="1" fill="#0101011b"/>
  <rect x="11" y="2" width="1" height="1" fill="#0101011c"/>
  <rect x="12" y="2" width="1" height="1" fill="#0101011d"/>
  <rect x="13" y="2" width="3" height="1" fill="#0101011e"/>
  <rect x="16" y="2" width="61" height="1" fill="#0000001e"/>
  <rect x="77" y="2" width="1" height="1" fill="#0000001d"/>
  <rect x="78" y="2" width="1" height="1" fill="#0000001c"/>
  <rect x="79" y="2" width="1" height="1" fill="#0000001b"/>
  <rect x="80" y="2" width="1" height="1" fill="#00000019"/>
  <rect x="81" y="2" width="1" height="1" fill="#00000017"/>
  <rect x="82" y="2" width="1" height="1" fill="#00000014"/>
  <rect x="83" y="2" width="1" height="1" fill="#00000011"/>
  <rect x="84" y="2" width="1" height="1" fill="#0000000d"/>
  <rect x="85" y="2" width="1" height="1" fill="#0000000a"/>
  <rect x="3" y="3" width="1" height="1" fill="#0000000b"/>
  <rect x="4" y="3" width="1" height="1" fill="#0101010f"/>
  <rect x="5" y="3" width="1" height="1" fill="#01010113"/>
  <rect x="6" y="3" width="1" height="1" fill="#01010118"/>
  <rect x="7" y="3" width="1" height="1" fill="#0101011c"/>
  <rect x="8" y="3" width="1" height="1" fill="#01010120"/>
  <rect x="9" y="3" width="1" height="1" fill="#01010123"/>
  <rect x="10" y="3" width="1" height="1" fill="#01010126"/>
  <rect x="11" y="3" width="1" height="1" fill="#01010128"/>
  <rect x="12" y="3" width="1" height="1" fill="#01010129"/>
  <rect x="13" y="3" width="3" height="1" fill="#0101012a"/>
  <rect x="16" y="3" width="61" height="1" fill="#0000002a"/>
  <rect x="77" y="3" width="1" height="1" fill="#00000029"/>
  <rect x="78" y="3" width="1" height="1" fill="#00000028"/>
  <rect x="79" y="3" width="1" height="1" fill="#00000026"/>
  <rect x="80" y="3" width="1" height="1" fill="#00000023"/>
  <rect x="81" y="3" width="1" height="1" fill="#00000020"/>
  <rect x="82" y="3" width="1" height="1" fill="#0000001c"/>
  <rect x="83" y="3" width="1" height="1" fill="#00000018"/>
  <rect x="84" y="3" width="1" height="1" fill="#00000013"/>
  <rect x="85" y="3" width="1" height="1" fill="#0000000f"/>
  <rect x="86" y="3" width="1" height="1" fill="#0000000b"/>
  <rect x="2" y="4" width="1" height="1" fill="#0303030a"/>
  <rect x="3" y="4" width="1" height="1" fill="#0000000f"/>
  <rect x="4" y="4" width="1" height="1" fill="#08080814"/>
  <rect x="5" y="4" width="1" height="1" fill="#0000001a"/>
  <rect x="6" y="4" width="1" height="1" fill="#1e1e1e37"/>
  <rect x="7" y="4" width="1" height="1" fill="#2626265a"/>
  <rect x="8" y="4" width="1" height="1" fill="#3636366f"/>
  <rect x="9" y="4" width="7" height="1" fill="#36363673"/>
  <rect x="16" y="4" width="64" height="1" fill="#34343473"/>
  <rect x="80" y="4" width="1" height="1" fill="#31313173"/>
  <rect x="81" y="4" width="1" height="1" fill="#2626266f"/>
  <rect x="82" y="4" width="1" height="1" fill="#3030305a"/>
  <rect x="83" y="4" width="1" height="1" fill="#1c1c1c37"/>
  <rect x="84" y="4" width="1" height="1" fill="#0000001a"/>
  <rect x="85" y="4" width="1" height="1" fill="#05050514"/>
  <rect x="86" y="4" width="1" height="1" fill="#0000000f"/>
  <rect x="87" y="4" width="1" height="1" fill="#0000000a"/>
  <rect x="2" y="5" width="1" height="1" fill="#0303030d"/>
  <rect x="3" y="5" width="1" height="1" fill="#00000013"/>
  <rect x="4" y="5" width="1" height="1" fill="#0000001a"/>
  <rect x="5" y="5" width="1" height="1" fill="#2f2f2f4c"/>
  <rect x="6" y="5" width="1" height="1" fill="#5a5a5a75"/>
  <rect x="7" y="5" width="1" height="1" fill="#c1c1c17c"/>
  <rect x="8" y="5" width="1" height="1" fill="#fdfdfd7f"/>
  <rect x="9" y="5" width="7" height="1" fill="#fdfdfd80"/>
  <rect x="16" y="5" width="64" height="1" fill="#fcfbfc80"/>
  <rect x="80" y="5" width="1" height="1" fill="#fdfdfd80"/>
  <rect x="81" y="5" width="1" height="1" fill="#fafafa7f"/>
  <rect x="82" y="5" width="1" height="1" fill="#c7c7c77c"/>
  <rect x="83" y="5" width="1" height="1" fill="#57575775"/>
  <rect x="84" y="5" width="1" height="1" fill="#2424244c"/>
  <rect x="85" y="5" width="1" height="1" fill="#0000001a"/>
  <rect x="86" y="5" width="1" height="1" fill="#01010113"/>
  <rect x="87" y="5" width="1" height="1" fill="#0000000d"/>
  <rect x="1" y="6" width="1" height="1" fill="#0101010b"/>
  <rect x="2" y="6" width="1" height="1" fill="#02020211"/>
  <rect x="3" y="6" width="1" height="1" fill="#00000018"/>
  <rect x="4" y="6" width="1" height="1" fill="#1e1e1e37"/>
  <rect x="5" y="6" width="1" height="1" fill="#5a5a5a75"/>
  <rect x="6" y="6" width="1" height="1" fill="#f7f7f77f"/>
  <rect x="7" y="6" width="1" height="1" fill="#fcfbfc73"/>
  <rect x="8" y="6" width="1" height="1" fill="#ffffff11"/>
  <rect x="81" y="6" width="1" height="1" fill="#ffffff11"/>
  <rect x="82" y="6" width="1" height="1" fill="#ffffff73"/>
  <rect x="83" y="6" width="1" height="1" fill="#efefef7f"/>
  <rect x="84" y="6" width="1" height="1" fill="#54545475"/>
  <rect x="85" y="6" width="1" height="1" fill="#26262637"/>
  <rect x="86" y="6" width="1" height="1" fill="#00000018"/>
  <rect x="87" y="6" width="1" height="1" fill="#00000011"/>
  <rect x="88" y="6" width="1" height="1" fill="#0000000b"/>
  <rect x="1" y="7" width="1" height="1" fill="#0101010d"/>
  <rect x="2" y="7" width="1" height="1" fill="#01010114"/>
  <rect x="3" y="7" width="1" height="1" fill="#0000001c"/>
  <rect x="4" y="7" width="1" height="1" fill="#2626265a"/>
  <rect x="5" y="7" width="1" height="1" fill="#c1c1c17c"/>
  <rect x="6" y="7" width="1" height="1" fill="#fcfbfc71"/>
  <rect x="83" y="7" width="1" height="1" fill="#ffffff71"/>
  <rect x="84" y="7" width="1" height="1" fill="#c4c4c47c"/>
  <rect x="85" y="7" width="1" height="1" fill="#2828285a"/>
  <rect x="86" y="7" width="1" height="1" fill="#0202021c"/>
  <rect x="87" y="7" width="1" height="1" fill="#00000014"/>
  <rect x="88" y="7" width="1" height="1" fill="#0000000d"/>
  <rect x="1" y="8" width="1" height="1" fill="#0000000f"/>
  <rect x="2" y="8" width="1" height="1" fill="#00000017"/>
  <rect x="3" y="8" width="1" height="1" fill="#00000020"/>
  <rect x="4" y="8" width="1" height="1" fill="#2f2f2f6f"/>
  <rect x="5" y="8" width="1" height="1" fill="#fafafa7f"/>
  <rect x="6" y="8" width="1" height="1" fill="#ffffff11"/>
  <rect x="83" y="8" width="1" height="1" fill="#ffffff0f"/>
  <rect x="84" y="8" width="1" height="1" fill="#fdfdfd7f"/>
  <rect x="85" y="8" width="1" height="1" fill="#31313170"/>
  <rect x="86" y="8" width="1" height="1" fill="#02020220"/>
  <rect x="87" y="8" width="1" height="1" fill="#00000017"/>
  <rect x="88" y="8" width="1" height="1" fill="#0000000f"/>
  <rect x="1" y="9" width="1" height="1" fill="#00000011"/>
  <rect x="2" y="9" width="1" height="1" fill="#00000019"/>
  <rect x="3" y="9" width="1" height="1" fill="#01010123"/>
  <rect x="4" y="9" width="1" height="1" fill="#2f2f2f73"/>
  <rect x="5" y="9" width="1" height="1" fill="#fafafa80"/>
  <rect x="84" y="9" width="1" height="71" fill="#fdfdfd80"/>
  <rect x="85" y="9" width="1" height="71" fill="#31313173"/>
  <rect x="86" y="9" width="1" height="1" fill="#01010123"/>
  <rect x="87" y="9" width="1" height="1" fill="#00000019"/>
  <rect x="88" y="9" width="1" height="1" fill="#00000011"/>
  <rect x="89" y="9" width="1" height="1" fill="#0000000a"/>
  <rect x="1" y="10" width="1" height="1" fill="#00000012"/>
  <rect x="2" y="10" width="1" height="1" fill="#0000001b"/>
  <rect x="3" y="10" width="1" height="1" fill="#02020226"/>
  <rect x="4" y="10" width="1" height="2" fill="#30303073"/>
  <rect x="5" y="10" width="1" height="2" fill="#fcfbfc80"/>
  <rect x="86" y="10" width="1" height="1" fill="#01010126"/>
  <rect x="87" y="10" width="1" height="1" fill="#0000001b"/>
  <rect x="88" y="10" width="1" height="1" fill="#00000012"/>
  <rect x="89" y="10" width="1" height="2" fill="#0000000b"/>
  <rect x="1" y="11" width="1" height="1" fill="#00000013"/>
  <rect x="2" y="11" width="1" height="1" fill="#0000001c"/>
  <rect x="3" y="11" width="1" height="1" fill="#02020228"/>
  <rect x="86" y="11" width="1" height="1" fill="#01010128"/>
  <rect x="87" y="11" width="1" height="1" fill="#0000001c"/>
  <rect x="88" y="11" width="1" height="1" fill="#00000013"/>
  <rect x="1" y="12" width="1" height="66" fill="#00000014"/>
  <rect x="2" y="12" width="1" height="1" fill="#0000001d"/>
  <rect x="3" y="12" width="1" height="1" fill="#02020229"/>
  <rect x="4" y="12" width="1" height="2" fill="#31313173"/>
  <rect x="5" y="12" width="1" height="2" fill="#fdfdfd80"/>
  <rect x="86" y="12" width="1" height="1" fill="#01010129"/>
  <rect x="87" y="12" width="1" height="1" fill="#0000001d"/>
  <rect x="88" y="12" width="1" height="66" fill="#00000014"/>
  <rect x="89" y="12" width="1" height="66" fill="#0000000c"/>
  <rect x="2" y="13" width="1" height="64" fill="#0000001e"/>
  <rect x="3" y="13" width="1" height="3" fill="#0202022a"/>
  <rect x="86" y="13" width="1" height="64" fill="#0101012a"/>
  <rect x="87" y="13" width="1" height="64" fill="#0000001e"/>
  <rect x="4" y="14" width="1" height="2" fill="#32323273"/>
  <rect x="5" y="14" width="1" height="2" fill="#fefefe80"/>
  <rect x="3" y="16" width="1" height="61" fill="#0101012a"/>
  <rect x="4" y="16" width="1" height="64" fill="#31313173"/>
  <rect x="5" y="16" width="1" height="64" fill="#fdfdfd80"/>
  <rect x="2" y="77" width="1" height="1" fill="#0000001d"/>
  <rect x="3" y="77" width="1" height="1" fill="#01010129"/>
  <rect x="86" y="77" width="1" height="1" fill="#00000029"/>
  <rect x="87" y="77" width="1" height="1" fill="#0000001d"/>
  <rect x="1" y="78" width="1" height="1" fill="#00000013"/>
  <rect x="2" y="78" width="1" height="1" fill="#0000001c"/>
  <rect x="3" y="78" width="1" height="1" fill="#01010128"/>
  <rect x="86" y="78" width="1" height="1" fill="#00000028"/>
  <rect x="87" y="78" width="1" height="1" fill="#0000001c"/>
  <rect x="88" y="78" width="1" height="1" fill="#00000013"/>
  <rect x="89" y="78" width="1" height="2" fill="#0000000b"/>
  <rect x="1" y="79" width="1" height="1" fill="#00000012"/>
  <rect x="2" y="79" width="1" height="1" fill="#0000001b"/>
  <rect x="3" y="79" width="1" height="1" fill="#01010126"/>
  <rect x="86" y="79" width="1" height="1" fill="#00000026"/>
  <rect x="87" y="79" width="1" height="1" fill="#0000001b"/>
  <rect x="88" y="79" width="1" height="1" fill="#00000012"/>
  <rect x="1" y="80" width="1" height="1" fill="#00000011"/>
  <rect x="2" y="80" width="1" height="1" fill="#00000019"/>
  <rect x="3" y="80" width="1" height="1" fill="#02020223"/>
  <rect x="4" y="80" width="1" height="1" fill="#2c2c2c73"/>
  <rect x="5" y="80" width="1" height="1" fill="#ffffff80"/>
  <rect x="84" y="80" width="1" height="1" fill="#ffffff80"/>
  <rect x="85" y="80" width="1" height="1" fill="#33333373"/>
  <rect x="86" y="80" width="1" height="1" fill="#00000023"/>
  <rect x="87" y="80" width="1" height="1" fill="#00000019"/>
  <rect x="88" y="80" width="1" height="1" fill="#00000011"/>
  <rect x="89" y="80" width="1" height="1" fill="#0000000a"/>
  <rect x="1" y="81" width="1" height="1" fill="#0000000f"/>
  <rect x="2" y="81" width="1" height="1" fill="#00000017"/>
  <rect x="3" y="81" width="1" height="1" fill="#02020220"/>
  <rect x="4" y="81" width="1" height="1" fill="#3636366f"/>
  <rect x="5" y="81" width="1" height="1" fill="#ffffff7f"/>
  <rect x="6" y="81" width="1" height="1" fill="#f9f9f911"/>
  <rect x="83" y="81" width="1" height="1" fill="#ffffff0f"/>
  <rect x="84" y="81" width="1" height="1" fill="#ffffff7f"/>
  <rect x="85" y="81" width="1" height="1" fill="#3e3e3e70"/>
  <rect x="86" y="81" width="1" height="1" fill="#00000020"/>
  <rect x="87" y="81" width="1" height="1" fill="#01010117"/>
  <rect x="88" y="81" width="1" height="1" fill="#0000000f"/>
  <rect x="1" y="82" width="1" height="1" fill="#0101010d"/>
  <rect x="2" y="82" width="1" height="1" fill="#00000014"/>
  <rect x="3" y="82" width="1" height="1" fill="#0202021c"/>
  <rect x="4" y="82" width="1" height="1" fill="#3232325a"/>
  <rect x="5" y="82" width="1" height="1" fill="#c8c8c87c"/>
  <rect x="6" y="82" width="1" height="1" fill="#ffffff6f"/>
  <rect x="83" y="82" width="1" height="1" fill="#ffffff6f"/>
  <rect x="84" y="82" width="1" height="1" fill="#c0c0c07c"/>
  <rect x="85" y="82" width="1" height="1" fill="#3232325a"/>
  <rect x="86" y="82" width="1" height="1" fill="#0000001c"/>
  <rect x="87" y="82" width="1" height="1" fill="#01010114"/>
  <rect x="88" y="82" width="1" height="1" fill="#0000000d"/>
  <rect x="1" y="83" width="1" height="1" fill="#0101010b"/>
  <rect x="2" y="83" width="1" height="1" fill="#00000011"/>
  <rect x="3" y="83" width="1" height="1" fill="#02020218"/>
  <rect x="4" y="83" width="1" height="1" fill="#1f1f1f37"/>
  <rect x="5" y="83" width="1" height="1" fill="#61616175"/>
  <rect x="6" y="83" width="1" height="1" fill="#f6f6f67f"/>
  <rect x="7" y="83" width="1" height="1" fill="#ffffff71"/>
  <rect x="8" y="83" width="1" height="1" fill="#ffffff0f"/>
  <rect x="81" y="83" width="1" height="1" fill="#fdfdfd0f"/>
  <rect x="82" y="83" width="1" height="1" fill="#fafafa71"/>
  <rect x="83" y="83" width="1" height="1" fill="#f0f0f07f"/>
  <rect x="84" y="83" width="1" height="1" fill="#5c5c5c75"/>
  <rect x="85" y="83" width="1" height="1" fill="#16161637"/>
  <rect x="86" y="83" width="1" height="1" fill="#00000018"/>
  <rect x="87" y="83" width="1" height="1" fill="#00000011"/>
  <rect x="88" y="83" width="1" height="1" fill="#0000000b"/>
  <rect x="2" y="84" width="1" height="1" fill="#0000000d"/>
  <rect x="3" y="84" width="1" height="1" fill="#02020213"/>
  <rect x="4" y="84" width="1" height="1" fill="#0000001a"/>
  <rect x="5" y="84" width="1" height="1" fill="#2323234c"/>
  <rect x="6" y="84" width="1" height="1" fill="#52515275"/>
  <rect x="7" y="84" width="1" height="1" fill="#bababa7c"/>
  <rect x="8" y="84" width="1" height="1" fill="#fcfbfc7f"/>
  <rect x="9" y="84" width="1" height="1" fill="#fcfbfc80"/>
  <rect x="10" y="84" width="2" height="1" fill="#fdfdfd80"/>
  <rect x="12" y="84" width="2" height="1" fill="#fefefe80"/>
  <rect x="14" y="84" width="43" height="1" fill="#ffffff80"/>
  <rect x="57" y="84" width="1" height="1" fill="#fdfdfd80"/>
  <rect x="58" y="84" width="1" height="1" fill="#fefefe80"/>
  <rect x="59" y="84" width="1" height="1" fill="#fafafa1f"/>
  <rect x="68" y="84" width="1" height="1" fill="#f9f9f911"/>
  <rect x="69" y="84" width="1" height="1" fill="#fafafa80"/>
  <rect x="70" y="84" width="1" height="1" fill="#ffffff80"/>
  <rect x="71" y="84" width="1" height="1" fill="#fefefe80"/>
  <rect x="72" y="84" width="3" height="1" fill="#ffffff80"/>
  <rect x="75" y="84" width="1" height="1" fill="#fefefe80"/>
  <rect x="76" y="84" width="1" height="1" fill="#fdfdfd80"/>
  <rect x="77" y="84" width="4" height="1" fill="#fcfbfc80"/>
  <rect x="81" y="84" width="1" height="1" fill="#fcfbfc7f"/>
  <rect x="82" y="84" width="1" height="1" fill="#b9b9b97c"/>
  <rect x="83" y="84" width="1" height="1" fill="#58585875"/>
  <rect x="84" y="84" width="1" height="1" fill="#2222224c"/>
  <rect x="85" y="84" width="1" height="1" fill="#0505051a"/>
  <rect x="86" y="84" width="1" height="1" fill="#00000013"/>
  <rect x="87" y="84" width="1" height="1" fill="#0000000d"/>
  <rect x="2" y="85" width="1" height="1" fill="#0000000a"/>
  <rect x="3" y="85" width="1" height="1" fill="#0202020f"/>
  <rect x="4" y="85" width="1" height="1" fill="#06060614"/>
  <rect x="5" y="85" width="1" height="1" fill="#0505051a"/>
  <rect x="6" y="85" width="1" height="1" fill="#1b1b1b37"/>
  <rect x="7" y="85" width="1" height="1" fill="#2121215a"/>
  <rect x="8" y="85" width="1" height="1" fill="#3232326f"/>
  <rect x="9" y="85" width="1" height="1" fill="#32323273"/>
  <rect x="10" y="85" width="2" height="1" fill="#33333373"/>
  <rect x="12" y="85" width="2" height="1" fill="#34343473"/>
  <rect x="14" y="85" width="42" height="1" fill="#36363673"/>
  <rect x="56" y="85" width="1" height="1" fill="#39393973"/>
  <rect x="57" y="85" width="1" height="1" fill="#31313173"/>
  <rect x="58" y="85" width="1" height="1" fill="#9c9c9c79"/>
  <rect x="59" y="85" width="1" height="1" fill="#fcfbfc80"/>
  <rect x="60" y="85" width="1" height="1" fill="#ffffff1f"/>
  <rect x="67" y="85" width="1" height="1" fill="#f9f9f911"/>
  <rect x="68" y="85" width="1" height="1" fill="#fdfdfd80"/>
  <rect x="69" y="85" width="1" height="1" fill="#a1a1a17a"/>
  <rect x="70" y="85" width="1" height="1" fill="#2b2b2b73"/>
  <rect x="71" y="85" width="1" height="1" fill="#39393973"/>
  <rect x="72" y="85" width="3" height="1" fill="#3a3a3a73"/>
  <rect x="75" y="85" width="1" height="1" fill="#39393973"/>
  <rect x="76" y="85" width="1" height="1" fill="#38383873"/>
  <rect x="77" y="85" width="3" height="1" fill="#37373773"/>
  <rect x="80" y="85" width="1" height="1" fill="#2f2f2f73"/>
  <rect x="81" y="85" width="1" height="1" fill="#3636366f"/>
  <rect x="82" y="85" width="1" height="1" fill="#2c2c2c5a"/>
  <rect x="83" y="85" width="1" height="1" fill="#14141437"/>
  <rect x="84" y="85" width="1" height="1" fill="#0505051a"/>
  <rect x="85" y="85" width="1" height="1" fill="#00000014"/>
  <rect x="86" y="85" width="1" height="1" fill="#0000000f"/>
  <rect x="87" y="85" width="1" height="1" fill="#0000000a"/>
  <rect x="3" y="86" width="1" height="1" fill="#0202020b"/>
  <rect x="4" y="86" width="1" height="1" fill="#0505050f"/>
  <rect x="5" y="86" width="1" height="1" fill="#00000013"/>
  <rect x="6" y="86" width="1" height="1" fill="#07070718"/>
  <rect x="7" y="86" width="1" height="1" fill="#0000001c"/>
  <rect x="8" y="86" width="1" height="1" fill="#00000020"/>
  <rect x="9" y="86" width="1" height="1" fill="#00000023"/>
  <rect x="10" y="86" width="1" height="1" fill="#00000026"/>
  <rect x="11" y="86" width="1" height="1" fill="#00000028"/>
  <rect x="12" y="86" width="1" height="1" fill="#01010129"/>
  <rect x="13" y="86" width="1" height="1" fill="#0101012a"/>
  <rect x="14" y="86" width="19" height="1" fill="#0202022a"/>
  <rect x="33" y="86" width="1" height="1" fill="#0202022b"/>
  <rect x="34" y="86" width="1" height="1" fill="#0202022c"/>
  <rect x="35" y="86" width="1" height="1" fill="#0202022d"/>
  <rect x="36" y="86" width="1" height="1" fill="#02020230"/>
  <rect x="37" y="86" width="2" height="1" fill="#02020234"/>
  <rect x="39" y="86" width="1" height="1" fill="#02020230"/>
  <rect x="40" y="86" width="1" height="1" fill="#0202022e"/>
  <rect x="41" y="86" width="1" height="1" fill="#0202022c"/>
  <rect x="42" y="86" width="1" height="1" fill="#0202022b"/>
  <rect x="43" y="86" width="13" height="1" fill="#0202022a"/>
  <rect x="56" y="86" width="1" height="1" fill="#0303032a"/>
  <rect x="57" y="86" width="1" height="1" fill="#0101013d"/>
  <rect x="58" y="86" width="1" height="1" fill="#2525255e"/>
  <rect x="59" y="86" width="1" height="1" fill="#9d9d9d79"/>
  <rect x="60" y="86" width="1" height="1" fill="#f9f9f980"/>
  <rect x="61" y="86" width="1" height="1" fill="#f8f8f81f"/>
  <rect x="66" y="86" width="1" height="1" fill="#f2f2f211"/>
  <rect x="67" y="86" width="1" height="1" fill="#ffffff80"/>
  <rect x="68" y="86" width="1" height="1" fill="#b1b1b17a"/>
  <rect x="69" y="86" width="1" height="1" fill="#2929295e"/>
  <rect x="70" y="86" width="1" height="1" fill="#07070740"/>
  <rect x="71" y="86" width="1" height="1" fill="#0101012a"/>
  <rect x="72" y="86" width="3" height="1" fill="#0202022a"/>
  <rect x="75" y="86" width="1" height="1" fill="#0101012a"/>
  <rect x="76" y="86" width="1" height="1" fill="#0000002a"/>
  <rect x="77" y="86" width="1" height="1" fill="#00000029"/>
  <rect x="78" y="86" width="1" height="1" fill="#00000028"/>
  <rect x="79" y="86" width="1" height="1" fill="#00000026"/>
  <rect x="80" y="86" width="1" height="1" fill="#00000023"/>
  <rect x="81" y="86" width="1" height="1" fill="#00000020"/>
  <rect x="82" y="86" width="1" height="1" fill="#0000001c"/>
  <rect x="83" y="86" width="1" height="1" fill="#01010118"/>
  <rect x="84" y="86" width="1" height="1" fill="#00000013"/>
  <rect x="85" y="86" width="1" height="1" fill="#0000000f"/>
  <rect x="86" y="86" width="1" height="1" fill="#0000000b"/>
  <rect x="4" y="87" width="1" height="1" fill="#0000000a"/>
  <rect x="5" y="87" width="1" height="1" fill="#0606060d"/>
  <rect x="6" y="87" width="1" height="1" fill="#00000011"/>
  <rect x="7" y="87" width="1" height="1" fill="#05050514"/>
  <rect x="8" y="87" width="1" height="1" fill="#00000017"/>
  <rect x="9" y="87" width="1" height="1" fill="#00000019"/>
  <rect x="10" y="87" width="1" height="1" fill="#0000001b"/>
  <rect x="11" y="87" width="1" height="1" fill="#0000001c"/>
  <rect x="12" y="87" width="1" height="1" fill="#0000001d"/>
  <rect x="13" y="87" width="20" height="1" fill="#0000001e"/>
  <rect x="33" y="87" width="2" height="1" fill="#0000001f"/>
  <rect x="35" y="87" width="1" height="1" fill="#00000021"/>
  <rect x="36" y="87" width="1" height="1" fill="#00000024"/>
  <rect x="37" y="87" width="2" height="1" fill="#00000028"/>
  <rect x="39" y="87" width="1" height="1" fill="#00000024"/>
  <rect x="40" y="87" width="1" height="1" fill="#00000021"/>
  <rect x="41" y="87" width="1" height="1" fill="#00000020"/>
  <rect x="42" y="87" width="1" height="1" fill="#0000001f"/>
  <rect x="43" y="87" width="14" height="1" fill="#0000001e"/>
  <rect x="57" y="87" width="1" height="1" fill="#0707072c"/>
  <rect x="58" y="87" width="1" height="1" fill="#0a0a0a36"/>
  <rect x="59" y="87" width="1" height="1" fill="#2f2f2f5b"/>
  <rect x="60" y="87" width="1" height="1" fill="#9e9e9e79"/>
  <rect x="61" y="87" width="1" height="1" fill="#f9f9f980"/>
  <rect x="62" y="87" width="1" height="1" fill="#ffffff1f"/>
  <rect x="65" y="87" width="1" height="1" fill="#fafafa11"/>
  <rect x="66" y="87" width="1" height="1" fill="#ffffff80"/>
  <rect x="67" y="87" width="1" height="1" fill="#a5a5a57a"/>
  <rect x="68" y="87" width="1" height="1" fill="#2929295b"/>
  <rect x="69" y="87" width="1" height="1" fill="#0909093b"/>
  <rect x="70" y="87" width="1" height="1" fill="#0000002d"/>
  <rect x="71" y="87" width="6" height="1" fill="#0000001e"/>
  <rect x="77" y="87" width="1" height="1" fill="#0000001d"/>
  <rect x="78" y="87" width="1" height="1" fill="#0000001c"/>
  <rect x="79" y="87" width="1" height="1" fill="#0000001b"/>
  <rect x="80" y="87" width="1" height="1" fill="#00000019"/>
  <rect x="81" y="87" width="1" height="1" fill="#01010117"/>
  <rect x="82" y="87" width="1" height="1" fill="#03030314"/>
  <rect x="83" y="87" width="1" height="1" fill="#02020211"/>
  <rect x="84" y="87" width="1" height="1" fill="#0000000d"/>
  <rect x="85" y="87" width="1" height="1" fill="#0000000a"/>
  <rect x="6" y="88" width="1" height="1" fill="#0101010b"/>
  <rect x="7" y="88" width="1" height="1" fill="#0101010d"/>
  <rect x="8" y="88" width="1" height="1" fill="#0101010f"/>
  <rect x="9" y="88" width="1" height="1" fill="#01010111"/>
  <rect x="10" y="88" width="1" height="1" fill="#01010112"/>
  <rect x="11" y="88" width="1" height="1" fill="#01010113"/>
  <rect x="12" y="88" width="21" height="1" fill="#00000014"/>
  <rect x="33" y="88" width="2" height="1" fill="#00000015"/>
  <rect x="35" y="88" width="1" height="1" fill="#00000017"/>
  <rect x="36" y="88" width="1" height="1" fill="#00000019"/>
  <rect x="37" y="88" width="2" height="1" fill="#0000001d"/>
  <rect x="39" y="88" width="1" height="1" fill="#00000019"/>
  <rect x="40" y="88" width="1" height="1" fill="#00000017"/>
  <rect x="41" y="88" width="2" height="1" fill="#00000015"/>
  <rect x="43" y="88" width="14" height="1" fill="#00000014"/>
  <rect x="57" y="88" width="1" height="1" fill="#00000021"/>
  <rect x="58" y="88" width="1" height="1" fill="#00000027"/>
  <rect x="59" y="88" width="1" height="1" fill="#06060631"/>
  <rect x="60" y="88" width="1" height="1" fill="#26262659"/>
  <rect x="61" y="88" width="1" height="1" fill="#a3a3a379"/>
  <rect x="62" y="88" width="1" height="1" fill="#f9f9f980"/>
  <rect x="63" y="88" width="1" height="1" fill="#fafafa1f"/>
  <rect x="64" y="88" width="1" height="1" fill="#f9f9f911"/>
  <rect x="65" y="88" width="1" height="1" fill="#fefefe80"/>
  <rect x="66" y="88" width="1" height="1" fill="#a7a6a77a"/>
  <rect x="67" y="88" width="1" height="1" fill="#26262659"/>
  <rect x="68" y="88" width="1" height="1" fill="#0e0e0e36"/>
  <rect x="69" y="88" width="1" height="1" fill="#00000027"/>
  <rect x="70" y="88" width="1" height="1" fill="#00000021"/>
  <rect x="71" y="88" width="7" height="1" fill="#00000014"/>
  <rect x="78" y="88" width="1" height="1" fill="#00000013"/>
  <rect x="79" y="88" width="1" height="1" fill="#00000012"/>
  <rect x="80" y="88" width="1" height="1" fill="#00000011"/>
  <rect x="81" y="88" width="1" height="1" fill="#0000000f"/>
  <rect x="82" y="88" width="1" height="1" fill="#0101010d"/>
  <rect x="83" y="88" width="1" height="1" fill="#0101010b"/>
  <rect x="9" y="89" width="1" height="1" fill="#0101010a"/>
  <rect x="10" y="89" width="2" height="1" fill="#0101010b"/>
  <rect x="12" y="89" width="21" height="1" fill="#0000000c"/>
  <rect x="33" y="89" width="2" height="1" fill="#0000000d"/>
  <rect x="35" y="89" width="1" height="1" fill="#0000000e"/>
  <rect x="36" y="89" width="1" height="1" fill="#00000010"/>
  <rect x="37" y="89" width="1" height="1" fill="#00000013"/>
  <rect x="38" y="89" width="1" height="1" fill="#00000014"/>
  <rect x="39" y="89" width="1" height="1" fill="#00000010"/>
  <rect x="40" y="89" width="1" height="1" fill="#0000000e"/>
  <rect x="41" y="89" width="2" height="1" fill="#0000000d"/>
  <rect x="43" y="89" width="14" height="1" fill="#0000000c"/>
  <rect x="57" y="89" width="1" height="1" fill="#00000017"/>
  <rect x="58" y="89" width="1" height="1" fill="#0000001c"/>
  <rect x="59" y="89" width="1" height="1" fill="#00000022"/>
  <rect x="60" y="89" width="1" height="1" fill="#1010102c"/>
  <rect x="61" y="89" width="1" height="1" fill="#2c2c2c56"/>
  <rect x="62" y="89" width="1" height="1" fill="#a0a0a079"/>
  <rect x="63" y="89" width="1" height="1" fill="#f9f9f980"/>
  <rect x="64" y="89" width="1" height="1" fill="#fdfdfd80"/>
  <rect x="65" y="89" width="1" height="1" fill="#a3a3a37a"/>
  <rect x="66" y="89" width="1" height="1" fill="#2c2c2c56"/>
  <rect x="67" y="89" width="1" height="1" fill="#10101030"/>
  <rect x="68" y="89" width="1" height="1" fill="#00000022"/>
  <rect x="69" y="89" width="1" height="1" fill="#0000001d"/>
  <rect x="70" y="89" width="1" height="1" fill="#00000018"/>
  <rect x="71" y="89" width="7" height="1" fill="#0000000c"/>
  <rect x="78" y="89" width="2" height="1" fill="#0000000b"/>
  <rect x="80" y="89" width="1" height="1" fill="#0000000a"/>
  <rect x="36" y="90" width="1" height="1" fill="#0000000a"/>
  <rect x="37" y="90" width="2" height="1" fill="#0000000c"/>
  <rect x="39" y="90" width="1" height="1" fill="#0000000a"/>
  <rect x="57" y="90" width="1" height="1" fill="#0000000f"/>
  <rect x="58" y="90" width="1" height="1" fill="#00000014"/>
  <rect x="59" y="90" width="1" height="1" fill="#00000018"/>
  <rect x="60" y="90" width="1" height="1" fill="#0303031c"/>
  <rect x="61" y="90" width="1" height="1" fill="#0a0a0a26"/>
  <rect x="62" y="90" width="1" height="1" fill="#2c2c2c53"/>
  <rect x="63" y="90" width="1" height="1" fill="#a3a3a379"/>
  <rect x="64" y="90" width="1" height="1" fill="#a7a6a77a"/>
  <rect x="65" y="90" width="1" height="1" fill="#2d2d2d53"/>
  <rect x="66" y="90" width="1" height="1" fill="#0a0a0a2b"/>
  <rect x="67" y="90" width="1" height="1" fill="#0303031d"/>
  <rect x="68" y="90" width="1" height="1" fill="#00000018"/>
  <rect x="69" y="90" width="1" height="1" fill="#01010114"/>
  <rect x="70" y="90" width="1" height="1" fill="#01010110"/>
  <rect x="58" y="91" width="1" height="1" fill="#0000000d"/>
  <rect x="59" y="91" width="1" height="1" fill="#00000010"/>
  <rect x="60" y="91" width="1" height="1" fill="#00000014"/>
  <rect x="61" y="91" width="1" height="1" fill="#03030317"/>
  <rect x="62" y="91" width="1" height="1" fill="#1010101f"/>
  <rect x="63" y="91" width="1" height="1" fill="#26262644"/>
  <rect x="64" y="91" width="1" height="1" fill="#2626264a"/>
  <rect x="65" y="91" width="1" height="1" fill="#10101025"/>
  <rect x="66" y="91" width="1" height="1" fill="#03030317"/>
  <rect x="67" y="91" width="1" height="1" fill="#00000014"/>
  <rect x="68" y="91" width="1" height="1" fill="#00000010"/>
  <rect x="69" y="91" width="1" height="1" fill="#0101010d"/>
  <rect x="70" y="91" width="1" height="1" fill="#0101010a"/>
  <rect x="59" y="92" width="1" height="1" fill="#0000000a"/>
  <rect x="60" y="92" width="1" height="1" fill="#0000000d"/>
  <rect x="61" y="92" width="1" height="1" fill="#0000000f"/>
  <rect x="62" y="92" width="1" height="1" fill="#00000011"/>
  <rect x="63" y="92" width="2" height="1" fill="#00000012"/>
  <rect x="65" y="92" width="1" height="1" fill="#00000011"/>
  <rect x="66" y="92" width="1" height="1" fill="#0000000f"/>
  <rect x="67" y="92" width="1" height="1" fill="#0000000d"/>
  <rect x="68" y="92" width="1" height="1" fill="#0000000a"/>
  <rect x="62" y="93" width="1" height="1" fill="#0000000b"/>
  <rect x="63" y="93" width="2" height="1" fill="#0000000c"/>
  <rect x="65" y="93" width="1" height="1" fill="#0000000b"/>
  <rect x="66" y="93" width="1" height="1" fill="#0000000a"/>
</svg>