<svg xmlns="http://www.w3.org/2000/svg" width="16" height="16" viewBox="0 0 16 16" shape-rendering="crispEdges">
  <rect x="7" y="0" width="1" height="1" fill="#94949251"/>
  <rect x="8" y="0" width="1" height="1" fill="#78787696"/>
  <rect x="9" y="0" width="1" height="1" fill="#7b7c797b"/>
  <rect x="6" y="1" width="1" height="1" fill="#a5a6a3ae"/>
  <rect x="7" y="1" width="1" height="1" fill="#979895"/>
  <rect x="8" y="1" width="1" height="1" fill="#797977"/>
  <rect x="9" y="1" width="1" height="1" fill="#7475728a"/>
  <rect x="5" y="2" width="1" height="1" fill="#b9b9b981"/>
  <rect x="6" y="2" width="1" height="1" fill="#b7b7b5"/>
  <rect x="7" y="2" width="1" height="1" fill="#a5a6a3"/>
  <rect x="8" y="2" width="1" height="1" fill="#7f7f7de1"/>
  <rect x="9" y="2" width="1" height="1" fill="#7f7f7d0c"/>
  <rect x="2" y="3" width="1" height="1" fill="#97979757"/>
  <rect x="3" y="3" width="1" height="1" fill="#8f8f8f8d"/>
  <rect x="4" y="3" width="1" height="1" fill="#99999936"/>
  <rect x="5" y="3" width="1" height="1" fill="#b0b0b0f0"/>
  <rect x="6" y="3" width="1" height="1" fill="#b1b1af"/>
  <rect x="7" y="3" width="1" height="1" fill="#9c9c9adb"/>
  <rect x="8" y="3" width="1" height="1" fill="#8f908d1e"/>
  <rect x="9" y="3" width="1" height="1" fill="#8b8b893a"/>
  <rect x="10" y="3" width="1" height="1" fill="#7f807b91"/>
  <rect x="11" y="3" width="1" height="1" fill="#7a7b76b4"/>
  <rect x="12" y="3" width="1" height="1" fill="#858681a4"/>
  <rect x="13" y="3" width="1" height="1" fill="#80817c58"/>
  <rect x="1" y="4" width="1" height="1" fill="#dededeae"/>
  <rect x="2" y="4" width="1" height="1" fill="#cecece"/>
  <rect x="3" y="4" width="1" height="1" fill="#c4c4c4"/>
  <rect x="4" y="4" width="1" height="1" fill="#bbbbbb"/>
  <rect x="5" y="4" width="1" height="1" fill="#a4a4a4de"/>
  <rect x="6" y="4" width="1" height="1" fill="#8f908d75"/>
  <rect x="7" y="4" width="1" height="1" fill="#8c8c8a0c"/>
  <rect x="8" y="4" width="1" height="1" fill="#8484824e"/>
  <rect x="9" y="4" width="1" height="1" fill="#a5a6a3d5"/>
  <rect x="10" y="4" width="1" height="1" fill="#cccdc8ee"/>
  <rect x="11" y="4" width="1" height="1" fill="#c9cac5fa"/>
  <rect x="12" y="4" width="1" height="1" fill="#cbcbc9f5"/>
  <rect x="13" y="4" width="1" height="1" fill="#b3b4b1dd"/>
  <rect x="14" y="4" width="1" height="1" fill="#8283808d"/>
  <rect x="2" y="5" width="1" height="1" fill="#e0e0e012"/>
  <rect x="4" y="5" width="1" height="1" fill="#d5d5d52d"/>
  <rect x="5" y="5" width="1" height="1" fill="#afafafde"/>
  <rect x="7" y="5" width="1" height="1" fill="#7f7f7d1c"/>
  <rect x="8" y="5" width="1" height="1" fill="#858583bd"/>
  <rect x="9" y="5" width="1" height="1" fill="#d2d2d0f4"/>
  <rect x="10" y="5" width="1" height="1" fill="#e0e0dc"/>
  <rect x="11" y="5" width="1" height="1" fill="#c7c8c3"/>
  <rect x="12" y="5" width="1" height="1" fill="#bdbdbb"/>
  <rect x="13" y="5" width="1" height="1" fill="#d0d1ce"/>
  <rect x="14" y="5" width="1" height="1" fill="#bbbcb9dd"/>
  <rect x="15" y="5" width="1" height="1" fill="#8585835a"/>
  <rect x="5" y="6" width="1" height="1" fill="#d2d2d2e1"/>
  <rect x="6" y="6" width="1" height="1" fill="#8b8b8947"/>
  <rect x="7" y="6" width="1" height="1" fill="#84848291"/>
  <rect x="8" y="6" width="1" height="1" fill="#c6c6c4e8"/>
  <rect x="9" y="6" width="1" height="1" fill="#f0f0ee"/>
  <rect x="10" y="6" width="1" height="1" fill="#f3f4ef"/>
  <rect x="11" y="6" width="1" height="1" fill="#b3b4af"/>
  <rect x="12" y="6" width="1" height="1" fill="#b4b5b2"/>
  <rect x="13" y="6" width="1" height="1" fill="#cdcdcb"/>
  <rect x="14" y="6" width="1" height="1" fill="#d6d7d4f7"/>
  <rect x="15" y="6" width="1" height="1" fill="#848482ab"/>
  <rect x="3" y="7" width="1" height="1" fill="#85858327"/>
  <rect x="4" y="7" width="1" height="1" fill="#8686864a"/>
  <rect x="5" y="7" width="1" height="1" fill="#a9a9a9cd"/>
  <rect x="6" y="7" width="1" height="1" fill="#8c8c8ade"/>
  <rect x="7" y="7" width="1" height="1" fill="#d0d1cee7"/>
  <rect x="8" y="7" width="2" height="1" fill="#fcfcf9"/>
  <rect x="10" y="7" width="1" height="1" fill="#cbcbc7"/>
  <rect x="11" y="7" width="1" height="1" fill="#b4b5b0"/>
  <rect x="12" y="7" width="1" height="1" fill="#c2c3c0"/>
  <rect x="13" y="7" width="1" height="1" fill="#d7d8d5"/>
  <rect x="14" y="7" width="1" height="1" fill="#e3e3e1fe"/>
  <rect x="15" y="7" width="1" height="1" fill="#878785bf"/>
  <rect x="0" y="8" width="1" height="1" fill="#8889860c"/>
  <rect x="1" y="8" width="1" height="1" fill="#8889867f"/>
  <rect x="2" y="8" width="1" height="1" fill="#81827fbf"/>
  <rect x="3" y="8" width="1" height="1" fill="#969794d0"/>
  <rect x="4" y="8" width="1" height="1" fill="#a9a9a7da"/>
  <rect x="5" y="8" width="1" height="1" fill="#d3d3d1f2"/>
  <rect x="6" y="8" width="1" height="1" fill="#f9faf7fe"/>
  <rect x="7" y="8" width="2" height="1" fill="#fcfcf9"/>
  <rect x="9" y="8" width="1" height="1" fill="#d0d1ce"/>
  <rect x="10" y="8" width="1" height="1" fill="#c8c9c6"/>
  <rect x="11" y="8" width="1" height="1" fill="#cdcdcb"/>
  <rect x="12" y="8" width="1" height="1" fill="#d6d7d4"/>
  <rect x="13" y="8" width="1" height="1" fill="#e4e5e2"/>
  <rect x="14" y="8" width="1" height="1" fill="#e9e9e7f7"/>
  <rect x="15" y="8" width="1" height="1" fill="#7e7e7ca8"/>
  <rect x="0" y="9" width="1" height="1" fill="#85858371"/>
  <rect x="1" y="9" width="1" height="1" fill="#b4b5b2e0"/>
  <rect x="2" y="9" width="1" height="1" fill="#dcdcdafe"/>
  <rect x="3" y="9" width="1" height="1" fill="#e4e5e2"/>
  <rect x="4" y="9" width="1" height="1" fill="#f0f0ee"/>
  <rect x="5" y="9" width="1" height="1" fill="#fffffd"/>
  <rect x="6" y="9" width="1" height="1" fill="#fdfdfb"/>
  <rect x="7" y="9" width="1" height="1" fill="#ecedea"/>
  <rect x="8" y="9" width="1" height="1" fill="#efefed"/>
  <rect x="9" y="9" width="1" height="1" fill="#f3f4f1"/>
  <rect x="10" y="9" width="1" height="1" fill="#e8e8e6"/>
  <rect x="11" y="9" width="1" height="1" fill="#eeeeec"/>
  <rect x="12" y="9" width="1" height="1" fill="#f3f4f1"/>
  <rect x="13" y="9" width="1" height="1" fill="#f5f5f2"/>
  <rect x="14" y="9" width="1" height="1" fill="#c8c9c6e1"/>
  <rect x="15" y="9" width="1" height="1" fill="#80807e68"/>
  <rect x="0" y="10" width="1" height="1" fill="#80817c9d"/>
  <rect x="1" y="10" width="1" height="1" fill="#d7d8d3f3"/>
  <rect x="2" y="10" width="1" height="2" fill="#d4d5d0"/>
  <rect x="3" y="10" width="1" height="1" fill="#d3d4cf"/>
  <rect x="4" y="10" width="1" height="1" fill="#dadad8"/>
  <rect x="5" y="10" width="1" height="1" fill="#dddedb"/>
  <rect x="6" y="10" width="1" height="1" fill="#d9d9d7"/>
  <rect x="7" y="10" width="1" height="1" fill="#cdcdcb"/>
  <rect x="8" y="10" width="1" height="1" fill="#e4e5e2"/>
  <rect x="9" y="10" width="1" height="1" fill="#fffffd"/>
  <rect x="10" y="10" width="1" height="1" fill="#fffffe"/>
  <rect x="11" y="10" width="1" height="1" fill="#fffffd"/>
  <rect x="12" y="10" width="1" height="1" fill="#f9faf7"/>
  <rect x="13" y="10" width="1" height="1" fill="#e5e6e3ee"/>
  <rect x="14" y="10" width="1" height="1" fill="#868684bb"/>
  <rect x="15" y="10" width="1" height="1" fill="#80807e10"/>
  <rect x="0" y="11" width="1" height="1" fill="#81827d94"/>
  <rect x="1" y="11" width="1" height="1" fill="#cecfcaf0"/>
  <rect x="3" y="11" width="1" height="1" fill="#cdcec9"/>
  <rect x="4" y="11" width="1" height="1" fill="#cececc"/>
  <rect x="5" y="11" width="1" height="1" fill="#c8c9c6"/>
  <rect x="6" y="11" width="1" height="1" fill="#cececc"/>
  <rect x="7" y="11" width="1" height="1" fill="#dadad8"/>
  <rect x="8" y="11" width="1" height="1" fill="#e3e3e1"/>
  <rect x="9" y="11" width="1" height="2" fill="#efefed"/>
  <rect x="10" y="11" width="1" height="1" fill="#ffffff"/>
  <rect x="11" y="11" width="1" height="1" fill="#f9faf7"/>
  <rect x="12" y="11" width="1" height="1" fill="#efefedf4"/>
  <rect x="13" y="11" width="1" height="1" fill="#848482c2"/>
  <rect x="14" y="11" width="1" height="1" fill="#7f7f7d3c"/>
  <rect x="0" y="12" width="1" height="1" fill="#7f807b63"/>
  <rect x="1" y="12" width="1" height="1" fill="#bfc0bbe0"/>
  <rect x="2" y="12" width="1" height="1" fill="#e2e3de"/>
  <rect x="3" y="12" width="1" height="1" fill="#d3d4cf"/>
  <rect x="4" y="12" width="1" height="1" fill="#d5d5d3"/>
  <rect x="5" y="12" width="1" height="1" fill="#cdcdcb"/>
  <rect x="6" y="12" width="1" height="1" fill="#d2d2d0"/>
  <rect x="7" y="12" width="1" height="1" fill="#e1e1df"/>
  <rect x="8" y="12" width="1" height="1" fill="#e4e5e2"/>
  <rect x="10" y="12" width="1" height="1" fill="#f0f0ee"/>
  <rect x="11" y="12" width="1" height="1" fill="#cccccae7"/>
  <rect x="12" y="12" width="1" height="1" fill="#858585bf"/>
  <rect x="13" y="12" width="1" height="1" fill="#8282824e"/>
  <rect x="0" y="13" width="1" height="1" fill="#7f807b0e"/>
  <rect x="1" y="13" width="1" height="1" fill="#7f807bb2"/>
  <rect x="2" y="13" width="1" height="1" fill="#c1c2bde6"/>
  <rect x="3" y="13" width="1" height="1" fill="#e1e1dd"/>
  <rect x="4" y="13" width="1" height="1" fill="#e2e2e0"/>
  <rect x="5" y="13" width="1" height="1" fill="#dddedb"/>
  <rect x="6" y="13" width="1" height="1" fill="#e0e0de"/>
  <rect x="7" y="13" width="1" height="1" fill="#e7e7e5"/>
  <rect x="8" y="13" width="1" height="1" fill="#f3f4f1"/>
  <rect x="9" y="13" width="1" height="1" fill="#dadad8ed"/>
  <rect x="10" y="13" width="1" height="1" fill="#a7a7a4d5"/>
  <rect x="11" y="13" width="1" height="1" fill="#81827fa4"/>
  <rect x="12" y="13" width="1" height="1" fill="#7e7e7e23"/>
  <rect x="1" y="14" width="1" height="1" fill="#82837e20"/>
  <rect x="2" y="14" width="1" height="1" fill="#81827d98"/>
  <rect x="3" y="14" width="1" height="1" fill="#a7a7a2d4"/>
  <rect x="4" y="14" width="1" height="1" fill="#b3b4b1dc"/>
  <rect x="5" y="14" width="1" height="1" fill="#c5c5c3e7"/>
  <rect x="6" y="14" width="1" height="1" fill="#c4c4c2e5"/>
  <rect x="7" y="14" width="1" height="1" fill="#afafadda"/>
  <rect x="8" y="14" width="1" height="1" fill="#959593ca"/>
  <rect x="9" y="14" width="1" height="1" fill="#7e7e7c8a"/>
  <rect x="10" y="14" width="1" height="1" fill="#80807e37"/>
  <rect x="3" y="15" width="1" height="1" fill="#81827d35"/>
  <rect x="4" y="15" width="1" height="1" fill="#88898651"/>
  <rect x="5" y="15" width="1" height="1" fill="#84848276"/>
  <rect x="6" y="15" width="1" height="1" fill="#7f7f7d6f"/>
  <rect x="7" y="15" width="1" height="1" fill="#7d7d7b47"/>
  <rect x="8" y="15" width="1" height="1" fill="#80807e15"/>
</svg>