<svg xmlns="http://www.w3.org/2000/svg" width="16" height="16" viewBox="0 0 16 16" shape-rendering="crispEdges">
  <rect x="2" y="1" width="1" height="1" fill="#afb1b369"/>
  <rect x="3" y="1" width="3" height="1" fill="#afb1b3"/>
  <rect x="10" y="1" width="3" height="1" fill="#afb1b3"/>
  <rect x="13" y="1" width="1" height="1" fill="#afb1b369"/>
  <rect x="1" y="2" width="1" height="1" fill="#afb1b342"/>
  <rect x="2" y="2" width="1" height="1" fill="#afb1b3f9"/>
  <rect x="3" y="2" width="1" height="1" fill="#afb1b3"/>
  <rect x="4" y="2" width="2" height="2" fill="#b1b3b4"/>
  <rect x="6" y="2" width="1" height="1" fill="#b1b3b419"/>
  <rect x="9" y="2" width="1" height="1" fill="#b1b3b418"/>
  <rect x="10" y="2" width="2" height="2" fill="#b1b3b4"/>
  <rect x="12" y="2" width="1" height="1" fill="#afb1b3"/>
  <rect x="13" y="2" width="1" height="1" fill="#afb1b3f9"/>
  <rect x="14" y="2" width="1" height="1" fill="#afb1b342"/>
  <rect x="0" y="3" width="1" height="1" fill="#afb1b324"/>
  <rect x="1" y="3" width="1" height="1" fill="#afb1b3ea"/>
  <rect x="2" y="3" width="2" height="1" fill="#afb1b3"/>
  <rect x="6" y="3" width="1" height="1" fill="#b1b3b4b5"/>
  <rect x="7" y="3" width="1" height="1" fill="#b1b3b418"/>
  <rect x="8" y="3" width="1" height="1" fill="#b1b3b41b"/>
  <rect x="9" y="3" width="1" height="1" fill="#b1b3b4b5"/>
  <rect x="12" y="3" width="2" height="1" fill="#afb1b3"/>
  <rect x="14" y="3" width="1" height="1" fill="#afb1b3eb"/>
  <rect x="15" y="3" width="1" height="1" fill="#afb1b324"/>
  <rect x="0" y="4" width="1" height="1" fill="#999b9dbe"/>
  <rect x="1" y="4" width="1" height="1" fill="#b1b3b4"/>
  <rect x="2" y="4" width="1" height="1" fill="#aeb0b2"/>
  <rect x="3" y="4" width="1" height="1" fill="#adafb1"/>
  <rect x="4" y="4" width="8" height="2" fill="#b1b3b4"/>
  <rect x="12" y="4" width="1" height="1" fill="#aaacad"/>
  <rect x="13" y="4" width="1" height="1" fill="#b5b7b9"/>
  <rect x="14" y="4" width="1" height="1" fill="#aeb0b2"/>
  <rect x="15" y="4" width="1" height="1" fill="#9a9c9ebf"/>
  <rect x="0" y="5" width="1" height="1" fill="#9698991d"/>
  <rect x="1" y="5" width="1" height="1" fill="#989a9cc9"/>
  <rect x="2" y="5" width="1" height="1" fill="#a4a6a7"/>
  <rect x="3" y="5" width="1" height="1" fill="#9a9c9ec0"/>
  <rect x="12" y="5" width="1" height="1" fill="#a1a3a5bf"/>
  <rect x="13" y="5" width="1" height="1" fill="#9d9fa0"/>
  <rect x="14" y="5" width="1" height="1" fill="#999b9dca"/>
  <rect x="15" y="5" width="1" height="1" fill="#9a9c9e1d"/>
  <rect x="2" y="6" width="1" height="1" fill="#9193959b"/>
  <rect x="3" y="6" width="1" height="1" fill="#97999b40"/>
  <rect x="4" y="6" width="8" height="1" fill="#b2b4b5"/>
  <rect x="12" y="6" width="1" height="1" fill="#95979840"/>
  <rect x="13" y="6" width="1" height="1" fill="#9294969c"/>
  <rect x="4" y="7" width="1" height="1" fill="#b1b3b4"/>
  <rect x="5" y="7" width="6" height="1" fill="#b2b4b5"/>
  <rect x="11" y="7" width="1" height="1" fill="#b1b3b4"/>
  <rect x="4" y="8" width="2" height="1" fill="#b1b3b4"/>
  <rect x="6" y="8" width="4" height="4" fill="#b2b4b5"/>
  <rect x="10" y="8" width="1" height="4" fill="#b1b3b4"/>
  <rect x="11" y="8" width="1" height="4" fill="#afb1b3"/>
  <rect x="4" y="9" width="1" height="3" fill="#afb1b3"/>
  <rect x="5" y="9" width="1" height="3" fill="#b1b3b4"/>
  <rect x="4" y="12" width="1" height="1" fill="#a8aaace6"/>
  <rect x="5" y="12" width="1" height="1" fill="#aaacad"/>
  <rect x="6" y="12" width="1" height="1" fill="#adafb1"/>
  <rect x="7" y="12" width="1" height="1" fill="#afb1b3"/>
  <rect x="8" y="12" width="1" height="1" fill="#b2b4b5"/>
  <rect x="9" y="12" width="1" height="1" fill="#b1b3b4"/>
  <rect x="10" y="12" width="1" height="1" fill="#acaeb0"/>
  <rect x="11" y="12" width="1" height="1" fill="#aaacade7"/>
  <rect x="4" y="13" width="1" height="1" fill="#97999b4a"/>
  <rect x="5" y="13" width="1" height="1" fill="#97999be7"/>
  <rect x="6" y="13" width="1" height="1" fill="#97999b"/>
  <rect x="7" y="13" width="1" height="1" fill="#999b9d"/>
  <rect x="8" y="13" width="1" height="1" fill="#9c9e9f"/>
  <rect x="9" y="13" width="1" height="1" fill="#9a9c9e"/>
  <rect x="10" y="13" width="1" height="1" fill="#989a9ce4"/>
  <rect x="11" y="13" width="1" height="1" fill="#97999b4a"/>
</svg>