<svg xmlns="http://www.w3.org/2000/svg" width="36" height="7" viewBox="0 0 36 7" shape-rendering="crispEdges">
  <rect x="0" y="1" width="1" height="1" fill="#2f2f2f78"/>
  <rect x="1" y="1" width="2" height="1" fill="#2f2f2fcc"/>
  <rect x="3" y="1" width="1" height="1" fill="#313131cc"/>
  <rect x="4" y="1" width="1" height="1" fill="#323232cc"/>
  <rect x="5" y="1" width="1" height="1" fill="#313131cc"/>
  <rect x="6" y="1" width="1" height="1" fill="#2c2c2c78"/>
  <rect x="9" y="1" width="1" height="1" fill="#2b2b2b78"/>
  <rect x="10" y="1" width="1" height="1" fill="#303030cc"/>
  <rect x="11" y="1" width="4" height="1" fill="#333333cc"/>
  <rect x="15" y="1" width="1" height="1" fill="#33333378"/>
  <rect x="27" y="1" width="1" height="1" fill="#31313178"/>
  <rect x="28" y="1" width="4" height="1" fill="#323232cc"/>
  <rect x="32" y="1" width="1" height="1" fill="#333333cc"/>
  <rect x="33" y="1" width="1" height="1" fill="#30303078"/>
  <rect x="1" y="2" width="1" height="1" fill="#2a2a2a8c"/>
  <rect x="2" y="2" width="1" height="1" fill="#2a2a2ac9"/>
  <rect x="3" y="2" width="1" height="1" fill="#2c2c2cc9"/>
  <rect x="4" y="2" width="1" height="1" fill="#2d2d2dc9"/>
  <rect x="5" y="2" width="1" height="1" fill="#2c2c2c8c"/>
  <rect x="10" y="2" width="1" height="1" fill="#2b2b2b8c"/>
  <rect x="11" y="2" width="3" height="1" fill="#2f2f2fc9"/>
  <rect x="14" y="2" width="1" height="1" fill="#2f2f2f8c"/>
  <rect x="18" y="2" width="1" height="1" fill="#2f2f2f78"/>
  <rect x="19" y="2" width="1" height="1" fill="#343434cc"/>
  <rect x="20" y="2" width="4" height="1" fill="#313131cc"/>
  <rect x="24" y="2" width="1" height="1" fill="#36363678"/>
  <rect x="28" y="2" width="1" height="1" fill="#2828288c"/>
  <rect x="29" y="2" width="2" height="1" fill="#292929c9"/>
  <rect x="31" y="2" width="1" height="1" fill="#2a2a2ac9"/>
  <rect x="32" y="2" width="1" height="1" fill="#2a2a2a8c"/>
  <rect x="2" y="3" width="1" height="1" fill="#1d1d1d9b"/>
  <rect x="3" y="3" width="1" height="1" fill="#1b1b1bc5"/>
  <rect x="4" y="3" width="1" height="1" fill="#1a1a1a9b"/>
  <rect x="11" y="3" width="1" height="1" fill="#1818189b"/>
  <rect x="12" y="3" width="1" height="1" fill="#181818c5"/>
  <rect x="13" y="3" width="1" height="1" fill="#1818189b"/>
  <rect x="19" y="3" width="1" height="1" fill="#2a2a2a8c"/>
  <rect x="20" y="3" width="3" height="1" fill="#2b2b2bc9"/>
  <rect x="23" y="3" width="1" height="1" fill="#2b2b2b8c"/>
  <rect x="29" y="3" width="1" height="1" fill="#1c1c1c9b"/>
  <rect x="30" y="3" width="1" height="1" fill="#1c1c1cc5"/>
  <rect x="31" y="3" width="1" height="1" fill="#1c1c1c9b"/>
  <rect x="2" y="4" width="1" height="1" fill="#0e0e0e10"/>
  <rect x="3" y="4" width="1" height="1" fill="#0303038b"/>
  <rect x="4" y="4" width="1" height="1" fill="#11111110"/>
  <rect x="11" y="4" width="1" height="1" fill="#1c1c1c10"/>
  <rect x="12" y="4" width="1" height="1" fill="#0808088b"/>
  <rect x="13" y="4" width="1" height="1" fill="#14141410"/>
  <rect x="20" y="4" width="1" height="1" fill="#1818189b"/>
  <rect x="21" y="4" width="1" height="1" fill="#1f1f1fc5"/>
  <rect x="22" y="4" width="1" height="1" fill="#1e1e1e9b"/>
  <rect x="29" y="4" width="1" height="1" fill="#0c0c0c10"/>
  <rect x="30" y="4" width="1" height="1" fill="#0505058b"/>
  <rect x="31" y="4" width="1" height="1" fill="#0d0d0d10"/>
  <rect x="20" y="5" width="1" height="1" fill="#0c0c0c10"/>
  <rect x="21" y="5" width="1" height="1" fill="#0606068b"/>
  <rect x="22" y="5" width="1" height="1" fill="#0f0f0f10"/>
</svg>