<svg xmlns="http://www.w3.org/2000/svg" width="14" height="14" viewBox="0 0 14 14" shape-rendering="crispEdges">
  <rect x="3" y="0" width="1" height="1" fill="#4aa53414"/>
  <rect x="4" y="0" width="1" height="1" fill="#46a23886"/>
  <rect x="5" y="0" width="1" height="1" fill="#44a338d2"/>
  <rect x="6" y="0" width="1" height="1" fill="#42a62ef8"/>
  <rect x="7" y="0" width="1" height="1" fill="#3fa82af8"/>
  <rect x="8" y="0" width="1" height="1" fill="#38a925d0"/>
  <rect x="9" y="0" width="1" height="1" fill="#3eae2d82"/>
  <rect x="10" y="0" width="1" height="1" fill="#369e2614"/>
  <rect x="2" y="1" width="1" height="1" fill="#519f3a53"/>
  <rect x="3" y="1" width="1" height="1" fill="#46a430f0"/>
  <rect x="4" y="1" width="1" height="1" fill="#42a434"/>
  <rect x="5" y="1" width="1" height="1" fill="#41a534"/>
  <rect x="6" y="1" width="1" height="1" fill="#3fa82c"/>
  <rect x="7" y="1" width="1" height="1" fill="#3fa828"/>
  <rect x="8" y="1" width="1" height="1" fill="#3ba629"/>
  <rect x="9" y="1" width="1" height="1" fill="#3aa52a"/>
  <rect x="10" y="1" width="1" height="1" fill="#3ba22bf1"/>
  <rect x="11" y="1" width="1" height="1" fill="#469a3953"/>
  <rect x="1" y="2" width="1" height="1" fill="#45a83253"/>
  <rect x="2" y="2" width="1" height="1" fill="#44a32afe"/>
  <rect x="3" y="2" width="1" height="1" fill="#42a327"/>
  <rect x="4" y="2" width="1" height="1" fill="#3ca72c"/>
  <rect x="5" y="2" width="1" height="1" fill="#3aaa2c"/>
  <rect x="6" y="2" width="1" height="1" fill="#3caa26"/>
  <rect x="7" y="2" width="1" height="1" fill="#3ea928"/>
  <rect x="8" y="2" width="1" height="1" fill="#41a42e"/>
  <rect x="9" y="2" width="1" height="1" fill="#42a434"/>
  <rect x="10" y="2" width="1" height="1" fill="#42a733"/>
  <rect x="11" y="2" width="1" height="1" fill="#44a635fe"/>
  <rect x="12" y="2" width="1" height="1" fill="#43a03553"/>
  <rect x="0" y="3" width="1" height="1" fill="#36b22215"/>
  <rect x="1" y="3" width="1" height="1" fill="#37ae21f1"/>
  <rect x="2" y="3" width="1" height="1" fill="#3ba51f"/>
  <rect x="3" y="3" width="1" height="1" fill="#3ba421"/>
  <rect x="4" y="3" width="1" height="1" fill="#36aa23"/>
  <rect x="5" y="3" width="1" height="1" fill="#37ad26"/>
  <rect x="6" y="3" width="1" height="2" fill="#3aac24"/>
  <rect x="7" y="3" width="1" height="1" fill="#41a72c"/>
  <rect x="8" y="3" width="1" height="1" fill="#70c262"/>
  <rect x="9" y="3" width="1" height="1" fill="#caffbe"/>
  <rect x="10" y="3" width="1" height="1" fill="#9cfe8d"/>
  <rect x="11" y="3" width="1" height="1" fill="#3ba62b"/>
  <rect x="12" y="3" width="1" height="1" fill="#3ca92cf1"/>
  <rect x="13" y="3" width="1" height="1" fill="#39a92816"/>
  <rect x="0" y="4" width="1" height="1" fill="#32a52182"/>
  <rect x="1" y="4" width="1" height="1" fill="#39aa24"/>
  <rect x="2" y="4" width="1" height="1" fill="#37a31d"/>
  <rect x="3" y="4" width="1" height="1" fill="#41b026"/>
  <rect x="4" y="4" width="1" height="1" fill="#2ea91c"/>
  <rect x="5" y="4" width="1" height="1" fill="#35b023"/>
  <rect x="7" y="4" width="1" height="1" fill="#45a031"/>
  <rect x="8" y="4" width="1" height="1" fill="#bdf2b3"/>
  <rect x="9" y="4" width="1" height="1" fill="#e0ffd8"/>
  <rect x="10" y="4" width="1" height="1" fill="#61c053"/>
  <rect x="11" y="4" width="1" height="1" fill="#3eac2e"/>
  <rect x="12" y="4" width="1" height="2" fill="#3da52d"/>
  <rect x="13" y="4" width="1" height="1" fill="#40a23186"/>
  <rect x="0" y="5" width="1" height="1" fill="#3aab28d0"/>
  <rect x="1" y="5" width="1" height="1" fill="#3aa825"/>
  <rect x="2" y="5" width="1" height="1" fill="#3ba421"/>
  <rect x="3" y="5" width="1" height="1" fill="#3ca524"/>
  <rect x="4" y="5" width="1" height="1" fill="#3ea82e"/>
  <rect x="5" y="5" width="1" height="1" fill="#3da42f"/>
  <rect x="6" y="5" width="1" height="1" fill="#44a430"/>
  <rect x="7" y="5" width="1" height="1" fill="#69b657"/>
  <rect x="8" y="5" width="1" height="1" fill="#ddffd5"/>
  <rect x="9" y="5" width="1" height="1" fill="#bff4b7"/>
  <rect x="10" y="5" width="1" height="1" fill="#42a133"/>
  <rect x="11" y="5" width="1" height="1" fill="#2f9f1e"/>
  <rect x="13" y="5" width="1" height="1" fill="#40a231d2"/>
  <rect x="0" y="6" width="1" height="1" fill="#30a91cf8"/>
  <rect x="1" y="6" width="1" height="1" fill="#33a71e"/>
  <rect x="2" y="6" width="1" height="1" fill="#41a528"/>
  <rect x="3" y="6" width="1" height="1" fill="#b1ff9d"/>
  <rect x="4" y="6" width="1" height="1" fill="#dcffd3"/>
  <rect x="5" y="6" width="1" height="1" fill="#68a062"/>
  <rect x="6" y="6" width="1" height="1" fill="#58994a"/>
  <rect x="7" y="6" width="1" height="1" fill="#b2f3a2"/>
  <rect x="8" y="6" width="1" height="1" fill="#dfffd5"/>
  <rect x="9" y="6" width="1" height="1" fill="#70b366"/>
  <rect x="10" y="6" width="1" height="1" fill="#3fa730"/>
  <rect x="11" y="6" width="1" height="1" fill="#33a821"/>
  <rect x="12" y="6" width="1" height="1" fill="#38a827"/>
  <rect x="13" y="6" width="1" height="1" fill="#3aa729f9"/>
  <rect x="0" y="7" width="1" height="1" fill="#2ca817f8"/>
  <rect x="1" y="7" width="1" height="1" fill="#36aa21"/>
  <rect x="2" y="7" width="1" height="1" fill="#3ea127"/>
  <rect x="3" y="7" width="1" height="1" fill="#82cc6f"/>
  <rect x="4" y="7" width="1" height="1" fill="#e5ffde"/>
  <rect x="5" y="7" width="1" height="1" fill="#a9c8a4"/>
  <rect x="6" y="7" width="1" height="1" fill="#83ab79"/>
  <rect x="7" y="7" width="1" height="1" fill="#dcffcd"/>
  <rect x="8" y="7" width="1" height="1" fill="#b5f9a6"/>
  <rect x="9" y="7" width="1" height="1" fill="#469b35"/>
  <rect x="10" y="7" width="1" height="1" fill="#3ca828"/>
  <rect x="11" y="7" width="1" height="1" fill="#36aa21"/>
  <rect x="12" y="7" width="1" height="1" fill="#36aa23"/>
  <rect x="13" y="7" width="1" height="1" fill="#36a925f3"/>
  <rect x="0" y="8" width="1" height="1" fill="#33a91dd0"/>
  <rect x="1" y="8" width="1" height="1" fill="#3aac24"/>
  <rect x="2" y="8" width="1" height="1" fill="#3da627"/>
  <rect x="3" y="8" width="1" height="1" fill="#4fa23d"/>
  <rect x="4" y="8" width="1" height="1" fill="#dbffd0"/>
  <rect x="5" y="8" width="1" height="1" fill="#dbf5d3"/>
  <rect x="6" y="8" width="1" height="1" fill="#cbe2c3"/>
  <rect x="7" y="8" width="1" height="1" fill="#e9ffdb"/>
  <rect x="8" y="8" width="1" height="1" fill="#64b44c"/>
  <rect x="9" y="8" width="1" height="1" fill="#3ea623"/>
  <rect x="10" y="8" width="1" height="1" fill="#3ba821"/>
  <rect x="11" y="8" width="1" height="1" fill="#3aa821"/>
  <rect x="12" y="8" width="1" height="1" fill="#38a921"/>
  <rect x="13" y="8" width="1" height="1" fill="#38a923d1"/>
  <rect x="0" y="9" width="1" height="1" fill="#35ac1d82"/>
  <rect x="1" y="9" width="1" height="1" fill="#3aae23"/>
  <rect x="2" y="9" width="1" height="1" fill="#3caa26"/>
  <rect x="3" y="9" width="1" height="1" fill="#46a132"/>
  <rect x="4" y="9" width="1" height="1" fill="#aae39b"/>
  <rect x="5" y="9" width="1" height="1" fill="#e9ffde"/>
  <rect x="6" y="9" width="1" height="1" fill="#ecffe2"/>
  <rect x="7" y="9" width="1" height="1" fill="#c2f3b3"/>
  <rect x="8" y="9" width="1" height="1" fill="#46a02b"/>
  <rect x="9" y="9" width="1" height="1" fill="#3ba91b"/>
  <rect x="10" y="9" width="1" height="1" fill="#3ba81d"/>
  <rect x="11" y="9" width="1" height="1" fill="#3ba81f"/>
  <rect x="12" y="9" width="1" height="1" fill="#3aa823"/>
  <rect x="13" y="9" width="1" height="1" fill="#3aa82386"/>
  <rect x="0" y="10" width="1" height="1" fill="#38b71f16"/>
  <rect x="1" y="10" width="1" height="1" fill="#38b41ff1"/>
  <rect x="2" y="10" width="1" height="1" fill="#38af21"/>
  <rect x="3" y="10" width="1" height="1" fill="#40a62a"/>
  <rect x="4" y="10" width="1" height="1" fill="#6db75c"/>
  <rect x="5" y="10" width="1" height="1" fill="#d6ffc7"/>
  <rect x="6" y="10" width="1" height="1" fill="#d8ffc7"/>
  <rect x="7" y="10" width="1" height="1" fill="#76c662"/>
  <rect x="8" y="10" width="1" height="1" fill="#42a425"/>
  <rect x="9" y="10" width="1" height="1" fill="#3ba81d"/>
  <rect x="10" y="10" width="1" height="1" fill="#3aa91d"/>
  <rect x="11" y="10" width="1" height="1" fill="#38a921"/>
  <rect x="12" y="10" width="1" height="1" fill="#3aa825f1"/>
  <rect x="13" y="10" width="1" height="1" fill="#3ba62916"/>
  <rect x="1" y="11" width="1" height="1" fill="#47ac3353"/>
  <rect x="2" y="11" width="1" height="1" fill="#3aa825fe"/>
  <rect x="3" y="11" width="1" height="1" fill="#3ca526"/>
  <rect x="4" y="11" width="1" height="1" fill="#409b2d"/>
  <rect x="5" y="11" width="1" height="1" fill="#459a32"/>
  <rect x="6" y="11" width="1" height="1" fill="#47a234"/>
  <rect x="7" y="11" width="1" height="1" fill="#44a72f"/>
  <rect x="8" y="11" width="1" height="1" fill="#3ea824"/>
  <rect x="9" y="11" width="1" height="1" fill="#3ba81f"/>
  <rect x="10" y="11" width="1" height="1" fill="#38a921"/>
  <rect x="11" y="11" width="1" height="1" fill="#3ba627fe"/>
  <rect x="12" y="11" width="1" height="1" fill="#43a03553"/>
  <rect x="2" y="12" width="1" height="1" fill="#4ca03b54"/>
  <rect x="3" y="12" width="1" height="1" fill="#3ea62af2"/>
  <rect x="4" y="12" width="3" height="1" fill="#3ea62a"/>
  <rect x="7" y="12" width="1" height="1" fill="#3ea728"/>
  <rect x="8" y="12" width="2" height="1" fill="#3ba924"/>
  <rect x="10" y="12" width="1" height="1" fill="#3ba926f2"/>
  <rect x="11" y="12" width="1" height="1" fill="#44a13753"/>
  <rect x="3" y="13" width="1" height="1" fill="#3da32a14"/>
  <rect x="4" y="13" width="1" height="1" fill="#3ba92686"/>
  <rect x="5" y="13" width="1" height="1" fill="#39aa24d3"/>
  <rect x="6" y="13" width="1" height="1" fill="#3ba926fa"/>
  <rect x="7" y="13" width="1" height="1" fill="#3ca826f4"/>
  <rect x="8" y="13" width="1" height="1" fill="#3ba924ce"/>
  <rect x="9" y="13" width="1" height="1" fill="#3ba92483"/>
  <rect x="10" y="13" width="1" height="1" fill="#3ca72a14"/>
</svg>