<svg xmlns="http://www.w3.org/2000/svg" width="60" height="15" viewBox="0 0 60 15" shape-rendering="crispEdges">
  <rect x="15" y="0" width="1" height="1" fill="#a5cad25a"/>
  <rect x="16" y="0" width="1" height="1" fill="#a6cdd9c3"/>
  <rect x="17" y="0" width="1" height="1" fill="#9ec3cf"/>
  <rect x="18" y="0" width="1" height="1" fill="#adcdd7"/>
  <rect x="19" y="0" width="1" height="1" fill="#a8c2ca"/>
  <rect x="20" y="0" width="1" height="1" fill="#b5c9cc"/>
  <rect x="21" y="0" width="1" height="1" fill="#b8c9c8"/>
  <rect x="22" y="0" width="1" height="1" fill="#bcc7c6"/>
  <rect x="23" y="0" width="1" height="1" fill="#bcc5c6"/>
  <rect x="24" y="0" width="1" height="1" fill="#b8c3c8"/>
  <rect x="25" y="0" width="1" height="1" fill="#b9c5cf"/>
  <rect x="26" y="0" width="1" height="1" fill="#b6c6d1"/>
  <rect x="27" y="0" width="1" height="1" fill="#afc4cf"/>
  <rect x="28" y="0" width="1" height="1" fill="#9fbbc3c3"/>
  <rect x="29" y="0" width="1" height="1" fill="#a6c7ce5a"/>
  <rect x="30" y="0" width="1" height="1" fill="#a8cbd15a"/>
  <rect x="31" y="0" width="1" height="1" fill="#9ac6d0c3"/>
  <rect x="32" y="0" width="1" height="1" fill="#94cee1"/>
  <rect x="33" y="0" width="1" height="1" fill="#8ecde3"/>
  <rect x="34" y="0" width="1" height="1" fill="#92cce1"/>
  <rect x="35" y="0" width="1" height="1" fill="#99ccdf"/>
  <rect x="36" y="0" width="1" height="1" fill="#9dcbd9"/>
  <rect x="37" y="0" width="1" height="1" fill="#a1cad3"/>
  <rect x="38" y="0" width="1" height="1" fill="#a4cacf"/>
  <rect x="39" y="0" width="1" height="1" fill="#a2cad1"/>
  <rect x="40" y="0" width="1" height="1" fill="#9fccd8"/>
  <rect x="41" y="0" width="1" height="1" fill="#a0ced9"/>
  <rect x="42" y="0" width="1" height="1" fill="#a4c9d3"/>
  <rect x="43" y="0" width="1" height="1" fill="#a5c9dac3"/>
  <rect x="44" y="0" width="1" height="1" fill="#9dcae85a"/>
  <rect x="15" y="1" width="1" height="1" fill="#a5cad2c3"/>
  <rect x="16" y="1" width="1" height="1" fill="#deffffd8"/>
  <rect x="17" y="1" width="1" height="1" fill="#e7ffffcc"/>
  <rect x="18" y="1" width="1" height="1" fill="#ecffffcc"/>
  <rect x="19" y="1" width="1" height="1" fill="#f1ffffcc"/>
  <rect x="20" y="1" width="1" height="1" fill="#f3ffffcc"/>
  <rect x="21" y="1" width="1" height="1" fill="#f6ffffcc"/>
  <rect x="22" y="1" width="1" height="1" fill="#f7ffffcc"/>
  <rect x="23" y="1" width="1" height="1" fill="#f9ffffcc"/>
  <rect x="24" y="1" width="1" height="1" fill="#f8ffffcc"/>
  <rect x="25" y="1" width="1" height="1" fill="#f4ffffcc"/>
  <rect x="26" y="1" width="2" height="1" fill="#f1ffffcc"/>
  <rect x="28" y="1" width="1" height="1" fill="#dcf8ffd8"/>
  <rect x="29" y="1" width="1" height="1" fill="#afd0d7c3"/>
  <rect x="30" y="1" width="1" height="1" fill="#9ec2c8c3"/>
  <rect x="31" y="1" width="1" height="1" fill="#acd6df3c"/>
  <rect x="43" y="1" width="1" height="1" fill="#a8cad93c"/>
  <rect x="44" y="1" width="1" height="1" fill="#9fcae6c3"/>
  <rect x="15" y="2" width="1" height="1" fill="#a5cad4"/>
  <rect x="16" y="2" width="1" height="1" fill="#f1ffffc2"/>
  <rect x="17" y="2" width="1" height="1" fill="#f2ffffd4"/>
  <rect x="18" y="2" width="1" height="1" fill="#f3ffffe1"/>
  <rect x="19" y="2" width="1" height="1" fill="#f0fcffe1"/>
  <rect x="20" y="2" width="1" height="1" fill="#f2faffd4"/>
  <rect x="21" y="2" width="2" height="1" fill="#f6faffc2"/>
  <rect x="23" y="2" width="1" height="1" fill="#f6fbffc2"/>
  <rect x="24" y="2" width="1" height="1" fill="#f6feffd4"/>
  <rect x="25" y="2" width="1" height="1" fill="#f8ffffe1"/>
  <rect x="26" y="2" width="1" height="1" fill="#f5ffffe1"/>
  <rect x="27" y="2" width="1" height="1" fill="#eeffffd4"/>
  <rect x="28" y="2" width="1" height="1" fill="#eaffffc2"/>
  <rect x="29" y="2" width="1" height="3" fill="#a9cad1"/>
  <rect x="30" y="2" width="1" height="1" fill="#a4c8cc"/>
  <rect x="31" y="2" width="1" height="1" fill="#deffff0a"/>
  <rect x="32" y="2" width="1" height="1" fill="#eaffff52"/>
  <rect x="33" y="2" width="1" height="1" fill="#eaffff85"/>
  <rect x="34" y="2" width="1" height="1" fill="#ecffff85"/>
  <rect x="35" y="2" width="1" height="1" fill="#f0ffff52"/>
  <rect x="36" y="2" width="1" height="1" fill="#f2ffff0a"/>
  <rect x="37" y="2" width="1" height="1" fill="#f5ffff0a"/>
  <rect x="38" y="2" width="1" height="1" fill="#f7ffff0a"/>
  <rect x="39" y="2" width="1" height="1" fill="#f2ffff52"/>
  <rect x="40" y="2" width="1" height="1" fill="#ebffff85"/>
  <rect x="41" y="2" width="1" height="1" fill="#e4ffff85"/>
  <rect x="42" y="2" width="1" height="1" fill="#f2ffff52"/>
  <rect x="43" y="2" width="1" height="1" fill="#edffff0a"/>
  <rect x="44" y="2" width="1" height="1" fill="#a0cae2"/>
  <rect x="3" y="3" width="1" height="1" fill="#6d8c9f"/>
  <rect x="4" y="3" width="1" height="1" fill="#6a8ba0"/>
  <rect x="10" y="3" width="1" height="1" fill="#728fa2"/>
  <rect x="11" y="3" width="1" height="1" fill="#718e9f"/>
  <rect x="15" y="3" width="1" height="1" fill="#a3cbd4"/>
  <rect x="16" y="3" width="1" height="1" fill="#e6feffb3"/>
  <rect x="17" y="3" width="1" height="1" fill="#effeffd9"/>
  <rect x="18" y="3" width="1" height="1" fill="#7a8690"/>
  <rect x="19" y="3" width="1" height="1" fill="#7c8990"/>
  <rect x="20" y="3" width="1" height="1" fill="#f5ffffd9"/>
  <rect x="21" y="3" width="1" height="1" fill="#f5ffffca"/>
  <rect x="22" y="3" width="1" height="1" fill="#f5ffffb3"/>
  <rect x="23" y="3" width="1" height="1" fill="#f5ffffca"/>
  <rect x="24" y="3" width="1" height="1" fill="#f0faffd9"/>
  <rect x="25" y="3" width="1" height="1" fill="#7f8a96"/>
  <rect x="26" y="3" width="1" height="1" fill="#7b8c98"/>
  <rect x="27" y="3" width="1" height="1" fill="#e8fdffd9"/>
  <rect x="28" y="3" width="1" height="1" fill="#edffffb3"/>
  <rect x="30" y="3" width="1" height="1" fill="#a5c9cd"/>
  <rect x="31" y="3" width="1" height="1" fill="#e2ffff19"/>
  <rect x="32" y="3" width="1" height="1" fill="#efffff8c"/>
  <rect x="33" y="3" width="1" height="1" fill="#77898c"/>
  <rect x="34" y="3" width="1" height="1" fill="#78888a"/>
  <rect x="35" y="3" width="1" height="1" fill="#f4ffff8c"/>
  <rect x="36" y="3" width="1" height="1" fill="#f5ffff5c"/>
  <rect x="37" y="3" width="1" height="1" fill="#f5ffff19"/>
  <rect x="38" y="3" width="1" height="1" fill="#f7ffff5c"/>
  <rect x="39" y="3" width="1" height="1" fill="#f4ffff8c"/>
  <rect x="40" y="3" width="1" height="1" fill="#769098"/>
  <rect x="41" y="3" width="1" height="1" fill="#748e97"/>
  <rect x="42" y="3" width="1" height="1" fill="#f3ffff8c"/>
  <rect x="43" y="3" width="1" height="1" fill="#edffff19"/>
  <rect x="44" y="3" width="1" height="1" fill="#a2c7df"/>
  <rect x="48" y="3" width="1" height="1" fill="#6e8ba1"/>
  <rect x="49" y="3" width="1" height="1" fill="#73899d"/>
  <rect x="55" y="3" width="1" height="2" fill="#6a8d9f"/>
  <rect x="56" y="3" width="1" height="2" fill="#6a8da3"/>
  <rect x="3" y="4" width="1" height="1" fill="#6b8ca1"/>
  <rect x="4" y="4" width="1" height="1" fill="#6a8ca5"/>
  <rect x="5" y="4" width="1" height="1" fill="#6b8ca3"/>
  <rect x="9" y="4" width="1" height="1" fill="#728a9b"/>
  <rect x="10" y="4" width="1" height="1" fill="#6a8ba0"/>
  <rect x="11" y="4" width="1" height="1" fill="#7491a3"/>
  <rect x="15" y="4" width="1" height="2" fill="#a2ccd4"/>
  <rect x="16" y="4" width="1" height="1" fill="#e6ffffa3"/>
  <rect x="17" y="4" width="1" height="1" fill="#f3ffffd1"/>
  <rect x="18" y="4" width="1" height="1" fill="#768c8e"/>
  <rect x="19" y="4" width="1" height="1" fill="#799295"/>
  <rect x="20" y="4" width="1" height="1" fill="#6f878c"/>
  <rect x="21" y="4" width="1" height="1" fill="#edffffd1"/>
  <rect x="22" y="4" width="1" height="1" fill="#eaffffbe"/>
  <rect x="23" y="4" width="1" height="1" fill="#f1ffffd1"/>
  <rect x="24" y="4" width="1" height="1" fill="#80919b"/>
  <rect x="25" y="4" width="1" height="1" fill="#7f8d9b"/>
  <rect x="26" y="4" width="1" height="1" fill="#768693"/>
  <rect x="27" y="4" width="1" height="1" fill="#faffffd1"/>
  <rect x="28" y="4" width="1" height="1" fill="#e9ffffa3"/>
  <rect x="30" y="4" width="1" height="2" fill="#a8cbd1"/>
  <rect x="31" y="4" width="1" height="1" fill="#ebffff29"/>
  <rect x="32" y="4" width="1" height="1" fill="#f1ffff94"/>
  <rect x="33" y="4" width="1" height="1" fill="#788991"/>
  <rect x="34" y="4" width="1" height="1" fill="#7a8d94"/>
  <rect x="35" y="4" width="1" height="1" fill="#788b92"/>
  <rect x="36" y="4" width="1" height="1" fill="#ecffff94"/>
  <rect x="37" y="4" width="1" height="1" fill="#f4ffff68"/>
  <rect x="38" y="4" width="1" height="1" fill="#efffff94"/>
  <rect x="39" y="4" width="1" height="1" fill="#728994"/>
  <rect x="40" y="4" width="1" height="1" fill="#768b94"/>
  <rect x="41" y="4" width="1" height="1" fill="#76878f"/>
  <rect x="42" y="4" width="1" height="1" fill="#faffff94"/>
  <rect x="43" y="4" width="1" height="1" fill="#f2ffff29"/>
  <rect x="44" y="4" width="1" height="1" fill="#a4c7db"/>
  <rect x="48" y="4" width="1" height="1" fill="#73899b"/>
  <rect x="49" y="4" width="1" height="1" fill="#76889b"/>
  <rect x="50" y="4" width="1" height="1" fill="#75899b"/>
  <rect x="54" y="4" width="1" height="1" fill="#6b8d9d"/>
  <rect x="4" y="5" width="2" height="1" fill="#6b8ca3"/>
  <rect x="6" y="5" width="1" height="1" fill="#6e8b9f"/>
  <rect x="8" y="5" width="2" height="1" fill="#728fa2"/>
  <rect x="10" y="5" width="1" height="1" fill="#7392a5"/>
  <rect x="16" y="5" width="1" height="1" fill="#e7ffff90"/>
  <rect x="17" y="5" width="1" height="1" fill="#f4ffffb1"/>
  <rect x="18" y="5" width="1" height="1" fill="#f7ffffc8"/>
  <rect x="19" y="5" width="1" height="1" fill="#728b8e"/>
  <rect x="20" y="5" width="1" height="1" fill="#6f8b92"/>
  <rect x="21" y="5" width="1" height="1" fill="#66858d"/>
  <rect x="22" y="5" width="1" height="1" fill="#edffffc8"/>
  <rect x="23" y="5" width="1" height="1" fill="#7c97a3"/>
  <rect x="24" y="5" width="1" height="1" fill="#7c8e9d"/>
  <rect x="25" y="5" width="1" height="1" fill="#74818f"/>
  <rect x="26" y="5" width="1" height="1" fill="#f1ffffc8"/>
  <rect x="27" y="5" width="1" height="1" fill="#efffffb1"/>
  <rect x="28" y="5" width="1" height="1" fill="#e7ffff90"/>
  <rect x="29" y="5" width="1" height="1" fill="#a7c8cf"/>
  <rect x="31" y="5" width="1" height="1" fill="#e9ffff3c"/>
  <rect x="32" y="5" width="1" height="1" fill="#eeffff76"/>
  <rect x="33" y="5" width="1" height="1" fill="#f2ffff9e"/>
  <rect x="34" y="5" width="1" height="1" fill="#84949e"/>
  <rect x="35" y="5" width="1" height="1" fill="#788d9a"/>
  <rect x="36" y="5" width="1" height="1" fill="#8097a6"/>
  <rect x="37" y="5" width="1" height="1" fill="#eaffff9e"/>
  <rect x="38" y="5" width="1" height="1" fill="#728fa2"/>
  <rect x="39" y="5" width="1" height="1" fill="#758e9e"/>
  <rect x="40" y="5" width="1" height="1" fill="#778593"/>
  <rect x="41" y="5" width="1" height="1" fill="#fdffff9e"/>
  <rect x="42" y="5" width="1" height="1" fill="#f3f9fe76"/>
  <rect x="43" y="5" width="1" height="1" fill="#f4ffff3c"/>
  <rect x="44" y="5" width="1" height="1" fill="#a8c8d8"/>
  <rect x="49" y="5" width="1" height="1" fill="#788897"/>
  <rect x="50" y="5" width="1" height="2" fill="#728a9d"/>
  <rect x="51" y="5" width="1" height="1" fill="#6d8ba1"/>
  <rect x="53" y="5" width="1" height="1" fill="#688da3"/>
  <rect x="54" y="5" width="1" height="2" fill="#6a8d9f"/>
  <rect x="55" y="5" width="1" height="1" fill="#6b8d9d"/>
  <rect x="5" y="6" width="1" height="1" fill="#6e8b9f"/>
  <rect x="6" y="6" width="1" height="1" fill="#6d8ba1"/>
  <rect x="7" y="6" width="1" height="1" fill="#6b8ca3"/>
  <rect x="8" y="6" width="1" height="1" fill="#678ca6"/>
  <rect x="9" y="6" width="1" height="1" fill="#6c8da4"/>
  <rect x="15" y="6" width="1" height="1" fill="#a5cbd0"/>
  <rect x="16" y="6" width="1" height="1" fill="#f6ffff7b"/>
  <rect x="17" y="6" width="1" height="1" fill="#f6fdfa7b"/>
  <rect x="18" y="6" width="1" height="1" fill="#f7ffffa2"/>
  <rect x="19" y="6" width="1" height="1" fill="#effeffbd"/>
  <rect x="20" y="6" width="1" height="1" fill="#7b8e9a"/>
  <rect x="21" y="6" width="1" height="1" fill="#778d9c"/>
  <rect x="22" y="6" width="1" height="1" fill="#728b99"/>
  <rect x="23" y="6" width="1" height="1" fill="#8097a6"/>
  <rect x="24" y="6" width="1" height="1" fill="#6c7e8e"/>
  <rect x="25" y="6" width="1" height="1" fill="#f0ffffbd"/>
  <rect x="26" y="6" width="1" height="1" fill="#f5ffffa2"/>
  <rect x="27" y="6" width="1" height="1" fill="#f1ffff7b"/>
  <rect x="28" y="6" width="1" height="1" fill="#e9ffff7b"/>
  <rect x="29" y="6" width="1" height="1" fill="#a9cad1"/>
  <rect x="30" y="6" width="1" height="1" fill="#a8ced4"/>
  <rect x="31" y="6" width="1" height="1" fill="#edffff51"/>
  <rect x="32" y="6" width="1" height="1" fill="#f7ffff51"/>
  <rect x="33" y="6" width="1" height="1" fill="#f2f9ff84"/>
  <rect x="34" y="6" width="1" height="1" fill="#f3ffffa8"/>
  <rect x="35" y="6" width="1" height="1" fill="#788897"/>
  <rect x="36" y="6" width="1" height="1" fill="#798da0"/>
  <rect x="37" y="6" width="1" height="1" fill="#738ba0"/>
  <rect x="38" y="6" width="1" height="1" fill="#6b879f"/>
  <rect x="39" y="6" width="1" height="1" fill="#778ca2"/>
  <rect x="40" y="6" width="1" height="1" fill="#eef7ffa8"/>
  <rect x="41" y="6" width="1" height="1" fill="#fbfcff84"/>
  <rect x="42" y="6" width="1" height="1" fill="#fbfdff51"/>
  <rect x="43" y="6" width="1" height="1" fill="#f4feff51"/>
  <rect x="44" y="6" width="1" height="1" fill="#abc8d9"/>
  <rect x="51" y="6" width="1" height="1" fill="#6b8ca3"/>
  <rect x="52" y="6" width="2" height="1" fill="#668ea5"/>
  <rect x="6" y="7" width="1" height="1" fill="#6d8ba3"/>
  <rect x="7" y="7" width="1" height="1" fill="#6a8ca7"/>
  <rect x="8" y="7" width="1" height="1" fill="#698daa"/>
  <rect x="15" y="7" width="1" height="1" fill="#a7cad2"/>
  <rect x="16" y="7" width="1" height="1" fill="#f4feff66"/>
  <rect x="17" y="7" width="1" height="1" fill="#ffffff66"/>
  <rect x="18" y="7" width="1" height="1" fill="#feffff66"/>
  <rect x="19" y="7" width="1" height="1" fill="#ffffff93"/>
  <rect x="20" y="7" width="1" height="1" fill="#f3ffffb3"/>
  <rect x="21" y="7" width="1" height="1" fill="#798a9b"/>
  <rect x="22" y="7" width="2" height="1" fill="#718597"/>
  <rect x="24" y="7" width="1" height="1" fill="#ebfdffb3"/>
  <rect x="25" y="7" width="1" height="1" fill="#eefdff93"/>
  <rect x="26" y="7" width="1" height="1" fill="#f7ffff66"/>
  <rect x="27" y="7" width="1" height="1" fill="#f1ffff66"/>
  <rect x="28" y="7" width="1" height="1" fill="#e2ffff66"/>
  <rect x="29" y="7" width="1" height="1" fill="#a0c6cc"/>
  <rect x="30" y="7" width="1" height="1" fill="#a0c8cd"/>
  <rect x="31" y="7" width="1" height="1" fill="#e6ffff66"/>
  <rect x="32" y="7" width="1" height="1" fill="#f3ffff66"/>
  <rect x="33" y="7" width="1" height="1" fill="#fbffff66"/>
  <rect x="34" y="7" width="1" height="1" fill="#f4ffff93"/>
  <rect x="35" y="7" width="1" height="1" fill="#f5ffffb3"/>
  <rect x="36" y="7" width="1" height="1" fill="#768a9c"/>
  <rect x="37" y="7" width="1" height="1" fill="#6c8298"/>
  <rect x="38" y="7" width="1" height="1" fill="#6c869f"/>
  <rect x="39" y="7" width="1" height="1" fill="#eeffffb3"/>
  <rect x="40" y="7" width="1" height="1" fill="#fcffff93"/>
  <rect x="41" y="7" width="2" height="1" fill="#ffffff66"/>
  <rect x="43" y="7" width="1" height="1" fill="#f3faff66"/>
  <rect x="44" y="7" width="1" height="1" fill="#adc7d9"/>
  <rect x="51" y="7" width="1" height="1" fill="#6b8ca1"/>
  <rect x="52" y="7" width="1" height="1" fill="#668ea5"/>
  <rect x="53" y="7" width="1" height="1" fill="#668ea3"/>
  <rect x="5" y="8" width="1" height="2" fill="#73899d"/>
  <rect x="6" y="8" width="1" height="1" fill="#6d8ba5"/>
  <rect x="7" y="8" width="1" height="1" fill="#6b8ba9"/>
  <rect x="8" y="8" width="1" height="1" fill="#6c89a6"/>
  <rect x="9" y="8" width="1" height="1" fill="#6e8aa3"/>
  <rect x="15" y="8" width="1" height="1" fill="#a7c9d4"/>
  <rect x="16" y="8" width="1" height="1" fill="#f4fcff51"/>
  <rect x="17" y="8" width="1" height="1" fill="#fcf8ff51"/>
  <rect x="18" y="8" width="1" height="1" fill="#ffffff84"/>
  <rect x="19" y="8" width="1" height="1" fill="#f2f7ffa8"/>
  <rect x="20" y="8" width="1" height="1" fill="#788295"/>
  <rect x="21" y="8" width="1" height="1" fill="#788799"/>
  <rect x="22" y="8" width="1" height="1" fill="#718597"/>
  <rect x="23" y="8" width="1" height="1" fill="#798da0"/>
  <rect x="24" y="8" width="1" height="1" fill="#788799"/>
  <rect x="25" y="8" width="1" height="1" fill="#f8ffffa8"/>
  <rect x="26" y="8" width="1" height="1" fill="#f1faff84"/>
  <rect x="27" y="8" width="1" height="1" fill="#efffff51"/>
  <rect x="28" y="8" width="1" height="1" fill="#e0ffff51"/>
  <rect x="29" y="8" width="1" height="1" fill="#9dc7ce"/>
  <rect x="30" y="8" width="1" height="1" fill="#a0c8cf"/>
  <rect x="31" y="8" width="1" height="1" fill="#e5ffff7b"/>
  <rect x="32" y="8" width="1" height="1" fill="#f4ffff7b"/>
  <rect x="33" y="8" width="1" height="1" fill="#ebfbffa2"/>
  <rect x="34" y="8" width="1" height="1" fill="#efffffbd"/>
  <rect x="35" y="8" width="1" height="1" fill="#798b99"/>
  <rect x="36" y="8" width="1" height="1" fill="#758999"/>
  <rect x="37" y="8" width="1" height="1" fill="#768a9c"/>
  <rect x="38" y="8" width="1" height="1" fill="#768b9f"/>
  <rect x="39" y="8" width="1" height="1" fill="#798a9b"/>
  <rect x="40" y="8" width="1" height="1" fill="#edf4ffbd"/>
  <rect x="41" y="8" width="1" height="1" fill="#ffffffa2"/>
  <rect x="42" y="8" width="2" height="1" fill="#ffffff7b"/>
  <rect x="44" y="8" width="1" height="1" fill="#b3cbde"/>
  <rect x="50" y="8" width="1" height="1" fill="#6e8c99"/>
  <rect x="51" y="8" width="1" height="1" fill="#6d8d9b"/>
  <rect x="52" y="8" width="2" height="1" fill="#688e9f"/>
  <rect x="54" y="8" width="1" height="1" fill="#6b8d9b"/>
  <rect x="4" y="9" width="1" height="1" fill="#768997"/>
  <rect x="6" y="9" width="1" height="1" fill="#72899f"/>
  <rect x="8" y="9" width="1" height="1" fill="#6e8ba1"/>
  <rect x="9" y="9" width="1" height="1" fill="#6d8c9f"/>
  <rect x="10" y="9" width="1" height="1" fill="#6e93a2"/>
  <rect x="15" y="9" width="1" height="1" fill="#a5cad4"/>
  <rect x="16" y="9" width="1" height="1" fill="#f8ffff3c"/>
  <rect x="17" y="9" width="1" height="1" fill="#fbfeff76"/>
  <rect x="18" y="9" width="1" height="1" fill="#f9feff9e"/>
  <rect x="19" y="9" width="1" height="1" fill="#7e869a"/>
  <rect x="20" y="9" width="1" height="1" fill="#778192"/>
  <rect x="21" y="9" width="1" height="1" fill="#778595"/>
  <rect x="22" y="9" width="1" height="1" fill="#ecfcff9e"/>
  <rect x="23" y="9" width="1" height="1" fill="#788a98"/>
  <rect x="24" y="9" width="1" height="1" fill="#748896"/>
  <rect x="25" y="9" width="1" height="1" fill="#7f919f"/>
  <rect x="26" y="9" width="1" height="1" fill="#f4ffff9e"/>
  <rect x="27" y="9" width="1" height="1" fill="#eeffff76"/>
  <rect x="28" y="9" width="1" height="1" fill="#e2ffff3c"/>
  <rect x="29" y="9" width="1" height="1" fill="#a0cdd2"/>
  <rect x="30" y="9" width="1" height="1" fill="#a5ccd3"/>
  <rect x="31" y="9" width="1" height="1" fill="#e9ffff90"/>
  <rect x="32" y="9" width="1" height="1" fill="#e5fcffb1"/>
  <rect x="33" y="9" width="1" height="1" fill="#eefdffc8"/>
  <rect x="34" y="9" width="1" height="1" fill="#768595"/>
  <rect x="35" y="9" width="1" height="1" fill="#788897"/>
  <rect x="36" y="9" width="1" height="1" fill="#7b8b9c"/>
  <rect x="37" y="9" width="1" height="1" fill="#f1ffffc8"/>
  <rect x="38" y="9" width="1" height="1" fill="#7a8a9b"/>
  <rect x="39" y="9" width="1" height="1" fill="#728291"/>
  <rect x="40" y="9" width="1" height="1" fill="#7a8893"/>
  <rect x="41" y="9" width="1" height="1" fill="#f0fcffc8"/>
  <rect x="42" y="9" width="1" height="1" fill="#f5fdffb1"/>
  <rect x="43" y="9" width="1" height="1" fill="#f2feff90"/>
  <rect x="44" y="9" width="1" height="1" fill="#a7c4d8"/>
  <rect x="49" y="9" width="1" height="1" fill="#6b8d9b"/>
  <rect x="50" y="9" width="2" height="1" fill="#6d8d9b"/>
  <rect x="53" y="9" width="2" height="1" fill="#6b8d9b"/>
  <rect x="55" y="9" width="1" height="1" fill="#728b95"/>
  <rect x="3" y="10" width="1" height="1" fill="#708b99"/>
  <rect x="4" y="10" width="1" height="1" fill="#6e8b9d"/>
  <rect x="5" y="10" width="1" height="1" fill="#728a9b"/>
  <rect x="9" y="10" width="1" height="1" fill="#6d94a0"/>
  <rect x="10" y="10" width="1" height="1" fill="#688f99"/>
  <rect x="11" y="10" width="1" height="1" fill="#6e8d95"/>
  <rect x="15" y="10" width="1" height="2" fill="#a3cbd2"/>
  <rect x="16" y="10" width="1" height="1" fill="#eaffff29"/>
  <rect x="17" y="10" width="1" height="1" fill="#edffff94"/>
  <rect x="18" y="10" width="1" height="1" fill="#6c7f86"/>
  <rect x="19" y="10" width="1" height="1" fill="#809199"/>
  <rect x="20" y="10" width="1" height="1" fill="#7a8690"/>
  <rect x="21" y="10" width="1" height="1" fill="#f9ffff94"/>
  <rect x="22" y="10" width="1" height="1" fill="#f0faff68"/>
  <rect x="23" y="10" width="1" height="1" fill="#f5ffff94"/>
  <rect x="24" y="10" width="1" height="1" fill="#6a8e92"/>
  <rect x="25" y="10" width="1" height="1" fill="#6f989a"/>
  <rect x="26" y="10" width="1" height="1" fill="#77969b"/>
  <rect x="27" y="10" width="1" height="1" fill="#e6ffff94"/>
  <rect x="28" y="10" width="1" height="1" fill="#dbffff29"/>
  <rect x="29" y="10" width="1" height="1" fill="#9dcfd0"/>
  <rect x="30" y="10" width="1" height="1" fill="#a5cdd1"/>
  <rect x="31" y="10" width="1" height="1" fill="#ebffffa3"/>
  <rect x="32" y="10" width="1" height="1" fill="#f2ffffd1"/>
  <rect x="33" y="10" width="1" height="1" fill="#7a8395"/>
  <rect x="34" y="10" width="1" height="1" fill="#80899a"/>
  <rect x="35" y="10" width="1" height="1" fill="#7e8698"/>
  <rect x="36" y="10" width="1" height="1" fill="#feffffd1"/>
  <rect x="37" y="10" width="1" height="1" fill="#f2fbffbe"/>
  <rect x="38" y="10" width="1" height="1" fill="#fdffffd1"/>
  <rect x="39" y="10" width="1" height="1" fill="#70808f"/>
  <rect x="40" y="10" width="1" height="1" fill="#708e96"/>
  <rect x="41" y="10" width="1" height="1" fill="#739499"/>
  <rect x="42" y="10" width="1" height="1" fill="#f3ffffd1"/>
  <rect x="43" y="10" width="1" height="1" fill="#ecffffa3"/>
  <rect x="44" y="10" width="1" height="1" fill="#a5cade"/>
  <rect x="48" y="10" width="1" height="1" fill="#6e8c9b"/>
  <rect x="49" y="10" width="1" height="1" fill="#6d8d9b"/>
  <rect x="50" y="10" width="1" height="1" fill="#6a8d9f"/>
  <rect x="54" y="10" width="1" height="1" fill="#6d8d9b"/>
  <rect x="55" y="10" width="1" height="1" fill="#708b99"/>
  <rect x="56" y="10" width="1" height="1" fill="#7a8891"/>
  <rect x="3" y="11" width="1" height="1" fill="#728b99"/>
  <rect x="4" y="11" width="1" height="1" fill="#728a9b"/>
  <rect x="10" y="11" width="1" height="1" fill="#6e8d95"/>
  <rect x="11" y="11" width="1" height="1" fill="#738b91"/>
  <rect x="16" y="11" width="1" height="1" fill="#e7ffff19"/>
  <rect x="17" y="11" width="1" height="1" fill="#eeffff8c"/>
  <rect x="18" y="11" width="1" height="1" fill="#75898c"/>
  <rect x="19" y="11" width="1" height="1" fill="#7c8b8f"/>
  <rect x="20" y="11" width="1" height="1" fill="#f5fdff8c"/>
  <rect x="21" y="11" width="1" height="1" fill="#f1f4ff5c"/>
  <rect x="22" y="11" width="1" height="1" fill="#fbfcff19"/>
  <rect x="23" y="11" width="1" height="1" fill="#ffffff5c"/>
  <rect x="24" y="11" width="1" height="1" fill="#e2ffff8c"/>
  <rect x="25" y="11" width="1" height="1" fill="#6e9293"/>
  <rect x="26" y="11" width="1" height="1" fill="#6d878e"/>
  <rect x="27" y="11" width="1" height="1" fill="#e2ffff8c"/>
  <rect x="28" y="11" width="1" height="1" fill="#d7ffff19"/>
  <rect x="29" y="11" width="1" height="1" fill="#97c9ca"/>
  <rect x="30" y="11" width="1" height="1" fill="#a1c9ce"/>
  <rect x="31" y="11" width="1" height="1" fill="#e7ffffb3"/>
  <rect x="32" y="11" width="1" height="1" fill="#f5ffffd9"/>
  <rect x="33" y="11" width="1" height="1" fill="#828493"/>
  <rect x="34" y="11" width="1" height="1" fill="#838594"/>
  <rect x="35" y="11" width="1" height="1" fill="#f4f6ffd9"/>
  <rect x="36" y="11" width="1" height="1" fill="#fcfeffca"/>
  <rect x="37" y="11" width="1" height="1" fill="#fcfeffb3"/>
  <rect x="38" y="11" width="1" height="1" fill="#f9fcffca"/>
  <rect x="39" y="11" width="1" height="1" fill="#f3ffffd9"/>
  <rect x="40" y="11" width="1" height="1" fill="#718d96"/>
  <rect x="41" y="11" width="1" height="1" fill="#698b8f"/>
  <rect x="42" y="11" width="1" height="1" fill="#edffffd9"/>
  <rect x="43" y="11" width="1" height="1" fill="#e9ffffb3"/>
  <rect x="44" y="11" width="1" height="1" fill="#a2cade"/>
  <rect x="48" y="11" width="1" height="1" fill="#728b97"/>
  <rect x="49" y="11" width="1" height="1" fill="#738a97"/>
  <rect x="55" y="11" width="1" height="1" fill="#758a95"/>
  <rect x="56" y="11" width="1" height="1" fill="#7d878d"/>
  <rect x="15" y="12" width="1" height="1" fill="#a6ccd3"/>
  <rect x="16" y="12" width="1" height="1" fill="#f0ffff0a"/>
  <rect x="17" y="12" width="1" height="1" fill="#f6ffff52"/>
  <rect x="18" y="12" width="1" height="1" fill="#f9ffff85"/>
  <rect x="19" y="12" width="1" height="1" fill="#fbffff85"/>
  <rect x="20" y="12" width="1" height="1" fill="#fdfeff52"/>
  <rect x="21" y="12" width="2" height="1" fill="#fffbff0a"/>
  <rect x="23" y="12" width="1" height="1" fill="#fffdff0a"/>
  <rect x="24" y="12" width="1" height="1" fill="#fdffff52"/>
  <rect x="25" y="12" width="1" height="1" fill="#fcffff85"/>
  <rect x="26" y="12" width="1" height="1" fill="#ffffff85"/>
  <rect x="27" y="12" width="1" height="1" fill="#faffff52"/>
  <rect x="28" y="12" width="1" height="1" fill="#e7ffff0a"/>
  <rect x="29" y="12" width="1" height="1" fill="#a6d3d6"/>
  <rect x="30" y="12" width="1" height="1" fill="#a3ced1"/>
  <rect x="31" y="12" width="1" height="1" fill="#e4ffffc2"/>
  <rect x="32" y="12" width="1" height="1" fill="#f9ffffd4"/>
  <rect x="33" y="12" width="1" height="1" fill="#fffdffe1"/>
  <rect x="34" y="12" width="1" height="1" fill="#ffffffe1"/>
  <rect x="35" y="12" width="1" height="1" fill="#ffffffd4"/>
  <rect x="36" y="12" width="2" height="1" fill="#ffffffc2"/>
  <rect x="38" y="12" width="1" height="1" fill="#fffdffc2"/>
  <rect x="39" y="12" width="1" height="1" fill="#fdffffd4"/>
  <rect x="40" y="12" width="1" height="1" fill="#f8ffffe1"/>
  <rect x="41" y="12" width="1" height="1" fill="#f7ffffe1"/>
  <rect x="42" y="12" width="1" height="1" fill="#f8ffffd4"/>
  <rect x="43" y="12" width="1" height="1" fill="#f3ffffc2"/>
  <rect x="44" y="12" width="1" height="1" fill="#a6c9e0"/>
  <rect x="15" y="13" width="1" height="1" fill="#a6cbd5bb"/>
  <rect x="16" y="13" width="1" height="1" fill="#bad2da44"/>
  <rect x="28" y="13" width="1" height="1" fill="#abcfd543"/>
  <rect x="29" y="13" width="1" height="1" fill="#9ac7ccbc"/>
  <rect x="30" y="13" width="1" height="1" fill="#abd5dcbb"/>
  <rect x="31" y="13" width="1" height="1" fill="#d1f2f7da"/>
  <rect x="32" y="13" width="1" height="1" fill="#f5ffffcc"/>
  <rect x="33" y="13" width="1" height="1" fill="#fbffffcc"/>
  <rect x="34" y="13" width="4" height="1" fill="#fcffffcc"/>
  <rect x="38" y="13" width="1" height="1" fill="#fbffffcc"/>
  <rect x="39" y="13" width="1" height="1" fill="#f8ffffcc"/>
  <rect x="40" y="13" width="1" height="1" fill="#f5ffffcc"/>
  <rect x="41" y="13" width="1" height="1" fill="#f4ffffcc"/>
  <rect x="42" y="13" width="1" height="1" fill="#f6ffffcc"/>
  <rect x="43" y="13" width="1" height="1" fill="#efffffd9"/>
  <rect x="44" y="13" width="1" height="1" fill="#a5cae0bc"/>
  <rect x="15" y="14" width="1" height="1" fill="#a5ccd752"/>
  <rect x="16" y="14" width="1" height="1" fill="#aac7d6bb"/>
  <rect x="17" y="14" width="1" height="1" fill="#abc6d6"/>
  <rect x="18" y="14" width="1" height="1" fill="#aac7d6"/>
  <rect x="19" y="14" width="1" height="1" fill="#a6c6d4"/>
  <rect x="20" y="14" width="1" height="1" fill="#a3c6d1"/>
  <rect x="21" y="14" width="1" height="1" fill="#a0c5d0"/>
  <rect x="22" y="14" width="1" height="1" fill="#a0c7d1"/>
  <rect x="23" y="14" width="1" height="1" fill="#a3c8d0"/>
  <rect x="24" y="14" width="1" height="1" fill="#aac6d1"/>
  <rect x="25" y="14" width="1" height="1" fill="#b0c5d2"/>
  <rect x="26" y="14" width="1" height="1" fill="#b6c5d5"/>
  <rect x="27" y="14" width="1" height="1" fill="#b1c8d5"/>
  <rect x="28" y="14" width="1" height="1" fill="#a6ced5bc"/>
  <rect x="29" y="14" width="1" height="1" fill="#a1d0d753"/>
  <rect x="30" y="14" width="1" height="1" fill="#a4ced752"/>
  <rect x="31" y="14" width="1" height="1" fill="#a7ccd7bb"/>
  <rect x="32" y="14" width="1" height="1" fill="#a6ccd3"/>
  <rect x="33" y="14" width="1" height="1" fill="#a6ccd1"/>
  <rect x="34" y="14" width="3" height="1" fill="#a6ccd3"/>
  <rect x="37" y="14" width="3" height="1" fill="#a6cbd5"/>
  <rect x="40" y="14" width="1" height="1" fill="#a7cdd5"/>
  <rect x="41" y="14" width="1" height="1" fill="#abccd1"/>
  <rect x="42" y="14" width="1" height="1" fill="#afccce"/>
  <rect x="43" y="14" width="1" height="1" fill="#accdd4bc"/>
  <rect x="44" y="14" width="1" height="1" fill="#9ecde053"/>
</svg>