<svg xmlns="http://www.w3.org/2000/svg" width="44" height="10" viewBox="0 0 44 10" shape-rendering="crispEdges">
  <rect x="0" y="0" width="1" height="1" fill="#65764397"/>
  <rect x="1" y="0" width="1" height="1" fill="#677945"/>
  <rect x="2" y="0" width="1" height="1" fill="#657741"/>
  <rect x="3" y="0" width="1" height="1" fill="#65783b"/>
  <rect x="4" y="0" width="1" height="1" fill="#657a2f97"/>
  <rect x="6" y="0" width="1" height="1" fill="#62792697"/>
  <rect x="7" y="0" width="1" height="1" fill="#6c802e"/>
  <rect x="8" y="0" width="1" height="1" fill="#6a7929"/>
  <rect x="9" y="0" width="1" height="1" fill="#7e7928"/>
  <rect x="10" y="0" width="1" height="1" fill="#9e772297"/>
  <rect x="11" y="0" width="1" height="1" fill="#975a1197"/>
  <rect x="12" y="0" width="1" height="1" fill="#a55e2d"/>
  <rect x="13" y="0" width="1" height="1" fill="#a3582f"/>
  <rect x="14" y="0" width="1" height="1" fill="#a96130"/>
  <rect x="15" y="0" width="1" height="1" fill="#b25b2697"/>
  <rect x="17" y="0" width="1" height="1" fill="#c24b1697"/>
  <rect x="18" y="0" width="1" height="1" fill="#b35a26"/>
  <rect x="19" y="0" width="1" height="1" fill="#a65a2b"/>
  <rect x="20" y="0" width="1" height="1" fill="#a6532d"/>
  <rect x="21" y="0" width="1" height="1" fill="#b75c3297"/>
  <rect x="22" y="0" width="1" height="1" fill="#ba561f97"/>
  <rect x="23" y="0" width="1" height="1" fill="#b35211"/>
  <rect x="24" y="0" width="1" height="1" fill="#ab5b16"/>
  <rect x="25" y="0" width="1" height="1" fill="#ad5616"/>
  <rect x="26" y="0" width="1" height="1" fill="#bd481597"/>
  <rect x="28" y="0" width="1" height="1" fill="#c2521497"/>
  <rect x="29" y="0" width="1" height="1" fill="#b3510e"/>
  <rect x="30" y="0" width="1" height="1" fill="#b05d1c"/>
  <rect x="31" y="0" width="1" height="1" fill="#a25d19"/>
  <rect x="32" y="0" width="1" height="1" fill="#99651c97"/>
  <rect x="33" y="0" width="1" height="1" fill="#8b6b2697"/>
  <rect x="34" y="0" width="1" height="1" fill="#7b723a"/>
  <rect x="35" y="0" width="1" height="1" fill="#6f7840"/>
  <rect x="36" y="0" width="1" height="1" fill="#66773b"/>
  <rect x="37" y="0" width="1" height="1" fill="#667b3497"/>
  <rect x="39" y="0" width="1" height="1" fill="#6a7c2d97"/>
  <rect x="40" y="0" width="1" height="1" fill="#6b7e3f"/>
  <rect x="41" y="0" width="1" height="1" fill="#64793e"/>
  <rect x="42" y="0" width="1" height="1" fill="#698038"/>
  <rect x="43" y="0" width="1" height="1" fill="#657d3197"/>
  <rect x="0" y="1" width="1" height="1" fill="#687a42"/>
  <rect x="1" y="1" width="1" height="1" fill="#f9ffd5"/>
  <rect x="2" y="1" width="1" height="1" fill="#efffcb"/>
  <rect x="3" y="1" width="1" height="1" fill="#f0ffc8"/>
  <rect x="4" y="1" width="1" height="1" fill="#728641"/>
  <rect x="5" y="1" width="1" height="1" fill="#697e3797"/>
  <rect x="6" y="1" width="1" height="1" fill="#647833"/>
  <rect x="7" y="1" width="1" height="1" fill="#fbffc8"/>
  <rect x="8" y="1" width="1" height="1" fill="#f7ffbe"/>
  <rect x="9" y="1" width="1" height="1" fill="#ffffba"/>
  <rect x="10" y="1" width="1" height="1" fill="#94701c"/>
  <rect x="11" y="1" width="1" height="1" fill="#9e6118"/>
  <rect x="12" y="1" width="1" height="1" fill="#ffefc0"/>
  <rect x="13" y="1" width="1" height="1" fill="#ffe9c5"/>
  <rect x="14" y="1" width="1" height="1" fill="#fff0c9"/>
  <rect x="15" y="1" width="1" height="1" fill="#9c5a2e"/>
  <rect x="16" y="1" width="1" height="1" fill="#af511f97"/>
  <rect x="17" y="1" width="1" height="1" fill="#b0501c"/>
  <rect x="18" y="1" width="1" height="1" fill="#ffedbd"/>
  <rect x="19" y="1" width="1" height="1" fill="#fff6cb"/>
  <rect x="20" y="1" width="1" height="1" fill="#ffe9c4"/>
  <rect x="21" y="1" width="1" height="1" fill="#b34d22"/>
  <rect x="22" y="1" width="1" height="1" fill="#bd4f19"/>
  <rect x="23" y="1" width="1" height="1" fill="#ffa264"/>
  <rect x="24" y="1" width="1" height="1" fill="#feac68"/>
  <rect x="25" y="1" width="1" height="1" fill="#fdaa69"/>
  <rect x="26" y="1" width="1" height="1" fill="#b65015"/>
  <rect x="27" y="1" width="1" height="1" fill="#c55a2197"/>
  <rect x="28" y="1" width="1" height="1" fill="#b55b1a"/>
  <rect x="29" y="1" width="1" height="1" fill="#feac68"/>
  <rect x="30" y="1" width="1" height="1" fill="#feab6a"/>
  <rect x="31" y="1" width="1" height="1" fill="#f9b06b"/>
  <rect x="32" y="1" width="1" height="1" fill="#98641a"/>
  <rect x="33" y="1" width="1" height="1" fill="#8d6f27"/>
  <rect x="34" y="1" width="1" height="1" fill="#ffffc5"/>
  <rect x="35" y="1" width="1" height="1" fill="#ffffd7"/>
  <rect x="36" y="1" width="1" height="1" fill="#fbffd6"/>
  <rect x="37" y="1" width="1" height="1" fill="#6a7a42"/>
  <rect x="38" y="1" width="1" height="1" fill="#68793697"/>
  <rect x="39" y="1" width="1" height="1" fill="#6a7c38"/>
  <rect x="40" y="1" width="1" height="1" fill="#f7ffd1"/>
  <rect x="41" y="1" width="1" height="1" fill="#f9ffd3"/>
  <rect x="42" y="1" width="1" height="1" fill="#f7ffc5"/>
  <rect x="43" y="1" width="1" height="1" fill="#6a8332"/>
  <rect x="0" y="2" width="1" height="1" fill="#6c7f4097"/>
  <rect x="1" y="2" width="1" height="1" fill="#65783b"/>
  <rect x="2" y="2" width="1" height="1" fill="#fbffd7"/>
  <rect x="3" y="2" width="1" height="1" fill="#f4ffd2"/>
  <rect x="4" y="2" width="1" height="1" fill="#efffcd"/>
  <rect x="5" y="2" width="1" height="1" fill="#677847"/>
  <rect x="6" y="2" width="1" height="1" fill="#f7ffde"/>
  <rect x="7" y="2" width="1" height="1" fill="#f0ffd3"/>
  <rect x="8" y="2" width="1" height="1" fill="#f8ffca"/>
  <rect x="9" y="2" width="1" height="1" fill="#7b7c31"/>
  <rect x="10" y="2" width="1" height="1" fill="#8f6d1997"/>
  <rect x="11" y="2" width="1" height="1" fill="#a96a2297"/>
  <rect x="12" y="2" width="1" height="1" fill="#aa5428"/>
  <rect x="13" y="2" width="1" height="1" fill="#ffeacd"/>
  <rect x="14" y="2" width="1" height="1" fill="#fff4dd"/>
  <rect x="15" y="2" width="1" height="1" fill="#fffbe2"/>
  <rect x="16" y="2" width="1" height="1" fill="#94673d"/>
  <rect x="17" y="2" width="1" height="1" fill="#fff6c9"/>
  <rect x="18" y="2" width="1" height="1" fill="#fff6d2"/>
  <rect x="19" y="2" width="1" height="1" fill="#ffedca"/>
  <rect x="20" y="2" width="1" height="1" fill="#bb4f2b"/>
  <rect x="21" y="2" width="1" height="1" fill="#c5451c97"/>
  <rect x="22" y="2" width="1" height="1" fill="#ca491797"/>
  <rect x="23" y="2" width="1" height="1" fill="#b8460d"/>
  <rect x="24" y="2" width="1" height="1" fill="#ffb172"/>
  <rect x="25" y="2" width="1" height="1" fill="#feb872"/>
  <rect x="26" y="2" width="1" height="1" fill="#ffb46e"/>
  <rect x="27" y="2" width="1" height="1" fill="#a4601a"/>
  <rect x="28" y="2" width="1" height="1" fill="#eec07b"/>
  <rect x="29" y="2" width="1" height="1" fill="#ebb975"/>
  <rect x="30" y="2" width="1" height="1" fill="#faaa68"/>
  <rect x="31" y="2" width="1" height="1" fill="#a85612"/>
  <rect x="32" y="2" width="1" height="1" fill="#955d1397"/>
  <rect x="33" y="2" width="1" height="1" fill="#876d2497"/>
  <rect x="34" y="2" width="1" height="1" fill="#6e7531"/>
  <rect x="35" y="2" width="1" height="1" fill="#f5ffcf"/>
  <rect x="36" y="2" width="1" height="1" fill="#f8ffe1"/>
  <rect x="37" y="2" width="1" height="1" fill="#ffffec"/>
  <rect x="38" y="2" width="1" height="1" fill="#67774f"/>
  <rect x="39" y="2" width="1" height="1" fill="#f7ffdd"/>
  <rect x="40" y="2" width="1" height="1" fill="#f6ffdc"/>
  <rect x="41" y="2" width="1" height="1" fill="#f5ffd0"/>
  <rect x="42" y="2" width="1" height="1" fill="#68802f"/>
  <rect x="43" y="2" width="1" height="1" fill="#637e2097"/>
  <rect x="1" y="3" width="1" height="1" fill="#677c3197"/>
  <rect x="2" y="3" width="1" height="1" fill="#667b34"/>
  <rect x="3" y="3" width="1" height="1" fill="#efffc5"/>
  <rect x="4" y="3" width="1" height="1" fill="#f5ffd7"/>
  <rect x="5" y="3" width="1" height="1" fill="#f6ffe0"/>
  <rect x="6" y="3" width="1" height="1" fill="#f7ffe6"/>
  <rect x="7" y="3" width="1" height="1" fill="#f6ffdc"/>
  <rect x="8" y="3" width="1" height="1" fill="#627836"/>
  <rect x="9" y="3" width="1" height="1" fill="#79782b97"/>
  <rect x="12" y="3" width="1" height="1" fill="#b74e2497"/>
  <rect x="13" y="3" width="1" height="1" fill="#a34829"/>
  <rect x="14" y="3" width="1" height="1" fill="#fffde4"/>
  <rect x="15" y="3" width="1" height="1" fill="#fffce0"/>
  <rect x="16" y="3" width="1" height="1" fill="#fff8d5"/>
  <rect x="17" y="3" width="1" height="1" fill="#fff5cf"/>
  <rect x="18" y="3" width="1" height="1" fill="#fff3cd"/>
  <rect x="19" y="3" width="1" height="1" fill="#a7562f"/>
  <rect x="20" y="3" width="1" height="1" fill="#bf491d97"/>
  <rect x="23" y="3" width="1" height="1" fill="#c6491197"/>
  <rect x="24" y="3" width="1" height="1" fill="#b55417"/>
  <rect x="25" y="3" width="1" height="1" fill="#ffb573"/>
  <rect x="26" y="3" width="1" height="1" fill="#fec37e"/>
  <rect x="27" y="3" width="1" height="1" fill="#f6c883"/>
  <rect x="28" y="3" width="1" height="1" fill="#f0ca8a"/>
  <rect x="29" y="3" width="1" height="1" fill="#f3c082"/>
  <rect x="30" y="3" width="1" height="1" fill="#b65a1e"/>
  <rect x="31" y="3" width="1" height="1" fill="#af551497"/>
  <rect x="34" y="3" width="1" height="1" fill="#6b792e97"/>
  <rect x="35" y="3" width="1" height="1" fill="#657b3d"/>
  <rect x="36" y="3" width="1" height="1" fill="#f6ffdc"/>
  <rect x="37" y="3" width="1" height="1" fill="#fdffeb"/>
  <rect x="38" y="3" width="1" height="1" fill="#f4ffe8"/>
  <rect x="39" y="3" width="1" height="1" fill="#f0ffdf"/>
  <rect x="40" y="3" width="1" height="1" fill="#f5ffd8"/>
  <rect x="41" y="3" width="1" height="1" fill="#6b823f"/>
  <rect x="42" y="3" width="1" height="1" fill="#69832a97"/>
  <rect x="2" y="4" width="1" height="1" fill="#6e882297"/>
  <rect x="3" y="4" width="1" height="1" fill="#6f872f"/>
  <rect x="4" y="4" width="1" height="1" fill="#f4ffd4"/>
  <rect x="5" y="4" width="1" height="1" fill="#f9ffe5"/>
  <rect x="6" y="4" width="1" height="1" fill="#f2ffd8"/>
  <rect x="7" y="4" width="1" height="1" fill="#687c43"/>
  <rect x="8" y="4" width="1" height="1" fill="#6d883697"/>
  <rect x="13" y="4" width="1" height="1" fill="#cb572c97"/>
  <rect x="14" y="4" width="1" height="1" fill="#a35625"/>
  <rect x="15" y="4" width="1" height="1" fill="#fff7ca"/>
  <rect x="16" y="4" width="1" height="1" fill="#fff6d3"/>
  <rect x="17" y="4" width="1" height="1" fill="#fff5d2"/>
  <rect x="18" y="4" width="1" height="1" fill="#ab5625"/>
  <rect x="19" y="4" width="1" height="1" fill="#bf4c1197"/>
  <rect x="24" y="4" width="1" height="1" fill="#c34a1197"/>
  <rect x="25" y="4" width="1" height="1" fill="#ae5118"/>
  <rect x="26" y="4" width="1" height="1" fill="#fcc790"/>
  <rect x="27" y="4" width="1" height="1" fill="#f6cd96"/>
  <rect x="28" y="4" width="1" height="1" fill="#ffcc96"/>
  <rect x="29" y="4" width="1" height="1" fill="#b45d28"/>
  <rect x="30" y="4" width="1" height="1" fill="#c9532497"/>
  <rect x="35" y="4" width="1" height="1" fill="#6a823897"/>
  <rect x="36" y="4" width="1" height="1" fill="#647d39"/>
  <rect x="37" y="4" width="1" height="1" fill="#ecffcc"/>
  <rect x="38" y="4" width="1" height="1" fill="#ebffde"/>
  <rect x="39" y="4" width="1" height="1" fill="#ebffda"/>
  <rect x="40" y="4" width="1" height="1" fill="#647c3b"/>
  <rect x="41" y="4" width="1" height="1" fill="#67802c97"/>
  <rect x="2" y="5" width="1" height="1" fill="#6d862397"/>
  <rect x="3" y="5" width="1" height="1" fill="#6e8530"/>
  <rect x="4" y="5" width="1" height="1" fill="#f4ffd0"/>
  <rect x="5" y="5" width="1" height="1" fill="#f3ffdb"/>
  <rect x="6" y="5" width="1" height="1" fill="#f5ffd9"/>
  <rect x="7" y="5" width="1" height="1" fill="#6f8448"/>
  <rect x="8" y="5" width="1" height="1" fill="#66842e97"/>
  <rect x="13" y="5" width="1" height="1" fill="#bf4e1b97"/>
  <rect x="14" y="5" width="1" height="1" fill="#a95b26"/>
  <rect x="15" y="5" width="1" height="1" fill="#ffeebc"/>
  <rect x="16" y="5" width="1" height="1" fill="#fff2d2"/>
  <rect x="17" y="5" width="1" height="1" fill="#fff0cc"/>
  <rect x="18" y="5" width="1" height="1" fill="#b35c27"/>
  <rect x="19" y="5" width="1" height="1" fill="#c04f1197"/>
  <rect x="24" y="5" width="1" height="1" fill="#c6501697"/>
  <rect x="25" y="5" width="1" height="1" fill="#ab521a"/>
  <rect x="26" y="5" width="1" height="1" fill="#ffd7a6"/>
  <rect x="27" y="5" width="1" height="1" fill="#ffdbab"/>
  <rect x="28" y="5" width="1" height="1" fill="#ffc795"/>
  <rect x="29" y="5" width="1" height="1" fill="#ad5525"/>
  <rect x="30" y="5" width="1" height="1" fill="#c1491d97"/>
  <rect x="35" y="5" width="1" height="1" fill="#67823297"/>
  <rect x="36" y="5" width="1" height="1" fill="#638034"/>
  <rect x="37" y="5" width="1" height="1" fill="#ebffc8"/>
  <rect x="38" y="5" width="1" height="1" fill="#eaffda"/>
  <rect x="39" y="5" width="1" height="1" fill="#eaffd7"/>
  <rect x="40" y="5" width="1" height="1" fill="#6a823f"/>
  <rect x="41" y="5" width="1" height="1" fill="#6a833097"/>
  <rect x="1" y="6" width="1" height="1" fill="#647d2c97"/>
  <rect x="2" y="6" width="1" height="1" fill="#5b712f"/>
  <rect x="3" y="6" width="1" height="1" fill="#f1ffcb"/>
  <rect x="4" y="6" width="1" height="1" fill="#e8fdc1"/>
  <rect x="5" y="6" width="1" height="1" fill="#eeffcd"/>
  <rect x="6" y="6" width="1" height="1" fill="#ebfdd5"/>
  <rect x="7" y="6" width="1" height="1" fill="#e2f7c7"/>
  <rect x="8" y="6" width="1" height="1" fill="#638233"/>
  <rect x="9" y="6" width="1" height="1" fill="#747d2a97"/>
  <rect x="12" y="6" width="1" height="1" fill="#b5551c97"/>
  <rect x="13" y="6" width="1" height="1" fill="#a85823"/>
  <rect x="14" y="6" width="1" height="1" fill="#fff2c9"/>
  <rect x="15" y="6" width="1" height="1" fill="#ffe9c7"/>
  <rect x="16" y="6" width="1" height="1" fill="#fff2d0"/>
  <rect x="17" y="6" width="1" height="1" fill="#ffefca"/>
  <rect x="18" y="6" width="1" height="1" fill="#ffecbb"/>
  <rect x="19" y="6" width="1" height="1" fill="#a15823"/>
  <rect x="20" y="6" width="1" height="1" fill="#c2501e97"/>
  <rect x="23" y="6" width="1" height="1" fill="#c94e1697"/>
  <rect x="24" y="6" width="1" height="1" fill="#ab5915"/>
  <rect x="25" y="6" width="1" height="1" fill="#ffd898"/>
  <rect x="26" y="6" width="1" height="1" fill="#ffd3a2"/>
  <rect x="27" y="6" width="1" height="1" fill="#ffd5ab"/>
  <rect x="28" y="6" width="1" height="1" fill="#ffe0b2"/>
  <rect x="29" y="6" width="1" height="1" fill="#ffd1a3"/>
  <rect x="30" y="6" width="1" height="1" fill="#bd5524"/>
  <rect x="31" y="6" width="1" height="1" fill="#b7511697"/>
  <rect x="34" y="6" width="1" height="1" fill="#73812f97"/>
  <rect x="35" y="6" width="1" height="1" fill="#658135"/>
  <rect x="36" y="6" width="1" height="2" fill="#e5ffc2"/>
  <rect x="37" y="6" width="1" height="1" fill="#e7ffcd"/>
  <rect x="38" y="6" width="1" height="1" fill="#e5ffd0"/>
  <rect x="39" y="6" width="1" height="1" fill="#e9ffd0"/>
  <rect x="40" y="6" width="1" height="1" fill="#ebffc8"/>
  <rect x="41" y="6" width="1" height="1" fill="#698038"/>
  <rect x="42" y="6" width="1" height="1" fill="#657f2797"/>
  <rect x="0" y="7" width="1" height="1" fill="#6b852f97"/>
  <rect x="1" y="7" width="1" height="1" fill="#657d31"/>
  <rect x="2" y="7" width="1" height="1" fill="#e6fac1"/>
  <rect x="3" y="7" width="1" height="1" fill="#e8fdc3"/>
  <rect x="4" y="7" width="1" height="1" fill="#e6fdb5"/>
  <rect x="5" y="7" width="1" height="1" fill="#677d38"/>
  <rect x="6" y="7" width="1" height="1" fill="#dff2c0"/>
  <rect x="7" y="7" width="1" height="1" fill="#edffce"/>
  <rect x="8" y="7" width="1" height="1" fill="#e0feb2"/>
  <rect x="9" y="7" width="1" height="1" fill="#748132"/>
  <rect x="10" y="7" width="1" height="1" fill="#8b6a2897"/>
  <rect x="11" y="7" width="1" height="1" fill="#92561897"/>
  <rect x="12" y="7" width="1" height="1" fill="#9f5517"/>
  <rect x="13" y="7" width="1" height="1" fill="#ffebb5"/>
  <rect x="14" y="7" width="1" height="1" fill="#ffedc4"/>
  <rect x="15" y="7" width="1" height="1" fill="#ffe0bf"/>
  <rect x="16" y="7" width="1" height="1" fill="#a46039"/>
  <rect x="17" y="7" width="1" height="1" fill="#ffe8be"/>
  <rect x="18" y="7" width="1" height="1" fill="#fff1c2"/>
  <rect x="19" y="7" width="1" height="1" fill="#ffe6b6"/>
  <rect x="20" y="7" width="1" height="1" fill="#ba4f21"/>
  <rect x="21" y="7" width="1" height="1" fill="#c7471797"/>
  <rect x="22" y="7" width="1" height="1" fill="#c9461397"/>
  <rect x="23" y="7" width="1" height="1" fill="#bf4f17"/>
  <rect x="24" y="7" width="1" height="1" fill="#ffd696"/>
  <rect x="25" y="7" width="1" height="1" fill="#ffdfa0"/>
  <rect x="26" y="7" width="1" height="1" fill="#ffd5a5"/>
  <rect x="27" y="7" width="1" height="1" fill="#9f572b"/>
  <rect x="28" y="7" width="1" height="1" fill="#ffdcae"/>
  <rect x="29" y="7" width="1" height="1" fill="#ffdeae"/>
  <rect x="30" y="7" width="1" height="1" fill="#ffd8a2"/>
  <rect x="31" y="7" width="1" height="1" fill="#ae5214"/>
  <rect x="32" y="7" width="1" height="1" fill="#a1601697"/>
  <rect x="33" y="7" width="1" height="1" fill="#8e702197"/>
  <rect x="34" y="7" width="1" height="1" fill="#717c2b"/>
  <rect x="35" y="7" width="1" height="1" fill="#e5ffb8"/>
  <rect x="37" y="7" width="1" height="1" fill="#e4ffc5"/>
  <rect x="38" y="7" width="1" height="1" fill="#617b40"/>
  <rect x="39" y="7" width="1" height="1" fill="#e7ffc3"/>
  <rect x="40" y="7" width="1" height="1" fill="#e9ffc4"/>
  <rect x="41" y="7" width="1" height="1" fill="#e9ffbb"/>
  <rect x="42" y="7" width="1" height="1" fill="#67802a"/>
  <rect x="43" y="7" width="1" height="1" fill="#67812497"/>
  <rect x="0" y="8" width="1" height="1" fill="#6b882a"/>
  <rect x="1" y="8" width="1" height="1" fill="#e4ffa9"/>
  <rect x="2" y="8" width="1" height="1" fill="#e6ffb7"/>
  <rect x="3" y="8" width="1" height="1" fill="#dff9ae"/>
  <rect x="4" y="8" width="1" height="1" fill="#648027"/>
  <rect x="5" y="8" width="1" height="1" fill="#637f2697"/>
  <rect x="6" y="8" width="1" height="1" fill="#678234"/>
  <rect x="7" y="8" width="1" height="1" fill="#dff9b0"/>
  <rect x="8" y="8" width="1" height="1" fill="#e6ffb7"/>
  <rect x="9" y="8" width="1" height="1" fill="#f4feb4"/>
  <rect x="10" y="8" width="1" height="1" fill="#876722"/>
  <rect x="11" y="8" width="1" height="1" fill="#935918"/>
  <rect x="12" y="8" width="1" height="1" fill="#ffefb7"/>
  <rect x="13" y="8" width="1" height="1" fill="#ffeab5"/>
  <rect x="14" y="8" width="1" height="1" fill="#ffe3ae"/>
  <rect x="15" y="8" width="1" height="1" fill="#b15822"/>
  <rect x="16" y="8" width="1" height="1" fill="#b94b1897"/>
  <rect x="17" y="8" width="1" height="1" fill="#ba501d"/>
  <rect x="18" y="8" width="1" height="1" fill="#ffe2b1"/>
  <rect x="19" y="8" width="1" height="1" fill="#ffe3b1"/>
  <rect x="20" y="8" width="1" height="1" fill="#ffd7a2"/>
  <rect x="21" y="8" width="2" height="1" fill="#bf4f17"/>
  <rect x="23" y="8" width="1" height="1" fill="#ffd79e"/>
  <rect x="24" y="8" width="1" height="1" fill="#ffdda4"/>
  <rect x="25" y="8" width="1" height="1" fill="#ffd8a3"/>
  <rect x="26" y="8" width="1" height="1" fill="#b84c1c"/>
  <rect x="27" y="8" width="1" height="1" fill="#bb4a1c97"/>
  <rect x="28" y="8" width="1" height="1" fill="#b65924"/>
  <rect x="29" y="8" width="1" height="1" fill="#ffd9a4"/>
  <rect x="30" y="8" width="1" height="1" fill="#ffdda7"/>
  <rect x="31" y="8" width="1" height="1" fill="#ffdea3"/>
  <rect x="32" y="8" width="1" height="1" fill="#9a5c16"/>
  <rect x="33" y="8" width="1" height="1" fill="#88691d"/>
  <rect x="34" y="8" width="1" height="1" fill="#eefaad"/>
  <rect x="35" y="8" width="1" height="1" fill="#e0ffb2"/>
  <rect x="36" y="8" width="1" height="1" fill="#e0ffae"/>
  <rect x="37" y="8" width="1" height="1" fill="#5f7c2b"/>
  <rect x="38" y="8" width="1" height="1" fill="#647d2c97"/>
  <rect x="39" y="8" width="1" height="1" fill="#688031"/>
  <rect x="40" y="8" width="1" height="1" fill="#e0fbae"/>
  <rect x="41" y="8" width="1" height="1" fill="#e9ffb6"/>
  <rect x="42" y="8" width="1" height="1" fill="#e0fca7"/>
  <rect x="43" y="8" width="1" height="1" fill="#637e28"/>
  <rect x="0" y="9" width="1" height="1" fill="#64812197"/>
  <rect x="1" y="9" width="1" height="1" fill="#698529"/>
  <rect x="2" y="9" width="1" height="1" fill="#647e2f"/>
  <rect x="3" y="9" width="1" height="1" fill="#6b8634"/>
  <rect x="4" y="9" width="1" height="1" fill="#64821f97"/>
  <rect x="6" y="9" width="1" height="1" fill="#607d2397"/>
  <rect x="7" y="9" width="1" height="1" fill="#607b2b"/>
  <rect x="8" y="9" width="1" height="1" fill="#627e35"/>
  <rect x="9" y="9" width="1" height="1" fill="#7b823b"/>
  <rect x="10" y="9" width="1" height="1" fill="#96772f97"/>
  <rect x="11" y="9" width="1" height="1" fill="#955b1b97"/>
  <rect x="12" y="9" width="1" height="1" fill="#a5602a"/>
  <rect x="13" y="9" width="1" height="1" fill="#ab5825"/>
  <rect x="14" y="9" width="1" height="1" fill="#bb5a1d"/>
  <rect x="15" y="9" width="1" height="1" fill="#be4d0f97"/>
  <rect x="17" y="9" width="1" height="1" fill="#ca4f1997"/>
  <rect x="18" y="9" width="1" height="1" fill="#ac5221"/>
  <rect x="19" y="9" width="1" height="1" fill="#aa5725"/>
  <rect x="20" y="9" width="1" height="1" fill="#b5531b"/>
  <rect x="21" y="9" width="1" height="1" fill="#bb531897"/>
  <rect x="22" y="9" width="1" height="1" fill="#b9531897"/>
  <rect x="23" y="9" width="1" height="1" fill="#b5531b"/>
  <rect x="24" y="9" width="1" height="1" fill="#b05925"/>
  <rect x="25" y="9" width="1" height="1" fill="#b75625"/>
  <rect x="26" y="9" width="1" height="1" fill="#ca4c1e97"/>
  <rect x="28" y="9" width="1" height="1" fill="#c6521c97"/>
  <rect x="29" y="9" width="1" height="1" fill="#b9551e"/>
  <rect x="30" y="9" width="1" height="1" fill="#a6561f"/>
  <rect x="31" y="9" width="1" height="1" fill="#9f5b22"/>
  <rect x="32" y="9" width="1" height="1" fill="#9e622097"/>
  <rect x="33" y="9" width="1" height="1" fill="#8d6e2497"/>
  <rect x="34" y="9" width="1" height="1" fill="#6d7a2d"/>
  <rect x="35" y="9" width="1" height="1" fill="#5e802e"/>
  <rect x="36" y="9" width="1" height="1" fill="#67872f"/>
  <rect x="37" y="9" width="1" height="1" fill="#65822697"/>
  <rect x="39" y="9" width="1" height="1" fill="#68822797"/>
  <rect x="40" y="9" width="1" height="1" fill="#647f2b"/>
  <rect x="41" y="9" width="2" height="1" fill="#65822f"/>
  <rect x="43" y="9" width="1" height="1" fill="#63812e97"/>
</svg>