<svg xmlns="http://www.w3.org/2000/svg" width="392" height="26" viewBox="0 0 392 26" shape-rendering="crispEdges">
  <rect x="0" y="0" width="17" height="3" fill="#a6d2e733"/>
  <rect x="17" y="0" width="13" height="2" fill="#a6d2e732"/>
  <rect x="30" y="0" width="11" height="2" fill="#a6d2e731"/>
  <rect x="41" y="0" width="11" height="1" fill="#a6d2e730"/>
  <rect x="52" y="0" width="9" height="1" fill="#a6d2e72f"/>
  <rect x="61" y="0" width="8" height="1" fill="#a6d2e72e"/>
  <rect x="69" y="0" width="9" height="1" fill="#a6d2e72d"/>
  <rect x="78" y="0" width="8" height="1" fill="#a6d2e72c"/>
  <rect x="86" y="0" width="8" height="1" fill="#a6d2e72b"/>
  <rect x="94" y="0" width="7" height="1" fill="#a6d2e72a"/>
  <rect x="101" y="0" width="7" height="1" fill="#a6d2e729"/>
  <rect x="108" y="0" width="7" height="1" fill="#a6d2e728"/>
  <rect x="115" y="0" width="6" height="2" fill="#a6d2e727"/>
  <rect x="121" y="0" width="8" height="1" fill="#a6d2e726"/>
  <rect x="129" y="0" width="6" height="1" fill="#a6d2e725"/>
  <rect x="135" y="0" width="7" height="4" fill="#a6d2e724"/>
  <rect x="142" y="0" width="6" height="4" fill="#a6d2e723"/>
  <rect x="148" y="0" width="6" height="1" fill="#a6d2e722"/>
  <rect x="154" y="0" width="7" height="1" fill="#a6d2e721"/>
  <rect x="161" y="0" width="6" height="1" fill="#a6d2e720"/>
  <rect x="167" y="0" width="6" height="1" fill="#a6d2e71f"/>
  <rect x="173" y="0" width="6" height="1" fill="#a6d2e71e"/>
  <rect x="179" y="0" width="6" height="3" fill="#a6d2e71d"/>
  <rect x="185" y="0" width="6" height="2" fill="#a6d2e71c"/>
  <rect x="191" y="0" width="6" height="2" fill="#a6d2e71b"/>
  <rect x="197" y="0" width="7" height="3" fill="#a6d2e71a"/>
  <rect x="204" y="0" width="6" height="1" fill="#a6d2e719"/>
  <rect x="210" y="0" width="6" height="1" fill="#a6d2e718"/>
  <rect x="216" y="0" width="6" height="1" fill="#a6d2e717"/>
  <rect x="222" y="0" width="6" height="6" fill="#a6d2e716"/>
  <rect x="228" y="0" width="5" height="1" fill="#a6d2e715"/>
  <rect x="233" y="0" width="8" height="1" fill="#a6d2e714"/>
  <rect x="241" y="0" width="5" height="1" fill="#a6d2e713"/>
  <rect x="246" y="0" width="7" height="1" fill="#a6d2e712"/>
  <rect x="253" y="0" width="6" height="1" fill="#a6d2e711"/>
  <rect x="259" y="0" width="6" height="2" fill="#a6d2e710"/>
  <rect x="265" y="0" width="6" height="1" fill="#a6d2e70f"/>
  <rect x="271" y="0" width="7" height="1" fill="#a6d2e70e"/>
  <rect x="278" y="0" width="7" height="1" fill="#a6d2e70d"/>
  <rect x="285" y="0" width="7" height="1" fill="#a6d2e70c"/>
  <rect x="292" y="0" width="7" height="1" fill="#a6d2e70b"/>
  <rect x="299" y="0" width="8" height="1" fill="#a6d2e70a"/>
  <rect x="41" y="1" width="10" height="2" fill="#a6d2e730"/>
  <rect x="51" y="1" width="10" height="4" fill="#a6d2e72f"/>
  <rect x="61" y="1" width="9" height="1" fill="#a6d2e72e"/>
  <rect x="70" y="1" width="7" height="1" fill="#a6d2e72d"/>
  <rect x="77" y="1" width="9" height="2" fill="#a6d2e72c"/>
  <rect x="86" y="1" width="7" height="2" fill="#a6d2e72b"/>
  <rect x="93" y="1" width="8" height="2" fill="#a6d2e72a"/>
  <rect x="101" y="1" width="8" height="1" fill="#a6d2e729"/>
  <rect x="109" y="1" width="6" height="1" fill="#a6d2e728"/>
  <rect x="121" y="1" width="7" height="1" fill="#a6d2e726"/>
  <rect x="128" y="1" width="7" height="1" fill="#a6d2e725"/>
  <rect x="148" y="1" width="7" height="1" fill="#a6d2e722"/>
  <rect x="155" y="1" width="5" height="1" fill="#a6d2e721"/>
  <rect x="160" y="1" width="7" height="1" fill="#a6d2e720"/>
  <rect x="167" y="1" width="7" height="2" fill="#a6d2e71f"/>
  <rect x="174" y="1" width="5" height="2" fill="#a6d2e71e"/>
  <rect x="204" y="1" width="5" height="1" fill="#a6d2e719"/>
  <rect x="209" y="1" width="6" height="1" fill="#a6d2e718"/>
  <rect x="215" y="1" width="7" height="2" fill="#a6d2e717"/>
  <rect x="228" y="1" width="6" height="5" fill="#a6d2e715"/>
  <rect x="234" y="1" width="6" height="5" fill="#a6d2e714"/>
  <rect x="240" y="1" width="6" height="5" fill="#a6d2e713"/>
  <rect x="246" y="1" width="6" height="1" fill="#a6d2e712"/>
  <rect x="252" y="1" width="7" height="1" fill="#a6d2e711"/>
  <rect x="265" y="1" width="7" height="1" fill="#a6d2e70f"/>
  <rect x="272" y="1" width="7" height="1" fill="#a6d2e70e"/>
  <rect x="279" y="1" width="6" height="1" fill="#a6d2e70d"/>
  <rect x="285" y="1" width="8" height="1" fill="#a6d2e70c"/>
  <rect x="293" y="1" width="6" height="1" fill="#a6d2e70b"/>
  <rect x="299" y="1" width="7" height="1" fill="#a6d2e70a"/>
  <rect x="17" y="2" width="14" height="1" fill="#a6d2e732"/>
  <rect x="31" y="2" width="10" height="1" fill="#a6d2e731"/>
  <rect x="61" y="2" width="8" height="2" fill="#a6d2e72e"/>
  <rect x="69" y="2" width="8" height="1" fill="#a6d2e72d"/>
  <rect x="101" y="2" width="7" height="1" fill="#a6d2e729"/>
  <rect x="108" y="2" width="7" height="2" fill="#a6d2e728"/>
  <rect x="115" y="2" width="7" height="3" fill="#a6d2e727"/>
  <rect x="122" y="2" width="7" height="3" fill="#a6d2e726"/>
  <rect x="129" y="2" width="6" height="3" fill="#a6d2e725"/>
  <rect x="148" y="2" width="6" height="1" fill="#a6d2e722"/>
  <rect x="154" y="2" width="7" height="1" fill="#a6d2e721"/>
  <rect x="161" y="2" width="6" height="2" fill="#a6d2e720"/>
  <rect x="185" y="2" width="7" height="1" fill="#a6d2e71c"/>
  <rect x="192" y="2" width="5" height="1" fill="#a6d2e71b"/>
  <rect x="204" y="2" width="6" height="1" fill="#a6d2e719"/>
  <rect x="210" y="2" width="5" height="1" fill="#a6d2e718"/>
  <rect x="246" y="2" width="7" height="1" fill="#a6d2e712"/>
  <rect x="253" y="2" width="5" height="1" fill="#a6d2e711"/>
  <rect x="258" y="2" width="8" height="1" fill="#a6d2e710"/>
  <rect x="266" y="2" width="6" height="2" fill="#a6d2e70f"/>
  <rect x="272" y="2" width="6" height="1" fill="#a6d2e70e"/>
  <rect x="278" y="2" width="7" height="1" fill="#a6d2e70d"/>
  <rect x="285" y="2" width="7" height="2" fill="#a6d2e70c"/>
  <rect x="292" y="2" width="8" height="1" fill="#a6d2e70b"/>
  <rect x="300" y="2" width="6" height="1" fill="#a6d2e70a"/>
  <rect x="0" y="3" width="18" height="2" fill="#a6d2e733"/>
  <rect x="18" y="3" width="12" height="2" fill="#a6d2e732"/>
  <rect x="30" y="3" width="10" height="1" fill="#a6d2e731"/>
  <rect x="40" y="3" width="11" height="1" fill="#a6d2e730"/>
  <rect x="69" y="3" width="9" height="1" fill="#a6d2e72d"/>
  <rect x="78" y="3" width="7" height="1" fill="#a6d2e72c"/>
  <rect x="85" y="3" width="8" height="1" fill="#a6d2e72b"/>
  <rect x="93" y="3" width="7" height="1" fill="#a6d2e72a"/>
  <rect x="100" y="3" width="8" height="1" fill="#a6d2e729"/>
  <rect x="148" y="3" width="7" height="2" fill="#a6d2e722"/>
  <rect x="155" y="3" width="6" height="1" fill="#a6d2e721"/>
  <rect x="167" y="3" width="6" height="1" fill="#a6d2e71f"/>
  <rect x="173" y="3" width="6" height="1" fill="#a6d2e71e"/>
  <rect x="179" y="3" width="7" height="2" fill="#a6d2e71d"/>
  <rect x="186" y="3" width="6" height="2" fill="#a6d2e71c"/>
  <rect x="192" y="3" width="6" height="1" fill="#a6d2e71b"/>
  <rect x="198" y="3" width="5" height="1" fill="#a6d2e71a"/>
  <rect x="203" y="3" width="7" height="1" fill="#a6d2e719"/>
  <rect x="210" y="3" width="6" height="1" fill="#a6d2e718"/>
  <rect x="216" y="3" width="6" height="3" fill="#a6d2e717"/>
  <rect x="246" y="3" width="6" height="3" fill="#a6d2e712"/>
  <rect x="252" y="3" width="7" height="3" fill="#a6d2e711"/>
  <rect x="259" y="3" width="7" height="1" fill="#a6d2e710"/>
  <rect x="272" y="3" width="7" height="1" fill="#a6d2e70e"/>
  <rect x="279" y="3" width="6" height="1" fill="#a6d2e70d"/>
  <rect x="292" y="3" width="7" height="3" fill="#a6d2e70b"/>
  <rect x="299" y="3" width="7" height="2" fill="#a6d2e70a"/>
  <rect x="30" y="4" width="12" height="1" fill="#a6d2e731"/>
  <rect x="42" y="4" width="9" height="1" fill="#a6d2e730"/>
  <rect x="61" y="4" width="9" height="1" fill="#a6d2e72e"/>
  <rect x="70" y="4" width="8" height="2" fill="#a6d2e72d"/>
  <rect x="78" y="4" width="8" height="1" fill="#a6d2e72c"/>
  <rect x="86" y="4" width="8" height="1" fill="#a6d2e72b"/>
  <rect x="94" y="4" width="7" height="3" fill="#a6d2e72a"/>
  <rect x="101" y="4" width="8" height="1" fill="#a6d2e729"/>
  <rect x="109" y="4" width="6" height="1" fill="#a6d2e728"/>
  <rect x="135" y="4" width="6" height="1" fill="#a6d2e724"/>
  <rect x="141" y="4" width="7" height="1" fill="#a6d2e723"/>
  <rect x="155" y="4" width="5" height="1" fill="#a6d2e721"/>
  <rect x="160" y="4" width="7" height="5" fill="#a6d2e720"/>
  <rect x="167" y="4" width="7" height="1" fill="#a6d2e71f"/>
  <rect x="174" y="4" width="5" height="1" fill="#a6d2e71e"/>
  <rect x="192" y="4" width="5" height="1" fill="#a6d2e71b"/>
  <rect x="197" y="4" width="7" height="1" fill="#a6d2e71a"/>
  <rect x="204" y="4" width="5" height="1" fill="#a6d2e719"/>
  <rect x="209" y="4" width="7" height="2" fill="#a6d2e718"/>
  <rect x="259" y="4" width="6" height="4" fill="#a6d2e710"/>
  <rect x="265" y="4" width="7" height="3" fill="#a6d2e70f"/>
  <rect x="272" y="4" width="6" height="3" fill="#a6d2e70e"/>
  <rect x="278" y="4" width="6" height="1" fill="#a6d2e70d"/>
  <rect x="284" y="4" width="8" height="1" fill="#a6d2e70c"/>
  <rect x="0" y="5" width="17" height="2" fill="#a6d2e733"/>
  <rect x="17" y="5" width="13" height="2" fill="#a6d2e732"/>
  <rect x="30" y="5" width="11" height="2" fill="#a6d2e731"/>
  <rect x="41" y="5" width="11" height="1" fill="#a6d2e730"/>
  <rect x="52" y="5" width="8" height="1" fill="#a6d2e72f"/>
  <rect x="60" y="5" width="10" height="1" fill="#a6d2e72e"/>
  <rect x="78" y="5" width="7" height="2" fill="#a6d2e72c"/>
  <rect x="85" y="5" width="9" height="2" fill="#a6d2e72b"/>
  <rect x="101" y="5" width="6" height="1" fill="#a6d2e729"/>
  <rect x="107" y="5" width="9" height="1" fill="#a6d2e728"/>
  <rect x="116" y="5" width="5" height="1" fill="#a6d2e727"/>
  <rect x="121" y="5" width="7" height="1" fill="#a6d2e726"/>
  <rect x="128" y="5" width="7" height="1" fill="#a6d2e725"/>
  <rect x="135" y="5" width="7" height="2" fill="#a6d2e724"/>
  <rect x="142" y="5" width="6" height="2" fill="#a6d2e723"/>
  <rect x="148" y="5" width="6" height="2" fill="#a6d2e722"/>
  <rect x="154" y="5" width="6" height="2" fill="#a6d2e721"/>
  <rect x="167" y="5" width="6" height="17" fill="#a6d2e71f"/>
  <rect x="173" y="5" width="6" height="2" fill="#a6d2e71e"/>
  <rect x="179" y="5" width="6" height="2" fill="#a6d2e71d"/>
  <rect x="185" y="5" width="6" height="4" fill="#a6d2e71c"/>
  <rect x="191" y="5" width="7" height="1" fill="#a6d2e71b"/>
  <rect x="198" y="5" width="5" height="1" fill="#a6d2e71a"/>
  <rect x="203" y="5" width="6" height="1" fill="#a6d2e719"/>
  <rect x="278" y="5" width="7" height="1" fill="#a6d2e70d"/>
  <rect x="285" y="5" width="7" height="1" fill="#a6d2e70c"/>
  <rect x="299" y="5" width="8" height="2" fill="#a6d2e70a"/>
  <rect x="41" y="6" width="10" height="1" fill="#a6d2e730"/>
  <rect x="51" y="6" width="9" height="1" fill="#a6d2e72f"/>
  <rect x="60" y="6" width="9" height="1" fill="#a6d2e72e"/>
  <rect x="69" y="6" width="9" height="2" fill="#a6d2e72d"/>
  <rect x="101" y="6" width="7" height="1" fill="#a6d2e729"/>
  <rect x="108" y="6" width="7" height="2" fill="#a6d2e728"/>
  <rect x="115" y="6" width="7" height="2" fill="#a6d2e727"/>
  <rect x="122" y="6" width="7" height="1" fill="#a6d2e726"/>
  <rect x="129" y="6" width="6" height="1" fill="#a6d2e725"/>
  <rect x="191" y="6" width="6" height="1" fill="#a6d2e71b"/>
  <rect x="197" y="6" width="7" height="1" fill="#a6d2e71a"/>
  <rect x="204" y="6" width="6" height="1" fill="#a6d2e719"/>
  <rect x="210" y="6" width="6" height="2" fill="#a6d2e718"/>
  <rect x="216" y="6" width="5" height="2" fill="#a6d2e717"/>
  <rect x="221" y="6" width="7" height="2" fill="#a6d2e716"/>
  <rect x="228" y="6" width="5" height="1" fill="#a6d2e715"/>
  <rect x="233" y="6" width="8" height="1" fill="#a6d2e714"/>
  <rect x="241" y="6" width="6" height="1" fill="#a6d2e713"/>
  <rect x="247" y="6" width="6" height="2" fill="#a6d2e712"/>
  <rect x="253" y="6" width="6" height="2" fill="#a6d2e711"/>
  <rect x="278" y="6" width="8" height="1" fill="#a6d2e70d"/>
  <rect x="286" y="6" width="5" height="1" fill="#a6d2e70c"/>
  <rect x="291" y="6" width="8" height="1" fill="#a6d2e70b"/>
  <rect x="0" y="7" width="19" height="1" fill="#a6d2e733"/>
  <rect x="19" y="7" width="11" height="1" fill="#a6d2e732"/>
  <rect x="30" y="7" width="12" height="1" fill="#a6d2e731"/>
  <rect x="42" y="7" width="9" height="4" fill="#a6d2e730"/>
  <rect x="51" y="7" width="10" height="2" fill="#a6d2e72f"/>
  <rect x="61" y="7" width="8" height="1" fill="#a6d2e72e"/>
  <rect x="78" y="7" width="8" height="2" fill="#a6d2e72c"/>
  <rect x="86" y="7" width="8" height="2" fill="#a6d2e72b"/>
  <rect x="94" y="7" width="6" height="1" fill="#a6d2e72a"/>
  <rect x="100" y="7" width="8" height="1" fill="#a6d2e729"/>
  <rect x="122" y="7" width="6" height="1" fill="#a6d2e726"/>
  <rect x="128" y="7" width="7" height="1" fill="#a6d2e725"/>
  <rect x="135" y="7" width="6" height="1" fill="#a6d2e724"/>
  <rect x="141" y="7" width="7" height="1" fill="#a6d2e723"/>
  <rect x="148" y="7" width="7" height="1" fill="#a6d2e722"/>
  <rect x="155" y="7" width="5" height="2" fill="#a6d2e721"/>
  <rect x="173" y="7" width="7" height="1" fill="#a6d2e71e"/>
  <rect x="180" y="7" width="5" height="1" fill="#a6d2e71d"/>
  <rect x="191" y="7" width="7" height="1" fill="#a6d2e71b"/>
  <rect x="198" y="7" width="5" height="1" fill="#a6d2e71a"/>
  <rect x="203" y="7" width="7" height="2" fill="#a6d2e719"/>
  <rect x="228" y="7" width="6" height="1" fill="#a6d2e715"/>
  <rect x="234" y="7" width="6" height="1" fill="#a6d2e714"/>
  <rect x="240" y="7" width="7" height="1" fill="#a6d2e713"/>
  <rect x="265" y="7" width="6" height="1" fill="#a6d2e70f"/>
  <rect x="271" y="7" width="8" height="1" fill="#a6d2e70e"/>
  <rect x="279" y="7" width="6" height="2" fill="#a6d2e70d"/>
  <rect x="285" y="7" width="7" height="6" fill="#a6d2e70c"/>
  <rect x="292" y="7" width="6" height="1" fill="#a6d2e70b"/>
  <rect x="298" y="7" width="9" height="1" fill="#a6d2e70a"/>
  <rect x="0" y="8" width="17" height="1" fill="#a6d2e733"/>
  <rect x="17" y="8" width="14" height="1" fill="#a6d2e732"/>
  <rect x="31" y="8" width="11" height="1" fill="#a6d2e731"/>
  <rect x="61" y="8" width="9" height="1" fill="#a6d2e72e"/>
  <rect x="70" y="8" width="8" height="1" fill="#a6d2e72d"/>
  <rect x="94" y="8" width="7" height="1" fill="#a6d2e72a"/>
  <rect x="101" y="8" width="7" height="1" fill="#a6d2e729"/>
  <rect x="108" y="8" width="8" height="2" fill="#a6d2e728"/>
  <rect x="116" y="8" width="5" height="1" fill="#a6d2e727"/>
  <rect x="121" y="8" width="8" height="1" fill="#a6d2e726"/>
  <rect x="129" y="8" width="7" height="1" fill="#a6d2e725"/>
  <rect x="136" y="8" width="6" height="1" fill="#a6d2e724"/>
  <rect x="142" y="8" width="7" height="1" fill="#a6d2e723"/>
  <rect x="149" y="8" width="6" height="1" fill="#a6d2e722"/>
  <rect x="173" y="8" width="6" height="6" fill="#a6d2e71e"/>
  <rect x="179" y="8" width="6" height="2" fill="#a6d2e71d"/>
  <rect x="191" y="8" width="6" height="1" fill="#a6d2e71b"/>
  <rect x="197" y="8" width="6" height="1" fill="#a6d2e71a"/>
  <rect x="210" y="8" width="5" height="1" fill="#a6d2e718"/>
  <rect x="215" y="8" width="7" height="3" fill="#a6d2e717"/>
  <rect x="222" y="8" width="5" height="1" fill="#a6d2e716"/>
  <rect x="227" y="8" width="6" height="1" fill="#a6d2e715"/>
  <rect x="233" y="8" width="7" height="2" fill="#a6d2e714"/>
  <rect x="240" y="8" width="6" height="5" fill="#a6d2e713"/>
  <rect x="246" y="8" width="7" height="3" fill="#a6d2e712"/>
  <rect x="253" y="8" width="5" height="1" fill="#a6d2e711"/>
  <rect x="258" y="8" width="7" height="1" fill="#a6d2e710"/>
  <rect x="265" y="8" width="7" height="1" fill="#a6d2e70f"/>
  <rect x="272" y="8" width="7" height="1" fill="#a6d2e70e"/>
  <rect x="292" y="8" width="7" height="1" fill="#a6d2e70b"/>
  <rect x="299" y="8" width="8" height="1" fill="#a6d2e70a"/>
  <rect x="0" y="9" width="18" height="1" fill="#a6d2e733"/>
  <rect x="18" y="9" width="12" height="1" fill="#a6d2e732"/>
  <rect x="30" y="9" width="12" height="2" fill="#a6d2e731"/>
  <rect x="51" y="9" width="11" height="1" fill="#a6d2e72f"/>
  <rect x="62" y="9" width="7" height="1" fill="#a6d2e72e"/>
  <rect x="69" y="9" width="8" height="1" fill="#a6d2e72d"/>
  <rect x="77" y="9" width="8" height="1" fill="#a6d2e72c"/>
  <rect x="85" y="9" width="9" height="2" fill="#a6d2e72b"/>
  <rect x="94" y="9" width="6" height="1" fill="#a6d2e72a"/>
  <rect x="100" y="9" width="8" height="1" fill="#a6d2e729"/>
  <rect x="116" y="9" width="6" height="1" fill="#a6d2e727"/>
  <rect x="122" y="9" width="7" height="4" fill="#a6d2e726"/>
  <rect x="129" y="9" width="6" height="3" fill="#a6d2e725"/>
  <rect x="135" y="9" width="7" height="2" fill="#a6d2e724"/>
  <rect x="142" y="9" width="6" height="2" fill="#a6d2e723"/>
  <rect x="148" y="9" width="6" height="2" fill="#a6d2e722"/>
  <rect x="154" y="9" width="7" height="3" fill="#a6d2e721"/>
  <rect x="161" y="9" width="6" height="3" fill="#a6d2e720"/>
  <rect x="185" y="9" width="7" height="1" fill="#a6d2e71c"/>
  <rect x="192" y="9" width="6" height="2" fill="#a6d2e71b"/>
  <rect x="198" y="9" width="5" height="2" fill="#a6d2e71a"/>
  <rect x="203" y="9" width="6" height="1" fill="#a6d2e719"/>
  <rect x="209" y="9" width="6" height="1" fill="#a6d2e718"/>
  <rect x="222" y="9" width="6" height="5" fill="#a6d2e716"/>
  <rect x="228" y="9" width="5" height="1" fill="#a6d2e715"/>
  <rect x="253" y="9" width="6" height="2" fill="#a6d2e711"/>
  <rect x="259" y="9" width="7" height="1" fill="#a6d2e710"/>
  <rect x="266" y="9" width="6" height="1" fill="#a6d2e70f"/>
  <rect x="272" y="9" width="6" height="1" fill="#a6d2e70e"/>
  <rect x="278" y="9" width="7" height="1" fill="#a6d2e70d"/>
  <rect x="292" y="9" width="8" height="1" fill="#a6d2e70b"/>
  <rect x="300" y="9" width="7" height="2" fill="#a6d2e70a"/>
  <rect x="0" y="10" width="19" height="1" fill="#a6d2e733"/>
  <rect x="19" y="10" width="11" height="1" fill="#a6d2e732"/>
  <rect x="51" y="10" width="10" height="1" fill="#a6d2e72f"/>
  <rect x="61" y="10" width="9" height="2" fill="#a6d2e72e"/>
  <rect x="70" y="10" width="9" height="1" fill="#a6d2e72d"/>
  <rect x="79" y="10" width="6" height="1" fill="#a6d2e72c"/>
  <rect x="94" y="10" width="7" height="1" fill="#a6d2e72a"/>
  <rect x="101" y="10" width="8" height="1" fill="#a6d2e729"/>
  <rect x="109" y="10" width="6" height="1" fill="#a6d2e728"/>
  <rect x="115" y="10" width="7" height="3" fill="#a6d2e727"/>
  <rect x="179" y="10" width="7" height="1" fill="#a6d2e71d"/>
  <rect x="186" y="10" width="6" height="1" fill="#a6d2e71c"/>
  <rect x="203" y="10" width="7" height="3" fill="#a6d2e719"/>
  <rect x="210" y="10" width="5" height="1" fill="#a6d2e718"/>
  <rect x="228" y="10" width="6" height="1" fill="#a6d2e715"/>
  <rect x="234" y="10" width="6" height="1" fill="#a6d2e714"/>
  <rect x="259" y="10" width="6" height="2" fill="#a6d2e710"/>
  <rect x="265" y="10" width="7" height="2" fill="#a6d2e70f"/>
  <rect x="272" y="10" width="7" height="3" fill="#a6d2e70e"/>
  <rect x="279" y="10" width="6" height="3" fill="#a6d2e70d"/>
  <rect x="292" y="10" width="6" height="1" fill="#a6d2e70b"/>
  <rect x="298" y="10" width="1" height="1" fill="#a6d2e70a"/>
  <rect x="299" y="10" width="1" height="1" fill="#a6d2e70b"/>
  <rect x="0" y="11" width="17" height="1" fill="#a6d2e733"/>
  <rect x="17" y="11" width="12" height="1" fill="#a6d2e732"/>
  <rect x="29" y="11" width="13" height="1" fill="#a6d2e731"/>
  <rect x="42" y="11" width="10" height="1" fill="#a6d2e730"/>
  <rect x="52" y="11" width="9" height="2" fill="#a6d2e72f"/>
  <rect x="70" y="11" width="7" height="1" fill="#a6d2e72d"/>
  <rect x="77" y="11" width="9" height="1" fill="#a6d2e72c"/>
  <rect x="86" y="11" width="7" height="1" fill="#a6d2e72b"/>
  <rect x="93" y="11" width="8" height="1" fill="#a6d2e72a"/>
  <rect x="101" y="11" width="7" height="3" fill="#a6d2e729"/>
  <rect x="108" y="11" width="7" height="2" fill="#a6d2e728"/>
  <rect x="135" y="11" width="6" height="1" fill="#a6d2e724"/>
  <rect x="141" y="11" width="6" height="1" fill="#a6d2e723"/>
  <rect x="147" y="11" width="7" height="1" fill="#a6d2e722"/>
  <rect x="179" y="11" width="6" height="2" fill="#a6d2e71d"/>
  <rect x="185" y="11" width="7" height="2" fill="#a6d2e71c"/>
  <rect x="192" y="11" width="5" height="2" fill="#a6d2e71b"/>
  <rect x="197" y="11" width="6" height="2" fill="#a6d2e71a"/>
  <rect x="210" y="11" width="6" height="1" fill="#a6d2e718"/>
  <rect x="216" y="11" width="6" height="1" fill="#a6d2e717"/>
  <rect x="228" y="11" width="7" height="1" fill="#a6d2e715"/>
  <rect x="235" y="11" width="5" height="1" fill="#a6d2e714"/>
  <rect x="246" y="11" width="6" height="1" fill="#a6d2e712"/>
  <rect x="252" y="11" width="7" height="1" fill="#a6d2e711"/>
  <rect x="292" y="11" width="7" height="2" fill="#a6d2e70b"/>
  <rect x="299" y="11" width="7" height="2" fill="#a6d2e70a"/>
  <rect x="0" y="12" width="18" height="5" fill="#a6d2e733"/>
  <rect x="18" y="12" width="13" height="1" fill="#a6d2e732"/>
  <rect x="31" y="12" width="9" height="1" fill="#a6d2e731"/>
  <rect x="40" y="12" width="12" height="1" fill="#a6d2e730"/>
  <rect x="61" y="12" width="8" height="2" fill="#a6d2e72e"/>
  <rect x="69" y="12" width="8" height="2" fill="#a6d2e72d"/>
  <rect x="77" y="12" width="8" height="1" fill="#a6d2e72c"/>
  <rect x="85" y="12" width="9" height="1" fill="#a6d2e72b"/>
  <rect x="94" y="12" width="7" height="2" fill="#a6d2e72a"/>
  <rect x="129" y="12" width="7" height="1" fill="#a6d2e725"/>
  <rect x="136" y="12" width="6" height="1" fill="#a6d2e724"/>
  <rect x="142" y="12" width="5" height="1" fill="#a6d2e723"/>
  <rect x="147" y="12" width="8" height="1" fill="#a6d2e722"/>
  <rect x="155" y="12" width="5" height="1" fill="#a6d2e721"/>
  <rect x="160" y="12" width="7" height="1" fill="#a6d2e720"/>
  <rect x="210" y="12" width="5" height="1" fill="#a6d2e718"/>
  <rect x="215" y="12" width="7" height="2" fill="#a6d2e717"/>
  <rect x="228" y="12" width="6" height="2" fill="#a6d2e715"/>
  <rect x="234" y="12" width="6" height="3" fill="#a6d2e714"/>
  <rect x="246" y="12" width="7" height="1" fill="#a6d2e712"/>
  <rect x="253" y="12" width="6" height="4" fill="#a6d2e711"/>
  <rect x="259" y="12" width="7" height="1" fill="#a6d2e710"/>
  <rect x="266" y="12" width="6" height="1" fill="#a6d2e70f"/>
  <rect x="18" y="13" width="12" height="1" fill="#a6d2e732"/>
  <rect x="30" y="13" width="10" height="1" fill="#a6d2e731"/>
  <rect x="40" y="13" width="11" height="1" fill="#a6d2e730"/>
  <rect x="51" y="13" width="10" height="1" fill="#a6d2e72f"/>
  <rect x="77" y="13" width="9" height="1" fill="#a6d2e72c"/>
  <rect x="86" y="13" width="8" height="2" fill="#a6d2e72b"/>
  <rect x="108" y="13" width="6" height="1" fill="#a6d2e728"/>
  <rect x="114" y="13" width="7" height="1" fill="#a6d2e727"/>
  <rect x="121" y="13" width="1" height="1" fill="#a6d2e726"/>
  <rect x="122" y="13" width="1" height="1" fill="#a6d2e727"/>
  <rect x="123" y="13" width="5" height="2" fill="#a6d2e726"/>
  <rect x="128" y="13" width="7" height="2" fill="#a6d2e725"/>
  <rect x="135" y="13" width="7" height="2" fill="#a6d2e724"/>
  <rect x="142" y="13" width="6" height="1" fill="#a6d2e723"/>
  <rect x="148" y="13" width="6" height="1" fill="#a6d2e722"/>
  <rect x="154" y="13" width="7" height="2" fill="#a6d2e721"/>
  <rect x="161" y="13" width="6" height="2" fill="#a6d2e720"/>
  <rect x="179" y="13" width="7" height="1" fill="#a6d2e71d"/>
  <rect x="186" y="13" width="5" height="3" fill="#a6d2e71c"/>
  <rect x="191" y="13" width="7" height="1" fill="#a6d2e71b"/>
  <rect x="198" y="13" width="5" height="1" fill="#a6d2e71a"/>
  <rect x="203" y="13" width="6" height="1" fill="#a6d2e719"/>
  <rect x="209" y="13" width="6" height="1" fill="#a6d2e718"/>
  <rect x="240" y="13" width="7" height="2" fill="#a6d2e713"/>
  <rect x="247" y="13" width="6" height="2" fill="#a6d2e712"/>
  <rect x="259" y="13" width="6" height="2" fill="#a6d2e710"/>
  <rect x="265" y="13" width="7" height="2" fill="#a6d2e70f"/>
  <rect x="272" y="13" width="6" height="3" fill="#a6d2e70e"/>
  <rect x="278" y="13" width="8" height="1" fill="#a6d2e70d"/>
  <rect x="286" y="13" width="6" height="1" fill="#a6d2e70c"/>
  <rect x="292" y="13" width="6" height="1" fill="#a6d2e70b"/>
  <rect x="298" y="13" width="9" height="1" fill="#a6d2e70a"/>
  <rect x="18" y="14" width="11" height="1" fill="#a6d2e732"/>
  <rect x="29" y="14" width="1" height="1" fill="#a6d2e731"/>
  <rect x="30" y="14" width="1" height="1" fill="#a6d2e732"/>
  <rect x="31" y="14" width="10" height="1" fill="#a6d2e731"/>
  <rect x="41" y="14" width="10" height="1" fill="#a6d2e730"/>
  <rect x="51" y="14" width="9" height="1" fill="#a6d2e72f"/>
  <rect x="60" y="14" width="9" height="2" fill="#a6d2e72e"/>
  <rect x="69" y="14" width="9" height="2" fill="#a6d2e72d"/>
  <rect x="78" y="14" width="8" height="3" fill="#a6d2e72c"/>
  <rect x="94" y="14" width="6" height="1" fill="#a6d2e72a"/>
  <rect x="100" y="14" width="8" height="1" fill="#a6d2e729"/>
  <rect x="108" y="14" width="7" height="3" fill="#a6d2e728"/>
  <rect x="115" y="14" width="8" height="3" fill="#a6d2e727"/>
  <rect x="142" y="14" width="7" height="1" fill="#a6d2e723"/>
  <rect x="149" y="14" width="5" height="1" fill="#a6d2e722"/>
  <rect x="173" y="14" width="7" height="1" fill="#a6d2e71e"/>
  <rect x="180" y="14" width="6" height="1" fill="#a6d2e71d"/>
  <rect x="191" y="14" width="6" height="1" fill="#a6d2e71b"/>
  <rect x="197" y="14" width="7" height="1" fill="#a6d2e71a"/>
  <rect x="204" y="14" width="6" height="1" fill="#a6d2e719"/>
  <rect x="210" y="14" width="6" height="1" fill="#a6d2e718"/>
  <rect x="216" y="14" width="6" height="1" fill="#a6d2e717"/>
  <rect x="222" y="14" width="5" height="2" fill="#a6d2e716"/>
  <rect x="227" y="14" width="7" height="2" fill="#a6d2e715"/>
  <rect x="278" y="14" width="7" height="3" fill="#a6d2e70d"/>
  <rect x="285" y="14" width="8" height="1" fill="#a6d2e70c"/>
  <rect x="293" y="14" width="6" height="1" fill="#a6d2e70b"/>
  <rect x="299" y="14" width="7" height="1" fill="#a6d2e70a"/>
  <rect x="18" y="15" width="12" height="1" fill="#a6d2e732"/>
  <rect x="30" y="15" width="12" height="1" fill="#a6d2e731"/>
  <rect x="42" y="15" width="10" height="1" fill="#a6d2e730"/>
  <rect x="52" y="15" width="8" height="2" fill="#a6d2e72f"/>
  <rect x="86" y="15" width="7" height="1" fill="#a6d2e72b"/>
  <rect x="93" y="15" width="8" height="1" fill="#a6d2e72a"/>
  <rect x="101" y="15" width="7" height="2" fill="#a6d2e729"/>
  <rect x="123" y="15" width="6" height="1" fill="#a6d2e726"/>
  <rect x="129" y="15" width="6" height="1" fill="#a6d2e725"/>
  <rect x="135" y="15" width="6" height="1" fill="#a6d2e724"/>
  <rect x="141" y="15" width="8" height="1" fill="#a6d2e723"/>
  <rect x="149" y="15" width="6" height="1" fill="#a6d2e722"/>
  <rect x="155" y="15" width="5" height="1" fill="#a6d2e721"/>
  <rect x="160" y="15" width="7" height="3" fill="#a6d2e720"/>
  <rect x="173" y="15" width="6" height="3" fill="#a6d2e71e"/>
  <rect x="179" y="15" width="7" height="1" fill="#a6d2e71d"/>
  <rect x="191" y="15" width="7" height="1" fill="#a6d2e71b"/>
  <rect x="198" y="15" width="6" height="1" fill="#a6d2e71a"/>
  <rect x="204" y="15" width="5" height="2" fill="#a6d2e719"/>
  <rect x="209" y="15" width="6" height="1" fill="#a6d2e718"/>
  <rect x="215" y="15" width="7" height="1" fill="#a6d2e717"/>
  <rect x="234" y="15" width="7" height="1" fill="#a6d2e714"/>
  <rect x="241" y="15" width="5" height="1" fill="#a6d2e713"/>
  <rect x="246" y="15" width="7" height="3" fill="#a6d2e712"/>
  <rect x="259" y="15" width="7" height="1" fill="#a6d2e710"/>
  <rect x="266" y="15" width="6" height="1" fill="#a6d2e70f"/>
  <rect x="285" y="15" width="7" height="2" fill="#a6d2e70c"/>
  <rect x="292" y="15" width="6" height="1" fill="#a6d2e70b"/>
  <rect x="298" y="15" width="9" height="1" fill="#a6d2e70a"/>
  <rect x="18" y="16" width="11" height="1" fill="#a6d2e732"/>
  <rect x="29" y="16" width="12" height="1" fill="#a6d2e731"/>
  <rect x="41" y="16" width="11" height="1" fill="#a6d2e730"/>
  <rect x="60" y="16" width="10" height="1" fill="#a6d2e72e"/>
  <rect x="70" y="16" width="8" height="1" fill="#a6d2e72d"/>
  <rect x="86" y="16" width="8" height="1" fill="#a6d2e72b"/>
  <rect x="94" y="16" width="7" height="1" fill="#a6d2e72a"/>
  <rect x="123" y="16" width="5" height="1" fill="#a6d2e726"/>
  <rect x="128" y="16" width="8" height="1" fill="#a6d2e725"/>
  <rect x="136" y="16" width="6" height="1" fill="#a6d2e724"/>
  <rect x="142" y="16" width="7" height="1" fill="#a6d2e723"/>
  <rect x="149" y="16" width="5" height="1" fill="#a6d2e722"/>
  <rect x="154" y="16" width="6" height="1" fill="#a6d2e721"/>
  <rect x="179" y="16" width="6" height="2" fill="#a6d2e71d"/>
  <rect x="185" y="16" width="6" height="1" fill="#a6d2e71c"/>
  <rect x="191" y="16" width="6" height="1" fill="#a6d2e71b"/>
  <rect x="197" y="16" width="7" height="1" fill="#a6d2e71a"/>
  <rect x="209" y="16" width="7" height="3" fill="#a6d2e718"/>
  <rect x="216" y="16" width="6" height="3" fill="#a6d2e717"/>
  <rect x="222" y="16" width="6" height="3" fill="#a6d2e716"/>
  <rect x="228" y="16" width="6" height="3" fill="#a6d2e715"/>
  <rect x="234" y="16" width="6" height="4" fill="#a6d2e714"/>
  <rect x="240" y="16" width="6" height="2" fill="#a6d2e713"/>
  <rect x="253" y="16" width="5" height="1" fill="#a6d2e711"/>
  <rect x="258" y="16" width="7" height="1" fill="#a6d2e710"/>
  <rect x="265" y="16" width="6" height="1" fill="#a6d2e70f"/>
  <rect x="271" y="16" width="7" height="1" fill="#a6d2e70e"/>
  <rect x="292" y="16" width="7" height="1" fill="#a6d2e70b"/>
  <rect x="299" y="16" width="7" height="1" fill="#a6d2e70a"/>
  <rect x="0" y="17" width="16" height="1" fill="#a6d2e733"/>
  <rect x="16" y="17" width="14" height="1" fill="#a6d2e732"/>
  <rect x="30" y="17" width="11" height="1" fill="#a6d2e731"/>
  <rect x="41" y="17" width="10" height="1" fill="#a6d2e730"/>
  <rect x="51" y="17" width="10" height="2" fill="#a6d2e72f"/>
  <rect x="61" y="17" width="8" height="2" fill="#a6d2e72e"/>
  <rect x="69" y="17" width="9" height="2" fill="#a6d2e72d"/>
  <rect x="78" y="17" width="7" height="2" fill="#a6d2e72c"/>
  <rect x="85" y="17" width="8" height="2" fill="#a6d2e72b"/>
  <rect x="93" y="17" width="7" height="1" fill="#a6d2e72a"/>
  <rect x="100" y="17" width="9" height="1" fill="#a6d2e729"/>
  <rect x="109" y="17" width="5" height="1" fill="#a6d2e728"/>
  <rect x="114" y="17" width="7" height="1" fill="#a6d2e727"/>
  <rect x="121" y="17" width="8" height="1" fill="#a6d2e726"/>
  <rect x="129" y="17" width="6" height="1" fill="#a6d2e725"/>
  <rect x="135" y="17" width="7" height="1" fill="#a6d2e724"/>
  <rect x="142" y="17" width="6" height="2" fill="#a6d2e723"/>
  <rect x="148" y="17" width="7" height="3" fill="#a6d2e722"/>
  <rect x="155" y="17" width="5" height="1" fill="#a6d2e721"/>
  <rect x="185" y="17" width="7" height="1" fill="#a6d2e71c"/>
  <rect x="192" y="17" width="6" height="1" fill="#a6d2e71b"/>
  <rect x="198" y="17" width="5" height="1" fill="#a6d2e71a"/>
  <rect x="203" y="17" width="6" height="1" fill="#a6d2e719"/>
  <rect x="253" y="17" width="6" height="1" fill="#a6d2e711"/>
  <rect x="259" y="17" width="6" height="1" fill="#a6d2e710"/>
  <rect x="265" y="17" width="7" height="1" fill="#a6d2e70f"/>
  <rect x="272" y="17" width="6" height="1" fill="#a6d2e70e"/>
  <rect x="278" y="17" width="8" height="1" fill="#a6d2e70d"/>
  <rect x="286" y="17" width="6" height="1" fill="#a6d2e70c"/>
  <rect x="292" y="17" width="6" height="2" fill="#a6d2e70b"/>
  <rect x="298" y="17" width="8" height="2" fill="#a6d2e70a"/>
  <rect x="0" y="18" width="17" height="1" fill="#a6d2e733"/>
  <rect x="17" y="18" width="1" height="1" fill="#a6d2e732"/>
  <rect x="18" y="18" width="1" height="1" fill="#a6d2e733"/>
  <rect x="19" y="18" width="10" height="1" fill="#a6d2e732"/>
  <rect x="29" y="18" width="1" height="1" fill="#a6d2e731"/>
  <rect x="30" y="18" width="1" height="1" fill="#a6d2e732"/>
  <rect x="31" y="18" width="9" height="1" fill="#a6d2e731"/>
  <rect x="40" y="18" width="11" height="1" fill="#a6d2e730"/>
  <rect x="93" y="18" width="8" height="1" fill="#a6d2e72a"/>
  <rect x="101" y="18" width="7" height="1" fill="#a6d2e729"/>
  <rect x="108" y="18" width="7" height="1" fill="#a6d2e728"/>
  <rect x="115" y="18" width="7" height="1" fill="#a6d2e727"/>
  <rect x="122" y="18" width="6" height="1" fill="#a6d2e726"/>
  <rect x="128" y="18" width="8" height="1" fill="#a6d2e725"/>
  <rect x="136" y="18" width="6" height="1" fill="#a6d2e724"/>
  <rect x="155" y="18" width="6" height="2" fill="#a6d2e721"/>
  <rect x="161" y="18" width="6" height="4" fill="#a6d2e720"/>
  <rect x="173" y="18" width="7" height="2" fill="#a6d2e71e"/>
  <rect x="180" y="18" width="6" height="2" fill="#a6d2e71d"/>
  <rect x="186" y="18" width="5" height="1" fill="#a6d2e71c"/>
  <rect x="191" y="18" width="7" height="1" fill="#a6d2e71b"/>
  <rect x="198" y="18" width="6" height="1" fill="#a6d2e71a"/>
  <rect x="204" y="18" width="5" height="1" fill="#a6d2e719"/>
  <rect x="240" y="18" width="7" height="1" fill="#a6d2e713"/>
  <rect x="247" y="18" width="5" height="1" fill="#a6d2e712"/>
  <rect x="252" y="18" width="6" height="1" fill="#a6d2e711"/>
  <rect x="258" y="18" width="8" height="1" fill="#a6d2e710"/>
  <rect x="266" y="18" width="5" height="1" fill="#a6d2e70f"/>
  <rect x="271" y="18" width="8" height="1" fill="#a6d2e70e"/>
  <rect x="279" y="18" width="5" height="1" fill="#a6d2e70d"/>
  <rect x="284" y="18" width="8" height="1" fill="#a6d2e70c"/>
  <rect x="0" y="19" width="18" height="1" fill="#a6d2e733"/>
  <rect x="18" y="19" width="11" height="1" fill="#a6d2e732"/>
  <rect x="29" y="19" width="13" height="1" fill="#a6d2e731"/>
  <rect x="42" y="19" width="8" height="1" fill="#a6d2e730"/>
  <rect x="50" y="19" width="10" height="1" fill="#a6d2e72f"/>
  <rect x="60" y="19" width="10" height="1" fill="#a6d2e72e"/>
  <rect x="70" y="19" width="8" height="1" fill="#a6d2e72d"/>
  <rect x="78" y="19" width="9" height="1" fill="#a6d2e72c"/>
  <rect x="87" y="19" width="6" height="1" fill="#a6d2e72b"/>
  <rect x="93" y="19" width="7" height="1" fill="#a6d2e72a"/>
  <rect x="100" y="19" width="8" height="1" fill="#a6d2e729"/>
  <rect x="108" y="19" width="8" height="1" fill="#a6d2e728"/>
  <rect x="116" y="19" width="5" height="1" fill="#a6d2e727"/>
  <rect x="121" y="19" width="7" height="1" fill="#a6d2e726"/>
  <rect x="128" y="19" width="7" height="1" fill="#a6d2e725"/>
  <rect x="135" y="19" width="6" height="1" fill="#a6d2e724"/>
  <rect x="141" y="19" width="7" height="1" fill="#a6d2e723"/>
  <rect x="186" y="19" width="6" height="1" fill="#a6d2e71c"/>
  <rect x="192" y="19" width="6" height="1" fill="#a6d2e71b"/>
  <rect x="198" y="19" width="5" height="1" fill="#a6d2e71a"/>
  <rect x="203" y="19" width="7" height="1" fill="#a6d2e719"/>
  <rect x="210" y="19" width="6" height="1" fill="#a6d2e718"/>
  <rect x="216" y="19" width="5" height="1" fill="#a6d2e717"/>
  <rect x="221" y="19" width="6" height="1" fill="#a6d2e716"/>
  <rect x="227" y="19" width="7" height="1" fill="#a6d2e715"/>
  <rect x="240" y="19" width="6" height="3" fill="#a6d2e713"/>
  <rect x="246" y="19" width="7" height="3" fill="#a6d2e712"/>
  <rect x="253" y="19" width="5" height="1" fill="#a6d2e711"/>
  <rect x="258" y="19" width="1" height="1" fill="#a6d2e710"/>
  <rect x="259" y="19" width="1" height="1" fill="#a6d2e711"/>
  <rect x="260" y="19" width="5" height="1" fill="#a6d2e710"/>
  <rect x="265" y="19" width="7" height="6" fill="#a6d2e70f"/>
  <rect x="272" y="19" width="6" height="3" fill="#a6d2e70e"/>
  <rect x="278" y="19" width="7" height="3" fill="#a6d2e70d"/>
  <rect x="285" y="19" width="6" height="1" fill="#a6d2e70c"/>
  <rect x="291" y="19" width="9" height="1" fill="#a6d2e70b"/>
  <rect x="300" y="19" width="6" height="2" fill="#a6d2e70a"/>
  <rect x="0" y="20" width="19" height="1" fill="#a6d2e733"/>
  <rect x="19" y="20" width="10" height="1" fill="#a6d2e732"/>
  <rect x="29" y="20" width="12" height="1" fill="#a6d2e731"/>
  <rect x="41" y="20" width="10" height="1" fill="#a6d2e730"/>
  <rect x="51" y="20" width="9" height="1" fill="#a6d2e72f"/>
  <rect x="60" y="20" width="9" height="2" fill="#a6d2e72e"/>
  <rect x="69" y="20" width="8" height="1" fill="#a6d2e72d"/>
  <rect x="77" y="20" width="10" height="1" fill="#a6d2e72c"/>
  <rect x="87" y="20" width="7" height="1" fill="#a6d2e72b"/>
  <rect x="94" y="20" width="7" height="1" fill="#a6d2e72a"/>
  <rect x="101" y="20" width="8" height="1" fill="#a6d2e729"/>
  <rect x="109" y="20" width="7" height="2" fill="#a6d2e728"/>
  <rect x="116" y="20" width="6" height="2" fill="#a6d2e727"/>
  <rect x="122" y="20" width="7" height="1" fill="#a6d2e726"/>
  <rect x="129" y="20" width="6" height="1" fill="#a6d2e725"/>
  <rect x="135" y="20" width="7" height="2" fill="#a6d2e724"/>
  <rect x="142" y="20" width="6" height="2" fill="#a6d2e723"/>
  <rect x="148" y="20" width="6" height="3" fill="#a6d2e722"/>
  <rect x="154" y="20" width="7" height="2" fill="#a6d2e721"/>
  <rect x="173" y="20" width="6" height="1" fill="#a6d2e71e"/>
  <rect x="179" y="20" width="6" height="1" fill="#a6d2e71d"/>
  <rect x="185" y="20" width="6" height="3" fill="#a6d2e71c"/>
  <rect x="191" y="20" width="7" height="2" fill="#a6d2e71b"/>
  <rect x="198" y="20" width="6" height="2" fill="#a6d2e71a"/>
  <rect x="204" y="20" width="5" height="1" fill="#a6d2e719"/>
  <rect x="209" y="20" width="7" height="1" fill="#a6d2e718"/>
  <rect x="216" y="20" width="6" height="1" fill="#a6d2e717"/>
  <rect x="222" y="20" width="5" height="1" fill="#a6d2e716"/>
  <rect x="227" y="20" width="6" height="1" fill="#a6d2e715"/>
  <rect x="233" y="20" width="7" height="1" fill="#a6d2e714"/>
  <rect x="253" y="20" width="6" height="1" fill="#a6d2e711"/>
  <rect x="259" y="20" width="6" height="1" fill="#a6d2e710"/>
  <rect x="285" y="20" width="7" height="1" fill="#a6d2e70c"/>
  <rect x="292" y="20" width="8" height="1" fill="#a6d2e70b"/>
  <rect x="0" y="21" width="16" height="1" fill="#a6d2e733"/>
  <rect x="16" y="21" width="1" height="1" fill="#a6d2e732"/>
  <rect x="17" y="21" width="1" height="1" fill="#a6d2e733"/>
  <rect x="18" y="21" width="13" height="2" fill="#a6d2e732"/>
  <rect x="31" y="21" width="11" height="1" fill="#a6d2e731"/>
  <rect x="42" y="21" width="10" height="1" fill="#a6d2e730"/>
  <rect x="52" y="21" width="8" height="1" fill="#a6d2e72f"/>
  <rect x="69" y="21" width="9" height="1" fill="#a6d2e72d"/>
  <rect x="78" y="21" width="8" height="1" fill="#a6d2e72c"/>
  <rect x="86" y="21" width="7" height="2" fill="#a6d2e72b"/>
  <rect x="93" y="21" width="7" height="1" fill="#a6d2e72a"/>
  <rect x="100" y="21" width="9" height="1" fill="#a6d2e729"/>
  <rect x="122" y="21" width="6" height="1" fill="#a6d2e726"/>
  <rect x="128" y="21" width="7" height="1" fill="#a6d2e725"/>
  <rect x="173" y="21" width="7" height="1" fill="#a6d2e71e"/>
  <rect x="180" y="21" width="5" height="1" fill="#a6d2e71d"/>
  <rect x="204" y="21" width="6" height="1" fill="#a6d2e719"/>
  <rect x="210" y="21" width="6" height="1" fill="#a6d2e718"/>
  <rect x="216" y="21" width="5" height="3" fill="#a6d2e717"/>
  <rect x="221" y="21" width="7" height="4" fill="#a6d2e716"/>
  <rect x="228" y="21" width="6" height="1" fill="#a6d2e715"/>
  <rect x="234" y="21" width="6" height="1" fill="#a6d2e714"/>
  <rect x="253" y="21" width="7" height="1" fill="#a6d2e711"/>
  <rect x="260" y="21" width="5" height="1" fill="#a6d2e710"/>
  <rect x="285" y="21" width="8" height="1" fill="#a6d2e70c"/>
  <rect x="293" y="21" width="6" height="1" fill="#a6d2e70b"/>
  <rect x="299" y="21" width="7" height="1" fill="#a6d2e70a"/>
  <rect x="0" y="22" width="18" height="1" fill="#a6d2e733"/>
  <rect x="31" y="22" width="10" height="2" fill="#a6d2e731"/>
  <rect x="41" y="22" width="10" height="3" fill="#a6d2e730"/>
  <rect x="51" y="22" width="10" height="3" fill="#a6d2e72f"/>
  <rect x="61" y="22" width="9" height="2" fill="#a6d2e72e"/>
  <rect x="70" y="22" width="7" height="1" fill="#a6d2e72d"/>
  <rect x="77" y="22" width="9" height="1" fill="#a6d2e72c"/>
  <rect x="93" y="22" width="8" height="1" fill="#a6d2e72a"/>
  <rect x="101" y="22" width="7" height="1" fill="#a6d2e729"/>
  <rect x="108" y="22" width="7" height="3" fill="#a6d2e728"/>
  <rect x="115" y="22" width="7" height="3" fill="#a6d2e727"/>
  <rect x="122" y="22" width="7" height="1" fill="#a6d2e726"/>
  <rect x="129" y="22" width="6" height="1" fill="#a6d2e725"/>
  <rect x="135" y="22" width="6" height="2" fill="#a6d2e724"/>
  <rect x="141" y="22" width="7" height="2" fill="#a6d2e723"/>
  <rect x="154" y="22" width="6" height="1" fill="#a6d2e721"/>
  <rect x="160" y="22" width="7" height="1" fill="#a6d2e720"/>
  <rect x="167" y="22" width="7" height="1" fill="#a6d2e71f"/>
  <rect x="174" y="22" width="5" height="1" fill="#a6d2e71e"/>
  <rect x="179" y="22" width="6" height="1" fill="#a6d2e71d"/>
  <rect x="191" y="22" width="6" height="1" fill="#a6d2e71b"/>
  <rect x="197" y="22" width="7" height="2" fill="#a6d2e71a"/>
  <rect x="204" y="22" width="5" height="3" fill="#a6d2e719"/>
  <rect x="209" y="22" width="7" height="2" fill="#a6d2e718"/>
  <rect x="228" y="22" width="5" height="2" fill="#a6d2e715"/>
  <rect x="233" y="22" width="7" height="2" fill="#a6d2e714"/>
  <rect x="240" y="22" width="7" height="1" fill="#a6d2e713"/>
  <rect x="247" y="22" width="5" height="1" fill="#a6d2e712"/>
  <rect x="252" y="22" width="7" height="2" fill="#a6d2e711"/>
  <rect x="259" y="22" width="6" height="3" fill="#a6d2e710"/>
  <rect x="272" y="22" width="7" height="2" fill="#a6d2e70e"/>
  <rect x="279" y="22" width="6" height="1" fill="#a6d2e70d"/>
  <rect x="285" y="22" width="6" height="1" fill="#a6d2e70c"/>
  <rect x="291" y="22" width="1" height="1" fill="#a6d2e70b"/>
  <rect x="292" y="22" width="1" height="1" fill="#a6d2e70c"/>
  <rect x="293" y="22" width="7" height="1" fill="#a6d2e70b"/>
  <rect x="300" y="22" width="6" height="1" fill="#a6d2e70a"/>
  <rect x="0" y="23" width="17" height="2" fill="#a6d2e733"/>
  <rect x="17" y="23" width="12" height="1" fill="#a6d2e732"/>
  <rect x="29" y="23" width="1" height="1" fill="#a6d2e731"/>
  <rect x="30" y="23" width="1" height="1" fill="#a6d2e732"/>
  <rect x="70" y="23" width="8" height="1" fill="#a6d2e72d"/>
  <rect x="78" y="23" width="8" height="1" fill="#a6d2e72c"/>
  <rect x="86" y="23" width="8" height="1" fill="#a6d2e72b"/>
  <rect x="94" y="23" width="6" height="1" fill="#a6d2e72a"/>
  <rect x="100" y="23" width="8" height="1" fill="#a6d2e729"/>
  <rect x="122" y="23" width="6" height="1" fill="#a6d2e726"/>
  <rect x="128" y="23" width="7" height="1" fill="#a6d2e725"/>
  <rect x="148" y="23" width="7" height="1" fill="#a6d2e722"/>
  <rect x="155" y="23" width="6" height="1" fill="#a6d2e721"/>
  <rect x="161" y="23" width="6" height="1" fill="#a6d2e720"/>
  <rect x="167" y="23" width="6" height="3" fill="#a6d2e71f"/>
  <rect x="173" y="23" width="7" height="1" fill="#a6d2e71e"/>
  <rect x="180" y="23" width="6" height="1" fill="#a6d2e71d"/>
  <rect x="186" y="23" width="6" height="1" fill="#a6d2e71c"/>
  <rect x="192" y="23" width="5" height="1" fill="#a6d2e71b"/>
  <rect x="240" y="23" width="6" height="1" fill="#a6d2e713"/>
  <rect x="246" y="23" width="6" height="1" fill="#a6d2e712"/>
  <rect x="279" y="23" width="7" height="1" fill="#a6d2e70d"/>
  <rect x="286" y="23" width="7" height="1" fill="#a6d2e70c"/>
  <rect x="293" y="23" width="6" height="1" fill="#a6d2e70b"/>
  <rect x="299" y="23" width="7" height="3" fill="#a6d2e70a"/>
  <rect x="17" y="24" width="13" height="1" fill="#a6d2e732"/>
  <rect x="30" y="24" width="11" height="1" fill="#a6d2e731"/>
  <rect x="61" y="24" width="8" height="1" fill="#a6d2e72e"/>
  <rect x="69" y="24" width="9" height="1" fill="#a6d2e72d"/>
  <rect x="78" y="24" width="7" height="1" fill="#a6d2e72c"/>
  <rect x="85" y="24" width="8" height="1" fill="#a6d2e72b"/>
  <rect x="93" y="24" width="8" height="2" fill="#a6d2e72a"/>
  <rect x="101" y="24" width="7" height="1" fill="#a6d2e729"/>
  <rect x="122" y="24" width="7" height="2" fill="#a6d2e726"/>
  <rect x="129" y="24" width="7" height="1" fill="#a6d2e725"/>
  <rect x="136" y="24" width="6" height="1" fill="#a6d2e724"/>
  <rect x="142" y="24" width="6" height="1" fill="#a6d2e723"/>
  <rect x="148" y="24" width="6" height="1" fill="#a6d2e722"/>
  <rect x="154" y="24" width="6" height="1" fill="#a6d2e721"/>
  <rect x="160" y="24" width="7" height="2" fill="#a6d2e720"/>
  <rect x="173" y="24" width="6" height="2" fill="#a6d2e71e"/>
  <rect x="179" y="24" width="6" height="2" fill="#a6d2e71d"/>
  <rect x="185" y="24" width="6" height="2" fill="#a6d2e71c"/>
  <rect x="191" y="24" width="7" height="1" fill="#a6d2e71b"/>
  <rect x="198" y="24" width="6" height="1" fill="#a6d2e71a"/>
  <rect x="209" y="24" width="6" height="1" fill="#a6d2e718"/>
  <rect x="215" y="24" width="6" height="1" fill="#a6d2e717"/>
  <rect x="228" y="24" width="6" height="2" fill="#a6d2e715"/>
  <rect x="234" y="24" width="6" height="2" fill="#a6d2e714"/>
  <rect x="240" y="24" width="7" height="1" fill="#a6d2e713"/>
  <rect x="247" y="24" width="6" height="1" fill="#a6d2e712"/>
  <rect x="253" y="24" width="6" height="1" fill="#a6d2e711"/>
  <rect x="272" y="24" width="6" height="1" fill="#a6d2e70e"/>
  <rect x="278" y="24" width="7" height="1" fill="#a6d2e70d"/>
  <rect x="285" y="24" width="7" height="1" fill="#a6d2e70c"/>
  <rect x="292" y="24" width="7" height="1" fill="#a6d2e70b"/>
  <rect x="0" y="25" width="18" height="1" fill="#a6d2e733"/>
  <rect x="18" y="25" width="11" height="1" fill="#a6d2e732"/>
  <rect x="29" y="25" width="11" height="1" fill="#a6d2e731"/>
  <rect x="40" y="25" width="1" height="1" fill="#a6d2e730"/>
  <rect x="41" y="25" width="1" height="1" fill="#a6d2e731"/>
  <rect x="42" y="25" width="10" height="1" fill="#a6d2e730"/>
  <rect x="52" y="25" width="8" height="1" fill="#a6d2e72f"/>
  <rect x="60" y="25" width="10" height="1" fill="#a6d2e72e"/>
  <rect x="70" y="25" width="9" height="1" fill="#a6d2e72d"/>
  <rect x="79" y="25" width="7" height="1" fill="#a6d2e72c"/>
  <rect x="86" y="25" width="7" height="1" fill="#a6d2e72b"/>
  <rect x="101" y="25" width="6" height="1" fill="#a6d2e729"/>
  <rect x="107" y="25" width="9" height="1" fill="#a6d2e728"/>
  <rect x="116" y="25" width="6" height="1" fill="#a6d2e727"/>
  <rect x="129" y="25" width="6" height="1" fill="#a6d2e725"/>
  <rect x="135" y="25" width="7" height="1" fill="#a6d2e724"/>
  <rect x="142" y="25" width="5" height="1" fill="#a6d2e723"/>
  <rect x="147" y="25" width="8" height="1" fill="#a6d2e722"/>
  <rect x="155" y="25" width="5" height="1" fill="#a6d2e721"/>
  <rect x="191" y="25" width="6" height="1" fill="#a6d2e71b"/>
  <rect x="197" y="25" width="7" height="1" fill="#a6d2e71a"/>
  <rect x="204" y="25" width="6" height="1" fill="#a6d2e719"/>
  <rect x="210" y="25" width="6" height="1" fill="#a6d2e718"/>
  <rect x="216" y="25" width="6" height="1" fill="#a6d2e717"/>
  <rect x="222" y="25" width="6" height="1" fill="#a6d2e716"/>
  <rect x="240" y="25" width="6" height="1" fill="#a6d2e713"/>
  <rect x="246" y="25" width="6" height="1" fill="#a6d2e712"/>
  <rect x="252" y="25" width="7" height="1" fill="#a6d2e711"/>
  <rect x="259" y="25" width="7" height="1" fill="#a6d2e710"/>
  <rect x="266" y="25" width="6" height="1" fill="#a6d2e70f"/>
  <rect x="272" y="25" width="7" height="1" fill="#a6d2e70e"/>
  <rect x="279" y="25" width="6" height="1" fill="#a6d2e70d"/>
  <rect x="285" y="25" width="6" height="1" fill="#a6d2e70c"/>
  <rect x="291" y="25" width="8" height="1" fill="#a6d2e70b"/>
</svg>