<svg xmlns="http://www.w3.org/2000/svg" width="104" height="52" viewBox="0 0 104 52" shape-rendering="crispEdges">
  <rect x="27" y="1" width="1" height="1" fill="#9797971c"/>
  <rect x="28" y="1" width="1" height="1" fill="#99999959"/>
  <rect x="29" y="1" width="1" height="1" fill="#9e9e9e66"/>
  <rect x="30" y="1" width="1" height="1" fill="#a2a2a266"/>
  <rect x="31" y="1" width="1" height="1" fill="#9e9e9e66"/>
  <rect x="32" y="1" width="16" height="1" fill="#9b9b9b66"/>
  <rect x="48" y="1" width="1" height="1" fill="#a0a0a066"/>
  <rect x="49" y="1" width="1" height="1" fill="#9b9b9b61"/>
  <rect x="50" y="1" width="1" height="1" fill="#9393931b"/>
  <rect x="53" y="1" width="1" height="1" fill="#9d9d9d1c"/>
  <rect x="54" y="1" width="1" height="1" fill="#a0a0a059"/>
  <rect x="55" y="1" width="1" height="1" fill="#9a9a9a66"/>
  <rect x="56" y="1" width="17" height="1" fill="#9c9c9c66"/>
  <rect x="73" y="1" width="1" height="1" fill="#94949466"/>
  <rect x="74" y="1" width="1" height="1" fill="#95959566"/>
  <rect x="75" y="1" width="1" height="1" fill="#9e9e9e5f"/>
  <rect x="76" y="1" width="1" height="1" fill="#a0a0a01b"/>
  <rect x="27" y="2" width="1" height="1" fill="#9c9c9c59"/>
  <rect x="28" y="2" width="1" height="1" fill="#dedede61"/>
  <rect x="29" y="2" width="1" height="1" fill="#fefefe5f"/>
  <rect x="30" y="2" width="1" height="1" fill="#ffffff5f"/>
  <rect x="31" y="2" width="1" height="1" fill="#fcfbfc5f"/>
  <rect x="32" y="2" width="16" height="1" fill="#fefefe5f"/>
  <rect x="48" y="2" width="1" height="1" fill="#f8f8f85f"/>
  <rect x="49" y="2" width="1" height="1" fill="#dedede61"/>
  <rect x="50" y="2" width="1" height="1" fill="#9b9b9b59"/>
  <rect x="53" y="2" width="1" height="1" fill="#9e9e9e59"/>
  <rect x="54" y="2" width="1" height="1" fill="#e0e0e077"/>
  <rect x="55" y="2" width="1" height="1" fill="#f0f0f07f"/>
  <rect x="56" y="2" width="16" height="1" fill="#f2f2f27f"/>
  <rect x="72" y="2" width="1" height="1" fill="#f0f0f07f"/>
  <rect x="73" y="2" width="1" height="1" fill="#f2f2f27f"/>
  <rect x="74" y="2" width="1" height="1" fill="#eaeaea7f"/>
  <rect x="75" y="2" width="1" height="1" fill="#dbdbdb77"/>
  <rect x="76" y="2" width="1" height="1" fill="#9e9e9e59"/>
  <rect x="27" y="3" width="1" height="1" fill="#96969666"/>
  <rect x="28" y="3" width="1" height="1" fill="#ffffff23"/>
  <rect x="29" y="3" width="1" height="1" fill="#fdfdfd1a"/>
  <rect x="30" y="3" width="1" height="1" fill="#fcfbfc1a"/>
  <rect x="31" y="3" width="17" height="1" fill="#fefefe1a"/>
  <rect x="48" y="3" width="1" height="1" fill="#ffffff1a"/>
  <rect x="49" y="3" width="1" height="1" fill="#f8f8f81e"/>
  <rect x="50" y="3" width="1" height="1" fill="#a0a0a066"/>
  <rect x="53" y="3" width="1" height="1" fill="#9c9c9c66"/>
  <rect x="54" y="3" width="1" height="1" fill="#dcdcdc4f"/>
  <rect x="55" y="3" width="1" height="1" fill="#cccccc48"/>
  <rect x="56" y="3" width="16" height="1" fill="#d6d6d648"/>
  <rect x="72" y="3" width="1" height="1" fill="#d2d2d248"/>
  <rect x="73" y="3" width="1" height="1" fill="#d3d3d348"/>
  <rect x="74" y="3" width="1" height="1" fill="#d7d7d748"/>
  <rect x="75" y="3" width="1" height="1" fill="#e0e0e04c"/>
  <rect x="76" y="3" width="1" height="1" fill="#a2a2a266"/>
  <rect x="27" y="4" width="1" height="4" fill="#9c9c9c66"/>
  <rect x="28" y="4" width="21" height="2" fill="#ffffff1a"/>
  <rect x="49" y="4" width="1" height="2" fill="#fefefe1a"/>
  <rect x="50" y="4" width="1" height="10" fill="#9c9c9c66"/>
  <rect x="53" y="4" width="1" height="2" fill="#9a9a9a66"/>
  <rect x="54" y="4" width="1" height="4" fill="#d7d7d748"/>
  <rect x="55" y="4" width="1" height="2" fill="#dcdcdc48"/>
  <rect x="56" y="4" width="16" height="1" fill="#dadada48"/>
  <rect x="72" y="4" width="4" height="1" fill="#d9d9d948"/>
  <rect x="76" y="4" width="1" height="1" fill="#9b9b9b66"/>
  <rect x="56" y="5" width="20" height="2" fill="#dadada48"/>
  <rect x="76" y="5" width="1" height="2" fill="#9c9c9c66"/>
  <rect x="28" y="6" width="22" height="2" fill="#ffffff1a"/>
  <rect x="53" y="6" width="1" height="4" fill="#9b9b9b66"/>
  <rect x="55" y="6" width="1" height="1" fill="#dddddd48"/>
  <rect x="55" y="7" width="1" height="1" fill="#dedede48"/>
  <rect x="56" y="7" width="20" height="1" fill="#dbdbdb48"/>
  <rect x="76" y="7" width="1" height="2" fill="#9b9b9b66"/>
  <rect x="27" y="8" width="1" height="15" fill="#9b9b9b66"/>
  <rect x="28" y="8" width="4" height="11" fill="#fefefe1a"/>
  <rect x="32" y="8" width="16" height="8" fill="#ffffff1a"/>
  <rect x="48" y="8" width="1" height="1" fill="#fefefe1a"/>
  <rect x="49" y="8" width="1" height="8" fill="#ffffff1a"/>
  <rect x="54" y="8" width="1" height="4" fill="#e3e3e348"/>
  <rect x="55" y="8" width="5" height="1" fill="#e0e0e048"/>
  <rect x="60" y="8" width="4" height="1" fill="#dedede48"/>
  <rect x="64" y="8" width="12" height="1" fill="#dddddd48"/>
  <rect x="48" y="9" width="1" height="5" fill="#fdfdfd1a"/>
  <rect x="55" y="9" width="1" height="1" fill="#e1e1e148"/>
  <rect x="56" y="9" width="12" height="1" fill="#e2e2e248"/>
  <rect x="68" y="9" width="8" height="1" fill="#e1e1e148"/>
  <rect x="76" y="9" width="1" height="1" fill="#9d9d9d66"/>
  <rect x="53" y="10" width="1" height="9" fill="#9c9c9c66"/>
  <rect x="55" y="10" width="1" height="1" fill="#e4e4e448"/>
  <rect x="56" y="10" width="20" height="1" fill="#e2e2e248"/>
  <rect x="76" y="10" width="1" height="1" fill="#9e9e9e66"/>
  <rect x="55" y="11" width="1" height="1" fill="#e5e5e548"/>
  <rect x="56" y="11" width="8" height="1" fill="#e3e3e348"/>
  <rect x="64" y="11" width="4" height="1" fill="#e2e2e248"/>
  <rect x="68" y="11" width="8" height="1" fill="#e3e3e348"/>
  <rect x="76" y="11" width="1" height="1" fill="#9d9d9d66"/>
  <rect x="54" y="12" width="1" height="6" fill="#f1f1f148"/>
  <rect x="55" y="12" width="5" height="1" fill="#e8e8e848"/>
  <rect x="60" y="12" width="4" height="1" fill="#e7e7e748"/>
  <rect x="64" y="12" width="4" height="1" fill="#e8e8e848"/>
  <rect x="68" y="12" width="8" height="1" fill="#e5e5e548"/>
  <rect x="76" y="12" width="1" height="1" fill="#9c9c9c66"/>
  <rect x="55" y="13" width="1" height="1" fill="#eaeaea48"/>
  <rect x="56" y="13" width="8" height="1" fill="#ebebeb48"/>
  <rect x="64" y="13" width="12" height="1" fill="#eaeaea48"/>
  <rect x="76" y="13" width="1" height="1" fill="#9e9e9e66"/>
  <rect x="48" y="14" width="1" height="2" fill="#fefefe1a"/>
  <rect x="50" y="14" width="1" height="2" fill="#9b9b9b66"/>
  <rect x="55" y="14" width="1" height="1" fill="#eeeeee48"/>
  <rect x="56" y="14" width="20" height="1" fill="#ebebeb48"/>
  <rect x="76" y="14" width="1" height="1" fill="#a0a0a066"/>
  <rect x="55" y="15" width="1" height="2" fill="#efefef48"/>
  <rect x="56" y="15" width="20" height="1" fill="#ececec48"/>
  <rect x="76" y="15" width="1" height="1" fill="#9d9d9d66"/>
  <rect x="32" y="16" width="18" height="4" fill="#ffffff1a"/>
  <rect x="50" y="16" width="1" height="2" fill="#9a9a9a66"/>
  <rect x="56" y="16" width="4" height="1" fill="#f0f0f048"/>
  <rect x="60" y="16" width="16" height="1" fill="#efefef48"/>
  <rect x="76" y="16" width="1" height="1" fill="#9b9b9b66"/>
  <rect x="55" y="17" width="1" height="1" fill="#f0f0f048"/>
  <rect x="56" y="17" width="20" height="1" fill="#f2f2f248"/>
  <rect x="76" y="17" width="1" height="2" fill="#9c9c9c66"/>
  <rect x="50" y="18" width="1" height="4" fill="#99999966"/>
  <rect x="54" y="18" width="2" height="1" fill="#f1f1f148"/>
  <rect x="56" y="18" width="8" height="1" fill="#f3f3f348"/>
  <rect x="64" y="18" width="2" height="1" fill="#f2f2f248"/>
  <rect x="66" y="18" width="5" height="1" fill="#f3f3f348"/>
  <rect x="71" y="18" width="2" height="1" fill="#f2f2f248"/>
  <rect x="73" y="18" width="1" height="1" fill="#f3f3f348"/>
  <rect x="74" y="18" width="2" height="2" fill="#f2f2f248"/>
  <rect x="28" y="19" width="2" height="1" fill="#fefefe1a"/>
  <rect x="30" y="19" width="1" height="1" fill="#fdfdfd1a"/>
  <rect x="31" y="19" width="1" height="1" fill="#fefefe1a"/>
  <rect x="53" y="19" width="1" height="1" fill="#9d9d9d66"/>
  <rect x="54" y="19" width="1" height="1" fill="#f1f1f148"/>
  <rect x="55" y="19" width="1" height="1" fill="#f2f2f248"/>
  <rect x="56" y="19" width="6" height="1" fill="#f5f5f548"/>
  <rect x="62" y="19" width="2" height="1" fill="#f3f3f348"/>
  <rect x="64" y="19" width="7" height="1" fill="#f5f5f548"/>
  <rect x="71" y="19" width="2" height="1" fill="#f3f3f348"/>
  <rect x="73" y="19" width="1" height="1" fill="#f5f5f548"/>
  <rect x="76" y="19" width="1" height="2" fill="#9b9b9b66"/>
  <rect x="28" y="20" width="2" height="1" fill="#ffffff1a"/>
  <rect x="30" y="20" width="1" height="1" fill="#fefefe1a"/>
  <rect x="31" y="20" width="1" height="1" fill="#f8f8f81a"/>
  <rect x="32" y="20" width="4" height="2" fill="#fefefe1a"/>
  <rect x="36" y="20" width="12" height="1" fill="#ffffff1a"/>
  <rect x="48" y="20" width="1" height="1" fill="#fdfdfd1a"/>
  <rect x="49" y="20" width="1" height="1" fill="#ffffff1a"/>
  <rect x="53" y="20" width="1" height="1" fill="#9e9e9e66"/>
  <rect x="54" y="20" width="2" height="1" fill="#fcfbfc48"/>
  <rect x="56" y="20" width="6" height="1" fill="#f7f7f748"/>
  <rect x="62" y="20" width="2" height="1" fill="#f8f8f848"/>
  <rect x="64" y="20" width="8" height="1" fill="#f7f7f748"/>
  <rect x="72" y="20" width="1" height="1" fill="#f6f6f648"/>
  <rect x="73" y="20" width="1" height="1" fill="#f7f7f748"/>
  <rect x="74" y="20" width="1" height="1" fill="#f6f6f648"/>
  <rect x="75" y="20" width="1" height="1" fill="#efefef48"/>
  <rect x="28" y="21" width="1" height="1" fill="#f7f7f71a"/>
  <rect x="29" y="21" width="1" height="1" fill="#fdfdfd1a"/>
  <rect x="30" y="21" width="1" height="1" fill="#ffffff1a"/>
  <rect x="31" y="21" width="1" height="1" fill="#f7f7f71a"/>
  <rect x="36" y="21" width="13" height="1" fill="#ffffff1a"/>
  <rect x="49" y="21" width="1" height="1" fill="#f7f7f71a"/>
  <rect x="53" y="21" width="1" height="1" fill="#9a9a9a66"/>
  <rect x="54" y="21" width="1" height="1" fill="#ffffff48"/>
  <rect x="55" y="21" width="1" height="1" fill="#f0f0f048"/>
  <rect x="56" y="21" width="8" height="1" fill="#f8f8f848"/>
  <rect x="64" y="21" width="2" height="1" fill="#f9f9f948"/>
  <rect x="66" y="21" width="5" height="1" fill="#f8f8f848"/>
  <rect x="71" y="21" width="2" height="1" fill="#fafafa48"/>
  <rect x="73" y="21" width="1" height="1" fill="#f8f8f848"/>
  <rect x="74" y="21" width="1" height="1" fill="#fcfbfc48"/>
  <rect x="75" y="21" width="1" height="1" fill="#ffffff48"/>
  <rect x="76" y="21" width="1" height="1" fill="#9c9c9c66"/>
  <rect x="28" y="22" width="5" height="1" fill="#ffffff1a"/>
  <rect x="33" y="22" width="3" height="1" fill="#fefefe1a"/>
  <rect x="36" y="22" width="14" height="1" fill="#ffffff1a"/>
  <rect x="50" y="22" width="1" height="1" fill="#a4a4a466"/>
  <rect x="53" y="22" width="1" height="1" fill="#9d9d9d66"/>
  <rect x="54" y="22" width="1" height="1" fill="#fcfbfc48"/>
  <rect x="55" y="22" width="16" height="1" fill="#f9f9f948"/>
  <rect x="71" y="22" width="1" height="1" fill="#fafafa48"/>
  <rect x="72" y="22" width="1" height="1" fill="#fdfdfd48"/>
  <rect x="73" y="22" width="1" height="2" fill="#ffffff48"/>
  <rect x="74" y="22" width="1" height="1" fill="#fefefe48"/>
  <rect x="75" y="22" width="1" height="1" fill="#f8f8f848"/>
  <rect x="76" y="22" width="1" height="1" fill="#9b9b9b66"/>
  <rect x="27" y="23" width="1" height="1" fill="#9b9b9b58"/>
  <rect x="28" y="23" width="1" height="1" fill="#bfbfbf33"/>
  <rect x="29" y="23" width="1" height="1" fill="#ffffff1a"/>
  <rect x="30" y="23" width="1" height="1" fill="#fdfdfd1a"/>
  <rect x="31" y="23" width="1" height="1" fill="#ffffff1a"/>
  <rect x="32" y="23" width="4" height="1" fill="#fefefe1a"/>
  <rect x="36" y="23" width="12" height="1" fill="#ffffff1a"/>
  <rect x="48" y="23" width="1" height="1" fill="#fefefe1a"/>
  <rect x="49" y="23" width="1" height="1" fill="#bebebe33"/>
  <rect x="50" y="23" width="1" height="1" fill="#a2a2a258"/>
  <rect x="53" y="23" width="1" height="1" fill="#99999958"/>
  <rect x="54" y="23" width="1" height="1" fill="#dbdbdb52"/>
  <rect x="55" y="23" width="1" height="1" fill="#ffffff48"/>
  <rect x="56" y="23" width="17" height="1" fill="#f9f9f948"/>
  <rect x="74" y="23" width="1" height="1" fill="#fafafa48"/>
  <rect x="75" y="23" width="1" height="1" fill="#d9d9d952"/>
  <rect x="76" y="23" width="1" height="1" fill="#97979758"/>
  <rect x="27" y="24" width="1" height="1" fill="#9e9e9e1b"/>
  <rect x="28" y="24" width="1" height="1" fill="#97979758"/>
  <rect x="29" y="24" width="7" height="1" fill="#97979766"/>
  <rect x="36" y="24" width="12" height="1" fill="#99999966"/>
  <rect x="48" y="24" width="1" height="1" fill="#a0a0a066"/>
  <rect x="49" y="24" width="1" height="1" fill="#96969660"/>
  <rect x="50" y="24" width="1" height="1" fill="#9e9e9e1b"/>
  <rect x="53" y="24" width="1" height="1" fill="#9e9e9e1b"/>
  <rect x="54" y="24" width="1" height="1" fill="#96969658"/>
  <rect x="55" y="24" width="1" height="1" fill="#a0a0a066"/>
  <rect x="56" y="24" width="15" height="1" fill="#9e9e9e66"/>
  <rect x="71" y="24" width="1" height="1" fill="#9d9d9d66"/>
  <rect x="72" y="24" width="1" height="1" fill="#9c9c9c66"/>
  <rect x="73" y="24" width="2" height="1" fill="#9b9b9b66"/>
  <rect x="75" y="24" width="1" height="1" fill="#9b9b9b5e"/>
  <rect x="76" y="24" width="1" height="1" fill="#a0a0a01b"/>
  <rect x="1" y="27" width="1" height="1" fill="#a4a4a41c"/>
  <rect x="2" y="27" width="1" height="1" fill="#95959559"/>
  <rect x="3" y="27" width="1" height="1" fill="#a3a3a366"/>
  <rect x="4" y="27" width="2" height="1" fill="#9a9a9a66"/>
  <rect x="6" y="27" width="2" height="1" fill="#9b9b9b66"/>
  <rect x="8" y="27" width="1" height="1" fill="#9c9c9c66"/>
  <rect x="9" y="27" width="1" height="1" fill="#9d9d9d66"/>
  <rect x="10" y="27" width="13" height="1" fill="#9e9e9e66"/>
  <rect x="23" y="27" width="1" height="1" fill="#9e9e9e5f"/>
  <rect x="24" y="27" width="1" height="1" fill="#a0a0a01b"/>
  <rect x="27" y="27" width="1" height="1" fill="#9696961c"/>
  <rect x="28" y="27" width="1" height="1" fill="#9c9c9c59"/>
  <rect x="29" y="27" width="7" height="1" fill="#9c9c9c66"/>
  <rect x="36" y="27" width="12" height="1" fill="#9d9d9d66"/>
  <rect x="48" y="27" width="1" height="1" fill="#a0a0a066"/>
  <rect x="49" y="27" width="1" height="1" fill="#9696965f"/>
  <rect x="50" y="27" width="1" height="1" fill="#9e9e9e1b"/>
  <rect x="53" y="27" width="1" height="1" fill="#9e9e9e1c"/>
  <rect x="54" y="27" width="1" height="1" fill="#96969659"/>
  <rect x="55" y="27" width="1" height="1" fill="#a0a0a066"/>
  <rect x="56" y="27" width="15" height="1" fill="#9e9e9e66"/>
  <rect x="71" y="27" width="1" height="1" fill="#9d9d9d66"/>
  <rect x="72" y="27" width="1" height="1" fill="#9c9c9c66"/>
  <rect x="73" y="27" width="2" height="1" fill="#9b9b9b66"/>
  <rect x="75" y="27" width="1" height="1" fill="#9b9b9b5f"/>
  <rect x="76" y="27" width="1" height="1" fill="#9a9a9a1b"/>
  <rect x="79" y="27" width="1" height="1" fill="#a1a1a11c"/>
  <rect x="80" y="27" width="1" height="1" fill="#9e9e9e59"/>
  <rect x="81" y="27" width="6" height="1" fill="#9e9e9e66"/>
  <rect x="87" y="27" width="1" height="1" fill="#9c9c9c66"/>
  <rect x="88" y="27" width="1" height="1" fill="#9b9b9b66"/>
  <rect x="89" y="27" width="7" height="1" fill="#9a9a9a66"/>
  <rect x="96" y="27" width="4" height="1" fill="#99999966"/>
  <rect x="100" y="27" width="1" height="1" fill="#9c9c9c66"/>
  <rect x="101" y="27" width="1" height="1" fill="#9696965f"/>
  <rect x="102" y="27" width="1" height="1" fill="#9a9a9a1b"/>
  <rect x="1" y="28" width="1" height="1" fill="#97979759"/>
  <rect x="2" y="28" width="1" height="1" fill="#dedede77"/>
  <rect x="3" y="28" width="1" height="1" fill="#e2e2e27f"/>
  <rect x="4" y="28" width="4" height="1" fill="#f0f0f07f"/>
  <rect x="8" y="28" width="12" height="1" fill="#efefef7f"/>
  <rect x="20" y="28" width="1" height="1" fill="#f5f5f57f"/>
  <rect x="21" y="28" width="1" height="1" fill="#efefef7f"/>
  <rect x="22" y="28" width="1" height="1" fill="#e5e5e57f"/>
  <rect x="23" y="28" width="1" height="1" fill="#dedede77"/>
  <rect x="24" y="28" width="1" height="1" fill="#99999959"/>
  <rect x="27" y="28" width="1" height="1" fill="#9c9c9c59"/>
  <rect x="28" y="28" width="1" height="1" fill="#e1e1e177"/>
  <rect x="29" y="28" width="1" height="1" fill="#e4e4e47f"/>
  <rect x="30" y="28" width="1" height="1" fill="#e9e9e97f"/>
  <rect x="31" y="28" width="1" height="1" fill="#ebebeb7f"/>
  <rect x="32" y="28" width="1" height="1" fill="#eeeeee7f"/>
  <rect x="33" y="28" width="3" height="1" fill="#efefef7f"/>
  <rect x="36" y="28" width="12" height="1" fill="#eeeeee7f"/>
  <rect x="48" y="28" width="1" height="1" fill="#e4e4e47f"/>
  <rect x="49" y="28" width="1" height="1" fill="#dddddd77"/>
  <rect x="50" y="28" width="1" height="1" fill="#9d9d9d59"/>
  <rect x="53" y="28" width="1" height="1" fill="#99999959"/>
  <rect x="54" y="28" width="1" height="1" fill="#dedede77"/>
  <rect x="55" y="28" width="1" height="1" fill="#e5e5e57f"/>
  <rect x="56" y="28" width="15" height="1" fill="#efefef7f"/>
  <rect x="71" y="28" width="1" height="1" fill="#f1f1f17f"/>
  <rect x="72" y="28" width="1" height="1" fill="#f2f2f27f"/>
  <rect x="73" y="28" width="1" height="1" fill="#eeeeee7f"/>
  <rect x="74" y="28" width="1" height="1" fill="#e5e5e57f"/>
  <rect x="75" y="28" width="1" height="1" fill="#dedede77"/>
  <rect x="76" y="28" width="1" height="1" fill="#9b9b9b59"/>
  <rect x="79" y="28" width="1" height="1" fill="#9b9b9b59"/>
  <rect x="80" y="28" width="1" height="1" fill="#e1e1e177"/>
  <rect x="81" y="28" width="1" height="1" fill="#e7e7e77f"/>
  <rect x="82" y="28" width="1" height="1" fill="#f0f0f07f"/>
  <rect x="83" y="28" width="1" height="1" fill="#f6f6f67f"/>
  <rect x="84" y="28" width="4" height="1" fill="#eeeeee7f"/>
  <rect x="88" y="28" width="8" height="1" fill="#efefef7f"/>
  <rect x="96" y="28" width="4" height="1" fill="#eeeeee7f"/>
  <rect x="100" y="28" width="1" height="1" fill="#e4e4e47f"/>
  <rect x="101" y="28" width="1" height="1" fill="#e1e1e177"/>
  <rect x="102" y="28" width="1" height="1" fill="#9b9b9b59"/>
  <rect x="1" y="29" width="1" height="1" fill="#99999966"/>
  <rect x="2" y="29" width="1" height="1" fill="#dddddd4f"/>
  <rect x="3" y="29" width="1" height="1" fill="#dedede48"/>
  <rect x="4" y="29" width="4" height="2" fill="#dbdbdb48"/>
  <rect x="8" y="29" width="11" height="2" fill="#dadada48"/>
  <rect x="19" y="29" width="1" height="1" fill="#d9d9d948"/>
  <rect x="20" y="29" width="2" height="1" fill="#d6d6d648"/>
  <rect x="22" y="29" width="1" height="1" fill="#d9d9d948"/>
  <rect x="23" y="29" width="1" height="1" fill="#dadada4c"/>
  <rect x="24" y="29" width="1" height="4" fill="#99999966"/>
  <rect x="27" y="29" width="1" height="4" fill="#9c9c9c66"/>
  <rect x="28" y="29" width="1" height="1" fill="#dadada4f"/>
  <rect x="29" y="29" width="1" height="1" fill="#d7d7d748"/>
  <rect x="30" y="29" width="2" height="1" fill="#d3d3d348"/>
  <rect x="32" y="29" width="1" height="1" fill="#d6d6d648"/>
  <rect x="33" y="29" width="3" height="1" fill="#d9d9d948"/>
  <rect x="36" y="29" width="12" height="1" fill="#d7d7d748"/>
  <rect x="48" y="29" width="1" height="1" fill="#dadada48"/>
  <rect x="49" y="29" width="1" height="1" fill="#d9d9d94c"/>
  <rect x="50" y="29" width="1" height="1" fill="#9d9d9d66"/>
  <rect x="53" y="29" width="1" height="1" fill="#99999966"/>
  <rect x="54" y="29" width="1" height="1" fill="#dbdbdb4f"/>
  <rect x="55" y="29" width="1" height="1" fill="#e2e2e248"/>
  <rect x="56" y="29" width="15" height="2" fill="#dadada48"/>
  <rect x="71" y="29" width="1" height="1" fill="#d9d9d948"/>
  <rect x="72" y="29" width="2" height="1" fill="#d6d6d648"/>
  <rect x="74" y="29" width="1" height="1" fill="#d9d9d948"/>
  <rect x="75" y="29" width="1" height="1" fill="#dadada4c"/>
  <rect x="76" y="29" width="1" height="2" fill="#9b9b9b66"/>
  <rect x="79" y="29" width="1" height="2" fill="#9b9b9b66"/>
  <rect x="80" y="29" width="1" height="1" fill="#dbdbdb4f"/>
  <rect x="81" y="29" width="1" height="1" fill="#dadada48"/>
  <rect x="82" y="29" width="1" height="2" fill="#d9d9d948"/>
  <rect x="83" y="29" width="1" height="1" fill="#d7d7d748"/>
  <rect x="84" y="29" width="4" height="1" fill="#d9d9d948"/>
  <rect x="88" y="29" width="8" height="1" fill="#dadada48"/>
  <rect x="96" y="29" width="4" height="1" fill="#d9d9d948"/>
  <rect x="100" y="29" width="1" height="1" fill="#dbdbdb48"/>
  <rect x="101" y="29" width="1" height="1" fill="#dbdbdb4c"/>
  <rect x="102" y="29" width="1" height="1" fill="#9a9a9a66"/>
  <rect x="1" y="30" width="1" height="1" fill="#9b9b9b66"/>
  <rect x="2" y="30" width="1" height="2" fill="#dbdbdb48"/>
  <rect x="3" y="30" width="1" height="1" fill="#d9d9d948"/>
  <rect x="19" y="30" width="1" height="1" fill="#d7d7d748"/>
  <rect x="20" y="30" width="1" height="2" fill="#d6d6d648"/>
  <rect x="21" y="30" width="1" height="2" fill="#d9d9d948"/>
  <rect x="22" y="30" width="1" height="1" fill="#e0e0e048"/>
  <rect x="23" y="30" width="1" height="1" fill="#e4e4e448"/>
  <rect x="28" y="30" width="1" height="1" fill="#e0e0e048"/>
  <rect x="29" y="30" width="1" height="1" fill="#dcdcdc48"/>
  <rect x="30" y="30" width="1" height="1" fill="#d9d9d948"/>
  <rect x="31" y="30" width="1" height="1" fill="#d7d7d748"/>
  <rect x="32" y="30" width="1" height="2" fill="#dadada48"/>
  <rect x="33" y="30" width="3" height="1" fill="#dbdbdb48"/>
  <rect x="36" y="30" width="13" height="1" fill="#dadada48"/>
  <rect x="49" y="30" width="1" height="1" fill="#d9d9d948"/>
  <rect x="50" y="30" width="1" height="3" fill="#9c9c9c66"/>
  <rect x="53" y="30" width="1" height="1" fill="#9b9b9b66"/>
  <rect x="54" y="30" width="1" height="1" fill="#d9d9d948"/>
  <rect x="55" y="30" width="1" height="1" fill="#dcdcdc48"/>
  <rect x="71" y="30" width="1" height="1" fill="#d7d7d748"/>
  <rect x="72" y="30" width="1" height="2" fill="#d6d6d648"/>
  <rect x="73" y="30" width="1" height="2" fill="#d9d9d948"/>
  <rect x="74" y="30" width="1" height="1" fill="#dedede48"/>
  <rect x="75" y="30" width="1" height="1" fill="#e3e3e348"/>
  <rect x="80" y="30" width="1" height="1" fill="#e2e2e248"/>
  <rect x="81" y="30" width="1" height="1" fill="#dddddd48"/>
  <rect x="83" y="30" width="1" height="1" fill="#d6d6d648"/>
  <rect x="84" y="30" width="1" height="1" fill="#d7d7d748"/>
  <rect x="85" y="30" width="3" height="1" fill="#dadada48"/>
  <rect x="88" y="30" width="8" height="1" fill="#dbdbdb48"/>
  <rect x="96" y="30" width="6" height="1" fill="#dadada48"/>
  <rect x="102" y="30" width="1" height="2" fill="#97979766"/>
  <rect x="1" y="31" width="1" height="2" fill="#9c9c9c66"/>
  <rect x="3" y="31" width="5" height="1" fill="#d5d5d548"/>
  <rect x="8" y="31" width="11" height="1" fill="#d4d4d448"/>
  <rect x="19" y="31" width="1" height="1" fill="#d5d5d548"/>
  <rect x="22" y="31" width="1" height="1" fill="#dadada48"/>
  <rect x="23" y="31" width="1" height="1" fill="#dbdbdb48"/>
  <rect x="28" y="31" width="1" height="1" fill="#d4d4d448"/>
  <rect x="29" y="31" width="1" height="1" fill="#d6d6d648"/>
  <rect x="30" y="31" width="1" height="1" fill="#dbdbdb48"/>
  <rect x="31" y="31" width="1" height="1" fill="#dcdcdc48"/>
  <rect x="33" y="31" width="3" height="1" fill="#d9d9d948"/>
  <rect x="36" y="31" width="12" height="1" fill="#d7d7d748"/>
  <rect x="48" y="31" width="2" height="1" fill="#d9d9d948"/>
  <rect x="53" y="31" width="1" height="1" fill="#9c9c9c66"/>
  <rect x="54" y="31" width="2" height="1" fill="#d9d9d948"/>
  <rect x="56" y="31" width="15" height="1" fill="#d4d4d448"/>
  <rect x="71" y="31" width="1" height="1" fill="#d5d5d548"/>
  <rect x="74" y="31" width="2" height="1" fill="#dadada48"/>
  <rect x="76" y="31" width="1" height="1" fill="#9a9a9a66"/>
  <rect x="79" y="31" width="1" height="1" fill="#9a9a9a66"/>
  <rect x="80" y="31" width="1" height="1" fill="#d7d7d748"/>
  <rect x="81" y="31" width="1" height="1" fill="#d6d6d648"/>
  <rect x="82" y="31" width="2" height="1" fill="#d5d5d548"/>
  <rect x="84" y="31" width="4" height="1" fill="#d6d6d648"/>
  <rect x="88" y="31" width="8" height="1" fill="#d7d7d748"/>
  <rect x="96" y="31" width="4" height="1" fill="#d6d6d648"/>
  <rect x="100" y="31" width="1" height="1" fill="#d7d7d748"/>
  <rect x="101" y="31" width="1" height="1" fill="#d9d9d948"/>
  <rect x="2" y="32" width="1" height="1" fill="#dddddd48"/>
  <rect x="3" y="32" width="1" height="4" fill="#dcdcdc48"/>
  <rect x="4" y="32" width="4" height="4" fill="#e0e0e048"/>
  <rect x="8" y="32" width="11" height="1" fill="#dedede48"/>
  <rect x="19" y="32" width="2" height="1" fill="#dddddd48"/>
  <rect x="21" y="32" width="3" height="1" fill="#dcdcdc48"/>
  <rect x="28" y="32" width="2" height="1" fill="#dbdbdb48"/>
  <rect x="30" y="32" width="6" height="1" fill="#dcdcdc48"/>
  <rect x="36" y="32" width="12" height="1" fill="#dddddd48"/>
  <rect x="48" y="32" width="2" height="1" fill="#dbdbdb48"/>
  <rect x="53" y="32" width="1" height="1" fill="#9d9d9d66"/>
  <rect x="54" y="32" width="6" height="1" fill="#dcdcdc48"/>
  <rect x="60" y="32" width="4" height="1" fill="#dbdbdb48"/>
  <rect x="64" y="32" width="12" height="1" fill="#dadada48"/>
  <rect x="76" y="32" width="1" height="1" fill="#97979766"/>
  <rect x="79" y="32" width="1" height="1" fill="#97979766"/>
  <rect x="80" y="32" width="1" height="1" fill="#dcdcdc48"/>
  <rect x="81" y="32" width="1" height="1" fill="#dbdbdb48"/>
  <rect x="82" y="32" width="2" height="1" fill="#dadada48"/>
  <rect x="84" y="32" width="12" height="1" fill="#dbdbdb48"/>
  <rect x="96" y="32" width="4" height="1" fill="#dadada48"/>
  <rect x="100" y="32" width="1" height="1" fill="#dbdbdb48"/>
  <rect x="101" y="32" width="1" height="1" fill="#dedede48"/>
  <rect x="102" y="32" width="1" height="1" fill="#99999966"/>
  <rect x="1" y="33" width="1" height="3" fill="#9b9b9b66"/>
  <rect x="2" y="33" width="1" height="1" fill="#e0e0e048"/>
  <rect x="8" y="33" width="16" height="3" fill="#dedede48"/>
  <rect x="24" y="33" width="1" height="2" fill="#9b9b9b66"/>
  <rect x="27" y="33" width="1" height="2" fill="#9e9e9e66"/>
  <rect x="28" y="33" width="2" height="3" fill="#dddddd48"/>
  <rect x="30" y="33" width="6" height="3" fill="#dedede48"/>
  <rect x="36" y="33" width="12" height="3" fill="#e0e0e048"/>
  <rect x="48" y="33" width="1" height="3" fill="#dddddd48"/>
  <rect x="49" y="33" width="1" height="3" fill="#dedede48"/>
  <rect x="50" y="33" width="1" height="2" fill="#9e9e9e66"/>
  <rect x="53" y="33" width="1" height="3" fill="#a0a0a066"/>
  <rect x="54" y="33" width="1" height="3" fill="#e0e0e048"/>
  <rect x="55" y="33" width="9" height="1" fill="#dedede48"/>
  <rect x="64" y="33" width="12" height="1" fill="#dddddd48"/>
  <rect x="76" y="33" width="1" height="1" fill="#9a9a9a66"/>
  <rect x="79" y="33" width="1" height="1" fill="#9a9a9a66"/>
  <rect x="80" y="33" width="1" height="1" fill="#e0e0e048"/>
  <rect x="81" y="33" width="1" height="1" fill="#dedede48"/>
  <rect x="82" y="33" width="2" height="1" fill="#dddddd48"/>
  <rect x="84" y="33" width="12" height="1" fill="#dedede48"/>
  <rect x="96" y="33" width="4" height="1" fill="#dddddd48"/>
  <rect x="100" y="33" width="1" height="1" fill="#dedede48"/>
  <rect x="101" y="33" width="1" height="1" fill="#e2e2e248"/>
  <rect x="102" y="33" width="1" height="1" fill="#9c9c9c66"/>
  <rect x="2" y="34" width="1" height="2" fill="#e1e1e148"/>
  <rect x="55" y="34" width="21" height="2" fill="#dedede48"/>
  <rect x="76" y="34" width="1" height="2" fill="#9b9b9b66"/>
  <rect x="79" y="34" width="1" height="2" fill="#9b9b9b66"/>
  <rect x="80" y="34" width="1" height="2" fill="#e1e1e148"/>
  <rect x="81" y="34" width="1" height="2" fill="#e0e0e048"/>
  <rect x="82" y="34" width="2" height="2" fill="#dedede48"/>
  <rect x="84" y="34" width="12" height="2" fill="#e0e0e048"/>
  <rect x="96" y="34" width="4" height="2" fill="#dedede48"/>
  <rect x="100" y="34" width="1" height="2" fill="#e0e0e048"/>
  <rect x="101" y="34" width="1" height="2" fill="#e4e4e448"/>
  <rect x="102" y="34" width="1" height="5" fill="#9d9d9d66"/>
  <rect x="24" y="35" width="1" height="2" fill="#9a9a9a66"/>
  <rect x="27" y="35" width="1" height="2" fill="#9d9d9d66"/>
  <rect x="50" y="35" width="1" height="1" fill="#9c9c9c66"/>
  <rect x="1" y="36" width="1" height="4" fill="#9c9c9c66"/>
  <rect x="2" y="36" width="1" height="1" fill="#e2e2e248"/>
  <rect x="3" y="36" width="1" height="1" fill="#e3e3e348"/>
  <rect x="4" y="36" width="4" height="1" fill="#e2e2e248"/>
  <rect x="8" y="36" width="16" height="1" fill="#e1e1e148"/>
  <rect x="28" y="36" width="4" height="1" fill="#e4e4e448"/>
  <rect x="32" y="36" width="2" height="1" fill="#e3e3e348"/>
  <rect x="34" y="36" width="2" height="1" fill="#e1e1e148"/>
  <rect x="36" y="36" width="12" height="1" fill="#e2e2e248"/>
  <rect x="48" y="36" width="1" height="1" fill="#e0e0e048"/>
  <rect x="49" y="36" width="1" height="1" fill="#e5e5e548"/>
  <rect x="50" y="36" width="1" height="1" fill="#9a9a9a66"/>
  <rect x="53" y="36" width="1" height="1" fill="#97979766"/>
  <rect x="54" y="36" width="1" height="1" fill="#e2e2e248"/>
  <rect x="55" y="36" width="1" height="1" fill="#dedede48"/>
  <rect x="56" y="36" width="20" height="1" fill="#e1e1e148"/>
  <rect x="76" y="36" width="1" height="5" fill="#9a9a9a66"/>
  <rect x="79" y="36" width="1" height="5" fill="#9a9a9a66"/>
  <rect x="80" y="36" width="1" height="1" fill="#e3e3e348"/>
  <rect x="81" y="36" width="1" height="1" fill="#e2e2e248"/>
  <rect x="82" y="36" width="2" height="1" fill="#e1e1e148"/>
  <rect x="84" y="36" width="12" height="1" fill="#e2e2e248"/>
  <rect x="96" y="36" width="4" height="1" fill="#e1e1e148"/>
  <rect x="100" y="36" width="2" height="2" fill="#e4e4e448"/>
  <rect x="2" y="37" width="2" height="1" fill="#e3e3e348"/>
  <rect x="4" y="37" width="4" height="1" fill="#e4e4e448"/>
  <rect x="8" y="37" width="16" height="1" fill="#e3e3e348"/>
  <rect x="24" y="37" width="1" height="1" fill="#99999966"/>
  <rect x="27" y="37" width="1" height="1" fill="#9c9c9c66"/>
  <rect x="28" y="37" width="2" height="1" fill="#e4e4e448"/>
  <rect x="30" y="37" width="2" height="1" fill="#e5e5e548"/>
  <rect x="32" y="37" width="4" height="1" fill="#e4e4e448"/>
  <rect x="36" y="37" width="12" height="1" fill="#e5e5e548"/>
  <rect x="48" y="37" width="1" height="1" fill="#e3e3e348"/>
  <rect x="49" y="37" width="1" height="1" fill="#e8e8e848"/>
  <rect x="50" y="37" width="1" height="1" fill="#9b9b9b66"/>
  <rect x="53" y="37" width="1" height="1" fill="#9a9a9a66"/>
  <rect x="54" y="37" width="1" height="1" fill="#e5e5e548"/>
  <rect x="55" y="37" width="1" height="1" fill="#e1e1e148"/>
  <rect x="56" y="37" width="20" height="1" fill="#e4e4e448"/>
  <rect x="80" y="37" width="1" height="1" fill="#e5e5e548"/>
  <rect x="81" y="37" width="1" height="1" fill="#e4e4e448"/>
  <rect x="82" y="37" width="2" height="1" fill="#e3e3e348"/>
  <rect x="84" y="37" width="12" height="1" fill="#e4e4e448"/>
  <rect x="96" y="37" width="4" height="1" fill="#e3e3e348"/>
  <rect x="2" y="38" width="1" height="2" fill="#e4e4e448"/>
  <rect x="3" y="38" width="1" height="2" fill="#e3e3e348"/>
  <rect x="4" y="38" width="4" height="1" fill="#e9e9e948"/>
  <rect x="8" y="38" width="16" height="1" fill="#e8e8e848"/>
  <rect x="24" y="38" width="1" height="1" fill="#9a9a9a66"/>
  <rect x="27" y="38" width="1" height="1" fill="#9d9d9d66"/>
  <rect x="28" y="38" width="2" height="2" fill="#e5e5e548"/>
  <rect x="30" y="38" width="2" height="1" fill="#e7e7e748"/>
  <rect x="32" y="38" width="4" height="1" fill="#e8e8e848"/>
  <rect x="36" y="38" width="12" height="1" fill="#e9e9e948"/>
  <rect x="48" y="38" width="1" height="1" fill="#e7e7e748"/>
  <rect x="49" y="38" width="1" height="1" fill="#ebebeb48"/>
  <rect x="50" y="38" width="1" height="1" fill="#9e9e9e66"/>
  <rect x="53" y="38" width="1" height="1" fill="#9d9d9d66"/>
  <rect x="54" y="38" width="1" height="1" fill="#e9e9e948"/>
  <rect x="55" y="38" width="1" height="1" fill="#e4e4e448"/>
  <rect x="56" y="38" width="20" height="1" fill="#e8e8e848"/>
  <rect x="80" y="38" width="1" height="1" fill="#e9e9e948"/>
  <rect x="81" y="38" width="1" height="1" fill="#e8e8e848"/>
  <rect x="82" y="38" width="2" height="1" fill="#e7e7e748"/>
  <rect x="84" y="38" width="12" height="1" fill="#e8e8e848"/>
  <rect x="96" y="38" width="4" height="1" fill="#e7e7e748"/>
  <rect x="100" y="38" width="1" height="1" fill="#e5e5e548"/>
  <rect x="101" y="38" width="1" height="1" fill="#e7e7e748"/>
  <rect x="4" y="39" width="4" height="1" fill="#ececec48"/>
  <rect x="8" y="39" width="16" height="1" fill="#ebebeb48"/>
  <rect x="24" y="39" width="1" height="2" fill="#99999966"/>
  <rect x="27" y="39" width="1" height="2" fill="#9c9c9c66"/>
  <rect x="30" y="39" width="2" height="1" fill="#e8e8e848"/>
  <rect x="32" y="39" width="2" height="1" fill="#e9e9e948"/>
  <rect x="34" y="39" width="2" height="1" fill="#eaeaea48"/>
  <rect x="36" y="39" width="12" height="1" fill="#ebebeb48"/>
  <rect x="48" y="39" width="1" height="1" fill="#e9e9e948"/>
  <rect x="49" y="39" width="1" height="1" fill="#eeeeee48"/>
  <rect x="50" y="39" width="1" height="1" fill="#a1a1a166"/>
  <rect x="53" y="39" width="1" height="1" fill="#a0a0a066"/>
  <rect x="54" y="39" width="1" height="1" fill="#ebebeb48"/>
  <rect x="55" y="39" width="1" height="1" fill="#e7e7e748"/>
  <rect x="56" y="39" width="20" height="1" fill="#eaeaea48"/>
  <rect x="80" y="39" width="1" height="1" fill="#ececec48"/>
  <rect x="81" y="39" width="1" height="1" fill="#ebebeb48"/>
  <rect x="82" y="39" width="2" height="1" fill="#eaeaea48"/>
  <rect x="84" y="39" width="12" height="1" fill="#ebebeb48"/>
  <rect x="96" y="39" width="4" height="1" fill="#eaeaea48"/>
  <rect x="100" y="39" width="1" height="1" fill="#e7e7e748"/>
  <rect x="101" y="39" width="1" height="1" fill="#e8e8e848"/>
  <rect x="102" y="39" width="1" height="1" fill="#a0a0a066"/>
  <rect x="1" y="40" width="1" height="3" fill="#9d9d9d66"/>
  <rect x="2" y="40" width="2" height="2" fill="#eeeeee48"/>
  <rect x="4" y="40" width="4" height="1" fill="#efefef48"/>
  <rect x="8" y="40" width="16" height="1" fill="#eeeeee48"/>
  <rect x="28" y="40" width="6" height="1" fill="#efefef48"/>
  <rect x="34" y="40" width="14" height="1" fill="#eeeeee48"/>
  <rect x="48" y="40" width="1" height="1" fill="#eaeaea48"/>
  <rect x="49" y="40" width="1" height="1" fill="#efefef48"/>
  <rect x="50" y="40" width="1" height="1" fill="#99999966"/>
  <rect x="53" y="40" width="1" height="1" fill="#97979766"/>
  <rect x="54" y="40" width="2" height="1" fill="#efefef48"/>
  <rect x="56" y="40" width="20" height="1" fill="#eeeeee48"/>
  <rect x="80" y="40" width="1" height="1" fill="#eeeeee48"/>
  <rect x="81" y="40" width="1" height="1" fill="#ececec48"/>
  <rect x="82" y="40" width="2" height="1" fill="#ebebeb48"/>
  <rect x="84" y="40" width="12" height="1" fill="#ececec48"/>
  <rect x="96" y="40" width="4" height="1" fill="#eeeeee48"/>
  <rect x="100" y="40" width="1" height="1" fill="#ececec48"/>
  <rect x="101" y="40" width="1" height="1" fill="#eeeeee48"/>
  <rect x="102" y="40" width="1" height="1" fill="#96969666"/>
  <rect x="4" y="41" width="4" height="2" fill="#f0f0f048"/>
  <rect x="8" y="41" width="16" height="3" fill="#efefef48"/>
  <rect x="24" y="41" width="1" height="3" fill="#97979766"/>
  <rect x="27" y="41" width="1" height="3" fill="#9b9b9b66"/>
  <rect x="28" y="41" width="2" height="3" fill="#efefef48"/>
  <rect x="30" y="41" width="18" height="3" fill="#f0f0f048"/>
  <rect x="48" y="41" width="1" height="3" fill="#ececec48"/>
  <rect x="49" y="41" width="1" height="3" fill="#f1f1f148"/>
  <rect x="50" y="41" width="1" height="4" fill="#9b9b9b66"/>
  <rect x="53" y="41" width="1" height="2" fill="#9a9a9a66"/>
  <rect x="54" y="41" width="1" height="2" fill="#f2f2f248"/>
  <rect x="55" y="41" width="5" height="1" fill="#f1f1f148"/>
  <rect x="60" y="41" width="16" height="1" fill="#f0f0f048"/>
  <rect x="76" y="41" width="1" height="1" fill="#9c9c9c66"/>
  <rect x="79" y="41" width="1" height="1" fill="#9c9c9c66"/>
  <rect x="80" y="41" width="1" height="1" fill="#f0f0f048"/>
  <rect x="81" y="41" width="1" height="1" fill="#efefef48"/>
  <rect x="82" y="41" width="2" height="1" fill="#eeeeee48"/>
  <rect x="84" y="41" width="12" height="1" fill="#efefef48"/>
  <rect x="96" y="41" width="4" height="1" fill="#f0f0f048"/>
  <rect x="100" y="41" width="1" height="1" fill="#efefef48"/>
  <rect x="101" y="41" width="1" height="1" fill="#f0f0f048"/>
  <rect x="102" y="41" width="1" height="1" fill="#99999966"/>
  <rect x="2" y="42" width="1" height="2" fill="#eeeeee48"/>
  <rect x="3" y="42" width="1" height="1" fill="#efefef48"/>
  <rect x="55" y="42" width="21" height="1" fill="#f1f1f148"/>
  <rect x="76" y="42" width="1" height="1" fill="#9d9d9d66"/>
  <rect x="79" y="42" width="1" height="1" fill="#9d9d9d66"/>
  <rect x="80" y="42" width="1" height="1" fill="#f1f1f148"/>
  <rect x="81" y="42" width="1" height="1" fill="#f0f0f048"/>
  <rect x="82" y="42" width="2" height="1" fill="#efefef48"/>
  <rect x="84" y="42" width="12" height="1" fill="#f0f0f048"/>
  <rect x="96" y="42" width="4" height="1" fill="#f1f1f148"/>
  <rect x="100" y="42" width="1" height="2" fill="#f0f0f048"/>
  <rect x="101" y="42" width="1" height="2" fill="#f1f1f148"/>
  <rect x="102" y="42" width="1" height="1" fill="#9a9a9a66"/>
  <rect x="1" y="43" width="1" height="1" fill="#9c9c9c66"/>
  <rect x="3" y="43" width="5" height="1" fill="#f0f0f048"/>
  <rect x="53" y="43" width="1" height="1" fill="#99999966"/>
  <rect x="54" y="43" width="22" height="1" fill="#f2f2f248"/>
  <rect x="76" y="43" width="1" height="1" fill="#9c9c9c66"/>
  <rect x="79" y="43" width="1" height="1" fill="#9c9c9c66"/>
  <rect x="80" y="43" width="1" height="1" fill="#f2f2f248"/>
  <rect x="81" y="43" width="1" height="1" fill="#f1f1f148"/>
  <rect x="82" y="43" width="2" height="1" fill="#f0f0f048"/>
  <rect x="84" y="43" width="16" height="1" fill="#f1f1f148"/>
  <rect x="102" y="43" width="1" height="1" fill="#99999966"/>
  <rect x="1" y="44" width="1" height="1" fill="#9b9b9b66"/>
  <rect x="2" y="44" width="1" height="4" fill="#f7f7f748"/>
  <rect x="3" y="44" width="1" height="1" fill="#f1f1f148"/>
  <rect x="4" y="44" width="4" height="1" fill="#f2f2f248"/>
  <rect x="8" y="44" width="16" height="1" fill="#f1f1f148"/>
  <rect x="24" y="44" width="1" height="2" fill="#96969666"/>
  <rect x="27" y="44" width="1" height="2" fill="#9a9a9a66"/>
  <rect x="28" y="44" width="6" height="1" fill="#f7f7f748"/>
  <rect x="34" y="44" width="2" height="1" fill="#f6f6f648"/>
  <rect x="36" y="44" width="12" height="1" fill="#f5f5f548"/>
  <rect x="48" y="44" width="1" height="1" fill="#f2f2f248"/>
  <rect x="49" y="44" width="1" height="1" fill="#f5f5f548"/>
  <rect x="53" y="44" width="1" height="1" fill="#9a9a9a66"/>
  <rect x="54" y="44" width="22" height="1" fill="#f5f5f548"/>
  <rect x="76" y="44" width="1" height="1" fill="#9b9b9b66"/>
  <rect x="79" y="44" width="1" height="1" fill="#9b9b9b66"/>
  <rect x="80" y="44" width="1" height="1" fill="#f5f5f548"/>
  <rect x="81" y="44" width="1" height="1" fill="#f3f3f348"/>
  <rect x="82" y="44" width="2" height="1" fill="#f2f2f248"/>
  <rect x="84" y="44" width="17" height="1" fill="#f3f3f348"/>
  <rect x="101" y="44" width="1" height="1" fill="#f2f2f248"/>
  <rect x="102" y="44" width="1" height="1" fill="#9a9a9a66"/>
  <rect x="1" y="45" width="1" height="3" fill="#9a9a9a66"/>
  <rect x="3" y="45" width="1" height="1" fill="#f2f2f248"/>
  <rect x="4" y="45" width="4" height="1" fill="#f6f6f648"/>
  <rect x="8" y="45" width="16" height="1" fill="#f5f5f548"/>
  <rect x="28" y="45" width="2" height="1" fill="#f7f7f748"/>
  <rect x="30" y="45" width="18" height="1" fill="#f8f8f848"/>
  <rect x="48" y="45" width="1" height="1" fill="#f6f6f648"/>
  <rect x="49" y="45" width="1" height="1" fill="#f8f8f848"/>
  <rect x="50" y="45" width="1" height="1" fill="#9e9e9e66"/>
  <rect x="53" y="45" width="1" height="1" fill="#9c9c9c66"/>
  <rect x="54" y="45" width="1" height="1" fill="#f8f8f848"/>
  <rect x="55" y="45" width="21" height="1" fill="#f9f9f948"/>
  <rect x="76" y="45" width="1" height="1" fill="#9d9d9d66"/>
  <rect x="79" y="45" width="1" height="1" fill="#9d9d9d66"/>
  <rect x="80" y="45" width="1" height="1" fill="#f9f9f948"/>
  <rect x="81" y="45" width="1" height="1" fill="#f8f8f848"/>
  <rect x="82" y="45" width="2" height="1" fill="#f7f7f748"/>
  <rect x="84" y="45" width="12" height="1" fill="#f8f8f848"/>
  <rect x="96" y="45" width="5" height="1" fill="#f7f7f748"/>
  <rect x="101" y="45" width="1" height="1" fill="#f6f6f648"/>
  <rect x="102" y="45" width="1" height="1" fill="#9c9c9c66"/>
  <rect x="3" y="46" width="1" height="2" fill="#f3f3f348"/>
  <rect x="4" y="46" width="4" height="1" fill="#fafafa48"/>
  <rect x="8" y="46" width="16" height="1" fill="#f9f9f948"/>
  <rect x="24" y="46" width="1" height="2" fill="#97979766"/>
  <rect x="27" y="46" width="1" height="2" fill="#9b9b9b66"/>
  <rect x="28" y="46" width="2" height="2" fill="#f8f8f848"/>
  <rect x="30" y="46" width="18" height="2" fill="#f9f9f948"/>
  <rect x="48" y="46" width="1" height="2" fill="#f7f7f748"/>
  <rect x="49" y="46" width="1" height="2" fill="#f9f9f948"/>
  <rect x="50" y="46" width="1" height="2" fill="#a0a0a066"/>
  <rect x="53" y="46" width="1" height="2" fill="#9d9d9d66"/>
  <rect x="54" y="46" width="1" height="2" fill="#f9f9f948"/>
  <rect x="55" y="46" width="21" height="2" fill="#fafafa48"/>
  <rect x="76" y="46" width="1" height="2" fill="#9e9e9e66"/>
  <rect x="79" y="46" width="1" height="2" fill="#9e9e9e66"/>
  <rect x="80" y="46" width="1" height="2" fill="#fafafa48"/>
  <rect x="81" y="46" width="1" height="3" fill="#f9f9f948"/>
  <rect x="82" y="46" width="2" height="2" fill="#f8f8f848"/>
  <rect x="84" y="46" width="12" height="2" fill="#f9f9f948"/>
  <rect x="96" y="46" width="5" height="2" fill="#f8f8f848"/>
  <rect x="101" y="46" width="1" height="2" fill="#f7f7f748"/>
  <rect x="102" y="46" width="1" height="3" fill="#9d9d9d66"/>
  <rect x="4" y="47" width="4" height="1" fill="#fdfdfd48"/>
  <rect x="8" y="47" width="16" height="1" fill="#fcfbfc48"/>
  <rect x="1" y="48" width="1" height="1" fill="#a0a0a066"/>
  <rect x="2" y="48" width="1" height="1" fill="#f5f5f548"/>
  <rect x="3" y="48" width="1" height="1" fill="#f8f8f848"/>
  <rect x="4" y="48" width="3" height="1" fill="#fefefe48"/>
  <rect x="7" y="48" width="1" height="1" fill="#fcfbfc48"/>
  <rect x="8" y="48" width="1" height="1" fill="#fafafa48"/>
  <rect x="9" y="48" width="12" height="1" fill="#f9f9f948"/>
  <rect x="21" y="48" width="1" height="1" fill="#f7f7f748"/>
  <rect x="22" y="48" width="1" height="1" fill="#f9f9f948"/>
  <rect x="23" y="48" width="1" height="1" fill="#ffffff48"/>
  <rect x="24" y="48" width="1" height="1" fill="#95959566"/>
  <rect x="27" y="48" width="1" height="1" fill="#95959566"/>
  <rect x="28" y="48" width="1" height="1" fill="#fefefe48"/>
  <rect x="29" y="48" width="1" height="1" fill="#f8f8f848"/>
  <rect x="30" y="48" width="1" height="1" fill="#f6f6f648"/>
  <rect x="31" y="48" width="1" height="1" fill="#f8f8f848"/>
  <rect x="32" y="48" width="16" height="1" fill="#fdfdfd48"/>
  <rect x="48" y="48" width="1" height="1" fill="#fcfbfc48"/>
  <rect x="49" y="48" width="1" height="1" fill="#ffffff48"/>
  <rect x="50" y="48" width="1" height="1" fill="#9b9b9b66"/>
  <rect x="53" y="48" width="1" height="1" fill="#99999966"/>
  <rect x="54" y="48" width="2" height="1" fill="#fafafa48"/>
  <rect x="56" y="48" width="15" height="1" fill="#fefefe48"/>
  <rect x="71" y="48" width="1" height="1" fill="#fdfdfd48"/>
  <rect x="72" y="48" width="1" height="2" fill="#fafafa48"/>
  <rect x="73" y="48" width="1" height="1" fill="#f7f7f748"/>
  <rect x="74" y="48" width="1" height="1" fill="#fafafa48"/>
  <rect x="75" y="48" width="1" height="1" fill="#ffffff48"/>
  <rect x="76" y="48" width="1" height="1" fill="#94949466"/>
  <rect x="79" y="48" width="1" height="1" fill="#94949466"/>
  <rect x="80" y="48" width="1" height="1" fill="#ffffff48"/>
  <rect x="82" y="48" width="1" height="1" fill="#f8f8f848"/>
  <rect x="83" y="48" width="1" height="1" fill="#fafafa48"/>
  <rect x="84" y="48" width="17" height="1" fill="#f9f9f948"/>
  <rect x="101" y="48" width="1" height="1" fill="#ffffff48"/>
  <rect x="1" y="49" width="1" height="1" fill="#9b9b9b58"/>
  <rect x="2" y="49" width="1" height="1" fill="#d5d5d552"/>
  <rect x="3" y="49" width="1" height="1" fill="#ffffff48"/>
  <rect x="4" y="49" width="2" height="1" fill="#fcfbfc48"/>
  <rect x="6" y="49" width="2" height="1" fill="#fdfdfd48"/>
  <rect x="8" y="49" width="1" height="1" fill="#fefefe48"/>
  <rect x="9" y="49" width="11" height="1" fill="#ffffff48"/>
  <rect x="20" y="49" width="1" height="1" fill="#f9f9f948"/>
  <rect x="21" y="49" width="1" height="1" fill="#ffffff48"/>
  <rect x="22" y="49" width="1" height="1" fill="#fcfbfc48"/>
  <rect x="23" y="49" width="1" height="1" fill="#d9d9d952"/>
  <rect x="24" y="49" width="1" height="1" fill="#a0a0a058"/>
  <rect x="27" y="49" width="1" height="1" fill="#a0a0a058"/>
  <rect x="28" y="49" width="1" height="1" fill="#d9d9d952"/>
  <rect x="29" y="49" width="1" height="1" fill="#fafafa48"/>
  <rect x="30" y="49" width="1" height="1" fill="#ffffff48"/>
  <rect x="31" y="49" width="1" height="1" fill="#f9f9f948"/>
  <rect x="32" y="49" width="16" height="1" fill="#fcfbfc48"/>
  <rect x="48" y="49" width="1" height="1" fill="#ffffff48"/>
  <rect x="49" y="49" width="1" height="1" fill="#d0d0d052"/>
  <rect x="50" y="49" width="1" height="1" fill="#9d9d9d58"/>
  <rect x="53" y="49" width="1" height="1" fill="#99999958"/>
  <rect x="54" y="49" width="1" height="1" fill="#d5d5d552"/>
  <rect x="55" y="49" width="1" height="1" fill="#ffffff48"/>
  <rect x="56" y="49" width="16" height="1" fill="#fcfbfc48"/>
  <rect x="73" y="49" width="1" height="1" fill="#ffffff48"/>
  <rect x="74" y="49" width="1" height="1" fill="#fcfbfc48"/>
  <rect x="75" y="49" width="1" height="1" fill="#dadada52"/>
  <rect x="76" y="49" width="1" height="1" fill="#9e9e9e58"/>
  <rect x="79" y="49" width="1" height="1" fill="#9e9e9e58"/>
  <rect x="80" y="49" width="1" height="1" fill="#d9d9d952"/>
  <rect x="81" y="49" width="1" height="1" fill="#f8f8f848"/>
  <rect x="82" y="49" width="1" height="1" fill="#ffffff48"/>
  <rect x="83" y="49" width="1" height="1" fill="#f6f6f648"/>
  <rect x="84" y="49" width="10" height="1" fill="#fcfbfc48"/>
  <rect x="94" y="49" width="2" height="1" fill="#fdfdfd48"/>
  <rect x="96" y="49" width="2" height="1" fill="#fefefe48"/>
  <rect x="98" y="49" width="2" height="1" fill="#ffffff48"/>
  <rect x="100" y="49" width="1" height="1" fill="#f9f9f948"/>
  <rect x="101" y="49" width="1" height="1" fill="#cdcdcd52"/>
  <rect x="102" y="49" width="1" height="1" fill="#9d9d9d58"/>
  <rect x="1" y="50" width="1" height="1" fill="#9c9c9c1b"/>
  <rect x="2" y="50" width="1" height="1" fill="#9d9d9d58"/>
  <rect x="3" y="50" width="1" height="1" fill="#99999966"/>
  <rect x="4" y="50" width="4" height="1" fill="#9a9a9a66"/>
  <rect x="8" y="50" width="12" height="1" fill="#99999966"/>
  <rect x="20" y="50" width="1" height="1" fill="#9c9c9c66"/>
  <rect x="21" y="50" width="1" height="1" fill="#a0a0a066"/>
  <rect x="22" y="50" width="1" height="1" fill="#9d9d9d66"/>
  <rect x="23" y="50" width="1" height="1" fill="#9696965e"/>
  <rect x="24" y="50" width="1" height="1" fill="#9d9d9d1b"/>
  <rect x="27" y="50" width="1" height="1" fill="#9d9d9d1b"/>
  <rect x="28" y="50" width="1" height="1" fill="#93939358"/>
  <rect x="29" y="50" width="1" height="1" fill="#9b9b9b66"/>
  <rect x="30" y="50" width="1" height="1" fill="#9d9d9d66"/>
  <rect x="31" y="50" width="1" height="1" fill="#9a9a9a66"/>
  <rect x="32" y="50" width="16" height="1" fill="#9b9b9b66"/>
  <rect x="48" y="50" width="1" height="1" fill="#99999966"/>
  <rect x="49" y="50" width="1" height="1" fill="#a0a0a05e"/>
  <rect x="50" y="50" width="1" height="1" fill="#9a9a9a1b"/>
  <rect x="53" y="50" width="1" height="1" fill="#a3a3a31b"/>
  <rect x="54" y="50" width="1" height="1" fill="#97979758"/>
  <rect x="55" y="50" width="1" height="1" fill="#9a9a9a66"/>
  <rect x="56" y="50" width="16" height="1" fill="#9c9c9c66"/>
  <rect x="72" y="50" width="1" height="1" fill="#9d9d9d66"/>
  <rect x="73" y="50" width="1" height="1" fill="#a1a1a166"/>
  <rect x="74" y="50" width="1" height="1" fill="#9d9d9d66"/>
  <rect x="75" y="50" width="1" height="1" fill="#9696965e"/>
  <rect x="76" y="50" width="1" height="1" fill="#9c9c9c1b"/>
  <rect x="79" y="50" width="1" height="1" fill="#9c9c9c1b"/>
  <rect x="80" y="50" width="1" height="1" fill="#96969658"/>
  <rect x="81" y="50" width="1" height="1" fill="#9d9d9d66"/>
  <rect x="82" y="50" width="1" height="1" fill="#a0a0a066"/>
  <rect x="83" y="50" width="1" height="1" fill="#9d9d9d66"/>
  <rect x="84" y="50" width="17" height="1" fill="#9a9a9a66"/>
  <rect x="101" y="50" width="1" height="1" fill="#9a9a9a5e"/>
  <rect x="102" y="50" width="1" height="1" fill="#a1a1a11b"/>
</svg>