<svg xmlns="http://www.w3.org/2000/svg" width="10" height="32" viewBox="0 0 10 32" shape-rendering="crispEdges">
  <rect x="1" y="0" width="1" height="1" fill="#c9c9c9d6"/>
  <rect x="2" y="0" width="6" height="1" fill="#c9c9c9"/>
  <rect x="8" y="0" width="1" height="1" fill="#c9c9c99a"/>
  <rect x="0" y="1" width="1" height="1" fill="#c9c9c9b1"/>
  <rect x="1" y="1" width="1" height="1" fill="#c9c9c9e0"/>
  <rect x="8" y="1" width="1" height="1" fill="#c9c9c9fc"/>
  <rect x="9" y="1" width="1" height="1" fill="#c9c9c9bb"/>
  <rect x="0" y="2" width="1" height="28" fill="#c9c9c9"/>
  <rect x="9" y="2" width="1" height="28" fill="#c9c9c9"/>
  <rect x="0" y="30" width="1" height="1" fill="#c9c9c9c3"/>
  <rect x="1" y="30" width="1" height="1" fill="#c9c9c9"/>
  <rect x="8" y="30" width="1" height="1" fill="#c9c9c9"/>
  <rect x="9" y="30" width="1" height="1" fill="#c9c9c9b6"/>
  <rect x="1" y="31" width="1" height="1" fill="#c9c9c9db"/>
  <rect x="2" y="31" width="6" height="1" fill="#c9c9c9"/>
  <rect x="8" y="31" width="1" height="1" fill="#c9c9c988"/>
</svg>