<svg xmlns="http://www.w3.org/2000/svg" width="36" height="7" viewBox="0 0 36 7" shape-rendering="crispEdges">
  <rect x="22" y="1" width="1" height="1" fill="#727272"/>
  <rect x="4" y="2" width="1" height="1" fill="#acacac"/>
  <rect x="13" y="2" width="1" height="1" fill="#737373"/>
  <rect x="21" y="2" width="1" height="1" fill="#737373"/>
  <rect x="22" y="2" width="1" height="1" fill="#696969"/>
  <rect x="23" y="2" width="1" height="1" fill="#666666"/>
  <rect x="31" y="2" width="1" height="1" fill="#afafaf"/>
  <rect x="3" y="3" width="1" height="1" fill="#868686"/>
  <rect x="4" y="3" width="1" height="1" fill="#909090"/>
  <rect x="5" y="3" width="1" height="1" fill="#9b9b9b"/>
  <rect x="12" y="3" width="1" height="1" fill="#616161"/>
  <rect x="13" y="3" width="1" height="1" fill="#656565"/>
  <rect x="14" y="3" width="1" height="1" fill="#717171"/>
  <rect x="20" y="3" width="1" height="1" fill="#545454"/>
  <rect x="21" y="3" width="1" height="1" fill="#555555"/>
  <rect x="22" y="3" width="1" height="1" fill="#565656"/>
  <rect x="23" y="3" width="1" height="1" fill="#4f4f4f"/>
  <rect x="24" y="3" width="1" height="1" fill="#5b5b5b"/>
  <rect x="30" y="3" width="1" height="1" fill="#9e9e9e"/>
  <rect x="31" y="3" width="1" height="1" fill="#9b9b9b"/>
  <rect x="32" y="3" width="1" height="1" fill="#969696"/>
  <rect x="2" y="4" width="2" height="1" fill="#888888"/>
  <rect x="4" y="4" width="3" height="1" fill="#878787"/>
  <rect x="11" y="4" width="1" height="1" fill="#575757"/>
  <rect x="12" y="4" width="3" height="1" fill="#585858"/>
  <rect x="15" y="4" width="1" height="1" fill="#575757"/>
  <rect x="19" y="4" width="1" height="1" fill="#535353"/>
  <rect x="20" y="4" width="1" height="1" fill="#525152"/>
  <rect x="21" y="4" width="3" height="1" fill="#4c4c4c"/>
  <rect x="24" y="4" width="1" height="1" fill="#484848"/>
  <rect x="25" y="4" width="1" height="1" fill="#474747"/>
  <rect x="29" y="4" width="1" height="1" fill="#7a7a7a"/>
  <rect x="30" y="4" width="2" height="1" fill="#7b7b7b"/>
  <rect x="32" y="4" width="1" height="1" fill="#888888"/>
  <rect x="33" y="4" width="1" height="1" fill="#858585"/>
  <rect x="1" y="5" width="3" height="1" fill="#787878"/>
  <rect x="4" y="5" width="4" height="1" fill="#777777"/>
  <rect x="10" y="5" width="1" height="1" fill="#545454"/>
  <rect x="11" y="5" width="1" height="1" fill="#525152"/>
  <rect x="12" y="5" width="1" height="1" fill="#4e4e4e"/>
  <rect x="13" y="5" width="2" height="1" fill="#4d4d4d"/>
  <rect x="15" y="5" width="1" height="1" fill="#4e4e4e"/>
  <rect x="16" y="5" width="1" height="1" fill="#505050"/>
  <rect x="28" y="5" width="4" height="1" fill="#787878"/>
  <rect x="32" y="5" width="1" height="1" fill="#747474"/>
  <rect x="33" y="5" width="1" height="1" fill="#787878"/>
  <rect x="34" y="5" width="1" height="1" fill="#7e7e7e"/>
</svg>