<svg xmlns="http://www.w3.org/2000/svg" width="23" height="22" viewBox="0 0 23 22" shape-rendering="crispEdges">
  <rect x="7" y="6" width="1" height="1" fill="#87939efc"/>
  <rect x="8" y="6" width="1" height="1" fill="#7d8fa0"/>
  <rect x="9" y="6" width="1" height="1" fill="#899caf"/>
  <rect x="10" y="6" width="1" height="1" fill="#879daf"/>
  <rect x="12" y="6" width="1" height="1" fill="#8298ac"/>
  <rect x="13" y="6" width="1" height="1" fill="#879db1"/>
  <rect x="14" y="6" width="1" height="1" fill="#8096aa"/>
  <rect x="15" y="6" width="1" height="1" fill="#8797a4fc"/>
  <rect x="7" y="7" width="1" height="1" fill="#8493a328"/>
  <rect x="8" y="7" width="1" height="1" fill="#7990a6"/>
  <rect x="9" y="7" width="1" height="1" fill="#7c98b1"/>
  <rect x="10" y="7" width="1" height="1" fill="#e0f8ff"/>
  <rect x="11" y="7" width="1" height="1" fill="#e3fdff"/>
  <rect x="12" y="7" width="1" height="1" fill="#7292ae30"/>
  <rect x="13" y="7" width="1" height="1" fill="#7797b3"/>
  <rect x="14" y="7" width="1" height="1" fill="#7792ab"/>
  <rect x="15" y="7" width="1" height="1" fill="#e0f4ff"/>
  <rect x="16" y="7" width="1" height="1" fill="#f9fffffc"/>
  <rect x="8" y="8" width="1" height="1" fill="#7690a7"/>
  <rect x="9" y="8" width="1" height="1" fill="#7892a9"/>
  <rect x="10" y="8" width="1" height="1" fill="#f2ffff"/>
  <rect x="11" y="8" width="1" height="1" fill="#f2ffff30"/>
  <rect x="13" y="8" width="1" height="1" fill="#7197b8"/>
  <rect x="14" y="8" width="1" height="1" fill="#7c95ad"/>
  <rect x="15" y="8" width="1" height="1" fill="#f3ffff"/>
  <rect x="16" y="8" width="1" height="1" fill="#faffff2a"/>
  <rect x="8" y="9" width="1" height="1" fill="#758ea6"/>
  <rect x="9" y="9" width="1" height="2" fill="#708aa1"/>
  <rect x="10" y="9" width="1" height="1" fill="#f5ffff"/>
  <rect x="13" y="9" width="1" height="1" fill="#769bbc"/>
  <rect x="14" y="9" width="1" height="1" fill="#7990a6"/>
  <rect x="15" y="9" width="1" height="1" fill="#fcffff"/>
  <rect x="8" y="10" width="1" height="1" fill="#647e95"/>
  <rect x="10" y="10" width="1" height="1" fill="#e9f7ff"/>
  <rect x="13" y="10" width="1" height="1" fill="#6d91b0"/>
  <rect x="14" y="10" width="1" height="1" fill="#6e869b"/>
  <rect x="15" y="10" width="1" height="1" fill="#f2ffff"/>
  <rect x="8" y="11" width="1" height="1" fill="#667e93f3"/>
  <rect x="9" y="11" width="1" height="1" fill="#688299"/>
  <rect x="10" y="11" width="1" height="1" fill="#eaf9ff"/>
  <rect x="13" y="11" width="1" height="1" fill="#6a8aa6"/>
  <rect x="14" y="11" width="1" height="1" fill="#72899f"/>
  <rect x="15" y="11" width="1" height="1" fill="#e9f7ff"/>
  <rect x="8" y="12" width="1" height="1" fill="#6f8596a1"/>
  <rect x="9" y="12" width="1" height="1" fill="#677f96"/>
  <rect x="10" y="12" width="1" height="1" fill="#adc0d3"/>
  <rect x="11" y="12" width="1" height="1" fill="#b6cbdf14"/>
  <rect x="12" y="12" width="1" height="1" fill="#607c957b"/>
  <rect x="13" y="12" width="1" height="1" fill="#607e98"/>
  <rect x="14" y="12" width="1" height="1" fill="#98b0c5"/>
  <rect x="15" y="12" width="1" height="1" fill="#f8fffff7"/>
  <rect x="8" y="13" width="1" height="1" fill="#687c8e0c"/>
  <rect x="9" y="13" width="1" height="1" fill="#839bb0d9"/>
  <rect x="10" y="13" width="1" height="1" fill="#72889c"/>
  <rect x="11" y="13" width="1" height="1" fill="#5a7288fe"/>
  <rect x="12" y="13" width="1" height="1" fill="#5f7890e3"/>
  <rect x="13" y="13" width="1" height="1" fill="#839cb4c5"/>
  <rect x="14" y="13" width="1" height="1" fill="#e5fdff"/>
  <rect x="15" y="13" width="1" height="1" fill="#edffff9e"/>
  <rect x="9" y="14" width="1" height="1" fill="#f4ffff0c"/>
  <rect x="10" y="14" width="1" height="1" fill="#efffff98"/>
  <rect x="11" y="14" width="1" height="1" fill="#e8ffffe8"/>
  <rect x="12" y="14" width="1" height="1" fill="#edfffffd"/>
  <rect x="13" y="14" width="1" height="1" fill="#e7ffffe2"/>
  <rect x="14" y="14" width="1" height="1" fill="#e8ffff8f"/>
  <rect x="15" y="14" width="1" height="1" fill="#ecffff0a"/>
  <rect x="7" y="15" width="1" height="1" fill="#6c7277"/>
  <rect x="8" y="15" width="1" height="1" fill="#667381"/>
  <rect x="9" y="15" width="1" height="1" fill="#647686"/>
  <rect x="10" y="15" width="1" height="1" fill="#687c8e"/>
  <rect x="11" y="15" width="1" height="1" fill="#6a7e90"/>
  <rect x="12" y="15" width="1" height="1" fill="#5d6f7f"/>
  <rect x="13" y="15" width="1" height="1" fill="#647686"/>
  <rect x="14" y="15" width="1" height="1" fill="#637787"/>
  <rect x="15" y="15" width="1" height="1" fill="#6a7a87"/>
  <rect x="8" y="16" width="1" height="1" fill="#fcffff"/>
  <rect x="9" y="16" width="1" height="1" fill="#faffff"/>
  <rect x="10" y="16" width="5" height="1" fill="#f9ffff"/>
  <rect x="15" y="16" width="1" height="1" fill="#faffff"/>
  <rect x="16" y="16" width="1" height="1" fill="#fdffff"/>
</svg>