<svg xmlns="http://www.w3.org/2000/svg" width="49" height="16" viewBox="0 0 49 16" shape-rendering="crispEdges">
  <rect x="0" y="0" width="1" height="1" fill="#41559c9b"/>
  <rect x="1" y="0" width="1" height="1" fill="#41559c"/>
  <rect x="2" y="0" width="2" height="1" fill="#3f579a"/>
  <rect x="4" y="0" width="1" height="1" fill="#3e579c"/>
  <rect x="5" y="0" width="1" height="1" fill="#3e579e"/>
  <rect x="6" y="0" width="1" height="1" fill="#3c57a0"/>
  <rect x="7" y="0" width="1" height="1" fill="#3c57a2"/>
  <rect x="8" y="0" width="1" height="1" fill="#3b57a2"/>
  <rect x="9" y="0" width="1" height="1" fill="#3c57a0"/>
  <rect x="10" y="0" width="1" height="1" fill="#3f569e"/>
  <rect x="11" y="0" width="1" height="1" fill="#43559c"/>
  <rect x="12" y="0" width="1" height="2" fill="#44549a"/>
  <rect x="13" y="0" width="1" height="2" fill="#465496"/>
  <rect x="14" y="0" width="1" height="1" fill="#475490"/>
  <rect x="15" y="0" width="1" height="1" fill="#4b55849b"/>
  <rect x="33" y="0" width="1" height="1" fill="#6791c70b"/>
  <rect x="34" y="0" width="1" height="1" fill="#6196c678"/>
  <rect x="35" y="0" width="1" height="1" fill="#5a9ac6d2"/>
  <rect x="36" y="0" width="1" height="1" fill="#559cc8ed"/>
  <rect x="37" y="0" width="1" height="1" fill="#519dccfd"/>
  <rect x="38" y="0" width="1" height="1" fill="#4ea1d5fa"/>
  <rect x="39" y="0" width="1" height="1" fill="#4ca3d8e5"/>
  <rect x="40" y="0" width="1" height="1" fill="#4ca5d9de"/>
  <rect x="41" y="0" width="1" height="1" fill="#4ba7dade"/>
  <rect x="42" y="0" width="1" height="1" fill="#4cabdadd"/>
  <rect x="43" y="0" width="1" height="1" fill="#4aacdad8"/>
  <rect x="44" y="0" width="1" height="1" fill="#48aedce5"/>
  <rect x="45" y="0" width="1" height="1" fill="#45b0dcf8"/>
  <rect x="46" y="0" width="1" height="1" fill="#45b2ddf9"/>
  <rect x="47" y="0" width="1" height="1" fill="#45b2dbf9"/>
  <rect x="48" y="0" width="1" height="1" fill="#4bb7ddf3"/>
  <rect x="0" y="1" width="3" height="1" fill="#3f579a"/>
  <rect x="3" y="1" width="2" height="2" fill="#3e579a"/>
  <rect x="5" y="1" width="3" height="1" fill="#3e579c"/>
  <rect x="8" y="1" width="1" height="1" fill="#3c589c"/>
  <rect x="9" y="1" width="1" height="1" fill="#3e579c"/>
  <rect x="10" y="1" width="1" height="1" fill="#41559c"/>
  <rect x="11" y="1" width="1" height="1" fill="#43559a"/>
  <rect x="14" y="1" width="1" height="1" fill="#475492"/>
  <rect x="15" y="1" width="1" height="2" fill="#4b5586"/>
  <rect x="33" y="1" width="1" height="1" fill="#6790cd76"/>
  <rect x="34" y="1" width="1" height="1" fill="#6195cc"/>
  <rect x="35" y="1" width="1" height="1" fill="#5c98ca"/>
  <rect x="36" y="1" width="1" height="1" fill="#5a99c8"/>
  <rect x="37" y="1" width="1" height="1" fill="#599ac8ee"/>
  <rect x="38" y="1" width="1" height="1" fill="#5b9ccba0"/>
  <rect x="39" y="1" width="1" height="1" fill="#599fce24"/>
  <rect x="43" y="1" width="1" height="1" fill="#4cabda18"/>
  <rect x="44" y="1" width="1" height="1" fill="#4aaedc8c"/>
  <rect x="45" y="1" width="1" height="1" fill="#47afdcfb"/>
  <rect x="46" y="1" width="1" height="1" fill="#46b1dd"/>
  <rect x="47" y="1" width="1" height="1" fill="#45b2db"/>
  <rect x="48" y="1" width="1" height="1" fill="#4bb5dcf9"/>
  <rect x="0" y="2" width="2" height="1" fill="#3c5998"/>
  <rect x="2" y="2" width="1" height="1" fill="#3c589a"/>
  <rect x="5" y="2" width="1" height="1" fill="#3f5798d0"/>
  <rect x="6" y="2" width="1" height="1" fill="#41579420"/>
  <rect x="8" y="2" width="1" height="1" fill="#41579240"/>
  <rect x="9" y="2" width="1" height="1" fill="#415794d0"/>
  <rect x="10" y="2" width="1" height="1" fill="#435598"/>
  <rect x="11" y="2" width="2" height="1" fill="#44549a"/>
  <rect x="13" y="2" width="1" height="1" fill="#46539a"/>
  <rect x="14" y="2" width="1" height="1" fill="#475396"/>
  <rect x="33" y="2" width="1" height="1" fill="#698dd7d3"/>
  <rect x="34" y="2" width="1" height="1" fill="#6292d6"/>
  <rect x="35" y="2" width="1" height="1" fill="#5f95d0"/>
  <rect x="36" y="2" width="1" height="1" fill="#6495c6c1"/>
  <rect x="37" y="2" width="1" height="1" fill="#6c92be4e"/>
  <rect x="42" y="2" width="1" height="1" fill="#52a8d651"/>
  <rect x="43" y="2" width="1" height="1" fill="#4fa9dad7"/>
  <rect x="44" y="2" width="1" height="1" fill="#4caddc"/>
  <rect x="45" y="2" width="1" height="1" fill="#4aaedc"/>
  <rect x="46" y="2" width="1" height="1" fill="#48b0dd"/>
  <rect x="47" y="2" width="1" height="1" fill="#48b1db"/>
  <rect x="48" y="2" width="1" height="1" fill="#49b2daf9"/>
  <rect x="0" y="3" width="1" height="1" fill="#395b96"/>
  <rect x="1" y="3" width="1" height="1" fill="#395a98"/>
  <rect x="2" y="3" width="1" height="1" fill="#3b599c"/>
  <rect x="3" y="3" width="1" height="2" fill="#3c589c"/>
  <rect x="4" y="3" width="1" height="1" fill="#3f5798f0"/>
  <rect x="5" y="3" width="1" height="1" fill="#41579210"/>
  <rect x="9" y="3" width="1" height="1" fill="#44578a30"/>
  <rect x="10" y="3" width="1" height="1" fill="#445692"/>
  <rect x="11" y="3" width="1" height="1" fill="#445598"/>
  <rect x="12" y="3" width="1" height="1" fill="#43559c"/>
  <rect x="13" y="3" width="1" height="1" fill="#43559a"/>
  <rect x="14" y="3" width="1" height="1" fill="#445596"/>
  <rect x="15" y="3" width="1" height="1" fill="#475784"/>
  <rect x="33" y="3" width="1" height="1" fill="#658cdef6"/>
  <rect x="34" y="3" width="1" height="1" fill="#6190ddf9"/>
  <rect x="35" y="3" width="1" height="1" fill="#6191d585"/>
  <rect x="36" y="3" width="1" height="1" fill="#6790c90f"/>
  <rect x="41" y="3" width="1" height="1" fill="#54a4cd65"/>
  <rect x="42" y="3" width="1" height="1" fill="#54a5d7"/>
  <rect x="43" y="3" width="1" height="1" fill="#51a6d9"/>
  <rect x="44" y="3" width="1" height="1" fill="#4eaada"/>
  <rect x="45" y="3" width="1" height="1" fill="#4cabda"/>
  <rect x="46" y="3" width="1" height="1" fill="#4aaedc"/>
  <rect x="47" y="3" width="1" height="1" fill="#48afda"/>
  <rect x="48" y="3" width="1" height="1" fill="#4aaed8f9"/>
  <rect x="0" y="4" width="1" height="1" fill="#345d94"/>
  <rect x="1" y="4" width="1" height="1" fill="#365c96"/>
  <rect x="2" y="4" width="1" height="1" fill="#39599c"/>
  <rect x="4" y="4" width="1" height="1" fill="#415698c0"/>
  <rect x="10" y="4" width="1" height="1" fill="#44578ed0"/>
  <rect x="11" y="4" width="1" height="1" fill="#415698"/>
  <rect x="12" y="4" width="1" height="1" fill="#3e579c"/>
  <rect x="13" y="4" width="1" height="1" fill="#3c589a"/>
  <rect x="14" y="4" width="1" height="1" fill="#3e5990"/>
  <rect x="15" y="4" width="1" height="1" fill="#415b80"/>
  <rect x="27" y="4" width="1" height="1" fill="#082738"/>
  <rect x="33" y="4" width="1" height="1" fill="#5c8de5f3"/>
  <rect x="34" y="4" width="1" height="1" fill="#608ede69"/>
  <rect x="40" y="4" width="1" height="1" fill="#599dd60f"/>
  <rect x="41" y="4" width="1" height="1" fill="#55a1d7f0"/>
  <rect x="42" y="4" width="1" height="1" fill="#56a3db"/>
  <rect x="43" y="4" width="1" height="1" fill="#54a4db"/>
  <rect x="44" y="4" width="1" height="1" fill="#51a6db"/>
  <rect x="45" y="4" width="1" height="1" fill="#4ea8db"/>
  <rect x="46" y="4" width="1" height="1" fill="#4eaadc"/>
  <rect x="47" y="4" width="1" height="1" fill="#4cabda"/>
  <rect x="48" y="4" width="1" height="1" fill="#4eb0daf9"/>
  <rect x="0" y="5" width="1" height="1" fill="#316090"/>
  <rect x="1" y="5" width="1" height="1" fill="#335e94"/>
  <rect x="2" y="5" width="1" height="1" fill="#365b9c"/>
  <rect x="3" y="5" width="1" height="2" fill="#3b599c"/>
  <rect x="4" y="5" width="1" height="1" fill="#415796c0"/>
  <rect x="10" y="5" width="1" height="1" fill="#46568af0"/>
  <rect x="11" y="5" width="1" height="4" fill="#3f5796"/>
  <rect x="12" y="5" width="1" height="3" fill="#3b599c"/>
  <rect x="13" y="5" width="1" height="1" fill="#395a9a"/>
  <rect x="14" y="5" width="1" height="1" fill="#395c8e"/>
  <rect x="15" y="5" width="1" height="1" fill="#3c5d80"/>
  <rect x="27" y="5" width="1" height="1" fill="#002942"/>
  <rect x="28" y="5" width="1" height="1" fill="#002a40"/>
  <rect x="33" y="5" width="1" height="1" fill="#5a8ce2de"/>
  <rect x="37" y="5" width="1" height="1" fill="#5d91d62d"/>
  <rect x="38" y="5" width="1" height="1" fill="#5a96da1e"/>
  <rect x="40" y="5" width="1" height="1" fill="#569cdb0c"/>
  <rect x="41" y="5" width="1" height="1" fill="#569eda"/>
  <rect x="42" y="5" width="1" height="1" fill="#58a0dc"/>
  <rect x="43" y="5" width="1" height="1" fill="#57a2da"/>
  <rect x="44" y="5" width="1" height="1" fill="#53a3da"/>
  <rect x="45" y="5" width="1" height="1" fill="#50a5da"/>
  <rect x="46" y="5" width="1" height="1" fill="#4ea8dbdf"/>
  <rect x="47" y="5" width="1" height="1" fill="#4ca9d95a"/>
  <rect x="48" y="5" width="1" height="1" fill="#50add9e2"/>
  <rect x="0" y="6" width="1" height="1" fill="#2f618c"/>
  <rect x="1" y="6" width="1" height="1" fill="#316090"/>
  <rect x="2" y="6" width="1" height="1" fill="#345c9a"/>
  <rect x="4" y="6" width="1" height="1" fill="#41579660"/>
  <rect x="10" y="6" width="1" height="1" fill="#46578690"/>
  <rect x="13" y="6" width="1" height="2" fill="#375b9a"/>
  <rect x="14" y="6" width="1" height="2" fill="#375d90"/>
  <rect x="15" y="6" width="1" height="1" fill="#395e84"/>
  <rect x="18" y="6" width="1" height="1" fill="#0e2436"/>
  <rect x="19" y="6" width="2" height="1" fill="#0f2434"/>
  <rect x="21" y="6" width="2" height="1" fill="#0e2436"/>
  <rect x="23" y="6" width="1" height="1" fill="#0c2438"/>
  <rect x="24" y="6" width="1" height="1" fill="#0b253c"/>
  <rect x="25" y="6" width="1" height="1" fill="#08263e"/>
  <rect x="26" y="6" width="1" height="1" fill="#032840"/>
  <rect x="27" y="6" width="1" height="1" fill="#002940"/>
  <rect x="28" y="6" width="2" height="1" fill="#002b3e"/>
  <rect x="33" y="6" width="1" height="1" fill="#618cd4de"/>
  <rect x="36" y="6" width="1" height="1" fill="#5e90da6e"/>
  <rect x="37" y="6" width="1" height="1" fill="#5b92d6d0"/>
  <rect x="38" y="6" width="1" height="1" fill="#5c96d62f"/>
  <rect x="41" y="6" width="1" height="1" fill="#589bd9a4"/>
  <rect x="42" y="6" width="1" height="1" fill="#599edb"/>
  <rect x="43" y="6" width="1" height="1" fill="#579fdb"/>
  <rect x="44" y="6" width="1" height="1" fill="#54a1db"/>
  <rect x="45" y="6" width="1" height="1" fill="#51a2dba6"/>
  <rect x="46" y="6" width="1" height="1" fill="#4fa5dc28"/>
  <rect x="48" y="6" width="1" height="1" fill="#4eabd6dc"/>
  <rect x="0" y="7" width="1" height="1" fill="#31618c"/>
  <rect x="1" y="7" width="1" height="1" fill="#335f90"/>
  <rect x="2" y="7" width="1" height="2" fill="#345d98"/>
  <rect x="3" y="7" width="1" height="1" fill="#395a9a"/>
  <rect x="4" y="7" width="1" height="1" fill="#3f579650"/>
  <rect x="10" y="7" width="1" height="1" fill="#44588890"/>
  <rect x="15" y="7" width="1" height="1" fill="#395e86"/>
  <rect x="18" y="7" width="1" height="2" fill="#09263a"/>
  <rect x="19" y="7" width="3" height="1" fill="#0b253a"/>
  <rect x="22" y="7" width="1" height="2" fill="#09253c"/>
  <rect x="23" y="7" width="1" height="1" fill="#06273e"/>
  <rect x="24" y="7" width="1" height="1" fill="#032840"/>
  <rect x="25" y="7" width="1" height="1" fill="#012940"/>
  <rect x="26" y="7" width="1" height="1" fill="#002940"/>
  <rect x="27" y="7" width="1" height="1" fill="#002b3e"/>
  <rect x="28" y="7" width="1" height="1" fill="#002d3a"/>
  <rect x="29" y="7" width="1" height="1" fill="#002c3c"/>
  <rect x="30" y="7" width="1" height="1" fill="#002942"/>
  <rect x="33" y="7" width="1" height="1" fill="#6688cdde"/>
  <rect x="35" y="7" width="1" height="1" fill="#5e8cdc32"/>
  <rect x="36" y="7" width="1" height="1" fill="#5c8fdbea"/>
  <rect x="37" y="7" width="1" height="1" fill="#5c90d7"/>
  <rect x="38" y="7" width="1" height="1" fill="#5c94d566"/>
  <rect x="41" y="7" width="1" height="1" fill="#5a98d810"/>
  <rect x="42" y="7" width="1" height="1" fill="#599cda82"/>
  <rect x="43" y="7" width="1" height="1" fill="#579ddaae"/>
  <rect x="44" y="7" width="1" height="1" fill="#549fda53"/>
  <rect x="45" y="7" width="1" height="1" fill="#51a0da0a"/>
  <rect x="48" y="7" width="1" height="1" fill="#50a8d7de"/>
  <rect x="0" y="8" width="1" height="1" fill="#365e8e"/>
  <rect x="1" y="8" width="1" height="1" fill="#365d92"/>
  <rect x="3" y="8" width="1" height="1" fill="#375b9a"/>
  <rect x="4" y="8" width="1" height="1" fill="#3c5996f0"/>
  <rect x="5" y="8" width="1" height="1" fill="#43598410"/>
  <rect x="9" y="8" width="1" height="1" fill="#47578230"/>
  <rect x="10" y="8" width="1" height="1" fill="#44578cf0"/>
  <rect x="12" y="8" width="1" height="1" fill="#3c589c"/>
  <rect x="13" y="8" width="1" height="1" fill="#395a9a"/>
  <rect x="14" y="8" width="1" height="1" fill="#395c90"/>
  <rect x="15" y="8" width="1" height="1" fill="#3b5d86"/>
  <rect x="19" y="8" width="1" height="1" fill="#092638"/>
  <rect x="20" y="8" width="1" height="1" fill="#0b2538"/>
  <rect x="21" y="8" width="1" height="1" fill="#0b253a"/>
  <rect x="23" y="8" width="1" height="1" fill="#08263e"/>
  <rect x="24" y="8" width="1" height="1" fill="#062640"/>
  <rect x="25" y="8" width="1" height="1" fill="#032840"/>
  <rect x="26" y="8" width="1" height="1" fill="#002c3c"/>
  <rect x="27" y="8" width="1" height="1" fill="#002d3a"/>
  <rect x="28" y="8" width="1" height="1" fill="#002d36"/>
  <rect x="29" y="8" width="1" height="1" fill="#012a38"/>
  <rect x="33" y="8" width="1" height="1" fill="#6c85cdde"/>
  <rect x="35" y="8" width="1" height="1" fill="#6189e050"/>
  <rect x="36" y="8" width="1" height="1" fill="#5e8cda"/>
  <rect x="37" y="8" width="1" height="1" fill="#5c8ed6"/>
  <rect x="38" y="8" width="1" height="1" fill="#5e90d8d8"/>
  <rect x="39" y="8" width="1" height="1" fill="#5d91d62b"/>
  <rect x="47" y="8" width="1" height="1" fill="#4ea2da0d"/>
  <rect x="48" y="8" width="1" height="1" fill="#53a5dbe1"/>
  <rect x="0" y="9" width="1" height="1" fill="#395b96"/>
  <rect x="1" y="9" width="1" height="1" fill="#375b96"/>
  <rect x="2" y="9" width="2" height="1" fill="#365c98"/>
  <rect x="4" y="9" width="1" height="1" fill="#3b5a94"/>
  <rect x="5" y="9" width="1" height="1" fill="#415a8260"/>
  <rect x="9" y="9" width="1" height="1" fill="#465590a0"/>
  <rect x="10" y="9" width="1" height="1" fill="#435792"/>
  <rect x="11" y="9" width="1" height="1" fill="#415796"/>
  <rect x="12" y="9" width="1" height="1" fill="#3e579a"/>
  <rect x="13" y="9" width="1" height="1" fill="#3e579c"/>
  <rect x="14" y="9" width="1" height="1" fill="#3e5898"/>
  <rect x="15" y="9" width="1" height="1" fill="#3f598c"/>
  <rect x="27" y="9" width="1" height="1" fill="#002d34"/>
  <rect x="28" y="9" width="1" height="1" fill="#032b32"/>
  <rect x="33" y="9" width="1" height="1" fill="#6e82cdde"/>
  <rect x="35" y="9" width="1" height="1" fill="#638acd31"/>
  <rect x="36" y="9" width="1" height="1" fill="#608bd1eb"/>
  <rect x="37" y="9" width="1" height="1" fill="#5e8bd3"/>
  <rect x="38" y="9" width="1" height="1" fill="#5f8ed5"/>
  <rect x="39" y="9" width="1" height="1" fill="#5d8fd7cc"/>
  <rect x="40" y="9" width="1" height="1" fill="#5b92d832"/>
  <rect x="46" y="9" width="1" height="1" fill="#509fdb30"/>
  <rect x="47" y="9" width="1" height="1" fill="#4ea0dbb8"/>
  <rect x="48" y="9" width="1" height="1" fill="#53a3dcf9"/>
  <rect x="0" y="10" width="1" height="1" fill="#3b58a0"/>
  <rect x="1" y="10" width="1" height="1" fill="#39599e"/>
  <rect x="2" y="10" width="1" height="2" fill="#365b9c"/>
  <rect x="3" y="10" width="1" height="2" fill="#365c98"/>
  <rect x="4" y="10" width="1" height="1" fill="#395b94"/>
  <rect x="5" y="10" width="1" height="1" fill="#3f5b82c0"/>
  <rect x="9" y="10" width="1" height="1" fill="#44549c"/>
  <rect x="10" y="10" width="2" height="1" fill="#435696"/>
  <rect x="12" y="10" width="1" height="1" fill="#43559a"/>
  <rect x="13" y="10" width="1" height="1" fill="#4354a0"/>
  <rect x="14" y="10" width="1" height="1" fill="#4452a6"/>
  <rect x="15" y="10" width="1" height="1" fill="#465498"/>
  <rect x="27" y="10" width="1" height="1" fill="#042b2e"/>
  <rect x="33" y="10" width="1" height="1" fill="#7081cdde"/>
  <rect x="36" y="10" width="1" height="1" fill="#638dbe77"/>
  <rect x="37" y="10" width="1" height="1" fill="#608ccdfb"/>
  <rect x="38" y="10" width="1" height="1" fill="#608ed1"/>
  <rect x="39" y="10" width="1" height="1" fill="#5d90d3"/>
  <rect x="40" y="10" width="1" height="1" fill="#5d91d8ef"/>
  <rect x="41" y="10" width="1" height="1" fill="#5b92d895"/>
  <rect x="42" y="10" width="1" height="1" fill="#5a96da58"/>
  <rect x="43" y="10" width="1" height="1" fill="#5996da50"/>
  <rect x="44" y="10" width="1" height="1" fill="#5598da54"/>
  <rect x="45" y="10" width="1" height="1" fill="#529ada8c"/>
  <rect x="46" y="10" width="1" height="1" fill="#509ddcf0"/>
  <rect x="47" y="10" width="1" height="1" fill="#509dda"/>
  <rect x="48" y="10" width="1" height="1" fill="#53a0dafa"/>
  <rect x="0" y="11" width="1" height="1" fill="#3c55a8"/>
  <rect x="1" y="11" width="1" height="1" fill="#3b57a4"/>
  <rect x="4" y="11" width="1" height="1" fill="#395b94f0"/>
  <rect x="5" y="11" width="1" height="1" fill="#3e5c8270"/>
  <rect x="9" y="11" width="1" height="1" fill="#445594a0"/>
  <rect x="10" y="11" width="1" height="1" fill="#435792"/>
  <rect x="11" y="11" width="1" height="1" fill="#435694"/>
  <rect x="12" y="11" width="1" height="1" fill="#44549c"/>
  <rect x="13" y="11" width="1" height="1" fill="#4651a4"/>
  <rect x="14" y="11" width="1" height="1" fill="#474fac"/>
  <rect x="15" y="11" width="1" height="1" fill="#49529a"/>
  <rect x="33" y="11" width="1" height="1" fill="#6f7fd2dd"/>
  <rect x="36" y="11" width="1" height="1" fill="#638bbd13"/>
  <rect x="37" y="11" width="1" height="1" fill="#6089cdbd"/>
  <rect x="38" y="11" width="1" height="1" fill="#5f8dd2"/>
  <rect x="39" y="11" width="1" height="1" fill="#5e8dd4"/>
  <rect x="40" y="11" width="1" height="1" fill="#5d8fd9"/>
  <rect x="41" y="11" width="1" height="1" fill="#5c8fd9"/>
  <rect x="42" y="11" width="1" height="1" fill="#5c92db"/>
  <rect x="43" y="11" width="1" height="1" fill="#5994d9"/>
  <rect x="44" y="11" width="1" height="1" fill="#5696d9"/>
  <rect x="45" y="11" width="1" height="1" fill="#5398d9"/>
  <rect x="46" y="11" width="1" height="1" fill="#529ada"/>
  <rect x="47" y="11" width="1" height="1" fill="#519bd8"/>
  <rect x="48" y="11" width="1" height="1" fill="#539ed9f7"/>
  <rect x="0" y="12" width="1" height="1" fill="#3c55aa"/>
  <rect x="1" y="12" width="1" height="1" fill="#3b57a6"/>
  <rect x="2" y="12" width="1" height="1" fill="#365b9cd0"/>
  <rect x="3" y="12" width="1" height="1" fill="#365c9660"/>
  <rect x="4" y="12" width="1" height="1" fill="#395b9410"/>
  <rect x="10" y="12" width="1" height="1" fill="#43598620"/>
  <rect x="11" y="12" width="1" height="1" fill="#43579280"/>
  <rect x="12" y="12" width="1" height="1" fill="#44539ee0"/>
  <rect x="13" y="12" width="1" height="1" fill="#4651a6"/>
  <rect x="14" y="12" width="1" height="1" fill="#494fa8"/>
  <rect x="15" y="12" width="1" height="1" fill="#4b5294"/>
  <rect x="33" y="12" width="1" height="1" fill="#6f7bd9ec"/>
  <rect x="34" y="12" width="1" height="1" fill="#6a84c448"/>
  <rect x="37" y="12" width="1" height="1" fill="#6087d73c"/>
  <rect x="38" y="12" width="1" height="1" fill="#618bdae8"/>
  <rect x="39" y="12" width="2" height="1" fill="#5f8bda"/>
  <rect x="41" y="12" width="1" height="1" fill="#5e8cda"/>
  <rect x="42" y="12" width="1" height="1" fill="#5e8fdc"/>
  <rect x="43" y="12" width="1" height="1" fill="#5d90da"/>
  <rect x="44" y="12" width="1" height="1" fill="#5994db"/>
  <rect x="45" y="12" width="1" height="1" fill="#5696db"/>
  <rect x="46" y="12" width="1" height="1" fill="#5598dc"/>
  <rect x="47" y="12" width="1" height="1" fill="#5499da"/>
  <rect x="48" y="12" width="1" height="1" fill="#559bd8e4"/>
  <rect x="0" y="13" width="1" height="1" fill="#3c55a8"/>
  <rect x="1" y="13" width="1" height="1" fill="#3b57a240"/>
  <rect x="13" y="13" width="1" height="1" fill="#4652a260"/>
  <rect x="14" y="13" width="1" height="1" fill="#4950a2"/>
  <rect x="15" y="13" width="1" height="1" fill="#4b538e"/>
  <rect x="33" y="13" width="1" height="1" fill="#6c7ade"/>
  <rect x="34" y="13" width="1" height="1" fill="#697fd5cb"/>
  <rect x="35" y="13" width="1" height="1" fill="#6482d30a"/>
  <rect x="38" y="13" width="1" height="1" fill="#6187df91"/>
  <rect x="39" y="13" width="2" height="1" fill="#6089dd"/>
  <rect x="41" y="13" width="1" height="1" fill="#6089db"/>
  <rect x="42" y="13" width="1" height="1" fill="#608cdb"/>
  <rect x="43" y="13" width="1" height="1" fill="#5f8ddb"/>
  <rect x="44" y="13" width="1" height="1" fill="#5b91da"/>
  <rect x="45" y="13" width="1" height="1" fill="#5893da"/>
  <rect x="46" y="13" width="1" height="1" fill="#5795db"/>
  <rect x="47" y="13" width="1" height="1" fill="#5497d9"/>
  <rect x="48" y="13" width="1" height="1" fill="#579ad8b3"/>
  <rect x="0" y="14" width="1" height="1" fill="#3c57a0"/>
  <rect x="14" y="14" width="1" height="1" fill="#47529c"/>
  <rect x="15" y="14" width="1" height="1" fill="#49548c"/>
  <rect x="33" y="14" width="1" height="1" fill="#697be2fc"/>
  <rect x="34" y="14" width="1" height="1" fill="#677fdbfe"/>
  <rect x="35" y="14" width="1" height="1" fill="#6481d982"/>
  <rect x="39" y="14" width="1" height="1" fill="#6088e1d7"/>
  <rect x="40" y="14" width="1" height="1" fill="#6188dd"/>
  <rect x="41" y="14" width="1" height="1" fill="#6188db"/>
  <rect x="42" y="14" width="1" height="1" fill="#648bdb"/>
  <rect x="43" y="14" width="1" height="1" fill="#608cdb"/>
  <rect x="44" y="14" width="1" height="1" fill="#5e90da"/>
  <rect x="45" y="14" width="1" height="1" fill="#5b91da"/>
  <rect x="46" y="14" width="1" height="1" fill="#5994db"/>
  <rect x="47" y="14" width="1" height="1" fill="#5795d9fa"/>
  <rect x="48" y="14" width="1" height="1" fill="#579ad842"/>
  <rect x="0" y="15" width="1" height="1" fill="#3c589c9c"/>
  <rect x="1" y="15" width="1" height="1" fill="#3b5998"/>
  <rect x="2" y="15" width="2" height="1" fill="#365e8e"/>
  <rect x="4" y="15" width="1" height="1" fill="#39599c"/>
  <rect x="5" y="15" width="1" height="1" fill="#3e56a2"/>
  <rect x="6" y="15" width="1" height="1" fill="#4453a0"/>
  <rect x="7" y="15" width="1" height="1" fill="#4751a0"/>
  <rect x="8" y="15" width="1" height="1" fill="#4652a0"/>
  <rect x="9" y="15" width="1" height="1" fill="#44539e"/>
  <rect x="10" y="15" width="1" height="1" fill="#43559c"/>
  <rect x="11" y="15" width="1" height="1" fill="#435598"/>
  <rect x="12" y="15" width="1" height="1" fill="#445596"/>
  <rect x="13" y="15" width="1" height="1" fill="#465496"/>
  <rect x="14" y="15" width="1" height="1" fill="#475398"/>
  <rect x="15" y="15" width="1" height="1" fill="#49558a9c"/>
  <rect x="33" y="15" width="1" height="1" fill="#687be4f3"/>
  <rect x="34" y="15" width="1" height="1" fill="#677fddfa"/>
  <rect x="35" y="15" width="1" height="1" fill="#6481dbf3"/>
  <rect x="36" y="15" width="1" height="1" fill="#6283e0de"/>
  <rect x="37" y="15" width="1" height="1" fill="#6083e2de"/>
  <rect x="38" y="15" width="1" height="1" fill="#6187e3da"/>
  <rect x="39" y="15" width="1" height="1" fill="#6187e1f2"/>
  <rect x="40" y="15" width="1" height="1" fill="#6387dff9"/>
  <rect x="41" y="15" width="1" height="1" fill="#6387ddf9"/>
  <rect x="42" y="15" width="1" height="1" fill="#648addf9"/>
  <rect x="43" y="15" width="1" height="1" fill="#628cdbf9"/>
  <rect x="44" y="15" width="1" height="1" fill="#608fdaf6"/>
  <rect x="45" y="15" width="1" height="1" fill="#5d90dade"/>
  <rect x="46" y="15" width="1" height="1" fill="#5b93dbab"/>
  <rect x="47" y="15" width="1" height="1" fill="#5795d936"/>
</svg>