<svg xmlns="http://www.w3.org/2000/svg" width="52" height="14" viewBox="0 0 52 14" shape-rendering="crispEdges">
  <rect x="3" y="0" width="1" height="1" fill="#000d000a"/>
  <rect x="4" y="0" width="1" height="1" fill="#001a001f"/>
  <rect x="5" y="0" width="1" height="1" fill="#0021002e"/>
  <rect x="6" y="0" width="1" height="1" fill="#00250033"/>
  <rect x="7" y="0" width="1" height="1" fill="#0025002e"/>
  <rect x="8" y="0" width="1" height="1" fill="#0024001f"/>
  <rect x="9" y="0" width="1" height="1" fill="#000f000a"/>
  <rect x="16" y="0" width="1" height="1" fill="#4200000a"/>
  <rect x="17" y="0" width="1" height="1" fill="#5e00001f"/>
  <rect x="18" y="0" width="1" height="1" fill="#7400002e"/>
  <rect x="19" y="0" width="1" height="1" fill="#72000033"/>
  <rect x="20" y="0" width="1" height="1" fill="#7400002e"/>
  <rect x="21" y="0" width="1" height="1" fill="#6500001f"/>
  <rect x="22" y="0" width="1" height="1" fill="#3700000a"/>
  <rect x="29" y="0" width="1" height="1" fill="#00020a0a"/>
  <rect x="30" y="0" width="1" height="1" fill="#00040c1f"/>
  <rect x="31" y="0" width="1" height="1" fill="#0000042e"/>
  <rect x="32" y="0" width="1" height="1" fill="#00010033"/>
  <rect x="33" y="0" width="1" height="1" fill="#0006002e"/>
  <rect x="34" y="0" width="1" height="1" fill="#0000001f"/>
  <rect x="35" y="0" width="1" height="1" fill="#0000000a"/>
  <rect x="42" y="0" width="1" height="1" fill="#2300000a"/>
  <rect x="43" y="0" width="1" height="1" fill="#3500001f"/>
  <rect x="44" y="0" width="1" height="1" fill="#4200002e"/>
  <rect x="45" y="0" width="1" height="1" fill="#43000033"/>
  <rect x="46" y="0" width="1" height="1" fill="#3000002e"/>
  <rect x="47" y="0" width="1" height="1" fill="#2600001f"/>
  <rect x="48" y="0" width="1" height="1" fill="#1d00000a"/>
  <rect x="2" y="1" width="1" height="1" fill="#000c001c"/>
  <rect x="3" y="1" width="1" height="1" fill="#37611550"/>
  <rect x="4" y="1" width="1" height="1" fill="#7ab14caf"/>
  <rect x="5" y="1" width="1" height="1" fill="#74b740e9"/>
  <rect x="6" y="1" width="1" height="1" fill="#6dbb3afd"/>
  <rect x="7" y="1" width="1" height="1" fill="#6dbb38e9"/>
  <rect x="8" y="1" width="1" height="1" fill="#6dae34ad"/>
  <rect x="9" y="1" width="1" height="1" fill="#3163054d"/>
  <rect x="10" y="1" width="1" height="1" fill="#0001001c"/>
  <rect x="15" y="1" width="1" height="1" fill="#2c00001c"/>
  <rect x="16" y="1" width="1" height="1" fill="#840f0550"/>
  <rect x="17" y="1" width="1" height="1" fill="#d03c2eaf"/>
  <rect x="18" y="1" width="1" height="1" fill="#d43726e9"/>
  <rect x="19" y="1" width="1" height="1" fill="#de3d2bfd"/>
  <rect x="20" y="1" width="1" height="1" fill="#e03b31e9"/>
  <rect x="21" y="1" width="1" height="1" fill="#c7362ead"/>
  <rect x="22" y="1" width="1" height="1" fill="#710b044d"/>
  <rect x="23" y="1" width="1" height="1" fill="#3500001c"/>
  <rect x="28" y="1" width="1" height="1" fill="#0000031c"/>
  <rect x="29" y="1" width="1" height="1" fill="#626c7450"/>
  <rect x="30" y="1" width="1" height="1" fill="#c7ced9af"/>
  <rect x="31" y="1" width="1" height="1" fill="#dae2ebe9"/>
  <rect x="32" y="1" width="1" height="1" fill="#dde6e5fd"/>
  <rect x="33" y="1" width="1" height="1" fill="#d8e2dce9"/>
  <rect x="34" y="1" width="1" height="1" fill="#cbd0ccad"/>
  <rect x="35" y="1" width="1" height="1" fill="#6666664d"/>
  <rect x="36" y="1" width="1" height="1" fill="#0200001c"/>
  <rect x="41" y="1" width="1" height="1" fill="#1a00001c"/>
  <rect x="42" y="1" width="1" height="1" fill="#74430050"/>
  <rect x="43" y="1" width="1" height="1" fill="#d18d35af"/>
  <rect x="44" y="1" width="1" height="1" fill="#e89a3ee9"/>
  <rect x="45" y="1" width="1" height="1" fill="#f0a246fd"/>
  <rect x="46" y="1" width="1" height="1" fill="#e9a445e9"/>
  <rect x="47" y="1" width="1" height="1" fill="#c89140ad"/>
  <rect x="48" y="1" width="1" height="1" fill="#6c430d4d"/>
  <rect x="49" y="1" width="1" height="1" fill="#1500001c"/>
  <rect x="1" y="2" width="1" height="1" fill="#0012001c"/>
  <rect x="2" y="2" width="1" height="1" fill="#5385306e"/>
  <rect x="3" y="2" width="1" height="1" fill="#79b649f6"/>
  <rect x="4" y="2" width="1" height="1" fill="#7ac340"/>
  <rect x="5" y="2" width="1" height="1" fill="#75c835"/>
  <rect x="6" y="2" width="2" height="1" fill="#70cb33"/>
  <rect x="8" y="2" width="1" height="1" fill="#74cb3a"/>
  <rect x="9" y="2" width="1" height="1" fill="#71bc3df5"/>
  <rect x="10" y="2" width="1" height="1" fill="#46821c6d"/>
  <rect x="11" y="2" width="1" height="1" fill="#0017001b"/>
  <rect x="14" y="2" width="1" height="1" fill="#3400001c"/>
  <rect x="15" y="2" width="1" height="1" fill="#a531216e"/>
  <rect x="16" y="2" width="1" height="1" fill="#dc3f30f6"/>
  <rect x="17" y="2" width="1" height="1" fill="#ef3e2c"/>
  <rect x="18" y="2" width="1" height="1" fill="#f1432c"/>
  <rect x="19" y="2" width="1" height="1" fill="#e93b24"/>
  <rect x="20" y="2" width="1" height="1" fill="#e53422"/>
  <rect x="21" y="2" width="1" height="1" fill="#e33a2d"/>
  <rect x="22" y="2" width="1" height="1" fill="#d44236f5"/>
  <rect x="23" y="2" width="1" height="1" fill="#9c29226d"/>
  <rect x="24" y="2" width="1" height="1" fill="#3400001b"/>
  <rect x="27" y="2" width="1" height="1" fill="#0906071c"/>
  <rect x="28" y="2" width="1" height="1" fill="#919a9b6e"/>
  <rect x="29" y="2" width="1" height="1" fill="#d7e4e9f6"/>
  <rect x="30" y="2" width="1" height="1" fill="#dce5f4"/>
  <rect x="31" y="2" width="1" height="1" fill="#dde6f6"/>
  <rect x="32" y="2" width="1" height="1" fill="#d9e3e9"/>
  <rect x="33" y="2" width="1" height="1" fill="#dce8e8"/>
  <rect x="34" y="2" width="1" height="1" fill="#e5eeef"/>
  <rect x="35" y="2" width="1" height="1" fill="#dfe3e6f5"/>
  <rect x="36" y="2" width="1" height="1" fill="#9a979b6d"/>
  <rect x="37" y="2" width="1" height="1" fill="#0000001b"/>
  <rect x="40" y="2" width="1" height="1" fill="#2200001c"/>
  <rect x="41" y="2" width="1" height="1" fill="#a36c1b6e"/>
  <rect x="42" y="2" width="1" height="1" fill="#e59b3ef6"/>
  <rect x="43" y="2" width="1" height="1" fill="#f19d3a"/>
  <rect x="44" y="2" width="1" height="1" fill="#fb9f41"/>
  <rect x="45" y="2" width="1" height="1" fill="#f9a244"/>
  <rect x="46" y="2" width="1" height="1" fill="#ea9c3e"/>
  <rect x="47" y="2" width="1" height="1" fill="#e6a144"/>
  <rect x="48" y="2" width="1" height="1" fill="#dfa249f5"/>
  <rect x="49" y="2" width="1" height="1" fill="#99651e6d"/>
  <rect x="50" y="2" width="1" height="1" fill="#1d00001b"/>
  <rect x="0" y="3" width="1" height="1" fill="#0018000a"/>
  <rect x="1" y="3" width="1" height="1" fill="#2d68094f"/>
  <rect x="2" y="3" width="1" height="1" fill="#76b845f7"/>
  <rect x="3" y="3" width="1" height="1" fill="#7cc640"/>
  <rect x="4" y="3" width="1" height="1" fill="#73c62f"/>
  <rect x="5" y="3" width="1" height="1" fill="#6eca29"/>
  <rect x="6" y="3" width="1" height="1" fill="#6bcc29"/>
  <rect x="7" y="3" width="1" height="1" fill="#69cc2b"/>
  <rect x="8" y="3" width="1" height="1" fill="#69cb31"/>
  <rect x="9" y="3" width="1" height="1" fill="#6ac635"/>
  <rect x="10" y="3" width="1" height="1" fill="#71c43ff4"/>
  <rect x="11" y="3" width="1" height="1" fill="#2260004e"/>
  <rect x="13" y="3" width="1" height="1" fill="#1c00000a"/>
  <rect x="14" y="3" width="1" height="1" fill="#8015054f"/>
  <rect x="15" y="3" width="1" height="1" fill="#d53d2cf7"/>
  <rect x="16" y="3" width="1" height="1" fill="#ee4638"/>
  <rect x="17" y="3" width="1" height="1" fill="#e73c2d"/>
  <rect x="18" y="3" width="1" height="1" fill="#e23f2b"/>
  <rect x="19" y="3" width="1" height="1" fill="#dc3e29"/>
  <rect x="20" y="3" width="1" height="1" fill="#db3d29"/>
  <rect x="21" y="3" width="1" height="1" fill="#dc3e2d"/>
  <rect x="22" y="3" width="1" height="1" fill="#e54539"/>
  <rect x="23" y="3" width="1" height="1" fill="#cf433cf4"/>
  <rect x="24" y="3" width="1" height="1" fill="#7715144e"/>
  <rect x="26" y="3" width="1" height="1" fill="#1300000a"/>
  <rect x="27" y="3" width="1" height="1" fill="#6c696c4f"/>
  <rect x="28" y="3" width="1" height="1" fill="#dfe6e6f7"/>
  <rect x="29" y="3" width="1" height="1" fill="#d8e5ea"/>
  <rect x="30" y="3" width="1" height="1" fill="#e6f3ff"/>
  <rect x="31" y="3" width="1" height="1" fill="#737f94"/>
  <rect x="32" y="3" width="1" height="1" fill="#dbe9f7"/>
  <rect x="33" y="3" width="1" height="1" fill="#d9e6ef"/>
  <rect x="34" y="3" width="1" height="1" fill="#e1ebf3"/>
  <rect x="35" y="3" width="1" height="1" fill="#e2ebf1"/>
  <rect x="36" y="3" width="1" height="1" fill="#e1e3e7f4"/>
  <rect x="37" y="3" width="1" height="1" fill="#6361644e"/>
  <rect x="39" y="3" width="1" height="1" fill="#1601000a"/>
  <rect x="40" y="3" width="1" height="1" fill="#7b4a004f"/>
  <rect x="41" y="3" width="1" height="1" fill="#e7a13bf7"/>
  <rect x="42" y="3" width="1" height="1" fill="#eb9a34"/>
  <rect x="43" y="3" width="1" height="1" fill="#f59c38"/>
  <rect x="44" y="3" width="1" height="1" fill="#a44800"/>
  <rect x="45" y="3" width="1" height="1" fill="#a34c00"/>
  <rect x="46" y="3" width="1" height="1" fill="#984d00"/>
  <rect x="47" y="3" width="1" height="1" fill="#e79f3a"/>
  <rect x="48" y="3" width="1" height="1" fill="#eda436"/>
  <rect x="49" y="3" width="1" height="1" fill="#e3a141f4"/>
  <rect x="50" y="3" width="1" height="1" fill="#7643024e"/>
  <rect x="0" y="4" width="1" height="1" fill="#001e001f"/>
  <rect x="1" y="4" width="1" height="1" fill="#5da82db0"/>
  <rect x="2" y="4" width="1" height="1" fill="#71c036"/>
  <rect x="3" y="4" width="1" height="1" fill="#6ec22a"/>
  <rect x="4" y="4" width="1" height="1" fill="#6ac421"/>
  <rect x="5" y="4" width="1" height="1" fill="#6bc823"/>
  <rect x="6" y="4" width="1" height="1" fill="#68c927"/>
  <rect x="7" y="4" width="1" height="1" fill="#63c529"/>
  <rect x="8" y="4" width="1" height="1" fill="#63c632"/>
  <rect x="9" y="4" width="1" height="1" fill="#197c00"/>
  <rect x="10" y="4" width="1" height="1" fill="#68c838"/>
  <rect x="11" y="4" width="1" height="1" fill="#5ea63cad"/>
  <rect x="12" y="4" width="1" height="1" fill="#0007001e"/>
  <rect x="13" y="4" width="1" height="1" fill="#2400001f"/>
  <rect x="14" y="4" width="1" height="1" fill="#c53e37b0"/>
  <rect x="15" y="4" width="1" height="1" fill="#e1372e"/>
  <rect x="16" y="4" width="1" height="1" fill="#d34039"/>
  <rect x="17" y="4" width="1" height="1" fill="#c8453d"/>
  <rect x="18" y="4" width="1" height="1" fill="#c0493f"/>
  <rect x="19" y="4" width="1" height="1" fill="#c04e42"/>
  <rect x="20" y="4" width="1" height="1" fill="#c45244"/>
  <rect x="21" y="4" width="1" height="1" fill="#c94e41"/>
  <rect x="22" y="4" width="1" height="1" fill="#cd3f36"/>
  <rect x="23" y="4" width="1" height="1" fill="#d0443f"/>
  <rect x="24" y="4" width="1" height="1" fill="#ac3839ad"/>
  <rect x="25" y="4" width="1" height="1" fill="#3d00001e"/>
  <rect x="26" y="4" width="1" height="1" fill="#1800011f"/>
  <rect x="27" y="4" width="1" height="1" fill="#d3d0d6b0"/>
  <rect x="28" y="4" width="1" height="1" fill="#e1e7e7"/>
  <rect x="29" y="4" width="1" height="2" fill="#dce9ed"/>
  <rect x="30" y="4" width="1" height="1" fill="#dbe9ff"/>
  <rect x="31" y="4" width="1" height="1" fill="#7183a2"/>
  <rect x="32" y="4" width="1" height="1" fill="#dcecff"/>
  <rect x="33" y="4" width="1" height="1" fill="#ddecff"/>
  <rect x="34" y="4" width="1" height="1" fill="#dfecfc"/>
  <rect x="35" y="4" width="1" height="1" fill="#e0edf6"/>
  <rect x="36" y="4" width="1" height="1" fill="#ebf1f8"/>
  <rect x="37" y="4" width="1" height="1" fill="#cecfd3ad"/>
  <rect x="38" y="4" width="1" height="1" fill="#0505051e"/>
  <rect x="39" y="4" width="1" height="1" fill="#1301001f"/>
  <rect x="40" y="4" width="1" height="1" fill="#d49e51b0"/>
  <rect x="41" y="4" width="1" height="1" fill="#e9a13c"/>
  <rect x="42" y="4" width="1" height="1" fill="#ea9c3e"/>
  <rect x="43" y="4" width="1" height="1" fill="#9f4f00"/>
  <rect x="44" y="4" width="1" height="1" fill="#ffbb5a"/>
  <rect x="45" y="4" width="1" height="1" fill="#ffbd58"/>
  <rect x="46" y="4" width="1" height="1" fill="#f7b64f"/>
  <rect x="47" y="4" width="1" height="1" fill="#e5a237"/>
  <rect x="48" y="4" width="1" height="1" fill="#eda22e"/>
  <rect x="49" y="4" width="1" height="1" fill="#eea73b"/>
  <rect x="50" y="4" width="1" height="1" fill="#cd923dad"/>
  <rect x="51" y="4" width="1" height="1" fill="#2f00001e"/>
  <rect x="0" y="5" width="1" height="1" fill="#0029002e"/>
  <rect x="1" y="5" width="1" height="1" fill="#6cbd36e9"/>
  <rect x="2" y="5" width="1" height="1" fill="#6ec12e"/>
  <rect x="3" y="5" width="1" height="1" fill="#227600"/>
  <rect x="4" y="5" width="1" height="1" fill="#71c829"/>
  <rect x="5" y="5" width="1" height="1" fill="#6cc528"/>
  <rect x="6" y="5" width="1" height="1" fill="#6cc430"/>
  <rect x="7" y="5" width="1" height="1" fill="#6ec737"/>
  <rect x="8" y="5" width="1" height="1" fill="#197700"/>
  <rect x="9" y="5" width="1" height="1" fill="#147500"/>
  <rect x="10" y="5" width="1" height="1" fill="#69cc34"/>
  <rect x="11" y="5" width="1" height="1" fill="#76be4fe6"/>
  <rect x="12" y="5" width="1" height="1" fill="#0006002d"/>
  <rect x="13" y="5" width="1" height="1" fill="#2700002e"/>
  <rect x="14" y="5" width="1" height="1" fill="#cd3937e9"/>
  <rect x="15" y="5" width="1" height="1" fill="#e2362e"/>
  <rect x="16" y="5" width="1" height="1" fill="#ffdbd4"/>
  <rect x="17" y="5" width="1" height="1" fill="#ffe3de"/>
  <rect x="18" y="5" width="1" height="1" fill="#ffe5e2"/>
  <rect x="19" y="5" width="1" height="1" fill="#ffe6e2"/>
  <rect x="20" y="5" width="1" height="1" fill="#ffe8df"/>
  <rect x="21" y="5" width="1" height="1" fill="#ffe2d7"/>
  <rect x="22" y="5" width="1" height="1" fill="#ffded4"/>
  <rect x="23" y="5" width="1" height="1" fill="#ce3d37"/>
  <rect x="24" y="5" width="1" height="1" fill="#c94345e6"/>
  <rect x="25" y="5" width="1" height="1" fill="#4300002d"/>
  <rect x="26" y="5" width="1" height="1" fill="#1400002e"/>
  <rect x="27" y="5" width="1" height="1" fill="#e2e1e8e9"/>
  <rect x="28" y="5" width="1" height="1" fill="#e1e8e5"/>
  <rect x="30" y="5" width="1" height="1" fill="#d8eaff"/>
  <rect x="31" y="5" width="1" height="1" fill="#6e84a8"/>
  <rect x="32" y="5" width="1" height="1" fill="#d5e9ff"/>
  <rect x="33" y="5" width="1" height="1" fill="#d7e9ff"/>
  <rect x="34" y="5" width="1" height="1" fill="#d8e9ff"/>
  <rect x="35" y="5" width="1" height="1" fill="#dbe9f7"/>
  <rect x="36" y="5" width="1" height="1" fill="#e0eaf2"/>
  <rect x="37" y="5" width="1" height="1" fill="#dae0e2e6"/>
  <rect x="38" y="5" width="1" height="1" fill="#0000002d"/>
  <rect x="39" y="5" width="1" height="1" fill="#1404002e"/>
  <rect x="40" y="5" width="1" height="1" fill="#d49f4de9"/>
  <rect x="41" y="5" width="1" height="1" fill="#e9a13a"/>
  <rect x="42" y="5" width="1" height="1" fill="#e79e3e"/>
  <rect x="43" y="5" width="1" height="1" fill="#9a5100"/>
  <rect x="44" y="5" width="1" height="1" fill="#e79f38"/>
  <rect x="45" y="5" width="1" height="1" fill="#e7a137"/>
  <rect x="46" y="5" width="1" height="1" fill="#eba741"/>
  <rect x="47" y="5" width="1" height="1" fill="#e7a137"/>
  <rect x="48" y="5" width="1" height="1" fill="#f1a22b"/>
  <rect x="49" y="5" width="1" height="1" fill="#ec9f2a"/>
  <rect x="50" y="5" width="1" height="1" fill="#db9b38e6"/>
  <rect x="51" y="5" width="1" height="1" fill="#3100002d"/>
  <rect x="0" y="6" width="1" height="1" fill="#00290032"/>
  <rect x="1" y="6" width="1" height="1" fill="#71be3efd"/>
  <rect x="2" y="6" width="1" height="1" fill="#6cbb31"/>
  <rect x="3" y="6" width="1" height="1" fill="#368300"/>
  <rect x="4" y="6" width="1" height="1" fill="#287600"/>
  <rect x="5" y="6" width="1" height="1" fill="#6cb932"/>
  <rect x="6" y="6" width="1" height="1" fill="#6cb73c"/>
  <rect x="7" y="6" width="1" height="1" fill="#287200"/>
  <rect x="8" y="6" width="1" height="1" fill="#267800"/>
  <rect x="9" y="6" width="1" height="1" fill="#85da47"/>
  <rect x="10" y="6" width="1" height="1" fill="#6bc32a"/>
  <rect x="11" y="6" width="1" height="1" fill="#74b443fc"/>
  <rect x="12" y="6" width="1" height="1" fill="#00060032"/>
  <rect x="13" y="6" width="1" height="1" fill="#27000032"/>
  <rect x="14" y="6" width="1" height="1" fill="#c83d31fd"/>
  <rect x="15" y="6" width="1" height="1" fill="#da3b2c"/>
  <rect x="16" y="6" width="1" height="1" fill="#ffe2d9"/>
  <rect x="17" y="6" width="1" height="1" fill="#ffeae5"/>
  <rect x="18" y="6" width="2" height="1" fill="#ffe8eb"/>
  <rect x="20" y="6" width="1" height="1" fill="#ffe6e4"/>
  <rect x="21" y="6" width="1" height="1" fill="#ffe2da"/>
  <rect x="22" y="6" width="1" height="1" fill="#ffe3d6"/>
  <rect x="23" y="6" width="1" height="1" fill="#d8433a"/>
  <rect x="24" y="6" width="1" height="1" fill="#d94447fc"/>
  <rect x="25" y="6" width="1" height="1" fill="#4a000032"/>
  <rect x="26" y="6" width="1" height="1" fill="#14000032"/>
  <rect x="27" y="6" width="1" height="1" fill="#e8e6f0fd"/>
  <rect x="28" y="6" width="1" height="1" fill="#e1e7e7"/>
  <rect x="29" y="6" width="1" height="1" fill="#dce8ef"/>
  <rect x="30" y="6" width="1" height="1" fill="#d6eaff"/>
  <rect x="31" y="6" width="1" height="1" fill="#6b84ae"/>
  <rect x="32" y="6" width="1" height="1" fill="#d1e8ff"/>
  <rect x="33" y="6" width="1" height="1" fill="#d2e8ff"/>
  <rect x="34" y="6" width="1" height="1" fill="#d5e8ff"/>
  <rect x="35" y="6" width="1" height="1" fill="#d9e8fa"/>
  <rect x="36" y="6" width="1" height="1" fill="#dbe5ed"/>
  <rect x="37" y="6" width="1" height="1" fill="#e2e8ebfc"/>
  <rect x="38" y="6" width="1" height="1" fill="#00000032"/>
  <rect x="39" y="6" width="1" height="1" fill="#11040032"/>
  <rect x="40" y="6" width="1" height="1" fill="#d2a147fd"/>
  <rect x="41" y="6" width="1" height="1" fill="#e8a430"/>
  <rect x="42" y="6" width="1" height="1" fill="#e5a036"/>
  <rect x="43" y="6" width="1" height="1" fill="#995400"/>
  <rect x="44" y="6" width="1" height="1" fill="#eca632"/>
  <rect x="45" y="6" width="1" height="1" fill="#eda434"/>
  <rect x="46" y="6" width="1" height="1" fill="#9f5100"/>
  <rect x="47" y="6" width="1" height="1" fill="#a25000"/>
  <rect x="48" y="6" width="1" height="1" fill="#f59f28"/>
  <rect x="49" y="6" width="1" height="1" fill="#ee9d25"/>
  <rect x="50" y="6" width="1" height="1" fill="#e4a138fc"/>
  <rect x="51" y="6" width="1" height="1" fill="#30000032"/>
  <rect x="0" y="7" width="1" height="1" fill="#0020002e"/>
  <rect x="1" y="7" width="1" height="1" fill="#67af35ea"/>
  <rect x="2" y="7" width="1" height="1" fill="#6cb72c"/>
  <rect x="3" y="7" width="1" height="1" fill="#9de659"/>
  <rect x="4" y="7" width="1" height="1" fill="#317800"/>
  <rect x="5" y="7" width="1" height="1" fill="#2d7300"/>
  <rect x="6" y="7" width="1" height="1" fill="#2f7100"/>
  <rect x="7" y="7" width="1" height="1" fill="#2f7700"/>
  <rect x="8" y="7" width="1" height="1" fill="#92e555"/>
  <rect x="9" y="7" width="1" height="1" fill="#66bd21"/>
  <rect x="10" y="7" width="1" height="1" fill="#65bc1f"/>
  <rect x="11" y="7" width="1" height="1" fill="#75b63ee5"/>
  <rect x="12" y="7" width="1" height="1" fill="#0009002d"/>
  <rect x="13" y="7" width="1" height="1" fill="#2200002e"/>
  <rect x="14" y="7" width="1" height="1" fill="#c3402fea"/>
  <rect x="15" y="7" width="1" height="1" fill="#d93c2a"/>
  <rect x="16" y="7" width="1" height="1" fill="#a63021"/>
  <rect x="17" y="7" width="1" height="1" fill="#99342b"/>
  <rect x="18" y="7" width="2" height="1" fill="#9d3231"/>
  <rect x="20" y="7" width="1" height="1" fill="#992f2a"/>
  <rect x="21" y="7" width="1" height="1" fill="#a53025"/>
  <rect x="22" y="7" width="1" height="1" fill="#bb2c1d"/>
  <rect x="23" y="7" width="1" height="1" fill="#d03529"/>
  <rect x="24" y="7" width="1" height="1" fill="#d23e3ee5"/>
  <rect x="25" y="7" width="1" height="1" fill="#4a00002d"/>
  <rect x="26" y="7" width="1" height="1" fill="#1600002e"/>
  <rect x="27" y="7" width="1" height="1" fill="#dee0e4ea"/>
  <rect x="28" y="7" width="1" height="1" fill="#e1e8e5"/>
  <rect x="29" y="7" width="1" height="1" fill="#dde7ef"/>
  <rect x="30" y="7" width="1" height="1" fill="#d9e9ff"/>
  <rect x="31" y="7" width="1" height="1" fill="#7182aa"/>
  <rect x="32" y="7" width="1" height="1" fill="#7082a2"/>
  <rect x="33" y="7" width="1" height="1" fill="#72829c"/>
  <rect x="34" y="7" width="1" height="1" fill="#738298"/>
  <rect x="35" y="7" width="1" height="1" fill="#758292"/>
  <rect x="36" y="7" width="1" height="1" fill="#dae4ec"/>
  <rect x="37" y="7" width="1" height="1" fill="#dfe6e8e5"/>
  <rect x="38" y="7" width="1" height="1" fill="#0004022d"/>
  <rect x="39" y="7" width="1" height="1" fill="#0d00002e"/>
  <rect x="40" y="7" width="1" height="1" fill="#d5a045ea"/>
  <rect x="41" y="7" width="1" height="1" fill="#eba32e"/>
  <rect x="42" y="7" width="1" height="1" fill="#e7a034"/>
  <rect x="43" y="7" width="1" height="1" fill="#995300"/>
  <rect x="44" y="7" width="1" height="1" fill="#e9a236"/>
  <rect x="45" y="7" width="1" height="1" fill="#e69c34"/>
  <rect x="46" y="7" width="1" height="1" fill="#ffb75e"/>
  <rect x="47" y="7" width="1" height="1" fill="#a24f00"/>
  <rect x="48" y="7" width="1" height="1" fill="#f39b27"/>
  <rect x="49" y="7" width="1" height="1" fill="#f4a32c"/>
  <rect x="50" y="7" width="1" height="1" fill="#e09e3ae5"/>
  <rect x="51" y="7" width="1" height="1" fill="#2d00002d"/>
  <rect x="0" y="8" width="1" height="1" fill="#001e001f"/>
  <rect x="1" y="8" width="1" height="1" fill="#66a432b0"/>
  <rect x="2" y="8" width="1" height="1" fill="#7dc330"/>
  <rect x="3" y="8" width="1" height="1" fill="#72b821"/>
  <rect x="4" y="8" width="1" height="1" fill="#8fd452"/>
  <rect x="5" y="8" width="1" height="1" fill="#276a00"/>
  <rect x="6" y="8" width="1" height="1" fill="#256b00"/>
  <rect x="7" y="8" width="1" height="1" fill="#89d852"/>
  <rect x="8" y="8" width="1" height="1" fill="#65c525"/>
  <rect x="9" y="8" width="1" height="1" fill="#57bc10"/>
  <rect x="10" y="8" width="1" height="1" fill="#6ac81f"/>
  <rect x="11" y="8" width="1" height="1" fill="#5ea524aa"/>
  <rect x="12" y="8" width="1" height="1" fill="#001b001e"/>
  <rect x="13" y="8" width="1" height="1" fill="#1a00001f"/>
  <rect x="14" y="8" width="1" height="1" fill="#b93c2bb0"/>
  <rect x="15" y="8" width="1" height="1" fill="#e13926"/>
  <rect x="16" y="8" width="1" height="1" fill="#dc3b28"/>
  <rect x="17" y="8" width="1" height="1" fill="#db3f2b"/>
  <rect x="18" y="8" width="1" height="1" fill="#e04130"/>
  <rect x="19" y="8" width="1" height="1" fill="#df402f"/>
  <rect x="20" y="8" width="1" height="1" fill="#de3f2e"/>
  <rect x="21" y="8" width="1" height="1" fill="#e03d29"/>
  <rect x="22" y="8" width="1" height="1" fill="#e73b26"/>
  <rect x="23" y="8" width="1" height="1" fill="#e34131"/>
  <rect x="24" y="8" width="1" height="1" fill="#be3833aa"/>
  <rect x="25" y="8" width="1" height="1" fill="#3b00001e"/>
  <rect x="26" y="8" width="1" height="1" fill="#1300001f"/>
  <rect x="27" y="8" width="1" height="1" fill="#c7cdc5b0"/>
  <rect x="28" y="8" width="1" height="1" fill="#dde5e0"/>
  <rect x="29" y="8" width="1" height="1" fill="#e1e6ed"/>
  <rect x="30" y="8" width="1" height="1" fill="#e5e3ff"/>
  <rect x="31" y="8" width="1" height="1" fill="#e1e1fe"/>
  <rect x="32" y="8" width="1" height="1" fill="#dde1f4"/>
  <rect x="33" y="8" width="1" height="1" fill="#dfe6f1"/>
  <rect x="34" y="8" width="1" height="1" fill="#e8edf6"/>
  <rect x="35" y="8" width="1" height="1" fill="#dee4ed"/>
  <rect x="36" y="8" width="1" height="1" fill="#dde3ea"/>
  <rect x="37" y="8" width="1" height="1" fill="#c8cfd1aa"/>
  <rect x="38" y="8" width="1" height="1" fill="#0002031e"/>
  <rect x="39" y="8" width="1" height="1" fill="#1604001f"/>
  <rect x="40" y="8" width="1" height="1" fill="#ce913bb0"/>
  <rect x="41" y="8" width="1" height="1" fill="#ef9d30"/>
  <rect x="42" y="8" width="1" height="1" fill="#ea993c"/>
  <rect x="43" y="8" width="1" height="1" fill="#ffbd68"/>
  <rect x="44" y="8" width="1" height="1" fill="#954c00"/>
  <rect x="45" y="8" width="1" height="1" fill="#924c00"/>
  <rect x="46" y="8" width="1" height="1" fill="#914d00"/>
  <rect x="47" y="8" width="1" height="1" fill="#ffbb5a"/>
  <rect x="48" y="8" width="1" height="1" fill="#ec9a28"/>
  <rect x="49" y="8" width="1" height="1" fill="#ed9f31"/>
  <rect x="50" y="8" width="1" height="1" fill="#c58f36aa"/>
  <rect x="51" y="8" width="1" height="1" fill="#2900001e"/>
  <rect x="0" y="9" width="1" height="1" fill="#0016000a"/>
  <rect x="1" y="9" width="1" height="1" fill="#295c004d"/>
  <rect x="2" y="9" width="1" height="1" fill="#71ae23f5"/>
  <rect x="3" y="9" width="1" height="1" fill="#72b71b"/>
  <rect x="4" y="9" width="1" height="1" fill="#74b932"/>
  <rect x="5" y="9" width="1" height="1" fill="#8fd857"/>
  <rect x="6" y="9" width="1" height="1" fill="#8dda52"/>
  <rect x="7" y="9" width="1" height="1" fill="#6ac02a"/>
  <rect x="8" y="9" width="1" height="1" fill="#65c71d"/>
  <rect x="9" y="9" width="1" height="1" fill="#5dbd12"/>
  <rect x="10" y="9" width="1" height="1" fill="#64b61df3"/>
  <rect x="11" y="9" width="1" height="1" fill="#2a68004d"/>
  <rect x="13" y="9" width="1" height="1" fill="#1402000a"/>
  <rect x="14" y="9" width="1" height="1" fill="#7610004d"/>
  <rect x="15" y="9" width="1" height="1" fill="#dd4330f5"/>
  <rect x="16" y="9" width="1" height="1" fill="#ed412c"/>
  <rect x="17" y="9" width="1" height="1" fill="#ec351e"/>
  <rect x="18" y="9" width="1" height="1" fill="#e9321c"/>
  <rect x="19" y="9" width="1" height="1" fill="#f13a24"/>
  <rect x="20" y="9" width="1" height="1" fill="#e42c16"/>
  <rect x="21" y="9" width="1" height="1" fill="#ec351e"/>
  <rect x="22" y="9" width="1" height="1" fill="#f03923"/>
  <rect x="23" y="9" width="1" height="1" fill="#dd412ff3"/>
  <rect x="24" y="9" width="1" height="1" fill="#7a10064d"/>
  <rect x="26" y="9" width="1" height="1" fill="#0c00000a"/>
  <rect x="27" y="9" width="1" height="1" fill="#5a61534d"/>
  <rect x="28" y="9" width="1" height="1" fill="#e1e6e2f5"/>
  <rect x="29" y="9" width="1" height="1" fill="#e3e3ec"/>
  <rect x="30" y="9" width="1" height="1" fill="#e9e4f8"/>
  <rect x="31" y="9" width="1" height="1" fill="#e6def5"/>
  <rect x="32" y="9" width="1" height="1" fill="#e4e3ec"/>
  <rect x="33" y="9" width="1" height="1" fill="#e6e8ec"/>
  <rect x="34" y="9" width="2" height="1" fill="#e0e2e6"/>
  <rect x="36" y="9" width="1" height="1" fill="#dfe2e8f3"/>
  <rect x="37" y="9" width="1" height="1" fill="#5c60644d"/>
  <rect x="39" y="9" width="1" height="1" fill="#1505000a"/>
  <rect x="40" y="9" width="1" height="1" fill="#7439004d"/>
  <rect x="41" y="9" width="1" height="1" fill="#ea9a3af5"/>
  <rect x="42" y="9" width="1" height="1" fill="#ea9b42"/>
  <rect x="43" y="9" width="1" height="1" fill="#eb9e48"/>
  <rect x="44" y="9" width="1" height="1" fill="#ffb766"/>
  <rect x="45" y="9" width="1" height="1" fill="#ffbb68"/>
  <rect x="46" y="9" width="1" height="1" fill="#ffba62"/>
  <rect x="47" y="9" width="1" height="1" fill="#eba446"/>
  <rect x="48" y="9" width="1" height="1" fill="#eb9f35"/>
  <rect x="49" y="9" width="1" height="1" fill="#e19f3ff3"/>
  <rect x="50" y="9" width="1" height="1" fill="#6942004d"/>
  <rect x="1" y="10" width="1" height="1" fill="#000c001b"/>
  <rect x="2" y="10" width="1" height="1" fill="#4277016d"/>
  <rect x="3" y="10" width="1" height="1" fill="#70b31df5"/>
  <rect x="4" y="10" width="1" height="1" fill="#69b61f"/>
  <rect x="5" y="10" width="1" height="1" fill="#67bb1f"/>
  <rect x="6" y="10" width="1" height="1" fill="#62bf1b"/>
  <rect x="7" y="10" width="1" height="1" fill="#5ebe15"/>
  <rect x="8" y="10" width="1" height="1" fill="#61ba0f"/>
  <rect x="9" y="10" width="1" height="1" fill="#69b41bf3"/>
  <rect x="10" y="10" width="1" height="1" fill="#46780568"/>
  <rect x="11" y="10" width="1" height="1" fill="#0017001b"/>
  <rect x="14" y="10" width="1" height="1" fill="#2f00001b"/>
  <rect x="15" y="10" width="1" height="1" fill="#9e2d1c6d"/>
  <rect x="16" y="10" width="1" height="1" fill="#d23826f5"/>
  <rect x="17" y="10" width="1" height="1" fill="#e63523"/>
  <rect x="18" y="10" width="1" height="1" fill="#e73624"/>
  <rect x="19" y="10" width="2" height="1" fill="#ea3928"/>
  <rect x="21" y="10" width="1" height="1" fill="#ee3d2b"/>
  <rect x="22" y="10" width="1" height="1" fill="#e02f1df3"/>
  <rect x="23" y="10" width="1" height="1" fill="#af231068"/>
  <rect x="24" y="10" width="1" height="1" fill="#3200001b"/>
  <rect x="27" y="10" width="1" height="1" fill="#0009001b"/>
  <rect x="28" y="10" width="1" height="1" fill="#9a9f9d6d"/>
  <rect x="29" y="10" width="1" height="1" fill="#e6e7eef5"/>
  <rect x="30" y="10" width="2" height="1" fill="#e6e6f6"/>
  <rect x="32" y="10" width="1" height="1" fill="#e5e6ef"/>
  <rect x="33" y="10" width="1" height="1" fill="#e0e2e6"/>
  <rect x="34" y="10" width="1" height="1" fill="#e7e9ed"/>
  <rect x="35" y="10" width="1" height="1" fill="#e7e9edf3"/>
  <rect x="36" y="10" width="1" height="1" fill="#8e8f9368"/>
  <rect x="37" y="10" width="1" height="1" fill="#04060a1b"/>
  <rect x="40" y="10" width="1" height="1" fill="#2200001b"/>
  <rect x="41" y="10" width="1" height="1" fill="#9f5e106d"/>
  <rect x="42" y="10" width="1" height="1" fill="#e1a042f5"/>
  <rect x="43" y="10" width="1" height="1" fill="#e7a139"/>
  <rect x="44" y="10" width="1" height="1" fill="#e99d33"/>
  <rect x="45" y="10" width="1" height="1" fill="#ed9d34"/>
  <rect x="46" y="10" width="1" height="1" fill="#f49d3d"/>
  <rect x="47" y="10" width="1" height="1" fill="#e69339"/>
  <rect x="48" y="10" width="1" height="1" fill="#dd983bf3"/>
  <rect x="49" y="10" width="1" height="1" fill="#96671c68"/>
  <rect x="50" y="10" width="1" height="1" fill="#0f00001b"/>
  <rect x="2" y="11" width="1" height="1" fill="#0017001b"/>
  <rect x="3" y="11" width="1" height="1" fill="#1d4f004b"/>
  <rect x="4" y="11" width="1" height="1" fill="#66a12eab"/>
  <rect x="5" y="11" width="1" height="1" fill="#68ac31e6"/>
  <rect x="6" y="11" width="1" height="1" fill="#63af2df8"/>
  <rect x="7" y="11" width="1" height="1" fill="#5ea824e5"/>
  <rect x="8" y="11" width="1" height="1" fill="#589a1da9"/>
  <rect x="9" y="11" width="1" height="1" fill="#1e4f004b"/>
  <rect x="10" y="11" width="1" height="1" fill="#0010001b"/>
  <rect x="15" y="11" width="1" height="1" fill="#3000001b"/>
  <rect x="16" y="11" width="1" height="1" fill="#8114074b"/>
  <rect x="17" y="11" width="1" height="1" fill="#c23e32ab"/>
  <rect x="18" y="11" width="1" height="1" fill="#d04c40e6"/>
  <rect x="19" y="11" width="1" height="1" fill="#c74336f8"/>
  <rect x="20" y="11" width="1" height="1" fill="#c94539e5"/>
  <rect x="21" y="11" width="1" height="1" fill="#bb372ba9"/>
  <rect x="22" y="11" width="1" height="1" fill="#8f0b004b"/>
  <rect x="23" y="11" width="1" height="1" fill="#4400001b"/>
  <rect x="28" y="11" width="1" height="1" fill="#0106051b"/>
  <rect x="29" y="11" width="1" height="1" fill="#55595f4b"/>
  <rect x="30" y="11" width="1" height="1" fill="#c2c4cfab"/>
  <rect x="31" y="11" width="1" height="1" fill="#d7d9e4e6"/>
  <rect x="32" y="11" width="1" height="1" fill="#e0e2e8f8"/>
  <rect x="33" y="11" width="1" height="1" fill="#dcdde1e5"/>
  <rect x="34" y="11" width="1" height="1" fill="#cbcdd1a9"/>
  <rect x="35" y="11" width="1" height="1" fill="#6465694b"/>
  <rect x="36" y="11" width="1" height="1" fill="#05070b1b"/>
  <rect x="41" y="11" width="1" height="1" fill="#2300001b"/>
  <rect x="42" y="11" width="1" height="1" fill="#693e004b"/>
  <rect x="43" y="11" width="1" height="1" fill="#c0903cab"/>
  <rect x="44" y="11" width="1" height="1" fill="#daa24ae6"/>
  <rect x="45" y="11" width="1" height="1" fill="#e1a24cf8"/>
  <rect x="46" y="11" width="1" height="1" fill="#da944ae5"/>
  <rect x="47" y="11" width="1" height="1" fill="#ce8e4ba9"/>
  <rect x="48" y="11" width="1" height="1" fill="#6d3d004b"/>
  <rect x="49" y="11" width="1" height="1" fill="#1800001b"/>
  <rect x="4" y="12" width="1" height="1" fill="#000c001e"/>
  <rect x="5" y="12" width="1" height="1" fill="#000c002d"/>
  <rect x="6" y="12" width="1" height="1" fill="#000d0031"/>
  <rect x="7" y="12" width="1" height="1" fill="#000f002c"/>
  <rect x="8" y="12" width="1" height="1" fill="#000c001e"/>
  <rect x="17" y="12" width="1" height="1" fill="#2300001e"/>
  <rect x="18" y="12" width="1" height="1" fill="#2300002d"/>
  <rect x="19" y="12" width="1" height="1" fill="#23000031"/>
  <rect x="20" y="12" width="1" height="1" fill="#1b00002c"/>
  <rect x="21" y="12" width="1" height="1" fill="#2800001e"/>
  <rect x="30" y="12" width="1" height="1" fill="#0002041e"/>
  <rect x="31" y="12" width="1" height="1" fill="#0000002d"/>
  <rect x="32" y="12" width="1" height="1" fill="#00010531"/>
  <rect x="33" y="12" width="1" height="1" fill="#0001052c"/>
  <rect x="34" y="12" width="1" height="1" fill="#0001051e"/>
  <rect x="43" y="12" width="1" height="1" fill="#1100001e"/>
  <rect x="44" y="12" width="1" height="1" fill="#0e00002d"/>
  <rect x="45" y="12" width="1" height="1" fill="#0f000031"/>
  <rect x="46" y="12" width="1" height="1" fill="#0e00002c"/>
  <rect x="47" y="12" width="1" height="1" fill="#1100001e"/>
</svg>