<svg xmlns="http://www.w3.org/2000/svg" width="30" height="30" viewBox="0 0 30 30" shape-rendering="crispEdges">
  <rect x="7" y="0" width="1" height="1" fill="#c90a347f"/>
  <rect x="8" y="0" width="1" height="1" fill="#cd0733"/>
  <rect x="9" y="0" width="1" height="1" fill="#ce012f"/>
  <rect x="10" y="0" width="1" height="1" fill="#d80031"/>
  <rect x="11" y="0" width="1" height="1" fill="#c70028"/>
  <rect x="12" y="0" width="1" height="1" fill="#b70b2c"/>
  <rect x="13" y="0" width="1" height="1" fill="#bb1735"/>
  <rect x="14" y="0" width="1" height="1" fill="#be042a"/>
  <rect x="15" y="0" width="1" height="1" fill="#c9002b"/>
  <rect x="16" y="0" width="1" height="1" fill="#d70734"/>
  <rect x="17" y="0" width="1" height="1" fill="#dc0a38"/>
  <rect x="18" y="0" width="1" height="1" fill="#d60432"/>
  <rect x="19" y="0" width="1" height="1" fill="#d2002d"/>
  <rect x="20" y="0" width="1" height="1" fill="#d4022e"/>
  <rect x="21" y="0" width="1" height="1" fill="#d5032f"/>
  <rect x="22" y="0" width="2" height="1" fill="#d60530"/>
  <rect x="24" y="0" width="1" height="1" fill="#d50530"/>
  <rect x="25" y="0" width="1" height="1" fill="#d30630"/>
  <rect x="26" y="0" width="1" height="1" fill="#d50530"/>
  <rect x="27" y="0" width="1" height="1" fill="#d60530"/>
  <rect x="28" y="0" width="1" height="1" fill="#db0230"/>
  <rect x="29" y="0" width="1" height="1" fill="#dd013080"/>
  <rect x="6" y="1" width="1" height="1" fill="#c90c357f"/>
  <rect x="7" y="1" width="1" height="1" fill="#cf0935"/>
  <rect x="8" y="1" width="2" height="1" fill="#d50836"/>
  <rect x="10" y="1" width="1" height="1" fill="#d60d3a"/>
  <rect x="11" y="1" width="1" height="1" fill="#c20c33"/>
  <rect x="12" y="1" width="1" height="1" fill="#d03a54"/>
  <rect x="13" y="1" width="1" height="1" fill="#ff91a8"/>
  <rect x="14" y="1" width="1" height="1" fill="#ff829e"/>
  <rect x="15" y="1" width="1" height="1" fill="#c61538"/>
  <rect x="16" y="1" width="1" height="1" fill="#ca042d"/>
  <rect x="17" y="1" width="1" height="1" fill="#d60432"/>
  <rect x="18" y="1" width="2" height="1" fill="#d50331"/>
  <rect x="20" y="1" width="4" height="1" fill="#d60530"/>
  <rect x="24" y="1" width="2" height="1" fill="#d5062e"/>
  <rect x="26" y="1" width="1" height="1" fill="#d3072e"/>
  <rect x="27" y="1" width="1" height="1" fill="#cd0930"/>
  <rect x="28" y="1" width="1" height="1" fill="#be103280"/>
  <rect x="5" y="2" width="1" height="1" fill="#c80b347f"/>
  <rect x="6" y="2" width="1" height="1" fill="#ce0834"/>
  <rect x="7" y="2" width="1" height="2" fill="#d50534"/>
  <rect x="8" y="2" width="1" height="1" fill="#d6002d"/>
  <rect x="9" y="2" width="1" height="1" fill="#cd002e"/>
  <rect x="10" y="2" width="1" height="1" fill="#b90f32"/>
  <rect x="11" y="2" width="1" height="1" fill="#f36b82"/>
  <rect x="12" y="2" width="1" height="1" fill="#ffd8e3"/>
  <rect x="13" y="2" width="1" height="1" fill="#ffb5bb"/>
  <rect x="14" y="2" width="1" height="1" fill="#ffd7df"/>
  <rect x="15" y="2" width="1" height="1" fill="#ffacbe"/>
  <rect x="16" y="2" width="1" height="1" fill="#c50d32"/>
  <rect x="17" y="2" width="1" height="1" fill="#db0937"/>
  <rect x="18" y="2" width="1" height="1" fill="#d70533"/>
  <rect x="19" y="2" width="1" height="2" fill="#d60432"/>
  <rect x="20" y="2" width="3" height="5" fill="#d60530"/>
  <rect x="23" y="2" width="1" height="1" fill="#d6052e"/>
  <rect x="24" y="2" width="1" height="1" fill="#d80528"/>
  <rect x="25" y="2" width="1" height="1" fill="#d60628"/>
  <rect x="26" y="2" width="1" height="1" fill="#d1082c"/>
  <rect x="27" y="2" width="1" height="1" fill="#b8143080"/>
  <rect x="4" y="3" width="1" height="1" fill="#c80b347f"/>
  <rect x="5" y="3" width="1" height="1" fill="#cd0934"/>
  <rect x="6" y="3" width="1" height="1" fill="#d00734"/>
  <rect x="8" y="3" width="1" height="1" fill="#d0002e"/>
  <rect x="9" y="3" width="1" height="1" fill="#c2072f"/>
  <rect x="10" y="3" width="1" height="1" fill="#f9748a"/>
  <rect x="11" y="3" width="1" height="1" fill="#ffc9d6"/>
  <rect x="12" y="3" width="1" height="1" fill="#e27983"/>
  <rect x="13" y="3" width="1" height="1" fill="#96353c"/>
  <rect x="14" y="3" width="1" height="1" fill="#bd6d6f"/>
  <rect x="15" y="3" width="1" height="1" fill="#ffd9e4"/>
  <rect x="16" y="3" width="1" height="1" fill="#fe4d70"/>
  <rect x="17" y="3" width="1" height="1" fill="#d70533"/>
  <rect x="18" y="3" width="1" height="1" fill="#dc0a38"/>
  <rect x="23" y="3" width="1" height="2" fill="#d8042e"/>
  <rect x="24" y="3" width="1" height="1" fill="#d90428"/>
  <rect x="25" y="3" width="1" height="1" fill="#ce0b26"/>
  <rect x="26" y="3" width="1" height="1" fill="#b5162c80"/>
  <rect x="3" y="4" width="1" height="1" fill="#c70d357f"/>
  <rect x="4" y="4" width="1" height="1" fill="#cb0934"/>
  <rect x="5" y="4" width="1" height="1" fill="#cc0532"/>
  <rect x="6" y="4" width="1" height="1" fill="#ca032f"/>
  <rect x="7" y="4" width="1" height="1" fill="#cb0934"/>
  <rect x="8" y="4" width="1" height="1" fill="#c40f35"/>
  <rect x="9" y="4" width="1" height="1" fill="#ed5974"/>
  <rect x="10" y="4" width="1" height="1" fill="#ffd2db"/>
  <rect x="11" y="4" width="1" height="1" fill="#dd838a"/>
  <rect x="12" y="4" width="1" height="1" fill="#a0142a"/>
  <rect x="13" y="4" width="1" height="1" fill="#af2138"/>
  <rect x="14" y="4" width="1" height="1" fill="#c96a71"/>
  <rect x="15" y="4" width="1" height="1" fill="#ffdfea"/>
  <rect x="16" y="4" width="1" height="1" fill="#fc4c6f"/>
  <rect x="17" y="4" width="1" height="1" fill="#de0c3a"/>
  <rect x="18" y="4" width="1" height="1" fill="#d50331"/>
  <rect x="19" y="4" width="1" height="1" fill="#dc0a38"/>
  <rect x="24" y="4" width="1" height="1" fill="#db032a"/>
  <rect x="25" y="4" width="1" height="1" fill="#bd132a80"/>
  <rect x="2" y="5" width="1" height="1" fill="#c70d357f"/>
  <rect x="3" y="5" width="1" height="1" fill="#cb0934"/>
  <rect x="4" y="5" width="1" height="1" fill="#cd0733"/>
  <rect x="5" y="5" width="1" height="1" fill="#d10d39"/>
  <rect x="6" y="5" width="1" height="1" fill="#c4042e"/>
  <rect x="7" y="5" width="1" height="1" fill="#bc1033"/>
  <rect x="8" y="5" width="1" height="1" fill="#aa1b34"/>
  <rect x="9" y="5" width="1" height="1" fill="#c85867"/>
  <rect x="10" y="5" width="1" height="1" fill="#ffd2d6"/>
  <rect x="11" y="5" width="1" height="1" fill="#ffb4ba"/>
  <rect x="12" y="5" width="1" height="1" fill="#9d182c"/>
  <rect x="13" y="5" width="1" height="1" fill="#d3455c"/>
  <rect x="14" y="5" width="1" height="1" fill="#ffd1dd"/>
  <rect x="15" y="5" width="1" height="1" fill="#ff8e9f"/>
  <rect x="16" y="5" width="1" height="1" fill="#c20d31"/>
  <rect x="17" y="5" width="1" height="1" fill="#d60432"/>
  <rect x="18" y="5" width="1" height="1" fill="#db0937"/>
  <rect x="19" y="5" width="1" height="1" fill="#d3012e"/>
  <rect x="23" y="5" width="1" height="1" fill="#d00830"/>
  <rect x="24" y="5" width="1" height="1" fill="#c10f3080"/>
  <rect x="1" y="6" width="1" height="1" fill="#c90c357f"/>
  <rect x="2" y="6" width="1" height="1" fill="#ce0834"/>
  <rect x="3" y="6" width="1" height="1" fill="#d00734"/>
  <rect x="4" y="6" width="1" height="1" fill="#d20b38"/>
  <rect x="5" y="6" width="1" height="1" fill="#c1022c"/>
  <rect x="6" y="6" width="1" height="1" fill="#bf0e33"/>
  <rect x="7" y="6" width="1" height="1" fill="#e95772"/>
  <rect x="8" y="6" width="1" height="1" fill="#ffcad4"/>
  <rect x="9" y="6" width="1" height="1" fill="#a35558"/>
  <rect x="10" y="6" width="1" height="1" fill="#ba5e66"/>
  <rect x="11" y="6" width="1" height="1" fill="#ffd3dc"/>
  <rect x="12" y="6" width="1" height="1" fill="#ffbec0"/>
  <rect x="13" y="6" width="1" height="1" fill="#ffcdd4"/>
  <rect x="14" y="6" width="1" height="1" fill="#ff8fa3"/>
  <rect x="15" y="6" width="1" height="1" fill="#b40d2c"/>
  <rect x="16" y="6" width="1" height="1" fill="#ce0a33"/>
  <rect x="17" y="6" width="1" height="1" fill="#da0835"/>
  <rect x="18" y="6" width="2" height="1" fill="#d60432"/>
  <rect x="23" y="6" width="1" height="1" fill="#be103480"/>
  <rect x="0" y="7" width="1" height="1" fill="#c70a337f"/>
  <rect x="1" y="7" width="1" height="1" fill="#cb0934"/>
  <rect x="2" y="7" width="1" height="1" fill="#d00734"/>
  <rect x="3" y="7" width="1" height="1" fill="#d10634"/>
  <rect x="4" y="7" width="1" height="1" fill="#d30c39"/>
  <rect x="5" y="7" width="1" height="1" fill="#ca143b"/>
  <rect x="6" y="7" width="1" height="1" fill="#ff7c97"/>
  <rect x="7" y="7" width="1" height="1" fill="#ae3a4a"/>
  <rect x="8" y="7" width="1" height="1" fill="#ffbbc2"/>
  <rect x="9" y="7" width="1" height="1" fill="#ffcfd4"/>
  <rect x="10" y="7" width="1" height="1" fill="#b6555f"/>
  <rect x="11" y="7" width="1" height="1" fill="#b0535c"/>
  <rect x="12" y="7" width="1" height="1" fill="#ffdddc"/>
  <rect x="13" y="7" width="1" height="1" fill="#ffced2"/>
  <rect x="14" y="7" width="1" height="1" fill="#aa2539"/>
  <rect x="15" y="7" width="1" height="1" fill="#c21939"/>
  <rect x="16" y="7" width="1" height="1" fill="#c6062b"/>
  <rect x="17" y="7" width="1" height="1" fill="#d50530"/>
  <rect x="18" y="7" width="1" height="1" fill="#d70533"/>
  <rect x="19" y="7" width="1" height="1" fill="#d50331"/>
  <rect x="20" y="7" width="1" height="1" fill="#d50532"/>
  <rect x="21" y="7" width="1" height="1" fill="#cd0932"/>
  <rect x="22" y="7" width="1" height="1" fill="#bb123480"/>
  <rect x="0" y="8" width="1" height="1" fill="#c2052e"/>
  <rect x="1" y="8" width="1" height="1" fill="#c90a34"/>
  <rect x="2" y="8" width="1" height="1" fill="#cb0431"/>
  <rect x="3" y="8" width="1" height="1" fill="#d10835"/>
  <rect x="4" y="8" width="1" height="1" fill="#d60d3a"/>
  <rect x="5" y="8" width="1" height="1" fill="#bd1638"/>
  <rect x="6" y="8" width="1" height="1" fill="#ffc4d0"/>
  <rect x="7" y="8" width="1" height="1" fill="#ef979e"/>
  <rect x="8" y="8" width="1" height="1" fill="#982334"/>
  <rect x="9" y="8" width="1" height="1" fill="#ffa7b9"/>
  <rect x="10" y="8" width="1" height="1" fill="#ffd2db"/>
  <rect x="11" y="8" width="1" height="1" fill="#a95158"/>
  <rect x="12" y="8" width="1" height="1" fill="#c45e6a"/>
  <rect x="13" y="8" width="1" height="1" fill="#ffd4e3"/>
  <rect x="14" y="8" width="1" height="1" fill="#ffaab9"/>
  <rect x="15" y="8" width="1" height="1" fill="#ac273b"/>
  <rect x="16" y="8" width="1" height="2" fill="#c0102e"/>
  <rect x="17" y="8" width="1" height="2" fill="#d0062d"/>
  <rect x="18" y="8" width="1" height="1" fill="#d50530"/>
  <rect x="19" y="8" width="1" height="1" fill="#d60432"/>
  <rect x="20" y="8" width="1" height="1" fill="#d10634"/>
  <rect x="21" y="8" width="1" height="1" fill="#b8123880"/>
  <rect x="0" y="9" width="1" height="1" fill="#c80631"/>
  <rect x="1" y="9" width="1" height="1" fill="#cb0934"/>
  <rect x="2" y="9" width="1" height="1" fill="#c80933"/>
  <rect x="3" y="9" width="1" height="1" fill="#d2103b"/>
  <rect x="4" y="9" width="1" height="1" fill="#ca012e"/>
  <rect x="5" y="9" width="1" height="1" fill="#c2193b"/>
  <rect x="6" y="9" width="1" height="1" fill="#ef8b96"/>
  <rect x="7" y="9" width="1" height="1" fill="#ffcdd5"/>
  <rect x="8" y="9" width="1" height="1" fill="#ac243b"/>
  <rect x="9" y="9" width="1" height="1" fill="#a71832"/>
  <rect x="10" y="9" width="1" height="1" fill="#ffb1c1"/>
  <rect x="11" y="9" width="1" height="1" fill="#ffd3df"/>
  <rect x="12" y="9" width="1" height="1" fill="#cd5b6b"/>
  <rect x="13" y="9" width="1" height="1" fill="#c14c5d"/>
  <rect x="14" y="9" width="1" height="1" fill="#ffccdb"/>
  <rect x="15" y="9" width="1" height="1" fill="#ffabbe"/>
  <rect x="18" y="9" width="1" height="1" fill="#d60530"/>
  <rect x="19" y="9" width="1" height="1" fill="#cd0934"/>
  <rect x="20" y="9" width="1" height="1" fill="#b8123880"/>
  <rect x="0" y="10" width="1" height="1" fill="#ce0331"/>
  <rect x="1" y="10" width="1" height="1" fill="#d00e39"/>
  <rect x="2" y="10" width="1" height="1" fill="#c00f34"/>
  <rect x="3" y="10" width="1" height="1" fill="#bf0c32"/>
  <rect x="4" y="10" width="1" height="1" fill="#ca002d"/>
  <rect x="5" y="10" width="1" height="1" fill="#c70a33"/>
  <rect x="6" y="10" width="1" height="1" fill="#b9344a"/>
  <rect x="7" y="10" width="1" height="1" fill="#ffd2e4"/>
  <rect x="8" y="10" width="1" height="1" fill="#ff738d"/>
  <rect x="9" y="10" width="1" height="1" fill="#b01533"/>
  <rect x="10" y="10" width="1" height="1" fill="#ae112f"/>
  <rect x="11" y="10" width="1" height="1" fill="#ffa9c2"/>
  <rect x="12" y="10" width="1" height="1" fill="#ffd4e0"/>
  <rect x="13" y="10" width="1" height="1" fill="#bc5661"/>
  <rect x="14" y="10" width="1" height="1" fill="#c64157"/>
  <rect x="15" y="10" width="1" height="1" fill="#fe5978"/>
  <rect x="16" y="10" width="1" height="1" fill="#cb0a30"/>
  <rect x="17" y="10" width="1" height="1" fill="#d5032f"/>
  <rect x="18" y="10" width="1" height="1" fill="#d80334"/>
  <rect x="19" y="10" width="1" height="1" fill="#bd103680"/>
  <rect x="0" y="11" width="1" height="1" fill="#c80631"/>
  <rect x="1" y="11" width="1" height="1" fill="#b50026"/>
  <rect x="2" y="11" width="1" height="1" fill="#ff7795"/>
  <rect x="3" y="11" width="1" height="1" fill="#d13855"/>
  <rect x="4" y="11" width="2" height="1" fill="#b80c2f"/>
  <rect x="6" y="11" width="1" height="1" fill="#ac1b35"/>
  <rect x="7" y="11" width="1" height="1" fill="#ff8ca1"/>
  <rect x="8" y="11" width="1" height="1" fill="#ffb4c7"/>
  <rect x="9" y="11" width="1" height="1" fill="#aa2038"/>
  <rect x="10" y="11" width="1" height="1" fill="#bc0e32"/>
  <rect x="11" y="11" width="1" height="1" fill="#b71032"/>
  <rect x="12" y="11" width="1" height="1" fill="#ffabbd"/>
  <rect x="13" y="11" width="1" height="1" fill="#ffc3d5"/>
  <rect x="14" y="11" width="1" height="1" fill="#b81838"/>
  <rect x="15" y="11" width="1" height="1" fill="#ca0f38"/>
  <rect x="16" y="11" width="1" height="1" fill="#d00732"/>
  <rect x="17" y="11" width="1" height="1" fill="#cc0733"/>
  <rect x="18" y="11" width="1" height="1" fill="#bd103680"/>
  <rect x="0" y="12" width="1" height="1" fill="#b60f2e"/>
  <rect x="1" y="12" width="1" height="1" fill="#dc445e"/>
  <rect x="2" y="12" width="1" height="1" fill="#ffb6c8"/>
  <rect x="3" y="12" width="1" height="1" fill="#ffd7e4"/>
  <rect x="4" y="12" width="1" height="1" fill="#ff9fab"/>
  <rect x="5" y="12" width="1" height="1" fill="#cd5665"/>
  <rect x="6" y="12" width="1" height="1" fill="#a72034"/>
  <rect x="7" y="12" width="1" height="1" fill="#b63b4c"/>
  <rect x="8" y="12" width="1" height="1" fill="#ffdee1"/>
  <rect x="9" y="12" width="1" height="1" fill="#d87980"/>
  <rect x="10" y="12" width="1" height="1" fill="#b51331"/>
  <rect x="11" y="12" width="1" height="1" fill="#c3092e"/>
  <rect x="12" y="12" width="1" height="1" fill="#bf1535"/>
  <rect x="13" y="12" width="1" height="1" fill="#f14868"/>
  <rect x="14" y="12" width="1" height="1" fill="#cb0f35"/>
  <rect x="15" y="12" width="1" height="1" fill="#ca032f"/>
  <rect x="16" y="12" width="1" height="1" fill="#d00736"/>
  <rect x="17" y="12" width="1" height="1" fill="#b8123880"/>
  <rect x="0" y="13" width="1" height="1" fill="#b51532"/>
  <rect x="1" y="13" width="1" height="1" fill="#b01832"/>
  <rect x="2" y="13" width="1" height="1" fill="#a3192e"/>
  <rect x="3" y="13" width="1" height="1" fill="#ec7181"/>
  <rect x="4" y="13" width="1" height="1" fill="#ffb6c2"/>
  <rect x="5" y="13" width="1" height="1" fill="#ffd5e3"/>
  <rect x="6" y="13" width="1" height="1" fill="#ff96ab"/>
  <rect x="7" y="13" width="1" height="1" fill="#bb4755"/>
  <rect x="8" y="13" width="1" height="1" fill="#f1b6b1"/>
  <rect x="9" y="13" width="1" height="1" fill="#fab3b2"/>
  <rect x="10" y="13" width="1" height="1" fill="#a8152d"/>
  <rect x="11" y="13" width="1" height="1" fill="#c90d33"/>
  <rect x="12" y="13" width="1" height="1" fill="#cd0e35"/>
  <rect x="13" y="13" width="1" height="1" fill="#d00d35"/>
  <rect x="14" y="13" width="1" height="1" fill="#c9002b"/>
  <rect x="15" y="13" width="1" height="1" fill="#c60932"/>
  <rect x="16" y="13" width="1" height="1" fill="#b6133880"/>
  <rect x="0" y="14" width="1" height="1" fill="#be0d30"/>
  <rect x="1" y="14" width="1" height="1" fill="#c81639"/>
  <rect x="2" y="14" width="1" height="1" fill="#c70f34"/>
  <rect x="3" y="14" width="1" height="1" fill="#c30e32"/>
  <rect x="4" y="14" width="1" height="1" fill="#c11334"/>
  <rect x="5" y="14" width="1" height="1" fill="#ff6481"/>
  <rect x="6" y="14" width="1" height="1" fill="#ff9eb6"/>
  <rect x="7" y="14" width="1" height="1" fill="#ffcad6"/>
  <rect x="8" y="14" width="1" height="1" fill="#ffcec7"/>
  <rect x="9" y="14" width="1" height="1" fill="#ffe9e4"/>
  <rect x="10" y="14" width="1" height="1" fill="#c43f53"/>
  <rect x="11" y="14" width="1" height="1" fill="#c21435"/>
  <rect x="12" y="14" width="1" height="1" fill="#cf1239"/>
  <rect x="13" y="14" width="1" height="1" fill="#cd0932"/>
  <rect x="14" y="14" width="1" height="1" fill="#ce0a33"/>
  <rect x="15" y="14" width="1" height="1" fill="#a90b2a80"/>
  <rect x="0" y="15" width="1" height="1" fill="#c2082d"/>
  <rect x="1" y="15" width="1" height="1" fill="#c80931"/>
  <rect x="2" y="15" width="1" height="1" fill="#c9002a"/>
  <rect x="3" y="15" width="1" height="1" fill="#de0e3b"/>
  <rect x="4" y="15" width="1" height="1" fill="#d10933"/>
  <rect x="5" y="15" width="1" height="1" fill="#c50b31"/>
  <rect x="6" y="15" width="1" height="1" fill="#b71633"/>
  <rect x="7" y="15" width="1" height="1" fill="#cb4b5d"/>
  <rect x="8" y="15" width="1" height="1" fill="#ffa8ac"/>
  <rect x="9" y="15" width="1" height="1" fill="#ffc0c6"/>
  <rect x="10" y="15" width="1" height="1" fill="#d1445b"/>
  <rect x="11" y="15" width="1" height="1" fill="#bc0e30"/>
  <rect x="12" y="15" width="1" height="1" fill="#cb0f35"/>
  <rect x="13" y="15" width="1" height="1" fill="#c5042c"/>
  <rect x="14" y="15" width="1" height="1" fill="#d2113980"/>
  <rect x="0" y="16" width="1" height="1" fill="#c80931"/>
  <rect x="1" y="16" width="1" height="1" fill="#ca0931"/>
  <rect x="2" y="16" width="1" height="1" fill="#cc0831"/>
  <rect x="3" y="16" width="1" height="1" fill="#cd0731"/>
  <rect x="4" y="16" width="1" height="1" fill="#cc0831"/>
  <rect x="5" y="16" width="1" height="1" fill="#c80931"/>
  <rect x="6" y="16" width="1" height="1" fill="#c40c31"/>
  <rect x="7" y="16" width="1" height="1" fill="#bc1031"/>
  <rect x="8" y="16" width="1" height="1" fill="#b11430"/>
  <rect x="9" y="16" width="1" height="1" fill="#b21330"/>
  <rect x="10" y="16" width="1" height="1" fill="#be0d30"/>
  <rect x="11" y="16" width="1" height="1" fill="#c40a30"/>
  <rect x="12" y="16" width="1" height="1" fill="#c70830"/>
  <rect x="13" y="16" width="1" height="1" fill="#c9083080"/>
  <rect x="0" y="17" width="8" height="3" fill="#ca0931"/>
  <rect x="8" y="17" width="4" height="1" fill="#c90830"/>
  <rect x="12" y="17" width="1" height="1" fill="#c9083080"/>
  <rect x="8" y="18" width="3" height="1" fill="#c90830"/>
  <rect x="11" y="18" width="1" height="1" fill="#c9083080"/>
  <rect x="8" y="19" width="2" height="1" fill="#c90830"/>
  <rect x="10" y="19" width="1" height="1" fill="#c9083080"/>
  <rect x="0" y="20" width="6" height="3" fill="#ca0931"/>
  <rect x="6" y="20" width="2" height="2" fill="#ca092f"/>
  <rect x="8" y="20" width="1" height="1" fill="#c9082e"/>
  <rect x="9" y="20" width="1" height="1" fill="#c9082e80"/>
  <rect x="8" y="21" width="1" height="1" fill="#c9082e80"/>
  <rect x="6" y="22" width="1" height="1" fill="#ca092f"/>
  <rect x="7" y="22" width="1" height="1" fill="#ca092f80"/>
  <rect x="0" y="23" width="6" height="1" fill="#c70830"/>
  <rect x="6" y="23" width="1" height="1" fill="#c7092e80"/>
  <rect x="0" y="24" width="5" height="1" fill="#c20b30"/>
  <rect x="5" y="24" width="1" height="1" fill="#c20b3080"/>
  <rect x="0" y="25" width="4" height="1" fill="#c00a2e"/>
  <rect x="4" y="25" width="1" height="1" fill="#c00a2e80"/>
  <rect x="0" y="26" width="3" height="1" fill="#c00a2e"/>
  <rect x="3" y="26" width="1" height="1" fill="#c00a2e80"/>
  <rect x="0" y="27" width="2" height="1" fill="#c00a2e"/>
  <rect x="2" y="27" width="1" height="1" fill="#c00a2e80"/>
  <rect x="0" y="28" width="1" height="1" fill="#c00a31"/>
  <rect x="1" y="28" width="1" height="1" fill="#c00a3180"/>
  <rect x="0" y="29" width="1" height="1" fill="#c00a3180"/>
</svg>