<svg xmlns="http://www.w3.org/2000/svg" width="50" height="50" viewBox="0 0 50 50" shape-rendering="crispEdges">
  <rect x="1" y="0" width="1" height="1" fill="#5b5b5b1c"/>
  <rect x="2" y="0" width="1" height="1" fill="#62626282"/>
  <rect x="3" y="0" width="1" height="1" fill="#545454b5"/>
  <rect x="4" y="0" width="2" height="1" fill="#5c5c5cbf"/>
  <rect x="6" y="0" width="1" height="1" fill="#5d5d5dbf"/>
  <rect x="7" y="0" width="1" height="1" fill="#5e5e5ebf"/>
  <rect x="8" y="0" width="1" height="1" fill="#5f5f5fbf"/>
  <rect x="9" y="0" width="1" height="1" fill="#616161bf"/>
  <rect x="10" y="0" width="32" height="1" fill="#626262bf"/>
  <rect x="42" y="0" width="1" height="1" fill="#616161bf"/>
  <rect x="43" y="0" width="1" height="1" fill="#5f5f5fbf"/>
  <rect x="44" y="0" width="1" height="1" fill="#5d5d5dbf"/>
  <rect x="45" y="0" width="1" height="1" fill="#5c5c5cbf"/>
  <rect x="46" y="0" width="1" height="1" fill="#646464b5"/>
  <rect x="47" y="0" width="1" height="1" fill="#5f5f5f82"/>
  <rect x="48" y="0" width="1" height="1" fill="#5e5e5e1c"/>
  <rect x="0" y="1" width="1" height="1" fill="#6464641d"/>
  <rect x="1" y="1" width="1" height="1" fill="#5d5d5db3"/>
  <rect x="2" y="1" width="1" height="1" fill="#7777776a"/>
  <rect x="3" y="1" width="1" height="1" fill="#d7d7d72e"/>
  <rect x="4" y="1" width="40" height="1" fill="#ffffff26"/>
  <rect x="44" y="1" width="1" height="1" fill="#f5f5f526"/>
  <rect x="45" y="1" width="1" height="1" fill="#fefefe26"/>
  <rect x="46" y="1" width="1" height="1" fill="#dbdbdb2e"/>
  <rect x="47" y="1" width="1" height="1" fill="#8888886a"/>
  <rect x="48" y="1" width="1" height="1" fill="#656565b3"/>
  <rect x="49" y="1" width="1" height="1" fill="#5f5f5f1d"/>
  <rect x="0" y="2" width="1" height="1" fill="#5e5e5e82"/>
  <rect x="1" y="2" width="1" height="1" fill="#84848465"/>
  <rect x="2" y="2" width="1" height="1" fill="#f7f7f70c"/>
  <rect x="47" y="2" width="1" height="1" fill="#ffffff0c"/>
  <rect x="48" y="2" width="1" height="1" fill="#71717165"/>
  <rect x="49" y="2" width="1" height="1" fill="#5d5d5d82"/>
  <rect x="0" y="3" width="1" height="1" fill="#5f5f5fb5"/>
  <rect x="1" y="3" width="1" height="1" fill="#7979790c"/>
  <rect x="48" y="3" width="1" height="1" fill="#7979790b"/>
  <rect x="49" y="3" width="1" height="1" fill="#5d5d5db6"/>
  <rect x="0" y="4" width="1" height="4" fill="#5f5f5fbf"/>
  <rect x="49" y="4" width="1" height="1" fill="#5f5f5fbf"/>
  <rect x="49" y="5" width="1" height="2" fill="#616161bf"/>
  <rect x="49" y="7" width="1" height="2" fill="#5f5f5fbf"/>
  <rect x="0" y="8" width="1" height="38" fill="#5e5e5ebf"/>
  <rect x="49" y="9" width="1" height="37" fill="#5e5e5ebf"/>
  <rect x="0" y="46" width="1" height="1" fill="#5e5e5eb5"/>
  <rect x="1" y="46" width="1" height="1" fill="#5e5e5e0a"/>
  <rect x="49" y="46" width="1" height="1" fill="#5e5e5eb6"/>
  <rect x="0" y="47" width="1" height="1" fill="#5e5e5e82"/>
  <rect x="1" y="47" width="1" height="1" fill="#5e5e5e52"/>
  <rect x="48" y="47" width="1" height="1" fill="#5e5e5e52"/>
  <rect x="49" y="47" width="1" height="1" fill="#5e5e5e82"/>
  <rect x="0" y="48" width="1" height="1" fill="#5e5e5e1e"/>
  <rect x="1" y="48" width="1" height="1" fill="#5e5e5eb3"/>
  <rect x="2" y="48" width="1" height="1" fill="#5e5e5e53"/>
  <rect x="3" y="48" width="1" height="1" fill="#5e5e5e0a"/>
  <rect x="46" y="48" width="1" height="1" fill="#5e5e5e0a"/>
  <rect x="47" y="48" width="1" height="1" fill="#5e5e5e53"/>
  <rect x="48" y="48" width="1" height="1" fill="#5e5e5eb3"/>
  <rect x="49" y="48" width="1" height="1" fill="#5e5e5e1e"/>
  <rect x="1" y="49" width="1" height="1" fill="#5e5e5e1d"/>
  <rect x="2" y="49" width="1" height="1" fill="#5e5e5e82"/>
  <rect x="3" y="49" width="1" height="1" fill="#5e5e5eb5"/>
  <rect x="4" y="49" width="42" height="1" fill="#5e5e5ebf"/>
  <rect x="46" y="49" width="1" height="1" fill="#5e5e5eb5"/>
  <rect x="47" y="49" width="1" height="1" fill="#5e5e5e82"/>
  <rect x="48" y="49" width="1" height="1" fill="#5e5e5e1d"/>
</svg>