<svg xmlns="http://www.w3.org/2000/svg" width="36" height="12" viewBox="0 0 36 12" shape-rendering="crispEdges">
  <rect x="2" y="0" width="1" height="1" fill="#74c0e47f"/>
  <rect x="3" y="0" width="1" height="1" fill="#5ec9f2f8"/>
  <rect x="4" y="0" width="1" height="1" fill="#5ecbe6"/>
  <rect x="5" y="0" width="1" height="1" fill="#5ecce4"/>
  <rect x="6" y="0" width="1" height="1" fill="#5ccbea"/>
  <rect x="7" y="0" width="1" height="1" fill="#60c7eb"/>
  <rect x="8" y="0" width="1" height="1" fill="#67c2e8"/>
  <rect x="9" y="0" width="1" height="1" fill="#65c1e9f9"/>
  <rect x="10" y="0" width="1" height="1" fill="#5fc5ee80"/>
  <rect x="12" y="0" width="1" height="1" fill="#5fc7f67f"/>
  <rect x="13" y="0" width="1" height="1" fill="#65c6f5f8"/>
  <rect x="14" y="0" width="1" height="1" fill="#6bc5f4"/>
  <rect x="15" y="0" width="1" height="1" fill="#6ac7ee"/>
  <rect x="16" y="0" width="1" height="1" fill="#58c3df"/>
  <rect x="17" y="0" width="1" height="1" fill="#5bd1e2"/>
  <rect x="18" y="0" width="1" height="1" fill="#5ad3de"/>
  <rect x="19" y="0" width="1" height="1" fill="#4dc6d1f9"/>
  <rect x="20" y="0" width="1" height="1" fill="#5ccde080"/>
  <rect x="26" y="0" width="1" height="1" fill="#2cbd7e7f"/>
  <rect x="27" y="0" width="1" height="1" fill="#2cbd7ef8"/>
  <rect x="28" y="0" width="4" height="2" fill="#2bbc7d"/>
  <rect x="32" y="0" width="1" height="1" fill="#2bbe7c"/>
  <rect x="33" y="0" width="1" height="1" fill="#2bbe7cf9"/>
  <rect x="34" y="0" width="1" height="1" fill="#2bbe7c80"/>
  <rect x="2" y="1" width="1" height="1" fill="#76c0e2fa"/>
  <rect x="3" y="1" width="1" height="1" fill="#64c6ee"/>
  <rect x="4" y="1" width="1" height="1" fill="#6ac6de"/>
  <rect x="5" y="1" width="1" height="1" fill="#6fc5d8"/>
  <rect x="6" y="1" width="1" height="1" fill="#71c3dc"/>
  <rect x="7" y="1" width="1" height="1" fill="#73c0dd"/>
  <rect x="8" y="1" width="1" height="1" fill="#78bcda"/>
  <rect x="9" y="1" width="1" height="1" fill="#72bcde"/>
  <rect x="10" y="1" width="1" height="1" fill="#63c3ecf9"/>
  <rect x="12" y="1" width="1" height="1" fill="#5bc6f2fa"/>
  <rect x="13" y="1" width="1" height="1" fill="#63c3ee"/>
  <rect x="14" y="1" width="1" height="1" fill="#71c0e3"/>
  <rect x="15" y="1" width="1" height="1" fill="#7abad6"/>
  <rect x="16" y="1" width="1" height="1" fill="#84b7ca"/>
  <rect x="17" y="1" width="1" height="1" fill="#8bbdcc"/>
  <rect x="18" y="1" width="1" height="1" fill="#8ec5d0"/>
  <rect x="19" y="1" width="1" height="1" fill="#89c7d4"/>
  <rect x="20" y="1" width="1" height="1" fill="#80c6daf9"/>
  <rect x="26" y="1" width="1" height="1" fill="#2cbd7efa"/>
  <rect x="27" y="1" width="1" height="1" fill="#2cbd7e"/>
  <rect x="32" y="1" width="2" height="1" fill="#2bbe7c"/>
  <rect x="34" y="1" width="1" height="1" fill="#2bbe7cf9"/>
  <rect x="2" y="2" width="1" height="1" fill="#79bfde"/>
  <rect x="10" y="2" width="1" height="1" fill="#6dbee4"/>
  <rect x="12" y="2" width="1" height="1" fill="#57c5ef"/>
  <rect x="20" y="2" width="1" height="1" fill="#b4a6ba"/>
  <rect x="26" y="2" width="1" height="7" fill="#2cbd7e"/>
  <rect x="34" y="2" width="1" height="7" fill="#2bbe7c"/>
  <rect x="2" y="3" width="1" height="1" fill="#77c0dc"/>
  <rect x="10" y="3" width="1" height="1" fill="#6fbbe1"/>
  <rect x="12" y="3" width="1" height="1" fill="#55c3eb"/>
  <rect x="17" y="3" width="1" height="1" fill="#f3616389"/>
  <rect x="18" y="3" width="1" height="1" fill="#dc5c5ec6"/>
  <rect x="19" y="3" width="1" height="1" fill="#ce666efc"/>
  <rect x="20" y="3" width="1" height="1" fill="#b97485"/>
  <rect x="21" y="3" width="1" height="1" fill="#aa7b8982"/>
  <rect x="2" y="4" width="1" height="1" fill="#74c2da"/>
  <rect x="10" y="4" width="1" height="1" fill="#68bcdd"/>
  <rect x="12" y="4" width="1" height="1" fill="#59c5eb"/>
  <rect x="16" y="4" width="1" height="1" fill="#dd5f57ba"/>
  <rect x="17" y="4" width="1" height="1" fill="#dd5f57"/>
  <rect x="18" y="4" width="1" height="1" fill="#d26e60"/>
  <rect x="19" y="4" width="1" height="1" fill="#c36c60"/>
  <rect x="20" y="4" width="1" height="1" fill="#c5676d"/>
  <rect x="21" y="4" width="1" height="1" fill="#c66369"/>
  <rect x="22" y="4" width="1" height="1" fill="#cc645cb7"/>
  <rect x="28" y="4" width="1" height="1" fill="#2cbd7e5f"/>
  <rect x="29" y="4" width="1" height="1" fill="#2cbd7e72"/>
  <rect x="2" y="5" width="1" height="1" fill="#72c3dc"/>
  <rect x="10" y="5" width="1" height="1" fill="#6abadf"/>
  <rect x="12" y="5" width="1" height="1" fill="#60ccf2"/>
  <rect x="15" y="5" width="1" height="1" fill="#da61518c"/>
  <rect x="16" y="5" width="1" height="1" fill="#d86157"/>
  <rect x="17" y="5" width="1" height="1" fill="#d66b5f"/>
  <rect x="18" y="5" width="1" height="1" fill="#ffae9a"/>
  <rect x="19" y="5" width="1" height="1" fill="#ffe6d5"/>
  <rect x="20" y="5" width="1" height="1" fill="#ffc7c6"/>
  <rect x="21" y="5" width="1" height="1" fill="#db7070"/>
  <rect x="22" y="5" width="1" height="1" fill="#e56258"/>
  <rect x="23" y="5" width="1" height="1" fill="#be785b84"/>
  <rect x="27" y="5" width="1" height="1" fill="#2cbd7e34"/>
  <rect x="28" y="5" width="1" height="1" fill="#2cbd7ec8"/>
  <rect x="29" y="5" width="1" height="1" fill="#2cbd7ec1"/>
  <rect x="30" y="5" width="1" height="1" fill="#2cbd7e42"/>
  <rect x="31" y="5" width="1" height="1" fill="#2cbd7e88"/>
  <rect x="32" y="5" width="1" height="1" fill="#2bbe7c79"/>
  <rect x="2" y="6" width="1" height="1" fill="#71c3de"/>
  <rect x="10" y="6" width="1" height="1" fill="#6db8e1"/>
  <rect x="12" y="6" width="1" height="1" fill="#50bfe2"/>
  <rect x="15" y="6" width="1" height="1" fill="#dc6959c9"/>
  <rect x="16" y="6" width="1" height="1" fill="#d16e64"/>
  <rect x="17" y="6" width="1" height="1" fill="#ffaca5"/>
  <rect x="18" y="6" width="1" height="1" fill="#ca7a6e"/>
  <rect x="19" y="6" width="1" height="1" fill="#ffcac0"/>
  <rect x="20" y="6" width="1" height="1" fill="#ffe6e3"/>
  <rect x="21" y="6" width="1" height="1" fill="#ffc1bf"/>
  <rect x="22" y="6" width="1" height="1" fill="#d76259"/>
  <rect x="23" y="6" width="1" height="1" fill="#bf7a61c1"/>
  <rect x="27" y="6" width="1" height="1" fill="#2cbd7eb2"/>
  <rect x="28" y="6" width="1" height="1" fill="#2cbd7e1f"/>
  <rect x="29" y="6" width="1" height="1" fill="#2cbd7e15"/>
  <rect x="30" y="6" width="1" height="1" fill="#2cbd7ed4"/>
  <rect x="31" y="6" width="1" height="1" fill="#2cbd7eb0"/>
  <rect x="32" y="6" width="1" height="1" fill="#2bbe7cbb"/>
  <rect x="33" y="6" width="1" height="1" fill="#2bbe7c47"/>
  <rect x="2" y="7" width="1" height="1" fill="#71c1df"/>
  <rect x="10" y="7" width="1" height="1" fill="#67bae9"/>
  <rect x="12" y="7" width="1" height="1" fill="#60ccee"/>
  <rect x="15" y="7" width="1" height="1" fill="#cd7169"/>
  <rect x="16" y="7" width="1" height="1" fill="#c16e66"/>
  <rect x="17" y="7" width="1" height="1" fill="#ffe7dd"/>
  <rect x="18" y="7" width="1" height="1" fill="#ffcbc4"/>
  <rect x="19" y="7" width="1" height="1" fill="#b97c78"/>
  <rect x="20" y="7" width="1" height="1" fill="#ffcfce"/>
  <rect x="21" y="7" width="1" height="1" fill="#ffeae7"/>
  <rect x="22" y="7" width="1" height="1" fill="#da655d"/>
  <rect x="23" y="7" width="1" height="1" fill="#bf7a61fc"/>
  <rect x="30" y="7" width="1" height="1" fill="#2cbd7ea5"/>
  <rect x="31" y="7" width="1" height="1" fill="#2cbd7e0b"/>
  <rect x="32" y="7" width="1" height="1" fill="#2bbe7c15"/>
  <rect x="33" y="7" width="1" height="1" fill="#2bbe7c9f"/>
  <rect x="2" y="8" width="1" height="1" fill="#70bfe0"/>
  <rect x="10" y="8" width="1" height="1" fill="#57c0f3"/>
  <rect x="12" y="8" width="1" height="1" fill="#64c9eb"/>
  <rect x="15" y="8" width="1" height="1" fill="#ab7983d4"/>
  <rect x="16" y="8" width="1" height="1" fill="#bc756d"/>
  <rect x="17" y="8" width="1" height="1" fill="#ffd9ca"/>
  <rect x="18" y="8" width="1" height="1" fill="#fff4e9"/>
  <rect x="19" y="8" width="1" height="1" fill="#ffd6d2"/>
  <rect x="20" y="8" width="1" height="1" fill="#c17a7d"/>
  <rect x="21" y="8" width="1" height="1" fill="#ffb1b3"/>
  <rect x="22" y="8" width="1" height="1" fill="#e8685a"/>
  <rect x="23" y="8" width="1" height="1" fill="#bb7553ce"/>
  <rect x="2" y="9" width="1" height="1" fill="#71bde0"/>
  <rect x="3" y="9" width="1" height="1" fill="#5ac5f1"/>
  <rect x="4" y="9" width="1" height="1" fill="#55c8ef"/>
  <rect x="5" y="9" width="1" height="2" fill="#55c8ed"/>
  <rect x="6" y="9" width="1" height="1" fill="#5ac6eb"/>
  <rect x="7" y="9" width="1" height="1" fill="#5ec1ef"/>
  <rect x="8" y="9" width="1" height="1" fill="#61bbfc"/>
  <rect x="9" y="9" width="1" height="1" fill="#5dbbff"/>
  <rect x="10" y="9" width="1" height="1" fill="#52c2f5"/>
  <rect x="12" y="9" width="1" height="1" fill="#61c7e7"/>
  <rect x="13" y="9" width="1" height="1" fill="#72bfdc"/>
  <rect x="14" y="9" width="1" height="1" fill="#89b2cf"/>
  <rect x="15" y="9" width="1" height="1" fill="#9b98ab"/>
  <rect x="16" y="9" width="1" height="1" fill="#a46e6a"/>
  <rect x="17" y="9" width="1" height="1" fill="#d18d7f"/>
  <rect x="18" y="9" width="1" height="1" fill="#ffd9d0"/>
  <rect x="19" y="9" width="1" height="1" fill="#ffe6e6"/>
  <rect x="20" y="9" width="1" height="1" fill="#ffb2b7"/>
  <rect x="21" y="9" width="1" height="1" fill="#e76e70"/>
  <rect x="22" y="9" width="1" height="1" fill="#e55e50"/>
  <rect x="23" y="9" width="1" height="1" fill="#be7a5a91"/>
  <rect x="26" y="9" width="6" height="1" fill="#2cbd7e"/>
  <rect x="32" y="9" width="3" height="1" fill="#2bbe7c"/>
  <rect x="2" y="10" width="1" height="1" fill="#72bbe2fa"/>
  <rect x="3" y="10" width="1" height="1" fill="#5cc4f1"/>
  <rect x="4" y="10" width="1" height="1" fill="#57c7ef"/>
  <rect x="6" y="10" width="1" height="1" fill="#5ac6eb4f"/>
  <rect x="7" y="10" width="1" height="1" fill="#5ec2eb"/>
  <rect x="8" y="10" width="1" height="1" fill="#63bdf0"/>
  <rect x="9" y="10" width="1" height="1" fill="#60bcf1"/>
  <rect x="10" y="10" width="1" height="1" fill="#5ac0edf8"/>
  <rect x="12" y="10" width="1" height="1" fill="#5ac7e7fa"/>
  <rect x="13" y="10" width="1" height="1" fill="#5fc3e1"/>
  <rect x="14" y="10" width="1" height="1" fill="#67bdd9"/>
  <rect x="15" y="10" width="1" height="1" fill="#84b1c4"/>
  <rect x="16" y="10" width="1" height="1" fill="#9c8382d4"/>
  <rect x="17" y="10" width="1" height="1" fill="#bb756f"/>
  <rect x="18" y="10" width="1" height="1" fill="#c16866"/>
  <rect x="19" y="10" width="1" height="1" fill="#d3686a"/>
  <rect x="20" y="10" width="1" height="1" fill="#e66669"/>
  <rect x="21" y="10" width="1" height="1" fill="#e55c5c"/>
  <rect x="22" y="10" width="1" height="1" fill="#ea635cc0"/>
  <rect x="26" y="10" width="1" height="1" fill="#2cbd7efa"/>
  <rect x="27" y="10" width="3" height="1" fill="#2cbd7e"/>
  <rect x="30" y="10" width="1" height="1" fill="#2cbd7e4f"/>
  <rect x="31" y="10" width="1" height="1" fill="#2cbd7e"/>
  <rect x="32" y="10" width="2" height="1" fill="#2bbe7c"/>
  <rect x="34" y="10" width="1" height="1" fill="#2bbe7cf8"/>
  <rect x="2" y="11" width="1" height="1" fill="#72bbe27d"/>
  <rect x="3" y="11" width="1" height="1" fill="#5cc4f3f8"/>
  <rect x="4" y="11" width="1" height="1" fill="#56c5ef"/>
  <rect x="5" y="11" width="1" height="1" fill="#54c7eb"/>
  <rect x="6" y="11" width="1" height="1" fill="#59c5e9"/>
  <rect x="7" y="11" width="1" height="1" fill="#5dc1e8"/>
  <rect x="8" y="11" width="1" height="1" fill="#63beea"/>
  <rect x="9" y="11" width="1" height="1" fill="#62bcebf8"/>
  <rect x="10" y="11" width="1" height="1" fill="#5dbfe980"/>
  <rect x="12" y="11" width="1" height="1" fill="#59c7e97d"/>
  <rect x="13" y="11" width="1" height="1" fill="#57c7e5f8"/>
  <rect x="14" y="11" width="1" height="1" fill="#54c1df"/>
  <rect x="15" y="11" width="1" height="1" fill="#70b6c9"/>
  <rect x="16" y="11" width="1" height="1" fill="#a79da1"/>
  <rect x="17" y="11" width="1" height="1" fill="#c57f7c"/>
  <rect x="18" y="11" width="1" height="1" fill="#dd6f72"/>
  <rect x="19" y="11" width="1" height="1" fill="#de595d"/>
  <rect x="20" y="11" width="1" height="1" fill="#ea5b5ce7"/>
  <rect x="21" y="11" width="1" height="1" fill="#f15f5e92"/>
  <rect x="26" y="11" width="1" height="1" fill="#2cbd7e7d"/>
  <rect x="27" y="11" width="1" height="1" fill="#2cbd7ef8"/>
  <rect x="28" y="11" width="4" height="1" fill="#2cbd7e"/>
  <rect x="32" y="11" width="1" height="1" fill="#2bbe7c"/>
  <rect x="33" y="11" width="1" height="1" fill="#2bbe7cf8"/>
  <rect x="34" y="11" width="1" height="1" fill="#2bbe7c80"/>
</svg>