<svg xmlns="http://www.w3.org/2000/svg" width="36" height="12" viewBox="0 0 36 12" shape-rendering="crispEdges">
  <rect x="6" y="0" width="1" height="1" fill="#3895d368"/>
  <rect x="7" y="0" width="1" height="1" fill="#3597cde9"/>
  <rect x="8" y="0" width="1" height="1" fill="#359bc854"/>
  <rect x="15" y="0" width="1" height="1" fill="#f8b6446e"/>
  <rect x="16" y="0" width="1" height="1" fill="#f9b843c7"/>
  <rect x="17" y="0" width="1" height="1" fill="#f7b140f3"/>
  <rect x="18" y="0" width="1" height="1" fill="#ffb04bf3"/>
  <rect x="19" y="0" width="1" height="1" fill="#ffaa47c7"/>
  <rect x="20" y="0" width="1" height="1" fill="#ffa43d6e"/>
  <rect x="27" y="0" width="1" height="1" fill="#38b57d6e"/>
  <rect x="28" y="0" width="1" height="1" fill="#2dbb7dc7"/>
  <rect x="29" y="0" width="1" height="1" fill="#32c384f3"/>
  <rect x="30" y="0" width="1" height="1" fill="#3ac185f3"/>
  <rect x="31" y="0" width="1" height="1" fill="#2eb076c7"/>
  <rect x="32" y="0" width="1" height="1" fill="#36b87e6e"/>
  <rect x="5" y="1" width="1" height="1" fill="#3d91d96a"/>
  <rect x="6" y="1" width="1" height="1" fill="#3795d3fe"/>
  <rect x="7" y="1" width="1" height="1" fill="#3398cf"/>
  <rect x="8" y="1" width="1" height="1" fill="#3197c6fa"/>
  <rect x="9" y="1" width="1" height="1" fill="#369dc154"/>
  <rect x="13" y="1" width="1" height="1" fill="#f7b3341b"/>
  <rect x="14" y="1" width="1" height="1" fill="#f6b33ccf"/>
  <rect x="15" y="1" width="1" height="1" fill="#f3b342"/>
  <rect x="16" y="1" width="1" height="1" fill="#eeb043"/>
  <rect x="17" y="1" width="1" height="1" fill="#fcb952"/>
  <rect x="18" y="1" width="1" height="1" fill="#fbab49"/>
  <rect x="19" y="1" width="1" height="1" fill="#ffac48"/>
  <rect x="20" y="1" width="1" height="1" fill="#ffa741"/>
  <rect x="21" y="1" width="1" height="1" fill="#ffad42cf"/>
  <rect x="22" y="1" width="1" height="1" fill="#ffb4441b"/>
  <rect x="25" y="1" width="1" height="1" fill="#1bba761b"/>
  <rect x="26" y="1" width="1" height="1" fill="#37c285cf"/>
  <rect x="27" y="1" width="1" height="1" fill="#37bb81"/>
  <rect x="28" y="1" width="1" height="1" fill="#34bb80"/>
  <rect x="29" y="1" width="1" height="1" fill="#35bc81"/>
  <rect x="30" y="1" width="1" height="1" fill="#32b67c"/>
  <rect x="31" y="1" width="1" height="1" fill="#30b47a"/>
  <rect x="32" y="1" width="1" height="1" fill="#3bbb82"/>
  <rect x="33" y="1" width="1" height="1" fill="#36b87ecf"/>
  <rect x="34" y="1" width="1" height="1" fill="#33bf821b"/>
  <rect x="4" y="2" width="1" height="1" fill="#428fd76a"/>
  <rect x="5" y="2" width="1" height="1" fill="#3f91d7fe"/>
  <rect x="6" y="2" width="1" height="1" fill="#3795d5"/>
  <rect x="7" y="2" width="1" height="1" fill="#3298d3e6"/>
  <rect x="8" y="2" width="1" height="1" fill="#3298d1"/>
  <rect x="9" y="2" width="1" height="1" fill="#298fbefa"/>
  <rect x="10" y="2" width="1" height="1" fill="#3c9ac154"/>
  <rect x="13" y="2" width="1" height="1" fill="#f7b23ccf"/>
  <rect x="14" y="2" width="1" height="1" fill="#f6b23e"/>
  <rect x="15" y="2" width="1" height="1" fill="#f1b346"/>
  <rect x="16" y="2" width="1" height="1" fill="#f1bc5e"/>
  <rect x="17" y="2" width="1" height="1" fill="#ffd981"/>
  <rect x="18" y="2" width="1" height="1" fill="#f3a94e"/>
  <rect x="19" y="2" width="1" height="1" fill="#ffab4a"/>
  <rect x="20" y="2" width="1" height="1" fill="#ffad48"/>
  <rect x="21" y="2" width="1" height="1" fill="#ffad44"/>
  <rect x="22" y="2" width="1" height="1" fill="#ffb040d0"/>
  <rect x="25" y="2" width="1" height="1" fill="#2cc684cf"/>
  <rect x="26" y="2" width="1" height="1" fill="#26c07e"/>
  <rect x="27" y="2" width="1" height="1" fill="#2abb7c"/>
  <rect x="28" y="2" width="1" height="1" fill="#37af79"/>
  <rect x="29" y="2" width="1" height="1" fill="#84f8c3"/>
  <rect x="30" y="2" width="1" height="1" fill="#32b47b"/>
  <rect x="31" y="2" width="1" height="1" fill="#3ac185"/>
  <rect x="32" y="2" width="2" height="1" fill="#3ab880"/>
  <rect x="34" y="2" width="1" height="1" fill="#33ba7ed0"/>
  <rect x="3" y="3" width="1" height="1" fill="#3f91ca6a"/>
  <rect x="4" y="3" width="1" height="1" fill="#4390cffe"/>
  <rect x="5" y="3" width="1" height="1" fill="#458fcf"/>
  <rect x="6" y="3" width="1" height="1" fill="#4590c995"/>
  <rect x="8" y="3" width="1" height="1" fill="#458bbc84"/>
  <rect x="9" y="3" width="1" height="1" fill="#4b8fbf"/>
  <rect x="10" y="3" width="1" height="1" fill="#468ebcfa"/>
  <rect x="11" y="3" width="1" height="1" fill="#678d9354"/>
  <rect x="12" y="3" width="1" height="1" fill="#d9b66b6d"/>
  <rect x="13" y="3" width="1" height="1" fill="#f4b244"/>
  <rect x="14" y="3" width="1" height="1" fill="#ecb350"/>
  <rect x="15" y="3" width="1" height="1" fill="#e4b460"/>
  <rect x="16" y="3" width="1" height="1" fill="#ffd999"/>
  <rect x="17" y="3" width="1" height="1" fill="#fffbbe"/>
  <rect x="18" y="3" width="1" height="1" fill="#f1ae60"/>
  <rect x="19" y="3" width="1" height="1" fill="#f6a750"/>
  <rect x="20" y="3" width="1" height="1" fill="#feb054"/>
  <rect x="21" y="3" width="1" height="1" fill="#feaf4d"/>
  <rect x="22" y="3" width="1" height="1" fill="#fdac43"/>
  <rect x="23" y="3" width="1" height="1" fill="#d8bf5d6d"/>
  <rect x="24" y="3" width="1" height="1" fill="#4fa65b6d"/>
  <rect x="25" y="3" width="1" height="1" fill="#2fbd80"/>
  <rect x="26" y="3" width="1" height="1" fill="#30b77c"/>
  <rect x="27" y="3" width="1" height="1" fill="#3db37d"/>
  <rect x="28" y="3" width="1" height="1" fill="#99f2c7"/>
  <rect x="29" y="3" width="1" height="1" fill="#c3fff1"/>
  <rect x="30" y="3" width="1" height="1" fill="#3bb47d"/>
  <rect x="31" y="3" width="1" height="1" fill="#31b57b"/>
  <rect x="32" y="3" width="1" height="1" fill="#aaffef"/>
  <rect x="33" y="3" width="1" height="1" fill="#3ab880"/>
  <rect x="34" y="3" width="1" height="1" fill="#35be82"/>
  <rect x="35" y="3" width="1" height="1" fill="#2fbd806d"/>
  <rect x="2" y="4" width="1" height="1" fill="#3995bc6a"/>
  <rect x="3" y="4" width="1" height="1" fill="#3b95b8fe"/>
  <rect x="4" y="4" width="1" height="1" fill="#4094c3fe"/>
  <rect x="5" y="4" width="1" height="1" fill="#4d8ec1c1"/>
  <rect x="6" y="4" width="1" height="1" fill="#6990baf7"/>
  <rect x="7" y="4" width="1" height="1" fill="#68799a48"/>
  <rect x="9" y="4" width="1" height="1" fill="#797f9fdd"/>
  <rect x="10" y="4" width="1" height="1" fill="#5e83ab"/>
  <rect x="11" y="4" width="1" height="1" fill="#6f8589e3"/>
  <rect x="12" y="4" width="1" height="1" fill="#dbb667c7"/>
  <rect x="13" y="4" width="1" height="1" fill="#f9c15b"/>
  <rect x="14" y="4" width="1" height="1" fill="#ffedae"/>
  <rect x="15" y="4" width="1" height="1" fill="#fffcd8"/>
  <rect x="16" y="4" width="1" height="1" fill="#ffffed"/>
  <rect x="17" y="4" width="1" height="1" fill="#fff7dd"/>
  <rect x="18" y="4" width="1" height="1" fill="#eeb178"/>
  <rect x="19" y="4" width="1" height="1" fill="#fff4ad"/>
  <rect x="20" y="4" width="1" height="1" fill="#f0ad5f"/>
  <rect x="21" y="4" width="1" height="1" fill="#fff4a1"/>
  <rect x="22" y="4" width="1" height="1" fill="#f8aa4e"/>
  <rect x="23" y="4" width="1" height="1" fill="#dbc067c7"/>
  <rect x="24" y="4" width="1" height="1" fill="#54ad66c7"/>
  <rect x="25" y="4" width="1" height="1" fill="#38b37c"/>
  <rect x="26" y="4" width="1" height="1" fill="#aefdd5"/>
  <rect x="27" y="4" width="1" height="1" fill="#e1fff5"/>
  <rect x="28" y="4" width="1" height="1" fill="#d9ffe6"/>
  <rect x="29" y="4" width="1" height="1" fill="#ddfff5"/>
  <rect x="30" y="4" width="1" height="1" fill="#47ac7c"/>
  <rect x="31" y="4" width="1" height="1" fill="#aefff3"/>
  <rect x="32" y="4" width="1" height="1" fill="#35b77d"/>
  <rect x="33" y="4" width="1" height="1" fill="#33ba7e"/>
  <rect x="34" y="4" width="1" height="1" fill="#30be81"/>
  <rect x="35" y="4" width="1" height="1" fill="#28bb7cc7"/>
  <rect x="1" y="5" width="1" height="1" fill="#3992ca6a"/>
  <rect x="2" y="5" width="1" height="1" fill="#3b94bafe"/>
  <rect x="3" y="5" width="1" height="1" fill="#4691aefe"/>
  <rect x="4" y="5" width="1" height="1" fill="#618bad66"/>
  <rect x="6" y="5" width="1" height="1" fill="#81748abb"/>
  <rect x="7" y="5" width="1" height="1" fill="#a28193fe"/>
  <rect x="8" y="5" width="1" height="1" fill="#9e6d7efe"/>
  <rect x="9" y="5" width="1" height="1" fill="#9e7789"/>
  <rect x="10" y="5" width="1" height="1" fill="#867b95fd"/>
  <rect x="11" y="5" width="1" height="1" fill="#8a7b755a"/>
  <rect x="12" y="5" width="1" height="1" fill="#e8b567f9"/>
  <rect x="13" y="5" width="1" height="1" fill="#ebb65b"/>
  <rect x="14" y="5" width="1" height="1" fill="#fffad2"/>
  <rect x="15" y="5" width="1" height="1" fill="#fff9f1"/>
  <rect x="16" y="5" width="1" height="1" fill="#fffbfe"/>
  <rect x="17" y="5" width="1" height="1" fill="#fff9ed"/>
  <rect x="18" y="5" width="1" height="1" fill="#e8b17d"/>
  <rect x="19" y="5" width="1" height="1" fill="#f1af66"/>
  <rect x="20" y="5" width="1" height="1" fill="#fff3a5"/>
  <rect x="21" y="5" width="1" height="1" fill="#ecb15c"/>
  <rect x="22" y="5" width="1" height="1" fill="#fbb252"/>
  <rect x="23" y="5" width="1" height="1" fill="#d8c064f8"/>
  <rect x="24" y="5" width="1" height="1" fill="#58b168f9"/>
  <rect x="25" y="5" width="1" height="1" fill="#45b682"/>
  <rect x="26" y="5" width="1" height="1" fill="#ddfff1"/>
  <rect x="27" y="5" width="1" height="1" fill="#f2fff1"/>
  <rect x="28" y="5" width="1" height="1" fill="#f0ffed"/>
  <rect x="29" y="5" width="1" height="1" fill="#e3fff1"/>
  <rect x="30" y="5" width="1" height="1" fill="#51aa7e"/>
  <rect x="31" y="5" width="1" height="1" fill="#43b983"/>
  <rect x="32" y="5" width="1" height="1" fill="#34b47b"/>
  <rect x="33" y="5" width="1" height="1" fill="#32bc80"/>
  <rect x="34" y="5" width="1" height="1" fill="#2cbd7e"/>
  <rect x="35" y="5" width="1" height="1" fill="#28bb7cf8"/>
  <rect x="0" y="6" width="1" height="1" fill="#3395c865"/>
  <rect x="1" y="6" width="1" height="1" fill="#3893c6fe"/>
  <rect x="2" y="6" width="1" height="1" fill="#4090c4fe"/>
  <rect x="3" y="6" width="1" height="1" fill="#6183ae66"/>
  <rect x="5" y="6" width="1" height="1" fill="#be6d7651"/>
  <rect x="6" y="6" width="1" height="1" fill="#bb676ffe"/>
  <rect x="7" y="6" width="1" height="1" fill="#ce7f87fd"/>
  <rect x="8" y="6" width="1" height="1" fill="#f3aeb8"/>
  <rect x="9" y="6" width="1" height="1" fill="#ca848e"/>
  <rect x="10" y="6" width="1" height="1" fill="#b5696c"/>
  <rect x="11" y="6" width="1" height="1" fill="#bb6d535d"/>
  <rect x="12" y="6" width="1" height="1" fill="#faae5ff9"/>
  <rect x="13" y="6" width="1" height="1" fill="#ebb465"/>
  <rect x="14" y="6" width="1" height="1" fill="#fffade"/>
  <rect x="15" y="6" width="1" height="1" fill="#fafcfc"/>
  <rect x="16" y="6" width="1" height="1" fill="#ffffff"/>
  <rect x="17" y="6" width="1" height="1" fill="#fffff2"/>
  <rect x="18" y="6" width="1" height="1" fill="#e0af70"/>
  <rect x="19" y="6" width="1" height="1" fill="#fff296"/>
  <rect x="20" y="6" width="1" height="1" fill="#e1b353"/>
  <rect x="21" y="6" width="1" height="1" fill="#fff38b"/>
  <rect x="22" y="6" width="1" height="1" fill="#fdb945"/>
  <rect x="23" y="6" width="1" height="1" fill="#d9c459f3"/>
  <rect x="24" y="6" width="1" height="1" fill="#59b164f9"/>
  <rect x="25" y="6" width="1" height="1" fill="#46b582"/>
  <rect x="26" y="6" width="1" height="1" fill="#defff1"/>
  <rect x="27" y="6" width="1" height="1" fill="#f3fff1"/>
  <rect x="28" y="6" width="1" height="1" fill="#f1ffee"/>
  <rect x="29" y="6" width="1" height="1" fill="#e8fff4"/>
  <rect x="30" y="6" width="1" height="1" fill="#50a47a"/>
  <rect x="31" y="6" width="1" height="1" fill="#b6fff3"/>
  <rect x="32" y="6" width="1" height="1" fill="#acffee"/>
  <rect x="33" y="6" width="1" height="1" fill="#38ba81"/>
  <rect x="34" y="6" width="1" height="1" fill="#2cb87b"/>
  <rect x="35" y="6" width="1" height="1" fill="#2cbd7ef3"/>
  <rect x="0" y="7" width="1" height="1" fill="#3095c7e6"/>
  <rect x="1" y="7" width="1" height="1" fill="#3795cafe"/>
  <rect x="2" y="7" width="1" height="1" fill="#3e8fca66"/>
  <rect x="5" y="7" width="1" height="1" fill="#d66166cf"/>
  <rect x="6" y="7" width="1" height="1" fill="#e37a7dfb"/>
  <rect x="7" y="7" width="1" height="1" fill="#d37577"/>
  <rect x="8" y="7" width="1" height="1" fill="#ffc1c5"/>
  <rect x="9" y="7" width="1" height="1" fill="#ffedec"/>
  <rect x="10" y="7" width="1" height="1" fill="#f08076ef"/>
  <rect x="11" y="7" width="1" height="1" fill="#d3633ed9"/>
  <rect x="12" y="7" width="1" height="1" fill="#ffa456c7"/>
  <rect x="13" y="7" width="1" height="1" fill="#fcbc6b"/>
  <rect x="14" y="7" width="1" height="1" fill="#ffedc1"/>
  <rect x="15" y="7" width="1" height="1" fill="#ffffea"/>
  <rect x="16" y="7" width="1" height="1" fill="#fffaf1"/>
  <rect x="17" y="7" width="1" height="1" fill="#fffee5"/>
  <rect x="18" y="7" width="1" height="1" fill="#eab46b"/>
  <rect x="19" y="7" width="1" height="1" fill="#f3b652"/>
  <rect x="20" y="7" width="1" height="1" fill="#eab94d"/>
  <rect x="21" y="7" width="1" height="1" fill="#efbc47"/>
  <rect x="22" y="7" width="1" height="1" fill="#f8b636"/>
  <rect x="23" y="7" width="1" height="1" fill="#d6bf4ec7"/>
  <rect x="24" y="7" width="1" height="1" fill="#5aae5fc7"/>
  <rect x="25" y="7" width="1" height="1" fill="#41b27e"/>
  <rect x="26" y="7" width="1" height="1" fill="#b4fad5"/>
  <rect x="27" y="7" width="1" height="1" fill="#e6fff5"/>
  <rect x="28" y="7" width="1" height="1" fill="#e9fff5"/>
  <rect x="29" y="7" width="1" height="1" fill="#daffef"/>
  <rect x="30" y="7" width="1" height="1" fill="#53a97e"/>
  <rect x="31" y="7" width="1" height="1" fill="#46b582"/>
  <rect x="32" y="7" width="1" height="1" fill="#3cb57e"/>
  <rect x="33" y="7" width="1" height="1" fill="#37b980"/>
  <rect x="34" y="7" width="1" height="1" fill="#2bb77a"/>
  <rect x="35" y="7" width="1" height="1" fill="#2bb97bc7"/>
  <rect x="0" y="8" width="1" height="1" fill="#3290d2f0"/>
  <rect x="1" y="8" width="1" height="1" fill="#3795d5f0"/>
  <rect x="5" y="8" width="1" height="1" fill="#c16576f7"/>
  <rect x="6" y="8" width="1" height="1" fill="#fdabb7"/>
  <rect x="7" y="8" width="1" height="1" fill="#ffbfc3"/>
  <rect x="8" y="8" width="1" height="1" fill="#d87b78"/>
  <rect x="9" y="8" width="1" height="1" fill="#ffc7c0"/>
  <rect x="10" y="8" width="1" height="1" fill="#ff9a8dfc"/>
  <rect x="11" y="8" width="1" height="1" fill="#df6543"/>
  <rect x="12" y="8" width="1" height="1" fill="#ffa85c6e"/>
  <rect x="13" y="8" width="1" height="1" fill="#fdaf51"/>
  <rect x="14" y="8" width="1" height="1" fill="#f1b159"/>
  <rect x="15" y="8" width="1" height="1" fill="#e9b068"/>
  <rect x="16" y="8" width="1" height="1" fill="#ffd1a6"/>
  <rect x="17" y="8" width="1" height="1" fill="#fff0c5"/>
  <rect x="18" y="8" width="1" height="1" fill="#f6b162"/>
  <rect x="19" y="8" width="1" height="1" fill="#f2ad45"/>
  <rect x="20" y="8" width="1" height="1" fill="#f5b43f"/>
  <rect x="21" y="8" width="1" height="1" fill="#f7b537"/>
  <rect x="22" y="8" width="1" height="1" fill="#fcb333"/>
  <rect x="23" y="8" width="1" height="1" fill="#d6bf4e6e"/>
  <rect x="24" y="8" width="1" height="1" fill="#5dac5f6e"/>
  <rect x="25" y="8" width="1" height="1" fill="#39b67e"/>
  <rect x="26" y="8" width="1" height="1" fill="#43b581"/>
  <rect x="27" y="8" width="1" height="1" fill="#4db081"/>
  <rect x="28" y="8" width="1" height="1" fill="#97e9c0"/>
  <rect x="29" y="8" width="1" height="1" fill="#cdfff4"/>
  <rect x="30" y="8" width="1" height="1" fill="#49a97b"/>
  <rect x="31" y="8" width="1" height="1" fill="#bbfff9"/>
  <rect x="32" y="8" width="1" height="1" fill="#37ba7e"/>
  <rect x="33" y="8" width="1" height="1" fill="#30bc7c"/>
  <rect x="34" y="8" width="1" height="1" fill="#2fbe7e"/>
  <rect x="35" y="8" width="1" height="1" fill="#2abb7a6e"/>
  <rect x="0" y="9" width="1" height="1" fill="#358ed6f0"/>
  <rect x="1" y="9" width="1" height="1" fill="#3894d5f0"/>
  <rect x="4" y="9" width="1" height="1" fill="#7b719455"/>
  <rect x="5" y="9" width="1" height="1" fill="#a46f85fe"/>
  <rect x="6" y="9" width="1" height="1" fill="#d48995"/>
  <rect x="7" y="9" width="1" height="1" fill="#ffe0e3"/>
  <rect x="8" y="9" width="1" height="1" fill="#ffc8c1"/>
  <rect x="9" y="9" width="1" height="1" fill="#e77267"/>
  <rect x="10" y="9" width="1" height="1" fill="#f77266f4"/>
  <rect x="11" y="9" width="1" height="1" fill="#e66747d8"/>
  <rect x="13" y="9" width="1" height="1" fill="#fda944d0"/>
  <rect x="14" y="9" width="1" height="1" fill="#feae40"/>
  <rect x="15" y="9" width="1" height="1" fill="#fdae49"/>
  <rect x="16" y="9" width="1" height="1" fill="#ffae68"/>
  <rect x="17" y="9" width="1" height="1" fill="#ffc887"/>
  <rect x="18" y="9" width="1" height="1" fill="#f9ac54"/>
  <rect x="19" y="9" width="1" height="1" fill="#f9af44"/>
  <rect x="20" y="9" width="1" height="1" fill="#fcb239"/>
  <rect x="21" y="9" width="1" height="1" fill="#fdb235"/>
  <rect x="22" y="9" width="1" height="1" fill="#fdb235d1"/>
  <rect x="25" y="9" width="1" height="1" fill="#35bc81d0"/>
  <rect x="26" y="9" width="1" height="1" fill="#32be81"/>
  <rect x="27" y="9" width="1" height="1" fill="#37bb81"/>
  <rect x="28" y="9" width="1" height="1" fill="#3eaf7b"/>
  <rect x="29" y="9" width="1" height="1" fill="#81ebba"/>
  <rect x="30" y="9" width="1" height="1" fill="#4ab885"/>
  <rect x="31" y="9" width="1" height="1" fill="#3eb680"/>
  <rect x="32" y="9" width="1" height="1" fill="#a0ffeb"/>
  <rect x="33" y="9" width="1" height="1" fill="#2ebe7e"/>
  <rect x="34" y="9" width="1" height="1" fill="#27b777d1"/>
  <rect x="0" y="10" width="1" height="1" fill="#388fd1f0"/>
  <rect x="1" y="10" width="1" height="1" fill="#3b90cefd"/>
  <rect x="2" y="10" width="1" height="1" fill="#4092c9ee"/>
  <rect x="3" y="10" width="1" height="1" fill="#4d90c0ee"/>
  <rect x="4" y="10" width="1" height="1" fill="#5b86aefe"/>
  <rect x="5" y="10" width="1" height="1" fill="#817a93fd"/>
  <rect x="6" y="10" width="1" height="1" fill="#c36e76fe"/>
  <rect x="7" y="10" width="1" height="1" fill="#f37977f5"/>
  <rect x="8" y="10" width="1" height="1" fill="#ff9d95"/>
  <rect x="9" y="10" width="1" height="1" fill="#ea766bf6"/>
  <rect x="10" y="10" width="1" height="1" fill="#e86357"/>
  <rect x="11" y="10" width="1" height="1" fill="#e163425b"/>
  <rect x="13" y="10" width="1" height="1" fill="#f8a23d1b"/>
  <rect x="14" y="10" width="1" height="1" fill="#fbab3ecf"/>
  <rect x="15" y="10" width="1" height="1" fill="#fcae44"/>
  <rect x="16" y="10" width="1" height="1" fill="#fcab52"/>
  <rect x="17" y="10" width="1" height="1" fill="#ffae58"/>
  <rect x="18" y="10" width="1" height="1" fill="#fdb04a"/>
  <rect x="19" y="10" width="1" height="1" fill="#fdb242"/>
  <rect x="20" y="10" width="1" height="1" fill="#fdb03d"/>
  <rect x="21" y="10" width="1" height="1" fill="#feb23cd0"/>
  <rect x="22" y="10" width="1" height="1" fill="#feb23e1b"/>
  <rect x="25" y="10" width="1" height="1" fill="#30c0821b"/>
  <rect x="26" y="10" width="1" height="1" fill="#2cc181cf"/>
  <rect x="27" y="10" width="1" height="1" fill="#2bbc7d"/>
  <rect x="28" y="10" width="1" height="1" fill="#30b279"/>
  <rect x="29" y="10" width="1" height="1" fill="#33b179"/>
  <rect x="30" y="10" width="1" height="1" fill="#38ba81"/>
  <rect x="31" y="10" width="1" height="1" fill="#39bf84"/>
  <rect x="32" y="10" width="1" height="1" fill="#31c080"/>
  <rect x="33" y="10" width="1" height="1" fill="#2cbd7cd0"/>
  <rect x="34" y="10" width="1" height="1" fill="#2cbd7c1b"/>
  <rect x="0" y="11" width="1" height="1" fill="#3b90cecf"/>
  <rect x="1" y="11" width="1" height="1" fill="#3d8ecbfd"/>
  <rect x="2" y="11" width="1" height="1" fill="#428dc5ee"/>
  <rect x="3" y="11" width="1" height="1" fill="#428abbed"/>
  <rect x="4" y="11" width="1" height="1" fill="#4187b1d9"/>
  <rect x="5" y="11" width="1" height="1" fill="#72829e59"/>
  <rect x="6" y="11" width="1" height="1" fill="#c2666e50"/>
  <rect x="7" y="11" width="1" height="1" fill="#f46a66d0"/>
  <rect x="8" y="11" width="1" height="1" fill="#d9645cf6"/>
  <rect x="9" y="11" width="1" height="1" fill="#dc685dd3"/>
  <rect x="10" y="11" width="1" height="1" fill="#e35f5259"/>
  <rect x="15" y="11" width="1" height="1" fill="#ffb2446f"/>
  <rect x="16" y="11" width="1" height="1" fill="#ffb14fcb"/>
  <rect x="17" y="11" width="1" height="1" fill="#ffb654f4"/>
  <rect x="18" y="11" width="1" height="1" fill="#ffb249f4"/>
  <rect x="19" y="11" width="1" height="1" fill="#fdb041cb"/>
  <rect x="20" y="11" width="1" height="1" fill="#fdb03f6f"/>
  <rect x="27" y="11" width="1" height="1" fill="#2ac0806f"/>
  <rect x="28" y="11" width="1" height="1" fill="#32be81cb"/>
  <rect x="29" y="11" width="1" height="1" fill="#3cc388f4"/>
  <rect x="30" y="11" width="1" height="1" fill="#30b97df4"/>
  <rect x="31" y="11" width="1" height="1" fill="#30bb7ecb"/>
  <rect x="32" y="11" width="1" height="1" fill="#2bb9796f"/>
</svg>