<svg xmlns="http://www.w3.org/2000/svg" width="11" height="11" viewBox="0 0 11 11" shape-rendering="crispEdges">
  <rect x="1" y="0" width="1" height="1" fill="#e7bb3f37"/>
  <rect x="2" y="0" width="1" height="1" fill="#dabd5972"/>
  <rect x="3" y="0" width="1" height="1" fill="#d5bd6691"/>
  <rect x="4" y="0" width="1" height="1" fill="#dabb6491"/>
  <rect x="5" y="0" width="1" height="1" fill="#dcba6491"/>
  <rect x="6" y="0" width="1" height="1" fill="#dabb6291"/>
  <rect x="7" y="0" width="1" height="1" fill="#d9bd5b91"/>
  <rect x="8" y="0" width="1" height="1" fill="#d2bb4d72"/>
  <rect x="9" y="0" width="1" height="1" fill="#e6c14537"/>
  <rect x="0" y="1" width="1" height="1" fill="#e1b63948"/>
  <rect x="1" y="1" width="1" height="1" fill="#f8d463ac"/>
  <rect x="2" y="1" width="1" height="1" fill="#fff39be8"/>
  <rect x="3" y="1" width="1" height="1" fill="#fffdb4"/>
  <rect x="4" y="1" width="1" height="1" fill="#fffbb2"/>
  <rect x="5" y="1" width="1" height="1" fill="#fffbb0"/>
  <rect x="6" y="1" width="1" height="1" fill="#fffcae"/>
  <rect x="7" y="1" width="1" height="1" fill="#fffda8"/>
  <rect x="8" y="1" width="1" height="1" fill="#fff799e8"/>
  <rect x="9" y="1" width="1" height="1" fill="#f2ce5dac"/>
  <rect x="10" y="1" width="1" height="1" fill="#eeb12648"/>
  <rect x="0" y="2" width="1" height="1" fill="#ddbf5c83"/>
  <rect x="1" y="2" width="1" height="1" fill="#fffba3f5"/>
  <rect x="2" y="2" width="1" height="1" fill="#ffffc3"/>
  <rect x="3" y="2" width="1" height="1" fill="#fffecd"/>
  <rect x="4" y="2" width="1" height="1" fill="#fffbcd"/>
  <rect x="5" y="2" width="1" height="1" fill="#fffbcb"/>
  <rect x="6" y="2" width="1" height="1" fill="#fffcc7"/>
  <rect x="7" y="2" width="1" height="1" fill="#fffdc1"/>
  <rect x="8" y="2" width="1" height="1" fill="#ffffc0"/>
  <rect x="9" y="2" width="1" height="1" fill="#fff295f5"/>
  <rect x="10" y="2" width="1" height="1" fill="#f8bc3683"/>
  <rect x="0" y="3" width="1" height="1" fill="#d2b96291"/>
  <rect x="1" y="3" width="1" height="1" fill="#ffffb6"/>
  <rect x="2" y="3" width="1" height="1" fill="#fbf8c7"/>
  <rect x="3" y="3" width="1" height="1" fill="#fbfdd8"/>
  <rect x="4" y="3" width="1" height="1" fill="#fffad8"/>
  <rect x="5" y="3" width="1" height="1" fill="#fffad6"/>
  <rect x="6" y="3" width="1" height="1" fill="#fffbd2"/>
  <rect x="7" y="3" width="1" height="1" fill="#fffbce"/>
  <rect x="8" y="3" width="1" height="1" fill="#fffdcc"/>
  <rect x="9" y="3" width="1" height="1" fill="#fff6a9"/>
  <rect x="10" y="3" width="1" height="1" fill="#f0b53591"/>
  <rect x="0" y="4" width="1" height="1" fill="#d9ba6291"/>
  <rect x="1" y="4" width="1" height="1" fill="#fff9af"/>
  <rect x="2" y="4" width="1" height="1" fill="#fffacc"/>
  <rect x="3" y="4" width="1" height="1" fill="#fff9d7"/>
  <rect x="4" y="4" width="1" height="1" fill="#fff9d6"/>
  <rect x="5" y="4" width="1" height="1" fill="#fff9d4"/>
  <rect x="6" y="4" width="1" height="1" fill="#fffad2"/>
  <rect x="7" y="4" width="1" height="1" fill="#fff9d2"/>
  <rect x="8" y="4" width="1" height="1" fill="#fffcd6"/>
  <rect x="9" y="4" width="1" height="1" fill="#fff5b5"/>
  <rect x="10" y="4" width="1" height="1" fill="#eeb53991"/>
  <rect x="0" y="5" width="1" height="1" fill="#dbb96291"/>
  <rect x="1" y="5" width="1" height="1" fill="#fff9ad"/>
  <rect x="2" y="5" width="1" height="1" fill="#fffaca"/>
  <rect x="3" y="5" width="1" height="1" fill="#fff9d5"/>
  <rect x="4" y="5" width="1" height="1" fill="#fff9d4"/>
  <rect x="5" y="5" width="1" height="1" fill="#fff8d2"/>
  <rect x="6" y="5" width="2" height="1" fill="#fff9d0"/>
  <rect x="8" y="5" width="1" height="1" fill="#fffcd8"/>
  <rect x="9" y="5" width="1" height="1" fill="#fff7b7"/>
  <rect x="10" y="5" width="1" height="1" fill="#edb53d91"/>
  <rect x="0" y="6" width="1" height="1" fill="#d9ba6091"/>
  <rect x="1" y="6" width="1" height="1" fill="#fffaab"/>
  <rect x="2" y="6" width="1" height="1" fill="#fffbc6"/>
  <rect x="3" y="6" width="1" height="1" fill="#fffad1"/>
  <rect x="4" y="6" width="1" height="1" fill="#fffad2"/>
  <rect x="5" y="6" width="1" height="1" fill="#fff9d0"/>
  <rect x="6" y="6" width="2" height="1" fill="#fffbce"/>
  <rect x="8" y="6" width="1" height="1" fill="#ffffd2"/>
  <rect x="9" y="6" width="1" height="1" fill="#fff9b3"/>
  <rect x="10" y="6" width="1" height="1" fill="#e9b63f91"/>
  <rect x="0" y="7" width="1" height="1" fill="#d7bc5a91"/>
  <rect x="1" y="7" width="1" height="1" fill="#fffba5"/>
  <rect x="2" y="7" width="1" height="1" fill="#fffcc0"/>
  <rect x="3" y="7" width="1" height="1" fill="#fff9cc"/>
  <rect x="4" y="7" width="2" height="1" fill="#fff9d0"/>
  <rect x="6" y="7" width="1" height="1" fill="#fffbce"/>
  <rect x="7" y="7" width="1" height="1" fill="#fffcca"/>
  <rect x="8" y="7" width="1" height="1" fill="#ffffce"/>
  <rect x="9" y="7" width="1" height="1" fill="#fffaaf"/>
  <rect x="10" y="7" width="1" height="1" fill="#ebb54191"/>
  <rect x="0" y="8" width="1" height="1" fill="#d1ba4c82"/>
  <rect x="1" y="8" width="1" height="1" fill="#fffb9af3"/>
  <rect x="2" y="8" width="1" height="1" fill="#ffffbb"/>
  <rect x="3" y="8" width="1" height="1" fill="#ffffcf"/>
  <rect x="4" y="8" width="1" height="1" fill="#fffad4"/>
  <rect x="5" y="8" width="1" height="1" fill="#fffad6"/>
  <rect x="6" y="8" width="1" height="1" fill="#fffdd0"/>
  <rect x="7" y="8" width="1" height="1" fill="#fffecc"/>
  <rect x="8" y="8" width="1" height="1" fill="#fffec8"/>
  <rect x="9" y="8" width="1" height="1" fill="#fff0a7f3"/>
  <rect x="10" y="8" width="1" height="1" fill="#eeb34182"/>
  <rect x="0" y="9" width="1" height="1" fill="#e3bf4046"/>
  <rect x="1" y="9" width="1" height="1" fill="#f7d35fb0"/>
  <rect x="2" y="9" width="1" height="1" fill="#ffee92f5"/>
  <rect x="3" y="9" width="1" height="1" fill="#fff9ac"/>
  <rect x="4" y="9" width="1" height="1" fill="#fff9b7"/>
  <rect x="5" y="9" width="1" height="1" fill="#fffabb"/>
  <rect x="6" y="9" width="1" height="1" fill="#fffdb7"/>
  <rect x="7" y="9" width="1" height="1" fill="#fffdb3"/>
  <rect x="8" y="9" width="1" height="1" fill="#fff7aef5"/>
  <rect x="9" y="9" width="1" height="1" fill="#fcd688b0"/>
  <rect x="10" y="9" width="1" height="1" fill="#e3af5646"/>
  <rect x="1" y="10" width="1" height="1" fill="#f3b62948"/>
  <rect x="2" y="10" width="1" height="1" fill="#f4b83183"/>
  <rect x="3" y="10" width="1" height="1" fill="#f1b63691"/>
  <rect x="4" y="10" width="1" height="1" fill="#f1b73b91"/>
  <rect x="5" y="10" width="1" height="1" fill="#efb73f91"/>
  <rect x="6" y="10" width="1" height="1" fill="#ecb94191"/>
  <rect x="7" y="10" width="1" height="1" fill="#edb74391"/>
  <rect x="8" y="10" width="1" height="1" fill="#f1b64383"/>
  <rect x="9" y="10" width="1" height="1" fill="#ecb95f48"/>
</svg>