<svg xmlns="http://www.w3.org/2000/svg" width="44" height="44" viewBox="0 0 44 44" shape-rendering="crispEdges">
  <rect x="18" y="8" width="1" height="1" fill="#98b557"/>
  <rect x="19" y="8" width="1" height="1" fill="#9db937"/>
  <rect x="20" y="8" width="2" height="1" fill="#9fb73d"/>
  <rect x="22" y="8" width="1" height="1" fill="#9db939"/>
  <rect x="23" y="8" width="1" height="1" fill="#9bba37"/>
  <rect x="24" y="8" width="1" height="1" fill="#9abb35"/>
  <rect x="25" y="8" width="1" height="1" fill="#9bbb33"/>
  <rect x="26" y="8" width="1" height="1" fill="#9dba33"/>
  <rect x="18" y="9" width="1" height="1" fill="#97bb3f"/>
  <rect x="19" y="9" width="1" height="1" fill="#9dc015"/>
  <rect x="20" y="9" width="1" height="1" fill="#9fbe1b"/>
  <rect x="21" y="9" width="1" height="1" fill="#9fbd1d"/>
  <rect x="22" y="9" width="1" height="1" fill="#9dbf17"/>
  <rect x="23" y="9" width="1" height="4" fill="#9ac213"/>
  <rect x="24" y="9" width="1" height="3" fill="#98c311"/>
  <rect x="25" y="9" width="1" height="3" fill="#98c30f"/>
  <rect x="26" y="9" width="1" height="1" fill="#9dc10f"/>
  <rect x="18" y="10" width="1" height="5" fill="#95bc3f"/>
  <rect x="19" y="10" width="1" height="1" fill="#9bc115"/>
  <rect x="20" y="10" width="2" height="1" fill="#9fbe1b"/>
  <rect x="22" y="10" width="1" height="5" fill="#9bc017"/>
  <rect x="26" y="10" width="1" height="2" fill="#9bc20f"/>
  <rect x="19" y="11" width="1" height="3" fill="#9bc113"/>
  <rect x="20" y="11" width="1" height="1" fill="#9dbf19"/>
  <rect x="21" y="11" width="1" height="1" fill="#9dbf1b"/>
  <rect x="20" y="12" width="2" height="2" fill="#9dbf19"/>
  <rect x="24" y="12" width="2" height="1" fill="#98c311"/>
  <rect x="26" y="12" width="1" height="3" fill="#9bc111"/>
  <rect x="23" y="13" width="1" height="2" fill="#9ac115"/>
  <rect x="24" y="13" width="1" height="2" fill="#98c313"/>
  <rect x="25" y="13" width="1" height="2" fill="#9ac211"/>
  <rect x="19" y="14" width="1" height="2" fill="#9ac011"/>
  <rect x="20" y="14" width="1" height="1" fill="#9dbf17"/>
  <rect x="21" y="14" width="1" height="1" fill="#9dbf19"/>
  <rect x="18" y="15" width="1" height="1" fill="#96bc32"/>
  <rect x="20" y="15" width="2" height="1" fill="#9dbf17"/>
  <rect x="22" y="15" width="1" height="1" fill="#9bc115"/>
  <rect x="23" y="15" width="1" height="1" fill="#9ac213"/>
  <rect x="24" y="15" width="2" height="4" fill="#98c311"/>
  <rect x="26" y="15" width="1" height="4" fill="#9ac211"/>
  <rect x="18" y="16" width="1" height="1" fill="#98bd1a"/>
  <rect x="19" y="16" width="1" height="2" fill="#9abf13"/>
  <rect x="20" y="16" width="2" height="3" fill="#9cbe15"/>
  <rect x="22" y="16" width="1" height="3" fill="#9abf13"/>
  <rect x="23" y="16" width="1" height="3" fill="#99c111"/>
  <rect x="8" y="17" width="1" height="1" fill="#9fb839"/>
  <rect x="9" y="17" width="3" height="1" fill="#9fbf15"/>
  <rect x="12" y="17" width="2" height="1" fill="#9dc015"/>
  <rect x="14" y="17" width="2" height="1" fill="#9cbf13"/>
  <rect x="16" y="17" width="2" height="1" fill="#9cbf11"/>
  <rect x="18" y="17" width="1" height="1" fill="#99bf10"/>
  <rect x="27" y="17" width="1" height="2" fill="#97c20f"/>
  <rect x="28" y="17" width="1" height="1" fill="#92c411"/>
  <rect x="29" y="17" width="1" height="1" fill="#90c310"/>
  <rect x="30" y="17" width="2" height="1" fill="#92c411"/>
  <rect x="32" y="17" width="1" height="1" fill="#92c613"/>
  <rect x="33" y="17" width="1" height="1" fill="#92c515"/>
  <rect x="34" y="17" width="1" height="1" fill="#93c417"/>
  <rect x="35" y="17" width="1" height="1" fill="#96ba3a"/>
  <rect x="8" y="18" width="1" height="1" fill="#95af30"/>
  <rect x="9" y="18" width="1" height="1" fill="#95b60b"/>
  <rect x="10" y="18" width="3" height="1" fill="#94b60b"/>
  <rect x="13" y="18" width="1" height="1" fill="#93b80c"/>
  <rect x="14" y="18" width="1" height="1" fill="#94ba0e"/>
  <rect x="15" y="18" width="1" height="1" fill="#96bb0f"/>
  <rect x="16" y="18" width="1" height="1" fill="#97ba0d"/>
  <rect x="17" y="18" width="1" height="1" fill="#98bb0e"/>
  <rect x="18" y="18" width="1" height="1" fill="#98bd0f"/>
  <rect x="19" y="18" width="1" height="1" fill="#99be12"/>
  <rect x="28" y="18" width="1" height="2" fill="#93c210"/>
  <rect x="29" y="18" width="1" height="1" fill="#8fc00e"/>
  <rect x="30" y="18" width="1" height="1" fill="#8ebf0d"/>
  <rect x="31" y="18" width="1" height="1" fill="#8dbe0c"/>
  <rect x="32" y="18" width="1" height="1" fill="#8bbf0c"/>
  <rect x="33" y="18" width="1" height="1" fill="#8abd0c"/>
  <rect x="34" y="18" width="1" height="1" fill="#8abb0d"/>
  <rect x="35" y="18" width="1" height="1" fill="#8fb132"/>
  <rect x="8" y="19" width="1" height="1" fill="#9cb637"/>
  <rect x="9" y="19" width="1" height="1" fill="#9cbd12"/>
  <rect x="10" y="19" width="2" height="1" fill="#9bbd12"/>
  <rect x="12" y="19" width="4" height="1" fill="#99be12"/>
  <rect x="16" y="19" width="2" height="1" fill="#9abd0f"/>
  <rect x="18" y="19" width="2" height="1" fill="#98bd0f"/>
  <rect x="20" y="19" width="2" height="1" fill="#9bbd12"/>
  <rect x="22" y="19" width="1" height="1" fill="#99bf10"/>
  <rect x="23" y="19" width="1" height="1" fill="#98bf10"/>
  <rect x="24" y="19" width="1" height="1" fill="#99c10f"/>
  <rect x="25" y="19" width="1" height="1" fill="#97c20f"/>
  <rect x="26" y="19" width="1" height="1" fill="#99c10f"/>
  <rect x="27" y="19" width="1" height="1" fill="#96c10e"/>
  <rect x="29" y="19" width="4" height="1" fill="#90c10f"/>
  <rect x="33" y="19" width="1" height="1" fill="#8ebf0f"/>
  <rect x="34" y="19" width="1" height="1" fill="#90bf12"/>
  <rect x="35" y="19" width="1" height="1" fill="#96b839"/>
  <rect x="8" y="20" width="1" height="1" fill="#a3bd3e"/>
  <rect x="9" y="20" width="1" height="3" fill="#91b409"/>
  <rect x="10" y="20" width="1" height="2" fill="#97ba0f"/>
  <rect x="11" y="20" width="1" height="2" fill="#95b80c"/>
  <rect x="12" y="20" width="4" height="1" fill="#94ba0e"/>
  <rect x="16" y="20" width="3" height="1" fill="#98bb0e"/>
  <rect x="19" y="20" width="1" height="1" fill="#97ba0d"/>
  <rect x="20" y="20" width="2" height="1" fill="#98bb10"/>
  <rect x="22" y="20" width="2" height="1" fill="#97bc0e"/>
  <rect x="24" y="20" width="3" height="1" fill="#96be0f"/>
  <rect x="27" y="20" width="1" height="1" fill="#94be0e"/>
  <rect x="28" y="20" width="1" height="1" fill="#93c00f"/>
  <rect x="29" y="20" width="3" height="1" fill="#92c10f"/>
  <rect x="32" y="20" width="1" height="1" fill="#90c00e"/>
  <rect x="33" y="20" width="1" height="1" fill="#8dbc0c"/>
  <rect x="34" y="20" width="1" height="1" fill="#92be12"/>
  <rect x="35" y="20" width="1" height="1" fill="#9fbf40"/>
  <rect x="8" y="21" width="1" height="3" fill="#a2bd3e"/>
  <rect x="12" y="21" width="4" height="1" fill="#93b80c"/>
  <rect x="16" y="21" width="4" height="1" fill="#95b80a"/>
  <rect x="20" y="21" width="2" height="1" fill="#96b90e"/>
  <rect x="22" y="21" width="2" height="1" fill="#94ba0c"/>
  <rect x="24" y="21" width="4" height="1" fill="#93bb0c"/>
  <rect x="28" y="21" width="1" height="1" fill="#91bc0c"/>
  <rect x="29" y="21" width="1" height="1" fill="#90bc0c"/>
  <rect x="30" y="21" width="2" height="1" fill="#8ebd0c"/>
  <rect x="32" y="21" width="1" height="1" fill="#8fbe0d"/>
  <rect x="33" y="21" width="1" height="2" fill="#89b809"/>
  <rect x="34" y="21" width="1" height="2" fill="#90bc10"/>
  <rect x="35" y="21" width="1" height="3" fill="#a0c041"/>
  <rect x="10" y="22" width="1" height="1" fill="#96bb0f"/>
  <rect x="11" y="22" width="5" height="1" fill="#93b80c"/>
  <rect x="16" y="22" width="2" height="1" fill="#93b90a"/>
  <rect x="18" y="22" width="2" height="1" fill="#93b80c"/>
  <rect x="20" y="22" width="3" height="1" fill="#93b90a"/>
  <rect x="23" y="22" width="1" height="1" fill="#92ba0a"/>
  <rect x="24" y="22" width="2" height="1" fill="#92ba08"/>
  <rect x="26" y="22" width="2" height="1" fill="#92ba0a"/>
  <rect x="28" y="22" width="1" height="1" fill="#90ba0a"/>
  <rect x="29" y="22" width="1" height="1" fill="#8fbb0a"/>
  <rect x="30" y="22" width="2" height="1" fill="#8dbc0a"/>
  <rect x="32" y="22" width="1" height="1" fill="#8ebf0d"/>
  <rect x="9" y="23" width="1" height="1" fill="#91b40b"/>
  <rect x="10" y="23" width="1" height="1" fill="#96ba11"/>
  <rect x="11" y="23" width="4" height="1" fill="#93b80e"/>
  <rect x="15" y="23" width="1" height="1" fill="#92b90c"/>
  <rect x="16" y="23" width="1" height="1" fill="#91b80b"/>
  <rect x="17" y="23" width="3" height="1" fill="#93ba0e"/>
  <rect x="20" y="23" width="6" height="1" fill="#92ba0a"/>
  <rect x="26" y="23" width="2" height="1" fill="#91b809"/>
  <rect x="28" y="23" width="1" height="1" fill="#90ba0c"/>
  <rect x="29" y="23" width="1" height="1" fill="#8fbb0c"/>
  <rect x="30" y="23" width="1" height="1" fill="#8dbc0c"/>
  <rect x="31" y="23" width="1" height="1" fill="#8bbc0c"/>
  <rect x="32" y="23" width="1" height="1" fill="#8ebe11"/>
  <rect x="33" y="23" width="1" height="1" fill="#89b80b"/>
  <rect x="34" y="23" width="1" height="1" fill="#90bb12"/>
  <rect x="8" y="24" width="1" height="1" fill="#97b237"/>
  <rect x="9" y="24" width="1" height="1" fill="#93b410"/>
  <rect x="10" y="24" width="1" height="1" fill="#92b611"/>
  <rect x="11" y="24" width="3" height="1" fill="#8fb610"/>
  <rect x="14" y="24" width="1" height="1" fill="#8fb60e"/>
  <rect x="15" y="24" width="1" height="1" fill="#8fb80d"/>
  <rect x="16" y="24" width="1" height="1" fill="#90ba0c"/>
  <rect x="17" y="24" width="1" height="1" fill="#91bb0e"/>
  <rect x="18" y="24" width="1" height="1" fill="#92bc11"/>
  <rect x="19" y="24" width="1" height="1" fill="#90ba0e"/>
  <rect x="20" y="24" width="1" height="1" fill="#90ba0c"/>
  <rect x="21" y="24" width="1" height="1" fill="#90ba0a"/>
  <rect x="22" y="24" width="1" height="1" fill="#90ba0c"/>
  <rect x="23" y="24" width="2" height="1" fill="#92b90c"/>
  <rect x="25" y="24" width="1" height="1" fill="#93b90a"/>
  <rect x="26" y="24" width="1" height="1" fill="#92ba0a"/>
  <rect x="27" y="24" width="1" height="1" fill="#91b80b"/>
  <rect x="28" y="24" width="1" height="1" fill="#8bb50a"/>
  <rect x="29" y="24" width="1" height="1" fill="#87b50b"/>
  <rect x="30" y="24" width="1" height="1" fill="#86b50d"/>
  <rect x="31" y="24" width="1" height="1" fill="#84b60d"/>
  <rect x="32" y="24" width="1" height="1" fill="#85b710"/>
  <rect x="33" y="24" width="1" height="1" fill="#87b610"/>
  <rect x="34" y="24" width="1" height="1" fill="#8cb712"/>
  <rect x="35" y="24" width="1" height="1" fill="#91b034"/>
  <rect x="8" y="25" width="1" height="1" fill="#a0b963"/>
  <rect x="9" y="25" width="1" height="1" fill="#9cbc4b"/>
  <rect x="10" y="25" width="1" height="1" fill="#9bbe4c"/>
  <rect x="11" y="25" width="2" height="1" fill="#9abd4b"/>
  <rect x="13" y="25" width="2" height="1" fill="#9abd49"/>
  <rect x="15" y="25" width="1" height="1" fill="#96bc44"/>
  <rect x="16" y="25" width="1" height="1" fill="#92b740"/>
  <rect x="17" y="25" width="1" height="1" fill="#8eb632"/>
  <rect x="18" y="25" width="1" height="1" fill="#8cb71b"/>
  <rect x="19" y="25" width="1" height="1" fill="#8bb90e"/>
  <rect x="20" y="25" width="1" height="1" fill="#8cba0b"/>
  <rect x="21" y="25" width="1" height="1" fill="#8dba0b"/>
  <rect x="22" y="25" width="1" height="1" fill="#8db90d"/>
  <rect x="23" y="25" width="1" height="1" fill="#8fb80d"/>
  <rect x="24" y="25" width="1" height="1" fill="#93b811"/>
  <rect x="25" y="25" width="1" height="1" fill="#93b80e"/>
  <rect x="26" y="25" width="1" height="1" fill="#94bc0f"/>
  <rect x="27" y="25" width="1" height="1" fill="#94bc1a"/>
  <rect x="28" y="25" width="1" height="1" fill="#96bb38"/>
  <rect x="29" y="25" width="1" height="1" fill="#95ba47"/>
  <rect x="30" y="25" width="2" height="1" fill="#95bf49"/>
  <rect x="32" y="25" width="1" height="1" fill="#97c04c"/>
  <rect x="33" y="25" width="1" height="1" fill="#97c04e"/>
  <rect x="34" y="25" width="1" height="1" fill="#9abe50"/>
  <rect x="35" y="25" width="1" height="1" fill="#9bb662"/>
  <rect x="18" y="26" width="1" height="1" fill="#8bb535"/>
  <rect x="19" y="26" width="1" height="1" fill="#88b80f"/>
  <rect x="20" y="26" width="2" height="1" fill="#88b909"/>
  <rect x="22" y="26" width="1" height="1" fill="#8bb70b"/>
  <rect x="23" y="26" width="1" height="1" fill="#8db60d"/>
  <rect x="24" y="26" width="2" height="1" fill="#92b613"/>
  <rect x="26" y="26" width="1" height="1" fill="#92b90c"/>
  <rect x="18" y="27" width="1" height="1" fill="#89b540"/>
  <rect x="19" y="27" width="1" height="1" fill="#84b70b"/>
  <rect x="20" y="27" width="1" height="1" fill="#85b80a"/>
  <rect x="21" y="27" width="1" height="1" fill="#87b70a"/>
  <rect x="22" y="27" width="1" height="1" fill="#88b708"/>
  <rect x="23" y="27" width="1" height="1" fill="#8bb50c"/>
  <rect x="24" y="27" width="1" height="1" fill="#90b313"/>
  <rect x="25" y="27" width="1" height="1" fill="#90b112"/>
  <rect x="26" y="27" width="1" height="1" fill="#94b912"/>
  <rect x="18" y="28" width="1" height="1" fill="#8aba3c"/>
  <rect x="19" y="28" width="1" height="1" fill="#81b705"/>
  <rect x="20" y="28" width="1" height="1" fill="#83b50c"/>
  <rect x="21" y="28" width="1" height="1" fill="#84b40c"/>
  <rect x="22" y="28" width="1" height="1" fill="#86b505"/>
  <rect x="23" y="28" width="1" height="1" fill="#89b305"/>
  <rect x="24" y="28" width="1" height="1" fill="#8fb30e"/>
  <rect x="25" y="28" width="1" height="1" fill="#8dae0c"/>
  <rect x="26" y="28" width="1" height="1" fill="#97ba1a"/>
  <rect x="18" y="29" width="1" height="1" fill="#8bbb3c"/>
  <rect x="19" y="29" width="1" height="1" fill="#7fb503"/>
  <rect x="20" y="29" width="1" height="1" fill="#82b40a"/>
  <rect x="21" y="29" width="1" height="1" fill="#83b30c"/>
  <rect x="22" y="29" width="1" height="1" fill="#85b308"/>
  <rect x="23" y="29" width="1" height="1" fill="#88b106"/>
  <rect x="24" y="29" width="1" height="1" fill="#8db209"/>
  <rect x="25" y="29" width="1" height="1" fill="#89ad06"/>
  <rect x="26" y="29" width="1" height="1" fill="#99bd1a"/>
  <rect x="18" y="30" width="1" height="1" fill="#8eba43"/>
  <rect x="19" y="30" width="1" height="1" fill="#7fb206"/>
  <rect x="20" y="30" width="1" height="1" fill="#80b307"/>
  <rect x="21" y="30" width="1" height="1" fill="#82b20b"/>
  <rect x="22" y="30" width="1" height="1" fill="#84af13"/>
  <rect x="23" y="30" width="1" height="1" fill="#85af11"/>
  <rect x="24" y="30" width="1" height="1" fill="#8cb309"/>
  <rect x="25" y="30" width="1" height="1" fill="#87af00"/>
  <rect x="26" y="30" width="1" height="1" fill="#98bf10"/>
  <rect x="18" y="31" width="1" height="1" fill="#91b847"/>
  <rect x="19" y="31" width="1" height="1" fill="#81b108"/>
  <rect x="20" y="31" width="1" height="1" fill="#82b303"/>
  <rect x="21" y="31" width="1" height="1" fill="#82b207"/>
  <rect x="22" y="31" width="1" height="1" fill="#84af15"/>
  <rect x="23" y="31" width="1" height="1" fill="#85ae15"/>
  <rect x="24" y="31" width="1" height="1" fill="#8ab409"/>
  <rect x="25" y="31" width="1" height="1" fill="#86b100"/>
  <rect x="26" y="31" width="1" height="1" fill="#97c20d"/>
  <rect x="18" y="32" width="1" height="1" fill="#93b845"/>
  <rect x="19" y="32" width="1" height="1" fill="#81af07"/>
  <rect x="20" y="32" width="1" height="1" fill="#7ead00"/>
  <rect x="21" y="32" width="1" height="1" fill="#7eac00"/>
  <rect x="22" y="32" width="1" height="1" fill="#7eab07"/>
  <rect x="23" y="32" width="1" height="1" fill="#7eaa09"/>
  <rect x="24" y="32" width="1" height="1" fill="#82ad04"/>
  <rect x="25" y="32" width="1" height="1" fill="#86b304"/>
  <rect x="26" y="32" width="1" height="1" fill="#97c313"/>
  <rect x="18" y="33" width="1" height="1" fill="#96b643"/>
  <rect x="19" y="33" width="1" height="1" fill="#83ae05"/>
  <rect x="20" y="33" width="1" height="1" fill="#85b201"/>
  <rect x="21" y="33" width="1" height="1" fill="#85b103"/>
  <rect x="22" y="33" width="2" height="1" fill="#85b00b"/>
  <rect x="24" y="33" width="1" height="1" fill="#75a000"/>
  <rect x="25" y="33" width="1" height="1" fill="#7eaa00"/>
  <rect x="26" y="33" width="1" height="1" fill="#96c213"/>
  <rect x="18" y="34" width="1" height="1" fill="#95b43a"/>
  <rect x="19" y="34" width="1" height="1" fill="#86b002"/>
  <rect x="20" y="34" width="1" height="1" fill="#86af04"/>
  <rect x="21" y="34" width="1" height="1" fill="#86ae08"/>
  <rect x="22" y="34" width="2" height="1" fill="#86ae0c"/>
  <rect x="24" y="34" width="1" height="1" fill="#82ab03"/>
  <rect x="25" y="34" width="1" height="1" fill="#87b103"/>
  <rect x="26" y="34" width="1" height="1" fill="#99c414"/>
  <rect x="18" y="35" width="1" height="1" fill="#94ad50"/>
  <rect x="19" y="35" width="1" height="1" fill="#8aa825"/>
  <rect x="20" y="35" width="1" height="1" fill="#a0bf3c"/>
  <rect x="21" y="35" width="1" height="1" fill="#a0be40"/>
  <rect x="22" y="35" width="2" height="1" fill="#9fbd46"/>
  <rect x="24" y="35" width="1" height="1" fill="#a0c041"/>
  <rect x="25" y="35" width="1" height="1" fill="#9bbc38"/>
  <rect x="26" y="35" width="1" height="1" fill="#a1c23e"/>
</svg>