<svg xmlns="http://www.w3.org/2000/svg" width="32" height="16" viewBox="0 0 32 16" shape-rendering="crispEdges">
  <rect x="5" y="1" width="1" height="1" fill="#5a9b26"/>
  <rect x="6" y="1" width="1" height="1" fill="#619e2c"/>
  <rect x="7" y="1" width="1" height="1" fill="#579523"/>
  <rect x="8" y="1" width="1" height="1" fill="#62a02b"/>
  <rect x="9" y="1" width="1" height="1" fill="#5c9b21"/>
  <rect x="10" y="1" width="1" height="1" fill="#5c9d21"/>
  <rect x="11" y="1" width="1" height="1" fill="#659636"/>
  <rect x="21" y="1" width="1" height="1" fill="#aeabae"/>
  <rect x="22" y="1" width="1" height="1" fill="#afacb0"/>
  <rect x="23" y="1" width="1" height="1" fill="#b0adb1"/>
  <rect x="24" y="1" width="1" height="1" fill="#ababad"/>
  <rect x="25" y="1" width="1" height="1" fill="#a8aaac"/>
  <rect x="26" y="1" width="1" height="1" fill="#acaeb0"/>
  <rect x="27" y="1" width="1" height="1" fill="#a8aaac"/>
  <rect x="5" y="2" width="1" height="2" fill="#6bab36"/>
  <rect x="6" y="2" width="1" height="1" fill="#c1ff8d"/>
  <rect x="7" y="2" width="1" height="1" fill="#ccff97"/>
  <rect x="8" y="2" width="1" height="1" fill="#c8ff92"/>
  <rect x="9" y="2" width="1" height="1" fill="#b6f57b"/>
  <rect x="10" y="2" width="1" height="1" fill="#bcfe81"/>
  <rect x="11" y="2" width="1" height="1" fill="#619332"/>
  <rect x="21" y="2" width="1" height="1" fill="#bab7ba"/>
  <rect x="22" y="2" width="1" height="1" fill="#ffffff"/>
  <rect x="23" y="2" width="1" height="1" fill="#fffdff"/>
  <rect x="24" y="2" width="1" height="1" fill="#fcfbfe"/>
  <rect x="25" y="2" width="1" height="1" fill="#fbfdff"/>
  <rect x="26" y="2" width="1" height="1" fill="#ffffff"/>
  <rect x="27" y="2" width="1" height="2" fill="#aaacad"/>
  <rect x="6" y="3" width="1" height="1" fill="#c4ff8f"/>
  <rect x="7" y="3" width="1" height="1" fill="#a3e16f"/>
  <rect x="8" y="3" width="1" height="1" fill="#a2e06b"/>
  <rect x="9" y="3" width="1" height="4" fill="#a3e269"/>
  <rect x="10" y="3" width="1" height="1" fill="#b1f276"/>
  <rect x="11" y="3" width="1" height="1" fill="#70a242"/>
  <rect x="21" y="3" width="1" height="1" fill="#bcb9bc"/>
  <rect x="22" y="3" width="1" height="1" fill="#fdfafe"/>
  <rect x="23" y="3" width="2" height="4" fill="#ffffff"/>
  <rect x="25" y="3" width="1" height="1" fill="#fcfeff"/>
  <rect x="26" y="3" width="1" height="1" fill="#fbfdff"/>
  <rect x="5" y="4" width="1" height="3" fill="#66a731"/>
  <rect x="6" y="4" width="1" height="2" fill="#bffd8b"/>
  <rect x="7" y="4" width="1" height="3" fill="#a9e573"/>
  <rect x="8" y="4" width="1" height="3" fill="#a5e46f"/>
  <rect x="10" y="4" width="1" height="3" fill="#acee71"/>
  <rect x="11" y="4" width="1" height="3" fill="#689a39"/>
  <rect x="21" y="4" width="1" height="4" fill="#bab7ba"/>
  <rect x="22" y="4" width="1" height="4" fill="#fffdff"/>
  <rect x="25" y="4" width="1" height="3" fill="#fdffff"/>
  <rect x="26" y="4" width="1" height="3" fill="#fcfeff"/>
  <rect x="27" y="4" width="1" height="3" fill="#abadae"/>
  <rect x="6" y="6" width="1" height="1" fill="#c1fc8b"/>
  <rect x="5" y="7" width="1" height="1" fill="#66a633"/>
  <rect x="6" y="7" width="1" height="1" fill="#c1fc89"/>
  <rect x="7" y="7" width="1" height="1" fill="#abe56f"/>
  <rect x="8" y="7" width="1" height="1" fill="#a6e56c"/>
  <rect x="9" y="7" width="1" height="1" fill="#a3e267"/>
  <rect x="10" y="7" width="1" height="1" fill="#acee6f"/>
  <rect x="11" y="7" width="1" height="1" fill="#689b33"/>
  <rect x="23" y="7" width="3" height="1" fill="#ffffff"/>
  <rect x="26" y="7" width="1" height="1" fill="#fefdff"/>
  <rect x="27" y="7" width="1" height="1" fill="#acacae"/>
  <rect x="2" y="8" width="1" height="1" fill="#749548"/>
  <rect x="3" y="8" width="1" height="1" fill="#63932e"/>
  <rect x="4" y="8" width="1" height="1" fill="#65a239"/>
  <rect x="5" y="8" width="1" height="1" fill="#5e9e2d"/>
  <rect x="6" y="8" width="1" height="1" fill="#b4ef72"/>
  <rect x="7" y="8" width="1" height="1" fill="#a4e05c"/>
  <rect x="8" y="8" width="1" height="1" fill="#a6e764"/>
  <rect x="9" y="8" width="1" height="1" fill="#aaeb67"/>
  <rect x="10" y="8" width="1" height="1" fill="#b6f570"/>
  <rect x="11" y="8" width="1" height="1" fill="#669b27"/>
  <rect x="12" y="8" width="1" height="1" fill="#779b49f6"/>
  <rect x="13" y="8" width="1" height="1" fill="#789d51"/>
  <rect x="14" y="8" width="1" height="1" fill="#5f9536"/>
  <rect x="18" y="8" width="1" height="1" fill="#acacac"/>
  <rect x="19" y="8" width="1" height="1" fill="#ababab"/>
  <rect x="20" y="8" width="1" height="1" fill="#b2b2b2"/>
  <rect x="21" y="8" width="1" height="1" fill="#adadad"/>
  <rect x="22" y="8" width="5" height="1" fill="#ffffff"/>
  <rect x="27" y="8" width="1" height="1" fill="#b1afb2"/>
  <rect x="28" y="8" width="1" height="1" fill="#afacb0f6"/>
  <rect x="29" y="8" width="2" height="1" fill="#aeabae"/>
  <rect x="3" y="9" width="1" height="1" fill="#689b33"/>
  <rect x="4" y="9" width="1" height="1" fill="#b6ef8a"/>
  <rect x="5" y="9" width="1" height="1" fill="#b8f388"/>
  <rect x="6" y="9" width="1" height="1" fill="#b8f079"/>
  <rect x="7" y="9" width="1" height="1" fill="#ace665"/>
  <rect x="8" y="9" width="1" height="1" fill="#a8e762"/>
  <rect x="9" y="9" width="1" height="1" fill="#9edc57"/>
  <rect x="10" y="9" width="1" height="1" fill="#c4ff7f"/>
  <rect x="11" y="9" width="1" height="1" fill="#baf379"/>
  <rect x="12" y="9" width="1" height="1" fill="#bef286"/>
  <rect x="13" y="9" width="1" height="1" fill="#6ea33c"/>
  <rect x="19" y="9" width="1" height="1" fill="#abaeaa"/>
  <rect x="20" y="9" width="1" height="1" fill="#fbfefb"/>
  <rect x="21" y="9" width="1" height="1" fill="#fffffe"/>
  <rect x="22" y="9" width="1" height="1" fill="#fcfffc"/>
  <rect x="23" y="9" width="1" height="1" fill="#fafafa"/>
  <rect x="24" y="9" width="1" height="1" fill="#ffffff"/>
  <rect x="25" y="9" width="1" height="1" fill="#fffeff"/>
  <rect x="26" y="9" width="1" height="1" fill="#ffffff"/>
  <rect x="27" y="9" width="1" height="1" fill="#fffdff"/>
  <rect x="28" y="9" width="1" height="1" fill="#ffffff"/>
  <rect x="29" y="9" width="1" height="1" fill="#bbb8bb"/>
  <rect x="4" y="10" width="1" height="1" fill="#669440"/>
  <rect x="5" y="10" width="1" height="1" fill="#c1f292"/>
  <rect x="6" y="10" width="1" height="1" fill="#b7ea85"/>
  <rect x="7" y="10" width="1" height="1" fill="#a4d869"/>
  <rect x="8" y="10" width="1" height="1" fill="#a3de5f"/>
  <rect x="9" y="10" width="1" height="1" fill="#ade967"/>
  <rect x="10" y="10" width="1" height="1" fill="#b7ed76"/>
  <rect x="11" y="10" width="1" height="1" fill="#c0f883"/>
  <rect x="12" y="10" width="1" height="1" fill="#5a9d1d"/>
  <rect x="20" y="10" width="1" height="1" fill="#abaeaa"/>
  <rect x="21" y="10" width="1" height="1" fill="#fdfffd"/>
  <rect x="22" y="10" width="3" height="1" fill="#ffffff"/>
  <rect x="25" y="10" width="1" height="1" fill="#fdfafe"/>
  <rect x="26" y="10" width="2" height="1" fill="#ffffff"/>
  <rect x="28" y="10" width="1" height="1" fill="#b4b1b4"/>
  <rect x="5" y="11" width="1" height="1" fill="#689043"/>
  <rect x="6" y="11" width="1" height="1" fill="#bce890"/>
  <rect x="7" y="11" width="1" height="1" fill="#acdc78"/>
  <rect x="8" y="11" width="1" height="1" fill="#ade26e"/>
  <rect x="9" y="11" width="1" height="1" fill="#a5de64"/>
  <rect x="10" y="11" width="1" height="1" fill="#bdf47f"/>
  <rect x="11" y="11" width="1" height="1" fill="#6da734"/>
  <rect x="21" y="11" width="1" height="1" fill="#aeb1ae"/>
  <rect x="22" y="11" width="1" height="1" fill="#fcfffc"/>
  <rect x="23" y="11" width="1" height="1" fill="#fcfbfc"/>
  <rect x="24" y="11" width="1" height="3" fill="#fffdff"/>
  <rect x="25" y="11" width="1" height="1" fill="#fcf9fc"/>
  <rect x="26" y="11" width="1" height="1" fill="#fffeff"/>
  <rect x="27" y="11" width="1" height="1" fill="#b7b4b8"/>
  <rect x="6" y="12" width="1" height="1" fill="#648c3a"/>
  <rect x="7" y="12" width="1" height="1" fill="#bdeb85"/>
  <rect x="8" y="12" width="1" height="1" fill="#abda73"/>
  <rect x="9" y="12" width="1" height="1" fill="#c9fd8e"/>
  <rect x="10" y="12" width="1" height="1" fill="#5a9d1b"/>
  <rect x="22" y="12" width="1" height="1" fill="#afb2af"/>
  <rect x="23" y="12" width="1" height="1" fill="#fdfdfd"/>
  <rect x="25" y="12" width="1" height="1" fill="#fffeff"/>
  <rect x="26" y="12" width="1" height="1" fill="#b6b3b6"/>
  <rect x="7" y="13" width="1" height="1" fill="#66942a"/>
  <rect x="8" y="13" width="1" height="1" fill="#cafb94"/>
  <rect x="9" y="13" width="1" height="1" fill="#6ca239"/>
  <rect x="23" y="13" width="1" height="1" fill="#adadad"/>
  <rect x="25" y="13" width="1" height="1" fill="#b3b0b3"/>
  <rect x="8" y="14" width="1" height="1" fill="#5a9c21"/>
  <rect x="24" y="14" width="1" height="1" fill="#b6b3b6"/>
</svg>