<svg xmlns="http://www.w3.org/2000/svg" width="129" height="61" viewBox="0 0 129 61" shape-rendering="crispEdges">
  <rect x="1" y="0" width="1" height="1" fill="#95959525"/>
  <rect x="2" y="0" width="1" height="1" fill="#939393ad"/>
  <rect x="3" y="0" width="1" height="1" fill="#969696f1"/>
  <rect x="4" y="0" width="121" height="1" fill="#9a9a9a"/>
  <rect x="125" y="0" width="1" height="1" fill="#979797f1"/>
  <rect x="126" y="0" width="1" height="1" fill="#969696ad"/>
  <rect x="127" y="0" width="1" height="1" fill="#96969625"/>
  <rect x="0" y="1" width="1" height="1" fill="#97979727"/>
  <rect x="1" y="1" width="1" height="1" fill="#a4a4a4f1"/>
  <rect x="2" y="1" width="1" height="1" fill="#b9b9b9"/>
  <rect x="3" y="1" width="1" height="1" fill="#e2e2e2"/>
  <rect x="4" y="1" width="120" height="1" fill="#e5e5e5"/>
  <rect x="124" y="1" width="1" height="1" fill="#e4e4e4"/>
  <rect x="125" y="1" width="1" height="1" fill="#e1e1e1"/>
  <rect x="126" y="1" width="1" height="1" fill="#c2c2c2"/>
  <rect x="127" y="1" width="1" height="1" fill="#9c9c9cf1"/>
  <rect x="128" y="1" width="1" height="1" fill="#9b9b9b27"/>
  <rect x="0" y="2" width="1" height="1" fill="#9b9b9bba"/>
  <rect x="1" y="2" width="1" height="1" fill="#bebebe"/>
  <rect x="2" y="2" width="1" height="1" fill="#ebebeb"/>
  <rect x="3" y="2" width="1" height="1" fill="#f1f1f1"/>
  <rect x="4" y="2" width="120" height="1" fill="#f5f5f5"/>
  <rect x="124" y="2" width="1" height="1" fill="#f0f0f0"/>
  <rect x="125" y="2" width="1" height="1" fill="#f5f5f5"/>
  <rect x="126" y="2" width="1" height="1" fill="#e4e4e4"/>
  <rect x="127" y="2" width="1" height="1" fill="#c6c6c6"/>
  <rect x="128" y="2" width="1" height="1" fill="#9b9b9bba"/>
  <rect x="0" y="3" width="1" height="1" fill="#a2a2a2fa"/>
  <rect x="1" y="3" width="1" height="1" fill="#e9e9e9"/>
  <rect x="2" y="3" width="1" height="1" fill="#f5f5f5"/>
  <rect x="3" y="3" width="1" height="1" fill="#f8f8f8"/>
  <rect x="4" y="3" width="119" height="1" fill="#fcfbfc"/>
  <rect x="123" y="3" width="1" height="1" fill="#fdfdfd"/>
  <rect x="124" y="3" width="1" height="1" fill="#fcfbfc"/>
  <rect x="125" y="3" width="1" height="1" fill="#f8f8f8"/>
  <rect x="126" y="3" width="1" height="1" fill="#f0f0f0"/>
  <rect x="127" y="3" width="1" height="1" fill="#ebebeb"/>
  <rect x="128" y="3" width="1" height="1" fill="#9a9a9afb"/>
  <rect x="0" y="4" width="1" height="12" fill="#999999"/>
  <rect x="1" y="4" width="1" height="12" fill="#f5f5f5"/>
  <rect x="2" y="4" width="1" height="12" fill="#f9f9f9"/>
  <rect x="3" y="4" width="1" height="12" fill="#ffffff"/>
  <rect x="4" y="4" width="4" height="2" fill="#fafafa"/>
  <rect x="8" y="4" width="117" height="1" fill="#fcfbfc"/>
  <rect x="125" y="4" width="1" height="1" fill="#fafafa"/>
  <rect x="126" y="4" width="1" height="1" fill="#f5f5f5"/>
  <rect x="127" y="4" width="1" height="1" fill="#eeeeee"/>
  <rect x="128" y="4" width="1" height="1" fill="#9a9a9a"/>
  <rect x="8" y="5" width="118" height="1" fill="#fcfbfc"/>
  <rect x="126" y="5" width="1" height="1" fill="#f7f7f7"/>
  <rect x="127" y="5" width="1" height="1" fill="#f1f1f1"/>
  <rect x="128" y="5" width="1" height="51" fill="#999999"/>
  <rect x="4" y="6" width="121" height="1" fill="#fcfbfc"/>
  <rect x="125" y="6" width="1" height="1" fill="#fdfdfd"/>
  <rect x="126" y="6" width="1" height="1" fill="#fafafa"/>
  <rect x="127" y="6" width="1" height="1" fill="#f5f5f5"/>
  <rect x="4" y="7" width="123" height="1" fill="#fcfbfc"/>
  <rect x="127" y="7" width="1" height="49" fill="#f7f7f7"/>
  <rect x="4" y="8" width="4" height="2" fill="#fcfbfc"/>
  <rect x="8" y="8" width="8" height="2" fill="#fdfdfd"/>
  <rect x="16" y="8" width="111" height="8" fill="#fcfbfc"/>
  <rect x="4" y="10" width="12" height="6" fill="#fdfdfd"/>
  <rect x="0" y="16" width="1" height="40" fill="#979797"/>
  <rect x="1" y="16" width="1" height="40" fill="#f3f3f3"/>
  <rect x="2" y="16" width="1" height="40" fill="#f8f8f8"/>
  <rect x="3" y="16" width="1" height="40" fill="#fefefe"/>
  <rect x="4" y="16" width="123" height="40" fill="#fcfbfc"/>
  <rect x="0" y="56" width="1" height="1" fill="#a3a3a3"/>
  <rect x="1" y="56" width="1" height="1" fill="#f0f0f0"/>
  <rect x="2" y="56" width="1" height="1" fill="#f7f7f7"/>
  <rect x="3" y="56" width="1" height="1" fill="#ffffff"/>
  <rect x="4" y="56" width="12" height="2" fill="#fcfbfc"/>
  <rect x="16" y="56" width="107" height="1" fill="#fafafa"/>
  <rect x="123" y="56" width="1" height="1" fill="#fdfdfd"/>
  <rect x="124" y="56" width="1" height="1" fill="#ffffff"/>
  <rect x="125" y="56" width="1" height="1" fill="#f9f9f9"/>
  <rect x="126" y="56" width="1" height="1" fill="#f6f6f6"/>
  <rect x="127" y="56" width="1" height="1" fill="#f5f5f5"/>
  <rect x="128" y="56" width="1" height="1" fill="#9e9e9e"/>
  <rect x="0" y="57" width="1" height="1" fill="#b9b9b9fa"/>
  <rect x="1" y="57" width="1" height="1" fill="#c9c9c9"/>
  <rect x="2" y="57" width="1" height="1" fill="#ffffff"/>
  <rect x="3" y="57" width="1" height="1" fill="#f6f6f6"/>
  <rect x="16" y="57" width="108" height="1" fill="#fafafa"/>
  <rect x="124" y="57" width="1" height="1" fill="#f6f6f6"/>
  <rect x="125" y="57" width="1" height="1" fill="#ffffff"/>
  <rect x="126" y="57" width="1" height="1" fill="#f1f1f1"/>
  <rect x="127" y="57" width="1" height="1" fill="#c9c9c9"/>
  <rect x="128" y="57" width="1" height="1" fill="#b4b4b4fb"/>
  <rect x="0" y="58" width="1" height="1" fill="#e9e9e9ba"/>
  <rect x="1" y="58" width="1" height="1" fill="#a8a8a8"/>
  <rect x="2" y="58" width="1" height="1" fill="#d5d5d5"/>
  <rect x="3" y="58" width="1" height="1" fill="#f9f9f9"/>
  <rect x="4" y="58" width="12" height="1" fill="#ffffff"/>
  <rect x="16" y="58" width="108" height="1" fill="#fefefe"/>
  <rect x="124" y="58" width="1" height="1" fill="#f7f7f7"/>
  <rect x="125" y="58" width="1" height="1" fill="#eeeeee"/>
  <rect x="126" y="58" width="1" height="1" fill="#cfcfcf"/>
  <rect x="127" y="58" width="1" height="1" fill="#a8a8a8"/>
  <rect x="128" y="58" width="1" height="1" fill="#eaeaeaba"/>
  <rect x="0" y="59" width="1" height="1" fill="#f8f8f828"/>
  <rect x="1" y="59" width="1" height="1" fill="#ecececf1"/>
  <rect x="2" y="59" width="1" height="1" fill="#b8b8b8"/>
  <rect x="3" y="59" width="1" height="1" fill="#9c9c9c"/>
  <rect x="4" y="59" width="12" height="1" fill="#999999"/>
  <rect x="16" y="59" width="108" height="1" fill="#979797"/>
  <rect x="124" y="59" width="1" height="1" fill="#a5a5a5"/>
  <rect x="125" y="59" width="1" height="1" fill="#9e9e9e"/>
  <rect x="126" y="59" width="1" height="1" fill="#bebebe"/>
  <rect x="127" y="59" width="1" height="1" fill="#ecececf1"/>
  <rect x="128" y="59" width="1" height="1" fill="#ffffff28"/>
  <rect x="1" y="60" width="1" height="1" fill="#ffffff27"/>
  <rect x="2" y="60" width="1" height="1" fill="#ffffffad"/>
  <rect x="3" y="60" width="1" height="1" fill="#fafafaf2"/>
  <rect x="4" y="60" width="12" height="1" fill="#fefefe"/>
  <rect x="16" y="60" width="109" height="1" fill="#ffffff"/>
  <rect x="125" y="60" width="1" height="1" fill="#fffffff2"/>
  <rect x="126" y="60" width="1" height="1" fill="#ffffffad"/>
  <rect x="127" y="60" width="1" height="1" fill="#ffffff27"/>
</svg>