<svg xmlns="http://www.w3.org/2000/svg" width="32" height="16" viewBox="0 0 32 16" shape-rendering="crispEdges">
  <rect x="3" y="1" width="1" height="1" fill="#ba4426e6"/>
  <rect x="12" y="1" width="1" height="1" fill="#b94528e6"/>
  <rect x="19" y="1" width="1" height="1" fill="#b8bab7e6"/>
  <rect x="28" y="1" width="1" height="1" fill="#b2b5b1e6"/>
  <rect x="2" y="2" width="1" height="1" fill="#cc4417ec"/>
  <rect x="3" y="2" width="1" height="1" fill="#fd7845"/>
  <rect x="4" y="2" width="1" height="1" fill="#af4310e6"/>
  <rect x="11" y="2" width="1" height="1" fill="#b14216e6"/>
  <rect x="12" y="2" width="1" height="1" fill="#ff804f"/>
  <rect x="13" y="2" width="1" height="1" fill="#ca4716ec"/>
  <rect x="18" y="2" width="1" height="1" fill="#bcbfbcec"/>
  <rect x="19" y="2" width="1" height="1" fill="#fdfffd"/>
  <rect x="20" y="2" width="1" height="1" fill="#bbbebbe6"/>
  <rect x="27" y="2" width="1" height="1" fill="#c0c2bfe6"/>
  <rect x="28" y="2" width="1" height="1" fill="#fdfffd"/>
  <rect x="29" y="2" width="1" height="1" fill="#b8bab7ec"/>
  <rect x="1" y="3" width="1" height="1" fill="#b83c1bec"/>
  <rect x="2" y="3" width="1" height="1" fill="#df5222"/>
  <rect x="3" y="3" width="1" height="1" fill="#fd7135"/>
  <rect x="4" y="3" width="1" height="1" fill="#ff8243"/>
  <rect x="5" y="3" width="1" height="1" fill="#ab450ce6"/>
  <rect x="10" y="3" width="1" height="1" fill="#ae4416ec"/>
  <rect x="11" y="3" width="1" height="1" fill="#ff854b"/>
  <rect x="12" y="3" width="1" height="1" fill="#f96f35"/>
  <rect x="13" y="3" width="1" height="1" fill="#dd5826"/>
  <rect x="14" y="3" width="1" height="1" fill="#b8441bec"/>
  <rect x="17" y="3" width="1" height="1" fill="#bcbfbcec"/>
  <rect x="18" y="3" width="1" height="1" fill="#e4e7e3"/>
  <rect x="19" y="3" width="2" height="1" fill="#fafdf9"/>
  <rect x="21" y="3" width="1" height="1" fill="#bbbebbe6"/>
  <rect x="26" y="3" width="1" height="1" fill="#b9bcb8ec"/>
  <rect x="27" y="3" width="1" height="1" fill="#f8faf7"/>
  <rect x="28" y="3" width="1" height="1" fill="#fafdf9"/>
  <rect x="29" y="3" width="1" height="1" fill="#eaece9"/>
  <rect x="30" y="3" width="1" height="1" fill="#c2c5c2ec"/>
  <rect x="2" y="4" width="1" height="1" fill="#bc3e1be6"/>
  <rect x="3" y="4" width="1" height="1" fill="#e85724"/>
  <rect x="4" y="4" width="1" height="1" fill="#f87739"/>
  <rect x="5" y="4" width="1" height="1" fill="#fe8b4c"/>
  <rect x="6" y="4" width="1" height="1" fill="#af460fe6"/>
  <rect x="9" y="4" width="1" height="1" fill="#b4421be6"/>
  <rect x="10" y="4" width="1" height="1" fill="#ff8651"/>
  <rect x="11" y="4" width="1" height="1" fill="#f9773f"/>
  <rect x="12" y="4" width="1" height="1" fill="#eb5c2a"/>
  <rect x="13" y="4" width="1" height="1" fill="#b8411ce6"/>
  <rect x="18" y="4" width="1" height="1" fill="#b2b3b0e6"/>
  <rect x="19" y="4" width="1" height="1" fill="#e2e2e0"/>
  <rect x="20" y="4" width="1" height="1" fill="#ffffff"/>
  <rect x="21" y="4" width="1" height="1" fill="#fefefc"/>
  <rect x="22" y="4" width="1" height="1" fill="#b7b7b5e6"/>
  <rect x="25" y="4" width="1" height="1" fill="#b2b4b3e6"/>
  <rect x="26" y="4" width="1" height="1" fill="#f4f6f6"/>
  <rect x="27" y="4" width="1" height="1" fill="#f8faf9"/>
  <rect x="28" y="4" width="1" height="1" fill="#e8ebea"/>
  <rect x="29" y="4" width="1" height="1" fill="#bbbdbde6"/>
  <rect x="3" y="5" width="1" height="1" fill="#b74117e6"/>
  <rect x="4" y="5" width="1" height="1" fill="#d85e23"/>
  <rect x="5" y="5" width="1" height="1" fill="#f87b38"/>
  <rect x="6" y="5" width="1" height="1" fill="#ff8141"/>
  <rect x="7" y="5" width="1" height="1" fill="#c33800e6"/>
  <rect x="8" y="5" width="1" height="1" fill="#c93908e6"/>
  <rect x="9" y="5" width="1" height="1" fill="#ff7e4e"/>
  <rect x="10" y="5" width="1" height="1" fill="#f9753d"/>
  <rect x="11" y="5" width="1" height="1" fill="#d75c26"/>
  <rect x="12" y="5" width="1" height="1" fill="#b7421ce6"/>
  <rect x="19" y="5" width="1" height="1" fill="#b2b3b0e6"/>
  <rect x="20" y="5" width="1" height="1" fill="#e8e8e6"/>
  <rect x="21" y="5" width="1" height="1" fill="#ffffff"/>
  <rect x="22" y="5" width="1" height="1" fill="#fefefc"/>
  <rect x="23" y="5" width="1" height="1" fill="#bbbcb9e6"/>
  <rect x="24" y="5" width="1" height="1" fill="#babcbbe6"/>
  <rect x="25" y="5" width="1" height="1" fill="#f9fbfa"/>
  <rect x="26" y="5" width="1" height="1" fill="#ffffff"/>
  <rect x="27" y="5" width="1" height="1" fill="#e6e9e8"/>
  <rect x="28" y="5" width="1" height="1" fill="#b8bab9e6"/>
  <rect x="4" y="6" width="1" height="1" fill="#b03e05e6"/>
  <rect x="5" y="6" width="1" height="1" fill="#ff7632"/>
  <rect x="6" y="6" width="1" height="1" fill="#fe7637"/>
  <rect x="7" y="6" width="1" height="1" fill="#ff854d"/>
  <rect x="8" y="6" width="1" height="1" fill="#ff7a4b"/>
  <rect x="9" y="6" width="1" height="1" fill="#ff6e3f"/>
  <rect x="10" y="6" width="1" height="1" fill="#ff763e"/>
  <rect x="11" y="6" width="1" height="1" fill="#b84513ec"/>
  <rect x="20" y="6" width="1" height="1" fill="#c0c1bee6"/>
  <rect x="21" y="6" width="1" height="1" fill="#fcfcf9"/>
  <rect x="22" y="6" width="1" height="1" fill="#f5f5f2"/>
  <rect x="23" y="6" width="1" height="1" fill="#fdfdfb"/>
  <rect x="24" y="6" width="1" height="1" fill="#fbfdfd"/>
  <rect x="25" y="6" width="1" height="1" fill="#f3f5f5"/>
  <rect x="26" y="6" width="1" height="1" fill="#fdffff"/>
  <rect x="27" y="6" width="1" height="1" fill="#c2c4c4ec"/>
  <rect x="5" y="7" width="1" height="1" fill="#d54504fa"/>
  <rect x="6" y="7" width="1" height="1" fill="#f96f33"/>
  <rect x="7" y="7" width="1" height="1" fill="#fa713b"/>
  <rect x="8" y="7" width="1" height="1" fill="#fe7040"/>
  <rect x="9" y="7" width="1" height="1" fill="#ff703f"/>
  <rect x="10" y="7" width="1" height="1" fill="#da470bfa"/>
  <rect x="21" y="7" width="1" height="1" fill="#d6d7d4fa"/>
  <rect x="22" y="7" width="1" height="1" fill="#f9faf7"/>
  <rect x="23" y="7" width="1" height="1" fill="#f6f6f4"/>
  <rect x="24" y="7" width="1" height="1" fill="#f8faf9"/>
  <rect x="25" y="7" width="1" height="2" fill="#ffffff"/>
  <rect x="26" y="7" width="1" height="1" fill="#dcdeddfa"/>
  <rect x="5" y="8" width="1" height="1" fill="#d34206fa"/>
  <rect x="6" y="8" width="1" height="1" fill="#ff7641"/>
  <rect x="7" y="8" width="1" height="1" fill="#ff7645"/>
  <rect x="8" y="8" width="1" height="1" fill="#fd713e"/>
  <rect x="9" y="8" width="1" height="1" fill="#fa6a34"/>
  <rect x="10" y="8" width="1" height="1" fill="#dd4a0cfa"/>
  <rect x="21" y="8" width="1" height="1" fill="#dbd9dafa"/>
  <rect x="22" y="8" width="1" height="1" fill="#fdfdfd"/>
  <rect x="23" y="8" width="2" height="1" fill="#fefefe"/>
  <rect x="26" y="8" width="1" height="1" fill="#d6d8d7fa"/>
  <rect x="4" y="9" width="1" height="1" fill="#ba4717e6"/>
  <rect x="5" y="9" width="1" height="1" fill="#fc7135"/>
  <rect x="6" y="9" width="1" height="1" fill="#fa713b"/>
  <rect x="7" y="9" width="1" height="1" fill="#ff8451"/>
  <rect x="8" y="9" width="1" height="1" fill="#ff804b"/>
  <rect x="9" y="9" width="1" height="1" fill="#f96a31"/>
  <rect x="10" y="9" width="1" height="1" fill="#fe6f30"/>
  <rect x="11" y="9" width="1" height="1" fill="#b6430fe6"/>
  <rect x="20" y="9" width="1" height="1" fill="#b6b4b4e6"/>
  <rect x="21" y="9" width="1" height="1" fill="#f3f0f1"/>
  <rect x="22" y="9" width="2" height="1" fill="#ffffff"/>
  <rect x="24" y="9" width="2" height="1" fill="#fafafa"/>
  <rect x="26" y="9" width="1" height="1" fill="#ffffff"/>
  <rect x="27" y="9" width="1" height="1" fill="#afb2b1e6"/>
  <rect x="3" y="10" width="1" height="1" fill="#b84020ec"/>
  <rect x="4" y="10" width="1" height="1" fill="#d65a26"/>
  <rect x="5" y="10" width="1" height="1" fill="#f67739"/>
  <rect x="6" y="10" width="1" height="1" fill="#ff844b"/>
  <rect x="7" y="10" width="1" height="1" fill="#c73c05e6"/>
  <rect x="8" y="10" width="1" height="1" fill="#c73800e6"/>
  <rect x="9" y="10" width="1" height="1" fill="#ff8247"/>
  <rect x="10" y="10" width="1" height="1" fill="#f26f30"/>
  <rect x="11" y="10" width="1" height="1" fill="#d45a21"/>
  <rect x="12" y="10" width="1" height="1" fill="#b5401ae6"/>
  <rect x="19" y="10" width="1" height="1" fill="#bab8b6ec"/>
  <rect x="20" y="10" width="1" height="1" fill="#eae8e9"/>
  <rect x="21" y="10" width="1" height="2" fill="#f7f5f6"/>
  <rect x="22" y="10" width="1" height="1" fill="#ffffff"/>
  <rect x="23" y="10" width="1" height="1" fill="#b4b4b4e6"/>
  <rect x="24" y="10" width="1" height="1" fill="#bbbbbbe6"/>
  <rect x="25" y="10" width="1" height="1" fill="#f9f9f9"/>
  <rect x="26" y="10" width="1" height="1" fill="#fbfdfd"/>
  <rect x="27" y="10" width="1" height="1" fill="#ebedec"/>
  <rect x="28" y="10" width="1" height="1" fill="#b3b5b6e6"/>
  <rect x="2" y="11" width="1" height="1" fill="#bd3d24e6"/>
  <rect x="3" y="11" width="1" height="1" fill="#ed5c32"/>
  <rect x="4" y="11" width="1" height="1" fill="#f8753f"/>
  <rect x="5" y="11" width="1" height="1" fill="#fc8851"/>
  <rect x="6" y="11" width="1" height="1" fill="#b04618e6"/>
  <rect x="9" y="11" width="1" height="1" fill="#b64615ec"/>
  <rect x="10" y="11" width="1" height="1" fill="#fe864c"/>
  <rect x="11" y="11" width="1" height="1" fill="#fa7840"/>
  <rect x="12" y="11" width="1" height="1" fill="#e95b2b"/>
  <rect x="13" y="11" width="1" height="1" fill="#b63e1ee6"/>
  <rect x="18" y="11" width="1" height="1" fill="#b4b2b0e6"/>
  <rect x="19" y="11" width="1" height="1" fill="#e8e6e5"/>
  <rect x="20" y="11" width="1" height="1" fill="#fdfbfc"/>
  <rect x="22" y="11" width="1" height="1" fill="#b7b5b6e6"/>
  <rect x="25" y="11" width="1" height="1" fill="#bababaec"/>
  <rect x="26" y="11" width="1" height="1" fill="#ffffff"/>
  <rect x="27" y="11" width="1" height="1" fill="#f8fafb"/>
  <rect x="28" y="11" width="1" height="1" fill="#eceef0"/>
  <rect x="29" y="11" width="1" height="1" fill="#b3b5b6e6"/>
  <rect x="1" y="12" width="1" height="1" fill="#b93b28e6"/>
  <rect x="2" y="12" width="1" height="1" fill="#e0512f"/>
  <rect x="3" y="12" width="1" height="1" fill="#fd6e41"/>
  <rect x="4" y="12" width="1" height="1" fill="#ff8351"/>
  <rect x="5" y="12" width="1" height="1" fill="#ae451be6"/>
  <rect x="10" y="12" width="1" height="1" fill="#ae4416e6"/>
  <rect x="11" y="12" width="1" height="1" fill="#ff844f"/>
  <rect x="12" y="12" width="1" height="1" fill="#f86c3a"/>
  <rect x="13" y="12" width="1" height="1" fill="#e15a31"/>
  <rect x="14" y="12" width="1" height="1" fill="#b33d23e6"/>
  <rect x="17" y="12" width="1" height="1" fill="#bfbab9e6"/>
  <rect x="18" y="12" width="1" height="1" fill="#eae5e5"/>
  <rect x="19" y="12" width="1" height="1" fill="#fef9f8"/>
  <rect x="20" y="12" width="1" height="1" fill="#ffffff"/>
  <rect x="21" y="12" width="1" height="1" fill="#c0bbbde6"/>
  <rect x="26" y="12" width="1" height="1" fill="#bcbec0e6"/>
  <rect x="27" y="12" width="1" height="1" fill="#fcfeff"/>
  <rect x="28" y="12" width="1" height="1" fill="#fdffff"/>
  <rect x="29" y="12" width="1" height="1" fill="#e7e9ed"/>
  <rect x="30" y="12" width="1" height="1" fill="#b6b8bce6"/>
  <rect x="2" y="13" width="1" height="1" fill="#ce421fec"/>
  <rect x="3" y="13" width="1" height="1" fill="#fd774b"/>
  <rect x="4" y="13" width="1" height="1" fill="#b14419e6"/>
  <rect x="11" y="13" width="1" height="1" fill="#b14216e6"/>
  <rect x="12" y="13" width="1" height="1" fill="#ff7c4e"/>
  <rect x="13" y="13" width="1" height="1" fill="#c33f15ec"/>
  <rect x="18" y="13" width="1" height="1" fill="#c9c5c4ec"/>
  <rect x="19" y="13" width="1" height="1" fill="#fffdfc"/>
  <rect x="20" y="13" width="1" height="1" fill="#bfbabbe6"/>
  <rect x="27" y="13" width="1" height="1" fill="#bcbec0e6"/>
  <rect x="28" y="13" width="1" height="1" fill="#f6f8fc"/>
  <rect x="29" y="13" width="1" height="1" fill="#c2c4c8ec"/>
  <rect x="3" y="14" width="1" height="1" fill="#bb4721ec"/>
  <rect x="12" y="14" width="1" height="1" fill="#bd4b22ec"/>
  <rect x="19" y="14" width="1" height="1" fill="#c2bebdec"/>
  <rect x="28" y="14" width="1" height="1" fill="#b9babeec"/>
</svg>