<svg xmlns="http://www.w3.org/2000/svg" width="32" height="16" viewBox="0 0 32 16" shape-rendering="crispEdges">
  <rect x="6" y="1" width="1" height="1" fill="#0a5d77"/>
  <rect x="7" y="1" width="1" height="1" fill="#00709f"/>
  <rect x="8" y="1" width="1" height="1" fill="#077ab7"/>
  <rect x="9" y="1" width="1" height="1" fill="#156b99"/>
  <rect x="22" y="1" width="1" height="1" fill="#909294"/>
  <rect x="23" y="1" width="1" height="1" fill="#99989b"/>
  <rect x="24" y="1" width="1" height="1" fill="#9c9a9b"/>
  <rect x="25" y="1" width="1" height="1" fill="#a09e9c"/>
  <rect x="6" y="2" width="1" height="1" fill="#1e6280"/>
  <rect x="7" y="2" width="1" height="1" fill="#8be9ff"/>
  <rect x="8" y="2" width="1" height="1" fill="#7bdbff"/>
  <rect x="9" y="2" width="1" height="1" fill="#256ba8"/>
  <rect x="22" y="2" width="1" height="1" fill="#9a9c9e"/>
  <rect x="23" y="2" width="1" height="3" fill="#fcfbfe"/>
  <rect x="24" y="2" width="1" height="1" fill="#fefcfd"/>
  <rect x="25" y="2" width="1" height="1" fill="#a19f9d"/>
  <rect x="6" y="3" width="1" height="1" fill="#27627e"/>
  <rect x="7" y="3" width="1" height="1" fill="#a1f2ff"/>
  <rect x="8" y="3" width="1" height="1" fill="#81d4ff"/>
  <rect x="9" y="3" width="1" height="1" fill="#27649f"/>
  <rect x="22" y="3" width="1" height="1" fill="#97999b"/>
  <rect x="24" y="3" width="1" height="2" fill="#fffeff"/>
  <rect x="25" y="3" width="1" height="1" fill="#a5a3a1"/>
  <rect x="6" y="4" width="1" height="1" fill="#2f6882"/>
  <rect x="7" y="4" width="1" height="1" fill="#a3eeff"/>
  <rect x="8" y="4" width="1" height="1" fill="#84d0ff"/>
  <rect x="9" y="4" width="1" height="1" fill="#2d6b94"/>
  <rect x="22" y="4" width="1" height="1" fill="#969899"/>
  <rect x="25" y="4" width="1" height="1" fill="#a2a09f"/>
  <rect x="6" y="5" width="1" height="1" fill="#366f87"/>
  <rect x="7" y="5" width="1" height="1" fill="#a5ecff"/>
  <rect x="8" y="5" width="1" height="1" fill="#81c7ef"/>
  <rect x="9" y="5" width="1" height="1" fill="#306e92"/>
  <rect x="22" y="5" width="1" height="1" fill="#9c9e9f"/>
  <rect x="23" y="5" width="2" height="2" fill="#ffffff"/>
  <rect x="25" y="5" width="1" height="1" fill="#a19f9d"/>
  <rect x="1" y="6" width="1" height="1" fill="#11647e"/>
  <rect x="2" y="6" width="1" height="1" fill="#1d617f"/>
  <rect x="3" y="6" width="1" height="1" fill="#276280"/>
  <rect x="4" y="6" width="1" height="1" fill="#2c6582"/>
  <rect x="5" y="6" width="1" height="1" fill="#2d677f"/>
  <rect x="6" y="6" width="1" height="1" fill="#276675"/>
  <rect x="7" y="6" width="1" height="1" fill="#9de0f4"/>
  <rect x="8" y="6" width="1" height="1" fill="#84c7eb"/>
  <rect x="9" y="6" width="1" height="1" fill="#2c6f96"/>
  <rect x="10" y="6" width="1" height="1" fill="#357594"/>
  <rect x="11" y="6" width="1" height="1" fill="#34758c"/>
  <rect x="12" y="6" width="1" height="1" fill="#2b6e80"/>
  <rect x="13" y="6" width="1" height="1" fill="#338091"/>
  <rect x="14" y="6" width="1" height="1" fill="#237c95"/>
  <rect x="17" y="6" width="1" height="1" fill="#919395"/>
  <rect x="18" y="6" width="1" height="1" fill="#8e9091"/>
  <rect x="19" y="6" width="2" height="1" fill="#97999b"/>
  <rect x="21" y="6" width="1" height="1" fill="#9a9c9e"/>
  <rect x="22" y="6" width="1" height="1" fill="#999b9d"/>
  <rect x="25" y="6" width="1" height="1" fill="#a6a4a2"/>
  <rect x="26" y="6" width="1" height="1" fill="#a8a6a4"/>
  <rect x="27" y="6" width="2" height="1" fill="#adaba9"/>
  <rect x="29" y="6" width="1" height="1" fill="#b3b1af"/>
  <rect x="30" y="6" width="1" height="1" fill="#b0aead"/>
  <rect x="1" y="7" width="1" height="1" fill="#00729c"/>
  <rect x="2" y="7" width="1" height="1" fill="#95f5ff"/>
  <rect x="3" y="7" width="1" height="1" fill="#9aedff"/>
  <rect x="4" y="7" width="1" height="1" fill="#a8f1ff"/>
  <rect x="5" y="7" width="1" height="1" fill="#a2e7ff"/>
  <rect x="6" y="7" width="1" height="1" fill="#a1e4fb"/>
  <rect x="7" y="7" width="1" height="1" fill="#a1e1f7"/>
  <rect x="8" y="7" width="1" height="1" fill="#79bddb"/>
  <rect x="9" y="7" width="1" height="1" fill="#8ad0f3"/>
  <rect x="10" y="7" width="1" height="1" fill="#8cd6f8"/>
  <rect x="11" y="7" width="1" height="1" fill="#91e3ff"/>
  <rect x="12" y="7" width="1" height="1" fill="#8fe8ff"/>
  <rect x="13" y="7" width="1" height="1" fill="#85ecff"/>
  <rect x="14" y="7" width="1" height="1" fill="#0e89a8"/>
  <rect x="17" y="7" width="1" height="1" fill="#949396"/>
  <rect x="18" y="7" width="5" height="1" fill="#ffffff"/>
  <rect x="23" y="7" width="1" height="1" fill="#fcfbfe"/>
  <rect x="24" y="7" width="1" height="1" fill="#ffffff"/>
  <rect x="25" y="7" width="3" height="1" fill="#fefcfd"/>
  <rect x="28" y="7" width="1" height="1" fill="#ffffff"/>
  <rect x="29" y="7" width="1" height="1" fill="#fffdfe"/>
  <rect x="30" y="7" width="1" height="1" fill="#b6b4b4"/>
  <rect x="1" y="8" width="1" height="1" fill="#006b92"/>
  <rect x="2" y="8" width="1" height="1" fill="#87e8ff"/>
  <rect x="3" y="8" width="1" height="1" fill="#7acdff"/>
  <rect x="4" y="8" width="1" height="1" fill="#8ad6ff"/>
  <rect x="5" y="8" width="1" height="1" fill="#7bc0f2"/>
  <rect x="6" y="8" width="1" height="1" fill="#85c7f0"/>
  <rect x="7" y="8" width="1" height="1" fill="#8ed2f2"/>
  <rect x="8" y="8" width="1" height="1" fill="#93d8ee"/>
  <rect x="9" y="8" width="1" height="1" fill="#a2ecff"/>
  <rect x="10" y="8" width="1" height="1" fill="#9be6ff"/>
  <rect x="11" y="8" width="1" height="1" fill="#9becff"/>
  <rect x="12" y="8" width="1" height="1" fill="#91eaff"/>
  <rect x="13" y="8" width="1" height="1" fill="#88eeff"/>
  <rect x="14" y="8" width="1" height="1" fill="#128cac"/>
  <rect x="17" y="8" width="1" height="1" fill="#979497"/>
  <rect x="18" y="8" width="1" height="1" fill="#fcf9fc"/>
  <rect x="19" y="8" width="1" height="1" fill="#fffeff"/>
  <rect x="20" y="8" width="2" height="1" fill="#ffffff"/>
  <rect x="22" y="8" width="1" height="1" fill="#fcf9fc"/>
  <rect x="23" y="8" width="2" height="1" fill="#ffffff"/>
  <rect x="25" y="8" width="1" height="1" fill="#fdfcff"/>
  <rect x="26" y="8" width="1" height="1" fill="#ffffff"/>
  <rect x="27" y="8" width="1" height="1" fill="#fafafc"/>
  <rect x="28" y="8" width="1" height="1" fill="#fefdff"/>
  <rect x="29" y="8" width="1" height="1" fill="#ffffff"/>
  <rect x="30" y="8" width="1" height="1" fill="#b3b3b5"/>
  <rect x="1" y="9" width="1" height="1" fill="#126b88"/>
  <rect x="2" y="9" width="1" height="1" fill="#1f698e"/>
  <rect x="3" y="9" width="1" height="1" fill="#1e5d88"/>
  <rect x="4" y="9" width="1" height="1" fill="#235f8f"/>
  <rect x="5" y="9" width="1" height="1" fill="#2d6a9a"/>
  <rect x="6" y="9" width="1" height="1" fill="#2c6e9c"/>
  <rect x="7" y="9" width="1" height="1" fill="#87ccf2"/>
  <rect x="8" y="9" width="1" height="1" fill="#94dff1"/>
  <rect x="9" y="9" width="1" height="1" fill="#307685"/>
  <rect x="10" y="9" width="1" height="1" fill="#337489"/>
  <rect x="11" y="9" width="1" height="1" fill="#34718c"/>
  <rect x="12" y="9" width="1" height="1" fill="#2f718d"/>
  <rect x="13" y="9" width="1" height="1" fill="#39849f"/>
  <rect x="14" y="9" width="1" height="1" fill="#278199"/>
  <rect x="17" y="9" width="1" height="1" fill="#918e91"/>
  <rect x="18" y="9" width="1" height="1" fill="#979497"/>
  <rect x="19" y="9" width="1" height="1" fill="#9b989c"/>
  <rect x="20" y="9" width="2" height="1" fill="#9f9c9f"/>
  <rect x="22" y="9" width="1" height="1" fill="#a29fa3"/>
  <rect x="23" y="9" width="1" height="1" fill="#fffdff"/>
  <rect x="24" y="9" width="1" height="1" fill="#fdfcff"/>
  <rect x="25" y="9" width="1" height="1" fill="#a8aaac"/>
  <rect x="26" y="9" width="2" height="1" fill="#abadae"/>
  <rect x="28" y="9" width="2" height="1" fill="#b2b4b5"/>
  <rect x="30" y="9" width="1" height="1" fill="#afb1b3"/>
  <rect x="6" y="10" width="1" height="1" fill="#29678d"/>
  <rect x="7" y="10" width="1" height="1" fill="#85cff1"/>
  <rect x="8" y="10" width="1" height="1" fill="#9be8f9"/>
  <rect x="9" y="10" width="1" height="1" fill="#397c85"/>
  <rect x="22" y="10" width="1" height="1" fill="#a3a1a4"/>
  <rect x="23" y="10" width="1" height="1" fill="#fffeff"/>
  <rect x="24" y="10" width="1" height="1" fill="#ffffff"/>
  <rect x="25" y="10" width="1" height="2" fill="#aaacad"/>
  <rect x="6" y="11" width="1" height="1" fill="#337197"/>
  <rect x="7" y="11" width="1" height="1" fill="#7bccf2"/>
  <rect x="8" y="11" width="1" height="1" fill="#89dbf6"/>
  <rect x="9" y="11" width="1" height="1" fill="#3b7a8b"/>
  <rect x="22" y="11" width="1" height="1" fill="#a8a5a9"/>
  <rect x="23" y="11" width="1" height="1" fill="#fefbff"/>
  <rect x="24" y="11" width="1" height="1" fill="#fafafc"/>
  <rect x="6" y="12" width="1" height="1" fill="#266496"/>
  <rect x="7" y="12" width="1" height="1" fill="#7bcfff"/>
  <rect x="8" y="12" width="1" height="1" fill="#8de2ff"/>
  <rect x="9" y="12" width="1" height="1" fill="#2d6e91"/>
  <rect x="22" y="12" width="1" height="1" fill="#a6a3a6"/>
  <rect x="23" y="12" width="1" height="1" fill="#fdfafe"/>
  <rect x="24" y="12" width="1" height="1" fill="#fcfbfe"/>
  <rect x="25" y="12" width="1" height="1" fill="#aeb0b2"/>
  <rect x="6" y="13" width="1" height="1" fill="#2b73a2"/>
  <rect x="7" y="13" width="1" height="1" fill="#74d5ff"/>
  <rect x="8" y="13" width="1" height="1" fill="#83e5ff"/>
  <rect x="9" y="13" width="1" height="1" fill="#367fa4"/>
  <rect x="22" y="13" width="1" height="1" fill="#aeabae"/>
  <rect x="23" y="13" width="1" height="1" fill="#fefbff"/>
  <rect x="24" y="13" width="1" height="1" fill="#ffffff"/>
  <rect x="25" y="13" width="1" height="1" fill="#a8aaac"/>
  <rect x="6" y="14" width="1" height="1" fill="#166e8c"/>
  <rect x="7" y="14" width="1" height="1" fill="#037ba7"/>
  <rect x="8" y="14" width="1" height="1" fill="#0d86ad"/>
  <rect x="9" y="14" width="1" height="1" fill="#257f95"/>
  <rect x="22" y="14" width="1" height="1" fill="#a8a5a9"/>
  <rect x="23" y="14" width="1" height="1" fill="#adaaad"/>
  <rect x="24" y="14" width="1" height="1" fill="#b0afb2"/>
  <rect x="25" y="14" width="1" height="1" fill="#adafb1"/>
</svg>