<svg xmlns="http://www.w3.org/2000/svg" width="838" height="32" viewBox="0 0 838 32" shape-rendering="crispEdges">
  <rect x="0" y="0" width="32" height="8" fill="#e4eff4"/>
  <rect x="32" y="0" width="4" height="7" fill="#e6f0f6"/>
  <rect x="36" y="0" width="8" height="6" fill="#e7eff6"/>
  <rect x="44" y="0" width="4" height="6" fill="#e9eef6"/>
  <rect x="48" y="0" width="16" height="6" fill="#e7eff6"/>
  <rect x="64" y="0" width="16" height="4" fill="#e7f1f7"/>
  <rect x="80" y="0" width="48" height="4" fill="#e8f0f7"/>
  <rect x="128" y="0" width="64" height="16" fill="#e9f2f8"/>
  <rect x="192" y="0" width="32" height="4" fill="#ebf3f9"/>
  <rect x="224" y="0" width="22" height="4" fill="#ecf2f9"/>
  <rect x="246" y="0" width="4" height="8" fill="#ecf2f7"/>
  <rect x="250" y="0" width="6" height="4" fill="#ecf3f5"/>
  <rect x="256" y="0" width="48" height="4" fill="#edf3f8"/>
  <rect x="304" y="0" width="16" height="4" fill="#eff3f8"/>
  <rect x="320" y="0" width="64" height="32" fill="#f0f4f9"/>
  <rect x="384" y="0" width="40" height="32" fill="#f1f5fb"/>
  <rect x="424" y="0" width="4" height="8" fill="#f2f6fc"/>
  <rect x="428" y="0" width="8" height="8" fill="#f4f5fc"/>
  <rect x="436" y="0" width="2" height="8" fill="#f6f4fc"/>
  <rect x="438" y="0" width="4" height="8" fill="#f4f5fc"/>
  <rect x="442" y="0" width="6" height="4" fill="#f2f6fc"/>
  <rect x="448" y="0" width="390" height="4" fill="#f4f5fc"/>
  <rect x="64" y="4" width="12" height="4" fill="#e7f1f7"/>
  <rect x="76" y="4" width="52" height="4" fill="#e8f0f7"/>
  <rect x="192" y="4" width="28" height="4" fill="#ebf3f9"/>
  <rect x="220" y="4" width="26" height="4" fill="#ecf2f9"/>
  <rect x="250" y="4" width="2" height="4" fill="#ecf3f5"/>
  <rect x="252" y="4" width="4" height="4" fill="#ecf2f7"/>
  <rect x="256" y="4" width="44" height="4" fill="#edf3f8"/>
  <rect x="300" y="4" width="20" height="4" fill="#eff3f8"/>
  <rect x="442" y="4" width="2" height="4" fill="#f2f6fc"/>
  <rect x="444" y="4" width="394" height="4" fill="#f4f5fc"/>
  <rect x="36" y="6" width="22" height="1" fill="#e7eff6"/>
  <rect x="58" y="6" width="6" height="2" fill="#e6f0f6"/>
  <rect x="32" y="7" width="3" height="1" fill="#e6f0f6"/>
  <rect x="35" y="7" width="23" height="1" fill="#e7eff6"/>
  <rect x="0" y="8" width="28" height="8" fill="#e4eff4"/>
  <rect x="28" y="8" width="4" height="8" fill="#e6eef4"/>
  <rect x="32" y="8" width="4" height="8" fill="#e7eff6"/>
  <rect x="36" y="8" width="2" height="8" fill="#e9eef6"/>
  <rect x="38" y="8" width="4" height="8" fill="#e7eff6"/>
  <rect x="42" y="8" width="2" height="2" fill="#e6f0f6"/>
  <rect x="44" y="8" width="10" height="2" fill="#e7eff6"/>
  <rect x="54" y="8" width="10" height="2" fill="#e6f0f6"/>
  <rect x="64" y="8" width="4" height="8" fill="#e7f1f7"/>
  <rect x="68" y="8" width="60" height="4" fill="#e8f0f7"/>
  <rect x="192" y="8" width="20" height="4" fill="#ebf3f9"/>
  <rect x="212" y="8" width="24" height="4" fill="#ecf2f9"/>
  <rect x="236" y="8" width="20" height="4" fill="#ecf2f7"/>
  <rect x="256" y="8" width="36" height="8" fill="#edf3f8"/>
  <rect x="292" y="8" width="28" height="4" fill="#eff3f8"/>
  <rect x="424" y="8" width="11" height="1" fill="#f2f6fc"/>
  <rect x="435" y="8" width="403" height="1" fill="#f4f5fc"/>
  <rect x="424" y="9" width="12" height="7" fill="#f2f6fc"/>
  <rect x="436" y="9" width="402" height="3" fill="#f4f5fc"/>
  <rect x="42" y="10" width="6" height="6" fill="#e6f0f6"/>
  <rect x="48" y="10" width="6" height="6" fill="#e7eff6"/>
  <rect x="54" y="10" width="4" height="2" fill="#e6f0f6"/>
  <rect x="58" y="10" width="6" height="2" fill="#e4f1f6"/>
  <rect x="54" y="12" width="10" height="4" fill="#e6f0f6"/>
  <rect x="68" y="12" width="8" height="4" fill="#e8f0f7"/>
  <rect x="76" y="12" width="4" height="4" fill="#eaf0f7"/>
  <rect x="80" y="12" width="48" height="4" fill="#e8f0f7"/>
  <rect x="192" y="12" width="4" height="4" fill="#ebf3f9"/>
  <rect x="196" y="12" width="2" height="4" fill="#ecf2f9"/>
  <rect x="198" y="12" width="14" height="4" fill="#ebf3f9"/>
  <rect x="212" y="12" width="8" height="4" fill="#ecf2f9"/>
  <rect x="220" y="12" width="4" height="4" fill="#eef1f9"/>
  <rect x="224" y="12" width="12" height="4" fill="#ecf2f9"/>
  <rect x="236" y="12" width="16" height="10" fill="#ecf2f7"/>
  <rect x="252" y="12" width="4" height="10" fill="#ecf2f9"/>
  <rect x="292" y="12" width="8" height="4" fill="#eff3f8"/>
  <rect x="300" y="12" width="4" height="4" fill="#f1f2f8"/>
  <rect x="304" y="12" width="16" height="4" fill="#eff3f8"/>
  <rect x="436" y="12" width="8" height="4" fill="#f4f5fc"/>
  <rect x="444" y="12" width="4" height="4" fill="#f6f4fc"/>
  <rect x="448" y="12" width="390" height="4" fill="#f4f5fc"/>
  <rect x="0" y="16" width="32" height="16" fill="#e4eff4"/>
  <rect x="32" y="16" width="26" height="4" fill="#e7eff6"/>
  <rect x="58" y="16" width="6" height="4" fill="#e6f0f6"/>
  <rect x="64" y="16" width="64" height="10" fill="#e8f0f7"/>
  <rect x="128" y="16" width="60" height="8" fill="#e9f2f8"/>
  <rect x="188" y="16" width="4" height="8" fill="#ebf1f8"/>
  <rect x="192" y="16" width="10" height="4" fill="#ecf2f9"/>
  <rect x="202" y="16" width="6" height="6" fill="#ebf3f9"/>
  <rect x="208" y="16" width="28" height="6" fill="#ecf2f9"/>
  <rect x="256" y="16" width="32" height="16" fill="#edf3f8"/>
  <rect x="288" y="16" width="32" height="16" fill="#eff3f8"/>
  <rect x="424" y="16" width="8" height="16" fill="#f2f6fc"/>
  <rect x="432" y="16" width="406" height="16" fill="#f4f5fc"/>
  <rect x="32" y="20" width="32" height="2" fill="#e7eff6"/>
  <rect x="192" y="20" width="4" height="2" fill="#ecf2f9"/>
  <rect x="196" y="20" width="2" height="2" fill="#eef1f9"/>
  <rect x="198" y="20" width="4" height="2" fill="#ecf2f9"/>
  <rect x="32" y="22" width="26" height="2" fill="#e7eff6"/>
  <rect x="58" y="22" width="6" height="2" fill="#e6f0f6"/>
  <rect x="192" y="22" width="10" height="2" fill="#ecf2f9"/>
  <rect x="202" y="22" width="10" height="2" fill="#ebf3f9"/>
  <rect x="212" y="22" width="24" height="2" fill="#ecf2f9"/>
  <rect x="236" y="22" width="20" height="2" fill="#ecf2f7"/>
  <rect x="32" y="24" width="22" height="8" fill="#e7eff6"/>
  <rect x="54" y="24" width="10" height="2" fill="#e6f0f6"/>
  <rect x="128" y="24" width="64" height="8" fill="#e9f2f8"/>
  <rect x="192" y="24" width="4" height="2" fill="#ebf3f9"/>
  <rect x="196" y="24" width="2" height="2" fill="#ecf2f9"/>
  <rect x="198" y="24" width="22" height="2" fill="#ebf3f9"/>
  <rect x="220" y="24" width="26" height="8" fill="#ecf2f9"/>
  <rect x="246" y="24" width="4" height="8" fill="#ecf2f7"/>
  <rect x="250" y="24" width="2" height="2" fill="#ecf3f5"/>
  <rect x="252" y="24" width="4" height="2" fill="#ecf2f7"/>
  <rect x="54" y="26" width="4" height="6" fill="#e6f0f6"/>
  <rect x="58" y="26" width="2" height="6" fill="#e4f1f6"/>
  <rect x="60" y="26" width="4" height="6" fill="#e6f0f6"/>
  <rect x="64" y="26" width="4" height="6" fill="#e7f1f7"/>
  <rect x="68" y="26" width="60" height="6" fill="#e8f0f7"/>
  <rect x="192" y="26" width="16" height="6" fill="#ebf3f9"/>
  <rect x="208" y="26" width="4" height="6" fill="#e9f4f9"/>
  <rect x="212" y="26" width="8" height="6" fill="#ebf3f9"/>
  <rect x="250" y="26" width="6" height="6" fill="#ecf3f5"/>
</svg>