<svg xmlns="http://www.w3.org/2000/svg" width="32" height="16" viewBox="0 0 32 16" shape-rendering="crispEdges">
  <rect x="8" y="1" width="1" height="1" fill="#4d5250"/>
  <rect x="9" y="1" width="1" height="1" fill="#565b5a"/>
  <rect x="10" y="1" width="1" height="1" fill="#5a5d5c"/>
  <rect x="11" y="1" width="1" height="1" fill="#494949"/>
  <rect x="12" y="1" width="1" height="1" fill="#484848"/>
  <rect x="24" y="1" width="1" height="1" fill="#a9a6aa"/>
  <rect x="25" y="1" width="1" height="1" fill="#aaa8ab"/>
  <rect x="26" y="1" width="1" height="1" fill="#aca9ac"/>
  <rect x="27" y="1" width="1" height="1" fill="#a7a4a7"/>
  <rect x="28" y="1" width="1" height="1" fill="#a8a5a9"/>
  <rect x="8" y="2" width="1" height="1" fill="#fcfffe30"/>
  <rect x="9" y="2" width="1" height="1" fill="#fafdf97d"/>
  <rect x="10" y="2" width="1" height="1" fill="#4e4f48"/>
  <rect x="11" y="2" width="1" height="1" fill="#f8f9f2af"/>
  <rect x="12" y="2" width="1" height="1" fill="#f1f4ee79"/>
  <rect x="24" y="2" width="1" height="1" fill="#ffffff30"/>
  <rect x="25" y="2" width="1" height="1" fill="#fefbff7d"/>
  <rect x="26" y="2" width="1" height="1" fill="#a9a6aa"/>
  <rect x="27" y="2" width="1" height="1" fill="#fffeffaf"/>
  <rect x="28" y="2" width="1" height="1" fill="#fbf8fb79"/>
  <rect x="9" y="3" width="1" height="1" fill="#f6ffff78"/>
  <rect x="10" y="3" width="1" height="1" fill="#475550"/>
  <rect x="11" y="3" width="1" height="1" fill="#faffff6e"/>
  <rect x="25" y="3" width="1" height="1" fill="#fdfafe78"/>
  <rect x="26" y="3" width="1" height="1" fill="#a7a4a7"/>
  <rect x="27" y="3" width="1" height="1" fill="#ffffff6e"/>
  <rect x="1" y="4" width="1" height="1" fill="#1a5271"/>
  <rect x="2" y="4" width="1" height="1" fill="#265f7e"/>
  <rect x="3" y="4" width="1" height="1" fill="#225a79"/>
  <rect x="4" y="4" width="1" height="1" fill="#2d6685"/>
  <rect x="5" y="4" width="1" height="1" fill="#2a6281"/>
  <rect x="6" y="4" width="1" height="1" fill="#255e7d"/>
  <rect x="7" y="4" width="1" height="1" fill="#215a74"/>
  <rect x="8" y="4" width="1" height="1" fill="#225b6c"/>
  <rect x="9" y="4" width="1" height="1" fill="#295e67"/>
  <rect x="10" y="4" width="1" height="1" fill="#315b5f"/>
  <rect x="11" y="4" width="1" height="1" fill="#375f64"/>
  <rect x="12" y="4" width="1" height="1" fill="#32616a"/>
  <rect x="13" y="4" width="1" height="1" fill="#286273"/>
  <rect x="14" y="4" width="1" height="1" fill="#115e7b"/>
  <rect x="17" y="4" width="1" height="2" fill="#a3a5a6"/>
  <rect x="18" y="4" width="1" height="1" fill="#a4a6a7"/>
  <rect x="19" y="4" width="1" height="1" fill="#a5a7a9"/>
  <rect x="20" y="4" width="3" height="1" fill="#a4a6a7"/>
  <rect x="23" y="4" width="1" height="1" fill="#a7a6a9"/>
  <rect x="24" y="4" width="1" height="1" fill="#a7a4a7"/>
  <rect x="25" y="4" width="1" height="1" fill="#a9a6aa"/>
  <rect x="26" y="4" width="1" height="1" fill="#aeabae"/>
  <rect x="27" y="4" width="1" height="1" fill="#a9a6aa"/>
  <rect x="28" y="4" width="1" height="1" fill="#aaa8ab"/>
  <rect x="29" y="4" width="2" height="1" fill="#aca9ac"/>
  <rect x="1" y="5" width="1" height="1" fill="#1a6590"/>
  <rect x="2" y="5" width="1" height="1" fill="#adf8ff"/>
  <rect x="3" y="5" width="1" height="1" fill="#aaf5ff"/>
  <rect x="4" y="5" width="1" height="1" fill="#affaff"/>
  <rect x="5" y="5" width="1" height="1" fill="#bbffff"/>
  <rect x="6" y="5" width="1" height="1" fill="#b6ffff"/>
  <rect x="7" y="5" width="1" height="1" fill="#b3ffff"/>
  <rect x="8" y="5" width="1" height="1" fill="#b7ffff"/>
  <rect x="9" y="5" width="1" height="1" fill="#c3ffff"/>
  <rect x="10" y="5" width="1" height="1" fill="#375e6a"/>
  <rect x="11" y="5" width="1" height="1" fill="#ddfbff"/>
  <rect x="12" y="5" width="1" height="1" fill="#d7fcff"/>
  <rect x="13" y="5" width="1" height="1" fill="#b6f3ff"/>
  <rect x="14" y="5" width="1" height="1" fill="#0f719b"/>
  <rect x="18" y="5" width="1" height="2" fill="#fdffff"/>
  <rect x="19" y="5" width="7" height="1" fill="#ffffff"/>
  <rect x="26" y="5" width="1" height="1" fill="#aaa8ab"/>
  <rect x="27" y="5" width="1" height="1" fill="#fffdff"/>
  <rect x="28" y="5" width="1" height="2" fill="#fffeff"/>
  <rect x="29" y="5" width="1" height="1" fill="#ffffff"/>
  <rect x="30" y="5" width="1" height="1" fill="#b4b1b4"/>
  <rect x="1" y="6" width="1" height="1" fill="#0f608b"/>
  <rect x="2" y="6" width="1" height="1" fill="#a2f4ff"/>
  <rect x="3" y="6" width="1" height="1" fill="#176994"/>
  <rect x="4" y="6" width="1" height="1" fill="#0a5c87"/>
  <rect x="5" y="6" width="1" height="1" fill="#0f608b"/>
  <rect x="6" y="6" width="1" height="1" fill="#0a5c87"/>
  <rect x="7" y="6" width="1" height="1" fill="#0a587b"/>
  <rect x="8" y="6" width="1" height="1" fill="#256b81"/>
  <rect x="9" y="6" width="1" height="1" fill="#c3eeff"/>
  <rect x="10" y="6" width="1" height="1" fill="#4e5062"/>
  <rect x="11" y="6" width="1" height="1" fill="#e1d5e9"/>
  <rect x="12" y="6" width="1" height="1" fill="#e4e1fe"/>
  <rect x="13" y="6" width="1" height="1" fill="#d7f5ff"/>
  <rect x="14" y="6" width="1" height="1" fill="#1a72a4"/>
  <rect x="17" y="6" width="1" height="1" fill="#a1a3a5"/>
  <rect x="19" y="6" width="4" height="1" fill="#a5a7a9"/>
  <rect x="23" y="6" width="1" height="1" fill="#a8a7aa"/>
  <rect x="24" y="6" width="1" height="1" fill="#aaa8ab"/>
  <rect x="25" y="6" width="1" height="4" fill="#ffffff"/>
  <rect x="26" y="6" width="1" height="1" fill="#a9a6aa"/>
  <rect x="27" y="6" width="1" height="1" fill="#fefbff"/>
  <rect x="29" y="6" width="1" height="1" fill="#fffdff"/>
  <rect x="30" y="6" width="1" height="1" fill="#b1afb2"/>
  <rect x="1" y="7" width="1" height="1" fill="#136791"/>
  <rect x="2" y="7" width="1" height="1" fill="#b0ffff"/>
  <rect x="3" y="7" width="1" height="1" fill="#0e628d"/>
  <rect x="4" y="7" width="1" height="1" fill="#8adeff"/>
  <rect x="5" y="7" width="1" height="1" fill="#67bbe5"/>
  <rect x="6" y="7" width="1" height="1" fill="#71c5f0"/>
  <rect x="7" y="7" width="1" height="1" fill="#71c2e4"/>
  <rect x="8" y="7" width="1" height="1" fill="#246a80"/>
  <rect x="9" y="7" width="1" height="1" fill="#cff8ff"/>
  <rect x="10" y="7" width="1" height="1" fill="#554c5c"/>
  <rect x="11" y="7" width="1" height="1" fill="#ffe8ff"/>
  <rect x="12" y="7" width="1" height="1" fill="#f3e3ff"/>
  <rect x="13" y="7" width="1" height="1" fill="#d5e9ff"/>
  <rect x="14" y="7" width="1" height="1" fill="#2178af"/>
  <rect x="17" y="7" width="1" height="1" fill="#a7a6a9"/>
  <rect x="18" y="7" width="1" height="1" fill="#ffffff"/>
  <rect x="19" y="7" width="1" height="1" fill="#a7a6a9"/>
  <rect x="20" y="7" width="4" height="1" fill="#ffffff"/>
  <rect x="24" y="7" width="1" height="1" fill="#a5a5a7"/>
  <rect x="26" y="7" width="1" height="1" fill="#a7a4a7"/>
  <rect x="27" y="7" width="1" height="1" fill="#fffdff"/>
  <rect x="28" y="7" width="1" height="1" fill="#ffffff"/>
  <rect x="29" y="7" width="1" height="1" fill="#fefbff"/>
  <rect x="30" y="7" width="1" height="1" fill="#b5b2b5"/>
  <rect x="1" y="8" width="1" height="1" fill="#12648f"/>
  <rect x="2" y="8" width="1" height="1" fill="#b4ffff"/>
  <rect x="3" y="8" width="1" height="1" fill="#186a95"/>
  <rect x="4" y="8" width="1" height="1" fill="#88daff"/>
  <rect x="5" y="8" width="1" height="1" fill="#7bcdf8"/>
  <rect x="6" y="8" width="1" height="1" fill="#68bae5"/>
  <rect x="7" y="8" width="1" height="1" fill="#5daed0"/>
  <rect x="8" y="8" width="1" height="1" fill="#1a697c"/>
  <rect x="9" y="8" width="1" height="1" fill="#cbffff"/>
  <rect x="10" y="8" width="1" height="1" fill="#4e515e"/>
  <rect x="11" y="8" width="1" height="1" fill="#fdecff"/>
  <rect x="12" y="8" width="1" height="1" fill="#f9f5ff"/>
  <rect x="13" y="8" width="1" height="1" fill="#dbfbff"/>
  <rect x="14" y="8" width="1" height="1" fill="#1073a5"/>
  <rect x="17" y="8" width="1" height="1" fill="#a6a3a6"/>
  <rect x="18" y="8" width="1" height="1" fill="#fffeff"/>
  <rect x="19" y="8" width="1" height="1" fill="#a8a5a9"/>
  <rect x="20" y="8" width="3" height="1" fill="#fffdff"/>
  <rect x="23" y="8" width="1" height="1" fill="#fefdff"/>
  <rect x="24" y="8" width="1" height="1" fill="#ababab"/>
  <rect x="26" y="8" width="1" height="1" fill="#a9a9a9"/>
  <rect x="27" y="8" width="1" height="1" fill="#fdfdfd"/>
  <rect x="28" y="8" width="1" height="1" fill="#fcfbfc"/>
  <rect x="29" y="8" width="1" height="1" fill="#fefefe"/>
  <rect x="30" y="8" width="1" height="1" fill="#b1b1b1"/>
  <rect x="1" y="9" width="1" height="1" fill="#11638e"/>
  <rect x="2" y="9" width="1" height="1" fill="#b9ffff"/>
  <rect x="3" y="9" width="1" height="1" fill="#0b5d88"/>
  <rect x="4" y="9" width="1" height="1" fill="#11638e"/>
  <rect x="5" y="9" width="1" height="1" fill="#136590"/>
  <rect x="6" y="9" width="1" height="1" fill="#176994"/>
  <rect x="7" y="9" width="1" height="1" fill="#1a6e8f"/>
  <rect x="8" y="9" width="1" height="1" fill="#146779"/>
  <rect x="9" y="9" width="1" height="1" fill="#c4ffff"/>
  <rect x="10" y="9" width="1" height="1" fill="#475e69"/>
  <rect x="11" y="9" width="1" height="1" fill="#ecf3ff"/>
  <rect x="12" y="9" width="1" height="1" fill="#d5e9fe"/>
  <rect x="13" y="9" width="1" height="1" fill="#d4ffff"/>
  <rect x="14" y="9" width="1" height="1" fill="#0875a0"/>
  <rect x="17" y="9" width="1" height="1" fill="#a8a5a9"/>
  <rect x="18" y="9" width="1" height="2" fill="#ffffff"/>
  <rect x="19" y="9" width="1" height="1" fill="#a7a4a7"/>
  <rect x="20" y="9" width="4" height="1" fill="#a8a5a9"/>
  <rect x="24" y="9" width="1" height="1" fill="#a8a8a8"/>
  <rect x="26" y="9" width="1" height="1" fill="#a3a5a2"/>
  <rect x="27" y="9" width="1" height="1" fill="#fcfffc"/>
  <rect x="28" y="9" width="1" height="1" fill="#fdfffd"/>
  <rect x="29" y="9" width="1" height="1" fill="#f9fcf8"/>
  <rect x="30" y="9" width="1" height="2" fill="#b3b6b2"/>
  <rect x="1" y="10" width="1" height="1" fill="#085d85"/>
  <rect x="2" y="10" width="1" height="1" fill="#bdffff"/>
  <rect x="3" y="10" width="1" height="1" fill="#b7ffff"/>
  <rect x="4" y="10" width="1" height="1" fill="#c4ffff"/>
  <rect x="5" y="10" width="1" height="1" fill="#c1ffff"/>
  <rect x="6" y="10" width="1" height="1" fill="#beffff"/>
  <rect x="7" y="10" width="1" height="1" fill="#bcffff"/>
  <rect x="8" y="10" width="1" height="1" fill="#b2ffff"/>
  <rect x="9" y="10" width="1" height="1" fill="#c1ffff"/>
  <rect x="10" y="10" width="1" height="1" fill="#2b6168"/>
  <rect x="11" y="10" width="1" height="1" fill="#d0feff"/>
  <rect x="12" y="10" width="1" height="1" fill="#c3faff"/>
  <rect x="13" y="10" width="1" height="1" fill="#b8ffff"/>
  <rect x="14" y="10" width="1" height="1" fill="#08789d"/>
  <rect x="17" y="10" width="1" height="1" fill="#a7a4a7"/>
  <rect x="19" y="10" width="1" height="1" fill="#fefbff"/>
  <rect x="20" y="10" width="4" height="1" fill="#fffeff"/>
  <rect x="24" y="10" width="1" height="1" fill="#fdfdfd"/>
  <rect x="25" y="10" width="1" height="1" fill="#fbfefb"/>
  <rect x="26" y="10" width="1" height="1" fill="#a6a9a6"/>
  <rect x="27" y="10" width="1" height="1" fill="#fdfffd"/>
  <rect x="28" y="10" width="1" height="1" fill="#fffffe"/>
  <rect x="29" y="10" width="1" height="1" fill="#fbfefb"/>
  <rect x="1" y="11" width="1" height="1" fill="#266683"/>
  <rect x="2" y="11" width="1" height="1" fill="#33738f"/>
  <rect x="3" y="11" width="1" height="1" fill="#276784"/>
  <rect x="4" y="11" width="2" height="1" fill="#2c6c88"/>
  <rect x="6" y="11" width="1" height="1" fill="#2b6b87"/>
  <rect x="7" y="11" width="1" height="1" fill="#2b6b83"/>
  <rect x="8" y="11" width="1" height="1" fill="#2b6d79"/>
  <rect x="9" y="11" width="1" height="1" fill="#2d6c72"/>
  <rect x="10" y="11" width="1" height="1" fill="#366a6b"/>
  <rect x="11" y="11" width="1" height="1" fill="#306163"/>
  <rect x="12" y="11" width="1" height="1" fill="#2f676e"/>
  <rect x="13" y="11" width="1" height="1" fill="#286c7c"/>
  <rect x="14" y="11" width="1" height="1" fill="#126884"/>
  <rect x="17" y="11" width="1" height="1" fill="#aaa8ab"/>
  <rect x="18" y="11" width="1" height="1" fill="#b5b2b5"/>
  <rect x="19" y="11" width="1" height="1" fill="#b0adb1"/>
  <rect x="20" y="11" width="4" height="1" fill="#b3b0b3"/>
  <rect x="24" y="11" width="1" height="1" fill="#b2b2b2"/>
  <rect x="25" y="11" width="1" height="1" fill="#afb2af"/>
  <rect x="26" y="11" width="1" height="1" fill="#a1a4a1"/>
  <rect x="27" y="11" width="1" height="1" fill="#b3b6b2"/>
  <rect x="28" y="11" width="2" height="1" fill="#b1b3b0"/>
  <rect x="30" y="11" width="1" height="1" fill="#adb0ad"/>
  <rect x="9" y="12" width="1" height="1" fill="#f1ffff38"/>
  <rect x="10" y="12" width="1" height="1" fill="#445750"/>
  <rect x="11" y="12" width="1" height="1" fill="#fdffff4f"/>
  <rect x="25" y="12" width="1" height="1" fill="#fdfffd38"/>
  <rect x="26" y="12" width="1" height="1" fill="#a6a9a6"/>
  <rect x="27" y="12" width="1" height="1" fill="#ffffff4f"/>
  <rect x="8" y="13" width="1" height="1" fill="#ffffff51"/>
  <rect x="9" y="13" width="1" height="1" fill="#f8f6f57a"/>
  <rect x="10" y="13" width="1" height="1" fill="#4f5049"/>
  <rect x="11" y="13" width="1" height="1" fill="#fefff892"/>
  <rect x="12" y="13" width="1" height="1" fill="#f5f8f35f"/>
  <rect x="24" y="13" width="1" height="1" fill="#ffffff51"/>
  <rect x="25" y="13" width="1" height="1" fill="#fdfffd7a"/>
  <rect x="26" y="13" width="1" height="1" fill="#aaaca9"/>
  <rect x="27" y="13" width="1" height="1" fill="#fdfffd92"/>
  <rect x="28" y="13" width="1" height="1" fill="#fafdf95f"/>
  <rect x="8" y="14" width="1" height="1" fill="#535353"/>
  <rect x="9" y="14" width="1" height="1" fill="#555555"/>
  <rect x="10" y="14" width="1" height="1" fill="#5f5c5d"/>
  <rect x="11" y="14" width="1" height="1" fill="#524e4f"/>
  <rect x="12" y="14" width="1" height="1" fill="#4f4a4c"/>
  <rect x="24" y="14" width="1" height="1" fill="#a5a5a5"/>
  <rect x="25" y="14" width="1" height="1" fill="#aaaca9"/>
  <rect x="26" y="14" width="1" height="1" fill="#abaeaa"/>
  <rect x="27" y="14" width="1" height="1" fill="#a5a8a4"/>
  <rect x="28" y="14" width="1" height="1" fill="#a7aaa7"/>
</svg>