<svg xmlns="http://www.w3.org/2000/svg" width="20" height="16" viewBox="0 0 20 16" shape-rendering="crispEdges">
  <rect x="8" y="0" width="1" height="1" fill="#b1b0b581"/>
  <rect x="9" y="0" width="1" height="1" fill="#b2b1b6dc"/>
  <rect x="10" y="0" width="1" height="1" fill="#b3b3b7f9"/>
  <rect x="11" y="0" width="1" height="1" fill="#b2b1b6dc"/>
  <rect x="12" y="0" width="1" height="1" fill="#b2b1b881"/>
  <rect x="6" y="1" width="1" height="1" fill="#afaeb10a"/>
  <rect x="7" y="1" width="1" height="1" fill="#b0afb2c5"/>
  <rect x="8" y="1" width="1" height="3" fill="#b1b0b5"/>
  <rect x="9" y="1" width="1" height="2" fill="#b2b1b6"/>
  <rect x="10" y="1" width="1" height="2" fill="#b3b3b7"/>
  <rect x="11" y="1" width="1" height="2" fill="#b2b1b6"/>
  <rect x="12" y="1" width="1" height="1" fill="#b2b1b8"/>
  <rect x="13" y="1" width="1" height="1" fill="#b1b0b7c5"/>
  <rect x="14" y="1" width="1" height="1" fill="#b1b0b70a"/>
  <rect x="6" y="2" width="1" height="1" fill="#afaeb182"/>
  <rect x="7" y="2" width="1" height="2" fill="#b0afb2"/>
  <rect x="12" y="2" width="2" height="1" fill="#b1b0b7"/>
  <rect x="14" y="2" width="1" height="1" fill="#b1b0b780"/>
  <rect x="6" y="3" width="1" height="1" fill="#afaeb1dc"/>
  <rect x="9" y="3" width="3" height="1" fill="#b2b1b6"/>
  <rect x="12" y="3" width="1" height="1" fill="#b0afb6"/>
  <rect x="13" y="3" width="1" height="2" fill="#b3b2b9"/>
  <rect x="14" y="3" width="1" height="1" fill="#b0afb6dd"/>
  <rect x="6" y="4" width="1" height="1" fill="#acacaef9"/>
  <rect x="7" y="4" width="1" height="1" fill="#b9b9bb"/>
  <rect x="8" y="4" width="2" height="1" fill="#b1b0b5"/>
  <rect x="10" y="4" width="1" height="1" fill="#b2b1b6"/>
  <rect x="11" y="4" width="1" height="1" fill="#b1b0b5"/>
  <rect x="12" y="4" width="1" height="1" fill="#adacb4"/>
  <rect x="14" y="4" width="1" height="1" fill="#abaab1f9"/>
  <rect x="6" y="5" width="1" height="1" fill="#a7a6a9dc"/>
  <rect x="7" y="5" width="1" height="1" fill="#b1b1b3"/>
  <rect x="8" y="5" width="4" height="1" fill="#b1b0b5"/>
  <rect x="12" y="5" width="1" height="1" fill="#acabb2"/>
  <rect x="13" y="5" width="1" height="1" fill="#afadb5"/>
  <rect x="14" y="5" width="1" height="1" fill="#a3a2a9de"/>
  <rect x="6" y="6" width="1" height="1" fill="#a09fa283"/>
  <rect x="7" y="6" width="1" height="1" fill="#a5a5a7"/>
  <rect x="8" y="6" width="3" height="1" fill="#afb1b3"/>
  <rect x="11" y="6" width="1" height="1" fill="#afb1b5"/>
  <rect x="12" y="6" width="1" height="2" fill="#aaabaf"/>
  <rect x="13" y="6" width="1" height="1" fill="#a4a5a9"/>
  <rect x="14" y="6" width="1" height="1" fill="#989a9e81"/>
  <rect x="6" y="7" width="1" height="1" fill="#9c9c9e0a"/>
  <rect x="7" y="7" width="1" height="1" fill="#9d9d9fc5"/>
  <rect x="8" y="7" width="4" height="1" fill="#afb1b3"/>
  <rect x="13" y="7" width="1" height="1" fill="#9d9ea2c5"/>
  <rect x="14" y="7" width="1" height="1" fill="#9193970a"/>
  <rect x="8" y="8" width="1" height="1" fill="#93959781"/>
  <rect x="9" y="8" width="1" height="1" fill="#929496dc"/>
  <rect x="10" y="8" width="1" height="1" fill="#939798f9"/>
  <rect x="11" y="8" width="1" height="1" fill="#949999dc"/>
  <rect x="12" y="8" width="1" height="1" fill="#979b9c81"/>
  <rect x="7" y="10" width="1" height="1" fill="#b1b3b258"/>
  <rect x="8" y="10" width="1" height="1" fill="#b2b7b6b4"/>
  <rect x="9" y="10" width="1" height="1" fill="#afb4b2e9"/>
  <rect x="12" y="10" width="1" height="1" fill="#a9b0ad"/>
  <rect x="16" y="10" width="1" height="2" fill="#acaead"/>
  <rect x="5" y="11" width="1" height="1" fill="#adadad23"/>
  <rect x="6" y="11" width="1" height="1" fill="#b2b4b3d0"/>
  <rect x="7" y="11" width="1" height="1" fill="#b6b9b8"/>
  <rect x="8" y="11" width="1" height="1" fill="#b7bcba"/>
  <rect x="9" y="11" width="1" height="1" fill="#afb4b2"/>
  <rect x="12" y="11" width="1" height="1" fill="#a4aba9"/>
  <rect x="13" y="11" width="1" height="1" fill="#979e9c"/>
  <rect x="15" y="11" width="1" height="1" fill="#929795"/>
  <rect x="4" y="12" width="1" height="1" fill="#ababab24"/>
  <rect x="5" y="12" width="1" height="1" fill="#acacace9"/>
  <rect x="6" y="12" width="2" height="1" fill="#adafaf"/>
  <rect x="8" y="12" width="1" height="1" fill="#abb0af"/>
  <rect x="9" y="12" width="1" height="1" fill="#a9aeac"/>
  <rect x="12" y="12" width="1" height="1" fill="#adb5b2"/>
  <rect x="14" y="12" width="1" height="1" fill="#979e9c"/>
  <rect x="16" y="12" width="1" height="1" fill="#b9bbba"/>
  <rect x="4" y="13" width="1" height="1" fill="#b2b2b2cb"/>
  <rect x="5" y="13" width="1" height="1" fill="#b2b2b2"/>
  <rect x="6" y="13" width="1" height="1" fill="#b1b3b2"/>
  <rect x="7" y="13" width="1" height="1" fill="#b3b5b4"/>
  <rect x="8" y="13" width="1" height="1" fill="#b4b8b7"/>
  <rect x="9" y="13" width="1" height="1" fill="#b0b5b3"/>
  <rect x="12" y="13" width="1" height="1" fill="#a2a9a7"/>
  <rect x="16" y="13" width="1" height="1" fill="#b3b5b4"/>
  <rect x="3" y="14" width="1" height="1" fill="#a7a6a756"/>
  <rect x="4" y="14" width="2" height="1" fill="#969696"/>
  <rect x="6" y="14" width="1" height="1" fill="#959796"/>
  <rect x="7" y="14" width="1" height="1" fill="#939695"/>
  <rect x="8" y="14" width="1" height="1" fill="#929795"/>
  <rect x="9" y="14" width="1" height="1" fill="#979b9a"/>
  <rect x="12" y="14" width="1" height="1" fill="#9fa7a4"/>
  <rect x="16" y="14" width="1" height="1" fill="#979999"/>
</svg>