<svg xmlns="http://www.w3.org/2000/svg" width="40" height="20" viewBox="0 0 40 20" shape-rendering="crispEdges">
  <rect x="4" y="0" width="1" height="1" fill="#a2a2a20b"/>
  <rect x="5" y="0" width="1" height="1" fill="#a2a2a229"/>
  <rect x="6" y="0" width="1" height="1" fill="#a2a2a23f"/>
  <rect x="7" y="0" width="2" height="1" fill="#a2a2a247"/>
  <rect x="9" y="0" width="1" height="1" fill="#a2a2a23f"/>
  <rect x="10" y="0" width="1" height="1" fill="#a2a2a22a"/>
  <rect x="11" y="0" width="1" height="1" fill="#a2a2a20c"/>
  <rect x="24" y="0" width="1" height="1" fill="#a0a2a415"/>
  <rect x="25" y="0" width="1" height="1" fill="#a0a3a24b"/>
  <rect x="26" y="0" width="1" height="1" fill="#a0a3a272"/>
  <rect x="27" y="0" width="2" height="1" fill="#a0a3a282"/>
  <rect x="29" y="0" width="1" height="1" fill="#a0a3a272"/>
  <rect x="30" y="0" width="1" height="1" fill="#a0a3a24c"/>
  <rect x="31" y="0" width="1" height="1" fill="#a0a3a217"/>
  <rect x="3" y="1" width="1" height="1" fill="#a1a1a12b"/>
  <rect x="4" y="1" width="1" height="1" fill="#a2a2a24c"/>
  <rect x="5" y="1" width="6" height="1" fill="#a2a2a24d"/>
  <rect x="11" y="1" width="1" height="1" fill="#a2a2a24c"/>
  <rect x="12" y="1" width="1" height="1" fill="#a1a1a12c"/>
  <rect x="23" y="1" width="1" height="1" fill="#9ea0a44d"/>
  <rect x="24" y="1" width="1" height="1" fill="#a0a2a48a"/>
  <rect x="25" y="1" width="6" height="1" fill="#a0a3a28c"/>
  <rect x="31" y="1" width="1" height="1" fill="#a0a3a28a"/>
  <rect x="32" y="1" width="1" height="1" fill="#9ea0a050"/>
  <rect x="2" y="2" width="1" height="1" fill="#a1a1a138"/>
  <rect x="3" y="2" width="1" height="1" fill="#a1a1a14d"/>
  <rect x="4" y="2" width="8" height="1" fill="#a2a2a24d"/>
  <rect x="12" y="2" width="1" height="1" fill="#a1a1a14d"/>
  <rect x="13" y="2" width="1" height="1" fill="#a1a1a13a"/>
  <rect x="22" y="2" width="1" height="1" fill="#9ea0a465"/>
  <rect x="23" y="2" width="1" height="1" fill="#9ea0a48c"/>
  <rect x="24" y="2" width="1" height="2" fill="#a0a2a48c"/>
  <rect x="25" y="2" width="7" height="1" fill="#a0a3a28c"/>
  <rect x="32" y="2" width="1" height="1" fill="#9ea0a08c"/>
  <rect x="33" y="2" width="1" height="1" fill="#9ea0a069"/>
  <rect x="1" y="3" width="1" height="1" fill="#a0a0a02c"/>
  <rect x="2" y="3" width="3" height="1" fill="#a1a1a14d"/>
  <rect x="5" y="3" width="1" height="1" fill="#a1a1a138"/>
  <rect x="6" y="3" width="1" height="1" fill="#a2a2a216"/>
  <rect x="9" y="3" width="1" height="1" fill="#a2a2a215"/>
  <rect x="10" y="3" width="1" height="1" fill="#a2a2a237"/>
  <rect x="11" y="3" width="2" height="1" fill="#a1a1a14d"/>
  <rect x="13" y="3" width="1" height="1" fill="#a0a0a04d"/>
  <rect x="14" y="3" width="1" height="1" fill="#a0a0a02d"/>
  <rect x="21" y="3" width="1" height="1" fill="#9ea0a450"/>
  <rect x="22" y="3" width="2" height="1" fill="#9ea0a48c"/>
  <rect x="25" y="3" width="1" height="1" fill="#a0a3a265"/>
  <rect x="26" y="3" width="1" height="1" fill="#a0a3a228"/>
  <rect x="27" y="3" width="2" height="1" fill="#a0a3a20a"/>
  <rect x="29" y="3" width="1" height="1" fill="#a0a3a226"/>
  <rect x="30" y="3" width="1" height="1" fill="#a0a3a264"/>
  <rect x="31" y="3" width="1" height="1" fill="#a0a3a28c"/>
  <rect x="32" y="3" width="2" height="1" fill="#9ea0a08c"/>
  <rect x="34" y="3" width="1" height="1" fill="#9ea0a052"/>
  <rect x="0" y="4" width="1" height="1" fill="#a0a0a00c"/>
  <rect x="1" y="4" width="1" height="1" fill="#a0a0a04c"/>
  <rect x="2" y="4" width="2" height="1" fill="#a0a0a04d"/>
  <rect x="4" y="4" width="1" height="1" fill="#a1a1a126"/>
  <rect x="11" y="4" width="1" height="1" fill="#a1a1a125"/>
  <rect x="12" y="4" width="2" height="1" fill="#a0a0a04d"/>
  <rect x="14" y="4" width="1" height="1" fill="#a0a0a04c"/>
  <rect x="15" y="4" width="1" height="1" fill="#a09fa20e"/>
  <rect x="20" y="4" width="1" height="1" fill="#a0a2a617"/>
  <rect x="21" y="4" width="1" height="1" fill="#a0a2a68a"/>
  <rect x="22" y="4" width="2" height="1" fill="#a0a2a68c"/>
  <rect x="24" y="4" width="1" height="1" fill="#9fa1a345"/>
  <rect x="31" y="4" width="1" height="1" fill="#9fa2a144"/>
  <rect x="32" y="4" width="2" height="1" fill="#9fa2a18c"/>
  <rect x="34" y="4" width="1" height="1" fill="#9fa2a18b"/>
  <rect x="35" y="4" width="1" height="1" fill="#9fa2a119"/>
  <rect x="0" y="5" width="1" height="1" fill="#9e9e9e2a"/>
  <rect x="1" y="5" width="1" height="2" fill="#9e9e9e4d"/>
  <rect x="2" y="5" width="1" height="2" fill="#a0a0a04d"/>
  <rect x="3" y="5" width="1" height="1" fill="#a0a0a037"/>
  <rect x="12" y="5" width="1" height="1" fill="#a0a0a036"/>
  <rect x="13" y="5" width="2" height="1" fill="#9e9e9e4d"/>
  <rect x="15" y="5" width="1" height="1" fill="#9e9ea02e"/>
  <rect x="20" y="5" width="1" height="1" fill="#9fa1a54d"/>
  <rect x="21" y="5" width="2" height="1" fill="#9fa1a58c"/>
  <rect x="23" y="5" width="1" height="1" fill="#9fa1a564"/>
  <rect x="32" y="5" width="1" height="1" fill="#9ea0a062"/>
  <rect x="33" y="5" width="2" height="1" fill="#9ea0a08c"/>
  <rect x="35" y="5" width="1" height="1" fill="#9ea0a053"/>
  <rect x="0" y="6" width="1" height="1" fill="#9e9e9e40"/>
  <rect x="3" y="6" width="1" height="1" fill="#a0a0a015"/>
  <rect x="12" y="6" width="1" height="1" fill="#9ea0a013"/>
  <rect x="13" y="6" width="2" height="1" fill="#9d9f9e4d"/>
  <rect x="15" y="6" width="1" height="1" fill="#9d9fa043"/>
  <rect x="20" y="6" width="1" height="1" fill="#9d9ea274"/>
  <rect x="21" y="6" width="2" height="1" fill="#9d9ea28c"/>
  <rect x="23" y="6" width="1" height="1" fill="#9d9ea225"/>
  <rect x="32" y="6" width="1" height="1" fill="#9c9e9d23"/>
  <rect x="33" y="6" width="2" height="1" fill="#9c9e9d8c"/>
  <rect x="35" y="6" width="1" height="1" fill="#9c9e9d79"/>
  <rect x="0" y="7" width="1" height="2" fill="#9d9d9d49"/>
  <rect x="1" y="7" width="1" height="1" fill="#9d9d9d4d"/>
  <rect x="2" y="7" width="1" height="1" fill="#9e9e9e4d"/>
  <rect x="13" y="7" width="2" height="1" fill="#9c9e9d4d"/>
  <rect x="15" y="7" width="1" height="1" fill="#9c9e9d4c"/>
  <rect x="20" y="7" width="1" height="1" fill="#9c9ba084"/>
  <rect x="21" y="7" width="2" height="1" fill="#9c9ba08c"/>
  <rect x="33" y="7" width="2" height="1" fill="#9c9c9c8c"/>
  <rect x="35" y="7" width="1" height="1" fill="#9c9c9c8b"/>
  <rect x="1" y="8" width="2" height="1" fill="#9d9d9d4d"/>
  <rect x="13" y="8" width="1" height="1" fill="#999e9c4d"/>
  <rect x="14" y="8" width="1" height="1" fill="#9a9f9d4d"/>
  <rect x="15" y="8" width="1" height="1" fill="#9c9e9d4b"/>
  <rect x="20" y="8" width="1" height="1" fill="#9c9a9d85"/>
  <rect x="21" y="8" width="2" height="1" fill="#9c9a9d8c"/>
  <rect x="33" y="8" width="2" height="3" fill="#9c9a9b8c"/>
  <rect x="35" y="8" width="1" height="1" fill="#9c9a9b88"/>
  <rect x="0" y="9" width="1" height="1" fill="#9c9c9c40"/>
  <rect x="1" y="9" width="2" height="2" fill="#9c9c9c4d"/>
  <rect x="3" y="9" width="1" height="1" fill="#9b9b9b14"/>
  <rect x="12" y="9" width="1" height="1" fill="#989c9b12"/>
  <rect x="13" y="9" width="1" height="1" fill="#989c9b4d"/>
  <rect x="14" y="9" width="1" height="1" fill="#999e9c4d"/>
  <rect x="15" y="9" width="1" height="1" fill="#9a9d9c42"/>
  <rect x="20" y="9" width="1" height="1" fill="#9c9a9b74"/>
  <rect x="21" y="9" width="2" height="2" fill="#9c9a9b8c"/>
  <rect x="23" y="9" width="1" height="1" fill="#9c9a9b24"/>
  <rect x="32" y="9" width="1" height="1" fill="#9c9a9b20"/>
  <rect x="35" y="9" width="1" height="1" fill="#9c9a9b78"/>
  <rect x="0" y="10" width="1" height="1" fill="#9c9c9c2b"/>
  <rect x="3" y="10" width="1" height="1" fill="#9b9b9b35"/>
  <rect x="12" y="10" width="1" height="1" fill="#969d9b33"/>
  <rect x="13" y="10" width="1" height="1" fill="#969d9b4d"/>
  <rect x="14" y="10" width="1" height="1" fill="#979e9c4d"/>
  <rect x="15" y="10" width="1" height="1" fill="#999e9c30"/>
  <rect x="20" y="10" width="1" height="1" fill="#9c9a9b4f"/>
  <rect x="23" y="10" width="1" height="1" fill="#9c9a9b61"/>
  <rect x="32" y="10" width="1" height="1" fill="#9c9a9b5d"/>
  <rect x="35" y="10" width="1" height="1" fill="#9c9a9b57"/>
  <rect x="0" y="11" width="1" height="1" fill="#9b9b9b0e"/>
  <rect x="1" y="11" width="1" height="1" fill="#9b9b9b4c"/>
  <rect x="2" y="11" width="2" height="1" fill="#9b9b9b4d"/>
  <rect x="4" y="11" width="1" height="1" fill="#9a9a9a23"/>
  <rect x="11" y="11" width="1" height="1" fill="#959c9a22"/>
  <rect x="12" y="11" width="3" height="1" fill="#969d9b4d"/>
  <rect x="15" y="11" width="1" height="1" fill="#989c9b23"/>
  <rect x="20" y="11" width="1" height="1" fill="#9c9a9b19"/>
  <rect x="21" y="11" width="1" height="1" fill="#9c9a9b8b"/>
  <rect x="22" y="11" width="2" height="1" fill="#9c9a9b8c"/>
  <rect x="24" y="11" width="1" height="1" fill="#99999940"/>
  <rect x="31" y="11" width="1" height="1" fill="#9999993d"/>
  <rect x="32" y="11" width="3" height="1" fill="#9c9a9b8c"/>
  <rect x="35" y="11" width="1" height="1" fill="#9c9a9b40"/>
  <rect x="1" y="12" width="1" height="1" fill="#9b9b9b2e"/>
  <rect x="2" y="12" width="1" height="1" fill="#9b9b9b4d"/>
  <rect x="3" y="12" width="2" height="1" fill="#9a9a9a4d"/>
  <rect x="5" y="12" width="1" height="1" fill="#99999935"/>
  <rect x="6" y="12" width="1" height="1" fill="#97999912"/>
  <rect x="9" y="12" width="1" height="1" fill="#97999912"/>
  <rect x="10" y="12" width="1" height="1" fill="#979b9a33"/>
  <rect x="11" y="12" width="3" height="1" fill="#979b9a4d"/>
  <rect x="14" y="12" width="1" height="1" fill="#989c9b4d"/>
  <rect x="15" y="12" width="1" height="1" fill="#999c9b4c"/>
  <rect x="16" y="12" width="1" height="1" fill="#9a9a9a1a"/>
  <rect x="21" y="12" width="1" height="1" fill="#9b999a53"/>
  <rect x="22" y="12" width="2" height="1" fill="#9b999a8c"/>
  <rect x="24" y="12" width="1" height="2" fill="#9999998c"/>
  <rect x="25" y="12" width="1" height="1" fill="#97999960"/>
  <rect x="26" y="12" width="1" height="1" fill="#97999921"/>
  <rect x="29" y="12" width="1" height="1" fill="#97999920"/>
  <rect x="30" y="12" width="1" height="1" fill="#9799995d"/>
  <rect x="31" y="12" width="1" height="3" fill="#9999998c"/>
  <rect x="32" y="12" width="3" height="1" fill="#9b999a8c"/>
  <rect x="35" y="12" width="1" height="1" fill="#9b999a8a"/>
  <rect x="36" y="12" width="1" height="1" fill="#9b999a30"/>
  <rect x="2" y="13" width="1" height="1" fill="#9a9a9a3a"/>
  <rect x="3" y="13" width="1" height="1" fill="#9a9a9a4d"/>
  <rect x="4" y="13" width="2" height="2" fill="#9999994d"/>
  <rect x="6" y="13" width="4" height="1" fill="#9799994d"/>
  <rect x="10" y="13" width="2" height="1" fill="#959a994d"/>
  <rect x="12" y="13" width="3" height="1" fill="#979b9a4d"/>
  <rect x="15" y="13" width="1" height="1" fill="#989b9a4d"/>
  <rect x="16" y="13" width="1" height="1" fill="#9a9a9a4c"/>
  <rect x="17" y="13" width="1" height="1" fill="#9b999a1a"/>
  <rect x="22" y="13" width="1" height="1" fill="#9b999a6a"/>
  <rect x="23" y="13" width="1" height="1" fill="#9b999a8c"/>
  <rect x="25" y="13" width="6" height="2" fill="#9799998c"/>
  <rect x="32" y="13" width="4" height="1" fill="#9b999a8c"/>
  <rect x="36" y="13" width="1" height="1" fill="#9b999a8a"/>
  <rect x="37" y="13" width="1" height="1" fill="#9b999a30"/>
  <rect x="3" y="14" width="1" height="1" fill="#9a9a9a2f"/>
  <rect x="6" y="14" width="2" height="1" fill="#9799994d"/>
  <rect x="8" y="14" width="2" height="1" fill="#9698974d"/>
  <rect x="10" y="14" width="2" height="1" fill="#9499974d"/>
  <rect x="12" y="14" width="1" height="1" fill="#959a9937"/>
  <rect x="13" y="14" width="1" height="1" fill="#959a994c"/>
  <rect x="14" y="14" width="1" height="1" fill="#959a994d"/>
  <rect x="15" y="14" width="1" height="2" fill="#9799994d"/>
  <rect x="16" y="14" width="1" height="2" fill="#9999994d"/>
  <rect x="17" y="14" width="1" height="1" fill="#9a98994c"/>
  <rect x="18" y="14" width="1" height="1" fill="#9a989919"/>
  <rect x="23" y="14" width="1" height="1" fill="#9a989955"/>
  <rect x="24" y="14" width="1" height="1" fill="#9999998b"/>
  <rect x="32" y="14" width="1" height="1" fill="#9a989963"/>
  <rect x="33" y="14" width="1" height="1" fill="#9a98998a"/>
  <rect x="34" y="14" width="3" height="1" fill="#9a98998c"/>
  <rect x="37" y="14" width="1" height="1" fill="#9a98998a"/>
  <rect x="38" y="14" width="1" height="1" fill="#9a98992e"/>
  <rect x="4" y="15" width="1" height="1" fill="#9999990f"/>
  <rect x="5" y="15" width="1" height="1" fill="#9999992f"/>
  <rect x="6" y="15" width="1" height="1" fill="#97999943"/>
  <rect x="7" y="15" width="1" height="1" fill="#9799994c"/>
  <rect x="8" y="15" width="1" height="1" fill="#9698974b"/>
  <rect x="9" y="15" width="1" height="1" fill="#96989743"/>
  <rect x="10" y="15" width="1" height="1" fill="#94999730"/>
  <rect x="11" y="15" width="1" height="1" fill="#94999710"/>
  <rect x="13" y="15" width="1" height="1" fill="#959a991a"/>
  <rect x="14" y="15" width="1" height="1" fill="#959a994c"/>
  <rect x="17" y="15" width="1" height="1" fill="#9a98994d"/>
  <rect x="18" y="15" width="1" height="1" fill="#9a989949"/>
  <rect x="24" y="15" width="1" height="1" fill="#9999991c"/>
  <rect x="25" y="15" width="1" height="1" fill="#97999956"/>
  <rect x="26" y="15" width="1" height="1" fill="#97999979"/>
  <rect x="27" y="15" width="1" height="1" fill="#9799998b"/>
  <rect x="28" y="15" width="1" height="1" fill="#97999988"/>
  <rect x="29" y="15" width="1" height="1" fill="#97999979"/>
  <rect x="30" y="15" width="1" height="1" fill="#97999957"/>
  <rect x="31" y="15" width="1" height="1" fill="#9999991e"/>
  <rect x="33" y="15" width="1" height="1" fill="#9a989930"/>
  <rect x="34" y="15" width="1" height="1" fill="#9a98998a"/>
  <rect x="35" y="15" width="3" height="1" fill="#9a98998c"/>
  <rect x="38" y="15" width="1" height="1" fill="#9a989985"/>
  <rect x="14" y="16" width="1" height="1" fill="#9698971a"/>
  <rect x="15" y="16" width="1" height="1" fill="#9698974c"/>
  <rect x="16" y="16" width="2" height="1" fill="#9999994d"/>
  <rect x="18" y="16" width="1" height="1" fill="#9797974c"/>
  <rect x="34" y="16" width="1" height="1" fill="#97979730"/>
  <rect x="35" y="16" width="1" height="1" fill="#9797978a"/>
  <rect x="36" y="16" width="2" height="1" fill="#9797978c"/>
  <rect x="38" y="16" width="1" height="1" fill="#9797978b"/>
  <rect x="15" y="17" width="1" height="1" fill="#96989719"/>
  <rect x="16" y="17" width="1" height="1" fill="#99999949"/>
  <rect x="17" y="17" width="1" height="1" fill="#9999994c"/>
  <rect x="18" y="17" width="1" height="1" fill="#97979725"/>
  <rect x="35" y="17" width="1" height="1" fill="#9797972e"/>
  <rect x="36" y="17" width="1" height="1" fill="#97979784"/>
  <rect x="37" y="17" width="1" height="1" fill="#9797978b"/>
  <rect x="38" y="17" width="1" height="1" fill="#97979743"/>
  <rect x="37" y="18" width="1" height="1" fill="#9696960a"/>
</svg>