<svg xmlns="http://www.w3.org/2000/svg" width="32" height="16" viewBox="0 0 32 16" shape-rendering="crispEdges">
  <rect x="8" y="1" width="1" height="1" fill="#68ac2f"/>
  <rect x="24" y="1" width="1" height="1" fill="#b7b6b9"/>
  <rect x="7" y="2" width="1" height="1" fill="#669632"/>
  <rect x="8" y="2" width="1" height="1" fill="#c1f38e"/>
  <rect x="9" y="2" width="1" height="1" fill="#68a037"/>
  <rect x="23" y="2" width="1" height="1" fill="#b3b0b1"/>
  <rect x="24" y="2" width="1" height="1" fill="#fefdff"/>
  <rect x="25" y="2" width="1" height="1" fill="#b4b6b8"/>
  <rect x="6" y="3" width="1" height="1" fill="#72994e"/>
  <rect x="7" y="3" width="1" height="1" fill="#bbe889"/>
  <rect x="8" y="3" width="1" height="1" fill="#b1df7b"/>
  <rect x="9" y="3" width="1" height="1" fill="#c1f888"/>
  <rect x="10" y="3" width="1" height="1" fill="#599e1b"/>
  <rect x="22" y="3" width="1" height="1" fill="#afadab"/>
  <rect x="23" y="3" width="1" height="3" fill="#fffdfe"/>
  <rect x="24" y="3" width="1" height="2" fill="#ffffff"/>
  <rect x="25" y="3" width="1" height="1" fill="#fdffff"/>
  <rect x="26" y="3" width="1" height="1" fill="#b2b4b5"/>
  <rect x="5" y="4" width="1" height="1" fill="#6b9341"/>
  <rect x="6" y="4" width="1" height="1" fill="#b9e785"/>
  <rect x="7" y="4" width="1" height="1" fill="#b3e577"/>
  <rect x="8" y="4" width="1" height="1" fill="#abe06a"/>
  <rect x="9" y="4" width="1" height="1" fill="#a4d961"/>
  <rect x="10" y="4" width="1" height="1" fill="#c4fb86"/>
  <rect x="11" y="4" width="1" height="1" fill="#609c28"/>
  <rect x="21" y="4" width="1" height="1" fill="#b1afae"/>
  <rect x="22" y="4" width="1" height="1" fill="#fffffe"/>
  <rect x="25" y="4" width="1" height="1" fill="#fafcfe"/>
  <rect x="26" y="4" width="1" height="1" fill="#fdffff"/>
  <rect x="27" y="4" width="1" height="1" fill="#b6b8ba"/>
  <rect x="4" y="5" width="1" height="1" fill="#64923c"/>
  <rect x="5" y="5" width="1" height="1" fill="#bdf088"/>
  <rect x="6" y="5" width="1" height="1" fill="#b2e677"/>
  <rect x="7" y="5" width="1" height="1" fill="#a5da64"/>
  <rect x="8" y="5" width="1" height="1" fill="#a4de5d"/>
  <rect x="9" y="5" width="1" height="1" fill="#ace665"/>
  <rect x="10" y="5" width="1" height="1" fill="#a9df69"/>
  <rect x="11" y="5" width="1" height="1" fill="#c3fa85"/>
  <rect x="12" y="5" width="1" height="1" fill="#5ba020"/>
  <rect x="20" y="5" width="1" height="1" fill="#b1afae"/>
  <rect x="21" y="5" width="1" height="1" fill="#fffffe"/>
  <rect x="22" y="5" width="1" height="1" fill="#fcfaf8"/>
  <rect x="24" y="5" width="4" height="1" fill="#ffffff"/>
  <rect x="28" y="5" width="1" height="1" fill="#b4b6b8"/>
  <rect x="3" y="6" width="1" height="1" fill="#659830"/>
  <rect x="4" y="6" width="1" height="1" fill="#afe885"/>
  <rect x="5" y="6" width="1" height="1" fill="#b5ef87"/>
  <rect x="6" y="6" width="1" height="1" fill="#bcf37e"/>
  <rect x="7" y="6" width="1" height="1" fill="#aee768"/>
  <rect x="8" y="6" width="1" height="1" fill="#a7e563"/>
  <rect x="9" y="6" width="1" height="1" fill="#9ad954"/>
  <rect x="10" y="6" width="1" height="1" fill="#b7f070"/>
  <rect x="11" y="6" width="1" height="1" fill="#bdf37a"/>
  <rect x="12" y="6" width="1" height="1" fill="#bff387"/>
  <rect x="13" y="6" width="1" height="1" fill="#70a53f"/>
  <rect x="19" y="6" width="1" height="1" fill="#afadab"/>
  <rect x="20" y="6" width="1" height="1" fill="#ffffff"/>
  <rect x="21" y="6" width="1" height="1" fill="#fcfaf8"/>
  <rect x="22" y="6" width="1" height="1" fill="#fffdfc"/>
  <rect x="23" y="6" width="3" height="1" fill="#ffffff"/>
  <rect x="26" y="6" width="1" height="1" fill="#f9fbfc"/>
  <rect x="27" y="6" width="1" height="1" fill="#fcfeff"/>
  <rect x="28" y="6" width="1" height="1" fill="#fafcfe"/>
  <rect x="29" y="6" width="1" height="1" fill="#afb1b3"/>
  <rect x="2" y="7" width="1" height="1" fill="#6e9040"/>
  <rect x="3" y="7" width="1" height="1" fill="#6d9e37"/>
  <rect x="4" y="7" width="1" height="1" fill="#69a53e"/>
  <rect x="5" y="7" width="1" height="1" fill="#64a337"/>
  <rect x="6" y="7" width="1" height="1" fill="#c4fe89"/>
  <rect x="7" y="7" width="1" height="1" fill="#a7e266"/>
  <rect x="8" y="7" width="1" height="1" fill="#a2e261"/>
  <rect x="9" y="7" width="1" height="1" fill="#a4e562"/>
  <rect x="10" y="7" width="1" height="1" fill="#bbf975"/>
  <rect x="11" y="7" width="1" height="1" fill="#689d29"/>
  <rect x="12" y="7" width="1" height="1" fill="#7b9f4cf6"/>
  <rect x="13" y="7" width="1" height="1" fill="#7aa053"/>
  <rect x="14" y="7" width="1" height="1" fill="#619838"/>
  <rect x="18" y="7" width="1" height="1" fill="#afadad"/>
  <rect x="19" y="7" width="1" height="1" fill="#aeacac"/>
  <rect x="20" y="7" width="1" height="1" fill="#b4b1b2"/>
  <rect x="21" y="7" width="1" height="1" fill="#b0aeaf"/>
  <rect x="22" y="7" width="2" height="5" fill="#ffffff"/>
  <rect x="24" y="7" width="1" height="1" fill="#fdfdfd"/>
  <rect x="25" y="7" width="2" height="1" fill="#ffffff"/>
  <rect x="27" y="7" width="1" height="1" fill="#b2b2b4"/>
  <rect x="28" y="7" width="1" height="1" fill="#adadb0f6"/>
  <rect x="29" y="7" width="1" height="1" fill="#aaaaac"/>
  <rect x="30" y="7" width="1" height="1" fill="#ababad"/>
  <rect x="5" y="8" width="1" height="1" fill="#67a734"/>
  <rect x="6" y="8" width="1" height="1" fill="#c4ff8c"/>
  <rect x="7" y="8" width="1" height="1" fill="#a8e26d"/>
  <rect x="8" y="8" width="1" height="1" fill="#9fde65"/>
  <rect x="9" y="8" width="1" height="1" fill="#a2e165"/>
  <rect x="10" y="8" width="1" height="1" fill="#b5f778"/>
  <rect x="11" y="8" width="1" height="1" fill="#669931"/>
  <rect x="21" y="8" width="1" height="1" fill="#b8b8ba"/>
  <rect x="24" y="8" width="1" height="1" fill="#fefefe"/>
  <rect x="25" y="8" width="1" height="1" fill="#ffffff"/>
  <rect x="26" y="8" width="1" height="1" fill="#fffeff"/>
  <rect x="27" y="8" width="1" height="1" fill="#afadad"/>
  <rect x="5" y="9" width="1" height="3" fill="#67a832"/>
  <rect x="6" y="9" width="1" height="1" fill="#c4ff8e"/>
  <rect x="7" y="9" width="1" height="3" fill="#a7e271"/>
  <rect x="8" y="9" width="1" height="3" fill="#9fde69"/>
  <rect x="9" y="9" width="1" height="3" fill="#a2e167"/>
  <rect x="10" y="9" width="1" height="3" fill="#b5f77a"/>
  <rect x="11" y="9" width="1" height="3" fill="#669837"/>
  <rect x="21" y="9" width="1" height="3" fill="#b6b8ba"/>
  <rect x="24" y="9" width="1" height="3" fill="#fffdfe"/>
  <rect x="25" y="9" width="1" height="3" fill="#fffffe"/>
  <rect x="26" y="9" width="1" height="3" fill="#fffffd"/>
  <rect x="27" y="9" width="1" height="3" fill="#afadab"/>
  <rect x="6" y="10" width="1" height="2" fill="#c2ff8e"/>
  <rect x="5" y="12" width="1" height="1" fill="#60a12b"/>
  <rect x="6" y="12" width="1" height="1" fill="#c0fe8c"/>
  <rect x="7" y="12" width="1" height="1" fill="#9ddb69"/>
  <rect x="8" y="12" width="1" height="1" fill="#9ad863"/>
  <rect x="9" y="12" width="1" height="1" fill="#aae970"/>
  <rect x="10" y="12" width="1" height="1" fill="#b1f276"/>
  <rect x="11" y="12" width="1" height="1" fill="#6d9f3e"/>
  <rect x="21" y="12" width="1" height="1" fill="#b5b7b9"/>
  <rect x="22" y="12" width="1" height="1" fill="#fafcfe"/>
  <rect x="23" y="12" width="2" height="1" fill="#ffffff"/>
  <rect x="25" y="12" width="1" height="2" fill="#fffdfc"/>
  <rect x="26" y="12" width="1" height="1" fill="#fdfbf9"/>
  <rect x="27" y="12" width="1" height="2" fill="#aeacaa"/>
  <rect x="5" y="13" width="1" height="1" fill="#65a530"/>
  <rect x="6" y="13" width="2" height="1" fill="#cbff96"/>
  <rect x="8" y="13" width="1" height="1" fill="#c4ff8d"/>
  <rect x="9" y="13" width="1" height="1" fill="#befd83"/>
  <rect x="10" y="13" width="1" height="1" fill="#bdff82"/>
  <rect x="11" y="13" width="1" height="1" fill="#5f9130"/>
  <rect x="21" y="13" width="1" height="1" fill="#b8babb"/>
  <rect x="22" y="13" width="1" height="1" fill="#fcfeff"/>
  <rect x="23" y="13" width="1" height="1" fill="#fdfcff"/>
  <rect x="24" y="13" width="1" height="1" fill="#fefcfd"/>
  <rect x="26" y="13" width="1" height="1" fill="#fffffd"/>
  <rect x="5" y="14" width="1" height="1" fill="#589923"/>
  <rect x="6" y="14" width="1" height="1" fill="#63a12f"/>
  <rect x="7" y="14" width="1" height="1" fill="#5d9b29"/>
  <rect x="8" y="14" width="1" height="1" fill="#5f9e29"/>
  <rect x="9" y="14" width="1" height="1" fill="#66a52c"/>
  <rect x="10" y="14" width="1" height="1" fill="#5fa124"/>
  <rect x="11" y="14" width="1" height="1" fill="#659636"/>
  <rect x="21" y="14" width="1" height="1" fill="#aaacad"/>
  <rect x="22" y="14" width="1" height="1" fill="#acaeb0"/>
  <rect x="23" y="14" width="1" height="1" fill="#acacae"/>
  <rect x="24" y="14" width="1" height="1" fill="#aeacac"/>
  <rect x="25" y="14" width="1" height="1" fill="#aaa8a7"/>
  <rect x="26" y="14" width="1" height="1" fill="#adaba9"/>
  <rect x="27" y="14" width="1" height="1" fill="#acaaa8"/>
</svg>