<svg xmlns="http://www.w3.org/2000/svg" width="32" height="16" viewBox="0 0 32 16" shape-rendering="crispEdges">
  <rect x="1" y="1" width="1" height="1" fill="#edb126"/>
  <rect x="2" y="1" width="1" height="1" fill="#dc9e11"/>
  <rect x="3" y="1" width="1" height="1" fill="#d6990c"/>
  <rect x="4" y="1" width="1" height="1" fill="#dea217"/>
  <rect x="5" y="1" width="1" height="1" fill="#d99c0f"/>
  <rect x="7" y="1" width="1" height="1" fill="#eaab1a"/>
  <rect x="8" y="1" width="1" height="1" fill="#dd9e0f"/>
  <rect x="9" y="1" width="1" height="1" fill="#dd9e11"/>
  <rect x="10" y="1" width="1" height="1" fill="#df9d0f"/>
  <rect x="11" y="1" width="1" height="1" fill="#e19c0f"/>
  <rect x="12" y="1" width="1" height="1" fill="#e29e11"/>
  <rect x="13" y="1" width="1" height="1" fill="#e5a114"/>
  <rect x="14" y="1" width="1" height="1" fill="#d89407"/>
  <rect x="17" y="1" width="1" height="1" fill="#bfbdc0"/>
  <rect x="18" y="1" width="1" height="1" fill="#bebbbf"/>
  <rect x="19" y="1" width="1" height="1" fill="#bdbabd"/>
  <rect x="20" y="1" width="1" height="1" fill="#c2bfc2"/>
  <rect x="21" y="1" width="1" height="2" fill="#c1bec1"/>
  <rect x="23" y="1" width="1" height="1" fill="#c5c2c6"/>
  <rect x="24" y="1" width="1" height="1" fill="#bfbfbf"/>
  <rect x="25" y="1" width="3" height="1" fill="#bdc0bd"/>
  <rect x="28" y="1" width="1" height="1" fill="#c1c4c0"/>
  <rect x="29" y="1" width="1" height="1" fill="#c2c5c2"/>
  <rect x="30" y="1" width="1" height="2" fill="#bcbfbc"/>
  <rect x="1" y="2" width="1" height="1" fill="#d4a11a"/>
  <rect x="2" y="2" width="1" height="1" fill="#ffef6b"/>
  <rect x="3" y="2" width="1" height="1" fill="#ffda58"/>
  <rect x="4" y="2" width="1" height="1" fill="#fffc75"/>
  <rect x="5" y="2" width="1" height="1" fill="#e1aa22"/>
  <rect x="7" y="2" width="1" height="1" fill="#e7a71d"/>
  <rect x="8" y="2" width="1" height="1" fill="#ffef6e"/>
  <rect x="9" y="2" width="2" height="1" fill="#fff072"/>
  <rect x="11" y="2" width="1" height="1" fill="#ffef72"/>
  <rect x="12" y="2" width="1" height="1" fill="#ffe86b"/>
  <rect x="13" y="2" width="1" height="1" fill="#ffeb6e"/>
  <rect x="14" y="2" width="1" height="1" fill="#d8a124"/>
  <rect x="17" y="2" width="1" height="1" fill="#bbb8bb"/>
  <rect x="18" y="2" width="1" height="3" fill="#ffffff"/>
  <rect x="19" y="2" width="2" height="1" fill="#fffdff"/>
  <rect x="23" y="2" width="1" height="1" fill="#c4c1c4"/>
  <rect x="24" y="2" width="1" height="1" fill="#ffffff"/>
  <rect x="25" y="2" width="5" height="1" fill="#fdfffd"/>
  <rect x="1" y="3" width="1" height="1" fill="#d6a51d"/>
  <rect x="2" y="3" width="1" height="1" fill="#ffe662"/>
  <rect x="3" y="3" width="1" height="1" fill="#eccd4a"/>
  <rect x="4" y="3" width="1" height="1" fill="#ffda56"/>
  <rect x="5" y="3" width="1" height="1" fill="#d2a223"/>
  <rect x="7" y="3" width="1" height="1" fill="#cda137"/>
  <rect x="8" y="3" width="1" height="1" fill="#c5a042"/>
  <rect x="9" y="3" width="2" height="1" fill="#c2a148"/>
  <rect x="11" y="3" width="1" height="1" fill="#c3a249"/>
  <rect x="12" y="3" width="1" height="1" fill="#c2a148"/>
  <rect x="13" y="3" width="1" height="1" fill="#be9c43"/>
  <rect x="14" y="3" width="1" height="1" fill="#c3a249"/>
  <rect x="17" y="3" width="1" height="2" fill="#bfbdc0"/>
  <rect x="19" y="3" width="1" height="1" fill="#e3e1e4"/>
  <rect x="20" y="3" width="1" height="1" fill="#fffeff"/>
  <rect x="21" y="3" width="1" height="1" fill="#bdbabd"/>
  <rect x="23" y="3" width="1" height="1" fill="#c1bec1"/>
  <rect x="24" y="3" width="1" height="1" fill="#bfbfbf"/>
  <rect x="25" y="3" width="3" height="1" fill="#bdc0bd"/>
  <rect x="28" y="3" width="1" height="1" fill="#babdb9"/>
  <rect x="29" y="3" width="1" height="1" fill="#bfc1be"/>
  <rect x="30" y="3" width="1" height="1" fill="#bdc0bd"/>
  <rect x="1" y="4" width="1" height="1" fill="#d3a112"/>
  <rect x="2" y="4" width="1" height="1" fill="#fff163"/>
  <rect x="3" y="4" width="1" height="1" fill="#f6d447"/>
  <rect x="4" y="4" width="1" height="1" fill="#ffee63"/>
  <rect x="5" y="4" width="1" height="1" fill="#ccab37"/>
  <rect x="19" y="4" width="1" height="1" fill="#e5e2e5"/>
  <rect x="20" y="4" width="1" height="1" fill="#ffffff"/>
  <rect x="21" y="4" width="1" height="1" fill="#c1bec1"/>
  <rect x="1" y="5" width="1" height="1" fill="#d1a212"/>
  <rect x="2" y="5" width="1" height="1" fill="#fff465"/>
  <rect x="3" y="5" width="1" height="1" fill="#f0d749"/>
  <rect x="4" y="5" width="1" height="1" fill="#f7d54a"/>
  <rect x="5" y="5" width="1" height="1" fill="#c3a93b"/>
  <rect x="11" y="5" width="1" height="1" fill="#525755"/>
  <rect x="17" y="5" width="1" height="1" fill="#bdbabd"/>
  <rect x="18" y="5" width="1" height="1" fill="#fffdff"/>
  <rect x="19" y="5" width="1" height="1" fill="#e1dee2"/>
  <rect x="20" y="5" width="1" height="1" fill="#fefbff"/>
  <rect x="21" y="5" width="1" height="1" fill="#bdbabd"/>
  <rect x="27" y="5" width="1" height="1" fill="#b4b7b4"/>
  <rect x="1" y="6" width="1" height="1" fill="#cda518"/>
  <rect x="2" y="6" width="1" height="1" fill="#fff971"/>
  <rect x="3" y="6" width="1" height="1" fill="#e0da56"/>
  <rect x="4" y="6" width="1" height="1" fill="#ffff79"/>
  <rect x="5" y="6" width="1" height="1" fill="#c5b045"/>
  <rect x="10" y="6" width="1" height="1" fill="#4c4f4c"/>
  <rect x="11" y="6" width="1" height="1" fill="#565955"/>
  <rect x="12" y="6" width="1" height="1" fill="#5a5d5a"/>
  <rect x="17" y="6" width="1" height="2" fill="#bfbdc0"/>
  <rect x="18" y="6" width="1" height="3" fill="#ffffff"/>
  <rect x="19" y="6" width="1" height="1" fill="#e3e1e4"/>
  <rect x="20" y="6" width="1" height="1" fill="#fffeff"/>
  <rect x="21" y="6" width="1" height="1" fill="#bfbdc0"/>
  <rect x="26" y="6" width="1" height="1" fill="#b3b6b2"/>
  <rect x="27" y="6" width="1" height="1" fill="#afb2af"/>
  <rect x="28" y="6" width="1" height="1" fill="#b6b9b6"/>
  <rect x="1" y="7" width="1" height="1" fill="#caa61a"/>
  <rect x="2" y="7" width="1" height="1" fill="#fdfa72"/>
  <rect x="3" y="7" width="1" height="1" fill="#d9dc57"/>
  <rect x="4" y="7" width="1" height="1" fill="#f6e560"/>
  <rect x="5" y="7" width="1" height="1" fill="#bfac43"/>
  <rect x="9" y="7" width="1" height="1" fill="#555553"/>
  <rect x="10" y="7" width="1" height="1" fill="#575855"/>
  <rect x="11" y="7" width="1" height="1" fill="#5b5b59"/>
  <rect x="12" y="7" width="1" height="1" fill="#4e4e4c"/>
  <rect x="13" y="7" width="1" height="1" fill="#5c5c5a"/>
  <rect x="19" y="7" width="1" height="1" fill="#e5e2e5"/>
  <rect x="20" y="7" width="1" height="2" fill="#ffffff"/>
  <rect x="21" y="7" width="1" height="1" fill="#c1bec1"/>
  <rect x="25" y="7" width="1" height="1" fill="#b2b2b2"/>
  <rect x="26" y="7" width="1" height="1" fill="#b1b1b1"/>
  <rect x="27" y="7" width="1" height="1" fill="#b3b3b3"/>
  <rect x="28" y="7" width="1" height="1" fill="#afafaf"/>
  <rect x="29" y="7" width="1" height="1" fill="#b8b8b8"/>
  <rect x="1" y="8" width="1" height="1" fill="#cca615"/>
  <rect x="2" y="8" width="1" height="1" fill="#fff968"/>
  <rect x="3" y="8" width="1" height="1" fill="#dcda4c"/>
  <rect x="4" y="8" width="1" height="1" fill="#fff26a"/>
  <rect x="5" y="8" width="1" height="1" fill="#bea842"/>
  <rect x="11" y="8" width="1" height="3" fill="#545454"/>
  <rect x="17" y="8" width="1" height="1" fill="#bdbdbd"/>
  <rect x="19" y="8" width="1" height="1" fill="#e2e2e2"/>
  <rect x="21" y="8" width="1" height="1" fill="#c0c0c0"/>
  <rect x="27" y="8" width="1" height="3" fill="#b6b3b6"/>
  <rect x="1" y="9" width="1" height="1" fill="#cda611"/>
  <rect x="2" y="9" width="1" height="1" fill="#fff761"/>
  <rect x="3" y="9" width="1" height="1" fill="#e0d846"/>
  <rect x="4" y="9" width="1" height="1" fill="#f0d64d"/>
  <rect x="5" y="9" width="1" height="1" fill="#bea33f"/>
  <rect x="17" y="9" width="1" height="3" fill="#babdb9"/>
  <rect x="18" y="9" width="1" height="3" fill="#fcfffc"/>
  <rect x="19" y="9" width="1" height="3" fill="#dfe2df"/>
  <rect x="20" y="9" width="1" height="3" fill="#fffffe"/>
  <rect x="21" y="9" width="1" height="4" fill="#bdc0bd"/>
  <rect x="1" y="10" width="1" height="1" fill="#d2a513"/>
  <rect x="2" y="10" width="1" height="1" fill="#fff561"/>
  <rect x="3" y="10" width="1" height="1" fill="#e5d343"/>
  <rect x="4" y="10" width="1" height="1" fill="#fffa71"/>
  <rect x="5" y="10" width="1" height="1" fill="#c7a743"/>
  <rect x="1" y="11" width="1" height="1" fill="#d3a413"/>
  <rect x="2" y="11" width="1" height="1" fill="#fff261"/>
  <rect x="3" y="11" width="1" height="1" fill="#ebd043"/>
  <rect x="4" y="11" width="1" height="1" fill="#ffdc57"/>
  <rect x="5" y="11" width="1" height="1" fill="#c9a03e"/>
  <rect x="1" y="12" width="1" height="1" fill="#d9a515"/>
  <rect x="2" y="12" width="1" height="1" fill="#ffe95b"/>
  <rect x="3" y="12" width="1" height="1" fill="#f7d047"/>
  <rect x="4" y="12" width="1" height="1" fill="#ffea69"/>
  <rect x="5" y="12" width="1" height="1" fill="#cf9c3e"/>
  <rect x="17" y="12" width="1" height="1" fill="#c1c4c0"/>
  <rect x="18" y="12" width="1" height="1" fill="#fffffe"/>
  <rect x="19" y="12" width="1" height="1" fill="#dde0dc"/>
  <rect x="20" y="12" width="1" height="1" fill="#fafdf9"/>
  <rect x="1" y="13" width="1" height="1" fill="#cf9909"/>
  <rect x="2" y="13" width="1" height="1" fill="#ffe95d"/>
  <rect x="3" y="13" width="1" height="1" fill="#ffe660"/>
  <rect x="4" y="13" width="1" height="1" fill="#ffe062"/>
  <rect x="5" y="13" width="1" height="1" fill="#dba145"/>
  <rect x="17" y="13" width="1" height="1" fill="#bcbfbc"/>
  <rect x="18" y="13" width="1" height="1" fill="#ffffff"/>
  <rect x="19" y="13" width="2" height="1" fill="#fcfffc"/>
  <rect x="21" y="13" width="1" height="1" fill="#bcbfbc"/>
  <rect x="1" y="14" width="1" height="1" fill="#e2a91b"/>
  <rect x="2" y="14" width="1" height="1" fill="#cf9d13"/>
  <rect x="3" y="14" width="1" height="1" fill="#e1a624"/>
  <rect x="4" y="14" width="1" height="1" fill="#efa429"/>
  <rect x="5" y="14" width="1" height="1" fill="#d99b40"/>
  <rect x="17" y="14" width="1" height="1" fill="#bdc0bd"/>
  <rect x="18" y="14" width="1" height="1" fill="#b8bab7"/>
  <rect x="19" y="14" width="1" height="1" fill="#babdb9"/>
  <rect x="20" y="14" width="2" height="1" fill="#bbbebb"/>
</svg>