<svg xmlns="http://www.w3.org/2000/svg" width="32" height="16" viewBox="0 0 32 16" shape-rendering="crispEdges">
  <rect x="1" y="1" width="1" height="1" fill="#e5af1f"/>
  <rect x="2" y="1" width="1" height="1" fill="#cf9d13"/>
  <rect x="3" y="1" width="1" height="1" fill="#d79d1a"/>
  <rect x="4" y="1" width="1" height="1" fill="#e69a20"/>
  <rect x="5" y="1" width="1" height="1" fill="#da9c41"/>
  <rect x="17" y="1" width="1" height="1" fill="#bdbfc1"/>
  <rect x="18" y="1" width="1" height="1" fill="#babcbd"/>
  <rect x="19" y="1" width="1" height="1" fill="#bcbec0"/>
  <rect x="20" y="1" width="1" height="1" fill="#bfc1c2"/>
  <rect x="21" y="1" width="1" height="1" fill="#b8babb"/>
  <rect x="1" y="2" width="1" height="1" fill="#d19d0d"/>
  <rect x="2" y="2" width="1" height="1" fill="#ffea5f"/>
  <rect x="3" y="2" width="1" height="1" fill="#ffdd57"/>
  <rect x="4" y="2" width="1" height="1" fill="#ffdc5f"/>
  <rect x="5" y="2" width="1" height="1" fill="#d59b3f"/>
  <rect x="17" y="2" width="1" height="1" fill="#b9bbbc"/>
  <rect x="18" y="2" width="2" height="1" fill="#ffffff"/>
  <rect x="20" y="2" width="1" height="2" fill="#fcfeff"/>
  <rect x="21" y="2" width="1" height="2" fill="#bcbec0"/>
  <rect x="1" y="3" width="1" height="1" fill="#d3a110"/>
  <rect x="2" y="3" width="1" height="1" fill="#ffe253"/>
  <rect x="3" y="3" width="1" height="1" fill="#f7d047"/>
  <rect x="4" y="3" width="1" height="1" fill="#ffea69"/>
  <rect x="5" y="3" width="1" height="1" fill="#d2a243"/>
  <rect x="17" y="3" width="1" height="1" fill="#babcbd"/>
  <rect x="18" y="3" width="1" height="1" fill="#fdffff"/>
  <rect x="19" y="3" width="1" height="1" fill="#dee0e2"/>
  <rect x="1" y="4" width="1" height="1" fill="#d3a413"/>
  <rect x="2" y="4" width="1" height="1" fill="#fff261"/>
  <rect x="3" y="4" width="1" height="1" fill="#ebd043"/>
  <rect x="4" y="4" width="1" height="1" fill="#ffdf5a"/>
  <rect x="5" y="4" width="1" height="1" fill="#c59c3a"/>
  <rect x="17" y="4" width="1" height="3" fill="#bcbec0"/>
  <rect x="18" y="4" width="1" height="4" fill="#ffffff"/>
  <rect x="19" y="4" width="1" height="3" fill="#e0e2e4"/>
  <rect x="20" y="4" width="1" height="4" fill="#ffffff"/>
  <rect x="21" y="4" width="1" height="3" fill="#bdbfc1"/>
  <rect x="1" y="5" width="1" height="1" fill="#d2a513"/>
  <rect x="2" y="5" width="1" height="1" fill="#fff461"/>
  <rect x="3" y="5" width="1" height="1" fill="#e5d343"/>
  <rect x="4" y="5" width="1" height="1" fill="#fffe76"/>
  <rect x="5" y="5" width="1" height="1" fill="#c5a33f"/>
  <rect x="11" y="5" width="1" height="3" fill="#525152"/>
  <rect x="27" y="5" width="1" height="3" fill="#b5b2b5"/>
  <rect x="1" y="6" width="1" height="1" fill="#d0a613"/>
  <rect x="2" y="6" width="1" height="1" fill="#fff862"/>
  <rect x="3" y="6" width="1" height="1" fill="#e0d846"/>
  <rect x="4" y="6" width="1" height="1" fill="#f3da50"/>
  <rect x="5" y="6" width="1" height="1" fill="#b99e3a"/>
  <rect x="1" y="7" width="1" height="1" fill="#cca613"/>
  <rect x="2" y="7" width="1" height="1" fill="#fff968"/>
  <rect x="3" y="7" width="1" height="1" fill="#dcda4c"/>
  <rect x="4" y="7" width="1" height="1" fill="#fff76e"/>
  <rect x="5" y="7" width="1" height="1" fill="#b9a33e"/>
  <rect x="17" y="7" width="1" height="1" fill="#bebdc0"/>
  <rect x="19" y="7" width="1" height="1" fill="#e2e1e4"/>
  <rect x="21" y="7" width="1" height="1" fill="#bfbfc1"/>
  <rect x="1" y="8" width="1" height="1" fill="#caa618"/>
  <rect x="2" y="8" width="1" height="1" fill="#fdfa72"/>
  <rect x="3" y="8" width="1" height="1" fill="#d9dc59"/>
  <rect x="4" y="8" width="1" height="1" fill="#fbea65"/>
  <rect x="5" y="8" width="1" height="1" fill="#bba83f"/>
  <rect x="9" y="8" width="1" height="1" fill="#545452"/>
  <rect x="10" y="8" width="1" height="1" fill="#4e4e4c"/>
  <rect x="11" y="8" width="1" height="1" fill="#555553"/>
  <rect x="12" y="8" width="1" height="1" fill="#4d4d4b"/>
  <rect x="13" y="8" width="1" height="1" fill="#5a5a58"/>
  <rect x="17" y="8" width="1" height="4" fill="#bfbdc0"/>
  <rect x="18" y="8" width="1" height="4" fill="#fefbff"/>
  <rect x="19" y="8" width="1" height="4" fill="#e2e0e3"/>
  <rect x="20" y="8" width="1" height="4" fill="#fffdff"/>
  <rect x="21" y="8" width="1" height="4" fill="#bdbabd"/>
  <rect x="25" y="8" width="1" height="1" fill="#b6b6b6"/>
  <rect x="26" y="8" width="1" height="1" fill="#b3b3b3"/>
  <rect x="27" y="8" width="2" height="1" fill="#b4b4b4"/>
  <rect x="29" y="8" width="1" height="1" fill="#b1b1b1"/>
  <rect x="1" y="9" width="1" height="1" fill="#cba416"/>
  <rect x="2" y="9" width="1" height="1" fill="#fff772"/>
  <rect x="3" y="9" width="1" height="1" fill="#e0da58"/>
  <rect x="4" y="9" width="1" height="1" fill="#ffff7e"/>
  <rect x="5" y="9" width="1" height="1" fill="#c0ab40"/>
  <rect x="10" y="9" width="1" height="1" fill="#555754"/>
  <rect x="11" y="9" width="1" height="1" fill="#4c4f4c"/>
  <rect x="12" y="9" width="1" height="1" fill="#565955"/>
  <rect x="26" y="9" width="1" height="1" fill="#b3b6b2"/>
  <rect x="27" y="9" width="1" height="1" fill="#b2b5b1"/>
  <rect x="28" y="9" width="1" height="1" fill="#afb2af"/>
  <rect x="1" y="10" width="1" height="1" fill="#d1a210"/>
  <rect x="2" y="10" width="1" height="1" fill="#fff465"/>
  <rect x="3" y="10" width="1" height="1" fill="#f0d749"/>
  <rect x="4" y="10" width="1" height="1" fill="#fcd94f"/>
  <rect x="5" y="10" width="1" height="1" fill="#bea437"/>
  <rect x="11" y="10" width="1" height="1" fill="#515554"/>
  <rect x="27" y="10" width="1" height="1" fill="#b4b7b4"/>
  <rect x="1" y="11" width="1" height="1" fill="#d3a110"/>
  <rect x="2" y="11" width="1" height="1" fill="#fff163"/>
  <rect x="3" y="11" width="1" height="1" fill="#f6d447"/>
  <rect x="4" y="11" width="1" height="1" fill="#fff369"/>
  <rect x="5" y="11" width="1" height="1" fill="#c9a733"/>
  <rect x="1" y="12" width="1" height="1" fill="#d1a118"/>
  <rect x="2" y="12" width="1" height="1" fill="#ffe560"/>
  <rect x="3" y="12" width="1" height="1" fill="#f4d552"/>
  <rect x="4" y="12" width="1" height="1" fill="#ffde5b"/>
  <rect x="5" y="12" width="1" height="1" fill="#ce9f1f"/>
  <rect x="7" y="12" width="1" height="1" fill="#cda137"/>
  <rect x="8" y="12" width="1" height="1" fill="#c7a243"/>
  <rect x="9" y="12" width="3" height="1" fill="#c3a249"/>
  <rect x="12" y="12" width="1" height="1" fill="#ccaa51"/>
  <rect x="13" y="12" width="1" height="1" fill="#bf9d44"/>
  <rect x="14" y="12" width="1" height="1" fill="#cfae55"/>
  <rect x="17" y="12" width="1" height="2" fill="#bdbabd"/>
  <rect x="18" y="12" width="1" height="1" fill="#ffffff"/>
  <rect x="19" y="12" width="1" height="1" fill="#e1dee2"/>
  <rect x="20" y="12" width="1" height="1" fill="#fefbff"/>
  <rect x="21" y="12" width="1" height="1" fill="#c1bec1"/>
  <rect x="23" y="12" width="1" height="1" fill="#bfbdc0"/>
  <rect x="24" y="12" width="1" height="1" fill="#c0c0c0"/>
  <rect x="25" y="12" width="3" height="1" fill="#bfc1be"/>
  <rect x="28" y="12" width="1" height="1" fill="#bcbfbc"/>
  <rect x="29" y="12" width="1" height="1" fill="#bdc0bd"/>
  <rect x="30" y="12" width="1" height="1" fill="#bbbebb"/>
  <rect x="1" y="13" width="1" height="1" fill="#d09d16"/>
  <rect x="2" y="13" width="1" height="1" fill="#ffee6a"/>
  <rect x="3" y="13" width="1" height="1" fill="#ffe260"/>
  <rect x="4" y="13" width="1" height="1" fill="#fff872"/>
  <rect x="5" y="13" width="1" height="1" fill="#daa31b"/>
  <rect x="7" y="13" width="1" height="1" fill="#dd9d13"/>
  <rect x="8" y="13" width="1" height="1" fill="#ffed6c"/>
  <rect x="9" y="13" width="3" height="1" fill="#ffed70"/>
  <rect x="12" y="13" width="1" height="1" fill="#ffe467"/>
  <rect x="13" y="13" width="1" height="1" fill="#ffdf62"/>
  <rect x="14" y="13" width="1" height="1" fill="#d8a124"/>
  <rect x="18" y="13" width="2" height="1" fill="#ffffff"/>
  <rect x="20" y="13" width="1" height="1" fill="#fffdff"/>
  <rect x="21" y="13" width="1" height="1" fill="#c3c0c3"/>
  <rect x="23" y="13" width="1" height="2" fill="#c1bec1"/>
  <rect x="24" y="13" width="1" height="1" fill="#fefefe"/>
  <rect x="25" y="13" width="3" height="1" fill="#fcfffc"/>
  <rect x="28" y="13" width="1" height="1" fill="#ffffff"/>
  <rect x="29" y="13" width="1" height="1" fill="#f9fcf8"/>
  <rect x="30" y="13" width="1" height="1" fill="#bcbfbc"/>
  <rect x="1" y="14" width="1" height="1" fill="#e8ad21"/>
  <rect x="2" y="14" width="1" height="1" fill="#dc9e13"/>
  <rect x="3" y="14" width="1" height="1" fill="#dea114"/>
  <rect x="4" y="14" width="1" height="1" fill="#d89c11"/>
  <rect x="5" y="14" width="1" height="1" fill="#d29508"/>
  <rect x="7" y="14" width="1" height="1" fill="#e7a616"/>
  <rect x="8" y="14" width="1" height="1" fill="#e1a113"/>
  <rect x="9" y="14" width="1" height="1" fill="#e2a015"/>
  <rect x="10" y="14" width="1" height="1" fill="#e4a013"/>
  <rect x="11" y="14" width="1" height="1" fill="#e5a114"/>
  <rect x="12" y="14" width="1" height="1" fill="#e4a013"/>
  <rect x="13" y="14" width="1" height="1" fill="#e19c0f"/>
  <rect x="14" y="14" width="1" height="1" fill="#df9b0e"/>
  <rect x="17" y="14" width="1" height="1" fill="#c1bec1"/>
  <rect x="18" y="14" width="1" height="1" fill="#bfbdc0"/>
  <rect x="19" y="14" width="1" height="1" fill="#bebbbf"/>
  <rect x="20" y="14" width="1" height="1" fill="#c3c0c3"/>
  <rect x="21" y="14" width="1" height="1" fill="#c1bec1"/>
  <rect x="24" y="14" width="1" height="1" fill="#bebebe"/>
  <rect x="25" y="14" width="3" height="1" fill="#bcbfbc"/>
  <rect x="28" y="14" width="1" height="1" fill="#bfc1be"/>
  <rect x="29" y="14" width="1" height="1" fill="#bdc0bd"/>
  <rect x="30" y="14" width="1" height="1" fill="#babdb9"/>
</svg>