<svg xmlns="http://www.w3.org/2000/svg" width="129" height="61" viewBox="0 0 129 61" shape-rendering="crispEdges">
  <rect x="2" y="0" width="1" height="1" fill="#f1f1f1"/>
  <rect x="3" y="0" width="1" height="1" fill="#e3e3e3"/>
  <rect x="4" y="0" width="10" height="1" fill="#dddddd"/>
  <rect x="14" y="0" width="4" height="1" fill="#dedede"/>
  <rect x="18" y="0" width="106" height="1" fill="#e0e0e0"/>
  <rect x="124" y="0" width="1" height="1" fill="#dbdbdb"/>
  <rect x="125" y="0" width="1" height="1" fill="#e2e2e2"/>
  <rect x="126" y="0" width="1" height="1" fill="#eeeeee"/>
  <rect x="1" y="1" width="1" height="1" fill="#ececec"/>
  <rect x="2" y="1" width="1" height="1" fill="#eaeaea"/>
  <rect x="3" y="1" width="1" height="1" fill="#f1f1f1"/>
  <rect x="4" y="1" width="10" height="1" fill="#efefef"/>
  <rect x="14" y="1" width="4" height="1" fill="#f0f0f0"/>
  <rect x="18" y="1" width="106" height="1" fill="#f1f1f1"/>
  <rect x="124" y="1" width="1" height="1" fill="#f8f8f8"/>
  <rect x="125" y="1" width="1" height="1" fill="#f2f2f2"/>
  <rect x="126" y="1" width="1" height="1" fill="#ececec"/>
  <rect x="127" y="1" width="1" height="1" fill="#e8e8e8"/>
  <rect x="0" y="2" width="1" height="1" fill="#f1f1f1"/>
  <rect x="1" y="2" width="1" height="1" fill="#eaeaea"/>
  <rect x="2" y="2" width="1" height="1" fill="#ececec"/>
  <rect x="3" y="2" width="1" height="1" fill="#f7f7f7"/>
  <rect x="4" y="2" width="10" height="2" fill="#f9f9f9"/>
  <rect x="14" y="2" width="4" height="2" fill="#fafafa"/>
  <rect x="18" y="2" width="106" height="1" fill="#fcfbfc"/>
  <rect x="124" y="2" width="2" height="1" fill="#f7f7f7"/>
  <rect x="126" y="2" width="2" height="1" fill="#f6f6f6"/>
  <rect x="128" y="2" width="1" height="1" fill="#ececec"/>
  <rect x="0" y="3" width="1" height="1" fill="#e3e3e3"/>
  <rect x="1" y="3" width="1" height="1" fill="#f1f1f1"/>
  <rect x="2" y="3" width="1" height="1" fill="#f7f7f7"/>
  <rect x="3" y="3" width="1" height="1" fill="#f3f3f3"/>
  <rect x="18" y="3" width="105" height="1" fill="#fcfbfc"/>
  <rect x="123" y="3" width="1" height="1" fill="#fdfdfd"/>
  <rect x="124" y="3" width="1" height="1" fill="#fefefe"/>
  <rect x="125" y="3" width="1" height="1" fill="#fdfdfd"/>
  <rect x="126" y="3" width="1" height="1" fill="#f9f9f9"/>
  <rect x="127" y="3" width="1" height="1" fill="#f7f7f7"/>
  <rect x="128" y="3" width="1" height="1" fill="#e4e4e4"/>
  <rect x="0" y="4" width="1" height="28" fill="#e1e1e1"/>
  <rect x="1" y="4" width="1" height="9" fill="#f2f2f2"/>
  <rect x="2" y="4" width="2" height="4" fill="#fdfdfd"/>
  <rect x="4" y="4" width="4" height="4" fill="#fcfbfc"/>
  <rect x="8" y="4" width="8" height="4" fill="#fafafa"/>
  <rect x="16" y="4" width="112" height="4" fill="#fcfbfc"/>
  <rect x="128" y="4" width="1" height="12" fill="#e2e2e2"/>
  <rect x="2" y="8" width="6" height="4" fill="#fdfdfd"/>
  <rect x="8" y="8" width="120" height="4" fill="#fcfbfc"/>
  <rect x="2" y="12" width="14" height="2" fill="#fdfdfd"/>
  <rect x="16" y="12" width="112" height="20" fill="#fcfbfc"/>
  <rect x="1" y="13" width="1" height="2" fill="#f3f3f3"/>
  <rect x="2" y="14" width="1" height="2" fill="#fcfbfc"/>
  <rect x="3" y="14" width="1" height="2" fill="#fdfdfd"/>
  <rect x="4" y="14" width="4" height="2" fill="#fcfbfc"/>
  <rect x="8" y="14" width="8" height="2" fill="#fdfdfd"/>
  <rect x="1" y="15" width="1" height="2" fill="#f5f5f5"/>
  <rect x="2" y="16" width="1" height="2" fill="#fafafa"/>
  <rect x="3" y="16" width="1" height="16" fill="#fefefe"/>
  <rect x="4" y="16" width="8" height="4" fill="#fcfbfc"/>
  <rect x="12" y="16" width="4" height="4" fill="#fdfdfd"/>
  <rect x="128" y="16" width="1" height="40" fill="#e1e1e1"/>
  <rect x="1" y="17" width="1" height="2" fill="#f6f6f6"/>
  <rect x="2" y="18" width="1" height="14" fill="#f9f9f9"/>
  <rect x="1" y="19" width="1" height="13" fill="#f7f7f7"/>
  <rect x="4" y="20" width="4" height="2" fill="#fcfbfc"/>
  <rect x="8" y="20" width="8" height="2" fill="#fdfdfd"/>
  <rect x="4" y="22" width="12" height="10" fill="#fdfdfd"/>
  <rect x="0" y="32" width="1" height="24" fill="#e0e0e0"/>
  <rect x="1" y="32" width="1" height="24" fill="#f6f6f6"/>
  <rect x="2" y="32" width="1" height="24" fill="#f8f8f8"/>
  <rect x="3" y="32" width="1" height="24" fill="#fdfdfd"/>
  <rect x="4" y="32" width="124" height="24" fill="#fcfbfc"/>
  <rect x="0" y="56" width="1" height="1" fill="#e8e8e8"/>
  <rect x="1" y="56" width="1" height="1" fill="#fafafa"/>
  <rect x="2" y="56" width="1" height="1" fill="#f5f5f5"/>
  <rect x="3" y="56" width="1" height="1" fill="#f9f9f9"/>
  <rect x="4" y="56" width="120" height="1" fill="#fcfbfc"/>
  <rect x="124" y="56" width="1" height="1" fill="#ffffff"/>
  <rect x="125" y="56" width="1" height="1" fill="#fcfbfc"/>
  <rect x="126" y="56" width="1" height="1" fill="#f6f6f6"/>
  <rect x="127" y="56" width="1" height="1" fill="#f0f0f0"/>
  <rect x="128" y="56" width="1" height="1" fill="#e2e2e2"/>
  <rect x="0" y="57" width="1" height="1" fill="#ebebeb"/>
  <rect x="1" y="57" width="1" height="1" fill="#eeeeee"/>
  <rect x="2" y="57" width="1" height="1" fill="#fdfdfd"/>
  <rect x="3" y="57" width="1" height="1" fill="#f8f8f8"/>
  <rect x="4" y="57" width="119" height="1" fill="#fafafa"/>
  <rect x="123" y="57" width="1" height="1" fill="#fcfbfc"/>
  <rect x="124" y="57" width="1" height="1" fill="#fdfdfd"/>
  <rect x="125" y="57" width="1" height="1" fill="#fafafa"/>
  <rect x="126" y="57" width="1" height="1" fill="#f7f7f7"/>
  <rect x="127" y="57" width="1" height="1" fill="#f3f3f3"/>
  <rect x="128" y="57" width="1" height="1" fill="#e8e8e8"/>
  <rect x="1" y="58" width="1" height="1" fill="#e3e3e3"/>
  <rect x="2" y="58" width="1" height="1" fill="#eeeeee"/>
  <rect x="3" y="58" width="1" height="1" fill="#f9f9f9"/>
  <rect x="4" y="58" width="120" height="1" fill="#fcfbfc"/>
  <rect x="124" y="58" width="1" height="1" fill="#fefefe"/>
  <rect x="125" y="58" width="1" height="1" fill="#f7f7f7"/>
  <rect x="126" y="58" width="1" height="1" fill="#ececec"/>
  <rect x="127" y="58" width="1" height="1" fill="#e5e5e5"/>
  <rect x="2" y="59" width="1" height="1" fill="#eaeaea"/>
  <rect x="3" y="59" width="1" height="1" fill="#e0e0e0"/>
  <rect x="4" y="59" width="120" height="1" fill="#e2e2e2"/>
  <rect x="124" y="59" width="1" height="1" fill="#dddddd"/>
  <rect x="125" y="59" width="1" height="1" fill="#e2e2e2"/>
  <rect x="126" y="59" width="1" height="1" fill="#e9e9e9"/>
  <rect x="1" y="60" width="1" height="1" fill="#fefefe27"/>
  <rect x="2" y="60" width="1" height="1" fill="#ffffffad"/>
  <rect x="3" y="60" width="1" height="1" fill="#fefefef2"/>
  <rect x="4" y="60" width="121" height="1" fill="#ffffff"/>
  <rect x="125" y="60" width="1" height="1" fill="#fffffff2"/>
  <rect x="126" y="60" width="1" height="1" fill="#ffffffad"/>
  <rect x="127" y="60" width="1" height="1" fill="#ffffff27"/>
</svg>