<svg xmlns="http://www.w3.org/2000/svg" width="170" height="8" viewBox="0 0 170 8" shape-rendering="crispEdges">
  <rect x="24" y="3" width="2" height="1" fill="#a0a0a00a"/>
  <rect x="26" y="3" width="2" height="1" fill="#a0a0a00b"/>
  <rect x="28" y="3" width="1" height="1" fill="#a0a0a00c"/>
  <rect x="29" y="3" width="2" height="1" fill="#a0a0a00d"/>
  <rect x="31" y="3" width="1" height="1" fill="#a0a0a00e"/>
  <rect x="32" y="3" width="2" height="1" fill="#a0a0a00f"/>
  <rect x="34" y="3" width="1" height="1" fill="#a0a0a010"/>
  <rect x="35" y="3" width="2" height="1" fill="#a0a0a011"/>
  <rect x="37" y="3" width="2" height="1" fill="#a0a0a012"/>
  <rect x="39" y="3" width="2" height="1" fill="#a0a0a013"/>
  <rect x="41" y="3" width="3" height="1" fill="#a0a0a014"/>
  <rect x="44" y="3" width="83" height="1" fill="#a0a0a015"/>
  <rect x="127" y="3" width="3" height="1" fill="#a0a0a014"/>
  <rect x="130" y="3" width="1" height="1" fill="#a0a0a013"/>
  <rect x="131" y="3" width="2" height="1" fill="#a0a0a012"/>
  <rect x="133" y="3" width="1" height="1" fill="#a0a0a011"/>
  <rect x="134" y="3" width="2" height="1" fill="#a0a0a010"/>
  <rect x="136" y="3" width="1" height="1" fill="#a0a0a00f"/>
  <rect x="137" y="3" width="2" height="1" fill="#a0a0a00e"/>
  <rect x="139" y="3" width="1" height="1" fill="#a0a0a00d"/>
  <rect x="140" y="3" width="1" height="1" fill="#a0a0a00c"/>
  <rect x="141" y="3" width="2" height="1" fill="#a0a0a00b"/>
  <rect x="143" y="3" width="1" height="1" fill="#a0a0a00a"/>
  <rect x="21" y="4" width="1" height="1" fill="#a2a2a20a"/>
  <rect x="22" y="4" width="1" height="1" fill="#a2a2a20b"/>
  <rect x="23" y="4" width="1" height="1" fill="#a2a2a20c"/>
  <rect x="24" y="4" width="1" height="1" fill="#a2a2a20d"/>
  <rect x="25" y="4" width="2" height="1" fill="#a2a2a20e"/>
  <rect x="27" y="4" width="1" height="1" fill="#a2a2a20f"/>
  <rect x="28" y="4" width="1" height="1" fill="#a2a2a210"/>
  <rect x="29" y="4" width="1" height="1" fill="#a2a2a211"/>
  <rect x="30" y="4" width="1" height="1" fill="#a2a2a212"/>
  <rect x="31" y="4" width="1" height="1" fill="#a2a2a213"/>
  <rect x="32" y="4" width="1" height="1" fill="#a2a2a214"/>
  <rect x="33" y="4" width="2" height="1" fill="#a2a2a215"/>
  <rect x="35" y="4" width="1" height="1" fill="#a2a2a216"/>
  <rect x="36" y="4" width="1" height="1" fill="#a2a2a217"/>
  <rect x="37" y="4" width="2" height="1" fill="#a2a2a218"/>
  <rect x="39" y="4" width="1" height="1" fill="#a2a2a219"/>
  <rect x="40" y="4" width="2" height="1" fill="#a2a2a21a"/>
  <rect x="42" y="4" width="2" height="1" fill="#a2a2a21b"/>
  <rect x="44" y="4" width="83" height="1" fill="#a2a2a21c"/>
  <rect x="127" y="4" width="2" height="1" fill="#a2a2a21b"/>
  <rect x="129" y="4" width="1" height="1" fill="#a2a2a21a"/>
  <rect x="130" y="4" width="2" height="1" fill="#a2a2a219"/>
  <rect x="132" y="4" width="1" height="1" fill="#a2a2a218"/>
  <rect x="133" y="4" width="1" height="1" fill="#a2a2a217"/>
  <rect x="134" y="4" width="1" height="1" fill="#a2a2a216"/>
  <rect x="135" y="4" width="1" height="1" fill="#a2a2a215"/>
  <rect x="136" y="4" width="1" height="1" fill="#a2a2a214"/>
  <rect x="137" y="4" width="1" height="1" fill="#a2a2a213"/>
  <rect x="138" y="4" width="1" height="1" fill="#a2a2a212"/>
  <rect x="139" y="4" width="1" height="1" fill="#a2a2a211"/>
  <rect x="140" y="4" width="1" height="1" fill="#a2a2a210"/>
  <rect x="141" y="4" width="1" height="1" fill="#a2a2a20f"/>
  <rect x="142" y="4" width="1" height="1" fill="#a2a2a20e"/>
  <rect x="143" y="4" width="1" height="1" fill="#a2a2a20d"/>
  <rect x="144" y="4" width="2" height="1" fill="#a2a2a20c"/>
  <rect x="146" y="4" width="1" height="1" fill="#a2a2a20b"/>
  <rect x="147" y="4" width="1" height="1" fill="#a2a2a20a"/>
  <rect x="22" y="5" width="1" height="1" fill="#4040400a"/>
  <rect x="23" y="5" width="1" height="1" fill="#4040400b"/>
  <rect x="24" y="5" width="1" height="1" fill="#4040400c"/>
  <rect x="25" y="5" width="2" height="1" fill="#4040400d"/>
  <rect x="27" y="5" width="1" height="1" fill="#4040400e"/>
  <rect x="28" y="5" width="1" height="1" fill="#4040400f"/>
  <rect x="29" y="5" width="1" height="1" fill="#40404010"/>
  <rect x="30" y="5" width="2" height="1" fill="#40404011"/>
  <rect x="32" y="5" width="1" height="1" fill="#40404012"/>
  <rect x="33" y="5" width="1" height="1" fill="#40404013"/>
  <rect x="34" y="5" width="1" height="1" fill="#40404014"/>
  <rect x="35" y="5" width="2" height="1" fill="#40404015"/>
  <rect x="37" y="5" width="1" height="1" fill="#40404016"/>
  <rect x="38" y="5" width="2" height="1" fill="#40404017"/>
  <rect x="40" y="5" width="2" height="1" fill="#40404018"/>
  <rect x="42" y="5" width="2" height="1" fill="#40404019"/>
  <rect x="44" y="5" width="83" height="1" fill="#4040401a"/>
  <rect x="127" y="5" width="2" height="1" fill="#40404019"/>
  <rect x="129" y="5" width="2" height="1" fill="#40404018"/>
  <rect x="131" y="5" width="1" height="1" fill="#40404017"/>
  <rect x="132" y="5" width="1" height="1" fill="#40404016"/>
  <rect x="133" y="5" width="1" height="1" fill="#40404015"/>
  <rect x="134" y="5" width="2" height="1" fill="#40404014"/>
  <rect x="136" y="5" width="1" height="1" fill="#40404013"/>
  <rect x="137" y="5" width="1" height="1" fill="#40404012"/>
  <rect x="138" y="5" width="1" height="1" fill="#40404011"/>
  <rect x="139" y="5" width="1" height="1" fill="#40404010"/>
  <rect x="140" y="5" width="1" height="1" fill="#4040400f"/>
  <rect x="141" y="5" width="1" height="1" fill="#4040400e"/>
  <rect x="142" y="5" width="1" height="1" fill="#4040400d"/>
  <rect x="143" y="5" width="2" height="1" fill="#4040400c"/>
  <rect x="145" y="5" width="1" height="1" fill="#4040400b"/>
  <rect x="146" y="5" width="1" height="1" fill="#4040400a"/>
  <rect x="7" y="6" width="1" height="1" fill="#ffffff0b"/>
  <rect x="8" y="6" width="1" height="1" fill="#ffffff0e"/>
  <rect x="9" y="6" width="1" height="1" fill="#ffffff11"/>
  <rect x="10" y="6" width="1" height="1" fill="#ffffff14"/>
  <rect x="11" y="6" width="1" height="1" fill="#ffffff18"/>
  <rect x="12" y="6" width="1" height="1" fill="#ffffff1c"/>
  <rect x="13" y="6" width="1" height="1" fill="#ffffff1f"/>
  <rect x="14" y="6" width="1" height="1" fill="#ffffff23"/>
  <rect x="15" y="6" width="1" height="1" fill="#ffffff28"/>
  <rect x="16" y="6" width="1" height="1" fill="#ffffff2c"/>
  <rect x="17" y="6" width="1" height="1" fill="#ffffff31"/>
  <rect x="18" y="6" width="1" height="1" fill="#ffffff37"/>
  <rect x="19" y="6" width="1" height="1" fill="#ffffff3b"/>
  <rect x="20" y="6" width="1" height="1" fill="#ffffff40"/>
  <rect x="21" y="6" width="1" height="1" fill="#ffffff46"/>
  <rect x="22" y="6" width="1" height="1" fill="#ffffff4b"/>
  <rect x="23" y="6" width="1" height="1" fill="#ffffff51"/>
  <rect x="24" y="6" width="1" height="1" fill="#ffffff57"/>
  <rect x="25" y="6" width="1" height="1" fill="#ffffff5d"/>
  <rect x="26" y="6" width="1" height="1" fill="#ffffff62"/>
  <rect x="27" y="6" width="1" height="1" fill="#ffffff68"/>
  <rect x="28" y="6" width="1" height="1" fill="#ffffff6e"/>
  <rect x="29" y="6" width="1" height="1" fill="#ffffff74"/>
  <rect x="30" y="6" width="1" height="1" fill="#ffffff7a"/>
  <rect x="31" y="6" width="1" height="1" fill="#ffffff80"/>
  <rect x="32" y="6" width="1" height="1" fill="#ffffff87"/>
  <rect x="33" y="6" width="1" height="1" fill="#ffffff8c"/>
  <rect x="34" y="6" width="1" height="1" fill="#ffffff91"/>
  <rect x="35" y="6" width="1" height="1" fill="#ffffff97"/>
  <rect x="36" y="6" width="1" height="1" fill="#ffffff9d"/>
  <rect x="37" y="6" width="1" height="1" fill="#ffffffa3"/>
  <rect x="38" y="6" width="1" height="1" fill="#ffffffa7"/>
  <rect x="39" y="6" width="1" height="1" fill="#ffffffac"/>
  <rect x="40" y="6" width="1" height="1" fill="#ffffffb1"/>
  <rect x="41" y="6" width="1" height="1" fill="#ffffffb4"/>
  <rect x="42" y="6" width="1" height="1" fill="#ffffffb8"/>
  <rect x="43" y="6" width="1" height="1" fill="#ffffffba"/>
  <rect x="44" y="6" width="1" height="1" fill="#ffffffbd"/>
  <rect x="45" y="6" width="81" height="1" fill="#ffffffbf"/>
  <rect x="126" y="6" width="1" height="1" fill="#ffffffbd"/>
  <rect x="127" y="6" width="1" height="1" fill="#ffffffba"/>
  <rect x="128" y="6" width="1" height="1" fill="#ffffffb8"/>
  <rect x="129" y="6" width="1" height="1" fill="#ffffffb2"/>
  <rect x="130" y="6" width="1" height="1" fill="#ffffffad"/>
  <rect x="131" y="6" width="1" height="1" fill="#ffffffa8"/>
  <rect x="132" y="6" width="1" height="1" fill="#ffffffa2"/>
  <rect x="133" y="6" width="1" height="1" fill="#ffffff9d"/>
  <rect x="134" y="6" width="1" height="1" fill="#ffffff96"/>
  <rect x="135" y="6" width="1" height="1" fill="#ffffff90"/>
  <rect x="136" y="6" width="1" height="1" fill="#ffffff89"/>
  <rect x="137" y="6" width="1" height="1" fill="#ffffff83"/>
  <rect x="138" y="6" width="1" height="1" fill="#ffffff7c"/>
  <rect x="139" y="6" width="1" height="1" fill="#ffffff76"/>
  <rect x="140" y="6" width="1" height="1" fill="#ffffff6f"/>
  <rect x="141" y="6" width="1" height="1" fill="#ffffff68"/>
  <rect x="142" y="6" width="1" height="1" fill="#ffffff61"/>
  <rect x="143" y="6" width="1" height="1" fill="#ffffff5b"/>
  <rect x="144" y="6" width="1" height="1" fill="#ffffff55"/>
  <rect x="145" y="6" width="1" height="1" fill="#ffffff4f"/>
  <rect x="146" y="6" width="1" height="1" fill="#ffffff49"/>
  <rect x="147" y="6" width="1" height="1" fill="#ffffff43"/>
  <rect x="148" y="6" width="1" height="1" fill="#ffffff3d"/>
  <rect x="149" y="6" width="1" height="1" fill="#ffffff37"/>
  <rect x="150" y="6" width="1" height="1" fill="#ffffff32"/>
  <rect x="151" y="6" width="1" height="1" fill="#ffffff2e"/>
  <rect x="152" y="6" width="1" height="1" fill="#ffffff28"/>
  <rect x="153" y="6" width="1" height="1" fill="#ffffff24"/>
  <rect x="154" y="6" width="1" height="1" fill="#ffffff20"/>
  <rect x="155" y="6" width="1" height="1" fill="#ffffff1c"/>
  <rect x="156" y="6" width="1" height="1" fill="#ffffff18"/>
  <rect x="157" y="6" width="1" height="1" fill="#ffffff15"/>
  <rect x="158" y="6" width="1" height="1" fill="#ffffff12"/>
  <rect x="159" y="6" width="1" height="1" fill="#ffffff0f"/>
  <rect x="160" y="6" width="1" height="1" fill="#ffffff0c"/>
  <rect x="161" y="6" width="1" height="1" fill="#ffffff0a"/>
</svg>