<svg xmlns="http://www.w3.org/2000/svg" width="35" height="55" viewBox="0 0 35 55" shape-rendering="crispEdges">
  <rect x="0" y="0" width="12" height="1" fill="#e7e7e7"/>
  <rect x="12" y="0" width="23" height="1" fill="#e5e7e7"/>
  <rect x="0" y="1" width="12" height="1" fill="#fcfbfc"/>
  <rect x="12" y="1" width="23" height="1" fill="#fafcfc"/>
  <rect x="0" y="2" width="12" height="1" fill="#f5f5f5"/>
  <rect x="12" y="2" width="23" height="1" fill="#f3f5f5"/>
  <rect x="0" y="3" width="12" height="1" fill="#f7f7f7"/>
  <rect x="12" y="3" width="23" height="1" fill="#f5f8f7"/>
  <rect x="0" y="4" width="12" height="4" fill="#f3f3f3"/>
  <rect x="12" y="4" width="4" height="3" fill="#f2f4f3"/>
  <rect x="16" y="4" width="19" height="3" fill="#f3f5f5"/>
  <rect x="12" y="7" width="23" height="1" fill="#f2f4f3"/>
  <rect x="0" y="8" width="35" height="1" fill="#f3f3f3"/>
  <rect x="0" y="9" width="16" height="2" fill="#f3f3f3"/>
  <rect x="16" y="9" width="19" height="2" fill="#f2f2f2"/>
  <rect x="0" y="11" width="16" height="1" fill="#f2f2f2"/>
  <rect x="16" y="11" width="19" height="1" fill="#f1f1f1"/>
  <rect x="0" y="12" width="35" height="1" fill="#f1f1f1"/>
  <rect x="0" y="13" width="35" height="1" fill="#f0f0f0"/>
  <rect x="0" y="14" width="35" height="2" fill="#efefef"/>
  <rect x="0" y="16" width="35" height="2" fill="#eeeeee"/>
  <rect x="0" y="18" width="35" height="1" fill="#ececec"/>
  <rect x="0" y="19" width="16" height="2" fill="#ebebeb"/>
  <rect x="16" y="19" width="19" height="1" fill="#ececec"/>
  <rect x="16" y="20" width="19" height="1" fill="#eaeaea"/>
  <rect x="0" y="21" width="35" height="2" fill="#eaeaea"/>
  <rect x="0" y="23" width="16" height="2" fill="#e9e9e9"/>
  <rect x="16" y="23" width="19" height="1" fill="#eaeaea"/>
  <rect x="16" y="24" width="19" height="1" fill="#e8e8e8"/>
  <rect x="0" y="25" width="35" height="3" fill="#e8e8e8"/>
  <rect x="0" y="28" width="35" height="2" fill="#e7e7e7"/>
  <rect x="0" y="30" width="35" height="4" fill="#e5e5e5"/>
  <rect x="0" y="34" width="35" height="2" fill="#e4e4e4"/>
  <rect x="0" y="36" width="35" height="4" fill="#e3e3e3"/>
  <rect x="0" y="40" width="35" height="4" fill="#e2e2e2"/>
  <rect x="0" y="44" width="12" height="2" fill="#e1e1e1"/>
  <rect x="12" y="44" width="4" height="2" fill="#e1e0e3"/>
  <rect x="16" y="44" width="19" height="2" fill="#e1e1e1"/>
  <rect x="0" y="46" width="12" height="2" fill="#e0e0e0"/>
  <rect x="12" y="46" width="4" height="2" fill="#e0dfe2"/>
  <rect x="16" y="46" width="19" height="2" fill="#e0e0e0"/>
  <rect x="0" y="48" width="4" height="2" fill="#e0e0e0"/>
  <rect x="4" y="48" width="31" height="2" fill="#e0dfe2"/>
  <rect x="0" y="50" width="4" height="2" fill="#dedede"/>
  <rect x="4" y="50" width="31" height="2" fill="#dedee0"/>
  <rect x="0" y="52" width="12" height="2" fill="#dedee0"/>
  <rect x="12" y="52" width="4" height="2" fill="#dedee2"/>
  <rect x="16" y="52" width="19" height="1" fill="#dedee0"/>
  <rect x="16" y="53" width="18" height="1" fill="#dedee0"/>
  <rect x="0" y="54" width="33" height="1" fill="#dedee0"/>
</svg>