<svg xmlns="http://www.w3.org/2000/svg" width="450" height="43" viewBox="0 0 450 43" shape-rendering="crispEdges">
  <rect x="0" y="0" width="16" height="3" fill="#fdfdfd"/>
  <rect x="16" y="0" width="434" height="3" fill="#fcfbfc"/>
  <rect x="0" y="3" width="450" height="2" fill="#fcfbfc"/>
  <rect x="0" y="5" width="16" height="3" fill="#fafafa"/>
  <rect x="16" y="5" width="434" height="3" fill="#fcfbfc"/>
  <rect x="0" y="8" width="450" height="4" fill="#fafafa"/>
  <rect x="0" y="12" width="450" height="4" fill="#f9f9f9"/>
  <rect x="0" y="16" width="450" height="4" fill="#f8f8f8"/>
  <rect x="0" y="20" width="450" height="8" fill="#f7f7f7"/>
  <rect x="0" y="28" width="450" height="4" fill="#f6f6f6"/>
  <rect x="0" y="32" width="16" height="8" fill="#f6f6f6"/>
  <rect x="16" y="32" width="434" height="8" fill="#f5f5f5"/>
  <rect x="0" y="40" width="16" height="1" fill="#f5f5f5"/>
  <rect x="16" y="40" width="434" height="1" fill="#f3f3f3"/>
  <rect x="0" y="41" width="16" height="1" fill="#fafafa"/>
  <rect x="16" y="41" width="434" height="1" fill="#f9f9f9"/>
  <rect x="0" y="42" width="450" height="1" fill="#0000001a"/>
</svg>