<svg xmlns="http://www.w3.org/2000/svg" width="208" height="10" viewBox="0 0 208 10" shape-rendering="crispEdges">
  <rect x="25" y="5" width="1" height="1" fill="#bababa"/>
  <rect x="77" y="5" width="1" height="1" fill="#bababc"/>
  <rect x="129" y="5" width="1" height="1" fill="#bababa"/>
  <rect x="181" y="5" width="1" height="1" fill="#bababc"/>
  <rect x="24" y="6" width="3" height="1" fill="#bababa"/>
  <rect x="76" y="6" width="3" height="1" fill="#bababc"/>
  <rect x="128" y="6" width="3" height="1" fill="#bababa"/>
  <rect x="180" y="6" width="2" height="1" fill="#bababc"/>
  <rect x="182" y="6" width="1" height="1" fill="#bababa"/>
  <rect x="23" y="7" width="5" height="1" fill="#bababa"/>
  <rect x="75" y="7" width="1" height="1" fill="#bababa"/>
  <rect x="76" y="7" width="4" height="1" fill="#bababc"/>
  <rect x="127" y="7" width="5" height="1" fill="#bababa"/>
  <rect x="179" y="7" width="3" height="1" fill="#bababc"/>
  <rect x="182" y="7" width="2" height="1" fill="#bababa"/>
  <rect x="0" y="8" width="4" height="2" fill="#bababaf3"/>
  <rect x="4" y="8" width="8" height="2" fill="#bababafe"/>
  <rect x="12" y="8" width="10" height="1" fill="#bababcfe"/>
  <rect x="22" y="8" width="4" height="1" fill="#bababc"/>
  <rect x="26" y="8" width="3" height="1" fill="#bababa"/>
  <rect x="29" y="8" width="7" height="1" fill="#bababafe"/>
  <rect x="36" y="8" width="12" height="2" fill="#bababcfe"/>
  <rect x="48" y="8" width="8" height="2" fill="#bababcf3"/>
  <rect x="56" y="8" width="2" height="2" fill="#bababcfe"/>
  <rect x="58" y="8" width="10" height="2" fill="#bababafe"/>
  <rect x="68" y="8" width="6" height="1" fill="#bababcfe"/>
  <rect x="74" y="8" width="7" height="1" fill="#bababc"/>
  <rect x="81" y="8" width="9" height="1" fill="#bababcfe"/>
  <rect x="90" y="8" width="10" height="2" fill="#bababafe"/>
  <rect x="100" y="8" width="8" height="2" fill="#bababcf3"/>
  <rect x="108" y="8" width="18" height="1" fill="#bababcfe"/>
  <rect x="126" y="8" width="7" height="1" fill="#bababc"/>
  <rect x="133" y="8" width="19" height="1" fill="#bababcfe"/>
  <rect x="152" y="8" width="2" height="2" fill="#bababcf3"/>
  <rect x="154" y="8" width="6" height="2" fill="#bababaf3"/>
  <rect x="160" y="8" width="4" height="2" fill="#bababafe"/>
  <rect x="164" y="8" width="14" height="1" fill="#bababcfe"/>
  <rect x="178" y="8" width="7" height="1" fill="#bababc"/>
  <rect x="185" y="8" width="1" height="1" fill="#bababcfe"/>
  <rect x="186" y="8" width="10" height="2" fill="#bababafe"/>
  <rect x="196" y="8" width="8" height="2" fill="#bababcfe"/>
  <rect x="204" y="8" width="4" height="2" fill="#bababcf3"/>
  <rect x="12" y="9" width="9" height="1" fill="#bababcfe"/>
  <rect x="21" y="9" width="5" height="1" fill="#bababc"/>
  <rect x="26" y="9" width="4" height="1" fill="#bababa"/>
  <rect x="30" y="9" width="6" height="1" fill="#bababafe"/>
  <rect x="68" y="9" width="5" height="1" fill="#bababcfe"/>
  <rect x="73" y="9" width="9" height="1" fill="#bababc"/>
  <rect x="82" y="9" width="8" height="1" fill="#bababcfe"/>
  <rect x="108" y="9" width="17" height="1" fill="#bababcfe"/>
  <rect x="125" y="9" width="9" height="1" fill="#bababc"/>
  <rect x="134" y="9" width="18" height="1" fill="#bababcfe"/>
  <rect x="164" y="9" width="13" height="1" fill="#bababcfe"/>
  <rect x="177" y="9" width="9" height="1" fill="#bababc"/>
</svg>