<svg xmlns="http://www.w3.org/2000/svg" width="36" height="12" viewBox="0 0 36 12" shape-rendering="crispEdges">
  <rect x="4" y="0" width="1" height="1" fill="#e2e2e20f"/>
  <rect x="5" y="0" width="2" height="1" fill="#e2e2e2ed"/>
  <rect x="7" y="0" width="1" height="1" fill="#e2e2e210"/>
  <rect x="16" y="0" width="1" height="1" fill="#9797970f"/>
  <rect x="17" y="0" width="2" height="1" fill="#979797ed"/>
  <rect x="19" y="0" width="1" height="1" fill="#96969610"/>
  <rect x="28" y="0" width="1" height="1" fill="#9696960f"/>
  <rect x="29" y="0" width="1" height="1" fill="#969696ed"/>
  <rect x="30" y="0" width="1" height="1" fill="#979797ed"/>
  <rect x="31" y="0" width="1" height="1" fill="#97979710"/>
  <rect x="1" y="1" width="1" height="1" fill="#e1e1e11e"/>
  <rect x="2" y="1" width="1" height="1" fill="#e2e2e2a3"/>
  <rect x="3" y="1" width="1" height="1" fill="#e3e3e32b"/>
  <rect x="4" y="1" width="1" height="1" fill="#e5e5e52b"/>
  <rect x="5" y="1" width="1" height="1" fill="#e7e7e7"/>
  <rect x="6" y="1" width="1" height="1" fill="#e8e8e8"/>
  <rect x="7" y="1" width="1" height="1" fill="#e8e8e82b"/>
  <rect x="8" y="1" width="1" height="1" fill="#e8e8e82c"/>
  <rect x="9" y="1" width="1" height="1" fill="#e2e2e2a2"/>
  <rect x="10" y="1" width="1" height="1" fill="#dddddd1e"/>
  <rect x="13" y="1" width="1" height="1" fill="#9494941e"/>
  <rect x="14" y="1" width="1" height="1" fill="#949494a3"/>
  <rect x="15" y="1" width="1" height="1" fill="#9999992b"/>
  <rect x="16" y="1" width="1" height="1" fill="#9797972b"/>
  <rect x="17" y="1" width="2" height="2" fill="#979797"/>
  <rect x="19" y="1" width="1" height="1" fill="#9696962b"/>
  <rect x="20" y="1" width="1" height="1" fill="#9696962c"/>
  <rect x="21" y="1" width="1" height="1" fill="#959595a2"/>
  <rect x="22" y="1" width="1" height="1" fill="#9595951e"/>
  <rect x="25" y="1" width="1" height="1" fill="#9595951e"/>
  <rect x="26" y="1" width="1" height="1" fill="#969696a3"/>
  <rect x="27" y="1" width="2" height="1" fill="#9696962b"/>
  <rect x="29" y="1" width="1" height="2" fill="#969696"/>
  <rect x="30" y="1" width="1" height="2" fill="#979797"/>
  <rect x="31" y="1" width="1" height="1" fill="#9797972b"/>
  <rect x="32" y="1" width="1" height="1" fill="#9696962c"/>
  <rect x="33" y="1" width="1" height="1" fill="#969696a2"/>
  <rect x="34" y="1" width="1" height="1" fill="#9696961e"/>
  <rect x="1" y="2" width="1" height="1" fill="#e1e1e1a6"/>
  <rect x="2" y="2" width="1" height="1" fill="#e2e2e2"/>
  <rect x="3" y="2" width="1" height="1" fill="#e2e2e2ef"/>
  <rect x="4" y="2" width="1" height="1" fill="#e2e2e2f8"/>
  <rect x="5" y="2" width="1" height="1" fill="#e2e2e2"/>
  <rect x="6" y="2" width="1" height="1" fill="#e3e3e3"/>
  <rect x="7" y="2" width="1" height="1" fill="#e3e3e3f8"/>
  <rect x="8" y="2" width="1" height="1" fill="#ebebebef"/>
  <rect x="9" y="2" width="1" height="1" fill="#eaeaea"/>
  <rect x="10" y="2" width="1" height="1" fill="#e0e0e0a8"/>
  <rect x="13" y="2" width="1" height="1" fill="#939393a6"/>
  <rect x="14" y="2" width="1" height="1" fill="#999999"/>
  <rect x="15" y="2" width="1" height="1" fill="#9c9c9cef"/>
  <rect x="16" y="2" width="1" height="1" fill="#979797f8"/>
  <rect x="19" y="2" width="1" height="1" fill="#969696f8"/>
  <rect x="20" y="2" width="1" height="1" fill="#969696ef"/>
  <rect x="21" y="2" width="1" height="1" fill="#959595"/>
  <rect x="22" y="2" width="1" height="1" fill="#959595a8"/>
  <rect x="25" y="2" width="1" height="1" fill="#959595a6"/>
  <rect x="26" y="2" width="1" height="1" fill="#969696"/>
  <rect x="27" y="2" width="1" height="1" fill="#969696ef"/>
  <rect x="28" y="2" width="1" height="1" fill="#969696f8"/>
  <rect x="31" y="2" width="1" height="1" fill="#979797f8"/>
  <rect x="32" y="2" width="1" height="1" fill="#969696ef"/>
  <rect x="33" y="2" width="1" height="1" fill="#969696"/>
  <rect x="34" y="2" width="1" height="1" fill="#969696a8"/>
  <rect x="1" y="3" width="1" height="1" fill="#e2e2e22c"/>
  <rect x="2" y="3" width="1" height="1" fill="#e1e1e1ee"/>
  <rect x="3" y="3" width="1" height="1" fill="#dedede"/>
  <rect x="4" y="3" width="1" height="1" fill="#dcdcdcd6"/>
  <rect x="5" y="3" width="1" height="1" fill="#dddddd72"/>
  <rect x="6" y="3" width="1" height="1" fill="#d7d7d772"/>
  <rect x="7" y="3" width="1" height="1" fill="#d7d7d7d6"/>
  <rect x="8" y="3" width="1" height="1" fill="#dddddd"/>
  <rect x="9" y="3" width="1" height="1" fill="#e7e7e7ee"/>
  <rect x="10" y="3" width="1" height="1" fill="#e2e2e22c"/>
  <rect x="13" y="3" width="1" height="2" fill="#9797972c"/>
  <rect x="14" y="3" width="1" height="1" fill="#999999ee"/>
  <rect x="15" y="3" width="1" height="1" fill="#9c9c9c"/>
  <rect x="16" y="3" width="1" height="1" fill="#969696d6"/>
  <rect x="17" y="3" width="2" height="1" fill="#96969672"/>
  <rect x="19" y="3" width="1" height="1" fill="#959595d6"/>
  <rect x="20" y="3" width="1" height="1" fill="#969696"/>
  <rect x="21" y="3" width="1" height="1" fill="#959595ee"/>
  <rect x="22" y="3" width="1" height="1" fill="#9595952c"/>
  <rect x="25" y="3" width="1" height="2" fill="#9595952c"/>
  <rect x="26" y="3" width="1" height="1" fill="#969696ee"/>
  <rect x="27" y="3" width="1" height="1" fill="#969696"/>
  <rect x="28" y="3" width="1" height="1" fill="#959595d6"/>
  <rect x="29" y="3" width="1" height="1" fill="#95959572"/>
  <rect x="30" y="3" width="1" height="1" fill="#96969672"/>
  <rect x="31" y="3" width="1" height="1" fill="#969696d6"/>
  <rect x="32" y="3" width="1" height="1" fill="#969696"/>
  <rect x="33" y="3" width="1" height="1" fill="#969696ee"/>
  <rect x="34" y="3" width="1" height="1" fill="#9696962c"/>
  <rect x="0" y="4" width="1" height="1" fill="#e4e4e40d"/>
  <rect x="1" y="4" width="1" height="1" fill="#e3e3e32c"/>
  <rect x="2" y="4" width="1" height="1" fill="#e2e2e2f6"/>
  <rect x="3" y="4" width="1" height="1" fill="#ddddddd5"/>
  <rect x="4" y="4" width="1" height="1" fill="#dbdbdb0b"/>
  <rect x="7" y="4" width="1" height="1" fill="#dcdcdc0b"/>
  <rect x="8" y="4" width="1" height="1" fill="#dcdcdcd5"/>
  <rect x="9" y="4" width="1" height="1" fill="#e1e1e1f8"/>
  <rect x="10" y="4" width="1" height="1" fill="#e7e7e72f"/>
  <rect x="11" y="4" width="1" height="1" fill="#ebebeb0d"/>
  <rect x="12" y="4" width="1" height="1" fill="#9797970d"/>
  <rect x="14" y="4" width="1" height="1" fill="#969696f6"/>
  <rect x="15" y="4" width="1" height="1" fill="#969696d5"/>
  <rect x="16" y="4" width="1" height="1" fill="#9696960b"/>
  <rect x="19" y="4" width="1" height="1" fill="#9595950b"/>
  <rect x="20" y="4" width="1" height="1" fill="#959595d5"/>
  <rect x="21" y="4" width="1" height="1" fill="#959595f8"/>
  <rect x="22" y="4" width="1" height="1" fill="#9595952f"/>
  <rect x="23" y="4" width="2" height="1" fill="#9595950d"/>
  <rect x="26" y="4" width="1" height="1" fill="#959595f6"/>
  <rect x="27" y="4" width="1" height="1" fill="#959595d5"/>
  <rect x="28" y="4" width="1" height="1" fill="#9595950b"/>
  <rect x="31" y="4" width="1" height="1" fill="#9595950b"/>
  <rect x="32" y="4" width="1" height="1" fill="#959595d5"/>
  <rect x="33" y="4" width="1" height="1" fill="#979797f8"/>
  <rect x="34" y="4" width="1" height="1" fill="#9b9b9b2f"/>
  <rect x="35" y="4" width="1" height="1" fill="#9d9d9d0d"/>
  <rect x="0" y="5" width="1" height="1" fill="#e2e2e2ed"/>
  <rect x="1" y="5" width="2" height="1" fill="#e3e3e3"/>
  <rect x="3" y="5" width="1" height="1" fill="#dedede73"/>
  <rect x="4" y="5" width="1" height="1" fill="#dedede0a"/>
  <rect x="5" y="5" width="2" height="1" fill="#e2e2e2e5"/>
  <rect x="7" y="5" width="1" height="1" fill="#dedede0a"/>
  <rect x="8" y="5" width="1" height="1" fill="#e0e0e073"/>
  <rect x="9" y="5" width="1" height="2" fill="#e3e3e3"/>
  <rect x="10" y="5" width="1" height="1" fill="#e5e5e5"/>
  <rect x="11" y="5" width="1" height="1" fill="#e7e7e7ed"/>
  <rect x="12" y="5" width="1" height="2" fill="#979797ed"/>
  <rect x="13" y="5" width="1" height="2" fill="#979797"/>
  <rect x="14" y="5" width="1" height="2" fill="#969696"/>
  <rect x="15" y="5" width="1" height="1" fill="#96969673"/>
  <rect x="16" y="5" width="1" height="2" fill="#9595950a"/>
  <rect x="17" y="5" width="1" height="2" fill="#959595e5"/>
  <rect x="18" y="5" width="1" height="2" fill="#949494e5"/>
  <rect x="19" y="5" width="1" height="2" fill="#9494940a"/>
  <rect x="20" y="5" width="1" height="1" fill="#95959573"/>
  <rect x="21" y="5" width="2" height="2" fill="#959595"/>
  <rect x="23" y="5" width="2" height="2" fill="#959595ed"/>
  <rect x="25" y="5" width="2" height="2" fill="#959595"/>
  <rect x="27" y="5" width="1" height="1" fill="#95959573"/>
  <rect x="28" y="5" width="1" height="2" fill="#9494940a"/>
  <rect x="29" y="5" width="2" height="2" fill="#949494e5"/>
  <rect x="31" y="5" width="1" height="2" fill="#9494940a"/>
  <rect x="32" y="5" width="1" height="1" fill="#95959573"/>
  <rect x="33" y="5" width="1" height="1" fill="#969696"/>
  <rect x="34" y="5" width="1" height="1" fill="#979797"/>
  <rect x="35" y="5" width="1" height="1" fill="#999999ed"/>
  <rect x="0" y="6" width="1" height="1" fill="#dcdcdced"/>
  <rect x="1" y="6" width="1" height="1" fill="#e1e1e1"/>
  <rect x="2" y="6" width="1" height="1" fill="#e3e3e3"/>
  <rect x="3" y="6" width="1" height="1" fill="#e3e3e379"/>
  <rect x="4" y="6" width="1" height="1" fill="#e1e1e10a"/>
  <rect x="5" y="6" width="2" height="1" fill="#dcdcdce5"/>
  <rect x="7" y="6" width="1" height="1" fill="#e2e2e20a"/>
  <rect x="8" y="6" width="1" height="1" fill="#e4e4e479"/>
  <rect x="10" y="6" width="1" height="1" fill="#e1e1e1"/>
  <rect x="11" y="6" width="1" height="1" fill="#e0e0e0ed"/>
  <rect x="15" y="6" width="1" height="1" fill="#96969679"/>
  <rect x="20" y="6" width="1" height="1" fill="#95959579"/>
  <rect x="27" y="6" width="1" height="1" fill="#95959579"/>
  <rect x="32" y="6" width="1" height="1" fill="#96969679"/>
  <rect x="33" y="6" width="1" height="1" fill="#959595"/>
  <rect x="34" y="6" width="1" height="1" fill="#949494"/>
  <rect x="35" y="6" width="1" height="1" fill="#939393ed"/>
  <rect x="0" y="7" width="1" height="1" fill="#dadada0d"/>
  <rect x="1" y="7" width="1" height="2" fill="#dddddd2c"/>
  <rect x="2" y="7" width="1" height="1" fill="#e2e2e2f6"/>
  <rect x="3" y="7" width="1" height="1" fill="#e7e7e7d5"/>
  <rect x="4" y="7" width="1" height="1" fill="#e7e7e70b"/>
  <rect x="5" y="7" width="1" height="1" fill="#dadada0a"/>
  <rect x="6" y="7" width="1" height="1" fill="#dcdcdc0a"/>
  <rect x="7" y="7" width="1" height="1" fill="#e4e4e40b"/>
  <rect x="8" y="7" width="1" height="1" fill="#e9e9e9d5"/>
  <rect x="9" y="7" width="1" height="1" fill="#e5e5e5f8"/>
  <rect x="10" y="7" width="1" height="1" fill="#e0e0e02f"/>
  <rect x="11" y="7" width="1" height="1" fill="#dbdbdb0d"/>
  <rect x="12" y="7" width="1" height="1" fill="#9797970d"/>
  <rect x="13" y="7" width="1" height="2" fill="#9797972c"/>
  <rect x="14" y="7" width="1" height="1" fill="#969696f6"/>
  <rect x="15" y="7" width="1" height="1" fill="#969696d5"/>
  <rect x="16" y="7" width="1" height="1" fill="#9595950b"/>
  <rect x="17" y="7" width="1" height="1" fill="#9595950a"/>
  <rect x="18" y="7" width="1" height="1" fill="#9494940a"/>
  <rect x="19" y="7" width="1" height="1" fill="#9494940b"/>
  <rect x="20" y="7" width="1" height="1" fill="#959595d5"/>
  <rect x="21" y="7" width="1" height="1" fill="#959595f8"/>
  <rect x="22" y="7" width="1" height="1" fill="#9595952f"/>
  <rect x="23" y="7" width="2" height="1" fill="#9595950d"/>
  <rect x="25" y="7" width="1" height="1" fill="#9595952c"/>
  <rect x="26" y="7" width="1" height="1" fill="#959595f6"/>
  <rect x="27" y="7" width="1" height="1" fill="#959595d5"/>
  <rect x="28" y="7" width="1" height="1" fill="#9494940b"/>
  <rect x="29" y="7" width="2" height="1" fill="#9494940a"/>
  <rect x="31" y="7" width="1" height="1" fill="#9494940b"/>
  <rect x="32" y="7" width="1" height="1" fill="#979797d5"/>
  <rect x="33" y="7" width="1" height="1" fill="#959595f8"/>
  <rect x="34" y="7" width="1" height="1" fill="#9292922f"/>
  <rect x="35" y="7" width="1" height="1" fill="#8f8f8f0d"/>
  <rect x="2" y="8" width="1" height="1" fill="#e0e0e0ee"/>
  <rect x="3" y="8" width="1" height="1" fill="#e5e5e5"/>
  <rect x="4" y="8" width="1" height="1" fill="#e8e8e8d6"/>
  <rect x="5" y="8" width="1" height="1" fill="#e9e9e972"/>
  <rect x="6" y="8" width="1" height="1" fill="#e1e1e172"/>
  <rect x="7" y="8" width="1" height="1" fill="#e3e3e3d6"/>
  <rect x="8" y="8" width="1" height="1" fill="#e3e3e3"/>
  <rect x="9" y="8" width="1" height="1" fill="#f0f0f0ee"/>
  <rect x="10" y="8" width="1" height="1" fill="#e4e4e42c"/>
  <rect x="14" y="8" width="1" height="1" fill="#969696ee"/>
  <rect x="15" y="8" width="1" height="1" fill="#9b9b9b"/>
  <rect x="16" y="8" width="1" height="1" fill="#959595d6"/>
  <rect x="17" y="8" width="2" height="1" fill="#95959572"/>
  <rect x="19" y="8" width="1" height="1" fill="#959595d6"/>
  <rect x="20" y="8" width="1" height="1" fill="#949494"/>
  <rect x="21" y="8" width="1" height="1" fill="#949494ee"/>
  <rect x="22" y="8" width="1" height="1" fill="#9494942c"/>
  <rect x="25" y="8" width="1" height="1" fill="#9494942c"/>
  <rect x="26" y="8" width="1" height="1" fill="#949494ee"/>
  <rect x="27" y="8" width="1" height="1" fill="#949494"/>
  <rect x="28" y="8" width="1" height="1" fill="#959595d6"/>
  <rect x="29" y="8" width="2" height="1" fill="#95959572"/>
  <rect x="31" y="8" width="1" height="1" fill="#959595d6"/>
  <rect x="32" y="8" width="1" height="1" fill="#9a9a9a"/>
  <rect x="33" y="8" width="1" height="1" fill="#9a9a9aee"/>
  <rect x="34" y="8" width="1" height="1" fill="#9a9a9a2c"/>
  <rect x="1" y="9" width="1" height="1" fill="#dededea7"/>
  <rect x="2" y="9" width="1" height="1" fill="#e0e0e0"/>
  <rect x="3" y="9" width="1" height="1" fill="#e2e2e2ef"/>
  <rect x="4" y="9" width="1" height="1" fill="#e5e5e5f9"/>
  <rect x="5" y="9" width="1" height="1" fill="#e8e8e8"/>
  <rect x="6" y="9" width="1" height="1" fill="#e5e5e5"/>
  <rect x="7" y="9" width="1" height="1" fill="#e0e0e0f8"/>
  <rect x="8" y="9" width="1" height="1" fill="#d9d9d9ef"/>
  <rect x="9" y="9" width="1" height="1" fill="#e2e2e2"/>
  <rect x="10" y="9" width="1" height="1" fill="#dadadaa8"/>
  <rect x="13" y="9" width="1" height="1" fill="#939393a7"/>
  <rect x="14" y="9" width="1" height="1" fill="#8c8c8c"/>
  <rect x="15" y="9" width="1" height="1" fill="#969696ef"/>
  <rect x="16" y="9" width="1" height="1" fill="#959595f9"/>
  <rect x="17" y="9" width="2" height="2" fill="#959595"/>
  <rect x="19" y="9" width="1" height="1" fill="#959595f8"/>
  <rect x="20" y="9" width="1" height="1" fill="#949494ef"/>
  <rect x="21" y="9" width="1" height="1" fill="#949494"/>
  <rect x="22" y="9" width="1" height="1" fill="#949494a8"/>
  <rect x="25" y="9" width="1" height="1" fill="#949494a7"/>
  <rect x="26" y="9" width="1" height="1" fill="#949494"/>
  <rect x="27" y="9" width="1" height="1" fill="#949494ef"/>
  <rect x="28" y="9" width="1" height="1" fill="#959595f9"/>
  <rect x="29" y="9" width="2" height="2" fill="#959595"/>
  <rect x="31" y="9" width="1" height="1" fill="#959595f8"/>
  <rect x="32" y="9" width="1" height="1" fill="#939393ef"/>
  <rect x="33" y="9" width="1" height="1" fill="#939393"/>
  <rect x="34" y="9" width="1" height="1" fill="#939393a8"/>
  <rect x="1" y="10" width="1" height="1" fill="#dedede1e"/>
  <rect x="2" y="10" width="1" height="1" fill="#e0e0e0a3"/>
  <rect x="3" y="10" width="2" height="1" fill="#e1e1e12c"/>
  <rect x="5" y="10" width="1" height="1" fill="#e1e1e1"/>
  <rect x="6" y="10" width="1" height="1" fill="#e3e3e3"/>
  <rect x="7" y="10" width="1" height="1" fill="#e1e1e12b"/>
  <rect x="8" y="10" width="1" height="1" fill="#d5d5d52d"/>
  <rect x="9" y="10" width="1" height="1" fill="#d9d9d9a2"/>
  <rect x="10" y="10" width="1" height="1" fill="#d5d5d51e"/>
  <rect x="13" y="10" width="1" height="1" fill="#9393931e"/>
  <rect x="14" y="10" width="1" height="1" fill="#909090a3"/>
  <rect x="15" y="10" width="1" height="1" fill="#9696962c"/>
  <rect x="16" y="10" width="1" height="1" fill="#9595952c"/>
  <rect x="19" y="10" width="1" height="1" fill="#9595952b"/>
  <rect x="20" y="10" width="1" height="1" fill="#9494942d"/>
  <rect x="21" y="10" width="1" height="1" fill="#949494a2"/>
  <rect x="22" y="10" width="1" height="1" fill="#9494941e"/>
  <rect x="25" y="10" width="1" height="1" fill="#9494941e"/>
  <rect x="26" y="10" width="1" height="1" fill="#949494a3"/>
  <rect x="27" y="10" width="1" height="1" fill="#9494942c"/>
  <rect x="28" y="10" width="1" height="1" fill="#9595952c"/>
  <rect x="31" y="10" width="1" height="1" fill="#9595952b"/>
  <rect x="32" y="10" width="1" height="1" fill="#9090902d"/>
  <rect x="33" y="10" width="1" height="1" fill="#909090a2"/>
  <rect x="34" y="10" width="1" height="1" fill="#9090901e"/>
  <rect x="4" y="11" width="1" height="1" fill="#dddddd0f"/>
  <rect x="5" y="11" width="1" height="1" fill="#dcdcdced"/>
  <rect x="6" y="11" width="1" height="1" fill="#dddddded"/>
  <rect x="7" y="11" width="1" height="1" fill="#dedede10"/>
  <rect x="16" y="11" width="1" height="1" fill="#9494940f"/>
  <rect x="17" y="11" width="2" height="1" fill="#949494ed"/>
  <rect x="19" y="11" width="1" height="1" fill="#94949410"/>
  <rect x="28" y="11" width="1" height="1" fill="#9494940f"/>
  <rect x="29" y="11" width="2" height="1" fill="#949494ed"/>
  <rect x="31" y="11" width="1" height="1" fill="#94949410"/>
</svg>