<svg xmlns="http://www.w3.org/2000/svg" width="395" height="5" viewBox="0 0 395 5" shape-rendering="crispEdges">
  <rect x="0" y="0" width="12" height="4" fill="#edf6f7"/>
  <rect x="12" y="0" width="8" height="4" fill="#edf5f9"/>
  <rect x="20" y="0" width="8" height="4" fill="#edf5fb"/>
  <rect x="28" y="0" width="16" height="5" fill="#edf5f9"/>
  <rect x="44" y="0" width="4" height="5" fill="#edf5fb"/>
  <rect x="48" y="0" width="32" height="5" fill="#eef7fb"/>
  <rect x="80" y="0" width="48" height="5" fill="#eff8fc"/>
  <rect x="128" y="0" width="4" height="5" fill="#f0f9fd"/>
  <rect x="132" y="0" width="2" height="5" fill="#f2f8fd"/>
  <rect x="134" y="0" width="4" height="5" fill="#f2f9fb"/>
  <rect x="138" y="0" width="2" height="5" fill="#f2f9f9"/>
  <rect x="140" y="0" width="4" height="4" fill="#f4f8f9"/>
  <rect x="144" y="0" width="12" height="5" fill="#f2f9fb"/>
  <rect x="156" y="0" width="8" height="5" fill="#f2f8fd"/>
  <rect x="164" y="0" width="2" height="5" fill="#f2f8ff"/>
  <rect x="166" y="0" width="4" height="5" fill="#f2f8fd"/>
  <rect x="170" y="0" width="6" height="5" fill="#f2f9fb"/>
  <rect x="176" y="0" width="40" height="5" fill="#f3fafc"/>
  <rect x="216" y="0" width="20" height="4" fill="#f4fbfd"/>
  <rect x="236" y="0" width="4" height="5" fill="#f6fafd"/>
  <rect x="240" y="0" width="4" height="5" fill="#f7fbfe"/>
  <rect x="244" y="0" width="2" height="5" fill="#f9fafe"/>
  <rect x="246" y="0" width="4" height="5" fill="#f7fbfe"/>
  <rect x="250" y="0" width="2" height="5" fill="#f6fcfe"/>
  <rect x="252" y="0" width="4" height="4" fill="#f6fcfc"/>
  <rect x="256" y="0" width="12" height="4" fill="#f7fcfc"/>
  <rect x="268" y="0" width="4" height="5" fill="#f7fbfe"/>
  <rect x="272" y="0" width="16" height="4" fill="#f7fcfc"/>
  <rect x="288" y="0" width="32" height="5" fill="#fafcfe"/>
  <rect x="320" y="0" width="44" height="5" fill="#fbfdff"/>
  <rect x="364" y="0" width="4" height="5" fill="#fbfdfd"/>
  <rect x="368" y="0" width="12" height="5" fill="#fcfffe"/>
  <rect x="380" y="0" width="4" height="5" fill="#fcfeff"/>
  <rect x="384" y="0" width="4" height="5" fill="#fcfffe"/>
  <rect x="388" y="0" width="7" height="5" fill="#fefefe"/>
  <rect x="0" y="4" width="8" height="1" fill="#edf6f7"/>
  <rect x="8" y="4" width="8" height="1" fill="#edf5f9"/>
  <rect x="16" y="4" width="12" height="1" fill="#edf5fb"/>
  <rect x="140" y="4" width="4" height="1" fill="#f4f8fb"/>
  <rect x="216" y="4" width="12" height="1" fill="#f4fbfd"/>
  <rect x="228" y="4" width="2" height="1" fill="#f6fafd"/>
  <rect x="230" y="4" width="6" height="1" fill="#f4fbfd"/>
  <rect x="252" y="4" width="16" height="1" fill="#f7fcfc"/>
  <rect x="272" y="4" width="12" height="1" fill="#f7fcfc"/>
  <rect x="284" y="4" width="4" height="1" fill="#f9fbfc"/>
</svg>