<svg xmlns="http://www.w3.org/2000/svg" width="16" height="16" viewBox="0 0 16 16" shape-rendering="crispEdges">
  <rect x="5" y="0" width="1" height="1" fill="#ff726370"/>
  <rect x="6" y="0" width="1" height="1" fill="#d0190040"/>
  <rect x="7" y="0" width="1" height="1" fill="#d3150040"/>
  <rect x="8" y="0" width="1" height="1" fill="#d1190080"/>
  <rect x="9" y="0" width="1" height="1" fill="#d720079f"/>
  <rect x="10" y="0" width="1" height="1" fill="#dd2401af"/>
  <rect x="11" y="0" width="1" height="1" fill="#e1210010"/>
  <rect x="3" y="1" width="1" height="1" fill="#e13b1c30"/>
  <rect x="4" y="1" width="1" height="1" fill="#ff6656af"/>
  <rect x="5" y="1" width="1" height="1" fill="#f34b3b"/>
  <rect x="6" y="1" width="1" height="1" fill="#d72200"/>
  <rect x="7" y="1" width="1" height="1" fill="#df2400"/>
  <rect x="8" y="1" width="1" height="1" fill="#cf1600"/>
  <rect x="9" y="1" width="1" height="1" fill="#c91000"/>
  <rect x="10" y="1" width="1" height="1" fill="#cd1500"/>
  <rect x="11" y="1" width="1" height="1" fill="#db1f00cf"/>
  <rect x="12" y="1" width="1" height="1" fill="#e7200610"/>
  <rect x="0" y="2" width="1" height="1" fill="#ad240e30"/>
  <rect x="1" y="2" width="1" height="1" fill="#bb261080"/>
  <rect x="2" y="2" width="1" height="1" fill="#d4260f9f"/>
  <rect x="3" y="2" width="1" height="1" fill="#df2713"/>
  <rect x="4" y="2" width="1" height="1" fill="#de2c1d"/>
  <rect x="5" y="2" width="1" height="1" fill="#d52511"/>
  <rect x="6" y="2" width="1" height="1" fill="#d21f00"/>
  <rect x="7" y="2" width="1" height="1" fill="#e42d09"/>
  <rect x="8" y="2" width="1" height="1" fill="#ef311b"/>
  <rect x="9" y="2" width="1" height="1" fill="#f93d2b"/>
  <rect x="10" y="2" width="1" height="1" fill="#f8452d"/>
  <rect x="11" y="2" width="1" height="1" fill="#f23e26"/>
  <rect x="12" y="2" width="1" height="1" fill="#e51f12cf"/>
  <rect x="13" y="2" width="1" height="1" fill="#c92d2810"/>
  <rect x="0" y="3" width="1" height="1" fill="#d7260780"/>
  <rect x="1" y="3" width="1" height="1" fill="#d92509"/>
  <rect x="2" y="3" width="1" height="1" fill="#da230f"/>
  <rect x="3" y="3" width="1" height="1" fill="#dc2211"/>
  <rect x="4" y="3" width="1" height="1" fill="#f64030"/>
  <rect x="5" y="3" width="1" height="1" fill="#dd2a15"/>
  <rect x="6" y="3" width="1" height="1" fill="#e1310f"/>
  <rect x="7" y="3" width="1" height="1" fill="#db2807"/>
  <rect x="8" y="3" width="1" height="1" fill="#e22b15"/>
  <rect x="9" y="3" width="1" height="1" fill="#dc2b1a"/>
  <rect x="10" y="3" width="1" height="1" fill="#d6331f"/>
  <rect x="11" y="3" width="1" height="1" fill="#e13926"/>
  <rect x="12" y="3" width="1" height="1" fill="#e32619"/>
  <rect x="13" y="3" width="1" height="1" fill="#cf2a2240"/>
  <rect x="0" y="4" width="1" height="1" fill="#d12300bf"/>
  <rect x="1" y="4" width="1" height="1" fill="#c91d00"/>
  <rect x="2" y="4" width="1" height="1" fill="#cb2008"/>
  <rect x="3" y="4" width="1" height="1" fill="#ee422f"/>
  <rect x="4" y="4" width="1" height="1" fill="#d0220d"/>
  <rect x="5" y="4" width="1" height="1" fill="#da2a13"/>
  <rect x="6" y="4" width="1" height="1" fill="#cb1c00"/>
  <rect x="7" y="4" width="1" height="1" fill="#c31800"/>
  <rect x="8" y="4" width="1" height="1" fill="#ba1801"/>
  <rect x="9" y="4" width="1" height="1" fill="#dc4531"/>
  <rect x="10" y="4" width="1" height="1" fill="#f16550"/>
  <rect x="11" y="4" width="1" height="1" fill="#d03d26"/>
  <rect x="12" y="4" width="1" height="1" fill="#d3280e"/>
  <rect x="13" y="4" width="1" height="1" fill="#dd2b13bf"/>
  <rect x="14" y="4" width="1" height="1" fill="#ca2614af"/>
  <rect x="15" y="4" width="1" height="1" fill="#c1261810"/>
  <rect x="0" y="5" width="1" height="1" fill="#c9240350"/>
  <rect x="1" y="5" width="1" height="1" fill="#c72103ef"/>
  <rect x="2" y="5" width="1" height="1" fill="#cb270e"/>
  <rect x="3" y="5" width="1" height="1" fill="#f04b36"/>
  <rect x="4" y="5" width="1" height="1" fill="#c61d06"/>
  <rect x="5" y="5" width="1" height="1" fill="#ef442c"/>
  <rect x="6" y="5" width="1" height="1" fill="#be1000"/>
  <rect x="7" y="5" width="1" height="1" fill="#bb1600"/>
  <rect x="8" y="5" width="1" height="1" fill="#b9240d"/>
  <rect x="9" y="5" width="1" height="1" fill="#ff7a67"/>
  <rect x="10" y="5" width="1" height="1" fill="#ff8978"/>
  <rect x="11" y="5" width="1" height="1" fill="#d2533e"/>
  <rect x="12" y="5" width="1" height="1" fill="#cf3419"/>
  <rect x="13" y="5" width="1" height="1" fill="#ec3b1e"/>
  <rect x="14" y="5" width="1" height="1" fill="#df2007"/>
  <rect x="15" y="5" width="1" height="1" fill="#e41d0a9f"/>
  <rect x="0" y="6" width="1" height="1" fill="#ff716560"/>
  <rect x="1" y="6" width="1" height="1" fill="#e54839"/>
  <rect x="2" y="6" width="1" height="1" fill="#bd1a04"/>
  <rect x="3" y="6" width="1" height="1" fill="#c01902"/>
  <rect x="4" y="6" width="1" height="1" fill="#d9341e"/>
  <rect x="5" y="6" width="1" height="1" fill="#c8210c"/>
  <rect x="6" y="6" width="1" height="1" fill="#d22814"/>
  <rect x="7" y="6" width="1" height="1" fill="#dc3b26"/>
  <rect x="8" y="6" width="1" height="1" fill="#de5039"/>
  <rect x="9" y="6" width="1" height="1" fill="#f9826d"/>
  <rect x="10" y="6" width="1" height="1" fill="#ffddce"/>
  <rect x="11" y="6" width="1" height="1" fill="#e78071"/>
  <rect x="12" y="6" width="1" height="1" fill="#d04633"/>
  <rect x="13" y="6" width="1" height="1" fill="#d8331d"/>
  <rect x="14" y="6" width="1" height="1" fill="#d11f09"/>
  <rect x="15" y="6" width="1" height="1" fill="#dc200c"/>
  <rect x="0" y="7" width="1" height="1" fill="#fd6259bf"/>
  <rect x="1" y="7" width="1" height="1" fill="#db3c2f"/>
  <rect x="2" y="7" width="1" height="1" fill="#b51000"/>
  <rect x="3" y="7" width="1" height="1" fill="#b81400"/>
  <rect x="4" y="7" width="1" height="1" fill="#cd311b"/>
  <rect x="5" y="7" width="1" height="1" fill="#f25843"/>
  <rect x="6" y="7" width="1" height="1" fill="#db3929"/>
  <rect x="7" y="7" width="1" height="1" fill="#d33929"/>
  <rect x="8" y="7" width="1" height="1" fill="#cc422e"/>
  <rect x="9" y="7" width="1" height="1" fill="#d35b48"/>
  <rect x="10" y="7" width="1" height="1" fill="#f99587"/>
  <rect x="11" y="7" width="1" height="1" fill="#bf564a"/>
  <rect x="12" y="7" width="1" height="1" fill="#de5445"/>
  <rect x="13" y="7" width="1" height="1" fill="#b91604"/>
  <rect x="14" y="7" width="1" height="1" fill="#c91804"/>
  <rect x="15" y="7" width="1" height="1" fill="#d72009"/>
  <rect x="0" y="8" width="1" height="1" fill="#f74635ef"/>
  <rect x="1" y="8" width="1" height="1" fill="#de301b"/>
  <rect x="2" y="8" width="1" height="1" fill="#bb1100"/>
  <rect x="3" y="8" width="1" height="1" fill="#b61800"/>
  <rect x="4" y="8" width="1" height="1" fill="#940b00"/>
  <rect x="5" y="8" width="1" height="1" fill="#ab270f"/>
  <rect x="6" y="8" width="1" height="1" fill="#c93527"/>
  <rect x="7" y="8" width="1" height="1" fill="#d13b30"/>
  <rect x="8" y="8" width="1" height="1" fill="#c93f30"/>
  <rect x="9" y="8" width="1" height="1" fill="#c54132"/>
  <rect x="10" y="8" width="1" height="1" fill="#f7776a"/>
  <rect x="11" y="8" width="1" height="1" fill="#cd4737"/>
  <rect x="12" y="8" width="1" height="1" fill="#c52818"/>
  <rect x="13" y="8" width="1" height="1" fill="#ba0d00"/>
  <rect x="14" y="8" width="1" height="1" fill="#cb1302"/>
  <rect x="15" y="8" width="1" height="1" fill="#d91b09"/>
  <rect x="0" y="9" width="1" height="1" fill="#d317029f"/>
  <rect x="1" y="9" width="1" height="1" fill="#d9240d"/>
  <rect x="2" y="9" width="1" height="1" fill="#cf230d"/>
  <rect x="3" y="9" width="1" height="1" fill="#d1331d"/>
  <rect x="4" y="9" width="1" height="1" fill="#9b1000"/>
  <rect x="5" y="9" width="1" height="1" fill="#890100"/>
  <rect x="6" y="9" width="1" height="1" fill="#9d0700"/>
  <rect x="7" y="9" width="1" height="1" fill="#a30a00"/>
  <rect x="8" y="9" width="1" height="1" fill="#a41206"/>
  <rect x="9" y="9" width="1" height="1" fill="#c13222"/>
  <rect x="10" y="9" width="1" height="1" fill="#f05d4d"/>
  <rect x="11" y="9" width="1" height="1" fill="#e44a37"/>
  <rect x="12" y="9" width="1" height="1" fill="#cd2512"/>
  <rect x="13" y="9" width="1" height="1" fill="#c41100"/>
  <rect x="14" y="9" width="1" height="1" fill="#d51604"/>
  <rect x="15" y="9" width="1" height="1" fill="#dc1907af"/>
  <rect x="1" y="10" width="1" height="1" fill="#d21f0c60"/>
  <rect x="2" y="10" width="1" height="1" fill="#cb210d"/>
  <rect x="3" y="10" width="1" height="1" fill="#d3301c"/>
  <rect x="4" y="10" width="1" height="1" fill="#c82515"/>
  <rect x="5" y="10" width="1" height="1" fill="#c11d10"/>
  <rect x="6" y="10" width="1" height="1" fill="#b30c00"/>
  <rect x="7" y="10" width="1" height="1" fill="#bd190c"/>
  <rect x="8" y="10" width="1" height="1" fill="#cb311f"/>
  <rect x="9" y="10" width="1" height="1" fill="#ca301b"/>
  <rect x="10" y="10" width="1" height="1" fill="#d0301b"/>
  <rect x="11" y="10" width="1" height="1" fill="#cb270e"/>
  <rect x="12" y="10" width="1" height="1" fill="#d0250c"/>
  <rect x="13" y="10" width="1" height="1" fill="#cd1801"/>
  <rect x="14" y="10" width="1" height="1" fill="#de1e08"/>
  <rect x="15" y="10" width="1" height="1" fill="#e0180560"/>
  <rect x="2" y="11" width="1" height="1" fill="#9c2c0790"/>
  <rect x="3" y="11" width="1" height="1" fill="#bc4222fc"/>
  <rect x="4" y="11" width="1" height="1" fill="#d6412b"/>
  <rect x="5" y="11" width="1" height="1" fill="#d32f1e"/>
  <rect x="6" y="11" width="1" height="1" fill="#d32a1a"/>
  <rect x="7" y="11" width="1" height="1" fill="#c31d0c"/>
  <rect x="8" y="11" width="1" height="1" fill="#a10100"/>
  <rect x="9" y="11" width="1" height="1" fill="#a80800"/>
  <rect x="10" y="11" width="1" height="1" fill="#bf1702"/>
  <rect x="11" y="11" width="1" height="1" fill="#cd2a14"/>
  <rect x="12" y="11" width="1" height="1" fill="#c22b0e"/>
  <rect x="13" y="11" width="1" height="1" fill="#b92a0b"/>
  <rect x="14" y="11" width="1" height="1" fill="#c133139f"/>
  <rect x="1" y="12" width="1" height="1" fill="#4c450010"/>
  <rect x="2" y="12" width="1" height="1" fill="#434300df"/>
  <rect x="3" y="12" width="1" height="1" fill="#583900"/>
  <rect x="4" y="12" width="1" height="1" fill="#8a2a02"/>
  <rect x="5" y="12" width="1" height="1" fill="#ad2508"/>
  <rect x="6" y="12" width="1" height="1" fill="#ad1400"/>
  <rect x="7" y="12" width="1" height="1" fill="#a60600"/>
  <rect x="8" y="12" width="1" height="1" fill="#a40100"/>
  <rect x="9" y="12" width="1" height="1" fill="#b50f00"/>
  <rect x="10" y="12" width="1" height="1" fill="#d1291b"/>
  <rect x="11" y="12" width="1" height="1" fill="#da4734"/>
  <rect x="12" y="12" width="1" height="1" fill="#9b3717"/>
  <rect x="13" y="12" width="1" height="1" fill="#682900e7"/>
  <rect x="14" y="12" width="1" height="1" fill="#522f0016"/>
  <rect x="1" y="13" width="1" height="1" fill="#23530196"/>
  <rect x="2" y="13" width="1" height="1" fill="#215100"/>
  <rect x="3" y="13" width="1" height="1" fill="#384900"/>
  <rect x="4" y="13" width="1" height="1" fill="#6a3800"/>
  <rect x="5" y="13" width="1" height="1" fill="#993308"/>
  <rect x="6" y="13" width="1" height="1" fill="#b32706"/>
  <rect x="7" y="13" width="1" height="1" fill="#b21000"/>
  <rect x="8" y="13" width="1" height="1" fill="#bf1501"/>
  <rect x="9" y="13" width="1" height="1" fill="#cd2311"/>
  <rect x="10" y="13" width="1" height="1" fill="#e13d2c"/>
  <rect x="11" y="13" width="1" height="1" fill="#d2543a"/>
  <rect x="12" y="13" width="1" height="1" fill="#6d3206"/>
  <rect x="13" y="13" width="1" height="1" fill="#382d00"/>
  <rect x="14" y="13" width="1" height="1" fill="#192d0073"/>
  <rect x="0" y="14" width="1" height="1" fill="#1f4c003a"/>
  <rect x="1" y="14" width="1" height="1" fill="#295305e7"/>
  <rect x="2" y="14" width="1" height="1" fill="#264900f2"/>
  <rect x="3" y="14" width="1" height="1" fill="#243500"/>
  <rect x="4" y="14" width="1" height="1" fill="#4d4100"/>
  <rect x="5" y="14" width="1" height="1" fill="#7c3f04f3"/>
  <rect x="6" y="14" width="1" height="1" fill="#bd3a15f5"/>
  <rect x="7" y="14" width="1" height="1" fill="#e3381d"/>
  <rect x="8" y="14" width="1" height="1" fill="#ef3a21"/>
  <rect x="9" y="14" width="1" height="1" fill="#de3117"/>
  <rect x="10" y="14" width="1" height="1" fill="#bd2708f5"/>
  <rect x="11" y="14" width="1" height="1" fill="#912b00ee"/>
  <rect x="12" y="14" width="1" height="1" fill="#593c00"/>
  <rect x="13" y="14" width="1" height="1" fill="#344200fb"/>
  <rect x="14" y="14" width="1" height="1" fill="#223b00d9"/>
  <rect x="15" y="14" width="1" height="1" fill="#15350066"/>
  <rect x="0" y="15" width="1" height="1" fill="#1f4b019f"/>
  <rect x="1" y="15" width="1" height="1" fill="#143c00b8"/>
  <rect x="2" y="15" width="1" height="1" fill="#17330081"/>
  <rect x="3" y="15" width="1" height="1" fill="#20340040"/>
  <rect x="4" y="15" width="1" height="1" fill="#3b440010"/>
  <rect x="7" y="15" width="1" height="1" fill="#cd200430"/>
  <rect x="8" y="15" width="1" height="1" fill="#d41b0170"/>
  <rect x="9" y="15" width="1" height="1" fill="#d2230570"/>
  <rect x="10" y="15" width="1" height="1" fill="#b6260010"/>
  <rect x="11" y="15" width="1" height="1" fill="#842a0031"/>
  <rect x="12" y="15" width="1" height="1" fill="#46380057"/>
  <rect x="13" y="15" width="1" height="1" fill="#334d00af"/>
  <rect x="14" y="15" width="1" height="1" fill="#2e4a00b7"/>
  <rect x="15" y="15" width="1" height="1" fill="#1e3d00ba"/>
</svg>