<svg xmlns="http://www.w3.org/2000/svg" width="12" height="12" viewBox="0 0 12 12" shape-rendering="crispEdges">
  <rect x="0" y="0" width="1" height="1" fill="#878787c6"/>
  <rect x="1" y="0" width="1" height="1" fill="#8d8d8dde"/>
  <rect x="2" y="0" width="1" height="1" fill="#8f8f8fde"/>
  <rect x="3" y="0" width="1" height="1" fill="#888888de"/>
  <rect x="4" y="0" width="1" height="1" fill="#868686de"/>
  <rect x="5" y="0" width="1" height="1" fill="#8d8d8dde"/>
  <rect x="6" y="0" width="1" height="1" fill="#909090de"/>
  <rect x="7" y="0" width="1" height="1" fill="#8d8d8dde"/>
  <rect x="8" y="0" width="1" height="1" fill="#8c8c8cde"/>
  <rect x="9" y="0" width="1" height="1" fill="#8e8e8ede"/>
  <rect x="10" y="0" width="1" height="1" fill="#8b8b8bb9"/>
  <rect x="0" y="1" width="1" height="1" fill="#a5a5a5da"/>
  <rect x="1" y="1" width="1" height="1" fill="#a2a2a2d9"/>
  <rect x="2" y="1" width="1" height="1" fill="#b9b9b9e4"/>
  <rect x="3" y="1" width="1" height="1" fill="#c8c8c8e8"/>
  <rect x="4" y="1" width="1" height="1" fill="#a1a1a1da"/>
  <rect x="5" y="1" width="1" height="1" fill="#a9a9a9d9"/>
  <rect x="6" y="1" width="1" height="1" fill="#a5a5a5db"/>
  <rect x="7" y="1" width="1" height="1" fill="#c9c9c9e8"/>
  <rect x="8" y="1" width="1" height="1" fill="#c0c0c0e3"/>
  <rect x="9" y="1" width="1" height="1" fill="#9c9c9cd9"/>
  <rect x="10" y="1" width="1" height="1" fill="#b0b0b0d9"/>
  <rect x="0" y="2" width="1" height="1" fill="#aaaaaada"/>
  <rect x="1" y="2" width="1" height="1" fill="#d2d2d2e9"/>
  <rect x="2" y="2" width="1" height="1" fill="#ffffffb8"/>
  <rect x="3" y="2" width="1" height="1" fill="#fafafa9b"/>
  <rect x="4" y="2" width="1" height="1" fill="#9d9d9ddb"/>
  <rect x="5" y="2" width="1" height="1" fill="#9c9c9cd9"/>
  <rect x="6" y="2" width="1" height="1" fill="#b0b0b0dc"/>
  <rect x="7" y="2" width="1" height="1" fill="#fefefe9c"/>
  <rect x="8" y="2" width="1" height="1" fill="#fcfbfcbc"/>
  <rect x="9" y="2" width="1" height="1" fill="#c5c5c5e7"/>
  <rect x="10" y="2" width="1" height="1" fill="#b1b1b1d9"/>
  <rect x="0" y="3" width="1" height="1" fill="#afafafdc"/>
  <rect x="1" y="3" width="1" height="1" fill="#f1f1f196"/>
  <rect x="4" y="3" width="1" height="1" fill="#a4a4a4da"/>
  <rect x="5" y="3" width="1" height="1" fill="#a2a2a2d9"/>
  <rect x="6" y="3" width="1" height="1" fill="#a7a6a7da"/>
  <rect x="9" y="3" width="1" height="1" fill="#f5f5f5a6"/>
  <rect x="10" y="3" width="1" height="1" fill="#b2b2b2d8"/>
  <rect x="0" y="4" width="1" height="1" fill="#fcfbfcd2"/>
  <rect x="1" y="4" width="1" height="1" fill="#f7f7f711"/>
  <rect x="4" y="4" width="1" height="1" fill="#a7a6a7da"/>
  <rect x="5" y="4" width="1" height="1" fill="#a4a4a4d9"/>
  <rect x="6" y="4" width="1" height="1" fill="#a9a9a9da"/>
  <rect x="9" y="4" width="1" height="1" fill="#ffffff18"/>
  <rect x="10" y="4" width="1" height="1" fill="#f9f9f9c9"/>
  <rect x="0" y="5" width="1" height="1" fill="#f6f6f60a"/>
  <rect x="4" y="5" width="1" height="1" fill="#a3a3a3da"/>
  <rect x="5" y="5" width="1" height="1" fill="#a1a1a1d9"/>
  <rect x="6" y="5" width="1" height="1" fill="#a5a5a5da"/>
  <rect x="10" y="5" width="1" height="1" fill="#fdfdfd0a"/>
  <rect x="4" y="6" width="1" height="1" fill="#a2a2a2da"/>
  <rect x="5" y="6" width="1" height="1" fill="#a0a0a0d9"/>
  <rect x="6" y="6" width="1" height="2" fill="#a4a4a4da"/>
  <rect x="4" y="7" width="1" height="1" fill="#a3a3a3da"/>
  <rect x="5" y="7" width="1" height="1" fill="#9e9e9ed9"/>
  <rect x="4" y="8" width="1" height="1" fill="#9b9b9bda"/>
  <rect x="5" y="8" width="1" height="1" fill="#9b9b9bd9"/>
  <rect x="6" y="8" width="1" height="1" fill="#a2a2a2da"/>
  <rect x="4" y="9" width="1" height="1" fill="#9c9c9cda"/>
  <rect x="5" y="9" width="1" height="1" fill="#999999d9"/>
  <rect x="6" y="9" width="1" height="1" fill="#9d9d9dda"/>
  <rect x="4" y="10" width="1" height="1" fill="#9d9d9dd9"/>
  <rect x="5" y="10" width="1" height="1" fill="#979797d9"/>
  <rect x="6" y="10" width="1" height="1" fill="#979797db"/>
  <rect x="2" y="11" width="1" height="1" fill="#87878755"/>
  <rect x="3" y="11" width="1" height="1" fill="#818181b2"/>
  <rect x="4" y="11" width="1" height="1" fill="#9e9e9ed9"/>
  <rect x="5" y="11" width="1" height="1" fill="#969696d9"/>
  <rect x="6" y="11" width="1" height="1" fill="#949494d9"/>
  <rect x="7" y="11" width="1" height="1" fill="#7e7e7ebe"/>
  <rect x="8" y="11" width="1" height="1" fill="#7f7f7f55"/>
</svg>