<svg xmlns="http://www.w3.org/2000/svg" width="16" height="16" viewBox="0 0 16 16" shape-rendering="crispEdges">
  <rect x="0" y="1" width="1" height="1" fill="#30aedf49"/>
  <rect x="1" y="1" width="1" height="1" fill="#30aedfe6"/>
  <rect x="2" y="1" width="12" height="1" fill="#30aedf"/>
  <rect x="14" y="1" width="1" height="1" fill="#30aedfe6"/>
  <rect x="15" y="1" width="1" height="1" fill="#30aedf49"/>
  <rect x="0" y="2" width="1" height="1" fill="#30aedfe6"/>
  <rect x="1" y="2" width="14" height="1" fill="#30aedf"/>
  <rect x="15" y="2" width="1" height="1" fill="#30aedfe6"/>
  <rect x="0" y="3" width="2" height="10" fill="#30aedf"/>
  <rect x="2" y="3" width="1" height="1" fill="#30aedf3c"/>
  <rect x="13" y="3" width="1" height="1" fill="#30aedf3c"/>
  <rect x="14" y="3" width="2" height="3" fill="#30aedf"/>
  <rect x="7" y="4" width="1" height="1" fill="#30aedf49"/>
  <rect x="8" y="4" width="2" height="1" fill="#30aedfe6"/>
  <rect x="10" y="4" width="1" height="1" fill="#30aedf49"/>
  <rect x="3" y="5" width="1" height="2" fill="#30aedfc3"/>
  <rect x="4" y="5" width="1" height="2" fill="#30aedf"/>
  <rect x="5" y="5" width="1" height="1" fill="#30aedfc3"/>
  <rect x="7" y="5" width="1" height="2" fill="#30aedfe6"/>
  <rect x="8" y="5" width="1" height="1" fill="#30aedfaf"/>
  <rect x="9" y="5" width="1" height="1" fill="#30aedfae"/>
  <rect x="10" y="5" width="1" height="1" fill="#30aedfe6"/>
  <rect x="5" y="6" width="1" height="1" fill="#30aedfc4"/>
  <rect x="8" y="6" width="1" height="1" fill="#30aedfae"/>
  <rect x="9" y="6" width="1" height="1" fill="#30aedfad"/>
  <rect x="10" y="6" width="1" height="1" fill="#30afdde7"/>
  <rect x="14" y="6" width="2" height="4" fill="#30afdd"/>
  <rect x="7" y="7" width="1" height="1" fill="#30aedf4a"/>
  <rect x="8" y="7" width="1" height="1" fill="#30aedfe7"/>
  <rect x="9" y="7" width="1" height="1" fill="#30aedfe4"/>
  <rect x="10" y="7" width="1" height="1" fill="#30afdd4a"/>
  <rect x="3" y="8" width="2" height="1" fill="#30aedfe1"/>
  <rect x="6" y="8" width="1" height="1" fill="#30afdd2f"/>
  <rect x="7" y="8" width="1" height="1" fill="#30afddbb"/>
  <rect x="8" y="8" width="2" height="1" fill="#30afddfc"/>
  <rect x="10" y="8" width="1" height="1" fill="#30afddbb"/>
  <rect x="11" y="8" width="1" height="1" fill="#30afdd30"/>
  <rect x="5" y="9" width="1" height="1" fill="#30aedf32"/>
  <rect x="6" y="9" width="1" height="1" fill="#30afddf4"/>
  <rect x="7" y="9" width="4" height="1" fill="#30afdd"/>
  <rect x="11" y="9" width="1" height="1" fill="#30afddf4"/>
  <rect x="12" y="9" width="1" height="1" fill="#30afdd32"/>
  <rect x="5" y="10" width="1" height="1" fill="#30aedfba"/>
  <rect x="6" y="10" width="1" height="2" fill="#30afdd"/>
  <rect x="7" y="10" width="1" height="1" fill="#30afddb6"/>
  <rect x="8" y="10" width="2" height="1" fill="#30afdd19"/>
  <rect x="10" y="10" width="1" height="1" fill="#30afdbb6"/>
  <rect x="11" y="10" width="1" height="2" fill="#30afdb"/>
  <rect x="12" y="10" width="1" height="1" fill="#30afdbba"/>
  <rect x="14" y="10" width="2" height="3" fill="#30afdb"/>
  <rect x="5" y="11" width="1" height="1" fill="#30aedffb"/>
  <rect x="7" y="11" width="1" height="1" fill="#30afdd19"/>
  <rect x="10" y="11" width="1" height="1" fill="#30afdb19"/>
  <rect x="12" y="11" width="1" height="1" fill="#30afdbfc"/>
  <rect x="2" y="12" width="1" height="1" fill="#30aedf3c"/>
  <rect x="13" y="12" width="1" height="1" fill="#30afdb3b"/>
  <rect x="0" y="13" width="1" height="1" fill="#30aedfe6"/>
  <rect x="1" y="13" width="5" height="1" fill="#30aedf"/>
  <rect x="6" y="13" width="4" height="2" fill="#30afdd"/>
  <rect x="10" y="13" width="5" height="1" fill="#30afdb"/>
  <rect x="15" y="13" width="1" height="1" fill="#30afdbe7"/>
  <rect x="0" y="14" width="1" height="1" fill="#30aedf4a"/>
  <rect x="1" y="14" width="1" height="1" fill="#30aedfe7"/>
  <rect x="2" y="14" width="4" height="1" fill="#30aedf"/>
  <rect x="10" y="14" width="4" height="1" fill="#30afdb"/>
  <rect x="14" y="14" width="1" height="1" fill="#30afdbe4"/>
  <rect x="15" y="14" width="1" height="1" fill="#30afdb4a"/>
</svg>