<svg xmlns="http://www.w3.org/2000/svg" width="24" height="14" viewBox="0 0 24 14" shape-rendering="crispEdges">
  <rect x="0" y="1" width="1" height="1" fill="#6c6c6c27"/>
  <rect x="1" y="1" width="1" height="1" fill="#6969697b"/>
  <rect x="2" y="1" width="1" height="1" fill="#76767688"/>
  <rect x="3" y="1" width="1" height="1" fill="#71717188"/>
  <rect x="4" y="1" width="5" height="1" fill="#77777788"/>
  <rect x="9" y="1" width="1" height="1" fill="#7a7a7a88"/>
  <rect x="10" y="1" width="1" height="1" fill="#6f6f6f7b"/>
  <rect x="11" y="1" width="1" height="1" fill="#72727227"/>
  <rect x="12" y="1" width="1" height="1" fill="#8b8b8b49"/>
  <rect x="13" y="1" width="1" height="1" fill="#8e8e8ee6"/>
  <rect x="14" y="1" width="1" height="1" fill="#868686"/>
  <rect x="15" y="1" width="1" height="1" fill="#8b8a8d"/>
  <rect x="16" y="1" width="4" height="1" fill="#8a8c90"/>
  <rect x="20" y="1" width="1" height="1" fill="#88898d"/>
  <rect x="21" y="1" width="1" height="1" fill="#898b8f"/>
  <rect x="22" y="1" width="1" height="1" fill="#898b8fe6"/>
  <rect x="23" y="1" width="1" height="1" fill="#898b8f49"/>
  <rect x="0" y="2" width="1" height="1" fill="#9090907c"/>
  <rect x="1" y="2" width="1" height="1" fill="#9c9c9c75"/>
  <rect x="2" y="2" width="1" height="1" fill="#99999973"/>
  <rect x="3" y="2" width="1" height="1" fill="#a4a4a473"/>
  <rect x="4" y="2" width="4" height="1" fill="#9e9e9e73"/>
  <rect x="8" y="2" width="1" height="1" fill="#a7a6a773"/>
  <rect x="9" y="2" width="1" height="1" fill="#9c9c9c73"/>
  <rect x="10" y="2" width="1" height="1" fill="#9e9e9e75"/>
  <rect x="11" y="2" width="1" height="1" fill="#9494947c"/>
  <rect x="12" y="2" width="1" height="1" fill="#9b9b9bed"/>
  <rect x="13" y="2" width="1" height="1" fill="#979797"/>
  <rect x="14" y="2" width="1" height="1" fill="#a0a0a0"/>
  <rect x="15" y="2" width="1" height="1" fill="#9c9c9e"/>
  <rect x="16" y="2" width="4" height="1" fill="#a1a3a7"/>
  <rect x="20" y="2" width="1" height="1" fill="#a6a8ac"/>
  <rect x="21" y="2" width="2" height="1" fill="#9d9ea2"/>
  <rect x="23" y="2" width="1" height="1" fill="#97999ded"/>
  <rect x="0" y="3" width="1" height="1" fill="#a0a0a075"/>
  <rect x="1" y="3" width="1" height="1" fill="#a0a0a073"/>
  <rect x="2" y="3" width="1" height="1" fill="#fcfbfcde"/>
  <rect x="3" y="3" width="1" height="1" fill="#fcfbfc"/>
  <rect x="4" y="3" width="4" height="1" fill="#fefefe"/>
  <rect x="8" y="3" width="1" height="1" fill="#fdfdfd"/>
  <rect x="9" y="3" width="1" height="1" fill="#fcfbfcde"/>
  <rect x="10" y="3" width="1" height="1" fill="#a1a1a173"/>
  <rect x="11" y="3" width="1" height="1" fill="#a0a0a075"/>
  <rect x="12" y="3" width="1" height="1" fill="#a3a3a3"/>
  <rect x="13" y="3" width="1" height="1" fill="#a4a4a4"/>
  <rect x="14" y="3" width="1" height="1" fill="#f5f5f5"/>
  <rect x="15" y="3" width="1" height="1" fill="#f7f6f9"/>
  <rect x="16" y="3" width="5" height="1" fill="#fcfeff"/>
  <rect x="21" y="3" width="1" height="1" fill="#e6e8ec"/>
  <rect x="22" y="3" width="1" height="1" fill="#9fa1a5"/>
  <rect x="23" y="3" width="1" height="1" fill="#9ea0a4"/>
  <rect x="0" y="4" width="2" height="1" fill="#9d9d9d73"/>
  <rect x="2" y="4" width="1" height="1" fill="#c9c9c94d"/>
  <rect x="9" y="4" width="1" height="1" fill="#c9c9c94c"/>
  <rect x="10" y="4" width="2" height="1" fill="#9d9d9d73"/>
  <rect x="12" y="4" width="1" height="1" fill="#9b9b9b"/>
  <rect x="13" y="4" width="1" height="1" fill="#9e9e9e"/>
  <rect x="14" y="4" width="1" height="1" fill="#b8b8b86a"/>
  <rect x="21" y="4" width="1" height="1" fill="#bfc0c469"/>
  <rect x="22" y="4" width="1" height="1" fill="#a1a3a7"/>
  <rect x="23" y="4" width="1" height="1" fill="#9fa1a5"/>
  <rect x="0" y="5" width="1" height="1" fill="#9d9d9d73"/>
  <rect x="1" y="5" width="1" height="1" fill="#9e9e9e73"/>
  <rect x="2" y="5" width="1" height="1" fill="#7d7d7d83"/>
  <rect x="3" y="5" width="1" height="1" fill="#6c6c6c88"/>
  <rect x="4" y="5" width="1" height="1" fill="#77777788"/>
  <rect x="5" y="5" width="2" height="1" fill="#79797988"/>
  <rect x="7" y="5" width="1" height="1" fill="#77777788"/>
  <rect x="8" y="5" width="1" height="1" fill="#6c6c6c88"/>
  <rect x="9" y="5" width="1" height="1" fill="#7d7d7d83"/>
  <rect x="10" y="5" width="1" height="1" fill="#9e9e9e73"/>
  <rect x="11" y="5" width="1" height="1" fill="#9d9d9d73"/>
  <rect x="12" y="5" width="2" height="1" fill="#9b9b9b"/>
  <rect x="14" y="5" width="1" height="1" fill="#929292"/>
  <rect x="15" y="5" width="1" height="1" fill="#808082"/>
  <rect x="16" y="5" width="1" height="1" fill="#87888c"/>
  <rect x="17" y="5" width="2" height="1" fill="#838589"/>
  <rect x="19" y="5" width="1" height="1" fill="#87888c"/>
  <rect x="20" y="5" width="1" height="1" fill="#8a8c90"/>
  <rect x="21" y="5" width="1" height="1" fill="#8c8e92"/>
  <rect x="22" y="5" width="1" height="1" fill="#9ea0a4"/>
  <rect x="23" y="5" width="1" height="1" fill="#a0a2a6"/>
  <rect x="0" y="6" width="1" height="2" fill="#9e9e9e73"/>
  <rect x="1" y="6" width="1" height="1" fill="#a2a2a273"/>
  <rect x="2" y="6" width="1" height="1" fill="#9e9e9e73"/>
  <rect x="3" y="6" width="1" height="1" fill="#fcfbfcdf"/>
  <rect x="4" y="6" width="1" height="1" fill="#f7f7f7de"/>
  <rect x="5" y="6" width="2" height="1" fill="#9a9a9a73"/>
  <rect x="7" y="6" width="1" height="1" fill="#f7f7f7de"/>
  <rect x="8" y="6" width="1" height="1" fill="#fafafade"/>
  <rect x="9" y="6" width="1" height="1" fill="#9d9d9d73"/>
  <rect x="10" y="6" width="1" height="1" fill="#a2a2a273"/>
  <rect x="11" y="6" width="1" height="1" fill="#9e9e9e73"/>
  <rect x="12" y="6" width="1" height="1" fill="#a0a0a0"/>
  <rect x="13" y="6" width="1" height="1" fill="#9a9a9a"/>
  <rect x="14" y="6" width="1" height="1" fill="#a1a1a1"/>
  <rect x="15" y="6" width="1" height="1" fill="#f3f3f5"/>
  <rect x="16" y="6" width="1" height="1" fill="#e6e8ec"/>
  <rect x="17" y="6" width="2" height="1" fill="#9c9da1"/>
  <rect x="19" y="6" width="1" height="1" fill="#e6e8ec"/>
  <rect x="20" y="6" width="1" height="1" fill="#e5e7eb"/>
  <rect x="21" y="6" width="1" height="1" fill="#9d9ea2"/>
  <rect x="22" y="6" width="2" height="1" fill="#999b9f"/>
  <rect x="1" y="7" width="1" height="1" fill="#9c9c9c73"/>
  <rect x="2" y="7" width="1" height="1" fill="#a1a1a173"/>
  <rect x="3" y="7" width="1" height="1" fill="#ffffff3b"/>
  <rect x="4" y="7" width="1" height="1" fill="#fefefe3c"/>
  <rect x="5" y="7" width="2" height="1" fill="#a0a0a073"/>
  <rect x="7" y="7" width="1" height="1" fill="#fefefe3c"/>
  <rect x="8" y="7" width="1" height="1" fill="#ffffff3c"/>
  <rect x="9" y="7" width="1" height="1" fill="#a1a1a173"/>
  <rect x="10" y="7" width="1" height="1" fill="#9b9b9b73"/>
  <rect x="11" y="7" width="1" height="1" fill="#9d9d9d73"/>
  <rect x="12" y="7" width="1" height="1" fill="#9a9a9a"/>
  <rect x="13" y="7" width="1" height="1" fill="#9d9d9d"/>
  <rect x="14" y="7" width="1" height="1" fill="#969696"/>
  <rect x="15" y="7" width="1" height="1" fill="#fdfdfd3b"/>
  <rect x="16" y="7" width="1" height="1" fill="#ffffff3c"/>
  <rect x="17" y="7" width="2" height="1" fill="#9a9ca0"/>
  <rect x="19" y="7" width="1" height="1" fill="#ffffff3c"/>
  <rect x="20" y="7" width="1" height="1" fill="#fcfeff3c"/>
  <rect x="21" y="7" width="1" height="1" fill="#9fa1a5"/>
  <rect x="22" y="7" width="1" height="1" fill="#999b9f"/>
  <rect x="23" y="7" width="1" height="1" fill="#989a9e"/>
  <rect x="0" y="8" width="1" height="1" fill="#8e8e8e73"/>
  <rect x="1" y="8" width="1" height="1" fill="#96969673"/>
  <rect x="2" y="8" width="1" height="1" fill="#9d9d9d73"/>
  <rect x="5" y="8" width="2" height="1" fill="#9c9c9c73"/>
  <rect x="9" y="8" width="1" height="1" fill="#9b9b9b73"/>
  <rect x="10" y="8" width="1" height="1" fill="#9a9a9a73"/>
  <rect x="11" y="8" width="1" height="1" fill="#96969673"/>
  <rect x="12" y="8" width="1" height="1" fill="#aaaaaa"/>
  <rect x="13" y="8" width="2" height="1" fill="#999999"/>
  <rect x="17" y="8" width="2" height="1" fill="#9b9a9d"/>
  <rect x="21" y="8" width="1" height="1" fill="#9e9ea0"/>
  <rect x="22" y="8" width="1" height="1" fill="#9a999c"/>
  <rect x="23" y="8" width="1" height="1" fill="#99989b"/>
  <rect x="0" y="9" width="1" height="1" fill="#9e9e9e73"/>
  <rect x="1" y="9" width="1" height="1" fill="#a1a1a173"/>
  <rect x="2" y="9" width="1" height="1" fill="#93939373"/>
  <rect x="5" y="9" width="2" height="1" fill="#9b9b9b73"/>
  <rect x="9" y="9" width="1" height="1" fill="#96969673"/>
  <rect x="10" y="9" width="1" height="1" fill="#a0a0a073"/>
  <rect x="11" y="9" width="1" height="1" fill="#9a9a9a73"/>
  <rect x="12" y="9" width="1" height="1" fill="#9c9c9c"/>
  <rect x="13" y="9" width="1" height="1" fill="#949494"/>
  <rect x="14" y="9" width="1" height="1" fill="#9b9b9b"/>
  <rect x="17" y="9" width="2" height="2" fill="#999999"/>
  <rect x="21" y="9" width="1" height="1" fill="#9a9a9a"/>
  <rect x="22" y="9" width="1" height="1" fill="#9b9b9b"/>
  <rect x="23" y="9" width="1" height="1" fill="#9c9c9c"/>
  <rect x="0" y="10" width="1" height="1" fill="#95959573"/>
  <rect x="1" y="10" width="2" height="1" fill="#9a9a9a73"/>
  <rect x="5" y="10" width="2" height="1" fill="#9a9a9a73"/>
  <rect x="9" y="10" width="1" height="1" fill="#9d9d9d73"/>
  <rect x="10" y="10" width="1" height="1" fill="#97979773"/>
  <rect x="11" y="10" width="1" height="1" fill="#90909073"/>
  <rect x="12" y="10" width="1" height="1" fill="#999999"/>
  <rect x="13" y="10" width="1" height="1" fill="#969696"/>
  <rect x="14" y="10" width="1" height="1" fill="#999999"/>
  <rect x="21" y="10" width="1" height="1" fill="#9b9b9b"/>
  <rect x="22" y="10" width="1" height="1" fill="#979797"/>
  <rect x="23" y="10" width="1" height="1" fill="#969696"/>
  <rect x="0" y="11" width="1" height="1" fill="#a3a3a381"/>
  <rect x="1" y="11" width="1" height="1" fill="#96969673"/>
  <rect x="2" y="11" width="1" height="1" fill="#9d9d9d73"/>
  <rect x="3" y="11" width="1" height="1" fill="#6666661f"/>
  <rect x="4" y="11" width="1" height="1" fill="#7070701f"/>
  <rect x="5" y="11" width="2" height="1" fill="#9d9d9d73"/>
  <rect x="7" y="11" width="1" height="1" fill="#70707020"/>
  <rect x="8" y="11" width="1" height="1" fill="#6262621f"/>
  <rect x="9" y="11" width="1" height="1" fill="#9b9b9b73"/>
  <rect x="10" y="11" width="1" height="1" fill="#9a9a9a73"/>
  <rect x="11" y="11" width="1" height="1" fill="#aaaaaa80"/>
  <rect x="12" y="11" width="1" height="1" fill="#a2a2a2"/>
  <rect x="13" y="11" width="1" height="1" fill="#9d9d9d"/>
  <rect x="14" y="11" width="1" height="1" fill="#929292"/>
  <rect x="15" y="11" width="1" height="1" fill="#8787873b"/>
  <rect x="16" y="11" width="1" height="1" fill="#8282823b"/>
  <rect x="17" y="11" width="2" height="1" fill="#969696"/>
  <rect x="19" y="11" width="1" height="1" fill="#8282823c"/>
  <rect x="20" y="11" width="1" height="1" fill="#7f7f7f3b"/>
  <rect x="21" y="11" width="1" height="1" fill="#959595"/>
  <rect x="22" y="11" width="1" height="1" fill="#9a9a9a"/>
  <rect x="23" y="11" width="1" height="1" fill="#9d9d9d"/>
  <rect x="0" y="12" width="1" height="1" fill="#e3e3e3c5"/>
  <rect x="1" y="12" width="1" height="1" fill="#a8a8a880"/>
  <rect x="2" y="12" width="1" height="1" fill="#9a9a9a73"/>
  <rect x="3" y="12" width="1" height="1" fill="#76767683"/>
  <rect x="4" y="12" width="1" height="1" fill="#79797983"/>
  <rect x="5" y="12" width="2" height="1" fill="#95959573"/>
  <rect x="7" y="12" width="1" height="1" fill="#79797983"/>
  <rect x="8" y="12" width="1" height="1" fill="#73737383"/>
  <rect x="9" y="12" width="1" height="1" fill="#95959573"/>
  <rect x="10" y="12" width="1" height="1" fill="#b4b4b482"/>
  <rect x="11" y="12" width="1" height="1" fill="#e9e9e9c6"/>
  <rect x="12" y="12" width="1" height="1" fill="#e1e1e1ed"/>
  <rect x="13" y="12" width="1" height="1" fill="#a0a0a0"/>
  <rect x="14" y="12" width="1" height="1" fill="#8c8c8c"/>
  <rect x="15" y="12" width="1" height="1" fill="#878787"/>
  <rect x="16" y="12" width="1" height="1" fill="#868686"/>
  <rect x="17" y="12" width="2" height="1" fill="#979797"/>
  <rect x="19" y="12" width="1" height="1" fill="#868686"/>
  <rect x="20" y="12" width="1" height="1" fill="#8b8b8b"/>
  <rect x="21" y="12" width="1" height="1" fill="#999999"/>
  <rect x="22" y="12" width="1" height="1" fill="#a4a4a4"/>
  <rect x="23" y="12" width="1" height="1" fill="#dededeee"/>
  <rect x="0" y="13" width="1" height="1" fill="#ffffff4a"/>
  <rect x="1" y="13" width="1" height="1" fill="#f7f7f7e7"/>
  <rect x="2" y="13" width="7" height="1" fill="#ffffff"/>
  <rect x="9" y="13" width="1" height="1" fill="#fcfbfc"/>
  <rect x="10" y="13" width="1" height="1" fill="#f8f8f8e4"/>
  <rect x="11" y="13" width="1" height="1" fill="#fefefe4a"/>
  <rect x="12" y="13" width="1" height="1" fill="#ffffff4a"/>
  <rect x="13" y="13" width="1" height="1" fill="#fafafae7"/>
  <rect x="14" y="13" width="2" height="1" fill="#ffffff"/>
  <rect x="16" y="13" width="1" height="1" fill="#fefefe"/>
  <rect x="17" y="13" width="2" height="1" fill="#ffffff"/>
  <rect x="19" y="13" width="1" height="1" fill="#fefefe"/>
  <rect x="20" y="13" width="1" height="1" fill="#fdfdfd"/>
  <rect x="21" y="13" width="1" height="1" fill="#ffffff"/>
  <rect x="22" y="13" width="1" height="1" fill="#fefefee4"/>
  <rect x="23" y="13" width="1" height="1" fill="#ffffff4a"/>
</svg>