<svg xmlns="http://www.w3.org/2000/svg" width="33" height="7" viewBox="0 0 33 7" shape-rendering="crispEdges">
  <rect x="0" y="0" width="1" height="1" fill="#adabbc77"/>
  <rect x="1" y="0" width="1" height="1" fill="#afacbddf"/>
  <rect x="2" y="0" width="1" height="1" fill="#aaa7b8df"/>
  <rect x="3" y="0" width="1" height="1" fill="#aba8b9df"/>
  <rect x="4" y="0" width="2" height="1" fill="#aba9b7df"/>
  <rect x="6" y="0" width="1" height="1" fill="#aba9b5df"/>
  <rect x="7" y="0" width="1" height="1" fill="#abaab3df"/>
  <rect x="8" y="0" width="1" height="1" fill="#a1a0a7df"/>
  <rect x="9" y="0" width="1" height="1" fill="#b0afb6df"/>
  <rect x="10" y="0" width="1" height="1" fill="#adadb276"/>
  <rect x="11" y="0" width="1" height="1" fill="#a3a3a577"/>
  <rect x="12" y="0" width="1" height="1" fill="#aaaaaadf"/>
  <rect x="13" y="0" width="1" height="1" fill="#acacacdf"/>
  <rect x="14" y="0" width="1" height="1" fill="#a0a0a0df"/>
  <rect x="15" y="0" width="1" height="1" fill="#aaaaaadf"/>
  <rect x="16" y="0" width="1" height="1" fill="#a1a1a1df"/>
  <rect x="17" y="0" width="1" height="1" fill="#a5a5a5df"/>
  <rect x="18" y="0" width="1" height="1" fill="#a9a9a9df"/>
  <rect x="19" y="0" width="1" height="1" fill="#a8a8a8df"/>
  <rect x="20" y="0" width="1" height="1" fill="#a4a4a4df"/>
  <rect x="21" y="0" width="1" height="1" fill="#9d9d9d76"/>
  <rect x="22" y="0" width="1" height="1" fill="#9d9d9d77"/>
  <rect x="23" y="0" width="2" height="1" fill="#a2a2a2df"/>
  <rect x="25" y="0" width="1" height="1" fill="#9d9d9ddf"/>
  <rect x="26" y="0" width="1" height="1" fill="#9c9c9cdf"/>
  <rect x="27" y="0" width="1" height="1" fill="#9d9d9ddf"/>
  <rect x="28" y="0" width="1" height="1" fill="#a8a8a8df"/>
  <rect x="29" y="0" width="1" height="1" fill="#999999df"/>
  <rect x="30" y="0" width="1" height="1" fill="#a0a0a0df"/>
  <rect x="31" y="0" width="1" height="1" fill="#9a9a9adf"/>
  <rect x="32" y="0" width="1" height="1" fill="#a1a1a176"/>
  <rect x="0" y="1" width="1" height="1" fill="#fefbff23"/>
  <rect x="1" y="1" width="1" height="1" fill="#d5d3e1a0"/>
  <rect x="2" y="1" width="3" height="1" fill="#cbc8d7d9"/>
  <rect x="5" y="1" width="1" height="1" fill="#cbc9d5d9"/>
  <rect x="6" y="1" width="1" height="1" fill="#cbc9d3d9"/>
  <rect x="7" y="1" width="1" height="1" fill="#cbc9d1d9"/>
  <rect x="8" y="1" width="1" height="1" fill="#d0cfd6d9"/>
  <rect x="9" y="1" width="1" height="1" fill="#d6d5daa0"/>
  <rect x="10" y="1" width="1" height="1" fill="#f3f3f523"/>
  <rect x="11" y="1" width="1" height="1" fill="#fefdff23"/>
  <rect x="12" y="1" width="1" height="1" fill="#d7d7d7a0"/>
  <rect x="13" y="1" width="1" height="1" fill="#c4c4c4d9"/>
  <rect x="14" y="1" width="1" height="1" fill="#c6c6c6d9"/>
  <rect x="15" y="1" width="1" height="1" fill="#bfbfbfd9"/>
  <rect x="16" y="1" width="1" height="1" fill="#cbcbcbd9"/>
  <rect x="17" y="1" width="1" height="1" fill="#c5c5c5d9"/>
  <rect x="18" y="1" width="1" height="1" fill="#c2c2c2d9"/>
  <rect x="19" y="1" width="1" height="1" fill="#c5c5c5d9"/>
  <rect x="20" y="1" width="1" height="1" fill="#c9c9c9a0"/>
  <rect x="21" y="1" width="2" height="1" fill="#ffffff23"/>
  <rect x="23" y="1" width="1" height="1" fill="#c9c9c9a0"/>
  <rect x="24" y="1" width="1" height="1" fill="#c0c0c0d9"/>
  <rect x="25" y="1" width="1" height="2" fill="#bebebed9"/>
  <rect x="26" y="1" width="1" height="1" fill="#c0c0c0d9"/>
  <rect x="27" y="1" width="1" height="1" fill="#bebebed9"/>
  <rect x="28" y="1" width="1" height="1" fill="#b9b9b9d9"/>
  <rect x="29" y="1" width="1" height="1" fill="#bfbfbfd9"/>
  <rect x="30" y="1" width="1" height="1" fill="#bababad9"/>
  <rect x="31" y="1" width="1" height="1" fill="#cdcdcda0"/>
  <rect x="32" y="1" width="1" height="1" fill="#ffffff23"/>
  <rect x="1" y="2" width="1" height="1" fill="#f3f1fd2b"/>
  <rect x="2" y="2" width="1" height="1" fill="#cdcbd7ab"/>
  <rect x="3" y="2" width="2" height="1" fill="#c9c7d4d9"/>
  <rect x="5" y="2" width="1" height="1" fill="#c9c8d2d9"/>
  <rect x="6" y="2" width="1" height="1" fill="#c9c8cfd9"/>
  <rect x="7" y="2" width="1" height="1" fill="#c9c9cdd9"/>
  <rect x="8" y="2" width="1" height="1" fill="#c9c9cdab"/>
  <rect x="9" y="2" width="1" height="1" fill="#f2f2f42b"/>
  <rect x="12" y="2" width="1" height="1" fill="#fafafa2b"/>
  <rect x="13" y="2" width="1" height="1" fill="#cbcbcbab"/>
  <rect x="14" y="2" width="1" height="1" fill="#c2c2c2d9"/>
  <rect x="15" y="2" width="1" height="1" fill="#c9c9c9d9"/>
  <rect x="16" y="2" width="1" height="1" fill="#cdcdcdd9"/>
  <rect x="17" y="2" width="1" height="1" fill="#c1c1c1d9"/>
  <rect x="18" y="2" width="1" height="1" fill="#c5c5c5d9"/>
  <rect x="19" y="2" width="1" height="1" fill="#d3d3d3ab"/>
  <rect x="20" y="2" width="1" height="1" fill="#fcfbfc2b"/>
  <rect x="23" y="2" width="1" height="1" fill="#fcfbfc2b"/>
  <rect x="24" y="2" width="1" height="1" fill="#cfcfcfab"/>
  <rect x="26" y="2" width="1" height="1" fill="#c5c5c5d9"/>
  <rect x="27" y="2" width="1" height="1" fill="#bdbdbdd9"/>
  <rect x="28" y="2" width="1" height="1" fill="#bfbfbfd9"/>
  <rect x="29" y="2" width="1" height="1" fill="#bababad9"/>
  <rect x="30" y="2" width="1" height="1" fill="#c4c4c4ab"/>
  <rect x="31" y="2" width="1" height="1" fill="#f7f7f72b"/>
  <rect x="2" y="3" width="1" height="1" fill="#e5e4eb33"/>
  <rect x="3" y="3" width="1" height="1" fill="#cdccd3b3"/>
  <rect x="4" y="3" width="2" height="1" fill="#cdccd3d9"/>
  <rect x="6" y="3" width="1" height="1" fill="#cdccd1d9"/>
  <rect x="7" y="3" width="1" height="1" fill="#cdccd1b3"/>
  <rect x="8" y="3" width="1" height="1" fill="#fafafc33"/>
  <rect x="13" y="3" width="1" height="1" fill="#f7f7f733"/>
  <rect x="14" y="3" width="1" height="1" fill="#d2d2d2b3"/>
  <rect x="15" y="3" width="1" height="1" fill="#c4c4c4d9"/>
  <rect x="16" y="3" width="1" height="1" fill="#c6c6c6d9"/>
  <rect x="17" y="3" width="1" height="1" fill="#bebebed9"/>
  <rect x="18" y="3" width="1" height="1" fill="#cdcdcdb3"/>
  <rect x="19" y="3" width="1" height="1" fill="#ebebeb33"/>
  <rect x="24" y="3" width="1" height="1" fill="#eeeeee33"/>
  <rect x="25" y="3" width="1" height="1" fill="#c5c5c5b3"/>
  <rect x="26" y="3" width="1" height="1" fill="#c7c7c7d9"/>
  <rect x="27" y="3" width="1" height="1" fill="#bbbbbbd9"/>
  <rect x="28" y="3" width="1" height="1" fill="#b8b8b8d9"/>
  <rect x="29" y="3" width="1" height="1" fill="#cbcbcbb3"/>
  <rect x="30" y="3" width="1" height="1" fill="#f6f6f633"/>
  <rect x="3" y="4" width="1" height="1" fill="#eae9ee3a"/>
  <rect x="4" y="4" width="1" height="1" fill="#c5c4c9be"/>
  <rect x="5" y="4" width="1" height="1" fill="#b8b7bcd9"/>
  <rect x="6" y="4" width="1" height="1" fill="#c5c4c7be"/>
  <rect x="7" y="4" width="1" height="1" fill="#f2f2f43a"/>
  <rect x="14" y="4" width="1" height="1" fill="#f3f3f33a"/>
  <rect x="15" y="4" width="1" height="1" fill="#c4c4c4be"/>
  <rect x="16" y="4" width="1" height="1" fill="#c2c2c2d9"/>
  <rect x="17" y="4" width="1" height="1" fill="#c5c5c5be"/>
  <rect x="18" y="4" width="1" height="1" fill="#f3f3f33a"/>
  <rect x="25" y="4" width="1" height="1" fill="#f1f1f13a"/>
  <rect x="26" y="4" width="1" height="1" fill="#bebebebe"/>
  <rect x="27" y="4" width="1" height="1" fill="#b9b9b9d9"/>
  <rect x="28" y="4" width="1" height="1" fill="#c2c2c2be"/>
  <rect x="29" y="4" width="1" height="1" fill="#f1f1f13a"/>
  <rect x="4" y="5" width="1" height="1" fill="#e4e4e644"/>
  <rect x="5" y="5" width="1" height="1" fill="#c7c7c9ae"/>
  <rect x="6" y="5" width="1" height="1" fill="#e2e1e445"/>
  <rect x="15" y="5" width="1" height="1" fill="#e2e2e244"/>
  <rect x="16" y="5" width="1" height="1" fill="#cfcfcfae"/>
  <rect x="17" y="5" width="1" height="1" fill="#f1f1f145"/>
  <rect x="26" y="5" width="1" height="1" fill="#eeeeee44"/>
  <rect x="27" y="5" width="1" height="1" fill="#d2d2d2ae"/>
  <rect x="28" y="5" width="1" height="1" fill="#e8e8e845"/>
  <rect x="5" y="6" width="1" height="1" fill="#fefefe2e"/>
  <rect x="16" y="6" width="1" height="1" fill="#fdfdfd2e"/>
  <rect x="27" y="6" width="1" height="1" fill="#ffffff2e"/>
</svg>