<svg xmlns="http://www.w3.org/2000/svg" width="20" height="16" viewBox="0 0 20 16" shape-rendering="crispEdges">
  <rect x="4" y="1" width="1" height="1" fill="#b8b9bd48"/>
  <rect x="5" y="1" width="1" height="1" fill="#b2b3b786"/>
  <rect x="6" y="1" width="1" height="1" fill="#abacb0ba"/>
  <rect x="7" y="1" width="1" height="1" fill="#a6a8acd0"/>
  <rect x="8" y="1" width="1" height="1" fill="#a5a7abdf"/>
  <rect x="9" y="1" width="2" height="1" fill="#a6a8acee"/>
  <rect x="11" y="1" width="1" height="1" fill="#a6a8acdf"/>
  <rect x="12" y="1" width="1" height="1" fill="#a7a9add0"/>
  <rect x="13" y="1" width="1" height="1" fill="#abacb0ba"/>
  <rect x="14" y="1" width="1" height="1" fill="#b1b2b685"/>
  <rect x="15" y="1" width="1" height="1" fill="#b4b6ba47"/>
  <rect x="3" y="2" width="1" height="1" fill="#a7a9add5"/>
  <rect x="4" y="2" width="1" height="1" fill="#a6a8ac"/>
  <rect x="5" y="2" width="1" height="1" fill="#a4a5a9ea"/>
  <rect x="6" y="2" width="1" height="1" fill="#a1a3a7b1"/>
  <rect x="7" y="2" width="1" height="1" fill="#a1a3a78e"/>
  <rect x="8" y="2" width="1" height="1" fill="#a4a5a988"/>
  <rect x="9" y="2" width="3" height="1" fill="#a5a7ab88"/>
  <rect x="12" y="2" width="1" height="1" fill="#95969a8e"/>
  <rect x="13" y="2" width="1" height="1" fill="#989a9eb2"/>
  <rect x="14" y="2" width="1" height="1" fill="#9d9ea2ea"/>
  <rect x="15" y="2" width="1" height="1" fill="#a0a2a6"/>
  <rect x="16" y="2" width="1" height="1" fill="#acaeb0d3"/>
  <rect x="3" y="3" width="1" height="1" fill="#a8aaaeef"/>
  <rect x="4" y="3" width="1" height="1" fill="#9ea0a497"/>
  <rect x="6" y="3" width="1" height="1" fill="#b1b2b623"/>
  <rect x="7" y="3" width="1" height="1" fill="#b9babe59"/>
  <rect x="8" y="3" width="4" height="1" fill="#b5b7bb77"/>
  <rect x="12" y="3" width="1" height="1" fill="#b3b5b958"/>
  <rect x="13" y="3" width="1" height="1" fill="#afb1b523"/>
  <rect x="15" y="3" width="1" height="1" fill="#a7a9ad98"/>
  <rect x="16" y="3" width="1" height="1" fill="#acaeb0ed"/>
  <rect x="3" y="4" width="1" height="1" fill="#a8aaaede"/>
  <rect x="4" y="4" width="1" height="1" fill="#abacb080"/>
  <rect x="5" y="4" width="1" height="1" fill="#9d9ea24c"/>
  <rect x="6" y="4" width="1" height="2" fill="#afb1b5"/>
  <rect x="7" y="4" width="1" height="2" fill="#b5b7bb"/>
  <rect x="8" y="4" width="5" height="4" fill="#b2b3b7"/>
  <rect x="13" y="4" width="1" height="4" fill="#adafb3"/>
  <rect x="14" y="4" width="1" height="1" fill="#9d9ea24b"/>
  <rect x="15" y="4" width="1" height="1" fill="#abacb081"/>
  <rect x="16" y="4" width="1" height="1" fill="#adafb1dc"/>
  <rect x="3" y="5" width="1" height="1" fill="#a8aaaece"/>
  <rect x="4" y="5" width="1" height="1" fill="#abacb099"/>
  <rect x="5" y="5" width="1" height="1" fill="#9d9ea242"/>
  <rect x="14" y="5" width="1" height="1" fill="#9d9ea242"/>
  <rect x="15" y="5" width="1" height="1" fill="#abacb09a"/>
  <rect x="16" y="5" width="1" height="1" fill="#abadaeca"/>
  <rect x="3" y="6" width="1" height="1" fill="#a7a9abb1"/>
  <rect x="4" y="6" width="1" height="1" fill="#abadaeb3"/>
  <rect x="5" y="6" width="1" height="1" fill="#9d9fa028"/>
  <rect x="6" y="6" width="1" height="2" fill="#afb1b3"/>
  <rect x="7" y="6" width="1" height="2" fill="#b5b7b9"/>
  <rect x="14" y="6" width="1" height="1" fill="#9d9ea228"/>
  <rect x="15" y="6" width="1" height="1" fill="#abacb0b5"/>
  <rect x="16" y="6" width="1" height="1" fill="#a8aaacae"/>
  <rect x="3" y="7" width="1" height="1" fill="#a5a7a993"/>
  <rect x="4" y="7" width="1" height="1" fill="#abadaecb"/>
  <rect x="5" y="7" width="1" height="1" fill="#9d9fa00f"/>
  <rect x="14" y="7" width="1" height="1" fill="#9d9ea210"/>
  <rect x="15" y="7" width="1" height="1" fill="#abacb0cd"/>
  <rect x="16" y="7" width="1" height="1" fill="#a6a8aa90"/>
  <rect x="3" y="8" width="1" height="1" fill="#a4a6a56f"/>
  <rect x="4" y="8" width="1" height="1" fill="#b2b4b5ed"/>
  <rect x="6" y="8" width="1" height="1" fill="#a4a6a7db"/>
  <rect x="7" y="8" width="1" height="1" fill="#aaacad"/>
  <rect x="8" y="8" width="1" height="1" fill="#b2b4b5"/>
  <rect x="9" y="8" width="2" height="1" fill="#adafb1"/>
  <rect x="11" y="8" width="1" height="1" fill="#b2b4b5"/>
  <rect x="12" y="8" width="1" height="1" fill="#aaabaf"/>
  <rect x="13" y="8" width="1" height="1" fill="#a4a5a9df"/>
  <rect x="15" y="8" width="1" height="1" fill="#b3b5b9ef"/>
  <rect x="16" y="8" width="1" height="1" fill="#9b9a9d6d"/>
  <rect x="3" y="9" width="1" height="1" fill="#a1a4a33f"/>
  <rect x="4" y="9" width="1" height="1" fill="#b1b3b4"/>
  <rect x="5" y="9" width="1" height="1" fill="#acaeb026"/>
  <rect x="6" y="9" width="1" height="1" fill="#999b9d82"/>
  <rect x="7" y="9" width="1" height="1" fill="#a4a6a7"/>
  <rect x="8" y="9" width="1" height="1" fill="#b3b5b6"/>
  <rect x="9" y="9" width="2" height="1" fill="#b1b3b4"/>
  <rect x="11" y="9" width="1" height="1" fill="#b3b5b6"/>
  <rect x="12" y="9" width="1" height="1" fill="#a3a4a8"/>
  <rect x="13" y="9" width="1" height="1" fill="#989a9e8b"/>
  <rect x="14" y="9" width="1" height="1" fill="#acaeb227"/>
  <rect x="15" y="9" width="1" height="1" fill="#b2b1b6"/>
  <rect x="16" y="9" width="1" height="1" fill="#9c9a9d3c"/>
  <rect x="4" y="10" width="1" height="1" fill="#999c9bee"/>
  <rect x="5" y="10" width="1" height="1" fill="#babcbba8"/>
  <rect x="7" y="10" width="1" height="1" fill="#999c9b85"/>
  <rect x="8" y="10" width="1" height="1" fill="#9ea0a2fe"/>
  <rect x="9" y="10" width="2" height="1" fill="#b3b5b6"/>
  <rect x="11" y="10" width="1" height="1" fill="#9ea0a2"/>
  <rect x="12" y="10" width="1" height="1" fill="#999b9f97"/>
  <rect x="14" y="10" width="1" height="1" fill="#babbbfaa"/>
  <rect x="15" y="10" width="1" height="1" fill="#9b9a9fee"/>
  <rect x="4" y="11" width="1" height="1" fill="#9c9e9d45"/>
  <rect x="5" y="11" width="1" height="1" fill="#999c9bf6"/>
  <rect x="6" y="11" width="1" height="1" fill="#b1b3b2b6"/>
  <rect x="7" y="11" width="1" height="1" fill="#b3b5b413"/>
  <rect x="8" y="11" width="1" height="1" fill="#9fa1a348"/>
  <rect x="9" y="11" width="1" height="1" fill="#919395e4"/>
  <rect x="10" y="11" width="1" height="1" fill="#919395e5"/>
  <rect x="11" y="11" width="1" height="1" fill="#9fa1a352"/>
  <rect x="12" y="11" width="1" height="1" fill="#b3b5b914"/>
  <rect x="13" y="11" width="1" height="1" fill="#b1b2b6b8"/>
  <rect x="14" y="11" width="1" height="1" fill="#999b9ff6"/>
  <rect x="15" y="11" width="1" height="1" fill="#9d9ca144"/>
  <rect x="5" y="12" width="1" height="1" fill="#a0a3a231"/>
  <rect x="6" y="12" width="1" height="1" fill="#a0a3a2dd"/>
  <rect x="7" y="12" width="1" height="1" fill="#a0a3a2e5"/>
  <rect x="8" y="12" width="1" height="1" fill="#b3b5b646"/>
  <rect x="11" y="12" width="1" height="1" fill="#b3b5b646"/>
  <rect x="12" y="12" width="1" height="1" fill="#a8aaaee6"/>
  <rect x="13" y="12" width="1" height="1" fill="#a1a3a7db"/>
  <rect x="14" y="12" width="1" height="1" fill="#9c9da130"/>
  <rect x="6" y="13" width="1" height="1" fill="#a0a3a20c"/>
  <rect x="7" y="13" width="1" height="1" fill="#a0a3a293"/>
  <rect x="8" y="13" width="1" height="1" fill="#9ea0a2fc"/>
  <rect x="9" y="13" width="2" height="1" fill="#b2b4b5ad"/>
  <rect x="11" y="13" width="1" height="1" fill="#9ea0a2fc"/>
  <rect x="12" y="13" width="1" height="1" fill="#9c9da192"/>
  <rect x="13" y="13" width="1" height="1" fill="#9ea0a40b"/>
  <rect x="8" y="14" width="1" height="1" fill="#999b9d3d"/>
  <rect x="9" y="14" width="1" height="1" fill="#969899cc"/>
  <rect x="10" y="14" width="1" height="1" fill="#969899cb"/>
  <rect x="11" y="14" width="1" height="1" fill="#999b9d3d"/>
</svg>