<svg xmlns="http://www.w3.org/2000/svg" width="20" height="16" viewBox="0 0 20 16" shape-rendering="crispEdges">
  <rect x="10" y="0" width="1" height="1" fill="#afb1b58b"/>
  <rect x="9" y="1" width="1" height="1" fill="#abacb055"/>
  <rect x="10" y="1" width="1" height="1" fill="#b5b7bb"/>
  <rect x="11" y="1" width="1" height="1" fill="#afb1b555"/>
  <rect x="9" y="2" width="1" height="1" fill="#abacb0dd"/>
  <rect x="10" y="2" width="1" height="1" fill="#aaabaf"/>
  <rect x="11" y="2" width="1" height="1" fill="#b6b8bcdd"/>
  <rect x="8" y="3" width="1" height="1" fill="#adafb372"/>
  <rect x="9" y="3" width="1" height="1" fill="#a8aaaefe"/>
  <rect x="10" y="3" width="1" height="1" fill="#95969a70"/>
  <rect x="11" y="3" width="1" height="1" fill="#a7a9adfe"/>
  <rect x="12" y="3" width="1" height="1" fill="#a7a9ad73"/>
  <rect x="7" y="4" width="1" height="1" fill="#aeb0b413"/>
  <rect x="8" y="4" width="1" height="1" fill="#b1b2b6ee"/>
  <rect x="9" y="4" width="1" height="1" fill="#97999da2"/>
  <rect x="11" y="4" width="1" height="1" fill="#97999da1"/>
  <rect x="12" y="4" width="1" height="1" fill="#afb1b5ef"/>
  <rect x="13" y="4" width="1" height="1" fill="#afb1b513"/>
  <rect x="3" y="5" width="1" height="1" fill="#afb1b52c"/>
  <rect x="4" y="5" width="1" height="1" fill="#b4b6ba5c"/>
  <rect x="5" y="5" width="1" height="1" fill="#b2b3b78c"/>
  <rect x="6" y="5" width="1" height="1" fill="#abacb0bf"/>
  <rect x="7" y="5" width="1" height="1" fill="#a6a8acef"/>
  <rect x="8" y="5" width="1" height="1" fill="#a0a2a6f3"/>
  <rect x="9" y="5" width="1" height="1" fill="#9395991b"/>
  <rect x="11" y="5" width="1" height="1" fill="#9d9ea21b"/>
  <rect x="12" y="5" width="1" height="1" fill="#9c9da1f3"/>
  <rect x="13" y="5" width="1" height="1" fill="#a0a2a6ef"/>
  <rect x="14" y="5" width="1" height="1" fill="#a1a3a7bf"/>
  <rect x="15" y="5" width="1" height="1" fill="#a0a2a68c"/>
  <rect x="16" y="5" width="1" height="1" fill="#afb1b55c"/>
  <rect x="17" y="5" width="1" height="1" fill="#b1b2b62c"/>
  <rect x="2" y="6" width="1" height="1" fill="#a5a7ab98"/>
  <rect x="3" y="6" width="1" height="1" fill="#a8aaae"/>
  <rect x="4" y="6" width="1" height="1" fill="#b2b3b7"/>
  <rect x="5" y="6" width="1" height="1" fill="#a8aaaebd"/>
  <rect x="6" y="6" width="1" height="1" fill="#9d9ea28a"/>
  <rect x="7" y="6" width="1" height="1" fill="#9395995c"/>
  <rect x="8" y="6" width="1" height="1" fill="#9d9ea226"/>
  <rect x="12" y="6" width="1" height="1" fill="#96979b26"/>
  <rect x="13" y="6" width="1" height="1" fill="#97999d5c"/>
  <rect x="14" y="6" width="1" height="1" fill="#a0a2a68a"/>
  <rect x="15" y="6" width="1" height="1" fill="#a6a8acbd"/>
  <rect x="16" y="6" width="1" height="1" fill="#b2b3b7"/>
  <rect x="17" y="6" width="1" height="1" fill="#a8aaae"/>
  <rect x="18" y="6" width="1" height="1" fill="#989a9e97"/>
  <rect x="3" y="7" width="1" height="1" fill="#999b9fab"/>
  <rect x="4" y="7" width="1" height="1" fill="#b3b5b9"/>
  <rect x="5" y="7" width="1" height="1" fill="#aeb0b4a8"/>
  <rect x="15" y="7" width="1" height="1" fill="#b1b2b6a8"/>
  <rect x="16" y="7" width="1" height="1" fill="#acaeb2"/>
  <rect x="17" y="7" width="1" height="1" fill="#97999dab"/>
  <rect x="4" y="8" width="1" height="1" fill="#9c9da1b6"/>
  <rect x="5" y="8" width="1" height="1" fill="#a0a2a6"/>
  <rect x="6" y="8" width="1" height="1" fill="#b1b2b6a2"/>
  <rect x="14" y="8" width="1" height="1" fill="#b1b2b6a2"/>
  <rect x="15" y="8" width="1" height="1" fill="#9fa1a5"/>
  <rect x="16" y="8" width="1" height="1" fill="#97999bb6"/>
  <rect x="4" y="9" width="1" height="1" fill="#9c9da10a"/>
  <rect x="5" y="9" width="1" height="1" fill="#a0a2a6c0"/>
  <rect x="6" y="9" width="1" height="3" fill="#b1b2b6"/>
  <rect x="7" y="9" width="1" height="1" fill="#a3a4a873"/>
  <rect x="13" y="9" width="1" height="1" fill="#a5a7ab74"/>
  <rect x="14" y="9" width="1" height="3" fill="#b1b2b6"/>
  <rect x="15" y="9" width="1" height="1" fill="#9fa1a5c0"/>
  <rect x="16" y="9" width="1" height="1" fill="#97999b0a"/>
  <rect x="5" y="10" width="1" height="1" fill="#a0a2a61d"/>
  <rect x="7" y="10" width="1" height="1" fill="#a3a4a86d"/>
  <rect x="13" y="10" width="1" height="1" fill="#a5a7ab6d"/>
  <rect x="15" y="10" width="1" height="1" fill="#9fa1a51d"/>
  <rect x="5" y="11" width="1" height="1" fill="#a1a3a72f"/>
  <rect x="7" y="11" width="1" height="1" fill="#a3a4a84b"/>
  <rect x="9" y="11" width="1" height="1" fill="#adafb319"/>
  <rect x="10" y="11" width="1" height="1" fill="#adafb368"/>
  <rect x="11" y="11" width="1" height="1" fill="#adafb319"/>
  <rect x="13" y="11" width="1" height="1" fill="#a5a7ab4c"/>
  <rect x="15" y="11" width="1" height="1" fill="#9fa1a52f"/>
  <rect x="5" y="12" width="1" height="1" fill="#a5a7ab4f"/>
  <rect x="6" y="12" width="1" height="1" fill="#adafb3"/>
  <rect x="7" y="12" width="1" height="1" fill="#b2b3b758"/>
  <rect x="8" y="12" width="1" height="1" fill="#b4b6baa0"/>
  <rect x="9" y="12" width="1" height="1" fill="#b4b6baf9"/>
  <rect x="10" y="12" width="1" height="1" fill="#b4b6ba"/>
  <rect x="11" y="12" width="1" height="1" fill="#b4b6baf9"/>
  <rect x="12" y="12" width="1" height="1" fill="#b2b3b7a0"/>
  <rect x="13" y="12" width="1" height="1" fill="#babbbf58"/>
  <rect x="14" y="12" width="1" height="1" fill="#b5b7bb"/>
  <rect x="15" y="12" width="1" height="1" fill="#a6a8ac4f"/>
  <rect x="5" y="13" width="1" height="1" fill="#a5a7ab6f"/>
  <rect x="6" y="13" width="1" height="1" fill="#a7a9ad"/>
  <rect x="7" y="13" width="1" height="1" fill="#a6a8ac"/>
  <rect x="8" y="13" width="1" height="1" fill="#a1a3a7"/>
  <rect x="9" y="13" width="1" height="1" fill="#9ea0a4f4"/>
  <rect x="10" y="13" width="1" height="1" fill="#9ea0a4ac"/>
  <rect x="11" y="13" width="1" height="1" fill="#9ea0a4f4"/>
  <rect x="12" y="13" width="1" height="1" fill="#a3a4a8"/>
  <rect x="13" y="13" width="1" height="1" fill="#abacb0"/>
  <rect x="14" y="13" width="1" height="1" fill="#afb1b5"/>
  <rect x="15" y="13" width="1" height="1" fill="#aeb0b46f"/>
  <rect x="5" y="14" width="1" height="1" fill="#a3a4a890"/>
  <rect x="6" y="14" width="1" height="1" fill="#a0a2a6"/>
  <rect x="7" y="14" width="1" height="1" fill="#9d9ea2ea"/>
  <rect x="8" y="14" width="1" height="1" fill="#9a9ca07d"/>
  <rect x="9" y="14" width="1" height="1" fill="#999b9f12"/>
  <rect x="11" y="14" width="1" height="1" fill="#9a9ca012"/>
  <rect x="12" y="14" width="1" height="1" fill="#9d9ea27d"/>
  <rect x="13" y="14" width="1" height="1" fill="#9d9ea2ea"/>
  <rect x="14" y="14" width="1" height="1" fill="#a1a3a7"/>
  <rect x="15" y="14" width="1" height="1" fill="#aaabaf90"/>
  <rect x="5" y="15" width="1" height="1" fill="#a1a3a78e"/>
  <rect x="6" y="15" width="1" height="1" fill="#9a9ca06b"/>
  <rect x="7" y="15" width="1" height="1" fill="#96979b0a"/>
  <rect x="13" y="15" width="1" height="1" fill="#97999d0a"/>
  <rect x="14" y="15" width="1" height="1" fill="#9294986b"/>
  <rect x="15" y="15" width="1" height="1" fill="#9a9ca08f"/>
</svg>