<svg xmlns="http://www.w3.org/2000/svg" width="72" height="16" viewBox="0 0 72 16" shape-rendering="crispEdges">
  <rect x="6" y="0" width="1" height="1" fill="#babbbf4a"/>
  <rect x="7" y="0" width="1" height="1" fill="#c9cbcff8"/>
  <rect x="8" y="0" width="1" height="1" fill="#caccd0f8"/>
  <rect x="9" y="0" width="1" height="1" fill="#bcbec24a"/>
  <rect x="30" y="0" width="1" height="1" fill="#a8aaac4a"/>
  <rect x="31" y="0" width="1" height="1" fill="#afb1b3f8"/>
  <rect x="32" y="0" width="1" height="1" fill="#b4b6b8f8"/>
  <rect x="33" y="0" width="1" height="1" fill="#a8aaac4a"/>
  <rect x="54" y="0" width="1" height="1" fill="#87898a4a"/>
  <rect x="55" y="0" width="2" height="1" fill="#8a8c8ef8"/>
  <rect x="57" y="0" width="1" height="1" fill="#87898a4a"/>
  <rect x="3" y="1" width="1" height="1" fill="#c1c2c63d"/>
  <rect x="6" y="1" width="1" height="1" fill="#bdbfc378"/>
  <rect x="7" y="1" width="2" height="1" fill="#c3c5c9"/>
  <rect x="9" y="1" width="1" height="1" fill="#bdbfc387"/>
  <rect x="12" y="1" width="1" height="1" fill="#c3c5c93d"/>
  <rect x="27" y="1" width="1" height="1" fill="#aeb0b23d"/>
  <rect x="30" y="1" width="1" height="1" fill="#adafb178"/>
  <rect x="31" y="1" width="1" height="1" fill="#b3b5b6"/>
  <rect x="32" y="1" width="1" height="1" fill="#afb1b3"/>
  <rect x="33" y="1" width="1" height="1" fill="#acaeb087"/>
  <rect x="36" y="1" width="1" height="1" fill="#b1b3b43d"/>
  <rect x="51" y="1" width="1" height="1" fill="#8f91923d"/>
  <rect x="54" y="1" width="1" height="1" fill="#9fa1a378"/>
  <rect x="55" y="1" width="1" height="1" fill="#b4b6b8"/>
  <rect x="56" y="1" width="1" height="1" fill="#b3b5b6"/>
  <rect x="57" y="1" width="1" height="1" fill="#9fa1a387"/>
  <rect x="60" y="1" width="1" height="1" fill="#8c8b8e3d"/>
  <rect x="2" y="2" width="1" height="1" fill="#bfc0c4c3"/>
  <rect x="3" y="2" width="1" height="1" fill="#c3c5c9"/>
  <rect x="4" y="2" width="1" height="1" fill="#c1c2c69d"/>
  <rect x="5" y="2" width="1" height="1" fill="#c3c5c92c"/>
  <rect x="6" y="2" width="1" height="1" fill="#c1c2c6b9"/>
  <rect x="7" y="2" width="2" height="1" fill="#bbbdc1"/>
  <rect x="9" y="2" width="1" height="1" fill="#c1c2c6c0"/>
  <rect x="10" y="2" width="1" height="1" fill="#c3c5c92c"/>
  <rect x="11" y="2" width="1" height="1" fill="#c0c1c59d"/>
  <rect x="12" y="2" width="1" height="1" fill="#c2c4c8"/>
  <rect x="13" y="2" width="1" height="1" fill="#bfc0c4c3"/>
  <rect x="26" y="2" width="1" height="1" fill="#afb1b3c3"/>
  <rect x="27" y="2" width="1" height="1" fill="#b3b5b6"/>
  <rect x="28" y="2" width="1" height="1" fill="#b2b4b59d"/>
  <rect x="29" y="2" width="1" height="1" fill="#b5b7b92c"/>
  <rect x="30" y="2" width="1" height="1" fill="#b6b8bab9"/>
  <rect x="31" y="2" width="1" height="1" fill="#b5b7b9"/>
  <rect x="32" y="2" width="1" height="1" fill="#b2b4b5"/>
  <rect x="33" y="2" width="1" height="1" fill="#b6b8bac0"/>
  <rect x="34" y="2" width="1" height="1" fill="#b8babb2c"/>
  <rect x="35" y="2" width="1" height="1" fill="#b6b8ba9d"/>
  <rect x="36" y="2" width="1" height="1" fill="#b4b6b8"/>
  <rect x="37" y="2" width="1" height="1" fill="#afb1b3c3"/>
  <rect x="50" y="2" width="1" height="1" fill="#87898ac3"/>
  <rect x="51" y="2" width="1" height="1" fill="#97999b"/>
  <rect x="52" y="2" width="1" height="1" fill="#8385879d"/>
  <rect x="53" y="2" width="1" height="1" fill="#8082832c"/>
  <rect x="54" y="2" width="1" height="1" fill="#9d9fa0b9"/>
  <rect x="55" y="2" width="2" height="1" fill="#b5b7b9"/>
  <rect x="57" y="2" width="1" height="1" fill="#9c9e9fc0"/>
  <rect x="58" y="2" width="1" height="1" fill="#8082832c"/>
  <rect x="59" y="2" width="1" height="1" fill="#8284869d"/>
  <rect x="60" y="2" width="1" height="1" fill="#959597"/>
  <rect x="61" y="2" width="1" height="1" fill="#858487c3"/>
  <rect x="1" y="3" width="1" height="1" fill="#a4a5a93e"/>
  <rect x="2" y="3" width="1" height="1" fill="#c0c1c5"/>
  <rect x="3" y="3" width="1" height="2" fill="#c2c4c8"/>
  <rect x="4" y="3" width="1" height="1" fill="#c3c5c9"/>
  <rect x="5" y="3" width="1" height="1" fill="#c9cbcf"/>
  <rect x="6" y="3" width="1" height="1" fill="#c3c5c9"/>
  <rect x="7" y="3" width="1" height="1" fill="#b5b7bb"/>
  <rect x="8" y="3" width="1" height="1" fill="#b4b6ba"/>
  <rect x="9" y="3" width="1" height="1" fill="#c2c4c8"/>
  <rect x="10" y="3" width="1" height="1" fill="#c8c9cd"/>
  <rect x="11" y="3" width="1" height="2" fill="#c1c2c6"/>
  <rect x="12" y="3" width="1" height="3" fill="#c3c5c9"/>
  <rect x="13" y="3" width="1" height="1" fill="#bdbfc3"/>
  <rect x="14" y="3" width="1" height="1" fill="#a1a3a73e"/>
  <rect x="25" y="3" width="1" height="1" fill="#97999b3e"/>
  <rect x="26" y="3" width="1" height="1" fill="#acaeb0"/>
  <rect x="27" y="3" width="2" height="1" fill="#b2b4b5"/>
  <rect x="29" y="3" width="1" height="1" fill="#b4b6b8"/>
  <rect x="30" y="3" width="1" height="1" fill="#adafb1"/>
  <rect x="31" y="3" width="1" height="1" fill="#a3a5a6"/>
  <rect x="32" y="3" width="1" height="1" fill="#a5a7a9"/>
  <rect x="33" y="3" width="1" height="1" fill="#b1b3b4"/>
  <rect x="34" y="3" width="1" height="1" fill="#b5b7b9"/>
  <rect x="35" y="3" width="1" height="2" fill="#afb1b3"/>
  <rect x="36" y="3" width="1" height="1" fill="#b1b3b4"/>
  <rect x="37" y="3" width="1" height="1" fill="#adafb1"/>
  <rect x="38" y="3" width="1" height="1" fill="#97999b3e"/>
  <rect x="49" y="3" width="1" height="1" fill="#7d7f813e"/>
  <rect x="50" y="3" width="1" height="1" fill="#a4a6a7"/>
  <rect x="51" y="3" width="1" height="1" fill="#adafb1"/>
  <rect x="52" y="3" width="1" height="1" fill="#a7a9ab"/>
  <rect x="53" y="3" width="1" height="1" fill="#8b8d8f"/>
  <rect x="54" y="3" width="1" height="1" fill="#a1a3a5"/>
  <rect x="55" y="3" width="1" height="1" fill="#b1b3b4"/>
  <rect x="56" y="3" width="1" height="1" fill="#afb1b3"/>
  <rect x="57" y="3" width="1" height="1" fill="#a1a3a5"/>
  <rect x="58" y="3" width="1" height="1" fill="#8b8d8f"/>
  <rect x="59" y="3" width="1" height="1" fill="#a7a9ab"/>
  <rect x="60" y="3" width="1" height="1" fill="#b2b2b4"/>
  <rect x="61" y="3" width="1" height="1" fill="#a9a8ab"/>
  <rect x="62" y="3" width="1" height="1" fill="#8282843e"/>
  <rect x="2" y="4" width="1" height="1" fill="#afb1b59d"/>
  <rect x="4" y="4" width="1" height="1" fill="#c1c2c6"/>
  <rect x="5" y="4" width="1" height="1" fill="#b3b5b9"/>
  <rect x="6" y="4" width="1" height="1" fill="#abacb0db"/>
  <rect x="7" y="4" width="1" height="1" fill="#b2b3b790"/>
  <rect x="8" y="4" width="1" height="1" fill="#a6a8ac90"/>
  <rect x="9" y="4" width="1" height="1" fill="#adafb3db"/>
  <rect x="10" y="4" width="1" height="1" fill="#babbbf"/>
  <rect x="13" y="4" width="1" height="1" fill="#b3b5b99d"/>
  <rect x="26" y="4" width="1" height="1" fill="#9c9e9f9d"/>
  <rect x="27" y="4" width="1" height="1" fill="#b4b6b8"/>
  <rect x="28" y="4" width="1" height="1" fill="#adafb1"/>
  <rect x="29" y="4" width="1" height="1" fill="#a6a8aa"/>
  <rect x="30" y="4" width="1" height="1" fill="#969899db"/>
  <rect x="31" y="4" width="1" height="1" fill="#999b9d90"/>
  <rect x="32" y="4" width="1" height="1" fill="#95979890"/>
  <rect x="33" y="4" width="1" height="1" fill="#919395db"/>
  <rect x="34" y="4" width="1" height="1" fill="#a6a8aa"/>
  <rect x="36" y="4" width="1" height="1" fill="#b5b7b9"/>
  <rect x="37" y="4" width="1" height="1" fill="#9ea0a29d"/>
  <rect x="50" y="4" width="1" height="1" fill="#b1b3b49d"/>
  <rect x="51" y="4" width="1" height="1" fill="#b9bbbc"/>
  <rect x="52" y="4" width="1" height="2" fill="#b6b8ba"/>
  <rect x="53" y="4" width="1" height="1" fill="#aeb0b2"/>
  <rect x="54" y="4" width="1" height="1" fill="#b2b4b5db"/>
  <rect x="55" y="4" width="2" height="1" fill="#b1b3b490"/>
  <rect x="57" y="4" width="1" height="1" fill="#b5b7b9db"/>
  <rect x="58" y="4" width="1" height="1" fill="#b3b5b6"/>
  <rect x="59" y="4" width="1" height="1" fill="#acaeb0"/>
  <rect x="60" y="4" width="1" height="1" fill="#b7b6b9"/>
  <rect x="61" y="4" width="1" height="1" fill="#bdbcbf9d"/>
  <rect x="2" y="5" width="1" height="1" fill="#b9babe2b"/>
  <rect x="3" y="5" width="1" height="2" fill="#c4c6ca"/>
  <rect x="4" y="5" width="1" height="1" fill="#bbbdc1"/>
  <rect x="5" y="5" width="1" height="1" fill="#abacb09c"/>
  <rect x="10" y="5" width="1" height="1" fill="#a8aaae9c"/>
  <rect x="11" y="5" width="1" height="1" fill="#bdbfc3"/>
  <rect x="13" y="5" width="1" height="1" fill="#b9babe2c"/>
  <rect x="26" y="5" width="1" height="1" fill="#a8aaac2b"/>
  <rect x="27" y="5" width="1" height="1" fill="#b1b3b4"/>
  <rect x="28" y="5" width="1" height="1" fill="#abadae"/>
  <rect x="29" y="5" width="1" height="1" fill="#989a9c9c"/>
  <rect x="34" y="5" width="1" height="1" fill="#9395979c"/>
  <rect x="35" y="5" width="1" height="1" fill="#adafb1"/>
  <rect x="36" y="5" width="1" height="2" fill="#b1b3b4"/>
  <rect x="37" y="5" width="1" height="1" fill="#acaeb02c"/>
  <rect x="50" y="5" width="1" height="1" fill="#9ea0a22b"/>
  <rect x="51" y="5" width="1" height="1" fill="#abadae"/>
  <rect x="53" y="5" width="1" height="1" fill="#b4b6b89c"/>
  <rect x="58" y="5" width="1" height="1" fill="#acaeb09c"/>
  <rect x="59" y="5" width="1" height="1" fill="#b3b5b6"/>
  <rect x="60" y="5" width="1" height="1" fill="#afaeb1"/>
  <rect x="61" y="5" width="1" height="1" fill="#a3a3a52c"/>
  <rect x="0" y="6" width="1" height="1" fill="#c1c2c649"/>
  <rect x="1" y="6" width="1" height="1" fill="#c2c4c877"/>
  <rect x="2" y="6" width="1" height="1" fill="#c6c7cbb9"/>
  <rect x="4" y="6" width="1" height="1" fill="#b3b5b9d9"/>
  <rect x="7" y="6" width="1" height="1" fill="#bfc0c45a"/>
  <rect x="8" y="6" width="1" height="1" fill="#c4c6c85b"/>
  <rect x="11" y="6" width="1" height="1" fill="#babcbdd9"/>
  <rect x="12" y="6" width="1" height="1" fill="#c2c4c6"/>
  <rect x="13" y="6" width="1" height="1" fill="#c0c2c3b9"/>
  <rect x="14" y="6" width="1" height="1" fill="#c1c3c477"/>
  <rect x="15" y="6" width="1" height="1" fill="#c6c8c949"/>
  <rect x="24" y="6" width="1" height="1" fill="#b2b4b549"/>
  <rect x="25" y="6" width="1" height="1" fill="#b1b3b477"/>
  <rect x="26" y="6" width="1" height="1" fill="#b2b4b5b9"/>
  <rect x="27" y="6" width="1" height="1" fill="#b3b5b6"/>
  <rect x="28" y="6" width="1" height="1" fill="#a7a9abd9"/>
  <rect x="31" y="6" width="1" height="1" fill="#b2b4b55a"/>
  <rect x="32" y="6" width="1" height="1" fill="#b5b7b95b"/>
  <rect x="35" y="6" width="1" height="1" fill="#a7a9abd9"/>
  <rect x="37" y="6" width="1" height="1" fill="#b3b5b6b9"/>
  <rect x="38" y="6" width="1" height="1" fill="#b2b4b577"/>
  <rect x="39" y="6" width="1" height="1" fill="#adafb149"/>
  <rect x="48" y="6" width="1" height="1" fill="#84868849"/>
  <rect x="49" y="6" width="1" height="1" fill="#888a8b77"/>
  <rect x="50" y="6" width="1" height="1" fill="#8b8d8fb9"/>
  <rect x="51" y="6" width="1" height="1" fill="#b2b4b5"/>
  <rect x="52" y="6" width="1" height="1" fill="#aeb0b2d9"/>
  <rect x="55" y="6" width="1" height="1" fill="#8284865a"/>
  <rect x="56" y="6" width="1" height="1" fill="#8587895b"/>
  <rect x="59" y="6" width="1" height="1" fill="#a7a9abd9"/>
  <rect x="60" y="6" width="1" height="1" fill="#b0afb2"/>
  <rect x="61" y="6" width="1" height="1" fill="#939295b9"/>
  <rect x="62" y="6" width="1" height="1" fill="#90909277"/>
  <rect x="63" y="6" width="1" height="1" fill="#7e7d8049"/>
  <rect x="0" y="7" width="1" height="1" fill="#c0c1c5f9"/>
  <rect x="1" y="7" width="2" height="1" fill="#c7c8cc"/>
  <rect x="3" y="7" width="1" height="1" fill="#c1c2c6"/>
  <rect x="4" y="7" width="1" height="1" fill="#b2b3b78f"/>
  <rect x="6" y="7" width="1" height="1" fill="#b6b8bc5b"/>
  <rect x="7" y="7" width="1" height="1" fill="#bdbfc3"/>
  <rect x="8" y="7" width="1" height="1" fill="#babcbd"/>
  <rect x="9" y="7" width="1" height="1" fill="#b9bbbc5b"/>
  <rect x="11" y="7" width="1" height="1" fill="#bbbdbf8f"/>
  <rect x="12" y="7" width="1" height="1" fill="#c0c2c3"/>
  <rect x="13" y="7" width="1" height="1" fill="#c4c6c8"/>
  <rect x="14" y="7" width="1" height="1" fill="#c7c9ca"/>
  <rect x="15" y="7" width="1" height="1" fill="#c6c8c9f8"/>
  <rect x="24" y="7" width="1" height="1" fill="#b2b4b5f9"/>
  <rect x="25" y="7" width="1" height="1" fill="#b3b5b6"/>
  <rect x="26" y="7" width="1" height="1" fill="#b2b4b5"/>
  <rect x="27" y="7" width="1" height="1" fill="#afb1b3"/>
  <rect x="28" y="7" width="1" height="1" fill="#a3a5a68f"/>
  <rect x="30" y="7" width="1" height="1" fill="#a4a6a75b"/>
  <rect x="31" y="7" width="1" height="1" fill="#b1b3b4"/>
  <rect x="32" y="7" width="1" height="1" fill="#b3b5b6"/>
  <rect x="33" y="7" width="1" height="1" fill="#a3a5a65b"/>
  <rect x="35" y="7" width="1" height="1" fill="#a3a5a68f"/>
  <rect x="36" y="7" width="1" height="1" fill="#b4b6b8"/>
  <rect x="37" y="7" width="2" height="1" fill="#afb1b3"/>
  <rect x="39" y="7" width="1" height="1" fill="#b3b5b6f8"/>
  <rect x="48" y="7" width="1" height="1" fill="#989a9cf9"/>
  <rect x="49" y="7" width="1" height="1" fill="#9ea0a2"/>
  <rect x="50" y="7" width="1" height="1" fill="#abadae"/>
  <rect x="51" y="7" width="1" height="1" fill="#acaeb0"/>
  <rect x="52" y="7" width="1" height="1" fill="#b8babb8f"/>
  <rect x="54" y="7" width="1" height="1" fill="#8a8c8e5b"/>
  <rect x="55" y="7" width="1" height="1" fill="#959798"/>
  <rect x="56" y="7" width="1" height="1" fill="#939597"/>
  <rect x="57" y="7" width="1" height="1" fill="#8f91925b"/>
  <rect x="59" y="7" width="1" height="1" fill="#acaeb08f"/>
  <rect x="60" y="7" width="1" height="1" fill="#b3b3b5"/>
  <rect x="61" y="7" width="1" height="1" fill="#a3a3a5"/>
  <rect x="62" y="7" width="1" height="1" fill="#9c9c9e"/>
  <rect x="63" y="7" width="1" height="1" fill="#99989bf8"/>
  <rect x="0" y="8" width="1" height="1" fill="#b5b7bbf9"/>
  <rect x="1" y="8" width="1" height="1" fill="#b4b6ba"/>
  <rect x="2" y="8" width="1" height="1" fill="#bcbec2"/>
  <rect x="3" y="8" width="1" height="1" fill="#caccd0"/>
  <rect x="4" y="8" width="1" height="1" fill="#babbbf8f"/>
  <rect x="6" y="8" width="1" height="1" fill="#adafb15b"/>
  <rect x="7" y="8" width="1" height="1" fill="#b2b4b5"/>
  <rect x="8" y="8" width="1" height="1" fill="#acaeb0"/>
  <rect x="9" y="8" width="1" height="1" fill="#aaacad5b"/>
  <rect x="11" y="8" width="1" height="1" fill="#c4c7c68f"/>
  <rect x="12" y="8" width="1" height="1" fill="#ced0cf"/>
  <rect x="13" y="8" width="1" height="1" fill="#b6b9b8"/>
  <rect x="14" y="8" width="1" height="1" fill="#bbbdbd"/>
  <rect x="15" y="8" width="1" height="1" fill="#b4b6b6f9"/>
  <rect x="18" y="8" width="1" height="1" fill="#acaeb080"/>
  <rect x="19" y="8" width="1" height="1" fill="#b1b3b4"/>
  <rect x="20" y="8" width="1" height="1" fill="#c2c4c6"/>
  <rect x="21" y="8" width="1" height="1" fill="#bcbec0"/>
  <rect x="22" y="8" width="1" height="1" fill="#b3b5b6"/>
  <rect x="23" y="8" width="1" height="1" fill="#a4a6a780"/>
  <rect x="24" y="8" width="1" height="1" fill="#a3a5a6f9"/>
  <rect x="25" y="8" width="1" height="1" fill="#a4a6a7"/>
  <rect x="26" y="8" width="1" height="1" fill="#a8aaac"/>
  <rect x="27" y="8" width="1" height="1" fill="#b3b5b6"/>
  <rect x="28" y="8" width="1" height="1" fill="#aeb0b28f"/>
  <rect x="30" y="8" width="1" height="1" fill="#9c9e9f5b"/>
  <rect x="31" y="8" width="1" height="1" fill="#999b9d"/>
  <rect x="32" y="8" width="1" height="1" fill="#9fa1a3"/>
  <rect x="33" y="8" width="1" height="1" fill="#9d9fa05b"/>
  <rect x="35" y="8" width="1" height="1" fill="#b3b5b68f"/>
  <rect x="36" y="8" width="1" height="1" fill="#b6b8ba"/>
  <rect x="37" y="8" width="1" height="1" fill="#abadae"/>
  <rect x="38" y="8" width="1" height="1" fill="#a4a6a7"/>
  <rect x="39" y="8" width="1" height="1" fill="#a4a6a7f9"/>
  <rect x="42" y="8" width="1" height="1" fill="#9fa1a380"/>
  <rect x="43" y="8" width="1" height="1" fill="#a3a5a6"/>
  <rect x="44" y="8" width="1" height="1" fill="#b8babb"/>
  <rect x="45" y="8" width="1" height="1" fill="#afb1b3"/>
  <rect x="46" y="8" width="1" height="1" fill="#a5a7a9"/>
  <rect x="47" y="8" width="1" height="1" fill="#9c9e9f80"/>
  <rect x="48" y="8" width="1" height="1" fill="#b2b4b5f9"/>
  <rect x="49" y="8" width="2" height="1" fill="#acaeb0"/>
  <rect x="51" y="8" width="1" height="1" fill="#b2b4b5"/>
  <rect x="52" y="8" width="1" height="1" fill="#9a9c9e8f"/>
  <rect x="54" y="8" width="1" height="1" fill="#9a9c9e5b"/>
  <rect x="55" y="8" width="1" height="1" fill="#b4b6b8"/>
  <rect x="56" y="8" width="1" height="1" fill="#b3b5b6"/>
  <rect x="57" y="8" width="1" height="1" fill="#9c9e9f5b"/>
  <rect x="59" y="8" width="1" height="1" fill="#9c9e9f8f"/>
  <rect x="60" y="8" width="1" height="2" fill="#b6b8ba"/>
  <rect x="61" y="8" width="1" height="1" fill="#b1b3b4"/>
  <rect x="62" y="8" width="1" height="1" fill="#acaeb0"/>
  <rect x="63" y="8" width="1" height="1" fill="#aeb0b2f9"/>
  <rect x="66" y="8" width="1" height="1" fill="#84868880"/>
  <rect x="67" y="8" width="1" height="1" fill="#858487"/>
  <rect x="68" y="8" width="1" height="1" fill="#88888a"/>
  <rect x="69" y="8" width="1" height="1" fill="#878789"/>
  <rect x="70" y="8" width="1" height="1" fill="#868686"/>
  <rect x="71" y="8" width="1" height="1" fill="#89898980"/>
  <rect x="0" y="9" width="1" height="1" fill="#a6a8ac4a"/>
  <rect x="1" y="9" width="1" height="1" fill="#a5a7ab88"/>
  <rect x="2" y="9" width="1" height="1" fill="#adafb3c1"/>
  <rect x="3" y="9" width="1" height="1" fill="#bbbdc1"/>
  <rect x="4" y="9" width="1" height="1" fill="#babbbfd9"/>
  <rect x="7" y="9" width="1" height="1" fill="#a8aaac5b"/>
  <rect x="8" y="9" width="1" height="1" fill="#acaeb05b"/>
  <rect x="11" y="9" width="1" height="1" fill="#c3c6c5d8"/>
  <rect x="12" y="9" width="1" height="1" fill="#bcbfbe"/>
  <rect x="13" y="9" width="1" height="1" fill="#abadacc0"/>
  <rect x="14" y="9" width="1" height="1" fill="#a8abaa88"/>
  <rect x="15" y="9" width="1" height="1" fill="#a6a8a84a"/>
  <rect x="19" y="9" width="1" height="1" fill="#acaeb080"/>
  <rect x="20" y="9" width="1" height="1" fill="#b3b5b6"/>
  <rect x="21" y="9" width="1" height="1" fill="#b2b4b5"/>
  <rect x="22" y="9" width="1" height="1" fill="#a6a8aa80"/>
  <rect x="24" y="9" width="1" height="1" fill="#9294964a"/>
  <rect x="25" y="9" width="1" height="1" fill="#9c9e9f88"/>
  <rect x="26" y="9" width="1" height="1" fill="#9c9e9fc1"/>
  <rect x="27" y="9" width="1" height="1" fill="#b5b7b9"/>
  <rect x="28" y="9" width="1" height="1" fill="#aeb0b2d9"/>
  <rect x="31" y="9" width="1" height="1" fill="#97999b5b"/>
  <rect x="32" y="9" width="1" height="1" fill="#9597985b"/>
  <rect x="35" y="9" width="1" height="1" fill="#b2b4b5d8"/>
  <rect x="36" y="9" width="1" height="1" fill="#adafb1"/>
  <rect x="37" y="9" width="1" height="1" fill="#9fa1a3c0"/>
  <rect x="38" y="9" width="1" height="1" fill="#97999b88"/>
  <rect x="39" y="9" width="1" height="1" fill="#9698994a"/>
  <rect x="43" y="9" width="1" height="1" fill="#a3a5a680"/>
  <rect x="44" y="9" width="1" height="1" fill="#a3a5a6"/>
  <rect x="45" y="9" width="1" height="1" fill="#a0a2a4"/>
  <rect x="46" y="9" width="1" height="1" fill="#9ea0a280"/>
  <rect x="48" y="9" width="1" height="1" fill="#aeb0b24a"/>
  <rect x="49" y="9" width="1" height="1" fill="#b3b5b688"/>
  <rect x="50" y="9" width="1" height="1" fill="#b3b5b6c1"/>
  <rect x="51" y="9" width="1" height="1" fill="#aeb0b2"/>
  <rect x="52" y="9" width="1" height="1" fill="#a3a5a6d9"/>
  <rect x="55" y="9" width="1" height="1" fill="#b8babb5b"/>
  <rect x="56" y="9" width="1" height="1" fill="#b6b8ba5b"/>
  <rect x="59" y="9" width="1" height="1" fill="#a3a5a6d8"/>
  <rect x="61" y="9" width="1" height="1" fill="#b8babbc0"/>
  <rect x="62" y="9" width="1" height="1" fill="#b3b5b688"/>
  <rect x="63" y="9" width="1" height="1" fill="#abadae4a"/>
  <rect x="67" y="9" width="1" height="1" fill="#acaeb080"/>
  <rect x="68" y="9" width="1" height="1" fill="#b7b6b9"/>
  <rect x="69" y="9" width="1" height="1" fill="#b4b4b6"/>
  <rect x="70" y="9" width="1" height="1" fill="#b4b4b480"/>
  <rect x="2" y="10" width="1" height="1" fill="#b8b9bd2b"/>
  <rect x="3" y="10" width="1" height="2" fill="#c6c7cb"/>
  <rect x="4" y="10" width="1" height="1" fill="#c7c8cc"/>
  <rect x="5" y="10" width="1" height="1" fill="#c9cbcf9b"/>
  <rect x="10" y="10" width="1" height="1" fill="#c4c7c69a"/>
  <rect x="11" y="10" width="1" height="1" fill="#c3c6c3"/>
  <rect x="12" y="10" width="1" height="1" fill="#c4c7c6"/>
  <rect x="13" y="10" width="1" height="1" fill="#bbbdbd2c"/>
  <rect x="20" y="10" width="1" height="1" fill="#acaeb080"/>
  <rect x="21" y="10" width="1" height="1" fill="#a4a6a780"/>
  <rect x="26" y="10" width="1" height="1" fill="#a8aaac2b"/>
  <rect x="27" y="10" width="1" height="2" fill="#b3b5b6"/>
  <rect x="28" y="10" width="1" height="1" fill="#b5b7b9"/>
  <rect x="29" y="10" width="1" height="1" fill="#b4b6b89b"/>
  <rect x="34" y="10" width="1" height="1" fill="#afb1b39a"/>
  <rect x="35" y="10" width="1" height="1" fill="#b3b5b6"/>
  <rect x="36" y="10" width="1" height="1" fill="#b5b7b9"/>
  <rect x="37" y="10" width="1" height="1" fill="#a7a9ab2c"/>
  <rect x="44" y="10" width="1" height="1" fill="#999b9d80"/>
  <rect x="45" y="10" width="1" height="1" fill="#9a9c9e80"/>
  <rect x="50" y="10" width="1" height="1" fill="#a5a7a92b"/>
  <rect x="51" y="10" width="1" height="1" fill="#aaacad"/>
  <rect x="52" y="10" width="1" height="1" fill="#abadae"/>
  <rect x="53" y="10" width="1" height="1" fill="#87898a9b"/>
  <rect x="58" y="10" width="1" height="1" fill="#87898a9a"/>
  <rect x="59" y="10" width="1" height="1" fill="#abadae"/>
  <rect x="60" y="10" width="1" height="1" fill="#b2b4b5"/>
  <rect x="61" y="10" width="1" height="1" fill="#aaacad2c"/>
  <rect x="68" y="10" width="1" height="1" fill="#b3b3b580"/>
  <rect x="69" y="10" width="1" height="1" fill="#b1b1b380"/>
  <rect x="2" y="11" width="1" height="1" fill="#b9babe9d"/>
  <rect x="4" y="11" width="1" height="1" fill="#c3c5c9"/>
  <rect x="5" y="11" width="1" height="1" fill="#c2c4c8"/>
  <rect x="6" y="11" width="1" height="1" fill="#c4c6c8db"/>
  <rect x="7" y="11" width="1" height="1" fill="#c1c3c48e"/>
  <rect x="8" y="11" width="1" height="1" fill="#c1c3c28e"/>
  <rect x="9" y="11" width="1" height="1" fill="#c3c6c5db"/>
  <rect x="10" y="11" width="1" height="1" fill="#c6c8c5"/>
  <rect x="11" y="11" width="1" height="1" fill="#c1c4c0"/>
  <rect x="12" y="11" width="1" height="1" fill="#c3c6c5"/>
  <rect x="13" y="11" width="1" height="1" fill="#c0c2c19d"/>
  <rect x="26" y="11" width="1" height="1" fill="#b5b7b99d"/>
  <rect x="28" y="11" width="2" height="1" fill="#b1b3b4"/>
  <rect x="30" y="11" width="1" height="1" fill="#b1b3b4db"/>
  <rect x="31" y="11" width="1" height="1" fill="#acaeb08e"/>
  <rect x="32" y="11" width="1" height="1" fill="#aeb0b28e"/>
  <rect x="33" y="11" width="1" height="1" fill="#b5b7b9db"/>
  <rect x="34" y="11" width="1" height="1" fill="#b4b6b8"/>
  <rect x="35" y="11" width="1" height="1" fill="#abadae"/>
  <rect x="36" y="11" width="1" height="1" fill="#b3b5b6"/>
  <rect x="37" y="11" width="1" height="1" fill="#a8aaac9d"/>
  <rect x="50" y="11" width="1" height="1" fill="#888a8b9d"/>
  <rect x="51" y="11" width="1" height="1" fill="#a6a8aa"/>
  <rect x="52" y="11" width="1" height="1" fill="#aeb0b2"/>
  <rect x="53" y="11" width="1" height="1" fill="#a0a2a4"/>
  <rect x="54" y="11" width="1" height="1" fill="#828486db"/>
  <rect x="55" y="11" width="1" height="1" fill="#898b8d8e"/>
  <rect x="56" y="11" width="1" height="1" fill="#888a8b8e"/>
  <rect x="57" y="11" width="1" height="1" fill="#838587db"/>
  <rect x="58" y="11" width="1" height="1" fill="#a1a3a5"/>
  <rect x="59" y="11" width="2" height="1" fill="#aeb0b2"/>
  <rect x="61" y="11" width="1" height="1" fill="#8c8e909d"/>
  <rect x="1" y="12" width="1" height="1" fill="#a0a2a63e"/>
  <rect x="2" y="12" width="1" height="1" fill="#b9babe"/>
  <rect x="3" y="12" width="1" height="1" fill="#c8c9cd"/>
  <rect x="4" y="12" width="1" height="1" fill="#bcbec2"/>
  <rect x="5" y="12" width="1" height="1" fill="#a5a7ab"/>
  <rect x="6" y="12" width="1" height="1" fill="#b9bbbc"/>
  <rect x="7" y="12" width="1" height="1" fill="#c6c8c9"/>
  <rect x="8" y="12" width="1" height="1" fill="#c0c2c1"/>
  <rect x="9" y="12" width="1" height="1" fill="#bdc0bf"/>
  <rect x="10" y="12" width="1" height="1" fill="#abaeaa"/>
  <rect x="11" y="12" width="1" height="1" fill="#b9bcb8"/>
  <rect x="12" y="12" width="1" height="1" fill="#cbcecd"/>
  <rect x="13" y="12" width="1" height="1" fill="#b2b4b3"/>
  <rect x="14" y="12" width="1" height="1" fill="#a8abaa3e"/>
  <rect x="25" y="12" width="1" height="1" fill="#9698993e"/>
  <rect x="26" y="12" width="1" height="1" fill="#abadae"/>
  <rect x="27" y="12" width="1" height="1" fill="#b1b3b4"/>
  <rect x="28" y="12" width="1" height="1" fill="#a6a8aa"/>
  <rect x="29" y="12" width="1" height="1" fill="#999b9d"/>
  <rect x="30" y="12" width="1" height="1" fill="#aaacad"/>
  <rect x="31" y="12" width="1" height="1" fill="#b4b6b8"/>
  <rect x="32" y="12" width="1" height="1" fill="#b3b5b6"/>
  <rect x="33" y="12" width="1" height="1" fill="#abadae"/>
  <rect x="34" y="12" width="1" height="1" fill="#9ea0a2"/>
  <rect x="35" y="12" width="1" height="1" fill="#adafb1"/>
  <rect x="36" y="12" width="1" height="1" fill="#b4b6b8"/>
  <rect x="37" y="12" width="1" height="1" fill="#a8aaac"/>
  <rect x="38" y="12" width="1" height="1" fill="#9698993e"/>
  <rect x="49" y="12" width="1" height="1" fill="#8183843e"/>
  <rect x="50" y="12" width="1" height="1" fill="#a7a9ab"/>
  <rect x="51" y="12" width="1" height="1" fill="#b1b3b4"/>
  <rect x="52" y="12" width="1" height="1" fill="#b6b8ba"/>
  <rect x="53" y="12" width="1" height="1" fill="#babcbd"/>
  <rect x="54" y="12" width="1" height="1" fill="#afb1b3"/>
  <rect x="55" y="12" width="1" height="1" fill="#9c9e9f"/>
  <rect x="56" y="12" width="1" height="1" fill="#989a9c"/>
  <rect x="57" y="12" width="1" height="1" fill="#acaeb0"/>
  <rect x="58" y="12" width="1" height="1" fill="#b8babb"/>
  <rect x="59" y="12" width="2" height="1" fill="#b4b6b8"/>
  <rect x="61" y="12" width="1" height="1" fill="#a6a8aa"/>
  <rect x="62" y="12" width="1" height="1" fill="#8587893e"/>
  <rect x="2" y="13" width="1" height="1" fill="#aaabafc3"/>
  <rect x="3" y="13" width="1" height="1" fill="#afb1b5"/>
  <rect x="4" y="13" width="1" height="1" fill="#aeb0b49d"/>
  <rect x="5" y="13" width="1" height="1" fill="#a6a8ac2c"/>
  <rect x="6" y="13" width="1" height="1" fill="#b6b8baba"/>
  <rect x="7" y="13" width="1" height="1" fill="#c7c9ca"/>
  <rect x="8" y="13" width="1" height="1" fill="#c4c7c6"/>
  <rect x="9" y="13" width="1" height="1" fill="#b9bbbac0"/>
  <rect x="10" y="13" width="1" height="1" fill="#a8aba82c"/>
  <rect x="11" y="13" width="1" height="1" fill="#adb0ad9d"/>
  <rect x="12" y="13" width="1" height="1" fill="#b2b4b3"/>
  <rect x="13" y="13" width="1" height="1" fill="#a7aaa9c3"/>
  <rect x="26" y="13" width="1" height="1" fill="#97999bc3"/>
  <rect x="27" y="13" width="1" height="1" fill="#a0a2a4"/>
  <rect x="28" y="13" width="1" height="1" fill="#9597989d"/>
  <rect x="29" y="13" width="1" height="1" fill="#9597982c"/>
  <rect x="30" y="13" width="1" height="1" fill="#a6a8aaba"/>
  <rect x="31" y="13" width="2" height="1" fill="#b4b6b8"/>
  <rect x="33" y="13" width="1" height="1" fill="#a4a6a7c0"/>
  <rect x="34" y="13" width="1" height="1" fill="#9294962c"/>
  <rect x="35" y="13" width="1" height="1" fill="#9597989d"/>
  <rect x="36" y="13" width="1" height="1" fill="#9ea0a2"/>
  <rect x="37" y="13" width="1" height="1" fill="#999b9dc3"/>
  <rect x="50" y="13" width="1" height="1" fill="#adafb1c3"/>
  <rect x="51" y="13" width="1" height="1" fill="#b4b6b8"/>
  <rect x="52" y="13" width="1" height="1" fill="#aeb0b29d"/>
  <rect x="53" y="13" width="1" height="1" fill="#b5b7b92c"/>
  <rect x="54" y="13" width="1" height="1" fill="#b8babbba"/>
  <rect x="55" y="13" width="1" height="1" fill="#b4b6b8"/>
  <rect x="56" y="13" width="1" height="1" fill="#b2b4b5"/>
  <rect x="57" y="13" width="1" height="1" fill="#b4b6b8c0"/>
  <rect x="58" y="13" width="1" height="1" fill="#b3b5b62c"/>
  <rect x="59" y="13" width="1" height="1" fill="#acaeb09d"/>
  <rect x="60" y="13" width="1" height="1" fill="#b3b5b6"/>
  <rect x="61" y="13" width="1" height="1" fill="#b8babbc3"/>
  <rect x="3" y="14" width="1" height="1" fill="#a8aaae3e"/>
  <rect x="6" y="14" width="1" height="1" fill="#afb1b378"/>
  <rect x="7" y="14" width="1" height="1" fill="#bbbdbf"/>
  <rect x="8" y="14" width="1" height="1" fill="#bdc0bf"/>
  <rect x="9" y="14" width="1" height="1" fill="#adafaf87"/>
  <rect x="12" y="14" width="1" height="1" fill="#a8abaa3e"/>
  <rect x="27" y="14" width="1" height="1" fill="#9a9c9e3e"/>
  <rect x="30" y="14" width="1" height="1" fill="#a6a8aa78"/>
  <rect x="31" y="14" width="2" height="1" fill="#afb1b3"/>
  <rect x="33" y="14" width="1" height="1" fill="#a1a3a587"/>
  <rect x="36" y="14" width="1" height="1" fill="#999b9d3e"/>
  <rect x="51" y="14" width="1" height="1" fill="#abadae3e"/>
  <rect x="54" y="14" width="1" height="1" fill="#a4a6a778"/>
  <rect x="55" y="14" width="1" height="1" fill="#aeb0b2"/>
  <rect x="56" y="14" width="1" height="1" fill="#acaeb0"/>
  <rect x="57" y="14" width="1" height="1" fill="#a1a3a587"/>
  <rect x="60" y="14" width="1" height="1" fill="#b1b3b43e"/>
  <rect x="6" y="15" width="1" height="1" fill="#a5a7a94a"/>
  <rect x="7" y="15" width="1" height="1" fill="#a8aaacf8"/>
  <rect x="8" y="15" width="1" height="1" fill="#aeb1b0f8"/>
  <rect x="9" y="15" width="1" height="1" fill="#a0a3a24a"/>
  <rect x="30" y="15" width="1" height="1" fill="#97999b4a"/>
  <rect x="31" y="15" width="1" height="1" fill="#97999bf8"/>
  <rect x="32" y="15" width="1" height="1" fill="#969899f8"/>
  <rect x="33" y="15" width="1" height="1" fill="#9698994a"/>
  <rect x="54" y="15" width="1" height="1" fill="#a3a5a64a"/>
  <rect x="55" y="15" width="1" height="1" fill="#afb1b3f8"/>
  <rect x="56" y="15" width="1" height="1" fill="#adafb1f8"/>
  <rect x="57" y="15" width="1" height="1" fill="#a0a2a44a"/>
</svg>