<svg xmlns="http://www.w3.org/2000/svg" width="20" height="20" viewBox="0 0 20 20" shape-rendering="crispEdges">
  <rect x="7" y="3" width="1" height="1" fill="#9c9c9c68"/>
  <rect x="8" y="3" width="1" height="1" fill="#9b9b9bf7"/>
  <rect x="9" y="3" width="1" height="1" fill="#999999"/>
  <rect x="10" y="3" width="5" height="1" fill="#979797"/>
  <rect x="15" y="3" width="1" height="1" fill="#979797f7"/>
  <rect x="16" y="3" width="1" height="1" fill="#94949468"/>
  <rect x="7" y="4" width="1" height="1" fill="#a8a8a8f8"/>
  <rect x="8" y="4" width="3" height="1" fill="#adadad"/>
  <rect x="11" y="4" width="2" height="1" fill="#acacac"/>
  <rect x="13" y="4" width="3" height="1" fill="#ababab"/>
  <rect x="16" y="4" width="1" height="1" fill="#a5a5a5f8"/>
  <rect x="7" y="5" width="1" height="2" fill="#b3b3b3"/>
  <rect x="8" y="5" width="4" height="1" fill="#b9b9b9"/>
  <rect x="12" y="5" width="4" height="1" fill="#b8b8b8"/>
  <rect x="16" y="5" width="1" height="1" fill="#a9a9a9"/>
  <rect x="3" y="6" width="1" height="1" fill="#a0a0a05d"/>
  <rect x="4" y="6" width="1" height="1" fill="#9c9c9cee"/>
  <rect x="5" y="6" width="1" height="1" fill="#9a9a9a"/>
  <rect x="8" y="6" width="3" height="1" fill="#bfbfbf"/>
  <rect x="11" y="6" width="2" height="1" fill="#bebebe"/>
  <rect x="13" y="6" width="3" height="1" fill="#bdbdbd"/>
  <rect x="16" y="6" width="1" height="1" fill="#acacac"/>
  <rect x="3" y="7" width="1" height="1" fill="#a3a3a3f5"/>
  <rect x="4" y="7" width="1" height="1" fill="#a4a4a4"/>
  <rect x="5" y="7" width="1" height="1" fill="#9e9e9e"/>
  <rect x="7" y="7" width="1" height="1" fill="#a8a8a8"/>
  <rect x="8" y="7" width="4" height="1" fill="#bdbdbd"/>
  <rect x="12" y="7" width="4" height="1" fill="#bebebe"/>
  <rect x="16" y="7" width="1" height="2" fill="#afafaf"/>
  <rect x="3" y="8" width="1" height="4" fill="#b0b0b0"/>
  <rect x="4" y="8" width="1" height="1" fill="#c2c2c2"/>
  <rect x="5" y="8" width="1" height="1" fill="#adadad"/>
  <rect x="7" y="8" width="1" height="1" fill="#a5a5a5"/>
  <rect x="8" y="8" width="3" height="1" fill="#bfbfbf"/>
  <rect x="11" y="8" width="1" height="1" fill="#c0c0c0"/>
  <rect x="12" y="8" width="1" height="1" fill="#c1c1c1"/>
  <rect x="13" y="8" width="1" height="1" fill="#bfbfbf"/>
  <rect x="14" y="8" width="1" height="1" fill="#b9b9b9"/>
  <rect x="15" y="8" width="1" height="1" fill="#b7b7b7"/>
  <rect x="4" y="9" width="1" height="1" fill="#bdbdbd"/>
  <rect x="5" y="9" width="1" height="1" fill="#acacac"/>
  <rect x="7" y="9" width="1" height="1" fill="#b1b1b1"/>
  <rect x="8" y="9" width="4" height="1" fill="#bababa"/>
  <rect x="12" y="9" width="1" height="1" fill="#b8b8b8"/>
  <rect x="13" y="9" width="1" height="1" fill="#b3b3b3"/>
  <rect x="14" y="9" width="1" height="1" fill="#b4b4b4"/>
  <rect x="15" y="9" width="1" height="1" fill="#bbbbbb"/>
  <rect x="16" y="9" width="1" height="1" fill="#b6b6b6"/>
  <rect x="4" y="10" width="1" height="1" fill="#bfbfbf"/>
  <rect x="5" y="10" width="1" height="1" fill="#b2b2b2"/>
  <rect x="6" y="10" width="1" height="1" fill="#a1a1a10d"/>
  <rect x="7" y="10" width="1" height="1" fill="#e3e3e3f8"/>
  <rect x="8" y="10" width="3" height="1" fill="#bdbdbd"/>
  <rect x="11" y="10" width="1" height="1" fill="#bababa"/>
  <rect x="12" y="10" width="1" height="1" fill="#b9b9b9"/>
  <rect x="13" y="10" width="1" height="1" fill="#bfbfbf"/>
  <rect x="14" y="10" width="1" height="1" fill="#bebebe"/>
  <rect x="15" y="10" width="1" height="1" fill="#b7b7b7"/>
  <rect x="16" y="10" width="1" height="1" fill="#d7d7d7f7"/>
  <rect x="4" y="11" width="1" height="1" fill="#b9b9b9"/>
  <rect x="5" y="11" width="1" height="1" fill="#b3b3b3"/>
  <rect x="6" y="11" width="1" height="1" fill="#aaaaaa9f"/>
  <rect x="7" y="11" width="1" height="1" fill="#eeeeee6e"/>
  <rect x="8" y="11" width="1" height="1" fill="#fffffff5"/>
  <rect x="9" y="11" width="3" height="1" fill="#ffffff"/>
  <rect x="12" y="11" width="1" height="1" fill="#dcdcdc"/>
  <rect x="13" y="11" width="1" height="1" fill="#b9b9b9"/>
  <rect x="14" y="11" width="1" height="1" fill="#c1c1c1"/>
  <rect x="15" y="11" width="1" height="1" fill="#f7f7f7f5"/>
  <rect x="16" y="11" width="1" height="1" fill="#ffffff67"/>
  <rect x="3" y="12" width="1" height="1" fill="#acacac"/>
  <rect x="4" y="12" width="1" height="1" fill="#b4b4b4"/>
  <rect x="5" y="12" width="1" height="1" fill="#b6b6b6"/>
  <rect x="6" y="12" width="1" height="1" fill="#afafaf"/>
  <rect x="7" y="12" width="1" height="1" fill="#a2a2a2"/>
  <rect x="8" y="12" width="3" height="1" fill="#a4a4a4"/>
  <rect x="11" y="12" width="1" height="1" fill="#a4a4a4f6"/>
  <rect x="12" y="12" width="1" height="1" fill="#e7e7e799"/>
  <rect x="13" y="12" width="1" height="1" fill="#d5d5d5"/>
  <rect x="14" y="12" width="1" height="1" fill="#adadad"/>
  <rect x="3" y="13" width="1" height="1" fill="#ddddddf5"/>
  <rect x="4" y="13" width="1" height="1" fill="#bfbfbf"/>
  <rect x="5" y="13" width="1" height="1" fill="#b8b8b8"/>
  <rect x="6" y="13" width="1" height="1" fill="#b4b4b4"/>
  <rect x="7" y="13" width="2" height="1" fill="#afafaf"/>
  <rect x="9" y="13" width="3" height="1" fill="#b0b0b0"/>
  <rect x="12" y="13" width="1" height="1" fill="#aaaaaad7"/>
  <rect x="13" y="13" width="1" height="1" fill="#ffffff81"/>
  <rect x="14" y="13" width="1" height="1" fill="#d9d9d9"/>
  <rect x="3" y="14" width="1" height="1" fill="#fefefe5d"/>
  <rect x="4" y="14" width="1" height="1" fill="#ffffffee"/>
  <rect x="5" y="14" width="1" height="1" fill="#b4b4b4"/>
  <rect x="6" y="14" width="1" height="1" fill="#c2c2c2"/>
  <rect x="7" y="14" width="1" height="1" fill="#f3f3f3"/>
  <rect x="8" y="14" width="4" height="1" fill="#ffffff"/>
  <rect x="12" y="14" width="1" height="1" fill="#fefefecd"/>
  <rect x="14" y="14" width="1" height="1" fill="#ffffff80"/>
  <rect x="5" y="15" width="1" height="1" fill="#b7b7b7"/>
  <rect x="6" y="15" width="1" height="1" fill="#f7f7f7e9"/>
  <rect x="7" y="15" width="1" height="1" fill="#fcfbfc18"/>
  <rect x="5" y="16" width="1" height="1" fill="#e3e3e3fb"/>
  <rect x="6" y="16" width="1" height="1" fill="#ffffff37"/>
  <rect x="5" y="17" width="1" height="1" fill="#f6f6f663"/>
</svg>