<svg xmlns="http://www.w3.org/2000/svg" width="20" height="16" viewBox="0 0 20 16" shape-rendering="crispEdges">
  <rect x="7" y="0" width="1" height="1" fill="#afafaf37"/>
  <rect x="8" y="0" width="1" height="1" fill="#b0b0b0bf"/>
  <rect x="9" y="0" width="1" height="1" fill="#b0b0b0f3"/>
  <rect x="10" y="0" width="1" height="1" fill="#b1b1b1c9"/>
  <rect x="11" y="0" width="1" height="1" fill="#b0b0b03f"/>
  <rect x="6" y="1" width="1" height="1" fill="#afafaf1a"/>
  <rect x="7" y="1" width="1" height="1" fill="#afafaff0"/>
  <rect x="8" y="1" width="2" height="1" fill="#b0b0b0"/>
  <rect x="10" y="1" width="1" height="1" fill="#b1b1b1"/>
  <rect x="11" y="1" width="1" height="1" fill="#b0b0b0f3"/>
  <rect x="12" y="1" width="1" height="1" fill="#afafaf1e"/>
  <rect x="6" y="2" width="1" height="1" fill="#afafaf7b"/>
  <rect x="7" y="2" width="1" height="4" fill="#b0b0b0"/>
  <rect x="8" y="2" width="2" height="2" fill="#b1b1b1"/>
  <rect x="10" y="2" width="1" height="2" fill="#b2b2b2"/>
  <rect x="11" y="2" width="1" height="2" fill="#b1b1b1"/>
  <rect x="12" y="2" width="1" height="1" fill="#afafaf80"/>
  <rect x="6" y="3" width="1" height="1" fill="#afafafa4"/>
  <rect x="12" y="3" width="1" height="1" fill="#afafafa9"/>
  <rect x="6" y="4" width="1" height="1" fill="#a0a0a09f"/>
  <rect x="8" y="4" width="2" height="1" fill="#b2b2b4"/>
  <rect x="10" y="4" width="1" height="1" fill="#b3b3b5"/>
  <rect x="11" y="4" width="1" height="1" fill="#b2b2b4"/>
  <rect x="12" y="4" width="1" height="1" fill="#a3a3a5a3"/>
  <rect x="6" y="5" width="1" height="1" fill="#a0a0a07f"/>
  <rect x="8" y="5" width="4" height="1" fill="#b3b3b5"/>
  <rect x="12" y="5" width="1" height="1" fill="#a3a3a57f"/>
  <rect x="6" y="6" width="1" height="1" fill="#a0a0a04c"/>
  <rect x="7" y="6" width="1" height="2" fill="#b1b1b1"/>
  <rect x="8" y="6" width="4" height="1" fill="#b3b5b6"/>
  <rect x="12" y="6" width="1" height="1" fill="#a1a3a54c"/>
  <rect x="6" y="7" width="1" height="1" fill="#a0a0a016"/>
  <rect x="8" y="7" width="1" height="3" fill="#b3b5b6"/>
  <rect x="9" y="7" width="1" height="3" fill="#b4b6b8"/>
  <rect x="10" y="7" width="1" height="1" fill="#b5b7b9"/>
  <rect x="11" y="7" width="1" height="1" fill="#b3b5b6"/>
  <rect x="12" y="7" width="1" height="1" fill="#a4a6a718"/>
  <rect x="7" y="8" width="1" height="1" fill="#afb1b3"/>
  <rect x="10" y="8" width="1" height="1" fill="#b4b8b9"/>
  <rect x="11" y="8" width="1" height="1" fill="#b7bcbc"/>
  <rect x="15" y="8" width="1" height="1" fill="#b4b6ba1c"/>
  <rect x="16" y="8" width="1" height="1" fill="#b3b5b9cb"/>
  <rect x="17" y="8" width="1" height="1" fill="#b3b5b9e6"/>
  <rect x="18" y="8" width="1" height="1" fill="#b4b6ba43"/>
  <rect x="6" y="9" width="1" height="1" fill="#aeb0b21d"/>
  <rect x="7" y="9" width="1" height="1" fill="#b1b3b4"/>
  <rect x="10" y="9" width="1" height="1" fill="#b0b5b5"/>
  <rect x="11" y="9" width="1" height="1" fill="#adb1b2"/>
  <rect x="12" y="9" width="1" height="1" fill="#a8acaf1d"/>
  <rect x="14" y="9" width="1" height="1" fill="#aaaeb21c"/>
  <rect x="15" y="9" width="1" height="1" fill="#b2b6badb"/>
  <rect x="16" y="9" width="1" height="1" fill="#b1b2b8"/>
  <rect x="17" y="9" width="1" height="1" fill="#b2b3b9"/>
  <rect x="18" y="9" width="1" height="1" fill="#a6a7aee9"/>
  <rect x="6" y="10" width="1" height="1" fill="#aeb0b28d"/>
  <rect x="7" y="10" width="1" height="1" fill="#b2b4b5"/>
  <rect x="8" y="10" width="1" height="1" fill="#b2b7b8"/>
  <rect x="9" y="10" width="1" height="1" fill="#b0b5b5"/>
  <rect x="10" y="10" width="1" height="1" fill="#a9aeae"/>
  <rect x="11" y="10" width="1" height="1" fill="#a1a7a7"/>
  <rect x="12" y="10" width="1" height="1" fill="#a2a6a953"/>
  <rect x="13" y="10" width="1" height="1" fill="#aaaeb21c"/>
  <rect x="14" y="10" width="1" height="1" fill="#afb3b6db"/>
  <rect x="15" y="10" width="1" height="1" fill="#aeb2b5"/>
  <rect x="16" y="10" width="1" height="1" fill="#afb3b6"/>
  <rect x="17" y="10" width="1" height="1" fill="#a6aaad"/>
  <rect x="18" y="10" width="1" height="1" fill="#9b9fa2b6"/>
  <rect x="4" y="11" width="1" height="1" fill="#afaeb10d"/>
  <rect x="5" y="11" width="1" height="1" fill="#afaeb18b"/>
  <rect x="6" y="11" width="2" height="1" fill="#aeb0b2"/>
  <rect x="8" y="11" width="1" height="1" fill="#b7bcbc"/>
  <rect x="9" y="11" width="1" height="1" fill="#afb3b4"/>
  <rect x="10" y="11" width="1" height="1" fill="#a2a9a9"/>
  <rect x="11" y="11" width="1" height="1" fill="#9aa0a080"/>
  <rect x="12" y="11" width="1" height="1" fill="#9fa3a61c"/>
  <rect x="13" y="11" width="1" height="1" fill="#aeb2b5db"/>
  <rect x="14" y="11" width="1" height="1" fill="#b2b6ba"/>
  <rect x="15" y="11" width="1" height="1" fill="#aaaeb2"/>
  <rect x="16" y="11" width="1" height="1" fill="#b1b5b9"/>
  <rect x="17" y="11" width="1" height="1" fill="#999da0c4"/>
  <rect x="18" y="11" width="1" height="1" fill="#9a9ea10e"/>
  <rect x="2" y="12" width="1" height="1" fill="#b4b4b446"/>
  <rect x="3" y="12" width="1" height="1" fill="#b8b8b899"/>
  <rect x="4" y="12" width="1" height="1" fill="#b9b9bbf0"/>
  <rect x="5" y="12" width="1" height="1" fill="#b8b8ba"/>
  <rect x="6" y="12" width="2" height="1" fill="#b6b8ba"/>
  <rect x="8" y="12" width="1" height="1" fill="#b4b8bb"/>
  <rect x="9" y="12" width="1" height="1" fill="#b6babd"/>
  <rect x="10" y="12" width="1" height="1" fill="#9da4a6c0"/>
  <rect x="12" y="12" width="1" height="1" fill="#a3a7ab3e"/>
  <rect x="13" y="12" width="1" height="1" fill="#9ca0a4f4"/>
  <rect x="14" y="12" width="1" height="1" fill="#b0b4b7"/>
  <rect x="15" y="12" width="1" height="1" fill="#a9adb0"/>
  <rect x="16" y="12" width="1" height="1" fill="#979b9ec4"/>
  <rect x="17" y="12" width="1" height="1" fill="#9b9fa20e"/>
  <rect x="1" y="13" width="1" height="1" fill="#adadadd0"/>
  <rect x="2" y="13" width="1" height="1" fill="#b0b0b0"/>
  <rect x="3" y="13" width="1" height="1" fill="#b1b1b1"/>
  <rect x="4" y="13" width="2" height="2" fill="#b1b1b3"/>
  <rect x="6" y="13" width="2" height="2" fill="#afb1b3"/>
  <rect x="8" y="13" width="1" height="1" fill="#aeb2b5"/>
  <rect x="9" y="13" width="1" height="2" fill="#b2b6ba"/>
  <rect x="10" y="13" width="1" height="1" fill="#8e949740"/>
  <rect x="11" y="13" width="1" height="1" fill="#afb5b7c1"/>
  <rect x="12" y="13" width="1" height="1" fill="#b6babd8e"/>
  <rect x="13" y="13" width="1" height="1" fill="#a8acaf3b"/>
  <rect x="14" y="13" width="1" height="1" fill="#9fa3a6f0"/>
  <rect x="15" y="13" width="1" height="1" fill="#919598c4"/>
  <rect x="16" y="13" width="1" height="1" fill="#9b9fa20e"/>
  <rect x="1" y="14" width="1" height="1" fill="#b7b7b7"/>
  <rect x="2" y="14" width="1" height="1" fill="#b4b4b4"/>
  <rect x="3" y="14" width="1" height="1" fill="#b2b2b2"/>
  <rect x="8" y="14" width="1" height="1" fill="#aaaeb2"/>
  <rect x="11" y="14" width="1" height="1" fill="#b2b8bbf1"/>
  <rect x="12" y="14" width="1" height="1" fill="#afb3b6"/>
  <rect x="13" y="14" width="1" height="1" fill="#a9adb08a"/>
  <rect x="14" y="14" width="1" height="1" fill="#94989b2d"/>
  <rect x="15" y="14" width="1" height="1" fill="#8e92960e"/>
  <rect x="1" y="15" width="1" height="1" fill="#a4a4a4"/>
  <rect x="2" y="15" width="1" height="1" fill="#9d9d9d"/>
  <rect x="3" y="15" width="1" height="1" fill="#9a9a9a"/>
  <rect x="4" y="15" width="2" height="1" fill="#99989b"/>
  <rect x="6" y="15" width="2" height="1" fill="#97999b"/>
  <rect x="8" y="15" width="1" height="1" fill="#8b8f92"/>
  <rect x="9" y="15" width="1" height="1" fill="#989c9f"/>
  <rect x="11" y="15" width="1" height="1" fill="#8e9497"/>
  <rect x="12" y="15" width="1" height="1" fill="#929699"/>
  <rect x="13" y="15" width="1" height="1" fill="#a0a4a7d8"/>
  <rect x="14" y="15" width="1" height="1" fill="#95999d0d"/>
</svg>