<svg xmlns="http://www.w3.org/2000/svg" width="24" height="14" viewBox="0 0 24 14" shape-rendering="crispEdges">
  <rect x="0" y="1" width="1" height="1" fill="#6f6f6f27"/>
  <rect x="1" y="1" width="1" height="1" fill="#6b6b6b7b"/>
  <rect x="2" y="1" width="1" height="1" fill="#78787888"/>
  <rect x="3" y="1" width="1" height="1" fill="#73737388"/>
  <rect x="4" y="1" width="5" height="1" fill="#77777788"/>
  <rect x="9" y="1" width="1" height="1" fill="#7a7a7a88"/>
  <rect x="10" y="1" width="1" height="1" fill="#6f6f6f7b"/>
  <rect x="11" y="1" width="1" height="1" fill="#72727227"/>
  <rect x="12" y="1" width="1" height="1" fill="#8b8b8b49"/>
  <rect x="13" y="1" width="1" height="1" fill="#8e8e8ee6"/>
  <rect x="14" y="1" width="1" height="1" fill="#868686"/>
  <rect x="15" y="1" width="1" height="1" fill="#8b8a8d"/>
  <rect x="16" y="1" width="4" height="1" fill="#88898d"/>
  <rect x="20" y="1" width="1" height="1" fill="#84868a"/>
  <rect x="21" y="1" width="1" height="1" fill="#898b8f"/>
  <rect x="22" y="1" width="1" height="1" fill="#8a8c90e6"/>
  <rect x="23" y="1" width="1" height="1" fill="#87888c49"/>
  <rect x="0" y="2" width="1" height="1" fill="#8e8e8e7c"/>
  <rect x="1" y="2" width="1" height="1" fill="#99999975"/>
  <rect x="2" y="2" width="1" height="1" fill="#96969673"/>
  <rect x="3" y="2" width="1" height="1" fill="#a2a2a273"/>
  <rect x="4" y="2" width="4" height="1" fill="#9e9e9e73"/>
  <rect x="8" y="2" width="1" height="1" fill="#a7a6a773"/>
  <rect x="9" y="2" width="1" height="1" fill="#9c9c9c73"/>
  <rect x="10" y="2" width="1" height="1" fill="#9e9e9e75"/>
  <rect x="11" y="2" width="1" height="1" fill="#9494947c"/>
  <rect x="12" y="2" width="1" height="1" fill="#9b9b9bed"/>
  <rect x="13" y="2" width="1" height="1" fill="#979797"/>
  <rect x="14" y="2" width="1" height="1" fill="#a0a0a0"/>
  <rect x="15" y="2" width="1" height="1" fill="#9c9c9e"/>
  <rect x="16" y="2" width="5" height="1" fill="#9fa1a5"/>
  <rect x="21" y="2" width="1" height="1" fill="#9c9da1"/>
  <rect x="22" y="2" width="1" height="1" fill="#9d9ea2"/>
  <rect x="23" y="2" width="1" height="1" fill="#929498ed"/>
  <rect x="0" y="3" width="1" height="1" fill="#9a9a9a75"/>
  <rect x="1" y="3" width="1" height="1" fill="#9a9a9a73"/>
  <rect x="2" y="3" width="1" height="1" fill="#f6f6f6de"/>
  <rect x="3" y="3" width="1" height="1" fill="#f6f6f6"/>
  <rect x="4" y="3" width="4" height="1" fill="#fefefe"/>
  <rect x="8" y="3" width="1" height="1" fill="#fdfdfd"/>
  <rect x="9" y="3" width="1" height="1" fill="#fcfbfcde"/>
  <rect x="10" y="3" width="1" height="1" fill="#a1a1a173"/>
  <rect x="11" y="3" width="1" height="1" fill="#a0a0a075"/>
  <rect x="12" y="3" width="1" height="1" fill="#a3a3a3"/>
  <rect x="13" y="3" width="1" height="1" fill="#a4a4a4"/>
  <rect x="14" y="3" width="1" height="1" fill="#f5f5f5"/>
  <rect x="15" y="3" width="1" height="1" fill="#f7f6f9"/>
  <rect x="16" y="3" width="4" height="1" fill="#ffffff"/>
  <rect x="20" y="3" width="1" height="1" fill="#fcfeff"/>
  <rect x="21" y="3" width="1" height="1" fill="#eaebef"/>
  <rect x="22" y="3" width="1" height="1" fill="#a1a3a7"/>
  <rect x="23" y="3" width="1" height="1" fill="#9d9ea2"/>
  <rect x="0" y="4" width="1" height="1" fill="#a0a0a073"/>
  <rect x="1" y="4" width="1" height="1" fill="#a5a5a573"/>
  <rect x="2" y="4" width="1" height="1" fill="#c7c7c74d"/>
  <rect x="9" y="4" width="1" height="1" fill="#c6c6c64c"/>
  <rect x="10" y="4" width="1" height="1" fill="#a4a4a473"/>
  <rect x="11" y="4" width="1" height="1" fill="#a0a0a073"/>
  <rect x="12" y="4" width="1" height="1" fill="#9b9b9b"/>
  <rect x="13" y="4" width="1" height="1" fill="#969696"/>
  <rect x="14" y="4" width="1" height="1" fill="#bdbdbd6a"/>
  <rect x="21" y="4" width="1" height="1" fill="#bdbfc369"/>
  <rect x="22" y="4" width="1" height="1" fill="#9a9ca0"/>
  <rect x="23" y="4" width="1" height="1" fill="#9fa1a5"/>
  <rect x="0" y="5" width="1" height="1" fill="#a2a2a273"/>
  <rect x="1" y="5" width="1" height="1" fill="#9a9a9a73"/>
  <rect x="2" y="5" width="1" height="1" fill="#7b7b7b83"/>
  <rect x="3" y="5" width="1" height="1" fill="#73737388"/>
  <rect x="4" y="5" width="4" height="1" fill="#72727288"/>
  <rect x="8" y="5" width="1" height="1" fill="#6d6d6d88"/>
  <rect x="9" y="5" width="1" height="1" fill="#76767683"/>
  <rect x="10" y="5" width="1" height="1" fill="#95959573"/>
  <rect x="11" y="5" width="1" height="1" fill="#9d9d9d73"/>
  <rect x="12" y="5" width="1" height="1" fill="#a3a3a3"/>
  <rect x="13" y="5" width="1" height="1" fill="#9c9c9c"/>
  <rect x="14" y="5" width="1" height="1" fill="#828282"/>
  <rect x="15" y="5" width="1" height="1" fill="#8c8b8e"/>
  <rect x="16" y="5" width="4" height="1" fill="#85878b"/>
  <rect x="20" y="5" width="1" height="1" fill="#87888c"/>
  <rect x="21" y="5" width="1" height="1" fill="#8b8d91"/>
  <rect x="22" y="5" width="1" height="1" fill="#9ea0a4"/>
  <rect x="23" y="5" width="1" height="1" fill="#a0a2a6"/>
  <rect x="0" y="6" width="1" height="1" fill="#a4a4a473"/>
  <rect x="1" y="6" width="1" height="1" fill="#aaaaaa73"/>
  <rect x="2" y="6" width="1" height="1" fill="#f5f5f5de"/>
  <rect x="3" y="6" width="1" height="1" fill="#f9f9f9"/>
  <rect x="4" y="6" width="4" height="1" fill="#ffffff"/>
  <rect x="8" y="6" width="1" height="1" fill="#f7f7f7"/>
  <rect x="9" y="6" width="1" height="1" fill="#f1f1f1de"/>
  <rect x="10" y="6" width="1" height="1" fill="#a8a8a873"/>
  <rect x="11" y="6" width="1" height="1" fill="#a3a3a373"/>
  <rect x="12" y="6" width="1" height="1" fill="#979797"/>
  <rect x="13" y="6" width="1" height="1" fill="#a5a5a5"/>
  <rect x="14" y="6" width="1" height="1" fill="#e5e5e5"/>
  <rect x="15" y="6" width="5" height="1" fill="#ffffff"/>
  <rect x="20" y="6" width="1" height="1" fill="#fbfdff"/>
  <rect x="21" y="6" width="1" height="1" fill="#e7e9ed"/>
  <rect x="22" y="6" width="1" height="1" fill="#9d9ea2"/>
  <rect x="23" y="6" width="1" height="2" fill="#9c9da1"/>
  <rect x="0" y="7" width="1" height="1" fill="#9e9e9e73"/>
  <rect x="1" y="7" width="1" height="1" fill="#9a9a9a73"/>
  <rect x="2" y="7" width="1" height="1" fill="#d2d2d24d"/>
  <rect x="9" y="7" width="1" height="1" fill="#d0d0d04c"/>
  <rect x="10" y="7" width="1" height="1" fill="#99999973"/>
  <rect x="11" y="7" width="1" height="1" fill="#9d9d9d73"/>
  <rect x="12" y="7" width="1" height="1" fill="#969696"/>
  <rect x="13" y="7" width="1" height="1" fill="#9c9c9c"/>
  <rect x="14" y="7" width="1" height="1" fill="#b9b9b96a"/>
  <rect x="21" y="7" width="1" height="1" fill="#bcbec269"/>
  <rect x="22" y="7" width="1" height="1" fill="#999b9f"/>
  <rect x="0" y="8" width="1" height="1" fill="#a1a1a173"/>
  <rect x="1" y="8" width="1" height="1" fill="#9e9e9e73"/>
  <rect x="2" y="8" width="1" height="1" fill="#7b7b7b83"/>
  <rect x="3" y="8" width="1" height="1" fill="#6f6f6f88"/>
  <rect x="4" y="8" width="4" height="1" fill="#6d6d6d88"/>
  <rect x="8" y="8" width="1" height="1" fill="#70707088"/>
  <rect x="9" y="8" width="1" height="1" fill="#7d7d7d83"/>
  <rect x="10" y="8" width="1" height="1" fill="#a1a1a173"/>
  <rect x="11" y="8" width="1" height="1" fill="#a4a4a473"/>
  <rect x="12" y="8" width="1" height="1" fill="#999999"/>
  <rect x="13" y="8" width="1" height="1" fill="#9b9b9b"/>
  <rect x="14" y="8" width="1" height="1" fill="#8f8f8f"/>
  <rect x="15" y="8" width="1" height="1" fill="#888888"/>
  <rect x="16" y="8" width="1" height="1" fill="#848484"/>
  <rect x="17" y="8" width="3" height="1" fill="#848386"/>
  <rect x="20" y="8" width="1" height="1" fill="#878789"/>
  <rect x="21" y="8" width="1" height="1" fill="#88888a"/>
  <rect x="22" y="8" width="1" height="1" fill="#9e9ea0"/>
  <rect x="23" y="8" width="1" height="1" fill="#9c9c9e"/>
  <rect x="0" y="9" width="1" height="1" fill="#96969673"/>
  <rect x="1" y="9" width="1" height="1" fill="#94949473"/>
  <rect x="2" y="9" width="1" height="1" fill="#e9e9e9de"/>
  <rect x="3" y="9" width="1" height="1" fill="#ffffff"/>
  <rect x="4" y="9" width="4" height="1" fill="#fefefe"/>
  <rect x="8" y="9" width="1" height="1" fill="#ffffff"/>
  <rect x="9" y="9" width="1" height="1" fill="#efefefde"/>
  <rect x="10" y="9" width="1" height="1" fill="#9a9a9a73"/>
  <rect x="11" y="9" width="1" height="1" fill="#9c9c9c73"/>
  <rect x="12" y="9" width="1" height="1" fill="#969696"/>
  <rect x="13" y="9" width="1" height="1" fill="#9e9e9e"/>
  <rect x="14" y="9" width="1" height="1" fill="#dedede"/>
  <rect x="15" y="9" width="5" height="1" fill="#fefefe"/>
  <rect x="20" y="9" width="1" height="1" fill="#fafafa"/>
  <rect x="21" y="9" width="1" height="1" fill="#eaeaea"/>
  <rect x="22" y="9" width="1" height="1" fill="#9b9b9b"/>
  <rect x="23" y="9" width="1" height="1" fill="#9a9a9a"/>
  <rect x="0" y="10" width="2" height="1" fill="#93939373"/>
  <rect x="2" y="10" width="1" height="1" fill="#c9c9c94d"/>
  <rect x="9" y="10" width="1" height="1" fill="#c9c9c94c"/>
  <rect x="10" y="10" width="2" height="1" fill="#94949473"/>
  <rect x="12" y="10" width="1" height="1" fill="#949494"/>
  <rect x="13" y="10" width="1" height="1" fill="#9d9d9d"/>
  <rect x="14" y="10" width="1" height="1" fill="#bebebe6a"/>
  <rect x="21" y="10" width="1" height="1" fill="#bfbfbf69"/>
  <rect x="22" y="10" width="1" height="1" fill="#9c9c9c"/>
  <rect x="23" y="10" width="1" height="1" fill="#999999"/>
  <rect x="0" y="11" width="1" height="1" fill="#a8a8a881"/>
  <rect x="1" y="11" width="1" height="1" fill="#99999973"/>
  <rect x="2" y="11" width="1" height="1" fill="#73737383"/>
  <rect x="3" y="11" width="1" height="1" fill="#6f6f6f88"/>
  <rect x="4" y="11" width="4" height="1" fill="#6d6d6d88"/>
  <rect x="8" y="11" width="1" height="1" fill="#72727288"/>
  <rect x="9" y="11" width="1" height="1" fill="#77777783"/>
  <rect x="10" y="11" width="1" height="1" fill="#9c9c9c73"/>
  <rect x="11" y="11" width="1" height="1" fill="#ababab80"/>
  <rect x="12" y="11" width="1" height="1" fill="#9e9e9e"/>
  <rect x="13" y="11" width="1" height="1" fill="#969696"/>
  <rect x="14" y="11" width="1" height="1" fill="#878787"/>
  <rect x="15" y="11" width="1" height="1" fill="#898989"/>
  <rect x="16" y="11" width="4" height="1" fill="#828282"/>
  <rect x="20" y="11" width="1" height="1" fill="#848484"/>
  <rect x="21" y="11" width="1" height="1" fill="#868686"/>
  <rect x="22" y="11" width="1" height="1" fill="#979797"/>
  <rect x="23" y="11" width="1" height="1" fill="#a1a1a1"/>
  <rect x="0" y="12" width="1" height="1" fill="#eaeaeac5"/>
  <rect x="1" y="12" width="1" height="1" fill="#b3b3b380"/>
  <rect x="2" y="12" width="1" height="1" fill="#92929273"/>
  <rect x="3" y="12" width="1" height="1" fill="#96969673"/>
  <rect x="4" y="12" width="4" height="1" fill="#95959573"/>
  <rect x="8" y="12" width="1" height="1" fill="#9d9d9d73"/>
  <rect x="9" y="12" width="1" height="1" fill="#92929273"/>
  <rect x="10" y="12" width="1" height="1" fill="#b2b2b282"/>
  <rect x="11" y="12" width="1" height="1" fill="#ebebebc6"/>
  <rect x="12" y="12" width="1" height="1" fill="#dbdbdbed"/>
  <rect x="13" y="12" width="1" height="1" fill="#ababab"/>
  <rect x="14" y="12" width="1" height="1" fill="#999999"/>
  <rect x="15" y="12" width="1" height="1" fill="#9d9d9d"/>
  <rect x="16" y="12" width="4" height="1" fill="#969696"/>
  <rect x="20" y="12" width="1" height="1" fill="#959595"/>
  <rect x="21" y="12" width="1" height="1" fill="#9c9c9c"/>
  <rect x="22" y="12" width="1" height="1" fill="#a2a2a2"/>
  <rect x="23" y="12" width="1" height="1" fill="#ddddddee"/>
  <rect x="0" y="13" width="1" height="1" fill="#fcfbfc4a"/>
  <rect x="1" y="13" width="1" height="1" fill="#f8f8f8e7"/>
  <rect x="2" y="13" width="1" height="1" fill="#f9f9f9"/>
  <rect x="3" y="13" width="1" height="1" fill="#fefefe"/>
  <rect x="4" y="13" width="1" height="1" fill="#ffffff"/>
  <rect x="5" y="13" width="4" height="1" fill="#fefefe"/>
  <rect x="9" y="13" width="1" height="1" fill="#ffffff"/>
  <rect x="10" y="13" width="1" height="1" fill="#fefefee4"/>
  <rect x="11" y="13" width="2" height="1" fill="#ffffff4a"/>
  <rect x="13" y="13" width="1" height="1" fill="#f7f7f7e7"/>
  <rect x="14" y="13" width="1" height="1" fill="#ffffff"/>
  <rect x="15" y="13" width="5" height="1" fill="#fdfdfd"/>
  <rect x="20" y="13" width="2" height="1" fill="#ffffff"/>
  <rect x="22" y="13" width="1" height="1" fill="#fefefee4"/>
  <rect x="23" y="13" width="1" height="1" fill="#ffffff4a"/>
</svg>