<svg xmlns="http://www.w3.org/2000/svg" width="20" height="16" viewBox="0 0 20 16" shape-rendering="crispEdges">
  <rect x="5" y="0" width="1" height="1" fill="#afb1b539"/>
  <rect x="6" y="0" width="1" height="1" fill="#b1b2b69c"/>
  <rect x="7" y="0" width="1" height="1" fill="#b1b2b6d9"/>
  <rect x="8" y="0" width="2" height="1" fill="#b1b2b6f5"/>
  <rect x="10" y="0" width="1" height="1" fill="#b1b2b6d9"/>
  <rect x="11" y="0" width="1" height="1" fill="#b1b2b69c"/>
  <rect x="12" y="0" width="1" height="1" fill="#b1b2b639"/>
  <rect x="3" y="1" width="1" height="1" fill="#aeb0b40d"/>
  <rect x="4" y="1" width="1" height="1" fill="#afb1b5a8"/>
  <rect x="5" y="1" width="1" height="1" fill="#afb1b5"/>
  <rect x="6" y="1" width="7" height="1" fill="#b1b2b6"/>
  <rect x="13" y="1" width="1" height="1" fill="#b1b2b6a8"/>
  <rect x="14" y="1" width="1" height="1" fill="#b1b2b60d"/>
  <rect x="3" y="2" width="1" height="1" fill="#aeb0b4c4"/>
  <rect x="4" y="2" width="2" height="1" fill="#afb1b5"/>
  <rect x="6" y="2" width="8" height="1" fill="#b1b2b6"/>
  <rect x="14" y="2" width="1" height="1" fill="#b1b2b6c4"/>
  <rect x="2" y="3" width="1" height="1" fill="#aeb0b473"/>
  <rect x="3" y="3" width="1" height="1" fill="#afb1b5"/>
  <rect x="4" y="3" width="2" height="1" fill="#b1b2b6"/>
  <rect x="6" y="3" width="2" height="1" fill="#b2b3b7"/>
  <rect x="8" y="3" width="7" height="1" fill="#b1b2b6"/>
  <rect x="15" y="3" width="1" height="1" fill="#b2b1b676"/>
  <rect x="2" y="4" width="1" height="1" fill="#b8b9bdd7"/>
  <rect x="3" y="4" width="5" height="2" fill="#b2b3b7"/>
  <rect x="8" y="4" width="1" height="1" fill="#b1b2b6"/>
  <rect x="9" y="4" width="1" height="1" fill="#aeb0b4"/>
  <rect x="10" y="4" width="1" height="1" fill="#a3a4a8"/>
  <rect x="11" y="4" width="2" height="1" fill="#96979b"/>
  <rect x="13" y="4" width="1" height="1" fill="#9c9da1"/>
  <rect x="14" y="4" width="1" height="1" fill="#a1a3a7"/>
  <rect x="15" y="4" width="1" height="1" fill="#a3a2a7d9"/>
  <rect x="2" y="5" width="1" height="1" fill="#afb1b5fc"/>
  <rect x="8" y="5" width="1" height="1" fill="#abacb0"/>
  <rect x="9" y="5" width="1" height="1" fill="#a0a2a6e2"/>
  <rect x="10" y="5" width="1" height="1" fill="#a4a5a976"/>
  <rect x="11" y="5" width="1" height="1" fill="#b1b2b62b"/>
  <rect x="12" y="5" width="1" height="1" fill="#aeb0b40a"/>
  <rect x="14" y="5" width="1" height="1" fill="#afb1b52d"/>
  <rect x="15" y="5" width="1" height="1" fill="#b1b0b57d"/>
  <rect x="2" y="6" width="1" height="1" fill="#a5a7abe4"/>
  <rect x="3" y="6" width="5" height="1" fill="#afb1b5"/>
  <rect x="8" y="6" width="1" height="1" fill="#9c9da1a7"/>
  <rect x="9" y="6" width="1" height="1" fill="#adafb312"/>
  <rect x="10" y="6" width="1" height="1" fill="#b4b6ba71"/>
  <rect x="11" y="6" width="1" height="1" fill="#aeb0b4cb"/>
  <rect x="12" y="6" width="2" height="1" fill="#b4b6baf5"/>
  <rect x="14" y="6" width="1" height="1" fill="#b5b7bbcb"/>
  <rect x="15" y="6" width="1" height="1" fill="#b7b6bb70"/>
  <rect x="2" y="7" width="1" height="1" fill="#9d9ea28e"/>
  <rect x="3" y="7" width="4" height="1" fill="#aeb0b4"/>
  <rect x="7" y="7" width="1" height="1" fill="#aeb0b4c1"/>
  <rect x="8" y="7" width="1" height="1" fill="#adafb312"/>
  <rect x="9" y="7" width="1" height="1" fill="#aaabafcb"/>
  <rect x="10" y="7" width="1" height="1" fill="#abacb0"/>
  <rect x="11" y="7" width="2" height="1" fill="#b1b2b6"/>
  <rect x="13" y="7" width="3" height="1" fill="#afb1b5"/>
  <rect x="16" y="7" width="1" height="1" fill="#adadb0c9"/>
  <rect x="17" y="7" width="1" height="1" fill="#afacb010"/>
  <rect x="2" y="8" width="1" height="1" fill="#a0a2a60f"/>
  <rect x="3" y="8" width="1" height="1" fill="#a0a2a6dc"/>
  <rect x="4" y="8" width="1" height="1" fill="#a6a8ac"/>
  <rect x="5" y="8" width="1" height="1" fill="#b2b3b7"/>
  <rect x="6" y="8" width="1" height="1" fill="#acaeb2"/>
  <rect x="7" y="8" width="1" height="1" fill="#97999d41"/>
  <rect x="8" y="8" width="1" height="1" fill="#b2b3b799"/>
  <rect x="9" y="8" width="1" height="1" fill="#afb1b5"/>
  <rect x="10" y="8" width="1" height="2" fill="#aeb0b4"/>
  <rect x="11" y="8" width="1" height="1" fill="#b2b3b7"/>
  <rect x="12" y="8" width="4" height="1" fill="#b3b5b9"/>
  <rect x="16" y="8" width="1" height="1" fill="#b2b4b5"/>
  <rect x="17" y="8" width="1" height="1" fill="#b4b4b699"/>
  <rect x="3" y="9" width="1" height="1" fill="#a0a2a61e"/>
  <rect x="4" y="9" width="2" height="1" fill="#b6b8bc"/>
  <rect x="6" y="9" width="1" height="1" fill="#aaabaf"/>
  <rect x="8" y="9" width="1" height="1" fill="#acaeb2ee"/>
  <rect x="9" y="9" width="1" height="1" fill="#b1b2b6"/>
  <rect x="11" y="9" width="1" height="1" fill="#b1b2b6"/>
  <rect x="12" y="9" width="1" height="1" fill="#b2b3b7"/>
  <rect x="13" y="9" width="3" height="1" fill="#b3b5b9"/>
  <rect x="16" y="9" width="1" height="1" fill="#b4b6b8"/>
  <rect x="17" y="9" width="1" height="1" fill="#b1b3b4ee"/>
  <rect x="4" y="10" width="1" height="1" fill="#b1b2b6"/>
  <rect x="5" y="10" width="1" height="1" fill="#929498"/>
  <rect x="6" y="10" width="1" height="1" fill="#8b8d91c4"/>
  <rect x="7" y="10" width="1" height="1" fill="#9fa1a517"/>
  <rect x="8" y="10" width="1" height="1" fill="#a1a3a7ef"/>
  <rect x="9" y="10" width="1" height="1" fill="#b2b3b7"/>
  <rect x="10" y="10" width="1" height="1" fill="#afb1b5"/>
  <rect x="11" y="10" width="1" height="2" fill="#aeb0b4"/>
  <rect x="12" y="10" width="4" height="2" fill="#b3b5b9"/>
  <rect x="16" y="10" width="1" height="1" fill="#b3b5b6"/>
  <rect x="17" y="10" width="1" height="1" fill="#a7a9abec"/>
  <rect x="4" y="11" width="1" height="1" fill="#9a9ca0"/>
  <rect x="8" y="11" width="1" height="1" fill="#9ea0a499"/>
  <rect x="9" y="11" width="1" height="1" fill="#acaeb2"/>
  <rect x="10" y="11" width="1" height="1" fill="#b1b2b6"/>
  <rect x="16" y="11" width="1" height="1" fill="#adafb1"/>
  <rect x="17" y="11" width="1" height="1" fill="#9d9fa096"/>
  <rect x="8" y="12" width="1" height="1" fill="#9d9ea210"/>
  <rect x="9" y="12" width="1" height="1" fill="#9fa1a5cb"/>
  <rect x="10" y="12" width="1" height="1" fill="#a6a8ac"/>
  <rect x="11" y="12" width="2" height="1" fill="#acaeb2"/>
  <rect x="13" y="12" width="1" height="1" fill="#bbbdc1"/>
  <rect x="14" y="12" width="1" height="1" fill="#b4b6ba"/>
  <rect x="15" y="12" width="1" height="1" fill="#afb1b5"/>
  <rect x="16" y="12" width="1" height="1" fill="#9c9e9fc6"/>
  <rect x="17" y="12" width="1" height="1" fill="#999b9d0e"/>
  <rect x="10" y="13" width="1" height="1" fill="#989a9e71"/>
  <rect x="11" y="13" width="1" height="1" fill="#909296cb"/>
  <rect x="12" y="13" width="1" height="1" fill="#989a9ef5"/>
  <rect x="13" y="13" width="1" height="1" fill="#919397"/>
  <rect x="14" y="13" width="1" height="1" fill="#aeb0b4"/>
  <rect x="15" y="13" width="1" height="1" fill="#b3b5b9"/>
  <rect x="14" y="14" width="1" height="1" fill="#95969a"/>
  <rect x="15" y="14" width="1" height="1" fill="#acaeb2"/>
  <rect x="15" y="15" width="1" height="1" fill="#9a9ca0"/>
</svg>