<svg xmlns="http://www.w3.org/2000/svg" width="72" height="36" viewBox="0 0 72 36" shape-rendering="crispEdges">
  <rect x="11" y="23" width="1" height="1" fill="#68686823"/>
  <rect x="12" y="23" width="1" height="2" fill="#6868688c"/>
  <rect x="13" y="23" width="1" height="1" fill="#66666669"/>
  <rect x="29" y="23" width="1" height="1" fill="#9e9e9e40"/>
  <rect x="30" y="23" width="1" height="1" fill="#9e9e9e"/>
  <rect x="31" y="23" width="1" height="1" fill="#9e9e9ec0"/>
  <rect x="47" y="23" width="1" height="1" fill="#66666640"/>
  <rect x="48" y="23" width="1" height="2" fill="#686868"/>
  <rect x="49" y="23" width="1" height="1" fill="#686868c0"/>
  <rect x="65" y="23" width="1" height="1" fill="#68686840"/>
  <rect x="66" y="23" width="1" height="1" fill="#686868"/>
  <rect x="67" y="23" width="1" height="1" fill="#646464c0"/>
  <rect x="11" y="24" width="1" height="1" fill="#66666669"/>
  <rect x="13" y="24" width="1" height="1" fill="#65656523"/>
  <rect x="29" y="24" width="1" height="1" fill="#939393bf"/>
  <rect x="30" y="24" width="1" height="1" fill="#a0a0a0"/>
  <rect x="31" y="24" width="1" height="1" fill="#96969640"/>
  <rect x="47" y="24" width="1" height="1" fill="#656565bf"/>
  <rect x="49" y="24" width="1" height="1" fill="#68686840"/>
  <rect x="65" y="24" width="1" height="1" fill="#656565bf"/>
  <rect x="66" y="24" width="1" height="1" fill="#707070"/>
  <rect x="67" y="24" width="1" height="1" fill="#61616140"/>
  <rect x="10" y="25" width="1" height="1" fill="#63636323"/>
  <rect x="11" y="25" width="1" height="2" fill="#6565658c"/>
  <rect x="12" y="25" width="1" height="1" fill="#66666669"/>
  <rect x="28" y="25" width="1" height="1" fill="#8d8d8d40"/>
  <rect x="29" y="25" width="1" height="1" fill="#949494"/>
  <rect x="30" y="25" width="1" height="1" fill="#8c8c8cc0"/>
  <rect x="46" y="25" width="1" height="1" fill="#62626240"/>
  <rect x="47" y="25" width="1" height="2" fill="#646464"/>
  <rect x="48" y="25" width="1" height="1" fill="#666666c0"/>
  <rect x="64" y="25" width="1" height="1" fill="#5d5d5d40"/>
  <rect x="65" y="25" width="1" height="1" fill="#6a6a6a"/>
  <rect x="66" y="25" width="1" height="1" fill="#5e5e5ec0"/>
  <rect x="6" y="26" width="1" height="1" fill="#5d5d5d70"/>
  <rect x="7" y="26" width="1" height="1" fill="#5d5d5d8c"/>
  <rect x="8" y="26" width="1" height="1" fill="#5c5c5c17"/>
  <rect x="10" y="26" width="1" height="1" fill="#62626269"/>
  <rect x="12" y="26" width="1" height="1" fill="#65656523"/>
  <rect x="24" y="26" width="1" height="1" fill="#7f7f7fcc"/>
  <rect x="25" y="26" width="1" height="1" fill="#7f7f7f"/>
  <rect x="26" y="26" width="1" height="1" fill="#7f7f7f2a"/>
  <rect x="28" y="26" width="1" height="1" fill="#808080bf"/>
  <rect x="29" y="26" width="1" height="1" fill="#828282"/>
  <rect x="30" y="26" width="1" height="1" fill="#82828240"/>
  <rect x="42" y="26" width="1" height="1" fill="#5e5e5ecc"/>
  <rect x="43" y="26" width="1" height="2" fill="#5c5c5c"/>
  <rect x="44" y="26" width="1" height="1" fill="#5b5b5b2a"/>
  <rect x="46" y="26" width="1" height="1" fill="#616161bf"/>
  <rect x="48" y="26" width="1" height="1" fill="#66666640"/>
  <rect x="60" y="26" width="1" height="1" fill="#5c5c5ccc"/>
  <rect x="61" y="26" width="1" height="2" fill="#5f5f5f"/>
  <rect x="62" y="26" width="1" height="1" fill="#5a5a5a2a"/>
  <rect x="64" y="26" width="1" height="1" fill="#5d5d5dbf"/>
  <rect x="65" y="26" width="1" height="1" fill="#616161"/>
  <rect x="66" y="26" width="1" height="1" fill="#56565640"/>
  <rect x="6" y="27" width="1" height="1" fill="#5d5d5d39"/>
  <rect x="7" y="27" width="1" height="1" fill="#5e5e5e8c"/>
  <rect x="8" y="27" width="1" height="1" fill="#5d5d5d46"/>
  <rect x="9" y="27" width="1" height="1" fill="#5d5d5d23"/>
  <rect x="10" y="27" width="1" height="1" fill="#6262628c"/>
  <rect x="11" y="27" width="1" height="1" fill="#61616169"/>
  <rect x="24" y="27" width="1" height="1" fill="#78787867"/>
  <rect x="25" y="27" width="1" height="1" fill="#787878"/>
  <rect x="26" y="27" width="1" height="1" fill="#78787880"/>
  <rect x="27" y="27" width="1" height="1" fill="#7a7a7a40"/>
  <rect x="28" y="27" width="1" height="1" fill="#7e7e7e"/>
  <rect x="29" y="27" width="1" height="1" fill="#7b7b7bc0"/>
  <rect x="42" y="27" width="1" height="1" fill="#5d5d5d67"/>
  <rect x="44" y="27" width="1" height="1" fill="#5b5b5b80"/>
  <rect x="45" y="27" width="1" height="1" fill="#5d5d5d40"/>
  <rect x="46" y="27" width="1" height="2" fill="#626262"/>
  <rect x="47" y="27" width="1" height="1" fill="#636363c0"/>
  <rect x="60" y="27" width="1" height="1" fill="#5a5a5a67"/>
  <rect x="62" y="27" width="1" height="1" fill="#55555580"/>
  <rect x="63" y="27" width="1" height="1" fill="#5f5f5f40"/>
  <rect x="64" y="27" width="1" height="1" fill="#5e5e5e"/>
  <rect x="65" y="27" width="1" height="1" fill="#505050c0"/>
  <rect x="7" y="28" width="1" height="1" fill="#5b5b5b85"/>
  <rect x="8" y="28" width="1" height="1" fill="#5a5a5a75"/>
  <rect x="9" y="28" width="1" height="1" fill="#50505069"/>
  <rect x="10" y="28" width="1" height="1" fill="#6363638c"/>
  <rect x="11" y="28" width="1" height="1" fill="#5d5d5d23"/>
  <rect x="24" y="28" width="1" height="1" fill="#7070700c"/>
  <rect x="25" y="28" width="1" height="1" fill="#6f6f6ff3"/>
  <rect x="26" y="28" width="1" height="1" fill="#6c6c6cd5"/>
  <rect x="27" y="28" width="1" height="1" fill="#6b6b6bbf"/>
  <rect x="28" y="28" width="1" height="1" fill="#747474"/>
  <rect x="29" y="28" width="1" height="1" fill="#6d6d6d40"/>
  <rect x="42" y="28" width="1" height="1" fill="#5c5c5c0c"/>
  <rect x="43" y="28" width="1" height="1" fill="#5b5b5bf3"/>
  <rect x="44" y="28" width="1" height="1" fill="#585858d5"/>
  <rect x="45" y="28" width="1" height="1" fill="#4f4f4fbf"/>
  <rect x="47" y="28" width="1" height="1" fill="#5c5c5c40"/>
  <rect x="60" y="28" width="1" height="1" fill="#5a5a5a0c"/>
  <rect x="61" y="28" width="1" height="1" fill="#5b5b5bf3"/>
  <rect x="62" y="28" width="1" height="1" fill="#555555d5"/>
  <rect x="63" y="28" width="1" height="1" fill="#555555bf"/>
  <rect x="64" y="28" width="1" height="1" fill="#5d5d5d"/>
  <rect x="65" y="28" width="1" height="1" fill="#5d5d5d40"/>
  <rect x="7" y="29" width="1" height="1" fill="#58585853"/>
  <rect x="8" y="29" width="1" height="1" fill="#6363638c"/>
  <rect x="9" y="29" width="1" height="1" fill="#7171718c"/>
  <rect x="10" y="29" width="1" height="1" fill="#53535369"/>
  <rect x="25" y="29" width="1" height="1" fill="#5f5f5f98"/>
  <rect x="26" y="29" width="1" height="1" fill="#7a7a7a"/>
  <rect x="27" y="29" width="1" height="1" fill="#7f7f7f"/>
  <rect x="28" y="29" width="1" height="1" fill="#5d5d5dc0"/>
  <rect x="43" y="29" width="1" height="1" fill="#5b5b5b98"/>
  <rect x="44" y="29" width="1" height="1" fill="#626262"/>
  <rect x="45" y="29" width="1" height="1" fill="#707070"/>
  <rect x="46" y="29" width="1" height="1" fill="#525152c0"/>
  <rect x="61" y="29" width="1" height="1" fill="#5b5b5b98"/>
  <rect x="62" y="29" width="1" height="1" fill="#616161"/>
  <rect x="63" y="29" width="1" height="1" fill="#626262"/>
  <rect x="64" y="29" width="1" height="1" fill="#5e5e5ec0"/>
  <rect x="7" y="30" width="1" height="1" fill="#5656561c"/>
  <rect x="8" y="30" width="2" height="1" fill="#5353538c"/>
  <rect x="10" y="30" width="1" height="1" fill="#5b5b5b23"/>
  <rect x="25" y="30" width="1" height="1" fill="#4f4f4f33"/>
  <rect x="26" y="30" width="1" height="1" fill="#5e5e5e"/>
  <rect x="27" y="30" width="1" height="1" fill="#5c5c5c"/>
  <rect x="28" y="30" width="1" height="1" fill="#5d5d5d40"/>
  <rect x="43" y="30" width="1" height="1" fill="#5b5b5b33"/>
  <rect x="44" y="30" width="1" height="1" fill="#4e4e4e"/>
  <rect x="45" y="30" width="1" height="1" fill="#525152"/>
  <rect x="46" y="30" width="1" height="1" fill="#5a5a5a40"/>
  <rect x="61" y="30" width="1" height="1" fill="#56565633"/>
  <rect x="62" y="30" width="1" height="1" fill="#505050"/>
  <rect x="63" y="30" width="1" height="1" fill="#4d4d4d"/>
  <rect x="64" y="30" width="1" height="1" fill="#5b5b5b40"/>
</svg>