<svg xmlns="http://www.w3.org/2000/svg" width="60" height="16" viewBox="0 0 60 16" shape-rendering="crispEdges">
  <rect x="6" y="0" width="1" height="1" fill="#c6c6c639"/>
  <rect x="7" y="0" width="1" height="1" fill="#c2c2c2c9"/>
  <rect x="8" y="0" width="1" height="1" fill="#c4c4c4ee"/>
  <rect x="9" y="0" width="1" height="1" fill="#c8c8c8b6"/>
  <rect x="10" y="0" width="1" height="1" fill="#c5c5c525"/>
  <rect x="26" y="0" width="1" height="1" fill="#b3b5b639"/>
  <rect x="27" y="0" width="1" height="1" fill="#b1b3b4c9"/>
  <rect x="28" y="0" width="1" height="1" fill="#afb1b5ee"/>
  <rect x="29" y="0" width="1" height="1" fill="#b2b3b7b6"/>
  <rect x="30" y="0" width="1" height="1" fill="#afb1b525"/>
  <rect x="46" y="0" width="1" height="1" fill="#87898839"/>
  <rect x="47" y="0" width="1" height="1" fill="#878988c9"/>
  <rect x="48" y="0" width="1" height="1" fill="#828486ee"/>
  <rect x="49" y="0" width="1" height="1" fill="#818384b6"/>
  <rect x="50" y="0" width="1" height="1" fill="#7d7f8125"/>
  <rect x="5" y="1" width="1" height="1" fill="#b8b8b81d"/>
  <rect x="6" y="1" width="1" height="1" fill="#c6c6c6f2"/>
  <rect x="7" y="1" width="1" height="1" fill="#c2c2c2"/>
  <rect x="8" y="1" width="1" height="1" fill="#c4c4c4"/>
  <rect x="9" y="1" width="1" height="1" fill="#c8c8c8"/>
  <rect x="10" y="1" width="1" height="1" fill="#c5c5c5e2"/>
  <rect x="11" y="1" width="1" height="1" fill="#b9b9b90f"/>
  <rect x="25" y="1" width="1" height="1" fill="#aaacad1d"/>
  <rect x="26" y="1" width="1" height="1" fill="#b3b5b6f2"/>
  <rect x="27" y="1" width="1" height="3" fill="#b1b3b4"/>
  <rect x="28" y="1" width="1" height="3" fill="#afb1b5"/>
  <rect x="29" y="1" width="1" height="3" fill="#b2b3b7"/>
  <rect x="30" y="1" width="1" height="1" fill="#afb1b5e2"/>
  <rect x="31" y="1" width="1" height="1" fill="#a8aaae0f"/>
  <rect x="45" y="1" width="1" height="1" fill="#888a891d"/>
  <rect x="46" y="1" width="1" height="1" fill="#919493f2"/>
  <rect x="47" y="1" width="1" height="1" fill="#abadac"/>
  <rect x="48" y="1" width="1" height="1" fill="#aeb0b2"/>
  <rect x="49" y="1" width="1" height="1" fill="#a6a8aa"/>
  <rect x="50" y="1" width="1" height="1" fill="#8c8e90e2"/>
  <rect x="51" y="1" width="1" height="1" fill="#8587890f"/>
  <rect x="5" y="2" width="1" height="1" fill="#b8b8b87d"/>
  <rect x="6" y="2" width="1" height="2" fill="#c6c6c6"/>
  <rect x="7" y="2" width="1" height="4" fill="#c4c4c4"/>
  <rect x="8" y="2" width="1" height="2" fill="#c5c5c5"/>
  <rect x="9" y="2" width="1" height="1" fill="#c7c7c7"/>
  <rect x="10" y="2" width="1" height="2" fill="#c5c5c5"/>
  <rect x="11" y="2" width="1" height="1" fill="#b9b9b96b"/>
  <rect x="25" y="2" width="1" height="1" fill="#aaacad7d"/>
  <rect x="26" y="2" width="1" height="2" fill="#b3b5b6"/>
  <rect x="30" y="2" width="1" height="2" fill="#afb1b5"/>
  <rect x="31" y="2" width="1" height="1" fill="#a8aaae6b"/>
  <rect x="45" y="2" width="1" height="1" fill="#8b8e8d7d"/>
  <rect x="46" y="2" width="1" height="1" fill="#acaead"/>
  <rect x="47" y="2" width="1" height="1" fill="#b3b5b4"/>
  <rect x="48" y="2" width="1" height="2" fill="#b5b7b9"/>
  <rect x="49" y="2" width="1" height="1" fill="#b2b4b5"/>
  <rect x="50" y="2" width="1" height="1" fill="#acaeb0"/>
  <rect x="51" y="2" width="1" height="1" fill="#8e90916b"/>
  <rect x="5" y="3" width="1" height="1" fill="#b8b8b8a9"/>
  <rect x="9" y="3" width="1" height="1" fill="#c6c6c6"/>
  <rect x="11" y="3" width="1" height="1" fill="#b9b9b99b"/>
  <rect x="25" y="3" width="1" height="1" fill="#aaacada9"/>
  <rect x="31" y="3" width="1" height="1" fill="#a8aaae9b"/>
  <rect x="45" y="3" width="1" height="1" fill="#9a9d9ca9"/>
  <rect x="46" y="3" width="1" height="1" fill="#b3b5b4"/>
  <rect x="47" y="3" width="1" height="1" fill="#afb2b1"/>
  <rect x="49" y="3" width="1" height="1" fill="#aaacad"/>
  <rect x="50" y="3" width="1" height="1" fill="#b3b5b6"/>
  <rect x="51" y="3" width="1" height="1" fill="#97999b9b"/>
  <rect x="5" y="4" width="1" height="1" fill="#afafafa2"/>
  <rect x="6" y="4" width="1" height="3" fill="#c7c7c7"/>
  <rect x="8" y="4" width="1" height="2" fill="#c6c6c8"/>
  <rect x="9" y="4" width="2" height="1" fill="#c4c3c6"/>
  <rect x="11" y="4" width="1" height="1" fill="#adadb09f"/>
  <rect x="25" y="4" width="1" height="1" fill="#a5a7a9a2"/>
  <rect x="26" y="4" width="1" height="2" fill="#afb1b3"/>
  <rect x="27" y="4" width="1" height="1" fill="#babcbd"/>
  <rect x="28" y="4" width="1" height="2" fill="#b3b5b9"/>
  <rect x="29" y="4" width="1" height="1" fill="#adafb3"/>
  <rect x="30" y="4" width="1" height="1" fill="#b1b2b6"/>
  <rect x="31" y="4" width="1" height="1" fill="#a5a7ab9f"/>
  <rect x="45" y="4" width="1" height="1" fill="#a8aaaca2"/>
  <rect x="46" y="4" width="1" height="1" fill="#b2b4b5"/>
  <rect x="47" y="4" width="1" height="1" fill="#b3b5b6"/>
  <rect x="48" y="4" width="1" height="1" fill="#b6b8ba"/>
  <rect x="49" y="4" width="1" height="1" fill="#b3b5b6"/>
  <rect x="50" y="4" width="1" height="1" fill="#b1b3b4"/>
  <rect x="51" y="4" width="1" height="1" fill="#9d9fa09f"/>
  <rect x="5" y="5" width="1" height="1" fill="#afafaf7e"/>
  <rect x="9" y="5" width="1" height="1" fill="#c2c2c4"/>
  <rect x="10" y="5" width="1" height="1" fill="#c4c3c6"/>
  <rect x="11" y="5" width="1" height="1" fill="#adadb082"/>
  <rect x="25" y="5" width="1" height="1" fill="#a1a3a57e"/>
  <rect x="27" y="5" width="1" height="1" fill="#b8babb"/>
  <rect x="29" y="5" width="2" height="1" fill="#b1b2b6"/>
  <rect x="31" y="5" width="1" height="1" fill="#a0a2a682"/>
  <rect x="45" y="5" width="1" height="1" fill="#a3a5a67e"/>
  <rect x="46" y="5" width="1" height="1" fill="#b1b3b4"/>
  <rect x="47" y="5" width="1" height="1" fill="#b2b4b5"/>
  <rect x="48" y="5" width="1" height="1" fill="#b5b7b9"/>
  <rect x="49" y="5" width="1" height="1" fill="#b2b4b5"/>
  <rect x="50" y="5" width="1" height="1" fill="#afb1b3"/>
  <rect x="51" y="5" width="1" height="1" fill="#9c9e9f82"/>
  <rect x="5" y="6" width="1" height="1" fill="#afafaf42"/>
  <rect x="7" y="6" width="1" height="1" fill="#c5c5c5"/>
  <rect x="8" y="6" width="1" height="2" fill="#c6c8c9"/>
  <rect x="9" y="6" width="1" height="2" fill="#c0c2c3"/>
  <rect x="10" y="6" width="1" height="2" fill="#c2c4c6"/>
  <rect x="11" y="6" width="1" height="1" fill="#acaeb04d"/>
  <rect x="25" y="6" width="1" height="1" fill="#9a9c9e42"/>
  <rect x="26" y="6" width="1" height="1" fill="#b1b3b4"/>
  <rect x="27" y="6" width="1" height="1" fill="#b3b5b6"/>
  <rect x="28" y="6" width="1" height="1" fill="#b2b3b7"/>
  <rect x="29" y="6" width="1" height="1" fill="#b3b5b9"/>
  <rect x="30" y="6" width="1" height="1" fill="#afb1b5"/>
  <rect x="31" y="6" width="1" height="1" fill="#989a9e4d"/>
  <rect x="45" y="6" width="1" height="1" fill="#999b9d42"/>
  <rect x="46" y="6" width="1" height="1" fill="#aeb0b2"/>
  <rect x="47" y="6" width="1" height="1" fill="#b1b3b4"/>
  <rect x="48" y="6" width="1" height="1" fill="#b4b6b8"/>
  <rect x="49" y="6" width="1" height="1" fill="#b1b3b4"/>
  <rect x="50" y="6" width="1" height="1" fill="#aeb0b2"/>
  <rect x="51" y="6" width="1" height="1" fill="#9a9c9e4d"/>
  <rect x="5" y="7" width="1" height="1" fill="#afafaf0c"/>
  <rect x="6" y="7" width="1" height="1" fill="#c5c5c5"/>
  <rect x="7" y="7" width="1" height="1" fill="#c4c4c4"/>
  <rect x="11" y="7" width="1" height="1" fill="#acaeb017"/>
  <rect x="14" y="7" width="2" height="1" fill="#c1c3c4"/>
  <rect x="16" y="7" width="1" height="1" fill="#c2c4c4"/>
  <rect x="25" y="7" width="1" height="1" fill="#9698990c"/>
  <rect x="26" y="7" width="2" height="1" fill="#b1b3b4"/>
  <rect x="28" y="7" width="1" height="2" fill="#b1b2b6"/>
  <rect x="29" y="7" width="1" height="1" fill="#b5b7bb"/>
  <rect x="30" y="7" width="1" height="1" fill="#b1b2b6"/>
  <rect x="31" y="7" width="1" height="1" fill="#93959917"/>
  <rect x="34" y="7" width="2" height="1" fill="#b2b4b5"/>
  <rect x="36" y="7" width="1" height="1" fill="#b2b4b3"/>
  <rect x="45" y="7" width="1" height="1" fill="#9395970c"/>
  <rect x="46" y="7" width="1" height="1" fill="#adafb1"/>
  <rect x="47" y="7" width="1" height="1" fill="#afb1b3"/>
  <rect x="48" y="7" width="1" height="1" fill="#b1b3b4"/>
  <rect x="49" y="7" width="1" height="1" fill="#afb1b3"/>
  <rect x="50" y="7" width="1" height="1" fill="#adafb1"/>
  <rect x="51" y="7" width="1" height="1" fill="#999b9d17"/>
  <rect x="54" y="7" width="1" height="1" fill="#8c8e90"/>
  <rect x="55" y="7" width="1" height="1" fill="#818384"/>
  <rect x="56" y="7" width="1" height="1" fill="#87898a"/>
  <rect x="6" y="8" width="1" height="1" fill="#c2c4c6f8"/>
  <rect x="7" y="8" width="1" height="1" fill="#c2c4c6"/>
  <rect x="8" y="8" width="1" height="1" fill="#bcbec0"/>
  <rect x="9" y="8" width="1" height="1" fill="#c1c3c4"/>
  <rect x="10" y="8" width="1" height="1" fill="#b0b5b5fd"/>
  <rect x="14" y="8" width="2" height="2" fill="#bec3c3"/>
  <rect x="16" y="8" width="1" height="1" fill="#c6c8c9"/>
  <rect x="26" y="8" width="1" height="1" fill="#b1b3b4f8"/>
  <rect x="27" y="8" width="1" height="4" fill="#b2b4b5"/>
  <rect x="29" y="8" width="1" height="1" fill="#b6b8bc"/>
  <rect x="30" y="8" width="1" height="1" fill="#9a9ca0fd"/>
  <rect x="34" y="8" width="1" height="1" fill="#afb1b5"/>
  <rect x="35" y="8" width="1" height="1" fill="#b2b3b7"/>
  <rect x="36" y="8" width="1" height="1" fill="#acaeb0"/>
  <rect x="46" y="8" width="1" height="1" fill="#adafb1f8"/>
  <rect x="47" y="8" width="1" height="1" fill="#adafb1"/>
  <rect x="48" y="8" width="1" height="1" fill="#afb1b3"/>
  <rect x="49" y="8" width="1" height="1" fill="#b4b6b8"/>
  <rect x="50" y="8" width="1" height="1" fill="#b9bbbcfd"/>
  <rect x="54" y="8" width="1" height="1" fill="#b4b6b8"/>
  <rect x="55" y="8" width="1" height="1" fill="#b2b4b5"/>
  <rect x="56" y="8" width="1" height="1" fill="#aeb0b2"/>
  <rect x="5" y="9" width="1" height="1" fill="#c1c1c316"/>
  <rect x="6" y="9" width="2" height="3" fill="#c1c3c4"/>
  <rect x="8" y="9" width="1" height="1" fill="#c0c2c3"/>
  <rect x="9" y="9" width="1" height="1" fill="#c3c5c7"/>
  <rect x="16" y="9" width="1" height="1" fill="#c0c2c3"/>
  <rect x="25" y="9" width="1" height="1" fill="#adafb116"/>
  <rect x="26" y="9" width="1" height="3" fill="#afb1b3"/>
  <rect x="28" y="9" width="1" height="1" fill="#b3b5b9"/>
  <rect x="29" y="9" width="1" height="1" fill="#aeb0b4"/>
  <rect x="34" y="9" width="1" height="2" fill="#b3b5b9"/>
  <rect x="35" y="9" width="1" height="1" fill="#b4b6ba"/>
  <rect x="36" y="9" width="1" height="1" fill="#aeb0b4"/>
  <rect x="45" y="9" width="1" height="1" fill="#85878916"/>
  <rect x="46" y="9" width="1" height="1" fill="#afb1b3"/>
  <rect x="47" y="9" width="1" height="1" fill="#b3b5b6"/>
  <rect x="48" y="9" width="1" height="1" fill="#b4b6b8"/>
  <rect x="49" y="9" width="1" height="1" fill="#a8aaac"/>
  <rect x="54" y="9" width="1" height="1" fill="#aaacad"/>
  <rect x="55" y="9" width="2" height="1" fill="#aeb0b2"/>
  <rect x="5" y="10" width="1" height="1" fill="#c1c1c388"/>
  <rect x="8" y="10" width="1" height="1" fill="#c2c6c7"/>
  <rect x="9" y="10" width="1" height="1" fill="#c6cbcb"/>
  <rect x="11" y="10" width="1" height="1" fill="#bac1c1"/>
  <rect x="12" y="10" width="3" height="1" fill="#bfc4c4"/>
  <rect x="15" y="10" width="1" height="1" fill="#c0c5c6"/>
  <rect x="16" y="10" width="1" height="1" fill="#c3c7c8"/>
  <rect x="17" y="10" width="1" height="2" fill="#c2c6c7"/>
  <rect x="18" y="10" width="1" height="1" fill="#c0c5c6"/>
  <rect x="19" y="10" width="1" height="2" fill="#c2c6c7"/>
  <rect x="25" y="10" width="1" height="1" fill="#adafb188"/>
  <rect x="28" y="10" width="1" height="1" fill="#b4b6ba"/>
  <rect x="29" y="10" width="1" height="1" fill="#acaeb2"/>
  <rect x="31" y="10" width="2" height="1" fill="#b1b2b6"/>
  <rect x="33" y="10" width="1" height="1" fill="#b2b3b7"/>
  <rect x="35" y="10" width="2" height="1" fill="#b2b3b7"/>
  <rect x="37" y="10" width="3" height="1" fill="#b1b2b6"/>
  <rect x="45" y="10" width="1" height="1" fill="#888a8b88"/>
  <rect x="46" y="10" width="1" height="1" fill="#b1b3b4"/>
  <rect x="47" y="10" width="1" height="1" fill="#adafb1"/>
  <rect x="48" y="10" width="1" height="1" fill="#b2b4b5"/>
  <rect x="49" y="10" width="1" height="1" fill="#b5b7b9"/>
  <rect x="51" y="10" width="1" height="1" fill="#898b8d"/>
  <rect x="52" y="10" width="1" height="1" fill="#828486"/>
  <rect x="53" y="10" width="1" height="1" fill="#959798"/>
  <rect x="54" y="10" width="1" height="1" fill="#adafb1"/>
  <rect x="55" y="10" width="1" height="1" fill="#b3b5b6"/>
  <rect x="56" y="10" width="1" height="1" fill="#b4b6b8"/>
  <rect x="57" y="10" width="1" height="1" fill="#8b8d8f"/>
  <rect x="58" y="10" width="1" height="1" fill="#7b7d7f"/>
  <rect x="59" y="10" width="1" height="1" fill="#8e9091"/>
  <rect x="3" y="11" width="1" height="1" fill="#c0c0c00d"/>
  <rect x="4" y="11" width="1" height="1" fill="#c1c1c386"/>
  <rect x="5" y="11" width="1" height="1" fill="#c1c1c3fe"/>
  <rect x="8" y="11" width="1" height="1" fill="#c5caca"/>
  <rect x="9" y="11" width="1" height="1" fill="#cacecf"/>
  <rect x="11" y="11" width="1" height="1" fill="#bec5c4"/>
  <rect x="12" y="11" width="5" height="1" fill="#bfc4c4"/>
  <rect x="18" y="11" width="1" height="1" fill="#c3c7c8"/>
  <rect x="23" y="11" width="1" height="1" fill="#b4b6b80d"/>
  <rect x="24" y="11" width="1" height="1" fill="#abadae86"/>
  <rect x="25" y="11" width="1" height="1" fill="#adafb1fe"/>
  <rect x="28" y="11" width="1" height="1" fill="#b2b3b7"/>
  <rect x="29" y="11" width="1" height="1" fill="#b1b2b6"/>
  <rect x="31" y="11" width="1" height="1" fill="#b6b8bc"/>
  <rect x="32" y="11" width="2" height="1" fill="#b1b2b6"/>
  <rect x="34" y="11" width="4" height="1" fill="#b2b3b7"/>
  <rect x="38" y="11" width="2" height="1" fill="#b3b5b9"/>
  <rect x="43" y="11" width="1" height="1" fill="#8a8c8e0d"/>
  <rect x="44" y="11" width="1" height="1" fill="#85878986"/>
  <rect x="45" y="11" width="1" height="1" fill="#9a9c9efe"/>
  <rect x="46" y="11" width="1" height="1" fill="#b3b5b6"/>
  <rect x="47" y="11" width="1" height="1" fill="#b1b3b4"/>
  <rect x="48" y="11" width="1" height="1" fill="#afb1b3"/>
  <rect x="49" y="11" width="1" height="1" fill="#b1b3b4"/>
  <rect x="51" y="11" width="2" height="1" fill="#b6b8ba"/>
  <rect x="53" y="11" width="1" height="2" fill="#b3b5b6"/>
  <rect x="54" y="11" width="1" height="1" fill="#aeb0b2"/>
  <rect x="55" y="11" width="1" height="1" fill="#b2b4b5"/>
  <rect x="56" y="11" width="1" height="1" fill="#b1b3b4"/>
  <rect x="57" y="11" width="1" height="1" fill="#b5b7b9"/>
  <rect x="58" y="11" width="1" height="1" fill="#b9bbbc"/>
  <rect x="59" y="11" width="1" height="1" fill="#b6b8ba"/>
  <rect x="1" y="12" width="1" height="1" fill="#c4c4c446"/>
  <rect x="2" y="12" width="1" height="1" fill="#c4c4c499"/>
  <rect x="3" y="12" width="1" height="1" fill="#c2c2c2ef"/>
  <rect x="4" y="12" width="1" height="1" fill="#c2c2c4"/>
  <rect x="5" y="12" width="1" height="1" fill="#c1c1c3"/>
  <rect x="6" y="12" width="2" height="1" fill="#c0c2c3"/>
  <rect x="8" y="12" width="1" height="1" fill="#c6cacd"/>
  <rect x="9" y="12" width="1" height="1" fill="#bfc3c6"/>
  <rect x="11" y="12" width="1" height="1" fill="#adb4b6"/>
  <rect x="12" y="12" width="1" height="1" fill="#a9adb0"/>
  <rect x="13" y="12" width="1" height="1" fill="#a7abae"/>
  <rect x="14" y="12" width="1" height="1" fill="#bec2c5"/>
  <rect x="15" y="12" width="1" height="1" fill="#bcc0c3"/>
  <rect x="16" y="12" width="1" height="1" fill="#c0c5c6"/>
  <rect x="17" y="12" width="1" height="1" fill="#a2a7a7"/>
  <rect x="18" y="12" width="1" height="1" fill="#a8acad"/>
  <rect x="19" y="12" width="1" height="1" fill="#a3a8a9"/>
  <rect x="21" y="12" width="1" height="1" fill="#aeb0b246"/>
  <rect x="22" y="12" width="1" height="1" fill="#aeb0b299"/>
  <rect x="23" y="12" width="1" height="1" fill="#aeb0b2ef"/>
  <rect x="24" y="12" width="4" height="1" fill="#b3b5b6"/>
  <rect x="28" y="12" width="2" height="1" fill="#b1b2b6"/>
  <rect x="31" y="12" width="1" height="1" fill="#9a9ca0"/>
  <rect x="32" y="12" width="1" height="1" fill="#96979b"/>
  <rect x="33" y="12" width="1" height="1" fill="#989a9e"/>
  <rect x="34" y="12" width="1" height="1" fill="#acaeb2"/>
  <rect x="35" y="12" width="1" height="1" fill="#b1b2b6"/>
  <rect x="36" y="12" width="1" height="1" fill="#b5b7bb"/>
  <rect x="37" y="12" width="1" height="1" fill="#989a9e"/>
  <rect x="38" y="12" width="1" height="1" fill="#96979b"/>
  <rect x="39" y="12" width="1" height="1" fill="#989a9e"/>
  <rect x="41" y="12" width="1" height="1" fill="#85878b46"/>
  <rect x="42" y="12" width="1" height="1" fill="#87888c99"/>
  <rect x="43" y="12" width="1" height="1" fill="#87888cef"/>
  <rect x="44" y="12" width="1" height="1" fill="#9ea0a4"/>
  <rect x="45" y="12" width="1" height="1" fill="#a8aaae"/>
  <rect x="46" y="12" width="1" height="1" fill="#b4b6ba"/>
  <rect x="47" y="12" width="1" height="1" fill="#b3b5b9"/>
  <rect x="48" y="12" width="1" height="1" fill="#aeb0b2"/>
  <rect x="49" y="12" width="1" height="2" fill="#b9bbbc"/>
  <rect x="51" y="12" width="1" height="1" fill="#b1b3b4"/>
  <rect x="52" y="12" width="1" height="1" fill="#afb1b3"/>
  <rect x="54" y="12" width="1" height="1" fill="#acaeb0"/>
  <rect x="55" y="12" width="1" height="1" fill="#aaacad"/>
  <rect x="56" y="12" width="1" height="1" fill="#aeb0b2"/>
  <rect x="57" y="12" width="1" height="1" fill="#b1b3b4"/>
  <rect x="58" y="12" width="1" height="1" fill="#b3b5b6"/>
  <rect x="59" y="12" width="1" height="1" fill="#b2b4b5"/>
  <rect x="0" y="13" width="1" height="1" fill="#c6c6c6d1"/>
  <rect x="1" y="13" width="2" height="1" fill="#c6c6c6"/>
  <rect x="3" y="13" width="1" height="1" fill="#c5c5c5"/>
  <rect x="4" y="13" width="1" height="1" fill="#c5c4c7"/>
  <rect x="5" y="13" width="1" height="1" fill="#c4c3c6"/>
  <rect x="6" y="13" width="2" height="1" fill="#c2c4c6"/>
  <rect x="8" y="13" width="1" height="1" fill="#c5c9cc"/>
  <rect x="9" y="13" width="1" height="2" fill="#c0c4c8"/>
  <rect x="14" y="13" width="1" height="1" fill="#bfc3c6"/>
  <rect x="15" y="13" width="1" height="1" fill="#c0c4c8"/>
  <rect x="16" y="13" width="1" height="1" fill="#c3c7c8"/>
  <rect x="20" y="13" width="1" height="1" fill="#b3b5b6d1"/>
  <rect x="21" y="13" width="1" height="1" fill="#b3b5b6"/>
  <rect x="22" y="13" width="4" height="1" fill="#b4b6b8"/>
  <rect x="26" y="13" width="2" height="1" fill="#b5b7b9"/>
  <rect x="28" y="13" width="2" height="1" fill="#b3b5b9"/>
  <rect x="34" y="13" width="1" height="1" fill="#b1b2b6"/>
  <rect x="35" y="13" width="1" height="1" fill="#b4b6ba"/>
  <rect x="36" y="13" width="1" height="1" fill="#adafb3"/>
  <rect x="40" y="13" width="1" height="1" fill="#85878bd1"/>
  <rect x="41" y="13" width="1" height="1" fill="#939599"/>
  <rect x="42" y="13" width="1" height="1" fill="#a7a9ad"/>
  <rect x="43" y="13" width="2" height="1" fill="#b4b6ba"/>
  <rect x="45" y="13" width="3" height="1" fill="#b3b5b9"/>
  <rect x="48" y="13" width="1" height="1" fill="#b2b4b5"/>
  <rect x="54" y="13" width="2" height="1" fill="#afb1b3"/>
  <rect x="56" y="13" width="1" height="2" fill="#b1b3b4"/>
  <rect x="0" y="14" width="3" height="1" fill="#c8c8c8"/>
  <rect x="3" y="14" width="1" height="1" fill="#c7c7c7"/>
  <rect x="4" y="14" width="1" height="1" fill="#c7c7c9"/>
  <rect x="5" y="14" width="1" height="1" fill="#c6c6c8"/>
  <rect x="6" y="14" width="2" height="1" fill="#c4c6c8"/>
  <rect x="8" y="14" width="1" height="1" fill="#c2c6c9"/>
  <rect x="10" y="14" width="1" height="1" fill="#bdc3c5"/>
  <rect x="11" y="14" width="1" height="1" fill="#bbc2c4"/>
  <rect x="12" y="14" width="1" height="1" fill="#bdc1c4"/>
  <rect x="14" y="14" width="1" height="1" fill="#bec2c5"/>
  <rect x="15" y="14" width="1" height="1" fill="#c4c8cb"/>
  <rect x="16" y="14" width="1" height="1" fill="#c2c6c7"/>
  <rect x="20" y="14" width="8" height="1" fill="#b2b4b5"/>
  <rect x="28" y="14" width="1" height="1" fill="#b8b9bd"/>
  <rect x="29" y="14" width="1" height="1" fill="#b3b5b9"/>
  <rect x="30" y="14" width="1" height="1" fill="#b1b2b6"/>
  <rect x="31" y="14" width="1" height="1" fill="#afb1b5"/>
  <rect x="32" y="14" width="1" height="1" fill="#b2b3b7"/>
  <rect x="34" y="14" width="1" height="1" fill="#b4b6ba"/>
  <rect x="35" y="14" width="1" height="1" fill="#adafb3"/>
  <rect x="36" y="14" width="1" height="1" fill="#b2b3b7"/>
  <rect x="40" y="14" width="1" height="1" fill="#adafb3"/>
  <rect x="41" y="14" width="1" height="1" fill="#aeb0b4"/>
  <rect x="42" y="14" width="1" height="1" fill="#b1b2b6"/>
  <rect x="43" y="14" width="5" height="1" fill="#b3b5b9"/>
  <rect x="48" y="14" width="1" height="1" fill="#b5b7b9"/>
  <rect x="49" y="14" width="1" height="1" fill="#b3b5b6"/>
  <rect x="50" y="14" width="1" height="1" fill="#939597"/>
  <rect x="51" y="14" width="1" height="1" fill="#8e9091"/>
  <rect x="52" y="14" width="1" height="1" fill="#8c8e90"/>
  <rect x="54" y="14" width="1" height="1" fill="#b6b8ba"/>
  <rect x="55" y="14" width="1" height="1" fill="#b2b4b5"/>
  <rect x="0" y="15" width="3" height="1" fill="#ababab"/>
  <rect x="3" y="15" width="1" height="1" fill="#aaaaaa"/>
  <rect x="4" y="15" width="1" height="1" fill="#aaaaac"/>
  <rect x="5" y="15" width="1" height="1" fill="#a9a8ab"/>
  <rect x="6" y="15" width="1" height="1" fill="#a7a9ab"/>
  <rect x="7" y="15" width="1" height="1" fill="#a6a8aa"/>
  <rect x="8" y="15" width="2" height="1" fill="#a2a6a9"/>
  <rect x="10" y="15" width="1" height="1" fill="#a1a7a9"/>
  <rect x="11" y="15" width="1" height="1" fill="#a3a9ac"/>
  <rect x="12" y="15" width="1" height="1" fill="#a7abae"/>
  <rect x="14" y="15" width="1" height="1" fill="#a1a5a8"/>
  <rect x="15" y="15" width="1" height="1" fill="#a9adb0"/>
  <rect x="16" y="15" width="1" height="1" fill="#a7abac"/>
  <rect x="20" y="15" width="3" height="1" fill="#989a9c"/>
  <rect x="23" y="15" width="2" height="1" fill="#97999b"/>
  <rect x="25" y="15" width="2" height="1" fill="#969899"/>
  <rect x="27" y="15" width="1" height="1" fill="#97999b"/>
  <rect x="28" y="15" width="1" height="1" fill="#999b9f"/>
  <rect x="29" y="15" width="2" height="1" fill="#95969a"/>
  <rect x="31" y="15" width="1" height="1" fill="#96979b"/>
  <rect x="32" y="15" width="1" height="1" fill="#999b9f"/>
  <rect x="34" y="15" width="1" height="1" fill="#929498"/>
  <rect x="35" y="15" width="2" height="1" fill="#96979b"/>
  <rect x="40" y="15" width="2" height="1" fill="#b4b6ba"/>
  <rect x="42" y="15" width="6" height="1" fill="#b3b5b9"/>
  <rect x="48" y="15" width="1" height="1" fill="#b1b3b4"/>
  <rect x="49" y="15" width="1" height="1" fill="#b8babb"/>
  <rect x="50" y="15" width="1" height="1" fill="#acaeb0"/>
  <rect x="51" y="15" width="1" height="1" fill="#b9bbbc"/>
  <rect x="52" y="15" width="1" height="1" fill="#aeb0b2"/>
  <rect x="54" y="15" width="1" height="1" fill="#b3b5b6"/>
  <rect x="55" y="15" width="1" height="1" fill="#a7a9ab"/>
  <rect x="56" y="15" width="1" height="1" fill="#abadae"/>
</svg>