<svg xmlns="http://www.w3.org/2000/svg" width="48" height="16" viewBox="0 0 48 16" shape-rendering="crispEdges">
  <rect x="0" y="0" width="1" height="1" fill="#b4b4b449"/>
  <rect x="1" y="0" width="1" height="1" fill="#b3b3b3e6"/>
  <rect x="2" y="0" width="1" height="1" fill="#b4b4b4"/>
  <rect x="3" y="0" width="2" height="1" fill="#b7b7b7"/>
  <rect x="5" y="0" width="7" height="1" fill="#b6b6b6"/>
  <rect x="12" y="0" width="1" height="1" fill="#b4b4b4"/>
  <rect x="13" y="0" width="1" height="1" fill="#b2b2b2"/>
  <rect x="14" y="0" width="1" height="1" fill="#b1b1b1e6"/>
  <rect x="15" y="0" width="1" height="1" fill="#b2b2b449"/>
  <rect x="16" y="0" width="1" height="1" fill="#c9cbcf49"/>
  <rect x="17" y="0" width="1" height="1" fill="#c9cbcfe6"/>
  <rect x="18" y="0" width="1" height="1" fill="#c8c9cd"/>
  <rect x="19" y="0" width="1" height="1" fill="#caccd0"/>
  <rect x="20" y="0" width="4" height="1" fill="#c9cbcf"/>
  <rect x="24" y="0" width="6" height="1" fill="#c9cbcd"/>
  <rect x="30" y="0" width="1" height="1" fill="#c9cbcde6"/>
  <rect x="31" y="0" width="1" height="1" fill="#c9cbcd49"/>
  <rect x="32" y="0" width="1" height="1" fill="#83858749"/>
  <rect x="33" y="0" width="1" height="1" fill="#828486e6"/>
  <rect x="34" y="0" width="1" height="1" fill="#808283"/>
  <rect x="35" y="0" width="1" height="1" fill="#7e8182"/>
  <rect x="36" y="0" width="8" height="1" fill="#808283"/>
  <rect x="44" y="0" width="1" height="1" fill="#818384"/>
  <rect x="45" y="0" width="1" height="1" fill="#828486"/>
  <rect x="46" y="0" width="1" height="1" fill="#848688e6"/>
  <rect x="47" y="0" width="1" height="1" fill="#87898a49"/>
  <rect x="0" y="1" width="1" height="1" fill="#b4b4b4e6"/>
  <rect x="1" y="1" width="1" height="1" fill="#b8b8b8"/>
  <rect x="2" y="1" width="1" height="1" fill="#b6b6b6"/>
  <rect x="3" y="1" width="1" height="1" fill="#b2b2b2"/>
  <rect x="4" y="1" width="1" height="1" fill="#b6b6b6"/>
  <rect x="5" y="1" width="6" height="1" fill="#b8b8b8"/>
  <rect x="11" y="1" width="1" height="1" fill="#b4b4b4"/>
  <rect x="12" y="1" width="1" height="1" fill="#b1b1b1"/>
  <rect x="13" y="1" width="1" height="1" fill="#b3b3b3"/>
  <rect x="14" y="1" width="1" height="1" fill="#b6b6b6"/>
  <rect x="15" y="1" width="1" height="1" fill="#b3b3b5e6"/>
  <rect x="16" y="1" width="1" height="1" fill="#c6c7cbe6"/>
  <rect x="17" y="1" width="1" height="1" fill="#c7c8cc"/>
  <rect x="18" y="1" width="1" height="1" fill="#caccd0"/>
  <rect x="19" y="1" width="1" height="1" fill="#c7c8cc"/>
  <rect x="20" y="1" width="4" height="1" fill="#c8c9cd"/>
  <rect x="24" y="1" width="4" height="1" fill="#c8cacb"/>
  <rect x="28" y="1" width="1" height="1" fill="#c2c4c6"/>
  <rect x="29" y="1" width="1" height="1" fill="#caccce"/>
  <rect x="30" y="1" width="1" height="1" fill="#c9cbcd"/>
  <rect x="31" y="1" width="1" height="1" fill="#cdcfd0e6"/>
  <rect x="32" y="1" width="1" height="1" fill="#959798e6"/>
  <rect x="33" y="1" width="1" height="1" fill="#9fa1a3"/>
  <rect x="34" y="1" width="1" height="1" fill="#aeb0b2"/>
  <rect x="35" y="1" width="1" height="1" fill="#b9bbbc"/>
  <rect x="36" y="1" width="8" height="1" fill="#afb1b3"/>
  <rect x="44" y="1" width="1" height="1" fill="#b9bbbc"/>
  <rect x="45" y="1" width="1" height="1" fill="#aeb0b2"/>
  <rect x="46" y="1" width="1" height="1" fill="#9fa1a3"/>
  <rect x="47" y="1" width="1" height="1" fill="#959798e6"/>
  <rect x="0" y="2" width="1" height="1" fill="#b7b7b7"/>
  <rect x="1" y="2" width="1" height="1" fill="#bfbfbf"/>
  <rect x="2" y="2" width="1" height="3" fill="#b8b8b8"/>
  <rect x="3" y="2" width="1" height="1" fill="#a5a5a5"/>
  <rect x="4" y="2" width="8" height="1" fill="#9c9c9c"/>
  <rect x="12" y="2" width="1" height="1" fill="#a3a3a3"/>
  <rect x="13" y="2" width="1" height="1" fill="#b6b6b6"/>
  <rect x="14" y="2" width="1" height="1" fill="#bdbdbd"/>
  <rect x="15" y="2" width="1" height="1" fill="#b4b4b6"/>
  <rect x="16" y="2" width="1" height="1" fill="#d0d2d6"/>
  <rect x="17" y="2" width="1" height="1" fill="#c9cbcf"/>
  <rect x="18" y="2" width="1" height="1" fill="#c8c9cd"/>
  <rect x="19" y="2" width="1" height="1" fill="#b3b5b9"/>
  <rect x="20" y="2" width="4" height="1" fill="#a8aaae"/>
  <rect x="24" y="2" width="4" height="1" fill="#a8aaac"/>
  <rect x="28" y="2" width="1" height="1" fill="#b2b4b5"/>
  <rect x="29" y="2" width="2" height="1" fill="#caccce"/>
  <rect x="31" y="2" width="1" height="1" fill="#c8cacb"/>
  <rect x="32" y="2" width="1" height="1" fill="#aaacad"/>
  <rect x="33" y="2" width="1" height="1" fill="#acaeb0"/>
  <rect x="34" y="2" width="1" height="1" fill="#afb1b3"/>
  <rect x="35" y="2" width="1" height="1" fill="#b1b3b4"/>
  <rect x="36" y="2" width="1" height="1" fill="#afb1b3"/>
  <rect x="37" y="2" width="8" height="1" fill="#aeb0b2"/>
  <rect x="45" y="2" width="1" height="1" fill="#acaeb0"/>
  <rect x="46" y="2" width="1" height="1" fill="#a8aaac"/>
  <rect x="47" y="2" width="1" height="1" fill="#a6a8aa"/>
  <rect x="0" y="3" width="1" height="1" fill="#b8b8b8"/>
  <rect x="1" y="3" width="1" height="1" fill="#c4c4c4"/>
  <rect x="3" y="3" width="1" height="1" fill="#9e9e9e3c"/>
  <rect x="12" y="3" width="1" height="1" fill="#9c9c9c3c"/>
  <rect x="13" y="3" width="1" height="1" fill="#b7b7b7"/>
  <rect x="14" y="3" width="1" height="1" fill="#bebebe"/>
  <rect x="15" y="3" width="1" height="2" fill="#b7b6b9"/>
  <rect x="16" y="3" width="1" height="1" fill="#cdced2"/>
  <rect x="17" y="3" width="1" height="1" fill="#c7c8cc"/>
  <rect x="18" y="3" width="1" height="1" fill="#caccd0"/>
  <rect x="19" y="3" width="1" height="1" fill="#b1b2b63c"/>
  <rect x="28" y="3" width="1" height="1" fill="#b3b5b63c"/>
  <rect x="29" y="3" width="1" height="1" fill="#cfd1d2"/>
  <rect x="30" y="3" width="2" height="2" fill="#c9cbcd"/>
  <rect x="32" y="3" width="1" height="1" fill="#aeb0b2"/>
  <rect x="33" y="3" width="1" height="1" fill="#b1b3b4"/>
  <rect x="34" y="3" width="1" height="1" fill="#b3b5b6"/>
  <rect x="35" y="3" width="1" height="1" fill="#b4b6b83c"/>
  <rect x="44" y="3" width="1" height="1" fill="#b3b5b63c"/>
  <rect x="45" y="3" width="1" height="1" fill="#b2b4b5"/>
  <rect x="46" y="3" width="1" height="1" fill="#afb1b3"/>
  <rect x="47" y="3" width="1" height="1" fill="#adafb1"/>
  <rect x="0" y="4" width="2" height="1" fill="#b7b7b7"/>
  <rect x="3" y="4" width="1" height="1" fill="#b6b6b63c"/>
  <rect x="12" y="4" width="1" height="1" fill="#b8b8ba3b"/>
  <rect x="13" y="4" width="1" height="1" fill="#b8b8ba"/>
  <rect x="14" y="4" width="1" height="1" fill="#bababc"/>
  <rect x="16" y="4" width="3" height="1" fill="#c9cbcf"/>
  <rect x="19" y="4" width="1" height="1" fill="#c9cbcf3c"/>
  <rect x="28" y="4" width="1" height="1" fill="#caccce3b"/>
  <rect x="29" y="4" width="1" height="1" fill="#c8cacb"/>
  <rect x="32" y="4" width="1" height="1" fill="#acaeb0"/>
  <rect x="33" y="4" width="1" height="1" fill="#b3b5b6"/>
  <rect x="34" y="4" width="1" height="1" fill="#acaeb0"/>
  <rect x="35" y="4" width="1" height="1" fill="#8e90913c"/>
  <rect x="44" y="4" width="1" height="1" fill="#8f91923b"/>
  <rect x="45" y="4" width="1" height="1" fill="#aaacad"/>
  <rect x="46" y="4" width="1" height="1" fill="#b4b6b8"/>
  <rect x="47" y="4" width="1" height="1" fill="#a8aaac"/>
  <rect x="0" y="5" width="3" height="1" fill="#b7b7b7"/>
  <rect x="3" y="5" width="1" height="1" fill="#b6b6b6"/>
  <rect x="4" y="5" width="1" height="1" fill="#b4b4b4"/>
  <rect x="5" y="5" width="1" height="1" fill="#b7b7b7"/>
  <rect x="6" y="5" width="1" height="1" fill="#b4b4b4"/>
  <rect x="7" y="5" width="1" height="1" fill="#b1b1b1"/>
  <rect x="8" y="5" width="1" height="1" fill="#b3b3b5"/>
  <rect x="9" y="5" width="2" height="1" fill="#b6b5b8"/>
  <rect x="11" y="5" width="2" height="1" fill="#b3b3b5"/>
  <rect x="13" y="5" width="1" height="1" fill="#b7b6b9"/>
  <rect x="14" y="5" width="1" height="1" fill="#b9b9bb"/>
  <rect x="15" y="5" width="1" height="1" fill="#b6b5b8"/>
  <rect x="16" y="5" width="6" height="1" fill="#c9cbcf"/>
  <rect x="22" y="5" width="1" height="1" fill="#caccd0"/>
  <rect x="23" y="5" width="1" height="1" fill="#c7c8cc"/>
  <rect x="24" y="5" width="4" height="1" fill="#c8cacb"/>
  <rect x="28" y="5" width="1" height="1" fill="#c7c9ca"/>
  <rect x="29" y="5" width="1" height="1" fill="#caccce"/>
  <rect x="30" y="5" width="1" height="1" fill="#c7c9ca"/>
  <rect x="31" y="5" width="1" height="1" fill="#c6c8c9"/>
  <rect x="32" y="5" width="1" height="1" fill="#aeb0b2"/>
  <rect x="33" y="5" width="1" height="1" fill="#b2b4b5"/>
  <rect x="34" y="5" width="1" height="1" fill="#adafb1"/>
  <rect x="35" y="5" width="1" height="1" fill="#999b9d"/>
  <rect x="36" y="5" width="2" height="1" fill="#838587"/>
  <rect x="38" y="5" width="2" height="1" fill="#848688"/>
  <rect x="40" y="5" width="2" height="1" fill="#858789"/>
  <rect x="42" y="5" width="2" height="1" fill="#87898a"/>
  <rect x="44" y="5" width="1" height="1" fill="#999b9d"/>
  <rect x="45" y="5" width="1" height="1" fill="#abadae"/>
  <rect x="46" y="5" width="1" height="1" fill="#b3b5b6"/>
  <rect x="47" y="5" width="1" height="1" fill="#abadae"/>
  <rect x="0" y="6" width="4" height="1" fill="#b7b7b7"/>
  <rect x="4" y="6" width="1" height="1" fill="#b6b6b6"/>
  <rect x="5" y="6" width="1" height="1" fill="#bebebe"/>
  <rect x="6" y="6" width="1" height="1" fill="#b7b7b7"/>
  <rect x="7" y="6" width="1" height="1" fill="#a4a4a4"/>
  <rect x="8" y="6" width="4" height="1" fill="#999b9d"/>
  <rect x="12" y="6" width="1" height="1" fill="#a0a2a4"/>
  <rect x="13" y="6" width="1" height="2" fill="#b3b5b6"/>
  <rect x="14" y="6" width="1" height="1" fill="#babcbd"/>
  <rect x="15" y="6" width="1" height="2" fill="#b2b4b5"/>
  <rect x="16" y="6" width="4" height="1" fill="#c9cbcf"/>
  <rect x="20" y="6" width="1" height="1" fill="#caccd0"/>
  <rect x="21" y="6" width="2" height="1" fill="#c4c6ca"/>
  <rect x="23" y="6" width="1" height="1" fill="#b1b2b6"/>
  <rect x="24" y="6" width="4" height="1" fill="#abadae"/>
  <rect x="28" y="6" width="1" height="1" fill="#b3b5b6"/>
  <rect x="29" y="6" width="1" height="1" fill="#c8cacb"/>
  <rect x="30" y="6" width="1" height="1" fill="#c9cbcd"/>
  <rect x="31" y="6" width="1" height="1" fill="#d0d2d4"/>
  <rect x="32" y="6" width="1" height="1" fill="#b2b4b5"/>
  <rect x="33" y="6" width="2" height="1" fill="#afb1b3"/>
  <rect x="35" y="6" width="1" height="1" fill="#aaacad"/>
  <rect x="36" y="6" width="1" height="1" fill="#abadae"/>
  <rect x="37" y="6" width="3" height="1" fill="#adafb1"/>
  <rect x="40" y="6" width="3" height="1" fill="#acaeb0"/>
  <rect x="43" y="6" width="1" height="1" fill="#abadae"/>
  <rect x="44" y="6" width="1" height="1" fill="#aaacad"/>
  <rect x="45" y="6" width="1" height="2" fill="#aeb0b2"/>
  <rect x="46" y="6" width="1" height="2" fill="#b1b3b4"/>
  <rect x="47" y="6" width="1" height="2" fill="#adafb1"/>
  <rect x="0" y="7" width="5" height="1" fill="#b7b7b7"/>
  <rect x="5" y="7" width="1" height="1" fill="#bfbfbf"/>
  <rect x="6" y="7" width="1" height="1" fill="#b9b9b9"/>
  <rect x="7" y="7" width="1" height="1" fill="#9d9d9d3c"/>
  <rect x="12" y="7" width="1" height="1" fill="#9698993c"/>
  <rect x="14" y="7" width="1" height="1" fill="#b9bbbc"/>
  <rect x="16" y="7" width="5" height="1" fill="#c9cbcf"/>
  <rect x="21" y="7" width="1" height="1" fill="#c4c6ca"/>
  <rect x="22" y="7" width="1" height="1" fill="#cbcdd1"/>
  <rect x="23" y="7" width="1" height="1" fill="#b4b6ba3c"/>
  <rect x="28" y="7" width="1" height="1" fill="#b1b3b43c"/>
  <rect x="29" y="7" width="1" height="1" fill="#caccce"/>
  <rect x="30" y="7" width="1" height="1" fill="#c7c9ca"/>
  <rect x="31" y="7" width="1" height="1" fill="#cdcfd0"/>
  <rect x="32" y="7" width="1" height="1" fill="#b3b5b6"/>
  <rect x="33" y="7" width="1" height="2" fill="#aeb0b2"/>
  <rect x="34" y="7" width="2" height="1" fill="#b2b4b5"/>
  <rect x="36" y="7" width="1" height="1" fill="#aeb0b2"/>
  <rect x="37" y="7" width="2" height="1" fill="#adafb1"/>
  <rect x="39" y="7" width="1" height="1" fill="#adafb13c"/>
  <rect x="44" y="7" width="1" height="1" fill="#b3b5b63c"/>
  <rect x="0" y="8" width="4" height="1" fill="#b7b7b7"/>
  <rect x="4" y="8" width="1" height="1" fill="#b8b8ba"/>
  <rect x="5" y="8" width="1" height="1" fill="#bababc"/>
  <rect x="6" y="8" width="1" height="1" fill="#b8babb"/>
  <rect x="7" y="8" width="1" height="1" fill="#bfc1c23c"/>
  <rect x="12" y="8" width="1" height="1" fill="#b5b9bc3b"/>
  <rect x="13" y="8" width="1" height="2" fill="#b2b6ba"/>
  <rect x="14" y="8" width="1" height="2" fill="#b5b9bc"/>
  <rect x="15" y="8" width="1" height="2" fill="#b2b6ba"/>
  <rect x="16" y="8" width="4" height="3" fill="#c9cbcd"/>
  <rect x="20" y="8" width="1" height="1" fill="#cdcfd0"/>
  <rect x="21" y="8" width="1" height="1" fill="#cbcdcf"/>
  <rect x="22" y="8" width="1" height="1" fill="#c7c9ca"/>
  <rect x="23" y="8" width="1" height="1" fill="#c7c9ca3c"/>
  <rect x="28" y="8" width="1" height="1" fill="#c9cbcd3b"/>
  <rect x="29" y="8" width="1" height="1" fill="#c7c9ca"/>
  <rect x="30" y="8" width="2" height="1" fill="#c8cacb"/>
  <rect x="32" y="8" width="1" height="1" fill="#b2b4b5"/>
  <rect x="34" y="8" width="1" height="1" fill="#b3b5b6"/>
  <rect x="35" y="8" width="1" height="1" fill="#b1b3b4"/>
  <rect x="36" y="8" width="1" height="1" fill="#acaeb0"/>
  <rect x="37" y="8" width="1" height="1" fill="#b6b8ba"/>
  <rect x="38" y="8" width="1" height="1" fill="#acaeb0"/>
  <rect x="39" y="8" width="1" height="1" fill="#8e90913c"/>
  <rect x="44" y="8" width="1" height="1" fill="#9092943b"/>
  <rect x="45" y="8" width="1" height="2" fill="#acaeb0"/>
  <rect x="46" y="8" width="1" height="1" fill="#b3b5b6"/>
  <rect x="47" y="8" width="1" height="2" fill="#acaeb0"/>
  <rect x="0" y="9" width="3" height="1" fill="#b7b7b7"/>
  <rect x="3" y="9" width="1" height="1" fill="#b6b6b6"/>
  <rect x="4" y="9" width="1" height="1" fill="#b7b6b9"/>
  <rect x="5" y="9" width="1" height="1" fill="#b9b9bb"/>
  <rect x="6" y="9" width="1" height="1" fill="#b6b8ba"/>
  <rect x="7" y="9" width="1" height="1" fill="#b4b6b8"/>
  <rect x="8" y="9" width="2" height="1" fill="#b3b5b6"/>
  <rect x="10" y="9" width="1" height="1" fill="#b1b6b6"/>
  <rect x="11" y="9" width="1" height="1" fill="#b0b5b5"/>
  <rect x="12" y="9" width="1" height="1" fill="#afb3b6"/>
  <rect x="20" y="9" width="2" height="1" fill="#c8cacb"/>
  <rect x="22" y="9" width="1" height="1" fill="#caccce"/>
  <rect x="23" y="9" width="1" height="1" fill="#c7c9ca"/>
  <rect x="24" y="9" width="4" height="1" fill="#c9cbcd"/>
  <rect x="28" y="9" width="1" height="1" fill="#c6c8c9"/>
  <rect x="29" y="9" width="1" height="1" fill="#c9cbcd"/>
  <rect x="30" y="9" width="1" height="1" fill="#c6c8c9"/>
  <rect x="31" y="9" width="1" height="1" fill="#c4c6c8"/>
  <rect x="32" y="9" width="2" height="1" fill="#b1b3b4"/>
  <rect x="34" y="9" width="1" height="1" fill="#b2b4b5"/>
  <rect x="35" y="9" width="2" height="1" fill="#aeb0b2"/>
  <rect x="37" y="9" width="1" height="1" fill="#b5b7b9"/>
  <rect x="38" y="9" width="1" height="1" fill="#aeb0b2"/>
  <rect x="39" y="9" width="1" height="1" fill="#989a9c"/>
  <rect x="40" y="9" width="4" height="1" fill="#898b8d"/>
  <rect x="44" y="9" width="1" height="1" fill="#9a9c9e"/>
  <rect x="46" y="9" width="1" height="1" fill="#b4b6b8"/>
  <rect x="0" y="10" width="4" height="2" fill="#b7b7b7"/>
  <rect x="4" y="10" width="1" height="1" fill="#b3b3b5"/>
  <rect x="5" y="10" width="1" height="1" fill="#bbbbbd"/>
  <rect x="6" y="10" width="1" height="1" fill="#b4b6b8"/>
  <rect x="7" y="10" width="1" height="1" fill="#a5a7a9"/>
  <rect x="8" y="10" width="3" height="1" fill="#979b9c"/>
  <rect x="11" y="10" width="1" height="1" fill="#959c9c"/>
  <rect x="12" y="10" width="1" height="1" fill="#9da4a6"/>
  <rect x="13" y="10" width="1" height="1" fill="#afb5b7"/>
  <rect x="14" y="10" width="1" height="1" fill="#b6bcbe"/>
  <rect x="15" y="10" width="1" height="1" fill="#b0b4b7"/>
  <rect x="20" y="10" width="1" height="1" fill="#cfd1d2"/>
  <rect x="21" y="10" width="2" height="1" fill="#c9cbcd"/>
  <rect x="23" y="10" width="1" height="1" fill="#b5b7b9"/>
  <rect x="24" y="10" width="4" height="1" fill="#adafb1"/>
  <rect x="28" y="10" width="1" height="1" fill="#b2b4b5"/>
  <rect x="29" y="10" width="1" height="1" fill="#c7c9ca"/>
  <rect x="30" y="10" width="1" height="1" fill="#c8cacb"/>
  <rect x="31" y="10" width="1" height="1" fill="#cfd1d2"/>
  <rect x="32" y="10" width="1" height="1" fill="#afb1b3"/>
  <rect x="33" y="10" width="1" height="1" fill="#b3b5b6"/>
  <rect x="34" y="10" width="1" height="1" fill="#b1b3b4"/>
  <rect x="35" y="10" width="1" height="1" fill="#aeb0b2"/>
  <rect x="36" y="10" width="1" height="1" fill="#b1b3b4"/>
  <rect x="37" y="10" width="1" height="1" fill="#b3b5b6"/>
  <rect x="38" y="10" width="1" height="1" fill="#b1b3b4"/>
  <rect x="39" y="10" width="1" height="1" fill="#abadae"/>
  <rect x="40" y="10" width="1" height="1" fill="#acaeb0"/>
  <rect x="41" y="10" width="2" height="1" fill="#afb1b3"/>
  <rect x="43" y="10" width="1" height="1" fill="#adafb1"/>
  <rect x="44" y="10" width="1" height="1" fill="#acaeb0"/>
  <rect x="45" y="10" width="1" height="1" fill="#afb1b3"/>
  <rect x="46" y="10" width="1" height="1" fill="#b2b4b5"/>
  <rect x="47" y="10" width="1" height="1" fill="#aeb0b2"/>
  <rect x="4" y="11" width="1" height="1" fill="#b1b1b3"/>
  <rect x="5" y="11" width="1" height="1" fill="#bebdc0"/>
  <rect x="6" y="11" width="1" height="2" fill="#b3b5b6"/>
  <rect x="7" y="11" width="1" height="1" fill="#9a9c9e3c"/>
  <rect x="12" y="11" width="1" height="1" fill="#93999b3c"/>
  <rect x="13" y="11" width="1" height="1" fill="#adb4b6"/>
  <rect x="14" y="11" width="1" height="1" fill="#b8bec1"/>
  <rect x="15" y="11" width="1" height="1" fill="#aeb2b5"/>
  <rect x="16" y="11" width="5" height="1" fill="#c9cbcd"/>
  <rect x="21" y="11" width="1" height="1" fill="#c6c8c9"/>
  <rect x="22" y="11" width="1" height="1" fill="#cdcfd0"/>
  <rect x="23" y="11" width="1" height="1" fill="#b4b6b83c"/>
  <rect x="28" y="11" width="1" height="1" fill="#afb1b33c"/>
  <rect x="29" y="11" width="1" height="1" fill="#c9cbcd"/>
  <rect x="30" y="11" width="1" height="1" fill="#c6c8c9"/>
  <rect x="31" y="11" width="1" height="1" fill="#cbcdcf"/>
  <rect x="32" y="11" width="1" height="1" fill="#b1b3b4"/>
  <rect x="33" y="11" width="1" height="1" fill="#b2b4b5"/>
  <rect x="34" y="11" width="1" height="2" fill="#aeb0b2"/>
  <rect x="35" y="11" width="2" height="1" fill="#afb1b3"/>
  <rect x="37" y="11" width="1" height="1" fill="#b2b4b5"/>
  <rect x="38" y="11" width="1" height="1" fill="#afb1b3"/>
  <rect x="39" y="11" width="1" height="1" fill="#b2b4b53c"/>
  <rect x="44" y="11" width="1" height="1" fill="#b4b6b83c"/>
  <rect x="45" y="11" width="1" height="1" fill="#aeb0b2"/>
  <rect x="46" y="11" width="1" height="1" fill="#b1b3b4"/>
  <rect x="47" y="11" width="1" height="1" fill="#adafb1"/>
  <rect x="0" y="12" width="3" height="1" fill="#b7b7b7"/>
  <rect x="3" y="12" width="1" height="1" fill="#b6b6b6"/>
  <rect x="4" y="12" width="1" height="1" fill="#b6b5b8"/>
  <rect x="5" y="12" width="1" height="1" fill="#b4b4b6"/>
  <rect x="7" y="12" width="1" height="1" fill="#b3b5b63c"/>
  <rect x="12" y="12" width="1" height="1" fill="#b2b8bd3b"/>
  <rect x="13" y="12" width="1" height="1" fill="#b3b9be"/>
  <rect x="14" y="12" width="1" height="2" fill="#b4babf"/>
  <rect x="15" y="12" width="1" height="1" fill="#b6babd"/>
  <rect x="16" y="12" width="1" height="1" fill="#c7c9ca"/>
  <rect x="17" y="12" width="1" height="1" fill="#c8cacb"/>
  <rect x="18" y="12" width="1" height="1" fill="#c9cbcd"/>
  <rect x="19" y="12" width="1" height="1" fill="#caccce"/>
  <rect x="20" y="12" width="3" height="1" fill="#c8cacb"/>
  <rect x="23" y="12" width="1" height="1" fill="#c8cacb3c"/>
  <rect x="28" y="12" width="1" height="1" fill="#cbcdcf3b"/>
  <rect x="29" y="12" width="1" height="1" fill="#caccce"/>
  <rect x="30" y="12" width="2" height="1" fill="#c9cbcd"/>
  <rect x="32" y="12" width="1" height="1" fill="#b2b4b5"/>
  <rect x="33" y="12" width="1" height="1" fill="#b1b3b4"/>
  <rect x="35" y="12" width="1" height="1" fill="#b1b3b4"/>
  <rect x="36" y="12" width="1" height="2" fill="#abadae"/>
  <rect x="37" y="12" width="1" height="2" fill="#b3b5b6"/>
  <rect x="38" y="12" width="1" height="1" fill="#adafb1"/>
  <rect x="39" y="12" width="1" height="1" fill="#8b8d8f3c"/>
  <rect x="44" y="12" width="1" height="1" fill="#8e90913b"/>
  <rect x="45" y="12" width="1" height="2" fill="#abadae"/>
  <rect x="46" y="12" width="1" height="2" fill="#b2b4b5"/>
  <rect x="47" y="12" width="1" height="2" fill="#aaacad"/>
  <rect x="0" y="13" width="4" height="1" fill="#b9b9b9"/>
  <rect x="4" y="13" width="2" height="1" fill="#b8b8ba"/>
  <rect x="6" y="13" width="2" height="1" fill="#b6b8ba"/>
  <rect x="8" y="13" width="2" height="1" fill="#b4b8bb"/>
  <rect x="10" y="13" width="2" height="1" fill="#b3babc"/>
  <rect x="12" y="13" width="2" height="1" fill="#b3b9be"/>
  <rect x="15" y="13" width="1" height="1" fill="#b6babf"/>
  <rect x="16" y="13" width="1" height="1" fill="#c2c4c8"/>
  <rect x="17" y="13" width="1" height="1" fill="#cdcfd0"/>
  <rect x="18" y="13" width="1" height="1" fill="#ced0d1"/>
  <rect x="19" y="13" width="1" height="1" fill="#c7c9ca"/>
  <rect x="20" y="13" width="4" height="1" fill="#cbcdcf"/>
  <rect x="24" y="13" width="4" height="1" fill="#caccce"/>
  <rect x="28" y="13" width="1" height="1" fill="#c6c8c9"/>
  <rect x="29" y="13" width="1" height="1" fill="#cdcfd0"/>
  <rect x="30" y="13" width="1" height="1" fill="#cbcdcf"/>
  <rect x="31" y="13" width="1" height="1" fill="#c1c3c4"/>
  <rect x="32" y="13" width="1" height="1" fill="#b1b3b4"/>
  <rect x="33" y="13" width="2" height="1" fill="#afb1b3"/>
  <rect x="35" y="13" width="1" height="1" fill="#b2b4b5"/>
  <rect x="38" y="13" width="1" height="1" fill="#acaeb0"/>
  <rect x="39" y="13" width="1" height="1" fill="#97999b"/>
  <rect x="40" y="13" width="4" height="1" fill="#848688"/>
  <rect x="44" y="13" width="1" height="1" fill="#989a9c"/>
  <rect x="0" y="14" width="1" height="1" fill="#b0b0b0e6"/>
  <rect x="1" y="14" width="1" height="1" fill="#b0b0b0"/>
  <rect x="2" y="14" width="1" height="1" fill="#b2b2b2"/>
  <rect x="3" y="14" width="1" height="1" fill="#b3b3b3"/>
  <rect x="4" y="14" width="1" height="1" fill="#b6b5b8"/>
  <rect x="5" y="14" width="1" height="1" fill="#b7b6b9"/>
  <rect x="6" y="14" width="2" height="1" fill="#b8babb"/>
  <rect x="8" y="14" width="2" height="1" fill="#b5b9bc"/>
  <rect x="10" y="14" width="1" height="1" fill="#b2b8bb"/>
  <rect x="11" y="14" width="1" height="1" fill="#b0b6b9"/>
  <rect x="12" y="14" width="1" height="1" fill="#acb2b7"/>
  <rect x="13" y="14" width="1" height="1" fill="#aab0b5"/>
  <rect x="14" y="14" width="1" height="1" fill="#a9afb4"/>
  <rect x="15" y="14" width="1" height="1" fill="#aaaeb4e7"/>
  <rect x="16" y="14" width="1" height="1" fill="#b4b6bae6"/>
  <rect x="17" y="14" width="1" height="1" fill="#c3c5c7"/>
  <rect x="18" y="14" width="1" height="1" fill="#cbcdcf"/>
  <rect x="19" y="14" width="1" height="1" fill="#c8cacb"/>
  <rect x="20" y="14" width="4" height="1" fill="#c9cbcd"/>
  <rect x="24" y="14" width="4" height="1" fill="#cbcdcf"/>
  <rect x="28" y="14" width="1" height="1" fill="#c9cbcd"/>
  <rect x="29" y="14" width="1" height="1" fill="#cbcdcf"/>
  <rect x="30" y="14" width="1" height="1" fill="#c4c6c8"/>
  <rect x="31" y="14" width="1" height="1" fill="#b6b8bae7"/>
  <rect x="32" y="14" width="1" height="1" fill="#b1b3b4e6"/>
  <rect x="33" y="14" width="1" height="1" fill="#aeb0b2"/>
  <rect x="34" y="14" width="2" height="1" fill="#b1b3b4"/>
  <rect x="36" y="14" width="1" height="1" fill="#afb1b3"/>
  <rect x="37" y="14" width="1" height="1" fill="#b1b3b4"/>
  <rect x="38" y="14" width="1" height="1" fill="#aeb0b2"/>
  <rect x="39" y="14" width="1" height="1" fill="#a8aaac"/>
  <rect x="40" y="14" width="1" height="1" fill="#abadae"/>
  <rect x="41" y="14" width="2" height="2" fill="#aeb0b2"/>
  <rect x="43" y="14" width="1" height="1" fill="#acaeb0"/>
  <rect x="44" y="14" width="1" height="1" fill="#aaacad"/>
  <rect x="45" y="14" width="1" height="1" fill="#adafb1"/>
  <rect x="46" y="14" width="1" height="1" fill="#afb1b3"/>
  <rect x="47" y="14" width="1" height="1" fill="#adafb1e7"/>
  <rect x="0" y="15" width="1" height="1" fill="#a1a1a14a"/>
  <rect x="1" y="15" width="1" height="1" fill="#a1a1a1e7"/>
  <rect x="2" y="15" width="1" height="1" fill="#a0a0a0"/>
  <rect x="3" y="15" width="1" height="1" fill="#9e9e9e"/>
  <rect x="4" y="15" width="1" height="1" fill="#9d9d9f"/>
  <rect x="5" y="15" width="1" height="1" fill="#9c9c9e"/>
  <rect x="6" y="15" width="2" height="1" fill="#999b9d"/>
  <rect x="8" y="15" width="2" height="1" fill="#979b9e"/>
  <rect x="10" y="15" width="2" height="1" fill="#969d9f"/>
  <rect x="12" y="15" width="2" height="1" fill="#969ca1"/>
  <rect x="14" y="15" width="1" height="1" fill="#979da2e4"/>
  <rect x="15" y="15" width="1" height="1" fill="#999ca24a"/>
  <rect x="16" y="15" width="1" height="1" fill="#abacb04a"/>
  <rect x="17" y="15" width="1" height="1" fill="#aaacade7"/>
  <rect x="18" y="15" width="1" height="1" fill="#a8aaac"/>
  <rect x="19" y="15" width="1" height="1" fill="#a7a9ab"/>
  <rect x="20" y="15" width="4" height="1" fill="#acaeb0"/>
  <rect x="24" y="15" width="5" height="1" fill="#abadae"/>
  <rect x="29" y="15" width="1" height="1" fill="#acaeb0"/>
  <rect x="30" y="15" width="1" height="1" fill="#adafb1e4"/>
  <rect x="31" y="15" width="1" height="1" fill="#aeb0b24a"/>
  <rect x="32" y="15" width="1" height="1" fill="#afb1b34a"/>
  <rect x="33" y="15" width="1" height="1" fill="#afb1b3e7"/>
  <rect x="34" y="15" width="2" height="1" fill="#b2b4b5"/>
  <rect x="36" y="15" width="1" height="1" fill="#b1b3b4"/>
  <rect x="37" y="15" width="1" height="1" fill="#aeb0b2"/>
  <rect x="38" y="15" width="1" height="1" fill="#b1b3b4"/>
  <rect x="39" y="15" width="2" height="1" fill="#afb1b3"/>
  <rect x="43" y="15" width="1" height="1" fill="#afb1b3"/>
  <rect x="44" y="15" width="1" height="1" fill="#b1b3b4"/>
  <rect x="45" y="15" width="1" height="1" fill="#aeb0b2"/>
  <rect x="46" y="15" width="1" height="1" fill="#adafb1e4"/>
  <rect x="47" y="15" width="1" height="1" fill="#afb1b34a"/>
</svg>