<svg xmlns="http://www.w3.org/2000/svg" width="20" height="16" viewBox="0 0 20 16" shape-rendering="crispEdges">
  <rect x="1" y="0" width="1" height="1" fill="#b1b2b649"/>
  <rect x="2" y="0" width="1" height="1" fill="#b1b2b6e6"/>
  <rect x="3" y="0" width="9" height="1" fill="#b1b2b6"/>
  <rect x="12" y="0" width="1" height="1" fill="#a7a9ade7"/>
  <rect x="13" y="0" width="1" height="1" fill="#b8b9bd50"/>
  <rect x="1" y="1" width="1" height="1" fill="#b1b2b6e6"/>
  <rect x="2" y="1" width="11" height="1" fill="#b1b2b6"/>
  <rect x="13" y="1" width="1" height="1" fill="#a1a3a7ed"/>
  <rect x="1" y="2" width="11" height="2" fill="#b1b2b6"/>
  <rect x="12" y="2" width="1" height="1" fill="#abacb0"/>
  <rect x="13" y="2" width="1" height="1" fill="#9fa1a586"/>
  <rect x="12" y="3" width="1" height="1" fill="#989a9e85"/>
  <rect x="13" y="3" width="1" height="1" fill="#b2b3b716"/>
  <rect x="14" y="3" width="1" height="1" fill="#b1b2b6c2"/>
  <rect x="15" y="3" width="1" height="1" fill="#b5b7bbfa"/>
  <rect x="16" y="3" width="1" height="1" fill="#aaacada7"/>
  <rect x="17" y="3" width="1" height="1" fill="#a7a9ab0a"/>
  <rect x="1" y="4" width="8" height="1" fill="#b1b2b6"/>
  <rect x="9" y="4" width="1" height="1" fill="#b4b6ba"/>
  <rect x="10" y="4" width="1" height="1" fill="#a8aaae"/>
  <rect x="11" y="4" width="1" height="1" fill="#96979b85"/>
  <rect x="12" y="4" width="1" height="1" fill="#afb1b515"/>
  <rect x="13" y="4" width="1" height="1" fill="#afb1b5d4"/>
  <rect x="14" y="4" width="1" height="1" fill="#b1b2b6"/>
  <rect x="15" y="4" width="1" height="1" fill="#b3b5b9"/>
  <rect x="16" y="4" width="1" height="2" fill="#b2b4b5"/>
  <rect x="17" y="4" width="1" height="1" fill="#b3b5b6af"/>
  <rect x="1" y="5" width="7" height="3" fill="#b1b2b6"/>
  <rect x="8" y="5" width="1" height="1" fill="#b4b6ba"/>
  <rect x="9" y="5" width="1" height="1" fill="#a4a5a9"/>
  <rect x="10" y="5" width="1" height="1" fill="#9c9da184"/>
  <rect x="11" y="5" width="1" height="1" fill="#aaabaf15"/>
  <rect x="12" y="5" width="1" height="1" fill="#afb1b5d3"/>
  <rect x="13" y="5" width="2" height="1" fill="#afb1b5"/>
  <rect x="15" y="5" width="1" height="1" fill="#b1b2b6"/>
  <rect x="17" y="5" width="1" height="1" fill="#a1a3a5f6"/>
  <rect x="8" y="6" width="1" height="1" fill="#a8aaae"/>
  <rect x="9" y="6" width="1" height="1" fill="#9c9da184"/>
  <rect x="10" y="6" width="1" height="1" fill="#a5a7ab15"/>
  <rect x="11" y="6" width="1" height="1" fill="#b8b9bdd3"/>
  <rect x="12" y="6" width="4" height="2" fill="#afb1b5"/>
  <rect x="16" y="6" width="1" height="1" fill="#a8aaac"/>
  <rect x="17" y="6" width="1" height="1" fill="#97999b9b"/>
  <rect x="8" y="7" width="1" height="1" fill="#95969a83"/>
  <rect x="9" y="7" width="1" height="1" fill="#aaabaf15"/>
  <rect x="10" y="7" width="1" height="1" fill="#b9babed1"/>
  <rect x="11" y="7" width="1" height="1" fill="#b8b9bd"/>
  <rect x="16" y="7" width="1" height="1" fill="#9a9c9eaa"/>
  <rect x="1" y="8" width="3" height="1" fill="#b1b2b6"/>
  <rect x="4" y="8" width="1" height="1" fill="#b2b3b7"/>
  <rect x="5" y="8" width="1" height="1" fill="#b3b5b9"/>
  <rect x="6" y="8" width="1" height="1" fill="#9c9da1"/>
  <rect x="7" y="8" width="1" height="1" fill="#9c9da183"/>
  <rect x="9" y="8" width="1" height="1" fill="#9a9ca0c6"/>
  <rect x="10" y="8" width="1" height="1" fill="#aeb0b4"/>
  <rect x="11" y="8" width="1" height="1" fill="#b3b5b9"/>
  <rect x="12" y="8" width="1" height="1" fill="#b2b3b7"/>
  <rect x="13" y="8" width="1" height="1" fill="#b3b5b9"/>
  <rect x="14" y="8" width="1" height="1" fill="#a8aaae"/>
  <rect x="15" y="8" width="1" height="1" fill="#97999dab"/>
  <rect x="1" y="9" width="4" height="1" fill="#b1b2b6"/>
  <rect x="5" y="9" width="1" height="1" fill="#b4b6ba"/>
  <rect x="6" y="9" width="1" height="1" fill="#a1a3a782"/>
  <rect x="8" y="9" width="1" height="1" fill="#adafb325"/>
  <rect x="9" y="9" width="1" height="1" fill="#9d9ea23f"/>
  <rect x="10" y="9" width="1" height="1" fill="#929498f2"/>
  <rect x="11" y="9" width="1" height="1" fill="#b2b3b7"/>
  <rect x="12" y="9" width="1" height="1" fill="#b3b5b9"/>
  <rect x="13" y="9" width="1" height="1" fill="#a5a7ab"/>
  <rect x="14" y="9" width="1" height="1" fill="#9ea0a4ab"/>
  <rect x="1" y="10" width="3" height="2" fill="#b1b2b6"/>
  <rect x="4" y="10" width="1" height="1" fill="#afb1b5"/>
  <rect x="5" y="10" width="1" height="1" fill="#b6b8bc"/>
  <rect x="7" y="10" width="1" height="1" fill="#afb1b5a8"/>
  <rect x="8" y="10" width="1" height="1" fill="#acaeb2ea"/>
  <rect x="9" y="10" width="1" height="1" fill="#b3b5b92c"/>
  <rect x="10" y="10" width="1" height="1" fill="#9a9ca038"/>
  <rect x="11" y="10" width="1" height="1" fill="#989a9eef"/>
  <rect x="12" y="10" width="1" height="1" fill="#a8aaae"/>
  <rect x="13" y="10" width="1" height="1" fill="#9ea0a4ab"/>
  <rect x="4" y="11" width="1" height="1" fill="#aeb0b4"/>
  <rect x="5" y="11" width="1" height="1" fill="#b9babe"/>
  <rect x="7" y="11" width="1" height="1" fill="#b8b9bdee"/>
  <rect x="8" y="11" width="1" height="2" fill="#b1b2b6"/>
  <rect x="9" y="11" width="1" height="1" fill="#b1b2b6e9"/>
  <rect x="10" y="11" width="1" height="1" fill="#b6b8bc2a"/>
  <rect x="11" y="11" width="1" height="1" fill="#999b9f32"/>
  <rect x="12" y="11" width="1" height="1" fill="#97999d9a"/>
  <rect x="1" y="12" width="1" height="1" fill="#b3b5b9"/>
  <rect x="2" y="12" width="1" height="1" fill="#abacb0"/>
  <rect x="3" y="12" width="1" height="1" fill="#aeb0b4"/>
  <rect x="4" y="12" width="2" height="1" fill="#afb1b5"/>
  <rect x="7" y="12" width="1" height="1" fill="#afb1b5f0"/>
  <rect x="9" y="12" width="1" height="1" fill="#b2b3b7"/>
  <rect x="10" y="12" width="1" height="1" fill="#a7a9ade8"/>
  <rect x="11" y="12" width="1" height="1" fill="#96979b26"/>
  <rect x="13" y="12" width="1" height="1" fill="#adafb3a4"/>
  <rect x="1" y="13" width="2" height="1" fill="#b2b3b7"/>
  <rect x="3" y="13" width="1" height="1" fill="#b4b6ba"/>
  <rect x="4" y="13" width="1" height="1" fill="#b2b3b7"/>
  <rect x="5" y="13" width="1" height="1" fill="#acaeb2"/>
  <rect x="7" y="13" width="1" height="1" fill="#9c9da1fa"/>
  <rect x="8" y="13" width="1" height="1" fill="#9ea0a4"/>
  <rect x="9" y="13" width="1" height="1" fill="#97999d"/>
  <rect x="10" y="13" width="1" height="1" fill="#999b9fcc"/>
  <rect x="11" y="13" width="1" height="1" fill="#a4a5a910"/>
  <rect x="12" y="13" width="1" height="1" fill="#b6b8bc94"/>
  <rect x="13" y="13" width="1" height="1" fill="#afb1b5"/>
  <rect x="1" y="14" width="1" height="1" fill="#aaabafe6"/>
  <rect x="2" y="14" width="1" height="1" fill="#afb1b5"/>
  <rect x="3" y="14" width="1" height="1" fill="#b1b2b6"/>
  <rect x="4" y="14" width="1" height="1" fill="#b4b6ba"/>
  <rect x="5" y="14" width="1" height="1" fill="#b2b3b7"/>
  <rect x="11" y="14" width="1" height="1" fill="#b1b2b683"/>
  <rect x="12" y="14" width="1" height="1" fill="#b1b2b6"/>
  <rect x="13" y="14" width="1" height="1" fill="#a5a7abed"/>
  <rect x="1" y="15" width="1" height="1" fill="#97999d4a"/>
  <rect x="2" y="15" width="1" height="1" fill="#999b9fe7"/>
  <rect x="3" y="15" width="1" height="1" fill="#9ea0a4"/>
  <rect x="4" y="15" width="4" height="1" fill="#9c9da1"/>
  <rect x="8" y="15" width="1" height="1" fill="#919397"/>
  <rect x="9" y="15" width="1" height="1" fill="#9c9da1"/>
  <rect x="10" y="15" width="1" height="1" fill="#9d9ea2"/>
  <rect x="11" y="15" width="1" height="1" fill="#95969a"/>
  <rect x="12" y="15" width="1" height="1" fill="#9c9da1ea"/>
  <rect x="13" y="15" width="1" height="1" fill="#989a9e50"/>
</svg>