<svg xmlns="http://www.w3.org/2000/svg" width="20" height="16" viewBox="0 0 20 16" shape-rendering="crispEdges">
  <rect x="7" y="0" width="1" height="1" fill="#adafb337"/>
  <rect x="8" y="0" width="1" height="1" fill="#aeb0b4bf"/>
  <rect x="9" y="0" width="1" height="1" fill="#aeb0b4f3"/>
  <rect x="10" y="0" width="1" height="1" fill="#afb1b5c9"/>
  <rect x="11" y="0" width="1" height="1" fill="#afb1b53f"/>
  <rect x="6" y="1" width="1" height="1" fill="#adafb31a"/>
  <rect x="7" y="1" width="1" height="1" fill="#adafb3f0"/>
  <rect x="8" y="1" width="2" height="1" fill="#aeb0b4"/>
  <rect x="10" y="1" width="1" height="1" fill="#afb1b5"/>
  <rect x="11" y="1" width="1" height="1" fill="#afb1b5f3"/>
  <rect x="12" y="1" width="1" height="1" fill="#a8aaae1e"/>
  <rect x="6" y="2" width="1" height="1" fill="#adafb37b"/>
  <rect x="7" y="2" width="1" height="4" fill="#aeb0b4"/>
  <rect x="8" y="2" width="2" height="2" fill="#afb1b5"/>
  <rect x="10" y="2" width="2" height="2" fill="#b1b2b6"/>
  <rect x="12" y="2" width="1" height="1" fill="#a8aaae80"/>
  <rect x="6" y="3" width="1" height="1" fill="#adafb3a4"/>
  <rect x="12" y="3" width="1" height="1" fill="#a8aaaea9"/>
  <rect x="6" y="4" width="1" height="1" fill="#9ea0a49f"/>
  <rect x="8" y="4" width="2" height="1" fill="#b1b2b6"/>
  <rect x="10" y="4" width="2" height="1" fill="#b2b3b7"/>
  <rect x="12" y="4" width="1" height="1" fill="#a4a5a9a3"/>
  <rect x="6" y="5" width="1" height="1" fill="#9ea0a47f"/>
  <rect x="8" y="5" width="4" height="1" fill="#b2b3b7"/>
  <rect x="12" y="5" width="1" height="1" fill="#a3a4a87f"/>
  <rect x="6" y="6" width="1" height="1" fill="#9ea0a44c"/>
  <rect x="7" y="6" width="1" height="1" fill="#afb1b5"/>
  <rect x="8" y="6" width="4" height="1" fill="#b3b5b9"/>
  <rect x="12" y="6" width="1" height="1" fill="#a3a4a84c"/>
  <rect x="6" y="7" width="1" height="1" fill="#9ea0a416"/>
  <rect x="7" y="7" width="2" height="1" fill="#afb1b5"/>
  <rect x="9" y="7" width="3" height="1" fill="#b3b5b9"/>
  <rect x="12" y="7" width="1" height="1" fill="#e8eaee57"/>
  <rect x="13" y="7" width="1" height="1" fill="#ffffff4c"/>
  <rect x="14" y="7" width="1" height="1" fill="#f6f8fcb5"/>
  <rect x="15" y="7" width="1" height="1" fill="#fafcfeb5"/>
  <rect x="16" y="7" width="1" height="1" fill="#fdfdfd4c"/>
  <rect x="17" y="7" width="1" height="1" fill="#fefcfd45"/>
  <rect x="7" y="8" width="2" height="1" fill="#aeb0b4"/>
  <rect x="9" y="8" width="1" height="1" fill="#b5b7bb"/>
  <rect x="10" y="8" width="1" height="1" fill="#acaeb2"/>
  <rect x="11" y="8" width="1" height="1" fill="#ffffff"/>
  <rect x="12" y="8" width="1" height="1" fill="#e3e4e8"/>
  <rect x="13" y="8" width="1" height="1" fill="#ffffffc0"/>
  <rect x="14" y="8" width="1" height="1" fill="#c7c8cc"/>
  <rect x="15" y="8" width="1" height="1" fill="#cdced2"/>
  <rect x="16" y="8" width="1" height="1" fill="#f9fbfcc0"/>
  <rect x="17" y="8" width="1" height="1" fill="#e5e5e7"/>
  <rect x="18" y="8" width="1" height="1" fill="#fdfcff"/>
  <rect x="6" y="9" width="1" height="1" fill="#aeb0b41d"/>
  <rect x="7" y="9" width="1" height="2" fill="#aeb0b4"/>
  <rect x="8" y="9" width="1" height="1" fill="#b4b6ba"/>
  <rect x="9" y="9" width="1" height="1" fill="#b6b8bc"/>
  <rect x="10" y="9" width="1" height="1" fill="#c9cbcf"/>
  <rect x="11" y="9" width="1" height="1" fill="#d9dbdf"/>
  <rect x="12" y="9" width="1" height="1" fill="#acaeb2"/>
  <rect x="13" y="9" width="1" height="1" fill="#c1c2c6"/>
  <rect x="14" y="9" width="1" height="1" fill="#abacb0"/>
  <rect x="15" y="9" width="1" height="1" fill="#b2b3b7"/>
  <rect x="16" y="9" width="1" height="1" fill="#c4c6c8"/>
  <rect x="17" y="9" width="1" height="1" fill="#a8aaac"/>
  <rect x="18" y="9" width="1" height="1" fill="#dee0e2"/>
  <rect x="19" y="9" width="1" height="1" fill="#fafcfe47"/>
  <rect x="6" y="10" width="1" height="1" fill="#aeb0b48d"/>
  <rect x="8" y="10" width="1" height="1" fill="#acaeb2"/>
  <rect x="9" y="10" width="1" height="1" fill="#b3b5b9"/>
  <rect x="10" y="10" width="1" height="1" fill="#c8c9cd"/>
  <rect x="11" y="10" width="1" height="1" fill="#e5e7eb"/>
  <rect x="12" y="10" width="1" height="1" fill="#c6c7cb"/>
  <rect x="13" y="10" width="1" height="1" fill="#b1b2b6"/>
  <rect x="14" y="10" width="1" height="1" fill="#a1a3a7"/>
  <rect x="15" y="10" width="1" height="1" fill="#a0a2a6"/>
  <rect x="16" y="10" width="1" height="1" fill="#b1b3b4"/>
  <rect x="17" y="10" width="1" height="1" fill="#c8cacb"/>
  <rect x="18" y="10" width="1" height="1" fill="#f8fafbbb"/>
  <rect x="19" y="10" width="1" height="1" fill="#fcfeff52"/>
  <rect x="4" y="11" width="1" height="1" fill="#adafb30d"/>
  <rect x="5" y="11" width="1" height="1" fill="#adafb38b"/>
  <rect x="6" y="11" width="2" height="1" fill="#aeb0b4"/>
  <rect x="8" y="11" width="2" height="1" fill="#b4b6ba"/>
  <rect x="10" y="11" width="1" height="2" fill="#e5e7eb"/>
  <rect x="11" y="11" width="1" height="1" fill="#bfc0c4"/>
  <rect x="12" y="11" width="1" height="1" fill="#babbbf"/>
  <rect x="13" y="11" width="1" height="1" fill="#b4b6ba"/>
  <rect x="14" y="11" width="1" height="1" fill="#e4e5e9"/>
  <rect x="15" y="11" width="1" height="1" fill="#f5f7fb"/>
  <rect x="16" y="11" width="1" height="2" fill="#b5b7b9"/>
  <rect x="17" y="11" width="1" height="1" fill="#b9bbbc"/>
  <rect x="18" y="11" width="1" height="1" fill="#c3c5c7"/>
  <rect x="19" y="11" width="1" height="1" fill="#fcfeffbb"/>
  <rect x="2" y="12" width="1" height="1" fill="#b3b5b946"/>
  <rect x="3" y="12" width="1" height="1" fill="#b6b8bc99"/>
  <rect x="4" y="12" width="1" height="1" fill="#b8b9bdf0"/>
  <rect x="5" y="12" width="3" height="1" fill="#b6b8bc"/>
  <rect x="8" y="12" width="1" height="1" fill="#b3b5b9"/>
  <rect x="9" y="12" width="1" height="1" fill="#bbbdc1"/>
  <rect x="11" y="12" width="1" height="1" fill="#aeb0b4"/>
  <rect x="12" y="12" width="1" height="1" fill="#b4b6ba"/>
  <rect x="13" y="12" width="1" height="1" fill="#b8b9bd"/>
  <rect x="14" y="12" width="1" height="1" fill="#eff1f5"/>
  <rect x="15" y="12" width="1" height="1" fill="#f3f5f9"/>
  <rect x="17" y="12" width="2" height="1" fill="#b4b6b8"/>
  <rect x="19" y="12" width="1" height="1" fill="#fbfdffbb"/>
  <rect x="1" y="13" width="1" height="1" fill="#acaeb2d0"/>
  <rect x="2" y="13" width="1" height="1" fill="#aeb0b4"/>
  <rect x="3" y="13" width="6" height="1" fill="#afb1b5"/>
  <rect x="9" y="13" width="1" height="1" fill="#babbbf"/>
  <rect x="10" y="13" width="1" height="1" fill="#cbcdd1"/>
  <rect x="11" y="13" width="1" height="1" fill="#e3e4e8"/>
  <rect x="12" y="13" width="1" height="1" fill="#c8c9cd"/>
  <rect x="13" y="13" width="1" height="1" fill="#b3b5b9"/>
  <rect x="14" y="13" width="1" height="1" fill="#babbbf"/>
  <rect x="15" y="13" width="1" height="1" fill="#b9babe"/>
  <rect x="16" y="13" width="1" height="1" fill="#aaacad"/>
  <rect x="17" y="13" width="1" height="1" fill="#cbcdcf"/>
  <rect x="18" y="13" width="1" height="1" fill="#fbfdffbb"/>
  <rect x="19" y="13" width="1" height="1" fill="#fdffff52"/>
  <rect x="1" y="14" width="1" height="1" fill="#b5b7bb"/>
  <rect x="2" y="14" width="1" height="1" fill="#b3b5b9"/>
  <rect x="3" y="14" width="1" height="1" fill="#b1b2b6"/>
  <rect x="4" y="14" width="4" height="1" fill="#afb1b5"/>
  <rect x="8" y="14" width="1" height="1" fill="#b2b3b7"/>
  <rect x="9" y="14" width="1" height="1" fill="#b1b2b6"/>
  <rect x="10" y="14" width="1" height="1" fill="#c6c7cb"/>
  <rect x="11" y="14" width="1" height="1" fill="#dddee2"/>
  <rect x="12" y="14" width="1" height="1" fill="#9ea0a4"/>
  <rect x="13" y="14" width="1" height="1" fill="#b2b3b7"/>
  <rect x="14" y="14" width="1" height="1" fill="#aeb0b4"/>
  <rect x="15" y="14" width="1" height="1" fill="#adafb3"/>
  <rect x="16" y="14" width="1" height="1" fill="#b1b3b4"/>
  <rect x="17" y="14" width="1" height="1" fill="#9fa1a3"/>
  <rect x="18" y="14" width="1" height="1" fill="#dfe1e3"/>
  <rect x="19" y="14" width="1" height="1" fill="#f9fbfc47"/>
  <rect x="1" y="15" width="1" height="1" fill="#a3a4a8"/>
  <rect x="2" y="15" width="1" height="1" fill="#9c9da1"/>
  <rect x="3" y="15" width="1" height="1" fill="#989a9e"/>
  <rect x="4" y="15" width="4" height="1" fill="#97999d"/>
  <rect x="8" y="15" width="1" height="1" fill="#9c9da1"/>
  <rect x="9" y="15" width="1" height="1" fill="#9d9ea2"/>
  <rect x="10" y="15" width="1" height="1" fill="#9a9ca0"/>
  <rect x="11" y="15" width="1" height="1" fill="#ffffff"/>
  <rect x="12" y="15" width="1" height="1" fill="#e4e5e9"/>
  <rect x="13" y="15" width="1" height="1" fill="#e6e8ec"/>
  <rect x="14" y="15" width="1" height="1" fill="#abacb0"/>
  <rect x="15" y="15" width="1" height="1" fill="#b2b3b7"/>
  <rect x="16" y="15" width="1" height="1" fill="#e4e6e7"/>
  <rect x="17" y="15" width="1" height="1" fill="#e3e5e6"/>
  <rect x="18" y="15" width="1" height="1" fill="#fbfdff"/>
</svg>