<svg xmlns="http://www.w3.org/2000/svg" width="18" height="20" viewBox="0 0 18 20" shape-rendering="crispEdges">
  <rect x="0" y="0" width="1" height="1" fill="#ececec85"/>
  <rect x="1" y="0" width="7" height="1" fill="#ececec"/>
  <rect x="8" y="0" width="1" height="1" fill="#ecececb7"/>
  <rect x="1" y="1" width="1" height="1" fill="#ececec8d"/>
  <rect x="2" y="1" width="7" height="1" fill="#ececec"/>
  <rect x="9" y="1" width="1" height="1" fill="#ecececb3"/>
  <rect x="2" y="2" width="1" height="1" fill="#ececec91"/>
  <rect x="3" y="2" width="7" height="1" fill="#ececec"/>
  <rect x="10" y="2" width="1" height="1" fill="#ecececad"/>
  <rect x="3" y="3" width="1" height="1" fill="#ececec98"/>
  <rect x="4" y="3" width="7" height="1" fill="#ececec"/>
  <rect x="11" y="3" width="1" height="1" fill="#ecececa8"/>
  <rect x="4" y="4" width="1" height="1" fill="#ececec9d"/>
  <rect x="5" y="4" width="7" height="1" fill="#ececec"/>
  <rect x="12" y="4" width="1" height="1" fill="#ecececa1"/>
  <rect x="5" y="5" width="1" height="1" fill="#ecececa2"/>
  <rect x="6" y="5" width="7" height="1" fill="#ececec"/>
  <rect x="13" y="5" width="1" height="1" fill="#ececec9d"/>
  <rect x="6" y="6" width="1" height="1" fill="#ecececa9"/>
  <rect x="7" y="6" width="7" height="1" fill="#ececec"/>
  <rect x="14" y="6" width="1" height="1" fill="#ececec96"/>
  <rect x="7" y="7" width="1" height="1" fill="#ecececad"/>
  <rect x="8" y="7" width="7" height="1" fill="#ececec"/>
  <rect x="15" y="7" width="1" height="1" fill="#ececec90"/>
  <rect x="8" y="8" width="1" height="1" fill="#ecececb4"/>
  <rect x="9" y="8" width="7" height="1" fill="#ececec"/>
  <rect x="16" y="8" width="1" height="1" fill="#ececec8b"/>
  <rect x="9" y="9" width="1" height="1" fill="#ecececb8"/>
  <rect x="10" y="9" width="7" height="2" fill="#ececec"/>
  <rect x="17" y="9" width="1" height="1" fill="#ececec83"/>
  <rect x="9" y="10" width="1" height="1" fill="#ecececb7"/>
  <rect x="17" y="10" width="1" height="1" fill="#ececec84"/>
  <rect x="8" y="11" width="1" height="1" fill="#ecececb3"/>
  <rect x="9" y="11" width="7" height="1" fill="#ececec"/>
  <rect x="16" y="11" width="1" height="1" fill="#ececec8c"/>
  <rect x="7" y="12" width="1" height="1" fill="#ecececad"/>
  <rect x="8" y="12" width="7" height="1" fill="#ececec"/>
  <rect x="15" y="12" width="1" height="1" fill="#ececec90"/>
  <rect x="6" y="13" width="1" height="1" fill="#ecececa9"/>
  <rect x="7" y="13" width="7" height="1" fill="#ececec"/>
  <rect x="14" y="13" width="1" height="1" fill="#ececec97"/>
  <rect x="5" y="14" width="1" height="1" fill="#ecececa2"/>
  <rect x="6" y="14" width="7" height="1" fill="#ececec"/>
  <rect x="13" y="14" width="1" height="1" fill="#ececec9d"/>
  <rect x="4" y="15" width="1" height="1" fill="#ececec9d"/>
  <rect x="5" y="15" width="7" height="1" fill="#ececec"/>
  <rect x="12" y="15" width="1" height="1" fill="#ecececa2"/>
  <rect x="3" y="16" width="1" height="1" fill="#ececec98"/>
  <rect x="4" y="16" width="7" height="1" fill="#ececec"/>
  <rect x="11" y="16" width="1" height="1" fill="#ecececa9"/>
  <rect x="2" y="17" width="1" height="1" fill="#ececec91"/>
  <rect x="3" y="17" width="7" height="1" fill="#ececec"/>
  <rect x="10" y="17" width="1" height="1" fill="#ecececad"/>
  <rect x="1" y="18" width="1" height="1" fill="#ececec8d"/>
  <rect x="2" y="18" width="7" height="1" fill="#ececec"/>
  <rect x="9" y="18" width="1" height="1" fill="#ecececb3"/>
  <rect x="0" y="19" width="1" height="1" fill="#ececec85"/>
  <rect x="1" y="19" width="7" height="1" fill="#ececec"/>
  <rect x="8" y="19" width="1" height="1" fill="#ecececb7"/>
</svg>