<svg xmlns="http://www.w3.org/2000/svg" width="20" height="16" viewBox="0 0 20 16" shape-rendering="crispEdges">
  <rect x="9" y="0" width="1" height="1" fill="#afb1b58b"/>
  <rect x="8" y="1" width="1" height="1" fill="#abacb055"/>
  <rect x="9" y="1" width="1" height="1" fill="#aeb0b4"/>
  <rect x="10" y="1" width="1" height="1" fill="#a7a9ad55"/>
  <rect x="8" y="2" width="1" height="1" fill="#afb1b5dd"/>
  <rect x="9" y="2" width="1" height="1" fill="#adafb3"/>
  <rect x="10" y="2" width="1" height="1" fill="#b3b5b9dd"/>
  <rect x="7" y="3" width="1" height="1" fill="#aeb0b472"/>
  <rect x="8" y="3" width="1" height="2" fill="#b4b6ba"/>
  <rect x="9" y="3" width="1" height="1" fill="#aeb0b4"/>
  <rect x="10" y="3" width="1" height="1" fill="#bbbdc1"/>
  <rect x="11" y="3" width="1" height="1" fill="#b1b2b672"/>
  <rect x="6" y="4" width="1" height="1" fill="#afb1b513"/>
  <rect x="7" y="4" width="1" height="1" fill="#b1b2b6ee"/>
  <rect x="9" y="4" width="1" height="1" fill="#b1b2b6"/>
  <rect x="10" y="4" width="1" height="2" fill="#b3b5b9"/>
  <rect x="11" y="4" width="1" height="1" fill="#b2b3b7ee"/>
  <rect x="12" y="4" width="1" height="1" fill="#b3b5b913"/>
  <rect x="2" y="5" width="1" height="1" fill="#aaabaf2c"/>
  <rect x="3" y="5" width="1" height="1" fill="#aeb0b45c"/>
  <rect x="4" y="5" width="1" height="1" fill="#b2b3b78c"/>
  <rect x="5" y="5" width="1" height="1" fill="#b1b2b6bc"/>
  <rect x="6" y="5" width="1" height="1" fill="#b1b2b6ed"/>
  <rect x="7" y="5" width="1" height="1" fill="#b2b3b7"/>
  <rect x="8" y="5" width="1" height="1" fill="#b3b5b9"/>
  <rect x="9" y="5" width="1" height="1" fill="#b2b3b7"/>
  <rect x="11" y="5" width="1" height="1" fill="#b2b3b7"/>
  <rect x="12" y="5" width="1" height="1" fill="#b3b5b9ed"/>
  <rect x="13" y="5" width="1" height="1" fill="#b3b5b9bc"/>
  <rect x="14" y="5" width="1" height="1" fill="#b3b5b98c"/>
  <rect x="15" y="5" width="1" height="1" fill="#b3b5b95c"/>
  <rect x="16" y="5" width="1" height="1" fill="#b2b4b52c"/>
  <rect x="1" y="6" width="1" height="1" fill="#a0a2a698"/>
  <rect x="2" y="6" width="1" height="1" fill="#a0a2a6"/>
  <rect x="3" y="6" width="1" height="2" fill="#aeb0b4"/>
  <rect x="4" y="6" width="4" height="1" fill="#b2b3b7"/>
  <rect x="8" y="6" width="8" height="1" fill="#b3b5b9"/>
  <rect x="16" y="6" width="1" height="1" fill="#a6a8aa"/>
  <rect x="17" y="6" width="1" height="1" fill="#999b9d97"/>
  <rect x="2" y="7" width="1" height="1" fill="#999b9fab"/>
  <rect x="4" y="7" width="1" height="1" fill="#b2b3b7"/>
  <rect x="5" y="7" width="1" height="1" fill="#b1b2b6"/>
  <rect x="6" y="7" width="1" height="1" fill="#b2b3b7"/>
  <rect x="7" y="7" width="1" height="1" fill="#afb1b5"/>
  <rect x="8" y="7" width="5" height="1" fill="#b2b3b7"/>
  <rect x="13" y="7" width="1" height="1" fill="#b5b7bb"/>
  <rect x="14" y="7" width="2" height="1" fill="#b3b5b9"/>
  <rect x="16" y="7" width="1" height="1" fill="#989a9cab"/>
  <rect x="3" y="8" width="1" height="1" fill="#96979bb6"/>
  <rect x="4" y="8" width="1" height="1" fill="#a1a3a7"/>
  <rect x="5" y="8" width="1" height="1" fill="#afb1b5"/>
  <rect x="6" y="8" width="1" height="4" fill="#b3b5b9"/>
  <rect x="7" y="8" width="1" height="1" fill="#aeb0b4"/>
  <rect x="8" y="8" width="4" height="1" fill="#b2b3b7"/>
  <rect x="12" y="8" width="1" height="1" fill="#afb1b5"/>
  <rect x="13" y="8" width="1" height="1" fill="#b9babe"/>
  <rect x="14" y="8" width="1" height="1" fill="#a6a8ac"/>
  <rect x="15" y="8" width="1" height="1" fill="#9c9da1b6"/>
  <rect x="3" y="9" width="1" height="1" fill="#9c9da10a"/>
  <rect x="4" y="9" width="1" height="1" fill="#a1a3a7c0"/>
  <rect x="5" y="9" width="1" height="3" fill="#aeb0b4"/>
  <rect x="7" y="9" width="1" height="3" fill="#adafb3"/>
  <rect x="8" y="9" width="4" height="3" fill="#b1b2b6"/>
  <rect x="12" y="9" width="1" height="1" fill="#b2b3b7"/>
  <rect x="13" y="9" width="1" height="1" fill="#b8b9bd"/>
  <rect x="14" y="9" width="1" height="1" fill="#a3a4a8c0"/>
  <rect x="15" y="9" width="1" height="1" fill="#a1a0a50a"/>
  <rect x="4" y="10" width="1" height="1" fill="#a1a3a71d"/>
  <rect x="12" y="10" width="1" height="1" fill="#b6b8bc"/>
  <rect x="13" y="10" width="1" height="1" fill="#b3b5b9"/>
  <rect x="14" y="10" width="1" height="1" fill="#9d9ea21d"/>
  <rect x="4" y="11" width="1" height="1" fill="#a1a3a72f"/>
  <rect x="12" y="11" width="1" height="1" fill="#babbbf"/>
  <rect x="13" y="11" width="1" height="1" fill="#b1b2b6"/>
  <rect x="14" y="11" width="1" height="1" fill="#999b9f2f"/>
  <rect x="4" y="12" width="1" height="1" fill="#a4a5a94f"/>
  <rect x="5" y="12" width="1" height="1" fill="#b3b5b9"/>
  <rect x="6" y="12" width="1" height="1" fill="#b8b9bd"/>
  <rect x="7" y="12" width="4" height="1" fill="#afb1b5"/>
  <rect x="11" y="12" width="1" height="1" fill="#b2b3b7"/>
  <rect x="12" y="12" width="1" height="1" fill="#b3b5b9"/>
  <rect x="13" y="12" width="1" height="1" fill="#afb1b5"/>
  <rect x="14" y="12" width="1" height="1" fill="#aaabaf4f"/>
  <rect x="4" y="13" width="1" height="1" fill="#abacb06f"/>
  <rect x="5" y="13" width="1" height="1" fill="#adafb3"/>
  <rect x="6" y="13" width="1" height="1" fill="#a8aaae"/>
  <rect x="7" y="13" width="1" height="1" fill="#a1a3a7"/>
  <rect x="8" y="13" width="1" height="1" fill="#9fa1a5f4"/>
  <rect x="9" y="13" width="1" height="1" fill="#a0a2a6ac"/>
  <rect x="10" y="13" width="1" height="1" fill="#a0a2a6f4"/>
  <rect x="11" y="13" width="1" height="1" fill="#a0a2a6"/>
  <rect x="12" y="13" width="1" height="1" fill="#adafb3"/>
  <rect x="13" y="13" width="1" height="1" fill="#abacb0"/>
  <rect x="14" y="13" width="1" height="1" fill="#a8aaae6f"/>
  <rect x="4" y="14" width="1" height="1" fill="#a6a8ac90"/>
  <rect x="5" y="14" width="1" height="1" fill="#9fa1a5"/>
  <rect x="6" y="14" width="1" height="1" fill="#9a9ca0ea"/>
  <rect x="7" y="14" width="1" height="1" fill="#9c9da17d"/>
  <rect x="8" y="14" width="1" height="1" fill="#9c9da112"/>
  <rect x="10" y="14" width="1" height="1" fill="#9c9da112"/>
  <rect x="11" y="14" width="1" height="1" fill="#9d9ea27d"/>
  <rect x="12" y="14" width="1" height="1" fill="#a0a2a6ea"/>
  <rect x="13" y="14" width="1" height="1" fill="#a4a5a9"/>
  <rect x="14" y="14" width="1" height="1" fill="#a6a8ac90"/>
  <rect x="4" y="15" width="1" height="1" fill="#989a9e8e"/>
  <rect x="5" y="15" width="1" height="1" fill="#8f90946b"/>
  <rect x="6" y="15" width="1" height="1" fill="#95969a0a"/>
  <rect x="12" y="15" width="1" height="1" fill="#9d9ea20a"/>
  <rect x="13" y="15" width="1" height="1" fill="#9ea0a46b"/>
  <rect x="14" y="15" width="1" height="1" fill="#a5a7ab8f"/>
</svg>