<svg xmlns="http://www.w3.org/2000/svg" width="20" height="16" viewBox="0 0 20 16" shape-rendering="crispEdges">
  <rect x="7" y="0" width="1" height="1" fill="#b5b7bb5d"/>
  <rect x="8" y="0" width="1" height="1" fill="#b3b5b9b2"/>
  <rect x="9" y="0" width="1" height="1" fill="#b3b5b9e3"/>
  <rect x="10" y="0" width="1" height="1" fill="#b3b5b9f5"/>
  <rect x="11" y="0" width="1" height="1" fill="#b3b5b9e3"/>
  <rect x="12" y="0" width="1" height="1" fill="#aeb0b4ba"/>
  <rect x="13" y="0" width="1" height="1" fill="#b6b8bc6d"/>
  <rect x="14" y="0" width="1" height="1" fill="#afb1b50c"/>
  <rect x="5" y="1" width="1" height="1" fill="#b1b2b62c"/>
  <rect x="6" y="1" width="1" height="1" fill="#aeb0b4d4"/>
  <rect x="7" y="1" width="1" height="1" fill="#a4a5a9"/>
  <rect x="8" y="1" width="4" height="1" fill="#9d9ea2"/>
  <rect x="12" y="1" width="1" height="1" fill="#9ea0a4"/>
  <rect x="13" y="1" width="1" height="1" fill="#a8aaae"/>
  <rect x="14" y="1" width="1" height="1" fill="#afb1b5e6"/>
  <rect x="15" y="1" width="1" height="1" fill="#afb1b548"/>
  <rect x="4" y="2" width="1" height="1" fill="#abacb02d"/>
  <rect x="5" y="2" width="1" height="1" fill="#aeb0b4ef"/>
  <rect x="6" y="2" width="1" height="1" fill="#a7a9ad"/>
  <rect x="7" y="2" width="1" height="1" fill="#999b9fd6"/>
  <rect x="8" y="2" width="1" height="1" fill="#989a9e5d"/>
  <rect x="9" y="2" width="1" height="1" fill="#989a9e17"/>
  <rect x="11" y="2" width="1" height="1" fill="#989a9e14"/>
  <rect x="12" y="2" width="1" height="1" fill="#989a9e59"/>
  <rect x="13" y="2" width="1" height="1" fill="#9c9da1d2"/>
  <rect x="14" y="2" width="1" height="1" fill="#a8aaae"/>
  <rect x="15" y="2" width="1" height="1" fill="#b6b8bcfa"/>
  <rect x="16" y="2" width="1" height="1" fill="#aeb0b244"/>
  <rect x="4" y="3" width="1" height="1" fill="#b5b7bbd6"/>
  <rect x="5" y="3" width="1" height="1" fill="#a4a5a9"/>
  <rect x="6" y="3" width="1" height="1" fill="#999b9fa9"/>
  <rect x="14" y="3" width="1" height="1" fill="#9ea0a4a7"/>
  <rect x="15" y="3" width="1" height="1" fill="#afb1b5"/>
  <rect x="16" y="3" width="1" height="1" fill="#aeb0b2e7"/>
  <rect x="17" y="3" width="1" height="1" fill="#aeb0b20c"/>
  <rect x="3" y="4" width="1" height="1" fill="#a7a9ad62"/>
  <rect x="4" y="4" width="1" height="1" fill="#b8b9bd"/>
  <rect x="5" y="4" width="1" height="1" fill="#97999dda"/>
  <rect x="8" y="4" width="1" height="1" fill="#aeb0b40e"/>
  <rect x="9" y="4" width="1" height="1" fill="#aeb0b47c"/>
  <rect x="10" y="4" width="1" height="1" fill="#aeb0b4aa"/>
  <rect x="11" y="4" width="1" height="1" fill="#afb1b583"/>
  <rect x="12" y="4" width="1" height="1" fill="#acaeb212"/>
  <rect x="15" y="4" width="1" height="1" fill="#a3a4a8d3"/>
  <rect x="16" y="4" width="1" height="4" fill="#b1b3b4"/>
  <rect x="17" y="4" width="1" height="1" fill="#afb1b372"/>
  <rect x="3" y="5" width="1" height="1" fill="#a7a9adbd"/>
  <rect x="4" y="5" width="1" height="1" fill="#b4b6ba"/>
  <rect x="5" y="5" width="1" height="1" fill="#9a9ca068"/>
  <rect x="8" y="5" width="1" height="1" fill="#aeb0b4c7"/>
  <rect x="9" y="5" width="3" height="1" fill="#aeb0b4"/>
  <rect x="12" y="5" width="1" height="1" fill="#afb1b5d2"/>
  <rect x="15" y="5" width="1" height="1" fill="#a1a3a75f"/>
  <rect x="17" y="5" width="1" height="1" fill="#afb1b3c2"/>
  <rect x="3" y="6" width="1" height="1" fill="#a8aaacf2"/>
  <rect x="4" y="6" width="1" height="1" fill="#afb1b3"/>
  <rect x="5" y="6" width="1" height="1" fill="#9fa1a32c"/>
  <rect x="7" y="6" width="1" height="1" fill="#9fa1a33c"/>
  <rect x="8" y="6" width="4" height="2" fill="#aeb0b4"/>
  <rect x="12" y="6" width="1" height="1" fill="#b2b3b7"/>
  <rect x="13" y="6" width="1" height="1" fill="#989a9e4c"/>
  <rect x="15" y="6" width="1" height="1" fill="#9fa1a526"/>
  <rect x="17" y="6" width="1" height="1" fill="#afb1b3f0"/>
  <rect x="3" y="7" width="1" height="1" fill="#a6a8aaf8"/>
  <rect x="4" y="7" width="1" height="1" fill="#acaeb0"/>
  <rect x="5" y="7" width="1" height="1" fill="#a3a5a62c"/>
  <rect x="7" y="7" width="1" height="1" fill="#9c9e9f38"/>
  <rect x="12" y="7" width="1" height="1" fill="#b3b5b9"/>
  <rect x="13" y="7" width="1" height="1" fill="#93959949"/>
  <rect x="15" y="7" width="1" height="1" fill="#9d9ea226"/>
  <rect x="17" y="7" width="1" height="1" fill="#b1b1b3f6"/>
  <rect x="3" y="8" width="1" height="1" fill="#a5a7a7d2"/>
  <rect x="4" y="8" width="1" height="2" fill="#b1b3b4"/>
  <rect x="5" y="8" width="1" height="1" fill="#b1b3b466"/>
  <rect x="8" y="8" width="1" height="1" fill="#a3a5a6b4"/>
  <rect x="9" y="8" width="2" height="1" fill="#a3a5a6"/>
  <rect x="11" y="8" width="1" height="1" fill="#a0a2a4"/>
  <rect x="12" y="8" width="1" height="1" fill="#9d9ea2c6"/>
  <rect x="15" y="8" width="1" height="1" fill="#abacb05e"/>
  <rect x="16" y="8" width="1" height="1" fill="#b1b1b3"/>
  <rect x="17" y="8" width="1" height="1" fill="#a5a2a5cf"/>
  <rect x="3" y="9" width="1" height="1" fill="#a4a6a57e"/>
  <rect x="5" y="9" width="1" height="1" fill="#b6b8bad7"/>
  <rect x="9" y="9" width="1" height="1" fill="#95979866"/>
  <rect x="10" y="9" width="1" height="1" fill="#95979898"/>
  <rect x="11" y="9" width="1" height="1" fill="#9597986c"/>
  <rect x="12" y="9" width="1" height="1" fill="#97999d0a"/>
  <rect x="15" y="9" width="1" height="1" fill="#b7b6bbd1"/>
  <rect x="16" y="9" width="1" height="1" fill="#b1afb2"/>
  <rect x="17" y="9" width="1" height="1" fill="#9a979b7a"/>
  <rect x="3" y="10" width="1" height="1" fill="#a4a6a511"/>
  <rect x="4" y="10" width="1" height="1" fill="#a4a6a5ea"/>
  <rect x="5" y="10" width="1" height="1" fill="#b1b3b2"/>
  <rect x="6" y="10" width="1" height="1" fill="#b6b9b8a9"/>
  <rect x="14" y="10" width="1" height="1" fill="#afb1b5a6"/>
  <rect x="15" y="10" width="1" height="1" fill="#b6b5ba"/>
  <rect x="16" y="10" width="1" height="1" fill="#a6a3a6e8"/>
  <rect x="17" y="10" width="1" height="1" fill="#9b989c0f"/>
  <rect x="4" y="11" width="1" height="1" fill="#92959450"/>
  <rect x="5" y="11" width="1" height="1" fill="#a4a6a5fe"/>
  <rect x="6" y="11" width="1" height="1" fill="#b1b3b2"/>
  <rect x="7" y="11" width="1" height="1" fill="#b1b3b2d4"/>
  <rect x="8" y="11" width="1" height="1" fill="#aaacad5b"/>
  <rect x="9" y="11" width="1" height="1" fill="#aaacad13"/>
  <rect x="11" y="11" width="1" height="1" fill="#aaacad13"/>
  <rect x="12" y="11" width="1" height="1" fill="#b6b8bc57"/>
  <rect x="13" y="11" width="1" height="1" fill="#b2b3b7d0"/>
  <rect x="14" y="11" width="1" height="1" fill="#acaeb2"/>
  <rect x="15" y="11" width="1" height="1" fill="#a9a8adfe"/>
  <rect x="16" y="11" width="1" height="1" fill="#9794974d"/>
  <rect x="5" y="12" width="1" height="1" fill="#9c9e9d71"/>
  <rect x="6" y="12" width="1" height="1" fill="#a0a3a2"/>
  <rect x="7" y="12" width="1" height="1" fill="#afb2b1"/>
  <rect x="8" y="12" width="2" height="1" fill="#b1b3b4"/>
  <rect x="10" y="12" width="1" height="1" fill="#b1b3b4fe"/>
  <rect x="11" y="12" width="1" height="1" fill="#b1b3b4"/>
  <rect x="12" y="12" width="1" height="1" fill="#a5a7ab"/>
  <rect x="13" y="12" width="1" height="1" fill="#aaabaf"/>
  <rect x="14" y="12" width="1" height="1" fill="#a4a5a9"/>
  <rect x="15" y="12" width="1" height="1" fill="#97979b6c"/>
  <rect x="6" y="13" width="1" height="1" fill="#9fa2a170"/>
  <rect x="7" y="13" width="1" height="1" fill="#a0a3a2fd"/>
  <rect x="8" y="13" width="4" height="1" fill="#b2b4b5"/>
  <rect x="12" y="13" width="1" height="1" fill="#aaabaf"/>
  <rect x="13" y="13" width="1" height="1" fill="#9ea0a4fa"/>
  <rect x="14" y="13" width="1" height="1" fill="#9c9da167"/>
  <rect x="7" y="14" width="1" height="1" fill="#a0a3a24e"/>
  <rect x="8" y="14" width="1" height="1" fill="#a4a6a7ee"/>
  <rect x="9" y="14" width="3" height="1" fill="#a8aaac"/>
  <rect x="12" y="14" width="1" height="1" fill="#a4a5a9ec"/>
  <rect x="13" y="14" width="1" height="1" fill="#9c9da141"/>
  <rect x="8" y="15" width="1" height="1" fill="#989a9c1b"/>
  <rect x="9" y="15" width="1" height="1" fill="#989a9ca9"/>
  <rect x="10" y="15" width="1" height="1" fill="#989a9cf3"/>
  <rect x="11" y="15" width="1" height="1" fill="#989a9ca5"/>
  <rect x="12" y="15" width="1" height="1" fill="#96979b19"/>
</svg>