<svg xmlns="http://www.w3.org/2000/svg" width="12" height="12" viewBox="0 0 12 12" shape-rendering="crispEdges">
  <rect x="0" y="0" width="1" height="1" fill="#adafb12c"/>
  <rect x="1" y="0" width="1" height="1" fill="#b2b4b58a"/>
  <rect x="2" y="0" width="1" height="1" fill="#b4b6b899"/>
  <rect x="3" y="0" width="1" height="1" fill="#b2b4b599"/>
  <rect x="4" y="0" width="1" height="1" fill="#aaacad99"/>
  <rect x="5" y="0" width="1" height="1" fill="#afb1b399"/>
  <rect x="6" y="0" width="1" height="1" fill="#b2b4b599"/>
  <rect x="7" y="0" width="1" height="1" fill="#afb1b399"/>
  <rect x="8" y="0" width="1" height="1" fill="#b1b3b499"/>
  <rect x="9" y="0" width="1" height="1" fill="#b4b6b899"/>
  <rect x="10" y="0" width="1" height="1" fill="#adafb18a"/>
  <rect x="11" y="0" width="1" height="1" fill="#b6b8ba2c"/>
  <rect x="0" y="1" width="1" height="1" fill="#b2b4b58a"/>
  <rect x="1" y="1" width="1" height="1" fill="#b9bbbc99"/>
  <rect x="2" y="1" width="1" height="1" fill="#adafb199"/>
  <rect x="3" y="1" width="1" height="1" fill="#95979899"/>
  <rect x="4" y="1" width="1" height="1" fill="#adafb199"/>
  <rect x="5" y="1" width="1" height="1" fill="#9c9e9f99"/>
  <rect x="6" y="1" width="2" height="1" fill="#90929499"/>
  <rect x="8" y="1" width="1" height="1" fill="#b4b6b899"/>
  <rect x="9" y="1" width="1" height="1" fill="#b1b3b499"/>
  <rect x="10" y="1" width="1" height="1" fill="#acaeb099"/>
  <rect x="11" y="1" width="1" height="1" fill="#adafb18a"/>
  <rect x="0" y="2" width="1" height="1" fill="#b8babb99"/>
  <rect x="1" y="2" width="1" height="2" fill="#b4b6b899"/>
  <rect x="2" y="2" width="1" height="2" fill="#b2b4b599"/>
  <rect x="4" y="2" width="1" height="1" fill="#b1b3b499"/>
  <rect x="8" y="2" width="1" height="1" fill="#95979899"/>
  <rect x="9" y="2" width="1" height="1" fill="#b6b8ba99"/>
  <rect x="10" y="2" width="1" height="1" fill="#b2b4b599"/>
  <rect x="11" y="2" width="1" height="1" fill="#b4b6b899"/>
  <rect x="0" y="3" width="1" height="1" fill="#abadae99"/>
  <rect x="4" y="3" width="1" height="2" fill="#b3b5b699"/>
  <rect x="6" y="3" width="1" height="1" fill="#adafb199"/>
  <rect x="7" y="3" width="1" height="1" fill="#afb1b399"/>
  <rect x="9" y="3" width="1" height="1" fill="#95979899"/>
  <rect x="10" y="3" width="1" height="1" fill="#b3b5b699"/>
  <rect x="11" y="3" width="1" height="1" fill="#b1b3b499"/>
  <rect x="0" y="4" width="1" height="1" fill="#b5b7b999"/>
  <rect x="1" y="4" width="1" height="1" fill="#b3b5b699"/>
  <rect x="2" y="4" width="1" height="1" fill="#b1b3b499"/>
  <rect x="6" y="4" width="2" height="1" fill="#b2b4b599"/>
  <rect x="8" y="4" width="1" height="1" fill="#b1b3b499"/>
  <rect x="10" y="4" width="1" height="1" fill="#b1b3b499"/>
  <rect x="11" y="4" width="1" height="1" fill="#b3b5b699"/>
  <rect x="0" y="5" width="1" height="1" fill="#b3b5b699"/>
  <rect x="1" y="5" width="1" height="1" fill="#b1b3b499"/>
  <rect x="2" y="5" width="1" height="1" fill="#b3b5b699"/>
  <rect x="4" y="5" width="1" height="3" fill="#b2b4b599"/>
  <rect x="6" y="5" width="3" height="1" fill="#b2b4b599"/>
  <rect x="10" y="5" width="1" height="1" fill="#afb1b399"/>
  <rect x="11" y="5" width="1" height="1" fill="#b1b3b499"/>
  <rect x="0" y="6" width="1" height="1" fill="#b1b3b499"/>
  <rect x="1" y="6" width="2" height="1" fill="#b3b5b699"/>
  <rect x="6" y="6" width="1" height="1" fill="#b2b4b599"/>
  <rect x="7" y="6" width="1" height="1" fill="#afb1b399"/>
  <rect x="8" y="6" width="1" height="1" fill="#aeb0b299"/>
  <rect x="10" y="6" width="1" height="1" fill="#b2b4b599"/>
  <rect x="11" y="6" width="1" height="1" fill="#afb1b399"/>
  <rect x="0" y="7" width="2" height="1" fill="#b3b5b699"/>
  <rect x="2" y="7" width="1" height="2" fill="#b2b4b599"/>
  <rect x="6" y="7" width="2" height="1" fill="#b2b4b599"/>
  <rect x="8" y="7" width="1" height="1" fill="#a3a5a699"/>
  <rect x="10" y="7" width="1" height="1" fill="#b3b5b699"/>
  <rect x="11" y="7" width="1" height="1" fill="#aeb0b299"/>
  <rect x="0" y="8" width="1" height="2" fill="#b1b3b499"/>
  <rect x="1" y="8" width="1" height="1" fill="#b5b7b999"/>
  <rect x="4" y="8" width="1" height="1" fill="#aaacad99"/>
  <rect x="6" y="8" width="1" height="1" fill="#9c9e9f99"/>
  <rect x="7" y="8" width="1" height="1" fill="#96989999"/>
  <rect x="9" y="8" width="1" height="1" fill="#b1b3b499"/>
  <rect x="10" y="8" width="1" height="1" fill="#b5b7b999"/>
  <rect x="11" y="8" width="1" height="1" fill="#b1b3b499"/>
  <rect x="1" y="9" width="1" height="1" fill="#b2b4b599"/>
  <rect x="2" y="9" width="1" height="1" fill="#acaeb099"/>
  <rect x="4" y="9" width="1" height="1" fill="#b1b3b499"/>
  <rect x="8" y="9" width="2" height="1" fill="#aeb0b299"/>
  <rect x="10" y="9" width="1" height="1" fill="#afb1b399"/>
  <rect x="11" y="9" width="1" height="1" fill="#adafb199"/>
  <rect x="0" y="10" width="1" height="1" fill="#a1a3a58a"/>
  <rect x="1" y="10" width="1" height="1" fill="#adafb199"/>
  <rect x="2" y="10" width="1" height="1" fill="#b4b6b899"/>
  <rect x="3" y="10" width="1" height="1" fill="#b2b4b599"/>
  <rect x="4" y="10" width="1" height="1" fill="#b5b7b999"/>
  <rect x="5" y="10" width="1" height="1" fill="#b4b6b899"/>
  <rect x="6" y="10" width="1" height="1" fill="#b2b4b599"/>
  <rect x="7" y="10" width="1" height="1" fill="#b1b3b499"/>
  <rect x="8" y="10" width="1" height="1" fill="#b9bbbc99"/>
  <rect x="9" y="10" width="1" height="1" fill="#afb1b399"/>
  <rect x="10" y="10" width="1" height="1" fill="#a4a6a799"/>
  <rect x="11" y="10" width="1" height="1" fill="#a0a2a48b"/>
  <rect x="0" y="11" width="1" height="1" fill="#9597982c"/>
  <rect x="1" y="11" width="1" height="1" fill="#9d9fa08b"/>
  <rect x="2" y="11" width="1" height="1" fill="#a0a2a499"/>
  <rect x="3" y="11" width="1" height="1" fill="#9c9e9f99"/>
  <rect x="4" y="11" width="2" height="1" fill="#95979899"/>
  <rect x="6" y="11" width="2" height="1" fill="#96989999"/>
  <rect x="8" y="11" width="1" height="1" fill="#95979899"/>
  <rect x="9" y="11" width="1" height="1" fill="#96989999"/>
  <rect x="10" y="11" width="1" height="1" fill="#97999b89"/>
  <rect x="11" y="11" width="1" height="1" fill="#989a9c2c"/>
</svg>