<svg xmlns="http://www.w3.org/2000/svg" width="32" height="16" viewBox="0 0 32 16" shape-rendering="crispEdges">
  <rect x="0" y="0" width="4" height="8" fill="#e4eaef"/>
  <rect x="4" y="0" width="4" height="6" fill="#e6e9ef"/>
  <rect x="8" y="0" width="4" height="6" fill="#e7e9ef"/>
  <rect x="12" y="0" width="4" height="5" fill="#e9e8ef"/>
  <rect x="16" y="0" width="1" height="5" fill="#d8dade"/>
  <rect x="17" y="0" width="7" height="5" fill="#d7dbde"/>
  <rect x="24" y="0" width="8" height="8" fill="#d8d9e0"/>
  <rect x="12" y="5" width="3" height="1" fill="#e9e8ef"/>
  <rect x="15" y="5" width="1" height="1" fill="#e7e9ef"/>
  <rect x="16" y="5" width="8" height="3" fill="#d7dbde"/>
  <rect x="4" y="6" width="7" height="1" fill="#e6e9ef"/>
  <rect x="11" y="6" width="5" height="1" fill="#e7e9ef"/>
  <rect x="4" y="7" width="8" height="1" fill="#e6e9ef"/>
  <rect x="12" y="7" width="4" height="1" fill="#e7e9ef"/>
  <rect x="0" y="8" width="8" height="2" fill="#e4eaef"/>
  <rect x="8" y="8" width="8" height="2" fill="#e6e9ef"/>
  <rect x="16" y="8" width="16" height="8" fill="#d8dade"/>
  <rect x="0" y="10" width="15" height="6" fill="#e4eaef"/>
  <rect x="15" y="10" width="1" height="6" fill="#e6e9ef"/>
</svg>