<svg xmlns="http://www.w3.org/2000/svg" width="16" height="16" viewBox="0 0 16 16" shape-rendering="crispEdges">
  <rect x="4" y="0" width="1" height="1" fill="#8f9da414"/>
  <rect x="5" y="0" width="1" height="1" fill="#8f9da47b"/>
  <rect x="6" y="0" width="1" height="1" fill="#8f9da4ca"/>
  <rect x="7" y="0" width="1" height="1" fill="#8f9da4eb"/>
  <rect x="8" y="0" width="1" height="1" fill="#8f9da4e8"/>
  <rect x="9" y="0" width="1" height="1" fill="#8f9da4cb"/>
  <rect x="10" y="0" width="1" height="1" fill="#8f9da483"/>
  <rect x="11" y="0" width="1" height="1" fill="#8f9da41e"/>
  <rect x="3" y="1" width="1" height="1" fill="#8f9da448"/>
  <rect x="4" y="1" width="1" height="1" fill="#8f9da4ee"/>
  <rect x="5" y="1" width="6" height="1" fill="#8f9da4"/>
  <rect x="11" y="1" width="1" height="1" fill="#8f9da4f6"/>
  <rect x="12" y="1" width="1" height="1" fill="#8f9da45b"/>
  <rect x="2" y="2" width="1" height="1" fill="#8f9da444"/>
  <rect x="3" y="2" width="1" height="1" fill="#8f9da4f9"/>
  <rect x="4" y="2" width="1" height="1" fill="#8f9da4"/>
  <rect x="5" y="2" width="1" height="1" fill="#8f9da4a9"/>
  <rect x="6" y="2" width="1" height="1" fill="#8f9da43b"/>
  <rect x="9" y="2" width="1" height="1" fill="#8f9da43c"/>
  <rect x="10" y="2" width="1" height="1" fill="#8f9da4ae"/>
  <rect x="11" y="2" width="1" height="1" fill="#8f9da4"/>
  <rect x="12" y="2" width="1" height="1" fill="#8f9da4fe"/>
  <rect x="13" y="2" width="1" height="1" fill="#8f9da458"/>
  <rect x="1" y="3" width="1" height="1" fill="#8f9da40d"/>
  <rect x="2" y="3" width="1" height="1" fill="#8f9da4e7"/>
  <rect x="3" y="3" width="1" height="1" fill="#8f9da4"/>
  <rect x="4" y="3" width="1" height="1" fill="#8f9da46f"/>
  <rect x="11" y="3" width="1" height="1" fill="#8f9da472"/>
  <rect x="12" y="3" width="1" height="1" fill="#8f9da4"/>
  <rect x="13" y="3" width="1" height="1" fill="#8f9da4ef"/>
  <rect x="14" y="3" width="1" height="1" fill="#8f9da410"/>
  <rect x="1" y="4" width="1" height="1" fill="#8f9da474"/>
  <rect x="2" y="4" width="1" height="2" fill="#8f9da4"/>
  <rect x="3" y="4" width="1" height="1" fill="#8f9da4a8"/>
  <rect x="6" y="4" width="1" height="1" fill="#8f9da435"/>
  <rect x="7" y="4" width="2" height="1" fill="#8f9da49e"/>
  <rect x="9" y="4" width="1" height="1" fill="#8f9da436"/>
  <rect x="12" y="4" width="1" height="1" fill="#8f9da4af"/>
  <rect x="13" y="4" width="1" height="6" fill="#8f9da4"/>
  <rect x="14" y="4" width="1" height="1" fill="#8f9da472"/>
  <rect x="1" y="5" width="1" height="1" fill="#8f9da4c7"/>
  <rect x="3" y="5" width="1" height="1" fill="#8f9da433"/>
  <rect x="5" y="5" width="1" height="1" fill="#8f9da434"/>
  <rect x="6" y="5" width="1" height="1" fill="#8f9da4f9"/>
  <rect x="7" y="5" width="2" height="1" fill="#8f9da4"/>
  <rect x="9" y="5" width="1" height="1" fill="#8f9da4f9"/>
  <rect x="10" y="5" width="1" height="1" fill="#8f9da435"/>
  <rect x="12" y="5" width="1" height="1" fill="#8f9da43d"/>
  <rect x="14" y="5" width="1" height="1" fill="#8f9da4c0"/>
  <rect x="1" y="6" width="1" height="1" fill="#8f9da4f7"/>
  <rect x="2" y="6" width="1" height="2" fill="#8f9da4fd"/>
  <rect x="5" y="6" width="1" height="1" fill="#8f9da494"/>
  <rect x="6" y="6" width="4" height="2" fill="#8f9da4"/>
  <rect x="10" y="6" width="1" height="1" fill="#8f9da497"/>
  <rect x="14" y="6" width="1" height="1" fill="#8f9da4e7"/>
  <rect x="1" y="7" width="1" height="1" fill="#8f9da4"/>
  <rect x="5" y="7" width="1" height="1" fill="#8f9da491"/>
  <rect x="10" y="7" width="1" height="1" fill="#8f9da492"/>
  <rect x="14" y="7" width="1" height="1" fill="#8f9da4ee"/>
  <rect x="1" y="8" width="1" height="1" fill="#8f9da4db"/>
  <rect x="2" y="8" width="1" height="2" fill="#8f9da4"/>
  <rect x="3" y="8" width="1" height="1" fill="#8f9da435"/>
  <rect x="5" y="8" width="1" height="1" fill="#8f9da427"/>
  <rect x="6" y="8" width="1" height="1" fill="#8f9da4f2"/>
  <rect x="7" y="8" width="2" height="1" fill="#8f9da4"/>
  <rect x="9" y="8" width="1" height="1" fill="#8f9da4f2"/>
  <rect x="10" y="8" width="1" height="1" fill="#8f9da428"/>
  <rect x="12" y="8" width="1" height="1" fill="#8f9da43e"/>
  <rect x="14" y="8" width="1" height="1" fill="#8f9da4cb"/>
  <rect x="1" y="9" width="1" height="1" fill="#8f9da483"/>
  <rect x="3" y="9" width="1" height="1" fill="#8f9da4a8"/>
  <rect x="6" y="9" width="1" height="1" fill="#8f9da41f"/>
  <rect x="7" y="9" width="1" height="1" fill="#8f9da485"/>
  <rect x="8" y="9" width="1" height="1" fill="#8f9da486"/>
  <rect x="9" y="9" width="1" height="1" fill="#8f9da421"/>
  <rect x="12" y="9" width="1" height="1" fill="#8f9da4af"/>
  <rect x="14" y="9" width="1" height="1" fill="#8f9da473"/>
  <rect x="1" y="10" width="1" height="1" fill="#8f9da41b"/>
  <rect x="2" y="10" width="1" height="1" fill="#8f9da4f3"/>
  <rect x="3" y="10" width="1" height="1" fill="#8f9da4"/>
  <rect x="4" y="10" width="1" height="1" fill="#8f9da470"/>
  <rect x="11" y="10" width="1" height="1" fill="#8f9da473"/>
  <rect x="12" y="10" width="1" height="1" fill="#8f9da4"/>
  <rect x="13" y="10" width="1" height="1" fill="#8f9da4eb"/>
  <rect x="14" y="10" width="1" height="1" fill="#8f9da410"/>
  <rect x="2" y="11" width="1" height="1" fill="#8f9da469"/>
  <rect x="3" y="11" width="2" height="1" fill="#8f9da4"/>
  <rect x="5" y="11" width="1" height="1" fill="#8f9da4aa"/>
  <rect x="6" y="11" width="1" height="1" fill="#8f9da43b"/>
  <rect x="9" y="11" width="1" height="1" fill="#8f9da43d"/>
  <rect x="10" y="11" width="1" height="1" fill="#8f9da4af"/>
  <rect x="11" y="11" width="2" height="1" fill="#8f9da4"/>
  <rect x="13" y="11" width="1" height="1" fill="#8f9da457"/>
  <rect x="3" y="12" width="1" height="1" fill="#8f9da4a4"/>
  <rect x="4" y="12" width="8" height="1" fill="#8f9da4"/>
  <rect x="12" y="12" width="1" height="1" fill="#8f9da487"/>
  <rect x="4" y="13" width="1" height="1" fill="#8f9da4a6"/>
  <rect x="5" y="13" width="6" height="1" fill="#8f9da4"/>
  <rect x="11" y="13" width="1" height="1" fill="#8f9da497"/>
  <rect x="5" y="14" width="1" height="1" fill="#8f9da48a"/>
  <rect x="6" y="14" width="1" height="1" fill="#8f9da4fe"/>
  <rect x="7" y="14" width="2" height="1" fill="#8f9da4"/>
  <rect x="9" y="14" width="1" height="1" fill="#8f9da4fd"/>
  <rect x="10" y="14" width="1" height="1" fill="#8f9da47a"/>
  <rect x="6" y="15" width="1" height="1" fill="#8f9da44c"/>
  <rect x="7" y="15" width="1" height="1" fill="#8f9da4d6"/>
  <rect x="8" y="15" width="1" height="1" fill="#8f9da4cd"/>
  <rect x="9" y="15" width="1" height="1" fill="#8f9da43e"/>
</svg>