<svg xmlns="http://www.w3.org/2000/svg" width="12" height="12" viewBox="0 0 12 12" shape-rendering="crispEdges">
  <rect x="0" y="0" width="1" height="1" fill="#afb1b32c"/>
  <rect x="1" y="0" width="1" height="1" fill="#afb1b38a"/>
  <rect x="2" y="0" width="2" height="1" fill="#afb1b399"/>
  <rect x="4" y="0" width="1" height="1" fill="#b1b3b499"/>
  <rect x="5" y="0" width="2" height="1" fill="#b4b6b899"/>
  <rect x="7" y="0" width="2" height="1" fill="#b3b5b699"/>
  <rect x="9" y="0" width="1" height="1" fill="#b2b4b599"/>
  <rect x="10" y="0" width="1" height="1" fill="#adafb18a"/>
  <rect x="11" y="0" width="1" height="1" fill="#abadae2c"/>
  <rect x="0" y="1" width="1" height="1" fill="#afb1b38a"/>
  <rect x="1" y="1" width="3" height="1" fill="#afb1b399"/>
  <rect x="4" y="1" width="1" height="1" fill="#a0a2a499"/>
  <rect x="5" y="1" width="2" height="1" fill="#97999b99"/>
  <rect x="7" y="1" width="1" height="1" fill="#a0a2a499"/>
  <rect x="8" y="1" width="1" height="1" fill="#b2b4b599"/>
  <rect x="9" y="1" width="1" height="1" fill="#b1b3b499"/>
  <rect x="10" y="1" width="1" height="1" fill="#aeb0b299"/>
  <rect x="11" y="1" width="1" height="1" fill="#aeb0b28a"/>
  <rect x="0" y="2" width="4" height="1" fill="#afb1b399"/>
  <rect x="4" y="2" width="1" height="1" fill="#93959753"/>
  <rect x="5" y="2" width="1" height="1" fill="#9d9fa00c"/>
  <rect x="6" y="2" width="1" height="1" fill="#9d9fa010"/>
  <rect x="7" y="2" width="1" height="1" fill="#93959753"/>
  <rect x="8" y="2" width="1" height="1" fill="#adafb199"/>
  <rect x="9" y="2" width="1" height="1" fill="#aeb0b299"/>
  <rect x="10" y="2" width="1" height="1" fill="#b1b3b499"/>
  <rect x="11" y="2" width="1" height="1" fill="#b2b4b599"/>
  <rect x="0" y="3" width="3" height="1" fill="#afb1b399"/>
  <rect x="3" y="3" width="1" height="1" fill="#afb1b372"/>
  <rect x="8" y="3" width="1" height="1" fill="#abadae73"/>
  <rect x="9" y="3" width="1" height="1" fill="#adafb199"/>
  <rect x="10" y="3" width="1" height="1" fill="#b2b4b599"/>
  <rect x="11" y="3" width="1" height="1" fill="#b4b6b899"/>
  <rect x="0" y="4" width="1" height="1" fill="#b4b6b899"/>
  <rect x="1" y="4" width="1" height="1" fill="#a6a8aa99"/>
  <rect x="2" y="4" width="1" height="1" fill="#b2b4b599"/>
  <rect x="3" y="4" width="1" height="1" fill="#aeb0b24b"/>
  <rect x="8" y="4" width="1" height="1" fill="#aaacad4a"/>
  <rect x="9" y="4" width="1" height="1" fill="#b5b7b999"/>
  <rect x="10" y="4" width="1" height="1" fill="#abadae99"/>
  <rect x="11" y="4" width="1" height="1" fill="#b6b8ba99"/>
  <rect x="0" y="5" width="1" height="1" fill="#afb1b399"/>
  <rect x="1" y="5" width="2" height="1" fill="#b1b3b499"/>
  <rect x="3" y="5" width="1" height="1" fill="#a3a5a670"/>
  <rect x="8" y="5" width="1" height="1" fill="#9d9fa06b"/>
  <rect x="9" y="5" width="1" height="1" fill="#b2b4b599"/>
  <rect x="10" y="5" width="1" height="1" fill="#b4b6b899"/>
  <rect x="11" y="5" width="1" height="1" fill="#b5b7b999"/>
  <rect x="0" y="6" width="1" height="1" fill="#b1b3b499"/>
  <rect x="1" y="6" width="1" height="1" fill="#b4b6b899"/>
  <rect x="2" y="6" width="1" height="1" fill="#a7a9ab98"/>
  <rect x="3" y="6" width="1" height="1" fill="#9fa1a352"/>
  <rect x="4" y="6" width="1" height="1" fill="#999b9d5d"/>
  <rect x="5" y="6" width="1" height="1" fill="#afb1b313"/>
  <rect x="6" y="6" width="1" height="1" fill="#afb1b311"/>
  <rect x="7" y="6" width="1" height="1" fill="#999b9d51"/>
  <rect x="8" y="6" width="1" height="1" fill="#9fa1a352"/>
  <rect x="9" y="6" width="1" height="1" fill="#a8aaac98"/>
  <rect x="10" y="6" width="1" height="1" fill="#b5b7b999"/>
  <rect x="11" y="6" width="1" height="1" fill="#b4b6b899"/>
  <rect x="0" y="7" width="1" height="1" fill="#b8babb99"/>
  <rect x="1" y="7" width="1" height="1" fill="#afb1b399"/>
  <rect x="2" y="7" width="1" height="1" fill="#9c9e9f56"/>
  <rect x="4" y="7" width="1" height="1" fill="#9a9c9e23"/>
  <rect x="5" y="7" width="2" height="1" fill="#97999b80"/>
  <rect x="7" y="7" width="1" height="1" fill="#9a9c9e21"/>
  <rect x="9" y="7" width="1" height="1" fill="#9a9c9e56"/>
  <rect x="10" y="7" width="1" height="1" fill="#abadae99"/>
  <rect x="11" y="7" width="1" height="1" fill="#b3b5b699"/>
  <rect x="0" y="8" width="2" height="1" fill="#b2b4b599"/>
  <rect x="2" y="8" width="1" height="1" fill="#a0a2a415"/>
  <rect x="9" y="8" width="1" height="1" fill="#9d9fa015"/>
  <rect x="10" y="8" width="1" height="1" fill="#aeb0b299"/>
  <rect x="11" y="8" width="1" height="1" fill="#b1b3b499"/>
  <rect x="0" y="9" width="1" height="1" fill="#adafb199"/>
  <rect x="1" y="9" width="1" height="1" fill="#b1b3b499"/>
  <rect x="10" y="9" width="1" height="1" fill="#b2b4b599"/>
  <rect x="11" y="9" width="1" height="1" fill="#adafb199"/>
  <rect x="0" y="10" width="1" height="1" fill="#999b9d8a"/>
  <rect x="1" y="10" width="1" height="1" fill="#b6b8ba99"/>
  <rect x="2" y="10" width="1" height="1" fill="#afb1b399"/>
  <rect x="3" y="10" width="1" height="1" fill="#b8babb99"/>
  <rect x="4" y="10" width="4" height="1" fill="#b2b4b599"/>
  <rect x="8" y="10" width="1" height="1" fill="#acaeb099"/>
  <rect x="9" y="10" width="1" height="1" fill="#b2b4b599"/>
  <rect x="10" y="10" width="1" height="1" fill="#a7a9ab99"/>
  <rect x="11" y="10" width="1" height="1" fill="#9fa1a38b"/>
  <rect x="0" y="11" width="1" height="1" fill="#989a9c2c"/>
  <rect x="1" y="11" width="1" height="1" fill="#9597988b"/>
  <rect x="2" y="11" width="1" height="1" fill="#93959799"/>
  <rect x="3" y="11" width="1" height="1" fill="#96989999"/>
  <rect x="4" y="11" width="1" height="1" fill="#989a9c99"/>
  <rect x="5" y="11" width="4" height="1" fill="#999b9d99"/>
  <rect x="9" y="11" width="1" height="1" fill="#9a9c9e99"/>
  <rect x="10" y="11" width="1" height="1" fill="#8e909189"/>
  <rect x="11" y="11" width="1" height="1" fill="#9698992c"/>
</svg>