<svg xmlns="http://www.w3.org/2000/svg" width="32" height="18" viewBox="0 0 32 18" shape-rendering="crispEdges">
  <rect x="5" y="0" width="1" height="1" fill="#90979725"/>
  <rect x="6" y="0" width="1" height="1" fill="#8e9595ad"/>
  <rect x="7" y="0" width="1" height="1" fill="#979e9ef1"/>
  <rect x="8" y="0" width="1" height="1" fill="#8f9696f1"/>
  <rect x="9" y="0" width="1" height="1" fill="#909797ad"/>
  <rect x="10" y="0" width="1" height="1" fill="#949b9b25"/>
  <rect x="4" y="1" width="1" height="1" fill="#8a919127"/>
  <rect x="5" y="1" width="1" height="1" fill="#919898f1"/>
  <rect x="6" y="1" width="1" height="1" fill="#a1a7a7"/>
  <rect x="7" y="1" width="1" height="1" fill="#b0b7b6"/>
  <rect x="8" y="1" width="1" height="1" fill="#a6adad"/>
  <rect x="9" y="1" width="1" height="1" fill="#9fa6a6"/>
  <rect x="10" y="1" width="1" height="1" fill="#9aa0a0f1"/>
  <rect x="11" y="1" width="1" height="1" fill="#979e9e27"/>
  <rect x="4" y="2" width="1" height="1" fill="#a1a7a7ba"/>
  <rect x="5" y="2" width="1" height="1" fill="#a5acac"/>
  <rect x="6" y="2" width="1" height="1" fill="#a9b0b0"/>
  <rect x="7" y="2" width="1" height="1" fill="#a6adad"/>
  <rect x="8" y="2" width="1" height="1" fill="#abb2b2"/>
  <rect x="9" y="2" width="1" height="1" fill="#a9b0b0"/>
  <rect x="10" y="2" width="1" height="1" fill="#a8aeae"/>
  <rect x="11" y="2" width="1" height="1" fill="#9ca3a3ba"/>
  <rect x="4" y="3" width="1" height="1" fill="#a3aaaafa"/>
  <rect x="5" y="3" width="1" height="1" fill="#afb5b5"/>
  <rect x="6" y="3" width="1" height="1" fill="#b1b8b8"/>
  <rect x="7" y="3" width="1" height="1" fill="#a9b0b0"/>
  <rect x="8" y="3" width="1" height="1" fill="#a5acac"/>
  <rect x="9" y="3" width="2" height="1" fill="#a6adad"/>
  <rect x="11" y="3" width="1" height="1" fill="#a4ababfb"/>
  <rect x="4" y="4" width="1" height="1" fill="#a9b0b0"/>
  <rect x="5" y="4" width="6" height="1" fill="#acb3b3"/>
  <rect x="11" y="4" width="1" height="1" fill="#aab1b1"/>
  <rect x="4" y="5" width="1" height="1" fill="#aab1b1"/>
  <rect x="5" y="5" width="7" height="1" fill="#acb3b3"/>
  <rect x="1" y="6" width="1" height="1" fill="#8e9595ca"/>
  <rect x="2" y="6" width="1" height="1" fill="#8e9595be"/>
  <rect x="4" y="6" width="8" height="2" fill="#acb3b3"/>
  <rect x="13" y="6" width="1" height="1" fill="#919596c8"/>
  <rect x="14" y="6" width="1" height="1" fill="#949999c2"/>
  <rect x="1" y="7" width="2" height="1" fill="#a3aaaa"/>
  <rect x="13" y="7" width="1" height="1" fill="#a4a9aa"/>
  <rect x="14" y="7" width="1" height="1" fill="#aaafb0fa"/>
  <rect x="1" y="8" width="1" height="1" fill="#b3baba"/>
  <rect x="2" y="8" width="1" height="1" fill="#aab1b1"/>
  <rect x="3" y="8" width="1" height="1" fill="#a9b0b01b"/>
  <rect x="4" y="8" width="1" height="1" fill="#c5cacafa"/>
  <rect x="5" y="8" width="1" height="1" fill="#a8acad"/>
  <rect x="6" y="8" width="1" height="1" fill="#b1b6b6"/>
  <rect x="7" y="8" width="1" height="1" fill="#b5b9ba"/>
  <rect x="8" y="8" width="2" height="1" fill="#abb0b1"/>
  <rect x="10" y="8" width="1" height="1" fill="#b6babb"/>
  <rect x="11" y="8" width="1" height="1" fill="#c5cacafb"/>
  <rect x="12" y="8" width="1" height="1" fill="#aaafb026"/>
  <rect x="13" y="8" width="1" height="1" fill="#b0b5b5"/>
  <rect x="14" y="8" width="1" height="1" fill="#b5b9bafc"/>
  <rect x="1" y="9" width="1" height="1" fill="#bdc3c3fa"/>
  <rect x="2" y="9" width="1" height="1" fill="#afb5b5"/>
  <rect x="3" y="9" width="1" height="1" fill="#a9b0b051"/>
  <rect x="4" y="9" width="1" height="1" fill="#e9eeeeba"/>
  <rect x="5" y="9" width="1" height="1" fill="#b6babb"/>
  <rect x="6" y="9" width="1" height="1" fill="#a4a9aa"/>
  <rect x="7" y="9" width="1" height="1" fill="#afb3b4"/>
  <rect x="8" y="9" width="1" height="1" fill="#a2a7a7"/>
  <rect x="9" y="9" width="1" height="1" fill="#a9aeae"/>
  <rect x="10" y="9" width="1" height="1" fill="#b2b7b8"/>
  <rect x="11" y="9" width="1" height="1" fill="#e8ecedba"/>
  <rect x="12" y="9" width="1" height="1" fill="#a8acad6d"/>
  <rect x="13" y="9" width="1" height="2" fill="#b1b6b6"/>
  <rect x="14" y="9" width="1" height="1" fill="#c2c6c7f5"/>
  <rect x="25" y="9" width="1" height="1" fill="#ea5e6289"/>
  <rect x="26" y="9" width="1" height="1" fill="#e55554c6"/>
  <rect x="27" y="9" width="1" height="1" fill="#f3645efc"/>
  <rect x="28" y="9" width="1" height="1" fill="#df5b51bf"/>
  <rect x="29" y="9" width="1" height="1" fill="#d1676082"/>
  <rect x="1" y="10" width="1" height="1" fill="#d0d7d7e4"/>
  <rect x="2" y="10" width="1" height="1" fill="#b1b8b8"/>
  <rect x="3" y="10" width="1" height="1" fill="#a1a7a7b2"/>
  <rect x="4" y="10" width="1" height="1" fill="#fdffff28"/>
  <rect x="5" y="10" width="1" height="1" fill="#e8ecedf1"/>
  <rect x="6" y="10" width="1" height="1" fill="#c3c7c8"/>
  <rect x="7" y="10" width="1" height="1" fill="#b4b8b9"/>
  <rect x="8" y="10" width="1" height="1" fill="#afb3b4"/>
  <rect x="9" y="10" width="1" height="1" fill="#c6cbcb"/>
  <rect x="10" y="10" width="1" height="1" fill="#f1f6f7f1"/>
  <rect x="11" y="10" width="1" height="1" fill="#eaeff02d"/>
  <rect x="12" y="10" width="1" height="1" fill="#a6aaabdb"/>
  <rect x="14" y="10" width="1" height="1" fill="#d3d7d8d7"/>
  <rect x="24" y="10" width="1" height="1" fill="#db635eba"/>
  <rect x="25" y="10" width="1" height="1" fill="#df625f"/>
  <rect x="26" y="10" width="1" height="1" fill="#dd6361"/>
  <rect x="27" y="10" width="1" height="1" fill="#d7605f"/>
  <rect x="28" y="10" width="1" height="1" fill="#d56360"/>
  <rect x="29" y="10" width="1" height="1" fill="#d66967"/>
  <rect x="30" y="10" width="1" height="1" fill="#d3646ab7"/>
  <rect x="1" y="11" width="1" height="1" fill="#dfe6e695"/>
  <rect x="2" y="11" width="1" height="1" fill="#adb4b4"/>
  <rect x="3" y="11" width="1" height="1" fill="#9ca3a3fe"/>
  <rect x="4" y="11" width="1" height="1" fill="#8d92926a"/>
  <rect x="5" y="11" width="1" height="1" fill="#e6eaeb2f"/>
  <rect x="6" y="11" width="1" height="1" fill="#ffffffad"/>
  <rect x="7" y="11" width="1" height="1" fill="#f6fafbf2"/>
  <rect x="8" y="11" width="1" height="1" fill="#f8fdfef2"/>
  <rect x="9" y="11" width="1" height="1" fill="#eef2f3b3"/>
  <rect x="10" y="11" width="1" height="1" fill="#bfc4c45f"/>
  <rect x="11" y="11" width="1" height="1" fill="#989c9dc2"/>
  <rect x="12" y="11" width="1" height="1" fill="#a3a8a9"/>
  <rect x="13" y="11" width="1" height="1" fill="#b2b7b8"/>
  <rect x="14" y="11" width="1" height="1" fill="#dfe3e47e"/>
  <rect x="23" y="11" width="1" height="1" fill="#de61608c"/>
  <rect x="24" y="11" width="1" height="1" fill="#d5625b"/>
  <rect x="25" y="11" width="1" height="1" fill="#e87a71"/>
  <rect x="26" y="11" width="1" height="1" fill="#ffaba6"/>
  <rect x="27" y="11" width="1" height="1" fill="#ffdcda"/>
  <rect x="28" y="11" width="1" height="1" fill="#ffc1c2"/>
  <rect x="29" y="11" width="1" height="1" fill="#de797b"/>
  <rect x="30" y="11" width="1" height="1" fill="#d65457"/>
  <rect x="31" y="11" width="1" height="1" fill="#e2525584"/>
  <rect x="1" y="12" width="1" height="1" fill="#ffffff22"/>
  <rect x="2" y="12" width="1" height="1" fill="#dfe3e4fb"/>
  <rect x="3" y="12" width="1" height="1" fill="#a7abac"/>
  <rect x="4" y="12" width="1" height="1" fill="#9fa3a4"/>
  <rect x="5" y="12" width="1" height="1" fill="#8d9292"/>
  <rect x="6" y="12" width="1" height="1" fill="#999d9ef3"/>
  <rect x="7" y="12" width="1" height="1" fill="#8b8f90"/>
  <rect x="8" y="12" width="1" height="1" fill="#939798"/>
  <rect x="9" y="12" width="1" height="1" fill="#949999"/>
  <rect x="10" y="12" width="1" height="1" fill="#9a9e9f"/>
  <rect x="11" y="12" width="1" height="1" fill="#9ea2a3"/>
  <rect x="12" y="12" width="1" height="1" fill="#aaafb0"/>
  <rect x="13" y="12" width="1" height="1" fill="#dbe0e0f6"/>
  <rect x="14" y="12" width="1" height="1" fill="#ffffff12"/>
  <rect x="23" y="12" width="1" height="1" fill="#df605ec9"/>
  <rect x="24" y="12" width="1" height="1" fill="#d06b64"/>
  <rect x="25" y="12" width="1" height="1" fill="#ffa89e"/>
  <rect x="26" y="12" width="1" height="1" fill="#d87669"/>
  <rect x="27" y="12" width="1" height="1" fill="#ffc3bd"/>
  <rect x="28" y="12" width="1" height="1" fill="#ffeaec"/>
  <rect x="29" y="12" width="1" height="1" fill="#ffd0d2"/>
  <rect x="30" y="12" width="1" height="1" fill="#d9645a"/>
  <rect x="31" y="12" width="1" height="1" fill="#ee6354c1"/>
  <rect x="2" y="13" width="1" height="1" fill="#fbffff61"/>
  <rect x="3" y="13" width="1" height="1" fill="#e2e7e7fd"/>
  <rect x="4" y="13" width="1" height="1" fill="#c2c6c7"/>
  <rect x="5" y="13" width="1" height="1" fill="#b4b8b9"/>
  <rect x="6" y="13" width="1" height="1" fill="#a7abac"/>
  <rect x="7" y="13" width="1" height="1" fill="#abb0b1"/>
  <rect x="8" y="13" width="1" height="1" fill="#aaafb0"/>
  <rect x="9" y="13" width="1" height="1" fill="#aeb2b3"/>
  <rect x="10" y="13" width="1" height="1" fill="#b5b9ba"/>
  <rect x="11" y="13" width="1" height="1" fill="#c5caca"/>
  <rect x="12" y="13" width="1" height="1" fill="#edf1f2fb"/>
  <rect x="13" y="13" width="1" height="1" fill="#feffff4e"/>
  <rect x="23" y="13" width="1" height="1" fill="#df615c"/>
  <rect x="24" y="13" width="1" height="1" fill="#d37069"/>
  <rect x="25" y="13" width="1" height="1" fill="#ffe1d9"/>
  <rect x="26" y="13" width="1" height="1" fill="#ffc7bb"/>
  <rect x="27" y="13" width="1" height="1" fill="#c67f74"/>
  <rect x="28" y="13" width="1" height="1" fill="#ffd2cf"/>
  <rect x="29" y="13" width="1" height="1" fill="#ffe1de"/>
  <rect x="30" y="13" width="1" height="1" fill="#d35a4e"/>
  <rect x="31" y="13" width="1" height="1" fill="#ec5d4bfc"/>
  <rect x="3" y="14" width="1" height="1" fill="#fbffff3a"/>
  <rect x="4" y="14" width="1" height="1" fill="#f9feffad"/>
  <rect x="5" y="14" width="1" height="1" fill="#ffffffe6"/>
  <rect x="6" y="14" width="1" height="1" fill="#ffffff"/>
  <rect x="7" y="14" width="1" height="1" fill="#afb3b4"/>
  <rect x="8" y="14" width="1" height="1" fill="#b2b7b8"/>
  <rect x="9" y="14" width="1" height="1" fill="#f7fcfcfa"/>
  <rect x="10" y="14" width="1" height="1" fill="#ffffffde"/>
  <rect x="11" y="14" width="1" height="1" fill="#feffffa3"/>
  <rect x="12" y="14" width="1" height="1" fill="#fcffff30"/>
  <rect x="23" y="14" width="1" height="1" fill="#e26058d4"/>
  <rect x="24" y="14" width="1" height="1" fill="#cd5e5b"/>
  <rect x="25" y="14" width="1" height="1" fill="#ffd3cf"/>
  <rect x="26" y="14" width="1" height="1" fill="#fff0e8"/>
  <rect x="27" y="14" width="1" height="1" fill="#ffd4c5"/>
  <rect x="28" y="14" width="1" height="1" fill="#c37a6a"/>
  <rect x="29" y="14" width="1" height="1" fill="#ffb2a5"/>
  <rect x="30" y="14" width="1" height="1" fill="#e75a55"/>
  <rect x="31" y="14" width="1" height="1" fill="#ee5150ce"/>
  <rect x="7" y="15" width="1" height="1" fill="#aaafb0"/>
  <rect x="8" y="15" width="1" height="1" fill="#aeb2b3"/>
  <rect x="23" y="15" width="1" height="1" fill="#d3666097"/>
  <rect x="24" y="15" width="1" height="1" fill="#da6966"/>
  <rect x="25" y="15" width="1" height="1" fill="#de7d79"/>
  <rect x="26" y="15" width="1" height="1" fill="#ffd5cb"/>
  <rect x="27" y="15" width="1" height="1" fill="#ffe4d6"/>
  <rect x="28" y="15" width="1" height="1" fill="#ffb39d"/>
  <rect x="29" y="15" width="1" height="1" fill="#f57b69"/>
  <rect x="30" y="15" width="1" height="1" fill="#eb5853"/>
  <rect x="31" y="15" width="1" height="1" fill="#f0505291"/>
  <rect x="7" y="16" width="1" height="1" fill="#fcffff"/>
  <rect x="8" y="16" width="1" height="1" fill="#fdffff"/>
  <rect x="24" y="16" width="1" height="1" fill="#d36660c1"/>
  <rect x="25" y="16" width="1" height="1" fill="#df6158"/>
  <rect x="26" y="16" width="2" height="1" fill="#d6665a"/>
  <rect x="28" y="16" width="1" height="1" fill="#de6353"/>
  <rect x="29" y="16" width="1" height="1" fill="#e65f51"/>
  <rect x="30" y="16" width="1" height="1" fill="#ea5c53c0"/>
  <rect x="25" y="17" width="1" height="1" fill="#e95e5198"/>
  <rect x="26" y="17" width="1" height="1" fill="#e95e51d5"/>
  <rect x="27" y="17" width="1" height="1" fill="#e95e51"/>
  <rect x="28" y="17" width="1" height="1" fill="#e95e51cf"/>
  <rect x="29" y="17" width="1" height="1" fill="#e95e5192"/>
</svg>