<svg xmlns="http://www.w3.org/2000/svg" width="48" height="12" viewBox="0 0 48 12" shape-rendering="crispEdges">
  <rect x="3" y="0" width="1" height="1" fill="#2fa9776e"/>
  <rect x="4" y="0" width="1" height="1" fill="#31bc84c7"/>
  <rect x="5" y="0" width="1" height="1" fill="#35c289f3"/>
  <rect x="6" y="0" width="1" height="1" fill="#3ec28af3"/>
  <rect x="7" y="0" width="1" height="1" fill="#2db37bc7"/>
  <rect x="8" y="0" width="1" height="1" fill="#26bb7d6e"/>
  <rect x="15" y="0" width="1" height="1" fill="#22bf7c6e"/>
  <rect x="16" y="0" width="1" height="1" fill="#2bbe7ec7"/>
  <rect x="17" y="0" width="1" height="1" fill="#35c385f3"/>
  <rect x="18" y="0" width="1" height="1" fill="#35c587f3"/>
  <rect x="19" y="0" width="1" height="1" fill="#25b677c7"/>
  <rect x="20" y="0" width="1" height="1" fill="#27ba7b6e"/>
  <rect x="27" y="0" width="1" height="1" fill="#f7aa476e"/>
  <rect x="28" y="0" width="1" height="1" fill="#ffb441c7"/>
  <rect x="29" y="0" width="1" height="1" fill="#f4ad3df3"/>
  <rect x="30" y="0" width="1" height="1" fill="#edb453f3"/>
  <rect x="31" y="0" width="1" height="1" fill="#ebb052c7"/>
  <rect x="32" y="0" width="1" height="1" fill="#faab446e"/>
  <rect x="1" y="1" width="1" height="1" fill="#1fba7d1b"/>
  <rect x="2" y="1" width="1" height="1" fill="#37bf88cf"/>
  <rect x="3" y="1" width="1" height="1" fill="#34b580"/>
  <rect x="4" y="1" width="2" height="1" fill="#36b984"/>
  <rect x="6" y="1" width="1" height="1" fill="#34b57e"/>
  <rect x="7" y="1" width="1" height="1" fill="#2eb57c"/>
  <rect x="8" y="1" width="1" height="1" fill="#2bbb7f"/>
  <rect x="9" y="1" width="1" height="1" fill="#2abc7fcf"/>
  <rect x="10" y="1" width="1" height="1" fill="#2dc0811b"/>
  <rect x="13" y="1" width="1" height="1" fill="#35c8891b"/>
  <rect x="14" y="1" width="1" height="1" fill="#2bc382cf"/>
  <rect x="15" y="1" width="1" height="1" fill="#2bbe7e"/>
  <rect x="16" y="1" width="1" height="1" fill="#33b87d"/>
  <rect x="17" y="1" width="1" height="1" fill="#36b87e"/>
  <rect x="18" y="1" width="1" height="1" fill="#2eb77b"/>
  <rect x="19" y="1" width="1" height="1" fill="#27b779"/>
  <rect x="20" y="1" width="1" height="1" fill="#27ba7b"/>
  <rect x="21" y="1" width="1" height="1" fill="#2fbf81cf"/>
  <rect x="22" y="1" width="1" height="1" fill="#3dc4891b"/>
  <rect x="25" y="1" width="1" height="1" fill="#ffb7471b"/>
  <rect x="26" y="1" width="1" height="1" fill="#feb046cf"/>
  <rect x="27" y="1" width="1" height="1" fill="#f7ad44"/>
  <rect x="28" y="1" width="1" height="1" fill="#f2aa3e"/>
  <rect x="29" y="1" width="1" height="1" fill="#fab74e"/>
  <rect x="30" y="1" width="1" height="1" fill="#ecae4f"/>
  <rect x="31" y="1" width="1" height="1" fill="#f3b050"/>
  <rect x="32" y="1" width="1" height="1" fill="#fbab40"/>
  <rect x="33" y="1" width="1" height="1" fill="#ffad38cf"/>
  <rect x="34" y="1" width="1" height="1" fill="#ffb33b1b"/>
  <rect x="1" y="2" width="1" height="1" fill="#2dc488cf"/>
  <rect x="2" y="2" width="1" height="1" fill="#26bd81"/>
  <rect x="3" y="2" width="1" height="1" fill="#29b77e"/>
  <rect x="4" y="2" width="1" height="1" fill="#38ad7d"/>
  <rect x="5" y="2" width="1" height="1" fill="#86f6c7"/>
  <rect x="6" y="2" width="1" height="1" fill="#35b47e"/>
  <rect x="7" y="2" width="1" height="1" fill="#3ac087"/>
  <rect x="8" y="2" width="1" height="1" fill="#38bc84"/>
  <rect x="9" y="2" width="1" height="1" fill="#2db179"/>
  <rect x="10" y="2" width="1" height="1" fill="#30b97dd0"/>
  <rect x="13" y="2" width="1" height="1" fill="#2ec182cf"/>
  <rect x="14" y="2" width="1" height="1" fill="#31bc80"/>
  <rect x="15" y="2" width="1" height="1" fill="#39b67e"/>
  <rect x="16" y="2" width="1" height="1" fill="#43a879"/>
  <rect x="17" y="2" width="1" height="1" fill="#8ef3c3"/>
  <rect x="18" y="2" width="1" height="1" fill="#36b37b"/>
  <rect x="19" y="2" width="1" height="1" fill="#35c385"/>
  <rect x="20" y="2" width="1" height="3" fill="#29be7e"/>
  <rect x="21" y="2" width="1" height="1" fill="#29c080"/>
  <rect x="22" y="2" width="1" height="1" fill="#2dc282d0"/>
  <rect x="25" y="2" width="1" height="1" fill="#ffae42cf"/>
  <rect x="26" y="2" width="1" height="1" fill="#ffae38"/>
  <rect x="27" y="2" width="1" height="1" fill="#f8af3f"/>
  <rect x="28" y="2" width="1" height="1" fill="#f5b95b"/>
  <rect x="29" y="2" width="1" height="1" fill="#ffd780"/>
  <rect x="30" y="2" width="1" height="1" fill="#edaa4c"/>
  <rect x="31" y="2" width="1" height="1" fill="#f8ad47"/>
  <rect x="32" y="2" width="1" height="1" fill="#fead37"/>
  <rect x="33" y="2" width="1" height="1" fill="#ffae32"/>
  <rect x="34" y="2" width="1" height="1" fill="#ffaf35d0"/>
  <rect x="0" y="3" width="1" height="1" fill="#22b0776d"/>
  <rect x="1" y="3" width="1" height="1" fill="#2db880"/>
  <rect x="2" y="3" width="1" height="1" fill="#30b37e"/>
  <rect x="3" y="3" width="1" height="1" fill="#3caf7f"/>
  <rect x="4" y="3" width="1" height="1" fill="#9cf2cc"/>
  <rect x="5" y="3" width="1" height="1" fill="#c6fff6"/>
  <rect x="6" y="3" width="1" height="1" fill="#40b683"/>
  <rect x="7" y="3" width="1" height="1" fill="#32b67e"/>
  <rect x="8" y="3" width="1" height="1" fill="#a3ffee"/>
  <rect x="9" y="3" width="1" height="1" fill="#38bc84"/>
  <rect x="10" y="3" width="1" height="1" fill="#30b97d"/>
  <rect x="11" y="3" width="1" height="1" fill="#2cba7c6d"/>
  <rect x="12" y="3" width="1" height="1" fill="#28bb7c6d"/>
  <rect x="13" y="3" width="1" height="1" fill="#30b97d"/>
  <rect x="14" y="3" width="1" height="1" fill="#43b17e"/>
  <rect x="15" y="3" width="1" height="1" fill="#52ab80"/>
  <rect x="16" y="3" width="1" height="1" fill="#a8ebc7"/>
  <rect x="17" y="3" width="1" height="1" fill="#cbfff1"/>
  <rect x="18" y="3" width="1" height="1" fill="#41b480"/>
  <rect x="19" y="3" width="1" height="1" fill="#2cb87b"/>
  <rect x="21" y="3" width="1" height="2" fill="#24c17e"/>
  <rect x="22" y="3" width="1" height="1" fill="#23c27e"/>
  <rect x="23" y="3" width="1" height="1" fill="#4caf626d"/>
  <rect x="24" y="3" width="1" height="1" fill="#d1b95b6d"/>
  <rect x="25" y="3" width="1" height="1" fill="#faab46"/>
  <rect x="26" y="3" width="1" height="1" fill="#f3af4b"/>
  <rect x="27" y="3" width="1" height="1" fill="#ebb358"/>
  <rect x="28" y="3" width="1" height="1" fill="#ffd795"/>
  <rect x="29" y="3" width="1" height="1" fill="#fffbba"/>
  <rect x="30" y="3" width="1" height="1" fill="#eeb158"/>
  <rect x="31" y="3" width="1" height="1" fill="#f1ac44"/>
  <rect x="32" y="3" width="1" height="1" fill="#f8af3f"/>
  <rect x="33" y="3" width="1" height="1" fill="#fbaf39"/>
  <rect x="34" y="3" width="1" height="1" fill="#fdac36"/>
  <rect x="35" y="3" width="1" height="1" fill="#edae566d"/>
  <rect x="0" y="4" width="1" height="1" fill="#2bbb81c7"/>
  <rect x="1" y="4" width="1" height="1" fill="#3ab280"/>
  <rect x="2" y="4" width="1" height="1" fill="#affbd9"/>
  <rect x="3" y="4" width="1" height="1" fill="#e2fff8"/>
  <rect x="4" y="4" width="1" height="1" fill="#dfffef"/>
  <rect x="5" y="4" width="1" height="1" fill="#e2fffd"/>
  <rect x="6" y="4" width="1" height="1" fill="#47aa7d"/>
  <rect x="7" y="4" width="1" height="1" fill="#aafff1"/>
  <rect x="8" y="4" width="1" height="1" fill="#2eb77d"/>
  <rect x="9" y="4" width="1" height="1" fill="#2fbf83"/>
  <rect x="10" y="4" width="1" height="1" fill="#31c283"/>
  <rect x="11" y="4" width="1" height="1" fill="#31c283c7"/>
  <rect x="12" y="4" width="1" height="1" fill="#2cbd7ec7"/>
  <rect x="13" y="4" width="1" height="1" fill="#3cb27c"/>
  <rect x="14" y="4" width="1" height="1" fill="#b6f9d5"/>
  <rect x="15" y="4" width="1" height="1" fill="#e9fff5"/>
  <rect x="16" y="4" width="1" height="1" fill="#eafff1"/>
  <rect x="17" y="4" width="1" height="1" fill="#dffff6"/>
  <rect x="18" y="4" width="1" height="1" fill="#44b17e"/>
  <rect x="19" y="4" width="1" height="1" fill="#30bb7e"/>
  <rect x="22" y="4" width="1" height="1" fill="#1ec27d"/>
  <rect x="23" y="4" width="1" height="1" fill="#49b462c7"/>
  <rect x="24" y="4" width="1" height="1" fill="#ccbb56c7"/>
  <rect x="25" y="4" width="1" height="1" fill="#fdbc60"/>
  <rect x="26" y="4" width="1" height="1" fill="#ffedb4"/>
  <rect x="27" y="4" width="1" height="1" fill="#ffffdd"/>
  <rect x="28" y="4" width="1" height="1" fill="#ffffeb"/>
  <rect x="29" y="4" width="1" height="1" fill="#fff9d3"/>
  <rect x="30" y="4" width="1" height="1" fill="#e6ba6b"/>
  <rect x="31" y="4" width="1" height="1" fill="#fffea0"/>
  <rect x="32" y="4" width="1" height="1" fill="#eeb65e"/>
  <rect x="33" y="4" width="1" height="1" fill="#fff498"/>
  <rect x="34" y="4" width="1" height="1" fill="#fbb448"/>
  <rect x="35" y="4" width="1" height="1" fill="#f0b55ec7"/>
  <rect x="0" y="5" width="1" height="1" fill="#31bf86f9"/>
  <rect x="1" y="5" width="1" height="1" fill="#46b486"/>
  <rect x="2" y="5" width="1" height="1" fill="#defff5"/>
  <rect x="3" y="5" width="1" height="1" fill="#f3fff5"/>
  <rect x="4" y="5" width="1" height="1" fill="#f6fff6"/>
  <rect x="5" y="5" width="1" height="1" fill="#e9fff9"/>
  <rect x="6" y="5" width="1" height="1" fill="#54aa82"/>
  <rect x="7" y="5" width="1" height="1" fill="#3fb582"/>
  <rect x="8" y="5" width="1" height="1" fill="#37bb83"/>
  <rect x="9" y="5" width="1" height="1" fill="#30be83"/>
  <rect x="10" y="5" width="1" height="1" fill="#2dc081"/>
  <rect x="11" y="5" width="1" height="1" fill="#2dc081f8"/>
  <rect x="12" y="5" width="1" height="1" fill="#31c283f9"/>
  <rect x="13" y="5" width="1" height="2" fill="#48b482"/>
  <rect x="14" y="5" width="1" height="1" fill="#e5fff1"/>
  <rect x="15" y="5" width="1" height="1" fill="#fbfff1"/>
  <rect x="16" y="5" width="1" height="1" fill="#f9fff1"/>
  <rect x="17" y="5" width="1" height="1" fill="#e9fff6"/>
  <rect x="18" y="5" width="1" height="2" fill="#46b07e"/>
  <rect x="19" y="5" width="1" height="4" fill="#2ebc7e"/>
  <rect x="20" y="5" width="1" height="3" fill="#2bbe7e"/>
  <rect x="21" y="5" width="1" height="1" fill="#26c07e"/>
  <rect x="22" y="5" width="1" height="1" fill="#21c37e"/>
  <rect x="23" y="5" width="1" height="1" fill="#49b462f8"/>
  <rect x="24" y="5" width="1" height="1" fill="#cfc158f9"/>
  <rect x="25" y="5" width="1" height="1" fill="#edb35b"/>
  <rect x="26" y="5" width="1" height="1" fill="#fffbd8"/>
  <rect x="27" y="5" width="1" height="1" fill="#fffbf7"/>
  <rect x="28" y="5" width="1" height="1" fill="#fffbfa"/>
  <rect x="29" y="5" width="1" height="1" fill="#fffce3"/>
  <rect x="30" y="5" width="1" height="1" fill="#e0b972"/>
  <rect x="31" y="5" width="1" height="1" fill="#e7b85d"/>
  <rect x="32" y="5" width="1" height="1" fill="#fffaab"/>
  <rect x="33" y="5" width="1" height="1" fill="#edb461"/>
  <rect x="34" y="5" width="1" height="1" fill="#f7b34a"/>
  <rect x="35" y="5" width="1" height="1" fill="#efb45df8"/>
  <rect x="0" y="6" width="1" height="1" fill="#33be84f9"/>
  <rect x="1" y="6" width="1" height="1" fill="#48b484"/>
  <rect x="2" y="6" width="1" height="1" fill="#e0fff3"/>
  <rect x="3" y="6" width="1" height="1" fill="#f5fff3"/>
  <rect x="4" y="6" width="1" height="1" fill="#f8fff6"/>
  <rect x="5" y="6" width="1" height="1" fill="#eefffb"/>
  <rect x="6" y="6" width="1" height="1" fill="#54a57e"/>
  <rect x="7" y="6" width="1" height="1" fill="#b4fff1"/>
  <rect x="8" y="6" width="1" height="1" fill="#a6ffea"/>
  <rect x="9" y="6" width="1" height="1" fill="#3cbd86"/>
  <rect x="10" y="6" width="1" height="1" fill="#2db97c"/>
  <rect x="11" y="6" width="1" height="1" fill="#29b97bf3"/>
  <rect x="12" y="6" width="1" height="1" fill="#2fc283f9"/>
  <rect x="14" y="6" width="1" height="1" fill="#edfff1"/>
  <rect x="15" y="6" width="1" height="1" fill="#fffbf1"/>
  <rect x="16" y="6" width="1" height="1" fill="#fffdf1"/>
  <rect x="17" y="6" width="1" height="1" fill="#ecfff6"/>
  <rect x="21" y="6" width="1" height="1" fill="#29be7e"/>
  <rect x="22" y="6" width="1" height="1" fill="#26c07e"/>
  <rect x="23" y="6" width="1" height="1" fill="#50b062f3"/>
  <rect x="24" y="6" width="1" height="1" fill="#d3bf58f9"/>
  <rect x="25" y="6" width="1" height="1" fill="#efb25b"/>
  <rect x="26" y="6" width="1" height="1" fill="#fff8dc"/>
  <rect x="27" y="6" width="1" height="1" fill="#fffafd"/>
  <rect x="28" y="6" width="1" height="1" fill="#ffffff"/>
  <rect x="29" y="6" width="1" height="1" fill="#ffffe9"/>
  <rect x="30" y="6" width="1" height="1" fill="#deb36f"/>
  <rect x="31" y="6" width="1" height="1" fill="#fff39c"/>
  <rect x="32" y="6" width="1" height="1" fill="#ecb861"/>
  <rect x="33" y="6" width="1" height="1" fill="#fffa9d"/>
  <rect x="34" y="6" width="1" height="1" fill="#f6b146"/>
  <rect x="35" y="6" width="1" height="1" fill="#eaaf58f3"/>
  <rect x="0" y="7" width="1" height="1" fill="#33b980c7"/>
  <rect x="1" y="7" width="1" height="1" fill="#43b180"/>
  <rect x="2" y="7" width="1" height="1" fill="#b6f9d7"/>
  <rect x="3" y="7" width="1" height="1" fill="#e7fff6"/>
  <rect x="4" y="7" width="1" height="1" fill="#f0fffc"/>
  <rect x="5" y="7" width="1" height="1" fill="#e0fff6"/>
  <rect x="6" y="7" width="1" height="1" fill="#55a982"/>
  <rect x="7" y="7" width="1" height="1" fill="#44b080"/>
  <rect x="8" y="7" width="1" height="1" fill="#39af7c"/>
  <rect x="9" y="7" width="1" height="1" fill="#3ab983"/>
  <rect x="10" y="7" width="1" height="1" fill="#31ba7e"/>
  <rect x="11" y="7" width="1" height="1" fill="#31c283c7"/>
  <rect x="12" y="7" width="1" height="1" fill="#2ac080c7"/>
  <rect x="13" y="7" width="1" height="1" fill="#3db37d"/>
  <rect x="14" y="7" width="1" height="1" fill="#bff4d5"/>
  <rect x="15" y="7" width="1" height="1" fill="#f5fff5"/>
  <rect x="16" y="7" width="1" height="1" fill="#f2fff1"/>
  <rect x="17" y="7" width="1" height="1" fill="#e3fff6"/>
  <rect x="18" y="7" width="1" height="1" fill="#44b380"/>
  <rect x="21" y="7" width="2" height="1" fill="#29be7e"/>
  <rect x="23" y="7" width="1" height="1" fill="#53ae64c7"/>
  <rect x="24" y="7" width="1" height="1" fill="#d4ba5cc7"/>
  <rect x="25" y="7" width="1" height="1" fill="#ffba64"/>
  <rect x="26" y="7" width="1" height="1" fill="#ffeab9"/>
  <rect x="27" y="7" width="1" height="1" fill="#fffde1"/>
  <rect x="28" y="7" width="1" height="1" fill="#fffae6"/>
  <rect x="29" y="7" width="1" height="1" fill="#ffffdb"/>
  <rect x="30" y="7" width="1" height="1" fill="#eab268"/>
  <rect x="31" y="7" width="1" height="1" fill="#f7b555"/>
  <rect x="32" y="7" width="1" height="1" fill="#edb151"/>
  <rect x="33" y="7" width="1" height="1" fill="#f3b650"/>
  <rect x="34" y="7" width="1" height="1" fill="#f9b243"/>
  <rect x="35" y="7" width="1" height="1" fill="#ecb25ac7"/>
  <rect x="0" y="8" width="1" height="1" fill="#39b8826e"/>
  <rect x="1" y="8" width="1" height="1" fill="#3bb580"/>
  <rect x="2" y="8" width="1" height="1" fill="#45b383"/>
  <rect x="3" y="8" width="1" height="1" fill="#4faf83"/>
  <rect x="4" y="8" width="1" height="1" fill="#99e8c2"/>
  <rect x="5" y="8" width="1" height="1" fill="#cffff6"/>
  <rect x="6" y="8" width="1" height="1" fill="#4aa87b"/>
  <rect x="7" y="8" width="1" height="1" fill="#bdfff9"/>
  <rect x="8" y="8" width="1" height="1" fill="#35b77d"/>
  <rect x="9" y="8" width="1" height="1" fill="#30be81"/>
  <rect x="10" y="8" width="1" height="1" fill="#2ebc7e"/>
  <rect x="11" y="8" width="1" height="1" fill="#2ec1826e"/>
  <rect x="12" y="8" width="1" height="1" fill="#2ac0806e"/>
  <rect x="13" y="8" width="1" height="1" fill="#30bb7e"/>
  <rect x="14" y="8" width="1" height="1" fill="#3fb580"/>
  <rect x="15" y="8" width="1" height="1" fill="#4dae80"/>
  <rect x="16" y="8" width="1" height="1" fill="#96e1ba"/>
  <rect x="17" y="8" width="1" height="1" fill="#bfffe7"/>
  <rect x="18" y="8" width="1" height="1" fill="#3fb781"/>
  <rect x="20" y="8" width="1" height="2" fill="#2cbf80"/>
  <rect x="21" y="8" width="2" height="1" fill="#2ac080"/>
  <rect x="23" y="8" width="1" height="1" fill="#55ae696e"/>
  <rect x="24" y="8" width="1" height="1" fill="#d5b9676e"/>
  <rect x="25" y="8" width="1" height="1" fill="#fcae4f"/>
  <rect x="26" y="8" width="1" height="1" fill="#f4b34b"/>
  <rect x="27" y="8" width="1" height="1" fill="#efb357"/>
  <rect x="28" y="8" width="1" height="1" fill="#ffd095"/>
  <rect x="29" y="8" width="1" height="1" fill="#fff5ba"/>
  <rect x="30" y="8" width="1" height="1" fill="#f6ad4f"/>
  <rect x="31" y="8" width="1" height="1" fill="#f6ab3b"/>
  <rect x="32" y="8" width="2" height="1" fill="#fab143"/>
  <rect x="34" y="8" width="1" height="1" fill="#fcb041"/>
  <rect x="35" y="8" width="1" height="1" fill="#ecb35e6e"/>
  <rect x="1" y="9" width="1" height="1" fill="#37bb83d0"/>
  <rect x="2" y="9" width="1" height="1" fill="#34bc83"/>
  <rect x="3" y="9" width="1" height="1" fill="#38ba83"/>
  <rect x="4" y="9" width="1" height="1" fill="#3fae7d"/>
  <rect x="5" y="9" width="1" height="1" fill="#83eabc"/>
  <rect x="6" y="9" width="1" height="1" fill="#4bb885"/>
  <rect x="7" y="9" width="1" height="1" fill="#3eb680"/>
  <rect x="8" y="9" width="1" height="1" fill="#a3fff2"/>
  <rect x="9" y="9" width="1" height="1" fill="#2dc081"/>
  <rect x="10" y="9" width="1" height="1" fill="#2bbe7ed1"/>
  <rect x="13" y="9" width="1" height="1" fill="#29c080d0"/>
  <rect x="14" y="9" width="1" height="1" fill="#2ac080"/>
  <rect x="15" y="9" width="1" height="1" fill="#34bb80"/>
  <rect x="16" y="9" width="1" height="1" fill="#46b07e"/>
  <rect x="17" y="9" width="1" height="1" fill="#8af1c1"/>
  <rect x="18" y="9" width="1" height="1" fill="#3ab880"/>
  <rect x="19" y="9" width="1" height="1" fill="#2db97c"/>
  <rect x="21" y="9" width="1" height="1" fill="#2ac080"/>
  <rect x="22" y="9" width="1" height="1" fill="#2ac080d1"/>
  <rect x="25" y="9" width="1" height="1" fill="#ffac49d0"/>
  <rect x="26" y="9" width="1" height="1" fill="#ffb135"/>
  <rect x="27" y="9" width="1" height="1" fill="#ffb039"/>
  <rect x="28" y="9" width="1" height="1" fill="#ffb25e"/>
  <rect x="29" y="9" width="1" height="1" fill="#ffcf81"/>
  <rect x="30" y="9" width="1" height="1" fill="#f9a83f"/>
  <rect x="31" y="9" width="1" height="1" fill="#fdae39"/>
  <rect x="32" y="9" width="1" height="1" fill="#ffb03b"/>
  <rect x="33" y="9" width="1" height="1" fill="#ffb03d"/>
  <rect x="34" y="9" width="1" height="1" fill="#fdb03fd1"/>
  <rect x="1" y="10" width="1" height="1" fill="#31c0821b"/>
  <rect x="2" y="10" width="1" height="1" fill="#2dc081cf"/>
  <rect x="3" y="10" width="1" height="1" fill="#2dbb7d"/>
  <rect x="4" y="10" width="1" height="1" fill="#32b179"/>
  <rect x="5" y="10" width="1" height="1" fill="#35b079"/>
  <rect x="6" y="10" width="1" height="1" fill="#3aba81"/>
  <rect x="7" y="10" width="1" height="1" fill="#39bf84"/>
  <rect x="8" y="10" width="1" height="1" fill="#35c385"/>
  <rect x="9" y="10" width="1" height="1" fill="#27ba7bd0"/>
  <rect x="10" y="10" width="1" height="1" fill="#31c3841b"/>
  <rect x="13" y="10" width="1" height="1" fill="#2ac0801b"/>
  <rect x="14" y="10" width="1" height="1" fill="#2ac080cf"/>
  <rect x="15" y="10" width="1" height="1" fill="#32bc80"/>
  <rect x="16" y="10" width="1" height="1" fill="#43b782"/>
  <rect x="17" y="10" width="1" height="1" fill="#47b884"/>
  <rect x="18" y="10" width="1" height="1" fill="#3cbc83"/>
  <rect x="19" y="10" width="1" height="1" fill="#33bf82"/>
  <rect x="20" y="10" width="1" height="1" fill="#2dc081"/>
  <rect x="21" y="10" width="1" height="1" fill="#29c080d0"/>
  <rect x="22" y="10" width="1" height="1" fill="#2ac2811b"/>
  <rect x="25" y="10" width="1" height="1" fill="#ffae451b"/>
  <rect x="26" y="10" width="1" height="1" fill="#ffb03bcf"/>
  <rect x="27" y="10" width="1" height="1" fill="#ffb03d"/>
  <rect x="28" y="10" width="1" height="1" fill="#faa847"/>
  <rect x="29" y="10" width="1" height="1" fill="#ffb354"/>
  <rect x="30" y="10" width="1" height="1" fill="#fdac41"/>
  <rect x="31" y="10" width="1" height="1" fill="#ffb040"/>
  <rect x="32" y="10" width="1" height="1" fill="#ffb03d"/>
  <rect x="33" y="10" width="1" height="1" fill="#ffb03dd0"/>
  <rect x="34" y="10" width="1" height="1" fill="#fdb03f1b"/>
  <rect x="3" y="11" width="1" height="1" fill="#2cbf806f"/>
  <rect x="4" y="11" width="1" height="1" fill="#34bd81cb"/>
  <rect x="5" y="11" width="1" height="1" fill="#3cc388f4"/>
  <rect x="6" y="11" width="1" height="1" fill="#30b97df4"/>
  <rect x="7" y="11" width="1" height="1" fill="#2ebc7ecb"/>
  <rect x="8" y="11" width="1" height="1" fill="#30c0826f"/>
  <rect x="15" y="11" width="1" height="1" fill="#32be816f"/>
  <rect x="16" y="11" width="1" height="1" fill="#3db881cb"/>
  <rect x="17" y="11" width="1" height="1" fill="#3cb27cf4"/>
  <rect x="18" y="11" width="1" height="1" fill="#38ba81f4"/>
  <rect x="19" y="11" width="1" height="1" fill="#32be81cb"/>
  <rect x="20" y="11" width="1" height="1" fill="#2cbf806f"/>
  <rect x="27" y="11" width="1" height="1" fill="#ffb1446f"/>
  <rect x="28" y="11" width="1" height="1" fill="#ffb14bcb"/>
  <rect x="29" y="11" width="1" height="1" fill="#fdab45f4"/>
  <rect x="30" y="11" width="1" height="1" fill="#ffb044f4"/>
  <rect x="31" y="11" width="1" height="1" fill="#ffaf3fcb"/>
  <rect x="32" y="11" width="1" height="1" fill="#ffb03d6f"/>
</svg>