<svg xmlns="http://www.w3.org/2000/svg" width="208" height="72" viewBox="0 0 208 72" shape-rendering="crispEdges">
  <rect x="0" y="0" width="208" height="31" fill="#fcfbfc"/>
  <rect x="0" y="31" width="16" height="1" fill="#fcfbfc"/>
  <rect x="16" y="31" width="2" height="1" fill="#fdfdfd"/>
  <rect x="18" y="31" width="190" height="1" fill="#fcfbfc"/>
  <rect x="0" y="32" width="13" height="1" fill="#fcfbfc"/>
  <rect x="13" y="32" width="2" height="1" fill="#fdfdfd"/>
  <rect x="15" y="32" width="1" height="1" fill="#fefefe"/>
  <rect x="16" y="32" width="1" height="1" fill="#fdfdfd"/>
  <rect x="17" y="32" width="1" height="1" fill="#fefefe"/>
  <rect x="18" y="32" width="2" height="1" fill="#ffffff"/>
  <rect x="20" y="32" width="1" height="1" fill="#fdfdfd"/>
  <rect x="21" y="32" width="3" height="1" fill="#fcfbfc"/>
  <rect x="24" y="32" width="3" height="1" fill="#fdfdfd"/>
  <rect x="27" y="32" width="1" height="1" fill="#fcfbfc"/>
  <rect x="28" y="32" width="1" height="1" fill="#fafafa"/>
  <rect x="29" y="32" width="153" height="1" fill="#f9f9f9"/>
  <rect x="182" y="32" width="2" height="1" fill="#fafafa"/>
  <rect x="184" y="32" width="2" height="1" fill="#fcfbfc"/>
  <rect x="186" y="32" width="2" height="1" fill="#fdfdfd"/>
  <rect x="188" y="32" width="4" height="1" fill="#f6f6f6"/>
  <rect x="192" y="32" width="4" height="1" fill="#ffffff"/>
  <rect x="196" y="32" width="12" height="4" fill="#fcfbfc"/>
  <rect x="0" y="33" width="14" height="2" fill="#fcfbfc"/>
  <rect x="14" y="33" width="4" height="1" fill="#fdfdfd"/>
  <rect x="18" y="33" width="2" height="1" fill="#fefefe"/>
  <rect x="20" y="33" width="4" height="1" fill="#f9f9f9"/>
  <rect x="24" y="33" width="2" height="1" fill="#f8f8f8"/>
  <rect x="26" y="33" width="2" height="1" fill="#f9f9f9"/>
  <rect x="28" y="33" width="2" height="1" fill="#fafafa"/>
  <rect x="30" y="33" width="153" height="1" fill="#fcfbfc"/>
  <rect x="183" y="33" width="1" height="1" fill="#fafafa"/>
  <rect x="184" y="33" width="1" height="1" fill="#f9f9f9"/>
  <rect x="185" y="33" width="1" height="1" fill="#f8f8f8"/>
  <rect x="186" y="33" width="4" height="1" fill="#f9f9f9"/>
  <rect x="190" y="33" width="4" height="1" fill="#fcfbfc"/>
  <rect x="194" y="33" width="2" height="1" fill="#fdfdfd"/>
  <rect x="14" y="34" width="4" height="1" fill="#fafafa"/>
  <rect x="18" y="34" width="2" height="1" fill="#f9f9f9"/>
  <rect x="20" y="34" width="4" height="1" fill="#ffffff"/>
  <rect x="24" y="34" width="2" height="1" fill="#fafafa"/>
  <rect x="26" y="34" width="2" height="1" fill="#fcfbfc"/>
  <rect x="28" y="34" width="2" height="1" fill="#fdfdfd"/>
  <rect x="30" y="34" width="153" height="1" fill="#fefefe"/>
  <rect x="183" y="34" width="1" height="1" fill="#fdfdfd"/>
  <rect x="184" y="34" width="1" height="1" fill="#fcfbfc"/>
  <rect x="185" y="34" width="2" height="1" fill="#fafafa"/>
  <rect x="187" y="34" width="1" height="1" fill="#f9f9f9"/>
  <rect x="188" y="34" width="1" height="1" fill="#f8f8f8"/>
  <rect x="189" y="34" width="1" height="1" fill="#f7f7f7"/>
  <rect x="190" y="34" width="2" height="1" fill="#f8f8f8"/>
  <rect x="192" y="34" width="2" height="1" fill="#f9f9f9"/>
  <rect x="194" y="34" width="2" height="1" fill="#fafafa"/>
  <rect x="0" y="35" width="13" height="1" fill="#fcfbfc"/>
  <rect x="13" y="35" width="2" height="1" fill="#fafafa"/>
  <rect x="15" y="35" width="1" height="1" fill="#f9f9f9"/>
  <rect x="16" y="35" width="1" height="1" fill="#fafafa"/>
  <rect x="17" y="35" width="1" height="1" fill="#f9f9f9"/>
  <rect x="18" y="35" width="1" height="1" fill="#f8f8f8"/>
  <rect x="19" y="35" width="1" height="1" fill="#f7f7f7"/>
  <rect x="20" y="35" width="4" height="1" fill="#eeeeee"/>
  <rect x="24" y="35" width="3" height="1" fill="#e5e5e5"/>
  <rect x="27" y="35" width="1" height="1" fill="#e4e4e4"/>
  <rect x="28" y="35" width="1" height="1" fill="#e3e3e3"/>
  <rect x="29" y="35" width="153" height="1" fill="#e2e2e2"/>
  <rect x="182" y="35" width="2" height="1" fill="#e3e3e3"/>
  <rect x="184" y="35" width="2" height="1" fill="#e4e4e4"/>
  <rect x="186" y="35" width="2" height="1" fill="#e5e5e5"/>
  <rect x="188" y="35" width="4" height="1" fill="#ececec"/>
  <rect x="192" y="35" width="4" height="1" fill="#f8f8f8"/>
  <rect x="0" y="36" width="18" height="1" fill="#fcfbfc"/>
  <rect x="18" y="36" width="6" height="1" fill="#fdfdfd"/>
  <rect x="24" y="36" width="184" height="12" fill="#fcfbfc"/>
  <rect x="0" y="37" width="16" height="11" fill="#fcfbfc"/>
  <rect x="16" y="37" width="8" height="11" fill="#fdfdfd"/>
  <rect x="0" y="48" width="208" height="24" fill="#fcfbfc"/>
</svg>