<svg xmlns="http://www.w3.org/2000/svg" width="170" height="56" viewBox="0 0 170 56" shape-rendering="crispEdges">
  <rect x="14" y="5" width="2" height="1" fill="#0101010a"/>
  <rect x="16" y="5" width="1" height="1" fill="#0000000a"/>
  <rect x="17" y="5" width="136" height="1" fill="#0000000b"/>
  <rect x="153" y="5" width="3" height="1" fill="#0000000a"/>
  <rect x="11" y="6" width="1" height="1" fill="#0101010a"/>
  <rect x="12" y="6" width="1" height="1" fill="#0101010b"/>
  <rect x="13" y="6" width="2" height="1" fill="#0101010c"/>
  <rect x="15" y="6" width="1" height="1" fill="#0101010d"/>
  <rect x="16" y="6" width="1" height="1" fill="#0000000d"/>
  <rect x="17" y="6" width="136" height="1" fill="#0000000e"/>
  <rect x="153" y="6" width="2" height="1" fill="#0000000d"/>
  <rect x="155" y="6" width="2" height="1" fill="#0000000c"/>
  <rect x="157" y="6" width="1" height="1" fill="#0000000b"/>
  <rect x="158" y="6" width="1" height="1" fill="#0000000a"/>
  <rect x="9" y="7" width="1" height="1" fill="#0101010a"/>
  <rect x="10" y="7" width="1" height="1" fill="#0101010b"/>
  <rect x="11" y="7" width="1" height="1" fill="#0101010d"/>
  <rect x="12" y="7" width="1" height="1" fill="#0101010e"/>
  <rect x="13" y="7" width="2" height="1" fill="#0101010f"/>
  <rect x="15" y="7" width="1" height="1" fill="#01010110"/>
  <rect x="16" y="7" width="138" height="1" fill="#00000011"/>
  <rect x="154" y="7" width="1" height="1" fill="#00000010"/>
  <rect x="155" y="7" width="2" height="1" fill="#0000000f"/>
  <rect x="157" y="7" width="1" height="1" fill="#0000000e"/>
  <rect x="158" y="7" width="1" height="1" fill="#0000000d"/>
  <rect x="159" y="7" width="1" height="1" fill="#0000000b"/>
  <rect x="160" y="7" width="1" height="1" fill="#0000000a"/>
  <rect x="8" y="8" width="1" height="1" fill="#0e0e0e0a"/>
  <rect x="9" y="8" width="1" height="1" fill="#9393932f"/>
  <rect x="10" y="8" width="1" height="1" fill="#bfbfbfb2"/>
  <rect x="11" y="8" width="1" height="1" fill="#bababaf2"/>
  <rect x="12" y="8" width="4" height="1" fill="#c6c6c6"/>
  <rect x="16" y="8" width="139" height="1" fill="#c5c5c5"/>
  <rect x="155" y="8" width="1" height="1" fill="#c4c4c4"/>
  <rect x="156" y="8" width="1" height="1" fill="#c2c2c2"/>
  <rect x="157" y="8" width="1" height="1" fill="#c0c0c0"/>
  <rect x="158" y="8" width="1" height="1" fill="#bebebef2"/>
  <rect x="159" y="8" width="1" height="1" fill="#bdbdbdb2"/>
  <rect x="160" y="8" width="1" height="1" fill="#9797972f"/>
  <rect x="161" y="8" width="1" height="1" fill="#0000000a"/>
  <rect x="7" y="9" width="1" height="1" fill="#0101010a"/>
  <rect x="8" y="9" width="1" height="1" fill="#93939331"/>
  <rect x="9" y="9" width="1" height="1" fill="#bdbdbdf0"/>
  <rect x="10" y="9" width="1" height="1" fill="#e8e8e8"/>
  <rect x="11" y="9" width="1" height="1" fill="#fcfbfc"/>
  <rect x="12" y="9" width="4" height="1" fill="#fefefe"/>
  <rect x="16" y="9" width="140" height="1" fill="#fdfdfd"/>
  <rect x="156" y="9" width="2" height="1" fill="#ffffff"/>
  <rect x="158" y="9" width="1" height="1" fill="#f5f5f5"/>
  <rect x="159" y="9" width="1" height="1" fill="#eeeeee"/>
  <rect x="160" y="9" width="1" height="1" fill="#b7b7b7f0"/>
  <rect x="161" y="9" width="1" height="1" fill="#9c9c9c31"/>
  <rect x="162" y="9" width="1" height="1" fill="#0000000a"/>
  <rect x="7" y="10" width="1" height="1" fill="#0101010b"/>
  <rect x="8" y="10" width="1" height="1" fill="#bfbfbfb2"/>
  <rect x="9" y="10" width="1" height="1" fill="#e8e8e8"/>
  <rect x="10" y="10" width="1" height="1" fill="#ffffff"/>
  <rect x="11" y="10" width="1" height="1" fill="#f7f7f7"/>
  <rect x="12" y="10" width="4" height="1" fill="#f9f9f9"/>
  <rect x="16" y="10" width="141" height="1" fill="#f8f8f8"/>
  <rect x="157" y="10" width="1" height="1" fill="#f9f9f9"/>
  <rect x="158" y="10" width="1" height="1" fill="#fcfbfc"/>
  <rect x="159" y="10" width="1" height="1" fill="#fdfdfd"/>
  <rect x="160" y="10" width="1" height="1" fill="#d6d6d6"/>
  <rect x="161" y="10" width="1" height="1" fill="#bababab2"/>
  <rect x="162" y="10" width="1" height="1" fill="#0000000b"/>
  <rect x="6" y="11" width="1" height="1" fill="#0101010a"/>
  <rect x="7" y="11" width="1" height="1" fill="#0101010d"/>
  <rect x="8" y="11" width="1" height="1" fill="#bababaf2"/>
  <rect x="9" y="11" width="1" height="1" fill="#fcfbfc"/>
  <rect x="10" y="11" width="1" height="1" fill="#f7f7f7"/>
  <rect x="11" y="11" width="1" height="1" fill="#f0f0f0"/>
  <rect x="12" y="11" width="4" height="1" fill="#fcfbfc"/>
  <rect x="16" y="11" width="140" height="1" fill="#fafafa"/>
  <rect x="156" y="11" width="2" height="1" fill="#ffffff"/>
  <rect x="158" y="11" width="1" height="1" fill="#fdfdfd"/>
  <rect x="159" y="11" width="1" height="1" fill="#f7f7f7"/>
  <rect x="160" y="11" width="1" height="1" fill="#fcfbfc"/>
  <rect x="161" y="11" width="1" height="1" fill="#c5c5c5f4"/>
  <rect x="162" y="11" width="1" height="1" fill="#0000000d"/>
  <rect x="163" y="11" width="1" height="1" fill="#0000000a"/>
  <rect x="6" y="12" width="1" height="1" fill="#0101010b"/>
  <rect x="7" y="12" width="1" height="1" fill="#0101010e"/>
  <rect x="8" y="12" width="1" height="4" fill="#c6c6c6"/>
  <rect x="9" y="12" width="1" height="4" fill="#fefefe"/>
  <rect x="10" y="12" width="1" height="4" fill="#f9f9f9"/>
  <rect x="11" y="12" width="5" height="4" fill="#fcfbfc"/>
  <rect x="16" y="12" width="144" height="4" fill="#fafafa"/>
  <rect x="160" y="12" width="1" height="28" fill="#ffffff"/>
  <rect x="161" y="12" width="1" height="4" fill="#c0c0c0"/>
  <rect x="162" y="12" width="1" height="1" fill="#0000000e"/>
  <rect x="163" y="12" width="1" height="1" fill="#0000000b"/>
  <rect x="6" y="13" width="1" height="2" fill="#0101010c"/>
  <rect x="7" y="13" width="1" height="2" fill="#0101010f"/>
  <rect x="162" y="13" width="1" height="2" fill="#0000000f"/>
  <rect x="163" y="13" width="1" height="2" fill="#0202020c"/>
  <rect x="5" y="14" width="1" height="2" fill="#0101010a"/>
  <rect x="164" y="14" width="1" height="3" fill="#0000000a"/>
  <rect x="6" y="15" width="1" height="1" fill="#0101010d"/>
  <rect x="7" y="15" width="1" height="1" fill="#01010110"/>
  <rect x="162" y="15" width="1" height="1" fill="#00000010"/>
  <rect x="163" y="15" width="1" height="1" fill="#0202020d"/>
  <rect x="5" y="16" width="1" height="1" fill="#0000000a"/>
  <rect x="6" y="16" width="1" height="1" fill="#0000000d"/>
  <rect x="7" y="16" width="1" height="25" fill="#00000011"/>
  <rect x="8" y="16" width="1" height="23" fill="#c5c5c5"/>
  <rect x="9" y="16" width="1" height="24" fill="#fdfdfd"/>
  <rect x="10" y="16" width="1" height="23" fill="#f8f8f8"/>
  <rect x="11" y="16" width="5" height="24" fill="#fafafa"/>
  <rect x="16" y="16" width="144" height="24" fill="#fcfbfc"/>
  <rect x="161" y="16" width="1" height="24" fill="#bfbfbf"/>
  <rect x="162" y="16" width="1" height="25" fill="#00000011"/>
  <rect x="163" y="16" width="1" height="1" fill="#0101010d"/>
  <rect x="5" y="17" width="1" height="23" fill="#0000000b"/>
  <rect x="6" y="17" width="1" height="23" fill="#0000000e"/>
  <rect x="163" y="17" width="1" height="23" fill="#0101010e"/>
  <rect x="164" y="17" width="1" height="23" fill="#0000000b"/>
  <rect x="8" y="39" width="1" height="1" fill="#c4c4c4"/>
  <rect x="10" y="39" width="1" height="1" fill="#f9f9f9"/>
  <rect x="5" y="40" width="1" height="3" fill="#0000000a"/>
  <rect x="6" y="40" width="1" height="2" fill="#0000000d"/>
  <rect x="8" y="40" width="1" height="2" fill="#c2c2c2"/>
  <rect x="9" y="40" width="1" height="1" fill="#fafafa"/>
  <rect x="10" y="40" width="1" height="1" fill="#f7f7f7"/>
  <rect x="11" y="40" width="5" height="1" fill="#fcfbfc"/>
  <rect x="16" y="40" width="141" height="1" fill="#fdfdfd"/>
  <rect x="157" y="40" width="1" height="1" fill="#fcfbfc"/>
  <rect x="158" y="40" width="1" height="1" fill="#fafafa"/>
  <rect x="159" y="40" width="1" height="1" fill="#f9f9f9"/>
  <rect x="160" y="40" width="1" height="1" fill="#fefefe"/>
  <rect x="161" y="40" width="1" height="1" fill="#bebebe"/>
  <rect x="163" y="40" width="1" height="2" fill="#0000000d"/>
  <rect x="164" y="40" width="1" height="3" fill="#0000000a"/>
  <rect x="7" y="41" width="1" height="1" fill="#00000010"/>
  <rect x="9" y="41" width="1" height="1" fill="#f9f9f9"/>
  <rect x="10" y="41" width="1" height="1" fill="#f2f2f2"/>
  <rect x="11" y="41" width="146" height="1" fill="#f3f3f3"/>
  <rect x="157" y="41" width="1" height="1" fill="#f5f5f5"/>
  <rect x="158" y="41" width="1" height="1" fill="#f6f6f6"/>
  <rect x="159" y="41" width="1" height="1" fill="#f7f7f7"/>
  <rect x="160" y="41" width="1" height="1" fill="#fafafa"/>
  <rect x="161" y="41" width="1" height="1" fill="#bababa"/>
  <rect x="162" y="41" width="1" height="1" fill="#00000010"/>
  <rect x="6" y="42" width="1" height="2" fill="#0000000c"/>
  <rect x="7" y="42" width="1" height="2" fill="#0000000f"/>
  <rect x="8" y="42" width="1" height="1" fill="#c5c5c5"/>
  <rect x="9" y="42" width="1" height="1" fill="#f7f7f7"/>
  <rect x="10" y="42" width="1" height="1" fill="#ebebeb"/>
  <rect x="11" y="42" width="5" height="1" fill="#e8e8e8"/>
  <rect x="16" y="42" width="140" height="1" fill="#e7e7e7"/>
  <rect x="156" y="42" width="1" height="1" fill="#e8e8e8"/>
  <rect x="157" y="42" width="1" height="1" fill="#e7e7e7"/>
  <rect x="158" y="42" width="1" height="1" fill="#e4e4e4"/>
  <rect x="159" y="42" width="1" height="1" fill="#e3e3e3"/>
  <rect x="160" y="42" width="1" height="1" fill="#fcfbfc"/>
  <rect x="161" y="42" width="1" height="1" fill="#bbbbbb"/>
  <rect x="162" y="42" width="1" height="1" fill="#0202020f"/>
  <rect x="163" y="42" width="1" height="1" fill="#0202020c"/>
  <rect x="8" y="43" width="1" height="1" fill="#c6c6c6"/>
  <rect x="9" y="43" width="1" height="1" fill="#f6f6f6da"/>
  <rect x="10" y="43" width="1" height="1" fill="#e9e9e952"/>
  <rect x="11" y="43" width="1" height="1" fill="#e1e1e10e"/>
  <rect x="158" y="43" width="1" height="1" fill="#e4e4e40e"/>
  <rect x="159" y="43" width="1" height="1" fill="#dddddd52"/>
  <rect x="160" y="43" width="1" height="1" fill="#f5f5f5da"/>
  <rect x="161" y="43" width="1" height="1" fill="#b4b4b4"/>
  <rect x="162" y="43" width="1" height="1" fill="#0101010f"/>
  <rect x="163" y="43" width="1" height="1" fill="#0101010c"/>
  <rect x="6" y="44" width="1" height="1" fill="#0000000b"/>
  <rect x="7" y="44" width="1" height="1" fill="#0000000e"/>
  <rect x="8" y="44" width="1" height="1" fill="#c6c6c6d8"/>
  <rect x="9" y="44" width="1" height="1" fill="#fdfdfd10"/>
  <rect x="160" y="44" width="1" height="1" fill="#fafafa10"/>
  <rect x="161" y="44" width="1" height="1" fill="#bfbfbfd8"/>
  <rect x="162" y="44" width="1" height="1" fill="#0000000e"/>
  <rect x="163" y="44" width="1" height="1" fill="#0303030b"/>
  <rect x="6" y="45" width="1" height="1" fill="#0000000a"/>
  <rect x="7" y="45" width="1" height="1" fill="#0000000c"/>
  <rect x="8" y="45" width="1" height="1" fill="#bbbbbb52"/>
  <rect x="161" y="45" width="1" height="1" fill="#b4b4b452"/>
  <rect x="162" y="45" width="1" height="1" fill="#0000000c"/>
  <rect x="163" y="45" width="1" height="1" fill="#0808080a"/>
  <rect x="7" y="46" width="1" height="1" fill="#0000000b"/>
  <rect x="8" y="46" width="1" height="1" fill="#c9c9c90e"/>
  <rect x="161" y="46" width="1" height="1" fill="#bebebe0c"/>
  <rect x="162" y="46" width="1" height="1" fill="#0000000b"/>
</svg>