<svg xmlns="http://www.w3.org/2000/svg" width="26" height="13" viewBox="0 0 26 13" shape-rendering="crispEdges">
  <rect x="3" y="0" width="1" height="1" fill="#0202020c"/>
  <rect x="4" y="0" width="1" height="1" fill="#00000021"/>
  <rect x="5" y="0" width="1" height="1" fill="#0000002e"/>
  <rect x="6" y="0" width="1" height="1" fill="#01010132"/>
  <rect x="7" y="0" width="1" height="1" fill="#0202022e"/>
  <rect x="8" y="0" width="1" height="1" fill="#02020221"/>
  <rect x="9" y="0" width="1" height="1" fill="#0000000c"/>
  <rect x="16" y="0" width="1" height="1" fill="#01010118"/>
  <rect x="17" y="0" width="1" height="1" fill="#02020243"/>
  <rect x="18" y="0" width="1" height="1" fill="#0000005b"/>
  <rect x="19" y="0" width="1" height="1" fill="#00000064"/>
  <rect x="20" y="0" width="1" height="1" fill="#0101015b"/>
  <rect x="21" y="0" width="1" height="1" fill="#01010143"/>
  <rect x="22" y="0" width="1" height="1" fill="#02020218"/>
  <rect x="2" y="1" width="1" height="1" fill="#0000001e"/>
  <rect x="3" y="1" width="1" height="1" fill="#01010133"/>
  <rect x="4" y="1" width="1" height="1" fill="#07070733"/>
  <rect x="5" y="1" width="1" height="1" fill="#06060633"/>
  <rect x="6" y="1" width="1" height="1" fill="#0a0a0a33"/>
  <rect x="7" y="1" width="2" height="1" fill="#00000033"/>
  <rect x="9" y="1" width="1" height="1" fill="#03030333"/>
  <rect x="10" y="1" width="1" height="1" fill="#0000001e"/>
  <rect x="15" y="1" width="1" height="1" fill="#0000003c"/>
  <rect x="16" y="1" width="2" height="1" fill="#00000066"/>
  <rect x="18" y="1" width="2" height="1" fill="#02020266"/>
  <rect x="20" y="1" width="1" height="1" fill="#00000066"/>
  <rect x="21" y="1" width="1" height="1" fill="#03030366"/>
  <rect x="22" y="1" width="1" height="1" fill="#00000066"/>
  <rect x="23" y="1" width="1" height="1" fill="#0101013c"/>
  <rect x="1" y="2" width="1" height="1" fill="#0000001f"/>
  <rect x="2" y="2" width="2" height="1" fill="#00000033"/>
  <rect x="4" y="2" width="1" height="1" fill="#06060633"/>
  <rect x="5" y="2" width="3" height="1" fill="#00000033"/>
  <rect x="8" y="2" width="1" height="1" fill="#01010133"/>
  <rect x="9" y="2" width="1" height="1" fill="#07070733"/>
  <rect x="10" y="2" width="1" height="1" fill="#00000033"/>
  <rect x="11" y="2" width="1" height="1" fill="#0000001f"/>
  <rect x="14" y="2" width="1" height="1" fill="#0606063e"/>
  <rect x="15" y="2" width="5" height="1" fill="#00000066"/>
  <rect x="20" y="2" width="1" height="2" fill="#01010166"/>
  <rect x="21" y="2" width="3" height="1" fill="#00000066"/>
  <rect x="24" y="2" width="1" height="1" fill="#0101013e"/>
  <rect x="0" y="3" width="1" height="1" fill="#0202020c"/>
  <rect x="1" y="3" width="2" height="1" fill="#00000033"/>
  <rect x="3" y="3" width="1" height="1" fill="#cccccca3"/>
  <rect x="4" y="3" width="1" height="1" fill="#d2d2d2a3"/>
  <rect x="5" y="3" width="1" height="1" fill="#09090933"/>
  <rect x="6" y="3" width="2" height="1" fill="#00000033"/>
  <rect x="8" y="3" width="2" height="1" fill="#cfcfcfa3"/>
  <rect x="10" y="3" width="1" height="1" fill="#07070733"/>
  <rect x="11" y="3" width="1" height="1" fill="#03030333"/>
  <rect x="12" y="3" width="1" height="1" fill="#0000000c"/>
  <rect x="13" y="3" width="1" height="1" fill="#00000018"/>
  <rect x="14" y="3" width="2" height="2" fill="#00000066"/>
  <rect x="16" y="3" width="1" height="1" fill="#babababa"/>
  <rect x="17" y="3" width="1" height="1" fill="#b7b7b7ba"/>
  <rect x="18" y="3" width="2" height="1" fill="#00000066"/>
  <rect x="21" y="3" width="1" height="1" fill="#bdbdbdba"/>
  <rect x="22" y="3" width="1" height="1" fill="#b8b8b8ba"/>
  <rect x="23" y="3" width="1" height="2" fill="#00000066"/>
  <rect x="24" y="3" width="1" height="3" fill="#01010166"/>
  <rect x="25" y="3" width="1" height="1" fill="#01010118"/>
  <rect x="0" y="4" width="1" height="1" fill="#00000021"/>
  <rect x="1" y="4" width="1" height="1" fill="#06060633"/>
  <rect x="2" y="4" width="1" height="1" fill="#05050533"/>
  <rect x="3" y="4" width="1" height="1" fill="#d2d2d2a3"/>
  <rect x="4" y="4" width="1" height="1" fill="#d5d5d5a3"/>
  <rect x="5" y="4" width="1" height="1" fill="#d4d4d4a3"/>
  <rect x="6" y="4" width="1" height="1" fill="#0d0d0d33"/>
  <rect x="7" y="4" width="1" height="1" fill="#d0d0d0a3"/>
  <rect x="8" y="4" width="1" height="1" fill="#d4d4d4a3"/>
  <rect x="9" y="4" width="1" height="1" fill="#cececea3"/>
  <rect x="10" y="4" width="1" height="1" fill="#03030333"/>
  <rect x="11" y="4" width="1" height="1" fill="#00000033"/>
  <rect x="12" y="4" width="1" height="1" fill="#00000021"/>
  <rect x="13" y="4" width="1" height="1" fill="#00000042"/>
  <rect x="16" y="4" width="2" height="1" fill="#bbbbbbba"/>
  <rect x="18" y="4" width="1" height="1" fill="#babababa"/>
  <rect x="19" y="4" width="1" height="1" fill="#00000066"/>
  <rect x="20" y="4" width="2" height="1" fill="#bbbbbbba"/>
  <rect x="22" y="4" width="1" height="1" fill="#babababa"/>
  <rect x="25" y="4" width="1" height="1" fill="#01010143"/>
  <rect x="0" y="5" width="1" height="1" fill="#0000002e"/>
  <rect x="1" y="5" width="1" height="1" fill="#05050533"/>
  <rect x="2" y="5" width="1" height="1" fill="#00000033"/>
  <rect x="3" y="5" width="1" height="1" fill="#09090933"/>
  <rect x="4" y="5" width="1" height="1" fill="#d3d3d3a3"/>
  <rect x="5" y="5" width="1" height="1" fill="#dbdbdba3"/>
  <rect x="6" y="5" width="1" height="1" fill="#dadadaa3"/>
  <rect x="7" y="5" width="1" height="1" fill="#cfcfcfa3"/>
  <rect x="8" y="5" width="1" height="1" fill="#cccccca3"/>
  <rect x="9" y="5" width="1" height="1" fill="#01010133"/>
  <rect x="10" y="5" width="1" height="1" fill="#00000033"/>
  <rect x="11" y="5" width="1" height="1" fill="#03030333"/>
  <rect x="12" y="5" width="1" height="1" fill="#0000002e"/>
  <rect x="13" y="5" width="1" height="1" fill="#0000005d"/>
  <rect x="14" y="5" width="3" height="1" fill="#00000066"/>
  <rect x="17" y="5" width="1" height="1" fill="#bbbbbbba"/>
  <rect x="18" y="5" width="1" height="1" fill="#bdbdbdba"/>
  <rect x="19" y="5" width="1" height="2" fill="#b9b9b9ba"/>
  <rect x="20" y="5" width="1" height="1" fill="#bdbdbdba"/>
  <rect x="21" y="5" width="1" height="1" fill="#b9b9b9ba"/>
  <rect x="22" y="5" width="2" height="1" fill="#00000066"/>
  <rect x="25" y="5" width="1" height="1" fill="#0101015c"/>
  <rect x="0" y="6" width="1" height="1" fill="#03030333"/>
  <rect x="1" y="6" width="1" height="1" fill="#0c0c0c33"/>
  <rect x="2" y="6" width="2" height="1" fill="#00000033"/>
  <rect x="4" y="6" width="1" height="1" fill="#0c0c0c33"/>
  <rect x="5" y="6" width="1" height="1" fill="#dadadaa3"/>
  <rect x="6" y="6" width="1" height="1" fill="#d9d9d9a3"/>
  <rect x="7" y="6" width="1" height="1" fill="#d4d4d4a3"/>
  <rect x="8" y="6" width="1" height="1" fill="#00000033"/>
  <rect x="9" y="6" width="1" height="1" fill="#03030333"/>
  <rect x="10" y="6" width="1" height="1" fill="#06060633"/>
  <rect x="11" y="6" width="1" height="1" fill="#00000033"/>
  <rect x="12" y="6" width="1" height="1" fill="#00000032"/>
  <rect x="13" y="6" width="4" height="1" fill="#00000066"/>
  <rect x="17" y="6" width="1" height="1" fill="#02020266"/>
  <rect x="18" y="6" width="1" height="1" fill="#b8b8b8ba"/>
  <rect x="20" y="6" width="1" height="1" fill="#bbbbbbba"/>
  <rect x="21" y="6" width="1" height="1" fill="#03030366"/>
  <rect x="22" y="6" width="1" height="1" fill="#00000066"/>
  <rect x="23" y="6" width="2" height="1" fill="#01010166"/>
  <rect x="25" y="6" width="1" height="1" fill="#01010164"/>
  <rect x="0" y="7" width="1" height="1" fill="#0505052e"/>
  <rect x="1" y="7" width="3" height="1" fill="#00000033"/>
  <rect x="4" y="7" width="1" height="1" fill="#d2d2d2a3"/>
  <rect x="5" y="7" width="1" height="1" fill="#cececea3"/>
  <rect x="6" y="7" width="2" height="1" fill="#d4d4d4a3"/>
  <rect x="8" y="7" width="1" height="1" fill="#cececea3"/>
  <rect x="9" y="7" width="3" height="1" fill="#00000033"/>
  <rect x="12" y="7" width="1" height="1" fill="#0000002e"/>
  <rect x="13" y="7" width="1" height="1" fill="#0000005d"/>
  <rect x="14" y="7" width="1" height="1" fill="#01010166"/>
  <rect x="15" y="7" width="1" height="1" fill="#00000066"/>
  <rect x="16" y="7" width="1" height="1" fill="#06060666"/>
  <rect x="17" y="7" width="1" height="1" fill="#b9b9b9ba"/>
  <rect x="18" y="7" width="1" height="1" fill="#bdbdbdba"/>
  <rect x="19" y="7" width="1" height="1" fill="#babababa"/>
  <rect x="20" y="7" width="1" height="1" fill="#b9b9b9ba"/>
  <rect x="21" y="7" width="1" height="1" fill="#bbbbbbba"/>
  <rect x="22" y="7" width="1" height="1" fill="#03030366"/>
  <rect x="23" y="7" width="1" height="1" fill="#00000066"/>
  <rect x="24" y="7" width="1" height="3" fill="#01010166"/>
  <rect x="25" y="7" width="1" height="1" fill="#0101015c"/>
  <rect x="0" y="8" width="1" height="1" fill="#02020221"/>
  <rect x="1" y="8" width="2" height="2" fill="#00000033"/>
  <rect x="3" y="8" width="1" height="1" fill="#d0d0d0a3"/>
  <rect x="4" y="8" width="1" height="1" fill="#dddddda3"/>
  <rect x="5" y="8" width="1" height="1" fill="#d4d4d4a3"/>
  <rect x="6" y="8" width="1" height="1" fill="#07070733"/>
  <rect x="7" y="8" width="1" height="1" fill="#d6d6d6a3"/>
  <rect x="8" y="8" width="1" height="1" fill="#d9d9d9a3"/>
  <rect x="9" y="8" width="1" height="1" fill="#d2d2d2a3"/>
  <rect x="10" y="8" width="1" height="1" fill="#07070733"/>
  <rect x="11" y="8" width="1" height="1" fill="#01010133"/>
  <rect x="12" y="8" width="1" height="1" fill="#05050521"/>
  <rect x="13" y="8" width="1" height="1" fill="#01010143"/>
  <rect x="14" y="8" width="1" height="1" fill="#02020266"/>
  <rect x="15" y="8" width="1" height="1" fill="#01010166"/>
  <rect x="16" y="8" width="1" height="1" fill="#bbbdbdba"/>
  <rect x="17" y="8" width="1" height="1" fill="#babcbbba"/>
  <rect x="18" y="8" width="1" height="1" fill="#b6b9b8ba"/>
  <rect x="19" y="8" width="1" height="1" fill="#00000066"/>
  <rect x="20" y="8" width="1" height="1" fill="#b9bbbaba"/>
  <rect x="21" y="8" width="1" height="1" fill="#b6b9b8ba"/>
  <rect x="22" y="8" width="1" height="1" fill="#babcbbba"/>
  <rect x="23" y="8" width="1" height="1" fill="#03050566"/>
  <rect x="25" y="8" width="1" height="1" fill="#01010143"/>
  <rect x="0" y="9" width="1" height="1" fill="#0909090c"/>
  <rect x="3" y="9" width="1" height="1" fill="#cececea3"/>
  <rect x="4" y="9" width="1" height="1" fill="#d2d2d2a3"/>
  <rect x="5" y="9" width="1" height="1" fill="#05050533"/>
  <rect x="6" y="9" width="1" height="1" fill="#06060633"/>
  <rect x="7" y="9" width="1" height="2" fill="#00000033"/>
  <rect x="8" y="9" width="1" height="1" fill="#d2d2d2a3"/>
  <rect x="9" y="9" width="1" height="1" fill="#d0d0d0a3"/>
  <rect x="10" y="9" width="2" height="1" fill="#00000033"/>
  <rect x="12" y="9" width="1" height="1" fill="#0000000c"/>
  <rect x="13" y="9" width="1" height="1" fill="#00000018"/>
  <rect x="14" y="9" width="1" height="1" fill="#00000066"/>
  <rect x="15" y="9" width="1" height="1" fill="#05050566"/>
  <rect x="16" y="9" width="1" height="1" fill="#babcbbba"/>
  <rect x="17" y="9" width="1" height="1" fill="#bbbdbdba"/>
  <rect x="18" y="9" width="1" height="1" fill="#01030266"/>
  <rect x="19" y="9" width="1" height="1" fill="#00010066"/>
  <rect x="20" y="9" width="1" height="1" fill="#00020166"/>
  <rect x="21" y="9" width="1" height="1" fill="#b9bbbaba"/>
  <rect x="22" y="9" width="1" height="1" fill="#b4b6b6ba"/>
  <rect x="23" y="9" width="1" height="1" fill="#00010066"/>
  <rect x="25" y="9" width="1" height="1" fill="#01010118"/>
  <rect x="1" y="10" width="1" height="1" fill="#0606061e"/>
  <rect x="2" y="10" width="1" height="1" fill="#00000033"/>
  <rect x="3" y="10" width="1" height="1" fill="#03030333"/>
  <rect x="4" y="10" width="1" height="1" fill="#01010133"/>
  <rect x="5" y="10" width="1" height="1" fill="#00000033"/>
  <rect x="6" y="10" width="1" height="1" fill="#07070733"/>
  <rect x="8" y="10" width="1" height="1" fill="#07070733"/>
  <rect x="9" y="10" width="1" height="2" fill="#00000033"/>
  <rect x="10" y="10" width="1" height="1" fill="#07070733"/>
  <rect x="11" y="10" width="1" height="1" fill="#0000001e"/>
  <rect x="14" y="10" width="1" height="1" fill="#0000003b"/>
  <rect x="15" y="10" width="1" height="1" fill="#01010166"/>
  <rect x="16" y="10" width="1" height="2" fill="#00020166"/>
  <rect x="17" y="10" width="1" height="2" fill="#00010066"/>
  <rect x="18" y="10" width="1" height="2" fill="#00000066"/>
  <rect x="19" y="10" width="1" height="1" fill="#00020166"/>
  <rect x="20" y="10" width="1" height="1" fill="#00000066"/>
  <rect x="21" y="10" width="1" height="1" fill="#00020166"/>
  <rect x="22" y="10" width="2" height="1" fill="#00010066"/>
  <rect x="24" y="10" width="1" height="1" fill="#0101013b"/>
  <rect x="2" y="11" width="1" height="1" fill="#0303031e"/>
  <rect x="3" y="11" width="1" height="1" fill="#01010133"/>
  <rect x="4" y="11" width="1" height="1" fill="#00000033"/>
  <rect x="5" y="11" width="1" height="1" fill="#02020233"/>
  <rect x="6" y="11" width="2" height="1" fill="#00000033"/>
  <rect x="8" y="11" width="1" height="1" fill="#01010133"/>
  <rect x="10" y="11" width="1" height="1" fill="#0000001e"/>
  <rect x="15" y="11" width="1" height="1" fill="#0505053c"/>
  <rect x="19" y="11" width="1" height="1" fill="#01030266"/>
  <rect x="20" y="11" width="3" height="1" fill="#00000066"/>
  <rect x="23" y="11" width="1" height="1" fill="#0000003c"/>
  <rect x="3" y="12" width="1" height="1" fill="#0000000c"/>
  <rect x="4" y="12" width="1" height="1" fill="#00000021"/>
  <rect x="5" y="12" width="1" height="1" fill="#0000002e"/>
  <rect x="6" y="12" width="1" height="1" fill="#00000032"/>
  <rect x="7" y="12" width="1" height="1" fill="#0000002e"/>
  <rect x="8" y="12" width="1" height="1" fill="#00000021"/>
  <rect x="9" y="12" width="1" height="1" fill="#0000000c"/>
  <rect x="16" y="12" width="1" height="1" fill="#00020118"/>
  <rect x="17" y="12" width="1" height="1" fill="#00010043"/>
  <rect x="18" y="12" width="1" height="1" fill="#0103025c"/>
  <rect x="19" y="12" width="1" height="1" fill="#00020164"/>
  <rect x="20" y="12" width="1" height="1" fill="#0000005c"/>
  <rect x="21" y="12" width="1" height="1" fill="#00010043"/>
  <rect x="22" y="12" width="1" height="1" fill="#00010018"/>
</svg>