<svg xmlns="http://www.w3.org/2000/svg" width="72" height="16" viewBox="0 0 72 16" shape-rendering="crispEdges">
  <rect x="1" y="0" width="1" height="1" fill="#8d8d8d"/>
  <rect x="2" y="0" width="1" height="1" fill="#a4a4a4"/>
  <rect x="3" y="0" width="1" height="1" fill="#a2a2a2"/>
  <rect x="4" y="0" width="1" height="1" fill="#a9a9a9"/>
  <rect x="5" y="0" width="1" height="1" fill="#a4a4a4"/>
  <rect x="6" y="0" width="1" height="1" fill="#9e9e9e"/>
  <rect x="7" y="0" width="1" height="1" fill="#9d9d9d"/>
  <rect x="8" y="0" width="1" height="1" fill="#a1a1a1"/>
  <rect x="9" y="0" width="3" height="2" fill="#a4a4a4"/>
  <rect x="12" y="0" width="4" height="3" fill="#a4a4a6"/>
  <rect x="16" y="0" width="4" height="4" fill="#a3a5a6"/>
  <rect x="20" y="0" width="2" height="3" fill="#a3a4a8"/>
  <rect x="22" y="0" width="1" height="1" fill="#a1a5a6e6"/>
  <rect x="23" y="0" width="1" height="1" fill="#a1a5a649"/>
  <rect x="25" y="0" width="1" height="1" fill="#979e9c"/>
  <rect x="26" y="0" width="1" height="1" fill="#aeb7b6"/>
  <rect x="27" y="0" width="1" height="1" fill="#afb8ba"/>
  <rect x="28" y="0" width="1" height="1" fill="#a7b0b4"/>
  <rect x="29" y="0" width="1" height="1" fill="#aeb6bf"/>
  <rect x="30" y="0" width="1" height="1" fill="#b0b8c3"/>
  <rect x="31" y="0" width="1" height="1" fill="#a9b1bc"/>
  <rect x="32" y="0" width="1" height="1" fill="#abb2bd"/>
  <rect x="33" y="0" width="2" height="1" fill="#a9b1bc"/>
  <rect x="35" y="0" width="1" height="1" fill="#abb2bd"/>
  <rect x="36" y="0" width="1" height="1" fill="#acb3be"/>
  <rect x="37" y="0" width="1" height="1" fill="#adb4bf"/>
  <rect x="38" y="0" width="4" height="4" fill="#adb5bd"/>
  <rect x="42" y="0" width="1" height="5" fill="#adb5bb"/>
  <rect x="43" y="0" width="1" height="5" fill="#acb4ba"/>
  <rect x="44" y="0" width="1" height="4" fill="#adb3b8"/>
  <rect x="45" y="0" width="1" height="1" fill="#acb2b7"/>
  <rect x="46" y="0" width="1" height="1" fill="#acb2b7e6"/>
  <rect x="47" y="0" width="1" height="1" fill="#acb2b749"/>
  <rect x="49" y="0" width="1" height="1" fill="#8d9196"/>
  <rect x="50" y="0" width="1" height="1" fill="#8a8d93"/>
  <rect x="51" y="0" width="1" height="1" fill="#898c92"/>
  <rect x="52" y="0" width="1" height="1" fill="#8a8c90"/>
  <rect x="53" y="0" width="9" height="1" fill="#8b8d91"/>
  <rect x="62" y="0" width="2" height="1" fill="#8a8c90"/>
  <rect x="64" y="0" width="2" height="1" fill="#8a8c8e"/>
  <rect x="66" y="0" width="3" height="1" fill="#898b8d"/>
  <rect x="69" y="0" width="1" height="1" fill="#8a8c8e"/>
  <rect x="70" y="0" width="1" height="1" fill="#8b8d8fe6"/>
  <rect x="71" y="0" width="1" height="1" fill="#8c8e9049"/>
  <rect x="2" y="1" width="1" height="1" fill="#848484"/>
  <rect x="3" y="1" width="2" height="1" fill="#a4a4a4"/>
  <rect x="5" y="1" width="1" height="1" fill="#a3a3a3"/>
  <rect x="6" y="1" width="1" height="1" fill="#a1a1a1"/>
  <rect x="7" y="1" width="1" height="1" fill="#a0a0a0"/>
  <rect x="8" y="1" width="1" height="1" fill="#a2a2a2"/>
  <rect x="22" y="1" width="1" height="1" fill="#a1a5a6"/>
  <rect x="23" y="1" width="1" height="1" fill="#a1a5a6e6"/>
  <rect x="26" y="1" width="1" height="1" fill="#919a99"/>
  <rect x="27" y="1" width="1" height="1" fill="#aeb7b9"/>
  <rect x="28" y="1" width="1" height="1" fill="#acb4b8"/>
  <rect x="29" y="1" width="1" height="1" fill="#afb7c0"/>
  <rect x="30" y="1" width="1" height="1" fill="#acb3be"/>
  <rect x="31" y="1" width="1" height="1" fill="#a6adb8"/>
  <rect x="32" y="1" width="1" height="1" fill="#a9b1bc"/>
  <rect x="33" y="1" width="1" height="1" fill="#abb2bd"/>
  <rect x="34" y="1" width="1" height="1" fill="#acb3be"/>
  <rect x="35" y="1" width="3" height="1" fill="#adb4bf"/>
  <rect x="45" y="1" width="2" height="1" fill="#acb2b7"/>
  <rect x="47" y="1" width="1" height="1" fill="#acb2b7e6"/>
  <rect x="50" y="1" width="1" height="1" fill="#a0a3a9"/>
  <rect x="51" y="1" width="1" height="1" fill="#a1a5aa"/>
  <rect x="52" y="1" width="1" height="1" fill="#a3a4a8"/>
  <rect x="53" y="1" width="9" height="1" fill="#a1a3a7"/>
  <rect x="62" y="1" width="2" height="1" fill="#a3a4a8"/>
  <rect x="64" y="1" width="2" height="1" fill="#a3a5a6"/>
  <rect x="66" y="1" width="2" height="1" fill="#a4a6a7"/>
  <rect x="68" y="1" width="1" height="1" fill="#a6a8aa"/>
  <rect x="69" y="1" width="1" height="3" fill="#a0a2a4"/>
  <rect x="70" y="1" width="1" height="1" fill="#989a9c"/>
  <rect x="71" y="1" width="1" height="1" fill="#929496e6"/>
  <rect x="3" y="2" width="1" height="1" fill="#8d8d8d"/>
  <rect x="4" y="2" width="1" height="1" fill="#9e9e9e"/>
  <rect x="5" y="2" width="1" height="1" fill="#a1a1a1"/>
  <rect x="6" y="2" width="1" height="1" fill="#a3a3a3"/>
  <rect x="7" y="2" width="5" height="1" fill="#a4a4a4"/>
  <rect x="22" y="2" width="2" height="1" fill="#a1a5a6"/>
  <rect x="27" y="2" width="1" height="1" fill="#969ea0"/>
  <rect x="28" y="2" width="1" height="1" fill="#a4acb0"/>
  <rect x="29" y="2" width="1" height="1" fill="#aeb6bf"/>
  <rect x="30" y="2" width="1" height="1" fill="#b0b8c3"/>
  <rect x="31" y="2" width="1" height="1" fill="#a8b0bb"/>
  <rect x="32" y="2" width="1" height="1" fill="#acb3be"/>
  <rect x="33" y="2" width="5" height="1" fill="#adb4bf"/>
  <rect x="45" y="2" width="3" height="2" fill="#acb2b7"/>
  <rect x="51" y="2" width="1" height="1" fill="#9ca0a6"/>
  <rect x="52" y="2" width="10" height="1" fill="#9fa1a5"/>
  <rect x="62" y="2" width="2" height="1" fill="#a0a2a6"/>
  <rect x="64" y="2" width="2" height="1" fill="#a0a2a4"/>
  <rect x="66" y="2" width="3" height="1" fill="#a1a3a5"/>
  <rect x="70" y="2" width="1" height="2" fill="#9fa1a3"/>
  <rect x="71" y="2" width="1" height="2" fill="#9ea0a2"/>
  <rect x="4" y="3" width="1" height="1" fill="#9c9c9c"/>
  <rect x="5" y="3" width="1" height="1" fill="#a0a0a0"/>
  <rect x="6" y="3" width="1" height="1" fill="#a4a4a4"/>
  <rect x="7" y="3" width="2" height="1" fill="#a5a5a5"/>
  <rect x="9" y="3" width="3" height="1" fill="#a4a4a4"/>
  <rect x="12" y="3" width="1" height="2" fill="#a3a3a5"/>
  <rect x="13" y="3" width="2" height="1" fill="#a4a4a6"/>
  <rect x="15" y="3" width="1" height="2" fill="#a5a5a7"/>
  <rect x="20" y="3" width="1" height="1" fill="#a3a4a8"/>
  <rect x="21" y="3" width="1" height="1" fill="#a1a3a7"/>
  <rect x="22" y="3" width="2" height="1" fill="#a0a4a5"/>
  <rect x="28" y="3" width="1" height="1" fill="#979fa3"/>
  <rect x="29" y="3" width="1" height="1" fill="#a5acb5"/>
  <rect x="30" y="3" width="1" height="1" fill="#adb4bf"/>
  <rect x="31" y="3" width="1" height="1" fill="#abb2bd"/>
  <rect x="32" y="3" width="6" height="1" fill="#adb4bf"/>
  <rect x="52" y="3" width="10" height="1" fill="#a3a4a8"/>
  <rect x="62" y="3" width="2" height="1" fill="#a1a3a7"/>
  <rect x="64" y="3" width="2" height="1" fill="#a1a3a5"/>
  <rect x="66" y="3" width="2" height="1" fill="#a0a2a4"/>
  <rect x="68" y="3" width="1" height="1" fill="#a1a3a5"/>
  <rect x="5" y="4" width="1" height="1" fill="#a1a1a1"/>
  <rect x="6" y="4" width="1" height="1" fill="#a3a3a3"/>
  <rect x="7" y="4" width="1" height="1" fill="#a5a5a5"/>
  <rect x="8" y="4" width="1" height="1" fill="#a8a7aa"/>
  <rect x="9" y="4" width="1" height="1" fill="#ababad"/>
  <rect x="10" y="4" width="1" height="1" fill="#aaaaac"/>
  <rect x="11" y="4" width="1" height="1" fill="#a5a5a7"/>
  <rect x="13" y="4" width="1" height="1" fill="#a7a6a9"/>
  <rect x="14" y="4" width="1" height="1" fill="#a9a8ab"/>
  <rect x="16" y="4" width="1" height="1" fill="#a1a3a7"/>
  <rect x="17" y="4" width="1" height="1" fill="#a3a4a8"/>
  <rect x="18" y="4" width="2" height="1" fill="#a4a5a9"/>
  <rect x="20" y="4" width="1" height="1" fill="#a1a3a7"/>
  <rect x="21" y="4" width="1" height="2" fill="#a0a2a6"/>
  <rect x="22" y="4" width="2" height="1" fill="#a0a2a4"/>
  <rect x="29" y="4" width="1" height="4" fill="#abb0ba"/>
  <rect x="30" y="4" width="2" height="1" fill="#abb2bd"/>
  <rect x="32" y="4" width="1" height="1" fill="#afb7c2"/>
  <rect x="33" y="4" width="1" height="1" fill="#aeb5c1"/>
  <rect x="34" y="4" width="1" height="1" fill="#abb2bd"/>
  <rect x="35" y="4" width="1" height="1" fill="#a6adb8"/>
  <rect x="36" y="4" width="2" height="1" fill="#acb3be"/>
  <rect x="38" y="4" width="1" height="1" fill="#abb2bb"/>
  <rect x="39" y="4" width="1" height="1" fill="#a9b1ba"/>
  <rect x="40" y="4" width="2" height="1" fill="#abb2bb"/>
  <rect x="44" y="4" width="2" height="1" fill="#adb3b8"/>
  <rect x="46" y="4" width="2" height="1" fill="#acb2b7"/>
  <rect x="53" y="4" width="1" height="4" fill="#9fa1a5"/>
  <rect x="54" y="4" width="2" height="4" fill="#a0a2a6"/>
  <rect x="56" y="4" width="8" height="2" fill="#a1a3a7"/>
  <rect x="64" y="4" width="4" height="2" fill="#a1a3a5"/>
  <rect x="68" y="4" width="4" height="2" fill="#a0a2a4"/>
  <rect x="5" y="5" width="1" height="2" fill="#a2a2a2"/>
  <rect x="6" y="5" width="2" height="2" fill="#a3a3a3"/>
  <rect x="8" y="5" width="1" height="1" fill="#a1a0a3"/>
  <rect x="9" y="5" width="1" height="1" fill="#9e9ea0"/>
  <rect x="10" y="5" width="1" height="1" fill="#a1a0a3"/>
  <rect x="11" y="5" width="1" height="1" fill="#a7a6a9"/>
  <rect x="12" y="5" width="1" height="1" fill="#a5a5a7"/>
  <rect x="13" y="5" width="1" height="1" fill="#a09fa2"/>
  <rect x="14" y="5" width="1" height="1" fill="#9d9d9f"/>
  <rect x="15" y="5" width="1" height="1" fill="#a1a0a3"/>
  <rect x="16" y="5" width="2" height="1" fill="#a0a2a6"/>
  <rect x="18" y="5" width="1" height="1" fill="#9ea0a4"/>
  <rect x="19" y="5" width="1" height="1" fill="#9d9ea2"/>
  <rect x="20" y="5" width="1" height="1" fill="#9ea0a4"/>
  <rect x="22" y="5" width="1" height="1" fill="#9fa1a3"/>
  <rect x="23" y="5" width="1" height="2" fill="#9fa2a1"/>
  <rect x="30" y="5" width="1" height="1" fill="#abb2bd"/>
  <rect x="31" y="5" width="1" height="1" fill="#acb3be"/>
  <rect x="32" y="5" width="3" height="1" fill="#adb4bf"/>
  <rect x="35" y="5" width="1" height="1" fill="#aeb5c1"/>
  <rect x="36" y="5" width="1" height="1" fill="#b3bac5"/>
  <rect x="37" y="5" width="1" height="1" fill="#aeb5c1"/>
  <rect x="38" y="5" width="2" height="1" fill="#abb2bb"/>
  <rect x="40" y="5" width="1" height="1" fill="#a9b1ba"/>
  <rect x="41" y="5" width="1" height="1" fill="#adb5bd"/>
  <rect x="42" y="5" width="1" height="1" fill="#abb3b9"/>
  <rect x="43" y="5" width="1" height="1" fill="#adb5bb"/>
  <rect x="44" y="5" width="1" height="1" fill="#afb5b9"/>
  <rect x="45" y="5" width="2" height="1" fill="#adb3b8"/>
  <rect x="47" y="5" width="1" height="1" fill="#acb2b7"/>
  <rect x="8" y="6" width="1" height="1" fill="#959798"/>
  <rect x="9" y="6" width="1" height="1" fill="#8b8d8f"/>
  <rect x="10" y="6" width="1" height="1" fill="#939597"/>
  <rect x="11" y="6" width="2" height="1" fill="#a6a8aa"/>
  <rect x="13" y="6" width="1" height="1" fill="#939597"/>
  <rect x="14" y="6" width="1" height="1" fill="#8b8d8f"/>
  <rect x="15" y="6" width="1" height="1" fill="#959798"/>
  <rect x="16" y="6" width="1" height="1" fill="#a1a3a5"/>
  <rect x="17" y="6" width="1" height="1" fill="#9d9fa0"/>
  <rect x="18" y="6" width="1" height="1" fill="#97999b"/>
  <rect x="19" y="6" width="1" height="1" fill="#939597"/>
  <rect x="20" y="6" width="1" height="1" fill="#989a9c"/>
  <rect x="21" y="6" width="1" height="1" fill="#9fa1a3"/>
  <rect x="22" y="6" width="1" height="1" fill="#a0a2a4"/>
  <rect x="30" y="6" width="2" height="2" fill="#abb2bd"/>
  <rect x="32" y="6" width="1" height="1" fill="#9aa2ab"/>
  <rect x="33" y="6" width="1" height="1" fill="#979ea7"/>
  <rect x="34" y="6" width="1" height="1" fill="#9da4ad"/>
  <rect x="35" y="6" width="1" height="1" fill="#a7afb8"/>
  <rect x="36" y="6" width="1" height="1" fill="#abb2bb"/>
  <rect x="37" y="6" width="1" height="1" fill="#9fa7af"/>
  <rect x="38" y="6" width="1" height="1" fill="#98a0a8"/>
  <rect x="39" y="6" width="1" height="1" fill="#9ba3ac"/>
  <rect x="40" y="6" width="1" height="1" fill="#abb2bb"/>
  <rect x="41" y="6" width="1" height="1" fill="#a9b1ba"/>
  <rect x="42" y="6" width="1" height="1" fill="#949da3"/>
  <rect x="43" y="6" width="1" height="1" fill="#939ba2"/>
  <rect x="44" y="6" width="1" height="1" fill="#a8aeb2"/>
  <rect x="45" y="6" width="1" height="1" fill="#afb5b9"/>
  <rect x="46" y="6" width="2" height="2" fill="#adb3b8"/>
  <rect x="56" y="6" width="12" height="1" fill="#a1a3a5"/>
  <rect x="68" y="6" width="3" height="1" fill="#a0a2a4"/>
  <rect x="71" y="6" width="1" height="4" fill="#a1a3a5"/>
  <rect x="5" y="7" width="1" height="1" fill="#a1a1a1"/>
  <rect x="6" y="7" width="2" height="1" fill="#a2a2a2"/>
  <rect x="8" y="7" width="1" height="1" fill="#8c8e907a"/>
  <rect x="9" y="7" width="1" height="1" fill="#8082830c"/>
  <rect x="10" y="7" width="1" height="1" fill="#8b8d8f7a"/>
  <rect x="11" y="7" width="2" height="1" fill="#a5a7a9"/>
  <rect x="13" y="7" width="1" height="1" fill="#8b8d8f7a"/>
  <rect x="14" y="7" width="1" height="1" fill="#8183840c"/>
  <rect x="15" y="7" width="1" height="1" fill="#8e90917a"/>
  <rect x="16" y="7" width="1" height="1" fill="#a0a2a4"/>
  <rect x="17" y="7" width="1" height="1" fill="#9c9e9f"/>
  <rect x="18" y="7" width="1" height="1" fill="#9193957a"/>
  <rect x="19" y="7" width="1" height="1" fill="#8a8c8e0c"/>
  <rect x="20" y="7" width="1" height="1" fill="#9092947a"/>
  <rect x="21" y="7" width="1" height="1" fill="#9c9e9f"/>
  <rect x="22" y="7" width="2" height="1" fill="#a0a3a2"/>
  <rect x="32" y="7" width="1" height="1" fill="#9199a17a"/>
  <rect x="33" y="7" width="1" height="1" fill="#8c949d0c"/>
  <rect x="34" y="7" width="1" height="1" fill="#969da67a"/>
  <rect x="35" y="7" width="1" height="1" fill="#a6aeb6"/>
  <rect x="36" y="7" width="1" height="1" fill="#a8b0b9"/>
  <rect x="37" y="7" width="1" height="1" fill="#979ea77a"/>
  <rect x="38" y="7" width="1" height="1" fill="#8f969f0c"/>
  <rect x="39" y="7" width="1" height="1" fill="#949ca57a"/>
  <rect x="40" y="7" width="1" height="1" fill="#a8b0b9"/>
  <rect x="41" y="7" width="1" height="1" fill="#abb2bb"/>
  <rect x="42" y="7" width="1" height="1" fill="#929aa17a"/>
  <rect x="43" y="7" width="1" height="1" fill="#949da30c"/>
  <rect x="44" y="7" width="1" height="1" fill="#9ca2a77a"/>
  <rect x="45" y="7" width="1" height="1" fill="#a8aeb2"/>
  <rect x="56" y="7" width="1" height="1" fill="#a1a3a57a"/>
  <rect x="57" y="7" width="1" height="1" fill="#a1a3a50c"/>
  <rect x="58" y="7" width="1" height="1" fill="#a1a3a57a"/>
  <rect x="59" y="7" width="2" height="1" fill="#a1a3a5"/>
  <rect x="61" y="7" width="1" height="1" fill="#a1a3a57a"/>
  <rect x="62" y="7" width="1" height="1" fill="#a1a3a50c"/>
  <rect x="63" y="7" width="1" height="1" fill="#a1a3a57a"/>
  <rect x="64" y="7" width="2" height="1" fill="#a1a3a5"/>
  <rect x="66" y="7" width="1" height="1" fill="#a1a3a57a"/>
  <rect x="67" y="7" width="1" height="1" fill="#a1a3a50c"/>
  <rect x="68" y="7" width="1" height="1" fill="#a0a2a47a"/>
  <rect x="69" y="7" width="2" height="1" fill="#a0a2a4"/>
  <rect x="5" y="8" width="1" height="1" fill="#a1a0a3"/>
  <rect x="6" y="8" width="2" height="1" fill="#a0a2a4"/>
  <rect x="10" y="8" width="1" height="1" fill="#9ca1a20c"/>
  <rect x="11" y="8" width="2" height="1" fill="#9fa3a4"/>
  <rect x="15" y="8" width="1" height="1" fill="#9ca1a20c"/>
  <rect x="16" y="8" width="1" height="1" fill="#9fa1a3"/>
  <rect x="17" y="8" width="1" height="1" fill="#9d9fa0"/>
  <rect x="20" y="8" width="1" height="1" fill="#9fa2a10c"/>
  <rect x="21" y="8" width="1" height="1" fill="#9d9f9e"/>
  <rect x="22" y="8" width="1" height="1" fill="#a0a3a2"/>
  <rect x="23" y="8" width="1" height="1" fill="#a1a4a1"/>
  <rect x="29" y="8" width="1" height="4" fill="#acb1bb"/>
  <rect x="30" y="8" width="2" height="4" fill="#acb3be"/>
  <rect x="34" y="8" width="1" height="1" fill="#a0a8b10c"/>
  <rect x="35" y="8" width="2" height="1" fill="#a6aeb6"/>
  <rect x="39" y="8" width="1" height="1" fill="#a4acb20c"/>
  <rect x="40" y="8" width="2" height="1" fill="#a8b0b7"/>
  <rect x="44" y="8" width="1" height="1" fill="#a9afb40c"/>
  <rect x="45" y="8" width="1" height="1" fill="#aab0b5"/>
  <rect x="46" y="8" width="2" height="1" fill="#acb2b7"/>
  <rect x="53" y="8" width="1" height="6" fill="#a0a2a6"/>
  <rect x="54" y="8" width="2" height="7" fill="#a0a2a4"/>
  <rect x="58" y="8" width="1" height="1" fill="#9799990c"/>
  <rect x="59" y="8" width="1" height="1" fill="#979999"/>
  <rect x="60" y="8" width="1" height="1" fill="#999c9b"/>
  <rect x="63" y="8" width="1" height="1" fill="#9597960c"/>
  <rect x="64" y="8" width="1" height="1" fill="#999b9d"/>
  <rect x="65" y="8" width="1" height="1" fill="#a4a6a7"/>
  <rect x="68" y="8" width="1" height="1" fill="#9698990c"/>
  <rect x="69" y="8" width="1" height="1" fill="#a1a3a5"/>
  <rect x="70" y="8" width="1" height="1" fill="#a0a2a4"/>
  <rect x="5" y="9" width="1" height="3" fill="#a09fa2"/>
  <rect x="6" y="9" width="2" height="3" fill="#9fa1a3"/>
  <rect x="8" y="9" width="1" height="1" fill="#9ea0a27a"/>
  <rect x="9" y="9" width="1" height="1" fill="#9ea0a20b"/>
  <rect x="10" y="9" width="1" height="1" fill="#9ca1a27a"/>
  <rect x="11" y="9" width="2" height="1" fill="#9ca1a2"/>
  <rect x="13" y="9" width="1" height="1" fill="#9ca1a27a"/>
  <rect x="14" y="9" width="1" height="1" fill="#9ea2a30b"/>
  <rect x="15" y="9" width="1" height="1" fill="#9ea2a37a"/>
  <rect x="16" y="9" width="2" height="1" fill="#a0a2a4"/>
  <rect x="18" y="9" width="1" height="1" fill="#a1a3a57a"/>
  <rect x="19" y="9" width="1" height="1" fill="#a1a3a50b"/>
  <rect x="20" y="9" width="1" height="1" fill="#a1a4a37a"/>
  <rect x="21" y="9" width="1" height="1" fill="#a1a4a3"/>
  <rect x="22" y="9" width="2" height="1" fill="#a1a4a1"/>
  <rect x="32" y="9" width="1" height="1" fill="#abb2bb7a"/>
  <rect x="33" y="9" width="1" height="1" fill="#adb5bd0b"/>
  <rect x="34" y="9" width="1" height="1" fill="#a9b1ba7a"/>
  <rect x="35" y="9" width="2" height="1" fill="#acb3bc"/>
  <rect x="37" y="9" width="1" height="1" fill="#a9b1ba7a"/>
  <rect x="38" y="9" width="1" height="1" fill="#adb5bb0b"/>
  <rect x="39" y="9" width="1" height="1" fill="#abb3b97a"/>
  <rect x="40" y="9" width="2" height="1" fill="#abb3b9"/>
  <rect x="42" y="9" width="1" height="1" fill="#abb3b97a"/>
  <rect x="43" y="9" width="1" height="1" fill="#abb3b90b"/>
  <rect x="44" y="9" width="1" height="1" fill="#abb1b67a"/>
  <rect x="45" y="9" width="1" height="1" fill="#acb2b7"/>
  <rect x="46" y="9" width="2" height="1" fill="#adb3b8"/>
  <rect x="56" y="9" width="1" height="1" fill="#9092947a"/>
  <rect x="57" y="9" width="1" height="1" fill="#87898a0b"/>
  <rect x="58" y="9" width="1" height="1" fill="#8f91907a"/>
  <rect x="59" y="9" width="2" height="1" fill="#a4a6a5"/>
  <rect x="61" y="9" width="1" height="1" fill="#8b8e8d7a"/>
  <rect x="62" y="9" width="1" height="1" fill="#898b8b0b"/>
  <rect x="63" y="9" width="1" height="1" fill="#8f91907a"/>
  <rect x="64" y="9" width="1" height="1" fill="#9fa1a3"/>
  <rect x="65" y="9" width="1" height="1" fill="#9ea0a2"/>
  <rect x="66" y="9" width="1" height="1" fill="#8b8d8f7a"/>
  <rect x="67" y="9" width="1" height="1" fill="#8a8c8e0b"/>
  <rect x="68" y="9" width="1" height="1" fill="#8e90917a"/>
  <rect x="69" y="9" width="1" height="1" fill="#a0a2a4"/>
  <rect x="70" y="9" width="1" height="1" fill="#9fa1a3"/>
  <rect x="8" y="10" width="3" height="1" fill="#9ca1a2"/>
  <rect x="11" y="10" width="1" height="1" fill="#9ba2a2"/>
  <rect x="12" y="10" width="2" height="2" fill="#9ca1a2"/>
  <rect x="14" y="10" width="2" height="2" fill="#9ea2a3"/>
  <rect x="16" y="10" width="2" height="2" fill="#9fa3a2"/>
  <rect x="18" y="10" width="2" height="2" fill="#a0a5a3"/>
  <rect x="20" y="10" width="1" height="1" fill="#a1a4a3"/>
  <rect x="21" y="10" width="2" height="1" fill="#a1a4a1"/>
  <rect x="23" y="10" width="1" height="1" fill="#a1a59f"/>
  <rect x="32" y="10" width="1" height="1" fill="#aeb6bf"/>
  <rect x="33" y="10" width="1" height="1" fill="#acb4ba"/>
  <rect x="34" y="10" width="1" height="2" fill="#afb7be"/>
  <rect x="35" y="10" width="2" height="1" fill="#adb5bb"/>
  <rect x="37" y="10" width="1" height="2" fill="#afb7be"/>
  <rect x="38" y="10" width="1" height="1" fill="#acb4ba"/>
  <rect x="39" y="10" width="1" height="1" fill="#aeb6bd"/>
  <rect x="40" y="10" width="4" height="1" fill="#adb5bb"/>
  <rect x="44" y="10" width="4" height="1" fill="#adb3b8"/>
  <rect x="56" y="10" width="1" height="1" fill="#939695"/>
  <rect x="57" y="10" width="1" height="1" fill="#8a8d8c"/>
  <rect x="58" y="10" width="1" height="1" fill="#939695"/>
  <rect x="59" y="10" width="1" height="1" fill="#a7aaa7"/>
  <rect x="60" y="10" width="1" height="1" fill="#a6a8a8"/>
  <rect x="61" y="10" width="1" height="1" fill="#969897"/>
  <rect x="62" y="10" width="1" height="1" fill="#888a89"/>
  <rect x="63" y="10" width="1" height="1" fill="#969897"/>
  <rect x="64" y="10" width="1" height="2" fill="#a3a5a4"/>
  <rect x="65" y="10" width="1" height="1" fill="#9ea0a0"/>
  <rect x="66" y="10" width="1" height="1" fill="#919493"/>
  <rect x="67" y="10" width="1" height="1" fill="#8b8e8d"/>
  <rect x="68" y="10" width="1" height="1" fill="#8f9192"/>
  <rect x="69" y="10" width="1" height="1" fill="#a3a5a6"/>
  <rect x="70" y="10" width="2" height="1" fill="#a1a3a5"/>
  <rect x="8" y="11" width="2" height="1" fill="#9ca1a2"/>
  <rect x="10" y="11" width="2" height="1" fill="#9ba2a2"/>
  <rect x="20" y="11" width="2" height="1" fill="#a1a4a1"/>
  <rect x="22" y="11" width="1" height="1" fill="#a1a59f"/>
  <rect x="23" y="11" width="1" height="1" fill="#a3a49f"/>
  <rect x="32" y="11" width="1" height="1" fill="#adb5bd"/>
  <rect x="33" y="11" width="1" height="1" fill="#a7afb6"/>
  <rect x="35" y="11" width="2" height="1" fill="#a9b2b8"/>
  <rect x="38" y="11" width="1" height="1" fill="#a7afb6"/>
  <rect x="39" y="11" width="1" height="1" fill="#adb5bb"/>
  <rect x="40" y="11" width="3" height="1" fill="#aeb6bd"/>
  <rect x="43" y="11" width="1" height="1" fill="#adb5bb"/>
  <rect x="44" y="11" width="1" height="1" fill="#afb5b9"/>
  <rect x="45" y="11" width="3" height="1" fill="#adb3b8"/>
  <rect x="56" y="11" width="2" height="5" fill="#a0a3a2"/>
  <rect x="58" y="11" width="2" height="5" fill="#a0a3a0"/>
  <rect x="60" y="11" width="1" height="1" fill="#9ea0a0"/>
  <rect x="61" y="11" width="1" height="1" fill="#a7aaa9"/>
  <rect x="62" y="11" width="1" height="1" fill="#9a9d9c"/>
  <rect x="63" y="11" width="1" height="1" fill="#a4a6a5"/>
  <rect x="65" y="11" width="1" height="1" fill="#a1a4a3"/>
  <rect x="66" y="11" width="1" height="1" fill="#a4a6a5"/>
  <rect x="67" y="11" width="1" height="1" fill="#a3a5a4"/>
  <rect x="68" y="11" width="1" height="1" fill="#a3a5a6"/>
  <rect x="69" y="11" width="1" height="1" fill="#a4a6a7"/>
  <rect x="70" y="11" width="2" height="1" fill="#a0a2a4"/>
  <rect x="5" y="12" width="1" height="1" fill="#9e9ea0"/>
  <rect x="6" y="12" width="1" height="1" fill="#9ea0a2"/>
  <rect x="7" y="12" width="1" height="1" fill="#9fa1a3"/>
  <rect x="8" y="12" width="1" height="1" fill="#a0a4a7"/>
  <rect x="9" y="12" width="1" height="1" fill="#a1a5a8"/>
  <rect x="10" y="12" width="2" height="1" fill="#a1a7a7"/>
  <rect x="12" y="12" width="2" height="1" fill="#a2a6a9"/>
  <rect x="14" y="12" width="4" height="1" fill="#a2a7a7"/>
  <rect x="18" y="12" width="1" height="1" fill="#a2a7a5"/>
  <rect x="19" y="12" width="1" height="1" fill="#a1a6a4"/>
  <rect x="20" y="12" width="1" height="1" fill="#a3a5a4"/>
  <rect x="21" y="12" width="1" height="1" fill="#a1a4a1"/>
  <rect x="22" y="12" width="2" height="1" fill="#a3a49f"/>
  <rect x="29" y="12" width="1" height="1" fill="#abb0ba"/>
  <rect x="30" y="12" width="2" height="1" fill="#abb2bd"/>
  <rect x="32" y="12" width="1" height="1" fill="#abb2bb"/>
  <rect x="33" y="12" width="2" height="1" fill="#acb4ba"/>
  <rect x="35" y="12" width="2" height="1" fill="#abb3b9"/>
  <rect x="37" y="12" width="1" height="1" fill="#adb5bb"/>
  <rect x="38" y="12" width="1" height="1" fill="#abb3b9"/>
  <rect x="39" y="12" width="1" height="1" fill="#acb4ba"/>
  <rect x="40" y="12" width="4" height="1" fill="#abb3b9"/>
  <rect x="44" y="12" width="1" height="1" fill="#b0b6bb"/>
  <rect x="45" y="12" width="1" height="1" fill="#afb5b9"/>
  <rect x="46" y="12" width="2" height="1" fill="#adb3b8"/>
  <rect x="60" y="12" width="4" height="4" fill="#a0a3a2"/>
  <rect x="64" y="12" width="4" height="4" fill="#a1a4a3"/>
  <rect x="68" y="12" width="1" height="1" fill="#a1a3a5"/>
  <rect x="69" y="12" width="1" height="1" fill="#a3a5a6"/>
  <rect x="70" y="12" width="1" height="1" fill="#a1a3a5"/>
  <rect x="71" y="12" width="1" height="1" fill="#a0a2a4"/>
  <rect x="5" y="13" width="1" height="1" fill="#a3a3a5"/>
  <rect x="6" y="13" width="1" height="1" fill="#a3a5a6"/>
  <rect x="7" y="13" width="1" height="1" fill="#a0a2a4"/>
  <rect x="8" y="13" width="1" height="1" fill="#9ea2a5"/>
  <rect x="9" y="13" width="1" height="1" fill="#9ca0a4"/>
  <rect x="10" y="13" width="2" height="1" fill="#9ba2a2"/>
  <rect x="12" y="13" width="2" height="1" fill="#9ca0a4"/>
  <rect x="14" y="13" width="4" height="1" fill="#9ca1a2"/>
  <rect x="18" y="13" width="2" height="1" fill="#9ea2a1"/>
  <rect x="20" y="13" width="2" height="1" fill="#9fa2a1"/>
  <rect x="22" y="13" width="1" height="1" fill="#a2a2a0"/>
  <rect x="23" y="13" width="1" height="1" fill="#a3a29e"/>
  <rect x="29" y="13" width="1" height="1" fill="#a9acb6"/>
  <rect x="30" y="13" width="1" height="1" fill="#afb3bf"/>
  <rect x="31" y="13" width="1" height="1" fill="#b4bbc6"/>
  <rect x="32" y="13" width="1" height="1" fill="#aeb6bf"/>
  <rect x="33" y="13" width="2" height="1" fill="#aeb6bd"/>
  <rect x="35" y="13" width="2" height="1" fill="#adb5bb"/>
  <rect x="37" y="13" width="1" height="1" fill="#afb7be"/>
  <rect x="38" y="13" width="1" height="1" fill="#adb5bb"/>
  <rect x="39" y="13" width="1" height="1" fill="#aeb6bd"/>
  <rect x="40" y="13" width="4" height="1" fill="#adb5bb"/>
  <rect x="44" y="13" width="1" height="1" fill="#afb5b9"/>
  <rect x="45" y="13" width="1" height="1" fill="#adb3b8"/>
  <rect x="46" y="13" width="1" height="1" fill="#abb1b6"/>
  <rect x="47" y="13" width="1" height="1" fill="#aab0b5"/>
  <rect x="68" y="13" width="4" height="1" fill="#a1a3a5"/>
  <rect x="5" y="14" width="1" height="1" fill="#9d9d9fe6"/>
  <rect x="6" y="14" width="1" height="1" fill="#9d9fa0"/>
  <rect x="7" y="14" width="1" height="1" fill="#9ea0a2"/>
  <rect x="8" y="14" width="2" height="1" fill="#9fa3a6"/>
  <rect x="10" y="14" width="2" height="1" fill="#9da4a4"/>
  <rect x="12" y="14" width="2" height="1" fill="#9fa3a6"/>
  <rect x="14" y="14" width="4" height="1" fill="#9fa3a4"/>
  <rect x="18" y="14" width="1" height="1" fill="#9ea2a1"/>
  <rect x="19" y="14" width="1" height="1" fill="#9ca1a0"/>
  <rect x="20" y="14" width="1" height="1" fill="#9c9e9d"/>
  <rect x="21" y="14" width="1" height="1" fill="#9a9d9c"/>
  <rect x="22" y="14" width="1" height="1" fill="#9b9b99"/>
  <rect x="23" y="14" width="1" height="1" fill="#9c9b97e7"/>
  <rect x="29" y="14" width="1" height="1" fill="#9fa2ace6"/>
  <rect x="30" y="14" width="1" height="1" fill="#9fa4b0"/>
  <rect x="31" y="14" width="1" height="1" fill="#abb2bd"/>
  <rect x="32" y="14" width="1" height="1" fill="#abb2bb"/>
  <rect x="33" y="14" width="2" height="1" fill="#abb3b9"/>
  <rect x="35" y="14" width="2" height="1" fill="#a9b2b8"/>
  <rect x="37" y="14" width="1" height="1" fill="#acb4ba"/>
  <rect x="38" y="14" width="1" height="1" fill="#a9b2b8"/>
  <rect x="39" y="14" width="1" height="1" fill="#abb3b9"/>
  <rect x="40" y="14" width="4" height="1" fill="#a9b2b8"/>
  <rect x="44" y="14" width="1" height="1" fill="#b2b8bd"/>
  <rect x="45" y="14" width="1" height="1" fill="#acb2b7"/>
  <rect x="46" y="14" width="1" height="1" fill="#a4aaaf"/>
  <rect x="47" y="14" width="1" height="1" fill="#9fa5aae7"/>
  <rect x="53" y="14" width="1" height="1" fill="#a0a2a6e6"/>
  <rect x="68" y="14" width="3" height="1" fill="#a1a3a5"/>
  <rect x="71" y="14" width="1" height="1" fill="#a1a3a5e7"/>
  <rect x="5" y="15" width="1" height="1" fill="#9090924a"/>
  <rect x="6" y="15" width="1" height="1" fill="#8f9192e7"/>
  <rect x="7" y="15" width="1" height="1" fill="#8e9091"/>
  <rect x="8" y="15" width="1" height="1" fill="#878b8f"/>
  <rect x="9" y="15" width="1" height="1" fill="#85898c"/>
  <rect x="10" y="15" width="2" height="1" fill="#838a8a"/>
  <rect x="12" y="15" width="2" height="1" fill="#85898c"/>
  <rect x="14" y="15" width="4" height="1" fill="#85898a"/>
  <rect x="18" y="15" width="1" height="1" fill="#868b89"/>
  <rect x="19" y="15" width="1" height="1" fill="#878c8b"/>
  <rect x="20" y="15" width="1" height="1" fill="#8b8e8d"/>
  <rect x="21" y="15" width="1" height="1" fill="#8c8f8e"/>
  <rect x="22" y="15" width="1" height="1" fill="#8f908de4"/>
  <rect x="23" y="15" width="1" height="1" fill="#918f8b4a"/>
  <rect x="29" y="15" width="1" height="1" fill="#9497a14a"/>
  <rect x="30" y="15" width="1" height="1" fill="#898e9ae7"/>
  <rect x="31" y="15" width="1" height="1" fill="#939ba6"/>
  <rect x="32" y="15" width="1" height="1" fill="#9199a1"/>
  <rect x="33" y="15" width="2" height="1" fill="#91999f"/>
  <rect x="35" y="15" width="2" height="1" fill="#90989e"/>
  <rect x="37" y="15" width="1" height="1" fill="#929aa1"/>
  <rect x="38" y="15" width="1" height="1" fill="#90989e"/>
  <rect x="39" y="15" width="1" height="1" fill="#91999f"/>
  <rect x="40" y="15" width="4" height="1" fill="#90989e"/>
  <rect x="44" y="15" width="1" height="1" fill="#93999d"/>
  <rect x="45" y="15" width="1" height="1" fill="#949a9f"/>
  <rect x="46" y="15" width="1" height="1" fill="#979da2e4"/>
  <rect x="47" y="15" width="1" height="1" fill="#989ea34a"/>
  <rect x="53" y="15" width="1" height="1" fill="#a0a2a64a"/>
  <rect x="54" y="15" width="1" height="1" fill="#a0a2a4e7"/>
  <rect x="55" y="15" width="1" height="1" fill="#a0a2a4"/>
  <rect x="68" y="15" width="2" height="1" fill="#a1a3a5"/>
  <rect x="70" y="15" width="1" height="1" fill="#a1a3a5e4"/>
  <rect x="71" y="15" width="1" height="1" fill="#a1a3a54a"/>
</svg>