<svg xmlns="http://www.w3.org/2000/svg" width="18" height="18" viewBox="0 0 18 18" shape-rendering="crispEdges">
  <rect x="7" y="1" width="1" height="1" fill="#2ca40013"/>
  <rect x="8" y="1" width="1" height="1" fill="#399b0025"/>
  <rect x="9" y="1" width="1" height="1" fill="#3b9a0340"/>
  <rect x="10" y="1" width="1" height="1" fill="#319e0560"/>
  <rect x="11" y="1" width="1" height="1" fill="#2ba1077e"/>
  <rect x="12" y="1" width="1" height="1" fill="#29a2059d"/>
  <rect x="13" y="1" width="1" height="1" fill="#2ca201bd"/>
  <rect x="14" y="1" width="1" height="1" fill="#349e00d5"/>
  <rect x="15" y="1" width="1" height="1" fill="#369e00ec"/>
  <rect x="16" y="1" width="1" height="1" fill="#31a000dc"/>
  <rect x="5" y="2" width="1" height="1" fill="#3c941c61"/>
  <rect x="6" y="2" width="1" height="1" fill="#319e05d0"/>
  <rect x="7" y="2" width="1" height="1" fill="#2ea200e7"/>
  <rect x="8" y="2" width="1" height="1" fill="#31a000fb"/>
  <rect x="9" y="2" width="1" height="1" fill="#319f01"/>
  <rect x="10" y="2" width="1" height="1" fill="#2ca200"/>
  <rect x="11" y="2" width="1" height="1" fill="#2ba300"/>
  <rect x="12" y="2" width="1" height="1" fill="#2ca201"/>
  <rect x="13" y="2" width="1" height="1" fill="#30a003"/>
  <rect x="14" y="2" width="1" height="1" fill="#369c07"/>
  <rect x="15" y="2" width="1" height="1" fill="#369c05"/>
  <rect x="16" y="2" width="1" height="1" fill="#319f01"/>
  <rect x="5" y="3" width="1" height="1" fill="#319e07ab"/>
  <rect x="6" y="3" width="1" height="1" fill="#30a001"/>
  <rect x="7" y="3" width="1" height="1" fill="#30a000"/>
  <rect x="8" y="3" width="2" height="1" fill="#2ea003"/>
  <rect x="10" y="3" width="2" height="1" fill="#2ca201"/>
  <rect x="12" y="3" width="1" height="1" fill="#2ea003"/>
  <rect x="13" y="3" width="1" height="1" fill="#309f05fd"/>
  <rect x="14" y="3" width="1" height="1" fill="#339d09f7"/>
  <rect x="15" y="3" width="1" height="1" fill="#339d07f8"/>
  <rect x="16" y="3" width="1" height="1" fill="#30a003"/>
  <rect x="5" y="4" width="1" height="1" fill="#28a500b6"/>
  <rect x="6" y="4" width="1" height="1" fill="#2ea100"/>
  <rect x="7" y="4" width="1" height="1" fill="#319f03f8"/>
  <rect x="8" y="4" width="1" height="1" fill="#309f07f2"/>
  <rect x="9" y="4" width="1" height="1" fill="#2e9f09e9"/>
  <rect x="10" y="4" width="1" height="1" fill="#309e0be1"/>
  <rect x="11" y="4" width="1" height="1" fill="#309e0bd8"/>
  <rect x="12" y="4" width="1" height="1" fill="#2e9f09d0"/>
  <rect x="13" y="4" width="1" height="1" fill="#2ca007c4"/>
  <rect x="14" y="4" width="1" height="1" fill="#29a303ac"/>
  <rect x="15" y="4" width="1" height="1" fill="#29a301cd"/>
  <rect x="16" y="4" width="1" height="2" fill="#2ca201"/>
  <rect x="5" y="5" width="1" height="1" fill="#23a800bb"/>
  <rect x="6" y="5" width="1" height="1" fill="#2ca200"/>
  <rect x="7" y="5" width="1" height="1" fill="#369b09b0"/>
  <rect x="8" y="5" width="1" height="1" fill="#3c951a98"/>
  <rect x="9" y="5" width="1" height="1" fill="#4190247e"/>
  <rect x="10" y="5" width="1" height="1" fill="#448d2c67"/>
  <rect x="11" y="5" width="1" height="1" fill="#438e2c4b"/>
  <rect x="12" y="5" width="1" height="1" fill="#3c922631"/>
  <rect x="13" y="5" width="1" height="1" fill="#36981a1e"/>
  <rect x="15" y="5" width="1" height="1" fill="#29a30193"/>
  <rect x="5" y="6" width="1" height="1" fill="#23a509bf"/>
  <rect x="6" y="6" width="1" height="1" fill="#2ba201"/>
  <rect x="7" y="6" width="1" height="1" fill="#3c96120a"/>
  <rect x="15" y="6" width="1" height="1" fill="#339d0994"/>
  <rect x="16" y="6" width="1" height="2" fill="#30a003"/>
  <rect x="5" y="7" width="1" height="1" fill="#26a20fbf"/>
  <rect x="6" y="7" width="1" height="1" fill="#2ba205"/>
  <rect x="15" y="7" width="1" height="1" fill="#339d0794"/>
  <rect x="5" y="8" width="1" height="1" fill="#2c9e12bf"/>
  <rect x="6" y="8" width="1" height="1" fill="#29a207"/>
  <rect x="15" y="8" width="1" height="1" fill="#2ca30094"/>
  <rect x="16" y="8" width="1" height="1" fill="#2ea100"/>
  <rect x="5" y="9" width="1" height="1" fill="#339c0fbf"/>
  <rect x="6" y="9" width="1" height="1" fill="#2ba109"/>
  <rect x="15" y="9" width="1" height="1" fill="#29a50090"/>
  <rect x="16" y="9" width="1" height="3" fill="#2ca200"/>
  <rect x="5" y="10" width="1" height="1" fill="#3b9909bd"/>
  <rect x="6" y="10" width="1" height="1" fill="#2ea007"/>
  <rect x="13" y="10" width="1" height="1" fill="#2e9d1640"/>
  <rect x="14" y="10" width="1" height="1" fill="#2ba3004c"/>
  <rect x="15" y="10" width="1" height="1" fill="#2ba400a6"/>
  <rect x="2" y="11" width="1" height="1" fill="#43940b0f"/>
  <rect x="3" y="11" width="1" height="1" fill="#399d0043"/>
  <rect x="4" y="11" width="1" height="1" fill="#40980043"/>
  <rect x="5" y="11" width="1" height="1" fill="#3b9a03c8"/>
  <rect x="6" y="11" width="1" height="1" fill="#2ea005"/>
  <rect x="11" y="11" width="1" height="1" fill="#28a3052f"/>
  <rect x="12" y="11" width="1" height="1" fill="#24a409d2"/>
  <rect x="13" y="11" width="1" height="1" fill="#24a505"/>
  <rect x="14" y="11" width="1" height="1" fill="#28a600"/>
  <rect x="15" y="11" width="1" height="1" fill="#2ba400fe"/>
  <rect x="1" y="12" width="1" height="1" fill="#43902043"/>
  <rect x="2" y="12" width="1" height="1" fill="#41950bde"/>
  <rect x="3" y="12" width="1" height="1" fill="#409800"/>
  <rect x="4" y="12" width="1" height="1" fill="#3c9a00"/>
  <rect x="5" y="12" width="1" height="1" fill="#369d00fd"/>
  <rect x="6" y="12" width="1" height="1" fill="#2ba201"/>
  <rect x="11" y="12" width="1" height="1" fill="#339d09c5"/>
  <rect x="12" y="12" width="1" height="1" fill="#309e0d"/>
  <rect x="13" y="12" width="1" height="1" fill="#2e9f09"/>
  <rect x="14" y="12" width="2" height="1" fill="#2ba400"/>
  <rect x="16" y="12" width="1" height="1" fill="#2ca200f8"/>
  <rect x="1" y="13" width="1" height="1" fill="#339c0fe1"/>
  <rect x="2" y="13" width="1" height="1" fill="#3b9909"/>
  <rect x="3" y="13" width="1" height="1" fill="#3b9a03"/>
  <rect x="4" y="13" width="1" height="1" fill="#369d00"/>
  <rect x="5" y="13" width="1" height="1" fill="#30a100"/>
  <rect x="6" y="13" width="1" height="1" fill="#2ba205"/>
  <rect x="11" y="13" width="1" height="1" fill="#369c05e2"/>
  <rect x="12" y="13" width="1" height="1" fill="#339d09"/>
  <rect x="13" y="13" width="1" height="1" fill="#309f05"/>
  <rect x="14" y="13" width="1" height="1" fill="#2ca300"/>
  <rect x="15" y="13" width="1" height="1" fill="#2ba400"/>
  <rect x="16" y="13" width="1" height="1" fill="#2ca200ea"/>
  <rect x="1" y="14" width="1" height="1" fill="#2ba109f3"/>
  <rect x="2" y="14" width="1" height="1" fill="#2ea007"/>
  <rect x="3" y="14" width="1" height="1" fill="#2ea005"/>
  <rect x="4" y="14" width="1" height="1" fill="#2ba201"/>
  <rect x="5" y="14" width="1" height="1" fill="#2ba205"/>
  <rect x="6" y="14" width="1" height="1" fill="#309d0fe7"/>
  <rect x="11" y="14" width="1" height="1" fill="#31a100a2"/>
  <rect x="12" y="14" width="1" height="1" fill="#2ea200f0"/>
  <rect x="13" y="14" width="1" height="1" fill="#2ca300fd"/>
  <rect x="14" y="14" width="1" height="1" fill="#2ba500fc"/>
  <rect x="15" y="14" width="1" height="1" fill="#2ba400ed"/>
  <rect x="16" y="14" width="1" height="1" fill="#2ca2009f"/>
  <rect x="1" y="15" width="1" height="1" fill="#28a403c0"/>
  <rect x="2" y="15" width="1" height="1" fill="#29a205f5"/>
  <rect x="3" y="15" width="1" height="1" fill="#28a305fd"/>
  <rect x="4" y="15" width="1" height="1" fill="#28a403fb"/>
  <rect x="5" y="15" width="1" height="1" fill="#29a207e9"/>
  <rect x="6" y="15" width="1" height="1" fill="#309d0f82"/>
  <rect x="11" y="15" width="1" height="1" fill="#39990922"/>
  <rect x="12" y="15" width="1" height="1" fill="#31a00094"/>
  <rect x="13" y="15" width="1" height="1" fill="#2ca300c1"/>
  <rect x="14" y="15" width="1" height="1" fill="#2ba400be"/>
  <rect x="15" y="15" width="1" height="1" fill="#30a00188"/>
  <rect x="16" y="15" width="1" height="1" fill="#3998141a"/>
  <rect x="1" y="16" width="1" height="1" fill="#2ba20135"/>
  <rect x="2" y="16" width="1" height="1" fill="#2ba201a0"/>
  <rect x="3" y="16" width="1" height="1" fill="#2ba201bb"/>
  <rect x="4" y="16" width="1" height="1" fill="#2ba201b5"/>
  <rect x="5" y="16" width="1" height="1" fill="#2ba2017e"/>
  <rect x="6" y="16" width="1" height="1" fill="#2ea00510"/>
  <rect x="13" y="16" width="1" height="1" fill="#2ea10116"/>
  <rect x="14" y="16" width="1" height="1" fill="#2ca20013"/>
</svg>