<svg xmlns="http://www.w3.org/2000/svg" width="12" height="12" viewBox="0 0 12 12" shape-rendering="crispEdges">
  <rect x="3" y="0" width="1" height="1" fill="#4ab5de67"/>
  <rect x="4" y="0" width="1" height="1" fill="#4ab5dec8"/>
  <rect x="5" y="0" width="1" height="1" fill="#48b6def2"/>
  <rect x="6" y="0" width="1" height="1" fill="#45b7def4"/>
  <rect x="7" y="0" width="1" height="1" fill="#44b8deca"/>
  <rect x="8" y="0" width="1" height="1" fill="#45b7e071"/>
  <rect x="1" y="1" width="1" height="1" fill="#45b8dc1a"/>
  <rect x="2" y="1" width="1" height="1" fill="#48b6decf"/>
  <rect x="3" y="1" width="2" height="1" fill="#4bb4e0"/>
  <rect x="5" y="1" width="1" height="1" fill="#4ab5de"/>
  <rect x="6" y="1" width="1" height="1" fill="#45b7de"/>
  <rect x="7" y="1" width="1" height="2" fill="#44b8de"/>
  <rect x="8" y="1" width="1" height="1" fill="#45b7e0"/>
  <rect x="9" y="1" width="1" height="1" fill="#45b7e0d7"/>
  <rect x="10" y="1" width="1" height="1" fill="#47b6e221"/>
  <rect x="1" y="2" width="1" height="1" fill="#45b7dec9"/>
  <rect x="2" y="2" width="1" height="1" fill="#4bb4e0"/>
  <rect x="3" y="2" width="1" height="1" fill="#4db3e2"/>
  <rect x="4" y="2" width="1" height="1" fill="#4db3e2e9"/>
  <rect x="5" y="2" width="1" height="1" fill="#4bb4e055"/>
  <rect x="6" y="2" width="1" height="1" fill="#47b7de"/>
  <rect x="8" y="2" width="1" height="1" fill="#45b7e0c2"/>
  <rect x="9" y="2" width="1" height="1" fill="#47b6e097"/>
  <rect x="10" y="2" width="1" height="1" fill="#47b6e2d2"/>
  <rect x="0" y="3" width="1" height="1" fill="#44b9dc6c"/>
  <rect x="1" y="3" width="1" height="1" fill="#4bb5da"/>
  <rect x="2" y="3" width="1" height="1" fill="#58b0d4"/>
  <rect x="3" y="3" width="1" height="1" fill="#5fadd2a5"/>
  <rect x="4" y="3" width="1" height="1" fill="#5fadd213"/>
  <rect x="6" y="3" width="1" height="1" fill="#4bb5da"/>
  <rect x="7" y="3" width="1" height="1" fill="#45b7dec0"/>
  <rect x="8" y="3" width="1" height="1" fill="#47b6e014"/>
  <rect x="9" y="3" width="1" height="1" fill="#47b6e0c1"/>
  <rect x="10" y="3" width="1" height="1" fill="#47b6e2"/>
  <rect x="11" y="3" width="1" height="1" fill="#47b6e273"/>
  <rect x="0" y="4" width="1" height="1" fill="#45b7dec8"/>
  <rect x="1" y="4" width="1" height="1" fill="#53b2d2"/>
  <rect x="6" y="4" width="1" height="1" fill="#53b2d2"/>
  <rect x="7" y="4" width="1" height="1" fill="#45b7de95"/>
  <rect x="8" y="4" width="1" height="1" fill="#47b6e0c1"/>
  <rect x="9" y="4" width="2" height="1" fill="#47b6e2"/>
  <rect x="11" y="4" width="1" height="1" fill="#47b6e2d0"/>
  <rect x="0" y="5" width="1" height="1" fill="#45b7def7"/>
  <rect x="1" y="5" width="1" height="1" fill="#58b1ce"/>
  <rect x="6" y="5" width="1" height="1" fill="#58b1ce"/>
  <rect x="7" y="5" width="1" height="1" fill="#45b7e0"/>
  <rect x="8" y="5" width="3" height="1" fill="#47b6e2"/>
  <rect x="11" y="5" width="1" height="1" fill="#47b6e2f7"/>
  <rect x="0" y="6" width="1" height="1" fill="#45b7def9"/>
  <rect x="1" y="6" width="1" height="1" fill="#58b0d0"/>
  <rect x="6" y="6" width="1" height="1" fill="#58b0d0"/>
  <rect x="7" y="6" width="1" height="1" fill="#45b7e02a"/>
  <rect x="8" y="6" width="1" height="1" fill="#47b6e211"/>
  <rect x="9" y="6" width="1" height="1" fill="#47b6e22f"/>
  <rect x="10" y="6" width="1" height="2" fill="#47b6e2"/>
  <rect x="11" y="6" width="1" height="1" fill="#47b6e2f9"/>
  <rect x="0" y="7" width="1" height="1" fill="#45b7decf"/>
  <rect x="1" y="7" width="1" height="1" fill="#53b2d4"/>
  <rect x="6" y="7" width="1" height="1" fill="#53b2d4"/>
  <rect x="7" y="7" width="1" height="1" fill="#45b7e0f6"/>
  <rect x="8" y="7" width="1" height="1" fill="#47b6e2ee"/>
  <rect x="9" y="7" width="1" height="1" fill="#47b6e2f6"/>
  <rect x="11" y="7" width="1" height="1" fill="#47b6e2d7"/>
  <rect x="0" y="8" width="1" height="1" fill="#45b7e075"/>
  <rect x="1" y="8" width="1" height="1" fill="#4ab5dc"/>
  <rect x="2" y="8" width="1" height="1" fill="#55b1d6"/>
  <rect x="3" y="8" width="1" height="1" fill="#5aafd2ab"/>
  <rect x="4" y="8" width="1" height="1" fill="#5aafd214"/>
  <rect x="6" y="8" width="1" height="1" fill="#4ab5dc"/>
  <rect x="7" y="8" width="1" height="1" fill="#45b7e098"/>
  <rect x="8" y="8" width="1" height="1" fill="#47b6e2c7"/>
  <rect x="9" y="8" width="2" height="1" fill="#47b6e2"/>
  <rect x="11" y="8" width="1" height="1" fill="#47b6e281"/>
  <rect x="0" y="9" width="1" height="1" fill="#45b7e00a"/>
  <rect x="1" y="9" width="1" height="1" fill="#45b7e0d2"/>
  <rect x="2" y="9" width="2" height="1" fill="#47b6e2"/>
  <rect x="4" y="9" width="1" height="1" fill="#47b6e2e8"/>
  <rect x="5" y="9" width="1" height="1" fill="#47b6e24e"/>
  <rect x="6" y="9" width="1" height="1" fill="#45b7e0"/>
  <rect x="7" y="9" width="1" height="1" fill="#45b7e0bb"/>
  <rect x="8" y="9" width="1" height="1" fill="#47b6e217"/>
  <rect x="9" y="9" width="1" height="1" fill="#47b6e2c5"/>
  <rect x="10" y="9" width="1" height="1" fill="#47b6e2db"/>
  <rect x="11" y="9" width="1" height="1" fill="#47b6e20e"/>
  <rect x="1" y="10" width="1" height="1" fill="#45b7e021"/>
  <rect x="2" y="10" width="1" height="1" fill="#47b6e2d7"/>
  <rect x="3" y="10" width="3" height="1" fill="#47b6e2"/>
  <rect x="6" y="10" width="2" height="1" fill="#45b7e0"/>
  <rect x="8" y="10" width="1" height="1" fill="#47b6e2bb"/>
  <rect x="9" y="10" width="1" height="1" fill="#47b6e26f"/>
  <rect x="10" y="10" width="1" height="1" fill="#47b6e228"/>
  <rect x="3" y="11" width="1" height="1" fill="#47b6e272"/>
  <rect x="4" y="11" width="1" height="1" fill="#47b6e2cd"/>
  <rect x="5" y="11" width="1" height="1" fill="#47b6e2f8"/>
  <rect x="6" y="11" width="1" height="1" fill="#45b7e0f9"/>
  <rect x="7" y="11" width="1" height="1" fill="#45b7e0d4"/>
  <rect x="8" y="11" width="1" height="1" fill="#47b6e27d"/>
  <rect x="9" y="11" width="1" height="1" fill="#47b6e20c"/>
</svg>