<svg xmlns="http://www.w3.org/2000/svg" width="12" height="12" viewBox="0 0 12 12" shape-rendering="crispEdges">
  <rect x="3" y="0" width="1" height="1" fill="#47b6e267"/>
  <rect x="4" y="0" width="1" height="1" fill="#47b6e2c8"/>
  <rect x="5" y="0" width="1" height="1" fill="#47b6e2f2"/>
  <rect x="6" y="0" width="1" height="1" fill="#47b6e2f4"/>
  <rect x="7" y="0" width="1" height="1" fill="#47b6e2ca"/>
  <rect x="8" y="0" width="1" height="1" fill="#47b6e271"/>
  <rect x="1" y="1" width="1" height="1" fill="#47b6e21a"/>
  <rect x="2" y="1" width="1" height="1" fill="#47b6e2cf"/>
  <rect x="3" y="1" width="2" height="1" fill="#47b6e2"/>
  <rect x="5" y="1" width="1" height="1" fill="#47b6e2fe"/>
  <rect x="6" y="1" width="3" height="1" fill="#47b6e2"/>
  <rect x="9" y="1" width="1" height="1" fill="#47b6e2d7"/>
  <rect x="10" y="1" width="1" height="1" fill="#47b6e221"/>
  <rect x="1" y="2" width="1" height="1" fill="#47b6e2c9"/>
  <rect x="2" y="2" width="2" height="1" fill="#47b6e2"/>
  <rect x="4" y="2" width="1" height="1" fill="#47b6e2fc"/>
  <rect x="5" y="2" width="1" height="1" fill="#47b6e22a"/>
  <rect x="6" y="2" width="1" height="1" fill="#47b6e22c"/>
  <rect x="7" y="2" width="1" height="1" fill="#47b6e2fd"/>
  <rect x="8" y="2" width="2" height="1" fill="#47b6e2"/>
  <rect x="10" y="2" width="1" height="1" fill="#47b6e2d2"/>
  <rect x="0" y="3" width="1" height="1" fill="#47b6e26c"/>
  <rect x="1" y="3" width="3" height="1" fill="#47b6e2"/>
  <rect x="4" y="3" width="1" height="1" fill="#47b6e2fb"/>
  <rect x="5" y="3" width="1" height="1" fill="#47b6e21f"/>
  <rect x="6" y="3" width="1" height="1" fill="#47b6e221"/>
  <rect x="7" y="3" width="1" height="1" fill="#47b6e2fc"/>
  <rect x="8" y="3" width="3" height="1" fill="#47b6e2"/>
  <rect x="11" y="3" width="1" height="1" fill="#47b6e273"/>
  <rect x="0" y="4" width="1" height="1" fill="#47b6e2c8"/>
  <rect x="1" y="4" width="4" height="5" fill="#47b6e2"/>
  <rect x="5" y="4" width="1" height="1" fill="#47b6e2f7"/>
  <rect x="6" y="4" width="1" height="1" fill="#47b6e2f8"/>
  <rect x="7" y="4" width="4" height="5" fill="#47b6e2"/>
  <rect x="11" y="4" width="1" height="1" fill="#47b6e2d0"/>
  <rect x="0" y="5" width="1" height="1" fill="#47b6e2f7"/>
  <rect x="5" y="5" width="1" height="1" fill="#47b6e22e"/>
  <rect x="6" y="5" width="1" height="1" fill="#47b6e230"/>
  <rect x="11" y="5" width="1" height="1" fill="#47b6e2f7"/>
  <rect x="0" y="6" width="1" height="1" fill="#47b6e2f9"/>
  <rect x="11" y="6" width="1" height="1" fill="#47b6e2f9"/>
  <rect x="0" y="7" width="1" height="1" fill="#47b6e2cf"/>
  <rect x="11" y="7" width="1" height="1" fill="#47b6e2d7"/>
  <rect x="0" y="8" width="1" height="1" fill="#47b6e275"/>
  <rect x="11" y="8" width="1" height="1" fill="#47b6e281"/>
  <rect x="0" y="9" width="1" height="1" fill="#47b6e20a"/>
  <rect x="1" y="9" width="1" height="1" fill="#47b6e2d2"/>
  <rect x="2" y="9" width="3" height="1" fill="#47b6e2"/>
  <rect x="5" y="9" width="1" height="1" fill="#47b6e237"/>
  <rect x="6" y="9" width="1" height="1" fill="#47b6e239"/>
  <rect x="7" y="9" width="3" height="1" fill="#47b6e2"/>
  <rect x="10" y="9" width="1" height="1" fill="#47b6e2db"/>
  <rect x="11" y="9" width="1" height="1" fill="#47b6e20e"/>
  <rect x="1" y="10" width="1" height="1" fill="#47b6e221"/>
  <rect x="2" y="10" width="1" height="1" fill="#47b6e2d7"/>
  <rect x="3" y="10" width="6" height="1" fill="#47b6e2"/>
  <rect x="9" y="10" width="1" height="1" fill="#47b6e2e1"/>
  <rect x="10" y="10" width="1" height="1" fill="#47b6e228"/>
  <rect x="3" y="11" width="1" height="1" fill="#47b6e272"/>
  <rect x="4" y="11" width="1" height="1" fill="#47b6e2cd"/>
  <rect x="5" y="11" width="1" height="1" fill="#47b6e2f8"/>
  <rect x="6" y="11" width="1" height="1" fill="#47b6e2f9"/>
  <rect x="7" y="11" width="1" height="1" fill="#47b6e2d4"/>
  <rect x="8" y="11" width="1" height="1" fill="#47b6e27d"/>
  <rect x="9" y="11" width="1" height="1" fill="#47b6e20c"/>
</svg>