<svg xmlns="http://www.w3.org/2000/svg" width="12" height="12" viewBox="0 0 12 12" shape-rendering="crispEdges">
  <rect x="3" y="0" width="1" height="1" fill="#ffb03d67"/>
  <rect x="4" y="0" width="1" height="1" fill="#ffb03dc8"/>
  <rect x="5" y="0" width="1" height="1" fill="#ffb03df2"/>
  <rect x="6" y="0" width="1" height="1" fill="#ffb03df4"/>
  <rect x="7" y="0" width="1" height="1" fill="#ffb03dca"/>
  <rect x="8" y="0" width="1" height="1" fill="#ffb03d71"/>
  <rect x="1" y="1" width="1" height="1" fill="#ffb03d1a"/>
  <rect x="2" y="1" width="1" height="1" fill="#ffb03dcf"/>
  <rect x="3" y="1" width="6" height="1" fill="#ffb03d"/>
  <rect x="9" y="1" width="1" height="1" fill="#ffb03dd7"/>
  <rect x="10" y="1" width="1" height="1" fill="#ffb03d21"/>
  <rect x="1" y="2" width="1" height="1" fill="#ffb03dc9"/>
  <rect x="2" y="2" width="3" height="1" fill="#ffb03d"/>
  <rect x="5" y="2" width="1" height="1" fill="#ffb03d31"/>
  <rect x="6" y="2" width="1" height="1" fill="#ffb03d32"/>
  <rect x="7" y="2" width="3" height="1" fill="#ffb03d"/>
  <rect x="10" y="2" width="1" height="1" fill="#ffb03dd2"/>
  <rect x="0" y="3" width="1" height="1" fill="#ffb03d6c"/>
  <rect x="1" y="3" width="4" height="5" fill="#ffb03d"/>
  <rect x="7" y="3" width="4" height="5" fill="#ffb03d"/>
  <rect x="11" y="3" width="1" height="1" fill="#ffb03d73"/>
  <rect x="0" y="4" width="1" height="1" fill="#ffb03dc8"/>
  <rect x="11" y="4" width="1" height="1" fill="#ffb03dd0"/>
  <rect x="0" y="5" width="1" height="1" fill="#ffb03df7"/>
  <rect x="11" y="5" width="1" height="1" fill="#ffb03df7"/>
  <rect x="0" y="6" width="1" height="1" fill="#ffb03df9"/>
  <rect x="5" y="6" width="1" height="1" fill="#ffb03d34"/>
  <rect x="6" y="6" width="1" height="1" fill="#ffb03d36"/>
  <rect x="11" y="6" width="1" height="1" fill="#ffb03df9"/>
  <rect x="0" y="7" width="1" height="1" fill="#ffb03dcf"/>
  <rect x="5" y="7" width="1" height="1" fill="#ffb03df4"/>
  <rect x="6" y="7" width="1" height="1" fill="#ffb03df5"/>
  <rect x="11" y="7" width="1" height="1" fill="#ffb03dd7"/>
  <rect x="0" y="8" width="1" height="1" fill="#ffb03d75"/>
  <rect x="1" y="8" width="3" height="1" fill="#ffb03d"/>
  <rect x="4" y="8" width="1" height="1" fill="#ffb03dfa"/>
  <rect x="5" y="8" width="1" height="1" fill="#ffb03d1b"/>
  <rect x="6" y="8" width="1" height="1" fill="#ffb03d1e"/>
  <rect x="7" y="8" width="1" height="1" fill="#ffb03dfc"/>
  <rect x="8" y="8" width="3" height="1" fill="#ffb03d"/>
  <rect x="11" y="8" width="1" height="1" fill="#ffb03d81"/>
  <rect x="0" y="9" width="1" height="1" fill="#ffb03d0a"/>
  <rect x="1" y="9" width="1" height="1" fill="#ffb03dd2"/>
  <rect x="2" y="9" width="2" height="1" fill="#ffb03d"/>
  <rect x="4" y="9" width="1" height="1" fill="#ffb03dfc"/>
  <rect x="5" y="9" width="1" height="1" fill="#ffb03d2f"/>
  <rect x="6" y="9" width="1" height="1" fill="#ffb03d31"/>
  <rect x="7" y="9" width="1" height="1" fill="#ffb03dfd"/>
  <rect x="8" y="9" width="2" height="1" fill="#ffb03d"/>
  <rect x="10" y="9" width="1" height="1" fill="#ffb03ddb"/>
  <rect x="11" y="9" width="1" height="1" fill="#ffb03d0e"/>
  <rect x="1" y="10" width="1" height="1" fill="#ffb03d21"/>
  <rect x="2" y="10" width="1" height="1" fill="#ffb03dd7"/>
  <rect x="3" y="10" width="6" height="1" fill="#ffb03d"/>
  <rect x="9" y="10" width="1" height="1" fill="#ffb03de1"/>
  <rect x="10" y="10" width="1" height="1" fill="#ffb03d28"/>
  <rect x="3" y="11" width="1" height="1" fill="#ffb03d72"/>
  <rect x="4" y="11" width="1" height="1" fill="#ffb03dcd"/>
  <rect x="5" y="11" width="1" height="1" fill="#ffb03df8"/>
  <rect x="6" y="11" width="1" height="1" fill="#ffb03df9"/>
  <rect x="7" y="11" width="1" height="1" fill="#ffb03dd4"/>
  <rect x="8" y="11" width="1" height="1" fill="#ffb03d7d"/>
  <rect x="9" y="11" width="1" height="1" fill="#ffb03d0c"/>
</svg>