<svg xmlns="http://www.w3.org/2000/svg" width="72" height="36" viewBox="0 0 72 36" shape-rendering="crispEdges">
  <rect x="7" y="3" width="1" height="1" fill="#6d6d6d59"/>
  <rect x="8" y="3" width="1" height="1" fill="#7373737a"/>
  <rect x="9" y="3" width="1" height="1" fill="#81818120"/>
  <rect x="24" y="3" width="1" height="1" fill="#5b8aac0d"/>
  <rect x="25" y="3" width="1" height="1" fill="#558cb3a6"/>
  <rect x="26" y="3" width="1" height="1" fill="#5a8bace5"/>
  <rect x="27" y="3" width="1" height="1" fill="#6089a43c"/>
  <rect x="42" y="3" width="1" height="1" fill="#6390ae0d"/>
  <rect x="43" y="3" width="1" height="1" fill="#5c91b8a6"/>
  <rect x="44" y="3" width="1" height="1" fill="#588db4e5"/>
  <rect x="45" y="3" width="1" height="1" fill="#6390ae3c"/>
  <rect x="61" y="3" width="1" height="1" fill="#76757859"/>
  <rect x="62" y="3" width="1" height="1" fill="#7675787a"/>
  <rect x="63" y="3" width="1" height="1" fill="#76757820"/>
  <rect x="5" y="4" width="1" height="1" fill="#7b7b7b27"/>
  <rect x="6" y="4" width="1" height="1" fill="#79797979"/>
  <rect x="7" y="4" width="1" height="1" fill="#8d8d8d7a"/>
  <rect x="8" y="4" width="1" height="1" fill="#96969675"/>
  <rect x="9" y="4" width="1" height="1" fill="#7f7f7f82"/>
  <rect x="10" y="4" width="1" height="1" fill="#6f6f6f4e"/>
  <rect x="23" y="4" width="1" height="1" fill="#5989af49"/>
  <rect x="24" y="4" width="1" height="1" fill="#5a90b9e3"/>
  <rect x="25" y="4" width="1" height="1" fill="#639cc4"/>
  <rect x="26" y="4" width="1" height="1" fill="#669bc0"/>
  <rect x="27" y="4" width="1" height="1" fill="#5e90b1fd"/>
  <rect x="28" y="4" width="1" height="1" fill="#5e8baa92"/>
  <rect x="29" y="4" width="1" height="1" fill="#648ba70b"/>
  <rect x="41" y="4" width="1" height="1" fill="#6391aa49"/>
  <rect x="42" y="4" width="1" height="1" fill="#578fb1e3"/>
  <rect x="43" y="4" width="1" height="1" fill="#5c98bf"/>
  <rect x="44" y="4" width="1" height="1" fill="#67a2c9"/>
  <rect x="45" y="4" width="1" height="1" fill="#639bbcfd"/>
  <rect x="46" y="4" width="1" height="1" fill="#6290a992"/>
  <rect x="47" y="4" width="1" height="1" fill="#61889f0b"/>
  <rect x="59" y="4" width="1" height="1" fill="#73747827"/>
  <rect x="60" y="4" width="1" height="1" fill="#7e7d8079"/>
  <rect x="61" y="4" width="1" height="1" fill="#9c9c9e7a"/>
  <rect x="62" y="4" width="1" height="1" fill="#9c9c9e75"/>
  <rect x="63" y="4" width="1" height="1" fill="#7e7d8082"/>
  <rect x="64" y="4" width="1" height="1" fill="#7676764e"/>
  <rect x="3" y="5" width="1" height="1" fill="#7373730a"/>
  <rect x="4" y="5" width="1" height="1" fill="#77777755"/>
  <rect x="5" y="5" width="1" height="1" fill="#86868682"/>
  <rect x="6" y="5" width="1" height="1" fill="#96969675"/>
  <rect x="7" y="5" width="1" height="1" fill="#9d9d9d73"/>
  <rect x="8" y="5" width="1" height="1" fill="#9e9e9e73"/>
  <rect x="9" y="5" width="1" height="1" fill="#9c9c9c73"/>
  <rect x="10" y="5" width="1" height="1" fill="#8e8e8e7c"/>
  <rect x="11" y="5" width="1" height="1" fill="#7a7a7a77"/>
  <rect x="12" y="5" width="1" height="1" fill="#70707024"/>
  <rect x="21" y="5" width="1" height="1" fill="#538fc112"/>
  <rect x="22" y="5" width="1" height="1" fill="#508cbfa0"/>
  <rect x="23" y="5" width="1" height="1" fill="#5693c2"/>
  <rect x="24" y="5" width="1" height="1" fill="#649fcb"/>
  <rect x="25" y="5" width="1" height="2" fill="#6aa2cd"/>
  <rect x="26" y="5" width="1" height="2" fill="#6ba2cb"/>
  <rect x="27" y="5" width="1" height="1" fill="#699ec5"/>
  <rect x="28" y="5" width="1" height="1" fill="#6a9cc2"/>
  <rect x="29" y="5" width="1" height="1" fill="#5788acdf"/>
  <rect x="30" y="5" width="1" height="1" fill="#5785a844"/>
  <rect x="39" y="5" width="1" height="1" fill="#5685a512"/>
  <rect x="40" y="5" width="1" height="1" fill="#578daaa0"/>
  <rect x="41" y="5" width="1" height="1" fill="#5c96b7"/>
  <rect x="42" y="5" width="1" height="1" fill="#619fc3"/>
  <rect x="43" y="5" width="1" height="1" fill="#66a6cc"/>
  <rect x="44" y="5" width="1" height="1" fill="#68a9ce"/>
  <rect x="45" y="5" width="1" height="1" fill="#65a4c7"/>
  <rect x="46" y="5" width="1" height="1" fill="#639dbe"/>
  <rect x="47" y="5" width="1" height="1" fill="#5f95b3df"/>
  <rect x="48" y="5" width="1" height="1" fill="#5d8fae44"/>
  <rect x="57" y="5" width="1" height="1" fill="#6e70740a"/>
  <rect x="58" y="5" width="1" height="1" fill="#66686c55"/>
  <rect x="59" y="5" width="1" height="1" fill="#797a7e82"/>
  <rect x="60" y="5" width="1" height="1" fill="#a09fa275"/>
  <rect x="61" y="5" width="2" height="1" fill="#a4a4a673"/>
  <rect x="63" y="5" width="1" height="1" fill="#a09fa273"/>
  <rect x="64" y="5" width="1" height="1" fill="#8e8e8e7c"/>
  <rect x="65" y="5" width="1" height="1" fill="#76767677"/>
  <rect x="66" y="5" width="1" height="1" fill="#77777724"/>
  <rect x="2" y="6" width="1" height="1" fill="#7373730d"/>
  <rect x="3" y="6" width="1" height="1" fill="#7272727b"/>
  <rect x="4" y="6" width="1" height="1" fill="#8b8b8b7b"/>
  <rect x="5" y="6" width="1" height="1" fill="#9b9b9b73"/>
  <rect x="6" y="6" width="1" height="1" fill="#9e9e9e73"/>
  <rect x="7" y="6" width="1" height="1" fill="#94949473"/>
  <rect x="8" y="6" width="1" height="1" fill="#a8a8a873"/>
  <rect x="9" y="6" width="2" height="1" fill="#9c9c9c73"/>
  <rect x="11" y="6" width="1" height="1" fill="#9e9e9e76"/>
  <rect x="12" y="6" width="1" height="1" fill="#7f7f7f81"/>
  <rect x="13" y="6" width="1" height="1" fill="#7272723d"/>
  <rect x="21" y="6" width="1" height="1" fill="#5490c2e9"/>
  <rect x="22" y="6" width="1" height="1" fill="#5892c2"/>
  <rect x="23" y="6" width="1" height="1" fill="#639bca"/>
  <rect x="24" y="6" width="1" height="1" fill="#6da7d3"/>
  <rect x="27" y="6" width="1" height="1" fill="#71a6cd"/>
  <rect x="28" y="6" width="1" height="1" fill="#75a8ce"/>
  <rect x="29" y="6" width="1" height="1" fill="#6fa0c3"/>
  <rect x="30" y="6" width="1" height="1" fill="#6293b5fe"/>
  <rect x="31" y="6" width="1" height="1" fill="#5e859f73"/>
  <rect x="39" y="6" width="1" height="1" fill="#558db0e9"/>
  <rect x="40" y="6" width="1" height="1" fill="#5f99ba"/>
  <rect x="41" y="6" width="1" height="1" fill="#63a2c1"/>
  <rect x="42" y="6" width="1" height="1" fill="#67aacc"/>
  <rect x="43" y="6" width="1" height="1" fill="#65aace"/>
  <rect x="44" y="6" width="1" height="1" fill="#63a8cc"/>
  <rect x="45" y="6" width="1" height="1" fill="#63a6c9"/>
  <rect x="46" y="6" width="1" height="1" fill="#65a4c3"/>
  <rect x="47" y="6" width="1" height="1" fill="#64a1c1"/>
  <rect x="48" y="6" width="1" height="1" fill="#66a0c5fe"/>
  <rect x="49" y="6" width="1" height="1" fill="#5b88a673"/>
  <rect x="56" y="6" width="1" height="1" fill="#74787b0d"/>
  <rect x="57" y="6" width="1" height="1" fill="#76787a7b"/>
  <rect x="58" y="6" width="1" height="1" fill="#898b8d7b"/>
  <rect x="59" y="6" width="1" height="1" fill="#a0a2a473"/>
  <rect x="60" y="6" width="1" height="1" fill="#9d9d9f73"/>
  <rect x="61" y="6" width="2" height="1" fill="#99999973"/>
  <rect x="63" y="6" width="2" height="1" fill="#9d9d9d73"/>
  <rect x="65" y="6" width="1" height="1" fill="#95959576"/>
  <rect x="66" y="6" width="1" height="1" fill="#80808081"/>
  <rect x="67" y="6" width="1" height="1" fill="#7373733d"/>
  <rect x="2" y="7" width="1" height="1" fill="#c5c5c525"/>
  <rect x="3" y="7" width="1" height="1" fill="#a4a4a47e"/>
  <rect x="4" y="7" width="1" height="1" fill="#99999973"/>
  <rect x="5" y="7" width="1" height="1" fill="#9d9d9d73"/>
  <rect x="6" y="7" width="1" height="1" fill="#a0a0a073"/>
  <rect x="7" y="7" width="2" height="1" fill="#9e9e9e73"/>
  <rect x="9" y="7" width="1" height="1" fill="#a0a0a073"/>
  <rect x="10" y="7" width="1" height="1" fill="#9c9c9c73"/>
  <rect x="11" y="7" width="1" height="1" fill="#94949473"/>
  <rect x="12" y="7" width="1" height="1" fill="#a5a5a575"/>
  <rect x="13" y="7" width="1" height="1" fill="#bfbfbf79"/>
  <rect x="21" y="7" width="1" height="1" fill="#6aa0cbfd"/>
  <rect x="22" y="7" width="1" height="1" fill="#6fa5d0"/>
  <rect x="23" y="7" width="1" height="1" fill="#6ba2cb"/>
  <rect x="24" y="7" width="1" height="1" fill="#6fa4c9"/>
  <rect x="25" y="7" width="1" height="1" fill="#679bbe"/>
  <rect x="26" y="7" width="1" height="1" fill="#699abc"/>
  <rect x="27" y="7" width="1" height="1" fill="#72a3c5"/>
  <rect x="28" y="7" width="1" height="1" fill="#6c9fc2"/>
  <rect x="29" y="7" width="1" height="1" fill="#679bbe"/>
  <rect x="30" y="7" width="1" height="1" fill="#73a5c6"/>
  <rect x="31" y="7" width="1" height="1" fill="#8fb6d0b8"/>
  <rect x="39" y="7" width="1" height="1" fill="#73a8cafd"/>
  <rect x="40" y="7" width="1" height="1" fill="#69a6c6"/>
  <rect x="41" y="7" width="1" height="1" fill="#67a7c6"/>
  <rect x="42" y="7" width="1" height="1" fill="#69a6c6"/>
  <rect x="43" y="7" width="1" height="1" fill="#6aa4c3"/>
  <rect x="44" y="7" width="1" height="1" fill="#6aa2c1"/>
  <rect x="45" y="7" width="1" height="1" fill="#68a3c3"/>
  <rect x="46" y="7" width="1" height="1" fill="#66a6c5"/>
  <rect x="47" y="7" width="1" height="1" fill="#67a6c8"/>
  <rect x="48" y="7" width="1" height="1" fill="#70a7cb"/>
  <rect x="49" y="7" width="1" height="1" fill="#81aac7b8"/>
  <rect x="56" y="7" width="1" height="1" fill="#caced125"/>
  <rect x="57" y="7" width="1" height="1" fill="#acaeb07e"/>
  <rect x="58" y="7" width="1" height="1" fill="#989a9c73"/>
  <rect x="59" y="7" width="1" height="1" fill="#9a9c9e73"/>
  <rect x="60" y="7" width="1" height="1" fill="#9b9b9b73"/>
  <rect x="61" y="7" width="2" height="1" fill="#a1a1a173"/>
  <rect x="63" y="7" width="1" height="1" fill="#9b9b9b73"/>
  <rect x="64" y="7" width="1" height="1" fill="#a1a1a173"/>
  <rect x="65" y="7" width="1" height="1" fill="#9e9e9e73"/>
  <rect x="66" y="7" width="1" height="1" fill="#a1a1a175"/>
  <rect x="67" y="7" width="1" height="1" fill="#bbbbbb79"/>
  <rect x="2" y="8" width="1" height="1" fill="#f9f9f91e"/>
  <rect x="3" y="8" width="1" height="1" fill="#efefefc9"/>
  <rect x="4" y="8" width="1" height="1" fill="#a5a5a573"/>
  <rect x="5" y="8" width="1" height="2" fill="#9a9a9a73"/>
  <rect x="6" y="8" width="1" height="1" fill="#cdcdcd9c"/>
  <rect x="7" y="8" width="1" height="1" fill="#fdfdfd"/>
  <rect x="8" y="8" width="1" height="1" fill="#ffffff"/>
  <rect x="9" y="8" width="1" height="1" fill="#e8e8e8d6"/>
  <rect x="10" y="8" width="1" height="1" fill="#9e9e9e73"/>
  <rect x="11" y="8" width="1" height="1" fill="#97979773"/>
  <rect x="12" y="8" width="1" height="1" fill="#cccccc9b"/>
  <rect x="13" y="8" width="1" height="1" fill="#f7f7f77e"/>
  <rect x="21" y="8" width="1" height="1" fill="#c0e8fff1"/>
  <rect x="22" y="8" width="1" height="1" fill="#72a5ca"/>
  <rect x="23" y="8" width="1" height="1" fill="#71a7cb"/>
  <rect x="24" y="8" width="1" height="1" fill="#93c0da"/>
  <rect x="25" y="8" width="1" height="1" fill="#daffff"/>
  <rect x="26" y="8" width="1" height="1" fill="#e3ffff"/>
  <rect x="27" y="8" width="1" height="1" fill="#c5efff"/>
  <rect x="28" y="8" width="1" height="1" fill="#73a5c4"/>
  <rect x="29" y="8" width="1" height="1" fill="#699fc1"/>
  <rect x="30" y="8" width="1" height="1" fill="#95c9e7fe"/>
  <rect x="31" y="8" width="1" height="1" fill="#e1ffff7e"/>
  <rect x="39" y="8" width="1" height="1" fill="#bfe6fef1"/>
  <rect x="40" y="8" width="1" height="1" fill="#6aa2c1"/>
  <rect x="41" y="8" width="1" height="1" fill="#6faaca"/>
  <rect x="42" y="8" width="1" height="1" fill="#94c2d9"/>
  <rect x="43" y="8" width="1" height="1" fill="#ebffff"/>
  <rect x="44" y="8" width="1" height="1" fill="#e3ffff"/>
  <rect x="45" y="8" width="1" height="1" fill="#c2e6ff"/>
  <rect x="46" y="8" width="1" height="1" fill="#6ea9c9"/>
  <rect x="47" y="8" width="1" height="1" fill="#64a1c1"/>
  <rect x="48" y="8" width="1" height="1" fill="#9cc7e4fe"/>
  <rect x="49" y="8" width="1" height="1" fill="#e2feff7e"/>
  <rect x="56" y="8" width="1" height="1" fill="#fdffff1e"/>
  <rect x="57" y="8" width="1" height="1" fill="#eceeeec9"/>
  <rect x="58" y="8" width="1" height="1" fill="#a4a6a573"/>
  <rect x="59" y="8" width="1" height="1" fill="#91949373"/>
  <rect x="60" y="8" width="1" height="1" fill="#d2d5d49c"/>
  <rect x="61" y="8" width="1" height="1" fill="#fcfffe"/>
  <rect x="62" y="8" width="1" height="1" fill="#f5f8f7"/>
  <rect x="63" y="8" width="1" height="1" fill="#e3e5e4d6"/>
  <rect x="64" y="8" width="1" height="2" fill="#999b9d73"/>
  <rect x="65" y="8" width="1" height="1" fill="#96989973"/>
  <rect x="66" y="8" width="1" height="1" fill="#cbcdcf9b"/>
  <rect x="67" y="8" width="1" height="1" fill="#fafafc7e"/>
  <rect x="3" y="9" width="1" height="1" fill="#c1c1c15a"/>
  <rect x="4" y="9" width="1" height="1" fill="#9c9c9c73"/>
  <rect x="6" y="9" width="1" height="1" fill="#b6b6b68a"/>
  <rect x="9" y="9" width="1" height="1" fill="#c7c7c75b"/>
  <rect x="10" y="9" width="2" height="1" fill="#9a9a9a73"/>
  <rect x="12" y="9" width="1" height="1" fill="#b7b7b78a"/>
  <rect x="21" y="9" width="1" height="1" fill="#a0c5db7f"/>
  <rect x="22" y="9" width="1" height="1" fill="#699fc1"/>
  <rect x="23" y="9" width="1" height="1" fill="#6aa2c3"/>
  <rect x="24" y="9" width="1" height="1" fill="#85b3cae9"/>
  <rect x="27" y="9" width="1" height="1" fill="#9fc5d880"/>
  <rect x="28" y="9" width="1" height="1" fill="#72a6c2"/>
  <rect x="29" y="9" width="1" height="1" fill="#74acce"/>
  <rect x="30" y="9" width="1" height="1" fill="#83b7d6e9"/>
  <rect x="39" y="9" width="1" height="1" fill="#a4c3d67f"/>
  <rect x="40" y="9" width="1" height="1" fill="#6da3c3"/>
  <rect x="41" y="9" width="1" height="1" fill="#69a1c2"/>
  <rect x="42" y="9" width="1" height="1" fill="#88b2c8e9"/>
  <rect x="45" y="9" width="1" height="1" fill="#99b5d080"/>
  <rect x="46" y="9" width="1" height="1" fill="#649ebf"/>
  <rect x="47" y="9" width="1" height="1" fill="#68a5c5"/>
  <rect x="48" y="9" width="1" height="1" fill="#8cb1cbe9"/>
  <rect x="57" y="9" width="1" height="1" fill="#c7c9c85a"/>
  <rect x="58" y="9" width="2" height="1" fill="#989b9a73"/>
  <rect x="60" y="9" width="1" height="1" fill="#babcbb8a"/>
  <rect x="63" y="9" width="1" height="1" fill="#cacdcc5b"/>
  <rect x="65" y="9" width="1" height="1" fill="#9d9fa073"/>
  <rect x="66" y="9" width="1" height="1" fill="#b9bbbc8a"/>
  <rect x="3" y="10" width="1" height="1" fill="#cfcfcf5b"/>
  <rect x="4" y="10" width="1" height="1" fill="#90909073"/>
  <rect x="5" y="10" width="1" height="1" fill="#9d9d9d73"/>
  <rect x="6" y="10" width="1" height="1" fill="#c0c0c08a"/>
  <rect x="9" y="10" width="1" height="1" fill="#bfbfbf5b"/>
  <rect x="10" y="10" width="1" height="1" fill="#95959573"/>
  <rect x="11" y="10" width="1" height="1" fill="#9a9a9a73"/>
  <rect x="12" y="10" width="1" height="1" fill="#bdbdbd8a"/>
  <rect x="21" y="10" width="1" height="1" fill="#8cbacf80"/>
  <rect x="22" y="10" width="1" height="1" fill="#61a0bf"/>
  <rect x="23" y="10" width="1" height="1" fill="#60a3c3"/>
  <rect x="24" y="10" width="1" height="1" fill="#88bcd8e9"/>
  <rect x="27" y="10" width="1" height="1" fill="#96c3d880"/>
  <rect x="28" y="10" width="1" height="1" fill="#75abcb"/>
  <rect x="29" y="10" width="1" height="1" fill="#6ea8cb"/>
  <rect x="30" y="10" width="1" height="1" fill="#7eb4d4e9"/>
  <rect x="39" y="10" width="1" height="1" fill="#96b4ca80"/>
  <rect x="40" y="10" width="1" height="1" fill="#6da2c5"/>
  <rect x="41" y="10" width="1" height="1" fill="#67a3c7"/>
  <rect x="42" y="10" width="1" height="1" fill="#87b4d0e9"/>
  <rect x="45" y="10" width="1" height="1" fill="#9ec0df80"/>
  <rect x="46" y="10" width="1" height="1" fill="#67a3c7"/>
  <rect x="47" y="10" width="1" height="1" fill="#69a8c9"/>
  <rect x="48" y="10" width="1" height="1" fill="#8fb6d0e9"/>
  <rect x="57" y="10" width="1" height="1" fill="#cacdca5b"/>
  <rect x="58" y="10" width="1" height="1" fill="#999c9973"/>
  <rect x="59" y="10" width="1" height="1" fill="#989b9873"/>
  <rect x="60" y="10" width="1" height="1" fill="#bcbfbe8a"/>
  <rect x="63" y="10" width="1" height="1" fill="#cdcfce5b"/>
  <rect x="64" y="10" width="2" height="1" fill="#9a9d9c73"/>
  <rect x="66" y="10" width="1" height="1" fill="#b5b8b78a"/>
  <rect x="3" y="11" width="1" height="1" fill="#c2c2c25b"/>
  <rect x="4" y="11" width="2" height="1" fill="#93939373"/>
  <rect x="6" y="11" width="1" height="1" fill="#b3b3b38a"/>
  <rect x="9" y="11" width="1" height="1" fill="#c7c7c75b"/>
  <rect x="10" y="11" width="1" height="2" fill="#97979773"/>
  <rect x="11" y="11" width="1" height="1" fill="#99999973"/>
  <rect x="12" y="11" width="1" height="1" fill="#b2b2b28a"/>
  <rect x="21" y="11" width="1" height="1" fill="#9ccbdd80"/>
  <rect x="22" y="11" width="1" height="1" fill="#62a4c0"/>
  <rect x="23" y="11" width="1" height="1" fill="#63a7c5"/>
  <rect x="24" y="11" width="1" height="1" fill="#80b9d6e9"/>
  <rect x="27" y="11" width="1" height="1" fill="#a0cce280"/>
  <rect x="28" y="11" width="1" height="1" fill="#6aa1be"/>
  <rect x="29" y="11" width="1" height="1" fill="#6ba3c5"/>
  <rect x="30" y="11" width="1" height="1" fill="#80b2cfe9"/>
  <rect x="39" y="11" width="1" height="1" fill="#a5c4d780"/>
  <rect x="40" y="11" width="1" height="1" fill="#6fa3c4"/>
  <rect x="41" y="11" width="1" height="1" fill="#6ba5c8"/>
  <rect x="42" y="11" width="1" height="1" fill="#89b9d4e9"/>
  <rect x="45" y="11" width="1" height="1" fill="#9cbddd80"/>
  <rect x="46" y="11" width="1" height="1" fill="#6aa4c7"/>
  <rect x="47" y="11" width="1" height="1" fill="#6da9c9"/>
  <rect x="48" y="11" width="1" height="1" fill="#89adc8e9"/>
  <rect x="57" y="11" width="1" height="1" fill="#c1c4c05b"/>
  <rect x="58" y="11" width="1" height="1" fill="#96999573"/>
  <rect x="59" y="11" width="1" height="1" fill="#999c9973"/>
  <rect x="60" y="11" width="1" height="1" fill="#b6b9b88a"/>
  <rect x="63" y="11" width="1" height="1" fill="#c7c9c85b"/>
  <rect x="64" y="11" width="1" height="1" fill="#91949373"/>
  <rect x="65" y="11" width="1" height="1" fill="#9c9e9d73"/>
  <rect x="66" y="11" width="1" height="1" fill="#babcbb8a"/>
  <rect x="3" y="12" width="1" height="1" fill="#c8c8c85b"/>
  <rect x="4" y="12" width="1" height="1" fill="#8e8e8e73"/>
  <rect x="5" y="12" width="1" height="2" fill="#97979773"/>
  <rect x="6" y="12" width="1" height="1" fill="#bababa8a"/>
  <rect x="9" y="12" width="1" height="1" fill="#c8c8c85b"/>
  <rect x="11" y="12" width="1" height="1" fill="#96969673"/>
  <rect x="12" y="12" width="1" height="1" fill="#b4b4b48a"/>
  <rect x="21" y="12" width="1" height="1" fill="#9bc4d180"/>
  <rect x="22" y="12" width="1" height="1" fill="#6aa4b9"/>
  <rect x="23" y="12" width="1" height="1" fill="#66a4bc"/>
  <rect x="24" y="12" width="1" height="1" fill="#83bad5e9"/>
  <rect x="27" y="12" width="1" height="1" fill="#94bcd080"/>
  <rect x="28" y="12" width="1" height="1" fill="#6c9cb7"/>
  <rect x="29" y="12" width="1" height="1" fill="#70a2bf"/>
  <rect x="30" y="12" width="1" height="1" fill="#8ebbd0e9"/>
  <rect x="39" y="12" width="1" height="1" fill="#a2bfd080"/>
  <rect x="40" y="12" width="1" height="1" fill="#6d9db8"/>
  <rect x="41" y="12" width="1" height="1" fill="#6ea2c1"/>
  <rect x="42" y="12" width="1" height="1" fill="#85b3cce9"/>
  <rect x="45" y="12" width="1" height="1" fill="#a0bfdd80"/>
  <rect x="46" y="12" width="1" height="1" fill="#71a5c3"/>
  <rect x="47" y="12" width="1" height="1" fill="#6aa1be"/>
  <rect x="48" y="12" width="1" height="1" fill="#90b3cbe9"/>
  <rect x="57" y="12" width="1" height="1" fill="#c3c6c35b"/>
  <rect x="58" y="12" width="1" height="1" fill="#8f928e73"/>
  <rect x="59" y="12" width="1" height="1" fill="#9da09c73"/>
  <rect x="60" y="12" width="1" height="1" fill="#bdc0bf8a"/>
  <rect x="63" y="12" width="1" height="1" fill="#c9cbcb5b"/>
  <rect x="64" y="12" width="1" height="2" fill="#97999973"/>
  <rect x="65" y="12" width="1" height="1" fill="#95979673"/>
  <rect x="66" y="12" width="1" height="1" fill="#b8bab98a"/>
  <rect x="3" y="13" width="1" height="1" fill="#dcdcdc53"/>
  <rect x="4" y="13" width="1" height="1" fill="#9e9e9e74"/>
  <rect x="6" y="13" width="1" height="1" fill="#b3b3b38a"/>
  <rect x="9" y="13" width="1" height="1" fill="#c9c9c95b"/>
  <rect x="10" y="13" width="1" height="1" fill="#9d9d9d73"/>
  <rect x="11" y="13" width="1" height="1" fill="#9b9b9b73"/>
  <rect x="12" y="13" width="1" height="1" fill="#cdcdcd92"/>
  <rect x="21" y="13" width="1" height="1" fill="#b8d4dd65"/>
  <rect x="22" y="13" width="1" height="1" fill="#76a1b0"/>
  <rect x="23" y="13" width="1" height="1" fill="#73a4b8"/>
  <rect x="24" y="13" width="1" height="1" fill="#82b2cbe9"/>
  <rect x="27" y="13" width="1" height="1" fill="#a0c4d680"/>
  <rect x="28" y="13" width="1" height="1" fill="#7aa4ba"/>
  <rect x="29" y="13" width="1" height="1" fill="#729cb0"/>
  <rect x="30" y="13" width="1" height="1" fill="#a1c3d0e0"/>
  <rect x="39" y="13" width="1" height="1" fill="#bcd7e765"/>
  <rect x="40" y="13" width="1" height="1" fill="#779eb5"/>
  <rect x="41" y="13" width="1" height="1" fill="#6d98b0"/>
  <rect x="42" y="13" width="1" height="1" fill="#89b3c9e9"/>
  <rect x="45" y="13" width="1" height="1" fill="#a3bed980"/>
  <rect x="46" y="13" width="1" height="1" fill="#729eb6"/>
  <rect x="47" y="13" width="1" height="1" fill="#74a3ba"/>
  <rect x="48" y="13" width="1" height="1" fill="#95b6cde0"/>
  <rect x="57" y="13" width="1" height="1" fill="#dee1de53"/>
  <rect x="58" y="13" width="1" height="1" fill="#a0a3a074"/>
  <rect x="59" y="13" width="1" height="1" fill="#95979473"/>
  <rect x="60" y="13" width="1" height="1" fill="#b8bab98a"/>
  <rect x="63" y="13" width="1" height="1" fill="#c4c7c65b"/>
  <rect x="65" y="13" width="1" height="1" fill="#96989773"/>
  <rect x="66" y="13" width="1" height="1" fill="#c8cac992"/>
  <rect x="3" y="14" width="1" height="1" fill="#ffffff25"/>
  <rect x="4" y="14" width="1" height="1" fill="#ebebebcd"/>
  <rect x="5" y="14" width="1" height="1" fill="#bfbfbf8b"/>
  <rect x="6" y="14" width="1" height="1" fill="#b9b9b98b"/>
  <rect x="9" y="14" width="1" height="1" fill="#cccccc5b"/>
  <rect x="10" y="14" width="1" height="1" fill="#b4b4b47f"/>
  <rect x="11" y="14" width="1" height="1" fill="#cfcfcfa8"/>
  <rect x="12" y="14" width="1" height="1" fill="#f0f0f093"/>
  <rect x="21" y="14" width="1" height="1" fill="#f2fefe25"/>
  <rect x="22" y="14" width="1" height="1" fill="#cde3ebfe"/>
  <rect x="23" y="14" width="1" height="1" fill="#90aebd"/>
  <rect x="24" y="14" width="1" height="1" fill="#91b6cce7"/>
  <rect x="27" y="14" width="1" height="1" fill="#a7c1ca80"/>
  <rect x="28" y="14" width="1" height="1" fill="#89a9b7"/>
  <rect x="29" y="14" width="1" height="1" fill="#a9c7d1"/>
  <rect x="30" y="14" width="1" height="1" fill="#e2f8fc9b"/>
  <rect x="39" y="14" width="1" height="1" fill="#edffff25"/>
  <rect x="40" y="14" width="1" height="1" fill="#c6e3f2fe"/>
  <rect x="41" y="14" width="1" height="1" fill="#97b9c9"/>
  <rect x="42" y="14" width="1" height="1" fill="#94b6c6e7"/>
  <rect x="45" y="14" width="1" height="1" fill="#a1b4c980"/>
  <rect x="46" y="14" width="1" height="1" fill="#84a5b5"/>
  <rect x="47" y="14" width="1" height="1" fill="#9ec2d3"/>
  <rect x="48" y="14" width="1" height="1" fill="#defaff9b"/>
  <rect x="57" y="14" width="1" height="1" fill="#fbfefb25"/>
  <rect x="58" y="14" width="1" height="1" fill="#ecefeccd"/>
  <rect x="59" y="14" width="1" height="1" fill="#bcbfbc8b"/>
  <rect x="60" y="14" width="1" height="1" fill="#b4b6b68b"/>
  <rect x="63" y="14" width="1" height="1" fill="#c0c2c15b"/>
  <rect x="64" y="14" width="1" height="1" fill="#a8abaa7f"/>
  <rect x="65" y="14" width="1" height="1" fill="#cdcfcea8"/>
  <rect x="66" y="14" width="1" height="1" fill="#f5f8f793"/>
  <rect x="4" y="15" width="1" height="1" fill="#fdfdfd59"/>
  <rect x="5" y="15" width="1" height="1" fill="#ffffffd4"/>
  <rect x="6" y="15" width="1" height="1" fill="#fafafaaf"/>
  <rect x="9" y="15" width="1" height="1" fill="#f9f9f94b"/>
  <rect x="10" y="15" width="1" height="1" fill="#fcfbfcea"/>
  <rect x="11" y="15" width="1" height="1" fill="#fefefe9f"/>
  <rect x="12" y="15" width="1" height="1" fill="#ffffff10"/>
  <rect x="22" y="15" width="1" height="1" fill="#f6ffff59"/>
  <rect x="23" y="15" width="1" height="1" fill="#f6ffffd4"/>
  <rect x="24" y="15" width="1" height="1" fill="#e6ffffaf"/>
  <rect x="27" y="15" width="1" height="1" fill="#f3ffff4b"/>
  <rect x="28" y="15" width="1" height="1" fill="#ebfeffea"/>
  <rect x="29" y="15" width="1" height="1" fill="#f6ffff9f"/>
  <rect x="30" y="15" width="1" height="1" fill="#f6ffff10"/>
  <rect x="40" y="15" width="1" height="1" fill="#e8fbff59"/>
  <rect x="41" y="15" width="1" height="1" fill="#f1ffffd4"/>
  <rect x="42" y="15" width="1" height="1" fill="#eaffffaf"/>
  <rect x="45" y="15" width="1" height="1" fill="#eefaff4b"/>
  <rect x="46" y="15" width="1" height="1" fill="#f1ffffea"/>
  <rect x="47" y="15" width="1" height="1" fill="#ecffff9f"/>
  <rect x="48" y="15" width="1" height="1" fill="#e8fcff10"/>
  <rect x="58" y="15" width="1" height="1" fill="#ffffff59"/>
  <rect x="59" y="15" width="1" height="1" fill="#fdfffdd4"/>
  <rect x="60" y="15" width="1" height="1" fill="#f6f9f8af"/>
  <rect x="63" y="15" width="1" height="1" fill="#ffffff4b"/>
  <rect x="64" y="15" width="1" height="1" fill="#fafcfcea"/>
  <rect x="65" y="15" width="1" height="1" fill="#ffffff9f"/>
  <rect x="66" y="15" width="1" height="1" fill="#f8faf910"/>
  <rect x="6" y="21" width="1" height="1" fill="#8e8e8e0d"/>
  <rect x="7" y="21" width="1" height="1" fill="#858585a6"/>
  <rect x="8" y="21" width="1" height="1" fill="#8d8d8de5"/>
  <rect x="9" y="21" width="1" height="1" fill="#8888883c"/>
  <rect x="24" y="21" width="1" height="1" fill="#598dae0d"/>
  <rect x="25" y="21" width="1" height="1" fill="#538fb4a6"/>
  <rect x="26" y="21" width="1" height="1" fill="#598fade5"/>
  <rect x="27" y="21" width="1" height="1" fill="#628ea63c"/>
  <rect x="42" y="21" width="1" height="1" fill="#618ca90d"/>
  <rect x="43" y="21" width="1" height="1" fill="#558bafa6"/>
  <rect x="44" y="21" width="1" height="1" fill="#5489aee5"/>
  <rect x="45" y="21" width="1" height="1" fill="#608ba83c"/>
  <rect x="60" y="21" width="1" height="1" fill="#9194910d"/>
  <rect x="61" y="21" width="1" height="1" fill="#878986a6"/>
  <rect x="62" y="21" width="1" height="1" fill="#878986e5"/>
  <rect x="63" y="21" width="1" height="1" fill="#9194913c"/>
  <rect x="5" y="22" width="1" height="1" fill="#89898949"/>
  <rect x="6" y="22" width="1" height="1" fill="#8b8b8be3"/>
  <rect x="7" y="22" width="1" height="1" fill="#949494"/>
  <rect x="8" y="22" width="1" height="1" fill="#a0a0a0"/>
  <rect x="9" y="22" width="1" height="1" fill="#929292fd"/>
  <rect x="10" y="22" width="1" height="1" fill="#88888892"/>
  <rect x="11" y="22" width="1" height="1" fill="#8787870b"/>
  <rect x="23" y="22" width="1" height="1" fill="#5e8dad49"/>
  <rect x="24" y="22" width="1" height="1" fill="#5891b2e3"/>
  <rect x="25" y="22" width="1" height="1" fill="#5693b3"/>
  <rect x="26" y="22" width="1" height="1" fill="#5a95b5"/>
  <rect x="27" y="22" width="1" height="1" fill="#5c94b3fd"/>
  <rect x="28" y="22" width="1" height="1" fill="#5e94af92"/>
  <rect x="29" y="22" width="1" height="1" fill="#5f94ad0b"/>
  <rect x="41" y="22" width="1" height="1" fill="#658ea949"/>
  <rect x="42" y="22" width="1" height="1" fill="#5d90b3e3"/>
  <rect x="43" y="22" width="1" height="1" fill="#5a94bc"/>
  <rect x="44" y="22" width="1" height="1" fill="#67a0c8"/>
  <rect x="45" y="22" width="1" height="1" fill="#6497bafd"/>
  <rect x="46" y="22" width="1" height="1" fill="#6089a492"/>
  <rect x="47" y="22" width="1" height="1" fill="#5a81960b"/>
  <rect x="59" y="22" width="1" height="1" fill="#8c8f8c49"/>
  <rect x="60" y="22" width="1" height="1" fill="#8b8e8be3"/>
  <rect x="61" y="22" width="2" height="1" fill="#969995"/>
  <rect x="63" y="22" width="1" height="1" fill="#8b8e8bfd"/>
  <rect x="64" y="22" width="1" height="1" fill="#8c8c8c92"/>
  <rect x="65" y="22" width="1" height="1" fill="#8c8c8c0b"/>
  <rect x="3" y="23" width="1" height="1" fill="#8f8f8f12"/>
  <rect x="4" y="23" width="1" height="1" fill="#878787a0"/>
  <rect x="5" y="23" width="1" height="1" fill="#939393"/>
  <rect x="6" y="23" width="1" height="1" fill="#9e9e9e"/>
  <rect x="7" y="23" width="1" height="1" fill="#a3a3a3"/>
  <rect x="8" y="23" width="1" height="2" fill="#9d9d9d"/>
  <rect x="9" y="23" width="1" height="1" fill="#a0a0a0"/>
  <rect x="10" y="23" width="1" height="1" fill="#9a9a9a"/>
  <rect x="11" y="23" width="1" height="1" fill="#8e8e8edf"/>
  <rect x="12" y="23" width="1" height="1" fill="#8e8e8e44"/>
  <rect x="21" y="23" width="1" height="1" fill="#608ba812"/>
  <rect x="22" y="23" width="1" height="1" fill="#598cb2a0"/>
  <rect x="23" y="23" width="1" height="1" fill="#558eb6"/>
  <rect x="24" y="23" width="1" height="1" fill="#64a1c3"/>
  <rect x="25" y="23" width="1" height="1" fill="#64a1c1"/>
  <rect x="26" y="23" width="1" height="1" fill="#63a0c0"/>
  <rect x="27" y="23" width="1" height="1" fill="#5f9ec0"/>
  <rect x="28" y="23" width="1" height="1" fill="#599cbe"/>
  <rect x="29" y="23" width="1" height="1" fill="#5699bedf"/>
  <rect x="30" y="23" width="1" height="1" fill="#5598bd44"/>
  <rect x="39" y="23" width="1" height="1" fill="#598d9b12"/>
  <rect x="40" y="23" width="1" height="1" fill="#5990aba0"/>
  <rect x="41" y="23" width="1" height="1" fill="#5e96ba"/>
  <rect x="42" y="23" width="1" height="1" fill="#669fc7"/>
  <rect x="43" y="23" width="1" height="1" fill="#6ea9d2"/>
  <rect x="44" y="23" width="1" height="1" fill="#6aa6cf"/>
  <rect x="45" y="23" width="1" height="1" fill="#669fc7"/>
  <rect x="46" y="23" width="1" height="1" fill="#6198bc"/>
  <rect x="47" y="23" width="1" height="1" fill="#5e94b1df"/>
  <rect x="48" y="23" width="1" height="1" fill="#598fa444"/>
  <rect x="57" y="23" width="1" height="1" fill="#898c8912"/>
  <rect x="58" y="23" width="1" height="1" fill="#898c89a0"/>
  <rect x="59" y="23" width="1" height="1" fill="#898c89"/>
  <rect x="60" y="23" width="1" height="1" fill="#9da09c"/>
  <rect x="61" y="23" width="2" height="1" fill="#989b98"/>
  <rect x="63" y="23" width="1" height="2" fill="#9da09c"/>
  <rect x="64" y="23" width="1" height="1" fill="#8c8c8c"/>
  <rect x="65" y="23" width="1" height="1" fill="#8c8c8cdf"/>
  <rect x="66" y="23" width="1" height="1" fill="#8c8c8c44"/>
  <rect x="3" y="24" width="1" height="1" fill="#888888e9"/>
  <rect x="4" y="24" width="1" height="1" fill="#949494"/>
  <rect x="5" y="24" width="1" height="1" fill="#979797"/>
  <rect x="6" y="24" width="1" height="1" fill="#9d9d9d"/>
  <rect x="7" y="24" width="1" height="1" fill="#9c9c9c"/>
  <rect x="9" y="24" width="1" height="1" fill="#a1a1a1"/>
  <rect x="10" y="24" width="1" height="1" fill="#9d9d9d"/>
  <rect x="11" y="24" width="1" height="1" fill="#9c9c9c"/>
  <rect x="12" y="24" width="1" height="1" fill="#929292fe"/>
  <rect x="13" y="24" width="1" height="1" fill="#89898973"/>
  <rect x="21" y="24" width="1" height="1" fill="#5f86a2e9"/>
  <rect x="22" y="24" width="1" height="1" fill="#6fa2c8"/>
  <rect x="23" y="24" width="1" height="1" fill="#6ba7d0"/>
  <rect x="24" y="24" width="1" height="1" fill="#67a6cc"/>
  <rect x="25" y="24" width="1" height="1" fill="#69a7cb"/>
  <rect x="26" y="24" width="1" height="1" fill="#70a8c7"/>
  <rect x="27" y="24" width="1" height="1" fill="#6faaca"/>
  <rect x="28" y="24" width="1" height="1" fill="#67aace"/>
  <rect x="29" y="24" width="1" height="1" fill="#61a3ca"/>
  <rect x="30" y="24" width="1" height="1" fill="#5c9bbcfe"/>
  <rect x="31" y="24" width="1" height="1" fill="#638fa773"/>
  <rect x="39" y="24" width="1" height="1" fill="#5b8ca2e9"/>
  <rect x="40" y="24" width="1" height="1" fill="#639dbc"/>
  <rect x="41" y="24" width="1" height="1" fill="#67a6ca"/>
  <rect x="42" y="24" width="1" height="1" fill="#6ba7ce"/>
  <rect x="43" y="24" width="1" height="1" fill="#6aa6cd"/>
  <rect x="44" y="24" width="1" height="1" fill="#67a2c9"/>
  <rect x="45" y="24" width="1" height="1" fill="#68a4cb"/>
  <rect x="46" y="24" width="1" height="1" fill="#6cabce"/>
  <rect x="47" y="24" width="1" height="1" fill="#6aa7c7"/>
  <rect x="48" y="24" width="1" height="1" fill="#6498b4fe"/>
  <rect x="49" y="24" width="1" height="1" fill="#61879c73"/>
  <rect x="57" y="24" width="1" height="1" fill="#828582e9"/>
  <rect x="58" y="24" width="1" height="1" fill="#929592"/>
  <rect x="59" y="24" width="1" height="1" fill="#999c99"/>
  <rect x="60" y="24" width="1" height="1" fill="#a4a7a3"/>
  <rect x="61" y="24" width="1" height="1" fill="#9c9e9b"/>
  <rect x="62" y="24" width="1" height="1" fill="#999c99"/>
  <rect x="64" y="24" width="1" height="1" fill="#a3a3a3"/>
  <rect x="65" y="24" width="1" height="2" fill="#9c9c9c"/>
  <rect x="66" y="24" width="1" height="1" fill="#8e8e8efe"/>
  <rect x="67" y="24" width="1" height="1" fill="#88888873"/>
  <rect x="3" y="25" width="1" height="1" fill="#a8a8a8fd"/>
  <rect x="4" y="25" width="1" height="1" fill="#9d9d9d"/>
  <rect x="5" y="25" width="2" height="1" fill="#9c9c9c"/>
  <rect x="7" y="25" width="1" height="1" fill="#9d9d9d"/>
  <rect x="8" y="25" width="1" height="1" fill="#a0a0a0"/>
  <rect x="9" y="25" width="1" height="1" fill="#9e9e9e"/>
  <rect x="10" y="25" width="1" height="1" fill="#999999"/>
  <rect x="11" y="25" width="1" height="1" fill="#a0a0a0"/>
  <rect x="12" y="25" width="1" height="1" fill="#9e9e9e"/>
  <rect x="13" y="25" width="1" height="1" fill="#b4b4b4b8"/>
  <rect x="21" y="25" width="1" height="1" fill="#779cb6fd"/>
  <rect x="22" y="25" width="1" height="1" fill="#6ea1c7"/>
  <rect x="23" y="25" width="1" height="1" fill="#68a3cd"/>
  <rect x="24" y="25" width="1" height="1" fill="#6aa4c7"/>
  <rect x="25" y="25" width="1" height="1" fill="#6ea4c4"/>
  <rect x="26" y="25" width="1" height="1" fill="#6fa0b8"/>
  <rect x="27" y="25" width="1" height="1" fill="#6999b4"/>
  <rect x="28" y="25" width="1" height="1" fill="#68a3c3"/>
  <rect x="29" y="25" width="1" height="1" fill="#6ea8cb"/>
  <rect x="30" y="25" width="1" height="1" fill="#679cb8"/>
  <rect x="31" y="25" width="1" height="1" fill="#8bafc3b8"/>
  <rect x="39" y="25" width="1" height="1" fill="#78a6bdfd"/>
  <rect x="40" y="25" width="1" height="1" fill="#67a4c1"/>
  <rect x="41" y="25" width="1" height="1" fill="#66a5c7"/>
  <rect x="42" y="25" width="1" height="1" fill="#6b9ebf"/>
  <rect x="43" y="25" width="1" height="1" fill="#6c99ba"/>
  <rect x="44" y="25" width="1" height="1" fill="#6b98b8"/>
  <rect x="45" y="25" width="1" height="1" fill="#6ea2c3"/>
  <rect x="46" y="25" width="1" height="1" fill="#65a4c5"/>
  <rect x="47" y="25" width="1" height="1" fill="#6aa9c8"/>
  <rect x="48" y="25" width="1" height="1" fill="#76aac9"/>
  <rect x="49" y="25" width="1" height="1" fill="#8baec5b8"/>
  <rect x="57" y="25" width="1" height="1" fill="#9ea19dfd"/>
  <rect x="58" y="25" width="1" height="1" fill="#9c9e9b"/>
  <rect x="59" y="25" width="1" height="1" fill="#9fa29f"/>
  <rect x="60" y="25" width="1" height="1" fill="#959794"/>
  <rect x="61" y="25" width="1" height="1" fill="#979a97"/>
  <rect x="62" y="25" width="1" height="1" fill="#989b98"/>
  <rect x="63" y="25" width="1" height="1" fill="#979a97"/>
  <rect x="64" y="25" width="1" height="1" fill="#9b9b9b"/>
  <rect x="66" y="25" width="1" height="1" fill="#9a9a9a"/>
  <rect x="67" y="25" width="1" height="1" fill="#b1b1b1b8"/>
  <rect x="3" y="26" width="1" height="1" fill="#dbdbdbf1"/>
  <rect x="4" y="26" width="1" height="1" fill="#a1a1a1"/>
  <rect x="5" y="26" width="1" height="1" fill="#969696"/>
  <rect x="6" y="26" width="1" height="1" fill="#bbbbbb"/>
  <rect x="7" y="26" width="1" height="1" fill="#fdfdfd"/>
  <rect x="8" y="26" width="1" height="1" fill="#fefefe"/>
  <rect x="9" y="26" width="1" height="1" fill="#dedede"/>
  <rect x="10" y="26" width="1" height="1" fill="#9c9c9c"/>
  <rect x="11" y="26" width="1" height="1" fill="#a4a4a4"/>
  <rect x="12" y="26" width="1" height="1" fill="#b2b2b2fe"/>
  <rect x="13" y="26" width="1" height="1" fill="#ffffff7e"/>
  <rect x="21" y="26" width="1" height="1" fill="#bde2fcf1"/>
  <rect x="22" y="26" width="1" height="1" fill="#76a9cf"/>
  <rect x="23" y="26" width="1" height="1" fill="#6ba2c9"/>
  <rect x="24" y="26" width="1" height="1" fill="#96c4df"/>
  <rect x="25" y="26" width="1" height="1" fill="#daffff"/>
  <rect x="26" y="26" width="1" height="1" fill="#edffff"/>
  <rect x="27" y="26" width="1" height="1" fill="#c3e3f1"/>
  <rect x="28" y="26" width="1" height="1" fill="#79a3b9"/>
  <rect x="29" y="26" width="1" height="1" fill="#729cb2"/>
  <rect x="30" y="26" width="1" height="1" fill="#9cc0d1fe"/>
  <rect x="31" y="26" width="1" height="1" fill="#f2ffff7e"/>
  <rect x="39" y="26" width="1" height="1" fill="#b5e4fbf1"/>
  <rect x="40" y="26" width="1" height="1" fill="#71afc8"/>
  <rect x="41" y="26" width="1" height="1" fill="#649eb6"/>
  <rect x="42" y="26" width="1" height="1" fill="#9fbed3"/>
  <rect x="43" y="26" width="1" height="1" fill="#ecfdff"/>
  <rect x="44" y="26" width="1" height="1" fill="#edfeff"/>
  <rect x="45" y="26" width="1" height="1" fill="#c4e3f8"/>
  <rect x="46" y="26" width="1" height="1" fill="#70a9c1"/>
  <rect x="47" y="26" width="1" height="1" fill="#67a8c2"/>
  <rect x="48" y="26" width="1" height="1" fill="#91c6e1fe"/>
  <rect x="49" y="26" width="1" height="1" fill="#e5ffff7e"/>
  <rect x="57" y="26" width="1" height="1" fill="#d7dad7f1"/>
  <rect x="58" y="26" width="1" height="1" fill="#a0a3a0"/>
  <rect x="59" y="26" width="1" height="1" fill="#9ea19d"/>
  <rect x="60" y="26" width="1" height="1" fill="#babdb9"/>
  <rect x="61" y="26" width="1" height="1" fill="#f6f9f6"/>
  <rect x="62" y="26" width="1" height="1" fill="#ffffff"/>
  <rect x="63" y="26" width="1" height="1" fill="#dfe2df"/>
  <rect x="64" y="26" width="1" height="1" fill="#9d9d9d"/>
  <rect x="65" y="26" width="1" height="1" fill="#979797"/>
  <rect x="66" y="26" width="1" height="1" fill="#bababafe"/>
  <rect x="67" y="26" width="1" height="1" fill="#fafafa7e"/>
  <rect x="3" y="27" width="1" height="1" fill="#b9b9b97f"/>
  <rect x="4" y="27" width="1" height="1" fill="#969696"/>
  <rect x="5" y="27" width="1" height="1" fill="#979797"/>
  <rect x="6" y="27" width="1" height="1" fill="#aaaaaae9"/>
  <rect x="9" y="27" width="1" height="1" fill="#bebebe80"/>
  <rect x="10" y="27" width="1" height="1" fill="#969696"/>
  <rect x="11" y="27" width="1" height="1" fill="#9a9a9a"/>
  <rect x="12" y="27" width="1" height="1" fill="#a7a6a7e9"/>
  <rect x="21" y="27" width="1" height="1" fill="#a1c6e07f"/>
  <rect x="22" y="27" width="1" height="1" fill="#74a7cc"/>
  <rect x="23" y="27" width="1" height="1" fill="#689dc4"/>
  <rect x="24" y="27" width="1" height="1" fill="#86b2cce9"/>
  <rect x="27" y="27" width="1" height="1" fill="#a6c4d180"/>
  <rect x="28" y="27" width="1" height="1" fill="#799fb2"/>
  <rect x="29" y="27" width="1" height="1" fill="#749cb1"/>
  <rect x="30" y="27" width="1" height="1" fill="#94b4c3e9"/>
  <rect x="39" y="27" width="1" height="1" fill="#96c4db7f"/>
  <rect x="40" y="27" width="1" height="1" fill="#6dabc3"/>
  <rect x="41" y="27" width="1" height="1" fill="#6ea5be"/>
  <rect x="42" y="27" width="1" height="1" fill="#92b0c1e9"/>
  <rect x="45" y="27" width="1" height="1" fill="#98b5c780"/>
  <rect x="46" y="27" width="1" height="1" fill="#6ea5be"/>
  <rect x="47" y="27" width="1" height="1" fill="#61a0bd"/>
  <rect x="48" y="27" width="1" height="1" fill="#84b8d7e9"/>
  <rect x="57" y="27" width="1" height="1" fill="#b8bab77f"/>
  <rect x="58" y="27" width="1" height="1" fill="#979a97"/>
  <rect x="59" y="27" width="1" height="1" fill="#939693"/>
  <rect x="60" y="27" width="1" height="1" fill="#aeb1aee9"/>
  <rect x="63" y="27" width="1" height="1" fill="#b5b8b580"/>
  <rect x="64" y="27" width="1" height="1" fill="#969696"/>
  <rect x="65" y="27" width="1" height="1" fill="#9b9b9b"/>
  <rect x="66" y="27" width="1" height="1" fill="#b0b0b0e9"/>
  <rect x="3" y="28" width="1" height="2" fill="#b6b6b680"/>
  <rect x="4" y="28" width="1" height="4" fill="#979797"/>
  <rect x="5" y="28" width="1" height="4" fill="#969696"/>
  <rect x="6" y="28" width="1" height="4" fill="#abababe9"/>
  <rect x="9" y="28" width="1" height="4" fill="#b9b9b980"/>
  <rect x="10" y="28" width="1" height="4" fill="#9a9a9a"/>
  <rect x="11" y="28" width="1" height="4" fill="#979797"/>
  <rect x="12" y="28" width="1" height="3" fill="#aaaaaae9"/>
  <rect x="21" y="28" width="1" height="1" fill="#9fc3de80"/>
  <rect x="22" y="28" width="1" height="1" fill="#72a5ca"/>
  <rect x="23" y="28" width="1" height="1" fill="#639cc4"/>
  <rect x="24" y="28" width="1" height="1" fill="#82b6d6e9"/>
  <rect x="27" y="28" width="1" height="1" fill="#98c0d580"/>
  <rect x="28" y="28" width="1" height="1" fill="#70a2bd"/>
  <rect x="29" y="28" width="1" height="1" fill="#6ea0bc"/>
  <rect x="30" y="28" width="1" height="1" fill="#8cb8cee9"/>
  <rect x="39" y="28" width="1" height="1" fill="#95c3dc80"/>
  <rect x="40" y="28" width="1" height="2" fill="#6aa7c9"/>
  <rect x="41" y="28" width="1" height="1" fill="#69a6c6"/>
  <rect x="42" y="28" width="1" height="1" fill="#8ab6cbe9"/>
  <rect x="45" y="28" width="1" height="1" fill="#94c0d680"/>
  <rect x="46" y="28" width="1" height="1" fill="#67a4c3"/>
  <rect x="47" y="28" width="1" height="1" fill="#65a4c7"/>
  <rect x="48" y="28" width="1" height="1" fill="#84b8d9e9"/>
  <rect x="57" y="28" width="1" height="1" fill="#b4b7b480"/>
  <rect x="58" y="28" width="1" height="1" fill="#969995"/>
  <rect x="59" y="28" width="1" height="1" fill="#9a9d9a"/>
  <rect x="60" y="28" width="1" height="4" fill="#a6a9a6e9"/>
  <rect x="63" y="28" width="1" height="4" fill="#babdb980"/>
  <rect x="64" y="28" width="2" height="4" fill="#999999"/>
  <rect x="66" y="28" width="1" height="3" fill="#adadade9"/>
  <rect x="21" y="29" width="1" height="1" fill="#a2c7e180"/>
  <rect x="22" y="29" width="1" height="1" fill="#6ea1c7"/>
  <rect x="23" y="29" width="1" height="1" fill="#659ec8"/>
  <rect x="24" y="29" width="1" height="2" fill="#7fb7dae9"/>
  <rect x="27" y="29" width="1" height="2" fill="#94c2db80"/>
  <rect x="28" y="29" width="1" height="1" fill="#6ca5c4"/>
  <rect x="29" y="29" width="1" height="2" fill="#69a1c2"/>
  <rect x="30" y="29" width="1" height="1" fill="#87bad4e9"/>
  <rect x="39" y="29" width="1" height="1" fill="#93c0da80"/>
  <rect x="41" y="29" width="1" height="1" fill="#67a6ca"/>
  <rect x="42" y="29" width="1" height="1" fill="#85b7d4e9"/>
  <rect x="45" y="29" width="1" height="1" fill="#8fc1de80"/>
  <rect x="46" y="29" width="1" height="1" fill="#65a4c7"/>
  <rect x="47" y="29" width="1" height="1" fill="#65a3c9"/>
  <rect x="48" y="29" width="1" height="1" fill="#83b7d8e9"/>
  <rect x="57" y="29" width="1" height="1" fill="#babdb980"/>
  <rect x="58" y="29" width="1" height="1" fill="#959794"/>
  <rect x="59" y="29" width="1" height="1" fill="#999c99"/>
  <rect x="3" y="30" width="1" height="1" fill="#c0c0c080"/>
  <rect x="21" y="30" width="1" height="1" fill="#a9cee880"/>
  <rect x="22" y="30" width="1" height="1" fill="#689bc1"/>
  <rect x="23" y="30" width="1" height="1" fill="#67a0ca"/>
  <rect x="28" y="30" width="1" height="1" fill="#6ca4c6"/>
  <rect x="30" y="30" width="1" height="1" fill="#87b9d6e9"/>
  <rect x="39" y="30" width="1" height="1" fill="#98c7de80"/>
  <rect x="40" y="30" width="1" height="1" fill="#6aa7c5"/>
  <rect x="41" y="30" width="1" height="1" fill="#67a6c8"/>
  <rect x="42" y="30" width="1" height="1" fill="#85b6d8e9"/>
  <rect x="45" y="30" width="1" height="1" fill="#8fc1e280"/>
  <rect x="46" y="30" width="1" height="1" fill="#65a4c5"/>
  <rect x="47" y="30" width="1" height="1" fill="#65a4c3"/>
  <rect x="48" y="30" width="1" height="1" fill="#86bad8e9"/>
  <rect x="57" y="30" width="1" height="1" fill="#c3c6c380"/>
  <rect x="58" y="30" width="1" height="1" fill="#939693"/>
  <rect x="59" y="30" width="1" height="1" fill="#979a97"/>
  <rect x="3" y="31" width="1" height="1" fill="#d2d2d265"/>
  <rect x="12" y="31" width="1" height="1" fill="#aaaaaae0"/>
  <rect x="21" y="31" width="1" height="1" fill="#b4d1e565"/>
  <rect x="22" y="31" width="1" height="1" fill="#6d94b0"/>
  <rect x="23" y="31" width="1" height="1" fill="#73a0c1"/>
  <rect x="24" y="31" width="1" height="1" fill="#87b4d2e9"/>
  <rect x="27" y="31" width="1" height="1" fill="#98c0d780"/>
  <rect x="28" y="31" width="1" height="1" fill="#74a2be"/>
  <rect x="29" y="31" width="1" height="1" fill="#6f9fbc"/>
  <rect x="30" y="31" width="1" height="1" fill="#8eb7d0e0"/>
  <rect x="39" y="31" width="1" height="1" fill="#acd0e165"/>
  <rect x="40" y="31" width="1" height="1" fill="#74a5bb"/>
  <rect x="41" y="31" width="1" height="1" fill="#71a3c0"/>
  <rect x="42" y="31" width="1" height="1" fill="#8ab4d4e9"/>
  <rect x="45" y="31" width="1" height="1" fill="#94bfde80"/>
  <rect x="46" y="31" width="1" height="1" fill="#6fa1bd"/>
  <rect x="47" y="31" width="1" height="1" fill="#6fa1b9"/>
  <rect x="48" y="31" width="1" height="1" fill="#8fb7cee0"/>
  <rect x="57" y="31" width="1" height="1" fill="#cacdca65"/>
  <rect x="58" y="31" width="1" height="1" fill="#929592"/>
  <rect x="59" y="31" width="1" height="1" fill="#969995"/>
  <rect x="66" y="31" width="1" height="1" fill="#adadade0"/>
  <rect x="3" y="32" width="1" height="1" fill="#fafafa25"/>
  <rect x="4" y="32" width="1" height="1" fill="#dbdbdbfe"/>
  <rect x="5" y="32" width="1" height="1" fill="#afafaf"/>
  <rect x="6" y="32" width="1" height="1" fill="#a9a9a9e7"/>
  <rect x="9" y="32" width="1" height="1" fill="#bababa80"/>
  <rect x="10" y="32" width="1" height="1" fill="#9e9e9e"/>
  <rect x="11" y="32" width="1" height="1" fill="#c1c1c1"/>
  <rect x="12" y="32" width="1" height="1" fill="#f7f7f79b"/>
  <rect x="21" y="32" width="1" height="1" fill="#f5ffff25"/>
  <rect x="22" y="32" width="1" height="1" fill="#cdd9e2fe"/>
  <rect x="23" y="32" width="1" height="1" fill="#9dafbb"/>
  <rect x="24" y="32" width="1" height="1" fill="#9eb6c7e7"/>
  <rect x="27" y="32" width="1" height="1" fill="#acc4d580"/>
  <rect x="28" y="32" width="1" height="1" fill="#8ba5b8"/>
  <rect x="29" y="32" width="1" height="1" fill="#acc9dd"/>
  <rect x="30" y="32" width="1" height="1" fill="#dbf6ff9b"/>
  <rect x="39" y="32" width="1" height="1" fill="#f4ffff25"/>
  <rect x="40" y="32" width="1" height="1" fill="#c4ddecfe"/>
  <rect x="41" y="32" width="1" height="1" fill="#92afc3"/>
  <rect x="42" y="32" width="1" height="1" fill="#95afc4e7"/>
  <rect x="45" y="32" width="1" height="1" fill="#adc7dc80"/>
  <rect x="46" y="32" width="1" height="1" fill="#88a5b9"/>
  <rect x="47" y="32" width="1" height="1" fill="#abc3d4"/>
  <rect x="48" y="32" width="1" height="1" fill="#ebfcff9b"/>
  <rect x="57" y="32" width="1" height="1" fill="#ffffff25"/>
  <rect x="58" y="32" width="1" height="1" fill="#dbdbdbfe"/>
  <rect x="59" y="32" width="1" height="1" fill="#a4a4a4"/>
  <rect x="60" y="32" width="1" height="1" fill="#acacace7"/>
  <rect x="63" y="32" width="1" height="1" fill="#b7b7b780"/>
  <rect x="64" y="32" width="1" height="1" fill="#a0a0a0"/>
  <rect x="65" y="32" width="1" height="1" fill="#c0c0c0"/>
  <rect x="66" y="32" width="1" height="1" fill="#ebebeb9b"/>
  <rect x="4" y="33" width="1" height="1" fill="#fdfdfd59"/>
  <rect x="5" y="33" width="1" height="1" fill="#ffffffd4"/>
  <rect x="6" y="33" width="1" height="1" fill="#fefefeaf"/>
  <rect x="9" y="33" width="1" height="1" fill="#fdfdfd4b"/>
  <rect x="10" y="33" width="1" height="1" fill="#ffffffea"/>
  <rect x="11" y="33" width="1" height="1" fill="#fefefe9f"/>
  <rect x="12" y="33" width="1" height="1" fill="#f9f9f910"/>
  <rect x="22" y="33" width="1" height="1" fill="#ffffff59"/>
  <rect x="23" y="33" width="1" height="1" fill="#fcffffd4"/>
  <rect x="24" y="33" width="1" height="1" fill="#eff9ffaf"/>
  <rect x="27" y="33" width="1" height="1" fill="#f5ffff4b"/>
  <rect x="28" y="33" width="1" height="1" fill="#f0feffea"/>
  <rect x="29" y="33" width="1" height="1" fill="#f3ffff9f"/>
  <rect x="30" y="33" width="1" height="1" fill="#f3ffff10"/>
  <rect x="40" y="33" width="1" height="1" fill="#f0faff59"/>
  <rect x="41" y="33" width="1" height="1" fill="#fcffffd4"/>
  <rect x="42" y="33" width="1" height="1" fill="#f0feffaf"/>
  <rect x="45" y="33" width="1" height="1" fill="#f5ffff4b"/>
  <rect x="46" y="33" width="1" height="1" fill="#f6ffffea"/>
  <rect x="47" y="33" width="1" height="1" fill="#f2fcff9f"/>
  <rect x="48" y="33" width="1" height="1" fill="#f5f9fc10"/>
  <rect x="58" y="33" width="1" height="1" fill="#ffffff59"/>
  <rect x="59" y="33" width="1" height="1" fill="#fdfdfdd4"/>
  <rect x="60" y="33" width="1" height="1" fill="#fefefeaf"/>
  <rect x="63" y="33" width="1" height="1" fill="#fefefe4b"/>
  <rect x="64" y="33" width="1" height="1" fill="#ffffffea"/>
  <rect x="65" y="33" width="1" height="1" fill="#ffffff9f"/>
  <rect x="66" y="33" width="1" height="1" fill="#fefefe10"/>
</svg>