<svg xmlns="http://www.w3.org/2000/svg" width="36" height="18" viewBox="0 0 36 18" shape-rendering="crispEdges">
  <rect x="0" y="3" width="1" height="1" fill="#9195964c"/>
  <rect x="1" y="3" width="1" height="1" fill="#919596e7"/>
  <rect x="2" y="3" width="6" height="1" fill="#919596"/>
  <rect x="8" y="3" width="2" height="1" fill="#929697"/>
  <rect x="10" y="3" width="2" height="1" fill="#909797"/>
  <rect x="12" y="3" width="2" height="1" fill="#8f9897"/>
  <rect x="14" y="3" width="2" height="1" fill="#8d9997"/>
  <rect x="16" y="3" width="1" height="1" fill="#919f9de7"/>
  <rect x="17" y="3" width="1" height="1" fill="#8695894d"/>
  <rect x="18" y="3" width="1" height="1" fill="#7588674d"/>
  <rect x="19" y="3" width="1" height="1" fill="#687e57e7"/>
  <rect x="20" y="3" width="2" height="1" fill="#6c8463"/>
  <rect x="22" y="3" width="1" height="1" fill="#6b8561"/>
  <rect x="23" y="3" width="1" height="1" fill="#68855e"/>
  <rect x="24" y="3" width="1" height="1" fill="#668660"/>
  <rect x="25" y="3" width="1" height="1" fill="#65845f"/>
  <rect x="26" y="3" width="4" height="1" fill="#64855f"/>
  <rect x="30" y="3" width="2" height="1" fill="#648561"/>
  <rect x="32" y="3" width="2" height="1" fill="#658662"/>
  <rect x="34" y="3" width="1" height="1" fill="#658662e7"/>
  <rect x="35" y="3" width="1" height="1" fill="#6586604d"/>
  <rect x="0" y="4" width="1" height="1" fill="#9a9e9ff2"/>
  <rect x="1" y="4" width="1" height="1" fill="#a7abac"/>
  <rect x="2" y="4" width="1" height="1" fill="#a2a7a7"/>
  <rect x="3" y="4" width="1" height="1" fill="#abb0b1"/>
  <rect x="4" y="4" width="1" height="1" fill="#b1b6b6"/>
  <rect x="5" y="4" width="1" height="1" fill="#a8acad"/>
  <rect x="6" y="4" width="1" height="1" fill="#aeb2b3"/>
  <rect x="7" y="4" width="1" height="1" fill="#afb3b4"/>
  <rect x="8" y="4" width="1" height="1" fill="#b2b7b8"/>
  <rect x="9" y="4" width="1" height="1" fill="#a6aaab"/>
  <rect x="10" y="4" width="1" height="1" fill="#b0b7b6"/>
  <rect x="11" y="4" width="1" height="1" fill="#a3aaaa"/>
  <rect x="12" y="4" width="1" height="1" fill="#aeb7b6"/>
  <rect x="13" y="4" width="1" height="1" fill="#acb8b6"/>
  <rect x="14" y="4" width="1" height="1" fill="#a9b5b3"/>
  <rect x="15" y="4" width="1" height="1" fill="#acbab8"/>
  <rect x="16" y="4" width="1" height="1" fill="#9fb0aa"/>
  <rect x="17" y="4" width="1" height="1" fill="#9bae9cf0"/>
  <rect x="18" y="4" width="1" height="1" fill="#7b946cf2"/>
  <rect x="19" y="4" width="1" height="1" fill="#769264"/>
  <rect x="20" y="4" width="1" height="1" fill="#84a17a"/>
  <rect x="21" y="4" width="1" height="1" fill="#85a27b"/>
  <rect x="22" y="4" width="1" height="1" fill="#77956b"/>
  <rect x="23" y="4" width="1" height="1" fill="#7c996f"/>
  <rect x="24" y="4" width="1" height="1" fill="#7c9876"/>
  <rect x="25" y="4" width="1" height="1" fill="#87a385"/>
  <rect x="26" y="4" width="1" height="1" fill="#789476"/>
  <rect x="27" y="4" width="1" height="1" fill="#85a183"/>
  <rect x="28" y="4" width="2" height="1" fill="#7d997b"/>
  <rect x="30" y="4" width="2" height="1" fill="#7b997b"/>
  <rect x="32" y="4" width="1" height="1" fill="#7e9c7d"/>
  <rect x="33" y="4" width="1" height="1" fill="#799776"/>
  <rect x="34" y="4" width="1" height="1" fill="#7a9976"/>
  <rect x="35" y="4" width="1" height="1" fill="#749370f0"/>
  <rect x="0" y="5" width="2" height="1" fill="#aeb2b3"/>
  <rect x="2" y="5" width="1" height="1" fill="#eaeff0"/>
  <rect x="3" y="5" width="1" height="1" fill="#fbffff"/>
  <rect x="4" y="5" width="1" height="1" fill="#f8fdfe"/>
  <rect x="5" y="5" width="1" height="1" fill="#feffff"/>
  <rect x="6" y="5" width="1" height="1" fill="#ffffff"/>
  <rect x="7" y="5" width="1" height="1" fill="#f5f9fa"/>
  <rect x="8" y="5" width="1" height="1" fill="#f6fafb"/>
  <rect x="9" y="5" width="1" height="1" fill="#f4f8f9"/>
  <rect x="10" y="5" width="1" height="1" fill="#fbffff"/>
  <rect x="11" y="5" width="1" height="1" fill="#f9ffff"/>
  <rect x="12" y="5" width="1" height="1" fill="#f4fdfc"/>
  <rect x="13" y="5" width="1" height="1" fill="#f1fdfb"/>
  <rect x="14" y="5" width="1" height="1" fill="#f9ffff"/>
  <rect x="15" y="5" width="1" height="1" fill="#e7f6f3"/>
  <rect x="16" y="5" width="1" height="1" fill="#a2b3ad"/>
  <rect x="17" y="5" width="1" height="1" fill="#9db2a0"/>
  <rect x="18" y="5" width="1" height="1" fill="#7f9771"/>
  <rect x="19" y="5" width="1" height="1" fill="#7a9668"/>
  <rect x="20" y="5" width="1" height="1" fill="#defbd3"/>
  <rect x="21" y="5" width="1" height="1" fill="#e7ffdd"/>
  <rect x="22" y="5" width="1" height="1" fill="#eeffe2"/>
  <rect x="23" y="5" width="1" height="1" fill="#e7ffdd"/>
  <rect x="24" y="5" width="1" height="1" fill="#e8ffe3"/>
  <rect x="25" y="5" width="1" height="1" fill="#eeffed"/>
  <rect x="26" y="5" width="1" height="1" fill="#ecffea"/>
  <rect x="27" y="5" width="2" height="1" fill="#f1ffef"/>
  <rect x="29" y="5" width="1" height="1" fill="#eeffed"/>
  <rect x="30" y="5" width="1" height="1" fill="#edffed"/>
  <rect x="31" y="5" width="1" height="1" fill="#edffeb"/>
  <rect x="32" y="5" width="1" height="1" fill="#f0ffef"/>
  <rect x="33" y="5" width="1" height="1" fill="#d0f1cf"/>
  <rect x="34" y="5" width="1" height="1" fill="#81a27e"/>
  <rect x="35" y="5" width="1" height="1" fill="#7c9e77"/>
  <rect x="0" y="6" width="1" height="1" fill="#b6babb"/>
  <rect x="1" y="6" width="1" height="1" fill="#a8acad"/>
  <rect x="2" y="6" width="1" height="1" fill="#f9feff2a"/>
  <rect x="15" y="6" width="1" height="1" fill="#f2fffe2b"/>
  <rect x="16" y="6" width="1" height="1" fill="#a9b6b6"/>
  <rect x="17" y="6" width="1" height="1" fill="#a3b5ab"/>
  <rect x="18" y="6" width="1" height="1" fill="#849b7a"/>
  <rect x="19" y="6" width="1" height="1" fill="#7f9a71"/>
  <rect x="20" y="6" width="1" height="1" fill="#eaffe22a"/>
  <rect x="33" y="6" width="1" height="1" fill="#e2ffe22b"/>
  <rect x="34" y="6" width="2" height="1" fill="#78a276"/>
  <rect x="0" y="7" width="1" height="1" fill="#b5b9ba"/>
  <rect x="1" y="7" width="1" height="1" fill="#b4b8b9"/>
  <rect x="3" y="7" width="1" height="1" fill="#8c909132"/>
  <rect x="4" y="7" width="1" height="1" fill="#909495d2"/>
  <rect x="5" y="7" width="1" height="1" fill="#999d9efe"/>
  <rect x="6" y="7" width="1" height="1" fill="#929697ca"/>
  <rect x="7" y="7" width="1" height="1" fill="#92969722"/>
  <rect x="10" y="7" width="1" height="1" fill="#959c9c21"/>
  <rect x="11" y="7" width="1" height="1" fill="#959c9cbc"/>
  <rect x="12" y="7" width="1" height="1" fill="#838a8ae9"/>
  <rect x="13" y="7" width="1" height="1" fill="#8d9796a5"/>
  <rect x="14" y="7" width="1" height="1" fill="#8d979613"/>
  <rect x="16" y="7" width="1" height="1" fill="#acb7bb"/>
  <rect x="17" y="7" width="1" height="1" fill="#a7b6af"/>
  <rect x="18" y="7" width="1" height="1" fill="#869d81"/>
  <rect x="19" y="7" width="1" height="1" fill="#819b77"/>
  <rect x="21" y="7" width="1" height="1" fill="#718a6d32"/>
  <rect x="22" y="7" width="1" height="1" fill="#6c8465d2"/>
  <rect x="23" y="7" width="1" height="1" fill="#6b8362fe"/>
  <rect x="24" y="7" width="1" height="1" fill="#688263ca"/>
  <rect x="25" y="7" width="1" height="1" fill="#69856522"/>
  <rect x="28" y="7" width="1" height="1" fill="#66826121"/>
  <rect x="29" y="7" width="1" height="1" fill="#648261bc"/>
  <rect x="30" y="7" width="1" height="1" fill="#648261e9"/>
  <rect x="31" y="7" width="1" height="1" fill="#62845fa5"/>
  <rect x="32" y="7" width="1" height="1" fill="#698f6713"/>
  <rect x="34" y="7" width="1" height="1" fill="#749d71"/>
  <rect x="35" y="7" width="1" height="1" fill="#78a276"/>
  <rect x="0" y="8" width="2" height="1" fill="#afb3b4"/>
  <rect x="3" y="8" width="1" height="1" fill="#989c9de0"/>
  <rect x="4" y="8" width="1" height="1" fill="#a8acadfe"/>
  <rect x="5" y="8" width="1" height="1" fill="#c2c6c7"/>
  <rect x="6" y="8" width="1" height="1" fill="#b2b7b8fe"/>
  <rect x="7" y="8" width="1" height="1" fill="#9ea2a3c8"/>
  <rect x="10" y="8" width="1" height="1" fill="#9ba0a0d3"/>
  <rect x="11" y="8" width="1" height="1" fill="#a6aaabfe"/>
  <rect x="12" y="8" width="1" height="1" fill="#b8bdbdfa"/>
  <rect x="13" y="8" width="1" height="1" fill="#a8aeae"/>
  <rect x="14" y="8" width="1" height="1" fill="#9ba2a2a9"/>
  <rect x="16" y="8" width="1" height="1" fill="#abb6b9"/>
  <rect x="17" y="8" width="1" height="1" fill="#a6b5b0"/>
  <rect x="18" y="8" width="1" height="1" fill="#839c7f"/>
  <rect x="19" y="8" width="1" height="1" fill="#7e9b76"/>
  <rect x="21" y="8" width="1" height="1" fill="#789476e0"/>
  <rect x="22" y="8" width="1" height="1" fill="#87a081fe"/>
  <rect x="23" y="8" width="1" height="1" fill="#a9c0a1"/>
  <rect x="24" y="8" width="1" height="1" fill="#829c7afe"/>
  <rect x="25" y="8" width="1" height="1" fill="#6e8a68c8"/>
  <rect x="28" y="8" width="1" height="1" fill="#708e6bd3"/>
  <rect x="29" y="8" width="1" height="1" fill="#7c9d79fe"/>
  <rect x="30" y="8" width="1" height="1" fill="#91b28efa"/>
  <rect x="31" y="8" width="1" height="1" fill="#7fa37e"/>
  <rect x="32" y="8" width="1" height="1" fill="#698d66a8"/>
  <rect x="34" y="8" width="1" height="1" fill="#749b72"/>
  <rect x="35" y="8" width="1" height="1" fill="#7ba279"/>
  <rect x="0" y="9" width="1" height="1" fill="#b0b5b5"/>
  <rect x="1" y="9" width="1" height="1" fill="#b4b8b9"/>
  <rect x="2" y="9" width="1" height="1" fill="#9499990e"/>
  <rect x="3" y="9" width="1" height="1" fill="#aaafb0"/>
  <rect x="4" y="9" width="1" height="1" fill="#c6cbcbfd"/>
  <rect x="5" y="9" width="1" height="1" fill="#ffffffac"/>
  <rect x="6" y="9" width="1" height="1" fill="#c2c6c7fd"/>
  <rect x="7" y="9" width="1" height="1" fill="#a9aeaefb"/>
  <rect x="10" y="9" width="1" height="1" fill="#a0a4a5"/>
  <rect x="11" y="9" width="1" height="1" fill="#d0d4d5fe"/>
  <rect x="12" y="9" width="1" height="1" fill="#f2f7f8ca"/>
  <rect x="13" y="9" width="1" height="1" fill="#b1b6b6"/>
  <rect x="14" y="9" width="1" height="1" fill="#afb3b4f2"/>
  <rect x="16" y="9" width="1" height="1" fill="#a8b1b5"/>
  <rect x="17" y="9" width="1" height="1" fill="#a0b1ab"/>
  <rect x="18" y="9" width="1" height="1" fill="#7d997b"/>
  <rect x="19" y="9" width="1" height="1" fill="#789771"/>
  <rect x="20" y="9" width="1" height="1" fill="#6a88690e"/>
  <rect x="21" y="9" width="1" height="1" fill="#79977a"/>
  <rect x="22" y="9" width="1" height="1" fill="#99b396fd"/>
  <rect x="23" y="9" width="1" height="1" fill="#f5ffedac"/>
  <rect x="24" y="9" width="1" height="1" fill="#a1bb9afd"/>
  <rect x="25" y="9" width="1" height="1" fill="#799673fb"/>
  <rect x="28" y="9" width="1" height="1" fill="#799a76"/>
  <rect x="29" y="9" width="1" height="1" fill="#a6c7a3fe"/>
  <rect x="30" y="9" width="1" height="1" fill="#eaffe9ca"/>
  <rect x="31" y="9" width="1" height="1" fill="#80a47f"/>
  <rect x="32" y="9" width="1" height="1" fill="#80a47df1"/>
  <rect x="34" y="9" width="1" height="1" fill="#789e76"/>
  <rect x="35" y="9" width="1" height="1" fill="#749b72"/>
  <rect x="0" y="10" width="1" height="1" fill="#a8acad"/>
  <rect x="1" y="10" width="1" height="1" fill="#a3a8a9"/>
  <rect x="2" y="10" width="1" height="1" fill="#f9feff0e"/>
  <rect x="3" y="10" width="1" height="1" fill="#bbbfc0"/>
  <rect x="4" y="10" width="1" height="1" fill="#a3a8a9fe"/>
  <rect x="5" y="10" width="1" height="1" fill="#949999c4"/>
  <rect x="6" y="10" width="1" height="1" fill="#9ca1a2fe"/>
  <rect x="7" y="10" width="1" height="1" fill="#bec3c3fb"/>
  <rect x="10" y="10" width="1" height="1" fill="#bcc0c1"/>
  <rect x="11" y="10" width="1" height="1" fill="#aeb2b3fc"/>
  <rect x="12" y="10" width="1" height="1" fill="#979b9cbf"/>
  <rect x="13" y="10" width="1" height="1" fill="#afb3b4"/>
  <rect x="14" y="10" width="1" height="1" fill="#bfc4c4f2"/>
  <rect x="16" y="10" width="1" height="1" fill="#a8b3b6"/>
  <rect x="17" y="10" width="1" height="1" fill="#a1b2aa"/>
  <rect x="18" y="10" width="1" height="1" fill="#7c9b7c"/>
  <rect x="19" y="10" width="1" height="1" fill="#779972"/>
  <rect x="20" y="10" width="1" height="1" fill="#eaffeb0e"/>
  <rect x="21" y="10" width="1" height="1" fill="#8ca98d"/>
  <rect x="22" y="10" width="1" height="1" fill="#789174fe"/>
  <rect x="23" y="10" width="1" height="1" fill="#6c8465c4"/>
  <rect x="24" y="10" width="1" height="1" fill="#819b79fe"/>
  <rect x="25" y="10" width="1" height="1" fill="#a2bf9cfb"/>
  <rect x="28" y="10" width="1" height="1" fill="#93b590"/>
  <rect x="29" y="10" width="1" height="1" fill="#799a76fc"/>
  <rect x="30" y="10" width="1" height="1" fill="#6a8e69be"/>
  <rect x="31" y="10" width="1" height="1" fill="#7a9e79"/>
  <rect x="32" y="10" width="1" height="1" fill="#9fc39bf1"/>
  <rect x="34" y="10" width="1" height="1" fill="#7ea47c"/>
  <rect x="35" y="10" width="1" height="1" fill="#7ba279"/>
  <rect x="0" y="11" width="1" height="1" fill="#a9aeae"/>
  <rect x="1" y="11" width="1" height="1" fill="#b0b5b5"/>
  <rect x="3" y="11" width="1" height="1" fill="#e7ebecda"/>
  <rect x="4" y="11" width="1" height="1" fill="#bbbfc0fe"/>
  <rect x="5" y="11" width="1" height="1" fill="#abb0b1fd"/>
  <rect x="6" y="11" width="1" height="1" fill="#b1b6b6"/>
  <rect x="7" y="11" width="1" height="1" fill="#aeb2b3f8"/>
  <rect x="8" y="11" width="1" height="1" fill="#939798dd"/>
  <rect x="9" y="11" width="1" height="1" fill="#9ba0a0dd"/>
  <rect x="10" y="11" width="1" height="1" fill="#b4b8b9f9"/>
  <rect x="11" y="11" width="1" height="1" fill="#a9aeae"/>
  <rect x="12" y="11" width="1" height="1" fill="#a7abacfb"/>
  <rect x="13" y="11" width="1" height="1" fill="#bfc4c4"/>
  <rect x="14" y="11" width="1" height="1" fill="#eef2f3ac"/>
  <rect x="16" y="11" width="1" height="1" fill="#aab5b6"/>
  <rect x="17" y="11" width="1" height="2" fill="#a2b6ad"/>
  <rect x="18" y="11" width="1" height="2" fill="#7f9d7e"/>
  <rect x="19" y="11" width="1" height="1" fill="#7a9e77"/>
  <rect x="21" y="11" width="1" height="1" fill="#d7f7dada"/>
  <rect x="22" y="11" width="1" height="1" fill="#93ad90fe"/>
  <rect x="23" y="11" width="1" height="1" fill="#829779fd"/>
  <rect x="24" y="11" width="1" height="1" fill="#859a7e"/>
  <rect x="25" y="11" width="1" height="1" fill="#849a80f8"/>
  <rect x="26" y="11" width="1" height="1" fill="#667f64dd"/>
  <rect x="27" y="11" width="1" height="1" fill="#6f886edd"/>
  <rect x="28" y="11" width="1" height="1" fill="#869e84f9"/>
  <rect x="29" y="11" width="1" height="1" fill="#7b9479"/>
  <rect x="30" y="11" width="1" height="1" fill="#799579fb"/>
  <rect x="31" y="11" width="1" height="1" fill="#9bb99a"/>
  <rect x="32" y="11" width="1" height="1" fill="#d8fbd6aa"/>
  <rect x="34" y="11" width="1" height="1" fill="#7aa078"/>
  <rect x="35" y="11" width="1" height="1" fill="#799f77"/>
  <rect x="0" y="12" width="1" height="1" fill="#afb1b3"/>
  <rect x="1" y="12" width="1" height="1" fill="#b2b4b5"/>
  <rect x="3" y="12" width="1" height="1" fill="#ffffff29"/>
  <rect x="4" y="12" width="1" height="1" fill="#fdffffc3"/>
  <rect x="5" y="12" width="1" height="1" fill="#fdfffff6"/>
  <rect x="6" y="12" width="1" height="1" fill="#fdffffee"/>
  <rect x="7" y="12" width="1" height="1" fill="#fcfeffe4"/>
  <rect x="8" y="12" width="1" height="1" fill="#fcfeffdd"/>
  <rect x="9" y="12" width="1" height="1" fill="#fbfdffdd"/>
  <rect x="10" y="12" width="1" height="1" fill="#fbfdfde1"/>
  <rect x="11" y="12" width="1" height="1" fill="#fbfdfd"/>
  <rect x="12" y="12" width="1" height="1" fill="#fdffffee"/>
  <rect x="13" y="12" width="1" height="1" fill="#ffffffad"/>
  <rect x="14" y="12" width="1" height="1" fill="#ffffff14"/>
  <rect x="16" y="12" width="1" height="1" fill="#a4b0b0"/>
  <rect x="19" y="12" width="1" height="1" fill="#7ea27a"/>
  <rect x="21" y="12" width="1" height="1" fill="#e9ffea29"/>
  <rect x="22" y="12" width="1" height="1" fill="#eeffe8c3"/>
  <rect x="23" y="12" width="1" height="1" fill="#f3ffedf6"/>
  <rect x="24" y="12" width="1" height="1" fill="#fbfff7ee"/>
  <rect x="25" y="12" width="1" height="1" fill="#fbfffae4"/>
  <rect x="26" y="12" width="1" height="1" fill="#f4fff4dd"/>
  <rect x="27" y="12" width="1" height="1" fill="#f9fff9dd"/>
  <rect x="28" y="12" width="1" height="1" fill="#f5fff5e1"/>
  <rect x="29" y="12" width="1" height="1" fill="#f2fcf2"/>
  <rect x="30" y="12" width="1" height="1" fill="#f2fcf2ee"/>
  <rect x="31" y="12" width="1" height="1" fill="#edffecad"/>
  <rect x="32" y="12" width="1" height="1" fill="#eaffe814"/>
  <rect x="34" y="12" width="1" height="1" fill="#77a077"/>
  <rect x="35" y="12" width="1" height="1" fill="#749d74"/>
  <rect x="0" y="13" width="1" height="1" fill="#a7a9ab"/>
  <rect x="1" y="13" width="1" height="1" fill="#abadae"/>
  <rect x="2" y="13" width="1" height="1" fill="#91939531"/>
  <rect x="15" y="13" width="1" height="1" fill="#989c9d31"/>
  <rect x="16" y="13" width="1" height="1" fill="#a7b2b3"/>
  <rect x="17" y="13" width="1" height="1" fill="#a7bab1"/>
  <rect x="18" y="13" width="1" height="1" fill="#809e7f"/>
  <rect x="19" y="13" width="1" height="1" fill="#789c75"/>
  <rect x="20" y="13" width="1" height="1" fill="#64876731"/>
  <rect x="33" y="13" width="1" height="1" fill="#67906731"/>
  <rect x="34" y="13" width="1" height="1" fill="#769f76"/>
  <rect x="35" y="13" width="1" height="1" fill="#7aa279"/>
  <rect x="0" y="14" width="1" height="1" fill="#b9bbbc"/>
  <rect x="1" y="14" width="1" height="1" fill="#acaeb0"/>
  <rect x="2" y="14" width="1" height="1" fill="#959798"/>
  <rect x="3" y="14" width="1" height="1" fill="#97999b"/>
  <rect x="4" y="14" width="3" height="1" fill="#959798"/>
  <rect x="7" y="14" width="1" height="1" fill="#939597"/>
  <rect x="8" y="14" width="1" height="1" fill="#929496"/>
  <rect x="9" y="14" width="1" height="1" fill="#919395"/>
  <rect x="10" y="14" width="2" height="1" fill="#919493"/>
  <rect x="12" y="14" width="1" height="1" fill="#9ea0a0"/>
  <rect x="13" y="14" width="1" height="1" fill="#919493"/>
  <rect x="14" y="14" width="1" height="1" fill="#979999"/>
  <rect x="15" y="14" width="1" height="1" fill="#9ba0a0"/>
  <rect x="16" y="14" width="1" height="1" fill="#a0abac"/>
  <rect x="17" y="14" width="1" height="1" fill="#abbfb4"/>
  <rect x="18" y="14" width="1" height="1" fill="#86a485"/>
  <rect x="19" y="14" width="1" height="1" fill="#779b74"/>
  <rect x="20" y="14" width="1" height="1" fill="#638666"/>
  <rect x="21" y="14" width="1" height="1" fill="#648467"/>
  <rect x="22" y="14" width="1" height="1" fill="#6a8366"/>
  <rect x="23" y="14" width="1" height="1" fill="#698061"/>
  <rect x="24" y="14" width="1" height="1" fill="#67815f"/>
  <rect x="25" y="14" width="1" height="1" fill="#678361"/>
  <rect x="26" y="14" width="1" height="1" fill="#5f7e5b"/>
  <rect x="27" y="14" width="2" height="1" fill="#668562"/>
  <rect x="29" y="14" width="2" height="1" fill="#658461"/>
  <rect x="31" y="14" width="1" height="1" fill="#648561"/>
  <rect x="32" y="14" width="1" height="1" fill="#638961"/>
  <rect x="33" y="14" width="1" height="1" fill="#689166"/>
  <rect x="34" y="14" width="1" height="1" fill="#77a175"/>
  <rect x="35" y="14" width="1" height="1" fill="#85ae83"/>
  <rect x="0" y="15" width="1" height="1" fill="#e4e6e7f0"/>
  <rect x="1" y="15" width="1" height="1" fill="#afb1b3"/>
  <rect x="2" y="15" width="1" height="1" fill="#b4b6b8"/>
  <rect x="3" y="15" width="1" height="1" fill="#a6a8aa"/>
  <rect x="4" y="15" width="2" height="1" fill="#abadae"/>
  <rect x="6" y="15" width="2" height="1" fill="#acaeb0"/>
  <rect x="8" y="15" width="1" height="1" fill="#adafb1"/>
  <rect x="9" y="15" width="1" height="1" fill="#aeb0b2"/>
  <rect x="10" y="15" width="1" height="1" fill="#afb2b1"/>
  <rect x="11" y="15" width="2" height="1" fill="#b1b3b2"/>
  <rect x="13" y="15" width="1" height="1" fill="#adafaf"/>
  <rect x="14" y="15" width="1" height="1" fill="#a8abaa"/>
  <rect x="15" y="15" width="1" height="1" fill="#aeb3b1"/>
  <rect x="16" y="15" width="1" height="1" fill="#b0bab9"/>
  <rect x="17" y="15" width="1" height="1" fill="#dbe9e2f0"/>
  <rect x="18" y="15" width="1" height="1" fill="#cce2caf0"/>
  <rect x="19" y="15" width="1" height="1" fill="#809c7e"/>
  <rect x="20" y="15" width="1" height="1" fill="#7b957c"/>
  <rect x="21" y="15" width="1" height="1" fill="#869e88"/>
  <rect x="22" y="15" width="1" height="1" fill="#8da18a"/>
  <rect x="23" y="15" width="1" height="1" fill="#83977e"/>
  <rect x="24" y="15" width="1" height="1" fill="#869d7f"/>
  <rect x="25" y="15" width="1" height="1" fill="#829e7b"/>
  <rect x="26" y="15" width="1" height="1" fill="#7a9976"/>
  <rect x="27" y="15" width="1" height="1" fill="#809f7b"/>
  <rect x="28" y="15" width="1" height="1" fill="#7f9e7a"/>
  <rect x="29" y="15" width="3" height="1" fill="#7c9b7a"/>
  <rect x="32" y="15" width="1" height="1" fill="#7f9d7c"/>
  <rect x="33" y="15" width="1" height="1" fill="#7b9a79"/>
  <rect x="34" y="15" width="1" height="1" fill="#88a786"/>
  <rect x="35" y="15" width="1" height="1" fill="#c5e3c2f0"/>
  <rect x="0" y="16" width="1" height="1" fill="#fdffff4c"/>
  <rect x="1" y="16" width="1" height="1" fill="#fdffffe7"/>
  <rect x="2" y="16" width="14" height="1" fill="#fdffff"/>
  <rect x="16" y="16" width="1" height="1" fill="#fdffffe7"/>
  <rect x="17" y="16" width="1" height="1" fill="#fcffff4c"/>
  <rect x="18" y="16" width="1" height="1" fill="#fafff94c"/>
  <rect x="19" y="16" width="1" height="1" fill="#fafff9e7"/>
  <rect x="20" y="16" width="2" height="1" fill="#fafffb"/>
  <rect x="22" y="16" width="1" height="1" fill="#fcfffb"/>
  <rect x="23" y="16" width="1" height="1" fill="#fcfff9"/>
  <rect x="24" y="16" width="1" height="1" fill="#fafff9"/>
  <rect x="25" y="16" width="1" height="1" fill="#fafff7"/>
  <rect x="26" y="16" width="3" height="1" fill="#f9fff7"/>
  <rect x="29" y="16" width="5" height="1" fill="#f9fff9"/>
  <rect x="34" y="16" width="1" height="1" fill="#f9fff9e7"/>
  <rect x="35" y="16" width="1" height="1" fill="#f9fff94c"/>
</svg>