<svg xmlns="http://www.w3.org/2000/svg" width="28" height="28" viewBox="0 0 28 28" shape-rendering="crispEdges">
  <rect x="3" y="2" width="1" height="1" fill="#2929291d"/>
  <rect x="4" y="2" width="1" height="1" fill="#3636362f"/>
  <rect x="5" y="2" width="18" height="1" fill="#36363633"/>
  <rect x="23" y="2" width="1" height="1" fill="#3636362f"/>
  <rect x="24" y="2" width="1" height="1" fill="#2a2a2a1d"/>
  <rect x="2" y="3" width="1" height="1" fill="#2929291d"/>
  <rect x="3" y="3" width="1" height="1" fill="#acacac64"/>
  <rect x="4" y="3" width="1" height="1" fill="#fcfbfcce"/>
  <rect x="5" y="3" width="18" height="1" fill="#fcfbfcdf"/>
  <rect x="23" y="3" width="1" height="1" fill="#fcfbfcce"/>
  <rect x="24" y="3" width="1" height="1" fill="#adadad64"/>
  <rect x="25" y="3" width="1" height="1" fill="#2f2f2f1d"/>
  <rect x="2" y="4" width="1" height="1" fill="#3636362f"/>
  <rect x="3" y="4" width="1" height="1" fill="#fcfbfcce"/>
  <rect x="4" y="4" width="1" height="1" fill="#ffffffbb"/>
  <rect x="5" y="4" width="18" height="1" fill="#ffffff82"/>
  <rect x="23" y="4" width="1" height="1" fill="#ffffffbb"/>
  <rect x="24" y="4" width="1" height="1" fill="#fcfbfcce"/>
  <rect x="25" y="4" width="1" height="1" fill="#3434342f"/>
  <rect x="2" y="5" width="1" height="18" fill="#36363633"/>
  <rect x="3" y="5" width="1" height="18" fill="#fcfbfcdf"/>
  <rect x="4" y="5" width="1" height="3" fill="#ffffff82"/>
  <rect x="5" y="5" width="18" height="3" fill="#ffffff80"/>
  <rect x="23" y="5" width="1" height="18" fill="#ffffff82"/>
  <rect x="24" y="5" width="1" height="18" fill="#fcfbfcdf"/>
  <rect x="25" y="5" width="1" height="18" fill="#34343433"/>
  <rect x="4" y="8" width="1" height="15" fill="#fefefe82"/>
  <rect x="5" y="8" width="3" height="15" fill="#fefefe80"/>
  <rect x="8" y="8" width="15" height="15" fill="#ffffff80"/>
  <rect x="2" y="23" width="1" height="1" fill="#3636362f"/>
  <rect x="3" y="23" width="1" height="1" fill="#fcfbfcce"/>
  <rect x="4" y="23" width="1" height="1" fill="#fefefeb9"/>
  <rect x="5" y="23" width="3" height="1" fill="#fefefe82"/>
  <rect x="8" y="23" width="15" height="1" fill="#ffffff82"/>
  <rect x="23" y="23" width="1" height="1" fill="#ffffffb9"/>
  <rect x="24" y="23" width="1" height="1" fill="#fcfbfccf"/>
  <rect x="25" y="23" width="1" height="1" fill="#3434342f"/>
  <rect x="2" y="24" width="1" height="1" fill="#2b2b2b1d"/>
  <rect x="3" y="24" width="1" height="1" fill="#acacac65"/>
  <rect x="4" y="24" width="1" height="1" fill="#fdfdfdcf"/>
  <rect x="5" y="24" width="3" height="1" fill="#fdfdfddf"/>
  <rect x="8" y="24" width="11" height="1" fill="#fefefedf"/>
  <rect x="19" y="24" width="2" height="1" fill="#fdfdfddf"/>
  <rect x="21" y="24" width="2" height="1" fill="#fcfbfcdf"/>
  <rect x="23" y="24" width="1" height="1" fill="#fcfbfccc"/>
  <rect x="24" y="24" width="1" height="1" fill="#b3b3b365"/>
  <rect x="25" y="24" width="1" height="1" fill="#3030301d"/>
  <rect x="3" y="25" width="1" height="1" fill="#2f2f2f1d"/>
  <rect x="4" y="25" width="1" height="1" fill="#3636362f"/>
  <rect x="5" y="25" width="3" height="1" fill="#36363633"/>
  <rect x="8" y="25" width="11" height="1" fill="#37373733"/>
  <rect x="19" y="25" width="2" height="1" fill="#36363633"/>
  <rect x="21" y="25" width="2" height="1" fill="#34343433"/>
  <rect x="23" y="25" width="1" height="1" fill="#3434342f"/>
  <rect x="24" y="25" width="1" height="1" fill="#3232321d"/>
</svg>