<svg xmlns="http://www.w3.org/2000/svg" width="16" height="16" viewBox="0 0 16 16" shape-rendering="crispEdges">
  <rect x="3" y="0" width="1" height="1" fill="#46b3dc2a"/>
  <rect x="4" y="0" width="1" height="1" fill="#40b4ea9b"/>
  <rect x="5" y="0" width="1" height="1" fill="#3cb6eae8"/>
  <rect x="6" y="0" width="1" height="1" fill="#3eb8dc"/>
  <rect x="7" y="0" width="1" height="1" fill="#40b8d8"/>
  <rect x="8" y="0" width="1" height="1" fill="#41b6dee0"/>
  <rect x="9" y="0" width="1" height="1" fill="#41b5e290"/>
  <rect x="10" y="0" width="1" height="1" fill="#41b5e219"/>
  <rect x="2" y="1" width="1" height="1" fill="#53b0cc6c"/>
  <rect x="3" y="1" width="1" height="1" fill="#43b5defb"/>
  <rect x="4" y="1" width="1" height="1" fill="#3eb5e8"/>
  <rect x="5" y="1" width="1" height="1" fill="#3cb6e8"/>
  <rect x="6" y="1" width="1" height="1" fill="#3eb7de"/>
  <rect x="7" y="1" width="1" height="1" fill="#40b7da"/>
  <rect x="8" y="1" width="1" height="1" fill="#41b5e0"/>
  <rect x="9" y="1" width="1" height="1" fill="#41b5e2"/>
  <rect x="10" y="1" width="1" height="1" fill="#41b5e2f4"/>
  <rect x="11" y="1" width="1" height="1" fill="#41b5e255"/>
  <rect x="1" y="2" width="1" height="1" fill="#4cb3cc68"/>
  <rect x="2" y="2" width="1" height="1" fill="#40b8d8"/>
  <rect x="3" y="2" width="1" height="1" fill="#3bb8e2"/>
  <rect x="4" y="2" width="1" height="1" fill="#3cb6e6e6"/>
  <rect x="5" y="2" width="1" height="1" fill="#3cb6e681"/>
  <rect x="6" y="2" width="1" height="1" fill="#3eb6e24d"/>
  <rect x="7" y="2" width="1" height="1" fill="#40b6e050"/>
  <rect x="8" y="2" width="1" height="1" fill="#41b5e28a"/>
  <rect x="9" y="2" width="1" height="1" fill="#41b5e2ef"/>
  <rect x="10" y="2" width="1" height="1" fill="#41b5e2"/>
  <rect x="11" y="2" width="1" height="1" fill="#41b5e2fc"/>
  <rect x="12" y="2" width="1" height="1" fill="#41b5e24d"/>
  <rect x="0" y="3" width="1" height="1" fill="#40b7dc22"/>
  <rect x="1" y="3" width="1" height="1" fill="#3eb7def8"/>
  <rect x="2" y="3" width="1" height="1" fill="#3bb8e2"/>
  <rect x="3" y="3" width="1" height="1" fill="#3bb8e4bb"/>
  <rect x="4" y="3" width="1" height="1" fill="#3cb7e40f"/>
  <rect x="9" y="3" width="1" height="1" fill="#41b5e21a"/>
  <rect x="10" y="3" width="1" height="1" fill="#41b5e2ce"/>
  <rect x="11" y="3" width="1" height="1" fill="#41b5e2"/>
  <rect x="12" y="3" width="1" height="1" fill="#41b5e2ea"/>
  <rect x="13" y="3" width="1" height="1" fill="#41b5e20e"/>
  <rect x="0" y="4" width="1" height="1" fill="#40b2e991"/>
  <rect x="1" y="4" width="1" height="2" fill="#40b2e7"/>
  <rect x="2" y="4" width="1" height="1" fill="#43b1e5e5"/>
  <rect x="3" y="4" width="1" height="1" fill="#43b2e30f"/>
  <rect x="10" y="4" width="1" height="1" fill="#40b3e31d"/>
  <rect x="11" y="4" width="1" height="1" fill="#40b3e3f4"/>
  <rect x="12" y="4" width="1" height="2" fill="#40b3e3"/>
  <rect x="13" y="4" width="1" height="1" fill="#40b3e373"/>
  <rect x="0" y="5" width="1" height="1" fill="#3eb3e9d8"/>
  <rect x="2" y="5" width="1" height="1" fill="#46b0e579"/>
  <rect x="11" y="5" width="1" height="1" fill="#40b3e397"/>
  <rect x="13" y="5" width="1" height="1" fill="#40b3e3ba"/>
  <rect x="0" y="6" width="1" height="1" fill="#38b7daf7"/>
  <rect x="1" y="6" width="1" height="1" fill="#3cb5dc"/>
  <rect x="2" y="6" width="1" height="1" fill="#40b2e043"/>
  <rect x="11" y="6" width="1" height="1" fill="#3db3e260"/>
  <rect x="12" y="6" width="1" height="1" fill="#3db3e2"/>
  <rect x="13" y="6" width="1" height="1" fill="#3db3e2d9"/>
  <rect x="0" y="7" width="1" height="1" fill="#37b6d6fa"/>
  <rect x="1" y="7" width="1" height="1" fill="#39b5d8"/>
  <rect x="2" y="7" width="1" height="1" fill="#3cb2dc43"/>
  <rect x="11" y="7" width="1" height="1" fill="#3bb3e161"/>
  <rect x="12" y="7" width="1" height="1" fill="#3bb3e1"/>
  <rect x="13" y="7" width="1" height="1" fill="#3bb3e1d9"/>
  <rect x="0" y="8" width="1" height="1" fill="#38b2dfd1"/>
  <rect x="1" y="8" width="1" height="1" fill="#39b1df"/>
  <rect x="2" y="8" width="1" height="1" fill="#3bb1dd7b"/>
  <rect x="11" y="8" width="1" height="1" fill="#38b2df98"/>
  <rect x="12" y="8" width="1" height="1" fill="#38b2df"/>
  <rect x="13" y="8" width="1" height="1" fill="#38b2dfb2"/>
  <rect x="0" y="9" width="1" height="1" fill="#38afe283"/>
  <rect x="1" y="9" width="1" height="1" fill="#38b0e0"/>
  <rect x="2" y="9" width="1" height="1" fill="#38b0dee6"/>
  <rect x="3" y="9" width="1" height="1" fill="#37b1de0f"/>
  <rect x="10" y="9" width="1" height="1" fill="#37b1de1e"/>
  <rect x="11" y="9" width="1" height="1" fill="#37b1def5"/>
  <rect x="12" y="9" width="1" height="1" fill="#37b1de"/>
  <rect x="13" y="9" width="1" height="1" fill="#37b1de60"/>
  <rect x="0" y="10" width="1" height="1" fill="#35b0db17"/>
  <rect x="1" y="10" width="1" height="1" fill="#35b0dbee"/>
  <rect x="2" y="10" width="1" height="1" fill="#34b0df"/>
  <rect x="3" y="10" width="1" height="1" fill="#34b0dfc1"/>
  <rect x="4" y="10" width="1" height="1" fill="#32b2db12"/>
  <rect x="9" y="10" width="1" height="1" fill="#34b0df1d"/>
  <rect x="10" y="10" width="1" height="1" fill="#34b1ddd3"/>
  <rect x="11" y="10" width="1" height="1" fill="#34b1dd"/>
  <rect x="12" y="10" width="1" height="1" fill="#34b1ddf7"/>
  <rect x="13" y="10" width="1" height="1" fill="#34b1dd11"/>
  <rect x="1" y="11" width="1" height="1" fill="#47aacd4c"/>
  <rect x="2" y="11" width="1" height="1" fill="#3aaedbfc"/>
  <rect x="3" y="11" width="1" height="1" fill="#34b0df"/>
  <rect x="4" y="11" width="1" height="1" fill="#32b2dbeb"/>
  <rect x="5" y="11" width="1" height="1" fill="#31b3db86"/>
  <rect x="6" y="11" width="1" height="1" fill="#2db4dd51"/>
  <rect x="7" y="11" width="1" height="1" fill="#2fb3dd55"/>
  <rect x="8" y="11" width="1" height="1" fill="#32b1df8f"/>
  <rect x="9" y="11" width="1" height="1" fill="#34b0dff3"/>
  <rect x="10" y="11" width="3" height="1" fill="#34b1dd"/>
  <rect x="13" y="11" width="1" height="1" fill="#34b1ddc8"/>
  <rect x="14" y="11" width="1" height="1" fill="#34b1dd13"/>
  <rect x="2" y="12" width="1" height="1" fill="#47a8ce4a"/>
  <rect x="3" y="12" width="1" height="1" fill="#34afdcee"/>
  <rect x="4" y="12" width="1" height="1" fill="#2fb1dc"/>
  <rect x="5" y="12" width="1" height="1" fill="#2fb0e0"/>
  <rect x="6" y="12" width="2" height="1" fill="#33adea"/>
  <rect x="8" y="12" width="1" height="1" fill="#33aee2"/>
  <rect x="9" y="12" width="5" height="1" fill="#33afde"/>
  <rect x="14" y="12" width="1" height="1" fill="#33afded7"/>
  <rect x="15" y="12" width="1" height="1" fill="#33afde1f"/>
  <rect x="3" y="13" width="1" height="1" fill="#34afdc13"/>
  <rect x="4" y="13" width="1" height="1" fill="#2fb1dc7c"/>
  <rect x="5" y="13" width="1" height="1" fill="#2fb0e2c6"/>
  <rect x="6" y="13" width="1" height="1" fill="#34abeeeb"/>
  <rect x="7" y="13" width="1" height="1" fill="#36aaeee6"/>
  <rect x="8" y="13" width="1" height="1" fill="#34ade4bb"/>
  <rect x="9" y="13" width="1" height="1" fill="#33afde67"/>
  <rect x="10" y="13" width="1" height="1" fill="#33afde63"/>
  <rect x="11" y="13" width="1" height="1" fill="#33afdefa"/>
  <rect x="12" y="13" width="3" height="1" fill="#33afde"/>
  <rect x="15" y="13" width="1" height="1" fill="#33afded4"/>
  <rect x="11" y="14" width="1" height="1" fill="#33afde46"/>
  <rect x="12" y="14" width="1" height="1" fill="#33afdef3"/>
  <rect x="13" y="14" width="2" height="1" fill="#33afde"/>
  <rect x="15" y="14" width="1" height="1" fill="#33afde9d"/>
  <rect x="12" y="15" width="1" height="1" fill="#33afde35"/>
  <rect x="13" y="15" width="1" height="1" fill="#33afdee8"/>
  <rect x="14" y="15" width="1" height="1" fill="#33afdeaf"/>
</svg>