<svg xmlns="http://www.w3.org/2000/svg" width="75" height="30" viewBox="0 0 75 30" shape-rendering="crispEdges">
  <rect x="1" y="0" width="1" height="1" fill="#c1c1c177"/>
  <rect x="2" y="0" width="1" height="1" fill="#d2d2d2d7"/>
  <rect x="3" y="0" width="9" height="1" fill="#cbcbcb"/>
  <rect x="12" y="0" width="4" height="1" fill="#cbcacd"/>
  <rect x="16" y="0" width="4" height="1" fill="#cccbce"/>
  <rect x="20" y="0" width="2" height="1" fill="#cccbd0"/>
  <rect x="22" y="0" width="4" height="1" fill="#cccbce"/>
  <rect x="26" y="0" width="6" height="1" fill="#cccccc"/>
  <rect x="32" y="0" width="39" height="1" fill="#cccbce"/>
  <rect x="71" y="0" width="3" height="1" fill="#cdcdcf"/>
  <rect x="74" y="0" width="1" height="1" fill="#d0d0d2"/>
  <rect x="0" y="1" width="1" height="1" fill="#c1c1c17a"/>
  <rect x="1" y="1" width="1" height="1" fill="#d2d2d2"/>
  <rect x="2" y="1" width="1" height="1" fill="#efefef"/>
  <rect x="3" y="1" width="9" height="1" fill="#f7f7f7"/>
  <rect x="12" y="1" width="1" height="1" fill="#f7f6f9"/>
  <rect x="13" y="1" width="2" height="1" fill="#f8f8fa"/>
  <rect x="15" y="1" width="2" height="1" fill="#f9f9fb"/>
  <rect x="17" y="1" width="2" height="1" fill="#fafafc"/>
  <rect x="19" y="1" width="1" height="1" fill="#fcfbfe"/>
  <rect x="20" y="1" width="2" height="2" fill="#fcfbff"/>
  <rect x="22" y="1" width="4" height="2" fill="#fcfbfe"/>
  <rect x="26" y="1" width="6" height="2" fill="#fcfbfc"/>
  <rect x="32" y="1" width="40" height="2" fill="#fcfbfe"/>
  <rect x="72" y="1" width="1" height="1" fill="#f8f8fa"/>
  <rect x="73" y="1" width="1" height="1" fill="#fafafc"/>
  <rect x="74" y="1" width="1" height="1" fill="#cdcdcf"/>
  <rect x="0" y="2" width="1" height="1" fill="#d2d2d2d8"/>
  <rect x="1" y="2" width="1" height="1" fill="#efefef"/>
  <rect x="2" y="2" width="1" height="1" fill="#f9f9f9"/>
  <rect x="3" y="2" width="9" height="1" fill="#fafafa"/>
  <rect x="12" y="2" width="4" height="1" fill="#fafafc"/>
  <rect x="16" y="2" width="4" height="1" fill="#fcfbfe"/>
  <rect x="72" y="2" width="1" height="1" fill="#f6f5f8"/>
  <rect x="73" y="2" width="1" height="1" fill="#ffffff"/>
  <rect x="74" y="2" width="1" height="1" fill="#c9c9cb"/>
  <rect x="0" y="3" width="1" height="1" fill="#cbcbcbfa"/>
  <rect x="1" y="3" width="1" height="1" fill="#f7f7f7"/>
  <rect x="2" y="3" width="1" height="1" fill="#fafafa"/>
  <rect x="3" y="3" width="9" height="1" fill="#fefefe"/>
  <rect x="12" y="3" width="4" height="1" fill="#fefdff"/>
  <rect x="16" y="3" width="4" height="1" fill="#f7f6f9"/>
  <rect x="20" y="3" width="2" height="1" fill="#f7f6fb"/>
  <rect x="22" y="3" width="4" height="1" fill="#f7f6f9"/>
  <rect x="26" y="3" width="6" height="1" fill="#f7f7f7"/>
  <rect x="32" y="3" width="40" height="1" fill="#f7f6f9"/>
  <rect x="72" y="3" width="1" height="1" fill="#fdfcff"/>
  <rect x="73" y="3" width="1" height="1" fill="#fafafc"/>
  <rect x="74" y="3" width="1" height="1" fill="#cccbce"/>
  <rect x="0" y="4" width="1" height="3" fill="#d0d0d0"/>
  <rect x="1" y="4" width="1" height="3" fill="#f9f9f9"/>
  <rect x="2" y="4" width="6" height="3" fill="#f8f8f8"/>
  <rect x="8" y="4" width="8" height="4" fill="#f8f8fa"/>
  <rect x="16" y="4" width="6" height="4" fill="#f8f7fc"/>
  <rect x="22" y="4" width="4" height="3" fill="#f8f8fa"/>
  <rect x="26" y="4" width="2" height="3" fill="#f8f8f8"/>
  <rect x="28" y="4" width="44" height="4" fill="#f8f8fa"/>
  <rect x="72" y="4" width="2" height="2" fill="#f9f9fb"/>
  <rect x="74" y="4" width="1" height="1" fill="#cdcdcf"/>
  <rect x="74" y="5" width="1" height="1" fill="#ceced0"/>
  <rect x="72" y="6" width="2" height="2" fill="#f9f9f9"/>
  <rect x="74" y="6" width="1" height="2" fill="#cecece"/>
  <rect x="0" y="7" width="1" height="1" fill="#cfcfcf"/>
  <rect x="1" y="7" width="1" height="1" fill="#f8f8f8"/>
  <rect x="2" y="7" width="2" height="1" fill="#f7f7f7"/>
  <rect x="4" y="7" width="4" height="1" fill="#f8f8f8"/>
  <rect x="22" y="7" width="2" height="1" fill="#f8f8fa"/>
  <rect x="24" y="7" width="2" height="1" fill="#f7f6f9"/>
  <rect x="26" y="7" width="2" height="1" fill="#f7f7f7"/>
  <rect x="0" y="8" width="1" height="1" fill="#cecece"/>
  <rect x="1" y="8" width="1" height="1" fill="#f7f7f7"/>
  <rect x="2" y="8" width="2" height="1" fill="#f6f6f6"/>
  <rect x="4" y="8" width="8" height="1" fill="#f7f6f9"/>
  <rect x="12" y="8" width="1" height="1" fill="#f9f9fb"/>
  <rect x="13" y="8" width="1" height="1" fill="#f7f6f9"/>
  <rect x="14" y="8" width="1" height="1" fill="#e4e4e6"/>
  <rect x="15" y="8" width="1" height="1" fill="#cbcacd"/>
  <rect x="16" y="8" width="1" height="1" fill="#d0d0d2"/>
  <rect x="17" y="8" width="1" height="1" fill="#c6c6c8"/>
  <rect x="18" y="8" width="1" height="1" fill="#cccbce"/>
  <rect x="19" y="8" width="1" height="1" fill="#dedee0"/>
  <rect x="20" y="8" width="1" height="1" fill="#f3f3f5"/>
  <rect x="21" y="8" width="1" height="1" fill="#ffffff"/>
  <rect x="22" y="8" width="1" height="1" fill="#f6f5f8"/>
  <rect x="23" y="8" width="1" height="1" fill="#f8f8fa"/>
  <rect x="24" y="8" width="46" height="1" fill="#f7f6f9"/>
  <rect x="70" y="8" width="2" height="3" fill="#f7f7f7"/>
  <rect x="72" y="8" width="2" height="2" fill="#f8f8f8"/>
  <rect x="74" y="8" width="1" height="3" fill="#cdcdcb"/>
  <rect x="0" y="9" width="1" height="3" fill="#cdcdcd"/>
  <rect x="1" y="9" width="1" height="3" fill="#f6f6f6"/>
  <rect x="2" y="9" width="2" height="3" fill="#f5f5f5"/>
  <rect x="4" y="9" width="9" height="1" fill="#f7f6f9"/>
  <rect x="13" y="9" width="1" height="1" fill="#dddddf"/>
  <rect x="14" y="9" width="1" height="1" fill="#cccbce"/>
  <rect x="15" y="9" width="1" height="1" fill="#cdcdcf"/>
  <rect x="16" y="9" width="1" height="1" fill="#c6c6c8"/>
  <rect x="17" y="9" width="1" height="1" fill="#cbcacd"/>
  <rect x="18" y="9" width="1" height="1" fill="#ceced0"/>
  <rect x="19" y="9" width="1" height="1" fill="#cdcdcf"/>
  <rect x="20" y="9" width="1" height="1" fill="#cfcfd1"/>
  <rect x="21" y="9" width="1" height="1" fill="#e1e0e3"/>
  <rect x="22" y="9" width="1" height="1" fill="#f9f9fb"/>
  <rect x="23" y="9" width="1" height="1" fill="#fefdff"/>
  <rect x="24" y="9" width="4" height="2" fill="#f6f5f8"/>
  <rect x="28" y="9" width="42" height="2" fill="#f7f6f9"/>
  <rect x="4" y="10" width="8" height="1" fill="#f7f6f9"/>
  <rect x="12" y="10" width="1" height="1" fill="#e4e4e6"/>
  <rect x="13" y="10" width="1" height="1" fill="#cccbce"/>
  <rect x="14" y="10" width="1" height="1" fill="#cbcacd"/>
  <rect x="15" y="10" width="1" height="1" fill="#e0dfe2"/>
  <rect x="16" y="10" width="1" height="1" fill="#e9e8eb"/>
  <rect x="17" y="10" width="1" height="1" fill="#ebebed"/>
  <rect x="18" y="10" width="1" height="1" fill="#e2e1e4"/>
  <rect x="19" y="10" width="1" height="1" fill="#d2d1d4"/>
  <rect x="20" y="10" width="1" height="1" fill="#cccbce"/>
  <rect x="21" y="10" width="1" height="1" fill="#cdcdcf"/>
  <rect x="22" y="10" width="1" height="1" fill="#e9e8eb"/>
  <rect x="23" y="10" width="1" height="1" fill="#f5f4f7"/>
  <rect x="72" y="10" width="2" height="1" fill="#f8f8f6"/>
  <rect x="4" y="11" width="6" height="1" fill="#f7f6f9"/>
  <rect x="10" y="11" width="1" height="1" fill="#f6f5f8"/>
  <rect x="11" y="11" width="1" height="1" fill="#f7f6f9"/>
  <rect x="12" y="11" width="1" height="1" fill="#cbcacd"/>
  <rect x="13" y="11" width="1" height="1" fill="#cdcdcf"/>
  <rect x="14" y="11" width="1" height="1" fill="#e0dfe2"/>
  <rect x="15" y="11" width="1" height="1" fill="#f9f9fb"/>
  <rect x="16" y="11" width="1" height="1" fill="#f2f2f4"/>
  <rect x="17" y="11" width="2" height="1" fill="#f5f4f7"/>
  <rect x="19" y="11" width="1" height="1" fill="#f3f3f5"/>
  <rect x="20" y="11" width="1" height="1" fill="#d5d5d7"/>
  <rect x="21" y="11" width="1" height="1" fill="#c8c8ca"/>
  <rect x="22" y="11" width="1" height="1" fill="#d0d0d2"/>
  <rect x="23" y="11" width="1" height="1" fill="#f7f6f9"/>
  <rect x="24" y="11" width="8" height="1" fill="#f6f5f8"/>
  <rect x="32" y="11" width="32" height="1" fill="#f7f6f9"/>
  <rect x="64" y="11" width="6" height="2" fill="#f6f5f8"/>
  <rect x="70" y="11" width="2" height="2" fill="#f6f6f6"/>
  <rect x="72" y="11" width="2" height="2" fill="#f7f7f5"/>
  <rect x="74" y="11" width="1" height="1" fill="#cccdc8"/>
  <rect x="0" y="12" width="1" height="2" fill="#cdcdcf"/>
  <rect x="1" y="12" width="1" height="2" fill="#f6f5f8"/>
  <rect x="2" y="12" width="2" height="2" fill="#f5f4f7"/>
  <rect x="4" y="12" width="4" height="2" fill="#f6f5f8"/>
  <rect x="8" y="12" width="2" height="2" fill="#f7f6fb"/>
  <rect x="10" y="12" width="1" height="1" fill="#f5f4f9"/>
  <rect x="11" y="12" width="1" height="4" fill="#cfced3"/>
  <rect x="12" y="12" width="1" height="5" fill="#c8c7cc"/>
  <rect x="13" y="12" width="1" height="4" fill="#e0dfe4"/>
  <rect x="14" y="12" width="1" height="4" fill="#f3f3f7"/>
  <rect x="15" y="12" width="1" height="4" fill="#f8f7fc"/>
  <rect x="16" y="12" width="4" height="1" fill="#f6f5f8"/>
  <rect x="20" y="12" width="1" height="1" fill="#eeedf0"/>
  <rect x="21" y="12" width="1" height="1" fill="#cccbce"/>
  <rect x="22" y="12" width="1" height="1" fill="#c9c9cb"/>
  <rect x="23" y="12" width="1" height="1" fill="#e5e5e7"/>
  <rect x="24" y="12" width="4" height="3" fill="#f6f5f8"/>
  <rect x="28" y="12" width="4" height="1" fill="#f6f5fa"/>
  <rect x="32" y="12" width="32" height="1" fill="#f5f4f7"/>
  <rect x="74" y="12" width="1" height="1" fill="#ccccca"/>
  <rect x="10" y="13" width="1" height="3" fill="#f3f3f7"/>
  <rect x="16" y="13" width="5" height="2" fill="#f6f5f8"/>
  <rect x="21" y="13" width="1" height="2" fill="#cfcfd1"/>
  <rect x="22" y="13" width="1" height="2" fill="#c6c6c8"/>
  <rect x="23" y="13" width="1" height="2" fill="#dddddf"/>
  <rect x="28" y="13" width="4" height="1" fill="#f5f4f9"/>
  <rect x="32" y="13" width="38" height="1" fill="#f5f4f7"/>
  <rect x="70" y="13" width="2" height="1" fill="#f5f5f5"/>
  <rect x="72" y="13" width="2" height="1" fill="#f6f6f4"/>
  <rect x="74" y="13" width="1" height="1" fill="#cbcbc9"/>
  <rect x="0" y="14" width="1" height="2" fill="#cccbce"/>
  <rect x="1" y="14" width="1" height="2" fill="#f5f4f7"/>
  <rect x="2" y="14" width="2" height="2" fill="#f3f3f5"/>
  <rect x="4" y="14" width="4" height="2" fill="#f5f4f7"/>
  <rect x="8" y="14" width="1" height="1" fill="#f7f6fb"/>
  <rect x="9" y="14" width="1" height="1" fill="#f6f5fa"/>
  <rect x="28" y="14" width="1" height="1" fill="#f5f4f9"/>
  <rect x="29" y="14" width="3" height="1" fill="#f3f3f7"/>
  <rect x="32" y="14" width="38" height="2" fill="#f3f3f5"/>
  <rect x="70" y="14" width="2" height="2" fill="#f3f3f3"/>
  <rect x="72" y="14" width="2" height="2" fill="#f5f5f2"/>
  <rect x="74" y="14" width="1" height="6" fill="#c9cac7"/>
  <rect x="8" y="15" width="2" height="1" fill="#f6f5fa"/>
  <rect x="16" y="15" width="4" height="1" fill="#f6f5f8"/>
  <rect x="20" y="15" width="1" height="1" fill="#eeedf0"/>
  <rect x="21" y="15" width="1" height="1" fill="#c9c9cb"/>
  <rect x="22" y="15" width="1" height="1" fill="#cbcacd"/>
  <rect x="23" y="15" width="1" height="1" fill="#e5e5e7"/>
  <rect x="24" y="15" width="3" height="1" fill="#f6f5f8"/>
  <rect x="27" y="15" width="1" height="1" fill="#f5f4f7"/>
  <rect x="28" y="15" width="4" height="1" fill="#f3f3f7"/>
  <rect x="0" y="16" width="1" height="2" fill="#cbcacd"/>
  <rect x="1" y="16" width="1" height="2" fill="#f3f3f5"/>
  <rect x="2" y="16" width="2" height="2" fill="#f2f2f4"/>
  <rect x="4" y="16" width="6" height="1" fill="#f5f4f9"/>
  <rect x="10" y="16" width="1" height="2" fill="#f2f1f6"/>
  <rect x="11" y="16" width="1" height="1" fill="#dedee2"/>
  <rect x="13" y="16" width="1" height="1" fill="#c7c6cb"/>
  <rect x="14" y="16" width="1" height="1" fill="#e2e1e6"/>
  <rect x="15" y="16" width="1" height="1" fill="#f3f3f7"/>
  <rect x="16" y="16" width="1" height="1" fill="#f2f2f4"/>
  <rect x="17" y="16" width="1" height="1" fill="#f3f3f5"/>
  <rect x="18" y="16" width="1" height="1" fill="#f6f5f8"/>
  <rect x="19" y="16" width="1" height="1" fill="#f8f8fa"/>
  <rect x="20" y="16" width="1" height="1" fill="#d6d6d8"/>
  <rect x="21" y="16" width="1" height="1" fill="#c6c6c8"/>
  <rect x="22" y="16" width="1" height="1" fill="#ceced0"/>
  <rect x="23" y="16" width="1" height="1" fill="#f0eff2"/>
  <rect x="24" y="16" width="1" height="1" fill="#f6f5f8"/>
  <rect x="25" y="16" width="1" height="1" fill="#f8f8fa"/>
  <rect x="26" y="16" width="1" height="1" fill="#f6f5f8"/>
  <rect x="27" y="16" width="1" height="1" fill="#f3f3f5"/>
  <rect x="28" y="16" width="1" height="1" fill="#f2f2f4"/>
  <rect x="29" y="16" width="35" height="1" fill="#f3f3f5"/>
  <rect x="64" y="16" width="8" height="2" fill="#f3f3f3"/>
  <rect x="72" y="16" width="2" height="2" fill="#f5f5f5"/>
  <rect x="4" y="17" width="4" height="1" fill="#f5f4f9"/>
  <rect x="8" y="17" width="1" height="1" fill="#f2f1f6"/>
  <rect x="9" y="17" width="1" height="1" fill="#f5f4f9"/>
  <rect x="11" y="17" width="1" height="1" fill="#e8e7ec"/>
  <rect x="12" y="17" width="1" height="1" fill="#cbcacf"/>
  <rect x="13" y="17" width="1" height="1" fill="#cccbd0"/>
  <rect x="14" y="17" width="1" height="1" fill="#bfbec3"/>
  <rect x="15" y="17" width="1" height="1" fill="#dad9de"/>
  <rect x="16" y="17" width="1" height="1" fill="#f5f4f7"/>
  <rect x="17" y="17" width="1" height="1" fill="#ebebed"/>
  <rect x="18" y="17" width="1" height="1" fill="#dddddf"/>
  <rect x="19" y="17" width="1" height="1" fill="#d4d4d6"/>
  <rect x="20" y="17" width="2" height="1" fill="#c8c8ca"/>
  <rect x="22" y="17" width="1" height="1" fill="#cdcdcf"/>
  <rect x="23" y="17" width="1" height="1" fill="#d4d4d6"/>
  <rect x="24" y="17" width="1" height="1" fill="#ececee"/>
  <rect x="25" y="17" width="1" height="1" fill="#f1f1f3"/>
  <rect x="26" y="17" width="1" height="1" fill="#f5f4f7"/>
  <rect x="27" y="17" width="1" height="1" fill="#f6f5f8"/>
  <rect x="28" y="17" width="36" height="1" fill="#f3f3f5"/>
  <rect x="0" y="18" width="1" height="2" fill="#c9c9cb"/>
  <rect x="1" y="18" width="1" height="2" fill="#f2f2f4"/>
  <rect x="2" y="18" width="2" height="2" fill="#f1f1f3"/>
  <rect x="4" y="18" width="3" height="2" fill="#f3f3f7"/>
  <rect x="7" y="18" width="2" height="1" fill="#f2f1f6"/>
  <rect x="9" y="18" width="2" height="1" fill="#f3f3f7"/>
  <rect x="11" y="18" width="1" height="2" fill="#f2f1f6"/>
  <rect x="12" y="18" width="1" height="1" fill="#e2e1e6"/>
  <rect x="13" y="18" width="2" height="1" fill="#cccbd0"/>
  <rect x="15" y="18" width="1" height="1" fill="#bfbec3"/>
  <rect x="16" y="18" width="1" height="1" fill="#c8c8ca"/>
  <rect x="17" y="18" width="1" height="1" fill="#c6c6c8"/>
  <rect x="18" y="18" width="1" height="1" fill="#c4c3c6"/>
  <rect x="19" y="18" width="1" height="1" fill="#c1c1c3"/>
  <rect x="20" y="18" width="2" height="1" fill="#cccbce"/>
  <rect x="22" y="18" width="1" height="1" fill="#c8c8ca"/>
  <rect x="23" y="18" width="1" height="1" fill="#c0c0c2"/>
  <rect x="24" y="18" width="1" height="1" fill="#d6d6d8"/>
  <rect x="25" y="18" width="1" height="1" fill="#e9e8eb"/>
  <rect x="26" y="18" width="1" height="1" fill="#f1f1f3"/>
  <rect x="27" y="18" width="1" height="1" fill="#f8f8fa"/>
  <rect x="28" y="18" width="36" height="1" fill="#f2f2f4"/>
  <rect x="64" y="18" width="8" height="1" fill="#f2f2f2"/>
  <rect x="72" y="18" width="2" height="1" fill="#f3f3f3"/>
  <rect x="7" y="19" width="1" height="1" fill="#f2f1f6"/>
  <rect x="8" y="19" width="1" height="1" fill="#f1f0f5"/>
  <rect x="9" y="19" width="1" height="1" fill="#f2f1f6"/>
  <rect x="10" y="19" width="1" height="1" fill="#f3f3f7"/>
  <rect x="12" y="19" width="1" height="1" fill="#f3f3f7"/>
  <rect x="13" y="19" width="1" height="1" fill="#ebeaef"/>
  <rect x="14" y="19" width="1" height="1" fill="#d4d3d8"/>
  <rect x="15" y="19" width="1" height="1" fill="#c8c7cc"/>
  <rect x="16" y="19" width="1" height="1" fill="#c9c9cb"/>
  <rect x="17" y="19" width="1" height="1" fill="#c8c8ca"/>
  <rect x="18" y="19" width="1" height="1" fill="#c6c6c8"/>
  <rect x="19" y="19" width="1" height="1" fill="#c4c3c6"/>
  <rect x="20" y="19" width="1" height="1" fill="#dcdcde"/>
  <rect x="21" y="19" width="1" height="1" fill="#cfcfd1"/>
  <rect x="22" y="19" width="1" height="1" fill="#c5c4c7"/>
  <rect x="23" y="19" width="2" height="1" fill="#c2c2c4"/>
  <rect x="25" y="19" width="1" height="1" fill="#d7d7d9"/>
  <rect x="26" y="19" width="1" height="1" fill="#eeedf0"/>
  <rect x="27" y="19" width="1" height="1" fill="#f6f5f8"/>
  <rect x="28" y="19" width="20" height="1" fill="#f1f1f3"/>
  <rect x="48" y="19" width="16" height="1" fill="#f2f2f4"/>
  <rect x="64" y="19" width="8" height="1" fill="#f1f1f1"/>
  <rect x="72" y="19" width="1" height="1" fill="#f2f2f2"/>
  <rect x="73" y="19" width="1" height="1" fill="#f3f3f3"/>
  <rect x="0" y="20" width="1" height="2" fill="#c9c9cd"/>
  <rect x="1" y="20" width="1" height="2" fill="#f2f1f6"/>
  <rect x="2" y="20" width="2" height="2" fill="#f1f0f5"/>
  <rect x="4" y="20" width="7" height="2" fill="#f2f1f6"/>
  <rect x="11" y="20" width="2" height="2" fill="#f1f0f5"/>
  <rect x="13" y="20" width="3" height="2" fill="#f0eff4"/>
  <rect x="16" y="20" width="4" height="1" fill="#e7e6e9"/>
  <rect x="20" y="20" width="1" height="2" fill="#f3f3f5"/>
  <rect x="21" y="20" width="1" height="1" fill="#f2f2f4"/>
  <rect x="22" y="20" width="1" height="1" fill="#d2d1d4"/>
  <rect x="23" y="20" width="1" height="1" fill="#c0c0c2"/>
  <rect x="24" y="20" width="1" height="1" fill="#cdcdcf"/>
  <rect x="25" y="20" width="1" height="1" fill="#c9c9cb"/>
  <rect x="26" y="20" width="1" height="1" fill="#f0eff2"/>
  <rect x="27" y="20" width="1" height="1" fill="#f3f3f5"/>
  <rect x="28" y="20" width="4" height="1" fill="#f0eff2"/>
  <rect x="32" y="20" width="16" height="1" fill="#f1f1f3"/>
  <rect x="48" y="20" width="16" height="1" fill="#f0eff2"/>
  <rect x="64" y="20" width="9" height="1" fill="#f1f1f1"/>
  <rect x="73" y="20" width="1" height="4" fill="#f2f2f2"/>
  <rect x="74" y="20" width="1" height="2" fill="#cbcbcb"/>
  <rect x="16" y="21" width="4" height="1" fill="#f0eff2"/>
  <rect x="21" y="21" width="1" height="1" fill="#eeedf0"/>
  <rect x="22" y="21" width="1" height="1" fill="#efeef1"/>
  <rect x="23" y="21" width="1" height="1" fill="#dbdadd"/>
  <rect x="24" y="21" width="1" height="1" fill="#c6c6c8"/>
  <rect x="25" y="21" width="1" height="1" fill="#d5d5d7"/>
  <rect x="26" y="21" width="1" height="1" fill="#f5f4f7"/>
  <rect x="27" y="21" width="5" height="1" fill="#efeef1"/>
  <rect x="32" y="21" width="32" height="3" fill="#f0eff2"/>
  <rect x="64" y="21" width="9" height="3" fill="#f0f0f0"/>
  <rect x="0" y="22" width="1" height="2" fill="#c9c9cb"/>
  <rect x="1" y="22" width="1" height="2" fill="#f2f2f4"/>
  <rect x="2" y="22" width="2" height="1" fill="#f1f1f3"/>
  <rect x="4" y="22" width="7" height="1" fill="#f2f2f4"/>
  <rect x="11" y="22" width="2" height="1" fill="#f1f1f3"/>
  <rect x="13" y="22" width="7" height="1" fill="#f0eff2"/>
  <rect x="20" y="22" width="1" height="1" fill="#eaeaec"/>
  <rect x="21" y="22" width="1" height="1" fill="#ebebed"/>
  <rect x="22" y="22" width="1" height="1" fill="#f6f5f8"/>
  <rect x="23" y="22" width="1" height="1" fill="#e8e7ea"/>
  <rect x="24" y="22" width="1" height="1" fill="#f8f8fa"/>
  <rect x="25" y="22" width="1" height="1" fill="#eeedf0"/>
  <rect x="26" y="22" width="1" height="2" fill="#efeef1"/>
  <rect x="27" y="22" width="1" height="1" fill="#f5f4f7"/>
  <rect x="28" y="22" width="4" height="1" fill="#efeef1"/>
  <rect x="74" y="22" width="1" height="2" fill="#cccccc"/>
  <rect x="2" y="23" width="6" height="1" fill="#f1f1f3"/>
  <rect x="8" y="23" width="12" height="1" fill="#f0eff2"/>
  <rect x="20" y="23" width="1" height="1" fill="#e9e8eb"/>
  <rect x="21" y="23" width="1" height="1" fill="#f6f5f8"/>
  <rect x="22" y="23" width="1" height="1" fill="#ebebed"/>
  <rect x="23" y="23" width="1" height="1" fill="#e9e8eb"/>
  <rect x="24" y="23" width="1" height="1" fill="#efeef1"/>
  <rect x="25" y="23" width="1" height="1" fill="#f3f3f5"/>
  <rect x="27" y="23" width="2" height="1" fill="#f0eff2"/>
  <rect x="29" y="23" width="3" height="1" fill="#efeef1"/>
  <rect x="0" y="24" width="1" height="2" fill="#c9c9c9"/>
  <rect x="1" y="24" width="1" height="2" fill="#f2f2f2"/>
  <rect x="2" y="24" width="2" height="2" fill="#f1f1f1"/>
  <rect x="4" y="24" width="4" height="1" fill="#f0f0f0"/>
  <rect x="8" y="24" width="4" height="1" fill="#efefef"/>
  <rect x="12" y="24" width="1" height="1" fill="#f0f0f0"/>
  <rect x="13" y="24" width="3" height="1" fill="#efefef"/>
  <rect x="16" y="24" width="4" height="2" fill="#f0eff2"/>
  <rect x="20" y="24" width="4" height="4" fill="#efeef1"/>
  <rect x="24" y="24" width="3" height="1" fill="#f0eff2"/>
  <rect x="27" y="24" width="1" height="1" fill="#efeef1"/>
  <rect x="28" y="24" width="4" height="4" fill="#eef1f0"/>
  <rect x="32" y="24" width="12" height="4" fill="#edf0ef"/>
  <rect x="44" y="24" width="20" height="4" fill="#efeef1"/>
  <rect x="64" y="24" width="9" height="4" fill="#efefef"/>
  <rect x="73" y="24" width="1" height="4" fill="#f1f1f1"/>
  <rect x="74" y="24" width="1" height="3" fill="#cbcbcb"/>
  <rect x="4" y="25" width="4" height="1" fill="#efefef"/>
  <rect x="8" y="25" width="4" height="1" fill="#eeeeee"/>
  <rect x="12" y="25" width="4" height="3" fill="#efefef"/>
  <rect x="24" y="25" width="4" height="3" fill="#f0eff2"/>
  <rect x="0" y="26" width="1" height="1" fill="#c9cac7fa"/>
  <rect x="1" y="26" width="1" height="2" fill="#f2f3f0"/>
  <rect x="2" y="26" width="2" height="2" fill="#f1f1ef"/>
  <rect x="4" y="26" width="4" height="2" fill="#efefed"/>
  <rect x="8" y="26" width="4" height="2" fill="#eeeeec"/>
  <rect x="16" y="26" width="4" height="2" fill="#f0f0f0"/>
  <rect x="0" y="27" width="1" height="1" fill="#c9cac7db"/>
  <rect x="74" y="27" width="1" height="1" fill="#cdcdcd"/>
  <rect x="0" y="28" width="1" height="1" fill="#c8c9c683"/>
  <rect x="1" y="28" width="1" height="1" fill="#d4d4d2"/>
  <rect x="2" y="28" width="1" height="1" fill="#e4e5e2"/>
  <rect x="3" y="28" width="1" height="1" fill="#f0f0ee"/>
  <rect x="4" y="28" width="2" height="1" fill="#eeeeec"/>
  <rect x="6" y="28" width="4" height="1" fill="#efefed"/>
  <rect x="10" y="28" width="2" height="1" fill="#f0f0ee"/>
  <rect x="12" y="28" width="2" height="1" fill="#f1f1f1"/>
  <rect x="14" y="28" width="4" height="1" fill="#f0f0f0"/>
  <rect x="18" y="28" width="2" height="1" fill="#efefef"/>
  <rect x="20" y="28" width="4" height="1" fill="#eeedf0"/>
  <rect x="24" y="28" width="4" height="1" fill="#efeef1"/>
  <rect x="28" y="28" width="2" height="1" fill="#edf0ef"/>
  <rect x="30" y="28" width="2" height="1" fill="#eceeee"/>
  <rect x="32" y="28" width="2" height="1" fill="#ebedec"/>
  <rect x="34" y="28" width="10" height="1" fill="#eaeceb"/>
  <rect x="44" y="28" width="20" height="1" fill="#ebebed"/>
  <rect x="64" y="28" width="8" height="1" fill="#ebebeb"/>
  <rect x="72" y="28" width="1" height="1" fill="#f8f8f8"/>
  <rect x="73" y="28" width="1" height="1" fill="#e8e8e8"/>
  <rect x="74" y="28" width="1" height="1" fill="#cfcfcf"/>
  <rect x="1" y="29" width="1" height="1" fill="#c6c6c482"/>
  <rect x="2" y="29" width="1" height="1" fill="#c8c9c6da"/>
  <rect x="3" y="29" width="2" height="1" fill="#c9cac7"/>
  <rect x="5" y="29" width="1" height="1" fill="#c8c9c6"/>
  <rect x="6" y="29" width="4" height="1" fill="#c9cac7"/>
  <rect x="10" y="29" width="2" height="1" fill="#cbcbc9"/>
  <rect x="12" y="29" width="2" height="1" fill="#cccccc"/>
  <rect x="14" y="29" width="4" height="1" fill="#cbcbcb"/>
  <rect x="18" y="29" width="2" height="1" fill="#c9c9c9"/>
  <rect x="20" y="29" width="4" height="1" fill="#c8c8ca"/>
  <rect x="24" y="29" width="4" height="1" fill="#c9c9cb"/>
  <rect x="28" y="29" width="2" height="1" fill="#c8cac9"/>
  <rect x="30" y="29" width="2" height="1" fill="#c9cbcb"/>
  <rect x="32" y="29" width="2" height="1" fill="#cacdcc"/>
  <rect x="34" y="29" width="10" height="1" fill="#cbcecd"/>
  <rect x="44" y="29" width="20" height="1" fill="#cdcdcf"/>
  <rect x="64" y="29" width="7" height="1" fill="#cdcdcd"/>
  <rect x="71" y="29" width="1" height="1" fill="#cecece"/>
  <rect x="72" y="29" width="1" height="1" fill="#d0d0d0"/>
  <rect x="73" y="29" width="1" height="1" fill="#cfcfcf"/>
  <rect x="74" y="29" width="1" height="1" fill="#cccccc"/>
</svg>