<svg xmlns="http://www.w3.org/2000/svg" width="116" height="30" viewBox="0 0 116 30" shape-rendering="crispEdges">
  <rect x="0" y="0" width="1" height="1" fill="#cbcbcb"/>
  <rect x="1" y="0" width="1" height="1" fill="#cfcfcf"/>
  <rect x="2" y="0" width="1" height="1" fill="#c4c4c4"/>
  <rect x="3" y="0" width="1" height="1" fill="#cdcdcd"/>
  <rect x="4" y="0" width="24" height="1" fill="#cecece"/>
  <rect x="28" y="0" width="1" height="1" fill="#d0d0d0"/>
  <rect x="29" y="0" width="1" height="1" fill="#c7c7c7"/>
  <rect x="30" y="0" width="1" height="1" fill="#cecece"/>
  <rect x="31" y="0" width="1" height="1" fill="#c4c4c4"/>
  <rect x="32" y="0" width="16" height="1" fill="#cccccc"/>
  <rect x="48" y="0" width="8" height="1" fill="#cdcdcd"/>
  <rect x="56" y="0" width="1" height="1" fill="#d0d0d0"/>
  <rect x="57" y="0" width="1" height="1" fill="#cdcdcd"/>
  <rect x="58" y="0" width="1" height="1" fill="#cecece"/>
  <rect x="59" y="0" width="25" height="1" fill="#cdcdcd"/>
  <rect x="84" y="0" width="2" height="1" fill="#cbcbcb"/>
  <rect x="86" y="0" width="1" height="1" fill="#c9c9c9"/>
  <rect x="87" y="0" width="25" height="1" fill="#e7e7e7"/>
  <rect x="112" y="0" width="1" height="1" fill="#e8e8e8"/>
  <rect x="113" y="0" width="1" height="1" fill="#e3e3e3"/>
  <rect x="114" y="0" width="1" height="1" fill="#eaeaea"/>
  <rect x="115" y="0" width="1" height="1" fill="#e8e8e8"/>
  <rect x="0" y="1" width="1" height="1" fill="#d7d7d7"/>
  <rect x="1" y="1" width="2" height="1" fill="#ebebeb"/>
  <rect x="3" y="1" width="1" height="1" fill="#f8f8f8"/>
  <rect x="4" y="1" width="24" height="1" fill="#f1f1f1"/>
  <rect x="28" y="1" width="1" height="1" fill="#cfcfcf"/>
  <rect x="29" y="1" width="1" height="1" fill="#d4d4d4"/>
  <rect x="30" y="1" width="1" height="1" fill="#f0f0f0"/>
  <rect x="31" y="1" width="1" height="1" fill="#f5f5f5"/>
  <rect x="32" y="1" width="16" height="1" fill="#f1f1f1"/>
  <rect x="48" y="1" width="8" height="1" fill="#f2f2f2"/>
  <rect x="56" y="1" width="1" height="1" fill="#ebebeb"/>
  <rect x="57" y="1" width="1" height="1" fill="#cfcfcf"/>
  <rect x="58" y="1" width="1" height="1" fill="#c9c9c9"/>
  <rect x="59" y="1" width="25" height="1" fill="#dcdcdc"/>
  <rect x="84" y="1" width="1" height="1" fill="#e0e0e0"/>
  <rect x="85" y="1" width="1" height="1" fill="#dddddd"/>
  <rect x="86" y="1" width="1" height="1" fill="#cdcdcd"/>
  <rect x="87" y="1" width="1" height="1" fill="#e8e8e8"/>
  <rect x="88" y="1" width="24" height="1" fill="#f9f9f9"/>
  <rect x="112" y="1" width="1" height="1" fill="#ffffff"/>
  <rect x="113" y="1" width="2" height="1" fill="#f9f9f9"/>
  <rect x="115" y="1" width="1" height="1" fill="#f0f0f0"/>
  <rect x="0" y="2" width="1" height="1" fill="#cccccc"/>
  <rect x="1" y="2" width="1" height="1" fill="#ebebeb"/>
  <rect x="2" y="2" width="1" height="1" fill="#f1f1f1"/>
  <rect x="3" y="2" width="1" height="1" fill="#f7f7f7"/>
  <rect x="4" y="2" width="24" height="1" fill="#f0f0f0"/>
  <rect x="28" y="2" width="2" height="1" fill="#d2d2d2"/>
  <rect x="30" y="2" width="2" height="1" fill="#e7e7e7"/>
  <rect x="32" y="2" width="16" height="1" fill="#eaeaea"/>
  <rect x="48" y="2" width="8" height="1" fill="#e5e5e5"/>
  <rect x="56" y="2" width="1" height="1" fill="#ececec"/>
  <rect x="57" y="2" width="1" height="1" fill="#cccccc"/>
  <rect x="58" y="2" width="1" height="1" fill="#cbcbcb"/>
  <rect x="59" y="2" width="25" height="2" fill="#e9e9e9"/>
  <rect x="84" y="2" width="1" height="1" fill="#eeeeee"/>
  <rect x="85" y="2" width="1" height="1" fill="#ebebeb"/>
  <rect x="86" y="2" width="1" height="1" fill="#cecece"/>
  <rect x="87" y="2" width="1" height="1" fill="#e9e9e9"/>
  <rect x="88" y="2" width="24" height="1" fill="#f8f8f8"/>
  <rect x="112" y="2" width="1" height="1" fill="#fdfdfd"/>
  <rect x="113" y="2" width="1" height="1" fill="#f9f9f9"/>
  <rect x="114" y="2" width="1" height="1" fill="#f7f7f7"/>
  <rect x="115" y="2" width="1" height="1" fill="#e7e7e7"/>
  <rect x="0" y="3" width="1" height="13" fill="#cdcdcd"/>
  <rect x="1" y="3" width="2" height="10" fill="#efefef"/>
  <rect x="3" y="3" width="1" height="13" fill="#eaeaea"/>
  <rect x="4" y="3" width="24" height="1" fill="#ebebeb"/>
  <rect x="28" y="3" width="1" height="1" fill="#cecece"/>
  <rect x="29" y="3" width="1" height="1" fill="#d0d0d0"/>
  <rect x="30" y="3" width="1" height="1" fill="#e9e9e9"/>
  <rect x="31" y="3" width="1" height="1" fill="#eaeaea"/>
  <rect x="32" y="3" width="16" height="1" fill="#e3e3e3"/>
  <rect x="48" y="3" width="8" height="1" fill="#e7e7e7"/>
  <rect x="56" y="3" width="1" height="1" fill="#e8e8e8"/>
  <rect x="57" y="3" width="1" height="1" fill="#cbcbcb"/>
  <rect x="58" y="3" width="1" height="1" fill="#cccccc"/>
  <rect x="84" y="3" width="1" height="1" fill="#e7e7e7"/>
  <rect x="85" y="3" width="1" height="1" fill="#e9e9e9"/>
  <rect x="86" y="3" width="1" height="1" fill="#c8c8c8"/>
  <rect x="87" y="3" width="1" height="5" fill="#e8e8e8"/>
  <rect x="88" y="3" width="24" height="1" fill="#f9f9f9"/>
  <rect x="112" y="3" width="1" height="1" fill="#f7f7f7"/>
  <rect x="113" y="3" width="2" height="1" fill="#f9f9f9"/>
  <rect x="115" y="3" width="1" height="1" fill="#e8e8e8"/>
  <rect x="4" y="4" width="24" height="3" fill="#efefef"/>
  <rect x="28" y="4" width="1" height="2" fill="#cccccc"/>
  <rect x="29" y="4" width="1" height="2" fill="#cdcdcd"/>
  <rect x="30" y="4" width="1" height="2" fill="#e5e5e5"/>
  <rect x="31" y="4" width="1" height="2" fill="#e7e7e7"/>
  <rect x="32" y="4" width="3" height="4" fill="#e9e9e9"/>
  <rect x="35" y="4" width="2" height="4" fill="#e8e8e8"/>
  <rect x="37" y="4" width="11" height="4" fill="#e7e7e7"/>
  <rect x="48" y="4" width="8" height="4" fill="#e8e8e8"/>
  <rect x="56" y="4" width="1" height="4" fill="#e9e9e9"/>
  <rect x="57" y="4" width="1" height="4" fill="#cccccc"/>
  <rect x="58" y="4" width="1" height="4" fill="#cdcdcd"/>
  <rect x="59" y="4" width="1" height="4" fill="#eaeaea"/>
  <rect x="60" y="4" width="24" height="4" fill="#e8e8e8"/>
  <rect x="84" y="4" width="1" height="4" fill="#e9e9e9"/>
  <rect x="85" y="4" width="1" height="4" fill="#e7e7e7"/>
  <rect x="86" y="4" width="1" height="4" fill="#cdcdcd"/>
  <rect x="88" y="4" width="4" height="4" fill="#f7f7f7"/>
  <rect x="92" y="4" width="20" height="4" fill="#f8f8f8"/>
  <rect x="112" y="4" width="1" height="8" fill="#f6f6f6"/>
  <rect x="113" y="4" width="2" height="8" fill="#f8f8f8"/>
  <rect x="115" y="4" width="1" height="8" fill="#e7e7e7"/>
  <rect x="28" y="6" width="1" height="4" fill="#cdcdcd"/>
  <rect x="29" y="6" width="1" height="4" fill="#cecece"/>
  <rect x="30" y="6" width="1" height="4" fill="#e7e7e7"/>
  <rect x="31" y="6" width="1" height="4" fill="#e8e8e8"/>
  <rect x="4" y="7" width="4" height="1" fill="#eeeeee"/>
  <rect x="8" y="7" width="20" height="1" fill="#efefef"/>
  <rect x="4" y="8" width="24" height="1" fill="#eeeeee"/>
  <rect x="32" y="8" width="4" height="2" fill="#e9e9e9"/>
  <rect x="36" y="8" width="12" height="3" fill="#e8e8e8"/>
  <rect x="48" y="8" width="8" height="4" fill="#e9e9e9"/>
  <rect x="56" y="8" width="1" height="4" fill="#e8e8e8"/>
  <rect x="57" y="8" width="1" height="4" fill="#cbcbcb"/>
  <rect x="58" y="8" width="1" height="4" fill="#cccccc"/>
  <rect x="59" y="8" width="25" height="2" fill="#e9e9e9"/>
  <rect x="84" y="8" width="1" height="2" fill="#eaeaea"/>
  <rect x="85" y="8" width="1" height="8" fill="#e8e8e8"/>
  <rect x="86" y="8" width="1" height="6" fill="#cecece"/>
  <rect x="87" y="8" width="1" height="12" fill="#e9e9e9"/>
  <rect x="88" y="8" width="24" height="3" fill="#f8f8f8"/>
  <rect x="4" y="9" width="4" height="3" fill="#ececec"/>
  <rect x="8" y="9" width="20" height="2" fill="#eeeeee"/>
  <rect x="28" y="10" width="1" height="3" fill="#cecece"/>
  <rect x="29" y="10" width="1" height="6" fill="#cfcfcf"/>
  <rect x="30" y="10" width="1" height="4" fill="#e8e8e8"/>
  <rect x="31" y="10" width="5" height="2" fill="#e9e9e9"/>
  <rect x="59" y="10" width="23" height="1" fill="#e9e9e9"/>
  <rect x="82" y="10" width="3" height="2" fill="#eaeaea"/>
  <rect x="8" y="11" width="1" height="1" fill="#f1f1f1"/>
  <rect x="9" y="11" width="1" height="2" fill="#efefef"/>
  <rect x="10" y="11" width="8" height="1" fill="#eeeeee"/>
  <rect x="18" y="11" width="1" height="2" fill="#efefef"/>
  <rect x="19" y="11" width="9" height="1" fill="#eeeeee"/>
  <rect x="36" y="11" width="11" height="1" fill="#e8e8e8"/>
  <rect x="47" y="11" width="1" height="1" fill="#eaeaea"/>
  <rect x="59" y="11" width="10" height="1" fill="#e9e9e9"/>
  <rect x="69" y="11" width="1" height="1" fill="#e8e8e8"/>
  <rect x="70" y="11" width="12" height="1" fill="#e9e9e9"/>
  <rect x="88" y="11" width="4" height="1" fill="#f7f7f7"/>
  <rect x="92" y="11" width="20" height="1" fill="#f8f8f8"/>
  <rect x="4" y="12" width="4" height="1" fill="#ebebeb"/>
  <rect x="8" y="12" width="1" height="1" fill="#f2f2f2"/>
  <rect x="10" y="12" width="1" height="2" fill="#e5e5e5"/>
  <rect x="11" y="12" width="1" height="1" fill="#ececec"/>
  <rect x="12" y="12" width="1" height="1" fill="#e7e7e7"/>
  <rect x="13" y="12" width="2" height="1" fill="#a1a1a1"/>
  <rect x="15" y="12" width="1" height="1" fill="#e7e7e7"/>
  <rect x="16" y="12" width="1" height="1" fill="#f2f2f2"/>
  <rect x="17" y="12" width="1" height="1" fill="#f1f1f1"/>
  <rect x="19" y="12" width="1" height="1" fill="#e3e3e3"/>
  <rect x="20" y="12" width="8" height="1" fill="#eeeeee"/>
  <rect x="31" y="12" width="4" height="1" fill="#e9e9e9"/>
  <rect x="35" y="12" width="1" height="1" fill="#e8e8e8"/>
  <rect x="36" y="12" width="1" height="1" fill="#ebebeb"/>
  <rect x="37" y="12" width="1" height="1" fill="#f3f3f3"/>
  <rect x="38" y="12" width="1" height="1" fill="#f0f0f0"/>
  <rect x="39" y="12" width="1" height="1" fill="#eeeeee"/>
  <rect x="40" y="12" width="1" height="1" fill="#eaeaea"/>
  <rect x="41" y="12" width="1" height="1" fill="#dedede"/>
  <rect x="42" y="12" width="1" height="1" fill="#909090"/>
  <rect x="43" y="12" width="1" height="1" fill="#929292"/>
  <rect x="44" y="12" width="1" height="1" fill="#e0e0e0"/>
  <rect x="45" y="12" width="1" height="1" fill="#e7e7e7"/>
  <rect x="46" y="12" width="1" height="1" fill="#ebebeb"/>
  <rect x="47" y="12" width="1" height="1" fill="#ececec"/>
  <rect x="48" y="12" width="4" height="1" fill="#ebebeb"/>
  <rect x="52" y="12" width="4" height="4" fill="#eaeaea"/>
  <rect x="56" y="12" width="1" height="4" fill="#e9e9e9"/>
  <rect x="57" y="12" width="1" height="4" fill="#cccccc"/>
  <rect x="58" y="12" width="1" height="4" fill="#cdcdcd"/>
  <rect x="59" y="12" width="9" height="1" fill="#eaeaea"/>
  <rect x="68" y="12" width="1" height="1" fill="#f1f1f1"/>
  <rect x="69" y="12" width="1" height="1" fill="#e5e5e5"/>
  <rect x="70" y="12" width="1" height="1" fill="#ececec"/>
  <rect x="71" y="12" width="1" height="1" fill="#ebebeb"/>
  <rect x="72" y="12" width="1" height="1" fill="#dcdcdc"/>
  <rect x="73" y="12" width="1" height="1" fill="#e9e9e9"/>
  <rect x="74" y="12" width="1" height="1" fill="#ececec"/>
  <rect x="75" y="12" width="1" height="1" fill="#ebebeb"/>
  <rect x="76" y="12" width="2" height="1" fill="#e9e9e9"/>
  <rect x="78" y="12" width="7" height="2" fill="#eaeaea"/>
  <rect x="88" y="12" width="9" height="1" fill="#f7f7f7"/>
  <rect x="97" y="12" width="1" height="1" fill="#fcfbfc"/>
  <rect x="98" y="12" width="1" height="1" fill="#f5f5f5"/>
  <rect x="99" y="12" width="1" height="1" fill="#f3f3f3"/>
  <rect x="100" y="12" width="1" height="1" fill="#d4d4d4"/>
  <rect x="101" y="12" width="1" height="1" fill="#cbcbcb"/>
  <rect x="102" y="12" width="1" height="1" fill="#f3f3f3"/>
  <rect x="103" y="12" width="1" height="1" fill="#fcfbfc"/>
  <rect x="104" y="12" width="1" height="1" fill="#f9f9f9"/>
  <rect x="105" y="12" width="8" height="1" fill="#f8f8f8"/>
  <rect x="113" y="12" width="2" height="4" fill="#f6f6f6"/>
  <rect x="115" y="12" width="1" height="4" fill="#e9e9e9"/>
  <rect x="1" y="13" width="2" height="1" fill="#eeeeee"/>
  <rect x="4" y="13" width="2" height="1" fill="#ebebeb"/>
  <rect x="6" y="13" width="2" height="1" fill="#ececec"/>
  <rect x="8" y="13" width="2" height="1" fill="#eeeeee"/>
  <rect x="11" y="13" width="1" height="1" fill="#e2e2e2"/>
  <rect x="12" y="13" width="1" height="1" fill="#aaaaaa"/>
  <rect x="13" y="13" width="2" height="1" fill="#9a9a9a"/>
  <rect x="15" y="13" width="1" height="1" fill="#aaaaaa"/>
  <rect x="16" y="13" width="1" height="1" fill="#e3e3e3"/>
  <rect x="17" y="13" width="1" height="1" fill="#e7e7e7"/>
  <rect x="18" y="13" width="1" height="1" fill="#e9e9e9"/>
  <rect x="19" y="13" width="1" height="1" fill="#efefef"/>
  <rect x="20" y="13" width="1" height="1" fill="#eeeeee"/>
  <rect x="21" y="13" width="1" height="1" fill="#ececec"/>
  <rect x="22" y="13" width="6" height="1" fill="#eeeeee"/>
  <rect x="28" y="13" width="1" height="2" fill="#cdcdcd"/>
  <rect x="31" y="13" width="1" height="1" fill="#eaeaea"/>
  <rect x="32" y="13" width="4" height="1" fill="#e9e9e9"/>
  <rect x="36" y="13" width="1" height="1" fill="#f2f2f2"/>
  <rect x="37" y="13" width="2" height="1" fill="#e7e7e7"/>
  <rect x="39" y="13" width="1" height="1" fill="#e3e3e3"/>
  <rect x="40" y="13" width="1" height="1" fill="#dedede"/>
  <rect x="41" y="13" width="1" height="1" fill="#959595"/>
  <rect x="42" y="13" width="1" height="1" fill="#8c8c8c"/>
  <rect x="43" y="13" width="1" height="1" fill="#848484"/>
  <rect x="44" y="13" width="1" height="1" fill="#9c9c9c"/>
  <rect x="45" y="13" width="1" height="1" fill="#e0e0e0"/>
  <rect x="46" y="13" width="1" height="1" fill="#e8e8e8"/>
  <rect x="47" y="13" width="5" height="1" fill="#ebebeb"/>
  <rect x="59" y="13" width="8" height="1" fill="#eaeaea"/>
  <rect x="67" y="13" width="1" height="1" fill="#e9e9e9"/>
  <rect x="68" y="13" width="2" height="1" fill="#e5e5e5"/>
  <rect x="70" y="13" width="1" height="1" fill="#eaeaea"/>
  <rect x="71" y="13" width="1" height="1" fill="#e8e8e8"/>
  <rect x="72" y="13" width="1" height="1" fill="#8f8f8f"/>
  <rect x="73" y="13" width="1" height="1" fill="#949494"/>
  <rect x="74" y="13" width="1" height="1" fill="#dbdbdb"/>
  <rect x="75" y="13" width="1" height="1" fill="#e2e2e2"/>
  <rect x="76" y="13" width="1" height="1" fill="#eaeaea"/>
  <rect x="77" y="13" width="1" height="1" fill="#e9e9e9"/>
  <rect x="88" y="13" width="4" height="7" fill="#f6f6f6"/>
  <rect x="92" y="13" width="4" height="5" fill="#f7f7f7"/>
  <rect x="96" y="13" width="1" height="1" fill="#fcfbfc"/>
  <rect x="97" y="13" width="1" height="1" fill="#f5f5f5"/>
  <rect x="98" y="13" width="1" height="1" fill="#f3f3f3"/>
  <rect x="99" y="13" width="1" height="1" fill="#d6d6d6"/>
  <rect x="100" y="13" width="1" height="1" fill="#c9c9c9"/>
  <rect x="101" y="13" width="1" height="1" fill="#c7c7c7"/>
  <rect x="102" y="13" width="1" height="1" fill="#d3d3d3"/>
  <rect x="103" y="13" width="1" height="1" fill="#f2f2f2"/>
  <rect x="104" y="13" width="1" height="1" fill="#f8f8f8"/>
  <rect x="105" y="13" width="1" height="1" fill="#f9f9f9"/>
  <rect x="106" y="13" width="7" height="1" fill="#f8f8f8"/>
  <rect x="1" y="14" width="2" height="1" fill="#ececec"/>
  <rect x="4" y="14" width="4" height="2" fill="#ebebeb"/>
  <rect x="8" y="14" width="2" height="1" fill="#e5e5e5"/>
  <rect x="10" y="14" width="1" height="1" fill="#e9e9e9"/>
  <rect x="11" y="14" width="1" height="1" fill="#a8a8a8"/>
  <rect x="12" y="14" width="1" height="1" fill="#9a9a9a"/>
  <rect x="13" y="14" width="2" height="1" fill="#aaaaaa"/>
  <rect x="15" y="14" width="1" height="1" fill="#9a9a9a"/>
  <rect x="16" y="14" width="1" height="1" fill="#a8a8a8"/>
  <rect x="17" y="14" width="1" height="1" fill="#ebebeb"/>
  <rect x="18" y="14" width="1" height="1" fill="#e7e7e7"/>
  <rect x="19" y="14" width="1" height="1" fill="#f0f0f0"/>
  <rect x="20" y="14" width="8" height="1" fill="#ececec"/>
  <rect x="30" y="14" width="1" height="2" fill="#e9e9e9"/>
  <rect x="31" y="14" width="1" height="1" fill="#ebebeb"/>
  <rect x="32" y="14" width="4" height="2" fill="#eaeaea"/>
  <rect x="36" y="14" width="1" height="1" fill="#f0f0f0"/>
  <rect x="37" y="14" width="1" height="1" fill="#e7e7e7"/>
  <rect x="38" y="14" width="1" height="1" fill="#f3f3f3"/>
  <rect x="39" y="14" width="1" height="1" fill="#e1e1e1"/>
  <rect x="40" y="14" width="1" height="1" fill="#949494"/>
  <rect x="41" y="14" width="1" height="1" fill="#888888"/>
  <rect x="42" y="14" width="1" height="1" fill="#a2a2a2"/>
  <rect x="43" y="14" width="1" height="1" fill="#9a9a9a"/>
  <rect x="44" y="14" width="1" height="1" fill="#818181"/>
  <rect x="45" y="14" width="1" height="1" fill="#9c9c9c"/>
  <rect x="46" y="14" width="1" height="1" fill="#e0e0e0"/>
  <rect x="47" y="14" width="1" height="1" fill="#e7e7e7"/>
  <rect x="48" y="14" width="1" height="6" fill="#eaeaea"/>
  <rect x="49" y="14" width="3" height="2" fill="#ebebeb"/>
  <rect x="59" y="14" width="9" height="2" fill="#eaeaea"/>
  <rect x="68" y="14" width="1" height="1" fill="#ececec"/>
  <rect x="69" y="14" width="1" height="1" fill="#eaeaea"/>
  <rect x="70" y="14" width="1" height="1" fill="#e0e0e0"/>
  <rect x="71" y="14" width="1" height="1" fill="#9d9d9d"/>
  <rect x="72" y="14" width="1" height="1" fill="#888888"/>
  <rect x="73" y="14" width="1" height="1" fill="#868686"/>
  <rect x="74" y="14" width="1" height="1" fill="#a0a0a0"/>
  <rect x="75" y="14" width="1" height="1" fill="#dedede"/>
  <rect x="76" y="14" width="2" height="1" fill="#e9e9e9"/>
  <rect x="78" y="14" width="4" height="1" fill="#eaeaea"/>
  <rect x="82" y="14" width="3" height="1" fill="#ebebeb"/>
  <rect x="86" y="14" width="1" height="2" fill="#cdcdcd"/>
  <rect x="96" y="14" width="2" height="1" fill="#f3f3f3"/>
  <rect x="98" y="14" width="1" height="1" fill="#d6d6d6"/>
  <rect x="99" y="14" width="1" height="1" fill="#cfcfcf"/>
  <rect x="100" y="14" width="1" height="1" fill="#d4d4d4"/>
  <rect x="101" y="14" width="1" height="1" fill="#d3d3d3"/>
  <rect x="102" y="14" width="1" height="1" fill="#c4c4c4"/>
  <rect x="103" y="14" width="1" height="1" fill="#d7d7d7"/>
  <rect x="104" y="14" width="1" height="1" fill="#eeeeee"/>
  <rect x="105" y="14" width="1" height="1" fill="#f8f8f8"/>
  <rect x="106" y="14" width="1" height="1" fill="#f9f9f9"/>
  <rect x="107" y="14" width="1" height="1" fill="#f8f8f8"/>
  <rect x="108" y="14" width="4" height="2" fill="#f7f7f7"/>
  <rect x="112" y="14" width="1" height="2" fill="#f8f8f8"/>
  <rect x="1" y="15" width="2" height="1" fill="#ebebeb"/>
  <rect x="8" y="15" width="1" height="1" fill="#ececec"/>
  <rect x="9" y="15" width="1" height="1" fill="#e2e2e2"/>
  <rect x="10" y="15" width="1" height="1" fill="#a8a8a8"/>
  <rect x="11" y="15" width="1" height="1" fill="#909090"/>
  <rect x="12" y="15" width="1" height="1" fill="#a1a1a1"/>
  <rect x="13" y="15" width="2" height="1" fill="#e7e7e7"/>
  <rect x="15" y="15" width="1" height="1" fill="#a1a1a1"/>
  <rect x="16" y="15" width="1" height="1" fill="#9e9e9e"/>
  <rect x="17" y="15" width="1" height="1" fill="#a8a8a8"/>
  <rect x="18" y="15" width="1" height="1" fill="#e3e3e3"/>
  <rect x="19" y="15" width="1" height="1" fill="#f2f2f2"/>
  <rect x="20" y="15" width="2" height="1" fill="#ebebeb"/>
  <rect x="22" y="15" width="6" height="1" fill="#ececec"/>
  <rect x="28" y="15" width="1" height="2" fill="#cccccc"/>
  <rect x="31" y="15" width="1" height="2" fill="#ececec"/>
  <rect x="36" y="15" width="1" height="1" fill="#eeeeee"/>
  <rect x="37" y="15" width="1" height="1" fill="#e3e3e3"/>
  <rect x="38" y="15" width="1" height="1" fill="#e1e1e1"/>
  <rect x="39" y="15" width="1" height="1" fill="#a0a0a0"/>
  <rect x="40" y="15" width="1" height="1" fill="#858585"/>
  <rect x="41" y="15" width="1" height="1" fill="#979797"/>
  <rect x="42" y="15" width="1" height="1" fill="#efefef"/>
  <rect x="43" y="15" width="1" height="1" fill="#f5f5f5"/>
  <rect x="44" y="15" width="1" height="1" fill="#9c9c9c"/>
  <rect x="45" y="15" width="1" height="1" fill="#818181"/>
  <rect x="46" y="15" width="1" height="1" fill="#9d9d9d"/>
  <rect x="47" y="15" width="1" height="1" fill="#e0e0e0"/>
  <rect x="68" y="15" width="1" height="1" fill="#ebebeb"/>
  <rect x="69" y="15" width="1" height="1" fill="#e8e8e8"/>
  <rect x="70" y="15" width="1" height="1" fill="#9d9d9d"/>
  <rect x="71" y="15" width="1" height="1" fill="#8d8d8d"/>
  <rect x="72" y="15" width="1" height="1" fill="#9c9c9c"/>
  <rect x="73" y="15" width="1" height="1" fill="#9e9e9e"/>
  <rect x="74" y="15" width="1" height="1" fill="#868686"/>
  <rect x="75" y="15" width="1" height="1" fill="#969696"/>
  <rect x="76" y="15" width="1" height="1" fill="#e3e3e3"/>
  <rect x="77" y="15" width="1" height="1" fill="#eaeaea"/>
  <rect x="78" y="15" width="1" height="1" fill="#e8e8e8"/>
  <rect x="79" y="15" width="6" height="1" fill="#ebebeb"/>
  <rect x="96" y="15" width="1" height="1" fill="#f3f3f3"/>
  <rect x="97" y="15" width="1" height="1" fill="#d7d7d7"/>
  <rect x="98" y="15" width="1" height="1" fill="#cfcfcf"/>
  <rect x="99" y="15" width="1" height="1" fill="#d3d3d3"/>
  <rect x="100" y="15" width="1" height="1" fill="#f6f6f6"/>
  <rect x="101" y="15" width="1" height="1" fill="#f2f2f2"/>
  <rect x="102" y="15" width="1" height="1" fill="#dcdcdc"/>
  <rect x="103" y="15" width="1" height="1" fill="#c7c7c7"/>
  <rect x="104" y="15" width="1" height="1" fill="#dadada"/>
  <rect x="105" y="15" width="1" height="1" fill="#eeeeee"/>
  <rect x="106" y="15" width="2" height="1" fill="#f8f8f8"/>
  <rect x="0" y="16" width="1" height="12" fill="#cecece"/>
  <rect x="1" y="16" width="7" height="1" fill="#ebebeb"/>
  <rect x="8" y="16" width="1" height="1" fill="#e5e5e5"/>
  <rect x="9" y="16" width="1" height="1" fill="#acacac"/>
  <rect x="10" y="16" width="1" height="1" fill="#959595"/>
  <rect x="11" y="16" width="1" height="1" fill="#adadad"/>
  <rect x="12" y="16" width="4" height="1" fill="#eaeaea"/>
  <rect x="16" y="16" width="1" height="1" fill="#a8a8a8"/>
  <rect x="17" y="16" width="1" height="1" fill="#939393"/>
  <rect x="18" y="16" width="1" height="1" fill="#b0b0b0"/>
  <rect x="19" y="16" width="1" height="1" fill="#e8e8e8"/>
  <rect x="20" y="16" width="6" height="1" fill="#ebebeb"/>
  <rect x="26" y="16" width="2" height="2" fill="#ececec"/>
  <rect x="29" y="16" width="1" height="4" fill="#cecece"/>
  <rect x="30" y="16" width="1" height="2" fill="#eaeaea"/>
  <rect x="32" y="16" width="4" height="2" fill="#ebebeb"/>
  <rect x="36" y="16" width="1" height="1" fill="#f5f5f5"/>
  <rect x="37" y="16" width="1" height="1" fill="#f0f0f0"/>
  <rect x="38" y="16" width="1" height="1" fill="#8f8f8f"/>
  <rect x="39" y="16" width="1" height="1" fill="#8b8b8b"/>
  <rect x="40" y="16" width="1" height="1" fill="#a0a0a0"/>
  <rect x="41" y="16" width="1" height="1" fill="#f1f1f1"/>
  <rect x="42" y="16" width="1" height="1" fill="#e4e4e4"/>
  <rect x="43" y="16" width="1" height="1" fill="#efefef"/>
  <rect x="44" y="16" width="1" height="1" fill="#f3f3f3"/>
  <rect x="45" y="16" width="1" height="1" fill="#a1a1a1"/>
  <rect x="46" y="16" width="1" height="1" fill="#8b8b8b"/>
  <rect x="47" y="16" width="1" height="1" fill="#9b9b9b"/>
  <rect x="49" y="16" width="7" height="4" fill="#ebebeb"/>
  <rect x="56" y="16" width="1" height="4" fill="#eaeaea"/>
  <rect x="57" y="16" width="1" height="4" fill="#cdcdcd"/>
  <rect x="58" y="16" width="1" height="4" fill="#cecece"/>
  <rect x="59" y="16" width="9" height="3" fill="#ebebeb"/>
  <rect x="68" y="16" width="1" height="1" fill="#f0f0f0"/>
  <rect x="69" y="16" width="1" height="1" fill="#959595"/>
  <rect x="70" y="16" width="1" height="1" fill="#8e8e8e"/>
  <rect x="71" y="16" width="1" height="1" fill="#9e9e9e"/>
  <rect x="72" y="16" width="1" height="1" fill="#e9e9e9"/>
  <rect x="73" y="16" width="1" height="1" fill="#e7e7e7"/>
  <rect x="74" y="16" width="1" height="1" fill="#9b9b9b"/>
  <rect x="75" y="16" width="1" height="1" fill="#8c8c8c"/>
  <rect x="76" y="16" width="1" height="1" fill="#9c9c9c"/>
  <rect x="77" y="16" width="1" height="1" fill="#e3e3e3"/>
  <rect x="78" y="16" width="1" height="1" fill="#e7e7e7"/>
  <rect x="79" y="16" width="6" height="1" fill="#ececec"/>
  <rect x="85" y="16" width="1" height="2" fill="#eeeeee"/>
  <rect x="86" y="16" width="1" height="2" fill="#cccccc"/>
  <rect x="96" y="16" width="1" height="1" fill="#d0d0d0"/>
  <rect x="97" y="16" width="1" height="1" fill="#c2c2c2"/>
  <rect x="98" y="16" width="1" height="1" fill="#d5d5d5"/>
  <rect x="99" y="16" width="1" height="1" fill="#f7f7f7"/>
  <rect x="100" y="16" width="1" height="1" fill="#f1f1f1"/>
  <rect x="101" y="16" width="1" height="1" fill="#ffffff"/>
  <rect x="102" y="16" width="1" height="1" fill="#f3f3f3"/>
  <rect x="103" y="16" width="1" height="1" fill="#d3d3d3"/>
  <rect x="104" y="16" width="1" height="1" fill="#c8c8c8"/>
  <rect x="105" y="16" width="1" height="1" fill="#d3d3d3"/>
  <rect x="106" y="16" width="2" height="1" fill="#f6f6f6"/>
  <rect x="108" y="16" width="5" height="2" fill="#f7f7f7"/>
  <rect x="113" y="16" width="2" height="12" fill="#f5f5f5"/>
  <rect x="115" y="16" width="1" height="12" fill="#e8e8e8"/>
  <rect x="1" y="17" width="2" height="1" fill="#eaeaea"/>
  <rect x="3" y="17" width="5" height="1" fill="#ebebeb"/>
  <rect x="8" y="17" width="1" height="1" fill="#e8e8e8"/>
  <rect x="9" y="17" width="1" height="1" fill="#a3a3a3"/>
  <rect x="10" y="17" width="1" height="1" fill="#a4a4a4"/>
  <rect x="11" y="17" width="5" height="1" fill="#eaeaea"/>
  <rect x="16" y="17" width="1" height="1" fill="#e0e0e0"/>
  <rect x="17" y="17" width="1" height="1" fill="#a9a9a9"/>
  <rect x="18" y="17" width="1" height="1" fill="#a7a6a7"/>
  <rect x="19" y="17" width="1" height="1" fill="#e0e0e0"/>
  <rect x="20" y="17" width="2" height="1" fill="#eaeaea"/>
  <rect x="22" y="17" width="4" height="1" fill="#ebebeb"/>
  <rect x="28" y="17" width="1" height="2" fill="#cbcbcb"/>
  <rect x="31" y="17" width="1" height="1" fill="#eeeeee"/>
  <rect x="36" y="17" width="1" height="1" fill="#eaeaea"/>
  <rect x="37" y="17" width="1" height="1" fill="#eeeeee"/>
  <rect x="38" y="17" width="1" height="1" fill="#939393"/>
  <rect x="39" y="17" width="1" height="1" fill="#979797"/>
  <rect x="40" y="17" width="1" height="1" fill="#eeeeee"/>
  <rect x="41" y="17" width="1" height="1" fill="#f2f2f2"/>
  <rect x="42" y="17" width="1" height="1" fill="#f0f0f0"/>
  <rect x="43" y="17" width="1" height="1" fill="#ececec"/>
  <rect x="44" y="17" width="1" height="1" fill="#f1f1f1"/>
  <rect x="45" y="17" width="1" height="1" fill="#f0f0f0"/>
  <rect x="46" y="17" width="1" height="1" fill="#a2a2a2"/>
  <rect x="47" y="17" width="1" height="1" fill="#939393"/>
  <rect x="68" y="17" width="1" height="1" fill="#969696"/>
  <rect x="69" y="17" width="1" height="1" fill="#878787"/>
  <rect x="70" y="17" width="1" height="1" fill="#959595"/>
  <rect x="71" y="17" width="1" height="1" fill="#eaeaea"/>
  <rect x="72" y="17" width="1" height="1" fill="#f3f3f3"/>
  <rect x="73" y="17" width="1" height="1" fill="#f1f1f1"/>
  <rect x="74" y="17" width="1" height="1" fill="#e8e8e8"/>
  <rect x="75" y="17" width="1" height="1" fill="#a4a4a4"/>
  <rect x="76" y="17" width="1" height="1" fill="#888888"/>
  <rect x="77" y="17" width="1" height="1" fill="#a1a1a1"/>
  <rect x="78" y="17" width="1" height="1" fill="#ececec"/>
  <rect x="79" y="17" width="1" height="1" fill="#ebebeb"/>
  <rect x="80" y="17" width="5" height="1" fill="#ececec"/>
  <rect x="96" y="17" width="1" height="1" fill="#c4c4c4"/>
  <rect x="97" y="17" width="1" height="1" fill="#d4d4d4"/>
  <rect x="98" y="17" width="1" height="1" fill="#eeeeee"/>
  <rect x="99" y="17" width="1" height="2" fill="#f3f3f3"/>
  <rect x="100" y="17" width="1" height="1" fill="#f5f5f5"/>
  <rect x="101" y="17" width="1" height="1" fill="#f7f7f7"/>
  <rect x="102" y="17" width="1" height="1" fill="#f6f6f6"/>
  <rect x="103" y="17" width="1" height="1" fill="#f1f1f1"/>
  <rect x="104" y="17" width="1" height="1" fill="#d3d3d3"/>
  <rect x="105" y="17" width="1" height="1" fill="#cfcfcf"/>
  <rect x="106" y="17" width="1" height="1" fill="#f9f9f9"/>
  <rect x="107" y="17" width="1" height="1" fill="#f2f2f2"/>
  <rect x="1" y="18" width="2" height="1" fill="#e9e9e9"/>
  <rect x="3" y="18" width="4" height="1" fill="#ebebeb"/>
  <rect x="7" y="18" width="1" height="1" fill="#eaeaea"/>
  <rect x="8" y="18" width="1" height="1" fill="#e9e9e9"/>
  <rect x="9" y="18" width="1" height="1" fill="#eaeaea"/>
  <rect x="10" y="18" width="1" height="1" fill="#e9e9e9"/>
  <rect x="11" y="18" width="1" height="1" fill="#e8e8e8"/>
  <rect x="12" y="18" width="1" height="1" fill="#e9e9e9"/>
  <rect x="13" y="18" width="3" height="1" fill="#eaeaea"/>
  <rect x="16" y="18" width="1" height="1" fill="#e8e8e8"/>
  <rect x="17" y="18" width="1" height="2" fill="#e4e4e4"/>
  <rect x="18" y="18" width="1" height="1" fill="#dedede"/>
  <rect x="19" y="18" width="7" height="1" fill="#eaeaea"/>
  <rect x="26" y="18" width="2" height="2" fill="#ebebeb"/>
  <rect x="30" y="18" width="1" height="2" fill="#ebebeb"/>
  <rect x="31" y="18" width="1" height="1" fill="#efefef"/>
  <rect x="32" y="18" width="4" height="1" fill="#ececec"/>
  <rect x="36" y="18" width="1" height="1" fill="#e7e7e7"/>
  <rect x="37" y="18" width="1" height="1" fill="#e8e8e8"/>
  <rect x="38" y="18" width="1" height="1" fill="#f2f2f2"/>
  <rect x="39" y="18" width="1" height="1" fill="#f3f3f3"/>
  <rect x="40" y="18" width="2" height="1" fill="#f0f0f0"/>
  <rect x="42" y="18" width="1" height="1" fill="#f2f2f2"/>
  <rect x="43" y="18" width="1" height="1" fill="#e8e8e8"/>
  <rect x="44" y="18" width="1" height="1" fill="#e4e4e4"/>
  <rect x="45" y="18" width="1" height="1" fill="#e8e8e8"/>
  <rect x="46" y="18" width="1" height="1" fill="#f7f7f7"/>
  <rect x="47" y="18" width="1" height="1" fill="#ececec"/>
  <rect x="68" y="18" width="1" height="1" fill="#999999"/>
  <rect x="69" y="18" width="1" height="1" fill="#9a9a9a"/>
  <rect x="70" y="18" width="1" height="1" fill="#eaeaea"/>
  <rect x="71" y="18" width="1" height="1" fill="#ececec"/>
  <rect x="72" y="18" width="1" height="1" fill="#e8e8e8"/>
  <rect x="73" y="18" width="1" height="1" fill="#e9e9e9"/>
  <rect x="74" y="18" width="1" height="2" fill="#eeeeee"/>
  <rect x="75" y="18" width="1" height="1" fill="#ebebeb"/>
  <rect x="76" y="18" width="1" height="1" fill="#9c9c9c"/>
  <rect x="77" y="18" width="1" height="1" fill="#9a9a9a"/>
  <rect x="78" y="18" width="1" height="1" fill="#ebebeb"/>
  <rect x="79" y="18" width="1" height="1" fill="#f2f2f2"/>
  <rect x="80" y="18" width="4" height="1" fill="#ececec"/>
  <rect x="84" y="18" width="2" height="2" fill="#eeeeee"/>
  <rect x="86" y="18" width="1" height="2" fill="#cbcbcb"/>
  <rect x="92" y="18" width="3" height="1" fill="#f7f7f7"/>
  <rect x="95" y="18" width="4" height="1" fill="#f6f6f6"/>
  <rect x="100" y="18" width="1" height="1" fill="#f2f2f2"/>
  <rect x="101" y="18" width="1" height="1" fill="#f1f1f1"/>
  <rect x="102" y="18" width="1" height="1" fill="#f2f2f2"/>
  <rect x="103" y="18" width="1" height="1" fill="#f8f8f8"/>
  <rect x="104" y="18" width="1" height="1" fill="#f6f6f6"/>
  <rect x="105" y="18" width="1" height="1" fill="#f9f9f9"/>
  <rect x="106" y="18" width="1" height="1" fill="#f0f0f0"/>
  <rect x="107" y="18" width="1" height="1" fill="#f5f5f5"/>
  <rect x="108" y="18" width="4" height="1" fill="#f6f6f6"/>
  <rect x="112" y="18" width="1" height="6" fill="#f7f7f7"/>
  <rect x="1" y="19" width="2" height="9" fill="#e8e8e8"/>
  <rect x="3" y="19" width="1" height="9" fill="#ebebeb"/>
  <rect x="4" y="19" width="4" height="1" fill="#eaeaea"/>
  <rect x="8" y="19" width="1" height="1" fill="#dedede"/>
  <rect x="9" y="19" width="1" height="1" fill="#e9e9e9"/>
  <rect x="10" y="19" width="1" height="1" fill="#efefef"/>
  <rect x="11" y="19" width="1" height="1" fill="#ebebeb"/>
  <rect x="12" y="19" width="3" height="1" fill="#eaeaea"/>
  <rect x="15" y="19" width="1" height="1" fill="#ececec"/>
  <rect x="16" y="19" width="1" height="1" fill="#ebebeb"/>
  <rect x="18" y="19" width="1" height="1" fill="#e3e3e3"/>
  <rect x="19" y="19" width="1" height="1" fill="#e2e2e2"/>
  <rect x="20" y="19" width="1" height="1" fill="#e8e8e8"/>
  <rect x="21" y="19" width="1" height="1" fill="#e9e9e9"/>
  <rect x="22" y="19" width="4" height="1" fill="#eaeaea"/>
  <rect x="28" y="19" width="1" height="1" fill="#c9c9c9"/>
  <rect x="31" y="19" width="1" height="1" fill="#f0f0f0"/>
  <rect x="32" y="19" width="3" height="1" fill="#ececec"/>
  <rect x="35" y="19" width="1" height="1" fill="#eeeeee"/>
  <rect x="36" y="19" width="1" height="1" fill="#f0f0f0"/>
  <rect x="37" y="19" width="2" height="1" fill="#eeeeee"/>
  <rect x="39" y="19" width="1" height="1" fill="#e8e8e8"/>
  <rect x="40" y="19" width="1" height="1" fill="#e7e7e7"/>
  <rect x="41" y="19" width="1" height="1" fill="#eeeeee"/>
  <rect x="42" y="19" width="1" height="1" fill="#eaeaea"/>
  <rect x="43" y="19" width="1" height="1" fill="#eeeeee"/>
  <rect x="44" y="19" width="1" height="1" fill="#f1f1f1"/>
  <rect x="45" y="19" width="1" height="1" fill="#ececec"/>
  <rect x="46" y="19" width="1" height="1" fill="#f8f8f8"/>
  <rect x="47" y="19" width="1" height="1" fill="#e7e7e7"/>
  <rect x="59" y="19" width="7" height="1" fill="#ebebeb"/>
  <rect x="66" y="19" width="1" height="1" fill="#ececec"/>
  <rect x="67" y="19" width="1" height="1" fill="#eeeeee"/>
  <rect x="68" y="19" width="1" height="1" fill="#f1f1f1"/>
  <rect x="69" y="19" width="1" height="1" fill="#f2f2f2"/>
  <rect x="70" y="19" width="1" height="1" fill="#ececec"/>
  <rect x="71" y="19" width="1" height="1" fill="#e7e7e7"/>
  <rect x="72" y="19" width="1" height="1" fill="#f5f5f5"/>
  <rect x="73" y="19" width="1" height="1" fill="#e7e7e7"/>
  <rect x="75" y="19" width="1" height="1" fill="#ececec"/>
  <rect x="76" y="19" width="1" height="1" fill="#f1f1f1"/>
  <rect x="77" y="19" width="1" height="1" fill="#f3f3f3"/>
  <rect x="78" y="19" width="1" height="1" fill="#f2f2f2"/>
  <rect x="79" y="19" width="5" height="1" fill="#ececec"/>
  <rect x="92" y="19" width="4" height="1" fill="#f7f7f7"/>
  <rect x="96" y="19" width="1" height="1" fill="#f0f0f0"/>
  <rect x="97" y="19" width="1" height="1" fill="#f7f7f7"/>
  <rect x="98" y="19" width="1" height="1" fill="#f3f3f3"/>
  <rect x="99" y="19" width="1" height="1" fill="#f2f2f2"/>
  <rect x="100" y="19" width="1" height="1" fill="#f3f3f3"/>
  <rect x="101" y="19" width="1" height="1" fill="#f6f6f6"/>
  <rect x="102" y="19" width="1" height="1" fill="#f5f5f5"/>
  <rect x="103" y="19" width="1" height="1" fill="#ececec"/>
  <rect x="104" y="19" width="1" height="1" fill="#f5f5f5"/>
  <rect x="105" y="19" width="1" height="1" fill="#f2f2f2"/>
  <rect x="106" y="19" width="3" height="1" fill="#f5f5f5"/>
  <rect x="109" y="19" width="3" height="1" fill="#f6f6f6"/>
  <rect x="4" y="20" width="4" height="1" fill="#e9e9e9"/>
  <rect x="8" y="20" width="4" height="1" fill="#e8e8e8"/>
  <rect x="12" y="20" width="2" height="4" fill="#e9e9e9"/>
  <rect x="14" y="20" width="4" height="4" fill="#e8e8e8"/>
  <rect x="18" y="20" width="3" height="1" fill="#e7e7e7"/>
  <rect x="21" y="20" width="1" height="1" fill="#e8e8e8"/>
  <rect x="22" y="20" width="4" height="4" fill="#e9e9e9"/>
  <rect x="26" y="20" width="2" height="4" fill="#eaeaea"/>
  <rect x="28" y="20" width="1" height="2" fill="#c8c8c8"/>
  <rect x="29" y="20" width="1" height="2" fill="#cdcdcd"/>
  <rect x="30" y="20" width="1" height="2" fill="#eaeaea"/>
  <rect x="31" y="20" width="1" height="2" fill="#efefef"/>
  <rect x="32" y="20" width="5" height="1" fill="#eeeeee"/>
  <rect x="37" y="20" width="1" height="1" fill="#efefef"/>
  <rect x="38" y="20" width="2" height="1" fill="#eeeeee"/>
  <rect x="40" y="20" width="3" height="1" fill="#ececec"/>
  <rect x="43" y="20" width="1" height="1" fill="#efefef"/>
  <rect x="44" y="20" width="4" height="4" fill="#eeeeee"/>
  <rect x="48" y="20" width="1" height="2" fill="#ebebeb"/>
  <rect x="49" y="20" width="7" height="2" fill="#ececec"/>
  <rect x="56" y="20" width="1" height="2" fill="#ebebeb"/>
  <rect x="57" y="20" width="1" height="3" fill="#cecece"/>
  <rect x="58" y="20" width="1" height="3" fill="#cfcfcf"/>
  <rect x="59" y="20" width="8" height="1" fill="#ececec"/>
  <rect x="67" y="20" width="9" height="1" fill="#eeeeee"/>
  <rect x="76" y="20" width="2" height="1" fill="#efefef"/>
  <rect x="78" y="20" width="1" height="1" fill="#f1f1f1"/>
  <rect x="79" y="20" width="1" height="1" fill="#ececec"/>
  <rect x="80" y="20" width="4" height="4" fill="#eeeeee"/>
  <rect x="84" y="20" width="2" height="4" fill="#efefef"/>
  <rect x="86" y="20" width="1" height="4" fill="#cccccc"/>
  <rect x="87" y="20" width="1" height="4" fill="#eaeaea"/>
  <rect x="88" y="20" width="6" height="4" fill="#f7f7f7"/>
  <rect x="94" y="20" width="5" height="1" fill="#f6f6f6"/>
  <rect x="99" y="20" width="1" height="1" fill="#f5f5f5"/>
  <rect x="100" y="20" width="3" height="1" fill="#f6f6f6"/>
  <rect x="103" y="20" width="1" height="1" fill="#f7f7f7"/>
  <rect x="104" y="20" width="3" height="1" fill="#f6f6f6"/>
  <rect x="107" y="20" width="1" height="1" fill="#f5f5f5"/>
  <rect x="108" y="20" width="4" height="1" fill="#f6f6f6"/>
  <rect x="4" y="21" width="8" height="7" fill="#e8e8e8"/>
  <rect x="18" y="21" width="2" height="3" fill="#e7e7e7"/>
  <rect x="20" y="21" width="2" height="3" fill="#e8e8e8"/>
  <rect x="32" y="21" width="8" height="1" fill="#eeeeee"/>
  <rect x="40" y="21" width="4" height="3" fill="#ececec"/>
  <rect x="59" y="21" width="9" height="1" fill="#ececec"/>
  <rect x="68" y="21" width="8" height="3" fill="#eeeeee"/>
  <rect x="76" y="21" width="4" height="3" fill="#efefef"/>
  <rect x="94" y="21" width="8" height="3" fill="#f6f6f6"/>
  <rect x="102" y="21" width="2" height="3" fill="#f7f7f7"/>
  <rect x="104" y="21" width="8" height="3" fill="#f6f6f6"/>
  <rect x="28" y="22" width="1" height="4" fill="#c9c9c9"/>
  <rect x="29" y="22" width="1" height="4" fill="#cecece"/>
  <rect x="30" y="22" width="1" height="4" fill="#ebebeb"/>
  <rect x="31" y="22" width="1" height="4" fill="#f0f0f0"/>
  <rect x="32" y="22" width="4" height="2" fill="#efefef"/>
  <rect x="36" y="22" width="4" height="2" fill="#eeeeee"/>
  <rect x="48" y="22" width="9" height="2" fill="#ececec"/>
  <rect x="59" y="22" width="5" height="2" fill="#eeeeee"/>
  <rect x="64" y="22" width="4" height="2" fill="#ececec"/>
  <rect x="57" y="23" width="1" height="2" fill="#cdcdcd"/>
  <rect x="58" y="23" width="1" height="2" fill="#cecece"/>
  <rect x="12" y="24" width="4" height="4" fill="#e9e9e9"/>
  <rect x="16" y="24" width="8" height="4" fill="#e8e8e8"/>
  <rect x="24" y="24" width="4" height="4" fill="#e9e9e9"/>
  <rect x="32" y="24" width="8" height="2" fill="#efefef"/>
  <rect x="40" y="24" width="17" height="1" fill="#eeeeee"/>
  <rect x="59" y="24" width="1" height="1" fill="#efefef"/>
  <rect x="60" y="24" width="16" height="2" fill="#eeeeee"/>
  <rect x="76" y="24" width="8" height="5" fill="#efefef"/>
  <rect x="84" y="24" width="2" height="4" fill="#eeeeee"/>
  <rect x="86" y="24" width="1" height="5" fill="#cbcbcb"/>
  <rect x="87" y="24" width="1" height="4" fill="#e9e9e9"/>
  <rect x="88" y="24" width="12" height="4" fill="#f6f6f6"/>
  <rect x="100" y="24" width="13" height="4" fill="#f7f7f7"/>
  <rect x="40" y="25" width="16" height="3" fill="#eeeeee"/>
  <rect x="56" y="25" width="1" height="1" fill="#efefef"/>
  <rect x="57" y="25" width="1" height="2" fill="#cccccc"/>
  <rect x="58" y="25" width="1" height="2" fill="#cdcdcd"/>
  <rect x="59" y="25" width="1" height="1" fill="#f0f0f0"/>
  <rect x="28" y="26" width="1" height="2" fill="#cbcbcb"/>
  <rect x="29" y="26" width="1" height="2" fill="#cfcfcf"/>
  <rect x="30" y="26" width="1" height="2" fill="#ececec"/>
  <rect x="31" y="26" width="1" height="3" fill="#f1f1f1"/>
  <rect x="32" y="26" width="4" height="2" fill="#f0f0f0"/>
  <rect x="36" y="26" width="4" height="2" fill="#efefef"/>
  <rect x="56" y="26" width="1" height="2" fill="#f0f0f0"/>
  <rect x="59" y="26" width="1" height="2" fill="#f1f1f1"/>
  <rect x="60" y="26" width="4" height="3" fill="#efefef"/>
  <rect x="64" y="26" width="12" height="3" fill="#eeeeee"/>
  <rect x="57" y="27" width="1" height="1" fill="#cdcdcd"/>
  <rect x="58" y="27" width="1" height="1" fill="#cecece"/>
  <rect x="0" y="28" width="1" height="1" fill="#d5d5d5"/>
  <rect x="1" y="28" width="1" height="1" fill="#e2e2e2"/>
  <rect x="2" y="28" width="2" height="1" fill="#e4e4e4"/>
  <rect x="4" y="28" width="8" height="1" fill="#e9e9e9"/>
  <rect x="12" y="28" width="4" height="1" fill="#eaeaea"/>
  <rect x="16" y="28" width="8" height="1" fill="#e9e9e9"/>
  <rect x="24" y="28" width="4" height="1" fill="#eaeaea"/>
  <rect x="28" y="28" width="1" height="2" fill="#cccccc"/>
  <rect x="29" y="28" width="1" height="1" fill="#d7d7d7"/>
  <rect x="30" y="28" width="1" height="1" fill="#e7e7e7"/>
  <rect x="32" y="28" width="4" height="1" fill="#f2f2f2"/>
  <rect x="36" y="28" width="2" height="1" fill="#f1f1f1"/>
  <rect x="38" y="28" width="4" height="1" fill="#f2f2f2"/>
  <rect x="42" y="28" width="15" height="1" fill="#f3f3f3"/>
  <rect x="57" y="28" width="2" height="1" fill="#cfcfcf"/>
  <rect x="59" y="28" width="1" height="1" fill="#f3f3f3"/>
  <rect x="84" y="28" width="1" height="1" fill="#f0f0f0"/>
  <rect x="85" y="28" width="1" height="1" fill="#efefef"/>
  <rect x="87" y="28" width="1" height="1" fill="#e8e8e8"/>
  <rect x="88" y="28" width="11" height="1" fill="#f7f7f7"/>
  <rect x="99" y="28" width="2" height="1" fill="#f6f6f6"/>
  <rect x="101" y="28" width="11" height="1" fill="#f5f5f5"/>
  <rect x="112" y="28" width="1" height="1" fill="#f8f8f8"/>
  <rect x="113" y="28" width="1" height="1" fill="#f7f7f7"/>
  <rect x="114" y="28" width="1" height="1" fill="#f2f2f2"/>
  <rect x="115" y="28" width="1" height="1" fill="#f0f0f0"/>
  <rect x="0" y="29" width="1" height="1" fill="#c6c6c6"/>
  <rect x="1" y="29" width="1" height="1" fill="#cdcdcd"/>
  <rect x="2" y="29" width="1" height="1" fill="#cecece"/>
  <rect x="3" y="29" width="1" height="1" fill="#cccccc"/>
  <rect x="4" y="29" width="1" height="1" fill="#c9c9c9"/>
  <rect x="5" y="29" width="7" height="1" fill="#c8c8c8"/>
  <rect x="12" y="29" width="4" height="1" fill="#c9c9c9"/>
  <rect x="16" y="29" width="8" height="1" fill="#c8c8c8"/>
  <rect x="24" y="29" width="4" height="1" fill="#c9c9c9"/>
  <rect x="29" y="29" width="1" height="1" fill="#cdcdcd"/>
  <rect x="30" y="29" width="2" height="1" fill="#cfcfcf"/>
  <rect x="32" y="29" width="1" height="1" fill="#cdcdcd"/>
  <rect x="33" y="29" width="3" height="1" fill="#cbcbcb"/>
  <rect x="36" y="29" width="2" height="1" fill="#c9c9c9"/>
  <rect x="38" y="29" width="4" height="1" fill="#cbcbcb"/>
  <rect x="42" y="29" width="13" height="1" fill="#cccccc"/>
  <rect x="55" y="29" width="2" height="1" fill="#cbcbcb"/>
  <rect x="57" y="29" width="2" height="1" fill="#cdcdcd"/>
  <rect x="59" y="29" width="1" height="1" fill="#cccccc"/>
  <rect x="60" y="29" width="1" height="1" fill="#cdcdcd"/>
  <rect x="61" y="29" width="3" height="1" fill="#cecece"/>
  <rect x="64" y="29" width="12" height="1" fill="#cdcdcd"/>
  <rect x="76" y="29" width="8" height="1" fill="#cecece"/>
  <rect x="84" y="29" width="1" height="1" fill="#c9c9c9"/>
  <rect x="85" y="29" width="2" height="1" fill="#cbcbcb"/>
  <rect x="87" y="29" width="12" height="1" fill="#e9e9e9"/>
  <rect x="99" y="29" width="2" height="1" fill="#e8e8e8"/>
  <rect x="101" y="29" width="11" height="1" fill="#e7e7e7"/>
  <rect x="112" y="29" width="2" height="1" fill="#eaeaea"/>
  <rect x="114" y="29" width="1" height="1" fill="#e8e8e8"/>
  <rect x="115" y="29" width="1" height="1" fill="#e7e7e7"/>
</svg>