<svg xmlns="http://www.w3.org/2000/svg" width="36" height="18" viewBox="0 0 36 18" shape-rendering="crispEdges">
  <rect x="7" y="1" width="1" height="1" fill="#9499997f"/>
  <rect x="8" y="1" width="1" height="1" fill="#919596ce"/>
  <rect x="10" y="1" width="1" height="1" fill="#8b8f90f8"/>
  <rect x="11" y="1" width="1" height="1" fill="#949999db"/>
  <rect x="12" y="1" width="1" height="1" fill="#9698999c"/>
  <rect x="13" y="1" width="1" height="1" fill="#999b9d33"/>
  <rect x="6" y="2" width="1" height="1" fill="#9a9e9f7f"/>
  <rect x="7" y="2" width="1" height="1" fill="#9ba0a0"/>
  <rect x="8" y="2" width="1" height="1" fill="#abb0b1"/>
  <rect x="10" y="2" width="1" height="1" fill="#a6aaab"/>
  <rect x="11" y="2" width="1" height="1" fill="#a4a9aa"/>
  <rect x="12" y="2" width="1" height="1" fill="#a1a3a5"/>
  <rect x="13" y="2" width="1" height="1" fill="#959798fe"/>
  <rect x="14" y="2" width="1" height="1" fill="#999b9d9a"/>
  <rect x="5" y="3" width="1" height="1" fill="#9499997f"/>
  <rect x="6" y="3" width="1" height="1" fill="#9a9e9f"/>
  <rect x="7" y="3" width="1" height="1" fill="#aaafb0"/>
  <rect x="8" y="3" width="1" height="1" fill="#afb3b4"/>
  <rect x="10" y="3" width="1" height="1" fill="#f6fafb"/>
  <rect x="11" y="3" width="1" height="1" fill="#e7ebec"/>
  <rect x="12" y="3" width="1" height="1" fill="#ced0d1"/>
  <rect x="13" y="3" width="1" height="1" fill="#b4b6b8"/>
  <rect x="14" y="3" width="1" height="1" fill="#a7a9ab"/>
  <rect x="15" y="3" width="1" height="1" fill="#8e9091c0"/>
  <rect x="4" y="4" width="1" height="1" fill="#9195967f"/>
  <rect x="5" y="4" width="1" height="1" fill="#a7abac"/>
  <rect x="6" y="4" width="1" height="1" fill="#aeb2b3"/>
  <rect x="7" y="4" width="1" height="1" fill="#b1b6b6"/>
  <rect x="8" y="4" width="1" height="1" fill="#a7abae"/>
  <rect x="10" y="4" width="1" height="1" fill="#979b9ee9"/>
  <rect x="11" y="4" width="1" height="1" fill="#a0a4a7c6"/>
  <rect x="12" y="4" width="1" height="1" fill="#d5d7d8b1"/>
  <rect x="13" y="4" width="1" height="1" fill="#edeff1fa"/>
  <rect x="14" y="4" width="1" height="1" fill="#b6b8ba"/>
  <rect x="15" y="4" width="1" height="1" fill="#aeb0b2"/>
  <rect x="16" y="4" width="1" height="1" fill="#9c9e9f98"/>
  <rect x="0" y="5" width="1" height="1" fill="#919596c4"/>
  <rect x="1" y="5" width="1" height="1" fill="#949999"/>
  <rect x="2" y="5" width="1" height="1" fill="#8c9091"/>
  <rect x="3" y="5" width="1" height="1" fill="#919596"/>
  <rect x="4" y="5" width="1" height="1" fill="#a3a8a9"/>
  <rect x="5" y="5" width="1" height="1" fill="#a8acad"/>
  <rect x="6" y="5" width="1" height="1" fill="#d5dadb"/>
  <rect x="7" y="5" width="1" height="1" fill="#a4a9aa"/>
  <rect x="8" y="5" width="1" height="1" fill="#aaaeb2"/>
  <rect x="10" y="5" width="1" height="1" fill="#a8acaf"/>
  <rect x="11" y="5" width="1" height="1" fill="#a4a9ac"/>
  <rect x="12" y="5" width="1" height="1" fill="#969899fe"/>
  <rect x="13" y="5" width="1" height="1" fill="#b3b5b68f"/>
  <rect x="14" y="5" width="1" height="1" fill="#e7e9ebea"/>
  <rect x="15" y="5" width="1" height="1" fill="#b1b3b4"/>
  <rect x="16" y="5" width="1" height="1" fill="#a6a8aafe"/>
  <rect x="17" y="5" width="1" height="1" fill="#9395972b"/>
  <rect x="0" y="6" width="1" height="1" fill="#aaafb0"/>
  <rect x="1" y="6" width="1" height="1" fill="#a7abac"/>
  <rect x="2" y="6" width="1" height="1" fill="#afb3b4"/>
  <rect x="3" y="6" width="1" height="1" fill="#abb0b1"/>
  <rect x="4" y="6" width="1" height="1" fill="#a8acad"/>
  <rect x="5" y="6" width="1" height="1" fill="#d2d6d7"/>
  <rect x="6" y="6" width="1" height="1" fill="#fcffff80"/>
  <rect x="7" y="6" width="1" height="1" fill="#b2b7b8"/>
  <rect x="8" y="6" width="1" height="1" fill="#b2b8bb"/>
  <rect x="10" y="6" width="1" height="1" fill="#f0f6f9"/>
  <rect x="11" y="6" width="1" height="1" fill="#e0e4e7"/>
  <rect x="12" y="6" width="1" height="1" fill="#a9aeae"/>
  <rect x="13" y="6" width="1" height="1" fill="#959a9bfe"/>
  <rect x="14" y="6" width="1" height="1" fill="#bdc1c264"/>
  <rect x="15" y="6" width="1" height="1" fill="#c9cdcefd"/>
  <rect x="16" y="6" width="1" height="1" fill="#acaeb0"/>
  <rect x="17" y="6" width="1" height="1" fill="#9a9c9ea6"/>
  <rect x="0" y="7" width="1" height="1" fill="#a8acad"/>
  <rect x="1" y="7" width="1" height="1" fill="#a9aeae"/>
  <rect x="2" y="7" width="1" height="1" fill="#f9feff"/>
  <rect x="3" y="7" width="1" height="1" fill="#fbffff"/>
  <rect x="4" y="7" width="1" height="1" fill="#f4f8f9"/>
  <rect x="5" y="7" width="1" height="1" fill="#fcffff80"/>
  <rect x="7" y="7" width="1" height="1" fill="#afb3b4"/>
  <rect x="8" y="7" width="1" height="1" fill="#adb4b6"/>
  <rect x="9" y="7" width="1" height="1" fill="#8c92945a"/>
  <rect x="10" y="7" width="1" height="1" fill="#a4aaad6a"/>
  <rect x="11" y="7" width="1" height="1" fill="#f0f6f978"/>
  <rect x="12" y="7" width="1" height="1" fill="#d2d6d7fc"/>
  <rect x="13" y="7" width="1" height="1" fill="#b6babb"/>
  <rect x="14" y="7" width="1" height="1" fill="#a7abacc0"/>
  <rect x="15" y="7" width="1" height="1" fill="#d9dddeb4"/>
  <rect x="16" y="7" width="1" height="1" fill="#b3b5b6"/>
  <rect x="17" y="7" width="1" height="1" fill="#aeb0b2ed"/>
  <rect x="0" y="8" width="1" height="1" fill="#b1b6b6"/>
  <rect x="1" y="8" width="1" height="1" fill="#a8acad"/>
  <rect x="7" y="8" width="1" height="1" fill="#b0b6b9"/>
  <rect x="8" y="8" width="1" height="1" fill="#acb3b5"/>
  <rect x="9" y="8" width="1" height="1" fill="#959b9e"/>
  <rect x="10" y="8" width="1" height="1" fill="#9da4a6"/>
  <rect x="11" y="8" width="1" height="1" fill="#91989a5c"/>
  <rect x="12" y="8" width="1" height="1" fill="#e2e8eb7f"/>
  <rect x="13" y="8" width="1" height="1" fill="#b1b7ba"/>
  <rect x="14" y="8" width="1" height="1" fill="#b4b8bbf5"/>
  <rect x="15" y="8" width="1" height="1" fill="#e2e6e953"/>
  <rect x="16" y="8" width="1" height="1" fill="#abb0b1"/>
  <rect x="17" y="8" width="1" height="1" fill="#a9aeaefc"/>
  <rect x="0" y="9" width="1" height="1" fill="#a6aaab"/>
  <rect x="1" y="9" width="1" height="1" fill="#a7abac"/>
  <rect x="7" y="9" width="1" height="1" fill="#a5acae"/>
  <rect x="8" y="9" width="1" height="1" fill="#b2b8bb"/>
  <rect x="9" y="9" width="1" height="1" fill="#abb1b4"/>
  <rect x="10" y="9" width="1" height="1" fill="#aab0b3"/>
  <rect x="11" y="9" width="1" height="1" fill="#c3cacc96"/>
  <rect x="12" y="9" width="1" height="1" fill="#c6cccf27"/>
  <rect x="13" y="9" width="1" height="1" fill="#a9afb2"/>
  <rect x="14" y="9" width="1" height="1" fill="#b1b5b9fb"/>
  <rect x="15" y="9" width="1" height="1" fill="#c9cdd02d"/>
  <rect x="16" y="9" width="1" height="1" fill="#aaafb0"/>
  <rect x="17" y="9" width="1" height="1" fill="#b2b7b8fe"/>
  <rect x="29" y="9" width="1" height="1" fill="#ea645489"/>
  <rect x="30" y="9" width="1" height="1" fill="#df5a55c6"/>
  <rect x="31" y="9" width="1" height="1" fill="#e76563fc"/>
  <rect x="32" y="9" width="1" height="1" fill="#e46560bf"/>
  <rect x="33" y="9" width="1" height="1" fill="#d06a6682"/>
  <rect x="0" y="10" width="1" height="1" fill="#b1b6b6"/>
  <rect x="1" y="10" width="1" height="1" fill="#b7bcbc"/>
  <rect x="7" y="10" width="1" height="1" fill="#acb3b5"/>
  <rect x="8" y="10" width="1" height="1" fill="#adb6b7"/>
  <rect x="9" y="10" width="1" height="1" fill="#d5dddf"/>
  <rect x="10" y="10" width="1" height="1" fill="#dfe8e9"/>
  <rect x="11" y="10" width="1" height="1" fill="#f0f9fb5c"/>
  <rect x="12" y="10" width="1" height="1" fill="#98a1a27d"/>
  <rect x="13" y="10" width="1" height="1" fill="#b2b8bb"/>
  <rect x="14" y="10" width="1" height="1" fill="#c0c6c9f3"/>
  <rect x="15" y="10" width="1" height="1" fill="#a9afb257"/>
  <rect x="16" y="10" width="1" height="1" fill="#a8acad"/>
  <rect x="17" y="10" width="1" height="1" fill="#c0c5c6fd"/>
  <rect x="28" y="10" width="1" height="1" fill="#db6553ba"/>
  <rect x="29" y="10" width="1" height="1" fill="#df6457"/>
  <rect x="30" y="10" width="1" height="1" fill="#d86764"/>
  <rect x="31" y="10" width="1" height="1" fill="#d76a68"/>
  <rect x="32" y="10" width="1" height="1" fill="#da6c61"/>
  <rect x="33" y="10" width="1" height="1" fill="#d1665a"/>
  <rect x="34" y="10" width="1" height="1" fill="#cb665fb7"/>
  <rect x="0" y="11" width="1" height="1" fill="#aaafb0"/>
  <rect x="1" y="11" width="1" height="1" fill="#aeb2b3"/>
  <rect x="2" y="11" width="1" height="1" fill="#939798"/>
  <rect x="3" y="11" width="1" height="1" fill="#959a9b"/>
  <rect x="4" y="11" width="1" height="1" fill="#919598"/>
  <rect x="5" y="11" width="1" height="1" fill="#999da07f"/>
  <rect x="7" y="11" width="1" height="1" fill="#a5acae"/>
  <rect x="8" y="11" width="1" height="1" fill="#acb3b5"/>
  <rect x="9" y="11" width="1" height="1" fill="#f7ffff5b"/>
  <rect x="10" y="11" width="1" height="1" fill="#e9f2f46a"/>
  <rect x="11" y="11" width="1" height="1" fill="#969ea076"/>
  <rect x="12" y="11" width="1" height="1" fill="#99a2a4fc"/>
  <rect x="13" y="11" width="1" height="1" fill="#afb5b7"/>
  <rect x="14" y="11" width="1" height="1" fill="#e6edefba"/>
  <rect x="15" y="11" width="1" height="1" fill="#a6aaadba"/>
  <rect x="16" y="11" width="1" height="1" fill="#a7abac"/>
  <rect x="17" y="11" width="1" height="1" fill="#cacecfec"/>
  <rect x="27" y="11" width="1" height="1" fill="#e060548c"/>
  <rect x="28" y="11" width="1" height="1" fill="#cf584c"/>
  <rect x="29" y="11" width="1" height="1" fill="#e4736c"/>
  <rect x="30" y="11" width="1" height="1" fill="#ffa9a8"/>
  <rect x="31" y="11" width="1" height="1" fill="#ffdcda"/>
  <rect x="32" y="11" width="1" height="1" fill="#ffc6bb"/>
  <rect x="33" y="11" width="1" height="1" fill="#e17f73"/>
  <rect x="34" y="11" width="1" height="1" fill="#de655c"/>
  <rect x="35" y="11" width="1" height="1" fill="#e6615a84"/>
  <rect x="0" y="12" width="4" height="1" fill="#b5b9ba"/>
  <rect x="4" y="12" width="1" height="1" fill="#aaaeb2"/>
  <rect x="5" y="12" width="1" height="1" fill="#a4a9ac"/>
  <rect x="6" y="12" width="1" height="1" fill="#8c90937f"/>
  <rect x="7" y="12" width="1" height="1" fill="#aaaeb2"/>
  <rect x="8" y="12" width="1" height="2" fill="#a9afb2"/>
  <rect x="10" y="12" width="1" height="1" fill="#909799"/>
  <rect x="11" y="12" width="1" height="1" fill="#9aa0a2"/>
  <rect x="12" y="12" width="1" height="1" fill="#a8aeb0"/>
  <rect x="13" y="12" width="1" height="1" fill="#dce2e5fd"/>
  <rect x="14" y="12" width="1" height="1" fill="#c3c7ca64"/>
  <rect x="15" y="12" width="1" height="1" fill="#a0a4a7fe"/>
  <rect x="16" y="12" width="1" height="1" fill="#aeb0b2"/>
  <rect x="17" y="12" width="1" height="1" fill="#e8eaeca1"/>
  <rect x="27" y="12" width="1" height="1" fill="#e15b54c9"/>
  <rect x="28" y="12" width="1" height="1" fill="#d76661"/>
  <rect x="29" y="12" width="1" height="1" fill="#ffaba9"/>
  <rect x="30" y="12" width="1" height="1" fill="#d56e6f"/>
  <rect x="31" y="12" width="1" height="1" fill="#ffcbc9"/>
  <rect x="32" y="12" width="1" height="1" fill="#ffeee5"/>
  <rect x="33" y="12" width="1" height="1" fill="#ffcec6"/>
  <rect x="34" y="12" width="1" height="1" fill="#d16059"/>
  <rect x="35" y="12" width="1" height="1" fill="#e75f5bc1"/>
  <rect x="0" y="13" width="1" height="1" fill="#fcffffc4"/>
  <rect x="1" y="13" width="3" height="1" fill="#fcffff"/>
  <rect x="4" y="13" width="1" height="1" fill="#ccd0d3"/>
  <rect x="5" y="13" width="1" height="1" fill="#aaaeb2"/>
  <rect x="6" y="13" width="1" height="1" fill="#a6aaad"/>
  <rect x="7" y="13" width="1" height="1" fill="#b2b6ba"/>
  <rect x="10" y="13" width="1" height="1" fill="#b9bfc2"/>
  <rect x="11" y="13" width="1" height="1" fill="#d0d7d9"/>
  <rect x="12" y="13" width="1" height="1" fill="#e8eef0fd"/>
  <rect x="13" y="13" width="1" height="1" fill="#ced4d78a"/>
  <rect x="14" y="13" width="1" height="1" fill="#a2a6a9f0"/>
  <rect x="15" y="13" width="1" height="1" fill="#a9adb0"/>
  <rect x="16" y="13" width="1" height="1" fill="#d3d6d7fd"/>
  <rect x="17" y="13" width="1" height="1" fill="#fdffff26"/>
  <rect x="27" y="13" width="1" height="1" fill="#f06b5f"/>
  <rect x="28" y="13" width="1" height="1" fill="#d86c65"/>
  <rect x="29" y="13" width="1" height="1" fill="#ffe6e3"/>
  <rect x="30" y="13" width="1" height="1" fill="#ffc0c0"/>
  <rect x="31" y="13" width="1" height="1" fill="#c77f7c"/>
  <rect x="32" y="13" width="1" height="1" fill="#ffd4cc"/>
  <rect x="33" y="13" width="1" height="1" fill="#ffede5"/>
  <rect x="34" y="13" width="1" height="1" fill="#d6635c"/>
  <rect x="35" y="13" width="1" height="1" fill="#e55954fc"/>
  <rect x="4" y="14" width="1" height="1" fill="#fbffff80"/>
  <rect x="5" y="14" width="1" height="1" fill="#ced2d6"/>
  <rect x="6" y="14" width="1" height="1" fill="#a8acaf"/>
  <rect x="7" y="14" width="1" height="1" fill="#aeb2b5"/>
  <rect x="8" y="14" width="1" height="1" fill="#b1b7ba"/>
  <rect x="10" y="14" width="1" height="1" fill="#eaf0f3e0"/>
  <rect x="11" y="14" width="1" height="1" fill="#e2e8ebbe"/>
  <rect x="12" y="14" width="1" height="1" fill="#a3a9acb3"/>
  <rect x="13" y="14" width="1" height="1" fill="#a1a7a9fc"/>
  <rect x="14" y="14" width="1" height="1" fill="#a7abae"/>
  <rect x="15" y="14" width="1" height="1" fill="#bbbfc2"/>
  <rect x="16" y="14" width="1" height="1" fill="#fbfdff93"/>
  <rect x="27" y="14" width="1" height="1" fill="#e86a54d4"/>
  <rect x="28" y="14" width="1" height="1" fill="#c95f4a"/>
  <rect x="29" y="14" width="1" height="1" fill="#ffd7c7"/>
  <rect x="30" y="14" width="1" height="1" fill="#ffedec"/>
  <rect x="31" y="14" width="1" height="1" fill="#fecccd"/>
  <rect x="32" y="14" width="1" height="1" fill="#b97d76"/>
  <rect x="33" y="14" width="1" height="1" fill="#ffb2a8"/>
  <rect x="34" y="14" width="1" height="1" fill="#de6058"/>
  <rect x="35" y="14" width="1" height="1" fill="#eb5951ce"/>
  <rect x="5" y="15" width="1" height="1" fill="#fdffff80"/>
  <rect x="6" y="15" width="1" height="1" fill="#d4d8db"/>
  <rect x="7" y="15" width="1" height="1" fill="#afb3b6"/>
  <rect x="8" y="15" width="1" height="1" fill="#afb5b7"/>
  <rect x="10" y="15" width="1" height="1" fill="#9aa0a2"/>
  <rect x="11" y="15" width="1" height="1" fill="#a2a8ab"/>
  <rect x="12" y="15" width="1" height="1" fill="#a9afb2"/>
  <rect x="13" y="15" width="1" height="1" fill="#b0b4b7"/>
  <rect x="14" y="15" width="1" height="1" fill="#c6cacd"/>
  <rect x="15" y="15" width="1" height="1" fill="#f8fcffb8"/>
  <rect x="27" y="15" width="1" height="1" fill="#ce695497"/>
  <rect x="28" y="15" width="1" height="1" fill="#cd664e"/>
  <rect x="29" y="15" width="1" height="1" fill="#d77a67"/>
  <rect x="30" y="15" width="1" height="1" fill="#ffd7d2"/>
  <rect x="31" y="15" width="1" height="1" fill="#ffeeed"/>
  <rect x="32" y="15" width="1" height="1" fill="#ffb7af"/>
  <rect x="33" y="15" width="1" height="1" fill="#e0756a"/>
  <rect x="34" y="15" width="1" height="1" fill="#e15a51"/>
  <rect x="35" y="15" width="1" height="1" fill="#f2605691"/>
  <rect x="6" y="16" width="1" height="1" fill="#fbffff80"/>
  <rect x="7" y="16" width="1" height="1" fill="#dbe0e0"/>
  <rect x="8" y="16" width="1" height="1" fill="#bcc0c3"/>
  <rect x="10" y="16" width="1" height="1" fill="#adb1b2"/>
  <rect x="11" y="16" width="1" height="1" fill="#bfc4c4"/>
  <rect x="12" y="16" width="1" height="1" fill="#d7dbde"/>
  <rect x="13" y="16" width="1" height="1" fill="#eff1f5fc"/>
  <rect x="14" y="16" width="1" height="1" fill="#fcfeff8d"/>
  <rect x="28" y="16" width="1" height="1" fill="#cf695cc1"/>
  <rect x="29" y="16" width="1" height="1" fill="#dc6355"/>
  <rect x="30" y="16" width="2" height="1" fill="#d6655e"/>
  <rect x="32" y="16" width="1" height="1" fill="#dc635a"/>
  <rect x="33" y="16" width="1" height="1" fill="#e26055"/>
  <rect x="34" y="16" width="1" height="1" fill="#e95d53c0"/>
  <rect x="7" y="17" width="1" height="1" fill="#fbffff80"/>
  <rect x="8" y="17" width="1" height="1" fill="#ffffffce"/>
  <rect x="10" y="17" width="1" height="1" fill="#f7fcfcee"/>
  <rect x="11" y="17" width="1" height="1" fill="#ffffffd0"/>
  <rect x="12" y="17" width="1" height="1" fill="#fbfdff89"/>
  <rect x="13" y="17" width="1" height="1" fill="#fbfdff26"/>
  <rect x="29" y="17" width="1" height="1" fill="#e65f5398"/>
  <rect x="30" y="17" width="1" height="1" fill="#e75e55d5"/>
  <rect x="31" y="17" width="1" height="1" fill="#e95d55"/>
  <rect x="32" y="17" width="1" height="1" fill="#ea5c53cf"/>
  <rect x="33" y="17" width="1" height="1" fill="#ea5d5192"/>
</svg>