<svg xmlns="http://www.w3.org/2000/svg" width="170" height="1" viewBox="0 0 170 1" shape-rendering="crispEdges">
  <rect x="11" y="0" width="1" height="1" fill="#d4d4d40a"/>
  <rect x="12" y="0" width="1" height="1" fill="#d4d4d40c"/>
  <rect x="13" y="0" width="1" height="1" fill="#d4d4d40e"/>
  <rect x="14" y="0" width="1" height="1" fill="#d4d4d411"/>
  <rect x="15" y="0" width="1" height="1" fill="#d4d4d414"/>
  <rect x="16" y="0" width="1" height="1" fill="#d4d4d417"/>
  <rect x="17" y="0" width="1" height="1" fill="#d4d4d41b"/>
  <rect x="18" y="0" width="1" height="1" fill="#d4d4d41f"/>
  <rect x="19" y="0" width="1" height="1" fill="#d4d4d423"/>
  <rect x="20" y="0" width="1" height="1" fill="#d4d4d428"/>
  <rect x="21" y="0" width="1" height="1" fill="#d4d4d42c"/>
  <rect x="22" y="0" width="1" height="1" fill="#d4d4d432"/>
  <rect x="23" y="0" width="1" height="1" fill="#d4d4d437"/>
  <rect x="24" y="0" width="1" height="1" fill="#d4d4d43c"/>
  <rect x="25" y="0" width="1" height="1" fill="#d4d4d441"/>
  <rect x="26" y="0" width="1" height="1" fill="#d4d4d447"/>
  <rect x="27" y="0" width="1" height="1" fill="#d4d4d44c"/>
  <rect x="28" y="0" width="1" height="1" fill="#d4d4d452"/>
  <rect x="29" y="0" width="1" height="1" fill="#d4d4d458"/>
  <rect x="30" y="0" width="1" height="1" fill="#d4d4d45e"/>
  <rect x="31" y="0" width="1" height="1" fill="#d4d4d462"/>
  <rect x="32" y="0" width="1" height="1" fill="#d4d4d468"/>
  <rect x="33" y="0" width="1" height="1" fill="#d4d4d46d"/>
  <rect x="34" y="0" width="1" height="1" fill="#d4d4d472"/>
  <rect x="35" y="0" width="1" height="1" fill="#d4d4d475"/>
  <rect x="36" y="0" width="1" height="1" fill="#d4d4d478"/>
  <rect x="37" y="0" width="1" height="1" fill="#d4d4d47a"/>
  <rect x="38" y="0" width="1" height="1" fill="#d4d4d47d"/>
  <rect x="39" y="0" width="1" height="1" fill="#d4d4d47f"/>
  <rect x="40" y="0" width="1" height="1" fill="#d4d4d482"/>
  <rect x="41" y="0" width="1" height="1" fill="#d4d4d483"/>
  <rect x="42" y="0" width="1" height="1" fill="#d4d4d485"/>
  <rect x="43" y="0" width="85" height="1" fill="#d4d4d487"/>
  <rect x="128" y="0" width="1" height="1" fill="#d4d4d485"/>
  <rect x="129" y="0" width="1" height="1" fill="#d4d4d483"/>
  <rect x="130" y="0" width="1" height="1" fill="#d4d4d481"/>
  <rect x="131" y="0" width="1" height="1" fill="#d4d4d47f"/>
  <rect x="132" y="0" width="1" height="1" fill="#d4d4d47a"/>
  <rect x="133" y="0" width="1" height="1" fill="#d4d4d476"/>
  <rect x="134" y="0" width="1" height="1" fill="#d4d4d471"/>
  <rect x="135" y="0" width="1" height="1" fill="#d4d4d46c"/>
  <rect x="136" y="0" width="1" height="1" fill="#d4d4d467"/>
  <rect x="137" y="0" width="1" height="1" fill="#d4d4d461"/>
  <rect x="138" y="0" width="1" height="1" fill="#d4d4d45c"/>
  <rect x="139" y="0" width="1" height="1" fill="#d4d4d456"/>
  <rect x="140" y="0" width="1" height="1" fill="#d4d4d450"/>
  <rect x="141" y="0" width="1" height="1" fill="#d4d4d44a"/>
  <rect x="142" y="0" width="1" height="1" fill="#d4d4d445"/>
  <rect x="143" y="0" width="1" height="1" fill="#d4d4d440"/>
  <rect x="144" y="0" width="1" height="1" fill="#d4d4d43a"/>
  <rect x="145" y="0" width="1" height="1" fill="#d4d4d434"/>
  <rect x="146" y="0" width="1" height="1" fill="#d4d4d430"/>
  <rect x="147" y="0" width="1" height="1" fill="#d4d4d42b"/>
  <rect x="148" y="0" width="1" height="1" fill="#d4d4d426"/>
  <rect x="149" y="0" width="1" height="1" fill="#d4d4d422"/>
  <rect x="150" y="0" width="1" height="1" fill="#d4d4d41e"/>
  <rect x="151" y="0" width="1" height="1" fill="#d4d4d41a"/>
  <rect x="152" y="0" width="1" height="1" fill="#d4d4d416"/>
  <rect x="153" y="0" width="1" height="1" fill="#d4d4d413"/>
  <rect x="154" y="0" width="1" height="1" fill="#d4d4d410"/>
  <rect x="155" y="0" width="1" height="1" fill="#d4d4d40e"/>
  <rect x="156" y="0" width="1" height="1" fill="#d4d4d40b"/>
</svg>