<svg xmlns="http://www.w3.org/2000/svg" width="36" height="12" viewBox="0 0 36 12" shape-rendering="crispEdges">
  <rect x="0" y="0" width="1" height="1" fill="#b8babb49"/>
  <rect x="1" y="0" width="1" height="1" fill="#c3c5c7e6"/>
  <rect x="2" y="0" width="1" height="1" fill="#cbcdcf"/>
  <rect x="3" y="0" width="1" height="1" fill="#c9cbcd"/>
  <rect x="4" y="0" width="4" height="1" fill="#ced0d1"/>
  <rect x="8" y="0" width="1" height="1" fill="#cbcdcf"/>
  <rect x="9" y="0" width="1" height="1" fill="#ced0d1"/>
  <rect x="10" y="0" width="1" height="1" fill="#c6c8c9e6"/>
  <rect x="11" y="0" width="1" height="1" fill="#babcbd49"/>
  <rect x="12" y="0" width="1" height="1" fill="#b6b8ba49"/>
  <rect x="13" y="0" width="1" height="1" fill="#c3c5c7e6"/>
  <rect x="14" y="0" width="1" height="1" fill="#caccce"/>
  <rect x="15" y="0" width="1" height="1" fill="#c9cbcd"/>
  <rect x="16" y="0" width="1" height="1" fill="#c4c6c8"/>
  <rect x="17" y="0" width="2" height="1" fill="#d0d2d4"/>
  <rect x="19" y="0" width="1" height="1" fill="#cfd1d2"/>
  <rect x="20" y="0" width="1" height="1" fill="#cdcfd0"/>
  <rect x="21" y="0" width="1" height="1" fill="#d0d2d4"/>
  <rect x="22" y="0" width="1" height="1" fill="#cdcfd0e6"/>
  <rect x="23" y="0" width="1" height="1" fill="#b2b4b549"/>
  <rect x="24" y="0" width="1" height="1" fill="#bdbfc149"/>
  <rect x="25" y="0" width="1" height="1" fill="#cacccee6"/>
  <rect x="26" y="0" width="1" height="1" fill="#d1d3d5"/>
  <rect x="27" y="0" width="1" height="1" fill="#cbcdcf"/>
  <rect x="28" y="0" width="4" height="1" fill="#cfd1d2"/>
  <rect x="32" y="0" width="1" height="1" fill="#ced0cf"/>
  <rect x="33" y="0" width="1" height="1" fill="#d2d5d4"/>
  <rect x="34" y="0" width="1" height="1" fill="#c4c7c6e6"/>
  <rect x="35" y="0" width="1" height="1" fill="#b9bbba49"/>
  <rect x="0" y="1" width="1" height="1" fill="#c3c5c7e6"/>
  <rect x="1" y="1" width="1" height="1" fill="#d0d2d4"/>
  <rect x="2" y="1" width="1" height="1" fill="#d7d9db"/>
  <rect x="3" y="1" width="1" height="1" fill="#d6d8d9"/>
  <rect x="4" y="1" width="4" height="1" fill="#d8dadc"/>
  <rect x="8" y="1" width="1" height="1" fill="#d9dbdd"/>
  <rect x="9" y="1" width="1" height="1" fill="#dadcde"/>
  <rect x="10" y="1" width="1" height="1" fill="#d3d6d7"/>
  <rect x="11" y="1" width="1" height="1" fill="#c7c9cae6"/>
  <rect x="12" y="1" width="1" height="1" fill="#c3c5c7e6"/>
  <rect x="13" y="1" width="1" height="1" fill="#d0d2d4"/>
  <rect x="14" y="1" width="1" height="1" fill="#d7d9db"/>
  <rect x="15" y="1" width="1" height="1" fill="#d6d8d9"/>
  <rect x="16" y="1" width="1" height="1" fill="#d8dadc"/>
  <rect x="17" y="1" width="1" height="1" fill="#d3d6d7"/>
  <rect x="18" y="1" width="1" height="1" fill="#dfe1e3"/>
  <rect x="19" y="1" width="1" height="1" fill="#e4e6e7"/>
  <rect x="20" y="1" width="1" height="1" fill="#e3e5e6"/>
  <rect x="21" y="1" width="1" height="1" fill="#d8dadc"/>
  <rect x="22" y="1" width="1" height="1" fill="#d2d4d6"/>
  <rect x="23" y="1" width="1" height="1" fill="#bfc1c2e6"/>
  <rect x="24" y="1" width="1" height="1" fill="#c3c5c7e6"/>
  <rect x="25" y="1" width="1" height="1" fill="#d0d2d4"/>
  <rect x="26" y="1" width="1" height="1" fill="#dddfe0"/>
  <rect x="27" y="1" width="1" height="1" fill="#d7d9db"/>
  <rect x="28" y="1" width="4" height="1" fill="#dadcde"/>
  <rect x="32" y="1" width="1" height="1" fill="#d9dcdb"/>
  <rect x="33" y="1" width="1" height="1" fill="#dcdedd"/>
  <rect x="34" y="1" width="1" height="2" fill="#d8dbda"/>
  <rect x="35" y="1" width="1" height="1" fill="#c9cbcbe6"/>
  <rect x="0" y="2" width="1" height="1" fill="#cbcdcf"/>
  <rect x="1" y="2" width="1" height="1" fill="#d7d9db"/>
  <rect x="2" y="2" width="1" height="1" fill="#dfe1e3"/>
  <rect x="3" y="2" width="1" height="1" fill="#dddfe0"/>
  <rect x="4" y="2" width="4" height="1" fill="#dcdedf"/>
  <rect x="8" y="2" width="1" height="1" fill="#e0e2e4"/>
  <rect x="9" y="2" width="1" height="1" fill="#e1e3e5"/>
  <rect x="10" y="2" width="1" height="1" fill="#dadcde"/>
  <rect x="11" y="2" width="1" height="1" fill="#ced0d1"/>
  <rect x="12" y="2" width="1" height="1" fill="#caccce"/>
  <rect x="13" y="2" width="1" height="1" fill="#d7d9db"/>
  <rect x="14" y="2" width="1" height="1" fill="#dee0e2"/>
  <rect x="15" y="2" width="1" height="1" fill="#dddfe0"/>
  <rect x="16" y="2" width="1" height="1" fill="#e0e2e4"/>
  <rect x="17" y="2" width="1" height="2" fill="#d5d7d8"/>
  <rect x="18" y="2" width="1" height="1" fill="#e1e3e5"/>
  <rect x="19" y="2" width="1" height="1" fill="#cdcfd0"/>
  <rect x="20" y="2" width="1" height="1" fill="#8b8d8f"/>
  <rect x="21" y="2" width="1" height="1" fill="#959798"/>
  <rect x="22" y="2" width="1" height="2" fill="#dddfe0"/>
  <rect x="23" y="2" width="1" height="1" fill="#cbcdcf"/>
  <rect x="24" y="2" width="1" height="1" fill="#c8cacb"/>
  <rect x="25" y="2" width="1" height="1" fill="#dadcde"/>
  <rect x="26" y="2" width="1" height="1" fill="#818384"/>
  <rect x="27" y="2" width="1" height="1" fill="#828486"/>
  <rect x="28" y="2" width="4" height="1" fill="#858789"/>
  <rect x="32" y="2" width="1" height="1" fill="#878988"/>
  <rect x="33" y="2" width="1" height="1" fill="#8a8d8c"/>
  <rect x="35" y="2" width="1" height="1" fill="#cacdcc"/>
  <rect x="0" y="3" width="1" height="1" fill="#c9cbcd"/>
  <rect x="1" y="3" width="1" height="1" fill="#d6d8d9"/>
  <rect x="2" y="3" width="1" height="1" fill="#dddfe0"/>
  <rect x="3" y="3" width="1" height="1" fill="#dcdedf"/>
  <rect x="4" y="3" width="4" height="1" fill="#d7d9db"/>
  <rect x="8" y="3" width="1" height="1" fill="#dee0e2"/>
  <rect x="9" y="3" width="1" height="1" fill="#e0e2e4"/>
  <rect x="10" y="3" width="1" height="1" fill="#d8dadc"/>
  <rect x="11" y="3" width="1" height="5" fill="#cdcfd0"/>
  <rect x="12" y="3" width="1" height="1" fill="#c9cbcd"/>
  <rect x="13" y="3" width="1" height="1" fill="#d6d8d9"/>
  <rect x="14" y="3" width="1" height="1" fill="#dddfe0"/>
  <rect x="15" y="3" width="1" height="2" fill="#dcdedf"/>
  <rect x="16" y="3" width="1" height="1" fill="#d9dbdd"/>
  <rect x="18" y="3" width="1" height="1" fill="#d9dbdd"/>
  <rect x="19" y="3" width="1" height="1" fill="#989a9c"/>
  <rect x="20" y="3" width="1" height="1" fill="#848688"/>
  <rect x="21" y="3" width="1" height="1" fill="#c4c6c8"/>
  <rect x="23" y="3" width="1" height="1" fill="#d0d2d4"/>
  <rect x="24" y="3" width="1" height="1" fill="#c9cbcd"/>
  <rect x="25" y="3" width="1" height="1" fill="#d8dadc"/>
  <rect x="26" y="3" width="2" height="1" fill="#858789"/>
  <rect x="28" y="3" width="4" height="1" fill="#898b8d"/>
  <rect x="32" y="3" width="2" height="1" fill="#848786"/>
  <rect x="34" y="3" width="1" height="2" fill="#dddfde"/>
  <rect x="35" y="3" width="1" height="1" fill="#cbcecd"/>
  <rect x="0" y="4" width="1" height="4" fill="#ced0d1"/>
  <rect x="1" y="4" width="1" height="4" fill="#d8dadc"/>
  <rect x="2" y="4" width="1" height="4" fill="#dcdedf"/>
  <rect x="3" y="4" width="1" height="4" fill="#d7d9db"/>
  <rect x="4" y="4" width="4" height="6" fill="#dadcde"/>
  <rect x="8" y="4" width="1" height="4" fill="#d8dadc"/>
  <rect x="9" y="4" width="1" height="4" fill="#d7d9db"/>
  <rect x="10" y="4" width="1" height="4" fill="#dcdedf"/>
  <rect x="12" y="4" width="1" height="2" fill="#d0d2d4"/>
  <rect x="13" y="4" width="1" height="1" fill="#dcdedf"/>
  <rect x="14" y="4" width="1" height="1" fill="#dadcde"/>
  <rect x="16" y="4" width="1" height="1" fill="#dadcde"/>
  <rect x="17" y="4" width="1" height="1" fill="#d8dadc"/>
  <rect x="18" y="4" width="1" height="1" fill="#c8cacb"/>
  <rect x="19" y="4" width="1" height="1" fill="#898b8d"/>
  <rect x="20" y="4" width="1" height="1" fill="#999b9d"/>
  <rect x="21" y="4" width="1" height="1" fill="#dddfe0"/>
  <rect x="22" y="4" width="1" height="1" fill="#dadcde"/>
  <rect x="23" y="4" width="1" height="1" fill="#ced0d1"/>
  <rect x="24" y="4" width="1" height="1" fill="#cbcdcf"/>
  <rect x="25" y="4" width="1" height="1" fill="#dcdedf"/>
  <rect x="26" y="4" width="1" height="1" fill="#848688"/>
  <rect x="27" y="4" width="1" height="1" fill="#818384"/>
  <rect x="28" y="4" width="4" height="1" fill="#828486"/>
  <rect x="32" y="4" width="1" height="1" fill="#808281"/>
  <rect x="33" y="4" width="1" height="3" fill="#818382"/>
  <rect x="35" y="4" width="1" height="1" fill="#cdcfce"/>
  <rect x="13" y="5" width="1" height="1" fill="#d9dbdd"/>
  <rect x="14" y="5" width="1" height="1" fill="#8f9192"/>
  <rect x="15" y="5" width="1" height="1" fill="#828486"/>
  <rect x="16" y="5" width="1" height="1" fill="#c8cacb"/>
  <rect x="17" y="5" width="1" height="1" fill="#dadcde"/>
  <rect x="18" y="5" width="1" height="1" fill="#9ea0a2"/>
  <rect x="19" y="5" width="1" height="1" fill="#808283"/>
  <rect x="20" y="5" width="1" height="1" fill="#c3c5c7"/>
  <rect x="21" y="5" width="1" height="1" fill="#d6d8d9"/>
  <rect x="22" y="5" width="1" height="1" fill="#dddfe0"/>
  <rect x="23" y="5" width="2" height="1" fill="#cbcdcf"/>
  <rect x="25" y="5" width="1" height="1" fill="#d9dbdd"/>
  <rect x="26" y="5" width="1" height="1" fill="#828486"/>
  <rect x="27" y="5" width="1" height="1" fill="#7e8182"/>
  <rect x="28" y="5" width="4" height="1" fill="#808283"/>
  <rect x="32" y="5" width="1" height="1" fill="#7e8180"/>
  <rect x="34" y="5" width="1" height="2" fill="#dcdedd"/>
  <rect x="35" y="5" width="1" height="1" fill="#cbcecd"/>
  <rect x="12" y="6" width="1" height="1" fill="#c3c5c7"/>
  <rect x="13" y="6" width="1" height="1" fill="#d8dadc"/>
  <rect x="14" y="6" width="1" height="1" fill="#b3b5b6"/>
  <rect x="15" y="6" width="1" height="1" fill="#787a7b"/>
  <rect x="16" y="6" width="1" height="1" fill="#b1b3b4"/>
  <rect x="17" y="6" width="1" height="1" fill="#c1c3c4"/>
  <rect x="18" y="6" width="1" height="1" fill="#76787a"/>
  <rect x="19" y="6" width="1" height="1" fill="#9c9e9f"/>
  <rect x="20" y="6" width="1" height="1" fill="#dddfe0"/>
  <rect x="21" y="6" width="1" height="1" fill="#d7d9db"/>
  <rect x="22" y="6" width="1" height="1" fill="#d9dbdd"/>
  <rect x="23" y="6" width="1" height="1" fill="#cdcfd0"/>
  <rect x="24" y="6" width="1" height="1" fill="#cdcfce"/>
  <rect x="25" y="6" width="1" height="1" fill="#dadddc"/>
  <rect x="26" y="6" width="1" height="1" fill="#838685"/>
  <rect x="27" y="6" width="1" height="1" fill="#808281"/>
  <rect x="28" y="6" width="4" height="1" fill="#7d807f"/>
  <rect x="32" y="6" width="1" height="1" fill="#808281"/>
  <rect x="35" y="6" width="1" height="1" fill="#cdcfce"/>
  <rect x="12" y="7" width="1" height="1" fill="#ced0d1"/>
  <rect x="13" y="7" width="1" height="1" fill="#e3e5e6"/>
  <rect x="14" y="7" width="1" height="1" fill="#cfd1d2"/>
  <rect x="15" y="7" width="1" height="1" fill="#7c7e80"/>
  <rect x="16" y="7" width="1" height="1" fill="#929496"/>
  <rect x="17" y="7" width="1" height="1" fill="#8a8c8e"/>
  <rect x="18" y="7" width="1" height="1" fill="#7c7e80"/>
  <rect x="19" y="7" width="1" height="1" fill="#c0c2c3"/>
  <rect x="20" y="7" width="1" height="1" fill="#d1d3d5"/>
  <rect x="21" y="7" width="1" height="1" fill="#d6d8d9"/>
  <rect x="22" y="7" width="1" height="1" fill="#d7d9db"/>
  <rect x="23" y="7" width="1" height="1" fill="#c3c5c7"/>
  <rect x="24" y="7" width="1" height="1" fill="#c3c6c5"/>
  <rect x="25" y="7" width="1" height="1" fill="#d1d4d3"/>
  <rect x="26" y="7" width="1" height="1" fill="#7a7c7b"/>
  <rect x="27" y="7" width="1" height="1" fill="#767978"/>
  <rect x="28" y="7" width="4" height="1" fill="#797b7a"/>
  <rect x="32" y="7" width="1" height="1" fill="#7c7f7e"/>
  <rect x="33" y="7" width="1" height="1" fill="#7d807f"/>
  <rect x="34" y="7" width="1" height="1" fill="#d9dcdb"/>
  <rect x="35" y="7" width="1" height="1" fill="#c9cbcb"/>
  <rect x="0" y="8" width="1" height="1" fill="#c9cbcd"/>
  <rect x="1" y="8" width="1" height="1" fill="#d6d8d9"/>
  <rect x="2" y="8" width="1" height="1" fill="#dddfe0"/>
  <rect x="3" y="8" width="1" height="1" fill="#dcdedf"/>
  <rect x="8" y="8" width="1" height="2" fill="#dddfe0"/>
  <rect x="9" y="8" width="1" height="2" fill="#d9dbdd"/>
  <rect x="10" y="8" width="1" height="2" fill="#dadcde"/>
  <rect x="11" y="8" width="2" height="1" fill="#c8cacb"/>
  <rect x="13" y="8" width="1" height="1" fill="#d9dbdd"/>
  <rect x="14" y="8" width="1" height="1" fill="#dadcde"/>
  <rect x="15" y="8" width="1" height="1" fill="#a0a2a4"/>
  <rect x="16" y="8" width="1" height="1" fill="#7a7c7d"/>
  <rect x="17" y="8" width="1" height="1" fill="#757779"/>
  <rect x="18" y="8" width="1" height="1" fill="#8b8d8f"/>
  <rect x="19" y="8" width="2" height="1" fill="#d5d7d8"/>
  <rect x="21" y="8" width="1" height="1" fill="#d8dadc"/>
  <rect x="22" y="8" width="1" height="1" fill="#d1d4d3"/>
  <rect x="23" y="8" width="1" height="1" fill="#c3c6c5"/>
  <rect x="24" y="8" width="1" height="1" fill="#d3d6d5"/>
  <rect x="25" y="8" width="1" height="1" fill="#dcdedd"/>
  <rect x="26" y="8" width="1" height="1" fill="#7d807d"/>
  <rect x="27" y="8" width="1" height="1" fill="#7b7e7b"/>
  <rect x="28" y="8" width="4" height="1" fill="#7c7f7c"/>
  <rect x="32" y="8" width="1" height="1" fill="#7e8180"/>
  <rect x="33" y="8" width="1" height="2" fill="#797b7a"/>
  <rect x="34" y="8" width="1" height="3" fill="#d6d8d7"/>
  <rect x="35" y="8" width="1" height="2" fill="#cacdcc"/>
  <rect x="0" y="9" width="1" height="1" fill="#caccce"/>
  <rect x="1" y="9" width="1" height="1" fill="#d7d9db"/>
  <rect x="2" y="9" width="1" height="1" fill="#dfe1e3"/>
  <rect x="3" y="9" width="1" height="1" fill="#dddfe0"/>
  <rect x="11" y="9" width="1" height="1" fill="#c8cacb"/>
  <rect x="12" y="9" width="1" height="1" fill="#caccce"/>
  <rect x="13" y="9" width="1" height="1" fill="#d8dadc"/>
  <rect x="14" y="9" width="1" height="1" fill="#dee0e2"/>
  <rect x="15" y="9" width="1" height="1" fill="#bfc1c2"/>
  <rect x="16" y="9" width="1" height="1" fill="#76787a"/>
  <rect x="17" y="9" width="1" height="1" fill="#7c7e80"/>
  <rect x="18" y="9" width="1" height="1" fill="#c7c9ca"/>
  <rect x="19" y="9" width="1" height="1" fill="#dfe1e3"/>
  <rect x="20" y="9" width="1" height="1" fill="#dadcde"/>
  <rect x="21" y="9" width="1" height="1" fill="#dee0e2"/>
  <rect x="22" y="9" width="1" height="1" fill="#d7d9d9"/>
  <rect x="23" y="9" width="2" height="1" fill="#c9cbcb"/>
  <rect x="25" y="9" width="1" height="1" fill="#d8dbda"/>
  <rect x="26" y="9" width="1" height="1" fill="#7c7f7c"/>
  <rect x="27" y="9" width="1" height="1" fill="#7a7d79"/>
  <rect x="28" y="9" width="4" height="1" fill="#737672"/>
  <rect x="32" y="9" width="1" height="1" fill="#7a7c7b"/>
  <rect x="0" y="10" width="1" height="1" fill="#c3c5c7e6"/>
  <rect x="1" y="10" width="1" height="1" fill="#d0d2d4"/>
  <rect x="2" y="10" width="1" height="1" fill="#d7d9db"/>
  <rect x="3" y="10" width="1" height="1" fill="#d6d8d9"/>
  <rect x="4" y="10" width="4" height="1" fill="#d5d7d8"/>
  <rect x="8" y="10" width="1" height="1" fill="#d7d9db"/>
  <rect x="9" y="10" width="1" height="1" fill="#d3d6d7"/>
  <rect x="10" y="10" width="1" height="1" fill="#d5d7d8"/>
  <rect x="11" y="10" width="1" height="1" fill="#c2c4c6e7"/>
  <rect x="12" y="10" width="1" height="1" fill="#c4c6c8e6"/>
  <rect x="13" y="10" width="1" height="1" fill="#d0d2d4"/>
  <rect x="14" y="10" width="1" height="1" fill="#dadcde"/>
  <rect x="15" y="10" width="1" height="1" fill="#d5d7d8"/>
  <rect x="16" y="10" width="1" height="1" fill="#d3d6d7"/>
  <rect x="17" y="10" width="1" height="1" fill="#dddfe0"/>
  <rect x="18" y="10" width="1" height="1" fill="#d5d7d8"/>
  <rect x="19" y="10" width="1" height="1" fill="#dcdedf"/>
  <rect x="20" y="10" width="1" height="1" fill="#d6d8d9"/>
  <rect x="21" y="10" width="1" height="1" fill="#d9dbdd"/>
  <rect x="22" y="10" width="1" height="1" fill="#d2d5d4"/>
  <rect x="23" y="10" width="1" height="1" fill="#c4c7c6e7"/>
  <rect x="24" y="10" width="1" height="1" fill="#b9bcb8e6"/>
  <rect x="25" y="10" width="1" height="1" fill="#cbcecb"/>
  <rect x="26" y="10" width="1" height="1" fill="#d9dcd9"/>
  <rect x="27" y="10" width="1" height="1" fill="#d2d6d0"/>
  <rect x="28" y="10" width="3" height="1" fill="#d7dad5"/>
  <rect x="31" y="10" width="1" height="1" fill="#d7dad7"/>
  <rect x="32" y="10" width="2" height="1" fill="#d7d9d9"/>
  <rect x="35" y="10" width="1" height="1" fill="#c3c6c5e7"/>
  <rect x="0" y="11" width="1" height="1" fill="#b6b8ba4a"/>
  <rect x="1" y="11" width="1" height="1" fill="#c3c5c7e7"/>
  <rect x="2" y="11" width="1" height="1" fill="#cbcdcf"/>
  <rect x="3" y="11" width="1" height="1" fill="#c9cbcd"/>
  <rect x="4" y="11" width="4" height="1" fill="#cdcfd0"/>
  <rect x="8" y="11" width="1" height="1" fill="#cfd1d2"/>
  <rect x="9" y="11" width="1" height="1" fill="#cbcdcf"/>
  <rect x="10" y="11" width="1" height="1" fill="#cdcfd0e4"/>
  <rect x="11" y="11" width="1" height="1" fill="#babcbd4a"/>
  <rect x="12" y="11" width="1" height="1" fill="#b9bbbc4a"/>
  <rect x="13" y="11" width="1" height="1" fill="#c4c6c8e7"/>
  <rect x="14" y="11" width="1" height="1" fill="#cbcdcf"/>
  <rect x="15" y="11" width="1" height="1" fill="#caccce"/>
  <rect x="16" y="11" width="1" height="1" fill="#c7c9ca"/>
  <rect x="17" y="11" width="1" height="1" fill="#ced0d1"/>
  <rect x="18" y="11" width="1" height="1" fill="#caccce"/>
  <rect x="19" y="11" width="1" height="1" fill="#cdcfd0"/>
  <rect x="20" y="11" width="1" height="1" fill="#c9cbcd"/>
  <rect x="21" y="11" width="1" height="1" fill="#cdcfd0"/>
  <rect x="22" y="11" width="1" height="1" fill="#c6c8c7e4"/>
  <rect x="23" y="11" width="1" height="1" fill="#b8bab94a"/>
  <rect x="24" y="11" width="1" height="1" fill="#b1b3b04a"/>
  <rect x="25" y="11" width="1" height="1" fill="#cbcecbe7"/>
  <rect x="26" y="11" width="1" height="1" fill="#c3c6c1"/>
  <rect x="27" y="11" width="1" height="1" fill="#ced1cb"/>
  <rect x="28" y="11" width="3" height="1" fill="#cacdc8"/>
  <rect x="31" y="11" width="1" height="1" fill="#cacdca"/>
  <rect x="32" y="11" width="1" height="1" fill="#cbcecd"/>
  <rect x="33" y="11" width="1" height="1" fill="#c9cbcb"/>
  <rect x="34" y="11" width="1" height="1" fill="#c1c3c2e4"/>
  <rect x="35" y="11" width="1" height="1" fill="#b3b5b44a"/>
</svg>