<svg xmlns="http://www.w3.org/2000/svg" width="280" height="20" viewBox="0 0 280 20" shape-rendering="crispEdges">
  <rect x="36" y="10" width="1" height="1" fill="#c4c3c6"/>
  <rect x="106" y="10" width="1" height="1" fill="#c0c5c6"/>
  <rect x="176" y="10" width="1" height="1" fill="#c2c4c6"/>
  <rect x="246" y="10" width="1" height="1" fill="#c2c4c6"/>
  <rect x="35" y="11" width="1" height="1" fill="#c2c4c6"/>
  <rect x="36" y="11" width="2" height="4" fill="#c4c3c6"/>
  <rect x="105" y="11" width="1" height="1" fill="#c2c4c6"/>
  <rect x="106" y="11" width="2" height="1" fill="#c0c5c6"/>
  <rect x="175" y="11" width="3" height="1" fill="#c2c4c6"/>
  <rect x="245" y="11" width="1" height="1" fill="#c4c3c6"/>
  <rect x="246" y="11" width="2" height="1" fill="#c2c4c6"/>
  <rect x="34" y="12" width="2" height="1" fill="#c2c4c6"/>
  <rect x="38" y="12" width="1" height="1" fill="#c2c4c6"/>
  <rect x="104" y="12" width="5" height="1" fill="#c2c4c6"/>
  <rect x="174" y="12" width="5" height="1" fill="#c2c4c6"/>
  <rect x="244" y="12" width="2" height="3" fill="#c4c3c6"/>
  <rect x="246" y="12" width="3" height="1" fill="#c2c4c6"/>
  <rect x="3" y="13" width="1" height="2" fill="#c4c4c4"/>
  <rect x="4" y="13" width="18" height="2" fill="#c4c3c6"/>
  <rect x="22" y="13" width="14" height="2" fill="#c2c4c6"/>
  <rect x="38" y="13" width="14" height="2" fill="#c2c4c6"/>
  <rect x="52" y="13" width="2" height="2" fill="#c4c3c6"/>
  <rect x="54" y="13" width="14" height="2" fill="#c2c4c6"/>
  <rect x="68" y="13" width="2" height="2" fill="#c4c3c6"/>
  <rect x="73" y="13" width="11" height="2" fill="#c2c4c6"/>
  <rect x="84" y="13" width="2" height="2" fill="#c4c3c6"/>
  <rect x="86" y="13" width="14" height="2" fill="#c2c4c6"/>
  <rect x="100" y="13" width="2" height="2" fill="#c4c3c6"/>
  <rect x="102" y="13" width="14" height="2" fill="#c2c4c6"/>
  <rect x="116" y="13" width="2" height="2" fill="#c4c3c6"/>
  <rect x="118" y="13" width="14" height="2" fill="#c2c4c6"/>
  <rect x="132" y="13" width="2" height="2" fill="#c4c3c6"/>
  <rect x="134" y="13" width="6" height="2" fill="#c2c4c6"/>
  <rect x="143" y="13" width="5" height="2" fill="#c2c4c6"/>
  <rect x="148" y="13" width="2" height="2" fill="#c4c3c6"/>
  <rect x="150" y="13" width="14" height="2" fill="#c2c4c6"/>
  <rect x="164" y="13" width="2" height="2" fill="#c4c3c6"/>
  <rect x="166" y="13" width="14" height="2" fill="#c2c4c6"/>
  <rect x="180" y="13" width="2" height="2" fill="#c4c3c6"/>
  <rect x="182" y="13" width="14" height="2" fill="#c2c4c6"/>
  <rect x="196" y="13" width="2" height="2" fill="#c4c3c6"/>
  <rect x="198" y="13" width="12" height="2" fill="#c2c4c6"/>
  <rect x="213" y="13" width="1" height="2" fill="#c4c3c6"/>
  <rect x="214" y="13" width="14" height="2" fill="#c2c4c6"/>
  <rect x="228" y="13" width="2" height="2" fill="#c4c3c6"/>
  <rect x="230" y="13" width="14" height="2" fill="#c2c4c6"/>
  <rect x="246" y="13" width="14" height="2" fill="#c2c4c6"/>
  <rect x="260" y="13" width="2" height="2" fill="#c4c3c6"/>
  <rect x="262" y="13" width="14" height="2" fill="#c2c4c6"/>
  <rect x="276" y="13" width="2" height="2" fill="#c4c3c6"/>
  <rect x="278" y="13" width="2" height="2" fill="#c2c4c6"/>
</svg>