<svg xmlns="http://www.w3.org/2000/svg" width="32" height="16" viewBox="0 0 32 16" shape-rendering="crispEdges">
  <rect x="0" y="0" width="1" height="1" fill="#3db3e048"/>
  <rect x="1" y="0" width="1" height="1" fill="#3db3e0e6"/>
  <rect x="2" y="0" width="8" height="1" fill="#3db3e0"/>
  <rect x="10" y="0" width="1" height="1" fill="#3db3e0e6"/>
  <rect x="11" y="0" width="1" height="1" fill="#3db3e048"/>
  <rect x="16" y="0" width="1" height="1" fill="#3db3e048"/>
  <rect x="17" y="0" width="1" height="1" fill="#3db3e0e6"/>
  <rect x="18" y="0" width="8" height="1" fill="#3db3e0"/>
  <rect x="26" y="0" width="1" height="1" fill="#3db3e0e6"/>
  <rect x="27" y="0" width="1" height="1" fill="#3db3e048"/>
  <rect x="0" y="1" width="1" height="1" fill="#3db3e0e6"/>
  <rect x="1" y="1" width="10" height="1" fill="#3db3e0"/>
  <rect x="11" y="1" width="1" height="1" fill="#3db3e0e6"/>
  <rect x="16" y="1" width="1" height="1" fill="#3db3e0e6"/>
  <rect x="17" y="1" width="10" height="1" fill="#3db3e0"/>
  <rect x="27" y="1" width="1" height="1" fill="#3db3e0e6"/>
  <rect x="0" y="2" width="2" height="12" fill="#3db3e0"/>
  <rect x="2" y="2" width="1" height="1" fill="#3db3e03d"/>
  <rect x="9" y="2" width="1" height="1" fill="#3db3e03d"/>
  <rect x="10" y="2" width="4" height="1" fill="#3db3e0"/>
  <rect x="14" y="2" width="1" height="1" fill="#3db3e0e5"/>
  <rect x="15" y="2" width="1" height="1" fill="#3db3e047"/>
  <rect x="16" y="2" width="2" height="2" fill="#3db3e0"/>
  <rect x="18" y="2" width="1" height="1" fill="#3db3e03d"/>
  <rect x="25" y="2" width="1" height="1" fill="#3db3e03d"/>
  <rect x="26" y="2" width="4" height="1" fill="#3db3e0"/>
  <rect x="30" y="2" width="1" height="1" fill="#3db3e0e5"/>
  <rect x="31" y="2" width="1" height="1" fill="#3db3e047"/>
  <rect x="10" y="3" width="5" height="1" fill="#3db3e0"/>
  <rect x="15" y="3" width="1" height="1" fill="#3db3e0e2"/>
  <rect x="26" y="3" width="5" height="1" fill="#3db3e0"/>
  <rect x="31" y="3" width="1" height="1" fill="#3db3e0e2"/>
  <rect x="3" y="4" width="6" height="2" fill="#3db3e0"/>
  <rect x="10" y="4" width="2" height="4" fill="#3db3e0"/>
  <rect x="13" y="4" width="1" height="1" fill="#3db3e03e"/>
  <rect x="14" y="4" width="4" height="4" fill="#3db3e0"/>
  <rect x="19" y="4" width="6" height="2" fill="#3db3e0"/>
  <rect x="26" y="4" width="2" height="4" fill="#3db3e0"/>
  <rect x="29" y="4" width="1" height="1" fill="#3db3e03e"/>
  <rect x="30" y="4" width="2" height="4" fill="#3db3e0"/>
  <rect x="3" y="7" width="6" height="2" fill="#3db3e0"/>
  <rect x="19" y="7" width="6" height="2" fill="#3db3e0"/>
  <rect x="10" y="8" width="2" height="1" fill="#3db3e077"/>
  <rect x="14" y="8" width="2" height="1" fill="#3db3e077"/>
  <rect x="16" y="8" width="2" height="6" fill="#3db3e0"/>
  <rect x="26" y="8" width="2" height="1" fill="#3db3e077"/>
  <rect x="30" y="8" width="2" height="1" fill="#3db3e077"/>
  <rect x="3" y="10" width="6" height="2" fill="#3db3e0"/>
  <rect x="10" y="10" width="1" height="1" fill="#3db3e04c"/>
  <rect x="11" y="10" width="1" height="1" fill="#3db3e0c5"/>
  <rect x="12" y="10" width="1" height="1" fill="#3db3e00f"/>
  <rect x="14" y="10" width="1" height="1" fill="#3db3e09b"/>
  <rect x="15" y="10" width="1" height="1" fill="#3db3e083"/>
  <rect x="19" y="10" width="6" height="2" fill="#3db3e0"/>
  <rect x="28" y="10" width="1" height="1" fill="#3db3e08e"/>
  <rect x="29" y="10" width="1" height="1" fill="#3db3e0bd"/>
  <rect x="11" y="11" width="1" height="1" fill="#3db3e088"/>
  <rect x="12" y="11" width="1" height="1" fill="#3db3e0c5"/>
  <rect x="13" y="11" width="1" height="1" fill="#3db3e0a0"/>
  <rect x="14" y="11" width="1" height="1" fill="#3db3e0b8"/>
  <rect x="27" y="11" width="1" height="1" fill="#3db3e08a"/>
  <rect x="28" y="11" width="1" height="1" fill="#3db3e0c5"/>
  <rect x="29" y="11" width="1" height="1" fill="#3db3e09e"/>
  <rect x="30" y="11" width="1" height="1" fill="#3db3e0b9"/>
  <rect x="12" y="12" width="1" height="1" fill="#3db3e08c"/>
  <rect x="13" y="12" width="1" height="1" fill="#3db3e0bb"/>
  <rect x="26" y="12" width="1" height="1" fill="#3db3e04f"/>
  <rect x="27" y="12" width="1" height="1" fill="#3db3e0c5"/>
  <rect x="28" y="12" width="1" height="1" fill="#3db3e00e"/>
  <rect x="30" y="12" width="1" height="1" fill="#3db3e09b"/>
  <rect x="31" y="12" width="1" height="1" fill="#3db3e085"/>
  <rect x="2" y="13" width="1" height="1" fill="#3db3e035"/>
  <rect x="10" y="13" width="1" height="1" fill="#3db3e04f"/>
  <rect x="11" y="13" width="1" height="1" fill="#3db3e0c5"/>
  <rect x="12" y="13" width="1" height="1" fill="#3db3e00e"/>
  <rect x="14" y="13" width="1" height="1" fill="#3db3e09b"/>
  <rect x="15" y="13" width="1" height="1" fill="#3db3e085"/>
  <rect x="18" y="13" width="1" height="1" fill="#3db3e035"/>
  <rect x="28" y="13" width="1" height="1" fill="#3db3e08c"/>
  <rect x="29" y="13" width="1" height="1" fill="#3db3e0bb"/>
  <rect x="0" y="14" width="1" height="1" fill="#3db3e0e6"/>
  <rect x="1" y="14" width="7" height="1" fill="#3db3e0"/>
  <rect x="8" y="14" width="1" height="2" fill="#3db3e096"/>
  <rect x="11" y="14" width="1" height="1" fill="#3db3e08a"/>
  <rect x="12" y="14" width="1" height="1" fill="#3db3e0c5"/>
  <rect x="13" y="14" width="1" height="1" fill="#3db3e09e"/>
  <rect x="14" y="14" width="1" height="1" fill="#3db3e0b9"/>
  <rect x="16" y="14" width="1" height="1" fill="#3db3e0e6"/>
  <rect x="17" y="14" width="7" height="1" fill="#3db3e0"/>
  <rect x="24" y="14" width="1" height="2" fill="#3db3e096"/>
  <rect x="27" y="14" width="1" height="1" fill="#3db3e088"/>
  <rect x="28" y="14" width="1" height="1" fill="#3db3e0c5"/>
  <rect x="29" y="14" width="1" height="1" fill="#3db3e0a0"/>
  <rect x="30" y="14" width="1" height="1" fill="#3db3e0b8"/>
  <rect x="0" y="15" width="1" height="1" fill="#3db3e04a"/>
  <rect x="1" y="15" width="1" height="1" fill="#3db3e0e7"/>
  <rect x="2" y="15" width="6" height="1" fill="#3db3e0"/>
  <rect x="12" y="15" width="1" height="1" fill="#3db3e08e"/>
  <rect x="13" y="15" width="1" height="1" fill="#3db3e0bd"/>
  <rect x="16" y="15" width="1" height="1" fill="#3db3e04a"/>
  <rect x="17" y="15" width="1" height="1" fill="#3db3e0e7"/>
  <rect x="18" y="15" width="6" height="1" fill="#3db3e0"/>
  <rect x="26" y="15" width="1" height="1" fill="#3db3e04c"/>
  <rect x="27" y="15" width="1" height="1" fill="#3db3e0c5"/>
  <rect x="28" y="15" width="1" height="1" fill="#3db3e00f"/>
  <rect x="30" y="15" width="1" height="1" fill="#3db3e09b"/>
  <rect x="31" y="15" width="1" height="1" fill="#3db3e083"/>
</svg>