<svg xmlns="http://www.w3.org/2000/svg" width="280" height="20" viewBox="0 0 280 20" shape-rendering="crispEdges">
  <rect x="3" y="13" width="9" height="2" fill="#c4c4c4"/>
  <rect x="12" y="13" width="14" height="2" fill="#c4c3c6"/>
  <rect x="26" y="13" width="10" height="2" fill="#c4c4c4"/>
  <rect x="36" y="13" width="28" height="2" fill="#c4c3c6"/>
  <rect x="64" y="13" width="6" height="2" fill="#c4c4c4"/>
  <rect x="73" y="13" width="3" height="2" fill="#c4c4c4"/>
  <rect x="76" y="13" width="14" height="2" fill="#c4c3c6"/>
  <rect x="90" y="13" width="10" height="2" fill="#c4c4c4"/>
  <rect x="100" y="13" width="28" height="2" fill="#c4c3c6"/>
  <rect x="128" y="13" width="12" height="2" fill="#c4c4c4"/>
  <rect x="143" y="13" width="11" height="2" fill="#c4c3c6"/>
  <rect x="154" y="13" width="10" height="2" fill="#c4c4c4"/>
  <rect x="164" y="13" width="28" height="2" fill="#c4c3c6"/>
  <rect x="192" y="13" width="4" height="2" fill="#c4c4c4"/>
  <rect x="196" y="13" width="14" height="2" fill="#c4c3c6"/>
  <rect x="213" y="13" width="27" height="2" fill="#c4c3c6"/>
  <rect x="240" y="13" width="4" height="2" fill="#c4c4c4"/>
  <rect x="244" y="13" width="28" height="2" fill="#c4c3c6"/>
  <rect x="272" y="13" width="4" height="2" fill="#c4c4c4"/>
  <rect x="276" y="13" width="4" height="2" fill="#c4c3c6"/>
</svg>