<svg xmlns="http://www.w3.org/2000/svg" width="38" height="27" viewBox="0 0 38 27" shape-rendering="crispEdges">
  <rect x="0" y="0" width="1" height="1" fill="#ebc04f54"/>
  <rect x="1" y="0" width="1" height="1" fill="#edc860bd"/>
  <rect x="2" y="0" width="1" height="1" fill="#ecce7d"/>
  <rect x="3" y="0" width="1" height="1" fill="#e1cb83"/>
  <rect x="4" y="0" width="1" height="1" fill="#dccb7e"/>
  <rect x="5" y="0" width="1" height="1" fill="#ddcb82"/>
  <rect x="6" y="0" width="1" height="1" fill="#e2c888"/>
  <rect x="7" y="0" width="1" height="1" fill="#e3c786"/>
  <rect x="8" y="0" width="1" height="1" fill="#e3c980"/>
  <rect x="9" y="0" width="6" height="1" fill="#e3c97c"/>
  <rect x="15" y="0" width="1" height="1" fill="#e3c97e"/>
  <rect x="16" y="0" width="8" height="1" fill="#e5c880"/>
  <rect x="24" y="0" width="7" height="1" fill="#e5c87e"/>
  <rect x="31" y="0" width="1" height="1" fill="#e3c980"/>
  <rect x="32" y="0" width="1" height="1" fill="#dfca84"/>
  <rect x="33" y="0" width="1" height="1" fill="#ddca88"/>
  <rect x="34" y="0" width="1" height="1" fill="#dbcb8a"/>
  <rect x="35" y="0" width="1" height="1" fill="#e2c781"/>
  <rect x="36" y="0" width="1" height="1" fill="#f1c36ebd"/>
  <rect x="37" y="0" width="1" height="1" fill="#fbc36754"/>
  <rect x="0" y="1" width="1" height="1" fill="#f6d068cd"/>
  <rect x="1" y="1" width="1" height="1" fill="#ffed93"/>
  <rect x="2" y="1" width="1" height="1" fill="#fffab3"/>
  <rect x="3" y="1" width="1" height="1" fill="#fffdbf"/>
  <rect x="4" y="1" width="1" height="1" fill="#ffffbd"/>
  <rect x="5" y="1" width="1" height="1" fill="#fffebf"/>
  <rect x="6" y="1" width="1" height="1" fill="#fffcc5"/>
  <rect x="7" y="1" width="1" height="1" fill="#fffbc5"/>
  <rect x="8" y="1" width="1" height="1" fill="#fffcc1"/>
  <rect x="9" y="1" width="7" height="1" fill="#fffdbf"/>
  <rect x="16" y="1" width="1" height="1" fill="#fffcbf"/>
  <rect x="17" y="1" width="6" height="1" fill="#fffbc1"/>
  <rect x="23" y="1" width="8" height="1" fill="#fffcbf"/>
  <rect x="31" y="1" width="1" height="1" fill="#fffdbf"/>
  <rect x="32" y="1" width="1" height="1" fill="#fffec3"/>
  <rect x="33" y="1" width="1" height="1" fill="#fffec5"/>
  <rect x="34" y="1" width="1" height="1" fill="#fffec7"/>
  <rect x="35" y="1" width="1" height="1" fill="#fffcbd"/>
  <rect x="36" y="1" width="1" height="1" fill="#ffe79b"/>
  <rect x="37" y="1" width="1" height="1" fill="#fecc77cd"/>
  <rect x="0" y="2" width="1" height="1" fill="#e4c675"/>
  <rect x="1" y="2" width="1" height="1" fill="#fff9b1"/>
  <rect x="2" y="2" width="1" height="1" fill="#fffdcc"/>
  <rect x="3" y="2" width="1" height="1" fill="#ffffdc"/>
  <rect x="4" y="2" width="1" height="1" fill="#ffffda"/>
  <rect x="5" y="2" width="1" height="1" fill="#ffffdc"/>
  <rect x="6" y="2" width="1" height="1" fill="#ffffe2"/>
  <rect x="7" y="2" width="8" height="1" fill="#ffffe4"/>
  <rect x="15" y="2" width="1" height="1" fill="#ffffe2"/>
  <rect x="16" y="2" width="1" height="1" fill="#fffedc"/>
  <rect x="17" y="2" width="6" height="1" fill="#fffddc"/>
  <rect x="23" y="2" width="9" height="1" fill="#fffeda"/>
  <rect x="32" y="2" width="1" height="1" fill="#ffffda"/>
  <rect x="33" y="2" width="2" height="1" fill="#ffffdc"/>
  <rect x="35" y="2" width="1" height="1" fill="#fffed2"/>
  <rect x="36" y="2" width="1" height="1" fill="#fff7bb"/>
  <rect x="37" y="2" width="1" height="1" fill="#edc480"/>
  <rect x="0" y="3" width="1" height="1" fill="#e0ca82"/>
  <rect x="1" y="3" width="1" height="1" fill="#ffffc7"/>
  <rect x="2" y="3" width="1" height="1" fill="#fffbd3"/>
  <rect x="3" y="3" width="1" height="1" fill="#fffdde"/>
  <rect x="4" y="3" width="1" height="1" fill="#fcffdc"/>
  <rect x="5" y="3" width="1" height="1" fill="#fcffde"/>
  <rect x="6" y="3" width="1" height="1" fill="#fffbe4"/>
  <rect x="7" y="3" width="1" height="1" fill="#fffbe8"/>
  <rect x="8" y="3" width="1" height="1" fill="#fefce8"/>
  <rect x="9" y="3" width="6" height="1" fill="#fcfdea"/>
  <rect x="15" y="3" width="1" height="1" fill="#fcfde8"/>
  <rect x="16" y="3" width="1" height="1" fill="#ffffe8"/>
  <rect x="17" y="3" width="6" height="1" fill="#fffee8"/>
  <rect x="23" y="3" width="9" height="1" fill="#ffffe6"/>
  <rect x="32" y="3" width="2" height="1" fill="#feffe6"/>
  <rect x="34" y="3" width="1" height="1" fill="#fdffe4"/>
  <rect x="35" y="3" width="1" height="1" fill="#ffffda"/>
  <rect x="36" y="3" width="1" height="1" fill="#ffffca"/>
  <rect x="37" y="3" width="1" height="1" fill="#e3c380"/>
  <rect x="0" y="4" width="1" height="1" fill="#dfce82"/>
  <rect x="1" y="4" width="1" height="1" fill="#ffffbf"/>
  <rect x="2" y="4" width="1" height="1" fill="#ffffd7"/>
  <rect x="3" y="4" width="1" height="1" fill="#fafdda"/>
  <rect x="4" y="4" width="1" height="1" fill="#f8ffdb"/>
  <rect x="5" y="4" width="1" height="1" fill="#faffdd"/>
  <rect x="6" y="4" width="1" height="1" fill="#fdffe3"/>
  <rect x="7" y="4" width="2" height="1" fill="#fffde7"/>
  <rect x="9" y="4" width="6" height="1" fill="#fffce9"/>
  <rect x="15" y="4" width="1" height="1" fill="#fffde7"/>
  <rect x="16" y="4" width="7" height="1" fill="#fffee5"/>
  <rect x="23" y="4" width="8" height="1" fill="#ffffe3"/>
  <rect x="31" y="4" width="1" height="1" fill="#fdffe3"/>
  <rect x="32" y="4" width="1" height="1" fill="#fcffe5"/>
  <rect x="33" y="4" width="1" height="1" fill="#faffe3"/>
  <rect x="34" y="4" width="1" height="1" fill="#f8ffe1"/>
  <rect x="35" y="4" width="1" height="1" fill="#ffffd5"/>
  <rect x="36" y="4" width="1" height="1" fill="#fffbb7"/>
  <rect x="37" y="4" width="1" height="1" fill="#e2c87a"/>
  <rect x="0" y="5" width="1" height="1" fill="#dfce84"/>
  <rect x="1" y="5" width="1" height="1" fill="#ffffc1"/>
  <rect x="2" y="5" width="1" height="1" fill="#ffffd9"/>
  <rect x="3" y="5" width="1" height="1" fill="#fafddc"/>
  <rect x="4" y="5" width="1" height="1" fill="#faffdd"/>
  <rect x="5" y="5" width="1" height="1" fill="#faffdf"/>
  <rect x="6" y="5" width="1" height="1" fill="#fdffe5"/>
  <rect x="7" y="5" width="1" height="1" fill="#fffde7"/>
  <rect x="8" y="5" width="1" height="3" fill="#fffce7"/>
  <rect x="9" y="5" width="6" height="1" fill="#fffbe7"/>
  <rect x="15" y="5" width="1" height="1" fill="#fffde5"/>
  <rect x="16" y="5" width="1" height="3" fill="#fffee5"/>
  <rect x="17" y="5" width="6" height="1" fill="#fdffe5"/>
  <rect x="23" y="5" width="9" height="1" fill="#fdffe3"/>
  <rect x="32" y="5" width="1" height="1" fill="#fcffe7"/>
  <rect x="33" y="5" width="1" height="1" fill="#faffe7"/>
  <rect x="34" y="5" width="1" height="1" fill="#faffe3"/>
  <rect x="35" y="5" width="1" height="1" fill="#ffffd3"/>
  <rect x="36" y="5" width="1" height="1" fill="#fffab5"/>
  <rect x="37" y="5" width="1" height="1" fill="#e5cb79"/>
  <rect x="0" y="6" width="1" height="1" fill="#e4ca8a"/>
  <rect x="1" y="6" width="1" height="1" fill="#fffec7"/>
  <rect x="2" y="6" width="1" height="1" fill="#ffffdf"/>
  <rect x="3" y="6" width="1" height="1" fill="#fef9e2"/>
  <rect x="4" y="6" width="1" height="1" fill="#fdffe3"/>
  <rect x="5" y="6" width="1" height="1" fill="#fdffe5"/>
  <rect x="6" y="6" width="2" height="2" fill="#fffbeb"/>
  <rect x="9" y="6" width="7" height="1" fill="#fffde5"/>
  <rect x="17" y="6" width="6" height="1" fill="#fffee7"/>
  <rect x="23" y="6" width="8" height="1" fill="#fffee5"/>
  <rect x="31" y="6" width="1" height="5" fill="#fffee7"/>
  <rect x="32" y="6" width="2" height="1" fill="#fffdeb"/>
  <rect x="34" y="6" width="1" height="1" fill="#fdffe7"/>
  <rect x="35" y="6" width="1" height="1" fill="#fffed7"/>
  <rect x="36" y="6" width="1" height="1" fill="#fff8b7"/>
  <rect x="37" y="6" width="1" height="1" fill="#e9c87b"/>
  <rect x="0" y="7" width="1" height="1" fill="#e6ca88"/>
  <rect x="1" y="7" width="1" height="1" fill="#fffdc7"/>
  <rect x="2" y="7" width="1" height="8" fill="#ffffe1"/>
  <rect x="3" y="7" width="1" height="1" fill="#fef8e6"/>
  <rect x="4" y="7" width="2" height="1" fill="#fffde7"/>
  <rect x="9" y="7" width="6" height="1" fill="#fffee3"/>
  <rect x="15" y="7" width="1" height="1" fill="#fffde5"/>
  <rect x="17" y="7" width="7" height="1" fill="#fffee7"/>
  <rect x="24" y="7" width="7" height="1" fill="#fffee5"/>
  <rect x="32" y="7" width="2" height="1" fill="#fffded"/>
  <rect x="34" y="7" width="1" height="1" fill="#fffde9"/>
  <rect x="35" y="7" width="1" height="1" fill="#fffdd9"/>
  <rect x="36" y="7" width="1" height="1" fill="#fff7b9"/>
  <rect x="37" y="7" width="1" height="1" fill="#ebc77d"/>
  <rect x="0" y="8" width="1" height="1" fill="#e6cb82"/>
  <rect x="1" y="8" width="1" height="1" fill="#ffffc3"/>
  <rect x="3" y="8" width="1" height="1" fill="#fbfae6"/>
  <rect x="4" y="8" width="1" height="1" fill="#fffde7"/>
  <rect x="5" y="8" width="3" height="1" fill="#fffce7"/>
  <rect x="8" y="8" width="8" height="7" fill="#fffde5"/>
  <rect x="16" y="8" width="15" height="3" fill="#fffee5"/>
  <rect x="32" y="8" width="1" height="1" fill="#fffde9"/>
  <rect x="33" y="8" width="1" height="1" fill="#fdfee9"/>
  <rect x="34" y="8" width="1" height="1" fill="#fdffe7"/>
  <rect x="35" y="8" width="1" height="5" fill="#fffed9"/>
  <rect x="36" y="8" width="1" height="1" fill="#fff7be"/>
  <rect x="37" y="8" width="1" height="1" fill="#e9c783"/>
  <rect x="0" y="9" width="1" height="6" fill="#e6cc7e"/>
  <rect x="1" y="9" width="1" height="7" fill="#ffffc1"/>
  <rect x="3" y="9" width="1" height="6" fill="#fafae8"/>
  <rect x="4" y="9" width="1" height="6" fill="#fffce9"/>
  <rect x="5" y="9" width="1" height="6" fill="#fffbe7"/>
  <rect x="6" y="9" width="1" height="6" fill="#fffde5"/>
  <rect x="7" y="9" width="1" height="6" fill="#fffee3"/>
  <rect x="32" y="9" width="2" height="2" fill="#fdfee9"/>
  <rect x="34" y="9" width="1" height="2" fill="#fcffe7"/>
  <rect x="36" y="9" width="1" height="3" fill="#fff8c0"/>
  <rect x="37" y="9" width="1" height="3" fill="#e8c785"/>
  <rect x="16" y="11" width="16" height="5" fill="#fffee5"/>
  <rect x="32" y="11" width="2" height="4" fill="#fdffe7"/>
  <rect x="34" y="11" width="1" height="4" fill="#fcffe5"/>
  <rect x="36" y="12" width="1" height="4" fill="#fff8be"/>
  <rect x="37" y="12" width="1" height="4" fill="#e8c883"/>
  <rect x="35" y="13" width="1" height="4" fill="#fffed7"/>
  <rect x="0" y="15" width="1" height="1" fill="#e6cb80"/>
  <rect x="2" y="15" width="1" height="1" fill="#ffffdf"/>
  <rect x="3" y="15" width="1" height="1" fill="#fafbe6"/>
  <rect x="4" y="15" width="1" height="1" fill="#fffde7"/>
  <rect x="5" y="15" width="11" height="1" fill="#fffde5"/>
  <rect x="32" y="15" width="1" height="1" fill="#fdffe7"/>
  <rect x="33" y="15" width="1" height="1" fill="#fdffe5"/>
  <rect x="34" y="15" width="1" height="4" fill="#fcffe3"/>
  <rect x="0" y="16" width="1" height="7" fill="#e6c981"/>
  <rect x="1" y="16" width="1" height="1" fill="#fffbbe"/>
  <rect x="2" y="16" width="1" height="1" fill="#ffffde"/>
  <rect x="3" y="16" width="1" height="1" fill="#ffffe8"/>
  <rect x="4" y="16" width="1" height="4" fill="#fefde4"/>
  <rect x="5" y="16" width="27" height="1" fill="#fffee5"/>
  <rect x="32" y="16" width="2" height="3" fill="#fdffe5"/>
  <rect x="36" y="16" width="1" height="4" fill="#fff8bb"/>
  <rect x="37" y="16" width="1" height="4" fill="#e8c881"/>
  <rect x="1" y="17" width="1" height="6" fill="#fffac0"/>
  <rect x="2" y="17" width="1" height="6" fill="#fffede"/>
  <rect x="3" y="17" width="1" height="6" fill="#fffee8"/>
  <rect x="5" y="17" width="1" height="6" fill="#fdffe5"/>
  <rect x="6" y="17" width="2" height="6" fill="#fffee7"/>
  <rect x="8" y="17" width="24" height="6" fill="#fffee5"/>
  <rect x="35" y="17" width="1" height="4" fill="#ffffd5"/>
  <rect x="32" y="19" width="1" height="1" fill="#fdffe5"/>
  <rect x="33" y="19" width="1" height="1" fill="#fdffe3"/>
  <rect x="34" y="19" width="1" height="4" fill="#fcffe1"/>
  <rect x="4" y="20" width="1" height="3" fill="#fffee5"/>
  <rect x="32" y="20" width="2" height="3" fill="#fdffe3"/>
  <rect x="36" y="20" width="1" height="3" fill="#fff9b9"/>
  <rect x="37" y="20" width="1" height="4" fill="#e8c87f"/>
  <rect x="35" y="21" width="1" height="2" fill="#ffffd3"/>
  <rect x="0" y="23" width="1" height="1" fill="#e6c97f"/>
  <rect x="1" y="23" width="1" height="1" fill="#fffbba"/>
  <rect x="2" y="23" width="1" height="1" fill="#ffffd1"/>
  <rect x="3" y="23" width="1" height="1" fill="#fffeda"/>
  <rect x="4" y="23" width="2" height="1" fill="#fffed7"/>
  <rect x="6" y="23" width="9" height="1" fill="#fffdd9"/>
  <rect x="15" y="23" width="18" height="1" fill="#fffed7"/>
  <rect x="33" y="23" width="1" height="1" fill="#ffffd5"/>
  <rect x="34" y="23" width="1" height="1" fill="#ffffd3"/>
  <rect x="35" y="23" width="1" height="1" fill="#fffecb"/>
  <rect x="36" y="23" width="1" height="1" fill="#fff8b5"/>
  <rect x="0" y="24" width="1" height="1" fill="#ecd184fa"/>
  <rect x="1" y="24" width="1" height="1" fill="#fff0a6"/>
  <rect x="2" y="24" width="1" height="1" fill="#fffdb9"/>
  <rect x="3" y="24" width="1" height="1" fill="#fffebe"/>
  <rect x="4" y="24" width="2" height="1" fill="#fffdbb"/>
  <rect x="6" y="24" width="2" height="1" fill="#fffcbd"/>
  <rect x="8" y="24" width="1" height="1" fill="#fffdbd"/>
  <rect x="9" y="24" width="6" height="1" fill="#fffdbf"/>
  <rect x="15" y="24" width="17" height="1" fill="#fffdbd"/>
  <rect x="32" y="24" width="1" height="1" fill="#fffcbd"/>
  <rect x="33" y="24" width="2" height="1" fill="#fffdbb"/>
  <rect x="35" y="24" width="1" height="1" fill="#fffcb7"/>
  <rect x="36" y="24" width="1" height="1" fill="#ffe297"/>
  <rect x="37" y="24" width="1" height="1" fill="#f7d68bfa"/>
  <rect x="0" y="25" width="1" height="1" fill="#f3dfa4d9"/>
  <rect x="1" y="25" width="1" height="1" fill="#e4d095fa"/>
  <rect x="2" y="25" width="1" height="1" fill="#dcc88f"/>
  <rect x="3" y="25" width="1" height="1" fill="#e1cc93"/>
  <rect x="4" y="25" width="2" height="1" fill="#dfcb90"/>
  <rect x="6" y="25" width="2" height="1" fill="#e1ca92"/>
  <rect x="8" y="25" width="24" height="1" fill="#dfcb92"/>
  <rect x="32" y="25" width="2" height="1" fill="#e1ca92"/>
  <rect x="34" y="25" width="2" height="1" fill="#e3c992"/>
  <rect x="36" y="25" width="1" height="1" fill="#ecd198fa"/>
  <rect x="37" y="25" width="1" height="1" fill="#f7dca3d9"/>
  <rect x="0" y="26" width="1" height="1" fill="#fffbe963"/>
  <rect x="1" y="26" width="1" height="1" fill="#fffcebb0"/>
  <rect x="2" y="26" width="2" height="1" fill="#fffff0bf"/>
  <rect x="4" y="26" width="2" height="1" fill="#fffeefbf"/>
  <rect x="6" y="26" width="2" height="1" fill="#fffdefbf"/>
  <rect x="8" y="26" width="1" height="1" fill="#fffeedbf"/>
  <rect x="9" y="26" width="6" height="1" fill="#ffffebbf"/>
  <rect x="15" y="26" width="1" height="1" fill="#fffeedbf"/>
  <rect x="16" y="26" width="16" height="1" fill="#fffeefbf"/>
  <rect x="32" y="26" width="2" height="1" fill="#fffdefbf"/>
  <rect x="34" y="26" width="1" height="1" fill="#fffcefbf"/>
  <rect x="35" y="26" width="1" height="1" fill="#fffbeebf"/>
  <rect x="36" y="26" width="1" height="1" fill="#fffaebb0"/>
  <rect x="37" y="26" width="1" height="1" fill="#fffbec63"/>
</svg>