<svg xmlns="http://www.w3.org/2000/svg" width="14" height="6" viewBox="0 0 14 6" shape-rendering="crispEdges">
  <rect x="0" y="0" width="1" height="1" fill="#b9473049"/>
  <rect x="1" y="0" width="1" height="1" fill="#b8482ee6"/>
  <rect x="2" y="0" width="2" height="6" fill="#b64a28"/>
  <rect x="4" y="0" width="1" height="6" fill="#b9482c"/>
  <rect x="5" y="0" width="1" height="6" fill="#ac5036"/>
  <rect x="6" y="0" width="1" height="6" fill="#855f3e"/>
  <rect x="7" y="0" width="1" height="6" fill="#889b70"/>
  <rect x="8" y="0" width="1" height="4" fill="#5fac79"/>
  <rect x="9" y="0" width="3" height="1" fill="#4bb67d"/>
  <rect x="12" y="0" width="1" height="1" fill="#4bb67de6"/>
  <rect x="13" y="0" width="1" height="1" fill="#4bb67d49"/>
  <rect x="0" y="1" width="1" height="1" fill="#b94730e6"/>
  <rect x="1" y="1" width="1" height="4" fill="#b8482e"/>
  <rect x="9" y="1" width="4" height="1" fill="#4bb67d"/>
  <rect x="13" y="1" width="1" height="1" fill="#4bb67de6"/>
  <rect x="0" y="2" width="1" height="2" fill="#b94730"/>
  <rect x="9" y="2" width="5" height="2" fill="#4bb67d"/>
  <rect x="0" y="4" width="1" height="1" fill="#b94730e6"/>
  <rect x="8" y="4" width="1" height="2" fill="#61ad7a"/>
  <rect x="9" y="4" width="4" height="1" fill="#4cb77e"/>
  <rect x="13" y="4" width="1" height="1" fill="#4cb77ee7"/>
  <rect x="0" y="5" width="1" height="1" fill="#b947304a"/>
  <rect x="1" y="5" width="1" height="1" fill="#b8482ee7"/>
  <rect x="9" y="5" width="3" height="1" fill="#4cb77e"/>
  <rect x="12" y="5" width="1" height="1" fill="#4cb77ee4"/>
  <rect x="13" y="5" width="1" height="1" fill="#4cb77e4a"/>
</svg>