<svg xmlns="http://www.w3.org/2000/svg" width="36" height="12" viewBox="0 0 36 12" shape-rendering="crispEdges">
  <rect x="3" y="0" width="1" height="1" fill="#27a3706e"/>
  <rect x="4" y="0" width="1" height="1" fill="#1fa36ec7"/>
  <rect x="5" y="0" width="1" height="1" fill="#129a63f3"/>
  <rect x="6" y="0" width="1" height="1" fill="#169f66f3"/>
  <rect x="7" y="0" width="1" height="1" fill="#13975dc7"/>
  <rect x="8" y="0" width="1" height="1" fill="#1b985e6e"/>
  <rect x="15" y="0" width="1" height="1" fill="#a2a7a56e"/>
  <rect x="16" y="0" width="1" height="1" fill="#abadaec7"/>
  <rect x="17" y="0" width="1" height="1" fill="#ababadf3"/>
  <rect x="18" y="0" width="1" height="1" fill="#a2a2a2f3"/>
  <rect x="19" y="0" width="1" height="1" fill="#a4a4a4c7"/>
  <rect x="20" y="0" width="1" height="1" fill="#aaaaaa6e"/>
  <rect x="27" y="0" width="1" height="1" fill="#a7a6a76e"/>
  <rect x="28" y="0" width="1" height="1" fill="#adadadc7"/>
  <rect x="29" y="0" width="1" height="1" fill="#acacacf3"/>
  <rect x="30" y="0" width="1" height="1" fill="#a3a3a3f3"/>
  <rect x="31" y="0" width="1" height="1" fill="#a5a5a5c7"/>
  <rect x="32" y="0" width="1" height="1" fill="#a9a9a96e"/>
  <rect x="1" y="1" width="1" height="1" fill="#159b641b"/>
  <rect x="2" y="1" width="1" height="1" fill="#209f6bcf"/>
  <rect x="3" y="1" width="1" height="1" fill="#2da775"/>
  <rect x="4" y="1" width="1" height="1" fill="#35aa79"/>
  <rect x="5" y="1" width="1" height="1" fill="#37b17f"/>
  <rect x="6" y="1" width="1" height="1" fill="#30bb80"/>
  <rect x="7" y="1" width="1" height="1" fill="#27b376"/>
  <rect x="8" y="1" width="1" height="1" fill="#25a56a"/>
  <rect x="9" y="1" width="1" height="1" fill="#1b985ecf"/>
  <rect x="10" y="1" width="1" height="1" fill="#1fa1671b"/>
  <rect x="13" y="1" width="1" height="1" fill="#a4a7a31b"/>
  <rect x="14" y="1" width="1" height="1" fill="#a2a7a5cf"/>
  <rect x="15" y="1" width="1" height="1" fill="#a2a7a5"/>
  <rect x="16" y="1" width="1" height="1" fill="#aaacad"/>
  <rect x="17" y="1" width="1" height="1" fill="#a7a6a9"/>
  <rect x="18" y="1" width="1" height="1" fill="#a7a6a7"/>
  <rect x="19" y="1" width="1" height="1" fill="#b3b3b3"/>
  <rect x="20" y="1" width="1" height="2" fill="#a9a9a9"/>
  <rect x="21" y="1" width="1" height="1" fill="#a8a8a8cf"/>
  <rect x="22" y="1" width="1" height="1" fill="#a8a8a81b"/>
  <rect x="25" y="1" width="1" height="1" fill="#b2b2b21b"/>
  <rect x="26" y="1" width="1" height="1" fill="#acacaccf"/>
  <rect x="27" y="1" width="1" height="1" fill="#a8a8a8"/>
  <rect x="28" y="1" width="1" height="1" fill="#acacac"/>
  <rect x="29" y="1" width="2" height="1" fill="#a8a8a8"/>
  <rect x="31" y="1" width="1" height="1" fill="#b4b4b4"/>
  <rect x="32" y="1" width="1" height="1" fill="#a9a9a9"/>
  <rect x="33" y="1" width="1" height="1" fill="#a8a8a8cf"/>
  <rect x="34" y="1" width="1" height="1" fill="#a5a5a51b"/>
  <rect x="1" y="2" width="1" height="1" fill="#15a56bcf"/>
  <rect x="2" y="2" width="1" height="1" fill="#2cb27c"/>
  <rect x="3" y="2" width="1" height="1" fill="#42b585"/>
  <rect x="4" y="2" width="1" height="1" fill="#54aa84"/>
  <rect x="5" y="2" width="1" height="1" fill="#c1fff7"/>
  <rect x="6" y="2" width="1" height="1" fill="#30be83"/>
  <rect x="7" y="2" width="1" height="1" fill="#1fb977"/>
  <rect x="8" y="2" width="1" height="1" fill="#34b97c"/>
  <rect x="9" y="2" width="1" height="1" fill="#31af74"/>
  <rect x="10" y="2" width="1" height="1" fill="#1b9d64d0"/>
  <rect x="13" y="2" width="1" height="1" fill="#a4a7a3cf"/>
  <rect x="14" y="2" width="2" height="2" fill="#a2a7a5"/>
  <rect x="16" y="2" width="1" height="1" fill="#a4a6a7"/>
  <rect x="17" y="2" width="1" height="1" fill="#fafafc"/>
  <rect x="18" y="2" width="1" height="1" fill="#a4a4a4"/>
  <rect x="19" y="2" width="1" height="1" fill="#ababab"/>
  <rect x="21" y="2" width="1" height="1" fill="#a1a1a1"/>
  <rect x="22" y="2" width="1" height="1" fill="#aaaaaad0"/>
  <rect x="25" y="2" width="1" height="1" fill="#acacaccf"/>
  <rect x="26" y="2" width="1" height="1" fill="#aaaaaa"/>
  <rect x="27" y="2" width="1" height="1" fill="#a9a9a9"/>
  <rect x="28" y="2" width="1" height="1" fill="#a7a6a7"/>
  <rect x="29" y="2" width="1" height="1" fill="#fcfbfc"/>
  <rect x="30" y="2" width="1" height="1" fill="#a5a5a5"/>
  <rect x="31" y="2" width="1" height="1" fill="#acacac"/>
  <rect x="32" y="2" width="1" height="1" fill="#a3a3a3"/>
  <rect x="33" y="2" width="1" height="1" fill="#aaaaaa"/>
  <rect x="34" y="2" width="1" height="1" fill="#a9a9a9d0"/>
  <rect x="0" y="3" width="1" height="1" fill="#15ac706d"/>
  <rect x="1" y="3" width="1" height="1" fill="#20ad75"/>
  <rect x="2" y="3" width="1" height="1" fill="#3fb685"/>
  <rect x="3" y="3" width="1" height="1" fill="#49a37c"/>
  <rect x="4" y="3" width="1" height="1" fill="#cdffea"/>
  <rect x="5" y="3" width="1" height="1" fill="#c9ffee"/>
  <rect x="6" y="3" width="1" height="1" fill="#35b67f"/>
  <rect x="7" y="3" width="1" height="1" fill="#27bc7c"/>
  <rect x="8" y="3" width="1" height="1" fill="#9bffe3"/>
  <rect x="9" y="3" width="1" height="1" fill="#3dba80"/>
  <rect x="10" y="3" width="1" height="1" fill="#2bae74"/>
  <rect x="11" y="3" width="1" height="1" fill="#389a6e6d"/>
  <rect x="12" y="3" width="1" height="1" fill="#8fb09e6d"/>
  <rect x="13" y="3" width="1" height="1" fill="#a7a7a4"/>
  <rect x="16" y="3" width="1" height="1" fill="#f2f4f5"/>
  <rect x="17" y="3" width="1" height="1" fill="#f2f2f4"/>
  <rect x="18" y="3" width="1" height="1" fill="#acacac"/>
  <rect x="19" y="3" width="1" height="1" fill="#a9a9a9"/>
  <rect x="20" y="3" width="1" height="1" fill="#ffffff"/>
  <rect x="21" y="3" width="1" height="1" fill="#a8a8a8"/>
  <rect x="22" y="3" width="1" height="1" fill="#a9a9a9"/>
  <rect x="23" y="3" width="1" height="1" fill="#ababab6d"/>
  <rect x="24" y="3" width="1" height="1" fill="#a7a6a76d"/>
  <rect x="25" y="3" width="1" height="1" fill="#a8a8a8"/>
  <rect x="26" y="3" width="1" height="1" fill="#a9a9a9"/>
  <rect x="27" y="3" width="1" height="1" fill="#aaaaaa"/>
  <rect x="28" y="3" width="1" height="1" fill="#f5f5f5"/>
  <rect x="29" y="3" width="1" height="1" fill="#f3f3f3"/>
  <rect x="30" y="3" width="1" height="1" fill="#adadad"/>
  <rect x="31" y="3" width="1" height="1" fill="#aaaaaa"/>
  <rect x="32" y="3" width="1" height="1" fill="#f6f6f6"/>
  <rect x="33" y="3" width="1" height="1" fill="#a8a8a8"/>
  <rect x="34" y="3" width="1" height="1" fill="#aaaaaa"/>
  <rect x="35" y="3" width="1" height="1" fill="#a7a6a76d"/>
  <rect x="0" y="4" width="1" height="1" fill="#10a268c7"/>
  <rect x="1" y="4" width="1" height="1" fill="#37b380"/>
  <rect x="2" y="4" width="1" height="1" fill="#54a580"/>
  <rect x="3" y="4" width="1" height="1" fill="#d5ffec"/>
  <rect x="4" y="4" width="1" height="1" fill="#e2fcea"/>
  <rect x="5" y="4" width="1" height="1" fill="#dffff3"/>
  <rect x="6" y="4" width="1" height="1" fill="#43a87b"/>
  <rect x="7" y="4" width="1" height="1" fill="#9effe5"/>
  <rect x="8" y="4" width="1" height="1" fill="#229f65"/>
  <rect x="9" y="4" width="1" height="1" fill="#33b378"/>
  <rect x="10" y="4" width="1" height="1" fill="#3bbd83"/>
  <rect x="11" y="4" width="1" height="1" fill="#3a9c72c7"/>
  <rect x="12" y="4" width="1" height="1" fill="#8fb0a0c7"/>
  <rect x="13" y="4" width="1" height="1" fill="#a9a9a7"/>
  <rect x="14" y="4" width="1" height="1" fill="#aaacab"/>
  <rect x="15" y="4" width="1" height="1" fill="#eff3f4"/>
  <rect x="16" y="4" width="1" height="1" fill="#edeff1"/>
  <rect x="17" y="4" width="1" height="1" fill="#f7f6f9"/>
  <rect x="18" y="4" width="1" height="1" fill="#a4a4a4"/>
  <rect x="19" y="4" width="1" height="1" fill="#f8f8f8"/>
  <rect x="20" y="4" width="1" height="1" fill="#909090"/>
  <rect x="21" y="4" width="1" height="1" fill="#a9a9a9"/>
  <rect x="22" y="4" width="1" height="1" fill="#aaaaaa"/>
  <rect x="23" y="4" width="2" height="1" fill="#adadadc7"/>
  <rect x="25" y="4" width="1" height="1" fill="#a5a5a5"/>
  <rect x="26" y="4" width="1" height="1" fill="#a3a3a3"/>
  <rect x="27" y="4" width="1" height="1" fill="#f5f5f5"/>
  <rect x="28" y="4" width="1" height="1" fill="#f0f0f0"/>
  <rect x="29" y="4" width="1" height="1" fill="#f9f9f9"/>
  <rect x="30" y="4" width="1" height="1" fill="#a7a6a7"/>
  <rect x="31" y="4" width="1" height="1" fill="#f9f9f9"/>
  <rect x="32" y="4" width="1" height="1" fill="#939393"/>
  <rect x="33" y="4" width="1" height="1" fill="#acacac"/>
  <rect x="34" y="4" width="1" height="5" fill="#a8a8a8"/>
  <rect x="35" y="4" width="1" height="1" fill="#abababc7"/>
  <rect x="0" y="5" width="1" height="1" fill="#25b57cf9"/>
  <rect x="1" y="5" width="1" height="1" fill="#3ab07f"/>
  <rect x="2" y="5" width="1" height="1" fill="#d6fff7"/>
  <rect x="3" y="5" width="1" height="1" fill="#e5ffef"/>
  <rect x="4" y="5" width="1" height="1" fill="#f3fef1"/>
  <rect x="5" y="5" width="1" height="1" fill="#e4ffed"/>
  <rect x="6" y="5" width="1" height="1" fill="#53a77d"/>
  <rect x="7" y="5" width="1" height="1" fill="#32a570"/>
  <rect x="8" y="5" width="1" height="1" fill="#35b077"/>
  <rect x="9" y="5" width="1" height="1" fill="#35b57c"/>
  <rect x="10" y="5" width="1" height="1" fill="#38ba83"/>
  <rect x="11" y="5" width="1" height="1" fill="#3c9e73f8"/>
  <rect x="12" y="5" width="1" height="1" fill="#94b4a5f9"/>
  <rect x="13" y="5" width="1" height="1" fill="#acacac"/>
  <rect x="14" y="5" width="1" height="1" fill="#f9fbfc"/>
  <rect x="15" y="5" width="1" height="1" fill="#f8fafb"/>
  <rect x="16" y="5" width="1" height="1" fill="#f6f5f8"/>
  <rect x="17" y="5" width="1" height="1" fill="#f3f3f5"/>
  <rect x="18" y="5" width="1" height="1" fill="#a8a8a8"/>
  <rect x="19" y="5" width="1" height="1" fill="#949494"/>
  <rect x="20" y="5" width="1" height="1" fill="#a5a5a5"/>
  <rect x="21" y="5" width="1" height="1" fill="#acacac"/>
  <rect x="22" y="5" width="1" height="1" fill="#a5a5a5"/>
  <rect x="23" y="5" width="1" height="1" fill="#afafaff8"/>
  <rect x="24" y="5" width="1" height="1" fill="#a9a9a9f9"/>
  <rect x="25" y="5" width="1" height="1" fill="#a7a6a7"/>
  <rect x="26" y="5" width="1" height="1" fill="#fcfbfc"/>
  <rect x="27" y="5" width="1" height="1" fill="#f9f9f9"/>
  <rect x="28" y="5" width="1" height="1" fill="#f7f7f7"/>
  <rect x="29" y="5" width="1" height="1" fill="#f6f6f6"/>
  <rect x="30" y="5" width="1" height="1" fill="#aaaaaa"/>
  <rect x="31" y="5" width="1" height="1" fill="#959595"/>
  <rect x="32" y="5" width="1" height="1" fill="#a9a9a9"/>
  <rect x="33" y="5" width="1" height="1" fill="#a4a4a4"/>
  <rect x="35" y="5" width="1" height="1" fill="#aaaaaaf8"/>
  <rect x="0" y="6" width="1" height="1" fill="#1daf72f9"/>
  <rect x="1" y="6" width="1" height="1" fill="#3ab27e"/>
  <rect x="2" y="6" width="1" height="1" fill="#d7fff6"/>
  <rect x="3" y="6" width="1" height="1" fill="#e6ffee"/>
  <rect x="4" y="6" width="1" height="1" fill="#f5fff1"/>
  <rect x="5" y="6" width="1" height="1" fill="#eafff0"/>
  <rect x="6" y="6" width="1" height="1" fill="#53a079"/>
  <rect x="7" y="6" width="1" height="1" fill="#abffe5"/>
  <rect x="8" y="6" width="1" height="1" fill="#a7ffe8"/>
  <rect x="9" y="6" width="1" height="1" fill="#3bbb82"/>
  <rect x="10" y="6" width="1" height="1" fill="#31b57d"/>
  <rect x="11" y="6" width="1" height="1" fill="#399d72f3"/>
  <rect x="12" y="6" width="1" height="1" fill="#93b3a4f9"/>
  <rect x="13" y="6" width="1" height="1" fill="#b0b0b0"/>
  <rect x="14" y="6" width="1" height="1" fill="#f5f7f9"/>
  <rect x="15" y="6" width="1" height="1" fill="#f9fbfc"/>
  <rect x="16" y="6" width="2" height="1" fill="#f7f6f9"/>
  <rect x="18" y="6" width="1" height="1" fill="#a5a5a5"/>
  <rect x="19" y="6" width="1" height="1" fill="#f7f7f7"/>
  <rect x="20" y="6" width="1" height="1" fill="#eeeeee"/>
  <rect x="21" y="6" width="2" height="1" fill="#a8a8a8"/>
  <rect x="23" y="6" width="1" height="1" fill="#a0a0a0f3"/>
  <rect x="24" y="6" width="1" height="1" fill="#a7a6a7f9"/>
  <rect x="25" y="6" width="1" height="1" fill="#ababab"/>
  <rect x="26" y="6" width="1" height="1" fill="#f7f7f7"/>
  <rect x="27" y="6" width="1" height="1" fill="#fcfbfc"/>
  <rect x="28" y="6" width="1" height="1" fill="#f8f8f8"/>
  <rect x="29" y="6" width="1" height="1" fill="#f9f9f9"/>
  <rect x="30" y="6" width="1" height="1" fill="#a8a8a8"/>
  <rect x="31" y="6" width="1" height="1" fill="#f9f9f9"/>
  <rect x="32" y="6" width="1" height="1" fill="#f7f7f7"/>
  <rect x="33" y="6" width="1" height="1" fill="#a9a9a9"/>
  <rect x="35" y="6" width="1" height="1" fill="#abababf3"/>
  <rect x="0" y="7" width="1" height="1" fill="#1db476c7"/>
  <rect x="1" y="7" width="1" height="1" fill="#30b27b"/>
  <rect x="2" y="7" width="1" height="1" fill="#449a71"/>
  <rect x="3" y="7" width="1" height="1" fill="#d9fff0"/>
  <rect x="4" y="7" width="1" height="1" fill="#f3fff7"/>
  <rect x="5" y="7" width="1" height="1" fill="#e1ffec"/>
  <rect x="6" y="7" width="1" height="1" fill="#58a57d"/>
  <rect x="7" y="7" width="1" height="1" fill="#36a370"/>
  <rect x="8" y="7" width="1" height="1" fill="#259e65"/>
  <rect x="9" y="7" width="1" height="1" fill="#37b980"/>
  <rect x="10" y="7" width="1" height="1" fill="#34b880"/>
  <rect x="11" y="7" width="1" height="1" fill="#40a479c7"/>
  <rect x="12" y="7" width="1" height="1" fill="#92b2a2c7"/>
  <rect x="13" y="7" width="1" height="1" fill="#aca9aa"/>
  <rect x="14" y="7" width="1" height="1" fill="#959597"/>
  <rect x="15" y="7" width="1" height="1" fill="#f4f6f8"/>
  <rect x="16" y="7" width="1" height="1" fill="#fdfcff"/>
  <rect x="17" y="7" width="1" height="1" fill="#f2f2f4"/>
  <rect x="18" y="7" width="1" height="1" fill="#a9a9a9"/>
  <rect x="19" y="7" width="1" height="1" fill="#939393"/>
  <rect x="20" y="7" width="1" height="1" fill="#969696"/>
  <rect x="21" y="7" width="1" height="1" fill="#a5a5a5"/>
  <rect x="22" y="7" width="1" height="1" fill="#ababab"/>
  <rect x="23" y="7" width="2" height="1" fill="#a9a9a9c7"/>
  <rect x="25" y="7" width="1" height="1" fill="#b1b1b1"/>
  <rect x="26" y="7" width="1" height="1" fill="#969696"/>
  <rect x="27" y="7" width="1" height="1" fill="#f9f9f9"/>
  <rect x="28" y="7" width="1" height="1" fill="#fefefe"/>
  <rect x="29" y="7" width="1" height="1" fill="#f5f5f5"/>
  <rect x="30" y="7" width="1" height="1" fill="#ababab"/>
  <rect x="31" y="7" width="1" height="1" fill="#949494"/>
  <rect x="32" y="7" width="1" height="1" fill="#8f8f8f"/>
  <rect x="33" y="7" width="1" height="1" fill="#ababab"/>
  <rect x="35" y="7" width="1" height="1" fill="#a4a4a4c7"/>
  <rect x="0" y="8" width="1" height="1" fill="#21bb7a6e"/>
  <rect x="1" y="8" width="1" height="1" fill="#2cbf80"/>
  <rect x="2" y="8" width="1" height="1" fill="#32b47b"/>
  <rect x="3" y="8" width="1" height="1" fill="#3a9d6e"/>
  <rect x="4" y="8" width="1" height="1" fill="#d6ffec"/>
  <rect x="5" y="8" width="1" height="1" fill="#d4ffe6"/>
  <rect x="6" y="8" width="1" height="1" fill="#55ae82"/>
  <rect x="7" y="8" width="1" height="1" fill="#aaffe5"/>
  <rect x="8" y="8" width="1" height="1" fill="#45c28a"/>
  <rect x="9" y="8" width="1" height="1" fill="#36b87e"/>
  <rect x="10" y="8" width="1" height="1" fill="#36ba82"/>
  <rect x="11" y="8" width="1" height="1" fill="#43a77f6e"/>
  <rect x="12" y="8" width="1" height="1" fill="#94b4a76d"/>
  <rect x="13" y="8" width="1" height="1" fill="#a8a6a7"/>
  <rect x="14" y="8" width="1" height="1" fill="#a1a0a3"/>
  <rect x="15" y="8" width="1" height="1" fill="#9d9ca1"/>
  <rect x="16" y="8" width="1" height="1" fill="#f5f4f7"/>
  <rect x="17" y="8" width="1" height="1" fill="#f8f8fa"/>
  <rect x="18" y="8" width="1" height="1" fill="#adadad"/>
  <rect x="19" y="8" width="1" height="1" fill="#ffffff"/>
  <rect x="20" y="8" width="1" height="1" fill="#a8a8a8"/>
  <rect x="21" y="8" width="1" height="1" fill="#adadad"/>
  <rect x="22" y="8" width="1" height="1" fill="#a9a9a9"/>
  <rect x="23" y="8" width="1" height="1" fill="#acacac6e"/>
  <rect x="24" y="8" width="1" height="1" fill="#acacac6d"/>
  <rect x="25" y="8" width="1" height="1" fill="#b0b0b0"/>
  <rect x="26" y="8" width="1" height="1" fill="#a9a9a9"/>
  <rect x="27" y="8" width="1" height="1" fill="#979797"/>
  <rect x="28" y="8" width="1" height="1" fill="#f5f5f5"/>
  <rect x="29" y="8" width="1" height="1" fill="#f8f8f8"/>
  <rect x="30" y="8" width="1" height="1" fill="#adadad"/>
  <rect x="31" y="8" width="1" height="1" fill="#ffffff"/>
  <rect x="32" y="8" width="1" height="1" fill="#a9a9a9"/>
  <rect x="33" y="8" width="1" height="1" fill="#acacac"/>
  <rect x="35" y="8" width="1" height="1" fill="#ababab6e"/>
  <rect x="1" y="9" width="1" height="1" fill="#21bb7ad0"/>
  <rect x="2" y="9" width="1" height="1" fill="#20b575"/>
  <rect x="3" y="9" width="1" height="1" fill="#37b27b"/>
  <rect x="4" y="9" width="1" height="1" fill="#419168"/>
  <rect x="5" y="9" width="1" height="1" fill="#caffee"/>
  <rect x="6" y="9" width="1" height="1" fill="#4bb581"/>
  <rect x="7" y="9" width="1" height="1" fill="#209d63"/>
  <rect x="8" y="9" width="1" height="1" fill="#9fffe6"/>
  <rect x="9" y="9" width="1" height="1" fill="#30b47c"/>
  <rect x="10" y="9" width="1" height="1" fill="#26ac76d1"/>
  <rect x="13" y="9" width="1" height="1" fill="#a7a4a7d0"/>
  <rect x="14" y="9" width="1" height="1" fill="#a3a2a7"/>
  <rect x="15" y="9" width="1" height="1" fill="#a2a1a6"/>
  <rect x="16" y="9" width="1" height="1" fill="#939295"/>
  <rect x="17" y="9" width="1" height="1" fill="#f5f4f7"/>
  <rect x="18" y="9" width="1" height="1" fill="#ababab"/>
  <rect x="19" y="9" width="1" height="1" fill="#909090"/>
  <rect x="20" y="9" width="1" height="1" fill="#f2f2f2"/>
  <rect x="21" y="9" width="1" height="1" fill="#acacac"/>
  <rect x="22" y="9" width="1" height="1" fill="#a4a4a4d1"/>
  <rect x="25" y="9" width="1" height="1" fill="#aaaaaad0"/>
  <rect x="26" y="9" width="1" height="1" fill="#aaaaaa"/>
  <rect x="27" y="9" width="1" height="1" fill="#a4a4a4"/>
  <rect x="28" y="9" width="1" height="1" fill="#939393"/>
  <rect x="29" y="9" width="1" height="1" fill="#f5f5f5"/>
  <rect x="30" y="9" width="1" height="1" fill="#ababab"/>
  <rect x="31" y="9" width="1" height="1" fill="#909090"/>
  <rect x="32" y="9" width="1" height="1" fill="#f6f6f6"/>
  <rect x="33" y="9" width="1" height="1" fill="#a9a9a9"/>
  <rect x="34" y="9" width="1" height="1" fill="#a9a9a9d1"/>
  <rect x="1" y="10" width="1" height="1" fill="#26c17c1b"/>
  <rect x="2" y="10" width="1" height="1" fill="#28b978cf"/>
  <rect x="3" y="10" width="1" height="1" fill="#39b97e"/>
  <rect x="4" y="10" width="1" height="1" fill="#44b17c"/>
  <rect x="5" y="10" width="1" height="1" fill="#34a16c"/>
  <rect x="6" y="10" width="1" height="1" fill="#36b87c"/>
  <rect x="7" y="10" width="1" height="1" fill="#31bb7c"/>
  <rect x="8" y="10" width="1" height="1" fill="#1ea569"/>
  <rect x="9" y="10" width="1" height="1" fill="#2db179d0"/>
  <rect x="10" y="10" width="1" height="1" fill="#2fb57f1b"/>
  <rect x="13" y="10" width="1" height="1" fill="#a5a2a51b"/>
  <rect x="14" y="10" width="1" height="1" fill="#a7a4a9cf"/>
  <rect x="15" y="10" width="1" height="1" fill="#a9a6ac"/>
  <rect x="16" y="10" width="1" height="1" fill="#aaaaac"/>
  <rect x="17" y="10" width="1" height="1" fill="#8d8c8f"/>
  <rect x="18" y="10" width="1" height="1" fill="#a5a5a5"/>
  <rect x="19" y="10" width="1" height="1" fill="#aaaaaa"/>
  <rect x="20" y="10" width="1" height="1" fill="#898989"/>
  <rect x="21" y="10" width="1" height="1" fill="#abababd0"/>
  <rect x="22" y="10" width="1" height="1" fill="#a8a8a81b"/>
  <rect x="25" y="10" width="1" height="1" fill="#a8a8a81b"/>
  <rect x="26" y="10" width="1" height="1" fill="#a7a6a7cf"/>
  <rect x="27" y="10" width="2" height="1" fill="#aaaaaa"/>
  <rect x="29" y="10" width="1" height="1" fill="#8d8d8d"/>
  <rect x="30" y="10" width="1" height="1" fill="#a5a5a5"/>
  <rect x="31" y="10" width="1" height="1" fill="#aaaaaa"/>
  <rect x="32" y="10" width="1" height="1" fill="#909090"/>
  <rect x="33" y="10" width="1" height="1" fill="#a7a6a7d0"/>
  <rect x="34" y="10" width="1" height="1" fill="#aaaaaa1b"/>
  <rect x="3" y="11" width="1" height="1" fill="#31b4786f"/>
  <rect x="4" y="11" width="1" height="1" fill="#31ad73cb"/>
  <rect x="5" y="11" width="1" height="1" fill="#39b77cf4"/>
  <rect x="6" y="11" width="1" height="1" fill="#28b777f4"/>
  <rect x="7" y="11" width="1" height="1" fill="#24b574cb"/>
  <rect x="8" y="11" width="1" height="1" fill="#30b97d6f"/>
  <rect x="15" y="11" width="1" height="1" fill="#aaa7ad6f"/>
  <rect x="16" y="11" width="1" height="1" fill="#aaaaaccb"/>
  <rect x="17" y="11" width="1" height="1" fill="#ababadf4"/>
  <rect x="18" y="11" width="1" height="1" fill="#9e9e9ef4"/>
  <rect x="19" y="11" width="1" height="1" fill="#acacaccb"/>
  <rect x="20" y="11" width="1" height="1" fill="#a7a6a76f"/>
  <rect x="27" y="11" width="1" height="1" fill="#a5a5a56f"/>
  <rect x="28" y="11" width="1" height="1" fill="#aaaaaacb"/>
  <rect x="29" y="11" width="1" height="1" fill="#abababf4"/>
  <rect x="30" y="11" width="1" height="1" fill="#9e9e9ef4"/>
  <rect x="31" y="11" width="1" height="1" fill="#acacaccb"/>
  <rect x="32" y="11" width="1" height="1" fill="#a9a9a96f"/>
</svg>