<svg xmlns="http://www.w3.org/2000/svg" width="8" height="20" viewBox="0 0 8 20" shape-rendering="crispEdges">
  <rect x="0" y="8" width="1" height="1" fill="#b4b4b449"/>
  <rect x="1" y="8" width="1" height="1" fill="#a7a6a7e6"/>
  <rect x="2" y="8" width="1" height="1" fill="#a7a6a7"/>
  <rect x="3" y="8" width="1" height="1" fill="#a8a8a8"/>
  <rect x="4" y="8" width="1" height="1" fill="#a5a5a5"/>
  <rect x="5" y="8" width="1" height="1" fill="#a7a6a7"/>
  <rect x="6" y="8" width="1" height="1" fill="#a9a9a9e6"/>
  <rect x="7" y="8" width="1" height="1" fill="#b6b6b649"/>
  <rect x="0" y="9" width="1" height="1" fill="#a9a9a9e6"/>
  <rect x="1" y="9" width="1" height="1" fill="#dadada"/>
  <rect x="2" y="9" width="1" height="1" fill="#f5f5f5"/>
  <rect x="3" y="9" width="1" height="1" fill="#f7f7f7"/>
  <rect x="4" y="9" width="1" height="1" fill="#f5f5f5"/>
  <rect x="5" y="9" width="1" height="1" fill="#f6f6f6"/>
  <rect x="6" y="9" width="1" height="1" fill="#dcdcdc"/>
  <rect x="7" y="9" width="1" height="1" fill="#a9a9a9e6"/>
  <rect x="0" y="10" width="1" height="1" fill="#a8a8a8"/>
  <rect x="1" y="10" width="1" height="1" fill="#f2f2f2"/>
  <rect x="2" y="10" width="1" height="1" fill="#ffffff"/>
  <rect x="3" y="10" width="1" height="1" fill="#f5f5f5"/>
  <rect x="4" y="10" width="1" height="1" fill="#efefef"/>
  <rect x="5" y="10" width="1" height="1" fill="#fdfdfd"/>
  <rect x="6" y="10" width="1" height="1" fill="#f2f2f2"/>
  <rect x="7" y="10" width="1" height="1" fill="#a4a4a4"/>
  <rect x="0" y="11" width="1" height="2" fill="#a7a6a7"/>
  <rect x="1" y="11" width="2" height="1" fill="#f2f2f2"/>
  <rect x="3" y="11" width="1" height="1" fill="#f0f0f0"/>
  <rect x="4" y="11" width="1" height="1" fill="#f1f1f1"/>
  <rect x="5" y="11" width="1" height="1" fill="#f6f6f6"/>
  <rect x="6" y="11" width="1" height="1" fill="#f8f8f8"/>
  <rect x="7" y="11" width="1" height="1" fill="#a9a9a9"/>
  <rect x="1" y="12" width="1" height="1" fill="#f0f0f0"/>
  <rect x="2" y="12" width="1" height="1" fill="#f8f8f8"/>
  <rect x="3" y="12" width="1" height="1" fill="#f9f9f9"/>
  <rect x="4" y="12" width="1" height="1" fill="#f7f7f7"/>
  <rect x="5" y="12" width="1" height="1" fill="#f8f8f8"/>
  <rect x="6" y="12" width="1" height="1" fill="#ececec"/>
  <rect x="7" y="12" width="1" height="1" fill="#a7a6a7"/>
  <rect x="0" y="13" width="1" height="1" fill="#a4a4a4"/>
  <rect x="1" y="13" width="1" height="1" fill="#ffffff"/>
  <rect x="2" y="13" width="1" height="1" fill="#fcfbfc"/>
  <rect x="3" y="13" width="1" height="1" fill="#fdfdfd"/>
  <rect x="4" y="13" width="1" height="1" fill="#f8f8f8"/>
  <rect x="5" y="13" width="1" height="1" fill="#f9f9f9"/>
  <rect x="6" y="13" width="1" height="1" fill="#fdfdfd"/>
  <rect x="7" y="13" width="1" height="1" fill="#a2a2a2"/>
  <rect x="0" y="14" width="1" height="1" fill="#a7a6a7"/>
  <rect x="1" y="14" width="1" height="1" fill="#f2f2f2"/>
  <rect x="2" y="14" width="1" height="1" fill="#f8f8f8"/>
  <rect x="3" y="14" width="1" height="1" fill="#fafafa"/>
  <rect x="4" y="14" width="2" height="1" fill="#f8f8f8"/>
  <rect x="6" y="14" width="1" height="1" fill="#f0f0f0"/>
  <rect x="7" y="14" width="1" height="1" fill="#a7a6a7"/>
  <rect x="0" y="15" width="1" height="1" fill="#adadad9b"/>
  <rect x="1" y="15" width="1" height="1" fill="#c8c8c8"/>
  <rect x="2" y="15" width="1" height="1" fill="#f0f0f0"/>
  <rect x="3" y="15" width="1" height="1" fill="#f3f3f3"/>
  <rect x="4" y="15" width="1" height="1" fill="#f7f7f7"/>
  <rect x="5" y="15" width="1" height="1" fill="#f6f6f6"/>
  <rect x="6" y="15" width="1" height="1" fill="#cccccc"/>
  <rect x="7" y="15" width="1" height="1" fill="#b3b3b39b"/>
  <rect x="1" y="16" width="1" height="1" fill="#a8a8a8c6"/>
  <rect x="2" y="16" width="1" height="1" fill="#d0d0d0"/>
  <rect x="3" y="16" width="1" height="1" fill="#fdfdfd"/>
  <rect x="4" y="16" width="1" height="1" fill="#f2f2f2"/>
  <rect x="5" y="16" width="1" height="1" fill="#d0d0d0"/>
  <rect x="6" y="16" width="1" height="1" fill="#aaaaaac6"/>
  <rect x="1" y="17" width="1" height="1" fill="#a9a9a91a"/>
  <rect x="2" y="17" width="1" height="1" fill="#a9a9a9e5"/>
  <rect x="3" y="17" width="2" height="1" fill="#d5d5d5"/>
  <rect x="5" y="17" width="1" height="1" fill="#adadade6"/>
  <rect x="6" y="17" width="1" height="1" fill="#a8a8a81a"/>
  <rect x="2" y="18" width="1" height="1" fill="#ababab39"/>
  <rect x="3" y="18" width="1" height="1" fill="#a9a9a9f9"/>
  <rect x="4" y="18" width="1" height="1" fill="#abababf9"/>
  <rect x="5" y="18" width="1" height="1" fill="#ababab3a"/>
  <rect x="3" y="19" width="1" height="1" fill="#a4a4a465"/>
  <rect x="4" y="19" width="1" height="1" fill="#a9a9a965"/>
</svg>