<svg xmlns="http://www.w3.org/2000/svg" width="120" height="20" viewBox="0 0 120 20" shape-rendering="crispEdges">
  <rect x="2" y="2" width="1" height="2" fill="#c0c0c0"/>
  <rect x="59" y="2" width="3" height="1" fill="#c0c0c0"/>
  <rect x="58" y="3" width="1" height="3" fill="#c0c0c0"/>
  <rect x="62" y="3" width="1" height="3" fill="#c0c0c0"/>
  <rect x="0" y="4" width="5" height="1" fill="#c0c0c0"/>
  <rect x="115" y="4" width="1" height="1" fill="#bfc1c2"/>
  <rect x="116" y="4" width="4" height="1" fill="#bfc0c4"/>
  <rect x="2" y="5" width="1" height="2" fill="#c0c0c0"/>
  <rect x="59" y="6" width="3" height="1" fill="#c0c0c0"/>
  <rect x="0" y="11" width="1" height="1" fill="#dedede49"/>
  <rect x="1" y="11" width="1" height="1" fill="#e1e1e1e6"/>
  <rect x="2" y="11" width="1" height="1" fill="#dedede"/>
  <rect x="3" y="11" width="1" height="1" fill="#e1e1e1"/>
  <rect x="4" y="11" width="2" height="1" fill="#dedede"/>
  <rect x="6" y="11" width="4" height="1" fill="#e3e3e3"/>
  <rect x="10" y="11" width="1" height="1" fill="#e4e4e4"/>
  <rect x="11" y="11" width="2" height="1" fill="#e3e3e3"/>
  <rect x="13" y="11" width="3" height="1" fill="#e2e2e2"/>
  <rect x="16" y="11" width="32" height="1" fill="#e1e1e1"/>
  <rect x="48" y="11" width="8" height="1" fill="#e4e4e4"/>
  <rect x="56" y="11" width="6" height="1" fill="#e3e3e3"/>
  <rect x="62" y="11" width="2" height="1" fill="#e2e2e2"/>
  <rect x="64" y="11" width="16" height="1" fill="#e3e3e3"/>
  <rect x="80" y="11" width="29" height="1" fill="#dcdcdc"/>
  <rect x="109" y="11" width="2" height="1" fill="#dddddd"/>
  <rect x="111" y="11" width="1" height="1" fill="#dedede"/>
  <rect x="112" y="11" width="3" height="1" fill="#e0e3e0"/>
  <rect x="115" y="11" width="1" height="1" fill="#e1e4e1"/>
  <rect x="116" y="11" width="2" height="1" fill="#e3e5e2"/>
  <rect x="118" y="11" width="1" height="1" fill="#e1e4e1e6"/>
  <rect x="119" y="11" width="1" height="1" fill="#e0e3e049"/>
  <rect x="0" y="12" width="1" height="1" fill="#dbdbdbe6"/>
  <rect x="1" y="12" width="1" height="1" fill="#e5e5e5"/>
  <rect x="2" y="12" width="1" height="4" fill="#ececec"/>
  <rect x="3" y="12" width="1" height="1" fill="#e5e5e5"/>
  <rect x="4" y="12" width="2" height="1" fill="#ebebeb"/>
  <rect x="6" y="12" width="6" height="1" fill="#e8e8e8"/>
  <rect x="12" y="12" width="1" height="1" fill="#e7e7e7"/>
  <rect x="13" y="12" width="2" height="1" fill="#e8e8e8"/>
  <rect x="15" y="12" width="1" height="1" fill="#e9e9e9"/>
  <rect x="16" y="12" width="1" height="1" fill="#eaeaea"/>
  <rect x="17" y="12" width="2" height="1" fill="#ebebeb"/>
  <rect x="19" y="12" width="29" height="1" fill="#ececec"/>
  <rect x="48" y="12" width="8" height="1" fill="#e9e9e9"/>
  <rect x="56" y="12" width="6" height="1" fill="#e8e8e8"/>
  <rect x="62" y="12" width="2" height="1" fill="#e9e9e9"/>
  <rect x="64" y="12" width="14" height="1" fill="#e8e8e8"/>
  <rect x="78" y="12" width="2" height="1" fill="#e9e9e9"/>
  <rect x="80" y="12" width="2" height="1" fill="#eaeaea"/>
  <rect x="82" y="12" width="28" height="1" fill="#ebebeb"/>
  <rect x="110" y="12" width="2" height="1" fill="#eaeaea"/>
  <rect x="112" y="12" width="1" height="1" fill="#e4e7e3"/>
  <rect x="113" y="12" width="1" height="1" fill="#e5e8e5"/>
  <rect x="114" y="12" width="1" height="1" fill="#e4e7e3"/>
  <rect x="115" y="12" width="1" height="1" fill="#e6e9e6"/>
  <rect x="116" y="12" width="1" height="1" fill="#e7eae7"/>
  <rect x="117" y="12" width="1" height="1" fill="#e6e9e6"/>
  <rect x="118" y="12" width="1" height="1" fill="#e3e5e2"/>
  <rect x="119" y="12" width="1" height="1" fill="#dfe2dffd"/>
  <rect x="0" y="13" width="1" height="2" fill="#dbdbdb"/>
  <rect x="1" y="13" width="1" height="3" fill="#e8e8e8"/>
  <rect x="3" y="13" width="1" height="3" fill="#e8e8e8"/>
  <rect x="4" y="13" width="4" height="3" fill="#ebebeb"/>
  <rect x="8" y="13" width="6" height="3" fill="#eaeaea"/>
  <rect x="14" y="13" width="4" height="3" fill="#ebebeb"/>
  <rect x="18" y="13" width="38" height="3" fill="#ececec"/>
  <rect x="56" y="13" width="56" height="3" fill="#ebebeb"/>
  <rect x="112" y="13" width="3" height="3" fill="#eaece9"/>
  <rect x="115" y="13" width="1" height="3" fill="#ebeeea"/>
  <rect x="116" y="13" width="1" height="3" fill="#ecefec"/>
  <rect x="117" y="13" width="1" height="3" fill="#eaece9"/>
  <rect x="118" y="13" width="1" height="3" fill="#e5e8e5"/>
  <rect x="119" y="13" width="1" height="3" fill="#e0e3e0"/>
  <rect x="0" y="15" width="1" height="1" fill="#dbdbdbe6"/>
  <rect x="0" y="16" width="1" height="1" fill="#dedede4a"/>
  <rect x="1" y="16" width="1" height="1" fill="#e3e3e3fd"/>
  <rect x="2" y="16" width="1" height="1" fill="#dedede"/>
  <rect x="3" y="16" width="1" height="1" fill="#dcdcdc"/>
  <rect x="4" y="16" width="4" height="1" fill="#dddddd"/>
  <rect x="8" y="16" width="8" height="1" fill="#dcdcdc"/>
  <rect x="16" y="16" width="96" height="1" fill="#dddddd"/>
  <rect x="112" y="16" width="4" height="1" fill="#dedede"/>
  <rect x="116" y="16" width="1" height="1" fill="#d5d5d5"/>
  <rect x="117" y="16" width="1" height="1" fill="#dddddd"/>
  <rect x="118" y="16" width="1" height="1" fill="#e9e9e9"/>
  <rect x="119" y="16" width="1" height="1" fill="#f1f1f1"/>
  <rect x="1" y="17" width="1" height="1" fill="#f5f5f54a"/>
  <rect x="2" y="17" width="1" height="1" fill="#fafafae7"/>
  <rect x="3" y="17" width="113" height="1" fill="#ffffff"/>
  <rect x="116" y="17" width="1" height="1" fill="#f8f8f8"/>
  <rect x="117" y="17" width="1" height="1" fill="#f9f9f9"/>
  <rect x="118" y="17" width="1" height="1" fill="#fafafa"/>
  <rect x="119" y="17" width="1" height="1" fill="#fdfdfde4"/>
</svg>