<svg xmlns="http://www.w3.org/2000/svg" width="50" height="6" viewBox="0 0 50 6" shape-rendering="crispEdges">
  <rect x="0" y="0" width="1" height="6" fill="#bd462c"/>
  <rect x="1" y="0" width="1" height="6" fill="#bb472c"/>
  <rect x="2" y="0" width="1" height="6" fill="#bb492d"/>
  <rect x="3" y="0" width="1" height="6" fill="#b74a2d"/>
  <rect x="4" y="0" width="1" height="6" fill="#b54d30"/>
  <rect x="5" y="0" width="1" height="6" fill="#b24e30"/>
  <rect x="6" y="0" width="1" height="6" fill="#b35233"/>
  <rect x="7" y="0" width="1" height="6" fill="#b05333"/>
  <rect x="8" y="0" width="1" height="6" fill="#ad5435"/>
  <rect x="9" y="0" width="1" height="6" fill="#a95635"/>
  <rect x="10" y="0" width="1" height="6" fill="#aa5937"/>
  <rect x="11" y="0" width="1" height="6" fill="#a75a39"/>
  <rect x="12" y="0" width="1" height="6" fill="#a25c3b"/>
  <rect x="13" y="0" width="1" height="6" fill="#9f5e3b"/>
  <rect x="14" y="0" width="1" height="6" fill="#a0613d"/>
  <rect x="15" y="0" width="1" height="6" fill="#9e623d"/>
  <rect x="16" y="0" width="1" height="6" fill="#9e6441"/>
  <rect x="17" y="0" width="1" height="6" fill="#9c6441"/>
  <rect x="18" y="0" width="1" height="4" fill="#9a6943"/>
  <rect x="19" y="0" width="1" height="6" fill="#956b45"/>
  <rect x="20" y="0" width="1" height="6" fill="#906f48"/>
  <rect x="21" y="0" width="1" height="6" fill="#8c7349"/>
  <rect x="22" y="0" width="1" height="6" fill="#89774e"/>
  <rect x="23" y="0" width="1" height="6" fill="#88784e"/>
  <rect x="24" y="0" width="1" height="6" fill="#897951"/>
  <rect x="25" y="0" width="1" height="6" fill="#877a51"/>
  <rect x="26" y="0" width="1" height="6" fill="#857e55"/>
  <rect x="27" y="0" width="1" height="6" fill="#808057"/>
  <rect x="28" y="0" width="1" height="6" fill="#7d835a"/>
  <rect x="29" y="0" width="1" height="6" fill="#79875b"/>
  <rect x="30" y="0" width="1" height="6" fill="#778c5e"/>
  <rect x="31" y="0" width="1" height="6" fill="#728e5e"/>
  <rect x="32" y="0" width="1" height="6" fill="#6e9161"/>
  <rect x="33" y="0" width="1" height="6" fill="#6b9361"/>
  <rect x="34" y="0" width="1" height="6" fill="#6c9663"/>
  <rect x="35" y="0" width="1" height="6" fill="#689765"/>
  <rect x="36" y="0" width="1" height="6" fill="#669a68"/>
  <rect x="37" y="0" width="1" height="6" fill="#659a68"/>
  <rect x="38" y="0" width="1" height="6" fill="#669e6b"/>
  <rect x="39" y="0" width="1" height="6" fill="#61a06b"/>
  <rect x="40" y="0" width="1" height="6" fill="#5da46c"/>
  <rect x="41" y="0" width="1" height="6" fill="#5aa56c"/>
  <rect x="42" y="0" width="1" height="6" fill="#5ba86e"/>
  <rect x="43" y="0" width="1" height="6" fill="#57aa6e"/>
  <rect x="44" y="0" width="1" height="6" fill="#54ab70"/>
  <rect x="45" y="0" width="1" height="6" fill="#53ac70"/>
  <rect x="46" y="0" width="1" height="6" fill="#52ae71"/>
  <rect x="47" y="0" width="1" height="6" fill="#4faf74"/>
  <rect x="48" y="0" width="1" height="6" fill="#50b278"/>
  <rect x="49" y="0" width="1" height="6" fill="#4eb27a"/>
  <rect x="18" y="4" width="1" height="2" fill="#9a6945"/>
</svg>