<svg xmlns="http://www.w3.org/2000/svg" width="28" height="14" viewBox="0 0 28 14" shape-rendering="crispEdges">
  <rect x="0" y="1" width="1" height="1" fill="#7a7a7a27"/>
  <rect x="1" y="1" width="1" height="1" fill="#7474747b"/>
  <rect x="2" y="1" width="1" height="1" fill="#7e7e7e88"/>
  <rect x="3" y="1" width="1" height="1" fill="#78787888"/>
  <rect x="4" y="1" width="4" height="1" fill="#76767688"/>
  <rect x="8" y="1" width="1" height="1" fill="#78787888"/>
  <rect x="9" y="1" width="1" height="1" fill="#7d7d7d88"/>
  <rect x="10" y="1" width="1" height="1" fill="#7070707b"/>
  <rect x="11" y="1" width="1" height="1" fill="#74747427"/>
  <rect x="14" y="1" width="1" height="1" fill="#90909049"/>
  <rect x="15" y="1" width="1" height="1" fill="#8d8c8fe6"/>
  <rect x="16" y="1" width="8" height="1" fill="#8a8c90"/>
  <rect x="24" y="1" width="1" height="1" fill="#8c8b8ee6"/>
  <rect x="25" y="1" width="1" height="1" fill="#88888849"/>
  <rect x="0" y="2" width="1" height="1" fill="#8c8c8c7c"/>
  <rect x="1" y="2" width="1" height="1" fill="#99999975"/>
  <rect x="2" y="2" width="1" height="1" fill="#99999973"/>
  <rect x="3" y="2" width="1" height="1" fill="#a5a5a573"/>
  <rect x="4" y="2" width="4" height="1" fill="#9e9e9e73"/>
  <rect x="8" y="2" width="1" height="1" fill="#a5a5a573"/>
  <rect x="9" y="2" width="1" height="1" fill="#9b9b9b73"/>
  <rect x="10" y="2" width="1" height="1" fill="#9d9d9d75"/>
  <rect x="11" y="2" width="1" height="1" fill="#9393937c"/>
  <rect x="14" y="2" width="1" height="1" fill="#959595ed"/>
  <rect x="15" y="2" width="1" height="1" fill="#929194"/>
  <rect x="16" y="2" width="8" height="1" fill="#a1a3a7"/>
  <rect x="24" y="2" width="1" height="1" fill="#9e9ea0"/>
  <rect x="25" y="2" width="1" height="1" fill="#959595ed"/>
  <rect x="0" y="3" width="1" height="1" fill="#95959575"/>
  <rect x="1" y="3" width="1" height="1" fill="#9b9b9b73"/>
  <rect x="2" y="3" width="1" height="1" fill="#fdfdfd"/>
  <rect x="3" y="3" width="6" height="1" fill="#ffffff"/>
  <rect x="9" y="3" width="1" height="1" fill="#fefefe"/>
  <rect x="10" y="3" width="1" height="1" fill="#a3a3a373"/>
  <rect x="11" y="3" width="1" height="1" fill="#a2a2a275"/>
  <rect x="14" y="3" width="1" height="1" fill="#a7a6a7"/>
  <rect x="15" y="3" width="1" height="1" fill="#aaaaac"/>
  <rect x="16" y="3" width="8" height="1" fill="#ffffff"/>
  <rect x="24" y="3" width="1" height="1" fill="#a1a0a3"/>
  <rect x="25" y="3" width="1" height="5" fill="#9e9e9e"/>
  <rect x="0" y="4" width="1" height="1" fill="#a2a2a273"/>
  <rect x="1" y="4" width="1" height="1" fill="#aaaaaa73"/>
  <rect x="2" y="4" width="1" height="1" fill="#72727288"/>
  <rect x="3" y="4" width="1" height="1" fill="#79797988"/>
  <rect x="4" y="4" width="4" height="1" fill="#72727288"/>
  <rect x="8" y="4" width="1" height="1" fill="#78787888"/>
  <rect x="9" y="4" width="1" height="1" fill="#71717188"/>
  <rect x="10" y="4" width="1" height="1" fill="#a9a9a973"/>
  <rect x="11" y="4" width="1" height="1" fill="#a2a2a273"/>
  <rect x="14" y="4" width="1" height="1" fill="#9e9e9e"/>
  <rect x="15" y="4" width="1" height="1" fill="#9e9ea0"/>
  <rect x="16" y="4" width="8" height="1" fill="#85878b"/>
  <rect x="24" y="4" width="1" height="3" fill="#a09fa2"/>
  <rect x="0" y="5" width="1" height="1" fill="#9a9a9a73"/>
  <rect x="1" y="5" width="1" height="1" fill="#9b9b9b73"/>
  <rect x="2" y="5" width="1" height="1" fill="#a0a0a073"/>
  <rect x="3" y="5" width="1" height="1" fill="#9e9e9e73"/>
  <rect x="4" y="5" width="1" height="1" fill="#9d9d9d73"/>
  <rect x="5" y="5" width="2" height="1" fill="#9c9c9c73"/>
  <rect x="7" y="5" width="1" height="1" fill="#a0a0a073"/>
  <rect x="8" y="5" width="1" height="1" fill="#a4a4a473"/>
  <rect x="9" y="5" width="1" height="1" fill="#a7a6a773"/>
  <rect x="10" y="5" width="1" height="1" fill="#a2a2a273"/>
  <rect x="11" y="5" width="1" height="1" fill="#a0a0a073"/>
  <rect x="14" y="5" width="1" height="2" fill="#9d9d9d"/>
  <rect x="15" y="5" width="1" height="2" fill="#9d9d9f"/>
  <rect x="16" y="5" width="8" height="1" fill="#9ea0a4"/>
  <rect x="0" y="6" width="2" height="1" fill="#a3a3a373"/>
  <rect x="2" y="6" width="6" height="1" fill="#ffffff"/>
  <rect x="8" y="6" width="2" height="1" fill="#fafafa"/>
  <rect x="10" y="6" width="2" height="1" fill="#9e9e9e73"/>
  <rect x="16" y="6" width="8" height="1" fill="#fcfeff"/>
  <rect x="0" y="7" width="1" height="1" fill="#a3a3a373"/>
  <rect x="1" y="7" width="1" height="1" fill="#9a9a9a73"/>
  <rect x="2" y="7" width="1" height="1" fill="#72727288"/>
  <rect x="3" y="7" width="1" height="1" fill="#6a6a6a88"/>
  <rect x="4" y="7" width="4" height="1" fill="#6f6f6f88"/>
  <rect x="8" y="7" width="1" height="1" fill="#6a6a6a88"/>
  <rect x="9" y="7" width="1" height="1" fill="#72727288"/>
  <rect x="10" y="7" width="1" height="1" fill="#9b9b9b73"/>
  <rect x="11" y="7" width="1" height="1" fill="#a2a2a273"/>
  <rect x="14" y="7" width="1" height="2" fill="#9c9c9c"/>
  <rect x="15" y="7" width="1" height="1" fill="#9b9b9b"/>
  <rect x="16" y="7" width="1" height="1" fill="#838587"/>
  <rect x="17" y="7" width="6" height="1" fill="#838589"/>
  <rect x="23" y="7" width="1" height="1" fill="#838587"/>
  <rect x="24" y="7" width="1" height="1" fill="#a0a0a0"/>
  <rect x="0" y="8" width="1" height="1" fill="#9b9b9b73"/>
  <rect x="1" y="8" width="1" height="1" fill="#9c9c9c73"/>
  <rect x="2" y="8" width="1" height="1" fill="#99999973"/>
  <rect x="3" y="8" width="1" height="1" fill="#9b9b9b73"/>
  <rect x="4" y="8" width="3" height="1" fill="#9c9c9c73"/>
  <rect x="7" y="8" width="3" height="1" fill="#9d9d9d73"/>
  <rect x="10" y="8" width="1" height="1" fill="#a1a1a173"/>
  <rect x="11" y="8" width="1" height="1" fill="#a0a0a073"/>
  <rect x="15" y="8" width="1" height="1" fill="#9a9a9a"/>
  <rect x="16" y="8" width="1" height="1" fill="#9c9c9c"/>
  <rect x="17" y="8" width="6" height="1" fill="#9c9c9e"/>
  <rect x="23" y="8" width="1" height="1" fill="#9c9c9c"/>
  <rect x="24" y="8" width="1" height="4" fill="#9a9a9a"/>
  <rect x="25" y="8" width="1" height="4" fill="#9b9b9b"/>
  <rect x="0" y="9" width="1" height="1" fill="#92929273"/>
  <rect x="1" y="9" width="1" height="1" fill="#90909073"/>
  <rect x="2" y="9" width="8" height="1" fill="#ffffff"/>
  <rect x="10" y="9" width="1" height="1" fill="#95959573"/>
  <rect x="11" y="9" width="1" height="1" fill="#96969673"/>
  <rect x="14" y="9" width="1" height="3" fill="#9b9b9b"/>
  <rect x="15" y="9" width="1" height="4" fill="#999999"/>
  <rect x="16" y="9" width="8" height="1" fill="#fefefe"/>
  <rect x="0" y="10" width="2" height="1" fill="#9a9a9a73"/>
  <rect x="10" y="10" width="1" height="1" fill="#9a9a9a73"/>
  <rect x="11" y="10" width="1" height="1" fill="#9b9b9b73"/>
  <rect x="0" y="11" width="1" height="1" fill="#ababab81"/>
  <rect x="1" y="11" width="1" height="1" fill="#a5a5a573"/>
  <rect x="2" y="11" width="1" height="1" fill="#74747488"/>
  <rect x="3" y="11" width="1" height="1" fill="#6f6f6f88"/>
  <rect x="4" y="11" width="4" height="1" fill="#70707088"/>
  <rect x="8" y="11" width="1" height="1" fill="#69696988"/>
  <rect x="9" y="11" width="1" height="1" fill="#6f6f6f88"/>
  <rect x="10" y="11" width="1" height="1" fill="#a0a0a073"/>
  <rect x="11" y="11" width="1" height="1" fill="#a5a5a580"/>
  <rect x="16" y="11" width="8" height="1" fill="#818181"/>
  <rect x="0" y="12" width="1" height="1" fill="#e9e9e9c5"/>
  <rect x="1" y="12" width="1" height="1" fill="#b2b2b280"/>
  <rect x="2" y="12" width="1" height="1" fill="#90909073"/>
  <rect x="3" y="12" width="1" height="1" fill="#95959573"/>
  <rect x="4" y="12" width="4" height="1" fill="#96969673"/>
  <rect x="8" y="12" width="1" height="1" fill="#9b9b9b73"/>
  <rect x="9" y="12" width="1" height="1" fill="#96969673"/>
  <rect x="10" y="12" width="1" height="1" fill="#b9b9b982"/>
  <rect x="11" y="12" width="1" height="1" fill="#f0f0f0c6"/>
  <rect x="14" y="12" width="1" height="1" fill="#dddddded"/>
  <rect x="16" y="12" width="8" height="1" fill="#9a9a9a"/>
  <rect x="24" y="12" width="1" height="1" fill="#a2a2a2"/>
  <rect x="25" y="12" width="1" height="1" fill="#dcdcdcee"/>
  <rect x="0" y="13" width="1" height="1" fill="#fafafa4a"/>
  <rect x="1" y="13" width="1" height="1" fill="#f7f7f7e7"/>
  <rect x="2" y="13" width="1" height="1" fill="#f8f8f8"/>
  <rect x="3" y="13" width="1" height="1" fill="#fefefe"/>
  <rect x="4" y="13" width="5" height="1" fill="#ffffff"/>
  <rect x="9" y="13" width="1" height="1" fill="#fdfdfd"/>
  <rect x="10" y="13" width="1" height="1" fill="#fcfbfce4"/>
  <rect x="11" y="13" width="1" height="1" fill="#ffffff4a"/>
  <rect x="14" y="13" width="1" height="1" fill="#ffffff4a"/>
  <rect x="15" y="13" width="1" height="1" fill="#ffffffe7"/>
  <rect x="16" y="13" width="8" height="1" fill="#fefefe"/>
  <rect x="24" y="13" width="1" height="1" fill="#ffffffe4"/>
  <rect x="25" y="13" width="1" height="1" fill="#ffffff4a"/>
</svg>