<svg xmlns="http://www.w3.org/2000/svg" width="36" height="7" viewBox="0 0 36 7" shape-rendering="crispEdges">
  <rect x="1" y="1" width="1" height="1" fill="#7a7a7a"/>
  <rect x="2" y="1" width="1" height="1" fill="#737373"/>
  <rect x="3" y="1" width="1" height="1" fill="#727272"/>
  <rect x="4" y="1" width="1" height="1" fill="#747474"/>
  <rect x="5" y="1" width="1" height="1" fill="#767676"/>
  <rect x="6" y="1" width="1" height="1" fill="#747474"/>
  <rect x="7" y="1" width="1" height="1" fill="#737373"/>
  <rect x="10" y="1" width="1" height="1" fill="#545454"/>
  <rect x="11" y="1" width="1" height="1" fill="#525152"/>
  <rect x="12" y="1" width="1" height="1" fill="#4f4f4f"/>
  <rect x="13" y="1" width="1" height="1" fill="#4d4d4d"/>
  <rect x="14" y="1" width="2" height="1" fill="#4c4c4c"/>
  <rect x="16" y="1" width="1" height="1" fill="#4e4e4e"/>
  <rect x="28" y="1" width="1" height="1" fill="#7a7a7a"/>
  <rect x="29" y="1" width="1" height="1" fill="#787878"/>
  <rect x="30" y="1" width="1" height="1" fill="#777777"/>
  <rect x="31" y="1" width="1" height="1" fill="#767676"/>
  <rect x="32" y="1" width="1" height="1" fill="#7a7a7a"/>
  <rect x="33" y="1" width="1" height="1" fill="#787878"/>
  <rect x="34" y="1" width="1" height="1" fill="#737373"/>
  <rect x="2" y="2" width="1" height="1" fill="#858585"/>
  <rect x="3" y="2" width="1" height="1" fill="#878787"/>
  <rect x="4" y="2" width="1" height="1" fill="#8b8b8b"/>
  <rect x="5" y="2" width="1" height="1" fill="#898989"/>
  <rect x="6" y="2" width="1" height="1" fill="#828282"/>
  <rect x="11" y="2" width="4" height="1" fill="#555555"/>
  <rect x="15" y="2" width="1" height="1" fill="#545454"/>
  <rect x="19" y="2" width="1" height="1" fill="#4e4e4e"/>
  <rect x="20" y="2" width="1" height="1" fill="#4c4c4c"/>
  <rect x="21" y="2" width="3" height="1" fill="#4b4b4b"/>
  <rect x="24" y="2" width="1" height="1" fill="#4c4c4c"/>
  <rect x="25" y="2" width="1" height="1" fill="#464646"/>
  <rect x="29" y="2" width="1" height="1" fill="#7d7d7d"/>
  <rect x="30" y="2" width="1" height="1" fill="#828282"/>
  <rect x="31" y="2" width="1" height="1" fill="#858585"/>
  <rect x="32" y="2" width="1" height="1" fill="#828282"/>
  <rect x="33" y="2" width="1" height="1" fill="#858585"/>
  <rect x="3" y="3" width="1" height="1" fill="#969696"/>
  <rect x="4" y="3" width="1" height="1" fill="#9a9a9a"/>
  <rect x="5" y="3" width="1" height="1" fill="#929292"/>
  <rect x="12" y="3" width="3" height="1" fill="#646464"/>
  <rect x="20" y="3" width="1" height="1" fill="#555555"/>
  <rect x="21" y="3" width="3" height="1" fill="#565656"/>
  <rect x="24" y="3" width="1" height="1" fill="#5a5a5a"/>
  <rect x="30" y="3" width="1" height="1" fill="#959595"/>
  <rect x="31" y="3" width="1" height="1" fill="#a2a2a2"/>
  <rect x="32" y="3" width="1" height="1" fill="#959595"/>
  <rect x="4" y="4" width="1" height="1" fill="#a0a0a0"/>
  <rect x="13" y="4" width="1" height="1" fill="#747474"/>
  <rect x="21" y="4" width="1" height="1" fill="#6d6d6d"/>
  <rect x="22" y="4" width="1" height="1" fill="#5c5c5c"/>
  <rect x="23" y="4" width="1" height="1" fill="#5f5f5f"/>
  <rect x="31" y="4" width="1" height="1" fill="#a3a3a3"/>
  <rect x="22" y="5" width="1" height="1" fill="#6d6d6d"/>
</svg>