<svg xmlns="http://www.w3.org/2000/svg" width="275" height="190" viewBox="0 0 275 190" shape-rendering="crispEdges">
  <rect x="0" y="0" width="1" height="1" fill="#fdfdfd3a"/>
  <rect x="1" y="0" width="2" height="1" fill="#cbcbcb"/>
  <rect x="3" y="0" width="1" height="1" fill="#d2d2d2"/>
  <rect x="4" y="0" width="267" height="1" fill="#c8c8c8"/>
  <rect x="271" y="0" width="3" height="1" fill="#c9c9c9"/>
  <rect x="274" y="0" width="1" height="1" fill="#cdcdcd"/>
  <rect x="0" y="1" width="1" height="2" fill="#cbcbcb"/>
  <rect x="1" y="1" width="1" height="1" fill="#fafafa"/>
  <rect x="2" y="1" width="1" height="1" fill="#fdfdfd"/>
  <rect x="3" y="1" width="1" height="1" fill="#ffffff"/>
  <rect x="4" y="1" width="268" height="1" fill="#fefefe"/>
  <rect x="272" y="1" width="2" height="1" fill="#ffffff"/>
  <rect x="274" y="1" width="1" height="1" fill="#cbcbcb"/>
  <rect x="1" y="2" width="1" height="1" fill="#fdfdfd"/>
  <rect x="2" y="2" width="1" height="1" fill="#f2f2f2"/>
  <rect x="3" y="2" width="269" height="1" fill="#ffffff"/>
  <rect x="272" y="2" width="1" height="1" fill="#fafafa"/>
  <rect x="273" y="2" width="1" height="1" fill="#ffffff"/>
  <rect x="274" y="2" width="1" height="1" fill="#c7c7c7"/>
  <rect x="0" y="3" width="1" height="1" fill="#d2d2d2"/>
  <rect x="1" y="3" width="2" height="1" fill="#ffffff"/>
  <rect x="3" y="3" width="1" height="1" fill="#fefefe"/>
  <rect x="4" y="3" width="270" height="1" fill="#ffffff"/>
  <rect x="274" y="3" width="1" height="1" fill="#c9c9c9"/>
  <rect x="0" y="4" width="1" height="156" fill="#c8c8c8"/>
  <rect x="1" y="4" width="1" height="156" fill="#fefefe"/>
  <rect x="2" y="4" width="270" height="3" fill="#ffffff"/>
  <rect x="272" y="4" width="1" height="8" fill="#fefefe"/>
  <rect x="273" y="4" width="1" height="8" fill="#ffffff"/>
  <rect x="274" y="4" width="1" height="8" fill="#cbcbcb"/>
  <rect x="2" y="7" width="5" height="2" fill="#ffffff"/>
  <rect x="7" y="7" width="1" height="2" fill="#fefefe"/>
  <rect x="8" y="7" width="2" height="1" fill="#ffffff"/>
  <rect x="10" y="7" width="1" height="1" fill="#fefefe"/>
  <rect x="11" y="7" width="100" height="1" fill="#ffffff"/>
  <rect x="111" y="7" width="1" height="2" fill="#fefefe"/>
  <rect x="112" y="7" width="160" height="4" fill="#ffffff"/>
  <rect x="8" y="8" width="3" height="1" fill="#ffffff"/>
  <rect x="11" y="8" width="1" height="1" fill="#fafafa"/>
  <rect x="12" y="8" width="1" height="1" fill="#fcfbfc"/>
  <rect x="13" y="8" width="1" height="1" fill="#fafafa"/>
  <rect x="14" y="8" width="1" height="1" fill="#ffffff"/>
  <rect x="15" y="8" width="1" height="2" fill="#fafafa"/>
  <rect x="16" y="8" width="92" height="1" fill="#fcfbfc"/>
  <rect x="108" y="8" width="3" height="1" fill="#ffffff"/>
  <rect x="2" y="9" width="13" height="1" fill="#ffffff"/>
  <rect x="16" y="9" width="92" height="1" fill="#ffffff"/>
  <rect x="108" y="9" width="1" height="1" fill="#f9f9f9"/>
  <rect x="109" y="9" width="2" height="1" fill="#ffffff"/>
  <rect x="111" y="9" width="1" height="1" fill="#fdfdfd"/>
  <rect x="2" y="10" width="9" height="1" fill="#ffffff"/>
  <rect x="11" y="10" width="1" height="1" fill="#f8f8f8"/>
  <rect x="12" y="10" width="1" height="1" fill="#d4d4d4"/>
  <rect x="13" y="10" width="1" height="1" fill="#bababa"/>
  <rect x="14" y="10" width="1" height="1" fill="#c9c9c9"/>
  <rect x="15" y="10" width="1" height="1" fill="#bebebe"/>
  <rect x="16" y="10" width="92" height="1" fill="#c0c0c0"/>
  <rect x="108" y="10" width="1" height="1" fill="#bbbbbb"/>
  <rect x="109" y="10" width="1" height="1" fill="#dadada"/>
  <rect x="110" y="10" width="1" height="1" fill="#ffffff"/>
  <rect x="111" y="10" width="1" height="1" fill="#fefefe"/>
  <rect x="2" y="11" width="6" height="4" fill="#ffffff"/>
  <rect x="8" y="11" width="1" height="1" fill="#f8f8f8"/>
  <rect x="9" y="11" width="1" height="2" fill="#ffffff"/>
  <rect x="10" y="11" width="1" height="1" fill="#fafafa"/>
  <rect x="11" y="11" width="1" height="1" fill="#cfcfcf"/>
  <rect x="12" y="11" width="1" height="1" fill="#b2b2b2"/>
  <rect x="13" y="11" width="1" height="1" fill="#ffffff"/>
  <rect x="14" y="11" width="1" height="1" fill="#fefefe"/>
  <rect x="15" y="11" width="93" height="1" fill="#ffffff"/>
  <rect x="108" y="11" width="1" height="1" fill="#f9f9f9"/>
  <rect x="109" y="11" width="1" height="1" fill="#b2b2b2"/>
  <rect x="110" y="11" width="1" height="1" fill="#d9d9d9"/>
  <rect x="111" y="11" width="161" height="1" fill="#ffffff"/>
  <rect x="8" y="12" width="1" height="1" fill="#f9f9f9"/>
  <rect x="10" y="12" width="1" height="1" fill="#fcfbfc"/>
  <rect x="11" y="12" width="1" height="1" fill="#c1c1c1"/>
  <rect x="12" y="12" width="97" height="96" fill="#ffffff"/>
  <rect x="109" y="12" width="1" height="96" fill="#fefefe"/>
  <rect x="110" y="12" width="1" height="96" fill="#c2c2c2"/>
  <rect x="111" y="12" width="163" height="4" fill="#ffffff"/>
  <rect x="274" y="12" width="1" height="4" fill="#cccccc"/>
  <rect x="8" y="13" width="1" height="2" fill="#fefefe"/>
  <rect x="9" y="13" width="1" height="1" fill="#fcfbfc"/>
  <rect x="10" y="13" width="1" height="1" fill="#fefefe"/>
  <rect x="11" y="13" width="1" height="2" fill="#c0c0c0"/>
  <rect x="9" y="14" width="2" height="4" fill="#fdfdfd"/>
  <rect x="2" y="15" width="7" height="91" fill="#ffffff"/>
  <rect x="11" y="15" width="1" height="2" fill="#bfbfbf"/>
  <rect x="111" y="16" width="161" height="92" fill="#ffffff"/>
  <rect x="272" y="16" width="1" height="144" fill="#fefefe"/>
  <rect x="273" y="16" width="1" height="144" fill="#ffffff"/>
  <rect x="274" y="16" width="1" height="144" fill="#cbcbcb"/>
  <rect x="11" y="17" width="1" height="2" fill="#bebebe"/>
  <rect x="9" y="18" width="1" height="88" fill="#fefefe"/>
  <rect x="10" y="18" width="1" height="90" fill="#fcfbfc"/>
  <rect x="11" y="19" width="1" height="89" fill="#bdbdbd"/>
  <rect x="2" y="106" width="8" height="4" fill="#ffffff"/>
  <rect x="10" y="108" width="1" height="1" fill="#fdfdfd"/>
  <rect x="11" y="108" width="1" height="1" fill="#dcdcdc"/>
  <rect x="12" y="108" width="1" height="1" fill="#c0c0c0"/>
  <rect x="13" y="108" width="1" height="1" fill="#f8f8f8"/>
  <rect x="14" y="108" width="1" height="1" fill="#ffffff"/>
  <rect x="15" y="108" width="1" height="1" fill="#fdfdfd"/>
  <rect x="16" y="108" width="93" height="1" fill="#ffffff"/>
  <rect x="109" y="108" width="1" height="1" fill="#bebebe"/>
  <rect x="110" y="108" width="1" height="1" fill="#dcdcdc"/>
  <rect x="111" y="108" width="1" height="1" fill="#fcfbfc"/>
  <rect x="112" y="108" width="160" height="1" fill="#ffffff"/>
  <rect x="10" y="109" width="1" height="1" fill="#fefefe"/>
  <rect x="11" y="109" width="1" height="1" fill="#ececec"/>
  <rect x="12" y="109" width="1" height="1" fill="#dddddd"/>
  <rect x="13" y="109" width="1" height="1" fill="#b4b4b4"/>
  <rect x="14" y="109" width="1" height="1" fill="#c0c0c0"/>
  <rect x="15" y="109" width="1" height="1" fill="#b9b9b9"/>
  <rect x="16" y="109" width="92" height="1" fill="#bdbdbd"/>
  <rect x="108" y="109" width="1" height="1" fill="#c0c0c0"/>
  <rect x="109" y="109" width="1" height="1" fill="#dadada"/>
  <rect x="110" y="109" width="162" height="1" fill="#ffffff"/>
  <rect x="2" y="110" width="9" height="2" fill="#ffffff"/>
  <rect x="11" y="110" width="1" height="2" fill="#fdfdfd"/>
  <rect x="12" y="110" width="1" height="1" fill="#f2f2f2"/>
  <rect x="13" y="110" width="1" height="1" fill="#fefefe"/>
  <rect x="14" y="110" width="1" height="1" fill="#ffffff"/>
  <rect x="15" y="110" width="1" height="1" fill="#fafafa"/>
  <rect x="16" y="110" width="92" height="1" fill="#fefefe"/>
  <rect x="108" y="110" width="1" height="2" fill="#fafafa"/>
  <rect x="109" y="110" width="1" height="1" fill="#ffffff"/>
  <rect x="110" y="110" width="1" height="1" fill="#fefefe"/>
  <rect x="111" y="110" width="161" height="1" fill="#ffffff"/>
  <rect x="12" y="111" width="1" height="1" fill="#fafafa"/>
  <rect x="13" y="111" width="95" height="1" fill="#ffffff"/>
  <rect x="109" y="111" width="2" height="1" fill="#ffffff"/>
  <rect x="111" y="111" width="1" height="1" fill="#fdfdfd"/>
  <rect x="112" y="111" width="160" height="1" fill="#ffffff"/>
  <rect x="2" y="112" width="10" height="4" fill="#ffffff"/>
  <rect x="12" y="112" width="20" height="1" fill="#fefefe"/>
  <rect x="32" y="112" width="240" height="1" fill="#ffffff"/>
  <rect x="12" y="113" width="100" height="3" fill="#fefefe"/>
  <rect x="112" y="113" width="160" height="3" fill="#ffffff"/>
  <rect x="2" y="116" width="270" height="44" fill="#ffffff"/>
  <rect x="0" y="160" width="1" height="1" fill="#d4d4d4"/>
  <rect x="1" y="160" width="1" height="2" fill="#fcfbfc"/>
  <rect x="2" y="160" width="5" height="1" fill="#ffffff"/>
  <rect x="7" y="160" width="1" height="1" fill="#fefefe"/>
  <rect x="8" y="160" width="1" height="1" fill="#fdfdfd"/>
  <rect x="9" y="160" width="7" height="1" fill="#fcfbfc"/>
  <rect x="16" y="160" width="256" height="1" fill="#fdfdfd"/>
  <rect x="272" y="160" width="2" height="1" fill="#ffffff"/>
  <rect x="274" y="160" width="1" height="1" fill="#cecece"/>
  <rect x="0" y="161" width="1" height="1" fill="#cfcfcf"/>
  <rect x="2" y="161" width="1" height="2" fill="#fefefe"/>
  <rect x="3" y="161" width="1" height="1" fill="#fcfbfc"/>
  <rect x="4" y="161" width="4" height="1" fill="#ffffff"/>
  <rect x="8" y="161" width="1" height="1" fill="#fefefe"/>
  <rect x="9" y="161" width="7" height="1" fill="#fdfdfd"/>
  <rect x="16" y="161" width="256" height="1" fill="#fefefe"/>
  <rect x="272" y="161" width="1" height="1" fill="#ffffff"/>
  <rect x="273" y="161" width="1" height="1" fill="#fefefe"/>
  <rect x="274" y="161" width="1" height="1" fill="#c2c2c2"/>
  <rect x="0" y="162" width="1" height="1" fill="#c7c7c7"/>
  <rect x="1" y="162" width="1" height="1" fill="#ffffff"/>
  <rect x="3" y="162" width="6" height="1" fill="#ffffff"/>
  <rect x="9" y="162" width="7" height="1" fill="#fefefe"/>
  <rect x="16" y="162" width="257" height="1" fill="#ffffff"/>
  <rect x="273" y="162" width="1" height="1" fill="#fcfbfc"/>
  <rect x="274" y="162" width="1" height="1" fill="#c5c5c5"/>
  <rect x="0" y="163" width="1" height="1" fill="#c8c8c8"/>
  <rect x="1" y="163" width="1" height="1" fill="#f8f8f8"/>
  <rect x="2" y="163" width="1" height="1" fill="#dbdbdb"/>
  <rect x="3" y="163" width="1" height="1" fill="#dcdcdc"/>
  <rect x="4" y="163" width="3" height="1" fill="#dddddd"/>
  <rect x="7" y="163" width="1" height="1" fill="#dcdcdc"/>
  <rect x="8" y="163" width="1" height="1" fill="#dbdbdb"/>
  <rect x="9" y="163" width="7" height="1" fill="#dadada"/>
  <rect x="16" y="163" width="256" height="1" fill="#dbdbdb"/>
  <rect x="272" y="163" width="1" height="1" fill="#e1e1e1"/>
  <rect x="273" y="163" width="1" height="1" fill="#fefefe"/>
  <rect x="274" y="163" width="1" height="1" fill="#d5d5d5"/>
  <rect x="0" y="164" width="1" height="24" fill="#c9c9c9"/>
  <rect x="1" y="164" width="1" height="24" fill="#ffffff"/>
  <rect x="2" y="164" width="1" height="24" fill="#fdfdfd"/>
  <rect x="3" y="164" width="1" height="24" fill="#fcfbfc"/>
  <rect x="4" y="164" width="268" height="25" fill="#ffffff"/>
  <rect x="272" y="164" width="1" height="24" fill="#fefefe"/>
  <rect x="273" y="164" width="1" height="24" fill="#ffffff"/>
  <rect x="274" y="164" width="1" height="24" fill="#cbcbcb"/>
  <rect x="0" y="188" width="1" height="1" fill="#cdcdcd"/>
  <rect x="1" y="188" width="2" height="1" fill="#ffffff"/>
  <rect x="3" y="188" width="1" height="1" fill="#f9f9f9"/>
  <rect x="272" y="188" width="2" height="1" fill="#fcfbfc"/>
  <rect x="274" y="188" width="1" height="1" fill="#d0d0d0"/>
  <rect x="0" y="189" width="1" height="1" fill="#ffffff3a"/>
  <rect x="1" y="189" width="1" height="1" fill="#d0d0d0"/>
  <rect x="2" y="189" width="1" height="1" fill="#cdcdcd"/>
  <rect x="3" y="189" width="1" height="1" fill="#c7c7c7"/>
  <rect x="4" y="189" width="10" height="1" fill="#cbcbcb"/>
  <rect x="14" y="189" width="4" height="1" fill="#cccccc"/>
  <rect x="18" y="189" width="254" height="1" fill="#cdcdcd"/>
  <rect x="272" y="189" width="1" height="1" fill="#cbcbcb"/>
  <rect x="273" y="189" width="1" height="1" fill="#c7c7c7"/>
  <rect x="274" y="189" width="1" height="1" fill="#ffffff3a"/>
</svg>