<svg xmlns="http://www.w3.org/2000/svg" width="112" height="16" viewBox="0 0 112 16" shape-rendering="crispEdges">
  <rect x="76" y="0" width="1" height="1" fill="#d676175c"/>
  <rect x="77" y="0" width="1" height="1" fill="#d375133f"/>
  <rect x="73" y="1" width="1" height="1" fill="#d8741f6c"/>
  <rect x="74" y="1" width="1" height="1" fill="#de7f2955"/>
  <rect x="75" y="1" width="1" height="1" fill="#d2771f11"/>
  <rect x="76" y="1" width="1" height="1" fill="#d17c20e9"/>
  <rect x="77" y="1" width="1" height="1" fill="#c47416d6"/>
  <rect x="79" y="1" width="1" height="1" fill="#cc7d1a37"/>
  <rect x="80" y="1" width="1" height="1" fill="#d37b1279"/>
  <rect x="4" y="2" width="1" height="1" fill="#90a9d523"/>
  <rect x="5" y="2" width="1" height="1" fill="#95acd4ab"/>
  <rect x="6" y="2" width="1" height="1" fill="#94adc9f0"/>
  <rect x="7" y="2" width="1" height="1" fill="#8fa8c4f2"/>
  <rect x="8" y="2" width="1" height="1" fill="#8fa6d1b2"/>
  <rect x="9" y="2" width="1" height="1" fill="#8daad92a"/>
  <rect x="18" y="2" width="1" height="1" fill="#78a1d723"/>
  <rect x="19" y="2" width="1" height="1" fill="#78a1d7ac"/>
  <rect x="20" y="2" width="1" height="1" fill="#78a1d7f0"/>
  <rect x="21" y="2" width="1" height="1" fill="#78a1d7f2"/>
  <rect x="22" y="2" width="1" height="1" fill="#78a1d7b1"/>
  <rect x="23" y="2" width="1" height="1" fill="#79a0d72a"/>
  <rect x="32" y="2" width="1" height="1" fill="#e5b85521"/>
  <rect x="33" y="2" width="1" height="1" fill="#e5b855a7"/>
  <rect x="34" y="2" width="1" height="1" fill="#e5b855f2"/>
  <rect x="35" y="2" width="1" height="1" fill="#e5b855ec"/>
  <rect x="36" y="2" width="1" height="1" fill="#e5b855aa"/>
  <rect x="37" y="2" width="1" height="1" fill="#e5b85525"/>
  <rect x="46" y="2" width="1" height="1" fill="#e9b34f23"/>
  <rect x="47" y="2" width="1" height="1" fill="#e9b34faa"/>
  <rect x="48" y="2" width="1" height="1" fill="#e9b34ff3"/>
  <rect x="49" y="2" width="1" height="1" fill="#e9b34feb"/>
  <rect x="50" y="2" width="1" height="1" fill="#e9b34fa8"/>
  <rect x="51" y="2" width="1" height="1" fill="#e9b34f24"/>
  <rect x="60" y="2" width="1" height="1" fill="#4b9ca324"/>
  <rect x="61" y="2" width="1" height="1" fill="#4b9ca3a8"/>
  <rect x="62" y="2" width="1" height="1" fill="#4b9ca3f2"/>
  <rect x="63" y="2" width="1" height="1" fill="#4a9da1ec"/>
  <rect x="64" y="2" width="1" height="1" fill="#499d9ea9"/>
  <rect x="65" y="2" width="1" height="1" fill="#449f9c24"/>
  <rect x="73" y="2" width="1" height="1" fill="#d47924e2"/>
  <rect x="74" y="2" width="1" height="1" fill="#ffca77fe"/>
  <rect x="75" y="2" width="1" height="1" fill="#eda24ef7"/>
  <rect x="76" y="2" width="1" height="1" fill="#ffc877"/>
  <rect x="77" y="2" width="1" height="1" fill="#fac070"/>
  <rect x="78" y="2" width="1" height="1" fill="#daa759ed"/>
  <rect x="79" y="2" width="1" height="1" fill="#ffd57efc"/>
  <rect x="80" y="2" width="1" height="1" fill="#d37a16eb"/>
  <rect x="89" y="2" width="1" height="1" fill="#7d6bac56"/>
  <rect x="90" y="2" width="1" height="1" fill="#7d6bacd4"/>
  <rect x="91" y="2" width="1" height="1" fill="#7b6cacf9"/>
  <rect x="92" y="2" width="1" height="1" fill="#7b6cacd4"/>
  <rect x="93" y="2" width="1" height="1" fill="#7b6cac56"/>
  <rect x="103" y="2" width="1" height="1" fill="#47493f56"/>
  <rect x="104" y="2" width="1" height="1" fill="#474843d4"/>
  <rect x="105" y="2" width="1" height="1" fill="#474745f9"/>
  <rect x="106" y="2" width="1" height="1" fill="#454845d4"/>
  <rect x="107" y="2" width="1" height="1" fill="#45484556"/>
  <rect x="3" y="3" width="1" height="1" fill="#8bade521"/>
  <rect x="4" y="3" width="1" height="1" fill="#83a2d5f0"/>
  <rect x="5" y="3" width="1" height="1" fill="#bdd8ff"/>
  <rect x="6" y="3" width="1" height="1" fill="#e2fcff"/>
  <rect x="7" y="3" width="1" height="1" fill="#ddf7ff"/>
  <rect x="8" y="3" width="1" height="1" fill="#b1c9fa"/>
  <rect x="9" y="3" width="1" height="1" fill="#89a6e1f2"/>
  <rect x="10" y="3" width="1" height="1" fill="#77a1e32b"/>
  <rect x="17" y="3" width="1" height="1" fill="#6da3ec22"/>
  <rect x="18" y="3" width="1" height="1" fill="#6da3ecec"/>
  <rect x="19" y="3" width="4" height="1" fill="#6da3ec"/>
  <rect x="23" y="3" width="1" height="1" fill="#6ea2ecf0"/>
  <rect x="24" y="3" width="1" height="1" fill="#7ca9f52a"/>
  <rect x="31" y="3" width="1" height="1" fill="#eeb12d1e"/>
  <rect x="32" y="3" width="1" height="1" fill="#f4b733e9"/>
  <rect x="33" y="3" width="4" height="1" fill="#f4b733"/>
  <rect x="37" y="3" width="1" height="1" fill="#f4b733ec"/>
  <rect x="38" y="3" width="1" height="1" fill="#f4b73329"/>
  <rect x="45" y="3" width="1" height="1" fill="#f9b22d22"/>
  <rect x="46" y="3" width="1" height="1" fill="#f9b22deb"/>
  <rect x="47" y="3" width="4" height="1" fill="#f9b22d"/>
  <rect x="51" y="3" width="1" height="1" fill="#f9b22de9"/>
  <rect x="52" y="3" width="1" height="1" fill="#f9b22d24"/>
  <rect x="59" y="3" width="1" height="1" fill="#37a3ac1f"/>
  <rect x="60" y="3" width="1" height="1" fill="#38a4adec"/>
  <rect x="61" y="3" width="2" height="1" fill="#38a4ad"/>
  <rect x="63" y="3" width="1" height="1" fill="#37a5ab"/>
  <rect x="64" y="3" width="1" height="1" fill="#34a5a8"/>
  <rect x="65" y="3" width="1" height="1" fill="#31a8a4eb"/>
  <rect x="66" y="3" width="1" height="1" fill="#2bada124"/>
  <rect x="73" y="3" width="1" height="1" fill="#c47b26"/>
  <rect x="74" y="3" width="1" height="1" fill="#ffc974"/>
  <rect x="75" y="3" width="1" height="1" fill="#ffd47e"/>
  <rect x="76" y="3" width="1" height="1" fill="#f8c874"/>
  <rect x="77" y="3" width="1" height="1" fill="#f2c975"/>
  <rect x="78" y="3" width="1" height="1" fill="#ffe692"/>
  <rect x="79" y="3" width="1" height="1" fill="#ffd97f"/>
  <rect x="80" y="3" width="1" height="1" fill="#c97e1c"/>
  <rect x="88" y="3" width="1" height="1" fill="#7e67bf54"/>
  <rect x="89" y="3" width="3" height="1" fill="#7e67bf"/>
  <rect x="92" y="3" width="2" height="1" fill="#7d68bf"/>
  <rect x="94" y="3" width="1" height="1" fill="#7d68bf56"/>
  <rect x="102" y="3" width="1" height="1" fill="#47484154"/>
  <rect x="103" y="3" width="1" height="1" fill="#47493f"/>
  <rect x="104" y="3" width="1" height="1" fill="#474843"/>
  <rect x="105" y="3" width="1" height="1" fill="#474745"/>
  <rect x="106" y="3" width="2" height="1" fill="#454845"/>
  <rect x="108" y="3" width="1" height="1" fill="#45484556"/>
  <rect x="2" y="4" width="1" height="1" fill="#83a1e44d"/>
  <rect x="3" y="4" width="1" height="1" fill="#8da8e1f0"/>
  <rect x="4" y="4" width="1" height="1" fill="#b5ccf4"/>
  <rect x="5" y="4" width="1" height="1" fill="#e9fbff"/>
  <rect x="6" y="4" width="1" height="1" fill="#e9f7ff"/>
  <rect x="7" y="4" width="1" height="1" fill="#f7ffff"/>
  <rect x="8" y="4" width="1" height="1" fill="#f0faff"/>
  <rect x="9" y="4" width="1" height="1" fill="#9eafe2"/>
  <rect x="10" y="4" width="1" height="1" fill="#89a7e8e9"/>
  <rect x="11" y="4" width="1" height="1" fill="#729ae530"/>
  <rect x="16" y="4" width="1" height="1" fill="#73a1ed2a"/>
  <rect x="17" y="4" width="1" height="1" fill="#71a2efc9"/>
  <rect x="18" y="4" width="6" height="1" fill="#71a2ef"/>
  <rect x="24" y="4" width="1" height="1" fill="#73a1edc5"/>
  <rect x="25" y="4" width="1" height="1" fill="#74a3ee19"/>
  <rect x="30" y="4" width="1" height="1" fill="#eeb42a2a"/>
  <rect x="31" y="4" width="1" height="1" fill="#f4bb33c8"/>
  <rect x="32" y="4" width="6" height="1" fill="#f2b831"/>
  <rect x="38" y="4" width="1" height="1" fill="#f2b92fc3"/>
  <rect x="39" y="4" width="1" height="1" fill="#f4b82f18"/>
  <rect x="44" y="4" width="1" height="1" fill="#f9b42c2e"/>
  <rect x="45" y="4" width="1" height="1" fill="#f9b42ccd"/>
  <rect x="46" y="4" width="6" height="1" fill="#f9b42c"/>
  <rect x="52" y="4" width="1" height="1" fill="#f9b42cbd"/>
  <rect x="53" y="4" width="1" height="1" fill="#f9b42c14"/>
  <rect x="58" y="4" width="1" height="1" fill="#38a4af2a"/>
  <rect x="59" y="4" width="1" height="1" fill="#38a4afca"/>
  <rect x="60" y="4" width="3" height="1" fill="#38a4af"/>
  <rect x="63" y="4" width="1" height="2" fill="#37a4af"/>
  <rect x="64" y="4" width="1" height="1" fill="#33a6ad"/>
  <rect x="65" y="4" width="1" height="1" fill="#33a7ab"/>
  <rect x="66" y="4" width="1" height="1" fill="#37a6a7be"/>
  <rect x="67" y="4" width="1" height="1" fill="#3ba3a714"/>
  <rect x="73" y="4" width="1" height="1" fill="#af842c"/>
  <rect x="74" y="4" width="1" height="1" fill="#b1892e"/>
  <rect x="75" y="4" width="1" height="1" fill="#af8b2a"/>
  <rect x="76" y="4" width="1" height="1" fill="#af8b26"/>
  <rect x="77" y="4" width="1" height="1" fill="#ae8d24"/>
  <rect x="78" y="4" width="1" height="1" fill="#ae8d22"/>
  <rect x="79" y="4" width="1" height="1" fill="#b18b24"/>
  <rect x="80" y="4" width="1" height="1" fill="#b78728"/>
  <rect x="88" y="4" width="1" height="1" fill="#7d65c1d4"/>
  <rect x="89" y="4" width="5" height="1" fill="#8063c3"/>
  <rect x="94" y="4" width="1" height="1" fill="#8063c3d4"/>
  <rect x="102" y="4" width="1" height="1" fill="#474843d4"/>
  <rect x="103" y="4" width="1" height="1" fill="#474843"/>
  <rect x="104" y="4" width="1" height="1" fill="#474745"/>
  <rect x="105" y="4" width="3" height="1" fill="#474747"/>
  <rect x="108" y="4" width="1" height="1" fill="#474747d4"/>
  <rect x="0" y="5" width="1" height="1" fill="#6c98db1f"/>
  <rect x="1" y="5" width="1" height="1" fill="#86adefd0"/>
  <rect x="2" y="5" width="1" height="1" fill="#86a6e9"/>
  <rect x="3" y="5" width="1" height="1" fill="#a4bdf2"/>
  <rect x="4" y="5" width="1" height="1" fill="#e6fbff"/>
  <rect x="5" y="5" width="1" height="1" fill="#edfaff"/>
  <rect x="6" y="5" width="1" height="1" fill="#f2f8ff"/>
  <rect x="7" y="5" width="1" height="1" fill="#f3f7ff"/>
  <rect x="8" y="5" width="1" height="1" fill="#f2f4ff"/>
  <rect x="9" y="5" width="1" height="1" fill="#edf5ff"/>
  <rect x="10" y="5" width="1" height="1" fill="#98b0ee"/>
  <rect x="11" y="5" width="1" height="1" fill="#7da0edfe"/>
  <rect x="12" y="5" width="1" height="1" fill="#76a3f8bb"/>
  <rect x="13" y="5" width="1" height="1" fill="#74a5f612"/>
  <rect x="14" y="5" width="1" height="1" fill="#75a5eb11"/>
  <rect x="15" y="5" width="1" height="1" fill="#76a4e995"/>
  <rect x="16" y="5" width="1" height="1" fill="#75a1f0fb"/>
  <rect x="17" y="5" width="1" height="1" fill="#74a2f2"/>
  <rect x="18" y="5" width="5" height="1" fill="#73a1f1"/>
  <rect x="23" y="5" width="1" height="1" fill="#73a1ef"/>
  <rect x="24" y="5" width="1" height="1" fill="#71a2ed"/>
  <rect x="25" y="5" width="1" height="1" fill="#71a3ebf3"/>
  <rect x="26" y="5" width="1" height="1" fill="#6fa3eb7b"/>
  <rect x="28" y="5" width="1" height="1" fill="#d7b56113"/>
  <rect x="29" y="5" width="1" height="1" fill="#f2b42c95"/>
  <rect x="30" y="5" width="1" height="1" fill="#f3b72efb"/>
  <rect x="31" y="5" width="8" height="1" fill="#f2b92f"/>
  <rect x="39" y="5" width="1" height="1" fill="#f4b82df3"/>
  <rect x="40" y="5" width="1" height="1" fill="#f6b62c7b"/>
  <rect x="42" y="5" width="1" height="1" fill="#f7b52c14"/>
  <rect x="43" y="5" width="1" height="1" fill="#f7b52a95"/>
  <rect x="44" y="5" width="1" height="1" fill="#f7b52afb"/>
  <rect x="45" y="5" width="8" height="1" fill="#f7b52a"/>
  <rect x="53" y="5" width="1" height="1" fill="#f7b52aef"/>
  <rect x="54" y="5" width="1" height="1" fill="#f7b52a73"/>
  <rect x="56" y="5" width="1" height="1" fill="#5b9b8114"/>
  <rect x="57" y="5" width="1" height="1" fill="#38a4af95"/>
  <rect x="58" y="5" width="1" height="1" fill="#38a4affb"/>
  <rect x="59" y="5" width="4" height="1" fill="#38a4af"/>
  <rect x="64" y="5" width="1" height="1" fill="#35a6ad"/>
  <rect x="65" y="5" width="1" height="1" fill="#35a6ab"/>
  <rect x="66" y="5" width="1" height="1" fill="#3aa4a7"/>
  <rect x="67" y="5" width="1" height="1" fill="#3da3a7ef"/>
  <rect x="68" y="5" width="1" height="1" fill="#40a2ac7b"/>
  <rect x="72" y="5" width="1" height="1" fill="#9293362a"/>
  <rect x="73" y="5" width="1" height="1" fill="#9d9033cb"/>
  <rect x="74" y="5" width="1" height="1" fill="#9e9230"/>
  <rect x="75" y="5" width="1" height="1" fill="#9e932e"/>
  <rect x="76" y="5" width="1" height="1" fill="#9c9528"/>
  <rect x="77" y="5" width="1" height="1" fill="#9c9526"/>
  <rect x="78" y="5" width="1" height="1" fill="#9c9622"/>
  <rect x="79" y="5" width="1" height="1" fill="#9c9526"/>
  <rect x="80" y="5" width="1" height="1" fill="#9e9232be"/>
  <rect x="81" y="5" width="1" height="1" fill="#94963814"/>
  <rect x="88" y="5" width="1" height="1" fill="#7f64c1f9"/>
  <rect x="89" y="5" width="5" height="1" fill="#8461c3"/>
  <rect x="94" y="5" width="1" height="1" fill="#8461c3f9"/>
  <rect x="102" y="5" width="1" height="1" fill="#474745f9"/>
  <rect x="103" y="5" width="5" height="1" fill="#474747"/>
  <rect x="108" y="5" width="1" height="1" fill="#474747f9"/>
  <rect x="0" y="6" width="1" height="1" fill="#6a9ddcfa"/>
  <rect x="1" y="6" width="1" height="1" fill="#75a4e2"/>
  <rect x="2" y="6" width="1" height="1" fill="#7aa2e0d4"/>
  <rect x="3" y="6" width="1" height="1" fill="#8aa9dae9"/>
  <rect x="4" y="6" width="1" height="1" fill="#e5fdff"/>
  <rect x="5" y="6" width="1" height="1" fill="#edfcff"/>
  <rect x="6" y="6" width="1" height="1" fill="#f3f9fe"/>
  <rect x="7" y="6" width="1" height="1" fill="#f5f8ff"/>
  <rect x="8" y="6" width="1" height="1" fill="#f7f9ff"/>
  <rect x="9" y="6" width="1" height="1" fill="#f5ffff"/>
  <rect x="10" y="6" width="1" height="1" fill="#90a8e4f8"/>
  <rect x="11" y="6" width="1" height="1" fill="#7ba1edef"/>
  <rect x="12" y="6" width="1" height="1" fill="#6f9ef4"/>
  <rect x="13" y="6" width="1" height="1" fill="#6aa1f2f7"/>
  <rect x="14" y="6" width="1" height="1" fill="#6da4e8dc"/>
  <rect x="15" y="6" width="1" height="1" fill="#70a2e5"/>
  <rect x="16" y="6" width="1" height="1" fill="#71a0ee96"/>
  <rect x="17" y="6" width="1" height="1" fill="#739ef2ea"/>
  <rect x="18" y="6" width="5" height="1" fill="#749ff3"/>
  <rect x="23" y="6" width="1" height="2" fill="#73a1f1"/>
  <rect x="24" y="6" width="1" height="1" fill="#71a2edf7"/>
  <rect x="25" y="6" width="1" height="1" fill="#71a3ebc3"/>
  <rect x="26" y="6" width="1" height="1" fill="#73a2e9"/>
  <rect x="27" y="6" width="1" height="1" fill="#8c9fb4d3"/>
  <rect x="28" y="6" width="1" height="1" fill="#ddbc6adf"/>
  <rect x="29" y="6" width="1" height="1" fill="#f5b834"/>
  <rect x="30" y="6" width="1" height="1" fill="#f5b73196"/>
  <rect x="31" y="6" width="1" height="1" fill="#f6b530ea"/>
  <rect x="32" y="6" width="6" height="1" fill="#f7b631"/>
  <rect x="38" y="6" width="1" height="1" fill="#f7b62ff3"/>
  <rect x="39" y="6" width="1" height="1" fill="#f7b62fc4"/>
  <rect x="40" y="6" width="1" height="1" fill="#f6b52e"/>
  <rect x="41" y="6" width="1" height="1" fill="#f6b52ed2"/>
  <rect x="42" y="6" width="1" height="1" fill="#f6b62ce0"/>
  <rect x="43" y="6" width="1" height="1" fill="#f6b62c"/>
  <rect x="44" y="6" width="1" height="1" fill="#f6b62c96"/>
  <rect x="45" y="6" width="1" height="1" fill="#f6b62cf1"/>
  <rect x="46" y="6" width="6" height="2" fill="#f6b62c"/>
  <rect x="52" y="6" width="1" height="1" fill="#f6b62ce8"/>
  <rect x="53" y="6" width="1" height="1" fill="#f6b62cc8"/>
  <rect x="54" y="6" width="1" height="1" fill="#f6b62c"/>
  <rect x="55" y="6" width="1" height="1" fill="#d4be58cf"/>
  <rect x="56" y="6" width="1" height="1" fill="#5a9c7fdd"/>
  <rect x="57" y="6" width="1" height="1" fill="#37a5ab"/>
  <rect x="58" y="6" width="1" height="1" fill="#37a5ab96"/>
  <rect x="59" y="6" width="1" height="1" fill="#37a5abee"/>
  <rect x="60" y="6" width="3" height="2" fill="#37a5ab"/>
  <rect x="63" y="6" width="1" height="2" fill="#38a5a9"/>
  <rect x="64" y="6" width="1" height="1" fill="#38a5a7"/>
  <rect x="65" y="6" width="1" height="1" fill="#38a5a5"/>
  <rect x="66" y="6" width="1" height="1" fill="#38a6a1f2"/>
  <rect x="67" y="6" width="1" height="1" fill="#37a7a1c8"/>
  <rect x="68" y="6" width="1" height="1" fill="#38a7a6"/>
  <rect x="69" y="6" width="1" height="1" fill="#46a58cd3"/>
  <rect x="70" y="6" width="1" height="1" fill="#62a45514"/>
  <rect x="71" y="6" width="1" height="1" fill="#779f3695"/>
  <rect x="72" y="6" width="1" height="1" fill="#839b34fb"/>
  <rect x="73" y="6" width="1" height="1" fill="#899a35"/>
  <rect x="74" y="6" width="1" height="1" fill="#879d36"/>
  <rect x="75" y="6" width="1" height="1" fill="#849e36"/>
  <rect x="76" y="6" width="1" height="1" fill="#7fa038"/>
  <rect x="77" y="6" width="1" height="1" fill="#7ca238"/>
  <rect x="78" y="6" width="2" height="1" fill="#79a438"/>
  <rect x="80" y="6" width="1" height="1" fill="#7ca238"/>
  <rect x="81" y="6" width="1" height="1" fill="#7ba338ef"/>
  <rect x="82" y="6" width="1" height="1" fill="#74a63a78"/>
  <rect x="88" y="6" width="1" height="1" fill="#8263bfd4"/>
  <rect x="89" y="6" width="5" height="1" fill="#8561c1"/>
  <rect x="94" y="6" width="1" height="1" fill="#8561c1d4"/>
  <rect x="102" y="6" width="1" height="1" fill="#47464bd4"/>
  <rect x="103" y="6" width="1" height="1" fill="#47464b"/>
  <rect x="104" y="6" width="1" height="1" fill="#474749"/>
  <rect x="105" y="6" width="3" height="2" fill="#474747"/>
  <rect x="108" y="6" width="1" height="1" fill="#474747d4"/>
  <rect x="0" y="7" width="1" height="1" fill="#76a9e7de"/>
  <rect x="1" y="7" width="1" height="1" fill="#76a5e5dc"/>
  <rect x="3" y="7" width="1" height="1" fill="#80a1d4a5"/>
  <rect x="4" y="7" width="1" height="1" fill="#b5cee8"/>
  <rect x="5" y="7" width="1" height="1" fill="#ecfdff"/>
  <rect x="6" y="7" width="1" height="1" fill="#eef7ff"/>
  <rect x="7" y="7" width="1" height="1" fill="#fcffff"/>
  <rect x="8" y="7" width="1" height="1" fill="#f2f7ff"/>
  <rect x="9" y="7" width="1" height="1" fill="#bfcbf0"/>
  <rect x="10" y="7" width="1" height="1" fill="#8aa2deb5"/>
  <rect x="11" y="7" width="1" height="1" fill="#80a4ee1d"/>
  <rect x="12" y="7" width="1" height="1" fill="#74a1f4f4"/>
  <rect x="13" y="7" width="1" height="1" fill="#6fa4f4f0"/>
  <rect x="14" y="7" width="1" height="1" fill="#6fa5eca4"/>
  <rect x="15" y="7" width="1" height="1" fill="#71a5eaa1"/>
  <rect x="17" y="7" width="1" height="1" fill="#74a0f1a8"/>
  <rect x="18" y="7" width="5" height="1" fill="#74a0f1"/>
  <rect x="24" y="7" width="1" height="1" fill="#71a2efb4"/>
  <rect x="25" y="7" width="1" height="1" fill="#71a2ed0f"/>
  <rect x="26" y="7" width="1" height="1" fill="#73a2e9cb"/>
  <rect x="27" y="7" width="1" height="1" fill="#8ca0b2c2"/>
  <rect x="28" y="7" width="1" height="1" fill="#d4b462a5"/>
  <rect x="29" y="7" width="1" height="1" fill="#f0b42ea1"/>
  <rect x="31" y="7" width="1" height="1" fill="#f7b631a8"/>
  <rect x="32" y="7" width="1" height="1" fill="#f9b531"/>
  <rect x="33" y="7" width="1" height="1" fill="#f7b430"/>
  <rect x="34" y="7" width="2" height="1" fill="#f9b531"/>
  <rect x="36" y="7" width="2" height="1" fill="#f9b62f"/>
  <rect x="38" y="7" width="1" height="1" fill="#f9b62db0"/>
  <rect x="39" y="7" width="1" height="1" fill="#f9b62d0f"/>
  <rect x="40" y="7" width="1" height="1" fill="#f6b52ecb"/>
  <rect x="41" y="7" width="1" height="1" fill="#f6b52ec1"/>
  <rect x="42" y="7" width="1" height="1" fill="#f6b62ca8"/>
  <rect x="43" y="7" width="1" height="1" fill="#f6b62c9f"/>
  <rect x="45" y="7" width="1" height="1" fill="#f6b62cad"/>
  <rect x="52" y="7" width="1" height="1" fill="#f6b62ca3"/>
  <rect x="53" y="7" width="1" height="1" fill="#f6b62c15"/>
  <rect x="54" y="7" width="1" height="1" fill="#f6b62ccc"/>
  <rect x="55" y="7" width="1" height="1" fill="#d3bf58bd"/>
  <rect x="56" y="7" width="1" height="1" fill="#589d7da6"/>
  <rect x="57" y="7" width="1" height="1" fill="#37a5aba0"/>
  <rect x="59" y="7" width="1" height="1" fill="#37a5abaa"/>
  <rect x="64" y="7" width="1" height="1" fill="#3ba4a5"/>
  <rect x="65" y="7" width="1" height="1" fill="#3aa5a1"/>
  <rect x="66" y="7" width="1" height="1" fill="#35a89fae"/>
  <rect x="67" y="7" width="1" height="1" fill="#32aa9f0f"/>
  <rect x="68" y="7" width="1" height="1" fill="#33aaa4cb"/>
  <rect x="69" y="7" width="1" height="1" fill="#40a98abf"/>
  <rect x="70" y="7" width="1" height="1" fill="#5ca851dd"/>
  <rect x="71" y="7" width="1" height="1" fill="#6fa334"/>
  <rect x="72" y="7" width="1" height="1" fill="#78a03696"/>
  <rect x="73" y="7" width="1" height="1" fill="#7b9f36ef"/>
  <rect x="74" y="7" width="1" height="1" fill="#79a139"/>
  <rect x="75" y="7" width="1" height="1" fill="#76a43c"/>
  <rect x="76" y="7" width="1" height="1" fill="#71a63e"/>
  <rect x="77" y="7" width="1" height="1" fill="#6da73f"/>
  <rect x="78" y="7" width="1" height="1" fill="#6ba942"/>
  <rect x="79" y="7" width="1" height="1" fill="#6ba940"/>
  <rect x="80" y="7" width="1" height="1" fill="#6ca93cf1"/>
  <rect x="81" y="7" width="1" height="1" fill="#6ea83cc8"/>
  <rect x="82" y="7" width="1" height="1" fill="#6fa83c"/>
  <rect x="83" y="7" width="1" height="1" fill="#779e5ad3"/>
  <rect x="88" y="7" width="1" height="1" fill="#8463bd55"/>
  <rect x="89" y="7" width="2" height="1" fill="#8562bb"/>
  <rect x="91" y="7" width="1" height="1" fill="#8562bd"/>
  <rect x="92" y="7" width="1" height="1" fill="#8561c1"/>
  <rect x="93" y="7" width="1" height="1" fill="#8561c3"/>
  <rect x="94" y="7" width="1" height="1" fill="#8561c357"/>
  <rect x="102" y="7" width="1" height="1" fill="#45474d55"/>
  <rect x="103" y="7" width="1" height="1" fill="#47464d"/>
  <rect x="104" y="7" width="1" height="1" fill="#464548"/>
  <rect x="108" y="7" width="1" height="1" fill="#47474757"/>
  <rect x="3" y="8" width="1" height="1" fill="#89a5e522"/>
  <rect x="4" y="8" width="1" height="1" fill="#88a0d3eb"/>
  <rect x="5" y="8" width="1" height="1" fill="#c4d5ff"/>
  <rect x="6" y="8" width="1" height="1" fill="#eaf7ff"/>
  <rect x="7" y="8" width="1" height="1" fill="#e5f2ff"/>
  <rect x="8" y="8" width="1" height="1" fill="#c7d3ff"/>
  <rect x="9" y="8" width="1" height="1" fill="#96a6dcf1"/>
  <rect x="10" y="8" width="1" height="1" fill="#89a1df2b"/>
  <rect x="17" y="8" width="1" height="1" fill="#71a0ee22"/>
  <rect x="18" y="8" width="1" height="1" fill="#71a0eeec"/>
  <rect x="19" y="8" width="1" height="1" fill="#71a0ee"/>
  <rect x="20" y="8" width="3" height="1" fill="#73a1ef"/>
  <rect x="23" y="8" width="1" height="1" fill="#73a1f1f0"/>
  <rect x="24" y="8" width="1" height="1" fill="#6d9ff22a"/>
  <rect x="31" y="8" width="1" height="1" fill="#f5b73122"/>
  <rect x="32" y="8" width="1" height="1" fill="#f7b633ed"/>
  <rect x="33" y="8" width="1" height="1" fill="#f7b432"/>
  <rect x="34" y="8" width="1" height="1" fill="#f4b12c"/>
  <rect x="35" y="8" width="1" height="1" fill="#f2af28"/>
  <rect x="36" y="8" width="1" height="1" fill="#f4b128"/>
  <rect x="37" y="8" width="1" height="1" fill="#f9b62bf0"/>
  <rect x="38" y="8" width="1" height="1" fill="#f9b72928"/>
  <rect x="45" y="8" width="1" height="1" fill="#f4b62c28"/>
  <rect x="46" y="8" width="1" height="1" fill="#f9bb31ef"/>
  <rect x="47" y="8" width="1" height="1" fill="#f4b62c"/>
  <rect x="48" y="8" width="1" height="1" fill="#f7b92e"/>
  <rect x="49" y="8" width="1" height="1" fill="#fabc32"/>
  <rect x="50" y="8" width="1" height="1" fill="#f0b227"/>
  <rect x="51" y="8" width="1" height="1" fill="#f9bb31ef"/>
  <rect x="52" y="8" width="1" height="1" fill="#f3b32a26"/>
  <rect x="59" y="8" width="1" height="1" fill="#36a7ae23"/>
  <rect x="60" y="8" width="1" height="1" fill="#36a7aeee"/>
  <rect x="61" y="8" width="2" height="1" fill="#36a7ae"/>
  <rect x="63" y="8" width="1" height="1" fill="#38a7aa"/>
  <rect x="64" y="8" width="1" height="1" fill="#3da3a5"/>
  <rect x="65" y="8" width="1" height="1" fill="#3aa5a1f0"/>
  <rect x="66" y="8" width="1" height="1" fill="#32ada128"/>
  <rect x="70" y="8" width="1" height="1" fill="#4da348a7"/>
  <rect x="71" y="8" width="1" height="1" fill="#62a433a0"/>
  <rect x="73" y="8" width="1" height="1" fill="#73a23aab"/>
  <rect x="74" y="8" width="1" height="1" fill="#73a23a"/>
  <rect x="75" y="8" width="1" height="1" fill="#72a33c"/>
  <rect x="76" y="8" width="1" height="2" fill="#71a43d"/>
  <rect x="77" y="8" width="1" height="1" fill="#70a53d"/>
  <rect x="78" y="8" width="1" height="1" fill="#6ba23b"/>
  <rect x="79" y="8" width="1" height="1" fill="#68a039"/>
  <rect x="80" y="8" width="1" height="1" fill="#6da73fad"/>
  <rect x="81" y="8" width="1" height="1" fill="#6aa43c11"/>
  <rect x="82" y="8" width="1" height="1" fill="#6ba337cb"/>
  <rect x="83" y="8" width="1" height="1" fill="#759c56be"/>
  <rect x="89" y="8" width="1" height="1" fill="#8260b257"/>
  <rect x="90" y="8" width="1" height="1" fill="#8260b0d6"/>
  <rect x="91" y="8" width="1" height="1" fill="#825fb6fa"/>
  <rect x="92" y="8" width="1" height="1" fill="#825dc0d6"/>
  <rect x="93" y="8" width="1" height="1" fill="#855fc957"/>
  <rect x="103" y="8" width="1" height="1" fill="#42444857"/>
  <rect x="104" y="8" width="1" height="1" fill="#454447d6"/>
  <rect x="105" y="8" width="1" height="1" fill="#464445fa"/>
  <rect x="106" y="8" width="1" height="1" fill="#464646d6"/>
  <rect x="107" y="8" width="1" height="1" fill="#46464657"/>
  <rect x="4" y="9" width="1" height="1" fill="#849eda23"/>
  <rect x="5" y="9" width="1" height="1" fill="#8ca2daab"/>
  <rect x="6" y="9" width="1" height="1" fill="#8ca1d7f0"/>
  <rect x="7" y="9" width="1" height="1" fill="#889ad1f2"/>
  <rect x="8" y="9" width="1" height="1" fill="#8a9ed5b2"/>
  <rect x="9" y="9" width="1" height="1" fill="#8da3de2a"/>
  <rect x="18" y="9" width="1" height="1" fill="#70a1ee24"/>
  <rect x="19" y="9" width="1" height="1" fill="#70a1eeac"/>
  <rect x="20" y="9" width="1" height="1" fill="#71a2eff0"/>
  <rect x="21" y="9" width="1" height="1" fill="#71a2eff2"/>
  <rect x="22" y="9" width="1" height="1" fill="#71a2efb1"/>
  <rect x="23" y="9" width="1" height="1" fill="#71a2f12a"/>
  <rect x="32" y="9" width="1" height="1" fill="#f7b62f24"/>
  <rect x="33" y="9" width="1" height="1" fill="#f5b42dac"/>
  <rect x="34" y="9" width="1" height="1" fill="#f2b22af0"/>
  <rect x="35" y="9" width="1" height="1" fill="#f0b026f3"/>
  <rect x="36" y="9" width="1" height="1" fill="#f3b428b0"/>
  <rect x="37" y="9" width="1" height="1" fill="#f3b42628"/>
  <rect x="46" y="9" width="1" height="1" fill="#d0bd5626"/>
  <rect x="47" y="9" width="1" height="1" fill="#d2c159af"/>
  <rect x="48" y="9" width="1" height="1" fill="#d2be57f2"/>
  <rect x="49" y="9" width="1" height="1" fill="#ceba54f2"/>
  <rect x="50" y="9" width="1" height="1" fill="#ceba54ad"/>
  <rect x="51" y="9" width="1" height="1" fill="#d3bf5825"/>
  <rect x="60" y="9" width="1" height="1" fill="#36a6b024"/>
  <rect x="61" y="9" width="1" height="1" fill="#36a6b0ad"/>
  <rect x="62" y="9" width="1" height="1" fill="#36a6b0f2"/>
  <rect x="63" y="9" width="1" height="1" fill="#38a6aef2"/>
  <rect x="64" y="9" width="1" height="1" fill="#43a8afae"/>
  <rect x="65" y="9" width="1" height="1" fill="#40abab28"/>
  <rect x="73" y="9" width="1" height="1" fill="#6fa23a24"/>
  <rect x="74" y="9" width="1" height="1" fill="#6fa23aee"/>
  <rect x="75" y="9" width="1" height="1" fill="#6fa23a"/>
  <rect x="77" y="9" width="1" height="1" fill="#74a73f"/>
  <rect x="78" y="9" width="1" height="1" fill="#76a941"/>
  <rect x="79" y="9" width="1" height="1" fill="#77ac46ef"/>
  <rect x="80" y="9" width="1" height="1" fill="#6fa64226"/>
  <rect x="88" y="9" width="1" height="1" fill="#7e61b463"/>
  <rect x="89" y="9" width="1" height="1" fill="#8260b0b4"/>
  <rect x="90" y="9" width="1" height="1" fill="#8260b0e6"/>
  <rect x="91" y="9" width="1" height="1" fill="#825fb6f7"/>
  <rect x="93" y="9" width="1" height="1" fill="#653eaf"/>
  <rect x="94" y="9" width="1" height="1" fill="#6841b2"/>
  <rect x="95" y="9" width="1" height="1" fill="#5f3bad"/>
  <rect x="96" y="9" width="1" height="1" fill="#5836b1"/>
  <rect x="102" y="9" width="1" height="1" fill="#40444863"/>
  <rect x="103" y="9" width="1" height="1" fill="#404546b4"/>
  <rect x="104" y="9" width="1" height="1" fill="#464646e6"/>
  <rect x="105" y="9" width="1" height="1" fill="#434041f7"/>
  <rect x="107" y="9" width="4" height="1" fill="#343434"/>
  <rect x="3" y="10" width="1" height="1" fill="#7ca3d875"/>
  <rect x="4" y="10" width="1" height="1" fill="#80a3d5c7"/>
  <rect x="5" y="10" width="1" height="1" fill="#7f9eccea"/>
  <rect x="6" y="10" width="1" height="1" fill="#839ec9f9"/>
  <rect x="7" y="10" width="1" height="1" fill="#89a4cffa"/>
  <rect x="8" y="10" width="1" height="1" fill="#8ca7d5eb"/>
  <rect x="9" y="10" width="1" height="1" fill="#7d9ccdca"/>
  <rect x="10" y="10" width="1" height="1" fill="#779ace7c"/>
  <rect x="11" y="10" width="1" height="1" fill="#77a0d60e"/>
  <rect x="17" y="10" width="1" height="1" fill="#6ea1f276"/>
  <rect x="18" y="10" width="1" height="1" fill="#6ea1f2c7"/>
  <rect x="19" y="10" width="1" height="1" fill="#6ea1f2ea"/>
  <rect x="20" y="10" width="1" height="1" fill="#6fa2f3f9"/>
  <rect x="21" y="10" width="1" height="1" fill="#6fa2f3fa"/>
  <rect x="22" y="10" width="1" height="1" fill="#6fa2f3eb"/>
  <rect x="23" y="10" width="1" height="1" fill="#6fa2f3ca"/>
  <rect x="24" y="10" width="1" height="1" fill="#73a5f87c"/>
  <rect x="25" y="10" width="1" height="1" fill="#71a1f30e"/>
  <rect x="31" y="10" width="1" height="1" fill="#f0b32376"/>
  <rect x="32" y="10" width="1" height="1" fill="#f5b927c7"/>
  <rect x="33" y="10" width="1" height="1" fill="#f3b625ea"/>
  <rect x="34" y="10" width="1" height="1" fill="#f1b424f9"/>
  <rect x="36" y="10" width="1" height="1" fill="#c68800"/>
  <rect x="40" y="10" width="1" height="1" fill="#c28f0c"/>
  <rect x="44" y="10" width="1" height="1" fill="#5496700a"/>
  <rect x="45" y="10" width="1" height="1" fill="#5f9e7976"/>
  <rect x="46" y="10" width="1" height="1" fill="#579a78c8"/>
  <rect x="47" y="10" width="1" height="1" fill="#579c7ceb"/>
  <rect x="48" y="10" width="1" height="1" fill="#5ea181fa"/>
  <rect x="50" y="10" width="1" height="1" fill="#397c5c"/>
  <rect x="54" y="10" width="1" height="1" fill="#397a5b"/>
  <rect x="59" y="10" width="1" height="1" fill="#38a5b27a"/>
  <rect x="60" y="10" width="1" height="1" fill="#38a5b2c7"/>
  <rect x="61" y="10" width="1" height="1" fill="#38a5b2ea"/>
  <rect x="62" y="10" width="1" height="1" fill="#38a5b2f9"/>
  <rect x="64" y="10" width="1" height="1" fill="#00636e"/>
  <rect x="68" y="10" width="1" height="1" fill="#005e69"/>
  <rect x="74" y="10" width="1" height="1" fill="#6fa23a25"/>
  <rect x="75" y="10" width="1" height="1" fill="#70a33cad"/>
  <rect x="76" y="10" width="1" height="1" fill="#73a63ef2"/>
  <rect x="77" y="10" width="1" height="1" fill="#71a43df2"/>
  <rect x="78" y="10" width="1" height="1" fill="#6fa23aae"/>
  <rect x="79" y="10" width="1" height="1" fill="#6ba03a28"/>
  <rect x="86" y="10" width="1" height="1" fill="#7b63bd1c"/>
  <rect x="87" y="10" width="1" height="1" fill="#7c62bdd0"/>
  <rect x="88" y="10" width="1" height="1" fill="#7e60b8"/>
  <rect x="89" y="10" width="2" height="1" fill="#8060b6"/>
  <rect x="91" y="10" width="1" height="1" fill="#805fbc"/>
  <rect x="93" y="10" width="1" height="1" fill="#613bb3"/>
  <rect x="96" y="10" width="1" height="1" fill="#5c3bb1"/>
  <rect x="100" y="10" width="1" height="1" fill="#4443461c"/>
  <rect x="101" y="10" width="1" height="1" fill="#424444d0"/>
  <rect x="102" y="10" width="2" height="1" fill="#404544"/>
  <rect x="104" y="10" width="1" height="1" fill="#474747"/>
  <rect x="105" y="10" width="1" height="1" fill="#423f40"/>
  <rect x="107" y="10" width="1" height="1" fill="#2d2d2d"/>
  <rect x="110" y="10" width="1" height="1" fill="#3b3b3b"/>
  <rect x="2" y="11" width="1" height="1" fill="#6997cec7"/>
  <rect x="3" y="11" width="1" height="1" fill="#a6cdff"/>
  <rect x="4" y="11" width="1" height="1" fill="#cef2ff"/>
  <rect x="5" y="11" width="1" height="1" fill="#dbfaff"/>
  <rect x="6" y="11" width="1" height="1" fill="#e1fdff"/>
  <rect x="7" y="11" width="1" height="1" fill="#def9ff"/>
  <rect x="8" y="11" width="1" height="1" fill="#daf5ff"/>
  <rect x="9" y="11" width="1" height="1" fill="#ceedff"/>
  <rect x="10" y="11" width="1" height="1" fill="#a9ccfe"/>
  <rect x="11" y="11" width="1" height="1" fill="#7ca6dad1"/>
  <rect x="12" y="11" width="1" height="1" fill="#719fd60b"/>
  <rect x="16" y="11" width="1" height="1" fill="#6da2f0c7"/>
  <rect x="17" y="11" width="3" height="1" fill="#6da1f4"/>
  <rect x="20" y="11" width="3" height="1" fill="#6ea2f5"/>
  <rect x="23" y="11" width="1" height="1" fill="#6fa2f5"/>
  <rect x="24" y="11" width="1" height="1" fill="#72a2f6"/>
  <rect x="25" y="11" width="1" height="1" fill="#73a0f3d1"/>
  <rect x="26" y="11" width="1" height="1" fill="#6e9aeb0b"/>
  <rect x="30" y="11" width="1" height="1" fill="#f0b626c7"/>
  <rect x="31" y="11" width="1" height="1" fill="#efb524"/>
  <rect x="32" y="11" width="1" height="1" fill="#f4ba25"/>
  <rect x="33" y="11" width="1" height="1" fill="#f1b823"/>
  <rect x="34" y="11" width="1" height="1" fill="#efb522"/>
  <rect x="36" y="11" width="1" height="1" fill="#ce9308"/>
  <rect x="37" y="11" width="1" height="1" fill="#cc900a"/>
  <rect x="39" y="11" width="1" height="1" fill="#ce9313fa"/>
  <rect x="40" y="11" width="1" height="1" fill="#c18e12"/>
  <rect x="44" y="11" width="1" height="1" fill="#3ea7a5c8"/>
  <rect x="45" y="11" width="1" height="1" fill="#3ba4a3"/>
  <rect x="46" y="11" width="1" height="1" fill="#36a2a7"/>
  <rect x="47" y="11" width="1" height="1" fill="#3cabb1"/>
  <rect x="48" y="11" width="1" height="1" fill="#36a2a9"/>
  <rect x="50" y="11" width="1" height="1" fill="#18848a"/>
  <rect x="51" y="11" width="1" height="1" fill="#168389"/>
  <rect x="53" y="11" width="1" height="1" fill="#1d8a90"/>
  <rect x="54" y="11" width="1" height="1" fill="#18848a"/>
  <rect x="58" y="11" width="1" height="1" fill="#38a5b2c7"/>
  <rect x="59" y="11" width="4" height="1" fill="#38a5b2"/>
  <rect x="64" y="11" width="1" height="1" fill="#005f6c"/>
  <rect x="65" y="11" width="1" height="1" fill="#005e68"/>
  <rect x="67" y="11" width="1" height="1" fill="#005a5ffc"/>
  <rect x="68" y="11" width="1" height="1" fill="#025667"/>
  <rect x="73" y="11" width="1" height="1" fill="#6fa23a76"/>
  <rect x="74" y="11" width="1" height="1" fill="#6fa23ac7"/>
  <rect x="75" y="11" width="1" height="1" fill="#6fa23aea"/>
  <rect x="76" y="11" width="1" height="1" fill="#75a840f9"/>
  <rect x="78" y="11" width="1" height="1" fill="#5d9028"/>
  <rect x="82" y="11" width="1" height="1" fill="#578d22"/>
  <rect x="86" y="11" width="1" height="1" fill="#7b63bdcb"/>
  <rect x="87" y="11" width="1" height="1" fill="#7c63bb"/>
  <rect x="88" y="11" width="1" height="1" fill="#7d61ba"/>
  <rect x="89" y="11" width="2" height="1" fill="#7d61b8"/>
  <rect x="91" y="11" width="1" height="1" fill="#7d60be"/>
  <rect x="93" y="11" width="1" height="1" fill="#5d3cb5"/>
  <rect x="94" y="11" width="1" height="1" fill="#5c3bb3"/>
  <rect x="95" y="11" width="1" height="1" fill="#5d3db3"/>
  <rect x="96" y="11" width="1" height="1" fill="#5d3fb4"/>
  <rect x="100" y="11" width="1" height="1" fill="#42433ecb"/>
  <rect x="101" y="11" width="1" height="2" fill="#414440"/>
  <rect x="102" y="11" width="2" height="2" fill="#3f4442"/>
  <rect x="104" y="11" width="1" height="1" fill="#464646"/>
  <rect x="105" y="11" width="1" height="1" fill="#434041"/>
  <rect x="107" y="11" width="4" height="1" fill="#363636"/>
  <rect x="1" y="12" width="1" height="1" fill="#7ca6e562"/>
  <rect x="2" y="12" width="1" height="1" fill="#9dc3ff"/>
  <rect x="3" y="12" width="1" height="1" fill="#e1ffff"/>
  <rect x="4" y="12" width="1" height="1" fill="#e2feff"/>
  <rect x="5" y="12" width="1" height="1" fill="#e5fdff"/>
  <rect x="6" y="12" width="1" height="1" fill="#e7fdff"/>
  <rect x="7" y="12" width="1" height="1" fill="#e8fcff"/>
  <rect x="8" y="12" width="1" height="1" fill="#dff5ff"/>
  <rect x="9" y="12" width="1" height="1" fill="#f0ffff"/>
  <rect x="10" y="12" width="1" height="1" fill="#dbf9ff"/>
  <rect x="11" y="12" width="1" height="1" fill="#adcfff"/>
  <rect x="12" y="12" width="1" height="1" fill="#7aa3de73"/>
  <rect x="15" y="12" width="1" height="1" fill="#72a4ec63"/>
  <rect x="16" y="12" width="1" height="1" fill="#6ea1f0"/>
  <rect x="17" y="12" width="3" height="1" fill="#6ea1f2"/>
  <rect x="20" y="12" width="3" height="1" fill="#6fa2f3"/>
  <rect x="23" y="12" width="1" height="1" fill="#71a1f3"/>
  <rect x="24" y="12" width="1" height="1" fill="#719ff2"/>
  <rect x="25" y="12" width="1" height="1" fill="#6c99ec"/>
  <rect x="26" y="12" width="1" height="1" fill="#6d9df373"/>
  <rect x="29" y="12" width="1" height="1" fill="#ecb02563"/>
  <rect x="30" y="12" width="2" height="1" fill="#efb92a"/>
  <rect x="32" y="12" width="1" height="1" fill="#f3b828"/>
  <rect x="33" y="12" width="1" height="1" fill="#f2b526"/>
  <rect x="34" y="12" width="1" height="1" fill="#f0b225"/>
  <rect x="36" y="12" width="1" height="1" fill="#cd8e0a"/>
  <rect x="38" y="12" width="1" height="1" fill="#cb8c0d"/>
  <rect x="40" y="12" width="1" height="1" fill="#c38e17"/>
  <rect x="43" y="12" width="1" height="1" fill="#3ba9b26a"/>
  <rect x="44" y="12" width="1" height="1" fill="#3aa2a6"/>
  <rect x="45" y="12" width="1" height="1" fill="#3ca2a6"/>
  <rect x="46" y="12" width="1" height="1" fill="#37a3ac"/>
  <rect x="47" y="12" width="1" height="1" fill="#35a3ae"/>
  <rect x="48" y="12" width="1" height="1" fill="#3ca7b3"/>
  <rect x="50" y="12" width="1" height="1" fill="#17808c"/>
  <rect x="52" y="12" width="1" height="1" fill="#19828e"/>
  <rect x="54" y="12" width="1" height="1" fill="#167f8b"/>
  <rect x="57" y="12" width="1" height="1" fill="#36a7ac67"/>
  <rect x="58" y="12" width="5" height="1" fill="#36a7ac"/>
  <rect x="64" y="12" width="1" height="1" fill="#005d66"/>
  <rect x="66" y="12" width="1" height="1" fill="#066265"/>
  <rect x="68" y="12" width="1" height="1" fill="#0d5a67"/>
  <rect x="72" y="12" width="1" height="1" fill="#6ea33ac7"/>
  <rect x="73" y="12" width="3" height="1" fill="#6fa23a"/>
  <rect x="76" y="12" width="1" height="1" fill="#73a63e"/>
  <rect x="78" y="12" width="1" height="1" fill="#60932b"/>
  <rect x="79" y="12" width="1" height="1" fill="#5c9129"/>
  <rect x="81" y="12" width="1" height="1" fill="#5c9426fd"/>
  <rect x="82" y="12" width="1" height="1" fill="#5b9222"/>
  <rect x="85" y="12" width="1" height="1" fill="#7a65be5d"/>
  <rect x="86" y="12" width="1" height="1" fill="#7c65bc"/>
  <rect x="87" y="12" width="2" height="1" fill="#7b64b9"/>
  <rect x="89" y="12" width="2" height="1" fill="#7a63b6"/>
  <rect x="91" y="12" width="1" height="1" fill="#7a62bc"/>
  <rect x="93" y="12" width="1" height="1" fill="#5b3fb4"/>
  <rect x="95" y="12" width="1" height="1" fill="#583cb0"/>
  <rect x="99" y="12" width="1" height="1" fill="#4a46455d"/>
  <rect x="100" y="12" width="1" height="1" fill="#424340"/>
  <rect x="104" y="12" width="1" height="1" fill="#444346"/>
  <rect x="105" y="12" width="1" height="1" fill="#403e41"/>
  <rect x="107" y="12" width="1" height="1" fill="#353235"/>
  <rect x="109" y="12" width="1" height="1" fill="#383639"/>
  <rect x="1" y="13" width="1" height="1" fill="#85a6dac6"/>
  <rect x="2" y="13" width="1" height="1" fill="#82a1d2"/>
  <rect x="3" y="13" width="1" height="1" fill="#869ecc"/>
  <rect x="4" y="13" width="1" height="1" fill="#889cc5"/>
  <rect x="5" y="13" width="1" height="1" fill="#8b9cc1"/>
  <rect x="6" y="13" width="1" height="1" fill="#8e9abf"/>
  <rect x="7" y="13" width="1" height="1" fill="#8e9bbd"/>
  <rect x="8" y="13" width="1" height="1" fill="#8f9bc0"/>
  <rect x="9" y="13" width="1" height="1" fill="#90a0c8"/>
  <rect x="10" y="13" width="1" height="1" fill="#8a9eca"/>
  <rect x="11" y="13" width="1" height="1" fill="#7e99c7"/>
  <rect x="12" y="13" width="1" height="1" fill="#89a7dbd6"/>
  <rect x="15" y="13" width="1" height="1" fill="#81aae5c7"/>
  <rect x="16" y="13" width="4" height="1" fill="#799fdd"/>
  <rect x="20" y="13" width="4" height="1" fill="#7ba0df"/>
  <rect x="24" y="13" width="1" height="1" fill="#7d9ddd"/>
  <rect x="25" y="13" width="1" height="1" fill="#779adc"/>
  <rect x="26" y="13" width="1" height="1" fill="#759ce3d6"/>
  <rect x="29" y="13" width="1" height="1" fill="#e1b24ec8"/>
  <rect x="30" y="13" width="1" height="1" fill="#e1ba4e"/>
  <rect x="31" y="13" width="1" height="1" fill="#dfb84a"/>
  <rect x="32" y="13" width="1" height="1" fill="#e2b64c"/>
  <rect x="33" y="13" width="1" height="1" fill="#e2b34d"/>
  <rect x="34" y="13" width="1" height="1" fill="#dfaf4b"/>
  <rect x="36" y="13" width="1" height="1" fill="#bc8c2c"/>
  <rect x="40" y="13" width="1" height="1" fill="#b9903a"/>
  <rect x="43" y="13" width="1" height="1" fill="#4f9fa9cf"/>
  <rect x="44" y="13" width="2" height="1" fill="#4c999f"/>
  <rect x="46" y="13" width="1" height="1" fill="#4999a3"/>
  <rect x="47" y="13" width="1" height="1" fill="#4999a5"/>
  <rect x="48" y="13" width="1" height="1" fill="#4997a4"/>
  <rect x="50" y="13" width="1" height="1" fill="#2d7b88"/>
  <rect x="54" y="13" width="1" height="1" fill="#2b7985"/>
  <rect x="57" y="13" width="1" height="1" fill="#4b9fa0cc"/>
  <rect x="58" y="13" width="5" height="1" fill="#4b9fa0"/>
  <rect x="64" y="13" width="1" height="1" fill="#10555b"/>
  <rect x="68" y="13" width="1" height="1" fill="#154f59"/>
  <rect x="71" y="13" width="1" height="1" fill="#619f2a68"/>
  <rect x="72" y="13" width="1" height="1" fill="#6ea338"/>
  <rect x="73" y="13" width="4" height="1" fill="#6fa23a"/>
  <rect x="78" y="13" width="1" height="1" fill="#6da038"/>
  <rect x="80" y="13" width="1" height="1" fill="#5a922d"/>
  <rect x="82" y="13" width="1" height="1" fill="#5b9124"/>
  <rect x="85" y="13" width="1" height="1" fill="#7a69acc7"/>
  <rect x="86" y="13" width="1" height="1" fill="#7c68ac"/>
  <rect x="87" y="13" width="1" height="1" fill="#7c68aa"/>
  <rect x="88" y="13" width="2" height="1" fill="#7665a3"/>
  <rect x="90" y="13" width="1" height="1" fill="#7665a1"/>
  <rect x="91" y="13" width="1" height="1" fill="#7664a9"/>
  <rect x="93" y="13" width="1" height="1" fill="#5640a0"/>
  <rect x="95" y="13" width="1" height="1" fill="#57419f"/>
  <rect x="96" y="13" width="1" height="1" fill="#573e9d"/>
  <rect x="99" y="13" width="1" height="1" fill="#3d3938c7"/>
  <rect x="100" y="13" width="1" height="1" fill="#41423d"/>
  <rect x="101" y="13" width="1" height="1" fill="#40423f"/>
  <rect x="102" y="13" width="1" height="1" fill="#3e4243"/>
  <rect x="103" y="13" width="1" height="1" fill="#3e4245"/>
  <rect x="104" y="13" width="1" height="1" fill="#404042"/>
  <rect x="105" y="13" width="1" height="1" fill="#3f3c40"/>
  <rect x="107" y="13" width="1" height="1" fill="#373438"/>
  <rect x="109" y="13" width="2" height="1" fill="#383639"/>
  <rect x="71" y="14" width="1" height="1" fill="#69a224cc"/>
  <rect x="72" y="14" width="1" height="1" fill="#6fa334"/>
  <rect x="73" y="14" width="3" height="1" fill="#6fa23a"/>
  <rect x="76" y="14" width="1" height="1" fill="#71a43d"/>
  <rect x="78" y="14" width="1" height="1" fill="#5b8e27"/>
  <rect x="82" y="14" width="1" height="1" fill="#5b8f30"/>
</svg>