<svg xmlns="http://www.w3.org/2000/svg" width="112" height="16" viewBox="0 0 112 16" shape-rendering="crispEdges">
  <rect x="76" y="1" width="1" height="1" fill="#d47a2b5e"/>
  <rect x="77" y="1" width="1" height="1" fill="#d0782b3d"/>
  <rect x="4" y="2" width="1" height="1" fill="#89abca25"/>
  <rect x="5" y="2" width="1" height="1" fill="#93accaad"/>
  <rect x="6" y="2" width="1" height="1" fill="#93abc1f1"/>
  <rect x="7" y="2" width="1" height="1" fill="#8fa6bef1"/>
  <rect x="8" y="2" width="1" height="1" fill="#92a8ccad"/>
  <rect x="9" y="2" width="1" height="1" fill="#93aedc25"/>
  <rect x="18" y="2" width="1" height="1" fill="#79a0d725"/>
  <rect x="19" y="2" width="1" height="1" fill="#79a0d7ad"/>
  <rect x="20" y="2" width="2" height="1" fill="#79a0d7f1"/>
  <rect x="22" y="2" width="1" height="1" fill="#79a0d7ad"/>
  <rect x="23" y="2" width="1" height="1" fill="#7ba0d525"/>
  <rect x="32" y="2" width="1" height="1" fill="#e6b65225"/>
  <rect x="33" y="2" width="1" height="1" fill="#e7b652ad"/>
  <rect x="34" y="2" width="2" height="1" fill="#e7b652f1"/>
  <rect x="36" y="2" width="1" height="1" fill="#e7b652ad"/>
  <rect x="37" y="2" width="1" height="1" fill="#e7b65225"/>
  <rect x="46" y="2" width="1" height="1" fill="#e7b65025"/>
  <rect x="47" y="2" width="1" height="1" fill="#e6b74ead"/>
  <rect x="48" y="2" width="1" height="1" fill="#e6b74ef1"/>
  <rect x="49" y="2" width="1" height="1" fill="#e6b84cf1"/>
  <rect x="50" y="2" width="1" height="1" fill="#e6b84aad"/>
  <rect x="51" y="2" width="1" height="1" fill="#e4b84c25"/>
  <rect x="60" y="2" width="1" height="1" fill="#4c9ba025"/>
  <rect x="61" y="2" width="1" height="1" fill="#4c9ba0ad"/>
  <rect x="62" y="2" width="1" height="1" fill="#4d9ca1f1"/>
  <rect x="63" y="2" width="1" height="1" fill="#509a9ff1"/>
  <rect x="64" y="2" width="1" height="1" fill="#559999ad"/>
  <rect x="65" y="2" width="1" height="1" fill="#559a9525"/>
  <rect x="73" y="2" width="1" height="1" fill="#d17a286f"/>
  <rect x="74" y="2" width="1" height="1" fill="#c784424f"/>
  <rect x="75" y="2" width="1" height="1" fill="#c27f3d13"/>
  <rect x="76" y="2" width="1" height="1" fill="#dc883cea"/>
  <rect x="77" y="2" width="1" height="1" fill="#cd7c2fd5"/>
  <rect x="79" y="2" width="1" height="1" fill="#b97d3a37"/>
  <rect x="80" y="2" width="1" height="1" fill="#ca802779"/>
  <rect x="89" y="2" width="1" height="1" fill="#8269aa56"/>
  <rect x="90" y="2" width="1" height="1" fill="#8269aad4"/>
  <rect x="91" y="2" width="1" height="1" fill="#8269aaf9"/>
  <rect x="92" y="2" width="1" height="1" fill="#8269aad4"/>
  <rect x="93" y="2" width="1" height="1" fill="#8269aa56"/>
  <rect x="103" y="2" width="1" height="1" fill="#454a4856"/>
  <rect x="104" y="2" width="1" height="1" fill="#48484ad4"/>
  <rect x="105" y="2" width="1" height="1" fill="#4a474af9"/>
  <rect x="106" y="2" width="1" height="1" fill="#4a474ad4"/>
  <rect x="107" y="2" width="1" height="1" fill="#4a474a56"/>
  <rect x="3" y="3" width="1" height="1" fill="#81b5e027"/>
  <rect x="4" y="3" width="1" height="1" fill="#85a8ccef"/>
  <rect x="5" y="3" width="1" height="1" fill="#c4dcfb"/>
  <rect x="6" y="3" width="1" height="1" fill="#eaffff"/>
  <rect x="7" y="3" width="1" height="1" fill="#e4f8ff"/>
  <rect x="8" y="3" width="1" height="1" fill="#c0d4ff"/>
  <rect x="9" y="3" width="1" height="1" fill="#92abe4ef"/>
  <rect x="10" y="3" width="1" height="1" fill="#80a4ee27"/>
  <rect x="17" y="3" width="1" height="1" fill="#70a1ec27"/>
  <rect x="18" y="3" width="1" height="1" fill="#70a1ecef"/>
  <rect x="19" y="3" width="4" height="1" fill="#70a1ec"/>
  <rect x="23" y="3" width="1" height="1" fill="#70a1ecef"/>
  <rect x="24" y="3" width="1" height="1" fill="#7bacf927"/>
  <rect x="31" y="3" width="1" height="1" fill="#eaab2527"/>
  <rect x="32" y="3" width="1" height="1" fill="#f6b530ef"/>
  <rect x="33" y="3" width="4" height="1" fill="#f7b432"/>
  <rect x="37" y="3" width="1" height="1" fill="#f7b432ef"/>
  <rect x="38" y="3" width="1" height="1" fill="#f7b43227"/>
  <rect x="45" y="3" width="1" height="1" fill="#f7b33627"/>
  <rect x="46" y="3" width="1" height="1" fill="#f9b330ef"/>
  <rect x="47" y="3" width="1" height="1" fill="#f7b52c"/>
  <rect x="48" y="3" width="1" height="1" fill="#f6b628"/>
  <rect x="49" y="3" width="1" height="1" fill="#f6b726"/>
  <rect x="50" y="3" width="1" height="1" fill="#f7b628"/>
  <rect x="51" y="3" width="1" height="1" fill="#f7b628ef"/>
  <rect x="52" y="3" width="1" height="1" fill="#f3b82a27"/>
  <rect x="59" y="3" width="1" height="1" fill="#3aa4ab27"/>
  <rect x="60" y="3" width="1" height="1" fill="#39a2aaef"/>
  <rect x="61" y="3" width="1" height="1" fill="#39a2aa"/>
  <rect x="62" y="3" width="1" height="1" fill="#3aa4ab"/>
  <rect x="63" y="3" width="1" height="1" fill="#3ba3a9"/>
  <rect x="64" y="3" width="1" height="1" fill="#3fa2a7"/>
  <rect x="65" y="3" width="1" height="1" fill="#3fa3a3ef"/>
  <rect x="66" y="3" width="1" height="1" fill="#39a7a227"/>
  <rect x="73" y="3" width="1" height="1" fill="#d17b22e4"/>
  <rect x="74" y="3" width="1" height="1" fill="#ffd98dfe"/>
  <rect x="75" y="3" width="1" height="1" fill="#e3a054fc"/>
  <rect x="76" y="3" width="1" height="1" fill="#ffc270"/>
  <rect x="77" y="3" width="1" height="1" fill="#ffb968"/>
  <rect x="78" y="3" width="1" height="1" fill="#e2a45ef9"/>
  <rect x="79" y="3" width="1" height="1" fill="#ffd78dfd"/>
  <rect x="80" y="3" width="1" height="1" fill="#d47c1feb"/>
  <rect x="88" y="3" width="1" height="1" fill="#8267b854"/>
  <rect x="89" y="3" width="5" height="1" fill="#8266ba"/>
  <rect x="94" y="3" width="1" height="1" fill="#8266ba56"/>
  <rect x="102" y="3" width="1" height="1" fill="#454a4654"/>
  <rect x="103" y="3" width="1" height="1" fill="#454a46"/>
  <rect x="104" y="3" width="1" height="1" fill="#484848"/>
  <rect x="105" y="3" width="3" height="1" fill="#4a474a"/>
  <rect x="108" y="3" width="1" height="1" fill="#4a474a56"/>
  <rect x="3" y="4" width="1" height="1" fill="#7ea6d4ad"/>
  <rect x="4" y="4" width="1" height="1" fill="#c8ddf8"/>
  <rect x="5" y="4" width="1" height="1" fill="#f2fbff"/>
  <rect x="6" y="4" width="1" height="1" fill="#f8fcff"/>
  <rect x="7" y="4" width="1" height="1" fill="#f5f6ff"/>
  <rect x="8" y="4" width="1" height="1" fill="#fafeff"/>
  <rect x="9" y="4" width="1" height="1" fill="#c8d4ff"/>
  <rect x="10" y="4" width="1" height="1" fill="#859de7ad"/>
  <rect x="17" y="4" width="1" height="1" fill="#71a0eead"/>
  <rect x="18" y="4" width="5" height="1" fill="#71a0ee"/>
  <rect x="23" y="4" width="1" height="1" fill="#70a1ee"/>
  <rect x="24" y="4" width="1" height="1" fill="#69a4f0ad"/>
  <rect x="31" y="4" width="1" height="1" fill="#f9b62bad"/>
  <rect x="32" y="4" width="1" height="1" fill="#f7b631"/>
  <rect x="33" y="4" width="5" height="1" fill="#f5b635"/>
  <rect x="38" y="4" width="1" height="1" fill="#f5b635ad"/>
  <rect x="45" y="4" width="1" height="1" fill="#fbb033ad"/>
  <rect x="46" y="4" width="1" height="2" fill="#fdaf33"/>
  <rect x="47" y="4" width="1" height="1" fill="#fdb02f"/>
  <rect x="48" y="4" width="1" height="1" fill="#f8b427"/>
  <rect x="49" y="4" width="1" height="1" fill="#f8b425"/>
  <rect x="50" y="4" width="1" height="1" fill="#fdb02b"/>
  <rect x="51" y="4" width="1" height="1" fill="#fbb12b"/>
  <rect x="52" y="4" width="1" height="1" fill="#f6b427ad"/>
  <rect x="59" y="4" width="1" height="1" fill="#37a4a8ad"/>
  <rect x="60" y="4" width="3" height="1" fill="#37a4a8"/>
  <rect x="63" y="4" width="1" height="1" fill="#37a3aa"/>
  <rect x="64" y="4" width="1" height="1" fill="#38a4af"/>
  <rect x="65" y="4" width="1" height="1" fill="#37a4af"/>
  <rect x="66" y="4" width="1" height="1" fill="#32a8a9ad"/>
  <rect x="73" y="4" width="1" height="1" fill="#d57f1a"/>
  <rect x="74" y="4" width="1" height="1" fill="#ffcb6c"/>
  <rect x="75" y="4" width="1" height="1" fill="#ffd479"/>
  <rect x="76" y="4" width="1" height="1" fill="#ffcd6f"/>
  <rect x="77" y="4" width="1" height="1" fill="#ffce73"/>
  <rect x="78" y="4" width="1" height="1" fill="#ffcf7d"/>
  <rect x="79" y="4" width="1" height="1" fill="#ffcd7b"/>
  <rect x="80" y="4" width="1" height="1" fill="#d87620"/>
  <rect x="88" y="4" width="1" height="1" fill="#8264b9d4"/>
  <rect x="89" y="4" width="5" height="2" fill="#8065bb"/>
  <rect x="94" y="4" width="1" height="1" fill="#8065bbd4"/>
  <rect x="102" y="4" width="1" height="1" fill="#444943d4"/>
  <rect x="103" y="4" width="1" height="2" fill="#454845"/>
  <rect x="104" y="4" width="1" height="2" fill="#474747"/>
  <rect x="105" y="4" width="3" height="2" fill="#494649"/>
  <rect x="108" y="4" width="1" height="1" fill="#494649d4"/>
  <rect x="3" y="5" width="1" height="1" fill="#83a4d6f1"/>
  <rect x="4" y="5" width="1" height="1" fill="#edf9ff"/>
  <rect x="5" y="5" width="1" height="1" fill="#fdfeff"/>
  <rect x="6" y="5" width="1" height="1" fill="#fdf4ff"/>
  <rect x="7" y="5" width="1" height="1" fill="#fffaff"/>
  <rect x="8" y="5" width="1" height="1" fill="#f9f5ff"/>
  <rect x="9" y="5" width="1" height="1" fill="#e9f0ff"/>
  <rect x="10" y="5" width="1" height="1" fill="#8ea0eaf3"/>
  <rect x="17" y="5" width="1" height="1" fill="#739feef1"/>
  <rect x="18" y="5" width="5" height="1" fill="#739fee"/>
  <rect x="23" y="5" width="1" height="3" fill="#70a0f0"/>
  <rect x="24" y="5" width="1" height="1" fill="#68a4f2f3"/>
  <rect x="31" y="5" width="1" height="1" fill="#f9b62df1"/>
  <rect x="32" y="5" width="1" height="1" fill="#f5b731"/>
  <rect x="33" y="5" width="5" height="1" fill="#f4b733"/>
  <rect x="38" y="5" width="1" height="1" fill="#f4b733f3"/>
  <rect x="45" y="5" width="1" height="1" fill="#fbb02ff1"/>
  <rect x="47" y="5" width="1" height="1" fill="#fdaf31"/>
  <rect x="48" y="5" width="1" height="1" fill="#f9b22b"/>
  <rect x="49" y="5" width="1" height="1" fill="#f9b229"/>
  <rect x="50" y="5" width="2" height="1" fill="#fdb02b"/>
  <rect x="52" y="5" width="1" height="1" fill="#f6b427f3"/>
  <rect x="59" y="5" width="1" height="1" fill="#35a4aaf1"/>
  <rect x="60" y="5" width="3" height="1" fill="#35a4aa"/>
  <rect x="63" y="5" width="1" height="1" fill="#35a4ac"/>
  <rect x="64" y="5" width="1" height="1" fill="#35a4b3"/>
  <rect x="65" y="5" width="1" height="1" fill="#33a5b3"/>
  <rect x="66" y="5" width="1" height="1" fill="#32a7adf3"/>
  <rect x="73" y="5" width="1" height="1" fill="#be8a1c"/>
  <rect x="74" y="5" width="1" height="1" fill="#be8c24"/>
  <rect x="75" y="5" width="1" height="1" fill="#bd902b"/>
  <rect x="76" y="5" width="1" height="1" fill="#b18622"/>
  <rect x="77" y="5" width="1" height="1" fill="#ad8626"/>
  <rect x="78" y="5" width="1" height="1" fill="#aa892d"/>
  <rect x="79" y="5" width="1" height="1" fill="#af862d"/>
  <rect x="80" y="5" width="1" height="1" fill="#bf7f27"/>
  <rect x="88" y="5" width="1" height="1" fill="#8264b9f9"/>
  <rect x="94" y="5" width="1" height="1" fill="#8065bbf9"/>
  <rect x="102" y="5" width="1" height="1" fill="#454943f9"/>
  <rect x="108" y="5" width="1" height="1" fill="#494649f9"/>
  <rect x="3" y="6" width="1" height="1" fill="#83a2dcf1"/>
  <rect x="4" y="6" width="1" height="1" fill="#eef8ff"/>
  <rect x="5" y="6" width="1" height="1" fill="#fffdff"/>
  <rect x="6" y="6" width="1" height="1" fill="#fff2ff"/>
  <rect x="7" y="6" width="1" height="1" fill="#fff9ff"/>
  <rect x="8" y="6" width="1" height="1" fill="#fbf6ff"/>
  <rect x="9" y="6" width="1" height="1" fill="#eaf0ff"/>
  <rect x="10" y="6" width="1" height="1" fill="#8da1e6f3"/>
  <rect x="17" y="6" width="1" height="1" fill="#71a0eef1"/>
  <rect x="18" y="6" width="5" height="1" fill="#71a0ee"/>
  <rect x="24" y="6" width="1" height="1" fill="#6ba2f2f3"/>
  <rect x="31" y="6" width="1" height="1" fill="#f5b633f1"/>
  <rect x="32" y="6" width="6" height="1" fill="#f5b731"/>
  <rect x="38" y="6" width="1" height="1" fill="#f5b731f3"/>
  <rect x="45" y="6" width="1" height="1" fill="#f6b42bf1"/>
  <rect x="46" y="6" width="1" height="1" fill="#f8b22f"/>
  <rect x="47" y="6" width="1" height="1" fill="#f8b231"/>
  <rect x="48" y="6" width="1" height="1" fill="#f6b233"/>
  <rect x="49" y="6" width="1" height="1" fill="#f8b231"/>
  <rect x="50" y="6" width="1" height="2" fill="#f9b229"/>
  <rect x="51" y="6" width="1" height="1" fill="#f8b425"/>
  <rect x="52" y="6" width="1" height="1" fill="#f5b625f3"/>
  <rect x="59" y="6" width="1" height="1" fill="#31a5b0f1"/>
  <rect x="60" y="6" width="3" height="1" fill="#31a5b0"/>
  <rect x="63" y="6" width="1" height="1" fill="#32a4b0"/>
  <rect x="64" y="6" width="1" height="2" fill="#35a5b1"/>
  <rect x="65" y="6" width="1" height="1" fill="#35a5af"/>
  <rect x="66" y="6" width="1" height="1" fill="#37a5adf3"/>
  <rect x="73" y="6" width="1" height="1" fill="#95a235f1"/>
  <rect x="74" y="6" width="1" height="1" fill="#85962a"/>
  <rect x="75" y="6" width="1" height="1" fill="#8a9f36"/>
  <rect x="76" y="6" width="1" height="1" fill="#87a341"/>
  <rect x="77" y="6" width="1" height="1" fill="#83a243"/>
  <rect x="78" y="6" width="1" height="1" fill="#81a345"/>
  <rect x="79" y="6" width="1" height="1" fill="#83a140"/>
  <rect x="80" y="6" width="1" height="1" fill="#8c9d35f3"/>
  <rect x="88" y="6" width="1" height="1" fill="#8264b9d4"/>
  <rect x="89" y="6" width="5" height="1" fill="#8263bd"/>
  <rect x="94" y="6" width="1" height="1" fill="#8263bdd4"/>
  <rect x="102" y="6" width="1" height="1" fill="#454845d4"/>
  <rect x="103" y="6" width="1" height="2" fill="#454847"/>
  <rect x="104" y="6" width="4" height="1" fill="#474749"/>
  <rect x="108" y="6" width="1" height="1" fill="#474749d4"/>
  <rect x="3" y="7" width="1" height="1" fill="#84a0e2ad"/>
  <rect x="4" y="7" width="1" height="1" fill="#cdd9fe"/>
  <rect x="5" y="7" width="1" height="1" fill="#f7f8ff"/>
  <rect x="6" y="7" width="1" height="1" fill="#fef8ff"/>
  <rect x="7" y="7" width="1" height="1" fill="#faf3ff"/>
  <rect x="8" y="7" width="1" height="1" fill="#faffff"/>
  <rect x="9" y="7" width="1" height="1" fill="#c8d7fb"/>
  <rect x="10" y="7" width="1" height="1" fill="#859ee1ad"/>
  <rect x="17" y="7" width="1" height="1" fill="#71a0f0ad"/>
  <rect x="18" y="7" width="5" height="1" fill="#71a0f0"/>
  <rect x="24" y="7" width="1" height="1" fill="#6ea1f0ad"/>
  <rect x="31" y="7" width="1" height="1" fill="#f4b735ad"/>
  <rect x="32" y="7" width="1" height="1" fill="#f4b62e"/>
  <rect x="33" y="7" width="3" height="1" fill="#f4b62c"/>
  <rect x="36" y="7" width="2" height="1" fill="#f5b82d"/>
  <rect x="38" y="7" width="1" height="1" fill="#f5b82dad"/>
  <rect x="45" y="7" width="1" height="1" fill="#f6b42bad"/>
  <rect x="46" y="7" width="1" height="1" fill="#f6b32d"/>
  <rect x="47" y="7" width="1" height="1" fill="#f6b331"/>
  <rect x="48" y="7" width="1" height="1" fill="#f5b335"/>
  <rect x="49" y="7" width="1" height="1" fill="#f6b331"/>
  <rect x="51" y="7" width="1" height="1" fill="#f9b325"/>
  <rect x="52" y="7" width="1" height="1" fill="#f5b527ad"/>
  <rect x="59" y="7" width="1" height="1" fill="#31a5b2ad"/>
  <rect x="60" y="7" width="3" height="1" fill="#31a5b2"/>
  <rect x="63" y="7" width="1" height="1" fill="#32a4b2"/>
  <rect x="65" y="7" width="1" height="1" fill="#37a4af"/>
  <rect x="66" y="7" width="1" height="1" fill="#3aa3adad"/>
  <rect x="73" y="7" width="1" height="1" fill="#76a636f1"/>
  <rect x="74" y="7" width="1" height="2" fill="#74a638"/>
  <rect x="75" y="7" width="1" height="1" fill="#71a53b"/>
  <rect x="76" y="7" width="1" height="1" fill="#6ea742"/>
  <rect x="77" y="7" width="1" height="1" fill="#6ba846"/>
  <rect x="78" y="7" width="1" height="1" fill="#69a946"/>
  <rect x="79" y="7" width="1" height="1" fill="#6ca842"/>
  <rect x="80" y="7" width="1" height="1" fill="#71a637f3"/>
  <rect x="88" y="7" width="1" height="1" fill="#8163ba55"/>
  <rect x="89" y="7" width="1" height="1" fill="#8162bc"/>
  <rect x="90" y="7" width="2" height="1" fill="#8162be"/>
  <rect x="92" y="7" width="2" height="1" fill="#8263c1"/>
  <rect x="94" y="7" width="1" height="1" fill="#8263c157"/>
  <rect x="102" y="7" width="1" height="1" fill="#45484555"/>
  <rect x="104" y="7" width="1" height="1" fill="#464548"/>
  <rect x="105" y="7" width="3" height="1" fill="#474749"/>
  <rect x="108" y="7" width="1" height="1" fill="#47474957"/>
  <rect x="3" y="8" width="1" height="1" fill="#8ca2ed28"/>
  <rect x="4" y="8" width="1" height="1" fill="#8c9ddeef"/>
  <rect x="5" y="8" width="1" height="1" fill="#c6d4ff"/>
  <rect x="6" y="8" width="1" height="1" fill="#e9f8ff"/>
  <rect x="7" y="8" width="1" height="1" fill="#e3f4ff"/>
  <rect x="8" y="8" width="1" height="1" fill="#bad2ff"/>
  <rect x="9" y="8" width="1" height="1" fill="#89a8e2ef"/>
  <rect x="10" y="8" width="1" height="1" fill="#85acee28"/>
  <rect x="17" y="8" width="1" height="1" fill="#70a0f228"/>
  <rect x="18" y="8" width="1" height="1" fill="#70a0f2ef"/>
  <rect x="19" y="8" width="4" height="1" fill="#70a0f2"/>
  <rect x="23" y="8" width="1" height="1" fill="#70a0f0ef"/>
  <rect x="24" y="8" width="1" height="1" fill="#719de928"/>
  <rect x="31" y="8" width="1" height="1" fill="#f4b82f28"/>
  <rect x="32" y="8" width="1" height="1" fill="#f4b72aef"/>
  <rect x="33" y="8" width="3" height="1" fill="#f6b726"/>
  <rect x="36" y="8" width="1" height="1" fill="#f7b827"/>
  <rect x="37" y="8" width="1" height="1" fill="#f6b726ef"/>
  <rect x="38" y="8" width="1" height="1" fill="#f0b12028"/>
  <rect x="45" y="8" width="1" height="1" fill="#f5af2e28"/>
  <rect x="46" y="8" width="1" height="1" fill="#f7af2cef"/>
  <rect x="47" y="8" width="1" height="1" fill="#f2ac29"/>
  <rect x="48" y="8" width="1" height="1" fill="#f4b62e"/>
  <rect x="49" y="8" width="1" height="1" fill="#f9b931"/>
  <rect x="50" y="8" width="1" height="1" fill="#f6a926"/>
  <rect x="51" y="8" width="1" height="1" fill="#ffb330ef"/>
  <rect x="52" y="8" width="1" height="1" fill="#edaa2128"/>
  <rect x="59" y="8" width="1" height="1" fill="#35a5b128"/>
  <rect x="60" y="8" width="1" height="1" fill="#35a5b1ef"/>
  <rect x="61" y="8" width="2" height="1" fill="#35a5b1"/>
  <rect x="63" y="8" width="1" height="1" fill="#35a4b3"/>
  <rect x="64" y="8" width="1" height="1" fill="#33a0b2"/>
  <rect x="65" y="8" width="1" height="1" fill="#38a3b3ef"/>
  <rect x="66" y="8" width="1" height="1" fill="#39a0a928"/>
  <rect x="73" y="8" width="1" height="1" fill="#72a436ad"/>
  <rect x="75" y="8" width="1" height="1" fill="#74a63a"/>
  <rect x="76" y="8" width="1" height="1" fill="#74a73d"/>
  <rect x="77" y="8" width="1" height="1" fill="#72a83d"/>
  <rect x="78" y="8" width="1" height="1" fill="#73a93e"/>
  <rect x="79" y="8" width="1" height="1" fill="#75a93c"/>
  <rect x="80" y="8" width="1" height="1" fill="#77a737ad"/>
  <rect x="89" y="8" width="1" height="1" fill="#8061bd57"/>
  <rect x="90" y="8" width="1" height="1" fill="#8060bfd6"/>
  <rect x="91" y="8" width="1" height="1" fill="#8060c1fa"/>
  <rect x="92" y="8" width="1" height="1" fill="#8363c9d6"/>
  <rect x="93" y="8" width="1" height="1" fill="#8160c857"/>
  <rect x="103" y="8" width="1" height="1" fill="#42454257"/>
  <rect x="104" y="8" width="1" height="1" fill="#454545d6"/>
  <rect x="105" y="8" width="1" height="1" fill="#444346fa"/>
  <rect x="106" y="8" width="1" height="1" fill="#454447d6"/>
  <rect x="107" y="8" width="1" height="1" fill="#46454857"/>
  <rect x="4" y="9" width="1" height="1" fill="#869edf27"/>
  <rect x="5" y="9" width="1" height="1" fill="#89a4e0ad"/>
  <rect x="6" y="9" width="1" height="1" fill="#88a4d8f2"/>
  <rect x="7" y="9" width="1" height="1" fill="#7fa0d2f2"/>
  <rect x="8" y="9" width="1" height="1" fill="#7fa0dcad"/>
  <rect x="9" y="9" width="1" height="1" fill="#84a9e827"/>
  <rect x="18" y="9" width="1" height="1" fill="#6ea1f227"/>
  <rect x="19" y="9" width="1" height="1" fill="#6ea1f2ad"/>
  <rect x="20" y="9" width="2" height="1" fill="#6ea1f2f2"/>
  <rect x="22" y="9" width="1" height="1" fill="#6ea1f2ad"/>
  <rect x="23" y="9" width="1" height="1" fill="#70a0f027"/>
  <rect x="32" y="9" width="1" height="1" fill="#f5b52727"/>
  <rect x="33" y="9" width="1" height="1" fill="#f5b527ad"/>
  <rect x="34" y="9" width="2" height="1" fill="#f5b527f2"/>
  <rect x="36" y="9" width="1" height="1" fill="#f6b628ad"/>
  <rect x="37" y="9" width="1" height="1" fill="#febf3027"/>
  <rect x="46" y="9" width="1" height="1" fill="#dbbd6127"/>
  <rect x="47" y="9" width="1" height="1" fill="#d0b553ad"/>
  <rect x="48" y="9" width="1" height="1" fill="#d3bf56f2"/>
  <rect x="49" y="9" width="1" height="1" fill="#d1bb53f2"/>
  <rect x="50" y="9" width="1" height="1" fill="#d8b558ad"/>
  <rect x="51" y="9" width="1" height="1" fill="#dfba5e27"/>
  <rect x="60" y="9" width="1" height="1" fill="#38a4af27"/>
  <rect x="61" y="9" width="1" height="1" fill="#38a4afad"/>
  <rect x="62" y="9" width="2" height="1" fill="#38a4aff2"/>
  <rect x="64" y="9" width="1" height="1" fill="#35a0aead"/>
  <rect x="65" y="9" width="1" height="1" fill="#27909c27"/>
  <rect x="73" y="9" width="1" height="1" fill="#71a63728"/>
  <rect x="74" y="9" width="1" height="1" fill="#71a637ef"/>
  <rect x="75" y="9" width="4" height="1" fill="#71a637"/>
  <rect x="79" y="9" width="1" height="1" fill="#71a637ef"/>
  <rect x="80" y="9" width="1" height="1" fill="#6d9f2f28"/>
  <rect x="88" y="9" width="1" height="1" fill="#7e5fc063"/>
  <rect x="89" y="9" width="1" height="1" fill="#7e5fbeb4"/>
  <rect x="90" y="9" width="1" height="1" fill="#7e5fc0e6"/>
  <rect x="91" y="9" width="1" height="1" fill="#7e5ec4f7"/>
  <rect x="93" y="9" width="1" height="1" fill="#5e3cab"/>
  <rect x="94" y="9" width="1" height="1" fill="#6643b6"/>
  <rect x="95" y="9" width="1" height="1" fill="#5f3eb4"/>
  <rect x="96" y="9" width="1" height="1" fill="#5738b0"/>
  <rect x="102" y="9" width="1" height="1" fill="#42454263"/>
  <rect x="103" y="9" width="1" height="1" fill="#404642b4"/>
  <rect x="104" y="9" width="1" height="1" fill="#444746e6"/>
  <rect x="105" y="9" width="1" height="1" fill="#414143f7"/>
  <rect x="107" y="9" width="1" height="1" fill="#373639"/>
  <rect x="108" y="9" width="1" height="1" fill="#302f32"/>
  <rect x="109" y="9" width="1" height="1" fill="#323234"/>
  <rect x="110" y="9" width="1" height="1" fill="#363538"/>
  <rect x="2" y="10" width="1" height="1" fill="#86a6e20a"/>
  <rect x="3" y="10" width="1" height="1" fill="#80a1d476"/>
  <rect x="4" y="10" width="1" height="1" fill="#83a5cec8"/>
  <rect x="5" y="10" width="1" height="1" fill="#7ea1c5eb"/>
  <rect x="6" y="10" width="1" height="1" fill="#7fa2c6fa"/>
  <rect x="7" y="10" width="1" height="1" fill="#85a8cefa"/>
  <rect x="8" y="10" width="1" height="1" fill="#7ea0cdeb"/>
  <rect x="9" y="10" width="1" height="1" fill="#88abdfc9"/>
  <rect x="10" y="10" width="1" height="1" fill="#81a5df7c"/>
  <rect x="11" y="10" width="1" height="1" fill="#759ddd0b"/>
  <rect x="16" y="10" width="1" height="1" fill="#6ea0f40a"/>
  <rect x="17" y="10" width="1" height="1" fill="#70a0f476"/>
  <rect x="18" y="10" width="1" height="1" fill="#70a0f4c8"/>
  <rect x="19" y="10" width="1" height="1" fill="#70a0f4eb"/>
  <rect x="20" y="10" width="2" height="1" fill="#70a0f4fa"/>
  <rect x="22" y="10" width="1" height="1" fill="#70a0f4eb"/>
  <rect x="23" y="10" width="1" height="1" fill="#70a0f2c9"/>
  <rect x="24" y="10" width="1" height="1" fill="#71a3f27c"/>
  <rect x="25" y="10" width="1" height="1" fill="#71a2ef0b"/>
  <rect x="30" y="10" width="1" height="1" fill="#f6b5230a"/>
  <rect x="31" y="10" width="1" height="1" fill="#f8b42576"/>
  <rect x="32" y="10" width="1" height="1" fill="#f6b429c8"/>
  <rect x="33" y="10" width="1" height="1" fill="#f5b42deb"/>
  <rect x="34" y="10" width="1" height="1" fill="#f5b42dfa"/>
  <rect x="36" y="10" width="1" height="1" fill="#db9a13"/>
  <rect x="40" y="10" width="1" height="1" fill="#c99718"/>
  <rect x="44" y="10" width="1" height="1" fill="#5699820a"/>
  <rect x="45" y="10" width="1" height="1" fill="#5c9b8676"/>
  <rect x="46" y="10" width="1" height="1" fill="#59927fc8"/>
  <rect x="47" y="10" width="1" height="1" fill="#5c977eeb"/>
  <rect x="48" y="10" width="1" height="1" fill="#61a182fa"/>
  <rect x="50" y="10" width="1" height="1" fill="#3c725b"/>
  <rect x="54" y="10" width="1" height="1" fill="#2e7c76"/>
  <rect x="58" y="10" width="1" height="1" fill="#3aa4ab0a"/>
  <rect x="59" y="10" width="1" height="1" fill="#3aa4ab76"/>
  <rect x="60" y="10" width="1" height="1" fill="#3aa4abc8"/>
  <rect x="61" y="10" width="1" height="1" fill="#3aa4abeb"/>
  <rect x="62" y="10" width="1" height="1" fill="#3aa4abfa"/>
  <rect x="64" y="10" width="1" height="1" fill="#006664"/>
  <rect x="68" y="10" width="1" height="1" fill="#0c586c"/>
  <rect x="74" y="10" width="1" height="1" fill="#6da83927"/>
  <rect x="75" y="10" width="1" height="1" fill="#6aa536ad"/>
  <rect x="76" y="10" width="1" height="1" fill="#69a435f2"/>
  <rect x="77" y="10" width="1" height="1" fill="#68a334f2"/>
  <rect x="78" y="10" width="1" height="1" fill="#68a334ad"/>
  <rect x="79" y="10" width="1" height="1" fill="#68a33427"/>
  <rect x="86" y="10" width="1" height="1" fill="#835fbb1c"/>
  <rect x="87" y="10" width="1" height="1" fill="#835fbfd0"/>
  <rect x="88" y="10" width="1" height="1" fill="#7e5fc0"/>
  <rect x="89" y="10" width="1" height="1" fill="#7d5fc2"/>
  <rect x="90" y="10" width="1" height="1" fill="#7d5fc4"/>
  <rect x="91" y="10" width="1" height="1" fill="#7d5ec8"/>
  <rect x="93" y="10" width="1" height="1" fill="#5d3db1"/>
  <rect x="96" y="10" width="1" height="1" fill="#5b3bb8"/>
  <rect x="100" y="10" width="1" height="1" fill="#4543421c"/>
  <rect x="101" y="10" width="1" height="1" fill="#44443fd0"/>
  <rect x="102" y="10" width="1" height="1" fill="#424446"/>
  <rect x="103" y="10" width="1" height="1" fill="#404448"/>
  <rect x="104" y="10" width="1" height="1" fill="#454749"/>
  <rect x="105" y="10" width="1" height="1" fill="#3e4042"/>
  <rect x="107" y="10" width="1" height="1" fill="#2f3133"/>
  <rect x="110" y="10" width="1" height="1" fill="#36383a"/>
  <rect x="2" y="11" width="1" height="1" fill="#7292cec8"/>
  <rect x="3" y="11" width="1" height="1" fill="#aaccf8"/>
  <rect x="4" y="11" width="1" height="1" fill="#d1f5ff"/>
  <rect x="5" y="11" width="1" height="1" fill="#daffff"/>
  <rect x="6" y="11" width="1" height="1" fill="#deffff"/>
  <rect x="7" y="11" width="1" height="1" fill="#dafeff"/>
  <rect x="8" y="11" width="1" height="1" fill="#d7f7ff"/>
  <rect x="9" y="11" width="1" height="1" fill="#caebff"/>
  <rect x="10" y="11" width="1" height="1" fill="#a9cbff"/>
  <rect x="11" y="11" width="1" height="1" fill="#83a8e7d0"/>
  <rect x="16" y="11" width="1" height="1" fill="#6ea0f4c8"/>
  <rect x="17" y="11" width="6" height="1" fill="#70a0f2"/>
  <rect x="23" y="11" width="1" height="1" fill="#6ea1f2"/>
  <rect x="24" y="11" width="1" height="1" fill="#6fa2f1"/>
  <rect x="25" y="11" width="1" height="1" fill="#6fa3efd0"/>
  <rect x="30" y="11" width="1" height="1" fill="#f4b11fc8"/>
  <rect x="31" y="11" width="1" height="1" fill="#f7b124"/>
  <rect x="32" y="11" width="1" height="1" fill="#f8b22d"/>
  <rect x="33" y="11" width="2" height="1" fill="#f6b32f"/>
  <rect x="36" y="11" width="1" height="1" fill="#d6920e"/>
  <rect x="37" y="11" width="1" height="1" fill="#d89511"/>
  <rect x="39" y="11" width="1" height="1" fill="#d3920d"/>
  <rect x="40" y="11" width="1" height="1" fill="#d39914"/>
  <rect x="44" y="11" width="1" height="1" fill="#37a8afc8"/>
  <rect x="45" y="11" width="1" height="1" fill="#37a7b1"/>
  <rect x="46" y="11" width="1" height="1" fill="#34a2ad"/>
  <rect x="47" y="11" width="1" height="1" fill="#3aa6af"/>
  <rect x="48" y="11" width="1" height="1" fill="#39a6aa"/>
  <rect x="50" y="11" width="2" height="1" fill="#177f87"/>
  <rect x="53" y="11" width="1" height="1" fill="#188486"/>
  <rect x="54" y="11" width="1" height="1" fill="#158485"/>
  <rect x="58" y="11" width="1" height="1" fill="#3aa4a9c8"/>
  <rect x="59" y="11" width="4" height="1" fill="#3aa4a9"/>
  <rect x="64" y="11" width="1" height="1" fill="#005e56"/>
  <rect x="65" y="11" width="1" height="1" fill="#006761"/>
  <rect x="67" y="11" width="1" height="1" fill="#016170"/>
  <rect x="68" y="11" width="1" height="1" fill="#005063"/>
  <rect x="72" y="11" width="1" height="1" fill="#6ca5400a"/>
  <rect x="73" y="11" width="1" height="1" fill="#6ca63a76"/>
  <rect x="74" y="11" width="1" height="1" fill="#6ca63ac8"/>
  <rect x="75" y="11" width="1" height="1" fill="#69a437eb"/>
  <rect x="76" y="11" width="1" height="1" fill="#69a437fa"/>
  <rect x="78" y="11" width="1" height="1" fill="#619c2f"/>
  <rect x="82" y="11" width="1" height="1" fill="#5d8f2c"/>
  <rect x="86" y="11" width="1" height="1" fill="#8360b9cb"/>
  <rect x="87" y="11" width="1" height="1" fill="#8161b9"/>
  <rect x="88" y="11" width="1" height="1" fill="#7d60bc"/>
  <rect x="89" y="11" width="1" height="1" fill="#7a61c0"/>
  <rect x="90" y="11" width="1" height="1" fill="#7a60c4"/>
  <rect x="91" y="11" width="1" height="1" fill="#7a60c8"/>
  <rect x="93" y="11" width="1" height="1" fill="#5b40b0"/>
  <rect x="94" y="11" width="1" height="1" fill="#5e42b6"/>
  <rect x="95" y="11" width="1" height="1" fill="#5839b1"/>
  <rect x="96" y="11" width="1" height="1" fill="#5d3dba"/>
  <rect x="100" y="11" width="1" height="1" fill="#45433fcb"/>
  <rect x="101" y="11" width="1" height="1" fill="#44443f"/>
  <rect x="102" y="11" width="1" height="1" fill="#424448"/>
  <rect x="103" y="11" width="1" height="1" fill="#40444a"/>
  <rect x="104" y="11" width="1" height="1" fill="#44464a"/>
  <rect x="105" y="11" width="1" height="1" fill="#404243"/>
  <rect x="107" y="11" width="1" height="1" fill="#36383a"/>
  <rect x="108" y="11" width="1" height="1" fill="#333536"/>
  <rect x="109" y="11" width="1" height="1" fill="#343638"/>
  <rect x="110" y="11" width="1" height="1" fill="#353739"/>
  <rect x="1" y="12" width="1" height="1" fill="#899df16a"/>
  <rect x="2" y="12" width="1" height="1" fill="#a7bfff"/>
  <rect x="3" y="12" width="1" height="1" fill="#e8ffff"/>
  <rect x="4" y="12" width="1" height="1" fill="#e5ffff"/>
  <rect x="5" y="12" width="3" height="1" fill="#e3ffff"/>
  <rect x="8" y="12" width="1" height="1" fill="#e2ffff"/>
  <rect x="9" y="12" width="1" height="1" fill="#e6ffff"/>
  <rect x="10" y="12" width="1" height="1" fill="#dfffff"/>
  <rect x="11" y="12" width="1" height="1" fill="#a6cfff"/>
  <rect x="12" y="12" width="1" height="1" fill="#76a1e56d"/>
  <rect x="15" y="12" width="1" height="1" fill="#6ea2f76a"/>
  <rect x="16" y="12" width="1" height="1" fill="#6da2f2"/>
  <rect x="17" y="12" width="6" height="1" fill="#6ea1f0"/>
  <rect x="23" y="12" width="1" height="1" fill="#6ea2ee"/>
  <rect x="24" y="12" width="1" height="1" fill="#72a3f0"/>
  <rect x="25" y="12" width="1" height="1" fill="#6d9be9"/>
  <rect x="26" y="12" width="1" height="1" fill="#73a1f16d"/>
  <rect x="29" y="12" width="1" height="1" fill="#f2b3266a"/>
  <rect x="30" y="12" width="1" height="1" fill="#fab72e"/>
  <rect x="31" y="12" width="1" height="1" fill="#f4af29"/>
  <rect x="32" y="12" width="1" height="1" fill="#f9b12f"/>
  <rect x="33" y="12" width="2" height="1" fill="#fbb02f"/>
  <rect x="36" y="12" width="1" height="1" fill="#df9513"/>
  <rect x="38" y="12" width="1" height="1" fill="#de9312"/>
  <rect x="40" y="12" width="1" height="1" fill="#d39519"/>
  <rect x="43" y="12" width="1" height="1" fill="#37a8ad6a"/>
  <rect x="44" y="12" width="1" height="1" fill="#2fa5ab"/>
  <rect x="45" y="12" width="1" height="1" fill="#2ea6ab"/>
  <rect x="46" y="12" width="1" height="1" fill="#2ea6a9"/>
  <rect x="47" y="12" width="1" height="1" fill="#2fa6a7"/>
  <rect x="48" y="12" width="1" height="1" fill="#3aabae"/>
  <rect x="50" y="12" width="1" height="1" fill="#138583"/>
  <rect x="52" y="12" width="1" height="1" fill="#158487"/>
  <rect x="54" y="12" width="1" height="1" fill="#1a848c"/>
  <rect x="57" y="12" width="1" height="1" fill="#39a5ac6a"/>
  <rect x="58" y="12" width="5" height="1" fill="#39a5ac"/>
  <rect x="64" y="12" width="1" height="1" fill="#005b59"/>
  <rect x="66" y="12" width="1" height="1" fill="#01646b"/>
  <rect x="68" y="12" width="1" height="1" fill="#055d66"/>
  <rect x="72" y="12" width="1" height="1" fill="#6da53ec8"/>
  <rect x="73" y="12" width="1" height="1" fill="#70a33c"/>
  <rect x="74" y="12" width="3" height="1" fill="#6fa23a"/>
  <rect x="78" y="12" width="1" height="1" fill="#61942c"/>
  <rect x="79" y="12" width="1" height="1" fill="#568823"/>
  <rect x="81" y="12" width="1" height="1" fill="#608c30"/>
  <rect x="82" y="12" width="1" height="1" fill="#608d2c"/>
  <rect x="85" y="12" width="1" height="1" fill="#8061b95d"/>
  <rect x="86" y="12" width="1" height="1" fill="#8062b5"/>
  <rect x="87" y="12" width="1" height="1" fill="#7e63b5"/>
  <rect x="88" y="12" width="1" height="1" fill="#7a63b8"/>
  <rect x="89" y="12" width="1" height="1" fill="#7863ba"/>
  <rect x="90" y="12" width="1" height="1" fill="#7862be"/>
  <rect x="91" y="12" width="1" height="1" fill="#7862c2"/>
  <rect x="93" y="12" width="1" height="1" fill="#5e47ae"/>
  <rect x="95" y="12" width="1" height="1" fill="#5b40b2"/>
  <rect x="99" y="12" width="1" height="1" fill="#4c444b5d"/>
  <rect x="100" y="12" width="1" height="1" fill="#423e3d"/>
  <rect x="101" y="12" width="1" height="1" fill="#3f3f3d"/>
  <rect x="102" y="12" width="1" height="1" fill="#3d3f41"/>
  <rect x="103" y="12" width="1" height="1" fill="#3d3f43"/>
  <rect x="104" y="12" width="1" height="1" fill="#3e4042"/>
  <rect x="105" y="12" width="1" height="1" fill="#3b3d3f"/>
  <rect x="107" y="12" width="1" height="1" fill="#323435"/>
  <rect x="109" y="12" width="1" height="1" fill="#353739"/>
  <rect x="1" y="13" width="1" height="1" fill="#909fdecf"/>
  <rect x="2" y="13" width="1" height="1" fill="#8c9cd0"/>
  <rect x="3" y="13" width="1" height="1" fill="#8c9ec8"/>
  <rect x="4" y="13" width="1" height="1" fill="#8a9ebe"/>
  <rect x="5" y="13" width="2" height="1" fill="#8a9fba"/>
  <rect x="7" y="13" width="1" height="1" fill="#889db8"/>
  <rect x="8" y="13" width="1" height="1" fill="#859cb7"/>
  <rect x="9" y="13" width="1" height="1" fill="#879dba"/>
  <rect x="10" y="13" width="1" height="1" fill="#8da7c7"/>
  <rect x="11" y="13" width="1" height="1" fill="#84a2ca"/>
  <rect x="12" y="13" width="1" height="1" fill="#86a8d5d0"/>
  <rect x="15" y="13" width="1" height="1" fill="#7ea9e4cf"/>
  <rect x="16" y="13" width="1" height="1" fill="#78a0db"/>
  <rect x="17" y="13" width="7" height="1" fill="#79a0d9"/>
  <rect x="24" y="13" width="1" height="1" fill="#7fa1da"/>
  <rect x="25" y="13" width="1" height="1" fill="#7a9cd7"/>
  <rect x="26" y="13" width="1" height="1" fill="#7da1e0d0"/>
  <rect x="29" y="13" width="1" height="1" fill="#e6b24dcf"/>
  <rect x="30" y="13" width="1" height="1" fill="#e7b652"/>
  <rect x="31" y="13" width="1" height="1" fill="#e4b050"/>
  <rect x="32" y="13" width="1" height="1" fill="#e8ae4e"/>
  <rect x="33" y="13" width="2" height="1" fill="#e9ae4e"/>
  <rect x="36" y="13" width="1" height="1" fill="#cd9232"/>
  <rect x="40" y="13" width="1" height="1" fill="#c09435"/>
  <rect x="43" y="13" width="1" height="1" fill="#4ba5a9cf"/>
  <rect x="44" y="13" width="1" height="1" fill="#419e9f"/>
  <rect x="45" y="13" width="3" height="1" fill="#419f9d"/>
  <rect x="48" y="13" width="1" height="1" fill="#439c9b"/>
  <rect x="50" y="13" width="1" height="1" fill="#267d7d"/>
  <rect x="54" y="13" width="1" height="1" fill="#2c7c86"/>
  <rect x="57" y="13" width="1" height="1" fill="#499fa2cf"/>
  <rect x="58" y="13" width="5" height="1" fill="#499fa2"/>
  <rect x="64" y="13" width="1" height="1" fill="#115d5a"/>
  <rect x="68" y="13" width="1" height="1" fill="#0f545a"/>
  <rect x="71" y="13" width="1" height="1" fill="#6998496a"/>
  <rect x="72" y="13" width="1" height="1" fill="#749c4f"/>
  <rect x="73" y="13" width="3" height="1" fill="#769b4f"/>
  <rect x="76" y="13" width="1" height="1" fill="#749a4d"/>
  <rect x="78" y="13" width="1" height="1" fill="#6a8f43"/>
  <rect x="80" y="13" width="1" height="1" fill="#668640"/>
  <rect x="82" y="13" width="1" height="1" fill="#64873e"/>
  <rect x="85" y="13" width="1" height="1" fill="#7b67a7c7"/>
  <rect x="86" y="13" width="2" height="1" fill="#7969a5"/>
  <rect x="88" y="13" width="1" height="1" fill="#7365a0"/>
  <rect x="89" y="13" width="1" height="1" fill="#7166a0"/>
  <rect x="90" y="13" width="1" height="1" fill="#7165a4"/>
  <rect x="91" y="13" width="1" height="1" fill="#7164a8"/>
  <rect x="93" y="13" width="1" height="1" fill="#584995"/>
  <rect x="95" y="13" width="1" height="1" fill="#5c499f"/>
  <rect x="96" y="13" width="1" height="1" fill="#583e9b"/>
  <rect x="99" y="13" width="1" height="1" fill="#413941c7"/>
  <rect x="100" y="13" width="1" height="1" fill="#433e40"/>
  <rect x="101" y="13" width="1" height="1" fill="#42403e"/>
  <rect x="102" y="13" width="1" height="1" fill="#40403e"/>
  <rect x="103" y="13" width="1" height="1" fill="#3e4140"/>
  <rect x="104" y="13" width="1" height="1" fill="#3c3e40"/>
  <rect x="105" y="13" width="1" height="1" fill="#3a3c3d"/>
  <rect x="107" y="13" width="1" height="1" fill="#343638"/>
  <rect x="109" y="13" width="2" height="1" fill="#353739"/>
</svg>