<svg xmlns="http://www.w3.org/2000/svg" width="16" height="16" viewBox="0 0 16 16" shape-rendering="crispEdges">
  <rect x="5" y="0" width="1" height="1" fill="#44b4e050"/>
  <rect x="6" y="0" width="1" height="1" fill="#44b4dcbf"/>
  <rect x="7" y="0" width="1" height="1" fill="#44b5daf4"/>
  <rect x="8" y="0" width="1" height="1" fill="#43b6d8f2"/>
  <rect x="9" y="0" width="1" height="1" fill="#43b6dabc"/>
  <rect x="10" y="0" width="1" height="1" fill="#44b4e048"/>
  <rect x="4" y="1" width="1" height="1" fill="#53aed68e"/>
  <rect x="5" y="1" width="1" height="1" fill="#44b3e2"/>
  <rect x="6" y="1" width="1" height="1" fill="#44b4dc"/>
  <rect x="7" y="1" width="1" height="1" fill="#44b5da"/>
  <rect x="8" y="1" width="1" height="1" fill="#44b5d8"/>
  <rect x="9" y="1" width="1" height="1" fill="#44b4dc"/>
  <rect x="10" y="1" width="1" height="1" fill="#44b3e2"/>
  <rect x="11" y="1" width="1" height="1" fill="#53aed680"/>
  <rect x="3" y="2" width="1" height="1" fill="#4eafd353"/>
  <rect x="4" y="2" width="1" height="1" fill="#46b2e2"/>
  <rect x="5" y="2" width="1" height="1" fill="#43b3e6f5"/>
  <rect x="6" y="2" width="1" height="1" fill="#46b3de66"/>
  <rect x="7" y="2" width="1" height="1" fill="#46b4da0b"/>
  <rect x="8" y="2" width="1" height="1" fill="#46b4d80d"/>
  <rect x="9" y="2" width="1" height="1" fill="#46b3dc6b"/>
  <rect x="10" y="2" width="1" height="1" fill="#43b3e6f8"/>
  <rect x="11" y="2" width="1" height="1" fill="#46b2e2"/>
  <rect x="12" y="2" width="1" height="1" fill="#4eafd349"/>
  <rect x="3" y="3" width="1" height="1" fill="#3db6dfc6"/>
  <rect x="4" y="3" width="1" height="1" fill="#3eb3e7"/>
  <rect x="5" y="3" width="1" height="1" fill="#46b0e362"/>
  <rect x="10" y="3" width="1" height="1" fill="#46b0e173"/>
  <rect x="11" y="3" width="1" height="1" fill="#3eb3e7"/>
  <rect x="12" y="3" width="1" height="1" fill="#3db6dfb9"/>
  <rect x="3" y="4" width="1" height="1" fill="#3bb7ddf9"/>
  <rect x="4" y="4" width="1" height="1" fill="#3db4e5fc"/>
  <rect x="10" y="4" width="1" height="1" fill="#50add90d"/>
  <rect x="11" y="4" width="1" height="1" fill="#3db4e5"/>
  <rect x="12" y="4" width="1" height="1" fill="#3bb7ddee"/>
  <rect x="3" y="5" width="1" height="1" fill="#3bb6e1f9"/>
  <rect x="4" y="5" width="1" height="1" fill="#38b5e4fb"/>
  <rect x="10" y="5" width="1" height="1" fill="#4caed80b"/>
  <rect x="11" y="5" width="1" height="1" fill="#38b5e4"/>
  <rect x="12" y="5" width="1" height="1" fill="#3bb6e1f1"/>
  <rect x="3" y="6" width="1" height="1" fill="#3eb3e9c5"/>
  <rect x="4" y="6" width="1" height="1" fill="#35b6e6"/>
  <rect x="5" y="6" width="1" height="1" fill="#3cb4e05e"/>
  <rect x="10" y="6" width="1" height="1" fill="#3cb4e066"/>
  <rect x="11" y="6" width="1" height="1" fill="#35b6e6"/>
  <rect x="12" y="6" width="1" height="1" fill="#3eb3e9ba"/>
  <rect x="3" y="7" width="1" height="1" fill="#3eafe953"/>
  <rect x="4" y="7" width="1" height="1" fill="#36b4e5"/>
  <rect x="5" y="7" width="1" height="1" fill="#34b6e1f5"/>
  <rect x="6" y="7" width="1" height="1" fill="#3bb3dc69"/>
  <rect x="7" y="7" width="1" height="1" fill="#3eb2dc0d"/>
  <rect x="8" y="7" width="1" height="1" fill="#3cb2dc0e"/>
  <rect x="9" y="7" width="1" height="1" fill="#39b4df6e"/>
  <rect x="10" y="7" width="1" height="1" fill="#33b6e3f7"/>
  <rect x="11" y="7" width="1" height="1" fill="#33b6e5"/>
  <rect x="12" y="7" width="1" height="1" fill="#3bb1e746"/>
  <rect x="4" y="8" width="1" height="1" fill="#3bb3e1ab"/>
  <rect x="5" y="8" width="1" height="1" fill="#3bb3dc"/>
  <rect x="6" y="8" width="1" height="1" fill="#3cb3d8"/>
  <rect x="7" y="8" width="1" height="1" fill="#3cb4d6"/>
  <rect x="8" y="8" width="1" height="1" fill="#39b5d6"/>
  <rect x="9" y="8" width="1" height="1" fill="#36b6da"/>
  <rect x="10" y="8" width="1" height="1" fill="#34b6df"/>
  <rect x="11" y="8" width="1" height="1" fill="#33b7e1a1"/>
  <rect x="3" y="9" width="1" height="1" fill="#3baee296"/>
  <rect x="4" y="9" width="1" height="1" fill="#3bb1dffd"/>
  <rect x="5" y="9" width="1" height="1" fill="#39b2db"/>
  <rect x="6" y="9" width="1" height="1" fill="#39b3d5"/>
  <rect x="7" y="9" width="1" height="1" fill="#38b5d3"/>
  <rect x="8" y="9" width="1" height="1" fill="#36b5d5"/>
  <rect x="9" y="9" width="1" height="1" fill="#36b4d9"/>
  <rect x="10" y="9" width="1" height="1" fill="#36b4db"/>
  <rect x="11" y="9" width="1" height="1" fill="#33b5ddfd"/>
  <rect x="12" y="9" width="1" height="1" fill="#2db6dc95"/>
  <rect x="1" y="10" width="1" height="1" fill="#4ba8d60a"/>
  <rect x="2" y="10" width="1" height="1" fill="#47a9dec1"/>
  <rect x="3" y="10" width="1" height="1" fill="#40abe2"/>
  <rect x="4" y="10" width="1" height="1" fill="#39b1e1fb"/>
  <rect x="5" y="10" width="1" height="1" fill="#36b4db9a"/>
  <rect x="6" y="10" width="1" height="1" fill="#33b7d340"/>
  <rect x="7" y="10" width="1" height="1" fill="#33b7d318"/>
  <rect x="8" y="10" width="1" height="1" fill="#36b4d919"/>
  <rect x="9" y="10" width="1" height="1" fill="#38b3dd41"/>
  <rect x="10" y="10" width="1" height="1" fill="#39b2db9d"/>
  <rect x="11" y="10" width="1" height="1" fill="#36b4dbfb"/>
  <rect x="12" y="10" width="1" height="1" fill="#30b6df"/>
  <rect x="13" y="10" width="1" height="1" fill="#38b3dbbc"/>
  <rect x="1" y="11" width="1" height="1" fill="#3aabe798"/>
  <rect x="2" y="11" width="1" height="1" fill="#3fa9e5"/>
  <rect x="3" y="11" width="1" height="1" fill="#42a9dfea"/>
  <rect x="4" y="11" width="1" height="1" fill="#45aad335"/>
  <rect x="0" y="12" width="1" height="1" fill="#3aabe930"/>
  <rect x="1" y="12" width="1" height="1" fill="#39ace7fe"/>
  <rect x="2" y="12" width="1" height="1" fill="#37ade7fc"/>
  <rect x="3" y="12" width="1" height="1" fill="#45a9d73c"/>
  <rect x="12" y="12" width="1" height="1" fill="#36b3e1e7"/>
  <rect x="13" y="12" width="1" height="1" fill="#36b2e542"/>
  <rect x="14" y="12" width="1" height="1" fill="#3dafe342"/>
  <rect x="15" y="12" width="1" height="1" fill="#40aee1e6"/>
  <rect x="0" y="13" width="1" height="1" fill="#39aae696"/>
  <rect x="1" y="13" width="1" height="1" fill="#36ace6"/>
  <rect x="2" y="13" width="1" height="1" fill="#33aee4a2"/>
  <rect x="12" y="13" width="1" height="1" fill="#3bb0e1"/>
  <rect x="13" y="13" width="1" height="1" fill="#3bafe5e9"/>
  <rect x="14" y="13" width="1" height="1" fill="#3dafe3e9"/>
  <rect x="15" y="13" width="1" height="1" fill="#3dafe3"/>
  <rect x="0" y="14" width="1" height="1" fill="#37abe4da"/>
  <rect x="1" y="14" width="1" height="1" fill="#36ade2"/>
  <rect x="2" y="14" width="1" height="1" fill="#2fb1de46"/>
  <rect x="12" y="14" width="1" height="1" fill="#41afe3"/>
  <rect x="13" y="14" width="1" height="1" fill="#3fafe52a"/>
  <rect x="14" y="14" width="1" height="1" fill="#3cb1e52a"/>
  <rect x="15" y="14" width="1" height="1" fill="#3bb1e7"/>
  <rect x="0" y="15" width="1" height="1" fill="#37ace2f8"/>
  <rect x="1" y="15" width="1" height="1" fill="#34aee0"/>
  <rect x="2" y="15" width="1" height="1" fill="#2fb1da10"/>
  <rect x="12" y="15" width="1" height="1" fill="#42aee1d2"/>
  <rect x="15" y="15" width="1" height="1" fill="#39b2e7d0"/>
</svg>