<svg xmlns="http://www.w3.org/2000/svg" width="28" height="136" viewBox="0 0 28 136" shape-rendering="crispEdges">
  <rect x="3" y="1" width="1" height="1" fill="#22222214"/>
  <rect x="4" y="1" width="1" height="1" fill="#30303027"/>
  <rect x="5" y="1" width="1" height="1" fill="#30303031"/>
  <rect x="6" y="1" width="2" height="1" fill="#31313133"/>
  <rect x="8" y="1" width="1" height="1" fill="#32323233"/>
  <rect x="9" y="1" width="1" height="1" fill="#33333333"/>
  <rect x="10" y="1" width="12" height="1" fill="#34343433"/>
  <rect x="22" y="1" width="1" height="1" fill="#34343431"/>
  <rect x="23" y="1" width="1" height="1" fill="#34343427"/>
  <rect x="24" y="1" width="1" height="1" fill="#1e1e1e14"/>
  <rect x="2" y="2" width="1" height="1" fill="#2c2c2c1f"/>
  <rect x="3" y="2" width="1" height="1" fill="#96969651"/>
  <rect x="4" y="2" width="1" height="1" fill="#f9f9f9bd"/>
  <rect x="5" y="2" width="1" height="1" fill="#f9f9f9f4"/>
  <rect x="6" y="2" width="2" height="1" fill="#fafafa"/>
  <rect x="8" y="2" width="1" height="1" fill="#fcfbfc"/>
  <rect x="9" y="2" width="1" height="1" fill="#fdfdfd"/>
  <rect x="10" y="2" width="12" height="1" fill="#fefefe"/>
  <rect x="22" y="2" width="1" height="1" fill="#fefefef4"/>
  <rect x="23" y="2" width="1" height="1" fill="#fefefebd"/>
  <rect x="24" y="2" width="1" height="1" fill="#94949451"/>
  <rect x="25" y="2" width="1" height="1" fill="#2c2c2c1f"/>
  <rect x="1" y="3" width="1" height="1" fill="#21212114"/>
  <rect x="2" y="3" width="1" height="1" fill="#95959552"/>
  <rect x="3" y="3" width="1" height="1" fill="#fdfdfdf2"/>
  <rect x="4" y="3" width="5" height="1" fill="#ffffff"/>
  <rect x="9" y="3" width="15" height="1" fill="#fefefe"/>
  <rect x="24" y="3" width="1" height="1" fill="#f9f9f9f2"/>
  <rect x="25" y="3" width="1" height="1" fill="#95959552"/>
  <rect x="26" y="3" width="1" height="1" fill="#24242414"/>
  <rect x="1" y="4" width="1" height="1" fill="#32323227"/>
  <rect x="2" y="4" width="1" height="1" fill="#fdfdfdbd"/>
  <rect x="3" y="4" width="1" height="10" fill="#fefefe"/>
  <rect x="4" y="4" width="21" height="10" fill="#ffffff"/>
  <rect x="25" y="4" width="1" height="1" fill="#f9f9f9bd"/>
  <rect x="26" y="4" width="1" height="1" fill="#33333327"/>
  <rect x="1" y="5" width="1" height="1" fill="#32323231"/>
  <rect x="2" y="5" width="1" height="1" fill="#fdfdfdf4"/>
  <rect x="25" y="5" width="1" height="1" fill="#f9f9f9f5"/>
  <rect x="26" y="5" width="1" height="1" fill="#33333332"/>
  <rect x="1" y="6" width="1" height="8" fill="#32323233"/>
  <rect x="2" y="6" width="1" height="8" fill="#fdfdfd"/>
  <rect x="25" y="6" width="1" height="10" fill="#f9f9f9"/>
  <rect x="26" y="6" width="1" height="8" fill="#33333333"/>
  <rect x="1" y="14" width="1" height="4" fill="#33333333"/>
  <rect x="2" y="14" width="1" height="4" fill="#fefefe"/>
  <rect x="3" y="14" width="22" height="2" fill="#ffffff"/>
  <rect x="26" y="14" width="1" height="4" fill="#32323233"/>
  <rect x="3" y="16" width="23" height="2" fill="#ffffff"/>
  <rect x="1" y="18" width="1" height="108" fill="#34343433"/>
  <rect x="2" y="18" width="24" height="107" fill="#ffffff"/>
  <rect x="26" y="18" width="1" height="107" fill="#31313133"/>
  <rect x="2" y="125" width="23" height="1" fill="#ffffff"/>
  <rect x="25" y="125" width="1" height="2" fill="#fefefe"/>
  <rect x="26" y="125" width="1" height="2" fill="#32323233"/>
  <rect x="1" y="126" width="1" height="2" fill="#33333333"/>
  <rect x="2" y="126" width="1" height="2" fill="#fefefe"/>
  <rect x="3" y="126" width="22" height="2" fill="#ffffff"/>
  <rect x="25" y="127" width="1" height="1" fill="#fdfdfd"/>
  <rect x="26" y="127" width="1" height="1" fill="#33333333"/>
  <rect x="1" y="128" width="1" height="2" fill="#32323233"/>
  <rect x="2" y="128" width="1" height="2" fill="#fdfdfd"/>
  <rect x="3" y="128" width="1" height="2" fill="#fefefe"/>
  <rect x="4" y="128" width="21" height="4" fill="#ffffff"/>
  <rect x="25" y="128" width="1" height="1" fill="#fcfbfc"/>
  <rect x="26" y="128" width="1" height="1" fill="#34343433"/>
  <rect x="25" y="129" width="1" height="1" fill="#fafafa"/>
  <rect x="26" y="129" width="1" height="1" fill="#36363633"/>
  <rect x="1" y="130" width="1" height="1" fill="#31313131"/>
  <rect x="2" y="130" width="1" height="1" fill="#fcfbfcf4"/>
  <rect x="3" y="130" width="1" height="2" fill="#fdfdfd"/>
  <rect x="25" y="130" width="1" height="1" fill="#fafafaf5"/>
  <rect x="26" y="130" width="1" height="1" fill="#36363632"/>
  <rect x="1" y="131" width="1" height="1" fill="#31313127"/>
  <rect x="2" y="131" width="1" height="1" fill="#fcfbfcbd"/>
  <rect x="25" y="131" width="1" height="1" fill="#f9f9f9bd"/>
  <rect x="26" y="131" width="1" height="1" fill="#37373727"/>
  <rect x="1" y="132" width="1" height="1" fill="#1e1e1e14"/>
  <rect x="2" y="132" width="1" height="1" fill="#93939353"/>
  <rect x="3" y="132" width="1" height="1" fill="#fafafaf2"/>
  <rect x="4" y="132" width="20" height="1" fill="#fdfdfd"/>
  <rect x="24" y="132" width="1" height="1" fill="#fffffff2"/>
  <rect x="25" y="132" width="1" height="1" fill="#8b8b8b53"/>
  <rect x="26" y="132" width="1" height="1" fill="#25252514"/>
  <rect x="2" y="133" width="1" height="1" fill="#2a2a2a1f"/>
  <rect x="3" y="133" width="1" height="1" fill="#93939352"/>
  <rect x="4" y="133" width="1" height="1" fill="#fdfdfdbd"/>
  <rect x="5" y="133" width="1" height="1" fill="#fdfdfdf5"/>
  <rect x="6" y="133" width="16" height="1" fill="#fdfdfd"/>
  <rect x="22" y="133" width="1" height="1" fill="#fdfdfdf5"/>
  <rect x="23" y="133" width="1" height="1" fill="#fdfdfdbd"/>
  <rect x="24" y="133" width="1" height="1" fill="#8b8b8b52"/>
  <rect x="25" y="133" width="1" height="1" fill="#2a2a2a1f"/>
  <rect x="3" y="134" width="1" height="1" fill="#1e1e1e14"/>
  <rect x="4" y="134" width="1" height="1" fill="#32323227"/>
  <rect x="5" y="134" width="1" height="1" fill="#32323231"/>
  <rect x="6" y="134" width="16" height="1" fill="#32323233"/>
  <rect x="22" y="134" width="1" height="1" fill="#32323231"/>
  <rect x="23" y="134" width="1" height="1" fill="#32323227"/>
  <rect x="24" y="134" width="1" height="1" fill="#25252514"/>
</svg>