<svg xmlns="http://www.w3.org/2000/svg" width="36" height="12" viewBox="0 0 36 12" shape-rendering="crispEdges">
  <rect x="6" y="0" width="1" height="1" fill="#c4c3c61a"/>
  <rect x="7" y="0" width="1" height="1" fill="#c5c4c777"/>
  <rect x="8" y="0" width="1" height="1" fill="#c5c4c9d6"/>
  <rect x="9" y="0" width="1" height="1" fill="#c2c2c666"/>
  <rect x="18" y="0" width="1" height="1" fill="#b2b3b71a"/>
  <rect x="19" y="0" width="1" height="1" fill="#b2b3b777"/>
  <rect x="20" y="0" width="1" height="1" fill="#b3b5b9d6"/>
  <rect x="21" y="0" width="1" height="1" fill="#b1b2b666"/>
  <rect x="30" y="0" width="1" height="1" fill="#8284861a"/>
  <rect x="31" y="0" width="1" height="1" fill="#84868877"/>
  <rect x="32" y="0" width="1" height="1" fill="#838589d6"/>
  <rect x="33" y="0" width="1" height="1" fill="#87888c66"/>
  <rect x="4" y="1" width="1" height="1" fill="#c4c3c655"/>
  <rect x="5" y="1" width="1" height="1" fill="#c4c3c6b5"/>
  <rect x="6" y="1" width="1" height="1" fill="#c4c3c6fc"/>
  <rect x="7" y="1" width="1" height="3" fill="#c5c4c7"/>
  <rect x="8" y="1" width="1" height="4" fill="#c5c4c9"/>
  <rect x="9" y="1" width="1" height="1" fill="#c2c2c6f7"/>
  <rect x="10" y="1" width="1" height="1" fill="#bebdc21e"/>
  <rect x="16" y="1" width="1" height="1" fill="#b2b3b755"/>
  <rect x="17" y="1" width="1" height="1" fill="#b2b3b7b5"/>
  <rect x="18" y="1" width="1" height="1" fill="#b2b3b7fc"/>
  <rect x="19" y="1" width="1" height="1" fill="#b2b3b7"/>
  <rect x="20" y="1" width="1" height="3" fill="#b3b5b9"/>
  <rect x="21" y="1" width="1" height="1" fill="#b1b2b6f7"/>
  <rect x="22" y="1" width="1" height="1" fill="#aeb0b41e"/>
  <rect x="28" y="1" width="1" height="1" fill="#80828355"/>
  <rect x="29" y="1" width="1" height="1" fill="#858789b5"/>
  <rect x="30" y="1" width="1" height="1" fill="#858789fc"/>
  <rect x="31" y="1" width="1" height="1" fill="#9ea0a2"/>
  <rect x="32" y="1" width="1" height="1" fill="#abacb0"/>
  <rect x="33" y="1" width="1" height="1" fill="#989a9ef7"/>
  <rect x="34" y="1" width="1" height="1" fill="#8a8c901e"/>
  <rect x="1" y="2" width="1" height="1" fill="#c4c4c42d"/>
  <rect x="2" y="2" width="1" height="1" fill="#c4c4c48e"/>
  <rect x="3" y="2" width="1" height="1" fill="#c4c4c4e9"/>
  <rect x="4" y="2" width="3" height="1" fill="#c4c3c6"/>
  <rect x="9" y="2" width="1" height="2" fill="#c2c2c6"/>
  <rect x="10" y="2" width="1" height="1" fill="#bebdc287"/>
  <rect x="13" y="2" width="1" height="1" fill="#b7b6bd2d"/>
  <rect x="14" y="2" width="1" height="1" fill="#b7b6bd8e"/>
  <rect x="15" y="2" width="1" height="1" fill="#b7b6bde9"/>
  <rect x="16" y="2" width="4" height="2" fill="#b2b3b7"/>
  <rect x="21" y="2" width="1" height="2" fill="#b1b2b6"/>
  <rect x="22" y="2" width="1" height="1" fill="#aeb0b487"/>
  <rect x="25" y="2" width="1" height="1" fill="#87898a2d"/>
  <rect x="26" y="2" width="1" height="1" fill="#8587898e"/>
  <rect x="27" y="2" width="1" height="1" fill="#888a8be9"/>
  <rect x="28" y="2" width="1" height="1" fill="#969899"/>
  <rect x="29" y="2" width="1" height="1" fill="#a5a7a9"/>
  <rect x="30" y="2" width="1" height="1" fill="#b1b3b4"/>
  <rect x="31" y="2" width="1" height="1" fill="#b4b6b8"/>
  <rect x="32" y="2" width="1" height="1" fill="#b1b2b6"/>
  <rect x="33" y="2" width="1" height="1" fill="#acaeb2"/>
  <rect x="34" y="2" width="1" height="1" fill="#8c8e9287"/>
  <rect x="1" y="3" width="2" height="1" fill="#c4c4c4"/>
  <rect x="3" y="3" width="1" height="1" fill="#c5c5c5"/>
  <rect x="4" y="3" width="1" height="1" fill="#c5c4c7"/>
  <rect x="5" y="3" width="2" height="1" fill="#c4c3c6"/>
  <rect x="10" y="3" width="1" height="1" fill="#bebdc2cd"/>
  <rect x="13" y="3" width="3" height="1" fill="#b7b6bd"/>
  <rect x="22" y="3" width="1" height="1" fill="#aeb0b4cd"/>
  <rect x="25" y="3" width="1" height="1" fill="#8f9192"/>
  <rect x="26" y="3" width="1" height="1" fill="#a1a3a5"/>
  <rect x="27" y="3" width="1" height="1" fill="#acaeb0"/>
  <rect x="28" y="3" width="3" height="1" fill="#b2b4b5"/>
  <rect x="31" y="3" width="1" height="2" fill="#aeb0b2"/>
  <rect x="32" y="3" width="1" height="2" fill="#b2b3b7"/>
  <rect x="33" y="3" width="1" height="1" fill="#adafb3"/>
  <rect x="34" y="3" width="1" height="1" fill="#9ea0a4cd"/>
  <rect x="1" y="4" width="2" height="1" fill="#cccccc"/>
  <rect x="3" y="4" width="1" height="2" fill="#c6c6c6"/>
  <rect x="4" y="4" width="1" height="3" fill="#c8c8ca"/>
  <rect x="5" y="4" width="1" height="1" fill="#cbcacd"/>
  <rect x="6" y="4" width="1" height="1" fill="#c8c8ca"/>
  <rect x="7" y="4" width="1" height="1" fill="#c6c6c8"/>
  <rect x="9" y="4" width="1" height="1" fill="#c4c3c8"/>
  <rect x="10" y="4" width="1" height="1" fill="#c0bfc4f4"/>
  <rect x="13" y="4" width="2" height="1" fill="#b2b1b8"/>
  <rect x="15" y="4" width="1" height="2" fill="#b7b6bd"/>
  <rect x="16" y="4" width="1" height="1" fill="#b1b2b6"/>
  <rect x="17" y="4" width="1" height="1" fill="#b5b7bb"/>
  <rect x="18" y="4" width="1" height="1" fill="#abacb0"/>
  <rect x="19" y="4" width="1" height="1" fill="#b1b2b6"/>
  <rect x="20" y="4" width="1" height="1" fill="#b2b3b7"/>
  <rect x="21" y="4" width="1" height="1" fill="#b3b5b9"/>
  <rect x="22" y="4" width="1" height="1" fill="#b1b2b6f4"/>
  <rect x="25" y="4" width="1" height="1" fill="#b2b4b5"/>
  <rect x="26" y="4" width="1" height="1" fill="#b1b3b4"/>
  <rect x="27" y="4" width="2" height="2" fill="#b2b4b5"/>
  <rect x="29" y="4" width="1" height="1" fill="#b1b3b4"/>
  <rect x="30" y="4" width="1" height="1" fill="#afb1b3"/>
  <rect x="33" y="4" width="1" height="1" fill="#b1b2b6"/>
  <rect x="34" y="4" width="1" height="1" fill="#a7a9adf4"/>
  <rect x="1" y="5" width="2" height="1" fill="#c4c4c4"/>
  <rect x="5" y="5" width="1" height="1" fill="#c7c7c9"/>
  <rect x="6" y="5" width="2" height="1" fill="#c4c3c6"/>
  <rect x="8" y="5" width="1" height="1" fill="#c6c5ca"/>
  <rect x="9" y="5" width="1" height="1" fill="#c2c2c6"/>
  <rect x="10" y="5" width="1" height="1" fill="#b9b8bd"/>
  <rect x="13" y="5" width="2" height="1" fill="#b0afb6"/>
  <rect x="16" y="5" width="2" height="1" fill="#b2b3b7"/>
  <rect x="18" y="5" width="1" height="1" fill="#b4b6ba"/>
  <rect x="19" y="5" width="1" height="1" fill="#b3b5b9"/>
  <rect x="20" y="5" width="2" height="1" fill="#b1b2b6"/>
  <rect x="22" y="5" width="1" height="1" fill="#b2b3b7"/>
  <rect x="25" y="5" width="2" height="1" fill="#b6b8ba"/>
  <rect x="29" y="5" width="1" height="1" fill="#b3b5b6"/>
  <rect x="30" y="5" width="1" height="1" fill="#b4b6b8"/>
  <rect x="31" y="5" width="1" height="1" fill="#b5b7b9"/>
  <rect x="32" y="5" width="2" height="1" fill="#b4b6ba"/>
  <rect x="34" y="5" width="1" height="1" fill="#afb1b5"/>
  <rect x="1" y="6" width="2" height="1" fill="#a2a2a2"/>
  <rect x="3" y="6" width="1" height="1" fill="#c5c5c5"/>
  <rect x="5" y="6" width="1" height="1" fill="#bdbcbf"/>
  <rect x="6" y="6" width="1" height="1" fill="#acacae"/>
  <rect x="7" y="6" width="1" height="1" fill="#a1a0a3"/>
  <rect x="8" y="6" width="1" height="1" fill="#a3a3a5"/>
  <rect x="9" y="6" width="1" height="1" fill="#a9a8ab"/>
  <rect x="10" y="6" width="1" height="1" fill="#b2b2b4f0"/>
  <rect x="13" y="6" width="2" height="1" fill="#99989d"/>
  <rect x="15" y="6" width="1" height="2" fill="#b7b6bb"/>
  <rect x="16" y="6" width="2" height="1" fill="#b3b5b9"/>
  <rect x="18" y="6" width="1" height="1" fill="#97999d"/>
  <rect x="19" y="6" width="2" height="1" fill="#96979b"/>
  <rect x="21" y="6" width="1" height="1" fill="#929498"/>
  <rect x="22" y="6" width="1" height="1" fill="#9c9da1f0"/>
  <rect x="25" y="6" width="1" height="1" fill="#b2b4b5"/>
  <rect x="26" y="6" width="1" height="1" fill="#b1b3b4"/>
  <rect x="27" y="6" width="2" height="1" fill="#b3b5b6"/>
  <rect x="29" y="6" width="1" height="1" fill="#b2b4b5"/>
  <rect x="30" y="6" width="1" height="1" fill="#b1b3b4"/>
  <rect x="31" y="6" width="1" height="1" fill="#afb1b3"/>
  <rect x="32" y="6" width="2" height="1" fill="#b2b4b5"/>
  <rect x="34" y="6" width="1" height="1" fill="#b1b3b4f0"/>
  <rect x="3" y="7" width="1" height="1" fill="#c2c2c2"/>
  <rect x="4" y="7" width="1" height="1" fill="#c1c1c3"/>
  <rect x="5" y="7" width="1" height="1" fill="#c1c1c3f0"/>
  <rect x="16" y="7" width="1" height="1" fill="#b3b5b9"/>
  <rect x="17" y="7" width="1" height="1" fill="#b2b3b7f0"/>
  <rect x="27" y="7" width="1" height="1" fill="#b3b5b6"/>
  <rect x="28" y="7" width="1" height="1" fill="#b4b6b8"/>
  <rect x="29" y="7" width="1" height="1" fill="#aeb0b2f0"/>
  <rect x="3" y="8" width="1" height="1" fill="#cdcdcd"/>
  <rect x="4" y="8" width="1" height="2" fill="#c7c7c7"/>
  <rect x="5" y="8" width="1" height="1" fill="#c5c5c5f0"/>
  <rect x="15" y="8" width="1" height="1" fill="#bebdc0"/>
  <rect x="16" y="8" width="1" height="1" fill="#afb1b3"/>
  <rect x="17" y="8" width="1" height="2" fill="#b1b3b4f0"/>
  <rect x="27" y="8" width="2" height="2" fill="#b1b2b6"/>
  <rect x="29" y="8" width="1" height="1" fill="#b1b3b4f0"/>
  <rect x="3" y="9" width="1" height="1" fill="#c4c4c4"/>
  <rect x="5" y="9" width="1" height="1" fill="#c6c6c6f0"/>
  <rect x="15" y="9" width="1" height="1" fill="#b2b2b4"/>
  <rect x="16" y="9" width="1" height="1" fill="#b3b5b6"/>
  <rect x="29" y="9" width="1" height="1" fill="#b1b2b6f0"/>
  <rect x="3" y="10" width="1" height="1" fill="#b6b6b6fb"/>
  <rect x="4" y="10" width="1" height="1" fill="#b8b8b8"/>
  <rect x="5" y="10" width="1" height="1" fill="#b9b9b9ec"/>
  <rect x="15" y="10" width="1" height="1" fill="#a2a2a2fb"/>
  <rect x="16" y="10" width="1" height="1" fill="#abadae"/>
  <rect x="17" y="10" width="1" height="1" fill="#a6a8aaec"/>
  <rect x="27" y="10" width="1" height="1" fill="#b1b2b6fb"/>
  <rect x="28" y="10" width="1" height="1" fill="#b1b2b6"/>
  <rect x="29" y="10" width="1" height="1" fill="#b1b2b6ec"/>
  <rect x="3" y="11" width="1" height="1" fill="#a5a5a589"/>
  <rect x="4" y="11" width="1" height="1" fill="#a5a5a5f3"/>
  <rect x="5" y="11" width="1" height="1" fill="#a9a9a97c"/>
  <rect x="15" y="11" width="1" height="1" fill="#96969689"/>
  <rect x="16" y="11" width="1" height="1" fill="#9c9e9ff3"/>
  <rect x="17" y="11" width="1" height="1" fill="#989a9c7c"/>
  <rect x="27" y="11" width="1" height="1" fill="#b1b2b689"/>
  <rect x="28" y="11" width="1" height="1" fill="#b1b2b6f3"/>
  <rect x="29" y="11" width="1" height="1" fill="#b1b2b67c"/>
</svg>