<svg xmlns="http://www.w3.org/2000/svg" width="44" height="25" viewBox="0 0 44 25" shape-rendering="crispEdges">
  <rect x="3" y="5" width="1" height="10" fill="#00000013"/>
  <rect x="4" y="5" width="1" height="10" fill="#00000026"/>
  <rect x="39" y="5" width="1" height="10" fill="#00000026"/>
  <rect x="40" y="5" width="1" height="10" fill="#00000013"/>
  <rect x="3" y="15" width="1" height="1" fill="#00000012"/>
  <rect x="4" y="15" width="1" height="1" fill="#00000024"/>
  <rect x="39" y="15" width="1" height="1" fill="#00000024"/>
  <rect x="40" y="15" width="1" height="1" fill="#00000012"/>
  <rect x="3" y="16" width="1" height="1" fill="#00000010"/>
  <rect x="4" y="16" width="1" height="1" fill="#00000021"/>
  <rect x="39" y="16" width="1" height="1" fill="#00000021"/>
  <rect x="40" y="16" width="1" height="1" fill="#00000010"/>
  <rect x="3" y="17" width="1" height="1" fill="#0000000c"/>
  <rect x="4" y="17" width="1" height="1" fill="#0000001b"/>
  <rect x="5" y="17" width="1" height="1" fill="#0000000f"/>
  <rect x="38" y="17" width="1" height="1" fill="#0000000f"/>
  <rect x="39" y="17" width="1" height="1" fill="#0000001b"/>
  <rect x="40" y="17" width="1" height="1" fill="#0000000c"/>
  <rect x="4" y="18" width="1" height="1" fill="#00000014"/>
  <rect x="5" y="18" width="1" height="1" fill="#0000001e"/>
  <rect x="38" y="18" width="1" height="1" fill="#0000001e"/>
  <rect x="39" y="18" width="1" height="1" fill="#00000014"/>
  <rect x="4" y="19" width="1" height="1" fill="#0000000c"/>
  <rect x="5" y="19" width="1" height="1" fill="#00000017"/>
  <rect x="6" y="19" width="1" height="1" fill="#0000001e"/>
  <rect x="7" y="19" width="1" height="1" fill="#0000000f"/>
  <rect x="36" y="19" width="1" height="1" fill="#0000000f"/>
  <rect x="37" y="19" width="1" height="1" fill="#0000001e"/>
  <rect x="38" y="19" width="1" height="1" fill="#00000017"/>
  <rect x="39" y="19" width="1" height="1" fill="#0000000c"/>
  <rect x="5" y="20" width="1" height="1" fill="#0000000c"/>
  <rect x="6" y="20" width="1" height="1" fill="#00000014"/>
  <rect x="7" y="20" width="1" height="1" fill="#0000001b"/>
  <rect x="8" y="20" width="1" height="1" fill="#00000021"/>
  <rect x="9" y="20" width="1" height="1" fill="#00000024"/>
  <rect x="10" y="20" width="24" height="1" fill="#00000026"/>
  <rect x="34" y="20" width="1" height="1" fill="#00000024"/>
  <rect x="35" y="20" width="1" height="1" fill="#00000021"/>
  <rect x="36" y="20" width="1" height="1" fill="#0000001b"/>
  <rect x="37" y="20" width="1" height="1" fill="#00000014"/>
  <rect x="38" y="20" width="1" height="1" fill="#0000000c"/>
  <rect x="7" y="21" width="1" height="1" fill="#0000000c"/>
  <rect x="8" y="21" width="1" height="1" fill="#00000010"/>
  <rect x="9" y="21" width="1" height="1" fill="#00000012"/>
  <rect x="10" y="21" width="24" height="1" fill="#00000013"/>
  <rect x="34" y="21" width="1" height="1" fill="#00000012"/>
  <rect x="35" y="21" width="1" height="1" fill="#00000010"/>
  <rect x="36" y="21" width="1" height="1" fill="#0000000c"/>
</svg>