<svg xmlns="http://www.w3.org/2000/svg" width="36" height="12" viewBox="0 0 36 12" shape-rendering="crispEdges">
  <rect x="3" y="0" width="1" height="1" fill="#cec7c96e"/>
  <rect x="4" y="0" width="1" height="1" fill="#c1babdc7"/>
  <rect x="5" y="0" width="1" height="1" fill="#aca5a8f3"/>
  <rect x="6" y="0" width="1" height="1" fill="#aba6a8f3"/>
  <rect x="7" y="0" width="1" height="1" fill="#c0bbbdc7"/>
  <rect x="8" y="0" width="1" height="1" fill="#cac7c86e"/>
  <rect x="15" y="0" width="1" height="1" fill="#b2b2b26e"/>
  <rect x="16" y="0" width="1" height="1" fill="#a5a7a9c7"/>
  <rect x="17" y="0" width="2" height="1" fill="#9a9c9ef3"/>
  <rect x="19" y="0" width="1" height="1" fill="#a5a7a9c7"/>
  <rect x="20" y="0" width="1" height="1" fill="#b3b5b66e"/>
  <rect x="27" y="0" width="1" height="1" fill="#8385876e"/>
  <rect x="28" y="0" width="1" height="1" fill="#888a8bc7"/>
  <rect x="29" y="0" width="2" height="1" fill="#858789f3"/>
  <rect x="31" y="0" width="1" height="1" fill="#888a8bc7"/>
  <rect x="32" y="0" width="1" height="1" fill="#8183846e"/>
  <rect x="1" y="1" width="1" height="1" fill="#c6bfc11b"/>
  <rect x="2" y="1" width="1" height="1" fill="#cbc3c6cf"/>
  <rect x="3" y="1" width="1" height="2" fill="#cec7c9"/>
  <rect x="4" y="1" width="1" height="1" fill="#b0a9abb6"/>
  <rect x="5" y="1" width="1" height="1" fill="#b3acaf19"/>
  <rect x="6" y="1" width="1" height="1" fill="#b2adaf19"/>
  <rect x="7" y="1" width="1" height="1" fill="#aeaaabb6"/>
  <rect x="8" y="1" width="1" height="2" fill="#cac7c8"/>
  <rect x="9" y="1" width="1" height="1" fill="#c6c4c5cf"/>
  <rect x="10" y="1" width="1" height="1" fill="#c0c0c01b"/>
  <rect x="13" y="1" width="1" height="1" fill="#b2b2b21b"/>
  <rect x="14" y="1" width="1" height="1" fill="#b2b2b2cf"/>
  <rect x="15" y="1" width="1" height="1" fill="#b2b2b2"/>
  <rect x="16" y="1" width="1" height="1" fill="#9ea0a2b6"/>
  <rect x="17" y="1" width="2" height="1" fill="#999b9d19"/>
  <rect x="19" y="1" width="1" height="1" fill="#9ea0a2b6"/>
  <rect x="20" y="1" width="1" height="3" fill="#b3b5b6"/>
  <rect x="21" y="1" width="1" height="1" fill="#b1b3b4cf"/>
  <rect x="22" y="1" width="1" height="1" fill="#adafb11b"/>
  <rect x="25" y="1" width="1" height="1" fill="#8385871b"/>
  <rect x="26" y="1" width="1" height="1" fill="#8a8c8ecf"/>
  <rect x="27" y="1" width="1" height="1" fill="#9a9c9e"/>
  <rect x="28" y="1" width="1" height="1" fill="#a5a7a9b6"/>
  <rect x="29" y="1" width="2" height="1" fill="#adafb119"/>
  <rect x="31" y="1" width="1" height="1" fill="#a5a7a9b6"/>
  <rect x="32" y="1" width="1" height="1" fill="#999b9d"/>
  <rect x="33" y="1" width="1" height="1" fill="#888a8bcf"/>
  <rect x="34" y="1" width="1" height="1" fill="#8587891b"/>
  <rect x="1" y="2" width="1" height="1" fill="#c6bfc1cf"/>
  <rect x="2" y="2" width="1" height="2" fill="#cbc3c6"/>
  <rect x="4" y="2" width="1" height="1" fill="#b0a9ab19"/>
  <rect x="7" y="2" width="1" height="1" fill="#aeaaab19"/>
  <rect x="9" y="2" width="1" height="1" fill="#c6c4c5"/>
  <rect x="10" y="2" width="1" height="1" fill="#c0c0c0d0"/>
  <rect x="13" y="2" width="1" height="1" fill="#b2b2b2cf"/>
  <rect x="14" y="2" width="2" height="2" fill="#b2b2b2"/>
  <rect x="16" y="2" width="1" height="1" fill="#97999b19"/>
  <rect x="19" y="2" width="1" height="1" fill="#97999b19"/>
  <rect x="21" y="2" width="1" height="2" fill="#b1b3b4"/>
  <rect x="22" y="2" width="1" height="1" fill="#adafb1d0"/>
  <rect x="25" y="2" width="1" height="1" fill="#8a8c8ecf"/>
  <rect x="26" y="2" width="1" height="1" fill="#a7a9ab"/>
  <rect x="27" y="2" width="1" height="1" fill="#b2b4b5"/>
  <rect x="28" y="2" width="1" height="1" fill="#a4a6a719"/>
  <rect x="31" y="2" width="1" height="1" fill="#a4a6a719"/>
  <rect x="32" y="2" width="1" height="1" fill="#b2b4b5"/>
  <rect x="33" y="2" width="1" height="1" fill="#a8aaac"/>
  <rect x="34" y="2" width="1" height="1" fill="#8f9192d0"/>
  <rect x="0" y="3" width="1" height="1" fill="#c3bbbe6d"/>
  <rect x="1" y="3" width="1" height="1" fill="#c6bfc1"/>
  <rect x="3" y="3" width="1" height="1" fill="#cac2c5"/>
  <rect x="8" y="3" width="2" height="1" fill="#c6c4c5"/>
  <rect x="10" y="3" width="1" height="1" fill="#c1c1c1"/>
  <rect x="11" y="3" width="1" height="1" fill="#bababa6d"/>
  <rect x="12" y="3" width="1" height="1" fill="#b4b4b46d"/>
  <rect x="13" y="3" width="1" height="1" fill="#b3b3b3"/>
  <rect x="22" y="3" width="1" height="1" fill="#adafb1"/>
  <rect x="23" y="3" width="1" height="1" fill="#abadae6d"/>
  <rect x="24" y="3" width="1" height="1" fill="#8385876d"/>
  <rect x="25" y="3" width="1" height="1" fill="#a7a9ab"/>
  <rect x="26" y="3" width="1" height="2" fill="#b2b4b5"/>
  <rect x="27" y="3" width="1" height="1" fill="#b4b6b8"/>
  <rect x="32" y="3" width="1" height="1" fill="#afb1b3"/>
  <rect x="33" y="3" width="1" height="1" fill="#b4b6b8"/>
  <rect x="34" y="3" width="1" height="1" fill="#a6a8aa"/>
  <rect x="35" y="3" width="1" height="1" fill="#898b8d6d"/>
  <rect x="0" y="4" width="1" height="1" fill="#c6bfc1c7"/>
  <rect x="1" y="4" width="1" height="1" fill="#cfc8cb"/>
  <rect x="2" y="4" width="1" height="1" fill="#c8c1c4"/>
  <rect x="3" y="4" width="1" height="1" fill="#d6cfd2"/>
  <rect x="8" y="4" width="1" height="1" fill="#d1cecf"/>
  <rect x="9" y="4" width="1" height="1" fill="#c4c2c2"/>
  <rect x="10" y="4" width="1" height="1" fill="#c2c2c2"/>
  <rect x="11" y="4" width="1" height="1" fill="#ccccccc7"/>
  <rect x="12" y="4" width="1" height="1" fill="#b9b9b9c7"/>
  <rect x="13" y="4" width="1" height="1" fill="#b2b2b2"/>
  <rect x="14" y="4" width="1" height="1" fill="#b7b7b7"/>
  <rect x="15" y="4" width="1" height="1" fill="#bababa"/>
  <rect x="20" y="4" width="1" height="1" fill="#b4b6b8"/>
  <rect x="21" y="4" width="1" height="1" fill="#aeb0b2"/>
  <rect x="22" y="4" width="1" height="1" fill="#b2b4b5"/>
  <rect x="23" y="4" width="1" height="1" fill="#b3b5b6c7"/>
  <rect x="24" y="4" width="1" height="1" fill="#959798c7"/>
  <rect x="25" y="4" width="1" height="2" fill="#aeb0b2"/>
  <rect x="27" y="4" width="1" height="1" fill="#acaeb0"/>
  <rect x="32" y="4" width="1" height="1" fill="#aeb0b2"/>
  <rect x="33" y="4" width="2" height="1" fill="#b2b4b5"/>
  <rect x="35" y="4" width="1" height="1" fill="#9d9fa0c7"/>
  <rect x="0" y="5" width="1" height="1" fill="#d2cacdf9"/>
  <rect x="1" y="5" width="1" height="1" fill="#c6bfc1"/>
  <rect x="2" y="5" width="1" height="1" fill="#b1aaac"/>
  <rect x="3" y="5" width="1" height="1" fill="#c4bdbf"/>
  <rect x="4" y="5" width="1" height="1" fill="#beb7b919"/>
  <rect x="7" y="5" width="1" height="1" fill="#c2bdbf18"/>
  <rect x="8" y="5" width="1" height="1" fill="#b6b4b4"/>
  <rect x="9" y="5" width="1" height="1" fill="#b7b5b6"/>
  <rect x="10" y="5" width="1" height="1" fill="#c0c0c0"/>
  <rect x="11" y="5" width="1" height="1" fill="#c8c8c8f8"/>
  <rect x="12" y="5" width="1" height="1" fill="#b3b3b3f9"/>
  <rect x="13" y="5" width="1" height="1" fill="#adadad"/>
  <rect x="14" y="5" width="1" height="1" fill="#a9a9a9"/>
  <rect x="15" y="5" width="1" height="1" fill="#aaaaaa"/>
  <rect x="16" y="5" width="1" height="1" fill="#acaeb019"/>
  <rect x="19" y="5" width="1" height="1" fill="#acaeb018"/>
  <rect x="20" y="5" width="1" height="1" fill="#abadae"/>
  <rect x="21" y="5" width="1" height="1" fill="#97999b"/>
  <rect x="22" y="5" width="1" height="1" fill="#b1b3b4"/>
  <rect x="23" y="5" width="1" height="1" fill="#b3b5b6f8"/>
  <rect x="24" y="5" width="1" height="1" fill="#a7a9abf9"/>
  <rect x="26" y="5" width="1" height="1" fill="#b5b7b9"/>
  <rect x="27" y="5" width="1" height="1" fill="#aeb0b2"/>
  <rect x="28" y="5" width="1" height="1" fill="#87898a19"/>
  <rect x="31" y="5" width="1" height="1" fill="#87898a18"/>
  <rect x="32" y="5" width="1" height="1" fill="#b2b4b5"/>
  <rect x="33" y="5" width="1" height="1" fill="#aeb0b2"/>
  <rect x="34" y="5" width="1" height="1" fill="#b5b7b9"/>
  <rect x="35" y="5" width="1" height="1" fill="#a7a9abf8"/>
  <rect x="0" y="6" width="1" height="1" fill="#c0bbbdf9"/>
  <rect x="1" y="6" width="1" height="1" fill="#d0cbcd"/>
  <rect x="2" y="6" width="1" height="1" fill="#bdb9ba18"/>
  <rect x="3" y="6" width="1" height="1" fill="#b2adafd2"/>
  <rect x="4" y="6" width="1" height="1" fill="#c4c0c1b5"/>
  <rect x="5" y="6" width="1" height="1" fill="#c9c4c618"/>
  <rect x="6" y="6" width="1" height="1" fill="#c9c4c61b"/>
  <rect x="7" y="6" width="1" height="1" fill="#c3c0c1b5"/>
  <rect x="8" y="6" width="1" height="1" fill="#afadadcc"/>
  <rect x="9" y="6" width="1" height="1" fill="#bbb8b918"/>
  <rect x="10" y="6" width="1" height="1" fill="#c1c1c1"/>
  <rect x="11" y="6" width="1" height="1" fill="#c1c1c1f3"/>
  <rect x="12" y="6" width="1" height="1" fill="#a9a9a9f9"/>
  <rect x="13" y="6" width="1" height="1" fill="#acacac"/>
  <rect x="14" y="6" width="1" height="1" fill="#a9a9a918"/>
  <rect x="15" y="6" width="1" height="1" fill="#a3a3a3d2"/>
  <rect x="16" y="6" width="1" height="1" fill="#a8aaacb5"/>
  <rect x="17" y="6" width="1" height="1" fill="#b1b3b418"/>
  <rect x="18" y="6" width="1" height="1" fill="#b1b3b41b"/>
  <rect x="19" y="6" width="1" height="1" fill="#a8aaacb5"/>
  <rect x="20" y="6" width="1" height="1" fill="#989a9ccc"/>
  <rect x="21" y="6" width="1" height="1" fill="#aaacad18"/>
  <rect x="22" y="6" width="1" height="1" fill="#aeb0b2"/>
  <rect x="23" y="6" width="1" height="1" fill="#aaacadf3"/>
  <rect x="24" y="6" width="1" height="1" fill="#b5b7b9f9"/>
  <rect x="25" y="6" width="1" height="1" fill="#afb1b3"/>
  <rect x="26" y="6" width="1" height="1" fill="#a7a9ab18"/>
  <rect x="27" y="6" width="1" height="1" fill="#aeb0b2d2"/>
  <rect x="28" y="6" width="1" height="1" fill="#8a8c8eb5"/>
  <rect x="29" y="6" width="1" height="1" fill="#888a8b18"/>
  <rect x="30" y="6" width="1" height="1" fill="#888a8b1b"/>
  <rect x="31" y="6" width="1" height="1" fill="#8a8c8eb5"/>
  <rect x="32" y="6" width="1" height="1" fill="#b2b4b5cc"/>
  <rect x="33" y="6" width="1" height="1" fill="#aeb0b218"/>
  <rect x="34" y="6" width="1" height="1" fill="#b2b4b5"/>
  <rect x="35" y="6" width="1" height="1" fill="#b9bbbcf3"/>
  <rect x="0" y="7" width="1" height="1" fill="#bdb9bac7"/>
  <rect x="1" y="7" width="1" height="1" fill="#cec9cb"/>
  <rect x="2" y="7" width="1" height="1" fill="#c7c2c4a2"/>
  <rect x="3" y="7" width="1" height="1" fill="#cac5c719"/>
  <rect x="4" y="7" width="1" height="1" fill="#b4afb19b"/>
  <rect x="5" y="7" width="1" height="1" fill="#b4afb1ec"/>
  <rect x="6" y="7" width="1" height="1" fill="#aeacace9"/>
  <rect x="7" y="7" width="1" height="1" fill="#aca9aa97"/>
  <rect x="8" y="7" width="1" height="1" fill="#bebcbd17"/>
  <rect x="9" y="7" width="1" height="1" fill="#c9c6c7a1"/>
  <rect x="10" y="7" width="1" height="1" fill="#c5c5c5"/>
  <rect x="11" y="7" width="1" height="1" fill="#bababac7"/>
  <rect x="12" y="7" width="1" height="1" fill="#a5a5a5c7"/>
  <rect x="13" y="7" width="1" height="1" fill="#afafaf"/>
  <rect x="14" y="7" width="1" height="1" fill="#b3b3b3a2"/>
  <rect x="15" y="7" width="1" height="1" fill="#adadad19"/>
  <rect x="16" y="7" width="1" height="1" fill="#a0a2a49b"/>
  <rect x="17" y="7" width="1" height="1" fill="#9d9fa0ec"/>
  <rect x="18" y="7" width="1" height="1" fill="#9d9fa0e9"/>
  <rect x="19" y="7" width="1" height="1" fill="#a0a2a497"/>
  <rect x="20" y="7" width="1" height="1" fill="#abadae17"/>
  <rect x="21" y="7" width="1" height="1" fill="#a6a8aaa1"/>
  <rect x="22" y="7" width="1" height="1" fill="#b3b5b6"/>
  <rect x="23" y="7" width="1" height="1" fill="#a5a7a9c7"/>
  <rect x="24" y="7" width="1" height="1" fill="#b5b7b9c7"/>
  <rect x="25" y="7" width="1" height="1" fill="#b2b4b5"/>
  <rect x="26" y="7" width="1" height="1" fill="#8f9192a2"/>
  <rect x="27" y="7" width="1" height="1" fill="#acaeb019"/>
  <rect x="28" y="7" width="1" height="1" fill="#a5a7a99b"/>
  <rect x="29" y="7" width="1" height="1" fill="#8b8d8fec"/>
  <rect x="30" y="7" width="1" height="1" fill="#8b8d8fe9"/>
  <rect x="31" y="7" width="1" height="1" fill="#a5a7a997"/>
  <rect x="32" y="7" width="1" height="1" fill="#a7a9ab17"/>
  <rect x="33" y="7" width="1" height="1" fill="#8b8d8fa1"/>
  <rect x="34" y="7" width="1" height="1" fill="#afb1b3"/>
  <rect x="35" y="7" width="1" height="1" fill="#abadaec7"/>
  <rect x="0" y="8" width="1" height="1" fill="#b3b0b16e"/>
  <rect x="1" y="8" width="1" height="1" fill="#c8c5c6"/>
  <rect x="2" y="8" width="1" height="1" fill="#cccacb"/>
  <rect x="3" y="8" width="1" height="1" fill="#c4c2c2be"/>
  <rect x="4" y="8" width="1" height="1" fill="#cfcccd46"/>
  <rect x="5" y="8" width="1" height="1" fill="#bab7b80b"/>
  <rect x="6" y="8" width="1" height="1" fill="#bab7b80a"/>
  <rect x="7" y="8" width="1" height="1" fill="#cfcccd46"/>
  <rect x="8" y="8" width="1" height="1" fill="#c9c9c9be"/>
  <rect x="9" y="8" width="1" height="1" fill="#c8c8c8"/>
  <rect x="10" y="8" width="1" height="1" fill="#bebebe"/>
  <rect x="11" y="8" width="1" height="1" fill="#b3b3b36e"/>
  <rect x="12" y="8" width="1" height="1" fill="#9090906e"/>
  <rect x="13" y="8" width="1" height="1" fill="#adadad"/>
  <rect x="14" y="8" width="1" height="1" fill="#b9b9b9"/>
  <rect x="15" y="8" width="1" height="1" fill="#abababbe"/>
  <rect x="16" y="8" width="1" height="1" fill="#b4b6b846"/>
  <rect x="17" y="8" width="1" height="1" fill="#aaacad0b"/>
  <rect x="18" y="8" width="1" height="1" fill="#aaacad0a"/>
  <rect x="19" y="8" width="1" height="1" fill="#b4b6b846"/>
  <rect x="20" y="8" width="1" height="1" fill="#afb1b3be"/>
  <rect x="21" y="8" width="1" height="1" fill="#b6b8ba"/>
  <rect x="22" y="8" width="1" height="1" fill="#b1b3b4"/>
  <rect x="23" y="8" width="1" height="1" fill="#989a9c6e"/>
  <rect x="24" y="8" width="1" height="1" fill="#a6a8aa6e"/>
  <rect x="25" y="8" width="1" height="1" fill="#afb1b3"/>
  <rect x="26" y="8" width="1" height="1" fill="#a0a2a4"/>
  <rect x="27" y="8" width="1" height="1" fill="#898b8dbe"/>
  <rect x="28" y="8" width="1" height="1" fill="#a3a5a646"/>
  <rect x="29" y="8" width="1" height="1" fill="#adafb10b"/>
  <rect x="30" y="8" width="1" height="1" fill="#adafb10a"/>
  <rect x="31" y="8" width="1" height="1" fill="#a3a5a646"/>
  <rect x="32" y="8" width="1" height="1" fill="#87898abe"/>
  <rect x="33" y="8" width="1" height="1" fill="#a5a7a9"/>
  <rect x="34" y="8" width="1" height="1" fill="#b2b4b5"/>
  <rect x="35" y="8" width="1" height="1" fill="#a6a8aa6e"/>
  <rect x="1" y="9" width="1" height="1" fill="#afadadd0"/>
  <rect x="2" y="9" width="1" height="1" fill="#bfbdbe"/>
  <rect x="3" y="9" width="1" height="1" fill="#cac7c8"/>
  <rect x="4" y="9" width="1" height="1" fill="#cccacb"/>
  <rect x="5" y="9" width="1" height="1" fill="#bebcbd87"/>
  <rect x="6" y="9" width="1" height="1" fill="#bebcbd78"/>
  <rect x="7" y="9" width="1" height="1" fill="#cccacb"/>
  <rect x="8" y="9" width="1" height="1" fill="#c5c5c5"/>
  <rect x="9" y="9" width="1" height="1" fill="#bababa"/>
  <rect x="10" y="9" width="1" height="1" fill="#b0b0b0d1"/>
  <rect x="13" y="9" width="1" height="1" fill="#9d9d9dd0"/>
  <rect x="14" y="9" width="1" height="1" fill="#ababab"/>
  <rect x="15" y="9" width="1" height="1" fill="#b7b7b7"/>
  <rect x="16" y="9" width="1" height="1" fill="#b5b7b9"/>
  <rect x="17" y="9" width="1" height="1" fill="#a4a6a787"/>
  <rect x="18" y="9" width="1" height="1" fill="#a4a6a778"/>
  <rect x="19" y="9" width="1" height="1" fill="#b5b7b9"/>
  <rect x="20" y="9" width="1" height="1" fill="#b1b3b4"/>
  <rect x="21" y="9" width="1" height="1" fill="#a6a8aa"/>
  <rect x="22" y="9" width="1" height="1" fill="#9ea0a2d1"/>
  <rect x="25" y="9" width="1" height="1" fill="#acaeb0d0"/>
  <rect x="26" y="9" width="1" height="1" fill="#b6b8ba"/>
  <rect x="27" y="9" width="1" height="1" fill="#a8aaac"/>
  <rect x="28" y="9" width="1" height="1" fill="#929496"/>
  <rect x="29" y="9" width="1" height="1" fill="#87898a87"/>
  <rect x="30" y="9" width="1" height="1" fill="#87898a78"/>
  <rect x="31" y="9" width="1" height="1" fill="#929496"/>
  <rect x="32" y="9" width="1" height="1" fill="#a8aaac"/>
  <rect x="33" y="9" width="1" height="1" fill="#b3b5b6"/>
  <rect x="34" y="9" width="1" height="1" fill="#aeb0b2d1"/>
  <rect x="1" y="10" width="1" height="1" fill="#a9a9a91b"/>
  <rect x="2" y="10" width="1" height="1" fill="#a9a9a9cf"/>
  <rect x="3" y="10" width="1" height="1" fill="#bebebe"/>
  <rect x="4" y="10" width="1" height="1" fill="#c7c7c7"/>
  <rect x="5" y="10" width="1" height="1" fill="#c2c2c292"/>
  <rect x="6" y="10" width="1" height="1" fill="#c2c2c28e"/>
  <rect x="7" y="10" width="1" height="1" fill="#c7c7c7"/>
  <rect x="8" y="10" width="1" height="1" fill="#b6b6b6"/>
  <rect x="9" y="10" width="1" height="1" fill="#abababd0"/>
  <rect x="10" y="10" width="1" height="1" fill="#ababab1b"/>
  <rect x="13" y="10" width="1" height="1" fill="#9a9a9a1b"/>
  <rect x="14" y="10" width="1" height="1" fill="#9d9d9dcf"/>
  <rect x="15" y="10" width="1" height="1" fill="#adadad"/>
  <rect x="16" y="10" width="1" height="1" fill="#aaacad"/>
  <rect x="17" y="10" width="1" height="1" fill="#afb1b392"/>
  <rect x="18" y="10" width="1" height="1" fill="#afb1b38e"/>
  <rect x="19" y="10" width="1" height="1" fill="#aaacad"/>
  <rect x="20" y="10" width="1" height="1" fill="#a6a8aa"/>
  <rect x="21" y="10" width="1" height="1" fill="#999b9dd0"/>
  <rect x="22" y="10" width="1" height="1" fill="#9698991b"/>
  <rect x="25" y="10" width="1" height="1" fill="#abadae1b"/>
  <rect x="26" y="10" width="1" height="1" fill="#afb1b3cf"/>
  <rect x="27" y="10" width="1" height="1" fill="#afb1b3"/>
  <rect x="28" y="10" width="1" height="1" fill="#b5b7b9"/>
  <rect x="29" y="10" width="1" height="1" fill="#9c9e9f92"/>
  <rect x="30" y="10" width="1" height="1" fill="#9c9e9f8e"/>
  <rect x="31" y="10" width="1" height="1" fill="#b5b7b9"/>
  <rect x="32" y="10" width="1" height="1" fill="#b2b4b5"/>
  <rect x="33" y="10" width="1" height="1" fill="#b3b5b6d0"/>
  <rect x="34" y="10" width="1" height="1" fill="#aeb0b21b"/>
  <rect x="3" y="11" width="1" height="1" fill="#a5a5a56f"/>
  <rect x="4" y="11" width="1" height="1" fill="#a3a3a3cb"/>
  <rect x="5" y="11" width="2" height="1" fill="#a5a5a5f4"/>
  <rect x="7" y="11" width="1" height="1" fill="#a4a4a4cb"/>
  <rect x="8" y="11" width="1" height="1" fill="#a7a6a76f"/>
  <rect x="15" y="11" width="1" height="1" fill="#9494946f"/>
  <rect x="16" y="11" width="1" height="1" fill="#989a9ccb"/>
  <rect x="17" y="11" width="2" height="1" fill="#97999bf4"/>
  <rect x="19" y="11" width="1" height="1" fill="#989a9ccb"/>
  <rect x="20" y="11" width="1" height="1" fill="#989a9c6f"/>
  <rect x="27" y="11" width="1" height="1" fill="#aeb0b26f"/>
  <rect x="28" y="11" width="1" height="1" fill="#b1b3b4cb"/>
  <rect x="29" y="11" width="2" height="1" fill="#9a9c9ef4"/>
  <rect x="31" y="11" width="1" height="1" fill="#b1b3b4cb"/>
  <rect x="32" y="11" width="1" height="1" fill="#b2b4b56f"/>
</svg>