<svg xmlns="http://www.w3.org/2000/svg" width="36" height="12" viewBox="0 0 36 12" shape-rendering="crispEdges">
  <rect x="3" y="0" width="1" height="1" fill="#cdc6c86e"/>
  <rect x="4" y="0" width="1" height="1" fill="#ccc5c7c7"/>
  <rect x="5" y="0" width="1" height="1" fill="#cbc3c6f3"/>
  <rect x="6" y="0" width="1" height="1" fill="#c9c4c6f3"/>
  <rect x="7" y="0" width="1" height="1" fill="#cac5c7c7"/>
  <rect x="8" y="0" width="1" height="1" fill="#c9c6c76e"/>
  <rect x="15" y="0" width="1" height="1" fill="#b2b2b26e"/>
  <rect x="16" y="0" width="1" height="1" fill="#b1b3b4c7"/>
  <rect x="17" y="0" width="2" height="1" fill="#b1b3b4f3"/>
  <rect x="19" y="0" width="1" height="1" fill="#b2b4b5c7"/>
  <rect x="20" y="0" width="1" height="1" fill="#b3b5b66e"/>
  <rect x="27" y="0" width="1" height="1" fill="#8284866e"/>
  <rect x="28" y="0" width="1" height="1" fill="#848688c7"/>
  <rect x="29" y="0" width="2" height="1" fill="#848688f3"/>
  <rect x="31" y="0" width="1" height="1" fill="#848688c7"/>
  <rect x="32" y="0" width="1" height="1" fill="#8486886e"/>
  <rect x="1" y="1" width="1" height="1" fill="#c6bfc11b"/>
  <rect x="2" y="1" width="1" height="1" fill="#cbc3c6cf"/>
  <rect x="3" y="1" width="1" height="3" fill="#cdc6c8"/>
  <rect x="4" y="1" width="1" height="3" fill="#ccc5c7"/>
  <rect x="5" y="1" width="1" height="3" fill="#cbc3c6"/>
  <rect x="6" y="1" width="1" height="3" fill="#c9c4c6"/>
  <rect x="7" y="1" width="1" height="3" fill="#cac5c7"/>
  <rect x="8" y="1" width="1" height="3" fill="#c9c6c7"/>
  <rect x="9" y="1" width="1" height="1" fill="#c6c4c5cf"/>
  <rect x="10" y="1" width="1" height="1" fill="#c0c0c01b"/>
  <rect x="13" y="1" width="1" height="1" fill="#b2b2b21b"/>
  <rect x="14" y="1" width="1" height="1" fill="#b2b2b2cf"/>
  <rect x="15" y="1" width="1" height="1" fill="#b2b2b2"/>
  <rect x="16" y="1" width="3" height="3" fill="#b1b3b4"/>
  <rect x="19" y="1" width="1" height="4" fill="#b2b4b5"/>
  <rect x="20" y="1" width="1" height="3" fill="#b3b5b6"/>
  <rect x="21" y="1" width="1" height="1" fill="#b2b4b5cf"/>
  <rect x="22" y="1" width="1" height="1" fill="#afb1b31b"/>
  <rect x="25" y="1" width="1" height="1" fill="#888a8b1b"/>
  <rect x="26" y="1" width="1" height="1" fill="#898b8dcf"/>
  <rect x="27" y="1" width="1" height="1" fill="#97999b"/>
  <rect x="28" y="1" width="4" height="1" fill="#acaeb0"/>
  <rect x="32" y="1" width="1" height="1" fill="#999b9d"/>
  <rect x="33" y="1" width="1" height="1" fill="#888a8bcf"/>
  <rect x="34" y="1" width="1" height="1" fill="#8284861b"/>
  <rect x="1" y="2" width="1" height="1" fill="#c6bfc1cf"/>
  <rect x="2" y="2" width="1" height="2" fill="#cbc3c6"/>
  <rect x="9" y="2" width="1" height="2" fill="#c6c4c5"/>
  <rect x="10" y="2" width="1" height="1" fill="#c0c0c0d0"/>
  <rect x="13" y="2" width="1" height="1" fill="#b2b2b2cf"/>
  <rect x="14" y="2" width="2" height="1" fill="#b2b2b2"/>
  <rect x="21" y="2" width="1" height="2" fill="#b2b4b5"/>
  <rect x="22" y="2" width="1" height="1" fill="#afb1b3d0"/>
  <rect x="25" y="2" width="1" height="1" fill="#8f9192cf"/>
  <rect x="26" y="2" width="1" height="1" fill="#a7a9ab"/>
  <rect x="27" y="2" width="1" height="1" fill="#acaeb0"/>
  <rect x="28" y="2" width="4" height="2" fill="#b1b3b4"/>
  <rect x="32" y="2" width="1" height="1" fill="#adafb1"/>
  <rect x="33" y="2" width="1" height="1" fill="#a6a8aa"/>
  <rect x="34" y="2" width="1" height="1" fill="#8e9091d0"/>
  <rect x="0" y="3" width="1" height="1" fill="#c5bec06d"/>
  <rect x="1" y="3" width="1" height="1" fill="#c6bfc1"/>
  <rect x="10" y="3" width="1" height="1" fill="#c0c0c0"/>
  <rect x="11" y="3" width="1" height="1" fill="#bababa6d"/>
  <rect x="12" y="3" width="1" height="1" fill="#b3b3b36d"/>
  <rect x="13" y="3" width="3" height="1" fill="#b2b2b2"/>
  <rect x="22" y="3" width="1" height="3" fill="#afb1b3"/>
  <rect x="23" y="3" width="1" height="1" fill="#adafb16d"/>
  <rect x="24" y="3" width="1" height="1" fill="#8385876d"/>
  <rect x="25" y="3" width="1" height="1" fill="#a8aaac"/>
  <rect x="26" y="3" width="1" height="1" fill="#b3b5b6"/>
  <rect x="27" y="3" width="1" height="1" fill="#aeb0b2"/>
  <rect x="32" y="3" width="1" height="1" fill="#aeb0b2"/>
  <rect x="33" y="3" width="1" height="1" fill="#b4b6b8"/>
  <rect x="34" y="3" width="1" height="1" fill="#aaacad"/>
  <rect x="35" y="3" width="1" height="1" fill="#8486886d"/>
  <rect x="0" y="4" width="1" height="1" fill="#c8c1c4c7"/>
  <rect x="1" y="4" width="1" height="1" fill="#c8c1c4"/>
  <rect x="2" y="4" width="1" height="1" fill="#b1aaac"/>
  <rect x="3" y="4" width="1" height="1" fill="#aea6a9"/>
  <rect x="4" y="4" width="1" height="2" fill="#cbc3c6"/>
  <rect x="5" y="4" width="1" height="1" fill="#b6afb1"/>
  <rect x="6" y="4" width="1" height="1" fill="#b4afb1"/>
  <rect x="7" y="4" width="1" height="2" fill="#c9c4c6"/>
  <rect x="8" y="4" width="2" height="1" fill="#b4b1b2"/>
  <rect x="10" y="4" width="1" height="1" fill="#c9c9c9"/>
  <rect x="11" y="4" width="1" height="1" fill="#c9c9c9c7"/>
  <rect x="12" y="4" width="1" height="1" fill="#b1b1b1c7"/>
  <rect x="13" y="4" width="1" height="1" fill="#b2b2b2"/>
  <rect x="14" y="4" width="1" height="1" fill="#a0a0a0"/>
  <rect x="15" y="4" width="1" height="1" fill="#979797"/>
  <rect x="16" y="4" width="1" height="1" fill="#b2b4b5"/>
  <rect x="17" y="4" width="2" height="1" fill="#9d9fa0"/>
  <rect x="20" y="4" width="1" height="1" fill="#a5a7a9"/>
  <rect x="21" y="4" width="1" height="1" fill="#9fa1a3"/>
  <rect x="23" y="4" width="1" height="1" fill="#b8babbc7"/>
  <rect x="24" y="4" width="1" height="1" fill="#989a9cc7"/>
  <rect x="25" y="4" width="1" height="1" fill="#b1b3b4"/>
  <rect x="26" y="4" width="1" height="1" fill="#b6b8ba"/>
  <rect x="27" y="4" width="1" height="1" fill="#b4b6b8"/>
  <rect x="28" y="4" width="1" height="3" fill="#b2b3b7"/>
  <rect x="29" y="4" width="2" height="1" fill="#b4b6ba"/>
  <rect x="31" y="4" width="1" height="4" fill="#b2b3b7"/>
  <rect x="32" y="4" width="1" height="1" fill="#b2b4b5"/>
  <rect x="33" y="4" width="1" height="1" fill="#b5b7b9"/>
  <rect x="34" y="4" width="1" height="1" fill="#afb1b3"/>
  <rect x="35" y="4" width="1" height="1" fill="#989a9cc7"/>
  <rect x="0" y="5" width="1" height="1" fill="#c6bfc1f9"/>
  <rect x="1" y="5" width="1" height="1" fill="#ccc5c7"/>
  <rect x="2" y="5" width="2" height="1" fill="#b8b1b33c"/>
  <rect x="5" y="5" width="1" height="1" fill="#bdb6b83b"/>
  <rect x="6" y="5" width="1" height="1" fill="#bbb6b83c"/>
  <rect x="8" y="5" width="1" height="1" fill="#b4b1b23c"/>
  <rect x="9" y="5" width="1" height="1" fill="#b1afb03c"/>
  <rect x="10" y="5" width="1" height="1" fill="#c2c2c2"/>
  <rect x="11" y="5" width="1" height="1" fill="#c0c0c0f8"/>
  <rect x="12" y="5" width="1" height="1" fill="#afafaff9"/>
  <rect x="13" y="5" width="1" height="1" fill="#b3b3b3"/>
  <rect x="14" y="5" width="1" height="1" fill="#a5a5a53c"/>
  <rect x="15" y="5" width="1" height="1" fill="#a0a0a03c"/>
  <rect x="16" y="5" width="1" height="2" fill="#b3b5b6"/>
  <rect x="17" y="5" width="1" height="1" fill="#9c9e9f3b"/>
  <rect x="18" y="5" width="1" height="1" fill="#9c9e9f3c"/>
  <rect x="19" y="5" width="1" height="2" fill="#b3b5b6"/>
  <rect x="20" y="5" width="1" height="1" fill="#9fa1a33c"/>
  <rect x="21" y="5" width="1" height="1" fill="#9ea0a23c"/>
  <rect x="23" y="5" width="1" height="1" fill="#b4b6b8f8"/>
  <rect x="24" y="5" width="1" height="1" fill="#a4a6a7f9"/>
  <rect x="25" y="5" width="1" height="1" fill="#b4b6b8"/>
  <rect x="26" y="5" width="1" height="1" fill="#b2b4b53c"/>
  <rect x="27" y="5" width="1" height="1" fill="#b4b6b83c"/>
  <rect x="29" y="5" width="1" height="1" fill="#b2b3b73b"/>
  <rect x="30" y="5" width="1" height="1" fill="#b2b3b73c"/>
  <rect x="32" y="5" width="1" height="1" fill="#b2b4b53c"/>
  <rect x="33" y="5" width="1" height="1" fill="#afb1b33c"/>
  <rect x="34" y="5" width="1" height="1" fill="#b3b5b6"/>
  <rect x="35" y="5" width="1" height="1" fill="#a3a5a6f8"/>
  <rect x="0" y="6" width="1" height="1" fill="#bfbabbf9"/>
  <rect x="1" y="6" width="1" height="2" fill="#cdc8c9"/>
  <rect x="2" y="6" width="1" height="1" fill="#c1bcbe3c"/>
  <rect x="3" y="6" width="1" height="1" fill="#c7c2c43b"/>
  <rect x="4" y="6" width="1" height="2" fill="#c9c4c6"/>
  <rect x="5" y="6" width="2" height="1" fill="#c4c0c13b"/>
  <rect x="7" y="6" width="1" height="1" fill="#c8c5c6"/>
  <rect x="8" y="6" width="1" height="1" fill="#cbc9c93c"/>
  <rect x="9" y="6" width="1" height="1" fill="#c4c2c23b"/>
  <rect x="10" y="6" width="1" height="1" fill="#d0d0d0"/>
  <rect x="11" y="6" width="1" height="1" fill="#c9c9c9f3"/>
  <rect x="12" y="6" width="1" height="1" fill="#adadadf9"/>
  <rect x="13" y="6" width="1" height="1" fill="#b6b6b6"/>
  <rect x="14" y="6" width="1" height="1" fill="#acacac3c"/>
  <rect x="15" y="6" width="1" height="1" fill="#ababab3b"/>
  <rect x="17" y="6" width="2" height="1" fill="#b4b6b83b"/>
  <rect x="20" y="6" width="1" height="1" fill="#b6b8ba3c"/>
  <rect x="21" y="6" width="1" height="1" fill="#b2b4b53b"/>
  <rect x="22" y="6" width="1" height="2" fill="#b4b6b8"/>
  <rect x="23" y="6" width="1" height="1" fill="#abadaef3"/>
  <rect x="24" y="6" width="1" height="1" fill="#b4b6b8f9"/>
  <rect x="25" y="6" width="1" height="1" fill="#b2b4b5"/>
  <rect x="26" y="6" width="1" height="1" fill="#9698993c"/>
  <rect x="27" y="6" width="1" height="1" fill="#9294963b"/>
  <rect x="29" y="6" width="2" height="1" fill="#9294983b"/>
  <rect x="32" y="6" width="1" height="1" fill="#9092943c"/>
  <rect x="33" y="6" width="1" height="1" fill="#9294963b"/>
  <rect x="34" y="6" width="1" height="1" fill="#b1b3b4"/>
  <rect x="35" y="6" width="1" height="1" fill="#b3b5b6f3"/>
  <rect x="0" y="7" width="1" height="1" fill="#bbb6b8c7"/>
  <rect x="2" y="7" width="1" height="1" fill="#c7c2c4"/>
  <rect x="3" y="7" width="1" height="1" fill="#d4cfd0"/>
  <rect x="5" y="7" width="1" height="1" fill="#cbc7c8"/>
  <rect x="6" y="7" width="2" height="1" fill="#cac7c8"/>
  <rect x="8" y="7" width="1" height="1" fill="#c9c6c7"/>
  <rect x="9" y="7" width="1" height="1" fill="#c2bfc0"/>
  <rect x="10" y="7" width="1" height="1" fill="#c9c9c9"/>
  <rect x="11" y="7" width="1" height="1" fill="#c0c0c0c7"/>
  <rect x="12" y="7" width="1" height="1" fill="#acacacc7"/>
  <rect x="13" y="7" width="1" height="1" fill="#b7b7b7"/>
  <rect x="14" y="7" width="1" height="1" fill="#b2b2b2"/>
  <rect x="15" y="7" width="1" height="1" fill="#b3b3b3"/>
  <rect x="16" y="7" width="4" height="1" fill="#b3b5b6"/>
  <rect x="20" y="7" width="2" height="1" fill="#b1b3b4"/>
  <rect x="23" y="7" width="1" height="1" fill="#a6a8aac7"/>
  <rect x="24" y="7" width="1" height="1" fill="#b4b6b8c7"/>
  <rect x="25" y="7" width="1" height="1" fill="#b4b6b8"/>
  <rect x="26" y="7" width="1" height="1" fill="#929496"/>
  <rect x="27" y="7" width="1" height="1" fill="#909294"/>
  <rect x="28" y="7" width="1" height="2" fill="#b1b2b6"/>
  <rect x="29" y="7" width="2" height="1" fill="#909296"/>
  <rect x="32" y="7" width="1" height="1" fill="#8f9192"/>
  <rect x="33" y="7" width="1" height="1" fill="#909294"/>
  <rect x="34" y="7" width="1" height="1" fill="#b2b4b5"/>
  <rect x="35" y="7" width="1" height="1" fill="#b3b5b6c7"/>
  <rect x="0" y="8" width="1" height="1" fill="#b4b1b26e"/>
  <rect x="1" y="8" width="1" height="1" fill="#c6c4c5"/>
  <rect x="2" y="8" width="1" height="1" fill="#cbc9c9"/>
  <rect x="3" y="8" width="2" height="1" fill="#c6c4c5"/>
  <rect x="5" y="8" width="2" height="1" fill="#c9c6c7"/>
  <rect x="7" y="8" width="1" height="1" fill="#c6c4c5"/>
  <rect x="8" y="8" width="1" height="1" fill="#c7c7c7"/>
  <rect x="9" y="8" width="1" height="1" fill="#c1c1c1"/>
  <rect x="10" y="8" width="1" height="1" fill="#b9b9b9"/>
  <rect x="11" y="8" width="1" height="1" fill="#ababab6e"/>
  <rect x="12" y="8" width="1" height="1" fill="#9e9e9e6e"/>
  <rect x="13" y="8" width="1" height="1" fill="#acacac"/>
  <rect x="14" y="8" width="1" height="1" fill="#b1b1b1"/>
  <rect x="15" y="8" width="1" height="1" fill="#acacac"/>
  <rect x="16" y="8" width="4" height="1" fill="#b2b4b5"/>
  <rect x="20" y="8" width="1" height="2" fill="#b3b5b9"/>
  <rect x="21" y="8" width="1" height="1" fill="#b4b6ba"/>
  <rect x="22" y="8" width="1" height="1" fill="#b2b3b7"/>
  <rect x="23" y="8" width="1" height="1" fill="#9395996e"/>
  <rect x="24" y="8" width="1" height="1" fill="#abacb06e"/>
  <rect x="25" y="8" width="1" height="1" fill="#b3b5b9"/>
  <rect x="26" y="8" width="1" height="1" fill="#b8b9bd"/>
  <rect x="27" y="8" width="1" height="1" fill="#afb1b5"/>
  <rect x="29" y="8" width="1" height="1" fill="#b2b3b7"/>
  <rect x="30" y="8" width="2" height="1" fill="#b3b5b9"/>
  <rect x="32" y="8" width="1" height="1" fill="#b3b5b6"/>
  <rect x="33" y="8" width="1" height="1" fill="#b6b8ba"/>
  <rect x="34" y="8" width="1" height="1" fill="#adafb1"/>
  <rect x="35" y="8" width="1" height="1" fill="#acaeb06e"/>
  <rect x="1" y="9" width="1" height="1" fill="#afadadd0"/>
  <rect x="2" y="9" width="1" height="1" fill="#bebcbd"/>
  <rect x="3" y="9" width="2" height="1" fill="#c9c6c7"/>
  <rect x="5" y="9" width="2" height="1" fill="#cbc9c9"/>
  <rect x="7" y="9" width="1" height="1" fill="#c9c6c7"/>
  <rect x="8" y="9" width="1" height="1" fill="#c2c2c2"/>
  <rect x="9" y="9" width="1" height="1" fill="#b8b8b8"/>
  <rect x="10" y="9" width="1" height="1" fill="#adadadd1"/>
  <rect x="13" y="9" width="1" height="1" fill="#9e9e9ed0"/>
  <rect x="14" y="9" width="1" height="1" fill="#a8a8a8"/>
  <rect x="15" y="9" width="1" height="1" fill="#b2b2b2"/>
  <rect x="16" y="9" width="4" height="1" fill="#b3b5b6"/>
  <rect x="21" y="9" width="1" height="1" fill="#acaeb2"/>
  <rect x="22" y="9" width="1" height="1" fill="#9a9ca0d1"/>
  <rect x="25" y="9" width="1" height="1" fill="#abacb0d0"/>
  <rect x="26" y="9" width="1" height="1" fill="#adafb3"/>
  <rect x="27" y="9" width="1" height="1" fill="#b1b2b6"/>
  <rect x="28" y="9" width="3" height="1" fill="#b3b5b9"/>
  <rect x="31" y="9" width="1" height="1" fill="#b2b3b7"/>
  <rect x="32" y="9" width="1" height="1" fill="#b2b4b5"/>
  <rect x="33" y="9" width="1" height="1" fill="#b1b3b4"/>
  <rect x="34" y="9" width="1" height="1" fill="#acaeb0d1"/>
  <rect x="1" y="10" width="1" height="1" fill="#a9a9a91b"/>
  <rect x="2" y="10" width="1" height="1" fill="#a9a9a9cf"/>
  <rect x="3" y="10" width="2" height="1" fill="#bdbdbd"/>
  <rect x="5" y="10" width="2" height="1" fill="#bfbfbf"/>
  <rect x="7" y="10" width="1" height="1" fill="#bdbdbd"/>
  <rect x="8" y="10" width="1" height="1" fill="#b1b1b1"/>
  <rect x="9" y="10" width="1" height="1" fill="#acacacd0"/>
  <rect x="10" y="10" width="1" height="1" fill="#a9a9a91b"/>
  <rect x="13" y="10" width="1" height="1" fill="#9b9b9b1b"/>
  <rect x="14" y="10" width="1" height="1" fill="#999999cf"/>
  <rect x="15" y="10" width="1" height="1" fill="#a5a5a5"/>
  <rect x="16" y="10" width="4" height="1" fill="#adafb1"/>
  <rect x="20" y="10" width="1" height="1" fill="#a6a8ac"/>
  <rect x="21" y="10" width="1" height="1" fill="#9ea0a4d0"/>
  <rect x="22" y="10" width="1" height="1" fill="#95969a1b"/>
  <rect x="25" y="10" width="1" height="1" fill="#a5a7ab1b"/>
  <rect x="26" y="10" width="1" height="1" fill="#b4b6bacf"/>
  <rect x="27" y="10" width="1" height="1" fill="#b4b6ba"/>
  <rect x="28" y="10" width="1" height="1" fill="#b3b5b9"/>
  <rect x="29" y="10" width="1" height="1" fill="#b2b3b7"/>
  <rect x="30" y="10" width="2" height="1" fill="#b1b2b6"/>
  <rect x="32" y="10" width="1" height="1" fill="#afb1b3"/>
  <rect x="33" y="10" width="1" height="1" fill="#acaeb0d0"/>
  <rect x="34" y="10" width="1" height="1" fill="#adafb11b"/>
  <rect x="3" y="11" width="1" height="1" fill="#a5a5a56f"/>
  <rect x="4" y="11" width="1" height="1" fill="#a5a5a5cb"/>
  <rect x="5" y="11" width="2" height="1" fill="#a8a8a8f4"/>
  <rect x="7" y="11" width="1" height="1" fill="#a5a5a5cb"/>
  <rect x="8" y="11" width="1" height="1" fill="#a4a4a46f"/>
  <rect x="15" y="11" width="1" height="1" fill="#9292926f"/>
  <rect x="16" y="11" width="1" height="1" fill="#959798cb"/>
  <rect x="17" y="11" width="2" height="1" fill="#959798f4"/>
  <rect x="19" y="11" width="1" height="1" fill="#959798cb"/>
  <rect x="20" y="11" width="1" height="1" fill="#97999d6f"/>
  <rect x="27" y="11" width="1" height="1" fill="#b1b2b66f"/>
  <rect x="28" y="11" width="1" height="1" fill="#b1b2b6cb"/>
  <rect x="29" y="11" width="2" height="1" fill="#b1b2b6f4"/>
  <rect x="31" y="11" width="1" height="1" fill="#b1b2b6cb"/>
  <rect x="32" y="11" width="1" height="1" fill="#b4b6b86f"/>
</svg>