<svg xmlns="http://www.w3.org/2000/svg" width="40" height="16" viewBox="0 0 40 16" shape-rendering="crispEdges">
  <rect x="1" y="0" width="5" height="1" fill="#eeeeee"/>
  <rect x="6" y="0" width="2" height="1" fill="#efefef"/>
  <rect x="8" y="0" width="2" height="1" fill="#f0f0f0"/>
  <rect x="10" y="0" width="6" height="1" fill="#f1f1f1"/>
  <rect x="16" y="0" width="3" height="1" fill="#f0f0f0"/>
  <rect x="21" y="0" width="8" height="1" fill="#f0f0f0"/>
  <rect x="29" y="0" width="1" height="1" fill="#f1f1f1"/>
  <rect x="30" y="0" width="1" height="1" fill="#f2f2f2"/>
  <rect x="31" y="0" width="2" height="1" fill="#f3f3f3"/>
  <rect x="33" y="0" width="1" height="1" fill="#f5f5f5"/>
  <rect x="34" y="0" width="1" height="1" fill="#f6f6f6"/>
  <rect x="35" y="0" width="1" height="1" fill="#f7f7f7"/>
  <rect x="36" y="0" width="1" height="1" fill="#f6f6f6"/>
  <rect x="37" y="0" width="1" height="1" fill="#f0f0f0"/>
  <rect x="38" y="0" width="1" height="1" fill="#e9e9e9"/>
  <rect x="7" y="6" width="1" height="1" fill="#c8c8c8"/>
  <rect x="8" y="6" width="4" height="1" fill="#c5c5c5"/>
  <rect x="12" y="6" width="1" height="1" fill="#c7c7c7"/>
  <rect x="13" y="6" width="1" height="1" fill="#cccccc"/>
  <rect x="27" y="6" width="1" height="1" fill="#adadad"/>
  <rect x="28" y="6" width="4" height="1" fill="#888888"/>
  <rect x="32" y="6" width="1" height="1" fill="#8b8b8b"/>
  <rect x="33" y="6" width="1" height="1" fill="#aaaaaa"/>
  <rect x="7" y="7" width="1" height="1" fill="#fefefe"/>
  <rect x="8" y="7" width="4" height="1" fill="#c6c6c6"/>
  <rect x="12" y="7" width="1" height="1" fill="#b6b6b6"/>
  <rect x="13" y="7" width="1" height="1" fill="#f6f6f6"/>
  <rect x="27" y="7" width="1" height="1" fill="#f8f8f8"/>
  <rect x="28" y="7" width="4" height="1" fill="#b6b6b6"/>
  <rect x="32" y="7" width="1" height="1" fill="#bababa"/>
  <rect x="33" y="7" width="1" height="1" fill="#f2f2f2"/>
  <rect x="8" y="8" width="1" height="1" fill="#ececec"/>
  <rect x="9" y="8" width="1" height="1" fill="#b9b9b9"/>
  <rect x="10" y="8" width="1" height="1" fill="#c8c8c8"/>
  <rect x="11" y="8" width="1" height="1" fill="#bbbbbb"/>
  <rect x="12" y="8" width="1" height="1" fill="#e0e0e0"/>
  <rect x="28" y="8" width="1" height="1" fill="#ececec"/>
  <rect x="29" y="8" width="1" height="1" fill="#b7b7b7"/>
  <rect x="30" y="8" width="1" height="1" fill="#b8b8b8"/>
  <rect x="31" y="8" width="1" height="1" fill="#b4b4b4"/>
  <rect x="32" y="8" width="1" height="1" fill="#eaeaea"/>
  <rect x="9" y="9" width="1" height="1" fill="#cfcfcf"/>
  <rect x="10" y="9" width="1" height="1" fill="#b9b9b9"/>
  <rect x="11" y="9" width="1" height="1" fill="#d3d3d3"/>
  <rect x="29" y="9" width="1" height="1" fill="#d5d5d5"/>
  <rect x="30" y="9" width="1" height="1" fill="#b2b2b2"/>
  <rect x="31" y="9" width="1" height="1" fill="#d3d3d3"/>
  <rect x="10" y="10" width="1" height="1" fill="#c8c8c8"/>
  <rect x="30" y="10" width="1" height="1" fill="#cecece"/>
</svg>