<svg xmlns="http://www.w3.org/2000/svg" width="96" height="24" viewBox="0 0 96 24" shape-rendering="crispEdges">
  <rect x="1" y="0" width="1" height="1" fill="#dbdbdb25"/>
  <rect x="2" y="0" width="1" height="1" fill="#e5e5e5ad"/>
  <rect x="3" y="0" width="1" height="1" fill="#e3e3e3f1"/>
  <rect x="4" y="0" width="12" height="1" fill="#dcdcdc"/>
  <rect x="16" y="0" width="4" height="1" fill="#e2e2e2"/>
  <rect x="20" y="0" width="1" height="1" fill="#e3e3e3f1"/>
  <rect x="21" y="0" width="1" height="1" fill="#e1e1e1ad"/>
  <rect x="22" y="0" width="1" height="1" fill="#dedede25"/>
  <rect x="25" y="0" width="1" height="1" fill="#c9c9c925"/>
  <rect x="26" y="0" width="1" height="1" fill="#cececead"/>
  <rect x="27" y="0" width="1" height="1" fill="#c9c9c9f1"/>
  <rect x="28" y="0" width="4" height="1" fill="#cecece"/>
  <rect x="32" y="0" width="12" height="1" fill="#cececc"/>
  <rect x="44" y="0" width="1" height="1" fill="#c9cac7f1"/>
  <rect x="45" y="0" width="1" height="1" fill="#cbcbc9ad"/>
  <rect x="46" y="0" width="1" height="1" fill="#ccccca25"/>
  <rect x="49" y="0" width="1" height="1" fill="#bbbcb927"/>
  <rect x="50" y="0" width="1" height="1" fill="#b7b7b5ad"/>
  <rect x="51" y="0" width="1" height="1" fill="#b9bab7f2"/>
  <rect x="52" y="0" width="16" height="1" fill="#b4b5b2"/>
  <rect x="68" y="0" width="1" height="1" fill="#b8b8b6f2"/>
  <rect x="69" y="0" width="1" height="1" fill="#b3b4b1ad"/>
  <rect x="70" y="0" width="1" height="1" fill="#babbb827"/>
  <rect x="73" y="0" width="1" height="1" fill="#dedfdc25"/>
  <rect x="74" y="0" width="1" height="1" fill="#e2e2e0ad"/>
  <rect x="75" y="0" width="1" height="1" fill="#e5e6e3f1"/>
  <rect x="76" y="0" width="4" height="1" fill="#e1e1df"/>
  <rect x="80" y="0" width="12" height="1" fill="#e1e1e1"/>
  <rect x="92" y="0" width="1" height="1" fill="#e2e2e2f1"/>
  <rect x="93" y="0" width="1" height="1" fill="#e0e0e0ad"/>
  <rect x="94" y="0" width="1" height="1" fill="#dddddd25"/>
  <rect x="0" y="1" width="1" height="1" fill="#dbdbdb27"/>
  <rect x="1" y="1" width="1" height="1" fill="#dededeef"/>
  <rect x="2" y="1" width="1" height="1" fill="#f3f3f3"/>
  <rect x="3" y="1" width="18" height="1" fill="#ffffff"/>
  <rect x="21" y="1" width="1" height="1" fill="#f5f5f5"/>
  <rect x="22" y="1" width="1" height="1" fill="#e2e2e2ef"/>
  <rect x="23" y="1" width="1" height="1" fill="#e1e1e127"/>
  <rect x="24" y="1" width="1" height="1" fill="#cbcbcb27"/>
  <rect x="25" y="1" width="1" height="1" fill="#cbcbcbef"/>
  <rect x="26" y="1" width="1" height="1" fill="#e7e7e7"/>
  <rect x="27" y="1" width="1" height="1" fill="#f9f9f9"/>
  <rect x="28" y="1" width="4" height="1" fill="#ffffff"/>
  <rect x="32" y="1" width="12" height="1" fill="#fffffe"/>
  <rect x="44" y="1" width="1" height="1" fill="#fcfcf9"/>
  <rect x="45" y="1" width="1" height="1" fill="#e7e7e5"/>
  <rect x="46" y="1" width="1" height="1" fill="#cbcbc9ef"/>
  <rect x="47" y="1" width="1" height="1" fill="#ccccca27"/>
  <rect x="48" y="1" width="1" height="1" fill="#b6b6b428"/>
  <rect x="49" y="1" width="1" height="1" fill="#b7b7b5ef"/>
  <rect x="50" y="1" width="1" height="1" fill="#dbdbd9"/>
  <rect x="51" y="1" width="1" height="1" fill="#fcfcf9"/>
  <rect x="52" y="1" width="16" height="1" fill="#ffffff"/>
  <rect x="68" y="1" width="1" height="1" fill="#f9faf7"/>
  <rect x="69" y="1" width="1" height="1" fill="#e0e0de"/>
  <rect x="70" y="1" width="1" height="1" fill="#b0b0aeef"/>
  <rect x="71" y="1" width="1" height="1" fill="#b6b6b428"/>
  <rect x="72" y="1" width="1" height="1" fill="#dedfdc27"/>
  <rect x="73" y="1" width="1" height="1" fill="#e2e2e0ef"/>
  <rect x="74" y="1" width="1" height="1" fill="#f5f5f2"/>
  <rect x="75" y="1" width="5" height="1" fill="#fdfdfb"/>
  <rect x="80" y="1" width="12" height="1" fill="#fdfdfd"/>
  <rect x="92" y="1" width="1" height="1" fill="#fafafa"/>
  <rect x="93" y="1" width="1" height="1" fill="#efefef"/>
  <rect x="94" y="1" width="1" height="1" fill="#e0e0e0ef"/>
  <rect x="95" y="1" width="1" height="1" fill="#dedede27"/>
  <rect x="0" y="2" width="1" height="1" fill="#e5e5e5ad"/>
  <rect x="1" y="2" width="1" height="1" fill="#f3f3f3"/>
  <rect x="2" y="2" width="1" height="1" fill="#f8f8f8"/>
  <rect x="3" y="2" width="1" height="1" fill="#fefefe"/>
  <rect x="4" y="2" width="10" height="1" fill="#ffffff"/>
  <rect x="14" y="2" width="2" height="1" fill="#fefefe"/>
  <rect x="16" y="2" width="2" height="1" fill="#fdfdfd"/>
  <rect x="18" y="2" width="2" height="1" fill="#fcfbfc"/>
  <rect x="20" y="2" width="1" height="2" fill="#ffffff"/>
  <rect x="21" y="2" width="1" height="1" fill="#fcfbfc"/>
  <rect x="22" y="2" width="1" height="1" fill="#f3f3f3"/>
  <rect x="23" y="2" width="1" height="1" fill="#e2e2e2ad"/>
  <rect x="24" y="2" width="1" height="1" fill="#c5c5c5ad"/>
  <rect x="25" y="2" width="1" height="1" fill="#ececec"/>
  <rect x="26" y="2" width="1" height="1" fill="#fcfbfc"/>
  <rect x="27" y="2" width="1" height="2" fill="#fdfdfd"/>
  <rect x="28" y="2" width="4" height="1" fill="#fafafa"/>
  <rect x="32" y="2" width="12" height="1" fill="#fafbf8"/>
  <rect x="44" y="2" width="1" height="1" fill="#ffffff"/>
  <rect x="45" y="2" width="1" height="1" fill="#f9faf7"/>
  <rect x="46" y="2" width="1" height="1" fill="#ebece9"/>
  <rect x="47" y="2" width="1" height="1" fill="#cdcdcbad"/>
  <rect x="48" y="2" width="1" height="1" fill="#afafadad"/>
  <rect x="49" y="2" width="1" height="1" fill="#e4e5e2"/>
  <rect x="50" y="2" width="1" height="1" fill="#fafbf8"/>
  <rect x="51" y="2" width="17" height="1" fill="#f5f5f2"/>
  <rect x="68" y="2" width="1" height="1" fill="#fefefc"/>
  <rect x="69" y="2" width="1" height="1" fill="#f8f8f6"/>
  <rect x="70" y="2" width="1" height="1" fill="#dddedb"/>
  <rect x="71" y="2" width="1" height="1" fill="#bdbdbbad"/>
  <rect x="72" y="2" width="1" height="1" fill="#e0e0dead"/>
  <rect x="73" y="2" width="1" height="1" fill="#f0f0ee"/>
  <rect x="74" y="2" width="1" height="1" fill="#fcfcf9"/>
  <rect x="75" y="2" width="1" height="1" fill="#ffffff"/>
  <rect x="76" y="2" width="4" height="1" fill="#fefefc"/>
  <rect x="80" y="2" width="12" height="6" fill="#fefefe"/>
  <rect x="92" y="2" width="1" height="2" fill="#ffffff"/>
  <rect x="93" y="2" width="1" height="1" fill="#fafafa"/>
  <rect x="94" y="2" width="1" height="1" fill="#f2f2f2"/>
  <rect x="95" y="2" width="1" height="1" fill="#e3e3e3ad"/>
  <rect x="0" y="3" width="1" height="1" fill="#e3e3e3f1"/>
  <rect x="1" y="3" width="1" height="1" fill="#ffffff"/>
  <rect x="2" y="3" width="1" height="1" fill="#fefefe"/>
  <rect x="3" y="3" width="13" height="1" fill="#ffffff"/>
  <rect x="16" y="3" width="4" height="1" fill="#fefefe"/>
  <rect x="21" y="3" width="1" height="1" fill="#fefefe"/>
  <rect x="22" y="3" width="1" height="1" fill="#fcfbfc"/>
  <rect x="23" y="3" width="1" height="1" fill="#e1e1e1f3"/>
  <rect x="24" y="3" width="1" height="1" fill="#ccccccf1"/>
  <rect x="25" y="3" width="2" height="1" fill="#f9f9f9"/>
  <rect x="28" y="3" width="4" height="1" fill="#fefefe"/>
  <rect x="32" y="3" width="12" height="1" fill="#fefefc"/>
  <rect x="44" y="3" width="1" height="1" fill="#fafbf8"/>
  <rect x="45" y="3" width="1" height="1" fill="#fdfdfb"/>
  <rect x="46" y="3" width="1" height="1" fill="#fcfcf9"/>
  <rect x="47" y="3" width="1" height="1" fill="#c9cac7f3"/>
  <rect x="48" y="3" width="1" height="1" fill="#babbb8f1"/>
  <rect x="49" y="3" width="1" height="1" fill="#f2f3f0"/>
  <rect x="50" y="3" width="1" height="1" fill="#f7f7f5"/>
  <rect x="51" y="3" width="1" height="1" fill="#ebece9"/>
  <rect x="52" y="3" width="16" height="1" fill="#f6f6f4"/>
  <rect x="68" y="3" width="1" height="3" fill="#f3f4f1"/>
  <rect x="69" y="3" width="1" height="3" fill="#f2f3f0"/>
  <rect x="70" y="3" width="1" height="3" fill="#fffffd"/>
  <rect x="71" y="3" width="1" height="1" fill="#bbbcb9f3"/>
  <rect x="72" y="3" width="1" height="1" fill="#dedfdcf1"/>
  <rect x="73" y="3" width="1" height="1" fill="#f6f6f4"/>
  <rect x="74" y="3" width="1" height="1" fill="#f7f7f5"/>
  <rect x="75" y="3" width="5" height="3" fill="#fefefc"/>
  <rect x="93" y="3" width="1" height="1" fill="#fefefe"/>
  <rect x="94" y="3" width="1" height="1" fill="#fcfbfc"/>
  <rect x="95" y="3" width="1" height="1" fill="#e4e4e4f3"/>
  <rect x="0" y="4" width="1" height="7" fill="#dcdcdc"/>
  <rect x="1" y="4" width="3" height="7" fill="#ffffff"/>
  <rect x="4" y="4" width="2" height="4" fill="#fcfbfc"/>
  <rect x="6" y="4" width="4" height="4" fill="#fdfdfd"/>
  <rect x="10" y="4" width="6" height="4" fill="#fefefe"/>
  <rect x="16" y="4" width="5" height="8" fill="#fdfdfd"/>
  <rect x="21" y="4" width="1" height="8" fill="#fcfbfc"/>
  <rect x="22" y="4" width="1" height="4" fill="#ffffff"/>
  <rect x="23" y="4" width="1" height="4" fill="#dcdcdc"/>
  <rect x="24" y="4" width="1" height="4" fill="#c9c9c9"/>
  <rect x="25" y="4" width="2" height="2" fill="#fcfbfc"/>
  <rect x="27" y="4" width="1" height="2" fill="#fafafa"/>
  <rect x="28" y="4" width="4" height="2" fill="#fdfdfd"/>
  <rect x="32" y="4" width="4" height="2" fill="#fdfdfb"/>
  <rect x="36" y="4" width="2" height="4" fill="#fdfdfd"/>
  <rect x="38" y="4" width="7" height="4" fill="#fdfdfb"/>
  <rect x="45" y="4" width="1" height="2" fill="#fafbf8"/>
  <rect x="46" y="4" width="1" height="8" fill="#fffffe"/>
  <rect x="47" y="4" width="1" height="4" fill="#c9cac7"/>
  <rect x="48" y="4" width="1" height="6" fill="#bfbfbd"/>
  <rect x="49" y="4" width="1" height="6" fill="#fefefc"/>
  <rect x="50" y="4" width="1" height="6" fill="#f8f8f6"/>
  <rect x="51" y="4" width="1" height="6" fill="#f3f4f1"/>
  <rect x="52" y="4" width="4" height="2" fill="#f5f5f2"/>
  <rect x="56" y="4" width="8" height="3" fill="#f6f6f6"/>
  <rect x="64" y="4" width="4" height="3" fill="#f6f6f4"/>
  <rect x="71" y="4" width="1" height="2" fill="#bbbcb9"/>
  <rect x="72" y="4" width="1" height="3" fill="#dedfdc"/>
  <rect x="73" y="4" width="1" height="2" fill="#fcfcf9"/>
  <rect x="74" y="4" width="1" height="2" fill="#fdfdfb"/>
  <rect x="92" y="4" width="2" height="4" fill="#fcfbfc"/>
  <rect x="94" y="4" width="1" height="4" fill="#ffffff"/>
  <rect x="95" y="4" width="1" height="4" fill="#dedede"/>
  <rect x="25" y="6" width="1" height="2" fill="#fcfbfc"/>
  <rect x="26" y="6" width="1" height="2" fill="#fcfcf9"/>
  <rect x="27" y="6" width="1" height="2" fill="#fafbf8"/>
  <rect x="28" y="6" width="8" height="2" fill="#fdfdfb"/>
  <rect x="45" y="6" width="1" height="4" fill="#fcfcf9"/>
  <rect x="52" y="6" width="4" height="2" fill="#f6f6f4"/>
  <rect x="68" y="6" width="1" height="2" fill="#f5f5f2"/>
  <rect x="69" y="6" width="1" height="2" fill="#f3f4f1"/>
  <rect x="70" y="6" width="1" height="2" fill="#fffffe"/>
  <rect x="71" y="6" width="1" height="2" fill="#bdbdbb"/>
  <rect x="73" y="6" width="1" height="2" fill="#fdfdfb"/>
  <rect x="74" y="6" width="6" height="1" fill="#fefefc"/>
  <rect x="56" y="7" width="9" height="1" fill="#f6f6f6"/>
  <rect x="65" y="7" width="3" height="1" fill="#f6f6f4"/>
  <rect x="72" y="7" width="1" height="1" fill="#dcdcda"/>
  <rect x="74" y="7" width="1" height="1" fill="#fefefc"/>
  <rect x="75" y="7" width="1" height="1" fill="#fcfcf9"/>
  <rect x="76" y="7" width="4" height="1" fill="#fdfdfb"/>
  <rect x="4" y="8" width="4" height="5" fill="#fcfbfc"/>
  <rect x="8" y="8" width="4" height="6" fill="#fdfdfd"/>
  <rect x="12" y="8" width="4" height="6" fill="#fefefe"/>
  <rect x="22" y="8" width="1" height="4" fill="#fffffe"/>
  <rect x="23" y="8" width="1" height="4" fill="#dcdcda"/>
  <rect x="24" y="8" width="1" height="4" fill="#c6c6c4"/>
  <rect x="25" y="8" width="1" height="4" fill="#ffffff"/>
  <rect x="26" y="8" width="1" height="2" fill="#fafbf8"/>
  <rect x="27" y="8" width="1" height="3" fill="#f9faf7"/>
  <rect x="28" y="8" width="14" height="2" fill="#fcfbfc"/>
  <rect x="42" y="8" width="2" height="4" fill="#fcfcf9"/>
  <rect x="44" y="8" width="1" height="2" fill="#fdfdfb"/>
  <rect x="47" y="8" width="1" height="4" fill="#c2c3c0"/>
  <rect x="52" y="8" width="8" height="2" fill="#f7f7f7"/>
  <rect x="60" y="8" width="4" height="2" fill="#f7f6f9"/>
  <rect x="64" y="8" width="4" height="1" fill="#f7f7f7"/>
  <rect x="68" y="8" width="1" height="1" fill="#f6f6f6"/>
  <rect x="69" y="8" width="1" height="1" fill="#f5f5f5"/>
  <rect x="70" y="8" width="1" height="13" fill="#ffffff"/>
  <rect x="71" y="8" width="1" height="1" fill="#bebebe"/>
  <rect x="72" y="8" width="1" height="1" fill="#dbdbdb"/>
  <rect x="73" y="8" width="1" height="2" fill="#fdfdfd"/>
  <rect x="74" y="8" width="1" height="2" fill="#fefefe"/>
  <rect x="75" y="8" width="1" height="1" fill="#fafafa"/>
  <rect x="76" y="8" width="17" height="1" fill="#fdfdfd"/>
  <rect x="93" y="8" width="1" height="4" fill="#fcfbfc"/>
  <rect x="94" y="8" width="1" height="4" fill="#fdfdfd"/>
  <rect x="95" y="8" width="1" height="4" fill="#dbdbdb"/>
  <rect x="64" y="9" width="5" height="1" fill="#f7f7f7"/>
  <rect x="69" y="9" width="1" height="1" fill="#f6f6f6"/>
  <rect x="71" y="9" width="1" height="1" fill="#bfbfbf"/>
  <rect x="72" y="9" width="1" height="2" fill="#dadada"/>
  <rect x="75" y="9" width="1" height="3" fill="#f9f9f9"/>
  <rect x="76" y="9" width="4" height="11" fill="#fcfbfc"/>
  <rect x="80" y="9" width="13" height="3" fill="#fdfdfd"/>
  <rect x="26" y="10" width="1" height="2" fill="#fafbf6"/>
  <rect x="28" y="10" width="4" height="2" fill="#fcfcf9"/>
  <rect x="32" y="10" width="10" height="2" fill="#fcfbfc"/>
  <rect x="44" y="10" width="2" height="2" fill="#fdfdfb"/>
  <rect x="48" y="10" width="1" height="2" fill="#c0c1be"/>
  <rect x="49" y="10" width="1" height="2" fill="#fffffd"/>
  <rect x="50" y="10" width="1" height="2" fill="#f9faf7"/>
  <rect x="51" y="10" width="1" height="2" fill="#f5f5f2"/>
  <rect x="52" y="10" width="4" height="2" fill="#f9f9f9"/>
  <rect x="56" y="10" width="4" height="2" fill="#f8f8f8"/>
  <rect x="60" y="10" width="4" height="2" fill="#f8f8fa"/>
  <rect x="64" y="10" width="5" height="2" fill="#f8f8f8"/>
  <rect x="69" y="10" width="1" height="2" fill="#f7f7f7"/>
  <rect x="71" y="10" width="1" height="2" fill="#c1c1c1"/>
  <rect x="73" y="10" width="1" height="1" fill="#fefefe"/>
  <rect x="74" y="10" width="1" height="1" fill="#ffffff"/>
  <rect x="0" y="11" width="1" height="1" fill="#dbdbdb"/>
  <rect x="1" y="11" width="1" height="1" fill="#ffffff"/>
  <rect x="2" y="11" width="2" height="1" fill="#fefefe"/>
  <rect x="27" y="11" width="1" height="1" fill="#f9faf5"/>
  <rect x="72" y="11" width="1" height="2" fill="#d9d9d9"/>
  <rect x="73" y="11" width="2" height="1" fill="#fefefe"/>
  <rect x="0" y="12" width="1" height="1" fill="#dadada"/>
  <rect x="1" y="12" width="1" height="1" fill="#fefefe"/>
  <rect x="2" y="12" width="2" height="1" fill="#fdfdfd"/>
  <rect x="16" y="12" width="4" height="2" fill="#fdfdfd"/>
  <rect x="20" y="12" width="1" height="4" fill="#ffffff"/>
  <rect x="21" y="12" width="1" height="4" fill="#fdfdfd"/>
  <rect x="22" y="12" width="1" height="4" fill="#fffffd"/>
  <rect x="23" y="12" width="1" height="4" fill="#d9d9d7"/>
  <rect x="24" y="12" width="1" height="4" fill="#c2c3c0"/>
  <rect x="25" y="12" width="1" height="4" fill="#fefefc"/>
  <rect x="26" y="12" width="1" height="4" fill="#f7f8f3"/>
  <rect x="27" y="12" width="1" height="4" fill="#f6f6f2"/>
  <rect x="28" y="12" width="4" height="4" fill="#f8f8f6"/>
  <rect x="32" y="12" width="10" height="4" fill="#f8f8f8"/>
  <rect x="42" y="12" width="2" height="4" fill="#f8f8f6"/>
  <rect x="44" y="12" width="2" height="4" fill="#f9faf7"/>
  <rect x="46" y="12" width="1" height="4" fill="#fdfdfb"/>
  <rect x="47" y="12" width="1" height="4" fill="#bfbfbd"/>
  <rect x="48" y="12" width="1" height="1" fill="#c1c2bf"/>
  <rect x="49" y="12" width="1" height="6" fill="#fffffe"/>
  <rect x="50" y="12" width="1" height="4" fill="#fafbf8"/>
  <rect x="51" y="12" width="1" height="1" fill="#f6f6f4"/>
  <rect x="52" y="12" width="3" height="2" fill="#fafafa"/>
  <rect x="55" y="12" width="2" height="2" fill="#f9f9f9"/>
  <rect x="57" y="12" width="1" height="2" fill="#f8f8f8"/>
  <rect x="58" y="12" width="6" height="1" fill="#f9f9f9"/>
  <rect x="64" y="12" width="4" height="1" fill="#f8f8fa"/>
  <rect x="68" y="12" width="1" height="1" fill="#f9f9f9"/>
  <rect x="69" y="12" width="1" height="2" fill="#fefefe"/>
  <rect x="71" y="12" width="1" height="1" fill="#c2c2c2"/>
  <rect x="73" y="12" width="1" height="1" fill="#fdfdfd"/>
  <rect x="74" y="12" width="1" height="1" fill="#fefefe"/>
  <rect x="75" y="12" width="1" height="9" fill="#fafafa"/>
  <rect x="80" y="12" width="12" height="8" fill="#fdfdfd"/>
  <rect x="92" y="12" width="1" height="8" fill="#fafafa"/>
  <rect x="93" y="12" width="1" height="8" fill="#fefefe"/>
  <rect x="94" y="12" width="1" height="8" fill="#ffffff"/>
  <rect x="95" y="12" width="1" height="8" fill="#d9d9d9"/>
  <rect x="0" y="13" width="1" height="7" fill="#d9d9d9"/>
  <rect x="1" y="13" width="1" height="8" fill="#fdfdfd"/>
  <rect x="2" y="13" width="6" height="7" fill="#fcfbfc"/>
  <rect x="48" y="13" width="1" height="1" fill="#c2c3c0"/>
  <rect x="51" y="13" width="1" height="1" fill="#f7f7f5"/>
  <rect x="58" y="13" width="4" height="1" fill="#f9f9f9"/>
  <rect x="62" y="13" width="2" height="1" fill="#fafafa"/>
  <rect x="64" y="13" width="2" height="1" fill="#f8f8fa"/>
  <rect x="66" y="13" width="2" height="1" fill="#f9f9fb"/>
  <rect x="68" y="13" width="1" height="2" fill="#fafafa"/>
  <rect x="71" y="13" width="1" height="1" fill="#c5c5c5"/>
  <rect x="72" y="13" width="1" height="7" fill="#d7d7d7"/>
  <rect x="73" y="13" width="2" height="7" fill="#fdfdfd"/>
  <rect x="8" y="14" width="12" height="2" fill="#fdfdfd"/>
  <rect x="48" y="14" width="1" height="1" fill="#c4c4c2"/>
  <rect x="51" y="14" width="1" height="1" fill="#f8f8f6"/>
  <rect x="52" y="14" width="4" height="2" fill="#fcfbfc"/>
  <rect x="56" y="14" width="8" height="2" fill="#fafafa"/>
  <rect x="64" y="14" width="2" height="1" fill="#fcfbfe"/>
  <rect x="66" y="14" width="2" height="1" fill="#fafafc"/>
  <rect x="69" y="14" width="1" height="2" fill="#fdfdfd"/>
  <rect x="71" y="14" width="1" height="1" fill="#c6c6c6"/>
  <rect x="48" y="15" width="1" height="1" fill="#c5c5c3"/>
  <rect x="51" y="15" width="1" height="1" fill="#f9faf7"/>
  <rect x="64" y="15" width="4" height="1" fill="#fcfbfe"/>
  <rect x="68" y="15" width="1" height="1" fill="#fcfbfc"/>
  <rect x="71" y="15" width="1" height="1" fill="#c7c7c7"/>
  <rect x="8" y="16" width="3" height="4" fill="#fdfdfd"/>
  <rect x="11" y="16" width="1" height="2" fill="#fcfbfc"/>
  <rect x="12" y="16" width="1" height="2" fill="#fdfdfd"/>
  <rect x="13" y="16" width="3" height="2" fill="#fcfbfc"/>
  <rect x="16" y="16" width="4" height="4" fill="#fcfcf9"/>
  <rect x="20" y="16" width="1" height="4" fill="#fffffd"/>
  <rect x="21" y="16" width="1" height="4" fill="#fcfcf9"/>
  <rect x="22" y="16" width="1" height="4" fill="#fefefc"/>
  <rect x="23" y="16" width="1" height="4" fill="#d7d8d5"/>
  <rect x="24" y="16" width="1" height="4" fill="#c1c2bf"/>
  <rect x="25" y="16" width="1" height="4" fill="#fdfdfb"/>
  <rect x="26" y="16" width="1" height="4" fill="#f6f6f4"/>
  <rect x="27" y="16" width="1" height="4" fill="#f5f5f2"/>
  <rect x="28" y="16" width="8" height="4" fill="#f7f7f5"/>
  <rect x="36" y="16" width="2" height="4" fill="#f7f7f7"/>
  <rect x="38" y="16" width="6" height="4" fill="#f7f7f5"/>
  <rect x="44" y="16" width="2" height="4" fill="#f8f8f6"/>
  <rect x="46" y="16" width="1" height="4" fill="#fcfcf9"/>
  <rect x="47" y="16" width="1" height="4" fill="#bebebc"/>
  <rect x="48" y="16" width="1" height="1" fill="#c6c6c4"/>
  <rect x="50" y="16" width="2" height="1" fill="#fafbf8"/>
  <rect x="52" y="16" width="3" height="2" fill="#fdfdfb"/>
  <rect x="55" y="16" width="1" height="2" fill="#fcfcf9"/>
  <rect x="56" y="16" width="1" height="2" fill="#fcfbfc"/>
  <rect x="57" y="16" width="1" height="2" fill="#fafafa"/>
  <rect x="58" y="16" width="4" height="2" fill="#fcfbfc"/>
  <rect x="62" y="16" width="2" height="2" fill="#fdfdfd"/>
  <rect x="64" y="16" width="4" height="1" fill="#fcfbfc"/>
  <rect x="68" y="16" width="2" height="1" fill="#fdfdfd"/>
  <rect x="71" y="16" width="1" height="1" fill="#c8c8c8"/>
  <rect x="48" y="17" width="1" height="2" fill="#c7c7c5"/>
  <rect x="50" y="17" width="1" height="1" fill="#fafbf8"/>
  <rect x="51" y="17" width="1" height="2" fill="#fcfcf9"/>
  <rect x="64" y="17" width="2" height="1" fill="#fcfbfc"/>
  <rect x="66" y="17" width="2" height="1" fill="#fdfdfd"/>
  <rect x="68" y="17" width="1" height="2" fill="#fefefe"/>
  <rect x="69" y="17" width="1" height="1" fill="#fdfdfd"/>
  <rect x="71" y="17" width="1" height="2" fill="#c9c9c9"/>
  <rect x="11" y="18" width="2" height="2" fill="#fcfbfc"/>
  <rect x="13" y="18" width="3" height="2" fill="#fafafa"/>
  <rect x="49" y="18" width="1" height="2" fill="#fffffd"/>
  <rect x="50" y="18" width="1" height="2" fill="#f9faf7"/>
  <rect x="52" y="18" width="4" height="1" fill="#fdfdfb"/>
  <rect x="56" y="18" width="6" height="2" fill="#fcfbfc"/>
  <rect x="62" y="18" width="6" height="1" fill="#fdfdfd"/>
  <rect x="69" y="18" width="1" height="2" fill="#fcfbfc"/>
  <rect x="48" y="19" width="1" height="1" fill="#c8c9c6"/>
  <rect x="51" y="19" width="5" height="1" fill="#fdfdfb"/>
  <rect x="62" y="19" width="4" height="1" fill="#fdfdfd"/>
  <rect x="66" y="19" width="2" height="1" fill="#fefefe"/>
  <rect x="68" y="19" width="1" height="1" fill="#ffffff"/>
  <rect x="71" y="19" width="1" height="1" fill="#cbcbcb"/>
  <rect x="0" y="20" width="1" height="1" fill="#d2d2d2f1"/>
  <rect x="2" y="20" width="1" height="1" fill="#ffffff"/>
  <rect x="3" y="20" width="5" height="1" fill="#f9f9f9"/>
  <rect x="8" y="20" width="3" height="1" fill="#fafafa"/>
  <rect x="11" y="20" width="2" height="1" fill="#f9f9f9"/>
  <rect x="13" y="20" width="3" height="1" fill="#f8f8f8"/>
  <rect x="16" y="20" width="4" height="1" fill="#f9faf7"/>
  <rect x="20" y="20" width="1" height="1" fill="#fcfcf9"/>
  <rect x="21" y="20" width="2" height="1" fill="#fdfdfb"/>
  <rect x="23" y="20" width="1" height="1" fill="#d6d7d4f3"/>
  <rect x="24" y="20" width="1" height="1" fill="#b9bab7f1"/>
  <rect x="25" y="20" width="2" height="1" fill="#f3f4f1"/>
  <rect x="27" y="20" width="1" height="1" fill="#efefed"/>
  <rect x="28" y="20" width="16" height="1" fill="#f0f0ee"/>
  <rect x="44" y="20" width="1" height="1" fill="#f2f3f0"/>
  <rect x="45" y="20" width="1" height="1" fill="#f6f6f4"/>
  <rect x="46" y="20" width="1" height="1" fill="#f8f8f6"/>
  <rect x="47" y="20" width="1" height="1" fill="#c0c1bef3"/>
  <rect x="48" y="20" width="1" height="1" fill="#d0d1cef1"/>
  <rect x="49" y="20" width="1" height="1" fill="#fcfcf9"/>
  <rect x="50" y="20" width="1" height="1" fill="#fffffd"/>
  <rect x="51" y="20" width="1" height="1" fill="#ffffff"/>
  <rect x="52" y="20" width="2" height="1" fill="#fafbf8"/>
  <rect x="54" y="20" width="4" height="1" fill="#fcfcf9"/>
  <rect x="58" y="20" width="6" height="1" fill="#fdfdfb"/>
  <rect x="64" y="20" width="4" height="1" fill="#fcfbfc"/>
  <rect x="68" y="20" width="1" height="1" fill="#fdfdfd"/>
  <rect x="69" y="20" width="1" height="1" fill="#fefefe"/>
  <rect x="71" y="20" width="1" height="1" fill="#cbcbcbf3"/>
  <rect x="72" y="20" width="1" height="1" fill="#d4d4d4f1"/>
  <rect x="73" y="20" width="1" height="1" fill="#fdfdfd"/>
  <rect x="74" y="20" width="1" height="1" fill="#fcfbfc"/>
  <rect x="76" y="20" width="2" height="1" fill="#f8f8f8"/>
  <rect x="78" y="20" width="4" height="2" fill="#f9f9f9"/>
  <rect x="82" y="20" width="10" height="1" fill="#fafafa"/>
  <rect x="92" y="20" width="1" height="1" fill="#f9f9f9"/>
  <rect x="93" y="20" width="1" height="1" fill="#ffffff"/>
  <rect x="94" y="20" width="1" height="1" fill="#fafafa"/>
  <rect x="95" y="20" width="1" height="1" fill="#d0d0d0f3"/>
  <rect x="0" y="21" width="1" height="1" fill="#d0d0d0ad"/>
  <rect x="1" y="21" width="1" height="1" fill="#ececec"/>
  <rect x="2" y="21" width="1" height="1" fill="#f8f8f8"/>
  <rect x="3" y="21" width="5" height="2" fill="#fcfbfc"/>
  <rect x="8" y="21" width="3" height="1" fill="#fdfdfd"/>
  <rect x="11" y="21" width="2" height="1" fill="#fcfbfc"/>
  <rect x="13" y="21" width="3" height="1" fill="#fafafa"/>
  <rect x="16" y="21" width="4" height="2" fill="#fcfcf9"/>
  <rect x="20" y="21" width="1" height="2" fill="#fdfdfb"/>
  <rect x="21" y="21" width="1" height="1" fill="#f7f7f5"/>
  <rect x="22" y="21" width="1" height="1" fill="#ecedea"/>
  <rect x="23" y="21" width="1" height="1" fill="#d4d4d2ad"/>
  <rect x="24" y="21" width="1" height="1" fill="#b3b4b1ad"/>
  <rect x="25" y="21" width="1" height="1" fill="#e1e1df"/>
  <rect x="26" y="21" width="1" height="1" fill="#f7f7f5"/>
  <rect x="27" y="21" width="1" height="2" fill="#fafbf8"/>
  <rect x="28" y="21" width="17" height="1" fill="#f5f5f2"/>
  <rect x="45" y="21" width="1" height="1" fill="#f9faf7"/>
  <rect x="46" y="21" width="1" height="1" fill="#ecedea"/>
  <rect x="47" y="21" width="1" height="1" fill="#bdbdbbad"/>
  <rect x="48" y="21" width="1" height="1" fill="#cccccaad"/>
  <rect x="49" y="21" width="1" height="1" fill="#e7e7e5"/>
  <rect x="50" y="21" width="1" height="1" fill="#f6f6f4"/>
  <rect x="51" y="21" width="1" height="1" fill="#fffffd"/>
  <rect x="52" y="21" width="2" height="1" fill="#fffffe"/>
  <rect x="54" y="21" width="15" height="1" fill="#ffffff"/>
  <rect x="69" y="21" width="1" height="1" fill="#fafafa"/>
  <rect x="70" y="21" width="1" height="1" fill="#eaeaea"/>
  <rect x="71" y="21" width="1" height="1" fill="#ccccccad"/>
  <rect x="72" y="21" width="1" height="1" fill="#d3d3d3ad"/>
  <rect x="73" y="21" width="1" height="1" fill="#ebebeb"/>
  <rect x="74" y="21" width="1" height="1" fill="#f6f6f6"/>
  <rect x="75" y="21" width="1" height="2" fill="#fdfdfd"/>
  <rect x="76" y="21" width="2" height="1" fill="#fafafa"/>
  <rect x="82" y="21" width="10" height="1" fill="#f8f8f8"/>
  <rect x="92" y="21" width="1" height="1" fill="#fcfbfc"/>
  <rect x="93" y="21" width="1" height="1" fill="#f9f9f9"/>
  <rect x="94" y="21" width="1" height="1" fill="#e7e7e7"/>
  <rect x="95" y="21" width="1" height="1" fill="#cececead"/>
  <rect x="0" y="22" width="1" height="1" fill="#d0d0d028"/>
  <rect x="1" y="22" width="1" height="1" fill="#d4d4d4ef"/>
  <rect x="2" y="22" width="1" height="1" fill="#eeeeee"/>
  <rect x="8" y="22" width="3" height="1" fill="#fdfdfb"/>
  <rect x="11" y="22" width="2" height="1" fill="#fcfcf9"/>
  <rect x="13" y="22" width="3" height="1" fill="#fafbf8"/>
  <rect x="21" y="22" width="1" height="1" fill="#ebece9"/>
  <rect x="22" y="22" width="1" height="1" fill="#d4d4d2ef"/>
  <rect x="23" y="22" width="1" height="1" fill="#d4d4d228"/>
  <rect x="24" y="22" width="1" height="1" fill="#babbb828"/>
  <rect x="25" y="22" width="1" height="1" fill="#babbb8ef"/>
  <rect x="26" y="22" width="1" height="1" fill="#e5e6e3"/>
  <rect x="28" y="22" width="16" height="1" fill="#fffffd"/>
  <rect x="44" y="22" width="1" height="1" fill="#f5f5f2"/>
  <rect x="45" y="22" width="1" height="1" fill="#e3e3e1"/>
  <rect x="46" y="22" width="1" height="1" fill="#bdbdbbef"/>
  <rect x="47" y="22" width="1" height="1" fill="#afafad28"/>
  <rect x="48" y="22" width="1" height="1" fill="#c8c9c627"/>
  <rect x="49" y="22" width="1" height="1" fill="#cbcbc9ef"/>
  <rect x="50" y="22" width="1" height="1" fill="#e7e7e5"/>
  <rect x="51" y="22" width="1" height="1" fill="#fcfcf9"/>
  <rect x="52" y="22" width="2" height="1" fill="#fdfdfb"/>
  <rect x="54" y="22" width="4" height="1" fill="#fefefc"/>
  <rect x="58" y="22" width="6" height="1" fill="#fffffd"/>
  <rect x="64" y="22" width="5" height="1" fill="#fefefe"/>
  <rect x="69" y="22" width="1" height="1" fill="#e7e7e7"/>
  <rect x="70" y="22" width="1" height="1" fill="#cbcbcbef"/>
  <rect x="71" y="22" width="1" height="1" fill="#d0d0d027"/>
  <rect x="72" y="22" width="1" height="1" fill="#d3d3d328"/>
  <rect x="73" y="22" width="1" height="1" fill="#d3d3d3ef"/>
  <rect x="74" y="22" width="1" height="1" fill="#ebebeb"/>
  <rect x="76" y="22" width="1" height="1" fill="#fafafa"/>
  <rect x="77" y="22" width="2" height="1" fill="#fcfbfc"/>
  <rect x="79" y="22" width="1" height="1" fill="#fdfdfd"/>
  <rect x="80" y="22" width="1" height="1" fill="#fefefe"/>
  <rect x="81" y="22" width="11" height="1" fill="#ffffff"/>
  <rect x="92" y="22" width="1" height="1" fill="#fefefe"/>
  <rect x="93" y="22" width="1" height="1" fill="#eeeeee"/>
  <rect x="94" y="22" width="1" height="1" fill="#d2d2d2ef"/>
  <rect x="95" y="22" width="1" height="1" fill="#cecece28"/>
  <rect x="1" y="23" width="1" height="1" fill="#d4d4d427"/>
  <rect x="2" y="23" width="1" height="1" fill="#d5d5d5ad"/>
  <rect x="3" y="23" width="1" height="1" fill="#d4d4d4f2"/>
  <rect x="4" y="23" width="4" height="1" fill="#d4d4d4"/>
  <rect x="8" y="23" width="3" height="1" fill="#d5d5d3"/>
  <rect x="11" y="23" width="2" height="1" fill="#d4d4d2"/>
  <rect x="13" y="23" width="3" height="1" fill="#d3d3d1"/>
  <rect x="16" y="23" width="4" height="1" fill="#d4d4d2"/>
  <rect x="20" y="23" width="1" height="1" fill="#d6d7d4f2"/>
  <rect x="21" y="23" width="1" height="1" fill="#d4d4d2ad"/>
  <rect x="22" y="23" width="1" height="1" fill="#d4d4d227"/>
  <rect x="25" y="23" width="1" height="1" fill="#b0b0ae27"/>
  <rect x="26" y="23" width="1" height="1" fill="#b4b5b2ad"/>
  <rect x="27" y="23" width="1" height="1" fill="#babbb8f2"/>
  <rect x="28" y="23" width="16" height="1" fill="#b8b8b6"/>
  <rect x="44" y="23" width="1" height="1" fill="#b7b7b5f2"/>
  <rect x="45" y="23" width="1" height="1" fill="#b6b6b4ad"/>
  <rect x="46" y="23" width="1" height="1" fill="#b8b8b627"/>
  <rect x="49" y="23" width="1" height="1" fill="#c7c7c525"/>
  <rect x="50" y="23" width="1" height="1" fill="#cccccaad"/>
  <rect x="51" y="23" width="1" height="1" fill="#d0d1cef1"/>
  <rect x="52" y="23" width="2" height="1" fill="#c9cac7"/>
  <rect x="54" y="23" width="4" height="1" fill="#cbcbc9"/>
  <rect x="58" y="23" width="6" height="1" fill="#ccccca"/>
  <rect x="64" y="23" width="4" height="1" fill="#cbcbcb"/>
  <rect x="68" y="23" width="1" height="1" fill="#ccccccf1"/>
  <rect x="69" y="23" width="1" height="1" fill="#c9c9c9ad"/>
  <rect x="70" y="23" width="1" height="1" fill="#c9c9c925"/>
  <rect x="73" y="23" width="1" height="1" fill="#d3d3d327"/>
  <rect x="74" y="23" width="1" height="1" fill="#d3d3d3ad"/>
  <rect x="75" y="23" width="1" height="1" fill="#d5d5d5f2"/>
  <rect x="76" y="23" width="16" height="1" fill="#d3d3d3"/>
  <rect x="92" y="23" width="1" height="1" fill="#d4d4d4f2"/>
  <rect x="93" y="23" width="1" height="1" fill="#d5d5d5ad"/>
  <rect x="94" y="23" width="1" height="1" fill="#d6d6d627"/>
</svg>