<svg xmlns="http://www.w3.org/2000/svg" width="104" height="26" viewBox="0 0 104 26" shape-rendering="crispEdges">
  <rect x="27" y="1" width="1" height="1" fill="#9ea19d1c"/>
  <rect x="28" y="1" width="1" height="1" fill="#a0a0a059"/>
  <rect x="29" y="1" width="1" height="1" fill="#9c9c9c66"/>
  <rect x="30" y="1" width="2" height="1" fill="#97979766"/>
  <rect x="32" y="1" width="1" height="1" fill="#9c9a9b66"/>
  <rect x="33" y="1" width="3" height="1" fill="#9e9b9c66"/>
  <rect x="36" y="1" width="2" height="1" fill="#9f9a9e66"/>
  <rect x="38" y="1" width="2" height="1" fill="#9e9b9e66"/>
  <rect x="40" y="1" width="2" height="1" fill="#9c9c9e66"/>
  <rect x="42" y="1" width="2" height="1" fill="#9a9c9e66"/>
  <rect x="44" y="1" width="4" height="1" fill="#9a9d9c66"/>
  <rect x="48" y="1" width="1" height="1" fill="#9d9d9d66"/>
  <rect x="49" y="1" width="1" height="1" fill="#9a9a9a61"/>
  <rect x="50" y="1" width="1" height="1" fill="#9c9c9c1b"/>
  <rect x="53" y="1" width="1" height="1" fill="#9b9b991c"/>
  <rect x="54" y="1" width="1" height="1" fill="#9b9b9959"/>
  <rect x="55" y="1" width="1" height="1" fill="#9c9c9a66"/>
  <rect x="56" y="1" width="12" height="1" fill="#a0a09d66"/>
  <rect x="68" y="1" width="4" height="1" fill="#a0a0a066"/>
  <rect x="72" y="1" width="1" height="1" fill="#92919466"/>
  <rect x="73" y="1" width="1" height="1" fill="#96969866"/>
  <rect x="74" y="1" width="1" height="1" fill="#9d9d9f66"/>
  <rect x="75" y="1" width="1" height="1" fill="#a1a0a35f"/>
  <rect x="76" y="1" width="1" height="1" fill="#9d9d9f1b"/>
  <rect x="27" y="2" width="1" height="1" fill="#95979459"/>
  <rect x="28" y="2" width="1" height="1" fill="#dedede61"/>
  <rect x="29" y="2" width="2" height="1" fill="#ffffff5f"/>
  <rect x="31" y="2" width="1" height="1" fill="#fdfdfd5f"/>
  <rect x="32" y="2" width="4" height="1" fill="#fffdfe5f"/>
  <rect x="36" y="2" width="2" height="1" fill="#fffcff5f"/>
  <rect x="38" y="2" width="2" height="1" fill="#fffdff5f"/>
  <rect x="40" y="2" width="2" height="1" fill="#fefdff5f"/>
  <rect x="42" y="2" width="2" height="1" fill="#fcfeff5f"/>
  <rect x="44" y="2" width="4" height="1" fill="#fcfffe5f"/>
  <rect x="48" y="2" width="1" height="1" fill="#fefefe5f"/>
  <rect x="49" y="2" width="1" height="1" fill="#e5e5e561"/>
  <rect x="50" y="2" width="1" height="1" fill="#9a9a9a59"/>
  <rect x="53" y="2" width="1" height="1" fill="#9a9a9859"/>
  <rect x="54" y="2" width="1" height="1" fill="#d6d7d477"/>
  <rect x="55" y="2" width="1" height="1" fill="#eaeae87f"/>
  <rect x="56" y="2" width="12" height="1" fill="#eeeeec7f"/>
  <rect x="68" y="2" width="3" height="1" fill="#eeeeee7f"/>
  <rect x="71" y="2" width="1" height="1" fill="#f0f0f07f"/>
  <rect x="72" y="2" width="1" height="1" fill="#f2f2f47f"/>
  <rect x="73" y="2" width="1" height="1" fill="#f0eff27f"/>
  <rect x="74" y="2" width="1" height="1" fill="#e9e8eb7f"/>
  <rect x="75" y="2" width="1" height="1" fill="#e5e5e777"/>
  <rect x="76" y="2" width="1" height="1" fill="#9c9c9e59"/>
  <rect x="27" y="3" width="1" height="1" fill="#95979466"/>
  <rect x="28" y="3" width="1" height="1" fill="#ffffff23"/>
  <rect x="29" y="3" width="7" height="1" fill="#ffffff1a"/>
  <rect x="36" y="3" width="2" height="3" fill="#fffeff1a"/>
  <rect x="38" y="3" width="10" height="1" fill="#ffffff1a"/>
  <rect x="48" y="3" width="1" height="1" fill="#fdfdfd1a"/>
  <rect x="49" y="3" width="1" height="1" fill="#fefefe1e"/>
  <rect x="50" y="3" width="1" height="1" fill="#9e9e9e66"/>
  <rect x="53" y="3" width="1" height="1" fill="#97989566"/>
  <rect x="54" y="3" width="1" height="1" fill="#dadad84f"/>
  <rect x="55" y="3" width="1" height="1" fill="#d4d4d248"/>
  <rect x="56" y="3" width="12" height="1" fill="#d7d8d548"/>
  <rect x="68" y="3" width="3" height="1" fill="#d7d7d748"/>
  <rect x="71" y="3" width="1" height="1" fill="#d6d6d648"/>
  <rect x="72" y="3" width="1" height="1" fill="#d6d6d848"/>
  <rect x="73" y="3" width="1" height="1" fill="#d9d8db48"/>
  <rect x="74" y="3" width="1" height="1" fill="#dbdadd48"/>
  <rect x="75" y="3" width="1" height="1" fill="#dddddf4c"/>
  <rect x="76" y="3" width="1" height="1" fill="#9e9ea066"/>
  <rect x="27" y="4" width="1" height="3" fill="#999c9b66"/>
  <rect x="28" y="4" width="8" height="2" fill="#ffffff1a"/>
  <rect x="38" y="4" width="12" height="2" fill="#ffffff1a"/>
  <rect x="50" y="4" width="1" height="4" fill="#9c9c9c66"/>
  <rect x="53" y="4" width="1" height="4" fill="#9c9c9c66"/>
  <rect x="54" y="4" width="1" height="4" fill="#d9d9d948"/>
  <rect x="55" y="4" width="1" height="4" fill="#dcdcdc48"/>
  <rect x="56" y="4" width="12" height="2" fill="#dadad848"/>
  <rect x="68" y="4" width="4" height="2" fill="#dadada48"/>
  <rect x="72" y="4" width="4" height="2" fill="#dad9dc48"/>
  <rect x="76" y="4" width="1" height="4" fill="#a09fa266"/>
  <rect x="28" y="6" width="16" height="1" fill="#ffffff1a"/>
  <rect x="44" y="6" width="2" height="1" fill="#fdffff1a"/>
  <rect x="46" y="6" width="4" height="2" fill="#ffffff1a"/>
  <rect x="56" y="6" width="8" height="2" fill="#dadad848"/>
  <rect x="64" y="6" width="2" height="1" fill="#dbd9d848"/>
  <rect x="66" y="6" width="1" height="2" fill="#dadbd648"/>
  <rect x="67" y="6" width="4" height="1" fill="#dadad848"/>
  <rect x="71" y="6" width="5" height="1" fill="#dadada48"/>
  <rect x="27" y="7" width="1" height="1" fill="#989b9a66"/>
  <rect x="28" y="7" width="9" height="1" fill="#ffffff1a"/>
  <rect x="37" y="7" width="2" height="1" fill="#fffeff1a"/>
  <rect x="39" y="7" width="1" height="1" fill="#ffffff1a"/>
  <rect x="40" y="7" width="1" height="1" fill="#fbffff1a"/>
  <rect x="41" y="7" width="4" height="1" fill="#f8ffff1a"/>
  <rect x="45" y="7" width="1" height="2" fill="#fbffff1a"/>
  <rect x="64" y="7" width="1" height="1" fill="#dedcda48"/>
  <rect x="65" y="7" width="1" height="1" fill="#dbd9d848"/>
  <rect x="67" y="7" width="5" height="1" fill="#dadad848"/>
  <rect x="72" y="7" width="2" height="1" fill="#dadada48"/>
  <rect x="74" y="7" width="1" height="1" fill="#dddddd48"/>
  <rect x="75" y="7" width="1" height="1" fill="#dcdcdc48"/>
  <rect x="27" y="8" width="1" height="1" fill="#999b9d66"/>
  <rect x="28" y="8" width="10" height="1" fill="#ffffff1a"/>
  <rect x="38" y="8" width="1" height="2" fill="#fffeff1a"/>
  <rect x="39" y="8" width="1" height="1" fill="#f9ffff1a"/>
  <rect x="40" y="8" width="1" height="1" fill="#f6ffff1a"/>
  <rect x="41" y="8" width="1" height="1" fill="#eeffff1a"/>
  <rect x="42" y="8" width="1" height="1" fill="#e2ffff1a"/>
  <rect x="43" y="8" width="1" height="1" fill="#ebffff1a"/>
  <rect x="44" y="8" width="1" height="1" fill="#edffff1a"/>
  <rect x="46" y="8" width="1" height="1" fill="#ffffff1a"/>
  <rect x="47" y="8" width="1" height="1" fill="#fcf9fc1a"/>
  <rect x="48" y="8" width="1" height="1" fill="#ffffff1a"/>
  <rect x="49" y="8" width="1" height="1" fill="#fcfbfc1a"/>
  <rect x="50" y="8" width="1" height="1" fill="#9b9a9d66"/>
  <rect x="53" y="8" width="1" height="1" fill="#95959766"/>
  <rect x="54" y="8" width="1" height="1" fill="#dbdbdb48"/>
  <rect x="55" y="8" width="1" height="1" fill="#e0e0e048"/>
  <rect x="56" y="8" width="2" height="1" fill="#dddddd48"/>
  <rect x="58" y="8" width="2" height="1" fill="#dddedb48"/>
  <rect x="60" y="8" width="4" height="1" fill="#dfdddb48"/>
  <rect x="64" y="8" width="1" height="1" fill="#e0e0de48"/>
  <rect x="65" y="8" width="1" height="1" fill="#e4e5e248"/>
  <rect x="66" y="8" width="1" height="1" fill="#e7e5e348"/>
  <rect x="67" y="8" width="1" height="1" fill="#dad8d748"/>
  <rect x="68" y="8" width="3" height="1" fill="#e5e2e348"/>
  <rect x="71" y="8" width="1" height="1" fill="#e1dfe048"/>
  <rect x="72" y="8" width="1" height="1" fill="#dedbdc48"/>
  <rect x="73" y="8" width="1" height="1" fill="#e0dede48"/>
  <rect x="74" y="8" width="1" height="1" fill="#e1e1e148"/>
  <rect x="75" y="8" width="1" height="1" fill="#dedede48"/>
  <rect x="76" y="8" width="1" height="1" fill="#9d9d9d66"/>
  <rect x="13" y="9" width="1" height="1" fill="#3c545c"/>
  <rect x="14" y="9" width="1" height="1" fill="#35505c"/>
  <rect x="15" y="9" width="1" height="1" fill="#34545e"/>
  <rect x="16" y="9" width="1" height="1" fill="#345760"/>
  <rect x="17" y="9" width="1" height="1" fill="#365760"/>
  <rect x="18" y="9" width="1" height="1" fill="#39555e"/>
  <rect x="19" y="9" width="1" height="1" fill="#41545b"/>
  <rect x="27" y="9" width="1" height="1" fill="#9c9e9f66"/>
  <rect x="28" y="9" width="9" height="1" fill="#ffffff1a"/>
  <rect x="37" y="9" width="1" height="1" fill="#fefdff1a"/>
  <rect x="39" y="9" width="1" height="1" fill="#575f65"/>
  <rect x="40" y="9" width="1" height="1" fill="#2e494b"/>
  <rect x="41" y="9" width="1" height="1" fill="#385f5d"/>
  <rect x="42" y="9" width="1" height="1" fill="#315b58"/>
  <rect x="43" y="9" width="1" height="1" fill="#325754"/>
  <rect x="44" y="9" width="1" height="1" fill="#3c5654"/>
  <rect x="45" y="9" width="1" height="1" fill="#445252"/>
  <rect x="46" y="9" width="4" height="1" fill="#ffffff1a"/>
  <rect x="50" y="9" width="1" height="1" fill="#9e9ea066"/>
  <rect x="53" y="9" width="1" height="1" fill="#9c9c9e66"/>
  <rect x="54" y="9" width="1" height="1" fill="#e2e2e248"/>
  <rect x="55" y="9" width="1" height="1" fill="#e5e5e548"/>
  <rect x="56" y="9" width="2" height="1" fill="#e3e3e348"/>
  <rect x="58" y="9" width="2" height="1" fill="#e3e3e148"/>
  <rect x="60" y="9" width="1" height="1" fill="#e5e3e148"/>
  <rect x="61" y="9" width="2" height="1" fill="#e5e2e348"/>
  <rect x="63" y="9" width="1" height="1" fill="#e1e1e148"/>
  <rect x="64" y="9" width="1" height="1" fill="#dedede48"/>
  <rect x="65" y="9" width="1" height="1" fill="#dee0e048"/>
  <rect x="66" y="9" width="2" height="1" fill="#e0e3e248"/>
  <rect x="68" y="9" width="1" height="1" fill="#dfe3e448"/>
  <rect x="69" y="9" width="1" height="1" fill="#dee2e348"/>
  <rect x="70" y="9" width="2" height="1" fill="#dce3e348"/>
  <rect x="72" y="9" width="1" height="1" fill="#e3e3e348"/>
  <rect x="73" y="9" width="1" height="1" fill="#e9e7e848"/>
  <rect x="74" y="9" width="1" height="1" fill="#dcdcdc48"/>
  <rect x="75" y="9" width="1" height="1" fill="#e0e0e048"/>
  <rect x="76" y="9" width="1" height="1" fill="#9c9c9c66"/>
  <rect x="93" y="9" width="1" height="1" fill="#747474"/>
  <rect x="94" y="9" width="1" height="1" fill="#737373"/>
  <rect x="95" y="9" width="1" height="1" fill="#7b7b7b"/>
  <rect x="96" y="9" width="1" height="1" fill="#747474"/>
  <rect x="97" y="9" width="1" height="1" fill="#767676"/>
  <rect x="98" y="9" width="1" height="1" fill="#787878"/>
  <rect x="99" y="9" width="1" height="1" fill="#797979"/>
  <rect x="14" y="10" width="1" height="1" fill="#435b63"/>
  <rect x="15" y="10" width="2" height="1" fill="#426169"/>
  <rect x="17" y="10" width="1" height="1" fill="#435f67"/>
  <rect x="18" y="10" width="1" height="1" fill="#465e63"/>
  <rect x="27" y="10" width="1" height="1" fill="#999b9d66"/>
  <rect x="28" y="10" width="8" height="1" fill="#ffffff1a"/>
  <rect x="36" y="10" width="1" height="1" fill="#fcfeff1a"/>
  <rect x="37" y="10" width="1" height="1" fill="#ffffff1a"/>
  <rect x="38" y="10" width="1" height="1" fill="#f6f8fe1a"/>
  <rect x="39" y="10" width="1" height="1" fill="#ffffff1a"/>
  <rect x="40" y="10" width="1" height="1" fill="#42585c"/>
  <rect x="41" y="10" width="1" height="1" fill="#476767"/>
  <rect x="42" y="10" width="1" height="1" fill="#4a6c6c"/>
  <rect x="43" y="10" width="1" height="1" fill="#4a6a69"/>
  <rect x="44" y="10" width="1" height="1" fill="#435d59"/>
  <rect x="45" y="10" width="1" height="1" fill="#eefcfa1a"/>
  <rect x="46" y="10" width="1" height="1" fill="#ffffff1a"/>
  <rect x="47" y="10" width="1" height="1" fill="#fffdff1a"/>
  <rect x="48" y="10" width="1" height="1" fill="#fffeff1a"/>
  <rect x="49" y="10" width="1" height="1" fill="#f9f9fb1a"/>
  <rect x="50" y="10" width="1" height="1" fill="#99989d66"/>
  <rect x="53" y="10" width="1" height="1" fill="#9a999c66"/>
  <rect x="54" y="10" width="1" height="1" fill="#e0e0e048"/>
  <rect x="55" y="10" width="1" height="1" fill="#e4e4e448"/>
  <rect x="56" y="10" width="5" height="1" fill="#e2e2e248"/>
  <rect x="61" y="10" width="3" height="1" fill="#e2e1e448"/>
  <rect x="64" y="10" width="1" height="1" fill="#e3e5e648"/>
  <rect x="65" y="10" width="1" height="1" fill="#eaeff048"/>
  <rect x="66" y="10" width="1" height="1" fill="#3d4648"/>
  <rect x="67" y="10" width="1" height="1" fill="#4a5858"/>
  <rect x="68" y="10" width="1" height="1" fill="#3e5353"/>
  <rect x="69" y="10" width="1" height="1" fill="#3b5553"/>
  <rect x="70" y="10" width="1" height="1" fill="#385751"/>
  <rect x="71" y="10" width="1" height="1" fill="#3d5451"/>
  <rect x="72" y="10" width="1" height="1" fill="#434a4a"/>
  <rect x="73" y="10" width="1" height="1" fill="#e4e4e448"/>
  <rect x="74" y="10" width="1" height="1" fill="#e3e3e348"/>
  <rect x="75" y="10" width="1" height="1" fill="#dcdcda48"/>
  <rect x="76" y="10" width="1" height="1" fill="#99999766"/>
  <rect x="94" y="10" width="1" height="1" fill="#828282"/>
  <rect x="95" y="10" width="1" height="1" fill="#858585"/>
  <rect x="96" y="10" width="1" height="1" fill="#868686"/>
  <rect x="97" y="10" width="1" height="1" fill="#858585"/>
  <rect x="98" y="10" width="1" height="1" fill="#848484"/>
  <rect x="15" y="11" width="1" height="1" fill="#556d73"/>
  <rect x="16" y="11" width="1" height="1" fill="#51666f"/>
  <rect x="17" y="11" width="1" height="1" fill="#52666d"/>
  <rect x="27" y="11" width="1" height="1" fill="#97999b66"/>
  <rect x="28" y="11" width="2" height="1" fill="#fcfeff1a"/>
  <rect x="30" y="11" width="4" height="1" fill="#fdffff1a"/>
  <rect x="34" y="11" width="1" height="1" fill="#ffffff1a"/>
  <rect x="35" y="11" width="1" height="2" fill="#fdffff1a"/>
  <rect x="36" y="11" width="1" height="1" fill="#fbfdff1a"/>
  <rect x="37" y="11" width="1" height="1" fill="#fdffff1a"/>
  <rect x="38" y="11" width="1" height="1" fill="#fcfeff1a"/>
  <rect x="39" y="11" width="1" height="1" fill="#faffff1a"/>
  <rect x="40" y="11" width="1" height="1" fill="#eeffff1a"/>
  <rect x="41" y="11" width="1" height="1" fill="#5d7677"/>
  <rect x="42" y="11" width="1" height="1" fill="#5a7877"/>
  <rect x="43" y="11" width="1" height="1" fill="#587471"/>
  <rect x="44" y="11" width="1" height="1" fill="#eeffff1a"/>
  <rect x="45" y="11" width="1" height="1" fill="#f9ffff1a"/>
  <rect x="46" y="11" width="1" height="1" fill="#f9fcf81a"/>
  <rect x="47" y="11" width="1" height="1" fill="#fbf9f71a"/>
  <rect x="48" y="11" width="1" height="4" fill="#ffffff1a"/>
  <rect x="49" y="11" width="1" height="1" fill="#fafafc1a"/>
  <rect x="50" y="11" width="1" height="1" fill="#9a999e66"/>
  <rect x="53" y="11" width="1" height="1" fill="#9d9d9f66"/>
  <rect x="54" y="11" width="1" height="1" fill="#e3e3e348"/>
  <rect x="55" y="11" width="1" height="1" fill="#e8e8e848"/>
  <rect x="56" y="11" width="4" height="1" fill="#e5e5e548"/>
  <rect x="60" y="11" width="2" height="1" fill="#e5e5e748"/>
  <rect x="62" y="11" width="2" height="1" fill="#e5e5e948"/>
  <rect x="64" y="11" width="1" height="1" fill="#e3e2e748"/>
  <rect x="65" y="11" width="1" height="1" fill="#e1e3e748"/>
  <rect x="66" y="11" width="1" height="1" fill="#d7dfe348"/>
  <rect x="67" y="11" width="1" height="1" fill="#515f61"/>
  <rect x="68" y="11" width="1" height="1" fill="#4a6062"/>
  <rect x="69" y="11" width="1" height="1" fill="#456362"/>
  <rect x="70" y="11" width="1" height="1" fill="#426560"/>
  <rect x="71" y="11" width="1" height="1" fill="#476260"/>
  <rect x="72" y="11" width="1" height="1" fill="#e3eeef48"/>
  <rect x="73" y="11" width="1" height="1" fill="#e5e7e948"/>
  <rect x="74" y="11" width="1" height="1" fill="#dddddd48"/>
  <rect x="75" y="11" width="1" height="1" fill="#e2e2e048"/>
  <rect x="76" y="11" width="1" height="1" fill="#9c9c9a66"/>
  <rect x="95" y="11" width="1" height="1" fill="#999999"/>
  <rect x="96" y="11" width="1" height="1" fill="#9d9d9d"/>
  <rect x="97" y="11" width="1" height="1" fill="#969696"/>
  <rect x="16" y="12" width="1" height="1" fill="#637074"/>
  <rect x="27" y="12" width="1" height="1" fill="#989a9c66"/>
  <rect x="28" y="12" width="4" height="1" fill="#fdffff1a"/>
  <rect x="32" y="12" width="3" height="1" fill="#ffffff1a"/>
  <rect x="36" y="12" width="2" height="1" fill="#fcfeff1a"/>
  <rect x="38" y="12" width="1" height="1" fill="#fdffff1a"/>
  <rect x="39" y="12" width="2" height="1" fill="#fcffff1a"/>
  <rect x="41" y="12" width="1" height="1" fill="#f0ffff1a"/>
  <rect x="42" y="12" width="1" height="1" fill="#768b89"/>
  <rect x="43" y="12" width="1" height="1" fill="#efffff1a"/>
  <rect x="44" y="12" width="1" height="1" fill="#f2ffff1a"/>
  <rect x="45" y="12" width="1" height="1" fill="#f7fffb1a"/>
  <rect x="46" y="12" width="1" height="1" fill="#fdfffb1a"/>
  <rect x="47" y="12" width="1" height="1" fill="#fffffb1a"/>
  <rect x="49" y="12" width="1" height="1" fill="#fdfcff1a"/>
  <rect x="50" y="12" width="1" height="1" fill="#9c9c9e66"/>
  <rect x="53" y="12" width="1" height="2" fill="#99989b66"/>
  <rect x="54" y="12" width="1" height="2" fill="#ececee48"/>
  <rect x="55" y="12" width="1" height="2" fill="#eeedf048"/>
  <rect x="56" y="12" width="4" height="1" fill="#e7e7e748"/>
  <rect x="60" y="12" width="2" height="1" fill="#e7e6e948"/>
  <rect x="62" y="12" width="1" height="1" fill="#e8e5eb48"/>
  <rect x="63" y="12" width="1" height="1" fill="#eae4eb48"/>
  <rect x="64" y="12" width="1" height="1" fill="#eae2e948"/>
  <rect x="65" y="12" width="1" height="1" fill="#eae4eb48"/>
  <rect x="66" y="12" width="1" height="1" fill="#e8e5ed48"/>
  <rect x="67" y="12" width="1" height="1" fill="#e3e7ed48"/>
  <rect x="68" y="12" width="1" height="1" fill="#657076"/>
  <rect x="69" y="12" width="1" height="1" fill="#617276"/>
  <rect x="70" y="12" width="1" height="1" fill="#5a7170"/>
  <rect x="71" y="12" width="1" height="1" fill="#cfe3e348"/>
  <rect x="72" y="12" width="1" height="1" fill="#e2edee48"/>
  <rect x="73" y="12" width="1" height="1" fill="#e6eaeb48"/>
  <rect x="74" y="12" width="1" height="1" fill="#e8ebea48"/>
  <rect x="75" y="12" width="1" height="1" fill="#e8e8e648"/>
  <rect x="76" y="12" width="1" height="1" fill="#9d9e9b66"/>
  <rect x="96" y="12" width="1" height="1" fill="#a9a9a9"/>
  <rect x="27" y="13" width="1" height="1" fill="#999b9d66"/>
  <rect x="28" y="13" width="8" height="3" fill="#ffffff1a"/>
  <rect x="36" y="13" width="3" height="1" fill="#fdffff1a"/>
  <rect x="39" y="13" width="1" height="1" fill="#fbfdff1a"/>
  <rect x="40" y="13" width="1" height="1" fill="#f9feff1a"/>
  <rect x="41" y="13" width="1" height="1" fill="#feffff1a"/>
  <rect x="42" y="13" width="1" height="1" fill="#f9ffff1a"/>
  <rect x="43" y="13" width="1" height="1" fill="#f7ffff1a"/>
  <rect x="44" y="13" width="1" height="1" fill="#f6fffd1a"/>
  <rect x="45" y="13" width="1" height="1" fill="#f7fff91a"/>
  <rect x="46" y="13" width="1" height="1" fill="#fdfff71a"/>
  <rect x="47" y="13" width="1" height="1" fill="#fffff91a"/>
  <rect x="49" y="13" width="1" height="1" fill="#fefefe1a"/>
  <rect x="50" y="13" width="1" height="2" fill="#9b9a9d66"/>
  <rect x="56" y="13" width="5" height="1" fill="#e9e9e948"/>
  <rect x="61" y="13" width="1" height="1" fill="#e9e8eb48"/>
  <rect x="62" y="13" width="1" height="1" fill="#eae8eb48"/>
  <rect x="63" y="13" width="1" height="1" fill="#ece7eb48"/>
  <rect x="64" y="13" width="2" height="1" fill="#efe7ec48"/>
  <rect x="66" y="13" width="1" height="1" fill="#ede8ee48"/>
  <rect x="67" y="13" width="1" height="1" fill="#eae9ee48"/>
  <rect x="68" y="13" width="1" height="1" fill="#e5ebf048"/>
  <rect x="69" y="13" width="1" height="1" fill="#778285"/>
  <rect x="70" y="13" width="1" height="1" fill="#e4f2f248"/>
  <rect x="71" y="13" width="1" height="1" fill="#e6f1f248"/>
  <rect x="72" y="13" width="1" height="1" fill="#e4edec48"/>
  <rect x="73" y="13" width="1" height="1" fill="#e7ecea48"/>
  <rect x="74" y="13" width="1" height="1" fill="#e8ebe848"/>
  <rect x="75" y="13" width="1" height="1" fill="#eaeae848"/>
  <rect x="76" y="13" width="1" height="1" fill="#9c9c9a66"/>
  <rect x="27" y="14" width="1" height="2" fill="#9a9c9e66"/>
  <rect x="36" y="14" width="2" height="2" fill="#fdffff1a"/>
  <rect x="38" y="14" width="3" height="2" fill="#ffffff1a"/>
  <rect x="41" y="14" width="1" height="1" fill="#fdffff1a"/>
  <rect x="42" y="14" width="1" height="1" fill="#f9fffd1a"/>
  <rect x="43" y="14" width="1" height="1" fill="#f3fff91a"/>
  <rect x="44" y="14" width="1" height="1" fill="#f4fff81a"/>
  <rect x="45" y="14" width="1" height="1" fill="#f7fff51a"/>
  <rect x="46" y="14" width="1" height="1" fill="#fdfff31a"/>
  <rect x="47" y="14" width="1" height="1" fill="#fffff51a"/>
  <rect x="49" y="14" width="1" height="1" fill="#fefdff1a"/>
  <rect x="53" y="14" width="1" height="4" fill="#9a999c66"/>
  <rect x="54" y="14" width="1" height="2" fill="#eeedf048"/>
  <rect x="55" y="14" width="1" height="2" fill="#efeef148"/>
  <rect x="56" y="14" width="2" height="1" fill="#eeeeee48"/>
  <rect x="58" y="14" width="3" height="1" fill="#eeeeec48"/>
  <rect x="61" y="14" width="2" height="1" fill="#eeeeee48"/>
  <rect x="63" y="14" width="2" height="1" fill="#efedee48"/>
  <rect x="65" y="14" width="2" height="1" fill="#eeeeee48"/>
  <rect x="67" y="14" width="1" height="1" fill="#ebedec48"/>
  <rect x="68" y="14" width="1" height="1" fill="#e9eeec48"/>
  <rect x="69" y="14" width="1" height="1" fill="#e8edeb48"/>
  <rect x="70" y="14" width="1" height="1" fill="#e9f0ee48"/>
  <rect x="71" y="14" width="1" height="1" fill="#eaefee48"/>
  <rect x="72" y="14" width="1" height="1" fill="#eaeceb48"/>
  <rect x="73" y="14" width="1" height="1" fill="#e8ebe848"/>
  <rect x="74" y="14" width="2" height="1" fill="#eaeae848"/>
  <rect x="76" y="14" width="1" height="2" fill="#9d9e9b66"/>
  <rect x="41" y="15" width="1" height="1" fill="#f7f7f71a"/>
  <rect x="42" y="15" width="1" height="1" fill="#f7fef91a"/>
  <rect x="43" y="15" width="1" height="1" fill="#f9fffb1a"/>
  <rect x="44" y="15" width="1" height="1" fill="#f9fff91a"/>
  <rect x="45" y="15" width="1" height="1" fill="#fafff71a"/>
  <rect x="46" y="15" width="1" height="1" fill="#fdfff51a"/>
  <rect x="47" y="15" width="1" height="1" fill="#fffff71a"/>
  <rect x="48" y="15" width="2" height="2" fill="#ffffff1a"/>
  <rect x="50" y="15" width="1" height="2" fill="#9a999c66"/>
  <rect x="56" y="15" width="2" height="1" fill="#efefef48"/>
  <rect x="58" y="15" width="4" height="1" fill="#efefed48"/>
  <rect x="62" y="15" width="2" height="1" fill="#efefef48"/>
  <rect x="64" y="15" width="3" height="1" fill="#eef1ee48"/>
  <rect x="67" y="15" width="2" height="1" fill="#ecefec48"/>
  <rect x="69" y="15" width="1" height="1" fill="#f1f3f048"/>
  <rect x="70" y="15" width="1" height="1" fill="#edf0ed48"/>
  <rect x="71" y="15" width="1" height="1" fill="#ebeeea48"/>
  <rect x="72" y="15" width="1" height="1" fill="#ebece948"/>
  <rect x="73" y="15" width="3" height="1" fill="#eaeae848"/>
  <rect x="27" y="16" width="1" height="2" fill="#9c9c9e66"/>
  <rect x="28" y="16" width="14" height="1" fill="#ffffff1a"/>
  <rect x="42" y="16" width="1" height="1" fill="#fdffff1a"/>
  <rect x="43" y="16" width="3" height="1" fill="#fdfffd1a"/>
  <rect x="46" y="16" width="1" height="1" fill="#fffffb1a"/>
  <rect x="47" y="16" width="1" height="1" fill="#fffffd1a"/>
  <rect x="54" y="16" width="1" height="2" fill="#eeeeee48"/>
  <rect x="55" y="16" width="5" height="1" fill="#efefef48"/>
  <rect x="60" y="16" width="4" height="1" fill="#efefed48"/>
  <rect x="64" y="16" width="4" height="1" fill="#efefef48"/>
  <rect x="68" y="16" width="4" height="1" fill="#f0f0f048"/>
  <rect x="72" y="16" width="2" height="1" fill="#f0f0ee48"/>
  <rect x="74" y="16" width="2" height="1" fill="#f0f0f048"/>
  <rect x="76" y="16" width="1" height="3" fill="#9d9d9d66"/>
  <rect x="28" y="17" width="22" height="3" fill="#ffffff1a"/>
  <rect x="50" y="17" width="1" height="2" fill="#99989b66"/>
  <rect x="55" y="17" width="1" height="1" fill="#efefef48"/>
  <rect x="56" y="17" width="4" height="1" fill="#f0f0f048"/>
  <rect x="60" y="17" width="4" height="1" fill="#f0f0ee48"/>
  <rect x="64" y="17" width="8" height="1" fill="#f1f1f148"/>
  <rect x="72" y="17" width="2" height="1" fill="#f2f3f048"/>
  <rect x="74" y="17" width="2" height="1" fill="#f2f2f248"/>
  <rect x="27" y="18" width="1" height="2" fill="#9d9d9f66"/>
  <rect x="53" y="18" width="1" height="1" fill="#9b9a9d66"/>
  <rect x="54" y="18" width="1" height="2" fill="#efefef48"/>
  <rect x="55" y="18" width="1" height="2" fill="#f0f0f048"/>
  <rect x="56" y="18" width="20" height="1" fill="#f5f5f548"/>
  <rect x="50" y="19" width="1" height="1" fill="#97979966"/>
  <rect x="53" y="19" width="1" height="1" fill="#9c9c9e66"/>
  <rect x="56" y="19" width="20" height="1" fill="#f7f7f748"/>
  <rect x="76" y="19" width="1" height="1" fill="#9e9e9e66"/>
  <rect x="27" y="20" width="1" height="3" fill="#9d9d9d66"/>
  <rect x="28" y="20" width="2" height="1" fill="#ffffff1a"/>
  <rect x="30" y="20" width="1" height="1" fill="#f9f9f91a"/>
  <rect x="31" y="20" width="17" height="1" fill="#ffffff1a"/>
  <rect x="48" y="20" width="1" height="1" fill="#fdfdfd1a"/>
  <rect x="49" y="20" width="1" height="1" fill="#ffffff1a"/>
  <rect x="50" y="20" width="1" height="2" fill="#97979766"/>
  <rect x="53" y="20" width="1" height="1" fill="#9d9d9d66"/>
  <rect x="54" y="20" width="18" height="1" fill="#f9f9f948"/>
  <rect x="72" y="20" width="1" height="1" fill="#f3f3f348"/>
  <rect x="73" y="20" width="1" height="1" fill="#ffffff48"/>
  <rect x="74" y="20" width="1" height="1" fill="#f5f5f548"/>
  <rect x="75" y="20" width="1" height="1" fill="#f7f7f748"/>
  <rect x="76" y="20" width="1" height="1" fill="#9c9c9c66"/>
  <rect x="28" y="21" width="2" height="1" fill="#fdfdfd1a"/>
  <rect x="30" y="21" width="1" height="1" fill="#fefefe1a"/>
  <rect x="31" y="21" width="1" height="1" fill="#f9f9f91a"/>
  <rect x="32" y="21" width="17" height="1" fill="#ffffff1a"/>
  <rect x="49" y="21" width="1" height="1" fill="#f8f8f81a"/>
  <rect x="53" y="21" width="1" height="1" fill="#9a9a9a66"/>
  <rect x="54" y="21" width="1" height="1" fill="#ffffff48"/>
  <rect x="55" y="21" width="1" height="1" fill="#efefef48"/>
  <rect x="56" y="21" width="16" height="3" fill="#fafafa48"/>
  <rect x="72" y="21" width="1" height="1" fill="#ffffff48"/>
  <rect x="73" y="21" width="1" height="1" fill="#fefefe48"/>
  <rect x="74" y="21" width="1" height="1" fill="#f8f8f848"/>
  <rect x="75" y="21" width="1" height="1" fill="#fcfbfc48"/>
  <rect x="76" y="21" width="1" height="1" fill="#9d9d9d66"/>
  <rect x="28" y="22" width="1" height="1" fill="#fcfbfc1a"/>
  <rect x="29" y="22" width="1" height="1" fill="#ffffff1a"/>
  <rect x="30" y="22" width="1" height="1" fill="#fcfbfc1a"/>
  <rect x="31" y="22" width="19" height="1" fill="#ffffff1a"/>
  <rect x="50" y="22" width="1" height="1" fill="#a3a3a366"/>
  <rect x="53" y="22" width="1" height="1" fill="#9b9b9b66"/>
  <rect x="54" y="22" width="1" height="1" fill="#f8f8f848"/>
  <rect x="55" y="22" width="1" height="1" fill="#f6f6f648"/>
  <rect x="72" y="22" width="1" height="1" fill="#f6f6f648"/>
  <rect x="73" y="22" width="1" height="1" fill="#f8f8f848"/>
  <rect x="74" y="22" width="1" height="1" fill="#fefefe48"/>
  <rect x="75" y="22" width="1" height="1" fill="#fafafa48"/>
  <rect x="76" y="22" width="1" height="1" fill="#a1a1a166"/>
  <rect x="27" y="23" width="1" height="1" fill="#9c9c9c58"/>
  <rect x="28" y="23" width="1" height="1" fill="#bdbdbd33"/>
  <rect x="29" y="23" width="2" height="1" fill="#fefefe1a"/>
  <rect x="31" y="23" width="17" height="1" fill="#ffffff1a"/>
  <rect x="48" y="23" width="1" height="1" fill="#fefefe1a"/>
  <rect x="49" y="23" width="1" height="1" fill="#c2c2c233"/>
  <rect x="50" y="23" width="1" height="1" fill="#a0a0a058"/>
  <rect x="53" y="23" width="1" height="1" fill="#99999958"/>
  <rect x="54" y="23" width="1" height="1" fill="#dadada52"/>
  <rect x="55" y="23" width="1" height="1" fill="#fefefe48"/>
  <rect x="72" y="23" width="1" height="1" fill="#f8f8f848"/>
  <rect x="73" y="23" width="1" height="1" fill="#fcfbfc48"/>
  <rect x="74" y="23" width="1" height="1" fill="#f9f9f948"/>
  <rect x="75" y="23" width="1" height="1" fill="#d9d9d952"/>
  <rect x="76" y="23" width="1" height="1" fill="#9d9d9d58"/>
  <rect x="27" y="24" width="1" height="1" fill="#9c9c9c1b"/>
  <rect x="28" y="24" width="1" height="1" fill="#9c9c9c58"/>
  <rect x="29" y="24" width="3" height="1" fill="#9c9c9c66"/>
  <rect x="32" y="24" width="17" height="1" fill="#9b9b9b66"/>
  <rect x="49" y="24" width="1" height="1" fill="#9b9b9b60"/>
  <rect x="50" y="24" width="1" height="1" fill="#9b9b9b1b"/>
  <rect x="53" y="24" width="1" height="1" fill="#9a9a9a1b"/>
  <rect x="54" y="24" width="1" height="1" fill="#9b9b9b58"/>
  <rect x="55" y="24" width="20" height="1" fill="#9b9b9b66"/>
  <rect x="75" y="24" width="1" height="1" fill="#9b9b9b5e"/>
  <rect x="76" y="24" width="1" height="1" fill="#9b9b9b1b"/>
</svg>