<svg xmlns="http://www.w3.org/2000/svg" width="96" height="24" viewBox="0 0 96 24" shape-rendering="crispEdges">
  <rect x="0" y="0" width="20" height="1" fill="#e2e2e2"/>
  <rect x="20" y="0" width="1" height="1" fill="#e3e3e3f1"/>
  <rect x="21" y="0" width="1" height="1" fill="#e1e1e1ad"/>
  <rect x="22" y="0" width="1" height="1" fill="#dedede25"/>
  <rect x="24" y="0" width="20" height="1" fill="#c9c9c9"/>
  <rect x="44" y="0" width="1" height="1" fill="#c9c9c9f1"/>
  <rect x="45" y="0" width="1" height="1" fill="#cececead"/>
  <rect x="46" y="0" width="1" height="1" fill="#cdcdcd25"/>
  <rect x="48" y="0" width="14" height="1" fill="#b3b3b3"/>
  <rect x="62" y="0" width="2" height="1" fill="#b4b4b4"/>
  <rect x="64" y="0" width="2" height="1" fill="#b6b6b4"/>
  <rect x="66" y="0" width="2" height="1" fill="#b7b7b5"/>
  <rect x="68" y="0" width="1" height="1" fill="#b4b5b2f2"/>
  <rect x="69" y="0" width="1" height="1" fill="#b3b4b1ad"/>
  <rect x="70" y="0" width="1" height="1" fill="#b7b7b527"/>
  <rect x="72" y="0" width="8" height="1" fill="#e3e3e1"/>
  <rect x="80" y="0" width="12" height="1" fill="#e2e2e2"/>
  <rect x="92" y="0" width="1" height="1" fill="#e3e3e3f1"/>
  <rect x="93" y="0" width="1" height="1" fill="#e1e1e1ad"/>
  <rect x="94" y="0" width="1" height="1" fill="#dedede25"/>
  <rect x="0" y="1" width="20" height="1" fill="#ffffff"/>
  <rect x="20" y="1" width="1" height="1" fill="#fefefe"/>
  <rect x="21" y="1" width="1" height="1" fill="#f2f2f2"/>
  <rect x="22" y="1" width="1" height="1" fill="#e3e3e3ef"/>
  <rect x="23" y="1" width="1" height="1" fill="#e2e2e227"/>
  <rect x="24" y="1" width="20" height="1" fill="#ffffff"/>
  <rect x="44" y="1" width="1" height="1" fill="#f9f9f9"/>
  <rect x="45" y="1" width="1" height="1" fill="#e8e8e8"/>
  <rect x="46" y="1" width="1" height="1" fill="#cdcdcdef"/>
  <rect x="47" y="1" width="1" height="1" fill="#cbcbcb27"/>
  <rect x="48" y="1" width="14" height="1" fill="#fdfdfd"/>
  <rect x="62" y="1" width="2" height="1" fill="#fefefe"/>
  <rect x="64" y="1" width="2" height="1" fill="#fffffd"/>
  <rect x="66" y="1" width="2" height="1" fill="#fffffe"/>
  <rect x="68" y="1" width="1" height="1" fill="#fdfdfb"/>
  <rect x="69" y="1" width="1" height="1" fill="#e3e3e1"/>
  <rect x="70" y="1" width="1" height="1" fill="#b2b3b0ef"/>
  <rect x="71" y="1" width="1" height="1" fill="#b8b8b628"/>
  <rect x="72" y="1" width="8" height="1" fill="#fdfdfb"/>
  <rect x="80" y="1" width="12" height="1" fill="#ffffff"/>
  <rect x="92" y="1" width="1" height="1" fill="#fafafa"/>
  <rect x="93" y="1" width="1" height="1" fill="#f0f0f0"/>
  <rect x="94" y="1" width="1" height="1" fill="#e0e0e0ef"/>
  <rect x="95" y="1" width="1" height="1" fill="#dedede27"/>
  <rect x="0" y="2" width="21" height="1" fill="#ffffff"/>
  <rect x="21" y="2" width="1" height="1" fill="#fcfbfc"/>
  <rect x="22" y="2" width="1" height="1" fill="#f3f3f3"/>
  <rect x="23" y="2" width="1" height="1" fill="#e4e4e4ad"/>
  <rect x="24" y="2" width="20" height="1" fill="#fdfdfd"/>
  <rect x="44" y="2" width="1" height="1" fill="#f8f8f8"/>
  <rect x="45" y="2" width="1" height="1" fill="#ffffff"/>
  <rect x="46" y="2" width="1" height="1" fill="#e8e8e8"/>
  <rect x="47" y="2" width="1" height="1" fill="#ccccccad"/>
  <rect x="48" y="2" width="14" height="2" fill="#f3f3f3"/>
  <rect x="62" y="2" width="2" height="2" fill="#f5f5f5"/>
  <rect x="64" y="2" width="2" height="2" fill="#f6f6f4"/>
  <rect x="66" y="2" width="2" height="2" fill="#f7f7f5"/>
  <rect x="68" y="2" width="1" height="4" fill="#f1f1ef"/>
  <rect x="69" y="2" width="1" height="1" fill="#fcfcf9"/>
  <rect x="70" y="2" width="1" height="1" fill="#e4e5e2"/>
  <rect x="71" y="2" width="1" height="1" fill="#b6b6b4ad"/>
  <rect x="72" y="2" width="8" height="1" fill="#fffffe"/>
  <rect x="80" y="2" width="12" height="1" fill="#fefefe"/>
  <rect x="92" y="2" width="1" height="1" fill="#fdfdfd"/>
  <rect x="93" y="2" width="1" height="1" fill="#f8f8f8"/>
  <rect x="94" y="2" width="1" height="1" fill="#f0f0f0"/>
  <rect x="95" y="2" width="1" height="1" fill="#e1e1e1ad"/>
  <rect x="0" y="3" width="20" height="1" fill="#fdfdfd"/>
  <rect x="20" y="3" width="1" height="1" fill="#fefefe"/>
  <rect x="21" y="3" width="1" height="1" fill="#fdfdfd"/>
  <rect x="22" y="3" width="1" height="1" fill="#fafafa"/>
  <rect x="23" y="3" width="1" height="1" fill="#e3e3e3f3"/>
  <rect x="24" y="3" width="20" height="1" fill="#fcfbfc"/>
  <rect x="44" y="3" width="1" height="1" fill="#ffffff"/>
  <rect x="45" y="3" width="1" height="1" fill="#fefefe"/>
  <rect x="46" y="3" width="1" height="1" fill="#fdfdfd"/>
  <rect x="47" y="3" width="1" height="1" fill="#cdcdcdf3"/>
  <rect x="69" y="3" width="1" height="4" fill="#f3f4f1"/>
  <rect x="70" y="3" width="1" height="5" fill="#fffffe"/>
  <rect x="71" y="3" width="1" height="1" fill="#babbb8f3"/>
  <rect x="72" y="3" width="8" height="1" fill="#fefefc"/>
  <rect x="80" y="3" width="12" height="1" fill="#ffffff"/>
  <rect x="92" y="3" width="1" height="1" fill="#fefefe"/>
  <rect x="93" y="3" width="1" height="1" fill="#fdfdfd"/>
  <rect x="94" y="3" width="1" height="1" fill="#fafafa"/>
  <rect x="95" y="3" width="1" height="1" fill="#e3e3e3f3"/>
  <rect x="0" y="4" width="22" height="4" fill="#fdfdfd"/>
  <rect x="22" y="4" width="1" height="4" fill="#ffffff"/>
  <rect x="23" y="4" width="1" height="4" fill="#e0e0e0"/>
  <rect x="24" y="4" width="22" height="2" fill="#fdfdfd"/>
  <rect x="46" y="4" width="1" height="3" fill="#ffffff"/>
  <rect x="47" y="4" width="1" height="2" fill="#c8c8c8"/>
  <rect x="48" y="4" width="16" height="2" fill="#f6f6f6"/>
  <rect x="64" y="4" width="4" height="4" fill="#f7f7f5"/>
  <rect x="71" y="4" width="1" height="2" fill="#babbb8"/>
  <rect x="72" y="4" width="4" height="4" fill="#fefefc"/>
  <rect x="76" y="4" width="4" height="4" fill="#fefefe"/>
  <rect x="80" y="4" width="13" height="4" fill="#fdfdfd"/>
  <rect x="93" y="4" width="1" height="4" fill="#fcfbfc"/>
  <rect x="94" y="4" width="1" height="4" fill="#ffffff"/>
  <rect x="95" y="4" width="1" height="4" fill="#e0e0e0"/>
  <rect x="24" y="6" width="18" height="1" fill="#fdfdfd"/>
  <rect x="42" y="6" width="4" height="1" fill="#fdfdfb"/>
  <rect x="47" y="6" width="1" height="1" fill="#c8c9c6"/>
  <rect x="48" y="6" width="10" height="2" fill="#f6f6f6"/>
  <rect x="58" y="6" width="6" height="2" fill="#f6f6f4"/>
  <rect x="68" y="6" width="1" height="1" fill="#f2f3f0"/>
  <rect x="71" y="6" width="1" height="1" fill="#bbbcb9"/>
  <rect x="24" y="7" width="8" height="1" fill="#fdfdfd"/>
  <rect x="32" y="7" width="10" height="1" fill="#fcfbfc"/>
  <rect x="42" y="7" width="4" height="1" fill="#fcfcf9"/>
  <rect x="46" y="7" width="1" height="1" fill="#fffffe"/>
  <rect x="47" y="7" width="1" height="1" fill="#c7c7c5"/>
  <rect x="68" y="7" width="2" height="1" fill="#f3f4f1"/>
  <rect x="71" y="7" width="1" height="1" fill="#bdbdbb"/>
  <rect x="0" y="8" width="16" height="12" fill="#fdfdfd"/>
  <rect x="16" y="8" width="4" height="12" fill="#fdfdfb"/>
  <rect x="20" y="8" width="1" height="13" fill="#fcfcf9"/>
  <rect x="21" y="8" width="2" height="12" fill="#fefefc"/>
  <rect x="23" y="8" width="1" height="12" fill="#d9d9d7"/>
  <rect x="24" y="8" width="8" height="1" fill="#fafafa"/>
  <rect x="32" y="8" width="6" height="1" fill="#fcfbfc"/>
  <rect x="38" y="8" width="6" height="1" fill="#fcfcf9"/>
  <rect x="44" y="8" width="2" height="1" fill="#fcfbfc"/>
  <rect x="46" y="8" width="1" height="2" fill="#ffffff"/>
  <rect x="47" y="8" width="1" height="1" fill="#c7c7c7"/>
  <rect x="48" y="8" width="4" height="2" fill="#f7f7f7"/>
  <rect x="52" y="8" width="2" height="2" fill="#f7f6f9"/>
  <rect x="54" y="8" width="2" height="2" fill="#f7f7f7"/>
  <rect x="56" y="8" width="12" height="2" fill="#f7f7f5"/>
  <rect x="68" y="8" width="1" height="1" fill="#f5f5f5"/>
  <rect x="69" y="8" width="1" height="4" fill="#f3f3f3"/>
  <rect x="70" y="8" width="1" height="5" fill="#ffffff"/>
  <rect x="71" y="8" width="1" height="1" fill="#bebebe"/>
  <rect x="72" y="8" width="8" height="4" fill="#fefefe"/>
  <rect x="80" y="8" width="12" height="8" fill="#fdfdfd"/>
  <rect x="92" y="8" width="1" height="4" fill="#fefefe"/>
  <rect x="93" y="8" width="2" height="4" fill="#ffffff"/>
  <rect x="95" y="8" width="1" height="4" fill="#dbdbdb"/>
  <rect x="24" y="9" width="14" height="2" fill="#fafafa"/>
  <rect x="38" y="9" width="6" height="1" fill="#fafbf8"/>
  <rect x="44" y="9" width="2" height="1" fill="#fafafa"/>
  <rect x="47" y="9" width="1" height="1" fill="#c6c6c6"/>
  <rect x="68" y="9" width="1" height="1" fill="#f6f6f6"/>
  <rect x="71" y="9" width="1" height="1" fill="#bfbfbf"/>
  <rect x="38" y="10" width="4" height="1" fill="#fafbf8"/>
  <rect x="42" y="10" width="1" height="1" fill="#fafbf6"/>
  <rect x="43" y="10" width="3" height="1" fill="#fafbf8"/>
  <rect x="46" y="10" width="1" height="2" fill="#fffffd"/>
  <rect x="47" y="10" width="1" height="2" fill="#c6c6c4"/>
  <rect x="48" y="10" width="4" height="2" fill="#f8f8f8"/>
  <rect x="52" y="10" width="2" height="2" fill="#f8f8fa"/>
  <rect x="54" y="10" width="2" height="2" fill="#f8f8f8"/>
  <rect x="56" y="10" width="2" height="4" fill="#f8f8f6"/>
  <rect x="58" y="10" width="6" height="4" fill="#f8f9f4"/>
  <rect x="64" y="10" width="4" height="4" fill="#f8f8f6"/>
  <rect x="68" y="10" width="1" height="2" fill="#f7f7f7"/>
  <rect x="71" y="10" width="1" height="2" fill="#c1c1c1"/>
  <rect x="24" y="11" width="8" height="1" fill="#fafafa"/>
  <rect x="32" y="11" width="6" height="2" fill="#f9f9f9"/>
  <rect x="38" y="11" width="4" height="2" fill="#f9faf7"/>
  <rect x="42" y="11" width="2" height="2" fill="#f9faf5"/>
  <rect x="44" y="11" width="1" height="1" fill="#fafbf8"/>
  <rect x="45" y="11" width="1" height="2" fill="#f9faf7"/>
  <rect x="24" y="12" width="8" height="1" fill="#f8f8f8"/>
  <rect x="44" y="12" width="1" height="2" fill="#f7f7f5"/>
  <rect x="46" y="12" width="1" height="4" fill="#ffffff"/>
  <rect x="47" y="12" width="1" height="2" fill="#c0c1be"/>
  <rect x="48" y="12" width="4" height="2" fill="#f9f9f9"/>
  <rect x="52" y="12" width="4" height="2" fill="#f8f8f8"/>
  <rect x="68" y="12" width="1" height="2" fill="#f8f8f8"/>
  <rect x="69" y="12" width="1" height="2" fill="#fafafa"/>
  <rect x="71" y="12" width="1" height="1" fill="#c2c2c2"/>
  <rect x="72" y="12" width="4" height="2" fill="#fefefe"/>
  <rect x="76" y="12" width="4" height="2" fill="#fefdff"/>
  <rect x="92" y="12" width="1" height="4" fill="#fcfbfc"/>
  <rect x="93" y="12" width="1" height="4" fill="#fdfdfd"/>
  <rect x="94" y="12" width="1" height="4" fill="#fefefe"/>
  <rect x="95" y="12" width="1" height="4" fill="#d9d9d9"/>
  <rect x="24" y="13" width="14" height="1" fill="#f8f8f8"/>
  <rect x="38" y="13" width="4" height="1" fill="#f8f8f6"/>
  <rect x="42" y="13" width="2" height="1" fill="#f8f9f4"/>
  <rect x="45" y="13" width="1" height="1" fill="#f8f8f6"/>
  <rect x="70" y="13" width="1" height="1" fill="#fefefe"/>
  <rect x="71" y="13" width="1" height="1" fill="#c4c4c4"/>
  <rect x="24" y="14" width="14" height="2" fill="#f7f7f7"/>
  <rect x="38" y="14" width="4" height="2" fill="#f7f7f5"/>
  <rect x="42" y="14" width="2" height="2" fill="#f7f8f3"/>
  <rect x="44" y="14" width="1" height="2" fill="#f6f6f4"/>
  <rect x="45" y="14" width="1" height="2" fill="#f7f7f5"/>
  <rect x="47" y="14" width="1" height="2" fill="#bfbfbd"/>
  <rect x="48" y="14" width="4" height="2" fill="#fcfbfc"/>
  <rect x="52" y="14" width="1" height="1" fill="#f9f9f9"/>
  <rect x="53" y="14" width="3" height="1" fill="#fafafa"/>
  <rect x="56" y="14" width="2" height="2" fill="#fafbf8"/>
  <rect x="58" y="14" width="6" height="1" fill="#fafbf6"/>
  <rect x="64" y="14" width="4" height="1" fill="#fafbf8"/>
  <rect x="68" y="14" width="1" height="4" fill="#f9f9f9"/>
  <rect x="69" y="14" width="1" height="4" fill="#fcfbfc"/>
  <rect x="70" y="14" width="1" height="6" fill="#ffffff"/>
  <rect x="71" y="14" width="1" height="4" fill="#c6c6c6"/>
  <rect x="72" y="14" width="4" height="2" fill="#fdfdfd"/>
  <rect x="76" y="14" width="2" height="2" fill="#fdfcff"/>
  <rect x="78" y="14" width="2" height="2" fill="#fefdff"/>
  <rect x="52" y="15" width="4" height="1" fill="#fafafa"/>
  <rect x="58" y="15" width="5" height="1" fill="#fafbf6"/>
  <rect x="63" y="15" width="5" height="1" fill="#fafbf8"/>
  <rect x="24" y="16" width="20" height="2" fill="#f6f6f4"/>
  <rect x="44" y="16" width="1" height="2" fill="#f5f5f2"/>
  <rect x="45" y="16" width="1" height="2" fill="#f6f6f4"/>
  <rect x="46" y="16" width="1" height="2" fill="#fffffe"/>
  <rect x="47" y="16" width="1" height="2" fill="#bebebc"/>
  <rect x="48" y="16" width="3" height="2" fill="#fdfdfb"/>
  <rect x="51" y="16" width="1" height="2" fill="#fcfcf9"/>
  <rect x="52" y="16" width="1" height="2" fill="#fcfbfc"/>
  <rect x="53" y="16" width="1" height="2" fill="#fafafa"/>
  <rect x="54" y="16" width="10" height="2" fill="#fafbf8"/>
  <rect x="64" y="16" width="4" height="2" fill="#fafafa"/>
  <rect x="72" y="16" width="2" height="2" fill="#fcfbfc"/>
  <rect x="74" y="16" width="6" height="2" fill="#fdfdfd"/>
  <rect x="80" y="16" width="1" height="1" fill="#fcfbfc"/>
  <rect x="81" y="16" width="11" height="1" fill="#fcfcf9"/>
  <rect x="92" y="16" width="1" height="4" fill="#fafbf8"/>
  <rect x="93" y="16" width="1" height="4" fill="#fcfcf9"/>
  <rect x="94" y="16" width="1" height="5" fill="#fdfdfb"/>
  <rect x="95" y="16" width="1" height="4" fill="#d7d8d5"/>
  <rect x="80" y="17" width="12" height="3" fill="#fcfcf9"/>
  <rect x="24" y="18" width="20" height="2" fill="#f5f5f2"/>
  <rect x="44" y="18" width="1" height="2" fill="#f3f4f1"/>
  <rect x="45" y="18" width="1" height="3" fill="#f5f5f2"/>
  <rect x="46" y="18" width="1" height="2" fill="#fffffd"/>
  <rect x="47" y="18" width="1" height="2" fill="#bdbdbb"/>
  <rect x="48" y="18" width="3" height="1" fill="#fefefc"/>
  <rect x="51" y="18" width="1" height="1" fill="#fdfdfb"/>
  <rect x="52" y="18" width="2" height="2" fill="#fcfbfc"/>
  <rect x="54" y="18" width="10" height="2" fill="#fcfcf9"/>
  <rect x="64" y="18" width="4" height="2" fill="#fcfbfc"/>
  <rect x="68" y="18" width="1" height="2" fill="#fafafa"/>
  <rect x="69" y="18" width="1" height="2" fill="#fdfdfd"/>
  <rect x="71" y="18" width="1" height="2" fill="#c7c7c7"/>
  <rect x="72" y="18" width="2" height="2" fill="#fafafa"/>
  <rect x="74" y="18" width="4" height="2" fill="#fcfbfc"/>
  <rect x="78" y="18" width="2" height="2" fill="#fdfdfd"/>
  <rect x="48" y="19" width="2" height="1" fill="#fefefc"/>
  <rect x="50" y="19" width="2" height="1" fill="#fdfdfb"/>
  <rect x="0" y="20" width="16" height="2" fill="#fafafa"/>
  <rect x="16" y="20" width="4" height="2" fill="#fafbf8"/>
  <rect x="21" y="20" width="1" height="1" fill="#ffffff"/>
  <rect x="22" y="20" width="1" height="1" fill="#fafbf8"/>
  <rect x="23" y="20" width="1" height="1" fill="#d6d7d4f3"/>
  <rect x="24" y="20" width="20" height="1" fill="#f8f8f6"/>
  <rect x="44" y="20" width="1" height="1" fill="#f7f7f5"/>
  <rect x="46" y="20" width="1" height="1" fill="#f9faf7"/>
  <rect x="47" y="20" width="1" height="1" fill="#bbbcb9f3"/>
  <rect x="48" y="20" width="4" height="1" fill="#fefefc"/>
  <rect x="52" y="20" width="12" height="1" fill="#fdfdfb"/>
  <rect x="64" y="20" width="4" height="1" fill="#fdfdfd"/>
  <rect x="68" y="20" width="1" height="1" fill="#f9f9f9"/>
  <rect x="69" y="20" width="2" height="1" fill="#fafafa"/>
  <rect x="71" y="20" width="1" height="1" fill="#c6c6c6f3"/>
  <rect x="72" y="20" width="4" height="2" fill="#fafafa"/>
  <rect x="76" y="20" width="4" height="2" fill="#f9f9f9"/>
  <rect x="80" y="20" width="12" height="2" fill="#f8f8f6"/>
  <rect x="92" y="20" width="1" height="1" fill="#f6f6f4"/>
  <rect x="93" y="20" width="1" height="1" fill="#fafbf8"/>
  <rect x="95" y="20" width="1" height="1" fill="#d2d2d0f3"/>
  <rect x="20" y="21" width="1" height="1" fill="#fffffd"/>
  <rect x="21" y="21" width="1" height="1" fill="#f8f8f6"/>
  <rect x="22" y="21" width="1" height="1" fill="#e8e8e6"/>
  <rect x="23" y="21" width="1" height="1" fill="#d4d4d2ad"/>
  <rect x="24" y="21" width="20" height="1" fill="#f3f4f1"/>
  <rect x="44" y="21" width="1" height="1" fill="#efefed"/>
  <rect x="45" y="21" width="1" height="1" fill="#fefefc"/>
  <rect x="46" y="21" width="1" height="1" fill="#e4e5e2"/>
  <rect x="47" y="21" width="1" height="1" fill="#bebebcad"/>
  <rect x="48" y="21" width="4" height="1" fill="#fafbf8"/>
  <rect x="52" y="21" width="12" height="1" fill="#f9faf7"/>
  <rect x="64" y="21" width="4" height="1" fill="#f9f9f9"/>
  <rect x="68" y="21" width="1" height="2" fill="#ffffff"/>
  <rect x="69" y="21" width="1" height="1" fill="#f8f8f8"/>
  <rect x="70" y="21" width="1" height="1" fill="#eaeaea"/>
  <rect x="71" y="21" width="1" height="1" fill="#cbcbcbad"/>
  <rect x="92" y="21" width="1" height="1" fill="#ffffff"/>
  <rect x="93" y="21" width="1" height="1" fill="#f9faf7"/>
  <rect x="94" y="21" width="1" height="1" fill="#ecedea"/>
  <rect x="95" y="21" width="1" height="1" fill="#d3d3d1ad"/>
  <rect x="0" y="22" width="20" height="1" fill="#ffffff"/>
  <rect x="20" y="22" width="1" height="1" fill="#fffffe"/>
  <rect x="21" y="22" width="1" height="1" fill="#eaeae8"/>
  <rect x="22" y="22" width="1" height="1" fill="#cfd0cdef"/>
  <rect x="23" y="22" width="1" height="1" fill="#d2d2d028"/>
  <rect x="24" y="22" width="20" height="1" fill="#fdfdfb"/>
  <rect x="44" y="22" width="1" height="1" fill="#f7f7f5"/>
  <rect x="45" y="22" width="1" height="1" fill="#dcdcda"/>
  <rect x="46" y="22" width="1" height="1" fill="#c2c3c0ef"/>
  <rect x="47" y="22" width="1" height="1" fill="#abaca928"/>
  <rect x="48" y="22" width="4" height="1" fill="#fffffd"/>
  <rect x="52" y="22" width="12" height="1" fill="#fefefc"/>
  <rect x="64" y="22" width="4" height="1" fill="#fefefe"/>
  <rect x="69" y="22" width="1" height="1" fill="#e5e5e5"/>
  <rect x="70" y="22" width="1" height="1" fill="#c9c9c9ef"/>
  <rect x="71" y="22" width="1" height="1" fill="#cfcfcf27"/>
  <rect x="72" y="22" width="8" height="1" fill="#ffffff"/>
  <rect x="80" y="22" width="12" height="1" fill="#fffffe"/>
  <rect x="92" y="22" width="1" height="1" fill="#fefefc"/>
  <rect x="93" y="22" width="1" height="1" fill="#e8e8e6"/>
  <rect x="94" y="22" width="1" height="1" fill="#cfd0cdef"/>
  <rect x="95" y="22" width="1" height="1" fill="#d4d4d228"/>
  <rect x="0" y="23" width="8" height="1" fill="#d3d3d3"/>
  <rect x="8" y="23" width="12" height="1" fill="#d3d3d1"/>
  <rect x="20" y="23" width="1" height="1" fill="#cfd0cdf2"/>
  <rect x="21" y="23" width="1" height="1" fill="#d4d4d2ad"/>
  <rect x="22" y="23" width="1" height="1" fill="#d7d8d527"/>
  <rect x="24" y="23" width="20" height="1" fill="#b7b7b5"/>
  <rect x="44" y="23" width="1" height="1" fill="#b4b5b2f2"/>
  <rect x="45" y="23" width="1" height="1" fill="#b8b8b6ad"/>
  <rect x="46" y="23" width="1" height="1" fill="#b4b5b227"/>
  <rect x="48" y="23" width="4" height="1" fill="#cbcbc9"/>
  <rect x="52" y="23" width="12" height="1" fill="#c9cac7"/>
  <rect x="64" y="23" width="4" height="1" fill="#c9c9c9"/>
  <rect x="68" y="23" width="1" height="1" fill="#cbcbcbf1"/>
  <rect x="69" y="23" width="1" height="1" fill="#c8c8c8ad"/>
  <rect x="70" y="23" width="1" height="1" fill="#c8c8c825"/>
  <rect x="72" y="23" width="4" height="1" fill="#d2d2d2"/>
  <rect x="76" y="23" width="4" height="1" fill="#d0d0d0"/>
  <rect x="80" y="23" width="12" height="1" fill="#cfd0cd"/>
  <rect x="92" y="23" width="1" height="1" fill="#d0d1cef2"/>
  <rect x="93" y="23" width="1" height="1" fill="#cfd0cdad"/>
  <rect x="94" y="23" width="1" height="1" fill="#cfd0cd27"/>
</svg>