<svg xmlns="http://www.w3.org/2000/svg" width="96" height="24" viewBox="0 0 96 24" shape-rendering="crispEdges">
  <rect x="1" y="0" width="1" height="1" fill="#dedede25"/>
  <rect x="2" y="0" width="1" height="1" fill="#e8e8e8ad"/>
  <rect x="3" y="0" width="1" height="1" fill="#e7e7e7f1"/>
  <rect x="4" y="0" width="10" height="1" fill="#dcdcdc"/>
  <rect x="14" y="0" width="4" height="1" fill="#dddddd"/>
  <rect x="18" y="0" width="6" height="1" fill="#dedede"/>
  <rect x="25" y="0" width="1" height="1" fill="#cecece25"/>
  <rect x="26" y="0" width="1" height="1" fill="#cdcdcdad"/>
  <rect x="27" y="0" width="1" height="1" fill="#cfcfcff1"/>
  <rect x="28" y="0" width="4" height="1" fill="#cdcdcd"/>
  <rect x="32" y="0" width="16" height="1" fill="#cecece"/>
  <rect x="49" y="0" width="1" height="1" fill="#bababa27"/>
  <rect x="50" y="0" width="1" height="1" fill="#b9b9b9ad"/>
  <rect x="51" y="0" width="1" height="1" fill="#b6b6b6f2"/>
  <rect x="52" y="0" width="20" height="1" fill="#b7b7b7"/>
  <rect x="73" y="0" width="1" height="1" fill="#e0e0e025"/>
  <rect x="74" y="0" width="1" height="1" fill="#e0e0e0ad"/>
  <rect x="75" y="0" width="1" height="1" fill="#e1e1e1f1"/>
  <rect x="76" y="0" width="20" height="1" fill="#e3e3e3"/>
  <rect x="0" y="1" width="1" height="1" fill="#dbdbdb27"/>
  <rect x="1" y="1" width="1" height="1" fill="#dededeef"/>
  <rect x="2" y="1" width="1" height="2" fill="#f5f5f5"/>
  <rect x="3" y="1" width="11" height="1" fill="#ffffff"/>
  <rect x="14" y="1" width="4" height="3" fill="#fefefe"/>
  <rect x="18" y="1" width="6" height="2" fill="#fdfdfd"/>
  <rect x="24" y="1" width="1" height="1" fill="#cbcbcb27"/>
  <rect x="25" y="1" width="1" height="1" fill="#d3d3d3ef"/>
  <rect x="26" y="1" width="1" height="1" fill="#e9e9e9"/>
  <rect x="27" y="1" width="1" height="1" fill="#f7f7f7"/>
  <rect x="28" y="1" width="4" height="1" fill="#fefefe"/>
  <rect x="32" y="1" width="16" height="1" fill="#ffffff"/>
  <rect x="48" y="1" width="1" height="1" fill="#b9b9b928"/>
  <rect x="49" y="1" width="1" height="1" fill="#b4b4b4ef"/>
  <rect x="50" y="1" width="1" height="1" fill="#e5e5e5"/>
  <rect x="51" y="1" width="1" height="1" fill="#fcfbfc"/>
  <rect x="52" y="1" width="20" height="1" fill="#ffffff"/>
  <rect x="72" y="1" width="1" height="1" fill="#e0e0e027"/>
  <rect x="73" y="1" width="1" height="1" fill="#e0e0e0ef"/>
  <rect x="74" y="1" width="1" height="1" fill="#f0f0f0"/>
  <rect x="75" y="1" width="1" height="2" fill="#fcfbfc"/>
  <rect x="76" y="1" width="20" height="2" fill="#fefefe"/>
  <rect x="0" y="2" width="1" height="1" fill="#e1e1e1ad"/>
  <rect x="1" y="2" width="1" height="1" fill="#f0f0f0"/>
  <rect x="3" y="2" width="1" height="1" fill="#fcfbfc"/>
  <rect x="4" y="2" width="10" height="1" fill="#ffffff"/>
  <rect x="24" y="2" width="1" height="1" fill="#ccccccad"/>
  <rect x="25" y="2" width="1" height="1" fill="#ebebeb"/>
  <rect x="26" y="2" width="1" height="1" fill="#fdfdfd"/>
  <rect x="27" y="2" width="1" height="1" fill="#ffffff"/>
  <rect x="28" y="2" width="4" height="1" fill="#f9f9f9"/>
  <rect x="32" y="2" width="16" height="1" fill="#fafafa"/>
  <rect x="48" y="2" width="1" height="1" fill="#b9b9b9ad"/>
  <rect x="49" y="2" width="1" height="1" fill="#e5e5e5"/>
  <rect x="50" y="2" width="1" height="1" fill="#fcfbfc"/>
  <rect x="51" y="2" width="1" height="1" fill="#f1f1f1"/>
  <rect x="52" y="2" width="20" height="1" fill="#f3f3f3"/>
  <rect x="72" y="2" width="1" height="1" fill="#e0e0e0ad"/>
  <rect x="73" y="2" width="1" height="1" fill="#f0f0f0"/>
  <rect x="74" y="2" width="1" height="1" fill="#f7f7f7"/>
  <rect x="0" y="3" width="1" height="1" fill="#dcdcdcf1"/>
  <rect x="1" y="3" width="1" height="1" fill="#f9f9f9"/>
  <rect x="2" y="3" width="1" height="1" fill="#f8f8f8"/>
  <rect x="3" y="3" width="1" height="1" fill="#ffffff"/>
  <rect x="4" y="3" width="10" height="1" fill="#fdfdfd"/>
  <rect x="18" y="3" width="6" height="1" fill="#ffffff"/>
  <rect x="24" y="3" width="1" height="1" fill="#cfcfcff1"/>
  <rect x="25" y="3" width="1" height="1" fill="#fafafa"/>
  <rect x="26" y="3" width="1" height="1" fill="#ffffff"/>
  <rect x="27" y="3" width="1" height="1" fill="#f8f8f8"/>
  <rect x="28" y="3" width="4" height="1" fill="#fcfbfc"/>
  <rect x="32" y="3" width="16" height="1" fill="#fdfdfd"/>
  <rect x="48" y="3" width="1" height="1" fill="#b6b6b6f1"/>
  <rect x="49" y="3" width="1" height="1" fill="#fcfbfc"/>
  <rect x="50" y="3" width="1" height="1" fill="#f1f1f1"/>
  <rect x="51" y="3" width="1" height="1" fill="#f9f9f9"/>
  <rect x="52" y="3" width="20" height="1" fill="#f1f1f1"/>
  <rect x="72" y="3" width="1" height="1" fill="#e1e1e1f1"/>
  <rect x="73" y="3" width="2" height="1" fill="#fcfbfc"/>
  <rect x="75" y="3" width="1" height="1" fill="#fafafa"/>
  <rect x="76" y="3" width="20" height="3" fill="#fdfdfd"/>
  <rect x="0" y="4" width="1" height="7" fill="#dbdbdb"/>
  <rect x="1" y="4" width="3" height="7" fill="#ffffff"/>
  <rect x="4" y="4" width="12" height="4" fill="#fefefe"/>
  <rect x="16" y="4" width="4" height="4" fill="#fdfdfd"/>
  <rect x="20" y="4" width="4" height="4" fill="#fefefe"/>
  <rect x="24" y="4" width="1" height="4" fill="#c8c8c8"/>
  <rect x="25" y="4" width="1" height="7" fill="#ffffff"/>
  <rect x="26" y="4" width="1" height="4" fill="#f9f9f9"/>
  <rect x="27" y="4" width="1" height="4" fill="#fefefe"/>
  <rect x="28" y="4" width="20" height="4" fill="#fdfdfd"/>
  <rect x="48" y="4" width="1" height="2" fill="#bebebe"/>
  <rect x="49" y="4" width="1" height="4" fill="#ffffff"/>
  <rect x="50" y="4" width="1" height="2" fill="#f2f2f2"/>
  <rect x="51" y="4" width="1" height="4" fill="#f8f8f8"/>
  <rect x="52" y="4" width="20" height="2" fill="#f5f5f5"/>
  <rect x="72" y="4" width="1" height="4" fill="#e2e2e2"/>
  <rect x="73" y="4" width="2" height="2" fill="#fdfdfd"/>
  <rect x="75" y="4" width="1" height="2" fill="#fcfbfc"/>
  <rect x="48" y="6" width="1" height="4" fill="#bfbfbf"/>
  <rect x="50" y="6" width="1" height="1" fill="#f3f3f3"/>
  <rect x="52" y="6" width="12" height="2" fill="#f5f5f5"/>
  <rect x="64" y="6" width="2" height="4" fill="#f6f6f6"/>
  <rect x="66" y="6" width="2" height="2" fill="#f5f5f5"/>
  <rect x="68" y="6" width="4" height="2" fill="#f6f6f6"/>
  <rect x="73" y="6" width="1" height="2" fill="#fdfdfd"/>
  <rect x="74" y="6" width="6" height="2" fill="#fdfdfb"/>
  <rect x="80" y="6" width="16" height="9" fill="#fdfdfd"/>
  <rect x="50" y="7" width="1" height="1" fill="#f5f5f5"/>
  <rect x="4" y="8" width="20" height="3" fill="#fefefe"/>
  <rect x="24" y="8" width="1" height="3" fill="#c4c4c4"/>
  <rect x="26" y="8" width="2" height="3" fill="#f9f9f9"/>
  <rect x="28" y="8" width="4" height="4" fill="#fcfbfc"/>
  <rect x="32" y="8" width="16" height="4" fill="#fafafa"/>
  <rect x="49" y="8" width="1" height="1" fill="#fefefe"/>
  <rect x="50" y="8" width="1" height="1" fill="#f6f6f6"/>
  <rect x="51" y="8" width="1" height="1" fill="#f7f7f7"/>
  <rect x="52" y="8" width="10" height="2" fill="#f6f6f6"/>
  <rect x="62" y="8" width="2" height="2" fill="#f7f7f7"/>
  <rect x="66" y="8" width="2" height="2" fill="#f8f8f8"/>
  <rect x="68" y="8" width="2" height="2" fill="#f6f6f6"/>
  <rect x="70" y="8" width="2" height="2" fill="#f6f6f4"/>
  <rect x="72" y="8" width="1" height="6" fill="#dadad8"/>
  <rect x="73" y="8" width="1" height="6" fill="#ffffff"/>
  <rect x="74" y="8" width="2" height="2" fill="#fdfdfb"/>
  <rect x="76" y="8" width="4" height="2" fill="#fefefc"/>
  <rect x="49" y="9" width="1" height="1" fill="#fdfdfd"/>
  <rect x="50" y="9" width="2" height="1" fill="#f7f7f7"/>
  <rect x="48" y="10" width="1" height="4" fill="#c1c1c1"/>
  <rect x="49" y="10" width="1" height="4" fill="#fefefe"/>
  <rect x="50" y="10" width="1" height="4" fill="#f9f9f9"/>
  <rect x="51" y="10" width="1" height="1" fill="#f8f8f8"/>
  <rect x="52" y="10" width="12" height="1" fill="#f7f7f7"/>
  <rect x="64" y="10" width="4" height="2" fill="#f9f9f9"/>
  <rect x="68" y="10" width="2" height="4" fill="#f8f8f8"/>
  <rect x="70" y="10" width="2" height="4" fill="#f8f8f6"/>
  <rect x="74" y="10" width="1" height="4" fill="#fdfdf9"/>
  <rect x="75" y="10" width="4" height="4" fill="#fefffa"/>
  <rect x="79" y="10" width="1" height="6" fill="#fefefc"/>
  <rect x="0" y="11" width="1" height="1" fill="#dadada"/>
  <rect x="1" y="11" width="1" height="1" fill="#ffffff"/>
  <rect x="2" y="11" width="22" height="1" fill="#fefefe"/>
  <rect x="24" y="11" width="1" height="2" fill="#c2c2c2"/>
  <rect x="25" y="11" width="1" height="2" fill="#fefefe"/>
  <rect x="26" y="11" width="2" height="2" fill="#f8f8f8"/>
  <rect x="51" y="11" width="4" height="1" fill="#f8f8f8"/>
  <rect x="55" y="11" width="7" height="1" fill="#f7f7f7"/>
  <rect x="62" y="11" width="2" height="1" fill="#f8f8f8"/>
  <rect x="0" y="12" width="1" height="1" fill="#d9d9d9"/>
  <rect x="1" y="12" width="1" height="1" fill="#fefefe"/>
  <rect x="2" y="12" width="6" height="1" fill="#fdfdfd"/>
  <rect x="8" y="12" width="16" height="2" fill="#fefefe"/>
  <rect x="28" y="12" width="20" height="1" fill="#f7f7f7"/>
  <rect x="51" y="12" width="1" height="2" fill="#f8f8f8"/>
  <rect x="52" y="12" width="3" height="1" fill="#f9f9f9"/>
  <rect x="55" y="12" width="7" height="1" fill="#f8f8f8"/>
  <rect x="62" y="12" width="6" height="1" fill="#f9f9f9"/>
  <rect x="0" y="13" width="1" height="7" fill="#d7d7d7"/>
  <rect x="1" y="13" width="1" height="7" fill="#fdfdfd"/>
  <rect x="2" y="13" width="2" height="7" fill="#fcfbfc"/>
  <rect x="4" y="13" width="4" height="1" fill="#fdfdfd"/>
  <rect x="24" y="13" width="1" height="3" fill="#c1c1c1"/>
  <rect x="25" y="13" width="1" height="3" fill="#fdfdfd"/>
  <rect x="26" y="13" width="22" height="3" fill="#f7f7f7"/>
  <rect x="52" y="13" width="3" height="1" fill="#fafafa"/>
  <rect x="55" y="13" width="2" height="1" fill="#f9f9f9"/>
  <rect x="57" y="13" width="1" height="1" fill="#f8f8f8"/>
  <rect x="58" y="13" width="4" height="1" fill="#f9f9f9"/>
  <rect x="62" y="13" width="2" height="1" fill="#fafafa"/>
  <rect x="64" y="13" width="4" height="1" fill="#f9f9f9"/>
  <rect x="4" y="14" width="10" height="2" fill="#fdfdfd"/>
  <rect x="14" y="14" width="2" height="2" fill="#fefefe"/>
  <rect x="16" y="14" width="6" height="2" fill="#fdfdfd"/>
  <rect x="22" y="14" width="2" height="2" fill="#fefefe"/>
  <rect x="48" y="14" width="1" height="2" fill="#c4c4c4"/>
  <rect x="49" y="14" width="1" height="2" fill="#ffffff"/>
  <rect x="50" y="14" width="1" height="2" fill="#fcfbfc"/>
  <rect x="51" y="14" width="1" height="2" fill="#fafafa"/>
  <rect x="52" y="14" width="3" height="2" fill="#fcfbfc"/>
  <rect x="55" y="14" width="2" height="2" fill="#fafafa"/>
  <rect x="57" y="14" width="1" height="2" fill="#f9f9f9"/>
  <rect x="58" y="14" width="4" height="2" fill="#fafafa"/>
  <rect x="62" y="14" width="2" height="2" fill="#fcfbfc"/>
  <rect x="64" y="14" width="4" height="2" fill="#fafafa"/>
  <rect x="68" y="14" width="2" height="2" fill="#f9f9f9"/>
  <rect x="70" y="14" width="2" height="2" fill="#f9faf7"/>
  <rect x="72" y="14" width="1" height="4" fill="#d9d9d7"/>
  <rect x="73" y="14" width="1" height="4" fill="#fffffe"/>
  <rect x="74" y="14" width="1" height="2" fill="#fcfcf7"/>
  <rect x="75" y="14" width="1" height="2" fill="#fdfdf9"/>
  <rect x="76" y="14" width="3" height="2" fill="#fefffa"/>
  <rect x="80" y="15" width="1" height="1" fill="#fdfdfb"/>
  <rect x="81" y="15" width="15" height="1" fill="#fdfdfd"/>
  <rect x="4" y="16" width="3" height="4" fill="#fdfdfd"/>
  <rect x="7" y="16" width="1" height="2" fill="#fcfbfc"/>
  <rect x="8" y="16" width="1" height="2" fill="#fdfdfd"/>
  <rect x="9" y="16" width="1" height="2" fill="#fcfbfc"/>
  <rect x="10" y="16" width="4" height="2" fill="#fdfdfd"/>
  <rect x="14" y="16" width="2" height="2" fill="#fcfbfc"/>
  <rect x="16" y="16" width="8" height="2" fill="#fdfdfb"/>
  <rect x="24" y="16" width="1" height="4" fill="#c0c1be"/>
  <rect x="25" y="16" width="1" height="4" fill="#fcfcf9"/>
  <rect x="26" y="16" width="2" height="4" fill="#f6f6f4"/>
  <rect x="28" y="16" width="4" height="4" fill="#f7f7f5"/>
  <rect x="32" y="16" width="16" height="4" fill="#f6f6f4"/>
  <rect x="48" y="16" width="1" height="2" fill="#c4c4c2"/>
  <rect x="49" y="16" width="1" height="2" fill="#fffffe"/>
  <rect x="50" y="16" width="1" height="2" fill="#fcfcf9"/>
  <rect x="51" y="16" width="1" height="2" fill="#fafbf8"/>
  <rect x="52" y="16" width="4" height="2" fill="#fcfcf9"/>
  <rect x="56" y="16" width="4" height="4" fill="#fafbf8"/>
  <rect x="60" y="16" width="8" height="4" fill="#fcfcf9"/>
  <rect x="68" y="16" width="4" height="4" fill="#fafbf8"/>
  <rect x="74" y="16" width="1" height="2" fill="#fcfcf9"/>
  <rect x="75" y="16" width="5" height="2" fill="#fdfdfb"/>
  <rect x="80" y="16" width="16" height="4" fill="#fcfcf9"/>
  <rect x="7" y="18" width="2" height="2" fill="#fcfbfc"/>
  <rect x="9" y="18" width="1" height="2" fill="#fafafa"/>
  <rect x="10" y="18" width="6" height="2" fill="#fcfbfc"/>
  <rect x="16" y="18" width="6" height="2" fill="#fcfcf9"/>
  <rect x="22" y="18" width="2" height="2" fill="#fdfdfb"/>
  <rect x="48" y="18" width="1" height="2" fill="#c5c5c3"/>
  <rect x="49" y="18" width="1" height="2" fill="#ffffff"/>
  <rect x="50" y="18" width="1" height="2" fill="#fdfdfb"/>
  <rect x="51" y="18" width="5" height="2" fill="#fcfcf9"/>
  <rect x="72" y="18" width="1" height="2" fill="#d7d8d5"/>
  <rect x="73" y="18" width="1" height="2" fill="#fffffd"/>
  <rect x="74" y="18" width="1" height="2" fill="#fafbf8"/>
  <rect x="75" y="18" width="1" height="2" fill="#fcfcf9"/>
  <rect x="76" y="18" width="4" height="2" fill="#fdfdfb"/>
  <rect x="0" y="20" width="1" height="1" fill="#d0d0d0f1"/>
  <rect x="1" y="20" width="1" height="1" fill="#fefefe"/>
  <rect x="2" y="20" width="1" height="1" fill="#ffffff"/>
  <rect x="3" y="20" width="1" height="1" fill="#f9f9f9"/>
  <rect x="4" y="20" width="3" height="1" fill="#fafafa"/>
  <rect x="7" y="20" width="2" height="1" fill="#f9f9f9"/>
  <rect x="9" y="20" width="1" height="1" fill="#f8f8f8"/>
  <rect x="10" y="20" width="6" height="1" fill="#f9f9f9"/>
  <rect x="16" y="20" width="6" height="1" fill="#f9faf7"/>
  <rect x="22" y="20" width="2" height="1" fill="#fafbf8"/>
  <rect x="24" y="20" width="1" height="1" fill="#b8b8b6f1"/>
  <rect x="25" y="20" width="1" height="1" fill="#fafbf8"/>
  <rect x="26" y="20" width="1" height="1" fill="#f3f4f1"/>
  <rect x="27" y="20" width="1" height="1" fill="#f5f5f2"/>
  <rect x="28" y="20" width="20" height="1" fill="#f6f6f4"/>
  <rect x="48" y="20" width="1" height="1" fill="#d0d1cef1"/>
  <rect x="49" y="20" width="1" height="1" fill="#fdfdfb"/>
  <rect x="50" y="20" width="2" height="1" fill="#ffffff"/>
  <rect x="52" y="20" width="4" height="1" fill="#fdfdfb"/>
  <rect x="56" y="20" width="4" height="1" fill="#fcfcf9"/>
  <rect x="60" y="20" width="8" height="1" fill="#fdfdfb"/>
  <rect x="68" y="20" width="4" height="1" fill="#fcfcf9"/>
  <rect x="72" y="20" width="1" height="1" fill="#d4d4d2f1"/>
  <rect x="73" y="20" width="2" height="1" fill="#fefefc"/>
  <rect x="75" y="20" width="1" height="1" fill="#fdfdfb"/>
  <rect x="76" y="20" width="20" height="1" fill="#fafbf8"/>
  <rect x="0" y="21" width="1" height="1" fill="#cfcfcfad"/>
  <rect x="1" y="21" width="1" height="1" fill="#ebebeb"/>
  <rect x="2" y="21" width="1" height="1" fill="#f7f7f7"/>
  <rect x="3" y="21" width="1" height="2" fill="#fcfbfc"/>
  <rect x="4" y="21" width="3" height="2" fill="#fdfdfd"/>
  <rect x="7" y="21" width="2" height="1" fill="#fcfbfc"/>
  <rect x="9" y="21" width="1" height="1" fill="#fafafa"/>
  <rect x="10" y="21" width="6" height="1" fill="#fcfbfc"/>
  <rect x="16" y="21" width="6" height="1" fill="#fcfcf9"/>
  <rect x="22" y="21" width="2" height="2" fill="#fdfdfb"/>
  <rect x="24" y="21" width="1" height="1" fill="#b0b0aead"/>
  <rect x="25" y="21" width="1" height="1" fill="#e0e0de"/>
  <rect x="26" y="21" width="1" height="1" fill="#fefefc"/>
  <rect x="27" y="21" width="1" height="1" fill="#f3f4f1"/>
  <rect x="28" y="21" width="20" height="1" fill="#f5f5f2"/>
  <rect x="48" y="21" width="1" height="1" fill="#cccccaad"/>
  <rect x="49" y="21" width="1" height="1" fill="#e8e8e6"/>
  <rect x="50" y="21" width="1" height="1" fill="#f7f7f5"/>
  <rect x="51" y="21" width="21" height="1" fill="#ffffff"/>
  <rect x="72" y="21" width="1" height="1" fill="#d3d3d1ad"/>
  <rect x="73" y="21" width="1" height="1" fill="#ebece9"/>
  <rect x="74" y="21" width="1" height="1" fill="#f7f7f5"/>
  <rect x="75" y="21" width="1" height="2" fill="#fefefc"/>
  <rect x="76" y="21" width="20" height="2" fill="#fcfcf9"/>
  <rect x="0" y="22" width="1" height="1" fill="#cfcfcf28"/>
  <rect x="1" y="22" width="1" height="1" fill="#d3d3d3ef"/>
  <rect x="2" y="22" width="1" height="1" fill="#ececec"/>
  <rect x="7" y="22" width="1" height="1" fill="#fcfbfc"/>
  <rect x="8" y="22" width="1" height="1" fill="#fcfcf9"/>
  <rect x="9" y="22" width="1" height="1" fill="#fafbf8"/>
  <rect x="10" y="22" width="12" height="1" fill="#fcfcf9"/>
  <rect x="24" y="22" width="1" height="1" fill="#c2c3c028"/>
  <rect x="25" y="22" width="1" height="1" fill="#b8b8b6ef"/>
  <rect x="26" y="22" width="1" height="1" fill="#e0e0de"/>
  <rect x="27" y="22" width="1" height="1" fill="#fafbf8"/>
  <rect x="28" y="22" width="20" height="1" fill="#fcfcf9"/>
  <rect x="48" y="22" width="1" height="1" fill="#c8c9c627"/>
  <rect x="49" y="22" width="1" height="1" fill="#cbcbc9ef"/>
  <rect x="50" y="22" width="1" height="1" fill="#e8e8e6"/>
  <rect x="51" y="22" width="1" height="1" fill="#fdfdfb"/>
  <rect x="52" y="22" width="4" height="1" fill="#fefefc"/>
  <rect x="56" y="22" width="4" height="1" fill="#fdfdfb"/>
  <rect x="60" y="22" width="8" height="1" fill="#fefefc"/>
  <rect x="68" y="22" width="4" height="1" fill="#fdfdfb"/>
  <rect x="72" y="22" width="1" height="1" fill="#d3d3d128"/>
  <rect x="73" y="22" width="1" height="1" fill="#d3d3d1ef"/>
  <rect x="74" y="22" width="1" height="1" fill="#ebece9"/>
  <rect x="1" y="23" width="1" height="1" fill="#d3d3d327"/>
  <rect x="2" y="23" width="1" height="1" fill="#d4d4d4ad"/>
  <rect x="3" y="23" width="1" height="1" fill="#d2d2d2f2"/>
  <rect x="4" y="23" width="3" height="1" fill="#d3d3d3"/>
  <rect x="7" y="23" width="1" height="1" fill="#d2d2d2"/>
  <rect x="8" y="23" width="1" height="1" fill="#d2d2d0"/>
  <rect x="9" y="23" width="1" height="1" fill="#d0d1ce"/>
  <rect x="10" y="23" width="12" height="1" fill="#d2d2d0"/>
  <rect x="22" y="23" width="2" height="1" fill="#d3d3d1"/>
  <rect x="25" y="23" width="1" height="1" fill="#c1c2bf27"/>
  <rect x="26" y="23" width="1" height="1" fill="#afafadad"/>
  <rect x="27" y="23" width="1" height="1" fill="#b8b8b6f2"/>
  <rect x="28" y="23" width="20" height="1" fill="#b9bab7"/>
  <rect x="49" y="23" width="1" height="1" fill="#c8c9c625"/>
  <rect x="50" y="23" width="1" height="1" fill="#cccccaad"/>
  <rect x="51" y="23" width="1" height="1" fill="#d0d1cef1"/>
  <rect x="52" y="23" width="4" height="1" fill="#c9cac7"/>
  <rect x="56" y="23" width="4" height="1" fill="#c8c9c6"/>
  <rect x="60" y="23" width="8" height="1" fill="#c9cac7"/>
  <rect x="68" y="23" width="4" height="1" fill="#c8c9c6"/>
  <rect x="73" y="23" width="1" height="1" fill="#d3d3d127"/>
  <rect x="74" y="23" width="1" height="1" fill="#d3d3d1ad"/>
  <rect x="75" y="23" width="1" height="1" fill="#d4d4d2f2"/>
  <rect x="76" y="23" width="20" height="1" fill="#d2d2d0"/>
</svg>