<svg xmlns="http://www.w3.org/2000/svg" width="7" height="7" viewBox="0 0 7 7" shape-rendering="crispEdges">
  <rect x="1" y="0" width="1" height="1" fill="#d2654860"/>
  <rect x="2" y="0" width="1" height="1" fill="#b8684eb8"/>
  <rect x="3" y="0" width="1" height="1" fill="#b86656f5"/>
  <rect x="4" y="0" width="1" height="1" fill="#cc5f5bb8"/>
  <rect x="5" y="0" width="1" height="1" fill="#d95c5b60"/>
  <rect x="0" y="1" width="1" height="1" fill="#d1533760"/>
  <rect x="1" y="1" width="1" height="1" fill="#d15f43f8"/>
  <rect x="2" y="1" width="1" height="1" fill="#ffb9a1"/>
  <rect x="3" y="1" width="1" height="1" fill="#ffe0cd"/>
  <rect x="4" y="1" width="1" height="1" fill="#ffb8ae"/>
  <rect x="5" y="1" width="1" height="1" fill="#d65a51f8"/>
  <rect x="6" y="1" width="1" height="1" fill="#cf4d4060"/>
  <rect x="0" y="2" width="1" height="1" fill="#d55139b8"/>
  <rect x="1" y="2" width="1" height="1" fill="#f67860"/>
  <rect x="2" y="2" width="1" height="1" fill="#fb8871"/>
  <rect x="3" y="2" width="1" height="1" fill="#fc8e78"/>
  <rect x="4" y="2" width="1" height="1" fill="#ff8974"/>
  <rect x="5" y="2" width="1" height="1" fill="#f37962"/>
  <rect x="6" y="2" width="1" height="1" fill="#da5a41b8"/>
  <rect x="0" y="3" width="1" height="1" fill="#d64f38f5"/>
  <rect x="1" y="3" width="1" height="1" fill="#ff7f66"/>
  <rect x="2" y="3" width="1" height="1" fill="#f97e63"/>
  <rect x="3" y="3" width="1" height="1" fill="#ee775b"/>
  <rect x="4" y="3" width="1" height="1" fill="#e87155"/>
  <rect x="5" y="3" width="1" height="1" fill="#ea7254"/>
  <rect x="6" y="3" width="1" height="1" fill="#d05035f5"/>
  <rect x="0" y="4" width="1" height="1" fill="#ce472eb8"/>
  <rect x="1" y="4" width="1" height="1" fill="#e56349"/>
  <rect x="2" y="4" width="1" height="1" fill="#f17a59"/>
  <rect x="3" y="4" width="1" height="1" fill="#e16e4c"/>
  <rect x="4" y="4" width="1" height="1" fill="#e57250"/>
  <rect x="5" y="4" width="1" height="1" fill="#d1593b"/>
  <rect x="6" y="4" width="1" height="1" fill="#c9432eb8"/>
  <rect x="0" y="5" width="1" height="1" fill="#c53c2360"/>
  <rect x="1" y="5" width="1" height="1" fill="#ca4629f8"/>
  <rect x="2" y="5" width="1" height="1" fill="#e06440"/>
  <rect x="3" y="5" width="1" height="1" fill="#e46a48"/>
  <rect x="4" y="5" width="1" height="1" fill="#d65b3e"/>
  <rect x="5" y="5" width="1" height="1" fill="#c04933f8"/>
  <rect x="6" y="5" width="1" height="1" fill="#b6443660"/>
  <rect x="1" y="6" width="1" height="1" fill="#c83d2060"/>
  <rect x="2" y="6" width="1" height="1" fill="#ca3f21b8"/>
  <rect x="3" y="6" width="1" height="1" fill="#c63d22f5"/>
  <rect x="4" y="6" width="1" height="1" fill="#c83d2fb8"/>
  <rect x="5" y="6" width="1" height="1" fill="#b6433a60"/>
</svg>