<svg xmlns="http://www.w3.org/2000/svg" width="24" height="23" viewBox="0 0 24 23" shape-rendering="crispEdges">
  <rect x="3" y="0" width="1" height="1" fill="#0000000d"/>
  <rect x="4" y="0" width="1" height="1" fill="#00000014"/>
  <rect x="5" y="0" width="1" height="1" fill="#0000001c"/>
  <rect x="6" y="0" width="1" height="1" fill="#01010122"/>
  <rect x="7" y="0" width="1" height="1" fill="#01010128"/>
  <rect x="8" y="0" width="1" height="1" fill="#0202022c"/>
  <rect x="9" y="0" width="1" height="1" fill="#0202022e"/>
  <rect x="10" y="0" width="4" height="1" fill="#03030330"/>
  <rect x="14" y="0" width="1" height="1" fill="#0303032e"/>
  <rect x="15" y="0" width="1" height="1" fill="#0202022c"/>
  <rect x="16" y="0" width="1" height="1" fill="#00000028"/>
  <rect x="17" y="0" width="1" height="1" fill="#00000022"/>
  <rect x="18" y="0" width="1" height="1" fill="#0202021c"/>
  <rect x="19" y="0" width="1" height="1" fill="#03030314"/>
  <rect x="20" y="0" width="1" height="1" fill="#0101010d"/>
  <rect x="1" y="1" width="1" height="1" fill="#0606060c"/>
  <rect x="2" y="1" width="1" height="1" fill="#07070718"/>
  <rect x="3" y="1" width="1" height="1" fill="#e4e4e49a"/>
  <rect x="4" y="1" width="1" height="1" fill="#f8f8f8d1"/>
  <rect x="5" y="1" width="1" height="1" fill="#f8f8f8"/>
  <rect x="6" y="1" width="2" height="1" fill="#f9f9f9"/>
  <rect x="8" y="1" width="2" height="1" fill="#fafafa"/>
  <rect x="10" y="1" width="6" height="1" fill="#fcfbfc"/>
  <rect x="16" y="1" width="1" height="1" fill="#fefefe"/>
  <rect x="17" y="1" width="1" height="1" fill="#fafafa"/>
  <rect x="18" y="1" width="1" height="1" fill="#f7f7f7"/>
  <rect x="19" y="1" width="1" height="1" fill="#f5f5f5d1"/>
  <rect x="20" y="1" width="1" height="1" fill="#dcdcdc9a"/>
  <rect x="21" y="1" width="1" height="1" fill="#06060618"/>
  <rect x="22" y="1" width="1" height="1" fill="#0303030c"/>
  <rect x="1" y="2" width="1" height="1" fill="#07070718"/>
  <rect x="2" y="2" width="1" height="1" fill="#eaeaeacd"/>
  <rect x="3" y="2" width="1" height="1" fill="#f9f9f9"/>
  <rect x="4" y="2" width="2" height="1" fill="#fdfdfd"/>
  <rect x="6" y="2" width="2" height="1" fill="#fefefe"/>
  <rect x="8" y="2" width="8" height="1" fill="#ffffff"/>
  <rect x="16" y="2" width="1" height="1" fill="#f9f9f9"/>
  <rect x="17" y="2" width="1" height="1" fill="#fcfbfc"/>
  <rect x="18" y="2" width="3" height="1" fill="#ffffff"/>
  <rect x="21" y="2" width="1" height="1" fill="#f3f3f3cd"/>
  <rect x="22" y="2" width="1" height="1" fill="#00000018"/>
  <rect x="0" y="3" width="1" height="1" fill="#0000000d"/>
  <rect x="1" y="3" width="1" height="1" fill="#e4e4e49a"/>
  <rect x="2" y="3" width="1" height="1" fill="#f9f9f9"/>
  <rect x="3" y="3" width="3" height="3" fill="#fefefe"/>
  <rect x="6" y="3" width="12" height="1" fill="#ffffff"/>
  <rect x="18" y="3" width="1" height="1" fill="#fefefe"/>
  <rect x="19" y="3" width="1" height="1" fill="#fdfdfd"/>
  <rect x="20" y="3" width="2" height="1" fill="#ffffff"/>
  <rect x="22" y="3" width="1" height="1" fill="#dddddd9a"/>
  <rect x="23" y="3" width="1" height="1" fill="#0505050d"/>
  <rect x="0" y="4" width="1" height="1" fill="#00000014"/>
  <rect x="1" y="4" width="1" height="1" fill="#f8f8f8d1"/>
  <rect x="2" y="4" width="1" height="2" fill="#fdfdfd"/>
  <rect x="6" y="4" width="16" height="2" fill="#ffffff"/>
  <rect x="22" y="4" width="1" height="1" fill="#f6f6f6d1"/>
  <rect x="23" y="4" width="1" height="1" fill="#02020214"/>
  <rect x="0" y="5" width="1" height="1" fill="#0000001c"/>
  <rect x="1" y="5" width="1" height="1" fill="#f8f8f8"/>
  <rect x="22" y="5" width="1" height="1" fill="#f8f8f8"/>
  <rect x="23" y="5" width="1" height="1" fill="#0101011c"/>
  <rect x="0" y="6" width="1" height="1" fill="#01010122"/>
  <rect x="1" y="6" width="1" height="2" fill="#f9f9f9"/>
  <rect x="2" y="6" width="1" height="2" fill="#fefefe"/>
  <rect x="3" y="6" width="18" height="2" fill="#ffffff"/>
  <rect x="21" y="6" width="2" height="1" fill="#fdfdfd"/>
  <rect x="23" y="6" width="1" height="1" fill="#00000022"/>
  <rect x="0" y="7" width="1" height="1" fill="#01010128"/>
  <rect x="21" y="7" width="1" height="1" fill="#fafafa"/>
  <rect x="22" y="7" width="1" height="1" fill="#ffffff"/>
  <rect x="23" y="7" width="1" height="1" fill="#00000028"/>
  <rect x="0" y="8" width="1" height="1" fill="#0202022c"/>
  <rect x="1" y="8" width="1" height="2" fill="#fafafa"/>
  <rect x="2" y="8" width="20" height="8" fill="#ffffff"/>
  <rect x="22" y="8" width="1" height="8" fill="#fefefe"/>
  <rect x="23" y="8" width="1" height="1" fill="#0000002c"/>
  <rect x="0" y="9" width="1" height="1" fill="#0202022e"/>
  <rect x="23" y="9" width="1" height="1" fill="#0000002e"/>
  <rect x="0" y="10" width="1" height="3" fill="#03030330"/>
  <rect x="1" y="10" width="1" height="6" fill="#fcfbfc"/>
  <rect x="23" y="10" width="1" height="3" fill="#00000030"/>
  <rect x="0" y="13" width="1" height="1" fill="#0303032e"/>
  <rect x="23" y="13" width="1" height="1" fill="#0000002e"/>
  <rect x="0" y="14" width="1" height="1" fill="#0303032c"/>
  <rect x="23" y="14" width="1" height="1" fill="#0000002c"/>
  <rect x="0" y="15" width="1" height="1" fill="#03030328"/>
  <rect x="23" y="15" width="1" height="1" fill="#00000028"/>
  <rect x="0" y="16" width="1" height="1" fill="#05050522"/>
  <rect x="1" y="16" width="2" height="1" fill="#ffffff"/>
  <rect x="3" y="16" width="1" height="1" fill="#fcfbfc"/>
  <rect x="4" y="16" width="17" height="2" fill="#ffffff"/>
  <rect x="21" y="16" width="1" height="1" fill="#fafafa"/>
  <rect x="22" y="16" width="1" height="1" fill="#ffffff"/>
  <rect x="23" y="16" width="1" height="1" fill="#00000022"/>
  <rect x="0" y="17" width="1" height="1" fill="#0303031c"/>
  <rect x="1" y="17" width="1" height="1" fill="#fcfbfc"/>
  <rect x="2" y="17" width="1" height="1" fill="#ffffff"/>
  <rect x="3" y="17" width="1" height="1" fill="#fdfdfd"/>
  <rect x="21" y="17" width="2" height="1" fill="#fdfdfd"/>
  <rect x="23" y="17" width="1" height="1" fill="#0000001c"/>
  <rect x="0" y="18" width="1" height="1" fill="#01010114"/>
  <rect x="1" y="18" width="1" height="1" fill="#f0f0f0d1"/>
  <rect x="2" y="18" width="20" height="2" fill="#ffffff"/>
  <rect x="22" y="18" width="1" height="1" fill="#efefefd1"/>
  <rect x="23" y="18" width="1" height="1" fill="#00000014"/>
  <rect x="0" y="19" width="1" height="1" fill="#0000000d"/>
  <rect x="1" y="19" width="1" height="1" fill="#e9e9e99a"/>
  <rect x="22" y="19" width="1" height="1" fill="#e4e4e49a"/>
  <rect x="23" y="19" width="1" height="1" fill="#0000000d"/>
  <rect x="1" y="20" width="1" height="1" fill="#05050518"/>
  <rect x="2" y="20" width="1" height="1" fill="#eeeeeecd"/>
  <rect x="3" y="20" width="1" height="1" fill="#fefefe"/>
  <rect x="4" y="20" width="2" height="1" fill="#ffffff"/>
  <rect x="6" y="20" width="1" height="1" fill="#fefefe"/>
  <rect x="7" y="20" width="1" height="2" fill="#fdfdfd"/>
  <rect x="8" y="20" width="8" height="1" fill="#ffffff"/>
  <rect x="16" y="20" width="1" height="1" fill="#fafafa"/>
  <rect x="17" y="20" width="1" height="1" fill="#fcfbfc"/>
  <rect x="18" y="20" width="1" height="1" fill="#fefefe"/>
  <rect x="19" y="20" width="2" height="1" fill="#ffffff"/>
  <rect x="21" y="20" width="1" height="1" fill="#f1f1f1cd"/>
  <rect x="22" y="20" width="1" height="1" fill="#03030318"/>
  <rect x="1" y="21" width="1" height="1" fill="#0101010c"/>
  <rect x="2" y="21" width="1" height="1" fill="#03030318"/>
  <rect x="3" y="21" width="1" height="1" fill="#dddddd9a"/>
  <rect x="4" y="21" width="1" height="1" fill="#f5f5f5d1"/>
  <rect x="5" y="21" width="1" height="1" fill="#f7f7f7"/>
  <rect x="6" y="21" width="1" height="1" fill="#fafafa"/>
  <rect x="8" y="21" width="10" height="1" fill="#ffffff"/>
  <rect x="18" y="21" width="1" height="1" fill="#fcfbfc"/>
  <rect x="19" y="21" width="1" height="1" fill="#f9f9f9d1"/>
  <rect x="20" y="21" width="1" height="1" fill="#dddddd9a"/>
  <rect x="21" y="21" width="1" height="1" fill="#01010118"/>
  <rect x="22" y="21" width="1" height="1" fill="#0000000c"/>
  <rect x="3" y="22" width="1" height="1" fill="#0000000d"/>
  <rect x="4" y="22" width="1" height="1" fill="#03030314"/>
  <rect x="5" y="22" width="1" height="1" fill="#0000001c"/>
  <rect x="6" y="22" width="1" height="1" fill="#00000022"/>
  <rect x="7" y="22" width="1" height="1" fill="#00000028"/>
  <rect x="8" y="22" width="1" height="1" fill="#0000002c"/>
  <rect x="9" y="22" width="1" height="1" fill="#0000002e"/>
  <rect x="10" y="22" width="4" height="1" fill="#00000030"/>
  <rect x="14" y="22" width="1" height="1" fill="#0000002e"/>
  <rect x="15" y="22" width="1" height="1" fill="#0000002c"/>
  <rect x="16" y="22" width="1" height="1" fill="#00000028"/>
  <rect x="17" y="22" width="1" height="1" fill="#00000022"/>
  <rect x="18" y="22" width="1" height="1" fill="#0303031c"/>
  <rect x="19" y="22" width="1" height="1" fill="#06060614"/>
  <rect x="20" y="22" width="1" height="1" fill="#0303030d"/>
</svg>