<svg xmlns="http://www.w3.org/2000/svg" width="400" height="21" viewBox="0 0 400 21" shape-rendering="crispEdges">
  <rect x="0" y="0" width="2" height="1" fill="#c8c8c8"/>
  <rect x="2" y="0" width="1" height="1" fill="#cccccc"/>
  <rect x="3" y="0" width="1" height="1" fill="#cecece"/>
  <rect x="4" y="0" width="1" height="1" fill="#cdcdcd"/>
  <rect x="5" y="0" width="9" height="1" fill="#cbcbcb"/>
  <rect x="14" y="0" width="4" height="1" fill="#cccccc"/>
  <rect x="18" y="0" width="78" height="1" fill="#cdcdcd"/>
  <rect x="96" y="0" width="1" height="1" fill="#d3d3d3"/>
  <rect x="97" y="0" width="1" height="1" fill="#c6c6c6"/>
  <rect x="98" y="0" width="1" height="1" fill="#cecece"/>
  <rect x="99" y="0" width="1" height="1" fill="#c7c7c7"/>
  <rect x="100" y="0" width="1" height="1" fill="#9a9a9a"/>
  <rect x="101" y="0" width="1" height="1" fill="#a2a2a2"/>
  <rect x="102" y="0" width="1" height="1" fill="#979797"/>
  <rect x="103" y="0" width="1" height="1" fill="#999999"/>
  <rect x="104" y="0" width="75" height="1" fill="#969696"/>
  <rect x="179" y="0" width="1" height="1" fill="#999999"/>
  <rect x="180" y="0" width="1" height="1" fill="#9a9a9a"/>
  <rect x="181" y="0" width="1" height="1" fill="#999999"/>
  <rect x="182" y="0" width="2" height="1" fill="#949494"/>
  <rect x="184" y="0" width="1" height="1" fill="#979797"/>
  <rect x="185" y="0" width="10" height="1" fill="#9b9b9b"/>
  <rect x="195" y="0" width="1" height="1" fill="#999999"/>
  <rect x="196" y="0" width="2" height="1" fill="#969696"/>
  <rect x="198" y="0" width="1" height="1" fill="#949494"/>
  <rect x="199" y="0" width="1" height="1" fill="#999999"/>
  <rect x="200" y="0" width="1" height="1" fill="#969696"/>
  <rect x="201" y="0" width="1" height="1" fill="#9e9e9e"/>
  <rect x="202" y="0" width="1" height="1" fill="#949494"/>
  <rect x="203" y="0" width="1" height="1" fill="#959595"/>
  <rect x="204" y="0" width="4" height="1" fill="#979797"/>
  <rect x="208" y="0" width="72" height="1" fill="#999999"/>
  <rect x="280" y="0" width="1" height="1" fill="#9a9a9a"/>
  <rect x="281" y="0" width="1" height="1" fill="#999999"/>
  <rect x="282" y="0" width="1" height="1" fill="#9b9b9b"/>
  <rect x="283" y="0" width="1" height="1" fill="#9c9c9c"/>
  <rect x="284" y="0" width="1" height="1" fill="#9b9b9b"/>
  <rect x="285" y="0" width="10" height="1" fill="#999999"/>
  <rect x="295" y="0" width="1" height="1" fill="#979797"/>
  <rect x="296" y="0" width="1" height="1" fill="#999999"/>
  <rect x="297" y="0" width="1" height="1" fill="#9d9d9d"/>
  <rect x="298" y="0" width="1" height="1" fill="#9a9a9a"/>
  <rect x="299" y="0" width="1" height="1" fill="#9c9c9c"/>
  <rect x="300" y="0" width="1" height="1" fill="#cecece"/>
  <rect x="301" y="0" width="1" height="1" fill="#d3d3d3"/>
  <rect x="302" y="0" width="1" height="1" fill="#c6c6c6"/>
  <rect x="303" y="0" width="1" height="1" fill="#cfcfcf"/>
  <rect x="304" y="0" width="16" height="1" fill="#cdcdcd"/>
  <rect x="320" y="0" width="76" height="1" fill="#cecece"/>
  <rect x="396" y="0" width="1" height="1" fill="#cfcfcf"/>
  <rect x="397" y="0" width="1" height="1" fill="#c6c6c6"/>
  <rect x="398" y="0" width="1" height="1" fill="#cccccc"/>
  <rect x="399" y="0" width="1" height="1" fill="#c6c6c6"/>
  <rect x="0" y="1" width="1" height="1" fill="#d3d3d3"/>
  <rect x="1" y="1" width="1" height="1" fill="#dddddd"/>
  <rect x="2" y="1" width="1" height="1" fill="#e4e4e4"/>
  <rect x="3" y="1" width="1" height="1" fill="#e5e5e5"/>
  <rect x="4" y="1" width="9" height="1" fill="#e3e3e3"/>
  <rect x="13" y="1" width="2" height="1" fill="#e4e4e4"/>
  <rect x="15" y="1" width="2" height="1" fill="#e5e5e5"/>
  <rect x="17" y="1" width="2" height="1" fill="#e7e7e7"/>
  <rect x="19" y="1" width="77" height="1" fill="#e8e8e8"/>
  <rect x="96" y="1" width="1" height="1" fill="#ebebeb"/>
  <rect x="97" y="1" width="1" height="1" fill="#e3e3e3"/>
  <rect x="98" y="1" width="1" height="1" fill="#e8e8e8"/>
  <rect x="99" y="1" width="1" height="1" fill="#d6d6d6"/>
  <rect x="100" y="1" width="1" height="1" fill="#9e9e9e"/>
  <rect x="101" y="1" width="1" height="1" fill="#e2e2e2"/>
  <rect x="102" y="1" width="1" height="1" fill="#ececec"/>
  <rect x="103" y="1" width="1" height="1" fill="#e9e9e9"/>
  <rect x="104" y="1" width="75" height="1" fill="#e8e8e8"/>
  <rect x="179" y="1" width="1" height="1" fill="#e5e5e5"/>
  <rect x="180" y="1" width="1" height="1" fill="#e4e4e4"/>
  <rect x="181" y="1" width="1" height="1" fill="#e5e5e5"/>
  <rect x="182" y="1" width="1" height="1" fill="#eaeaea"/>
  <rect x="183" y="1" width="1" height="1" fill="#eeeeee"/>
  <rect x="184" y="1" width="12" height="1" fill="#fdfdfd"/>
  <rect x="196" y="1" width="1" height="1" fill="#fcfbfc"/>
  <rect x="197" y="1" width="1" height="1" fill="#fefefe"/>
  <rect x="198" y="1" width="1" height="1" fill="#f7f7f7"/>
  <rect x="199" y="1" width="1" height="1" fill="#9b9b9b"/>
  <rect x="200" y="1" width="1" height="1" fill="#a1a1a1"/>
  <rect x="201" y="1" width="1" height="1" fill="#e4e4e4"/>
  <rect x="202" y="1" width="1" height="1" fill="#efefef"/>
  <rect x="203" y="1" width="1" height="1" fill="#ebebeb"/>
  <rect x="204" y="1" width="4" height="1" fill="#e5e5e5"/>
  <rect x="208" y="1" width="71" height="1" fill="#e7e7e7"/>
  <rect x="279" y="1" width="1" height="1" fill="#e5e5e5"/>
  <rect x="280" y="1" width="1" height="1" fill="#e7e7e7"/>
  <rect x="281" y="1" width="1" height="1" fill="#e9e9e9"/>
  <rect x="282" y="1" width="1" height="1" fill="#e7e7e7"/>
  <rect x="283" y="1" width="1" height="1" fill="#e1e1e1"/>
  <rect x="284" y="1" width="12" height="1" fill="#dedede"/>
  <rect x="296" y="1" width="1" height="1" fill="#e0e0e0"/>
  <rect x="297" y="1" width="1" height="1" fill="#e4e4e4"/>
  <rect x="298" y="1" width="1" height="1" fill="#e8e8e8"/>
  <rect x="299" y="1" width="1" height="1" fill="#969696"/>
  <rect x="300" y="1" width="1" height="1" fill="#cdcdcd"/>
  <rect x="301" y="1" width="2" height="1" fill="#f5f5f5"/>
  <rect x="303" y="1" width="1" height="1" fill="#efefef"/>
  <rect x="304" y="1" width="16" height="1" fill="#f2f2f2"/>
  <rect x="320" y="1" width="76" height="1" fill="#f3f3f3"/>
  <rect x="396" y="1" width="1" height="1" fill="#f5f5f5"/>
  <rect x="397" y="1" width="1" height="1" fill="#f7f7f7"/>
  <rect x="398" y="1" width="1" height="1" fill="#f3f3f3"/>
  <rect x="399" y="1" width="1" height="1" fill="#d4d4d4"/>
  <rect x="0" y="2" width="1" height="1" fill="#d7d7d7"/>
  <rect x="1" y="2" width="1" height="1" fill="#eeeeee"/>
  <rect x="2" y="2" width="1" height="1" fill="#fafafa"/>
  <rect x="3" y="2" width="1" height="1" fill="#f5f5f5"/>
  <rect x="4" y="2" width="10" height="1" fill="#f7f7f7"/>
  <rect x="14" y="2" width="2" height="1" fill="#f6f6f6"/>
  <rect x="16" y="2" width="2" height="1" fill="#f5f5f5"/>
  <rect x="18" y="2" width="78" height="1" fill="#f3f3f3"/>
  <rect x="96" y="2" width="1" height="1" fill="#f5f5f5"/>
  <rect x="97" y="2" width="1" height="1" fill="#f1f1f1"/>
  <rect x="98" y="2" width="1" height="1" fill="#f0f0f0"/>
  <rect x="99" y="2" width="1" height="1" fill="#d2d2d2"/>
  <rect x="100" y="2" width="1" height="1" fill="#969696"/>
  <rect x="101" y="2" width="1" height="1" fill="#f8f8f8"/>
  <rect x="102" y="2" width="1" height="1" fill="#f9f9f9"/>
  <rect x="103" y="2" width="1" height="1" fill="#eeeeee"/>
  <rect x="104" y="2" width="75" height="1" fill="#f8f8f8"/>
  <rect x="179" y="2" width="1" height="1" fill="#f6f6f6"/>
  <rect x="180" y="2" width="1" height="1" fill="#f5f5f5"/>
  <rect x="181" y="2" width="1" height="1" fill="#f6f6f6"/>
  <rect x="182" y="2" width="1" height="2" fill="#fafafa"/>
  <rect x="183" y="2" width="1" height="1" fill="#fdfdfd"/>
  <rect x="184" y="2" width="1" height="1" fill="#fefefe"/>
  <rect x="185" y="2" width="11" height="1" fill="#fdfdfd"/>
  <rect x="196" y="2" width="1" height="1" fill="#ffffff"/>
  <rect x="197" y="2" width="1" height="1" fill="#fafafa"/>
  <rect x="198" y="2" width="1" height="1" fill="#ffffff"/>
  <rect x="199" y="2" width="1" height="1" fill="#a3a3a3"/>
  <rect x="200" y="2" width="1" height="1" fill="#9a9a9a"/>
  <rect x="201" y="2" width="1" height="1" fill="#fafafa"/>
  <rect x="202" y="2" width="1" height="1" fill="#fdfdfd"/>
  <rect x="203" y="2" width="1" height="1" fill="#f1f1f1"/>
  <rect x="204" y="2" width="4" height="1" fill="#f7f7f7"/>
  <rect x="208" y="2" width="72" height="1" fill="#f8f8f8"/>
  <rect x="280" y="2" width="1" height="1" fill="#f5f5f5"/>
  <rect x="281" y="2" width="1" height="1" fill="#fdfdfd"/>
  <rect x="282" y="2" width="1" height="1" fill="#f6f6f6"/>
  <rect x="283" y="2" width="1" height="2" fill="#e2e2e2"/>
  <rect x="284" y="2" width="12" height="1" fill="#e4e4e4"/>
  <rect x="296" y="2" width="1" height="1" fill="#e3e3e3"/>
  <rect x="297" y="2" width="1" height="1" fill="#d2d2d2"/>
  <rect x="298" y="2" width="1" height="1" fill="#e4e4e4"/>
  <rect x="299" y="2" width="1" height="1" fill="#9a9a9a"/>
  <rect x="300" y="2" width="1" height="1" fill="#c4c4c4"/>
  <rect x="301" y="2" width="1" height="1" fill="#f8f8f8"/>
  <rect x="302" y="2" width="1" height="1" fill="#fdfdfd"/>
  <rect x="303" y="2" width="17" height="1" fill="#f2f2f2"/>
  <rect x="320" y="2" width="77" height="1" fill="#f3f3f3"/>
  <rect x="397" y="2" width="1" height="1" fill="#f8f8f8"/>
  <rect x="398" y="2" width="1" height="1" fill="#f1f1f1"/>
  <rect x="399" y="2" width="1" height="1" fill="#c7c7c7"/>
  <rect x="0" y="3" width="1" height="1" fill="#d0d0d0"/>
  <rect x="1" y="3" width="1" height="1" fill="#f1f1f1"/>
  <rect x="2" y="3" width="1" height="1" fill="#ffffff"/>
  <rect x="3" y="3" width="1" height="1" fill="#f8f8f8"/>
  <rect x="4" y="3" width="12" height="1" fill="#fefefe"/>
  <rect x="16" y="3" width="80" height="1" fill="#fdfdfd"/>
  <rect x="96" y="3" width="1" height="13" fill="#fcfbfc"/>
  <rect x="97" y="3" width="1" height="13" fill="#fdfdfd"/>
  <rect x="98" y="3" width="1" height="13" fill="#f8f8f8"/>
  <rect x="99" y="3" width="1" height="12" fill="#cfcfcf"/>
  <rect x="100" y="3" width="1" height="1" fill="#929292"/>
  <rect x="101" y="3" width="1" height="1" fill="#fafafa"/>
  <rect x="102" y="3" width="1" height="1" fill="#fdfdfd"/>
  <rect x="103" y="3" width="1" height="1" fill="#ffffff"/>
  <rect x="104" y="3" width="75" height="1" fill="#fdfdfd"/>
  <rect x="179" y="3" width="3" height="1" fill="#ffffff"/>
  <rect x="183" y="3" width="1" height="1" fill="#f8f8f8"/>
  <rect x="184" y="3" width="1" height="1" fill="#f9f9f9"/>
  <rect x="185" y="3" width="11" height="1" fill="#fafafa"/>
  <rect x="196" y="3" width="1" height="1" fill="#f3f3f3"/>
  <rect x="197" y="3" width="2" height="1" fill="#ffffff"/>
  <rect x="199" y="3" width="1" height="1" fill="#9e9e9e"/>
  <rect x="200" y="3" width="1" height="1" fill="#909090"/>
  <rect x="201" y="3" width="1" height="1" fill="#fcfbfc"/>
  <rect x="202" y="3" width="1" height="1" fill="#fefefe"/>
  <rect x="203" y="3" width="77" height="1" fill="#ffffff"/>
  <rect x="280" y="3" width="1" height="1" fill="#fefefe"/>
  <rect x="281" y="3" width="2" height="1" fill="#ffffff"/>
  <rect x="284" y="3" width="12" height="1" fill="#e8e8e8"/>
  <rect x="296" y="3" width="1" height="1" fill="#ebebeb"/>
  <rect x="297" y="3" width="1" height="1" fill="#e4e4e4"/>
  <rect x="298" y="3" width="1" height="1" fill="#e2e2e2"/>
  <rect x="299" y="3" width="1" height="1" fill="#979797"/>
  <rect x="300" y="3" width="1" height="1" fill="#cbcbcb"/>
  <rect x="301" y="3" width="2" height="1" fill="#f0f0f0"/>
  <rect x="303" y="3" width="1" height="1" fill="#ebebeb"/>
  <rect x="304" y="3" width="16" height="1" fill="#f2f2f2"/>
  <rect x="320" y="3" width="76" height="1" fill="#f3f3f3"/>
  <rect x="396" y="3" width="1" height="1" fill="#efefef"/>
  <rect x="397" y="3" width="1" height="1" fill="#f0f0f0"/>
  <rect x="398" y="3" width="1" height="1" fill="#ececec"/>
  <rect x="399" y="3" width="1" height="1" fill="#cecece"/>
  <rect x="0" y="4" width="1" height="12" fill="#cfcfcf"/>
  <rect x="1" y="4" width="1" height="12" fill="#f3f3f3"/>
  <rect x="2" y="4" width="1" height="12" fill="#fdfdfd"/>
  <rect x="3" y="4" width="1" height="12" fill="#f9f9f9"/>
  <rect x="4" y="4" width="4" height="12" fill="#fcfbfc"/>
  <rect x="8" y="4" width="4" height="14" fill="#fdfdfd"/>
  <rect x="12" y="4" width="4" height="12" fill="#fefefe"/>
  <rect x="16" y="4" width="64" height="2" fill="#fdfdfd"/>
  <rect x="80" y="4" width="1" height="1" fill="#ffffff"/>
  <rect x="81" y="4" width="1" height="1" fill="#fafafa"/>
  <rect x="82" y="4" width="1" height="2" fill="#ffffff"/>
  <rect x="83" y="4" width="1" height="1" fill="#eaeaea"/>
  <rect x="84" y="4" width="12" height="12" fill="#fdfdfd"/>
  <rect x="100" y="4" width="1" height="1" fill="#949494"/>
  <rect x="101" y="4" width="1" height="12" fill="#f7f7f7"/>
  <rect x="102" y="4" width="1" height="13" fill="#ffffff"/>
  <rect x="103" y="4" width="1" height="12" fill="#fcfbfc"/>
  <rect x="104" y="4" width="76" height="2" fill="#ffffff"/>
  <rect x="180" y="4" width="1" height="1" fill="#fcfbfc"/>
  <rect x="181" y="4" width="1" height="2" fill="#fefefe"/>
  <rect x="182" y="4" width="1" height="2" fill="#ffffff"/>
  <rect x="183" y="4" width="1" height="1" fill="#e7e7e7"/>
  <rect x="184" y="4" width="12" height="2" fill="#fafafa"/>
  <rect x="196" y="4" width="1" height="2" fill="#fdfdfd"/>
  <rect x="197" y="4" width="1" height="5" fill="#f6f6f6"/>
  <rect x="198" y="4" width="1" height="4" fill="#fafafa"/>
  <rect x="199" y="4" width="1" height="1" fill="#9a9a9a"/>
  <rect x="200" y="4" width="1" height="1" fill="#999999"/>
  <rect x="201" y="4" width="1" height="8" fill="#f8f8f8"/>
  <rect x="202" y="4" width="1" height="13" fill="#ffffff"/>
  <rect x="203" y="4" width="1" height="8" fill="#fdfdfd"/>
  <rect x="204" y="4" width="78" height="6" fill="#ffffff"/>
  <rect x="282" y="4" width="1" height="6" fill="#fefefe"/>
  <rect x="283" y="4" width="1" height="6" fill="#d5d5d5"/>
  <rect x="284" y="4" width="1" height="2" fill="#f3f3f3"/>
  <rect x="285" y="4" width="1" height="2" fill="#f0f0f0"/>
  <rect x="286" y="4" width="1" height="2" fill="#ebebeb"/>
  <rect x="287" y="4" width="1" height="2" fill="#e9e9e9"/>
  <rect x="288" y="4" width="1" height="2" fill="#eaeaea"/>
  <rect x="289" y="4" width="3" height="2" fill="#ebebeb"/>
  <rect x="292" y="4" width="4" height="2" fill="#eaeaea"/>
  <rect x="296" y="4" width="1" height="2" fill="#e9e9e9"/>
  <rect x="297" y="4" width="1" height="2" fill="#ebebeb"/>
  <rect x="298" y="4" width="1" height="2" fill="#e9e9e9"/>
  <rect x="299" y="4" width="1" height="2" fill="#959595"/>
  <rect x="300" y="4" width="1" height="1" fill="#cccccc"/>
  <rect x="301" y="4" width="1" height="7" fill="#f2f2f2"/>
  <rect x="302" y="4" width="1" height="7" fill="#f7f7f7"/>
  <rect x="303" y="4" width="1" height="7" fill="#f6f6f6"/>
  <rect x="304" y="4" width="4" height="4" fill="#f5f5f5"/>
  <rect x="308" y="4" width="72" height="1" fill="#f3f3f3"/>
  <rect x="380" y="4" width="1" height="1" fill="#f1f1f1"/>
  <rect x="381" y="4" width="1" height="1" fill="#f0f0f0"/>
  <rect x="382" y="4" width="1" height="1" fill="#f7f7f7"/>
  <rect x="383" y="4" width="1" height="1" fill="#e3e3e3"/>
  <rect x="384" y="4" width="12" height="4" fill="#f3f3f3"/>
  <rect x="396" y="4" width="1" height="4" fill="#f0f0f0"/>
  <rect x="397" y="4" width="1" height="4" fill="#f2f2f2"/>
  <rect x="398" y="4" width="1" height="4" fill="#f7f7f7"/>
  <rect x="399" y="4" width="1" height="4" fill="#cccccc"/>
  <rect x="80" y="5" width="1" height="1" fill="#fefefe"/>
  <rect x="81" y="5" width="1" height="1" fill="#fcfbfc"/>
  <rect x="83" y="5" width="1" height="1" fill="#e4e4e4"/>
  <rect x="100" y="5" width="1" height="11" fill="#979797"/>
  <rect x="180" y="5" width="1" height="1" fill="#fdfdfd"/>
  <rect x="183" y="5" width="1" height="1" fill="#e2e2e2"/>
  <rect x="199" y="5" width="2" height="2" fill="#999999"/>
  <rect x="300" y="5" width="1" height="6" fill="#cbcbcb"/>
  <rect x="308" y="5" width="73" height="1" fill="#f3f3f3"/>
  <rect x="381" y="5" width="1" height="1" fill="#f1f1f1"/>
  <rect x="382" y="5" width="1" height="1" fill="#f6f6f6"/>
  <rect x="383" y="5" width="1" height="1" fill="#e1e1e1"/>
  <rect x="16" y="6" width="66" height="1" fill="#fdfdfd"/>
  <rect x="82" y="6" width="1" height="1" fill="#fefefe"/>
  <rect x="83" y="6" width="1" height="1" fill="#dcdcdc"/>
  <rect x="104" y="6" width="78" height="3" fill="#ffffff"/>
  <rect x="182" y="6" width="1" height="1" fill="#fefefe"/>
  <rect x="183" y="6" width="1" height="1" fill="#dcdcdc"/>
  <rect x="184" y="6" width="10" height="1" fill="#fafafa"/>
  <rect x="194" y="6" width="2" height="1" fill="#f9f9f9"/>
  <rect x="196" y="6" width="1" height="1" fill="#fcfbfc"/>
  <rect x="284" y="6" width="1" height="1" fill="#f5f5f5"/>
  <rect x="285" y="6" width="1" height="1" fill="#f1f1f1"/>
  <rect x="286" y="6" width="1" height="1" fill="#ececec"/>
  <rect x="287" y="6" width="2" height="1" fill="#eaeaea"/>
  <rect x="289" y="6" width="3" height="1" fill="#ececec"/>
  <rect x="292" y="6" width="4" height="1" fill="#ebebeb"/>
  <rect x="296" y="6" width="1" height="1" fill="#eaeaea"/>
  <rect x="297" y="6" width="1" height="1" fill="#ececec"/>
  <rect x="298" y="6" width="1" height="1" fill="#eaeaea"/>
  <rect x="299" y="6" width="1" height="1" fill="#969696"/>
  <rect x="308" y="6" width="72" height="2" fill="#f3f3f3"/>
  <rect x="380" y="6" width="1" height="1" fill="#f7f7f7"/>
  <rect x="381" y="6" width="1" height="1" fill="#f2f2f2"/>
  <rect x="382" y="6" width="1" height="1" fill="#f3f3f3"/>
  <rect x="383" y="6" width="1" height="1" fill="#dddddd"/>
  <rect x="16" y="7" width="64" height="9" fill="#fdfdfd"/>
  <rect x="80" y="7" width="1" height="5" fill="#fcfbfc"/>
  <rect x="81" y="7" width="1" height="5" fill="#fefefe"/>
  <rect x="82" y="7" width="1" height="5" fill="#fdfdfd"/>
  <rect x="83" y="7" width="1" height="5" fill="#d6d6d6"/>
  <rect x="182" y="7" width="1" height="4" fill="#fdfdfd"/>
  <rect x="183" y="7" width="1" height="1" fill="#d7d7d7"/>
  <rect x="184" y="7" width="4" height="1" fill="#f9f9f9"/>
  <rect x="188" y="7" width="2" height="1" fill="#f8f8f8"/>
  <rect x="190" y="7" width="2" height="1" fill="#f9f9f9"/>
  <rect x="192" y="7" width="4" height="1" fill="#f8f8f8"/>
  <rect x="196" y="7" width="1" height="1" fill="#f9f9f9"/>
  <rect x="199" y="7" width="1" height="1" fill="#979797"/>
  <rect x="200" y="7" width="1" height="5" fill="#999999"/>
  <rect x="284" y="7" width="1" height="1" fill="#f6f6f6"/>
  <rect x="285" y="7" width="1" height="1" fill="#f2f2f2"/>
  <rect x="286" y="7" width="1" height="1" fill="#eeeeee"/>
  <rect x="287" y="7" width="2" height="1" fill="#ebebeb"/>
  <rect x="289" y="7" width="3" height="1" fill="#eeeeee"/>
  <rect x="292" y="7" width="4" height="1" fill="#ececec"/>
  <rect x="296" y="7" width="1" height="1" fill="#ebebeb"/>
  <rect x="297" y="7" width="1" height="1" fill="#eeeeee"/>
  <rect x="298" y="7" width="1" height="1" fill="#ebebeb"/>
  <rect x="299" y="7" width="1" height="1" fill="#979797"/>
  <rect x="380" y="7" width="1" height="1" fill="#f9f9f9"/>
  <rect x="381" y="7" width="2" height="1" fill="#f3f3f3"/>
  <rect x="383" y="7" width="1" height="1" fill="#dbdbdb"/>
  <rect x="183" y="8" width="1" height="1" fill="#d6d6d6"/>
  <rect x="184" y="8" width="4" height="1" fill="#f8f8f8"/>
  <rect x="188" y="8" width="2" height="1" fill="#f7f7f7"/>
  <rect x="190" y="8" width="4" height="1" fill="#f6f6f6"/>
  <rect x="194" y="8" width="2" height="1" fill="#f7f7f7"/>
  <rect x="196" y="8" width="1" height="1" fill="#f8f8f8"/>
  <rect x="198" y="8" width="1" height="3" fill="#efefef"/>
  <rect x="199" y="8" width="1" height="1" fill="#969696"/>
  <rect x="284" y="8" width="1" height="1" fill="#f8f8f8"/>
  <rect x="285" y="8" width="1" height="1" fill="#f5f5f5"/>
  <rect x="286" y="8" width="1" height="1" fill="#f0f0f0"/>
  <rect x="287" y="8" width="2" height="1" fill="#efefef"/>
  <rect x="289" y="8" width="3" height="1" fill="#f0f0f0"/>
  <rect x="292" y="8" width="4" height="1" fill="#efefef"/>
  <rect x="296" y="8" width="1" height="1" fill="#eeeeee"/>
  <rect x="297" y="8" width="1" height="1" fill="#f0f0f0"/>
  <rect x="298" y="8" width="1" height="1" fill="#eeeeee"/>
  <rect x="299" y="8" width="1" height="1" fill="#9a9a9a"/>
  <rect x="304" y="8" width="76" height="4" fill="#f3f3f3"/>
  <rect x="380" y="8" width="1" height="8" fill="#f6f6f6"/>
  <rect x="381" y="8" width="1" height="8" fill="#f2f2f2"/>
  <rect x="382" y="8" width="1" height="8" fill="#f5f5f5"/>
  <rect x="383" y="8" width="1" height="8" fill="#dedede"/>
  <rect x="384" y="8" width="12" height="8" fill="#f5f5f5"/>
  <rect x="396" y="8" width="1" height="8" fill="#f1f1f1"/>
  <rect x="397" y="8" width="1" height="8" fill="#f3f3f3"/>
  <rect x="398" y="8" width="1" height="8" fill="#f8f8f8"/>
  <rect x="399" y="8" width="1" height="8" fill="#cdcdcd"/>
  <rect x="104" y="9" width="4" height="7" fill="#fefefe"/>
  <rect x="108" y="9" width="74" height="4" fill="#ffffff"/>
  <rect x="183" y="9" width="1" height="2" fill="#d7d7d7"/>
  <rect x="184" y="9" width="4" height="1" fill="#f7f7f7"/>
  <rect x="188" y="9" width="4" height="1" fill="#f6f6f6"/>
  <rect x="192" y="9" width="2" height="1" fill="#f5f5f5"/>
  <rect x="194" y="9" width="4" height="1" fill="#f6f6f6"/>
  <rect x="199" y="9" width="1" height="3" fill="#959595"/>
  <rect x="284" y="9" width="1" height="1" fill="#f9f9f9"/>
  <rect x="285" y="9" width="1" height="1" fill="#f6f6f6"/>
  <rect x="286" y="9" width="1" height="1" fill="#f1f1f1"/>
  <rect x="287" y="9" width="1" height="1" fill="#efefef"/>
  <rect x="288" y="9" width="4" height="1" fill="#f1f1f1"/>
  <rect x="292" y="9" width="4" height="1" fill="#f0f0f0"/>
  <rect x="296" y="9" width="1" height="1" fill="#efefef"/>
  <rect x="297" y="9" width="1" height="1" fill="#f1f1f1"/>
  <rect x="298" y="9" width="1" height="1" fill="#efefef"/>
  <rect x="299" y="9" width="1" height="1" fill="#9b9b9b"/>
  <rect x="184" y="10" width="1" height="1" fill="#f7f7f7"/>
  <rect x="185" y="10" width="1" height="1" fill="#f6f6f6"/>
  <rect x="186" y="10" width="2" height="2" fill="#f7f7f7"/>
  <rect x="188" y="10" width="1" height="2" fill="#f6f6f6"/>
  <rect x="189" y="10" width="5" height="1" fill="#f5f5f5"/>
  <rect x="194" y="10" width="3" height="1" fill="#f3f3f3"/>
  <rect x="197" y="10" width="1" height="1" fill="#f5f5f5"/>
  <rect x="204" y="10" width="79" height="2" fill="#ffffff"/>
  <rect x="283" y="10" width="1" height="1" fill="#d6d6d6"/>
  <rect x="284" y="10" width="1" height="4" fill="#fafafa"/>
  <rect x="285" y="10" width="1" height="2" fill="#f8f8f8"/>
  <rect x="286" y="10" width="1" height="1" fill="#f5f5f5"/>
  <rect x="287" y="10" width="1" height="2" fill="#f0f0f0"/>
  <rect x="288" y="10" width="1" height="1" fill="#f1f1f1"/>
  <rect x="289" y="10" width="3" height="1" fill="#f2f2f2"/>
  <rect x="292" y="10" width="4" height="1" fill="#f1f1f1"/>
  <rect x="296" y="10" width="1" height="1" fill="#f0f0f0"/>
  <rect x="297" y="10" width="1" height="1" fill="#f2f2f2"/>
  <rect x="298" y="10" width="1" height="1" fill="#f0f0f0"/>
  <rect x="299" y="10" width="1" height="1" fill="#9c9c9c"/>
  <rect x="182" y="11" width="1" height="1" fill="#fcfbfc"/>
  <rect x="183" y="11" width="1" height="1" fill="#d6d6d6"/>
  <rect x="184" y="11" width="1" height="1" fill="#f5f5f5"/>
  <rect x="185" y="11" width="1" height="1" fill="#f3f3f3"/>
  <rect x="189" y="11" width="1" height="1" fill="#f2f2f2"/>
  <rect x="190" y="11" width="2" height="1" fill="#f3f3f3"/>
  <rect x="192" y="11" width="2" height="1" fill="#f2f2f2"/>
  <rect x="194" y="11" width="3" height="1" fill="#f1f1f1"/>
  <rect x="197" y="11" width="1" height="1" fill="#f3f3f3"/>
  <rect x="198" y="11" width="1" height="2" fill="#eeeeee"/>
  <rect x="283" y="11" width="1" height="1" fill="#d7d7d7"/>
  <rect x="286" y="11" width="1" height="1" fill="#f6f6f6"/>
  <rect x="288" y="11" width="1" height="1" fill="#f2f2f2"/>
  <rect x="289" y="11" width="3" height="1" fill="#f3f3f3"/>
  <rect x="292" y="11" width="4" height="1" fill="#f2f2f2"/>
  <rect x="296" y="11" width="1" height="1" fill="#f1f1f1"/>
  <rect x="297" y="11" width="2" height="1" fill="#f2f2f2"/>
  <rect x="299" y="11" width="1" height="1" fill="#999999"/>
  <rect x="300" y="11" width="1" height="1" fill="#c9c9c9"/>
  <rect x="301" y="11" width="1" height="1" fill="#f1f1f1"/>
  <rect x="302" y="11" width="1" height="1" fill="#f6f6f6"/>
  <rect x="303" y="11" width="1" height="1" fill="#f5f5f5"/>
  <rect x="80" y="12" width="2" height="4" fill="#fafafa"/>
  <rect x="82" y="12" width="1" height="5" fill="#fcfbfc"/>
  <rect x="83" y="12" width="1" height="4" fill="#dcdcdc"/>
  <rect x="182" y="12" width="1" height="1" fill="#fafafa"/>
  <rect x="183" y="12" width="1" height="1" fill="#d5d5d5"/>
  <rect x="184" y="12" width="1" height="1" fill="#f3f3f3"/>
  <rect x="185" y="12" width="1" height="1" fill="#f2f2f2"/>
  <rect x="186" y="12" width="1" height="4" fill="#eaeaea"/>
  <rect x="187" y="12" width="1" height="5" fill="#e8e8e8"/>
  <rect x="188" y="12" width="1" height="4" fill="#eaeaea"/>
  <rect x="189" y="12" width="1" height="1" fill="#efefef"/>
  <rect x="190" y="12" width="2" height="1" fill="#eeeeee"/>
  <rect x="192" y="12" width="2" height="1" fill="#efefef"/>
  <rect x="194" y="12" width="2" height="1" fill="#f0f0f0"/>
  <rect x="196" y="12" width="1" height="1" fill="#eeeeee"/>
  <rect x="197" y="12" width="1" height="1" fill="#f1f1f1"/>
  <rect x="199" y="12" width="1" height="4" fill="#969696"/>
  <rect x="200" y="12" width="1" height="4" fill="#9a9a9a"/>
  <rect x="201" y="12" width="1" height="4" fill="#f9f9f9"/>
  <rect x="203" y="12" width="1" height="4" fill="#fefefe"/>
  <rect x="204" y="12" width="76" height="4" fill="#ffffff"/>
  <rect x="280" y="12" width="1" height="1" fill="#fefefe"/>
  <rect x="281" y="12" width="2" height="5" fill="#ffffff"/>
  <rect x="283" y="12" width="1" height="1" fill="#d9d9d9"/>
  <rect x="285" y="12" width="1" height="2" fill="#f9f9f9"/>
  <rect x="286" y="12" width="1" height="1" fill="#f7f7f7"/>
  <rect x="287" y="12" width="1" height="1" fill="#f9f9f9"/>
  <rect x="288" y="12" width="4" height="1" fill="#f7f7f7"/>
  <rect x="292" y="12" width="4" height="1" fill="#f6f6f6"/>
  <rect x="296" y="12" width="1" height="1" fill="#f5f5f5"/>
  <rect x="297" y="12" width="1" height="1" fill="#f6f6f6"/>
  <rect x="298" y="12" width="1" height="1" fill="#f8f8f8"/>
  <rect x="299" y="12" width="1" height="3" fill="#959595"/>
  <rect x="300" y="12" width="1" height="1" fill="#c8c8c8"/>
  <rect x="301" y="12" width="1" height="1" fill="#f0f0f0"/>
  <rect x="302" y="12" width="1" height="1" fill="#f5f5f5"/>
  <rect x="303" y="12" width="1" height="1" fill="#f3f3f3"/>
  <rect x="304" y="12" width="16" height="4" fill="#f5f5f5"/>
  <rect x="320" y="12" width="60" height="5" fill="#f3f3f3"/>
  <rect x="108" y="13" width="73" height="3" fill="#ffffff"/>
  <rect x="181" y="13" width="1" height="3" fill="#fefefe"/>
  <rect x="182" y="13" width="1" height="3" fill="#f9f9f9"/>
  <rect x="183" y="13" width="1" height="3" fill="#d4d4d4"/>
  <rect x="184" y="13" width="1" height="3" fill="#f2f2f2"/>
  <rect x="185" y="13" width="1" height="1" fill="#f0f0f0"/>
  <rect x="189" y="13" width="5" height="1" fill="#ececec"/>
  <rect x="194" y="13" width="2" height="1" fill="#eeeeee"/>
  <rect x="196" y="13" width="1" height="1" fill="#ebebeb"/>
  <rect x="197" y="13" width="1" height="1" fill="#f0f0f0"/>
  <rect x="198" y="13" width="1" height="3" fill="#ececec"/>
  <rect x="280" y="13" width="1" height="1" fill="#fdfdfd"/>
  <rect x="283" y="13" width="1" height="1" fill="#dadada"/>
  <rect x="286" y="13" width="1" height="1" fill="#f8f8f8"/>
  <rect x="287" y="13" width="9" height="1" fill="#fafafa"/>
  <rect x="296" y="13" width="2" height="3" fill="#f9f9f9"/>
  <rect x="298" y="13" width="1" height="3" fill="#fefefe"/>
  <rect x="300" y="13" width="1" height="3" fill="#cbcbcb"/>
  <rect x="301" y="13" width="1" height="3" fill="#f2f2f2"/>
  <rect x="302" y="13" width="1" height="3" fill="#f7f7f7"/>
  <rect x="303" y="13" width="1" height="3" fill="#f6f6f6"/>
  <rect x="185" y="14" width="1" height="2" fill="#efefef"/>
  <rect x="189" y="14" width="3" height="2" fill="#ebebeb"/>
  <rect x="192" y="14" width="4" height="2" fill="#ececec"/>
  <rect x="196" y="14" width="1" height="2" fill="#eaeaea"/>
  <rect x="197" y="14" width="1" height="2" fill="#efefef"/>
  <rect x="280" y="14" width="1" height="2" fill="#fcfbfc"/>
  <rect x="283" y="14" width="1" height="2" fill="#dbdbdb"/>
  <rect x="284" y="14" width="12" height="2" fill="#fafafa"/>
  <rect x="99" y="15" width="1" height="1" fill="#d0d0d0"/>
  <rect x="299" y="15" width="1" height="1" fill="#979797"/>
  <rect x="0" y="16" width="1" height="1" fill="#d0d0d0"/>
  <rect x="1" y="16" width="1" height="1" fill="#f1f1f1"/>
  <rect x="2" y="16" width="6" height="1" fill="#fcfbfc"/>
  <rect x="12" y="16" width="68" height="1" fill="#fcfbfc"/>
  <rect x="80" y="16" width="1" height="1" fill="#fafafa"/>
  <rect x="81" y="16" width="1" height="2" fill="#ffffff"/>
  <rect x="83" y="16" width="1" height="1" fill="#ececec"/>
  <rect x="84" y="16" width="12" height="2" fill="#fcfbfc"/>
  <rect x="96" y="16" width="1" height="1" fill="#ffffff"/>
  <rect x="97" y="16" width="1" height="1" fill="#f9f9f9"/>
  <rect x="98" y="16" width="1" height="1" fill="#f3f3f3"/>
  <rect x="99" y="16" width="1" height="1" fill="#cecece"/>
  <rect x="100" y="16" width="1" height="1" fill="#999999"/>
  <rect x="101" y="16" width="1" height="1" fill="#fafafa"/>
  <rect x="103" y="16" width="1" height="1" fill="#f2f2f2"/>
  <rect x="104" y="16" width="3" height="1" fill="#fdfdfd"/>
  <rect x="107" y="16" width="4" height="1" fill="#fcfbfc"/>
  <rect x="111" y="16" width="2" height="1" fill="#fdfdfd"/>
  <rect x="113" y="16" width="2" height="1" fill="#fefefe"/>
  <rect x="115" y="16" width="68" height="1" fill="#ffffff"/>
  <rect x="183" y="16" width="1" height="1" fill="#dddddd"/>
  <rect x="184" y="16" width="3" height="1" fill="#e9e9e9"/>
  <rect x="188" y="16" width="2" height="1" fill="#e9e9e9"/>
  <rect x="190" y="16" width="4" height="1" fill="#e8e8e8"/>
  <rect x="194" y="16" width="2" height="1" fill="#e7e7e7"/>
  <rect x="196" y="16" width="2" height="1" fill="#ebebeb"/>
  <rect x="198" y="16" width="1" height="1" fill="#e1e1e1"/>
  <rect x="199" y="16" width="1" height="1" fill="#9a9a9a"/>
  <rect x="200" y="16" width="1" height="1" fill="#9d9d9d"/>
  <rect x="201" y="16" width="1" height="1" fill="#fefefe"/>
  <rect x="203" y="16" width="1" height="1" fill="#f9f9f9"/>
  <rect x="204" y="16" width="1" height="1" fill="#fefefe"/>
  <rect x="205" y="16" width="75" height="1" fill="#ffffff"/>
  <rect x="280" y="16" width="1" height="1" fill="#fefefe"/>
  <rect x="283" y="16" width="1" height="1" fill="#e5e5e5"/>
  <rect x="284" y="16" width="12" height="1" fill="#fcfbfc"/>
  <rect x="296" y="16" width="1" height="1" fill="#f6f6f6"/>
  <rect x="297" y="16" width="2" height="1" fill="#ffffff"/>
  <rect x="299" y="16" width="1" height="1" fill="#9d9d9d"/>
  <rect x="300" y="16" width="1" height="1" fill="#d2d2d2"/>
  <rect x="301" y="16" width="1" height="1" fill="#f0f0f0"/>
  <rect x="302" y="16" width="1" height="1" fill="#f2f2f2"/>
  <rect x="303" y="16" width="17" height="1" fill="#f5f5f5"/>
  <rect x="380" y="16" width="1" height="1" fill="#f7f7f7"/>
  <rect x="381" y="16" width="1" height="1" fill="#f3f3f3"/>
  <rect x="382" y="16" width="1" height="1" fill="#eeeeee"/>
  <rect x="383" y="16" width="1" height="1" fill="#eaeaea"/>
  <rect x="384" y="16" width="12" height="1" fill="#f2f2f2"/>
  <rect x="396" y="16" width="1" height="1" fill="#fafafa"/>
  <rect x="397" y="16" width="1" height="1" fill="#f0f0f0"/>
  <rect x="398" y="16" width="1" height="1" fill="#f1f1f1"/>
  <rect x="399" y="16" width="1" height="2" fill="#c9c9c9"/>
  <rect x="0" y="17" width="1" height="2" fill="#cdcdcd"/>
  <rect x="1" y="17" width="1" height="1" fill="#f5f5f5"/>
  <rect x="2" y="17" width="1" height="1" fill="#ffffff"/>
  <rect x="3" y="17" width="5" height="1" fill="#fcfbfc"/>
  <rect x="12" y="17" width="69" height="1" fill="#fcfbfc"/>
  <rect x="82" y="17" width="1" height="1" fill="#fdfdfd"/>
  <rect x="83" y="17" width="1" height="1" fill="#f2f2f2"/>
  <rect x="96" y="17" width="2" height="1" fill="#ffffff"/>
  <rect x="98" y="17" width="1" height="1" fill="#f8f8f8"/>
  <rect x="99" y="17" width="1" height="1" fill="#c6c6c6"/>
  <rect x="100" y="17" width="1" height="1" fill="#9b9b9b"/>
  <rect x="101" y="17" width="1" height="1" fill="#fcfbfc"/>
  <rect x="102" y="17" width="1" height="1" fill="#f6f6f6"/>
  <rect x="103" y="17" width="6" height="1" fill="#ffffff"/>
  <rect x="109" y="17" width="1" height="1" fill="#fefefe"/>
  <rect x="110" y="17" width="2" height="1" fill="#fdfdfd"/>
  <rect x="112" y="17" width="2" height="1" fill="#fcfbfc"/>
  <rect x="114" y="17" width="66" height="1" fill="#fafafa"/>
  <rect x="180" y="17" width="1" height="1" fill="#fdfdfd"/>
  <rect x="181" y="17" width="1" height="1" fill="#fafafa"/>
  <rect x="182" y="17" width="1" height="1" fill="#fdfdfd"/>
  <rect x="183" y="17" width="1" height="1" fill="#e0e0e0"/>
  <rect x="184" y="17" width="3" height="2" fill="#e8e8e8"/>
  <rect x="187" y="17" width="1" height="2" fill="#e7e7e7"/>
  <rect x="188" y="17" width="2" height="2" fill="#e8e8e8"/>
  <rect x="190" y="17" width="4" height="2" fill="#e7e7e7"/>
  <rect x="194" y="17" width="2" height="2" fill="#e5e5e5"/>
  <rect x="196" y="17" width="1" height="1" fill="#ebebeb"/>
  <rect x="197" y="17" width="1" height="1" fill="#e0e0e0"/>
  <rect x="198" y="17" width="1" height="1" fill="#eaeaea"/>
  <rect x="199" y="17" width="1" height="1" fill="#a4a4a4"/>
  <rect x="200" y="17" width="1" height="1" fill="#a2a2a2"/>
  <rect x="201" y="17" width="1" height="1" fill="#ffffff"/>
  <rect x="202" y="17" width="1" height="1" fill="#f8f8f8"/>
  <rect x="203" y="17" width="1" height="1" fill="#ffffff"/>
  <rect x="204" y="17" width="2" height="1" fill="#fefefe"/>
  <rect x="206" y="17" width="66" height="1" fill="#ffffff"/>
  <rect x="272" y="17" width="2" height="1" fill="#fefefe"/>
  <rect x="274" y="17" width="7" height="1" fill="#fdfdfd"/>
  <rect x="281" y="17" width="1" height="1" fill="#ffffff"/>
  <rect x="282" y="17" width="1" height="1" fill="#fefefe"/>
  <rect x="283" y="17" width="1" height="1" fill="#ececec"/>
  <rect x="284" y="17" width="12" height="1" fill="#fafafa"/>
  <rect x="296" y="17" width="1" height="1" fill="#ffffff"/>
  <rect x="297" y="17" width="1" height="1" fill="#f7f7f7"/>
  <rect x="298" y="17" width="1" height="1" fill="#ffffff"/>
  <rect x="299" y="17" width="1" height="1" fill="#a1a1a1"/>
  <rect x="300" y="17" width="1" height="1" fill="#c2c2c2"/>
  <rect x="301" y="17" width="1" height="1" fill="#f1f1f1"/>
  <rect x="302" y="17" width="1" height="1" fill="#f9f9f9"/>
  <rect x="303" y="17" width="1" height="1" fill="#f5f5f5"/>
  <rect x="304" y="17" width="16" height="1" fill="#f6f6f6"/>
  <rect x="320" y="17" width="60" height="1" fill="#f5f5f5"/>
  <rect x="380" y="17" width="1" height="1" fill="#f8f8f8"/>
  <rect x="381" y="17" width="1" height="1" fill="#f5f5f5"/>
  <rect x="382" y="17" width="1" height="1" fill="#f1f1f1"/>
  <rect x="383" y="17" width="1" height="1" fill="#efefef"/>
  <rect x="384" y="17" width="12" height="1" fill="#f3f3f3"/>
  <rect x="396" y="17" width="1" height="1" fill="#f1f1f1"/>
  <rect x="397" y="17" width="2" height="1" fill="#f2f2f2"/>
  <rect x="1" y="18" width="1" height="1" fill="#f1f1f1"/>
  <rect x="2" y="18" width="1" height="1" fill="#fefefe"/>
  <rect x="3" y="18" width="80" height="1" fill="#ffffff"/>
  <rect x="83" y="18" width="1" height="1" fill="#fefefe"/>
  <rect x="84" y="18" width="13" height="1" fill="#ffffff"/>
  <rect x="97" y="18" width="1" height="1" fill="#f9f9f9"/>
  <rect x="98" y="18" width="1" height="1" fill="#f2f2f2"/>
  <rect x="99" y="18" width="1" height="1" fill="#cdcdcd"/>
  <rect x="100" y="18" width="1" height="1" fill="#979797"/>
  <rect x="101" y="18" width="1" height="1" fill="#f6f6f6"/>
  <rect x="102" y="18" width="1" height="1" fill="#fefefe"/>
  <rect x="103" y="18" width="78" height="1" fill="#ffffff"/>
  <rect x="181" y="18" width="1" height="1" fill="#f8f8f8"/>
  <rect x="182" y="18" width="1" height="1" fill="#ffffff"/>
  <rect x="183" y="18" width="1" height="1" fill="#efefef"/>
  <rect x="196" y="18" width="1" height="1" fill="#dddddd"/>
  <rect x="197" y="18" width="1" height="1" fill="#e8e8e8"/>
  <rect x="198" y="18" width="1" height="1" fill="#e3e3e3"/>
  <rect x="199" y="18" width="1" height="2" fill="#959595"/>
  <rect x="200" y="18" width="1" height="1" fill="#9b9b9b"/>
  <rect x="201" y="18" width="1" height="1" fill="#f8f8f8"/>
  <rect x="202" y="18" width="1" height="1" fill="#fefefe"/>
  <rect x="203" y="18" width="71" height="1" fill="#ffffff"/>
  <rect x="274" y="18" width="6" height="1" fill="#fefefe"/>
  <rect x="280" y="18" width="3" height="1" fill="#ffffff"/>
  <rect x="283" y="18" width="1" height="1" fill="#fefefe"/>
  <rect x="284" y="18" width="13" height="1" fill="#ffffff"/>
  <rect x="297" y="18" width="1" height="1" fill="#fefefe"/>
  <rect x="298" y="18" width="1" height="1" fill="#fcfbfc"/>
  <rect x="299" y="18" width="1" height="1" fill="#9d9d9d"/>
  <rect x="300" y="18" width="1" height="1" fill="#d2d2d2"/>
  <rect x="301" y="18" width="1" height="1" fill="#f2f2f2"/>
  <rect x="302" y="18" width="1" height="1" fill="#f5f5f5"/>
  <rect x="303" y="18" width="1" height="1" fill="#f7f7f7"/>
  <rect x="304" y="18" width="16" height="1" fill="#f3f3f3"/>
  <rect x="320" y="18" width="58" height="1" fill="#f2f2f2"/>
  <rect x="378" y="18" width="5" height="1" fill="#f3f3f3"/>
  <rect x="383" y="18" width="13" height="1" fill="#f2f2f2"/>
  <rect x="396" y="18" width="1" height="1" fill="#f6f6f6"/>
  <rect x="397" y="18" width="1" height="1" fill="#f5f5f5"/>
  <rect x="398" y="18" width="1" height="1" fill="#eeeeee"/>
  <rect x="399" y="18" width="1" height="1" fill="#cecece"/>
  <rect x="0" y="19" width="1" height="1" fill="#c6c6c6"/>
  <rect x="1" y="19" width="1" height="1" fill="#cfcfcf"/>
  <rect x="2" y="19" width="1" height="1" fill="#c9c9c9"/>
  <rect x="3" y="19" width="5" height="1" fill="#cbcbcb"/>
  <rect x="8" y="19" width="4" height="1" fill="#cccccc"/>
  <rect x="12" y="19" width="67" height="1" fill="#cbcbcb"/>
  <rect x="79" y="19" width="1" height="1" fill="#cccccc"/>
  <rect x="80" y="19" width="3" height="1" fill="#cdcdcd"/>
  <rect x="83" y="19" width="1" height="1" fill="#cfcfcf"/>
  <rect x="84" y="19" width="12" height="1" fill="#cbcbcb"/>
  <rect x="96" y="19" width="1" height="1" fill="#dcdcdc"/>
  <rect x="97" y="19" width="1" height="1" fill="#c7c7c7"/>
  <rect x="98" y="19" width="1" height="1" fill="#cdcdcd"/>
  <rect x="99" y="19" width="1" height="1" fill="#cbcbcb"/>
  <rect x="100" y="19" width="1" height="1" fill="#9d9d9d"/>
  <rect x="101" y="19" width="1" height="1" fill="#999999"/>
  <rect x="102" y="19" width="1" height="1" fill="#9d9d9d"/>
  <rect x="103" y="19" width="1" height="1" fill="#9c9c9c"/>
  <rect x="104" y="19" width="1" height="1" fill="#9b9b9b"/>
  <rect x="105" y="19" width="1" height="1" fill="#9a9a9a"/>
  <rect x="106" y="19" width="1" height="1" fill="#999999"/>
  <rect x="107" y="19" width="4" height="1" fill="#979797"/>
  <rect x="111" y="19" width="2" height="1" fill="#999999"/>
  <rect x="113" y="19" width="2" height="1" fill="#9a9a9a"/>
  <rect x="115" y="19" width="66" height="1" fill="#9b9b9b"/>
  <rect x="181" y="19" width="1" height="1" fill="#8f8f8f"/>
  <rect x="182" y="19" width="1" height="1" fill="#9a9a9a"/>
  <rect x="183" y="19" width="1" height="1" fill="#929292"/>
  <rect x="184" y="19" width="3" height="1" fill="#979797"/>
  <rect x="187" y="19" width="1" height="1" fill="#969696"/>
  <rect x="188" y="19" width="2" height="1" fill="#979797"/>
  <rect x="190" y="19" width="4" height="1" fill="#969696"/>
  <rect x="194" y="19" width="2" height="1" fill="#959595"/>
  <rect x="196" y="19" width="1" height="1" fill="#909090"/>
  <rect x="197" y="19" width="1" height="1" fill="#9a9a9a"/>
  <rect x="198" y="19" width="1" height="1" fill="#8f8f8f"/>
  <rect x="200" y="19" width="1" height="1" fill="#979797"/>
  <rect x="201" y="19" width="1" height="1" fill="#949494"/>
  <rect x="202" y="19" width="1" height="1" fill="#959595"/>
  <rect x="203" y="19" width="1" height="1" fill="#9b9b9b"/>
  <rect x="204" y="19" width="1" height="1" fill="#9d9d9d"/>
  <rect x="205" y="19" width="2" height="1" fill="#9b9b9b"/>
  <rect x="207" y="19" width="2" height="1" fill="#9a9a9a"/>
  <rect x="209" y="19" width="2" height="1" fill="#999999"/>
  <rect x="211" y="19" width="59" height="1" fill="#979797"/>
  <rect x="270" y="19" width="2" height="1" fill="#969696"/>
  <rect x="272" y="19" width="2" height="1" fill="#959595"/>
  <rect x="274" y="19" width="5" height="1" fill="#949494"/>
  <rect x="279" y="19" width="1" height="1" fill="#959595"/>
  <rect x="280" y="19" width="2" height="1" fill="#979797"/>
  <rect x="282" y="19" width="1" height="1" fill="#999999"/>
  <rect x="283" y="19" width="2" height="1" fill="#9b9b9b"/>
  <rect x="285" y="19" width="11" height="1" fill="#9a9a9a"/>
  <rect x="296" y="19" width="1" height="1" fill="#969696"/>
  <rect x="297" y="19" width="1" height="1" fill="#939393"/>
  <rect x="298" y="19" width="1" height="1" fill="#949494"/>
  <rect x="299" y="19" width="1" height="1" fill="#979797"/>
  <rect x="300" y="19" width="1" height="1" fill="#d4d4d4"/>
  <rect x="301" y="19" width="1" height="1" fill="#d3d3d3"/>
  <rect x="302" y="19" width="1" height="1" fill="#c7c7c7"/>
  <rect x="303" y="19" width="1" height="1" fill="#d9d9d9"/>
  <rect x="304" y="19" width="16" height="1" fill="#cdcdcd"/>
  <rect x="320" y="19" width="58" height="1" fill="#cccccc"/>
  <rect x="378" y="19" width="4" height="1" fill="#cdcdcd"/>
  <rect x="382" y="19" width="2" height="1" fill="#cecece"/>
  <rect x="384" y="19" width="2" height="1" fill="#cdcdcd"/>
  <rect x="386" y="19" width="10" height="1" fill="#cccccc"/>
  <rect x="396" y="19" width="1" height="1" fill="#cbcbcb"/>
  <rect x="397" y="19" width="1" height="1" fill="#c9c9c9"/>
  <rect x="398" y="19" width="1" height="1" fill="#cbcbcb"/>
  <rect x="399" y="19" width="1" height="1" fill="#c5c5c5"/>
  <rect x="0" y="20" width="400" height="1" fill="#ffffff"/>
</svg>