<svg xmlns="http://www.w3.org/2000/svg" width="104" height="12" viewBox="0 0 104 12" shape-rendering="crispEdges">
  <rect x="14" y="4" width="2" height="1" fill="#7a7a7a"/>
  <rect x="16" y="4" width="1" height="1" fill="#808080"/>
  <rect x="17" y="4" width="1" height="1" fill="#737373"/>
  <rect x="18" y="4" width="1" height="1" fill="#787878"/>
  <rect x="19" y="4" width="1" height="1" fill="#717171"/>
  <rect x="20" y="4" width="1" height="1" fill="#868686"/>
  <rect x="39" y="4" width="1" height="1" fill="#ffffff1a"/>
  <rect x="40" y="4" width="1" height="1" fill="#535353"/>
  <rect x="41" y="4" width="1" height="1" fill="#4f4f4f"/>
  <rect x="42" y="4" width="1" height="1" fill="#494949"/>
  <rect x="43" y="4" width="1" height="1" fill="#464646"/>
  <rect x="44" y="4" width="2" height="1" fill="#4f4f4f"/>
  <rect x="46" y="4" width="1" height="1" fill="#484848"/>
  <rect x="92" y="4" width="1" height="1" fill="#6f6f6f"/>
  <rect x="93" y="4" width="1" height="1" fill="#737373"/>
  <rect x="94" y="4" width="1" height="1" fill="#777777"/>
  <rect x="95" y="4" width="1" height="1" fill="#737373"/>
  <rect x="96" y="4" width="1" height="1" fill="#787878"/>
  <rect x="97" y="4" width="1" height="1" fill="#717171"/>
  <rect x="98" y="4" width="1" height="1" fill="#747474"/>
  <rect x="15" y="5" width="1" height="1" fill="#7a7a7a"/>
  <rect x="16" y="5" width="2" height="1" fill="#8b8b8b"/>
  <rect x="18" y="5" width="1" height="1" fill="#888888"/>
  <rect x="19" y="5" width="1" height="1" fill="#818181"/>
  <rect x="41" y="5" width="1" height="1" fill="#5b5b5b"/>
  <rect x="42" y="5" width="1" height="1" fill="#585858"/>
  <rect x="43" y="5" width="1" height="1" fill="#575757"/>
  <rect x="44" y="5" width="1" height="1" fill="#505050"/>
  <rect x="45" y="5" width="1" height="1" fill="#555555"/>
  <rect x="67" y="5" width="1" height="1" fill="#555555"/>
  <rect x="68" y="5" width="1" height="1" fill="#4d4d4d"/>
  <rect x="69" y="5" width="1" height="1" fill="#4b4b4b"/>
  <rect x="70" y="5" width="1" height="1" fill="#494949"/>
  <rect x="71" y="5" width="1" height="1" fill="#4b4b4b"/>
  <rect x="72" y="5" width="1" height="1" fill="#474747"/>
  <rect x="73" y="5" width="1" height="1" fill="#494949"/>
  <rect x="93" y="5" width="1" height="1" fill="#808080"/>
  <rect x="94" y="5" width="1" height="1" fill="#858585"/>
  <rect x="95" y="5" width="1" height="1" fill="#898989"/>
  <rect x="96" y="5" width="1" height="1" fill="#858585"/>
  <rect x="97" y="5" width="1" height="1" fill="#848484"/>
  <rect x="16" y="6" width="1" height="1" fill="#949494"/>
  <rect x="17" y="6" width="1" height="1" fill="#8f8f8f"/>
  <rect x="18" y="6" width="1" height="1" fill="#a0a0a0"/>
  <rect x="42" y="6" width="1" height="1" fill="#646464"/>
  <rect x="43" y="6" width="1" height="1" fill="#656565"/>
  <rect x="44" y="6" width="1" height="1" fill="#6b6b6b"/>
  <rect x="68" y="6" width="1" height="1" fill="#555555"/>
  <rect x="69" y="6" width="1" height="1" fill="#585858"/>
  <rect x="70" y="6" width="1" height="1" fill="#5a5a5a"/>
  <rect x="71" y="6" width="1" height="1" fill="#585858"/>
  <rect x="72" y="6" width="1" height="1" fill="#545454"/>
  <rect x="94" y="6" width="1" height="1" fill="#8e8e8e"/>
  <rect x="95" y="6" width="1" height="1" fill="#9e9e9e"/>
  <rect x="96" y="6" width="1" height="1" fill="#929292"/>
  <rect x="17" y="7" width="1" height="1" fill="#acacac"/>
  <rect x="43" y="7" width="1" height="1" fill="#686868"/>
  <rect x="44" y="7" width="1" height="1" fill="#ffffff1a"/>
  <rect x="69" y="7" width="1" height="1" fill="#616161"/>
  <rect x="70" y="7" width="2" height="1" fill="#686868"/>
  <rect x="95" y="7" width="1" height="1" fill="#a7a6a7"/>
  <rect x="39" y="8" width="2" height="1" fill="#ffffff1a"/>
  <rect x="70" y="8" width="1" height="1" fill="#777777"/>
</svg>