<svg xmlns="http://www.w3.org/2000/svg" width="26" height="26" viewBox="0 0 26 26" shape-rendering="crispEdges">
  <rect x="1" y="1" width="1" height="1" fill="#9a9a9a1c"/>
  <rect x="2" y="1" width="1" height="1" fill="#97979759"/>
  <rect x="3" y="1" width="5" height="1" fill="#9c9c9c66"/>
  <rect x="8" y="1" width="12" height="1" fill="#9d9d9d66"/>
  <rect x="20" y="1" width="1" height="1" fill="#a1a1a166"/>
  <rect x="21" y="1" width="1" height="1" fill="#99999966"/>
  <rect x="22" y="1" width="1" height="1" fill="#96969666"/>
  <rect x="23" y="1" width="1" height="1" fill="#9c9c9c5f"/>
  <rect x="24" y="1" width="1" height="1" fill="#9c9c9c1b"/>
  <rect x="1" y="2" width="1" height="1" fill="#9d9d9d59"/>
  <rect x="2" y="2" width="1" height="1" fill="#dadada77"/>
  <rect x="3" y="2" width="4" height="1" fill="#f0f0f07f"/>
  <rect x="7" y="2" width="1" height="1" fill="#efefef7f"/>
  <rect x="8" y="2" width="1" height="1" fill="#eeeeee7f"/>
  <rect x="9" y="2" width="11" height="1" fill="#ececec7f"/>
  <rect x="20" y="2" width="2" height="1" fill="#f2f2f27f"/>
  <rect x="22" y="2" width="1" height="1" fill="#e9e9e97f"/>
  <rect x="23" y="2" width="1" height="1" fill="#dbdbdb77"/>
  <rect x="24" y="2" width="1" height="1" fill="#9c9c9c59"/>
  <rect x="1" y="3" width="1" height="1" fill="#9c9c9c66"/>
  <rect x="2" y="3" width="1" height="1" fill="#e0e0e04f"/>
  <rect x="3" y="3" width="3" height="1" fill="#d6d6d648"/>
  <rect x="6" y="3" width="4" height="1" fill="#d7d7d748"/>
  <rect x="10" y="3" width="10" height="1" fill="#d9d9d948"/>
  <rect x="20" y="3" width="1" height="1" fill="#d6d6d648"/>
  <rect x="21" y="3" width="1" height="1" fill="#d4d4d448"/>
  <rect x="22" y="3" width="1" height="1" fill="#d5d5d548"/>
  <rect x="23" y="3" width="1" height="1" fill="#dadada4c"/>
  <rect x="24" y="3" width="1" height="1" fill="#9c9c9c66"/>
  <rect x="1" y="4" width="1" height="3" fill="#a2a2a266"/>
  <rect x="2" y="4" width="1" height="2" fill="#dadada48"/>
  <rect x="3" y="4" width="3" height="2" fill="#d9d9d948"/>
  <rect x="6" y="4" width="4" height="2" fill="#dadada48"/>
  <rect x="10" y="4" width="6" height="1" fill="#dbdbdb48"/>
  <rect x="16" y="4" width="2" height="1" fill="#dadada48"/>
  <rect x="18" y="4" width="6" height="1" fill="#d9d9d948"/>
  <rect x="24" y="4" width="1" height="1" fill="#9b9b9b66"/>
  <rect x="10" y="5" width="8" height="1" fill="#dbdbdb48"/>
  <rect x="18" y="5" width="6" height="1" fill="#dadada48"/>
  <rect x="24" y="5" width="1" height="1" fill="#9c9c9c66"/>
  <rect x="2" y="6" width="1" height="1" fill="#dcdcdc48"/>
  <rect x="3" y="6" width="3" height="1" fill="#dbdbdb48"/>
  <rect x="6" y="6" width="4" height="1" fill="#dcdcdc48"/>
  <rect x="10" y="6" width="4" height="1" fill="#dddddd48"/>
  <rect x="14" y="6" width="4" height="1" fill="#dcdcdc48"/>
  <rect x="18" y="6" width="6" height="2" fill="#dbdbdb48"/>
  <rect x="24" y="6" width="1" height="1" fill="#9d9d9d66"/>
  <rect x="1" y="7" width="1" height="1" fill="#a1a1a166"/>
  <rect x="2" y="7" width="1" height="1" fill="#dddddd48"/>
  <rect x="3" y="7" width="3" height="1" fill="#dcdcdc48"/>
  <rect x="6" y="7" width="4" height="1" fill="#dddddd48"/>
  <rect x="10" y="7" width="4" height="1" fill="#dedede48"/>
  <rect x="14" y="7" width="2" height="1" fill="#dddddd48"/>
  <rect x="16" y="7" width="2" height="1" fill="#dcdcdc48"/>
  <rect x="24" y="7" width="1" height="2" fill="#9c9c9c66"/>
  <rect x="1" y="8" width="1" height="1" fill="#a0a0a066"/>
  <rect x="2" y="8" width="4" height="1" fill="#dedede48"/>
  <rect x="6" y="8" width="4" height="1" fill="#e0e0e048"/>
  <rect x="10" y="8" width="4" height="1" fill="#e1e1e148"/>
  <rect x="14" y="8" width="4" height="1" fill="#e0e0e048"/>
  <rect x="18" y="8" width="6" height="1" fill="#dedede48"/>
  <rect x="1" y="9" width="1" height="2" fill="#9e9e9e66"/>
  <rect x="2" y="9" width="4" height="1" fill="#e0e0e048"/>
  <rect x="6" y="9" width="4" height="1" fill="#e1e1e148"/>
  <rect x="10" y="9" width="6" height="1" fill="#e2e2e248"/>
  <rect x="16" y="9" width="8" height="1" fill="#e1e1e148"/>
  <rect x="24" y="9" width="1" height="4" fill="#9b9b9b66"/>
  <rect x="2" y="10" width="1" height="2" fill="#e2e2e248"/>
  <rect x="3" y="10" width="1" height="1" fill="#e3e3e348"/>
  <rect x="4" y="10" width="2" height="1" fill="#e4e4e448"/>
  <rect x="6" y="10" width="1" height="1" fill="#e5e5e548"/>
  <rect x="7" y="10" width="3" height="1" fill="#e3e3e348"/>
  <rect x="10" y="10" width="6" height="1" fill="#e4e4e448"/>
  <rect x="16" y="10" width="8" height="1" fill="#e3e3e348"/>
  <rect x="1" y="11" width="1" height="1" fill="#9c9c9c66"/>
  <rect x="3" y="11" width="1" height="1" fill="#e4e4e448"/>
  <rect x="4" y="11" width="2" height="1" fill="#e5e5e548"/>
  <rect x="6" y="11" width="1" height="1" fill="#e7e7e748"/>
  <rect x="7" y="11" width="2" height="1" fill="#e5e5e548"/>
  <rect x="9" y="11" width="1" height="1" fill="#e4e4e448"/>
  <rect x="10" y="11" width="14" height="1" fill="#e5e5e548"/>
  <rect x="1" y="12" width="1" height="1" fill="#9b9b9b66"/>
  <rect x="2" y="12" width="1" height="1" fill="#eeeeee48"/>
  <rect x="3" y="12" width="1" height="1" fill="#e7e7e748"/>
  <rect x="4" y="12" width="8" height="1" fill="#e9e9e948"/>
  <rect x="12" y="12" width="4" height="1" fill="#e8e8e848"/>
  <rect x="16" y="12" width="8" height="1" fill="#e9e9e948"/>
  <rect x="1" y="13" width="1" height="1" fill="#9a9a9a66"/>
  <rect x="2" y="13" width="1" height="1" fill="#efefef48"/>
  <rect x="3" y="13" width="1" height="1" fill="#e8e8e848"/>
  <rect x="4" y="13" width="3" height="1" fill="#eaeaea48"/>
  <rect x="7" y="13" width="9" height="1" fill="#ececec48"/>
  <rect x="16" y="13" width="8" height="1" fill="#ebebeb48"/>
  <rect x="24" y="13" width="1" height="2" fill="#9a9a9a66"/>
  <rect x="1" y="14" width="1" height="4" fill="#99999966"/>
  <rect x="2" y="14" width="1" height="1" fill="#f0f0f048"/>
  <rect x="3" y="14" width="1" height="2" fill="#e9e9e948"/>
  <rect x="4" y="14" width="20" height="1" fill="#ececec48"/>
  <rect x="2" y="15" width="1" height="1" fill="#f1f1f148"/>
  <rect x="4" y="15" width="12" height="1" fill="#eeeeee48"/>
  <rect x="16" y="15" width="8" height="1" fill="#ececec48"/>
  <rect x="24" y="15" width="1" height="8" fill="#9b9b9b66"/>
  <rect x="2" y="16" width="6" height="1" fill="#f1f1f148"/>
  <rect x="8" y="16" width="8" height="1" fill="#f0f0f048"/>
  <rect x="16" y="16" width="8" height="1" fill="#f1f1f148"/>
  <rect x="2" y="17" width="1" height="1" fill="#f2f2f248"/>
  <rect x="3" y="17" width="1" height="3" fill="#f1f1f148"/>
  <rect x="4" y="17" width="8" height="1" fill="#f5f5f548"/>
  <rect x="12" y="17" width="12" height="1" fill="#f3f3f348"/>
  <rect x="1" y="18" width="1" height="2" fill="#97979766"/>
  <rect x="2" y="18" width="1" height="1" fill="#f3f3f348"/>
  <rect x="4" y="18" width="20" height="2" fill="#f5f5f548"/>
  <rect x="2" y="19" width="1" height="1" fill="#f5f5f548"/>
  <rect x="1" y="20" width="1" height="1" fill="#9d9d9d66"/>
  <rect x="2" y="20" width="1" height="1" fill="#f2f2f248"/>
  <rect x="3" y="20" width="1" height="1" fill="#f9f9f948"/>
  <rect x="4" y="20" width="16" height="1" fill="#f7f7f748"/>
  <rect x="20" y="20" width="1" height="1" fill="#f2f2f248"/>
  <rect x="21" y="20" width="1" height="1" fill="#fefefe48"/>
  <rect x="22" y="20" width="1" height="1" fill="#f5f5f548"/>
  <rect x="23" y="20" width="1" height="1" fill="#f8f8f848"/>
  <rect x="1" y="21" width="1" height="1" fill="#a0a0a066"/>
  <rect x="2" y="21" width="1" height="1" fill="#ffffff48"/>
  <rect x="3" y="21" width="1" height="1" fill="#f7f7f748"/>
  <rect x="4" y="21" width="16" height="1" fill="#f8f8f848"/>
  <rect x="20" y="21" width="2" height="1" fill="#fefefe48"/>
  <rect x="22" y="21" width="1" height="1" fill="#f9f9f948"/>
  <rect x="23" y="21" width="1" height="1" fill="#fefefe48"/>
  <rect x="1" y="22" width="1" height="1" fill="#9d9d9d66"/>
  <rect x="2" y="22" width="1" height="1" fill="#f5f5f548"/>
  <rect x="3" y="22" width="1" height="1" fill="#f9f9f948"/>
  <rect x="4" y="22" width="16" height="1" fill="#fafafa48"/>
  <rect x="20" y="22" width="1" height="1" fill="#f7f7f748"/>
  <rect x="21" y="22" width="1" height="1" fill="#fafafa48"/>
  <rect x="22" y="22" width="1" height="1" fill="#ffffff48"/>
  <rect x="23" y="22" width="1" height="1" fill="#fdfdfd48"/>
  <rect x="1" y="23" width="1" height="1" fill="#96969658"/>
  <rect x="2" y="23" width="1" height="1" fill="#d3d3d352"/>
  <rect x="3" y="23" width="1" height="1" fill="#ffffff48"/>
  <rect x="4" y="23" width="4" height="1" fill="#fefefe48"/>
  <rect x="8" y="23" width="12" height="1" fill="#fdfdfd48"/>
  <rect x="20" y="23" width="1" height="1" fill="#fafafa48"/>
  <rect x="21" y="23" width="1" height="1" fill="#fefefe48"/>
  <rect x="22" y="23" width="1" height="1" fill="#fcfbfc48"/>
  <rect x="23" y="23" width="1" height="1" fill="#dbdbdb52"/>
  <rect x="24" y="23" width="1" height="1" fill="#9b9b9b58"/>
  <rect x="1" y="24" width="1" height="1" fill="#9c9c9c1b"/>
  <rect x="2" y="24" width="1" height="1" fill="#9c9c9c58"/>
  <rect x="3" y="24" width="1" height="1" fill="#9c9c9c66"/>
  <rect x="4" y="24" width="4" height="1" fill="#9b9b9b66"/>
  <rect x="8" y="24" width="15" height="1" fill="#9a9a9a66"/>
  <rect x="23" y="24" width="1" height="1" fill="#9a9a9a5e"/>
  <rect x="24" y="24" width="1" height="1" fill="#9b9b9b1b"/>
</svg>