<svg xmlns="http://www.w3.org/2000/svg" width="100" height="21" viewBox="0 0 100 21" shape-rendering="crispEdges">
  <rect x="0" y="0" width="1" height="1" fill="#969696"/>
  <rect x="1" y="0" width="1" height="1" fill="#9e9e9e"/>
  <rect x="2" y="0" width="1" height="1" fill="#949494"/>
  <rect x="3" y="0" width="1" height="1" fill="#959595"/>
  <rect x="4" y="0" width="12" height="1" fill="#9a9a9a"/>
  <rect x="16" y="0" width="80" height="1" fill="#999999"/>
  <rect x="96" y="0" width="1" height="1" fill="#969696"/>
  <rect x="97" y="0" width="1" height="1" fill="#959595"/>
  <rect x="98" y="0" width="1" height="1" fill="#a0a0a0"/>
  <rect x="99" y="0" width="1" height="1" fill="#999999"/>
  <rect x="0" y="1" width="1" height="1" fill="#9a9a9a"/>
  <rect x="1" y="1" width="1" height="1" fill="#dddddd"/>
  <rect x="2" y="1" width="1" height="1" fill="#e7e7e7"/>
  <rect x="3" y="1" width="1" height="1" fill="#e3e3e3"/>
  <rect x="4" y="1" width="12" height="1" fill="#eeeeee"/>
  <rect x="16" y="1" width="80" height="1" fill="#ececec"/>
  <rect x="96" y="1" width="1" height="1" fill="#e8e8e8"/>
  <rect x="97" y="1" width="1" height="1" fill="#ececec"/>
  <rect x="98" y="1" width="1" height="1" fill="#e1e1e1"/>
  <rect x="99" y="1" width="1" height="1" fill="#9e9e9e"/>
  <rect x="0" y="2" width="1" height="1" fill="#9b9b9b"/>
  <rect x="1" y="2" width="1" height="1" fill="#fdfdfd"/>
  <rect x="2" y="2" width="1" height="2" fill="#fefefe"/>
  <rect x="3" y="2" width="1" height="1" fill="#f2f2f2"/>
  <rect x="4" y="2" width="12" height="1" fill="#f8f8f8"/>
  <rect x="16" y="2" width="80" height="1" fill="#f7f7f7"/>
  <rect x="96" y="2" width="1" height="1" fill="#f1f1f1"/>
  <rect x="97" y="2" width="2" height="1" fill="#fdfdfd"/>
  <rect x="99" y="2" width="1" height="1" fill="#9b9b9b"/>
  <rect x="0" y="3" width="1" height="1" fill="#909090"/>
  <rect x="1" y="3" width="1" height="1" fill="#fcfbfc"/>
  <rect x="3" y="3" width="1" height="1" fill="#ffffff"/>
  <rect x="4" y="3" width="12" height="13" fill="#fefefe"/>
  <rect x="16" y="3" width="80" height="1" fill="#fdfdfd"/>
  <rect x="96" y="3" width="1" height="1" fill="#ffffff"/>
  <rect x="97" y="3" width="1" height="1" fill="#fcfbfc"/>
  <rect x="98" y="3" width="1" height="1" fill="#f9f9f9"/>
  <rect x="99" y="3" width="1" height="1" fill="#8e8e8e"/>
  <rect x="0" y="4" width="1" height="12" fill="#999999"/>
  <rect x="1" y="4" width="1" height="12" fill="#f8f8f8"/>
  <rect x="2" y="4" width="1" height="12" fill="#ffffff"/>
  <rect x="3" y="4" width="1" height="12" fill="#fdfdfd"/>
  <rect x="16" y="4" width="80" height="12" fill="#ffffff"/>
  <rect x="96" y="4" width="1" height="12" fill="#fcfbfc"/>
  <rect x="97" y="4" width="1" height="12" fill="#ffffff"/>
  <rect x="98" y="4" width="1" height="12" fill="#f8f8f8"/>
  <rect x="99" y="4" width="1" height="12" fill="#999999"/>
  <rect x="0" y="16" width="1" height="1" fill="#9a9a9a"/>
  <rect x="1" y="16" width="1" height="1" fill="#fafafa"/>
  <rect x="2" y="16" width="1" height="1" fill="#fdfdfd"/>
  <rect x="3" y="16" width="1" height="1" fill="#f6f6f6"/>
  <rect x="4" y="16" width="9" height="1" fill="#fcfbfc"/>
  <rect x="13" y="16" width="2" height="1" fill="#fdfdfd"/>
  <rect x="15" y="16" width="2" height="1" fill="#fefefe"/>
  <rect x="17" y="16" width="4" height="1" fill="#ffffff"/>
  <rect x="21" y="16" width="11" height="1" fill="#fefefe"/>
  <rect x="32" y="16" width="64" height="1" fill="#ffffff"/>
  <rect x="96" y="16" width="1" height="1" fill="#f3f3f3"/>
  <rect x="97" y="16" width="1" height="1" fill="#fcfbfc"/>
  <rect x="98" y="16" width="1" height="1" fill="#fafafa"/>
  <rect x="99" y="16" width="1" height="1" fill="#9a9a9a"/>
  <rect x="0" y="17" width="1" height="1" fill="#9c9c9c"/>
  <rect x="1" y="17" width="1" height="1" fill="#fdfdfd"/>
  <rect x="2" y="17" width="1" height="1" fill="#f2f2f2"/>
  <rect x="3" y="17" width="13" height="1" fill="#ffffff"/>
  <rect x="16" y="17" width="3" height="1" fill="#fefefe"/>
  <rect x="19" y="17" width="2" height="1" fill="#fdfdfd"/>
  <rect x="21" y="17" width="11" height="1" fill="#fcfbfc"/>
  <rect x="32" y="17" width="64" height="1" fill="#fdfdfd"/>
  <rect x="96" y="17" width="1" height="1" fill="#ffffff"/>
  <rect x="97" y="17" width="1" height="1" fill="#f3f3f3"/>
  <rect x="98" y="17" width="1" height="1" fill="#fefefe"/>
  <rect x="99" y="17" width="1" height="2" fill="#9d9d9d"/>
  <rect x="0" y="18" width="1" height="1" fill="#999999"/>
  <rect x="1" y="18" width="1" height="1" fill="#f7f7f7"/>
  <rect x="2" y="18" width="1" height="1" fill="#fcfbfc"/>
  <rect x="3" y="18" width="95" height="1" fill="#ffffff"/>
  <rect x="98" y="18" width="1" height="1" fill="#fcfbfc"/>
  <rect x="0" y="19" width="1" height="1" fill="#9e9e9e"/>
  <rect x="1" y="19" width="1" height="1" fill="#9a9a9a"/>
  <rect x="2" y="19" width="1" height="1" fill="#9b9b9b"/>
  <rect x="3" y="19" width="1" height="1" fill="#a2a2a2"/>
  <rect x="4" y="19" width="9" height="1" fill="#979797"/>
  <rect x="13" y="19" width="2" height="1" fill="#999999"/>
  <rect x="15" y="19" width="2" height="1" fill="#9a9a9a"/>
  <rect x="17" y="19" width="4" height="1" fill="#9b9b9b"/>
  <rect x="21" y="19" width="11" height="1" fill="#9a9a9a"/>
  <rect x="32" y="19" width="63" height="1" fill="#9b9b9b"/>
  <rect x="95" y="19" width="2" height="1" fill="#9c9c9c"/>
  <rect x="97" y="19" width="1" height="1" fill="#979797"/>
  <rect x="98" y="19" width="1" height="1" fill="#969696"/>
  <rect x="99" y="19" width="1" height="1" fill="#9a9a9a"/>
  <rect x="0" y="20" width="14" height="1" fill="#fefefe"/>
  <rect x="14" y="20" width="7" height="1" fill="#ffffff"/>
  <rect x="21" y="20" width="11" height="1" fill="#fefefe"/>
  <rect x="32" y="20" width="68" height="1" fill="#ffffff"/>
</svg>