<svg xmlns="http://www.w3.org/2000/svg" width="100" height="21" viewBox="0 0 100 21" shape-rendering="crispEdges">
  <rect x="0" y="0" width="2" height="1" fill="#c8c8c8"/>
  <rect x="2" y="0" width="1" height="1" fill="#cccccc"/>
  <rect x="3" y="0" width="1" height="1" fill="#cecece"/>
  <rect x="4" y="0" width="1" height="1" fill="#cdcdcd"/>
  <rect x="5" y="0" width="11" height="1" fill="#cbcbcb"/>
  <rect x="16" y="0" width="80" height="1" fill="#cccccc"/>
  <rect x="96" y="0" width="1" height="1" fill="#d2d2d2"/>
  <rect x="97" y="0" width="1" height="1" fill="#c5c5c5"/>
  <rect x="98" y="0" width="1" height="1" fill="#cdcdcd"/>
  <rect x="99" y="0" width="1" height="1" fill="#c6c6c6"/>
  <rect x="0" y="1" width="1" height="1" fill="#d3d3d3"/>
  <rect x="1" y="1" width="1" height="1" fill="#dddddd"/>
  <rect x="2" y="1" width="1" height="1" fill="#e4e4e4"/>
  <rect x="3" y="1" width="1" height="1" fill="#e5e5e5"/>
  <rect x="4" y="1" width="12" height="1" fill="#e3e3e3"/>
  <rect x="16" y="1" width="80" height="1" fill="#e4e4e4"/>
  <rect x="96" y="1" width="1" height="1" fill="#e8e8e8"/>
  <rect x="97" y="1" width="1" height="1" fill="#e0e0e0"/>
  <rect x="98" y="1" width="1" height="1" fill="#e4e4e4"/>
  <rect x="99" y="1" width="1" height="1" fill="#d3d3d3"/>
  <rect x="0" y="2" width="1" height="1" fill="#d7d7d7"/>
  <rect x="1" y="2" width="1" height="1" fill="#eeeeee"/>
  <rect x="2" y="2" width="1" height="1" fill="#fafafa"/>
  <rect x="3" y="2" width="1" height="1" fill="#f5f5f5"/>
  <rect x="4" y="2" width="12" height="1" fill="#f7f7f7"/>
  <rect x="16" y="2" width="80" height="1" fill="#f8f8f8"/>
  <rect x="96" y="2" width="1" height="1" fill="#f9f9f9"/>
  <rect x="97" y="2" width="1" height="1" fill="#f6f6f6"/>
  <rect x="98" y="2" width="1" height="1" fill="#f5f5f5"/>
  <rect x="99" y="2" width="1" height="1" fill="#d6d6d6"/>
  <rect x="0" y="3" width="1" height="1" fill="#d0d0d0"/>
  <rect x="1" y="3" width="1" height="1" fill="#f1f1f1"/>
  <rect x="2" y="3" width="1" height="1" fill="#ffffff"/>
  <rect x="3" y="3" width="1" height="1" fill="#f8f8f8"/>
  <rect x="4" y="3" width="12" height="1" fill="#fefefe"/>
  <rect x="16" y="3" width="80" height="1" fill="#ffffff"/>
  <rect x="96" y="3" width="1" height="1" fill="#fefefe"/>
  <rect x="97" y="3" width="1" height="1" fill="#ffffff"/>
  <rect x="98" y="3" width="1" height="1" fill="#fafafa"/>
  <rect x="99" y="3" width="1" height="1" fill="#d2d2d2"/>
  <rect x="0" y="4" width="1" height="12" fill="#cfcfcf"/>
  <rect x="1" y="4" width="1" height="12" fill="#f3f3f3"/>
  <rect x="2" y="4" width="1" height="12" fill="#fdfdfd"/>
  <rect x="3" y="4" width="1" height="12" fill="#f9f9f9"/>
  <rect x="4" y="4" width="4" height="12" fill="#fcfbfc"/>
  <rect x="8" y="4" width="4" height="12" fill="#fdfdfd"/>
  <rect x="12" y="4" width="4" height="12" fill="#fefefe"/>
  <rect x="16" y="4" width="80" height="12" fill="#fdfdfd"/>
  <rect x="96" y="4" width="1" height="12" fill="#fcfbfc"/>
  <rect x="97" y="4" width="1" height="12" fill="#fdfdfd"/>
  <rect x="98" y="4" width="1" height="12" fill="#f8f8f8"/>
  <rect x="99" y="4" width="1" height="13" fill="#cfcfcf"/>
  <rect x="0" y="16" width="1" height="2" fill="#cecece"/>
  <rect x="1" y="16" width="1" height="1" fill="#f1f1f1"/>
  <rect x="2" y="16" width="1" height="2" fill="#fefefe"/>
  <rect x="3" y="16" width="1" height="1" fill="#ffffff"/>
  <rect x="4" y="16" width="4" height="1" fill="#fdfdfd"/>
  <rect x="8" y="16" width="4" height="1" fill="#fefefe"/>
  <rect x="12" y="16" width="84" height="1" fill="#fdfdfd"/>
  <rect x="96" y="16" width="1" height="1" fill="#ffffff"/>
  <rect x="97" y="16" width="1" height="1" fill="#f9f9f9"/>
  <rect x="98" y="16" width="1" height="1" fill="#f3f3f3"/>
  <rect x="1" y="17" width="1" height="1" fill="#f5f5f5"/>
  <rect x="3" y="17" width="1" height="1" fill="#f7f7f7"/>
  <rect x="4" y="17" width="4" height="1" fill="#fefefe"/>
  <rect x="8" y="17" width="4" height="1" fill="#ffffff"/>
  <rect x="12" y="17" width="84" height="1" fill="#fefefe"/>
  <rect x="96" y="17" width="2" height="1" fill="#fdfdfd"/>
  <rect x="98" y="17" width="1" height="1" fill="#f1f1f1"/>
  <rect x="99" y="17" width="1" height="1" fill="#bebebe"/>
  <rect x="0" y="18" width="1" height="1" fill="#d2d2d2"/>
  <rect x="1" y="18" width="1" height="1" fill="#f3f3f3"/>
  <rect x="2" y="18" width="2" height="1" fill="#fefefe"/>
  <rect x="4" y="18" width="4" height="1" fill="#fdfdfd"/>
  <rect x="8" y="18" width="4" height="1" fill="#fefefe"/>
  <rect x="12" y="18" width="84" height="1" fill="#fdfdfd"/>
  <rect x="96" y="18" width="1" height="1" fill="#ffffff"/>
  <rect x="97" y="18" width="1" height="1" fill="#f9f9f9"/>
  <rect x="98" y="18" width="1" height="1" fill="#f2f2f2"/>
  <rect x="99" y="18" width="1" height="1" fill="#cdcdcd"/>
  <rect x="0" y="19" width="1" height="1" fill="#c9c9c9"/>
  <rect x="1" y="19" width="1" height="1" fill="#cfcfcf"/>
  <rect x="2" y="19" width="1" height="1" fill="#c8c8c8"/>
  <rect x="3" y="19" width="1" height="1" fill="#cdcdcd"/>
  <rect x="4" y="19" width="4" height="1" fill="#cccccc"/>
  <rect x="8" y="19" width="4" height="1" fill="#cdcdcd"/>
  <rect x="12" y="19" width="84" height="1" fill="#cccccc"/>
  <rect x="96" y="19" width="1" height="1" fill="#d6d6d6"/>
  <rect x="97" y="19" width="1" height="1" fill="#c1c1c1"/>
  <rect x="98" y="19" width="1" height="1" fill="#c8c8c8"/>
  <rect x="99" y="19" width="1" height="1" fill="#c6c6c6"/>
  <rect x="0" y="20" width="4" height="1" fill="#fefefe"/>
  <rect x="4" y="20" width="96" height="1" fill="#ffffff"/>
</svg>