<svg xmlns="http://www.w3.org/2000/svg" width="5" height="5" viewBox="0 0 5 5" shape-rendering="crispEdges">
  <rect x="0" y="0" width="1" height="1" fill="#ca39341e"/>
  <rect x="1" y="0" width="1" height="1" fill="#d4433dba"/>
  <rect x="2" y="0" width="1" height="1" fill="#d74641f3"/>
  <rect x="3" y="0" width="1" height="1" fill="#d4433dba"/>
  <rect x="4" y="0" width="1" height="1" fill="#cd3a351e"/>
  <rect x="0" y="1" width="1" height="1" fill="#cd3f3abb"/>
  <rect x="1" y="1" width="1" height="1" fill="#d74844"/>
  <rect x="2" y="1" width="1" height="1" fill="#da4b47"/>
  <rect x="3" y="1" width="1" height="1" fill="#d54743"/>
  <rect x="4" y="1" width="1" height="1" fill="#d2433fbf"/>
  <rect x="0" y="2" width="1" height="1" fill="#c53d39f3"/>
  <rect x="1" y="2" width="1" height="1" fill="#ce4642"/>
  <rect x="2" y="2" width="1" height="1" fill="#d24a46"/>
  <rect x="3" y="2" width="1" height="1" fill="#cd4541"/>
  <rect x="4" y="2" width="1" height="1" fill="#c63e3af9"/>
  <rect x="0" y="3" width="1" height="1" fill="#b53634bb"/>
  <rect x="1" y="3" width="1" height="1" fill="#bf403d"/>
  <rect x="2" y="3" width="1" height="1" fill="#c24340"/>
  <rect x="3" y="3" width="1" height="1" fill="#be3e3c"/>
  <rect x="4" y="3" width="1" height="1" fill="#ad2e2bbf"/>
  <rect x="0" y="4" width="1" height="1" fill="#a32a2a1e"/>
  <rect x="1" y="4" width="1" height="1" fill="#a32a2abb"/>
  <rect x="2" y="4" width="1" height="1" fill="#a32a2af4"/>
  <rect x="3" y="4" width="1" height="1" fill="#a32a2abb"/>
  <rect x="4" y="4" width="1" height="1" fill="#a42b2b1f"/>
</svg>