<svg xmlns="http://www.w3.org/2000/svg" width="125" height="1" viewBox="0 0 125 1" shape-rendering="crispEdges">
  <rect x="9" y="0" width="1" height="1" fill="#f7f7f7"/>
  <rect x="10" y="0" width="6" height="1" fill="#f6f6f6"/>
  <rect x="16" y="0" width="3" height="1" fill="#f5f5f5"/>
  <rect x="19" y="0" width="1" height="1" fill="#f2f2f2"/>
  <rect x="20" y="0" width="1" height="1" fill="#f1f1f1"/>
  <rect x="21" y="0" width="2" height="1" fill="#f0f0f0"/>
  <rect x="23" y="0" width="1" height="1" fill="#eeeeee"/>
  <rect x="24" y="0" width="1" height="1" fill="#ececec"/>
  <rect x="25" y="0" width="2" height="1" fill="#ebebeb"/>
  <rect x="27" y="0" width="1" height="1" fill="#eaeaea"/>
  <rect x="28" y="0" width="1" height="1" fill="#e9e9e9"/>
  <rect x="29" y="0" width="1" height="1" fill="#e8e8e8"/>
  <rect x="30" y="0" width="2" height="1" fill="#e7e7e7"/>
  <rect x="32" y="0" width="2" height="1" fill="#e5e5e5"/>
  <rect x="34" y="0" width="60" height="1" fill="#e4e4e4"/>
  <rect x="94" y="0" width="2" height="1" fill="#e5e5e5"/>
  <rect x="96" y="0" width="2" height="1" fill="#e7e7e7"/>
  <rect x="98" y="0" width="2" height="1" fill="#e9e9e9"/>
  <rect x="100" y="0" width="2" height="1" fill="#eaeaea"/>
  <rect x="102" y="0" width="1" height="1" fill="#ececec"/>
  <rect x="103" y="0" width="1" height="1" fill="#eeeeee"/>
  <rect x="104" y="0" width="1" height="1" fill="#f0f0f0"/>
  <rect x="105" y="0" width="1" height="1" fill="#f1f1f1"/>
  <rect x="106" y="0" width="2" height="1" fill="#f3f3f3"/>
  <rect x="108" y="0" width="2" height="1" fill="#f5f5f5"/>
  <rect x="110" y="0" width="2" height="1" fill="#f6f6f6"/>
  <rect x="112" y="0" width="4" height="1" fill="#f7f7f7"/>
</svg>