<svg xmlns="http://www.w3.org/2000/svg" width="100" height="24" viewBox="0 0 100 24" shape-rendering="crispEdges">
  <rect x="2" y="0" width="1" height="1" fill="#b8b8b8"/>
  <rect x="3" y="0" width="1" height="1" fill="#9c9c9c"/>
  <rect x="4" y="0" width="12" height="1" fill="#9b9b9b"/>
  <rect x="16" y="0" width="76" height="1" fill="#9c9c9c"/>
  <rect x="92" y="0" width="4" height="1" fill="#9e9e9e"/>
  <rect x="96" y="0" width="1" height="1" fill="#9b9b9b"/>
  <rect x="97" y="0" width="1" height="1" fill="#b0b0b0"/>
  <rect x="1" y="1" width="1" height="1" fill="#a8a8a8"/>
  <rect x="2" y="1" width="1" height="1" fill="#e1e1e1"/>
  <rect x="3" y="1" width="1" height="1" fill="#f5f5f5"/>
  <rect x="4" y="1" width="12" height="1" fill="#fdfdfd"/>
  <rect x="16" y="1" width="76" height="1" fill="#fefefe"/>
  <rect x="92" y="1" width="4" height="1" fill="#ffffff"/>
  <rect x="96" y="1" width="1" height="1" fill="#f8f8f8"/>
  <rect x="97" y="1" width="1" height="1" fill="#d9d9d9"/>
  <rect x="98" y="1" width="1" height="1" fill="#a5a5a5"/>
  <rect x="0" y="2" width="1" height="1" fill="#b8b8b8"/>
  <rect x="1" y="2" width="1" height="1" fill="#e2e2e2"/>
  <rect x="2" y="2" width="1" height="1" fill="#fefefe"/>
  <rect x="3" y="2" width="1" height="1" fill="#f7f7f7"/>
  <rect x="4" y="2" width="93" height="1" fill="#ffffff"/>
  <rect x="97" y="2" width="1" height="1" fill="#fafafa"/>
  <rect x="98" y="2" width="1" height="1" fill="#dadada"/>
  <rect x="99" y="2" width="1" height="1" fill="#b0b0b0"/>
  <rect x="0" y="3" width="1" height="1" fill="#9c9c9c"/>
  <rect x="1" y="3" width="1" height="1" fill="#f5f5f5"/>
  <rect x="2" y="3" width="1" height="1" fill="#f7f7f7"/>
  <rect x="3" y="3" width="1" height="1" fill="#fdfdfd"/>
  <rect x="4" y="3" width="12" height="1" fill="#fcfbfc"/>
  <rect x="16" y="3" width="76" height="1" fill="#fdfdfd"/>
  <rect x="92" y="3" width="5" height="1" fill="#fafafa"/>
  <rect x="97" y="3" width="1" height="17" fill="#ffffff"/>
  <rect x="98" y="3" width="1" height="1" fill="#f8f8f8"/>
  <rect x="99" y="3" width="1" height="1" fill="#9c9c9c"/>
  <rect x="0" y="4" width="1" height="16" fill="#9b9b9b"/>
  <rect x="1" y="4" width="1" height="16" fill="#fdfdfd"/>
  <rect x="2" y="4" width="1" height="17" fill="#ffffff"/>
  <rect x="3" y="4" width="13" height="16" fill="#fcfbfc"/>
  <rect x="16" y="4" width="81" height="12" fill="#fdfdfd"/>
  <rect x="98" y="4" width="1" height="12" fill="#fafafa"/>
  <rect x="99" y="4" width="1" height="12" fill="#9e9e9e"/>
  <rect x="16" y="16" width="16" height="4" fill="#fdfdfd"/>
  <rect x="32" y="16" width="16" height="4" fill="#fdfcff"/>
  <rect x="48" y="16" width="32" height="4" fill="#fdfdfd"/>
  <rect x="80" y="16" width="17" height="4" fill="#fdfcff"/>
  <rect x="98" y="16" width="1" height="5" fill="#fafafc"/>
  <rect x="99" y="16" width="1" height="4" fill="#9e9ea0"/>
  <rect x="0" y="20" width="1" height="1" fill="#9d9d9d"/>
  <rect x="1" y="20" width="1" height="1" fill="#f7f7f7"/>
  <rect x="3" y="20" width="10" height="1" fill="#fcfbfc"/>
  <rect x="13" y="20" width="2" height="1" fill="#fdfdfd"/>
  <rect x="15" y="20" width="2" height="1" fill="#fefefe"/>
  <rect x="17" y="20" width="81" height="1" fill="#ffffff"/>
  <rect x="99" y="20" width="1" height="1" fill="#a5a5a7"/>
  <rect x="0" y="21" width="1" height="1" fill="#b3b3b3"/>
  <rect x="1" y="21" width="1" height="1" fill="#e2e2e2"/>
  <rect x="2" y="21" width="1" height="1" fill="#fcfbfc"/>
  <rect x="3" y="21" width="11" height="1" fill="#fdfdfd"/>
  <rect x="14" y="21" width="4" height="1" fill="#fefefe"/>
  <rect x="18" y="21" width="79" height="1" fill="#ffffff"/>
  <rect x="97" y="21" width="1" height="1" fill="#fafafc"/>
  <rect x="98" y="21" width="1" height="1" fill="#e4e4e6"/>
  <rect x="99" y="21" width="1" height="1" fill="#b4b4b6"/>
  <rect x="0" y="22" width="1" height="1" fill="#adadad0a"/>
  <rect x="1" y="22" width="1" height="1" fill="#b1b1b1"/>
  <rect x="2" y="22" width="1" height="1" fill="#e7e7e7"/>
  <rect x="3" y="22" width="11" height="1" fill="#fefefe"/>
  <rect x="14" y="22" width="4" height="1" fill="#fdfdfd"/>
  <rect x="18" y="22" width="6" height="1" fill="#fcfbfc"/>
  <rect x="24" y="22" width="24" height="1" fill="#fcfbfe"/>
  <rect x="48" y="22" width="24" height="1" fill="#fcfbfc"/>
  <rect x="72" y="22" width="24" height="1" fill="#fcfbfe"/>
  <rect x="96" y="22" width="1" height="1" fill="#fafafc"/>
  <rect x="97" y="22" width="1" height="1" fill="#dddddf"/>
  <rect x="98" y="22" width="1" height="1" fill="#b1b1b3"/>
  <rect x="99" y="22" width="1" height="1" fill="#acacae0a"/>
  <rect x="2" y="23" width="1" height="1" fill="#adadad"/>
  <rect x="3" y="23" width="10" height="1" fill="#a5a5a5"/>
  <rect x="13" y="23" width="2" height="1" fill="#a4a4a4"/>
  <rect x="15" y="23" width="2" height="1" fill="#a3a3a3"/>
  <rect x="17" y="23" width="2" height="1" fill="#a2a2a2"/>
  <rect x="19" y="23" width="5" height="1" fill="#a1a1a1"/>
  <rect x="24" y="23" width="24" height="1" fill="#a1a0a3"/>
  <rect x="48" y="23" width="24" height="1" fill="#a1a1a1"/>
  <rect x="72" y="23" width="24" height="1" fill="#a1a0a3"/>
  <rect x="96" y="23" width="1" height="1" fill="#9b9a9d"/>
  <rect x="97" y="23" width="1" height="1" fill="#a9a8ab"/>
</svg>