<svg xmlns="http://www.w3.org/2000/svg" width="48" height="60" viewBox="0 0 48 60" shape-rendering="crispEdges">
  <rect x="3" y="15" width="1" height="1" fill="#d9d9d925"/>
  <rect x="4" y="15" width="1" height="1" fill="#dbdbdbad"/>
  <rect x="5" y="15" width="1" height="1" fill="#dadadaf1"/>
  <rect x="6" y="15" width="1" height="1" fill="#d9d9d9f1"/>
  <rect x="7" y="15" width="1" height="1" fill="#d5d5d5ad"/>
  <rect x="8" y="15" width="1" height="1" fill="#cccccc25"/>
  <rect x="15" y="15" width="1" height="1" fill="#b8b8b825"/>
  <rect x="16" y="15" width="1" height="1" fill="#b7b7b7ad"/>
  <rect x="17" y="15" width="1" height="1" fill="#b4b4b4f1"/>
  <rect x="18" y="15" width="1" height="1" fill="#b1b1b1f1"/>
  <rect x="19" y="15" width="1" height="1" fill="#afafafad"/>
  <rect x="20" y="15" width="1" height="1" fill="#afafaf25"/>
  <rect x="27" y="15" width="1" height="1" fill="#afafaf25"/>
  <rect x="28" y="15" width="1" height="1" fill="#afafafad"/>
  <rect x="29" y="15" width="2" height="1" fill="#afafaff1"/>
  <rect x="31" y="15" width="1" height="1" fill="#afafafad"/>
  <rect x="32" y="15" width="1" height="1" fill="#afafaf25"/>
  <rect x="39" y="15" width="1" height="1" fill="#b0b0b025"/>
  <rect x="40" y="15" width="1" height="1" fill="#afafafad"/>
  <rect x="41" y="15" width="2" height="1" fill="#afafaff1"/>
  <rect x="43" y="15" width="1" height="1" fill="#afafafad"/>
  <rect x="44" y="15" width="1" height="1" fill="#afafaf25"/>
  <rect x="2" y="16" width="1" height="1" fill="#d3d3d327"/>
  <rect x="3" y="16" width="1" height="1" fill="#dadadaef"/>
  <rect x="4" y="16" width="2" height="1" fill="#dddddd"/>
  <rect x="6" y="16" width="1" height="1" fill="#dbdbdb"/>
  <rect x="7" y="16" width="1" height="1" fill="#d9d9d9"/>
  <rect x="8" y="16" width="1" height="1" fill="#d5d5d5ef"/>
  <rect x="9" y="16" width="1" height="1" fill="#c9c9c927"/>
  <rect x="14" y="16" width="1" height="1" fill="#b4b4b427"/>
  <rect x="15" y="16" width="1" height="1" fill="#b8b8b8ef"/>
  <rect x="16" y="16" width="1" height="1" fill="#b9b9b9"/>
  <rect x="17" y="16" width="1" height="1" fill="#bbbbbb"/>
  <rect x="18" y="16" width="1" height="1" fill="#bebebe"/>
  <rect x="19" y="16" width="1" height="1" fill="#c0c0c0"/>
  <rect x="20" y="16" width="1" height="1" fill="#b1b1b1ef"/>
  <rect x="21" y="16" width="1" height="1" fill="#b0b0b027"/>
  <rect x="26" y="16" width="1" height="1" fill="#adadad27"/>
  <rect x="27" y="16" width="1" height="1" fill="#b0b0b0ef"/>
  <rect x="28" y="16" width="4" height="1" fill="#bfbfbf"/>
  <rect x="32" y="16" width="1" height="1" fill="#b2b2b2ef"/>
  <rect x="33" y="16" width="1" height="1" fill="#b1b1b127"/>
  <rect x="38" y="16" width="1" height="1" fill="#b0b0b027"/>
  <rect x="39" y="16" width="1" height="1" fill="#b0b0b0ef"/>
  <rect x="40" y="16" width="4" height="1" fill="#b0b0b0"/>
  <rect x="44" y="16" width="1" height="1" fill="#b0b0b0ef"/>
  <rect x="45" y="16" width="1" height="1" fill="#b0b0b027"/>
  <rect x="2" y="17" width="1" height="1" fill="#d3d3d3ad"/>
  <rect x="3" y="17" width="1" height="1" fill="#dbdbdb"/>
  <rect x="4" y="17" width="1" height="1" fill="#e0e0e0"/>
  <rect x="5" y="17" width="3" height="1" fill="#dedede"/>
  <rect x="8" y="17" width="1" height="1" fill="#dcdcdc"/>
  <rect x="9" y="17" width="1" height="1" fill="#cdcdcdad"/>
  <rect x="14" y="17" width="1" height="1" fill="#b3b3b3ad"/>
  <rect x="15" y="17" width="1" height="1" fill="#bababa"/>
  <rect x="16" y="17" width="1" height="1" fill="#bebebe"/>
  <rect x="17" y="17" width="1" height="1" fill="#c0c0c0"/>
  <rect x="18" y="17" width="2" height="1" fill="#c2c2c2"/>
  <rect x="20" y="17" width="1" height="1" fill="#b6b6b6"/>
  <rect x="21" y="17" width="1" height="1" fill="#b0b0b0ad"/>
  <rect x="26" y="17" width="1" height="1" fill="#adadadad"/>
  <rect x="27" y="17" width="1" height="1" fill="#b7b7b7"/>
  <rect x="28" y="17" width="4" height="1" fill="#c0c0c0"/>
  <rect x="32" y="17" width="1" height="1" fill="#b7b7b7"/>
  <rect x="33" y="17" width="1" height="1" fill="#b1b1b1ad"/>
  <rect x="38" y="17" width="1" height="1" fill="#b0b0b0ad"/>
  <rect x="39" y="17" width="6" height="1" fill="#b0b0b0"/>
  <rect x="45" y="17" width="1" height="1" fill="#b0b0b0ad"/>
  <rect x="2" y="18" width="1" height="1" fill="#d4d4d4f1"/>
  <rect x="3" y="18" width="1" height="1" fill="#dedede"/>
  <rect x="4" y="18" width="1" height="1" fill="#e3e3e3"/>
  <rect x="5" y="18" width="2" height="1" fill="#e2e2e2"/>
  <rect x="7" y="18" width="1" height="1" fill="#e4e4e4"/>
  <rect x="8" y="18" width="1" height="1" fill="#e2e2e2"/>
  <rect x="9" y="18" width="1" height="1" fill="#cececef3"/>
  <rect x="14" y="18" width="1" height="1" fill="#b3b3b3f1"/>
  <rect x="15" y="18" width="1" height="1" fill="#c0c0c0"/>
  <rect x="16" y="18" width="2" height="1" fill="#c2c2c2"/>
  <rect x="18" y="18" width="2" height="1" fill="#c4c4c4"/>
  <rect x="20" y="18" width="1" height="1" fill="#bfbfbf"/>
  <rect x="21" y="18" width="1" height="1" fill="#b0b0b0f3"/>
  <rect x="26" y="18" width="1" height="1" fill="#afafaff1"/>
  <rect x="27" y="18" width="1" height="1" fill="#c0c0c0"/>
  <rect x="28" y="18" width="4" height="1" fill="#c1c1c1"/>
  <rect x="32" y="18" width="1" height="1" fill="#bfbfbf"/>
  <rect x="33" y="18" width="1" height="1" fill="#b2b2b2f3"/>
  <rect x="38" y="18" width="1" height="1" fill="#b1b1b1f1"/>
  <rect x="39" y="18" width="1" height="1" fill="#b1b1b1"/>
  <rect x="40" y="18" width="5" height="1" fill="#b0b0b0"/>
  <rect x="45" y="18" width="1" height="1" fill="#b0b0b0f3"/>
  <rect x="2" y="19" width="1" height="3" fill="#d4d4d4"/>
  <rect x="3" y="19" width="1" height="1" fill="#e0e0e0"/>
  <rect x="4" y="19" width="1" height="1" fill="#e5e5e5"/>
  <rect x="5" y="19" width="2" height="3" fill="#e4e4e4"/>
  <rect x="7" y="19" width="1" height="3" fill="#e7e7e7"/>
  <rect x="8" y="19" width="1" height="3" fill="#e3e3e3"/>
  <rect x="9" y="19" width="1" height="1" fill="#d4d4d4"/>
  <rect x="14" y="19" width="1" height="1" fill="#b2b2b2"/>
  <rect x="15" y="19" width="1" height="1" fill="#c2c2c2"/>
  <rect x="16" y="19" width="4" height="1" fill="#c4c4c4"/>
  <rect x="20" y="19" width="1" height="1" fill="#c5c5c5"/>
  <rect x="21" y="19" width="1" height="1" fill="#b4b4b4"/>
  <rect x="26" y="19" width="1" height="2" fill="#afafaf"/>
  <rect x="27" y="19" width="1" height="1" fill="#c7c7c7"/>
  <rect x="28" y="19" width="4" height="1" fill="#c2c2c2"/>
  <rect x="32" y="19" width="1" height="1" fill="#c4c4c4"/>
  <rect x="33" y="19" width="1" height="1" fill="#b7b7b7"/>
  <rect x="38" y="19" width="2" height="1" fill="#b1b1b1"/>
  <rect x="40" y="19" width="6" height="1" fill="#b0b0b0"/>
  <rect x="3" y="20" width="1" height="1" fill="#e1e1e1"/>
  <rect x="4" y="20" width="1" height="2" fill="#e7e7e7"/>
  <rect x="9" y="20" width="1" height="6" fill="#d6d6d6"/>
  <rect x="14" y="20" width="1" height="1" fill="#b0b0b0"/>
  <rect x="15" y="20" width="5" height="1" fill="#c2c2c2"/>
  <rect x="20" y="20" width="1" height="4" fill="#c1c1c1"/>
  <rect x="21" y="20" width="1" height="4" fill="#afafaf"/>
  <rect x="27" y="20" width="6" height="8" fill="#c2c2c2"/>
  <rect x="33" y="20" width="1" height="6" fill="#afafaf"/>
  <rect x="38" y="20" width="1" height="4" fill="#b1b1b1"/>
  <rect x="39" y="20" width="2" height="4" fill="#b0b0b0"/>
  <rect x="41" y="20" width="3" height="4" fill="#afafaf"/>
  <rect x="44" y="20" width="2" height="4" fill="#b0b0b0"/>
  <rect x="3" y="21" width="1" height="1" fill="#e2e2e2"/>
  <rect x="14" y="21" width="1" height="1" fill="#afafaf"/>
  <rect x="15" y="21" width="1" height="6" fill="#c1c1c1"/>
  <rect x="16" y="21" width="4" height="7" fill="#c2c2c2"/>
  <rect x="26" y="21" width="1" height="3" fill="#adadad"/>
  <rect x="2" y="22" width="1" height="4" fill="#d5d5d5"/>
  <rect x="3" y="22" width="1" height="4" fill="#e3e3e3"/>
  <rect x="4" y="22" width="1" height="5" fill="#e8e8e8"/>
  <rect x="5" y="22" width="2" height="5" fill="#e5e5e5"/>
  <rect x="7" y="22" width="1" height="6" fill="#e8e8e8"/>
  <rect x="8" y="22" width="1" height="5" fill="#e4e4e4"/>
  <rect x="14" y="22" width="1" height="4" fill="#adadad"/>
  <rect x="20" y="24" width="1" height="4" fill="#bebebe"/>
  <rect x="21" y="24" width="1" height="2" fill="#b0b0b0"/>
  <rect x="26" y="24" width="1" height="2" fill="#b1b1b1"/>
  <rect x="38" y="24" width="2" height="2" fill="#b1b1b1"/>
  <rect x="40" y="24" width="6" height="2" fill="#b0b0b0"/>
  <rect x="2" y="26" width="1" height="1" fill="#d5d5d5f1"/>
  <rect x="3" y="26" width="1" height="1" fill="#e1e1e1"/>
  <rect x="9" y="26" width="1" height="1" fill="#d6d6d6f3"/>
  <rect x="14" y="26" width="1" height="1" fill="#adadadf1"/>
  <rect x="21" y="26" width="1" height="1" fill="#b0b0b0f3"/>
  <rect x="26" y="26" width="1" height="1" fill="#b1b1b1f1"/>
  <rect x="33" y="26" width="1" height="1" fill="#afafaff3"/>
  <rect x="38" y="26" width="1" height="1" fill="#b1b1b1f1"/>
  <rect x="39" y="26" width="1" height="2" fill="#b1b1b1"/>
  <rect x="40" y="26" width="5" height="2" fill="#b0b0b0"/>
  <rect x="45" y="26" width="1" height="1" fill="#b0b0b0f3"/>
  <rect x="2" y="27" width="1" height="1" fill="#d5d5d5ad"/>
  <rect x="3" y="27" width="1" height="1" fill="#dedede"/>
  <rect x="4" y="27" width="3" height="1" fill="#e7e7e7"/>
  <rect x="8" y="27" width="1" height="1" fill="#e3e3e3"/>
  <rect x="9" y="27" width="1" height="1" fill="#d5d5d5ad"/>
  <rect x="14" y="27" width="1" height="1" fill="#afafafad"/>
  <rect x="15" y="27" width="1" height="1" fill="#bbbbbb"/>
  <rect x="21" y="27" width="1" height="1" fill="#b0b0b0ad"/>
  <rect x="26" y="27" width="1" height="1" fill="#b1b1b1ad"/>
  <rect x="33" y="27" width="1" height="1" fill="#b0b0b0ad"/>
  <rect x="38" y="27" width="1" height="1" fill="#b1b1b1ad"/>
  <rect x="45" y="27" width="1" height="1" fill="#b0b0b0ad"/>
  <rect x="2" y="28" width="1" height="1" fill="#d6d6d628"/>
  <rect x="3" y="28" width="1" height="1" fill="#dcdcdcef"/>
  <rect x="4" y="28" width="1" height="1" fill="#e0e0e0"/>
  <rect x="5" y="28" width="3" height="1" fill="#e2e2e2"/>
  <rect x="8" y="28" width="1" height="1" fill="#dbdbdbef"/>
  <rect x="9" y="28" width="1" height="1" fill="#cfcfcf28"/>
  <rect x="14" y="28" width="1" height="1" fill="#b4b4b428"/>
  <rect x="15" y="28" width="1" height="1" fill="#b4b4b4ef"/>
  <rect x="16" y="28" width="4" height="1" fill="#bdbdbd"/>
  <rect x="20" y="28" width="1" height="1" fill="#acacacef"/>
  <rect x="21" y="28" width="1" height="1" fill="#b1b1b128"/>
  <rect x="26" y="28" width="1" height="1" fill="#b2b2b228"/>
  <rect x="27" y="28" width="1" height="1" fill="#adadadef"/>
  <rect x="28" y="28" width="3" height="1" fill="#bbbbbb"/>
  <rect x="31" y="28" width="1" height="1" fill="#bababa"/>
  <rect x="32" y="28" width="1" height="1" fill="#b6b6b6ef"/>
  <rect x="33" y="28" width="1" height="1" fill="#b0b0b028"/>
  <rect x="38" y="28" width="1" height="1" fill="#b1b1b128"/>
  <rect x="39" y="28" width="1" height="1" fill="#b0b0b0ef"/>
  <rect x="40" y="28" width="1" height="1" fill="#b0b0b0"/>
  <rect x="41" y="28" width="3" height="1" fill="#afafaf"/>
  <rect x="44" y="28" width="1" height="1" fill="#b0b0b0ef"/>
  <rect x="45" y="28" width="1" height="1" fill="#b0b0b028"/>
  <rect x="3" y="29" width="1" height="1" fill="#d9d9d927"/>
  <rect x="4" y="29" width="1" height="1" fill="#d7d7d7ad"/>
  <rect x="5" y="29" width="1" height="1" fill="#d7d7d7f2"/>
  <rect x="6" y="29" width="1" height="1" fill="#d3d3d3f2"/>
  <rect x="7" y="29" width="1" height="1" fill="#d4d4d4ad"/>
  <rect x="8" y="29" width="1" height="1" fill="#d7d7d727"/>
  <rect x="15" y="29" width="1" height="1" fill="#b7b7b727"/>
  <rect x="16" y="29" width="1" height="1" fill="#afafafad"/>
  <rect x="17" y="29" width="2" height="1" fill="#afafaff2"/>
  <rect x="19" y="29" width="1" height="1" fill="#afafafad"/>
  <rect x="20" y="29" width="1" height="1" fill="#b1b1b127"/>
  <rect x="27" y="29" width="1" height="1" fill="#b2b2b227"/>
  <rect x="28" y="29" width="1" height="1" fill="#b8b8b8ad"/>
  <rect x="29" y="29" width="1" height="1" fill="#b8b8b8f2"/>
  <rect x="30" y="29" width="1" height="1" fill="#b9b9b9f2"/>
  <rect x="31" y="29" width="1" height="1" fill="#b9b9b9ad"/>
  <rect x="32" y="29" width="1" height="1" fill="#b0b0b027"/>
  <rect x="39" y="29" width="1" height="1" fill="#bababa27"/>
  <rect x="40" y="29" width="1" height="1" fill="#bababaad"/>
  <rect x="41" y="29" width="2" height="1" fill="#b9b9b9f2"/>
  <rect x="43" y="29" width="1" height="1" fill="#b9b9b9ad"/>
  <rect x="44" y="29" width="1" height="1" fill="#bababa27"/>
  <rect x="15" y="45" width="1" height="1" fill="#e0e0e025"/>
  <rect x="16" y="45" width="1" height="1" fill="#e1e1e1ad"/>
  <rect x="17" y="45" width="2" height="1" fill="#e1e1e1f1"/>
  <rect x="19" y="45" width="1" height="1" fill="#e1e1e1ad"/>
  <rect x="20" y="45" width="1" height="1" fill="#e1e1e125"/>
  <rect x="27" y="45" width="1" height="1" fill="#e1e1e125"/>
  <rect x="28" y="45" width="1" height="1" fill="#e1e1e1ad"/>
  <rect x="29" y="45" width="2" height="1" fill="#e1e1e1f1"/>
  <rect x="31" y="45" width="1" height="1" fill="#e1e1e1ad"/>
  <rect x="32" y="45" width="1" height="1" fill="#e1e1e125"/>
  <rect x="39" y="45" width="1" height="1" fill="#e1e1e125"/>
  <rect x="40" y="45" width="1" height="1" fill="#e1e1e1ad"/>
  <rect x="41" y="45" width="2" height="1" fill="#e1e1e1f1"/>
  <rect x="43" y="45" width="1" height="1" fill="#e1e1e1ad"/>
  <rect x="44" y="45" width="1" height="1" fill="#e1e1e125"/>
  <rect x="14" y="46" width="1" height="1" fill="#e0e0e027"/>
  <rect x="15" y="46" width="1" height="1" fill="#e0e0e0ef"/>
  <rect x="16" y="46" width="4" height="1" fill="#e1e1e1"/>
  <rect x="20" y="46" width="1" height="1" fill="#e1e1e1ef"/>
  <rect x="21" y="46" width="1" height="1" fill="#e1e1e127"/>
  <rect x="26" y="46" width="1" height="1" fill="#e1e1e127"/>
  <rect x="27" y="46" width="1" height="1" fill="#e1e1e1ef"/>
  <rect x="28" y="46" width="4" height="1" fill="#e1e1e1"/>
  <rect x="32" y="46" width="1" height="1" fill="#e1e1e1ef"/>
  <rect x="33" y="46" width="1" height="1" fill="#e1e1e127"/>
  <rect x="38" y="46" width="1" height="1" fill="#e1e1e127"/>
  <rect x="39" y="46" width="1" height="1" fill="#e1e1e1ef"/>
  <rect x="40" y="46" width="4" height="1" fill="#e1e1e1"/>
  <rect x="44" y="46" width="1" height="1" fill="#e1e1e1ef"/>
  <rect x="45" y="46" width="1" height="1" fill="#e1e1e127"/>
  <rect x="14" y="47" width="1" height="1" fill="#e0e0e0ad"/>
  <rect x="15" y="47" width="1" height="1" fill="#e0e0e0"/>
  <rect x="16" y="47" width="1" height="1" fill="#e1e1e1"/>
  <rect x="17" y="47" width="4" height="1" fill="#e1e0e3"/>
  <rect x="21" y="47" width="1" height="1" fill="#e1e0e3ad"/>
  <rect x="26" y="47" width="1" height="1" fill="#e1e1e1ad"/>
  <rect x="27" y="47" width="6" height="1" fill="#e1e1e1"/>
  <rect x="33" y="47" width="1" height="1" fill="#e1e1e1ad"/>
  <rect x="38" y="47" width="1" height="1" fill="#e1e1e1ad"/>
  <rect x="39" y="47" width="6" height="1" fill="#e1e1e1"/>
  <rect x="45" y="47" width="1" height="1" fill="#e1e1e1ad"/>
  <rect x="14" y="48" width="1" height="1" fill="#e1e1e1f1"/>
  <rect x="15" y="48" width="1" height="1" fill="#e1e1e1"/>
  <rect x="16" y="48" width="1" height="1" fill="#e3e3e5"/>
  <rect x="17" y="48" width="3" height="1" fill="#e3e2e7"/>
  <rect x="20" y="48" width="1" height="1" fill="#e2e1e6"/>
  <rect x="21" y="48" width="1" height="1" fill="#e2e1e6f3"/>
  <rect x="26" y="48" width="1" height="1" fill="#e2e2e2f1"/>
  <rect x="27" y="48" width="1" height="1" fill="#e2e2e2"/>
  <rect x="28" y="48" width="4" height="7" fill="#e3e3e3"/>
  <rect x="32" y="48" width="1" height="1" fill="#e1e0e3"/>
  <rect x="33" y="48" width="1" height="1" fill="#e1e0e3f3"/>
  <rect x="38" y="48" width="1" height="1" fill="#e1e0e3f1"/>
  <rect x="39" y="48" width="1" height="1" fill="#e1e0e3"/>
  <rect x="40" y="48" width="5" height="1" fill="#e2e1e4"/>
  <rect x="45" y="48" width="1" height="1" fill="#e2e1e4f3"/>
  <rect x="14" y="49" width="1" height="6" fill="#e1e1e1"/>
  <rect x="15" y="49" width="1" height="6" fill="#e1e0e3"/>
  <rect x="16" y="49" width="4" height="6" fill="#e3e2e7"/>
  <rect x="20" y="49" width="2" height="7" fill="#e2e1e6"/>
  <rect x="26" y="49" width="2" height="6" fill="#e2e2e2"/>
  <rect x="32" y="49" width="2" height="7" fill="#e1e0e3"/>
  <rect x="38" y="49" width="2" height="7" fill="#e1e0e3"/>
  <rect x="40" y="49" width="6" height="7" fill="#e2e1e4"/>
  <rect x="14" y="55" width="2" height="1" fill="#e1e1e1"/>
  <rect x="16" y="55" width="1" height="1" fill="#e3e3e5"/>
  <rect x="17" y="55" width="3" height="1" fill="#e3e2e7"/>
  <rect x="26" y="55" width="2" height="1" fill="#e2e1e4"/>
  <rect x="28" y="55" width="4" height="1" fill="#e3e3e5"/>
  <rect x="14" y="56" width="1" height="1" fill="#e0e0e0f1"/>
  <rect x="15" y="56" width="1" height="2" fill="#e0e0e0"/>
  <rect x="16" y="56" width="1" height="1" fill="#e4e6e5"/>
  <rect x="17" y="56" width="3" height="1" fill="#e4e6e7"/>
  <rect x="20" y="56" width="1" height="1" fill="#dfe1e3"/>
  <rect x="21" y="56" width="1" height="1" fill="#dfe1e3f3"/>
  <rect x="26" y="56" width="1" height="1" fill="#e1e0e5f1"/>
  <rect x="27" y="56" width="1" height="2" fill="#e1e0e5"/>
  <rect x="28" y="56" width="3" height="1" fill="#e5e5e9"/>
  <rect x="31" y="56" width="1" height="1" fill="#e5e5e7"/>
  <rect x="32" y="56" width="1" height="2" fill="#dee0e2"/>
  <rect x="33" y="56" width="1" height="1" fill="#dee0e0f3"/>
  <rect x="38" y="56" width="1" height="1" fill="#dee0e0f1"/>
  <rect x="39" y="56" width="1" height="2" fill="#dee0e0"/>
  <rect x="40" y="56" width="4" height="1" fill="#e3e3e5"/>
  <rect x="44" y="56" width="1" height="2" fill="#e1e0e3"/>
  <rect x="45" y="56" width="1" height="1" fill="#e1e0e3f3"/>
  <rect x="14" y="57" width="1" height="1" fill="#e0e0e0ad"/>
  <rect x="16" y="57" width="4" height="1" fill="#e1e4e3"/>
  <rect x="20" y="57" width="1" height="1" fill="#dfe2e1"/>
  <rect x="21" y="57" width="1" height="1" fill="#dfe2e1ad"/>
  <rect x="26" y="57" width="1" height="1" fill="#e1e0e5ad"/>
  <rect x="28" y="57" width="4" height="1" fill="#e3e2e7"/>
  <rect x="33" y="57" width="1" height="1" fill="#dee0e0ad"/>
  <rect x="38" y="57" width="1" height="1" fill="#dee0e0ad"/>
  <rect x="40" y="57" width="4" height="1" fill="#e2e1e4"/>
  <rect x="45" y="57" width="1" height="1" fill="#e1e0e3ad"/>
  <rect x="14" y="58" width="1" height="1" fill="#e0e0e028"/>
  <rect x="15" y="58" width="1" height="1" fill="#e0e0e0ef"/>
  <rect x="16" y="58" width="4" height="1" fill="#dfe2e1"/>
  <rect x="20" y="58" width="1" height="1" fill="#dfe2e1ef"/>
  <rect x="21" y="58" width="1" height="1" fill="#dfe2e128"/>
  <rect x="26" y="58" width="1" height="1" fill="#e1e0e528"/>
  <rect x="27" y="58" width="1" height="1" fill="#e1e0e5ef"/>
  <rect x="28" y="58" width="4" height="1" fill="#e1e0e5"/>
  <rect x="32" y="58" width="1" height="1" fill="#dee0e2ef"/>
  <rect x="33" y="58" width="1" height="1" fill="#dee0e028"/>
  <rect x="38" y="58" width="1" height="1" fill="#dee0e028"/>
  <rect x="39" y="58" width="1" height="1" fill="#dee0e0ef"/>
  <rect x="40" y="58" width="4" height="1" fill="#e0dfe2"/>
  <rect x="44" y="58" width="1" height="1" fill="#e1e0e3ef"/>
  <rect x="45" y="58" width="1" height="1" fill="#e1e0e328"/>
  <rect x="15" y="59" width="1" height="1" fill="#e0e0e027"/>
  <rect x="16" y="59" width="1" height="1" fill="#dee0e0ad"/>
  <rect x="17" y="59" width="2" height="1" fill="#dee0e0f2"/>
  <rect x="19" y="59" width="1" height="1" fill="#dee0e0ad"/>
  <rect x="20" y="59" width="1" height="1" fill="#dfe2e127"/>
  <rect x="27" y="59" width="1" height="1" fill="#e1e0e527"/>
  <rect x="28" y="59" width="1" height="1" fill="#e0dfe4ad"/>
  <rect x="29" y="59" width="2" height="1" fill="#e0dfe4f2"/>
  <rect x="31" y="59" width="1" height="1" fill="#e0dfe4ad"/>
  <rect x="32" y="59" width="1" height="1" fill="#dee0e227"/>
  <rect x="39" y="59" width="1" height="1" fill="#dee0e027"/>
  <rect x="40" y="59" width="1" height="1" fill="#dddddfad"/>
  <rect x="41" y="59" width="2" height="1" fill="#dddddff2"/>
  <rect x="43" y="59" width="1" height="1" fill="#dddddfad"/>
  <rect x="44" y="59" width="1" height="1" fill="#e1e0e327"/>
</svg>