<svg xmlns="http://www.w3.org/2000/svg" width="44" height="44" viewBox="0 0 44 44" shape-rendering="crispEdges">
  <rect x="7" y="3" width="1" height="1" fill="#0000000c"/>
  <rect x="8" y="3" width="1" height="1" fill="#00000010"/>
  <rect x="9" y="3" width="1" height="1" fill="#00000012"/>
  <rect x="10" y="3" width="24" height="1" fill="#00000013"/>
  <rect x="34" y="3" width="1" height="1" fill="#00000012"/>
  <rect x="35" y="3" width="1" height="1" fill="#00000010"/>
  <rect x="36" y="3" width="1" height="1" fill="#0000000c"/>
  <rect x="5" y="4" width="1" height="1" fill="#0000000c"/>
  <rect x="6" y="4" width="1" height="1" fill="#00000014"/>
  <rect x="7" y="4" width="1" height="1" fill="#0000001b"/>
  <rect x="8" y="4" width="1" height="1" fill="#00000021"/>
  <rect x="9" y="4" width="1" height="1" fill="#00000024"/>
  <rect x="10" y="4" width="24" height="1" fill="#00000026"/>
  <rect x="34" y="4" width="1" height="1" fill="#00000024"/>
  <rect x="35" y="4" width="1" height="1" fill="#00000021"/>
  <rect x="36" y="4" width="1" height="1" fill="#0000001b"/>
  <rect x="37" y="4" width="1" height="1" fill="#00000014"/>
  <rect x="38" y="4" width="1" height="1" fill="#0000000c"/>
  <rect x="4" y="5" width="1" height="1" fill="#0000000c"/>
  <rect x="5" y="5" width="1" height="1" fill="#00000017"/>
  <rect x="6" y="5" width="1" height="1" fill="#0000001f"/>
  <rect x="7" y="5" width="1" height="1" fill="#0000000f"/>
  <rect x="36" y="5" width="1" height="1" fill="#0000000f"/>
  <rect x="37" y="5" width="1" height="1" fill="#0000001f"/>
  <rect x="38" y="5" width="1" height="1" fill="#00000017"/>
  <rect x="39" y="5" width="1" height="1" fill="#0000000c"/>
  <rect x="4" y="6" width="1" height="1" fill="#00000014"/>
  <rect x="5" y="6" width="1" height="1" fill="#0000001e"/>
  <rect x="38" y="6" width="1" height="1" fill="#0000001e"/>
  <rect x="39" y="6" width="1" height="1" fill="#00000014"/>
  <rect x="3" y="7" width="1" height="1" fill="#0000000c"/>
  <rect x="4" y="7" width="1" height="1" fill="#0000001b"/>
  <rect x="5" y="7" width="1" height="1" fill="#0000000f"/>
  <rect x="38" y="7" width="1" height="1" fill="#0000000f"/>
  <rect x="39" y="7" width="1" height="1" fill="#0000001b"/>
  <rect x="40" y="7" width="1" height="1" fill="#0000000c"/>
  <rect x="3" y="8" width="1" height="1" fill="#00000010"/>
  <rect x="4" y="8" width="1" height="1" fill="#00000021"/>
  <rect x="39" y="8" width="1" height="1" fill="#00000021"/>
  <rect x="40" y="8" width="1" height="1" fill="#00000010"/>
  <rect x="3" y="9" width="1" height="1" fill="#00000012"/>
  <rect x="4" y="9" width="1" height="1" fill="#00000024"/>
  <rect x="39" y="9" width="1" height="1" fill="#00000024"/>
  <rect x="40" y="9" width="1" height="1" fill="#00000012"/>
  <rect x="3" y="10" width="1" height="24" fill="#00000013"/>
  <rect x="4" y="10" width="1" height="24" fill="#00000026"/>
  <rect x="39" y="10" width="1" height="24" fill="#00000026"/>
  <rect x="40" y="10" width="1" height="24" fill="#00000013"/>
  <rect x="3" y="34" width="1" height="1" fill="#00000012"/>
  <rect x="4" y="34" width="1" height="1" fill="#00000024"/>
  <rect x="39" y="34" width="1" height="1" fill="#00000024"/>
  <rect x="40" y="34" width="1" height="1" fill="#00000012"/>
  <rect x="3" y="35" width="1" height="1" fill="#00000010"/>
  <rect x="4" y="35" width="1" height="1" fill="#00000021"/>
  <rect x="39" y="35" width="1" height="1" fill="#00000021"/>
  <rect x="40" y="35" width="1" height="1" fill="#00000010"/>
  <rect x="3" y="36" width="1" height="1" fill="#0000000c"/>
  <rect x="4" y="36" width="1" height="1" fill="#0000001b"/>
  <rect x="5" y="36" width="1" height="1" fill="#0000000f"/>
  <rect x="38" y="36" width="1" height="1" fill="#0000000f"/>
  <rect x="39" y="36" width="1" height="1" fill="#0000001b"/>
  <rect x="40" y="36" width="1" height="1" fill="#0000000c"/>
  <rect x="4" y="37" width="1" height="1" fill="#00000014"/>
  <rect x="5" y="37" width="1" height="1" fill="#0000001e"/>
  <rect x="38" y="37" width="1" height="1" fill="#0000001e"/>
  <rect x="39" y="37" width="1" height="1" fill="#00000014"/>
  <rect x="4" y="38" width="1" height="1" fill="#0000000c"/>
  <rect x="5" y="38" width="1" height="1" fill="#00000017"/>
  <rect x="6" y="38" width="1" height="1" fill="#0000001e"/>
  <rect x="7" y="38" width="1" height="1" fill="#0000000f"/>
  <rect x="36" y="38" width="1" height="1" fill="#0000000f"/>
  <rect x="37" y="38" width="1" height="1" fill="#0000001e"/>
  <rect x="38" y="38" width="1" height="1" fill="#00000017"/>
  <rect x="39" y="38" width="1" height="1" fill="#0000000c"/>
  <rect x="5" y="39" width="1" height="1" fill="#0000000c"/>
  <rect x="6" y="39" width="1" height="1" fill="#00000014"/>
  <rect x="7" y="39" width="1" height="1" fill="#0000001b"/>
  <rect x="8" y="39" width="1" height="1" fill="#00000021"/>
  <rect x="9" y="39" width="1" height="1" fill="#00000024"/>
  <rect x="10" y="39" width="24" height="1" fill="#00000026"/>
  <rect x="34" y="39" width="1" height="1" fill="#00000024"/>
  <rect x="35" y="39" width="1" height="1" fill="#00000021"/>
  <rect x="36" y="39" width="1" height="1" fill="#0000001b"/>
  <rect x="37" y="39" width="1" height="1" fill="#00000014"/>
  <rect x="38" y="39" width="1" height="1" fill="#0000000c"/>
  <rect x="7" y="40" width="1" height="1" fill="#0000000c"/>
  <rect x="8" y="40" width="1" height="1" fill="#00000010"/>
  <rect x="9" y="40" width="1" height="1" fill="#00000012"/>
  <rect x="10" y="40" width="24" height="1" fill="#00000013"/>
  <rect x="34" y="40" width="1" height="1" fill="#00000012"/>
  <rect x="35" y="40" width="1" height="1" fill="#00000010"/>
  <rect x="36" y="40" width="1" height="1" fill="#0000000c"/>
</svg>