<svg xmlns="http://www.w3.org/2000/svg" width="112" height="36" viewBox="0 0 112 36" shape-rendering="crispEdges">
  <rect x="1" y="3" width="1" height="1" fill="#e1e1e149"/>
  <rect x="2" y="3" width="1" height="1" fill="#e5e5e5e6"/>
  <rect x="3" y="3" width="1" height="1" fill="#e5e5e5"/>
  <rect x="4" y="3" width="1" height="1" fill="#e4e4e4"/>
  <rect x="5" y="3" width="1" height="1" fill="#e3e3e3"/>
  <rect x="6" y="3" width="1" height="1" fill="#dedede"/>
  <rect x="7" y="3" width="6" height="1" fill="#e2e2e2"/>
  <rect x="13" y="3" width="2" height="1" fill="#e1e1e1"/>
  <rect x="15" y="3" width="1" height="1" fill="#e0e0e0"/>
  <rect x="16" y="3" width="1" height="1" fill="#dedede"/>
  <rect x="17" y="3" width="2" height="1" fill="#dddddd"/>
  <rect x="19" y="3" width="3" height="1" fill="#dcdcdc"/>
  <rect x="22" y="3" width="1" height="1" fill="#dddddd"/>
  <rect x="23" y="3" width="1" height="1" fill="#dedede"/>
  <rect x="24" y="3" width="1" height="1" fill="#e0e0e0"/>
  <rect x="25" y="3" width="1" height="1" fill="#e1e1e1e6"/>
  <rect x="26" y="3" width="1" height="1" fill="#e2e2e249"/>
  <rect x="29" y="3" width="1" height="1" fill="#e1e1e149"/>
  <rect x="30" y="3" width="1" height="1" fill="#e1e1e1e6"/>
  <rect x="31" y="3" width="2" height="1" fill="#e0e0e0"/>
  <rect x="33" y="3" width="2" height="1" fill="#dedede"/>
  <rect x="35" y="3" width="18" height="1" fill="#dddddd"/>
  <rect x="53" y="3" width="1" height="1" fill="#dddddde6"/>
  <rect x="54" y="3" width="1" height="1" fill="#dddddd49"/>
  <rect x="57" y="3" width="1" height="1" fill="#dddddd49"/>
  <rect x="58" y="3" width="1" height="1" fill="#dddddde6"/>
  <rect x="59" y="3" width="18" height="1" fill="#dddddd"/>
  <rect x="77" y="3" width="2" height="1" fill="#dedede"/>
  <rect x="79" y="3" width="1" height="1" fill="#e0e0e0"/>
  <rect x="80" y="3" width="1" height="1" fill="#e1e1e1"/>
  <rect x="81" y="3" width="1" height="1" fill="#e2e2e2e6"/>
  <rect x="82" y="3" width="1" height="1" fill="#e2e2e249"/>
  <rect x="85" y="3" width="1" height="1" fill="#e2e2e249"/>
  <rect x="86" y="3" width="1" height="1" fill="#e3e3e3e6"/>
  <rect x="87" y="3" width="1" height="1" fill="#e3e3e3"/>
  <rect x="88" y="3" width="8" height="1" fill="#dcdcdc"/>
  <rect x="96" y="3" width="7" height="1" fill="#dddddd"/>
  <rect x="103" y="3" width="2" height="1" fill="#dcdcdc"/>
  <rect x="105" y="3" width="1" height="1" fill="#dbdbdb"/>
  <rect x="106" y="3" width="3" height="1" fill="#dcdcdc"/>
  <rect x="109" y="3" width="1" height="1" fill="#dcdcdce6"/>
  <rect x="110" y="3" width="1" height="1" fill="#dddddd49"/>
  <rect x="1" y="4" width="1" height="1" fill="#dededee6"/>
  <rect x="2" y="4" width="1" height="1" fill="#e9e9e9"/>
  <rect x="3" y="4" width="1" height="1" fill="#eaeaea"/>
  <rect x="4" y="4" width="1" height="1" fill="#e9e9e9"/>
  <rect x="5" y="4" width="1" height="1" fill="#e8e8e8"/>
  <rect x="6" y="4" width="1" height="1" fill="#ebebeb"/>
  <rect x="7" y="4" width="6" height="1" fill="#e7e7e7"/>
  <rect x="13" y="4" width="2" height="1" fill="#e8e8e8"/>
  <rect x="15" y="4" width="2" height="1" fill="#e9e9e9"/>
  <rect x="17" y="4" width="2" height="1" fill="#eaeaea"/>
  <rect x="19" y="4" width="5" height="1" fill="#ebebeb"/>
  <rect x="24" y="4" width="1" height="4" fill="#e9e9e9"/>
  <rect x="25" y="4" width="1" height="4" fill="#eeeeee"/>
  <rect x="26" y="4" width="1" height="1" fill="#e1e1e1e6"/>
  <rect x="29" y="4" width="1" height="1" fill="#e1e1e1e6"/>
  <rect x="30" y="4" width="1" height="4" fill="#eeeeee"/>
  <rect x="31" y="4" width="17" height="4" fill="#eaeaea"/>
  <rect x="48" y="4" width="4" height="4" fill="#ebebeb"/>
  <rect x="52" y="4" width="1" height="4" fill="#ececec"/>
  <rect x="53" y="4" width="1" height="4" fill="#e9e9e9"/>
  <rect x="54" y="4" width="1" height="1" fill="#dcdcdce6"/>
  <rect x="57" y="4" width="1" height="1" fill="#dcdcdce6"/>
  <rect x="58" y="4" width="1" height="4" fill="#e9e9e9"/>
  <rect x="59" y="4" width="1" height="4" fill="#ececec"/>
  <rect x="60" y="4" width="20" height="4" fill="#ebebeb"/>
  <rect x="80" y="4" width="1" height="4" fill="#e9e9e9"/>
  <rect x="81" y="4" width="1" height="4" fill="#eeeeee"/>
  <rect x="82" y="4" width="1" height="1" fill="#e1e1e1e6"/>
  <rect x="85" y="4" width="1" height="1" fill="#e2e2e2e6"/>
  <rect x="86" y="4" width="1" height="4" fill="#eeeeee"/>
  <rect x="87" y="4" width="9" height="4" fill="#eaeaea"/>
  <rect x="96" y="4" width="12" height="4" fill="#ebebeb"/>
  <rect x="108" y="4" width="1" height="4" fill="#efefef"/>
  <rect x="109" y="4" width="1" height="4" fill="#ebebeb"/>
  <rect x="110" y="4" width="1" height="1" fill="#e0e0e0e6"/>
  <rect x="1" y="5" width="1" height="1" fill="#dcdcdc"/>
  <rect x="2" y="5" width="1" height="1" fill="#eaeaea"/>
  <rect x="3" y="5" width="2" height="1" fill="#ebebeb"/>
  <rect x="5" y="5" width="11" height="1" fill="#eaeaea"/>
  <rect x="16" y="5" width="8" height="3" fill="#ebebeb"/>
  <rect x="26" y="5" width="1" height="2" fill="#e1e1e1"/>
  <rect x="29" y="5" width="1" height="2" fill="#e1e1e1"/>
  <rect x="54" y="5" width="1" height="2" fill="#dcdcdc"/>
  <rect x="57" y="5" width="1" height="2" fill="#dcdcdc"/>
  <rect x="82" y="5" width="1" height="2" fill="#e1e1e1"/>
  <rect x="85" y="5" width="1" height="2" fill="#e1e1e1"/>
  <rect x="110" y="5" width="1" height="2" fill="#e0e0e0"/>
  <rect x="1" y="6" width="1" height="1" fill="#dbdbdb"/>
  <rect x="2" y="6" width="1" height="1" fill="#e9e9e9"/>
  <rect x="3" y="6" width="13" height="2" fill="#eaeaea"/>
  <rect x="1" y="7" width="1" height="1" fill="#dbdbdbe6"/>
  <rect x="2" y="7" width="1" height="1" fill="#e7e7e7"/>
  <rect x="26" y="7" width="1" height="1" fill="#e1e1e1e7"/>
  <rect x="29" y="7" width="1" height="1" fill="#e1e1e1e6"/>
  <rect x="54" y="7" width="1" height="1" fill="#dcdcdce7"/>
  <rect x="57" y="7" width="1" height="1" fill="#dcdcdce6"/>
  <rect x="82" y="7" width="1" height="1" fill="#e1e1e1e7"/>
  <rect x="85" y="7" width="1" height="1" fill="#e1e1e1e6"/>
  <rect x="110" y="7" width="1" height="1" fill="#e0e0e0e7"/>
  <rect x="1" y="8" width="1" height="1" fill="#d7d7d74a"/>
  <rect x="2" y="8" width="1" height="1" fill="#dddddde7"/>
  <rect x="3" y="8" width="13" height="1" fill="#dedede"/>
  <rect x="16" y="8" width="7" height="1" fill="#e0e0e0"/>
  <rect x="23" y="8" width="1" height="1" fill="#dedede"/>
  <rect x="24" y="8" width="1" height="1" fill="#dddddd"/>
  <rect x="25" y="8" width="1" height="1" fill="#dcdcdce4"/>
  <rect x="26" y="8" width="1" height="1" fill="#dcdcdc4a"/>
  <rect x="29" y="8" width="1" height="1" fill="#dcdcdc4a"/>
  <rect x="30" y="8" width="1" height="1" fill="#dddddde7"/>
  <rect x="31" y="8" width="3" height="1" fill="#dddddd"/>
  <rect x="34" y="8" width="2" height="1" fill="#dedede"/>
  <rect x="36" y="8" width="12" height="1" fill="#dddddd"/>
  <rect x="48" y="8" width="5" height="1" fill="#dcdcdc"/>
  <rect x="53" y="8" width="1" height="1" fill="#dcdcdce4"/>
  <rect x="54" y="8" width="1" height="1" fill="#dcdcdc4a"/>
  <rect x="57" y="8" width="1" height="1" fill="#dcdcdc4a"/>
  <rect x="58" y="8" width="1" height="1" fill="#dcdcdce7"/>
  <rect x="59" y="8" width="21" height="1" fill="#dcdcdc"/>
  <rect x="80" y="8" width="1" height="1" fill="#dbdbdb"/>
  <rect x="81" y="8" width="1" height="1" fill="#dbdbdbe4"/>
  <rect x="82" y="8" width="1" height="1" fill="#dbdbdb4a"/>
  <rect x="85" y="8" width="1" height="1" fill="#dbdbdb4a"/>
  <rect x="86" y="8" width="1" height="1" fill="#dcdcdce7"/>
  <rect x="87" y="8" width="3" height="1" fill="#dcdcdc"/>
  <rect x="90" y="8" width="17" height="1" fill="#dddddd"/>
  <rect x="107" y="8" width="2" height="1" fill="#dcdcdc"/>
  <rect x="109" y="8" width="1" height="1" fill="#dbdbdbe4"/>
  <rect x="110" y="8" width="1" height="1" fill="#dbdbdb4a"/>
  <rect x="1" y="15" width="1" height="1" fill="#c1c1c149"/>
  <rect x="2" y="15" width="1" height="1" fill="#c1c1c1e6"/>
  <rect x="3" y="15" width="11" height="1" fill="#c1c1c1"/>
  <rect x="14" y="15" width="4" height="1" fill="#c0c0c0"/>
  <rect x="18" y="15" width="4" height="1" fill="#bfbfbf"/>
  <rect x="22" y="15" width="1" height="1" fill="#c0c0c0"/>
  <rect x="23" y="15" width="1" height="1" fill="#c1c1c1"/>
  <rect x="24" y="15" width="1" height="1" fill="#c2c2c2"/>
  <rect x="25" y="15" width="1" height="1" fill="#c4c4c4e6"/>
  <rect x="26" y="15" width="1" height="1" fill="#c5c5c549"/>
  <rect x="29" y="15" width="1" height="1" fill="#c5c5c549"/>
  <rect x="30" y="15" width="1" height="1" fill="#c5c5c5e6"/>
  <rect x="31" y="15" width="1" height="1" fill="#c5c5c5"/>
  <rect x="32" y="15" width="4" height="1" fill="#c4c4c4"/>
  <rect x="36" y="15" width="17" height="1" fill="#c2c2c2"/>
  <rect x="53" y="15" width="1" height="1" fill="#c2c2c2e6"/>
  <rect x="54" y="15" width="1" height="1" fill="#c2c2c249"/>
  <rect x="57" y="15" width="1" height="1" fill="#c2c2c249"/>
  <rect x="58" y="15" width="1" height="1" fill="#c2c2c2e6"/>
  <rect x="59" y="15" width="19" height="1" fill="#c2c2c2"/>
  <rect x="78" y="15" width="3" height="1" fill="#c4c4c4"/>
  <rect x="81" y="15" width="1" height="1" fill="#c4c4c4e6"/>
  <rect x="82" y="15" width="1" height="1" fill="#c5c5c549"/>
  <rect x="85" y="15" width="1" height="1" fill="#c5c5c549"/>
  <rect x="86" y="15" width="1" height="1" fill="#c5c5c5e6"/>
  <rect x="87" y="15" width="1" height="1" fill="#c5c5c5"/>
  <rect x="88" y="15" width="15" height="1" fill="#c4c4c4"/>
  <rect x="103" y="15" width="2" height="1" fill="#c2c2c2"/>
  <rect x="105" y="15" width="1" height="1" fill="#c1c1c1"/>
  <rect x="106" y="15" width="3" height="1" fill="#c2c2c2"/>
  <rect x="109" y="15" width="1" height="1" fill="#c2c2c2e6"/>
  <rect x="110" y="15" width="1" height="1" fill="#c4c4c449"/>
  <rect x="1" y="16" width="1" height="1" fill="#c1c1c1e6"/>
  <rect x="2" y="16" width="23" height="1" fill="#c1c1c1"/>
  <rect x="25" y="16" width="1" height="1" fill="#c0c0c0"/>
  <rect x="26" y="16" width="1" height="1" fill="#c1c1c1e6"/>
  <rect x="29" y="16" width="1" height="1" fill="#c1c1c1e6"/>
  <rect x="30" y="16" width="24" height="1" fill="#c1c1c1"/>
  <rect x="54" y="16" width="1" height="1" fill="#c1c1c1e6"/>
  <rect x="57" y="16" width="1" height="1" fill="#c1c1c1e6"/>
  <rect x="58" y="16" width="24" height="1" fill="#c1c1c1"/>
  <rect x="82" y="16" width="1" height="1" fill="#c1c1c1e6"/>
  <rect x="85" y="16" width="1" height="1" fill="#c1c1c1e6"/>
  <rect x="86" y="16" width="24" height="1" fill="#c1c1c1"/>
  <rect x="110" y="16" width="1" height="1" fill="#c1c1c1e6"/>
  <rect x="1" y="17" width="26" height="2" fill="#c1c1c1"/>
  <rect x="29" y="17" width="26" height="2" fill="#c1c1c1"/>
  <rect x="57" y="17" width="26" height="2" fill="#c1c1c1"/>
  <rect x="85" y="17" width="26" height="2" fill="#c1c1c1"/>
  <rect x="1" y="19" width="1" height="1" fill="#c1c1c1e6"/>
  <rect x="2" y="19" width="24" height="1" fill="#c1c1c1"/>
  <rect x="26" y="19" width="1" height="1" fill="#c1c1c1e7"/>
  <rect x="29" y="19" width="1" height="1" fill="#c1c1c1e6"/>
  <rect x="30" y="19" width="24" height="1" fill="#c1c1c1"/>
  <rect x="54" y="19" width="1" height="1" fill="#c1c1c1e7"/>
  <rect x="57" y="19" width="1" height="1" fill="#c1c1c1e6"/>
  <rect x="58" y="19" width="24" height="1" fill="#c1c1c1"/>
  <rect x="82" y="19" width="1" height="1" fill="#c1c1c1e7"/>
  <rect x="85" y="19" width="1" height="1" fill="#c1c1c1e6"/>
  <rect x="86" y="19" width="24" height="1" fill="#c1c1c1"/>
  <rect x="110" y="19" width="1" height="1" fill="#c1c1c1e7"/>
  <rect x="1" y="20" width="1" height="1" fill="#c1c1c14a"/>
  <rect x="2" y="20" width="1" height="1" fill="#c1c1c1e7"/>
  <rect x="3" y="20" width="22" height="1" fill="#c1c1c1"/>
  <rect x="25" y="20" width="1" height="1" fill="#c1c1c1e4"/>
  <rect x="26" y="20" width="1" height="1" fill="#c1c1c14a"/>
  <rect x="29" y="20" width="1" height="1" fill="#c1c1c14a"/>
  <rect x="30" y="20" width="1" height="1" fill="#c1c1c1e7"/>
  <rect x="31" y="20" width="22" height="1" fill="#c1c1c1"/>
  <rect x="53" y="20" width="1" height="1" fill="#c1c1c1e4"/>
  <rect x="54" y="20" width="1" height="1" fill="#c1c1c14a"/>
  <rect x="57" y="20" width="1" height="1" fill="#c1c1c14a"/>
  <rect x="58" y="20" width="1" height="1" fill="#c1c1c1e7"/>
  <rect x="59" y="20" width="22" height="1" fill="#c1c1c1"/>
  <rect x="81" y="20" width="1" height="1" fill="#c1c1c1e4"/>
  <rect x="82" y="20" width="1" height="1" fill="#c1c1c14a"/>
  <rect x="85" y="20" width="1" height="1" fill="#c1c1c14a"/>
  <rect x="86" y="20" width="1" height="1" fill="#c1c1c1e7"/>
  <rect x="87" y="20" width="22" height="1" fill="#c1c1c1"/>
  <rect x="109" y="20" width="1" height="1" fill="#c1c1c1e4"/>
  <rect x="110" y="20" width="1" height="1" fill="#c1c1c14a"/>
  <rect x="1" y="27" width="1" height="1" fill="#8f8f8f49"/>
  <rect x="2" y="27" width="1" height="1" fill="#8f8f8fe6"/>
  <rect x="3" y="27" width="1" height="1" fill="#8f8f8f"/>
  <rect x="4" y="27" width="12" height="1" fill="#909090"/>
  <rect x="16" y="27" width="9" height="1" fill="#8f8f8f"/>
  <rect x="25" y="27" width="1" height="1" fill="#8f8f8fe6"/>
  <rect x="26" y="27" width="1" height="1" fill="#8f8f8f49"/>
  <rect x="29" y="27" width="1" height="1" fill="#8f8f8f49"/>
  <rect x="30" y="27" width="1" height="1" fill="#8f8f8fe6"/>
  <rect x="31" y="27" width="22" height="1" fill="#8f8f8f"/>
  <rect x="53" y="27" width="1" height="1" fill="#8f8f8fe6"/>
  <rect x="54" y="27" width="1" height="1" fill="#8f8f8f49"/>
  <rect x="57" y="27" width="1" height="1" fill="#8f8f8f49"/>
  <rect x="58" y="27" width="1" height="1" fill="#8f8f8fe6"/>
  <rect x="59" y="27" width="22" height="1" fill="#8f8f8f"/>
  <rect x="81" y="27" width="1" height="1" fill="#8f8f8fe6"/>
  <rect x="82" y="27" width="1" height="1" fill="#8f8f8f49"/>
  <rect x="85" y="27" width="1" height="1" fill="#8f8f8f49"/>
  <rect x="86" y="27" width="1" height="1" fill="#8f8f8fe6"/>
  <rect x="87" y="27" width="22" height="1" fill="#8f8f8f"/>
  <rect x="109" y="27" width="1" height="1" fill="#8f8f8fe6"/>
  <rect x="110" y="27" width="1" height="1" fill="#8f8f8f49"/>
  <rect x="1" y="28" width="1" height="1" fill="#8f8f8fe6"/>
  <rect x="2" y="28" width="6" height="1" fill="#8f8f8f"/>
  <rect x="8" y="28" width="8" height="4" fill="#909090"/>
  <rect x="16" y="28" width="10" height="1" fill="#8f8f8f"/>
  <rect x="26" y="28" width="1" height="1" fill="#8f8f8fe6"/>
  <rect x="29" y="28" width="1" height="1" fill="#8f8f8fe6"/>
  <rect x="30" y="28" width="24" height="1" fill="#8f8f8f"/>
  <rect x="54" y="28" width="1" height="1" fill="#8f8f8fe6"/>
  <rect x="57" y="28" width="1" height="1" fill="#8f8f8fe6"/>
  <rect x="58" y="28" width="24" height="1" fill="#8f8f8f"/>
  <rect x="82" y="28" width="1" height="1" fill="#8f8f8fe6"/>
  <rect x="85" y="28" width="1" height="1" fill="#8f8f8fe6"/>
  <rect x="86" y="28" width="24" height="1" fill="#8f8f8f"/>
  <rect x="110" y="28" width="1" height="1" fill="#8f8f8fe6"/>
  <rect x="1" y="29" width="3" height="2" fill="#8e8e8e"/>
  <rect x="4" y="29" width="4" height="3" fill="#8f8f8f"/>
  <rect x="16" y="29" width="11" height="2" fill="#8f8f8f"/>
  <rect x="29" y="29" width="26" height="2" fill="#8f8f8f"/>
  <rect x="57" y="29" width="26" height="2" fill="#8f8f8f"/>
  <rect x="85" y="29" width="26" height="2" fill="#8f8f8f"/>
  <rect x="1" y="31" width="1" height="1" fill="#8e8e8ee6"/>
  <rect x="2" y="31" width="2" height="1" fill="#8e8e8e"/>
  <rect x="16" y="31" width="1" height="1" fill="#8f8f8f"/>
  <rect x="17" y="31" width="6" height="1" fill="#8f8f91"/>
  <rect x="23" y="31" width="3" height="1" fill="#8f8f8f"/>
  <rect x="26" y="31" width="1" height="1" fill="#8f8f8fe7"/>
  <rect x="29" y="31" width="1" height="1" fill="#8f8f8fe6"/>
  <rect x="30" y="31" width="19" height="1" fill="#8f8f8f"/>
  <rect x="49" y="31" width="5" height="1" fill="#8f8f91"/>
  <rect x="54" y="31" width="1" height="1" fill="#8f8f91e7"/>
  <rect x="57" y="31" width="1" height="1" fill="#8f8f8fe6"/>
  <rect x="58" y="31" width="23" height="1" fill="#8f8f8f"/>
  <rect x="81" y="31" width="1" height="1" fill="#8f8f91"/>
  <rect x="82" y="31" width="1" height="1" fill="#8f8f91e7"/>
  <rect x="85" y="31" width="1" height="1" fill="#8f8f91e6"/>
  <rect x="86" y="31" width="1" height="1" fill="#8f8f91"/>
  <rect x="87" y="31" width="23" height="1" fill="#8f8f8f"/>
  <rect x="110" y="31" width="1" height="1" fill="#8f8f8fe7"/>
  <rect x="1" y="32" width="1" height="1" fill="#8f8f8f4a"/>
  <rect x="2" y="32" width="1" height="1" fill="#8f8f8fe7"/>
  <rect x="3" y="32" width="13" height="1" fill="#8f8f8f"/>
  <rect x="16" y="32" width="1" height="1" fill="#8e9091"/>
  <rect x="17" y="32" width="6" height="1" fill="#8e8f93"/>
  <rect x="23" y="32" width="1" height="1" fill="#8e9091"/>
  <rect x="24" y="32" width="1" height="1" fill="#8f8f8f"/>
  <rect x="25" y="32" width="1" height="1" fill="#8f8f8fe4"/>
  <rect x="26" y="32" width="1" height="1" fill="#8f8f8f4a"/>
  <rect x="29" y="32" width="1" height="1" fill="#8f8f8f4a"/>
  <rect x="30" y="32" width="1" height="1" fill="#8f8f8fe7"/>
  <rect x="31" y="32" width="1" height="1" fill="#8f8f8f"/>
  <rect x="32" y="32" width="8" height="1" fill="#8e908f"/>
  <rect x="40" y="32" width="8" height="1" fill="#8f8f8f"/>
  <rect x="48" y="32" width="1" height="1" fill="#8e9091"/>
  <rect x="49" y="32" width="4" height="1" fill="#8e8f93"/>
  <rect x="53" y="32" width="1" height="1" fill="#8e8f93e4"/>
  <rect x="54" y="32" width="1" height="1" fill="#8e8f934a"/>
  <rect x="57" y="32" width="1" height="1" fill="#8f8f8f4a"/>
  <rect x="58" y="32" width="1" height="1" fill="#8f8f8fe7"/>
  <rect x="59" y="32" width="5" height="1" fill="#8f8f8f"/>
  <rect x="64" y="32" width="8" height="1" fill="#8e908f"/>
  <rect x="72" y="32" width="8" height="1" fill="#8f8f8f"/>
  <rect x="80" y="32" width="1" height="1" fill="#8e9091"/>
  <rect x="81" y="32" width="1" height="1" fill="#8e8f93e4"/>
  <rect x="82" y="32" width="1" height="1" fill="#8e8f934a"/>
  <rect x="85" y="32" width="1" height="1" fill="#8e8f934a"/>
  <rect x="86" y="32" width="1" height="1" fill="#8e8f93e7"/>
  <rect x="87" y="32" width="1" height="1" fill="#8e9091"/>
  <rect x="88" y="32" width="8" height="1" fill="#8f8f8f"/>
  <rect x="96" y="32" width="8" height="1" fill="#8e908f"/>
  <rect x="104" y="32" width="5" height="1" fill="#8f8f8f"/>
  <rect x="109" y="32" width="1" height="1" fill="#8f8f8fe4"/>
  <rect x="110" y="32" width="1" height="1" fill="#8f8f8f4a"/>
</svg>