<svg xmlns="http://www.w3.org/2000/svg" width="64" height="16" viewBox="0 0 64 16" shape-rendering="crispEdges">
  <rect x="5" y="2" width="1" height="1" fill="#9292926e"/>
  <rect x="6" y="2" width="1" height="1" fill="#929292c7"/>
  <rect x="7" y="2" width="2" height="1" fill="#929292f3"/>
  <rect x="9" y="2" width="1" height="1" fill="#929292c7"/>
  <rect x="10" y="2" width="1" height="1" fill="#9292926e"/>
  <rect x="21" y="2" width="1" height="1" fill="#7979796e"/>
  <rect x="22" y="2" width="1" height="1" fill="#797979c7"/>
  <rect x="23" y="2" width="2" height="1" fill="#797979f3"/>
  <rect x="25" y="2" width="1" height="1" fill="#797979c7"/>
  <rect x="26" y="2" width="1" height="1" fill="#7979796e"/>
  <rect x="37" y="2" width="1" height="1" fill="#7878786e"/>
  <rect x="38" y="2" width="1" height="1" fill="#787878c7"/>
  <rect x="39" y="2" width="2" height="1" fill="#787878f3"/>
  <rect x="41" y="2" width="1" height="1" fill="#787878c7"/>
  <rect x="42" y="2" width="1" height="1" fill="#7878786e"/>
  <rect x="53" y="2" width="1" height="1" fill="#7979796e"/>
  <rect x="54" y="2" width="1" height="1" fill="#797979c7"/>
  <rect x="55" y="2" width="2" height="1" fill="#797979f3"/>
  <rect x="57" y="2" width="1" height="1" fill="#797979c7"/>
  <rect x="58" y="2" width="1" height="1" fill="#7979796e"/>
  <rect x="3" y="3" width="1" height="1" fill="#8e8e8e1b"/>
  <rect x="4" y="3" width="1" height="1" fill="#8e8e8ecf"/>
  <rect x="5" y="3" width="6" height="1" fill="#8e8e8e"/>
  <rect x="11" y="3" width="1" height="1" fill="#8e8e8ecf"/>
  <rect x="12" y="3" width="1" height="1" fill="#9393931b"/>
  <rect x="19" y="3" width="1" height="1" fill="#7b7b7b1b"/>
  <rect x="20" y="3" width="1" height="1" fill="#7b7b7bcf"/>
  <rect x="21" y="3" width="6" height="1" fill="#7b7b7b"/>
  <rect x="27" y="3" width="1" height="1" fill="#7b7b7bcf"/>
  <rect x="28" y="3" width="1" height="1" fill="#7777771b"/>
  <rect x="35" y="3" width="1" height="1" fill="#8484841b"/>
  <rect x="36" y="3" width="1" height="1" fill="#7a7a7acf"/>
  <rect x="37" y="3" width="6" height="1" fill="#7a7a7a"/>
  <rect x="43" y="3" width="1" height="1" fill="#7a7a7acf"/>
  <rect x="44" y="3" width="1" height="1" fill="#7e7e7e1b"/>
  <rect x="51" y="3" width="1" height="1" fill="#7b7b7b1b"/>
  <rect x="52" y="3" width="1" height="1" fill="#7b7b7bcf"/>
  <rect x="53" y="3" width="6" height="1" fill="#7b7b7b"/>
  <rect x="59" y="3" width="1" height="1" fill="#7b7b7bcf"/>
  <rect x="60" y="3" width="1" height="1" fill="#7777771b"/>
  <rect x="3" y="4" width="1" height="1" fill="#8e8e8ecf"/>
  <rect x="4" y="4" width="1" height="1" fill="#8f8f8f"/>
  <rect x="5" y="4" width="1" height="1" fill="#929292"/>
  <rect x="6" y="4" width="1" height="1" fill="#898989"/>
  <rect x="7" y="4" width="1" height="1" fill="#949494"/>
  <rect x="8" y="4" width="1" height="1" fill="#8d8d8d"/>
  <rect x="9" y="4" width="1" height="1" fill="#909090"/>
  <rect x="10" y="4" width="1" height="1" fill="#868686"/>
  <rect x="11" y="4" width="1" height="1" fill="#909090"/>
  <rect x="12" y="4" width="1" height="1" fill="#909090d0"/>
  <rect x="19" y="4" width="1" height="1" fill="#797979cf"/>
  <rect x="20" y="4" width="1" height="1" fill="#777777"/>
  <rect x="21" y="4" width="1" height="1" fill="#7e7e7e"/>
  <rect x="22" y="4" width="1" height="1" fill="#787878"/>
  <rect x="23" y="4" width="1" height="1" fill="#818181"/>
  <rect x="24" y="4" width="1" height="1" fill="#767676"/>
  <rect x="25" y="4" width="1" height="1" fill="#797979"/>
  <rect x="26" y="4" width="1" height="1" fill="#787878"/>
  <rect x="27" y="4" width="1" height="2" fill="#767676"/>
  <rect x="28" y="4" width="1" height="1" fill="#7b7b7bd0"/>
  <rect x="35" y="4" width="1" height="1" fill="#7b7b7bcf"/>
  <rect x="36" y="4" width="1" height="1" fill="#737373"/>
  <rect x="37" y="4" width="1" height="1" fill="#7e7e7e"/>
  <rect x="38" y="4" width="1" height="1" fill="#797979"/>
  <rect x="39" y="4" width="1" height="1" fill="#7a7a7a"/>
  <rect x="40" y="4" width="1" height="1" fill="#777777"/>
  <rect x="41" y="4" width="2" height="1" fill="#7d7d7d"/>
  <rect x="43" y="4" width="1" height="1" fill="#7a7a7a"/>
  <rect x="44" y="4" width="1" height="1" fill="#797979d0"/>
  <rect x="51" y="4" width="1" height="1" fill="#7b7b7bcf"/>
  <rect x="52" y="4" width="1" height="1" fill="#747474"/>
  <rect x="53" y="4" width="1" height="1" fill="#7b7b7b"/>
  <rect x="54" y="4" width="1" height="1" fill="#777777"/>
  <rect x="55" y="4" width="1" height="1" fill="#7f7f7f"/>
  <rect x="56" y="4" width="1" height="1" fill="#777777"/>
  <rect x="57" y="4" width="1" height="1" fill="#7d7d7d"/>
  <rect x="58" y="4" width="1" height="2" fill="#7b7b7b"/>
  <rect x="59" y="4" width="1" height="2" fill="#787878"/>
  <rect x="60" y="4" width="1" height="1" fill="#7b7b7bd0"/>
  <rect x="2" y="5" width="1" height="1" fill="#9292926d"/>
  <rect x="3" y="5" width="2" height="1" fill="#8e8e8e"/>
  <rect x="5" y="5" width="1" height="1" fill="#949494"/>
  <rect x="6" y="5" width="1" height="1" fill="#e4e4e4ad"/>
  <rect x="7" y="5" width="1" height="1" fill="#fdfdfdef"/>
  <rect x="8" y="5" width="1" height="1" fill="#f7f7f7ef"/>
  <rect x="9" y="5" width="1" height="1" fill="#e0e0e0ad"/>
  <rect x="10" y="5" width="1" height="1" fill="#8e8e8e"/>
  <rect x="11" y="5" width="1" height="1" fill="#8f8f8f"/>
  <rect x="12" y="5" width="1" height="6" fill="#909090"/>
  <rect x="13" y="5" width="1" height="1" fill="#9292926d"/>
  <rect x="18" y="5" width="1" height="1" fill="#7979796d"/>
  <rect x="19" y="5" width="1" height="3" fill="#797979"/>
  <rect x="20" y="5" width="2" height="1" fill="#7e7e7e"/>
  <rect x="22" y="5" width="1" height="1" fill="#d4d4d4ad"/>
  <rect x="23" y="5" width="1" height="1" fill="#f9f9f9ef"/>
  <rect x="24" y="5" width="1" height="1" fill="#f3f3f3ef"/>
  <rect x="25" y="5" width="1" height="1" fill="#e0e0e0ad"/>
  <rect x="26" y="5" width="1" height="1" fill="#7a7a7a"/>
  <rect x="28" y="5" width="1" height="2" fill="#7b7b7b"/>
  <rect x="29" y="5" width="1" height="1" fill="#7f7f7f6d"/>
  <rect x="34" y="5" width="1" height="1" fill="#7a7a7a6d"/>
  <rect x="35" y="5" width="1" height="2" fill="#7b7b7b"/>
  <rect x="36" y="5" width="1" height="1" fill="#7a7a7a"/>
  <rect x="37" y="5" width="1" height="1" fill="#7f7f7f"/>
  <rect x="38" y="5" width="1" height="1" fill="#d4d4d4ad"/>
  <rect x="39" y="5" width="1" height="1" fill="#f3f3f3ef"/>
  <rect x="40" y="5" width="1" height="1" fill="#f2f2f2ef"/>
  <rect x="41" y="5" width="1" height="1" fill="#e0e0e0ad"/>
  <rect x="42" y="5" width="1" height="1" fill="#7b7b7b"/>
  <rect x="43" y="5" width="2" height="1" fill="#797979"/>
  <rect x="45" y="5" width="1" height="1" fill="#7e7e7e6d"/>
  <rect x="50" y="5" width="1" height="1" fill="#7a7a7a6d"/>
  <rect x="51" y="5" width="2" height="1" fill="#7b7b7b"/>
  <rect x="53" y="5" width="1" height="1" fill="#7d7d7d"/>
  <rect x="54" y="5" width="1" height="1" fill="#d2d2d2ad"/>
  <rect x="55" y="5" width="1" height="1" fill="#f7f7f7ef"/>
  <rect x="56" y="5" width="1" height="1" fill="#f5f5f5ef"/>
  <rect x="57" y="5" width="1" height="1" fill="#e1e1e1ad"/>
  <rect x="60" y="5" width="1" height="4" fill="#7b7b7b"/>
  <rect x="61" y="5" width="1" height="1" fill="#7f7f7f6d"/>
  <rect x="2" y="6" width="1" height="1" fill="#929292c7"/>
  <rect x="3" y="6" width="1" height="5" fill="#8e8e8e"/>
  <rect x="4" y="6" width="1" height="1" fill="#8f8f8f"/>
  <rect x="5" y="6" width="1" height="1" fill="#dbdbdbad"/>
  <rect x="6" y="6" width="1" height="2" fill="#fafafa"/>
  <rect x="7" y="6" width="1" height="1" fill="#fefefe"/>
  <rect x="8" y="6" width="1" height="1" fill="#f5f5f5"/>
  <rect x="9" y="6" width="1" height="1" fill="#f7f7f7"/>
  <rect x="10" y="6" width="1" height="1" fill="#e4e4e4ae"/>
  <rect x="11" y="6" width="1" height="1" fill="#959595"/>
  <rect x="13" y="6" width="1" height="1" fill="#929292c7"/>
  <rect x="18" y="6" width="1" height="1" fill="#797979c7"/>
  <rect x="20" y="6" width="1" height="1" fill="#787878"/>
  <rect x="21" y="6" width="1" height="1" fill="#d4d4d4ad"/>
  <rect x="22" y="6" width="1" height="1" fill="#fcfbfc"/>
  <rect x="23" y="6" width="1" height="1" fill="#fdfdfd"/>
  <rect x="24" y="6" width="1" height="1" fill="#f9f9f9"/>
  <rect x="25" y="6" width="1" height="1" fill="#fefefe"/>
  <rect x="26" y="6" width="1" height="1" fill="#d9d9d9ae"/>
  <rect x="27" y="6" width="1" height="1" fill="#808080"/>
  <rect x="29" y="6" width="1" height="1" fill="#7f7f7fc7"/>
  <rect x="34" y="6" width="1" height="1" fill="#7a7a7ac7"/>
  <rect x="36" y="6" width="1" height="1" fill="#747474"/>
  <rect x="37" y="6" width="1" height="1" fill="#d4d4d4ad"/>
  <rect x="38" y="6" width="1" height="2" fill="#fdfdfd"/>
  <rect x="39" y="6" width="1" height="1" fill="#f6f6f6"/>
  <rect x="40" y="6" width="1" height="1" fill="#f8f8f8"/>
  <rect x="41" y="6" width="1" height="1" fill="#fefefe"/>
  <rect x="42" y="6" width="1" height="1" fill="#d7d7d7ae"/>
  <rect x="43" y="6" width="1" height="1" fill="#808080"/>
  <rect x="44" y="6" width="1" height="2" fill="#797979"/>
  <rect x="45" y="6" width="1" height="1" fill="#7e7e7ec7"/>
  <rect x="50" y="6" width="1" height="1" fill="#7a7a7ac7"/>
  <rect x="51" y="6" width="1" height="2" fill="#7b7b7b"/>
  <rect x="52" y="6" width="1" height="1" fill="#777777"/>
  <rect x="53" y="6" width="1" height="1" fill="#d2d2d2ad"/>
  <rect x="54" y="6" width="3" height="1" fill="#fafafa"/>
  <rect x="57" y="6" width="1" height="1" fill="#ffffff"/>
  <rect x="58" y="6" width="1" height="1" fill="#d9d9d9ae"/>
  <rect x="59" y="6" width="1" height="1" fill="#808080"/>
  <rect x="61" y="6" width="1" height="1" fill="#7f7f7fc7"/>
  <rect x="2" y="7" width="1" height="2" fill="#929292f9"/>
  <rect x="4" y="7" width="1" height="1" fill="#909090"/>
  <rect x="5" y="7" width="1" height="1" fill="#fffffff7"/>
  <rect x="7" y="7" width="1" height="1" fill="#f9f9f9"/>
  <rect x="8" y="7" width="1" height="2" fill="#f8f8f8"/>
  <rect x="9" y="7" width="1" height="1" fill="#fafafa"/>
  <rect x="10" y="7" width="1" height="1" fill="#f9f9f9f7"/>
  <rect x="11" y="7" width="1" height="1" fill="#8c8c8c"/>
  <rect x="13" y="7" width="1" height="1" fill="#929292f8"/>
  <rect x="18" y="7" width="1" height="1" fill="#797979f9"/>
  <rect x="20" y="7" width="1" height="1" fill="#818181"/>
  <rect x="21" y="7" width="1" height="1" fill="#f9f9f9f7"/>
  <rect x="22" y="7" width="1" height="1" fill="#fdfdfd"/>
  <rect x="23" y="7" width="1" height="1" fill="#ffffff"/>
  <rect x="24" y="7" width="2" height="1" fill="#f9f9f9"/>
  <rect x="26" y="7" width="1" height="1" fill="#fcfbfcf7"/>
  <rect x="27" y="7" width="2" height="1" fill="#7b7b7b"/>
  <rect x="29" y="7" width="1" height="1" fill="#7f7f7ff8"/>
  <rect x="34" y="7" width="1" height="2" fill="#7b7b7bf9"/>
  <rect x="35" y="7" width="2" height="1" fill="#7d7d7d"/>
  <rect x="37" y="7" width="1" height="1" fill="#f9f9f9f7"/>
  <rect x="39" y="7" width="1" height="1" fill="#ffffff"/>
  <rect x="40" y="7" width="2" height="1" fill="#f8f8f8"/>
  <rect x="42" y="7" width="1" height="1" fill="#fafafaf7"/>
  <rect x="43" y="7" width="1" height="1" fill="#7b7b7b"/>
  <rect x="45" y="7" width="1" height="1" fill="#7e7e7ef8"/>
  <rect x="50" y="7" width="1" height="1" fill="#7a7a7af9"/>
  <rect x="52" y="7" width="1" height="1" fill="#7f7f7f"/>
  <rect x="53" y="7" width="1" height="1" fill="#f7f7f7f7"/>
  <rect x="54" y="7" width="1" height="1" fill="#fcfbfc"/>
  <rect x="55" y="7" width="1" height="1" fill="#ffffff"/>
  <rect x="56" y="7" width="1" height="1" fill="#fafafa"/>
  <rect x="57" y="7" width="1" height="1" fill="#f9f9f9"/>
  <rect x="58" y="7" width="1" height="1" fill="#fcfbfcf7"/>
  <rect x="59" y="7" width="1" height="1" fill="#7d7d7d"/>
  <rect x="61" y="7" width="1" height="1" fill="#7f7f7ff8"/>
  <rect x="4" y="8" width="1" height="1" fill="#8d8d8d"/>
  <rect x="5" y="8" width="1" height="1" fill="#f9f9f9f7"/>
  <rect x="6" y="8" width="1" height="1" fill="#f6f6f6"/>
  <rect x="7" y="8" width="1" height="1" fill="#f5f5f5"/>
  <rect x="9" y="8" width="1" height="1" fill="#fefefe"/>
  <rect x="10" y="8" width="1" height="1" fill="#f3f3f3ef"/>
  <rect x="11" y="8" width="1" height="1" fill="#959595"/>
  <rect x="13" y="8" width="1" height="1" fill="#939393f3"/>
  <rect x="18" y="8" width="1" height="1" fill="#7a7a7af9"/>
  <rect x="19" y="8" width="1" height="3" fill="#7a7a7a"/>
  <rect x="20" y="8" width="1" height="1" fill="#747474"/>
  <rect x="21" y="8" width="1" height="1" fill="#f5f5f5f7"/>
  <rect x="22" y="8" width="1" height="1" fill="#fafafa"/>
  <rect x="23" y="8" width="1" height="2" fill="#f9f9f9"/>
  <rect x="24" y="8" width="1" height="2" fill="#fefefe"/>
  <rect x="25" y="8" width="1" height="1" fill="#f7f7f7"/>
  <rect x="26" y="8" width="1" height="1" fill="#f3f3f3ef"/>
  <rect x="27" y="8" width="1" height="1" fill="#767676"/>
  <rect x="28" y="8" width="1" height="1" fill="#7a7a7a"/>
  <rect x="29" y="8" width="1" height="1" fill="#7e7e7ef3"/>
  <rect x="35" y="8" width="1" height="2" fill="#7d7d7d"/>
  <rect x="36" y="8" width="1" height="3" fill="#797979"/>
  <rect x="37" y="8" width="1" height="1" fill="#f8f8f8f7"/>
  <rect x="38" y="8" width="1" height="1" fill="#ffffff"/>
  <rect x="39" y="8" width="1" height="1" fill="#fdfdfd"/>
  <rect x="40" y="8" width="1" height="2" fill="#ffffff"/>
  <rect x="41" y="8" width="1" height="1" fill="#f8f8f8"/>
  <rect x="42" y="8" width="1" height="1" fill="#f7f7f7ef"/>
  <rect x="43" y="8" width="1" height="1" fill="#777777"/>
  <rect x="44" y="8" width="1" height="1" fill="#7b7b7b"/>
  <rect x="45" y="8" width="1" height="1" fill="#808080f3"/>
  <rect x="50" y="8" width="1" height="1" fill="#7d7d7df9"/>
  <rect x="51" y="8" width="1" height="1" fill="#7e7e7e"/>
  <rect x="52" y="8" width="1" height="1" fill="#777777"/>
  <rect x="53" y="8" width="1" height="1" fill="#f5f5f5f7"/>
  <rect x="54" y="8" width="1" height="1" fill="#fafafa"/>
  <rect x="55" y="8" width="1" height="1" fill="#fcfbfc"/>
  <rect x="56" y="8" width="1" height="1" fill="#ffffff"/>
  <rect x="57" y="8" width="1" height="1" fill="#f7f7f7"/>
  <rect x="58" y="8" width="1" height="1" fill="#f5f5f5ef"/>
  <rect x="59" y="8" width="1" height="2" fill="#777777"/>
  <rect x="61" y="8" width="1" height="1" fill="#7f7f7ff3"/>
  <rect x="2" y="9" width="1" height="1" fill="#929292c7"/>
  <rect x="4" y="9" width="1" height="1" fill="#8b8b8b"/>
  <rect x="5" y="9" width="1" height="1" fill="#ddddddae"/>
  <rect x="6" y="9" width="1" height="1" fill="#fafafa"/>
  <rect x="7" y="9" width="1" height="1" fill="#ffffff"/>
  <rect x="8" y="9" width="1" height="1" fill="#fdfdfd"/>
  <rect x="9" y="9" width="1" height="1" fill="#fafafa"/>
  <rect x="10" y="9" width="1" height="1" fill="#ddddddad"/>
  <rect x="11" y="9" width="1" height="1" fill="#949494"/>
  <rect x="13" y="9" width="1" height="1" fill="#939393c7"/>
  <rect x="18" y="9" width="1" height="1" fill="#7a7a7ac7"/>
  <rect x="20" y="9" width="1" height="1" fill="#787878"/>
  <rect x="21" y="9" width="1" height="1" fill="#dededeae"/>
  <rect x="22" y="9" width="1" height="1" fill="#fefefe"/>
  <rect x="25" y="9" width="1" height="1" fill="#fafafa"/>
  <rect x="26" y="9" width="1" height="1" fill="#e0e0e0ad"/>
  <rect x="27" y="9" width="1" height="1" fill="#777777"/>
  <rect x="28" y="9" width="1" height="1" fill="#797979"/>
  <rect x="29" y="9" width="1" height="1" fill="#7d7d7dc7"/>
  <rect x="34" y="9" width="1" height="1" fill="#7b7b7bc7"/>
  <rect x="37" y="9" width="1" height="1" fill="#ddddddae"/>
  <rect x="38" y="9" width="1" height="1" fill="#fdfdfd"/>
  <rect x="39" y="9" width="1" height="1" fill="#f6f6f6"/>
  <rect x="41" y="9" width="1" height="1" fill="#fcfbfc"/>
  <rect x="42" y="9" width="1" height="1" fill="#e2e2e2ad"/>
  <rect x="43" y="9" width="1" height="2" fill="#787878"/>
  <rect x="44" y="9" width="1" height="1" fill="#7a7a7a"/>
  <rect x="45" y="9" width="1" height="1" fill="#7f7f7fc7"/>
  <rect x="50" y="9" width="1" height="1" fill="#7b7b7bc7"/>
  <rect x="51" y="9" width="2" height="1" fill="#7d7d7d"/>
  <rect x="53" y="9" width="1" height="1" fill="#e1e1e1ae"/>
  <rect x="54" y="9" width="1" height="1" fill="#ffffff"/>
  <rect x="55" y="9" width="1" height="1" fill="#f9f9f9"/>
  <rect x="56" y="9" width="1" height="1" fill="#fefefe"/>
  <rect x="57" y="9" width="1" height="1" fill="#fafafa"/>
  <rect x="58" y="9" width="1" height="1" fill="#e0e0e0ad"/>
  <rect x="60" y="9" width="1" height="1" fill="#7a7a7a"/>
  <rect x="61" y="9" width="1" height="1" fill="#7e7e7ec7"/>
  <rect x="2" y="10" width="1" height="1" fill="#9292926e"/>
  <rect x="4" y="10" width="1" height="1" fill="#8c8c8c"/>
  <rect x="5" y="10" width="1" height="1" fill="#8e8e8e"/>
  <rect x="6" y="10" width="1" height="1" fill="#e3e3e3ad"/>
  <rect x="7" y="10" width="1" height="1" fill="#f5f5f5f2"/>
  <rect x="8" y="10" width="1" height="1" fill="#fefefef2"/>
  <rect x="9" y="10" width="1" height="1" fill="#e0e0e0ae"/>
  <rect x="10" y="10" width="1" height="1" fill="#8b8b8b"/>
  <rect x="11" y="10" width="1" height="1" fill="#888888"/>
  <rect x="13" y="10" width="1" height="1" fill="#9393936e"/>
  <rect x="18" y="10" width="1" height="1" fill="#7a7a7a6e"/>
  <rect x="20" y="10" width="1" height="1" fill="#777777"/>
  <rect x="21" y="10" width="1" height="1" fill="#797979"/>
  <rect x="22" y="10" width="1" height="1" fill="#d9d9d9ad"/>
  <rect x="23" y="10" width="1" height="1" fill="#fcfbfcf2"/>
  <rect x="24" y="10" width="1" height="1" fill="#fdfdfdf2"/>
  <rect x="25" y="10" width="1" height="1" fill="#d3d3d3ae"/>
  <rect x="26" y="10" width="1" height="1" fill="#797979"/>
  <rect x="27" y="10" width="1" height="1" fill="#787878"/>
  <rect x="28" y="10" width="1" height="1" fill="#777777"/>
  <rect x="29" y="10" width="1" height="1" fill="#7a7a7a6e"/>
  <rect x="34" y="10" width="1" height="1" fill="#7979796e"/>
  <rect x="35" y="10" width="1" height="1" fill="#7a7a7a"/>
  <rect x="37" y="10" width="1" height="1" fill="#777777"/>
  <rect x="38" y="10" width="1" height="1" fill="#d5d5d5ad"/>
  <rect x="39" y="10" width="1" height="1" fill="#fcfbfcf2"/>
  <rect x="40" y="10" width="1" height="1" fill="#fefefef2"/>
  <rect x="41" y="10" width="1" height="1" fill="#d6d6d6ae"/>
  <rect x="42" y="10" width="1" height="1" fill="#7a7a7a"/>
  <rect x="44" y="10" width="1" height="1" fill="#777777"/>
  <rect x="45" y="10" width="1" height="1" fill="#7b7b7b6e"/>
  <rect x="50" y="10" width="1" height="1" fill="#7878786e"/>
  <rect x="51" y="10" width="1" height="1" fill="#797979"/>
  <rect x="52" y="10" width="1" height="1" fill="#7d7d7d"/>
  <rect x="53" y="10" width="1" height="1" fill="#7b7b7b"/>
  <rect x="54" y="10" width="1" height="1" fill="#d9d9d9ad"/>
  <rect x="55" y="10" width="2" height="1" fill="#fdfdfdf2"/>
  <rect x="57" y="10" width="1" height="1" fill="#d4d4d4ae"/>
  <rect x="58" y="10" width="1" height="1" fill="#7a7a7a"/>
  <rect x="59" y="10" width="2" height="1" fill="#787878"/>
  <rect x="61" y="10" width="1" height="1" fill="#7b7b7b6e"/>
  <rect x="3" y="11" width="1" height="1" fill="#8e8e8ed0"/>
  <rect x="4" y="11" width="1" height="1" fill="#8e8e8e"/>
  <rect x="5" y="11" width="1" height="1" fill="#8d8d8d"/>
  <rect x="6" y="11" width="1" height="1" fill="#969696"/>
  <rect x="7" y="11" width="1" height="1" fill="#8f8f8f"/>
  <rect x="8" y="11" width="1" height="1" fill="#929292"/>
  <rect x="9" y="11" width="2" height="1" fill="#8e8e8e"/>
  <rect x="11" y="11" width="1" height="1" fill="#959595"/>
  <rect x="12" y="11" width="1" height="1" fill="#909090d1"/>
  <rect x="19" y="11" width="1" height="1" fill="#7a7a7ad0"/>
  <rect x="20" y="11" width="1" height="1" fill="#747474"/>
  <rect x="21" y="11" width="1" height="1" fill="#737373"/>
  <rect x="22" y="11" width="1" height="1" fill="#7f7f7f"/>
  <rect x="23" y="11" width="1" height="1" fill="#7d7d7d"/>
  <rect x="24" y="11" width="1" height="2" fill="#787878"/>
  <rect x="25" y="11" width="1" height="2" fill="#7a7a7a"/>
  <rect x="26" y="11" width="1" height="2" fill="#787878"/>
  <rect x="27" y="11" width="1" height="1" fill="#7d7d7d"/>
  <rect x="28" y="11" width="1" height="1" fill="#787878d1"/>
  <rect x="35" y="11" width="1" height="1" fill="#7b7b7bd0"/>
  <rect x="36" y="11" width="1" height="1" fill="#7d7d7d"/>
  <rect x="37" y="11" width="1" height="1" fill="#7a7a7a"/>
  <rect x="38" y="11" width="1" height="1" fill="#848484"/>
  <rect x="39" y="11" width="1" height="1" fill="#818181"/>
  <rect x="40" y="11" width="1" height="1" fill="#7a7a7a"/>
  <rect x="41" y="11" width="1" height="1" fill="#7d7d7d"/>
  <rect x="42" y="11" width="1" height="1" fill="#797979"/>
  <rect x="43" y="11" width="1" height="1" fill="#7e7e7e"/>
  <rect x="44" y="11" width="1" height="1" fill="#7a7a7ad1"/>
  <rect x="51" y="11" width="1" height="1" fill="#7d7d7dd0"/>
  <rect x="52" y="11" width="1" height="1" fill="#797979"/>
  <rect x="53" y="11" width="1" height="1" fill="#787878"/>
  <rect x="54" y="11" width="1" height="1" fill="#808080"/>
  <rect x="55" y="11" width="1" height="1" fill="#7d7d7d"/>
  <rect x="56" y="11" width="1" height="1" fill="#787878"/>
  <rect x="57" y="11" width="1" height="1" fill="#7a7a7a"/>
  <rect x="58" y="11" width="1" height="1" fill="#787878"/>
  <rect x="59" y="11" width="1" height="1" fill="#7d7d7d"/>
  <rect x="60" y="11" width="1" height="1" fill="#7a7a7ad1"/>
  <rect x="3" y="12" width="1" height="1" fill="#9393931b"/>
  <rect x="4" y="12" width="1" height="1" fill="#909090cf"/>
  <rect x="5" y="12" width="3" height="1" fill="#909090"/>
  <rect x="8" y="12" width="1" height="1" fill="#8f8f8f"/>
  <rect x="9" y="12" width="2" height="1" fill="#939393"/>
  <rect x="11" y="12" width="1" height="1" fill="#939393d0"/>
  <rect x="12" y="12" width="1" height="1" fill="#9595951b"/>
  <rect x="19" y="12" width="1" height="1" fill="#7878781b"/>
  <rect x="20" y="12" width="1" height="1" fill="#797979cf"/>
  <rect x="21" y="12" width="3" height="1" fill="#797979"/>
  <rect x="27" y="12" width="1" height="1" fill="#7d7d7dd0"/>
  <rect x="28" y="12" width="1" height="1" fill="#8181811b"/>
  <rect x="35" y="12" width="1" height="1" fill="#8282821b"/>
  <rect x="36" y="12" width="1" height="1" fill="#797979cf"/>
  <rect x="37" y="12" width="3" height="1" fill="#797979"/>
  <rect x="40" y="12" width="1" height="1" fill="#787878"/>
  <rect x="41" y="12" width="1" height="1" fill="#7a7a7a"/>
  <rect x="42" y="12" width="1" height="1" fill="#777777"/>
  <rect x="43" y="12" width="1" height="1" fill="#7b7b7bd0"/>
  <rect x="44" y="12" width="1" height="1" fill="#7878781b"/>
  <rect x="51" y="12" width="1" height="1" fill="#8484841b"/>
  <rect x="52" y="12" width="1" height="1" fill="#7a7a7acf"/>
  <rect x="53" y="12" width="2" height="1" fill="#7b7b7b"/>
  <rect x="55" y="12" width="1" height="1" fill="#7e7e7e"/>
  <rect x="56" y="12" width="1" height="1" fill="#7d7d7d"/>
  <rect x="57" y="12" width="1" height="1" fill="#7f7f7f"/>
  <rect x="58" y="12" width="1" height="1" fill="#7d7d7d"/>
  <rect x="59" y="12" width="1" height="1" fill="#818181d0"/>
  <rect x="60" y="12" width="1" height="1" fill="#7a7a7a1b"/>
  <rect x="5" y="13" width="1" height="1" fill="#9292926f"/>
  <rect x="6" y="13" width="1" height="1" fill="#929292cb"/>
  <rect x="7" y="13" width="1" height="1" fill="#929292f4"/>
  <rect x="8" y="13" width="1" height="1" fill="#909090f4"/>
  <rect x="9" y="13" width="1" height="1" fill="#949494cb"/>
  <rect x="10" y="13" width="1" height="1" fill="#9494946f"/>
  <rect x="21" y="13" width="1" height="1" fill="#7878786f"/>
  <rect x="22" y="13" width="1" height="1" fill="#787878cb"/>
  <rect x="23" y="13" width="1" height="1" fill="#787878f4"/>
  <rect x="24" y="13" width="1" height="1" fill="#777777f4"/>
  <rect x="25" y="13" width="1" height="1" fill="#797979cb"/>
  <rect x="26" y="13" width="1" height="1" fill="#7777776f"/>
  <rect x="37" y="13" width="1" height="1" fill="#7777776f"/>
  <rect x="38" y="13" width="1" height="1" fill="#777777cb"/>
  <rect x="39" y="13" width="1" height="1" fill="#777777f4"/>
  <rect x="40" y="13" width="1" height="1" fill="#767676f4"/>
  <rect x="41" y="13" width="1" height="1" fill="#787878cb"/>
  <rect x="42" y="13" width="1" height="1" fill="#7474746f"/>
  <rect x="53" y="13" width="1" height="1" fill="#7979796f"/>
  <rect x="54" y="13" width="1" height="1" fill="#787878cb"/>
  <rect x="55" y="13" width="1" height="1" fill="#787878f4"/>
  <rect x="56" y="13" width="1" height="1" fill="#777777f4"/>
  <rect x="57" y="13" width="1" height="1" fill="#797979cb"/>
  <rect x="58" y="13" width="1" height="1" fill="#7777776f"/>
</svg>