<svg xmlns="http://www.w3.org/2000/svg" width="36" height="112" viewBox="0 0 36 112" shape-rendering="crispEdges">
  <rect x="3" y="1" width="1" height="1" fill="#e1e1e149"/>
  <rect x="4" y="1" width="1" height="1" fill="#e0e0e0e6"/>
  <rect x="5" y="1" width="1" height="1" fill="#dddddd"/>
  <rect x="6" y="1" width="1" height="1" fill="#dcdcdc"/>
  <rect x="7" y="1" width="1" height="1" fill="#dcdcdce6"/>
  <rect x="8" y="1" width="1" height="1" fill="#dbdbdb49"/>
  <rect x="15" y="1" width="1" height="1" fill="#c1c1c149"/>
  <rect x="16" y="1" width="1" height="1" fill="#c1c1c1e6"/>
  <rect x="17" y="1" width="2" height="1" fill="#c1c1c1"/>
  <rect x="19" y="1" width="1" height="1" fill="#c1c1c1e6"/>
  <rect x="20" y="1" width="1" height="1" fill="#c1c1c149"/>
  <rect x="27" y="1" width="1" height="1" fill="#8f8f8f49"/>
  <rect x="28" y="1" width="1" height="1" fill="#8f8f8fe6"/>
  <rect x="29" y="1" width="2" height="1" fill="#8f8f8f"/>
  <rect x="31" y="1" width="1" height="1" fill="#8f8f8fe6"/>
  <rect x="32" y="1" width="1" height="1" fill="#8f8f8f49"/>
  <rect x="3" y="2" width="1" height="1" fill="#e8e8e8e6"/>
  <rect x="4" y="2" width="1" height="1" fill="#e9e9e9"/>
  <rect x="5" y="2" width="1" height="1" fill="#eaeaea"/>
  <rect x="6" y="2" width="2" height="1" fill="#ececec"/>
  <rect x="8" y="2" width="1" height="1" fill="#dcdcdce6"/>
  <rect x="15" y="2" width="1" height="1" fill="#c1c1c1e6"/>
  <rect x="16" y="2" width="4" height="1" fill="#c1c1c1"/>
  <rect x="20" y="2" width="1" height="1" fill="#c1c1c1e6"/>
  <rect x="27" y="2" width="1" height="1" fill="#8f8f8fe6"/>
  <rect x="28" y="2" width="4" height="1" fill="#8f8f8f"/>
  <rect x="32" y="2" width="1" height="1" fill="#8f8f8fe6"/>
  <rect x="3" y="3" width="1" height="1" fill="#e4e4e4"/>
  <rect x="4" y="3" width="2" height="1" fill="#e7e7e7"/>
  <rect x="6" y="3" width="2" height="1" fill="#e8e8e8"/>
  <rect x="8" y="3" width="1" height="3" fill="#dcdcdc"/>
  <rect x="15" y="3" width="6" height="1" fill="#c1c1c1"/>
  <rect x="27" y="3" width="6" height="5" fill="#8f8f8f"/>
  <rect x="3" y="4" width="1" height="9" fill="#e2e2e2"/>
  <rect x="4" y="4" width="1" height="9" fill="#e7e7e7"/>
  <rect x="5" y="4" width="3" height="12" fill="#eaeaea"/>
  <rect x="15" y="4" width="1" height="12" fill="#c0c0c0"/>
  <rect x="16" y="4" width="5" height="21" fill="#c1c1c1"/>
  <rect x="8" y="6" width="1" height="8" fill="#dddddd"/>
  <rect x="27" y="8" width="5" height="9" fill="#8f8f8f"/>
  <rect x="32" y="8" width="1" height="8" fill="#8e908f"/>
  <rect x="3" y="13" width="1" height="2" fill="#e1e1e1"/>
  <rect x="4" y="13" width="1" height="2" fill="#e8e8e8"/>
  <rect x="8" y="14" width="1" height="4" fill="#dedede"/>
  <rect x="3" y="15" width="1" height="1" fill="#e0e0e0"/>
  <rect x="4" y="15" width="1" height="2" fill="#e9e9e9"/>
  <rect x="3" y="16" width="1" height="1" fill="#dedede"/>
  <rect x="5" y="16" width="3" height="3" fill="#ebebeb"/>
  <rect x="15" y="16" width="1" height="8" fill="#bfbfbf"/>
  <rect x="32" y="16" width="1" height="1" fill="#8e9091"/>
  <rect x="3" y="17" width="1" height="2" fill="#dddddd"/>
  <rect x="4" y="17" width="1" height="2" fill="#eaeaea"/>
  <rect x="27" y="17" width="4" height="6" fill="#8f8f8f"/>
  <rect x="31" y="17" width="1" height="6" fill="#8f8f91"/>
  <rect x="32" y="17" width="1" height="6" fill="#8e8f93"/>
  <rect x="8" y="18" width="1" height="5" fill="#e0e0e0"/>
  <rect x="3" y="19" width="1" height="3" fill="#dcdcdc"/>
  <rect x="4" y="19" width="4" height="5" fill="#ebebeb"/>
  <rect x="3" y="22" width="1" height="1" fill="#dddddd"/>
  <rect x="3" y="23" width="1" height="1" fill="#dedede"/>
  <rect x="8" y="23" width="1" height="2" fill="#dedede"/>
  <rect x="27" y="23" width="5" height="2" fill="#8f8f8f"/>
  <rect x="32" y="23" width="1" height="1" fill="#8e9091"/>
  <rect x="3" y="24" width="1" height="1" fill="#e0e0e0"/>
  <rect x="4" y="24" width="4" height="1" fill="#e9e9e9"/>
  <rect x="15" y="24" width="1" height="1" fill="#c6c6c6"/>
  <rect x="32" y="24" width="1" height="1" fill="#8e908f"/>
  <rect x="3" y="25" width="1" height="1" fill="#e1e1e1e6"/>
  <rect x="4" y="25" width="4" height="1" fill="#eeeeee"/>
  <rect x="8" y="25" width="1" height="1" fill="#dddddde7"/>
  <rect x="15" y="25" width="1" height="1" fill="#c6c6c6e6"/>
  <rect x="16" y="25" width="4" height="1" fill="#c1c1c1"/>
  <rect x="20" y="25" width="1" height="1" fill="#c1c1c1e7"/>
  <rect x="27" y="25" width="1" height="1" fill="#8f8f8fe6"/>
  <rect x="28" y="25" width="4" height="1" fill="#8f8f8f"/>
  <rect x="32" y="25" width="1" height="1" fill="#8e908fe7"/>
  <rect x="3" y="26" width="1" height="1" fill="#e2e2e24a"/>
  <rect x="4" y="26" width="1" height="1" fill="#e1e1e1e7"/>
  <rect x="5" y="26" width="2" height="1" fill="#e1e1e1"/>
  <rect x="7" y="26" width="1" height="1" fill="#e1e1e1e4"/>
  <rect x="8" y="26" width="1" height="1" fill="#dddddd4a"/>
  <rect x="15" y="26" width="1" height="1" fill="#c6c6c64a"/>
  <rect x="16" y="26" width="1" height="1" fill="#c1c1c1e7"/>
  <rect x="17" y="26" width="2" height="1" fill="#c1c1c1"/>
  <rect x="19" y="26" width="1" height="1" fill="#c1c1c1e4"/>
  <rect x="20" y="26" width="1" height="1" fill="#c1c1c14a"/>
  <rect x="27" y="26" width="1" height="1" fill="#8f8f8f4a"/>
  <rect x="28" y="26" width="1" height="1" fill="#8f8f8fe7"/>
  <rect x="29" y="26" width="2" height="1" fill="#8f8f8f"/>
  <rect x="31" y="26" width="1" height="1" fill="#8f8f8fe4"/>
  <rect x="32" y="26" width="1" height="1" fill="#8e908f4a"/>
  <rect x="3" y="29" width="1" height="1" fill="#e2e2e249"/>
  <rect x="4" y="29" width="1" height="1" fill="#e1e1e1e6"/>
  <rect x="5" y="29" width="2" height="1" fill="#e1e1e1"/>
  <rect x="7" y="29" width="1" height="1" fill="#e1e1e1e6"/>
  <rect x="8" y="29" width="1" height="1" fill="#dddddd49"/>
  <rect x="15" y="29" width="1" height="1" fill="#c6c6c649"/>
  <rect x="16" y="29" width="1" height="1" fill="#c1c1c1e6"/>
  <rect x="17" y="29" width="2" height="1" fill="#c1c1c1"/>
  <rect x="19" y="29" width="1" height="1" fill="#c1c1c1e6"/>
  <rect x="20" y="29" width="1" height="1" fill="#c1c1c149"/>
  <rect x="27" y="29" width="1" height="1" fill="#8f8f8f49"/>
  <rect x="28" y="29" width="1" height="1" fill="#8f8f8fe6"/>
  <rect x="29" y="29" width="2" height="1" fill="#8f8f8f"/>
  <rect x="31" y="29" width="1" height="1" fill="#8f8f8fe6"/>
  <rect x="32" y="29" width="1" height="1" fill="#8e908f49"/>
  <rect x="3" y="30" width="1" height="1" fill="#e2e2e2e6"/>
  <rect x="4" y="30" width="4" height="1" fill="#eeeeee"/>
  <rect x="8" y="30" width="1" height="1" fill="#dededee6"/>
  <rect x="15" y="30" width="1" height="1" fill="#c5c5c5e6"/>
  <rect x="16" y="30" width="4" height="1" fill="#c1c1c1"/>
  <rect x="20" y="30" width="1" height="1" fill="#c1c1c1e6"/>
  <rect x="27" y="30" width="1" height="1" fill="#8f8f8fe6"/>
  <rect x="28" y="30" width="4" height="1" fill="#8f8f8f"/>
  <rect x="32" y="30" width="1" height="1" fill="#8e908fe6"/>
  <rect x="3" y="31" width="1" height="1" fill="#e1e1e1"/>
  <rect x="4" y="31" width="4" height="1" fill="#eaeaea"/>
  <rect x="8" y="31" width="1" height="3" fill="#dedede"/>
  <rect x="15" y="31" width="1" height="1" fill="#c5c5c5"/>
  <rect x="16" y="31" width="5" height="5" fill="#c1c1c1"/>
  <rect x="27" y="31" width="5" height="18" fill="#8f8f8f"/>
  <rect x="32" y="31" width="1" height="17" fill="#8e908f"/>
  <rect x="3" y="32" width="1" height="2" fill="#e0e0e0"/>
  <rect x="4" y="32" width="4" height="4" fill="#ebebeb"/>
  <rect x="15" y="32" width="1" height="2" fill="#c4c4c4"/>
  <rect x="3" y="34" width="1" height="1" fill="#e2e2e2"/>
  <rect x="8" y="34" width="1" height="2" fill="#e0e0e0"/>
  <rect x="15" y="34" width="1" height="2" fill="#c2c2c2"/>
  <rect x="3" y="35" width="1" height="1" fill="#e0e0e0"/>
  <rect x="3" y="36" width="1" height="1" fill="#dedede"/>
  <rect x="4" y="36" width="4" height="12" fill="#eaeaea"/>
  <rect x="8" y="36" width="1" height="15" fill="#dedede"/>
  <rect x="15" y="36" width="6" height="17" fill="#c1c1c1"/>
  <rect x="3" y="37" width="1" height="11" fill="#dddddd"/>
  <rect x="3" y="48" width="1" height="2" fill="#dcdcdc"/>
  <rect x="4" y="48" width="4" height="4" fill="#ebebeb"/>
  <rect x="32" y="48" width="1" height="1" fill="#8e9091"/>
  <rect x="27" y="49" width="4" height="4" fill="#8f8f8f"/>
  <rect x="31" y="49" width="1" height="5" fill="#8f8f91"/>
  <rect x="32" y="49" width="1" height="4" fill="#8e8f93"/>
  <rect x="3" y="50" width="1" height="2" fill="#dddddd"/>
  <rect x="8" y="51" width="1" height="2" fill="#dddddd"/>
  <rect x="3" y="52" width="1" height="1" fill="#dedede"/>
  <rect x="4" y="52" width="4" height="1" fill="#ececec"/>
  <rect x="3" y="53" width="1" height="1" fill="#e0e0e0e6"/>
  <rect x="4" y="53" width="4" height="1" fill="#e9e9e9"/>
  <rect x="8" y="53" width="1" height="1" fill="#dcdcdce7"/>
  <rect x="15" y="53" width="1" height="1" fill="#c1c1c1e6"/>
  <rect x="16" y="53" width="4" height="1" fill="#c1c1c1"/>
  <rect x="20" y="53" width="1" height="1" fill="#c1c1c1e7"/>
  <rect x="27" y="53" width="1" height="1" fill="#8f8f8fe6"/>
  <rect x="28" y="53" width="3" height="1" fill="#8f8f8f"/>
  <rect x="32" y="53" width="1" height="1" fill="#8e8f93e7"/>
  <rect x="3" y="54" width="1" height="1" fill="#e1e1e14a"/>
  <rect x="4" y="54" width="1" height="1" fill="#dcdcdce7"/>
  <rect x="5" y="54" width="2" height="1" fill="#dcdcdc"/>
  <rect x="7" y="54" width="1" height="1" fill="#dcdcdce4"/>
  <rect x="8" y="54" width="1" height="1" fill="#dcdcdc4a"/>
  <rect x="15" y="54" width="1" height="1" fill="#c1c1c14a"/>
  <rect x="16" y="54" width="1" height="1" fill="#c1c1c1e7"/>
  <rect x="17" y="54" width="2" height="1" fill="#c1c1c1"/>
  <rect x="19" y="54" width="1" height="1" fill="#c1c1c1e4"/>
  <rect x="20" y="54" width="1" height="1" fill="#c1c1c14a"/>
  <rect x="27" y="54" width="1" height="1" fill="#8f8f8f4a"/>
  <rect x="28" y="54" width="1" height="1" fill="#8f8f8fe7"/>
  <rect x="29" y="54" width="2" height="1" fill="#8f8f8f"/>
  <rect x="31" y="54" width="1" height="1" fill="#8f8f91e4"/>
  <rect x="32" y="54" width="1" height="1" fill="#8e8f934a"/>
  <rect x="3" y="57" width="1" height="1" fill="#e1e1e149"/>
  <rect x="4" y="57" width="1" height="1" fill="#dcdcdce6"/>
  <rect x="5" y="57" width="2" height="1" fill="#dcdcdc"/>
  <rect x="7" y="57" width="1" height="1" fill="#dcdcdce6"/>
  <rect x="8" y="57" width="1" height="1" fill="#dcdcdc49"/>
  <rect x="15" y="57" width="1" height="1" fill="#c1c1c149"/>
  <rect x="16" y="57" width="1" height="1" fill="#c1c1c1e6"/>
  <rect x="17" y="57" width="2" height="1" fill="#c1c1c1"/>
  <rect x="19" y="57" width="1" height="1" fill="#c1c1c1e6"/>
  <rect x="20" y="57" width="1" height="1" fill="#c1c1c149"/>
  <rect x="27" y="57" width="1" height="1" fill="#8f8f8f49"/>
  <rect x="28" y="57" width="1" height="1" fill="#8f8f8fe6"/>
  <rect x="29" y="57" width="2" height="1" fill="#8f8f8f"/>
  <rect x="31" y="57" width="1" height="1" fill="#8f8f8fe6"/>
  <rect x="32" y="57" width="1" height="1" fill="#8e908f49"/>
  <rect x="3" y="58" width="1" height="1" fill="#e1e1e1e6"/>
  <rect x="4" y="58" width="4" height="1" fill="#e9e9e9"/>
  <rect x="8" y="58" width="1" height="1" fill="#dddddde6"/>
  <rect x="15" y="58" width="1" height="1" fill="#c1c1c1e6"/>
  <rect x="16" y="58" width="4" height="1" fill="#c1c1c1"/>
  <rect x="20" y="58" width="1" height="1" fill="#c1c1c1e6"/>
  <rect x="27" y="58" width="1" height="1" fill="#8f8f8fe6"/>
  <rect x="28" y="58" width="4" height="1" fill="#8f8f8f"/>
  <rect x="32" y="58" width="1" height="1" fill="#8e908fe6"/>
  <rect x="3" y="59" width="1" height="1" fill="#dedede"/>
  <rect x="4" y="59" width="4" height="1" fill="#ececec"/>
  <rect x="8" y="59" width="1" height="3" fill="#dddddd"/>
  <rect x="15" y="59" width="6" height="19" fill="#c1c1c1"/>
  <rect x="27" y="59" width="5" height="22" fill="#8f8f8f"/>
  <rect x="32" y="59" width="1" height="21" fill="#8e908f"/>
  <rect x="3" y="60" width="1" height="1" fill="#dddddd"/>
  <rect x="4" y="60" width="4" height="20" fill="#ebebeb"/>
  <rect x="3" y="61" width="1" height="16" fill="#dcdcdc"/>
  <rect x="8" y="62" width="1" height="16" fill="#dedede"/>
  <rect x="3" y="77" width="1" height="2" fill="#dddddd"/>
  <rect x="8" y="78" width="1" height="3" fill="#dddddd"/>
  <rect x="15" y="78" width="1" height="3" fill="#c2c2c2"/>
  <rect x="16" y="78" width="5" height="3" fill="#c1c1c1"/>
  <rect x="3" y="79" width="1" height="1" fill="#dedede"/>
  <rect x="3" y="80" width="1" height="1" fill="#e0e0e0"/>
  <rect x="4" y="80" width="4" height="1" fill="#e9e9e9"/>
  <rect x="32" y="80" width="1" height="1" fill="#8e9091"/>
  <rect x="3" y="81" width="1" height="1" fill="#e1e1e1e6"/>
  <rect x="4" y="81" width="4" height="1" fill="#eeeeee"/>
  <rect x="8" y="81" width="1" height="1" fill="#dddddde7"/>
  <rect x="15" y="81" width="1" height="1" fill="#c2c2c2e6"/>
  <rect x="16" y="81" width="4" height="1" fill="#c1c1c1"/>
  <rect x="20" y="81" width="1" height="1" fill="#c1c1c1e7"/>
  <rect x="27" y="81" width="1" height="1" fill="#8f8f8fe6"/>
  <rect x="28" y="81" width="3" height="1" fill="#8f8f8f"/>
  <rect x="31" y="81" width="1" height="1" fill="#8f8f91"/>
  <rect x="32" y="81" width="1" height="1" fill="#8e8f93e7"/>
  <rect x="3" y="82" width="1" height="1" fill="#e1e1e14a"/>
  <rect x="4" y="82" width="1" height="1" fill="#e1e1e1e7"/>
  <rect x="5" y="82" width="2" height="1" fill="#e1e1e1"/>
  <rect x="7" y="82" width="1" height="1" fill="#e1e1e1e4"/>
  <rect x="8" y="82" width="1" height="1" fill="#dcdcdc4a"/>
  <rect x="15" y="82" width="1" height="1" fill="#c4c4c44a"/>
  <rect x="16" y="82" width="1" height="1" fill="#c1c1c1e7"/>
  <rect x="17" y="82" width="2" height="1" fill="#c1c1c1"/>
  <rect x="19" y="82" width="1" height="1" fill="#c1c1c1e4"/>
  <rect x="20" y="82" width="1" height="1" fill="#c1c1c14a"/>
  <rect x="27" y="82" width="1" height="1" fill="#8f8f8f4a"/>
  <rect x="28" y="82" width="1" height="1" fill="#8f8f8fe7"/>
  <rect x="29" y="82" width="2" height="1" fill="#8f8f8f"/>
  <rect x="31" y="82" width="1" height="1" fill="#8f8f91e4"/>
  <rect x="32" y="82" width="1" height="1" fill="#8e8f934a"/>
  <rect x="3" y="85" width="1" height="1" fill="#e2e2e249"/>
  <rect x="4" y="85" width="1" height="1" fill="#e1e1e1e6"/>
  <rect x="5" y="85" width="2" height="1" fill="#e1e1e1"/>
  <rect x="7" y="85" width="1" height="1" fill="#e1e1e1e6"/>
  <rect x="8" y="85" width="1" height="1" fill="#dcdcdc49"/>
  <rect x="15" y="85" width="1" height="1" fill="#c4c4c449"/>
  <rect x="16" y="85" width="1" height="1" fill="#c1c1c1e6"/>
  <rect x="17" y="85" width="2" height="1" fill="#c1c1c1"/>
  <rect x="19" y="85" width="1" height="1" fill="#c1c1c1e6"/>
  <rect x="20" y="85" width="1" height="1" fill="#c1c1c149"/>
  <rect x="27" y="85" width="1" height="1" fill="#8f8f8f49"/>
  <rect x="28" y="85" width="1" height="1" fill="#8f8f8fe6"/>
  <rect x="29" y="85" width="2" height="1" fill="#8f8f8f"/>
  <rect x="31" y="85" width="1" height="1" fill="#8f8f91e6"/>
  <rect x="32" y="85" width="1" height="1" fill="#8e8f9349"/>
  <rect x="3" y="86" width="1" height="1" fill="#e2e2e2e6"/>
  <rect x="4" y="86" width="4" height="1" fill="#eeeeee"/>
  <rect x="8" y="86" width="1" height="1" fill="#dddddde6"/>
  <rect x="15" y="86" width="1" height="1" fill="#c4c4c4e6"/>
  <rect x="16" y="86" width="4" height="1" fill="#c1c1c1"/>
  <rect x="20" y="86" width="1" height="1" fill="#c1c1c1e6"/>
  <rect x="27" y="86" width="1" height="1" fill="#8f8f8fe6"/>
  <rect x="28" y="86" width="3" height="1" fill="#8f8f8f"/>
  <rect x="31" y="86" width="1" height="1" fill="#8f8f91"/>
  <rect x="32" y="86" width="1" height="1" fill="#8e8f93e6"/>
  <rect x="3" y="87" width="1" height="1" fill="#e2e2e2"/>
  <rect x="4" y="87" width="4" height="21" fill="#eaeaea"/>
  <rect x="8" y="87" width="1" height="1" fill="#dddddd"/>
  <rect x="15" y="87" width="1" height="1" fill="#c4c4c4"/>
  <rect x="16" y="87" width="5" height="22" fill="#c1c1c1"/>
  <rect x="27" y="87" width="5" height="22" fill="#8f8f8f"/>
  <rect x="32" y="87" width="1" height="1" fill="#8e9091"/>
  <rect x="3" y="88" width="1" height="18" fill="#dbdbdb"/>
  <rect x="8" y="88" width="1" height="2" fill="#dedede"/>
  <rect x="15" y="88" width="1" height="18" fill="#c2c2c2"/>
  <rect x="32" y="88" width="1" height="21" fill="#8e908f"/>
  <rect x="8" y="90" width="1" height="17" fill="#e0e0e0"/>
  <rect x="3" y="106" width="1" height="2" fill="#dcdcdc"/>
  <rect x="15" y="106" width="1" height="2" fill="#c4c4c4"/>
  <rect x="8" y="107" width="1" height="1" fill="#dedede"/>
  <rect x="3" y="108" width="1" height="1" fill="#dddddd"/>
  <rect x="4" y="108" width="4" height="1" fill="#ebebeb"/>
  <rect x="8" y="108" width="1" height="1" fill="#dddddd"/>
  <rect x="15" y="108" width="1" height="1" fill="#c5c5c5"/>
  <rect x="3" y="109" width="1" height="1" fill="#dededee6"/>
  <rect x="4" y="109" width="4" height="1" fill="#e9e9e9"/>
  <rect x="8" y="109" width="1" height="1" fill="#dcdcdce7"/>
  <rect x="15" y="109" width="1" height="1" fill="#c5c5c5e6"/>
  <rect x="16" y="109" width="4" height="1" fill="#c1c1c1"/>
  <rect x="20" y="109" width="1" height="1" fill="#c1c1c1e7"/>
  <rect x="27" y="109" width="1" height="1" fill="#8f8f8fe6"/>
  <rect x="28" y="109" width="4" height="1" fill="#8f8f8f"/>
  <rect x="32" y="109" width="1" height="1" fill="#8e908fe7"/>
  <rect x="3" y="110" width="1" height="1" fill="#e0e0e04a"/>
  <rect x="4" y="110" width="1" height="1" fill="#dcdcdce7"/>
  <rect x="5" y="110" width="2" height="1" fill="#dcdcdc"/>
  <rect x="7" y="110" width="1" height="1" fill="#dcdcdce4"/>
  <rect x="8" y="110" width="1" height="1" fill="#dcdcdc4a"/>
  <rect x="15" y="110" width="1" height="1" fill="#c6c6c64a"/>
  <rect x="16" y="110" width="1" height="1" fill="#c1c1c1e7"/>
  <rect x="17" y="110" width="2" height="1" fill="#c1c1c1"/>
  <rect x="19" y="110" width="1" height="1" fill="#c1c1c1e4"/>
  <rect x="20" y="110" width="1" height="1" fill="#c1c1c14a"/>
  <rect x="27" y="110" width="1" height="1" fill="#8f8f8f4a"/>
  <rect x="28" y="110" width="1" height="1" fill="#8f8f8fe7"/>
  <rect x="29" y="110" width="2" height="1" fill="#8f8f8f"/>
  <rect x="31" y="110" width="1" height="1" fill="#8f8f8fe4"/>
  <rect x="32" y="110" width="1" height="1" fill="#8e908f4a"/>
</svg>