<svg xmlns="http://www.w3.org/2000/svg" width="60" height="15" viewBox="0 0 60 15" shape-rendering="crispEdges">
  <rect x="4" y="1" width="1" height="1" fill="#438dc146"/>
  <rect x="5" y="1" width="1" height="1" fill="#3b8fc9b2"/>
  <rect x="6" y="1" width="1" height="1" fill="#3294cbe9"/>
  <rect x="7" y="1" width="1" height="1" fill="#2c94cc"/>
  <rect x="8" y="1" width="1" height="1" fill="#2b95d3e7"/>
  <rect x="9" y="1" width="1" height="1" fill="#3598d6aa"/>
  <rect x="10" y="1" width="1" height="1" fill="#449ad63e"/>
  <rect x="19" y="1" width="1" height="1" fill="#3091d046"/>
  <rect x="20" y="1" width="1" height="1" fill="#2e89c3b2"/>
  <rect x="21" y="1" width="1" height="1" fill="#3187c5e9"/>
  <rect x="22" y="1" width="1" height="1" fill="#3385cb"/>
  <rect x="23" y="1" width="1" height="1" fill="#3385cbe7"/>
  <rect x="24" y="1" width="1" height="1" fill="#2c81bfaa"/>
  <rect x="25" y="1" width="1" height="1" fill="#3989bb3e"/>
  <rect x="49" y="1" width="1" height="1" fill="#dbd9dc46"/>
  <rect x="50" y="1" width="1" height="1" fill="#d9d6d9b2"/>
  <rect x="51" y="1" width="1" height="1" fill="#d7d4d7e9"/>
  <rect x="52" y="1" width="1" height="1" fill="#d7d4d7"/>
  <rect x="53" y="1" width="1" height="1" fill="#d7d4d7e7"/>
  <rect x="54" y="1" width="1" height="1" fill="#d7d4d7aa"/>
  <rect x="55" y="1" width="1" height="1" fill="#d7d4d73e"/>
  <rect x="3" y="2" width="1" height="1" fill="#3e8baea2"/>
  <rect x="4" y="2" width="1" height="1" fill="#4291c1"/>
  <rect x="5" y="2" width="1" height="1" fill="#3d93c6"/>
  <rect x="6" y="2" width="1" height="1" fill="#3597c6"/>
  <rect x="7" y="2" width="1" height="1" fill="#3599c7"/>
  <rect x="8" y="2" width="1" height="1" fill="#3899ca"/>
  <rect x="9" y="2" width="1" height="1" fill="#3992c8"/>
  <rect x="10" y="2" width="1" height="1" fill="#3b88c5"/>
  <rect x="11" y="2" width="1" height="1" fill="#3983c397"/>
  <rect x="18" y="2" width="1" height="1" fill="#298ecba2"/>
  <rect x="19" y="2" width="1" height="1" fill="#208ac6"/>
  <rect x="20" y="2" width="1" height="1" fill="#2988c1"/>
  <rect x="21" y="2" width="1" height="1" fill="#2c87bf"/>
  <rect x="22" y="2" width="1" height="1" fill="#2c86c5"/>
  <rect x="23" y="2" width="1" height="1" fill="#2c84c4"/>
  <rect x="24" y="2" width="1" height="1" fill="#2d82c0"/>
  <rect x="25" y="2" width="1" height="1" fill="#2e83b8"/>
  <rect x="26" y="2" width="1" height="1" fill="#3786b097"/>
  <rect x="35" y="2" width="1" height="1" fill="#3989bd46"/>
  <rect x="36" y="2" width="1" height="1" fill="#3988bfb2"/>
  <rect x="37" y="2" width="1" height="1" fill="#3789c1e9"/>
  <rect x="38" y="2" width="1" height="1" fill="#348ac1"/>
  <rect x="39" y="2" width="1" height="1" fill="#348bbfe7"/>
  <rect x="40" y="2" width="1" height="1" fill="#3588b5aa"/>
  <rect x="41" y="2" width="1" height="1" fill="#3786b23e"/>
  <rect x="48" y="2" width="1" height="1" fill="#d2d0cea2"/>
  <rect x="49" y="2" width="1" height="1" fill="#d4d2d5"/>
  <rect x="50" y="2" width="1" height="1" fill="#d7d4d7"/>
  <rect x="51" y="2" width="5" height="1" fill="#d9d6d9"/>
  <rect x="56" y="2" width="1" height="1" fill="#d4d2d597"/>
  <rect x="2" y="3" width="1" height="1" fill="#3e8bae9e"/>
  <rect x="3" y="3" width="1" height="1" fill="#4793b7"/>
  <rect x="4" y="3" width="1" height="1" fill="#5090b8"/>
  <rect x="5" y="3" width="1" height="1" fill="#4e90ba"/>
  <rect x="6" y="3" width="1" height="1" fill="#4195c2"/>
  <rect x="7" y="3" width="1" height="1" fill="#3c95bf"/>
  <rect x="8" y="3" width="1" height="1" fill="#4091b3"/>
  <rect x="9" y="3" width="1" height="1" fill="#458cb4"/>
  <rect x="10" y="3" width="1" height="1" fill="#4c8ac2"/>
  <rect x="11" y="3" width="1" height="1" fill="#488dcf"/>
  <rect x="12" y="3" width="1" height="1" fill="#328bcd94"/>
  <rect x="17" y="3" width="1" height="1" fill="#2b84ba9e"/>
  <rect x="18" y="3" width="1" height="1" fill="#2a89c2"/>
  <rect x="19" y="3" width="1" height="1" fill="#318fc4"/>
  <rect x="20" y="3" width="1" height="1" fill="#3589b3"/>
  <rect x="21" y="3" width="1" height="1" fill="#3688b1"/>
  <rect x="22" y="3" width="1" height="1" fill="#308ab9"/>
  <rect x="23" y="3" width="1" height="1" fill="#3388bb"/>
  <rect x="24" y="3" width="1" height="1" fill="#367eac"/>
  <rect x="25" y="3" width="1" height="1" fill="#387fab"/>
  <rect x="26" y="3" width="1" height="1" fill="#3385af"/>
  <rect x="27" y="3" width="1" height="1" fill="#2d88b594"/>
  <rect x="34" y="3" width="1" height="1" fill="#2d81bba2"/>
  <rect x="35" y="3" width="1" height="1" fill="#3586c3"/>
  <rect x="36" y="3" width="1" height="1" fill="#3386c5"/>
  <rect x="37" y="3" width="1" height="1" fill="#3087c7"/>
  <rect x="38" y="3" width="1" height="1" fill="#298bc7"/>
  <rect x="39" y="3" width="1" height="1" fill="#2b8bc3"/>
  <rect x="40" y="3" width="1" height="1" fill="#3389b7"/>
  <rect x="41" y="3" width="1" height="1" fill="#3586b6"/>
  <rect x="42" y="3" width="1" height="1" fill="#398cc297"/>
  <rect x="47" y="3" width="1" height="1" fill="#d0cebf9e"/>
  <rect x="48" y="3" width="1" height="1" fill="#d8d6d2"/>
  <rect x="49" y="3" width="1" height="1" fill="#d7d4d7"/>
  <rect x="50" y="3" width="1" height="1" fill="#d6d3d6"/>
  <rect x="51" y="3" width="6" height="1" fill="#d4d2d5"/>
  <rect x="57" y="3" width="1" height="1" fill="#d4d2d594"/>
  <rect x="1" y="4" width="1" height="1" fill="#418abf43"/>
  <rect x="2" y="4" width="1" height="1" fill="#408fbf"/>
  <rect x="3" y="4" width="1" height="1" fill="#4d8eb5"/>
  <rect x="4" y="4" width="1" height="1" fill="#e5ffff"/>
  <rect x="5" y="4" width="1" height="1" fill="#e9ffff"/>
  <rect x="6" y="4" width="1" height="1" fill="#4a87b7"/>
  <rect x="7" y="4" width="1" height="1" fill="#468cb9"/>
  <rect x="8" y="4" width="1" height="1" fill="#51879b"/>
  <rect x="9" y="4" width="1" height="1" fill="#d7ffff"/>
  <rect x="10" y="4" width="1" height="1" fill="#d6ffff"/>
  <rect x="11" y="4" width="1" height="1" fill="#4e89c2"/>
  <rect x="12" y="4" width="1" height="1" fill="#388ecc"/>
  <rect x="13" y="4" width="1" height="1" fill="#3292d13a"/>
  <rect x="16" y="4" width="1" height="1" fill="#3687c243"/>
  <rect x="17" y="4" width="1" height="1" fill="#3681b8"/>
  <rect x="18" y="4" width="1" height="1" fill="#4083b3"/>
  <rect x="19" y="4" width="1" height="1" fill="#ceffff"/>
  <rect x="20" y="4" width="1" height="1" fill="#d8ffff"/>
  <rect x="21" y="4" width="1" height="1" fill="#438090"/>
  <rect x="22" y="4" width="1" height="1" fill="#3a8ca7"/>
  <rect x="23" y="4" width="1" height="1" fill="#3b87a2"/>
  <rect x="24" y="4" width="1" height="1" fill="#e0ffff"/>
  <rect x="25" y="4" width="1" height="1" fill="#dcffff"/>
  <rect x="26" y="4" width="1" height="1" fill="#418cb5"/>
  <rect x="27" y="4" width="1" height="1" fill="#2383b7"/>
  <rect x="28" y="4" width="1" height="1" fill="#218ac43a"/>
  <rect x="33" y="4" width="1" height="1" fill="#338dc19e"/>
  <rect x="34" y="4" width="1" height="1" fill="#307db5"/>
  <rect x="35" y="4" width="1" height="1" fill="#3d81ba"/>
  <rect x="36" y="4" width="1" height="1" fill="#4387c0"/>
  <rect x="37" y="4" width="1" height="1" fill="#3a83ba"/>
  <rect x="38" y="4" width="1" height="1" fill="#3388b9"/>
  <rect x="39" y="4" width="1" height="1" fill="#3588b5"/>
  <rect x="40" y="4" width="1" height="1" fill="#4082ac"/>
  <rect x="41" y="4" width="1" height="1" fill="#4183ad"/>
  <rect x="42" y="4" width="1" height="1" fill="#3586b4"/>
  <rect x="43" y="4" width="1" height="1" fill="#2981b194"/>
  <rect x="46" y="4" width="1" height="1" fill="#bad2da43"/>
  <rect x="47" y="4" width="1" height="1" fill="#d9d9d7"/>
  <rect x="48" y="4" width="1" height="1" fill="#d7d4d5"/>
  <rect x="49" y="4" width="1" height="2" fill="#fcf9fc"/>
  <rect x="50" y="4" width="1" height="1" fill="#fdfafe"/>
  <rect x="51" y="4" width="1" height="1" fill="#d9d6d9"/>
  <rect x="52" y="4" width="1" height="1" fill="#d8d5d8"/>
  <rect x="53" y="4" width="1" height="1" fill="#d7d4d7"/>
  <rect x="54" y="4" width="1" height="1" fill="#fefbff"/>
  <rect x="55" y="4" width="1" height="1" fill="#fdfafe"/>
  <rect x="56" y="4" width="2" height="4" fill="#d6d3d6"/>
  <rect x="58" y="4" width="1" height="1" fill="#d6d3d63a"/>
  <rect x="1" y="5" width="1" height="1" fill="#398dc7ac"/>
  <rect x="2" y="5" width="1" height="1" fill="#3b90c3"/>
  <rect x="3" y="5" width="1" height="1" fill="#4c8eb7"/>
  <rect x="4" y="5" width="1" height="1" fill="#e9ffff"/>
  <rect x="5" y="5" width="1" height="1" fill="#f4ffff"/>
  <rect x="6" y="5" width="1" height="1" fill="#daffff"/>
  <rect x="7" y="5" width="1" height="1" fill="#5485a9"/>
  <rect x="8" y="5" width="1" height="1" fill="#dcffff"/>
  <rect x="9" y="5" width="1" height="1" fill="#d3faff"/>
  <rect x="10" y="5" width="1" height="1" fill="#dbffff"/>
  <rect x="11" y="5" width="1" height="1" fill="#4d8dc5"/>
  <rect x="12" y="5" width="1" height="1" fill="#388ece"/>
  <rect x="13" y="5" width="1" height="1" fill="#3292d3a3"/>
  <rect x="16" y="5" width="1" height="1" fill="#2e83baac"/>
  <rect x="17" y="5" width="1" height="1" fill="#3781b6"/>
  <rect x="18" y="5" width="1" height="1" fill="#4581b1"/>
  <rect x="19" y="5" width="1" height="1" fill="#daffff"/>
  <rect x="20" y="5" width="1" height="1" fill="#e4ffff"/>
  <rect x="21" y="5" width="1" height="1" fill="#e2ffff"/>
  <rect x="22" y="5" width="1" height="1" fill="#468191"/>
  <rect x="23" y="5" width="1" height="1" fill="#d7ffff"/>
  <rect x="24" y="5" width="1" height="1" fill="#e4ffff"/>
  <rect x="25" y="5" width="1" height="1" fill="#d7ffff"/>
  <rect x="26" y="5" width="1" height="1" fill="#3988b4"/>
  <rect x="27" y="5" width="1" height="1" fill="#298dc4"/>
  <rect x="28" y="5" width="1" height="1" fill="#208ac6a3"/>
  <rect x="32" y="5" width="1" height="1" fill="#3294c743"/>
  <rect x="33" y="5" width="1" height="1" fill="#2c86b8"/>
  <rect x="34" y="5" width="1" height="1" fill="#3f81b6"/>
  <rect x="35" y="5" width="1" height="1" fill="#d5ffff"/>
  <rect x="36" y="5" width="1" height="1" fill="#cfffff"/>
  <rect x="37" y="5" width="1" height="1" fill="#4479a0"/>
  <rect x="38" y="5" width="1" height="1" fill="#3f819f"/>
  <rect x="39" y="5" width="1" height="1" fill="#3d8099"/>
  <rect x="40" y="5" width="1" height="1" fill="#d3ffff"/>
  <rect x="41" y="5" width="1" height="1" fill="#cbffff"/>
  <rect x="42" y="5" width="1" height="1" fill="#3c8cb8"/>
  <rect x="43" y="5" width="1" height="1" fill="#2587bc"/>
  <rect x="44" y="5" width="1" height="1" fill="#2392d13a"/>
  <rect x="46" y="5" width="1" height="1" fill="#b8d9ecac"/>
  <rect x="47" y="5" width="1" height="1" fill="#cdd1d4"/>
  <rect x="48" y="5" width="1" height="1" fill="#d5d5d7"/>
  <rect x="50" y="5" width="1" height="1" fill="#fffeff"/>
  <rect x="51" y="5" width="1" height="1" fill="#fcf9fc"/>
  <rect x="52" y="5" width="1" height="1" fill="#d7d4d7"/>
  <rect x="53" y="5" width="1" height="1" fill="#f8f6f9"/>
  <rect x="54" y="5" width="1" height="1" fill="#fffdff"/>
  <rect x="55" y="5" width="1" height="1" fill="#fefbff"/>
  <rect x="58" y="5" width="1" height="1" fill="#d6d3d6a3"/>
  <rect x="1" y="6" width="1" height="1" fill="#2f91c9e8"/>
  <rect x="2" y="6" width="1" height="2" fill="#3394c3"/>
  <rect x="3" y="6" width="1" height="1" fill="#3f93bf"/>
  <rect x="4" y="6" width="1" height="1" fill="#4a87b7"/>
  <rect x="5" y="6" width="1" height="1" fill="#daffff"/>
  <rect x="6" y="6" width="1" height="1" fill="#ecffff"/>
  <rect x="7" y="6" width="1" height="1" fill="#e9ffff"/>
  <rect x="8" y="6" width="1" height="1" fill="#e2ffff"/>
  <rect x="9" y="6" width="1" height="1" fill="#deffff"/>
  <rect x="10" y="6" width="1" height="1" fill="#579bc8"/>
  <rect x="11" y="6" width="1" height="1" fill="#4093d2"/>
  <rect x="12" y="6" width="1" height="1" fill="#368edb"/>
  <rect x="13" y="6" width="1" height="1" fill="#3290dde1"/>
  <rect x="16" y="6" width="1" height="1" fill="#2886b8e8"/>
  <rect x="17" y="6" width="1" height="1" fill="#3489bc"/>
  <rect x="18" y="6" width="1" height="1" fill="#3580b8"/>
  <rect x="19" y="6" width="1" height="1" fill="#437caf"/>
  <rect x="20" y="6" width="1" height="1" fill="#e0ffff"/>
  <rect x="21" y="6" width="1" height="1" fill="#ecffff"/>
  <rect x="22" y="6" width="1" height="1" fill="#e9fdff"/>
  <rect x="23" y="6" width="1" height="1" fill="#ddfcff"/>
  <rect x="24" y="6" width="1" height="1" fill="#cfffff"/>
  <rect x="25" y="6" width="1" height="1" fill="#3e84b1"/>
  <rect x="26" y="6" width="1" height="1" fill="#2885bc"/>
  <rect x="27" y="6" width="1" height="1" fill="#1e86c0"/>
  <rect x="28" y="6" width="1" height="1" fill="#2489bee1"/>
  <rect x="32" y="6" width="1" height="1" fill="#2287bbac"/>
  <rect x="33" y="6" width="1" height="1" fill="#2c84b1"/>
  <rect x="34" y="6" width="1" height="1" fill="#4981b0"/>
  <rect x="35" y="6" width="1" height="1" fill="#e0ffff"/>
  <rect x="36" y="6" width="1" height="1" fill="#eeffff"/>
  <rect x="37" y="6" width="1" height="1" fill="#ecffff"/>
  <rect x="38" y="6" width="1" height="1" fill="#587e81"/>
  <rect x="39" y="6" width="1" height="1" fill="#dbffff"/>
  <rect x="40" y="6" width="1" height="1" fill="#e2ffff"/>
  <rect x="41" y="6" width="1" height="1" fill="#daffff"/>
  <rect x="42" y="6" width="1" height="1" fill="#3480b1"/>
  <rect x="43" y="6" width="1" height="1" fill="#2c8bca"/>
  <rect x="44" y="6" width="1" height="1" fill="#1780c8a3"/>
  <rect x="46" y="6" width="1" height="1" fill="#b6def0e8"/>
  <rect x="47" y="6" width="1" height="1" fill="#c6d1d2"/>
  <rect x="48" y="6" width="1" height="1" fill="#d5d7d8"/>
  <rect x="49" y="6" width="1" height="1" fill="#d3d0d4"/>
  <rect x="50" y="6" width="1" height="1" fill="#fbf8fb"/>
  <rect x="51" y="6" width="1" height="1" fill="#fdfafe"/>
  <rect x="52" y="6" width="1" height="1" fill="#fefbff"/>
  <rect x="53" y="6" width="1" height="1" fill="#fffdff"/>
  <rect x="54" y="6" width="1" height="1" fill="#f8f6f9"/>
  <rect x="55" y="6" width="1" height="1" fill="#d7d4d7"/>
  <rect x="58" y="6" width="1" height="1" fill="#d6d3d6e1"/>
  <rect x="1" y="7" width="1" height="1" fill="#2c92cbfe"/>
  <rect x="3" y="7" width="1" height="1" fill="#3d94bf"/>
  <rect x="4" y="7" width="1" height="1" fill="#488cb9"/>
  <rect x="5" y="7" width="1" height="1" fill="#5684a9"/>
  <rect x="6" y="7" width="1" height="1" fill="#ebffff"/>
  <rect x="7" y="7" width="1" height="1" fill="#efffff"/>
  <rect x="8" y="7" width="1" height="1" fill="#e9ffff"/>
  <rect x="9" y="7" width="1" height="1" fill="#5e8ca4"/>
  <rect x="10" y="7" width="1" height="1" fill="#4891bd"/>
  <rect x="11" y="7" width="1" height="1" fill="#368ecb"/>
  <rect x="12" y="7" width="1" height="1" fill="#358fdb"/>
  <rect x="13" y="7" width="1" height="1" fill="#3290ddf4"/>
  <rect x="16" y="7" width="1" height="1" fill="#2083b6fe"/>
  <rect x="17" y="7" width="1" height="1" fill="#2f8bbe"/>
  <rect x="18" y="7" width="1" height="1" fill="#3383b8"/>
  <rect x="19" y="7" width="1" height="1" fill="#4581b1"/>
  <rect x="20" y="7" width="1" height="1" fill="#627fa3"/>
  <rect x="21" y="7" width="1" height="1" fill="#f3ffff"/>
  <rect x="22" y="7" width="1" height="1" fill="#f6ffff"/>
  <rect x="23" y="7" width="1" height="1" fill="#e5fdff"/>
  <rect x="24" y="7" width="1" height="1" fill="#4e81a4"/>
  <rect x="25" y="7" width="1" height="1" fill="#3e8bba"/>
  <rect x="26" y="7" width="1" height="1" fill="#3393cb"/>
  <rect x="27" y="7" width="1" height="1" fill="#2288c0"/>
  <rect x="28" y="7" width="1" height="1" fill="#2688bef4"/>
  <rect x="32" y="7" width="1" height="1" fill="#2083b6e8"/>
  <rect x="33" y="7" width="1" height="1" fill="#3187b5"/>
  <rect x="34" y="7" width="1" height="1" fill="#427fad"/>
  <rect x="35" y="7" width="1" height="1" fill="#4c749b"/>
  <rect x="36" y="7" width="1" height="1" fill="#eaffff"/>
  <rect x="37" y="7" width="1" height="1" fill="#ebfdff"/>
  <rect x="38" y="7" width="1" height="1" fill="#e7fdf8"/>
  <rect x="39" y="7" width="1" height="1" fill="#f4ffff"/>
  <rect x="40" y="7" width="1" height="1" fill="#deffff"/>
  <rect x="41" y="7" width="1" height="1" fill="#4d80a1"/>
  <rect x="42" y="7" width="1" height="1" fill="#3784bc"/>
  <rect x="43" y="7" width="1" height="1" fill="#3290d2"/>
  <rect x="44" y="7" width="1" height="1" fill="#2f8fd5e1"/>
  <rect x="46" y="7" width="1" height="1" fill="#bad9eafe"/>
  <rect x="47" y="7" width="1" height="1" fill="#cdd4d2"/>
  <rect x="48" y="7" width="1" height="1" fill="#d6d8d7"/>
  <rect x="49" y="7" width="1" height="1" fill="#d7d4d7"/>
  <rect x="50" y="7" width="1" height="1" fill="#d8d5d8"/>
  <rect x="51" y="7" width="2" height="1" fill="#fdfafe"/>
  <rect x="53" y="7" width="1" height="1" fill="#fefbff"/>
  <rect x="54" y="7" width="1" height="1" fill="#d7d4d7"/>
  <rect x="55" y="7" width="1" height="1" fill="#d8d5d8"/>
  <rect x="58" y="7" width="1" height="1" fill="#d6d3d6f4"/>
  <rect x="1" y="8" width="1" height="1" fill="#2d8dcfe7"/>
  <rect x="2" y="8" width="1" height="1" fill="#3891c5"/>
  <rect x="3" y="8" width="1" height="1" fill="#4990b7"/>
  <rect x="4" y="8" width="1" height="1" fill="#5886a0"/>
  <rect x="5" y="8" width="1" height="1" fill="#e5ffff"/>
  <rect x="6" y="8" width="1" height="1" fill="#ecffff"/>
  <rect x="7" y="8" width="1" height="1" fill="#e7fcff"/>
  <rect x="8" y="8" width="1" height="1" fill="#efffff"/>
  <rect x="9" y="8" width="1" height="1" fill="#e0ffff"/>
  <rect x="10" y="8" width="1" height="1" fill="#5491b3"/>
  <rect x="11" y="8" width="1" height="1" fill="#408fbf"/>
  <rect x="12" y="8" width="1" height="1" fill="#3891d0"/>
  <rect x="13" y="8" width="1" height="1" fill="#3092d5e0"/>
  <rect x="16" y="8" width="1" height="1" fill="#298fc9e7"/>
  <rect x="17" y="8" width="1" height="1" fill="#3593c7"/>
  <rect x="18" y="8" width="1" height="1" fill="#3785ab"/>
  <rect x="19" y="8" width="1" height="1" fill="#447b96"/>
  <rect x="20" y="8" width="1" height="1" fill="#e6feff"/>
  <rect x="21" y="8" width="1" height="1" fill="#e8f6ff"/>
  <rect x="22" y="8" width="1" height="1" fill="#eeffff"/>
  <rect x="23" y="8" width="1" height="1" fill="#e7ffff"/>
  <rect x="24" y="8" width="1" height="1" fill="#dbffff"/>
  <rect x="25" y="8" width="1" height="1" fill="#4882a3"/>
  <rect x="26" y="8" width="1" height="1" fill="#3384b1"/>
  <rect x="27" y="8" width="1" height="1" fill="#2885bc"/>
  <rect x="28" y="8" width="1" height="1" fill="#2485bfe0"/>
  <rect x="32" y="8" width="1" height="1" fill="#3087bcfe"/>
  <rect x="33" y="8" width="1" height="1" fill="#3186b9"/>
  <rect x="34" y="8" width="1" height="1" fill="#3584b7"/>
  <rect x="35" y="8" width="1" height="1" fill="#3f80af"/>
  <rect x="36" y="8" width="1" height="1" fill="#447899"/>
  <rect x="37" y="8" width="1" height="1" fill="#e5ffff"/>
  <rect x="38" y="8" width="1" height="1" fill="#efffff"/>
  <rect x="39" y="8" width="1" height="1" fill="#e5f9fd"/>
  <rect x="40" y="8" width="1" height="1" fill="#567c9d"/>
  <rect x="41" y="8" width="1" height="1" fill="#4c88ba"/>
  <rect x="42" y="8" width="1" height="1" fill="#2d83be"/>
  <rect x="43" y="8" width="1" height="1" fill="#308ece"/>
  <rect x="44" y="8" width="1" height="1" fill="#3188c1f4"/>
  <rect x="46" y="8" width="1" height="1" fill="#c7d1dde7"/>
  <rect x="47" y="8" width="1" height="1" fill="#e3d8d5"/>
  <rect x="48" y="8" width="1" height="1" fill="#d8d6d4"/>
  <rect x="49" y="8" width="1" height="1" fill="#d9d9d9"/>
  <rect x="50" y="8" width="1" height="1" fill="#f8f8f8"/>
  <rect x="51" y="8" width="1" height="1" fill="#ffffff"/>
  <rect x="52" y="8" width="1" height="1" fill="#fafafa"/>
  <rect x="53" y="8" width="1" height="1" fill="#fcfbfc"/>
  <rect x="54" y="8" width="1" height="1" fill="#fafafa"/>
  <rect x="55" y="8" width="1" height="1" fill="#d6d6d6"/>
  <rect x="56" y="8" width="2" height="1" fill="#d4d4d4"/>
  <rect x="58" y="8" width="1" height="1" fill="#d4d4d4e0"/>
  <rect x="1" y="9" width="1" height="1" fill="#3594d4aa"/>
  <rect x="2" y="9" width="1" height="1" fill="#3c8dc6"/>
  <rect x="3" y="9" width="1" height="1" fill="#4b8cb8"/>
  <rect x="4" y="9" width="1" height="1" fill="#e1ffff"/>
  <rect x="5" y="9" width="2" height="1" fill="#e2ffff"/>
  <rect x="7" y="9" width="1" height="1" fill="#568096"/>
  <rect x="8" y="9" width="1" height="1" fill="#d9feff"/>
  <rect x="9" y="9" width="1" height="1" fill="#e3ffff"/>
  <rect x="10" y="9" width="1" height="1" fill="#ceffff"/>
  <rect x="11" y="9" width="1" height="1" fill="#3d8ab6"/>
  <rect x="12" y="9" width="1" height="1" fill="#3992c8"/>
  <rect x="13" y="9" width="1" height="1" fill="#308fcaa0"/>
  <rect x="16" y="9" width="1" height="1" fill="#2889c8aa"/>
  <rect x="17" y="9" width="1" height="1" fill="#2b86be"/>
  <rect x="18" y="9" width="1" height="1" fill="#3c89aa"/>
  <rect x="19" y="9" width="1" height="1" fill="#ceffff"/>
  <rect x="20" y="9" width="1" height="1" fill="#e1ffff"/>
  <rect x="21" y="9" width="1" height="1" fill="#dffeff"/>
  <rect x="22" y="9" width="1" height="1" fill="#508097"/>
  <rect x="23" y="9" width="1" height="1" fill="#ceffff"/>
  <rect x="24" y="9" width="1" height="1" fill="#ddffff"/>
  <rect x="25" y="9" width="1" height="1" fill="#d4ffff"/>
  <rect x="26" y="9" width="1" height="1" fill="#3d88b3"/>
  <rect x="27" y="9" width="1" height="1" fill="#328bc1"/>
  <rect x="28" y="9" width="1" height="1" fill="#2182bfa0"/>
  <rect x="32" y="9" width="1" height="1" fill="#2d82b7e7"/>
  <rect x="33" y="9" width="1" height="1" fill="#2e83b6"/>
  <rect x="34" y="9" width="1" height="1" fill="#3687b7"/>
  <rect x="35" y="9" width="1" height="1" fill="#367fa8"/>
  <rect x="36" y="9" width="1" height="1" fill="#cdffff"/>
  <rect x="37" y="9" width="1" height="1" fill="#e1ffff"/>
  <rect x="38" y="9" width="2" height="1" fill="#e7ffff"/>
  <rect x="40" y="9" width="1" height="1" fill="#ecffff"/>
  <rect x="41" y="9" width="1" height="1" fill="#4b83b6"/>
  <rect x="42" y="9" width="1" height="1" fill="#2e83c2"/>
  <rect x="43" y="9" width="1" height="1" fill="#2b8ac7"/>
  <rect x="44" y="9" width="1" height="1" fill="#2e80b6e0"/>
  <rect x="46" y="9" width="1" height="1" fill="#c4cbd9aa"/>
  <rect x="47" y="9" width="1" height="1" fill="#d8caca"/>
  <rect x="48" y="9" width="1" height="1" fill="#dad8d7"/>
  <rect x="49" y="9" width="1" height="1" fill="#fdfffd"/>
  <rect x="50" y="9" width="1" height="1" fill="#fcfffc"/>
  <rect x="51" y="9" width="1" height="1" fill="#f4f7f4"/>
  <rect x="52" y="9" width="1" height="1" fill="#d3d6d3"/>
  <rect x="53" y="9" width="1" height="1" fill="#f8faf7"/>
  <rect x="54" y="9" width="1" height="1" fill="#fcfffc"/>
  <rect x="55" y="9" width="1" height="1" fill="#fafdf9"/>
  <rect x="56" y="9" width="2" height="1" fill="#d2d5d2"/>
  <rect x="58" y="9" width="1" height="1" fill="#d2d5d2a0"/>
  <rect x="1" y="10" width="1" height="1" fill="#439ed83e"/>
  <rect x="2" y="10" width="1" height="1" fill="#3a8cc7"/>
  <rect x="3" y="10" width="1" height="1" fill="#488ac1"/>
  <rect x="4" y="10" width="1" height="1" fill="#dcffff"/>
  <rect x="5" y="10" width="1" height="1" fill="#dbffff"/>
  <rect x="6" y="10" width="1" height="1" fill="#4891bd"/>
  <rect x="7" y="10" width="1" height="1" fill="#4592bd"/>
  <rect x="8" y="10" width="1" height="1" fill="#4a89ab"/>
  <rect x="9" y="10" width="1" height="1" fill="#c6ffff"/>
  <rect x="10" y="10" width="1" height="1" fill="#c8ffff"/>
  <rect x="11" y="10" width="1" height="1" fill="#4899c8"/>
  <rect x="12" y="10" width="1" height="1" fill="#368cbffe"/>
  <rect x="13" y="10" width="1" height="1" fill="#4198cc36"/>
  <rect x="16" y="10" width="1" height="1" fill="#3388c63e"/>
  <rect x="17" y="10" width="1" height="1" fill="#3a8cc7"/>
  <rect x="18" y="10" width="1" height="1" fill="#3a85b0"/>
  <rect x="19" y="10" width="1" height="1" fill="#cfffff"/>
  <rect x="20" y="10" width="1" height="1" fill="#d3ffff"/>
  <rect x="21" y="10" width="1" height="1" fill="#4784a4"/>
  <rect x="22" y="10" width="1" height="1" fill="#3684a9"/>
  <rect x="23" y="10" width="1" height="1" fill="#3d8bae"/>
  <rect x="24" y="10" width="1" height="1" fill="#ccffff"/>
  <rect x="25" y="10" width="1" height="1" fill="#d3ffff"/>
  <rect x="26" y="10" width="1" height="1" fill="#317ead"/>
  <rect x="27" y="10" width="1" height="1" fill="#3089bffe"/>
  <rect x="28" y="10" width="1" height="1" fill="#2788c536"/>
  <rect x="32" y="10" width="1" height="1" fill="#348dc6aa"/>
  <rect x="33" y="10" width="1" height="1" fill="#3186b9"/>
  <rect x="34" y="10" width="1" height="1" fill="#3f84aa"/>
  <rect x="35" y="10" width="1" height="1" fill="#d7ffff"/>
  <rect x="36" y="10" width="1" height="1" fill="#d6ffff"/>
  <rect x="37" y="10" width="1" height="1" fill="#d1ffff"/>
  <rect x="38" y="10" width="1" height="1" fill="#4885a5"/>
  <rect x="39" y="10" width="1" height="1" fill="#dbffff"/>
  <rect x="40" y="10" width="1" height="1" fill="#dffdff"/>
  <rect x="41" y="10" width="1" height="1" fill="#ddffff"/>
  <rect x="42" y="10" width="1" height="1" fill="#327fb7"/>
  <rect x="43" y="10" width="1" height="1" fill="#2b87c8"/>
  <rect x="44" y="10" width="1" height="1" fill="#3f93cda0"/>
  <rect x="46" y="10" width="1" height="1" fill="#c2d5ea3e"/>
  <rect x="47" y="10" width="1" height="1" fill="#cdced4"/>
  <rect x="48" y="10" width="1" height="1" fill="#d5d7d6"/>
  <rect x="49" y="10" width="1" height="1" fill="#fcfffc"/>
  <rect x="50" y="10" width="1" height="1" fill="#fbfefb"/>
  <rect x="51" y="10" width="1" height="1" fill="#d3d6d3"/>
  <rect x="52" y="10" width="1" height="1" fill="#d2d5d2"/>
  <rect x="53" y="10" width="1" height="1" fill="#d0d3d0"/>
  <rect x="54" y="10" width="1" height="1" fill="#f8faf7"/>
  <rect x="55" y="10" width="1" height="1" fill="#f9fcf8"/>
  <rect x="56" y="10" width="1" height="2" fill="#d2d5d2"/>
  <rect x="57" y="10" width="1" height="1" fill="#d2d5d2fe"/>
  <rect x="58" y="10" width="1" height="1" fill="#d2d5d236"/>
  <rect x="2" y="11" width="1" height="1" fill="#388bc896"/>
  <rect x="3" y="11" width="1" height="1" fill="#3c8bc9"/>
  <rect x="4" y="11" width="1" height="1" fill="#4c91c7"/>
  <rect x="5" y="11" width="1" height="1" fill="#438dc1"/>
  <rect x="6" y="11" width="1" height="1" fill="#3c98d4"/>
  <rect x="7" y="11" width="1" height="1" fill="#3493ce"/>
  <rect x="8" y="11" width="1" height="1" fill="#3a8ebd"/>
  <rect x="9" y="11" width="1" height="1" fill="#3582ae"/>
  <rect x="10" y="11" width="1" height="1" fill="#4192c1"/>
  <rect x="11" y="11" width="1" height="1" fill="#398cbe"/>
  <rect x="12" y="11" width="1" height="1" fill="#2f82b38e"/>
  <rect x="17" y="11" width="1" height="1" fill="#378ec796"/>
  <rect x="18" y="11" width="1" height="1" fill="#3584b5"/>
  <rect x="19" y="11" width="1" height="1" fill="#3e89b4"/>
  <rect x="20" y="11" width="1" height="1" fill="#3c87b2"/>
  <rect x="21" y="11" width="1" height="1" fill="#3082af"/>
  <rect x="22" y="11" width="1" height="1" fill="#2e8cbe"/>
  <rect x="23" y="11" width="1" height="1" fill="#308abb"/>
  <rect x="24" y="11" width="1" height="1" fill="#3b82a9"/>
  <rect x="25" y="11" width="1" height="1" fill="#4287ad"/>
  <rect x="26" y="11" width="1" height="1" fill="#3586b6"/>
  <rect x="27" y="11" width="1" height="1" fill="#338ec68e"/>
  <rect x="32" y="11" width="1" height="1" fill="#3089c13e"/>
  <rect x="33" y="11" width="1" height="1" fill="#3083b4"/>
  <rect x="34" y="11" width="1" height="1" fill="#4186aa"/>
  <rect x="35" y="11" width="1" height="1" fill="#d0ffff"/>
  <rect x="36" y="11" width="1" height="1" fill="#d1ffff"/>
  <rect x="37" y="11" width="1" height="1" fill="#4586a9"/>
  <rect x="38" y="11" width="1" height="1" fill="#3b88b4"/>
  <rect x="39" y="11" width="1" height="1" fill="#3b81ad"/>
  <rect x="40" y="11" width="1" height="1" fill="#ddffff"/>
  <rect x="41" y="11" width="1" height="1" fill="#d1feff"/>
  <rect x="42" y="11" width="1" height="1" fill="#3b86be"/>
  <rect x="43" y="11" width="1" height="1" fill="#368ac9fe"/>
  <rect x="44" y="11" width="1" height="1" fill="#4185b936"/>
  <rect x="47" y="11" width="1" height="1" fill="#cbd3da96"/>
  <rect x="48" y="11" width="1" height="1" fill="#ced3d4"/>
  <rect x="49" y="11" width="1" height="2" fill="#d3d6d3"/>
  <rect x="50" y="11" width="1" height="1" fill="#d2d5d2"/>
  <rect x="51" y="11" width="1" height="1" fill="#d0d3d0"/>
  <rect x="52" y="11" width="2" height="1" fill="#d5d7d4"/>
  <rect x="54" y="11" width="1" height="1" fill="#d2d5d2"/>
  <rect x="55" y="11" width="1" height="1" fill="#d3d6d3"/>
  <rect x="57" y="11" width="1" height="1" fill="#d2d5d28e"/>
  <rect x="3" y="12" width="1" height="1" fill="#2c90ce95"/>
  <rect x="4" y="12" width="1" height="1" fill="#3190cb"/>
  <rect x="5" y="12" width="1" height="1" fill="#3190cd"/>
  <rect x="6" y="12" width="2" height="1" fill="#2e8fd9"/>
  <rect x="8" y="12" width="1" height="1" fill="#3190cd"/>
  <rect x="9" y="12" width="1" height="1" fill="#3992c8"/>
  <rect x="10" y="12" width="1" height="1" fill="#398ec1fe"/>
  <rect x="11" y="12" width="1" height="1" fill="#3d90c18e"/>
  <rect x="18" y="12" width="1" height="1" fill="#2b86bc95"/>
  <rect x="19" y="12" width="1" height="1" fill="#358cc1"/>
  <rect x="20" y="12" width="1" height="1" fill="#3188bd"/>
  <rect x="21" y="12" width="1" height="1" fill="#3089c1"/>
  <rect x="22" y="12" width="1" height="1" fill="#2d89c7"/>
  <rect x="23" y="12" width="1" height="1" fill="#3088c5"/>
  <rect x="24" y="12" width="1" height="1" fill="#3886b9"/>
  <rect x="25" y="12" width="1" height="1" fill="#3786b4fe"/>
  <rect x="26" y="12" width="1" height="1" fill="#2e85ba8e"/>
  <rect x="33" y="12" width="1" height="1" fill="#3788ba96"/>
  <rect x="34" y="12" width="1" height="1" fill="#3584b3"/>
  <rect x="35" y="12" width="1" height="1" fill="#3784b1"/>
  <rect x="36" y="12" width="1" height="1" fill="#3786b4"/>
  <rect x="37" y="12" width="1" height="1" fill="#3586b6"/>
  <rect x="38" y="12" width="1" height="1" fill="#3287ba"/>
  <rect x="39" y="12" width="1" height="1" fill="#3585ba"/>
  <rect x="40" y="12" width="1" height="1" fill="#3d84b7"/>
  <rect x="41" y="12" width="1" height="1" fill="#3f86bb"/>
  <rect x="42" y="12" width="1" height="1" fill="#3584c2"/>
  <rect x="43" y="12" width="1" height="1" fill="#3f84bc8e"/>
  <rect x="48" y="12" width="1" height="1" fill="#d1d6d495"/>
  <rect x="50" y="12" width="1" height="1" fill="#d5d7d4"/>
  <rect x="51" y="12" width="1" height="1" fill="#d7dad7"/>
  <rect x="52" y="12" width="3" height="1" fill="#d3d6d3"/>
  <rect x="55" y="12" width="1" height="1" fill="#d3d6d3fe"/>
  <rect x="56" y="12" width="1" height="1" fill="#d2d5d28e"/>
  <rect x="4" y="13" width="1" height="1" fill="#2d93d039"/>
  <rect x="5" y="13" width="1" height="1" fill="#2f92d2a4"/>
  <rect x="6" y="13" width="1" height="1" fill="#2d90dce4"/>
  <rect x="7" y="13" width="1" height="1" fill="#2d90dcf8"/>
  <rect x="8" y="13" width="1" height="1" fill="#3092d5e2"/>
  <rect x="9" y="13" width="1" height="1" fill="#3392cda1"/>
  <rect x="10" y="13" width="1" height="1" fill="#4198cc37"/>
  <rect x="19" y="13" width="1" height="1" fill="#2c87c139"/>
  <rect x="20" y="13" width="1" height="1" fill="#2d8cc7a4"/>
  <rect x="21" y="13" width="1" height="1" fill="#2d8cc7e4"/>
  <rect x="22" y="13" width="1" height="1" fill="#318acbf8"/>
  <rect x="23" y="13" width="1" height="1" fill="#328ac9e2"/>
  <rect x="24" y="13" width="1" height="1" fill="#2e84bea1"/>
  <rect x="25" y="13" width="1" height="1" fill="#378ec537"/>
  <rect x="34" y="13" width="1" height="1" fill="#2b84ba95"/>
  <rect x="35" y="13" width="1" height="1" fill="#2f87c0"/>
  <rect x="36" y="13" width="1" height="1" fill="#2d88c0"/>
  <rect x="37" y="13" width="1" height="1" fill="#2f87c0"/>
  <rect x="38" y="13" width="1" height="1" fill="#3087be"/>
  <rect x="39" y="13" width="1" height="1" fill="#3188bf"/>
  <rect x="40" y="13" width="1" height="1" fill="#3388c4"/>
  <rect x="41" y="13" width="1" height="1" fill="#2f85c3fe"/>
  <rect x="42" y="13" width="1" height="1" fill="#3385c98e"/>
  <rect x="49" y="13" width="1" height="1" fill="#d7dad739"/>
  <rect x="50" y="13" width="1" height="1" fill="#d0d3d0a4"/>
  <rect x="51" y="13" width="1" height="1" fill="#cdcfcce4"/>
  <rect x="52" y="13" width="1" height="1" fill="#d2d5d2f8"/>
  <rect x="53" y="13" width="1" height="1" fill="#d2d5d2e2"/>
  <rect x="54" y="13" width="1" height="1" fill="#d2d5d2a1"/>
  <rect x="55" y="13" width="1" height="1" fill="#d2d5d237"/>
  <rect x="35" y="14" width="1" height="1" fill="#2889c639"/>
  <rect x="36" y="14" width="1" height="1" fill="#2a89c6a4"/>
  <rect x="37" y="14" width="1" height="1" fill="#2b89c2e4"/>
  <rect x="38" y="14" width="1" height="1" fill="#3087bcf8"/>
  <rect x="39" y="14" width="1" height="1" fill="#3286bce2"/>
  <rect x="40" y="14" width="1" height="1" fill="#3087bea1"/>
  <rect x="41" y="14" width="1" height="1" fill="#3088c537"/>
</svg>