<svg xmlns="http://www.w3.org/2000/svg" width="170" height="28" viewBox="0 0 170 28" shape-rendering="crispEdges">
  <rect x="0" y="0" width="136" height="4" fill="#f6f6f6"/>
  <rect x="136" y="0" width="34" height="4" fill="#f0f0f0"/>
  <rect x="0" y="4" width="67" height="8" fill="#f7f7f7"/>
  <rect x="67" y="4" width="2" height="8" fill="#f6f6f6"/>
  <rect x="69" y="4" width="3" height="8" fill="#f5f5f5"/>
  <rect x="72" y="4" width="32" height="8" fill="#f6f6f6"/>
  <rect x="104" y="4" width="32" height="8" fill="#f7f7f7"/>
  <rect x="136" y="4" width="34" height="2" fill="#f1f1f1"/>
  <rect x="136" y="6" width="8" height="4" fill="#f2f2f2"/>
  <rect x="144" y="6" width="26" height="2" fill="#f1f1f1"/>
  <rect x="144" y="8" width="26" height="2" fill="#f3f3f3"/>
  <rect x="136" y="10" width="34" height="2" fill="#f3f3f3"/>
  <rect x="0" y="12" width="136" height="2" fill="#f6f6f6"/>
  <rect x="136" y="12" width="34" height="4" fill="#f5f5f5"/>
  <rect x="0" y="14" width="32" height="2" fill="#f6f6f6"/>
  <rect x="32" y="14" width="6" height="2" fill="#f5f5f5"/>
  <rect x="38" y="14" width="26" height="2" fill="#f6f6f6"/>
  <rect x="64" y="14" width="6" height="2" fill="#f5f5f5"/>
  <rect x="70" y="14" width="66" height="2" fill="#f6f6f6"/>
  <rect x="0" y="16" width="30" height="4" fill="#f6f6f6"/>
  <rect x="30" y="16" width="10" height="2" fill="#f5f5f5"/>
  <rect x="40" y="16" width="8" height="2" fill="#f6f6f6"/>
  <rect x="48" y="16" width="14" height="2" fill="#f5f5f5"/>
  <rect x="62" y="16" width="2" height="2" fill="#f3f3f3"/>
  <rect x="64" y="16" width="8" height="2" fill="#f5f5f5"/>
  <rect x="72" y="16" width="8" height="8" fill="#f6f6f6"/>
  <rect x="80" y="16" width="48" height="8" fill="#f5f5f5"/>
  <rect x="128" y="16" width="42" height="4" fill="#f6f6f6"/>
  <rect x="30" y="18" width="3" height="2" fill="#f5f5f5"/>
  <rect x="33" y="18" width="2" height="1" fill="#f3f3f3"/>
  <rect x="35" y="18" width="1" height="1" fill="#f2f2f2"/>
  <rect x="36" y="18" width="2" height="1" fill="#f3f3f3"/>
  <rect x="38" y="18" width="12" height="1" fill="#f5f5f5"/>
  <rect x="50" y="18" width="14" height="1" fill="#f3f3f3"/>
  <rect x="64" y="18" width="2" height="1" fill="#f2f2f2"/>
  <rect x="66" y="18" width="4" height="1" fill="#f3f3f3"/>
  <rect x="70" y="18" width="2" height="6" fill="#f5f5f5"/>
  <rect x="33" y="19" width="1" height="5" fill="#f3f3f3"/>
  <rect x="34" y="19" width="3" height="1" fill="#f1f1f1"/>
  <rect x="37" y="19" width="3" height="1" fill="#f2f2f2"/>
  <rect x="40" y="19" width="8" height="1" fill="#f3f3f3"/>
  <rect x="48" y="19" width="16" height="1" fill="#f2f2f2"/>
  <rect x="64" y="19" width="3" height="1" fill="#f1f1f1"/>
  <rect x="67" y="19" width="1" height="1" fill="#f2f2f2"/>
  <rect x="68" y="19" width="2" height="1" fill="#f3f3f3"/>
  <rect x="0" y="20" width="16" height="4" fill="#f6f6f6"/>
  <rect x="16" y="20" width="15" height="4" fill="#f5f5f5"/>
  <rect x="31" y="20" width="1" height="2" fill="#f6f6f6"/>
  <rect x="32" y="20" width="1" height="2" fill="#f5f5f5"/>
  <rect x="34" y="20" width="1" height="1" fill="#f0f0f0"/>
  <rect x="35" y="20" width="1" height="1" fill="#efefef"/>
  <rect x="36" y="20" width="1" height="1" fill="#f0f0f0"/>
  <rect x="37" y="20" width="3" height="1" fill="#f1f1f1"/>
  <rect x="40" y="20" width="6" height="1" fill="#f2f2f2"/>
  <rect x="46" y="20" width="16" height="1" fill="#f1f1f1"/>
  <rect x="62" y="20" width="5" height="1" fill="#f0f0f0"/>
  <rect x="67" y="20" width="1" height="1" fill="#f1f1f1"/>
  <rect x="68" y="20" width="1" height="4" fill="#f2f2f2"/>
  <rect x="69" y="20" width="1" height="4" fill="#f3f3f3"/>
  <rect x="128" y="20" width="16" height="2" fill="#f6f6f6"/>
  <rect x="144" y="20" width="26" height="4" fill="#f7f7f7"/>
  <rect x="34" y="21" width="1" height="3" fill="#efefef"/>
  <rect x="35" y="21" width="1" height="1" fill="#eeeeee"/>
  <rect x="36" y="21" width="1" height="3" fill="#efefef"/>
  <rect x="37" y="21" width="3" height="1" fill="#f0f0f0"/>
  <rect x="40" y="21" width="6" height="1" fill="#f1f1f1"/>
  <rect x="46" y="21" width="16" height="1" fill="#f0f0f0"/>
  <rect x="62" y="21" width="5" height="1" fill="#efefef"/>
  <rect x="67" y="21" width="1" height="3" fill="#f0f0f0"/>
  <rect x="31" y="22" width="2" height="2" fill="#f6f6f6"/>
  <rect x="35" y="22" width="1" height="2" fill="#ececec"/>
  <rect x="37" y="22" width="11" height="3" fill="#f0f0f0"/>
  <rect x="48" y="22" width="16" height="3" fill="#efefef"/>
  <rect x="64" y="22" width="2" height="3" fill="#eeeeee"/>
  <rect x="66" y="22" width="1" height="2" fill="#efefef"/>
  <rect x="128" y="22" width="10" height="2" fill="#f6f6f6"/>
  <rect x="138" y="22" width="2" height="2" fill="#f7f7f7"/>
  <rect x="140" y="22" width="4" height="2" fill="#f6f6f6"/>
  <rect x="0" y="24" width="31" height="1" fill="#f0f0f0"/>
  <rect x="31" y="24" width="2" height="1" fill="#f1f1f1"/>
  <rect x="33" y="24" width="1" height="1" fill="#efefef"/>
  <rect x="34" y="24" width="1" height="1" fill="#eaeaea"/>
  <rect x="35" y="24" width="1" height="1" fill="#e9e9e9"/>
  <rect x="36" y="24" width="1" height="1" fill="#eeeeee"/>
  <rect x="66" y="24" width="4" height="1" fill="#efefef"/>
  <rect x="70" y="24" width="2" height="1" fill="#f0f0f0"/>
  <rect x="72" y="24" width="8" height="1" fill="#f1f1f1"/>
  <rect x="80" y="24" width="48" height="1" fill="#f0f0f0"/>
  <rect x="128" y="24" width="6" height="1" fill="#f1f1f1"/>
  <rect x="134" y="24" width="1" height="1" fill="#f2f2f2"/>
  <rect x="135" y="24" width="1" height="1" fill="#f3f3f3"/>
  <rect x="136" y="24" width="1" height="1" fill="#f6f6f6"/>
  <rect x="137" y="24" width="7" height="1" fill="#f7f7f7"/>
  <rect x="144" y="24" width="26" height="4" fill="#f8f8f8"/>
  <rect x="0" y="25" width="31" height="1" fill="#f3f3f3"/>
  <rect x="31" y="25" width="2" height="1" fill="#f5f5f5"/>
  <rect x="33" y="25" width="1" height="1" fill="#f2f2f2"/>
  <rect x="34" y="25" width="1" height="1" fill="#eeeeee"/>
  <rect x="35" y="25" width="13" height="1" fill="#eaeaea"/>
  <rect x="48" y="25" width="16" height="1" fill="#e9e9e9"/>
  <rect x="64" y="25" width="4" height="1" fill="#e8e8e8"/>
  <rect x="68" y="25" width="4" height="1" fill="#f3f3f3"/>
  <rect x="72" y="25" width="8" height="1" fill="#f5f5f5"/>
  <rect x="80" y="25" width="48" height="1" fill="#f3f3f3"/>
  <rect x="128" y="25" width="6" height="1" fill="#f5f5f5"/>
  <rect x="134" y="25" width="2" height="1" fill="#f6f6f6"/>
  <rect x="136" y="25" width="8" height="1" fill="#f7f7f7"/>
  <rect x="0" y="26" width="31" height="1" fill="#f5f5f5"/>
  <rect x="31" y="26" width="2" height="1" fill="#f6f6f6"/>
  <rect x="33" y="26" width="1" height="1" fill="#f3f3f3"/>
  <rect x="34" y="26" width="1" height="1" fill="#efefef"/>
  <rect x="35" y="26" width="13" height="1" fill="#ebebeb"/>
  <rect x="48" y="26" width="16" height="1" fill="#eaeaea"/>
  <rect x="64" y="26" width="4" height="1" fill="#e9e9e9"/>
  <rect x="68" y="26" width="4" height="1" fill="#f5f5f5"/>
  <rect x="72" y="26" width="8" height="1" fill="#f6f6f6"/>
  <rect x="80" y="26" width="48" height="1" fill="#f5f5f5"/>
  <rect x="128" y="26" width="6" height="1" fill="#f6f6f6"/>
  <rect x="134" y="26" width="4" height="1" fill="#f7f7f7"/>
  <rect x="138" y="26" width="2" height="1" fill="#f8f8f8"/>
  <rect x="140" y="26" width="4" height="2" fill="#f7f7f7"/>
  <rect x="0" y="27" width="31" height="1" fill="#d4d4d4"/>
  <rect x="31" y="27" width="2" height="1" fill="#d5d5d5"/>
  <rect x="33" y="27" width="1" height="1" fill="#d3d3d3"/>
  <rect x="34" y="27" width="1" height="1" fill="#cecece"/>
  <rect x="35" y="27" width="1" height="1" fill="#cdcdcd"/>
  <rect x="36" y="27" width="1" height="1" fill="#d2d2d2"/>
  <rect x="37" y="27" width="11" height="1" fill="#d4d4d4"/>
  <rect x="48" y="27" width="16" height="1" fill="#d3d3d3"/>
  <rect x="64" y="27" width="2" height="1" fill="#d2d2d2"/>
  <rect x="66" y="27" width="4" height="1" fill="#d3d3d3"/>
  <rect x="70" y="27" width="2" height="1" fill="#d4d4d4"/>
  <rect x="72" y="27" width="8" height="1" fill="#d5d5d5"/>
  <rect x="80" y="27" width="48" height="1" fill="#d4d4d4"/>
  <rect x="128" y="27" width="8" height="1" fill="#d5d5d5"/>
  <rect x="136" y="27" width="4" height="1" fill="#f8f8f8"/>
</svg>