<svg xmlns="http://www.w3.org/2000/svg" width="104" height="26" viewBox="0 0 104 26" shape-rendering="crispEdges">
  <rect x="27" y="1" width="1" height="1" fill="#9999991c"/>
  <rect x="28" y="1" width="1" height="1" fill="#9b9b9b59"/>
  <rect x="29" y="1" width="1" height="1" fill="#92929266"/>
  <rect x="30" y="1" width="1" height="1" fill="#95959566"/>
  <rect x="31" y="1" width="1" height="1" fill="#a2a2a266"/>
  <rect x="32" y="1" width="16" height="1" fill="#9a9a9a66"/>
  <rect x="48" y="1" width="1" height="1" fill="#9e9e9e66"/>
  <rect x="49" y="1" width="1" height="1" fill="#9a9a9a61"/>
  <rect x="50" y="1" width="1" height="1" fill="#9292921b"/>
  <rect x="53" y="1" width="1" height="1" fill="#9a9a9a1c"/>
  <rect x="54" y="1" width="1" height="1" fill="#a1a1a159"/>
  <rect x="55" y="1" width="1" height="1" fill="#9e9e9e66"/>
  <rect x="56" y="1" width="15" height="1" fill="#9c9c9c66"/>
  <rect x="71" y="1" width="1" height="1" fill="#99999966"/>
  <rect x="72" y="1" width="1" height="1" fill="#95959566"/>
  <rect x="73" y="1" width="1" height="1" fill="#96969666"/>
  <rect x="74" y="1" width="1" height="1" fill="#9c9c9c66"/>
  <rect x="75" y="1" width="1" height="1" fill="#a0a0a05f"/>
  <rect x="76" y="1" width="1" height="1" fill="#9e9e9e1b"/>
  <rect x="27" y="2" width="1" height="1" fill="#a1a1a159"/>
  <rect x="28" y="2" width="1" height="1" fill="#e2e2e261"/>
  <rect x="29" y="2" width="1" height="1" fill="#f7f7f75f"/>
  <rect x="30" y="2" width="18" height="1" fill="#ffffff5f"/>
  <rect x="48" y="2" width="1" height="1" fill="#fafafa5f"/>
  <rect x="49" y="2" width="1" height="1" fill="#e0e0e061"/>
  <rect x="50" y="2" width="1" height="1" fill="#99999959"/>
  <rect x="53" y="2" width="1" height="1" fill="#a0a0a059"/>
  <rect x="54" y="2" width="1" height="1" fill="#dedede77"/>
  <rect x="55" y="2" width="1" height="1" fill="#eaeaea7f"/>
  <rect x="56" y="2" width="16" height="1" fill="#f2f2f27f"/>
  <rect x="72" y="2" width="1" height="1" fill="#f0f0f07f"/>
  <rect x="73" y="2" width="1" height="1" fill="#ebebeb7f"/>
  <rect x="74" y="2" width="1" height="1" fill="#e7e7e77f"/>
  <rect x="75" y="2" width="1" height="1" fill="#e2e2e277"/>
  <rect x="76" y="2" width="1" height="1" fill="#90909059"/>
  <rect x="27" y="3" width="1" height="1" fill="#9c9c9c66"/>
  <rect x="28" y="3" width="1" height="1" fill="#ffffff23"/>
  <rect x="29" y="3" width="1" height="1" fill="#ffffff1a"/>
  <rect x="30" y="3" width="1" height="1" fill="#fdfdfd1a"/>
  <rect x="31" y="3" width="1" height="1" fill="#ffffff1a"/>
  <rect x="32" y="3" width="1" height="1" fill="#fefefe1a"/>
  <rect x="33" y="3" width="15" height="1" fill="#fdfdfd1a"/>
  <rect x="48" y="3" width="1" height="1" fill="#ffffff1a"/>
  <rect x="49" y="3" width="1" height="1" fill="#fafafa1e"/>
  <rect x="50" y="3" width="1" height="1" fill="#9e9e9e66"/>
  <rect x="53" y="3" width="1" height="3" fill="#9a9a9a66"/>
  <rect x="54" y="3" width="1" height="1" fill="#dedede4f"/>
  <rect x="55" y="3" width="1" height="1" fill="#cfcfcf48"/>
  <rect x="56" y="3" width="16" height="1" fill="#d7d7d748"/>
  <rect x="72" y="3" width="1" height="1" fill="#d6d6d648"/>
  <rect x="73" y="3" width="1" height="1" fill="#d7d7d748"/>
  <rect x="74" y="3" width="1" height="1" fill="#dadada48"/>
  <rect x="75" y="3" width="1" height="1" fill="#dbdbdb4c"/>
  <rect x="76" y="3" width="1" height="1" fill="#a1a1a166"/>
  <rect x="27" y="4" width="1" height="2" fill="#9b9b9b66"/>
  <rect x="28" y="4" width="3" height="4" fill="#ffffff1a"/>
  <rect x="31" y="4" width="1" height="4" fill="#fdfdfd1a"/>
  <rect x="32" y="4" width="18" height="3" fill="#ffffff1a"/>
  <rect x="50" y="4" width="1" height="2" fill="#99999966"/>
  <rect x="54" y="4" width="1" height="4" fill="#d9d9d948"/>
  <rect x="55" y="4" width="1" height="2" fill="#dcdcdc48"/>
  <rect x="56" y="4" width="20" height="2" fill="#dadada48"/>
  <rect x="76" y="4" width="1" height="3" fill="#9c9c9c66"/>
  <rect x="27" y="6" width="1" height="4" fill="#9c9c9c66"/>
  <rect x="50" y="6" width="1" height="1" fill="#9a9a9a66"/>
  <rect x="53" y="6" width="1" height="2" fill="#9b9b9b66"/>
  <rect x="55" y="6" width="1" height="1" fill="#dddddd48"/>
  <rect x="56" y="6" width="6" height="1" fill="#dcdcdc48"/>
  <rect x="62" y="6" width="2" height="1" fill="#dbdbdb48"/>
  <rect x="64" y="6" width="12" height="1" fill="#dcdcdc48"/>
  <rect x="32" y="7" width="1" height="2" fill="#fefefe1a"/>
  <rect x="33" y="7" width="17" height="2" fill="#ffffff1a"/>
  <rect x="50" y="7" width="1" height="1" fill="#9b9b9b66"/>
  <rect x="55" y="7" width="1" height="1" fill="#dedede48"/>
  <rect x="56" y="7" width="6" height="1" fill="#dddddd48"/>
  <rect x="62" y="7" width="2" height="1" fill="#dcdcdc48"/>
  <rect x="64" y="7" width="12" height="1" fill="#dddddd48"/>
  <rect x="76" y="7" width="1" height="1" fill="#9a9a9a66"/>
  <rect x="28" y="8" width="2" height="13" fill="#ffffff1a"/>
  <rect x="30" y="8" width="1" height="12" fill="#fefefe1a"/>
  <rect x="31" y="8" width="1" height="12" fill="#fcfbfc1a"/>
  <rect x="50" y="8" width="1" height="1" fill="#9c9c9c66"/>
  <rect x="53" y="8" width="1" height="2" fill="#9c9c9c66"/>
  <rect x="54" y="8" width="1" height="2" fill="#e5e5e548"/>
  <rect x="55" y="8" width="1" height="1" fill="#e0e0e048"/>
  <rect x="56" y="8" width="6" height="1" fill="#dedede48"/>
  <rect x="62" y="8" width="2" height="1" fill="#e0e0e048"/>
  <rect x="64" y="8" width="12" height="1" fill="#dedede48"/>
  <rect x="76" y="8" width="1" height="1" fill="#99999966"/>
  <rect x="32" y="9" width="1" height="11" fill="#fdfdfd1a"/>
  <rect x="33" y="9" width="3" height="11" fill="#fefefe1a"/>
  <rect x="36" y="9" width="14" height="7" fill="#ffffff1a"/>
  <rect x="50" y="9" width="1" height="1" fill="#9d9d9d66"/>
  <rect x="55" y="9" width="1" height="1" fill="#e1e1e148"/>
  <rect x="56" y="9" width="6" height="1" fill="#e0e0e048"/>
  <rect x="62" y="9" width="2" height="1" fill="#e1e1e148"/>
  <rect x="64" y="9" width="12" height="1" fill="#e0e0e048"/>
  <rect x="76" y="9" width="1" height="2" fill="#97979766"/>
  <rect x="27" y="10" width="1" height="4" fill="#9d9d9d66"/>
  <rect x="50" y="10" width="1" height="4" fill="#9e9e9e66"/>
  <rect x="53" y="10" width="1" height="2" fill="#9d9d9d66"/>
  <rect x="54" y="10" width="1" height="1" fill="#e7e7e748"/>
  <rect x="55" y="10" width="1" height="1" fill="#e4e4e448"/>
  <rect x="56" y="10" width="20" height="2" fill="#e2e2e248"/>
  <rect x="54" y="11" width="1" height="1" fill="#e8e8e848"/>
  <rect x="55" y="11" width="1" height="1" fill="#e5e5e548"/>
  <rect x="76" y="11" width="1" height="3" fill="#99999966"/>
  <rect x="53" y="12" width="1" height="1" fill="#9e9e9e66"/>
  <rect x="54" y="12" width="1" height="1" fill="#e9e9e948"/>
  <rect x="55" y="12" width="1" height="1" fill="#e7e7e748"/>
  <rect x="56" y="12" width="20" height="1" fill="#e4e4e448"/>
  <rect x="53" y="13" width="1" height="1" fill="#9d9d9d66"/>
  <rect x="54" y="13" width="1" height="1" fill="#ebebeb48"/>
  <rect x="55" y="13" width="1" height="1" fill="#e9e9e948"/>
  <rect x="56" y="13" width="20" height="1" fill="#e8e8e848"/>
  <rect x="27" y="14" width="1" height="2" fill="#9c9c9c66"/>
  <rect x="50" y="14" width="1" height="2" fill="#9d9d9d66"/>
  <rect x="53" y="14" width="1" height="1" fill="#9c9c9c66"/>
  <rect x="54" y="14" width="2" height="1" fill="#eeeeee48"/>
  <rect x="56" y="14" width="20" height="1" fill="#ececec48"/>
  <rect x="76" y="14" width="1" height="2" fill="#9b9b9b66"/>
  <rect x="53" y="15" width="1" height="1" fill="#9b9b9b66"/>
  <rect x="54" y="15" width="2" height="1" fill="#efefef48"/>
  <rect x="56" y="15" width="20" height="1" fill="#f0f0f048"/>
  <rect x="27" y="16" width="1" height="2" fill="#9b9b9b66"/>
  <rect x="36" y="16" width="13" height="4" fill="#ffffff1a"/>
  <rect x="49" y="16" width="1" height="2" fill="#fefefe1a"/>
  <rect x="50" y="16" width="1" height="2" fill="#9c9c9c66"/>
  <rect x="53" y="16" width="1" height="1" fill="#9a9a9a66"/>
  <rect x="54" y="16" width="1" height="1" fill="#efefef48"/>
  <rect x="55" y="16" width="1" height="1" fill="#f0f0f048"/>
  <rect x="56" y="16" width="20" height="2" fill="#f2f2f248"/>
  <rect x="76" y="16" width="1" height="2" fill="#9c9c9c66"/>
  <rect x="53" y="17" width="1" height="1" fill="#99999966"/>
  <rect x="54" y="17" width="1" height="1" fill="#f0f0f048"/>
  <rect x="55" y="17" width="1" height="1" fill="#f1f1f148"/>
  <rect x="27" y="18" width="1" height="5" fill="#9a9a9a66"/>
  <rect x="49" y="18" width="1" height="2" fill="#fdfdfd1a"/>
  <rect x="50" y="18" width="1" height="2" fill="#9b9b9b66"/>
  <rect x="53" y="18" width="1" height="1" fill="#97979766"/>
  <rect x="54" y="18" width="1" height="1" fill="#f1f1f148"/>
  <rect x="55" y="18" width="1" height="1" fill="#f3f3f348"/>
  <rect x="56" y="18" width="6" height="1" fill="#f5f5f548"/>
  <rect x="62" y="18" width="2" height="1" fill="#f3f3f348"/>
  <rect x="64" y="18" width="7" height="1" fill="#f5f5f548"/>
  <rect x="71" y="18" width="5" height="1" fill="#f2f2f248"/>
  <rect x="76" y="18" width="1" height="3" fill="#9d9d9d66"/>
  <rect x="53" y="19" width="1" height="1" fill="#96969666"/>
  <rect x="54" y="19" width="1" height="1" fill="#f2f2f248"/>
  <rect x="55" y="19" width="1" height="1" fill="#f5f5f548"/>
  <rect x="56" y="19" width="6" height="1" fill="#f6f6f648"/>
  <rect x="62" y="19" width="2" height="1" fill="#f5f5f548"/>
  <rect x="64" y="19" width="7" height="1" fill="#f6f6f648"/>
  <rect x="71" y="19" width="1" height="1" fill="#f3f3f348"/>
  <rect x="72" y="19" width="4" height="1" fill="#f2f2f248"/>
  <rect x="30" y="20" width="1" height="1" fill="#fafafa1a"/>
  <rect x="31" y="20" width="5" height="1" fill="#fefefe1a"/>
  <rect x="36" y="20" width="12" height="1" fill="#ffffff1a"/>
  <rect x="48" y="20" width="1" height="1" fill="#fdfdfd1a"/>
  <rect x="49" y="20" width="1" height="1" fill="#ffffff1a"/>
  <rect x="50" y="20" width="1" height="1" fill="#96969666"/>
  <rect x="53" y="20" width="1" height="1" fill="#a3a3a366"/>
  <rect x="54" y="20" width="1" height="1" fill="#f8f8f848"/>
  <rect x="55" y="20" width="1" height="1" fill="#fdfdfd48"/>
  <rect x="56" y="20" width="6" height="1" fill="#f7f7f748"/>
  <rect x="62" y="20" width="2" height="1" fill="#f8f8f848"/>
  <rect x="64" y="20" width="8" height="1" fill="#f7f7f748"/>
  <rect x="72" y="20" width="1" height="1" fill="#f6f6f648"/>
  <rect x="73" y="20" width="1" height="1" fill="#f7f7f748"/>
  <rect x="74" y="20" width="1" height="1" fill="#f5f5f548"/>
  <rect x="75" y="20" width="1" height="1" fill="#eeeeee48"/>
  <rect x="28" y="21" width="1" height="1" fill="#f7f7f71a"/>
  <rect x="29" y="21" width="1" height="1" fill="#f8f8f81a"/>
  <rect x="30" y="21" width="2" height="1" fill="#ffffff1a"/>
  <rect x="32" y="21" width="1" height="3" fill="#fdfdfd1a"/>
  <rect x="33" y="21" width="3" height="3" fill="#fefefe1a"/>
  <rect x="36" y="21" width="13" height="1" fill="#ffffff1a"/>
  <rect x="49" y="21" width="1" height="1" fill="#f7f7f71a"/>
  <rect x="50" y="21" width="1" height="1" fill="#95959566"/>
  <rect x="53" y="21" width="1" height="1" fill="#9d9d9d66"/>
  <rect x="54" y="21" width="1" height="1" fill="#ffffff48"/>
  <rect x="55" y="21" width="1" height="1" fill="#f1f1f148"/>
  <rect x="56" y="21" width="6" height="1" fill="#f8f8f848"/>
  <rect x="62" y="21" width="2" height="1" fill="#f9f9f948"/>
  <rect x="64" y="21" width="7" height="1" fill="#f8f8f848"/>
  <rect x="71" y="21" width="2" height="1" fill="#fafafa48"/>
  <rect x="73" y="21" width="1" height="1" fill="#f8f8f848"/>
  <rect x="74" y="21" width="1" height="1" fill="#fafafa48"/>
  <rect x="75" y="21" width="1" height="1" fill="#ffffff48"/>
  <rect x="76" y="21" width="1" height="1" fill="#9e9e9e66"/>
  <rect x="28" y="22" width="2" height="1" fill="#ffffff1a"/>
  <rect x="30" y="22" width="1" height="1" fill="#fdfdfd1a"/>
  <rect x="31" y="22" width="1" height="2" fill="#ffffff1a"/>
  <rect x="36" y="22" width="14" height="1" fill="#ffffff1a"/>
  <rect x="50" y="22" width="1" height="1" fill="#a2a2a266"/>
  <rect x="53" y="22" width="1" height="1" fill="#a2a2a266"/>
  <rect x="54" y="22" width="1" height="1" fill="#f8f8f848"/>
  <rect x="55" y="22" width="17" height="1" fill="#fafafa48"/>
  <rect x="72" y="22" width="1" height="1" fill="#fcfbfc48"/>
  <rect x="73" y="22" width="1" height="1" fill="#fefefe48"/>
  <rect x="74" y="22" width="1" height="1" fill="#fcfbfc48"/>
  <rect x="75" y="22" width="1" height="1" fill="#f7f7f748"/>
  <rect x="76" y="22" width="1" height="1" fill="#9d9d9d66"/>
  <rect x="27" y="23" width="1" height="1" fill="#9a9a9a58"/>
  <rect x="28" y="23" width="1" height="1" fill="#bebebe33"/>
  <rect x="29" y="23" width="1" height="1" fill="#ffffff1a"/>
  <rect x="30" y="23" width="1" height="1" fill="#fafafa1a"/>
  <rect x="36" y="23" width="12" height="1" fill="#ffffff1a"/>
  <rect x="48" y="23" width="1" height="1" fill="#fefefe1a"/>
  <rect x="49" y="23" width="1" height="1" fill="#bebebe33"/>
  <rect x="50" y="23" width="1" height="1" fill="#a0a0a058"/>
  <rect x="53" y="23" width="1" height="1" fill="#9c9c9c58"/>
  <rect x="54" y="23" width="1" height="1" fill="#d6d6d652"/>
  <rect x="55" y="23" width="1" height="1" fill="#ffffff48"/>
  <rect x="56" y="23" width="16" height="1" fill="#fafafa48"/>
  <rect x="72" y="23" width="1" height="1" fill="#f7f7f748"/>
  <rect x="73" y="23" width="1" height="1" fill="#ffffff48"/>
  <rect x="74" y="23" width="1" height="1" fill="#f9f9f948"/>
  <rect x="75" y="23" width="1" height="1" fill="#d5d5d552"/>
  <rect x="76" y="23" width="1" height="1" fill="#9a9a9a58"/>
  <rect x="27" y="24" width="1" height="1" fill="#9a9a9a1b"/>
  <rect x="28" y="24" width="1" height="1" fill="#9a9a9a58"/>
  <rect x="29" y="24" width="20" height="1" fill="#9a9a9a66"/>
  <rect x="49" y="24" width="1" height="1" fill="#9a9a9a60"/>
  <rect x="50" y="24" width="1" height="1" fill="#9a9a9a1b"/>
  <rect x="53" y="24" width="1" height="1" fill="#9a9a9a1b"/>
  <rect x="54" y="24" width="1" height="1" fill="#9a9a9a58"/>
  <rect x="55" y="24" width="20" height="1" fill="#9a9a9a66"/>
  <rect x="75" y="24" width="1" height="1" fill="#9a9a9a5e"/>
  <rect x="76" y="24" width="1" height="1" fill="#9a9a9a1b"/>
</svg>