<svg xmlns="http://www.w3.org/2000/svg" width="23" height="24" viewBox="0 0 23 24" shape-rendering="crispEdges">
  <rect x="1" y="0" width="1" height="1" fill="#7272727d"/>
  <rect x="2" y="0" width="1" height="1" fill="#777777e6"/>
  <rect x="3" y="0" width="1" height="1" fill="#7d7d7d"/>
  <rect x="4" y="0" width="16" height="1" fill="#727272"/>
  <rect x="20" y="0" width="1" height="1" fill="#787878e6"/>
  <rect x="21" y="0" width="1" height="1" fill="#7373737d"/>
  <rect x="0" y="1" width="1" height="1" fill="#79797975"/>
  <rect x="1" y="1" width="1" height="1" fill="#979797"/>
  <rect x="2" y="1" width="1" height="1" fill="#f6f6f6"/>
  <rect x="3" y="1" width="1" height="1" fill="#fcfbfc"/>
  <rect x="4" y="1" width="16" height="1" fill="#fefefe"/>
  <rect x="20" y="1" width="1" height="1" fill="#f5f5f5"/>
  <rect x="21" y="1" width="1" height="1" fill="#9c9c9c"/>
  <rect x="22" y="1" width="1" height="1" fill="#7a7a7a7d"/>
  <rect x="0" y="2" width="1" height="1" fill="#737373de"/>
  <rect x="1" y="2" width="1" height="1" fill="#eaeaea"/>
  <rect x="2" y="2" width="1" height="1" fill="#f7f7f7"/>
  <rect x="3" y="2" width="1" height="1" fill="#f5f5f5"/>
  <rect x="4" y="2" width="16" height="1" fill="#fcfbfc"/>
  <rect x="20" y="2" width="1" height="1" fill="#fefefe"/>
  <rect x="21" y="2" width="1" height="1" fill="#f0f0f0"/>
  <rect x="22" y="2" width="1" height="1" fill="#7b7b7be6"/>
  <rect x="0" y="3" width="1" height="1" fill="#818181"/>
  <rect x="1" y="3" width="1" height="1" fill="#f8f8f8"/>
  <rect x="2" y="3" width="2" height="1" fill="#fefefe"/>
  <rect x="4" y="3" width="16" height="1" fill="#ffffff"/>
  <rect x="20" y="3" width="1" height="1" fill="#fcfbfc"/>
  <rect x="21" y="3" width="1" height="4" fill="#fdfdfd"/>
  <rect x="22" y="3" width="1" height="4" fill="#767676"/>
  <rect x="0" y="4" width="1" height="3" fill="#777679"/>
  <rect x="1" y="4" width="1" height="3" fill="#ffffff"/>
  <rect x="2" y="4" width="1" height="3" fill="#f9f9fb"/>
  <rect x="3" y="4" width="1" height="3" fill="#f8f8fa"/>
  <rect x="4" y="4" width="12" height="3" fill="#fcfbfe"/>
  <rect x="16" y="4" width="5" height="3" fill="#fcfbfc"/>
  <rect x="0" y="7" width="1" height="1" fill="#767578"/>
  <rect x="1" y="7" width="1" height="1" fill="#fefdff"/>
  <rect x="2" y="7" width="1" height="1" fill="#f8f8fa"/>
  <rect x="3" y="7" width="1" height="1" fill="#f7f6f9"/>
  <rect x="4" y="7" width="12" height="1" fill="#fafafc"/>
  <rect x="16" y="7" width="1" height="1" fill="#fcfbfe"/>
  <rect x="17" y="7" width="3" height="1" fill="#fcfbfc"/>
  <rect x="20" y="7" width="1" height="1" fill="#fafafa"/>
  <rect x="21" y="7" width="1" height="1" fill="#fcfbfc"/>
  <rect x="22" y="7" width="1" height="1" fill="#747474"/>
  <rect x="0" y="8" width="1" height="1" fill="#747478"/>
  <rect x="1" y="8" width="1" height="1" fill="#fdfcff"/>
  <rect x="2" y="8" width="1" height="1" fill="#f7f6fb"/>
  <rect x="3" y="8" width="1" height="1" fill="#f6f5fa"/>
  <rect x="4" y="8" width="8" height="1" fill="#f9f8fd"/>
  <rect x="12" y="8" width="2" height="1" fill="#f8f9fd"/>
  <rect x="14" y="8" width="2" height="1" fill="#f6f8fc"/>
  <rect x="16" y="8" width="2" height="2" fill="#f5f7f9"/>
  <rect x="18" y="8" width="2" height="3" fill="#f4f6f8"/>
  <rect x="20" y="8" width="1" height="1" fill="#f9fbfc"/>
  <rect x="21" y="8" width="1" height="1" fill="#fafcfe"/>
  <rect x="22" y="8" width="1" height="1" fill="#737576"/>
  <rect x="0" y="9" width="1" height="1" fill="#737277"/>
  <rect x="1" y="9" width="1" height="3" fill="#fcfbff"/>
  <rect x="2" y="9" width="1" height="2" fill="#f6f5fa"/>
  <rect x="3" y="9" width="1" height="2" fill="#f5f4f9"/>
  <rect x="4" y="9" width="8" height="1" fill="#f8f7fc"/>
  <rect x="12" y="9" width="2" height="1" fill="#f6f8fc"/>
  <rect x="14" y="9" width="2" height="1" fill="#f5f7fb"/>
  <rect x="20" y="9" width="1" height="3" fill="#f8fafb"/>
  <rect x="21" y="9" width="1" height="3" fill="#f9fbfc"/>
  <rect x="22" y="9" width="1" height="6" fill="#727475"/>
  <rect x="0" y="10" width="1" height="2" fill="#747478"/>
  <rect x="4" y="10" width="8" height="1" fill="#f7f6fb"/>
  <rect x="12" y="10" width="4" height="1" fill="#f5f7fb"/>
  <rect x="16" y="10" width="2" height="1" fill="#f4f6fa"/>
  <rect x="2" y="11" width="2" height="1" fill="#f5f4f9"/>
  <rect x="4" y="11" width="8" height="1" fill="#f6f5fa"/>
  <rect x="12" y="11" width="7" height="1" fill="#f4f6fa"/>
  <rect x="19" y="11" width="1" height="1" fill="#f4f6f8"/>
  <rect x="0" y="12" width="1" height="2" fill="#76747c"/>
  <rect x="1" y="12" width="1" height="2" fill="#eeecf4"/>
  <rect x="2" y="12" width="1" height="1" fill="#f5f3fb"/>
  <rect x="3" y="12" width="1" height="1" fill="#f3f2f9"/>
  <rect x="4" y="12" width="8" height="1" fill="#f5f3fb"/>
  <rect x="12" y="12" width="1" height="1" fill="#f3f5f9"/>
  <rect x="13" y="12" width="2" height="1" fill="#f2f3f7"/>
  <rect x="15" y="12" width="1" height="1" fill="#f1f2f6"/>
  <rect x="16" y="12" width="1" height="1" fill="#f1f2f8"/>
  <rect x="17" y="12" width="2" height="1" fill="#eff1f7"/>
  <rect x="19" y="12" width="1" height="1" fill="#eef0f4"/>
  <rect x="20" y="12" width="1" height="1" fill="#eff1f3"/>
  <rect x="21" y="12" width="1" height="4" fill="#edeff1"/>
  <rect x="2" y="13" width="10" height="1" fill="#f3f2f9"/>
  <rect x="12" y="13" width="2" height="1" fill="#f2f3f7"/>
  <rect x="14" y="13" width="2" height="1" fill="#f1f2f6"/>
  <rect x="16" y="13" width="2" height="1" fill="#eff1f7"/>
  <rect x="18" y="13" width="2" height="3" fill="#eef0f6"/>
  <rect x="20" y="13" width="1" height="2" fill="#eff1f5"/>
  <rect x="0" y="14" width="1" height="2" fill="#77767d"/>
  <rect x="1" y="14" width="1" height="2" fill="#ecebf2"/>
  <rect x="2" y="14" width="2" height="2" fill="#f3f2f9"/>
  <rect x="4" y="14" width="8" height="2" fill="#f2f1f8"/>
  <rect x="12" y="14" width="2" height="2" fill="#f1f2f6"/>
  <rect x="14" y="14" width="2" height="1" fill="#eff1f5"/>
  <rect x="16" y="14" width="1" height="1" fill="#eff1f7"/>
  <rect x="17" y="14" width="1" height="1" fill="#eff0f9"/>
  <rect x="14" y="15" width="1" height="1" fill="#eff1f5"/>
  <rect x="15" y="15" width="1" height="1" fill="#eff1f7"/>
  <rect x="16" y="15" width="2" height="1" fill="#eeeff8"/>
  <rect x="20" y="15" width="1" height="1" fill="#eef0f4"/>
  <rect x="22" y="15" width="1" height="1" fill="#737576"/>
  <rect x="0" y="16" width="1" height="4" fill="#74757c"/>
  <rect x="1" y="16" width="1" height="2" fill="#eaebf1"/>
  <rect x="2" y="16" width="1" height="4" fill="#ebecf2"/>
  <rect x="3" y="16" width="1" height="4" fill="#e7e9ef"/>
  <rect x="4" y="16" width="10" height="1" fill="#eaebf1"/>
  <rect x="14" y="16" width="2" height="1" fill="#ebecf2"/>
  <rect x="16" y="16" width="3" height="1" fill="#eeecf6"/>
  <rect x="19" y="16" width="1" height="1" fill="#eeecf4"/>
  <rect x="20" y="16" width="1" height="1" fill="#eeedf2"/>
  <rect x="21" y="16" width="1" height="1" fill="#eeedf0"/>
  <rect x="22" y="16" width="1" height="1" fill="#747476"/>
  <rect x="4" y="17" width="12" height="2" fill="#eaebf1"/>
  <rect x="16" y="17" width="4" height="1" fill="#ebeaf3"/>
  <rect x="20" y="17" width="1" height="3" fill="#ebeaf1"/>
  <rect x="21" y="17" width="1" height="3" fill="#ebeaef"/>
  <rect x="22" y="17" width="1" height="3" fill="#737375"/>
  <rect x="1" y="18" width="1" height="2" fill="#e8eaf0"/>
  <rect x="16" y="18" width="1" height="1" fill="#ebeaf3"/>
  <rect x="17" y="18" width="1" height="1" fill="#ebe9f5"/>
  <rect x="18" y="18" width="2" height="2" fill="#ebeaf3"/>
  <rect x="4" y="19" width="11" height="1" fill="#eaebf1"/>
  <rect x="15" y="19" width="1" height="1" fill="#eaeaf3"/>
  <rect x="16" y="19" width="2" height="1" fill="#ebe9f5"/>
  <rect x="0" y="20" width="1" height="1" fill="#76787e"/>
  <rect x="1" y="20" width="1" height="1" fill="#e0e2e8"/>
  <rect x="2" y="20" width="1" height="1" fill="#e1e3e9"/>
  <rect x="3" y="20" width="12" height="1" fill="#e7e9ef"/>
  <rect x="15" y="20" width="1" height="1" fill="#e7e8f1"/>
  <rect x="16" y="20" width="3" height="1" fill="#e9e7f3"/>
  <rect x="19" y="20" width="1" height="1" fill="#e9e7f1"/>
  <rect x="20" y="20" width="1" height="1" fill="#e7e5ed"/>
  <rect x="21" y="20" width="1" height="1" fill="#e8e7ec"/>
  <rect x="22" y="20" width="1" height="1" fill="#706f72"/>
  <rect x="0" y="21" width="1" height="1" fill="#74757cde"/>
  <rect x="1" y="21" width="1" height="1" fill="#dadce2"/>
  <rect x="2" y="21" width="14" height="1" fill="#e8eaf0"/>
  <rect x="16" y="21" width="3" height="1" fill="#eae8f4"/>
  <rect x="19" y="21" width="1" height="1" fill="#eae8f2"/>
  <rect x="20" y="21" width="1" height="1" fill="#ecebf2"/>
  <rect x="21" y="21" width="1" height="1" fill="#d5d4d9"/>
  <rect x="22" y="21" width="1" height="1" fill="#747476e6"/>
  <rect x="0" y="22" width="1" height="1" fill="#71727675"/>
  <rect x="1" y="22" width="1" height="1" fill="#898b8f"/>
  <rect x="2" y="22" width="1" height="1" fill="#dddee2"/>
  <rect x="3" y="22" width="12" height="1" fill="#e8eaee"/>
  <rect x="15" y="22" width="1" height="1" fill="#e8eaf0"/>
  <rect x="16" y="22" width="1" height="1" fill="#e8e9f4"/>
  <rect x="17" y="22" width="1" height="1" fill="#e8e9f6"/>
  <rect x="18" y="22" width="1" height="1" fill="#e8e9f4"/>
  <rect x="19" y="22" width="1" height="1" fill="#e8e9f2"/>
  <rect x="20" y="22" width="1" height="1" fill="#e2e1e8"/>
  <rect x="21" y="22" width="1" height="1" fill="#96959a"/>
  <rect x="22" y="22" width="1" height="1" fill="#7a7a7c7d"/>
  <rect x="1" y="23" width="1" height="1" fill="#74767a7a"/>
  <rect x="2" y="23" width="1" height="1" fill="#727377e3"/>
  <rect x="3" y="23" width="12" height="1" fill="#74767a"/>
  <rect x="15" y="23" width="1" height="1" fill="#74757c"/>
  <rect x="16" y="23" width="1" height="1" fill="#747480"/>
  <rect x="17" y="23" width="1" height="1" fill="#747482"/>
  <rect x="18" y="23" width="1" height="1" fill="#747480"/>
  <rect x="19" y="23" width="1" height="1" fill="#74757e"/>
  <rect x="20" y="23" width="1" height="1" fill="#79787fe5"/>
  <rect x="21" y="23" width="1" height="1" fill="#7271767c"/>
</svg>