<svg xmlns="http://www.w3.org/2000/svg" width="76" height="24" viewBox="0 0 76 24" shape-rendering="crispEdges">
  <rect x="7" y="1" width="1" height="1" fill="#8ba7d739"/>
  <rect x="8" y="1" width="1" height="1" fill="#89a6e184"/>
  <rect x="9" y="1" width="1" height="1" fill="#87a6e5c9"/>
  <rect x="10" y="1" width="1" height="1" fill="#86a7e5db"/>
  <rect x="11" y="1" width="1" height="1" fill="#86a7e5"/>
  <rect x="12" y="1" width="15" height="1" fill="#84a8e5"/>
  <rect x="27" y="1" width="1" height="1" fill="#84a8e5e1"/>
  <rect x="28" y="1" width="1" height="1" fill="#84a8e5cc"/>
  <rect x="29" y="1" width="1" height="1" fill="#84a8e58d"/>
  <rect x="30" y="1" width="1" height="1" fill="#84a8e542"/>
  <rect x="45" y="1" width="1" height="1" fill="#89a6e311"/>
  <rect x="46" y="1" width="1" height="1" fill="#87a6e728"/>
  <rect x="47" y="1" width="1" height="1" fill="#86a6eb3d"/>
  <rect x="48" y="1" width="1" height="1" fill="#84a7eb42"/>
  <rect x="49" y="1" width="4" height="1" fill="#83a8eb4d"/>
  <rect x="53" y="1" width="4" height="1" fill="#83a8e94d"/>
  <rect x="57" y="1" width="7" height="1" fill="#83a8e74d"/>
  <rect x="64" y="1" width="1" height="1" fill="#84a7eb4d"/>
  <rect x="65" y="1" width="1" height="1" fill="#84a7eb44"/>
  <rect x="66" y="1" width="1" height="1" fill="#84a7e93e"/>
  <rect x="67" y="1" width="1" height="1" fill="#84a8e72b"/>
  <rect x="68" y="1" width="1" height="1" fill="#84a8e314"/>
  <rect x="5" y="2" width="1" height="1" fill="#8ba6dd36"/>
  <rect x="6" y="2" width="1" height="1" fill="#8ba6ddc3"/>
  <rect x="7" y="2" width="1" height="1" fill="#89a7df"/>
  <rect x="8" y="2" width="1" height="1" fill="#89a6e3"/>
  <rect x="9" y="2" width="1" height="1" fill="#87a7e3"/>
  <rect x="10" y="2" width="2" height="1" fill="#86a7e3"/>
  <rect x="12" y="2" width="19" height="1" fill="#84a8e5"/>
  <rect x="31" y="2" width="1" height="1" fill="#86a7e3cf"/>
  <rect x="32" y="2" width="1" height="1" fill="#87a7df3f"/>
  <rect x="43" y="2" width="1" height="1" fill="#8ba6dd10"/>
  <rect x="44" y="2" width="1" height="1" fill="#8ba5e13b"/>
  <rect x="45" y="2" width="1" height="1" fill="#89a5e54d"/>
  <rect x="46" y="2" width="1" height="1" fill="#87a6e74d"/>
  <rect x="47" y="2" width="1" height="1" fill="#86a6e94d"/>
  <rect x="48" y="2" width="5" height="1" fill="#84a7e94d"/>
  <rect x="53" y="2" width="4" height="1" fill="#84a8e74d"/>
  <rect x="57" y="2" width="6" height="1" fill="#84a8e54d"/>
  <rect x="63" y="2" width="2" height="1" fill="#84a8e74d"/>
  <rect x="65" y="2" width="1" height="1" fill="#84a7e94d"/>
  <rect x="66" y="2" width="2" height="1" fill="#84a8e74d"/>
  <rect x="68" y="2" width="1" height="1" fill="#84a8e34d"/>
  <rect x="69" y="2" width="1" height="1" fill="#84a9e13f"/>
  <rect x="70" y="2" width="1" height="1" fill="#84a9e113"/>
  <rect x="4" y="3" width="1" height="1" fill="#89a5e56f"/>
  <rect x="5" y="3" width="1" height="1" fill="#89a5e5fc"/>
  <rect x="6" y="3" width="1" height="1" fill="#89a5e5"/>
  <rect x="7" y="3" width="2" height="1" fill="#87a6e5"/>
  <rect x="9" y="3" width="3" height="1" fill="#86a7e3"/>
  <rect x="12" y="3" width="20" height="1" fill="#84a8e5"/>
  <rect x="32" y="3" width="1" height="1" fill="#84a8e3"/>
  <rect x="33" y="3" width="1" height="1" fill="#86a7e384"/>
  <rect x="42" y="3" width="1" height="1" fill="#89a6e322"/>
  <rect x="43" y="3" width="1" height="1" fill="#89a6e34c"/>
  <rect x="44" y="3" width="2" height="1" fill="#89a5e54d"/>
  <rect x="46" y="3" width="2" height="1" fill="#87a6e74d"/>
  <rect x="48" y="3" width="1" height="1" fill="#86a7e74d"/>
  <rect x="49" y="3" width="5" height="1" fill="#84a8e74d"/>
  <rect x="54" y="3" width="4" height="1" fill="#84a8e54d"/>
  <rect x="58" y="3" width="5" height="1" fill="#84a8e34d"/>
  <rect x="63" y="3" width="6" height="1" fill="#84a8e54d"/>
  <rect x="69" y="3" width="2" height="1" fill="#84a8e34d"/>
  <rect x="71" y="3" width="1" height="1" fill="#84a8e328"/>
  <rect x="3" y="4" width="1" height="1" fill="#87a5e984"/>
  <rect x="4" y="4" width="2" height="1" fill="#87a5e9"/>
  <rect x="6" y="4" width="1" height="1" fill="#87a6e7"/>
  <rect x="7" y="4" width="2" height="1" fill="#86a7e7"/>
  <rect x="9" y="4" width="19" height="2" fill="#84a8e5"/>
  <rect x="28" y="4" width="5" height="2" fill="#83a9e3"/>
  <rect x="33" y="4" width="1" height="1" fill="#84a8e3"/>
  <rect x="34" y="4" width="1" height="1" fill="#84a8e399"/>
  <rect x="41" y="4" width="1" height="1" fill="#86a6e928"/>
  <rect x="42" y="4" width="2" height="1" fill="#86a7e74d"/>
  <rect x="44" y="4" width="2" height="1" fill="#87a6e74d"/>
  <rect x="46" y="4" width="3" height="1" fill="#87a6e54d"/>
  <rect x="49" y="4" width="6" height="1" fill="#86a7e54d"/>
  <rect x="55" y="4" width="4" height="2" fill="#86a7e34d"/>
  <rect x="59" y="4" width="4" height="1" fill="#86a8e14d"/>
  <rect x="63" y="4" width="1" height="1" fill="#86a7e34d"/>
  <rect x="64" y="4" width="3" height="1" fill="#84a8e34d"/>
  <rect x="67" y="4" width="2" height="1" fill="#84a8e54d"/>
  <rect x="69" y="4" width="1" height="1" fill="#84a8e74d"/>
  <rect x="70" y="4" width="1" height="1" fill="#83a8e74d"/>
  <rect x="71" y="4" width="1" height="1" fill="#83a9e54d"/>
  <rect x="72" y="4" width="1" height="1" fill="#83a9e32e"/>
  <rect x="2" y="5" width="1" height="1" fill="#86a6e957"/>
  <rect x="3" y="5" width="3" height="1" fill="#86a6e9"/>
  <rect x="6" y="5" width="1" height="1" fill="#86a7e7"/>
  <rect x="7" y="5" width="2" height="1" fill="#84a8e7"/>
  <rect x="33" y="5" width="2" height="1" fill="#84a8e5"/>
  <rect x="35" y="5" width="1" height="1" fill="#83a9e36f"/>
  <rect x="40" y="5" width="1" height="1" fill="#81a9e71a"/>
  <rect x="41" y="5" width="1" height="1" fill="#81a9e94d"/>
  <rect x="42" y="5" width="1" height="1" fill="#83a8e74d"/>
  <rect x="43" y="5" width="1" height="1" fill="#84a8e74d"/>
  <rect x="44" y="5" width="1" height="1" fill="#86a7e74d"/>
  <rect x="45" y="5" width="1" height="1" fill="#87a6e74d"/>
  <rect x="46" y="5" width="4" height="1" fill="#87a6e54d"/>
  <rect x="50" y="5" width="5" height="1" fill="#86a7e54d"/>
  <rect x="59" y="5" width="5" height="1" fill="#86a8e14d"/>
  <rect x="64" y="5" width="2" height="1" fill="#84a9e14d"/>
  <rect x="66" y="5" width="1" height="1" fill="#84a8e34d"/>
  <rect x="67" y="5" width="1" height="4" fill="#84a8e54d"/>
  <rect x="68" y="5" width="2" height="1" fill="#84a8e74d"/>
  <rect x="70" y="5" width="2" height="1" fill="#83a8e94d"/>
  <rect x="72" y="5" width="1" height="1" fill="#83a9e54d"/>
  <rect x="73" y="5" width="1" height="1" fill="#83a9e322"/>
  <rect x="1" y="6" width="1" height="1" fill="#84a8e312"/>
  <rect x="2" y="6" width="1" height="1" fill="#84a8e3ed"/>
  <rect x="3" y="6" width="1" height="1" fill="#84a8e3"/>
  <rect x="4" y="6" width="3" height="1" fill="#84a8e5"/>
  <rect x="7" y="6" width="2" height="1" fill="#83a9e5"/>
  <rect x="9" y="6" width="3" height="1" fill="#83a9e3"/>
  <rect x="12" y="6" width="21" height="1" fill="#84a8e5"/>
  <rect x="33" y="6" width="2" height="1" fill="#86a7e7"/>
  <rect x="35" y="6" width="1" height="1" fill="#84a8e5f9"/>
  <rect x="36" y="6" width="1" height="1" fill="#84a8e524"/>
  <rect x="40" y="6" width="1" height="1" fill="#7fabe348"/>
  <rect x="41" y="6" width="1" height="1" fill="#7eace34d"/>
  <rect x="42" y="6" width="1" height="1" fill="#7fabe34d"/>
  <rect x="43" y="6" width="1" height="2" fill="#83a9e34d"/>
  <rect x="44" y="6" width="1" height="2" fill="#84a8e54d"/>
  <rect x="45" y="6" width="1" height="1" fill="#87a6e54d"/>
  <rect x="46" y="6" width="3" height="1" fill="#87a6e74d"/>
  <rect x="49" y="6" width="5" height="1" fill="#86a7e74d"/>
  <rect x="54" y="6" width="4" height="2" fill="#86a7e54d"/>
  <rect x="58" y="6" width="5" height="1" fill="#86a7e34d"/>
  <rect x="63" y="6" width="1" height="1" fill="#86a8e14d"/>
  <rect x="64" y="6" width="2" height="1" fill="#84a9df4d"/>
  <rect x="66" y="6" width="1" height="1" fill="#84a9e14d"/>
  <rect x="68" y="6" width="1" height="2" fill="#84a8e74d"/>
  <rect x="69" y="6" width="1" height="2" fill="#84a7e94d"/>
  <rect x="70" y="6" width="2" height="1" fill="#84a7eb4d"/>
  <rect x="72" y="6" width="1" height="1" fill="#84a8e74d"/>
  <rect x="73" y="6" width="1" height="1" fill="#84a8e54b"/>
  <rect x="74" y="6" width="1" height="1" fill="#84a8e50b"/>
  <rect x="1" y="7" width="1" height="1" fill="#83a9e384"/>
  <rect x="2" y="7" width="10" height="1" fill="#83a9e3"/>
  <rect x="12" y="7" width="20" height="1" fill="#84a8e5"/>
  <rect x="32" y="7" width="4" height="1" fill="#86a7e7"/>
  <rect x="36" y="7" width="1" height="1" fill="#86a7e799"/>
  <rect x="39" y="7" width="1" height="1" fill="#84a8e528"/>
  <rect x="40" y="7" width="1" height="1" fill="#7fabe34d"/>
  <rect x="41" y="7" width="2" height="1" fill="#7fabe14d"/>
  <rect x="45" y="7" width="1" height="1" fill="#86a7e54d"/>
  <rect x="46" y="7" width="2" height="1" fill="#87a6e74d"/>
  <rect x="48" y="7" width="6" height="1" fill="#86a7e74d"/>
  <rect x="58" y="7" width="6" height="1" fill="#86a7e34d"/>
  <rect x="64" y="7" width="2" height="1" fill="#84a9e14d"/>
  <rect x="66" y="7" width="1" height="1" fill="#84a8e34d"/>
  <rect x="70" y="7" width="1" height="1" fill="#84a7eb4d"/>
  <rect x="71" y="7" width="1" height="1" fill="#84a7e94d"/>
  <rect x="72" y="7" width="2" height="1" fill="#86a7e74d"/>
  <rect x="74" y="7" width="1" height="1" fill="#86a7e72e"/>
  <rect x="1" y="8" width="1" height="1" fill="#83a9e5e4"/>
  <rect x="2" y="8" width="6" height="1" fill="#83a9e5"/>
  <rect x="8" y="8" width="2" height="2" fill="#84a8e3"/>
  <rect x="10" y="8" width="26" height="1" fill="#84a8e5"/>
  <rect x="36" y="8" width="1" height="1" fill="#84a8e5f3"/>
  <rect x="39" y="8" width="1" height="1" fill="#84a8e545"/>
  <rect x="40" y="8" width="1" height="1" fill="#83a9e54d"/>
  <rect x="41" y="8" width="2" height="1" fill="#83a9e34d"/>
  <rect x="43" y="8" width="3" height="1" fill="#84a8e54d"/>
  <rect x="46" y="8" width="2" height="1" fill="#86a7e54d"/>
  <rect x="48" y="8" width="16" height="1" fill="#84a8e54d"/>
  <rect x="64" y="8" width="3" height="1" fill="#84a8e34d"/>
  <rect x="68" y="8" width="4" height="1" fill="#84a8e74d"/>
  <rect x="72" y="8" width="2" height="1" fill="#84a8e54d"/>
  <rect x="74" y="8" width="1" height="1" fill="#84a8e549"/>
  <rect x="0" y="9" width="1" height="1" fill="#83a9e52a"/>
  <rect x="1" y="9" width="7" height="1" fill="#83a9e5"/>
  <rect x="10" y="9" width="27" height="1" fill="#84a8e5"/>
  <rect x="37" y="9" width="1" height="1" fill="#84a8e545"/>
  <rect x="38" y="9" width="1" height="1" fill="#84a8e50d"/>
  <rect x="39" y="9" width="27" height="1" fill="#84a8e54d"/>
  <rect x="66" y="9" width="1" height="1" fill="#84a8e34d"/>
  <rect x="67" y="9" width="2" height="1" fill="#84a8e54d"/>
  <rect x="69" y="9" width="1" height="1" fill="#84a8e74d"/>
  <rect x="70" y="9" width="5" height="1" fill="#84a8e54d"/>
  <rect x="75" y="9" width="1" height="1" fill="#84a8e515"/>
  <rect x="0" y="10" width="1" height="1" fill="#84a8e557"/>
  <rect x="1" y="10" width="36" height="4" fill="#84a8e5"/>
  <rect x="37" y="10" width="1" height="1" fill="#84a8e56c"/>
  <rect x="38" y="10" width="1" height="1" fill="#84a8e51a"/>
  <rect x="39" y="10" width="36" height="4" fill="#84a8e54d"/>
  <rect x="75" y="10" width="1" height="1" fill="#84a8e521"/>
  <rect x="0" y="11" width="1" height="2" fill="#84a8e569"/>
  <rect x="37" y="11" width="1" height="1" fill="#84a8e584"/>
  <rect x="38" y="11" width="1" height="2" fill="#84a8e520"/>
  <rect x="75" y="11" width="1" height="1" fill="#84a8e528"/>
  <rect x="37" y="12" width="1" height="1" fill="#84a8e578"/>
  <rect x="75" y="12" width="1" height="1" fill="#84a8e524"/>
  <rect x="0" y="13" width="1" height="1" fill="#84a8e54e"/>
  <rect x="37" y="13" width="1" height="1" fill="#84a8e55d"/>
  <rect x="38" y="13" width="1" height="1" fill="#84a8e518"/>
  <rect x="75" y="13" width="1" height="1" fill="#84a8e51c"/>
  <rect x="0" y="14" width="1" height="1" fill="#84a8e512"/>
  <rect x="1" y="14" width="1" height="1" fill="#84a8e5fc"/>
  <rect x="2" y="14" width="35" height="1" fill="#84a8e5"/>
  <rect x="37" y="14" width="1" height="1" fill="#84a8e530"/>
  <rect x="39" y="14" width="1" height="1" fill="#84a8e54c"/>
  <rect x="40" y="14" width="28" height="1" fill="#84a8e54d"/>
  <rect x="68" y="14" width="4" height="1" fill="#84a8e34d"/>
  <rect x="72" y="14" width="3" height="1" fill="#84a8e54d"/>
  <rect x="75" y="14" width="1" height="1" fill="#84a8e50e"/>
  <rect x="1" y="15" width="1" height="1" fill="#86a7e7c3"/>
  <rect x="2" y="15" width="2" height="1" fill="#86a7e5"/>
  <rect x="4" y="15" width="1" height="1" fill="#86a7e3"/>
  <rect x="5" y="15" width="3" height="1" fill="#84a8e3"/>
  <rect x="8" y="15" width="23" height="1" fill="#84a8e5"/>
  <rect x="31" y="15" width="5" height="1" fill="#84a8e7"/>
  <rect x="36" y="15" width="1" height="1" fill="#84a8e7e4"/>
  <rect x="39" y="15" width="1" height="1" fill="#84a8e73b"/>
  <rect x="40" y="15" width="1" height="1" fill="#84a8e54d"/>
  <rect x="41" y="15" width="3" height="1" fill="#84a8e34d"/>
  <rect x="44" y="15" width="24" height="1" fill="#84a8e54d"/>
  <rect x="68" y="15" width="3" height="1" fill="#84a8e34d"/>
  <rect x="71" y="15" width="1" height="3" fill="#84a8e54d"/>
  <rect x="72" y="15" width="2" height="1" fill="#84a8e74d"/>
  <rect x="74" y="15" width="1" height="1" fill="#84a8e745"/>
  <rect x="1" y="16" width="1" height="1" fill="#87a5e963"/>
  <rect x="2" y="16" width="1" height="1" fill="#87a6e7"/>
  <rect x="3" y="16" width="1" height="1" fill="#87a7e3"/>
  <rect x="4" y="16" width="1" height="1" fill="#87a7e1"/>
  <rect x="5" y="16" width="1" height="2" fill="#86a8df"/>
  <rect x="6" y="16" width="1" height="2" fill="#86a9dd"/>
  <rect x="7" y="16" width="1" height="1" fill="#86a8df"/>
  <rect x="8" y="16" width="1" height="2" fill="#84a8e3"/>
  <rect x="9" y="16" width="17" height="2" fill="#84a8e5"/>
  <rect x="26" y="16" width="2" height="1" fill="#84a8e7"/>
  <rect x="28" y="16" width="3" height="1" fill="#86a7e7"/>
  <rect x="31" y="16" width="5" height="1" fill="#86a6e9"/>
  <rect x="36" y="16" width="1" height="1" fill="#86a6e97b"/>
  <rect x="39" y="16" width="1" height="1" fill="#86a6e91e"/>
  <rect x="40" y="16" width="1" height="1" fill="#84a8e34d"/>
  <rect x="41" y="16" width="1" height="1" fill="#84a9df4d"/>
  <rect x="42" y="16" width="2" height="1" fill="#84a9e14d"/>
  <rect x="44" y="16" width="1" height="1" fill="#84a8e34d"/>
  <rect x="45" y="16" width="1" height="1" fill="#84a8e54d"/>
  <rect x="46" y="16" width="2" height="2" fill="#84a8e74d"/>
  <rect x="48" y="16" width="12" height="2" fill="#84a8e54d"/>
  <rect x="60" y="16" width="8" height="2" fill="#84a8e34d"/>
  <rect x="68" y="16" width="2" height="2" fill="#86a7e34d"/>
  <rect x="70" y="16" width="1" height="2" fill="#84a8e34d"/>
  <rect x="72" y="16" width="1" height="1" fill="#86a6e94d"/>
  <rect x="73" y="16" width="1" height="1" fill="#86a6eb4d"/>
  <rect x="74" y="16" width="1" height="1" fill="#86a6eb25"/>
  <rect x="2" y="17" width="1" height="1" fill="#86a7e7d8"/>
  <rect x="3" y="17" width="1" height="1" fill="#86a7e5"/>
  <rect x="4" y="17" width="1" height="1" fill="#86a8e1"/>
  <rect x="7" y="17" width="1" height="1" fill="#84a9df"/>
  <rect x="26" y="17" width="3" height="1" fill="#84a8e7"/>
  <rect x="29" y="17" width="2" height="1" fill="#86a7e7"/>
  <rect x="31" y="17" width="4" height="1" fill="#86a6e9"/>
  <rect x="35" y="17" width="1" height="1" fill="#86a6e9e7"/>
  <rect x="36" y="17" width="1" height="1" fill="#86a6e90c"/>
  <rect x="40" y="17" width="1" height="1" fill="#84a8e341"/>
  <rect x="41" y="17" width="2" height="1" fill="#84a9e14d"/>
  <rect x="43" y="17" width="1" height="1" fill="#84a8e34d"/>
  <rect x="44" y="17" width="2" height="1" fill="#84a8e54d"/>
  <rect x="72" y="17" width="1" height="1" fill="#84a7e94d"/>
  <rect x="73" y="17" width="1" height="1" fill="#84a7eb46"/>
  <rect x="2" y="18" width="1" height="1" fill="#83a8eb3c"/>
  <rect x="3" y="18" width="1" height="1" fill="#83a8e9f9"/>
  <rect x="4" y="18" width="1" height="1" fill="#84a8e5"/>
  <rect x="5" y="18" width="2" height="1" fill="#84a8e3"/>
  <rect x="7" y="18" width="1" height="1" fill="#83a9e3"/>
  <rect x="8" y="18" width="4" height="1" fill="#83a9e5"/>
  <rect x="12" y="18" width="19" height="1" fill="#84a8e5"/>
  <rect x="31" y="18" width="4" height="1" fill="#84a8e7"/>
  <rect x="35" y="18" width="1" height="1" fill="#84a8e74b"/>
  <rect x="40" y="18" width="1" height="1" fill="#83a8e712"/>
  <rect x="41" y="18" width="1" height="1" fill="#83a8e74b"/>
  <rect x="42" y="18" width="2" height="1" fill="#83a8e74d"/>
  <rect x="44" y="18" width="2" height="2" fill="#84a8e74d"/>
  <rect x="46" y="18" width="14" height="2" fill="#84a8e54d"/>
  <rect x="60" y="18" width="11" height="1" fill="#84a8e34d"/>
  <rect x="71" y="18" width="1" height="1" fill="#83a9e34d"/>
  <rect x="72" y="18" width="1" height="1" fill="#83a9e54d"/>
  <rect x="73" y="18" width="1" height="1" fill="#83a9e517"/>
  <rect x="3" y="19" width="1" height="1" fill="#83a8e969"/>
  <rect x="4" y="19" width="1" height="1" fill="#83a8e7"/>
  <rect x="5" y="19" width="1" height="1" fill="#84a8e7"/>
  <rect x="6" y="19" width="1" height="1" fill="#84a8e5"/>
  <rect x="7" y="19" width="5" height="1" fill="#83a9e5"/>
  <rect x="12" y="19" width="16" height="1" fill="#84a8e5"/>
  <rect x="28" y="19" width="5" height="1" fill="#83a9e5"/>
  <rect x="33" y="19" width="1" height="1" fill="#84a8e5"/>
  <rect x="34" y="19" width="1" height="1" fill="#84a8e57e"/>
  <rect x="41" y="19" width="1" height="1" fill="#83a8e920"/>
  <rect x="42" y="19" width="2" height="1" fill="#83a8e94d"/>
  <rect x="60" y="19" width="10" height="1" fill="#84a8e34d"/>
  <rect x="70" y="19" width="2" height="1" fill="#83a9e34d"/>
  <rect x="72" y="19" width="1" height="1" fill="#83a9e326"/>
  <rect x="4" y="20" width="1" height="1" fill="#84a8e560"/>
  <rect x="5" y="20" width="1" height="1" fill="#86a7e5f9"/>
  <rect x="6" y="20" width="1" height="1" fill="#86a7e7"/>
  <rect x="7" y="20" width="1" height="1" fill="#84a8e7"/>
  <rect x="8" y="20" width="24" height="1" fill="#84a8e5"/>
  <rect x="32" y="20" width="1" height="1" fill="#84a8e7fc"/>
  <rect x="33" y="20" width="1" height="1" fill="#86a7e76c"/>
  <rect x="42" y="20" width="1" height="1" fill="#84a8e31d"/>
  <rect x="43" y="20" width="1" height="1" fill="#84a8e54b"/>
  <rect x="44" y="20" width="2" height="1" fill="#84a8e54d"/>
  <rect x="46" y="20" width="2" height="2" fill="#84a8e74d"/>
  <rect x="48" y="20" width="12" height="2" fill="#84a8e54d"/>
  <rect x="60" y="20" width="4" height="3" fill="#84a8e34d"/>
  <rect x="64" y="20" width="2" height="2" fill="#86a7e34d"/>
  <rect x="66" y="20" width="4" height="1" fill="#84a8e34d"/>
  <rect x="70" y="20" width="1" height="1" fill="#84a8e34c"/>
  <rect x="71" y="20" width="1" height="1" fill="#84a8e321"/>
  <rect x="5" y="21" width="1" height="1" fill="#89a6e330"/>
  <rect x="6" y="21" width="1" height="1" fill="#89a6e3c0"/>
  <rect x="7" y="21" width="1" height="1" fill="#87a6e5"/>
  <rect x="8" y="21" width="1" height="1" fill="#86a7e5"/>
  <rect x="9" y="21" width="22" height="1" fill="#84a8e5"/>
  <rect x="31" y="21" width="1" height="1" fill="#86a7e3cc"/>
  <rect x="32" y="21" width="1" height="1" fill="#87a7e136"/>
  <rect x="43" y="21" width="1" height="1" fill="#84a9dd0e"/>
  <rect x="44" y="21" width="1" height="1" fill="#84a9e13a"/>
  <rect x="45" y="21" width="1" height="1" fill="#84a8e54d"/>
  <rect x="66" y="21" width="3" height="1" fill="#84a8e34d"/>
  <rect x="69" y="21" width="1" height="1" fill="#84a8e33e"/>
  <rect x="70" y="21" width="1" height="1" fill="#84a8e310"/>
  <rect x="7" y="22" width="1" height="1" fill="#8ca5e142"/>
  <rect x="8" y="22" width="1" height="1" fill="#87a7e39c"/>
  <rect x="9" y="22" width="1" height="1" fill="#84a8e5cc"/>
  <rect x="10" y="22" width="1" height="1" fill="#84a8e5f6"/>
  <rect x="11" y="22" width="16" height="1" fill="#84a8e5"/>
  <rect x="27" y="22" width="1" height="1" fill="#84a8e5fc"/>
  <rect x="28" y="22" width="1" height="1" fill="#84a8e5cc"/>
  <rect x="29" y="22" width="1" height="1" fill="#84a8e5a5"/>
  <rect x="30" y="22" width="1" height="1" fill="#84a8e54b"/>
  <rect x="45" y="22" width="1" height="1" fill="#83a9e114"/>
  <rect x="46" y="22" width="1" height="1" fill="#84a8e72f"/>
  <rect x="47" y="22" width="1" height="1" fill="#84a8e73e"/>
  <rect x="48" y="22" width="1" height="1" fill="#84a8e54a"/>
  <rect x="49" y="22" width="11" height="1" fill="#84a8e54d"/>
  <rect x="64" y="22" width="1" height="1" fill="#86a7e34d"/>
  <rect x="65" y="22" width="1" height="1" fill="#86a7e34c"/>
  <rect x="66" y="22" width="1" height="1" fill="#84a8e33e"/>
  <rect x="67" y="22" width="1" height="1" fill="#83a9e332"/>
  <rect x="68" y="22" width="1" height="1" fill="#84a8e317"/>
</svg>