<svg xmlns="http://www.w3.org/2000/svg" width="50" height="24" viewBox="0 0 50 24" shape-rendering="crispEdges">
  <rect x="0" y="0" width="1" height="1" fill="#4573c5"/>
  <rect x="25" y="0" width="1" height="1" fill="#4f74a9"/>
  <rect x="0" y="2" width="1" height="1" fill="#4573c5"/>
  <rect x="25" y="2" width="1" height="1" fill="#4f74a9"/>
  <rect x="0" y="4" width="1" height="1" fill="#4573c5"/>
  <rect x="25" y="4" width="1" height="1" fill="#4f74a9"/>
  <rect x="0" y="6" width="1" height="1" fill="#4772c5"/>
  <rect x="25" y="6" width="1" height="1" fill="#4f74a9"/>
  <rect x="0" y="8" width="1" height="1" fill="#4774bd"/>
  <rect x="25" y="8" width="1" height="1" fill="#5271ab"/>
  <rect x="0" y="10" width="1" height="1" fill="#4576b5"/>
  <rect x="25" y="10" width="1" height="1" fill="#4d73b1"/>
  <rect x="0" y="12" width="1" height="1" fill="#4474c3"/>
  <rect x="2" y="12" width="1" height="1" fill="#5072af"/>
  <rect x="4" y="12" width="1" height="1" fill="#4a75af"/>
  <rect x="6" y="12" width="1" height="1" fill="#4d75a5"/>
  <rect x="8" y="12" width="1" height="1" fill="#4f73ab"/>
  <rect x="10" y="12" width="1" height="1" fill="#4f72af"/>
  <rect x="12" y="12" width="1" height="1" fill="#4f72af"/>
  <rect x="14" y="12" width="1" height="1" fill="#4f72af"/>
  <rect x="16" y="12" width="1" height="1" fill="#4f72af"/>
  <rect x="18" y="12" width="1" height="1" fill="#4f72af"/>
  <rect x="20" y="12" width="1" height="1" fill="#4f72af"/>
  <rect x="22" y="12" width="1" height="1" fill="#4f72af"/>
  <rect x="24" y="12" width="2" height="1" fill="#4574bd"/>
  <rect x="27" y="12" width="1" height="1" fill="#4f73ad"/>
  <rect x="29" y="12" width="1" height="1" fill="#4577b1"/>
  <rect x="31" y="12" width="1" height="1" fill="#4a75af"/>
  <rect x="33" y="12" width="1" height="1" fill="#4f73ab"/>
  <rect x="35" y="12" width="1" height="1" fill="#4f73ab"/>
  <rect x="37" y="12" width="1" height="1" fill="#4f73ad"/>
  <rect x="39" y="12" width="1" height="1" fill="#4f73ad"/>
  <rect x="41" y="12" width="1" height="1" fill="#4f72af"/>
  <rect x="43" y="12" width="1" height="1" fill="#4f72af"/>
  <rect x="45" y="12" width="1" height="1" fill="#4f72af"/>
  <rect x="47" y="12" width="1" height="1" fill="#4f73ad"/>
  <rect x="49" y="12" width="1" height="1" fill="#4f73ad"/>
  <rect x="0" y="14" width="1" height="1" fill="#3a78c9"/>
  <rect x="0" y="16" width="1" height="1" fill="#3f76c5"/>
  <rect x="0" y="18" width="1" height="1" fill="#4275c3"/>
  <rect x="0" y="20" width="1" height="1" fill="#4275c3"/>
  <rect x="0" y="22" width="1" height="1" fill="#4275c3"/>
</svg>