<svg xmlns="http://www.w3.org/2000/svg" width="23" height="19" viewBox="0 0 23 19" shape-rendering="crispEdges">
  <rect x="6" y="0" width="1" height="1" fill="#8888880d"/>
  <rect x="7" y="0" width="1" height="1" fill="#88888822"/>
  <rect x="8" y="0" width="1" height="1" fill="#8888881a"/>
  <rect x="20" y="0" width="1" height="1" fill="#8888880d"/>
  <rect x="21" y="0" width="1" height="1" fill="#88888822"/>
  <rect x="22" y="0" width="1" height="1" fill="#8888881a"/>
  <rect x="5" y="1" width="1" height="1" fill="#8888882f"/>
  <rect x="6" y="1" width="2" height="1" fill="#88888840"/>
  <rect x="8" y="1" width="1" height="3" fill="#8888881e"/>
  <rect x="18" y="1" width="1" height="1" fill="#8888880d"/>
  <rect x="19" y="1" width="1" height="1" fill="#8888882f"/>
  <rect x="20" y="1" width="2" height="1" fill="#88888840"/>
  <rect x="22" y="1" width="1" height="3" fill="#8888881e"/>
  <rect x="3" y="2" width="1" height="1" fill="#8888880d"/>
  <rect x="4" y="2" width="1" height="1" fill="#8888883c"/>
  <rect x="5" y="2" width="3" height="1" fill="#88888840"/>
  <rect x="17" y="2" width="1" height="1" fill="#8888881a"/>
  <rect x="18" y="2" width="4" height="1" fill="#88888840"/>
  <rect x="3" y="3" width="1" height="1" fill="#8888883c"/>
  <rect x="4" y="3" width="4" height="1" fill="#88888840"/>
  <rect x="16" y="3" width="1" height="1" fill="#8888881a"/>
  <rect x="17" y="3" width="5" height="1" fill="#88888840"/>
  <rect x="2" y="4" width="1" height="1" fill="#8888882b"/>
  <rect x="3" y="4" width="4" height="1" fill="#88888840"/>
  <rect x="7" y="4" width="1" height="1" fill="#8888881e"/>
  <rect x="16" y="4" width="1" height="1" fill="#8888883c"/>
  <rect x="17" y="4" width="4" height="1" fill="#88888840"/>
  <rect x="21" y="4" width="1" height="1" fill="#8888881e"/>
  <rect x="1" y="5" width="1" height="1" fill="#8888880d"/>
  <rect x="2" y="5" width="4" height="1" fill="#88888840"/>
  <rect x="6" y="5" width="1" height="1" fill="#88888822"/>
  <rect x="15" y="5" width="1" height="1" fill="#88888826"/>
  <rect x="16" y="5" width="4" height="1" fill="#88888840"/>
  <rect x="20" y="5" width="1" height="1" fill="#8888881e"/>
  <rect x="1" y="6" width="1" height="1" fill="#88888826"/>
  <rect x="2" y="6" width="3" height="2" fill="#88888840"/>
  <rect x="5" y="6" width="1" height="1" fill="#8888883c"/>
  <rect x="15" y="6" width="1" height="1" fill="#8888883c"/>
  <rect x="16" y="6" width="3" height="1" fill="#88888840"/>
  <rect x="19" y="6" width="1" height="1" fill="#8888882f"/>
  <rect x="1" y="7" width="1" height="1" fill="#8888883c"/>
  <rect x="5" y="7" width="1" height="1" fill="#8888882f"/>
  <rect x="14" y="7" width="1" height="1" fill="#88888815"/>
  <rect x="15" y="7" width="4" height="2" fill="#88888840"/>
  <rect x="19" y="7" width="1" height="1" fill="#8888881e"/>
  <rect x="0" y="8" width="1" height="1" fill="#8888880d"/>
  <rect x="1" y="8" width="4" height="1" fill="#88888840"/>
  <rect x="5" y="8" width="1" height="1" fill="#88888833"/>
  <rect x="6" y="8" width="3" height="1" fill="#88888811"/>
  <rect x="14" y="8" width="1" height="10" fill="#8888881e"/>
  <rect x="19" y="8" width="1" height="1" fill="#88888826"/>
  <rect x="20" y="8" width="3" height="1" fill="#88888811"/>
  <rect x="0" y="9" width="1" height="1" fill="#8888881a"/>
  <rect x="1" y="9" width="8" height="9" fill="#88888840"/>
  <rect x="9" y="9" width="1" height="9" fill="#88888811"/>
  <rect x="15" y="9" width="8" height="9" fill="#88888840"/>
  <rect x="0" y="10" width="1" height="8" fill="#8888881e"/>
  <rect x="1" y="18" width="8" height="1" fill="#88888811"/>
  <rect x="15" y="18" width="8" height="1" fill="#88888811"/>
</svg>