<svg xmlns="http://www.w3.org/2000/svg" width="26" height="26" viewBox="0 0 26 26" shape-rendering="crispEdges">
  <rect x="0" y="0" width="1" height="1" fill="#0a0a0a0f"/>
  <rect x="1" y="0" width="1" height="1" fill="#0000002e"/>
  <rect x="2" y="0" width="1" height="1" fill="#06060633"/>
  <rect x="3" y="0" width="21" height="1" fill="#00000033"/>
  <rect x="24" y="0" width="1" height="1" fill="#0505052e"/>
  <rect x="25" y="0" width="1" height="1" fill="#0505050f"/>
  <rect x="0" y="1" width="1" height="1" fill="#0000002e"/>
  <rect x="1" y="1" width="1" height="1" fill="#e8e8e8c1"/>
  <rect x="2" y="1" width="1" height="1" fill="#f9f9f9"/>
  <rect x="3" y="1" width="15" height="1" fill="#ffffff"/>
  <rect x="18" y="1" width="6" height="1" fill="#fefefe"/>
  <rect x="24" y="1" width="1" height="1" fill="#eaeaeac1"/>
  <rect x="25" y="1" width="1" height="1" fill="#0101012e"/>
  <rect x="0" y="2" width="1" height="1" fill="#06060633"/>
  <rect x="1" y="2" width="1" height="1" fill="#f8f8f8"/>
  <rect x="2" y="2" width="1" height="1" fill="#fcfbfce6"/>
  <rect x="3" y="2" width="1" height="1" fill="#ffffffe3"/>
  <rect x="4" y="2" width="1" height="1" fill="#ffffffe1"/>
  <rect x="5" y="2" width="16" height="1" fill="#ffffffe0"/>
  <rect x="21" y="2" width="1" height="1" fill="#ffffffe1"/>
  <rect x="22" y="2" width="1" height="1" fill="#ffffffe3"/>
  <rect x="23" y="2" width="1" height="1" fill="#ffffffe6"/>
  <rect x="24" y="2" width="1" height="1" fill="#fafafa"/>
  <rect x="25" y="2" width="1" height="1" fill="#06060633"/>
  <rect x="0" y="3" width="1" height="15" fill="#00000033"/>
  <rect x="1" y="3" width="1" height="15" fill="#ffffff"/>
  <rect x="2" y="3" width="1" height="1" fill="#ffffffcc"/>
  <rect x="3" y="3" width="1" height="1" fill="#fdfdfdc7"/>
  <rect x="4" y="3" width="1" height="1" fill="#fdfdfdc3"/>
  <rect x="5" y="3" width="9" height="1" fill="#fdfdfdc2"/>
  <rect x="14" y="3" width="4" height="1" fill="#fefefec2"/>
  <rect x="18" y="3" width="3" height="1" fill="#ffffffc2"/>
  <rect x="21" y="3" width="1" height="1" fill="#ffffffc3"/>
  <rect x="22" y="3" width="1" height="1" fill="#ffffffc7"/>
  <rect x="23" y="3" width="1" height="1" fill="#ffffffcc"/>
  <rect x="24" y="3" width="1" height="21" fill="#ffffff"/>
  <rect x="25" y="3" width="1" height="21" fill="#00000033"/>
  <rect x="2" y="4" width="1" height="1" fill="#ffffffaa"/>
  <rect x="3" y="4" width="1" height="1" fill="#fdfdfda0"/>
  <rect x="4" y="4" width="1" height="1" fill="#ffffff9b"/>
  <rect x="5" y="4" width="7" height="1" fill="#ffffff99"/>
  <rect x="12" y="4" width="4" height="1" fill="#fefefe99"/>
  <rect x="16" y="4" width="5" height="1" fill="#ffffff99"/>
  <rect x="21" y="4" width="1" height="1" fill="#ffffff9b"/>
  <rect x="22" y="4" width="1" height="1" fill="#ffffffa0"/>
  <rect x="23" y="4" width="1" height="1" fill="#ffffffaa"/>
  <rect x="2" y="5" width="1" height="1" fill="#ffffff7e"/>
  <rect x="3" y="5" width="1" height="1" fill="#fdfdfd70"/>
  <rect x="4" y="5" width="1" height="1" fill="#ffffff68"/>
  <rect x="5" y="5" width="7" height="1" fill="#ffffff66"/>
  <rect x="12" y="5" width="4" height="1" fill="#fefefe66"/>
  <rect x="16" y="5" width="5" height="1" fill="#ffffff66"/>
  <rect x="21" y="5" width="1" height="1" fill="#ffffff68"/>
  <rect x="22" y="5" width="1" height="1" fill="#ffffff70"/>
  <rect x="23" y="5" width="1" height="1" fill="#ffffff7e"/>
  <rect x="2" y="6" width="1" height="1" fill="#ffffff59"/>
  <rect x="3" y="6" width="1" height="1" fill="#fdfdfd48"/>
  <rect x="4" y="6" width="1" height="1" fill="#ffffff3f"/>
  <rect x="5" y="6" width="7" height="1" fill="#ffffff3d"/>
  <rect x="12" y="6" width="4" height="1" fill="#fefefe3d"/>
  <rect x="16" y="6" width="5" height="1" fill="#ffffff3d"/>
  <rect x="21" y="6" width="1" height="1" fill="#ffffff3f"/>
  <rect x="22" y="6" width="1" height="1" fill="#ffffff48"/>
  <rect x="23" y="6" width="1" height="1" fill="#ffffff59"/>
  <rect x="2" y="7" width="1" height="1" fill="#ffffff3d"/>
  <rect x="3" y="7" width="1" height="1" fill="#fdfdfd2a"/>
  <rect x="4" y="7" width="1" height="1" fill="#ffffff20"/>
  <rect x="5" y="7" width="7" height="1" fill="#ffffff1f"/>
  <rect x="12" y="7" width="4" height="1" fill="#fefefe1f"/>
  <rect x="16" y="7" width="5" height="1" fill="#ffffff1f"/>
  <rect x="21" y="7" width="1" height="1" fill="#ffffff20"/>
  <rect x="22" y="7" width="1" height="1" fill="#ffffff2a"/>
  <rect x="23" y="7" width="1" height="1" fill="#ffffff3d"/>
  <rect x="2" y="8" width="1" height="1" fill="#ffffff2a"/>
  <rect x="3" y="8" width="1" height="1" fill="#fdfdfd16"/>
  <rect x="4" y="8" width="1" height="1" fill="#ffffff0b"/>
  <rect x="5" y="8" width="16" height="1" fill="#ffffff0a"/>
  <rect x="21" y="8" width="1" height="1" fill="#ffffff0b"/>
  <rect x="22" y="8" width="1" height="1" fill="#ffffff16"/>
  <rect x="23" y="8" width="1" height="1" fill="#ffffff2a"/>
  <rect x="2" y="9" width="1" height="1" fill="#ffffff20"/>
  <rect x="3" y="9" width="1" height="1" fill="#fdfdfd0b"/>
  <rect x="22" y="9" width="1" height="1" fill="#ffffff0b"/>
  <rect x="23" y="9" width="1" height="1" fill="#ffffff20"/>
  <rect x="2" y="10" width="1" height="14" fill="#ffffff1f"/>
  <rect x="3" y="10" width="1" height="4" fill="#fdfdfd0a"/>
  <rect x="22" y="10" width="1" height="14" fill="#ffffff0a"/>
  <rect x="23" y="10" width="1" height="14" fill="#ffffff1f"/>
  <rect x="3" y="14" width="1" height="4" fill="#fefefe0a"/>
  <rect x="0" y="18" width="1" height="6" fill="#01010133"/>
  <rect x="1" y="18" width="1" height="6" fill="#fefefe"/>
  <rect x="3" y="18" width="1" height="6" fill="#ffffff0a"/>
  <rect x="0" y="24" width="1" height="1" fill="#0505052e"/>
  <rect x="1" y="24" width="1" height="1" fill="#eaeaeac2"/>
  <rect x="2" y="24" width="5" height="1" fill="#ffffff"/>
  <rect x="7" y="24" width="2" height="1" fill="#fefefe"/>
  <rect x="9" y="24" width="15" height="1" fill="#fdfdfd"/>
  <rect x="24" y="24" width="1" height="1" fill="#ebebebc2"/>
  <rect x="25" y="24" width="1" height="1" fill="#0000002e"/>
  <rect x="0" y="25" width="1" height="1" fill="#0000000f"/>
  <rect x="1" y="25" width="1" height="1" fill="#0202022e"/>
  <rect x="2" y="25" width="1" height="1" fill="#01010133"/>
  <rect x="3" y="25" width="1" height="1" fill="#07070733"/>
  <rect x="4" y="25" width="4" height="1" fill="#02020233"/>
  <rect x="8" y="25" width="10" height="1" fill="#00000033"/>
  <rect x="18" y="25" width="4" height="1" fill="#01010133"/>
  <rect x="22" y="25" width="2" height="1" fill="#02020233"/>
  <rect x="24" y="25" width="1" height="1" fill="#0202022e"/>
  <rect x="25" y="25" width="1" height="1" fill="#0202020f"/>
</svg>