<svg xmlns="http://www.w3.org/2000/svg" width="23" height="19" viewBox="0 0 23 19" shape-rendering="crispEdges">
  <rect x="0" y="0" width="1" height="1" fill="#8888881a"/>
  <rect x="1" y="0" width="1" height="1" fill="#88888822"/>
  <rect x="2" y="0" width="1" height="1" fill="#8888880d"/>
  <rect x="14" y="0" width="1" height="1" fill="#8888881a"/>
  <rect x="15" y="0" width="1" height="1" fill="#88888822"/>
  <rect x="16" y="0" width="1" height="1" fill="#8888880d"/>
  <rect x="0" y="1" width="1" height="3" fill="#8888881e"/>
  <rect x="1" y="1" width="2" height="1" fill="#88888840"/>
  <rect x="3" y="1" width="1" height="1" fill="#8888882f"/>
  <rect x="4" y="1" width="1" height="1" fill="#8888880d"/>
  <rect x="14" y="1" width="1" height="3" fill="#8888881e"/>
  <rect x="15" y="1" width="2" height="1" fill="#88888840"/>
  <rect x="17" y="1" width="1" height="1" fill="#8888882f"/>
  <rect x="1" y="2" width="4" height="1" fill="#88888840"/>
  <rect x="5" y="2" width="1" height="1" fill="#8888881a"/>
  <rect x="15" y="2" width="3" height="1" fill="#88888840"/>
  <rect x="18" y="2" width="1" height="1" fill="#8888883c"/>
  <rect x="19" y="2" width="1" height="1" fill="#8888880d"/>
  <rect x="1" y="3" width="5" height="1" fill="#88888840"/>
  <rect x="6" y="3" width="1" height="1" fill="#8888881a"/>
  <rect x="15" y="3" width="4" height="1" fill="#88888840"/>
  <rect x="19" y="3" width="1" height="1" fill="#8888883c"/>
  <rect x="1" y="4" width="1" height="1" fill="#8888881e"/>
  <rect x="2" y="4" width="4" height="1" fill="#88888840"/>
  <rect x="6" y="4" width="1" height="1" fill="#8888883c"/>
  <rect x="15" y="4" width="1" height="1" fill="#8888881e"/>
  <rect x="16" y="4" width="4" height="1" fill="#88888840"/>
  <rect x="20" y="4" width="1" height="1" fill="#8888882b"/>
  <rect x="2" y="5" width="1" height="1" fill="#8888881e"/>
  <rect x="3" y="5" width="4" height="1" fill="#88888840"/>
  <rect x="7" y="5" width="1" height="1" fill="#88888826"/>
  <rect x="16" y="5" width="1" height="1" fill="#88888822"/>
  <rect x="17" y="5" width="4" height="1" fill="#88888840"/>
  <rect x="21" y="5" width="1" height="1" fill="#8888880d"/>
  <rect x="3" y="6" width="1" height="1" fill="#8888882f"/>
  <rect x="4" y="6" width="3" height="1" fill="#88888840"/>
  <rect x="7" y="6" width="1" height="1" fill="#8888883c"/>
  <rect x="17" y="6" width="1" height="1" fill="#8888883c"/>
  <rect x="18" y="6" width="3" height="2" fill="#88888840"/>
  <rect x="21" y="6" width="1" height="1" fill="#88888826"/>
  <rect x="3" y="7" width="1" height="1" fill="#8888881e"/>
  <rect x="4" y="7" width="4" height="2" fill="#88888840"/>
  <rect x="8" y="7" width="1" height="1" fill="#88888815"/>
  <rect x="17" y="7" width="1" height="1" fill="#8888882f"/>
  <rect x="21" y="7" width="1" height="1" fill="#8888883c"/>
  <rect x="0" y="8" width="3" height="1" fill="#88888811"/>
  <rect x="3" y="8" width="1" height="1" fill="#88888826"/>
  <rect x="8" y="8" width="1" height="10" fill="#8888881e"/>
  <rect x="14" y="8" width="3" height="1" fill="#88888811"/>
  <rect x="17" y="8" width="1" height="1" fill="#88888833"/>
  <rect x="18" y="8" width="4" height="1" fill="#88888840"/>
  <rect x="22" y="8" width="1" height="1" fill="#8888880d"/>
  <rect x="0" y="9" width="8" height="9" fill="#88888840"/>
  <rect x="13" y="9" width="1" height="9" fill="#88888811"/>
  <rect x="14" y="9" width="8" height="9" fill="#88888840"/>
  <rect x="22" y="9" width="1" height="1" fill="#8888881a"/>
  <rect x="22" y="10" width="1" height="8" fill="#8888881e"/>
  <rect x="0" y="18" width="8" height="1" fill="#88888811"/>
  <rect x="14" y="18" width="8" height="1" fill="#88888811"/>
</svg>