<svg xmlns="http://www.w3.org/2000/svg" width="12" height="12" viewBox="0 0 12 12" shape-rendering="crispEdges">
  <rect x="5" y="0" width="1" height="1" fill="#afb1b333"/>
  <rect x="6" y="0" width="1" height="1" fill="#afb1b388"/>
  <rect x="5" y="1" width="1" height="1" fill="#afb1b3d4"/>
  <rect x="6" y="1" width="1" height="1" fill="#afb1b3"/>
  <rect x="7" y="1" width="1" height="1" fill="#aeb0b25d"/>
  <rect x="4" y="2" width="1" height="1" fill="#b1b3b488"/>
  <rect x="5" y="2" width="2" height="2" fill="#b1b3b4"/>
  <rect x="7" y="2" width="1" height="1" fill="#aeb0b2f5"/>
  <rect x="8" y="2" width="1" height="1" fill="#aeb0b235"/>
  <rect x="3" y="3" width="1" height="1" fill="#afb1b337"/>
  <rect x="4" y="3" width="1" height="1" fill="#b1b3b4fc"/>
  <rect x="7" y="3" width="1" height="1" fill="#afb1b3"/>
  <rect x="8" y="3" width="1" height="1" fill="#aeb0b2e3"/>
  <rect x="9" y="3" width="1" height="1" fill="#adafb117"/>
  <rect x="3" y="4" width="1" height="1" fill="#b1b3b4d7"/>
  <rect x="4" y="4" width="2" height="1" fill="#b1b3b4"/>
  <rect x="6" y="4" width="2" height="1" fill="#b2b4b5"/>
  <rect x="8" y="4" width="1" height="1" fill="#afb1b3"/>
  <rect x="9" y="4" width="1" height="1" fill="#b4b6b8c5"/>
  <rect x="2" y="5" width="1" height="1" fill="#b1b3b47d"/>
  <rect x="3" y="5" width="3" height="1" fill="#b1b3b4"/>
  <rect x="6" y="5" width="3" height="1" fill="#b2b4b5"/>
  <rect x="9" y="5" width="1" height="1" fill="#b3b5b6"/>
  <rect x="10" y="5" width="1" height="1" fill="#adafb17d"/>
  <rect x="2" y="6" width="1" height="1" fill="#b1b3b4dd"/>
  <rect x="3" y="6" width="1" height="2" fill="#b1b3b4"/>
  <rect x="4" y="6" width="2" height="2" fill="#b2b4b5"/>
  <rect x="6" y="6" width="2" height="2" fill="#b3b5b6"/>
  <rect x="8" y="6" width="1" height="1" fill="#abadae"/>
  <rect x="9" y="6" width="1" height="1" fill="#aaacad"/>
  <rect x="10" y="6" width="1" height="1" fill="#afb1b3db"/>
  <rect x="2" y="7" width="1" height="1" fill="#b1b3b4fc"/>
  <rect x="8" y="7" width="1" height="1" fill="#9fa1a3ea"/>
  <rect x="9" y="7" width="1" height="1" fill="#9a9c9e92"/>
  <rect x="10" y="7" width="1" height="1" fill="#acaeb0fa"/>
  <rect x="2" y="8" width="1" height="1" fill="#aaacade0"/>
  <rect x="3" y="8" width="1" height="1" fill="#b3b5b6"/>
  <rect x="4" y="8" width="3" height="1" fill="#aeb0b2"/>
  <rect x="7" y="8" width="1" height="1" fill="#aeb0b2fe"/>
  <rect x="8" y="8" width="1" height="1" fill="#9698993b"/>
  <rect x="9" y="8" width="1" height="1" fill="#b1b3b440"/>
  <rect x="10" y="8" width="1" height="1" fill="#a8aaacde"/>
  <rect x="2" y="9" width="1" height="1" fill="#999b9d85"/>
  <rect x="3" y="9" width="1" height="1" fill="#a7a9ab"/>
  <rect x="4" y="9" width="3" height="1" fill="#b3b5b6"/>
  <rect x="7" y="9" width="1" height="1" fill="#b3b5b6c9"/>
  <rect x="9" y="9" width="1" height="1" fill="#a5a7a9c1"/>
  <rect x="10" y="9" width="1" height="1" fill="#9d9fa084"/>
  <rect x="2" y="10" width="1" height="1" fill="#97999b0a"/>
  <rect x="3" y="10" width="1" height="1" fill="#9c9e9fc6"/>
  <rect x="4" y="10" width="3" height="1" fill="#abadae"/>
  <rect x="7" y="10" width="1" height="1" fill="#abadaeec"/>
  <rect x="8" y="10" width="1" height="1" fill="#aaacadc2"/>
  <rect x="9" y="10" width="1" height="1" fill="#999b9dc6"/>
  <rect x="10" y="10" width="1" height="1" fill="#9a9c9e0a"/>
  <rect x="3" y="11" width="1" height="1" fill="#9698990a"/>
  <rect x="4" y="11" width="1" height="1" fill="#9a9c9e81"/>
  <rect x="5" y="11" width="1" height="1" fill="#9a9c9edc"/>
  <rect x="6" y="11" width="1" height="1" fill="#9a9c9ef7"/>
  <rect x="7" y="11" width="1" height="1" fill="#9a9c9edc"/>
  <rect x="8" y="11" width="1" height="1" fill="#9a9c9e81"/>
</svg>