<svg xmlns="http://www.w3.org/2000/svg" width="7" height="40" viewBox="0 0 7 40" shape-rendering="crispEdges">
  <rect x="0" y="0" width="1" height="1" fill="#8d969896"/>
  <rect x="1" y="0" width="1" height="1" fill="#939c9e"/>
  <rect x="2" y="0" width="1" height="1" fill="#8d9698"/>
  <rect x="3" y="0" width="1" height="1" fill="#858e90"/>
  <rect x="4" y="0" width="1" height="1" fill="#90999a"/>
  <rect x="5" y="0" width="1" height="1" fill="#8d9698"/>
  <rect x="6" y="0" width="1" height="1" fill="#8d979696"/>
  <rect x="0" y="1" width="1" height="1" fill="#f6fcfe97"/>
  <rect x="1" y="1" width="1" height="1" fill="#c3cacc"/>
  <rect x="2" y="1" width="1" height="1" fill="#abb1b4"/>
  <rect x="3" y="1" width="1" height="1" fill="#acb3b5"/>
  <rect x="4" y="1" width="1" height="1" fill="#adb4b6"/>
  <rect x="5" y="1" width="1" height="1" fill="#c6cccf"/>
  <rect x="6" y="1" width="1" height="1" fill="#f6fcfc97"/>
  <rect x="1" y="2" width="1" height="1" fill="#f6fafbb4"/>
  <rect x="2" y="2" width="1" height="1" fill="#c0c5c6"/>
  <rect x="3" y="2" width="1" height="1" fill="#adb1b2"/>
  <rect x="4" y="2" width="1" height="1" fill="#c0c5c6"/>
  <rect x="5" y="2" width="1" height="1" fill="#f6fafbb4"/>
  <rect x="1" y="3" width="1" height="1" fill="#fdffff0a"/>
  <rect x="2" y="3" width="1" height="1" fill="#f1f6f7cd"/>
  <rect x="3" y="3" width="1" height="1" fill="#c6cbcb"/>
  <rect x="4" y="3" width="1" height="1" fill="#f8fafbcd"/>
  <rect x="5" y="3" width="1" height="1" fill="#fafcfe0a"/>
  <rect x="0" y="16" width="1" height="1" fill="#aaaaaa96"/>
  <rect x="1" y="16" width="1" height="1" fill="#adadad"/>
  <rect x="2" y="16" width="1" height="1" fill="#a5a5a5"/>
  <rect x="3" y="16" width="1" height="1" fill="#a4a4a4"/>
  <rect x="4" y="16" width="1" height="1" fill="#a3a3a3"/>
  <rect x="5" y="16" width="1" height="1" fill="#a5a5a5"/>
  <rect x="6" y="16" width="1" height="1" fill="#aaaaaa96"/>
  <rect x="0" y="17" width="1" height="1" fill="#fdfdfd97"/>
  <rect x="1" y="17" width="1" height="1" fill="#d5d5d5"/>
  <rect x="2" y="17" width="1" height="1" fill="#c7c7c7"/>
  <rect x="3" y="17" width="1" height="1" fill="#bababa"/>
  <rect x="4" y="17" width="1" height="1" fill="#c1c1c1"/>
  <rect x="5" y="17" width="1" height="1" fill="#d7d7d7"/>
  <rect x="6" y="17" width="1" height="1" fill="#f6f6f697"/>
  <rect x="1" y="18" width="1" height="1" fill="#f8f8f8b4"/>
  <rect x="2" y="18" width="1" height="1" fill="#d3d3d3"/>
  <rect x="3" y="18" width="1" height="1" fill="#c9c9c9"/>
  <rect x="4" y="18" width="1" height="1" fill="#cecece"/>
  <rect x="5" y="18" width="1" height="1" fill="#fefefeb4"/>
  <rect x="1" y="19" width="1" height="1" fill="#fcfbfc0a"/>
  <rect x="2" y="19" width="1" height="1" fill="#fdfdfdcd"/>
  <rect x="3" y="19" width="1" height="1" fill="#d2d2d2"/>
  <rect x="4" y="19" width="1" height="1" fill="#f7f7f7cd"/>
  <rect x="5" y="19" width="1" height="1" fill="#ffffff0a"/>
  <rect x="2" y="20" width="1" height="1" fill="#ffffff15"/>
  <rect x="3" y="20" width="1" height="1" fill="#fcfbfcb7"/>
  <rect x="4" y="20" width="1" height="1" fill="#f7f7f715"/>
  <rect x="0" y="32" width="1" height="1" fill="#96969696"/>
  <rect x="1" y="32" width="1" height="1" fill="#a0a0a0"/>
  <rect x="2" y="32" width="1" height="1" fill="#959595"/>
  <rect x="3" y="32" width="1" height="1" fill="#8d8d8d"/>
  <rect x="4" y="32" width="1" height="1" fill="#909090"/>
  <rect x="5" y="32" width="1" height="1" fill="#939393"/>
  <rect x="6" y="32" width="1" height="1" fill="#8d8d8d96"/>
  <rect x="0" y="33" width="1" height="1" fill="#ffffff97"/>
  <rect x="1" y="33" width="1" height="1" fill="#bfbfbf"/>
  <rect x="2" y="33" width="1" height="1" fill="#acacac"/>
  <rect x="3" y="33" width="1" height="1" fill="#a8a8a8"/>
  <rect x="4" y="33" width="1" height="1" fill="#a3a3a3"/>
  <rect x="5" y="33" width="1" height="1" fill="#bdbdbd"/>
  <rect x="6" y="33" width="1" height="1" fill="#ffffff97"/>
  <rect x="1" y="34" width="1" height="1" fill="#f6f6f6b4"/>
  <rect x="2" y="34" width="1" height="1" fill="#c4c4c4"/>
  <rect x="3" y="34" width="1" height="1" fill="#ababab"/>
  <rect x="4" y="34" width="1" height="1" fill="#c6c6c6"/>
  <rect x="5" y="34" width="1" height="1" fill="#f0f0f0b4"/>
  <rect x="1" y="35" width="1" height="1" fill="#f8f8f80a"/>
  <rect x="2" y="35" width="1" height="1" fill="#f9f9f9cd"/>
  <rect x="3" y="35" width="1" height="1" fill="#c4c4c4"/>
  <rect x="4" y="35" width="1" height="1" fill="#f3f3f3cd"/>
  <rect x="5" y="35" width="1" height="1" fill="#f6f6f60a"/>
  <rect x="2" y="36" width="1" height="1" fill="#ffffff15"/>
  <rect x="3" y="36" width="1" height="1" fill="#ffffffb7"/>
  <rect x="4" y="36" width="1" height="1" fill="#f0f0f015"/>
</svg>