<svg xmlns="http://www.w3.org/2000/svg" width="12" height="12" viewBox="0 0 12 12" shape-rendering="crispEdges">
  <rect x="0" y="0" width="1" height="1" fill="#dddfe0"/>
  <rect x="1" y="0" width="1" height="1" fill="#bfc1c2"/>
  <rect x="2" y="0" width="1" height="1" fill="#adafb1"/>
  <rect x="3" y="0" width="1" height="1" fill="#b2b4b5"/>
  <rect x="4" y="0" width="1" height="1" fill="#c3c5c7"/>
  <rect x="5" y="0" width="1" height="1" fill="#adafb1"/>
  <rect x="6" y="0" width="1" height="1" fill="#a6a8aa"/>
  <rect x="7" y="0" width="1" height="1" fill="#aaacad"/>
  <rect x="8" y="0" width="1" height="1" fill="#b8babb"/>
  <rect x="9" y="0" width="1" height="1" fill="#b4b6b8"/>
  <rect x="10" y="0" width="1" height="1" fill="#b6b8ba"/>
  <rect x="11" y="0" width="1" height="1" fill="#dfe1e3"/>
  <rect x="0" y="1" width="1" height="1" fill="#caccce"/>
  <rect x="1" y="1" width="1" height="1" fill="#abadae"/>
  <rect x="2" y="1" width="1" height="1" fill="#b4b6b8"/>
  <rect x="3" y="1" width="1" height="1" fill="#a7a9ab"/>
  <rect x="4" y="1" width="1" height="1" fill="#abadae"/>
  <rect x="5" y="1" width="1" height="1" fill="#939597"/>
  <rect x="6" y="1" width="2" height="1" fill="#a5a7a9"/>
  <rect x="8" y="1" width="1" height="1" fill="#aeb0b2"/>
  <rect x="9" y="1" width="1" height="1" fill="#afb1b3"/>
  <rect x="10" y="1" width="1" height="1" fill="#bbbdbf"/>
  <rect x="11" y="1" width="1" height="1" fill="#aaacad"/>
  <rect x="0" y="2" width="1" height="1" fill="#afb1b3"/>
  <rect x="1" y="2" width="1" height="1" fill="#babcbd"/>
  <rect x="2" y="2" width="1" height="1" fill="#b8babb"/>
  <rect x="3" y="2" width="1" height="1" fill="#e4e6e7"/>
  <rect x="4" y="2" width="1" height="1" fill="#bfc1c2"/>
  <rect x="5" y="2" width="1" height="1" fill="#eceef0"/>
  <rect x="6" y="2" width="1" height="1" fill="#d7d9db"/>
  <rect x="7" y="2" width="1" height="1" fill="#eff1f3"/>
  <rect x="8" y="2" width="1" height="1" fill="#999b9d"/>
  <rect x="9" y="2" width="1" height="1" fill="#adafb1"/>
  <rect x="10" y="2" width="1" height="1" fill="#cbcdcf"/>
  <rect x="11" y="2" width="1" height="1" fill="#a1a3a5"/>
  <rect x="0" y="3" width="1" height="1" fill="#b1b3b4"/>
  <rect x="1" y="3" width="1" height="1" fill="#b8babb"/>
  <rect x="2" y="3" width="1" height="1" fill="#adafb1"/>
  <rect x="3" y="3" width="1" height="1" fill="#fcfeff"/>
  <rect x="4" y="3" width="1" height="1" fill="#a7a9ab"/>
  <rect x="5" y="3" width="1" height="1" fill="#f3f5f7"/>
  <rect x="6" y="3" width="1" height="1" fill="#b6b8ba"/>
  <rect x="7" y="3" width="1" height="1" fill="#b3b5b6"/>
  <rect x="8" y="3" width="1" height="1" fill="#f9fbfc"/>
  <rect x="9" y="3" width="1" height="1" fill="#999b9d"/>
  <rect x="10" y="3" width="1" height="1" fill="#8f9192"/>
  <rect x="11" y="3" width="1" height="1" fill="#bfc1c2"/>
  <rect x="0" y="4" width="1" height="1" fill="#b3b5b6"/>
  <rect x="1" y="4" width="1" height="1" fill="#a7a9ab"/>
  <rect x="2" y="4" width="1" height="1" fill="#b6b8ba"/>
  <rect x="3" y="4" width="1" height="1" fill="#f4f6f8"/>
  <rect x="4" y="4" width="1" height="1" fill="#b9bbbc"/>
  <rect x="5" y="4" width="1" height="1" fill="#f4f6f8"/>
  <rect x="6" y="4" width="1" height="1" fill="#c4c6c8"/>
  <rect x="7" y="4" width="1" height="1" fill="#abadae"/>
  <rect x="8" y="4" width="1" height="1" fill="#a3a5a6"/>
  <rect x="9" y="4" width="1" height="1" fill="#fdffff"/>
  <rect x="10" y="4" width="1" height="1" fill="#c1c3c4"/>
  <rect x="11" y="4" width="1" height="1" fill="#b3b5b6"/>
  <rect x="0" y="5" width="1" height="2" fill="#b5b7b9"/>
  <rect x="1" y="5" width="1" height="2" fill="#b6b8ba"/>
  <rect x="2" y="5" width="1" height="2" fill="#b5b7b9"/>
  <rect x="3" y="5" width="1" height="2" fill="#fdffff"/>
  <rect x="4" y="5" width="1" height="1" fill="#a4a6a7"/>
  <rect x="5" y="5" width="1" height="1" fill="#eff1f3"/>
  <rect x="6" y="5" width="1" height="1" fill="#aeb0b2"/>
  <rect x="7" y="5" width="1" height="1" fill="#b2b4b5"/>
  <rect x="8" y="5" width="1" height="1" fill="#cbcdcf"/>
  <rect x="9" y="5" width="1" height="1" fill="#f1f3f4"/>
  <rect x="10" y="5" width="1" height="1" fill="#a5a7a9"/>
  <rect x="11" y="5" width="1" height="1" fill="#bdbfc1"/>
  <rect x="4" y="6" width="1" height="1" fill="#aeb0b2"/>
  <rect x="5" y="6" width="1" height="1" fill="#f9fbfc"/>
  <rect x="6" y="6" width="1" height="1" fill="#afb1b3"/>
  <rect x="7" y="6" width="1" height="1" fill="#c0c2c3"/>
  <rect x="8" y="6" width="1" height="1" fill="#9d9fa0"/>
  <rect x="9" y="6" width="1" height="2" fill="#f4f6f8"/>
  <rect x="10" y="6" width="1" height="1" fill="#b6b8ba"/>
  <rect x="11" y="6" width="1" height="1" fill="#bcbec0"/>
  <rect x="0" y="7" width="1" height="1" fill="#b3b5b6"/>
  <rect x="1" y="7" width="1" height="1" fill="#a7a9ab"/>
  <rect x="2" y="7" width="1" height="1" fill="#b6b8ba"/>
  <rect x="3" y="7" width="1" height="1" fill="#f4f6f8"/>
  <rect x="4" y="7" width="1" height="1" fill="#babcbd"/>
  <rect x="5" y="7" width="1" height="1" fill="#f3f5f7"/>
  <rect x="6" y="7" width="1" height="1" fill="#acaeb0"/>
  <rect x="7" y="7" width="1" height="1" fill="#b5b7b9"/>
  <rect x="8" y="7" width="1" height="1" fill="#9c9e9f"/>
  <rect x="10" y="7" width="1" height="1" fill="#b1b3b4"/>
  <rect x="11" y="7" width="1" height="1" fill="#a6a8aa"/>
  <rect x="0" y="8" width="1" height="1" fill="#a7a9ab"/>
  <rect x="1" y="8" width="1" height="1" fill="#bbbdbf"/>
  <rect x="2" y="8" width="1" height="1" fill="#a8aaac"/>
  <rect x="3" y="8" width="1" height="1" fill="#f8fafb"/>
  <rect x="4" y="8" width="1" height="1" fill="#b2b4b5"/>
  <rect x="5" y="8" width="1" height="1" fill="#eceef0"/>
  <rect x="6" y="8" width="1" height="1" fill="#a1a3a5"/>
  <rect x="7" y="8" width="1" height="1" fill="#909294"/>
  <rect x="8" y="8" width="1" height="1" fill="#edeff1"/>
  <rect x="9" y="8" width="1" height="1" fill="#b9bbbc"/>
  <rect x="10" y="8" width="1" height="1" fill="#b3b5b6"/>
  <rect x="11" y="8" width="1" height="1" fill="#b2b4b5"/>
  <rect x="0" y="9" width="1" height="1" fill="#b2b4b5"/>
  <rect x="1" y="9" width="1" height="1" fill="#c0c2c3"/>
  <rect x="2" y="9" width="1" height="1" fill="#bbbdbf"/>
  <rect x="3" y="9" width="1" height="1" fill="#ebedee"/>
  <rect x="4" y="9" width="1" height="1" fill="#babcbd"/>
  <rect x="5" y="9" width="1" height="1" fill="#eef0f2"/>
  <rect x="6" y="9" width="1" height="1" fill="#e4e6e7"/>
  <rect x="7" y="9" width="1" height="1" fill="#fcfeff"/>
  <rect x="8" y="9" width="1" height="1" fill="#b4b6b8"/>
  <rect x="9" y="9" width="1" height="1" fill="#a1a3a5"/>
  <rect x="10" y="9" width="1" height="1" fill="#b2b4b5"/>
  <rect x="11" y="9" width="1" height="1" fill="#a6a8aa"/>
  <rect x="0" y="10" width="1" height="1" fill="#afb1b3"/>
  <rect x="1" y="10" width="1" height="1" fill="#a3a5a6"/>
  <rect x="2" y="10" width="1" height="1" fill="#b1b3b4"/>
  <rect x="3" y="10" width="1" height="1" fill="#c4c6c8"/>
  <rect x="4" y="10" width="1" height="1" fill="#adafb1"/>
  <rect x="5" y="10" width="1" height="1" fill="#b3b5b6"/>
  <rect x="6" y="10" width="1" height="1" fill="#b8babb"/>
  <rect x="7" y="10" width="1" height="1" fill="#bfc1c2"/>
  <rect x="8" y="10" width="1" height="1" fill="#afb1b3"/>
  <rect x="9" y="10" width="1" height="1" fill="#b3b5b6"/>
  <rect x="10" y="10" width="1" height="1" fill="#bcbec0"/>
  <rect x="11" y="10" width="1" height="1" fill="#b8babb"/>
  <rect x="0" y="11" width="1" height="1" fill="#dddfe0"/>
  <rect x="1" y="11" width="1" height="1" fill="#9c9e9f"/>
  <rect x="2" y="11" width="1" height="1" fill="#9a9c9e"/>
  <rect x="3" y="11" width="1" height="1" fill="#959798"/>
  <rect x="4" y="11" width="1" height="1" fill="#9d9fa0"/>
  <rect x="5" y="11" width="1" height="1" fill="#8f9192"/>
  <rect x="6" y="11" width="1" height="1" fill="#9a9c9e"/>
  <rect x="7" y="11" width="1" height="1" fill="#888a8b"/>
  <rect x="8" y="11" width="1" height="1" fill="#9c9e9f"/>
  <rect x="9" y="11" width="1" height="1" fill="#969899"/>
  <rect x="10" y="11" width="1" height="1" fill="#a6a8aa"/>
  <rect x="11" y="11" width="1" height="1" fill="#c9cbcd"/>
</svg>