<svg xmlns="http://www.w3.org/2000/svg" width="16" height="16" viewBox="0 0 16 16" shape-rendering="crispEdges">
  <rect x="0" y="0" width="1" height="1" fill="#39b3e151"/>
  <rect x="1" y="0" width="1" height="1" fill="#39b3e1e9"/>
  <rect x="2" y="0" width="2" height="1" fill="#39b3e1"/>
  <rect x="4" y="0" width="6" height="1" fill="#3bb3e1"/>
  <rect x="10" y="0" width="1" height="1" fill="#3bb3e1e4"/>
  <rect x="11" y="0" width="1" height="1" fill="#3bb3e146"/>
  <rect x="0" y="1" width="1" height="1" fill="#39b3e1ee"/>
  <rect x="1" y="1" width="3" height="1" fill="#39b3e1"/>
  <rect x="4" y="1" width="7" height="1" fill="#3bb3e1"/>
  <rect x="11" y="1" width="1" height="1" fill="#3bb3e1df"/>
  <rect x="0" y="2" width="2" height="1" fill="#39b3e1"/>
  <rect x="2" y="2" width="1" height="1" fill="#39b3e135"/>
  <rect x="9" y="2" width="1" height="1" fill="#3bb3e144"/>
  <rect x="10" y="2" width="2" height="2" fill="#3bb3e1"/>
  <rect x="12" y="2" width="2" height="1" fill="#3cb2e1"/>
  <rect x="14" y="2" width="1" height="1" fill="#3cb2e1e4"/>
  <rect x="15" y="2" width="1" height="1" fill="#3cb2e146"/>
  <rect x="0" y="3" width="1" height="1" fill="#39b3e1"/>
  <rect x="1" y="3" width="1" height="1" fill="#39b3e1f0"/>
  <rect x="9" y="3" width="1" height="5" fill="#3bb3e10f"/>
  <rect x="12" y="3" width="3" height="1" fill="#3cb2e1"/>
  <rect x="15" y="3" width="1" height="1" fill="#3cb2e1df"/>
  <rect x="0" y="4" width="1" height="8" fill="#3bb3e1"/>
  <rect x="1" y="4" width="1" height="8" fill="#3bb3e1f0"/>
  <rect x="2" y="4" width="1" height="2" fill="#3bb3e10f"/>
  <rect x="3" y="4" width="5" height="2" fill="#3bb3e1"/>
  <rect x="8" y="4" width="1" height="2" fill="#3bb3e1f0"/>
  <rect x="10" y="4" width="1" height="4" fill="#3bb3e1"/>
  <rect x="11" y="4" width="1" height="4" fill="#3bb3e1f0"/>
  <rect x="13" y="4" width="1" height="1" fill="#3cb2e144"/>
  <rect x="14" y="4" width="1" height="2" fill="#3cb2e1"/>
  <rect x="15" y="4" width="1" height="2" fill="#3cb2e1f0"/>
  <rect x="13" y="5" width="1" height="1" fill="#3cb2e10f"/>
  <rect x="13" y="6" width="1" height="2" fill="#3bb3e10f"/>
  <rect x="14" y="6" width="1" height="2" fill="#3bb3e1"/>
  <rect x="15" y="6" width="1" height="2" fill="#3bb3e1f0"/>
  <rect x="2" y="7" width="1" height="2" fill="#3bb3e10f"/>
  <rect x="3" y="7" width="5" height="1" fill="#3bb3e1"/>
  <rect x="8" y="7" width="1" height="2" fill="#3bb3e1f0"/>
  <rect x="3" y="8" width="1" height="1" fill="#3bb3e1"/>
  <rect x="4" y="8" width="2" height="1" fill="#3cb2e1"/>
  <rect x="6" y="8" width="2" height="1" fill="#3bb3e1"/>
  <rect x="10" y="8" width="1" height="1" fill="#39b3e177"/>
  <rect x="11" y="8" width="1" height="1" fill="#39b3e170"/>
  <rect x="14" y="8" width="1" height="1" fill="#3bb3e177"/>
  <rect x="15" y="8" width="1" height="1" fill="#3bb3e170"/>
  <rect x="2" y="10" width="1" height="2" fill="#3bb3e10f"/>
  <rect x="3" y="10" width="1" height="2" fill="#3bb3e1"/>
  <rect x="4" y="10" width="2" height="2" fill="#3cb2e1"/>
  <rect x="6" y="10" width="2" height="2" fill="#3bb3e1"/>
  <rect x="8" y="10" width="1" height="2" fill="#3bb3e1f0"/>
  <rect x="12" y="10" width="2" height="2" fill="#39b3e1"/>
  <rect x="0" y="12" width="1" height="1" fill="#3cb2e1"/>
  <rect x="1" y="12" width="1" height="1" fill="#3cb2e1f0"/>
  <rect x="10" y="12" width="6" height="2" fill="#39b3e1"/>
  <rect x="0" y="13" width="2" height="1" fill="#3cb2e1"/>
  <rect x="2" y="13" width="1" height="1" fill="#3cb2e135"/>
  <rect x="0" y="14" width="1" height="1" fill="#3cb2e1e8"/>
  <rect x="1" y="14" width="5" height="1" fill="#3cb2e1"/>
  <rect x="6" y="14" width="2" height="2" fill="#3bb3e1"/>
  <rect x="8" y="14" width="1" height="2" fill="#3bb3e196"/>
  <rect x="12" y="14" width="2" height="2" fill="#39b3e1"/>
  <rect x="0" y="15" width="1" height="1" fill="#3cb2e14d"/>
  <rect x="1" y="15" width="1" height="1" fill="#3cb2e1dd"/>
  <rect x="2" y="15" width="4" height="1" fill="#3cb2e1"/>
</svg>