<svg xmlns="http://www.w3.org/2000/svg" width="16" height="16" viewBox="0 0 16 16" shape-rendering="crispEdges">
  <rect x="5" y="0" width="1" height="1" fill="#3bb3e150"/>
  <rect x="6" y="0" width="1" height="1" fill="#3bb3e1bf"/>
  <rect x="7" y="0" width="1" height="1" fill="#3bb3e1f4"/>
  <rect x="8" y="0" width="1" height="1" fill="#3bb3e1f2"/>
  <rect x="9" y="0" width="1" height="1" fill="#3bb3e1bc"/>
  <rect x="10" y="0" width="1" height="1" fill="#3bb3e148"/>
  <rect x="4" y="1" width="1" height="1" fill="#3bb3e18e"/>
  <rect x="5" y="1" width="6" height="1" fill="#3bb3e1"/>
  <rect x="11" y="1" width="1" height="1" fill="#3bb3e180"/>
  <rect x="3" y="2" width="1" height="1" fill="#39b3e153"/>
  <rect x="4" y="2" width="1" height="2" fill="#3bb3e1"/>
  <rect x="5" y="2" width="1" height="1" fill="#3bb3e1f5"/>
  <rect x="6" y="2" width="1" height="1" fill="#3bb3e166"/>
  <rect x="7" y="2" width="1" height="1" fill="#3bb3e10b"/>
  <rect x="8" y="2" width="1" height="1" fill="#3bb3e10d"/>
  <rect x="9" y="2" width="1" height="1" fill="#3bb3e16b"/>
  <rect x="10" y="2" width="1" height="1" fill="#3bb3e1f8"/>
  <rect x="11" y="2" width="1" height="6" fill="#3bb3e1"/>
  <rect x="12" y="2" width="1" height="1" fill="#3cb2e149"/>
  <rect x="3" y="3" width="1" height="1" fill="#39b3e1c6"/>
  <rect x="5" y="3" width="1" height="1" fill="#3bb3e162"/>
  <rect x="10" y="3" width="1" height="1" fill="#3bb3e173"/>
  <rect x="12" y="3" width="1" height="1" fill="#3cb2e1b9"/>
  <rect x="3" y="4" width="1" height="2" fill="#3bb3e1f9"/>
  <rect x="4" y="4" width="1" height="1" fill="#3bb3e1fc"/>
  <rect x="10" y="4" width="1" height="1" fill="#3bb3e10d"/>
  <rect x="12" y="4" width="1" height="1" fill="#3cb2e1ee"/>
  <rect x="4" y="5" width="1" height="1" fill="#3bb3e1fb"/>
  <rect x="10" y="5" width="1" height="1" fill="#3bb3e10b"/>
  <rect x="12" y="5" width="1" height="1" fill="#3cb2e1f1"/>
  <rect x="3" y="6" width="1" height="1" fill="#3bb3e1c5"/>
  <rect x="4" y="6" width="1" height="2" fill="#3bb3e1"/>
  <rect x="5" y="6" width="1" height="1" fill="#3bb3e15e"/>
  <rect x="10" y="6" width="1" height="1" fill="#3bb3e166"/>
  <rect x="12" y="6" width="1" height="1" fill="#3bb3e1ba"/>
  <rect x="3" y="7" width="1" height="1" fill="#3bb3e153"/>
  <rect x="5" y="7" width="1" height="1" fill="#3bb3e1f5"/>
  <rect x="6" y="7" width="1" height="1" fill="#3bb3e169"/>
  <rect x="7" y="7" width="1" height="1" fill="#3bb3e10d"/>
  <rect x="8" y="7" width="1" height="1" fill="#3bb3e10e"/>
  <rect x="9" y="7" width="1" height="1" fill="#3bb3e16e"/>
  <rect x="10" y="7" width="1" height="1" fill="#3bb3e1f7"/>
  <rect x="12" y="7" width="1" height="1" fill="#3bb3e146"/>
  <rect x="4" y="8" width="1" height="1" fill="#3cb2e1ab"/>
  <rect x="5" y="8" width="1" height="2" fill="#3cb2e1"/>
  <rect x="6" y="8" width="4" height="2" fill="#3bb3e1"/>
  <rect x="10" y="8" width="1" height="1" fill="#39b3e1"/>
  <rect x="11" y="8" width="1" height="1" fill="#39b3e19f"/>
  <rect x="3" y="9" width="1" height="1" fill="#3bb3e196"/>
  <rect x="4" y="9" width="1" height="1" fill="#3cb2e1fd"/>
  <rect x="10" y="9" width="1" height="1" fill="#39b3e1f9"/>
  <rect x="11" y="9" width="1" height="1" fill="#39b3e141"/>
  <rect x="1" y="10" width="1" height="1" fill="#3bb3e10a"/>
  <rect x="2" y="10" width="1" height="1" fill="#3bb3e1c1"/>
  <rect x="3" y="10" width="1" height="1" fill="#3bb3e1"/>
  <rect x="4" y="10" width="1" height="1" fill="#3cb2e1fb"/>
  <rect x="5" y="10" width="1" height="1" fill="#3cb2e19a"/>
  <rect x="6" y="10" width="1" height="1" fill="#3bb3e140"/>
  <rect x="7" y="10" width="1" height="1" fill="#3bb3e118"/>
  <rect x="8" y="10" width="1" height="1" fill="#3bb3e119"/>
  <rect x="9" y="10" width="1" height="1" fill="#3bb3e141"/>
  <rect x="10" y="10" width="1" height="1" fill="#39b3e14e"/>
  <rect x="12" y="10" width="2" height="2" fill="#39b3e1"/>
  <rect x="1" y="11" width="1" height="1" fill="#3bb3e198"/>
  <rect x="2" y="11" width="1" height="1" fill="#3bb3e1"/>
  <rect x="3" y="11" width="1" height="1" fill="#3bb3e1ea"/>
  <rect x="4" y="11" width="1" height="1" fill="#3cb2e135"/>
  <rect x="0" y="12" width="1" height="1" fill="#3cb2e130"/>
  <rect x="1" y="12" width="1" height="1" fill="#3cb2e1fe"/>
  <rect x="2" y="12" width="1" height="1" fill="#3cb2e1fc"/>
  <rect x="3" y="12" width="1" height="1" fill="#3cb2e13c"/>
  <rect x="10" y="12" width="6" height="2" fill="#39b3e1"/>
  <rect x="0" y="13" width="1" height="1" fill="#3cb2e196"/>
  <rect x="1" y="13" width="1" height="3" fill="#3cb2e1"/>
  <rect x="2" y="13" width="1" height="1" fill="#3cb2e1a2"/>
  <rect x="0" y="14" width="1" height="1" fill="#3cb2e1da"/>
  <rect x="2" y="14" width="1" height="1" fill="#3cb2e146"/>
  <rect x="12" y="14" width="2" height="2" fill="#39b3e1"/>
  <rect x="0" y="15" width="1" height="1" fill="#3cb2e1f8"/>
  <rect x="2" y="15" width="1" height="1" fill="#3cb2e110"/>
</svg>