<svg xmlns="http://www.w3.org/2000/svg" width="264" height="88" viewBox="0 0 264 88" shape-rendering="crispEdges">
  <rect x="95" y="0" width="1" height="1" fill="#fefff80b"/>
  <rect x="96" y="0" width="1" height="1" fill="#fffff70d"/>
  <rect x="97" y="0" width="1" height="1" fill="#fffff70e"/>
  <rect x="98" y="0" width="4" height="1" fill="#fffff70f"/>
  <rect x="102" y="0" width="4" height="1" fill="#fffff50f"/>
  <rect x="106" y="0" width="2" height="1" fill="#fffff30f"/>
  <rect x="108" y="0" width="8" height="1" fill="#fffff50f"/>
  <rect x="116" y="0" width="50" height="1" fill="#fffff70f"/>
  <rect x="166" y="0" width="1" height="1" fill="#fffff70e"/>
  <rect x="167" y="0" width="1" height="1" fill="#fffff70d"/>
  <rect x="168" y="0" width="1" height="1" fill="#fffff90b"/>
  <rect x="183" y="0" width="1" height="1" fill="#fffff90b"/>
  <rect x="184" y="0" width="1" height="1" fill="#fffff70d"/>
  <rect x="185" y="0" width="1" height="1" fill="#fffff70e"/>
  <rect x="186" y="0" width="66" height="1" fill="#fffff70f"/>
  <rect x="252" y="0" width="2" height="1" fill="#fffff90f"/>
  <rect x="254" y="0" width="1" height="1" fill="#fffff90e"/>
  <rect x="255" y="0" width="1" height="1" fill="#fffff90d"/>
  <rect x="256" y="0" width="1" height="1" fill="#fffffb0b"/>
  <rect x="92" y="1" width="1" height="1" fill="#fefff80d"/>
  <rect x="93" y="1" width="1" height="1" fill="#fefff815"/>
  <rect x="94" y="1" width="1" height="1" fill="#fefff81c"/>
  <rect x="95" y="1" width="1" height="1" fill="#fefff823"/>
  <rect x="96" y="1" width="1" height="1" fill="#fffff928"/>
  <rect x="97" y="1" width="1" height="1" fill="#fffff92b"/>
  <rect x="98" y="1" width="1" height="1" fill="#fffff92d"/>
  <rect x="99" y="1" width="2" height="1" fill="#fffff92e"/>
  <rect x="101" y="1" width="4" height="1" fill="#fffff72e"/>
  <rect x="105" y="1" width="4" height="1" fill="#fffff52e"/>
  <rect x="109" y="1" width="8" height="1" fill="#fffff72e"/>
  <rect x="117" y="1" width="48" height="1" fill="#fffff92e"/>
  <rect x="165" y="1" width="1" height="1" fill="#fffff92d"/>
  <rect x="166" y="1" width="1" height="1" fill="#fffff92b"/>
  <rect x="167" y="1" width="1" height="1" fill="#fffff928"/>
  <rect x="168" y="1" width="1" height="1" fill="#fffff923"/>
  <rect x="169" y="1" width="1" height="1" fill="#fffff91c"/>
  <rect x="170" y="1" width="1" height="1" fill="#fffff915"/>
  <rect x="171" y="1" width="1" height="1" fill="#fffff90d"/>
  <rect x="180" y="1" width="1" height="1" fill="#fffff90d"/>
  <rect x="181" y="1" width="1" height="1" fill="#fffff915"/>
  <rect x="182" y="1" width="1" height="1" fill="#fffff91c"/>
  <rect x="183" y="1" width="1" height="1" fill="#fffff923"/>
  <rect x="184" y="1" width="1" height="1" fill="#fffff928"/>
  <rect x="185" y="1" width="1" height="1" fill="#fffff92b"/>
  <rect x="186" y="1" width="1" height="1" fill="#fffff92d"/>
  <rect x="187" y="1" width="66" height="1" fill="#fffff92e"/>
  <rect x="253" y="1" width="1" height="1" fill="#fffff92d"/>
  <rect x="254" y="1" width="1" height="1" fill="#fffff92b"/>
  <rect x="255" y="1" width="1" height="1" fill="#fffffb28"/>
  <rect x="256" y="1" width="1" height="1" fill="#fffffb23"/>
  <rect x="257" y="1" width="1" height="1" fill="#fffffb1c"/>
  <rect x="258" y="1" width="1" height="1" fill="#fffffb15"/>
  <rect x="259" y="1" width="1" height="1" fill="#fffffb0d"/>
  <rect x="91" y="2" width="1" height="1" fill="#fefff812"/>
  <rect x="92" y="2" width="1" height="1" fill="#fefff81f"/>
  <rect x="93" y="2" width="1" height="1" fill="#fefff82e"/>
  <rect x="94" y="2" width="1" height="1" fill="#fefff83d"/>
  <rect x="95" y="2" width="1" height="1" fill="#fefff84a"/>
  <rect x="96" y="2" width="1" height="1" fill="#fffff953"/>
  <rect x="97" y="2" width="1" height="1" fill="#fffffb58"/>
  <rect x="98" y="2" width="3" height="1" fill="#fffffb5b"/>
  <rect x="101" y="2" width="4" height="1" fill="#fffff95b"/>
  <rect x="105" y="2" width="4" height="1" fill="#fffff75b"/>
  <rect x="109" y="2" width="8" height="1" fill="#fffff95b"/>
  <rect x="117" y="2" width="49" height="1" fill="#fffffb5b"/>
  <rect x="166" y="2" width="1" height="1" fill="#fffffb58"/>
  <rect x="167" y="2" width="1" height="1" fill="#fffff953"/>
  <rect x="168" y="2" width="1" height="1" fill="#fffff94a"/>
  <rect x="169" y="2" width="1" height="1" fill="#fffff93d"/>
  <rect x="170" y="2" width="1" height="1" fill="#fffff92e"/>
  <rect x="171" y="2" width="1" height="1" fill="#fffff91f"/>
  <rect x="172" y="2" width="1" height="1" fill="#fffff912"/>
  <rect x="179" y="2" width="1" height="1" fill="#fffff912"/>
  <rect x="180" y="2" width="1" height="1" fill="#fffff91f"/>
  <rect x="181" y="2" width="1" height="1" fill="#fffff92e"/>
  <rect x="182" y="2" width="1" height="1" fill="#fffff93d"/>
  <rect x="183" y="2" width="1" height="1" fill="#fffff94a"/>
  <rect x="184" y="2" width="1" height="1" fill="#fffff953"/>
  <rect x="185" y="2" width="1" height="1" fill="#fffffb58"/>
  <rect x="186" y="2" width="68" height="1" fill="#fffffb5b"/>
  <rect x="254" y="2" width="1" height="1" fill="#fffffb58"/>
  <rect x="255" y="2" width="1" height="1" fill="#fffffb53"/>
  <rect x="256" y="2" width="1" height="1" fill="#fffffd4a"/>
  <rect x="257" y="2" width="1" height="1" fill="#fffffd3d"/>
  <rect x="258" y="2" width="1" height="1" fill="#fffffd2e"/>
  <rect x="259" y="2" width="1" height="1" fill="#fffffd1f"/>
  <rect x="90" y="3" width="1" height="1" fill="#fefff812"/>
  <rect x="91" y="3" width="1" height="1" fill="#fefff823"/>
  <rect x="92" y="3" width="1" height="1" fill="#fefff83a"/>
  <rect x="93" y="3" width="1" height="1" fill="#fefff854"/>
  <rect x="94" y="3" width="1" height="1" fill="#fefff86b"/>
  <rect x="95" y="3" width="1" height="1" fill="#fefffa7f"/>
  <rect x="96" y="3" width="1" height="1" fill="#fffffb8d"/>
  <rect x="97" y="3" width="1" height="1" fill="#fffffb94"/>
  <rect x="98" y="3" width="1" height="1" fill="#fffffb97"/>
  <rect x="99" y="3" width="6" height="1" fill="#fffffb98"/>
  <rect x="105" y="3" width="4" height="1" fill="#fffff998"/>
  <rect x="109" y="3" width="8" height="1" fill="#fffffb98"/>
  <rect x="117" y="3" width="48" height="1" fill="#fffffd98"/>
  <rect x="165" y="3" width="1" height="1" fill="#fffffd97"/>
  <rect x="166" y="3" width="1" height="1" fill="#fffffd94"/>
  <rect x="167" y="3" width="1" height="1" fill="#fffffb8d"/>
  <rect x="168" y="3" width="1" height="1" fill="#fffff97f"/>
  <rect x="169" y="3" width="1" height="1" fill="#fffff96c"/>
  <rect x="170" y="3" width="1" height="1" fill="#fffff954"/>
  <rect x="171" y="3" width="1" height="1" fill="#fffff93a"/>
  <rect x="172" y="3" width="1" height="1" fill="#fffff923"/>
  <rect x="173" y="3" width="1" height="1" fill="#fffff912"/>
  <rect x="178" y="3" width="1" height="1" fill="#fffff912"/>
  <rect x="179" y="3" width="1" height="1" fill="#fffff923"/>
  <rect x="180" y="3" width="1" height="1" fill="#fffff93a"/>
  <rect x="181" y="3" width="1" height="1" fill="#fffff954"/>
  <rect x="182" y="3" width="1" height="1" fill="#fffff96b"/>
  <rect x="183" y="3" width="1" height="1" fill="#fffff97f"/>
  <rect x="184" y="3" width="1" height="1" fill="#fffffb8d"/>
  <rect x="185" y="3" width="1" height="1" fill="#fffffd94"/>
  <rect x="186" y="3" width="1" height="1" fill="#fffffd97"/>
  <rect x="187" y="3" width="66" height="1" fill="#fffffd98"/>
  <rect x="253" y="3" width="1" height="1" fill="#fffffd97"/>
  <rect x="254" y="3" width="1" height="1" fill="#fffffd94"/>
  <rect x="255" y="3" width="1" height="1" fill="#fffffd8d"/>
  <rect x="256" y="3" width="1" height="1" fill="#fffffd7f"/>
  <rect x="257" y="3" width="1" height="1" fill="#fffffd6c"/>
  <rect x="258" y="3" width="1" height="1" fill="#fffffd54"/>
  <rect x="259" y="3" width="1" height="1" fill="#fffffd3a"/>
  <rect x="5" y="4" width="1" height="1" fill="#e2e2e22b"/>
  <rect x="6" y="4" width="1" height="1" fill="#fcfbfcb3"/>
  <rect x="7" y="4" width="1" height="1" fill="#fffffff2"/>
  <rect x="8" y="4" width="72" height="2" fill="#ffffff"/>
  <rect x="80" y="4" width="1" height="1" fill="#fcfbfcf2"/>
  <rect x="81" y="4" width="1" height="1" fill="#f6f6f6b3"/>
  <rect x="82" y="4" width="1" height="1" fill="#dbdbdb2b"/>
  <rect x="89" y="4" width="1" height="1" fill="#fefffa0d"/>
  <rect x="90" y="4" width="1" height="1" fill="#fefff81f"/>
  <rect x="91" y="4" width="1" height="1" fill="#fefff83a"/>
  <rect x="92" y="4" width="1" height="1" fill="#fefffa5e"/>
  <rect x="93" y="4" width="1" height="1" fill="#fefffa97"/>
  <rect x="94" y="4" width="1" height="1" fill="#fefffae3"/>
  <rect x="95" y="4" width="1" height="1" fill="#fefffafb"/>
  <rect x="96" y="4" width="9" height="1" fill="#fffffd"/>
  <rect x="105" y="4" width="4" height="1" fill="#fffffb"/>
  <rect x="109" y="4" width="8" height="1" fill="#fffffd"/>
  <rect x="117" y="4" width="50" height="1" fill="#ffffff"/>
  <rect x="167" y="4" width="1" height="2" fill="#fffffd"/>
  <rect x="168" y="4" width="1" height="1" fill="#fffffbfb"/>
  <rect x="169" y="4" width="1" height="1" fill="#fffff9e3"/>
  <rect x="170" y="4" width="1" height="1" fill="#fffff997"/>
  <rect x="171" y="4" width="1" height="1" fill="#fffff95e"/>
  <rect x="172" y="4" width="1" height="1" fill="#fffff93a"/>
  <rect x="173" y="4" width="1" height="1" fill="#fffff91f"/>
  <rect x="174" y="4" width="1" height="1" fill="#fffff90d"/>
  <rect x="177" y="4" width="1" height="1" fill="#fffff90d"/>
  <rect x="178" y="4" width="1" height="1" fill="#fffff91f"/>
  <rect x="179" y="4" width="1" height="1" fill="#fffff93a"/>
  <rect x="180" y="4" width="1" height="1" fill="#fffff95e"/>
  <rect x="181" y="4" width="1" height="1" fill="#fffff997"/>
  <rect x="182" y="4" width="1" height="1" fill="#fffff9e3"/>
  <rect x="183" y="4" width="1" height="1" fill="#fffffbfb"/>
  <rect x="184" y="4" width="1" height="2" fill="#fffffd"/>
  <rect x="185" y="4" width="70" height="1" fill="#ffffff"/>
  <rect x="255" y="4" width="1" height="1" fill="#fffffd"/>
  <rect x="256" y="4" width="1" height="1" fill="#fffffdfb"/>
  <rect x="257" y="4" width="1" height="1" fill="#fffffde3"/>
  <rect x="258" y="4" width="1" height="1" fill="#fffffd97"/>
  <rect x="259" y="4" width="1" height="1" fill="#fffffd5e"/>
  <rect x="4" y="5" width="1" height="1" fill="#cecece30"/>
  <rect x="5" y="5" width="1" height="1" fill="#fdfdfdf1"/>
  <rect x="6" y="5" width="1" height="1" fill="#f8f8f8"/>
  <rect x="7" y="5" width="1" height="1" fill="#fcfbfc"/>
  <rect x="80" y="5" width="2" height="1" fill="#fcfbfc"/>
  <rect x="82" y="5" width="1" height="1" fill="#fffffff1"/>
  <rect x="83" y="5" width="1" height="1" fill="#d3d3d330"/>
  <rect x="89" y="5" width="1" height="1" fill="#fefffa15"/>
  <rect x="90" y="5" width="1" height="1" fill="#fefff82e"/>
  <rect x="91" y="5" width="1" height="1" fill="#fefff854"/>
  <rect x="92" y="5" width="1" height="1" fill="#fefffa98"/>
  <rect x="93" y="5" width="1" height="1" fill="#fefffafa"/>
  <rect x="94" y="5" width="2" height="1" fill="#fefffa"/>
  <rect x="96" y="5" width="1" height="1" fill="#fffffd"/>
  <rect x="97" y="5" width="6" height="1" fill="#ffffff"/>
  <rect x="103" y="5" width="6" height="1" fill="#fffffd"/>
  <rect x="109" y="5" width="2" height="1" fill="#ffffff"/>
  <rect x="111" y="5" width="4" height="1" fill="#fffffd"/>
  <rect x="115" y="5" width="52" height="1" fill="#ffffff"/>
  <rect x="168" y="5" width="1" height="2" fill="#fffffb"/>
  <rect x="169" y="5" width="1" height="1" fill="#fffff9"/>
  <rect x="170" y="5" width="1" height="1" fill="#fffff9fa"/>
  <rect x="171" y="5" width="1" height="1" fill="#fffff998"/>
  <rect x="172" y="5" width="1" height="1" fill="#fffff954"/>
  <rect x="173" y="5" width="1" height="1" fill="#fffff92e"/>
  <rect x="174" y="5" width="1" height="1" fill="#fffff915"/>
  <rect x="177" y="5" width="1" height="1" fill="#fffff915"/>
  <rect x="178" y="5" width="1" height="1" fill="#fffff92e"/>
  <rect x="179" y="5" width="1" height="1" fill="#fffff954"/>
  <rect x="180" y="5" width="1" height="1" fill="#fffff998"/>
  <rect x="181" y="5" width="1" height="1" fill="#fffff9fa"/>
  <rect x="182" y="5" width="1" height="1" fill="#fffff9"/>
  <rect x="183" y="5" width="1" height="2" fill="#fffffb"/>
  <rect x="185" y="5" width="72" height="1" fill="#ffffff"/>
  <rect x="257" y="5" width="1" height="1" fill="#fffffd"/>
  <rect x="258" y="5" width="1" height="1" fill="#fffffdfa"/>
  <rect x="259" y="5" width="1" height="1" fill="#fffffd98"/>
  <rect x="4" y="6" width="1" height="1" fill="#eeeeeeb9"/>
  <rect x="5" y="6" width="75" height="1" fill="#ffffff"/>
  <rect x="80" y="6" width="1" height="1" fill="#fdfdfd"/>
  <rect x="81" y="6" width="1" height="1" fill="#ffffff"/>
  <rect x="82" y="6" width="1" height="1" fill="#fafafa"/>
  <rect x="83" y="6" width="1" height="1" fill="#ecececb9"/>
  <rect x="89" y="6" width="1" height="1" fill="#fefffa1c"/>
  <rect x="90" y="6" width="1" height="1" fill="#fefff83d"/>
  <rect x="91" y="6" width="1" height="1" fill="#fefff86c"/>
  <rect x="92" y="6" width="1" height="1" fill="#fefff8e3"/>
  <rect x="93" y="6" width="2" height="2" fill="#fefff8"/>
  <rect x="95" y="6" width="1" height="1" fill="#fefffa"/>
  <rect x="96" y="6" width="49" height="1" fill="#ffffff"/>
  <rect x="145" y="6" width="14" height="1" fill="#fffeff"/>
  <rect x="159" y="6" width="9" height="1" fill="#ffffff"/>
  <rect x="169" y="6" width="2" height="1" fill="#fffff9"/>
  <rect x="171" y="6" width="1" height="1" fill="#fffff9e3"/>
  <rect x="172" y="6" width="1" height="1" fill="#fffff96c"/>
  <rect x="173" y="6" width="1" height="1" fill="#fffff93d"/>
  <rect x="174" y="6" width="1" height="1" fill="#fffff91c"/>
  <rect x="177" y="6" width="1" height="1" fill="#fffff91c"/>
  <rect x="178" y="6" width="1" height="1" fill="#fffff93d"/>
  <rect x="179" y="6" width="1" height="1" fill="#fffff96c"/>
  <rect x="180" y="6" width="1" height="1" fill="#fffff9e3"/>
  <rect x="181" y="6" width="2" height="1" fill="#fffff9"/>
  <rect x="184" y="6" width="9" height="1" fill="#ffffff"/>
  <rect x="193" y="6" width="58" height="1" fill="#fffeff"/>
  <rect x="251" y="6" width="8" height="1" fill="#ffffff"/>
  <rect x="259" y="6" width="1" height="1" fill="#ffffffe3"/>
  <rect x="3" y="7" width="1" height="1" fill="#00000012"/>
  <rect x="4" y="7" width="1" height="1" fill="#efefeff5"/>
  <rect x="5" y="7" width="1" height="1" fill="#ffffff"/>
  <rect x="6" y="7" width="1" height="1" fill="#fdfdfd"/>
  <rect x="7" y="7" width="1" height="1" fill="#ffffff3c"/>
  <rect x="80" y="7" width="1" height="1" fill="#ffffff3c"/>
  <rect x="81" y="7" width="2" height="1" fill="#ffffff"/>
  <rect x="83" y="7" width="1" height="1" fill="#fcfbfcf6"/>
  <rect x="84" y="7" width="1" height="1" fill="#00000012"/>
  <rect x="88" y="7" width="1" height="1" fill="#fefffa0b"/>
  <rect x="89" y="7" width="1" height="1" fill="#fefffa23"/>
  <rect x="90" y="7" width="1" height="1" fill="#fefff84a"/>
  <rect x="91" y="7" width="1" height="1" fill="#fefff87f"/>
  <rect x="92" y="7" width="1" height="1" fill="#fefff8fb"/>
  <rect x="95" y="7" width="1" height="1" fill="#fefffa3c"/>
  <rect x="168" y="7" width="1" height="1" fill="#fffffd3c"/>
  <rect x="169" y="7" width="2" height="1" fill="#fffffb"/>
  <rect x="171" y="7" width="1" height="1" fill="#fffffbfc"/>
  <rect x="172" y="7" width="1" height="1" fill="#fffff97f"/>
  <rect x="173" y="7" width="1" height="1" fill="#fffff94a"/>
  <rect x="174" y="7" width="1" height="1" fill="#fffff923"/>
  <rect x="175" y="7" width="2" height="1" fill="#fffff90b"/>
  <rect x="177" y="7" width="1" height="1" fill="#fffff923"/>
  <rect x="178" y="7" width="1" height="1" fill="#fffff94a"/>
  <rect x="179" y="7" width="1" height="1" fill="#fffff97f"/>
  <rect x="180" y="7" width="1" height="1" fill="#fffffbfb"/>
  <rect x="181" y="7" width="2" height="1" fill="#fffffb"/>
  <rect x="183" y="7" width="1" height="1" fill="#fffffd3c"/>
  <rect x="256" y="7" width="1" height="1" fill="#ffffff3c"/>
  <rect x="257" y="7" width="2" height="1" fill="#ffffff"/>
  <rect x="259" y="7" width="1" height="1" fill="#fffffffc"/>
  <rect x="3" y="8" width="1" height="1" fill="#0000001a"/>
  <rect x="4" y="8" width="1" height="72" fill="#ffffff"/>
  <rect x="5" y="8" width="1" height="72" fill="#fefefe"/>
  <rect x="6" y="8" width="1" height="72" fill="#ffffff"/>
  <rect x="81" y="8" width="1" height="1" fill="#ffffff"/>
  <rect x="82" y="8" width="1" height="1" fill="#fdfdfd"/>
  <rect x="83" y="8" width="1" height="72" fill="#ffffff"/>
  <rect x="84" y="8" width="1" height="1" fill="#0303031a"/>
  <rect x="88" y="8" width="1" height="1" fill="#fefffa0d"/>
  <rect x="89" y="8" width="1" height="1" fill="#fefffa28"/>
  <rect x="90" y="8" width="1" height="1" fill="#fefff853"/>
  <rect x="91" y="8" width="1" height="1" fill="#fefff88d"/>
  <rect x="92" y="8" width="3" height="6" fill="#fefffa"/>
  <rect x="169" y="8" width="1" height="1" fill="#ffffff"/>
  <rect x="170" y="8" width="2" height="1" fill="#fffffd"/>
  <rect x="172" y="8" width="1" height="1" fill="#fffffb8d"/>
  <rect x="173" y="8" width="1" height="1" fill="#fffff953"/>
  <rect x="174" y="8" width="1" height="1" fill="#fffff928"/>
  <rect x="175" y="8" width="2" height="1" fill="#fffff70d"/>
  <rect x="177" y="8" width="1" height="1" fill="#fffff928"/>
  <rect x="178" y="8" width="1" height="1" fill="#fffff953"/>
  <rect x="179" y="8" width="1" height="1" fill="#fffffb8d"/>
  <rect x="180" y="8" width="2" height="1" fill="#fffffd"/>
  <rect x="182" y="8" width="1" height="1" fill="#ffffff"/>
  <rect x="257" y="8" width="3" height="8" fill="#fffffd"/>
  <rect x="3" y="9" width="1" height="1" fill="#0000001c"/>
  <rect x="81" y="9" width="2" height="7" fill="#fdfdfd"/>
  <rect x="84" y="9" width="1" height="1" fill="#0303031c"/>
  <rect x="88" y="9" width="1" height="1" fill="#fefffa0e"/>
  <rect x="89" y="9" width="1" height="1" fill="#fefffa2b"/>
  <rect x="90" y="9" width="1" height="1" fill="#fefff858"/>
  <rect x="91" y="9" width="1" height="1" fill="#fefff894"/>
  <rect x="169" y="9" width="3" height="6" fill="#ffffff"/>
  <rect x="172" y="9" width="1" height="1" fill="#fffffd94"/>
  <rect x="173" y="9" width="1" height="1" fill="#fffffb58"/>
  <rect x="174" y="9" width="1" height="1" fill="#fffff92b"/>
  <rect x="175" y="9" width="2" height="1" fill="#fffff70e"/>
  <rect x="177" y="9" width="1" height="1" fill="#fffff92b"/>
  <rect x="178" y="9" width="1" height="1" fill="#fffffb58"/>
  <rect x="179" y="9" width="1" height="1" fill="#fffffd94"/>
  <rect x="180" y="9" width="3" height="8" fill="#ffffff"/>
  <rect x="3" y="10" width="1" height="70" fill="#0000001d"/>
  <rect x="84" y="10" width="1" height="6" fill="#0303031d"/>
  <rect x="88" y="10" width="1" height="4" fill="#fefffa0f"/>
  <rect x="89" y="10" width="1" height="1" fill="#fefffa2d"/>
  <rect x="90" y="10" width="1" height="2" fill="#fefff85b"/>
  <rect x="91" y="10" width="1" height="1" fill="#fefff897"/>
  <rect x="172" y="10" width="1" height="1" fill="#fffffd97"/>
  <rect x="173" y="10" width="1" height="5" fill="#fffffb5b"/>
  <rect x="174" y="10" width="1" height="1" fill="#fffff92d"/>
  <rect x="175" y="10" width="2" height="6" fill="#fffff70f"/>
  <rect x="177" y="10" width="1" height="1" fill="#fffff92d"/>
  <rect x="178" y="10" width="1" height="68" fill="#fffffb5b"/>
  <rect x="179" y="10" width="1" height="1" fill="#fffffd97"/>
  <rect x="89" y="11" width="1" height="3" fill="#fefffa2e"/>
  <rect x="91" y="11" width="1" height="1" fill="#fefff898"/>
  <rect x="172" y="11" width="1" height="4" fill="#fffffd98"/>
  <rect x="174" y="11" width="1" height="4" fill="#fffff92e"/>
  <rect x="177" y="11" width="1" height="66" fill="#fffff92e"/>
  <rect x="179" y="11" width="1" height="64" fill="#fffffd98"/>
  <rect x="90" y="12" width="1" height="2" fill="#fefffa5b"/>
  <rect x="91" y="12" width="1" height="2" fill="#fefffa98"/>
  <rect x="88" y="14" width="1" height="2" fill="#fffffb0f"/>
  <rect x="89" y="14" width="1" height="2" fill="#fffffb2e"/>
  <rect x="90" y="14" width="1" height="4" fill="#fffffb5b"/>
  <rect x="91" y="14" width="1" height="4" fill="#fffffb98"/>
  <rect x="92" y="14" width="3" height="2" fill="#fffffb"/>
  <rect x="169" y="15" width="2" height="2" fill="#ffffff"/>
  <rect x="171" y="15" width="1" height="2" fill="#fffffd"/>
  <rect x="172" y="15" width="1" height="60" fill="#fffffb98"/>
  <rect x="173" y="15" width="1" height="63" fill="#fffff95b"/>
  <rect x="174" y="15" width="1" height="62" fill="#fffff72e"/>
  <rect x="81" y="16" width="2" height="64" fill="#fdfdfb"/>
  <rect x="84" y="16" width="1" height="62" fill="#0304011d"/>
  <rect x="88" y="16" width="1" height="2" fill="#fffffd0f"/>
  <rect x="89" y="16" width="1" height="2" fill="#fffffd2e"/>
  <rect x="92" y="16" width="3" height="2" fill="#fffffd"/>
  <rect x="175" y="16" width="1" height="60" fill="#fffff50f"/>
  <rect x="176" y="16" width="1" height="60" fill="#fffff70f"/>
  <rect x="257" y="16" width="3" height="64" fill="#ffffff"/>
  <rect x="169" y="17" width="1" height="16" fill="#ffffff"/>
  <rect x="170" y="17" width="2" height="16" fill="#fffffd"/>
  <rect x="180" y="17" width="2" height="58" fill="#ffffff"/>
  <rect x="182" y="17" width="1" height="58" fill="#fffeff"/>
  <rect x="88" y="18" width="1" height="14" fill="#fffffe0f"/>
  <rect x="89" y="18" width="1" height="14" fill="#fffffe2e"/>
  <rect x="90" y="18" width="1" height="2" fill="#fffffc5b"/>
  <rect x="91" y="18" width="1" height="2" fill="#fffffc98"/>
  <rect x="92" y="18" width="3" height="14" fill="#fffffe"/>
  <rect x="90" y="20" width="1" height="12" fill="#fffffe5b"/>
  <rect x="91" y="20" width="1" height="12" fill="#fffffe98"/>
  <rect x="88" y="32" width="1" height="46" fill="#fffffd0f"/>
  <rect x="89" y="32" width="1" height="45" fill="#fffffd2e"/>
  <rect x="90" y="32" width="1" height="44" fill="#fffffd5b"/>
  <rect x="91" y="32" width="1" height="44" fill="#fffffd98"/>
  <rect x="92" y="32" width="3" height="44" fill="#fffffd"/>
  <rect x="169" y="33" width="2" height="40" fill="#ffffff"/>
  <rect x="171" y="33" width="1" height="40" fill="#fffffd"/>
  <rect x="169" y="73" width="1" height="4" fill="#ffffff"/>
  <rect x="170" y="73" width="2" height="2" fill="#fffffd"/>
  <rect x="170" y="75" width="1" height="2" fill="#fffffd"/>
  <rect x="171" y="75" width="1" height="2" fill="#fffffb"/>
  <rect x="172" y="75" width="1" height="2" fill="#fffff998"/>
  <rect x="179" y="75" width="1" height="2" fill="#fffffb98"/>
  <rect x="180" y="75" width="1" height="4" fill="#fffffd"/>
  <rect x="181" y="75" width="2" height="4" fill="#ffffff"/>
  <rect x="90" y="76" width="1" height="2" fill="#fffffb5b"/>
  <rect x="91" y="76" width="1" height="1" fill="#fffffb98"/>
  <rect x="92" y="76" width="3" height="4" fill="#fffffb"/>
  <rect x="175" y="76" width="2" height="2" fill="#fffff70f"/>
  <rect x="89" y="77" width="1" height="1" fill="#fffffd2d"/>
  <rect x="91" y="77" width="1" height="1" fill="#fffffb97"/>
  <rect x="169" y="77" width="1" height="4" fill="#fffffd"/>
  <rect x="170" y="77" width="2" height="3" fill="#fffffb"/>
  <rect x="172" y="77" width="1" height="1" fill="#fffff997"/>
  <rect x="174" y="77" width="1" height="1" fill="#fffff72d"/>
  <rect x="177" y="77" width="1" height="1" fill="#fffff92d"/>
  <rect x="179" y="77" width="1" height="1" fill="#fffffb97"/>
  <rect x="84" y="78" width="1" height="2" fill="#0203001d"/>
  <rect x="88" y="78" width="1" height="1" fill="#fffffd0e"/>
  <rect x="89" y="78" width="1" height="1" fill="#fffffd2b"/>
  <rect x="90" y="78" width="1" height="1" fill="#fffffb58"/>
  <rect x="91" y="78" width="1" height="1" fill="#fffffb94"/>
  <rect x="172" y="78" width="1" height="1" fill="#fffff994"/>
  <rect x="173" y="78" width="1" height="1" fill="#fffff958"/>
  <rect x="174" y="78" width="1" height="1" fill="#fffff72b"/>
  <rect x="175" y="78" width="2" height="1" fill="#fffff70e"/>
  <rect x="177" y="78" width="1" height="1" fill="#fffff92b"/>
  <rect x="178" y="78" width="1" height="1" fill="#fffffb58"/>
  <rect x="179" y="78" width="1" height="1" fill="#fffffb94"/>
  <rect x="88" y="79" width="1" height="1" fill="#fffffd0d"/>
  <rect x="89" y="79" width="1" height="1" fill="#fffffd28"/>
  <rect x="90" y="79" width="1" height="1" fill="#fffffb53"/>
  <rect x="91" y="79" width="1" height="1" fill="#fffffb8d"/>
  <rect x="172" y="79" width="1" height="1" fill="#fffff98d"/>
  <rect x="173" y="79" width="1" height="1" fill="#fffff953"/>
  <rect x="174" y="79" width="1" height="1" fill="#fffff728"/>
  <rect x="175" y="79" width="2" height="1" fill="#fffff70d"/>
  <rect x="177" y="79" width="1" height="1" fill="#fffff928"/>
  <rect x="178" y="79" width="1" height="1" fill="#fffff953"/>
  <rect x="179" y="79" width="1" height="1" fill="#fffffb8d"/>
  <rect x="180" y="79" width="2" height="1" fill="#fffffd"/>
  <rect x="182" y="79" width="1" height="1" fill="#ffffff"/>
  <rect x="3" y="80" width="1" height="1" fill="#0000001c"/>
  <rect x="4" y="80" width="1" height="1" fill="#f8f8f8f6"/>
  <rect x="5" y="80" width="1" height="1" fill="#ffffff"/>
  <rect x="6" y="80" width="1" height="1" fill="#fcfbfc"/>
  <rect x="7" y="80" width="1" height="1" fill="#ffffff3c"/>
  <rect x="80" y="80" width="1" height="1" fill="#ffffff3c"/>
  <rect x="81" y="80" width="1" height="1" fill="#fafafa"/>
  <rect x="82" y="80" width="1" height="1" fill="#ffffff"/>
  <rect x="83" y="80" width="1" height="1" fill="#fcfbfcf7"/>
  <rect x="84" y="80" width="1" height="1" fill="#0202021c"/>
  <rect x="88" y="80" width="1" height="1" fill="#fffffb0b"/>
  <rect x="89" y="80" width="1" height="1" fill="#fffffb23"/>
  <rect x="90" y="80" width="1" height="1" fill="#fffffd4a"/>
  <rect x="91" y="80" width="1" height="1" fill="#fffffd7f"/>
  <rect x="92" y="80" width="1" height="1" fill="#fffffdfb"/>
  <rect x="93" y="80" width="2" height="1" fill="#fffffd"/>
  <rect x="95" y="80" width="1" height="1" fill="#ffffff3c"/>
  <rect x="168" y="80" width="1" height="1" fill="#ffffff3c"/>
  <rect x="170" y="80" width="1" height="2" fill="#fffffb"/>
  <rect x="171" y="80" width="1" height="1" fill="#fffffbfc"/>
  <rect x="172" y="80" width="1" height="1" fill="#fffff97f"/>
  <rect x="173" y="80" width="1" height="1" fill="#fffff94a"/>
  <rect x="174" y="80" width="1" height="1" fill="#fffff723"/>
  <rect x="175" y="80" width="1" height="1" fill="#fffff70b"/>
  <rect x="176" y="80" width="1" height="1" fill="#fffff90b"/>
  <rect x="177" y="80" width="1" height="1" fill="#fffff923"/>
  <rect x="178" y="80" width="1" height="1" fill="#fffff94a"/>
  <rect x="179" y="80" width="1" height="1" fill="#fffffb7f"/>
  <rect x="180" y="80" width="1" height="1" fill="#fffffbfb"/>
  <rect x="181" y="80" width="2" height="1" fill="#fffffb"/>
  <rect x="183" y="80" width="1" height="1" fill="#fffffd3c"/>
  <rect x="256" y="80" width="1" height="1" fill="#ffffff3c"/>
  <rect x="257" y="80" width="2" height="1" fill="#ffffff"/>
  <rect x="259" y="80" width="1" height="1" fill="#fffffffc"/>
  <rect x="3" y="81" width="1" height="1" fill="#0000001a"/>
  <rect x="4" y="81" width="1" height="1" fill="#e0e0e0c7"/>
  <rect x="5" y="81" width="78" height="1" fill="#ffffff"/>
  <rect x="83" y="81" width="1" height="1" fill="#e4e4e4c7"/>
  <rect x="84" y="81" width="1" height="1" fill="#0202021a"/>
  <rect x="89" y="81" width="1" height="1" fill="#fffffb1c"/>
  <rect x="90" y="81" width="1" height="1" fill="#fffffd3d"/>
  <rect x="91" y="81" width="1" height="1" fill="#fffffd6c"/>
  <rect x="92" y="81" width="1" height="1" fill="#fffffde3"/>
  <rect x="93" y="81" width="1" height="1" fill="#fffffd"/>
  <rect x="94" y="81" width="74" height="1" fill="#ffffff"/>
  <rect x="168" y="81" width="2" height="1" fill="#fffffd"/>
  <rect x="171" y="81" width="1" height="1" fill="#fffffbe3"/>
  <rect x="172" y="81" width="1" height="1" fill="#fffff96c"/>
  <rect x="173" y="81" width="1" height="1" fill="#fffff93d"/>
  <rect x="174" y="81" width="1" height="1" fill="#fffff71c"/>
  <rect x="177" y="81" width="1" height="1" fill="#fffff91c"/>
  <rect x="178" y="81" width="1" height="1" fill="#fffff93d"/>
  <rect x="179" y="81" width="1" height="1" fill="#fffff96c"/>
  <rect x="180" y="81" width="1" height="1" fill="#fffffbe3"/>
  <rect x="181" y="81" width="1" height="1" fill="#fffffb"/>
  <rect x="182" y="81" width="1" height="2" fill="#fffff9"/>
  <rect x="183" y="81" width="1" height="2" fill="#fffffb"/>
  <rect x="184" y="81" width="75" height="1" fill="#ffffff"/>
  <rect x="259" y="81" width="1" height="1" fill="#ffffffe3"/>
  <rect x="3" y="82" width="1" height="1" fill="#00000012"/>
  <rect x="4" y="82" width="1" height="1" fill="#7171715e"/>
  <rect x="5" y="82" width="1" height="1" fill="#f2f2f2f5"/>
  <rect x="6" y="82" width="76" height="1" fill="#ffffff"/>
  <rect x="82" y="82" width="1" height="1" fill="#f2f2f2f5"/>
  <rect x="83" y="82" width="1" height="1" fill="#7474745e"/>
  <rect x="84" y="82" width="1" height="1" fill="#01010112"/>
  <rect x="89" y="82" width="1" height="1" fill="#fffffb15"/>
  <rect x="90" y="82" width="1" height="1" fill="#fffffb2e"/>
  <rect x="91" y="82" width="1" height="1" fill="#fffffb54"/>
  <rect x="92" y="82" width="1" height="1" fill="#fffffd98"/>
  <rect x="93" y="82" width="1" height="1" fill="#fffffdfa"/>
  <rect x="94" y="82" width="5" height="1" fill="#fffffd"/>
  <rect x="99" y="82" width="12" height="1" fill="#ffffff"/>
  <rect x="111" y="82" width="12" height="1" fill="#fffffd"/>
  <rect x="123" y="82" width="20" height="1" fill="#ffffff"/>
  <rect x="143" y="82" width="12" height="1" fill="#fffffd"/>
  <rect x="155" y="82" width="13" height="1" fill="#ffffff"/>
  <rect x="168" y="82" width="1" height="1" fill="#fffffd"/>
  <rect x="169" y="82" width="1" height="1" fill="#fffffb"/>
  <rect x="170" y="82" width="1" height="1" fill="#fffffbfa"/>
  <rect x="171" y="82" width="1" height="1" fill="#fffffb98"/>
  <rect x="172" y="82" width="1" height="1" fill="#fffff954"/>
  <rect x="173" y="82" width="1" height="1" fill="#fffff92e"/>
  <rect x="174" y="82" width="1" height="1" fill="#fffff715"/>
  <rect x="177" y="82" width="1" height="1" fill="#fffff915"/>
  <rect x="178" y="82" width="1" height="1" fill="#fffff92e"/>
  <rect x="179" y="82" width="1" height="1" fill="#fffff954"/>
  <rect x="180" y="82" width="1" height="1" fill="#fffffb98"/>
  <rect x="181" y="82" width="1" height="1" fill="#fffffbfa"/>
  <rect x="184" y="82" width="1" height="2" fill="#fffffd"/>
  <rect x="185" y="82" width="54" height="1" fill="#ffffff"/>
  <rect x="239" y="82" width="13" height="1" fill="#fffffd"/>
  <rect x="252" y="82" width="4" height="1" fill="#ffffff"/>
  <rect x="256" y="82" width="2" height="1" fill="#fffffd"/>
  <rect x="258" y="82" width="1" height="1" fill="#fffffdfa"/>
  <rect x="259" y="82" width="1" height="1" fill="#fffffd98"/>
  <rect x="4" y="83" width="1" height="1" fill="#00000024"/>
  <rect x="5" y="83" width="1" height="1" fill="#6c6c6c68"/>
  <rect x="6" y="83" width="1" height="1" fill="#dadadace"/>
  <rect x="7" y="83" width="1" height="1" fill="#f7f7f7f8"/>
  <rect x="8" y="83" width="72" height="1" fill="#fcfbfc"/>
  <rect x="80" y="83" width="1" height="1" fill="#f7f7f7f8"/>
  <rect x="81" y="83" width="1" height="1" fill="#d7d7d7ce"/>
  <rect x="82" y="83" width="1" height="1" fill="#6c6c6c68"/>
  <rect x="83" y="83" width="1" height="1" fill="#01010124"/>
  <rect x="89" y="83" width="1" height="1" fill="#fffffb0d"/>
  <rect x="90" y="83" width="1" height="1" fill="#fffffb1f"/>
  <rect x="91" y="83" width="1" height="1" fill="#fffffb3a"/>
  <rect x="92" y="83" width="1" height="1" fill="#fffffb5e"/>
  <rect x="93" y="83" width="1" height="1" fill="#fffffd98"/>
  <rect x="94" y="83" width="1" height="1" fill="#fffffde3"/>
  <rect x="95" y="83" width="1" height="1" fill="#fffffdfc"/>
  <rect x="96" y="83" width="5" height="1" fill="#fffffd"/>
  <rect x="101" y="83" width="6" height="1" fill="#ffffff"/>
  <rect x="107" y="83" width="18" height="1" fill="#fffffd"/>
  <rect x="125" y="83" width="14" height="1" fill="#ffffff"/>
  <rect x="139" y="83" width="18" height="1" fill="#fffffd"/>
  <rect x="157" y="83" width="10" height="1" fill="#ffffff"/>
  <rect x="167" y="83" width="1" height="1" fill="#fffffd"/>
  <rect x="168" y="83" width="1" height="1" fill="#fffffbfc"/>
  <rect x="169" y="83" width="1" height="1" fill="#fffffbe3"/>
  <rect x="170" y="83" width="1" height="1" fill="#fffffb98"/>
  <rect x="171" y="83" width="1" height="1" fill="#fffffb5e"/>
  <rect x="172" y="83" width="1" height="1" fill="#fffff93a"/>
  <rect x="173" y="83" width="1" height="1" fill="#fffff91f"/>
  <rect x="174" y="83" width="1" height="1" fill="#fffff70d"/>
  <rect x="177" y="83" width="1" height="1" fill="#fffff90d"/>
  <rect x="178" y="83" width="1" height="1" fill="#fffff91f"/>
  <rect x="179" y="83" width="1" height="1" fill="#fffff93a"/>
  <rect x="180" y="83" width="1" height="1" fill="#fffffb5e"/>
  <rect x="181" y="83" width="1" height="1" fill="#fffffb98"/>
  <rect x="182" y="83" width="1" height="1" fill="#fffff9e3"/>
  <rect x="183" y="83" width="1" height="1" fill="#fffffbfc"/>
  <rect x="185" y="83" width="50" height="1" fill="#ffffff"/>
  <rect x="235" y="83" width="18" height="1" fill="#fffffd"/>
  <rect x="253" y="83" width="2" height="1" fill="#ffffff"/>
  <rect x="255" y="83" width="1" height="1" fill="#fffffd"/>
  <rect x="256" y="83" width="1" height="1" fill="#fffffdfc"/>
  <rect x="257" y="83" width="1" height="1" fill="#fffffde3"/>
  <rect x="258" y="83" width="1" height="1" fill="#fffffd98"/>
  <rect x="259" y="83" width="1" height="1" fill="#fffffd5e"/>
  <rect x="4" y="84" width="1" height="1" fill="#0000000b"/>
  <rect x="5" y="84" width="1" height="1" fill="#00000024"/>
  <rect x="6" y="84" width="1" height="1" fill="#00000040"/>
  <rect x="7" y="84" width="1" height="1" fill="#00000050"/>
  <rect x="8" y="84" width="72" height="1" fill="#00000056"/>
  <rect x="80" y="84" width="1" height="1" fill="#00000050"/>
  <rect x="81" y="84" width="1" height="1" fill="#00000040"/>
  <rect x="82" y="84" width="1" height="1" fill="#00000024"/>
  <rect x="83" y="84" width="1" height="1" fill="#0101010b"/>
  <rect x="90" y="84" width="1" height="1" fill="#fffff912"/>
  <rect x="91" y="84" width="1" height="1" fill="#fffff923"/>
  <rect x="92" y="84" width="1" height="1" fill="#fffff93a"/>
  <rect x="93" y="84" width="1" height="1" fill="#fffffb54"/>
  <rect x="94" y="84" width="1" height="1" fill="#fffffb6c"/>
  <rect x="95" y="84" width="1" height="1" fill="#fffffb7f"/>
  <rect x="96" y="84" width="1" height="1" fill="#fffffb8d"/>
  <rect x="97" y="84" width="1" height="1" fill="#fffffb94"/>
  <rect x="98" y="84" width="1" height="1" fill="#fffffb97"/>
  <rect x="99" y="84" width="2" height="1" fill="#fffffb98"/>
  <rect x="101" y="84" width="6" height="1" fill="#fffffd98"/>
  <rect x="107" y="84" width="18" height="1" fill="#fffffb98"/>
  <rect x="125" y="84" width="14" height="1" fill="#fffffd98"/>
  <rect x="139" y="84" width="18" height="1" fill="#fffffb98"/>
  <rect x="157" y="84" width="8" height="1" fill="#fffffd98"/>
  <rect x="165" y="84" width="1" height="1" fill="#fffffd97"/>
  <rect x="166" y="84" width="1" height="1" fill="#fffffd94"/>
  <rect x="167" y="84" width="1" height="1" fill="#fffffb8d"/>
  <rect x="168" y="84" width="1" height="1" fill="#fffffb7f"/>
  <rect x="169" y="84" width="1" height="1" fill="#fffffb6c"/>
  <rect x="170" y="84" width="1" height="1" fill="#fffff954"/>
  <rect x="171" y="84" width="1" height="1" fill="#fffff93a"/>
  <rect x="172" y="84" width="1" height="1" fill="#fffff923"/>
  <rect x="173" y="84" width="1" height="1" fill="#fffff912"/>
  <rect x="178" y="84" width="1" height="1" fill="#fffff912"/>
  <rect x="179" y="84" width="1" height="1" fill="#fffff923"/>
  <rect x="180" y="84" width="1" height="1" fill="#fffff93a"/>
  <rect x="181" y="84" width="1" height="1" fill="#fffff954"/>
  <rect x="182" y="84" width="1" height="1" fill="#fffff96c"/>
  <rect x="183" y="84" width="1" height="1" fill="#fffff97f"/>
  <rect x="184" y="84" width="1" height="1" fill="#fffffb8d"/>
  <rect x="185" y="84" width="1" height="1" fill="#fffffd94"/>
  <rect x="186" y="84" width="1" height="1" fill="#fffffd97"/>
  <rect x="187" y="84" width="48" height="1" fill="#fffffd98"/>
  <rect x="235" y="84" width="18" height="1" fill="#fffffb98"/>
  <rect x="253" y="84" width="1" height="1" fill="#fffffd97"/>
  <rect x="254" y="84" width="1" height="1" fill="#fffffd94"/>
  <rect x="255" y="84" width="1" height="1" fill="#fffffd8d"/>
  <rect x="256" y="84" width="1" height="1" fill="#fffffd7f"/>
  <rect x="257" y="84" width="1" height="1" fill="#fffffd6c"/>
  <rect x="258" y="84" width="1" height="1" fill="#fffffd54"/>
  <rect x="259" y="84" width="1" height="1" fill="#fffffd3a"/>
  <rect x="6" y="85" width="1" height="1" fill="#01010112"/>
  <rect x="7" y="85" width="1" height="1" fill="#0101011a"/>
  <rect x="8" y="85" width="1" height="1" fill="#0101011c"/>
  <rect x="9" y="85" width="69" height="1" fill="#0101011d"/>
  <rect x="78" y="85" width="1" height="1" fill="#0000001d"/>
  <rect x="79" y="85" width="1" height="1" fill="#0000001c"/>
  <rect x="80" y="85" width="1" height="1" fill="#0000001a"/>
  <rect x="81" y="85" width="1" height="1" fill="#00000012"/>
  <rect x="91" y="85" width="1" height="1" fill="#fffff912"/>
  <rect x="92" y="85" width="1" height="1" fill="#fffff91f"/>
  <rect x="93" y="85" width="1" height="1" fill="#fffff92e"/>
  <rect x="94" y="85" width="1" height="1" fill="#fffff93d"/>
  <rect x="95" y="85" width="1" height="1" fill="#fffff94a"/>
  <rect x="96" y="85" width="1" height="1" fill="#fffff953"/>
  <rect x="97" y="85" width="1" height="1" fill="#fffffb58"/>
  <rect x="98" y="85" width="9" height="1" fill="#fffffb5b"/>
  <rect x="107" y="85" width="18" height="1" fill="#fffff95b"/>
  <rect x="125" y="85" width="14" height="1" fill="#fffffb5b"/>
  <rect x="139" y="85" width="18" height="1" fill="#fffff95b"/>
  <rect x="157" y="85" width="9" height="1" fill="#fffffb5b"/>
  <rect x="166" y="85" width="1" height="1" fill="#fffffb58"/>
  <rect x="167" y="85" width="1" height="1" fill="#fffffb53"/>
  <rect x="168" y="85" width="1" height="1" fill="#fffffb4a"/>
  <rect x="169" y="85" width="1" height="1" fill="#fffffb3d"/>
  <rect x="170" y="85" width="1" height="1" fill="#fffff92e"/>
  <rect x="171" y="85" width="1" height="1" fill="#fffff91f"/>
  <rect x="172" y="85" width="1" height="1" fill="#fffff912"/>
  <rect x="179" y="85" width="1" height="1" fill="#fffff912"/>
  <rect x="180" y="85" width="1" height="1" fill="#fffff91f"/>
  <rect x="181" y="85" width="1" height="1" fill="#fffff92e"/>
  <rect x="182" y="85" width="1" height="1" fill="#fffff93d"/>
  <rect x="183" y="85" width="1" height="1" fill="#fffff94a"/>
  <rect x="184" y="85" width="1" height="1" fill="#fffff953"/>
  <rect x="185" y="85" width="1" height="1" fill="#fffffb58"/>
  <rect x="186" y="85" width="49" height="1" fill="#fffffb5b"/>
  <rect x="235" y="85" width="17" height="1" fill="#fffff95b"/>
  <rect x="252" y="85" width="2" height="1" fill="#fffffb5b"/>
  <rect x="254" y="85" width="1" height="1" fill="#fffffb58"/>
  <rect x="255" y="85" width="1" height="1" fill="#fffffb53"/>
  <rect x="256" y="85" width="1" height="1" fill="#fffffd4a"/>
  <rect x="257" y="85" width="1" height="1" fill="#fffffd3d"/>
  <rect x="258" y="85" width="1" height="1" fill="#fffffd2e"/>
  <rect x="259" y="85" width="1" height="1" fill="#fffffd1f"/>
  <rect x="92" y="86" width="1" height="1" fill="#fffff90d"/>
  <rect x="93" y="86" width="1" height="1" fill="#fffff915"/>
  <rect x="94" y="86" width="1" height="1" fill="#fffff91c"/>
  <rect x="95" y="86" width="1" height="1" fill="#fffff923"/>
  <rect x="96" y="86" width="1" height="1" fill="#fffff928"/>
  <rect x="97" y="86" width="1" height="1" fill="#fffff92b"/>
  <rect x="98" y="86" width="1" height="1" fill="#fffff92d"/>
  <rect x="99" y="86" width="8" height="1" fill="#fffff92e"/>
  <rect x="107" y="86" width="18" height="1" fill="#fffff72e"/>
  <rect x="125" y="86" width="14" height="1" fill="#fffff92e"/>
  <rect x="139" y="86" width="18" height="1" fill="#fffff72e"/>
  <rect x="157" y="86" width="8" height="1" fill="#fffff92e"/>
  <rect x="165" y="86" width="1" height="1" fill="#fffff92d"/>
  <rect x="166" y="86" width="1" height="1" fill="#fffff92b"/>
  <rect x="167" y="86" width="1" height="1" fill="#fffff928"/>
  <rect x="168" y="86" width="1" height="1" fill="#fffff923"/>
  <rect x="169" y="86" width="1" height="1" fill="#fffff91c"/>
  <rect x="170" y="86" width="1" height="1" fill="#fffff915"/>
  <rect x="171" y="86" width="1" height="1" fill="#fffff90d"/>
  <rect x="180" y="86" width="1" height="1" fill="#fffff90d"/>
  <rect x="181" y="86" width="1" height="1" fill="#fffff915"/>
  <rect x="182" y="86" width="1" height="1" fill="#fffff91c"/>
  <rect x="183" y="86" width="1" height="1" fill="#fffff923"/>
  <rect x="184" y="86" width="1" height="1" fill="#fffff928"/>
  <rect x="185" y="86" width="1" height="1" fill="#fffff92b"/>
  <rect x="186" y="86" width="1" height="1" fill="#fffff92d"/>
  <rect x="187" y="86" width="48" height="1" fill="#fffff92e"/>
  <rect x="235" y="86" width="16" height="1" fill="#fffff72e"/>
  <rect x="251" y="86" width="2" height="1" fill="#fffff92e"/>
  <rect x="253" y="86" width="1" height="1" fill="#fffff92d"/>
  <rect x="254" y="86" width="1" height="1" fill="#fffff92b"/>
  <rect x="255" y="86" width="1" height="1" fill="#fffffb28"/>
  <rect x="256" y="86" width="1" height="1" fill="#fffffb23"/>
  <rect x="257" y="86" width="1" height="1" fill="#fffffb1c"/>
  <rect x="258" y="86" width="1" height="1" fill="#fffffb15"/>
  <rect x="259" y="86" width="1" height="1" fill="#fffffb0d"/>
  <rect x="95" y="87" width="1" height="1" fill="#fffff90b"/>
  <rect x="96" y="87" width="1" height="1" fill="#fffff70d"/>
  <rect x="97" y="87" width="1" height="1" fill="#fffff70e"/>
  <rect x="98" y="87" width="10" height="1" fill="#fffff70f"/>
  <rect x="108" y="87" width="4" height="1" fill="#fffff50f"/>
  <rect x="112" y="87" width="28" height="1" fill="#fffff70f"/>
  <rect x="140" y="87" width="4" height="1" fill="#fffff50f"/>
  <rect x="144" y="87" width="22" height="1" fill="#fffff70f"/>
  <rect x="166" y="87" width="1" height="1" fill="#fffff70e"/>
  <rect x="167" y="87" width="1" height="1" fill="#fffff70d"/>
  <rect x="168" y="87" width="1" height="1" fill="#fffff90b"/>
  <rect x="183" y="87" width="1" height="1" fill="#fffff90b"/>
  <rect x="184" y="87" width="1" height="1" fill="#fffff70d"/>
  <rect x="185" y="87" width="1" height="1" fill="#fffff70e"/>
  <rect x="186" y="87" width="50" height="1" fill="#fffff70f"/>
  <rect x="236" y="87" width="4" height="1" fill="#fffff50f"/>
  <rect x="240" y="87" width="12" height="1" fill="#fffff70f"/>
  <rect x="252" y="87" width="2" height="1" fill="#fffff90f"/>
  <rect x="254" y="87" width="1" height="1" fill="#fffff90e"/>
  <rect x="255" y="87" width="1" height="1" fill="#fffff90d"/>
  <rect x="256" y="87" width="1" height="1" fill="#fffffb0b"/>
</svg>