<svg xmlns="http://www.w3.org/2000/svg" width="30" height="30" viewBox="0 0 30 30" shape-rendering="crispEdges">
  <rect x="10" y="2" width="1" height="1" fill="#2626261a"/>
  <rect x="11" y="2" width="1" height="1" fill="#1c1c1c2a"/>
  <rect x="12" y="2" width="1" height="1" fill="#1f1f1f32"/>
  <rect x="13" y="2" width="1" height="1" fill="#23232332"/>
  <rect x="14" y="2" width="1" height="1" fill="#2325262a"/>
  <rect x="15" y="2" width="1" height="1" fill="#1d232a1a"/>
  <rect x="8" y="3" width="1" height="1" fill="#20232918"/>
  <rect x="9" y="3" width="1" height="1" fill="#39393938"/>
  <rect x="10" y="3" width="1" height="1" fill="#c5c5c57a"/>
  <rect x="11" y="3" width="1" height="1" fill="#f1f1f1b8"/>
  <rect x="12" y="3" width="1" height="1" fill="#fefefed7"/>
  <rect x="13" y="3" width="1" height="1" fill="#ffffffd7"/>
  <rect x="14" y="3" width="1" height="1" fill="#eaecedb7"/>
  <rect x="15" y="3" width="1" height="1" fill="#c6cacf7a"/>
  <rect x="16" y="3" width="1" height="1" fill="#272f3735"/>
  <rect x="17" y="3" width="1" height="1" fill="#222d3b18"/>
  <rect x="7" y="4" width="1" height="1" fill="#23272c1b"/>
  <rect x="8" y="4" width="1" height="1" fill="#6a6c6d44"/>
  <rect x="9" y="4" width="1" height="1" fill="#eeeeeebb"/>
  <rect x="10" y="4" width="1" height="1" fill="#ffffffcd"/>
  <rect x="11" y="4" width="1" height="1" fill="#ffffffc0"/>
  <rect x="12" y="4" width="2" height="1" fill="#fefefeba"/>
  <rect x="14" y="4" width="1" height="1" fill="#fefefec1"/>
  <rect x="15" y="4" width="1" height="1" fill="#fefdffcd"/>
  <rect x="16" y="4" width="1" height="1" fill="#f8f9ffbb"/>
  <rect x="17" y="4" width="1" height="1" fill="#62656f44"/>
  <rect x="18" y="4" width="1" height="1" fill="#171e2b1b"/>
  <rect x="6" y="5" width="1" height="1" fill="#252b320b"/>
  <rect x="7" y="5" width="1" height="1" fill="#4848483a"/>
  <rect x="8" y="5" width="1" height="1" fill="#f8f8f8be"/>
  <rect x="9" y="5" width="1" height="1" fill="#ffffffc0"/>
  <rect x="10" y="5" width="1" height="1" fill="#fefefeb9"/>
  <rect x="11" y="5" width="1" height="1" fill="#fcfbfcb9"/>
  <rect x="12" y="5" width="2" height="1" fill="#ffffffb9"/>
  <rect x="14" y="5" width="2" height="1" fill="#fffeffb9"/>
  <rect x="16" y="5" width="1" height="1" fill="#ffffffc0"/>
  <rect x="17" y="5" width="1" height="1" fill="#f8f5fbbf"/>
  <rect x="18" y="5" width="1" height="1" fill="#42434c3a"/>
  <rect x="19" y="5" width="1" height="1" fill="#2027350b"/>
  <rect x="6" y="6" width="1" height="1" fill="#24282c22"/>
  <rect x="7" y="6" width="1" height="1" fill="#d4d2d187"/>
  <rect x="8" y="6" width="1" height="1" fill="#ffffffbf"/>
  <rect x="9" y="6" width="1" height="1" fill="#ffffffb9"/>
  <rect x="10" y="6" width="1" height="1" fill="#fafafab9"/>
  <rect x="11" y="6" width="1" height="1" fill="#ffffffb9"/>
  <rect x="12" y="6" width="3" height="1" fill="#fefefeb9"/>
  <rect x="15" y="6" width="1" height="1" fill="#fffdfcb9"/>
  <rect x="16" y="6" width="1" height="1" fill="#fff7f6b9"/>
  <rect x="17" y="6" width="1" height="1" fill="#fffbfdbe"/>
  <rect x="18" y="6" width="1" height="1" fill="#dbd5db87"/>
  <rect x="19" y="6" width="1" height="1" fill="#1c1f2c22"/>
  <rect x="5" y="7" width="1" height="1" fill="#2a363f0a"/>
  <rect x="6" y="7" width="1" height="1" fill="#34363836"/>
  <rect x="7" y="7" width="1" height="1" fill="#fffffdc0"/>
  <rect x="8" y="7" width="1" height="1" fill="#fffffeb9"/>
  <rect x="9" y="7" width="2" height="1" fill="#ffffffb9"/>
  <rect x="11" y="7" width="1" height="1" fill="#fcfbfcb9"/>
  <rect x="12" y="7" width="3" height="1" fill="#fdfdfdb9"/>
  <rect x="15" y="7" width="1" height="1" fill="#fffbfbb9"/>
  <rect x="16" y="7" width="1" height="1" fill="#fffbf6b9"/>
  <rect x="17" y="7" width="1" height="1" fill="#fbedebb9"/>
  <rect x="18" y="7" width="1" height="1" fill="#fffcffc0"/>
  <rect x="19" y="7" width="1" height="1" fill="#2d2d3936"/>
  <rect x="20" y="7" width="1" height="1" fill="#272f430a"/>
  <rect x="5" y="8" width="1" height="1" fill="#1f2b3717"/>
  <rect x="6" y="8" width="1" height="1" fill="#93969556"/>
  <rect x="7" y="8" width="1" height="1" fill="#fffdfabb"/>
  <rect x="8" y="8" width="1" height="1" fill="#fffffdb9"/>
  <rect x="9" y="8" width="3" height="4" fill="#ffffffb9"/>
  <rect x="12" y="8" width="3" height="2" fill="#fefefeb9"/>
  <rect x="15" y="8" width="1" height="2" fill="#fffdfcb9"/>
  <rect x="16" y="8" width="1" height="1" fill="#ffffffb9"/>
  <rect x="17" y="8" width="1" height="1" fill="#fffefbb9"/>
  <rect x="18" y="8" width="1" height="1" fill="#fef6fbbb"/>
  <rect x="19" y="8" width="1" height="1" fill="#9997a356"/>
  <rect x="20" y="8" width="1" height="1" fill="#21293d17"/>
  <rect x="5" y="9" width="1" height="1" fill="#1e2a361e"/>
  <rect x="6" y="9" width="1" height="1" fill="#b1b3b469"/>
  <rect x="7" y="9" width="1" height="1" fill="#fffbfbb9"/>
  <rect x="8" y="9" width="1" height="3" fill="#fffeffb9"/>
  <rect x="16" y="9" width="1" height="1" fill="#fff6f3b9"/>
  <rect x="17" y="9" width="1" height="1" fill="#fffdfcb9"/>
  <rect x="18" y="9" width="1" height="1" fill="#fef6fbb9"/>
  <rect x="19" y="9" width="1" height="1" fill="#b8b8c168"/>
  <rect x="20" y="9" width="1" height="1" fill="#222a3c1e"/>
  <rect x="5" y="10" width="1" height="1" fill="#1c2c391e"/>
  <rect x="6" y="10" width="1" height="1" fill="#9899a25b"/>
  <rect x="7" y="10" width="1" height="1" fill="#fffcffb9"/>
  <rect x="12" y="10" width="2" height="2" fill="#fefefeb9"/>
  <rect x="14" y="10" width="2" height="2" fill="#fffdfcb9"/>
  <rect x="16" y="10" width="1" height="1" fill="#fff7f5b9"/>
  <rect x="17" y="10" width="1" height="1" fill="#fffbfbb9"/>
  <rect x="18" y="10" width="1" height="1" fill="#fefbffb9"/>
  <rect x="19" y="10" width="1" height="1" fill="#a5a6af5e"/>
  <rect x="20" y="10" width="1" height="1" fill="#232c391f"/>
  <rect x="5" y="11" width="1" height="1" fill="#1f2f4017"/>
  <rect x="6" y="11" width="1" height="1" fill="#5757633e"/>
  <rect x="7" y="11" width="1" height="1" fill="#fffeffb4"/>
  <rect x="16" y="11" width="1" height="1" fill="#ffffffb9"/>
  <rect x="17" y="11" width="1" height="1" fill="#faf8f6b9"/>
  <rect x="18" y="11" width="1" height="1" fill="#ffffffb8"/>
  <rect x="19" y="11" width="1" height="1" fill="#686c7142"/>
  <rect x="20" y="11" width="1" height="1" fill="#252c3518"/>
  <rect x="5" y="12" width="1" height="1" fill="#222c4110"/>
  <rect x="6" y="12" width="1" height="1" fill="#27283331"/>
  <rect x="7" y="12" width="1" height="1" fill="#dcd7db83"/>
  <rect x="8" y="12" width="1" height="1" fill="#fffdfeb9"/>
  <rect x="9" y="12" width="1" height="1" fill="#fafafab9"/>
  <rect x="10" y="12" width="1" height="1" fill="#fcfbfcb9"/>
  <rect x="11" y="12" width="1" height="1" fill="#ffffffb9"/>
  <rect x="12" y="12" width="4" height="1" fill="#fefefeb9"/>
  <rect x="16" y="12" width="1" height="1" fill="#fffffdb9"/>
  <rect x="17" y="12" width="1" height="1" fill="#fffffeb9"/>
  <rect x="18" y="12" width="1" height="1" fill="#e8ebea93"/>
  <rect x="19" y="12" width="1" height="1" fill="#2f333432"/>
  <rect x="20" y="12" width="1" height="1" fill="#20292c11"/>
  <rect x="5" y="13" width="1" height="1" fill="#282e410b"/>
  <rect x="6" y="13" width="1" height="1" fill="#2d2e3726"/>
  <rect x="7" y="13" width="1" height="1" fill="#4e4c4f3c"/>
  <rect x="8" y="13" width="1" height="1" fill="#fcfbfca9"/>
  <rect x="9" y="13" width="1" height="1" fill="#f8f8f8b9"/>
  <rect x="10" y="13" width="1" height="2" fill="#ffffffb9"/>
  <rect x="11" y="13" width="1" height="1" fill="#fdfdfdb9"/>
  <rect x="12" y="13" width="3" height="1" fill="#fefefeb9"/>
  <rect x="15" y="13" width="1" height="1" fill="#fcfffeb9"/>
  <rect x="16" y="13" width="1" height="1" fill="#f9fcf8b9"/>
  <rect x="17" y="13" width="1" height="1" fill="#ffffffb6"/>
  <rect x="18" y="13" width="1" height="1" fill="#7f84824c"/>
  <rect x="19" y="13" width="1" height="1" fill="#272c2a2c"/>
  <rect x="20" y="13" width="1" height="1" fill="#232a2a2b"/>
  <rect x="21" y="13" width="1" height="1" fill="#171e1e32"/>
  <rect x="22" y="13" width="1" height="1" fill="#13191932"/>
  <rect x="23" y="13" width="1" height="1" fill="#1e252529"/>
  <rect x="24" y="13" width="1" height="1" fill="#27302f15"/>
  <rect x="5" y="14" width="1" height="1" fill="#1d212721"/>
  <rect x="6" y="14" width="1" height="1" fill="#8c8e9252"/>
  <rect x="7" y="14" width="1" height="1" fill="#cbcacd75"/>
  <rect x="8" y="14" width="1" height="1" fill="#7a7a7a47"/>
  <rect x="9" y="14" width="1" height="1" fill="#fefefeab"/>
  <rect x="11" y="14" width="1" height="1" fill="#fafafab9"/>
  <rect x="12" y="14" width="2" height="1" fill="#fefefeb9"/>
  <rect x="14" y="14" width="2" height="1" fill="#fcfffeb9"/>
  <rect x="16" y="14" width="1" height="1" fill="#f8fdfcb7"/>
  <rect x="17" y="14" width="1" height="1" fill="#b1b6b462"/>
  <rect x="18" y="14" width="1" height="1" fill="#24292839"/>
  <rect x="19" y="14" width="1" height="1" fill="#aeb3b166"/>
  <rect x="20" y="14" width="1" height="1" fill="#eaf0ecb1"/>
  <rect x="21" y="14" width="1" height="1" fill="#f6fcf5d4"/>
  <rect x="22" y="14" width="1" height="1" fill="#fbfffad4"/>
  <rect x="23" y="14" width="1" height="1" fill="#eff5ecb1"/>
  <rect x="24" y="14" width="1" height="1" fill="#a8aca466"/>
  <rect x="25" y="14" width="1" height="1" fill="#232a2623"/>
  <rect x="4" y="15" width="1" height="1" fill="#22262b1f"/>
  <rect x="5" y="15" width="1" height="1" fill="#989a9c57"/>
  <rect x="6" y="15" width="1" height="1" fill="#f9fbfcce"/>
  <rect x="7" y="15" width="1" height="1" fill="#fdffffca"/>
  <rect x="8" y="15" width="1" height="1" fill="#99999956"/>
  <rect x="9" y="15" width="1" height="1" fill="#65656541"/>
  <rect x="10" y="15" width="1" height="1" fill="#e7e7e796"/>
  <rect x="11" y="15" width="3" height="1" fill="#fefefeb9"/>
  <rect x="14" y="15" width="1" height="1" fill="#fcfffeb9"/>
  <rect x="15" y="15" width="1" height="1" fill="#fcfffea9"/>
  <rect x="16" y="15" width="1" height="1" fill="#9ba09e57"/>
  <rect x="17" y="15" width="1" height="1" fill="#2429283d"/>
  <rect x="18" y="15" width="1" height="1" fill="#ced3d28b"/>
  <rect x="19" y="15" width="1" height="1" fill="#ffffffd1"/>
  <rect x="20" y="15" width="1" height="1" fill="#fdfffec2"/>
  <rect x="21" y="15" width="1" height="1" fill="#fffffebb"/>
  <rect x="22" y="15" width="1" height="1" fill="#f3f7eebb"/>
  <rect x="23" y="15" width="1" height="1" fill="#fffffbc2"/>
  <rect x="24" y="15" width="1" height="1" fill="#fffffad2"/>
  <rect x="25" y="15" width="1" height="1" fill="#d0d5cf8b"/>
  <rect x="26" y="15" width="1" height="1" fill="#242d2a24"/>
  <rect x="3" y="16" width="1" height="1" fill="#1f252a15"/>
  <rect x="4" y="16" width="1" height="1" fill="#656c6e44"/>
  <rect x="5" y="16" width="1" height="1" fill="#fdffffc7"/>
  <rect x="6" y="16" width="1" height="1" fill="#fdffffbb"/>
  <rect x="7" y="16" width="1" height="1" fill="#ffffffba"/>
  <rect x="8" y="16" width="1" height="1" fill="#f9fbfac7"/>
  <rect x="9" y="16" width="1" height="1" fill="#93969554"/>
  <rect x="10" y="16" width="1" height="1" fill="#2426253c"/>
  <rect x="11" y="16" width="1" height="1" fill="#a3a5a45a"/>
  <rect x="12" y="16" width="1" height="1" fill="#d9dcdb86"/>
  <rect x="13" y="16" width="1" height="1" fill="#e1e4e386"/>
  <rect x="14" y="16" width="1" height="1" fill="#b4b6b666"/>
  <rect x="15" y="16" width="1" height="1" fill="#393b3a38"/>
  <rect x="16" y="16" width="1" height="1" fill="#24262734"/>
  <rect x="17" y="16" width="1" height="1" fill="#b1b6b666"/>
  <rect x="18" y="16" width="1" height="1" fill="#fdffffca"/>
  <rect x="19" y="16" width="1" height="1" fill="#fbfffeb9"/>
  <rect x="20" y="16" width="1" height="1" fill="#fdffffb9"/>
  <rect x="21" y="16" width="1" height="1" fill="#fbfdfdb9"/>
  <rect x="22" y="16" width="1" height="1" fill="#fcfffeb9"/>
  <rect x="23" y="16" width="1" height="1" fill="#f9fbfab9"/>
  <rect x="24" y="16" width="1" height="1" fill="#ffffffb9"/>
  <rect x="25" y="16" width="1" height="1" fill="#f8fef9ca"/>
  <rect x="26" y="16" width="1" height="1" fill="#afb6b166"/>
  <rect x="27" y="16" width="1" height="1" fill="#222f311a"/>
  <rect x="3" y="17" width="1" height="1" fill="#1f23242a"/>
  <rect x="4" y="17" width="1" height="1" fill="#e5eceea3"/>
  <rect x="5" y="17" width="1" height="1" fill="#fbffffbc"/>
  <rect x="6" y="17" width="1" height="1" fill="#fbfdfdb9"/>
  <rect x="7" y="17" width="1" height="1" fill="#fefefcb9"/>
  <rect x="8" y="17" width="1" height="1" fill="#ffffffbc"/>
  <rect x="9" y="17" width="1" height="1" fill="#f9fbfad0"/>
  <rect x="10" y="17" width="1" height="1" fill="#c6c8c77c"/>
  <rect x="11" y="17" width="1" height="1" fill="#33353435"/>
  <rect x="12" y="17" width="1" height="1" fill="#2b2d2c3e"/>
  <rect x="13" y="17" width="1" height="1" fill="#2628283f"/>
  <rect x="14" y="17" width="1" height="1" fill="#2e313035"/>
  <rect x="15" y="17" width="1" height="1" fill="#cdcfce80"/>
  <rect x="16" y="17" width="1" height="1" fill="#91939553"/>
  <rect x="17" y="17" width="1" height="1" fill="#eff1f3a9"/>
  <rect x="18" y="17" width="1" height="1" fill="#fdffffb9"/>
  <rect x="19" y="17" width="1" height="1" fill="#f7fcfab9"/>
  <rect x="20" y="17" width="1" height="1" fill="#ffffffb9"/>
  <rect x="21" y="17" width="2" height="1" fill="#fdffffb9"/>
  <rect x="23" y="17" width="1" height="1" fill="#fbfdffb9"/>
  <rect x="24" y="17" width="1" height="1" fill="#fcffffb9"/>
  <rect x="25" y="17" width="1" height="1" fill="#ffffffb9"/>
  <rect x="26" y="17" width="1" height="1" fill="#eaf0e9a9"/>
  <rect x="27" y="17" width="1" height="1" fill="#20292a2c"/>
  <rect x="2" y="18" width="1" height="1" fill="#1c272c13"/>
  <rect x="3" y="18" width="1" height="1" fill="#8a8e8f51"/>
  <rect x="4" y="18" width="1" height="1" fill="#fdffffc3"/>
  <rect x="5" y="18" width="1" height="2" fill="#ffffffb9"/>
  <rect x="6" y="18" width="1" height="1" fill="#fcfffeb9"/>
  <rect x="7" y="18" width="1" height="1" fill="#fafbf8b9"/>
  <rect x="8" y="18" width="1" height="1" fill="#fcfffeb9"/>
  <rect x="9" y="18" width="1" height="1" fill="#fbfdfdba"/>
  <rect x="10" y="18" width="1" height="1" fill="#ffffffcd"/>
  <rect x="11" y="18" width="1" height="1" fill="#f4f6f6c7"/>
  <rect x="12" y="18" width="1" height="1" fill="#d7d9d98f"/>
  <rect x="13" y="18" width="1" height="1" fill="#d9dcdb91"/>
  <rect x="14" y="18" width="1" height="1" fill="#f3f5f5ca"/>
  <rect x="15" y="18" width="1" height="1" fill="#ffffffcc"/>
  <rect x="16" y="18" width="1" height="1" fill="#37393b37"/>
  <rect x="17" y="18" width="1" height="1" fill="#fcfeffbb"/>
  <rect x="18" y="18" width="1" height="1" fill="#fafcfeb9"/>
  <rect x="19" y="18" width="1" height="1" fill="#21232533"/>
  <rect x="20" y="18" width="1" height="1" fill="#20222433"/>
  <rect x="21" y="18" width="2" height="2" fill="#1f212333"/>
  <rect x="23" y="18" width="1" height="1" fill="#1c1e1f33"/>
  <rect x="24" y="18" width="1" height="1" fill="#20252333"/>
  <rect x="25" y="18" width="1" height="1" fill="#f9fefdb9"/>
  <rect x="26" y="18" width="1" height="1" fill="#f7fcf8bb"/>
  <rect x="27" y="18" width="1" height="1" fill="#19222532"/>
  <rect x="28" y="18" width="1" height="1" fill="#2133460a"/>
  <rect x="2" y="19" width="1" height="1" fill="#1c272c25"/>
  <rect x="3" y="19" width="1" height="1" fill="#d3d7d88a"/>
  <rect x="4" y="19" width="1" height="1" fill="#f7fdffb9"/>
  <rect x="6" y="19" width="1" height="2" fill="#fdffffb9"/>
  <rect x="7" y="19" width="1" height="1" fill="#f9faf7b9"/>
  <rect x="8" y="19" width="1" height="1" fill="#f9fbfab9"/>
  <rect x="9" y="19" width="2" height="1" fill="#ffffffb9"/>
  <rect x="11" y="19" width="1" height="1" fill="#ffffffbd"/>
  <rect x="12" y="19" width="2" height="1" fill="#ffffffc9"/>
  <rect x="14" y="19" width="1" height="1" fill="#fbfdfdbd"/>
  <rect x="15" y="19" width="1" height="1" fill="#fcfffeb9"/>
  <rect x="16" y="19" width="1" height="1" fill="#32343537"/>
  <rect x="17" y="19" width="1" height="1" fill="#fcfeffb4"/>
  <rect x="18" y="19" width="1" height="1" fill="#ffffffb9"/>
  <rect x="19" y="19" width="1" height="1" fill="#1d1f2033"/>
  <rect x="20" y="19" width="1" height="1" fill="#21232533"/>
  <rect x="23" y="19" width="1" height="1" fill="#1d1f2033"/>
  <rect x="24" y="19" width="1" height="1" fill="#1a1f1d33"/>
  <rect x="25" y="19" width="1" height="2" fill="#feffffb9"/>
  <rect x="26" y="19" width="1" height="1" fill="#fbfffeb4"/>
  <rect x="27" y="19" width="1" height="1" fill="#1b242833"/>
  <rect x="28" y="19" width="1" height="1" fill="#2334470d"/>
  <rect x="2" y="20" width="1" height="1" fill="#1621262e"/>
  <rect x="3" y="20" width="1" height="1" fill="#f6fafba9"/>
  <rect x="4" y="20" width="1" height="3" fill="#f9ffffb9"/>
  <rect x="5" y="20" width="1" height="3" fill="#fbffffb9"/>
  <rect x="7" y="20" width="1" height="3" fill="#fefefcb9"/>
  <rect x="8" y="20" width="8" height="3" fill="#fdffffb9"/>
  <rect x="16" y="20" width="1" height="1" fill="#999b9d58"/>
  <rect x="17" y="20" width="1" height="1" fill="#f1f3f498"/>
  <rect x="18" y="20" width="1" height="2" fill="#fdffffb9"/>
  <rect x="19" y="20" width="2" height="1" fill="#fafcfedc"/>
  <rect x="21" y="20" width="2" height="1" fill="#fdffffdc"/>
  <rect x="23" y="20" width="1" height="1" fill="#fafcfedc"/>
  <rect x="24" y="20" width="1" height="1" fill="#fdffffdc"/>
  <rect x="26" y="20" width="1" height="1" fill="#ecf0f198"/>
  <rect x="27" y="20" width="1" height="1" fill="#222a3130"/>
  <rect x="28" y="20" width="1" height="1" fill="#2334450d"/>
  <rect x="1" y="21" width="1" height="1" fill="#1e35440b"/>
  <rect x="2" y="21" width="1" height="2" fill="#16212633"/>
  <rect x="3" y="21" width="1" height="1" fill="#f6fafbb6"/>
  <rect x="6" y="21" width="1" height="2" fill="#fcfffeb9"/>
  <rect x="16" y="21" width="1" height="1" fill="#d7d9db8f"/>
  <rect x="17" y="21" width="1" height="1" fill="#acaeb05f"/>
  <rect x="19" y="21" width="1" height="1" fill="#fcfeffb9"/>
  <rect x="20" y="21" width="1" height="1" fill="#ffffffb9"/>
  <rect x="21" y="21" width="2" height="2" fill="#fdffffb9"/>
  <rect x="23" y="21" width="1" height="1" fill="#ffffffb9"/>
  <rect x="24" y="21" width="1" height="1" fill="#f7fcf8b9"/>
  <rect x="25" y="21" width="1" height="1" fill="#fdffffb9"/>
  <rect x="26" y="21" width="1" height="1" fill="#a6aaad5f"/>
  <rect x="27" y="21" width="1" height="1" fill="#20283128"/>
  <rect x="28" y="21" width="1" height="1" fill="#2335430a"/>
  <rect x="1" y="22" width="1" height="1" fill="#1e35440e"/>
  <rect x="3" y="22" width="1" height="1" fill="#f6fafbbb"/>
  <rect x="16" y="22" width="1" height="1" fill="#ffffffc4"/>
  <rect x="17" y="22" width="1" height="1" fill="#8b8d8f51"/>
  <rect x="18" y="22" width="1" height="1" fill="#d3d6d779"/>
  <rect x="19" y="22" width="1" height="1" fill="#ffffffb9"/>
  <rect x="20" y="22" width="1" height="1" fill="#fbfdffb9"/>
  <rect x="23" y="22" width="1" height="1" fill="#fbfdfdb9"/>
  <rect x="24" y="22" width="1" height="1" fill="#f6fbf7b9"/>
  <rect x="25" y="22" width="1" height="1" fill="#cacfcd79"/>
  <rect x="26" y="22" width="1" height="1" fill="#262a2d34"/>
  <rect x="27" y="22" width="1" height="1" fill="#2c333c18"/>
  <rect x="1" y="23" width="1" height="1" fill="#1f33410d"/>
  <rect x="2" y="23" width="1" height="1" fill="#15212832"/>
  <rect x="3" y="23" width="1" height="1" fill="#f3fbffb0"/>
  <rect x="4" y="23" width="1" height="1" fill="#f7ffffb9"/>
  <rect x="5" y="23" width="1" height="1" fill="#f9ffffb9"/>
  <rect x="6" y="23" width="2" height="1" fill="#fbffffb9"/>
  <rect x="8" y="23" width="8" height="1" fill="#fcffffb9"/>
  <rect x="16" y="23" width="1" height="1" fill="#f8fcffba"/>
  <rect x="17" y="23" width="1" height="1" fill="#f8fcffc4"/>
  <rect x="18" y="23" width="1" height="1" fill="#85898e4f"/>
  <rect x="19" y="23" width="1" height="1" fill="#abafb55c"/>
  <rect x="20" y="23" width="1" height="1" fill="#eaeef497"/>
  <rect x="21" y="23" width="2" height="1" fill="#fcffffb3"/>
  <rect x="23" y="23" width="1" height="1" fill="#e9eff497"/>
  <rect x="24" y="23" width="1" height="1" fill="#a2abad5c"/>
  <rect x="25" y="23" width="1" height="1" fill="#212c2f38"/>
  <rect x="26" y="23" width="1" height="1" fill="#20293423"/>
  <rect x="27" y="23" width="1" height="1" fill="#2633410d"/>
  <rect x="1" y="24" width="1" height="1" fill="#1f323e0a"/>
  <rect x="2" y="24" width="1" height="1" fill="#1e2c3528"/>
  <rect x="3" y="24" width="1" height="1" fill="#1d293333"/>
  <rect x="4" y="24" width="2" height="1" fill="#17232d33"/>
  <rect x="6" y="24" width="2" height="1" fill="#19232b33"/>
  <rect x="8" y="24" width="7" height="1" fill="#1a242c33"/>
  <rect x="15" y="24" width="1" height="1" fill="#1a232e33"/>
  <rect x="16" y="24" width="1" height="1" fill="#1b252f33"/>
  <rect x="17" y="24" width="1" height="1" fill="#20293435"/>
  <rect x="18" y="24" width="1" height="1" fill="#242e3837"/>
  <rect x="19" y="24" width="1" height="1" fill="#222c363b"/>
  <rect x="20" y="24" width="1" height="1" fill="#1d273139"/>
  <rect x="21" y="24" width="1" height="1" fill="#1e283335"/>
  <rect x="22" y="24" width="1" height="1" fill="#20293435"/>
  <rect x="23" y="24" width="1" height="1" fill="#1d293539"/>
  <rect x="24" y="24" width="1" height="1" fill="#1e304036"/>
  <rect x="25" y="24" width="1" height="1" fill="#1d314422"/>
  <rect x="26" y="24" width="1" height="1" fill="#2033480f"/>
  <rect x="2" y="25" width="1" height="1" fill="#2435460f"/>
  <rect x="3" y="25" width="1" height="1" fill="#2537471e"/>
  <rect x="4" y="25" width="1" height="1" fill="#20324329"/>
  <rect x="5" y="25" width="2" height="1" fill="#2231432f"/>
  <rect x="7" y="25" width="1" height="1" fill="#2032432f"/>
  <rect x="8" y="25" width="3" height="1" fill="#2133442f"/>
  <rect x="11" y="25" width="1" height="1" fill="#2134422f"/>
  <rect x="12" y="25" width="3" height="1" fill="#2333422f"/>
  <rect x="15" y="25" width="1" height="1" fill="#2333422d"/>
  <rect x="16" y="25" width="1" height="1" fill="#26364728"/>
  <rect x="17" y="25" width="1" height="1" fill="#2433451f"/>
  <rect x="18" y="25" width="1" height="1" fill="#2332441a"/>
  <rect x="19" y="25" width="1" height="1" fill="#1f2f401d"/>
  <rect x="20" y="25" width="1" height="1" fill="#22314323"/>
  <rect x="21" y="25" width="2" height="1" fill="#21304229"/>
  <rect x="23" y="25" width="1" height="1" fill="#1e2f4223"/>
  <rect x="24" y="25" width="1" height="1" fill="#1d344c18"/>
  <rect x="25" y="25" width="1" height="1" fill="#1b344e0d"/>
  <rect x="3" y="26" width="1" height="1" fill="#2037510a"/>
  <rect x="4" y="26" width="1" height="1" fill="#1f36500e"/>
  <rect x="5" y="26" width="2" height="1" fill="#2135500f"/>
  <rect x="7" y="26" width="1" height="1" fill="#1f36500f"/>
  <rect x="8" y="26" width="1" height="1" fill="#1e38510f"/>
  <rect x="9" y="26" width="1" height="1" fill="#1d39510f"/>
  <rect x="10" y="26" width="1" height="1" fill="#1e38510f"/>
  <rect x="11" y="26" width="3" height="1" fill="#1e384f0f"/>
  <rect x="14" y="26" width="2" height="1" fill="#20384f0f"/>
  <rect x="16" y="26" width="1" height="1" fill="#20384d0e"/>
  <rect x="17" y="26" width="1" height="1" fill="#1d344a0b"/>
  <rect x="20" y="26" width="1" height="1" fill="#1f354b0a"/>
  <rect x="21" y="26" width="1" height="1" fill="#1e344a0d"/>
  <rect x="22" y="26" width="1" height="1" fill="#1d32490d"/>
  <rect x="23" y="26" width="1" height="1" fill="#1d32490a"/>
</svg>