<svg xmlns="http://www.w3.org/2000/svg" width="30" height="30" viewBox="0 0 30 30" shape-rendering="crispEdges">
  <rect x="10" y="2" width="1" height="1" fill="#2323231a"/>
  <rect x="11" y="2" width="1" height="1" fill="#1d1d1d2a"/>
  <rect x="12" y="2" width="1" height="1" fill="#24242432"/>
  <rect x="13" y="2" width="1" height="1" fill="#21212132"/>
  <rect x="14" y="2" width="1" height="1" fill="#2022242a"/>
  <rect x="15" y="2" width="1" height="1" fill="#20272b1a"/>
  <rect x="8" y="3" width="1" height="1" fill="#22262b18"/>
  <rect x="9" y="3" width="1" height="1" fill="#3d3d3d38"/>
  <rect x="10" y="3" width="1" height="1" fill="#cbcbcb7a"/>
  <rect x="11" y="3" width="1" height="1" fill="#f2f2f2b8"/>
  <rect x="12" y="3" width="1" height="1" fill="#fdfdfdd7"/>
  <rect x="13" y="3" width="1" height="1" fill="#ffffffd7"/>
  <rect x="14" y="3" width="1" height="1" fill="#edeff1b7"/>
  <rect x="15" y="3" width="1" height="1" fill="#cbcfd27a"/>
  <rect x="16" y="3" width="1" height="1" fill="#242c3235"/>
  <rect x="17" y="3" width="1" height="1" fill="#1e2a3418"/>
  <rect x="7" y="4" width="1" height="1" fill="#2628331b"/>
  <rect x="8" y="4" width="1" height="1" fill="#64656944"/>
  <rect x="9" y="4" width="1" height="1" fill="#f5f5f5bb"/>
  <rect x="10" y="4" width="1" height="1" fill="#ffffffcd"/>
  <rect x="11" y="4" width="1" height="1" fill="#ffffffc0"/>
  <rect x="12" y="4" width="2" height="1" fill="#ffffffba"/>
  <rect x="14" y="4" width="1" height="1" fill="#ffffffc1"/>
  <rect x="15" y="4" width="1" height="1" fill="#ffffffcd"/>
  <rect x="16" y="4" width="1" height="1" fill="#eceef0bb"/>
  <rect x="17" y="4" width="1" height="1" fill="#61656a44"/>
  <rect x="18" y="4" width="1" height="1" fill="#2830391b"/>
  <rect x="6" y="5" width="1" height="1" fill="#262d3a0b"/>
  <rect x="7" y="5" width="1" height="1" fill="#4142483a"/>
  <rect x="8" y="5" width="1" height="1" fill="#f5f4f7be"/>
  <rect x="9" y="5" width="1" height="1" fill="#fefefec0"/>
  <rect x="10" y="5" width="2" height="1" fill="#fdfdfdb9"/>
  <rect x="12" y="5" width="2" height="1" fill="#ffffffb9"/>
  <rect x="14" y="5" width="1" height="1" fill="#fffffdb9"/>
  <rect x="15" y="5" width="1" height="1" fill="#fffffeb9"/>
  <rect x="16" y="5" width="1" height="1" fill="#ffffffc0"/>
  <rect x="17" y="5" width="1" height="1" fill="#f1efeebf"/>
  <rect x="18" y="5" width="1" height="1" fill="#44464a3a"/>
  <rect x="19" y="5" width="1" height="1" fill="#242b340b"/>
  <rect x="6" y="6" width="1" height="1" fill="#1f272f22"/>
  <rect x="7" y="6" width="1" height="1" fill="#d1d3d787"/>
  <rect x="8" y="6" width="1" height="1" fill="#ffffffbf"/>
  <rect x="9" y="6" width="1" height="2" fill="#fdfdfdb9"/>
  <rect x="10" y="6" width="1" height="1" fill="#ffffffb9"/>
  <rect x="11" y="6" width="1" height="1" fill="#fcfbfcb9"/>
  <rect x="12" y="6" width="3" height="4" fill="#ffffffb9"/>
  <rect x="15" y="6" width="1" height="2" fill="#fffffcb9"/>
  <rect x="16" y="6" width="1" height="1" fill="#fff9f1b9"/>
  <rect x="17" y="6" width="1" height="1" fill="#fff9f3be"/>
  <rect x="18" y="6" width="1" height="1" fill="#d4cfd087"/>
  <rect x="19" y="6" width="1" height="1" fill="#2a2d3522"/>
  <rect x="5" y="7" width="1" height="1" fill="#2735400a"/>
  <rect x="6" y="7" width="1" height="1" fill="#2e323536"/>
  <rect x="7" y="7" width="1" height="1" fill="#ffffffc0"/>
  <rect x="8" y="7" width="1" height="1" fill="#ffffffb9"/>
  <rect x="10" y="7" width="1" height="1" fill="#fcfbfcb9"/>
  <rect x="11" y="7" width="1" height="1" fill="#fefefeb9"/>
  <rect x="16" y="7" width="1" height="1" fill="#fff5eeb9"/>
  <rect x="17" y="7" width="1" height="1" fill="#fff3ecb9"/>
  <rect x="18" y="7" width="1" height="1" fill="#fff8f8c0"/>
  <rect x="19" y="7" width="1" height="1" fill="#39394236"/>
  <rect x="20" y="7" width="1" height="1" fill="#20283a0a"/>
  <rect x="5" y="8" width="1" height="1" fill="#19252f17"/>
  <rect x="6" y="8" width="1" height="1" fill="#8f919256"/>
  <rect x="7" y="8" width="1" height="1" fill="#fcf8f7bb"/>
  <rect x="8" y="8" width="1" height="1" fill="#fffdfeb9"/>
  <rect x="9" y="8" width="3" height="1" fill="#fefefeb9"/>
  <rect x="15" y="8" width="1" height="4" fill="#fffefdb9"/>
  <rect x="16" y="8" width="1" height="1" fill="#ffffffb9"/>
  <rect x="17" y="8" width="1" height="2" fill="#fffffeb9"/>
  <rect x="18" y="8" width="1" height="1" fill="#fdf6f8bb"/>
  <rect x="19" y="8" width="1" height="1" fill="#95939d56"/>
  <rect x="20" y="8" width="1" height="1" fill="#1c253617"/>
  <rect x="5" y="9" width="1" height="1" fill="#1a28331e"/>
  <rect x="6" y="9" width="1" height="1" fill="#babcbd69"/>
  <rect x="7" y="9" width="1" height="1" fill="#fefcfbb9"/>
  <rect x="8" y="9" width="4" height="2" fill="#fefefeb9"/>
  <rect x="16" y="9" width="1" height="1" fill="#fffbf8b9"/>
  <rect x="18" y="9" width="1" height="1" fill="#fef7f9b9"/>
  <rect x="19" y="9" width="1" height="1" fill="#b4b5be68"/>
  <rect x="20" y="9" width="1" height="1" fill="#1c25341e"/>
  <rect x="5" y="10" width="1" height="1" fill="#1d2d3a1e"/>
  <rect x="6" y="10" width="1" height="1" fill="#9aa2a95b"/>
  <rect x="7" y="10" width="1" height="1" fill="#fdffffb9"/>
  <rect x="12" y="10" width="2" height="2" fill="#ffffffb9"/>
  <rect x="14" y="10" width="1" height="2" fill="#fffffdb9"/>
  <rect x="16" y="10" width="1" height="1" fill="#fffbfab9"/>
  <rect x="17" y="10" width="1" height="1" fill="#fffdfdb9"/>
  <rect x="18" y="10" width="1" height="1" fill="#fefbffb9"/>
  <rect x="19" y="10" width="1" height="1" fill="#a1a2ab5e"/>
  <rect x="20" y="10" width="1" height="1" fill="#1c25321f"/>
  <rect x="5" y="11" width="1" height="1" fill="#20324117"/>
  <rect x="6" y="11" width="1" height="1" fill="#4a545c3e"/>
  <rect x="7" y="11" width="1" height="1" fill="#fcffffb4"/>
  <rect x="8" y="11" width="1" height="1" fill="#fcfeffb9"/>
  <rect x="9" y="11" width="3" height="1" fill="#fefefeb9"/>
  <rect x="16" y="11" width="1" height="1" fill="#ffffffb9"/>
  <rect x="17" y="11" width="1" height="1" fill="#fcfaf8b9"/>
  <rect x="18" y="11" width="1" height="1" fill="#ffffffb8"/>
  <rect x="19" y="11" width="1" height="1" fill="#64686e42"/>
  <rect x="20" y="11" width="1" height="1" fill="#1e252e18"/>
  <rect x="5" y="12" width="1" height="1" fill="#1f334310"/>
  <rect x="6" y="12" width="1" height="1" fill="#20282e31"/>
  <rect x="7" y="12" width="1" height="1" fill="#d5d7d883"/>
  <rect x="8" y="12" width="2" height="1" fill="#ffffffb9"/>
  <rect x="10" y="12" width="1" height="2" fill="#fafafab9"/>
  <rect x="11" y="12" width="6" height="1" fill="#ffffffb9"/>
  <rect x="17" y="12" width="1" height="1" fill="#fffffeb9"/>
  <rect x="18" y="12" width="1" height="1" fill="#e6e9e893"/>
  <rect x="19" y="12" width="1" height="1" fill="#292d2e32"/>
  <rect x="20" y="12" width="1" height="1" fill="#252d3111"/>
  <rect x="5" y="13" width="1" height="1" fill="#2333400b"/>
  <rect x="6" y="13" width="1" height="1" fill="#262c3126"/>
  <rect x="7" y="13" width="1" height="1" fill="#4e50513c"/>
  <rect x="8" y="13" width="1" height="1" fill="#f6f6f6a9"/>
  <rect x="9" y="13" width="1" height="1" fill="#ffffffb9"/>
  <rect x="11" y="13" width="1" height="1" fill="#fefefeb9"/>
  <rect x="12" y="13" width="3" height="1" fill="#ffffffb9"/>
  <rect x="15" y="13" width="1" height="1" fill="#fdffffb9"/>
  <rect x="16" y="13" width="1" height="1" fill="#fbfefbb9"/>
  <rect x="17" y="13" width="1" height="1" fill="#ffffffb6"/>
  <rect x="18" y="13" width="1" height="1" fill="#7c817f4c"/>
  <rect x="19" y="13" width="1" height="1" fill="#2227252c"/>
  <rect x="20" y="13" width="1" height="1" fill="#242b2b2b"/>
  <rect x="21" y="13" width="1" height="1" fill="#181f1f32"/>
  <rect x="22" y="13" width="1" height="1" fill="#141b1a32"/>
  <rect x="23" y="13" width="1" height="1" fill="#20272929"/>
  <rect x="24" y="13" width="1" height="1" fill="#212a2e15"/>
  <rect x="5" y="14" width="1" height="1" fill="#21252a21"/>
  <rect x="6" y="14" width="1" height="1" fill="#8a8c9052"/>
  <rect x="7" y="14" width="1" height="1" fill="#c0c2c375"/>
  <rect x="8" y="14" width="1" height="1" fill="#7b7b7b47"/>
  <rect x="9" y="14" width="1" height="1" fill="#f9f9f9ab"/>
  <rect x="10" y="14" width="4" height="1" fill="#ffffffb9"/>
  <rect x="14" y="14" width="2" height="1" fill="#fdffffb9"/>
  <rect x="16" y="14" width="1" height="1" fill="#f8fdfcb7"/>
  <rect x="17" y="14" width="1" height="1" fill="#afb4b262"/>
  <rect x="18" y="14" width="1" height="1" fill="#1f242039"/>
  <rect x="19" y="14" width="1" height="1" fill="#abb1ad66"/>
  <rect x="20" y="14" width="1" height="1" fill="#e9eeeab1"/>
  <rect x="21" y="14" width="1" height="1" fill="#f5faf4d4"/>
  <rect x="22" y="14" width="1" height="1" fill="#f9fff9d4"/>
  <rect x="23" y="14" width="1" height="1" fill="#eef3edb1"/>
  <rect x="24" y="14" width="1" height="1" fill="#a7aaa766"/>
  <rect x="25" y="14" width="1" height="1" fill="#1b212123"/>
  <rect x="4" y="15" width="1" height="1" fill="#2125281f"/>
  <rect x="5" y="15" width="1" height="1" fill="#94949457"/>
  <rect x="6" y="15" width="1" height="1" fill="#fcfbfcce"/>
  <rect x="7" y="15" width="1" height="1" fill="#fefefeca"/>
  <rect x="8" y="15" width="1" height="1" fill="#9a9a9a56"/>
  <rect x="9" y="15" width="1" height="1" fill="#62626241"/>
  <rect x="10" y="15" width="1" height="1" fill="#ececec96"/>
  <rect x="11" y="15" width="3" height="1" fill="#ffffffb9"/>
  <rect x="14" y="15" width="1" height="1" fill="#fdffffb9"/>
  <rect x="15" y="15" width="1" height="1" fill="#fdffffa9"/>
  <rect x="16" y="15" width="1" height="1" fill="#9ba09e57"/>
  <rect x="17" y="15" width="1" height="1" fill="#2126243c"/>
  <rect x="18" y="15" width="1" height="1" fill="#cacfcb8b"/>
  <rect x="19" y="15" width="1" height="1" fill="#ffffffd1"/>
  <rect x="20" y="15" width="1" height="1" fill="#fbfffac2"/>
  <rect x="21" y="15" width="1" height="1" fill="#fdfffcbb"/>
  <rect x="22" y="15" width="1" height="1" fill="#f1f4ecbb"/>
  <rect x="23" y="15" width="1" height="1" fill="#fdfffbc2"/>
  <rect x="24" y="15" width="1" height="1" fill="#ffffffd2"/>
  <rect x="25" y="15" width="1" height="1" fill="#d5d7d68b"/>
  <rect x="26" y="15" width="1" height="1" fill="#1f272b24"/>
  <rect x="3" y="16" width="1" height="1" fill="#242a2d15"/>
  <rect x="4" y="16" width="1" height="1" fill="#63686644"/>
  <rect x="5" y="16" width="1" height="1" fill="#fffffec7"/>
  <rect x="6" y="16" width="1" height="1" fill="#fffffebb"/>
  <rect x="7" y="16" width="1" height="1" fill="#ffffffba"/>
  <rect x="8" y="16" width="1" height="1" fill="#f9f9f9c7"/>
  <rect x="9" y="16" width="1" height="1" fill="#90909054"/>
  <rect x="10" y="16" width="1" height="1" fill="#2626263c"/>
  <rect x="11" y="16" width="1" height="1" fill="#ababab5a"/>
  <rect x="12" y="16" width="1" height="1" fill="#e2e2e286"/>
  <rect x="13" y="16" width="1" height="1" fill="#e0e0e086"/>
  <rect x="14" y="16" width="1" height="1" fill="#b9b9b966"/>
  <rect x="15" y="16" width="1" height="1" fill="#3a3c3b38"/>
  <rect x="16" y="16" width="1" height="1" fill="#26282834"/>
  <rect x="17" y="16" width="1" height="1" fill="#afb4b266"/>
  <rect x="18" y="16" width="1" height="1" fill="#fcffffca"/>
  <rect x="19" y="16" width="1" height="1" fill="#20252333"/>
  <rect x="20" y="16" width="1" height="1" fill="#f9fcf8b9"/>
  <rect x="21" y="16" width="1" height="1" fill="#f6f9f6b9"/>
  <rect x="22" y="16" width="1" height="1" fill="#ffffffb9"/>
  <rect x="23" y="16" width="1" height="1" fill="#26262633"/>
  <rect x="24" y="16" width="1" height="1" fill="#fefbffb9"/>
  <rect x="25" y="16" width="1" height="1" fill="#f9f9fbca"/>
  <rect x="26" y="16" width="1" height="1" fill="#b3babc66"/>
  <rect x="27" y="16" width="1" height="1" fill="#1c282f1a"/>
  <rect x="3" y="17" width="1" height="1" fill="#1f21212a"/>
  <rect x="4" y="17" width="1" height="1" fill="#e7ece8a3"/>
  <rect x="5" y="17" width="1" height="1" fill="#fbfefbbc"/>
  <rect x="6" y="17" width="1" height="1" fill="#f6f6f4b9"/>
  <rect x="7" y="17" width="1" height="1" fill="#fcfaf8b9"/>
  <rect x="8" y="17" width="1" height="1" fill="#ffffffbc"/>
  <rect x="9" y="17" width="1" height="1" fill="#fcfbfcd0"/>
  <rect x="10" y="17" width="1" height="1" fill="#c8c8c87c"/>
  <rect x="11" y="17" width="1" height="1" fill="#2d2d2d35"/>
  <rect x="12" y="17" width="1" height="1" fill="#2626263e"/>
  <rect x="13" y="17" width="1" height="1" fill="#2929293f"/>
  <rect x="14" y="17" width="1" height="1" fill="#26262635"/>
  <rect x="15" y="17" width="1" height="1" fill="#c8c8c880"/>
  <rect x="16" y="17" width="1" height="1" fill="#8f919053"/>
  <rect x="17" y="17" width="1" height="1" fill="#e8ebeaa9"/>
  <rect x="18" y="17" width="1" height="1" fill="#f6fbf9b9"/>
  <rect x="19" y="17" width="1" height="1" fill="#1b201e33"/>
  <rect x="20" y="17" width="1" height="1" fill="#272a2933"/>
  <rect x="21" y="17" width="1" height="1" fill="#fcfffeb9"/>
  <rect x="22" y="17" width="1" height="1" fill="#26282833"/>
  <rect x="23" y="17" width="1" height="1" fill="#28272a33"/>
  <rect x="24" y="17" width="2" height="2" fill="#ffffffb9"/>
  <rect x="26" y="17" width="1" height="1" fill="#e2e7e7a9"/>
  <rect x="27" y="17" width="1" height="1" fill="#18252c2c"/>
  <rect x="2" y="18" width="1" height="1" fill="#242c3213"/>
  <rect x="3" y="18" width="1" height="1" fill="#8a8d8c51"/>
  <rect x="4" y="18" width="1" height="1" fill="#fdfffec3"/>
  <rect x="5" y="18" width="1" height="1" fill="#ffffffb9"/>
  <rect x="6" y="18" width="1" height="1" fill="#fcfcf9b9"/>
  <rect x="7" y="18" width="1" height="1" fill="#fefcfbb9"/>
  <rect x="8" y="18" width="1" height="1" fill="#ffffffb9"/>
  <rect x="9" y="18" width="1" height="1" fill="#ffffffba"/>
  <rect x="10" y="18" width="1" height="1" fill="#ffffffcd"/>
  <rect x="11" y="18" width="1" height="1" fill="#f8f8f8c7"/>
  <rect x="12" y="18" width="1" height="1" fill="#d6d6d68f"/>
  <rect x="13" y="18" width="1" height="1" fill="#dedede91"/>
  <rect x="14" y="18" width="1" height="1" fill="#f8f8f8ca"/>
  <rect x="15" y="18" width="1" height="1" fill="#ffffffcc"/>
  <rect x="16" y="18" width="1" height="1" fill="#2e313037"/>
  <rect x="17" y="18" width="1" height="1" fill="#fcfffebb"/>
  <rect x="18" y="18" width="1" height="1" fill="#fdffffb9"/>
  <rect x="19" y="18" width="1" height="1" fill="#ffffffdc"/>
  <rect x="20" y="18" width="1" height="1" fill="#21242333"/>
  <rect x="21" y="18" width="1" height="1" fill="#1c1e1d33"/>
  <rect x="22" y="18" width="1" height="1" fill="#23252433"/>
  <rect x="23" y="18" width="1" height="1" fill="#ffffffdc"/>
  <rect x="26" y="18" width="1" height="1" fill="#ffffffbb"/>
  <rect x="27" y="18" width="1" height="1" fill="#1b252d32"/>
  <rect x="28" y="18" width="1" height="1" fill="#25364b0a"/>
  <rect x="2" y="19" width="1" height="1" fill="#1d252b25"/>
  <rect x="3" y="19" width="1" height="1" fill="#d3d6d58a"/>
  <rect x="4" y="19" width="1" height="1" fill="#fdfffeb9"/>
  <rect x="5" y="19" width="1" height="1" fill="#fffffeb9"/>
  <rect x="6" y="19" width="1" height="1" fill="#fffffdb9"/>
  <rect x="7" y="19" width="1" height="1" fill="#fbf9f7b9"/>
  <rect x="8" y="19" width="3" height="1" fill="#ffffffb9"/>
  <rect x="11" y="19" width="1" height="1" fill="#fefefebd"/>
  <rect x="12" y="19" width="1" height="1" fill="#fefefec9"/>
  <rect x="13" y="19" width="1" height="1" fill="#fdfdfdc9"/>
  <rect x="14" y="19" width="1" height="1" fill="#fcfbfcbd"/>
  <rect x="15" y="19" width="1" height="1" fill="#ffffffb9"/>
  <rect x="16" y="19" width="1" height="1" fill="#3b3d3d37"/>
  <rect x="17" y="19" width="1" height="1" fill="#f4f6f6b4"/>
  <rect x="18" y="19" width="2" height="1" fill="#ffffffb9"/>
  <rect x="20" y="19" width="1" height="1" fill="#23252433"/>
  <rect x="21" y="19" width="1" height="1" fill="#20232233"/>
  <rect x="22" y="19" width="1" height="1" fill="#21242333"/>
  <rect x="23" y="19" width="1" height="1" fill="#ffffffb9"/>
  <rect x="24" y="19" width="1" height="1" fill="#fdfaffb9"/>
  <rect x="25" y="19" width="1" height="1" fill="#ffffffb9"/>
  <rect x="26" y="19" width="1" height="1" fill="#fbffffb4"/>
  <rect x="27" y="19" width="1" height="1" fill="#202a3233"/>
  <rect x="28" y="19" width="1" height="2" fill="#26354b0d"/>
  <rect x="2" y="20" width="1" height="1" fill="#1a22292e"/>
  <rect x="3" y="20" width="1" height="1" fill="#f5f8f7a9"/>
  <rect x="4" y="20" width="1" height="3" fill="#fcfffdb9"/>
  <rect x="5" y="20" width="1" height="3" fill="#fdfffdb9"/>
  <rect x="6" y="20" width="2" height="3" fill="#fffffdb9"/>
  <rect x="8" y="20" width="4" height="3" fill="#ffffffb9"/>
  <rect x="12" y="20" width="4" height="3" fill="#fefefeb9"/>
  <rect x="16" y="20" width="1" height="1" fill="#a1a4a358"/>
  <rect x="17" y="20" width="1" height="1" fill="#edf0ef98"/>
  <rect x="18" y="20" width="1" height="1" fill="#fbfdfdb9"/>
  <rect x="19" y="20" width="1" height="1" fill="#23252433"/>
  <rect x="20" y="20" width="1" height="1" fill="#181a1a33"/>
  <rect x="21" y="20" width="1" height="1" fill="#fdffffdc"/>
  <rect x="22" y="20" width="1" height="1" fill="#1e201f33"/>
  <rect x="23" y="20" width="1" height="1" fill="#22212433"/>
  <rect x="24" y="20" width="1" height="1" fill="#fcf9feb9"/>
  <rect x="25" y="20" width="1" height="1" fill="#fffdffb9"/>
  <rect x="26" y="20" width="1" height="1" fill="#e1e5e698"/>
  <rect x="27" y="20" width="1" height="1" fill="#1b252d30"/>
  <rect x="1" y="21" width="1" height="1" fill="#24344c0b"/>
  <rect x="2" y="21" width="1" height="2" fill="#1a222933"/>
  <rect x="3" y="21" width="1" height="1" fill="#f5f8f7b6"/>
  <rect x="16" y="21" width="1" height="1" fill="#d8dbda8f"/>
  <rect x="17" y="21" width="1" height="1" fill="#a7aaa95f"/>
  <rect x="18" y="21" width="1" height="1" fill="#ffffffb9"/>
  <rect x="19" y="21" width="1" height="1" fill="#272a2933"/>
  <rect x="20" y="21" width="1" height="1" fill="#ffffffdc"/>
  <rect x="21" y="21" width="1" height="1" fill="#fafcfcb9"/>
  <rect x="22" y="21" width="1" height="1" fill="#f6f9f8dc"/>
  <rect x="23" y="21" width="1" height="1" fill="#23232533"/>
  <rect x="24" y="21" width="1" height="1" fill="#ffffffb9"/>
  <rect x="25" y="21" width="1" height="1" fill="#fcf9feb9"/>
  <rect x="26" y="21" width="1" height="1" fill="#aaafb05f"/>
  <rect x="27" y="21" width="1" height="1" fill="#232d3528"/>
  <rect x="28" y="21" width="1" height="1" fill="#29374e0a"/>
  <rect x="1" y="22" width="1" height="1" fill="#24344c0e"/>
  <rect x="3" y="22" width="1" height="1" fill="#f5f8f7bb"/>
  <rect x="16" y="22" width="1" height="1" fill="#fbfdfdc4"/>
  <rect x="17" y="22" width="1" height="1" fill="#8e908f51"/>
  <rect x="18" y="22" width="1" height="1" fill="#d3d6d579"/>
  <rect x="19" y="22" width="1" height="1" fill="#ffffffdc"/>
  <rect x="20" y="22" width="1" height="1" fill="#fdffffb9"/>
  <rect x="21" y="22" width="1" height="1" fill="#f8faf9b9"/>
  <rect x="22" y="22" width="1" height="1" fill="#fbfdfdb9"/>
  <rect x="23" y="22" width="1" height="1" fill="#fdfcffdc"/>
  <rect x="24" y="22" width="1" height="1" fill="#fffcffb9"/>
  <rect x="25" y="22" width="1" height="1" fill="#d4d1d779"/>
  <rect x="26" y="22" width="1" height="1" fill="#262a2b35"/>
  <rect x="27" y="22" width="1" height="1" fill="#303a4218"/>
  <rect x="1" y="23" width="1" height="1" fill="#2435480d"/>
  <rect x="2" y="23" width="1" height="1" fill="#19232b32"/>
  <rect x="3" y="23" width="1" height="1" fill="#f2f9f9b0"/>
  <rect x="4" y="23" width="1" height="1" fill="#faffffb9"/>
  <rect x="5" y="23" width="1" height="1" fill="#fcffffb9"/>
  <rect x="6" y="23" width="6" height="1" fill="#fdffffb9"/>
  <rect x="12" y="23" width="3" height="1" fill="#fcfeffb9"/>
  <rect x="15" y="23" width="1" height="1" fill="#fbffffb9"/>
  <rect x="16" y="23" width="1" height="1" fill="#f7fbfeba"/>
  <rect x="17" y="23" width="1" height="1" fill="#eff3f6c4"/>
  <rect x="18" y="23" width="1" height="1" fill="#878b8f4f"/>
  <rect x="19" y="23" width="1" height="1" fill="#a4aaad5c"/>
  <rect x="20" y="23" width="1" height="1" fill="#eff5f797"/>
  <rect x="21" y="23" width="1" height="1" fill="#fdffffb3"/>
  <rect x="22" y="23" width="1" height="1" fill="#f9ffffb3"/>
  <rect x="23" y="23" width="1" height="1" fill="#e9eff297"/>
  <rect x="24" y="23" width="1" height="1" fill="#a2a5ad5c"/>
  <rect x="25" y="23" width="1" height="1" fill="#292c3636"/>
  <rect x="26" y="23" width="1" height="1" fill="#272f3523"/>
  <rect x="27" y="23" width="1" height="1" fill="#26343f0d"/>
  <rect x="1" y="24" width="1" height="1" fill="#22323f0a"/>
  <rect x="2" y="24" width="1" height="1" fill="#1e2a3428"/>
  <rect x="3" y="24" width="1" height="1" fill="#1c272c33"/>
  <rect x="4" y="24" width="2" height="1" fill="#19232933"/>
  <rect x="6" y="24" width="3" height="1" fill="#1a222933"/>
  <rect x="9" y="24" width="3" height="1" fill="#1a222b33"/>
  <rect x="12" y="24" width="3" height="1" fill="#1b232c33"/>
  <rect x="15" y="24" width="1" height="1" fill="#19232b33"/>
  <rect x="16" y="24" width="1" height="1" fill="#1a242c33"/>
  <rect x="17" y="24" width="1" height="1" fill="#1d272f34"/>
  <rect x="18" y="24" width="1" height="1" fill="#212b3335"/>
  <rect x="19" y="24" width="1" height="1" fill="#1d293138"/>
  <rect x="20" y="24" width="1" height="1" fill="#1b272e38"/>
  <rect x="21" y="24" width="1" height="1" fill="#19282e34"/>
  <rect x="22" y="24" width="1" height="1" fill="#1b2a3134"/>
  <rect x="23" y="24" width="1" height="1" fill="#1a2b3338"/>
  <rect x="24" y="24" width="1" height="1" fill="#1c2c3b34"/>
  <rect x="25" y="24" width="1" height="1" fill="#1f2e4220"/>
  <rect x="26" y="24" width="1" height="1" fill="#2133460f"/>
  <rect x="2" y="25" width="1" height="1" fill="#2335410f"/>
  <rect x="3" y="25" width="1" height="1" fill="#2436421e"/>
  <rect x="4" y="25" width="1" height="1" fill="#22323f29"/>
  <rect x="5" y="25" width="7" height="1" fill="#22323f2f"/>
  <rect x="12" y="25" width="1" height="1" fill="#2333402f"/>
  <rect x="13" y="25" width="2" height="1" fill="#2532402f"/>
  <rect x="15" y="25" width="1" height="1" fill="#2434412d"/>
  <rect x="16" y="25" width="1" height="1" fill="#24344128"/>
  <rect x="17" y="25" width="1" height="1" fill="#2434411f"/>
  <rect x="18" y="25" width="1" height="1" fill="#2333401a"/>
  <rect x="19" y="25" width="1" height="1" fill="#22323f1d"/>
  <rect x="20" y="25" width="1" height="1" fill="#22323f23"/>
  <rect x="21" y="25" width="1" height="1" fill="#21344029"/>
  <rect x="22" y="25" width="1" height="1" fill="#1f343f29"/>
  <rect x="23" y="25" width="1" height="1" fill="#1f334323"/>
  <rect x="24" y="25" width="1" height="1" fill="#1d324918"/>
  <rect x="25" y="25" width="1" height="1" fill="#1d324b0d"/>
  <rect x="3" y="26" width="1" height="1" fill="#203a4f0a"/>
  <rect x="4" y="26" width="1" height="1" fill="#1e364b0e"/>
  <rect x="5" y="26" width="7" height="1" fill="#1e364b0f"/>
  <rect x="12" y="26" width="1" height="1" fill="#21364c0f"/>
  <rect x="13" y="26" width="2" height="1" fill="#22354c0f"/>
  <rect x="15" y="26" width="1" height="1" fill="#23364d0f"/>
  <rect x="16" y="26" width="1" height="1" fill="#23364d0e"/>
  <rect x="17" y="26" width="1" height="1" fill="#22354c0b"/>
  <rect x="20" y="26" width="1" height="1" fill="#22354c0a"/>
  <rect x="21" y="26" width="1" height="1" fill="#22354c0d"/>
  <rect x="22" y="26" width="1" height="1" fill="#21344b0d"/>
  <rect x="23" y="26" width="1" height="1" fill="#1f354b0a"/>
</svg>