<svg xmlns="http://www.w3.org/2000/svg" width="40" height="14" viewBox="0 0 40 14" shape-rendering="crispEdges">
  <rect x="2" y="3" width="1" height="1" fill="#0101010e"/>
  <rect x="3" y="3" width="5" height="1" fill="#01010110"/>
  <rect x="8" y="3" width="3" height="1" fill="#00000010"/>
  <rect x="11" y="3" width="1" height="1" fill="#0000000e"/>
  <rect x="22" y="3" width="1" height="1" fill="#0101010e"/>
  <rect x="23" y="3" width="1" height="1" fill="#01010110"/>
  <rect x="24" y="3" width="7" height="1" fill="#02020210"/>
  <rect x="31" y="3" width="1" height="1" fill="#0202020e"/>
  <rect x="1" y="4" width="1" height="1" fill="#0000001d"/>
  <rect x="2" y="4" width="1" height="1" fill="#0808082d"/>
  <rect x="3" y="4" width="1" height="1" fill="#00000030"/>
  <rect x="4" y="4" width="4" height="1" fill="#02020230"/>
  <rect x="8" y="4" width="3" height="1" fill="#01010130"/>
  <rect x="11" y="4" width="1" height="1" fill="#0101012d"/>
  <rect x="12" y="4" width="1" height="1" fill="#0505051d"/>
  <rect x="15" y="4" width="1" height="1" fill="#07070722"/>
  <rect x="16" y="4" width="1" height="1" fill="#01010123"/>
  <rect x="17" y="4" width="3" height="1" fill="#0101012b"/>
  <rect x="20" y="4" width="4" height="1" fill="#0000002b"/>
  <rect x="24" y="4" width="2" height="1" fill="#0303032b"/>
  <rect x="26" y="4" width="1" height="1" fill="#00000031"/>
  <rect x="28" y="4" width="1" height="1" fill="#01010125"/>
  <rect x="29" y="4" width="1" height="1" fill="#0000002d"/>
  <rect x="30" y="4" width="1" height="1" fill="#0606062e"/>
  <rect x="31" y="4" width="1" height="1" fill="#0202022e"/>
  <rect x="32" y="4" width="4" height="1" fill="#0101012e"/>
  <rect x="36" y="4" width="1" height="1" fill="#0000002e"/>
  <rect x="37" y="4" width="1" height="1" fill="#0101012c"/>
  <rect x="38" y="4" width="1" height="1" fill="#03050524"/>
  <rect x="39" y="4" width="1" height="1" fill="#00000024"/>
  <rect x="0" y="5" width="1" height="1" fill="#0000000e"/>
  <rect x="1" y="5" width="1" height="1" fill="#0202022d"/>
  <rect x="2" y="5" width="1" height="1" fill="#fdfdfd8c"/>
  <rect x="3" y="5" width="1" height="1" fill="#f7f7f78c"/>
  <rect x="4" y="5" width="4" height="1" fill="#f5f5f58c"/>
  <rect x="8" y="5" width="4" height="1" fill="#f3f3f38c"/>
  <rect x="12" y="5" width="1" height="1" fill="#0202022d"/>
  <rect x="13" y="5" width="1" height="1" fill="#0101010e"/>
  <rect x="15" y="5" width="1" height="1" fill="#02020223"/>
  <rect x="16" y="5" width="1" height="1" fill="#f6f6f6cf"/>
  <rect x="17" y="5" width="1" height="1" fill="#f6f6f6ce"/>
  <rect x="18" y="5" width="2" height="2" fill="#f6f6f6cc"/>
  <rect x="20" y="5" width="4" height="1" fill="#f5f5f5cc"/>
  <rect x="24" y="5" width="1" height="1" fill="#f9f9f9cc"/>
  <rect x="25" y="5" width="1" height="2" fill="#e3e3e3cf"/>
  <rect x="26" y="5" width="1" height="1" fill="#03030320"/>
  <rect x="27" y="5" width="1" height="1" fill="#00000010"/>
  <rect x="28" y="5" width="1" height="3" fill="#00000022"/>
  <rect x="29" y="5" width="1" height="1" fill="#efefef92"/>
  <rect x="30" y="5" width="1" height="2" fill="#fcfbfc8c"/>
  <rect x="31" y="5" width="1" height="1" fill="#f8f8f88c"/>
  <rect x="32" y="5" width="4" height="2" fill="#f9f9f98c"/>
  <rect x="36" y="5" width="1" height="1" fill="#ffffff8c"/>
  <rect x="37" y="5" width="1" height="1" fill="#f8f8f88c"/>
  <rect x="38" y="5" width="1" height="1" fill="#eff2f191"/>
  <rect x="39" y="5" width="1" height="1" fill="#0305052f"/>
  <rect x="0" y="6" width="1" height="1" fill="#06060610"/>
  <rect x="1" y="6" width="1" height="1" fill="#0f0f0f30"/>
  <rect x="2" y="6" width="1" height="1" fill="#ffffff8c"/>
  <rect x="3" y="6" width="1" height="1" fill="#f1f1f18c"/>
  <rect x="4" y="6" width="4" height="1" fill="#fafafa8c"/>
  <rect x="8" y="6" width="4" height="1" fill="#f9f9f98c"/>
  <rect x="12" y="6" width="1" height="1" fill="#00000030"/>
  <rect x="13" y="6" width="1" height="1" fill="#00000010"/>
  <rect x="15" y="6" width="1" height="1" fill="#05050523"/>
  <rect x="16" y="6" width="2" height="1" fill="#f5f5f5cf"/>
  <rect x="20" y="6" width="2" height="1" fill="#f7f7f7cc"/>
  <rect x="22" y="6" width="3" height="1" fill="#f8f8f8cc"/>
  <rect x="26" y="6" width="1" height="1" fill="#0202021e"/>
  <rect x="27" y="6" width="1" height="1" fill="#02020216"/>
  <rect x="29" y="6" width="1" height="1" fill="#efefef93"/>
  <rect x="31" y="6" width="1" height="1" fill="#f5f5f58c"/>
  <rect x="36" y="6" width="1" height="1" fill="#f5f5f58c"/>
  <rect x="37" y="6" width="1" height="1" fill="#f7f7f78c"/>
  <rect x="38" y="6" width="1" height="1" fill="#ebedec92"/>
  <rect x="39" y="6" width="1" height="1" fill="#02040331"/>
  <rect x="0" y="7" width="1" height="1" fill="#0303030e"/>
  <rect x="1" y="7" width="1" height="1" fill="#0000002d"/>
  <rect x="2" y="7" width="1" height="1" fill="#f5f5f58c"/>
  <rect x="3" y="7" width="1" height="1" fill="#f8f8f88c"/>
  <rect x="4" y="7" width="4" height="1" fill="#f9f9f98c"/>
  <rect x="8" y="7" width="4" height="1" fill="#f8f8f88c"/>
  <rect x="12" y="7" width="1" height="1" fill="#0000002d"/>
  <rect x="13" y="7" width="1" height="1" fill="#0808080e"/>
  <rect x="15" y="7" width="1" height="1" fill="#00000023"/>
  <rect x="16" y="7" width="1" height="1" fill="#f8f8f8cf"/>
  <rect x="17" y="7" width="1" height="1" fill="#f8f8f8ce"/>
  <rect x="18" y="7" width="2" height="1" fill="#f9f9f9cc"/>
  <rect x="20" y="7" width="2" height="1" fill="#fafafacc"/>
  <rect x="22" y="7" width="2" height="1" fill="#fcfbfccc"/>
  <rect x="24" y="7" width="1" height="1" fill="#fdfdfdcc"/>
  <rect x="25" y="7" width="1" height="1" fill="#efefefcf"/>
  <rect x="26" y="7" width="1" height="1" fill="#05050520"/>
  <rect x="27" y="7" width="1" height="1" fill="#00000010"/>
  <rect x="29" y="7" width="1" height="1" fill="#efefef92"/>
  <rect x="30" y="7" width="1" height="1" fill="#f9f9f98c"/>
  <rect x="31" y="7" width="1" height="1" fill="#fafafa8c"/>
  <rect x="32" y="7" width="5" height="1" fill="#f7f7f78c"/>
  <rect x="37" y="7" width="1" height="1" fill="#f5f5f58c"/>
  <rect x="38" y="7" width="1" height="1" fill="#eef1f091"/>
  <rect x="39" y="7" width="1" height="1" fill="#0407062f"/>
  <rect x="1" y="8" width="1" height="1" fill="#0101011d"/>
  <rect x="2" y="8" width="1" height="1" fill="#0101012d"/>
  <rect x="3" y="8" width="7" height="1" fill="#00000030"/>
  <rect x="10" y="8" width="1" height="1" fill="#01010130"/>
  <rect x="11" y="8" width="1" height="1" fill="#0101012d"/>
  <rect x="12" y="8" width="1" height="1" fill="#0101011d"/>
  <rect x="15" y="8" width="1" height="1" fill="#00000022"/>
  <rect x="16" y="8" width="1" height="1" fill="#00000023"/>
  <rect x="17" y="8" width="9" height="1" fill="#0101012b"/>
  <rect x="26" y="8" width="1" height="1" fill="#01010131"/>
  <rect x="28" y="8" width="1" height="1" fill="#01010125"/>
  <rect x="29" y="8" width="1" height="1" fill="#0101012d"/>
  <rect x="30" y="8" width="2" height="1" fill="#0101012e"/>
  <rect x="32" y="8" width="5" height="1" fill="#0000002e"/>
  <rect x="37" y="8" width="1" height="1" fill="#0000002c"/>
  <rect x="38" y="8" width="2" height="1" fill="#00000024"/>
  <rect x="2" y="9" width="1" height="1" fill="#0101010e"/>
  <rect x="3" y="9" width="7" height="1" fill="#00000010"/>
  <rect x="10" y="9" width="1" height="1" fill="#01010110"/>
  <rect x="11" y="9" width="1" height="1" fill="#0101010e"/>
  <rect x="17" y="9" width="1" height="1" fill="#0101010e"/>
  <rect x="18" y="9" width="9" height="1" fill="#01010110"/>
  <rect x="27" y="9" width="1" height="1" fill="#01010112"/>
  <rect x="28" y="9" width="4" height="1" fill="#01010110"/>
  <rect x="32" y="9" width="5" height="1" fill="#00000010"/>
  <rect x="37" y="9" width="1" height="1" fill="#0000000e"/>
</svg>