<svg xmlns="http://www.w3.org/2000/svg" width="40" height="14" viewBox="0 0 40 14" shape-rendering="crispEdges">
  <rect x="2" y="0" width="1" height="1" fill="#0808080e"/>
  <rect x="3" y="0" width="1" height="1" fill="#0505050e"/>
  <rect x="9" y="0" width="1" height="1" fill="#0606060e"/>
  <rect x="10" y="0" width="1" height="1" fill="#0000000e"/>
  <rect x="16" y="0" width="1" height="1" fill="#0202020e"/>
  <rect x="17" y="0" width="1" height="1" fill="#0606060e"/>
  <rect x="23" y="0" width="1" height="1" fill="#0000000e"/>
  <rect x="24" y="0" width="1" height="1" fill="#0303030e"/>
  <rect x="29" y="0" width="1" height="1" fill="#0000000e"/>
  <rect x="30" y="0" width="1" height="1" fill="#0606060e"/>
  <rect x="36" y="0" width="1" height="1" fill="#0001000e"/>
  <rect x="37" y="0" width="1" height="1" fill="#0002010e"/>
  <rect x="1" y="1" width="1" height="1" fill="#0000001d"/>
  <rect x="2" y="1" width="1" height="1" fill="#0505052d"/>
  <rect x="3" y="1" width="1" height="1" fill="#0000002d"/>
  <rect x="4" y="1" width="1" height="1" fill="#00000020"/>
  <rect x="5" y="1" width="1" height="1" fill="#0303030d"/>
  <rect x="7" y="1" width="1" height="1" fill="#0000000d"/>
  <rect x="8" y="1" width="1" height="1" fill="#00000020"/>
  <rect x="9" y="1" width="2" height="1" fill="#0000002d"/>
  <rect x="11" y="1" width="1" height="1" fill="#0000001d"/>
  <rect x="15" y="1" width="1" height="1" fill="#0303031d"/>
  <rect x="16" y="1" width="1" height="1" fill="#0101012d"/>
  <rect x="17" y="1" width="1" height="1" fill="#0000002d"/>
  <rect x="18" y="1" width="1" height="1" fill="#00000020"/>
  <rect x="19" y="1" width="1" height="1" fill="#0000000d"/>
  <rect x="21" y="1" width="1" height="1" fill="#0000000d"/>
  <rect x="22" y="1" width="1" height="1" fill="#08080820"/>
  <rect x="23" y="1" width="2" height="1" fill="#0000002d"/>
  <rect x="25" y="1" width="1" height="1" fill="#0000001d"/>
  <rect x="28" y="1" width="1" height="1" fill="#0000001d"/>
  <rect x="29" y="1" width="2" height="1" fill="#0000002d"/>
  <rect x="31" y="1" width="1" height="1" fill="#02020220"/>
  <rect x="32" y="1" width="1" height="1" fill="#0103020d"/>
  <rect x="34" y="1" width="1" height="1" fill="#0305050d"/>
  <rect x="35" y="1" width="1" height="1" fill="#02040320"/>
  <rect x="36" y="1" width="1" height="1" fill="#0001002d"/>
  <rect x="37" y="1" width="1" height="1" fill="#0002012d"/>
  <rect x="38" y="1" width="1" height="1" fill="#0000001d"/>
  <rect x="0" y="2" width="1" height="1" fill="#0808080e"/>
  <rect x="1" y="2" width="1" height="1" fill="#0505052d"/>
  <rect x="2" y="2" width="1" height="1" fill="#f8f8f88c"/>
  <rect x="3" y="2" width="1" height="1" fill="#f5f5f58c"/>
  <rect x="4" y="2" width="1" height="1" fill="#02020235"/>
  <rect x="5" y="2" width="1" height="1" fill="#00000022"/>
  <rect x="6" y="2" width="1" height="1" fill="#01010116"/>
  <rect x="7" y="2" width="1" height="1" fill="#00000022"/>
  <rect x="8" y="2" width="1" height="1" fill="#00000035"/>
  <rect x="9" y="2" width="1" height="1" fill="#f8f8f88c"/>
  <rect x="10" y="2" width="1" height="1" fill="#ffffff8c"/>
  <rect x="11" y="2" width="1" height="2" fill="#0000002d"/>
  <rect x="12" y="2" width="1" height="2" fill="#0000000e"/>
  <rect x="14" y="2" width="1" height="2" fill="#0000000e"/>
  <rect x="15" y="2" width="1" height="1" fill="#0303032d"/>
  <rect x="16" y="2" width="1" height="1" fill="#f5f5f5cc"/>
  <rect x="17" y="2" width="1" height="1" fill="#fcfbfccc"/>
  <rect x="18" y="2" width="1" height="1" fill="#00000035"/>
  <rect x="19" y="2" width="1" height="1" fill="#00000022"/>
  <rect x="20" y="2" width="1" height="1" fill="#07070716"/>
  <rect x="21" y="2" width="1" height="1" fill="#08080822"/>
  <rect x="22" y="2" width="1" height="1" fill="#00000035"/>
  <rect x="23" y="2" width="1" height="1" fill="#f5f5f5cc"/>
  <rect x="24" y="2" width="1" height="1" fill="#f1f1f1cc"/>
  <rect x="25" y="2" width="1" height="1" fill="#0303032d"/>
  <rect x="26" y="2" width="1" height="1" fill="#0505050e"/>
  <rect x="27" y="2" width="1" height="2" fill="#0000000e"/>
  <rect x="28" y="2" width="1" height="2" fill="#0000002d"/>
  <rect x="29" y="2" width="1" height="1" fill="#ffffff8c"/>
  <rect x="30" y="2" width="1" height="1" fill="#f8f8f88c"/>
  <rect x="31" y="2" width="1" height="1" fill="#00000035"/>
  <rect x="32" y="2" width="1" height="1" fill="#00010022"/>
  <rect x="33" y="2" width="1" height="1" fill="#01030216"/>
  <rect x="34" y="2" width="1" height="1" fill="#00000022"/>
  <rect x="35" y="2" width="1" height="1" fill="#00010035"/>
  <rect x="36" y="2" width="1" height="1" fill="#f5f8f78c"/>
  <rect x="37" y="2" width="1" height="1" fill="#f6f9f88c"/>
  <rect x="38" y="2" width="1" height="1" fill="#0002012d"/>
  <rect x="39" y="2" width="1" height="2" fill="#0002010e"/>
  <rect x="0" y="3" width="1" height="1" fill="#0505050e"/>
  <rect x="1" y="3" width="1" height="1" fill="#0000002d"/>
  <rect x="2" y="3" width="1" height="1" fill="#f5f5f58c"/>
  <rect x="3" y="3" width="1" height="1" fill="#efefef8c"/>
  <rect x="4" y="3" width="1" height="1" fill="#fafafa8c"/>
  <rect x="5" y="3" width="1" height="1" fill="#07070735"/>
  <rect x="6" y="3" width="1" height="1" fill="#0707072e"/>
  <rect x="7" y="3" width="1" height="1" fill="#00000035"/>
  <rect x="8" y="3" width="1" height="2" fill="#fafafa8c"/>
  <rect x="9" y="3" width="1" height="1" fill="#f3f3f38c"/>
  <rect x="10" y="3" width="1" height="1" fill="#f8f8f88c"/>
  <rect x="15" y="3" width="1" height="1" fill="#0101012d"/>
  <rect x="16" y="3" width="1" height="1" fill="#f6f6f6cc"/>
  <rect x="17" y="3" width="1" height="2" fill="#fafafacc"/>
  <rect x="18" y="3" width="1" height="1" fill="#f8f8f8cc"/>
  <rect x="19" y="3" width="1" height="1" fill="#00000035"/>
  <rect x="20" y="3" width="1" height="1" fill="#0000002e"/>
  <rect x="21" y="3" width="1" height="1" fill="#00000035"/>
  <rect x="22" y="3" width="1" height="1" fill="#f5f5f5cc"/>
  <rect x="23" y="3" width="1" height="1" fill="#f0f0f0cc"/>
  <rect x="24" y="3" width="1" height="1" fill="#f8f8f8cc"/>
  <rect x="25" y="3" width="1" height="1" fill="#0202022d"/>
  <rect x="26" y="3" width="1" height="1" fill="#0707070e"/>
  <rect x="29" y="3" width="1" height="1" fill="#f8f8f88c"/>
  <rect x="30" y="3" width="1" height="1" fill="#f3f3f38c"/>
  <rect x="31" y="3" width="1" height="1" fill="#fafafa8c"/>
  <rect x="32" y="3" width="1" height="1" fill="#00000035"/>
  <rect x="33" y="3" width="1" height="1" fill="#0000002e"/>
  <rect x="34" y="3" width="1" height="1" fill="#00010035"/>
  <rect x="35" y="3" width="1" height="1" fill="#f8faf98c"/>
  <rect x="36" y="3" width="1" height="1" fill="#f4f6f68c"/>
  <rect x="37" y="3" width="1" height="1" fill="#f5f8f78c"/>
  <rect x="38" y="3" width="1" height="1" fill="#0001002d"/>
  <rect x="1" y="4" width="1" height="1" fill="#00000020"/>
  <rect x="2" y="4" width="1" height="1" fill="#00000035"/>
  <rect x="3" y="4" width="1" height="1" fill="#f7f7f78c"/>
  <rect x="4" y="4" width="2" height="1" fill="#fdfdfd8c"/>
  <rect x="6" y="4" width="1" height="1" fill="#0202023d"/>
  <rect x="7" y="4" width="1" height="1" fill="#f3f3f38c"/>
  <rect x="9" y="4" width="1" height="1" fill="#f6f6f68c"/>
  <rect x="10" y="4" width="1" height="1" fill="#00000035"/>
  <rect x="11" y="4" width="1" height="1" fill="#07070720"/>
  <rect x="15" y="4" width="1" height="1" fill="#01010120"/>
  <rect x="16" y="4" width="1" height="1" fill="#00000035"/>
  <rect x="18" y="4" width="1" height="1" fill="#f9f9f9cc"/>
  <rect x="19" y="4" width="1" height="1" fill="#f1f1f1cc"/>
  <rect x="20" y="4" width="1" height="1" fill="#0303033d"/>
  <rect x="21" y="4" width="1" height="1" fill="#f2f2f2cc"/>
  <rect x="22" y="4" width="2" height="1" fill="#fafafacc"/>
  <rect x="24" y="4" width="1" height="1" fill="#07070735"/>
  <rect x="25" y="4" width="1" height="1" fill="#02020220"/>
  <rect x="28" y="4" width="1" height="1" fill="#00000020"/>
  <rect x="29" y="4" width="1" height="1" fill="#00000035"/>
  <rect x="30" y="4" width="1" height="1" fill="#fdfdfd8c"/>
  <rect x="31" y="4" width="1" height="1" fill="#f7f7f78c"/>
  <rect x="32" y="4" width="1" height="2" fill="#f5f8f78c"/>
  <rect x="33" y="4" width="1" height="1" fill="#0204033d"/>
  <rect x="34" y="4" width="1" height="1" fill="#f6f9f88c"/>
  <rect x="35" y="4" width="1" height="1" fill="#fafcfc8c"/>
  <rect x="36" y="4" width="1" height="1" fill="#f3f5f58c"/>
  <rect x="37" y="4" width="1" height="1" fill="#04070635"/>
  <rect x="38" y="4" width="1" height="1" fill="#00000020"/>
  <rect x="1" y="5" width="1" height="1" fill="#0202020d"/>
  <rect x="2" y="5" width="1" height="1" fill="#00000022"/>
  <rect x="3" y="5" width="1" height="1" fill="#03030335"/>
  <rect x="4" y="5" width="1" height="1" fill="#f8f8f88c"/>
  <rect x="5" y="5" width="1" height="1" fill="#f5f5f58c"/>
  <rect x="6" y="5" width="2" height="1" fill="#f6f6f68c"/>
  <rect x="8" y="5" width="1" height="1" fill="#f8f8f88c"/>
  <rect x="9" y="5" width="1" height="1" fill="#07070735"/>
  <rect x="10" y="5" width="1" height="1" fill="#00000022"/>
  <rect x="11" y="5" width="1" height="1" fill="#0000000d"/>
  <rect x="15" y="5" width="1" height="1" fill="#0505050d"/>
  <rect x="16" y="5" width="1" height="1" fill="#0d0d0d22"/>
  <rect x="17" y="5" width="1" height="1" fill="#00000035"/>
  <rect x="18" y="5" width="1" height="1" fill="#f5f5f5cc"/>
  <rect x="19" y="5" width="1" height="1" fill="#f8f8f8cc"/>
  <rect x="20" y="5" width="1" height="1" fill="#f9f9f9cc"/>
  <rect x="21" y="5" width="1" height="1" fill="#ffffffcc"/>
  <rect x="22" y="5" width="1" height="1" fill="#fefefecc"/>
  <rect x="23" y="5" width="1" height="1" fill="#03030335"/>
  <rect x="24" y="5" width="1" height="1" fill="#00000022"/>
  <rect x="25" y="5" width="1" height="1" fill="#0505050d"/>
  <rect x="28" y="5" width="1" height="1" fill="#0000000d"/>
  <rect x="29" y="5" width="1" height="1" fill="#00000022"/>
  <rect x="30" y="5" width="1" height="1" fill="#02020235"/>
  <rect x="31" y="5" width="1" height="1" fill="#f9f9f98c"/>
  <rect x="33" y="5" width="1" height="1" fill="#f6f9f88c"/>
  <rect x="34" y="5" width="1" height="1" fill="#fafcfc8c"/>
  <rect x="35" y="5" width="1" height="1" fill="#f6f9f88c"/>
  <rect x="36" y="5" width="1" height="1" fill="#00000035"/>
  <rect x="37" y="5" width="1" height="1" fill="#00000022"/>
  <rect x="38" y="5" width="1" height="1" fill="#0103020d"/>
  <rect x="2" y="6" width="1" height="1" fill="#00000016"/>
  <rect x="3" y="6" width="1" height="1" fill="#0303032e"/>
  <rect x="4" y="6" width="1" height="1" fill="#0707073d"/>
  <rect x="5" y="6" width="1" height="1" fill="#f6f6f68c"/>
  <rect x="6" y="6" width="1" height="1" fill="#fafafa8c"/>
  <rect x="7" y="6" width="1" height="1" fill="#ffffff8c"/>
  <rect x="8" y="6" width="1" height="1" fill="#0000003d"/>
  <rect x="9" y="6" width="1" height="1" fill="#0000002e"/>
  <rect x="10" y="6" width="1" height="1" fill="#00000016"/>
  <rect x="16" y="6" width="1" height="1" fill="#03030316"/>
  <rect x="17" y="6" width="1" height="1" fill="#0000002e"/>
  <rect x="18" y="6" width="1" height="1" fill="#0808083d"/>
  <rect x="19" y="6" width="1" height="1" fill="#f7f7f7cc"/>
  <rect x="20" y="6" width="1" height="1" fill="#f1f1f1cc"/>
  <rect x="21" y="6" width="1" height="2" fill="#f8f8f8cc"/>
  <rect x="22" y="6" width="1" height="1" fill="#0000003d"/>
  <rect x="23" y="6" width="1" height="1" fill="#0808082e"/>
  <rect x="24" y="6" width="1" height="1" fill="#06060616"/>
  <rect x="29" y="6" width="1" height="1" fill="#09090916"/>
  <rect x="30" y="6" width="1" height="1" fill="#0000002e"/>
  <rect x="31" y="6" width="1" height="1" fill="#0000003d"/>
  <rect x="32" y="6" width="1" height="1" fill="#f6f9f88c"/>
  <rect x="33" y="6" width="1" height="1" fill="#f3f5f58c"/>
  <rect x="34" y="6" width="1" height="1" fill="#f6f9f88c"/>
  <rect x="35" y="6" width="1" height="1" fill="#0204033d"/>
  <rect x="36" y="6" width="1" height="1" fill="#0000002e"/>
  <rect x="37" y="6" width="1" height="1" fill="#00000016"/>
  <rect x="1" y="7" width="1" height="1" fill="#0000000d"/>
  <rect x="2" y="7" width="1" height="1" fill="#00000022"/>
  <rect x="3" y="7" width="1" height="1" fill="#00000035"/>
  <rect x="4" y="7" width="1" height="1" fill="#fdfdfd8c"/>
  <rect x="5" y="7" width="1" height="1" fill="#f2f2f28c"/>
  <rect x="6" y="7" width="2" height="1" fill="#f9f9f98c"/>
  <rect x="8" y="7" width="1" height="1" fill="#f2f2f28c"/>
  <rect x="9" y="7" width="1" height="1" fill="#00000035"/>
  <rect x="10" y="7" width="1" height="1" fill="#02020222"/>
  <rect x="11" y="7" width="1" height="1" fill="#0000000d"/>
  <rect x="15" y="7" width="1" height="1" fill="#0101010d"/>
  <rect x="16" y="7" width="1" height="1" fill="#00000022"/>
  <rect x="17" y="7" width="1" height="1" fill="#02020235"/>
  <rect x="18" y="7" width="1" height="1" fill="#f6f6f6cc"/>
  <rect x="19" y="7" width="1" height="1" fill="#f8f8f8cc"/>
  <rect x="20" y="7" width="1" height="1" fill="#fcfbfccc"/>
  <rect x="22" y="7" width="1" height="1" fill="#ebebebcc"/>
  <rect x="23" y="7" width="1" height="1" fill="#00000035"/>
  <rect x="24" y="7" width="1" height="1" fill="#00000022"/>
  <rect x="25" y="7" width="1" height="1" fill="#0505050d"/>
  <rect x="28" y="7" width="1" height="1" fill="#0000000d"/>
  <rect x="29" y="7" width="1" height="1" fill="#00000022"/>
  <rect x="30" y="7" width="1" height="1" fill="#00000035"/>
  <rect x="31" y="7" width="1" height="2" fill="#f8f8f88c"/>
  <rect x="32" y="7" width="1" height="1" fill="#f3f5f58c"/>
  <rect x="33" y="7" width="1" height="1" fill="#f6f9f88c"/>
  <rect x="34" y="7" width="1" height="1" fill="#f5f8f78c"/>
  <rect x="35" y="7" width="1" height="1" fill="#f6f9f88c"/>
  <rect x="36" y="7" width="1" height="1" fill="#02040335"/>
  <rect x="37" y="7" width="1" height="1" fill="#00010022"/>
  <rect x="38" y="7" width="1" height="1" fill="#0001000d"/>
  <rect x="1" y="8" width="1" height="1" fill="#01010120"/>
  <rect x="2" y="8" width="1" height="1" fill="#00000035"/>
  <rect x="3" y="8" width="1" height="1" fill="#f2f2f28c"/>
  <rect x="4" y="8" width="1" height="1" fill="#f8f8f88c"/>
  <rect x="5" y="8" width="1" height="1" fill="#fdfdfd8c"/>
  <rect x="6" y="8" width="1" height="1" fill="#0909093d"/>
  <rect x="7" y="8" width="1" height="1" fill="#f6f6f68c"/>
  <rect x="8" y="8" width="1" height="1" fill="#f8f8f88c"/>
  <rect x="9" y="8" width="1" height="1" fill="#f7f7f78c"/>
  <rect x="10" y="8" width="1" height="1" fill="#02020235"/>
  <rect x="11" y="8" width="1" height="1" fill="#08080820"/>
  <rect x="15" y="8" width="1" height="1" fill="#00000020"/>
  <rect x="16" y="8" width="1" height="1" fill="#00000035"/>
  <rect x="17" y="8" width="1" height="1" fill="#fcfbfccc"/>
  <rect x="18" y="8" width="1" height="1" fill="#fafafacc"/>
  <rect x="19" y="8" width="1" height="1" fill="#f6f6f6cc"/>
  <rect x="20" y="8" width="1" height="1" fill="#0707073d"/>
  <rect x="21" y="8" width="1" height="1" fill="#fdfdfdcc"/>
  <rect x="22" y="8" width="1" height="1" fill="#f9f9f9cc"/>
  <rect x="23" y="8" width="1" height="1" fill="#f5f5f5cc"/>
  <rect x="24" y="8" width="1" height="1" fill="#07070735"/>
  <rect x="25" y="8" width="1" height="1" fill="#01010120"/>
  <rect x="28" y="8" width="1" height="1" fill="#00000020"/>
  <rect x="29" y="8" width="1" height="1" fill="#00000035"/>
  <rect x="30" y="8" width="1" height="1" fill="#fdfdfd8c"/>
  <rect x="32" y="8" width="1" height="1" fill="#f5f5f58c"/>
  <rect x="33" y="8" width="1" height="1" fill="#0505053d"/>
  <rect x="34" y="8" width="1" height="1" fill="#f6f6f68c"/>
  <rect x="35" y="8" width="1" height="1" fill="#f9f9f98c"/>
  <rect x="36" y="8" width="1" height="1" fill="#f5f5f58c"/>
  <rect x="37" y="8" width="1" height="1" fill="#05050535"/>
  <rect x="38" y="8" width="1" height="1" fill="#00000020"/>
  <rect x="0" y="9" width="1" height="1" fill="#0000000e"/>
  <rect x="1" y="9" width="1" height="1" fill="#0202022d"/>
  <rect x="2" y="9" width="1" height="1" fill="#f8f8f88c"/>
  <rect x="3" y="9" width="1" height="1" fill="#f0f0f08c"/>
  <rect x="4" y="9" width="1" height="1" fill="#f5f5f58c"/>
  <rect x="5" y="9" width="1" height="1" fill="#00000035"/>
  <rect x="6" y="9" width="1" height="1" fill="#0707072e"/>
  <rect x="7" y="9" width="1" height="1" fill="#03030335"/>
  <rect x="8" y="9" width="1" height="1" fill="#f9f9f98c"/>
  <rect x="9" y="9" width="2" height="1" fill="#f1f1f18c"/>
  <rect x="11" y="9" width="1" height="1" fill="#0707072d"/>
  <rect x="12" y="9" width="1" height="2" fill="#0000000e"/>
  <rect x="14" y="9" width="1" height="2" fill="#0303030e"/>
  <rect x="15" y="9" width="1" height="2" fill="#0000002d"/>
  <rect x="16" y="9" width="1" height="2" fill="#f6f6f6cc"/>
  <rect x="17" y="9" width="1" height="1" fill="#fdfdfdcc"/>
  <rect x="18" y="9" width="1" height="1" fill="#f8f8f8cc"/>
  <rect x="19" y="9" width="1" height="1" fill="#07070735"/>
  <rect x="20" y="9" width="1" height="1" fill="#0202022e"/>
  <rect x="21" y="9" width="1" height="1" fill="#05050535"/>
  <rect x="22" y="9" width="1" height="1" fill="#f0f0f0cc"/>
  <rect x="23" y="9" width="2" height="1" fill="#f7f7f7cc"/>
  <rect x="25" y="9" width="1" height="1" fill="#0000002d"/>
  <rect x="26" y="9" width="1" height="1" fill="#0505050e"/>
  <rect x="27" y="9" width="1" height="1" fill="#0303030e"/>
  <rect x="28" y="9" width="1" height="1" fill="#0303032d"/>
  <rect x="29" y="9" width="1" height="1" fill="#efefef8c"/>
  <rect x="30" y="9" width="1" height="1" fill="#f1f1f18c"/>
  <rect x="31" y="9" width="1" height="1" fill="#f2f2f28c"/>
  <rect x="32" y="9" width="1" height="1" fill="#00000035"/>
  <rect x="33" y="9" width="1" height="1" fill="#0101012e"/>
  <rect x="34" y="9" width="1" height="1" fill="#02020235"/>
  <rect x="35" y="9" width="1" height="1" fill="#f5f5f58c"/>
  <rect x="36" y="9" width="1" height="1" fill="#fafafa8c"/>
  <rect x="37" y="9" width="1" height="1" fill="#f5f5f58c"/>
  <rect x="38" y="9" width="1" height="2" fill="#0000002d"/>
  <rect x="39" y="9" width="1" height="2" fill="#0000000e"/>
  <rect x="0" y="10" width="1" height="1" fill="#0101010e"/>
  <rect x="1" y="10" width="1" height="1" fill="#0303032d"/>
  <rect x="2" y="10" width="1" height="1" fill="#fafafa8c"/>
  <rect x="3" y="10" width="1" height="1" fill="#f6f6f68c"/>
  <rect x="4" y="10" width="1" height="1" fill="#00000035"/>
  <rect x="5" y="10" width="1" height="1" fill="#05050522"/>
  <rect x="6" y="10" width="1" height="1" fill="#03030316"/>
  <rect x="7" y="10" width="1" height="1" fill="#00000022"/>
  <rect x="8" y="10" width="1" height="1" fill="#00000035"/>
  <rect x="9" y="10" width="2" height="1" fill="#f2f2f28c"/>
  <rect x="11" y="10" width="1" height="1" fill="#0000002d"/>
  <rect x="17" y="10" width="1" height="1" fill="#f3f3f3cc"/>
  <rect x="18" y="10" width="1" height="1" fill="#01010135"/>
  <rect x="19" y="10" width="1" height="1" fill="#09090922"/>
  <rect x="20" y="10" width="1" height="1" fill="#00000016"/>
  <rect x="21" y="10" width="1" height="1" fill="#05050522"/>
  <rect x="22" y="10" width="1" height="1" fill="#00000035"/>
  <rect x="23" y="10" width="1" height="1" fill="#f1f1f1cc"/>
  <rect x="24" y="10" width="1" height="1" fill="#f6f6f6cc"/>
  <rect x="25" y="10" width="1" height="1" fill="#0505052d"/>
  <rect x="26" y="10" width="2" height="1" fill="#0000000e"/>
  <rect x="28" y="10" width="1" height="1" fill="#0707072d"/>
  <rect x="29" y="10" width="1" height="1" fill="#f2f2f28c"/>
  <rect x="30" y="10" width="1" height="1" fill="#f9f9f98c"/>
  <rect x="31" y="10" width="1" height="1" fill="#02020235"/>
  <rect x="32" y="10" width="1" height="1" fill="#01010122"/>
  <rect x="33" y="10" width="1" height="1" fill="#02020216"/>
  <rect x="34" y="10" width="1" height="1" fill="#02020222"/>
  <rect x="35" y="10" width="1" height="1" fill="#02020235"/>
  <rect x="36" y="10" width="1" height="1" fill="#fcfbfc8c"/>
  <rect x="37" y="10" width="1" height="1" fill="#fafafa8c"/>
  <rect x="1" y="11" width="1" height="1" fill="#0303031d"/>
  <rect x="2" y="11" width="1" height="1" fill="#0000002d"/>
  <rect x="3" y="11" width="1" height="1" fill="#0707072d"/>
  <rect x="4" y="11" width="1" height="1" fill="#09090920"/>
  <rect x="5" y="11" width="1" height="1" fill="#0000000d"/>
  <rect x="7" y="11" width="1" height="1" fill="#0303030d"/>
  <rect x="8" y="11" width="1" height="1" fill="#00000020"/>
  <rect x="9" y="11" width="1" height="1" fill="#0606062d"/>
  <rect x="10" y="11" width="1" height="1" fill="#0000002d"/>
  <rect x="11" y="11" width="1" height="1" fill="#0606061d"/>
  <rect x="15" y="11" width="1" height="1" fill="#0000001d"/>
  <rect x="16" y="11" width="1" height="1" fill="#0000002d"/>
  <rect x="17" y="11" width="1" height="1" fill="#0202022d"/>
  <rect x="18" y="11" width="1" height="1" fill="#03030320"/>
  <rect x="19" y="11" width="1" height="1" fill="#0000000d"/>
  <rect x="21" y="11" width="1" height="1" fill="#0000000d"/>
  <rect x="22" y="11" width="1" height="1" fill="#01010120"/>
  <rect x="23" y="11" width="2" height="1" fill="#0000002d"/>
  <rect x="25" y="11" width="1" height="1" fill="#0707071d"/>
  <rect x="28" y="11" width="1" height="1" fill="#0505051d"/>
  <rect x="29" y="11" width="2" height="1" fill="#0000002d"/>
  <rect x="31" y="11" width="1" height="1" fill="#00000020"/>
  <rect x="32" y="11" width="1" height="1" fill="#0000000d"/>
  <rect x="34" y="11" width="1" height="1" fill="#0303030d"/>
  <rect x="35" y="11" width="1" height="1" fill="#03030320"/>
  <rect x="36" y="11" width="1" height="1" fill="#0101012d"/>
  <rect x="37" y="11" width="1" height="1" fill="#0303032d"/>
  <rect x="38" y="11" width="1" height="1" fill="#0101011d"/>
  <rect x="2" y="12" width="2" height="1" fill="#0202020e"/>
  <rect x="9" y="12" width="2" height="1" fill="#0000000e"/>
  <rect x="16" y="12" width="1" height="1" fill="#0101010e"/>
  <rect x="17" y="12" width="1" height="1" fill="#0505050e"/>
  <rect x="23" y="12" width="1" height="1" fill="#0101010e"/>
  <rect x="24" y="12" width="1" height="1" fill="#0303030e"/>
  <rect x="29" y="12" width="1" height="1" fill="#0606060e"/>
  <rect x="30" y="12" width="1" height="1" fill="#0303030e"/>
  <rect x="36" y="12" width="1" height="1" fill="#0101010e"/>
  <rect x="37" y="12" width="1" height="1" fill="#0303030e"/>
</svg>