<svg xmlns="http://www.w3.org/2000/svg" width="16" height="16" viewBox="0 0 16 16" shape-rendering="crispEdges">
  <rect x="0" y="0" width="1" height="1" fill="#c2c4c649"/>
  <rect x="1" y="0" width="1" height="1" fill="#c2c4c6e6"/>
  <rect x="2" y="0" width="1" height="1" fill="#caccce"/>
  <rect x="3" y="0" width="1" height="1" fill="#c6c8c9"/>
  <rect x="4" y="0" width="7" height="1" fill="#caccce"/>
  <rect x="11" y="0" width="2" height="1" fill="#c9cbcd"/>
  <rect x="13" y="0" width="1" height="1" fill="#c8cacb"/>
  <rect x="14" y="0" width="1" height="1" fill="#c8cacbe6"/>
  <rect x="15" y="0" width="1" height="1" fill="#c8cacb49"/>
  <rect x="0" y="1" width="1" height="1" fill="#c9cbcde6"/>
  <rect x="1" y="1" width="1" height="1" fill="#c8cacb"/>
  <rect x="2" y="1" width="1" height="1" fill="#a6a8aa"/>
  <rect x="3" y="1" width="1" height="1" fill="#909294"/>
  <rect x="4" y="1" width="2" height="1" fill="#898b8d"/>
  <rect x="6" y="1" width="2" height="1" fill="#8a8c8e"/>
  <rect x="8" y="1" width="1" height="1" fill="#8b8d8f"/>
  <rect x="9" y="1" width="1" height="1" fill="#8c8e90"/>
  <rect x="10" y="1" width="2" height="1" fill="#8e9091"/>
  <rect x="12" y="1" width="3" height="1" fill="#c8cacb"/>
  <rect x="15" y="1" width="1" height="1" fill="#c8cacbe6"/>
  <rect x="0" y="2" width="1" height="1" fill="#cbcdcf"/>
  <rect x="1" y="2" width="1" height="1" fill="#caccce"/>
  <rect x="2" y="2" width="1" height="1" fill="#8f91927a"/>
  <rect x="11" y="2" width="1" height="1" fill="#c3c5c719"/>
  <rect x="12" y="2" width="1" height="1" fill="#c6c8c9c8"/>
  <rect x="13" y="2" width="1" height="1" fill="#c7c9ca"/>
  <rect x="14" y="2" width="2" height="1" fill="#c8cacb"/>
  <rect x="0" y="3" width="1" height="1" fill="#c7c9ca"/>
  <rect x="1" y="3" width="1" height="2" fill="#c8cacb"/>
  <rect x="10" y="3" width="1" height="1" fill="#c7c9ca19"/>
  <rect x="11" y="3" width="1" height="1" fill="#c7c9cad8"/>
  <rect x="12" y="3" width="2" height="1" fill="#c7c9ca"/>
  <rect x="14" y="3" width="1" height="1" fill="#c8cacb"/>
  <rect x="15" y="3" width="1" height="1" fill="#c7c9ca"/>
  <rect x="0" y="4" width="1" height="8" fill="#c6c8c9"/>
  <rect x="9" y="4" width="1" height="1" fill="#c9cbcd18"/>
  <rect x="10" y="4" width="1" height="1" fill="#c9cbcdd7"/>
  <rect x="11" y="4" width="2" height="1" fill="#caccce"/>
  <rect x="13" y="4" width="1" height="1" fill="#c9cbcd"/>
  <rect x="14" y="4" width="1" height="1" fill="#caccce"/>
  <rect x="15" y="4" width="1" height="1" fill="#c6c8c9"/>
  <rect x="1" y="5" width="1" height="7" fill="#c9cbcd"/>
  <rect x="8" y="5" width="1" height="1" fill="#c4c6c817"/>
  <rect x="9" y="5" width="1" height="1" fill="#c9cbcdd6"/>
  <rect x="10" y="5" width="1" height="1" fill="#c9cbcd"/>
  <rect x="11" y="5" width="1" height="1" fill="#cdcfd0"/>
  <rect x="12" y="5" width="1" height="1" fill="#ced0d1"/>
  <rect x="13" y="5" width="1" height="1" fill="#cbcdcf"/>
  <rect x="14" y="5" width="1" height="1" fill="#c7c9ca"/>
  <rect x="15" y="5" width="1" height="1" fill="#c8cacb"/>
  <rect x="7" y="6" width="1" height="1" fill="#c1c3c416"/>
  <rect x="8" y="6" width="1" height="1" fill="#c4c6c8d5"/>
  <rect x="9" y="6" width="2" height="2" fill="#c9cbcd"/>
  <rect x="11" y="6" width="1" height="2" fill="#caccce"/>
  <rect x="12" y="6" width="1" height="1" fill="#c8cacb"/>
  <rect x="13" y="6" width="1" height="1" fill="#b3b5b6"/>
  <rect x="14" y="6" width="2" height="1" fill="#c9cbcd"/>
  <rect x="7" y="7" width="1" height="1" fill="#9ea0a2cb"/>
  <rect x="8" y="7" width="1" height="1" fill="#c4c6c8"/>
  <rect x="12" y="7" width="1" height="1" fill="#b5b7b9"/>
  <rect x="13" y="7" width="1" height="1" fill="#8f9192a3"/>
  <rect x="14" y="7" width="1" height="1" fill="#d0d2d4"/>
  <rect x="15" y="7" width="1" height="2" fill="#c9cbcd"/>
  <rect x="6" y="8" width="1" height="1" fill="#c3c5c724"/>
  <rect x="7" y="8" width="1" height="1" fill="#989a9c43"/>
  <rect x="8" y="8" width="1" height="1" fill="#9c9e9ff4"/>
  <rect x="9" y="8" width="1" height="1" fill="#c6c8c9"/>
  <rect x="10" y="8" width="1" height="1" fill="#c8cacb"/>
  <rect x="11" y="8" width="1" height="1" fill="#adafb1"/>
  <rect x="12" y="8" width="1" height="1" fill="#8b8d8fa5"/>
  <rect x="14" y="8" width="1" height="1" fill="#c3c5c7"/>
  <rect x="5" y="9" width="1" height="1" fill="#c1c3c4b0"/>
  <rect x="6" y="9" width="1" height="1" fill="#c7c9cae9"/>
  <rect x="7" y="9" width="1" height="1" fill="#c0c2c32a"/>
  <rect x="8" y="9" width="1" height="1" fill="#9597983c"/>
  <rect x="9" y="9" width="1" height="1" fill="#929496f1"/>
  <rect x="10" y="9" width="1" height="1" fill="#b2b4b5"/>
  <rect x="11" y="9" width="1" height="1" fill="#909294a7"/>
  <rect x="14" y="9" width="1" height="1" fill="#c9cbcd"/>
  <rect x="15" y="9" width="1" height="1" fill="#c8cacb"/>
  <rect x="5" y="10" width="1" height="1" fill="#cbcdcff0"/>
  <rect x="6" y="10" width="1" height="1" fill="#c7c9ca"/>
  <rect x="7" y="10" width="1" height="1" fill="#d0d2d4e7"/>
  <rect x="8" y="10" width="1" height="1" fill="#c7c9ca28"/>
  <rect x="9" y="10" width="1" height="1" fill="#989a9c35"/>
  <rect x="10" y="10" width="1" height="1" fill="#92949698"/>
  <rect x="14" y="10" width="1" height="1" fill="#cfd1d2"/>
  <rect x="15" y="10" width="1" height="1" fill="#caccce"/>
  <rect x="5" y="11" width="1" height="1" fill="#c8cacbf3"/>
  <rect x="6" y="11" width="1" height="1" fill="#c8cacb"/>
  <rect x="7" y="11" width="1" height="1" fill="#caccce"/>
  <rect x="8" y="11" width="1" height="1" fill="#bfc1c2e5"/>
  <rect x="9" y="11" width="1" height="1" fill="#8f919222"/>
  <rect x="14" y="11" width="1" height="1" fill="#caccce"/>
  <rect x="15" y="11" width="1" height="1" fill="#c2c4c6"/>
  <rect x="0" y="12" width="1" height="1" fill="#c9cbcd"/>
  <rect x="1" y="12" width="1" height="1" fill="#ced0d1"/>
  <rect x="5" y="12" width="1" height="1" fill="#8e9091"/>
  <rect x="6" y="12" width="1" height="1" fill="#8b8d8f"/>
  <rect x="7" y="12" width="1" height="1" fill="#909294"/>
  <rect x="8" y="12" width="1" height="1" fill="#8a8c8ec9"/>
  <rect x="9" y="12" width="1" height="1" fill="#8b8d8f0f"/>
  <rect x="14" y="12" width="1" height="1" fill="#cdcfd0"/>
  <rect x="15" y="12" width="1" height="2" fill="#c4c6c8"/>
  <rect x="0" y="13" width="1" height="1" fill="#c8cacb"/>
  <rect x="1" y="13" width="1" height="1" fill="#c7c9ca"/>
  <rect x="2" y="13" width="1" height="1" fill="#c7c9ca7a"/>
  <rect x="13" y="13" width="1" height="1" fill="#cbcdcf7b"/>
  <rect x="14" y="13" width="1" height="1" fill="#c9cbcd"/>
  <rect x="0" y="14" width="1" height="1" fill="#a1a3a5e6"/>
  <rect x="1" y="14" width="1" height="1" fill="#c3c5c7"/>
  <rect x="2" y="14" width="1" height="1" fill="#c7c9ca"/>
  <rect x="3" y="14" width="1" height="1" fill="#caccce"/>
  <rect x="4" y="14" width="1" height="1" fill="#cbcdcf"/>
  <rect x="5" y="14" width="1" height="1" fill="#d0d2d4"/>
  <rect x="6" y="14" width="1" height="1" fill="#c9cbcd"/>
  <rect x="7" y="14" width="1" height="1" fill="#c7c9ca"/>
  <rect x="8" y="14" width="1" height="1" fill="#ced0d1"/>
  <rect x="9" y="14" width="1" height="1" fill="#caccce"/>
  <rect x="10" y="14" width="1" height="1" fill="#c1c3c4"/>
  <rect x="11" y="14" width="1" height="1" fill="#c9cbcd"/>
  <rect x="12" y="14" width="1" height="1" fill="#c6c8c9"/>
  <rect x="13" y="14" width="1" height="1" fill="#c3c5c7"/>
  <rect x="14" y="14" width="1" height="1" fill="#c6c8c9"/>
  <rect x="15" y="14" width="1" height="1" fill="#9ea0a2e6"/>
  <rect x="0" y="15" width="1" height="1" fill="#8b8d8f4a"/>
  <rect x="1" y="15" width="1" height="1" fill="#909294e3"/>
  <rect x="2" y="15" width="1" height="1" fill="#919395"/>
  <rect x="3" y="15" width="1" height="1" fill="#898b8d"/>
  <rect x="4" y="15" width="1" height="1" fill="#8f9192"/>
  <rect x="5" y="15" width="1" height="1" fill="#929496"/>
  <rect x="6" y="15" width="1" height="1" fill="#858789"/>
  <rect x="7" y="15" width="1" height="1" fill="#929496"/>
  <rect x="8" y="15" width="1" height="1" fill="#8b8d8f"/>
  <rect x="9" y="15" width="1" height="1" fill="#939597"/>
  <rect x="10" y="15" width="1" height="1" fill="#8b8d8f"/>
  <rect x="11" y="15" width="1" height="1" fill="#909294"/>
  <rect x="12" y="15" width="1" height="1" fill="#87898a"/>
  <rect x="13" y="15" width="1" height="1" fill="#909294"/>
  <rect x="14" y="15" width="1" height="1" fill="#8f9192e7"/>
  <rect x="15" y="15" width="1" height="1" fill="#8e90914a"/>
</svg>