<svg xmlns="http://www.w3.org/2000/svg" width="240" height="28" viewBox="0 0 240 28" shape-rendering="crispEdges">
  <rect x="3" y="1" width="1" height="1" fill="#0000001c"/>
  <rect x="4" y="1" width="1" height="1" fill="#00000024"/>
  <rect x="5" y="1" width="3" height="1" fill="#00000026"/>
  <rect x="8" y="1" width="2" height="1" fill="#01010126"/>
  <rect x="10" y="1" width="4" height="1" fill="#02020226"/>
  <rect x="14" y="1" width="2" height="1" fill="#01010126"/>
  <rect x="16" y="1" width="59" height="1" fill="#00000026"/>
  <rect x="75" y="1" width="1" height="1" fill="#00000024"/>
  <rect x="76" y="1" width="1" height="1" fill="#0909091c"/>
  <rect x="82" y="1" width="1" height="1" fill="#4848480b"/>
  <rect x="83" y="1" width="1" height="1" fill="#4848482d"/>
  <rect x="84" y="1" width="1" height="1" fill="#3d3d3d3c"/>
  <rect x="85" y="1" width="1" height="1" fill="#3d3d3d40"/>
  <rect x="86" y="1" width="2" height="1" fill="#3e3e3e40"/>
  <rect x="88" y="1" width="2" height="1" fill="#3f3f3f40"/>
  <rect x="90" y="1" width="6" height="1" fill="#40404040"/>
  <rect x="96" y="1" width="55" height="1" fill="#41414140"/>
  <rect x="151" y="1" width="2" height="1" fill="#40404040"/>
  <rect x="153" y="1" width="2" height="1" fill="#3f3f3f40"/>
  <rect x="155" y="1" width="1" height="1" fill="#3f3f3f3c"/>
  <rect x="156" y="1" width="1" height="1" fill="#4b4b4b2d"/>
  <rect x="157" y="1" width="1" height="1" fill="#4545450b"/>
  <rect x="162" y="1" width="1" height="1" fill="#3e3e3e0b"/>
  <rect x="163" y="1" width="1" height="1" fill="#3e3e3e2d"/>
  <rect x="164" y="1" width="1" height="1" fill="#3232323c"/>
  <rect x="165" y="1" width="1" height="1" fill="#32323240"/>
  <rect x="166" y="1" width="2" height="1" fill="#33333340"/>
  <rect x="168" y="1" width="2" height="1" fill="#34343440"/>
  <rect x="170" y="1" width="61" height="1" fill="#36363640"/>
  <rect x="231" y="1" width="2" height="1" fill="#34343440"/>
  <rect x="233" y="1" width="2" height="1" fill="#33333340"/>
  <rect x="235" y="1" width="1" height="1" fill="#3333333c"/>
  <rect x="236" y="1" width="1" height="1" fill="#3737372d"/>
  <rect x="237" y="1" width="1" height="1" fill="#4141410b"/>
  <rect x="2" y="2" width="1" height="1" fill="#03030325"/>
  <rect x="3" y="2" width="1" height="1" fill="#dcdcdc9f"/>
  <rect x="4" y="2" width="1" height="1" fill="#fafafaf3"/>
  <rect x="5" y="2" width="9" height="1" fill="#fafafa"/>
  <rect x="14" y="2" width="2" height="1" fill="#fcfbfc"/>
  <rect x="16" y="2" width="2" height="1" fill="#fdfdfd"/>
  <rect x="18" y="2" width="53" height="1" fill="#fefefe"/>
  <rect x="71" y="2" width="2" height="1" fill="#fdfdfd"/>
  <rect x="73" y="2" width="2" height="1" fill="#fcfbfc"/>
  <rect x="75" y="2" width="1" height="1" fill="#fcfbfcf3"/>
  <rect x="76" y="2" width="1" height="1" fill="#e9e9e99f"/>
  <rect x="77" y="2" width="1" height="1" fill="#05050525"/>
  <rect x="81" y="2" width="1" height="1" fill="#4747470d"/>
  <rect x="82" y="2" width="1" height="1" fill="#3939393d"/>
  <rect x="83" y="2" width="1" height="1" fill="#dcdcdcaa"/>
  <rect x="84" y="2" width="1" height="1" fill="#fefefef5"/>
  <rect x="85" y="2" width="3" height="1" fill="#fefefe"/>
  <rect x="88" y="2" width="67" height="1" fill="#ffffff"/>
  <rect x="155" y="2" width="1" height="1" fill="#fffffff5"/>
  <rect x="156" y="2" width="1" height="1" fill="#ddddddaa"/>
  <rect x="157" y="2" width="1" height="1" fill="#3f3f3f3d"/>
  <rect x="158" y="2" width="1" height="1" fill="#4747470d"/>
  <rect x="161" y="2" width="1" height="1" fill="#4848480d"/>
  <rect x="162" y="2" width="1" height="1" fill="#3939393d"/>
  <rect x="163" y="2" width="1" height="1" fill="#dcdcdcaa"/>
  <rect x="164" y="2" width="1" height="1" fill="#fefefef5"/>
  <rect x="165" y="2" width="3" height="1" fill="#fefefe"/>
  <rect x="168" y="2" width="67" height="1" fill="#ffffff"/>
  <rect x="235" y="2" width="1" height="1" fill="#fffffff5"/>
  <rect x="236" y="2" width="1" height="1" fill="#dcdcdcaa"/>
  <rect x="237" y="2" width="1" height="1" fill="#3131313d"/>
  <rect x="238" y="2" width="1" height="1" fill="#4444440d"/>
  <rect x="1" y="3" width="1" height="1" fill="#1717171e"/>
  <rect x="2" y="3" width="1" height="1" fill="#e5e5e5a1"/>
  <rect x="3" y="3" width="13" height="1" fill="#fdfdfd"/>
  <rect x="16" y="3" width="54" height="1" fill="#fcfbfc"/>
  <rect x="70" y="3" width="1" height="1" fill="#fafafa"/>
  <rect x="71" y="3" width="1" height="1" fill="#f9f9f9"/>
  <rect x="72" y="3" width="1" height="1" fill="#f8f8f8"/>
  <rect x="73" y="3" width="1" height="1" fill="#f7f7f7"/>
  <rect x="74" y="3" width="2" height="1" fill="#f6f6f6"/>
  <rect x="76" y="3" width="1" height="1" fill="#ffffff"/>
  <rect x="77" y="3" width="1" height="1" fill="#e2e2e2a1"/>
  <rect x="78" y="3" width="1" height="1" fill="#0c0c0c1e"/>
  <rect x="81" y="3" width="1" height="1" fill="#4646462f"/>
  <rect x="82" y="3" width="1" height="1" fill="#dededeac"/>
  <rect x="83" y="3" width="1" height="1" fill="#ffffff"/>
  <rect x="84" y="3" width="12" height="1" fill="#fcfbfc"/>
  <rect x="96" y="3" width="60" height="4" fill="#fdfdfd"/>
  <rect x="156" y="3" width="1" height="1" fill="#ffffff"/>
  <rect x="157" y="3" width="1" height="1" fill="#e3e3e3ac"/>
  <rect x="158" y="3" width="1" height="1" fill="#4b4b4b2f"/>
  <rect x="161" y="3" width="1" height="1" fill="#3f3f3f2f"/>
  <rect x="162" y="3" width="1" height="1" fill="#d7d7d7ac"/>
  <rect x="163" y="3" width="1" height="1" fill="#fdfdfd"/>
  <rect x="164" y="3" width="72" height="1" fill="#f5f5f5"/>
  <rect x="236" y="3" width="1" height="1" fill="#ffffff"/>
  <rect x="237" y="3" width="1" height="1" fill="#e4e4e4ac"/>
  <rect x="238" y="3" width="1" height="1" fill="#4141412f"/>
  <rect x="1" y="4" width="1" height="1" fill="#03030325"/>
  <rect x="2" y="4" width="1" height="1" fill="#f9f9f9f3"/>
  <rect x="3" y="4" width="1" height="2" fill="#fcfbfc"/>
  <rect x="4" y="4" width="12" height="3" fill="#f8f8f8"/>
  <rect x="16" y="4" width="4" height="3" fill="#f9f9f9"/>
  <rect x="20" y="4" width="2" height="4" fill="#f9f9fb"/>
  <rect x="22" y="4" width="14" height="4" fill="#f9f9f9"/>
  <rect x="36" y="4" width="2" height="4" fill="#f9f9fb"/>
  <rect x="38" y="4" width="14" height="4" fill="#f9f9f9"/>
  <rect x="52" y="4" width="2" height="4" fill="#f9f9fb"/>
  <rect x="54" y="4" width="18" height="3" fill="#f9f9f9"/>
  <rect x="72" y="4" width="4" height="3" fill="#f8f8f8"/>
  <rect x="76" y="4" width="1" height="4" fill="#fcfbfc"/>
  <rect x="77" y="4" width="1" height="1" fill="#fdfdfdf5"/>
  <rect x="78" y="4" width="1" height="1" fill="#00000025"/>
  <rect x="81" y="4" width="1" height="1" fill="#3a3a3a3d"/>
  <rect x="82" y="4" width="1" height="1" fill="#fffffff5"/>
  <rect x="83" y="4" width="13" height="4" fill="#fcfbfc"/>
  <rect x="156" y="4" width="1" height="3" fill="#fefefe"/>
  <rect x="157" y="4" width="1" height="1" fill="#fcfbfcf6"/>
  <rect x="158" y="4" width="1" height="1" fill="#4040403e"/>
  <rect x="161" y="4" width="1" height="1" fill="#3838383d"/>
  <rect x="162" y="4" width="1" height="1" fill="#fefefef5"/>
  <rect x="163" y="4" width="1" height="4" fill="#f9f9f9"/>
  <rect x="164" y="4" width="4" height="4" fill="#f7f7f7"/>
  <rect x="168" y="4" width="68" height="4" fill="#f6f6f6"/>
  <rect x="236" y="4" width="1" height="4" fill="#f7f7f7"/>
  <rect x="237" y="4" width="1" height="1" fill="#fefefef6"/>
  <rect x="238" y="4" width="1" height="1" fill="#3232323e"/>
  <rect x="1" y="5" width="1" height="1" fill="#03030326"/>
  <rect x="2" y="5" width="1" height="2" fill="#f9f9f9"/>
  <rect x="77" y="5" width="1" height="3" fill="#fdfdfd"/>
  <rect x="78" y="5" width="1" height="15" fill="#00000026"/>
  <rect x="81" y="5" width="1" height="3" fill="#3a3a3a40"/>
  <rect x="82" y="5" width="1" height="7" fill="#ffffff"/>
  <rect x="157" y="5" width="1" height="1" fill="#fcfbfc"/>
  <rect x="158" y="5" width="1" height="1" fill="#40404040"/>
  <rect x="161" y="5" width="1" height="3" fill="#38383840"/>
  <rect x="162" y="5" width="1" height="3" fill="#fefefe"/>
  <rect x="237" y="5" width="1" height="3" fill="#fefefe"/>
  <rect x="238" y="5" width="1" height="3" fill="#32323240"/>
  <rect x="1" y="6" width="1" height="4" fill="#05050526"/>
  <rect x="3" y="6" width="1" height="1" fill="#fafafa"/>
  <rect x="157" y="6" width="1" height="1" fill="#fdfdfd"/>
  <rect x="158" y="6" width="1" height="1" fill="#3f3f3f40"/>
  <rect x="0" y="7" width="1" height="1" fill="#7676760a"/>
  <rect x="2" y="7" width="1" height="1" fill="#f8f8f8"/>
  <rect x="3" y="7" width="1" height="1" fill="#f9f9f9"/>
  <rect x="4" y="7" width="10" height="1" fill="#f7f7f7"/>
  <rect x="14" y="7" width="4" height="1" fill="#f8f8f8"/>
  <rect x="18" y="7" width="2" height="1" fill="#f9f9f9"/>
  <rect x="54" y="7" width="10" height="1" fill="#f9f9f9"/>
  <rect x="64" y="7" width="12" height="1" fill="#f8f8f8"/>
  <rect x="79" y="7" width="1" height="1" fill="#7878780a"/>
  <rect x="80" y="7" width="1" height="1" fill="#7777770a"/>
  <rect x="96" y="7" width="62" height="1" fill="#fdfdfd"/>
  <rect x="158" y="7" width="1" height="1" fill="#3e3e3e40"/>
  <rect x="159" y="7" width="1" height="1" fill="#7979790a"/>
  <rect x="160" y="7" width="1" height="1" fill="#7474740a"/>
  <rect x="239" y="7" width="1" height="1" fill="#7373730a"/>
  <rect x="0" y="8" width="1" height="1" fill="#7777770a"/>
  <rect x="2" y="8" width="2" height="1" fill="#f8f8f8"/>
  <rect x="4" y="8" width="8" height="1" fill="#f7f7f7"/>
  <rect x="12" y="8" width="4" height="1" fill="#f5f7f9"/>
  <rect x="16" y="8" width="10" height="1" fill="#f4f6f8"/>
  <rect x="26" y="8" width="2" height="4" fill="#f4f6f6"/>
  <rect x="28" y="8" width="14" height="4" fill="#f4f6f8"/>
  <rect x="42" y="8" width="2" height="4" fill="#f4f6f6"/>
  <rect x="44" y="8" width="14" height="4" fill="#f4f6f8"/>
  <rect x="58" y="8" width="2" height="4" fill="#f4f6f6"/>
  <rect x="60" y="8" width="4" height="1" fill="#f6f6f6"/>
  <rect x="64" y="8" width="12" height="1" fill="#f7f7f7"/>
  <rect x="76" y="8" width="1" height="2" fill="#fafafa"/>
  <rect x="77" y="8" width="1" height="2" fill="#fcfbfc"/>
  <rect x="79" y="8" width="1" height="2" fill="#7777770a"/>
  <rect x="80" y="8" width="1" height="4" fill="#7676760a"/>
  <rect x="81" y="8" width="1" height="4" fill="#39393940"/>
  <rect x="83" y="8" width="1" height="4" fill="#fafafa"/>
  <rect x="84" y="8" width="73" height="1" fill="#fcfbfc"/>
  <rect x="157" y="8" width="1" height="1" fill="#fefefe"/>
  <rect x="158" y="8" width="1" height="1" fill="#3d3d3d40"/>
  <rect x="159" y="8" width="1" height="3" fill="#7a7a7a0a"/>
  <rect x="160" y="8" width="1" height="4" fill="#7676760a"/>
  <rect x="161" y="8" width="1" height="4" fill="#39393940"/>
  <rect x="162" y="8" width="1" height="15" fill="#ffffff"/>
  <rect x="163" y="8" width="1" height="4" fill="#fafafa"/>
  <rect x="164" y="8" width="4" height="4" fill="#f8f8f8"/>
  <rect x="168" y="8" width="68" height="4" fill="#f7f7f7"/>
  <rect x="236" y="8" width="1" height="4" fill="#f8f8f8"/>
  <rect x="237" y="8" width="1" height="7" fill="#ffffff"/>
  <rect x="238" y="8" width="1" height="4" fill="#33333340"/>
  <rect x="239" y="8" width="1" height="4" fill="#7474740a"/>
  <rect x="0" y="9" width="1" height="1" fill="#7878780a"/>
  <rect x="2" y="9" width="2" height="1" fill="#f7f7f7"/>
  <rect x="4" y="9" width="8" height="1" fill="#f6f6f6"/>
  <rect x="12" y="9" width="14" height="2" fill="#f4f6f8"/>
  <rect x="60" y="9" width="12" height="2" fill="#f6f6f6"/>
  <rect x="72" y="9" width="4" height="2" fill="#f7f7f7"/>
  <rect x="84" y="9" width="72" height="2" fill="#fcfbfc"/>
  <rect x="156" y="9" width="1" height="2" fill="#fafafa"/>
  <rect x="157" y="9" width="1" height="4" fill="#ffffff"/>
  <rect x="158" y="9" width="1" height="1" fill="#3b3b3b40"/>
  <rect x="0" y="10" width="1" height="1" fill="#7979790a"/>
  <rect x="1" y="10" width="1" height="1" fill="#06060626"/>
  <rect x="2" y="10" width="1" height="1" fill="#f7f7f7"/>
  <rect x="3" y="10" width="9" height="1" fill="#f6f6f6"/>
  <rect x="76" y="10" width="1" height="1" fill="#f9f9f9"/>
  <rect x="77" y="10" width="1" height="1" fill="#fafafa"/>
  <rect x="79" y="10" width="1" height="4" fill="#7878780a"/>
  <rect x="158" y="10" width="1" height="1" fill="#3a3a3a40"/>
  <rect x="0" y="11" width="1" height="1" fill="#7878780a"/>
  <rect x="1" y="11" width="1" height="1" fill="#05050526"/>
  <rect x="2" y="11" width="1" height="1" fill="#f6f6f6"/>
  <rect x="3" y="11" width="8" height="1" fill="#f5f5f5"/>
  <rect x="11" y="11" width="1" height="1" fill="#f5f4f7"/>
  <rect x="12" y="11" width="4" height="1" fill="#f3f5f7"/>
  <rect x="16" y="11" width="10" height="1" fill="#f4f6f8"/>
  <rect x="60" y="11" width="4" height="1" fill="#f6f6f6"/>
  <rect x="64" y="11" width="8" height="1" fill="#f5f5f5"/>
  <rect x="72" y="11" width="4" height="1" fill="#f6f6f6"/>
  <rect x="76" y="11" width="1" height="1" fill="#f7f7f7"/>
  <rect x="77" y="11" width="1" height="1" fill="#f9f9f9"/>
  <rect x="84" y="11" width="3" height="1" fill="#fcfbfc"/>
  <rect x="87" y="11" width="7" height="1" fill="#fafafa"/>
  <rect x="94" y="11" width="2" height="1" fill="#fcfbfc"/>
  <rect x="96" y="11" width="60" height="1" fill="#fafafa"/>
  <rect x="156" y="11" width="1" height="2" fill="#f9f9f9"/>
  <rect x="158" y="11" width="1" height="2" fill="#39393940"/>
  <rect x="159" y="11" width="1" height="2" fill="#7979790a"/>
  <rect x="0" y="12" width="1" height="1" fill="#7777770a"/>
  <rect x="1" y="12" width="1" height="1" fill="#03030326"/>
  <rect x="2" y="12" width="1" height="1" fill="#f5f5f5"/>
  <rect x="3" y="12" width="5" height="1" fill="#f3f3f3"/>
  <rect x="8" y="12" width="4" height="1" fill="#f3f3f5"/>
  <rect x="12" y="12" width="4" height="1" fill="#f2f3f7"/>
  <rect x="16" y="12" width="4" height="1" fill="#f1f3f4"/>
  <rect x="20" y="12" width="2" height="1" fill="#f1f2f6"/>
  <rect x="22" y="12" width="4" height="1" fill="#f1f3f4"/>
  <rect x="26" y="12" width="2" height="1" fill="#f1f3f2"/>
  <rect x="28" y="12" width="8" height="1" fill="#f1f3f4"/>
  <rect x="36" y="12" width="2" height="1" fill="#f1f2f6"/>
  <rect x="38" y="12" width="4" height="1" fill="#f1f3f4"/>
  <rect x="42" y="12" width="2" height="1" fill="#f1f3f2"/>
  <rect x="44" y="12" width="8" height="1" fill="#f1f3f4"/>
  <rect x="52" y="12" width="2" height="1" fill="#f1f2f6"/>
  <rect x="54" y="12" width="4" height="1" fill="#f1f3f4"/>
  <rect x="58" y="12" width="6" height="1" fill="#f1f3f2"/>
  <rect x="64" y="12" width="8" height="1" fill="#f3f3f3"/>
  <rect x="72" y="12" width="5" height="1" fill="#f5f5f5"/>
  <rect x="77" y="12" width="1" height="1" fill="#f8f8f8"/>
  <rect x="80" y="12" width="1" height="4" fill="#7474740a"/>
  <rect x="81" y="12" width="1" height="4" fill="#38383840"/>
  <rect x="82" y="12" width="1" height="4" fill="#fefefe"/>
  <rect x="83" y="12" width="1" height="1" fill="#f9f9f9"/>
  <rect x="84" y="12" width="5" height="1" fill="#fafafa"/>
  <rect x="89" y="12" width="1" height="1" fill="#f9f9f9"/>
  <rect x="90" y="12" width="66" height="1" fill="#fafafa"/>
  <rect x="160" y="12" width="1" height="2" fill="#7777770a"/>
  <rect x="161" y="12" width="1" height="2" fill="#3a3a3a40"/>
  <rect x="163" y="12" width="1" height="2" fill="#fcfbfc"/>
  <rect x="164" y="12" width="4" height="4" fill="#f9f9f9"/>
  <rect x="168" y="12" width="68" height="2" fill="#f8f8f8"/>
  <rect x="236" y="12" width="1" height="2" fill="#f9f9f9"/>
  <rect x="238" y="12" width="1" height="1" fill="#34343440"/>
  <rect x="239" y="12" width="1" height="4" fill="#7676760a"/>
  <rect x="0" y="13" width="1" height="5" fill="#7676760a"/>
  <rect x="1" y="13" width="1" height="7" fill="#02020226"/>
  <rect x="2" y="13" width="1" height="5" fill="#f3f3f3"/>
  <rect x="3" y="13" width="5" height="1" fill="#f2f2f2"/>
  <rect x="8" y="13" width="4" height="1" fill="#f2f2f4"/>
  <rect x="12" y="13" width="4" height="1" fill="#f1f2f6"/>
  <rect x="16" y="13" width="2" height="1" fill="#f1f3f4"/>
  <rect x="18" y="13" width="2" height="1" fill="#eff1f3"/>
  <rect x="20" y="13" width="2" height="2" fill="#eff1f5"/>
  <rect x="22" y="13" width="4" height="2" fill="#eff1f3"/>
  <rect x="26" y="13" width="2" height="2" fill="#eff2f1"/>
  <rect x="28" y="13" width="4" height="2" fill="#eff1f3"/>
  <rect x="32" y="13" width="2" height="2" fill="#f1f3f4"/>
  <rect x="34" y="13" width="2" height="2" fill="#eff1f3"/>
  <rect x="36" y="13" width="2" height="2" fill="#eff1f5"/>
  <rect x="38" y="13" width="4" height="2" fill="#eff1f3"/>
  <rect x="42" y="13" width="2" height="2" fill="#eff2f1"/>
  <rect x="44" y="13" width="4" height="2" fill="#eff1f3"/>
  <rect x="48" y="13" width="2" height="2" fill="#f1f3f4"/>
  <rect x="50" y="13" width="2" height="2" fill="#eff1f3"/>
  <rect x="52" y="13" width="2" height="2" fill="#eff1f5"/>
  <rect x="54" y="13" width="4" height="2" fill="#eff1f3"/>
  <rect x="58" y="13" width="6" height="2" fill="#eff2f1"/>
  <rect x="64" y="13" width="2" height="2" fill="#f2f2f2"/>
  <rect x="66" y="13" width="6" height="2" fill="#f1f1f1"/>
  <rect x="72" y="13" width="5" height="1" fill="#f2f2f2"/>
  <rect x="77" y="13" width="1" height="1" fill="#f7f7f7"/>
  <rect x="83" y="13" width="6" height="1" fill="#f9f9f9"/>
  <rect x="89" y="13" width="1" height="1" fill="#f8f8f8"/>
  <rect x="90" y="13" width="66" height="1" fill="#f9f9f9"/>
  <rect x="156" y="13" width="1" height="1" fill="#f8f8f8"/>
  <rect x="157" y="13" width="1" height="1" fill="#fefefe"/>
  <rect x="158" y="13" width="1" height="1" fill="#38383840"/>
  <rect x="159" y="13" width="1" height="1" fill="#7878780a"/>
  <rect x="238" y="13" width="1" height="1" fill="#36363640"/>
  <rect x="3" y="14" width="1" height="4" fill="#f2f2f2"/>
  <rect x="4" y="14" width="4" height="2" fill="#f1f1f1"/>
  <rect x="8" y="14" width="4" height="2" fill="#f1f1f3"/>
  <rect x="12" y="14" width="4" height="2" fill="#eff1f5"/>
  <rect x="16" y="14" width="4" height="1" fill="#eff1f3"/>
  <rect x="72" y="14" width="4" height="1" fill="#f2f2f2"/>
  <rect x="76" y="14" width="1" height="1" fill="#f1f1f1"/>
  <rect x="77" y="14" width="1" height="2" fill="#f6f6f6"/>
  <rect x="79" y="14" width="1" height="2" fill="#7979790a"/>
  <rect x="83" y="14" width="4" height="1" fill="#f9f9f9"/>
  <rect x="87" y="14" width="7" height="1" fill="#f8f8f8"/>
  <rect x="94" y="14" width="2" height="1" fill="#f9f9f9"/>
  <rect x="96" y="14" width="60" height="1" fill="#f8f8f8"/>
  <rect x="156" y="14" width="1" height="4" fill="#f7f7f7"/>
  <rect x="157" y="14" width="1" height="8" fill="#fdfdfd"/>
  <rect x="158" y="14" width="1" height="8" fill="#37373740"/>
  <rect x="159" y="14" width="1" height="8" fill="#7777770a"/>
  <rect x="160" y="14" width="1" height="8" fill="#7676760a"/>
  <rect x="161" y="14" width="1" height="8" fill="#39393940"/>
  <rect x="163" y="14" width="1" height="4" fill="#fafafa"/>
  <rect x="168" y="14" width="8" height="2" fill="#f8f8f8"/>
  <rect x="176" y="14" width="48" height="2" fill="#f9f9f9"/>
  <rect x="224" y="14" width="12" height="2" fill="#f8f8f8"/>
  <rect x="236" y="14" width="1" height="2" fill="#fafafa"/>
  <rect x="238" y="14" width="1" height="1" fill="#37373740"/>
  <rect x="16" y="15" width="2" height="1" fill="#eff1f3"/>
  <rect x="18" y="15" width="2" height="1" fill="#eef0f2"/>
  <rect x="20" y="15" width="2" height="1" fill="#eef0f4"/>
  <rect x="22" y="15" width="4" height="1" fill="#eef0f2"/>
  <rect x="26" y="15" width="2" height="1" fill="#eef1f0"/>
  <rect x="28" y="15" width="4" height="1" fill="#eef0f2"/>
  <rect x="32" y="15" width="2" height="1" fill="#eff1f3"/>
  <rect x="34" y="15" width="2" height="1" fill="#eef0f2"/>
  <rect x="36" y="15" width="2" height="1" fill="#eef0f4"/>
  <rect x="38" y="15" width="4" height="2" fill="#eef0f2"/>
  <rect x="42" y="15" width="2" height="1" fill="#eef1f0"/>
  <rect x="44" y="15" width="4" height="1" fill="#eef0f2"/>
  <rect x="48" y="15" width="2" height="1" fill="#eff1f3"/>
  <rect x="50" y="15" width="2" height="1" fill="#eef0f2"/>
  <rect x="52" y="15" width="2" height="1" fill="#eef0f4"/>
  <rect x="54" y="15" width="4" height="2" fill="#eef0f2"/>
  <rect x="58" y="15" width="6" height="1" fill="#eef1f0"/>
  <rect x="64" y="15" width="2" height="1" fill="#f1f1f1"/>
  <rect x="66" y="15" width="6" height="1" fill="#f0f0f0"/>
  <rect x="72" y="15" width="5" height="1" fill="#f1f1f1"/>
  <rect x="83" y="15" width="1" height="1" fill="#f9f9f9"/>
  <rect x="84" y="15" width="72" height="1" fill="#f8f8f8"/>
  <rect x="237" y="15" width="1" height="2" fill="#fefefe"/>
  <rect x="238" y="15" width="1" height="2" fill="#38383840"/>
  <rect x="4" y="16" width="8" height="2" fill="#f0eff2"/>
  <rect x="12" y="16" width="2" height="2" fill="#eef0f4"/>
  <rect x="14" y="16" width="2" height="2" fill="#edeff3"/>
  <rect x="16" y="16" width="12" height="1" fill="#eef0f2"/>
  <rect x="28" y="16" width="2" height="1" fill="#f0eff2"/>
  <rect x="30" y="16" width="2" height="1" fill="#efeef1"/>
  <rect x="32" y="16" width="6" height="1" fill="#f0eff2"/>
  <rect x="42" y="16" width="2" height="1" fill="#edf1f2"/>
  <rect x="44" y="16" width="2" height="1" fill="#eef0f2"/>
  <rect x="46" y="16" width="2" height="1" fill="#edeff1"/>
  <rect x="48" y="16" width="4" height="1" fill="#eef0f2"/>
  <rect x="52" y="16" width="2" height="1" fill="#f0eff2"/>
  <rect x="58" y="16" width="2" height="1" fill="#edf1f2"/>
  <rect x="60" y="16" width="2" height="1" fill="#eef0f2"/>
  <rect x="62" y="16" width="2" height="1" fill="#edeff1"/>
  <rect x="64" y="16" width="8" height="1" fill="#f0eff2"/>
  <rect x="72" y="16" width="4" height="1" fill="#f1f1f3"/>
  <rect x="76" y="16" width="1" height="1" fill="#f0eff2"/>
  <rect x="77" y="16" width="1" height="4" fill="#f5f4f7"/>
  <rect x="79" y="16" width="1" height="2" fill="#78787a0a"/>
  <rect x="80" y="16" width="1" height="7" fill="#7373730a"/>
  <rect x="81" y="16" width="1" height="7" fill="#37373740"/>
  <rect x="82" y="16" width="1" height="7" fill="#fdfdfd"/>
  <rect x="83" y="16" width="4" height="1" fill="#f8f8f8"/>
  <rect x="87" y="16" width="1" height="1" fill="#f7f7f7"/>
  <rect x="88" y="16" width="1" height="2" fill="#f8f8f8"/>
  <rect x="89" y="16" width="1" height="2" fill="#f7f7f7"/>
  <rect x="90" y="16" width="2" height="2" fill="#f8f8f8"/>
  <rect x="92" y="16" width="2" height="1" fill="#f7f7f7"/>
  <rect x="94" y="16" width="62" height="1" fill="#f8f8f8"/>
  <rect x="164" y="16" width="72" height="2" fill="#f9f9f9"/>
  <rect x="236" y="16" width="1" height="2" fill="#fcfbfc"/>
  <rect x="239" y="16" width="1" height="4" fill="#7474740a"/>
  <rect x="16" y="17" width="2" height="1" fill="#eef0f2"/>
  <rect x="18" y="17" width="10" height="2" fill="#edeff1"/>
  <rect x="28" y="17" width="4" height="2" fill="#efeef1"/>
  <rect x="32" y="17" width="2" height="2" fill="#eeedf0"/>
  <rect x="34" y="17" width="4" height="2" fill="#efeef1"/>
  <rect x="38" y="17" width="4" height="2" fill="#edeff1"/>
  <rect x="42" y="17" width="2" height="2" fill="#ecf0f1"/>
  <rect x="44" y="17" width="4" height="2" fill="#edeff1"/>
  <rect x="48" y="17" width="2" height="2" fill="#eceef0"/>
  <rect x="50" y="17" width="2" height="2" fill="#edeff1"/>
  <rect x="52" y="17" width="2" height="2" fill="#efeef1"/>
  <rect x="54" y="17" width="4" height="2" fill="#edeff1"/>
  <rect x="58" y="17" width="2" height="2" fill="#ecf0f1"/>
  <rect x="60" y="17" width="4" height="2" fill="#edeff1"/>
  <rect x="64" y="17" width="2" height="2" fill="#eeedf0"/>
  <rect x="66" y="17" width="6" height="2" fill="#efeef1"/>
  <rect x="72" y="17" width="5" height="2" fill="#f0eff2"/>
  <rect x="83" y="17" width="1" height="7" fill="#f8f8f8"/>
  <rect x="84" y="17" width="4" height="1" fill="#f7f7f7"/>
  <rect x="92" y="17" width="4" height="1" fill="#f7f7f7"/>
  <rect x="96" y="17" width="60" height="1" fill="#f8f8f8"/>
  <rect x="237" y="17" width="1" height="1" fill="#fdfdfd"/>
  <rect x="238" y="17" width="1" height="1" fill="#39393940"/>
  <rect x="0" y="18" width="1" height="4" fill="#7777770a"/>
  <rect x="2" y="18" width="2" height="1" fill="#f2f2f2"/>
  <rect x="4" y="18" width="8" height="1" fill="#efeef1"/>
  <rect x="12" y="18" width="4" height="1" fill="#edeff3"/>
  <rect x="16" y="18" width="2" height="1" fill="#eceef0"/>
  <rect x="79" y="18" width="1" height="2" fill="#79797b0a"/>
  <rect x="84" y="18" width="3" height="1" fill="#f7f7f7"/>
  <rect x="87" y="18" width="1" height="1" fill="#f6f6f6"/>
  <rect x="88" y="18" width="4" height="2" fill="#f7f7f7"/>
  <rect x="92" y="18" width="2" height="1" fill="#f6f6f6"/>
  <rect x="94" y="18" width="63" height="1" fill="#f7f7f7"/>
  <rect x="163" y="18" width="15" height="2" fill="#fafafa"/>
  <rect x="178" y="18" width="14" height="2" fill="#fcfbfc"/>
  <rect x="192" y="18" width="36" height="2" fill="#fafafa"/>
  <rect x="228" y="18" width="8" height="2" fill="#f9f9f9"/>
  <rect x="236" y="18" width="2" height="1" fill="#fdfdfd"/>
  <rect x="238" y="18" width="1" height="1" fill="#3a3a3a40"/>
  <rect x="2" y="19" width="1" height="1" fill="#f1f1f1"/>
  <rect x="3" y="19" width="1" height="1" fill="#f2f2f2"/>
  <rect x="4" y="19" width="8" height="1" fill="#ececee"/>
  <rect x="12" y="19" width="4" height="1" fill="#ebecf0"/>
  <rect x="16" y="19" width="12" height="1" fill="#eceef0"/>
  <rect x="28" y="19" width="10" height="1" fill="#eeedf0"/>
  <rect x="38" y="19" width="4" height="1" fill="#eceef0"/>
  <rect x="42" y="19" width="2" height="1" fill="#eaeff0"/>
  <rect x="44" y="19" width="8" height="1" fill="#eceef0"/>
  <rect x="52" y="19" width="2" height="1" fill="#eeedf0"/>
  <rect x="54" y="19" width="4" height="1" fill="#eceef0"/>
  <rect x="58" y="19" width="2" height="1" fill="#eaeff0"/>
  <rect x="60" y="19" width="4" height="1" fill="#eceef0"/>
  <rect x="64" y="19" width="8" height="1" fill="#ececee"/>
  <rect x="72" y="19" width="4" height="1" fill="#eeedf0"/>
  <rect x="76" y="19" width="1" height="1" fill="#efeef1"/>
  <rect x="84" y="19" width="4" height="1" fill="#f6f6f6"/>
  <rect x="92" y="19" width="4" height="1" fill="#f6f6f6"/>
  <rect x="96" y="19" width="61" height="1" fill="#f7f7f7"/>
  <rect x="236" y="19" width="1" height="1" fill="#fdfdfd"/>
  <rect x="237" y="19" width="1" height="1" fill="#fcfbfc"/>
  <rect x="238" y="19" width="1" height="1" fill="#3b3b3b40"/>
  <rect x="1" y="20" width="1" height="4" fill="#01010126"/>
  <rect x="2" y="20" width="1" height="1" fill="#f0f0f0"/>
  <rect x="3" y="20" width="1" height="4" fill="#eaeaea"/>
  <rect x="4" y="20" width="4" height="1" fill="#ebebed"/>
  <rect x="8" y="20" width="4" height="1" fill="#ebeaef"/>
  <rect x="12" y="20" width="4" height="1" fill="#eaebef"/>
  <rect x="16" y="20" width="4" height="1" fill="#e8eaee"/>
  <rect x="20" y="20" width="8" height="2" fill="#e8eaec"/>
  <rect x="28" y="20" width="10" height="4" fill="#eaeaec"/>
  <rect x="38" y="20" width="10" height="4" fill="#e8eaec"/>
  <rect x="48" y="20" width="6" height="4" fill="#eaeaec"/>
  <rect x="54" y="20" width="10" height="4" fill="#e8eaec"/>
  <rect x="64" y="20" width="8" height="1" fill="#ebebed"/>
  <rect x="72" y="20" width="4" height="1" fill="#ececee"/>
  <rect x="76" y="20" width="1" height="1" fill="#eeedf0"/>
  <rect x="77" y="20" width="1" height="1" fill="#ececee"/>
  <rect x="78" y="20" width="1" height="3" fill="#03030626"/>
  <rect x="79" y="20" width="1" height="2" fill="#7a7a7c0a"/>
  <rect x="84" y="20" width="12" height="4" fill="#f7f7f7"/>
  <rect x="96" y="20" width="60" height="4" fill="#f6f6f6"/>
  <rect x="156" y="20" width="1" height="2" fill="#f7f7f7"/>
  <rect x="163" y="20" width="11" height="2" fill="#fafafa"/>
  <rect x="174" y="20" width="18" height="2" fill="#fcfbfc"/>
  <rect x="192" y="20" width="32" height="2" fill="#fdfdfd"/>
  <rect x="224" y="20" width="12" height="2" fill="#fafafa"/>
  <rect x="236" y="20" width="1" height="4" fill="#fefefe"/>
  <rect x="237" y="20" width="1" height="3" fill="#fdfdfd"/>
  <rect x="238" y="20" width="1" height="3" fill="#3d3d3d40"/>
  <rect x="239" y="20" width="1" height="3" fill="#7676760a"/>
  <rect x="2" y="21" width="1" height="1" fill="#efefef"/>
  <rect x="4" y="21" width="4" height="1" fill="#eaeaec"/>
  <rect x="8" y="21" width="4" height="1" fill="#eae9ee"/>
  <rect x="12" y="21" width="8" height="1" fill="#e8eaee"/>
  <rect x="64" y="21" width="8" height="4" fill="#eaeaec"/>
  <rect x="72" y="21" width="4" height="4" fill="#ebebed"/>
  <rect x="76" y="21" width="2" height="2" fill="#ececee"/>
  <rect x="0" y="22" width="1" height="1" fill="#7878780a"/>
  <rect x="2" y="22" width="1" height="1" fill="#eeeeee"/>
  <rect x="4" y="22" width="8" height="2" fill="#eaeaec"/>
  <rect x="12" y="22" width="4" height="2" fill="#e8eaee"/>
  <rect x="16" y="22" width="12" height="2" fill="#e8eaec"/>
  <rect x="79" y="22" width="1" height="1" fill="#7b7b7d0a"/>
  <rect x="156" y="22" width="1" height="2" fill="#f8f8f8"/>
  <rect x="157" y="22" width="1" height="1" fill="#fefefe"/>
  <rect x="158" y="22" width="1" height="1" fill="#38383840"/>
  <rect x="159" y="22" width="1" height="1" fill="#7878780a"/>
  <rect x="160" y="22" width="1" height="1" fill="#7777770a"/>
  <rect x="161" y="22" width="1" height="1" fill="#3a3a3a40"/>
  <rect x="163" y="22" width="13" height="2" fill="#fcfbfc"/>
  <rect x="176" y="22" width="48" height="2" fill="#fdfdfd"/>
  <rect x="224" y="22" width="4" height="2" fill="#fcfbfc"/>
  <rect x="228" y="22" width="8" height="2" fill="#fafafa"/>
  <rect x="2" y="23" width="1" height="1" fill="#eeeeeef3"/>
  <rect x="76" y="23" width="1" height="1" fill="#ececee"/>
  <rect x="77" y="23" width="1" height="1" fill="#ececeef5"/>
  <rect x="78" y="23" width="1" height="1" fill="#03030625"/>
  <rect x="81" y="23" width="1" height="1" fill="#3737373e"/>
  <rect x="82" y="23" width="1" height="1" fill="#fdfdfdf5"/>
  <rect x="157" y="23" width="1" height="1" fill="#fefefef6"/>
  <rect x="158" y="23" width="1" height="1" fill="#3838383e"/>
  <rect x="161" y="23" width="1" height="1" fill="#3a3a3a3e"/>
  <rect x="162" y="23" width="1" height="1" fill="#fffffff5"/>
  <rect x="237" y="23" width="1" height="1" fill="#fdfdfdf6"/>
  <rect x="238" y="23" width="1" height="1" fill="#3d3d3d3e"/>
  <rect x="1" y="24" width="1" height="1" fill="#26262623"/>
  <rect x="2" y="24" width="1" height="1" fill="#d7d7d7a1"/>
  <rect x="3" y="24" width="1" height="1" fill="#ececec"/>
  <rect x="4" y="24" width="3" height="1" fill="#e9e9e9"/>
  <rect x="7" y="24" width="1" height="1" fill="#e8e8e8"/>
  <rect x="8" y="24" width="1" height="1" fill="#e7e6e9"/>
  <rect x="9" y="24" width="4" height="1" fill="#e5e5e7"/>
  <rect x="13" y="24" width="2" height="1" fill="#e7e6e9"/>
  <rect x="15" y="24" width="2" height="1" fill="#e8e7ea"/>
  <rect x="17" y="24" width="2" height="1" fill="#e9e9e9"/>
  <rect x="19" y="24" width="13" height="1" fill="#eaeaea"/>
  <rect x="32" y="24" width="10" height="1" fill="#eaeaec"/>
  <rect x="42" y="24" width="2" height="1" fill="#e8eaec"/>
  <rect x="44" y="24" width="4" height="1" fill="#e8ebea"/>
  <rect x="48" y="24" width="10" height="1" fill="#eaeaea"/>
  <rect x="58" y="24" width="2" height="1" fill="#e8ebea"/>
  <rect x="60" y="24" width="4" height="1" fill="#e8eaec"/>
  <rect x="76" y="24" width="1" height="1" fill="#e8e7ea"/>
  <rect x="77" y="24" width="1" height="1" fill="#cfcfd1a1"/>
  <rect x="78" y="24" width="1" height="1" fill="#1e1e2023"/>
  <rect x="81" y="24" width="1" height="1" fill="#36363634"/>
  <rect x="82" y="24" width="1" height="1" fill="#d7d7d7ad"/>
  <rect x="83" y="24" width="1" height="1" fill="#ffffff"/>
  <rect x="84" y="24" width="12" height="1" fill="#f6f6f6"/>
  <rect x="96" y="24" width="60" height="1" fill="#f5f5f5"/>
  <rect x="156" y="24" width="1" height="1" fill="#fdfdfd"/>
  <rect x="157" y="24" width="1" height="1" fill="#e3e3e3ad"/>
  <rect x="158" y="24" width="1" height="1" fill="#3e3e3e34"/>
  <rect x="161" y="24" width="1" height="1" fill="#49494934"/>
  <rect x="162" y="24" width="1" height="1" fill="#dadadaad"/>
  <rect x="163" y="24" width="1" height="1" fill="#fefefe"/>
  <rect x="164" y="24" width="8" height="1" fill="#fafafa"/>
  <rect x="172" y="24" width="1" height="1" fill="#fafbf8"/>
  <rect x="173" y="24" width="2" height="1" fill="#fcfcf9"/>
  <rect x="175" y="24" width="2" height="1" fill="#fdfdfb"/>
  <rect x="177" y="24" width="2" height="1" fill="#fefefc"/>
  <rect x="179" y="24" width="9" height="1" fill="#fffffd"/>
  <rect x="188" y="24" width="36" height="2" fill="#ffffff"/>
  <rect x="224" y="24" width="2" height="2" fill="#fefefe"/>
  <rect x="226" y="24" width="10" height="1" fill="#ffffff"/>
  <rect x="236" y="24" width="1" height="1" fill="#f8f8f8"/>
  <rect x="237" y="24" width="1" height="1" fill="#d7d7d7ad"/>
  <rect x="238" y="24" width="1" height="1" fill="#44444434"/>
  <rect x="1" y="25" width="1" height="1" fill="#55555518"/>
  <rect x="2" y="25" width="1" height="1" fill="#09090926"/>
  <rect x="3" y="25" width="1" height="1" fill="#d4d4d4a1"/>
  <rect x="4" y="25" width="1" height="1" fill="#f1f1f1f4"/>
  <rect x="5" y="25" width="2" height="1" fill="#f1f1f1"/>
  <rect x="7" y="25" width="1" height="1" fill="#f0f0f0"/>
  <rect x="8" y="25" width="1" height="1" fill="#efeef1"/>
  <rect x="9" y="25" width="5" height="1" fill="#eeedf0"/>
  <rect x="14" y="25" width="2" height="1" fill="#efeef1"/>
  <rect x="16" y="25" width="2" height="1" fill="#efefef"/>
  <rect x="18" y="25" width="14" height="1" fill="#f0f0f0"/>
  <rect x="32" y="25" width="10" height="1" fill="#f0eff2"/>
  <rect x="42" y="25" width="2" height="1" fill="#eef0f2"/>
  <rect x="44" y="25" width="4" height="1" fill="#eef1f0"/>
  <rect x="48" y="25" width="10" height="1" fill="#f0f0f0"/>
  <rect x="58" y="25" width="2" height="1" fill="#eef1f0"/>
  <rect x="60" y="25" width="4" height="1" fill="#eef0f2"/>
  <rect x="64" y="25" width="8" height="1" fill="#f0eff2"/>
  <rect x="72" y="25" width="3" height="1" fill="#f1f1f3"/>
  <rect x="75" y="25" width="1" height="1" fill="#f1f1f3f4"/>
  <rect x="76" y="25" width="1" height="1" fill="#d5d5d7a1"/>
  <rect x="77" y="25" width="1" height="1" fill="#07070926"/>
  <rect x="78" y="25" width="1" height="1" fill="#55555718"/>
  <rect x="81" y="25" width="1" height="1" fill="#6363631c"/>
  <rect x="82" y="25" width="1" height="1" fill="#3232323e"/>
  <rect x="83" y="25" width="1" height="1" fill="#e3e3e3ac"/>
  <rect x="84" y="25" width="1" height="1" fill="#fffffff5"/>
  <rect x="85" y="25" width="70" height="1" fill="#ffffff"/>
  <rect x="155" y="25" width="1" height="1" fill="#fffffff5"/>
  <rect x="156" y="25" width="1" height="1" fill="#e1e1e1ac"/>
  <rect x="157" y="25" width="1" height="1" fill="#3232323e"/>
  <rect x="158" y="25" width="1" height="1" fill="#5f5f5f1c"/>
  <rect x="161" y="25" width="1" height="1" fill="#5d5d5d1c"/>
  <rect x="162" y="25" width="1" height="1" fill="#4242423e"/>
  <rect x="163" y="25" width="1" height="1" fill="#d6d6d6ac"/>
  <rect x="164" y="25" width="1" height="1" fill="#fdfdfdf5"/>
  <rect x="165" y="25" width="7" height="1" fill="#fdfdfd"/>
  <rect x="172" y="25" width="2" height="1" fill="#fdfdfb"/>
  <rect x="174" y="25" width="4" height="1" fill="#fefefc"/>
  <rect x="178" y="25" width="10" height="1" fill="#fffffd"/>
  <rect x="226" y="25" width="9" height="1" fill="#ffffff"/>
  <rect x="235" y="25" width="1" height="1" fill="#fffffff5"/>
  <rect x="236" y="25" width="1" height="1" fill="#d7d7d7ac"/>
  <rect x="237" y="25" width="1" height="1" fill="#4747473e"/>
  <rect x="238" y="25" width="1" height="1" fill="#6666661c"/>
  <rect x="1" y="26" width="1" height="1" fill="#7979790c"/>
  <rect x="2" y="26" width="1" height="1" fill="#5757571b"/>
  <rect x="3" y="26" width="1" height="1" fill="#24242425"/>
  <rect x="4" y="26" width="3" height="1" fill="#01010126"/>
  <rect x="7" y="26" width="65" height="1" fill="#00000026"/>
  <rect x="72" y="26" width="4" height="1" fill="#00000126"/>
  <rect x="76" y="26" width="1" height="1" fill="#28272a25"/>
  <rect x="77" y="26" width="1" height="1" fill="#5555571b"/>
  <rect x="78" y="26" width="1" height="1" fill="#7776790c"/>
  <rect x="81" y="26" width="1" height="1" fill="#7979790c"/>
  <rect x="82" y="26" width="1" height="1" fill="#6868681f"/>
  <rect x="83" y="26" width="1" height="1" fill="#46464636"/>
  <rect x="84" y="26" width="1" height="1" fill="#3434343f"/>
  <rect x="85" y="26" width="11" height="1" fill="#34343440"/>
  <rect x="96" y="26" width="59" height="1" fill="#33333340"/>
  <rect x="155" y="26" width="1" height="1" fill="#3333333f"/>
  <rect x="156" y="26" width="1" height="1" fill="#3f3f3f36"/>
  <rect x="157" y="26" width="1" height="1" fill="#6464641f"/>
  <rect x="158" y="26" width="1" height="1" fill="#7f7f7f0c"/>
  <rect x="161" y="26" width="1" height="1" fill="#7979790c"/>
  <rect x="162" y="26" width="1" height="1" fill="#6c6c6c1f"/>
  <rect x="163" y="26" width="1" height="1" fill="#4d4d4d36"/>
  <rect x="164" y="26" width="1" height="1" fill="#3e3e3e3f"/>
  <rect x="165" y="26" width="7" height="1" fill="#3e3e3e40"/>
  <rect x="172" y="26" width="4" height="1" fill="#3e3e3c40"/>
  <rect x="176" y="26" width="12" height="1" fill="#3d3d3b40"/>
  <rect x="188" y="26" width="36" height="1" fill="#3d3d3d40"/>
  <rect x="224" y="26" width="2" height="1" fill="#3b3b3b40"/>
  <rect x="226" y="26" width="4" height="1" fill="#3d3d3d40"/>
  <rect x="230" y="26" width="5" height="1" fill="#3e3e3e40"/>
  <rect x="235" y="26" width="1" height="1" fill="#3e3e3e3f"/>
  <rect x="236" y="26" width="1" height="1" fill="#4c4c4c36"/>
  <rect x="237" y="26" width="1" height="1" fill="#6666661f"/>
  <rect x="238" y="26" width="1" height="1" fill="#7474740c"/>
  <rect x="2" y="27" width="1" height="1" fill="#7979790c"/>
  <rect x="3" y="27" width="1" height="1" fill="#80808015"/>
  <rect x="4" y="27" width="1" height="1" fill="#7e7e7e1b"/>
  <rect x="5" y="27" width="2" height="1" fill="#7e7e7e1c"/>
  <rect x="7" y="27" width="1" height="1" fill="#7d7d7d1c"/>
  <rect x="8" y="27" width="1" height="1" fill="#7b7b7b1c"/>
  <rect x="9" y="27" width="5" height="1" fill="#7a7a7a1c"/>
  <rect x="14" y="27" width="4" height="1" fill="#7979791c"/>
  <rect x="18" y="27" width="14" height="1" fill="#7878781c"/>
  <rect x="32" y="27" width="10" height="1" fill="#78787a1c"/>
  <rect x="42" y="27" width="2" height="1" fill="#76787a1c"/>
  <rect x="44" y="27" width="4" height="1" fill="#7679781c"/>
  <rect x="48" y="27" width="10" height="1" fill="#7878781c"/>
  <rect x="58" y="27" width="2" height="1" fill="#7679781c"/>
  <rect x="60" y="27" width="4" height="1" fill="#76787a1c"/>
  <rect x="64" y="27" width="8" height="1" fill="#78787a1c"/>
  <rect x="72" y="27" width="3" height="1" fill="#79797b1c"/>
  <rect x="75" y="27" width="1" height="1" fill="#79797b1b"/>
  <rect x="76" y="27" width="1" height="1" fill="#79797b15"/>
  <rect x="77" y="27" width="1" height="1" fill="#7373750c"/>
  <rect x="82" y="27" width="1" height="1" fill="#7979790c"/>
  <rect x="83" y="27" width="1" height="1" fill="#7e7e7e15"/>
  <rect x="84" y="27" width="1" height="1" fill="#7878781b"/>
  <rect x="85" y="27" width="11" height="1" fill="#7878781c"/>
  <rect x="96" y="27" width="59" height="1" fill="#7777771c"/>
  <rect x="155" y="27" width="1" height="1" fill="#7777771b"/>
  <rect x="156" y="27" width="1" height="1" fill="#78787815"/>
  <rect x="157" y="27" width="1" height="1" fill="#7979790c"/>
  <rect x="162" y="27" width="1" height="1" fill="#7777770c"/>
  <rect x="163" y="27" width="1" height="1" fill="#7f7f7f15"/>
  <rect x="164" y="27" width="1" height="1" fill="#7878781b"/>
  <rect x="165" y="27" width="7" height="1" fill="#7878781c"/>
  <rect x="172" y="27" width="2" height="1" fill="#7878761c"/>
  <rect x="174" y="27" width="4" height="1" fill="#7777751c"/>
  <rect x="178" y="27" width="10" height="1" fill="#7676741c"/>
  <rect x="188" y="27" width="36" height="1" fill="#7676761c"/>
  <rect x="224" y="27" width="2" height="1" fill="#7474741c"/>
  <rect x="226" y="27" width="4" height="1" fill="#7676761c"/>
  <rect x="230" y="27" width="5" height="1" fill="#7777771c"/>
  <rect x="235" y="27" width="1" height="1" fill="#7777771b"/>
  <rect x="236" y="27" width="1" height="1" fill="#72727215"/>
  <rect x="237" y="27" width="1" height="1" fill="#7e7e7e0c"/>
</svg>