<svg xmlns="http://www.w3.org/2000/svg" width="14" height="14" viewBox="0 0 14 14" shape-rendering="crispEdges">
  <rect x="0" y="0" width="1" height="1" fill="#0000000f"/>
  <rect x="1" y="0" width="1" height="1" fill="#0000002e"/>
  <rect x="2" y="0" width="8" height="1" fill="#00000033"/>
  <rect x="10" y="0" width="2" height="4" fill="#01010133"/>
  <rect x="12" y="0" width="1" height="1" fill="#0202022e"/>
  <rect x="13" y="0" width="1" height="1" fill="#0202020e"/>
  <rect x="0" y="1" width="1" height="1" fill="#0000002f"/>
  <rect x="1" y="1" width="9" height="1" fill="#00000033"/>
  <rect x="12" y="1" width="1" height="1" fill="#02020233"/>
  <rect x="13" y="1" width="1" height="1" fill="#0202022e"/>
  <rect x="0" y="2" width="10" height="2" fill="#00000033"/>
  <rect x="12" y="2" width="1" height="2" fill="#03030333"/>
  <rect x="13" y="2" width="1" height="2" fill="#03030331"/>
  <rect x="0" y="4" width="2" height="1" fill="#00000033"/>
  <rect x="2" y="4" width="1" height="1" fill="#9d9d9d20"/>
  <rect x="3" y="4" width="1" height="1" fill="#9b9b9b20"/>
  <rect x="4" y="4" width="1" height="1" fill="#01010133"/>
  <rect x="5" y="4" width="1" height="2" fill="#00000033"/>
  <rect x="6" y="4" width="1" height="1" fill="#9d9d9d20"/>
  <rect x="7" y="4" width="1" height="1" fill="#9c9c9c20"/>
  <rect x="8" y="4" width="1" height="1" fill="#01010133"/>
  <rect x="9" y="4" width="1" height="2" fill="#00000033"/>
  <rect x="10" y="4" width="1" height="1" fill="#9d9d9d20"/>
  <rect x="11" y="4" width="1" height="1" fill="#9c9c9c20"/>
  <rect x="12" y="4" width="1" height="2" fill="#05050533"/>
  <rect x="13" y="4" width="1" height="2" fill="#05050531"/>
  <rect x="0" y="5" width="1" height="1" fill="#01010133"/>
  <rect x="1" y="5" width="1" height="1" fill="#00000033"/>
  <rect x="2" y="5" width="1" height="1" fill="#46464611"/>
  <rect x="3" y="5" width="1" height="1" fill="#45454511"/>
  <rect x="4" y="5" width="1" height="1" fill="#02020233"/>
  <rect x="6" y="5" width="1" height="1" fill="#47474711"/>
  <rect x="7" y="5" width="1" height="1" fill="#45454511"/>
  <rect x="8" y="5" width="1" height="1" fill="#02020233"/>
  <rect x="10" y="5" width="1" height="1" fill="#47474711"/>
  <rect x="11" y="5" width="1" height="1" fill="#45454511"/>
  <rect x="0" y="6" width="1" height="2" fill="#00000033"/>
  <rect x="1" y="6" width="1" height="1" fill="#01010133"/>
  <rect x="2" y="6" width="2" height="1" fill="#03030333"/>
  <rect x="4" y="6" width="2" height="1" fill="#02020233"/>
  <rect x="6" y="6" width="2" height="1" fill="#03030333"/>
  <rect x="8" y="6" width="2" height="1" fill="#02020233"/>
  <rect x="10" y="6" width="1" height="1" fill="#03030333"/>
  <rect x="11" y="6" width="2" height="1" fill="#06060633"/>
  <rect x="13" y="6" width="1" height="2" fill="#06060631"/>
  <rect x="1" y="7" width="1" height="1" fill="#03030333"/>
  <rect x="2" y="7" width="1" height="1" fill="#00000033"/>
  <rect x="3" y="7" width="1" height="1" fill="#03030333"/>
  <rect x="4" y="7" width="1" height="1" fill="#00000033"/>
  <rect x="5" y="7" width="1" height="1" fill="#05050533"/>
  <rect x="6" y="7" width="1" height="1" fill="#00000033"/>
  <rect x="7" y="7" width="1" height="1" fill="#05050533"/>
  <rect x="8" y="7" width="1" height="3" fill="#00000033"/>
  <rect x="9" y="7" width="1" height="1" fill="#05050533"/>
  <rect x="10" y="7" width="1" height="2" fill="#00000033"/>
  <rect x="11" y="7" width="1" height="2" fill="#05050533"/>
  <rect x="12" y="7" width="1" height="1" fill="#06060633"/>
  <rect x="0" y="8" width="1" height="1" fill="#10101031"/>
  <rect x="1" y="8" width="1" height="1" fill="#01010133"/>
  <rect x="2" y="8" width="1" height="1" fill="#02020233"/>
  <rect x="3" y="8" width="1" height="1" fill="#01010133"/>
  <rect x="4" y="8" width="3" height="1" fill="#00000033"/>
  <rect x="7" y="8" width="1" height="1" fill="#02020233"/>
  <rect x="9" y="8" width="1" height="1" fill="#03030333"/>
  <rect x="12" y="8" width="1" height="1" fill="#07070733"/>
  <rect x="13" y="8" width="1" height="1" fill="#11111130"/>
  <rect x="0" y="9" width="1" height="1" fill="#8585851f"/>
  <rect x="1" y="9" width="1" height="1" fill="#0f0f0f30"/>
  <rect x="2" y="9" width="1" height="1" fill="#01010133"/>
  <rect x="3" y="9" width="1" height="1" fill="#03030333"/>
  <rect x="4" y="9" width="1" height="1" fill="#01010133"/>
  <rect x="5" y="9" width="1" height="1" fill="#05050533"/>
  <rect x="6" y="9" width="1" height="1" fill="#03030333"/>
  <rect x="7" y="9" width="1" height="1" fill="#07070733"/>
  <rect x="9" y="9" width="1" height="1" fill="#07070733"/>
  <rect x="10" y="9" width="1" height="1" fill="#09090933"/>
  <rect x="11" y="9" width="1" height="1" fill="#00000033"/>
  <rect x="12" y="9" width="1" height="1" fill="#14141431"/>
  <rect x="13" y="9" width="1" height="1" fill="#8888881f"/>
  <rect x="1" y="10" width="1" height="1" fill="#ffffff18"/>
  <rect x="2" y="10" width="1" height="1" fill="#ffffff1a"/>
  <rect x="3" y="10" width="1" height="1" fill="#fafafa1a"/>
  <rect x="4" y="10" width="1" height="1" fill="#fcfbfc1a"/>
  <rect x="5" y="10" width="1" height="1" fill="#ffffff1a"/>
  <rect x="6" y="10" width="1" height="1" fill="#fefefe1a"/>
  <rect x="7" y="10" width="1" height="1" fill="#ffffff1a"/>
  <rect x="8" y="10" width="1" height="1" fill="#77777723"/>
  <rect x="9" y="10" width="1" height="1" fill="#07070732"/>
  <rect x="10" y="10" width="1" height="1" fill="#03030333"/>
  <rect x="11" y="10" width="1" height="1" fill="#02020233"/>
  <rect x="12" y="10" width="1" height="1" fill="#f9f9f917"/>
  <rect x="8" y="11" width="1" height="1" fill="#f9f9f90a"/>
  <rect x="9" y="11" width="1" height="1" fill="#b0b0b01e"/>
  <rect x="10" y="11" width="1" height="1" fill="#1717172e"/>
  <rect x="11" y="11" width="1" height="1" fill="#06060633"/>
  <rect x="10" y="12" width="1" height="1" fill="#f5f5f517"/>
  <rect x="11" y="12" width="1" height="1" fill="#3d3d3d2a"/>
  <rect x="11" y="13" width="1" height="1" fill="#ffffff10"/>
</svg>