<svg xmlns="http://www.w3.org/2000/svg" width="440" height="54" viewBox="0 0 440 54" shape-rendering="crispEdges">
  <rect x="0" y="0" width="440" height="16" fill="#fdfdfd"/>
  <rect x="0" y="16" width="440" height="4" fill="#fcfbfc"/>
  <rect x="0" y="20" width="440" height="2" fill="#fafafa"/>
  <rect x="0" y="22" width="10" height="2" fill="#fafafa"/>
  <rect x="10" y="22" width="6" height="2" fill="#f9fbfa"/>
  <rect x="16" y="22" width="10" height="2" fill="#fafafa"/>
  <rect x="26" y="22" width="6" height="2" fill="#f9fbfa"/>
  <rect x="32" y="22" width="10" height="2" fill="#fafafa"/>
  <rect x="42" y="22" width="6" height="2" fill="#f9fbfa"/>
  <rect x="48" y="22" width="10" height="2" fill="#fafafa"/>
  <rect x="58" y="22" width="6" height="2" fill="#f9fbfa"/>
  <rect x="64" y="22" width="10" height="2" fill="#fafafa"/>
  <rect x="74" y="22" width="6" height="2" fill="#f9fbfa"/>
  <rect x="80" y="22" width="10" height="2" fill="#fafafa"/>
  <rect x="90" y="22" width="6" height="2" fill="#f9fbfa"/>
  <rect x="96" y="22" width="10" height="2" fill="#fafafa"/>
  <rect x="106" y="22" width="6" height="2" fill="#f9fbfa"/>
  <rect x="112" y="22" width="10" height="2" fill="#fafafa"/>
  <rect x="122" y="22" width="6" height="2" fill="#f9fbfa"/>
  <rect x="128" y="22" width="10" height="2" fill="#fafafa"/>
  <rect x="138" y="22" width="6" height="2" fill="#f9fbfa"/>
  <rect x="144" y="22" width="10" height="2" fill="#fafafa"/>
  <rect x="154" y="22" width="6" height="2" fill="#f9fbfa"/>
  <rect x="160" y="22" width="10" height="2" fill="#fafafa"/>
  <rect x="170" y="22" width="6" height="2" fill="#f9fbfa"/>
  <rect x="176" y="22" width="10" height="2" fill="#fafafa"/>
  <rect x="186" y="22" width="6" height="2" fill="#f9fbfa"/>
  <rect x="192" y="22" width="10" height="2" fill="#fafafa"/>
  <rect x="202" y="22" width="6" height="2" fill="#f9fbfa"/>
  <rect x="208" y="22" width="10" height="2" fill="#fafafa"/>
  <rect x="218" y="22" width="6" height="2" fill="#f9fbfa"/>
  <rect x="224" y="22" width="10" height="2" fill="#fafafa"/>
  <rect x="234" y="22" width="6" height="2" fill="#f9fbfa"/>
  <rect x="240" y="22" width="10" height="2" fill="#fafafa"/>
  <rect x="250" y="22" width="6" height="2" fill="#f9fbfa"/>
  <rect x="256" y="22" width="10" height="2" fill="#fafafa"/>
  <rect x="266" y="22" width="6" height="2" fill="#f9fbfa"/>
  <rect x="272" y="22" width="10" height="2" fill="#fafafa"/>
  <rect x="282" y="22" width="6" height="2" fill="#f9fbfa"/>
  <rect x="288" y="22" width="10" height="2" fill="#fafafa"/>
  <rect x="298" y="22" width="6" height="2" fill="#f9fbfa"/>
  <rect x="304" y="22" width="10" height="2" fill="#fafafa"/>
  <rect x="314" y="22" width="6" height="2" fill="#f9fbfa"/>
  <rect x="320" y="22" width="10" height="2" fill="#fafafa"/>
  <rect x="330" y="22" width="6" height="2" fill="#f9fbfa"/>
  <rect x="336" y="22" width="10" height="2" fill="#fafafa"/>
  <rect x="346" y="22" width="6" height="2" fill="#f9fbfa"/>
  <rect x="352" y="22" width="10" height="2" fill="#fafafa"/>
  <rect x="362" y="22" width="6" height="2" fill="#f9fbfa"/>
  <rect x="368" y="22" width="10" height="2" fill="#fafafa"/>
  <rect x="378" y="22" width="6" height="2" fill="#f9fbfa"/>
  <rect x="384" y="22" width="10" height="2" fill="#fafafa"/>
  <rect x="394" y="22" width="6" height="2" fill="#f9fbfa"/>
  <rect x="400" y="22" width="10" height="2" fill="#fafafa"/>
  <rect x="410" y="22" width="6" height="2" fill="#f9fbfa"/>
  <rect x="416" y="22" width="10" height="2" fill="#fafafa"/>
  <rect x="426" y="22" width="6" height="2" fill="#f9fbfa"/>
  <rect x="432" y="22" width="8" height="4" fill="#fafafa"/>
  <rect x="0" y="24" width="6" height="4" fill="#fafafa"/>
  <rect x="6" y="24" width="10" height="2" fill="#f9fbfa"/>
  <rect x="16" y="24" width="6" height="2" fill="#fafafa"/>
  <rect x="22" y="24" width="10" height="2" fill="#f9fbfa"/>
  <rect x="32" y="24" width="6" height="2" fill="#fafafa"/>
  <rect x="38" y="24" width="10" height="2" fill="#f9fbfa"/>
  <rect x="48" y="24" width="6" height="2" fill="#fafafa"/>
  <rect x="54" y="24" width="10" height="2" fill="#f9fbfa"/>
  <rect x="64" y="24" width="6" height="2" fill="#fafafa"/>
  <rect x="70" y="24" width="10" height="2" fill="#f9fbfa"/>
  <rect x="80" y="24" width="6" height="2" fill="#fafafa"/>
  <rect x="86" y="24" width="10" height="2" fill="#f9fbfa"/>
  <rect x="96" y="24" width="6" height="2" fill="#fafafa"/>
  <rect x="102" y="24" width="10" height="2" fill="#f9fbfa"/>
  <rect x="112" y="24" width="6" height="2" fill="#fafafa"/>
  <rect x="118" y="24" width="10" height="2" fill="#f9fbfa"/>
  <rect x="128" y="24" width="6" height="2" fill="#fafafa"/>
  <rect x="134" y="24" width="10" height="2" fill="#f9fbfa"/>
  <rect x="144" y="24" width="6" height="2" fill="#fafafa"/>
  <rect x="150" y="24" width="10" height="2" fill="#f9fbfa"/>
  <rect x="160" y="24" width="6" height="2" fill="#fafafa"/>
  <rect x="166" y="24" width="10" height="2" fill="#f9fbfa"/>
  <rect x="176" y="24" width="6" height="2" fill="#fafafa"/>
  <rect x="182" y="24" width="10" height="2" fill="#f9fbfa"/>
  <rect x="192" y="24" width="6" height="2" fill="#fafafa"/>
  <rect x="198" y="24" width="10" height="2" fill="#f9fbfa"/>
  <rect x="208" y="24" width="6" height="2" fill="#fafafa"/>
  <rect x="214" y="24" width="10" height="2" fill="#f9fbfa"/>
  <rect x="224" y="24" width="6" height="2" fill="#fafafa"/>
  <rect x="230" y="24" width="10" height="2" fill="#f9fbfa"/>
  <rect x="240" y="24" width="6" height="2" fill="#fafafa"/>
  <rect x="246" y="24" width="10" height="2" fill="#f9fbfa"/>
  <rect x="256" y="24" width="6" height="2" fill="#fafafa"/>
  <rect x="262" y="24" width="10" height="2" fill="#f9fbfa"/>
  <rect x="272" y="24" width="6" height="2" fill="#fafafa"/>
  <rect x="278" y="24" width="10" height="2" fill="#f9fbfa"/>
  <rect x="288" y="24" width="6" height="2" fill="#fafafa"/>
  <rect x="294" y="24" width="10" height="2" fill="#f9fbfa"/>
  <rect x="304" y="24" width="6" height="2" fill="#fafafa"/>
  <rect x="310" y="24" width="10" height="2" fill="#f9fbfa"/>
  <rect x="320" y="24" width="6" height="2" fill="#fafafa"/>
  <rect x="326" y="24" width="10" height="2" fill="#f9fbfa"/>
  <rect x="336" y="24" width="6" height="2" fill="#fafafa"/>
  <rect x="342" y="24" width="10" height="2" fill="#f9fbfa"/>
  <rect x="352" y="24" width="6" height="2" fill="#fafafa"/>
  <rect x="358" y="24" width="10" height="2" fill="#f9fbfa"/>
  <rect x="368" y="24" width="6" height="2" fill="#fafafa"/>
  <rect x="374" y="24" width="10" height="2" fill="#f9fbfa"/>
  <rect x="384" y="24" width="6" height="2" fill="#fafafa"/>
  <rect x="390" y="24" width="10" height="2" fill="#f9fbfa"/>
  <rect x="400" y="24" width="6" height="2" fill="#fafafa"/>
  <rect x="406" y="24" width="10" height="2" fill="#f9fbfa"/>
  <rect x="416" y="24" width="6" height="2" fill="#fafafa"/>
  <rect x="422" y="24" width="10" height="2" fill="#f9fbfa"/>
  <rect x="6" y="26" width="4" height="2" fill="#f9fbfa"/>
  <rect x="10" y="26" width="2" height="2" fill="#f7fcfa"/>
  <rect x="12" y="26" width="8" height="2" fill="#f9fbfa"/>
  <rect x="20" y="26" width="2" height="2" fill="#fafafa"/>
  <rect x="22" y="26" width="4" height="2" fill="#f9fbfa"/>
  <rect x="26" y="26" width="2" height="2" fill="#f7fcfa"/>
  <rect x="28" y="26" width="8" height="2" fill="#f9fbfa"/>
  <rect x="36" y="26" width="2" height="2" fill="#fafafa"/>
  <rect x="38" y="26" width="4" height="2" fill="#f9fbfa"/>
  <rect x="42" y="26" width="2" height="2" fill="#f7fcfa"/>
  <rect x="44" y="26" width="8" height="2" fill="#f9fbfa"/>
  <rect x="52" y="26" width="2" height="2" fill="#fafafa"/>
  <rect x="54" y="26" width="4" height="2" fill="#f9fbfa"/>
  <rect x="58" y="26" width="2" height="2" fill="#f7fcfa"/>
  <rect x="60" y="26" width="8" height="2" fill="#f9fbfa"/>
  <rect x="68" y="26" width="2" height="2" fill="#fafafa"/>
  <rect x="70" y="26" width="4" height="2" fill="#f9fbfa"/>
  <rect x="74" y="26" width="2" height="2" fill="#f7fcfa"/>
  <rect x="76" y="26" width="8" height="2" fill="#f9fbfa"/>
  <rect x="84" y="26" width="2" height="2" fill="#fafafa"/>
  <rect x="86" y="26" width="4" height="2" fill="#f9fbfa"/>
  <rect x="90" y="26" width="2" height="2" fill="#f7fcfa"/>
  <rect x="92" y="26" width="8" height="2" fill="#f9fbfa"/>
  <rect x="100" y="26" width="2" height="2" fill="#fafafa"/>
  <rect x="102" y="26" width="4" height="2" fill="#f9fbfa"/>
  <rect x="106" y="26" width="2" height="2" fill="#f7fcfa"/>
  <rect x="108" y="26" width="8" height="2" fill="#f9fbfa"/>
  <rect x="116" y="26" width="2" height="2" fill="#fafafa"/>
  <rect x="118" y="26" width="4" height="2" fill="#f9fbfa"/>
  <rect x="122" y="26" width="2" height="2" fill="#f7fcfa"/>
  <rect x="124" y="26" width="8" height="2" fill="#f9fbfa"/>
  <rect x="132" y="26" width="2" height="2" fill="#fafafa"/>
  <rect x="134" y="26" width="4" height="2" fill="#f9fbfa"/>
  <rect x="138" y="26" width="2" height="2" fill="#f7fcfa"/>
  <rect x="140" y="26" width="8" height="2" fill="#f9fbfa"/>
  <rect x="148" y="26" width="2" height="2" fill="#fafafa"/>
  <rect x="150" y="26" width="4" height="2" fill="#f9fbfa"/>
  <rect x="154" y="26" width="2" height="2" fill="#f7fcfa"/>
  <rect x="156" y="26" width="8" height="2" fill="#f9fbfa"/>
  <rect x="164" y="26" width="2" height="2" fill="#fafafa"/>
  <rect x="166" y="26" width="4" height="2" fill="#f9fbfa"/>
  <rect x="170" y="26" width="2" height="2" fill="#f7fcfa"/>
  <rect x="172" y="26" width="8" height="2" fill="#f9fbfa"/>
  <rect x="180" y="26" width="2" height="2" fill="#fafafa"/>
  <rect x="182" y="26" width="4" height="2" fill="#f9fbfa"/>
  <rect x="186" y="26" width="2" height="2" fill="#f7fcfa"/>
  <rect x="188" y="26" width="8" height="2" fill="#f9fbfa"/>
  <rect x="196" y="26" width="2" height="2" fill="#fafafa"/>
  <rect x="198" y="26" width="4" height="2" fill="#f9fbfa"/>
  <rect x="202" y="26" width="2" height="2" fill="#f7fcfa"/>
  <rect x="204" y="26" width="8" height="2" fill="#f9fbfa"/>
  <rect x="212" y="26" width="2" height="2" fill="#fafafa"/>
  <rect x="214" y="26" width="4" height="2" fill="#f9fbfa"/>
  <rect x="218" y="26" width="2" height="2" fill="#f7fcfa"/>
  <rect x="220" y="26" width="8" height="2" fill="#f9fbfa"/>
  <rect x="228" y="26" width="2" height="2" fill="#fafafa"/>
  <rect x="230" y="26" width="4" height="2" fill="#f9fbfa"/>
  <rect x="234" y="26" width="2" height="2" fill="#f7fcfa"/>
  <rect x="236" y="26" width="8" height="2" fill="#f9fbfa"/>
  <rect x="244" y="26" width="2" height="2" fill="#fafafa"/>
  <rect x="246" y="26" width="4" height="2" fill="#f9fbfa"/>
  <rect x="250" y="26" width="2" height="2" fill="#f7fcfa"/>
  <rect x="252" y="26" width="8" height="2" fill="#f9fbfa"/>
  <rect x="260" y="26" width="2" height="2" fill="#fafafa"/>
  <rect x="262" y="26" width="4" height="2" fill="#f9fbfa"/>
  <rect x="266" y="26" width="2" height="2" fill="#f7fcfa"/>
  <rect x="268" y="26" width="8" height="2" fill="#f9fbfa"/>
  <rect x="276" y="26" width="2" height="2" fill="#fafafa"/>
  <rect x="278" y="26" width="4" height="2" fill="#f9fbfa"/>
  <rect x="282" y="26" width="2" height="2" fill="#f7fcfa"/>
  <rect x="284" y="26" width="8" height="2" fill="#f9fbfa"/>
  <rect x="292" y="26" width="2" height="2" fill="#fafafa"/>
  <rect x="294" y="26" width="4" height="2" fill="#f9fbfa"/>
  <rect x="298" y="26" width="2" height="2" fill="#f7fcfa"/>
  <rect x="300" y="26" width="8" height="2" fill="#f9fbfa"/>
  <rect x="308" y="26" width="2" height="2" fill="#fafafa"/>
  <rect x="310" y="26" width="4" height="2" fill="#f9fbfa"/>
  <rect x="314" y="26" width="2" height="2" fill="#f7fcfa"/>
  <rect x="316" y="26" width="8" height="2" fill="#f9fbfa"/>
  <rect x="324" y="26" width="2" height="2" fill="#fafafa"/>
  <rect x="326" y="26" width="4" height="2" fill="#f9fbfa"/>
  <rect x="330" y="26" width="2" height="2" fill="#f7fcfa"/>
  <rect x="332" y="26" width="8" height="2" fill="#f9fbfa"/>
  <rect x="340" y="26" width="2" height="2" fill="#fafafa"/>
  <rect x="342" y="26" width="4" height="2" fill="#f9fbfa"/>
  <rect x="346" y="26" width="2" height="2" fill="#f7fcfa"/>
  <rect x="348" y="26" width="8" height="2" fill="#f9fbfa"/>
  <rect x="356" y="26" width="2" height="2" fill="#fafafa"/>
  <rect x="358" y="26" width="4" height="2" fill="#f9fbfa"/>
  <rect x="362" y="26" width="2" height="2" fill="#f7fcfa"/>
  <rect x="364" y="26" width="8" height="2" fill="#f9fbfa"/>
  <rect x="372" y="26" width="2" height="2" fill="#fafafa"/>
  <rect x="374" y="26" width="4" height="2" fill="#f9fbfa"/>
  <rect x="378" y="26" width="2" height="2" fill="#f7fcfa"/>
  <rect x="380" y="26" width="8" height="2" fill="#f9fbfa"/>
  <rect x="388" y="26" width="2" height="2" fill="#fafafa"/>
  <rect x="390" y="26" width="4" height="2" fill="#f9fbfa"/>
  <rect x="394" y="26" width="2" height="2" fill="#f7fcfa"/>
  <rect x="396" y="26" width="8" height="2" fill="#f9fbfa"/>
  <rect x="404" y="26" width="2" height="2" fill="#fafafa"/>
  <rect x="406" y="26" width="4" height="2" fill="#f9fbfa"/>
  <rect x="410" y="26" width="2" height="2" fill="#f7fcfa"/>
  <rect x="412" y="26" width="8" height="2" fill="#f9fbfa"/>
  <rect x="420" y="26" width="2" height="2" fill="#fafafa"/>
  <rect x="422" y="26" width="4" height="2" fill="#f9fbfa"/>
  <rect x="426" y="26" width="2" height="2" fill="#f7fcfa"/>
  <rect x="428" y="26" width="8" height="2" fill="#f9fbfa"/>
  <rect x="436" y="26" width="4" height="2" fill="#fafafa"/>
  <rect x="0" y="28" width="6" height="4" fill="#f9f9f9"/>
  <rect x="6" y="28" width="4" height="4" fill="#f8faf9"/>
  <rect x="10" y="28" width="2" height="4" fill="#f6fbf9"/>
  <rect x="12" y="28" width="4" height="4" fill="#f8fafb"/>
  <rect x="16" y="28" width="10" height="4" fill="#f8faf9"/>
  <rect x="26" y="28" width="2" height="4" fill="#f6fbf9"/>
  <rect x="28" y="28" width="8" height="4" fill="#f8faf9"/>
  <rect x="36" y="28" width="2" height="4" fill="#f9f9f9"/>
  <rect x="38" y="28" width="4" height="4" fill="#f8faf9"/>
  <rect x="42" y="28" width="2" height="4" fill="#f6fbf9"/>
  <rect x="44" y="28" width="14" height="4" fill="#f8faf9"/>
  <rect x="58" y="28" width="2" height="4" fill="#f6fbf9"/>
  <rect x="60" y="28" width="8" height="4" fill="#f8faf9"/>
  <rect x="68" y="28" width="2" height="4" fill="#f9f9f9"/>
  <rect x="70" y="28" width="4" height="4" fill="#f8faf9"/>
  <rect x="74" y="28" width="2" height="4" fill="#f6fbf9"/>
  <rect x="76" y="28" width="14" height="4" fill="#f8faf9"/>
  <rect x="90" y="28" width="2" height="4" fill="#f6fbf9"/>
  <rect x="92" y="28" width="8" height="4" fill="#f8faf9"/>
  <rect x="100" y="28" width="2" height="4" fill="#f9f9f9"/>
  <rect x="102" y="28" width="4" height="4" fill="#f8faf9"/>
  <rect x="106" y="28" width="2" height="4" fill="#f6fbf9"/>
  <rect x="108" y="28" width="14" height="4" fill="#f8faf9"/>
  <rect x="122" y="28" width="2" height="4" fill="#f6fbf9"/>
  <rect x="124" y="28" width="8" height="4" fill="#f8faf9"/>
  <rect x="132" y="28" width="2" height="4" fill="#f9f9f9"/>
  <rect x="134" y="28" width="4" height="4" fill="#f8faf9"/>
  <rect x="138" y="28" width="2" height="4" fill="#f6fbf9"/>
  <rect x="140" y="28" width="14" height="4" fill="#f8faf9"/>
  <rect x="154" y="28" width="2" height="4" fill="#f6fbf9"/>
  <rect x="156" y="28" width="8" height="4" fill="#f8faf9"/>
  <rect x="164" y="28" width="2" height="4" fill="#f9f9f9"/>
  <rect x="166" y="28" width="4" height="4" fill="#f8faf9"/>
  <rect x="170" y="28" width="2" height="4" fill="#f6fbf9"/>
  <rect x="172" y="28" width="14" height="4" fill="#f8faf9"/>
  <rect x="186" y="28" width="2" height="4" fill="#f6fbf9"/>
  <rect x="188" y="28" width="8" height="4" fill="#f8faf9"/>
  <rect x="196" y="28" width="2" height="4" fill="#f9f9f9"/>
  <rect x="198" y="28" width="4" height="4" fill="#f8faf9"/>
  <rect x="202" y="28" width="2" height="4" fill="#f6fbf9"/>
  <rect x="204" y="28" width="14" height="4" fill="#f8faf9"/>
  <rect x="218" y="28" width="2" height="4" fill="#f6fbf9"/>
  <rect x="220" y="28" width="8" height="4" fill="#f8faf9"/>
  <rect x="228" y="28" width="2" height="4" fill="#f9f9f9"/>
  <rect x="230" y="28" width="4" height="4" fill="#f8faf9"/>
  <rect x="234" y="28" width="2" height="4" fill="#f6fbf9"/>
  <rect x="236" y="28" width="14" height="4" fill="#f8faf9"/>
  <rect x="250" y="28" width="2" height="4" fill="#f6fbf9"/>
  <rect x="252" y="28" width="8" height="4" fill="#f8faf9"/>
  <rect x="260" y="28" width="2" height="4" fill="#f9f9f9"/>
  <rect x="262" y="28" width="4" height="4" fill="#f8faf9"/>
  <rect x="266" y="28" width="2" height="4" fill="#f6fbf9"/>
  <rect x="268" y="28" width="14" height="4" fill="#f8faf9"/>
  <rect x="282" y="28" width="2" height="4" fill="#f6fbf9"/>
  <rect x="284" y="28" width="8" height="4" fill="#f8faf9"/>
  <rect x="292" y="28" width="2" height="4" fill="#f9f9f9"/>
  <rect x="294" y="28" width="4" height="4" fill="#f8faf9"/>
  <rect x="298" y="28" width="2" height="4" fill="#f6fbf9"/>
  <rect x="300" y="28" width="14" height="4" fill="#f8faf9"/>
  <rect x="314" y="28" width="2" height="4" fill="#f6fbf9"/>
  <rect x="316" y="28" width="8" height="4" fill="#f8faf9"/>
  <rect x="324" y="28" width="2" height="4" fill="#f9f9f9"/>
  <rect x="326" y="28" width="4" height="4" fill="#f8faf9"/>
  <rect x="330" y="28" width="2" height="4" fill="#f6fbf9"/>
  <rect x="332" y="28" width="14" height="4" fill="#f8faf9"/>
  <rect x="346" y="28" width="2" height="4" fill="#f6fbf9"/>
  <rect x="348" y="28" width="8" height="4" fill="#f8faf9"/>
  <rect x="356" y="28" width="2" height="4" fill="#f9f9f9"/>
  <rect x="358" y="28" width="4" height="4" fill="#f8faf9"/>
  <rect x="362" y="28" width="2" height="4" fill="#f6fbf9"/>
  <rect x="364" y="28" width="14" height="4" fill="#f8faf9"/>
  <rect x="378" y="28" width="2" height="4" fill="#f6fbf9"/>
  <rect x="380" y="28" width="8" height="4" fill="#f8faf9"/>
  <rect x="388" y="28" width="2" height="4" fill="#f9f9f9"/>
  <rect x="390" y="28" width="4" height="4" fill="#f8faf9"/>
  <rect x="394" y="28" width="2" height="4" fill="#f6fbf9"/>
  <rect x="396" y="28" width="14" height="4" fill="#f8faf9"/>
  <rect x="410" y="28" width="2" height="4" fill="#f6fbf9"/>
  <rect x="412" y="28" width="8" height="4" fill="#f8faf9"/>
  <rect x="420" y="28" width="2" height="4" fill="#f9f9f9"/>
  <rect x="422" y="28" width="4" height="4" fill="#f8faf9"/>
  <rect x="426" y="28" width="2" height="4" fill="#f6fbf9"/>
  <rect x="428" y="28" width="12" height="4" fill="#f8faf9"/>
  <rect x="0" y="32" width="4" height="4" fill="#f6f9f8"/>
  <rect x="4" y="32" width="8" height="4" fill="#f6f8fa"/>
  <rect x="12" y="32" width="8" height="4" fill="#f5f9fa"/>
  <rect x="20" y="32" width="2" height="4" fill="#f6f8fa"/>
  <rect x="22" y="32" width="6" height="4" fill="#f5f9fa"/>
  <rect x="28" y="32" width="16" height="4" fill="#f6f8fa"/>
  <rect x="44" y="32" width="8" height="4" fill="#f5f9fa"/>
  <rect x="52" y="32" width="2" height="4" fill="#f6f8fa"/>
  <rect x="54" y="32" width="6" height="4" fill="#f5f9fa"/>
  <rect x="60" y="32" width="16" height="4" fill="#f6f8fa"/>
  <rect x="76" y="32" width="8" height="4" fill="#f5f9fa"/>
  <rect x="84" y="32" width="2" height="4" fill="#f6f8fa"/>
  <rect x="86" y="32" width="6" height="4" fill="#f5f9fa"/>
  <rect x="92" y="32" width="16" height="4" fill="#f6f8fa"/>
  <rect x="108" y="32" width="8" height="4" fill="#f5f9fa"/>
  <rect x="116" y="32" width="2" height="4" fill="#f6f8fa"/>
  <rect x="118" y="32" width="6" height="4" fill="#f5f9fa"/>
  <rect x="124" y="32" width="16" height="4" fill="#f6f8fa"/>
  <rect x="140" y="32" width="8" height="4" fill="#f5f9fa"/>
  <rect x="148" y="32" width="2" height="4" fill="#f6f8fa"/>
  <rect x="150" y="32" width="6" height="4" fill="#f5f9fa"/>
  <rect x="156" y="32" width="16" height="4" fill="#f6f8fa"/>
  <rect x="172" y="32" width="8" height="4" fill="#f5f9fa"/>
  <rect x="180" y="32" width="2" height="4" fill="#f6f8fa"/>
  <rect x="182" y="32" width="6" height="4" fill="#f5f9fa"/>
  <rect x="188" y="32" width="16" height="4" fill="#f6f8fa"/>
  <rect x="204" y="32" width="8" height="4" fill="#f5f9fa"/>
  <rect x="212" y="32" width="2" height="4" fill="#f6f8fa"/>
  <rect x="214" y="32" width="6" height="4" fill="#f5f9fa"/>
  <rect x="220" y="32" width="16" height="4" fill="#f6f8fa"/>
  <rect x="236" y="32" width="8" height="4" fill="#f5f9fa"/>
  <rect x="244" y="32" width="2" height="4" fill="#f6f8fa"/>
  <rect x="246" y="32" width="6" height="4" fill="#f5f9fa"/>
  <rect x="252" y="32" width="16" height="4" fill="#f6f8fa"/>
  <rect x="268" y="32" width="8" height="4" fill="#f5f9fa"/>
  <rect x="276" y="32" width="2" height="4" fill="#f6f8fa"/>
  <rect x="278" y="32" width="6" height="4" fill="#f5f9fa"/>
  <rect x="284" y="32" width="16" height="4" fill="#f6f8fa"/>
  <rect x="300" y="32" width="8" height="4" fill="#f5f9fa"/>
  <rect x="308" y="32" width="2" height="4" fill="#f6f8fa"/>
  <rect x="310" y="32" width="6" height="4" fill="#f5f9fa"/>
  <rect x="316" y="32" width="16" height="4" fill="#f6f8fa"/>
  <rect x="332" y="32" width="8" height="4" fill="#f5f9fa"/>
  <rect x="340" y="32" width="2" height="4" fill="#f6f8fa"/>
  <rect x="342" y="32" width="6" height="4" fill="#f5f9fa"/>
  <rect x="348" y="32" width="16" height="4" fill="#f6f8fa"/>
  <rect x="364" y="32" width="8" height="4" fill="#f5f9fa"/>
  <rect x="372" y="32" width="2" height="4" fill="#f6f8fa"/>
  <rect x="374" y="32" width="6" height="4" fill="#f5f9fa"/>
  <rect x="380" y="32" width="16" height="4" fill="#f6f8fa"/>
  <rect x="396" y="32" width="8" height="4" fill="#f5f9fa"/>
  <rect x="404" y="32" width="2" height="4" fill="#f6f8fa"/>
  <rect x="406" y="32" width="6" height="4" fill="#f5f9fa"/>
  <rect x="412" y="32" width="16" height="4" fill="#f6f8fa"/>
  <rect x="428" y="32" width="8" height="4" fill="#f5f9fa"/>
  <rect x="436" y="32" width="4" height="4" fill="#f6f8fa"/>
  <rect x="0" y="36" width="12" height="2" fill="#f6f8fa"/>
  <rect x="12" y="36" width="4" height="4" fill="#f5f9fc"/>
  <rect x="16" y="36" width="12" height="2" fill="#f5f9fa"/>
  <rect x="28" y="36" width="8" height="2" fill="#f6f8fa"/>
  <rect x="36" y="36" width="2" height="2" fill="#f6f8fc"/>
  <rect x="38" y="36" width="6" height="2" fill="#f6f8fa"/>
  <rect x="44" y="36" width="16" height="2" fill="#f5f9fa"/>
  <rect x="60" y="36" width="4" height="4" fill="#f6f8fc"/>
  <rect x="64" y="36" width="12" height="2" fill="#f6f8fa"/>
  <rect x="76" y="36" width="4" height="4" fill="#f5f9fc"/>
  <rect x="80" y="36" width="12" height="4" fill="#f5f9fa"/>
  <rect x="92" y="36" width="4" height="4" fill="#f6f8fc"/>
  <rect x="96" y="36" width="12" height="2" fill="#f6f8fa"/>
  <rect x="108" y="36" width="4" height="4" fill="#f5f9fc"/>
  <rect x="112" y="36" width="12" height="4" fill="#f5f9fa"/>
  <rect x="124" y="36" width="4" height="4" fill="#f6f8fc"/>
  <rect x="128" y="36" width="12" height="2" fill="#f6f8fa"/>
  <rect x="140" y="36" width="4" height="4" fill="#f5f9fc"/>
  <rect x="144" y="36" width="12" height="4" fill="#f5f9fa"/>
  <rect x="156" y="36" width="4" height="4" fill="#f6f8fc"/>
  <rect x="160" y="36" width="12" height="2" fill="#f6f8fa"/>
  <rect x="172" y="36" width="4" height="4" fill="#f5f9fc"/>
  <rect x="176" y="36" width="12" height="4" fill="#f5f9fa"/>
  <rect x="188" y="36" width="4" height="4" fill="#f6f8fc"/>
  <rect x="192" y="36" width="12" height="2" fill="#f6f8fa"/>
  <rect x="204" y="36" width="4" height="4" fill="#f5f9fc"/>
  <rect x="208" y="36" width="12" height="4" fill="#f5f9fa"/>
  <rect x="220" y="36" width="4" height="4" fill="#f6f8fc"/>
  <rect x="224" y="36" width="12" height="2" fill="#f6f8fa"/>
  <rect x="236" y="36" width="4" height="4" fill="#f5f9fc"/>
  <rect x="240" y="36" width="12" height="4" fill="#f5f9fa"/>
  <rect x="252" y="36" width="4" height="4" fill="#f6f8fc"/>
  <rect x="256" y="36" width="12" height="2" fill="#f6f8fa"/>
  <rect x="268" y="36" width="4" height="4" fill="#f5f9fc"/>
  <rect x="272" y="36" width="12" height="4" fill="#f5f9fa"/>
  <rect x="284" y="36" width="4" height="4" fill="#f6f8fc"/>
  <rect x="288" y="36" width="12" height="2" fill="#f6f8fa"/>
  <rect x="300" y="36" width="4" height="4" fill="#f5f9fc"/>
  <rect x="304" y="36" width="12" height="4" fill="#f5f9fa"/>
  <rect x="316" y="36" width="4" height="4" fill="#f6f8fc"/>
  <rect x="320" y="36" width="12" height="2" fill="#f6f8fa"/>
  <rect x="332" y="36" width="4" height="4" fill="#f5f9fc"/>
  <rect x="336" y="36" width="12" height="4" fill="#f5f9fa"/>
  <rect x="348" y="36" width="4" height="4" fill="#f6f8fc"/>
  <rect x="352" y="36" width="12" height="2" fill="#f6f8fa"/>
  <rect x="364" y="36" width="4" height="4" fill="#f5f9fc"/>
  <rect x="368" y="36" width="12" height="4" fill="#f5f9fa"/>
  <rect x="380" y="36" width="4" height="4" fill="#f6f8fc"/>
  <rect x="384" y="36" width="12" height="2" fill="#f6f8fa"/>
  <rect x="396" y="36" width="4" height="4" fill="#f5f9fc"/>
  <rect x="400" y="36" width="12" height="4" fill="#f5f9fa"/>
  <rect x="412" y="36" width="4" height="4" fill="#f6f8fc"/>
  <rect x="416" y="36" width="12" height="2" fill="#f6f8fa"/>
  <rect x="428" y="36" width="4" height="4" fill="#f5f9fc"/>
  <rect x="432" y="36" width="8" height="4" fill="#f5f9fa"/>
  <rect x="0" y="38" width="4" height="2" fill="#f5f9fa"/>
  <rect x="4" y="38" width="8" height="2" fill="#f6f8fa"/>
  <rect x="16" y="38" width="20" height="2" fill="#f5f9fa"/>
  <rect x="36" y="38" width="2" height="2" fill="#f5f9fc"/>
  <rect x="38" y="38" width="22" height="2" fill="#f5f9fa"/>
  <rect x="64" y="38" width="4" height="2" fill="#f6f8fa"/>
  <rect x="68" y="38" width="8" height="2" fill="#f5f9fa"/>
  <rect x="96" y="38" width="4" height="2" fill="#f6f8fa"/>
  <rect x="100" y="38" width="8" height="2" fill="#f5f9fa"/>
  <rect x="128" y="38" width="4" height="2" fill="#f6f8fa"/>
  <rect x="132" y="38" width="8" height="2" fill="#f5f9fa"/>
  <rect x="160" y="38" width="4" height="2" fill="#f6f8fa"/>
  <rect x="164" y="38" width="8" height="2" fill="#f5f9fa"/>
  <rect x="192" y="38" width="4" height="2" fill="#f6f8fa"/>
  <rect x="196" y="38" width="8" height="2" fill="#f5f9fa"/>
  <rect x="224" y="38" width="4" height="2" fill="#f6f8fa"/>
  <rect x="228" y="38" width="8" height="2" fill="#f5f9fa"/>
  <rect x="256" y="38" width="4" height="2" fill="#f6f8fa"/>
  <rect x="260" y="38" width="8" height="2" fill="#f5f9fa"/>
  <rect x="288" y="38" width="4" height="2" fill="#f6f8fa"/>
  <rect x="292" y="38" width="8" height="2" fill="#f5f9fa"/>
  <rect x="320" y="38" width="4" height="2" fill="#f6f8fa"/>
  <rect x="324" y="38" width="8" height="2" fill="#f5f9fa"/>
  <rect x="352" y="38" width="4" height="2" fill="#f6f8fa"/>
  <rect x="356" y="38" width="8" height="2" fill="#f5f9fa"/>
  <rect x="384" y="38" width="4" height="2" fill="#f6f8fa"/>
  <rect x="388" y="38" width="8" height="2" fill="#f5f9fa"/>
  <rect x="416" y="38" width="4" height="2" fill="#f6f8fa"/>
  <rect x="420" y="38" width="8" height="2" fill="#f5f9fa"/>
  <rect x="0" y="40" width="4" height="2" fill="#f4f8f9"/>
  <rect x="4" y="40" width="8" height="8" fill="#f4f8fb"/>
  <rect x="12" y="40" width="4" height="8" fill="#f5f7fb"/>
  <rect x="16" y="40" width="6" height="8" fill="#f5f7f9"/>
  <rect x="22" y="40" width="4" height="4" fill="#f4f8f9"/>
  <rect x="26" y="40" width="2" height="4" fill="#f2f9f9"/>
  <rect x="28" y="40" width="14" height="2" fill="#f4f8fb"/>
  <rect x="42" y="40" width="10" height="2" fill="#f4f8f9"/>
  <rect x="52" y="40" width="8" height="4" fill="#f5f7fb"/>
  <rect x="60" y="40" width="4" height="4" fill="#f4f8fb"/>
  <rect x="64" y="40" width="4" height="4" fill="#f4f8f9"/>
  <rect x="68" y="40" width="12" height="2" fill="#f4f8fb"/>
  <rect x="80" y="40" width="4" height="4" fill="#f4f8f9"/>
  <rect x="84" y="40" width="8" height="8" fill="#f5f7fb"/>
  <rect x="92" y="40" width="4" height="4" fill="#f4f8fb"/>
  <rect x="96" y="40" width="4" height="4" fill="#f4f8f9"/>
  <rect x="100" y="40" width="12" height="2" fill="#f4f8fb"/>
  <rect x="112" y="40" width="4" height="4" fill="#f4f8f9"/>
  <rect x="116" y="40" width="8" height="8" fill="#f5f7fb"/>
  <rect x="124" y="40" width="4" height="4" fill="#f4f8fb"/>
  <rect x="128" y="40" width="4" height="4" fill="#f4f8f9"/>
  <rect x="132" y="40" width="12" height="2" fill="#f4f8fb"/>
  <rect x="144" y="40" width="4" height="4" fill="#f4f8f9"/>
  <rect x="148" y="40" width="8" height="8" fill="#f5f7fb"/>
  <rect x="156" y="40" width="4" height="4" fill="#f4f8fb"/>
  <rect x="160" y="40" width="4" height="4" fill="#f4f8f9"/>
  <rect x="164" y="40" width="12" height="2" fill="#f4f8fb"/>
  <rect x="176" y="40" width="4" height="4" fill="#f4f8f9"/>
  <rect x="180" y="40" width="8" height="8" fill="#f5f7fb"/>
  <rect x="188" y="40" width="4" height="4" fill="#f4f8fb"/>
  <rect x="192" y="40" width="4" height="4" fill="#f4f8f9"/>
  <rect x="196" y="40" width="12" height="2" fill="#f4f8fb"/>
  <rect x="208" y="40" width="4" height="4" fill="#f4f8f9"/>
  <rect x="212" y="40" width="8" height="8" fill="#f5f7fb"/>
  <rect x="220" y="40" width="4" height="4" fill="#f4f8fb"/>
  <rect x="224" y="40" width="4" height="4" fill="#f4f8f9"/>
  <rect x="228" y="40" width="12" height="2" fill="#f4f8fb"/>
  <rect x="240" y="40" width="4" height="4" fill="#f4f8f9"/>
  <rect x="244" y="40" width="8" height="8" fill="#f5f7fb"/>
  <rect x="252" y="40" width="4" height="4" fill="#f4f8fb"/>
  <rect x="256" y="40" width="4" height="4" fill="#f4f8f9"/>
  <rect x="260" y="40" width="12" height="2" fill="#f4f8fb"/>
  <rect x="272" y="40" width="4" height="4" fill="#f4f8f9"/>
  <rect x="276" y="40" width="8" height="8" fill="#f5f7fb"/>
  <rect x="284" y="40" width="4" height="4" fill="#f4f8fb"/>
  <rect x="288" y="40" width="4" height="4" fill="#f4f8f9"/>
  <rect x="292" y="40" width="12" height="2" fill="#f4f8fb"/>
  <rect x="304" y="40" width="4" height="4" fill="#f4f8f9"/>
  <rect x="308" y="40" width="8" height="8" fill="#f5f7fb"/>
  <rect x="316" y="40" width="4" height="4" fill="#f4f8fb"/>
  <rect x="320" y="40" width="4" height="4" fill="#f4f8f9"/>
  <rect x="324" y="40" width="12" height="2" fill="#f4f8fb"/>
  <rect x="336" y="40" width="4" height="4" fill="#f4f8f9"/>
  <rect x="340" y="40" width="8" height="8" fill="#f5f7fb"/>
  <rect x="348" y="40" width="4" height="4" fill="#f4f8fb"/>
  <rect x="352" y="40" width="4" height="4" fill="#f4f8f9"/>
  <rect x="356" y="40" width="12" height="2" fill="#f4f8fb"/>
  <rect x="368" y="40" width="4" height="4" fill="#f4f8f9"/>
  <rect x="372" y="40" width="8" height="8" fill="#f5f7fb"/>
  <rect x="380" y="40" width="4" height="4" fill="#f4f8fb"/>
  <rect x="384" y="40" width="4" height="4" fill="#f4f8f9"/>
  <rect x="388" y="40" width="12" height="2" fill="#f4f8fb"/>
  <rect x="400" y="40" width="4" height="4" fill="#f4f8f9"/>
  <rect x="404" y="40" width="8" height="8" fill="#f5f7fb"/>
  <rect x="412" y="40" width="4" height="4" fill="#f4f8fb"/>
  <rect x="416" y="40" width="4" height="4" fill="#f4f8f9"/>
  <rect x="420" y="40" width="12" height="2" fill="#f4f8fb"/>
  <rect x="432" y="40" width="4" height="4" fill="#f4f8f9"/>
  <rect x="436" y="40" width="4" height="8" fill="#f5f7f9"/>
  <rect x="0" y="42" width="4" height="2" fill="#f2f9f9"/>
  <rect x="28" y="42" width="14" height="2" fill="#f2f9fb"/>
  <rect x="42" y="42" width="2" height="2" fill="#f2f9f9"/>
  <rect x="44" y="42" width="8" height="2" fill="#f4f8f9"/>
  <rect x="68" y="42" width="8" height="2" fill="#f2f9fb"/>
  <rect x="76" y="42" width="4" height="2" fill="#f4f8fb"/>
  <rect x="100" y="42" width="8" height="2" fill="#f2f9fb"/>
  <rect x="108" y="42" width="4" height="2" fill="#f4f8fb"/>
  <rect x="132" y="42" width="8" height="2" fill="#f2f9fb"/>
  <rect x="140" y="42" width="4" height="2" fill="#f4f8fb"/>
  <rect x="164" y="42" width="8" height="2" fill="#f2f9fb"/>
  <rect x="172" y="42" width="4" height="2" fill="#f4f8fb"/>
  <rect x="196" y="42" width="8" height="2" fill="#f2f9fb"/>
  <rect x="204" y="42" width="4" height="2" fill="#f4f8fb"/>
  <rect x="228" y="42" width="8" height="2" fill="#f2f9fb"/>
  <rect x="236" y="42" width="4" height="2" fill="#f4f8fb"/>
  <rect x="260" y="42" width="8" height="2" fill="#f2f9fb"/>
  <rect x="268" y="42" width="4" height="2" fill="#f4f8fb"/>
  <rect x="292" y="42" width="8" height="2" fill="#f2f9fb"/>
  <rect x="300" y="42" width="4" height="2" fill="#f4f8fb"/>
  <rect x="324" y="42" width="8" height="2" fill="#f2f9fb"/>
  <rect x="332" y="42" width="4" height="2" fill="#f4f8fb"/>
  <rect x="356" y="42" width="8" height="2" fill="#f2f9fb"/>
  <rect x="364" y="42" width="4" height="2" fill="#f4f8fb"/>
  <rect x="388" y="42" width="8" height="2" fill="#f2f9fb"/>
  <rect x="396" y="42" width="4" height="2" fill="#f4f8fb"/>
  <rect x="420" y="42" width="8" height="2" fill="#f2f9fb"/>
  <rect x="428" y="42" width="4" height="2" fill="#f4f8fb"/>
  <rect x="0" y="44" width="4" height="4" fill="#f2f9fb"/>
  <rect x="22" y="44" width="6" height="4" fill="#f4f8f9"/>
  <rect x="28" y="44" width="14" height="4" fill="#f4f8fb"/>
  <rect x="42" y="44" width="10" height="4" fill="#f4f8f9"/>
  <rect x="52" y="44" width="6" height="4" fill="#f5f7fb"/>
  <rect x="58" y="44" width="2" height="4" fill="#f5f7f9"/>
  <rect x="60" y="44" width="4" height="4" fill="#f4f8f9"/>
  <rect x="64" y="44" width="20" height="4" fill="#f4f8fb"/>
  <rect x="92" y="44" width="24" height="4" fill="#f4f8fb"/>
  <rect x="124" y="44" width="24" height="4" fill="#f4f8fb"/>
  <rect x="156" y="44" width="24" height="4" fill="#f4f8fb"/>
  <rect x="188" y="44" width="24" height="4" fill="#f4f8fb"/>
  <rect x="220" y="44" width="24" height="4" fill="#f4f8fb"/>
  <rect x="252" y="44" width="24" height="4" fill="#f4f8fb"/>
  <rect x="284" y="44" width="24" height="4" fill="#f4f8fb"/>
  <rect x="316" y="44" width="24" height="4" fill="#f4f8fb"/>
  <rect x="348" y="44" width="24" height="4" fill="#f4f8fb"/>
  <rect x="380" y="44" width="24" height="4" fill="#f4f8fb"/>
  <rect x="412" y="44" width="24" height="4" fill="#f4f8fb"/>
  <rect x="0" y="48" width="16" height="4" fill="#f2f7f8"/>
  <rect x="16" y="48" width="1" height="1" fill="#f4f6f8"/>
  <rect x="17" y="48" width="3" height="1" fill="#f4f6f6"/>
  <rect x="20" y="48" width="6" height="4" fill="#f4f6f8"/>
  <rect x="26" y="48" width="10" height="4" fill="#f2f7f8"/>
  <rect x="36" y="48" width="2" height="4" fill="#f2f7fa"/>
  <rect x="38" y="48" width="6" height="4" fill="#f2f7f8"/>
  <rect x="44" y="48" width="10" height="4" fill="#f4f6fa"/>
  <rect x="54" y="48" width="14" height="4" fill="#f4f6f8"/>
  <rect x="68" y="48" width="8" height="4" fill="#f2f7f8"/>
  <rect x="76" y="48" width="24" height="4" fill="#f4f6f8"/>
  <rect x="100" y="48" width="8" height="4" fill="#f2f7f8"/>
  <rect x="108" y="48" width="24" height="4" fill="#f4f6f8"/>
  <rect x="132" y="48" width="8" height="4" fill="#f2f7f8"/>
  <rect x="140" y="48" width="24" height="4" fill="#f4f6f8"/>
  <rect x="164" y="48" width="8" height="4" fill="#f2f7f8"/>
  <rect x="172" y="48" width="24" height="4" fill="#f4f6f8"/>
  <rect x="196" y="48" width="8" height="4" fill="#f2f7f8"/>
  <rect x="204" y="48" width="24" height="4" fill="#f4f6f8"/>
  <rect x="228" y="48" width="8" height="4" fill="#f2f7f8"/>
  <rect x="236" y="48" width="24" height="4" fill="#f4f6f8"/>
  <rect x="260" y="48" width="8" height="4" fill="#f2f7f8"/>
  <rect x="268" y="48" width="24" height="4" fill="#f4f6f8"/>
  <rect x="292" y="48" width="8" height="4" fill="#f2f7f8"/>
  <rect x="300" y="48" width="24" height="4" fill="#f4f6f8"/>
  <rect x="324" y="48" width="8" height="4" fill="#f2f7f8"/>
  <rect x="332" y="48" width="24" height="4" fill="#f4f6f8"/>
  <rect x="356" y="48" width="8" height="4" fill="#f2f7f8"/>
  <rect x="364" y="48" width="24" height="4" fill="#f4f6f8"/>
  <rect x="388" y="48" width="8" height="4" fill="#f2f7f8"/>
  <rect x="396" y="48" width="24" height="4" fill="#f4f6f8"/>
  <rect x="420" y="48" width="8" height="4" fill="#f2f7f8"/>
  <rect x="428" y="48" width="12" height="4" fill="#f4f6f8"/>
  <rect x="16" y="49" width="4" height="3" fill="#f4f6f6"/>
  <rect x="0" y="52" width="16" height="1" fill="#f1f3f4"/>
  <rect x="16" y="52" width="4" height="1" fill="#f1f3f2"/>
  <rect x="20" y="52" width="24" height="1" fill="#f1f3f4"/>
  <rect x="44" y="52" width="10" height="1" fill="#f1f2f6"/>
  <rect x="54" y="52" width="4" height="1" fill="#f1f3f4"/>
  <rect x="58" y="52" width="2" height="1" fill="#f1f3f2"/>
  <rect x="60" y="52" width="4" height="1" fill="#f2f2f2"/>
  <rect x="64" y="52" width="28" height="1" fill="#f1f3f4"/>
  <rect x="92" y="52" width="4" height="1" fill="#f2f2f4"/>
  <rect x="96" y="52" width="28" height="1" fill="#f1f3f4"/>
  <rect x="124" y="52" width="4" height="1" fill="#f2f2f4"/>
  <rect x="128" y="52" width="28" height="1" fill="#f1f3f4"/>
  <rect x="156" y="52" width="4" height="1" fill="#f2f2f4"/>
  <rect x="160" y="52" width="28" height="1" fill="#f1f3f4"/>
  <rect x="188" y="52" width="4" height="1" fill="#f2f2f4"/>
  <rect x="192" y="52" width="28" height="1" fill="#f1f3f4"/>
  <rect x="220" y="52" width="4" height="1" fill="#f2f2f4"/>
  <rect x="224" y="52" width="28" height="1" fill="#f1f3f4"/>
  <rect x="252" y="52" width="4" height="1" fill="#f2f2f4"/>
  <rect x="256" y="52" width="28" height="1" fill="#f1f3f4"/>
  <rect x="284" y="52" width="4" height="1" fill="#f2f2f4"/>
  <rect x="288" y="52" width="28" height="1" fill="#f1f3f4"/>
  <rect x="316" y="52" width="4" height="1" fill="#f2f2f4"/>
  <rect x="320" y="52" width="28" height="1" fill="#f1f3f4"/>
  <rect x="348" y="52" width="4" height="1" fill="#f2f2f4"/>
  <rect x="352" y="52" width="28" height="1" fill="#f1f3f4"/>
  <rect x="380" y="52" width="4" height="1" fill="#f2f2f4"/>
  <rect x="384" y="52" width="28" height="1" fill="#f1f3f4"/>
  <rect x="412" y="52" width="4" height="1" fill="#f2f2f4"/>
  <rect x="416" y="52" width="24" height="1" fill="#f1f3f4"/>
  <rect x="0" y="53" width="16" height="1" fill="#fcfeff"/>
  <rect x="16" y="53" width="4" height="1" fill="#fcfffe"/>
  <rect x="20" y="53" width="16" height="1" fill="#fcfeff"/>
  <rect x="36" y="53" width="2" height="1" fill="#fefdff"/>
  <rect x="38" y="53" width="20" height="1" fill="#fcfeff"/>
  <rect x="58" y="53" width="2" height="1" fill="#fcfffe"/>
  <rect x="60" y="53" width="4" height="1" fill="#fefefe"/>
  <rect x="64" y="53" width="28" height="1" fill="#fcfeff"/>
  <rect x="92" y="53" width="4" height="1" fill="#fefdff"/>
  <rect x="96" y="53" width="28" height="1" fill="#fcfeff"/>
  <rect x="124" y="53" width="4" height="1" fill="#fefdff"/>
  <rect x="128" y="53" width="28" height="1" fill="#fcfeff"/>
  <rect x="156" y="53" width="4" height="1" fill="#fefdff"/>
  <rect x="160" y="53" width="28" height="1" fill="#fcfeff"/>
  <rect x="188" y="53" width="4" height="1" fill="#fefdff"/>
  <rect x="192" y="53" width="28" height="1" fill="#fcfeff"/>
  <rect x="220" y="53" width="4" height="1" fill="#fefdff"/>
  <rect x="224" y="53" width="28" height="1" fill="#fcfeff"/>
  <rect x="252" y="53" width="4" height="1" fill="#fefdff"/>
  <rect x="256" y="53" width="28" height="1" fill="#fcfeff"/>
  <rect x="284" y="53" width="4" height="1" fill="#fefdff"/>
  <rect x="288" y="53" width="28" height="1" fill="#fcfeff"/>
  <rect x="316" y="53" width="4" height="1" fill="#fefdff"/>
  <rect x="320" y="53" width="28" height="1" fill="#fcfeff"/>
  <rect x="348" y="53" width="4" height="1" fill="#fefdff"/>
  <rect x="352" y="53" width="28" height="1" fill="#fcfeff"/>
  <rect x="380" y="53" width="4" height="1" fill="#fefdff"/>
  <rect x="384" y="53" width="28" height="1" fill="#fcfeff"/>
  <rect x="412" y="53" width="4" height="1" fill="#fefdff"/>
  <rect x="416" y="53" width="24" height="1" fill="#fcfeff"/>
</svg>