<svg xmlns="http://www.w3.org/2000/svg" width="80" height="16" viewBox="0 0 80 16" shape-rendering="crispEdges">
  <rect x="0" y="0" width="1" height="1" fill="#99999949"/>
  <rect x="1" y="0" width="1" height="1" fill="#999999e6"/>
  <rect x="2" y="0" width="12" height="1" fill="#999999"/>
  <rect x="14" y="0" width="1" height="1" fill="#999999e6"/>
  <rect x="15" y="0" width="2" height="1" fill="#99999949"/>
  <rect x="17" y="0" width="1" height="1" fill="#999999e6"/>
  <rect x="18" y="0" width="12" height="1" fill="#999999"/>
  <rect x="30" y="0" width="1" height="1" fill="#999999e6"/>
  <rect x="31" y="0" width="2" height="1" fill="#99999949"/>
  <rect x="33" y="0" width="1" height="1" fill="#999999e6"/>
  <rect x="34" y="0" width="12" height="1" fill="#999999"/>
  <rect x="46" y="0" width="1" height="1" fill="#999999e6"/>
  <rect x="47" y="0" width="2" height="1" fill="#99999949"/>
  <rect x="49" y="0" width="1" height="1" fill="#999999e6"/>
  <rect x="50" y="0" width="12" height="1" fill="#999999"/>
  <rect x="62" y="0" width="1" height="1" fill="#999999e6"/>
  <rect x="63" y="0" width="1" height="1" fill="#859fa949"/>
  <rect x="64" y="0" width="1" height="1" fill="#74c3df49"/>
  <rect x="65" y="0" width="1" height="1" fill="#60caefe6"/>
  <rect x="66" y="0" width="2" height="1" fill="#60caef"/>
  <rect x="68" y="0" width="4" height="2" fill="#60caf1"/>
  <rect x="72" y="0" width="4" height="2" fill="#60c9f3"/>
  <rect x="76" y="0" width="2" height="1" fill="#60c9f5"/>
  <rect x="78" y="0" width="1" height="1" fill="#60c9f5e6"/>
  <rect x="79" y="0" width="1" height="1" fill="#60c9f549"/>
  <rect x="0" y="1" width="1" height="1" fill="#999999e6"/>
  <rect x="1" y="1" width="14" height="1" fill="#999999"/>
  <rect x="15" y="1" width="2" height="1" fill="#999999e6"/>
  <rect x="17" y="1" width="14" height="1" fill="#999999"/>
  <rect x="31" y="1" width="2" height="1" fill="#999999e6"/>
  <rect x="33" y="1" width="14" height="1" fill="#999999"/>
  <rect x="47" y="1" width="2" height="1" fill="#999999e6"/>
  <rect x="49" y="1" width="14" height="1" fill="#999999"/>
  <rect x="63" y="1" width="1" height="1" fill="#859fa9e6"/>
  <rect x="64" y="1" width="1" height="1" fill="#74c3dfe6"/>
  <rect x="65" y="1" width="3" height="1" fill="#60caef"/>
  <rect x="76" y="1" width="3" height="1" fill="#60c9f5"/>
  <rect x="79" y="1" width="1" height="1" fill="#60c9f5e6"/>
  <rect x="0" y="2" width="2" height="12" fill="#999999"/>
  <rect x="2" y="2" width="1" height="1" fill="#9999993c"/>
  <rect x="13" y="2" width="1" height="1" fill="#9999993c"/>
  <rect x="14" y="2" width="4" height="12" fill="#999999"/>
  <rect x="18" y="2" width="1" height="1" fill="#9999993c"/>
  <rect x="29" y="2" width="1" height="1" fill="#9999993c"/>
  <rect x="30" y="2" width="4" height="12" fill="#999999"/>
  <rect x="34" y="2" width="1" height="1" fill="#9999993c"/>
  <rect x="45" y="2" width="1" height="1" fill="#9999993c"/>
  <rect x="46" y="2" width="4" height="12" fill="#999999"/>
  <rect x="50" y="2" width="1" height="1" fill="#9999993c"/>
  <rect x="61" y="2" width="1" height="1" fill="#9999993c"/>
  <rect x="62" y="2" width="1" height="12" fill="#999999"/>
  <rect x="63" y="2" width="1" height="7" fill="#859fa9"/>
  <rect x="64" y="2" width="1" height="2" fill="#74c3df"/>
  <rect x="65" y="2" width="1" height="2" fill="#60caef"/>
  <rect x="66" y="2" width="1" height="1" fill="#60caef3c"/>
  <rect x="77" y="2" width="1" height="1" fill="#60c9f53c"/>
  <rect x="78" y="2" width="2" height="4" fill="#60c9f5"/>
  <rect x="8" y="3" width="1" height="1" fill="#99999924"/>
  <rect x="9" y="3" width="1" height="1" fill="#999999c0"/>
  <rect x="10" y="3" width="1" height="1" fill="#999999ee"/>
  <rect x="11" y="3" width="1" height="1" fill="#999999e8"/>
  <rect x="12" y="3" width="1" height="1" fill="#999999b9"/>
  <rect x="13" y="3" width="1" height="1" fill="#9999990a"/>
  <rect x="24" y="3" width="1" height="1" fill="#99999924"/>
  <rect x="25" y="3" width="1" height="1" fill="#999999c0"/>
  <rect x="26" y="3" width="1" height="1" fill="#999999ee"/>
  <rect x="27" y="3" width="1" height="1" fill="#999999e8"/>
  <rect x="28" y="3" width="1" height="1" fill="#999999b9"/>
  <rect x="29" y="3" width="1" height="1" fill="#9999990a"/>
  <rect x="40" y="3" width="1" height="1" fill="#99999924"/>
  <rect x="41" y="3" width="1" height="1" fill="#999999c0"/>
  <rect x="42" y="3" width="1" height="1" fill="#999999ee"/>
  <rect x="43" y="3" width="1" height="1" fill="#999999e8"/>
  <rect x="44" y="3" width="1" height="1" fill="#999999b9"/>
  <rect x="45" y="3" width="1" height="1" fill="#9999990a"/>
  <rect x="56" y="3" width="1" height="1" fill="#99999924"/>
  <rect x="57" y="3" width="1" height="1" fill="#999999c0"/>
  <rect x="58" y="3" width="1" height="1" fill="#999999ee"/>
  <rect x="59" y="3" width="1" height="1" fill="#999999e8"/>
  <rect x="60" y="3" width="1" height="1" fill="#999999b9"/>
  <rect x="61" y="3" width="1" height="1" fill="#9999990a"/>
  <rect x="72" y="3" width="1" height="1" fill="#60c9f324"/>
  <rect x="73" y="3" width="1" height="1" fill="#60c9f3c0"/>
  <rect x="74" y="3" width="1" height="1" fill="#60c9f3ee"/>
  <rect x="75" y="3" width="1" height="1" fill="#60c9f3e8"/>
  <rect x="76" y="3" width="1" height="1" fill="#60c9f5b9"/>
  <rect x="77" y="3" width="1" height="1" fill="#60c9f50a"/>
  <rect x="8" y="4" width="1" height="1" fill="#999999cd"/>
  <rect x="9" y="4" width="1" height="2" fill="#999999"/>
  <rect x="10" y="4" width="1" height="1" fill="#999999ef"/>
  <rect x="11" y="4" width="1" height="1" fill="#999999cc"/>
  <rect x="12" y="4" width="1" height="1" fill="#999999cd"/>
  <rect x="24" y="4" width="1" height="1" fill="#999999cd"/>
  <rect x="25" y="4" width="1" height="2" fill="#999999"/>
  <rect x="26" y="4" width="1" height="1" fill="#999999ef"/>
  <rect x="27" y="4" width="1" height="1" fill="#999999cc"/>
  <rect x="28" y="4" width="1" height="1" fill="#999999cd"/>
  <rect x="40" y="4" width="1" height="1" fill="#999999cd"/>
  <rect x="41" y="4" width="1" height="2" fill="#999999"/>
  <rect x="42" y="4" width="1" height="1" fill="#999999ef"/>
  <rect x="43" y="4" width="1" height="1" fill="#999999cc"/>
  <rect x="44" y="4" width="1" height="1" fill="#999999cd"/>
  <rect x="56" y="4" width="1" height="1" fill="#999999cd"/>
  <rect x="57" y="4" width="1" height="2" fill="#999999"/>
  <rect x="58" y="4" width="1" height="1" fill="#999999ef"/>
  <rect x="59" y="4" width="1" height="1" fill="#999999cc"/>
  <rect x="60" y="4" width="1" height="1" fill="#999999cd"/>
  <rect x="64" y="4" width="1" height="5" fill="#74c3e1"/>
  <rect x="65" y="4" width="1" height="4" fill="#60caf1"/>
  <rect x="72" y="4" width="1" height="1" fill="#60c9f3cd"/>
  <rect x="73" y="4" width="1" height="2" fill="#60c9f3"/>
  <rect x="74" y="4" width="1" height="1" fill="#60c9f3ef"/>
  <rect x="75" y="4" width="1" height="1" fill="#60c9f3cc"/>
  <rect x="76" y="4" width="1" height="1" fill="#60c9f5cd"/>
  <rect x="8" y="5" width="1" height="1" fill="#999999fa"/>
  <rect x="10" y="5" width="1" height="1" fill="#99999928"/>
  <rect x="24" y="5" width="1" height="1" fill="#999999fa"/>
  <rect x="26" y="5" width="1" height="1" fill="#99999928"/>
  <rect x="40" y="5" width="1" height="1" fill="#999999fa"/>
  <rect x="42" y="5" width="1" height="1" fill="#99999928"/>
  <rect x="56" y="5" width="1" height="1" fill="#999999fa"/>
  <rect x="58" y="5" width="1" height="1" fill="#99999928"/>
  <rect x="72" y="5" width="1" height="1" fill="#60c9f3fa"/>
  <rect x="74" y="5" width="1" height="1" fill="#60c9f328"/>
  <rect x="8" y="6" width="2" height="1" fill="#999999"/>
  <rect x="24" y="6" width="2" height="1" fill="#999999"/>
  <rect x="40" y="6" width="2" height="1" fill="#999999"/>
  <rect x="56" y="6" width="2" height="1" fill="#999999"/>
  <rect x="72" y="6" width="2" height="2" fill="#60c9f3"/>
  <rect x="78" y="6" width="2" height="2" fill="#60c9f3"/>
  <rect x="7" y="7" width="5" height="2" fill="#999999"/>
  <rect x="12" y="7" width="1" height="1" fill="#99999998"/>
  <rect x="23" y="7" width="5" height="2" fill="#999999"/>
  <rect x="28" y="7" width="1" height="1" fill="#99999998"/>
  <rect x="39" y="7" width="5" height="2" fill="#999999"/>
  <rect x="44" y="7" width="1" height="1" fill="#99999998"/>
  <rect x="55" y="7" width="5" height="2" fill="#999999"/>
  <rect x="60" y="7" width="1" height="1" fill="#99999998"/>
  <rect x="71" y="7" width="1" height="1" fill="#60caf1"/>
  <rect x="74" y="7" width="2" height="1" fill="#60caf1"/>
  <rect x="76" y="7" width="1" height="1" fill="#60c9f398"/>
  <rect x="12" y="8" width="1" height="1" fill="#99999962"/>
  <rect x="28" y="8" width="1" height="1" fill="#99999962"/>
  <rect x="44" y="8" width="1" height="1" fill="#99999962"/>
  <rect x="60" y="8" width="1" height="1" fill="#99999962"/>
  <rect x="65" y="8" width="1" height="4" fill="#60c9f3"/>
  <rect x="71" y="8" width="1" height="1" fill="#60c9f3"/>
  <rect x="72" y="8" width="4" height="1" fill="#60caf1"/>
  <rect x="76" y="8" width="1" height="1" fill="#60caf162"/>
  <rect x="78" y="8" width="2" height="2" fill="#60caf1"/>
  <rect x="8" y="9" width="2" height="5" fill="#999999"/>
  <rect x="24" y="9" width="2" height="5" fill="#999999"/>
  <rect x="40" y="9" width="2" height="5" fill="#999999"/>
  <rect x="56" y="9" width="2" height="5" fill="#999999"/>
  <rect x="63" y="9" width="1" height="5" fill="#859fab"/>
  <rect x="64" y="9" width="1" height="5" fill="#74c3e3"/>
  <rect x="72" y="9" width="2" height="7" fill="#60caf1"/>
  <rect x="78" y="10" width="2" height="4" fill="#60caef"/>
  <rect x="65" y="12" width="1" height="2" fill="#60c9f5"/>
  <rect x="2" y="13" width="1" height="1" fill="#9999993c"/>
  <rect x="13" y="13" width="1" height="1" fill="#9999993b"/>
  <rect x="18" y="13" width="1" height="1" fill="#9999993c"/>
  <rect x="29" y="13" width="1" height="1" fill="#9999993b"/>
  <rect x="34" y="13" width="1" height="1" fill="#9999993c"/>
  <rect x="45" y="13" width="1" height="1" fill="#9999993b"/>
  <rect x="50" y="13" width="1" height="1" fill="#9999993c"/>
  <rect x="61" y="13" width="1" height="1" fill="#9999993b"/>
  <rect x="66" y="13" width="1" height="1" fill="#60c9f53c"/>
  <rect x="77" y="13" width="1" height="1" fill="#60caef3b"/>
  <rect x="0" y="14" width="1" height="1" fill="#999999e6"/>
  <rect x="1" y="14" width="14" height="1" fill="#999999"/>
  <rect x="15" y="14" width="1" height="1" fill="#999999e7"/>
  <rect x="16" y="14" width="1" height="1" fill="#999999e6"/>
  <rect x="17" y="14" width="14" height="1" fill="#999999"/>
  <rect x="31" y="14" width="1" height="1" fill="#999999e7"/>
  <rect x="32" y="14" width="1" height="1" fill="#999999e6"/>
  <rect x="33" y="14" width="14" height="1" fill="#999999"/>
  <rect x="47" y="14" width="1" height="1" fill="#999999e7"/>
  <rect x="48" y="14" width="1" height="1" fill="#999999e6"/>
  <rect x="49" y="14" width="14" height="1" fill="#999999"/>
  <rect x="63" y="14" width="1" height="1" fill="#859fabe7"/>
  <rect x="64" y="14" width="1" height="1" fill="#74c3e3e6"/>
  <rect x="65" y="14" width="5" height="1" fill="#60c9f5"/>
  <rect x="70" y="14" width="2" height="2" fill="#60c9f3"/>
  <rect x="74" y="14" width="5" height="1" fill="#60caef"/>
  <rect x="79" y="14" width="1" height="1" fill="#60caefe7"/>
  <rect x="0" y="15" width="1" height="1" fill="#9999994a"/>
  <rect x="1" y="15" width="1" height="1" fill="#999999e7"/>
  <rect x="2" y="15" width="12" height="1" fill="#999999"/>
  <rect x="14" y="15" width="1" height="1" fill="#999999e4"/>
  <rect x="15" y="15" width="2" height="1" fill="#9999994a"/>
  <rect x="17" y="15" width="1" height="1" fill="#999999e7"/>
  <rect x="18" y="15" width="12" height="1" fill="#999999"/>
  <rect x="30" y="15" width="1" height="1" fill="#999999e4"/>
  <rect x="31" y="15" width="2" height="1" fill="#9999994a"/>
  <rect x="33" y="15" width="1" height="1" fill="#999999e7"/>
  <rect x="34" y="15" width="12" height="1" fill="#999999"/>
  <rect x="46" y="15" width="1" height="1" fill="#999999e4"/>
  <rect x="47" y="15" width="2" height="1" fill="#9999994a"/>
  <rect x="49" y="15" width="1" height="1" fill="#999999e7"/>
  <rect x="50" y="15" width="12" height="1" fill="#999999"/>
  <rect x="62" y="15" width="1" height="1" fill="#999999e4"/>
  <rect x="63" y="15" width="1" height="1" fill="#859fab4a"/>
  <rect x="64" y="15" width="1" height="1" fill="#74c3e34a"/>
  <rect x="65" y="15" width="1" height="1" fill="#60c9f5e7"/>
  <rect x="66" y="15" width="4" height="1" fill="#60c9f5"/>
  <rect x="74" y="15" width="4" height="1" fill="#60caef"/>
  <rect x="78" y="15" width="1" height="1" fill="#60caefe4"/>
  <rect x="79" y="15" width="1" height="1" fill="#60caef4a"/>
</svg>