<svg xmlns="http://www.w3.org/2000/svg" width="14" height="14" viewBox="0 0 14 14" shape-rendering="crispEdges">
  <rect x="0" y="0" width="1" height="1" fill="#f275ad49"/>
  <rect x="1" y="0" width="1" height="1" fill="#f275ade6"/>
  <rect x="2" y="0" width="2" height="1" fill="#f275ad"/>
  <rect x="4" y="0" width="7" height="1" fill="#f274af"/>
  <rect x="11" y="0" width="1" height="1" fill="#f072ac"/>
  <rect x="12" y="0" width="1" height="1" fill="#ef71ade4"/>
  <rect x="13" y="0" width="1" height="1" fill="#ed6fac46"/>
  <rect x="0" y="1" width="1" height="1" fill="#f073aae6"/>
  <rect x="1" y="1" width="3" height="1" fill="#f073aa"/>
  <rect x="4" y="1" width="7" height="1" fill="#f072ac"/>
  <rect x="11" y="1" width="1" height="1" fill="#ef71ab"/>
  <rect x="12" y="1" width="1" height="1" fill="#ef71ad"/>
  <rect x="13" y="1" width="1" height="1" fill="#ed6facdf"/>
  <rect x="0" y="2" width="4" height="1" fill="#ec6fa7"/>
  <rect x="4" y="2" width="8" height="1" fill="#ec6fa9"/>
  <rect x="12" y="2" width="1" height="1" fill="#ed6fac"/>
  <rect x="13" y="2" width="1" height="1" fill="#ed6facf0"/>
  <rect x="0" y="3" width="1" height="1" fill="#e96ca3"/>
  <rect x="1" y="3" width="1" height="1" fill="#eb6ea6"/>
  <rect x="2" y="3" width="1" height="1" fill="#ea6da5"/>
  <rect x="3" y="3" width="1" height="1" fill="#e96ca3"/>
  <rect x="4" y="3" width="2" height="1" fill="#ea6ca7"/>
  <rect x="6" y="3" width="1" height="1" fill="#e86aa4"/>
  <rect x="7" y="3" width="1" height="1" fill="#e96ba5"/>
  <rect x="8" y="3" width="1" height="1" fill="#eb6da8"/>
  <rect x="9" y="3" width="1" height="2" fill="#ea6ca7"/>
  <rect x="10" y="3" width="1" height="1" fill="#e96ba5"/>
  <rect x="11" y="3" width="1" height="1" fill="#ea6ca7"/>
  <rect x="12" y="3" width="1" height="1" fill="#ec6eab"/>
  <rect x="13" y="3" width="1" height="1" fill="#ec6eabf0"/>
  <rect x="0" y="4" width="1" height="1" fill="#f376ae"/>
  <rect x="1" y="4" width="1" height="1" fill="#ed70a8"/>
  <rect x="2" y="4" width="1" height="1" fill="#ea6da53b"/>
  <rect x="3" y="4" width="1" height="1" fill="#ea6da53c"/>
  <rect x="4" y="4" width="1" height="1" fill="#eb6da8"/>
  <rect x="5" y="4" width="1" height="1" fill="#ea6ca7"/>
  <rect x="6" y="4" width="1" height="1" fill="#e86aa43b"/>
  <rect x="7" y="4" width="1" height="1" fill="#e365a03c"/>
  <rect x="8" y="4" width="1" height="1" fill="#ec6fa9"/>
  <rect x="10" y="4" width="1" height="1" fill="#e86aa43b"/>
  <rect x="11" y="4" width="1" height="1" fill="#e365a03c"/>
  <rect x="12" y="4" width="1" height="2" fill="#ec6fa9"/>
  <rect x="13" y="4" width="1" height="2" fill="#ed70aaf0"/>
  <rect x="0" y="5" width="1" height="1" fill="#f073aa"/>
  <rect x="1" y="5" width="1" height="1" fill="#ef71a9"/>
  <rect x="2" y="5" width="2" height="1" fill="#ec6fa73b"/>
  <rect x="4" y="5" width="2" height="1" fill="#ec6fa9"/>
  <rect x="6" y="5" width="2" height="1" fill="#eb6da83b"/>
  <rect x="8" y="5" width="2" height="1" fill="#ec6fa9"/>
  <rect x="10" y="5" width="2" height="1" fill="#eb6da83b"/>
  <rect x="0" y="6" width="1" height="1" fill="#eb6ea6"/>
  <rect x="1" y="6" width="1" height="1" fill="#ec6fa7"/>
  <rect x="2" y="6" width="2" height="1" fill="#ef71a9"/>
  <rect x="4" y="6" width="2" height="1" fill="#ef71ab"/>
  <rect x="6" y="6" width="2" height="1" fill="#f173ae"/>
  <rect x="8" y="6" width="2" height="1" fill="#ef71a9"/>
  <rect x="10" y="6" width="2" height="1" fill="#f174ac"/>
  <rect x="12" y="6" width="1" height="1" fill="#ef71a9"/>
  <rect x="13" y="6" width="1" height="2" fill="#ed70a8f0"/>
  <rect x="0" y="7" width="1" height="1" fill="#e66ba2"/>
  <rect x="1" y="7" width="1" height="1" fill="#e96fa6"/>
  <rect x="2" y="7" width="1" height="1" fill="#ee73aa"/>
  <rect x="3" y="7" width="1" height="1" fill="#ef75ac"/>
  <rect x="4" y="7" width="1" height="1" fill="#ed72ab"/>
  <rect x="5" y="7" width="1" height="1" fill="#ee73ac"/>
  <rect x="6" y="7" width="1" height="1" fill="#f378b1"/>
  <rect x="7" y="7" width="1" height="1" fill="#f67cb3"/>
  <rect x="8" y="7" width="1" height="1" fill="#e971a7"/>
  <rect x="9" y="7" width="1" height="1" fill="#ee73aa"/>
  <rect x="10" y="7" width="1" height="1" fill="#f478ad"/>
  <rect x="11" y="7" width="1" height="1" fill="#fa7ab1"/>
  <rect x="12" y="7" width="1" height="1" fill="#ed70a8"/>
  <rect x="0" y="8" width="1" height="1" fill="#e56fa5e6"/>
  <rect x="1" y="8" width="1" height="1" fill="#e56fa5"/>
  <rect x="2" y="8" width="1" height="1" fill="#e670a6"/>
  <rect x="3" y="8" width="1" height="1" fill="#e771a7"/>
  <rect x="4" y="8" width="1" height="1" fill="#ea74a9"/>
  <rect x="5" y="8" width="2" height="1" fill="#eb75aa"/>
  <rect x="7" y="8" width="1" height="1" fill="#e875a7"/>
  <rect x="8" y="8" width="1" height="1" fill="#e475a6"/>
  <rect x="9" y="8" width="1" height="1" fill="#e673a5"/>
  <rect x="10" y="8" width="1" height="1" fill="#ed6da4"/>
  <rect x="11" y="8" width="1" height="1" fill="#ee6aa1"/>
  <rect x="12" y="8" width="1" height="1" fill="#e86ba0"/>
  <rect x="13" y="8" width="1" height="1" fill="#e56a9fdf"/>
  <rect x="0" y="9" width="1" height="1" fill="#c46d964a"/>
  <rect x="1" y="9" width="1" height="1" fill="#c46d96e7"/>
  <rect x="2" y="9" width="2" height="1" fill="#c56e97"/>
  <rect x="4" y="9" width="2" height="1" fill="#c67098"/>
  <rect x="6" y="9" width="1" height="1" fill="#c77199"/>
  <rect x="7" y="9" width="1" height="1" fill="#ca6f99"/>
  <rect x="8" y="9" width="1" height="1" fill="#ce6c98"/>
  <rect x="9" y="9" width="1" height="1" fill="#dc6e9c"/>
  <rect x="10" y="9" width="1" height="1" fill="#ee6fa3"/>
  <rect x="11" y="9" width="1" height="1" fill="#f076a9"/>
  <rect x="12" y="9" width="1" height="1" fill="#d16c99e5"/>
  <rect x="13" y="9" width="1" height="1" fill="#ca6f9946"/>
  <rect x="8" y="10" width="1" height="1" fill="#c16d9360"/>
  <rect x="9" y="10" width="1" height="1" fill="#d86b96f5"/>
  <rect x="10" y="10" width="1" height="1" fill="#e76e9d"/>
  <rect x="11" y="10" width="1" height="1" fill="#e079a5"/>
  <rect x="9" y="11" width="1" height="1" fill="#c676982c"/>
  <rect x="10" y="11" width="1" height="1" fill="#d96e99d4"/>
  <rect x="11" y="11" width="1" height="1" fill="#cb7398"/>
  <rect x="10" y="12" width="1" height="1" fill="#c976970a"/>
  <rect x="11" y="12" width="1" height="1" fill="#c9789a9f"/>
</svg>