<svg xmlns="http://www.w3.org/2000/svg" width="51" height="27" viewBox="0 0 51 27" shape-rendering="crispEdges">
  <rect x="0" y="0" width="1" height="1" fill="#368adf45"/>
  <rect x="1" y="0" width="1" height="1" fill="#368adfde"/>
  <rect x="2" y="0" width="1" height="1" fill="#368add"/>
  <rect x="3" y="0" width="1" height="1" fill="#348ad8"/>
  <rect x="4" y="0" width="1" height="1" fill="#348ad6"/>
  <rect x="5" y="0" width="1" height="1" fill="#3389d3"/>
  <rect x="6" y="0" width="1" height="1" fill="#338ad1"/>
  <rect x="7" y="0" width="1" height="1" fill="#338acf"/>
  <rect x="8" y="0" width="7" height="1" fill="#338ad1"/>
  <rect x="15" y="0" width="1" height="1" fill="#3389d5ed"/>
  <rect x="16" y="0" width="1" height="1" fill="#3387dd44"/>
  <rect x="17" y="0" width="1" height="1" fill="#4ca0f545"/>
  <rect x="18" y="0" width="1" height="1" fill="#52a7f5de"/>
  <rect x="19" y="0" width="1" height="2" fill="#54aaf1"/>
  <rect x="20" y="0" width="2" height="1" fill="#50a4e9"/>
  <rect x="22" y="0" width="1" height="1" fill="#50a4eb"/>
  <rect x="23" y="0" width="1" height="1" fill="#4fa2ec"/>
  <rect x="24" y="0" width="1" height="1" fill="#4fa2ea"/>
  <rect x="25" y="0" width="6" height="1" fill="#4da1e9"/>
  <rect x="31" y="0" width="1" height="1" fill="#4da1eb"/>
  <rect x="32" y="0" width="1" height="1" fill="#53a6f7ed"/>
  <rect x="33" y="0" width="1" height="1" fill="#52a4f844"/>
  <rect x="34" y="0" width="1" height="1" fill="#3587d945"/>
  <rect x="35" y="0" width="1" height="1" fill="#3588d7de"/>
  <rect x="36" y="0" width="1" height="1" fill="#368bd7"/>
  <rect x="37" y="0" width="1" height="1" fill="#368cd5"/>
  <rect x="38" y="0" width="2" height="1" fill="#368cd3"/>
  <rect x="40" y="0" width="1" height="1" fill="#368bd7"/>
  <rect x="41" y="0" width="6" height="1" fill="#368bd9"/>
  <rect x="47" y="0" width="1" height="1" fill="#368bd7"/>
  <rect x="48" y="0" width="1" height="1" fill="#2f89cc"/>
  <rect x="49" y="0" width="1" height="1" fill="#3189d0ed"/>
  <rect x="50" y="0" width="1" height="1" fill="#338ad844"/>
  <rect x="0" y="1" width="1" height="1" fill="#368adfde"/>
  <rect x="1" y="1" width="1" height="1" fill="#368add"/>
  <rect x="2" y="1" width="1" height="1" fill="#368adb"/>
  <rect x="3" y="1" width="1" height="1" fill="#368bd9"/>
  <rect x="4" y="1" width="1" height="1" fill="#368cd5"/>
  <rect x="5" y="1" width="1" height="1" fill="#368cd3"/>
  <rect x="6" y="1" width="3" height="1" fill="#368cd1"/>
  <rect x="9" y="1" width="6" height="1" fill="#368cd3"/>
  <rect x="15" y="1" width="1" height="1" fill="#368bd7"/>
  <rect x="16" y="1" width="1" height="1" fill="#3387ddde"/>
  <rect x="17" y="1" width="1" height="1" fill="#4ca0f5de"/>
  <rect x="18" y="1" width="1" height="1" fill="#52a7f3"/>
  <rect x="20" y="1" width="2" height="1" fill="#56aaed"/>
  <rect x="22" y="1" width="2" height="1" fill="#56a9f1"/>
  <rect x="24" y="1" width="7" height="1" fill="#54a8f0"/>
  <rect x="31" y="1" width="1" height="1" fill="#54a8f2"/>
  <rect x="32" y="1" width="1" height="1" fill="#53a6f5"/>
  <rect x="33" y="1" width="1" height="1" fill="#52a4f6de"/>
  <rect x="34" y="1" width="1" height="1" fill="#3588d7de"/>
  <rect x="35" y="1" width="1" height="1" fill="#3588d5"/>
  <rect x="36" y="1" width="1" height="1" fill="#287ec7"/>
  <rect x="37" y="1" width="1" height="1" fill="#287ec5"/>
  <rect x="38" y="1" width="2" height="1" fill="#287ec3"/>
  <rect x="40" y="1" width="1" height="1" fill="#287ec5"/>
  <rect x="41" y="1" width="6" height="1" fill="#287ec7"/>
  <rect x="47" y="1" width="1" height="1" fill="#287ec5"/>
  <rect x="48" y="1" width="1" height="1" fill="#2b84c8"/>
  <rect x="49" y="1" width="1" height="1" fill="#2d86cc"/>
  <rect x="50" y="1" width="1" height="1" fill="#3289d7de"/>
  <rect x="0" y="2" width="1" height="1" fill="#368add"/>
  <rect x="1" y="2" width="1" height="1" fill="#368adb"/>
  <rect x="2" y="2" width="1" height="1" fill="#368bd9"/>
  <rect x="3" y="2" width="1" height="1" fill="#368bd7"/>
  <rect x="4" y="2" width="1" height="1" fill="#398fd7"/>
  <rect x="5" y="2" width="1" height="1" fill="#3990d4"/>
  <rect x="6" y="2" width="3" height="1" fill="#3990d2"/>
  <rect x="9" y="2" width="6" height="1" fill="#3990d4"/>
  <rect x="15" y="2" width="1" height="1" fill="#398fd9"/>
  <rect x="16" y="2" width="1" height="1" fill="#3388db"/>
  <rect x="17" y="2" width="1" height="1" fill="#4ca0f3"/>
  <rect x="18" y="2" width="1" height="1" fill="#52a8f1"/>
  <rect x="19" y="2" width="1" height="1" fill="#54abef"/>
  <rect x="20" y="2" width="2" height="1" fill="#56abeb"/>
  <rect x="22" y="2" width="9" height="1" fill="#56aaef"/>
  <rect x="31" y="2" width="1" height="1" fill="#56a9f1"/>
  <rect x="32" y="2" width="1" height="1" fill="#53a6f3"/>
  <rect x="33" y="2" width="1" height="1" fill="#52a5f4"/>
  <rect x="34" y="2" width="1" height="1" fill="#3588d5"/>
  <rect x="35" y="2" width="1" height="1" fill="#3588d3"/>
  <rect x="36" y="2" width="1" height="1" fill="#398fd7"/>
  <rect x="37" y="2" width="1" height="1" fill="#3990d4"/>
  <rect x="38" y="2" width="1" height="1" fill="#3990d2"/>
  <rect x="39" y="2" width="9" height="1" fill="#3991d0"/>
  <rect x="48" y="2" width="1" height="1" fill="#3d97d8"/>
  <rect x="49" y="2" width="1" height="1" fill="#3a93d9"/>
  <rect x="50" y="2" width="1" height="1" fill="#358dda"/>
  <rect x="0" y="3" width="1" height="1" fill="#348ad8"/>
  <rect x="1" y="3" width="1" height="1" fill="#368bd9"/>
  <rect x="2" y="3" width="1" height="1" fill="#368bd7"/>
  <rect x="3" y="3" width="1" height="1" fill="#368cd5"/>
  <rect x="4" y="3" width="1" height="1" fill="#3a91d6"/>
  <rect x="5" y="3" width="1" height="1" fill="#3a91d4"/>
  <rect x="6" y="3" width="3" height="1" fill="#3a92d2"/>
  <rect x="9" y="3" width="6" height="1" fill="#3a91d4"/>
  <rect x="15" y="3" width="1" height="1" fill="#3a91d8"/>
  <rect x="16" y="3" width="1" height="1" fill="#3388d9"/>
  <rect x="17" y="3" width="1" height="1" fill="#4ca1f1"/>
  <rect x="18" y="3" width="1" height="1" fill="#52a8ef"/>
  <rect x="19" y="3" width="1" height="1" fill="#54abed"/>
  <rect x="20" y="3" width="2" height="1" fill="#56abe9"/>
  <rect x="22" y="3" width="9" height="1" fill="#56aaed"/>
  <rect x="31" y="3" width="1" height="1" fill="#56aaef"/>
  <rect x="32" y="3" width="1" height="1" fill="#53a7f1"/>
  <rect x="33" y="3" width="1" height="1" fill="#52a5f2"/>
  <rect x="34" y="3" width="1" height="1" fill="#3588d3"/>
  <rect x="35" y="3" width="1" height="1" fill="#3589d1"/>
  <rect x="36" y="3" width="1" height="1" fill="#378ed2"/>
  <rect x="37" y="3" width="1" height="1" fill="#378ed0"/>
  <rect x="38" y="3" width="1" height="1" fill="#378ece"/>
  <rect x="39" y="3" width="1" height="1" fill="#378fcc"/>
  <rect x="40" y="3" width="8" height="1" fill="#378fca"/>
  <rect x="48" y="3" width="1" height="1" fill="#3891d0"/>
  <rect x="49" y="3" width="1" height="1" fill="#368fd5"/>
  <rect x="50" y="3" width="1" height="1" fill="#348cd9"/>
  <rect x="0" y="4" width="1" height="1" fill="#348ad6"/>
  <rect x="1" y="4" width="1" height="1" fill="#368cd5"/>
  <rect x="2" y="4" width="1" height="1" fill="#398fd7"/>
  <rect x="3" y="4" width="1" height="1" fill="#3a91d6"/>
  <rect x="4" y="4" width="1" height="1" fill="#3990d2"/>
  <rect x="5" y="4" width="1" height="1" fill="#3991ce"/>
  <rect x="6" y="4" width="2" height="1" fill="#3991cc"/>
  <rect x="8" y="4" width="1" height="1" fill="#3991ce"/>
  <rect x="9" y="4" width="6" height="1" fill="#3991d0"/>
  <rect x="15" y="4" width="1" height="1" fill="#3990d4"/>
  <rect x="16" y="4" width="1" height="1" fill="#3287d6"/>
  <rect x="17" y="4" width="1" height="1" fill="#4ba0ee"/>
  <rect x="18" y="4" width="1" height="1" fill="#50a7ec"/>
  <rect x="19" y="4" width="1" height="1" fill="#53aaea"/>
  <rect x="20" y="4" width="2" height="1" fill="#54aae6"/>
  <rect x="22" y="4" width="9" height="1" fill="#54a9ea"/>
  <rect x="31" y="4" width="1" height="1" fill="#54a9ec"/>
  <rect x="32" y="4" width="1" height="1" fill="#53a7ef"/>
  <rect x="33" y="4" width="1" height="1" fill="#4fa2ec"/>
  <rect x="34" y="4" width="1" height="1" fill="#3589d1"/>
  <rect x="35" y="4" width="1" height="1" fill="#3d91d7"/>
  <rect x="36" y="4" width="1" height="1" fill="#3990d2"/>
  <rect x="37" y="4" width="1" height="1" fill="#3991d0"/>
  <rect x="38" y="4" width="1" height="1" fill="#3991ce"/>
  <rect x="39" y="4" width="1" height="1" fill="#3991cc"/>
  <rect x="40" y="4" width="7" height="2" fill="#3992ca"/>
  <rect x="47" y="4" width="1" height="2" fill="#3991cc"/>
  <rect x="48" y="4" width="1" height="2" fill="#3690cf"/>
  <rect x="49" y="4" width="1" height="5" fill="#358ed4"/>
  <rect x="50" y="4" width="1" height="4" fill="#338ad8"/>
  <rect x="0" y="5" width="1" height="1" fill="#3389d3"/>
  <rect x="1" y="5" width="1" height="1" fill="#368cd3"/>
  <rect x="2" y="5" width="1" height="1" fill="#3990d4"/>
  <rect x="3" y="5" width="1" height="1" fill="#3a91d4"/>
  <rect x="4" y="5" width="1" height="1" fill="#3991ce"/>
  <rect x="5" y="5" width="1" height="1" fill="#3991cc"/>
  <rect x="6" y="5" width="2" height="1" fill="#3992ca"/>
  <rect x="8" y="5" width="1" height="1" fill="#3991cc"/>
  <rect x="9" y="5" width="6" height="1" fill="#3991ce"/>
  <rect x="15" y="5" width="1" height="1" fill="#3990d2"/>
  <rect x="16" y="5" width="1" height="1" fill="#3288d4"/>
  <rect x="17" y="5" width="1" height="1" fill="#4ba0ec"/>
  <rect x="18" y="5" width="1" height="1" fill="#50a8ea"/>
  <rect x="19" y="5" width="1" height="1" fill="#53abe8"/>
  <rect x="20" y="5" width="2" height="1" fill="#54abe4"/>
  <rect x="22" y="5" width="9" height="1" fill="#54aae8"/>
  <rect x="31" y="5" width="1" height="1" fill="#54a9ea"/>
  <rect x="32" y="5" width="1" height="1" fill="#53a8ed"/>
  <rect x="33" y="5" width="1" height="1" fill="#4fa2ea"/>
  <rect x="34" y="5" width="1" height="1" fill="#3589cf"/>
  <rect x="35" y="5" width="1" height="1" fill="#3d92d5"/>
  <rect x="36" y="5" width="1" height="1" fill="#3991d0"/>
  <rect x="37" y="5" width="1" height="1" fill="#3991ce"/>
  <rect x="38" y="5" width="2" height="1" fill="#3991cc"/>
  <rect x="0" y="6" width="1" height="1" fill="#338ad1"/>
  <rect x="1" y="6" width="1" height="3" fill="#368cd1"/>
  <rect x="2" y="6" width="1" height="3" fill="#3990d2"/>
  <rect x="3" y="6" width="1" height="3" fill="#3a92d2"/>
  <rect x="4" y="6" width="1" height="2" fill="#3991cc"/>
  <rect x="5" y="6" width="1" height="2" fill="#3992ca"/>
  <rect x="6" y="6" width="2" height="2" fill="#3992c8"/>
  <rect x="8" y="6" width="1" height="1" fill="#3992ca"/>
  <rect x="9" y="6" width="6" height="1" fill="#3991cc"/>
  <rect x="15" y="6" width="1" height="1" fill="#3991d0"/>
  <rect x="16" y="6" width="1" height="1" fill="#3288d2"/>
  <rect x="17" y="6" width="1" height="1" fill="#4ba1ea"/>
  <rect x="18" y="6" width="1" height="4" fill="#50a8e8"/>
  <rect x="19" y="6" width="1" height="1" fill="#53abe6"/>
  <rect x="20" y="6" width="2" height="4" fill="#54abe2"/>
  <rect x="22" y="6" width="9" height="1" fill="#54aae6"/>
  <rect x="31" y="6" width="1" height="1" fill="#54aae8"/>
  <rect x="32" y="6" width="1" height="4" fill="#53a8eb"/>
  <rect x="33" y="6" width="1" height="5" fill="#4fa3e8"/>
  <rect x="34" y="6" width="1" height="5" fill="#358acd"/>
  <rect x="35" y="6" width="1" height="5" fill="#3d92d3"/>
  <rect x="36" y="6" width="1" height="4" fill="#3991ce"/>
  <rect x="37" y="6" width="3" height="1" fill="#3991cc"/>
  <rect x="40" y="6" width="7" height="1" fill="#3991ce"/>
  <rect x="47" y="6" width="1" height="1" fill="#3991d0"/>
  <rect x="48" y="6" width="1" height="2" fill="#3690d1"/>
  <rect x="0" y="7" width="1" height="1" fill="#338acf"/>
  <rect x="8" y="7" width="7" height="1" fill="#3992ca"/>
  <rect x="15" y="7" width="1" height="3" fill="#3991ce"/>
  <rect x="16" y="7" width="1" height="3" fill="#3288d0"/>
  <rect x="17" y="7" width="1" height="2" fill="#4ba1e8"/>
  <rect x="19" y="7" width="1" height="2" fill="#53abe4"/>
  <rect x="22" y="7" width="1" height="2" fill="#54abe4"/>
  <rect x="23" y="7" width="1" height="2" fill="#54aae6"/>
  <rect x="24" y="7" width="7" height="2" fill="#54abe4"/>
  <rect x="31" y="7" width="1" height="2" fill="#54aae6"/>
  <rect x="37" y="7" width="1" height="2" fill="#3991cc"/>
  <rect x="38" y="7" width="1" height="2" fill="#3992ca"/>
  <rect x="39" y="7" width="1" height="2" fill="#3991cc"/>
  <rect x="40" y="7" width="1" height="1" fill="#3991ce"/>
  <rect x="41" y="7" width="7" height="1" fill="#3991d0"/>
  <rect x="0" y="8" width="1" height="4" fill="#338ad1"/>
  <rect x="4" y="8" width="1" height="1" fill="#3991ce"/>
  <rect x="5" y="8" width="1" height="1" fill="#3991cc"/>
  <rect x="6" y="8" width="9" height="1" fill="#3992ca"/>
  <rect x="40" y="8" width="2" height="4" fill="#3991ce"/>
  <rect x="42" y="8" width="6" height="8" fill="#3991d0"/>
  <rect x="48" y="8" width="1" height="9" fill="#3690cf"/>
  <rect x="50" y="8" width="1" height="4" fill="#338ada"/>
  <rect x="1" y="9" width="1" height="2" fill="#368cd3"/>
  <rect x="2" y="9" width="1" height="2" fill="#3990d4"/>
  <rect x="3" y="9" width="1" height="5" fill="#3a91d4"/>
  <rect x="4" y="9" width="1" height="4" fill="#3991d0"/>
  <rect x="5" y="9" width="1" height="4" fill="#3991ce"/>
  <rect x="6" y="9" width="1" height="1" fill="#3991cc"/>
  <rect x="7" y="9" width="8" height="1" fill="#3992ca"/>
  <rect x="17" y="9" width="1" height="10" fill="#4ba1ea"/>
  <rect x="19" y="9" width="1" height="10" fill="#53abe6"/>
  <rect x="22" y="9" width="3" height="1" fill="#54aae6"/>
  <rect x="25" y="9" width="6" height="1" fill="#54abe4"/>
  <rect x="31" y="9" width="1" height="3" fill="#54aae8"/>
  <rect x="37" y="9" width="3" height="1" fill="#3991cc"/>
  <rect x="49" y="9" width="1" height="7" fill="#358ed2"/>
  <rect x="6" y="10" width="9" height="2" fill="#3991cc"/>
  <rect x="15" y="10" width="1" height="3" fill="#3991d0"/>
  <rect x="16" y="10" width="1" height="3" fill="#3288d2"/>
  <rect x="18" y="10" width="1" height="9" fill="#50a8ea"/>
  <rect x="20" y="10" width="2" height="9" fill="#54abe4"/>
  <rect x="22" y="10" width="1" height="9" fill="#54aae6"/>
  <rect x="23" y="10" width="1" height="2" fill="#54aae8"/>
  <rect x="24" y="10" width="7" height="2" fill="#54aae6"/>
  <rect x="32" y="10" width="1" height="6" fill="#53a8ed"/>
  <rect x="36" y="10" width="2" height="1" fill="#3991ce"/>
  <rect x="38" y="10" width="2" height="1" fill="#3991cc"/>
  <rect x="1" y="11" width="1" height="3" fill="#368cd1"/>
  <rect x="2" y="11" width="1" height="3" fill="#3990d2"/>
  <rect x="33" y="11" width="1" height="8" fill="#4fa2ea"/>
  <rect x="34" y="11" width="1" height="8" fill="#3589cf"/>
  <rect x="35" y="11" width="1" height="5" fill="#3d92d5"/>
  <rect x="36" y="11" width="1" height="1" fill="#3991d0"/>
  <rect x="37" y="11" width="2" height="1" fill="#3991ce"/>
  <rect x="39" y="11" width="1" height="1" fill="#3991cc"/>
  <rect x="0" y="12" width="1" height="1" fill="#338acf"/>
  <rect x="6" y="12" width="4" height="1" fill="#3991cc"/>
  <rect x="10" y="12" width="5" height="2" fill="#3991ce"/>
  <rect x="23" y="12" width="8" height="3" fill="#54aae8"/>
  <rect x="31" y="12" width="1" height="3" fill="#54a9ea"/>
  <rect x="36" y="12" width="2" height="4" fill="#3991d0"/>
  <rect x="38" y="12" width="4" height="4" fill="#3991ce"/>
  <rect x="50" y="12" width="1" height="2" fill="#338ad8"/>
  <rect x="0" y="13" width="1" height="2" fill="#348bd0"/>
  <rect x="4" y="13" width="2" height="5" fill="#3991d0"/>
  <rect x="6" y="13" width="1" height="1" fill="#3991ce"/>
  <rect x="7" y="13" width="3" height="1" fill="#3991cc"/>
  <rect x="15" y="13" width="1" height="3" fill="#3990d2"/>
  <rect x="16" y="13" width="1" height="2" fill="#3389d3"/>
  <rect x="1" y="14" width="1" height="3" fill="#378ed2"/>
  <rect x="2" y="14" width="2" height="2" fill="#3990d2"/>
  <rect x="6" y="14" width="9" height="1" fill="#3991ce"/>
  <rect x="50" y="14" width="1" height="2" fill="#338bd6"/>
  <rect x="0" y="15" width="1" height="2" fill="#368cd1"/>
  <rect x="6" y="15" width="8" height="1" fill="#3991ce"/>
  <rect x="14" y="15" width="1" height="1" fill="#3991d0"/>
  <rect x="16" y="15" width="1" height="2" fill="#348ad4"/>
  <rect x="23" y="15" width="4" height="1" fill="#54aae8"/>
  <rect x="27" y="15" width="4" height="1" fill="#54a9ea"/>
  <rect x="31" y="15" width="1" height="1" fill="#54a9ec"/>
  <rect x="2" y="16" width="1" height="2" fill="#388fd1"/>
  <rect x="3" y="16" width="1" height="2" fill="#3990d2"/>
  <rect x="6" y="16" width="4" height="2" fill="#3991ce"/>
  <rect x="10" y="16" width="4" height="1" fill="#3991d0"/>
  <rect x="14" y="16" width="1" height="1" fill="#3990d2"/>
  <rect x="15" y="16" width="1" height="1" fill="#348bd0"/>
  <rect x="23" y="16" width="1" height="3" fill="#54aae8"/>
  <rect x="24" y="16" width="3" height="1" fill="#54a9ea"/>
  <rect x="27" y="16" width="3" height="1" fill="#54a9ec"/>
  <rect x="30" y="16" width="2" height="1" fill="#54a9ee"/>
  <rect x="32" y="16" width="1" height="3" fill="#53a7ef"/>
  <rect x="35" y="16" width="1" height="1" fill="#3c91d4"/>
  <rect x="36" y="16" width="1" height="1" fill="#3a92d2"/>
  <rect x="37" y="16" width="1" height="3" fill="#3991d0"/>
  <rect x="38" y="16" width="2" height="3" fill="#3991ce"/>
  <rect x="40" y="16" width="4" height="3" fill="#3991d0"/>
  <rect x="44" y="16" width="4" height="3" fill="#3891d0"/>
  <rect x="49" y="16" width="1" height="1" fill="#348fd2"/>
  <rect x="50" y="16" width="1" height="1" fill="#318cd6"/>
  <rect x="0" y="17" width="2" height="1" fill="#378ed2"/>
  <rect x="10" y="17" width="3" height="1" fill="#3991d0"/>
  <rect x="13" y="17" width="1" height="2" fill="#3990d2"/>
  <rect x="14" y="17" width="1" height="2" fill="#3990d4"/>
  <rect x="15" y="17" width="1" height="2" fill="#348bd2"/>
  <rect x="16" y="17" width="1" height="2" fill="#368cd5"/>
  <rect x="24" y="17" width="2" height="2" fill="#54a9ea"/>
  <rect x="26" y="17" width="2" height="2" fill="#54a9ec"/>
  <rect x="28" y="17" width="2" height="2" fill="#54a9ee"/>
  <rect x="30" y="17" width="2" height="2" fill="#54a8f0"/>
  <rect x="35" y="17" width="1" height="2" fill="#3c90d6"/>
  <rect x="36" y="17" width="1" height="2" fill="#3a91d4"/>
  <rect x="48" y="17" width="1" height="2" fill="#3591cf"/>
  <rect x="49" y="17" width="1" height="2" fill="#3490d0"/>
  <rect x="50" y="17" width="1" height="2" fill="#318cd4"/>
  <rect x="0" y="18" width="1" height="1" fill="#378ed2"/>
  <rect x="1" y="18" width="1" height="1" fill="#388fd3"/>
  <rect x="2" y="18" width="2" height="1" fill="#388fd1"/>
  <rect x="4" y="18" width="9" height="1" fill="#3991d0"/>
  <rect x="0" y="19" width="2" height="1" fill="#3b8ecf"/>
  <rect x="2" y="19" width="2" height="1" fill="#3b8ecd"/>
  <rect x="4" y="19" width="1" height="1" fill="#3c8fce"/>
  <rect x="5" y="19" width="8" height="1" fill="#3c90cc"/>
  <rect x="13" y="19" width="1" height="1" fill="#3b90ce"/>
  <rect x="14" y="19" width="1" height="1" fill="#3b90d0"/>
  <rect x="15" y="19" width="1" height="1" fill="#368bce"/>
  <rect x="16" y="19" width="1" height="1" fill="#388dd2"/>
  <rect x="17" y="19" width="1" height="1" fill="#4ca1e4"/>
  <rect x="18" y="19" width="1" height="1" fill="#54a7e6"/>
  <rect x="19" y="19" width="1" height="1" fill="#56aae4"/>
  <rect x="20" y="19" width="2" height="1" fill="#58aae0"/>
  <rect x="22" y="19" width="1" height="1" fill="#58a9e4"/>
  <rect x="23" y="19" width="2" height="1" fill="#58a9e6"/>
  <rect x="25" y="19" width="2" height="1" fill="#58a8e8"/>
  <rect x="27" y="19" width="2" height="1" fill="#58a8ea"/>
  <rect x="29" y="19" width="1" height="1" fill="#56a8ec"/>
  <rect x="30" y="19" width="2" height="1" fill="#56a8ee"/>
  <rect x="32" y="19" width="1" height="1" fill="#55a7ed"/>
  <rect x="33" y="19" width="1" height="1" fill="#50a2e8"/>
  <rect x="34" y="19" width="1" height="1" fill="#3888cd"/>
  <rect x="35" y="19" width="1" height="1" fill="#3f8fd2"/>
  <rect x="36" y="19" width="1" height="1" fill="#3d91d0"/>
  <rect x="37" y="19" width="2" height="1" fill="#3c90cc"/>
  <rect x="39" y="19" width="1" height="1" fill="#3c90ca"/>
  <rect x="40" y="19" width="3" height="1" fill="#3c90cc"/>
  <rect x="43" y="19" width="2" height="1" fill="#3b91cc"/>
  <rect x="45" y="19" width="2" height="1" fill="#3991cc"/>
  <rect x="47" y="19" width="1" height="1" fill="#3991ce"/>
  <rect x="48" y="19" width="1" height="1" fill="#3691cd"/>
  <rect x="49" y="19" width="1" height="1" fill="#358fd0"/>
  <rect x="50" y="19" width="1" height="1" fill="#348bd0"/>
  <rect x="0" y="20" width="4" height="1" fill="#428cc7"/>
  <rect x="4" y="20" width="1" height="1" fill="#438dc8"/>
  <rect x="5" y="20" width="1" height="1" fill="#438ec6"/>
  <rect x="6" y="20" width="4" height="1" fill="#438ec4"/>
  <rect x="10" y="20" width="3" height="1" fill="#418fc6"/>
  <rect x="13" y="20" width="1" height="1" fill="#408fc8"/>
  <rect x="14" y="20" width="1" height="1" fill="#408fca"/>
  <rect x="15" y="20" width="1" height="1" fill="#398ac8"/>
  <rect x="16" y="20" width="1" height="1" fill="#3c8dca"/>
  <rect x="17" y="20" width="1" height="1" fill="#4fa1dc"/>
  <rect x="18" y="20" width="1" height="1" fill="#5aa5de"/>
  <rect x="19" y="20" width="1" height="1" fill="#5ea7dc"/>
  <rect x="20" y="20" width="2" height="1" fill="#5ea8da"/>
  <rect x="22" y="20" width="1" height="1" fill="#5ea7dc"/>
  <rect x="23" y="20" width="1" height="1" fill="#5ea7de"/>
  <rect x="24" y="20" width="2" height="1" fill="#5ea7e0"/>
  <rect x="26" y="20" width="1" height="1" fill="#5ca7e2"/>
  <rect x="27" y="20" width="1" height="1" fill="#5ca7e4"/>
  <rect x="28" y="20" width="1" height="1" fill="#5ca6e6"/>
  <rect x="29" y="20" width="1" height="1" fill="#5ba7e8"/>
  <rect x="30" y="20" width="1" height="1" fill="#5ba6ea"/>
  <rect x="31" y="20" width="1" height="1" fill="#59a7ea"/>
  <rect x="32" y="20" width="1" height="1" fill="#58a5eb"/>
  <rect x="33" y="20" width="1" height="1" fill="#53a1e4"/>
  <rect x="34" y="20" width="1" height="1" fill="#3d87c5"/>
  <rect x="35" y="20" width="1" height="1" fill="#458eca"/>
  <rect x="36" y="20" width="1" height="1" fill="#448fc8"/>
  <rect x="37" y="20" width="1" height="1" fill="#438ec6"/>
  <rect x="38" y="20" width="4" height="1" fill="#438ec4"/>
  <rect x="42" y="20" width="1" height="1" fill="#418fc6"/>
  <rect x="43" y="20" width="2" height="1" fill="#408fc6"/>
  <rect x="45" y="20" width="1" height="1" fill="#3e90c6"/>
  <rect x="46" y="20" width="1" height="1" fill="#3c91c6"/>
  <rect x="47" y="20" width="1" height="1" fill="#3c91c8"/>
  <rect x="48" y="20" width="1" height="1" fill="#3a8fcb"/>
  <rect x="49" y="20" width="1" height="1" fill="#3a8dcc"/>
  <rect x="50" y="20" width="1" height="1" fill="#3b89ca"/>
  <rect x="0" y="21" width="4" height="1" fill="#488abf"/>
  <rect x="4" y="21" width="2" height="1" fill="#498cc0"/>
  <rect x="6" y="21" width="1" height="1" fill="#498cbe"/>
  <rect x="7" y="21" width="2" height="1" fill="#498cbc"/>
  <rect x="9" y="21" width="1" height="1" fill="#478dbc"/>
  <rect x="10" y="21" width="1" height="1" fill="#478dbe"/>
  <rect x="11" y="21" width="2" height="1" fill="#468ebe"/>
  <rect x="13" y="21" width="1" height="1" fill="#448ec0"/>
  <rect x="14" y="21" width="1" height="1" fill="#438ec4"/>
  <rect x="15" y="21" width="1" height="1" fill="#3e89c2"/>
  <rect x="16" y="21" width="1" height="1" fill="#408cc0"/>
  <rect x="17" y="21" width="1" height="1" fill="#56a0d2"/>
  <rect x="18" y="21" width="1" height="1" fill="#60a3d6"/>
  <rect x="19" y="21" width="1" height="1" fill="#64a5d6"/>
  <rect x="20" y="21" width="2" height="1" fill="#64a6d4"/>
  <rect x="22" y="21" width="2" height="1" fill="#64a5d6"/>
  <rect x="24" y="21" width="1" height="1" fill="#64a5d8"/>
  <rect x="25" y="21" width="1" height="1" fill="#63a5da"/>
  <rect x="26" y="21" width="1" height="1" fill="#63a5dc"/>
  <rect x="27" y="21" width="1" height="1" fill="#61a5de"/>
  <rect x="28" y="21" width="1" height="1" fill="#61a5e0"/>
  <rect x="29" y="21" width="1" height="1" fill="#60a5e2"/>
  <rect x="30" y="21" width="1" height="1" fill="#5ea6e4"/>
  <rect x="31" y="21" width="1" height="1" fill="#5ea5e6"/>
  <rect x="32" y="21" width="1" height="1" fill="#5da4e5"/>
  <rect x="33" y="21" width="1" height="1" fill="#5aa0dc"/>
  <rect x="34" y="21" width="1" height="1" fill="#4385bd"/>
  <rect x="35" y="21" width="1" height="1" fill="#4c8cc1"/>
  <rect x="36" y="21" width="1" height="1" fill="#4a8dbf"/>
  <rect x="37" y="21" width="1" height="1" fill="#498cbe"/>
  <rect x="38" y="21" width="3" height="1" fill="#498cbc"/>
  <rect x="41" y="21" width="1" height="1" fill="#478dbc"/>
  <rect x="42" y="21" width="1" height="1" fill="#468ebe"/>
  <rect x="43" y="21" width="2" height="1" fill="#448ebe"/>
  <rect x="45" y="21" width="1" height="1" fill="#438fbe"/>
  <rect x="46" y="21" width="1" height="1" fill="#4190c0"/>
  <rect x="47" y="21" width="1" height="1" fill="#4090c4"/>
  <rect x="48" y="21" width="1" height="1" fill="#3e8ec7"/>
  <rect x="49" y="21" width="1" height="1" fill="#408bc6"/>
  <rect x="50" y="21" width="1" height="1" fill="#4187c2"/>
  <rect x="0" y="22" width="1" height="1" fill="#4d8ab7dd"/>
  <rect x="1" y="22" width="3" height="1" fill="#4d8ab7"/>
  <rect x="4" y="22" width="2" height="1" fill="#4e8bb8"/>
  <rect x="6" y="22" width="4" height="1" fill="#4e8bb6"/>
  <rect x="10" y="22" width="1" height="1" fill="#4c8cb6"/>
  <rect x="11" y="22" width="1" height="1" fill="#4b8db6"/>
  <rect x="12" y="22" width="1" height="1" fill="#498eb6"/>
  <rect x="13" y="22" width="1" height="1" fill="#478eb8"/>
  <rect x="14" y="22" width="1" height="1" fill="#468ebe"/>
  <rect x="15" y="22" width="1" height="1" fill="#4388ba"/>
  <rect x="16" y="22" width="1" height="1" fill="#478bb8dc"/>
  <rect x="17" y="22" width="1" height="1" fill="#5e9dc8dd"/>
  <rect x="18" y="22" width="1" height="1" fill="#67a2cb"/>
  <rect x="19" y="22" width="1" height="1" fill="#6ba4ce"/>
  <rect x="20" y="22" width="2" height="1" fill="#6ba4cc"/>
  <rect x="22" y="22" width="2" height="1" fill="#69a4ce"/>
  <rect x="24" y="22" width="1" height="1" fill="#69a4d0"/>
  <rect x="25" y="22" width="1" height="1" fill="#69a4d2"/>
  <rect x="26" y="22" width="1" height="1" fill="#67a4d4"/>
  <rect x="27" y="22" width="1" height="1" fill="#66a4d6"/>
  <rect x="28" y="22" width="1" height="1" fill="#64a4da"/>
  <rect x="29" y="22" width="1" height="1" fill="#63a5dc"/>
  <rect x="30" y="22" width="1" height="1" fill="#61a5e0"/>
  <rect x="31" y="22" width="1" height="1" fill="#63a4e0"/>
  <rect x="32" y="22" width="1" height="1" fill="#63a3db"/>
  <rect x="33" y="22" width="1" height="1" fill="#609ed2dc"/>
  <rect x="34" y="22" width="1" height="1" fill="#4a84b4dd"/>
  <rect x="35" y="22" width="1" height="1" fill="#528bb7"/>
  <rect x="36" y="22" width="1" height="1" fill="#518cb7"/>
  <rect x="37" y="22" width="1" height="1" fill="#4f8bb4"/>
  <rect x="38" y="22" width="4" height="1" fill="#4e8cb4"/>
  <rect x="42" y="22" width="1" height="1" fill="#4b8db6"/>
  <rect x="43" y="22" width="1" height="1" fill="#498eb6"/>
  <rect x="44" y="22" width="1" height="1" fill="#478eb6"/>
  <rect x="45" y="22" width="1" height="1" fill="#468fb8"/>
  <rect x="46" y="22" width="1" height="1" fill="#448fba"/>
  <rect x="47" y="22" width="1" height="1" fill="#448fbc"/>
  <rect x="48" y="22" width="1" height="1" fill="#468bbf"/>
  <rect x="49" y="22" width="1" height="1" fill="#4889be"/>
  <rect x="50" y="22" width="1" height="1" fill="#4985badc"/>
  <rect x="0" y="23" width="1" height="1" fill="#5687ad44"/>
  <rect x="1" y="23" width="1" height="1" fill="#5687addb"/>
  <rect x="2" y="23" width="2" height="1" fill="#5687ad"/>
  <rect x="4" y="23" width="1" height="1" fill="#5788ae"/>
  <rect x="5" y="23" width="2" height="1" fill="#5689ae"/>
  <rect x="7" y="23" width="3" height="1" fill="#5689ac"/>
  <rect x="10" y="23" width="2" height="1" fill="#548aac"/>
  <rect x="12" y="23" width="1" height="1" fill="#538bac"/>
  <rect x="13" y="23" width="1" height="1" fill="#538aae"/>
  <rect x="14" y="23" width="1" height="1" fill="#518bb0"/>
  <rect x="15" y="23" width="1" height="1" fill="#4e85aeeb"/>
  <rect x="16" y="23" width="1" height="1" fill="#5287ac43"/>
  <rect x="17" y="23" width="1" height="1" fill="#679ac044"/>
  <rect x="18" y="23" width="1" height="1" fill="#6fa0c3db"/>
  <rect x="19" y="23" width="1" height="1" fill="#71a2c6"/>
  <rect x="20" y="23" width="3" height="1" fill="#71a2c4"/>
  <rect x="23" y="23" width="2" height="1" fill="#71a2c6"/>
  <rect x="25" y="23" width="1" height="1" fill="#71a1c8"/>
  <rect x="26" y="23" width="2" height="1" fill="#6fa2ca"/>
  <rect x="28" y="23" width="1" height="1" fill="#6ea2cc"/>
  <rect x="29" y="23" width="1" height="1" fill="#6ea2ce"/>
  <rect x="30" y="23" width="2" height="1" fill="#6ca2d0"/>
  <rect x="32" y="23" width="1" height="1" fill="#6da1cdeb"/>
  <rect x="33" y="23" width="1" height="1" fill="#6a9cc643"/>
  <rect x="34" y="23" width="1" height="1" fill="#5282aa44"/>
  <rect x="35" y="23" width="1" height="1" fill="#5989addb"/>
  <rect x="36" y="23" width="1" height="1" fill="#5989ad"/>
  <rect x="37" y="23" width="4" height="1" fill="#5689aa"/>
  <rect x="41" y="23" width="1" height="1" fill="#5689ac"/>
  <rect x="42" y="23" width="1" height="1" fill="#548aac"/>
  <rect x="43" y="23" width="1" height="1" fill="#538bac"/>
  <rect x="44" y="23" width="1" height="1" fill="#538baa"/>
  <rect x="45" y="23" width="1" height="1" fill="#518bac"/>
  <rect x="46" y="23" width="1" height="1" fill="#4f8cae"/>
  <rect x="47" y="23" width="1" height="1" fill="#518bb0"/>
  <rect x="48" y="23" width="1" height="1" fill="#5188b1"/>
  <rect x="49" y="23" width="1" height="1" fill="#5286b2eb"/>
  <rect x="50" y="23" width="1" height="1" fill="#5183b043"/>
</svg>