<svg xmlns="http://www.w3.org/2000/svg" width="16" height="16" viewBox="0 0 16 16" shape-rendering="crispEdges">
  <rect x="9" y="1" width="1" height="1" fill="#408fc659"/>
  <rect x="10" y="1" width="1" height="1" fill="#3e8fcaf5"/>
  <rect x="11" y="1" width="1" height="1" fill="#3c90ccef"/>
  <rect x="12" y="1" width="1" height="1" fill="#3b90ce54"/>
  <rect x="8" y="2" width="1" height="1" fill="#408fc614"/>
  <rect x="9" y="2" width="1" height="1" fill="#3e90c8e8"/>
  <rect x="10" y="2" width="1" height="1" fill="#3e8fca17"/>
  <rect x="11" y="2" width="1" height="1" fill="#3c90cc4a"/>
  <rect x="12" y="2" width="1" height="1" fill="#3b90cee3"/>
  <rect x="8" y="3" width="1" height="1" fill="#3c90ca7c"/>
  <rect x="9" y="3" width="1" height="1" fill="#3e8fca97"/>
  <rect x="11" y="3" width="1" height="1" fill="#3e8fcc4c"/>
  <rect x="12" y="3" width="1" height="1" fill="#3b90d0df"/>
  <rect x="7" y="4" width="1" height="1" fill="#3c90cc18"/>
  <rect x="8" y="4" width="1" height="1" fill="#3c90ccef"/>
  <rect x="9" y="4" width="1" height="1" fill="#3c90cc2a"/>
  <rect x="11" y="4" width="1" height="1" fill="#3e8fcaea"/>
  <rect x="12" y="4" width="1" height="1" fill="#3991d04c"/>
  <rect x="7" y="5" width="1" height="1" fill="#3b90cead"/>
  <rect x="8" y="5" width="1" height="1" fill="#3b90cebe"/>
  <rect x="11" y="5" width="1" height="1" fill="#408fca"/>
  <rect x="12" y="5" width="1" height="1" fill="#3991d03a"/>
  <rect x="0" y="6" width="1" height="1" fill="#3691d4ba"/>
  <rect x="1" y="6" width="3" height="2" fill="#3691d4"/>
  <rect x="4" y="6" width="1" height="1" fill="#3691d49f"/>
  <rect x="5" y="6" width="1" height="1" fill="#3691d411"/>
  <rect x="6" y="6" width="1" height="2" fill="#3691d4a2"/>
  <rect x="7" y="6" width="1" height="1" fill="#3891d2f0"/>
  <rect x="8" y="6" width="1" height="1" fill="#3891d030"/>
  <rect x="11" y="6" width="1" height="1" fill="#408fcaa9"/>
  <rect x="12" y="6" width="1" height="1" fill="#3991d0"/>
  <rect x="13" y="6" width="1" height="1" fill="#3891d2"/>
  <rect x="14" y="6" width="1" height="1" fill="#3b90ce"/>
  <rect x="15" y="6" width="1" height="1" fill="#3c90ccc2"/>
  <rect x="0" y="7" width="1" height="1" fill="#3691d4fe"/>
  <rect x="4" y="7" width="1" height="1" fill="#3691d4fc"/>
  <rect x="5" y="7" width="1" height="1" fill="#3691d4ef"/>
  <rect x="7" y="7" width="1" height="1" fill="#3691d423"/>
  <rect x="14" y="7" width="1" height="1" fill="#3891d03b"/>
  <rect x="15" y="7" width="1" height="1" fill="#3991d0"/>
  <rect x="0" y="8" width="4" height="1" fill="#3891d0"/>
  <rect x="4" y="8" width="1" height="1" fill="#3891d0f1"/>
  <rect x="15" y="8" width="1" height="7" fill="#3991ce"/>
  <rect x="0" y="9" width="4" height="4" fill="#3991ce"/>
  <rect x="4" y="9" width="1" height="4" fill="#3991cef0"/>
  <rect x="0" y="13" width="5" height="1" fill="#3991ce"/>
  <rect x="0" y="14" width="6" height="1" fill="#3991ce"/>
  <rect x="6" y="14" width="1" height="1" fill="#3991cef7"/>
  <rect x="7" y="14" width="1" height="1" fill="#3991cee8"/>
  <rect x="8" y="14" width="1" height="1" fill="#3991ce30"/>
  <rect x="14" y="14" width="1" height="1" fill="#3991ce42"/>
  <rect x="0" y="15" width="1" height="1" fill="#3991cebb"/>
  <rect x="1" y="15" width="1" height="1" fill="#3991ce"/>
  <rect x="2" y="15" width="1" height="1" fill="#3991cef2"/>
  <rect x="3" y="15" width="1" height="1" fill="#3991ceee"/>
  <rect x="4" y="15" width="1" height="1" fill="#3991ceb1"/>
  <rect x="7" y="15" width="1" height="1" fill="#3991ceb0"/>
  <rect x="8" y="15" width="7" height="1" fill="#3991ce"/>
  <rect x="15" y="15" width="1" height="1" fill="#3991cec6"/>
</svg>