<svg xmlns="http://www.w3.org/2000/svg" width="16" height="16" viewBox="0 0 16 16" shape-rendering="crispEdges">
  <rect x="0" y="0" width="1" height="1" fill="#667bad6c"/>
  <rect x="1" y="0" width="1" height="1" fill="#667badf5"/>
  <rect x="2" y="0" width="2" height="1" fill="#667bad"/>
  <rect x="4" y="0" width="2" height="4" fill="#677cae"/>
  <rect x="6" y="0" width="1" height="4" fill="#687bae"/>
  <rect x="7" y="0" width="1" height="1" fill="#687cac"/>
  <rect x="8" y="0" width="1" height="1" fill="#687aa3"/>
  <rect x="9" y="0" width="1" height="1" fill="#6776a3"/>
  <rect x="10" y="0" width="1" height="1" fill="#6b77ac"/>
  <rect x="11" y="0" width="1" height="1" fill="#6a75ae"/>
  <rect x="12" y="0" width="1" height="1" fill="#6f77b4"/>
  <rect x="13" y="0" width="1" height="1" fill="#6971b0"/>
  <rect x="14" y="0" width="1" height="1" fill="#7378b6f5"/>
  <rect x="15" y="0" width="1" height="1" fill="#6d73ae65"/>
  <rect x="0" y="1" width="1" height="1" fill="#667badf6"/>
  <rect x="1" y="1" width="3" height="1" fill="#667bad"/>
  <rect x="7" y="1" width="1" height="1" fill="#6a7baa"/>
  <rect x="8" y="1" width="1" height="1" fill="#697ca1"/>
  <rect x="9" y="1" width="1" height="1" fill="#6a7b9f"/>
  <rect x="10" y="1" width="1" height="1" fill="#66749b"/>
  <rect x="11" y="1" width="1" height="1" fill="#6b78a3"/>
  <rect x="12" y="1" width="1" height="1" fill="#6771a2"/>
  <rect x="13" y="1" width="1" height="1" fill="#6770a4"/>
  <rect x="14" y="1" width="1" height="1" fill="#7079af"/>
  <rect x="15" y="1" width="1" height="1" fill="#7079b1f2"/>
  <rect x="0" y="2" width="4" height="4" fill="#667bad"/>
  <rect x="7" y="2" width="1" height="1" fill="#6a7ca6"/>
  <rect x="8" y="2" width="1" height="1" fill="#687b94"/>
  <rect x="9" y="2" width="1" height="1" fill="#b5c7d8"/>
  <rect x="10" y="2" width="1" height="1" fill="#ddeffd"/>
  <rect x="11" y="2" width="1" height="1" fill="#effeff"/>
  <rect x="12" y="2" width="1" height="1" fill="#e3f4ff"/>
  <rect x="13" y="2" width="1" height="1" fill="#cbdbf8"/>
  <rect x="14" y="2" width="1" height="1" fill="#7d8bb4"/>
  <rect x="15" y="2" width="1" height="1" fill="#6673a3"/>
  <rect x="7" y="3" width="1" height="1" fill="#6b7ca4"/>
  <rect x="8" y="3" width="1" height="1" fill="#b8c7d9"/>
  <rect x="9" y="3" width="1" height="1" fill="#f3ffff"/>
  <rect x="10" y="3" width="1" height="2" fill="#f4ffff"/>
  <rect x="11" y="3" width="1" height="1" fill="#f6ffff"/>
  <rect x="12" y="3" width="1" height="1" fill="#f1ffff"/>
  <rect x="13" y="3" width="1" height="1" fill="#edffff"/>
  <rect x="14" y="3" width="1" height="1" fill="#6d80a5"/>
  <rect x="15" y="3" width="1" height="1" fill="#6b7da7"/>
  <rect x="4" y="4" width="1" height="1" fill="#677cae"/>
  <rect x="5" y="4" width="1" height="1" fill="#6278a9"/>
  <rect x="6" y="4" width="1" height="1" fill="#6a80b1"/>
  <rect x="7" y="4" width="1" height="1" fill="#6a7ba1"/>
  <rect x="8" y="4" width="1" height="1" fill="#e6effa"/>
  <rect x="9" y="4" width="1" height="1" fill="#faffff"/>
  <rect x="11" y="4" width="1" height="1" fill="#a5b0ca"/>
  <rect x="12" y="4" width="1" height="1" fill="#818fb4"/>
  <rect x="13" y="4" width="1" height="1" fill="#97aad1"/>
  <rect x="14" y="4" width="1" height="1" fill="#667da5"/>
  <rect x="15" y="4" width="1" height="1" fill="#647da5"/>
  <rect x="4" y="5" width="1" height="1" fill="#6f84b6"/>
  <rect x="5" y="5" width="1" height="1" fill="#697fb0"/>
  <rect x="6" y="5" width="1" height="1" fill="#667bad"/>
  <rect x="7" y="5" width="1" height="1" fill="#647699"/>
  <rect x="8" y="5" width="1" height="1" fill="#faffff"/>
  <rect x="9" y="5" width="1" height="1" fill="#fbffff"/>
  <rect x="10" y="5" width="1" height="1" fill="#faffff"/>
  <rect x="11" y="5" width="1" height="1" fill="#717d99"/>
  <rect x="12" y="5" width="1" height="1" fill="#6e7ea6"/>
  <rect x="13" y="5" width="1" height="1" fill="#677daa"/>
  <rect x="14" y="5" width="1" height="1" fill="#607ba6"/>
  <rect x="15" y="5" width="1" height="1" fill="#6383ac"/>
  <rect x="0" y="6" width="3" height="1" fill="#667bab"/>
  <rect x="3" y="6" width="3" height="1" fill="#647aaa"/>
  <rect x="6" y="6" width="1" height="1" fill="#6177a6"/>
  <rect x="7" y="6" width="1" height="1" fill="#67769a"/>
  <rect x="8" y="6" width="1" height="1" fill="#f9fcff"/>
  <rect x="9" y="6" width="1" height="2" fill="#ffffff"/>
  <rect x="10" y="6" width="1" height="1" fill="#f6fbff"/>
  <rect x="11" y="6" width="1" height="1" fill="#707a8d"/>
  <rect x="12" y="6" width="1" height="1" fill="#687a98"/>
  <rect x="13" y="6" width="1" height="1" fill="#677ea6"/>
  <rect x="14" y="6" width="1" height="1" fill="#5c7aab"/>
  <rect x="15" y="6" width="1" height="1" fill="#5a7aaf"/>
  <rect x="0" y="7" width="4" height="1" fill="#667bab"/>
  <rect x="4" y="7" width="1" height="1" fill="#647aaa"/>
  <rect x="5" y="7" width="1" height="1" fill="#667bab"/>
  <rect x="6" y="7" width="1" height="1" fill="#e6fcff"/>
  <rect x="7" y="7" width="1" height="1" fill="#edfcff"/>
  <rect x="8" y="7" width="1" height="1" fill="#f6f9ff"/>
  <rect x="10" y="7" width="1" height="1" fill="#f9feff"/>
  <rect x="11" y="7" width="1" height="1" fill="#f2fdff"/>
  <rect x="12" y="7" width="1" height="1" fill="#eeffff"/>
  <rect x="13" y="7" width="1" height="1" fill="#aac2e7"/>
  <rect x="14" y="7" width="1" height="1" fill="#5b78a7"/>
  <rect x="15" y="7" width="1" height="1" fill="#5978ab"/>
  <rect x="0" y="8" width="4" height="2" fill="#667ca9"/>
  <rect x="4" y="8" width="1" height="1" fill="#6177a4"/>
  <rect x="5" y="8" width="1" height="1" fill="#667ca9"/>
  <rect x="6" y="8" width="1" height="1" fill="#ebffff"/>
  <rect x="7" y="8" width="1" height="1" fill="#ecfdff"/>
  <rect x="8" y="8" width="1" height="1" fill="#f9ffff"/>
  <rect x="9" y="8" width="1" height="1" fill="#feffff"/>
  <rect x="10" y="8" width="1" height="1" fill="#ffffff"/>
  <rect x="11" y="8" width="1" height="1" fill="#f4feff"/>
  <rect x="12" y="8" width="1" height="1" fill="#ecfbff"/>
  <rect x="13" y="8" width="1" height="1" fill="#8ea1c8"/>
  <rect x="14" y="8" width="1" height="1" fill="#6478a1"/>
  <rect x="15" y="8" width="1" height="1" fill="#6980aa"/>
  <rect x="4" y="9" width="1" height="1" fill="#677daa"/>
  <rect x="5" y="9" width="1" height="1" fill="#6a80ad"/>
  <rect x="6" y="9" width="1" height="1" fill="#6076a3"/>
  <rect x="7" y="9" width="1" height="1" fill="#6b7d9e"/>
  <rect x="8" y="9" width="1" height="1" fill="#feffff"/>
  <rect x="9" y="9" width="1" height="2" fill="#ffffff"/>
  <rect x="10" y="9" width="1" height="1" fill="#fafeff"/>
  <rect x="11" y="9" width="1" height="1" fill="#787e9e"/>
  <rect x="12" y="9" width="1" height="1" fill="#6d7a9f"/>
  <rect x="13" y="9" width="1" height="1" fill="#6878a0"/>
  <rect x="14" y="9" width="1" height="1" fill="#6d80a5"/>
  <rect x="15" y="9" width="1" height="1" fill="#65789d"/>
  <rect x="0" y="10" width="4" height="1" fill="#667ca7"/>
  <rect x="4" y="10" width="2" height="1" fill="#677da8"/>
  <rect x="6" y="10" width="1" height="1" fill="#6279a3"/>
  <rect x="7" y="10" width="1" height="1" fill="#68799a"/>
  <rect x="8" y="10" width="1" height="1" fill="#f5feff"/>
  <rect x="10" y="10" width="1" height="1" fill="#f8fbff"/>
  <rect x="11" y="10" width="1" height="1" fill="#757b9b"/>
  <rect x="12" y="10" width="1" height="1" fill="#667095"/>
  <rect x="13" y="10" width="1" height="1" fill="#68769f"/>
  <rect x="14" y="10" width="1" height="3" fill="#6a7ba1"/>
  <rect x="15" y="10" width="1" height="1" fill="#66799e"/>
  <rect x="0" y="11" width="3" height="2" fill="#667ca7"/>
  <rect x="3" y="11" width="1" height="2" fill="#647ba5"/>
  <rect x="4" y="11" width="1" height="1" fill="#637aa4"/>
  <rect x="5" y="11" width="1" height="1" fill="#687fa9"/>
  <rect x="6" y="11" width="1" height="1" fill="#647ba5"/>
  <rect x="7" y="11" width="1" height="1" fill="#6a7c9d"/>
  <rect x="8" y="11" width="1" height="1" fill="#fcffff"/>
  <rect x="9" y="11" width="1" height="1" fill="#fbfeff"/>
  <rect x="10" y="11" width="1" height="1" fill="#f1f4ff"/>
  <rect x="11" y="11" width="1" height="1" fill="#6e7494"/>
  <rect x="12" y="11" width="1" height="1" fill="#6c759b"/>
  <rect x="13" y="11" width="1" height="1" fill="#6f7da6"/>
  <rect x="15" y="11" width="1" height="1" fill="#617498"/>
  <rect x="4" y="12" width="1" height="1" fill="#677da8"/>
  <rect x="5" y="12" width="1" height="1" fill="#6b82ac"/>
  <rect x="6" y="12" width="1" height="1" fill="#687fa9"/>
  <rect x="7" y="12" width="1" height="1" fill="#6e7fa0"/>
  <rect x="8" y="12" width="1" height="1" fill="#f2fcff"/>
  <rect x="9" y="12" width="1" height="2" fill="#ffffff"/>
  <rect x="10" y="12" width="1" height="1" fill="#fafeff"/>
  <rect x="11" y="12" width="1" height="1" fill="#797f9f"/>
  <rect x="12" y="12" width="1" height="1" fill="#6f799f"/>
  <rect x="13" y="12" width="1" height="1" fill="#6c7aa3"/>
  <rect x="15" y="12" width="1" height="1" fill="#697ca1"/>
  <rect x="0" y="13" width="3" height="1" fill="#8198c3"/>
  <rect x="3" y="13" width="1" height="1" fill="#8097c1"/>
  <rect x="4" y="13" width="1" height="1" fill="#8399c4"/>
  <rect x="5" y="13" width="1" height="1" fill="#879ec8"/>
  <rect x="6" y="13" width="1" height="1" fill="#849ac5"/>
  <rect x="7" y="13" width="1" height="1" fill="#8a9bbc"/>
  <rect x="8" y="13" width="1" height="1" fill="#f8ffff"/>
  <rect x="10" y="13" width="1" height="1" fill="#fbffff"/>
  <rect x="11" y="13" width="1" height="1" fill="#8d93b3"/>
  <rect x="12" y="13" width="1" height="1" fill="#8d97bd"/>
  <rect x="13" y="13" width="1" height="1" fill="#8a98c1"/>
  <rect x="14" y="13" width="1" height="1" fill="#8999bf"/>
  <rect x="15" y="13" width="1" height="1" fill="#879abf"/>
  <rect x="0" y="14" width="1" height="1" fill="#849ac5f7"/>
  <rect x="1" y="14" width="2" height="1" fill="#849ac5"/>
  <rect x="3" y="14" width="1" height="2" fill="#8399c4"/>
  <rect x="4" y="14" width="1" height="2" fill="#859cc6"/>
  <rect x="5" y="14" width="1" height="2" fill="#8aa0cb"/>
  <rect x="6" y="14" width="1" height="2" fill="#869dc7"/>
  <rect x="7" y="14" width="1" height="2" fill="#8c9dbe"/>
  <rect x="8" y="14" width="1" height="1" fill="#feffff"/>
  <rect x="9" y="14" width="1" height="2" fill="#fdffff"/>
  <rect x="10" y="14" width="1" height="1" fill="#fafeff"/>
  <rect x="11" y="14" width="1" height="1" fill="#959bbb"/>
  <rect x="12" y="14" width="1" height="2" fill="#8f98be"/>
  <rect x="13" y="14" width="1" height="2" fill="#8b99c2"/>
  <rect x="14" y="14" width="1" height="1" fill="#8a9ac0"/>
  <rect x="15" y="14" width="1" height="1" fill="#889bc0f5"/>
  <rect x="0" y="15" width="1" height="1" fill="#849ac574"/>
  <rect x="1" y="15" width="1" height="1" fill="#849ac5f6"/>
  <rect x="2" y="15" width="1" height="1" fill="#849ac5"/>
  <rect x="8" y="15" width="1" height="1" fill="#f6ffff"/>
  <rect x="10" y="15" width="1" height="1" fill="#f9fcff"/>
  <rect x="11" y="15" width="1" height="1" fill="#8c92b2"/>
  <rect x="14" y="15" width="1" height="1" fill="#8a9ac0f5"/>
  <rect x="15" y="15" width="1" height="1" fill="#889bc06a"/>
</svg>