<svg xmlns="http://www.w3.org/2000/svg" width="16" height="16" viewBox="0 0 16 16" shape-rendering="crispEdges">
  <rect x="4" y="0" width="1" height="1" fill="#47b6e22a"/>
  <rect x="5" y="0" width="1" height="1" fill="#47b6e28c"/>
  <rect x="6" y="0" width="1" height="1" fill="#47b6e2d6"/>
  <rect x="7" y="0" width="1" height="1" fill="#4bb3e2f8"/>
  <rect x="8" y="0" width="1" height="1" fill="#53b0e0f9"/>
  <rect x="9" y="0" width="1" height="1" fill="#52b0e2d9"/>
  <rect x="10" y="0" width="1" height="1" fill="#45b6e491"/>
  <rect x="11" y="0" width="1" height="1" fill="#42b8e630"/>
  <rect x="3" y="1" width="1" height="1" fill="#47b6e294"/>
  <rect x="4" y="1" width="1" height="1" fill="#47b6e2fb"/>
  <rect x="5" y="1" width="2" height="1" fill="#47b6e2"/>
  <rect x="7" y="1" width="1" height="1" fill="#4ab4e2"/>
  <rect x="8" y="1" width="1" height="1" fill="#4fb2e2"/>
  <rect x="9" y="1" width="1" height="1" fill="#4db3e2"/>
  <rect x="10" y="1" width="1" height="1" fill="#44b7e4"/>
  <rect x="11" y="1" width="1" height="1" fill="#42b8e4fd"/>
  <rect x="12" y="1" width="1" height="1" fill="#47b5e49b"/>
  <rect x="13" y="1" width="1" height="1" fill="#47b6e00b"/>
  <rect x="15" y="1" width="1" height="1" fill="#40bbda"/>
  <rect x="2" y="2" width="1" height="1" fill="#47b6e2bb"/>
  <rect x="3" y="2" width="1" height="1" fill="#47b6e2"/>
  <rect x="4" y="2" width="1" height="1" fill="#47b6e2f9"/>
  <rect x="5" y="2" width="1" height="1" fill="#47b6e296"/>
  <rect x="6" y="2" width="1" height="1" fill="#47b5e43b"/>
  <rect x="7" y="2" width="1" height="1" fill="#47b5e40d"/>
  <rect x="8" y="2" width="1" height="1" fill="#45b6e40b"/>
  <rect x="9" y="2" width="1" height="1" fill="#44b7e437"/>
  <rect x="10" y="2" width="1" height="1" fill="#42b8e491"/>
  <rect x="11" y="2" width="1" height="1" fill="#42b8e4f6"/>
  <rect x="12" y="2" width="1" height="1" fill="#47b5e4"/>
  <rect x="13" y="2" width="1" height="1" fill="#47b5e6c5"/>
  <rect x="14" y="2" width="1" height="1" fill="#42b7e8"/>
  <rect x="15" y="2" width="1" height="1" fill="#3fb9e8"/>
  <rect x="1" y="3" width="1" height="1" fill="#47b6e293"/>
  <rect x="2" y="3" width="1" height="1" fill="#47b6e2"/>
  <rect x="3" y="3" width="1" height="1" fill="#47b6e2e5"/>
  <rect x="4" y="3" width="1" height="1" fill="#47b6e230"/>
  <rect x="11" y="3" width="1" height="1" fill="#44b7e428"/>
  <rect x="12" y="3" width="1" height="1" fill="#45b6e4de"/>
  <rect x="13" y="3" width="1" height="1" fill="#45b6e6"/>
  <rect x="14" y="3" width="1" height="1" fill="#44b6e8"/>
  <rect x="15" y="3" width="1" height="1" fill="#42b7ea"/>
  <rect x="0" y="4" width="1" height="1" fill="#47b6e22a"/>
  <rect x="1" y="4" width="1" height="1" fill="#47b6e2fb"/>
  <rect x="2" y="4" width="1" height="1" fill="#47b6e2f8"/>
  <rect x="3" y="4" width="1" height="1" fill="#47b6e234"/>
  <rect x="12" y="4" width="1" height="1" fill="#44b7e4"/>
  <rect x="13" y="4" width="1" height="1" fill="#44b7e2"/>
  <rect x="14" y="4" width="1" height="1" fill="#47b6e0"/>
  <rect x="15" y="4" width="1" height="1" fill="#48b6de"/>
  <rect x="0" y="5" width="1" height="1" fill="#47b6e28d"/>
  <rect x="1" y="5" width="1" height="6" fill="#47b6e2"/>
  <rect x="2" y="5" width="1" height="1" fill="#47b6e292"/>
  <rect x="11" y="5" width="1" height="1" fill="#45b6e6"/>
  <rect x="12" y="5" width="1" height="1" fill="#44b7e2"/>
  <rect x="13" y="5" width="1" height="1" fill="#4ab6da"/>
  <rect x="14" y="5" width="1" height="1" fill="#57b2ce"/>
  <rect x="15" y="5" width="1" height="1" fill="#5fafc8"/>
  <rect x="0" y="6" width="1" height="1" fill="#47b6e2d6"/>
  <rect x="2" y="6" width="1" height="1" fill="#47b6e236"/>
  <rect x="0" y="7" width="1" height="1" fill="#47b6e2f8"/>
  <rect x="0" y="8" width="1" height="1" fill="#47b6e2f9"/>
  <rect x="0" y="9" width="1" height="1" fill="#47b6e2d9"/>
  <rect x="2" y="9" width="1" height="1" fill="#47b6e233"/>
  <rect x="0" y="10" width="1" height="1" fill="#47b6e292"/>
  <rect x="2" y="10" width="1" height="1" fill="#47b6e28b"/>
  <rect x="13" y="10" width="1" height="1" fill="#47b7da7c"/>
  <rect x="14" y="10" width="1" height="1" fill="#52b3d2"/>
  <rect x="15" y="10" width="1" height="1" fill="#57b2cea0"/>
  <rect x="0" y="11" width="1" height="1" fill="#47b6e230"/>
  <rect x="1" y="11" width="1" height="1" fill="#47b6e2fd"/>
  <rect x="2" y="11" width="1" height="1" fill="#47b6e2f6"/>
  <rect x="3" y="11" width="1" height="1" fill="#47b6e22c"/>
  <rect x="12" y="11" width="1" height="1" fill="#42b9e024"/>
  <rect x="13" y="11" width="1" height="1" fill="#42b9e0f0"/>
  <rect x="14" y="11" width="1" height="1" fill="#42b9e0"/>
  <rect x="15" y="11" width="1" height="1" fill="#42b9e03b"/>
  <rect x="1" y="12" width="1" height="1" fill="#47b6e29d"/>
  <rect x="2" y="12" width="1" height="1" fill="#47b6e2"/>
  <rect x="3" y="12" width="1" height="1" fill="#47b6e2dd"/>
  <rect x="4" y="12" width="1" height="1" fill="#47b6e226"/>
  <rect x="11" y="12" width="1" height="1" fill="#42b9e01f"/>
  <rect x="12" y="12" width="1" height="1" fill="#42b9e0d7"/>
  <rect x="13" y="12" width="1" height="1" fill="#42b9e0"/>
  <rect x="14" y="12" width="1" height="1" fill="#42b9e0aa"/>
  <rect x="1" y="13" width="1" height="1" fill="#47b6e20a"/>
  <rect x="2" y="13" width="1" height="1" fill="#47b6e2c5"/>
  <rect x="3" y="13" width="1" height="1" fill="#47b6e2"/>
  <rect x="4" y="13" width="1" height="1" fill="#47b6e2f6"/>
  <rect x="5" y="13" width="1" height="1" fill="#47b6e287"/>
  <rect x="6" y="13" width="1" height="1" fill="#45b7e22b"/>
  <rect x="9" y="13" width="1" height="1" fill="#45b7e227"/>
  <rect x="10" y="13" width="1" height="1" fill="#44b8e081"/>
  <rect x="11" y="13" width="1" height="1" fill="#42b9e0f3"/>
  <rect x="12" y="13" width="1" height="1" fill="#42b9e0"/>
  <rect x="13" y="13" width="1" height="1" fill="#47b7dcd0"/>
  <rect x="14" y="13" width="1" height="1" fill="#52b3d20f"/>
  <rect x="3" y="14" width="1" height="1" fill="#47b6e29e"/>
  <rect x="4" y="14" width="1" height="1" fill="#47b6e2fe"/>
  <rect x="5" y="14" width="2" height="1" fill="#47b6e2"/>
  <rect x="7" y="14" width="1" height="1" fill="#47b5e4f9"/>
  <rect x="8" y="14" width="1" height="1" fill="#48b3eaf8"/>
  <rect x="9" y="14" width="1" height="1" fill="#48b4e8"/>
  <rect x="10" y="14" width="1" height="1" fill="#45b7e0"/>
  <rect x="11" y="14" width="1" height="1" fill="#44b8de"/>
  <rect x="12" y="14" width="1" height="1" fill="#42b9e0a9"/>
  <rect x="13" y="14" width="1" height="1" fill="#50b4d211"/>
  <rect x="4" y="15" width="1" height="1" fill="#47b6e236"/>
  <rect x="5" y="15" width="1" height="1" fill="#47b6e29b"/>
  <rect x="6" y="15" width="1" height="1" fill="#47b6e2e2"/>
  <rect x="7" y="15" width="1" height="1" fill="#48b4e6fd"/>
  <rect x="8" y="15" width="1" height="1" fill="#4ab2ecfe"/>
  <rect x="9" y="15" width="1" height="1" fill="#4ab2ece4"/>
  <rect x="10" y="15" width="1" height="1" fill="#47b6e29f"/>
  <rect x="11" y="15" width="1" height="1" fill="#44b8de3c"/>
</svg>