<svg xmlns="http://www.w3.org/2000/svg" width="16" height="16" viewBox="0 0 16 16" shape-rendering="crispEdges">
  <rect x="6" y="2" width="1" height="1" fill="#b28741c3"/>
  <rect x="7" y="2" width="1" height="1" fill="#c48d30"/>
  <rect x="8" y="2" width="1" height="1" fill="#ca8d32"/>
  <rect x="9" y="2" width="1" height="1" fill="#b88542c3"/>
  <rect x="6" y="3" width="1" height="1" fill="#c78a36"/>
  <rect x="7" y="3" width="1" height="1" fill="#feb23e"/>
  <rect x="8" y="3" width="1" height="1" fill="#ffb03e"/>
  <rect x="9" y="3" width="1" height="1" fill="#cb8836"/>
  <rect x="6" y="4" width="1" height="1" fill="#c78840"/>
  <rect x="7" y="4" width="2" height="1" fill="#ffae48"/>
  <rect x="9" y="4" width="1" height="1" fill="#cb8640"/>
  <rect x="6" y="5" width="1" height="1" fill="#c68940"/>
  <rect x="7" y="5" width="2" height="1" fill="#ffae4a"/>
  <rect x="9" y="5" width="1" height="1" fill="#c98740"/>
  <rect x="6" y="6" width="1" height="1" fill="#c38c38"/>
  <rect x="7" y="6" width="2" height="1" fill="#fbb242"/>
  <rect x="9" y="6" width="1" height="1" fill="#c68a38"/>
  <rect x="6" y="7" width="1" height="1" fill="#c18e34"/>
  <rect x="7" y="7" width="2" height="1" fill="#fab43e"/>
  <rect x="9" y="7" width="1" height="1" fill="#c38d34"/>
  <rect x="6" y="8" width="1" height="1" fill="#c08a32"/>
  <rect x="7" y="8" width="1" height="1" fill="#fbb540"/>
  <rect x="8" y="8" width="1" height="1" fill="#f9b33b"/>
  <rect x="9" y="8" width="1" height="1" fill="#be8a2e"/>
  <rect x="6" y="9" width="1" height="1" fill="#bf8331c3"/>
  <rect x="7" y="9" width="1" height="1" fill="#d48b1b"/>
  <rect x="8" y="9" width="1" height="1" fill="#d38a18"/>
  <rect x="9" y="9" width="1" height="1" fill="#ba842ec4"/>
  <rect x="6" y="11" width="1" height="1" fill="#c9853fc3"/>
  <rect x="7" y="11" width="1" height="1" fill="#d9831f"/>
  <rect x="8" y="11" width="1" height="1" fill="#d8841f"/>
  <rect x="9" y="11" width="1" height="1" fill="#c5863ec3"/>
  <rect x="6" y="12" width="1" height="1" fill="#c98735"/>
  <rect x="7" y="12" width="1" height="1" fill="#ffaf3d"/>
  <rect x="8" y="12" width="1" height="1" fill="#f8a936"/>
  <rect x="9" y="12" width="1" height="1" fill="#c28430"/>
  <rect x="6" y="13" width="1" height="1" fill="#b4823fc3"/>
  <rect x="7" y="13" width="1" height="1" fill="#c3862b"/>
  <rect x="8" y="13" width="1" height="1" fill="#cf973a"/>
  <rect x="9" y="13" width="1" height="1" fill="#b38842c4"/>
</svg>