<svg xmlns="http://www.w3.org/2000/svg" width="16" height="16" viewBox="0 0 16 16" shape-rendering="crispEdges">
  <rect x="4" y="0" width="1" height="1" fill="#9b7d0086"/>
  <rect x="3" y="1" width="1" height="1" fill="#a9860089"/>
  <rect x="4" y="1" width="1" height="1" fill="#a68300"/>
  <rect x="2" y="2" width="1" height="1" fill="#aa84018b"/>
  <rect x="3" y="2" width="1" height="1" fill="#d1a81d"/>
  <rect x="4" y="2" width="1" height="1" fill="#ae8400"/>
  <rect x="1" y="3" width="1" height="1" fill="#ab86008d"/>
  <rect x="2" y="3" width="1" height="1" fill="#cfaa17"/>
  <rect x="3" y="3" width="1" height="1" fill="#ecc430"/>
  <rect x="4" y="3" width="1" height="1" fill="#cda513"/>
  <rect x="5" y="3" width="1" height="1" fill="#a98200"/>
  <rect x="6" y="3" width="1" height="1" fill="#ab8406"/>
  <rect x="7" y="3" width="1" height="1" fill="#af8d0d"/>
  <rect x="8" y="3" width="1" height="1" fill="#a88c02"/>
  <rect x="9" y="3" width="1" height="1" fill="#998e1ed7"/>
  <rect x="0" y="4" width="1" height="1" fill="#a886008e"/>
  <rect x="1" y="4" width="1" height="1" fill="#c3a510"/>
  <rect x="2" y="4" width="1" height="1" fill="#ecd132"/>
  <rect x="3" y="4" width="1" height="1" fill="#f0d730"/>
  <rect x="4" y="4" width="1" height="1" fill="#f2d930"/>
  <rect x="5" y="4" width="1" height="1" fill="#efd62f"/>
  <rect x="6" y="4" width="1" height="1" fill="#f7da39"/>
  <rect x="7" y="4" width="1" height="1" fill="#ecd134"/>
  <rect x="8" y="4" width="1" height="1" fill="#e9d53c"/>
  <rect x="9" y="4" width="1" height="1" fill="#9d9c14"/>
  <rect x="0" y="5" width="1" height="1" fill="#b293016e"/>
  <rect x="1" y="5" width="1" height="1" fill="#af9400fe"/>
  <rect x="2" y="5" width="1" height="1" fill="#ddc623"/>
  <rect x="3" y="5" width="1" height="1" fill="#edd62e"/>
  <rect x="4" y="5" width="1" height="1" fill="#ead42a"/>
  <rect x="5" y="5" width="1" height="1" fill="#ebd529"/>
  <rect x="6" y="5" width="1" height="1" fill="#efd62d"/>
  <rect x="7" y="5" width="1" height="1" fill="#ead330"/>
  <rect x="8" y="5" width="1" height="1" fill="#ecd73f"/>
  <rect x="9" y="5" width="1" height="1" fill="#979808"/>
  <rect x="10" y="5" width="1" height="1" fill="#729c150e"/>
  <rect x="11" y="5" width="1" height="1" fill="#5c92276c"/>
  <rect x="1" y="6" width="1" height="1" fill="#b498026b"/>
  <rect x="2" y="6" width="1" height="1" fill="#b79700fe"/>
  <rect x="3" y="6" width="1" height="1" fill="#eccb32"/>
  <rect x="4" y="6" width="1" height="1" fill="#d2b219"/>
  <rect x="5" y="6" width="1" height="1" fill="#b29200"/>
  <rect x="6" y="6" width="1" height="1" fill="#b79b08"/>
  <rect x="7" y="6" width="1" height="1" fill="#b59a0a"/>
  <rect x="8" y="6" width="1" height="1" fill="#b1980a"/>
  <rect x="9" y="6" width="1" height="1" fill="#a29f15da"/>
  <rect x="10" y="6" width="1" height="1" fill="#6c96110f"/>
  <rect x="11" y="6" width="1" height="1" fill="#529417fe"/>
  <rect x="12" y="6" width="1" height="1" fill="#569a2c6f"/>
  <rect x="2" y="7" width="1" height="1" fill="#c09b1368"/>
  <rect x="3" y="7" width="1" height="1" fill="#c29a08fe"/>
  <rect x="4" y="7" width="1" height="1" fill="#be970a"/>
  <rect x="7" y="7" width="1" height="1" fill="#7e7a0011"/>
  <rect x="8" y="7" width="1" height="1" fill="#817b0011"/>
  <rect x="9" y="7" width="1" height="1" fill="#6f7c0011"/>
  <rect x="10" y="7" width="1" height="1" fill="#5d8e071f"/>
  <rect x="11" y="7" width="1" height="1" fill="#539e15"/>
  <rect x="12" y="7" width="1" height="1" fill="#499d14"/>
  <rect x="13" y="7" width="1" height="1" fill="#539c2872"/>
  <rect x="3" y="8" width="1" height="1" fill="#c7960c66"/>
  <rect x="4" y="8" width="1" height="1" fill="#bf960efe"/>
  <rect x="6" y="8" width="1" height="1" fill="#6e8507de"/>
  <rect x="7" y="8" width="1" height="1" fill="#649012"/>
  <rect x="8" y="8" width="1" height="1" fill="#618c03"/>
  <rect x="9" y="8" width="1" height="1" fill="#5d8f01"/>
  <rect x="10" y="8" width="1" height="1" fill="#569a0d"/>
  <rect x="11" y="8" width="1" height="1" fill="#69b728"/>
  <rect x="12" y="8" width="1" height="1" fill="#71c432"/>
  <rect x="13" y="8" width="1" height="1" fill="#60ab22"/>
  <rect x="14" y="8" width="1" height="1" fill="#518d1975"/>
  <rect x="4" y="9" width="1" height="1" fill="#ba9b3664"/>
  <rect x="6" y="9" width="1" height="1" fill="#537e0b"/>
  <rect x="7" y="9" width="1" height="1" fill="#88c94f"/>
  <rect x="8" y="9" width="1" height="1" fill="#91cf4b"/>
  <rect x="9" y="9" width="1" height="1" fill="#94d34c"/>
  <rect x="10" y="9" width="1" height="1" fill="#85cd43"/>
  <rect x="11" y="9" width="1" height="1" fill="#85d143"/>
  <rect x="12" y="9" width="1" height="1" fill="#81cd38"/>
  <rect x="13" y="9" width="1" height="1" fill="#86d03c"/>
  <rect x="14" y="9" width="1" height="1" fill="#66a51e"/>
  <rect x="15" y="9" width="1" height="1" fill="#4b840378"/>
  <rect x="6" y="10" width="1" height="1" fill="#4d7c1a"/>
  <rect x="7" y="10" width="1" height="1" fill="#8ecd54"/>
  <rect x="8" y="10" width="1" height="1" fill="#91c74e"/>
  <rect x="9" y="10" width="1" height="1" fill="#94cb50"/>
  <rect x="10" y="10" width="1" height="1" fill="#85c448"/>
  <rect x="11" y="10" width="1" height="1" fill="#87c948"/>
  <rect x="12" y="10" width="1" height="1" fill="#87cc3c"/>
  <rect x="13" y="10" width="1" height="1" fill="#84c637"/>
  <rect x="14" y="10" width="1" height="1" fill="#639921"/>
  <rect x="15" y="10" width="1" height="1" fill="#4f7f1174"/>
  <rect x="6" y="11" width="1" height="1" fill="#466f28da"/>
  <rect x="7" y="11" width="1" height="1" fill="#447519"/>
  <rect x="8" y="11" width="1" height="1" fill="#487118"/>
  <rect x="9" y="11" width="1" height="1" fill="#487214"/>
  <rect x="10" y="11" width="1" height="1" fill="#497c14"/>
  <rect x="11" y="11" width="1" height="1" fill="#609a25"/>
  <rect x="12" y="11" width="1" height="1" fill="#80bc38"/>
  <rect x="13" y="11" width="1" height="1" fill="#5b9116"/>
  <rect x="14" y="11" width="1" height="1" fill="#49731772"/>
  <rect x="10" y="12" width="1" height="1" fill="#456a1c0f"/>
  <rect x="11" y="12" width="1" height="1" fill="#43700f"/>
  <rect x="12" y="12" width="1" height="1" fill="#3a6900fe"/>
  <rect x="13" y="12" width="1" height="1" fill="#3f660e6e"/>
  <rect x="10" y="13" width="1" height="1" fill="#3a57190f"/>
  <rect x="11" y="13" width="1" height="1" fill="#426515fe"/>
  <rect x="12" y="13" width="1" height="1" fill="#4064166c"/>
  <rect x="10" y="14" width="1" height="1" fill="#3e521e0e"/>
  <rect x="11" y="14" width="1" height="1" fill="#3d571869"/>
</svg>