<svg xmlns="http://www.w3.org/2000/svg" width="22" height="10" viewBox="0 0 22 10" shape-rendering="crispEdges">
  <rect x="1" y="0" width="2" height="1" fill="#b8bec3"/>
  <rect x="8" y="0" width="1" height="1" fill="#b8bec3"/>
  <rect x="9" y="0" width="1" height="1" fill="#b2b8bd"/>
  <rect x="12" y="0" width="1" height="1" fill="#70767a"/>
  <rect x="13" y="0" width="1" height="1" fill="#747a7f"/>
  <rect x="19" y="0" width="1" height="1" fill="#76787a"/>
  <rect x="20" y="0" width="1" height="2" fill="#75797a"/>
  <rect x="1" y="1" width="3" height="1" fill="#b8bec3"/>
  <rect x="7" y="1" width="1" height="1" fill="#b8bec3"/>
  <rect x="8" y="1" width="2" height="1" fill="#bac0c5"/>
  <rect x="12" y="1" width="1" height="1" fill="#747a7f"/>
  <rect x="13" y="1" width="1" height="1" fill="#71777c"/>
  <rect x="14" y="1" width="1" height="1" fill="#686e72"/>
  <rect x="18" y="1" width="2" height="1" fill="#76787a"/>
  <rect x="2" y="2" width="3" height="1" fill="#b8bec3"/>
  <rect x="6" y="2" width="2" height="1" fill="#b8bec3"/>
  <rect x="8" y="2" width="1" height="1" fill="#b9bfc4"/>
  <rect x="13" y="2" width="1" height="1" fill="#686e72"/>
  <rect x="14" y="2" width="1" height="1" fill="#71777c"/>
  <rect x="15" y="2" width="1" height="1" fill="#747a7f"/>
  <rect x="17" y="2" width="3" height="1" fill="#75797a"/>
  <rect x="3" y="3" width="5" height="1" fill="#b8bec3"/>
  <rect x="14" y="3" width="1" height="1" fill="#747a7f"/>
  <rect x="15" y="3" width="1" height="1" fill="#70767a"/>
  <rect x="16" y="3" width="1" height="2" fill="#737a7c"/>
  <rect x="17" y="3" width="1" height="2" fill="#737a7a"/>
  <rect x="18" y="3" width="1" height="1" fill="#75797a"/>
  <rect x="4" y="4" width="3" height="1" fill="#b8bec3"/>
  <rect x="15" y="4" width="1" height="1" fill="#747a7f"/>
  <rect x="3" y="5" width="5" height="1" fill="#b8bec3"/>
  <rect x="14" y="5" width="1" height="1" fill="#747a7f"/>
  <rect x="15" y="5" width="1" height="1" fill="#72787b"/>
  <rect x="16" y="5" width="3" height="1" fill="#75797a"/>
  <rect x="2" y="6" width="3" height="1" fill="#b8bec3"/>
  <rect x="6" y="6" width="2" height="1" fill="#b8bec3"/>
  <rect x="8" y="6" width="1" height="1" fill="#b8bec1"/>
  <rect x="13" y="6" width="1" height="1" fill="#747b7d"/>
  <rect x="14" y="6" width="1" height="1" fill="#7c8385"/>
  <rect x="15" y="6" width="1" height="1" fill="#74787b"/>
  <rect x="17" y="6" width="3" height="1" fill="#76787a"/>
  <rect x="1" y="7" width="3" height="1" fill="#b8bec3"/>
  <rect x="7" y="7" width="1" height="1" fill="#b8bec3"/>
  <rect x="8" y="7" width="1" height="1" fill="#c6cccf"/>
  <rect x="9" y="7" width="1" height="1" fill="#b9bfc2"/>
  <rect x="12" y="7" width="1" height="1" fill="#747b7d"/>
  <rect x="13" y="7" width="2" height="1" fill="#72787b"/>
  <rect x="18" y="7" width="1" height="1" fill="#76787a"/>
  <rect x="19" y="7" width="2" height="1" fill="#75797a"/>
  <rect x="1" y="8" width="2" height="1" fill="#b8bec3"/>
  <rect x="8" y="8" width="1" height="1" fill="#bac1c3"/>
  <rect x="9" y="8" width="1" height="1" fill="#b1b7ba"/>
  <rect x="12" y="8" width="1" height="1" fill="#747b7b"/>
  <rect x="13" y="8" width="1" height="1" fill="#7f8686"/>
  <rect x="19" y="8" width="1" height="1" fill="#75797c"/>
  <rect x="20" y="8" width="1" height="1" fill="#737a7c"/>
</svg>