<svg xmlns="http://www.w3.org/2000/svg" width="16" height="16" viewBox="0 0 16 16" shape-rendering="crispEdges">
  <rect x="11" y="3" width="1" height="1" fill="#5fa02676"/>
  <rect x="12" y="3" width="1" height="1" fill="#63a123ba"/>
  <rect x="13" y="3" width="1" height="1" fill="#6b99371e"/>
  <rect x="10" y="4" width="1" height="1" fill="#519a198e"/>
  <rect x="11" y="4" width="1" height="1" fill="#68b529"/>
  <rect x="12" y="4" width="1" height="1" fill="#6cb52a"/>
  <rect x="13" y="4" width="1" height="1" fill="#5d922ccf"/>
  <rect x="9" y="5" width="1" height="1" fill="#529a179d"/>
  <rect x="10" y="5" width="1" height="1" fill="#61b125"/>
  <rect x="11" y="5" width="1" height="1" fill="#81d142"/>
  <rect x="12" y="5" width="1" height="1" fill="#67ad23"/>
  <rect x="13" y="5" width="1" height="1" fill="#538620aa"/>
  <rect x="2" y="6" width="1" height="1" fill="#59783b32"/>
  <rect x="3" y="6" width="1" height="1" fill="#678937e0"/>
  <rect x="4" y="6" width="1" height="1" fill="#5c7f219d"/>
  <rect x="8" y="6" width="1" height="1" fill="#4e911bab"/>
  <rect x="9" y="6" width="1" height="1" fill="#60ab29"/>
  <rect x="10" y="6" width="1" height="1" fill="#85ce4f"/>
  <rect x="11" y="6" width="1" height="1" fill="#69ad30"/>
  <rect x="12" y="6" width="1" height="1" fill="#508b0caa"/>
  <rect x="2" y="7" width="1" height="1" fill="#4e7425da"/>
  <rect x="3" y="7" width="1" height="1" fill="#7aa73a"/>
  <rect x="4" y="7" width="1" height="1" fill="#629418"/>
  <rect x="5" y="7" width="1" height="1" fill="#588d0ea9"/>
  <rect x="6" y="7" width="1" height="1" fill="#5281120e"/>
  <rect x="7" y="7" width="1" height="1" fill="#4c8213b8"/>
  <rect x="8" y="7" width="1" height="1" fill="#62a82a"/>
  <rect x="9" y="7" width="1" height="1" fill="#7dc647"/>
  <rect x="10" y="7" width="1" height="1" fill="#68a934"/>
  <rect x="11" y="7" width="1" height="1" fill="#50881c9c"/>
  <rect x="2" y="8" width="1" height="1" fill="#5271208d"/>
  <rect x="3" y="8" width="1" height="1" fill="#70a030"/>
  <rect x="4" y="8" width="1" height="1" fill="#93cd49"/>
  <rect x="5" y="8" width="1" height="1" fill="#6ba81f"/>
  <rect x="6" y="8" width="1" height="1" fill="#478100ef"/>
  <rect x="7" y="8" width="1" height="1" fill="#639e1d"/>
  <rect x="8" y="8" width="1" height="1" fill="#84c745"/>
  <rect x="9" y="8" width="1" height="1" fill="#5b9a1e"/>
  <rect x="10" y="8" width="1" height="1" fill="#447a0a8c"/>
  <rect x="3" y="9" width="1" height="1" fill="#49731591"/>
  <rect x="4" y="9" width="1" height="1" fill="#5b911b"/>
  <rect x="5" y="9" width="1" height="1" fill="#8ac643"/>
  <rect x="6" y="9" width="1" height="1" fill="#8ec845"/>
  <rect x="7" y="9" width="1" height="1" fill="#85be3e"/>
  <rect x="8" y="9" width="1" height="1" fill="#609b21"/>
  <rect x="9" y="9" width="1" height="1" fill="#42780d7d"/>
  <rect x="4" y="10" width="1" height="1" fill="#3d67108b"/>
  <rect x="5" y="10" width="1" height="1" fill="#5d8e23"/>
  <rect x="6" y="10" width="1" height="1" fill="#7fb23c"/>
  <rect x="7" y="10" width="1" height="1" fill="#3f7100fe"/>
  <rect x="8" y="10" width="1" height="1" fill="#3868016d"/>
  <rect x="5" y="11" width="1" height="1" fill="#3b5e128f"/>
  <rect x="6" y="11" width="1" height="1" fill="#3f670af8"/>
  <rect x="7" y="11" width="1" height="1" fill="#3c65075e"/>
</svg>