<svg xmlns="http://www.w3.org/2000/svg" width="16" height="16" viewBox="0 0 16 16" shape-rendering="crispEdges">
  <rect x="5" y="2" width="1" height="1" fill="#629532c3"/>
  <rect x="6" y="2" width="1" height="1" fill="#5e9020"/>
  <rect x="7" y="2" width="1" height="1" fill="#60911a"/>
  <rect x="8" y="2" width="1" height="1" fill="#65991d"/>
  <rect x="9" y="2" width="1" height="1" fill="#63961e"/>
  <rect x="10" y="2" width="1" height="1" fill="#63972dc3"/>
  <rect x="5" y="3" width="1" height="1" fill="#589d18"/>
  <rect x="6" y="3" width="1" height="1" fill="#83cb35"/>
  <rect x="7" y="3" width="1" height="1" fill="#87d132"/>
  <rect x="8" y="3" width="1" height="1" fill="#89d633"/>
  <rect x="9" y="3" width="1" height="1" fill="#82ce30"/>
  <rect x="10" y="3" width="1" height="1" fill="#549b0f"/>
  <rect x="5" y="4" width="1" height="1" fill="#4c9813"/>
  <rect x="6" y="4" width="1" height="1" fill="#81d23e"/>
  <rect x="7" y="4" width="1" height="1" fill="#81d537"/>
  <rect x="8" y="4" width="1" height="1" fill="#7fd534"/>
  <rect x="9" y="4" width="1" height="1" fill="#80d237"/>
  <rect x="10" y="4" width="1" height="1" fill="#49970b"/>
  <rect x="5" y="5" width="1" height="1" fill="#4c9719"/>
  <rect x="6" y="5" width="1" height="1" fill="#81d240"/>
  <rect x="7" y="5" width="1" height="1" fill="#82d439"/>
  <rect x="8" y="5" width="1" height="1" fill="#81d336"/>
  <rect x="9" y="5" width="1" height="1" fill="#80d13b"/>
  <rect x="10" y="5" width="1" height="1" fill="#499513"/>
  <rect x="5" y="6" width="1" height="1" fill="#529223"/>
  <rect x="6" y="6" width="1" height="1" fill="#89cc46"/>
  <rect x="7" y="6" width="1" height="1" fill="#8ad03b"/>
  <rect x="8" y="6" width="1" height="1" fill="#89cf36"/>
  <rect x="9" y="6" width="1" height="1" fill="#88cc3f"/>
  <rect x="10" y="6" width="1" height="1" fill="#50901d"/>
  <rect x="5" y="7" width="1" height="1" fill="#549121"/>
  <rect x="6" y="7" width="1" height="1" fill="#8bcc44"/>
  <rect x="7" y="7" width="1" height="1" fill="#8ccf3b"/>
  <rect x="8" y="7" width="1" height="1" fill="#8bce38"/>
  <rect x="9" y="7" width="1" height="1" fill="#89cb41"/>
  <rect x="10" y="7" width="1" height="1" fill="#51901b"/>
  <rect x="2" y="8" width="1" height="1" fill="#5d6c3780"/>
  <rect x="3" y="8" width="1" height="1" fill="#51741d"/>
  <rect x="4" y="8" width="1" height="1" fill="#4d8410"/>
  <rect x="5" y="8" width="1" height="1" fill="#60a41d"/>
  <rect x="6" y="8" width="1" height="1" fill="#8dd444"/>
  <rect x="7" y="8" width="1" height="1" fill="#85cd38"/>
  <rect x="8" y="8" width="1" height="1" fill="#8bd13c"/>
  <rect x="9" y="8" width="1" height="1" fill="#88cd3d"/>
  <rect x="10" y="8" width="1" height="1" fill="#67aa26"/>
  <rect x="11" y="8" width="1" height="1" fill="#4a8411"/>
  <rect x="12" y="8" width="1" height="1" fill="#4d7720"/>
  <rect x="13" y="8" width="1" height="1" fill="#5b713c80"/>
  <rect x="3" y="9" width="1" height="1" fill="#53761d80"/>
  <rect x="4" y="9" width="1" height="1" fill="#6a9d25"/>
  <rect x="5" y="9" width="1" height="1" fill="#7ebd34"/>
  <rect x="6" y="9" width="1" height="1" fill="#88d03d"/>
  <rect x="7" y="9" width="1" height="1" fill="#83ce38"/>
  <rect x="8" y="9" width="1" height="1" fill="#88d03d"/>
  <rect x="9" y="9" width="1" height="1" fill="#87cb3e"/>
  <rect x="10" y="9" width="1" height="1" fill="#80c13c"/>
  <rect x="11" y="9" width="1" height="1" fill="#679e29"/>
  <rect x="12" y="9" width="1" height="1" fill="#456f1880"/>
  <rect x="4" y="10" width="1" height="1" fill="#496d0d80"/>
  <rect x="5" y="10" width="1" height="1" fill="#65991d"/>
  <rect x="6" y="10" width="1" height="1" fill="#7ec337"/>
  <rect x="7" y="10" width="1" height="1" fill="#88d240"/>
  <rect x="8" y="10" width="1" height="1" fill="#8cd345"/>
  <rect x="9" y="10" width="1" height="1" fill="#80c13c"/>
  <rect x="10" y="10" width="1" height="1" fill="#639923"/>
  <rect x="11" y="10" width="1" height="1" fill="#476f1480"/>
  <rect x="5" y="11" width="1" height="1" fill="#3e670580"/>
  <rect x="6" y="11" width="1" height="1" fill="#5a951b"/>
  <rect x="7" y="11" width="1" height="1" fill="#84c743"/>
  <rect x="8" y="11" width="1" height="1" fill="#87c747"/>
  <rect x="9" y="11" width="1" height="1" fill="#619824"/>
  <rect x="10" y="11" width="1" height="1" fill="#3a620780"/>
  <rect x="6" y="12" width="1" height="1" fill="#436f1380"/>
  <rect x="7" y="12" width="1" height="1" fill="#5e9527"/>
  <rect x="8" y="12" width="1" height="1" fill="#63972d"/>
  <rect x="9" y="12" width="1" height="1" fill="#426b1480"/>
  <rect x="7" y="13" width="1" height="1" fill="#42641d80"/>
  <rect x="8" y="13" width="1" height="1" fill="#405f1c80"/>
</svg>