<svg xmlns="http://www.w3.org/2000/svg" width="30" height="30" viewBox="0 0 30 30" shape-rendering="crispEdges">
  <rect x="5" y="2" width="1" height="1" fill="#25252512"/>
  <rect x="6" y="2" width="1" height="1" fill="#1d1d1d26"/>
  <rect x="7" y="2" width="1" height="1" fill="#1e1e1e31"/>
  <rect x="8" y="2" width="3" height="1" fill="#1f1f1f33"/>
  <rect x="11" y="2" width="1" height="1" fill="#1f1f1f31"/>
  <rect x="12" y="2" width="1" height="1" fill="#23232326"/>
  <rect x="13" y="2" width="1" height="1" fill="#23232312"/>
  <rect x="4" y="3" width="1" height="1" fill="#2626261f"/>
  <rect x="5" y="3" width="1" height="1" fill="#8888884c"/>
  <rect x="6" y="3" width="1" height="1" fill="#e2e2e2a5"/>
  <rect x="7" y="3" width="1" height="1" fill="#ffffffd3"/>
  <rect x="8" y="3" width="3" height="1" fill="#ffffffdc"/>
  <rect x="11" y="3" width="1" height="1" fill="#ffffffd3"/>
  <rect x="12" y="3" width="1" height="1" fill="#e8e8e8a5"/>
  <rect x="13" y="3" width="1" height="1" fill="#7b7b7b4c"/>
  <rect x="14" y="3" width="1" height="1" fill="#2828281f"/>
  <rect x="3" y="4" width="1" height="1" fill="#1f1f1f15"/>
  <rect x="4" y="4" width="1" height="1" fill="#8888884d"/>
  <rect x="5" y="4" width="1" height="1" fill="#ffffffcd"/>
  <rect x="6" y="4" width="1" height="1" fill="#f7f7f7c4"/>
  <rect x="7" y="4" width="1" height="1" fill="#f9f9f9bb"/>
  <rect x="8" y="4" width="3" height="2" fill="#fefefeb9"/>
  <rect x="11" y="4" width="1" height="1" fill="#fefefebb"/>
  <rect x="12" y="4" width="1" height="1" fill="#ffffffc4"/>
  <rect x="13" y="4" width="1" height="1" fill="#fafafacd"/>
  <rect x="14" y="4" width="1" height="1" fill="#8282824d"/>
  <rect x="15" y="4" width="1" height="1" fill="#2e303233"/>
  <rect x="16" y="4" width="1" height="1" fill="#1d232833"/>
  <rect x="17" y="4" width="2" height="1" fill="#1d232a33"/>
  <rect x="19" y="4" width="1" height="1" fill="#1d232a31"/>
  <rect x="20" y="4" width="1" height="1" fill="#1f252c26"/>
  <rect x="21" y="4" width="1" height="1" fill="#20262d12"/>
  <rect x="3" y="5" width="1" height="1" fill="#1f1f1f29"/>
  <rect x="4" y="5" width="1" height="1" fill="#e8e8e8a2"/>
  <rect x="5" y="5" width="1" height="1" fill="#fefefebb"/>
  <rect x="6" y="5" width="1" height="1" fill="#f8f8f8b9"/>
  <rect x="7" y="5" width="1" height="1" fill="#ffffffb9"/>
  <rect x="11" y="5" width="2" height="1" fill="#fdfdfdb9"/>
  <rect x="13" y="5" width="1" height="1" fill="#ffffffbb"/>
  <rect x="14" y="5" width="1" height="1" fill="#f9f9f9d7"/>
  <rect x="15" y="5" width="1" height="1" fill="#f7f7f7dc"/>
  <rect x="16" y="5" width="3" height="1" fill="#ffffffdc"/>
  <rect x="19" y="5" width="1" height="1" fill="#ffffffd3"/>
  <rect x="20" y="5" width="1" height="1" fill="#ecececa5"/>
  <rect x="21" y="5" width="1" height="1" fill="#7d7d7d4c"/>
  <rect x="22" y="5" width="1" height="1" fill="#1f1f1f1f"/>
  <rect x="3" y="6" width="1" height="1" fill="#1f1f1f32"/>
  <rect x="4" y="6" width="1" height="1" fill="#ffffffbc"/>
  <rect x="5" y="6" width="3" height="1" fill="#ffffffb9"/>
  <rect x="8" y="6" width="4" height="1" fill="#fefefeb9"/>
  <rect x="12" y="6" width="1" height="1" fill="#fdfdfdb9"/>
  <rect x="13" y="6" width="1" height="1" fill="#f9f9f9b9"/>
  <rect x="14" y="6" width="2" height="1" fill="#ffffffb9"/>
  <rect x="16" y="6" width="3" height="1" fill="#fefcfdb9"/>
  <rect x="19" y="6" width="1" height="1" fill="#fefcfdbb"/>
  <rect x="20" y="6" width="1" height="1" fill="#fffdfec4"/>
  <rect x="21" y="6" width="1" height="1" fill="#fdfbfccd"/>
  <rect x="22" y="6" width="1" height="1" fill="#7e7c7d4d"/>
  <rect x="23" y="6" width="1" height="1" fill="#20262d15"/>
  <rect x="2" y="7" width="1" height="1" fill="#3030300d"/>
  <rect x="3" y="7" width="1" height="8" fill="#1f1f1f33"/>
  <rect x="4" y="7" width="1" height="1" fill="#ffffffbb"/>
  <rect x="5" y="7" width="1" height="1" fill="#fefefeb9"/>
  <rect x="6" y="7" width="1" height="1" fill="#f8f8f8b9"/>
  <rect x="7" y="7" width="1" height="1" fill="#ffffffb9"/>
  <rect x="8" y="7" width="3" height="1" fill="#fefefeb9"/>
  <rect x="11" y="7" width="2" height="1" fill="#fcfbfcb9"/>
  <rect x="13" y="7" width="1" height="1" fill="#ffffffb9"/>
  <rect x="14" y="7" width="1" height="1" fill="#fcfbfcb9"/>
  <rect x="15" y="7" width="5" height="1" fill="#ffffffb9"/>
  <rect x="20" y="7" width="1" height="1" fill="#fdfbfcb9"/>
  <rect x="21" y="7" width="1" height="1" fill="#fffeffbb"/>
  <rect x="22" y="7" width="1" height="1" fill="#edeaeba2"/>
  <rect x="23" y="7" width="1" height="1" fill="#21252a28"/>
  <rect x="2" y="8" width="1" height="7" fill="#3131310f"/>
  <rect x="4" y="8" width="2" height="1" fill="#fefefeb9"/>
  <rect x="6" y="8" width="3" height="1" fill="#ffffffb9"/>
  <rect x="9" y="8" width="1" height="1" fill="#fefefeb9"/>
  <rect x="10" y="8" width="1" height="1" fill="#f1f1f196"/>
  <rect x="11" y="8" width="1" height="1" fill="#8888884f"/>
  <rect x="12" y="8" width="1" height="1" fill="#2f2d2b36"/>
  <rect x="13" y="8" width="1" height="1" fill="#2a282733"/>
  <rect x="14" y="8" width="1" height="1" fill="#2c292833"/>
  <rect x="15" y="8" width="1" height="1" fill="#27252333"/>
  <rect x="16" y="8" width="4" height="1" fill="#25222133"/>
  <rect x="20" y="8" width="1" height="1" fill="#26222133"/>
  <rect x="21" y="8" width="1" height="1" fill="#25212033"/>
  <rect x="22" y="8" width="1" height="1" fill="#26222133"/>
  <rect x="23" y="8" width="1" height="1" fill="#2828282b"/>
  <rect x="24" y="8" width="1" height="1" fill="#242a2f15"/>
  <rect x="4" y="9" width="1" height="1" fill="#fefefeb9"/>
  <rect x="5" y="9" width="2" height="1" fill="#ffffffb9"/>
  <rect x="7" y="9" width="1" height="1" fill="#fefefeb9"/>
  <rect x="8" y="9" width="1" height="1" fill="#fdfdfdb9"/>
  <rect x="9" y="9" width="1" height="1" fill="#ececec9e"/>
  <rect x="10" y="9" width="1" height="1" fill="#5555553c"/>
  <rect x="11" y="9" width="1" height="1" fill="#e2e2e294"/>
  <rect x="12" y="9" width="1" height="1" fill="#ffffffd1"/>
  <rect x="13" y="9" width="1" height="1" fill="#fefcfbdc"/>
  <rect x="14" y="9" width="1" height="1" fill="#fffdfcdc"/>
  <rect x="15" y="9" width="1" height="1" fill="#fbf9f7dc"/>
  <rect x="16" y="9" width="4" height="1" fill="#fffdfcdc"/>
  <rect x="20" y="9" width="2" height="1" fill="#fffffedc"/>
  <rect x="22" y="9" width="1" height="1" fill="#f9f4f4d3"/>
  <rect x="23" y="9" width="1" height="1" fill="#e9e7e6a5"/>
  <rect x="24" y="9" width="1" height="1" fill="#7f7f7f4c"/>
  <rect x="25" y="9" width="1" height="1" fill="#1b21251f"/>
  <rect x="4" y="10" width="2" height="3" fill="#ffffffb9"/>
  <rect x="6" y="10" width="2" height="1" fill="#fefefeb9"/>
  <rect x="8" y="10" width="1" height="1" fill="#ffffffb8"/>
  <rect x="9" y="10" width="1" height="1" fill="#8585854d"/>
  <rect x="10" y="10" width="1" height="1" fill="#dadadaa1"/>
  <rect x="11" y="10" width="1" height="1" fill="#ffffffc7"/>
  <rect x="12" y="10" width="1" height="1" fill="#ffffffbb"/>
  <rect x="13" y="10" width="1" height="1" fill="#fcfbfcb9"/>
  <rect x="14" y="10" width="1" height="1" fill="#fdfdfdb9"/>
  <rect x="15" y="10" width="1" height="1" fill="#f8f8f8b9"/>
  <rect x="16" y="10" width="5" height="1" fill="#ffffffb9"/>
  <rect x="21" y="10" width="1" height="1" fill="#fefcfdb9"/>
  <rect x="22" y="10" width="1" height="1" fill="#fdfbfcbb"/>
  <rect x="23" y="10" width="1" height="1" fill="#ffffffc4"/>
  <rect x="24" y="10" width="1" height="1" fill="#fdffffcd"/>
  <rect x="25" y="10" width="1" height="1" fill="#797f824d"/>
  <rect x="26" y="10" width="1" height="1" fill="#1e2a3615"/>
  <rect x="6" y="11" width="1" height="2" fill="#fdfdfdb9"/>
  <rect x="7" y="11" width="1" height="1" fill="#fefefeb9"/>
  <rect x="8" y="11" width="1" height="1" fill="#e3e3e38c"/>
  <rect x="9" y="11" width="1" height="1" fill="#ababab60"/>
  <rect x="10" y="11" width="1" height="1" fill="#ffffffc5"/>
  <rect x="11" y="11" width="2" height="1" fill="#ffffffb9"/>
  <rect x="13" y="11" width="1" height="1" fill="#fdfdfdb9"/>
  <rect x="14" y="11" width="1" height="1" fill="#fefefeb9"/>
  <rect x="15" y="11" width="1" height="1" fill="#f9f9f9b9"/>
  <rect x="16" y="11" width="4" height="1" fill="#fefefeb9"/>
  <rect x="20" y="11" width="3" height="1" fill="#ffffffb9"/>
  <rect x="23" y="11" width="1" height="1" fill="#fdffffb9"/>
  <rect x="24" y="11" width="1" height="1" fill="#ffffffbb"/>
  <rect x="25" y="11" width="1" height="1" fill="#e5ececa2"/>
  <rect x="26" y="11" width="1" height="1" fill="#15212a29"/>
  <rect x="7" y="12" width="1" height="1" fill="#ffffffb9"/>
  <rect x="8" y="12" width="1" height="1" fill="#9a9a9a54"/>
  <rect x="9" y="12" width="1" height="1" fill="#f8f8f8ad"/>
  <rect x="10" y="12" width="1" height="1" fill="#fefefeb9"/>
  <rect x="11" y="12" width="3" height="1" fill="#ffffffb9"/>
  <rect x="14" y="12" width="1" height="1" fill="#f9fbfcb9"/>
  <rect x="15" y="12" width="1" height="1" fill="#f1f3f4b9"/>
  <rect x="16" y="12" width="1" height="1" fill="#ffffffb9"/>
  <rect x="17" y="12" width="1" height="1" fill="#fdffffb9"/>
  <rect x="18" y="12" width="1" height="1" fill="#cdcfd076"/>
  <rect x="19" y="12" width="3" height="1" fill="#ffffffb9"/>
  <rect x="22" y="12" width="1" height="1" fill="#fcfeffb9"/>
  <rect x="23" y="12" width="1" height="1" fill="#ffffffb9"/>
  <rect x="24" y="12" width="1" height="1" fill="#fbfefbb9"/>
  <rect x="25" y="12" width="1" height="1" fill="#f3faf8bd"/>
  <rect x="26" y="12" width="1" height="1" fill="#14202533"/>
  <rect x="4" y="13" width="1" height="1" fill="#fdfdfdb9"/>
  <rect x="5" y="13" width="1" height="1" fill="#fcfbfcb9"/>
  <rect x="6" y="13" width="1" height="2" fill="#ffffffb9"/>
  <rect x="7" y="13" width="1" height="1" fill="#fafafaae"/>
  <rect x="8" y="13" width="1" height="1" fill="#8080804b"/>
  <rect x="9" y="13" width="1" height="1" fill="#fdfdfdc2"/>
  <rect x="10" y="13" width="1" height="1" fill="#f7f7f7b9"/>
  <rect x="11" y="13" width="1" height="1" fill="#ffffffb9"/>
  <rect x="12" y="13" width="1" height="1" fill="#fcfeffb9"/>
  <rect x="13" y="13" width="1" height="1" fill="#ffffffb9"/>
  <rect x="14" y="13" width="1" height="1" fill="#fafcfeb9"/>
  <rect x="15" y="13" width="1" height="1" fill="#ffffffb9"/>
  <rect x="16" y="13" width="2" height="1" fill="#f9fbfcb9"/>
  <rect x="18" y="13" width="1" height="1" fill="#26282a33"/>
  <rect x="19" y="13" width="1" height="1" fill="#ced2d676"/>
  <rect x="20" y="13" width="1" height="1" fill="#fdffffb9"/>
  <rect x="21" y="13" width="1" height="1" fill="#fcffffb9"/>
  <rect x="22" y="13" width="2" height="1" fill="#f9feffb9"/>
  <rect x="24" y="13" width="1" height="1" fill="#fffffdb9"/>
  <rect x="25" y="13" width="1" height="1" fill="#f7fef9bb"/>
  <rect x="26" y="13" width="1" height="1" fill="#18252a33"/>
  <rect x="27" y="13" width="1" height="1" fill="#2335410d"/>
  <rect x="4" y="14" width="1" height="1" fill="#ffffffb9"/>
  <rect x="5" y="14" width="1" height="1" fill="#fafafab9"/>
  <rect x="7" y="14" width="1" height="1" fill="#e1e1e18d"/>
  <rect x="8" y="14" width="1" height="1" fill="#cfcfcf7a"/>
  <rect x="9" y="14" width="1" height="1" fill="#fcfbfcb9"/>
  <rect x="10" y="14" width="3" height="1" fill="#ffffffb9"/>
  <rect x="13" y="14" width="1" height="1" fill="#1d1f2033"/>
  <rect x="14" y="14" width="1" height="1" fill="#161a1e33"/>
  <rect x="15" y="14" width="2" height="1" fill="#1d212533"/>
  <rect x="17" y="14" width="1" height="1" fill="#191d2033"/>
  <rect x="18" y="14" width="1" height="1" fill="#2226293a"/>
  <rect x="19" y="14" width="1" height="1" fill="#23292e3f"/>
  <rect x="20" y="14" width="1" height="1" fill="#c5cbcf76"/>
  <rect x="21" y="14" width="1" height="1" fill="#fbffffb9"/>
  <rect x="22" y="14" width="1" height="1" fill="#f7fdffb9"/>
  <rect x="23" y="14" width="1" height="1" fill="#faffffb9"/>
  <rect x="24" y="14" width="1" height="1" fill="#fcfffbb9"/>
  <rect x="25" y="14" width="1" height="1" fill="#f6fdf8b9"/>
  <rect x="26" y="14" width="1" height="1" fill="#16232533"/>
  <rect x="27" y="14" width="1" height="1" fill="#20333d0f"/>
  <rect x="2" y="15" width="1" height="1" fill="#2f31330f"/>
  <rect x="3" y="15" width="1" height="1" fill="#1e202133"/>
  <rect x="4" y="15" width="3" height="1" fill="#ffffffb9"/>
  <rect x="7" y="15" width="1" height="1" fill="#c4c4c46b"/>
  <rect x="8" y="15" width="1" height="1" fill="#f1eff0a0"/>
  <rect x="9" y="15" width="4" height="1" fill="#ffffffb9"/>
  <rect x="13" y="15" width="1" height="1" fill="#21232733"/>
  <rect x="14" y="15" width="1" height="1" fill="#2e313939"/>
  <rect x="15" y="15" width="1" height="1" fill="#3136402f"/>
  <rect x="16" y="15" width="1" height="1" fill="#242e382a"/>
  <rect x="17" y="15" width="1" height="1" fill="#2a363f24"/>
  <rect x="18" y="15" width="1" height="1" fill="#2a343e21"/>
  <rect x="19" y="15" width="1" height="1" fill="#2530372e"/>
  <rect x="20" y="15" width="1" height="1" fill="#2931383b"/>
  <rect x="21" y="15" width="1" height="1" fill="#c3c9d076"/>
  <rect x="22" y="15" width="1" height="1" fill="#f6fcffb9"/>
  <rect x="23" y="15" width="1" height="1" fill="#f7fcfcb9"/>
  <rect x="24" y="15" width="1" height="1" fill="#fffffdb9"/>
  <rect x="25" y="15" width="1" height="1" fill="#f9fff9b9"/>
  <rect x="26" y="15" width="1" height="1" fill="#1a252833"/>
  <rect x="27" y="15" width="1" height="1" fill="#2536400f"/>
  <rect x="2" y="16" width="1" height="1" fill="#2b33390f"/>
  <rect x="3" y="16" width="1" height="1" fill="#19212833"/>
  <rect x="4" y="16" width="1" height="2" fill="#fdffffb9"/>
  <rect x="5" y="16" width="1" height="1" fill="#ffffffb9"/>
  <rect x="6" y="16" width="1" height="1" fill="#fcfeffb9"/>
  <rect x="7" y="16" width="1" height="1" fill="#7f7f7f49"/>
  <rect x="8" y="16" width="1" height="1" fill="#fffdffbe"/>
  <rect x="9" y="16" width="1" height="1" fill="#fffefdb9"/>
  <rect x="10" y="16" width="1" height="1" fill="#fffffbb9"/>
  <rect x="11" y="16" width="1" height="2" fill="#fffffdb9"/>
  <rect x="12" y="16" width="1" height="1" fill="#ffffffb9"/>
  <rect x="13" y="16" width="1" height="1" fill="#1d212933"/>
  <rect x="14" y="16" width="1" height="1" fill="#292d3e1e"/>
  <rect x="15" y="16" width="1" height="1" fill="#252f470f"/>
  <rect x="16" y="16" width="1" height="1" fill="#1d324b0e"/>
  <rect x="17" y="16" width="1" height="1" fill="#1b354c0b"/>
  <rect x="18" y="16" width="1" height="1" fill="#22374b0a"/>
  <rect x="19" y="16" width="1" height="1" fill="#22314313"/>
  <rect x="20" y="16" width="1" height="1" fill="#27303d2a"/>
  <rect x="21" y="16" width="1" height="1" fill="#262c333c"/>
  <rect x="22" y="16" width="1" height="1" fill="#d3d5db76"/>
  <rect x="23" y="16" width="1" height="1" fill="#f8f8f8b9"/>
  <rect x="24" y="16" width="1" height="1" fill="#fffffab9"/>
  <rect x="25" y="16" width="1" height="1" fill="#f8fef9b9"/>
  <rect x="26" y="16" width="1" height="1" fill="#19232933"/>
  <rect x="27" y="16" width="1" height="1" fill="#2434410f"/>
  <rect x="2" y="17" width="1" height="3" fill="#29333b0f"/>
  <rect x="3" y="17" width="1" height="3" fill="#17212c33"/>
  <rect x="5" y="17" width="1" height="1" fill="#fcfeffb9"/>
  <rect x="6" y="17" width="1" height="1" fill="#f3f5f7a3"/>
  <rect x="7" y="17" width="1" height="1" fill="#ababad62"/>
  <rect x="8" y="17" width="1" height="1" fill="#fffdffba"/>
  <rect x="9" y="17" width="1" height="1" fill="#fffdffb9"/>
  <rect x="10" y="17" width="1" height="1" fill="#fffefdb9"/>
  <rect x="12" y="17" width="1" height="1" fill="#fefdffb9"/>
  <rect x="13" y="17" width="1" height="1" fill="#1e1f2833"/>
  <rect x="14" y="17" width="1" height="1" fill="#3236470f"/>
  <rect x="20" y="17" width="1" height="1" fill="#20293422"/>
  <rect x="21" y="17" width="1" height="1" fill="#34373f37"/>
  <rect x="22" y="17" width="1" height="1" fill="#e1e0e58e"/>
  <rect x="23" y="17" width="1" height="1" fill="#fffdfcb9"/>
  <rect x="24" y="17" width="1" height="1" fill="#fffff9b9"/>
  <rect x="25" y="17" width="1" height="1" fill="#f7fcf8b9"/>
  <rect x="26" y="17" width="1" height="1" fill="#17222833"/>
  <rect x="27" y="17" width="1" height="1" fill="#2532420f"/>
  <rect x="4" y="18" width="1" height="1" fill="#fcffffb9"/>
  <rect x="5" y="18" width="1" height="1" fill="#fbfdffb9"/>
  <rect x="6" y="18" width="1" height="1" fill="#d0d2d481"/>
  <rect x="7" y="18" width="1" height="1" fill="#dddddf8d"/>
  <rect x="8" y="18" width="2" height="1" fill="#fffdffb9"/>
  <rect x="10" y="18" width="2" height="1" fill="#fffeffb9"/>
  <rect x="12" y="18" width="1" height="1" fill="#ffffffb9"/>
  <rect x="13" y="18" width="1" height="1" fill="#1a1c2033"/>
  <rect x="14" y="18" width="1" height="1" fill="#1f222833"/>
  <rect x="15" y="18" width="1" height="1" fill="#1d252b33"/>
  <rect x="16" y="18" width="1" height="1" fill="#15212833"/>
  <rect x="17" y="18" width="1" height="1" fill="#17242b33"/>
  <rect x="18" y="18" width="1" height="1" fill="#16222a21"/>
  <rect x="19" y="18" width="1" height="1" fill="#222a311f"/>
  <rect x="20" y="18" width="1" height="1" fill="#646a6d44"/>
  <rect x="21" y="18" width="1" height="1" fill="#edeff1b5"/>
  <rect x="22" y="18" width="1" height="1" fill="#fdfdfdc7"/>
  <rect x="23" y="18" width="1" height="1" fill="#ffffffb9"/>
  <rect x="24" y="18" width="1" height="1" fill="#fffffbb9"/>
  <rect x="25" y="18" width="1" height="1" fill="#f9fffbb9"/>
  <rect x="26" y="18" width="1" height="1" fill="#1a242a33"/>
  <rect x="27" y="18" width="1" height="1" fill="#2734440f"/>
  <rect x="4" y="19" width="1" height="1" fill="#f9fdffb9"/>
  <rect x="5" y="19" width="1" height="1" fill="#ffffffb9"/>
  <rect x="6" y="19" width="1" height="1" fill="#a8aaac5e"/>
  <rect x="7" y="19" width="1" height="1" fill="#f4f6fab4"/>
  <rect x="8" y="19" width="1" height="1" fill="#fffeffb9"/>
  <rect x="9" y="19" width="2" height="1" fill="#fffdffb9"/>
  <rect x="11" y="19" width="1" height="1" fill="#ffffffb9"/>
  <rect x="12" y="19" width="1" height="1" fill="#fafafab9"/>
  <rect x="13" y="19" width="2" height="1" fill="#fffffedc"/>
  <rect x="15" y="19" width="1" height="1" fill="#fcfffedc"/>
  <rect x="16" y="19" width="1" height="1" fill="#f9feffdc"/>
  <rect x="17" y="19" width="1" height="1" fill="#f6fafbdc"/>
  <rect x="18" y="19" width="1" height="1" fill="#1d222333"/>
  <rect x="19" y="19" width="1" height="1" fill="#959a9b59"/>
  <rect x="20" y="19" width="1" height="1" fill="#f8fafbc8"/>
  <rect x="21" y="19" width="1" height="1" fill="#fcfeffc1"/>
  <rect x="22" y="19" width="1" height="1" fill="#ffffffb9"/>
  <rect x="23" y="19" width="1" height="1" fill="#fdfdfdb9"/>
  <rect x="24" y="19" width="1" height="1" fill="#fcfffab9"/>
  <rect x="25" y="19" width="1" height="1" fill="#f6fbf9b9"/>
  <rect x="26" y="19" width="1" height="1" fill="#16202833"/>
  <rect x="27" y="19" width="1" height="1" fill="#2331410f"/>
  <rect x="2" y="20" width="1" height="1" fill="#2530370f"/>
  <rect x="3" y="20" width="1" height="1" fill="#1a232e32"/>
  <rect x="4" y="20" width="1" height="1" fill="#feffffb2"/>
  <rect x="5" y="20" width="1" height="1" fill="#fbfdffb9"/>
  <rect x="6" y="20" width="1" height="1" fill="#4a4c4e3b"/>
  <rect x="7" y="20" width="1" height="1" fill="#fbfdffb7"/>
  <rect x="8" y="20" width="1" height="1" fill="#ffffffb9"/>
  <rect x="9" y="20" width="1" height="1" fill="#fffeffb9"/>
  <rect x="10" y="20" width="1" height="2" fill="#ffffffb9"/>
  <rect x="11" y="20" width="1" height="1" fill="#fefdffb9"/>
  <rect x="12" y="20" width="1" height="2" fill="#fffffdb9"/>
  <rect x="13" y="20" width="1" height="1" fill="#fffffbb9"/>
  <rect x="14" y="20" width="1" height="1" fill="#fffff7b9"/>
  <rect x="15" y="20" width="1" height="1" fill="#fffff9b9"/>
  <rect x="16" y="20" width="1" height="3" fill="#ffffffb9"/>
  <rect x="17" y="20" width="1" height="1" fill="#fffcffb9"/>
  <rect x="18" y="20" width="1" height="1" fill="#c9c9cd76"/>
  <rect x="19" y="20" width="1" height="1" fill="#f7f6fdcf"/>
  <rect x="20" y="20" width="1" height="1" fill="#fffeffbd"/>
  <rect x="21" y="20" width="1" height="1" fill="#f9f8ffb9"/>
  <rect x="22" y="20" width="1" height="1" fill="#f9faffb9"/>
  <rect x="23" y="20" width="1" height="1" fill="#fcfeffb9"/>
  <rect x="24" y="20" width="1" height="1" fill="#fbfefbb9"/>
  <rect x="25" y="20" width="1" height="1" fill="#f9fefdb2"/>
  <rect x="26" y="20" width="1" height="1" fill="#1a242c33"/>
  <rect x="27" y="20" width="1" height="1" fill="#2c39490f"/>
  <rect x="2" y="21" width="1" height="1" fill="#2731390d"/>
  <rect x="3" y="21" width="1" height="1" fill="#1c263030"/>
  <rect x="4" y="21" width="1" height="1" fill="#e1e5ea8f"/>
  <rect x="5" y="21" width="1" height="1" fill="#ffffffb9"/>
  <rect x="6" y="21" width="1" height="1" fill="#76787a48"/>
  <rect x="7" y="21" width="1" height="1" fill="#e4e6e78f"/>
  <rect x="8" y="21" width="1" height="1" fill="#fbfffeb9"/>
  <rect x="9" y="21" width="1" height="1" fill="#fcffffb9"/>
  <rect x="11" y="21" width="1" height="2" fill="#fdffffb9"/>
  <rect x="13" y="21" width="1" height="1" fill="#fffff9b9"/>
  <rect x="14" y="21" width="1" height="1" fill="#fffff3b9"/>
  <rect x="15" y="21" width="1" height="1" fill="#fffff5b9"/>
  <rect x="17" y="21" width="1" height="1" fill="#fcfaffb9"/>
  <rect x="18" y="21" width="1" height="1" fill="#fcfaffce"/>
  <rect x="19" y="21" width="1" height="1" fill="#ffffffba"/>
  <rect x="20" y="21" width="1" height="1" fill="#ffffffb9"/>
  <rect x="21" y="21" width="1" height="1" fill="#fefdffb9"/>
  <rect x="22" y="21" width="2" height="1" fill="#ffffffb9"/>
  <rect x="24" y="21" width="1" height="1" fill="#fcfffcb9"/>
  <rect x="25" y="21" width="1" height="1" fill="#e1e6e48f"/>
  <rect x="26" y="21" width="1" height="1" fill="#222c3430"/>
  <rect x="27" y="21" width="1" height="1" fill="#2230400d"/>
  <rect x="3" y="22" width="1" height="1" fill="#20293425"/>
  <rect x="4" y="22" width="1" height="1" fill="#7b7e844a"/>
  <rect x="5" y="22" width="1" height="1" fill="#f3f5f7b0"/>
  <rect x="6" y="22" width="1" height="1" fill="#ced0d182"/>
  <rect x="7" y="22" width="1" height="1" fill="#787d7b4a"/>
  <rect x="8" y="22" width="1" height="1" fill="#f7fff7b0"/>
  <rect x="9" y="22" width="1" height="1" fill="#f2faf3b9"/>
  <rect x="10" y="22" width="1" height="1" fill="#f6fbf9b9"/>
  <rect x="12" y="22" width="1" height="1" fill="#fffeffb9"/>
  <rect x="13" y="22" width="1" height="1" fill="#fffefbb9"/>
  <rect x="14" y="22" width="1" height="1" fill="#fffff5b9"/>
  <rect x="15" y="22" width="1" height="1" fill="#fffff7b9"/>
  <rect x="17" y="22" width="1" height="1" fill="#f9fdffb9"/>
  <rect x="18" y="22" width="1" height="1" fill="#fbfeffb9"/>
  <rect x="19" y="22" width="1" height="2" fill="#fcffffb9"/>
  <rect x="20" y="22" width="1" height="1" fill="#fcfeffb9"/>
  <rect x="21" y="22" width="2" height="1" fill="#ffffffb9"/>
  <rect x="23" y="22" width="1" height="1" fill="#fcfbfcb9"/>
  <rect x="24" y="22" width="1" height="1" fill="#fafdf7b0"/>
  <rect x="25" y="22" width="1" height="1" fill="#8085844a"/>
  <rect x="26" y="22" width="1" height="1" fill="#21293225"/>
  <rect x="3" y="23" width="1" height="1" fill="#222d3b14"/>
  <rect x="4" y="23" width="1" height="1" fill="#202a322e"/>
  <rect x="5" y="23" width="1" height="1" fill="#727a8048"/>
  <rect x="6" y="23" width="1" height="1" fill="#dee4eb94"/>
  <rect x="7" y="23" width="1" height="1" fill="#80888c4b"/>
  <rect x="8" y="23" width="1" height="1" fill="#75817d48"/>
  <rect x="9" y="23" width="1" height="1" fill="#dae6e08e"/>
  <rect x="10" y="23" width="1" height="1" fill="#f7ffffb3"/>
  <rect x="11" y="23" width="1" height="1" fill="#faffffb9"/>
  <rect x="12" y="23" width="1" height="1" fill="#fdffffb9"/>
  <rect x="13" y="23" width="1" height="1" fill="#ffffffb9"/>
  <rect x="14" y="23" width="1" height="1" fill="#fffffbb9"/>
  <rect x="15" y="23" width="1" height="1" fill="#fffffdb9"/>
  <rect x="16" y="23" width="1" height="1" fill="#faffffb9"/>
  <rect x="17" y="23" width="1" height="1" fill="#f2fcffb9"/>
  <rect x="18" y="23" width="1" height="1" fill="#faffffb9"/>
  <rect x="20" y="23" width="1" height="1" fill="#fbffffb9"/>
  <rect x="21" y="23" width="1" height="1" fill="#fdffffb9"/>
  <rect x="22" y="23" width="1" height="1" fill="#f2f7fab3"/>
  <rect x="23" y="23" width="1" height="1" fill="#e5e9ec8e"/>
  <rect x="24" y="23" width="1" height="1" fill="#787e8148"/>
  <rect x="25" y="23" width="1" height="1" fill="#242f3432"/>
  <rect x="26" y="23" width="1" height="1" fill="#24303c14"/>
  <rect x="4" y="24" width="1" height="1" fill="#20324316"/>
  <rect x="5" y="24" width="1" height="1" fill="#20324325"/>
  <rect x="6" y="24" width="1" height="1" fill="#2231432f"/>
  <rect x="7" y="24" width="1" height="1" fill="#2331412e"/>
  <rect x="8" y="24" width="1" height="1" fill="#1e2f3736"/>
  <rect x="9" y="24" width="1" height="1" fill="#1c2e313a"/>
  <rect x="10" y="24" width="1" height="1" fill="#1a292f34"/>
  <rect x="11" y="24" width="1" height="1" fill="#18272d33"/>
  <rect x="12" y="24" width="1" height="1" fill="#18252c33"/>
  <rect x="13" y="24" width="1" height="1" fill="#1a242c33"/>
  <rect x="14" y="24" width="2" height="1" fill="#1a242a33"/>
  <rect x="16" y="24" width="1" height="1" fill="#19252f33"/>
  <rect x="17" y="24" width="1" height="1" fill="#18242e33"/>
  <rect x="18" y="24" width="1" height="1" fill="#1b273033"/>
  <rect x="19" y="24" width="1" height="1" fill="#16222c33"/>
  <rect x="20" y="24" width="1" height="1" fill="#19222d33"/>
  <rect x="21" y="24" width="1" height="1" fill="#1c262e33"/>
  <rect x="22" y="24" width="1" height="1" fill="#212b3334"/>
  <rect x="23" y="24" width="1" height="1" fill="#1e2a363a"/>
  <rect x="24" y="24" width="1" height="1" fill="#1e304031"/>
  <rect x="25" y="24" width="1" height="1" fill="#1d314619"/>
  <rect x="5" y="25" width="1" height="1" fill="#1e344a0e"/>
  <rect x="6" y="25" width="1" height="1" fill="#20334a12"/>
  <rect x="7" y="25" width="1" height="1" fill="#20334a13"/>
  <rect x="8" y="25" width="1" height="1" fill="#21354718"/>
  <rect x="9" y="25" width="1" height="1" fill="#20344220"/>
  <rect x="10" y="25" width="1" height="1" fill="#1d324029"/>
  <rect x="11" y="25" width="1" height="1" fill="#1d32402d"/>
  <rect x="12" y="25" width="1" height="1" fill="#1f31402f"/>
  <rect x="13" y="25" width="3" height="1" fill="#2032412f"/>
  <rect x="16" y="25" width="1" height="1" fill="#2134422f"/>
  <rect x="17" y="25" width="1" height="1" fill="#2232412f"/>
  <rect x="18" y="25" width="1" height="1" fill="#2434432f"/>
  <rect x="19" y="25" width="1" height="1" fill="#1f2f3e2f"/>
  <rect x="20" y="25" width="1" height="1" fill="#2333422f"/>
  <rect x="21" y="25" width="1" height="1" fill="#2331412d"/>
  <rect x="22" y="25" width="1" height="1" fill="#22304029"/>
  <rect x="23" y="25" width="1" height="1" fill="#1f314220"/>
  <rect x="24" y="25" width="1" height="1" fill="#1b334b14"/>
  <rect x="10" y="26" width="1" height="1" fill="#1d374e0d"/>
  <rect x="11" y="26" width="1" height="1" fill="#20384f0f"/>
  <rect x="12" y="26" width="2" height="1" fill="#1f364e0f"/>
  <rect x="14" y="26" width="2" height="1" fill="#1f374c0f"/>
  <rect x="16" y="26" width="1" height="1" fill="#20384d0f"/>
  <rect x="17" y="26" width="1" height="1" fill="#21364c0f"/>
  <rect x="18" y="26" width="1" height="1" fill="#23394d0f"/>
  <rect x="19" y="26" width="1" height="1" fill="#1e34480f"/>
  <rect x="20" y="26" width="1" height="1" fill="#1f35490f"/>
  <rect x="21" y="26" width="1" height="1" fill="#2033480f"/>
  <rect x="22" y="26" width="1" height="1" fill="#1d31460d"/>
</svg>