<svg xmlns="http://www.w3.org/2000/svg" width="16" height="16" viewBox="0 0 16 16" shape-rendering="crispEdges">
  <rect x="7" y="2" width="1" height="1" fill="#9a841e7f"/>
  <rect x="8" y="2" width="1" height="1" fill="#99821f7f"/>
  <rect x="6" y="3" width="1" height="1" fill="#9f850c7f"/>
  <rect x="7" y="3" width="1" height="1" fill="#bc9a0d"/>
  <rect x="8" y="3" width="1" height="1" fill="#c3a016"/>
  <rect x="9" y="3" width="1" height="1" fill="#a287157f"/>
  <rect x="5" y="4" width="1" height="1" fill="#9983007f"/>
  <rect x="6" y="4" width="1" height="1" fill="#c0a20c"/>
  <rect x="7" y="4" width="1" height="1" fill="#ecc82e"/>
  <rect x="8" y="4" width="1" height="1" fill="#eec931"/>
  <rect x="9" y="4" width="1" height="1" fill="#c3a114"/>
  <rect x="10" y="4" width="1" height="1" fill="#9d84047f"/>
  <rect x="4" y="5" width="1" height="1" fill="#a28c077f"/>
  <rect x="5" y="5" width="1" height="1" fill="#cbad08"/>
  <rect x="6" y="5" width="1" height="1" fill="#eac925"/>
  <rect x="7" y="5" width="1" height="1" fill="#f4d42f"/>
  <rect x="8" y="5" width="1" height="1" fill="#f4d331"/>
  <rect x="9" y="5" width="1" height="1" fill="#ebca2a"/>
  <rect x="10" y="5" width="1" height="1" fill="#ccad0f"/>
  <rect x="11" y="5" width="1" height="1" fill="#a58c0c7f"/>
  <rect x="3" y="6" width="1" height="1" fill="#a288117f"/>
  <rect x="4" y="6" width="1" height="1" fill="#c9ab16"/>
  <rect x="5" y="6" width="1" height="1" fill="#e6c621"/>
  <rect x="6" y="6" width="1" height="1" fill="#f1d629"/>
  <rect x="7" y="6" width="1" height="1" fill="#ebd323"/>
  <rect x="8" y="6" width="1" height="1" fill="#ecd328"/>
  <rect x="9" y="6" width="1" height="1" fill="#f2d630"/>
  <rect x="10" y="6" width="1" height="1" fill="#e7c626"/>
  <rect x="11" y="6" width="1" height="1" fill="#ccaa1d"/>
  <rect x="12" y="6" width="1" height="1" fill="#a287157f"/>
  <rect x="2" y="7" width="1" height="1" fill="#a18e407f"/>
  <rect x="3" y="7" width="1" height="1" fill="#aa8d19"/>
  <rect x="4" y="7" width="1" height="1" fill="#ad8b00"/>
  <rect x="5" y="7" width="1" height="1" fill="#c6a707"/>
  <rect x="6" y="7" width="1" height="1" fill="#f3db2d"/>
  <rect x="7" y="7" width="1" height="1" fill="#e9d622"/>
  <rect x="8" y="7" width="1" height="1" fill="#ead725"/>
  <rect x="9" y="7" width="1" height="1" fill="#f4db32"/>
  <rect x="10" y="7" width="1" height="1" fill="#c7a80c"/>
  <rect x="11" y="7" width="1" height="1" fill="#ac8c03"/>
  <rect x="12" y="7" width="1" height="1" fill="#a88d1b"/>
  <rect x="13" y="7" width="1" height="1" fill="#97863c7f"/>
  <rect x="5" y="8" width="1" height="1" fill="#b29301"/>
  <rect x="6" y="8" width="1" height="1" fill="#eed52e"/>
  <rect x="7" y="8" width="2" height="1" fill="#efda28"/>
  <rect x="9" y="8" width="1" height="1" fill="#eed72f"/>
  <rect x="10" y="8" width="1" height="1" fill="#b09401"/>
  <rect x="5" y="9" width="1" height="1" fill="#b09305"/>
  <rect x="6" y="9" width="1" height="1" fill="#f0d332"/>
  <rect x="7" y="9" width="1" height="1" fill="#f0d82c"/>
  <rect x="8" y="9" width="1" height="1" fill="#efd92a"/>
  <rect x="9" y="9" width="1" height="1" fill="#ecd731"/>
  <rect x="10" y="9" width="1" height="1" fill="#ac9605"/>
  <rect x="5" y="10" width="1" height="1" fill="#b29301"/>
  <rect x="6" y="10" width="1" height="1" fill="#f1d332"/>
  <rect x="7" y="10" width="1" height="1" fill="#f2d72e"/>
  <rect x="8" y="10" width="1" height="1" fill="#edd92e"/>
  <rect x="9" y="10" width="1" height="1" fill="#e9d933"/>
  <rect x="10" y="10" width="1" height="1" fill="#aa9701"/>
  <rect x="5" y="11" width="1" height="1" fill="#b29303"/>
  <rect x="6" y="11" width="1" height="1" fill="#f3d136"/>
  <rect x="7" y="11" width="1" height="1" fill="#f4d532"/>
  <rect x="8" y="11" width="1" height="1" fill="#efd832"/>
  <rect x="9" y="11" width="1" height="1" fill="#ecd637"/>
  <rect x="10" y="11" width="1" height="1" fill="#ac9603"/>
  <rect x="5" y="12" width="1" height="1" fill="#c6a01b"/>
  <rect x="6" y="12" width="1" height="1" fill="#f1ce38"/>
  <rect x="7" y="12" width="1" height="1" fill="#f8d438"/>
  <rect x="8" y="12" width="1" height="1" fill="#f5d034"/>
  <rect x="9" y="12" width="1" height="1" fill="#efcd37"/>
  <rect x="10" y="12" width="1" height="1" fill="#c3a01a"/>
  <rect x="5" y="13" width="1" height="1" fill="#bd9f3ec3"/>
  <rect x="6" y="13" width="1" height="1" fill="#b89d2c"/>
  <rect x="7" y="13" width="1" height="1" fill="#b89f26"/>
  <rect x="8" y="13" width="1" height="1" fill="#b69c23"/>
  <rect x="9" y="13" width="1" height="1" fill="#b89a29"/>
  <rect x="10" y="13" width="1" height="1" fill="#be9e3bc4"/>
</svg>