<svg xmlns="http://www.w3.org/2000/svg" width="391" height="26" viewBox="0 0 391 26" shape-rendering="crispEdges">
  <rect x="0" y="0" width="16" height="6" fill="#dfebf5"/>
  <rect x="16" y="0" width="16" height="4" fill="#dfecf3"/>
  <rect x="32" y="0" width="8" height="1" fill="#deebf2"/>
  <rect x="40" y="0" width="8" height="1" fill="#dbe7ee"/>
  <rect x="48" y="0" width="44" height="1" fill="#d9e6ed"/>
  <rect x="92" y="0" width="8" height="1" fill="#dbe5ed"/>
  <rect x="100" y="0" width="2" height="1" fill="#dde4ed"/>
  <rect x="102" y="0" width="4" height="1" fill="#dbe5ed"/>
  <rect x="106" y="0" width="6" height="1" fill="#d9e6ed"/>
  <rect x="112" y="0" width="24" height="1" fill="#dbe5ed"/>
  <rect x="136" y="0" width="62" height="1" fill="#dce6ee"/>
  <rect x="198" y="0" width="4" height="1" fill="#dce7ec"/>
  <rect x="202" y="0" width="6" height="1" fill="#dce7ea"/>
  <rect x="208" y="0" width="16" height="1" fill="#dce7ec"/>
  <rect x="224" y="0" width="16" height="1" fill="#dde8ed"/>
  <rect x="240" y="0" width="22" height="1" fill="#dde7ef"/>
  <rect x="262" y="0" width="4" height="1" fill="#dde8ed"/>
  <rect x="266" y="0" width="6" height="1" fill="#dde8eb"/>
  <rect x="272" y="0" width="48" height="1" fill="#dde8ed"/>
  <rect x="320" y="0" width="16" height="1" fill="#dfe9ef"/>
  <rect x="336" y="0" width="5" height="1" fill="#dfe9f1"/>
  <rect x="341" y="0" width="1" height="1" fill="#e0eaf2"/>
  <rect x="342" y="0" width="1" height="1" fill="#e2ecf4"/>
  <rect x="343" y="0" width="23" height="1" fill="#e3edf5"/>
  <rect x="366" y="0" width="4" height="1" fill="#e4eef6"/>
  <rect x="370" y="0" width="21" height="1" fill="#e6f0f8"/>
  <rect x="32" y="1" width="16" height="1" fill="#deebf2"/>
  <rect x="48" y="1" width="44" height="1" fill="#dde9f1"/>
  <rect x="92" y="1" width="8" height="1" fill="#dfe9f1"/>
  <rect x="100" y="1" width="2" height="1" fill="#e0e8f1"/>
  <rect x="102" y="1" width="4" height="1" fill="#dfe9f1"/>
  <rect x="106" y="1" width="6" height="1" fill="#dde9f1"/>
  <rect x="112" y="1" width="24" height="1" fill="#dfe9f1"/>
  <rect x="136" y="1" width="62" height="1" fill="#e0eaf2"/>
  <rect x="198" y="1" width="4" height="1" fill="#e0eaf0"/>
  <rect x="202" y="1" width="6" height="1" fill="#e0ebee"/>
  <rect x="208" y="1" width="16" height="1" fill="#e0eaf0"/>
  <rect x="224" y="1" width="16" height="1" fill="#e1ebf1"/>
  <rect x="240" y="1" width="22" height="1" fill="#e1ebf3"/>
  <rect x="262" y="1" width="4" height="1" fill="#e1ebf1"/>
  <rect x="266" y="1" width="6" height="1" fill="#e1ecef"/>
  <rect x="272" y="1" width="48" height="1" fill="#e1ebf1"/>
  <rect x="320" y="1" width="16" height="1" fill="#e2edf2"/>
  <rect x="336" y="1" width="5" height="1" fill="#e2ecf4"/>
  <rect x="341" y="1" width="1" height="1" fill="#e3edf5"/>
  <rect x="342" y="1" width="1" height="1" fill="#e4eef6"/>
  <rect x="343" y="1" width="48" height="1" fill="#e6f0f8"/>
  <rect x="32" y="2" width="8" height="2" fill="#deebf2"/>
  <rect x="40" y="2" width="8" height="1" fill="#e2eef5"/>
  <rect x="48" y="2" width="44" height="1" fill="#e0edf4"/>
  <rect x="92" y="2" width="8" height="1" fill="#e2ecf4"/>
  <rect x="100" y="2" width="2" height="1" fill="#e4ebf4"/>
  <rect x="102" y="2" width="4" height="1" fill="#e2ecf4"/>
  <rect x="106" y="2" width="6" height="1" fill="#e0edf4"/>
  <rect x="112" y="2" width="24" height="1" fill="#e2ecf4"/>
  <rect x="136" y="2" width="62" height="1" fill="#e3edf5"/>
  <rect x="198" y="2" width="4" height="1" fill="#e3eef3"/>
  <rect x="202" y="2" width="6" height="1" fill="#e3eef1"/>
  <rect x="208" y="2" width="16" height="1" fill="#e3eef3"/>
  <rect x="224" y="2" width="16" height="1" fill="#e4eff4"/>
  <rect x="240" y="2" width="22" height="1" fill="#e4eef6"/>
  <rect x="262" y="2" width="4" height="1" fill="#e4eff4"/>
  <rect x="266" y="2" width="6" height="1" fill="#e4eff2"/>
  <rect x="272" y="2" width="48" height="1" fill="#e4eff4"/>
  <rect x="320" y="2" width="16" height="1" fill="#e6f0f6"/>
  <rect x="336" y="2" width="4" height="1" fill="#e6f0f8"/>
  <rect x="340" y="2" width="1" height="1" fill="#e4eef6"/>
  <rect x="341" y="2" width="50" height="2" fill="#e6f0f8"/>
  <rect x="40" y="3" width="8" height="1" fill="#e4f0f8"/>
  <rect x="48" y="3" width="44" height="1" fill="#e3eff6"/>
  <rect x="92" y="3" width="8" height="1" fill="#e4eef6"/>
  <rect x="100" y="3" width="2" height="1" fill="#e6eef6"/>
  <rect x="102" y="3" width="4" height="1" fill="#e4eef6"/>
  <rect x="106" y="3" width="6" height="1" fill="#e3eff6"/>
  <rect x="112" y="3" width="24" height="1" fill="#e4eef6"/>
  <rect x="136" y="3" width="62" height="1" fill="#e6f0f8"/>
  <rect x="198" y="3" width="4" height="1" fill="#e6f0f6"/>
  <rect x="202" y="3" width="6" height="1" fill="#e6f0f4"/>
  <rect x="208" y="3" width="16" height="1" fill="#e6f0f6"/>
  <rect x="224" y="3" width="16" height="1" fill="#e7f1f7"/>
  <rect x="240" y="3" width="22" height="1" fill="#e7f1f9"/>
  <rect x="262" y="3" width="4" height="1" fill="#e7f1f7"/>
  <rect x="266" y="3" width="6" height="1" fill="#e7f2f5"/>
  <rect x="272" y="3" width="48" height="1" fill="#e7f1f7"/>
  <rect x="320" y="3" width="16" height="1" fill="#e8f2f8"/>
  <rect x="336" y="3" width="3" height="1" fill="#e8f2fa"/>
  <rect x="339" y="3" width="2" height="1" fill="#e7f1f9"/>
  <rect x="16" y="4" width="24" height="2" fill="#dfecf3"/>
  <rect x="40" y="4" width="44" height="2" fill="#e0edf4"/>
  <rect x="84" y="4" width="2" height="4" fill="#e2ecf4"/>
  <rect x="86" y="4" width="6" height="4" fill="#e0edf4"/>
  <rect x="92" y="4" width="8" height="4" fill="#e2ecf4"/>
  <rect x="100" y="4" width="2" height="4" fill="#e4ebf4"/>
  <rect x="102" y="4" width="4" height="4" fill="#e2ecf4"/>
  <rect x="106" y="4" width="2" height="4" fill="#e0edf4"/>
  <rect x="108" y="4" width="28" height="4" fill="#e2ecf4"/>
  <rect x="136" y="4" width="56" height="2" fill="#e3edf5"/>
  <rect x="192" y="4" width="6" height="4" fill="#e4eef6"/>
  <rect x="198" y="4" width="38" height="4" fill="#e4eff4"/>
  <rect x="236" y="4" width="20" height="4" fill="#e4eef6"/>
  <rect x="256" y="4" width="6" height="4" fill="#e6f0f8"/>
  <rect x="262" y="4" width="4" height="4" fill="#e6f0f6"/>
  <rect x="266" y="4" width="2" height="4" fill="#e6f0f4"/>
  <rect x="268" y="4" width="64" height="4" fill="#e6f0f6"/>
  <rect x="332" y="4" width="59" height="4" fill="#e6f0f8"/>
  <rect x="0" y="6" width="8" height="2" fill="#dfebf5"/>
  <rect x="8" y="6" width="32" height="2" fill="#dfecf3"/>
  <rect x="40" y="6" width="18" height="2" fill="#e0edf4"/>
  <rect x="58" y="6" width="6" height="2" fill="#e0edf2"/>
  <rect x="64" y="6" width="20" height="2" fill="#e0edf4"/>
  <rect x="136" y="6" width="18" height="2" fill="#e3edf5"/>
  <rect x="154" y="6" width="6" height="2" fill="#e3eef3"/>
  <rect x="160" y="6" width="32" height="4" fill="#e3edf5"/>
  <rect x="0" y="8" width="6" height="8" fill="#dfebf5"/>
  <rect x="6" y="8" width="4" height="2" fill="#dfecf3"/>
  <rect x="10" y="8" width="6" height="2" fill="#dfecf1"/>
  <rect x="16" y="8" width="24" height="2" fill="#dfecf3"/>
  <rect x="40" y="8" width="14" height="4" fill="#e0edf4"/>
  <rect x="54" y="8" width="10" height="2" fill="#e0edf2"/>
  <rect x="64" y="8" width="12" height="2" fill="#e0edf4"/>
  <rect x="76" y="8" width="14" height="8" fill="#e2ecf4"/>
  <rect x="90" y="8" width="9" height="1" fill="#e0edf4"/>
  <rect x="99" y="8" width="37" height="1" fill="#e2ecf4"/>
  <rect x="136" y="8" width="14" height="8" fill="#e3edf5"/>
  <rect x="150" y="8" width="10" height="2" fill="#e3eef3"/>
  <rect x="192" y="8" width="10" height="4" fill="#e4eef6"/>
  <rect x="202" y="8" width="26" height="4" fill="#e4eff4"/>
  <rect x="228" y="8" width="24" height="4" fill="#e4eef6"/>
  <rect x="252" y="8" width="4" height="4" fill="#e4eff4"/>
  <rect x="256" y="8" width="68" height="4" fill="#e6f0f6"/>
  <rect x="324" y="8" width="67" height="4" fill="#e6f0f8"/>
  <rect x="90" y="9" width="10" height="7" fill="#e0edf4"/>
  <rect x="100" y="9" width="36" height="7" fill="#e2ecf4"/>
  <rect x="6" y="10" width="2" height="6" fill="#dfecf3"/>
  <rect x="8" y="10" width="3" height="1" fill="#dfecf1"/>
  <rect x="11" y="10" width="1" height="1" fill="#dfedef"/>
  <rect x="12" y="10" width="8" height="2" fill="#dfecf1"/>
  <rect x="20" y="10" width="20" height="2" fill="#dfecf3"/>
  <rect x="54" y="10" width="4" height="2" fill="#e0edf2"/>
  <rect x="58" y="10" width="2" height="2" fill="#e0eef0"/>
  <rect x="60" y="10" width="8" height="2" fill="#e0edf2"/>
  <rect x="68" y="10" width="8" height="6" fill="#e0edf4"/>
  <rect x="150" y="10" width="4" height="2" fill="#e3eef3"/>
  <rect x="154" y="10" width="2" height="2" fill="#e3eef1"/>
  <rect x="156" y="10" width="8" height="2" fill="#e3eef3"/>
  <rect x="164" y="10" width="28" height="2" fill="#e3edf5"/>
  <rect x="8" y="11" width="2" height="1" fill="#dfecf1"/>
  <rect x="10" y="11" width="2" height="1" fill="#dfedef"/>
  <rect x="8" y="12" width="12" height="4" fill="#dfecf1"/>
  <rect x="20" y="12" width="12" height="4" fill="#dfecf3"/>
  <rect x="32" y="12" width="8" height="4" fill="#deebf2"/>
  <rect x="40" y="12" width="8" height="4" fill="#dfecf3"/>
  <rect x="48" y="12" width="6" height="4" fill="#e0edf4"/>
  <rect x="54" y="12" width="14" height="4" fill="#e0edf2"/>
  <rect x="150" y="12" width="14" height="4" fill="#e3eef3"/>
  <rect x="164" y="12" width="44" height="4" fill="#e3edf5"/>
  <rect x="208" y="12" width="16" height="4" fill="#e3eef3"/>
  <rect x="224" y="12" width="4" height="4" fill="#e4eff4"/>
  <rect x="228" y="12" width="8" height="4" fill="#e4eef6"/>
  <rect x="236" y="12" width="4" height="4" fill="#e4eef8"/>
  <rect x="240" y="12" width="12" height="4" fill="#e4eef6"/>
  <rect x="252" y="12" width="16" height="4" fill="#e4eff4"/>
  <rect x="268" y="12" width="4" height="4" fill="#e4eef6"/>
  <rect x="272" y="12" width="16" height="4" fill="#e4eff4"/>
  <rect x="288" y="12" width="8" height="4" fill="#e4eef6"/>
  <rect x="296" y="12" width="16" height="4" fill="#e4eff4"/>
  <rect x="312" y="12" width="8" height="4" fill="#e4eef6"/>
  <rect x="320" y="12" width="4" height="3" fill="#e6f0f6"/>
  <rect x="324" y="12" width="8" height="4" fill="#e6f0f8"/>
  <rect x="332" y="12" width="4" height="4" fill="#e6effa"/>
  <rect x="336" y="12" width="55" height="4" fill="#e6f0f8"/>
  <rect x="320" y="15" width="1" height="1" fill="#e6f0f8"/>
  <rect x="321" y="15" width="3" height="1" fill="#e6f0f6"/>
  <rect x="0" y="16" width="10" height="4" fill="#dfecf3"/>
  <rect x="10" y="16" width="2" height="4" fill="#dfecf1"/>
  <rect x="12" y="16" width="46" height="4" fill="#dfecf3"/>
  <rect x="58" y="16" width="2" height="4" fill="#dfecf1"/>
  <rect x="60" y="16" width="12" height="4" fill="#dfecf3"/>
  <rect x="72" y="16" width="12" height="4" fill="#e0edf4"/>
  <rect x="84" y="16" width="2" height="4" fill="#e2ecf4"/>
  <rect x="86" y="16" width="22" height="4" fill="#e0edf4"/>
  <rect x="108" y="16" width="4" height="4" fill="#e2ecf4"/>
  <rect x="112" y="16" width="32" height="4" fill="#e0edf4"/>
  <rect x="144" y="16" width="10" height="4" fill="#e2ecf4"/>
  <rect x="154" y="16" width="2" height="4" fill="#e2edf2"/>
  <rect x="156" y="16" width="20" height="4" fill="#e2ecf4"/>
  <rect x="176" y="16" width="80" height="6" fill="#e3edf5"/>
  <rect x="256" y="16" width="16" height="6" fill="#e4eef6"/>
  <rect x="272" y="16" width="12" height="6" fill="#e4eff4"/>
  <rect x="284" y="16" width="8" height="3" fill="#e4eef6"/>
  <rect x="292" y="16" width="2" height="3" fill="#e4eef8"/>
  <rect x="294" y="16" width="4" height="3" fill="#e4eef6"/>
  <rect x="298" y="16" width="10" height="8" fill="#e4eff4"/>
  <rect x="308" y="16" width="8" height="4" fill="#e4eef6"/>
  <rect x="316" y="16" width="4" height="4" fill="#e4eef8"/>
  <rect x="320" y="16" width="71" height="4" fill="#e6f0f8"/>
  <rect x="284" y="19" width="7" height="1" fill="#e4eef6"/>
  <rect x="291" y="19" width="4" height="1" fill="#e4eef8"/>
  <rect x="295" y="19" width="3" height="1" fill="#e4eef6"/>
  <rect x="0" y="20" width="72" height="5" fill="#dfecf3"/>
  <rect x="72" y="20" width="72" height="4" fill="#e0edf4"/>
  <rect x="144" y="20" width="32" height="2" fill="#e2ecf4"/>
  <rect x="284" y="20" width="4" height="2" fill="#e4eef6"/>
  <rect x="288" y="20" width="4" height="2" fill="#e4eef8"/>
  <rect x="292" y="20" width="2" height="2" fill="#e4eefa"/>
  <rect x="294" y="20" width="2" height="2" fill="#e4eef8"/>
  <rect x="296" y="20" width="2" height="2" fill="#e4eef6"/>
  <rect x="308" y="20" width="4" height="2" fill="#e4eef6"/>
  <rect x="312" y="20" width="8" height="2" fill="#e4eef8"/>
  <rect x="320" y="20" width="4" height="2" fill="#e6effa"/>
  <rect x="324" y="20" width="67" height="2" fill="#e6f0f8"/>
  <rect x="144" y="22" width="10" height="2" fill="#e2ecf4"/>
  <rect x="154" y="22" width="6" height="2" fill="#e0edf4"/>
  <rect x="160" y="22" width="16" height="2" fill="#e2ecf4"/>
  <rect x="176" y="22" width="26" height="2" fill="#e3edf5"/>
  <rect x="202" y="22" width="6" height="1" fill="#e2eef5"/>
  <rect x="208" y="22" width="48" height="1" fill="#e3edf5"/>
  <rect x="256" y="22" width="10" height="2" fill="#e4eef6"/>
  <rect x="266" y="22" width="18" height="2" fill="#e4eff4"/>
  <rect x="284" y="22" width="7" height="1" fill="#e4eef6"/>
  <rect x="291" y="22" width="4" height="1" fill="#e4eef8"/>
  <rect x="295" y="22" width="3" height="1" fill="#e4eef6"/>
  <rect x="308" y="22" width="8" height="2" fill="#e4eef6"/>
  <rect x="316" y="22" width="4" height="2" fill="#e4eef8"/>
  <rect x="320" y="22" width="71" height="2" fill="#e6f0f8"/>
  <rect x="202" y="23" width="7" height="1" fill="#e2eef5"/>
  <rect x="209" y="23" width="47" height="1" fill="#e3edf5"/>
  <rect x="284" y="23" width="8" height="1" fill="#e4eef6"/>
  <rect x="292" y="23" width="2" height="1" fill="#e4eef8"/>
  <rect x="294" y="23" width="4" height="1" fill="#e4eef6"/>
  <rect x="72" y="24" width="68" height="1" fill="#e0edf4"/>
  <rect x="140" y="24" width="4" height="1" fill="#e0edf2"/>
  <rect x="144" y="24" width="6" height="1" fill="#e3eef3"/>
  <rect x="150" y="24" width="6" height="1" fill="#e2eff3"/>
  <rect x="156" y="24" width="4" height="1" fill="#e2eef5"/>
  <rect x="160" y="24" width="38" height="1" fill="#e3edf5"/>
  <rect x="198" y="24" width="26" height="1" fill="#e2eef5"/>
  <rect x="224" y="24" width="4" height="1" fill="#e3eff6"/>
  <rect x="228" y="24" width="28" height="1" fill="#e4eef6"/>
  <rect x="256" y="24" width="6" height="1" fill="#e6f0f8"/>
  <rect x="262" y="24" width="26" height="1" fill="#e6f0f6"/>
  <rect x="288" y="24" width="8" height="1" fill="#e6f0f8"/>
  <rect x="296" y="24" width="16" height="1" fill="#e6f0f6"/>
  <rect x="312" y="24" width="52" height="1" fill="#e6f0f8"/>
  <rect x="364" y="24" width="4" height="1" fill="#e6f0f6"/>
  <rect x="368" y="24" width="23" height="1" fill="#e7f1f7"/>
  <rect x="0" y="25" width="72" height="1" fill="#d6e2ea"/>
  <rect x="72" y="25" width="68" height="1" fill="#d7e4eb"/>
  <rect x="140" y="25" width="4" height="1" fill="#d7e4e9"/>
  <rect x="144" y="25" width="6" height="1" fill="#dae4ea"/>
  <rect x="150" y="25" width="6" height="1" fill="#d8e5ea"/>
  <rect x="156" y="25" width="4" height="1" fill="#d8e5ec"/>
  <rect x="160" y="25" width="38" height="1" fill="#dae4ec"/>
  <rect x="198" y="25" width="10" height="1" fill="#d8e5ec"/>
  <rect x="208" y="25" width="12" height="1" fill="#d7e6ec"/>
  <rect x="220" y="25" width="4" height="1" fill="#d8e5ec"/>
  <rect x="224" y="25" width="4" height="1" fill="#d9e6ed"/>
  <rect x="228" y="25" width="28" height="1" fill="#dbe5ed"/>
  <rect x="256" y="25" width="6" height="1" fill="#dce6ee"/>
  <rect x="262" y="25" width="26" height="1" fill="#dce7ec"/>
  <rect x="288" y="25" width="8" height="1" fill="#dce6ee"/>
  <rect x="296" y="25" width="16" height="1" fill="#dce7ec"/>
  <rect x="312" y="25" width="52" height="1" fill="#dce6ee"/>
  <rect x="364" y="25" width="4" height="1" fill="#dce7ec"/>
  <rect x="368" y="25" width="23" height="1" fill="#dde8ed"/>
</svg>