<svg xmlns="http://www.w3.org/2000/svg" width="80" height="16" viewBox="0 0 80 16" shape-rendering="crispEdges">
  <rect x="5" y="0" width="1" height="1" fill="#99999950"/>
  <rect x="6" y="0" width="1" height="1" fill="#999999bf"/>
  <rect x="7" y="0" width="1" height="1" fill="#999999f4"/>
  <rect x="8" y="0" width="1" height="1" fill="#999999f2"/>
  <rect x="9" y="0" width="1" height="1" fill="#999999bc"/>
  <rect x="10" y="0" width="1" height="1" fill="#99999948"/>
  <rect x="21" y="0" width="1" height="1" fill="#99999950"/>
  <rect x="22" y="0" width="1" height="1" fill="#999999bf"/>
  <rect x="23" y="0" width="1" height="1" fill="#999999f4"/>
  <rect x="24" y="0" width="1" height="1" fill="#999999f2"/>
  <rect x="25" y="0" width="1" height="1" fill="#999999bc"/>
  <rect x="26" y="0" width="1" height="1" fill="#99999948"/>
  <rect x="37" y="0" width="1" height="1" fill="#99999950"/>
  <rect x="38" y="0" width="1" height="1" fill="#999999bf"/>
  <rect x="39" y="0" width="1" height="1" fill="#999999f4"/>
  <rect x="40" y="0" width="1" height="1" fill="#999999f2"/>
  <rect x="41" y="0" width="1" height="1" fill="#999999bc"/>
  <rect x="42" y="0" width="1" height="1" fill="#99999948"/>
  <rect x="53" y="0" width="1" height="1" fill="#99999950"/>
  <rect x="54" y="0" width="1" height="1" fill="#999999bf"/>
  <rect x="55" y="0" width="1" height="1" fill="#999999f4"/>
  <rect x="56" y="0" width="1" height="1" fill="#999999f2"/>
  <rect x="57" y="0" width="1" height="1" fill="#999999bc"/>
  <rect x="58" y="0" width="1" height="1" fill="#99999948"/>
  <rect x="69" y="0" width="1" height="1" fill="#60caef50"/>
  <rect x="70" y="0" width="1" height="1" fill="#60caefbf"/>
  <rect x="71" y="0" width="1" height="1" fill="#60caf1f4"/>
  <rect x="72" y="0" width="1" height="1" fill="#5fcaf3f2"/>
  <rect x="73" y="0" width="1" height="1" fill="#60c9f5bc"/>
  <rect x="74" y="0" width="1" height="1" fill="#62c8f548"/>
  <rect x="4" y="1" width="1" height="1" fill="#9999998e"/>
  <rect x="5" y="1" width="6" height="1" fill="#999999"/>
  <rect x="11" y="1" width="1" height="1" fill="#99999980"/>
  <rect x="20" y="1" width="1" height="1" fill="#9999998e"/>
  <rect x="21" y="1" width="6" height="1" fill="#999999"/>
  <rect x="27" y="1" width="1" height="1" fill="#99999980"/>
  <rect x="36" y="1" width="1" height="1" fill="#9999998e"/>
  <rect x="37" y="1" width="6" height="1" fill="#999999"/>
  <rect x="43" y="1" width="1" height="1" fill="#99999980"/>
  <rect x="52" y="1" width="1" height="1" fill="#9999998e"/>
  <rect x="53" y="1" width="6" height="1" fill="#999999"/>
  <rect x="59" y="1" width="1" height="1" fill="#99999980"/>
  <rect x="68" y="1" width="1" height="1" fill="#60caef8e"/>
  <rect x="69" y="1" width="2" height="1" fill="#60caef"/>
  <rect x="71" y="1" width="1" height="1" fill="#60caf1"/>
  <rect x="72" y="1" width="1" height="1" fill="#5fcaf3"/>
  <rect x="73" y="1" width="1" height="1" fill="#60c9f5"/>
  <rect x="74" y="1" width="1" height="1" fill="#62c8f5"/>
  <rect x="75" y="1" width="1" height="1" fill="#62c8f380"/>
  <rect x="3" y="2" width="1" height="1" fill="#99999953"/>
  <rect x="4" y="2" width="1" height="2" fill="#999999"/>
  <rect x="5" y="2" width="1" height="1" fill="#999999f5"/>
  <rect x="6" y="2" width="1" height="1" fill="#99999966"/>
  <rect x="7" y="2" width="1" height="1" fill="#9999990b"/>
  <rect x="8" y="2" width="1" height="1" fill="#9999990d"/>
  <rect x="9" y="2" width="1" height="1" fill="#9999996b"/>
  <rect x="10" y="2" width="1" height="1" fill="#999999f8"/>
  <rect x="11" y="2" width="1" height="6" fill="#999999"/>
  <rect x="12" y="2" width="1" height="1" fill="#99999949"/>
  <rect x="19" y="2" width="1" height="1" fill="#99999953"/>
  <rect x="20" y="2" width="1" height="2" fill="#999999"/>
  <rect x="21" y="2" width="1" height="1" fill="#999999f5"/>
  <rect x="22" y="2" width="1" height="1" fill="#99999966"/>
  <rect x="23" y="2" width="1" height="1" fill="#9999990b"/>
  <rect x="24" y="2" width="1" height="1" fill="#9999990d"/>
  <rect x="25" y="2" width="1" height="1" fill="#9999996b"/>
  <rect x="26" y="2" width="1" height="1" fill="#999999f8"/>
  <rect x="27" y="2" width="1" height="6" fill="#999999"/>
  <rect x="28" y="2" width="1" height="1" fill="#99999949"/>
  <rect x="35" y="2" width="1" height="1" fill="#99999953"/>
  <rect x="36" y="2" width="1" height="2" fill="#999999"/>
  <rect x="37" y="2" width="1" height="1" fill="#999999f5"/>
  <rect x="38" y="2" width="1" height="1" fill="#99999966"/>
  <rect x="39" y="2" width="1" height="1" fill="#9999990b"/>
  <rect x="40" y="2" width="1" height="1" fill="#9999990d"/>
  <rect x="41" y="2" width="1" height="1" fill="#9999996b"/>
  <rect x="42" y="2" width="1" height="1" fill="#999999f8"/>
  <rect x="43" y="2" width="1" height="6" fill="#999999"/>
  <rect x="44" y="2" width="1" height="1" fill="#99999949"/>
  <rect x="51" y="2" width="1" height="1" fill="#99999953"/>
  <rect x="52" y="2" width="1" height="2" fill="#999999"/>
  <rect x="53" y="2" width="1" height="1" fill="#999999f5"/>
  <rect x="54" y="2" width="1" height="1" fill="#99999966"/>
  <rect x="55" y="2" width="1" height="1" fill="#9999990b"/>
  <rect x="56" y="2" width="1" height="1" fill="#9999990d"/>
  <rect x="57" y="2" width="1" height="1" fill="#9999996b"/>
  <rect x="58" y="2" width="1" height="1" fill="#999999f8"/>
  <rect x="59" y="2" width="1" height="6" fill="#999999"/>
  <rect x="60" y="2" width="1" height="1" fill="#99999949"/>
  <rect x="67" y="2" width="1" height="1" fill="#60caef53"/>
  <rect x="68" y="2" width="1" height="2" fill="#60caef"/>
  <rect x="69" y="2" width="1" height="1" fill="#60caeff5"/>
  <rect x="70" y="2" width="1" height="1" fill="#60caef66"/>
  <rect x="71" y="2" width="1" height="1" fill="#60caf10b"/>
  <rect x="72" y="2" width="1" height="1" fill="#5fcaf30d"/>
  <rect x="73" y="2" width="1" height="1" fill="#60c9f56b"/>
  <rect x="74" y="2" width="1" height="1" fill="#62c8f5f8"/>
  <rect x="75" y="2" width="1" height="3" fill="#62c8f3"/>
  <rect x="76" y="2" width="1" height="1" fill="#60caf149"/>
  <rect x="3" y="3" width="1" height="1" fill="#999999c6"/>
  <rect x="5" y="3" width="1" height="1" fill="#99999962"/>
  <rect x="10" y="3" width="1" height="1" fill="#99999973"/>
  <rect x="12" y="3" width="1" height="1" fill="#999999b9"/>
  <rect x="19" y="3" width="1" height="1" fill="#999999c6"/>
  <rect x="21" y="3" width="1" height="1" fill="#99999962"/>
  <rect x="26" y="3" width="1" height="1" fill="#99999973"/>
  <rect x="28" y="3" width="1" height="1" fill="#999999b9"/>
  <rect x="35" y="3" width="1" height="1" fill="#999999c6"/>
  <rect x="37" y="3" width="1" height="1" fill="#99999962"/>
  <rect x="42" y="3" width="1" height="1" fill="#99999973"/>
  <rect x="44" y="3" width="1" height="1" fill="#999999b9"/>
  <rect x="51" y="3" width="1" height="1" fill="#999999c6"/>
  <rect x="53" y="3" width="1" height="1" fill="#99999962"/>
  <rect x="58" y="3" width="1" height="1" fill="#99999973"/>
  <rect x="60" y="3" width="1" height="1" fill="#999999b9"/>
  <rect x="67" y="3" width="1" height="1" fill="#60caefc6"/>
  <rect x="69" y="3" width="1" height="1" fill="#60caef62"/>
  <rect x="74" y="3" width="1" height="1" fill="#62c8f573"/>
  <rect x="76" y="3" width="1" height="1" fill="#60caf1b9"/>
  <rect x="3" y="4" width="1" height="2" fill="#999999f9"/>
  <rect x="4" y="4" width="1" height="1" fill="#999999fc"/>
  <rect x="10" y="4" width="1" height="1" fill="#9999990d"/>
  <rect x="12" y="4" width="1" height="1" fill="#999999ee"/>
  <rect x="19" y="4" width="1" height="2" fill="#999999f9"/>
  <rect x="20" y="4" width="1" height="1" fill="#999999fc"/>
  <rect x="26" y="4" width="1" height="1" fill="#9999990d"/>
  <rect x="28" y="4" width="1" height="1" fill="#999999ee"/>
  <rect x="35" y="4" width="1" height="2" fill="#999999f9"/>
  <rect x="36" y="4" width="1" height="1" fill="#999999fc"/>
  <rect x="42" y="4" width="1" height="1" fill="#9999990d"/>
  <rect x="44" y="4" width="1" height="1" fill="#999999ee"/>
  <rect x="51" y="4" width="1" height="2" fill="#999999f9"/>
  <rect x="52" y="4" width="1" height="1" fill="#999999fc"/>
  <rect x="58" y="4" width="1" height="1" fill="#9999990d"/>
  <rect x="60" y="4" width="1" height="1" fill="#999999ee"/>
  <rect x="67" y="4" width="1" height="2" fill="#60caf1f9"/>
  <rect x="68" y="4" width="1" height="1" fill="#60caf1fc"/>
  <rect x="74" y="4" width="1" height="1" fill="#62c8f50d"/>
  <rect x="76" y="4" width="1" height="1" fill="#60caf1ee"/>
  <rect x="4" y="5" width="1" height="1" fill="#999999fb"/>
  <rect x="10" y="5" width="1" height="1" fill="#9999990b"/>
  <rect x="12" y="5" width="1" height="1" fill="#999999f1"/>
  <rect x="20" y="5" width="1" height="1" fill="#999999fb"/>
  <rect x="26" y="5" width="1" height="1" fill="#9999990b"/>
  <rect x="28" y="5" width="1" height="1" fill="#999999f1"/>
  <rect x="36" y="5" width="1" height="1" fill="#999999fb"/>
  <rect x="42" y="5" width="1" height="1" fill="#9999990b"/>
  <rect x="44" y="5" width="1" height="1" fill="#999999f1"/>
  <rect x="52" y="5" width="1" height="1" fill="#999999fb"/>
  <rect x="58" y="5" width="1" height="1" fill="#9999990b"/>
  <rect x="60" y="5" width="1" height="1" fill="#999999f1"/>
  <rect x="68" y="5" width="1" height="1" fill="#60caf1fb"/>
  <rect x="74" y="5" width="1" height="1" fill="#62c8f50b"/>
  <rect x="75" y="5" width="1" height="3" fill="#62c8f5"/>
  <rect x="76" y="5" width="1" height="1" fill="#60caf1f1"/>
  <rect x="3" y="6" width="1" height="1" fill="#999999c5"/>
  <rect x="4" y="6" width="1" height="2" fill="#999999"/>
  <rect x="5" y="6" width="1" height="1" fill="#9999995e"/>
  <rect x="10" y="6" width="1" height="1" fill="#99999966"/>
  <rect x="12" y="6" width="1" height="1" fill="#999999ba"/>
  <rect x="19" y="6" width="1" height="1" fill="#999999c5"/>
  <rect x="20" y="6" width="1" height="2" fill="#999999"/>
  <rect x="21" y="6" width="1" height="1" fill="#9999995e"/>
  <rect x="26" y="6" width="1" height="1" fill="#99999966"/>
  <rect x="28" y="6" width="1" height="1" fill="#999999ba"/>
  <rect x="35" y="6" width="1" height="1" fill="#999999c5"/>
  <rect x="36" y="6" width="1" height="2" fill="#999999"/>
  <rect x="37" y="6" width="1" height="1" fill="#9999995e"/>
  <rect x="42" y="6" width="1" height="1" fill="#99999966"/>
  <rect x="44" y="6" width="1" height="1" fill="#999999ba"/>
  <rect x="51" y="6" width="1" height="1" fill="#999999c5"/>
  <rect x="52" y="6" width="1" height="2" fill="#999999"/>
  <rect x="53" y="6" width="1" height="1" fill="#9999995e"/>
  <rect x="58" y="6" width="1" height="1" fill="#99999966"/>
  <rect x="60" y="6" width="1" height="1" fill="#999999ba"/>
  <rect x="67" y="6" width="1" height="1" fill="#60caf1c5"/>
  <rect x="68" y="6" width="1" height="2" fill="#60caf1"/>
  <rect x="69" y="6" width="1" height="1" fill="#60caf15e"/>
  <rect x="74" y="6" width="1" height="1" fill="#62c8f566"/>
  <rect x="76" y="6" width="1" height="1" fill="#60caefba"/>
  <rect x="3" y="7" width="1" height="1" fill="#99999953"/>
  <rect x="5" y="7" width="1" height="1" fill="#999999f5"/>
  <rect x="6" y="7" width="1" height="1" fill="#99999969"/>
  <rect x="7" y="7" width="1" height="1" fill="#9999990d"/>
  <rect x="8" y="7" width="1" height="1" fill="#9999990e"/>
  <rect x="9" y="7" width="1" height="1" fill="#9999996e"/>
  <rect x="10" y="7" width="1" height="1" fill="#999999f7"/>
  <rect x="12" y="7" width="1" height="1" fill="#99999946"/>
  <rect x="19" y="7" width="1" height="1" fill="#99999953"/>
  <rect x="21" y="7" width="1" height="1" fill="#999999f5"/>
  <rect x="22" y="7" width="1" height="1" fill="#99999969"/>
  <rect x="23" y="7" width="1" height="1" fill="#9999990d"/>
  <rect x="24" y="7" width="1" height="1" fill="#9999990e"/>
  <rect x="25" y="7" width="1" height="1" fill="#9999996e"/>
  <rect x="26" y="7" width="1" height="1" fill="#999999f7"/>
  <rect x="28" y="7" width="1" height="1" fill="#99999946"/>
  <rect x="35" y="7" width="1" height="1" fill="#99999953"/>
  <rect x="37" y="7" width="1" height="1" fill="#999999f5"/>
  <rect x="38" y="7" width="1" height="1" fill="#99999969"/>
  <rect x="39" y="7" width="1" height="1" fill="#9999990d"/>
  <rect x="40" y="7" width="1" height="1" fill="#9999990e"/>
  <rect x="41" y="7" width="1" height="1" fill="#9999996e"/>
  <rect x="42" y="7" width="1" height="1" fill="#999999f7"/>
  <rect x="44" y="7" width="1" height="1" fill="#99999946"/>
  <rect x="51" y="7" width="1" height="1" fill="#99999953"/>
  <rect x="53" y="7" width="1" height="1" fill="#999999f5"/>
  <rect x="54" y="7" width="1" height="1" fill="#99999969"/>
  <rect x="55" y="7" width="1" height="1" fill="#9999990d"/>
  <rect x="56" y="7" width="1" height="1" fill="#9999990e"/>
  <rect x="57" y="7" width="1" height="1" fill="#9999996e"/>
  <rect x="58" y="7" width="1" height="1" fill="#999999f7"/>
  <rect x="60" y="7" width="1" height="1" fill="#99999946"/>
  <rect x="67" y="7" width="1" height="1" fill="#60caf153"/>
  <rect x="69" y="7" width="1" height="1" fill="#60caf1f5"/>
  <rect x="70" y="7" width="1" height="1" fill="#60caf169"/>
  <rect x="71" y="7" width="1" height="1" fill="#60caf10d"/>
  <rect x="72" y="7" width="1" height="1" fill="#60caed0e"/>
  <rect x="73" y="7" width="1" height="1" fill="#60caef6e"/>
  <rect x="74" y="7" width="1" height="1" fill="#62c8f5f7"/>
  <rect x="76" y="7" width="1" height="1" fill="#60caed46"/>
  <rect x="4" y="8" width="1" height="1" fill="#999999ab"/>
  <rect x="5" y="8" width="6" height="2" fill="#999999"/>
  <rect x="11" y="8" width="1" height="1" fill="#999999a1"/>
  <rect x="20" y="8" width="1" height="1" fill="#999999ab"/>
  <rect x="21" y="8" width="6" height="2" fill="#999999"/>
  <rect x="27" y="8" width="1" height="1" fill="#999999a1"/>
  <rect x="36" y="8" width="1" height="1" fill="#999999ab"/>
  <rect x="37" y="8" width="6" height="2" fill="#999999"/>
  <rect x="43" y="8" width="1" height="1" fill="#999999a1"/>
  <rect x="52" y="8" width="1" height="1" fill="#999999ab"/>
  <rect x="53" y="8" width="6" height="2" fill="#999999"/>
  <rect x="59" y="8" width="1" height="1" fill="#999999a1"/>
  <rect x="68" y="8" width="1" height="1" fill="#60c9f3ab"/>
  <rect x="69" y="8" width="2" height="2" fill="#60c9f3"/>
  <rect x="71" y="8" width="1" height="1" fill="#60caf1"/>
  <rect x="72" y="8" width="1" height="1" fill="#62caeb"/>
  <rect x="73" y="8" width="1" height="1" fill="#62caed"/>
  <rect x="74" y="8" width="1" height="1" fill="#60c9f5"/>
  <rect x="75" y="8" width="1" height="1" fill="#5fcaf5a1"/>
  <rect x="3" y="9" width="1" height="1" fill="#99999996"/>
  <rect x="4" y="9" width="1" height="1" fill="#999999fd"/>
  <rect x="11" y="9" width="1" height="1" fill="#999999fd"/>
  <rect x="12" y="9" width="1" height="1" fill="#99999995"/>
  <rect x="19" y="9" width="1" height="1" fill="#99999996"/>
  <rect x="20" y="9" width="1" height="1" fill="#999999fd"/>
  <rect x="27" y="9" width="1" height="1" fill="#999999fd"/>
  <rect x="28" y="9" width="1" height="1" fill="#99999995"/>
  <rect x="35" y="9" width="1" height="1" fill="#99999996"/>
  <rect x="36" y="9" width="1" height="1" fill="#999999fd"/>
  <rect x="43" y="9" width="1" height="1" fill="#999999fd"/>
  <rect x="44" y="9" width="1" height="1" fill="#99999995"/>
  <rect x="51" y="9" width="1" height="1" fill="#99999996"/>
  <rect x="52" y="9" width="1" height="1" fill="#999999fd"/>
  <rect x="59" y="9" width="1" height="1" fill="#999999fd"/>
  <rect x="60" y="9" width="1" height="1" fill="#99999995"/>
  <rect x="67" y="9" width="1" height="1" fill="#60c9f396"/>
  <rect x="68" y="9" width="1" height="1" fill="#60c9f3fd"/>
  <rect x="71" y="9" width="1" height="1" fill="#62c9f1"/>
  <rect x="72" y="9" width="1" height="1" fill="#64c9eb"/>
  <rect x="73" y="9" width="1" height="1" fill="#64c9ed"/>
  <rect x="74" y="9" width="1" height="1" fill="#60c9f3"/>
  <rect x="75" y="9" width="1" height="1" fill="#60c9f3fd"/>
  <rect x="76" y="9" width="1" height="1" fill="#60caed95"/>
  <rect x="1" y="10" width="1" height="1" fill="#9999990a"/>
  <rect x="2" y="10" width="1" height="1" fill="#999999c1"/>
  <rect x="3" y="10" width="1" height="1" fill="#999999"/>
  <rect x="4" y="10" width="1" height="1" fill="#999999fb"/>
  <rect x="5" y="10" width="1" height="1" fill="#9999999a"/>
  <rect x="6" y="10" width="1" height="1" fill="#99999940"/>
  <rect x="7" y="10" width="1" height="1" fill="#99999918"/>
  <rect x="8" y="10" width="1" height="1" fill="#99999919"/>
  <rect x="9" y="10" width="1" height="1" fill="#99999941"/>
  <rect x="10" y="10" width="1" height="1" fill="#9999999d"/>
  <rect x="11" y="10" width="1" height="1" fill="#999999fb"/>
  <rect x="12" y="10" width="1" height="1" fill="#999999"/>
  <rect x="13" y="10" width="1" height="1" fill="#999999bc"/>
  <rect x="17" y="10" width="1" height="1" fill="#9999990a"/>
  <rect x="18" y="10" width="1" height="1" fill="#999999c1"/>
  <rect x="19" y="10" width="1" height="1" fill="#999999"/>
  <rect x="20" y="10" width="1" height="1" fill="#999999fb"/>
  <rect x="21" y="10" width="1" height="1" fill="#9999999a"/>
  <rect x="22" y="10" width="1" height="1" fill="#99999940"/>
  <rect x="23" y="10" width="1" height="1" fill="#99999918"/>
  <rect x="24" y="10" width="1" height="1" fill="#99999919"/>
  <rect x="25" y="10" width="1" height="1" fill="#99999941"/>
  <rect x="26" y="10" width="1" height="1" fill="#9999999d"/>
  <rect x="27" y="10" width="1" height="1" fill="#999999fb"/>
  <rect x="28" y="10" width="1" height="1" fill="#999999"/>
  <rect x="29" y="10" width="1" height="1" fill="#999999bc"/>
  <rect x="33" y="10" width="1" height="1" fill="#9999990a"/>
  <rect x="34" y="10" width="1" height="1" fill="#999999c1"/>
  <rect x="35" y="10" width="1" height="1" fill="#999999"/>
  <rect x="36" y="10" width="1" height="1" fill="#999999fb"/>
  <rect x="37" y="10" width="1" height="1" fill="#9999999a"/>
  <rect x="38" y="10" width="1" height="1" fill="#99999940"/>
  <rect x="39" y="10" width="1" height="1" fill="#99999918"/>
  <rect x="40" y="10" width="1" height="1" fill="#99999919"/>
  <rect x="41" y="10" width="1" height="1" fill="#99999941"/>
  <rect x="42" y="10" width="1" height="1" fill="#9999999d"/>
  <rect x="43" y="10" width="1" height="1" fill="#999999fb"/>
  <rect x="44" y="10" width="1" height="1" fill="#999999"/>
  <rect x="45" y="10" width="1" height="1" fill="#999999bc"/>
  <rect x="49" y="10" width="1" height="1" fill="#9999990a"/>
  <rect x="50" y="10" width="1" height="1" fill="#999999c1"/>
  <rect x="51" y="10" width="1" height="1" fill="#999999"/>
  <rect x="52" y="10" width="1" height="1" fill="#999999fb"/>
  <rect x="53" y="10" width="1" height="1" fill="#9999999a"/>
  <rect x="54" y="10" width="1" height="1" fill="#99999940"/>
  <rect x="55" y="10" width="1" height="1" fill="#99999918"/>
  <rect x="56" y="10" width="1" height="1" fill="#99999919"/>
  <rect x="57" y="10" width="1" height="1" fill="#99999941"/>
  <rect x="58" y="10" width="1" height="1" fill="#9999999d"/>
  <rect x="59" y="10" width="1" height="1" fill="#999999fb"/>
  <rect x="60" y="10" width="1" height="1" fill="#999999"/>
  <rect x="61" y="10" width="1" height="1" fill="#999999bc"/>
  <rect x="65" y="10" width="1" height="1" fill="#60c9f30a"/>
  <rect x="66" y="10" width="1" height="1" fill="#60c9f3c1"/>
  <rect x="67" y="10" width="1" height="1" fill="#60c9f3"/>
  <rect x="68" y="10" width="1" height="1" fill="#60c9f3fb"/>
  <rect x="69" y="10" width="1" height="1" fill="#60c9f39a"/>
  <rect x="70" y="10" width="1" height="1" fill="#60c9f340"/>
  <rect x="71" y="10" width="1" height="1" fill="#62c9f118"/>
  <rect x="72" y="10" width="1" height="1" fill="#67c7ef19"/>
  <rect x="73" y="10" width="1" height="1" fill="#67c7ef41"/>
  <rect x="74" y="10" width="1" height="1" fill="#65c7f39d"/>
  <rect x="75" y="10" width="1" height="1" fill="#62c8f3fb"/>
  <rect x="76" y="10" width="1" height="1" fill="#5dccef"/>
  <rect x="77" y="10" width="1" height="1" fill="#60cce7bc"/>
  <rect x="1" y="11" width="1" height="1" fill="#99999998"/>
  <rect x="2" y="11" width="1" height="1" fill="#999999"/>
  <rect x="3" y="11" width="1" height="1" fill="#999999ea"/>
  <rect x="4" y="11" width="1" height="1" fill="#99999935"/>
  <rect x="11" y="11" width="1" height="1" fill="#9999993c"/>
  <rect x="12" y="11" width="1" height="1" fill="#999999eb"/>
  <rect x="13" y="11" width="1" height="1" fill="#999999"/>
  <rect x="14" y="11" width="1" height="1" fill="#99999994"/>
  <rect x="17" y="11" width="1" height="1" fill="#99999998"/>
  <rect x="18" y="11" width="1" height="1" fill="#999999"/>
  <rect x="19" y="11" width="1" height="1" fill="#999999ea"/>
  <rect x="20" y="11" width="1" height="1" fill="#99999935"/>
  <rect x="27" y="11" width="1" height="1" fill="#9999993c"/>
  <rect x="28" y="11" width="1" height="1" fill="#999999eb"/>
  <rect x="29" y="11" width="1" height="1" fill="#999999"/>
  <rect x="30" y="11" width="1" height="1" fill="#99999994"/>
  <rect x="33" y="11" width="1" height="1" fill="#99999998"/>
  <rect x="34" y="11" width="1" height="1" fill="#999999"/>
  <rect x="35" y="11" width="1" height="1" fill="#999999ea"/>
  <rect x="36" y="11" width="1" height="1" fill="#99999935"/>
  <rect x="43" y="11" width="1" height="1" fill="#9999993c"/>
  <rect x="44" y="11" width="1" height="1" fill="#999999eb"/>
  <rect x="45" y="11" width="1" height="1" fill="#999999"/>
  <rect x="46" y="11" width="1" height="1" fill="#99999994"/>
  <rect x="49" y="11" width="1" height="1" fill="#99999998"/>
  <rect x="50" y="11" width="1" height="1" fill="#999999"/>
  <rect x="51" y="11" width="1" height="1" fill="#999999ea"/>
  <rect x="52" y="11" width="1" height="1" fill="#99999935"/>
  <rect x="59" y="11" width="1" height="1" fill="#9999993c"/>
  <rect x="60" y="11" width="1" height="1" fill="#999999eb"/>
  <rect x="61" y="11" width="1" height="1" fill="#999999"/>
  <rect x="62" y="11" width="1" height="1" fill="#99999994"/>
  <rect x="65" y="11" width="1" height="1" fill="#60c9f398"/>
  <rect x="66" y="11" width="1" height="1" fill="#60c9f3"/>
  <rect x="67" y="11" width="1" height="1" fill="#60c9f3ea"/>
  <rect x="68" y="11" width="1" height="1" fill="#60c9f335"/>
  <rect x="75" y="11" width="1" height="1" fill="#62c9f13c"/>
  <rect x="76" y="11" width="1" height="1" fill="#5dcbf1eb"/>
  <rect x="77" y="11" width="1" height="1" fill="#5dccef"/>
  <rect x="78" y="11" width="1" height="1" fill="#60cbeb94"/>
  <rect x="0" y="12" width="1" height="1" fill="#99999930"/>
  <rect x="1" y="12" width="1" height="1" fill="#999999fe"/>
  <rect x="2" y="12" width="1" height="1" fill="#999999fc"/>
  <rect x="3" y="12" width="1" height="1" fill="#9999993c"/>
  <rect x="12" y="12" width="1" height="1" fill="#99999941"/>
  <rect x="13" y="12" width="1" height="1" fill="#999999fe"/>
  <rect x="14" y="12" width="1" height="1" fill="#999999fd"/>
  <rect x="15" y="12" width="1" height="1" fill="#9999992c"/>
  <rect x="16" y="12" width="1" height="1" fill="#99999930"/>
  <rect x="17" y="12" width="1" height="1" fill="#999999fe"/>
  <rect x="18" y="12" width="1" height="1" fill="#999999fc"/>
  <rect x="19" y="12" width="1" height="1" fill="#9999993c"/>
  <rect x="28" y="12" width="1" height="1" fill="#99999941"/>
  <rect x="29" y="12" width="1" height="1" fill="#999999fe"/>
  <rect x="30" y="12" width="1" height="1" fill="#999999fd"/>
  <rect x="31" y="12" width="1" height="1" fill="#9999992c"/>
  <rect x="32" y="12" width="1" height="1" fill="#99999930"/>
  <rect x="33" y="12" width="1" height="1" fill="#999999fe"/>
  <rect x="34" y="12" width="1" height="1" fill="#999999fc"/>
  <rect x="35" y="12" width="1" height="1" fill="#9999993c"/>
  <rect x="44" y="12" width="1" height="1" fill="#99999941"/>
  <rect x="45" y="12" width="1" height="1" fill="#999999fe"/>
  <rect x="46" y="12" width="1" height="1" fill="#999999fd"/>
  <rect x="47" y="12" width="1" height="1" fill="#9999992c"/>
  <rect x="48" y="12" width="1" height="1" fill="#99999930"/>
  <rect x="49" y="12" width="1" height="1" fill="#999999fe"/>
  <rect x="50" y="12" width="1" height="1" fill="#999999fc"/>
  <rect x="51" y="12" width="1" height="1" fill="#9999993c"/>
  <rect x="60" y="12" width="1" height="1" fill="#99999941"/>
  <rect x="61" y="12" width="1" height="1" fill="#999999fe"/>
  <rect x="62" y="12" width="1" height="1" fill="#999999fd"/>
  <rect x="63" y="12" width="1" height="1" fill="#859fab2c"/>
  <rect x="64" y="12" width="1" height="1" fill="#74c3e330"/>
  <rect x="65" y="12" width="1" height="1" fill="#60c9f5fe"/>
  <rect x="66" y="12" width="1" height="1" fill="#60c9f5fc"/>
  <rect x="67" y="12" width="1" height="1" fill="#60c9f53c"/>
  <rect x="76" y="12" width="1" height="1" fill="#62c9f141"/>
  <rect x="77" y="12" width="1" height="1" fill="#62c8f3fe"/>
  <rect x="78" y="12" width="1" height="1" fill="#60c9f5fd"/>
  <rect x="79" y="12" width="1" height="1" fill="#5fc9f72c"/>
  <rect x="0" y="13" width="1" height="1" fill="#99999996"/>
  <rect x="1" y="13" width="1" height="3" fill="#999999"/>
  <rect x="2" y="13" width="1" height="1" fill="#999999a2"/>
  <rect x="13" y="13" width="1" height="1" fill="#999999a9"/>
  <rect x="14" y="13" width="1" height="3" fill="#999999"/>
  <rect x="15" y="13" width="1" height="1" fill="#99999992"/>
  <rect x="16" y="13" width="1" height="1" fill="#99999996"/>
  <rect x="17" y="13" width="1" height="3" fill="#999999"/>
  <rect x="18" y="13" width="1" height="1" fill="#999999a2"/>
  <rect x="29" y="13" width="1" height="1" fill="#999999a9"/>
  <rect x="30" y="13" width="1" height="3" fill="#999999"/>
  <rect x="31" y="13" width="1" height="1" fill="#99999992"/>
  <rect x="32" y="13" width="1" height="1" fill="#99999996"/>
  <rect x="33" y="13" width="1" height="3" fill="#999999"/>
  <rect x="34" y="13" width="1" height="1" fill="#999999a2"/>
  <rect x="45" y="13" width="1" height="1" fill="#999999a9"/>
  <rect x="46" y="13" width="1" height="3" fill="#999999"/>
  <rect x="47" y="13" width="1" height="1" fill="#99999992"/>
  <rect x="48" y="13" width="1" height="1" fill="#99999996"/>
  <rect x="49" y="13" width="1" height="3" fill="#999999"/>
  <rect x="50" y="13" width="1" height="1" fill="#999999a2"/>
  <rect x="61" y="13" width="1" height="1" fill="#999999a9"/>
  <rect x="62" y="13" width="1" height="3" fill="#999999"/>
  <rect x="63" y="13" width="1" height="1" fill="#859fab92"/>
  <rect x="64" y="13" width="1" height="1" fill="#74c3e396"/>
  <rect x="65" y="13" width="1" height="3" fill="#60c9f5"/>
  <rect x="66" y="13" width="1" height="1" fill="#60c9f5a2"/>
  <rect x="77" y="13" width="1" height="1" fill="#65c7f3a9"/>
  <rect x="78" y="13" width="1" height="1" fill="#60c9f5"/>
  <rect x="79" y="13" width="1" height="1" fill="#5fcaf592"/>
  <rect x="0" y="14" width="1" height="1" fill="#999999da"/>
  <rect x="2" y="14" width="1" height="1" fill="#99999946"/>
  <rect x="13" y="14" width="1" height="1" fill="#9999994b"/>
  <rect x="15" y="14" width="1" height="1" fill="#999999d3"/>
  <rect x="16" y="14" width="1" height="1" fill="#999999da"/>
  <rect x="18" y="14" width="1" height="1" fill="#99999946"/>
  <rect x="29" y="14" width="1" height="1" fill="#9999994b"/>
  <rect x="31" y="14" width="1" height="1" fill="#999999d3"/>
  <rect x="32" y="14" width="1" height="1" fill="#999999da"/>
  <rect x="34" y="14" width="1" height="1" fill="#99999946"/>
  <rect x="45" y="14" width="1" height="1" fill="#9999994b"/>
  <rect x="47" y="14" width="1" height="1" fill="#999999d3"/>
  <rect x="48" y="14" width="1" height="1" fill="#999999da"/>
  <rect x="50" y="14" width="1" height="1" fill="#99999946"/>
  <rect x="61" y="14" width="1" height="1" fill="#9999994b"/>
  <rect x="63" y="14" width="1" height="1" fill="#859fabd3"/>
  <rect x="64" y="14" width="1" height="1" fill="#74c3e3da"/>
  <rect x="66" y="14" width="1" height="1" fill="#60c9f546"/>
  <rect x="77" y="14" width="1" height="1" fill="#67c7ed4b"/>
  <rect x="78" y="14" width="1" height="1" fill="#64cae9"/>
  <rect x="79" y="14" width="1" height="1" fill="#62cbe7d3"/>
  <rect x="0" y="15" width="1" height="1" fill="#999999f8"/>
  <rect x="2" y="15" width="1" height="1" fill="#99999910"/>
  <rect x="13" y="15" width="1" height="1" fill="#99999914"/>
  <rect x="15" y="15" width="1" height="1" fill="#999999f4"/>
  <rect x="16" y="15" width="1" height="1" fill="#999999f8"/>
  <rect x="18" y="15" width="1" height="1" fill="#99999910"/>
  <rect x="29" y="15" width="1" height="1" fill="#99999914"/>
  <rect x="31" y="15" width="1" height="1" fill="#999999f4"/>
  <rect x="32" y="15" width="1" height="1" fill="#999999f8"/>
  <rect x="34" y="15" width="1" height="1" fill="#99999910"/>
  <rect x="45" y="15" width="1" height="1" fill="#99999914"/>
  <rect x="47" y="15" width="1" height="1" fill="#999999f4"/>
  <rect x="48" y="15" width="1" height="1" fill="#999999f8"/>
  <rect x="50" y="15" width="1" height="1" fill="#99999910"/>
  <rect x="61" y="15" width="1" height="1" fill="#99999914"/>
  <rect x="63" y="15" width="1" height="1" fill="#859fabf4"/>
  <rect x="64" y="15" width="1" height="1" fill="#74c3e3f8"/>
  <rect x="66" y="15" width="1" height="1" fill="#60c9f510"/>
  <rect x="77" y="15" width="1" height="1" fill="#68c7e914"/>
  <rect x="78" y="15" width="1" height="1" fill="#65cae3"/>
  <rect x="79" y="15" width="1" height="1" fill="#64cbdff4"/>
</svg>