<svg xmlns="http://www.w3.org/2000/svg" width="18" height="18" viewBox="0 0 18 18" shape-rendering="crispEdges">
  <rect x="1" y="0" width="1" height="1" fill="#88a8cfc4"/>
  <rect x="2" y="0" width="1" height="1" fill="#94aabc"/>
  <rect x="3" y="0" width="1" height="1" fill="#9da9b5"/>
  <rect x="4" y="0" width="1" height="1" fill="#9b9eb4"/>
  <rect x="5" y="0" width="1" height="1" fill="#9b9db8"/>
  <rect x="6" y="0" width="1" height="1" fill="#96a0b6"/>
  <rect x="7" y="0" width="1" height="1" fill="#91a2b8"/>
  <rect x="8" y="0" width="1" height="1" fill="#8a9fba"/>
  <rect x="9" y="0" width="1" height="1" fill="#9cafcb"/>
  <rect x="10" y="0" width="1" height="1" fill="#9ba2bf"/>
  <rect x="11" y="0" width="1" height="1" fill="#959dbd"/>
  <rect x="12" y="0" width="1" height="1" fill="#8fa3c5"/>
  <rect x="13" y="0" width="1" height="1" fill="#8ba2bdc3"/>
  <rect x="1" y="1" width="1" height="1" fill="#88a8cf"/>
  <rect x="2" y="1" width="1" height="1" fill="#ddf3ff"/>
  <rect x="3" y="1" width="1" height="1" fill="#ebf7ff"/>
  <rect x="4" y="1" width="1" height="2" fill="#f6f9ff"/>
  <rect x="5" y="1" width="1" height="2" fill="#f6f8ff"/>
  <rect x="6" y="1" width="1" height="2" fill="#f1fbff"/>
  <rect x="7" y="1" width="1" height="1" fill="#eeffff"/>
  <rect x="8" y="1" width="1" height="1" fill="#e8ffff"/>
  <rect x="9" y="1" width="1" height="1" fill="#e3f8ff"/>
  <rect x="10" y="1" width="1" height="1" fill="#edf7ff"/>
  <rect x="11" y="1" width="1" height="1" fill="#e7f2ff"/>
  <rect x="12" y="1" width="1" height="1" fill="#dcf2ff"/>
  <rect x="13" y="1" width="1" height="1" fill="#8ca5b8"/>
  <rect x="1" y="2" width="1" height="1" fill="#83a4cb"/>
  <rect x="2" y="2" width="1" height="1" fill="#e8feff"/>
  <rect x="3" y="2" width="1" height="1" fill="#f0fbff"/>
  <rect x="7" y="2" width="1" height="1" fill="#eafeff"/>
  <rect x="8" y="2" width="1" height="1" fill="#eaffff"/>
  <rect x="9" y="2" width="1" height="1" fill="#ecffff"/>
  <rect x="10" y="2" width="1" height="1" fill="#e8faff"/>
  <rect x="11" y="2" width="1" height="1" fill="#e8f7ff"/>
  <rect x="12" y="2" width="1" height="1" fill="#eeffff"/>
  <rect x="13" y="2" width="1" height="1" fill="#87a0aa"/>
  <rect x="1" y="3" width="1" height="1" fill="#88a8cf"/>
  <rect x="2" y="3" width="1" height="1" fill="#e2f8ff"/>
  <rect x="3" y="3" width="1" height="1" fill="#f3ffff"/>
  <rect x="4" y="3" width="1" height="1" fill="#9b9eb4"/>
  <rect x="5" y="3" width="1" height="1" fill="#999eb8"/>
  <rect x="6" y="3" width="1" height="1" fill="#94a1b6"/>
  <rect x="7" y="3" width="1" height="1" fill="#91a3b6"/>
  <rect x="8" y="3" width="1" height="1" fill="#8fa7ba"/>
  <rect x="9" y="3" width="1" height="1" fill="#93a9ba"/>
  <rect x="10" y="3" width="1" height="1" fill="#919cad"/>
  <rect x="11" y="3" width="1" height="1" fill="#f1fbff"/>
  <rect x="12" y="3" width="1" height="1" fill="#e3f9ff"/>
  <rect x="13" y="3" width="1" height="1" fill="#94abb5"/>
  <rect x="1" y="4" width="1" height="1" fill="#87a5cd"/>
  <rect x="2" y="4" width="1" height="2" fill="#e3f7ff"/>
  <rect x="3" y="4" width="1" height="4" fill="#e7f3ff"/>
  <rect x="4" y="4" width="1" height="1" fill="#f4f8ff"/>
  <rect x="5" y="4" width="1" height="1" fill="#f3f8ff"/>
  <rect x="6" y="4" width="2" height="1" fill="#eefbff"/>
  <rect x="8" y="4" width="1" height="1" fill="#f4fcff"/>
  <rect x="9" y="4" width="1" height="1" fill="#ffffff"/>
  <rect x="10" y="4" width="1" height="1" fill="#fbf3ff"/>
  <rect x="11" y="4" width="1" height="1" fill="#f3ecff"/>
  <rect x="12" y="4" width="1" height="1" fill="#eef7ff"/>
  <rect x="13" y="4" width="1" height="1" fill="#8b9aae"/>
  <rect x="1" y="5" width="1" height="1" fill="#85a3cb"/>
  <rect x="4" y="5" width="1" height="1" fill="#f0f3ff"/>
  <rect x="5" y="5" width="1" height="1" fill="#eef3ff"/>
  <rect x="6" y="5" width="1" height="1" fill="#e9f6ff"/>
  <rect x="7" y="5" width="1" height="1" fill="#e8f6ff"/>
  <rect x="8" y="5" width="1" height="1" fill="#eff6ff"/>
  <rect x="9" y="5" width="1" height="1" fill="#fdf8ff"/>
  <rect x="10" y="5" width="1" height="1" fill="#fdedfd"/>
  <rect x="11" y="5" width="1" height="1" fill="#feeeff"/>
  <rect x="12" y="5" width="1" height="1" fill="#f4eeff"/>
  <rect x="13" y="5" width="1" height="1" fill="#a3a0a8"/>
  <rect x="1" y="6" width="1" height="1" fill="#85a1ca"/>
  <rect x="2" y="6" width="1" height="1" fill="#e5f8ff"/>
  <rect x="4" y="6" width="1" height="1" fill="#9ea4b8"/>
  <rect x="5" y="6" width="1" height="1" fill="#9ea3bc"/>
  <rect x="6" y="6" width="1" height="1" fill="#97a6ba"/>
  <rect x="7" y="6" width="1" height="1" fill="#96a8b8"/>
  <rect x="8" y="6" width="1" height="1" fill="#9dadbc"/>
  <rect x="9" y="6" width="1" height="1" fill="#969ba7"/>
  <rect x="10" y="6" width="1" height="1" fill="#9f9095"/>
  <rect x="11" y="6" width="1" height="1" fill="#fae1e1"/>
  <rect x="12" y="6" width="1" height="1" fill="#ffefe6"/>
  <rect x="13" y="6" width="1" height="1" fill="#b08e73"/>
  <rect x="1" y="7" width="1" height="1" fill="#839ec7"/>
  <rect x="2" y="7" width="1" height="1" fill="#e6f8ff"/>
  <rect x="4" y="7" width="1" height="1" fill="#f5fbff"/>
  <rect x="5" y="7" width="1" height="1" fill="#f4fbff"/>
  <rect x="6" y="7" width="2" height="1" fill="#edffff"/>
  <rect x="8" y="7" width="1" height="1" fill="#edfbfd"/>
  <rect x="9" y="7" width="1" height="1" fill="#f1f2eb"/>
  <rect x="10" y="7" width="1" height="1" fill="#d5c4b3"/>
  <rect x="11" y="7" width="1" height="1" fill="#b6987e"/>
  <rect x="12" y="7" width="1" height="1" fill="#b7916e"/>
  <rect x="13" y="7" width="1" height="1" fill="#b88552"/>
  <rect x="14" y="7" width="1" height="1" fill="#c5813882"/>
  <rect x="15" y="7" width="1" height="1" fill="#bc7c380b"/>
  <rect x="1" y="8" width="1" height="1" fill="#839cc6"/>
  <rect x="2" y="8" width="1" height="1" fill="#e7f9ff"/>
  <rect x="3" y="8" width="1" height="2" fill="#d9e5f1"/>
  <rect x="4" y="8" width="1" height="1" fill="#dee4f8"/>
  <rect x="5" y="8" width="1" height="1" fill="#dbe4fc"/>
  <rect x="6" y="8" width="1" height="1" fill="#d4e8fa"/>
  <rect x="7" y="8" width="1" height="1" fill="#d9e9ea"/>
  <rect x="8" y="8" width="1" height="1" fill="#e7e9cd"/>
  <rect x="9" y="8" width="1" height="1" fill="#a4996b"/>
  <rect x="10" y="8" width="1" height="1" fill="#d0bb85"/>
  <rect x="11" y="8" width="1" height="1" fill="#ffe4a8"/>
  <rect x="12" y="8" width="1" height="1" fill="#ffe8ab"/>
  <rect x="13" y="8" width="1" height="1" fill="#ffdea3"/>
  <rect x="14" y="8" width="1" height="1" fill="#eaa96f"/>
  <rect x="15" y="8" width="1" height="1" fill="#c27f41c9"/>
  <rect x="16" y="8" width="1" height="1" fill="#bd823d0a"/>
  <rect x="1" y="9" width="1" height="1" fill="#839ac2"/>
  <rect x="2" y="9" width="1" height="1" fill="#e9f8ff"/>
  <rect x="4" y="9" width="1" height="1" fill="#9ba3b7"/>
  <rect x="5" y="9" width="1" height="1" fill="#99a3bb"/>
  <rect x="6" y="9" width="1" height="1" fill="#93a7b9"/>
  <rect x="7" y="9" width="1" height="1" fill="#9ba7a1"/>
  <rect x="8" y="9" width="1" height="1" fill="#a89d6e"/>
  <rect x="9" y="9" width="1" height="1" fill="#d4b973"/>
  <rect x="10" y="9" width="1" height="1" fill="#ffe291"/>
  <rect x="11" y="9" width="1" height="1" fill="#fdd983"/>
  <rect x="12" y="9" width="1" height="1" fill="#9f711f"/>
  <rect x="13" y="9" width="1" height="1" fill="#ffd184"/>
  <rect x="14" y="9" width="1" height="1" fill="#ffd392"/>
  <rect x="15" y="9" width="1" height="1" fill="#f0ab67"/>
  <rect x="16" y="9" width="1" height="1" fill="#c67e2788"/>
  <rect x="1" y="10" width="1" height="1" fill="#8199c1"/>
  <rect x="2" y="10" width="1" height="2" fill="#eaf9ff"/>
  <rect x="3" y="10" width="1" height="2" fill="#d9e6ef"/>
  <rect x="4" y="10" width="1" height="1" fill="#ebf3ff"/>
  <rect x="5" y="10" width="1" height="1" fill="#e8f4ff"/>
  <rect x="6" y="10" width="1" height="1" fill="#e2f8ff"/>
  <rect x="7" y="10" width="1" height="1" fill="#eff7ef"/>
  <rect x="8" y="10" width="1" height="1" fill="#ac905c"/>
  <rect x="9" y="10" width="1" height="1" fill="#f6c878"/>
  <rect x="10" y="10" width="1" height="1" fill="#ffd274"/>
  <rect x="11" y="10" width="1" height="1" fill="#f6c763"/>
  <rect x="12" y="10" width="1" height="1" fill="#b4831b"/>
  <rect x="13" y="10" width="1" height="1" fill="#ffd06b"/>
  <rect x="14" y="10" width="1" height="1" fill="#ffc86d"/>
  <rect x="15" y="10" width="1" height="1" fill="#ffc56d"/>
  <rect x="16" y="10" width="1" height="1" fill="#c17c1fe4"/>
  <rect x="1" y="11" width="1" height="1" fill="#8398c1"/>
  <rect x="4" y="11" width="1" height="1" fill="#d3dbef"/>
  <rect x="5" y="11" width="1" height="1" fill="#d0dcf3"/>
  <rect x="6" y="11" width="1" height="1" fill="#c9e0f1"/>
  <rect x="7" y="11" width="1" height="1" fill="#d6dfd5"/>
  <rect x="8" y="11" width="1" height="1" fill="#a08049"/>
  <rect x="9" y="11" width="1" height="1" fill="#ffd07a"/>
  <rect x="10" y="11" width="1" height="1" fill="#fbcb69"/>
  <rect x="11" y="11" width="1" height="1" fill="#f6c75f"/>
  <rect x="12" y="11" width="1" height="1" fill="#a6770c"/>
  <rect x="13" y="11" width="1" height="1" fill="#a2730d"/>
  <rect x="14" y="11" width="1" height="1" fill="#9b6b0c"/>
  <rect x="15" y="11" width="1" height="1" fill="#ffd075"/>
  <rect x="16" y="11" width="1" height="1" fill="#bd7a1d"/>
  <rect x="1" y="12" width="1" height="1" fill="#7e93bc"/>
  <rect x="2" y="12" width="1" height="1" fill="#e8f5ff"/>
  <rect x="3" y="12" width="1" height="1" fill="#cbd4df"/>
  <rect x="4" y="12" width="1" height="1" fill="#d1d9ed"/>
  <rect x="5" y="12" width="1" height="1" fill="#cddaf1"/>
  <rect x="6" y="12" width="1" height="1" fill="#c5deef"/>
  <rect x="7" y="12" width="1" height="1" fill="#d1ded3"/>
  <rect x="8" y="12" width="1" height="1" fill="#99854c"/>
  <rect x="9" y="12" width="1" height="1" fill="#e4c06b"/>
  <rect x="10" y="12" width="1" height="1" fill="#f5d275"/>
  <rect x="11" y="12" width="1" height="1" fill="#f0ce6c"/>
  <rect x="12" y="12" width="1" height="1" fill="#fff999"/>
  <rect x="13" y="12" width="1" height="1" fill="#fff79f"/>
  <rect x="14" y="12" width="1" height="1" fill="#ffe99d"/>
  <rect x="15" y="12" width="1" height="1" fill="#edbe73"/>
  <rect x="16" y="12" width="1" height="1" fill="#b4731ae6"/>
  <rect x="1" y="13" width="1" height="1" fill="#768bb4"/>
  <rect x="2" y="13" width="1" height="1" fill="#e9f6ff"/>
  <rect x="3" y="13" width="1" height="1" fill="#d2dbe6"/>
  <rect x="4" y="13" width="1" height="1" fill="#cbd3e7"/>
  <rect x="5" y="13" width="1" height="1" fill="#c8d4eb"/>
  <rect x="6" y="13" width="1" height="1" fill="#c0d8e9"/>
  <rect x="7" y="13" width="1" height="1" fill="#c9d8d1"/>
  <rect x="8" y="13" width="1" height="1" fill="#b4a578"/>
  <rect x="9" y="13" width="1" height="1" fill="#b49651"/>
  <rect x="10" y="13" width="1" height="1" fill="#efd180"/>
  <rect x="11" y="13" width="1" height="1" fill="#ebcb74"/>
  <rect x="12" y="13" width="1" height="1" fill="#f2cf76"/>
  <rect x="13" y="13" width="1" height="1" fill="#fdd782"/>
  <rect x="14" y="13" width="1" height="1" fill="#f1c67c"/>
  <rect x="15" y="13" width="1" height="1" fill="#cb984a"/>
  <rect x="16" y="13" width="1" height="1" fill="#b372198b"/>
  <rect x="1" y="14" width="1" height="1" fill="#8094bd"/>
  <rect x="2" y="14" width="1" height="1" fill="#e8f6ff"/>
  <rect x="3" y="14" width="1" height="1" fill="#f7ffff"/>
  <rect x="4" y="14" width="1" height="1" fill="#ebf3ff"/>
  <rect x="5" y="14" width="1" height="1" fill="#e8f4ff"/>
  <rect x="6" y="14" width="1" height="1" fill="#e0f9ff"/>
  <rect x="7" y="14" width="1" height="1" fill="#eaf7f9"/>
  <rect x="8" y="14" width="1" height="1" fill="#feedda"/>
  <rect x="9" y="14" width="1" height="1" fill="#a3835a"/>
  <rect x="10" y="14" width="1" height="1" fill="#bf9c5f"/>
  <rect x="11" y="14" width="1" height="1" fill="#e8c173"/>
  <rect x="12" y="14" width="1" height="1" fill="#f9cb6f"/>
  <rect x="13" y="14" width="1" height="1" fill="#f9c262"/>
  <rect x="14" y="14" width="1" height="1" fill="#d59a3a"/>
  <rect x="15" y="14" width="1" height="1" fill="#b37010cf"/>
  <rect x="16" y="14" width="1" height="1" fill="#b7700f0f"/>
  <rect x="1" y="15" width="1" height="1" fill="#7b8aaaca"/>
  <rect x="2" y="15" width="1" height="1" fill="#818b98"/>
  <rect x="3" y="15" width="1" height="1" fill="#8e939d"/>
  <rect x="4" y="15" width="1" height="1" fill="#888c9d"/>
  <rect x="5" y="15" width="1" height="1" fill="#858d9f"/>
  <rect x="6" y="15" width="1" height="1" fill="#7f919d"/>
  <rect x="7" y="15" width="1" height="1" fill="#858f95"/>
  <rect x="8" y="15" width="1" height="1" fill="#9f928d"/>
  <rect x="9" y="15" width="1" height="1" fill="#a98e7a"/>
  <rect x="10" y="15" width="1" height="1" fill="#8f734c"/>
  <rect x="11" y="15" width="1" height="1" fill="#8b6b34"/>
  <rect x="12" y="15" width="1" height="1" fill="#926925"/>
  <rect x="13" y="15" width="1" height="1" fill="#a07224fa"/>
  <rect x="14" y="15" width="1" height="1" fill="#a5702089"/>
  <rect x="15" y="15" width="1" height="1" fill="#9e67180d"/>
  <rect x="1" y="16" width="1" height="1" fill="#00000c14"/>
  <rect x="2" y="16" width="1" height="1" fill="#0000081a"/>
  <rect x="3" y="16" width="1" height="1" fill="#0000061a"/>
  <rect x="4" y="16" width="1" height="1" fill="#0000081a"/>
  <rect x="5" y="16" width="1" height="1" fill="#0000061a"/>
  <rect x="6" y="16" width="1" height="1" fill="#0001061a"/>
  <rect x="7" y="16" width="1" height="1" fill="#0001021a"/>
  <rect x="8" y="16" width="1" height="1" fill="#0300001a"/>
  <rect x="9" y="16" width="1" height="1" fill="#0600001a"/>
  <rect x="10" y="16" width="1" height="1" fill="#0800001a"/>
  <rect x="11" y="16" width="1" height="1" fill="#0a00001a"/>
  <rect x="12" y="16" width="1" height="1" fill="#0b00001a"/>
  <rect x="13" y="16" width="1" height="1" fill="#0e000014"/>
</svg>