<svg xmlns="http://www.w3.org/2000/svg" width="10" height="10" viewBox="0 0 10 10" shape-rendering="crispEdges">
  <rect x="2" y="0" width="1" height="1" fill="#c33d214d"/>
  <rect x="3" y="0" width="1" height="1" fill="#be462abe"/>
  <rect x="4" y="0" width="1" height="1" fill="#ba3e28f3"/>
  <rect x="5" y="0" width="1" height="1" fill="#c34333f3"/>
  <rect x="6" y="0" width="1" height="1" fill="#c74538be"/>
  <rect x="7" y="0" width="1" height="1" fill="#c83d2f4c"/>
  <rect x="1" y="1" width="1" height="1" fill="#c82e1784"/>
  <rect x="2" y="1" width="1" height="1" fill="#d25a3a"/>
  <rect x="3" y="1" width="1" height="1" fill="#f78f6d"/>
  <rect x="4" y="1" width="1" height="1" fill="#ffab8f"/>
  <rect x="5" y="1" width="1" height="1" fill="#ffb098"/>
  <rect x="6" y="1" width="1" height="1" fill="#ff9580"/>
  <rect x="7" y="1" width="1" height="1" fill="#da624d"/>
  <rect x="8" y="1" width="1" height="1" fill="#cd3c2984"/>
  <rect x="0" y="2" width="1" height="1" fill="#c536194c"/>
  <rect x="1" y="2" width="1" height="1" fill="#db5d3c"/>
  <rect x="2" y="2" width="1" height="1" fill="#fda57a"/>
  <rect x="3" y="2" width="1" height="1" fill="#ffc194"/>
  <rect x="4" y="2" width="1" height="1" fill="#ffc69d"/>
  <rect x="5" y="2" width="1" height="1" fill="#ffc7a1"/>
  <rect x="6" y="2" width="1" height="1" fill="#ffc6a1"/>
  <rect x="7" y="2" width="1" height="1" fill="#ffbe9b"/>
  <rect x="8" y="2" width="1" height="1" fill="#d56446"/>
  <rect x="9" y="2" width="1" height="1" fill="#c03c204d"/>
  <rect x="0" y="3" width="1" height="1" fill="#b93d1abe"/>
  <rect x="1" y="3" width="1" height="1" fill="#ff9871"/>
  <rect x="2" y="3" width="1" height="1" fill="#ffcf9f"/>
  <rect x="3" y="3" width="1" height="1" fill="#ecbe89"/>
  <rect x="4" y="3" width="1" height="1" fill="#e7c08d"/>
  <rect x="5" y="3" width="1" height="1" fill="#e6c595"/>
  <rect x="6" y="3" width="1" height="1" fill="#f1d2a4"/>
  <rect x="7" y="3" width="1" height="1" fill="#ffdaae"/>
  <rect x="8" y="3" width="1" height="1" fill="#ffa782"/>
  <rect x="9" y="3" width="1" height="1" fill="#b64321be"/>
  <rect x="0" y="4" width="1" height="1" fill="#a83a14f2"/>
  <rect x="1" y="4" width="1" height="1" fill="#ffbd93"/>
  <rect x="2" y="4" width="1" height="1" fill="#fcc792"/>
  <rect x="3" y="4" width="1" height="1" fill="#f8d8a0"/>
  <rect x="4" y="4" width="1" height="1" fill="#fbe2ab"/>
  <rect x="5" y="4" width="1" height="1" fill="#ffeeb9"/>
  <rect x="6" y="4" width="1" height="1" fill="#fff7c3"/>
  <rect x="7" y="4" width="1" height="1" fill="#fff1c0"/>
  <rect x="8" y="4" width="1" height="1" fill="#ffb58d"/>
  <rect x="9" y="4" width="1" height="1" fill="#ae4421f2"/>
  <rect x="0" y="5" width="1" height="1" fill="#a94018f2"/>
  <rect x="1" y="5" width="1" height="1" fill="#ffac81"/>
  <rect x="2" y="5" width="1" height="1" fill="#7f4c16"/>
  <rect x="3" y="5" width="1" height="1" fill="#d1b37b"/>
  <rect x="4" y="5" width="1" height="1" fill="#e1c891"/>
  <rect x="5" y="5" width="1" height="1" fill="#d9c28c"/>
  <rect x="6" y="5" width="1" height="1" fill="#9b8651"/>
  <rect x="7" y="5" width="1" height="1" fill="#5a2f00"/>
  <rect x="8" y="5" width="1" height="1" fill="#ffb28b"/>
  <rect x="9" y="5" width="1" height="1" fill="#ae4421f3"/>
  <rect x="0" y="6" width="1" height="1" fill="#ab3d19be"/>
  <rect x="1" y="6" width="1" height="1" fill="#ed8f66"/>
  <rect x="2" y="6" width="1" height="1" fill="#c18553"/>
  <rect x="3" y="6" width="1" height="1" fill="#805320"/>
  <rect x="4" y="6" width="1" height="1" fill="#6c3f0f"/>
  <rect x="5" y="6" width="1" height="1" fill="#6b3e0f"/>
  <rect x="6" y="6" width="1" height="1" fill="#8d5e30"/>
  <rect x="7" y="6" width="1" height="1" fill="#c7855b"/>
  <rect x="8" y="6" width="1" height="1" fill="#ef8c69"/>
  <rect x="9" y="6" width="1" height="1" fill="#b13b1cbe"/>
  <rect x="0" y="7" width="1" height="1" fill="#a92e0f4d"/>
  <rect x="1" y="7" width="1" height="1" fill="#c55937"/>
  <rect x="2" y="7" width="1" height="1" fill="#f7a57d"/>
  <rect x="3" y="7" width="1" height="1" fill="#ffbc91"/>
  <rect x="4" y="7" width="1" height="1" fill="#ffc79e"/>
  <rect x="5" y="7" width="1" height="1" fill="#ffcaa0"/>
  <rect x="6" y="7" width="1" height="1" fill="#ffbf9a"/>
  <rect x="7" y="7" width="1" height="1" fill="#ffac8a"/>
  <rect x="8" y="7" width="1" height="1" fill="#cb573a"/>
  <rect x="9" y="7" width="1" height="1" fill="#b230154d"/>
  <rect x="1" y="8" width="1" height="1" fill="#b6341984"/>
  <rect x="2" y="8" width="1" height="1" fill="#c55637"/>
  <rect x="3" y="8" width="1" height="1" fill="#f99675"/>
  <rect x="4" y="8" width="1" height="1" fill="#ffbc9b"/>
  <rect x="5" y="8" width="1" height="1" fill="#ffbd9b"/>
  <rect x="6" y="8" width="1" height="1" fill="#f69979"/>
  <rect x="7" y="8" width="1" height="1" fill="#ce6348"/>
  <rect x="8" y="8" width="1" height="1" fill="#b5301884"/>
  <rect x="2" y="9" width="1" height="1" fill="#ae30164e"/>
  <rect x="3" y="9" width="1" height="1" fill="#a63418be"/>
  <rect x="4" y="9" width="1" height="1" fill="#9e3519f4"/>
  <rect x="5" y="9" width="1" height="1" fill="#a43d20f4"/>
  <rect x="6" y="9" width="1" height="1" fill="#a63e21be"/>
  <rect x="7" y="9" width="1" height="1" fill="#ab361e4d"/>
</svg>