<svg xmlns="http://www.w3.org/2000/svg" width="76" height="19" viewBox="0 0 76 19" shape-rendering="crispEdges">
  <rect x="4" y="6" width="1" height="1" fill="#0000000e"/>
  <rect x="5" y="6" width="8" height="1" fill="#00000010"/>
  <rect x="13" y="6" width="1" height="1" fill="#0000000e"/>
  <rect x="23" y="6" width="1" height="1" fill="#0000000e"/>
  <rect x="24" y="6" width="8" height="1" fill="#00000010"/>
  <rect x="32" y="6" width="1" height="1" fill="#0000000e"/>
  <rect x="61" y="6" width="1" height="1" fill="#0000000e"/>
  <rect x="62" y="6" width="8" height="1" fill="#00000010"/>
  <rect x="70" y="6" width="1" height="1" fill="#0000000e"/>
  <rect x="3" y="7" width="1" height="1" fill="#0000001d"/>
  <rect x="4" y="7" width="1" height="1" fill="#0000002d"/>
  <rect x="5" y="7" width="8" height="1" fill="#00000030"/>
  <rect x="13" y="7" width="1" height="1" fill="#0000002d"/>
  <rect x="14" y="7" width="1" height="1" fill="#0000001d"/>
  <rect x="22" y="7" width="1" height="1" fill="#0000001d"/>
  <rect x="23" y="7" width="1" height="1" fill="#0000002d"/>
  <rect x="24" y="7" width="8" height="1" fill="#00000030"/>
  <rect x="32" y="7" width="1" height="1" fill="#0000002d"/>
  <rect x="33" y="7" width="1" height="1" fill="#0000001d"/>
  <rect x="42" y="7" width="1" height="1" fill="#0000000e"/>
  <rect x="43" y="7" width="8" height="1" fill="#00000010"/>
  <rect x="51" y="7" width="1" height="1" fill="#0000000e"/>
  <rect x="60" y="7" width="1" height="1" fill="#0000001d"/>
  <rect x="61" y="7" width="1" height="1" fill="#0000002d"/>
  <rect x="62" y="7" width="8" height="1" fill="#00000030"/>
  <rect x="70" y="7" width="1" height="1" fill="#0000002d"/>
  <rect x="71" y="7" width="1" height="1" fill="#0000001d"/>
  <rect x="2" y="8" width="1" height="1" fill="#0000000e"/>
  <rect x="3" y="8" width="1" height="1" fill="#0000002d"/>
  <rect x="4" y="8" width="8" height="1" fill="#f6f6f68c"/>
  <rect x="12" y="8" width="1" height="1" fill="#f7f7f78c"/>
  <rect x="13" y="8" width="1" height="1" fill="#f6f6f68c"/>
  <rect x="14" y="8" width="1" height="1" fill="#0000002d"/>
  <rect x="15" y="8" width="1" height="1" fill="#0101010e"/>
  <rect x="21" y="8" width="1" height="1" fill="#0000000e"/>
  <rect x="22" y="8" width="1" height="1" fill="#0000002d"/>
  <rect x="23" y="8" width="1" height="1" fill="#fcfbfccc"/>
  <rect x="24" y="8" width="9" height="1" fill="#fafafacc"/>
  <rect x="33" y="8" width="1" height="1" fill="#0000002d"/>
  <rect x="34" y="8" width="1" height="1" fill="#0000000e"/>
  <rect x="41" y="8" width="1" height="1" fill="#0000001d"/>
  <rect x="42" y="8" width="1" height="1" fill="#0202022d"/>
  <rect x="43" y="8" width="1" height="1" fill="#00000030"/>
  <rect x="44" y="8" width="7" height="1" fill="#01010130"/>
  <rect x="51" y="8" width="1" height="1" fill="#0101012d"/>
  <rect x="52" y="8" width="1" height="1" fill="#0000001d"/>
  <rect x="59" y="8" width="1" height="1" fill="#0000000e"/>
  <rect x="60" y="8" width="1" height="1" fill="#0000002d"/>
  <rect x="71" y="8" width="1" height="1" fill="#0000002d"/>
  <rect x="72" y="8" width="1" height="1" fill="#0000000e"/>
  <rect x="2" y="9" width="1" height="1" fill="#00000010"/>
  <rect x="3" y="9" width="1" height="1" fill="#00000030"/>
  <rect x="4" y="9" width="8" height="1" fill="#f8f8f88c"/>
  <rect x="12" y="9" width="1" height="1" fill="#fdfdfd8c"/>
  <rect x="13" y="9" width="1" height="1" fill="#f8f8f88c"/>
  <rect x="14" y="9" width="1" height="1" fill="#03030330"/>
  <rect x="15" y="9" width="1" height="1" fill="#03030310"/>
  <rect x="21" y="9" width="1" height="1" fill="#01010110"/>
  <rect x="22" y="9" width="1" height="1" fill="#00000030"/>
  <rect x="23" y="9" width="1" height="1" fill="#f6f6f6cc"/>
  <rect x="24" y="9" width="8" height="1" fill="#f5f5f5cc"/>
  <rect x="32" y="9" width="1" height="1" fill="#f8f8f8cc"/>
  <rect x="33" y="9" width="1" height="1" fill="#00000030"/>
  <rect x="34" y="9" width="1" height="1" fill="#03030310"/>
  <rect x="40" y="9" width="1" height="1" fill="#0000000e"/>
  <rect x="41" y="9" width="1" height="1" fill="#0000002d"/>
  <rect x="42" y="9" width="1" height="2" fill="#fafafa8c"/>
  <rect x="43" y="9" width="1" height="1" fill="#f8f8f88c"/>
  <rect x="44" y="9" width="8" height="1" fill="#f9f9f98c"/>
  <rect x="52" y="9" width="1" height="1" fill="#0000002d"/>
  <rect x="53" y="9" width="1" height="1" fill="#0101010e"/>
  <rect x="59" y="9" width="1" height="1" fill="#00000010"/>
  <rect x="60" y="9" width="1" height="1" fill="#00000030"/>
  <rect x="71" y="9" width="1" height="1" fill="#00000030"/>
  <rect x="72" y="9" width="1" height="1" fill="#00000010"/>
  <rect x="2" y="10" width="1" height="1" fill="#0101010e"/>
  <rect x="3" y="10" width="1" height="1" fill="#0000002d"/>
  <rect x="4" y="10" width="8" height="1" fill="#f7f7f78c"/>
  <rect x="12" y="10" width="1" height="1" fill="#f2f2f28c"/>
  <rect x="13" y="10" width="1" height="1" fill="#fcfbfc8c"/>
  <rect x="14" y="10" width="1" height="1" fill="#0000002d"/>
  <rect x="15" y="10" width="1" height="1" fill="#0000000e"/>
  <rect x="21" y="10" width="1" height="1" fill="#0000000e"/>
  <rect x="22" y="10" width="1" height="1" fill="#0505052d"/>
  <rect x="23" y="10" width="1" height="1" fill="#eeeeeecc"/>
  <rect x="24" y="10" width="8" height="1" fill="#f6f6f6cc"/>
  <rect x="32" y="10" width="1" height="1" fill="#f1f1f1cc"/>
  <rect x="33" y="10" width="1" height="1" fill="#0000002d"/>
  <rect x="34" y="10" width="1" height="1" fill="#0000000e"/>
  <rect x="40" y="10" width="1" height="1" fill="#00000010"/>
  <rect x="41" y="10" width="1" height="1" fill="#03030330"/>
  <rect x="43" y="10" width="1" height="1" fill="#ffffff8c"/>
  <rect x="44" y="10" width="8" height="1" fill="#f7f7f78c"/>
  <rect x="52" y="10" width="1" height="1" fill="#01010130"/>
  <rect x="53" y="10" width="1" height="1" fill="#02020210"/>
  <rect x="59" y="10" width="1" height="1" fill="#0000000e"/>
  <rect x="60" y="10" width="1" height="1" fill="#0000002d"/>
  <rect x="71" y="10" width="1" height="1" fill="#0000002d"/>
  <rect x="72" y="10" width="1" height="1" fill="#0000000e"/>
  <rect x="3" y="11" width="1" height="1" fill="#0000001d"/>
  <rect x="4" y="11" width="1" height="1" fill="#0101012d"/>
  <rect x="5" y="11" width="7" height="1" fill="#01010130"/>
  <rect x="12" y="11" width="1" height="1" fill="#00000030"/>
  <rect x="13" y="11" width="1" height="1" fill="#0606062d"/>
  <rect x="14" y="11" width="1" height="1" fill="#0101011d"/>
  <rect x="22" y="11" width="1" height="1" fill="#0202021d"/>
  <rect x="23" y="11" width="1" height="1" fill="#0303032d"/>
  <rect x="24" y="11" width="8" height="1" fill="#00000030"/>
  <rect x="32" y="11" width="1" height="1" fill="#0000002d"/>
  <rect x="33" y="11" width="1" height="1" fill="#0000001d"/>
  <rect x="40" y="11" width="1" height="1" fill="#0101010e"/>
  <rect x="41" y="11" width="1" height="1" fill="#0000002d"/>
  <rect x="42" y="11" width="1" height="1" fill="#f9f9f98c"/>
  <rect x="43" y="11" width="1" height="1" fill="#f6f6f68c"/>
  <rect x="44" y="11" width="8" height="1" fill="#fcfbfc8c"/>
  <rect x="52" y="11" width="1" height="1" fill="#0101012d"/>
  <rect x="53" y="11" width="1" height="1" fill="#0202020e"/>
  <rect x="60" y="11" width="1" height="1" fill="#0000001d"/>
  <rect x="61" y="11" width="1" height="1" fill="#0000002d"/>
  <rect x="62" y="11" width="8" height="1" fill="#00000030"/>
  <rect x="70" y="11" width="1" height="1" fill="#0000002d"/>
  <rect x="71" y="11" width="1" height="1" fill="#0000001d"/>
  <rect x="4" y="12" width="1" height="1" fill="#0101010e"/>
  <rect x="5" y="12" width="2" height="1" fill="#01010110"/>
  <rect x="7" y="12" width="6" height="1" fill="#00000010"/>
  <rect x="13" y="12" width="1" height="1" fill="#0101010e"/>
  <rect x="23" y="12" width="1" height="1" fill="#0000000e"/>
  <rect x="24" y="12" width="8" height="1" fill="#01010110"/>
  <rect x="32" y="12" width="1" height="1" fill="#0000000e"/>
  <rect x="41" y="12" width="1" height="1" fill="#0000001d"/>
  <rect x="42" y="12" width="1" height="1" fill="#0000002d"/>
  <rect x="43" y="12" width="8" height="1" fill="#00000030"/>
  <rect x="51" y="12" width="1" height="1" fill="#0000002d"/>
  <rect x="52" y="12" width="1" height="1" fill="#0000001d"/>
  <rect x="61" y="12" width="1" height="1" fill="#0000000e"/>
  <rect x="62" y="12" width="8" height="1" fill="#00000010"/>
  <rect x="70" y="12" width="1" height="1" fill="#0000000e"/>
  <rect x="42" y="13" width="1" height="1" fill="#0000000e"/>
  <rect x="43" y="13" width="5" height="1" fill="#00000010"/>
  <rect x="48" y="13" width="3" height="1" fill="#01010110"/>
  <rect x="51" y="13" width="1" height="1" fill="#0101010e"/>
</svg>