<svg xmlns="http://www.w3.org/2000/svg" width="76" height="19" viewBox="0 0 76 19" shape-rendering="crispEdges">
  <rect x="5" y="3" width="2" height="1" fill="#0000000e"/>
  <rect x="12" y="3" width="2" height="1" fill="#0303030e"/>
  <rect x="24" y="3" width="2" height="1" fill="#0000000e"/>
  <rect x="31" y="3" width="2" height="1" fill="#0000000e"/>
  <rect x="62" y="3" width="2" height="1" fill="#0000000e"/>
  <rect x="69" y="3" width="2" height="1" fill="#0000000e"/>
  <rect x="4" y="4" width="1" height="1" fill="#0707071d"/>
  <rect x="5" y="4" width="1" height="1" fill="#0000002d"/>
  <rect x="6" y="4" width="1" height="1" fill="#0101012d"/>
  <rect x="7" y="4" width="1" height="1" fill="#01010120"/>
  <rect x="8" y="4" width="1" height="1" fill="#0000000d"/>
  <rect x="10" y="4" width="1" height="1" fill="#0000000d"/>
  <rect x="11" y="4" width="1" height="1" fill="#00000020"/>
  <rect x="12" y="4" width="1" height="1" fill="#0303032d"/>
  <rect x="13" y="4" width="1" height="1" fill="#0000002d"/>
  <rect x="14" y="4" width="1" height="1" fill="#0909091d"/>
  <rect x="23" y="4" width="1" height="1" fill="#0000001d"/>
  <rect x="24" y="4" width="1" height="1" fill="#0808082d"/>
  <rect x="25" y="4" width="1" height="1" fill="#0000002d"/>
  <rect x="26" y="4" width="1" height="1" fill="#00000020"/>
  <rect x="27" y="4" width="1" height="1" fill="#0202020d"/>
  <rect x="29" y="4" width="1" height="1" fill="#0303030d"/>
  <rect x="30" y="4" width="1" height="1" fill="#03030320"/>
  <rect x="31" y="4" width="1" height="1" fill="#0202022d"/>
  <rect x="32" y="4" width="1" height="1" fill="#0000002d"/>
  <rect x="33" y="4" width="1" height="1" fill="#0000001d"/>
  <rect x="43" y="4" width="1" height="1" fill="#0505050e"/>
  <rect x="44" y="4" width="1" height="1" fill="#0909090e"/>
  <rect x="50" y="4" width="1" height="1" fill="#0101010e"/>
  <rect x="51" y="4" width="1" height="1" fill="#0000000e"/>
  <rect x="61" y="4" width="1" height="1" fill="#0000001d"/>
  <rect x="62" y="4" width="2" height="1" fill="#0000002d"/>
  <rect x="64" y="4" width="1" height="1" fill="#00000020"/>
  <rect x="65" y="4" width="1" height="1" fill="#0000000d"/>
  <rect x="67" y="4" width="1" height="1" fill="#0000000d"/>
  <rect x="68" y="4" width="1" height="1" fill="#00000020"/>
  <rect x="69" y="4" width="2" height="1" fill="#0000002d"/>
  <rect x="71" y="4" width="1" height="1" fill="#0000001d"/>
  <rect x="3" y="5" width="1" height="2" fill="#0000000e"/>
  <rect x="4" y="5" width="1" height="2" fill="#0000002d"/>
  <rect x="5" y="5" width="1" height="1" fill="#efefef8c"/>
  <rect x="6" y="5" width="1" height="1" fill="#fafafa8c"/>
  <rect x="7" y="5" width="1" height="1" fill="#00000035"/>
  <rect x="8" y="5" width="1" height="1" fill="#03030322"/>
  <rect x="9" y="5" width="1" height="1" fill="#02020216"/>
  <rect x="10" y="5" width="1" height="1" fill="#0c0c0c22"/>
  <rect x="11" y="5" width="1" height="1" fill="#00000035"/>
  <rect x="12" y="5" width="1" height="1" fill="#f6f6f68c"/>
  <rect x="13" y="5" width="1" height="1" fill="#efefef8c"/>
  <rect x="14" y="5" width="1" height="1" fill="#0505052d"/>
  <rect x="15" y="5" width="1" height="1" fill="#0606060e"/>
  <rect x="22" y="5" width="1" height="2" fill="#0000000e"/>
  <rect x="23" y="5" width="1" height="2" fill="#0000002d"/>
  <rect x="24" y="5" width="1" height="1" fill="#f7f7f7cc"/>
  <rect x="25" y="5" width="1" height="1" fill="#f5f5f5cc"/>
  <rect x="26" y="5" width="1" height="1" fill="#00000035"/>
  <rect x="27" y="5" width="1" height="1" fill="#00000022"/>
  <rect x="28" y="5" width="1" height="1" fill="#03030316"/>
  <rect x="29" y="5" width="1" height="1" fill="#06060622"/>
  <rect x="30" y="5" width="1" height="1" fill="#00000035"/>
  <rect x="31" y="5" width="1" height="1" fill="#f5f5f5cc"/>
  <rect x="32" y="5" width="1" height="1" fill="#f6f6f6cc"/>
  <rect x="33" y="5" width="1" height="2" fill="#0606062d"/>
  <rect x="34" y="5" width="1" height="2" fill="#0000000e"/>
  <rect x="42" y="5" width="1" height="1" fill="#0303031d"/>
  <rect x="43" y="5" width="1" height="1" fill="#0606062d"/>
  <rect x="44" y="5" width="1" height="1" fill="#0303032d"/>
  <rect x="45" y="5" width="1" height="1" fill="#00000020"/>
  <rect x="46" y="5" width="1" height="1" fill="#0000000d"/>
  <rect x="48" y="5" width="1" height="1" fill="#0000000d"/>
  <rect x="49" y="5" width="1" height="1" fill="#01010120"/>
  <rect x="50" y="5" width="1" height="1" fill="#0000002d"/>
  <rect x="51" y="5" width="1" height="1" fill="#0303032d"/>
  <rect x="52" y="5" width="1" height="1" fill="#0000001d"/>
  <rect x="60" y="5" width="1" height="2" fill="#0000000e"/>
  <rect x="61" y="5" width="1" height="2" fill="#0000002d"/>
  <rect x="64" y="5" width="1" height="1" fill="#00000035"/>
  <rect x="65" y="5" width="1" height="1" fill="#00000022"/>
  <rect x="66" y="5" width="1" height="1" fill="#00000016"/>
  <rect x="67" y="5" width="1" height="1" fill="#00000022"/>
  <rect x="68" y="5" width="1" height="1" fill="#00000035"/>
  <rect x="71" y="5" width="1" height="2" fill="#0000002d"/>
  <rect x="72" y="5" width="1" height="2" fill="#0000000e"/>
  <rect x="5" y="6" width="1" height="1" fill="#ffffff8c"/>
  <rect x="6" y="6" width="1" height="1" fill="#f7f7f78c"/>
  <rect x="7" y="6" width="1" height="1" fill="#f6f6f68c"/>
  <rect x="8" y="6" width="1" height="1" fill="#01010135"/>
  <rect x="9" y="6" width="1" height="1" fill="#0606062e"/>
  <rect x="10" y="6" width="1" height="1" fill="#05050535"/>
  <rect x="11" y="6" width="1" height="1" fill="#f2f2f28c"/>
  <rect x="12" y="6" width="1" height="1" fill="#f3f3f38c"/>
  <rect x="13" y="6" width="1" height="1" fill="#f5f5f58c"/>
  <rect x="14" y="6" width="1" height="1" fill="#0000002d"/>
  <rect x="15" y="6" width="1" height="1" fill="#0000000e"/>
  <rect x="24" y="6" width="1" height="1" fill="#f9f9f9cc"/>
  <rect x="25" y="6" width="1" height="1" fill="#fafafacc"/>
  <rect x="26" y="6" width="1" height="1" fill="#f5f5f5cc"/>
  <rect x="27" y="6" width="1" height="1" fill="#00000035"/>
  <rect x="28" y="6" width="1" height="1" fill="#0303032e"/>
  <rect x="29" y="6" width="1" height="1" fill="#00000035"/>
  <rect x="30" y="6" width="1" height="1" fill="#ffffffcc"/>
  <rect x="31" y="6" width="2" height="1" fill="#f6f6f6cc"/>
  <rect x="41" y="6" width="1" height="1" fill="#0202020e"/>
  <rect x="42" y="6" width="1" height="1" fill="#0000002d"/>
  <rect x="43" y="6" width="1" height="1" fill="#f7f7f78c"/>
  <rect x="44" y="6" width="1" height="1" fill="#f6f6f68c"/>
  <rect x="45" y="6" width="1" height="1" fill="#05050535"/>
  <rect x="46" y="6" width="1" height="1" fill="#03030322"/>
  <rect x="47" y="6" width="1" height="1" fill="#01010116"/>
  <rect x="48" y="6" width="1" height="1" fill="#00000022"/>
  <rect x="49" y="6" width="1" height="1" fill="#09090935"/>
  <rect x="50" y="6" width="1" height="1" fill="#f9f9f98c"/>
  <rect x="51" y="6" width="1" height="1" fill="#f7f7f78c"/>
  <rect x="52" y="6" width="1" height="2" fill="#0000002d"/>
  <rect x="53" y="6" width="1" height="2" fill="#0202020e"/>
  <rect x="65" y="6" width="1" height="1" fill="#00000035"/>
  <rect x="66" y="6" width="1" height="1" fill="#0000002e"/>
  <rect x="67" y="6" width="1" height="1" fill="#00000035"/>
  <rect x="4" y="7" width="1" height="1" fill="#00000020"/>
  <rect x="5" y="7" width="1" height="1" fill="#02020235"/>
  <rect x="6" y="7" width="1" height="1" fill="#f6f6f68c"/>
  <rect x="7" y="7" width="1" height="1" fill="#fafafa8c"/>
  <rect x="8" y="7" width="1" height="2" fill="#fdfdfd8c"/>
  <rect x="9" y="7" width="1" height="1" fill="#0303033d"/>
  <rect x="10" y="7" width="1" height="1" fill="#f8f8f88c"/>
  <rect x="11" y="7" width="1" height="1" fill="#fdfdfd8c"/>
  <rect x="12" y="7" width="1" height="1" fill="#efefef8c"/>
  <rect x="13" y="7" width="1" height="1" fill="#06060635"/>
  <rect x="14" y="7" width="1" height="1" fill="#01010120"/>
  <rect x="23" y="7" width="1" height="1" fill="#00000020"/>
  <rect x="24" y="7" width="1" height="1" fill="#03030335"/>
  <rect x="25" y="7" width="1" height="1" fill="#f8f8f8cc"/>
  <rect x="26" y="7" width="1" height="1" fill="#f9f9f9cc"/>
  <rect x="27" y="7" width="1" height="1" fill="#f0f0f0cc"/>
  <rect x="28" y="7" width="1" height="1" fill="#0303033d"/>
  <rect x="29" y="7" width="1" height="1" fill="#f5f5f5cc"/>
  <rect x="30" y="7" width="1" height="1" fill="#f6f6f6cc"/>
  <rect x="31" y="7" width="1" height="1" fill="#f9f9f9cc"/>
  <rect x="32" y="7" width="1" height="1" fill="#00000035"/>
  <rect x="33" y="7" width="1" height="1" fill="#00000020"/>
  <rect x="41" y="7" width="1" height="1" fill="#0101010e"/>
  <rect x="42" y="7" width="1" height="1" fill="#0101012d"/>
  <rect x="43" y="7" width="1" height="1" fill="#f3f3f38c"/>
  <rect x="44" y="7" width="1" height="1" fill="#fdfdfd8c"/>
  <rect x="45" y="7" width="1" height="1" fill="#f9f9f98c"/>
  <rect x="46" y="7" width="1" height="1" fill="#00000035"/>
  <rect x="47" y="7" width="1" height="1" fill="#0000002e"/>
  <rect x="48" y="7" width="1" height="1" fill="#00000035"/>
  <rect x="49" y="7" width="2" height="1" fill="#f2f2f28c"/>
  <rect x="51" y="7" width="1" height="1" fill="#fefefe8c"/>
  <rect x="61" y="7" width="1" height="1" fill="#00000020"/>
  <rect x="62" y="7" width="1" height="1" fill="#00000035"/>
  <rect x="66" y="7" width="1" height="1" fill="#0000003d"/>
  <rect x="70" y="7" width="1" height="1" fill="#00000035"/>
  <rect x="71" y="7" width="1" height="1" fill="#00000020"/>
  <rect x="4" y="8" width="1" height="1" fill="#0000000d"/>
  <rect x="5" y="8" width="1" height="1" fill="#01010122"/>
  <rect x="6" y="8" width="1" height="1" fill="#00000035"/>
  <rect x="7" y="8" width="1" height="1" fill="#f6f6f68c"/>
  <rect x="9" y="8" width="2" height="1" fill="#f2f2f28c"/>
  <rect x="11" y="8" width="1" height="1" fill="#f1f1f18c"/>
  <rect x="12" y="8" width="1" height="1" fill="#00000035"/>
  <rect x="13" y="8" width="1" height="1" fill="#07070722"/>
  <rect x="14" y="8" width="1" height="1" fill="#0101010d"/>
  <rect x="23" y="8" width="1" height="1" fill="#0000000d"/>
  <rect x="24" y="8" width="1" height="1" fill="#00000022"/>
  <rect x="25" y="8" width="1" height="1" fill="#00000035"/>
  <rect x="26" y="8" width="1" height="1" fill="#f7f7f7cc"/>
  <rect x="27" y="8" width="1" height="1" fill="#f5f5f5cc"/>
  <rect x="28" y="8" width="1" height="1" fill="#f9f9f9cc"/>
  <rect x="29" y="8" width="1" height="1" fill="#efefefcc"/>
  <rect x="30" y="8" width="1" height="1" fill="#f9f9f9cc"/>
  <rect x="31" y="8" width="1" height="1" fill="#02020235"/>
  <rect x="32" y="8" width="1" height="1" fill="#01010122"/>
  <rect x="33" y="8" width="1" height="1" fill="#0303030d"/>
  <rect x="42" y="8" width="1" height="1" fill="#03030320"/>
  <rect x="43" y="8" width="1" height="1" fill="#00000035"/>
  <rect x="44" y="8" width="1" height="1" fill="#f1f1f18c"/>
  <rect x="45" y="8" width="1" height="1" fill="#f6f6f68c"/>
  <rect x="46" y="8" width="1" height="1" fill="#f9f9f98c"/>
  <rect x="47" y="8" width="1" height="1" fill="#0101013d"/>
  <rect x="48" y="8" width="1" height="1" fill="#fafafa8c"/>
  <rect x="49" y="8" width="1" height="1" fill="#f7f7f78c"/>
  <rect x="50" y="8" width="1" height="1" fill="#fcfbfc8c"/>
  <rect x="51" y="8" width="1" height="1" fill="#00000035"/>
  <rect x="52" y="8" width="1" height="1" fill="#00000020"/>
  <rect x="61" y="8" width="1" height="1" fill="#0000000d"/>
  <rect x="62" y="8" width="1" height="1" fill="#00000022"/>
  <rect x="63" y="8" width="1" height="1" fill="#00000035"/>
  <rect x="69" y="8" width="1" height="1" fill="#00000035"/>
  <rect x="70" y="8" width="1" height="1" fill="#00000022"/>
  <rect x="71" y="8" width="1" height="1" fill="#0000000d"/>
  <rect x="5" y="9" width="1" height="1" fill="#06060616"/>
  <rect x="6" y="9" width="1" height="1" fill="#0202022e"/>
  <rect x="7" y="9" width="1" height="1" fill="#0000003d"/>
  <rect x="8" y="9" width="1" height="1" fill="#f0f0f08c"/>
  <rect x="9" y="9" width="1" height="2" fill="#fafafa8c"/>
  <rect x="10" y="9" width="1" height="1" fill="#fcfbfc8c"/>
  <rect x="11" y="9" width="1" height="1" fill="#0505053d"/>
  <rect x="12" y="9" width="1" height="1" fill="#0000002e"/>
  <rect x="13" y="9" width="1" height="1" fill="#06060616"/>
  <rect x="24" y="9" width="1" height="1" fill="#01010116"/>
  <rect x="25" y="9" width="1" height="1" fill="#0000002e"/>
  <rect x="26" y="9" width="1" height="1" fill="#0303033d"/>
  <rect x="27" y="9" width="1" height="1" fill="#f9f9f9cc"/>
  <rect x="28" y="9" width="1" height="1" fill="#f1f1f1cc"/>
  <rect x="29" y="9" width="1" height="1" fill="#f5f5f5cc"/>
  <rect x="30" y="9" width="1" height="1" fill="#0000003d"/>
  <rect x="31" y="9" width="1" height="1" fill="#0707072e"/>
  <rect x="32" y="9" width="1" height="1" fill="#05050516"/>
  <rect x="42" y="9" width="1" height="1" fill="#0000000d"/>
  <rect x="43" y="9" width="1" height="1" fill="#00000022"/>
  <rect x="44" y="9" width="1" height="1" fill="#00000035"/>
  <rect x="45" y="9" width="1" height="1" fill="#f2f2f28c"/>
  <rect x="46" y="9" width="1" height="2" fill="#fafafa8c"/>
  <rect x="47" y="9" width="1" height="2" fill="#f7f7f78c"/>
  <rect x="48" y="9" width="1" height="1" fill="#f6f6f68c"/>
  <rect x="49" y="9" width="1" height="1" fill="#fafafa8c"/>
  <rect x="50" y="9" width="1" height="1" fill="#07070735"/>
  <rect x="51" y="9" width="1" height="1" fill="#00000022"/>
  <rect x="52" y="9" width="1" height="1" fill="#0101010d"/>
  <rect x="62" y="9" width="1" height="1" fill="#00000016"/>
  <rect x="63" y="9" width="1" height="1" fill="#0000002e"/>
  <rect x="64" y="9" width="1" height="1" fill="#0000003d"/>
  <rect x="68" y="9" width="1" height="1" fill="#0000003d"/>
  <rect x="69" y="9" width="1" height="1" fill="#0000002e"/>
  <rect x="70" y="9" width="1" height="1" fill="#00000016"/>
  <rect x="4" y="10" width="1" height="1" fill="#0000000d"/>
  <rect x="5" y="10" width="1" height="1" fill="#00000022"/>
  <rect x="6" y="10" width="1" height="1" fill="#02020235"/>
  <rect x="7" y="10" width="1" height="1" fill="#efefef8c"/>
  <rect x="8" y="10" width="1" height="1" fill="#f1f1f18c"/>
  <rect x="10" y="10" width="1" height="1" fill="#efefef8c"/>
  <rect x="11" y="10" width="1" height="1" fill="#fafafa8c"/>
  <rect x="12" y="10" width="1" height="1" fill="#05050535"/>
  <rect x="13" y="10" width="1" height="1" fill="#00000022"/>
  <rect x="14" y="10" width="1" height="1" fill="#0808080d"/>
  <rect x="23" y="10" width="1" height="1" fill="#0000000d"/>
  <rect x="24" y="10" width="1" height="1" fill="#00000022"/>
  <rect x="25" y="10" width="1" height="1" fill="#05050535"/>
  <rect x="26" y="10" width="1" height="1" fill="#f5f5f5cc"/>
  <rect x="27" y="10" width="1" height="1" fill="#f2f2f2cc"/>
  <rect x="28" y="10" width="1" height="1" fill="#fafafacc"/>
  <rect x="29" y="10" width="1" height="1" fill="#f7f7f7cc"/>
  <rect x="30" y="10" width="1" height="2" fill="#fafafacc"/>
  <rect x="31" y="10" width="1" height="1" fill="#06060635"/>
  <rect x="32" y="10" width="1" height="1" fill="#00000022"/>
  <rect x="33" y="10" width="1" height="1" fill="#0707070d"/>
  <rect x="43" y="10" width="1" height="1" fill="#00000016"/>
  <rect x="44" y="10" width="1" height="1" fill="#0606062e"/>
  <rect x="45" y="10" width="1" height="1" fill="#0000003d"/>
  <rect x="48" y="10" width="1" height="2" fill="#f5f5f58c"/>
  <rect x="49" y="10" width="1" height="1" fill="#0000003d"/>
  <rect x="50" y="10" width="1" height="1" fill="#0202022e"/>
  <rect x="51" y="10" width="1" height="1" fill="#01010116"/>
  <rect x="61" y="10" width="1" height="1" fill="#0000000d"/>
  <rect x="62" y="10" width="1" height="1" fill="#00000022"/>
  <rect x="63" y="10" width="1" height="1" fill="#00000035"/>
  <rect x="69" y="10" width="1" height="1" fill="#00000035"/>
  <rect x="70" y="10" width="1" height="1" fill="#00000022"/>
  <rect x="71" y="10" width="1" height="1" fill="#0000000d"/>
  <rect x="4" y="11" width="1" height="1" fill="#03030320"/>
  <rect x="5" y="11" width="1" height="1" fill="#02020235"/>
  <rect x="6" y="11" width="1" height="1" fill="#f0f0f08c"/>
  <rect x="7" y="11" width="1" height="1" fill="#f3f3f38c"/>
  <rect x="8" y="11" width="1" height="1" fill="#f2f2f28c"/>
  <rect x="9" y="11" width="1" height="1" fill="#0303033d"/>
  <rect x="10" y="11" width="2" height="1" fill="#f8f8f88c"/>
  <rect x="12" y="11" width="1" height="1" fill="#f7f7f78c"/>
  <rect x="13" y="11" width="1" height="1" fill="#08080835"/>
  <rect x="14" y="11" width="1" height="1" fill="#01010120"/>
  <rect x="23" y="11" width="1" height="1" fill="#00000020"/>
  <rect x="24" y="11" width="1" height="1" fill="#07070735"/>
  <rect x="25" y="11" width="1" height="1" fill="#f3f3f3cc"/>
  <rect x="26" y="11" width="1" height="1" fill="#fafafacc"/>
  <rect x="27" y="11" width="1" height="1" fill="#f5f5f5cc"/>
  <rect x="28" y="11" width="1" height="1" fill="#0000003d"/>
  <rect x="29" y="11" width="1" height="1" fill="#f9f9f9cc"/>
  <rect x="31" y="11" width="1" height="1" fill="#f6f6f6cc"/>
  <rect x="32" y="11" width="1" height="1" fill="#03030335"/>
  <rect x="33" y="11" width="1" height="1" fill="#00000020"/>
  <rect x="42" y="11" width="1" height="1" fill="#0707070d"/>
  <rect x="43" y="11" width="1" height="1" fill="#05050522"/>
  <rect x="44" y="11" width="1" height="1" fill="#01010135"/>
  <rect x="45" y="11" width="1" height="1" fill="#f6f6f68c"/>
  <rect x="46" y="11" width="1" height="1" fill="#f3f3f38c"/>
  <rect x="47" y="11" width="1" height="1" fill="#fcfbfc8c"/>
  <rect x="49" y="11" width="1" height="1" fill="#f8f8f88c"/>
  <rect x="50" y="11" width="1" height="1" fill="#01010135"/>
  <rect x="51" y="11" width="1" height="1" fill="#02020222"/>
  <rect x="52" y="11" width="1" height="1" fill="#0000000d"/>
  <rect x="61" y="11" width="1" height="1" fill="#00000020"/>
  <rect x="62" y="11" width="1" height="1" fill="#00000035"/>
  <rect x="66" y="11" width="1" height="1" fill="#0000003d"/>
  <rect x="70" y="11" width="1" height="1" fill="#00000035"/>
  <rect x="71" y="11" width="1" height="1" fill="#00000020"/>
  <rect x="3" y="12" width="1" height="2" fill="#0202020e"/>
  <rect x="4" y="12" width="1" height="1" fill="#0505052d"/>
  <rect x="5" y="12" width="1" height="1" fill="#f7f7f78c"/>
  <rect x="6" y="12" width="1" height="1" fill="#f5f5f58c"/>
  <rect x="7" y="12" width="1" height="1" fill="#f0f0f08c"/>
  <rect x="8" y="12" width="1" height="1" fill="#03030335"/>
  <rect x="9" y="12" width="1" height="1" fill="#0000002e"/>
  <rect x="10" y="12" width="1" height="1" fill="#06060635"/>
  <rect x="11" y="12" width="1" height="1" fill="#f6f6f68c"/>
  <rect x="12" y="12" width="1" height="1" fill="#fefefe8c"/>
  <rect x="13" y="12" width="1" height="1" fill="#f9f9f98c"/>
  <rect x="14" y="12" width="1" height="2" fill="#0000002d"/>
  <rect x="15" y="12" width="1" height="1" fill="#0606060e"/>
  <rect x="22" y="12" width="1" height="2" fill="#0000000e"/>
  <rect x="23" y="12" width="1" height="2" fill="#0000002d"/>
  <rect x="24" y="12" width="2" height="1" fill="#f7f7f7cc"/>
  <rect x="26" y="12" width="1" height="1" fill="#eeeeeecc"/>
  <rect x="27" y="12" width="1" height="1" fill="#01010135"/>
  <rect x="28" y="12" width="1" height="1" fill="#0000002e"/>
  <rect x="29" y="12" width="1" height="1" fill="#05050535"/>
  <rect x="30" y="12" width="1" height="1" fill="#f3f3f3cc"/>
  <rect x="31" y="12" width="2" height="1" fill="#f9f9f9cc"/>
  <rect x="33" y="12" width="1" height="1" fill="#0303032d"/>
  <rect x="34" y="12" width="1" height="1" fill="#0000000e"/>
  <rect x="42" y="12" width="1" height="1" fill="#00000020"/>
  <rect x="43" y="12" width="1" height="1" fill="#00000035"/>
  <rect x="44" y="12" width="1" height="1" fill="#f9f9f98c"/>
  <rect x="45" y="12" width="1" height="1" fill="#fafafa8c"/>
  <rect x="46" y="12" width="1" height="1" fill="#f5f5f58c"/>
  <rect x="47" y="12" width="1" height="1" fill="#0707073d"/>
  <rect x="48" y="12" width="1" height="1" fill="#f8f8f88c"/>
  <rect x="49" y="12" width="1" height="1" fill="#f9f9f98c"/>
  <rect x="50" y="12" width="1" height="1" fill="#f6f6f68c"/>
  <rect x="51" y="12" width="1" height="1" fill="#06060635"/>
  <rect x="52" y="12" width="1" height="1" fill="#02020220"/>
  <rect x="60" y="12" width="1" height="2" fill="#0000000e"/>
  <rect x="61" y="12" width="1" height="2" fill="#0000002d"/>
  <rect x="65" y="12" width="1" height="1" fill="#00000035"/>
  <rect x="66" y="12" width="1" height="1" fill="#0000002e"/>
  <rect x="67" y="12" width="1" height="1" fill="#00000035"/>
  <rect x="71" y="12" width="1" height="2" fill="#0000002d"/>
  <rect x="72" y="12" width="1" height="2" fill="#0000000e"/>
  <rect x="4" y="13" width="1" height="1" fill="#0000002d"/>
  <rect x="5" y="13" width="1" height="1" fill="#f0f0f08c"/>
  <rect x="6" y="13" width="1" height="1" fill="#f6f6f68c"/>
  <rect x="7" y="13" width="1" height="1" fill="#07070735"/>
  <rect x="8" y="13" width="1" height="1" fill="#00000022"/>
  <rect x="9" y="13" width="1" height="1" fill="#03030316"/>
  <rect x="10" y="13" width="1" height="1" fill="#06060622"/>
  <rect x="11" y="13" width="1" height="1" fill="#00000035"/>
  <rect x="12" y="13" width="1" height="1" fill="#fcfbfc8c"/>
  <rect x="13" y="13" width="1" height="1" fill="#f6f6f68c"/>
  <rect x="15" y="13" width="1" height="1" fill="#0101010e"/>
  <rect x="24" y="13" width="1" height="1" fill="#f7f7f7cc"/>
  <rect x="25" y="13" width="1" height="1" fill="#f5f5f5cc"/>
  <rect x="26" y="13" width="1" height="1" fill="#02020235"/>
  <rect x="27" y="13" width="1" height="1" fill="#00000022"/>
  <rect x="28" y="13" width="1" height="1" fill="#00000016"/>
  <rect x="29" y="13" width="1" height="1" fill="#00000022"/>
  <rect x="30" y="13" width="1" height="1" fill="#00000035"/>
  <rect x="31" y="13" width="1" height="1" fill="#f3f3f3cc"/>
  <rect x="32" y="13" width="1" height="1" fill="#f6f6f6cc"/>
  <rect x="33" y="13" width="1" height="1" fill="#0000002d"/>
  <rect x="34" y="13" width="1" height="1" fill="#0101010e"/>
  <rect x="41" y="13" width="1" height="2" fill="#0000000e"/>
  <rect x="42" y="13" width="1" height="2" fill="#0303032d"/>
  <rect x="43" y="13" width="1" height="2" fill="#f6f6f68c"/>
  <rect x="44" y="13" width="1" height="1" fill="#f7f7f78c"/>
  <rect x="45" y="13" width="1" height="1" fill="#f3f3f38c"/>
  <rect x="46" y="13" width="1" height="1" fill="#06060635"/>
  <rect x="47" y="13" width="1" height="1" fill="#0101012e"/>
  <rect x="48" y="13" width="1" height="1" fill="#00000035"/>
  <rect x="49" y="13" width="1" height="1" fill="#fafafa8c"/>
  <rect x="50" y="13" width="1" height="1" fill="#f7f7f78c"/>
  <rect x="51" y="13" width="1" height="1" fill="#f9f9f98c"/>
  <rect x="52" y="13" width="1" height="1" fill="#0202022d"/>
  <rect x="53" y="13" width="1" height="2" fill="#0000000e"/>
  <rect x="64" y="13" width="1" height="1" fill="#00000035"/>
  <rect x="65" y="13" width="1" height="1" fill="#00000022"/>
  <rect x="66" y="13" width="1" height="1" fill="#00000016"/>
  <rect x="67" y="13" width="1" height="1" fill="#00000022"/>
  <rect x="68" y="13" width="1" height="1" fill="#00000035"/>
  <rect x="4" y="14" width="1" height="1" fill="#0909091d"/>
  <rect x="5" y="14" width="1" height="1" fill="#0606062d"/>
  <rect x="6" y="14" width="1" height="1" fill="#0000002d"/>
  <rect x="7" y="14" width="1" height="1" fill="#00000020"/>
  <rect x="8" y="14" width="1" height="1" fill="#0000000d"/>
  <rect x="10" y="14" width="1" height="1" fill="#0505050d"/>
  <rect x="11" y="14" width="1" height="1" fill="#00000020"/>
  <rect x="12" y="14" width="2" height="1" fill="#0000002d"/>
  <rect x="14" y="14" width="1" height="1" fill="#0303031d"/>
  <rect x="23" y="14" width="1" height="1" fill="#0000001d"/>
  <rect x="24" y="14" width="2" height="1" fill="#0101012d"/>
  <rect x="26" y="14" width="1" height="1" fill="#01010120"/>
  <rect x="27" y="14" width="1" height="1" fill="#0202020d"/>
  <rect x="29" y="14" width="1" height="1" fill="#0303030d"/>
  <rect x="30" y="14" width="1" height="1" fill="#00000020"/>
  <rect x="31" y="14" width="1" height="1" fill="#0606062d"/>
  <rect x="32" y="14" width="1" height="1" fill="#0000002d"/>
  <rect x="33" y="14" width="1" height="1" fill="#0303031d"/>
  <rect x="44" y="14" width="1" height="1" fill="#f3f3f38c"/>
  <rect x="45" y="14" width="1" height="1" fill="#02020235"/>
  <rect x="46" y="14" width="1" height="1" fill="#00000022"/>
  <rect x="47" y="14" width="1" height="1" fill="#00000016"/>
  <rect x="48" y="14" width="1" height="1" fill="#00000022"/>
  <rect x="49" y="14" width="1" height="1" fill="#0c0c0c35"/>
  <rect x="50" y="14" width="1" height="1" fill="#fafafa8c"/>
  <rect x="51" y="14" width="1" height="1" fill="#f6f6f68c"/>
  <rect x="52" y="14" width="1" height="1" fill="#0101012d"/>
  <rect x="61" y="14" width="1" height="1" fill="#0000001d"/>
  <rect x="62" y="14" width="2" height="1" fill="#0000002d"/>
  <rect x="64" y="14" width="1" height="1" fill="#00000020"/>
  <rect x="65" y="14" width="1" height="1" fill="#0000000d"/>
  <rect x="67" y="14" width="1" height="1" fill="#0000000d"/>
  <rect x="68" y="14" width="1" height="1" fill="#00000020"/>
  <rect x="69" y="14" width="2" height="1" fill="#0000002d"/>
  <rect x="71" y="14" width="1" height="1" fill="#0000001d"/>
  <rect x="5" y="15" width="1" height="1" fill="#0707070e"/>
  <rect x="6" y="15" width="1" height="1" fill="#0000000e"/>
  <rect x="12" y="15" width="2" height="1" fill="#0000000e"/>
  <rect x="24" y="15" width="1" height="1" fill="#0202020e"/>
  <rect x="25" y="15" width="1" height="1" fill="#0303030e"/>
  <rect x="31" y="15" width="2" height="1" fill="#0000000e"/>
  <rect x="42" y="15" width="1" height="1" fill="#0000001d"/>
  <rect x="43" y="15" width="2" height="1" fill="#0000002d"/>
  <rect x="45" y="15" width="1" height="1" fill="#01010120"/>
  <rect x="46" y="15" width="1" height="1" fill="#0000000d"/>
  <rect x="48" y="15" width="1" height="1" fill="#0101010d"/>
  <rect x="49" y="15" width="1" height="1" fill="#01010120"/>
  <rect x="50" y="15" width="2" height="1" fill="#0000002d"/>
  <rect x="52" y="15" width="1" height="1" fill="#0101011d"/>
  <rect x="62" y="15" width="2" height="1" fill="#0000000e"/>
  <rect x="69" y="15" width="2" height="1" fill="#0000000e"/>
  <rect x="43" y="16" width="2" height="1" fill="#0000000e"/>
  <rect x="50" y="16" width="2" height="1" fill="#0000000e"/>
</svg>