<svg xmlns="http://www.w3.org/2000/svg" width="10" height="10" viewBox="0 0 10 10" shape-rendering="crispEdges">
  <rect x="2" y="0" width="1" height="1" fill="#f5785783"/>
  <rect x="3" y="0" width="1" height="1" fill="#e96846ee"/>
  <rect x="4" y="0" width="2" height="1" fill="#d94e29fe"/>
  <rect x="6" y="0" width="1" height="1" fill="#ed6747ee"/>
  <rect x="7" y="0" width="1" height="1" fill="#ff826681"/>
  <rect x="1" y="1" width="1" height="1" fill="#f57d5dc4"/>
  <rect x="2" y="1" width="2" height="1" fill="#c34f34"/>
  <rect x="4" y="1" width="1" height="1" fill="#be4626"/>
  <rect x="5" y="1" width="1" height="1" fill="#c74d2b"/>
  <rect x="6" y="1" width="1" height="1" fill="#cd5130"/>
  <rect x="7" y="1" width="1" height="1" fill="#c34929"/>
  <rect x="8" y="1" width="1" height="1" fill="#ef7b60c4"/>
  <rect x="0" y="2" width="1" height="1" fill="#fa825481"/>
  <rect x="1" y="2" width="1" height="1" fill="#c2512e"/>
  <rect x="2" y="2" width="1" height="1" fill="#b34f41"/>
  <rect x="3" y="2" width="1" height="1" fill="#fca39a"/>
  <rect x="4" y="2" width="1" height="1" fill="#ffdac8"/>
  <rect x="5" y="2" width="1" height="1" fill="#fda98f"/>
  <rect x="6" y="2" width="1" height="1" fill="#bd5332"/>
  <rect x="7" y="2" width="1" height="1" fill="#c14926"/>
  <rect x="8" y="2" width="1" height="1" fill="#ca4d2c"/>
  <rect x="9" y="2" width="1" height="1" fill="#ff846683"/>
  <rect x="0" y="3" width="1" height="1" fill="#e96a3cee"/>
  <rect x="1" y="3" width="1" height="1" fill="#bb4a27"/>
  <rect x="2" y="3" width="1" height="1" fill="#f19e95"/>
  <rect x="3" y="3" width="1" height="1" fill="#ffdfdd"/>
  <rect x="4" y="3" width="1" height="1" fill="#ffd3c7"/>
  <rect x="5" y="3" width="1" height="1" fill="#b76953"/>
  <rect x="6" y="3" width="1" height="1" fill="#b76044"/>
  <rect x="7" y="3" width="1" height="1" fill="#fb9575"/>
  <rect x="8" y="3" width="1" height="1" fill="#c34522"/>
  <rect x="9" y="3" width="1" height="1" fill="#ee6441ee"/>
  <rect x="0" y="4" width="1" height="1" fill="#da4a24fe"/>
  <rect x="1" y="4" width="1" height="1" fill="#b94528"/>
  <rect x="2" y="4" width="1" height="1" fill="#ffd6cb"/>
  <rect x="3" y="4" width="1" height="1" fill="#ffe7e1"/>
  <rect x="4" y="4" width="1" height="1" fill="#de7c6b"/>
  <rect x="5" y="4" width="1" height="1" fill="#b54f3b"/>
  <rect x="6" y="4" width="1" height="1" fill="#f3b29f"/>
  <rect x="7" y="4" width="1" height="1" fill="#ffd8c1"/>
  <rect x="8" y="4" width="1" height="1" fill="#c24828"/>
  <rect x="9" y="4" width="1" height="1" fill="#d84621fe"/>
  <rect x="0" y="5" width="1" height="1" fill="#d73f1efe"/>
  <rect x="1" y="5" width="1" height="1" fill="#ca4a2f"/>
  <rect x="2" y="5" width="1" height="1" fill="#ffcfc0"/>
  <rect x="3" y="5" width="1" height="1" fill="#f7afa5"/>
  <rect x="4" y="5" width="1" height="1" fill="#b14938"/>
  <rect x="5" y="5" width="1" height="1" fill="#d87562"/>
  <rect x="6" y="5" width="1" height="1" fill="#ffe8db"/>
  <rect x="7" y="5" width="1" height="1" fill="#ffd7c5"/>
  <rect x="8" y="5" width="1" height="1" fill="#bb4023"/>
  <rect x="9" y="5" width="1" height="1" fill="#dd4522fe"/>
  <rect x="0" y="6" width="1" height="1" fill="#f35b3aee"/>
  <rect x="1" y="6" width="1" height="1" fill="#cd3e21"/>
  <rect x="2" y="6" width="1" height="1" fill="#ff8876"/>
  <rect x="3" y="6" width="1" height="1" fill="#c55647"/>
  <rect x="4" y="6" width="1" height="1" fill="#b65b4a"/>
  <rect x="5" y="6" width="1" height="1" fill="#ffd3c1"/>
  <rect x="6" y="6" width="1" height="1" fill="#ffe5d9"/>
  <rect x="7" y="6" width="1" height="1" fill="#f59d8d"/>
  <rect x="8" y="6" width="1" height="1" fill="#bb3921"/>
  <rect x="9" y="6" width="1" height="1" fill="#ef593cee"/>
  <rect x="0" y="7" width="1" height="1" fill="#ff745883"/>
  <rect x="1" y="7" width="1" height="1" fill="#c43218"/>
  <rect x="2" y="7" width="1" height="1" fill="#d03623"/>
  <rect x="3" y="7" width="1" height="1" fill="#c83e2d"/>
  <rect x="4" y="7" width="1" height="1" fill="#ffaa99"/>
  <rect x="5" y="7" width="1" height="1" fill="#ffd0bf"/>
  <rect x="6" y="7" width="1" height="1" fill="#f79788"/>
  <rect x="7" y="7" width="1" height="1" fill="#b44637"/>
  <rect x="8" y="7" width="1" height="1" fill="#c2402a"/>
  <rect x="9" y="7" width="1" height="1" fill="#ff786183"/>
  <rect x="1" y="8" width="1" height="1" fill="#ec6956c4"/>
  <rect x="2" y="8" width="1" height="1" fill="#cc3924"/>
  <rect x="3" y="8" width="1" height="1" fill="#ce341f"/>
  <rect x="4" y="8" width="1" height="1" fill="#cb3823"/>
  <rect x="5" y="8" width="1" height="1" fill="#ca3c28"/>
  <rect x="6" y="8" width="1" height="1" fill="#c63c28"/>
  <rect x="7" y="8" width="1" height="1" fill="#c03b28"/>
  <rect x="8" y="8" width="1" height="1" fill="#eb6d5ac4"/>
  <rect x="2" y="9" width="1" height="1" fill="#ff796584"/>
  <rect x="3" y="9" width="1" height="1" fill="#f5553eee"/>
  <rect x="4" y="9" width="1" height="1" fill="#dd341e"/>
  <rect x="5" y="9" width="1" height="1" fill="#e03620"/>
  <rect x="6" y="9" width="1" height="1" fill="#f1533eee"/>
  <rect x="7" y="9" width="1" height="1" fill="#ff7a6683"/>
</svg>