<svg xmlns="http://www.w3.org/2000/svg" width="76" height="19" viewBox="0 0 76 19" shape-rendering="crispEdges">
  <rect x="6" y="3" width="1" height="1" fill="#0101010e"/>
  <rect x="7" y="3" width="6" height="1" fill="#00000010"/>
  <rect x="13" y="3" width="1" height="1" fill="#0000000e"/>
  <rect x="25" y="3" width="1" height="1" fill="#0202020e"/>
  <rect x="26" y="3" width="6" height="1" fill="#02020210"/>
  <rect x="32" y="3" width="1" height="1" fill="#0909090e"/>
  <rect x="63" y="3" width="1" height="1" fill="#0101010e"/>
  <rect x="64" y="3" width="6" height="1" fill="#00000010"/>
  <rect x="70" y="3" width="1" height="1" fill="#0000000e"/>
  <rect x="5" y="4" width="1" height="1" fill="#0000001d"/>
  <rect x="6" y="4" width="1" height="1" fill="#0505052d"/>
  <rect x="7" y="4" width="1" height="1" fill="#01010130"/>
  <rect x="8" y="4" width="4" height="1" fill="#00000030"/>
  <rect x="12" y="4" width="1" height="1" fill="#01010130"/>
  <rect x="13" y="4" width="1" height="1" fill="#0000002d"/>
  <rect x="14" y="4" width="1" height="1" fill="#0000001d"/>
  <rect x="24" y="4" width="1" height="1" fill="#0000001d"/>
  <rect x="25" y="4" width="1" height="1" fill="#0505052d"/>
  <rect x="26" y="4" width="3" height="1" fill="#00000030"/>
  <rect x="29" y="4" width="1" height="1" fill="#06060630"/>
  <rect x="30" y="4" width="2" height="1" fill="#00000030"/>
  <rect x="32" y="4" width="1" height="1" fill="#0000002d"/>
  <rect x="33" y="4" width="1" height="1" fill="#0000001d"/>
  <rect x="44" y="4" width="1" height="1" fill="#0000000e"/>
  <rect x="45" y="4" width="1" height="1" fill="#03030310"/>
  <rect x="46" y="4" width="2" height="1" fill="#00000010"/>
  <rect x="48" y="4" width="1" height="1" fill="#02020210"/>
  <rect x="49" y="4" width="1" height="1" fill="#00000010"/>
  <rect x="50" y="4" width="1" height="1" fill="#02020210"/>
  <rect x="51" y="4" width="1" height="1" fill="#0303030e"/>
  <rect x="62" y="4" width="1" height="1" fill="#0101011d"/>
  <rect x="63" y="4" width="1" height="1" fill="#0101012d"/>
  <rect x="64" y="4" width="6" height="1" fill="#00000030"/>
  <rect x="70" y="4" width="1" height="1" fill="#0000002d"/>
  <rect x="71" y="4" width="1" height="1" fill="#0000001d"/>
  <rect x="4" y="5" width="1" height="1" fill="#00000019"/>
  <rect x="5" y="5" width="1" height="1" fill="#00000031"/>
  <rect x="6" y="5" width="1" height="1" fill="#fcfbfc8c"/>
  <rect x="7" y="5" width="1" height="1" fill="#f7f7f78c"/>
  <rect x="8" y="5" width="4" height="1" fill="#fafafa8c"/>
  <rect x="12" y="5" width="1" height="1" fill="#fcfbfc8c"/>
  <rect x="13" y="5" width="1" height="1" fill="#f9f9f98c"/>
  <rect x="14" y="5" width="1" height="1" fill="#0000002d"/>
  <rect x="15" y="5" width="1" height="1" fill="#0000000e"/>
  <rect x="23" y="5" width="1" height="1" fill="#00000019"/>
  <rect x="24" y="5" width="1" height="1" fill="#00000031"/>
  <rect x="25" y="5" width="1" height="2" fill="#f0f0f0bf"/>
  <rect x="26" y="5" width="1" height="1" fill="#f3f3f3bf"/>
  <rect x="27" y="5" width="1" height="1" fill="#f7f7f7bf"/>
  <rect x="28" y="5" width="2" height="1" fill="#fafafabf"/>
  <rect x="30" y="5" width="1" height="1" fill="#f3f3f3bf"/>
  <rect x="31" y="5" width="2" height="1" fill="#f6f6f6bf"/>
  <rect x="33" y="5" width="1" height="1" fill="#0606062d"/>
  <rect x="34" y="5" width="1" height="1" fill="#0000000e"/>
  <rect x="43" y="5" width="1" height="1" fill="#0202021d"/>
  <rect x="44" y="5" width="1" height="1" fill="#0000002d"/>
  <rect x="45" y="5" width="1" height="1" fill="#03030330"/>
  <rect x="46" y="5" width="1" height="1" fill="#02020230"/>
  <rect x="47" y="5" width="2" height="1" fill="#05050530"/>
  <rect x="49" y="5" width="2" height="1" fill="#00000030"/>
  <rect x="51" y="5" width="1" height="1" fill="#0000002d"/>
  <rect x="52" y="5" width="1" height="1" fill="#0303031d"/>
  <rect x="61" y="5" width="1" height="1" fill="#01010119"/>
  <rect x="62" y="5" width="1" height="1" fill="#01010131"/>
  <rect x="71" y="5" width="1" height="1" fill="#0000002d"/>
  <rect x="72" y="5" width="1" height="1" fill="#0000000e"/>
  <rect x="3" y="6" width="1" height="1" fill="#0000001d"/>
  <rect x="4" y="6" width="1" height="1" fill="#00000031"/>
  <rect x="5" y="6" width="1" height="1" fill="#0000003c"/>
  <rect x="6" y="6" width="1" height="1" fill="#ffffff8c"/>
  <rect x="7" y="6" width="5" height="1" fill="#00000040"/>
  <rect x="12" y="6" width="1" height="1" fill="#05050540"/>
  <rect x="13" y="6" width="1" height="1" fill="#f6f6f68c"/>
  <rect x="14" y="6" width="1" height="1" fill="#00000030"/>
  <rect x="15" y="6" width="1" height="1" fill="#00000010"/>
  <rect x="22" y="6" width="1" height="1" fill="#0000001d"/>
  <rect x="23" y="6" width="1" height="1" fill="#00000031"/>
  <rect x="24" y="6" width="1" height="1" fill="#0606063c"/>
  <rect x="26" y="6" width="1" height="1" fill="#02020240"/>
  <rect x="27" y="6" width="1" height="1" fill="#0a0a0a40"/>
  <rect x="28" y="6" width="4" height="1" fill="#00000040"/>
  <rect x="32" y="6" width="1" height="1" fill="#fdfdfdbf"/>
  <rect x="33" y="6" width="1" height="1" fill="#02020230"/>
  <rect x="34" y="6" width="1" height="1" fill="#00000010"/>
  <rect x="42" y="6" width="1" height="1" fill="#01010119"/>
  <rect x="43" y="6" width="1" height="1" fill="#07070731"/>
  <rect x="44" y="6" width="1" height="1" fill="#ffffff8c"/>
  <rect x="45" y="6" width="1" height="1" fill="#f1f1f18c"/>
  <rect x="46" y="6" width="1" height="1" fill="#f2f2f28c"/>
  <rect x="47" y="6" width="1" height="1" fill="#f6f6f68c"/>
  <rect x="48" y="6" width="2" height="1" fill="#ffffff8c"/>
  <rect x="50" y="6" width="2" height="1" fill="#f7f7f78c"/>
  <rect x="52" y="6" width="1" height="1" fill="#0303032d"/>
  <rect x="53" y="6" width="1" height="1" fill="#0101010e"/>
  <rect x="60" y="6" width="1" height="1" fill="#0101011d"/>
  <rect x="61" y="6" width="1" height="1" fill="#01010131"/>
  <rect x="62" y="6" width="1" height="1" fill="#0101013c"/>
  <rect x="64" y="6" width="6" height="1" fill="#00000040"/>
  <rect x="71" y="6" width="1" height="4" fill="#00000030"/>
  <rect x="72" y="6" width="1" height="4" fill="#00000010"/>
  <rect x="2" y="7" width="1" height="1" fill="#0c0c0c0e"/>
  <rect x="3" y="7" width="1" height="1" fill="#0000002d"/>
  <rect x="4" y="7" width="1" height="1" fill="#fcfbfc8c"/>
  <rect x="5" y="7" width="1" height="1" fill="#fafafa8c"/>
  <rect x="6" y="7" width="1" height="1" fill="#f5f5f58c"/>
  <rect x="7" y="7" width="1" height="1" fill="#f6f6f68c"/>
  <rect x="8" y="7" width="4" height="1" fill="#f8f8f88c"/>
  <rect x="12" y="7" width="1" height="1" fill="#01010140"/>
  <rect x="13" y="7" width="1" height="1" fill="#ffffff8c"/>
  <rect x="14" y="7" width="1" height="1" fill="#01010130"/>
  <rect x="15" y="7" width="1" height="1" fill="#05050510"/>
  <rect x="21" y="7" width="1" height="1" fill="#0000000e"/>
  <rect x="22" y="7" width="1" height="1" fill="#0000002d"/>
  <rect x="23" y="7" width="2" height="1" fill="#f7f7f7bf"/>
  <rect x="25" y="7" width="1" height="1" fill="#f5f5f5bf"/>
  <rect x="26" y="7" width="2" height="1" fill="#ffffffbf"/>
  <rect x="28" y="7" width="1" height="1" fill="#f8f8f8bf"/>
  <rect x="29" y="7" width="1" height="1" fill="#fafafabf"/>
  <rect x="30" y="7" width="1" height="1" fill="#ffffffbf"/>
  <rect x="31" y="7" width="1" height="1" fill="#00000040"/>
  <rect x="32" y="7" width="1" height="1" fill="#f9f9f9bf"/>
  <rect x="33" y="7" width="1" height="3" fill="#00000030"/>
  <rect x="34" y="7" width="1" height="1" fill="#02020210"/>
  <rect x="41" y="7" width="1" height="1" fill="#0202021d"/>
  <rect x="42" y="7" width="1" height="1" fill="#06060631"/>
  <rect x="43" y="7" width="1" height="1" fill="#0505053c"/>
  <rect x="44" y="7" width="1" height="1" fill="#f7f7f78c"/>
  <rect x="45" y="7" width="1" height="1" fill="#00000040"/>
  <rect x="46" y="7" width="1" height="1" fill="#01010140"/>
  <rect x="47" y="7" width="1" height="1" fill="#06060640"/>
  <rect x="48" y="7" width="1" height="1" fill="#00000040"/>
  <rect x="49" y="7" width="1" height="1" fill="#01010140"/>
  <rect x="50" y="7" width="1" height="1" fill="#07070740"/>
  <rect x="51" y="7" width="1" height="1" fill="#efefef8c"/>
  <rect x="52" y="7" width="1" height="1" fill="#01010130"/>
  <rect x="53" y="7" width="1" height="4" fill="#00000010"/>
  <rect x="59" y="7" width="1" height="1" fill="#0101010e"/>
  <rect x="60" y="7" width="1" height="1" fill="#0101012d"/>
  <rect x="69" y="7" width="1" height="3" fill="#00000040"/>
  <rect x="2" y="8" width="1" height="5" fill="#01010110"/>
  <rect x="3" y="8" width="1" height="5" fill="#00000030"/>
  <rect x="4" y="8" width="1" height="1" fill="#f6f6f68c"/>
  <rect x="5" y="8" width="1" height="1" fill="#f3f3f38c"/>
  <rect x="6" y="8" width="1" height="1" fill="#fafafa8c"/>
  <rect x="7" y="8" width="1" height="1" fill="#f3f3f38c"/>
  <rect x="8" y="8" width="1" height="1" fill="#ffffff8c"/>
  <rect x="9" y="8" width="2" height="1" fill="#f9f9f98c"/>
  <rect x="11" y="8" width="1" height="2" fill="#fcfbfc8c"/>
  <rect x="12" y="8" width="1" height="1" fill="#06060640"/>
  <rect x="13" y="8" width="1" height="1" fill="#f5f5f58c"/>
  <rect x="14" y="8" width="1" height="1" fill="#09090930"/>
  <rect x="15" y="8" width="1" height="1" fill="#02020210"/>
  <rect x="21" y="8" width="1" height="3" fill="#01010110"/>
  <rect x="22" y="8" width="1" height="4" fill="#01010130"/>
  <rect x="23" y="8" width="1" height="4" fill="#ffffffbf"/>
  <rect x="24" y="8" width="4" height="1" fill="#f9f9f9bf"/>
  <rect x="28" y="8" width="1" height="1" fill="#fdfdfdbf"/>
  <rect x="29" y="8" width="1" height="1" fill="#f7f7f7bf"/>
  <rect x="30" y="8" width="1" height="1" fill="#f9f9f9bf"/>
  <rect x="31" y="8" width="1" height="1" fill="#03030340"/>
  <rect x="32" y="8" width="1" height="1" fill="#f7f7f7bf"/>
  <rect x="34" y="8" width="1" height="1" fill="#06060610"/>
  <rect x="40" y="8" width="1" height="1" fill="#0000000e"/>
  <rect x="41" y="8" width="1" height="1" fill="#0101012d"/>
  <rect x="42" y="8" width="1" height="1" fill="#fafafa8c"/>
  <rect x="43" y="8" width="1" height="1" fill="#f5f5f58c"/>
  <rect x="44" y="8" width="4" height="1" fill="#fcfbfc8c"/>
  <rect x="48" y="8" width="1" height="1" fill="#f6f6f68c"/>
  <rect x="49" y="8" width="1" height="1" fill="#f8f8f88c"/>
  <rect x="50" y="8" width="1" height="1" fill="#00000040"/>
  <rect x="51" y="8" width="1" height="1" fill="#f3f3f38c"/>
  <rect x="52" y="8" width="1" height="3" fill="#00000030"/>
  <rect x="59" y="8" width="1" height="5" fill="#01010110"/>
  <rect x="60" y="8" width="1" height="5" fill="#01010130"/>
  <rect x="4" y="9" width="1" height="1" fill="#f8f8f88c"/>
  <rect x="5" y="9" width="1" height="1" fill="#f5f5f58c"/>
  <rect x="6" y="9" width="1" height="1" fill="#fefefe8c"/>
  <rect x="7" y="9" width="1" height="1" fill="#efefef8c"/>
  <rect x="8" y="9" width="1" height="1" fill="#f5f5f58c"/>
  <rect x="9" y="9" width="1" height="1" fill="#f6f6f68c"/>
  <rect x="10" y="9" width="1" height="1" fill="#f8f8f88c"/>
  <rect x="12" y="9" width="1" height="1" fill="#05050540"/>
  <rect x="13" y="9" width="1" height="1" fill="#f6f6f68c"/>
  <rect x="14" y="9" width="1" height="1" fill="#00000030"/>
  <rect x="15" y="9" width="1" height="1" fill="#00000010"/>
  <rect x="24" y="9" width="4" height="1" fill="#f8f8f8bf"/>
  <rect x="28" y="9" width="1" height="1" fill="#fcfbfcbf"/>
  <rect x="29" y="9" width="1" height="1" fill="#ecececbf"/>
  <rect x="30" y="9" width="1" height="1" fill="#fcfbfcbf"/>
  <rect x="31" y="9" width="1" height="1" fill="#00000040"/>
  <rect x="32" y="9" width="1" height="1" fill="#fafafabf"/>
  <rect x="34" y="9" width="1" height="1" fill="#07070710"/>
  <rect x="40" y="9" width="1" height="1" fill="#03030310"/>
  <rect x="41" y="9" width="1" height="1" fill="#07070730"/>
  <rect x="42" y="9" width="2" height="1" fill="#fcfbfc8c"/>
  <rect x="44" y="9" width="4" height="1" fill="#f5f5f58c"/>
  <rect x="48" y="9" width="1" height="1" fill="#f3f3f38c"/>
  <rect x="49" y="9" width="1" height="1" fill="#f2f2f28c"/>
  <rect x="50" y="9" width="1" height="1" fill="#02020240"/>
  <rect x="51" y="9" width="1" height="1" fill="#f1f1f18c"/>
  <rect x="4" y="10" width="1" height="1" fill="#f7f7f78c"/>
  <rect x="5" y="10" width="1" height="1" fill="#0505053c"/>
  <rect x="6" y="10" width="1" height="1" fill="#00000034"/>
  <rect x="7" y="10" width="2" height="1" fill="#00000030"/>
  <rect x="9" y="10" width="1" height="1" fill="#02020234"/>
  <rect x="10" y="10" width="1" height="1" fill="#0202023c"/>
  <rect x="11" y="10" width="1" height="1" fill="#f7f7f78c"/>
  <rect x="12" y="10" width="1" height="1" fill="#fcfbfc8c"/>
  <rect x="13" y="10" width="1" height="1" fill="#f5f5f58c"/>
  <rect x="14" y="10" width="1" height="1" fill="#0000002d"/>
  <rect x="15" y="10" width="1" height="1" fill="#0202020e"/>
  <rect x="24" y="10" width="1" height="1" fill="#0303033c"/>
  <rect x="25" y="10" width="1" height="1" fill="#03030334"/>
  <rect x="26" y="10" width="2" height="1" fill="#03030330"/>
  <rect x="28" y="10" width="1" height="1" fill="#03030334"/>
  <rect x="29" y="10" width="1" height="1" fill="#0000003c"/>
  <rect x="30" y="10" width="2" height="1" fill="#f8f8f8bf"/>
  <rect x="32" y="10" width="1" height="1" fill="#fefefebf"/>
  <rect x="33" y="10" width="1" height="1" fill="#0303032d"/>
  <rect x="34" y="10" width="1" height="1" fill="#0000000e"/>
  <rect x="40" y="10" width="1" height="2" fill="#00000010"/>
  <rect x="41" y="10" width="1" height="1" fill="#00000030"/>
  <rect x="42" y="10" width="1" height="1" fill="#fcfbfc8c"/>
  <rect x="43" y="10" width="1" height="1" fill="#fefefe8c"/>
  <rect x="44" y="10" width="4" height="1" fill="#f7f7f78c"/>
  <rect x="48" y="10" width="1" height="1" fill="#f2f2f28c"/>
  <rect x="49" y="10" width="1" height="1" fill="#f7f7f78c"/>
  <rect x="50" y="10" width="1" height="1" fill="#00000040"/>
  <rect x="51" y="10" width="1" height="2" fill="#fafafa8c"/>
  <rect x="62" y="10" width="1" height="1" fill="#0101013c"/>
  <rect x="63" y="10" width="1" height="1" fill="#01010134"/>
  <rect x="64" y="10" width="2" height="1" fill="#00000030"/>
  <rect x="66" y="10" width="1" height="1" fill="#00000034"/>
  <rect x="67" y="10" width="1" height="1" fill="#0000003c"/>
  <rect x="71" y="10" width="1" height="1" fill="#0000002d"/>
  <rect x="72" y="10" width="1" height="1" fill="#0000000e"/>
  <rect x="4" y="11" width="1" height="2" fill="#f3f3f38c"/>
  <rect x="5" y="11" width="1" height="1" fill="#00000038"/>
  <rect x="6" y="11" width="1" height="1" fill="#02020228"/>
  <rect x="7" y="11" width="2" height="1" fill="#00000020"/>
  <rect x="9" y="11" width="1" height="1" fill="#00000028"/>
  <rect x="10" y="11" width="1" height="1" fill="#06060638"/>
  <rect x="11" y="11" width="1" height="1" fill="#f6f6f68c"/>
  <rect x="12" y="11" width="1" height="1" fill="#0606063c"/>
  <rect x="13" y="11" width="1" height="1" fill="#00000031"/>
  <rect x="14" y="11" width="1" height="1" fill="#0000001d"/>
  <rect x="21" y="11" width="1" height="1" fill="#05050510"/>
  <rect x="24" y="11" width="1" height="1" fill="#02020238"/>
  <rect x="25" y="11" width="1" height="1" fill="#02020228"/>
  <rect x="26" y="11" width="2" height="1" fill="#02020220"/>
  <rect x="28" y="11" width="1" height="1" fill="#00000028"/>
  <rect x="29" y="11" width="1" height="1" fill="#09090938"/>
  <rect x="30" y="11" width="1" height="1" fill="#f8f8f8bf"/>
  <rect x="31" y="11" width="1" height="1" fill="#0000003c"/>
  <rect x="32" y="11" width="1" height="1" fill="#00000031"/>
  <rect x="33" y="11" width="1" height="1" fill="#0202021d"/>
  <rect x="41" y="11" width="1" height="1" fill="#01010130"/>
  <rect x="42" y="11" width="1" height="1" fill="#fdfdfd8c"/>
  <rect x="43" y="11" width="1" height="1" fill="#0000003c"/>
  <rect x="44" y="11" width="1" height="1" fill="#00000034"/>
  <rect x="45" y="11" width="2" height="1" fill="#00000030"/>
  <rect x="47" y="11" width="1" height="1" fill="#00000034"/>
  <rect x="48" y="11" width="1" height="1" fill="#0000003c"/>
  <rect x="49" y="11" width="1" height="1" fill="#ffffff8c"/>
  <rect x="50" y="11" width="1" height="1" fill="#fcfbfc8c"/>
  <rect x="52" y="11" width="1" height="1" fill="#0000002d"/>
  <rect x="53" y="11" width="1" height="1" fill="#0000000e"/>
  <rect x="62" y="11" width="1" height="1" fill="#01010138"/>
  <rect x="63" y="11" width="1" height="1" fill="#01010128"/>
  <rect x="64" y="11" width="2" height="1" fill="#00000020"/>
  <rect x="66" y="11" width="1" height="1" fill="#00000028"/>
  <rect x="67" y="11" width="1" height="1" fill="#00000038"/>
  <rect x="69" y="11" width="1" height="1" fill="#0000003c"/>
  <rect x="70" y="11" width="1" height="1" fill="#00000031"/>
  <rect x="71" y="11" width="1" height="1" fill="#0000001d"/>
  <rect x="5" y="12" width="1" height="1" fill="#0202023c"/>
  <rect x="6" y="12" width="1" height="1" fill="#00000034"/>
  <rect x="7" y="12" width="1" height="1" fill="#00000030"/>
  <rect x="8" y="12" width="1" height="1" fill="#02020230"/>
  <rect x="9" y="12" width="1" height="1" fill="#00000034"/>
  <rect x="10" y="12" width="1" height="1" fill="#0000003c"/>
  <rect x="11" y="12" width="1" height="1" fill="#ffffff8c"/>
  <rect x="12" y="12" width="1" height="1" fill="#03030334"/>
  <rect x="13" y="12" width="1" height="1" fill="#0000001a"/>
  <rect x="21" y="12" width="1" height="1" fill="#07070710"/>
  <rect x="22" y="12" width="1" height="1" fill="#00000030"/>
  <rect x="23" y="12" width="1" height="1" fill="#f2f2f2bf"/>
  <rect x="24" y="12" width="1" height="1" fill="#0000003c"/>
  <rect x="25" y="12" width="1" height="1" fill="#00000034"/>
  <rect x="26" y="12" width="2" height="1" fill="#00000030"/>
  <rect x="28" y="12" width="1" height="1" fill="#00000034"/>
  <rect x="29" y="12" width="1" height="1" fill="#0000003c"/>
  <rect x="30" y="12" width="1" height="1" fill="#f6f6f6bf"/>
  <rect x="31" y="12" width="1" height="1" fill="#00000034"/>
  <rect x="32" y="12" width="1" height="1" fill="#0000001a"/>
  <rect x="40" y="12" width="1" height="1" fill="#07070710"/>
  <rect x="41" y="12" width="1" height="1" fill="#09090930"/>
  <rect x="42" y="12" width="1" height="1" fill="#f3f3f38c"/>
  <rect x="43" y="12" width="1" height="1" fill="#00000038"/>
  <rect x="44" y="12" width="1" height="1" fill="#00000028"/>
  <rect x="45" y="12" width="2" height="1" fill="#00000020"/>
  <rect x="47" y="12" width="1" height="1" fill="#00000028"/>
  <rect x="48" y="12" width="1" height="1" fill="#03030338"/>
  <rect x="49" y="12" width="1" height="1" fill="#fefefe8c"/>
  <rect x="50" y="12" width="1" height="1" fill="#0202023c"/>
  <rect x="51" y="12" width="1" height="1" fill="#00000031"/>
  <rect x="52" y="12" width="1" height="1" fill="#0000001d"/>
  <rect x="62" y="12" width="1" height="1" fill="#0101013c"/>
  <rect x="63" y="12" width="1" height="1" fill="#01010134"/>
  <rect x="64" y="12" width="2" height="1" fill="#00000030"/>
  <rect x="66" y="12" width="1" height="1" fill="#00000034"/>
  <rect x="67" y="12" width="1" height="1" fill="#0000003c"/>
  <rect x="69" y="12" width="1" height="1" fill="#00000034"/>
  <rect x="70" y="12" width="1" height="1" fill="#0000001a"/>
  <rect x="2" y="13" width="1" height="1" fill="#0101010e"/>
  <rect x="3" y="13" width="1" height="1" fill="#0000002d"/>
  <rect x="4" y="13" width="1" height="1" fill="#f7f7f78c"/>
  <rect x="5" y="13" width="1" height="1" fill="#ffffff8c"/>
  <rect x="6" y="13" width="1" height="1" fill="#fefefe8c"/>
  <rect x="7" y="13" width="1" height="1" fill="#fafafa8c"/>
  <rect x="8" y="13" width="2" height="1" fill="#f7f7f78c"/>
  <rect x="10" y="13" width="1" height="1" fill="#f0f0f08c"/>
  <rect x="11" y="13" width="1" height="1" fill="#f2f2f28c"/>
  <rect x="12" y="13" width="1" height="1" fill="#0000002d"/>
  <rect x="13" y="13" width="1" height="1" fill="#0101010e"/>
  <rect x="21" y="13" width="1" height="1" fill="#0101010e"/>
  <rect x="22" y="13" width="1" height="1" fill="#0c0c0c2d"/>
  <rect x="23" y="13" width="1" height="1" fill="#eaeaeabf"/>
  <rect x="24" y="13" width="4" height="1" fill="#f8f8f8bf"/>
  <rect x="28" y="13" width="1" height="1" fill="#fafafabf"/>
  <rect x="29" y="13" width="1" height="1" fill="#fcfbfcbf"/>
  <rect x="30" y="13" width="1" height="1" fill="#fafafabf"/>
  <rect x="31" y="13" width="1" height="1" fill="#0303032d"/>
  <rect x="32" y="13" width="1" height="1" fill="#0000000e"/>
  <rect x="40" y="13" width="1" height="1" fill="#00000010"/>
  <rect x="41" y="13" width="1" height="1" fill="#00000030"/>
  <rect x="42" y="13" width="1" height="2" fill="#f5f5f58c"/>
  <rect x="43" y="13" width="1" height="1" fill="#0000003c"/>
  <rect x="44" y="13" width="1" height="1" fill="#00000034"/>
  <rect x="45" y="13" width="2" height="1" fill="#00000030"/>
  <rect x="47" y="13" width="1" height="1" fill="#00000034"/>
  <rect x="48" y="13" width="1" height="1" fill="#0000003c"/>
  <rect x="49" y="13" width="1" height="1" fill="#f1f1f18c"/>
  <rect x="50" y="13" width="1" height="1" fill="#03030334"/>
  <rect x="51" y="13" width="1" height="1" fill="#0707071a"/>
  <rect x="59" y="13" width="1" height="1" fill="#0101010e"/>
  <rect x="60" y="13" width="1" height="1" fill="#0101012d"/>
  <rect x="69" y="13" width="1" height="1" fill="#0000002d"/>
  <rect x="70" y="13" width="1" height="1" fill="#0000000e"/>
  <rect x="3" y="14" width="1" height="1" fill="#0000001d"/>
  <rect x="4" y="14" width="1" height="1" fill="#0000002d"/>
  <rect x="5" y="14" width="2" height="1" fill="#00000030"/>
  <rect x="7" y="14" width="1" height="1" fill="#02020230"/>
  <rect x="8" y="14" width="2" height="1" fill="#00000030"/>
  <rect x="10" y="14" width="1" height="1" fill="#06060630"/>
  <rect x="11" y="14" width="1" height="1" fill="#0303032d"/>
  <rect x="12" y="14" width="1" height="1" fill="#0101011d"/>
  <rect x="22" y="14" width="1" height="1" fill="#0505051d"/>
  <rect x="23" y="14" width="1" height="1" fill="#0606062d"/>
  <rect x="24" y="14" width="4" height="1" fill="#02020230"/>
  <rect x="28" y="14" width="1" height="1" fill="#07070730"/>
  <rect x="29" y="14" width="1" height="1" fill="#00000030"/>
  <rect x="30" y="14" width="1" height="1" fill="#0000002d"/>
  <rect x="31" y="14" width="1" height="1" fill="#0000001d"/>
  <rect x="40" y="14" width="1" height="1" fill="#0707070e"/>
  <rect x="41" y="14" width="1" height="1" fill="#0000002d"/>
  <rect x="43" y="14" width="5" height="1" fill="#f6f6f68c"/>
  <rect x="48" y="14" width="1" height="1" fill="#f8f8f88c"/>
  <rect x="49" y="14" width="1" height="1" fill="#f2f2f28c"/>
  <rect x="50" y="14" width="1" height="1" fill="#0202022d"/>
  <rect x="51" y="14" width="1" height="1" fill="#0000000e"/>
  <rect x="60" y="14" width="1" height="1" fill="#0101011d"/>
  <rect x="61" y="14" width="1" height="1" fill="#0101012d"/>
  <rect x="62" y="14" width="2" height="1" fill="#01010130"/>
  <rect x="64" y="14" width="4" height="1" fill="#00000030"/>
  <rect x="68" y="14" width="1" height="1" fill="#0000002d"/>
  <rect x="69" y="14" width="1" height="1" fill="#0000001d"/>
  <rect x="4" y="15" width="1" height="1" fill="#0303030e"/>
  <rect x="5" y="15" width="1" height="1" fill="#00000010"/>
  <rect x="6" y="15" width="1" height="1" fill="#02020210"/>
  <rect x="7" y="15" width="2" height="1" fill="#05050510"/>
  <rect x="9" y="15" width="1" height="1" fill="#00000010"/>
  <rect x="10" y="15" width="1" height="1" fill="#07070710"/>
  <rect x="11" y="15" width="1" height="1" fill="#0808080e"/>
  <rect x="23" y="15" width="1" height="1" fill="#0000000e"/>
  <rect x="24" y="15" width="4" height="1" fill="#00000010"/>
  <rect x="28" y="15" width="1" height="1" fill="#02020210"/>
  <rect x="29" y="15" width="1" height="1" fill="#00000010"/>
  <rect x="30" y="15" width="1" height="1" fill="#0202020e"/>
  <rect x="41" y="15" width="1" height="1" fill="#0000001d"/>
  <rect x="42" y="15" width="1" height="1" fill="#0000002d"/>
  <rect x="43" y="15" width="6" height="1" fill="#00000030"/>
  <rect x="49" y="15" width="1" height="1" fill="#0000002d"/>
  <rect x="50" y="15" width="1" height="1" fill="#0000001d"/>
  <rect x="61" y="15" width="1" height="1" fill="#0101010e"/>
  <rect x="62" y="15" width="2" height="1" fill="#01010110"/>
  <rect x="64" y="15" width="4" height="1" fill="#00000010"/>
  <rect x="68" y="15" width="1" height="1" fill="#0000000e"/>
  <rect x="42" y="16" width="1" height="1" fill="#0000000e"/>
  <rect x="43" y="16" width="6" height="1" fill="#00000010"/>
  <rect x="49" y="16" width="1" height="1" fill="#0000000e"/>
</svg>