<svg xmlns="http://www.w3.org/2000/svg" width="76" height="19" viewBox="0 0 76 19" shape-rendering="crispEdges">
  <rect x="4" y="3" width="1" height="1" fill="#0000000e"/>
  <rect x="5" y="3" width="5" height="1" fill="#00000010"/>
  <rect x="10" y="3" width="3" height="1" fill="#01010110"/>
  <rect x="13" y="3" width="1" height="1" fill="#0101010e"/>
  <rect x="23" y="3" width="1" height="1" fill="#0808080e"/>
  <rect x="24" y="3" width="8" height="1" fill="#03030310"/>
  <rect x="32" y="3" width="1" height="1" fill="#0606060e"/>
  <rect x="61" y="3" width="1" height="1" fill="#0000000e"/>
  <rect x="62" y="3" width="8" height="1" fill="#00000010"/>
  <rect x="70" y="3" width="1" height="1" fill="#0000000e"/>
  <rect x="3" y="4" width="1" height="1" fill="#0101011d"/>
  <rect x="4" y="4" width="1" height="1" fill="#0000002d"/>
  <rect x="5" y="4" width="5" height="1" fill="#00000030"/>
  <rect x="10" y="4" width="1" height="1" fill="#01010130"/>
  <rect x="11" y="4" width="2" height="1" fill="#00000030"/>
  <rect x="13" y="4" width="1" height="1" fill="#0000002d"/>
  <rect x="14" y="4" width="1" height="1" fill="#0303031d"/>
  <rect x="22" y="4" width="1" height="1" fill="#0000001d"/>
  <rect x="23" y="4" width="1" height="1" fill="#0000002d"/>
  <rect x="24" y="4" width="8" height="1" fill="#00000030"/>
  <rect x="32" y="4" width="1" height="1" fill="#0707072d"/>
  <rect x="33" y="4" width="1" height="1" fill="#0202021d"/>
  <rect x="42" y="4" width="1" height="1" fill="#0808080e"/>
  <rect x="43" y="4" width="1" height="1" fill="#05050510"/>
  <rect x="44" y="4" width="2" height="1" fill="#02020210"/>
  <rect x="46" y="4" width="4" height="1" fill="#01010110"/>
  <rect x="50" y="4" width="1" height="1" fill="#00000010"/>
  <rect x="51" y="4" width="1" height="1" fill="#0000000e"/>
  <rect x="60" y="4" width="1" height="1" fill="#0000001d"/>
  <rect x="61" y="4" width="1" height="1" fill="#0000002d"/>
  <rect x="62" y="4" width="8" height="1" fill="#00000030"/>
  <rect x="70" y="4" width="1" height="1" fill="#0000002d"/>
  <rect x="71" y="4" width="1" height="1" fill="#0000001d"/>
  <rect x="2" y="5" width="1" height="1" fill="#0000000e"/>
  <rect x="3" y="5" width="1" height="1" fill="#0101012d"/>
  <rect x="4" y="5" width="2" height="1" fill="#f9f9f98c"/>
  <rect x="6" y="5" width="4" height="1" fill="#fafafa8c"/>
  <rect x="10" y="5" width="2" height="1" fill="#fcfbfc8c"/>
  <rect x="12" y="5" width="1" height="1" fill="#f9f9f98c"/>
  <rect x="13" y="5" width="1" height="1" fill="#f8f8f88c"/>
  <rect x="14" y="5" width="1" height="1" fill="#0707072d"/>
  <rect x="15" y="5" width="1" height="1" fill="#0000000e"/>
  <rect x="21" y="5" width="1" height="1" fill="#0303030e"/>
  <rect x="22" y="5" width="1" height="1" fill="#0303032d"/>
  <rect x="23" y="5" width="9" height="1" fill="#f6f6f6cc"/>
  <rect x="32" y="5" width="1" height="1" fill="#f5f5f5cc"/>
  <rect x="33" y="5" width="1" height="1" fill="#0000002d"/>
  <rect x="34" y="5" width="1" height="1" fill="#0303030e"/>
  <rect x="41" y="5" width="1" height="1" fill="#0000001d"/>
  <rect x="42" y="5" width="1" height="1" fill="#0505052d"/>
  <rect x="43" y="5" width="8" height="1" fill="#00000030"/>
  <rect x="51" y="5" width="1" height="1" fill="#0000002d"/>
  <rect x="52" y="5" width="1" height="1" fill="#0101011d"/>
  <rect x="59" y="5" width="1" height="1" fill="#0000000e"/>
  <rect x="60" y="5" width="1" height="1" fill="#0000002d"/>
  <rect x="71" y="5" width="1" height="1" fill="#0000002d"/>
  <rect x="72" y="5" width="1" height="1" fill="#0000000e"/>
  <rect x="2" y="6" width="1" height="7" fill="#00000010"/>
  <rect x="3" y="6" width="1" height="7" fill="#01010130"/>
  <rect x="4" y="6" width="2" height="1" fill="#f8f8f88c"/>
  <rect x="6" y="6" width="4" height="1" fill="#f9f9f98c"/>
  <rect x="10" y="6" width="2" height="1" fill="#fafafa8c"/>
  <rect x="12" y="6" width="1" height="1" fill="#f8f8f88c"/>
  <rect x="13" y="6" width="1" height="1" fill="#f6f6f68c"/>
  <rect x="14" y="6" width="1" height="3" fill="#00000030"/>
  <rect x="15" y="6" width="1" height="1" fill="#03030310"/>
  <rect x="21" y="6" width="1" height="1" fill="#01010110"/>
  <rect x="22" y="6" width="1" height="2" fill="#06060630"/>
  <rect x="23" y="6" width="1" height="1" fill="#f0f0f0cc"/>
  <rect x="24" y="6" width="8" height="1" fill="#f5f5f5cc"/>
  <rect x="32" y="6" width="1" height="1" fill="#f2f2f2cc"/>
  <rect x="33" y="6" width="1" height="1" fill="#00000030"/>
  <rect x="34" y="6" width="1" height="7" fill="#00000010"/>
  <rect x="40" y="6" width="1" height="1" fill="#0808080e"/>
  <rect x="41" y="6" width="1" height="1" fill="#0505052d"/>
  <rect x="42" y="6" width="1" height="1" fill="#f8f8f88c"/>
  <rect x="43" y="6" width="1" height="1" fill="#f5f5f58c"/>
  <rect x="44" y="6" width="2" height="1" fill="#fafafa8c"/>
  <rect x="46" y="6" width="4" height="1" fill="#f9f9f98c"/>
  <rect x="50" y="6" width="2" height="1" fill="#f8f8f88c"/>
  <rect x="52" y="6" width="1" height="1" fill="#0101012d"/>
  <rect x="53" y="6" width="1" height="1" fill="#0000000e"/>
  <rect x="59" y="6" width="1" height="7" fill="#00000010"/>
  <rect x="60" y="6" width="1" height="7" fill="#00000030"/>
  <rect x="71" y="6" width="1" height="7" fill="#00000030"/>
  <rect x="72" y="6" width="1" height="7" fill="#00000010"/>
  <rect x="4" y="7" width="2" height="1" fill="#f6f6f68c"/>
  <rect x="6" y="7" width="4" height="1" fill="#f7f7f78c"/>
  <rect x="10" y="7" width="2" height="1" fill="#f8f8f88c"/>
  <rect x="12" y="7" width="1" height="1" fill="#fcfbfc8c"/>
  <rect x="13" y="7" width="1" height="1" fill="#fefefe8c"/>
  <rect x="15" y="7" width="1" height="1" fill="#02020210"/>
  <rect x="21" y="7" width="1" height="2" fill="#00000010"/>
  <rect x="23" y="7" width="1" height="1" fill="#f2f2f2cc"/>
  <rect x="24" y="7" width="8" height="1" fill="#fafafacc"/>
  <rect x="32" y="7" width="1" height="5" fill="#f8f8f8cc"/>
  <rect x="33" y="7" width="1" height="1" fill="#07070730"/>
  <rect x="40" y="7" width="1" height="1" fill="#05050510"/>
  <rect x="41" y="7" width="1" height="3" fill="#00000030"/>
  <rect x="42" y="7" width="1" height="1" fill="#f3f3f38c"/>
  <rect x="43" y="7" width="1" height="1" fill="#efefef8c"/>
  <rect x="44" y="7" width="2" height="1" fill="#f8f8f88c"/>
  <rect x="46" y="7" width="4" height="1" fill="#f7f7f78c"/>
  <rect x="50" y="7" width="2" height="1" fill="#f6f6f68c"/>
  <rect x="52" y="7" width="1" height="5" fill="#01010130"/>
  <rect x="53" y="7" width="1" height="6" fill="#00000010"/>
  <rect x="4" y="8" width="1" height="1" fill="#f6f6f68c"/>
  <rect x="5" y="8" width="1" height="1" fill="#0101013c"/>
  <rect x="6" y="8" width="1" height="1" fill="#06060634"/>
  <rect x="7" y="8" width="1" height="1" fill="#06060630"/>
  <rect x="8" y="8" width="1" height="1" fill="#00000030"/>
  <rect x="9" y="8" width="1" height="1" fill="#01010130"/>
  <rect x="10" y="8" width="1" height="1" fill="#00000030"/>
  <rect x="11" y="8" width="1" height="1" fill="#00000034"/>
  <rect x="12" y="8" width="1" height="1" fill="#0000003c"/>
  <rect x="13" y="8" width="1" height="4" fill="#f8f8f88c"/>
  <rect x="15" y="8" width="1" height="4" fill="#00000010"/>
  <rect x="22" y="8" width="1" height="1" fill="#02020230"/>
  <rect x="23" y="8" width="1" height="4" fill="#fafafacc"/>
  <rect x="24" y="8" width="1" height="1" fill="#0000003c"/>
  <rect x="25" y="8" width="1" height="1" fill="#01010134"/>
  <rect x="26" y="8" width="2" height="1" fill="#03030330"/>
  <rect x="28" y="8" width="1" height="1" fill="#02020230"/>
  <rect x="29" y="8" width="1" height="1" fill="#01010130"/>
  <rect x="30" y="8" width="1" height="1" fill="#00000034"/>
  <rect x="31" y="8" width="1" height="1" fill="#0000003c"/>
  <rect x="33" y="8" width="1" height="5" fill="#00000030"/>
  <rect x="40" y="8" width="1" height="1" fill="#02020210"/>
  <rect x="42" y="8" width="1" height="1" fill="#fafafa8c"/>
  <rect x="43" y="8" width="1" height="1" fill="#f7f7f78c"/>
  <rect x="44" y="8" width="1" height="1" fill="#fefefe8c"/>
  <rect x="45" y="8" width="1" height="1" fill="#ffffff8c"/>
  <rect x="46" y="8" width="2" height="1" fill="#f5f5f58c"/>
  <rect x="48" y="8" width="2" height="1" fill="#f7f7f78c"/>
  <rect x="50" y="8" width="1" height="1" fill="#f0f0f08c"/>
  <rect x="51" y="8" width="1" height="1" fill="#fcfbfc8c"/>
  <rect x="62" y="8" width="1" height="1" fill="#0000003c"/>
  <rect x="63" y="8" width="1" height="1" fill="#00000034"/>
  <rect x="64" y="8" width="4" height="1" fill="#00000030"/>
  <rect x="68" y="8" width="1" height="1" fill="#00000034"/>
  <rect x="69" y="8" width="1" height="1" fill="#0000003c"/>
  <rect x="4" y="9" width="1" height="1" fill="#f7f7f78c"/>
  <rect x="5" y="9" width="1" height="1" fill="#01010134"/>
  <rect x="6" y="9" width="1" height="1" fill="#0606061c"/>
  <rect x="7" y="9" width="1" height="1" fill="#08080810"/>
  <rect x="8" y="9" width="1" height="1" fill="#03030310"/>
  <rect x="9" y="9" width="1" height="1" fill="#07070710"/>
  <rect x="10" y="9" width="1" height="1" fill="#05050510"/>
  <rect x="11" y="9" width="1" height="1" fill="#0000001c"/>
  <rect x="12" y="9" width="1" height="1" fill="#00000034"/>
  <rect x="14" y="9" width="1" height="3" fill="#02020230"/>
  <rect x="21" y="9" width="1" height="2" fill="#01010110"/>
  <rect x="22" y="9" width="1" height="4" fill="#00000030"/>
  <rect x="24" y="9" width="1" height="1" fill="#00000034"/>
  <rect x="25" y="9" width="1" height="1" fill="#0101011c"/>
  <rect x="26" y="9" width="1" height="1" fill="#05050510"/>
  <rect x="27" y="9" width="1" height="1" fill="#07070710"/>
  <rect x="28" y="9" width="1" height="1" fill="#06060610"/>
  <rect x="29" y="9" width="1" height="1" fill="#03030310"/>
  <rect x="30" y="9" width="1" height="1" fill="#0000001c"/>
  <rect x="31" y="9" width="1" height="1" fill="#00000034"/>
  <rect x="40" y="9" width="1" height="3" fill="#00000010"/>
  <rect x="42" y="9" width="1" height="1" fill="#f7f7f78c"/>
  <rect x="43" y="9" width="1" height="1" fill="#0606063c"/>
  <rect x="44" y="9" width="1" height="1" fill="#00000034"/>
  <rect x="45" y="9" width="1" height="1" fill="#01010130"/>
  <rect x="46" y="9" width="1" height="1" fill="#08080830"/>
  <rect x="47" y="9" width="1" height="1" fill="#00000030"/>
  <rect x="48" y="9" width="1" height="1" fill="#03030330"/>
  <rect x="49" y="9" width="1" height="1" fill="#05050534"/>
  <rect x="50" y="9" width="1" height="1" fill="#0303033c"/>
  <rect x="51" y="9" width="1" height="1" fill="#f2f2f28c"/>
  <rect x="62" y="9" width="1" height="1" fill="#00000034"/>
  <rect x="63" y="9" width="1" height="1" fill="#0000001c"/>
  <rect x="64" y="9" width="4" height="1" fill="#00000010"/>
  <rect x="68" y="9" width="1" height="1" fill="#0000001c"/>
  <rect x="69" y="9" width="1" height="1" fill="#00000034"/>
  <rect x="4" y="10" width="1" height="1" fill="#fefefe8c"/>
  <rect x="5" y="10" width="1" height="1" fill="#00000030"/>
  <rect x="6" y="10" width="1" height="1" fill="#0c0c0c10"/>
  <rect x="11" y="10" width="1" height="1" fill="#00000010"/>
  <rect x="12" y="10" width="1" height="1" fill="#00000030"/>
  <rect x="24" y="10" width="1" height="1" fill="#00000030"/>
  <rect x="25" y="10" width="1" height="1" fill="#06060610"/>
  <rect x="30" y="10" width="1" height="1" fill="#09090910"/>
  <rect x="31" y="10" width="1" height="1" fill="#00000030"/>
  <rect x="41" y="10" width="1" height="1" fill="#05050530"/>
  <rect x="42" y="10" width="1" height="1" fill="#efefef8c"/>
  <rect x="43" y="10" width="1" height="1" fill="#01010134"/>
  <rect x="44" y="10" width="1" height="1" fill="#0202021c"/>
  <rect x="45" y="10" width="2" height="1" fill="#00000010"/>
  <rect x="47" y="10" width="1" height="1" fill="#02020210"/>
  <rect x="48" y="10" width="1" height="1" fill="#00000010"/>
  <rect x="49" y="10" width="1" height="1" fill="#0000001c"/>
  <rect x="50" y="10" width="1" height="1" fill="#01010134"/>
  <rect x="51" y="10" width="1" height="2" fill="#f6f6f68c"/>
  <rect x="62" y="10" width="1" height="1" fill="#00000030"/>
  <rect x="63" y="10" width="1" height="1" fill="#00000010"/>
  <rect x="68" y="10" width="1" height="1" fill="#00000010"/>
  <rect x="69" y="10" width="1" height="1" fill="#00000030"/>
  <rect x="4" y="11" width="1" height="1" fill="#f3f3f38c"/>
  <rect x="5" y="11" width="1" height="1" fill="#03030334"/>
  <rect x="6" y="11" width="1" height="1" fill="#0202021c"/>
  <rect x="7" y="11" width="4" height="1" fill="#00000010"/>
  <rect x="11" y="11" width="1" height="1" fill="#0303031c"/>
  <rect x="12" y="11" width="1" height="1" fill="#00000034"/>
  <rect x="21" y="11" width="1" height="2" fill="#00000010"/>
  <rect x="24" y="11" width="1" height="1" fill="#01010134"/>
  <rect x="25" y="11" width="1" height="1" fill="#0000001c"/>
  <rect x="26" y="11" width="4" height="1" fill="#00000010"/>
  <rect x="30" y="11" width="1" height="1" fill="#0000001c"/>
  <rect x="31" y="11" width="1" height="1" fill="#00000034"/>
  <rect x="41" y="11" width="1" height="1" fill="#00000030"/>
  <rect x="42" y="11" width="1" height="1" fill="#f2f2f28c"/>
  <rect x="43" y="11" width="1" height="1" fill="#0c0c0c30"/>
  <rect x="44" y="11" width="1" height="1" fill="#01010110"/>
  <rect x="49" y="11" width="1" height="1" fill="#00000010"/>
  <rect x="50" y="11" width="1" height="1" fill="#00000030"/>
  <rect x="62" y="11" width="1" height="1" fill="#00000034"/>
  <rect x="63" y="11" width="1" height="1" fill="#0000001c"/>
  <rect x="64" y="11" width="4" height="1" fill="#00000010"/>
  <rect x="68" y="11" width="1" height="1" fill="#0000001c"/>
  <rect x="69" y="11" width="1" height="1" fill="#00000034"/>
  <rect x="4" y="12" width="1" height="1" fill="#fafafa8c"/>
  <rect x="5" y="12" width="1" height="1" fill="#0000003c"/>
  <rect x="6" y="12" width="1" height="1" fill="#02020234"/>
  <rect x="7" y="12" width="1" height="1" fill="#00000030"/>
  <rect x="8" y="12" width="1" height="1" fill="#02020230"/>
  <rect x="9" y="12" width="1" height="1" fill="#00000030"/>
  <rect x="10" y="12" width="1" height="1" fill="#02020230"/>
  <rect x="11" y="12" width="1" height="1" fill="#08080834"/>
  <rect x="12" y="12" width="1" height="1" fill="#0000003c"/>
  <rect x="13" y="12" width="1" height="1" fill="#fafafa8c"/>
  <rect x="14" y="12" width="1" height="1" fill="#01010130"/>
  <rect x="15" y="12" width="1" height="1" fill="#03030310"/>
  <rect x="23" y="12" width="1" height="1" fill="#f8f8f8cc"/>
  <rect x="24" y="12" width="1" height="1" fill="#0000003c"/>
  <rect x="25" y="12" width="1" height="1" fill="#00000034"/>
  <rect x="26" y="12" width="4" height="1" fill="#00000030"/>
  <rect x="30" y="12" width="1" height="1" fill="#00000034"/>
  <rect x="31" y="12" width="1" height="1" fill="#0000003c"/>
  <rect x="32" y="12" width="1" height="1" fill="#fefefecc"/>
  <rect x="40" y="12" width="1" height="1" fill="#03030310"/>
  <rect x="41" y="12" width="1" height="1" fill="#08080830"/>
  <rect x="42" y="12" width="1" height="1" fill="#f9f9f98c"/>
  <rect x="43" y="12" width="1" height="1" fill="#01010134"/>
  <rect x="44" y="12" width="1" height="1" fill="#0101011c"/>
  <rect x="45" y="12" width="4" height="1" fill="#01010110"/>
  <rect x="49" y="12" width="1" height="1" fill="#0000001c"/>
  <rect x="50" y="12" width="1" height="1" fill="#01010134"/>
  <rect x="51" y="12" width="1" height="1" fill="#f3f3f38c"/>
  <rect x="52" y="12" width="1" height="2" fill="#00000030"/>
  <rect x="62" y="12" width="1" height="1" fill="#0000003c"/>
  <rect x="63" y="12" width="1" height="1" fill="#00000034"/>
  <rect x="64" y="12" width="4" height="1" fill="#00000030"/>
  <rect x="68" y="12" width="1" height="1" fill="#00000034"/>
  <rect x="69" y="12" width="1" height="1" fill="#0000003c"/>
  <rect x="2" y="13" width="1" height="1" fill="#0000000e"/>
  <rect x="3" y="13" width="1" height="1" fill="#0101012d"/>
  <rect x="4" y="13" width="2" height="1" fill="#f6f6f68c"/>
  <rect x="6" y="13" width="1" height="1" fill="#f8f8f88c"/>
  <rect x="7" y="13" width="1" height="1" fill="#fafafa8c"/>
  <rect x="8" y="13" width="1" height="1" fill="#f9f9f98c"/>
  <rect x="9" y="13" width="1" height="1" fill="#f6f6f68c"/>
  <rect x="10" y="13" width="1" height="1" fill="#f8f8f88c"/>
  <rect x="11" y="13" width="2" height="1" fill="#fefefe8c"/>
  <rect x="13" y="13" width="1" height="1" fill="#fcfbfc8c"/>
  <rect x="14" y="13" width="1" height="1" fill="#0202022d"/>
  <rect x="15" y="13" width="1" height="1" fill="#0707070e"/>
  <rect x="21" y="13" width="1" height="1" fill="#0000000e"/>
  <rect x="22" y="13" width="1" height="1" fill="#0000002d"/>
  <rect x="23" y="13" width="1" height="1" fill="#f5f5f5cc"/>
  <rect x="24" y="13" width="3" height="1" fill="#f7f7f7cc"/>
  <rect x="27" y="13" width="1" height="1" fill="#f6f6f6cc"/>
  <rect x="28" y="13" width="1" height="1" fill="#f5f5f5cc"/>
  <rect x="29" y="13" width="1" height="1" fill="#f6f6f6cc"/>
  <rect x="30" y="13" width="1" height="1" fill="#f8f8f8cc"/>
  <rect x="31" y="13" width="1" height="1" fill="#f9f9f9cc"/>
  <rect x="32" y="13" width="1" height="1" fill="#f2f2f2cc"/>
  <rect x="33" y="13" width="1" height="1" fill="#0909092d"/>
  <rect x="34" y="13" width="1" height="1" fill="#0000000e"/>
  <rect x="40" y="13" width="1" height="1" fill="#00000010"/>
  <rect x="41" y="13" width="1" height="1" fill="#00000030"/>
  <rect x="42" y="13" width="1" height="1" fill="#fcfbfc8c"/>
  <rect x="43" y="13" width="1" height="1" fill="#0000003c"/>
  <rect x="44" y="13" width="1" height="1" fill="#05050534"/>
  <rect x="45" y="13" width="3" height="1" fill="#05050530"/>
  <rect x="48" y="13" width="1" height="1" fill="#00000030"/>
  <rect x="49" y="13" width="1" height="1" fill="#00000034"/>
  <rect x="50" y="13" width="1" height="1" fill="#0000003c"/>
  <rect x="51" y="13" width="1" height="1" fill="#f8f8f88c"/>
  <rect x="53" y="13" width="1" height="1" fill="#01010110"/>
  <rect x="59" y="13" width="1" height="1" fill="#0000000e"/>
  <rect x="60" y="13" width="1" height="1" fill="#0000002d"/>
  <rect x="71" y="13" width="1" height="1" fill="#0000002d"/>
  <rect x="72" y="13" width="1" height="1" fill="#0000000e"/>
  <rect x="3" y="14" width="1" height="1" fill="#0101011d"/>
  <rect x="4" y="14" width="1" height="1" fill="#0101012d"/>
  <rect x="5" y="14" width="1" height="1" fill="#01010130"/>
  <rect x="6" y="14" width="7" height="1" fill="#00000030"/>
  <rect x="13" y="14" width="1" height="1" fill="#0000002d"/>
  <rect x="14" y="14" width="1" height="1" fill="#0000001d"/>
  <rect x="22" y="14" width="1" height="1" fill="#0000001d"/>
  <rect x="23" y="14" width="1" height="1" fill="#0303032d"/>
  <rect x="24" y="14" width="3" height="1" fill="#01010130"/>
  <rect x="27" y="14" width="3" height="1" fill="#00000030"/>
  <rect x="30" y="14" width="1" height="1" fill="#02020230"/>
  <rect x="31" y="14" width="1" height="1" fill="#03030330"/>
  <rect x="32" y="14" width="1" height="1" fill="#0808082d"/>
  <rect x="33" y="14" width="1" height="1" fill="#0000001d"/>
  <rect x="40" y="14" width="1" height="1" fill="#0303030e"/>
  <rect x="41" y="14" width="1" height="1" fill="#0000002d"/>
  <rect x="42" y="14" width="1" height="1" fill="#fafafa8c"/>
  <rect x="43" y="14" width="1" height="1" fill="#f7f7f78c"/>
  <rect x="44" y="14" width="5" height="1" fill="#f8f8f88c"/>
  <rect x="49" y="14" width="2" height="1" fill="#f9f9f98c"/>
  <rect x="51" y="14" width="1" height="1" fill="#f6f6f68c"/>
  <rect x="52" y="14" width="1" height="1" fill="#0000002d"/>
  <rect x="53" y="14" width="1" height="1" fill="#0101010e"/>
  <rect x="60" y="14" width="1" height="1" fill="#0000001d"/>
  <rect x="61" y="14" width="1" height="1" fill="#0000002d"/>
  <rect x="62" y="14" width="8" height="1" fill="#00000030"/>
  <rect x="70" y="14" width="1" height="1" fill="#0000002d"/>
  <rect x="71" y="14" width="1" height="1" fill="#0000001d"/>
  <rect x="4" y="15" width="1" height="1" fill="#0808080e"/>
  <rect x="5" y="15" width="6" height="1" fill="#00000010"/>
  <rect x="11" y="15" width="1" height="1" fill="#02020210"/>
  <rect x="12" y="15" width="1" height="1" fill="#01010110"/>
  <rect x="13" y="15" width="1" height="1" fill="#0000000e"/>
  <rect x="23" y="15" width="1" height="1" fill="#0000000e"/>
  <rect x="24" y="15" width="8" height="1" fill="#00000010"/>
  <rect x="32" y="15" width="1" height="1" fill="#0000000e"/>
  <rect x="41" y="15" width="1" height="1" fill="#0000001d"/>
  <rect x="42" y="15" width="1" height="1" fill="#0303032d"/>
  <rect x="43" y="15" width="5" height="1" fill="#00000030"/>
  <rect x="48" y="15" width="1" height="1" fill="#07070730"/>
  <rect x="49" y="15" width="2" height="1" fill="#00000030"/>
  <rect x="51" y="15" width="1" height="1" fill="#0000002d"/>
  <rect x="52" y="15" width="1" height="1" fill="#0000001d"/>
  <rect x="61" y="15" width="1" height="1" fill="#0000000e"/>
  <rect x="62" y="15" width="8" height="1" fill="#00000010"/>
  <rect x="70" y="15" width="1" height="1" fill="#0000000e"/>
  <rect x="42" y="16" width="1" height="1" fill="#0000000e"/>
  <rect x="43" y="16" width="8" height="1" fill="#00000010"/>
  <rect x="51" y="16" width="1" height="1" fill="#0000000e"/>
</svg>