<svg xmlns="http://www.w3.org/2000/svg" width="24" height="12" viewBox="0 0 24 12" shape-rendering="crispEdges">
  <rect x="3" y="0" width="1" height="1" fill="#6d99cc6e"/>
  <rect x="4" y="0" width="1" height="1" fill="#6d99ccc7"/>
  <rect x="5" y="0" width="2" height="1" fill="#6d99ccf3"/>
  <rect x="7" y="0" width="1" height="1" fill="#6d99ccc7"/>
  <rect x="8" y="0" width="1" height="1" fill="#6c9bcd6e"/>
  <rect x="15" y="0" width="1" height="1" fill="#69add86e"/>
  <rect x="16" y="0" width="1" height="1" fill="#6badd7c7"/>
  <rect x="17" y="0" width="2" height="1" fill="#6badd7f3"/>
  <rect x="19" y="0" width="1" height="1" fill="#6badd7c7"/>
  <rect x="20" y="0" width="1" height="1" fill="#6badd76e"/>
  <rect x="1" y="1" width="1" height="1" fill="#6d99cc1b"/>
  <rect x="2" y="1" width="1" height="1" fill="#6d99cccf"/>
  <rect x="3" y="1" width="5" height="1" fill="#6d99cc"/>
  <rect x="8" y="1" width="1" height="5" fill="#6c9bcd"/>
  <rect x="9" y="1" width="1" height="1" fill="#6b9ccdcf"/>
  <rect x="10" y="1" width="1" height="1" fill="#6c9fd01b"/>
  <rect x="13" y="1" width="1" height="1" fill="#68aad51b"/>
  <rect x="14" y="1" width="1" height="1" fill="#69add8cf"/>
  <rect x="15" y="1" width="1" height="1" fill="#69add8"/>
  <rect x="16" y="1" width="5" height="1" fill="#6badd7"/>
  <rect x="21" y="1" width="1" height="1" fill="#6badd7cf"/>
  <rect x="22" y="1" width="1" height="1" fill="#6badd71b"/>
  <rect x="1" y="2" width="1" height="1" fill="#6d99cccf"/>
  <rect x="2" y="2" width="3" height="1" fill="#6d99cc"/>
  <rect x="6" y="2" width="2" height="4" fill="#6d99cc"/>
  <rect x="9" y="2" width="1" height="4" fill="#6b9ccd"/>
  <rect x="10" y="2" width="1" height="1" fill="#6c9fd0d0"/>
  <rect x="13" y="2" width="1" height="1" fill="#68aad5cf"/>
  <rect x="14" y="2" width="2" height="4" fill="#69add8"/>
  <rect x="16" y="2" width="1" height="5" fill="#6badd7"/>
  <rect x="18" y="2" width="4" height="1" fill="#6badd7"/>
  <rect x="22" y="2" width="1" height="1" fill="#6badd7d0"/>
  <rect x="0" y="3" width="1" height="1" fill="#6d99cc6d"/>
  <rect x="1" y="3" width="4" height="4" fill="#6d99cc"/>
  <rect x="10" y="3" width="1" height="3" fill="#6c9fd0"/>
  <rect x="11" y="3" width="1" height="1" fill="#6aa2d16d"/>
  <rect x="12" y="3" width="1" height="1" fill="#6aa7d46d"/>
  <rect x="13" y="3" width="1" height="3" fill="#68aad5"/>
  <rect x="18" y="3" width="5" height="3" fill="#6badd7"/>
  <rect x="23" y="3" width="1" height="1" fill="#6badd76d"/>
  <rect x="0" y="4" width="1" height="1" fill="#6d99ccc7"/>
  <rect x="11" y="4" width="1" height="1" fill="#6aa2d1c7"/>
  <rect x="12" y="4" width="1" height="1" fill="#6aa7d4c7"/>
  <rect x="23" y="4" width="1" height="1" fill="#6badd7c7"/>
  <rect x="0" y="5" width="1" height="2" fill="#6d99ccf9"/>
  <rect x="11" y="5" width="1" height="1" fill="#6aa2d1f8"/>
  <rect x="12" y="5" width="1" height="1" fill="#6aa7d4f9"/>
  <rect x="23" y="5" width="1" height="1" fill="#6badd7f8"/>
  <rect x="9" y="6" width="1" height="4" fill="#6b9ccb"/>
  <rect x="10" y="6" width="1" height="2" fill="#6c9fce"/>
  <rect x="11" y="6" width="1" height="1" fill="#6aa2cff3"/>
  <rect x="12" y="6" width="1" height="1" fill="#6aa7d2f9"/>
  <rect x="13" y="6" width="1" height="2" fill="#68aad3"/>
  <rect x="14" y="6" width="2" height="2" fill="#69add6"/>
  <rect x="21" y="6" width="2" height="1" fill="#6badd7"/>
  <rect x="23" y="6" width="1" height="1" fill="#6badd7f3"/>
  <rect x="0" y="7" width="1" height="1" fill="#6d99ccc7"/>
  <rect x="1" y="7" width="7" height="1" fill="#6d99cc"/>
  <rect x="8" y="7" width="1" height="3" fill="#6c9bcb"/>
  <rect x="11" y="7" width="1" height="1" fill="#6aa2cfc7"/>
  <rect x="12" y="7" width="1" height="1" fill="#6aa7d2c7"/>
  <rect x="16" y="7" width="7" height="2" fill="#6badd7"/>
  <rect x="23" y="7" width="1" height="1" fill="#6badd7c7"/>
  <rect x="0" y="8" width="1" height="1" fill="#6d99cc6e"/>
  <rect x="1" y="8" width="5" height="1" fill="#6d99cc"/>
  <rect x="6" y="8" width="2" height="3" fill="#6d99ca"/>
  <rect x="10" y="8" width="1" height="1" fill="#6ca0cb"/>
  <rect x="11" y="8" width="1" height="1" fill="#6aa2cd6e"/>
  <rect x="12" y="8" width="1" height="1" fill="#6aa7d06e"/>
  <rect x="13" y="8" width="1" height="1" fill="#68aad1"/>
  <rect x="14" y="8" width="2" height="2" fill="#69add4"/>
  <rect x="23" y="8" width="1" height="1" fill="#6badd76e"/>
  <rect x="1" y="9" width="1" height="1" fill="#6d99ccd0"/>
  <rect x="2" y="9" width="4" height="1" fill="#6d99cc"/>
  <rect x="10" y="9" width="1" height="1" fill="#6ca0cbd1"/>
  <rect x="13" y="9" width="1" height="1" fill="#68aad1d0"/>
  <rect x="16" y="9" width="6" height="1" fill="#6badd7"/>
  <rect x="22" y="9" width="1" height="1" fill="#6badd7d1"/>
  <rect x="1" y="10" width="1" height="1" fill="#6d99cc1b"/>
  <rect x="2" y="10" width="1" height="1" fill="#6d99cccf"/>
  <rect x="3" y="10" width="3" height="1" fill="#6d99cc"/>
  <rect x="8" y="10" width="1" height="1" fill="#6c9cc9"/>
  <rect x="9" y="10" width="1" height="1" fill="#6b9cc9d0"/>
  <rect x="10" y="10" width="1" height="1" fill="#6ca0cb1b"/>
  <rect x="13" y="10" width="1" height="1" fill="#68abcf1b"/>
  <rect x="14" y="10" width="1" height="1" fill="#6aafd3cf"/>
  <rect x="15" y="10" width="1" height="1" fill="#6aafd5"/>
  <rect x="16" y="10" width="5" height="1" fill="#6badd7"/>
  <rect x="21" y="10" width="1" height="1" fill="#6badd7d0"/>
  <rect x="22" y="10" width="1" height="1" fill="#6badd71b"/>
  <rect x="3" y="11" width="1" height="1" fill="#6d99cc6f"/>
  <rect x="4" y="11" width="1" height="1" fill="#6d99cccb"/>
  <rect x="5" y="11" width="1" height="1" fill="#6d99ccf4"/>
  <rect x="6" y="11" width="1" height="1" fill="#6d99caf4"/>
  <rect x="7" y="11" width="1" height="1" fill="#6d99cacb"/>
  <rect x="8" y="11" width="1" height="1" fill="#6a99c76f"/>
  <rect x="15" y="11" width="1" height="1" fill="#6bb0d66f"/>
  <rect x="16" y="11" width="1" height="1" fill="#6badd7cb"/>
  <rect x="17" y="11" width="2" height="1" fill="#6badd7f4"/>
  <rect x="19" y="11" width="1" height="1" fill="#6badd7cb"/>
  <rect x="20" y="11" width="1" height="1" fill="#6badd76f"/>
</svg>