<svg xmlns="http://www.w3.org/2000/svg" width="10" height="10" viewBox="0 0 10 10" shape-rendering="crispEdges">
  <rect x="2" y="0" width="1" height="1" fill="#2fb4d94d"/>
  <rect x="3" y="0" width="1" height="1" fill="#30aacebe"/>
  <rect x="4" y="0" width="1" height="1" fill="#37a4c4f3"/>
  <rect x="5" y="0" width="1" height="1" fill="#39a9ccf3"/>
  <rect x="6" y="0" width="1" height="1" fill="#2eb2debe"/>
  <rect x="7" y="0" width="1" height="1" fill="#21acdf4c"/>
  <rect x="1" y="1" width="1" height="1" fill="#23acd084"/>
  <rect x="2" y="1" width="1" height="1" fill="#3ab7e1"/>
  <rect x="3" y="1" width="1" height="1" fill="#45b3d9"/>
  <rect x="4" y="1" width="1" height="1" fill="#57b0cd"/>
  <rect x="5" y="1" width="1" height="1" fill="#b7ffff"/>
  <rect x="6" y="1" width="1" height="1" fill="#49b9e1"/>
  <rect x="7" y="1" width="1" height="1" fill="#33afde"/>
  <rect x="8" y="1" width="1" height="1" fill="#2eafdf84"/>
  <rect x="0" y="2" width="1" height="1" fill="#30a9d04c"/>
  <rect x="1" y="2" width="1" height="1" fill="#3eb5df"/>
  <rect x="2" y="2" width="1" height="1" fill="#46b4e7"/>
  <rect x="3" y="2" width="1" height="1" fill="#58aeda"/>
  <rect x="4" y="2" width="1" height="1" fill="#d6ffff"/>
  <rect x="5" y="2" width="1" height="1" fill="#d9ffff"/>
  <rect x="6" y="2" width="1" height="1" fill="#cfffff"/>
  <rect x="7" y="2" width="1" height="1" fill="#55b2db"/>
  <rect x="8" y="2" width="1" height="1" fill="#36acdb"/>
  <rect x="9" y="2" width="1" height="1" fill="#2db0e14d"/>
  <rect x="0" y="3" width="1" height="1" fill="#35a7d0be"/>
  <rect x="1" y="3" width="1" height="1" fill="#4ab9e8"/>
  <rect x="2" y="3" width="1" height="1" fill="#51b8ee"/>
  <rect x="3" y="3" width="1" height="1" fill="#61aedb"/>
  <rect x="4" y="3" width="1" height="1" fill="#e8ffff"/>
  <rect x="5" y="3" width="1" height="1" fill="#edffff"/>
  <rect x="6" y="3" width="1" height="1" fill="#d7ffff"/>
  <rect x="7" y="3" width="1" height="1" fill="#5fadd0"/>
  <rect x="8" y="3" width="1" height="1" fill="#39abd7"/>
  <rect x="9" y="3" width="1" height="1" fill="#2caee0be"/>
  <rect x="0" y="4" width="1" height="1" fill="#32abd4f2"/>
  <rect x="1" y="4" width="1" height="1" fill="#44bae7"/>
  <rect x="2" y="4" width="1" height="1" fill="#49b7eb"/>
  <rect x="3" y="4" width="1" height="1" fill="#5dafd5"/>
  <rect x="4" y="4" width="1" height="1" fill="#e7ffff"/>
  <rect x="5" y="4" width="1" height="1" fill="#ecffff"/>
  <rect x="6" y="4" width="1" height="1" fill="#deffff"/>
  <rect x="7" y="4" width="1" height="1" fill="#5ca9c3"/>
  <rect x="8" y="4" width="1" height="1" fill="#43b4e0"/>
  <rect x="9" y="4" width="1" height="1" fill="#28addff2"/>
  <rect x="0" y="5" width="1" height="1" fill="#2eabd5f2"/>
  <rect x="1" y="5" width="1" height="1" fill="#3bb3df"/>
  <rect x="2" y="5" width="1" height="1" fill="#41aedd"/>
  <rect x="3" y="5" width="1" height="1" fill="#5cacd1"/>
  <rect x="4" y="5" width="1" height="1" fill="#e1ffff"/>
  <rect x="5" y="5" width="1" height="1" fill="#eaffff"/>
  <rect x="6" y="5" width="1" height="1" fill="#d2ffff"/>
  <rect x="7" y="5" width="1" height="1" fill="#62b2cc"/>
  <rect x="8" y="5" width="1" height="1" fill="#3fb3de"/>
  <rect x="9" y="5" width="1" height="1" fill="#25aaddf3"/>
  <rect x="0" y="6" width="1" height="1" fill="#2da9d8be"/>
  <rect x="1" y="6" width="1" height="1" fill="#3db0df"/>
  <rect x="2" y="6" width="1" height="1" fill="#52b6e4"/>
  <rect x="3" y="6" width="1" height="1" fill="#c0ffff"/>
  <rect x="4" y="6" width="1" height="1" fill="#e3ffff"/>
  <rect x="5" y="6" width="1" height="1" fill="#e6ffff"/>
  <rect x="6" y="6" width="1" height="1" fill="#d9ffff"/>
  <rect x="7" y="6" width="1" height="1" fill="#beffff"/>
  <rect x="8" y="6" width="1" height="1" fill="#3ab0da"/>
  <rect x="9" y="6" width="1" height="1" fill="#20a7d9be"/>
  <rect x="0" y="7" width="1" height="1" fill="#1e9ccf4d"/>
  <rect x="1" y="7" width="1" height="1" fill="#2ea5d6"/>
  <rect x="2" y="7" width="1" height="1" fill="#48b2e0"/>
  <rect x="3" y="7" width="1" height="1" fill="#56aed9"/>
  <rect x="4" y="7" width="1" height="1" fill="#65adcd"/>
  <rect x="5" y="7" width="1" height="1" fill="#c6ffff"/>
  <rect x="6" y="7" width="1" height="1" fill="#5cabcc"/>
  <rect x="7" y="7" width="1" height="1" fill="#4cacd2"/>
  <rect x="8" y="7" width="1" height="1" fill="#34afdc"/>
  <rect x="9" y="7" width="1" height="1" fill="#1fa6d84d"/>
  <rect x="1" y="8" width="1" height="1" fill="#25a7db84"/>
  <rect x="2" y="8" width="1" height="1" fill="#2ba9dc"/>
  <rect x="3" y="8" width="1" height="1" fill="#39b1e3"/>
  <rect x="4" y="8" width="1" height="1" fill="#44b7e6"/>
  <rect x="5" y="8" width="1" height="1" fill="#3fb2e2"/>
  <rect x="6" y="8" width="1" height="1" fill="#37afdf"/>
  <rect x="7" y="8" width="1" height="1" fill="#33afe0"/>
  <rect x="8" y="8" width="1" height="1" fill="#22a7d984"/>
  <rect x="2" y="9" width="1" height="1" fill="#1ea4db4e"/>
  <rect x="3" y="9" width="1" height="1" fill="#20a7ddbe"/>
  <rect x="4" y="9" width="1" height="1" fill="#1ca5ddf4"/>
  <rect x="5" y="9" width="1" height="1" fill="#19a1daf4"/>
  <rect x="6" y="9" width="1" height="1" fill="#17a2dabe"/>
  <rect x="7" y="9" width="1" height="1" fill="#18a3db4d"/>
</svg>