<svg xmlns="http://www.w3.org/2000/svg" width="16" height="14" viewBox="0 0 16 14" shape-rendering="crispEdges">
  <rect x="9" y="0" width="1" height="1" fill="#f8f8f868"/>
  <rect x="10" y="0" width="1" height="1" fill="#f8f8f84d"/>
  <rect x="8" y="1" width="1" height="1" fill="#f8f8f81f"/>
  <rect x="9" y="1" width="1" height="1" fill="#f8f8f8e6"/>
  <rect x="10" y="1" width="1" height="1" fill="#f8f8f8d0"/>
  <rect x="11" y="1" width="1" height="1" fill="#f8f8f82d"/>
  <rect x="14" y="1" width="1" height="1" fill="#f8f8f824"/>
  <rect x="15" y="1" width="1" height="1" fill="#f8f8f878"/>
  <rect x="8" y="2" width="1" height="1" fill="#f8f8f843"/>
  <rect x="9" y="2" width="2" height="1" fill="#f8f8f8"/>
  <rect x="11" y="2" width="1" height="1" fill="#f8f8f8eb"/>
  <rect x="12" y="2" width="1" height="1" fill="#f8f8f8a2"/>
  <rect x="13" y="2" width="1" height="1" fill="#f8f8f896"/>
  <rect x="14" y="2" width="1" height="1" fill="#f8f8f8e4"/>
  <rect x="15" y="2" width="1" height="1" fill="#f8f8f8da"/>
  <rect x="8" y="3" width="1" height="1" fill="#f8f8f894"/>
  <rect x="9" y="3" width="1" height="1" fill="#f8f8f8fc"/>
  <rect x="10" y="3" width="1" height="1" fill="#f8f8f8dd"/>
  <rect x="11" y="3" width="1" height="1" fill="#f8f8f8f4"/>
  <rect x="12" y="3" width="2" height="1" fill="#f8f8f8"/>
  <rect x="14" y="3" width="1" height="1" fill="#f8f8f8f4"/>
  <rect x="15" y="3" width="1" height="1" fill="#f8f8f849"/>
  <rect x="7" y="4" width="1" height="1" fill="#f8f8f81a"/>
  <rect x="8" y="4" width="1" height="1" fill="#f8f8f8f5"/>
  <rect x="9" y="4" width="1" height="1" fill="#f8f8f8dc"/>
  <rect x="10" y="4" width="1" height="1" fill="#f8f8f827"/>
  <rect x="11" y="4" width="1" height="1" fill="#f8f8f852"/>
  <rect x="12" y="4" width="1" height="1" fill="#f8f8f8aa"/>
  <rect x="13" y="4" width="1" height="1" fill="#f8f8f896"/>
  <rect x="14" y="4" width="1" height="1" fill="#f8f8f83e"/>
  <rect x="7" y="5" width="1" height="1" fill="#f8f8f857"/>
  <rect x="8" y="5" width="1" height="2" fill="#f8f8f8"/>
  <rect x="9" y="5" width="1" height="1" fill="#f8f8f8a9"/>
  <rect x="1" y="6" width="1" height="1" fill="#f8f8f815"/>
  <rect x="2" y="6" width="1" height="1" fill="#f8f8f87d"/>
  <rect x="3" y="6" width="2" height="1" fill="#f8f8f8c2"/>
  <rect x="5" y="6" width="1" height="1" fill="#f8f8f87c"/>
  <rect x="6" y="6" width="1" height="1" fill="#f8f8f812"/>
  <rect x="7" y="6" width="1" height="1" fill="#f8f8f8a1"/>
  <rect x="9" y="6" width="1" height="1" fill="#f8f8f873"/>
  <rect x="0" y="7" width="1" height="1" fill="#f8f8f81d"/>
  <rect x="1" y="7" width="1" height="1" fill="#f8f8f8be"/>
  <rect x="2" y="7" width="4" height="1" fill="#f8f8f8"/>
  <rect x="6" y="7" width="1" height="1" fill="#f8f8f8c6"/>
  <rect x="7" y="7" width="1" height="1" fill="#f8f8f8f2"/>
  <rect x="8" y="7" width="1" height="1" fill="#f8f8f8e6"/>
  <rect x="9" y="7" width="1" height="1" fill="#f8f8f82c"/>
  <rect x="0" y="8" width="1" height="1" fill="#f8f8f88f"/>
  <rect x="1" y="8" width="7" height="1" fill="#f8f8f8"/>
  <rect x="8" y="8" width="1" height="1" fill="#f8f8f8bb"/>
  <rect x="0" y="9" width="1" height="1" fill="#f8f8f8df"/>
  <rect x="1" y="9" width="6" height="3" fill="#f8f8f8"/>
  <rect x="7" y="9" width="1" height="1" fill="#f8f8f8fe"/>
  <rect x="8" y="9" width="1" height="1" fill="#f8f8f878"/>
  <rect x="0" y="10" width="1" height="1" fill="#f8f8f8ea"/>
  <rect x="7" y="10" width="1" height="1" fill="#f8f8f8f1"/>
  <rect x="8" y="10" width="1" height="1" fill="#f8f8f82e"/>
  <rect x="0" y="11" width="1" height="1" fill="#f8f8f8aa"/>
  <rect x="7" y="11" width="1" height="1" fill="#f8f8f8ab"/>
  <rect x="0" y="12" width="1" height="1" fill="#f8f8f832"/>
  <rect x="1" y="12" width="1" height="1" fill="#f8f8f8dd"/>
  <rect x="2" y="12" width="4" height="1" fill="#f8f8f8"/>
  <rect x="6" y="12" width="1" height="1" fill="#f8f8f8dd"/>
  <rect x="7" y="12" width="1" height="1" fill="#f8f8f831"/>
  <rect x="1" y="13" width="1" height="1" fill="#f8f8f831"/>
  <rect x="2" y="13" width="1" height="1" fill="#f8f8f8a7"/>
  <rect x="3" y="13" width="2" height="1" fill="#f8f8f8e9"/>
  <rect x="5" y="13" width="1" height="1" fill="#f8f8f8a6"/>
  <rect x="6" y="13" width="1" height="1" fill="#f8f8f831"/>
</svg>