<svg xmlns="http://www.w3.org/2000/svg" width="18" height="14" viewBox="0 0 18 14" shape-rendering="crispEdges">
  <rect x="0" y="0" width="1" height="1" fill="#ffffff3a"/>
  <rect x="1" y="0" width="1" height="1" fill="#ffffffb8"/>
  <rect x="2" y="0" width="10" height="1" fill="#ffffffcc"/>
  <rect x="12" y="0" width="1" height="1" fill="#ffffffb8"/>
  <rect x="13" y="0" width="1" height="1" fill="#ffffff3a"/>
  <rect x="0" y="1" width="1" height="1" fill="#ffffffb8"/>
  <rect x="1" y="1" width="12" height="1" fill="#ffffffcc"/>
  <rect x="13" y="1" width="1" height="1" fill="#ffffffb8"/>
  <rect x="0" y="2" width="5" height="6" fill="#ffffffcc"/>
  <rect x="5" y="2" width="1" height="1" fill="#ffffff82"/>
  <rect x="6" y="2" width="1" height="1" fill="#ffffff0d"/>
  <rect x="5" y="3" width="1" height="1" fill="#ffffff0a"/>
  <rect x="6" y="3" width="1" height="1" fill="#ffffff4a"/>
  <rect x="7" y="3" width="1" height="1" fill="#ffffffbf"/>
  <rect x="8" y="3" width="8" height="1" fill="#ffffffcc"/>
  <rect x="16" y="3" width="1" height="1" fill="#ffffffbf"/>
  <rect x="17" y="3" width="1" height="1" fill="#ffffff49"/>
  <rect x="6" y="4" width="1" height="1" fill="#ffffffc2"/>
  <rect x="7" y="4" width="10" height="1" fill="#ffffffcc"/>
  <rect x="17" y="4" width="1" height="1" fill="#ffffffc2"/>
  <rect x="6" y="5" width="12" height="1" fill="#ffffffcc"/>
  <rect x="6" y="6" width="1" height="2" fill="#ffffffcc"/>
  <rect x="7" y="6" width="1" height="2" fill="#ffffff30"/>
  <rect x="8" y="6" width="1" height="2" fill="#ffffff2e"/>
  <rect x="9" y="6" width="2" height="2" fill="#ffffffcc"/>
  <rect x="11" y="6" width="1" height="1" fill="#ffffff33"/>
  <rect x="12" y="6" width="1" height="2" fill="#ffffff2e"/>
  <rect x="13" y="6" width="2" height="2" fill="#ffffffcc"/>
  <rect x="15" y="6" width="1" height="1" fill="#ffffff35"/>
  <rect x="16" y="6" width="1" height="1" fill="#ffffff2b"/>
  <rect x="17" y="6" width="1" height="2" fill="#ffffffcc"/>
  <rect x="11" y="7" width="1" height="1" fill="#ffffff32"/>
  <rect x="15" y="7" width="1" height="1" fill="#ffffff34"/>
  <rect x="16" y="7" width="1" height="1" fill="#ffffff2a"/>
  <rect x="0" y="8" width="1" height="1" fill="#ffffffb8"/>
  <rect x="1" y="8" width="4" height="1" fill="#ffffffcc"/>
  <rect x="6" y="8" width="12" height="2" fill="#ffffffcc"/>
  <rect x="0" y="9" width="1" height="1" fill="#ffffff3b"/>
  <rect x="1" y="9" width="1" height="1" fill="#ffffffb9"/>
  <rect x="2" y="9" width="3" height="1" fill="#ffffffcc"/>
  <rect x="2" y="10" width="2" height="1" fill="#ffffffcc"/>
  <rect x="4" y="10" width="1" height="1" fill="#ffffffc2"/>
  <rect x="6" y="10" width="1" height="1" fill="#ffffffc2"/>
  <rect x="7" y="10" width="10" height="1" fill="#ffffffcc"/>
  <rect x="17" y="10" width="1" height="1" fill="#ffffffbe"/>
  <rect x="2" y="11" width="1" height="1" fill="#ffffffcc"/>
  <rect x="3" y="11" width="1" height="1" fill="#ffffffa9"/>
  <rect x="4" y="11" width="1" height="1" fill="#ffffff20"/>
  <rect x="6" y="11" width="1" height="1" fill="#ffffff4a"/>
  <rect x="7" y="11" width="1" height="1" fill="#ffffffbc"/>
  <rect x="8" y="11" width="8" height="1" fill="#ffffffcc"/>
  <rect x="16" y="11" width="1" height="1" fill="#ffffffbc"/>
  <rect x="17" y="11" width="1" height="1" fill="#ffffff4a"/>
  <rect x="2" y="12" width="1" height="1" fill="#ffffff7b"/>
  <rect x="13" y="12" width="1" height="1" fill="#ffffff42"/>
  <rect x="14" y="12" width="1" height="1" fill="#ffffffba"/>
  <rect x="15" y="12" width="1" height="1" fill="#ffffffcc"/>
  <rect x="14" y="13" width="1" height="1" fill="#ffffff10"/>
  <rect x="15" y="13" width="1" height="1" fill="#ffffff85"/>
</svg>