<svg xmlns="http://www.w3.org/2000/svg" width="13" height="14" viewBox="0 0 13 14" shape-rendering="crispEdges">
  <rect x="4" y="0" width="1" height="1" fill="#fdfdfd0f"/>
  <rect x="5" y="0" width="1" height="1" fill="#fdfdfdb1"/>
  <rect x="6" y="0" width="1" height="1" fill="#fefefef1"/>
  <rect x="7" y="0" width="1" height="1" fill="#fefefeb1"/>
  <rect x="8" y="0" width="1" height="1" fill="#fafafa12"/>
  <rect x="4" y="1" width="1" height="1" fill="#fdfdfd94"/>
  <rect x="5" y="1" width="1" height="2" fill="#fdfdfd"/>
  <rect x="6" y="1" width="2" height="2" fill="#fefefe"/>
  <rect x="8" y="1" width="1" height="1" fill="#fafafa9b"/>
  <rect x="4" y="2" width="1" height="1" fill="#fdfdfddc"/>
  <rect x="8" y="2" width="1" height="1" fill="#fafafae4"/>
  <rect x="4" y="3" width="1" height="1" fill="#fdfdfdeb"/>
  <rect x="5" y="3" width="1" height="2" fill="#ffffff"/>
  <rect x="6" y="3" width="1" height="2" fill="#fdfdfd"/>
  <rect x="7" y="3" width="1" height="1" fill="#fefefe"/>
  <rect x="8" y="3" width="1" height="1" fill="#fafafaee"/>
  <rect x="4" y="4" width="1" height="1" fill="#ecececd5"/>
  <rect x="7" y="4" width="1" height="1" fill="#f7f7f7"/>
  <rect x="8" y="4" width="1" height="1" fill="#eeeeeed5"/>
  <rect x="4" y="5" width="1" height="1" fill="#e1e1e1ab"/>
  <rect x="5" y="5" width="1" height="1" fill="#fdfdfd"/>
  <rect x="6" y="5" width="2" height="3" fill="#ffffff"/>
  <rect x="8" y="5" width="1" height="1" fill="#e1e1e1ac"/>
  <rect x="4" y="6" width="1" height="1" fill="#dcdcdc84"/>
  <rect x="5" y="6" width="1" height="1" fill="#fcfbfc"/>
  <rect x="8" y="6" width="1" height="1" fill="#dcdcdc84"/>
  <rect x="4" y="7" width="1" height="1" fill="#e1e1e184"/>
  <rect x="5" y="7" width="1" height="1" fill="#fefefe"/>
  <rect x="8" y="7" width="1" height="1" fill="#e2e2e284"/>
  <rect x="4" y="8" width="1" height="1" fill="#ffffffd4"/>
  <rect x="5" y="8" width="3" height="1" fill="#ffffff"/>
  <rect x="8" y="8" width="1" height="1" fill="#f9f9f9d4"/>
  <rect x="2" y="9" width="1" height="1" fill="#fcfbfc29"/>
  <rect x="3" y="9" width="1" height="1" fill="#ffffffbf"/>
  <rect x="4" y="9" width="5" height="1" fill="#ffffff"/>
  <rect x="9" y="9" width="1" height="1" fill="#ffffffbf"/>
  <rect x="10" y="9" width="1" height="1" fill="#fefefe2d"/>
  <rect x="0" y="10" width="1" height="1" fill="#fcfbfc5b"/>
  <rect x="1" y="10" width="1" height="1" fill="#ffffffc7"/>
  <rect x="2" y="10" width="1" height="1" fill="#fffffffe"/>
  <rect x="3" y="10" width="6" height="2" fill="#ffffff"/>
  <rect x="9" y="10" width="1" height="1" fill="#fefefe"/>
  <rect x="10" y="10" width="1" height="1" fill="#ffffff"/>
  <rect x="11" y="10" width="1" height="1" fill="#fefefec9"/>
  <rect x="12" y="10" width="1" height="1" fill="#fefefe5b"/>
  <rect x="0" y="11" width="1" height="1" fill="#fcfbfcfe"/>
  <rect x="1" y="11" width="1" height="1" fill="#fdfdfd"/>
  <rect x="2" y="11" width="1" height="1" fill="#fcfbfc"/>
  <rect x="9" y="11" width="1" height="1" fill="#f8f8f8"/>
  <rect x="10" y="11" width="2" height="1" fill="#ffffff"/>
  <rect x="12" y="11" width="1" height="1" fill="#fffffffe"/>
  <rect x="0" y="12" width="7" height="1" fill="#ffffff"/>
  <rect x="7" y="12" width="2" height="1" fill="#fefefe"/>
  <rect x="9" y="12" width="4" height="1" fill="#ffffff"/>
  <rect x="0" y="13" width="4" height="1" fill="#02020240"/>
  <rect x="4" y="13" width="3" height="1" fill="#01010140"/>
  <rect x="7" y="13" width="2" height="1" fill="#00000040"/>
  <rect x="9" y="13" width="2" height="1" fill="#01010140"/>
  <rect x="11" y="13" width="2" height="1" fill="#02020240"/>
</svg>