<svg xmlns="http://www.w3.org/2000/svg" width="54" height="18" viewBox="0 0 54 18" shape-rendering="crispEdges">
  <rect x="5" y="0" width="1" height="1" fill="#949a9f1b"/>
  <rect x="6" y="0" width="1" height="1" fill="#878d923d"/>
  <rect x="7" y="0" width="1" height="1" fill="#878d9257"/>
  <rect x="8" y="0" width="2" height="1" fill="#8a909562"/>
  <rect x="10" y="0" width="1" height="1" fill="#8a909557"/>
  <rect x="11" y="0" width="1" height="1" fill="#8a90953d"/>
  <rect x="12" y="0" width="1" height="1" fill="#989ea31b"/>
  <rect x="23" y="0" width="1" height="1" fill="#bdc6c845"/>
  <rect x="24" y="0" width="1" height="1" fill="#bec8c79a"/>
  <rect x="25" y="0" width="1" height="1" fill="#bec8c7dd"/>
  <rect x="26" y="0" width="2" height="1" fill="#c0c9c6f9"/>
  <rect x="28" y="0" width="1" height="1" fill="#c0c9c8dd"/>
  <rect x="29" y="0" width="1" height="1" fill="#c0c9c89a"/>
  <rect x="30" y="0" width="1" height="1" fill="#c0c9c845"/>
  <rect x="41" y="0" width="1" height="1" fill="#848d8f45"/>
  <rect x="42" y="0" width="1" height="1" fill="#80888a9a"/>
  <rect x="43" y="0" width="1" height="1" fill="#7c8586dd"/>
  <rect x="44" y="0" width="2" height="1" fill="#7c8586f9"/>
  <rect x="46" y="0" width="1" height="1" fill="#7c8586dd"/>
  <rect x="47" y="0" width="1" height="1" fill="#7c85869a"/>
  <rect x="48" y="0" width="1" height="1" fill="#7d868845"/>
  <rect x="3" y="1" width="1" height="1" fill="#8e949910"/>
  <rect x="4" y="1" width="1" height="1" fill="#959ba04c"/>
  <rect x="5" y="1" width="1" height="1" fill="#9ca2a763"/>
  <rect x="6" y="1" width="1" height="1" fill="#a4aaaf62"/>
  <rect x="7" y="1" width="1" height="1" fill="#aab0b560"/>
  <rect x="8" y="1" width="3" height="1" fill="#adb3b860"/>
  <rect x="11" y="1" width="1" height="1" fill="#adb3b862"/>
  <rect x="12" y="1" width="1" height="1" fill="#969ca163"/>
  <rect x="13" y="1" width="1" height="1" fill="#90969b4c"/>
  <rect x="14" y="1" width="1" height="1" fill="#959ba010"/>
  <rect x="21" y="1" width="1" height="1" fill="#bdc6ca28"/>
  <rect x="22" y="1" width="1" height="1" fill="#bdc6c8c0"/>
  <rect x="23" y="1" width="1" height="1" fill="#bec7c9"/>
  <rect x="24" y="1" width="2" height="1" fill="#c0c9c8"/>
  <rect x="26" y="1" width="2" height="1" fill="#c0c9c6"/>
  <rect x="28" y="1" width="3" height="1" fill="#c0c9c8"/>
  <rect x="31" y="1" width="1" height="1" fill="#c0c9c8c0"/>
  <rect x="32" y="1" width="1" height="1" fill="#c0c9c828"/>
  <rect x="39" y="1" width="1" height="1" fill="#828b8c28"/>
  <rect x="40" y="1" width="1" height="1" fill="#80888ac0"/>
  <rect x="41" y="1" width="1" height="1" fill="#838c8d"/>
  <rect x="42" y="1" width="1" height="1" fill="#889192"/>
  <rect x="43" y="1" width="5" height="1" fill="#8b9496"/>
  <rect x="48" y="1" width="1" height="1" fill="#828b8c"/>
  <rect x="49" y="1" width="1" height="1" fill="#7d8688c0"/>
  <rect x="50" y="1" width="1" height="1" fill="#818a8b28"/>
  <rect x="2" y="2" width="1" height="1" fill="#9ba1a619"/>
  <rect x="3" y="2" width="1" height="1" fill="#93999d5f"/>
  <rect x="4" y="2" width="1" height="1" fill="#a4aaaf61"/>
  <rect x="5" y="2" width="1" height="1" fill="#aab0b55b"/>
  <rect x="6" y="2" width="1" height="1" fill="#b1b7bc33"/>
  <rect x="7" y="2" width="1" height="1" fill="#b1b7bc15"/>
  <rect x="10" y="2" width="1" height="1" fill="#b3b9be15"/>
  <rect x="11" y="2" width="1" height="1" fill="#b3b9be33"/>
  <rect x="12" y="2" width="1" height="1" fill="#b1b7bc5a"/>
  <rect x="13" y="2" width="1" height="1" fill="#9ea4a961"/>
  <rect x="14" y="2" width="1" height="1" fill="#90969b5f"/>
  <rect x="15" y="2" width="1" height="1" fill="#8f959a19"/>
  <rect x="20" y="2" width="1" height="1" fill="#bdc6ca40"/>
  <rect x="21" y="2" width="1" height="1" fill="#bec7cbf3"/>
  <rect x="22" y="2" width="1" height="1" fill="#c0c8ca"/>
  <rect x="23" y="2" width="1" height="1" fill="#c0c8caf1"/>
  <rect x="24" y="2" width="1" height="1" fill="#c0c9c888"/>
  <rect x="25" y="2" width="1" height="1" fill="#c0c9c837"/>
  <rect x="26" y="2" width="2" height="1" fill="#c0c9c613"/>
  <rect x="28" y="2" width="1" height="1" fill="#c0c9c837"/>
  <rect x="29" y="2" width="1" height="1" fill="#c0c9c888"/>
  <rect x="30" y="2" width="1" height="1" fill="#c0c9c8f0"/>
  <rect x="31" y="2" width="1" height="1" fill="#c0c9c8"/>
  <rect x="32" y="2" width="1" height="1" fill="#c5cfcef3"/>
  <rect x="33" y="2" width="1" height="1" fill="#c0c9c840"/>
  <rect x="38" y="2" width="1" height="1" fill="#878f9140"/>
  <rect x="39" y="2" width="1" height="1" fill="#838c8df3"/>
  <rect x="40" y="2" width="1" height="1" fill="#848d8f"/>
  <rect x="41" y="2" width="1" height="1" fill="#889192f1"/>
  <rect x="42" y="2" width="1" height="1" fill="#8c959788"/>
  <rect x="43" y="2" width="1" height="1" fill="#90999a37"/>
  <rect x="44" y="2" width="2" height="1" fill="#90999a13"/>
  <rect x="46" y="2" width="1" height="1" fill="#90999a37"/>
  <rect x="47" y="2" width="1" height="1" fill="#90999a88"/>
  <rect x="48" y="2" width="1" height="1" fill="#99a2a4f0"/>
  <rect x="49" y="2" width="1" height="1" fill="#8a9394"/>
  <rect x="50" y="2" width="1" height="1" fill="#80888af3"/>
  <rect x="51" y="2" width="1" height="1" fill="#7b848540"/>
  <rect x="1" y="3" width="1" height="1" fill="#8e949910"/>
  <rect x="2" y="3" width="1" height="1" fill="#93999d5d"/>
  <rect x="3" y="3" width="1" height="1" fill="#abb1b660"/>
  <rect x="4" y="3" width="1" height="1" fill="#b2b8bd48"/>
  <rect x="13" y="3" width="1" height="1" fill="#b1b7bc47"/>
  <rect x="14" y="3" width="1" height="1" fill="#a9afb460"/>
  <rect x="15" y="3" width="1" height="1" fill="#9aa0a45d"/>
  <rect x="16" y="3" width="1" height="1" fill="#91999d10"/>
  <rect x="19" y="3" width="1" height="1" fill="#bcc5c928"/>
  <rect x="20" y="3" width="1" height="1" fill="#c0c8ccf0"/>
  <rect x="21" y="3" width="1" height="1" fill="#c0c8cc"/>
  <rect x="22" y="3" width="1" height="1" fill="#c0c8cabf"/>
  <rect x="23" y="3" width="1" height="1" fill="#c0c8ca15"/>
  <rect x="30" y="3" width="1" height="1" fill="#c0c9c815"/>
  <rect x="31" y="3" width="1" height="1" fill="#c0c9c8be"/>
  <rect x="32" y="3" width="1" height="1" fill="#bdc6c6"/>
  <rect x="33" y="3" width="1" height="1" fill="#c5cfcef0"/>
  <rect x="34" y="3" width="1" height="1" fill="#c1cac928"/>
  <rect x="37" y="3" width="1" height="1" fill="#828b8c28"/>
  <rect x="38" y="3" width="1" height="1" fill="#838c8df0"/>
  <rect x="39" y="3" width="1" height="1" fill="#90999a"/>
  <rect x="40" y="3" width="1" height="1" fill="#939c9ebf"/>
  <rect x="41" y="3" width="1" height="1" fill="#90999a15"/>
  <rect x="48" y="3" width="1" height="1" fill="#949d9f15"/>
  <rect x="49" y="3" width="1" height="1" fill="#969ea0be"/>
  <rect x="50" y="3" width="1" height="1" fill="#919a9b"/>
  <rect x="51" y="3" width="1" height="1" fill="#838c8df0"/>
  <rect x="52" y="3" width="1" height="1" fill="#89929328"/>
  <rect x="1" y="4" width="1" height="1" fill="#9aa0a44e"/>
  <rect x="2" y="4" width="1" height="1" fill="#adb3b860"/>
  <rect x="3" y="4" width="1" height="1" fill="#b0b6bb49"/>
  <rect x="6" y="4" width="1" height="1" fill="#959ba026"/>
  <rect x="7" y="4" width="1" height="1" fill="#8e94991d"/>
  <rect x="10" y="4" width="1" height="1" fill="#8f959a1d"/>
  <rect x="11" y="4" width="1" height="1" fill="#90969b26"/>
  <rect x="14" y="4" width="1" height="1" fill="#b1b7bc49"/>
  <rect x="15" y="4" width="1" height="1" fill="#adb3b860"/>
  <rect x="16" y="4" width="1" height="1" fill="#98a0a44e"/>
  <rect x="19" y="4" width="1" height="1" fill="#b9c1c5c6"/>
  <rect x="20" y="4" width="1" height="1" fill="#bec7cb"/>
  <rect x="21" y="4" width="1" height="1" fill="#bec7cbc3"/>
  <rect x="24" y="4" width="1" height="1" fill="#bec7c95f"/>
  <rect x="25" y="4" width="1" height="1" fill="#bec7c94a"/>
  <rect x="28" y="4" width="1" height="1" fill="#bec8c74a"/>
  <rect x="29" y="4" width="1" height="1" fill="#bec8c75f"/>
  <rect x="32" y="4" width="1" height="1" fill="#c0c8cac3"/>
  <rect x="33" y="4" width="1" height="1" fill="#bdc6c8"/>
  <rect x="34" y="4" width="1" height="1" fill="#bcc5c6c6"/>
  <rect x="37" y="4" width="1" height="1" fill="#80888ac6"/>
  <rect x="38" y="4" width="1" height="1" fill="#98a1a2"/>
  <rect x="39" y="4" width="1" height="1" fill="#949d9fc3"/>
  <rect x="42" y="4" width="1" height="1" fill="#828b8c5f"/>
  <rect x="43" y="4" width="1" height="1" fill="#7a83844a"/>
  <rect x="46" y="4" width="1" height="1" fill="#838c8d4a"/>
  <rect x="47" y="4" width="1" height="1" fill="#80888a5f"/>
  <rect x="50" y="4" width="1" height="1" fill="#949d9fc3"/>
  <rect x="51" y="4" width="1" height="1" fill="#949d9f"/>
  <rect x="52" y="4" width="1" height="1" fill="#848d8fc6"/>
  <rect x="0" y="5" width="1" height="1" fill="#8d93981c"/>
  <rect x="1" y="5" width="1" height="1" fill="#a9afb461"/>
  <rect x="2" y="5" width="1" height="1" fill="#b6bcc05c"/>
  <rect x="3" y="5" width="1" height="1" fill="#acb2b70a"/>
  <rect x="5" y="5" width="1" height="1" fill="#898f941b"/>
  <rect x="6" y="5" width="1" height="1" fill="#979da263"/>
  <rect x="7" y="5" width="1" height="1" fill="#9aa0a462"/>
  <rect x="10" y="5" width="1" height="1" fill="#9da3a862"/>
  <rect x="11" y="5" width="1" height="1" fill="#969ca163"/>
  <rect x="12" y="5" width="1" height="1" fill="#8f959a1b"/>
  <rect x="14" y="5" width="1" height="1" fill="#adb3b80a"/>
  <rect x="15" y="5" width="1" height="1" fill="#b4babf5c"/>
  <rect x="16" y="5" width="1" height="1" fill="#a6aeb261"/>
  <rect x="17" y="5" width="1" height="1" fill="#8d969a1d"/>
  <rect x="18" y="5" width="1" height="1" fill="#b7c0c448"/>
  <rect x="19" y="5" width="1" height="1" fill="#bec7cb"/>
  <rect x="20" y="5" width="1" height="1" fill="#bcc5c9f4"/>
  <rect x="21" y="5" width="1" height="1" fill="#bcc5c91b"/>
  <rect x="23" y="5" width="1" height="1" fill="#bcc5c645"/>
  <rect x="24" y="5" width="1" height="1" fill="#bdc6c8"/>
  <rect x="25" y="5" width="1" height="1" fill="#bdc6c8fc"/>
  <rect x="26" y="5" width="2" height="1" fill="#bdc6c613"/>
  <rect x="28" y="5" width="1" height="1" fill="#bec8c7fc"/>
  <rect x="29" y="5" width="1" height="1" fill="#bec8c7"/>
  <rect x="30" y="5" width="1" height="1" fill="#bec8c745"/>
  <rect x="32" y="5" width="1" height="1" fill="#b9c1c31b"/>
  <rect x="33" y="5" width="1" height="1" fill="#bcc5c6f4"/>
  <rect x="34" y="5" width="1" height="1" fill="#bec7c9"/>
  <rect x="35" y="5" width="1" height="1" fill="#bcc5c648"/>
  <rect x="36" y="5" width="1" height="1" fill="#848d8f48"/>
  <rect x="37" y="5" width="1" height="1" fill="#889192"/>
  <rect x="38" y="5" width="1" height="1" fill="#97a0a1f4"/>
  <rect x="39" y="5" width="1" height="1" fill="#9aa3a51b"/>
  <rect x="41" y="5" width="1" height="1" fill="#818a8b45"/>
  <rect x="42" y="5" width="1" height="1" fill="#848d8f"/>
  <rect x="43" y="5" width="1" height="1" fill="#828b8cfc"/>
  <rect x="44" y="5" width="2" height="1" fill="#7e878913"/>
  <rect x="46" y="5" width="1" height="1" fill="#838c8dfc"/>
  <rect x="47" y="5" width="1" height="1" fill="#878f91"/>
  <rect x="48" y="5" width="1" height="1" fill="#838c8d45"/>
  <rect x="50" y="5" width="1" height="1" fill="#919a9b1b"/>
  <rect x="51" y="5" width="1" height="1" fill="#939c9ef4"/>
  <rect x="52" y="5" width="1" height="1" fill="#8f9899"/>
  <rect x="53" y="5" width="1" height="1" fill="#7e878948"/>
  <rect x="0" y="6" width="1" height="1" fill="#9ca2a73d"/>
  <rect x="1" y="6" width="1" height="1" fill="#b1b7bc60"/>
  <rect x="2" y="6" width="1" height="1" fill="#b2b8bd38"/>
  <rect x="5" y="6" width="1" height="1" fill="#979da20b"/>
  <rect x="6" y="6" width="1" height="1" fill="#aab0b553"/>
  <rect x="7" y="6" width="1" height="1" fill="#b0b6bb49"/>
  <rect x="10" y="6" width="1" height="1" fill="#aeb7bb49"/>
  <rect x="11" y="6" width="1" height="1" fill="#acb4b853"/>
  <rect x="12" y="6" width="1" height="1" fill="#939ca00b"/>
  <rect x="15" y="6" width="1" height="1" fill="#afb8bc38"/>
  <rect x="16" y="6" width="1" height="1" fill="#b0b9bd60"/>
  <rect x="17" y="6" width="1" height="1" fill="#949da13d"/>
  <rect x="18" y="6" width="1" height="1" fill="#bac2c69d"/>
  <rect x="19" y="6" width="1" height="1" fill="#bdc6ca"/>
  <rect x="20" y="6" width="1" height="1" fill="#b9c1c595"/>
  <rect x="23" y="6" width="1" height="1" fill="#bac3c41b"/>
  <rect x="24" y="6" width="1" height="1" fill="#bbc4c5dc"/>
  <rect x="25" y="6" width="1" height="1" fill="#bcc5c6c1"/>
  <rect x="28" y="6" width="1" height="1" fill="#bec8c7c1"/>
  <rect x="29" y="6" width="1" height="1" fill="#bec8c7dd"/>
  <rect x="30" y="6" width="1" height="1" fill="#bec8c71b"/>
  <rect x="33" y="6" width="1" height="1" fill="#bac3c495"/>
  <rect x="34" y="6" width="1" height="1" fill="#c1cacb"/>
  <rect x="35" y="6" width="1" height="1" fill="#b9c1c39d"/>
  <rect x="36" y="6" width="1" height="1" fill="#878f919d"/>
  <rect x="37" y="6" width="1" height="1" fill="#929b9d"/>
  <rect x="38" y="6" width="1" height="1" fill="#969ea095"/>
  <rect x="41" y="6" width="1" height="1" fill="#90999a1b"/>
  <rect x="42" y="6" width="1" height="1" fill="#97a0a1dc"/>
  <rect x="43" y="6" width="1" height="1" fill="#9da5a7c1"/>
  <rect x="46" y="6" width="1" height="1" fill="#939c9ec1"/>
  <rect x="47" y="6" width="1" height="1" fill="#97a0a1dd"/>
  <rect x="48" y="6" width="1" height="1" fill="#8992931b"/>
  <rect x="51" y="6" width="1" height="1" fill="#929b9d95"/>
  <rect x="52" y="6" width="1" height="1" fill="#98a1a2"/>
  <rect x="53" y="6" width="1" height="1" fill="#8b94969d"/>
  <rect x="0" y="7" width="1" height="1" fill="#a4aaaf56"/>
  <rect x="1" y="7" width="1" height="1" fill="#adb3b860"/>
  <rect x="2" y="7" width="1" height="1" fill="#aab0b51d"/>
  <rect x="15" y="7" width="1" height="1" fill="#a4acb01c"/>
  <rect x="16" y="7" width="1" height="1" fill="#afb8bc60"/>
  <rect x="17" y="7" width="1" height="1" fill="#a0a9ad56"/>
  <rect x="18" y="7" width="1" height="1" fill="#c3cccfdf"/>
  <rect x="19" y="7" width="1" height="1" fill="#b5bec2"/>
  <rect x="20" y="7" width="1" height="1" fill="#b5bec24a"/>
  <rect x="33" y="7" width="1" height="1" fill="#b6bfc149"/>
  <rect x="34" y="7" width="1" height="1" fill="#c0c8ca"/>
  <rect x="35" y="7" width="1" height="1" fill="#b5bebfdf"/>
  <rect x="36" y="7" width="1" height="1" fill="#899293df"/>
  <rect x="37" y="7" width="1" height="1" fill="#9aa3a5"/>
  <rect x="38" y="7" width="1" height="1" fill="#939c9e4a"/>
  <rect x="51" y="7" width="1" height="1" fill="#929b9d49"/>
  <rect x="52" y="7" width="1" height="1" fill="#9aa3a5"/>
  <rect x="53" y="7" width="1" height="1" fill="#929b9ddf"/>
  <rect x="0" y="8" width="1" height="2" fill="#b1b7bc5f"/>
  <rect x="1" y="8" width="1" height="4" fill="#acb2b760"/>
  <rect x="2" y="8" width="1" height="1" fill="#989ea30e"/>
  <rect x="15" y="8" width="1" height="1" fill="#96a1a40e"/>
  <rect x="16" y="8" width="1" height="2" fill="#adb5b960"/>
  <rect x="17" y="8" width="1" height="2" fill="#afb8bc5f"/>
  <rect x="18" y="8" width="1" height="1" fill="#b5bec2fd"/>
  <rect x="19" y="8" width="1" height="2" fill="#b4bcc0"/>
  <rect x="20" y="8" width="1" height="1" fill="#b2babe24"/>
  <rect x="23" y="8" width="1" height="1" fill="#b2babe11"/>
  <rect x="30" y="8" width="1" height="1" fill="#b5bebf11"/>
  <rect x="33" y="8" width="1" height="1" fill="#b4bdbe23"/>
  <rect x="34" y="8" width="1" height="1" fill="#bbc4c5"/>
  <rect x="35" y="8" width="1" height="1" fill="#b3bcbdfd"/>
  <rect x="36" y="8" width="1" height="1" fill="#9ba4a6fd"/>
  <rect x="37" y="8" width="1" height="2" fill="#9ea7a8"/>
  <rect x="38" y="8" width="1" height="1" fill="#8f989924"/>
  <rect x="41" y="8" width="1" height="1" fill="#848d8f11"/>
  <rect x="48" y="8" width="1" height="1" fill="#838c8d11"/>
  <rect x="51" y="8" width="1" height="1" fill="#8a939423"/>
  <rect x="52" y="8" width="1" height="1" fill="#99a2a4"/>
  <rect x="53" y="8" width="1" height="1" fill="#99a2a4fd"/>
  <rect x="2" y="9" width="1" height="1" fill="#989ea30a"/>
  <rect x="4" y="9" width="1" height="1" fill="#959ba029"/>
  <rect x="5" y="9" width="1" height="1" fill="#9ba1a664"/>
  <rect x="6" y="9" width="1" height="1" fill="#90989c13"/>
  <rect x="11" y="9" width="1" height="1" fill="#919b9f13"/>
  <rect x="12" y="9" width="1" height="1" fill="#939ea164"/>
  <rect x="13" y="9" width="1" height="1" fill="#949fa229"/>
  <rect x="15" y="9" width="1" height="1" fill="#95a0a30a"/>
  <rect x="18" y="9" width="1" height="1" fill="#b5bec2fc"/>
  <rect x="20" y="9" width="1" height="1" fill="#b2babe18"/>
  <rect x="22" y="9" width="1" height="1" fill="#b2babe68"/>
  <rect x="23" y="9" width="1" height="1" fill="#b2babe"/>
  <rect x="24" y="9" width="1" height="1" fill="#b2babc2f"/>
  <rect x="29" y="9" width="1" height="1" fill="#b4bdbe2f"/>
  <rect x="30" y="9" width="1" height="1" fill="#b5bebf"/>
  <rect x="31" y="9" width="1" height="1" fill="#b5bebf67"/>
  <rect x="33" y="9" width="1" height="1" fill="#b3bcbd18"/>
  <rect x="34" y="9" width="1" height="1" fill="#b7c0c2"/>
  <rect x="35" y="9" width="1" height="1" fill="#b2babcfc"/>
  <rect x="36" y="9" width="1" height="1" fill="#9ba4a6fc"/>
  <rect x="38" y="9" width="1" height="1" fill="#8d969818"/>
  <rect x="40" y="9" width="1" height="1" fill="#88919268"/>
  <rect x="41" y="9" width="1" height="1" fill="#8c9597"/>
  <rect x="42" y="9" width="1" height="1" fill="#848d8f2f"/>
  <rect x="47" y="9" width="1" height="1" fill="#8b94962f"/>
  <rect x="48" y="9" width="1" height="1" fill="#848d8f"/>
  <rect x="49" y="9" width="1" height="1" fill="#858e9067"/>
  <rect x="51" y="9" width="1" height="1" fill="#8d969818"/>
  <rect x="52" y="9" width="1" height="1" fill="#9ba4a6"/>
  <rect x="53" y="9" width="1" height="1" fill="#9ba4a6fc"/>
  <rect x="0" y="10" width="1" height="1" fill="#b1b7bc54"/>
  <rect x="2" y="10" width="1" height="1" fill="#989ea317"/>
  <rect x="4" y="10" width="1" height="1" fill="#9ca2a710"/>
  <rect x="5" y="10" width="1" height="1" fill="#a6acb15f"/>
  <rect x="6" y="10" width="1" height="1" fill="#979fa33b"/>
  <rect x="11" y="10" width="1" height="1" fill="#919fa13b"/>
  <rect x="12" y="10" width="1" height="1" fill="#a3aeb15f"/>
  <rect x="13" y="10" width="1" height="1" fill="#9ba6a910"/>
  <rect x="15" y="10" width="1" height="1" fill="#939ea117"/>
  <rect x="16" y="10" width="1" height="2" fill="#abb6b960"/>
  <rect x="17" y="10" width="1" height="1" fill="#aeb9bc54"/>
  <rect x="18" y="10" width="1" height="1" fill="#b3bec2e0"/>
  <rect x="19" y="10" width="1" height="1" fill="#b2bdc0"/>
  <rect x="20" y="10" width="1" height="1" fill="#b2babe3a"/>
  <rect x="22" y="10" width="1" height="1" fill="#b2babe2a"/>
  <rect x="23" y="10" width="1" height="1" fill="#b2babefe"/>
  <rect x="24" y="10" width="1" height="1" fill="#b2babc96"/>
  <rect x="29" y="10" width="1" height="1" fill="#b4bdbe96"/>
  <rect x="30" y="10" width="1" height="1" fill="#b4bdbefe"/>
  <rect x="31" y="10" width="1" height="1" fill="#b4bdbe2a"/>
  <rect x="33" y="10" width="1" height="1" fill="#b3bcbd3a"/>
  <rect x="34" y="10" width="1" height="1" fill="#b9bfc2"/>
  <rect x="35" y="10" width="1" height="1" fill="#b3babce0"/>
  <rect x="36" y="10" width="1" height="1" fill="#9da4a6e0"/>
  <rect x="37" y="10" width="1" height="1" fill="#a1a7a9"/>
  <rect x="38" y="10" width="1" height="1" fill="#8d96983a"/>
  <rect x="40" y="10" width="1" height="1" fill="#8d96982a"/>
  <rect x="41" y="10" width="1" height="1" fill="#99a2a4fe"/>
  <rect x="42" y="10" width="1" height="1" fill="#8b949696"/>
  <rect x="47" y="10" width="1" height="1" fill="#919a9b96"/>
  <rect x="48" y="10" width="1" height="1" fill="#a2abadfe"/>
  <rect x="49" y="10" width="1" height="1" fill="#949d9f2a"/>
  <rect x="51" y="10" width="1" height="1" fill="#8c95973a"/>
  <rect x="52" y="10" width="1" height="1" fill="#9ea7a8"/>
  <rect x="53" y="10" width="1" height="1" fill="#9ea7a8e0"/>
  <rect x="0" y="11" width="1" height="1" fill="#b1b7bc3e"/>
  <rect x="2" y="11" width="1" height="1" fill="#989ea333"/>
  <rect x="5" y="11" width="1" height="1" fill="#b0b6bb3e"/>
  <rect x="6" y="11" width="1" height="1" fill="#9ba4a862"/>
  <rect x="7" y="11" width="1" height="1" fill="#939ca03c"/>
  <rect x="8" y="11" width="1" height="1" fill="#8e999c15"/>
  <rect x="9" y="11" width="1" height="1" fill="#8d989b15"/>
  <rect x="10" y="11" width="1" height="1" fill="#92a0a23c"/>
  <rect x="11" y="11" width="1" height="1" fill="#9daaad62"/>
  <rect x="12" y="11" width="1" height="1" fill="#abb6b93e"/>
  <rect x="15" y="11" width="1" height="1" fill="#939ea133"/>
  <rect x="17" y="11" width="1" height="1" fill="#aeb9bc3e"/>
  <rect x="18" y="11" width="1" height="1" fill="#b2bdc0a5"/>
  <rect x="19" y="11" width="1" height="1" fill="#b1bcbf"/>
  <rect x="20" y="11" width="1" height="1" fill="#b0b9bd83"/>
  <rect x="23" y="11" width="1" height="1" fill="#b0b9bda5"/>
  <rect x="24" y="11" width="1" height="1" fill="#b2babc"/>
  <rect x="25" y="11" width="1" height="1" fill="#b2babc98"/>
  <rect x="26" y="11" width="2" height="1" fill="#b2babc34"/>
  <rect x="28" y="11" width="1" height="1" fill="#b2babc98"/>
  <rect x="29" y="11" width="1" height="1" fill="#b2babc"/>
  <rect x="30" y="11" width="1" height="1" fill="#b3bcbda5"/>
  <rect x="33" y="11" width="1" height="1" fill="#b3bcbd84"/>
  <rect x="34" y="11" width="1" height="1" fill="#b8bec1"/>
  <rect x="35" y="11" width="1" height="1" fill="#b4bbbda5"/>
  <rect x="36" y="11" width="1" height="1" fill="#9ca2a5a5"/>
  <rect x="37" y="11" width="1" height="1" fill="#a2a8ab"/>
  <rect x="38" y="11" width="1" height="1" fill="#8d969883"/>
  <rect x="41" y="11" width="1" height="1" fill="#a2abada5"/>
  <rect x="42" y="11" width="1" height="1" fill="#929b9d"/>
  <rect x="43" y="11" width="1" height="1" fill="#88919298"/>
  <rect x="44" y="11" width="1" height="1" fill="#858e9034"/>
  <rect x="45" y="11" width="1" height="1" fill="#8a939434"/>
  <rect x="46" y="11" width="1" height="1" fill="#919a9b98"/>
  <rect x="47" y="11" width="1" height="1" fill="#98a1a2"/>
  <rect x="48" y="11" width="1" height="1" fill="#a4acaea5"/>
  <rect x="51" y="11" width="1" height="1" fill="#90999a84"/>
  <rect x="52" y="11" width="1" height="1" fill="#a0a9ab"/>
  <rect x="53" y="11" width="1" height="1" fill="#a0a9aba5"/>
  <rect x="0" y="12" width="1" height="1" fill="#aab0b51c"/>
  <rect x="1" y="12" width="1" height="1" fill="#afb5b960"/>
  <rect x="2" y="12" width="1" height="1" fill="#a3a9ae5c"/>
  <rect x="6" y="12" width="1" height="1" fill="#adb5b93c"/>
  <rect x="7" y="12" width="1" height="1" fill="#9da5a961"/>
  <rect x="8" y="12" width="1" height="1" fill="#8f9a9d64"/>
  <rect x="9" y="12" width="1" height="1" fill="#95a0a364"/>
  <rect x="10" y="12" width="1" height="1" fill="#a2adb061"/>
  <rect x="11" y="12" width="1" height="1" fill="#a8b3b63d"/>
  <rect x="15" y="12" width="1" height="1" fill="#95a0a35c"/>
  <rect x="16" y="12" width="1" height="1" fill="#b1bcbf60"/>
  <rect x="17" y="12" width="1" height="1" fill="#9fa9ad1c"/>
  <rect x="18" y="12" width="1" height="1" fill="#b0bbbe48"/>
  <rect x="19" y="12" width="1" height="1" fill="#afbabd"/>
  <rect x="20" y="12" width="1" height="1" fill="#b0b9bbef"/>
  <rect x="21" y="12" width="1" height="1" fill="#b0b9bb13"/>
  <rect x="24" y="12" width="1" height="1" fill="#b0b9bba0"/>
  <rect x="25" y="12" width="1" height="1" fill="#b0b9bbfe"/>
  <rect x="26" y="12" width="2" height="1" fill="#b2babc"/>
  <rect x="28" y="12" width="1" height="1" fill="#b0b9bbfe"/>
  <rect x="29" y="12" width="1" height="1" fill="#b0b9bba1"/>
  <rect x="32" y="12" width="1" height="1" fill="#b3bcbd13"/>
  <rect x="33" y="12" width="1" height="1" fill="#b3bcbdef"/>
  <rect x="34" y="12" width="1" height="1" fill="#b6bcbe"/>
  <rect x="35" y="12" width="1" height="1" fill="#b3babc48"/>
  <rect x="36" y="12" width="1" height="1" fill="#9da4a648"/>
  <rect x="37" y="12" width="1" height="1" fill="#a3a9ac"/>
  <rect x="38" y="12" width="1" height="1" fill="#9ba4a6ef"/>
  <rect x="39" y="12" width="1" height="1" fill="#89929313"/>
  <rect x="42" y="12" width="1" height="1" fill="#98a1a2a0"/>
  <rect x="43" y="12" width="1" height="1" fill="#97a0a1fe"/>
  <rect x="44" y="12" width="1" height="1" fill="#8a9394"/>
  <rect x="45" y="12" width="1" height="1" fill="#90999a"/>
  <rect x="46" y="12" width="1" height="1" fill="#969ea0fe"/>
  <rect x="47" y="12" width="1" height="1" fill="#9aa3a5a1"/>
  <rect x="50" y="12" width="1" height="1" fill="#8b949613"/>
  <rect x="51" y="12" width="1" height="1" fill="#9aa3a5ef"/>
  <rect x="52" y="12" width="1" height="1" fill="#a3aaaa"/>
  <rect x="53" y="12" width="1" height="1" fill="#9ba2a248"/>
  <rect x="1" y="13" width="1" height="1" fill="#b3b9be4b"/>
  <rect x="2" y="13" width="1" height="1" fill="#b1b7bc60"/>
  <rect x="3" y="13" width="1" height="1" fill="#949a9f46"/>
  <rect x="7" y="13" width="1" height="1" fill="#b2babe10"/>
  <rect x="8" y="13" width="1" height="1" fill="#b1bcbf26"/>
  <rect x="9" y="13" width="1" height="1" fill="#b2bdc026"/>
  <rect x="10" y="13" width="1" height="1" fill="#aab5b810"/>
  <rect x="14" y="13" width="1" height="1" fill="#8f9a9d46"/>
  <rect x="15" y="13" width="1" height="1" fill="#acb7bb60"/>
  <rect x="16" y="13" width="1" height="1" fill="#b8c3c64b"/>
  <rect x="19" y="13" width="1" height="1" fill="#afbabdc7"/>
  <rect x="20" y="13" width="1" height="1" fill="#afb8ba"/>
  <rect x="21" y="13" width="1" height="1" fill="#afb8bab2"/>
  <rect x="25" y="13" width="1" height="1" fill="#b0b9bb29"/>
  <rect x="26" y="13" width="2" height="1" fill="#b0b9bb64"/>
  <rect x="28" y="13" width="1" height="1" fill="#afb8ba29"/>
  <rect x="32" y="13" width="1" height="1" fill="#afb8bab2"/>
  <rect x="33" y="13" width="1" height="1" fill="#afb8ba"/>
  <rect x="34" y="13" width="1" height="1" fill="#b1b7bac8"/>
  <rect x="37" y="13" width="1" height="1" fill="#a4aaadc7"/>
  <rect x="38" y="13" width="1" height="1" fill="#9ea7a8"/>
  <rect x="39" y="13" width="1" height="1" fill="#8f9899b2"/>
  <rect x="43" y="13" width="1" height="1" fill="#9aa3a529"/>
  <rect x="44" y="13" width="1" height="1" fill="#afb8ba64"/>
  <rect x="45" y="13" width="1" height="1" fill="#a7b0b264"/>
  <rect x="46" y="13" width="1" height="1" fill="#9ba4a629"/>
  <rect x="50" y="13" width="1" height="1" fill="#8d9698b2"/>
  <rect x="51" y="13" width="1" height="1" fill="#a0a9ab"/>
  <rect x="52" y="13" width="1" height="1" fill="#a5acacc8"/>
  <rect x="1" y="14" width="1" height="1" fill="#afb5b910"/>
  <rect x="2" y="14" width="1" height="1" fill="#b4babf5c"/>
  <rect x="3" y="14" width="1" height="1" fill="#a5abb061"/>
  <rect x="4" y="14" width="1" height="1" fill="#93999d45"/>
  <rect x="13" y="14" width="1" height="1" fill="#8d989b45"/>
  <rect x="14" y="14" width="1" height="1" fill="#9ca7aa61"/>
  <rect x="15" y="14" width="1" height="1" fill="#b6c1c45c"/>
  <rect x="16" y="14" width="1" height="1" fill="#a2adb010"/>
  <rect x="19" y="14" width="1" height="1" fill="#a9b4b729"/>
  <rect x="20" y="14" width="1" height="1" fill="#afb8baf5"/>
  <rect x="21" y="14" width="1" height="1" fill="#afb8ba"/>
  <rect x="22" y="14" width="1" height="1" fill="#afb8baaf"/>
  <rect x="23" y="14" width="1" height="1" fill="#afb8ba10"/>
  <rect x="30" y="14" width="1" height="1" fill="#aeb7b90f"/>
  <rect x="31" y="14" width="1" height="1" fill="#adb6b7af"/>
  <rect x="32" y="14" width="1" height="1" fill="#adb6b7"/>
  <rect x="33" y="14" width="1" height="1" fill="#acb5b6f5"/>
  <rect x="34" y="14" width="1" height="1" fill="#adb4b629"/>
  <rect x="37" y="14" width="1" height="1" fill="#a3a9ac29"/>
  <rect x="38" y="14" width="1" height="1" fill="#9fa8a9f5"/>
  <rect x="39" y="14" width="1" height="1" fill="#98a1a2"/>
  <rect x="40" y="14" width="1" height="1" fill="#919a9baf"/>
  <rect x="41" y="14" width="1" height="1" fill="#8f989910"/>
  <rect x="48" y="14" width="1" height="1" fill="#8d96980f"/>
  <rect x="49" y="14" width="1" height="1" fill="#8d9698af"/>
  <rect x="50" y="14" width="1" height="1" fill="#9aa3a5"/>
  <rect x="51" y="14" width="1" height="1" fill="#a2abadf5"/>
  <rect x="52" y="14" width="1" height="1" fill="#9fa6a629"/>
  <rect x="2" y="15" width="1" height="1" fill="#b1b7bc18"/>
  <rect x="3" y="15" width="1" height="1" fill="#b2b8bd5a"/>
  <rect x="4" y="15" width="1" height="1" fill="#a3a9ae61"/>
  <rect x="5" y="15" width="1" height="1" fill="#979da25c"/>
  <rect x="6" y="15" width="1" height="1" fill="#88909431"/>
  <rect x="7" y="15" width="1" height="1" fill="#91999d12"/>
  <rect x="10" y="15" width="1" height="1" fill="#8d989b12"/>
  <rect x="11" y="15" width="1" height="1" fill="#8e999c31"/>
  <rect x="12" y="15" width="1" height="1" fill="#8e999c5c"/>
  <rect x="13" y="15" width="1" height="1" fill="#a2adb061"/>
  <rect x="14" y="15" width="1" height="1" fill="#acb7bb5a"/>
  <rect x="15" y="15" width="1" height="1" fill="#a9b4b718"/>
  <rect x="20" y="15" width="1" height="1" fill="#adb6b73f"/>
  <rect x="21" y="15" width="1" height="1" fill="#afb8baef"/>
  <rect x="22" y="15" width="1" height="1" fill="#afb8ba"/>
  <rect x="23" y="15" width="1" height="1" fill="#afb8baeb"/>
  <rect x="24" y="15" width="1" height="1" fill="#b0b9bb7c"/>
  <rect x="25" y="15" width="1" height="1" fill="#b0b9bb2e"/>
  <rect x="26" y="15" width="2" height="1" fill="#b0b9bb0c"/>
  <rect x="28" y="15" width="1" height="1" fill="#afb8ba2d"/>
  <rect x="29" y="15" width="1" height="1" fill="#acb5b67c"/>
  <rect x="30" y="15" width="1" height="1" fill="#acb5b6eb"/>
  <rect x="31" y="15" width="1" height="1" fill="#acb5b6"/>
  <rect x="32" y="15" width="1" height="1" fill="#abb3b5ef"/>
  <rect x="33" y="15" width="1" height="1" fill="#abb1b440"/>
  <rect x="38" y="15" width="1" height="1" fill="#a4aaad3f"/>
  <rect x="39" y="15" width="1" height="1" fill="#a5aeafef"/>
  <rect x="40" y="15" width="1" height="1" fill="#9ea7a8"/>
  <rect x="41" y="15" width="1" height="1" fill="#90999aeb"/>
  <rect x="42" y="15" width="1" height="1" fill="#8a93947c"/>
  <rect x="43" y="15" width="1" height="1" fill="#8c95972e"/>
  <rect x="44" y="15" width="1" height="1" fill="#8a93940c"/>
  <rect x="45" y="15" width="1" height="1" fill="#8b94960c"/>
  <rect x="46" y="15" width="1" height="1" fill="#8d96982d"/>
  <rect x="47" y="15" width="1" height="1" fill="#90999a7c"/>
  <rect x="48" y="15" width="1" height="1" fill="#8d9698eb"/>
  <rect x="49" y="15" width="1" height="1" fill="#98a1a2"/>
  <rect x="50" y="15" width="1" height="1" fill="#abb3b5ef"/>
  <rect x="51" y="15" width="1" height="1" fill="#a6adaf40"/>
  <rect x="3" y="16" width="1" height="1" fill="#abb3b70f"/>
  <rect x="4" y="16" width="1" height="1" fill="#b2babe4b"/>
  <rect x="5" y="16" width="1" height="1" fill="#afb8bc60"/>
  <rect x="6" y="16" width="1" height="1" fill="#a6aeb262"/>
  <rect x="7" y="16" width="1" height="1" fill="#99a2a664"/>
  <rect x="8" y="16" width="1" height="1" fill="#929b9f64"/>
  <rect x="9" y="16" width="1" height="1" fill="#949da164"/>
  <rect x="10" y="16" width="1" height="1" fill="#949fa264"/>
  <rect x="11" y="16" width="1" height="1" fill="#95a0a362"/>
  <rect x="12" y="16" width="1" height="1" fill="#aeb7b960"/>
  <rect x="13" y="16" width="1" height="1" fill="#acb5b64c"/>
  <rect x="14" y="16" width="1" height="1" fill="#a8b1b30f"/>
  <rect x="21" y="16" width="1" height="1" fill="#a9b2b427"/>
  <rect x="22" y="16" width="1" height="1" fill="#a9b2b4c8"/>
  <rect x="23" y="16" width="6" height="1" fill="#a9b2b4"/>
  <rect x="29" y="16" width="1" height="1" fill="#acb5b6"/>
  <rect x="30" y="16" width="1" height="1" fill="#abb3b5"/>
  <rect x="31" y="16" width="1" height="1" fill="#a9b2b4ca"/>
  <rect x="32" y="16" width="1" height="1" fill="#a8b1b327"/>
  <rect x="39" y="16" width="1" height="1" fill="#a9b2b427"/>
  <rect x="40" y="16" width="1" height="1" fill="#a7b0b2c8"/>
  <rect x="41" y="16" width="1" height="1" fill="#a5aeaf"/>
  <rect x="42" y="16" width="1" height="1" fill="#9da5a7"/>
  <rect x="43" y="16" width="1" height="1" fill="#929b9d"/>
  <rect x="44" y="16" width="1" height="1" fill="#90999a"/>
  <rect x="45" y="16" width="1" height="1" fill="#919a9b"/>
  <rect x="46" y="16" width="1" height="1" fill="#939c9e"/>
  <rect x="47" y="16" width="1" height="1" fill="#969ea0"/>
  <rect x="48" y="16" width="1" height="1" fill="#a6afb0"/>
  <rect x="49" y="16" width="1" height="1" fill="#a6afb0ca"/>
  <rect x="50" y="16" width="1" height="1" fill="#a8aeae27"/>
  <rect x="5" y="17" width="1" height="1" fill="#afb8bc1c"/>
  <rect x="6" y="17" width="1" height="1" fill="#b2babe3e"/>
  <rect x="7" y="17" width="1" height="1" fill="#afb8bc54"/>
  <rect x="8" y="17" width="1" height="1" fill="#abb3b75f"/>
  <rect x="9" y="17" width="1" height="1" fill="#adb5b95f"/>
  <rect x="10" y="17" width="1" height="1" fill="#acb7bb54"/>
  <rect x="11" y="17" width="1" height="1" fill="#aeb9bc3e"/>
  <rect x="12" y="17" width="1" height="1" fill="#aeb7b91c"/>
  <rect x="23" y="17" width="1" height="1" fill="#a9b2b44b"/>
  <rect x="24" y="17" width="1" height="1" fill="#a9b2b4a5"/>
  <rect x="25" y="17" width="1" height="1" fill="#a9b2b4e0"/>
  <rect x="26" y="17" width="2" height="1" fill="#a9b2b4fe"/>
  <rect x="28" y="17" width="1" height="1" fill="#a9b2b4e0"/>
  <rect x="29" y="17" width="1" height="1" fill="#abb3b5a4"/>
  <rect x="30" y="17" width="1" height="1" fill="#a9b2b44b"/>
  <rect x="41" y="17" width="1" height="1" fill="#a8b1b34b"/>
  <rect x="42" y="17" width="1" height="1" fill="#a7b0b2a5"/>
  <rect x="43" y="17" width="1" height="1" fill="#a5aeafe0"/>
  <rect x="44" y="17" width="1" height="1" fill="#a2abadfe"/>
  <rect x="45" y="17" width="1" height="1" fill="#a4acaefe"/>
  <rect x="46" y="17" width="1" height="1" fill="#a6afb0e0"/>
  <rect x="47" y="17" width="1" height="1" fill="#a7b0b2a4"/>
  <rect x="48" y="17" width="1" height="1" fill="#a7b0b24b"/>
</svg>