<svg xmlns="http://www.w3.org/2000/svg" width="16" height="106" viewBox="0 0 16 106" shape-rendering="crispEdges">
  <rect x="1" y="0" width="1" height="1" fill="#dfebf591"/>
  <rect x="2" y="0" width="1" height="1" fill="#dfebf5ed"/>
  <rect x="3" y="0" width="3" height="1" fill="#dfebf5"/>
  <rect x="6" y="0" width="2" height="6" fill="#deecf5"/>
  <rect x="8" y="0" width="2" height="4" fill="#dcedf5"/>
  <rect x="10" y="0" width="3" height="1" fill="#dbeef5"/>
  <rect x="13" y="0" width="1" height="1" fill="#dbeef5f8"/>
  <rect x="14" y="0" width="1" height="1" fill="#dbeef594"/>
  <rect x="0" y="1" width="1" height="1" fill="#dfebf590"/>
  <rect x="1" y="1" width="5" height="2" fill="#dfebf5"/>
  <rect x="10" y="1" width="5" height="2" fill="#dbeef5"/>
  <rect x="15" y="1" width="1" height="1" fill="#dbeef588"/>
  <rect x="0" y="2" width="1" height="1" fill="#dfebf5ed"/>
  <rect x="15" y="2" width="1" height="1" fill="#dbeef5ed"/>
  <rect x="0" y="3" width="6" height="3" fill="#dfebf5"/>
  <rect x="10" y="3" width="6" height="1" fill="#dbeef5"/>
  <rect x="8" y="4" width="8" height="4" fill="#dcedf5"/>
  <rect x="0" y="6" width="8" height="2" fill="#deecf5"/>
  <rect x="0" y="8" width="4" height="2" fill="#dcedf5"/>
  <rect x="4" y="8" width="2" height="2" fill="#deecf5"/>
  <rect x="6" y="8" width="2" height="2" fill="#dcedf5"/>
  <rect x="8" y="8" width="2" height="4" fill="#deecf5"/>
  <rect x="10" y="8" width="2" height="3" fill="#dcedf5"/>
  <rect x="12" y="8" width="4" height="3" fill="#deecf5"/>
  <rect x="0" y="10" width="3" height="1" fill="#dbeef5"/>
  <rect x="3" y="10" width="5" height="1" fill="#dcedf5"/>
  <rect x="0" y="11" width="4" height="1" fill="#dbeef5"/>
  <rect x="4" y="11" width="4" height="1" fill="#dcedf5"/>
  <rect x="10" y="11" width="1" height="1" fill="#dcedf5"/>
  <rect x="11" y="11" width="5" height="1" fill="#deecf5"/>
  <rect x="0" y="12" width="8" height="4" fill="#dcedf5"/>
  <rect x="8" y="12" width="4" height="4" fill="#deecf5"/>
  <rect x="12" y="12" width="4" height="4" fill="#dfebf5"/>
  <rect x="0" y="16" width="4" height="3" fill="#ddeef6"/>
  <rect x="4" y="16" width="12" height="3" fill="#dfedf6"/>
  <rect x="0" y="19" width="16" height="1" fill="#dfedf6"/>
  <rect x="0" y="20" width="16" height="2" fill="#e0edf6"/>
  <rect x="0" y="22" width="4" height="2" fill="#e0edf4"/>
  <rect x="4" y="22" width="12" height="2" fill="#e0edf6"/>
  <rect x="0" y="24" width="12" height="2" fill="#e2eef5"/>
  <rect x="12" y="24" width="4" height="4" fill="#e2eef7"/>
  <rect x="0" y="26" width="4" height="2" fill="#e2eff3"/>
  <rect x="4" y="26" width="8" height="2" fill="#e2eef5"/>
  <rect x="0" y="28" width="4" height="4" fill="#e3eef3"/>
  <rect x="4" y="28" width="8" height="4" fill="#e3edf5"/>
  <rect x="12" y="28" width="4" height="4" fill="#e3edf7"/>
  <rect x="0" y="32" width="16" height="4" fill="#e4eef6"/>
  <rect x="0" y="36" width="16" height="8" fill="#e6f0f8"/>
  <rect x="0" y="44" width="4" height="4" fill="#e7f1f7"/>
  <rect x="4" y="44" width="8" height="4" fill="#e7f1f9"/>
  <rect x="12" y="44" width="4" height="4" fill="#e8f0f9"/>
  <rect x="0" y="48" width="4" height="4" fill="#e8f2f8"/>
  <rect x="4" y="48" width="8" height="6" fill="#e9f2f8"/>
  <rect x="12" y="48" width="4" height="4" fill="#e9f1fa"/>
  <rect x="0" y="52" width="4" height="2" fill="#e9f2f6"/>
  <rect x="12" y="52" width="4" height="2" fill="#ebf0fa"/>
  <rect x="0" y="54" width="4" height="4" fill="#ebf3f7"/>
  <rect x="4" y="54" width="8" height="2" fill="#ebf3f9"/>
  <rect x="12" y="54" width="4" height="4" fill="#ecf2f9"/>
  <rect x="4" y="56" width="8" height="2" fill="#ecf2f7"/>
  <rect x="0" y="58" width="4" height="2" fill="#ecf4f8"/>
  <rect x="4" y="58" width="12" height="2" fill="#edf3f8"/>
  <rect x="0" y="60" width="16" height="8" fill="#edf3f8"/>
  <rect x="0" y="68" width="12" height="4" fill="#eff5f9"/>
  <rect x="12" y="68" width="4" height="4" fill="#f0f4f9"/>
  <rect x="0" y="72" width="4" height="4" fill="#eff5f9"/>
  <rect x="4" y="72" width="12" height="4" fill="#f0f4f9"/>
  <rect x="0" y="76" width="4" height="3" fill="#f0f6fb"/>
  <rect x="4" y="76" width="8" height="3" fill="#f1f5fb"/>
  <rect x="12" y="76" width="4" height="3" fill="#f3f4fb"/>
  <rect x="0" y="79" width="3" height="1" fill="#f0f6fb"/>
  <rect x="3" y="79" width="8" height="1" fill="#f1f5fb"/>
  <rect x="11" y="79" width="5" height="1" fill="#f3f4fb"/>
  <rect x="0" y="80" width="4" height="4" fill="#f1f5fb"/>
  <rect x="4" y="80" width="8" height="4" fill="#f3f4fb"/>
  <rect x="12" y="80" width="4" height="4" fill="#f5f3fb"/>
  <rect x="0" y="84" width="12" height="2" fill="#f4f5fc"/>
  <rect x="12" y="84" width="4" height="2" fill="#f6f4fc"/>
  <rect x="0" y="86" width="4" height="4" fill="#f4f6fa"/>
  <rect x="4" y="86" width="12" height="2" fill="#f4f5fc"/>
  <rect x="4" y="88" width="2" height="4" fill="#f6f5fa"/>
  <rect x="6" y="88" width="4" height="4" fill="#f4f6fa"/>
  <rect x="10" y="88" width="2" height="4" fill="#f2f7fa"/>
  <rect x="12" y="88" width="4" height="2" fill="#f4f5fc"/>
  <rect x="0" y="90" width="4" height="2" fill="#f4f6f8"/>
  <rect x="12" y="90" width="4" height="2" fill="#f2f6fc"/>
  <rect x="0" y="92" width="4" height="4" fill="#f7f6f9"/>
  <rect x="4" y="92" width="2" height="4" fill="#f7f6fb"/>
  <rect x="6" y="92" width="4" height="4" fill="#f5f7fb"/>
  <rect x="10" y="92" width="2" height="4" fill="#f4f8fb"/>
  <rect x="12" y="92" width="4" height="4" fill="#f4f7fd"/>
  <rect x="0" y="96" width="16" height="5" fill="#f5f7fb"/>
  <rect x="0" y="101" width="1" height="1" fill="#f5f7fbf2"/>
  <rect x="1" y="101" width="14" height="3" fill="#f5f7fb"/>
  <rect x="15" y="101" width="1" height="1" fill="#f5f7fbf3"/>
  <rect x="0" y="102" width="1" height="1" fill="#f5f7fbbe"/>
  <rect x="15" y="102" width="1" height="1" fill="#f5f7fbbe"/>
  <rect x="0" y="103" width="1" height="1" fill="#f5f7fb4d"/>
  <rect x="15" y="103" width="1" height="1" fill="#f5f7fb4d"/>
  <rect x="1" y="104" width="1" height="1" fill="#f5f7fb84"/>
  <rect x="2" y="104" width="12" height="1" fill="#f5f7fb"/>
  <rect x="14" y="104" width="1" height="1" fill="#f5f7fb84"/>
  <rect x="2" y="105" width="1" height="1" fill="#f5f7fb4e"/>
  <rect x="3" y="105" width="1" height="1" fill="#f5f7fbbe"/>
  <rect x="4" y="105" width="1" height="1" fill="#f5f7fbf4"/>
  <rect x="5" y="105" width="6" height="1" fill="#f5f7fb"/>
  <rect x="11" y="105" width="1" height="1" fill="#f5f7fbfd"/>
  <rect x="12" y="105" width="1" height="1" fill="#f5f7fbd2"/>
  <rect x="13" y="105" width="1" height="1" fill="#f5f7fb4d"/>
</svg>