<svg xmlns="http://www.w3.org/2000/svg" width="11" height="11" viewBox="0 0 11 11" shape-rendering="crispEdges">
  <rect x="1" y="0" width="1" height="1" fill="#afc0e396"/>
  <rect x="2" y="0" width="1" height="1" fill="#b4c5dd"/>
  <rect x="3" y="0" width="1" height="1" fill="#b9c9da"/>
  <rect x="4" y="0" width="1" height="1" fill="#b4c0ce"/>
  <rect x="5" y="0" width="1" height="1" fill="#b7bece"/>
  <rect x="6" y="0" width="1" height="1" fill="#b9bcd4"/>
  <rect x="7" y="0" width="1" height="1" fill="#bbbbd2"/>
  <rect x="8" y="0" width="1" height="1" fill="#b8bdc7"/>
  <rect x="9" y="0" width="1" height="1" fill="#b1bcca96"/>
  <rect x="0" y="1" width="1" height="1" fill="#afc0e396"/>
  <rect x="1" y="1" width="1" height="1" fill="#b7c9e7"/>
  <rect x="2" y="1" width="1" height="1" fill="#ebfcff"/>
  <rect x="3" y="1" width="1" height="1" fill="#f2ffff"/>
  <rect x="4" y="1" width="1" height="1" fill="#f9ffff"/>
  <rect x="5" y="1" width="1" height="1" fill="#fbffff"/>
  <rect x="6" y="1" width="2" height="1" fill="#feffff"/>
  <rect x="8" y="1" width="1" height="1" fill="#faffff"/>
  <rect x="9" y="1" width="1" height="1" fill="#b5c1cf"/>
  <rect x="10" y="1" width="1" height="1" fill="#a6bada96"/>
  <rect x="0" y="2" width="1" height="1" fill="#b4c5dd"/>
  <rect x="1" y="2" width="1" height="1" fill="#ebfcff"/>
  <rect x="2" y="2" width="1" height="1" fill="#eefcff"/>
  <rect x="3" y="2" width="1" height="1" fill="#f7ffff"/>
  <rect x="4" y="2" width="1" height="1" fill="#f6ffff"/>
  <rect x="5" y="2" width="1" height="1" fill="#f9feff"/>
  <rect x="6" y="2" width="2" height="1" fill="#fbfcff"/>
  <rect x="8" y="2" width="1" height="2" fill="#f7fdff"/>
  <rect x="9" y="2" width="1" height="1" fill="#faffff"/>
  <rect x="10" y="2" width="1" height="1" fill="#adc1e1"/>
  <rect x="0" y="3" width="1" height="1" fill="#b9c9da"/>
  <rect x="1" y="3" width="1" height="1" fill="#f0feff"/>
  <rect x="2" y="3" width="1" height="1" fill="#f7ffff"/>
  <rect x="3" y="3" width="1" height="1" fill="#fbffff"/>
  <rect x="4" y="3" width="1" height="1" fill="#f9fff9"/>
  <rect x="5" y="3" width="1" height="1" fill="#fbfef9"/>
  <rect x="6" y="3" width="1" height="1" fill="#fdfdfd"/>
  <rect x="7" y="3" width="1" height="1" fill="#fdfcff"/>
  <rect x="9" y="3" width="1" height="1" fill="#f7ffff"/>
  <rect x="10" y="3" width="1" height="1" fill="#a8bbdb"/>
  <rect x="0" y="4" width="1" height="1" fill="#b4c0ce"/>
  <rect x="1" y="4" width="1" height="1" fill="#f8ffff"/>
  <rect x="2" y="4" width="1" height="1" fill="#f6ffff"/>
  <rect x="3" y="4" width="1" height="1" fill="#f9fff9"/>
  <rect x="4" y="4" width="2" height="2" fill="#fffffa"/>
  <rect x="6" y="4" width="1" height="1" fill="#fffffe"/>
  <rect x="7" y="4" width="1" height="1" fill="#ffffff"/>
  <rect x="8" y="4" width="1" height="2" fill="#feffff"/>
  <rect x="9" y="4" width="1" height="4" fill="#f5ffff"/>
  <rect x="10" y="4" width="1" height="3" fill="#b0c4e4"/>
  <rect x="0" y="5" width="1" height="1" fill="#b7bece"/>
  <rect x="1" y="5" width="1" height="1" fill="#faffff"/>
  <rect x="2" y="5" width="1" height="1" fill="#f9feff"/>
  <rect x="3" y="5" width="1" height="1" fill="#fbfef9"/>
  <rect x="6" y="5" width="1" height="1" fill="#fffdfe"/>
  <rect x="7" y="5" width="1" height="1" fill="#fffdff"/>
  <rect x="0" y="6" width="1" height="1" fill="#b9bcd4"/>
  <rect x="1" y="6" width="1" height="2" fill="#fdffff"/>
  <rect x="2" y="6" width="1" height="2" fill="#fbfcff"/>
  <rect x="3" y="6" width="1" height="1" fill="#fdfdfd"/>
  <rect x="4" y="6" width="1" height="1" fill="#fffffe"/>
  <rect x="5" y="6" width="1" height="1" fill="#fffdfe"/>
  <rect x="6" y="6" width="1" height="1" fill="#fffbff"/>
  <rect x="7" y="6" width="1" height="1" fill="#fffcff"/>
  <rect x="8" y="6" width="1" height="1" fill="#ffffff"/>
  <rect x="0" y="7" width="1" height="1" fill="#bbbbd2"/>
  <rect x="3" y="7" width="1" height="1" fill="#fdfcff"/>
  <rect x="4" y="7" width="1" height="1" fill="#ffffff"/>
  <rect x="5" y="7" width="1" height="1" fill="#fffdff"/>
  <rect x="6" y="7" width="1" height="1" fill="#fffcff"/>
  <rect x="7" y="7" width="1" height="1" fill="#fffdff"/>
  <rect x="8" y="7" width="1" height="1" fill="#feffff"/>
  <rect x="10" y="7" width="1" height="1" fill="#b1c3e2"/>
  <rect x="0" y="8" width="1" height="1" fill="#b9bec8"/>
  <rect x="1" y="8" width="1" height="1" fill="#fbffff"/>
  <rect x="2" y="8" width="2" height="1" fill="#f8feff"/>
  <rect x="4" y="8" width="2" height="1" fill="#fcffff"/>
  <rect x="6" y="8" width="1" height="1" fill="#fdffff"/>
  <rect x="7" y="8" width="1" height="1" fill="#fcffff"/>
  <rect x="8" y="8" width="1" height="1" fill="#f5fdff"/>
  <rect x="9" y="8" width="1" height="1" fill="#fcffff"/>
  <rect x="10" y="8" width="1" height="1" fill="#adbfd9"/>
  <rect x="0" y="9" width="1" height="1" fill="#b1bcca96"/>
  <rect x="1" y="9" width="1" height="1" fill="#b7c2d0"/>
  <rect x="2" y="9" width="1" height="1" fill="#fbffff"/>
  <rect x="3" y="9" width="1" height="1" fill="#f8ffff"/>
  <rect x="4" y="9" width="4" height="1" fill="#f4ffff"/>
  <rect x="8" y="9" width="1" height="1" fill="#f5ffff"/>
  <rect x="9" y="9" width="1" height="1" fill="#b7c7d6"/>
  <rect x="10" y="9" width="1" height="1" fill="#aebfd596"/>
  <rect x="1" y="10" width="1" height="1" fill="#a8bbdb96"/>
  <rect x="2" y="10" width="1" height="1" fill="#afc2e2"/>
  <rect x="3" y="10" width="1" height="1" fill="#a9bddd"/>
  <rect x="4" y="10" width="3" height="1" fill="#adc1e1"/>
  <rect x="7" y="10" width="1" height="1" fill="#afc1df"/>
  <rect x="8" y="10" width="1" height="1" fill="#b3c5df"/>
  <rect x="9" y="10" width="1" height="1" fill="#acbdd396"/>
</svg>