<svg xmlns="http://www.w3.org/2000/svg" width="368" height="3" viewBox="0 0 368 3" shape-rendering="crispEdges">
  <rect x="6" y="0" width="1" height="1" fill="#bbbbbb0c"/>
  <rect x="7" y="0" width="1" height="1" fill="#bbbbbb0e"/>
  <rect x="8" y="0" width="1" height="1" fill="#bbbbbb11"/>
  <rect x="9" y="0" width="1" height="1" fill="#bbbbbb14"/>
  <rect x="10" y="0" width="1" height="1" fill="#bbbbbb17"/>
  <rect x="11" y="0" width="1" height="1" fill="#bbbbbb1a"/>
  <rect x="12" y="0" width="1" height="1" fill="#bbbbbb1e"/>
  <rect x="13" y="0" width="1" height="1" fill="#bbbbbb21"/>
  <rect x="14" y="0" width="1" height="1" fill="#bbbbbb25"/>
  <rect x="15" y="0" width="1" height="1" fill="#bbbbbb29"/>
  <rect x="16" y="0" width="1" height="1" fill="#bababa2d"/>
  <rect x="17" y="0" width="1" height="1" fill="#bababa31"/>
  <rect x="18" y="0" width="1" height="1" fill="#bababa35"/>
  <rect x="19" y="0" width="1" height="1" fill="#bababa39"/>
  <rect x="20" y="0" width="1" height="1" fill="#bababa3d"/>
  <rect x="21" y="0" width="1" height="1" fill="#bababa40"/>
  <rect x="22" y="0" width="1" height="1" fill="#bababa45"/>
  <rect x="23" y="0" width="1" height="1" fill="#bababa48"/>
  <rect x="24" y="0" width="1" height="1" fill="#bababa4c"/>
  <rect x="25" y="0" width="1" height="1" fill="#bababa4f"/>
  <rect x="26" y="0" width="1" height="1" fill="#bababa51"/>
  <rect x="27" y="0" width="1" height="1" fill="#bababa53"/>
  <rect x="28" y="0" width="1" height="1" fill="#bebebe54"/>
  <rect x="29" y="0" width="1" height="1" fill="#bebebe56"/>
  <rect x="30" y="0" width="1" height="1" fill="#bebebe57"/>
  <rect x="31" y="0" width="1" height="1" fill="#bebebe58"/>
  <rect x="32" y="0" width="1" height="1" fill="#bebebe59"/>
  <rect x="33" y="0" width="1" height="1" fill="#bebebe5b"/>
  <rect x="34" y="0" width="1" height="1" fill="#bebebe5c"/>
  <rect x="35" y="0" width="1" height="1" fill="#bebebe5d"/>
  <rect x="36" y="0" width="2" height="1" fill="#bebebe5f"/>
  <rect x="38" y="0" width="1" height="1" fill="#bebebe61"/>
  <rect x="39" y="0" width="1" height="1" fill="#bebebe62"/>
  <rect x="40" y="0" width="1" height="1" fill="#bebebe63"/>
  <rect x="41" y="0" width="2" height="1" fill="#bebebe65"/>
  <rect x="43" y="0" width="1" height="1" fill="#bebebe66"/>
  <rect x="44" y="0" width="1" height="1" fill="#bebebe67"/>
  <rect x="45" y="0" width="1" height="1" fill="#bebebe68"/>
  <rect x="46" y="0" width="1" height="1" fill="#bebebe69"/>
  <rect x="47" y="0" width="1" height="1" fill="#bebebe6a"/>
  <rect x="48" y="0" width="1" height="1" fill="#bebebe6b"/>
  <rect x="49" y="0" width="1" height="1" fill="#bebebe6c"/>
  <rect x="50" y="0" width="1" height="1" fill="#bebebe6d"/>
  <rect x="51" y="0" width="2" height="1" fill="#bebebe6e"/>
  <rect x="53" y="0" width="1" height="1" fill="#bebebe6f"/>
  <rect x="54" y="0" width="1" height="1" fill="#bebebe70"/>
  <rect x="55" y="0" width="2" height="1" fill="#bebebe71"/>
  <rect x="57" y="0" width="1" height="1" fill="#bebebe72"/>
  <rect x="58" y="0" width="274" height="1" fill="#bebebe73"/>
  <rect x="332" y="0" width="1" height="1" fill="#bebebe71"/>
  <rect x="333" y="0" width="1" height="1" fill="#bebebe70"/>
  <rect x="334" y="0" width="1" height="1" fill="#bebebe6e"/>
  <rect x="335" y="0" width="1" height="1" fill="#bebebe6d"/>
  <rect x="336" y="0" width="1" height="1" fill="#bebebe6b"/>
  <rect x="337" y="0" width="1" height="1" fill="#bebebe69"/>
  <rect x="338" y="0" width="1" height="1" fill="#bebebe67"/>
  <rect x="339" y="0" width="1" height="1" fill="#bebebe65"/>
  <rect x="340" y="0" width="1" height="1" fill="#bebebe63"/>
  <rect x="341" y="0" width="1" height="1" fill="#bebebe60"/>
  <rect x="342" y="0" width="1" height="1" fill="#bebebe5e"/>
  <rect x="343" y="0" width="1" height="1" fill="#bebebe5b"/>
  <rect x="344" y="0" width="1" height="1" fill="#bebebe59"/>
  <rect x="345" y="0" width="1" height="1" fill="#bebebe56"/>
  <rect x="346" y="0" width="1" height="1" fill="#bebebe53"/>
  <rect x="347" y="0" width="1" height="1" fill="#bebebe50"/>
  <rect x="348" y="0" width="1" height="1" fill="#bebebe4d"/>
  <rect x="349" y="0" width="1" height="1" fill="#bebebe4a"/>
  <rect x="350" y="0" width="1" height="1" fill="#bebebe48"/>
  <rect x="351" y="0" width="1" height="1" fill="#bebebe44"/>
  <rect x="352" y="0" width="1" height="1" fill="#bebebe41"/>
  <rect x="353" y="0" width="1" height="1" fill="#bebebe3e"/>
  <rect x="354" y="0" width="1" height="1" fill="#bebebe3b"/>
  <rect x="355" y="0" width="1" height="1" fill="#bebebe38"/>
  <rect x="356" y="0" width="1" height="1" fill="#bebebe35"/>
  <rect x="357" y="0" width="1" height="1" fill="#bebebe32"/>
  <rect x="358" y="0" width="1" height="1" fill="#bebebe2e"/>
  <rect x="359" y="0" width="1" height="1" fill="#bebebe2b"/>
  <rect x="360" y="0" width="1" height="1" fill="#bababa28"/>
  <rect x="361" y="0" width="1" height="1" fill="#bababa25"/>
  <rect x="362" y="0" width="1" height="1" fill="#bababa22"/>
  <rect x="363" y="0" width="1" height="1" fill="#bababa1f"/>
  <rect x="364" y="0" width="1" height="1" fill="#bababa1c"/>
  <rect x="365" y="0" width="1" height="1" fill="#bababa19"/>
  <rect x="366" y="0" width="1" height="1" fill="#bababa16"/>
  <rect x="367" y="0" width="1" height="1" fill="#bababa0e"/>
  <rect x="17" y="1" width="1" height="1" fill="#7979790a"/>
  <rect x="18" y="1" width="1" height="1" fill="#7979790b"/>
  <rect x="19" y="1" width="1" height="1" fill="#7979790c"/>
  <rect x="20" y="1" width="1" height="1" fill="#7979790d"/>
  <rect x="21" y="1" width="2" height="1" fill="#7979790e"/>
  <rect x="23" y="1" width="1" height="1" fill="#79797910"/>
  <rect x="24" y="1" width="2" height="1" fill="#79797911"/>
  <rect x="26" y="1" width="2" height="1" fill="#79797912"/>
  <rect x="28" y="1" width="2" height="1" fill="#76767612"/>
  <rect x="30" y="1" width="2" height="1" fill="#76767613"/>
  <rect x="32" y="1" width="3" height="1" fill="#76767614"/>
  <rect x="35" y="1" width="4" height="1" fill="#76767615"/>
  <rect x="39" y="1" width="3" height="1" fill="#76767616"/>
  <rect x="42" y="1" width="5" height="1" fill="#76767617"/>
  <rect x="47" y="1" width="4" height="1" fill="#76767618"/>
  <rect x="51" y="1" width="6" height="1" fill="#76767619"/>
  <rect x="57" y="1" width="275" height="1" fill="#7676761a"/>
  <rect x="332" y="1" width="3" height="1" fill="#76767619"/>
  <rect x="335" y="1" width="2" height="1" fill="#76767618"/>
  <rect x="337" y="1" width="3" height="1" fill="#76767617"/>
  <rect x="340" y="1" width="1" height="1" fill="#76767616"/>
  <rect x="341" y="1" width="2" height="1" fill="#76767615"/>
  <rect x="343" y="1" width="1" height="1" fill="#76767614"/>
  <rect x="344" y="1" width="1" height="1" fill="#76767613"/>
  <rect x="345" y="1" width="3" height="1" fill="#76767612"/>
  <rect x="348" y="1" width="1" height="1" fill="#76767611"/>
  <rect x="349" y="1" width="1" height="1" fill="#76767610"/>
  <rect x="350" y="1" width="1" height="1" fill="#7676760f"/>
  <rect x="351" y="1" width="3" height="1" fill="#7676760e"/>
  <rect x="354" y="1" width="1" height="1" fill="#7676760d"/>
  <rect x="355" y="1" width="1" height="1" fill="#7676760c"/>
  <rect x="356" y="1" width="1" height="1" fill="#7676760b"/>
  <rect x="357" y="1" width="2" height="1" fill="#7676760a"/>
  <rect x="31" y="2" width="7" height="1" fill="#7a7a7a0a"/>
  <rect x="38" y="2" width="6" height="1" fill="#7a7a7a0b"/>
  <rect x="44" y="2" width="8" height="1" fill="#7a7a7a0c"/>
  <rect x="52" y="2" width="283" height="1" fill="#7a7a7a0d"/>
  <rect x="335" y="2" width="3" height="1" fill="#7a7a7a0c"/>
  <rect x="338" y="2" width="3" height="1" fill="#7a7a7a0b"/>
  <rect x="341" y="2" width="4" height="1" fill="#7a7a7a0a"/>
</svg>