<svg xmlns="http://www.w3.org/2000/svg" width="14" height="14" viewBox="0 0 14 14" shape-rendering="crispEdges">
  <rect x="0" y="0" width="1" height="1" fill="#659ec649"/>
  <rect x="1" y="0" width="1" height="1" fill="#659ec6e6"/>
  <rect x="2" y="0" width="2" height="1" fill="#669fc7"/>
  <rect x="4" y="0" width="1" height="1" fill="#67a0c8"/>
  <rect x="5" y="0" width="1" height="1" fill="#68a2c9"/>
  <rect x="6" y="0" width="4" height="1" fill="#6aa3cb"/>
  <rect x="10" y="0" width="1" height="1" fill="#68a2c9"/>
  <rect x="11" y="0" width="1" height="1" fill="#67a0c8"/>
  <rect x="12" y="0" width="1" height="1" fill="#669fc7e4"/>
  <rect x="13" y="0" width="1" height="1" fill="#659ec646"/>
  <rect x="0" y="1" width="1" height="1" fill="#659ec6e6"/>
  <rect x="1" y="1" width="1" height="1" fill="#659ec6"/>
  <rect x="2" y="1" width="4" height="1" fill="#669fc7"/>
  <rect x="6" y="1" width="7" height="1" fill="#67a0c8"/>
  <rect x="13" y="1" width="1" height="1" fill="#67a0c8df"/>
  <rect x="0" y="2" width="4" height="1" fill="#659ec6"/>
  <rect x="4" y="2" width="9" height="1" fill="#649dc5"/>
  <rect x="13" y="2" width="1" height="1" fill="#649dc5f0"/>
  <rect x="0" y="3" width="1" height="1" fill="#669fc7"/>
  <rect x="1" y="3" width="1" height="1" fill="#659ec6"/>
  <rect x="2" y="3" width="1" height="1" fill="#649dc5"/>
  <rect x="3" y="3" width="1" height="1" fill="#619bc2"/>
  <rect x="4" y="3" width="1" height="1" fill="#649dc5"/>
  <rect x="5" y="3" width="3" height="1" fill="#639cc4"/>
  <rect x="8" y="3" width="4" height="1" fill="#619bc2"/>
  <rect x="12" y="3" width="1" height="2" fill="#639cc4"/>
  <rect x="13" y="3" width="1" height="2" fill="#639cc4f0"/>
  <rect x="0" y="4" width="1" height="1" fill="#68a2c9"/>
  <rect x="1" y="4" width="1" height="1" fill="#669fc7"/>
  <rect x="2" y="4" width="1" height="1" fill="#639cc43b"/>
  <rect x="3" y="4" width="1" height="1" fill="#6099c13c"/>
  <rect x="4" y="4" width="2" height="1" fill="#659ec6"/>
  <rect x="6" y="4" width="1" height="1" fill="#659ec63b"/>
  <rect x="7" y="4" width="1" height="1" fill="#659ec63c"/>
  <rect x="8" y="4" width="2" height="1" fill="#639cc4"/>
  <rect x="10" y="4" width="1" height="1" fill="#639cc43b"/>
  <rect x="11" y="4" width="1" height="1" fill="#619bc23c"/>
  <rect x="0" y="5" width="1" height="1" fill="#669fc7"/>
  <rect x="1" y="5" width="1" height="1" fill="#659ec6"/>
  <rect x="2" y="5" width="2" height="1" fill="#639cc43b"/>
  <rect x="4" y="5" width="1" height="1" fill="#659ec6"/>
  <rect x="5" y="5" width="1" height="1" fill="#669fc7"/>
  <rect x="6" y="5" width="2" height="1" fill="#669fc73b"/>
  <rect x="8" y="5" width="1" height="1" fill="#669fc7"/>
  <rect x="9" y="5" width="1" height="1" fill="#659ec6"/>
  <rect x="10" y="5" width="1" height="1" fill="#649dc53b"/>
  <rect x="11" y="5" width="1" height="1" fill="#639cc43b"/>
  <rect x="12" y="5" width="1" height="2" fill="#649dc5"/>
  <rect x="13" y="5" width="1" height="2" fill="#649dc5f0"/>
  <rect x="0" y="6" width="1" height="1" fill="#619bc2"/>
  <rect x="1" y="6" width="1" height="1" fill="#639cc4"/>
  <rect x="2" y="6" width="1" height="1" fill="#659ec6"/>
  <rect x="3" y="6" width="8" height="1" fill="#669fc7"/>
  <rect x="11" y="6" width="1" height="1" fill="#659ec6"/>
  <rect x="0" y="7" width="1" height="1" fill="#5f96bf"/>
  <rect x="1" y="7" width="1" height="1" fill="#639ac2"/>
  <rect x="2" y="7" width="1" height="1" fill="#689ec7"/>
  <rect x="3" y="7" width="1" height="1" fill="#6aa1c9"/>
  <rect x="4" y="7" width="1" height="1" fill="#69a0c8"/>
  <rect x="5" y="7" width="4" height="1" fill="#689ec7"/>
  <rect x="9" y="7" width="1" height="1" fill="#689fc5"/>
  <rect x="10" y="7" width="1" height="1" fill="#66a0c5"/>
  <rect x="11" y="7" width="1" height="1" fill="#659fc4"/>
  <rect x="12" y="7" width="1" height="1" fill="#669dc6"/>
  <rect x="13" y="7" width="1" height="1" fill="#659cc5f0"/>
  <rect x="0" y="8" width="1" height="1" fill="#669ac4e6"/>
  <rect x="1" y="8" width="1" height="1" fill="#669ac4"/>
  <rect x="2" y="8" width="2" height="1" fill="#679bc5"/>
  <rect x="4" y="8" width="2" height="1" fill="#689cc6"/>
  <rect x="6" y="8" width="2" height="1" fill="#699ec7"/>
  <rect x="8" y="8" width="1" height="1" fill="#699ec5"/>
  <rect x="9" y="8" width="1" height="1" fill="#699ec3"/>
  <rect x="10" y="8" width="1" height="2" fill="#68a0c1"/>
  <rect x="11" y="8" width="1" height="1" fill="#669ec2"/>
  <rect x="12" y="8" width="1" height="1" fill="#6599c0"/>
  <rect x="13" y="8" width="1" height="1" fill="#6496c0df"/>
  <rect x="0" y="9" width="1" height="1" fill="#648aa94a"/>
  <rect x="1" y="9" width="1" height="1" fill="#648aa9e7"/>
  <rect x="2" y="9" width="2" height="1" fill="#648aa9"/>
  <rect x="4" y="9" width="3" height="1" fill="#658caa"/>
  <rect x="7" y="9" width="1" height="1" fill="#628cae"/>
  <rect x="8" y="9" width="1" height="1" fill="#6596ba"/>
  <rect x="9" y="9" width="1" height="1" fill="#669bc0"/>
  <rect x="11" y="9" width="1" height="1" fill="#699fbf"/>
  <rect x="12" y="9" width="1" height="1" fill="#6791b3e5"/>
  <rect x="13" y="9" width="1" height="1" fill="#688db046"/>
  <rect x="8" y="10" width="1" height="1" fill="#6791b160"/>
  <rect x="9" y="10" width="1" height="1" fill="#6095baf5"/>
  <rect x="10" y="10" width="1" height="1" fill="#5f99ba"/>
  <rect x="11" y="10" width="1" height="1" fill="#699bb8"/>
  <rect x="9" y="11" width="1" height="1" fill="#6691ad2c"/>
  <rect x="10" y="11" width="1" height="1" fill="#5e94b1d4"/>
  <rect x="11" y="11" width="1" height="1" fill="#6695ac"/>
  <rect x="10" y="12" width="1" height="1" fill="#6793a90a"/>
  <rect x="11" y="12" width="1" height="1" fill="#6893a69f"/>
</svg>