<svg xmlns="http://www.w3.org/2000/svg" width="30" height="30" viewBox="0 0 30 30" shape-rendering="crispEdges">
  <rect x="8" y="4" width="1" height="1" fill="#2323250b"/>
  <rect x="9" y="4" width="1" height="1" fill="#22222220"/>
  <rect x="10" y="4" width="1" height="1" fill="#2525252d"/>
  <rect x="11" y="4" width="1" height="1" fill="#1f1f1f32"/>
  <rect x="12" y="4" width="4" height="1" fill="#21212133"/>
  <rect x="16" y="4" width="2" height="1" fill="#22212433"/>
  <rect x="18" y="4" width="1" height="1" fill="#22212432"/>
  <rect x="19" y="4" width="1" height="1" fill="#2221242d"/>
  <rect x="20" y="4" width="1" height="1" fill="#25252720"/>
  <rect x="21" y="4" width="1" height="1" fill="#2424260b"/>
  <rect x="6" y="5" width="1" height="1" fill="#242a310c"/>
  <rect x="7" y="5" width="1" height="1" fill="#21232523"/>
  <rect x="8" y="5" width="1" height="1" fill="#8787874f"/>
  <rect x="9" y="5" width="1" height="1" fill="#dcdcdc92"/>
  <rect x="10" y="5" width="1" height="1" fill="#f6f6f6c1"/>
  <rect x="11" y="5" width="1" height="1" fill="#ffffffd7"/>
  <rect x="12" y="5" width="4" height="1" fill="#ffffffdc"/>
  <rect x="16" y="5" width="2" height="1" fill="#fdfcffdc"/>
  <rect x="18" y="5" width="1" height="1" fill="#fdfcffd7"/>
  <rect x="19" y="5" width="1" height="1" fill="#fdfcffc1"/>
  <rect x="20" y="5" width="1" height="1" fill="#d9d8db92"/>
  <rect x="21" y="5" width="1" height="1" fill="#8787894f"/>
  <rect x="22" y="5" width="1" height="1" fill="#22212423"/>
  <rect x="23" y="5" width="1" height="1" fill="#23272c0c"/>
  <rect x="5" y="6" width="1" height="1" fill="#22272e15"/>
  <rect x="6" y="6" width="1" height="1" fill="#3a3a3c37"/>
  <rect x="7" y="6" width="1" height="1" fill="#e2e0df95"/>
  <rect x="8" y="6" width="1" height="1" fill="#ffffffd4"/>
  <rect x="9" y="6" width="1" height="1" fill="#fefefec9"/>
  <rect x="10" y="6" width="1" height="1" fill="#ffffffbe"/>
  <rect x="11" y="6" width="1" height="1" fill="#fefefeba"/>
  <rect x="12" y="6" width="4" height="1" fill="#ffffffb9"/>
  <rect x="16" y="6" width="2" height="1" fill="#fdfcffb9"/>
  <rect x="18" y="6" width="1" height="1" fill="#fdfcffba"/>
  <rect x="19" y="6" width="1" height="1" fill="#fdfcffbf"/>
  <rect x="20" y="6" width="1" height="1" fill="#fcfbfec9"/>
  <rect x="21" y="6" width="1" height="1" fill="#fafafcd4"/>
  <rect x="22" y="6" width="1" height="1" fill="#e0dfe298"/>
  <rect x="23" y="6" width="1" height="1" fill="#3b3d4139"/>
  <rect x="24" y="6" width="1" height="1" fill="#1e262a16"/>
  <rect x="4" y="7" width="1" height="1" fill="#1e262c0f"/>
  <rect x="5" y="7" width="1" height="1" fill="#34363a37"/>
  <rect x="6" y="7" width="1" height="1" fill="#eeececaf"/>
  <rect x="7" y="7" width="1" height="1" fill="#fffffdc8"/>
  <rect x="8" y="7" width="1" height="3" fill="#fffdfeb9"/>
  <rect x="9" y="7" width="1" height="1" fill="#fdfdfdb9"/>
  <rect x="10" y="7" width="2" height="1" fill="#ffffffb9"/>
  <rect x="12" y="7" width="1" height="1" fill="#fefefeb9"/>
  <rect x="13" y="7" width="3" height="1" fill="#fefdffb9"/>
  <rect x="16" y="7" width="6" height="1" fill="#ffffffb9"/>
  <rect x="22" y="7" width="1" height="1" fill="#ffffffc7"/>
  <rect x="23" y="7" width="1" height="1" fill="#ebedeeae"/>
  <rect x="24" y="7" width="1" height="1" fill="#31363637"/>
  <rect x="25" y="7" width="1" height="1" fill="#222b2f0f"/>
  <rect x="4" y="8" width="1" height="1" fill="#1f252a25"/>
  <rect x="5" y="8" width="1" height="1" fill="#d7d9db95"/>
  <rect x="6" y="8" width="1" height="1" fill="#ffffffc2"/>
  <rect x="7" y="8" width="1" height="1" fill="#fefefeb9"/>
  <rect x="9" y="8" width="1" height="2" fill="#fffdfcb9"/>
  <rect x="10" y="8" width="1" height="2" fill="#fffdfeb9"/>
  <rect x="11" y="8" width="1" height="1" fill="#fefefeb9"/>
  <rect x="12" y="8" width="1" height="1" fill="#fefdffb9"/>
  <rect x="13" y="8" width="1" height="1" fill="#fbfdffb9"/>
  <rect x="14" y="8" width="1" height="1" fill="#c9cbcf74"/>
  <rect x="15" y="8" width="1" height="1" fill="#4041453a"/>
  <rect x="16" y="8" width="1" height="1" fill="#cecdd274"/>
  <rect x="17" y="8" width="2" height="1" fill="#ffffffb9"/>
  <rect x="19" y="8" width="1" height="1" fill="#fafafeb9"/>
  <rect x="20" y="8" width="3" height="1" fill="#ffffffb9"/>
  <rect x="23" y="8" width="1" height="1" fill="#ffffffc2"/>
  <rect x="24" y="8" width="1" height="1" fill="#dcdcdc94"/>
  <rect x="25" y="8" width="1" height="1" fill="#1b202026"/>
  <rect x="3" y="9" width="1" height="1" fill="#262e3413"/>
  <rect x="4" y="9" width="1" height="1" fill="#868a8d4f"/>
  <rect x="5" y="9" width="1" height="1" fill="#fdffffc7"/>
  <rect x="6" y="9" width="1" height="1" fill="#fcfeffb9"/>
  <rect x="7" y="9" width="1" height="1" fill="#fafafcb9"/>
  <rect x="11" y="9" width="1" height="1" fill="#fefdffb9"/>
  <rect x="12" y="9" width="1" height="1" fill="#ffffffb9"/>
  <rect x="13" y="9" width="1" height="1" fill="#fcffffb9"/>
  <rect x="14" y="9" width="1" height="1" fill="#272a3034"/>
  <rect x="15" y="9" width="1" height="1" fill="#292d324d"/>
  <rect x="16" y="9" width="1" height="1" fill="#33343837"/>
  <rect x="17" y="9" width="1" height="1" fill="#fcfbfeb9"/>
  <rect x="18" y="9" width="1" height="1" fill="#ffffffb9"/>
  <rect x="19" y="9" width="1" height="1" fill="#fefdffb9"/>
  <rect x="20" y="9" width="4" height="2" fill="#ffffffb9"/>
  <rect x="24" y="9" width="1" height="1" fill="#fdfbf9c7"/>
  <rect x="25" y="9" width="1" height="1" fill="#8587894f"/>
  <rect x="26" y="9" width="1" height="1" fill="#242c3213"/>
  <rect x="3" y="10" width="1" height="1" fill="#1e262c26"/>
  <rect x="4" y="10" width="1" height="1" fill="#d9dde08e"/>
  <rect x="5" y="10" width="1" height="1" fill="#ffffffba"/>
  <rect x="6" y="10" width="2" height="1" fill="#ffffffb9"/>
  <rect x="8" y="10" width="1" height="1" fill="#fefefeb9"/>
  <rect x="9" y="10" width="1" height="1" fill="#fefefcb9"/>
  <rect x="10" y="10" width="1" height="1" fill="#fcfffeb9"/>
  <rect x="11" y="10" width="3" height="1" fill="#fbffffb9"/>
  <rect x="14" y="10" width="1" height="1" fill="#1e262a33"/>
  <rect x="15" y="10" width="1" height="1" fill="#292f3133"/>
  <rect x="16" y="10" width="1" height="1" fill="#1f221f33"/>
  <rect x="17" y="10" width="1" height="1" fill="#fffffcb9"/>
  <rect x="18" y="10" width="1" height="1" fill="#fefffab9"/>
  <rect x="19" y="10" width="1" height="1" fill="#fffffdb9"/>
  <rect x="24" y="10" width="1" height="1" fill="#fffdfcba"/>
  <rect x="25" y="10" width="1" height="1" fill="#dadcde8e"/>
  <rect x="26" y="10" width="1" height="1" fill="#1d252b26"/>
  <rect x="3" y="11" width="1" height="1" fill="#18202630"/>
  <rect x="4" y="11" width="1" height="1" fill="#f1f5f9b1"/>
  <rect x="5" y="11" width="2" height="1" fill="#ffffffb9"/>
  <rect x="7" y="11" width="1" height="1" fill="#f6f8fab9"/>
  <rect x="8" y="11" width="2" height="1" fill="#fcfffeb9"/>
  <rect x="10" y="11" width="2" height="1" fill="#fbffffb9"/>
  <rect x="12" y="11" width="1" height="1" fill="#f7fdffb9"/>
  <rect x="13" y="11" width="1" height="1" fill="#faffffb9"/>
  <rect x="14" y="11" width="1" height="1" fill="#1d282d33"/>
  <rect x="15" y="11" width="1" height="1" fill="#2831351f"/>
  <rect x="16" y="11" width="1" height="1" fill="#20232233"/>
  <rect x="17" y="11" width="1" height="1" fill="#fafbf6b9"/>
  <rect x="18" y="11" width="1" height="1" fill="#fffffdb9"/>
  <rect x="19" y="11" width="1" height="1" fill="#fcfcf9b9"/>
  <rect x="20" y="11" width="5" height="1" fill="#ffffffb9"/>
  <rect x="25" y="11" width="1" height="1" fill="#f1f3f4b1"/>
  <rect x="26" y="11" width="1" height="1" fill="#20282e30"/>
  <rect x="2" y="12" width="1" height="1" fill="#2b31380c"/>
  <rect x="3" y="12" width="1" height="2" fill="#1b232a33"/>
  <rect x="4" y="12" width="1" height="1" fill="#fbffffbb"/>
  <rect x="5" y="12" width="1" height="1" fill="#fdffffb9"/>
  <rect x="6" y="12" width="1" height="1" fill="#fafcfeb9"/>
  <rect x="7" y="12" width="1" height="1" fill="#fbfdffb9"/>
  <rect x="8" y="12" width="1" height="2" fill="#ffffffb9"/>
  <rect x="9" y="12" width="1" height="1" fill="#fbfdffb9"/>
  <rect x="10" y="12" width="1" height="1" fill="#c4c8cd74"/>
  <rect x="11" y="12" width="1" height="1" fill="#2b2f3736"/>
  <rect x="12" y="12" width="1" height="1" fill="#181e2733"/>
  <rect x="13" y="12" width="1" height="1" fill="#18202833"/>
  <rect x="14" y="12" width="1" height="1" fill="#1d27312b"/>
  <rect x="15" y="12" width="1" height="1" fill="#29313a15"/>
  <rect x="16" y="12" width="1" height="1" fill="#20212a2b"/>
  <rect x="17" y="12" width="1" height="1" fill="#24232a33"/>
  <rect x="18" y="12" width="1" height="1" fill="#1f1f2333"/>
  <rect x="19" y="12" width="1" height="1" fill="#31303536"/>
  <rect x="20" y="12" width="1" height="1" fill="#cdccd174"/>
  <rect x="21" y="12" width="2" height="1" fill="#fefdffb9"/>
  <rect x="23" y="12" width="1" height="1" fill="#fafafab9"/>
  <rect x="24" y="12" width="1" height="1" fill="#fffdfcb9"/>
  <rect x="25" y="12" width="1" height="1" fill="#fdffffbb"/>
  <rect x="26" y="12" width="1" height="1" fill="#171f2533"/>
  <rect x="27" y="12" width="1" height="1" fill="#29333b0c"/>
  <rect x="2" y="13" width="1" height="1" fill="#2931380e"/>
  <rect x="4" y="13" width="1" height="1" fill="#fcffffba"/>
  <rect x="5" y="13" width="1" height="1" fill="#fafcfeb9"/>
  <rect x="6" y="13" width="1" height="1" fill="#fbfdffb9"/>
  <rect x="7" y="13" width="1" height="1" fill="#fcfeffb9"/>
  <rect x="9" y="13" width="1" height="1" fill="#fefdffb9"/>
  <rect x="10" y="13" width="1" height="1" fill="#32333937"/>
  <rect x="11" y="13" width="1" height="1" fill="#2b2f353f"/>
  <rect x="12" y="13" width="1" height="1" fill="#292e352d"/>
  <rect x="13" y="13" width="1" height="1" fill="#2a2f391f"/>
  <rect x="14" y="13" width="1" height="1" fill="#2c333e0f"/>
  <rect x="15" y="13" width="1" height="1" fill="#272d360a"/>
  <rect x="16" y="13" width="1" height="1" fill="#2e2f380f"/>
  <rect x="17" y="13" width="1" height="1" fill="#2f2d351f"/>
  <rect x="18" y="13" width="1" height="1" fill="#3231382d"/>
  <rect x="19" y="13" width="1" height="1" fill="#29282d3f"/>
  <rect x="20" y="13" width="1" height="1" fill="#48474c3b"/>
  <rect x="21" y="13" width="1" height="1" fill="#fdfcffb9"/>
  <rect x="22" y="13" width="3" height="1" fill="#ffffffb9"/>
  <rect x="25" y="13" width="1" height="1" fill="#fcfeffba"/>
  <rect x="26" y="13" width="1" height="1" fill="#1a222933"/>
  <rect x="27" y="13" width="1" height="1" fill="#29333b0e"/>
  <rect x="2" y="14" width="1" height="1" fill="#2633380f"/>
  <rect x="3" y="14" width="1" height="1" fill="#1a242a33"/>
  <rect x="4" y="14" width="1" height="1" fill="#fafcffb6"/>
  <rect x="5" y="14" width="1" height="1" fill="#fdfcffb9"/>
  <rect x="6" y="14" width="1" height="1" fill="#fcfeffb9"/>
  <rect x="7" y="14" width="1" height="1" fill="#fefdffb9"/>
  <rect x="8" y="14" width="1" height="1" fill="#fffeffb9"/>
  <rect x="9" y="14" width="1" height="1" fill="#ffffffb9"/>
  <rect x="10" y="14" width="1" height="1" fill="#d3d1d284"/>
  <rect x="11" y="14" width="1" height="1" fill="#38373a37"/>
  <rect x="12" y="14" width="1" height="1" fill="#1e1f2333"/>
  <rect x="13" y="14" width="1" height="1" fill="#191c2233"/>
  <rect x="14" y="14" width="1" height="1" fill="#21252a22"/>
  <rect x="16" y="14" width="1" height="1" fill="#20222422"/>
  <rect x="17" y="14" width="1" height="1" fill="#1a1d1c33"/>
  <rect x="18" y="14" width="1" height="1" fill="#21212133"/>
  <rect x="19" y="14" width="1" height="1" fill="#33333336"/>
  <rect x="20" y="14" width="1" height="1" fill="#cecece83"/>
  <rect x="21" y="14" width="1" height="1" fill="#ffffffb9"/>
  <rect x="22" y="14" width="1" height="1" fill="#fdfcffb9"/>
  <rect x="23" y="14" width="1" height="1" fill="#fefdffb9"/>
  <rect x="24" y="14" width="1" height="1" fill="#ffffffb9"/>
  <rect x="25" y="14" width="1" height="1" fill="#f9fbfcb2"/>
  <rect x="26" y="14" width="1" height="1" fill="#1e262c33"/>
  <rect x="27" y="14" width="1" height="1" fill="#28323a0f"/>
  <rect x="2" y="15" width="1" height="1" fill="#25333a0e"/>
  <rect x="3" y="15" width="1" height="1" fill="#17262a32"/>
  <rect x="4" y="15" width="1" height="1" fill="#fbfdfda5"/>
  <rect x="5" y="15" width="1" height="1" fill="#fffefab9"/>
  <rect x="6" y="15" width="1" height="1" fill="#fefefeb9"/>
  <rect x="7" y="15" width="1" height="3" fill="#ffffffb9"/>
  <rect x="8" y="15" width="1" height="1" fill="#fffffdb9"/>
  <rect x="9" y="15" width="1" height="1" fill="#fffffeb9"/>
  <rect x="10" y="15" width="1" height="1" fill="#fefcfbcb"/>
  <rect x="11" y="15" width="1" height="1" fill="#fefcfddb"/>
  <rect x="12" y="15" width="2" height="1" fill="#ffffffdc"/>
  <rect x="14" y="15" width="1" height="1" fill="#21252833"/>
  <rect x="15" y="15" width="1" height="1" fill="#2b30310a"/>
  <rect x="16" y="15" width="1" height="1" fill="#1f212133"/>
  <rect x="17" y="15" width="1" height="1" fill="#fbfefbdc"/>
  <rect x="18" y="15" width="1" height="1" fill="#fffffedc"/>
  <rect x="19" y="15" width="1" height="1" fill="#ffffffdb"/>
  <rect x="20" y="15" width="1" height="1" fill="#ffffffcb"/>
  <rect x="21" y="15" width="2" height="1" fill="#fefdffb9"/>
  <rect x="23" y="15" width="1" height="1" fill="#ffffffb9"/>
  <rect x="24" y="15" width="1" height="1" fill="#fefefeb9"/>
  <rect x="25" y="15" width="1" height="1" fill="#f0f4f7a4"/>
  <rect x="26" y="15" width="1" height="1" fill="#1a242c31"/>
  <rect x="27" y="15" width="1" height="1" fill="#222e370e"/>
  <rect x="2" y="16" width="1" height="1" fill="#20363c0c"/>
  <rect x="3" y="16" width="1" height="1" fill="#2436372e"/>
  <rect x="4" y="16" width="1" height="1" fill="#d8ddd081"/>
  <rect x="5" y="16" width="1" height="1" fill="#fffff3b9"/>
  <rect x="6" y="16" width="1" height="1" fill="#fffffcb9"/>
  <rect x="8" y="16" width="1" height="1" fill="#fffffbb9"/>
  <rect x="9" y="16" width="1" height="1" fill="#fffffdb9"/>
  <rect x="10" y="16" width="1" height="1" fill="#fffffeb9"/>
  <rect x="11" y="16" width="3" height="1" fill="#ffffffb9"/>
  <rect x="14" y="16" width="1" height="1" fill="#2b303133"/>
  <rect x="15" y="16" width="1" height="1" fill="#2b303115"/>
  <rect x="16" y="16" width="1" height="1" fill="#24262733"/>
  <rect x="17" y="16" width="1" height="1" fill="#f6f9f8b9"/>
  <rect x="18" y="16" width="1" height="1" fill="#ffffffb9"/>
  <rect x="19" y="16" width="1" height="1" fill="#f5f7f9b9"/>
  <rect x="20" y="16" width="1" height="1" fill="#fcfeffb9"/>
  <rect x="21" y="16" width="1" height="1" fill="#fbfdffb9"/>
  <rect x="22" y="16" width="2" height="1" fill="#fcfeffb9"/>
  <rect x="24" y="16" width="1" height="1" fill="#ffffffb9"/>
  <rect x="25" y="16" width="1" height="1" fill="#d5d9dd82"/>
  <rect x="26" y="16" width="1" height="1" fill="#1e2a342e"/>
  <rect x="27" y="16" width="1" height="1" fill="#202e390c"/>
  <rect x="3" y="17" width="1" height="1" fill="#23363b23"/>
  <rect x="4" y="17" width="1" height="1" fill="#878b7e4d"/>
  <rect x="5" y="17" width="1" height="1" fill="#fcfcecb8"/>
  <rect x="6" y="17" width="1" height="1" fill="#f6f7f0b9"/>
  <rect x="8" y="17" width="1" height="1" fill="#fffffdb9"/>
  <rect x="9" y="17" width="2" height="1" fill="#fffffeb9"/>
  <rect x="11" y="17" width="2" height="1" fill="#ffffffb9"/>
  <rect x="13" y="17" width="1" height="1" fill="#fdffffb9"/>
  <rect x="14" y="17" width="1" height="1" fill="#34383935"/>
  <rect x="15" y="17" width="1" height="1" fill="#30323420"/>
  <rect x="16" y="17" width="1" height="1" fill="#3d403f37"/>
  <rect x="17" y="17" width="1" height="1" fill="#ffffffb9"/>
  <rect x="18" y="17" width="1" height="1" fill="#f8faf9b9"/>
  <rect x="19" y="17" width="1" height="1" fill="#f6f9f8b9"/>
  <rect x="20" y="17" width="2" height="1" fill="#fcfeffb9"/>
  <rect x="22" y="17" width="1" height="1" fill="#fefdffb9"/>
  <rect x="23" y="17" width="1" height="1" fill="#fcfeffb9"/>
  <rect x="24" y="17" width="1" height="1" fill="#f6f8fab8"/>
  <rect x="25" y="17" width="1" height="1" fill="#82888d4d"/>
  <rect x="26" y="17" width="1" height="1" fill="#23323d23"/>
  <rect x="3" y="18" width="1" height="1" fill="#24344115"/>
  <rect x="4" y="18" width="1" height="1" fill="#21252834"/>
  <rect x="5" y="18" width="1" height="1" fill="#d0d1cc82"/>
  <rect x="6" y="18" width="1" height="1" fill="#fffffcb9"/>
  <rect x="7" y="18" width="1" height="1" fill="#fafdf7b9"/>
  <rect x="8" y="18" width="1" height="1" fill="#fffffeb9"/>
  <rect x="9" y="18" width="4" height="1" fill="#ffffffb9"/>
  <rect x="13" y="18" width="1" height="1" fill="#fcfeffb9"/>
  <rect x="14" y="18" width="1" height="1" fill="#ced0d184"/>
  <rect x="15" y="18" width="1" height="1" fill="#3b3d3d3a"/>
  <rect x="16" y="18" width="1" height="1" fill="#d9d7d584"/>
  <rect x="17" y="18" width="1" height="1" fill="#fffffbb9"/>
  <rect x="18" y="18" width="1" height="1" fill="#fffffab9"/>
  <rect x="19" y="18" width="1" height="1" fill="#fffffcb9"/>
  <rect x="20" y="18" width="1" height="1" fill="#fffdfab9"/>
  <rect x="21" y="18" width="2" height="1" fill="#fffdfcb9"/>
  <rect x="23" y="18" width="1" height="1" fill="#fefefeb9"/>
  <rect x="24" y="18" width="1" height="1" fill="#dfe3e682"/>
  <rect x="25" y="18" width="1" height="1" fill="#1d252b34"/>
  <rect x="26" y="18" width="1" height="1" fill="#29394615"/>
  <rect x="3" y="19" width="1" height="1" fill="#2633450c"/>
  <rect x="4" y="19" width="1" height="1" fill="#262d3a25"/>
  <rect x="5" y="19" width="1" height="1" fill="#2e313737"/>
  <rect x="6" y="19" width="1" height="1" fill="#ecf0ef96"/>
  <rect x="7" y="19" width="1" height="1" fill="#fdfffdb9"/>
  <rect x="8" y="19" width="6" height="1" fill="#ffffffb9"/>
  <rect x="14" y="19" width="1" height="1" fill="#fbfdffcb"/>
  <rect x="15" y="19" width="1" height="1" fill="#fafcfcda"/>
  <rect x="16" y="19" width="1" height="1" fill="#fffdfccb"/>
  <rect x="17" y="19" width="1" height="1" fill="#fffffcb9"/>
  <rect x="18" y="19" width="1" height="1" fill="#fffff9b9"/>
  <rect x="19" y="19" width="1" height="1" fill="#fffffeb9"/>
  <rect x="20" y="19" width="1" height="1" fill="#fffffdb9"/>
  <rect x="21" y="19" width="1" height="1" fill="#fffdfab9"/>
  <rect x="22" y="19" width="1" height="1" fill="#fffdfcb9"/>
  <rect x="23" y="19" width="1" height="1" fill="#fefdff95"/>
  <rect x="24" y="19" width="1" height="1" fill="#33393e37"/>
  <rect x="25" y="19" width="1" height="1" fill="#25313b25"/>
  <rect x="26" y="19" width="1" height="1" fill="#1a2d3b0c"/>
  <rect x="4" y="20" width="1" height="1" fill="#21293d12"/>
  <rect x="5" y="20" width="1" height="1" fill="#232c3b2d"/>
  <rect x="6" y="20" width="1" height="1" fill="#3b414837"/>
  <rect x="7" y="20" width="1" height="1" fill="#d3d7da80"/>
  <rect x="8" y="20" width="1" height="1" fill="#ffffffb8"/>
  <rect x="9" y="20" width="1" height="1" fill="#fffeffb9"/>
  <rect x="10" y="20" width="3" height="1" fill="#ffffffb9"/>
  <rect x="13" y="20" width="1" height="1" fill="#fcfdffb9"/>
  <rect x="14" y="20" width="1" height="1" fill="#f5f9fcb9"/>
  <rect x="15" y="20" width="1" height="1" fill="#fbfdffb9"/>
  <rect x="16" y="20" width="1" height="1" fill="#ffffffb9"/>
  <rect x="17" y="20" width="1" height="1" fill="#fffffeb9"/>
  <rect x="18" y="20" width="1" height="1" fill="#fafbf8b9"/>
  <rect x="19" y="20" width="1" height="1" fill="#fffffdb9"/>
  <rect x="20" y="20" width="1" height="1" fill="#f9f9f9b9"/>
  <rect x="21" y="20" width="1" height="1" fill="#ffffffb8"/>
  <rect x="22" y="20" width="1" height="1" fill="#e2e1e483"/>
  <rect x="23" y="20" width="1" height="1" fill="#3c3f4538"/>
  <rect x="24" y="20" width="1" height="1" fill="#232f382e"/>
  <rect x="25" y="20" width="1" height="1" fill="#1d2d3c12"/>
  <rect x="5" y="21" width="1" height="1" fill="#212d4414"/>
  <rect x="6" y="21" width="1" height="1" fill="#21293b2d"/>
  <rect x="7" y="21" width="1" height="1" fill="#181e273c"/>
  <rect x="8" y="21" width="1" height="1" fill="#81828649"/>
  <rect x="9" y="21" width="1" height="1" fill="#fafafab9"/>
  <rect x="10" y="21" width="1" height="2" fill="#ffffffb9"/>
  <rect x="11" y="21" width="1" height="1" fill="#fefdffb9"/>
  <rect x="12" y="21" width="1" height="1" fill="#ffffffb9"/>
  <rect x="13" y="21" width="1" height="1" fill="#f6faffb9"/>
  <rect x="14" y="21" width="1" height="1" fill="#fbffffb9"/>
  <rect x="15" y="21" width="1" height="1" fill="#f6fcffb9"/>
  <rect x="16" y="21" width="1" height="1" fill="#f6fcfeb9"/>
  <rect x="17" y="21" width="1" height="1" fill="#f7fdffb9"/>
  <rect x="18" y="21" width="1" height="1" fill="#f1f7fab3"/>
  <rect x="19" y="21" width="1" height="1" fill="#f6fcffa3"/>
  <rect x="20" y="21" width="1" height="1" fill="#d0d6db7e"/>
  <rect x="21" y="21" width="1" height="1" fill="#7b81884a"/>
  <rect x="22" y="21" width="1" height="1" fill="#242a313a"/>
  <rect x="23" y="21" width="1" height="1" fill="#27303b2c"/>
  <rect x="24" y="21" width="1" height="1" fill="#1c2c3b14"/>
  <rect x="6" y="22" width="1" height="1" fill="#28344d12"/>
  <rect x="7" y="22" width="1" height="1" fill="#232b3f2a"/>
  <rect x="8" y="22" width="1" height="1" fill="#2c2d3533"/>
  <rect x="9" y="22" width="1" height="1" fill="#fffdffb9"/>
  <rect x="11" y="22" width="1" height="1" fill="#fdfcffb9"/>
  <rect x="12" y="22" width="1" height="1" fill="#f2f7fab9"/>
  <rect x="13" y="22" width="1" height="1" fill="#161c2333"/>
  <rect x="14" y="22" width="1" height="1" fill="#1f272f33"/>
  <rect x="15" y="22" width="1" height="1" fill="#141e2633"/>
  <rect x="16" y="22" width="1" height="1" fill="#19252f33"/>
  <rect x="17" y="22" width="1" height="1" fill="#15242f33"/>
  <rect x="18" y="22" width="1" height="1" fill="#0e1f2935"/>
  <rect x="19" y="22" width="1" height="1" fill="#13233038"/>
  <rect x="20" y="22" width="1" height="1" fill="#1727343b"/>
  <rect x="21" y="22" width="1" height="1" fill="#2a3a4935"/>
  <rect x="22" y="22" width="1" height="1" fill="#1c2c3b23"/>
  <rect x="23" y="22" width="1" height="1" fill="#27394a12"/>
  <rect x="7" y="23" width="1" height="1" fill="#26304817"/>
  <rect x="8" y="23" width="1" height="1" fill="#24273233"/>
  <rect x="9" y="23" width="1" height="1" fill="#fefdffb9"/>
  <rect x="10" y="23" width="1" height="1" fill="#f8f8fab9"/>
  <rect x="11" y="23" width="1" height="1" fill="#fdffffb9"/>
  <rect x="12" y="23" width="1" height="1" fill="#23283233"/>
  <rect x="13" y="23" width="1" height="1" fill="#29313c39"/>
  <rect x="14" y="23" width="1" height="1" fill="#2c384234"/>
  <rect x="15" y="23" width="1" height="1" fill="#23333e2f"/>
  <rect x="16" y="23" width="1" height="1" fill="#2134422f"/>
  <rect x="17" y="23" width="1" height="1" fill="#2135472e"/>
  <rect x="18" y="23" width="1" height="1" fill="#1a30412b"/>
  <rect x="19" y="23" width="1" height="1" fill="#1d354827"/>
  <rect x="20" y="23" width="1" height="1" fill="#20384b1f"/>
  <rect x="21" y="23" width="1" height="1" fill="#20384d15"/>
  <rect x="22" y="23" width="1" height="1" fill="#1830450c"/>
  <rect x="7" y="24" width="1" height="1" fill="#24334710"/>
  <rect x="8" y="24" width="1" height="1" fill="#1d222e33"/>
  <rect x="9" y="24" width="1" height="1" fill="#f5f6fdb9"/>
  <rect x="10" y="24" width="1" height="1" fill="#fcffffb9"/>
  <rect x="11" y="24" width="1" height="1" fill="#1b202833"/>
  <rect x="12" y="24" width="1" height="1" fill="#22283b35"/>
  <rect x="13" y="24" width="1" height="1" fill="#272e451f"/>
  <rect x="14" y="24" width="1" height="1" fill="#2a384613"/>
  <rect x="15" y="24" width="1" height="1" fill="#273a460f"/>
  <rect x="16" y="24" width="1" height="1" fill="#2238490f"/>
  <rect x="17" y="24" width="1" height="1" fill="#1d344a0f"/>
  <rect x="18" y="24" width="1" height="1" fill="#19324a0e"/>
  <rect x="19" y="24" width="1" height="1" fill="#1b344e0c"/>
  <rect x="7" y="25" width="1" height="1" fill="#2334470e"/>
  <rect x="8" y="25" width="1" height="1" fill="#1e243433"/>
  <rect x="9" y="25" width="1" height="1" fill="#fbffffb9"/>
  <rect x="10" y="25" width="1" height="1" fill="#1c222733"/>
  <rect x="11" y="25" width="1" height="1" fill="#272f3734"/>
  <rect x="12" y="25" width="1" height="1" fill="#282f461a"/>
  <rect x="7" y="26" width="1" height="1" fill="#1d31440a"/>
  <rect x="8" y="26" width="1" height="1" fill="#1f2a3b29"/>
  <rect x="9" y="26" width="1" height="1" fill="#212a3733"/>
  <rect x="10" y="26" width="1" height="1" fill="#222c342e"/>
  <rect x="11" y="26" width="1" height="1" fill="#1e28331a"/>
  <rect x="8" y="27" width="1" height="1" fill="#2332440c"/>
  <rect x="9" y="27" width="1" height="1" fill="#212e3e13"/>
  <rect x="10" y="27" width="1" height="1" fill="#212f3c0f"/>
</svg>