<svg xmlns="http://www.w3.org/2000/svg" width="50" height="23" viewBox="0 0 50 23" shape-rendering="crispEdges">
  <rect x="0" y="0" width="4" height="1" fill="#cdebf5"/>
  <rect x="4" y="0" width="4" height="1" fill="#cdebf7"/>
  <rect x="8" y="0" width="7" height="1" fill="#cdeaf9"/>
  <rect x="15" y="0" width="1" height="1" fill="#cbebf9"/>
  <rect x="16" y="0" width="1" height="1" fill="#c6edf9"/>
  <rect x="17" y="0" width="3" height="1" fill="#c5eef9"/>
  <rect x="20" y="0" width="12" height="1" fill="#c6eef7"/>
  <rect x="32" y="0" width="16" height="1" fill="#c5edf6"/>
  <rect x="48" y="0" width="2" height="1" fill="#c6eef7"/>
  <rect x="0" y="1" width="4" height="1" fill="#cdebf5f8"/>
  <rect x="4" y="1" width="4" height="1" fill="#cdebf7f8"/>
  <rect x="8" y="1" width="7" height="1" fill="#cdeaf9f8"/>
  <rect x="15" y="1" width="1" height="1" fill="#cbebf9f8"/>
  <rect x="16" y="1" width="1" height="1" fill="#c8edf9f8"/>
  <rect x="17" y="1" width="3" height="1" fill="#c6edf9f8"/>
  <rect x="20" y="1" width="1" height="1" fill="#c6eef7f8"/>
  <rect x="21" y="1" width="11" height="1" fill="#c8edf7f8"/>
  <rect x="32" y="1" width="16" height="1" fill="#c7ecf6f8"/>
  <rect x="48" y="1" width="2" height="1" fill="#c8edf7f8"/>
  <rect x="0" y="2" width="4" height="1" fill="#ceecf6f0"/>
  <rect x="4" y="2" width="4" height="1" fill="#ceecf8f0"/>
  <rect x="8" y="2" width="4" height="1" fill="#ceebfaf0"/>
  <rect x="12" y="2" width="4" height="1" fill="#ccecfaf0"/>
  <rect x="16" y="2" width="1" height="1" fill="#caecf9f0"/>
  <rect x="17" y="2" width="3" height="1" fill="#c8edf9f0"/>
  <rect x="20" y="2" width="1" height="1" fill="#c8edf7f0"/>
  <rect x="21" y="2" width="11" height="1" fill="#caecf7f0"/>
  <rect x="32" y="2" width="16" height="1" fill="#c8ebf6f0"/>
  <rect x="48" y="2" width="2" height="1" fill="#caecf7f0"/>
  <rect x="0" y="3" width="4" height="1" fill="#ceecf6e7"/>
  <rect x="4" y="3" width="4" height="1" fill="#ceecf8e7"/>
  <rect x="8" y="3" width="4" height="1" fill="#ceebfae7"/>
  <rect x="12" y="3" width="4" height="1" fill="#ccecfae7"/>
  <rect x="16" y="3" width="1" height="1" fill="#cbebf9e7"/>
  <rect x="17" y="3" width="3" height="1" fill="#caecf9e7"/>
  <rect x="20" y="3" width="1" height="1" fill="#caecf7e7"/>
  <rect x="21" y="3" width="11" height="1" fill="#cbebf7e7"/>
  <rect x="32" y="3" width="16" height="1" fill="#caeaf6e7"/>
  <rect x="48" y="3" width="2" height="1" fill="#cbebf7e7"/>
  <rect x="0" y="4" width="4" height="1" fill="#cfedf8dd"/>
  <rect x="4" y="4" width="8" height="1" fill="#cfedfadd"/>
  <rect x="12" y="4" width="2" height="1" fill="#cfecfcdd"/>
  <rect x="14" y="4" width="2" height="1" fill="#d0eefddd"/>
  <rect x="16" y="4" width="2" height="1" fill="#cfeffbdd"/>
  <rect x="18" y="4" width="3" height="1" fill="#d0f0fcdd"/>
  <rect x="21" y="4" width="11" height="1" fill="#d1effcdd"/>
  <rect x="32" y="4" width="16" height="1" fill="#d0eefbdd"/>
  <rect x="48" y="4" width="2" height="1" fill="#d1effcdd"/>
  <rect x="0" y="5" width="5" height="1" fill="#cfedf8d1"/>
  <rect x="5" y="5" width="7" height="1" fill="#cfedfad1"/>
  <rect x="12" y="5" width="2" height="1" fill="#cfecfcd1"/>
  <rect x="14" y="5" width="2" height="1" fill="#d0eefdd1"/>
  <rect x="16" y="5" width="2" height="1" fill="#d0eefbd1"/>
  <rect x="18" y="5" width="3" height="1" fill="#d1effcd1"/>
  <rect x="21" y="5" width="11" height="1" fill="#d3eefcd1"/>
  <rect x="32" y="5" width="16" height="1" fill="#d2edfbd1"/>
  <rect x="48" y="5" width="2" height="1" fill="#d3eefcd1"/>
  <rect x="0" y="6" width="5" height="1" fill="#d1f0f8c5"/>
  <rect x="5" y="6" width="6" height="1" fill="#d1f0fac5"/>
  <rect x="11" y="6" width="6" height="1" fill="#d1effcc5"/>
  <rect x="17" y="6" width="4" height="1" fill="#d3eefcc5"/>
  <rect x="21" y="6" width="11" height="1" fill="#d5eefcc5"/>
  <rect x="32" y="6" width="16" height="1" fill="#d3ecfbc5"/>
  <rect x="48" y="6" width="2" height="1" fill="#d5eefcc5"/>
  <rect x="0" y="7" width="8" height="1" fill="#d3f1f9b8"/>
  <rect x="8" y="7" width="5" height="1" fill="#d3f1fbb8"/>
  <rect x="13" y="7" width="3" height="1" fill="#d4f0fdb8"/>
  <rect x="16" y="7" width="1" height="1" fill="#d3eefcb8"/>
  <rect x="17" y="7" width="4" height="1" fill="#d5eefcb8"/>
  <rect x="21" y="7" width="11" height="1" fill="#d6edfcb8"/>
  <rect x="32" y="7" width="16" height="1" fill="#d5ecfbb8"/>
  <rect x="48" y="7" width="2" height="1" fill="#d6edfcb8"/>
  <rect x="0" y="8" width="7" height="1" fill="#d6f3f9aa"/>
  <rect x="7" y="8" width="6" height="1" fill="#d6f3fbaa"/>
  <rect x="13" y="8" width="1" height="1" fill="#d8f1fdaa"/>
  <rect x="14" y="8" width="3" height="1" fill="#d9f3ffaa"/>
  <rect x="17" y="8" width="1" height="1" fill="#dbf2ffaa"/>
  <rect x="18" y="8" width="3" height="1" fill="#dcf3ffaa"/>
  <rect x="21" y="8" width="11" height="1" fill="#def2ffaa"/>
  <rect x="32" y="8" width="4" height="1" fill="#dcf1ffaa"/>
  <rect x="36" y="8" width="2" height="1" fill="#def0ffaa"/>
  <rect x="38" y="8" width="10" height="1" fill="#dcf1ffaa"/>
  <rect x="48" y="8" width="2" height="1" fill="#def2ffaa"/>
  <rect x="0" y="9" width="8" height="1" fill="#d9f3fa9c"/>
  <rect x="8" y="9" width="7" height="1" fill="#d9f3fc9c"/>
  <rect x="15" y="9" width="1" height="1" fill="#dbf2fc9c"/>
  <rect x="16" y="9" width="1" height="1" fill="#dcf3fe9c"/>
  <rect x="17" y="9" width="3" height="1" fill="#dcf3ff9c"/>
  <rect x="20" y="9" width="8" height="1" fill="#def2ff9c"/>
  <rect x="28" y="9" width="4" height="1" fill="#dff1ff9c"/>
  <rect x="32" y="9" width="4" height="1" fill="#def0ff9c"/>
  <rect x="36" y="9" width="2" height="1" fill="#e0efff9c"/>
  <rect x="38" y="9" width="4" height="1" fill="#def0ff9c"/>
  <rect x="42" y="9" width="6" height="1" fill="#dcf1ff9c"/>
  <rect x="48" y="9" width="2" height="1" fill="#def2ff9c"/>
  <rect x="0" y="10" width="7" height="1" fill="#ddf5fb8e"/>
  <rect x="7" y="10" width="9" height="1" fill="#ddf5fd8e"/>
  <rect x="16" y="10" width="1" height="1" fill="#def3fc8e"/>
  <rect x="17" y="10" width="11" height="1" fill="#def3fe8e"/>
  <rect x="28" y="10" width="4" height="1" fill="#dff2fe8e"/>
  <rect x="32" y="10" width="4" height="1" fill="#def1fc8e"/>
  <rect x="36" y="10" width="2" height="1" fill="#e0f0fc8e"/>
  <rect x="38" y="10" width="4" height="1" fill="#def1fc8e"/>
  <rect x="42" y="10" width="6" height="1" fill="#dcf1fc8e"/>
  <rect x="48" y="10" width="2" height="1" fill="#def3fe8e"/>
  <rect x="0" y="11" width="8" height="1" fill="#e0f6fc80"/>
  <rect x="8" y="11" width="6" height="1" fill="#e0f5fe80"/>
  <rect x="14" y="11" width="3" height="1" fill="#dff4fd80"/>
  <rect x="17" y="11" width="1" height="1" fill="#e0f3fd80"/>
  <rect x="18" y="11" width="11" height="1" fill="#dff2fc80"/>
  <rect x="29" y="11" width="3" height="1" fill="#e1f1fc80"/>
  <rect x="32" y="11" width="9" height="1" fill="#e0f0fa80"/>
  <rect x="41" y="11" width="7" height="1" fill="#def1fa80"/>
  <rect x="48" y="11" width="2" height="1" fill="#dff2fc80"/>
  <rect x="0" y="12" width="16" height="1" fill="#e5f6fe71"/>
  <rect x="16" y="12" width="13" height="1" fill="#e4f5fd71"/>
  <rect x="29" y="12" width="3" height="1" fill="#e6f4fd71"/>
  <rect x="32" y="12" width="9" height="1" fill="#e5f3fc71"/>
  <rect x="41" y="12" width="7" height="1" fill="#e3f4fc71"/>
  <rect x="48" y="12" width="2" height="1" fill="#e4f5fd71"/>
  <rect x="0" y="13" width="14" height="1" fill="#eaf6ff63"/>
  <rect x="14" y="13" width="1" height="1" fill="#ebf7ff63"/>
  <rect x="15" y="13" width="4" height="1" fill="#e8f7fd63"/>
  <rect x="19" y="13" width="8" height="1" fill="#e7f8fd63"/>
  <rect x="27" y="13" width="5" height="1" fill="#e8f7fd63"/>
  <rect x="32" y="13" width="1" height="1" fill="#e7f6fc63"/>
  <rect x="33" y="13" width="8" height="1" fill="#e9f5fc63"/>
  <rect x="41" y="13" width="2" height="1" fill="#e7f6fc63"/>
  <rect x="43" y="13" width="5" height="1" fill="#e5f7fc63"/>
  <rect x="48" y="13" width="2" height="1" fill="#e7f8fd63"/>
  <rect x="0" y="14" width="12" height="1" fill="#edf6ff55"/>
  <rect x="12" y="14" width="2" height="1" fill="#edf7ff55"/>
  <rect x="14" y="14" width="1" height="1" fill="#eff9ff55"/>
  <rect x="15" y="14" width="3" height="1" fill="#ecf9fe55"/>
  <rect x="18" y="14" width="1" height="1" fill="#edfaff55"/>
  <rect x="19" y="14" width="9" height="1" fill="#ecfbff55"/>
  <rect x="28" y="14" width="4" height="1" fill="#edfaff55"/>
  <rect x="32" y="14" width="1" height="1" fill="#ecf9fe55"/>
  <rect x="33" y="14" width="8" height="1" fill="#eef8fe55"/>
  <rect x="41" y="14" width="1" height="1" fill="#ecf9fe55"/>
  <rect x="42" y="14" width="6" height="1" fill="#ebfafe55"/>
  <rect x="48" y="14" width="2" height="1" fill="#ecfbff55"/>
  <rect x="0" y="15" width="11" height="1" fill="#f0f5ff47"/>
  <rect x="11" y="15" width="1" height="1" fill="#f0f5fd47"/>
  <rect x="12" y="15" width="1" height="1" fill="#eef6fd47"/>
  <rect x="13" y="15" width="1" height="1" fill="#f0f9ff47"/>
  <rect x="14" y="15" width="1" height="1" fill="#f2faff47"/>
  <rect x="15" y="15" width="1" height="1" fill="#f2fafe47"/>
  <rect x="16" y="15" width="3" height="1" fill="#f0fbfe47"/>
  <rect x="19" y="15" width="13" height="1" fill="#f1fcff47"/>
  <rect x="32" y="15" width="1" height="1" fill="#f0fbfe47"/>
  <rect x="33" y="15" width="8" height="1" fill="#f2fafe47"/>
  <rect x="41" y="15" width="2" height="1" fill="#f0fbfe47"/>
  <rect x="43" y="15" width="2" height="1" fill="#eefcfe47"/>
  <rect x="45" y="15" width="3" height="1" fill="#f0fbfe47"/>
  <rect x="48" y="15" width="2" height="1" fill="#f1fcff47"/>
  <rect x="0" y="16" width="13" height="1" fill="#f7fbfe3a"/>
  <rect x="13" y="16" width="1" height="1" fill="#f6faff3a"/>
  <rect x="14" y="16" width="1" height="1" fill="#f5f8fe3a"/>
  <rect x="15" y="16" width="2" height="1" fill="#f6fafd3a"/>
  <rect x="17" y="16" width="10" height="1" fill="#f7fbfe3a"/>
  <rect x="27" y="16" width="18" height="1" fill="#f6fcfe3a"/>
  <rect x="45" y="16" width="5" height="1" fill="#f7fbfe3a"/>
  <rect x="0" y="17" width="12" height="1" fill="#f9fbfc2e"/>
  <rect x="12" y="17" width="2" height="1" fill="#f9fafe2e"/>
  <rect x="14" y="17" width="1" height="1" fill="#f8f9fd2e"/>
  <rect x="15" y="17" width="5" height="1" fill="#f9fafe2e"/>
  <rect x="20" y="17" width="8" height="1" fill="#f9fbfc2e"/>
  <rect x="28" y="17" width="4" height="1" fill="#f7fcfc2e"/>
  <rect x="32" y="17" width="10" height="1" fill="#f6fcfc2e"/>
  <rect x="42" y="17" width="2" height="1" fill="#f7fcfc2e"/>
  <rect x="44" y="17" width="6" height="1" fill="#f9fbfc2e"/>
  <rect x="0" y="18" width="14" height="1" fill="#f9fbfc22"/>
  <rect x="14" y="18" width="1" height="1" fill="#f8fafb22"/>
  <rect x="15" y="18" width="13" height="1" fill="#f9fbfc22"/>
  <rect x="28" y="18" width="16" height="1" fill="#f7fcfc22"/>
  <rect x="44" y="18" width="6" height="1" fill="#f9fbfc22"/>
  <rect x="0" y="19" width="28" height="1" fill="#f9fbfc18"/>
  <rect x="28" y="19" width="16" height="1" fill="#f7fcfc18"/>
  <rect x="44" y="19" width="6" height="1" fill="#f9fbfc18"/>
  <rect x="0" y="20" width="28" height="1" fill="#ffffff0f"/>
  <rect x="28" y="20" width="4" height="1" fill="#fdffff0f"/>
  <rect x="32" y="20" width="4" height="1" fill="#ffffff0f"/>
  <rect x="36" y="20" width="2" height="1" fill="#fdffff0f"/>
  <rect x="38" y="20" width="4" height="1" fill="#ffffff0f"/>
  <rect x="42" y="20" width="2" height="1" fill="#fdffff0f"/>
  <rect x="44" y="20" width="6" height="1" fill="#ffffff0f"/>
</svg>