<svg xmlns="http://www.w3.org/2000/svg" width="16" height="16" viewBox="0 0 16 16" shape-rendering="crispEdges">
  <rect x="1" y="0" width="1" height="1" fill="#dadada21"/>
  <rect x="2" y="0" width="1" height="1" fill="#dadadab1"/>
  <rect x="3" y="0" width="1" height="1" fill="#dbdbdbed"/>
  <rect x="4" y="0" width="8" height="1" fill="#dbdbdb"/>
  <rect x="12" y="0" width="1" height="1" fill="#d7d7d7ed"/>
  <rect x="13" y="0" width="1" height="1" fill="#d6d6d6b1"/>
  <rect x="14" y="0" width="1" height="1" fill="#d6d6d621"/>
  <rect x="0" y="1" width="1" height="1" fill="#dadada2a"/>
  <rect x="1" y="1" width="1" height="1" fill="#dadadaf0"/>
  <rect x="2" y="1" width="1" height="1" fill="#efefef"/>
  <rect x="3" y="1" width="9" height="2" fill="#fdfdfd"/>
  <rect x="12" y="1" width="1" height="1" fill="#ffffff"/>
  <rect x="13" y="1" width="1" height="1" fill="#f1f1f1"/>
  <rect x="14" y="1" width="1" height="1" fill="#ddddddf0"/>
  <rect x="15" y="1" width="1" height="1" fill="#dddddd2a"/>
  <rect x="0" y="2" width="1" height="1" fill="#dadadab1"/>
  <rect x="1" y="2" width="1" height="1" fill="#eeeeee"/>
  <rect x="2" y="2" width="1" height="1" fill="#f7f7f7"/>
  <rect x="12" y="2" width="1" height="1" fill="#fefefe"/>
  <rect x="13" y="2" width="1" height="1" fill="#f8f8f8"/>
  <rect x="14" y="2" width="1" height="1" fill="#efefef"/>
  <rect x="15" y="2" width="1" height="1" fill="#dbdbdbb1"/>
  <rect x="0" y="3" width="1" height="1" fill="#dbdbdbf3"/>
  <rect x="1" y="3" width="2" height="9" fill="#fdfdfd"/>
  <rect x="3" y="3" width="10" height="1" fill="#fcfbfc"/>
  <rect x="13" y="3" width="2" height="1" fill="#fdfdfd"/>
  <rect x="15" y="3" width="1" height="1" fill="#dbdbdbf3"/>
  <rect x="0" y="4" width="1" height="8" fill="#dbdbdb"/>
  <rect x="3" y="4" width="1" height="8" fill="#fcfbfc"/>
  <rect x="4" y="4" width="10" height="8" fill="#ffffff"/>
  <rect x="14" y="4" width="1" height="8" fill="#fcfbfc"/>
  <rect x="15" y="4" width="1" height="8" fill="#d7d7d7"/>
  <rect x="0" y="12" width="1" height="1" fill="#d6d6d6f0"/>
  <rect x="1" y="12" width="11" height="1" fill="#ffffff"/>
  <rect x="12" y="12" width="1" height="1" fill="#fefefe"/>
  <rect x="13" y="12" width="2" height="1" fill="#ffffff"/>
  <rect x="15" y="12" width="1" height="1" fill="#d3d3d3f3"/>
  <rect x="0" y="13" width="1" height="1" fill="#dbdbdbae"/>
  <rect x="1" y="13" width="1" height="1" fill="#f0f0f0"/>
  <rect x="2" y="13" width="1" height="1" fill="#fafafa"/>
  <rect x="3" y="13" width="10" height="1" fill="#ffffff"/>
  <rect x="13" y="13" width="1" height="1" fill="#fcfbfc"/>
  <rect x="14" y="13" width="1" height="1" fill="#f0f0f0"/>
  <rect x="15" y="13" width="1" height="1" fill="#d7d7d7ae"/>
  <rect x="0" y="14" width="1" height="1" fill="#d7d7d72a"/>
  <rect x="1" y="14" width="1" height="1" fill="#dadadaed"/>
  <rect x="2" y="14" width="1" height="1" fill="#efefef"/>
  <rect x="3" y="14" width="1" height="1" fill="#fefefe"/>
  <rect x="4" y="14" width="3" height="1" fill="#ffffff"/>
  <rect x="7" y="14" width="2" height="1" fill="#fefefe"/>
  <rect x="9" y="14" width="3" height="1" fill="#fdfdfd"/>
  <rect x="12" y="14" width="1" height="1" fill="#ffffff"/>
  <rect x="13" y="14" width="1" height="1" fill="#eeeeee"/>
  <rect x="14" y="14" width="1" height="1" fill="#d7d7d7ed"/>
  <rect x="15" y="14" width="1" height="1" fill="#dcdcdc2a"/>
  <rect x="1" y="15" width="1" height="1" fill="#d7d7d71b"/>
  <rect x="2" y="15" width="1" height="1" fill="#d7d7d7ab"/>
  <rect x="3" y="15" width="1" height="1" fill="#d9d9d9e7"/>
  <rect x="4" y="15" width="3" height="1" fill="#dadada"/>
  <rect x="7" y="15" width="2" height="1" fill="#d9d9d9"/>
  <rect x="9" y="15" width="3" height="1" fill="#d7d7d7"/>
  <rect x="12" y="15" width="1" height="1" fill="#d9d9d9e7"/>
  <rect x="13" y="15" width="1" height="1" fill="#d7d7d7ab"/>
  <rect x="14" y="15" width="1" height="1" fill="#d7d7d71b"/>
</svg>