<svg xmlns="http://www.w3.org/2000/svg" width="120" height="120" viewBox="0 0 120 120" shape-rendering="crispEdges">
  <rect x="5" y="4" width="1" height="108" fill="#ffffff"/>
  <rect x="6" y="4" width="1" height="7" fill="#fcfbfc"/>
  <rect x="7" y="4" width="1" height="3" fill="#fefefe"/>
  <rect x="8" y="4" width="24" height="2" fill="#ffffff"/>
  <rect x="32" y="4" width="64" height="2" fill="#fefefe"/>
  <rect x="96" y="4" width="16" height="2" fill="#ffffff"/>
  <rect x="112" y="4" width="1" height="3" fill="#fdfdfd"/>
  <rect x="113" y="4" width="1" height="4" fill="#fafafa"/>
  <rect x="114" y="4" width="1" height="108" fill="#ffffff"/>
  <rect x="4" y="5" width="1" height="1" fill="#0202020e"/>
  <rect x="115" y="5" width="1" height="1" fill="#0101010e"/>
  <rect x="4" y="6" width="1" height="1" fill="#02020213"/>
  <rect x="8" y="6" width="4" height="1" fill="#ffffff"/>
  <rect x="12" y="6" width="4" height="1" fill="#fefefe"/>
  <rect x="16" y="6" width="2" height="1" fill="#ffffff"/>
  <rect x="18" y="6" width="14" height="1" fill="#fefefe"/>
  <rect x="32" y="6" width="16" height="1" fill="#fdfdfd"/>
  <rect x="48" y="6" width="64" height="1" fill="#fefefe"/>
  <rect x="115" y="6" width="1" height="1" fill="#01010113"/>
  <rect x="4" y="7" width="1" height="4" fill="#02020215"/>
  <rect x="7" y="7" width="4" height="1" fill="#fefefe"/>
  <rect x="11" y="7" width="3" height="1" fill="#fdfdfd"/>
  <rect x="14" y="7" width="2" height="1" fill="#fefefe"/>
  <rect x="16" y="7" width="16" height="1" fill="#fdfdfd"/>
  <rect x="32" y="7" width="14" height="1" fill="#fcfbfc"/>
  <rect x="46" y="7" width="4" height="1" fill="#fdfdfd"/>
  <rect x="50" y="7" width="46" height="1" fill="#fefefe"/>
  <rect x="96" y="7" width="8" height="1" fill="#fcfbfc"/>
  <rect x="104" y="7" width="9" height="1" fill="#fdfdfd"/>
  <rect x="115" y="7" width="1" height="1" fill="#01010115"/>
  <rect x="7" y="8" width="1" height="3" fill="#fefefe"/>
  <rect x="8" y="8" width="3" height="1" fill="#fdfdfd"/>
  <rect x="11" y="8" width="2" height="1" fill="#fcfbfc"/>
  <rect x="13" y="8" width="1" height="1" fill="#fafafa"/>
  <rect x="14" y="8" width="2" height="1" fill="#f9f9f9"/>
  <rect x="16" y="8" width="14" height="1" fill="#fafafa"/>
  <rect x="30" y="8" width="2" height="1" fill="#f9f9f9"/>
  <rect x="32" y="8" width="2" height="1" fill="#fafafa"/>
  <rect x="34" y="8" width="12" height="1" fill="#f9f9f9"/>
  <rect x="46" y="8" width="4" height="1" fill="#f8f8f8"/>
  <rect x="50" y="8" width="46" height="1" fill="#f7f7f7"/>
  <rect x="96" y="8" width="6" height="1" fill="#f9f9f9"/>
  <rect x="102" y="8" width="4" height="1" fill="#fafafa"/>
  <rect x="106" y="8" width="6" height="1" fill="#fcfbfc"/>
  <rect x="112" y="8" width="1" height="8" fill="#fefefe"/>
  <rect x="113" y="8" width="1" height="8" fill="#fcfbfc"/>
  <rect x="115" y="8" width="1" height="8" fill="#02020215"/>
  <rect x="8" y="9" width="2" height="2" fill="#fcfbfc"/>
  <rect x="110" y="9" width="2" height="1" fill="#fafafa"/>
  <rect x="110" y="10" width="2" height="3" fill="#f9f9f9"/>
  <rect x="4" y="11" width="1" height="2" fill="#01010115"/>
  <rect x="6" y="11" width="1" height="2" fill="#fafafa"/>
  <rect x="7" y="11" width="1" height="2" fill="#fdfdfd"/>
  <rect x="8" y="11" width="2" height="2" fill="#fafafa"/>
  <rect x="4" y="13" width="1" height="1" fill="#00000015"/>
  <rect x="6" y="13" width="1" height="1" fill="#f9f9f9"/>
  <rect x="7" y="13" width="1" height="1" fill="#fcfbfc"/>
  <rect x="8" y="13" width="2" height="3" fill="#f9f9f9"/>
  <rect x="110" y="13" width="1" height="2" fill="#f8f8f8"/>
  <rect x="111" y="13" width="1" height="2" fill="#fafafa"/>
  <rect x="4" y="14" width="1" height="4" fill="#01010115"/>
  <rect x="6" y="14" width="1" height="4" fill="#fafafa"/>
  <rect x="7" y="14" width="1" height="4" fill="#fdfdfd"/>
  <rect x="110" y="15" width="1" height="2" fill="#f7f7f7"/>
  <rect x="111" y="15" width="1" height="2" fill="#fcfbfc"/>
  <rect x="8" y="16" width="2" height="93" fill="#fafafa"/>
  <rect x="112" y="16" width="1" height="1" fill="#fdfdfd"/>
  <rect x="113" y="16" width="1" height="96" fill="#fafafa"/>
  <rect x="115" y="16" width="1" height="96" fill="#01010115"/>
  <rect x="110" y="17" width="1" height="2" fill="#f6f6f6"/>
  <rect x="111" y="17" width="2" height="2" fill="#fdfdfd"/>
  <rect x="4" y="18" width="1" height="94" fill="#02020215"/>
  <rect x="6" y="18" width="1" height="94" fill="#fcfbfc"/>
  <rect x="7" y="18" width="1" height="94" fill="#fefefe"/>
  <rect x="110" y="19" width="1" height="89" fill="#f5f5f5"/>
  <rect x="111" y="19" width="1" height="89" fill="#fefefe"/>
  <rect x="112" y="19" width="1" height="93" fill="#fdfdfd"/>
  <rect x="110" y="108" width="2" height="1" fill="#f9f9f9"/>
  <rect x="8" y="109" width="6" height="1" fill="#fafafa"/>
  <rect x="14" y="109" width="2" height="1" fill="#f9f9f9"/>
  <rect x="16" y="109" width="2" height="1" fill="#f8f8f8"/>
  <rect x="18" y="109" width="2" height="1" fill="#f7f7f7"/>
  <rect x="20" y="109" width="83" height="1" fill="#f8f8f8"/>
  <rect x="103" y="109" width="5" height="1" fill="#f7f7f7"/>
  <rect x="108" y="109" width="4" height="1" fill="#fafafa"/>
  <rect x="8" y="110" width="8" height="1" fill="#fafafa"/>
  <rect x="16" y="110" width="93" height="1" fill="#ffffff"/>
  <rect x="109" y="110" width="3" height="1" fill="#fefefe"/>
  <rect x="8" y="111" width="6" height="1" fill="#fafafa"/>
  <rect x="14" y="111" width="2" height="1" fill="#fcfbfc"/>
  <rect x="16" y="111" width="2" height="1" fill="#fdfdfd"/>
  <rect x="18" y="111" width="2" height="1" fill="#fefefe"/>
  <rect x="20" y="111" width="83" height="1" fill="#ffffff"/>
  <rect x="103" y="111" width="5" height="1" fill="#fefefe"/>
  <rect x="108" y="111" width="4" height="1" fill="#ffffff"/>
  <rect x="4" y="112" width="1" height="1" fill="#00000015"/>
  <rect x="5" y="112" width="1" height="1" fill="#fefefe"/>
  <rect x="6" y="112" width="1" height="1" fill="#ffffff"/>
  <rect x="7" y="112" width="1" height="1" fill="#fdfdfd"/>
  <rect x="8" y="112" width="8" height="1" fill="#fefefe"/>
  <rect x="16" y="112" width="96" height="1" fill="#ffffff"/>
  <rect x="112" y="112" width="1" height="1" fill="#fcfbfc"/>
  <rect x="113" y="112" width="1" height="1" fill="#fefefe"/>
  <rect x="114" y="112" width="1" height="1" fill="#f1f1f1"/>
  <rect x="115" y="112" width="1" height="1" fill="#00000015"/>
  <rect x="4" y="113" width="1" height="1" fill="#05050513"/>
  <rect x="5" y="113" width="2" height="1" fill="#ffffff"/>
  <rect x="7" y="113" width="1" height="1" fill="#fcfbfc"/>
  <rect x="8" y="113" width="106" height="1" fill="#ffffff"/>
  <rect x="114" y="113" width="1" height="1" fill="#fcfbfc"/>
  <rect x="115" y="113" width="1" height="1" fill="#03030313"/>
  <rect x="4" y="114" width="1" height="1" fill="#0000000e"/>
  <rect x="5" y="114" width="1" height="1" fill="#0303031c"/>
  <rect x="6" y="114" width="1" height="1" fill="#00000026"/>
  <rect x="7" y="114" width="1" height="1" fill="#0000002b"/>
  <rect x="8" y="114" width="8" height="1" fill="#0101012b"/>
  <rect x="16" y="114" width="96" height="1" fill="#0202022b"/>
  <rect x="112" y="114" width="1" height="1" fill="#0000002b"/>
  <rect x="113" y="114" width="1" height="1" fill="#05050526"/>
  <rect x="114" y="114" width="1" height="1" fill="#0101011c"/>
  <rect x="115" y="114" width="1" height="1" fill="#0000000e"/>
  <rect x="5" y="115" width="1" height="1" fill="#0000000e"/>
  <rect x="6" y="115" width="1" height="1" fill="#00000013"/>
  <rect x="7" y="115" width="1" height="1" fill="#08080815"/>
  <rect x="8" y="115" width="105" height="1" fill="#00000015"/>
  <rect x="113" y="115" width="1" height="1" fill="#03030313"/>
  <rect x="114" y="115" width="1" height="1" fill="#0303030e"/>
</svg>