<svg xmlns="http://www.w3.org/2000/svg" width="84" height="42" viewBox="0 0 84 42" shape-rendering="crispEdges">
  <rect x="0" y="0" width="1" height="1" fill="#7a4e9b"/>
  <rect x="1" y="0" width="1" height="1" fill="#caabea"/>
  <rect x="2" y="0" width="1" height="1" fill="#bab4d9"/>
  <rect x="3" y="0" width="1" height="1" fill="#b6c3d7"/>
  <rect x="4" y="0" width="1" height="1" fill="#aec1d6"/>
  <rect x="5" y="0" width="1" height="1" fill="#aec2d4"/>
  <rect x="6" y="0" width="1" height="1" fill="#b6bfce"/>
  <rect x="7" y="0" width="1" height="1" fill="#b7becc"/>
  <rect x="8" y="0" width="1" height="1" fill="#b3c0ce"/>
  <rect x="9" y="0" width="3" height="1" fill="#b1c1ce"/>
  <rect x="12" y="0" width="4" height="1" fill="#b1c1d0"/>
  <rect x="16" y="0" width="4" height="1" fill="#b2c2d1"/>
  <rect x="20" y="0" width="2" height="1" fill="#b2c2d3"/>
  <rect x="22" y="0" width="4" height="1" fill="#b2c2d1"/>
  <rect x="26" y="0" width="13" height="1" fill="#b2c2cf"/>
  <rect x="39" y="0" width="1" height="1" fill="#bdbadd"/>
  <rect x="40" y="0" width="1" height="1" fill="#d8aefe"/>
  <rect x="41" y="0" width="1" height="1" fill="#8c4fad"/>
  <rect x="42" y="0" width="1" height="1" fill="#82478f"/>
  <rect x="43" y="0" width="1" height="1" fill="#b98bbb"/>
  <rect x="44" y="0" width="1" height="1" fill="#a48fa3"/>
  <rect x="45" y="0" width="1" height="1" fill="#9c9599"/>
  <rect x="46" y="0" width="1" height="1" fill="#9e9495"/>
  <rect x="47" y="0" width="1" height="1" fill="#9c9693"/>
  <rect x="48" y="0" width="1" height="1" fill="#999997"/>
  <rect x="49" y="0" width="11" height="1" fill="#979a97"/>
  <rect x="60" y="0" width="8" height="1" fill="#999999"/>
  <rect x="68" y="0" width="11" height="1" fill="#9a979b"/>
  <rect x="79" y="0" width="1" height="1" fill="#9a96a1"/>
  <rect x="80" y="0" width="1" height="1" fill="#a19db3"/>
  <rect x="81" y="0" width="1" height="1" fill="#9a8cae"/>
  <rect x="82" y="0" width="1" height="1" fill="#ad88b7"/>
  <rect x="83" y="0" width="1" height="1" fill="#85568a"/>
  <rect x="0" y="1" width="1" height="1" fill="#caabea"/>
  <rect x="1" y="1" width="1" height="1" fill="#e4cfff"/>
  <rect x="2" y="1" width="1" height="1" fill="#faf8ff"/>
  <rect x="3" y="1" width="1" height="1" fill="#fbffff"/>
  <rect x="4" y="1" width="1" height="1" fill="#f2ffff"/>
  <rect x="5" y="1" width="1" height="1" fill="#f4ffff"/>
  <rect x="6" y="1" width="1" height="1" fill="#f9ffff"/>
  <rect x="7" y="1" width="1" height="1" fill="#faffff"/>
  <rect x="8" y="1" width="1" height="1" fill="#f7ffff"/>
  <rect x="9" y="1" width="7" height="1" fill="#f5ffff"/>
  <rect x="16" y="1" width="22" height="1" fill="#f7ffff"/>
  <rect x="38" y="1" width="1" height="1" fill="#f5ffff"/>
  <rect x="39" y="1" width="1" height="1" fill="#fdfdff"/>
  <rect x="40" y="1" width="1" height="1" fill="#e4c7ff"/>
  <rect x="41" y="1" width="1" height="1" fill="#d9acf9"/>
  <rect x="42" y="1" width="1" height="1" fill="#b387c1"/>
  <rect x="43" y="1" width="1" height="1" fill="#dab9dd"/>
  <rect x="44" y="1" width="1" height="1" fill="#fff9ff"/>
  <rect x="45" y="1" width="1" height="1" fill="#fffdff"/>
  <rect x="46" y="1" width="1" height="1" fill="#fffcfe"/>
  <rect x="47" y="1" width="1" height="1" fill="#fffdfc"/>
  <rect x="48" y="1" width="1" height="1" fill="#fffffd"/>
  <rect x="49" y="1" width="11" height="1" fill="#fdfffd"/>
  <rect x="60" y="1" width="8" height="1" fill="#ffffff"/>
  <rect x="68" y="1" width="13" height="1" fill="#fffeff"/>
  <rect x="81" y="1" width="1" height="1" fill="#fbf2ff"/>
  <rect x="82" y="1" width="1" height="1" fill="#d5bbdd"/>
  <rect x="83" y="1" width="1" height="1" fill="#b894bb"/>
  <rect x="0" y="2" width="1" height="1" fill="#bab4d9"/>
  <rect x="1" y="2" width="1" height="1" fill="#faf8ff"/>
  <rect x="2" y="2" width="1" height="1" fill="#fcffff"/>
  <rect x="3" y="2" width="1" height="1" fill="#feffff"/>
  <rect x="4" y="2" width="2" height="1" fill="#fbffff"/>
  <rect x="6" y="2" width="2" height="1" fill="#fbfffe"/>
  <rect x="8" y="2" width="1" height="1" fill="#fbffff"/>
  <rect x="9" y="2" width="1" height="1" fill="#f9ffff"/>
  <rect x="10" y="2" width="2" height="1" fill="#fbffff"/>
  <rect x="12" y="2" width="4" height="1" fill="#fbfeff"/>
  <rect x="16" y="2" width="21" height="1" fill="#fcffff"/>
  <rect x="37" y="2" width="1" height="1" fill="#faffff"/>
  <rect x="38" y="2" width="1" height="1" fill="#f9ffff"/>
  <rect x="39" y="2" width="1" height="2" fill="#faffff"/>
  <rect x="40" y="2" width="1" height="1" fill="#fcf8ff"/>
  <rect x="41" y="2" width="1" height="1" fill="#c2b6e3"/>
  <rect x="42" y="2" width="1" height="1" fill="#9789a7"/>
  <rect x="43" y="2" width="1" height="1" fill="#fffaff"/>
  <rect x="44" y="2" width="1" height="1" fill="#ffffff"/>
  <rect x="45" y="2" width="1" height="1" fill="#fdffff"/>
  <rect x="46" y="2" width="34" height="1" fill="#ffffff"/>
  <rect x="80" y="2" width="1" height="1" fill="#f6f8fc"/>
  <rect x="81" y="2" width="1" height="1" fill="#ffffff"/>
  <rect x="82" y="2" width="1" height="1" fill="#fffbff"/>
  <rect x="83" y="2" width="1" height="1" fill="#a497a2"/>
  <rect x="0" y="3" width="1" height="1" fill="#b6c3d7"/>
  <rect x="1" y="3" width="1" height="1" fill="#fbffff"/>
  <rect x="2" y="3" width="1" height="1" fill="#feffff"/>
  <rect x="3" y="3" width="1" height="1" fill="#ffffff"/>
  <rect x="4" y="3" width="2" height="1" fill="#fffdff"/>
  <rect x="6" y="3" width="1" height="1" fill="#fefefe"/>
  <rect x="7" y="3" width="1" height="1" fill="#fcfffc"/>
  <rect x="8" y="3" width="2" height="1" fill="#fefefc"/>
  <rect x="10" y="3" width="1" height="1" fill="#fffdfc"/>
  <rect x="11" y="3" width="5" height="1" fill="#fffdfe"/>
  <rect x="16" y="3" width="11" height="1" fill="#fffeff"/>
  <rect x="27" y="3" width="10" height="1" fill="#fffffd"/>
  <rect x="37" y="3" width="1" height="1" fill="#ffffff"/>
  <rect x="38" y="3" width="1" height="1" fill="#fdffff"/>
  <rect x="40" y="3" width="1" height="1" fill="#f4fcff"/>
  <rect x="41" y="3" width="1" height="1" fill="#b5bcd3"/>
  <rect x="42" y="3" width="1" height="1" fill="#9ea0ad"/>
  <rect x="43" y="3" width="1" height="1" fill="#fbfeff"/>
  <rect x="44" y="3" width="2" height="1" fill="#f6fffe"/>
  <rect x="46" y="3" width="1" height="1" fill="#fcfeff"/>
  <rect x="47" y="3" width="1" height="1" fill="#fffcff"/>
  <rect x="48" y="3" width="1" height="1" fill="#ffffff"/>
  <rect x="49" y="3" width="11" height="1" fill="#fdfffd"/>
  <rect x="60" y="3" width="8" height="1" fill="#ffffff"/>
  <rect x="68" y="3" width="10" height="1" fill="#fffeff"/>
  <rect x="78" y="3" width="3" height="1" fill="#ffffff"/>
  <rect x="81" y="3" width="1" height="1" fill="#fcfbfc"/>
  <rect x="82" y="3" width="1" height="3" fill="#ffffff"/>
  <rect x="83" y="3" width="1" height="1" fill="#999797"/>
  <rect x="0" y="4" width="1" height="1" fill="#aec1d6"/>
  <rect x="1" y="4" width="1" height="1" fill="#f2ffff"/>
  <rect x="2" y="4" width="1" height="2" fill="#fbffff"/>
  <rect x="3" y="4" width="1" height="2" fill="#fffdfe"/>
  <rect x="4" y="4" width="2" height="1" fill="#fffaff"/>
  <rect x="6" y="4" width="1" height="1" fill="#fffcff"/>
  <rect x="7" y="4" width="1" height="2" fill="#fefdff"/>
  <rect x="8" y="4" width="1" height="1" fill="#fffdfc"/>
  <rect x="9" y="4" width="3" height="2" fill="#fffdfa"/>
  <rect x="12" y="4" width="4" height="2" fill="#fffdfc"/>
  <rect x="16" y="4" width="4" height="2" fill="#fffefd"/>
  <rect x="20" y="4" width="2" height="2" fill="#fffdff"/>
  <rect x="22" y="4" width="4" height="2" fill="#fffefd"/>
  <rect x="26" y="4" width="11" height="2" fill="#fffefb"/>
  <rect x="37" y="4" width="1" height="2" fill="#fffefd"/>
  <rect x="38" y="4" width="1" height="2" fill="#fffdff"/>
  <rect x="39" y="4" width="1" height="1" fill="#fdffff"/>
  <rect x="40" y="4" width="1" height="1" fill="#f4ffff"/>
  <rect x="41" y="4" width="1" height="1" fill="#b4c0ca"/>
  <rect x="42" y="4" width="1" height="1" fill="#94989d"/>
  <rect x="43" y="4" width="1" height="13" fill="#ffffff"/>
  <rect x="44" y="4" width="1" height="2" fill="#fbfffc"/>
  <rect x="45" y="4" width="1" height="1" fill="#fcfffe"/>
  <rect x="46" y="4" width="1" height="1" fill="#fffbff"/>
  <rect x="47" y="4" width="1" height="1" fill="#fffaff"/>
  <rect x="48" y="4" width="1" height="1" fill="#fffeff"/>
  <rect x="49" y="4" width="1" height="3" fill="#fffffd"/>
  <rect x="50" y="4" width="6" height="4" fill="#fdfffd"/>
  <rect x="56" y="4" width="8" height="4" fill="#ffffff"/>
  <rect x="64" y="4" width="14" height="3" fill="#fffeff"/>
  <rect x="78" y="4" width="3" height="1" fill="#fffdff"/>
  <rect x="81" y="4" width="1" height="2" fill="#fff9ff"/>
  <rect x="83" y="4" width="1" height="1" fill="#99969b"/>
  <rect x="0" y="5" width="1" height="1" fill="#aec2d4"/>
  <rect x="1" y="5" width="1" height="1" fill="#f4ffff"/>
  <rect x="4" y="5" width="1" height="1" fill="#fffaff"/>
  <rect x="5" y="5" width="1" height="1" fill="#fff9ff"/>
  <rect x="6" y="5" width="1" height="1" fill="#fffbff"/>
  <rect x="8" y="5" width="1" height="1" fill="#fffcfe"/>
  <rect x="39" y="5" width="1" height="1" fill="#fffeff"/>
  <rect x="40" y="5" width="1" height="1" fill="#f6ffff"/>
  <rect x="41" y="5" width="1" height="1" fill="#b6c0ca"/>
  <rect x="42" y="5" width="1" height="1" fill="#96979d"/>
  <rect x="45" y="5" width="1" height="1" fill="#fefefc"/>
  <rect x="46" y="5" width="1" height="1" fill="#fffaff"/>
  <rect x="47" y="5" width="1" height="1" fill="#fff9ff"/>
  <rect x="48" y="5" width="1" height="1" fill="#fffdff"/>
  <rect x="78" y="5" width="1" height="1" fill="#fffdff"/>
  <rect x="79" y="5" width="1" height="1" fill="#fffcff"/>
  <rect x="80" y="5" width="1" height="1" fill="#fffbff"/>
  <rect x="83" y="5" width="1" height="1" fill="#96979b"/>
  <rect x="0" y="6" width="1" height="1" fill="#b4c0ce"/>
  <rect x="1" y="6" width="1" height="1" fill="#f7ffff"/>
  <rect x="2" y="6" width="1" height="2" fill="#fbfffe"/>
  <rect x="3" y="6" width="1" height="1" fill="#fefefc"/>
  <rect x="4" y="6" width="1" height="1" fill="#fffcff"/>
  <rect x="5" y="6" width="1" height="1" fill="#fffbff"/>
  <rect x="6" y="6" width="1" height="1" fill="#fefbff"/>
  <rect x="7" y="6" width="1" height="1" fill="#fefcff"/>
  <rect x="8" y="6" width="1" height="1" fill="#fefdff"/>
  <rect x="9" y="6" width="2" height="1" fill="#fffdfc"/>
  <rect x="11" y="6" width="5" height="1" fill="#fffdfe"/>
  <rect x="16" y="6" width="11" height="1" fill="#fffeff"/>
  <rect x="27" y="6" width="10" height="1" fill="#fffffd"/>
  <rect x="37" y="6" width="1" height="1" fill="#fffeff"/>
  <rect x="38" y="6" width="1" height="1" fill="#ffffff"/>
  <rect x="39" y="6" width="1" height="1" fill="#fdffff"/>
  <rect x="40" y="6" width="1" height="1" fill="#f9fcff"/>
  <rect x="41" y="6" width="1" height="1" fill="#bbbbd4"/>
  <rect x="42" y="6" width="1" height="2" fill="#9994a3"/>
  <rect x="44" y="6" width="1" height="1" fill="#f9fffc"/>
  <rect x="45" y="6" width="1" height="1" fill="#fbfffc"/>
  <rect x="46" y="6" width="1" height="1" fill="#fffcff"/>
  <rect x="47" y="6" width="1" height="1" fill="#fffbff"/>
  <rect x="48" y="6" width="1" height="1" fill="#fffeff"/>
  <rect x="78" y="6" width="3" height="1" fill="#fffdff"/>
  <rect x="81" y="6" width="1" height="1" fill="#fafcff"/>
  <rect x="82" y="6" width="1" height="1" fill="#fbffff"/>
  <rect x="83" y="6" width="1" height="1" fill="#8e9c99"/>
  <rect x="0" y="7" width="1" height="1" fill="#b6bfcc"/>
  <rect x="1" y="7" width="1" height="1" fill="#f9ffff"/>
  <rect x="3" y="7" width="1" height="1" fill="#fcfffc"/>
  <rect x="4" y="7" width="2" height="1" fill="#fefdff"/>
  <rect x="6" y="7" width="1" height="1" fill="#fefcff"/>
  <rect x="7" y="7" width="2" height="1" fill="#fefdff"/>
  <rect x="9" y="7" width="3" height="1" fill="#fefefe"/>
  <rect x="12" y="7" width="4" height="1" fill="#fefdff"/>
  <rect x="16" y="7" width="21" height="1" fill="#ffffff"/>
  <rect x="37" y="7" width="2" height="1" fill="#fdffff"/>
  <rect x="39" y="7" width="1" height="1" fill="#fcffff"/>
  <rect x="40" y="7" width="1" height="1" fill="#fbfbff"/>
  <rect x="41" y="7" width="1" height="1" fill="#bcbad6"/>
  <rect x="44" y="7" width="2" height="1" fill="#fbfffc"/>
  <rect x="46" y="7" width="1" height="2" fill="#fffdfe"/>
  <rect x="47" y="7" width="1" height="5" fill="#fffcfe"/>
  <rect x="48" y="7" width="2" height="6" fill="#fffffd"/>
  <rect x="64" y="7" width="15" height="1" fill="#fffeff"/>
  <rect x="79" y="7" width="1" height="1" fill="#fffdff"/>
  <rect x="80" y="7" width="1" height="1" fill="#fffeff"/>
  <rect x="81" y="7" width="1" height="1" fill="#f8fdfe"/>
  <rect x="82" y="7" width="1" height="1" fill="#f9ffff"/>
  <rect x="83" y="7" width="1" height="1" fill="#8e9c97"/>
  <rect x="0" y="8" width="1" height="1" fill="#b3c0ce"/>
  <rect x="1" y="8" width="1" height="1" fill="#f7ffff"/>
  <rect x="2" y="8" width="1" height="1" fill="#fbffff"/>
  <rect x="3" y="8" width="1" height="2" fill="#fefefc"/>
  <rect x="4" y="8" width="1" height="1" fill="#fffdfc"/>
  <rect x="5" y="8" width="1" height="1" fill="#fffcfe"/>
  <rect x="6" y="8" width="2" height="1" fill="#fefdff"/>
  <rect x="8" y="8" width="4" height="4" fill="#fffdff"/>
  <rect x="12" y="8" width="4" height="4" fill="#fefefe"/>
  <rect x="16" y="8" width="4" height="7" fill="#ffffff"/>
  <rect x="20" y="8" width="18" height="3" fill="#fdffff"/>
  <rect x="38" y="8" width="1" height="3" fill="#fcffff"/>
  <rect x="39" y="8" width="1" height="4" fill="#faffff"/>
  <rect x="40" y="8" width="1" height="1" fill="#f9fdff"/>
  <rect x="41" y="8" width="1" height="1" fill="#b9bdce"/>
  <rect x="42" y="8" width="1" height="1" fill="#94989d"/>
  <rect x="44" y="8" width="1" height="1" fill="#fcfffa"/>
  <rect x="45" y="8" width="1" height="1" fill="#fefffa"/>
  <rect x="50" y="8" width="2" height="5" fill="#fdfffd"/>
  <rect x="52" y="8" width="29" height="1" fill="#ffffff"/>
  <rect x="81" y="8" width="1" height="2" fill="#fafcfc"/>
  <rect x="82" y="8" width="1" height="1" fill="#feffff"/>
  <rect x="83" y="8" width="1" height="1" fill="#949997"/>
  <rect x="0" y="9" width="1" height="3" fill="#b1c1ce"/>
  <rect x="1" y="9" width="1" height="7" fill="#f5ffff"/>
  <rect x="2" y="9" width="1" height="1" fill="#f9ffff"/>
  <rect x="4" y="9" width="2" height="3" fill="#fffdfa"/>
  <rect x="6" y="9" width="1" height="2" fill="#fffdfc"/>
  <rect x="7" y="9" width="1" height="3" fill="#fefefe"/>
  <rect x="40" y="9" width="1" height="5" fill="#f7feff"/>
  <rect x="41" y="9" width="1" height="4" fill="#b7becc"/>
  <rect x="42" y="9" width="1" height="4" fill="#93999b"/>
  <rect x="44" y="9" width="1" height="3" fill="#fefff8"/>
  <rect x="45" y="9" width="1" height="1" fill="#fffefa"/>
  <rect x="46" y="9" width="1" height="3" fill="#fffdfc"/>
  <rect x="52" y="9" width="28" height="1" fill="#ffffff"/>
  <rect x="80" y="9" width="1" height="1" fill="#fdffff"/>
  <rect x="82" y="9" width="1" height="8" fill="#ffffff"/>
  <rect x="83" y="9" width="1" height="5" fill="#979797"/>
  <rect x="2" y="10" width="1" height="2" fill="#fbffff"/>
  <rect x="3" y="10" width="1" height="1" fill="#fffdfc"/>
  <rect x="45" y="10" width="1" height="2" fill="#fffef8"/>
  <rect x="52" y="10" width="29" height="2" fill="#ffffff"/>
  <rect x="81" y="10" width="1" height="3" fill="#fcfbfc"/>
  <rect x="3" y="11" width="1" height="5" fill="#fffdfe"/>
  <rect x="6" y="11" width="1" height="5" fill="#fffdfe"/>
  <rect x="20" y="11" width="19" height="1" fill="#fdffff"/>
  <rect x="0" y="12" width="1" height="4" fill="#b1c1d0"/>
  <rect x="2" y="12" width="1" height="4" fill="#fbfeff"/>
  <rect x="4" y="12" width="2" height="4" fill="#fffdfc"/>
  <rect x="7" y="12" width="1" height="4" fill="#fefdff"/>
  <rect x="8" y="12" width="8" height="4" fill="#fefefe"/>
  <rect x="20" y="12" width="12" height="3" fill="#fdffff"/>
  <rect x="32" y="12" width="6" height="3" fill="#ffffff"/>
  <rect x="38" y="12" width="1" height="4" fill="#fdffff"/>
  <rect x="39" y="12" width="1" height="8" fill="#fcffff"/>
  <rect x="44" y="12" width="1" height="4" fill="#fffefa"/>
  <rect x="45" y="12" width="1" height="4" fill="#fffdfa"/>
  <rect x="46" y="12" width="2" height="1" fill="#fffcfe"/>
  <rect x="52" y="12" width="4" height="4" fill="#ffffff"/>
  <rect x="56" y="12" width="8" height="4" fill="#fffeff"/>
  <rect x="64" y="12" width="17" height="2" fill="#ffffff"/>
  <rect x="41" y="13" width="1" height="1" fill="#b7bece"/>
  <rect x="42" y="13" width="1" height="1" fill="#93999d"/>
  <rect x="46" y="13" width="1" height="3" fill="#fffcfe"/>
  <rect x="47" y="13" width="1" height="3" fill="#fffcff"/>
  <rect x="48" y="13" width="1" height="3" fill="#fffeff"/>
  <rect x="49" y="13" width="2" height="3" fill="#fffffd"/>
  <rect x="51" y="13" width="1" height="3" fill="#fdfffd"/>
  <rect x="81" y="13" width="1" height="2" fill="#fdfdfd"/>
  <rect x="40" y="14" width="1" height="2" fill="#f7ffff"/>
  <rect x="41" y="14" width="1" height="4" fill="#b6bfce"/>
  <rect x="42" y="14" width="1" height="2" fill="#91979c"/>
  <rect x="64" y="14" width="16" height="2" fill="#ffffff"/>
  <rect x="80" y="14" width="1" height="1" fill="#fefefe"/>
  <rect x="83" y="14" width="1" height="4" fill="#999999"/>
  <rect x="16" y="15" width="22" height="1" fill="#ffffff"/>
  <rect x="80" y="15" width="2" height="2" fill="#fefefe"/>
  <rect x="0" y="16" width="1" height="4" fill="#b2c2d1"/>
  <rect x="1" y="16" width="1" height="22" fill="#f7ffff"/>
  <rect x="2" y="16" width="1" height="20" fill="#fcffff"/>
  <rect x="3" y="16" width="1" height="11" fill="#fffeff"/>
  <rect x="4" y="16" width="2" height="4" fill="#fffefd"/>
  <rect x="6" y="16" width="1" height="11" fill="#fffeff"/>
  <rect x="7" y="16" width="5" height="4" fill="#ffffff"/>
  <rect x="12" y="16" width="3" height="4" fill="#fdfffd"/>
  <rect x="15" y="16" width="1" height="4" fill="#fffffd"/>
  <rect x="16" y="16" width="1" height="1" fill="#ffffff"/>
  <rect x="17" y="16" width="14" height="1" fill="#fffeff"/>
  <rect x="31" y="16" width="8" height="1" fill="#ffffff"/>
  <rect x="40" y="16" width="1" height="2" fill="#f8ffff"/>
  <rect x="42" y="16" width="1" height="2" fill="#90969b"/>
  <rect x="44" y="16" width="1" height="4" fill="#fffffb"/>
  <rect x="45" y="16" width="1" height="4" fill="#fffefb"/>
  <rect x="46" y="16" width="3" height="1" fill="#fffeff"/>
  <rect x="49" y="16" width="31" height="1" fill="#ffffff"/>
  <rect x="16" y="17" width="16" height="3" fill="#fffeff"/>
  <rect x="32" y="17" width="7" height="3" fill="#ffffff"/>
  <rect x="43" y="17" width="1" height="2" fill="#fffffe"/>
  <rect x="46" y="17" width="2" height="4" fill="#fffeff"/>
  <rect x="48" y="17" width="32" height="23" fill="#ffffff"/>
  <rect x="80" y="17" width="1" height="1" fill="#fefefe"/>
  <rect x="81" y="17" width="1" height="22" fill="#ffffff"/>
  <rect x="82" y="17" width="1" height="2" fill="#fefefe"/>
  <rect x="40" y="18" width="1" height="4" fill="#f9ffff"/>
  <rect x="41" y="18" width="1" height="3" fill="#b4c0ce"/>
  <rect x="42" y="18" width="1" height="3" fill="#8f959a"/>
  <rect x="80" y="18" width="1" height="18" fill="#fdfdfd"/>
  <rect x="83" y="18" width="1" height="21" fill="#9a9a9a"/>
  <rect x="43" y="19" width="1" height="1" fill="#fdffff"/>
  <rect x="82" y="19" width="1" height="20" fill="#fdfdfd"/>
  <rect x="0" y="20" width="1" height="2" fill="#b2c2d3"/>
  <rect x="4" y="20" width="2" height="2" fill="#fffdff"/>
  <rect x="7" y="20" width="1" height="16" fill="#ffffff"/>
  <rect x="8" y="20" width="7" height="12" fill="#fdffff"/>
  <rect x="15" y="20" width="1" height="11" fill="#ffffff"/>
  <rect x="16" y="20" width="23" height="2" fill="#fffeff"/>
  <rect x="39" y="20" width="1" height="2" fill="#fdffff"/>
  <rect x="43" y="20" width="1" height="2" fill="#ffffff"/>
  <rect x="44" y="20" width="2" height="2" fill="#fffefd"/>
  <rect x="41" y="21" width="1" height="2" fill="#b4bfd0"/>
  <rect x="42" y="21" width="1" height="2" fill="#8f959c"/>
  <rect x="46" y="21" width="1" height="1" fill="#fffeff"/>
  <rect x="47" y="21" width="1" height="1" fill="#fffdff"/>
  <rect x="0" y="22" width="1" height="4" fill="#b2c2d1"/>
  <rect x="4" y="22" width="2" height="4" fill="#fffefd"/>
  <rect x="16" y="22" width="16" height="1" fill="#fffeff"/>
  <rect x="32" y="22" width="7" height="1" fill="#ffffff"/>
  <rect x="39" y="22" width="1" height="3" fill="#fcffff"/>
  <rect x="40" y="22" width="1" height="2" fill="#f8ffff"/>
  <rect x="43" y="22" width="1" height="4" fill="#fdffff"/>
  <rect x="44" y="22" width="1" height="3" fill="#fffffd"/>
  <rect x="45" y="22" width="1" height="3" fill="#fffefd"/>
  <rect x="46" y="22" width="2" height="3" fill="#fffeff"/>
  <rect x="16" y="23" width="15" height="1" fill="#fffeff"/>
  <rect x="31" y="23" width="8" height="1" fill="#ffffff"/>
  <rect x="41" y="23" width="1" height="1" fill="#b3c0d0"/>
  <rect x="42" y="23" width="1" height="8" fill="#8d969c"/>
  <rect x="16" y="24" width="8" height="7" fill="#fffeff"/>
  <rect x="24" y="24" width="15" height="1" fill="#ffffff"/>
  <rect x="40" y="24" width="1" height="7" fill="#f6ffff"/>
  <rect x="41" y="24" width="1" height="3" fill="#b1c1d0"/>
  <rect x="24" y="25" width="1" height="6" fill="#ffffff"/>
  <rect x="25" y="25" width="7" height="1" fill="#fdffff"/>
  <rect x="32" y="25" width="7" height="1" fill="#ffffff"/>
  <rect x="39" y="25" width="1" height="3" fill="#faffff"/>
  <rect x="44" y="25" width="2" height="4" fill="#fffffd"/>
  <rect x="46" y="25" width="1" height="4" fill="#ffffff"/>
  <rect x="47" y="25" width="1" height="1" fill="#fffeff"/>
  <rect x="0" y="26" width="1" height="13" fill="#b2c2cf"/>
  <rect x="4" y="26" width="2" height="13" fill="#fffefb"/>
  <rect x="25" y="26" width="14" height="2" fill="#fdffff"/>
  <rect x="43" y="26" width="1" height="2" fill="#fcffff"/>
  <rect x="47" y="26" width="1" height="2" fill="#fdffff"/>
  <rect x="3" y="27" width="1" height="8" fill="#fffffd"/>
  <rect x="6" y="27" width="1" height="11" fill="#fffffd"/>
  <rect x="41" y="27" width="1" height="4" fill="#b3c0d0"/>
  <rect x="25" y="28" width="13" height="4" fill="#fdffff"/>
  <rect x="38" y="28" width="1" height="9" fill="#fcffff"/>
  <rect x="39" y="28" width="1" height="3" fill="#f9ffff"/>
  <rect x="43" y="28" width="1" height="4" fill="#fdffff"/>
  <rect x="47" y="28" width="1" height="1" fill="#fffeff"/>
  <rect x="44" y="29" width="1" height="3" fill="#fffffd"/>
  <rect x="45" y="29" width="1" height="3" fill="#fffefd"/>
  <rect x="46" y="29" width="2" height="3" fill="#fffeff"/>
  <rect x="15" y="31" width="2" height="1" fill="#ffffff"/>
  <rect x="17" y="31" width="6" height="1" fill="#fffeff"/>
  <rect x="23" y="31" width="2" height="1" fill="#ffffff"/>
  <rect x="39" y="31" width="1" height="1" fill="#faffff"/>
  <rect x="40" y="31" width="1" height="1" fill="#f8ffff"/>
  <rect x="41" y="31" width="1" height="1" fill="#b4bfd0"/>
  <rect x="42" y="31" width="1" height="1" fill="#8f959c"/>
  <rect x="8" y="32" width="4" height="4" fill="#fdffff"/>
  <rect x="12" y="32" width="8" height="4" fill="#ffffff"/>
  <rect x="20" y="32" width="2" height="5" fill="#fffeff"/>
  <rect x="22" y="32" width="4" height="5" fill="#ffffff"/>
  <rect x="26" y="32" width="12" height="4" fill="#fdffff"/>
  <rect x="39" y="32" width="1" height="2" fill="#fbffff"/>
  <rect x="40" y="32" width="1" height="2" fill="#f9ffff"/>
  <rect x="41" y="32" width="1" height="1" fill="#b5c0d1"/>
  <rect x="42" y="32" width="1" height="1" fill="#90969d"/>
  <rect x="43" y="32" width="1" height="7" fill="#ffffff"/>
  <rect x="44" y="32" width="2" height="1" fill="#fffefd"/>
  <rect x="46" y="32" width="1" height="1" fill="#fffeff"/>
  <rect x="47" y="32" width="1" height="1" fill="#fffdff"/>
  <rect x="41" y="33" width="1" height="4" fill="#b7bfd1"/>
  <rect x="42" y="33" width="1" height="4" fill="#92959d"/>
  <rect x="44" y="33" width="1" height="4" fill="#fffefd"/>
  <rect x="45" y="33" width="1" height="4" fill="#fffdfd"/>
  <rect x="46" y="33" width="2" height="4" fill="#fffdff"/>
  <rect x="39" y="34" width="2" height="2" fill="#fbffff"/>
  <rect x="3" y="35" width="1" height="1" fill="#fffeff"/>
  <rect x="2" y="36" width="1" height="2" fill="#faffff"/>
  <rect x="3" y="36" width="1" height="2" fill="#ffffff"/>
  <rect x="7" y="36" width="2" height="1" fill="#fdffff"/>
  <rect x="9" y="36" width="2" height="1" fill="#fcffff"/>
  <rect x="11" y="36" width="5" height="1" fill="#fdffff"/>
  <rect x="16" y="36" width="4" height="1" fill="#ffffff"/>
  <rect x="26" y="36" width="6" height="3" fill="#fdffff"/>
  <rect x="32" y="36" width="4" height="1" fill="#fcffff"/>
  <rect x="36" y="36" width="2" height="1" fill="#fdffff"/>
  <rect x="39" y="36" width="1" height="1" fill="#faffff"/>
  <rect x="40" y="36" width="1" height="3" fill="#fbffff"/>
  <rect x="80" y="36" width="1" height="4" fill="#fefcfd"/>
  <rect x="7" y="37" width="1" height="1" fill="#fdffff"/>
  <rect x="8" y="37" width="4" height="1" fill="#fcffff"/>
  <rect x="12" y="37" width="5" height="1" fill="#fdffff"/>
  <rect x="17" y="37" width="9" height="1" fill="#ffffff"/>
  <rect x="32" y="37" width="6" height="1" fill="#fcffff"/>
  <rect x="38" y="37" width="2" height="1" fill="#faffff"/>
  <rect x="41" y="37" width="1" height="2" fill="#b9bfd1"/>
  <rect x="42" y="37" width="1" height="2" fill="#93949d"/>
  <rect x="44" y="37" width="2" height="1" fill="#fffefd"/>
  <rect x="46" y="37" width="1" height="1" fill="#fffeff"/>
  <rect x="47" y="37" width="1" height="1" fill="#fffdff"/>
  <rect x="1" y="38" width="1" height="1" fill="#f5ffff"/>
  <rect x="2" y="38" width="1" height="1" fill="#f9ffff"/>
  <rect x="3" y="38" width="1" height="1" fill="#fdffff"/>
  <rect x="6" y="38" width="1" height="1" fill="#fdfffd"/>
  <rect x="7" y="38" width="2" height="1" fill="#fcffff"/>
  <rect x="9" y="38" width="1" height="1" fill="#faffff"/>
  <rect x="10" y="38" width="4" height="1" fill="#fcffff"/>
  <rect x="14" y="38" width="7" height="1" fill="#fdffff"/>
  <rect x="21" y="38" width="5" height="1" fill="#ffffff"/>
  <rect x="32" y="38" width="1" height="1" fill="#fcffff"/>
  <rect x="33" y="38" width="7" height="1" fill="#faffff"/>
  <rect x="44" y="38" width="2" height="1" fill="#fffffd"/>
  <rect x="46" y="38" width="2" height="1" fill="#fffeff"/>
  <rect x="0" y="39" width="1" height="1" fill="#bcbbdb"/>
  <rect x="1" y="39" width="1" height="1" fill="#fdfdff"/>
  <rect x="2" y="39" width="2" height="1" fill="#faffff"/>
  <rect x="4" y="39" width="1" height="1" fill="#fdffff"/>
  <rect x="5" y="39" width="1" height="1" fill="#ffffff"/>
  <rect x="6" y="39" width="2" height="1" fill="#fcffff"/>
  <rect x="8" y="39" width="6" height="1" fill="#faffff"/>
  <rect x="14" y="39" width="13" height="1" fill="#fcffff"/>
  <rect x="27" y="39" width="2" height="1" fill="#faffff"/>
  <rect x="29" y="39" width="2" height="1" fill="#fcffff"/>
  <rect x="31" y="39" width="7" height="1" fill="#faffff"/>
  <rect x="38" y="39" width="1" height="1" fill="#f9ffff"/>
  <rect x="39" y="39" width="1" height="1" fill="#fbffff"/>
  <rect x="40" y="39" width="1" height="1" fill="#fffeff"/>
  <rect x="41" y="39" width="1" height="1" fill="#c2b8db"/>
  <rect x="42" y="39" width="1" height="1" fill="#9d8da7"/>
  <rect x="43" y="39" width="1" height="1" fill="#fffbff"/>
  <rect x="44" y="39" width="1" height="1" fill="#fffdff"/>
  <rect x="45" y="39" width="1" height="1" fill="#fffffd"/>
  <rect x="46" y="39" width="1" height="1" fill="#ffffff"/>
  <rect x="47" y="39" width="1" height="1" fill="#fffeff"/>
  <rect x="81" y="39" width="1" height="1" fill="#fffeff"/>
  <rect x="82" y="39" width="1" height="1" fill="#fff7ff"/>
  <rect x="83" y="39" width="1" height="1" fill="#a592a6"/>
  <rect x="0" y="40" width="1" height="1" fill="#d1acf1"/>
  <rect x="1" y="40" width="1" height="1" fill="#ead1ff"/>
  <rect x="2" y="40" width="1" height="1" fill="#faf8ff"/>
  <rect x="3" y="40" width="3" height="1" fill="#f8ffff"/>
  <rect x="6" y="40" width="3" height="1" fill="#fbffff"/>
  <rect x="9" y="40" width="8" height="1" fill="#faffff"/>
  <rect x="17" y="40" width="3" height="1" fill="#fbffff"/>
  <rect x="20" y="40" width="2" height="1" fill="#faffff"/>
  <rect x="22" y="40" width="4" height="1" fill="#f8ffff"/>
  <rect x="26" y="40" width="3" height="1" fill="#f7ffff"/>
  <rect x="29" y="40" width="3" height="1" fill="#f8ffff"/>
  <rect x="32" y="40" width="7" height="1" fill="#faffff"/>
  <rect x="39" y="40" width="1" height="1" fill="#fffdff"/>
  <rect x="40" y="40" width="1" height="1" fill="#ecd2ff"/>
  <rect x="41" y="40" width="1" height="1" fill="#d7aef5"/>
  <rect x="42" y="40" width="1" height="1" fill="#b686c1"/>
  <rect x="43" y="40" width="1" height="1" fill="#e8c1ea"/>
  <rect x="44" y="40" width="1" height="1" fill="#fff6ff"/>
  <rect x="45" y="40" width="1" height="1" fill="#fcfbfc"/>
  <rect x="46" y="40" width="1" height="1" fill="#fdfcff"/>
  <rect x="47" y="40" width="1" height="1" fill="#fbfdff"/>
  <rect x="48" y="40" width="1" height="1" fill="#fdfcff"/>
  <rect x="49" y="40" width="1" height="1" fill="#fdfdfd"/>
  <rect x="50" y="40" width="30" height="1" fill="#fefefe"/>
  <rect x="80" y="40" width="1" height="1" fill="#f7f5f4"/>
  <rect x="81" y="40" width="1" height="1" fill="#fff7ff"/>
  <rect x="82" y="40" width="1" height="1" fill="#deb5e0"/>
  <rect x="83" y="40" width="1" height="1" fill="#ba82be"/>
  <rect x="0" y="41" width="1" height="1" fill="#905ab3"/>
  <rect x="1" y="41" width="1" height="1" fill="#d3aff4"/>
  <rect x="2" y="41" width="1" height="1" fill="#bfbad7"/>
  <rect x="3" y="41" width="1" height="1" fill="#b9c5cf"/>
  <rect x="4" y="41" width="1" height="1" fill="#b7c5d5"/>
  <rect x="5" y="41" width="1" height="1" fill="#b7c4d7"/>
  <rect x="6" y="41" width="1" height="1" fill="#bcc1d9"/>
  <rect x="7" y="41" width="1" height="1" fill="#bec1d7"/>
  <rect x="8" y="41" width="1" height="1" fill="#bcc3d1"/>
  <rect x="9" y="41" width="3" height="1" fill="#bcc3cf"/>
  <rect x="12" y="41" width="4" height="1" fill="#bac4d1"/>
  <rect x="16" y="41" width="3" height="1" fill="#bcc3cf"/>
  <rect x="19" y="41" width="1" height="1" fill="#bcc3d1"/>
  <rect x="20" y="41" width="2" height="1" fill="#bac3d3"/>
  <rect x="22" y="41" width="1" height="1" fill="#b9c4d3"/>
  <rect x="23" y="41" width="3" height="1" fill="#b7c5d3"/>
  <rect x="26" y="41" width="2" height="1" fill="#b6c6d3"/>
  <rect x="28" y="41" width="3" height="1" fill="#b7c5d3"/>
  <rect x="31" y="41" width="1" height="1" fill="#b9c5d1"/>
  <rect x="32" y="41" width="1" height="1" fill="#bac4cf"/>
  <rect x="33" y="41" width="6" height="1" fill="#bcc4cd"/>
  <rect x="39" y="41" width="1" height="1" fill="#c5bedc"/>
  <rect x="40" y="41" width="1" height="1" fill="#cba6ee"/>
  <rect x="41" y="41" width="1" height="1" fill="#8952a9"/>
  <rect x="42" y="41" width="1" height="1" fill="#894897"/>
  <rect x="43" y="41" width="1" height="1" fill="#ba86bc"/>
  <rect x="44" y="41" width="1" height="1" fill="#a292a3"/>
  <rect x="45" y="41" width="1" height="1" fill="#999999"/>
  <rect x="46" y="41" width="1" height="1" fill="#989a9c"/>
  <rect x="47" y="41" width="1" height="1" fill="#989a9e"/>
  <rect x="48" y="41" width="1" height="1" fill="#9a999c"/>
  <rect x="49" y="41" width="1" height="1" fill="#9a9a9a"/>
  <rect x="50" y="41" width="30" height="1" fill="#9b9b9b"/>
  <rect x="80" y="41" width="1" height="1" fill="#9c9a99"/>
  <rect x="81" y="41" width="1" height="1" fill="#ab96a8"/>
  <rect x="82" y="41" width="1" height="1" fill="#bf85c1"/>
  <rect x="83" y="41" width="1" height="1" fill="#994e9e"/>
</svg>