<svg xmlns="http://www.w3.org/2000/svg" width="16" height="16" viewBox="0 0 16 16" shape-rendering="crispEdges">
  <rect x="0" y="3" width="3" height="1" fill="#ffcd53"/>
  <rect x="3" y="3" width="2" height="1" fill="#fecc52"/>
  <rect x="5" y="3" width="1" height="1" fill="#fdca51"/>
  <rect x="7" y="3" width="1" height="1" fill="#fdcb4ff5"/>
  <rect x="8" y="3" width="2" height="1" fill="#fcca4e"/>
  <rect x="10" y="3" width="1" height="1" fill="#fcca4c"/>
  <rect x="11" y="3" width="1" height="1" fill="#fcca4cfa"/>
  <rect x="13" y="3" width="1" height="1" fill="#fcca4cf8"/>
  <rect x="14" y="3" width="1" height="1" fill="#fcca4c"/>
  <rect x="15" y="3" width="1" height="1" fill="#fcca4cfd"/>
  <rect x="1" y="4" width="1" height="1" fill="#ffcd4f59"/>
  <rect x="2" y="4" width="1" height="1" fill="#ffcd4f"/>
  <rect x="3" y="4" width="1" height="1" fill="#ffcc4e"/>
  <rect x="4" y="4" width="1" height="1" fill="#ffca4d52"/>
  <rect x="8" y="4" width="1" height="1" fill="#ffcb4977"/>
  <rect x="9" y="4" width="1" height="1" fill="#feca47"/>
  <rect x="10" y="4" width="1" height="1" fill="#ffcb49dd"/>
  <rect x="13" y="4" width="1" height="1" fill="#ffcc470b"/>
  <rect x="14" y="4" width="1" height="1" fill="#ffcc47d8"/>
  <rect x="15" y="4" width="1" height="1" fill="#ffcc4729"/>
  <rect x="2" y="5" width="1" height="1" fill="#ffcc4c"/>
  <rect x="3" y="5" width="1" height="1" fill="#ffcb4b"/>
  <rect x="9" y="5" width="1" height="1" fill="#feca45f1"/>
  <rect x="10" y="5" width="1" height="1" fill="#fecb43fb"/>
  <rect x="11" y="5" width="1" height="1" fill="#fecb430c"/>
  <rect x="13" y="5" width="1" height="1" fill="#fecb430d"/>
  <rect x="14" y="5" width="1" height="1" fill="#fecb43a3"/>
  <rect x="2" y="6" width="2" height="1" fill="#fec846"/>
  <rect x="9" y="6" width="1" height="1" fill="#fcc740af"/>
  <rect x="10" y="6" width="1" height="1" fill="#fcc740"/>
  <rect x="11" y="6" width="1" height="1" fill="#fcc73e4b"/>
  <rect x="13" y="6" width="1" height="1" fill="#fcc73e55"/>
  <rect x="14" y="6" width="1" height="1" fill="#fcc73e56"/>
  <rect x="2" y="7" width="2" height="1" fill="#ffc643"/>
  <rect x="9" y="7" width="1" height="1" fill="#fcc53d64"/>
  <rect x="10" y="7" width="1" height="1" fill="#fbc33e"/>
  <rect x="11" y="7" width="1" height="1" fill="#fec23e96"/>
  <rect x="13" y="7" width="1" height="1" fill="#fdc2429d"/>
  <rect x="14" y="7" width="1" height="1" fill="#f3c4520c"/>
  <rect x="2" y="8" width="1" height="1" fill="#fbb632"/>
  <rect x="3" y="8" width="1" height="1" fill="#ffb936"/>
  <rect x="9" y="8" width="1" height="1" fill="#f3ba301a"/>
  <rect x="10" y="8" width="1" height="1" fill="#f8b83a"/>
  <rect x="11" y="8" width="1" height="1" fill="#fcb237df"/>
  <rect x="13" y="8" width="1" height="1" fill="#f6af439e"/>
  <rect x="2" y="9" width="2" height="1" fill="#feb12e"/>
  <rect x="6" y="9" width="1" height="1" fill="#fbaf2c2d"/>
  <rect x="7" y="9" width="1" height="1" fill="#f8b02c"/>
  <rect x="10" y="9" width="1" height="1" fill="#fab435d2"/>
  <rect x="11" y="9" width="1" height="1" fill="#feb034"/>
  <rect x="12" y="9" width="1" height="1" fill="#ffae2c6f"/>
  <rect x="13" y="9" width="1" height="1" fill="#f6ae495b"/>
  <rect x="2" y="10" width="1" height="1" fill="#fdac2c"/>
  <rect x="3" y="10" width="1" height="1" fill="#ffad2e"/>
  <rect x="6" y="10" width="1" height="1" fill="#fdac2c84"/>
  <rect x="7" y="10" width="1" height="1" fill="#faae2a"/>
  <rect x="10" y="10" width="1" height="1" fill="#fab02a87"/>
  <rect x="11" y="10" width="1" height="1" fill="#fdaf28"/>
  <rect x="12" y="10" width="1" height="1" fill="#ffb027eb"/>
  <rect x="13" y="10" width="1" height="1" fill="#f0b1490e"/>
  <rect x="1" y="11" width="1" height="1" fill="#fca62623"/>
  <rect x="2" y="11" width="1" height="1" fill="#fea828"/>
  <rect x="3" y="11" width="1" height="1" fill="#ffaa2a"/>
  <rect x="4" y="11" width="1" height="1" fill="#ffaa2a21"/>
  <rect x="5" y="11" width="1" height="1" fill="#ffaa2a3b"/>
  <rect x="6" y="11" width="1" height="1" fill="#ffaa2af0"/>
  <rect x="7" y="11" width="1" height="1" fill="#fbab2d"/>
  <rect x="10" y="11" width="1" height="1" fill="#faae2a3c"/>
  <rect x="11" y="11" width="1" height="1" fill="#fdad24"/>
  <rect x="12" y="11" width="1" height="1" fill="#fdad24b3"/>
  <rect x="1" y="12" width="2" height="1" fill="#ffa822"/>
  <rect x="3" y="12" width="3" height="1" fill="#ffaa23"/>
  <rect x="6" y="12" width="1" height="1" fill="#ffab24"/>
  <rect x="7" y="12" width="1" height="1" fill="#faad31"/>
  <rect x="11" y="12" width="1" height="1" fill="#ffaa28f0"/>
  <rect x="12" y="12" width="1" height="1" fill="#ffab2a60"/>
</svg>