<svg xmlns="http://www.w3.org/2000/svg" width="50" height="50" viewBox="0 0 50 50" shape-rendering="crispEdges">
  <rect x="1" y="2" width="48" height="1" fill="#f5f7fb0e"/>
  <rect x="0" y="3" width="1" height="1" fill="#f5f7fb15"/>
  <rect x="1" y="3" width="48" height="1" fill="#f5f7fb17"/>
  <rect x="49" y="3" width="1" height="1" fill="#f5f7fb15"/>
  <rect x="0" y="4" width="50" height="1" fill="#f5f7fb20"/>
  <rect x="0" y="5" width="50" height="1" fill="#f5f7fb2b"/>
  <rect x="0" y="6" width="50" height="1" fill="#f5f7fb37"/>
  <rect x="0" y="7" width="50" height="1" fill="#f5f7fb43"/>
  <rect x="0" y="8" width="50" height="1" fill="#f5f7fb50"/>
  <rect x="0" y="9" width="50" height="1" fill="#f5f7fb5d"/>
  <rect x="0" y="10" width="50" height="1" fill="#f5f7fb6b"/>
  <rect x="0" y="11" width="50" height="1" fill="#f5f7fb79"/>
  <rect x="0" y="12" width="50" height="1" fill="#f5f7fb86"/>
  <rect x="0" y="13" width="50" height="1" fill="#f5f7fb94"/>
  <rect x="0" y="14" width="50" height="1" fill="#f5f7fba2"/>
  <rect x="0" y="15" width="50" height="1" fill="#f5f7fbaf"/>
  <rect x="0" y="16" width="50" height="1" fill="#f5f7fbbc"/>
  <rect x="0" y="17" width="50" height="1" fill="#f5f7fbc8"/>
  <rect x="0" y="18" width="50" height="1" fill="#f5f7fbd4"/>
  <rect x="0" y="19" width="50" height="1" fill="#f5f7fbdf"/>
  <rect x="0" y="20" width="50" height="1" fill="#f5f7fbe8"/>
  <rect x="0" y="21" width="50" height="1" fill="#f5f7fbf1"/>
  <rect x="0" y="22" width="50" height="1" fill="#f5f7fbf9"/>
  <rect x="0" y="23" width="50" height="23" fill="#f5f7fb"/>
  <rect x="0" y="46" width="1" height="1" fill="#f5f7fbe4"/>
  <rect x="1" y="46" width="48" height="2" fill="#f5f7fb"/>
  <rect x="49" y="46" width="1" height="1" fill="#f5f7fbe8"/>
  <rect x="0" y="47" width="1" height="1" fill="#f5f7fb75"/>
  <rect x="49" y="47" width="1" height="1" fill="#f5f7fb75"/>
  <rect x="1" y="48" width="1" height="1" fill="#f5f7fbe0"/>
  <rect x="2" y="48" width="46" height="1" fill="#f5f7fb"/>
  <rect x="48" y="48" width="1" height="1" fill="#f5f7fbe0"/>
  <rect x="2" y="49" width="1" height="1" fill="#f5f7fb75"/>
  <rect x="3" y="49" width="1" height="1" fill="#f5f7fbe6"/>
  <rect x="4" y="49" width="42" height="1" fill="#f5f7fb"/>
  <rect x="46" y="49" width="1" height="1" fill="#f5f7fbe6"/>
  <rect x="47" y="49" width="1" height="1" fill="#f5f7fb75"/>
</svg>