<svg xmlns="http://www.w3.org/2000/svg" width="374" height="56" viewBox="0 0 374 56" shape-rendering="crispEdges">
  <rect x="6" y="0" width="1" height="1" fill="#d5d6da27"/>
  <rect x="7" y="0" width="1" height="1" fill="#dee0e4af"/>
  <rect x="8" y="0" width="1" height="1" fill="#dadce0f1"/>
  <rect x="9" y="0" width="4" height="1" fill="#dadce0"/>
  <rect x="13" y="0" width="2" height="1" fill="#dcdde1"/>
  <rect x="15" y="0" width="2" height="1" fill="#dddee2"/>
  <rect x="17" y="0" width="2" height="1" fill="#dee0e4"/>
  <rect x="19" y="0" width="13" height="1" fill="#dfe1e5"/>
  <rect x="32" y="0" width="338" height="1" fill="#dee0e4"/>
  <rect x="370" y="0" width="1" height="1" fill="#dee0e4f1"/>
  <rect x="371" y="0" width="1" height="1" fill="#dee0e4af"/>
  <rect x="372" y="0" width="1" height="1" fill="#d9dbdf27"/>
  <rect x="5" y="1" width="1" height="1" fill="#d8dade2a"/>
  <rect x="6" y="1" width="1" height="1" fill="#d1d3d7f0"/>
  <rect x="7" y="1" width="1" height="1" fill="#e5e7eb"/>
  <rect x="8" y="1" width="6" height="1" fill="#f3f5f9"/>
  <rect x="14" y="1" width="4" height="1" fill="#f4f6fa"/>
  <rect x="18" y="1" width="14" height="1" fill="#f5f7fb"/>
  <rect x="32" y="1" width="340" height="1" fill="#f4f6fa"/>
  <rect x="372" y="1" width="1" height="1" fill="#d7d9ddf0"/>
  <rect x="373" y="1" width="1" height="1" fill="#dee0e42a"/>
  <rect x="5" y="2" width="1" height="1" fill="#dadce0b1"/>
  <rect x="6" y="2" width="1" height="1" fill="#f1f2f6"/>
  <rect x="7" y="2" width="25" height="1" fill="#f6f8fc"/>
  <rect x="32" y="2" width="340" height="1" fill="#f5f7fb"/>
  <rect x="372" y="2" width="1" height="1" fill="#e5e7eb"/>
  <rect x="373" y="2" width="1" height="1" fill="#dee0e4b1"/>
  <rect x="5" y="3" width="1" height="1" fill="#d6d7dbf2"/>
  <rect x="6" y="3" width="1" height="1" fill="#eceef2"/>
  <rect x="7" y="3" width="1" height="1" fill="#ffffff"/>
  <rect x="8" y="3" width="6" height="1" fill="#f8f9fd"/>
  <rect x="14" y="3" width="4" height="1" fill="#f6f8fc"/>
  <rect x="18" y="3" width="14" height="1" fill="#f5f7fb"/>
  <rect x="32" y="3" width="340" height="1" fill="#f4f6fa"/>
  <rect x="372" y="3" width="1" height="1" fill="#eef0f4"/>
  <rect x="373" y="3" width="1" height="1" fill="#dee0e4f4"/>
  <rect x="5" y="4" width="1" height="1" fill="#d8dade"/>
  <rect x="6" y="4" width="1" height="8" fill="#eef0f4"/>
  <rect x="7" y="4" width="1" height="8" fill="#f4f6fa"/>
  <rect x="8" y="4" width="8" height="4" fill="#f6f8fc"/>
  <rect x="16" y="4" width="356" height="40" fill="#f5f7fb"/>
  <rect x="372" y="4" width="1" height="42" fill="#f8f9fd"/>
  <rect x="373" y="4" width="1" height="42" fill="#dcdde1"/>
  <rect x="5" y="5" width="1" height="7" fill="#dadce0"/>
  <rect x="4" y="6" width="1" height="6" fill="#a4a5a90a"/>
  <rect x="8" y="8" width="4" height="8" fill="#f5f7fb"/>
  <rect x="12" y="8" width="4" height="8" fill="#f6f8fc"/>
  <rect x="4" y="12" width="1" height="2" fill="#a4a5ab0a"/>
  <rect x="5" y="12" width="1" height="2" fill="#dadce2"/>
  <rect x="6" y="12" width="1" height="2" fill="#eef0f6"/>
  <rect x="7" y="12" width="1" height="2" fill="#f4f5fc"/>
  <rect x="4" y="14" width="1" height="2" fill="#a5a6ad0a"/>
  <rect x="5" y="14" width="1" height="2" fill="#dcdde3"/>
  <rect x="6" y="14" width="1" height="2" fill="#eff1f7"/>
  <rect x="7" y="14" width="1" height="2" fill="#f5f6fd"/>
  <rect x="4" y="16" width="1" height="2" fill="#a6a7b00a"/>
  <rect x="5" y="16" width="1" height="2" fill="#dddee6"/>
  <rect x="6" y="16" width="1" height="2" fill="#f1f2f8"/>
  <rect x="7" y="16" width="3" height="2" fill="#f6f8fe"/>
  <rect x="10" y="16" width="6" height="8" fill="#f6f8fc"/>
  <rect x="4" y="18" width="1" height="2" fill="#a7a8b10a"/>
  <rect x="5" y="18" width="1" height="2" fill="#dedfe8"/>
  <rect x="6" y="18" width="1" height="1" fill="#f2f3f9"/>
  <rect x="7" y="18" width="1" height="2" fill="#f8f9ff"/>
  <rect x="8" y="18" width="2" height="6" fill="#f6f8fe"/>
  <rect x="6" y="19" width="1" height="1" fill="#f3f4fd"/>
  <rect x="4" y="20" width="1" height="1" fill="#b1b1bc0a"/>
  <rect x="5" y="20" width="1" height="1" fill="#dedeea"/>
  <rect x="6" y="20" width="1" height="1" fill="#f5f6ff"/>
  <rect x="7" y="20" width="1" height="1" fill="#f9faff"/>
  <rect x="4" y="21" width="1" height="1" fill="#d1d2dd"/>
  <rect x="5" y="21" width="1" height="1" fill="#ebebf6"/>
  <rect x="6" y="21" width="2" height="1" fill="#f8f8ff"/>
  <rect x="3" y="22" width="1" height="1" fill="#d7d8e1"/>
  <rect x="4" y="22" width="1" height="1" fill="#e5e6ef"/>
  <rect x="5" y="22" width="1" height="1" fill="#f3f4fd"/>
  <rect x="6" y="22" width="1" height="2" fill="#fafbff"/>
  <rect x="7" y="22" width="1" height="2" fill="#f5f6fd"/>
  <rect x="2" y="23" width="1" height="1" fill="#d7d8e1"/>
  <rect x="3" y="23" width="1" height="1" fill="#e6e7f0"/>
  <rect x="4" y="23" width="1" height="1" fill="#edeef7"/>
  <rect x="5" y="23" width="1" height="1" fill="#f8f8ff"/>
  <rect x="1" y="24" width="1" height="2" fill="#e1e3e9"/>
  <rect x="2" y="24" width="1" height="1" fill="#e6e7ee"/>
  <rect x="3" y="24" width="1" height="1" fill="#eff1f7"/>
  <rect x="4" y="24" width="2" height="1" fill="#f6f8fe"/>
  <rect x="6" y="24" width="1" height="1" fill="#f8f9ff"/>
  <rect x="7" y="24" width="1" height="1" fill="#f6f8fe"/>
  <rect x="8" y="24" width="8" height="2" fill="#f6f8fc"/>
  <rect x="0" y="25" width="1" height="1" fill="#d7d8df"/>
  <rect x="2" y="25" width="1" height="1" fill="#f5f6fd"/>
  <rect x="3" y="25" width="5" height="1" fill="#f6f8fe"/>
  <rect x="0" y="26" width="1" height="1" fill="#a1a3a713"/>
  <rect x="1" y="26" width="1" height="1" fill="#d3d5d9"/>
  <rect x="2" y="26" width="1" height="1" fill="#e7e9ed"/>
  <rect x="3" y="26" width="1" height="1" fill="#f3f5f9"/>
  <rect x="4" y="26" width="12" height="2" fill="#f6f8fc"/>
  <rect x="0" y="27" width="1" height="1" fill="#9ea0a40c"/>
  <rect x="1" y="27" width="1" height="1" fill="#a5a7ab1a"/>
  <rect x="2" y="27" width="1" height="1" fill="#dcdde1"/>
  <rect x="3" y="27" width="1" height="1" fill="#edeff3"/>
  <rect x="1" y="28" width="1" height="1" fill="#a1a3a70c"/>
  <rect x="2" y="28" width="1" height="1" fill="#a8aaae1a"/>
  <rect x="3" y="28" width="1" height="1" fill="#d9dbdf"/>
  <rect x="4" y="28" width="1" height="1" fill="#e4e5e9"/>
  <rect x="5" y="28" width="1" height="1" fill="#edeff3"/>
  <rect x="6" y="28" width="1" height="2" fill="#f5f7fb"/>
  <rect x="7" y="28" width="1" height="1" fill="#f8f9fd"/>
  <rect x="8" y="28" width="1" height="1" fill="#f6f8fc"/>
  <rect x="9" y="28" width="3" height="1" fill="#f5f7fb"/>
  <rect x="12" y="28" width="4" height="18" fill="#f6f8fc"/>
  <rect x="2" y="29" width="1" height="1" fill="#a5a7ab0c"/>
  <rect x="3" y="29" width="1" height="1" fill="#989a9e1a"/>
  <rect x="4" y="29" width="1" height="1" fill="#dcdde1"/>
  <rect x="5" y="29" width="1" height="1" fill="#eaebef"/>
  <rect x="7" y="29" width="1" height="1" fill="#fbfdff"/>
  <rect x="8" y="29" width="4" height="3" fill="#f5f7fb"/>
  <rect x="3" y="30" width="1" height="1" fill="#9c9da10c"/>
  <rect x="4" y="30" width="1" height="1" fill="#a3a4a81a"/>
  <rect x="5" y="30" width="1" height="1" fill="#d6d7db"/>
  <rect x="6" y="30" width="1" height="1" fill="#eff1f5"/>
  <rect x="7" y="30" width="1" height="1" fill="#ffffff"/>
  <rect x="4" y="31" width="1" height="1" fill="#a6a8ac0e"/>
  <rect x="5" y="31" width="1" height="1" fill="#eaebef"/>
  <rect x="6" y="31" width="1" height="1" fill="#f5f7fb"/>
  <rect x="7" y="31" width="1" height="1" fill="#f9fafe"/>
  <rect x="4" y="32" width="1" height="12" fill="#a7a9ad0a"/>
  <rect x="5" y="32" width="1" height="12" fill="#dadce0"/>
  <rect x="6" y="32" width="1" height="14" fill="#f6f8fc"/>
  <rect x="7" y="32" width="5" height="14" fill="#f5f7fb"/>
  <rect x="4" y="44" width="1" height="2" fill="#a7a8af0a"/>
  <rect x="5" y="44" width="1" height="2" fill="#dadce2"/>
  <rect x="16" y="44" width="16" height="2" fill="#f5f7fb"/>
  <rect x="32" y="44" width="8" height="2" fill="#f4f8fb"/>
  <rect x="40" y="44" width="24" height="2" fill="#f5f7fb"/>
  <rect x="64" y="44" width="8" height="2" fill="#f4f8fb"/>
  <rect x="72" y="44" width="24" height="2" fill="#f5f7fb"/>
  <rect x="96" y="44" width="8" height="2" fill="#f4f8fb"/>
  <rect x="104" y="44" width="24" height="2" fill="#f5f7fb"/>
  <rect x="128" y="44" width="8" height="2" fill="#f4f8fb"/>
  <rect x="136" y="44" width="24" height="2" fill="#f5f7fb"/>
  <rect x="160" y="44" width="8" height="2" fill="#f4f8fb"/>
  <rect x="168" y="44" width="24" height="2" fill="#f5f7fb"/>
  <rect x="192" y="44" width="8" height="2" fill="#f4f8fb"/>
  <rect x="200" y="44" width="24" height="2" fill="#f5f7fb"/>
  <rect x="224" y="44" width="8" height="2" fill="#f4f8fb"/>
  <rect x="232" y="44" width="24" height="2" fill="#f5f7fb"/>
  <rect x="256" y="44" width="8" height="2" fill="#f4f8fb"/>
  <rect x="264" y="44" width="24" height="2" fill="#f5f7fb"/>
  <rect x="288" y="44" width="8" height="2" fill="#f4f8fb"/>
  <rect x="296" y="44" width="24" height="2" fill="#f5f7fb"/>
  <rect x="320" y="44" width="8" height="2" fill="#f4f8fb"/>
  <rect x="328" y="44" width="24" height="2" fill="#f5f7fb"/>
  <rect x="352" y="44" width="8" height="2" fill="#f4f8fb"/>
  <rect x="360" y="44" width="12" height="2" fill="#f5f7fb"/>
  <rect x="4" y="46" width="1" height="2" fill="#a6a7ae0a"/>
  <rect x="5" y="46" width="1" height="2" fill="#d9dbe1"/>
  <rect x="6" y="46" width="1" height="2" fill="#f5f7fb"/>
  <rect x="7" y="46" width="1" height="2" fill="#f4f6fa"/>
  <rect x="8" y="46" width="2" height="2" fill="#f5f7fb"/>
  <rect x="10" y="46" width="2" height="2" fill="#f5f7f9"/>
  <rect x="12" y="46" width="4" height="2" fill="#f6f8fa"/>
  <rect x="16" y="46" width="16" height="2" fill="#f5f7f9"/>
  <rect x="32" y="46" width="8" height="3" fill="#f4f8f9"/>
  <rect x="40" y="46" width="24" height="2" fill="#f5f7f9"/>
  <rect x="64" y="46" width="8" height="2" fill="#f4f8f9"/>
  <rect x="72" y="46" width="24" height="2" fill="#f5f7f9"/>
  <rect x="96" y="46" width="8" height="2" fill="#f4f8f9"/>
  <rect x="104" y="46" width="24" height="2" fill="#f5f7f9"/>
  <rect x="128" y="46" width="8" height="2" fill="#f4f8f9"/>
  <rect x="136" y="46" width="24" height="2" fill="#f5f7f9"/>
  <rect x="160" y="46" width="8" height="2" fill="#f4f8f9"/>
  <rect x="168" y="46" width="24" height="2" fill="#f5f7f9"/>
  <rect x="192" y="46" width="8" height="2" fill="#f4f8f9"/>
  <rect x="200" y="46" width="24" height="2" fill="#f5f7f9"/>
  <rect x="224" y="46" width="8" height="2" fill="#f4f8f9"/>
  <rect x="232" y="46" width="24" height="2" fill="#f5f7f9"/>
  <rect x="256" y="46" width="8" height="2" fill="#f4f8f9"/>
  <rect x="264" y="46" width="24" height="2" fill="#f5f7f9"/>
  <rect x="288" y="46" width="8" height="2" fill="#f4f8f9"/>
  <rect x="296" y="46" width="24" height="2" fill="#f5f7f9"/>
  <rect x="320" y="46" width="8" height="2" fill="#f4f8f9"/>
  <rect x="328" y="46" width="24" height="2" fill="#f5f7f9"/>
  <rect x="352" y="46" width="8" height="2" fill="#f4f8f9"/>
  <rect x="360" y="46" width="12" height="2" fill="#f5f7f9"/>
  <rect x="372" y="46" width="1" height="2" fill="#f8fafb"/>
  <rect x="373" y="46" width="1" height="2" fill="#dcdedf"/>
  <rect x="4" y="48" width="1" height="2" fill="#a5a6ad0a"/>
  <rect x="5" y="48" width="1" height="2" fill="#d8d9e0"/>
  <rect x="6" y="48" width="1" height="2" fill="#f4f6fa"/>
  <rect x="7" y="48" width="1" height="2" fill="#f3f5f9"/>
  <rect x="8" y="48" width="3" height="1" fill="#f4f6f8"/>
  <rect x="11" y="48" width="1" height="2" fill="#f4f6f6"/>
  <rect x="12" y="48" width="4" height="1" fill="#f5f8f7"/>
  <rect x="16" y="48" width="8" height="1" fill="#f5f7f9"/>
  <rect x="24" y="48" width="4" height="1" fill="#f5f8f7"/>
  <rect x="28" y="48" width="4" height="1" fill="#f4f8f7"/>
  <rect x="40" y="48" width="4" height="1" fill="#f4f8f7"/>
  <rect x="44" y="48" width="12" height="1" fill="#f5f8f7"/>
  <rect x="56" y="48" width="4" height="1" fill="#f5f7f9"/>
  <rect x="60" y="48" width="12" height="1" fill="#f4f8f7"/>
  <rect x="72" y="48" width="4" height="1" fill="#f4f8f9"/>
  <rect x="76" y="48" width="12" height="1" fill="#f5f8f7"/>
  <rect x="88" y="48" width="4" height="1" fill="#f5f7f9"/>
  <rect x="92" y="48" width="12" height="1" fill="#f4f8f7"/>
  <rect x="104" y="48" width="4" height="1" fill="#f4f8f9"/>
  <rect x="108" y="48" width="12" height="1" fill="#f5f8f7"/>
  <rect x="120" y="48" width="4" height="1" fill="#f5f7f9"/>
  <rect x="124" y="48" width="12" height="1" fill="#f4f8f7"/>
  <rect x="136" y="48" width="4" height="1" fill="#f4f8f9"/>
  <rect x="140" y="48" width="12" height="1" fill="#f5f8f7"/>
  <rect x="152" y="48" width="4" height="1" fill="#f5f7f9"/>
  <rect x="156" y="48" width="12" height="1" fill="#f4f8f7"/>
  <rect x="168" y="48" width="4" height="1" fill="#f4f8f9"/>
  <rect x="172" y="48" width="12" height="1" fill="#f5f8f7"/>
  <rect x="184" y="48" width="4" height="1" fill="#f5f7f9"/>
  <rect x="188" y="48" width="12" height="1" fill="#f4f8f7"/>
  <rect x="200" y="48" width="4" height="1" fill="#f4f8f9"/>
  <rect x="204" y="48" width="12" height="1" fill="#f5f8f7"/>
  <rect x="216" y="48" width="4" height="1" fill="#f5f7f9"/>
  <rect x="220" y="48" width="12" height="1" fill="#f4f8f7"/>
  <rect x="232" y="48" width="4" height="1" fill="#f4f8f9"/>
  <rect x="236" y="48" width="12" height="1" fill="#f5f8f7"/>
  <rect x="248" y="48" width="4" height="1" fill="#f5f7f9"/>
  <rect x="252" y="48" width="12" height="1" fill="#f4f8f7"/>
  <rect x="264" y="48" width="4" height="1" fill="#f4f8f9"/>
  <rect x="268" y="48" width="12" height="1" fill="#f5f8f7"/>
  <rect x="280" y="48" width="4" height="1" fill="#f5f7f9"/>
  <rect x="284" y="48" width="12" height="1" fill="#f4f8f7"/>
  <rect x="296" y="48" width="4" height="1" fill="#f4f8f9"/>
  <rect x="300" y="48" width="12" height="1" fill="#f5f8f7"/>
  <rect x="312" y="48" width="4" height="1" fill="#f5f7f9"/>
  <rect x="316" y="48" width="12" height="1" fill="#f4f8f7"/>
  <rect x="328" y="48" width="4" height="1" fill="#f4f8f9"/>
  <rect x="332" y="48" width="12" height="1" fill="#f5f8f7"/>
  <rect x="344" y="48" width="4" height="1" fill="#f5f7f9"/>
  <rect x="348" y="48" width="12" height="1" fill="#f4f8f7"/>
  <rect x="360" y="48" width="4" height="1" fill="#f4f8f9"/>
  <rect x="364" y="48" width="8" height="1" fill="#f5f8f7"/>
  <rect x="372" y="48" width="1" height="2" fill="#f8faf9"/>
  <rect x="373" y="48" width="1" height="2" fill="#dcdedd"/>
  <rect x="8" y="49" width="1" height="1" fill="#f4f6fa"/>
  <rect x="9" y="49" width="2" height="1" fill="#f4f6f8"/>
  <rect x="12" y="49" width="3" height="1" fill="#f5f8f7"/>
  <rect x="15" y="49" width="10" height="1" fill="#f5f7f9"/>
  <rect x="25" y="49" width="3" height="1" fill="#f5f8f7"/>
  <rect x="28" y="49" width="3" height="1" fill="#f4f8f7"/>
  <rect x="31" y="49" width="10" height="1" fill="#f4f8f9"/>
  <rect x="41" y="49" width="2" height="1" fill="#f4f8f7"/>
  <rect x="43" y="49" width="1" height="1" fill="#f4f9f5"/>
  <rect x="44" y="49" width="7" height="1" fill="#f5f8f5"/>
  <rect x="51" y="49" width="4" height="1" fill="#f5f8f7"/>
  <rect x="55" y="49" width="5" height="1" fill="#f5f7f9"/>
  <rect x="60" y="49" width="3" height="1" fill="#f4f8f9"/>
  <rect x="63" y="49" width="8" height="1" fill="#f4f8f7"/>
  <rect x="71" y="49" width="5" height="1" fill="#f4f8f9"/>
  <rect x="76" y="49" width="3" height="1" fill="#f5f7f9"/>
  <rect x="79" y="49" width="8" height="1" fill="#f5f8f7"/>
  <rect x="87" y="49" width="5" height="1" fill="#f5f7f9"/>
  <rect x="92" y="49" width="3" height="1" fill="#f4f8f9"/>
  <rect x="95" y="49" width="8" height="1" fill="#f4f8f7"/>
  <rect x="103" y="49" width="5" height="1" fill="#f4f8f9"/>
  <rect x="108" y="49" width="3" height="1" fill="#f5f7f9"/>
  <rect x="111" y="49" width="8" height="1" fill="#f5f8f7"/>
  <rect x="119" y="49" width="5" height="1" fill="#f5f7f9"/>
  <rect x="124" y="49" width="3" height="1" fill="#f4f8f9"/>
  <rect x="127" y="49" width="8" height="1" fill="#f4f8f7"/>
  <rect x="135" y="49" width="5" height="1" fill="#f4f8f9"/>
  <rect x="140" y="49" width="3" height="1" fill="#f5f7f9"/>
  <rect x="143" y="49" width="8" height="1" fill="#f5f8f7"/>
  <rect x="151" y="49" width="5" height="1" fill="#f5f7f9"/>
  <rect x="156" y="49" width="3" height="1" fill="#f4f8f9"/>
  <rect x="159" y="49" width="8" height="1" fill="#f4f8f7"/>
  <rect x="167" y="49" width="5" height="1" fill="#f4f8f9"/>
  <rect x="172" y="49" width="3" height="1" fill="#f5f7f9"/>
  <rect x="175" y="49" width="8" height="1" fill="#f5f8f7"/>
  <rect x="183" y="49" width="5" height="1" fill="#f5f7f9"/>
  <rect x="188" y="49" width="3" height="1" fill="#f4f8f9"/>
  <rect x="191" y="49" width="8" height="1" fill="#f4f8f7"/>
  <rect x="199" y="49" width="5" height="1" fill="#f4f8f9"/>
  <rect x="204" y="49" width="3" height="1" fill="#f5f7f9"/>
  <rect x="207" y="49" width="8" height="1" fill="#f5f8f7"/>
  <rect x="215" y="49" width="5" height="1" fill="#f5f7f9"/>
  <rect x="220" y="49" width="3" height="1" fill="#f4f8f9"/>
  <rect x="223" y="49" width="8" height="1" fill="#f4f8f7"/>
  <rect x="231" y="49" width="5" height="1" fill="#f4f8f9"/>
  <rect x="236" y="49" width="3" height="1" fill="#f5f7f9"/>
  <rect x="239" y="49" width="8" height="1" fill="#f5f8f7"/>
  <rect x="247" y="49" width="5" height="1" fill="#f5f7f9"/>
  <rect x="252" y="49" width="3" height="1" fill="#f4f8f9"/>
  <rect x="255" y="49" width="8" height="1" fill="#f4f8f7"/>
  <rect x="263" y="49" width="5" height="1" fill="#f4f8f9"/>
  <rect x="268" y="49" width="3" height="1" fill="#f5f7f9"/>
  <rect x="271" y="49" width="8" height="1" fill="#f5f8f7"/>
  <rect x="279" y="49" width="5" height="1" fill="#f5f7f9"/>
  <rect x="284" y="49" width="3" height="1" fill="#f4f8f9"/>
  <rect x="287" y="49" width="8" height="1" fill="#f4f8f7"/>
  <rect x="295" y="49" width="5" height="1" fill="#f4f8f9"/>
  <rect x="300" y="49" width="3" height="1" fill="#f5f7f9"/>
  <rect x="303" y="49" width="8" height="1" fill="#f5f8f7"/>
  <rect x="311" y="49" width="5" height="1" fill="#f5f7f9"/>
  <rect x="316" y="49" width="3" height="1" fill="#f4f8f9"/>
  <rect x="319" y="49" width="8" height="1" fill="#f4f8f7"/>
  <rect x="327" y="49" width="5" height="1" fill="#f4f8f9"/>
  <rect x="332" y="49" width="3" height="1" fill="#f5f7f9"/>
  <rect x="335" y="49" width="8" height="1" fill="#f5f8f7"/>
  <rect x="343" y="49" width="5" height="1" fill="#f5f7f9"/>
  <rect x="348" y="49" width="3" height="1" fill="#f4f8f9"/>
  <rect x="351" y="49" width="8" height="1" fill="#f4f8f7"/>
  <rect x="359" y="49" width="5" height="1" fill="#f4f8f9"/>
  <rect x="364" y="49" width="3" height="1" fill="#f5f7f9"/>
  <rect x="367" y="49" width="5" height="1" fill="#f5f8f7"/>
  <rect x="5" y="50" width="1" height="1" fill="#d7d8dff3"/>
  <rect x="6" y="50" width="1" height="1" fill="#f3f4fb"/>
  <rect x="7" y="50" width="1" height="2" fill="#f2f3f9"/>
  <rect x="8" y="50" width="2" height="1" fill="#f4f6fa"/>
  <rect x="10" y="50" width="2" height="1" fill="#f4f6f8"/>
  <rect x="12" y="50" width="4" height="1" fill="#f5f7f9"/>
  <rect x="16" y="50" width="8" height="1" fill="#f5f7fb"/>
  <rect x="24" y="50" width="2" height="1" fill="#f5f7f9"/>
  <rect x="26" y="50" width="2" height="1" fill="#f5f8f7"/>
  <rect x="28" y="50" width="4" height="1" fill="#f4f8f9"/>
  <rect x="32" y="50" width="8" height="1" fill="#f4f8fb"/>
  <rect x="40" y="50" width="2" height="1" fill="#f4f8f9"/>
  <rect x="42" y="50" width="2" height="1" fill="#f4f8f7"/>
  <rect x="44" y="50" width="8" height="1" fill="#f5f8f7"/>
  <rect x="52" y="50" width="4" height="1" fill="#f5f7f9"/>
  <rect x="56" y="50" width="4" height="1" fill="#f5f7fb"/>
  <rect x="60" y="50" width="3" height="1" fill="#f4f8fb"/>
  <rect x="63" y="50" width="9" height="1" fill="#f4f8f9"/>
  <rect x="72" y="50" width="4" height="1" fill="#f4f8fb"/>
  <rect x="76" y="50" width="3" height="1" fill="#f5f7fb"/>
  <rect x="79" y="50" width="9" height="1" fill="#f5f7f9"/>
  <rect x="88" y="50" width="4" height="1" fill="#f5f7fb"/>
  <rect x="92" y="50" width="3" height="1" fill="#f4f8fb"/>
  <rect x="95" y="50" width="9" height="1" fill="#f4f8f9"/>
  <rect x="104" y="50" width="4" height="1" fill="#f4f8fb"/>
  <rect x="108" y="50" width="3" height="1" fill="#f5f7fb"/>
  <rect x="111" y="50" width="9" height="1" fill="#f5f7f9"/>
  <rect x="120" y="50" width="4" height="1" fill="#f5f7fb"/>
  <rect x="124" y="50" width="3" height="1" fill="#f4f8fb"/>
  <rect x="127" y="50" width="9" height="1" fill="#f4f8f9"/>
  <rect x="136" y="50" width="4" height="1" fill="#f4f8fb"/>
  <rect x="140" y="50" width="3" height="1" fill="#f5f7fb"/>
  <rect x="143" y="50" width="9" height="1" fill="#f5f7f9"/>
  <rect x="152" y="50" width="4" height="1" fill="#f5f7fb"/>
  <rect x="156" y="50" width="3" height="1" fill="#f4f8fb"/>
  <rect x="159" y="50" width="9" height="1" fill="#f4f8f9"/>
  <rect x="168" y="50" width="4" height="1" fill="#f4f8fb"/>
  <rect x="172" y="50" width="3" height="1" fill="#f5f7fb"/>
  <rect x="175" y="50" width="9" height="1" fill="#f5f7f9"/>
  <rect x="184" y="50" width="4" height="1" fill="#f5f7fb"/>
  <rect x="188" y="50" width="3" height="1" fill="#f4f8fb"/>
  <rect x="191" y="50" width="9" height="1" fill="#f4f8f9"/>
  <rect x="200" y="50" width="4" height="1" fill="#f4f8fb"/>
  <rect x="204" y="50" width="3" height="1" fill="#f5f7fb"/>
  <rect x="207" y="50" width="9" height="1" fill="#f5f7f9"/>
  <rect x="216" y="50" width="4" height="1" fill="#f5f7fb"/>
  <rect x="220" y="50" width="3" height="1" fill="#f4f8fb"/>
  <rect x="223" y="50" width="9" height="1" fill="#f4f8f9"/>
  <rect x="232" y="50" width="4" height="1" fill="#f4f8fb"/>
  <rect x="236" y="50" width="3" height="1" fill="#f5f7fb"/>
  <rect x="239" y="50" width="9" height="1" fill="#f5f7f9"/>
  <rect x="248" y="50" width="4" height="1" fill="#f5f7fb"/>
  <rect x="252" y="50" width="3" height="1" fill="#f4f8fb"/>
  <rect x="255" y="50" width="9" height="1" fill="#f4f8f9"/>
  <rect x="264" y="50" width="4" height="1" fill="#f4f8fb"/>
  <rect x="268" y="50" width="3" height="1" fill="#f5f7fb"/>
  <rect x="271" y="50" width="9" height="1" fill="#f5f7f9"/>
  <rect x="280" y="50" width="4" height="1" fill="#f5f7fb"/>
  <rect x="284" y="50" width="3" height="1" fill="#f4f8fb"/>
  <rect x="287" y="50" width="9" height="1" fill="#f4f8f9"/>
  <rect x="296" y="50" width="4" height="1" fill="#f4f8fb"/>
  <rect x="300" y="50" width="3" height="1" fill="#f5f7fb"/>
  <rect x="303" y="50" width="9" height="1" fill="#f5f7f9"/>
  <rect x="312" y="50" width="4" height="1" fill="#f5f7fb"/>
  <rect x="316" y="50" width="3" height="1" fill="#f4f8fb"/>
  <rect x="319" y="50" width="9" height="1" fill="#f4f8f9"/>
  <rect x="328" y="50" width="4" height="1" fill="#f4f8fb"/>
  <rect x="332" y="50" width="3" height="1" fill="#f5f7fb"/>
  <rect x="335" y="50" width="9" height="1" fill="#f5f7f9"/>
  <rect x="344" y="50" width="4" height="1" fill="#f5f7fb"/>
  <rect x="348" y="50" width="3" height="1" fill="#f4f8fb"/>
  <rect x="351" y="50" width="9" height="1" fill="#f4f8f9"/>
  <rect x="360" y="50" width="4" height="1" fill="#f4f8fb"/>
  <rect x="364" y="50" width="3" height="1" fill="#f5f7fb"/>
  <rect x="367" y="50" width="5" height="1" fill="#f5f7f9"/>
  <rect x="372" y="50" width="1" height="1" fill="#f8fafb"/>
  <rect x="373" y="50" width="1" height="1" fill="#dcdedff4"/>
  <rect x="5" y="51" width="1" height="1" fill="#d7d8e1b6"/>
  <rect x="6" y="51" width="1" height="1" fill="#f3f4fd"/>
  <rect x="8" y="51" width="1" height="1" fill="#f4f5fc"/>
  <rect x="9" y="51" width="3" height="1" fill="#f4f6fa"/>
  <rect x="12" y="51" width="4" height="1" fill="#f5f7fb"/>
  <rect x="16" y="51" width="4" height="1" fill="#f5f6fd"/>
  <rect x="20" y="51" width="2" height="1" fill="#f5f6ff"/>
  <rect x="22" y="51" width="2" height="1" fill="#f5f6fd"/>
  <rect x="24" y="51" width="2" height="1" fill="#f5f7fb"/>
  <rect x="26" y="51" width="2" height="1" fill="#f5f7f9"/>
  <rect x="28" y="51" width="4" height="1" fill="#f4f8fb"/>
  <rect x="32" y="51" width="4" height="1" fill="#f4f7fd"/>
  <rect x="36" y="51" width="2" height="1" fill="#f4f7ff"/>
  <rect x="38" y="51" width="2" height="1" fill="#f4f7fd"/>
  <rect x="40" y="51" width="2" height="1" fill="#f4f8fb"/>
  <rect x="42" y="51" width="2" height="1" fill="#f4f8f9"/>
  <rect x="44" y="51" width="8" height="1" fill="#f5f7f9"/>
  <rect x="52" y="51" width="4" height="1" fill="#f5f7fb"/>
  <rect x="56" y="51" width="4" height="1" fill="#f5f6fd"/>
  <rect x="60" y="51" width="4" height="1" fill="#f4f7fd"/>
  <rect x="64" y="51" width="8" height="1" fill="#f4f8fb"/>
  <rect x="72" y="51" width="4" height="1" fill="#f4f7fd"/>
  <rect x="76" y="51" width="4" height="1" fill="#f5f6fd"/>
  <rect x="80" y="51" width="8" height="1" fill="#f5f7fb"/>
  <rect x="88" y="51" width="4" height="1" fill="#f5f6fd"/>
  <rect x="92" y="51" width="4" height="1" fill="#f4f7fd"/>
  <rect x="96" y="51" width="8" height="1" fill="#f4f8fb"/>
  <rect x="104" y="51" width="4" height="1" fill="#f4f7fd"/>
  <rect x="108" y="51" width="4" height="1" fill="#f5f6fd"/>
  <rect x="112" y="51" width="8" height="1" fill="#f5f7fb"/>
  <rect x="120" y="51" width="4" height="1" fill="#f5f6fd"/>
  <rect x="124" y="51" width="4" height="1" fill="#f4f7fd"/>
  <rect x="128" y="51" width="8" height="1" fill="#f4f8fb"/>
  <rect x="136" y="51" width="4" height="1" fill="#f4f7fd"/>
  <rect x="140" y="51" width="4" height="1" fill="#f5f6fd"/>
  <rect x="144" y="51" width="8" height="1" fill="#f5f7fb"/>
  <rect x="152" y="51" width="4" height="1" fill="#f5f6fd"/>
  <rect x="156" y="51" width="4" height="1" fill="#f4f7fd"/>
  <rect x="160" y="51" width="8" height="1" fill="#f4f8fb"/>
  <rect x="168" y="51" width="4" height="1" fill="#f4f7fd"/>
  <rect x="172" y="51" width="4" height="1" fill="#f5f6fd"/>
  <rect x="176" y="51" width="8" height="1" fill="#f5f7fb"/>
  <rect x="184" y="51" width="4" height="1" fill="#f5f6fd"/>
  <rect x="188" y="51" width="4" height="1" fill="#f4f7fd"/>
  <rect x="192" y="51" width="8" height="1" fill="#f4f8fb"/>
  <rect x="200" y="51" width="4" height="1" fill="#f4f7fd"/>
  <rect x="204" y="51" width="4" height="1" fill="#f5f6fd"/>
  <rect x="208" y="51" width="8" height="1" fill="#f5f7fb"/>
  <rect x="216" y="51" width="4" height="1" fill="#f5f6fd"/>
  <rect x="220" y="51" width="4" height="1" fill="#f4f7fd"/>
  <rect x="224" y="51" width="8" height="1" fill="#f4f8fb"/>
  <rect x="232" y="51" width="4" height="1" fill="#f4f7fd"/>
  <rect x="236" y="51" width="4" height="1" fill="#f5f6fd"/>
  <rect x="240" y="51" width="8" height="1" fill="#f5f7fb"/>
  <rect x="248" y="51" width="4" height="1" fill="#f5f6fd"/>
  <rect x="252" y="51" width="4" height="1" fill="#f4f7fd"/>
  <rect x="256" y="51" width="8" height="1" fill="#f4f8fb"/>
  <rect x="264" y="51" width="4" height="1" fill="#f4f7fd"/>
  <rect x="268" y="51" width="4" height="1" fill="#f5f6fd"/>
  <rect x="272" y="51" width="8" height="1" fill="#f5f7fb"/>
  <rect x="280" y="51" width="4" height="1" fill="#f5f6fd"/>
  <rect x="284" y="51" width="4" height="1" fill="#f4f7fd"/>
  <rect x="288" y="51" width="8" height="1" fill="#f4f8fb"/>
  <rect x="296" y="51" width="4" height="1" fill="#f4f7fd"/>
  <rect x="300" y="51" width="4" height="1" fill="#f5f6fd"/>
  <rect x="304" y="51" width="8" height="1" fill="#f5f7fb"/>
  <rect x="312" y="51" width="4" height="1" fill="#f5f6fd"/>
  <rect x="316" y="51" width="4" height="1" fill="#f4f7fd"/>
  <rect x="320" y="51" width="8" height="1" fill="#f4f8fb"/>
  <rect x="328" y="51" width="4" height="1" fill="#f4f7fd"/>
  <rect x="332" y="51" width="4" height="1" fill="#f5f6fd"/>
  <rect x="336" y="51" width="8" height="1" fill="#f5f7fb"/>
  <rect x="344" y="51" width="4" height="1" fill="#f5f6fd"/>
  <rect x="348" y="51" width="4" height="1" fill="#f4f7fd"/>
  <rect x="352" y="51" width="8" height="1" fill="#f4f8fb"/>
  <rect x="360" y="51" width="4" height="1" fill="#f4f7fd"/>
  <rect x="364" y="51" width="4" height="1" fill="#f5f6fd"/>
  <rect x="368" y="51" width="4" height="1" fill="#f5f7fb"/>
  <rect x="372" y="51" width="1" height="1" fill="#f8f9fd"/>
  <rect x="373" y="51" width="1" height="1" fill="#dcdde1b6"/>
  <rect x="5" y="52" width="1" height="1" fill="#d2d3de3a"/>
  <rect x="6" y="52" width="1" height="1" fill="#e3e3eef1"/>
  <rect x="7" y="52" width="1" height="1" fill="#eaeaf3"/>
  <rect x="8" y="52" width="1" height="1" fill="#f8f8ff"/>
  <rect x="9" y="52" width="3" height="1" fill="#f8f9ff"/>
  <rect x="12" y="52" width="4" height="1" fill="#f9faff"/>
  <rect x="16" y="52" width="8" height="1" fill="#f9f9ff"/>
  <rect x="24" y="52" width="4" height="1" fill="#f9faff"/>
  <rect x="28" y="52" width="4" height="1" fill="#f7faff"/>
  <rect x="32" y="52" width="4" height="1" fill="#f6fbff"/>
  <rect x="36" y="52" width="2" height="1" fill="#f6faff"/>
  <rect x="38" y="52" width="2" height="1" fill="#f6fbff"/>
  <rect x="40" y="52" width="2" height="1" fill="#f7faff"/>
  <rect x="42" y="52" width="2" height="1" fill="#f7fbff"/>
  <rect x="44" y="52" width="12" height="1" fill="#f9faff"/>
  <rect x="56" y="52" width="4" height="1" fill="#f9f9ff"/>
  <rect x="60" y="52" width="4" height="1" fill="#f7faff"/>
  <rect x="64" y="52" width="8" height="1" fill="#f6fbff"/>
  <rect x="72" y="52" width="4" height="1" fill="#f7faff"/>
  <rect x="76" y="52" width="4" height="1" fill="#f9f9ff"/>
  <rect x="80" y="52" width="8" height="1" fill="#f9faff"/>
  <rect x="88" y="52" width="4" height="1" fill="#f9f9ff"/>
  <rect x="92" y="52" width="4" height="1" fill="#f7faff"/>
  <rect x="96" y="52" width="8" height="1" fill="#f6fbff"/>
  <rect x="104" y="52" width="4" height="1" fill="#f7faff"/>
  <rect x="108" y="52" width="4" height="1" fill="#f9f9ff"/>
  <rect x="112" y="52" width="8" height="1" fill="#f9faff"/>
  <rect x="120" y="52" width="4" height="1" fill="#f9f9ff"/>
  <rect x="124" y="52" width="4" height="1" fill="#f7faff"/>
  <rect x="128" y="52" width="8" height="1" fill="#f6fbff"/>
  <rect x="136" y="52" width="4" height="1" fill="#f7faff"/>
  <rect x="140" y="52" width="4" height="1" fill="#f9f9ff"/>
  <rect x="144" y="52" width="8" height="1" fill="#f9faff"/>
  <rect x="152" y="52" width="4" height="1" fill="#f9f9ff"/>
  <rect x="156" y="52" width="4" height="1" fill="#f7faff"/>
  <rect x="160" y="52" width="8" height="1" fill="#f6fbff"/>
  <rect x="168" y="52" width="4" height="1" fill="#f7faff"/>
  <rect x="172" y="52" width="4" height="1" fill="#f9f9ff"/>
  <rect x="176" y="52" width="8" height="1" fill="#f9faff"/>
  <rect x="184" y="52" width="4" height="1" fill="#f9f9ff"/>
  <rect x="188" y="52" width="4" height="1" fill="#f7faff"/>
  <rect x="192" y="52" width="8" height="1" fill="#f6fbff"/>
  <rect x="200" y="52" width="4" height="1" fill="#f7faff"/>
  <rect x="204" y="52" width="4" height="1" fill="#f9f9ff"/>
  <rect x="208" y="52" width="8" height="1" fill="#f9faff"/>
  <rect x="216" y="52" width="4" height="1" fill="#f9f9ff"/>
  <rect x="220" y="52" width="4" height="1" fill="#f7faff"/>
  <rect x="224" y="52" width="8" height="1" fill="#f6fbff"/>
  <rect x="232" y="52" width="4" height="1" fill="#f7faff"/>
  <rect x="236" y="52" width="4" height="1" fill="#f9f9ff"/>
  <rect x="240" y="52" width="8" height="1" fill="#f9faff"/>
  <rect x="248" y="52" width="4" height="1" fill="#f9f9ff"/>
  <rect x="252" y="52" width="4" height="1" fill="#f7faff"/>
  <rect x="256" y="52" width="8" height="1" fill="#f6fbff"/>
  <rect x="264" y="52" width="4" height="1" fill="#f7faff"/>
  <rect x="268" y="52" width="4" height="1" fill="#f9f9ff"/>
  <rect x="272" y="52" width="8" height="1" fill="#f9faff"/>
  <rect x="280" y="52" width="4" height="1" fill="#f9f9ff"/>
  <rect x="284" y="52" width="4" height="1" fill="#f7faff"/>
  <rect x="288" y="52" width="8" height="1" fill="#f6fbff"/>
  <rect x="296" y="52" width="4" height="1" fill="#f7faff"/>
  <rect x="300" y="52" width="4" height="1" fill="#f9f9ff"/>
  <rect x="304" y="52" width="8" height="1" fill="#f9faff"/>
  <rect x="312" y="52" width="4" height="1" fill="#f9f9ff"/>
  <rect x="316" y="52" width="4" height="1" fill="#f7faff"/>
  <rect x="320" y="52" width="8" height="1" fill="#f6fbff"/>
  <rect x="328" y="52" width="4" height="1" fill="#f7faff"/>
  <rect x="332" y="52" width="4" height="1" fill="#f9f9ff"/>
  <rect x="336" y="52" width="8" height="1" fill="#f9faff"/>
  <rect x="344" y="52" width="4" height="1" fill="#f9f9ff"/>
  <rect x="348" y="52" width="4" height="1" fill="#f7faff"/>
  <rect x="352" y="52" width="8" height="1" fill="#f6fbff"/>
  <rect x="360" y="52" width="4" height="1" fill="#f7faff"/>
  <rect x="364" y="52" width="1" height="1" fill="#f9f9ff"/>
  <rect x="365" y="52" width="2" height="1" fill="#f8f8ff"/>
  <rect x="367" y="52" width="1" height="1" fill="#f6f7ff"/>
  <rect x="368" y="52" width="1" height="1" fill="#f5f6ff"/>
  <rect x="369" y="52" width="2" height="1" fill="#f4f5fe"/>
  <rect x="371" y="52" width="1" height="1" fill="#f3f4fd"/>
  <rect x="372" y="52" width="1" height="1" fill="#d6d7dff1"/>
  <rect x="373" y="52" width="1" height="1" fill="#cbccd53a"/>
  <rect x="5" y="53" width="1" height="1" fill="#a4a4af0c"/>
  <rect x="6" y="53" width="1" height="1" fill="#c6c6d13c"/>
  <rect x="7" y="53" width="1" height="1" fill="#d1d2ddb8"/>
  <rect x="8" y="53" width="1" height="1" fill="#d8d9e4f4"/>
  <rect x="9" y="53" width="3" height="1" fill="#d8d9e4"/>
  <rect x="12" y="53" width="1" height="1" fill="#d9dae5"/>
  <rect x="13" y="53" width="4" height="1" fill="#d9d9e7"/>
  <rect x="17" y="53" width="7" height="1" fill="#d9d9e9"/>
  <rect x="24" y="53" width="2" height="1" fill="#d9d9e7"/>
  <rect x="26" y="53" width="2" height="1" fill="#d9dae5"/>
  <rect x="28" y="53" width="4" height="1" fill="#d8dae7"/>
  <rect x="32" y="53" width="7" height="1" fill="#d6dbe9"/>
  <rect x="39" y="53" width="1" height="1" fill="#d6dbe7"/>
  <rect x="40" y="53" width="2" height="1" fill="#d8dae7"/>
  <rect x="42" y="53" width="2" height="1" fill="#d8dbe5"/>
  <rect x="44" y="53" width="8" height="1" fill="#d9dae5"/>
  <rect x="52" y="53" width="4" height="1" fill="#d9d9e7"/>
  <rect x="56" y="53" width="4" height="1" fill="#d9d9e9"/>
  <rect x="60" y="53" width="3" height="1" fill="#d8dae9"/>
  <rect x="63" y="53" width="1" height="1" fill="#d8dae7"/>
  <rect x="64" y="53" width="8" height="1" fill="#d6dbe7"/>
  <rect x="72" y="53" width="1" height="1" fill="#d8dae7"/>
  <rect x="73" y="53" width="3" height="1" fill="#d8dae9"/>
  <rect x="76" y="53" width="3" height="1" fill="#d9d9e9"/>
  <rect x="79" y="53" width="10" height="1" fill="#d9d9e7"/>
  <rect x="89" y="53" width="3" height="1" fill="#d9d9e9"/>
  <rect x="92" y="53" width="3" height="1" fill="#d8dae9"/>
  <rect x="95" y="53" width="1" height="1" fill="#d8dae7"/>
  <rect x="96" y="53" width="8" height="1" fill="#d6dbe7"/>
  <rect x="104" y="53" width="1" height="1" fill="#d8dae7"/>
  <rect x="105" y="53" width="3" height="1" fill="#d8dae9"/>
  <rect x="108" y="53" width="3" height="1" fill="#d9d9e9"/>
  <rect x="111" y="53" width="10" height="1" fill="#d9d9e7"/>
  <rect x="121" y="53" width="3" height="1" fill="#d9d9e9"/>
  <rect x="124" y="53" width="3" height="1" fill="#d8dae9"/>
  <rect x="127" y="53" width="1" height="1" fill="#d8dae7"/>
  <rect x="128" y="53" width="8" height="1" fill="#d6dbe7"/>
  <rect x="136" y="53" width="1" height="1" fill="#d8dae7"/>
  <rect x="137" y="53" width="3" height="1" fill="#d8dae9"/>
  <rect x="140" y="53" width="3" height="1" fill="#d9d9e9"/>
  <rect x="143" y="53" width="10" height="1" fill="#d9d9e7"/>
  <rect x="153" y="53" width="3" height="1" fill="#d9d9e9"/>
  <rect x="156" y="53" width="3" height="1" fill="#d8dae9"/>
  <rect x="159" y="53" width="1" height="1" fill="#d8dae7"/>
  <rect x="160" y="53" width="8" height="1" fill="#d6dbe7"/>
  <rect x="168" y="53" width="1" height="1" fill="#d8dae7"/>
  <rect x="169" y="53" width="3" height="1" fill="#d8dae9"/>
  <rect x="172" y="53" width="3" height="1" fill="#d9d9e9"/>
  <rect x="175" y="53" width="10" height="1" fill="#d9d9e7"/>
  <rect x="185" y="53" width="3" height="1" fill="#d9d9e9"/>
  <rect x="188" y="53" width="3" height="1" fill="#d8dae9"/>
  <rect x="191" y="53" width="1" height="1" fill="#d8dae7"/>
  <rect x="192" y="53" width="8" height="1" fill="#d6dbe7"/>
  <rect x="200" y="53" width="1" height="1" fill="#d8dae7"/>
  <rect x="201" y="53" width="3" height="1" fill="#d8dae9"/>
  <rect x="204" y="53" width="3" height="1" fill="#d9d9e9"/>
  <rect x="207" y="53" width="10" height="1" fill="#d9d9e7"/>
  <rect x="217" y="53" width="3" height="1" fill="#d9d9e9"/>
  <rect x="220" y="53" width="3" height="1" fill="#d8dae9"/>
  <rect x="223" y="53" width="1" height="1" fill="#d8dae7"/>
  <rect x="224" y="53" width="8" height="1" fill="#d6dbe7"/>
  <rect x="232" y="53" width="1" height="1" fill="#d8dae7"/>
  <rect x="233" y="53" width="3" height="1" fill="#d8dae9"/>
  <rect x="236" y="53" width="3" height="1" fill="#d9d9e9"/>
  <rect x="239" y="53" width="10" height="1" fill="#d9d9e7"/>
  <rect x="249" y="53" width="3" height="1" fill="#d9d9e9"/>
  <rect x="252" y="53" width="3" height="1" fill="#d8dae9"/>
  <rect x="255" y="53" width="1" height="1" fill="#d8dae7"/>
  <rect x="256" y="53" width="8" height="1" fill="#d6dbe7"/>
  <rect x="264" y="53" width="1" height="1" fill="#d8dae7"/>
  <rect x="265" y="53" width="3" height="1" fill="#d8dae9"/>
  <rect x="268" y="53" width="3" height="1" fill="#d9d9e9"/>
  <rect x="271" y="53" width="10" height="1" fill="#d9d9e7"/>
  <rect x="281" y="53" width="3" height="1" fill="#d9d9e9"/>
  <rect x="284" y="53" width="3" height="1" fill="#d8dae9"/>
  <rect x="287" y="53" width="1" height="1" fill="#d8dae7"/>
  <rect x="288" y="53" width="8" height="1" fill="#d6dbe7"/>
  <rect x="296" y="53" width="1" height="1" fill="#d8dae7"/>
  <rect x="297" y="53" width="3" height="1" fill="#d8dae9"/>
  <rect x="300" y="53" width="3" height="1" fill="#d9d9e9"/>
  <rect x="303" y="53" width="10" height="1" fill="#d9d9e7"/>
  <rect x="313" y="53" width="3" height="1" fill="#d9d9e9"/>
  <rect x="316" y="53" width="3" height="1" fill="#d8dae9"/>
  <rect x="319" y="53" width="1" height="1" fill="#d8dae7"/>
  <rect x="320" y="53" width="8" height="1" fill="#d6dbe7"/>
  <rect x="328" y="53" width="1" height="1" fill="#d8dae7"/>
  <rect x="329" y="53" width="3" height="1" fill="#d8dae9"/>
  <rect x="332" y="53" width="3" height="1" fill="#d9d9e9"/>
  <rect x="335" y="53" width="10" height="1" fill="#d9d9e7"/>
  <rect x="345" y="53" width="3" height="1" fill="#d9d9e9"/>
  <rect x="348" y="53" width="3" height="1" fill="#d8dae9"/>
  <rect x="351" y="53" width="1" height="1" fill="#d8dae7"/>
  <rect x="352" y="53" width="8" height="1" fill="#d6dbe7"/>
  <rect x="360" y="53" width="1" height="1" fill="#d8dae7"/>
  <rect x="361" y="53" width="3" height="1" fill="#d8dae9"/>
  <rect x="364" y="53" width="2" height="1" fill="#d9d9e9"/>
  <rect x="366" y="53" width="1" height="1" fill="#d8d8e8"/>
  <rect x="367" y="53" width="3" height="1" fill="#d8d8e6"/>
  <rect x="370" y="53" width="1" height="1" fill="#d7d7e5f4"/>
  <rect x="371" y="53" width="1" height="1" fill="#d7d7e5b8"/>
  <rect x="372" y="53" width="1" height="1" fill="#c4c4d23c"/>
  <rect x="373" y="53" width="1" height="1" fill="#9d9daa0c"/>
  <rect x="6" y="54" width="1" height="1" fill="#a4a7b40c"/>
  <rect x="7" y="54" width="1" height="1" fill="#a2a5b115"/>
  <rect x="8" y="54" width="1" height="1" fill="#a0a2af1b"/>
  <rect x="9" y="54" width="3" height="1" fill="#a0a2af1c"/>
  <rect x="12" y="54" width="5" height="1" fill="#a1a3b21c"/>
  <rect x="17" y="54" width="8" height="1" fill="#a1a3b41c"/>
  <rect x="25" y="54" width="3" height="1" fill="#a1a3b21c"/>
  <rect x="28" y="54" width="1" height="1" fill="#a1a3b41c"/>
  <rect x="29" y="54" width="10" height="1" fill="#9fa3b41c"/>
  <rect x="39" y="54" width="4" height="1" fill="#9fa4b21c"/>
  <rect x="43" y="54" width="8" height="1" fill="#a1a3b01c"/>
  <rect x="51" y="54" width="4" height="1" fill="#a1a3b21c"/>
  <rect x="55" y="54" width="6" height="1" fill="#a1a3b41c"/>
  <rect x="61" y="54" width="2" height="1" fill="#9fa3b41c"/>
  <rect x="63" y="54" width="10" height="1" fill="#9fa4b21c"/>
  <rect x="73" y="54" width="2" height="1" fill="#9fa3b41c"/>
  <rect x="75" y="54" width="4" height="1" fill="#a1a3b41c"/>
  <rect x="79" y="54" width="10" height="1" fill="#a1a3b21c"/>
  <rect x="89" y="54" width="4" height="1" fill="#a1a3b41c"/>
  <rect x="93" y="54" width="2" height="1" fill="#9fa3b41c"/>
  <rect x="95" y="54" width="10" height="1" fill="#9fa4b21c"/>
  <rect x="105" y="54" width="2" height="1" fill="#9fa3b41c"/>
  <rect x="107" y="54" width="4" height="1" fill="#a1a3b41c"/>
  <rect x="111" y="54" width="10" height="1" fill="#a1a3b21c"/>
  <rect x="121" y="54" width="4" height="1" fill="#a1a3b41c"/>
  <rect x="125" y="54" width="2" height="1" fill="#9fa3b41c"/>
  <rect x="127" y="54" width="10" height="1" fill="#9fa4b21c"/>
  <rect x="137" y="54" width="2" height="1" fill="#9fa3b41c"/>
  <rect x="139" y="54" width="4" height="1" fill="#a1a3b41c"/>
  <rect x="143" y="54" width="10" height="1" fill="#a1a3b21c"/>
  <rect x="153" y="54" width="4" height="1" fill="#a1a3b41c"/>
  <rect x="157" y="54" width="2" height="1" fill="#9fa3b41c"/>
  <rect x="159" y="54" width="10" height="1" fill="#9fa4b21c"/>
  <rect x="169" y="54" width="2" height="1" fill="#9fa3b41c"/>
  <rect x="171" y="54" width="4" height="1" fill="#a1a3b41c"/>
  <rect x="175" y="54" width="10" height="1" fill="#a1a3b21c"/>
  <rect x="185" y="54" width="4" height="1" fill="#a1a3b41c"/>
  <rect x="189" y="54" width="2" height="1" fill="#9fa3b41c"/>
  <rect x="191" y="54" width="10" height="1" fill="#9fa4b21c"/>
  <rect x="201" y="54" width="2" height="1" fill="#9fa3b41c"/>
  <rect x="203" y="54" width="4" height="1" fill="#a1a3b41c"/>
  <rect x="207" y="54" width="10" height="1" fill="#a1a3b21c"/>
  <rect x="217" y="54" width="4" height="1" fill="#a1a3b41c"/>
  <rect x="221" y="54" width="2" height="1" fill="#9fa3b41c"/>
  <rect x="223" y="54" width="10" height="1" fill="#9fa4b21c"/>
  <rect x="233" y="54" width="2" height="1" fill="#9fa3b41c"/>
  <rect x="235" y="54" width="4" height="1" fill="#a1a3b41c"/>
  <rect x="239" y="54" width="10" height="1" fill="#a1a3b21c"/>
  <rect x="249" y="54" width="4" height="1" fill="#a1a3b41c"/>
  <rect x="253" y="54" width="2" height="1" fill="#9fa3b41c"/>
  <rect x="255" y="54" width="10" height="1" fill="#9fa4b21c"/>
  <rect x="265" y="54" width="2" height="1" fill="#9fa3b41c"/>
  <rect x="267" y="54" width="4" height="1" fill="#a1a3b41c"/>
  <rect x="271" y="54" width="10" height="1" fill="#a1a3b21c"/>
  <rect x="281" y="54" width="4" height="1" fill="#a1a3b41c"/>
  <rect x="285" y="54" width="2" height="1" fill="#9fa3b41c"/>
  <rect x="287" y="54" width="10" height="1" fill="#9fa4b21c"/>
  <rect x="297" y="54" width="2" height="1" fill="#9fa3b41c"/>
  <rect x="299" y="54" width="4" height="1" fill="#a1a3b41c"/>
  <rect x="303" y="54" width="10" height="1" fill="#a1a3b21c"/>
  <rect x="313" y="54" width="4" height="1" fill="#a1a3b41c"/>
  <rect x="317" y="54" width="2" height="1" fill="#9fa3b41c"/>
  <rect x="319" y="54" width="10" height="1" fill="#9fa4b21c"/>
  <rect x="329" y="54" width="2" height="1" fill="#9fa3b41c"/>
  <rect x="331" y="54" width="4" height="1" fill="#a1a3b41c"/>
  <rect x="335" y="54" width="10" height="1" fill="#a1a3b21c"/>
  <rect x="345" y="54" width="4" height="1" fill="#a1a3b41c"/>
  <rect x="349" y="54" width="2" height="1" fill="#9fa3b41c"/>
  <rect x="351" y="54" width="10" height="1" fill="#9fa4b21c"/>
  <rect x="361" y="54" width="2" height="1" fill="#9fa3b41c"/>
  <rect x="363" y="54" width="3" height="1" fill="#a1a3b41c"/>
  <rect x="366" y="54" width="1" height="1" fill="#a2a4b51c"/>
  <rect x="367" y="54" width="3" height="1" fill="#a2a4b31c"/>
  <rect x="370" y="54" width="1" height="1" fill="#a3a5b51b"/>
  <rect x="371" y="54" width="1" height="1" fill="#a3a5b515"/>
  <rect x="372" y="54" width="1" height="1" fill="#a0a2b10c"/>
  <rect x="10" y="55" width="1" height="1" fill="#9b9eaa0a"/>
  <rect x="11" y="55" width="1" height="1" fill="#9b9dac0a"/>
  <rect x="12" y="55" width="8" height="1" fill="#9c9eb00a"/>
  <rect x="20" y="55" width="4" height="1" fill="#9c9eb20a"/>
  <rect x="24" y="55" width="2" height="1" fill="#9c9eb00a"/>
  <rect x="26" y="55" width="1" height="1" fill="#9c9eae0a"/>
  <rect x="27" y="55" width="1" height="1" fill="#9c9eb00a"/>
  <rect x="28" y="55" width="10" height="1" fill="#9b9eb20a"/>
  <rect x="38" y="55" width="4" height="1" fill="#9b9fb00a"/>
  <rect x="42" y="55" width="2" height="1" fill="#9b9fae0a"/>
  <rect x="44" y="55" width="8" height="1" fill="#9c9eae0a"/>
  <rect x="52" y="55" width="4" height="1" fill="#9c9eb00a"/>
  <rect x="56" y="55" width="2" height="1" fill="#9c9eb20a"/>
  <rect x="58" y="55" width="2" height="1" fill="#9c9eb00a"/>
  <rect x="60" y="55" width="16" height="1" fill="#9b9fb00a"/>
  <rect x="76" y="55" width="16" height="1" fill="#9c9eb00a"/>
  <rect x="92" y="55" width="16" height="1" fill="#9b9fb00a"/>
  <rect x="108" y="55" width="16" height="1" fill="#9c9eb00a"/>
  <rect x="124" y="55" width="16" height="1" fill="#9b9fb00a"/>
  <rect x="140" y="55" width="16" height="1" fill="#9c9eb00a"/>
  <rect x="156" y="55" width="16" height="1" fill="#9b9fb00a"/>
  <rect x="172" y="55" width="16" height="1" fill="#9c9eb00a"/>
  <rect x="188" y="55" width="16" height="1" fill="#9b9fb00a"/>
  <rect x="204" y="55" width="16" height="1" fill="#9c9eb00a"/>
  <rect x="220" y="55" width="16" height="1" fill="#9b9fb00a"/>
  <rect x="236" y="55" width="16" height="1" fill="#9c9eb00a"/>
  <rect x="252" y="55" width="16" height="1" fill="#9b9fb00a"/>
  <rect x="268" y="55" width="16" height="1" fill="#9c9eb00a"/>
  <rect x="284" y="55" width="16" height="1" fill="#9b9fb00a"/>
  <rect x="300" y="55" width="16" height="1" fill="#9c9eb00a"/>
  <rect x="316" y="55" width="16" height="1" fill="#9b9fb00a"/>
  <rect x="332" y="55" width="16" height="1" fill="#9c9eb00a"/>
  <rect x="348" y="55" width="16" height="1" fill="#9b9fb00a"/>
  <rect x="364" y="55" width="1" height="1" fill="#9c9eb00a"/>
  <rect x="365" y="55" width="2" height="1" fill="#9e9fb10a"/>
  <rect x="367" y="55" width="1" height="1" fill="#9fa0b20a"/>
  <rect x="368" y="55" width="1" height="1" fill="#a0a2b30a"/>
</svg>