<svg xmlns="http://www.w3.org/2000/svg" width="16" height="16" viewBox="0 0 16 16" shape-rendering="crispEdges">
  <rect x="1" y="0" width="1" height="1" fill="#a4611414"/>
  <rect x="2" y="0" width="1" height="1" fill="#aa6610ce"/>
  <rect x="3" y="0" width="1" height="1" fill="#ad680df0"/>
  <rect x="0" y="1" width="1" height="1" fill="#a7601218"/>
  <rect x="1" y="1" width="1" height="1" fill="#ad6615d4"/>
  <rect x="2" y="1" width="1" height="1" fill="#a7630d84"/>
  <rect x="4" y="1" width="1" height="1" fill="#a3620614"/>
  <rect x="5" y="1" width="1" height="1" fill="#9f610286"/>
  <rect x="6" y="1" width="1" height="1" fill="#9d6000d2"/>
  <rect x="7" y="1" width="1" height="1" fill="#a66905f8"/>
  <rect x="8" y="1" width="1" height="1" fill="#a46509f8"/>
  <rect x="9" y="1" width="1" height="1" fill="#a16509d0"/>
  <rect x="10" y="1" width="1" height="1" fill="#a16c0c82"/>
  <rect x="11" y="1" width="1" height="1" fill="#97701d14"/>
  <rect x="0" y="2" width="1" height="1" fill="#b3610bd8"/>
  <rect x="1" y="2" width="1" height="1" fill="#af60097b"/>
  <rect x="3" y="2" width="1" height="1" fill="#a6670d53"/>
  <rect x="4" y="2" width="1" height="1" fill="#9e6b0ff0"/>
  <rect x="5" y="2" width="1" height="1" fill="#dcb450"/>
  <rect x="6" y="2" width="1" height="1" fill="#ffe275"/>
  <rect x="7" y="2" width="1" height="1" fill="#ffff97"/>
  <rect x="8" y="2" width="1" height="1" fill="#fffda9"/>
  <rect x="9" y="2" width="1" height="1" fill="#ffe396"/>
  <rect x="10" y="2" width="1" height="1" fill="#d9b966"/>
  <rect x="11" y="2" width="1" height="1" fill="#876918f1"/>
  <rect x="12" y="2" width="1" height="1" fill="#946e2453"/>
  <rect x="0" y="3" width="1" height="1" fill="#b56409f0"/>
  <rect x="2" y="3" width="1" height="1" fill="#ab660553"/>
  <rect x="3" y="3" width="1" height="1" fill="#9e6700fe"/>
  <rect x="4" y="3" width="1" height="1" fill="#fcd259"/>
  <rect x="5" y="3" width="1" height="1" fill="#fff071"/>
  <rect x="6" y="3" width="1" height="1" fill="#f5de5d"/>
  <rect x="7" y="3" width="1" height="1" fill="#f7df68"/>
  <rect x="8" y="3" width="1" height="1" fill="#916d09"/>
  <rect x="9" y="3" width="1" height="1" fill="#fdd87a"/>
  <rect x="10" y="3" width="1" height="1" fill="#ffec83"/>
  <rect x="11" y="3" width="1" height="1" fill="#fadc70"/>
  <rect x="12" y="3" width="1" height="1" fill="#916200fe"/>
  <rect x="13" y="3" width="1" height="1" fill="#9c6c1a53"/>
  <rect x="1" y="4" width="1" height="1" fill="#a2620015"/>
  <rect x="2" y="4" width="1" height="1" fill="#a26900f1"/>
  <rect x="3" y="4" width="1" height="1" fill="#fece46"/>
  <rect x="4" y="4" width="1" height="1" fill="#fdd92d"/>
  <rect x="5" y="4" width="1" height="1" fill="#fadc29"/>
  <rect x="6" y="4" width="1" height="1" fill="#f3d736"/>
  <rect x="7" y="4" width="1" height="1" fill="#f9d846"/>
  <rect x="8" y="4" width="1" height="1" fill="#9e7200"/>
  <rect x="9" y="4" width="1" height="1" fill="#f9cc3c"/>
  <rect x="10" y="4" width="1" height="1" fill="#f8d62c"/>
  <rect x="11" y="4" width="1" height="1" fill="#ffe038"/>
  <rect x="12" y="4" width="1" height="1" fill="#fed045"/>
  <rect x="13" y="4" width="1" height="1" fill="#a66f02f1"/>
  <rect x="14" y="4" width="1" height="1" fill="#a3621416"/>
  <rect x="1" y="5" width="1" height="1" fill="#a4670182"/>
  <rect x="2" y="5" width="1" height="1" fill="#e0a92a"/>
  <rect x="3" y="5" width="1" height="1" fill="#ffd73d"/>
  <rect x="4" y="5" width="1" height="1" fill="#ffd81b"/>
  <rect x="5" y="5" width="1" height="1" fill="#ffde1b"/>
  <rect x="6" y="5" width="1" height="1" fill="#a27c00"/>
  <rect x="7" y="5" width="1" height="1" fill="#9e7700"/>
  <rect x="8" y="5" width="1" height="1" fill="#a67a00"/>
  <rect x="9" y="5" width="1" height="1" fill="#ffdb2a"/>
  <rect x="10" y="5" width="1" height="1" fill="#ffda19"/>
  <rect x="11" y="5" width="1" height="1" fill="#ffdc1f"/>
  <rect x="12" y="5" width="1" height="1" fill="#ffd233"/>
  <rect x="13" y="5" width="1" height="1" fill="#e8ad2b"/>
  <rect x="14" y="5" width="1" height="1" fill="#b0650186"/>
  <rect x="1" y="6" width="1" height="1" fill="#a66300d0"/>
  <rect x="2" y="6" width="1" height="1" fill="#f5b82b"/>
  <rect x="3" y="6" width="1" height="1" fill="#ffca29"/>
  <rect x="4" y="6" width="1" height="1" fill="#ffce25"/>
  <rect x="5" y="6" width="1" height="1" fill="#ffce22"/>
  <rect x="6" y="6" width="1" height="1" fill="#ffe53a"/>
  <rect x="7" y="6" width="1" height="1" fill="#ffe031"/>
  <rect x="8" y="6" width="1" height="1" fill="#ffe42d"/>
  <rect x="9" y="6" width="1" height="1" fill="#fcd31d"/>
  <rect x="10" y="6" width="1" height="1" fill="#ffce22"/>
  <rect x="11" y="6" width="1" height="1" fill="#ffce27"/>
  <rect x="12" y="6" width="1" height="1" fill="#fcca23"/>
  <rect x="13" y="6" width="1" height="1" fill="#f7bf2c"/>
  <rect x="14" y="6" width="1" height="1" fill="#a66400d2"/>
  <rect x="1" y="7" width="1" height="1" fill="#a96400f8"/>
  <rect x="2" y="7" width="1" height="1" fill="#f7ba26"/>
  <rect x="3" y="7" width="1" height="1" fill="#ab7100"/>
  <rect x="4" y="7" width="1" height="1" fill="#ae7300"/>
  <rect x="5" y="7" width="1" height="1" fill="#ffcc30"/>
  <rect x="6" y="7" width="1" height="1" fill="#ffcc25"/>
  <rect x="7" y="7" width="1" height="1" fill="#fbcc1a"/>
  <rect x="8" y="7" width="1" height="1" fill="#f7d010"/>
  <rect x="9" y="7" width="1" height="1" fill="#ffd41c"/>
  <rect x="10" y="7" width="1" height="1" fill="#ae7500"/>
  <rect x="11" y="7" width="1" height="1" fill="#ad7100"/>
  <rect x="12" y="7" width="1" height="1" fill="#a77000"/>
  <rect x="13" y="7" width="1" height="1" fill="#ffc82c"/>
  <rect x="14" y="7" width="1" height="1" fill="#b17300f9"/>
  <rect x="1" y="8" width="1" height="1" fill="#b16e01f8"/>
  <rect x="2" y="8" width="1" height="1" fill="#fbc42e"/>
  <rect x="3" y="8" width="1" height="1" fill="#ffdf3e"/>
  <rect x="4" y="8" width="1" height="1" fill="#a96800"/>
  <rect x="5" y="8" width="1" height="1" fill="#ffc235"/>
  <rect x="6" y="8" width="1" height="1" fill="#fec625"/>
  <rect x="7" y="8" width="1" height="1" fill="#fbcb17"/>
  <rect x="8" y="8" width="1" height="1" fill="#f3c304"/>
  <rect x="9" y="8" width="1" height="1" fill="#ffcc1a"/>
  <rect x="10" y="8" width="1" height="1" fill="#ab6e00"/>
  <rect x="11" y="8" width="1" height="1" fill="#ffce44"/>
  <rect x="12" y="8" width="1" height="1" fill="#ffd030"/>
  <rect x="13" y="8" width="1" height="1" fill="#fcc224"/>
  <rect x="14" y="8" width="1" height="1" fill="#ab6b00f3"/>
  <rect x="1" y="9" width="1" height="1" fill="#a56100d0"/>
  <rect x="2" y="9" width="1" height="1" fill="#e5aa18"/>
  <rect x="3" y="9" width="1" height="1" fill="#f5bd1e"/>
  <rect x="4" y="9" width="1" height="1" fill="#af6f00"/>
  <rect x="5" y="9" width="1" height="1" fill="#b27200"/>
  <rect x="6" y="9" width="1" height="1" fill="#ac7000"/>
  <rect x="7" y="9" width="1" height="1" fill="#ffc522"/>
  <rect x="8" y="9" width="1" height="1" fill="#fec510"/>
  <rect x="9" y="9" width="1" height="2" fill="#f8be0e"/>
  <rect x="10" y="9" width="1" height="1" fill="#b37400"/>
  <rect x="11" y="9" width="1" height="1" fill="#ffbf33"/>
  <rect x="12" y="9" width="1" height="1" fill="#fec124"/>
  <rect x="13" y="9" width="1" height="1" fill="#e9ab15"/>
  <rect x="14" y="9" width="1" height="1" fill="#b26f00d1"/>
  <rect x="1" y="10" width="1" height="1" fill="#aa610082"/>
  <rect x="2" y="10" width="1" height="1" fill="#d69406"/>
  <rect x="3" y="10" width="1" height="1" fill="#f8bb1e"/>
  <rect x="4" y="10" width="1" height="1" fill="#ffde46"/>
  <rect x="5" y="10" width="1" height="1" fill="#ffd94b"/>
  <rect x="6" y="10" width="1" height="1" fill="#b16f00"/>
  <rect x="7" y="10" width="1" height="1" fill="#f7b22a"/>
  <rect x="8" y="10" width="1" height="1" fill="#f7ba14"/>
  <rect x="10" y="10" width="1" height="1" fill="#ffda38"/>
  <rect x="11" y="10" width="2" height="1" fill="#fabd22"/>
  <rect x="13" y="10" width="1" height="1" fill="#d19105"/>
  <rect x="14" y="10" width="1" height="1" fill="#a7620086"/>
  <rect x="1" y="11" width="1" height="1" fill="#a2650d16"/>
  <rect x="2" y="11" width="1" height="1" fill="#aa6800f1"/>
  <rect x="3" y="11" width="1" height="1" fill="#de9f11"/>
  <rect x="4" y="11" width="1" height="1" fill="#eeb622"/>
  <rect x="5" y="11" width="1" height="1" fill="#eeb325"/>
  <rect x="6" y="11" width="1" height="1" fill="#b16a00"/>
  <rect x="7" y="11" width="1" height="1" fill="#b26a00"/>
  <rect x="8" y="11" width="1" height="1" fill="#b47500"/>
  <rect x="9" y="11" width="1" height="1" fill="#f1b60d"/>
  <rect x="10" y="11" width="1" height="1" fill="#fdc11f"/>
  <rect x="11" y="11" width="1" height="1" fill="#f6b820"/>
  <rect x="12" y="11" width="1" height="1" fill="#e0a014"/>
  <rect x="13" y="11" width="1" height="1" fill="#ab6900f1"/>
  <rect x="14" y="11" width="1" height="1" fill="#a5600016"/>
  <rect x="2" y="12" width="1" height="1" fill="#9e660b53"/>
  <rect x="3" y="12" width="1" height="1" fill="#b26c00fe"/>
  <rect x="4" y="12" width="1" height="1" fill="#e29c1b"/>
  <rect x="5" y="12" width="1" height="1" fill="#fbb229"/>
  <rect x="6" y="12" width="1" height="1" fill="#ffd244"/>
  <rect x="7" y="12" width="1" height="1" fill="#ffcd3a"/>
  <rect x="8" y="12" width="1" height="1" fill="#b27200"/>
  <rect x="9" y="12" width="1" height="1" fill="#efb117"/>
  <rect x="10" y="12" width="1" height="1" fill="#f0b024"/>
  <rect x="11" y="12" width="1" height="1" fill="#db9919"/>
  <rect x="12" y="12" width="1" height="1" fill="#a46000fe"/>
  <rect x="13" y="12" width="1" height="1" fill="#ae680053"/>
  <rect x="15" y="12" width="1" height="1" fill="#ae6802ef"/>
  <rect x="3" y="13" width="1" height="1" fill="#a3640754"/>
  <rect x="4" y="13" width="1" height="1" fill="#b26900f2"/>
  <rect x="5" y="13" width="1" height="1" fill="#d68a0e"/>
  <rect x="6" y="13" width="1" height="1" fill="#e9a41c"/>
  <rect x="7" y="13" width="1" height="1" fill="#efad20"/>
  <rect x="8" y="13" width="1" height="1" fill="#ffd54b"/>
  <rect x="9" y="13" width="1" height="1" fill="#e2a020"/>
  <rect x="10" y="13" width="1" height="1" fill="#cd8915"/>
  <rect x="11" y="13" width="1" height="1" fill="#aa6500f2"/>
  <rect x="12" y="13" width="1" height="1" fill="#ac660553"/>
  <rect x="14" y="13" width="1" height="1" fill="#ae66086d"/>
  <rect x="15" y="13" width="1" height="1" fill="#a96201df"/>
  <rect x="4" y="14" width="1" height="1" fill="#a8691114"/>
  <rect x="5" y="14" width="1" height="1" fill="#b16d0586"/>
  <rect x="6" y="14" width="1" height="1" fill="#a36700d3"/>
  <rect x="7" y="14" width="1" height="1" fill="#a36700fa"/>
  <rect x="8" y="14" width="1" height="1" fill="#ac6804f4"/>
  <rect x="9" y="14" width="1" height="1" fill="#a96105ce"/>
  <rect x="10" y="14" width="1" height="1" fill="#a35b0283"/>
  <rect x="11" y="14" width="1" height="1" fill="#a9610714"/>
  <rect x="13" y="14" width="1" height="1" fill="#ae660c78"/>
  <rect x="14" y="14" width="1" height="1" fill="#a85f0ada"/>
  <rect x="15" y="14" width="1" height="1" fill="#aa610f1e"/>
  <rect x="12" y="15" width="1" height="1" fill="#af670df0"/>
  <rect x="13" y="15" width="1" height="1" fill="#a96107d3"/>
  <rect x="14" y="15" width="1" height="1" fill="#aa611118"/>
</svg>