<svg xmlns="http://www.w3.org/2000/svg" width="20" height="40" viewBox="0 0 20 40" shape-rendering="crispEdges">
  <rect x="0" y="0" width="12" height="1" fill="#65caee"/>
  <rect x="12" y="0" width="4" height="1" fill="#66c9ee"/>
  <rect x="16" y="0" width="4" height="1" fill="#68c8ee"/>
  <rect x="0" y="1" width="13" height="1" fill="#50b5d9"/>
  <rect x="13" y="1" width="7" height="1" fill="#51b4d9"/>
  <rect x="0" y="2" width="15" height="1" fill="#57bce0"/>
  <rect x="15" y="2" width="5" height="1" fill="#55bde0"/>
  <rect x="0" y="3" width="12" height="1" fill="#55bade"/>
  <rect x="12" y="3" width="4" height="1" fill="#53bade"/>
  <rect x="16" y="3" width="4" height="1" fill="#51bbde"/>
  <rect x="0" y="4" width="12" height="1" fill="#57bce0"/>
  <rect x="12" y="4" width="4" height="1" fill="#55bde0"/>
  <rect x="16" y="4" width="4" height="1" fill="#54bee0"/>
  <rect x="0" y="5" width="11" height="1" fill="#5cbfe4"/>
  <rect x="11" y="5" width="5" height="1" fill="#5abfe4"/>
  <rect x="16" y="5" width="4" height="1" fill="#59c0e4"/>
  <rect x="0" y="6" width="11" height="1" fill="#62c3e7"/>
  <rect x="11" y="6" width="5" height="1" fill="#61c4e7"/>
  <rect x="16" y="6" width="4" height="1" fill="#62c2e9"/>
  <rect x="0" y="7" width="13" height="1" fill="#66c4e9"/>
  <rect x="13" y="7" width="3" height="1" fill="#68c4e9"/>
  <rect x="16" y="7" width="4" height="1" fill="#69c5ea"/>
  <rect x="0" y="8" width="13" height="1" fill="#6dc5e9"/>
  <rect x="13" y="8" width="2" height="1" fill="#6fc4e9"/>
  <rect x="15" y="8" width="1" height="1" fill="#6fc4e7"/>
  <rect x="16" y="8" width="4" height="1" fill="#70c5e8"/>
  <rect x="0" y="9" width="12" height="1" fill="#74c7e9"/>
  <rect x="12" y="9" width="4" height="1" fill="#76c6e9"/>
  <rect x="16" y="9" width="4" height="1" fill="#77c8e8"/>
  <rect x="0" y="10" width="16" height="1" fill="#7dcae9"/>
  <rect x="16" y="10" width="4" height="1" fill="#7fcbea"/>
  <rect x="0" y="11" width="16" height="1" fill="#84cde9"/>
  <rect x="16" y="11" width="4" height="1" fill="#85ceea"/>
  <rect x="0" y="12" width="16" height="1" fill="#8dd0e9"/>
  <rect x="16" y="12" width="4" height="1" fill="#8fd1ea"/>
  <rect x="0" y="13" width="16" height="1" fill="#94d3e9"/>
  <rect x="16" y="13" width="4" height="1" fill="#95d4ea"/>
  <rect x="0" y="14" width="16" height="1" fill="#9dd7ed"/>
  <rect x="16" y="14" width="4" height="1" fill="#9ed8ee"/>
  <rect x="0" y="15" width="9" height="1" fill="#a4d9ee"/>
  <rect x="9" y="15" width="6" height="1" fill="#a5d9ee"/>
  <rect x="15" y="15" width="1" height="1" fill="#a4d9ee"/>
  <rect x="16" y="15" width="4" height="1" fill="#a5dbef"/>
  <rect x="0" y="16" width="4" height="1" fill="#acddf1"/>
  <rect x="4" y="16" width="5" height="1" fill="#addcf1"/>
  <rect x="9" y="16" width="6" height="1" fill="#afdbf1"/>
  <rect x="15" y="16" width="1" height="1" fill="#addcf1"/>
  <rect x="16" y="16" width="4" height="1" fill="#addef2"/>
  <rect x="0" y="17" width="4" height="1" fill="#b2dff0"/>
  <rect x="4" y="17" width="4" height="1" fill="#b4dff0"/>
  <rect x="8" y="17" width="8" height="1" fill="#b6def0"/>
  <rect x="16" y="17" width="1" height="1" fill="#b5e0f1"/>
  <rect x="17" y="17" width="3" height="1" fill="#b4e1f1"/>
  <rect x="0" y="18" width="4" height="1" fill="#bbe4f4"/>
  <rect x="4" y="18" width="4" height="1" fill="#bde3f4"/>
  <rect x="8" y="18" width="8" height="1" fill="#bfe2f4"/>
  <rect x="16" y="18" width="4" height="1" fill="#bee4f5"/>
  <rect x="0" y="19" width="4" height="1" fill="#c2e7f3"/>
  <rect x="4" y="19" width="4" height="1" fill="#c4e6f3"/>
  <rect x="8" y="19" width="8" height="1" fill="#c5e5f3"/>
  <rect x="16" y="19" width="4" height="1" fill="#c5e7f5"/>
  <rect x="0" y="20" width="4" height="1" fill="#caebf4"/>
  <rect x="4" y="20" width="4" height="1" fill="#cceaf4"/>
  <rect x="8" y="20" width="8" height="1" fill="#cde9f4"/>
  <rect x="16" y="20" width="4" height="1" fill="#cae9f3"/>
  <rect x="0" y="21" width="4" height="1" fill="#d1edf3"/>
  <rect x="4" y="21" width="4" height="1" fill="#d2ecf3"/>
  <rect x="8" y="21" width="7" height="1" fill="#d4ecf3"/>
  <rect x="15" y="21" width="1" height="1" fill="#d2ecf3"/>
  <rect x="16" y="21" width="4" height="1" fill="#d1ebf2"/>
  <rect x="0" y="22" width="3" height="1" fill="#d8f3f5"/>
  <rect x="3" y="22" width="4" height="1" fill="#daf2f5"/>
  <rect x="7" y="22" width="8" height="1" fill="#dbf1f5"/>
  <rect x="15" y="22" width="1" height="1" fill="#daf2f5"/>
  <rect x="16" y="22" width="4" height="1" fill="#d8f1f4"/>
  <rect x="0" y="23" width="4" height="1" fill="#def4f6"/>
  <rect x="4" y="23" width="5" height="1" fill="#dff3f6"/>
  <rect x="9" y="23" width="2" height="1" fill="#e1f2f6"/>
  <rect x="11" y="23" width="5" height="1" fill="#dff3f6"/>
  <rect x="16" y="23" width="4" height="1" fill="#def2f4"/>
  <rect x="0" y="24" width="9" height="1" fill="#e3f5f6"/>
  <rect x="9" y="24" width="2" height="1" fill="#e5f4f6"/>
  <rect x="11" y="24" width="5" height="1" fill="#e3f5f6"/>
  <rect x="16" y="24" width="4" height="1" fill="#e2f4f5"/>
  <rect x="0" y="25" width="16" height="1" fill="#eaf7f7"/>
  <rect x="16" y="25" width="4" height="1" fill="#e9f6f6"/>
  <rect x="0" y="26" width="16" height="1" fill="#f0fcfa"/>
  <rect x="16" y="26" width="4" height="1" fill="#effbf9"/>
  <rect x="0" y="27" width="16" height="1" fill="#f7fefe"/>
  <rect x="16" y="27" width="4" height="1" fill="#f6fcfc"/>
  <rect x="0" y="28" width="16" height="1" fill="#fafcfe"/>
  <rect x="16" y="28" width="4" height="1" fill="#fbfdff"/>
  <rect x="0" y="29" width="16" height="1" fill="#fdfafe"/>
  <rect x="16" y="29" width="4" height="1" fill="#fefbff"/>
  <rect x="0" y="30" width="16" height="2" fill="#fff9fe"/>
  <rect x="16" y="30" width="4" height="2" fill="#fffbff"/>
  <rect x="0" y="32" width="8" height="1" fill="#fefcfd"/>
  <rect x="8" y="32" width="8" height="1" fill="#fefbff"/>
  <rect x="16" y="32" width="4" height="1" fill="#fefcfd"/>
  <rect x="0" y="33" width="8" height="7" fill="#fdfdfd"/>
  <rect x="8" y="33" width="8" height="7" fill="#fdfcff"/>
  <rect x="16" y="33" width="4" height="7" fill="#fdfdfd"/>
</svg>