<svg xmlns="http://www.w3.org/2000/svg" width="16" height="16" viewBox="0 0 16 16" shape-rendering="crispEdges">
  <rect x="4" y="0" width="1" height="1" fill="#956223c3"/>
  <rect x="5" y="0" width="1" height="1" fill="#a1670b"/>
  <rect x="6" y="0" width="1" height="1" fill="#a16500"/>
  <rect x="7" y="0" width="1" height="1" fill="#ae6d00"/>
  <rect x="8" y="0" width="1" height="1" fill="#b26900"/>
  <rect x="9" y="0" width="1" height="1" fill="#b46f00"/>
  <rect x="10" y="0" width="1" height="1" fill="#9f6b00"/>
  <rect x="11" y="0" width="1" height="1" fill="#9a7400"/>
  <rect x="12" y="0" width="1" height="1" fill="#8f6f1ac3"/>
  <rect x="3" y="1" width="1" height="1" fill="#906a30c3"/>
  <rect x="4" y="1" width="1" height="1" fill="#996b1d"/>
  <rect x="5" y="1" width="1" height="1" fill="#edc163"/>
  <rect x="6" y="1" width="1" height="1" fill="#c5a43d"/>
  <rect x="7" y="1" width="1" height="1" fill="#c7a840"/>
  <rect x="8" y="1" width="1" height="1" fill="#d3ac4c"/>
  <rect x="9" y="1" width="1" height="1" fill="#caa13f"/>
  <rect x="10" y="1" width="1" height="1" fill="#ceab3e"/>
  <rect x="11" y="1" width="1" height="1" fill="#e6c55a"/>
  <rect x="12" y="1" width="1" height="1" fill="#947219"/>
  <rect x="13" y="1" width="1" height="1" fill="#897132c3"/>
  <rect x="3" y="2" width="1" height="1" fill="#976d10"/>
  <rect x="4" y="2" width="1" height="1" fill="#e4bf55"/>
  <rect x="5" y="2" width="1" height="1" fill="#816e0e"/>
  <rect x="6" y="2" width="1" height="1" fill="#3f5011"/>
  <rect x="7" y="2" width="1" height="1" fill="#2d4e21"/>
  <rect x="8" y="2" width="1" height="1" fill="#2b4719"/>
  <rect x="9" y="2" width="1" height="1" fill="#384712"/>
  <rect x="10" y="2" width="1" height="1" fill="#4b4803"/>
  <rect x="11" y="2" width="1" height="1" fill="#87761e"/>
  <rect x="12" y="2" width="1" height="1" fill="#e4bf5c"/>
  <rect x="13" y="2" width="1" height="1" fill="#8b6b1a"/>
  <rect x="3" y="3" width="1" height="1" fill="#9d6d00"/>
  <rect x="4" y="3" width="1" height="1" fill="#caa731"/>
  <rect x="5" y="3" width="1" height="1" fill="#4a4900"/>
  <rect x="6" y="3" width="1" height="1" fill="#6da687"/>
  <rect x="7" y="3" width="1" height="1" fill="#56adab"/>
  <rect x="8" y="3" width="1" height="1" fill="#57a9a7"/>
  <rect x="9" y="3" width="1" height="1" fill="#69a99a"/>
  <rect x="10" y="3" width="1" height="1" fill="#829e79"/>
  <rect x="11" y="3" width="1" height="1" fill="#4e4904"/>
  <rect x="12" y="3" width="1" height="1" fill="#c8a339"/>
  <rect x="13" y="3" width="1" height="1" fill="#976d0e"/>
  <rect x="3" y="4" width="1" height="1" fill="#a06b00"/>
  <rect x="4" y="4" width="1" height="1" fill="#d1a839"/>
  <rect x="5" y="4" width="1" height="1" fill="#404800"/>
  <rect x="6" y="4" width="1" height="1" fill="#50aaa0"/>
  <rect x="7" y="4" width="1" height="1" fill="#2badc8"/>
  <rect x="8" y="4" width="1" height="1" fill="#2caecd"/>
  <rect x="9" y="4" width="1" height="1" fill="#3ea8bb"/>
  <rect x="10" y="4" width="1" height="1" fill="#65a095"/>
  <rect x="11" y="4" width="1" height="1" fill="#414c16"/>
  <rect x="12" y="4" width="1" height="1" fill="#cda83a"/>
  <rect x="13" y="4" width="1" height="1" fill="#9e6f08"/>
  <rect x="3" y="5" width="1" height="1" fill="#a36902"/>
  <rect x="4" y="5" width="1" height="1" fill="#d4a63b"/>
  <rect x="5" y="5" width="1" height="1" fill="#414800"/>
  <rect x="6" y="5" width="1" height="1" fill="#3ba0a5"/>
  <rect x="7" y="5" width="1" height="1" fill="#11a6d6"/>
  <rect x="8" y="5" width="1" height="1" fill="#12a9dc"/>
  <rect x="9" y="5" width="1" height="1" fill="#23a3c8"/>
  <rect x="10" y="5" width="1" height="1" fill="#4a979a"/>
  <rect x="11" y="5" width="1" height="1" fill="#364d21"/>
  <rect x="12" y="5" width="1" height="1" fill="#caa73a"/>
  <rect x="13" y="5" width="1" height="1" fill="#9c6e05"/>
  <rect x="3" y="6" width="1" height="1" fill="#a36808"/>
  <rect x="4" y="6" width="1" height="1" fill="#d9a63a"/>
  <rect x="5" y="6" width="1" height="1" fill="#484801"/>
  <rect x="6" y="6" width="1" height="1" fill="#2d8e98"/>
  <rect x="7" y="6" width="1" height="1" fill="#0395cb"/>
  <rect x="8" y="6" width="1" height="1" fill="#049ad0"/>
  <rect x="9" y="6" width="1" height="1" fill="#1698be"/>
  <rect x="10" y="6" width="1" height="1" fill="#32888b"/>
  <rect x="11" y="6" width="1" height="1" fill="#2e4e24"/>
  <rect x="12" y="6" width="1" height="1" fill="#c6a641"/>
  <rect x="13" y="6" width="1" height="1" fill="#9a6c0a"/>
  <rect x="3" y="7" width="1" height="1" fill="#a26707"/>
  <rect x="4" y="7" width="1" height="1" fill="#dba739"/>
  <rect x="5" y="7" width="1" height="1" fill="#4c4801"/>
  <rect x="6" y="7" width="1" height="1" fill="#268094"/>
  <rect x="7" y="7" width="1" height="1" fill="#0087c6"/>
  <rect x="8" y="7" width="1" height="1" fill="#008cca"/>
  <rect x="9" y="7" width="1" height="1" fill="#118cb7"/>
  <rect x="10" y="7" width="1" height="1" fill="#257b80"/>
  <rect x="11" y="7" width="1" height="1" fill="#2d4f24"/>
  <rect x="12" y="7" width="1" height="1" fill="#c1a740"/>
  <rect x="13" y="7" width="1" height="1" fill="#976c0b"/>
  <rect x="3" y="8" width="1" height="1" fill="#a16805"/>
  <rect x="4" y="8" width="1" height="1" fill="#daa835"/>
  <rect x="5" y="8" width="1" height="1" fill="#504c04"/>
  <rect x="6" y="8" width="1" height="1" fill="#297e9a"/>
  <rect x="7" y="8" width="1" height="1" fill="#007ac5"/>
  <rect x="8" y="8" width="1" height="1" fill="#027fc7"/>
  <rect x="9" y="8" width="1" height="1" fill="#137fb1"/>
  <rect x="10" y="8" width="1" height="1" fill="#25747b"/>
  <rect x="11" y="8" width="1" height="1" fill="#325428"/>
  <rect x="12" y="8" width="1" height="1" fill="#c3a93d"/>
  <rect x="13" y="8" width="1" height="1" fill="#976f06"/>
  <rect x="3" y="9" width="1" height="1" fill="#9e6800"/>
  <rect x="4" y="9" width="1" height="1" fill="#d7a832"/>
  <rect x="5" y="9" width="1" height="1" fill="#504b00"/>
  <rect x="6" y="9" width="1" height="1" fill="#296d7f"/>
  <rect x="7" y="9" width="1" height="1" fill="#1479b7"/>
  <rect x="8" y="9" width="1" height="1" fill="#1372ab"/>
  <rect x="9" y="9" width="1" height="1" fill="#1d6e90"/>
  <rect x="10" y="9" width="1" height="1" fill="#356f69"/>
  <rect x="11" y="9" width="1" height="1" fill="#3a501b"/>
  <rect x="12" y="9" width="1" height="1" fill="#c6ab3e"/>
  <rect x="13" y="9" width="1" height="1" fill="#997106"/>
  <rect x="3" y="10" width="1" height="1" fill="#9e6900"/>
  <rect x="4" y="10" width="1" height="1" fill="#d7ad35"/>
  <rect x="5" y="10" width="1" height="1" fill="#584b00"/>
  <rect x="6" y="10" width="1" height="1" fill="#42665a"/>
  <rect x="7" y="10" width="1" height="1" fill="#256073"/>
  <rect x="8" y="10" width="1" height="1" fill="#376c77"/>
  <rect x="9" y="10" width="1" height="1" fill="#37615a"/>
  <rect x="10" y="10" width="1" height="1" fill="#425d36"/>
  <rect x="11" y="10" width="1" height="1" fill="#4e4e05"/>
  <rect x="12" y="10" width="1" height="1" fill="#cba436"/>
  <rect x="13" y="10" width="1" height="1" fill="#976c09"/>
  <rect x="3" y="11" width="1" height="1" fill="#9f6900"/>
  <rect x="4" y="11" width="1" height="1" fill="#d3a72d"/>
  <rect x="5" y="11" width="1" height="1" fill="#886e07"/>
  <rect x="6" y="11" width="1" height="1" fill="#494912"/>
  <rect x="7" y="11" width="1" height="1" fill="#384725"/>
  <rect x="8" y="11" width="1" height="1" fill="#37441b"/>
  <rect x="9" y="11" width="1" height="1" fill="#3f4810"/>
  <rect x="10" y="11" width="1" height="1" fill="#454400"/>
  <rect x="11" y="11" width="1" height="1" fill="#836f0f"/>
  <rect x="12" y="11" width="1" height="1" fill="#cfa12f"/>
  <rect x="13" y="11" width="1" height="1" fill="#966a0b"/>
  <rect x="3" y="12" width="1" height="1" fill="#a56900"/>
  <rect x="4" y="12" width="1" height="1" fill="#dca828"/>
  <rect x="5" y="12" width="1" height="1" fill="#d2a525"/>
  <rect x="6" y="12" width="1" height="1" fill="#cea93d"/>
  <rect x="7" y="12" width="1" height="1" fill="#caab48"/>
  <rect x="8" y="12" width="1" height="1" fill="#c1a845"/>
  <rect x="9" y="12" width="1" height="1" fill="#c6ae44"/>
  <rect x="10" y="12" width="1" height="1" fill="#c1a72e"/>
  <rect x="11" y="12" width="1" height="1" fill="#d0ab2f"/>
  <rect x="12" y="12" width="1" height="1" fill="#daa730"/>
  <rect x="13" y="12" width="1" height="1" fill="#9a6e14"/>
  <rect x="3" y="13" width="1" height="1" fill="#a26e14"/>
  <rect x="4" y="13" width="1" height="1" fill="#f5c44e"/>
  <rect x="5" y="13" width="1" height="1" fill="#754200"/>
  <rect x="6" y="13" width="1" height="1" fill="#dda423"/>
  <rect x="7" y="13" width="1" height="1" fill="#763d00"/>
  <rect x="8" y="13" width="1" height="1" fill="#784800"/>
  <rect x="9" y="13" width="1" height="1" fill="#6f4300"/>
  <rect x="10" y="13" width="1" height="1" fill="#d4a81c"/>
  <rect x="11" y="13" width="1" height="1" fill="#7a4800"/>
  <rect x="12" y="13" width="1" height="1" fill="#f4bd52"/>
  <rect x="13" y="13" width="1" height="1" fill="#986b1f"/>
  <rect x="3" y="14" width="1" height="1" fill="#745316c3"/>
  <rect x="4" y="14" width="1" height="1" fill="#916a0c"/>
  <rect x="5" y="14" width="1" height="1" fill="#eebf4d"/>
  <rect x="6" y="14" width="1" height="1" fill="#d89d2b"/>
  <rect x="7" y="14" width="1" height="1" fill="#e7a930"/>
  <rect x="8" y="14" width="1" height="1" fill="#d59c1d"/>
  <rect x="9" y="14" width="1" height="1" fill="#d8a21e"/>
  <rect x="10" y="14" width="1" height="1" fill="#d7a11b"/>
  <rect x="11" y="14" width="1" height="1" fill="#fdc551"/>
  <rect x="12" y="14" width="1" height="1" fill="#975d0d"/>
  <rect x="13" y="14" width="1" height="1" fill="#805324c3"/>
  <rect x="4" y="15" width="1" height="1" fill="#704d00c3"/>
  <rect x="5" y="15" width="1" height="1" fill="#9c6f08"/>
  <rect x="6" y="15" width="1" height="1" fill="#a66a00"/>
  <rect x="7" y="15" width="1" height="1" fill="#a96700"/>
  <rect x="8" y="15" width="1" height="1" fill="#a56700"/>
  <rect x="9" y="15" width="1" height="1" fill="#a16500"/>
  <rect x="10" y="15" width="1" height="1" fill="#a86d00"/>
  <rect x="11" y="15" width="1" height="1" fill="#9f6300"/>
  <rect x="12" y="15" width="1" height="1" fill="#894d09c3"/>
</svg>