<svg xmlns="http://www.w3.org/2000/svg" width="30" height="30" viewBox="0 0 30 30" shape-rendering="crispEdges">
  <rect x="10" y="4" width="1" height="1" fill="#26262620"/>
  <rect x="11" y="4" width="1" height="1" fill="#26262632"/>
  <rect x="12" y="4" width="2" height="1" fill="#22222233"/>
  <rect x="14" y="4" width="4" height="1" fill="#21212133"/>
  <rect x="18" y="4" width="4" height="1" fill="#1f1f1f33"/>
  <rect x="22" y="4" width="1" height="1" fill="#211f1f33"/>
  <rect x="23" y="4" width="1" height="1" fill="#211f1f32"/>
  <rect x="24" y="4" width="1" height="1" fill="#25222520"/>
  <rect x="9" y="5" width="1" height="1" fill="#26262622"/>
  <rect x="10" y="5" width="1" height="1" fill="#d5d5d58b"/>
  <rect x="11" y="5" width="1" height="1" fill="#ffffffd8"/>
  <rect x="12" y="5" width="10" height="1" fill="#ffffffdc"/>
  <rect x="22" y="5" width="1" height="1" fill="#fffeffdc"/>
  <rect x="23" y="5" width="1" height="1" fill="#fffeffd8"/>
  <rect x="24" y="5" width="1" height="1" fill="#d9d5d68b"/>
  <rect x="25" y="5" width="1" height="1" fill="#23242a22"/>
  <rect x="9" y="6" width="1" height="1" fill="#1e1e1e33"/>
  <rect x="10" y="6" width="1" height="1" fill="#fafafac6"/>
  <rect x="11" y="6" width="1" height="1" fill="#fdfdfdba"/>
  <rect x="12" y="6" width="2" height="1" fill="#fdfdfdb9"/>
  <rect x="14" y="6" width="2" height="1" fill="#fefefeb9"/>
  <rect x="16" y="6" width="7" height="1" fill="#ffffffb9"/>
  <rect x="23" y="6" width="1" height="1" fill="#ffffffba"/>
  <rect x="24" y="6" width="1" height="1" fill="#fbf6f8c6"/>
  <rect x="25" y="6" width="1" height="1" fill="#1c1d2333"/>
  <rect x="9" y="7" width="1" height="1" fill="#22262b2a"/>
  <rect x="10" y="7" width="1" height="1" fill="#d3d5d979"/>
  <rect x="11" y="7" width="1" height="1" fill="#ffffffb6"/>
  <rect x="12" y="7" width="2" height="1" fill="#fbfdffb9"/>
  <rect x="14" y="7" width="2" height="1" fill="#fbffffb9"/>
  <rect x="16" y="7" width="2" height="1" fill="#fcffffb9"/>
  <rect x="18" y="7" width="2" height="1" fill="#fdffffb9"/>
  <rect x="20" y="7" width="4" height="1" fill="#ffffffb9"/>
  <rect x="24" y="7" width="1" height="1" fill="#fffffeba"/>
  <rect x="25" y="7" width="1" height="1" fill="#1f222833"/>
  <rect x="26" y="7" width="1" height="1" fill="#2135470c"/>
  <rect x="9" y="8" width="1" height="1" fill="#232e3e1b"/>
  <rect x="10" y="8" width="1" height="1" fill="#20253134"/>
  <rect x="11" y="8" width="1" height="1" fill="#1f222a34"/>
  <rect x="12" y="8" width="1" height="1" fill="#21252a33"/>
  <rect x="13" y="8" width="1" height="1" fill="#181e2533"/>
  <rect x="14" y="8" width="1" height="1" fill="#16222c33"/>
  <rect x="15" y="8" width="1" height="1" fill="#15212833"/>
  <rect x="16" y="8" width="1" height="1" fill="#16232533"/>
  <rect x="17" y="8" width="1" height="1" fill="#1c292933"/>
  <rect x="18" y="8" width="1" height="1" fill="#17242733"/>
  <rect x="19" y="8" width="1" height="1" fill="#15222433"/>
  <rect x="20" y="8" width="1" height="1" fill="#212a2e33"/>
  <rect x="21" y="8" width="1" height="1" fill="#19202233"/>
  <rect x="22" y="8" width="2" height="1" fill="#ffffffb9"/>
  <rect x="24" y="8" width="1" height="1" fill="#fffffeb9"/>
  <rect x="25" y="8" width="1" height="1" fill="#1d232633"/>
  <rect x="26" y="8" width="1" height="1" fill="#2337490f"/>
  <rect x="9" y="9" width="1" height="1" fill="#2531480d"/>
  <rect x="10" y="9" width="1" height="1" fill="#22293721"/>
  <rect x="11" y="9" width="1" height="1" fill="#272a322f"/>
  <rect x="12" y="9" width="1" height="1" fill="#282c3130"/>
  <rect x="13" y="9" width="1" height="1" fill="#2d353b30"/>
  <rect x="14" y="9" width="1" height="1" fill="#26343f2f"/>
  <rect x="15" y="9" width="1" height="1" fill="#2335412f"/>
  <rect x="16" y="9" width="1" height="1" fill="#22333b2f"/>
  <rect x="17" y="9" width="1" height="1" fill="#1f323a2f"/>
  <rect x="18" y="9" width="1" height="1" fill="#21343e2f"/>
  <rect x="19" y="9" width="1" height="1" fill="#1e313a2f"/>
  <rect x="20" y="9" width="1" height="1" fill="#202d3439"/>
  <rect x="21" y="9" width="1" height="1" fill="#19222533"/>
  <rect x="22" y="9" width="1" height="1" fill="#ffffffb9"/>
  <rect x="23" y="9" width="1" height="1" fill="#fffffeb9"/>
  <rect x="24" y="9" width="1" height="1" fill="#fffffbb9"/>
  <rect x="25" y="9" width="1" height="1" fill="#1d232833"/>
  <rect x="26" y="9" width="1" height="1" fill="#2236480f"/>
  <rect x="10" y="10" width="1" height="1" fill="#24273227"/>
  <rect x="11" y="10" width="1" height="1" fill="#ebeaefa2"/>
  <rect x="12" y="10" width="1" height="1" fill="#5656583f"/>
  <rect x="13" y="10" width="1" height="1" fill="#272b2e26"/>
  <rect x="14" y="10" width="1" height="1" fill="#22303c12"/>
  <rect x="15" y="10" width="1" height="1" fill="#22364610"/>
  <rect x="16" y="10" width="1" height="1" fill="#2033480f"/>
  <rect x="17" y="10" width="1" height="1" fill="#21364c0f"/>
  <rect x="18" y="10" width="1" height="1" fill="#1d32490f"/>
  <rect x="19" y="10" width="1" height="1" fill="#2337490f"/>
  <rect x="20" y="10" width="1" height="1" fill="#22303e1e"/>
  <rect x="21" y="10" width="1" height="1" fill="#1b232a33"/>
  <rect x="22" y="10" width="1" height="1" fill="#fdffffb9"/>
  <rect x="23" y="10" width="1" height="1" fill="#fefdf9b9"/>
  <rect x="24" y="10" width="1" height="2" fill="#fffffdb9"/>
  <rect x="25" y="10" width="1" height="2" fill="#1c222733"/>
  <rect x="26" y="10" width="1" height="1" fill="#22354a0f"/>
  <rect x="10" y="11" width="1" height="1" fill="#21242c33"/>
  <rect x="11" y="11" width="1" height="1" fill="#ffffffc5"/>
  <rect x="12" y="11" width="1" height="1" fill="#f8f8f8c9"/>
  <rect x="13" y="11" width="1" height="1" fill="#abb0b163"/>
  <rect x="14" y="11" width="1" height="1" fill="#1c282f24"/>
  <rect x="15" y="11" width="1" height="1" fill="#1829350d"/>
  <rect x="20" y="11" width="1" height="1" fill="#2631400f"/>
  <rect x="21" y="11" width="1" height="1" fill="#1d252b33"/>
  <rect x="22" y="11" width="1" height="1" fill="#fcfffeb9"/>
  <rect x="23" y="11" width="1" height="1" fill="#fcfaf8b9"/>
  <rect x="26" y="11" width="1" height="1" fill="#2134490f"/>
  <rect x="4" y="12" width="1" height="1" fill="#1f252a20"/>
  <rect x="5" y="12" width="1" height="1" fill="#1f212133"/>
  <rect x="6" y="12" width="1" height="1" fill="#1d1f1c33"/>
  <rect x="7" y="12" width="1" height="1" fill="#1f212133"/>
  <rect x="8" y="12" width="1" height="1" fill="#1d232833"/>
  <rect x="9" y="12" width="1" height="1" fill="#1d232a33"/>
  <rect x="10" y="12" width="1" height="1" fill="#191f2633"/>
  <rect x="11" y="12" width="1" height="1" fill="#faffffb9"/>
  <rect x="12" y="12" width="1" height="1" fill="#f8feffbd"/>
  <rect x="13" y="12" width="1" height="1" fill="#fdffffd1"/>
  <rect x="14" y="12" width="1" height="1" fill="#dce3e397"/>
  <rect x="15" y="12" width="1" height="1" fill="#45494c3a"/>
  <rect x="16" y="12" width="1" height="1" fill="#24252b1b"/>
  <rect x="20" y="12" width="1" height="1" fill="#2b323b0f"/>
  <rect x="21" y="12" width="1" height="1" fill="#1b212533"/>
  <rect x="22" y="12" width="1" height="1" fill="#fdffffb9"/>
  <rect x="23" y="12" width="1" height="1" fill="#fcfcf9b9"/>
  <rect x="24" y="12" width="1" height="3" fill="#fffffeb9"/>
  <rect x="25" y="12" width="1" height="3" fill="#1d232833"/>
  <rect x="26" y="12" width="1" height="3" fill="#22354a0f"/>
  <rect x="4" y="13" width="1" height="1" fill="#18202633"/>
  <rect x="5" y="13" width="1" height="1" fill="#f7fcfcdc"/>
  <rect x="6" y="13" width="1" height="1" fill="#ffffffdc"/>
  <rect x="7" y="13" width="1" height="1" fill="#fafcfcdc"/>
  <rect x="8" y="13" width="1" height="1" fill="#fdffffdc"/>
  <rect x="9" y="13" width="1" height="1" fill="#fbffffdc"/>
  <rect x="10" y="13" width="1" height="1" fill="#f9ffffdc"/>
  <rect x="11" y="13" width="1" height="1" fill="#ffffffb9"/>
  <rect x="12" y="13" width="1" height="1" fill="#fdffffb9"/>
  <rect x="13" y="13" width="1" height="1" fill="#f9fffeb9"/>
  <rect x="14" y="13" width="1" height="1" fill="#fbfffcc7"/>
  <rect x="15" y="13" width="1" height="1" fill="#f7f8f3c3"/>
  <rect x="16" y="13" width="1" height="1" fill="#a09c9b59"/>
  <rect x="17" y="13" width="1" height="1" fill="#241f2123"/>
  <rect x="18" y="13" width="1" height="1" fill="#26282c0a"/>
  <rect x="20" y="13" width="1" height="1" fill="#2e31370f"/>
  <rect x="21" y="13" width="1" height="1" fill="#1c202533"/>
  <rect x="22" y="13" width="1" height="6" fill="#ffffffb9"/>
  <rect x="23" y="13" width="1" height="1" fill="#fcfbfcb9"/>
  <rect x="3" y="14" width="1" height="1" fill="#1f32450a"/>
  <rect x="4" y="14" width="1" height="1" fill="#16202833"/>
  <rect x="5" y="14" width="1" height="1" fill="#f6fafbb9"/>
  <rect x="6" y="14" width="2" height="1" fill="#fdffffb9"/>
  <rect x="8" y="14" width="1" height="1" fill="#ffffffb9"/>
  <rect x="9" y="14" width="1" height="1" fill="#fcfeffb9"/>
  <rect x="10" y="14" width="2" height="1" fill="#fdffffb9"/>
  <rect x="12" y="14" width="1" height="1" fill="#fcfffdb9"/>
  <rect x="13" y="14" width="1" height="1" fill="#fdfffcb9"/>
  <rect x="14" y="14" width="1" height="1" fill="#fdfffbb9"/>
  <rect x="15" y="14" width="1" height="1" fill="#fffffebe"/>
  <rect x="16" y="14" width="1" height="1" fill="#fffefad3"/>
  <rect x="17" y="14" width="1" height="1" fill="#dddedb8d"/>
  <rect x="18" y="14" width="1" height="1" fill="#31363637"/>
  <rect x="19" y="14" width="1" height="1" fill="#22282a10"/>
  <rect x="20" y="14" width="1" height="1" fill="#2e323510"/>
  <rect x="21" y="14" width="1" height="1" fill="#1e1f2333"/>
  <rect x="23" y="14" width="1" height="1" fill="#fdfbfcb9"/>
  <rect x="3" y="15" width="1" height="1" fill="#1d33470e"/>
  <rect x="4" y="15" width="1" height="1" fill="#18202633"/>
  <rect x="5" y="15" width="1" height="1" fill="#fcfffeb9"/>
  <rect x="6" y="15" width="1" height="1" fill="#ffffffb9"/>
  <rect x="7" y="15" width="1" height="1" fill="#fafcfeb9"/>
  <rect x="8" y="15" width="1" height="1" fill="#fcffffb9"/>
  <rect x="9" y="15" width="1" height="1" fill="#fbfdffb9"/>
  <rect x="10" y="15" width="3" height="1" fill="#ffffffb9"/>
  <rect x="13" y="15" width="1" height="1" fill="#fefffab9"/>
  <rect x="14" y="15" width="1" height="1" fill="#fffffeb9"/>
  <rect x="15" y="15" width="1" height="1" fill="#fffffcb9"/>
  <rect x="16" y="15" width="1" height="1" fill="#f8fbf5ba"/>
  <rect x="17" y="15" width="1" height="1" fill="#fafdf9c9"/>
  <rect x="18" y="15" width="1" height="1" fill="#e1e8e59e"/>
  <rect x="19" y="15" width="1" height="1" fill="#1b212124"/>
  <rect x="20" y="15" width="1" height="1" fill="#2e353712"/>
  <rect x="21" y="15" width="1" height="1" fill="#20222633"/>
  <rect x="23" y="15" width="1" height="1" fill="#fffdfeb9"/>
  <rect x="24" y="15" width="1" height="2" fill="#ffffffb9"/>
  <rect x="25" y="15" width="1" height="1" fill="#1e242933"/>
  <rect x="26" y="15" width="1" height="1" fill="#23374b0f"/>
  <rect x="3" y="16" width="1" height="1" fill="#1d33470f"/>
  <rect x="4" y="16" width="1" height="1" fill="#1e1f2333"/>
  <rect x="5" y="16" width="1" height="1" fill="#fffefcb9"/>
  <rect x="6" y="16" width="1" height="1" fill="#fffefdb9"/>
  <rect x="7" y="16" width="2" height="1" fill="#ffffffb9"/>
  <rect x="9" y="16" width="1" height="1" fill="#f4f7ffb9"/>
  <rect x="10" y="16" width="4" height="1" fill="#ffffffb9"/>
  <rect x="14" y="16" width="1" height="1" fill="#fcfbfcb9"/>
  <rect x="15" y="16" width="1" height="1" fill="#f9fbfab9"/>
  <rect x="16" y="16" width="1" height="1" fill="#fcfffeb8"/>
  <rect x="17" y="16" width="1" height="1" fill="#c4c9c77b"/>
  <rect x="18" y="16" width="1" height="1" fill="#373e3b37"/>
  <rect x="19" y="16" width="1" height="1" fill="#1c232317"/>
  <rect x="20" y="16" width="1" height="1" fill="#31373a13"/>
  <rect x="21" y="16" width="1" height="1" fill="#21252833"/>
  <rect x="23" y="16" width="1" height="1" fill="#fffffeb9"/>
  <rect x="25" y="16" width="1" height="1" fill="#1f252a33"/>
  <rect x="26" y="16" width="1" height="1" fill="#24384d0f"/>
  <rect x="3" y="17" width="1" height="1" fill="#1d33450e"/>
  <rect x="4" y="17" width="1" height="1" fill="#1b1f2233"/>
  <rect x="5" y="17" width="1" height="1" fill="#fffffcb9"/>
  <rect x="6" y="17" width="1" height="1" fill="#fcfbfeb9"/>
  <rect x="7" y="17" width="1" height="1" fill="#ffffffb9"/>
  <rect x="8" y="17" width="1" height="1" fill="#feffffb9"/>
  <rect x="9" y="17" width="1" height="1" fill="#fdffffb9"/>
  <rect x="10" y="17" width="1" height="1" fill="#fcf9feb9"/>
  <rect x="11" y="17" width="1" height="1" fill="#fcf4f7b9"/>
  <rect x="12" y="17" width="1" height="1" fill="#fffafdb9"/>
  <rect x="13" y="17" width="1" height="1" fill="#fffeffb9"/>
  <rect x="14" y="17" width="1" height="1" fill="#ffffffb9"/>
  <rect x="15" y="17" width="1" height="1" fill="#edf3f8a7"/>
  <rect x="16" y="17" width="1" height="1" fill="#8d989b53"/>
  <rect x="17" y="17" width="1" height="1" fill="#24313337"/>
  <rect x="18" y="17" width="1" height="1" fill="#2a373922"/>
  <rect x="19" y="17" width="1" height="1" fill="#232e310c"/>
  <rect x="20" y="17" width="1" height="1" fill="#2c343a12"/>
  <rect x="21" y="17" width="1" height="1" fill="#1d212533"/>
  <rect x="23" y="17" width="1" height="1" fill="#fffbfbb9"/>
  <rect x="24" y="17" width="1" height="1" fill="#fffdfcb9"/>
  <rect x="25" y="17" width="1" height="1" fill="#1b212533"/>
  <rect x="26" y="17" width="1" height="1" fill="#2033480f"/>
  <rect x="3" y="18" width="1" height="1" fill="#1b34430a"/>
  <rect x="4" y="18" width="1" height="1" fill="#1c292d2b"/>
  <rect x="5" y="18" width="1" height="1" fill="#212a2c33"/>
  <rect x="6" y="18" width="1" height="1" fill="#13222833"/>
  <rect x="7" y="18" width="1" height="1" fill="#14232c33"/>
  <rect x="8" y="18" width="1" height="1" fill="#1d273333"/>
  <rect x="9" y="18" width="1" height="1" fill="#1c1f2a33"/>
  <rect x="10" y="18" width="1" height="1" fill="#25212733"/>
  <rect x="11" y="18" width="2" height="1" fill="#fffbffb9"/>
  <rect x="13" y="18" width="1" height="1" fill="#f8f5fbb8"/>
  <rect x="14" y="18" width="1" height="1" fill="#dee0eb83"/>
  <rect x="15" y="18" width="1" height="1" fill="#35414d39"/>
  <rect x="16" y="18" width="1" height="1" fill="#162b3937"/>
  <rect x="17" y="18" width="1" height="1" fill="#1e374324"/>
  <rect x="18" y="18" width="1" height="1" fill="#223c4811"/>
  <rect x="20" y="18" width="1" height="1" fill="#2b374011"/>
  <rect x="21" y="18" width="1" height="1" fill="#20232933"/>
  <rect x="23" y="18" width="1" height="2" fill="#fffdfbb9"/>
  <rect x="24" y="18" width="1" height="1" fill="#fffffeb9"/>
  <rect x="25" y="18" width="1" height="1" fill="#1d232833"/>
  <rect x="26" y="18" width="1" height="1" fill="#22354a0f"/>
  <rect x="4" y="19" width="1" height="1" fill="#1f323c0f"/>
  <rect x="5" y="19" width="1" height="1" fill="#1c2d351f"/>
  <rect x="6" y="19" width="1" height="1" fill="#263b462a"/>
  <rect x="7" y="19" width="1" height="1" fill="#283b492f"/>
  <rect x="8" y="19" width="1" height="1" fill="#202d3d2f"/>
  <rect x="9" y="19" width="1" height="1" fill="#29304039"/>
  <rect x="10" y="19" width="1" height="1" fill="#20212c33"/>
  <rect x="11" y="19" width="1" height="1" fill="#f9f8ffb9"/>
  <rect x="12" y="19" width="1" height="1" fill="#f9f8ffac"/>
  <rect x="13" y="19" width="1" height="1" fill="#a3a3ae59"/>
  <rect x="14" y="19" width="1" height="1" fill="#242a3a3d"/>
  <rect x="15" y="19" width="1" height="1" fill="#1c2b3d32"/>
  <rect x="16" y="19" width="1" height="1" fill="#1c37491b"/>
  <rect x="17" y="19" width="1" height="1" fill="#1433460d"/>
  <rect x="20" y="19" width="1" height="1" fill="#2735400f"/>
  <rect x="21" y="19" width="1" height="1" fill="#1c212933"/>
  <rect x="22" y="19" width="1" height="1" fill="#fffffeb9"/>
  <rect x="24" y="19" width="1" height="1" fill="#fffffdb9"/>
  <rect x="25" y="19" width="1" height="1" fill="#1c222733"/>
  <rect x="26" y="19" width="1" height="1" fill="#2134490f"/>
  <rect x="5" y="20" width="1" height="1" fill="#1c30440a"/>
  <rect x="6" y="20" width="1" height="1" fill="#1c30440e"/>
  <rect x="7" y="20" width="1" height="1" fill="#1c2f460f"/>
  <rect x="8" y="20" width="1" height="1" fill="#23364d0f"/>
  <rect x="9" y="20" width="1" height="1" fill="#25344a1a"/>
  <rect x="10" y="20" width="1" height="1" fill="#1e273932"/>
  <rect x="11" y="20" width="1" height="1" fill="#dee5f28b"/>
  <rect x="12" y="20" width="1" height="1" fill="#4b52603c"/>
  <rect x="13" y="20" width="1" height="1" fill="#242d3e39"/>
  <rect x="14" y="20" width="1" height="1" fill="#1f2e4426"/>
  <rect x="15" y="20" width="1" height="1" fill="#1a2f4514"/>
  <rect x="20" y="20" width="1" height="1" fill="#2937430f"/>
  <rect x="21" y="20" width="1" height="1" fill="#1e242b33"/>
  <rect x="22" y="20" width="1" height="1" fill="#ffffffb9"/>
  <rect x="23" y="20" width="1" height="1" fill="#fffffeb9"/>
  <rect x="24" y="20" width="1" height="1" fill="#ffffffb9"/>
  <rect x="25" y="20" width="1" height="2" fill="#1e242933"/>
  <rect x="26" y="20" width="1" height="2" fill="#23374b0f"/>
  <rect x="10" y="21" width="1" height="1" fill="#2930401e"/>
  <rect x="11" y="21" width="1" height="1" fill="#1f24302f"/>
  <rect x="12" y="21" width="1" height="1" fill="#2c313d2b"/>
  <rect x="13" y="21" width="1" height="1" fill="#29303e1d"/>
  <rect x="14" y="21" width="1" height="1" fill="#2835470e"/>
  <rect x="20" y="21" width="1" height="1" fill="#28353e0f"/>
  <rect x="21" y="21" width="1" height="1" fill="#272a3033"/>
  <rect x="22" y="21" width="1" height="1" fill="#fcfaf8b9"/>
  <rect x="23" y="21" width="2" height="1" fill="#ffffffb9"/>
  <rect x="9" y="22" width="1" height="1" fill="#2525310d"/>
  <rect x="10" y="22" width="1" height="1" fill="#251f2625"/>
  <rect x="11" y="22" width="1" height="1" fill="#271f2233"/>
  <rect x="12" y="22" width="1" height="1" fill="#1e171a33"/>
  <rect x="13" y="22" width="1" height="1" fill="#2e292d33"/>
  <rect x="14" y="22" width="1" height="1" fill="#26272e33"/>
  <rect x="15" y="22" width="1" height="1" fill="#1c222733"/>
  <rect x="16" y="22" width="1" height="1" fill="#1a232733"/>
  <rect x="17" y="22" width="1" height="1" fill="#1c272a33"/>
  <rect x="18" y="22" width="1" height="1" fill="#0e191c33"/>
  <rect x="19" y="22" width="1" height="1" fill="#17222533"/>
  <rect x="20" y="22" width="1" height="1" fill="#1e242933"/>
  <rect x="21" y="22" width="1" height="1" fill="#1b1f2233"/>
  <rect x="22" y="22" width="1" height="1" fill="#f6f4f2b9"/>
  <rect x="23" y="22" width="1" height="1" fill="#fefdf9b9"/>
  <rect x="24" y="22" width="1" height="1" fill="#fafbf8b9"/>
  <rect x="25" y="22" width="1" height="1" fill="#171d2233"/>
  <rect x="26" y="22" width="1" height="1" fill="#1c30420f"/>
  <rect x="9" y="23" width="1" height="1" fill="#31313323"/>
  <rect x="10" y="23" width="1" height="1" fill="#dedad98b"/>
  <rect x="11" y="23" width="1" height="1" fill="#fffcfad8"/>
  <rect x="12" y="23" width="1" height="1" fill="#fffdfbdc"/>
  <rect x="13" y="23" width="1" height="1" fill="#ffffffdc"/>
  <rect x="14" y="23" width="1" height="1" fill="#f9faf7dc"/>
  <rect x="15" y="23" width="1" height="1" fill="#fcfffcdc"/>
  <rect x="16" y="23" width="2" height="1" fill="#ffffffdc"/>
  <rect x="18" y="23" width="1" height="1" fill="#f7fcfadc"/>
  <rect x="19" y="23" width="1" height="1" fill="#f5f9fadc"/>
  <rect x="20" y="23" width="1" height="1" fill="#ffffffdc"/>
  <rect x="21" y="23" width="1" height="1" fill="#fafcfedc"/>
  <rect x="22" y="23" width="1" height="1" fill="#f8f8f6b9"/>
  <rect x="23" y="23" width="1" height="1" fill="#fffffeb9"/>
  <rect x="24" y="23" width="1" height="1" fill="#fbffffb9"/>
  <rect x="25" y="23" width="1" height="1" fill="#19232b33"/>
  <rect x="26" y="23" width="1" height="1" fill="#1e34480f"/>
  <rect x="9" y="24" width="1" height="1" fill="#17201d33"/>
  <rect x="10" y="24" width="1" height="1" fill="#fbfffec6"/>
  <rect x="11" y="24" width="1" height="1" fill="#fbfffeba"/>
  <rect x="12" y="24" width="1" height="1" fill="#f7fef9b9"/>
  <rect x="13" y="24" width="1" height="2" fill="#feffffb9"/>
  <rect x="14" y="24" width="1" height="1" fill="#fafffeb9"/>
  <rect x="15" y="24" width="1" height="1" fill="#fafffcb9"/>
  <rect x="16" y="24" width="1" height="1" fill="#fbfffdb9"/>
  <rect x="17" y="24" width="1" height="1" fill="#ffffffb9"/>
  <rect x="18" y="24" width="1" height="1" fill="#fdfffeb9"/>
  <rect x="19" y="24" width="3" height="1" fill="#ffffffb9"/>
  <rect x="22" y="24" width="1" height="1" fill="#fcffffb9"/>
  <rect x="23" y="24" width="1" height="1" fill="#f7ffffb9"/>
  <rect x="24" y="24" width="1" height="1" fill="#fbffffb6"/>
  <rect x="25" y="24" width="1" height="1" fill="#15293933"/>
  <rect x="26" y="24" width="1" height="1" fill="#142c420f"/>
  <rect x="9" y="25" width="1" height="1" fill="#202e2e2a"/>
  <rect x="10" y="25" width="1" height="1" fill="#c5d2d279"/>
  <rect x="11" y="25" width="1" height="1" fill="#f4ffffb6"/>
  <rect x="12" y="25" width="1" height="1" fill="#f8ffffb9"/>
  <rect x="14" y="25" width="1" height="1" fill="#fcffffb9"/>
  <rect x="15" y="25" width="1" height="1" fill="#fbffffb9"/>
  <rect x="16" y="25" width="1" height="1" fill="#fcffffb9"/>
  <rect x="17" y="25" width="6" height="1" fill="#ffffffb9"/>
  <rect x="23" y="25" width="1" height="1" fill="#f9ffffb6"/>
  <rect x="24" y="25" width="1" height="1" fill="#c4d7e579"/>
  <rect x="25" y="25" width="1" height="1" fill="#132b3f2e"/>
  <rect x="26" y="25" width="1" height="1" fill="#1a34490c"/>
  <rect x="9" y="26" width="1" height="1" fill="#26343f1b"/>
  <rect x="10" y="26" width="1" height="1" fill="#19273234"/>
  <rect x="11" y="26" width="1" height="1" fill="#18263134"/>
  <rect x="12" y="26" width="1" height="1" fill="#111f2a33"/>
  <rect x="13" y="26" width="1" height="1" fill="#17253033"/>
  <rect x="14" y="26" width="1" height="1" fill="#15242b33"/>
  <rect x="15" y="26" width="1" height="1" fill="#14242833"/>
  <rect x="16" y="26" width="1" height="1" fill="#15252733"/>
  <rect x="17" y="26" width="1" height="1" fill="#19272933"/>
  <rect x="18" y="26" width="1" height="1" fill="#19212833"/>
  <rect x="19" y="26" width="1" height="1" fill="#1c212b33"/>
  <rect x="20" y="26" width="2" height="1" fill="#1d222e33"/>
  <rect x="22" y="26" width="1" height="1" fill="#16212633"/>
  <rect x="23" y="26" width="1" height="1" fill="#12202934"/>
  <rect x="24" y="26" width="1" height="1" fill="#0e223234"/>
  <rect x="25" y="26" width="1" height="1" fill="#1a32461d"/>
  <rect x="9" y="27" width="1" height="1" fill="#2132480c"/>
  <rect x="10" y="27" width="1" height="1" fill="#1c2d421a"/>
  <rect x="11" y="27" width="1" height="1" fill="#1a2b4126"/>
  <rect x="12" y="27" width="1" height="1" fill="#1a2b412d"/>
  <rect x="13" y="27" width="1" height="1" fill="#2133462f"/>
  <rect x="14" y="27" width="1" height="1" fill="#1f31422f"/>
  <rect x="15" y="27" width="1" height="1" fill="#1f323e2f"/>
  <rect x="16" y="27" width="1" height="1" fill="#22323d2f"/>
  <rect x="17" y="27" width="1" height="1" fill="#26343f2f"/>
  <rect x="18" y="27" width="1" height="1" fill="#242f3e2f"/>
  <rect x="19" y="27" width="1" height="1" fill="#272f412f"/>
  <rect x="20" y="27" width="1" height="1" fill="#292f442f"/>
  <rect x="21" y="27" width="1" height="1" fill="#2830422f"/>
  <rect x="22" y="27" width="1" height="1" fill="#232e3c2d"/>
  <rect x="23" y="27" width="1" height="1" fill="#1e2e3b26"/>
  <rect x="24" y="27" width="1" height="1" fill="#2034461a"/>
  <rect x="25" y="27" width="1" height="1" fill="#1f374a0c"/>
  <rect x="11" y="28" width="1" height="1" fill="#1f314d0c"/>
  <rect x="12" y="28" width="1" height="1" fill="#192b470f"/>
  <rect x="13" y="28" width="1" height="1" fill="#20324e0f"/>
  <rect x="14" y="28" width="1" height="1" fill="#1d304a0f"/>
  <rect x="15" y="28" width="1" height="1" fill="#1d31460f"/>
  <rect x="16" y="28" width="1" height="1" fill="#1f32450f"/>
  <rect x="17" y="28" width="1" height="1" fill="#2435480f"/>
  <rect x="18" y="28" width="1" height="1" fill="#2230470f"/>
  <rect x="19" y="28" width="1" height="1" fill="#25304a0f"/>
  <rect x="20" y="28" width="1" height="1" fill="#27304d0f"/>
  <rect x="21" y="28" width="1" height="1" fill="#26324b0f"/>
  <rect x="22" y="28" width="1" height="1" fill="#212f460f"/>
  <rect x="23" y="28" width="1" height="1" fill="#2032450c"/>
</svg>