<svg xmlns="http://www.w3.org/2000/svg" width="15" height="15" viewBox="0 0 15 15" shape-rendering="crispEdges">
  <rect x="1" y="0" width="1" height="1" fill="#4dafce26"/>
  <rect x="2" y="0" width="1" height="1" fill="#48a4b98f"/>
  <rect x="3" y="0" width="1" height="1" fill="#4ea8bcc9"/>
  <rect x="4" y="0" width="1" height="1" fill="#49a9c2c9"/>
  <rect x="5" y="0" width="1" height="1" fill="#409eb5c9"/>
  <rect x="6" y="0" width="1" height="1" fill="#55a4b4c9"/>
  <rect x="7" y="0" width="1" height="1" fill="#59a2b2c9"/>
  <rect x="8" y="0" width="1" height="1" fill="#5aa4bbc9"/>
  <rect x="9" y="0" width="1" height="1" fill="#53a3bcc9"/>
  <rect x="10" y="0" width="1" height="1" fill="#4cadc3c9"/>
  <rect x="11" y="0" width="1" height="1" fill="#43adc0b4"/>
  <rect x="12" y="0" width="1" height="1" fill="#3daebe68"/>
  <rect x="13" y="0" width="1" height="1" fill="#35a4b59e"/>
  <rect x="14" y="0" width="1" height="1" fill="#45aebf35"/>
  <rect x="0" y="1" width="1" height="1" fill="#55abce37"/>
  <rect x="1" y="1" width="1" height="1" fill="#57a9c6"/>
  <rect x="2" y="1" width="1" height="1" fill="#86d2e8"/>
  <rect x="3" y="1" width="1" height="1" fill="#85d1e5"/>
  <rect x="4" y="1" width="1" height="1" fill="#72c5db"/>
  <rect x="5" y="1" width="1" height="1" fill="#5eacc2"/>
  <rect x="6" y="1" width="1" height="1" fill="#7bbdcd"/>
  <rect x="7" y="1" width="1" height="1" fill="#9ad8e7"/>
  <rect x="8" y="1" width="1" height="1" fill="#9fe4f8"/>
  <rect x="9" y="1" width="1" height="1" fill="#92e2f9"/>
  <rect x="10" y="1" width="1" height="1" fill="#80e0f6"/>
  <rect x="11" y="1" width="1" height="1" fill="#39a5b9"/>
  <rect x="12" y="1" width="1" height="1" fill="#2a9bae"/>
  <rect x="13" y="1" width="1" height="1" fill="#2695a6"/>
  <rect x="14" y="1" width="1" height="1" fill="#40a6b69e"/>
  <rect x="0" y="2" width="1" height="1" fill="#5e96b8a0"/>
  <rect x="1" y="2" width="1" height="1" fill="#96cae6"/>
  <rect x="2" y="2" width="1" height="1" fill="#c9f5ff"/>
  <rect x="3" y="2" width="1" height="1" fill="#add9ec"/>
  <rect x="4" y="2" width="1" height="1" fill="#9acde2"/>
  <rect x="5" y="2" width="1" height="1" fill="#a6d7eb"/>
  <rect x="6" y="2" width="1" height="1" fill="#d1f5ff"/>
  <rect x="7" y="2" width="1" height="1" fill="#dcffff"/>
  <rect x="8" y="2" width="1" height="1" fill="#cbffff"/>
  <rect x="9" y="2" width="1" height="1" fill="#9ceaff"/>
  <rect x="10" y="2" width="1" height="1" fill="#5ec0da"/>
  <rect x="11" y="2" width="1" height="1" fill="#39a9c3"/>
  <rect x="12" y="2" width="1" height="1" fill="#289bb4"/>
  <rect x="13" y="2" width="1" height="1" fill="#2793aa"/>
  <rect x="14" y="2" width="1" height="1" fill="#46a3b481"/>
  <rect x="0" y="3" width="1" height="1" fill="#6c9cb7f2"/>
  <rect x="1" y="3" width="1" height="1" fill="#9dc6df"/>
  <rect x="2" y="3" width="1" height="1" fill="#b8d5e6"/>
  <rect x="3" y="3" width="1" height="1" fill="#c8e0f1"/>
  <rect x="4" y="3" width="1" height="1" fill="#cbeaff"/>
  <rect x="5" y="3" width="1" height="1" fill="#cdecff"/>
  <rect x="6" y="3" width="1" height="1" fill="#e1fbff"/>
  <rect x="7" y="3" width="1" height="1" fill="#d5f8ff"/>
  <rect x="8" y="3" width="1" height="1" fill="#8fccde"/>
  <rect x="9" y="3" width="1" height="1" fill="#4da2bc"/>
  <rect x="10" y="3" width="1" height="1" fill="#3ea7c3"/>
  <rect x="11" y="3" width="1" height="1" fill="#40b1d1"/>
  <rect x="12" y="3" width="1" height="1" fill="#35a8c8"/>
  <rect x="13" y="3" width="1" height="1" fill="#319cb7"/>
  <rect x="14" y="3" width="1" height="1" fill="#4aa4bcbd"/>
  <rect x="0" y="4" width="1" height="1" fill="#5d99acee"/>
  <rect x="1" y="4" width="1" height="1" fill="#81b2c4"/>
  <rect x="2" y="4" width="1" height="1" fill="#d5eefc"/>
  <rect x="3" y="4" width="1" height="1" fill="#ecfcff"/>
  <rect x="4" y="4" width="1" height="1" fill="#d6ecff"/>
  <rect x="5" y="4" width="1" height="1" fill="#d4f1ff"/>
  <rect x="6" y="4" width="1" height="1" fill="#dfffff"/>
  <rect x="7" y="4" width="1" height="1" fill="#9fd0d7"/>
  <rect x="8" y="4" width="1" height="1" fill="#4c97b0"/>
  <rect x="9" y="4" width="1" height="1" fill="#45a6c7"/>
  <rect x="10" y="4" width="1" height="1" fill="#41b0d3"/>
  <rect x="11" y="4" width="1" height="1" fill="#3db1d7"/>
  <rect x="12" y="4" width="1" height="1" fill="#34a6cd"/>
  <rect x="13" y="4" width="1" height="1" fill="#2c96bb"/>
  <rect x="14" y="4" width="1" height="1" fill="#4da7cbe5"/>
  <rect x="0" y="5" width="1" height="1" fill="#5e9baded"/>
  <rect x="1" y="5" width="1" height="1" fill="#a8daeb"/>
  <rect x="2" y="5" width="1" height="1" fill="#daf7ff"/>
  <rect x="3" y="5" width="1" height="1" fill="#e5f9ff"/>
  <rect x="4" y="5" width="1" height="1" fill="#c3ddf2"/>
  <rect x="5" y="5" width="1" height="1" fill="#d2f2ff"/>
  <rect x="6" y="5" width="1" height="1" fill="#e6ffff"/>
  <rect x="7" y="5" width="1" height="1" fill="#90c1ca"/>
  <rect x="8" y="5" width="1" height="1" fill="#4c9cb7"/>
  <rect x="9" y="5" width="1" height="1" fill="#47a8cc"/>
  <rect x="10" y="5" width="1" height="1" fill="#45abcb"/>
  <rect x="11" y="5" width="1" height="1" fill="#3ea6c5"/>
  <rect x="12" y="5" width="1" height="1" fill="#3b9fbf"/>
  <rect x="13" y="5" width="1" height="1" fill="#55b1d4"/>
  <rect x="14" y="5" width="1" height="1" fill="#489ac2e0"/>
  <rect x="0" y="6" width="1" height="1" fill="#6695b3ed"/>
  <rect x="1" y="6" width="1" height="1" fill="#c9f4ff"/>
  <rect x="2" y="6" width="1" height="1" fill="#d3f9ff"/>
  <rect x="3" y="6" width="1" height="1" fill="#acd2e0"/>
  <rect x="4" y="6" width="1" height="1" fill="#7daabd"/>
  <rect x="5" y="6" width="1" height="1" fill="#ccf4ff"/>
  <rect x="6" y="6" width="1" height="1" fill="#e0faff"/>
  <rect x="7" y="6" width="1" height="1" fill="#b3d7e6"/>
  <rect x="8" y="6" width="1" height="1" fill="#529bb7"/>
  <rect x="9" y="6" width="1" height="1" fill="#449dba"/>
  <rect x="10" y="6" width="1" height="1" fill="#50a1b3"/>
  <rect x="11" y="6" width="1" height="1" fill="#60abb8"/>
  <rect x="12" y="6" width="1" height="1" fill="#a0e6f5"/>
  <rect x="13" y="6" width="1" height="1" fill="#b0f3ff"/>
  <rect x="14" y="6" width="1" height="1" fill="#5a9dc1e9"/>
  <rect x="0" y="7" width="1" height="1" fill="#6b91b2ed"/>
  <rect x="1" y="7" width="1" height="1" fill="#cdf4ff"/>
  <rect x="2" y="7" width="1" height="1" fill="#c8f2ff"/>
  <rect x="3" y="7" width="1" height="1" fill="#6f9cab"/>
  <rect x="4" y="7" width="1" height="1" fill="#6091a5"/>
  <rect x="5" y="7" width="1" height="1" fill="#b3ddf3"/>
  <rect x="6" y="7" width="1" height="1" fill="#e0f9ff"/>
  <rect x="7" y="7" width="1" height="1" fill="#dafaff"/>
  <rect x="8" y="7" width="1" height="1" fill="#99d6ea"/>
  <rect x="9" y="7" width="1" height="1" fill="#7fc5d6"/>
  <rect x="10" y="7" width="1" height="1" fill="#97d4db"/>
  <rect x="11" y="7" width="1" height="1" fill="#c6fcff"/>
  <rect x="12" y="7" width="1" height="1" fill="#d8ffff"/>
  <rect x="13" y="7" width="1" height="1" fill="#ccffff"/>
  <rect x="14" y="7" width="1" height="1" fill="#5b92b6ee"/>
  <rect x="0" y="8" width="1" height="1" fill="#7395b2ed"/>
  <rect x="1" y="8" width="1" height="1" fill="#d2f5ff"/>
  <rect x="2" y="8" width="1" height="1" fill="#c4e8fa"/>
  <rect x="3" y="8" width="1" height="1" fill="#6a91a1"/>
  <rect x="4" y="8" width="1" height="1" fill="#6a8fa9"/>
  <rect x="5" y="8" width="1" height="1" fill="#7b9db8"/>
  <rect x="6" y="8" width="1" height="1" fill="#d3efff"/>
  <rect x="7" y="8" width="1" height="1" fill="#dbf8ff"/>
  <rect x="8" y="8" width="1" height="1" fill="#d9ffff"/>
  <rect x="9" y="8" width="1" height="1" fill="#d7ffff"/>
  <rect x="10" y="8" width="2" height="1" fill="#d9ffff"/>
  <rect x="12" y="8" width="1" height="1" fill="#e1ffff"/>
  <rect x="13" y="8" width="1" height="1" fill="#b0dcf4"/>
  <rect x="14" y="8" width="1" height="1" fill="#6290bce9"/>
  <rect x="0" y="9" width="1" height="1" fill="#708db1ed"/>
  <rect x="1" y="9" width="1" height="1" fill="#cae7ff"/>
  <rect x="2" y="9" width="1" height="1" fill="#d4f4ff"/>
  <rect x="3" y="9" width="1" height="1" fill="#7a99aa"/>
  <rect x="4" y="9" width="1" height="1" fill="#6f8da9"/>
  <rect x="5" y="9" width="1" height="1" fill="#6784a3"/>
  <rect x="6" y="9" width="1" height="1" fill="#85a0bb"/>
  <rect x="7" y="9" width="1" height="1" fill="#c0dbef"/>
  <rect x="8" y="9" width="1" height="1" fill="#d9f3ff"/>
  <rect x="9" y="9" width="2" height="1" fill="#e7ffff"/>
  <rect x="11" y="9" width="1" height="1" fill="#d6f5fc"/>
  <rect x="12" y="9" width="1" height="1" fill="#abcddd"/>
  <rect x="13" y="9" width="1" height="1" fill="#7297b4"/>
  <rect x="14" y="9" width="1" height="1" fill="#668ab7e0"/>
  <rect x="0" y="10" width="1" height="1" fill="#7087b8ed"/>
  <rect x="1" y="10" width="1" height="1" fill="#d4eeff"/>
  <rect x="2" y="10" width="1" height="1" fill="#dffcff"/>
  <rect x="3" y="10" width="1" height="1" fill="#bbd9e6"/>
  <rect x="4" y="10" width="1" height="1" fill="#728ea4"/>
  <rect x="5" y="10" width="1" height="1" fill="#7a93b2"/>
  <rect x="6" y="10" width="1" height="1" fill="#768eb1"/>
  <rect x="7" y="10" width="1" height="1" fill="#7086ac"/>
  <rect x="8" y="10" width="1" height="1" fill="#849abe"/>
  <rect x="9" y="10" width="1" height="1" fill="#94a7ca"/>
  <rect x="10" y="10" width="1" height="1" fill="#92a9c6"/>
  <rect x="11" y="10" width="1" height="1" fill="#839cb8"/>
  <rect x="12" y="10" width="1" height="1" fill="#809bb8"/>
  <rect x="13" y="10" width="1" height="1" fill="#6e8bac"/>
  <rect x="14" y="10" width="1" height="1" fill="#6885b0e1"/>
  <rect x="0" y="11" width="1" height="1" fill="#697bb5ed"/>
  <rect x="1" y="11" width="1" height="1" fill="#b6caf8"/>
  <rect x="2" y="11" width="1" height="1" fill="#eaffff"/>
  <rect x="3" y="11" width="1" height="1" fill="#e7ffff"/>
  <rect x="4" y="11" width="1" height="1" fill="#98afc7"/>
  <rect x="5" y="11" width="1" height="1" fill="#7086a8"/>
  <rect x="6" y="11" width="1" height="1" fill="#6f84af"/>
  <rect x="7" y="11" width="1" height="1" fill="#7687b7"/>
  <rect x="8" y="11" width="1" height="1" fill="#7182b3"/>
  <rect x="9" y="11" width="1" height="1" fill="#7182b1"/>
  <rect x="10" y="11" width="1" height="1" fill="#7183af"/>
  <rect x="11" y="11" width="1" height="1" fill="#6f84af"/>
  <rect x="12" y="11" width="1" height="1" fill="#7b90b8"/>
  <rect x="13" y="11" width="1" height="1" fill="#6c83ae"/>
  <rect x="14" y="11" width="1" height="1" fill="#7289b5e5"/>
  <rect x="0" y="12" width="1" height="1" fill="#7480c0f1"/>
  <rect x="1" y="12" width="1" height="1" fill="#7583b7"/>
  <rect x="2" y="12" width="1" height="1" fill="#e5f7ff"/>
  <rect x="3" y="12" width="1" height="1" fill="#edffff"/>
  <rect x="4" y="12" width="1" height="1" fill="#dff1ff"/>
  <rect x="5" y="12" width="1" height="1" fill="#7d8db5"/>
  <rect x="6" y="12" width="1" height="1" fill="#7281b3"/>
  <rect x="7" y="12" width="1" height="1" fill="#7d8bbf"/>
  <rect x="8" y="12" width="2" height="1" fill="#7482b4"/>
  <rect x="10" y="12" width="2" height="1" fill="#7482b6"/>
  <rect x="12" y="12" width="1" height="1" fill="#7583b9"/>
  <rect x="13" y="12" width="1" height="1" fill="#6f7bb0"/>
  <rect x="14" y="12" width="1" height="1" fill="#7581b6b3"/>
  <rect x="0" y="13" width="1" height="1" fill="#777ec0dd"/>
  <rect x="1" y="13" width="1" height="1" fill="#6972aa"/>
  <rect x="2" y="13" width="1" height="1" fill="#9eabcd"/>
  <rect x="3" y="13" width="1" height="1" fill="#e2efff"/>
  <rect x="4" y="13" width="1" height="1" fill="#e8f4ff"/>
  <rect x="5" y="13" width="1" height="1" fill="#b7c1f2"/>
  <rect x="6" y="13" width="1" height="1" fill="#7480b5"/>
  <rect x="7" y="13" width="1" height="1" fill="#7480b7"/>
  <rect x="8" y="13" width="1" height="1" fill="#7482b6"/>
  <rect x="9" y="13" width="1" height="1" fill="#7482b8"/>
  <rect x="10" y="13" width="1" height="1" fill="#7481bc"/>
  <rect x="11" y="13" width="1" height="1" fill="#7580bc"/>
  <rect x="12" y="13" width="1" height="1" fill="#7379b4"/>
  <rect x="13" y="13" width="1" height="1" fill="#7075aa"/>
  <rect x="14" y="13" width="1" height="1" fill="#7e82b04a"/>
  <rect x="0" y="14" width="1" height="1" fill="#7c82c074"/>
  <rect x="1" y="14" width="1" height="1" fill="#7b82b8dd"/>
  <rect x="2" y="14" width="1" height="1" fill="#737ca6ee"/>
  <rect x="3" y="14" width="1" height="1" fill="#7c85afee"/>
  <rect x="4" y="14" width="1" height="1" fill="#7b82b6ee"/>
  <rect x="5" y="14" width="1" height="1" fill="#777eb7ee"/>
  <rect x="6" y="14" width="1" height="1" fill="#747bb1ee"/>
  <rect x="7" y="14" width="1" height="1" fill="#767fb5ee"/>
  <rect x="8" y="14" width="1" height="1" fill="#7481bcee"/>
  <rect x="9" y="14" width="1" height="1" fill="#7281c0ee"/>
  <rect x="10" y="14" width="1" height="1" fill="#7480c2ee"/>
  <rect x="11" y="14" width="1" height="1" fill="#777fbeec"/>
  <rect x="12" y="14" width="1" height="1" fill="#7c7eb4c7"/>
  <rect x="13" y="14" width="1" height="1" fill="#8082aa5e"/>
</svg>