<svg xmlns="http://www.w3.org/2000/svg" width="80" height="16" viewBox="0 0 80 16" shape-rendering="crispEdges">
  <rect x="4" y="0" width="1" height="1" fill="#9999992a"/>
  <rect x="5" y="0" width="1" height="1" fill="#9999998e"/>
  <rect x="6" y="0" width="1" height="1" fill="#999999d7"/>
  <rect x="7" y="0" width="2" height="1" fill="#999999f8"/>
  <rect x="9" y="0" width="1" height="1" fill="#999999d6"/>
  <rect x="10" y="0" width="1" height="1" fill="#9999998e"/>
  <rect x="11" y="0" width="1" height="1" fill="#9999992a"/>
  <rect x="20" y="0" width="1" height="1" fill="#9999992a"/>
  <rect x="21" y="0" width="1" height="1" fill="#9999998e"/>
  <rect x="22" y="0" width="1" height="1" fill="#999999d7"/>
  <rect x="23" y="0" width="2" height="1" fill="#999999f8"/>
  <rect x="25" y="0" width="1" height="1" fill="#999999d6"/>
  <rect x="26" y="0" width="1" height="1" fill="#9999998e"/>
  <rect x="27" y="0" width="1" height="1" fill="#9999992a"/>
  <rect x="36" y="0" width="1" height="1" fill="#9999992a"/>
  <rect x="37" y="0" width="1" height="1" fill="#9999998e"/>
  <rect x="38" y="0" width="1" height="1" fill="#999999d7"/>
  <rect x="39" y="0" width="2" height="1" fill="#999999f8"/>
  <rect x="41" y="0" width="1" height="1" fill="#999999d6"/>
  <rect x="42" y="0" width="1" height="1" fill="#9999998e"/>
  <rect x="43" y="0" width="1" height="1" fill="#9999992a"/>
  <rect x="52" y="0" width="1" height="1" fill="#9999992a"/>
  <rect x="53" y="0" width="1" height="1" fill="#9999998e"/>
  <rect x="54" y="0" width="1" height="1" fill="#999999d7"/>
  <rect x="55" y="0" width="2" height="1" fill="#999999f8"/>
  <rect x="57" y="0" width="1" height="1" fill="#999999d6"/>
  <rect x="58" y="0" width="1" height="1" fill="#9999998e"/>
  <rect x="59" y="0" width="1" height="1" fill="#9999992a"/>
  <rect x="68" y="0" width="1" height="1" fill="#60caef2a"/>
  <rect x="69" y="0" width="1" height="1" fill="#60caef8e"/>
  <rect x="70" y="0" width="1" height="1" fill="#5fcbefd7"/>
  <rect x="71" y="0" width="1" height="1" fill="#5dcceff8"/>
  <rect x="72" y="0" width="1" height="1" fill="#5ccceff8"/>
  <rect x="73" y="0" width="1" height="1" fill="#5acdefd6"/>
  <rect x="74" y="0" width="1" height="1" fill="#5cccef8e"/>
  <rect x="75" y="0" width="1" height="1" fill="#5fcbef2a"/>
  <rect x="3" y="1" width="1" height="1" fill="#99999994"/>
  <rect x="4" y="1" width="1" height="1" fill="#999999fd"/>
  <rect x="5" y="1" width="2" height="1" fill="#999999"/>
  <rect x="7" y="1" width="2" height="1" fill="#999999f5"/>
  <rect x="9" y="1" width="2" height="1" fill="#999999"/>
  <rect x="11" y="1" width="1" height="1" fill="#999999fd"/>
  <rect x="12" y="1" width="1" height="1" fill="#99999998"/>
  <rect x="19" y="1" width="1" height="1" fill="#99999994"/>
  <rect x="20" y="1" width="1" height="1" fill="#999999fd"/>
  <rect x="21" y="1" width="2" height="1" fill="#999999"/>
  <rect x="23" y="1" width="2" height="1" fill="#999999f5"/>
  <rect x="25" y="1" width="2" height="1" fill="#999999"/>
  <rect x="27" y="1" width="1" height="1" fill="#999999fd"/>
  <rect x="28" y="1" width="1" height="1" fill="#99999998"/>
  <rect x="35" y="1" width="1" height="1" fill="#99999994"/>
  <rect x="36" y="1" width="1" height="1" fill="#999999fd"/>
  <rect x="37" y="1" width="2" height="1" fill="#999999"/>
  <rect x="39" y="1" width="2" height="1" fill="#999999f5"/>
  <rect x="41" y="1" width="2" height="1" fill="#999999"/>
  <rect x="43" y="1" width="1" height="1" fill="#999999fd"/>
  <rect x="44" y="1" width="1" height="1" fill="#99999998"/>
  <rect x="51" y="1" width="1" height="1" fill="#99999994"/>
  <rect x="52" y="1" width="1" height="1" fill="#999999fd"/>
  <rect x="53" y="1" width="2" height="1" fill="#999999"/>
  <rect x="55" y="1" width="2" height="1" fill="#999999f5"/>
  <rect x="57" y="1" width="2" height="1" fill="#999999"/>
  <rect x="59" y="1" width="1" height="1" fill="#999999fd"/>
  <rect x="60" y="1" width="1" height="1" fill="#99999998"/>
  <rect x="67" y="1" width="1" height="1" fill="#60caef94"/>
  <rect x="68" y="1" width="1" height="1" fill="#60caeffd"/>
  <rect x="69" y="1" width="1" height="1" fill="#60caef"/>
  <rect x="70" y="1" width="1" height="1" fill="#5fcbef"/>
  <rect x="71" y="1" width="1" height="1" fill="#5dcceff5"/>
  <rect x="72" y="1" width="1" height="1" fill="#5ccceff5"/>
  <rect x="73" y="1" width="2" height="1" fill="#5cccef"/>
  <rect x="75" y="1" width="1" height="1" fill="#5fcbeffd"/>
  <rect x="76" y="1" width="1" height="1" fill="#62c9ef98"/>
  <rect x="2" y="2" width="1" height="1" fill="#999999bb"/>
  <rect x="3" y="2" width="1" height="1" fill="#999999"/>
  <rect x="4" y="2" width="1" height="1" fill="#999999ec"/>
  <rect x="5" y="2" width="1" height="1" fill="#99999975"/>
  <rect x="6" y="2" width="1" height="1" fill="#9999991e"/>
  <rect x="9" y="2" width="1" height="1" fill="#9999991e"/>
  <rect x="10" y="2" width="1" height="1" fill="#99999975"/>
  <rect x="11" y="2" width="1" height="1" fill="#999999ec"/>
  <rect x="12" y="2" width="1" height="1" fill="#999999"/>
  <rect x="13" y="2" width="1" height="1" fill="#999999bd"/>
  <rect x="18" y="2" width="1" height="1" fill="#999999bb"/>
  <rect x="19" y="2" width="1" height="1" fill="#999999"/>
  <rect x="20" y="2" width="1" height="1" fill="#999999ec"/>
  <rect x="21" y="2" width="1" height="1" fill="#99999975"/>
  <rect x="22" y="2" width="1" height="1" fill="#9999991e"/>
  <rect x="25" y="2" width="1" height="1" fill="#9999991e"/>
  <rect x="26" y="2" width="1" height="1" fill="#99999975"/>
  <rect x="27" y="2" width="1" height="1" fill="#999999ec"/>
  <rect x="28" y="2" width="1" height="1" fill="#999999"/>
  <rect x="29" y="2" width="1" height="1" fill="#999999bd"/>
  <rect x="34" y="2" width="1" height="1" fill="#999999bb"/>
  <rect x="35" y="2" width="1" height="1" fill="#999999"/>
  <rect x="36" y="2" width="1" height="1" fill="#999999ec"/>
  <rect x="37" y="2" width="1" height="1" fill="#99999975"/>
  <rect x="38" y="2" width="1" height="1" fill="#9999991e"/>
  <rect x="41" y="2" width="1" height="1" fill="#9999991e"/>
  <rect x="42" y="2" width="1" height="1" fill="#99999975"/>
  <rect x="43" y="2" width="1" height="1" fill="#999999ec"/>
  <rect x="44" y="2" width="1" height="1" fill="#999999"/>
  <rect x="45" y="2" width="1" height="1" fill="#999999bd"/>
  <rect x="50" y="2" width="1" height="1" fill="#999999bb"/>
  <rect x="51" y="2" width="1" height="1" fill="#999999"/>
  <rect x="52" y="2" width="1" height="1" fill="#999999ec"/>
  <rect x="53" y="2" width="1" height="1" fill="#99999975"/>
  <rect x="54" y="2" width="1" height="1" fill="#9999991e"/>
  <rect x="57" y="2" width="1" height="1" fill="#9999991e"/>
  <rect x="58" y="2" width="1" height="1" fill="#99999975"/>
  <rect x="59" y="2" width="1" height="1" fill="#999999ec"/>
  <rect x="60" y="2" width="1" height="1" fill="#999999"/>
  <rect x="61" y="2" width="1" height="1" fill="#999999bd"/>
  <rect x="66" y="2" width="1" height="1" fill="#60caefbb"/>
  <rect x="67" y="2" width="1" height="1" fill="#60caef"/>
  <rect x="68" y="2" width="1" height="1" fill="#60caefec"/>
  <rect x="69" y="2" width="1" height="1" fill="#60caef75"/>
  <rect x="70" y="2" width="1" height="1" fill="#5fcbef1e"/>
  <rect x="73" y="2" width="1" height="1" fill="#5dccef1e"/>
  <rect x="74" y="2" width="1" height="1" fill="#5dccef75"/>
  <rect x="75" y="2" width="1" height="1" fill="#5fcbefec"/>
  <rect x="76" y="2" width="1" height="1" fill="#62c9ef"/>
  <rect x="77" y="2" width="1" height="1" fill="#64c8efbd"/>
  <rect x="1" y="3" width="1" height="1" fill="#99999995"/>
  <rect x="2" y="3" width="1" height="1" fill="#999999"/>
  <rect x="3" y="3" width="1" height="1" fill="#999999d4"/>
  <rect x="4" y="3" width="1" height="1" fill="#9999991d"/>
  <rect x="7" y="3" width="2" height="1" fill="#999999c3"/>
  <rect x="11" y="3" width="1" height="1" fill="#9999991d"/>
  <rect x="12" y="3" width="1" height="1" fill="#999999d4"/>
  <rect x="13" y="3" width="1" height="1" fill="#999999"/>
  <rect x="14" y="3" width="1" height="1" fill="#99999994"/>
  <rect x="17" y="3" width="1" height="1" fill="#99999995"/>
  <rect x="18" y="3" width="1" height="1" fill="#999999"/>
  <rect x="19" y="3" width="1" height="1" fill="#999999d4"/>
  <rect x="20" y="3" width="1" height="1" fill="#9999991d"/>
  <rect x="23" y="3" width="2" height="1" fill="#999999c3"/>
  <rect x="27" y="3" width="1" height="1" fill="#9999991d"/>
  <rect x="28" y="3" width="1" height="1" fill="#999999d4"/>
  <rect x="29" y="3" width="1" height="1" fill="#999999"/>
  <rect x="30" y="3" width="1" height="1" fill="#99999994"/>
  <rect x="33" y="3" width="1" height="1" fill="#99999995"/>
  <rect x="34" y="3" width="1" height="1" fill="#999999"/>
  <rect x="35" y="3" width="1" height="1" fill="#999999d4"/>
  <rect x="36" y="3" width="1" height="1" fill="#9999991d"/>
  <rect x="39" y="3" width="2" height="1" fill="#999999c3"/>
  <rect x="43" y="3" width="1" height="1" fill="#9999991d"/>
  <rect x="44" y="3" width="1" height="1" fill="#999999d4"/>
  <rect x="45" y="3" width="1" height="1" fill="#999999"/>
  <rect x="46" y="3" width="1" height="1" fill="#99999994"/>
  <rect x="49" y="3" width="1" height="1" fill="#99999995"/>
  <rect x="50" y="3" width="1" height="1" fill="#999999"/>
  <rect x="51" y="3" width="1" height="1" fill="#999999d4"/>
  <rect x="52" y="3" width="1" height="1" fill="#9999991d"/>
  <rect x="55" y="3" width="2" height="1" fill="#999999c3"/>
  <rect x="59" y="3" width="1" height="1" fill="#9999991d"/>
  <rect x="60" y="3" width="1" height="1" fill="#999999d4"/>
  <rect x="61" y="3" width="1" height="1" fill="#999999"/>
  <rect x="62" y="3" width="1" height="1" fill="#99999994"/>
  <rect x="65" y="3" width="1" height="1" fill="#60caef95"/>
  <rect x="66" y="3" width="1" height="1" fill="#60caef"/>
  <rect x="67" y="3" width="1" height="1" fill="#60caefd4"/>
  <rect x="68" y="3" width="1" height="1" fill="#60caef1d"/>
  <rect x="71" y="3" width="2" height="1" fill="#5fcbefc3"/>
  <rect x="75" y="3" width="1" height="1" fill="#60caef1d"/>
  <rect x="76" y="3" width="1" height="1" fill="#60caefd4"/>
  <rect x="77" y="3" width="1" height="1" fill="#62c9ef"/>
  <rect x="78" y="3" width="1" height="1" fill="#62c9ef94"/>
  <rect x="0" y="4" width="1" height="1" fill="#9999992b"/>
  <rect x="1" y="4" width="1" height="1" fill="#999999fc"/>
  <rect x="2" y="4" width="1" height="1" fill="#999999ee"/>
  <rect x="3" y="4" width="1" height="1" fill="#9999991c"/>
  <rect x="7" y="4" width="2" height="3" fill="#999999"/>
  <rect x="12" y="4" width="1" height="1" fill="#9999991c"/>
  <rect x="13" y="4" width="1" height="1" fill="#999999ee"/>
  <rect x="14" y="4" width="1" height="1" fill="#999999fc"/>
  <rect x="15" y="4" width="2" height="1" fill="#9999992b"/>
  <rect x="17" y="4" width="1" height="1" fill="#999999fc"/>
  <rect x="18" y="4" width="1" height="1" fill="#999999ee"/>
  <rect x="19" y="4" width="1" height="1" fill="#9999991c"/>
  <rect x="23" y="4" width="2" height="3" fill="#999999"/>
  <rect x="28" y="4" width="1" height="1" fill="#9999991c"/>
  <rect x="29" y="4" width="1" height="1" fill="#999999ee"/>
  <rect x="30" y="4" width="1" height="1" fill="#999999fc"/>
  <rect x="31" y="4" width="2" height="1" fill="#9999992b"/>
  <rect x="33" y="4" width="1" height="1" fill="#999999fc"/>
  <rect x="34" y="4" width="1" height="1" fill="#999999ee"/>
  <rect x="35" y="4" width="1" height="1" fill="#9999991c"/>
  <rect x="39" y="4" width="2" height="3" fill="#999999"/>
  <rect x="44" y="4" width="1" height="1" fill="#9999991c"/>
  <rect x="45" y="4" width="1" height="1" fill="#999999ee"/>
  <rect x="46" y="4" width="1" height="1" fill="#999999fc"/>
  <rect x="47" y="4" width="2" height="1" fill="#9999992b"/>
  <rect x="49" y="4" width="1" height="1" fill="#999999fc"/>
  <rect x="50" y="4" width="1" height="1" fill="#999999ee"/>
  <rect x="51" y="4" width="1" height="1" fill="#9999991c"/>
  <rect x="55" y="4" width="2" height="3" fill="#999999"/>
  <rect x="60" y="4" width="1" height="1" fill="#9999991c"/>
  <rect x="61" y="4" width="1" height="1" fill="#999999ee"/>
  <rect x="62" y="4" width="1" height="1" fill="#999999fc"/>
  <rect x="63" y="4" width="1" height="1" fill="#859fa92b"/>
  <rect x="64" y="4" width="1" height="1" fill="#74c3e12b"/>
  <rect x="65" y="4" width="1" height="1" fill="#60caf1fc"/>
  <rect x="66" y="4" width="1" height="1" fill="#60caf1ee"/>
  <rect x="67" y="4" width="1" height="1" fill="#60caf11c"/>
  <rect x="71" y="4" width="1" height="1" fill="#62c9f1"/>
  <rect x="72" y="4" width="1" height="1" fill="#62c9ef"/>
  <rect x="76" y="4" width="1" height="1" fill="#60caef1c"/>
  <rect x="77" y="4" width="1" height="1" fill="#5fcbefee"/>
  <rect x="78" y="4" width="1" height="1" fill="#5fcbeffc"/>
  <rect x="79" y="4" width="1" height="1" fill="#5fcbef2b"/>
  <rect x="0" y="5" width="1" height="1" fill="#9999998f"/>
  <rect x="1" y="5" width="1" height="2" fill="#999999"/>
  <rect x="2" y="5" width="1" height="1" fill="#99999977"/>
  <rect x="13" y="5" width="1" height="1" fill="#99999977"/>
  <rect x="14" y="5" width="1" height="2" fill="#999999"/>
  <rect x="15" y="5" width="2" height="1" fill="#9999998f"/>
  <rect x="17" y="5" width="1" height="2" fill="#999999"/>
  <rect x="18" y="5" width="1" height="1" fill="#99999977"/>
  <rect x="29" y="5" width="1" height="1" fill="#99999977"/>
  <rect x="30" y="5" width="1" height="2" fill="#999999"/>
  <rect x="31" y="5" width="2" height="1" fill="#9999998f"/>
  <rect x="33" y="5" width="1" height="2" fill="#999999"/>
  <rect x="34" y="5" width="1" height="1" fill="#99999977"/>
  <rect x="45" y="5" width="1" height="1" fill="#99999977"/>
  <rect x="46" y="5" width="1" height="2" fill="#999999"/>
  <rect x="47" y="5" width="2" height="1" fill="#9999998f"/>
  <rect x="49" y="5" width="1" height="2" fill="#999999"/>
  <rect x="50" y="5" width="1" height="1" fill="#99999977"/>
  <rect x="61" y="5" width="1" height="1" fill="#99999977"/>
  <rect x="62" y="5" width="1" height="2" fill="#999999"/>
  <rect x="63" y="5" width="1" height="1" fill="#859fa98f"/>
  <rect x="64" y="5" width="1" height="1" fill="#74c3e18f"/>
  <rect x="65" y="5" width="1" height="2" fill="#60caf1"/>
  <rect x="66" y="5" width="1" height="1" fill="#60caf177"/>
  <rect x="71" y="5" width="1" height="2" fill="#64c8f1"/>
  <rect x="72" y="5" width="1" height="1" fill="#64c8ef"/>
  <rect x="77" y="5" width="1" height="1" fill="#5dccef77"/>
  <rect x="78" y="5" width="1" height="1" fill="#5cccef"/>
  <rect x="79" y="5" width="1" height="1" fill="#5cccef8f"/>
  <rect x="0" y="6" width="1" height="1" fill="#999999d7"/>
  <rect x="2" y="6" width="1" height="1" fill="#9999991b"/>
  <rect x="13" y="6" width="1" height="1" fill="#9999991a"/>
  <rect x="15" y="6" width="2" height="1" fill="#999999d7"/>
  <rect x="18" y="6" width="1" height="1" fill="#9999991b"/>
  <rect x="29" y="6" width="1" height="1" fill="#9999991a"/>
  <rect x="31" y="6" width="2" height="1" fill="#999999d7"/>
  <rect x="34" y="6" width="1" height="1" fill="#9999991b"/>
  <rect x="45" y="6" width="1" height="1" fill="#9999991a"/>
  <rect x="47" y="6" width="2" height="1" fill="#999999d7"/>
  <rect x="50" y="6" width="1" height="1" fill="#9999991b"/>
  <rect x="61" y="6" width="1" height="1" fill="#9999991a"/>
  <rect x="63" y="6" width="1" height="1" fill="#859fa9d7"/>
  <rect x="64" y="6" width="1" height="1" fill="#74c3e1d7"/>
  <rect x="66" y="6" width="1" height="1" fill="#60caf11b"/>
  <rect x="72" y="6" width="1" height="1" fill="#67c7ef"/>
  <rect x="77" y="6" width="1" height="1" fill="#5dccef1a"/>
  <rect x="78" y="6" width="1" height="1" fill="#5acdef"/>
  <rect x="79" y="6" width="1" height="1" fill="#5acdefd7"/>
  <rect x="0" y="7" width="1" height="2" fill="#999999f9"/>
  <rect x="1" y="7" width="1" height="2" fill="#999999f4"/>
  <rect x="7" y="7" width="5" height="1" fill="#999999"/>
  <rect x="12" y="7" width="1" height="1" fill="#999999c3"/>
  <rect x="14" y="7" width="1" height="2" fill="#999999f4"/>
  <rect x="15" y="7" width="2" height="1" fill="#999999f9"/>
  <rect x="17" y="7" width="1" height="2" fill="#999999f4"/>
  <rect x="23" y="7" width="5" height="1" fill="#999999"/>
  <rect x="28" y="7" width="1" height="1" fill="#999999c3"/>
  <rect x="30" y="7" width="1" height="2" fill="#999999f4"/>
  <rect x="31" y="7" width="2" height="1" fill="#999999f9"/>
  <rect x="33" y="7" width="1" height="2" fill="#999999f4"/>
  <rect x="39" y="7" width="5" height="1" fill="#999999"/>
  <rect x="44" y="7" width="1" height="1" fill="#999999c3"/>
  <rect x="46" y="7" width="1" height="2" fill="#999999f4"/>
  <rect x="47" y="7" width="2" height="1" fill="#999999f9"/>
  <rect x="49" y="7" width="1" height="2" fill="#999999f4"/>
  <rect x="55" y="7" width="5" height="1" fill="#999999"/>
  <rect x="60" y="7" width="1" height="1" fill="#999999c3"/>
  <rect x="62" y="7" width="1" height="2" fill="#999999f4"/>
  <rect x="63" y="7" width="1" height="1" fill="#859fa9f9"/>
  <rect x="64" y="7" width="1" height="2" fill="#74c3e1f9"/>
  <rect x="65" y="7" width="1" height="1" fill="#60caf1f4"/>
  <rect x="71" y="7" width="1" height="1" fill="#65c7f1"/>
  <rect x="72" y="7" width="3" height="1" fill="#68c6ef"/>
  <rect x="75" y="7" width="1" height="2" fill="#65c8ef"/>
  <rect x="76" y="7" width="1" height="1" fill="#60caefc3"/>
  <rect x="78" y="7" width="1" height="1" fill="#5acdeff4"/>
  <rect x="79" y="7" width="1" height="1" fill="#58ceeff9"/>
  <rect x="7" y="8" width="1" height="1" fill="#999999c3"/>
  <rect x="8" y="8" width="4" height="1" fill="#999999"/>
  <rect x="12" y="8" width="1" height="1" fill="#999999c4"/>
  <rect x="15" y="8" width="1" height="1" fill="#999999f3"/>
  <rect x="16" y="8" width="1" height="1" fill="#999999f9"/>
  <rect x="23" y="8" width="1" height="1" fill="#999999c3"/>
  <rect x="24" y="8" width="4" height="1" fill="#999999"/>
  <rect x="28" y="8" width="1" height="1" fill="#999999c4"/>
  <rect x="31" y="8" width="1" height="1" fill="#999999f3"/>
  <rect x="32" y="8" width="1" height="1" fill="#999999f9"/>
  <rect x="39" y="8" width="1" height="1" fill="#999999c3"/>
  <rect x="40" y="8" width="4" height="1" fill="#999999"/>
  <rect x="44" y="8" width="1" height="1" fill="#999999c4"/>
  <rect x="47" y="8" width="1" height="1" fill="#999999f3"/>
  <rect x="48" y="8" width="1" height="1" fill="#999999f9"/>
  <rect x="55" y="8" width="1" height="1" fill="#999999c3"/>
  <rect x="56" y="8" width="4" height="1" fill="#999999"/>
  <rect x="60" y="8" width="1" height="1" fill="#999999c4"/>
  <rect x="63" y="8" width="1" height="1" fill="#859fa9f3"/>
  <rect x="65" y="8" width="1" height="1" fill="#60c9f3f4"/>
  <rect x="71" y="8" width="1" height="1" fill="#67c6f1c3"/>
  <rect x="72" y="8" width="1" height="1" fill="#68c6f1"/>
  <rect x="73" y="8" width="1" height="1" fill="#6ac5f1"/>
  <rect x="74" y="8" width="1" height="1" fill="#68c6ef"/>
  <rect x="76" y="8" width="1" height="1" fill="#62c9efc4"/>
  <rect x="78" y="8" width="1" height="1" fill="#5ccceff4"/>
  <rect x="79" y="8" width="1" height="1" fill="#5acdeff3"/>
  <rect x="0" y="9" width="1" height="1" fill="#999999d7"/>
  <rect x="1" y="9" width="1" height="2" fill="#999999"/>
  <rect x="2" y="9" width="1" height="1" fill="#9999991b"/>
  <rect x="13" y="9" width="1" height="1" fill="#9999991a"/>
  <rect x="14" y="9" width="1" height="2" fill="#999999"/>
  <rect x="15" y="9" width="1" height="1" fill="#999999d4"/>
  <rect x="16" y="9" width="1" height="1" fill="#999999d7"/>
  <rect x="17" y="9" width="1" height="2" fill="#999999"/>
  <rect x="18" y="9" width="1" height="1" fill="#9999991b"/>
  <rect x="29" y="9" width="1" height="1" fill="#9999991a"/>
  <rect x="30" y="9" width="1" height="2" fill="#999999"/>
  <rect x="31" y="9" width="1" height="1" fill="#999999d4"/>
  <rect x="32" y="9" width="1" height="1" fill="#999999d7"/>
  <rect x="33" y="9" width="1" height="2" fill="#999999"/>
  <rect x="34" y="9" width="1" height="1" fill="#9999991b"/>
  <rect x="45" y="9" width="1" height="1" fill="#9999991a"/>
  <rect x="46" y="9" width="1" height="2" fill="#999999"/>
  <rect x="47" y="9" width="1" height="1" fill="#999999d4"/>
  <rect x="48" y="9" width="1" height="1" fill="#999999d7"/>
  <rect x="49" y="9" width="1" height="2" fill="#999999"/>
  <rect x="50" y="9" width="1" height="1" fill="#9999991b"/>
  <rect x="61" y="9" width="1" height="1" fill="#9999991a"/>
  <rect x="62" y="9" width="1" height="2" fill="#999999"/>
  <rect x="63" y="9" width="1" height="1" fill="#859fabd4"/>
  <rect x="64" y="9" width="1" height="1" fill="#74c3e3d7"/>
  <rect x="65" y="9" width="1" height="2" fill="#60c9f3"/>
  <rect x="66" y="9" width="1" height="1" fill="#60c9f31b"/>
  <rect x="77" y="9" width="1" height="1" fill="#60caef1a"/>
  <rect x="78" y="9" width="1" height="1" fill="#5dccef"/>
  <rect x="79" y="9" width="1" height="1" fill="#5cccefd4"/>
  <rect x="0" y="10" width="1" height="1" fill="#9999998f"/>
  <rect x="2" y="10" width="1" height="1" fill="#99999977"/>
  <rect x="13" y="10" width="1" height="1" fill="#99999977"/>
  <rect x="15" y="10" width="1" height="1" fill="#99999990"/>
  <rect x="16" y="10" width="1" height="1" fill="#9999998f"/>
  <rect x="18" y="10" width="1" height="1" fill="#99999977"/>
  <rect x="29" y="10" width="1" height="1" fill="#99999977"/>
  <rect x="31" y="10" width="1" height="1" fill="#99999990"/>
  <rect x="32" y="10" width="1" height="1" fill="#9999998f"/>
  <rect x="34" y="10" width="1" height="1" fill="#99999977"/>
  <rect x="45" y="10" width="1" height="1" fill="#99999977"/>
  <rect x="47" y="10" width="1" height="1" fill="#99999990"/>
  <rect x="48" y="10" width="1" height="1" fill="#9999998f"/>
  <rect x="50" y="10" width="1" height="1" fill="#99999977"/>
  <rect x="61" y="10" width="1" height="1" fill="#99999977"/>
  <rect x="63" y="10" width="1" height="1" fill="#859fab90"/>
  <rect x="64" y="10" width="1" height="1" fill="#74c3e38f"/>
  <rect x="66" y="10" width="1" height="1" fill="#60c9f377"/>
  <rect x="77" y="10" width="1" height="1" fill="#62c9ef77"/>
  <rect x="78" y="10" width="1" height="1" fill="#60caef"/>
  <rect x="79" y="10" width="1" height="1" fill="#60caef90"/>
  <rect x="0" y="11" width="1" height="1" fill="#9999992c"/>
  <rect x="1" y="11" width="1" height="1" fill="#999999fc"/>
  <rect x="2" y="11" width="1" height="1" fill="#999999ed"/>
  <rect x="3" y="11" width="1" height="1" fill="#9999991c"/>
  <rect x="12" y="11" width="1" height="1" fill="#9999991c"/>
  <rect x="13" y="11" width="1" height="1" fill="#999999ed"/>
  <rect x="14" y="11" width="1" height="1" fill="#999999fc"/>
  <rect x="15" y="11" width="2" height="1" fill="#9999992c"/>
  <rect x="17" y="11" width="1" height="1" fill="#999999fc"/>
  <rect x="18" y="11" width="1" height="1" fill="#999999ed"/>
  <rect x="19" y="11" width="1" height="1" fill="#9999991c"/>
  <rect x="28" y="11" width="1" height="1" fill="#9999991c"/>
  <rect x="29" y="11" width="1" height="1" fill="#999999ed"/>
  <rect x="30" y="11" width="1" height="1" fill="#999999fc"/>
  <rect x="31" y="11" width="2" height="1" fill="#9999992c"/>
  <rect x="33" y="11" width="1" height="1" fill="#999999fc"/>
  <rect x="34" y="11" width="1" height="1" fill="#999999ed"/>
  <rect x="35" y="11" width="1" height="1" fill="#9999991c"/>
  <rect x="44" y="11" width="1" height="1" fill="#9999991c"/>
  <rect x="45" y="11" width="1" height="1" fill="#999999ed"/>
  <rect x="46" y="11" width="1" height="1" fill="#999999fc"/>
  <rect x="47" y="11" width="2" height="1" fill="#9999992c"/>
  <rect x="49" y="11" width="1" height="1" fill="#999999fc"/>
  <rect x="50" y="11" width="1" height="1" fill="#999999ed"/>
  <rect x="51" y="11" width="1" height="1" fill="#9999991c"/>
  <rect x="60" y="11" width="1" height="1" fill="#9999991c"/>
  <rect x="61" y="11" width="1" height="1" fill="#999999ed"/>
  <rect x="62" y="11" width="1" height="1" fill="#999999fc"/>
  <rect x="63" y="11" width="1" height="1" fill="#859fab2c"/>
  <rect x="64" y="11" width="1" height="1" fill="#74c3e32c"/>
  <rect x="65" y="11" width="1" height="1" fill="#60c9f3fc"/>
  <rect x="66" y="11" width="1" height="1" fill="#60c9f3ed"/>
  <rect x="67" y="11" width="1" height="1" fill="#60c9f31c"/>
  <rect x="76" y="11" width="1" height="1" fill="#65c8ef1c"/>
  <rect x="77" y="11" width="1" height="1" fill="#64c8efed"/>
  <rect x="78" y="11" width="1" height="1" fill="#64c8effc"/>
  <rect x="79" y="11" width="1" height="1" fill="#64c8ef2c"/>
  <rect x="1" y="12" width="1" height="1" fill="#99999995"/>
  <rect x="2" y="12" width="1" height="1" fill="#999999"/>
  <rect x="3" y="12" width="1" height="1" fill="#999999d4"/>
  <rect x="4" y="12" width="1" height="1" fill="#9999991d"/>
  <rect x="11" y="12" width="1" height="1" fill="#9999991d"/>
  <rect x="12" y="12" width="1" height="1" fill="#999999d4"/>
  <rect x="13" y="12" width="1" height="1" fill="#999999"/>
  <rect x="14" y="12" width="1" height="1" fill="#99999995"/>
  <rect x="17" y="12" width="1" height="1" fill="#99999995"/>
  <rect x="18" y="12" width="1" height="1" fill="#999999"/>
  <rect x="19" y="12" width="1" height="1" fill="#999999d4"/>
  <rect x="20" y="12" width="1" height="1" fill="#9999991d"/>
  <rect x="27" y="12" width="1" height="1" fill="#9999991d"/>
  <rect x="28" y="12" width="1" height="1" fill="#999999d4"/>
  <rect x="29" y="12" width="1" height="1" fill="#999999"/>
  <rect x="30" y="12" width="1" height="1" fill="#99999995"/>
  <rect x="33" y="12" width="1" height="1" fill="#99999995"/>
  <rect x="34" y="12" width="1" height="1" fill="#999999"/>
  <rect x="35" y="12" width="1" height="1" fill="#999999d4"/>
  <rect x="36" y="12" width="1" height="1" fill="#9999991d"/>
  <rect x="43" y="12" width="1" height="1" fill="#9999991d"/>
  <rect x="44" y="12" width="1" height="1" fill="#999999d4"/>
  <rect x="45" y="12" width="1" height="1" fill="#999999"/>
  <rect x="46" y="12" width="1" height="1" fill="#99999995"/>
  <rect x="49" y="12" width="1" height="1" fill="#99999995"/>
  <rect x="50" y="12" width="1" height="1" fill="#999999"/>
  <rect x="51" y="12" width="1" height="1" fill="#999999d4"/>
  <rect x="52" y="12" width="1" height="1" fill="#9999991d"/>
  <rect x="59" y="12" width="1" height="1" fill="#9999991d"/>
  <rect x="60" y="12" width="1" height="1" fill="#999999d4"/>
  <rect x="61" y="12" width="1" height="1" fill="#999999"/>
  <rect x="62" y="12" width="1" height="1" fill="#99999995"/>
  <rect x="65" y="12" width="1" height="1" fill="#60c9f595"/>
  <rect x="66" y="12" width="1" height="1" fill="#60c9f5"/>
  <rect x="67" y="12" width="1" height="1" fill="#60c9f5d4"/>
  <rect x="68" y="12" width="1" height="1" fill="#60c9f51d"/>
  <rect x="75" y="12" width="1" height="1" fill="#65c8ef1d"/>
  <rect x="76" y="12" width="1" height="1" fill="#65c8efd4"/>
  <rect x="77" y="12" width="1" height="1" fill="#67c7ef"/>
  <rect x="78" y="12" width="1" height="1" fill="#67c7ef95"/>
  <rect x="2" y="13" width="1" height="1" fill="#999999bb"/>
  <rect x="3" y="13" width="1" height="1" fill="#999999"/>
  <rect x="4" y="13" width="1" height="1" fill="#999999ec"/>
  <rect x="5" y="13" width="1" height="1" fill="#99999975"/>
  <rect x="6" y="13" width="1" height="1" fill="#9999991e"/>
  <rect x="9" y="13" width="1" height="1" fill="#9999991e"/>
  <rect x="10" y="13" width="1" height="1" fill="#99999975"/>
  <rect x="11" y="13" width="1" height="1" fill="#999999ec"/>
  <rect x="12" y="13" width="1" height="1" fill="#999999"/>
  <rect x="13" y="13" width="1" height="1" fill="#999999bd"/>
  <rect x="18" y="13" width="1" height="1" fill="#999999bb"/>
  <rect x="19" y="13" width="1" height="1" fill="#999999"/>
  <rect x="20" y="13" width="1" height="1" fill="#999999ec"/>
  <rect x="21" y="13" width="1" height="1" fill="#99999975"/>
  <rect x="22" y="13" width="1" height="1" fill="#9999991e"/>
  <rect x="25" y="13" width="1" height="1" fill="#9999991e"/>
  <rect x="26" y="13" width="1" height="1" fill="#99999975"/>
  <rect x="27" y="13" width="1" height="1" fill="#999999ec"/>
  <rect x="28" y="13" width="1" height="1" fill="#999999"/>
  <rect x="29" y="13" width="1" height="1" fill="#999999bd"/>
  <rect x="34" y="13" width="1" height="1" fill="#999999bb"/>
  <rect x="35" y="13" width="1" height="1" fill="#999999"/>
  <rect x="36" y="13" width="1" height="1" fill="#999999ec"/>
  <rect x="37" y="13" width="1" height="1" fill="#99999975"/>
  <rect x="38" y="13" width="1" height="1" fill="#9999991e"/>
  <rect x="41" y="13" width="1" height="1" fill="#9999991e"/>
  <rect x="42" y="13" width="1" height="1" fill="#99999975"/>
  <rect x="43" y="13" width="1" height="1" fill="#999999ec"/>
  <rect x="44" y="13" width="1" height="1" fill="#999999"/>
  <rect x="45" y="13" width="1" height="1" fill="#999999bd"/>
  <rect x="50" y="13" width="1" height="1" fill="#999999bb"/>
  <rect x="51" y="13" width="1" height="1" fill="#999999"/>
  <rect x="52" y="13" width="1" height="1" fill="#999999ec"/>
  <rect x="53" y="13" width="1" height="1" fill="#99999975"/>
  <rect x="54" y="13" width="1" height="1" fill="#9999991e"/>
  <rect x="57" y="13" width="1" height="1" fill="#9999991e"/>
  <rect x="58" y="13" width="1" height="1" fill="#99999975"/>
  <rect x="59" y="13" width="1" height="1" fill="#999999ec"/>
  <rect x="60" y="13" width="1" height="1" fill="#999999"/>
  <rect x="61" y="13" width="1" height="1" fill="#999999bd"/>
  <rect x="66" y="13" width="1" height="1" fill="#60c9f5bb"/>
  <rect x="67" y="13" width="1" height="1" fill="#60c9f5"/>
  <rect x="68" y="13" width="1" height="1" fill="#60c9f5ec"/>
  <rect x="69" y="13" width="1" height="1" fill="#60c9f575"/>
  <rect x="70" y="13" width="1" height="1" fill="#60c9f31e"/>
  <rect x="73" y="13" width="1" height="1" fill="#60caf11e"/>
  <rect x="74" y="13" width="1" height="1" fill="#62c9ef75"/>
  <rect x="75" y="13" width="1" height="1" fill="#64c8efec"/>
  <rect x="76" y="13" width="1" height="1" fill="#67c7ef"/>
  <rect x="77" y="13" width="1" height="1" fill="#68c6efbd"/>
  <rect x="3" y="14" width="1" height="1" fill="#99999994"/>
  <rect x="4" y="14" width="1" height="1" fill="#999999fd"/>
  <rect x="5" y="14" width="2" height="1" fill="#999999"/>
  <rect x="7" y="14" width="2" height="1" fill="#999999f5"/>
  <rect x="9" y="14" width="2" height="1" fill="#999999"/>
  <rect x="11" y="14" width="1" height="1" fill="#999999fd"/>
  <rect x="12" y="14" width="1" height="1" fill="#99999998"/>
  <rect x="19" y="14" width="1" height="1" fill="#99999994"/>
  <rect x="20" y="14" width="1" height="1" fill="#999999fd"/>
  <rect x="21" y="14" width="2" height="1" fill="#999999"/>
  <rect x="23" y="14" width="2" height="1" fill="#999999f5"/>
  <rect x="25" y="14" width="2" height="1" fill="#999999"/>
  <rect x="27" y="14" width="1" height="1" fill="#999999fd"/>
  <rect x="28" y="14" width="1" height="1" fill="#99999998"/>
  <rect x="35" y="14" width="1" height="1" fill="#99999994"/>
  <rect x="36" y="14" width="1" height="1" fill="#999999fd"/>
  <rect x="37" y="14" width="2" height="1" fill="#999999"/>
  <rect x="39" y="14" width="2" height="1" fill="#999999f5"/>
  <rect x="41" y="14" width="2" height="1" fill="#999999"/>
  <rect x="43" y="14" width="1" height="1" fill="#999999fd"/>
  <rect x="44" y="14" width="1" height="1" fill="#99999998"/>
  <rect x="51" y="14" width="1" height="1" fill="#99999994"/>
  <rect x="52" y="14" width="1" height="1" fill="#999999fd"/>
  <rect x="53" y="14" width="2" height="1" fill="#999999"/>
  <rect x="55" y="14" width="2" height="1" fill="#999999f5"/>
  <rect x="57" y="14" width="2" height="1" fill="#999999"/>
  <rect x="59" y="14" width="1" height="1" fill="#999999fd"/>
  <rect x="60" y="14" width="1" height="1" fill="#99999998"/>
  <rect x="67" y="14" width="1" height="1" fill="#60c9f594"/>
  <rect x="68" y="14" width="1" height="1" fill="#60c9f5fd"/>
  <rect x="69" y="14" width="1" height="1" fill="#60c9f5"/>
  <rect x="70" y="14" width="1" height="1" fill="#5fcaf3"/>
  <rect x="71" y="14" width="1" height="1" fill="#5fcaf3f5"/>
  <rect x="72" y="14" width="1" height="1" fill="#5fcaf1f5"/>
  <rect x="73" y="14" width="1" height="1" fill="#5fcaf1"/>
  <rect x="74" y="14" width="1" height="1" fill="#60caef"/>
  <rect x="75" y="14" width="1" height="1" fill="#64c8effd"/>
  <rect x="76" y="14" width="1" height="1" fill="#67c7ef98"/>
  <rect x="4" y="15" width="1" height="1" fill="#9999992b"/>
  <rect x="5" y="15" width="1" height="1" fill="#99999990"/>
  <rect x="6" y="15" width="1" height="1" fill="#999999d8"/>
  <rect x="7" y="15" width="1" height="1" fill="#999999fa"/>
  <rect x="8" y="15" width="1" height="1" fill="#999999f4"/>
  <rect x="9" y="15" width="1" height="1" fill="#999999d4"/>
  <rect x="10" y="15" width="1" height="1" fill="#99999990"/>
  <rect x="11" y="15" width="1" height="1" fill="#9999992c"/>
  <rect x="20" y="15" width="1" height="1" fill="#9999992b"/>
  <rect x="21" y="15" width="1" height="1" fill="#99999990"/>
  <rect x="22" y="15" width="1" height="1" fill="#999999d8"/>
  <rect x="23" y="15" width="1" height="1" fill="#999999fa"/>
  <rect x="24" y="15" width="1" height="1" fill="#999999f4"/>
  <rect x="25" y="15" width="1" height="1" fill="#999999d4"/>
  <rect x="26" y="15" width="1" height="1" fill="#99999990"/>
  <rect x="27" y="15" width="1" height="1" fill="#9999992c"/>
  <rect x="36" y="15" width="1" height="1" fill="#9999992b"/>
  <rect x="37" y="15" width="1" height="1" fill="#99999990"/>
  <rect x="38" y="15" width="1" height="1" fill="#999999d8"/>
  <rect x="39" y="15" width="1" height="1" fill="#999999fa"/>
  <rect x="40" y="15" width="1" height="1" fill="#999999f4"/>
  <rect x="41" y="15" width="1" height="1" fill="#999999d4"/>
  <rect x="42" y="15" width="1" height="1" fill="#99999990"/>
  <rect x="43" y="15" width="1" height="1" fill="#9999992c"/>
  <rect x="52" y="15" width="1" height="1" fill="#9999992b"/>
  <rect x="53" y="15" width="1" height="1" fill="#99999990"/>
  <rect x="54" y="15" width="1" height="1" fill="#999999d8"/>
  <rect x="55" y="15" width="1" height="1" fill="#999999fa"/>
  <rect x="56" y="15" width="1" height="1" fill="#999999f4"/>
  <rect x="57" y="15" width="1" height="1" fill="#999999d4"/>
  <rect x="58" y="15" width="1" height="1" fill="#99999990"/>
  <rect x="59" y="15" width="1" height="1" fill="#9999992c"/>
  <rect x="68" y="15" width="1" height="1" fill="#60c9f52b"/>
  <rect x="69" y="15" width="1" height="1" fill="#60c9f590"/>
  <rect x="70" y="15" width="1" height="1" fill="#5fcaf3d8"/>
  <rect x="71" y="15" width="1" height="1" fill="#5fcaf3fa"/>
  <rect x="72" y="15" width="1" height="1" fill="#5dcbf1f4"/>
  <rect x="73" y="15" width="1" height="1" fill="#5fcaf1d4"/>
  <rect x="74" y="15" width="1" height="1" fill="#60caef90"/>
  <rect x="75" y="15" width="1" height="1" fill="#64c8ef2c"/>
</svg>