<svg xmlns="http://www.w3.org/2000/svg" width="30" height="30" viewBox="0 0 30 30" shape-rendering="crispEdges">
  <rect x="7" y="2" width="1" height="1" fill="#1f26331d"/>
  <rect x="8" y="2" width="1" height="1" fill="#18202630"/>
  <rect x="9" y="2" width="2" height="1" fill="#18202433"/>
  <rect x="11" y="2" width="2" height="1" fill="#19202433"/>
  <rect x="13" y="2" width="2" height="1" fill="#1b212533"/>
  <rect x="15" y="2" width="1" height="1" fill="#1a222933"/>
  <rect x="16" y="2" width="1" height="1" fill="#19232b33"/>
  <rect x="17" y="2" width="1" height="1" fill="#1b232c33"/>
  <rect x="18" y="2" width="1" height="1" fill="#1f222833"/>
  <rect x="19" y="2" width="1" height="1" fill="#20242733"/>
  <rect x="20" y="2" width="1" height="1" fill="#1a222933"/>
  <rect x="21" y="2" width="1" height="1" fill="#18263120"/>
  <rect x="6" y="3" width="1" height="1" fill="#222c3f14"/>
  <rect x="7" y="3" width="1" height="1" fill="#b4bbc66c"/>
  <rect x="8" y="3" width="1" height="1" fill="#f8fcffcd"/>
  <rect x="9" y="3" width="2" height="1" fill="#fafcfedc"/>
  <rect x="11" y="3" width="2" height="1" fill="#fcfbfedc"/>
  <rect x="13" y="3" width="2" height="1" fill="#fdfcffdc"/>
  <rect x="15" y="3" width="1" height="1" fill="#fcfeffdc"/>
  <rect x="16" y="3" width="1" height="1" fill="#f9ffffdc"/>
  <rect x="17" y="3" width="1" height="1" fill="#fcffffdc"/>
  <rect x="18" y="3" width="2" height="1" fill="#ffffffdc"/>
  <rect x="20" y="3" width="1" height="1" fill="#fbfdffdc"/>
  <rect x="21" y="3" width="1" height="1" fill="#171e2733"/>
  <rect x="7" y="4" width="1" height="1" fill="#1b243126"/>
  <rect x="8" y="4" width="1" height="1" fill="#5159613f"/>
  <rect x="9" y="4" width="1" height="1" fill="#eaf0f78c"/>
  <rect x="10" y="4" width="1" height="1" fill="#f9ffffb9"/>
  <rect x="11" y="4" width="1" height="1" fill="#fbffffb9"/>
  <rect x="12" y="4" width="3" height="1" fill="#f8feffb9"/>
  <rect x="15" y="4" width="1" height="1" fill="#f6feffb9"/>
  <rect x="16" y="4" width="2" height="1" fill="#f6ffffb9"/>
  <rect x="18" y="4" width="1" height="1" fill="#f9ffffb9"/>
  <rect x="19" y="4" width="1" height="1" fill="#fbfeffb9"/>
  <rect x="20" y="4" width="1" height="1" fill="#fcffffb9"/>
  <rect x="21" y="4" width="1" height="1" fill="#12202b33"/>
  <rect x="22" y="4" width="1" height="1" fill="#182e420a"/>
  <rect x="7" y="5" width="1" height="1" fill="#19222f27"/>
  <rect x="8" y="5" width="1" height="1" fill="#5b636c41"/>
  <rect x="9" y="5" width="1" height="1" fill="#e2eaf394"/>
  <rect x="10" y="5" width="1" height="1" fill="#d9e1eae7"/>
  <rect x="11" y="5" width="1" height="1" fill="#ccd4dd"/>
  <rect x="12" y="5" width="3" height="1" fill="#c9d1d9"/>
  <rect x="15" y="5" width="1" height="1" fill="#c7d1d9"/>
  <rect x="16" y="5" width="1" height="1" fill="#c7d3dd"/>
  <rect x="17" y="5" width="1" height="1" fill="#c8d2dd"/>
  <rect x="18" y="5" width="1" height="1" fill="#ccd1d8"/>
  <rect x="19" y="5" width="1" height="1" fill="#ccd2d6"/>
  <rect x="20" y="5" width="1" height="1" fill="#ccd6de"/>
  <rect x="21" y="5" width="1" height="1" fill="#0e1e2b33"/>
  <rect x="22" y="5" width="1" height="1" fill="#142d400e"/>
  <rect x="6" y="6" width="1" height="1" fill="#17243617"/>
  <rect x="7" y="6" width="1" height="1" fill="#aeb7c46a"/>
  <rect x="8" y="6" width="1" height="1" fill="#f4faffca"/>
  <rect x="9" y="6" width="1" height="1" fill="#f9ffffc5"/>
  <rect x="10" y="6" width="1" height="1" fill="#f9ffffb9"/>
  <rect x="11" y="6" width="2" height="1" fill="#feffffb9"/>
  <rect x="13" y="6" width="3" height="1" fill="#fdffffb9"/>
  <rect x="16" y="6" width="1" height="1" fill="#fbffffb9"/>
  <rect x="17" y="6" width="1" height="1" fill="#fcffffb9"/>
  <rect x="18" y="6" width="3" height="1" fill="#ffffffb9"/>
  <rect x="21" y="6" width="1" height="1" fill="#19273233"/>
  <rect x="22" y="6" width="1" height="1" fill="#273e4f0f"/>
  <rect x="7" y="7" width="1" height="1" fill="#1c2a3a28"/>
  <rect x="8" y="7" width="1" height="1" fill="#1b202833"/>
  <rect x="9" y="7" width="1" height="1" fill="#d0d2d6"/>
  <rect x="10" y="7" width="1" height="1" fill="#cfd0d4"/>
  <rect x="11" y="7" width="1" height="1" fill="#d0d2d6"/>
  <rect x="12" y="7" width="3" height="1" fill="#cdced2"/>
  <rect x="15" y="7" width="1" height="1" fill="#cbcfd4"/>
  <rect x="16" y="7" width="2" height="1" fill="#ccd0d5"/>
  <rect x="18" y="7" width="1" height="1" fill="#cecfd3"/>
  <rect x="19" y="7" width="1" height="1" fill="#ccd0d5"/>
  <rect x="20" y="7" width="1" height="1" fill="#cbd3dc"/>
  <rect x="21" y="7" width="1" height="1" fill="#12202d33"/>
  <rect x="22" y="7" width="1" height="1" fill="#1f35490f"/>
  <rect x="7" y="8" width="1" height="1" fill="#1b334918"/>
  <rect x="8" y="8" width="1" height="1" fill="#171e2733"/>
  <rect x="9" y="8" width="1" height="1" fill="#fdfcffb9"/>
  <rect x="10" y="8" width="1" height="1" fill="#ffffffb9"/>
  <rect x="11" y="8" width="1" height="1" fill="#fafafcb9"/>
  <rect x="12" y="8" width="4" height="1" fill="#fefdffb9"/>
  <rect x="16" y="8" width="1" height="1" fill="#ffffffb9"/>
  <rect x="17" y="8" width="1" height="1" fill="#f9f2f5b9"/>
  <rect x="18" y="8" width="1" height="1" fill="#fefbffb9"/>
  <rect x="19" y="8" width="1" height="2" fill="#ffffffb9"/>
  <rect x="20" y="8" width="1" height="1" fill="#f1faffb7"/>
  <rect x="21" y="8" width="1" height="1" fill="#0c1b2f33"/>
  <rect x="22" y="8" width="1" height="1" fill="#21364e0f"/>
  <rect x="7" y="9" width="1" height="1" fill="#18344b12"/>
  <rect x="8" y="9" width="1" height="1" fill="#232d3533"/>
  <rect x="9" y="9" width="1" height="1" fill="#f1f1f19b"/>
  <rect x="10" y="9" width="1" height="1" fill="#fdfdfdb9"/>
  <rect x="11" y="9" width="1" height="1" fill="#f5f5f5b9"/>
  <rect x="12" y="9" width="3" height="1" fill="#fefefeb9"/>
  <rect x="15" y="9" width="1" height="3" fill="#fffdfeb9"/>
  <rect x="16" y="9" width="1" height="1" fill="#fff9f9b9"/>
  <rect x="17" y="9" width="1" height="1" fill="#ffffffb9"/>
  <rect x="18" y="9" width="1" height="1" fill="#fffbffb9"/>
  <rect x="20" y="9" width="1" height="1" fill="#e3ecfb9a"/>
  <rect x="21" y="9" width="1" height="1" fill="#17263a31"/>
  <rect x="22" y="9" width="1" height="1" fill="#1c2f480d"/>
  <rect x="7" y="10" width="1" height="1" fill="#1d33470a"/>
  <rect x="8" y="10" width="1" height="1" fill="#252d3329"/>
  <rect x="9" y="10" width="1" height="1" fill="#96969650"/>
  <rect x="10" y="10" width="1" height="1" fill="#ffffffb6"/>
  <rect x="11" y="10" width="4" height="1" fill="#fefefeb9"/>
  <rect x="16" y="10" width="1" height="2" fill="#ffffffb9"/>
  <rect x="17" y="10" width="1" height="1" fill="#fffcfcb9"/>
  <rect x="18" y="10" width="1" height="1" fill="#ffffffb9"/>
  <rect x="19" y="10" width="1" height="1" fill="#fdfeffb6"/>
  <rect x="20" y="10" width="1" height="1" fill="#858c9a51"/>
  <rect x="21" y="10" width="1" height="1" fill="#1f2c3c27"/>
  <rect x="22" y="10" width="1" height="1" fill="#1d2e410a"/>
  <rect x="8" y="11" width="1" height="1" fill="#33393e16"/>
  <rect x="9" y="11" width="1" height="1" fill="#1e1e1e34"/>
  <rect x="10" y="11" width="1" height="1" fill="#97979754"/>
  <rect x="11" y="11" width="1" height="1" fill="#f8f8f8aa"/>
  <rect x="12" y="11" width="3" height="1" fill="#fefefeb9"/>
  <rect x="17" y="11" width="1" height="1" fill="#fbf9f7b9"/>
  <rect x="18" y="11" width="1" height="1" fill="#f8f8faaa"/>
  <rect x="19" y="11" width="1" height="1" fill="#9fa2a854"/>
  <rect x="20" y="11" width="1" height="1" fill="#20283134"/>
  <rect x="21" y="11" width="1" height="1" fill="#27333f16"/>
  <rect x="6" y="12" width="1" height="1" fill="#202c361a"/>
  <rect x="7" y="12" width="1" height="1" fill="#1a222b2e"/>
  <rect x="8" y="12" width="1" height="1" fill="#161a1e33"/>
  <rect x="9" y="12" width="1" height="1" fill="#181a1c33"/>
  <rect x="10" y="12" width="1" height="1" fill="#2a2a2a33"/>
  <rect x="11" y="12" width="1" height="1" fill="#4141413a"/>
  <rect x="12" y="12" width="1" height="1" fill="#bebebe6e"/>
  <rect x="13" y="12" width="1" height="1" fill="#f1f1f19b"/>
  <rect x="14" y="12" width="1" height="1" fill="#f3f3f3b3"/>
  <rect x="15" y="12" width="1" height="1" fill="#f7f7f7b3"/>
  <rect x="16" y="12" width="1" height="1" fill="#f1f1f19b"/>
  <rect x="17" y="12" width="1" height="1" fill="#c7c7c76e"/>
  <rect x="18" y="12" width="1" height="1" fill="#484a4b3a"/>
  <rect x="19" y="12" width="1" height="1" fill="#1b1f2233"/>
  <rect x="20" y="12" width="1" height="1" fill="#121b1f33"/>
  <rect x="21" y="12" width="1" height="1" fill="#1b252b33"/>
  <rect x="22" y="12" width="1" height="1" fill="#19262d2e"/>
  <rect x="23" y="12" width="1" height="1" fill="#1f2b371a"/>
  <rect x="5" y="13" width="1" height="1" fill="#1d232a1b"/>
  <rect x="6" y="13" width="1" height="1" fill="#989ba158"/>
  <rect x="7" y="13" width="1" height="1" fill="#f4f6f8c5"/>
  <rect x="8" y="13" width="1" height="1" fill="#ffffffdc"/>
  <rect x="9" y="13" width="1" height="1" fill="#fbfdfddc"/>
  <rect x="10" y="13" width="1" height="1" fill="#ffffffdc"/>
  <rect x="11" y="13" width="1" height="1" fill="#ffffffda"/>
  <rect x="12" y="13" width="1" height="1" fill="#fefefecd"/>
  <rect x="13" y="13" width="1" height="1" fill="#ffffffc1"/>
  <rect x="14" y="13" width="1" height="1" fill="#f9f9f9bb"/>
  <rect x="15" y="13" width="1" height="1" fill="#ffffffbb"/>
  <rect x="16" y="13" width="1" height="1" fill="#fafcfcc1"/>
  <rect x="17" y="13" width="1" height="1" fill="#fdffffcd"/>
  <rect x="18" y="13" width="1" height="1" fill="#f7fcfcda"/>
  <rect x="19" y="13" width="1" height="1" fill="#fcffffdc"/>
  <rect x="20" y="13" width="1" height="1" fill="#faffffdc"/>
  <rect x="21" y="13" width="1" height="1" fill="#fcffffdc"/>
  <rect x="22" y="13" width="1" height="1" fill="#f6ffffc5"/>
  <rect x="23" y="13" width="1" height="1" fill="#8c969c58"/>
  <rect x="24" y="13" width="1" height="1" fill="#1d29351b"/>
  <rect x="5" y="14" width="1" height="1" fill="#1e1f232e"/>
  <rect x="6" y="14" width="1" height="1" fill="#f7f7f7b9"/>
  <rect x="7" y="14" width="1" height="1" fill="#fffffebe"/>
  <rect x="8" y="14" width="1" height="1" fill="#fefefcb9"/>
  <rect x="9" y="14" width="1" height="1" fill="#ffffffb9"/>
  <rect x="10" y="14" width="1" height="1" fill="#fefefeb9"/>
  <rect x="11" y="14" width="1" height="1" fill="#fafafab9"/>
  <rect x="12" y="14" width="1" height="1" fill="#fdfdfdb9"/>
  <rect x="13" y="14" width="1" height="1" fill="#fcfbfcb9"/>
  <rect x="14" y="14" width="1" height="1" fill="#ffffffb9"/>
  <rect x="15" y="14" width="1" height="1" fill="#fbfdfdb9"/>
  <rect x="16" y="14" width="1" height="2" fill="#fdffffb9"/>
  <rect x="17" y="14" width="1" height="1" fill="#f9fefdb9"/>
  <rect x="18" y="14" width="1" height="1" fill="#feffffb9"/>
  <rect x="19" y="14" width="1" height="1" fill="#fbfffeb9"/>
  <rect x="20" y="14" width="1" height="1" fill="#f8fdfcb9"/>
  <rect x="21" y="14" width="1" height="1" fill="#f7fefcb9"/>
  <rect x="22" y="14" width="1" height="1" fill="#fbfffebe"/>
  <rect x="23" y="14" width="1" height="1" fill="#eef7f7b9"/>
  <rect x="24" y="14" width="1" height="1" fill="#1c26302e"/>
  <rect x="4" y="15" width="1" height="1" fill="#1f252c0a"/>
  <rect x="5" y="15" width="1" height="1" fill="#1e202133"/>
  <rect x="6" y="15" width="1" height="1" fill="#ffffffbf"/>
  <rect x="7" y="15" width="1" height="1" fill="#fdfbf9b9"/>
  <rect x="8" y="15" width="1" height="1" fill="#f6f6f4b9"/>
  <rect x="9" y="15" width="2" height="1" fill="#ffffffb9"/>
  <rect x="11" y="15" width="1" height="1" fill="#fefefeb9"/>
  <rect x="12" y="15" width="2" height="1" fill="#ffffffb9"/>
  <rect x="14" y="15" width="1" height="1" fill="#81838249"/>
  <rect x="15" y="15" width="1" height="1" fill="#8789884c"/>
  <rect x="17" y="15" width="1" height="1" fill="#feffffb9"/>
  <rect x="18" y="15" width="1" height="1" fill="#f2f7f6b9"/>
  <rect x="19" y="15" width="1" height="1" fill="#f5f8f7b9"/>
  <rect x="20" y="15" width="1" height="1" fill="#fffffeb9"/>
  <rect x="21" y="15" width="1" height="1" fill="#fafdf9b9"/>
  <rect x="22" y="15" width="1" height="1" fill="#ffffffb9"/>
  <rect x="23" y="15" width="1" height="1" fill="#ffffffbf"/>
  <rect x="24" y="15" width="1" height="1" fill="#1c272c33"/>
  <rect x="25" y="15" width="1" height="1" fill="#2836430a"/>
  <rect x="4" y="16" width="1" height="1" fill="#27303b0e"/>
  <rect x="5" y="16" width="1" height="1" fill="#1c202533"/>
  <rect x="6" y="16" width="2" height="1" fill="#ffffffb9"/>
  <rect x="8" y="16" width="2" height="1" fill="#fffffdb9"/>
  <rect x="10" y="16" width="2" height="2" fill="#ffffffb9"/>
  <rect x="12" y="16" width="1" height="1" fill="#fcfbfcb9"/>
  <rect x="13" y="16" width="1" height="2" fill="#ffffffb9"/>
  <rect x="14" y="16" width="1" height="1" fill="#1d1d1d33"/>
  <rect x="15" y="16" width="1" height="1" fill="#22222233"/>
  <rect x="16" y="16" width="3" height="1" fill="#fdffffb9"/>
  <rect x="19" y="16" width="1" height="1" fill="#ffffffb9"/>
  <rect x="20" y="16" width="2" height="4" fill="#fffffeb9"/>
  <rect x="22" y="16" width="1" height="5" fill="#fffffcb9"/>
  <rect x="23" y="16" width="1" height="6" fill="#ffffffb9"/>
  <rect x="24" y="16" width="1" height="2" fill="#1d252933"/>
  <rect x="25" y="16" width="1" height="1" fill="#2735400e"/>
  <rect x="4" y="17" width="1" height="3" fill="#25313d0f"/>
  <rect x="5" y="17" width="1" height="5" fill="#1b202833"/>
  <rect x="6" y="17" width="2" height="3" fill="#fdffffb9"/>
  <rect x="8" y="17" width="1" height="1" fill="#ffffffb9"/>
  <rect x="9" y="17" width="1" height="1" fill="#fffffdb9"/>
  <rect x="12" y="17" width="1" height="1" fill="#fefefeb9"/>
  <rect x="14" y="17" width="1" height="2" fill="#1f1f1f33"/>
  <rect x="15" y="17" width="1" height="1" fill="#24242433"/>
  <rect x="16" y="17" width="3" height="1" fill="#ffffffb9"/>
  <rect x="19" y="17" width="1" height="1" fill="#fffeffb9"/>
  <rect x="25" y="17" width="1" height="1" fill="#27353e0f"/>
  <rect x="8" y="18" width="6" height="2" fill="#ffffffb9"/>
  <rect x="15" y="18" width="1" height="1" fill="#1e1e1e33"/>
  <rect x="16" y="18" width="2" height="4" fill="#ffffffb9"/>
  <rect x="18" y="18" width="2" height="2" fill="#fffeffb9"/>
  <rect x="24" y="18" width="1" height="2" fill="#1d232833"/>
  <rect x="25" y="18" width="1" height="1" fill="#26343d0f"/>
  <rect x="14" y="19" width="2" height="1" fill="#8888884f"/>
  <rect x="25" y="19" width="1" height="1" fill="#27333f0f"/>
  <rect x="4" y="20" width="1" height="1" fill="#27333f0f"/>
  <rect x="6" y="20" width="1" height="1" fill="#fcffffb9"/>
  <rect x="7" y="20" width="1" height="1" fill="#ffffffb9"/>
  <rect x="8" y="20" width="6" height="1" fill="#fefefeb9"/>
  <rect x="14" y="20" width="2" height="1" fill="#fefefed6"/>
  <rect x="18" y="20" width="1" height="2" fill="#fffeffb9"/>
  <rect x="19" y="20" width="2" height="1" fill="#ffffffb9"/>
  <rect x="21" y="20" width="1" height="1" fill="#fffbfbb9"/>
  <rect x="24" y="20" width="1" height="1" fill="#23292e33"/>
  <rect x="25" y="20" width="1" height="1" fill="#25313d0f"/>
  <rect x="4" y="21" width="1" height="1" fill="#2c38440f"/>
  <rect x="6" y="21" width="1" height="1" fill="#feffffb9"/>
  <rect x="7" y="21" width="1" height="1" fill="#fafcfeb9"/>
  <rect x="8" y="21" width="4" height="2" fill="#fefefeb9"/>
  <rect x="12" y="21" width="1" height="2" fill="#fcfbfcb9"/>
  <rect x="13" y="21" width="1" height="2" fill="#ffffffb9"/>
  <rect x="14" y="21" width="1" height="1" fill="#9b9b9b53"/>
  <rect x="15" y="21" width="1" height="1" fill="#9d9d9d53"/>
  <rect x="19" y="21" width="1" height="1" fill="#ffffffb9"/>
  <rect x="20" y="21" width="1" height="1" fill="#fffaf9b9"/>
  <rect x="21" y="21" width="1" height="1" fill="#fffefdb9"/>
  <rect x="22" y="21" width="1" height="1" fill="#fffdfab9"/>
  <rect x="24" y="21" width="1" height="1" fill="#20272b33"/>
  <rect x="25" y="21" width="1" height="1" fill="#232e3a0f"/>
  <rect x="4" y="22" width="1" height="1" fill="#25313d0e"/>
  <rect x="5" y="22" width="1" height="1" fill="#1e242b33"/>
  <rect x="6" y="22" width="1" height="1" fill="#f9feffad"/>
  <rect x="7" y="22" width="1" height="1" fill="#fbfdffb9"/>
  <rect x="14" y="22" width="1" height="1" fill="#9b9b9b59"/>
  <rect x="15" y="22" width="1" height="1" fill="#9d9d9d58"/>
  <rect x="16" y="22" width="4" height="1" fill="#ffffffb9"/>
  <rect x="20" y="22" width="1" height="1" fill="#fffffeb9"/>
  <rect x="21" y="22" width="1" height="1" fill="#fffdfcb9"/>
  <rect x="22" y="22" width="1" height="1" fill="#fffefbb9"/>
  <rect x="23" y="22" width="1" height="1" fill="#f9f9f9aa"/>
  <rect x="24" y="22" width="1" height="1" fill="#1e242933"/>
  <rect x="25" y="22" width="1" height="1" fill="#24303c0e"/>
  <rect x="4" y="23" width="1" height="1" fill="#2434430b"/>
  <rect x="5" y="23" width="1" height="1" fill="#1e2a342c"/>
  <rect x="6" y="23" width="1" height="1" fill="#a5adb35c"/>
  <rect x="7" y="23" width="1" height="1" fill="#f3f9fead"/>
  <rect x="8" y="23" width="1" height="1" fill="#fbffffb9"/>
  <rect x="9" y="23" width="4" height="1" fill="#fcfeffb9"/>
  <rect x="13" y="23" width="1" height="1" fill="#fbffffb9"/>
  <rect x="14" y="23" width="2" height="1" fill="#fbffffd4"/>
  <rect x="16" y="23" width="2" height="1" fill="#fcffffb9"/>
  <rect x="18" y="23" width="4" height="1" fill="#ffffffb9"/>
  <rect x="22" y="23" width="1" height="1" fill="#f9f9f9aa"/>
  <rect x="23" y="23" width="1" height="1" fill="#a8aaae5c"/>
  <rect x="24" y="23" width="1" height="1" fill="#1e25302b"/>
  <rect x="25" y="23" width="1" height="1" fill="#2230400b"/>
  <rect x="5" y="24" width="1" height="1" fill="#1d334517"/>
  <rect x="6" y="24" width="1" height="1" fill="#192b3a32"/>
  <rect x="7" y="24" width="1" height="1" fill="#19273235"/>
  <rect x="8" y="24" width="1" height="1" fill="#1b252d33"/>
  <rect x="9" y="24" width="4" height="1" fill="#1d242d33"/>
  <rect x="13" y="24" width="1" height="1" fill="#1b252d33"/>
  <rect x="14" y="24" width="6" height="1" fill="#1a242c33"/>
  <rect x="20" y="24" width="1" height="1" fill="#19212a33"/>
  <rect x="21" y="24" width="1" height="1" fill="#1d242d33"/>
  <rect x="22" y="24" width="1" height="1" fill="#20282e36"/>
  <rect x="23" y="24" width="1" height="1" fill="#1c253232"/>
  <rect x="24" y="24" width="1" height="1" fill="#22304717"/>
  <rect x="5" y="25" width="1" height="1" fill="#1c384e0a"/>
  <rect x="6" y="25" width="1" height="1" fill="#1a324617"/>
  <rect x="7" y="25" width="1" height="1" fill="#1a303f23"/>
  <rect x="8" y="25" width="1" height="1" fill="#2032412b"/>
  <rect x="9" y="25" width="1" height="1" fill="#22323f2e"/>
  <rect x="10" y="25" width="2" height="1" fill="#22323f2f"/>
  <rect x="12" y="25" width="1" height="1" fill="#2232412e"/>
  <rect x="13" y="25" width="1" height="1" fill="#2232412b"/>
  <rect x="14" y="25" width="1" height="1" fill="#23334228"/>
  <rect x="15" y="25" width="1" height="1" fill="#21344228"/>
  <rect x="16" y="25" width="1" height="1" fill="#2134422b"/>
  <rect x="17" y="25" width="1" height="1" fill="#2134422e"/>
  <rect x="18" y="25" width="1" height="1" fill="#2436442f"/>
  <rect x="19" y="25" width="1" height="1" fill="#2535442f"/>
  <rect x="20" y="25" width="1" height="1" fill="#2535442e"/>
  <rect x="21" y="25" width="1" height="1" fill="#2333422b"/>
  <rect x="22" y="25" width="1" height="1" fill="#22323f23"/>
  <rect x="23" y="25" width="1" height="1" fill="#22314517"/>
  <rect x="24" y="25" width="1" height="1" fill="#1f304f0a"/>
  <rect x="7" y="26" width="1" height="1" fill="#1b34470b"/>
  <rect x="8" y="26" width="1" height="1" fill="#1f374a0e"/>
  <rect x="9" y="26" width="3" height="1" fill="#21364a0f"/>
  <rect x="12" y="26" width="1" height="1" fill="#21364c0f"/>
  <rect x="13" y="26" width="1" height="1" fill="#1f354b0f"/>
  <rect x="14" y="26" width="1" height="1" fill="#1e364b0f"/>
  <rect x="15" y="26" width="2" height="1" fill="#1d344a0f"/>
  <rect x="17" y="26" width="1" height="1" fill="#1b33490f"/>
  <rect x="18" y="26" width="1" height="1" fill="#1d344a0f"/>
  <rect x="19" y="26" width="1" height="1" fill="#1b33490f"/>
  <rect x="20" y="26" width="1" height="1" fill="#21364c0f"/>
  <rect x="21" y="26" width="1" height="1" fill="#21364c0e"/>
  <rect x="22" y="26" width="1" height="1" fill="#1f35490b"/>
</svg>