<svg xmlns="http://www.w3.org/2000/svg" width="12" height="12" viewBox="0 0 12 12" shape-rendering="crispEdges">
  <rect x="2" y="0" width="1" height="1" fill="#3fb8e322"/>
  <rect x="3" y="0" width="1" height="1" fill="#3fb8e39b"/>
  <rect x="4" y="0" width="1" height="1" fill="#3fb8e3e2"/>
  <rect x="5" y="0" width="1" height="1" fill="#3fb8e3f9"/>
  <rect x="6" y="0" width="1" height="1" fill="#3fb8e3e5"/>
  <rect x="7" y="0" width="1" height="1" fill="#41b7e1a5"/>
  <rect x="8" y="0" width="1" height="1" fill="#44b4de31"/>
  <rect x="1" y="1" width="1" height="1" fill="#3fb8e348"/>
  <rect x="2" y="1" width="1" height="1" fill="#3fb8e3f4"/>
  <rect x="3" y="1" width="1" height="1" fill="#3fb8e3f0"/>
  <rect x="4" y="1" width="1" height="1" fill="#3fb8e39c"/>
  <rect x="5" y="1" width="1" height="1" fill="#3fb8e37c"/>
  <rect x="6" y="1" width="1" height="1" fill="#3fb8e39c"/>
  <rect x="7" y="1" width="1" height="1" fill="#41b7e3ef"/>
  <rect x="8" y="1" width="1" height="1" fill="#43b4e0fc"/>
  <rect x="9" y="1" width="1" height="1" fill="#54aed264"/>
  <rect x="0" y="2" width="1" height="1" fill="#3fb8e321"/>
  <rect x="1" y="2" width="1" height="1" fill="#3fb8e3f2"/>
  <rect x="2" y="2" width="1" height="1" fill="#3fb8e3c2"/>
  <rect x="3" y="2" width="1" height="1" fill="#3fb8e316"/>
  <rect x="7" y="2" width="1" height="1" fill="#41b6e513"/>
  <rect x="8" y="2" width="1" height="1" fill="#41b4e4c0"/>
  <rect x="9" y="2" width="1" height="1" fill="#49b1def9"/>
  <rect x="10" y="2" width="1" height="1" fill="#58add22f"/>
  <rect x="0" y="3" width="1" height="1" fill="#3db5e19a"/>
  <rect x="1" y="3" width="1" height="1" fill="#3db5e1f3"/>
  <rect x="2" y="3" width="1" height="1" fill="#3db5e117"/>
  <rect x="4" y="3" width="1" height="1" fill="#3db5e177"/>
  <rect x="5" y="3" width="1" height="1" fill="#3db5e1ba"/>
  <rect x="6" y="3" width="1" height="1" fill="#3eb6e27d"/>
  <rect x="8" y="3" width="1" height="1" fill="#3eb4e313"/>
  <rect x="9" y="3" width="1" height="1" fill="#42b2e3ee"/>
  <rect x="10" y="3" width="1" height="1" fill="#46b2e2a3"/>
  <rect x="0" y="4" width="1" height="1" fill="#3cb4e0e3"/>
  <rect x="1" y="4" width="1" height="1" fill="#3cb4e0ab"/>
  <rect x="3" y="4" width="1" height="1" fill="#3cb4e05e"/>
  <rect x="4" y="4" width="2" height="1" fill="#3cb4e0"/>
  <rect x="6" y="4" width="1" height="1" fill="#3db5e1"/>
  <rect x="7" y="4" width="1" height="1" fill="#3db6df6c"/>
  <rect x="9" y="4" width="1" height="1" fill="#3db5e1a3"/>
  <rect x="10" y="4" width="1" height="1" fill="#3ab6e3e7"/>
  <rect x="0" y="5" width="1" height="1" fill="#3bb3dff9"/>
  <rect x="1" y="5" width="1" height="1" fill="#3bb3df9a"/>
  <rect x="3" y="5" width="1" height="1" fill="#3bb3df80"/>
  <rect x="4" y="5" width="2" height="1" fill="#3bb3df"/>
  <rect x="6" y="5" width="1" height="1" fill="#3cb4de"/>
  <rect x="7" y="5" width="1" height="1" fill="#3db3e08e"/>
  <rect x="9" y="5" width="1" height="1" fill="#3cb4e28f"/>
  <rect x="10" y="5" width="1" height="1" fill="#38b7e3f9"/>
  <rect x="0" y="6" width="1" height="1" fill="#3bb3dfd3"/>
  <rect x="1" y="6" width="1" height="1" fill="#3bb3dfd0"/>
  <rect x="3" y="6" width="1" height="1" fill="#3bb3df1b"/>
  <rect x="4" y="6" width="1" height="1" fill="#3bb3dfe2"/>
  <rect x="5" y="6" width="1" height="1" fill="#3bb3df"/>
  <rect x="6" y="6" width="1" height="1" fill="#3bb3dfe6"/>
  <rect x="7" y="6" width="1" height="1" fill="#3eb1e127"/>
  <rect x="9" y="6" width="1" height="1" fill="#41aee7c8"/>
  <rect x="10" y="6" width="1" height="1" fill="#3eb4e5d2"/>
  <rect x="0" y="7" width="1" height="1" fill="#38b1dc6c"/>
  <rect x="1" y="7" width="1" height="1" fill="#38b1dc"/>
  <rect x="2" y="7" width="1" height="1" fill="#38b0de61"/>
  <rect x="5" y="7" width="1" height="1" fill="#38b1dc2c"/>
  <rect x="8" y="7" width="1" height="1" fill="#40ace95b"/>
  <rect x="9" y="7" width="1" height="1" fill="#3eade9"/>
  <rect x="10" y="7" width="1" height="1" fill="#3eb4e56c"/>
  <rect x="1" y="8" width="1" height="1" fill="#39aeddcd"/>
  <rect x="2" y="8" width="1" height="1" fill="#39ade1fc"/>
  <rect x="3" y="8" width="1" height="1" fill="#39ade188"/>
  <rect x="4" y="8" width="1" height="1" fill="#37afdd21"/>
  <rect x="6" y="8" width="1" height="1" fill="#3bade61e"/>
  <rect x="7" y="8" width="1" height="1" fill="#3bacea82"/>
  <rect x="8" y="8" width="1" height="1" fill="#35ade9fb"/>
  <rect x="9" y="8" width="1" height="1" fill="#34afe5cc"/>
  <rect x="1" y="9" width="1" height="1" fill="#47a8ce1c"/>
  <rect x="2" y="9" width="1" height="1" fill="#3cabdce2"/>
  <rect x="3" y="9" width="1" height="1" fill="#36ade2"/>
  <rect x="4" y="9" width="1" height="1" fill="#34aede"/>
  <rect x="5" y="9" width="1" height="1" fill="#36adde"/>
  <rect x="6" y="9" width="1" height="1" fill="#3aabe7"/>
  <rect x="7" y="9" width="1" height="1" fill="#39ace9"/>
  <rect x="8" y="9" width="1" height="1" fill="#31afe4e1"/>
  <rect x="9" y="9" width="1" height="1" fill="#34afdc1c"/>
  <rect x="2" y="10" width="1" height="1" fill="#41abd01c"/>
  <rect x="3" y="10" width="1" height="1" fill="#2fb1decf"/>
  <rect x="4" y="10" width="1" height="1" fill="#31b0e0"/>
  <rect x="5" y="10" width="1" height="1" fill="#33aee2"/>
  <rect x="6" y="10" width="1" height="1" fill="#34ade2"/>
  <rect x="7" y="10" width="1" height="1" fill="#34ade2cc"/>
  <rect x="8" y="10" width="1" height="1" fill="#2eb0dd1a"/>
  <rect x="3" y="11" width="1" height="1" fill="#2cb3dc0c"/>
  <rect x="4" y="11" width="1" height="1" fill="#2eb1e295"/>
  <rect x="5" y="11" width="1" height="1" fill="#31afe4f1"/>
  <rect x="6" y="11" width="1" height="1" fill="#33aee292"/>
  <rect x="7" y="11" width="1" height="1" fill="#33afde0a"/>
</svg>