<svg xmlns="http://www.w3.org/2000/svg" width="391" height="22" viewBox="0 0 391 22" shape-rendering="crispEdges">
  <rect x="45" y="19" width="2" height="1" fill="#a2c5cc0a"/>
  <rect x="47" y="19" width="3" height="1" fill="#a2c5ce0a"/>
  <rect x="50" y="19" width="1" height="1" fill="#a2c6ca0b"/>
  <rect x="51" y="19" width="1" height="1" fill="#a2c5cc0b"/>
  <rect x="52" y="19" width="2" height="1" fill="#a2c5ce0b"/>
  <rect x="54" y="19" width="3" height="1" fill="#a2c5cc0b"/>
  <rect x="57" y="19" width="3" height="1" fill="#a2c5cc0c"/>
  <rect x="60" y="19" width="3" height="1" fill="#a2c5cc0d"/>
  <rect x="63" y="19" width="3" height="1" fill="#a2c5ce0d"/>
  <rect x="66" y="19" width="1" height="1" fill="#a2c6ca0d"/>
  <rect x="67" y="19" width="1" height="1" fill="#a2c5cc0e"/>
  <rect x="68" y="19" width="2" height="1" fill="#a2c5ce0e"/>
  <rect x="70" y="19" width="3" height="1" fill="#a2c5cc0e"/>
  <rect x="73" y="19" width="6" height="1" fill="#a2c5cc0f"/>
  <rect x="79" y="19" width="3" height="1" fill="#a2c5ce10"/>
  <rect x="82" y="19" width="1" height="1" fill="#a2c6ca10"/>
  <rect x="83" y="19" width="1" height="1" fill="#a2c5cc10"/>
  <rect x="84" y="19" width="2" height="1" fill="#a2c5ce10"/>
  <rect x="86" y="19" width="6" height="1" fill="#a2c5cc11"/>
  <rect x="92" y="19" width="3" height="1" fill="#a2c5cc12"/>
  <rect x="95" y="19" width="3" height="1" fill="#a2c5ce12"/>
  <rect x="98" y="19" width="1" height="1" fill="#a2c6ca12"/>
  <rect x="99" y="19" width="1" height="1" fill="#a2c5cc12"/>
  <rect x="100" y="19" width="1" height="1" fill="#a2c5ce12"/>
  <rect x="101" y="19" width="1" height="1" fill="#a2c5ce13"/>
  <rect x="102" y="19" width="6" height="1" fill="#a2c5cc13"/>
  <rect x="108" y="19" width="3" height="1" fill="#a2c5cc14"/>
  <rect x="111" y="19" width="3" height="1" fill="#a2c5ce14"/>
  <rect x="114" y="19" width="1" height="1" fill="#a2c6ca14"/>
  <rect x="115" y="19" width="1" height="1" fill="#a2c5cc14"/>
  <rect x="116" y="19" width="2" height="1" fill="#a2c5ce14"/>
  <rect x="118" y="19" width="9" height="1" fill="#a2c5cc14"/>
  <rect x="127" y="19" width="3" height="1" fill="#a2c5ce14"/>
  <rect x="130" y="19" width="1" height="1" fill="#a2c6ca14"/>
  <rect x="131" y="19" width="1" height="1" fill="#a2c5cc14"/>
  <rect x="132" y="19" width="2" height="1" fill="#a2c5ce14"/>
  <rect x="134" y="19" width="9" height="1" fill="#a2c5cc14"/>
  <rect x="143" y="19" width="3" height="1" fill="#a2c5ce14"/>
  <rect x="146" y="19" width="1" height="1" fill="#a2c6ca14"/>
  <rect x="147" y="19" width="1" height="1" fill="#a2c5cc14"/>
  <rect x="148" y="19" width="2" height="1" fill="#a2c5ce14"/>
  <rect x="150" y="19" width="9" height="1" fill="#a2c5cc14"/>
  <rect x="159" y="19" width="3" height="1" fill="#a2c5ce14"/>
  <rect x="162" y="19" width="1" height="1" fill="#a2c6ca14"/>
  <rect x="163" y="19" width="1" height="1" fill="#a2c5cc14"/>
  <rect x="164" y="19" width="2" height="1" fill="#a2c5ce14"/>
  <rect x="166" y="19" width="9" height="1" fill="#a2c5cc14"/>
  <rect x="175" y="19" width="3" height="1" fill="#a2c5ce14"/>
  <rect x="178" y="19" width="1" height="1" fill="#a2c6ca14"/>
  <rect x="179" y="19" width="1" height="1" fill="#a2c5cc14"/>
  <rect x="180" y="19" width="2" height="1" fill="#a2c5ce14"/>
  <rect x="182" y="19" width="9" height="1" fill="#a2c5cc14"/>
  <rect x="191" y="19" width="3" height="1" fill="#a2c5ce14"/>
  <rect x="194" y="19" width="1" height="1" fill="#a2c6ca14"/>
  <rect x="195" y="19" width="1" height="1" fill="#a2c5cc14"/>
  <rect x="196" y="19" width="2" height="1" fill="#a2c5ce14"/>
  <rect x="198" y="19" width="9" height="1" fill="#a2c5cc14"/>
  <rect x="207" y="19" width="3" height="1" fill="#a2c5ce14"/>
  <rect x="210" y="19" width="1" height="1" fill="#a2c6ca14"/>
  <rect x="211" y="19" width="1" height="1" fill="#a2c5cc14"/>
  <rect x="212" y="19" width="2" height="1" fill="#a2c5ce14"/>
  <rect x="214" y="19" width="9" height="1" fill="#a2c5cc14"/>
  <rect x="223" y="19" width="3" height="1" fill="#a2c5ce14"/>
  <rect x="226" y="19" width="1" height="1" fill="#a2c6ca14"/>
  <rect x="227" y="19" width="1" height="1" fill="#a2c5cc14"/>
  <rect x="228" y="19" width="2" height="1" fill="#a2c5ce14"/>
  <rect x="230" y="19" width="9" height="1" fill="#a2c5cc14"/>
  <rect x="239" y="19" width="3" height="1" fill="#a2c5ce14"/>
  <rect x="242" y="19" width="1" height="1" fill="#a2c6ca14"/>
  <rect x="243" y="19" width="1" height="1" fill="#a2c5cc14"/>
  <rect x="244" y="19" width="2" height="1" fill="#a2c5ce14"/>
  <rect x="246" y="19" width="9" height="1" fill="#a2c5cc14"/>
  <rect x="255" y="19" width="2" height="1" fill="#a2c5ce14"/>
  <rect x="257" y="19" width="1" height="1" fill="#a2c5ce13"/>
  <rect x="258" y="19" width="1" height="1" fill="#a2c6ca13"/>
  <rect x="259" y="19" width="1" height="1" fill="#a2c5cc13"/>
  <rect x="260" y="19" width="2" height="1" fill="#a2c5ce13"/>
  <rect x="262" y="19" width="2" height="1" fill="#a2c5cc13"/>
  <rect x="264" y="19" width="7" height="1" fill="#a2c5cc12"/>
  <rect x="271" y="19" width="3" height="1" fill="#a2c5ce12"/>
  <rect x="274" y="19" width="1" height="1" fill="#a2c6ca11"/>
  <rect x="275" y="19" width="1" height="1" fill="#a2c5cc11"/>
  <rect x="276" y="19" width="2" height="1" fill="#a2c5ce11"/>
  <rect x="278" y="19" width="1" height="1" fill="#a2c5cc11"/>
  <rect x="279" y="19" width="8" height="1" fill="#a2c5cc10"/>
  <rect x="287" y="19" width="1" height="1" fill="#a2c5ce10"/>
  <rect x="288" y="19" width="2" height="1" fill="#a2c5ce0f"/>
  <rect x="290" y="19" width="1" height="1" fill="#a2c6ca0f"/>
  <rect x="291" y="19" width="1" height="1" fill="#a2c5cc0f"/>
  <rect x="292" y="19" width="1" height="1" fill="#a2c5ce0f"/>
  <rect x="293" y="19" width="1" height="1" fill="#a2c5ce0e"/>
  <rect x="294" y="19" width="5" height="1" fill="#a2c5cc0e"/>
  <rect x="299" y="19" width="4" height="1" fill="#a2c5cc0d"/>
  <rect x="303" y="19" width="3" height="1" fill="#a2c5ce0d"/>
  <rect x="306" y="19" width="1" height="1" fill="#a2c6ca0c"/>
  <rect x="307" y="19" width="1" height="1" fill="#a2c5cc0c"/>
  <rect x="308" y="19" width="2" height="1" fill="#a2c5ce0c"/>
  <rect x="310" y="19" width="1" height="1" fill="#a2c5cc0c"/>
  <rect x="311" y="19" width="7" height="1" fill="#a2c5cc0b"/>
  <rect x="318" y="19" width="1" height="1" fill="#a2c5cc0a"/>
  <rect x="319" y="19" width="3" height="1" fill="#a2c5ce0a"/>
  <rect x="322" y="19" width="1" height="1" fill="#a2c6ca0a"/>
  <rect x="16" y="20" width="1" height="1" fill="#a2c5d00a"/>
  <rect x="17" y="20" width="3" height="1" fill="#a2c5ce0a"/>
  <rect x="20" y="20" width="2" height="1" fill="#a2c5d00a"/>
  <rect x="22" y="20" width="2" height="1" fill="#a2c5ce0b"/>
  <rect x="24" y="20" width="5" height="1" fill="#a2c5ce0c"/>
  <rect x="29" y="20" width="3" height="1" fill="#a2c5ce0d"/>
  <rect x="32" y="20" width="1" height="1" fill="#a2c5d00e"/>
  <rect x="33" y="20" width="3" height="1" fill="#a2c5ce0e"/>
  <rect x="36" y="20" width="2" height="1" fill="#a2c5d00f"/>
  <rect x="38" y="20" width="1" height="1" fill="#a2c5ce0f"/>
  <rect x="39" y="20" width="4" height="1" fill="#a2c5ce10"/>
  <rect x="43" y="20" width="2" height="1" fill="#a2c5ce11"/>
  <rect x="45" y="20" width="3" height="1" fill="#a2c5ce12"/>
  <rect x="48" y="20" width="1" height="1" fill="#a2c5d012"/>
  <rect x="49" y="20" width="3" height="1" fill="#a2c5ce13"/>
  <rect x="52" y="20" width="2" height="1" fill="#a2c5d014"/>
  <rect x="54" y="20" width="2" height="1" fill="#a2c5ce14"/>
  <rect x="56" y="20" width="2" height="1" fill="#a2c5ce15"/>
  <rect x="58" y="20" width="3" height="1" fill="#a2c5ce16"/>
  <rect x="61" y="20" width="3" height="1" fill="#a2c5ce17"/>
  <rect x="64" y="20" width="1" height="1" fill="#a2c5d017"/>
  <rect x="65" y="20" width="3" height="1" fill="#a2c5ce18"/>
  <rect x="68" y="20" width="1" height="1" fill="#a2c5d018"/>
  <rect x="69" y="20" width="1" height="1" fill="#a2c5d019"/>
  <rect x="70" y="20" width="1" height="1" fill="#a2c5ce19"/>
  <rect x="71" y="20" width="4" height="1" fill="#a2c5ce1a"/>
  <rect x="75" y="20" width="3" height="1" fill="#a2c5ce1b"/>
  <rect x="78" y="20" width="2" height="1" fill="#a2c5ce1c"/>
  <rect x="80" y="20" width="1" height="1" fill="#a2c5d01c"/>
  <rect x="81" y="20" width="2" height="1" fill="#a2c5ce1c"/>
  <rect x="83" y="20" width="1" height="1" fill="#a2c5ce1d"/>
  <rect x="84" y="20" width="1" height="1" fill="#a2c5d01d"/>
  <rect x="85" y="20" width="1" height="1" fill="#a2c5d01e"/>
  <rect x="86" y="20" width="2" height="1" fill="#a2c5ce1e"/>
  <rect x="88" y="20" width="4" height="1" fill="#a2c5ce1f"/>
  <rect x="92" y="20" width="4" height="1" fill="#a2c5ce20"/>
  <rect x="96" y="20" width="1" height="1" fill="#a2c5d020"/>
  <rect x="97" y="20" width="1" height="1" fill="#a2c5ce20"/>
  <rect x="98" y="20" width="2" height="1" fill="#a2c5ce21"/>
  <rect x="100" y="20" width="1" height="1" fill="#a2c5d021"/>
  <rect x="101" y="20" width="1" height="1" fill="#a2c5d022"/>
  <rect x="102" y="20" width="7" height="1" fill="#a2c5ce22"/>
  <rect x="109" y="20" width="3" height="1" fill="#a2c5ce23"/>
  <rect x="112" y="20" width="1" height="1" fill="#a2c5d023"/>
  <rect x="113" y="20" width="3" height="1" fill="#a2c5ce23"/>
  <rect x="116" y="20" width="2" height="1" fill="#a2c5d023"/>
  <rect x="118" y="20" width="10" height="1" fill="#a2c5ce23"/>
  <rect x="128" y="20" width="1" height="1" fill="#a2c5d023"/>
  <rect x="129" y="20" width="3" height="1" fill="#a2c5ce23"/>
  <rect x="132" y="20" width="2" height="1" fill="#a2c5d023"/>
  <rect x="134" y="20" width="10" height="1" fill="#a2c5ce23"/>
  <rect x="144" y="20" width="1" height="1" fill="#a2c5d023"/>
  <rect x="145" y="20" width="3" height="1" fill="#a2c5ce23"/>
  <rect x="148" y="20" width="2" height="1" fill="#a2c5d023"/>
  <rect x="150" y="20" width="10" height="1" fill="#a2c5ce23"/>
  <rect x="160" y="20" width="1" height="1" fill="#a2c5d023"/>
  <rect x="161" y="20" width="3" height="1" fill="#a2c5ce23"/>
  <rect x="164" y="20" width="2" height="1" fill="#a2c5d023"/>
  <rect x="166" y="20" width="10" height="1" fill="#a2c5ce23"/>
  <rect x="176" y="20" width="1" height="1" fill="#a2c5d023"/>
  <rect x="177" y="20" width="3" height="1" fill="#a2c5ce23"/>
  <rect x="180" y="20" width="2" height="1" fill="#a2c5d023"/>
  <rect x="182" y="20" width="10" height="1" fill="#a2c5ce23"/>
  <rect x="192" y="20" width="1" height="1" fill="#a2c5d023"/>
  <rect x="193" y="20" width="3" height="1" fill="#a2c5ce23"/>
  <rect x="196" y="20" width="2" height="1" fill="#a2c5d023"/>
  <rect x="198" y="20" width="10" height="1" fill="#a2c5ce23"/>
  <rect x="208" y="20" width="1" height="1" fill="#a2c5d023"/>
  <rect x="209" y="20" width="3" height="1" fill="#a2c5ce23"/>
  <rect x="212" y="20" width="2" height="1" fill="#a2c5d023"/>
  <rect x="214" y="20" width="10" height="1" fill="#a2c5ce23"/>
  <rect x="224" y="20" width="1" height="1" fill="#a2c5d023"/>
  <rect x="225" y="20" width="3" height="1" fill="#a2c5ce23"/>
  <rect x="228" y="20" width="2" height="1" fill="#a2c5d023"/>
  <rect x="230" y="20" width="10" height="1" fill="#a2c5ce23"/>
  <rect x="240" y="20" width="1" height="1" fill="#a2c5d023"/>
  <rect x="241" y="20" width="3" height="1" fill="#a2c5ce23"/>
  <rect x="244" y="20" width="2" height="1" fill="#a2c5d023"/>
  <rect x="246" y="20" width="10" height="1" fill="#a2c5ce23"/>
  <rect x="256" y="20" width="1" height="1" fill="#a2c5d022"/>
  <rect x="257" y="20" width="3" height="1" fill="#a2c5ce22"/>
  <rect x="260" y="20" width="2" height="1" fill="#a2c5d022"/>
  <rect x="262" y="20" width="2" height="1" fill="#a2c5ce22"/>
  <rect x="264" y="20" width="6" height="1" fill="#a2c5ce21"/>
  <rect x="270" y="20" width="2" height="1" fill="#a2c5ce20"/>
  <rect x="272" y="20" width="1" height="1" fill="#a2c5d020"/>
  <rect x="273" y="20" width="1" height="1" fill="#a2c5ce20"/>
  <rect x="274" y="20" width="2" height="1" fill="#a2c5ce1f"/>
  <rect x="276" y="20" width="1" height="1" fill="#a2c5d01f"/>
  <rect x="277" y="20" width="1" height="1" fill="#a2c5d01e"/>
  <rect x="278" y="20" width="3" height="1" fill="#a2c5ce1e"/>
  <rect x="281" y="20" width="3" height="1" fill="#a2c5ce1d"/>
  <rect x="284" y="20" width="4" height="1" fill="#a2c5ce1c"/>
  <rect x="288" y="20" width="1" height="1" fill="#a2c5d01c"/>
  <rect x="289" y="20" width="2" height="1" fill="#a2c5ce1b"/>
  <rect x="291" y="20" width="1" height="1" fill="#a2c5ce1a"/>
  <rect x="292" y="20" width="2" height="1" fill="#a2c5d01a"/>
  <rect x="294" y="20" width="1" height="1" fill="#a2c5ce1a"/>
  <rect x="295" y="20" width="3" height="1" fill="#a2c5ce19"/>
  <rect x="298" y="20" width="5" height="1" fill="#a2c5ce18"/>
  <rect x="303" y="20" width="1" height="1" fill="#a2c5ce17"/>
  <rect x="304" y="20" width="1" height="1" fill="#a2c5d017"/>
  <rect x="305" y="20" width="3" height="1" fill="#a2c5ce16"/>
  <rect x="308" y="20" width="1" height="1" fill="#a2c5d016"/>
  <rect x="309" y="20" width="1" height="1" fill="#a2c5d015"/>
  <rect x="310" y="20" width="2" height="1" fill="#a2c5ce15"/>
  <rect x="312" y="20" width="4" height="1" fill="#a2c5ce14"/>
  <rect x="316" y="20" width="2" height="1" fill="#a2c5ce13"/>
  <rect x="318" y="20" width="2" height="1" fill="#a2c5ce12"/>
  <rect x="320" y="20" width="1" height="1" fill="#a2c5d012"/>
  <rect x="321" y="20" width="2" height="1" fill="#a2c5ce12"/>
  <rect x="323" y="20" width="1" height="1" fill="#a2c5ce11"/>
  <rect x="324" y="20" width="1" height="1" fill="#a2c5d011"/>
  <rect x="325" y="20" width="1" height="1" fill="#a2c5d010"/>
  <rect x="326" y="20" width="4" height="1" fill="#a2c5ce10"/>
  <rect x="330" y="20" width="3" height="1" fill="#a2c5ce0f"/>
  <rect x="333" y="20" width="3" height="1" fill="#a2c5ce0e"/>
  <rect x="336" y="20" width="1" height="1" fill="#a2c5d00d"/>
  <rect x="337" y="20" width="3" height="1" fill="#a2c5ce0d"/>
  <rect x="340" y="20" width="2" height="1" fill="#a2c5d00c"/>
  <rect x="342" y="20" width="3" height="1" fill="#a2c5ce0c"/>
  <rect x="345" y="20" width="3" height="1" fill="#a2c5ce0b"/>
  <rect x="348" y="20" width="4" height="1" fill="#a2c5ce0a"/>
  <rect x="352" y="20" width="1" height="1" fill="#a2c5d00a"/>
  <rect x="0" y="21" width="1" height="1" fill="#a2c5ce12"/>
  <rect x="1" y="21" width="2" height="1" fill="#a2c5ce13"/>
  <rect x="3" y="21" width="2" height="1" fill="#a2c5ce14"/>
  <rect x="5" y="21" width="1" height="1" fill="#a2c5ce15"/>
  <rect x="6" y="21" width="2" height="1" fill="#a2c5ce16"/>
  <rect x="8" y="21" width="1" height="1" fill="#a2c5ce17"/>
  <rect x="9" y="21" width="2" height="1" fill="#a2c5ce18"/>
  <rect x="11" y="21" width="1" height="1" fill="#a2c5ce19"/>
  <rect x="12" y="21" width="1" height="1" fill="#a2c5ce1a"/>
  <rect x="13" y="21" width="2" height="1" fill="#a2c5ce1b"/>
  <rect x="15" y="21" width="1" height="1" fill="#a2c5ce1c"/>
  <rect x="16" y="21" width="1" height="1" fill="#a2c5d01d"/>
  <rect x="17" y="21" width="1" height="1" fill="#a2c5d01e"/>
  <rect x="18" y="21" width="1" height="1" fill="#a2c5ce1e"/>
  <rect x="19" y="21" width="1" height="1" fill="#a2c5ce1f"/>
  <rect x="20" y="21" width="1" height="1" fill="#a2c5d020"/>
  <rect x="21" y="21" width="1" height="1" fill="#a2c5d021"/>
  <rect x="22" y="21" width="2" height="1" fill="#a2c5ce22"/>
  <rect x="24" y="21" width="1" height="1" fill="#a2c5ce23"/>
  <rect x="25" y="21" width="1" height="1" fill="#a2c5ce24"/>
  <rect x="26" y="21" width="1" height="1" fill="#a2c5ce25"/>
  <rect x="27" y="21" width="2" height="1" fill="#a2c5ce26"/>
  <rect x="29" y="21" width="1" height="1" fill="#a2c5ce27"/>
  <rect x="30" y="21" width="1" height="1" fill="#a2c5ce28"/>
  <rect x="31" y="21" width="1" height="1" fill="#a2c5ce29"/>
  <rect x="32" y="21" width="2" height="1" fill="#a2c5d02a"/>
  <rect x="34" y="21" width="1" height="1" fill="#a2c5ce2b"/>
  <rect x="35" y="21" width="1" height="1" fill="#a2c5ce2c"/>
  <rect x="36" y="21" width="1" height="1" fill="#a2c5d02c"/>
  <rect x="37" y="21" width="1" height="1" fill="#a2c5d02d"/>
  <rect x="38" y="21" width="1" height="1" fill="#a2c5ce2e"/>
  <rect x="39" y="21" width="2" height="1" fill="#a2c5ce2f"/>
  <rect x="41" y="21" width="2" height="1" fill="#a2c5ce30"/>
  <rect x="43" y="21" width="3" height="1" fill="#a2c5ce31"/>
  <rect x="46" y="21" width="2" height="1" fill="#a2c5ce32"/>
  <rect x="48" y="21" width="2" height="1" fill="#a2c5d033"/>
  <rect x="50" y="21" width="2" height="1" fill="#a2c5ce34"/>
  <rect x="52" y="21" width="2" height="1" fill="#a2c5d035"/>
  <rect x="54" y="21" width="2" height="1" fill="#a2c5ce36"/>
  <rect x="56" y="21" width="3" height="1" fill="#a2c5ce37"/>
  <rect x="59" y="21" width="2" height="1" fill="#a2c5ce38"/>
  <rect x="61" y="21" width="3" height="1" fill="#a2c5ce39"/>
  <rect x="64" y="21" width="2" height="1" fill="#a2c5d03a"/>
  <rect x="66" y="21" width="2" height="1" fill="#a2c5ce3b"/>
  <rect x="68" y="21" width="1" height="1" fill="#a2c5d03b"/>
  <rect x="69" y="21" width="1" height="1" fill="#a2c5d03c"/>
  <rect x="70" y="21" width="6" height="1" fill="#a2c5ce3c"/>
  <rect x="76" y="21" width="4" height="1" fill="#a2c5ce3d"/>
  <rect x="80" y="21" width="2" height="1" fill="#a2c5d03d"/>
  <rect x="82" y="21" width="1" height="1" fill="#a2c5ce3d"/>
  <rect x="83" y="21" width="1" height="1" fill="#a2c5ce3e"/>
  <rect x="84" y="21" width="2" height="1" fill="#a2c5d03e"/>
  <rect x="86" y="21" width="5" height="1" fill="#a2c5ce3e"/>
  <rect x="91" y="21" width="5" height="1" fill="#a2c5ce3f"/>
  <rect x="96" y="21" width="2" height="1" fill="#a2c5d03f"/>
  <rect x="98" y="21" width="2" height="1" fill="#a2c5ce3f"/>
  <rect x="100" y="21" width="2" height="1" fill="#a2c5d040"/>
  <rect x="102" y="21" width="10" height="1" fill="#a2c5ce40"/>
  <rect x="112" y="21" width="2" height="1" fill="#a2c5d040"/>
  <rect x="114" y="21" width="2" height="1" fill="#a2c5ce40"/>
  <rect x="116" y="21" width="2" height="1" fill="#a2c5d040"/>
  <rect x="118" y="21" width="10" height="1" fill="#a2c5ce40"/>
  <rect x="128" y="21" width="2" height="1" fill="#a2c5d040"/>
  <rect x="130" y="21" width="2" height="1" fill="#a2c5ce40"/>
  <rect x="132" y="21" width="2" height="1" fill="#a2c5d040"/>
  <rect x="134" y="21" width="10" height="1" fill="#a2c5ce40"/>
  <rect x="144" y="21" width="2" height="1" fill="#a2c5d040"/>
  <rect x="146" y="21" width="2" height="1" fill="#a2c5ce40"/>
  <rect x="148" y="21" width="2" height="1" fill="#a2c5d040"/>
  <rect x="150" y="21" width="10" height="1" fill="#a2c5ce40"/>
  <rect x="160" y="21" width="2" height="1" fill="#a2c5d040"/>
  <rect x="162" y="21" width="2" height="1" fill="#a2c5ce40"/>
  <rect x="164" y="21" width="2" height="1" fill="#a2c5d040"/>
  <rect x="166" y="21" width="10" height="1" fill="#a2c5ce40"/>
  <rect x="176" y="21" width="2" height="1" fill="#a2c5d040"/>
  <rect x="178" y="21" width="2" height="1" fill="#a2c5ce40"/>
  <rect x="180" y="21" width="2" height="1" fill="#a2c5d040"/>
  <rect x="182" y="21" width="10" height="1" fill="#a2c5ce40"/>
  <rect x="192" y="21" width="2" height="1" fill="#a2c5d040"/>
  <rect x="194" y="21" width="2" height="1" fill="#a2c5ce40"/>
  <rect x="196" y="21" width="2" height="1" fill="#a2c5d040"/>
  <rect x="198" y="21" width="10" height="1" fill="#a2c5ce40"/>
  <rect x="208" y="21" width="2" height="1" fill="#a2c5d040"/>
  <rect x="210" y="21" width="2" height="1" fill="#a2c5ce40"/>
  <rect x="212" y="21" width="2" height="1" fill="#a2c5d040"/>
  <rect x="214" y="21" width="10" height="1" fill="#a2c5ce40"/>
  <rect x="224" y="21" width="2" height="1" fill="#a2c5d040"/>
  <rect x="226" y="21" width="2" height="1" fill="#a2c5ce40"/>
  <rect x="228" y="21" width="2" height="1" fill="#a2c5d040"/>
  <rect x="230" y="21" width="10" height="1" fill="#a2c5ce40"/>
  <rect x="240" y="21" width="2" height="1" fill="#a2c5d040"/>
  <rect x="242" y="21" width="2" height="1" fill="#a2c5ce40"/>
  <rect x="244" y="21" width="2" height="1" fill="#a2c5d040"/>
  <rect x="246" y="21" width="10" height="1" fill="#a2c5ce40"/>
  <rect x="256" y="21" width="2" height="1" fill="#a2c5d040"/>
  <rect x="258" y="21" width="2" height="1" fill="#a2c5ce40"/>
  <rect x="260" y="21" width="1" height="1" fill="#a2c5d040"/>
  <rect x="261" y="21" width="1" height="1" fill="#a2c5d03f"/>
  <rect x="262" y="21" width="7" height="1" fill="#a2c5ce3f"/>
  <rect x="269" y="21" width="3" height="1" fill="#a2c5ce3e"/>
  <rect x="272" y="21" width="2" height="1" fill="#a2c5d03e"/>
  <rect x="274" y="21" width="2" height="1" fill="#a2c5ce3e"/>
  <rect x="276" y="21" width="2" height="1" fill="#a2c5d03d"/>
  <rect x="278" y="21" width="3" height="1" fill="#a2c5ce3d"/>
  <rect x="281" y="21" width="6" height="1" fill="#a2c5ce3c"/>
  <rect x="287" y="21" width="1" height="1" fill="#a2c5ce3b"/>
  <rect x="288" y="21" width="2" height="1" fill="#a2c5d03b"/>
  <rect x="290" y="21" width="2" height="1" fill="#a2c5ce3b"/>
  <rect x="292" y="21" width="2" height="1" fill="#a2c5d03a"/>
  <rect x="294" y="21" width="2" height="1" fill="#a2c5ce3a"/>
  <rect x="296" y="21" width="5" height="1" fill="#a2c5ce39"/>
  <rect x="301" y="21" width="3" height="1" fill="#a2c5ce38"/>
  <rect x="304" y="21" width="1" height="1" fill="#a2c5d038"/>
  <rect x="305" y="21" width="1" height="1" fill="#a2c5d037"/>
  <rect x="306" y="21" width="2" height="1" fill="#a2c5ce37"/>
  <rect x="308" y="21" width="1" height="1" fill="#a2c5d037"/>
  <rect x="309" y="21" width="1" height="1" fill="#a2c5d036"/>
  <rect x="310" y="21" width="3" height="1" fill="#a2c5ce36"/>
  <rect x="313" y="21" width="4" height="1" fill="#a2c5ce35"/>
  <rect x="317" y="21" width="3" height="1" fill="#a2c5ce34"/>
  <rect x="320" y="21" width="1" height="1" fill="#a2c5d034"/>
  <rect x="321" y="21" width="1" height="1" fill="#a2c5d033"/>
  <rect x="322" y="21" width="2" height="1" fill="#a2c5ce33"/>
  <rect x="324" y="21" width="2" height="1" fill="#a2c5d032"/>
  <rect x="326" y="21" width="1" height="1" fill="#a2c5ce32"/>
  <rect x="327" y="21" width="2" height="1" fill="#a2c5ce31"/>
  <rect x="329" y="21" width="3" height="1" fill="#a2c5ce30"/>
  <rect x="332" y="21" width="2" height="1" fill="#a2c5ce2f"/>
  <rect x="334" y="21" width="2" height="1" fill="#a2c5ce2e"/>
  <rect x="336" y="21" width="1" height="1" fill="#a2c5d02e"/>
  <rect x="337" y="21" width="1" height="1" fill="#a2c5d02d"/>
  <rect x="338" y="21" width="1" height="1" fill="#a2c5ce2d"/>
  <rect x="339" y="21" width="1" height="1" fill="#a2c5ce2c"/>
  <rect x="340" y="21" width="2" height="1" fill="#a2c5d02c"/>
  <rect x="342" y="21" width="2" height="1" fill="#a2c5ce2b"/>
  <rect x="344" y="21" width="2" height="1" fill="#a2c5ce2a"/>
  <rect x="346" y="21" width="1" height="1" fill="#a2c5ce29"/>
  <rect x="347" y="21" width="2" height="1" fill="#a2c5ce28"/>
  <rect x="349" y="21" width="1" height="1" fill="#a2c5ce27"/>
  <rect x="350" y="21" width="2" height="1" fill="#a2c5ce26"/>
  <rect x="352" y="21" width="1" height="1" fill="#a2c5d025"/>
  <rect x="353" y="21" width="1" height="1" fill="#a2c5d024"/>
  <rect x="354" y="21" width="1" height="1" fill="#a2c5ce23"/>
  <rect x="355" y="21" width="1" height="1" fill="#a2c5ce22"/>
  <rect x="356" y="21" width="1" height="1" fill="#a2c5d022"/>
  <rect x="357" y="21" width="1" height="1" fill="#a2c5d021"/>
  <rect x="358" y="21" width="1" height="1" fill="#a2c5ce20"/>
  <rect x="359" y="21" width="2" height="1" fill="#a2c5ce1f"/>
  <rect x="361" y="21" width="1" height="1" fill="#a2c5ce1e"/>
  <rect x="362" y="21" width="1" height="1" fill="#a2c5ce1d"/>
  <rect x="363" y="21" width="2" height="1" fill="#a2c5ce1c"/>
  <rect x="365" y="21" width="1" height="1" fill="#a2c5ce1b"/>
  <rect x="366" y="21" width="1" height="1" fill="#a2c5ce1a"/>
  <rect x="367" y="21" width="1" height="1" fill="#a2c5ce19"/>
  <rect x="368" y="21" width="1" height="1" fill="#a2c5d019"/>
  <rect x="369" y="21" width="1" height="1" fill="#a2c5d018"/>
  <rect x="370" y="21" width="1" height="1" fill="#a2c5ce17"/>
  <rect x="371" y="21" width="1" height="1" fill="#a2c5ce16"/>
  <rect x="372" y="21" width="1" height="1" fill="#a2c5d016"/>
  <rect x="373" y="21" width="1" height="1" fill="#a2c5d015"/>
  <rect x="374" y="21" width="1" height="1" fill="#a2c5ce15"/>
  <rect x="375" y="21" width="1" height="1" fill="#a2c5ce14"/>
</svg>