<svg xmlns="http://www.w3.org/2000/svg" width="5" height="490" viewBox="0 0 5 490" shape-rendering="crispEdges">
  <rect x="0" y="0" width="5" height="27" fill="#ffffff"/>
  <rect x="0" y="27" width="4" height="1" fill="#fefefe"/>
  <rect x="4" y="27" width="1" height="1" fill="#ffffff"/>
  <rect x="0" y="28" width="5" height="1" fill="#fefefe"/>
  <rect x="0" y="29" width="4" height="3" fill="#fdfdfd"/>
  <rect x="4" y="29" width="1" height="3" fill="#fefefe"/>
  <rect x="0" y="32" width="4" height="18" fill="#fcfbfc"/>
  <rect x="4" y="32" width="1" height="20" fill="#ffffff"/>
  <rect x="0" y="50" width="2" height="2" fill="#fcfbfc"/>
  <rect x="2" y="50" width="1" height="4" fill="#fdfdfd"/>
  <rect x="3" y="50" width="1" height="2" fill="#fcfbfc"/>
  <rect x="0" y="52" width="1" height="12" fill="#f7f7f7"/>
  <rect x="1" y="52" width="1" height="12" fill="#fafafa"/>
  <rect x="3" y="52" width="2" height="12" fill="#ffffff"/>
  <rect x="2" y="54" width="1" height="10" fill="#fefefe"/>
  <rect x="0" y="64" width="1" height="27" fill="#f6f6f6"/>
  <rect x="1" y="64" width="1" height="27" fill="#f9f9f9"/>
  <rect x="2" y="64" width="1" height="27" fill="#fdfdfd"/>
  <rect x="3" y="64" width="1" height="27" fill="#ffffff"/>
  <rect x="4" y="64" width="1" height="27" fill="#fefefe"/>
  <rect x="0" y="91" width="1" height="2" fill="#f5f5f5"/>
  <rect x="1" y="91" width="1" height="2" fill="#f8f8f8"/>
  <rect x="2" y="91" width="1" height="2" fill="#fcfbfc"/>
  <rect x="3" y="91" width="2" height="2" fill="#fefefe"/>
  <rect x="0" y="93" width="1" height="33" fill="#f3f3f3"/>
  <rect x="1" y="93" width="1" height="33" fill="#f7f7f7"/>
  <rect x="2" y="93" width="1" height="33" fill="#fafafa"/>
  <rect x="3" y="93" width="1" height="33" fill="#fdfdfd"/>
  <rect x="4" y="93" width="1" height="51" fill="#fefefe"/>
  <rect x="0" y="126" width="1" height="4" fill="#f2f2f2"/>
  <rect x="1" y="126" width="1" height="4" fill="#f6f6f6"/>
  <rect x="2" y="126" width="1" height="4" fill="#f9f9f9"/>
  <rect x="3" y="126" width="1" height="4" fill="#fcfbfc"/>
  <rect x="0" y="130" width="1" height="11" fill="#f1f1f1"/>
  <rect x="1" y="130" width="1" height="14" fill="#f5f5f5"/>
  <rect x="2" y="130" width="1" height="12" fill="#f8f8f8"/>
  <rect x="3" y="130" width="1" height="11" fill="#fafafa"/>
  <rect x="0" y="141" width="1" height="2" fill="#f0f0f0"/>
  <rect x="3" y="141" width="1" height="2" fill="#fcfbfc"/>
  <rect x="2" y="142" width="1" height="4" fill="#f9f9f9"/>
  <rect x="0" y="143" width="1" height="2" fill="#efefef"/>
  <rect x="3" y="143" width="1" height="1" fill="#fdfdfd"/>
  <rect x="1" y="144" width="1" height="4" fill="#f3f3f3"/>
  <rect x="3" y="144" width="2" height="1" fill="#fdfdfd"/>
  <rect x="0" y="145" width="1" height="2" fill="#eeeeee"/>
  <rect x="3" y="145" width="1" height="2" fill="#fefefe"/>
  <rect x="4" y="145" width="1" height="3" fill="#fdfdfd"/>
  <rect x="2" y="146" width="1" height="2" fill="#fafafa"/>
  <rect x="0" y="147" width="1" height="1" fill="#ececec"/>
  <rect x="3" y="147" width="1" height="1" fill="#ffffff"/>
  <rect x="0" y="148" width="1" height="3" fill="#f1f1f1"/>
  <rect x="1" y="148" width="1" height="3" fill="#f5f5f5"/>
  <rect x="2" y="148" width="1" height="3" fill="#f9f9f9"/>
  <rect x="3" y="148" width="1" height="3" fill="#fcfbfc"/>
  <rect x="4" y="148" width="1" height="16" fill="#fefefe"/>
  <rect x="0" y="151" width="1" height="2" fill="#f0f0f0"/>
  <rect x="1" y="151" width="1" height="2" fill="#f3f3f3"/>
  <rect x="2" y="151" width="1" height="2" fill="#f8f8f8"/>
  <rect x="3" y="151" width="1" height="2" fill="#fafafa"/>
  <rect x="0" y="153" width="1" height="11" fill="#efefef"/>
  <rect x="1" y="153" width="1" height="10" fill="#f2f2f2"/>
  <rect x="2" y="153" width="1" height="9" fill="#f7f7f7"/>
  <rect x="3" y="153" width="1" height="11" fill="#f9f9f9"/>
  <rect x="2" y="162" width="1" height="4" fill="#f8f8f8"/>
  <rect x="1" y="163" width="1" height="2" fill="#f1f1f1"/>
  <rect x="0" y="164" width="1" height="10" fill="#eaeaea"/>
  <rect x="3" y="164" width="2" height="10" fill="#fefefe"/>
  <rect x="1" y="165" width="1" height="9" fill="#f0f0f0"/>
  <rect x="2" y="166" width="1" height="8" fill="#f9f9f9"/>
  <rect x="0" y="174" width="1" height="4" fill="#e9e9e9"/>
  <rect x="1" y="174" width="1" height="4" fill="#efefef"/>
  <rect x="2" y="174" width="1" height="4" fill="#f8f8f8"/>
  <rect x="3" y="174" width="1" height="4" fill="#fdfdfd"/>
  <rect x="4" y="174" width="1" height="34" fill="#fefefe"/>
  <rect x="0" y="178" width="1" height="30" fill="#e8e8e8"/>
  <rect x="1" y="178" width="1" height="30" fill="#eeeeee"/>
  <rect x="2" y="178" width="1" height="30" fill="#f7f7f7"/>
  <rect x="3" y="178" width="1" height="30" fill="#fcfbfc"/>
  <rect x="0" y="208" width="1" height="80" fill="#e7e7e7"/>
  <rect x="1" y="208" width="1" height="80" fill="#ececec"/>
  <rect x="2" y="208" width="1" height="80" fill="#f6f6f6"/>
  <rect x="3" y="208" width="1" height="80" fill="#fafafa"/>
  <rect x="4" y="208" width="1" height="80" fill="#fdfdfd"/>
  <rect x="0" y="288" width="1" height="40" fill="#e8e8e8"/>
  <rect x="1" y="288" width="1" height="40" fill="#eeeeee"/>
  <rect x="2" y="288" width="1" height="40" fill="#f7f7f7"/>
  <rect x="3" y="288" width="1" height="40" fill="#fcfbfc"/>
  <rect x="4" y="288" width="1" height="110" fill="#fefefe"/>
  <rect x="0" y="328" width="1" height="38" fill="#f0f0f0"/>
  <rect x="1" y="328" width="1" height="38" fill="#f2f2f2"/>
  <rect x="2" y="328" width="1" height="38" fill="#f8f8f8"/>
  <rect x="3" y="328" width="1" height="38" fill="#fafafa"/>
  <rect x="0" y="366" width="1" height="4" fill="#f1f1f1"/>
  <rect x="1" y="366" width="1" height="4" fill="#f3f3f3"/>
  <rect x="2" y="366" width="1" height="4" fill="#f9f9f9"/>
  <rect x="3" y="366" width="1" height="4" fill="#fcfbfc"/>
  <rect x="0" y="370" width="1" height="28" fill="#f2f2f2"/>
  <rect x="1" y="370" width="1" height="28" fill="#f5f5f5"/>
  <rect x="2" y="370" width="1" height="28" fill="#fafafa"/>
  <rect x="3" y="370" width="1" height="28" fill="#fdfdfd"/>
  <rect x="0" y="398" width="1" height="4" fill="#f3f3f3"/>
  <rect x="1" y="398" width="1" height="4" fill="#f6f6f6"/>
  <rect x="2" y="398" width="1" height="4" fill="#fcfbfc"/>
  <rect x="3" y="398" width="2" height="4" fill="#fefefe"/>
  <rect x="0" y="402" width="1" height="18" fill="#f5f5f5"/>
  <rect x="1" y="402" width="1" height="16" fill="#f7f7f7"/>
  <rect x="2" y="402" width="1" height="19" fill="#fdfdfd"/>
  <rect x="3" y="402" width="1" height="17" fill="#ffffff"/>
  <rect x="4" y="402" width="1" height="17" fill="#fefefe"/>
  <rect x="1" y="418" width="1" height="4" fill="#f8f8f8"/>
  <rect x="3" y="419" width="2" height="1" fill="#fefefe"/>
  <rect x="0" y="420" width="1" height="2" fill="#f9f9f9"/>
  <rect x="3" y="420" width="1" height="1" fill="#fefefe"/>
  <rect x="4" y="420" width="1" height="1" fill="#fdfdfd"/>
  <rect x="2" y="421" width="3" height="3" fill="#fdfdfd"/>
  <rect x="0" y="422" width="2" height="2" fill="#f9f9f9"/>
  <rect x="0" y="424" width="2" height="40" fill="#fafafa"/>
  <rect x="2" y="424" width="3" height="8" fill="#fefefe"/>
  <rect x="2" y="432" width="2" height="32" fill="#fdfdfd"/>
  <rect x="4" y="432" width="1" height="33" fill="#ffffff"/>
  <rect x="0" y="464" width="1" height="1" fill="#fafafa"/>
  <rect x="1" y="464" width="1" height="1" fill="#fcfbfc"/>
  <rect x="2" y="464" width="1" height="1" fill="#fdfdfd"/>
  <rect x="3" y="464" width="1" height="1" fill="#fefefe"/>
  <rect x="0" y="465" width="1" height="2" fill="#fcfbfc"/>
  <rect x="1" y="465" width="1" height="2" fill="#fdfdfd"/>
  <rect x="2" y="465" width="1" height="2" fill="#fefefe"/>
  <rect x="3" y="465" width="2" height="2" fill="#ffffff"/>
  <rect x="0" y="467" width="1" height="11" fill="#fdfdfd"/>
  <rect x="1" y="467" width="1" height="11" fill="#fefefe"/>
  <rect x="2" y="467" width="3" height="13" fill="#ffffff"/>
  <rect x="0" y="478" width="2" height="2" fill="#fefefe"/>
  <rect x="0" y="480" width="1" height="2" fill="#fefefe"/>
  <rect x="1" y="480" width="4" height="2" fill="#ffffff"/>
  <rect x="0" y="482" width="5" height="8" fill="#ffffff"/>
</svg>