<svg xmlns="http://www.w3.org/2000/svg" width="64" height="16" viewBox="0 0 64 16" shape-rendering="crispEdges">
  <rect x="17" y="0" width="1" height="1" fill="#d7d7d721"/>
  <rect x="18" y="0" width="1" height="1" fill="#d6d6d6b1"/>
  <rect x="19" y="0" width="1" height="1" fill="#dcdcdced"/>
  <rect x="20" y="0" width="8" height="1" fill="#dbdbdb"/>
  <rect x="28" y="0" width="1" height="1" fill="#dbdbdbed"/>
  <rect x="29" y="0" width="1" height="1" fill="#d6d6d6b1"/>
  <rect x="30" y="0" width="1" height="1" fill="#d6d6d621"/>
  <rect x="33" y="0" width="1" height="1" fill="#d5d5d521"/>
  <rect x="34" y="0" width="1" height="1" fill="#dcdcdcb1"/>
  <rect x="35" y="0" width="1" height="1" fill="#dddddded"/>
  <rect x="36" y="0" width="8" height="1" fill="#d7d7d7"/>
  <rect x="44" y="0" width="1" height="1" fill="#e0e0e0ed"/>
  <rect x="45" y="0" width="1" height="1" fill="#d3d3d3b1"/>
  <rect x="46" y="0" width="1" height="1" fill="#d9d9d921"/>
  <rect x="49" y="0" width="1" height="1" fill="#d5d5d521"/>
  <rect x="50" y="0" width="1" height="1" fill="#d9d9d9b1"/>
  <rect x="51" y="0" width="1" height="1" fill="#d9d9d9ed"/>
  <rect x="52" y="0" width="8" height="1" fill="#d6d6d6"/>
  <rect x="60" y="0" width="1" height="1" fill="#dadadaed"/>
  <rect x="61" y="0" width="1" height="1" fill="#dadadab1"/>
  <rect x="62" y="0" width="1" height="1" fill="#d7d7d721"/>
  <rect x="16" y="1" width="1" height="1" fill="#d7d7d72a"/>
  <rect x="17" y="1" width="1" height="1" fill="#d9d9d9f0"/>
  <rect x="18" y="1" width="1" height="1" fill="#ececec"/>
  <rect x="19" y="1" width="1" height="1" fill="#fcfbfc"/>
  <rect x="20" y="1" width="8" height="1" fill="#ffffff"/>
  <rect x="28" y="1" width="1" height="1" fill="#fcfbfc"/>
  <rect x="29" y="1" width="1" height="1" fill="#ececec"/>
  <rect x="30" y="1" width="1" height="1" fill="#d9d9d9f0"/>
  <rect x="31" y="1" width="2" height="1" fill="#d7d7d72a"/>
  <rect x="33" y="1" width="1" height="1" fill="#d7d7d7f0"/>
  <rect x="34" y="1" width="1" height="1" fill="#eaeaea"/>
  <rect x="35" y="1" width="1" height="1" fill="#f2f2f2"/>
  <rect x="36" y="1" width="8" height="1" fill="#fafafa"/>
  <rect x="44" y="1" width="1" height="1" fill="#ffffff"/>
  <rect x="45" y="1" width="1" height="1" fill="#ececec"/>
  <rect x="46" y="1" width="1" height="1" fill="#dededef0"/>
  <rect x="47" y="1" width="1" height="1" fill="#dadada2a"/>
  <rect x="48" y="1" width="1" height="1" fill="#dcdcdc2a"/>
  <rect x="49" y="1" width="1" height="1" fill="#dcdcdcf0"/>
  <rect x="50" y="1" width="1" height="1" fill="#ececec"/>
  <rect x="51" y="1" width="1" height="1" fill="#f8f8f8"/>
  <rect x="52" y="1" width="8" height="1" fill="#fefefe"/>
  <rect x="60" y="1" width="1" height="1" fill="#fdfdfd"/>
  <rect x="61" y="1" width="1" height="1" fill="#f0f0f0"/>
  <rect x="62" y="1" width="1" height="1" fill="#dededef0"/>
  <rect x="63" y="1" width="1" height="1" fill="#e4e4e42a"/>
  <rect x="16" y="2" width="1" height="1" fill="#d6d6d6b1"/>
  <rect x="17" y="2" width="1" height="1" fill="#ececec"/>
  <rect x="18" y="2" width="1" height="1" fill="#fafafa"/>
  <rect x="19" y="2" width="10" height="1" fill="#ffffff"/>
  <rect x="29" y="2" width="1" height="1" fill="#fcfbfc"/>
  <rect x="30" y="2" width="1" height="1" fill="#eeeeee"/>
  <rect x="31" y="2" width="1" height="1" fill="#d9d9d9b1"/>
  <rect x="32" y="2" width="1" height="1" fill="#d6d6d6b1"/>
  <rect x="33" y="2" width="1" height="1" fill="#eaeaea"/>
  <rect x="34" y="2" width="1" height="1" fill="#f6f6f6"/>
  <rect x="35" y="2" width="10" height="1" fill="#ffffff"/>
  <rect x="45" y="2" width="1" height="1" fill="#fdfdfd"/>
  <rect x="46" y="2" width="1" height="1" fill="#f3f3f3"/>
  <rect x="47" y="2" width="1" height="1" fill="#d3d3d3b1"/>
  <rect x="48" y="2" width="1" height="1" fill="#d9d9d9b1"/>
  <rect x="49" y="2" width="1" height="1" fill="#efefef"/>
  <rect x="50" y="2" width="1" height="1" fill="#fafafa"/>
  <rect x="51" y="2" width="10" height="1" fill="#ffffff"/>
  <rect x="61" y="2" width="1" height="1" fill="#fafafa"/>
  <rect x="62" y="2" width="1" height="1" fill="#efefef"/>
  <rect x="63" y="2" width="1" height="1" fill="#d6d6d6b1"/>
  <rect x="16" y="3" width="1" height="1" fill="#ddddddf3"/>
  <rect x="17" y="3" width="1" height="1" fill="#fcfbfc"/>
  <rect x="18" y="3" width="10" height="1" fill="#ffffff"/>
  <rect x="28" y="3" width="1" height="10" fill="#fefefe"/>
  <rect x="29" y="3" width="1" height="1" fill="#ffffff"/>
  <rect x="30" y="3" width="1" height="1" fill="#fcfbfc"/>
  <rect x="31" y="3" width="1" height="1" fill="#dcdcdcf3"/>
  <rect x="32" y="3" width="1" height="1" fill="#e0e0e0f3"/>
  <rect x="33" y="3" width="1" height="1" fill="#fcfbfc"/>
  <rect x="34" y="3" width="1" height="1" fill="#f8f8f8"/>
  <rect x="35" y="3" width="9" height="1" fill="#ffffff"/>
  <rect x="44" y="3" width="1" height="1" fill="#fdfdfd"/>
  <rect x="45" y="3" width="1" height="1" fill="#ffffff"/>
  <rect x="46" y="3" width="1" height="1" fill="#f6f6f6"/>
  <rect x="47" y="3" width="1" height="1" fill="#dadadaf3"/>
  <rect x="48" y="3" width="1" height="1" fill="#dcdcdcf3"/>
  <rect x="49" y="3" width="1" height="1" fill="#f9f9f9"/>
  <rect x="50" y="3" width="1" height="1" fill="#f5f5f5"/>
  <rect x="51" y="3" width="1" height="1" fill="#fcfbfc"/>
  <rect x="52" y="3" width="8" height="1" fill="#fefefe"/>
  <rect x="60" y="3" width="1" height="1" fill="#f7f7f7"/>
  <rect x="61" y="3" width="1" height="1" fill="#fcfbfc"/>
  <rect x="62" y="3" width="1" height="1" fill="#ffffff"/>
  <rect x="63" y="3" width="1" height="1" fill="#d9d9d9f3"/>
  <rect x="16" y="4" width="1" height="8" fill="#dadada"/>
  <rect x="17" y="4" width="2" height="8" fill="#ffffff"/>
  <rect x="19" y="4" width="1" height="8" fill="#fefefe"/>
  <rect x="20" y="4" width="8" height="8" fill="#ffffff"/>
  <rect x="29" y="4" width="2" height="8" fill="#fdfdfd"/>
  <rect x="31" y="4" width="1" height="8" fill="#dadada"/>
  <rect x="32" y="4" width="1" height="8" fill="#d7d7d7"/>
  <rect x="33" y="4" width="13" height="8" fill="#ffffff"/>
  <rect x="46" y="4" width="1" height="8" fill="#fafafa"/>
  <rect x="47" y="4" width="1" height="8" fill="#d7d7d7"/>
  <rect x="48" y="4" width="1" height="8" fill="#d6d6d6"/>
  <rect x="49" y="4" width="11" height="4" fill="#ffffff"/>
  <rect x="60" y="4" width="1" height="4" fill="#fefefe"/>
  <rect x="61" y="4" width="1" height="4" fill="#ffffff"/>
  <rect x="62" y="4" width="1" height="4" fill="#fefefe"/>
  <rect x="63" y="4" width="1" height="4" fill="#d4d4d4"/>
  <rect x="49" y="8" width="14" height="4" fill="#ffffff"/>
  <rect x="63" y="8" width="1" height="4" fill="#d5d5d5"/>
  <rect x="16" y="12" width="1" height="1" fill="#ddddddf0"/>
  <rect x="17" y="12" width="1" height="1" fill="#fefefe"/>
  <rect x="18" y="12" width="6" height="1" fill="#ffffff"/>
  <rect x="24" y="12" width="4" height="1" fill="#fdfdfd"/>
  <rect x="29" y="12" width="1" height="1" fill="#ffffff"/>
  <rect x="30" y="12" width="1" height="1" fill="#fcfbfc"/>
  <rect x="31" y="12" width="1" height="1" fill="#dcdcdcf3"/>
  <rect x="32" y="12" width="1" height="1" fill="#d6d6d6f0"/>
  <rect x="33" y="12" width="1" height="1" fill="#f9f9f9"/>
  <rect x="34" y="12" width="1" height="1" fill="#fefefe"/>
  <rect x="35" y="12" width="9" height="1" fill="#ffffff"/>
  <rect x="44" y="12" width="1" height="1" fill="#fefefe"/>
  <rect x="45" y="12" width="1" height="1" fill="#ffffff"/>
  <rect x="46" y="12" width="1" height="1" fill="#f7f7f7"/>
  <rect x="47" y="12" width="1" height="1" fill="#d9d9d9f3"/>
  <rect x="48" y="12" width="1" height="1" fill="#d4d4d4f0"/>
  <rect x="49" y="12" width="2" height="1" fill="#ffffff"/>
  <rect x="51" y="12" width="1" height="1" fill="#fcfbfc"/>
  <rect x="52" y="12" width="9" height="1" fill="#ffffff"/>
  <rect x="61" y="12" width="1" height="1" fill="#fcfbfc"/>
  <rect x="62" y="12" width="1" height="1" fill="#ffffff"/>
  <rect x="63" y="12" width="1" height="1" fill="#dededef3"/>
  <rect x="16" y="13" width="1" height="1" fill="#d7d7d7ae"/>
  <rect x="17" y="13" width="1" height="1" fill="#eeeeee"/>
  <rect x="18" y="13" width="1" height="1" fill="#fcfbfc"/>
  <rect x="19" y="13" width="1" height="1" fill="#ffffff"/>
  <rect x="20" y="13" width="4" height="1" fill="#fdfdfd"/>
  <rect x="24" y="13" width="5" height="1" fill="#ffffff"/>
  <rect x="29" y="13" width="1" height="1" fill="#fafafa"/>
  <rect x="30" y="13" width="1" height="1" fill="#ebebeb"/>
  <rect x="31" y="13" width="1" height="1" fill="#d6d6d6ae"/>
  <rect x="32" y="13" width="1" height="1" fill="#ddddddae"/>
  <rect x="33" y="13" width="1" height="1" fill="#efefef"/>
  <rect x="34" y="13" width="1" height="1" fill="#f6f6f6"/>
  <rect x="35" y="13" width="1" height="1" fill="#fefefe"/>
  <rect x="36" y="13" width="9" height="1" fill="#ffffff"/>
  <rect x="45" y="13" width="1" height="1" fill="#fcfbfc"/>
  <rect x="46" y="13" width="1" height="1" fill="#ebebeb"/>
  <rect x="47" y="13" width="1" height="1" fill="#dadadaae"/>
  <rect x="48" y="13" width="1" height="1" fill="#cfcfcfae"/>
  <rect x="49" y="13" width="1" height="1" fill="#ebebeb"/>
  <rect x="50" y="13" width="1" height="1" fill="#fcfbfc"/>
  <rect x="51" y="13" width="1" height="1" fill="#ffffff"/>
  <rect x="52" y="13" width="8" height="1" fill="#fdfdfd"/>
  <rect x="60" y="13" width="1" height="1" fill="#ffffff"/>
  <rect x="61" y="13" width="1" height="1" fill="#f6f6f6"/>
  <rect x="62" y="13" width="1" height="1" fill="#eeeeee"/>
  <rect x="63" y="13" width="1" height="1" fill="#d7d7d7ae"/>
  <rect x="16" y="14" width="1" height="1" fill="#d9d9d92a"/>
  <rect x="17" y="14" width="1" height="1" fill="#dadadaed"/>
  <rect x="18" y="14" width="1" height="1" fill="#eeeeee"/>
  <rect x="19" y="14" width="5" height="1" fill="#fefefe"/>
  <rect x="24" y="14" width="4" height="1" fill="#ffffff"/>
  <rect x="28" y="14" width="1" height="1" fill="#fcfbfc"/>
  <rect x="29" y="14" width="1" height="1" fill="#ebebeb"/>
  <rect x="30" y="14" width="1" height="1" fill="#d9d9d9ed"/>
  <rect x="31" y="14" width="1" height="1" fill="#d7d7d72a"/>
  <rect x="32" y="14" width="1" height="1" fill="#d9d9d92a"/>
  <rect x="33" y="14" width="1" height="1" fill="#dadadaed"/>
  <rect x="34" y="14" width="1" height="1" fill="#efefef"/>
  <rect x="35" y="14" width="1" height="1" fill="#f9f9f9"/>
  <rect x="36" y="14" width="8" height="1" fill="#ffffff"/>
  <rect x="44" y="14" width="1" height="1" fill="#f7f7f7"/>
  <rect x="45" y="14" width="1" height="1" fill="#ebebeb"/>
  <rect x="46" y="14" width="1" height="1" fill="#e0e0e0ed"/>
  <rect x="47" y="14" width="1" height="1" fill="#dcdcdc2a"/>
  <rect x="48" y="14" width="1" height="1" fill="#d9d9d92a"/>
  <rect x="49" y="14" width="1" height="1" fill="#d5d5d5ed"/>
  <rect x="50" y="14" width="1" height="1" fill="#ececec"/>
  <rect x="51" y="14" width="1" height="1" fill="#f7f7f7"/>
  <rect x="52" y="14" width="9" height="1" fill="#ffffff"/>
  <rect x="61" y="14" width="1" height="1" fill="#eeeeee"/>
  <rect x="62" y="14" width="1" height="1" fill="#d2d2d2ed"/>
  <rect x="63" y="14" width="1" height="1" fill="#d2d2d22a"/>
  <rect x="17" y="15" width="1" height="1" fill="#d9d9d91b"/>
  <rect x="18" y="15" width="1" height="1" fill="#d7d7d7ab"/>
  <rect x="19" y="15" width="1" height="1" fill="#dededee7"/>
  <rect x="20" y="15" width="4" height="1" fill="#dbdbdb"/>
  <rect x="24" y="15" width="4" height="1" fill="#d9d9d9"/>
  <rect x="28" y="15" width="1" height="1" fill="#dcdcdce7"/>
  <rect x="29" y="15" width="1" height="1" fill="#d6d6d6ab"/>
  <rect x="30" y="15" width="1" height="1" fill="#d7d7d71b"/>
  <rect x="33" y="15" width="1" height="1" fill="#d9d9d91b"/>
  <rect x="34" y="15" width="1" height="1" fill="#ddddddab"/>
  <rect x="35" y="15" width="1" height="1" fill="#d7d7d7e7"/>
  <rect x="36" y="15" width="8" height="1" fill="#d7d7d7"/>
  <rect x="44" y="15" width="1" height="1" fill="#dbdbdbe7"/>
  <rect x="45" y="15" width="1" height="1" fill="#dadadaab"/>
  <rect x="46" y="15" width="1" height="1" fill="#dcdcdc1b"/>
  <rect x="49" y="15" width="1" height="1" fill="#d2d2d21b"/>
  <rect x="50" y="15" width="1" height="1" fill="#dadadaab"/>
  <rect x="51" y="15" width="1" height="1" fill="#dbdbdbe7"/>
  <rect x="52" y="15" width="8" height="1" fill="#dbdbdb"/>
  <rect x="60" y="15" width="1" height="1" fill="#d9d9d9e7"/>
  <rect x="61" y="15" width="1" height="1" fill="#dededeab"/>
  <rect x="62" y="15" width="1" height="1" fill="#d9d9d91b"/>
</svg>