<svg xmlns="http://www.w3.org/2000/svg" width="392" height="26" viewBox="0 0 392 26" shape-rendering="crispEdges">
  <rect x="0" y="0" width="4" height="3" fill="#bedce6"/>
  <rect x="4" y="0" width="4" height="3" fill="#bedbe8"/>
  <rect x="8" y="0" width="6" height="4" fill="#bedbea"/>
  <rect x="14" y="0" width="2" height="4" fill="#bcdae9"/>
  <rect x="16" y="0" width="2" height="2" fill="#bcdae7"/>
  <rect x="18" y="0" width="6" height="2" fill="#bbd9e6"/>
  <rect x="24" y="0" width="4" height="2" fill="#bcdae7"/>
  <rect x="28" y="0" width="4" height="2" fill="#bcdae9"/>
  <rect x="32" y="0" width="16" height="4" fill="#bcdae7"/>
  <rect x="48" y="0" width="20" height="2" fill="#bedbe8"/>
  <rect x="68" y="0" width="8" height="2" fill="#bfdbe8"/>
  <rect x="76" y="0" width="4" height="2" fill="#c1dae8"/>
  <rect x="80" y="0" width="22" height="2" fill="#c0dce9"/>
  <rect x="102" y="0" width="2" height="2" fill="#c0dce7"/>
  <rect x="104" y="0" width="2" height="2" fill="#c1dde8"/>
  <rect x="106" y="0" width="6" height="2" fill="#c1dee6"/>
  <rect x="112" y="0" width="16" height="4" fill="#c1dde8"/>
  <rect x="128" y="0" width="12" height="2" fill="#c3deea"/>
  <rect x="140" y="0" width="4" height="2" fill="#c4deea"/>
  <rect x="144" y="0" width="4" height="2" fill="#c5dfeb"/>
  <rect x="148" y="0" width="2" height="2" fill="#c7deeb"/>
  <rect x="150" y="0" width="4" height="2" fill="#c5dfeb"/>
  <rect x="154" y="0" width="10" height="2" fill="#c4e0eb"/>
  <rect x="164" y="0" width="8" height="2" fill="#c5dfeb"/>
  <rect x="172" y="0" width="4" height="2" fill="#c7deeb"/>
  <rect x="176" y="0" width="16" height="2" fill="#c7e0ec"/>
  <rect x="192" y="0" width="16" height="2" fill="#c8e1ed"/>
  <rect x="208" y="0" width="16" height="2" fill="#c9e2ee"/>
  <rect x="224" y="0" width="4" height="1" fill="#cce3ef"/>
  <rect x="228" y="0" width="2" height="1" fill="#c7deeb"/>
  <rect x="230" y="0" width="4" height="1" fill="#c7dee9"/>
  <rect x="234" y="0" width="2" height="1" fill="#c7dfe7"/>
  <rect x="236" y="0" width="4" height="1" fill="#cce3eb"/>
  <rect x="240" y="0" width="16" height="4" fill="#cce3ed"/>
  <rect x="256" y="0" width="24" height="2" fill="#cde4ef"/>
  <rect x="280" y="0" width="8" height="2" fill="#cee5f0"/>
  <rect x="288" y="0" width="40" height="2" fill="#d1e6f1"/>
  <rect x="328" y="0" width="8" height="2" fill="#d2e7f2"/>
  <rect x="336" y="0" width="12" height="2" fill="#d2e7f0"/>
  <rect x="348" y="0" width="8" height="2" fill="#d4e6f0"/>
  <rect x="356" y="0" width="2" height="2" fill="#d5e6f0"/>
  <rect x="358" y="0" width="4" height="2" fill="#d4e6f0"/>
  <rect x="362" y="0" width="6" height="2" fill="#d2e7f0"/>
  <rect x="368" y="0" width="14" height="2" fill="#d5e8f1"/>
  <rect x="382" y="0" width="4" height="2" fill="#d6e9f2"/>
  <rect x="386" y="0" width="6" height="2" fill="#d7eaf3"/>
  <rect x="224" y="1" width="3" height="1" fill="#cce3ef"/>
  <rect x="227" y="1" width="2" height="1" fill="#cbe1ee"/>
  <rect x="229" y="1" width="1" height="1" fill="#c9e0ed"/>
  <rect x="230" y="1" width="4" height="1" fill="#c9e1eb"/>
  <rect x="234" y="1" width="4" height="1" fill="#cbe2ea"/>
  <rect x="238" y="1" width="2" height="1" fill="#cce3eb"/>
  <rect x="16" y="2" width="8" height="2" fill="#bcdae7"/>
  <rect x="24" y="2" width="4" height="4" fill="#bedbe8"/>
  <rect x="28" y="2" width="4" height="4" fill="#bedbea"/>
  <rect x="48" y="2" width="20" height="2" fill="#bfdde9"/>
  <rect x="68" y="2" width="8" height="4" fill="#c0dce9"/>
  <rect x="76" y="2" width="4" height="2" fill="#c2dbe9"/>
  <rect x="80" y="2" width="2" height="2" fill="#c0dce9"/>
  <rect x="82" y="2" width="20" height="2" fill="#c1ddea"/>
  <rect x="102" y="2" width="2" height="4" fill="#c1dde8"/>
  <rect x="104" y="2" width="2" height="4" fill="#c3deea"/>
  <rect x="106" y="2" width="6" height="2" fill="#c3dfe8"/>
  <rect x="128" y="2" width="12" height="2" fill="#c4e0eb"/>
  <rect x="140" y="2" width="6" height="2" fill="#c5dfeb"/>
  <rect x="146" y="2" width="2" height="2" fill="#c7e0ec"/>
  <rect x="148" y="2" width="2" height="4" fill="#c8dfec"/>
  <rect x="150" y="2" width="4" height="4" fill="#c7e0ec"/>
  <rect x="154" y="2" width="10" height="4" fill="#c5e1ec"/>
  <rect x="164" y="2" width="8" height="4" fill="#c7e0ec"/>
  <rect x="172" y="2" width="4" height="2" fill="#c8dfec"/>
  <rect x="176" y="2" width="2" height="2" fill="#c7e0ec"/>
  <rect x="178" y="2" width="16" height="2" fill="#c8e1ed"/>
  <rect x="194" y="2" width="16" height="2" fill="#c9e2ee"/>
  <rect x="210" y="2" width="14" height="2" fill="#cae3ef"/>
  <rect x="224" y="2" width="2" height="2" fill="#cce3ef"/>
  <rect x="226" y="2" width="4" height="1" fill="#cde4f1"/>
  <rect x="230" y="2" width="4" height="1" fill="#cde4ef"/>
  <rect x="234" y="2" width="6" height="1" fill="#cde5ed"/>
  <rect x="256" y="2" width="24" height="2" fill="#cee5f0"/>
  <rect x="280" y="2" width="8" height="2" fill="#cfe7f1"/>
  <rect x="288" y="2" width="2" height="2" fill="#d1e6f1"/>
  <rect x="290" y="2" width="14" height="2" fill="#d2e7f2"/>
  <rect x="304" y="2" width="16" height="2" fill="#d1e6f1"/>
  <rect x="320" y="2" width="8" height="4" fill="#d2e7f2"/>
  <rect x="328" y="2" width="8" height="4" fill="#d3e8f3"/>
  <rect x="336" y="2" width="12" height="2" fill="#d3e8f1"/>
  <rect x="348" y="2" width="8" height="4" fill="#d5e8f1"/>
  <rect x="356" y="2" width="2" height="4" fill="#d6e7f1"/>
  <rect x="358" y="2" width="4" height="4" fill="#d5e8f1"/>
  <rect x="362" y="2" width="6" height="2" fill="#d3e8f1"/>
  <rect x="368" y="2" width="2" height="2" fill="#d5e8f1"/>
  <rect x="370" y="2" width="14" height="2" fill="#d6e9f2"/>
  <rect x="384" y="2" width="8" height="4" fill="#d7eaf3"/>
  <rect x="0" y="3" width="3" height="1" fill="#bedce6"/>
  <rect x="3" y="3" width="5" height="1" fill="#bedbe8"/>
  <rect x="226" y="3" width="2" height="1" fill="#cde4f1"/>
  <rect x="228" y="3" width="2" height="1" fill="#d0e7f4"/>
  <rect x="230" y="3" width="4" height="1" fill="#d0e8f2"/>
  <rect x="234" y="3" width="2" height="1" fill="#d0e8f0"/>
  <rect x="236" y="3" width="4" height="1" fill="#cde5ed"/>
  <rect x="0" y="4" width="4" height="4" fill="#bedbe8"/>
  <rect x="4" y="4" width="2" height="4" fill="#bedbea"/>
  <rect x="6" y="4" width="2" height="4" fill="#bedbe8"/>
  <rect x="8" y="4" width="8" height="2" fill="#bedbea"/>
  <rect x="16" y="4" width="2" height="2" fill="#bedbe8"/>
  <rect x="18" y="4" width="6" height="2" fill="#bcdae7"/>
  <rect x="32" y="4" width="36" height="2" fill="#bfdde9"/>
  <rect x="76" y="4" width="2" height="2" fill="#c2dbe9"/>
  <rect x="78" y="4" width="2" height="2" fill="#c3dcea"/>
  <rect x="80" y="4" width="22" height="2" fill="#c1ddea"/>
  <rect x="106" y="4" width="2" height="2" fill="#c3dfe8"/>
  <rect x="108" y="4" width="4" height="2" fill="#c3deea"/>
  <rect x="112" y="4" width="28" height="2" fill="#c4e0eb"/>
  <rect x="140" y="4" width="2" height="2" fill="#c5dfeb"/>
  <rect x="142" y="4" width="6" height="2" fill="#c7e0ec"/>
  <rect x="172" y="4" width="2" height="2" fill="#c8dfec"/>
  <rect x="174" y="4" width="2" height="2" fill="#c9e0ed"/>
  <rect x="176" y="4" width="14" height="2" fill="#c8e1ed"/>
  <rect x="190" y="4" width="16" height="2" fill="#c9e2ee"/>
  <rect x="206" y="4" width="14" height="2" fill="#cae3ef"/>
  <rect x="220" y="4" width="2" height="2" fill="#cce3ef"/>
  <rect x="222" y="4" width="6" height="2" fill="#cde4f1"/>
  <rect x="228" y="4" width="2" height="2" fill="#cee5f2"/>
  <rect x="230" y="4" width="6" height="2" fill="#cee5f0"/>
  <rect x="236" y="4" width="4" height="2" fill="#cde4ef"/>
  <rect x="240" y="4" width="40" height="2" fill="#cee5f0"/>
  <rect x="280" y="4" width="4" height="2" fill="#cfe7f1"/>
  <rect x="284" y="4" width="2" height="2" fill="#d1e6f1"/>
  <rect x="286" y="4" width="18" height="2" fill="#d2e7f2"/>
  <rect x="304" y="4" width="16" height="2" fill="#d3e8f3"/>
  <rect x="336" y="4" width="4" height="2" fill="#d3e8f1"/>
  <rect x="340" y="4" width="2" height="2" fill="#d5e8f1"/>
  <rect x="342" y="4" width="6" height="2" fill="#d3e8f1"/>
  <rect x="362" y="4" width="2" height="2" fill="#d3e8f1"/>
  <rect x="364" y="4" width="2" height="2" fill="#d5e8f1"/>
  <rect x="366" y="4" width="18" height="2" fill="#d6e9f2"/>
  <rect x="8" y="6" width="2" height="2" fill="#bedbea"/>
  <rect x="10" y="6" width="14" height="2" fill="#bedbe8"/>
  <rect x="24" y="6" width="24" height="2" fill="#bfdde9"/>
  <rect x="48" y="6" width="20" height="1" fill="#c0deea"/>
  <rect x="68" y="6" width="12" height="1" fill="#c1ddea"/>
  <rect x="80" y="6" width="22" height="2" fill="#c3deec"/>
  <rect x="102" y="6" width="2" height="2" fill="#c3deea"/>
  <rect x="104" y="6" width="2" height="2" fill="#c4e0eb"/>
  <rect x="106" y="6" width="2" height="2" fill="#c4e0e9"/>
  <rect x="108" y="6" width="20" height="2" fill="#c4e0eb"/>
  <rect x="128" y="6" width="12" height="2" fill="#c5e1ec"/>
  <rect x="140" y="6" width="4" height="2" fill="#c7e0ec"/>
  <rect x="144" y="6" width="10" height="2" fill="#c8e1ed"/>
  <rect x="154" y="6" width="10" height="1" fill="#c6e2ed"/>
  <rect x="164" y="6" width="12" height="1" fill="#c8e1ed"/>
  <rect x="176" y="6" width="16" height="20" fill="#c9e2ee"/>
  <rect x="192" y="6" width="16" height="20" fill="#cae3ef"/>
  <rect x="208" y="6" width="12" height="2" fill="#cbe5f1"/>
  <rect x="220" y="6" width="4" height="2" fill="#cde4f1"/>
  <rect x="224" y="6" width="6" height="2" fill="#cee5f2"/>
  <rect x="230" y="6" width="26" height="2" fill="#cee5f0"/>
  <rect x="256" y="6" width="24" height="2" fill="#cfe7f1"/>
  <rect x="280" y="6" width="4" height="2" fill="#d0e8f2"/>
  <rect x="284" y="6" width="4" height="2" fill="#d2e7f2"/>
  <rect x="288" y="6" width="40" height="2" fill="#d3e8f3"/>
  <rect x="328" y="6" width="2" height="2" fill="#d4e9f4"/>
  <rect x="330" y="6" width="10" height="2" fill="#d4eaf2"/>
  <rect x="340" y="6" width="2" height="2" fill="#d6e9f2"/>
  <rect x="342" y="6" width="6" height="2" fill="#d4eaf2"/>
  <rect x="348" y="6" width="8" height="2" fill="#d6e9f2"/>
  <rect x="356" y="6" width="2" height="2" fill="#d7e8f2"/>
  <rect x="358" y="6" width="4" height="2" fill="#d6e9f2"/>
  <rect x="362" y="6" width="2" height="2" fill="#d4eaf2"/>
  <rect x="364" y="6" width="4" height="2" fill="#d6e9f2"/>
  <rect x="368" y="6" width="24" height="16" fill="#d7eaf3"/>
  <rect x="48" y="7" width="19" height="1" fill="#c0deea"/>
  <rect x="67" y="7" width="13" height="1" fill="#c1ddea"/>
  <rect x="154" y="7" width="9" height="1" fill="#c6e2ed"/>
  <rect x="163" y="7" width="13" height="1" fill="#c8e1ed"/>
  <rect x="0" y="8" width="8" height="8" fill="#bedbea"/>
  <rect x="8" y="8" width="8" height="2" fill="#bedbe8"/>
  <rect x="16" y="8" width="6" height="2" fill="#bedbea"/>
  <rect x="22" y="8" width="2" height="8" fill="#bedbe8"/>
  <rect x="24" y="8" width="2" height="8" fill="#bfdde9"/>
  <rect x="26" y="8" width="2" height="2" fill="#bfdde7"/>
  <rect x="28" y="8" width="20" height="2" fill="#bfdde9"/>
  <rect x="48" y="8" width="12" height="8" fill="#c0deea"/>
  <rect x="60" y="8" width="8" height="8" fill="#c1ddea"/>
  <rect x="68" y="8" width="2" height="8" fill="#c3dcea"/>
  <rect x="70" y="8" width="4" height="8" fill="#c1ddea"/>
  <rect x="74" y="8" width="2" height="2" fill="#c0deea"/>
  <rect x="76" y="8" width="4" height="2" fill="#c1ddea"/>
  <rect x="80" y="8" width="12" height="18" fill="#c3deec"/>
  <rect x="92" y="8" width="12" height="8" fill="#c3deea"/>
  <rect x="104" y="8" width="24" height="4" fill="#c4e0eb"/>
  <rect x="128" y="8" width="16" height="8" fill="#c5e1ec"/>
  <rect x="144" y="8" width="4" height="2" fill="#c6e2ed"/>
  <rect x="148" y="8" width="2" height="2" fill="#c8e1ed"/>
  <rect x="150" y="8" width="6" height="2" fill="#c6e2ed"/>
  <rect x="156" y="8" width="8" height="8" fill="#c8e1ed"/>
  <rect x="164" y="8" width="2" height="8" fill="#c9e0ed"/>
  <rect x="166" y="8" width="4" height="8" fill="#c8e1ed"/>
  <rect x="170" y="8" width="2" height="2" fill="#c6e2ed"/>
  <rect x="172" y="8" width="4" height="2" fill="#c8e1ed"/>
  <rect x="208" y="8" width="4" height="8" fill="#cbe5f1"/>
  <rect x="212" y="8" width="12" height="4" fill="#cde4f1"/>
  <rect x="224" y="8" width="10" height="8" fill="#cee5f2"/>
  <rect x="234" y="8" width="22" height="8" fill="#cee5f0"/>
  <rect x="256" y="8" width="20" height="8" fill="#cfe7f1"/>
  <rect x="276" y="8" width="4" height="8" fill="#d1e6f1"/>
  <rect x="280" y="8" width="8" height="4" fill="#d2e7f2"/>
  <rect x="288" y="8" width="38" height="8" fill="#d3e8f3"/>
  <rect x="326" y="8" width="2" height="8" fill="#d3e8f1"/>
  <rect x="328" y="8" width="4" height="2" fill="#d4eaf2"/>
  <rect x="332" y="8" width="14" height="2" fill="#d6e9f2"/>
  <rect x="346" y="8" width="9" height="1" fill="#d4eaf2"/>
  <rect x="355" y="8" width="13" height="1" fill="#d6e9f2"/>
  <rect x="346" y="9" width="10" height="7" fill="#d4eaf2"/>
  <rect x="356" y="9" width="12" height="3" fill="#d6e9f2"/>
  <rect x="8" y="10" width="2" height="6" fill="#bedbe8"/>
  <rect x="10" y="10" width="2" height="5" fill="#bedce6"/>
  <rect x="12" y="10" width="8" height="5" fill="#bedbe8"/>
  <rect x="20" y="10" width="2" height="6" fill="#bedbea"/>
  <rect x="26" y="10" width="6" height="6" fill="#bfdde7"/>
  <rect x="32" y="10" width="16" height="6" fill="#bfdde9"/>
  <rect x="74" y="10" width="6" height="6" fill="#c0deea"/>
  <rect x="144" y="10" width="12" height="2" fill="#c6e2ed"/>
  <rect x="170" y="10" width="6" height="6" fill="#c6e2ed"/>
  <rect x="328" y="10" width="2" height="6" fill="#d4eaf2"/>
  <rect x="330" y="10" width="2" height="6" fill="#d4eaf0"/>
  <rect x="332" y="10" width="4" height="6" fill="#d6e9f0"/>
  <rect x="336" y="10" width="10" height="2" fill="#d6e9f2"/>
  <rect x="104" y="12" width="4" height="4" fill="#c4e0eb"/>
  <rect x="108" y="12" width="4" height="4" fill="#c4dfed"/>
  <rect x="112" y="12" width="16" height="14" fill="#c4e0eb"/>
  <rect x="144" y="12" width="4" height="4" fill="#c6e2ed"/>
  <rect x="148" y="12" width="2" height="4" fill="#c8e1ed"/>
  <rect x="150" y="12" width="6" height="4" fill="#c6e2ed"/>
  <rect x="212" y="12" width="8" height="4" fill="#cde4f1"/>
  <rect x="220" y="12" width="4" height="4" fill="#cee3f1"/>
  <rect x="280" y="12" width="4" height="4" fill="#d2e7f2"/>
  <rect x="284" y="12" width="4" height="4" fill="#d4e6f2"/>
  <rect x="336" y="12" width="4" height="4" fill="#d6e9f2"/>
  <rect x="340" y="12" width="2" height="4" fill="#d7e8f2"/>
  <rect x="342" y="12" width="4" height="4" fill="#d6e9f2"/>
  <rect x="356" y="12" width="8" height="4" fill="#d6e9f2"/>
  <rect x="364" y="12" width="4" height="4" fill="#d7e8f2"/>
  <rect x="10" y="15" width="1" height="1" fill="#bedce6"/>
  <rect x="11" y="15" width="9" height="1" fill="#bedbe8"/>
  <rect x="0" y="16" width="4" height="4" fill="#bedbe8"/>
  <rect x="4" y="16" width="2" height="4" fill="#bedbea"/>
  <rect x="6" y="16" width="6" height="4" fill="#bedbe8"/>
  <rect x="12" y="16" width="4" height="6" fill="#bedbea"/>
  <rect x="16" y="16" width="8" height="6" fill="#bedbe8"/>
  <rect x="24" y="16" width="24" height="10" fill="#bfdde9"/>
  <rect x="48" y="16" width="16" height="10" fill="#c0deea"/>
  <rect x="64" y="16" width="16" height="10" fill="#c1ddea"/>
  <rect x="92" y="16" width="8" height="10" fill="#c3deea"/>
  <rect x="100" y="16" width="3" height="10" fill="#c3dfe8"/>
  <rect x="103" y="16" width="1" height="10" fill="#c3deea"/>
  <rect x="104" y="16" width="1" height="1" fill="#c4e0eb"/>
  <rect x="105" y="16" width="7" height="1" fill="#c4dfed"/>
  <rect x="128" y="16" width="12" height="8" fill="#c5e1ec"/>
  <rect x="140" y="16" width="4" height="8" fill="#c7e0ec"/>
  <rect x="144" y="16" width="10" height="4" fill="#c8e1ed"/>
  <rect x="154" y="16" width="6" height="8" fill="#c6e2ed"/>
  <rect x="160" y="16" width="16" height="10" fill="#c8e1ed"/>
  <rect x="208" y="16" width="16" height="10" fill="#cde4f1"/>
  <rect x="224" y="16" width="1" height="1" fill="#cee5f2"/>
  <rect x="225" y="16" width="5" height="1" fill="#cce6f2"/>
  <rect x="230" y="16" width="10" height="4" fill="#cce6f0"/>
  <rect x="240" y="16" width="16" height="10" fill="#cee5f0"/>
  <rect x="256" y="16" width="16" height="10" fill="#cfe7f1"/>
  <rect x="272" y="16" width="8" height="10" fill="#d1e6f1"/>
  <rect x="280" y="16" width="20" height="8" fill="#d2e7f2"/>
  <rect x="300" y="16" width="4" height="8" fill="#d2e7f0"/>
  <rect x="304" y="16" width="12" height="8" fill="#d3e8f1"/>
  <rect x="316" y="16" width="11" height="1" fill="#d3e8f3"/>
  <rect x="327" y="16" width="1" height="1" fill="#d3e8f1"/>
  <rect x="328" y="16" width="1" height="10" fill="#d4eaf2"/>
  <rect x="329" y="16" width="7" height="10" fill="#d4eaf0"/>
  <rect x="336" y="16" width="32" height="4" fill="#d6e9f2"/>
  <rect x="104" y="17" width="8" height="9" fill="#c4dfed"/>
  <rect x="224" y="17" width="6" height="9" fill="#cce6f2"/>
  <rect x="316" y="17" width="12" height="7" fill="#d3e8f3"/>
  <rect x="0" y="20" width="12" height="2" fill="#bedbe8"/>
  <rect x="144" y="20" width="4" height="2" fill="#c8e1ed"/>
  <rect x="148" y="20" width="2" height="2" fill="#c9e0ed"/>
  <rect x="150" y="20" width="4" height="2" fill="#c8e1ed"/>
  <rect x="230" y="20" width="4" height="6" fill="#cce6f0"/>
  <rect x="234" y="20" width="6" height="6" fill="#cce7ee"/>
  <rect x="336" y="20" width="28" height="4" fill="#d6e9f2"/>
  <rect x="364" y="20" width="4" height="4" fill="#d6e8f4"/>
  <rect x="0" y="22" width="24" height="2" fill="#bedbe8"/>
  <rect x="144" y="22" width="10" height="2" fill="#c8e1ed"/>
  <rect x="368" y="22" width="23" height="2" fill="#d7eaf3"/>
  <rect x="391" y="22" width="1" height="1" fill="#d7eaf3f4"/>
  <rect x="391" y="23" width="1" height="1" fill="#d7eaf3b7"/>
  <rect x="0" y="24" width="4" height="2" fill="#bedbe8"/>
  <rect x="4" y="24" width="2" height="2" fill="#bedbea"/>
  <rect x="6" y="24" width="4" height="2" fill="#bedbe8"/>
  <rect x="10" y="24" width="2" height="2" fill="#bedce6"/>
  <rect x="12" y="24" width="12" height="2" fill="#bedbe8"/>
  <rect x="128" y="24" width="16" height="2" fill="#c5e1ec"/>
  <rect x="144" y="24" width="4" height="2" fill="#c6e2ed"/>
  <rect x="148" y="24" width="2" height="2" fill="#c8e1ed"/>
  <rect x="150" y="24" width="10" height="2" fill="#c6e2ed"/>
  <rect x="280" y="24" width="24" height="2" fill="#d2e7f2"/>
  <rect x="304" y="24" width="24" height="2" fill="#d3e8f3"/>
  <rect x="336" y="24" width="20" height="2" fill="#d6e9f2"/>
  <rect x="356" y="24" width="12" height="2" fill="#d6e8f4"/>
  <rect x="368" y="24" width="20" height="2" fill="#d7eaf3"/>
  <rect x="388" y="24" width="2" height="1" fill="#d9e9f3"/>
  <rect x="390" y="24" width="1" height="1" fill="#d9e9f3f1"/>
  <rect x="391" y="24" width="1" height="1" fill="#d9e9f32f"/>
  <rect x="388" y="25" width="1" height="1" fill="#d9e9f3f4"/>
  <rect x="389" y="25" width="1" height="1" fill="#d9e9f3b6"/>
  <rect x="390" y="25" width="1" height="1" fill="#d9e9f32d"/>
</svg>