<svg xmlns="http://www.w3.org/2000/svg" width="136" height="24" viewBox="0 0 136 24" shape-rendering="crispEdges">
  <rect x="3" y="3" width="1" height="1" fill="#4aaedc91"/>
  <rect x="4" y="3" width="1" height="1" fill="#40b2deed"/>
  <rect x="5" y="3" width="1" height="1" fill="#40b2de"/>
  <rect x="6" y="3" width="1" height="1" fill="#4aafe1"/>
  <rect x="7" y="3" width="1" height="1" fill="#4baee1"/>
  <rect x="8" y="3" width="1" height="1" fill="#46b2db"/>
  <rect x="9" y="3" width="3" height="1" fill="#43b4d9"/>
  <rect x="12" y="3" width="4" height="1" fill="#43b3db"/>
  <rect x="16" y="3" width="4" height="1" fill="#43b3dd"/>
  <rect x="20" y="3" width="2" height="1" fill="#43b2df"/>
  <rect x="22" y="3" width="2" height="1" fill="#43b3dd"/>
  <rect x="24" y="3" width="2" height="1" fill="#43b3db"/>
  <rect x="26" y="3" width="10" height="1" fill="#43b4d9"/>
  <rect x="36" y="3" width="4" height="1" fill="#43b3db"/>
  <rect x="40" y="3" width="8" height="1" fill="#43b3dd"/>
  <rect x="48" y="3" width="4" height="1" fill="#43b3db"/>
  <rect x="52" y="3" width="16" height="1" fill="#43b4d9"/>
  <rect x="68" y="3" width="4" height="1" fill="#43b3db"/>
  <rect x="72" y="3" width="8" height="1" fill="#43b3dd"/>
  <rect x="80" y="3" width="4" height="1" fill="#43b3db"/>
  <rect x="84" y="3" width="10" height="1" fill="#43b4d9"/>
  <rect x="94" y="3" width="2" height="1" fill="#44b5da"/>
  <rect x="96" y="3" width="2" height="1" fill="#46b6db"/>
  <rect x="98" y="3" width="1" height="1" fill="#48b8dd"/>
  <rect x="99" y="3" width="1" height="1" fill="#49b9df"/>
  <rect x="100" y="3" width="1" height="1" fill="#4abbe0"/>
  <rect x="101" y="3" width="1" height="1" fill="#4bbce1"/>
  <rect x="102" y="3" width="2" height="1" fill="#4dbde0"/>
  <rect x="104" y="3" width="1" height="1" fill="#4ebfdf"/>
  <rect x="105" y="3" width="3" height="1" fill="#4fc0de"/>
  <rect x="108" y="3" width="1" height="1" fill="#58cae8"/>
  <rect x="109" y="3" width="3" height="1" fill="#58cae6"/>
  <rect x="112" y="3" width="1" height="1" fill="#60d2ee"/>
  <rect x="113" y="3" width="1" height="1" fill="#60d3ec"/>
  <rect x="114" y="3" width="2" height="1" fill="#61d4ed"/>
  <rect x="116" y="3" width="2" height="1" fill="#6bddf6"/>
  <rect x="118" y="3" width="1" height="2" fill="#69def6"/>
  <rect x="119" y="3" width="1" height="1" fill="#69def4"/>
  <rect x="120" y="3" width="1" height="1" fill="#6fe7f5"/>
  <rect x="121" y="3" width="1" height="1" fill="#70e9f2"/>
  <rect x="122" y="3" width="1" height="1" fill="#6febf3"/>
  <rect x="123" y="3" width="1" height="1" fill="#70ecf5"/>
  <rect x="124" y="3" width="1" height="1" fill="#79f5fd"/>
  <rect x="125" y="3" width="1" height="1" fill="#7af6fe"/>
  <rect x="126" y="3" width="1" height="1" fill="#7bf7ff"/>
  <rect x="127" y="3" width="1" height="1" fill="#7ff6ff"/>
  <rect x="128" y="3" width="1" height="1" fill="#87f2ff"/>
  <rect x="129" y="3" width="1" height="1" fill="#8af3ff"/>
  <rect x="130" y="3" width="1" height="1" fill="#85f8fd"/>
  <rect x="131" y="3" width="1" height="1" fill="#88f9fcfb"/>
  <rect x="132" y="3" width="1" height="1" fill="#87e9f3c6"/>
  <rect x="133" y="3" width="1" height="1" fill="#9cdeec0b"/>
  <rect x="2" y="4" width="1" height="1" fill="#54a8c790"/>
  <rect x="3" y="4" width="1" height="1" fill="#3fb1dc"/>
  <rect x="4" y="4" width="1" height="1" fill="#3fb2e0"/>
  <rect x="5" y="4" width="1" height="1" fill="#44b0e2"/>
  <rect x="6" y="4" width="2" height="1" fill="#51ade2"/>
  <rect x="8" y="4" width="1" height="1" fill="#49b1de"/>
  <rect x="9" y="4" width="2" height="1" fill="#44b4dc"/>
  <rect x="11" y="4" width="4" height="1" fill="#44b4de"/>
  <rect x="15" y="4" width="4" height="1" fill="#44b4e0"/>
  <rect x="19" y="4" width="4" height="1" fill="#44b3e2"/>
  <rect x="23" y="4" width="2" height="1" fill="#44b4e0"/>
  <rect x="25" y="4" width="2" height="1" fill="#44b4de"/>
  <rect x="27" y="4" width="8" height="1" fill="#44b4dc"/>
  <rect x="35" y="4" width="4" height="1" fill="#44b4de"/>
  <rect x="39" y="4" width="10" height="1" fill="#44b4e0"/>
  <rect x="49" y="4" width="4" height="1" fill="#44b4de"/>
  <rect x="53" y="4" width="14" height="1" fill="#44b4dc"/>
  <rect x="67" y="4" width="4" height="1" fill="#44b4de"/>
  <rect x="71" y="4" width="10" height="1" fill="#44b4e0"/>
  <rect x="81" y="4" width="4" height="1" fill="#44b4de"/>
  <rect x="85" y="4" width="9" height="1" fill="#44b4dc"/>
  <rect x="94" y="4" width="4" height="1" fill="#46b5dd"/>
  <rect x="98" y="4" width="2" height="1" fill="#48b8df"/>
  <rect x="100" y="4" width="1" height="1" fill="#49b9e1"/>
  <rect x="101" y="4" width="1" height="1" fill="#4abae2"/>
  <rect x="102" y="4" width="1" height="1" fill="#4dbce4"/>
  <rect x="103" y="4" width="2" height="1" fill="#4ebee3"/>
  <rect x="105" y="4" width="1" height="1" fill="#4fc0e2"/>
  <rect x="106" y="4" width="2" height="1" fill="#51c2e3"/>
  <rect x="108" y="4" width="1" height="1" fill="#54c5e5"/>
  <rect x="109" y="4" width="1" height="1" fill="#55c6e4"/>
  <rect x="110" y="4" width="1" height="1" fill="#56c7e5"/>
  <rect x="111" y="4" width="1" height="1" fill="#57c9e7"/>
  <rect x="112" y="4" width="1" height="1" fill="#5accea"/>
  <rect x="113" y="4" width="1" height="1" fill="#5ed0eb"/>
  <rect x="114" y="4" width="1" height="1" fill="#61d3ef"/>
  <rect x="115" y="4" width="1" height="1" fill="#63d5f0"/>
  <rect x="116" y="4" width="1" height="1" fill="#64d6f1"/>
  <rect x="117" y="4" width="1" height="1" fill="#66d8f4"/>
  <rect x="119" y="4" width="1" height="1" fill="#6ce1f7"/>
  <rect x="120" y="4" width="1" height="1" fill="#6be4f2"/>
  <rect x="121" y="4" width="1" height="1" fill="#6fe8f1"/>
  <rect x="122" y="4" width="1" height="1" fill="#70ecf5"/>
  <rect x="123" y="4" width="1" height="1" fill="#72eef6"/>
  <rect x="124" y="4" width="2" height="1" fill="#76f2fa"/>
  <rect x="126" y="4" width="1" height="1" fill="#77f3fc"/>
  <rect x="127" y="4" width="1" height="1" fill="#7bf2fc"/>
  <rect x="128" y="4" width="1" height="1" fill="#81f0ff"/>
  <rect x="129" y="4" width="1" height="1" fill="#7ff1fd"/>
  <rect x="130" y="4" width="1" height="1" fill="#79f5f9"/>
  <rect x="131" y="4" width="1" height="1" fill="#77f5f6"/>
  <rect x="132" y="4" width="1" height="1" fill="#7aeff5"/>
  <rect x="133" y="4" width="1" height="1" fill="#90e6ebbe"/>
  <rect x="2" y="5" width="1" height="1" fill="#4faac6ed"/>
  <rect x="3" y="5" width="1" height="1" fill="#3ab0da"/>
  <rect x="4" y="5" width="1" height="1" fill="#3eafdf"/>
  <rect x="5" y="5" width="1" height="1" fill="#44aedf"/>
  <rect x="6" y="5" width="2" height="1" fill="#4fabdc"/>
  <rect x="8" y="5" width="1" height="1" fill="#45b0dc"/>
  <rect x="9" y="5" width="2" height="1" fill="#40b2dc"/>
  <rect x="11" y="5" width="4" height="1" fill="#40b2de"/>
  <rect x="15" y="5" width="4" height="1" fill="#40b2e0"/>
  <rect x="19" y="5" width="4" height="1" fill="#40b1e2"/>
  <rect x="23" y="5" width="2" height="1" fill="#40b2e0"/>
  <rect x="25" y="5" width="2" height="1" fill="#40b2de"/>
  <rect x="27" y="5" width="8" height="1" fill="#40b2dc"/>
  <rect x="35" y="5" width="4" height="1" fill="#40b2de"/>
  <rect x="39" y="5" width="10" height="1" fill="#40b2e0"/>
  <rect x="49" y="5" width="4" height="1" fill="#40b2de"/>
  <rect x="53" y="5" width="14" height="1" fill="#40b2dc"/>
  <rect x="67" y="5" width="4" height="1" fill="#40b2de"/>
  <rect x="71" y="5" width="10" height="1" fill="#40b2e0"/>
  <rect x="81" y="5" width="4" height="1" fill="#40b2de"/>
  <rect x="85" y="5" width="11" height="1" fill="#40b2dc"/>
  <rect x="96" y="5" width="2" height="1" fill="#42b4dd"/>
  <rect x="98" y="5" width="2" height="1" fill="#43b5de"/>
  <rect x="100" y="5" width="1" height="1" fill="#44b6df"/>
  <rect x="101" y="5" width="1" height="1" fill="#45b7e0"/>
  <rect x="102" y="5" width="1" height="1" fill="#47b9e3"/>
  <rect x="103" y="5" width="1" height="1" fill="#49bbe2"/>
  <rect x="104" y="5" width="1" height="1" fill="#4abce3"/>
  <rect x="105" y="5" width="1" height="1" fill="#4bbee2"/>
  <rect x="106" y="5" width="2" height="1" fill="#4dc0e2"/>
  <rect x="108" y="5" width="1" height="1" fill="#4ec2e4"/>
  <rect x="109" y="5" width="1" height="1" fill="#50c3e3"/>
  <rect x="110" y="5" width="1" height="1" fill="#51c4e4"/>
  <rect x="111" y="5" width="1" height="1" fill="#52c6e3"/>
  <rect x="112" y="5" width="1" height="1" fill="#55cae4"/>
  <rect x="113" y="5" width="1" height="1" fill="#59cde8"/>
  <rect x="114" y="5" width="1" height="1" fill="#5ed2eb"/>
  <rect x="115" y="5" width="2" height="1" fill="#5fd3ec"/>
  <rect x="117" y="5" width="1" height="1" fill="#5fd7ee"/>
  <rect x="118" y="5" width="1" height="1" fill="#64dbf3"/>
  <rect x="119" y="5" width="1" height="1" fill="#65dff1"/>
  <rect x="120" y="5" width="1" height="1" fill="#66e1ee"/>
  <rect x="121" y="5" width="1" height="1" fill="#68e6f0"/>
  <rect x="122" y="5" width="1" height="1" fill="#6deaf4"/>
  <rect x="123" y="5" width="1" height="1" fill="#6fedf7"/>
  <rect x="124" y="5" width="2" height="1" fill="#71eff9"/>
  <rect x="126" y="5" width="1" height="1" fill="#72f0fa"/>
  <rect x="127" y="5" width="1" height="1" fill="#72f0fc"/>
  <rect x="128" y="5" width="2" height="1" fill="#75f0fd"/>
  <rect x="130" y="5" width="1" height="1" fill="#72f4fc"/>
  <rect x="131" y="5" width="1" height="1" fill="#70f3f9"/>
  <rect x="132" y="5" width="1" height="1" fill="#74f2f9"/>
  <rect x="133" y="5" width="1" height="1" fill="#89e8eafb"/>
  <rect x="2" y="6" width="1" height="1" fill="#4da8c7ed"/>
  <rect x="3" y="6" width="1" height="1" fill="#3aaedb"/>
  <rect x="4" y="6" width="1" height="1" fill="#41abdb"/>
  <rect x="5" y="6" width="1" height="1" fill="#44aad7"/>
  <rect x="6" y="6" width="1" height="1" fill="#45aacf"/>
  <rect x="7" y="6" width="1" height="1" fill="#42accf"/>
  <rect x="8" y="6" width="1" height="1" fill="#3aafd5"/>
  <rect x="9" y="6" width="3" height="1" fill="#37b0d9"/>
  <rect x="12" y="6" width="4" height="1" fill="#37afdb"/>
  <rect x="16" y="6" width="4" height="1" fill="#37afdd"/>
  <rect x="20" y="6" width="2" height="1" fill="#37afdf"/>
  <rect x="22" y="6" width="2" height="1" fill="#37afdd"/>
  <rect x="24" y="6" width="2" height="1" fill="#37afdb"/>
  <rect x="26" y="6" width="10" height="1" fill="#37b0d9"/>
  <rect x="36" y="6" width="4" height="1" fill="#37afdb"/>
  <rect x="40" y="6" width="8" height="1" fill="#37afdd"/>
  <rect x="48" y="6" width="4" height="1" fill="#37afdb"/>
  <rect x="52" y="6" width="16" height="1" fill="#37b0d9"/>
  <rect x="68" y="6" width="4" height="1" fill="#37afdb"/>
  <rect x="72" y="6" width="8" height="1" fill="#37afdd"/>
  <rect x="80" y="6" width="4" height="1" fill="#37afdb"/>
  <rect x="84" y="6" width="12" height="1" fill="#37b0d9"/>
  <rect x="96" y="6" width="2" height="1" fill="#38b1da"/>
  <rect x="98" y="6" width="2" height="1" fill="#39b2db"/>
  <rect x="100" y="6" width="1" height="1" fill="#3bb3dc"/>
  <rect x="101" y="6" width="1" height="1" fill="#3cb4de"/>
  <rect x="102" y="6" width="1" height="1" fill="#3eb7de"/>
  <rect x="103" y="6" width="1" height="1" fill="#3fb8df"/>
  <rect x="104" y="6" width="1" height="1" fill="#40bade"/>
  <rect x="105" y="6" width="1" height="1" fill="#41bbdd"/>
  <rect x="106" y="6" width="2" height="1" fill="#44bee0"/>
  <rect x="108" y="6" width="1" height="1" fill="#45bfe1"/>
  <rect x="109" y="6" width="1" height="1" fill="#46c1e0"/>
  <rect x="110" y="6" width="1" height="1" fill="#47c2e1"/>
  <rect x="111" y="6" width="1" height="1" fill="#48c3e0"/>
  <rect x="112" y="6" width="1" height="1" fill="#4cc8de"/>
  <rect x="113" y="6" width="1" height="1" fill="#4fccdf"/>
  <rect x="114" y="6" width="1" height="1" fill="#54d0e4"/>
  <rect x="115" y="6" width="2" height="1" fill="#55d2e5"/>
  <rect x="117" y="6" width="1" height="1" fill="#56d5e7"/>
  <rect x="118" y="6" width="1" height="1" fill="#5bd9ec"/>
  <rect x="119" y="6" width="1" height="1" fill="#5bddec"/>
  <rect x="120" y="6" width="1" height="1" fill="#5ddeee"/>
  <rect x="121" y="6" width="1" height="1" fill="#5ee2f1"/>
  <rect x="122" y="6" width="1" height="1" fill="#63e7f6"/>
  <rect x="123" y="6" width="1" height="1" fill="#65e9f8"/>
  <rect x="124" y="6" width="2" height="1" fill="#68ecfa"/>
  <rect x="126" y="6" width="1" height="1" fill="#69edfc"/>
  <rect x="127" y="6" width="1" height="1" fill="#67eefc"/>
  <rect x="128" y="6" width="2" height="1" fill="#65f0ff"/>
  <rect x="130" y="6" width="1" height="1" fill="#6bf1ff"/>
  <rect x="131" y="6" width="1" height="1" fill="#6ef0ff"/>
  <rect x="132" y="6" width="1" height="1" fill="#70effd"/>
  <rect x="133" y="6" width="1" height="1" fill="#86e7edfb"/>
  <rect x="2" y="7" width="1" height="1" fill="#4fa7c790"/>
  <rect x="3" y="7" width="1" height="1" fill="#3bacda"/>
  <rect x="4" y="7" width="1" height="1" fill="#3ea7dd"/>
  <rect x="5" y="7" width="1" height="1" fill="#3fa7d6"/>
  <rect x="6" y="7" width="1" height="1" fill="#3fa9c9"/>
  <rect x="7" y="7" width="1" height="1" fill="#3cabc7"/>
  <rect x="8" y="7" width="1" height="1" fill="#35adcf"/>
  <rect x="9" y="7" width="7" height="1" fill="#32add6"/>
  <rect x="16" y="7" width="4" height="1" fill="#32add8"/>
  <rect x="20" y="7" width="2" height="1" fill="#32acda"/>
  <rect x="22" y="7" width="2" height="1" fill="#32add8"/>
  <rect x="24" y="7" width="16" height="1" fill="#32add6"/>
  <rect x="40" y="7" width="8" height="1" fill="#32add8"/>
  <rect x="48" y="7" width="24" height="1" fill="#32add6"/>
  <rect x="72" y="7" width="8" height="1" fill="#32add8"/>
  <rect x="80" y="7" width="16" height="1" fill="#32add6"/>
  <rect x="96" y="7" width="2" height="1" fill="#33aed7"/>
  <rect x="98" y="7" width="2" height="1" fill="#34afd8"/>
  <rect x="100" y="7" width="1" height="1" fill="#35b1d9"/>
  <rect x="101" y="7" width="1" height="1" fill="#37b2d8"/>
  <rect x="102" y="7" width="1" height="1" fill="#37b5da"/>
  <rect x="103" y="7" width="1" height="1" fill="#38b6dc"/>
  <rect x="104" y="7" width="1" height="1" fill="#3ab8db"/>
  <rect x="105" y="7" width="1" height="1" fill="#3bb9dc"/>
  <rect x="106" y="7" width="2" height="1" fill="#3dbcdc"/>
  <rect x="108" y="7" width="1" height="1" fill="#3ebddd"/>
  <rect x="109" y="7" width="1" height="1" fill="#3fbedf"/>
  <rect x="110" y="7" width="1" height="1" fill="#41bfe0"/>
  <rect x="111" y="7" width="1" height="1" fill="#40c2df"/>
  <rect x="112" y="7" width="1" height="1" fill="#44c6dc"/>
  <rect x="113" y="7" width="1" height="1" fill="#47cade"/>
  <rect x="114" y="7" width="1" height="1" fill="#4ccfe2"/>
  <rect x="115" y="7" width="2" height="1" fill="#4dd0e4"/>
  <rect x="117" y="7" width="1" height="1" fill="#4fd2e6"/>
  <rect x="118" y="7" width="1" height="1" fill="#52d8eb"/>
  <rect x="119" y="7" width="1" height="1" fill="#55daed"/>
  <rect x="120" y="7" width="1" height="1" fill="#56dcec"/>
  <rect x="121" y="7" width="1" height="1" fill="#58e0f0"/>
  <rect x="122" y="7" width="1" height="1" fill="#5ce5f4"/>
  <rect x="123" y="7" width="1" height="1" fill="#5fe7f7"/>
  <rect x="124" y="7" width="2" height="1" fill="#61e9f9"/>
  <rect x="126" y="7" width="1" height="1" fill="#62ebfa"/>
  <rect x="127" y="7" width="1" height="1" fill="#61ebfc"/>
  <rect x="128" y="7" width="2" height="1" fill="#5deeff"/>
  <rect x="130" y="7" width="1" height="1" fill="#64efff"/>
  <rect x="131" y="7" width="1" height="1" fill="#6aeefd"/>
  <rect x="132" y="7" width="1" height="1" fill="#72edfa"/>
  <rect x="133" y="7" width="1" height="1" fill="#8be5ebbf"/>
  <rect x="3" y="8" width="1" height="1" fill="#3bacd891"/>
  <rect x="4" y="8" width="1" height="1" fill="#35a4dcee"/>
  <rect x="5" y="8" width="1" height="1" fill="#36a4da"/>
  <rect x="6" y="8" width="1" height="1" fill="#38a6cc"/>
  <rect x="7" y="8" width="1" height="1" fill="#38a7c6"/>
  <rect x="8" y="8" width="1" height="1" fill="#32a9cc"/>
  <rect x="9" y="8" width="7" height="1" fill="#30a9d0"/>
  <rect x="16" y="8" width="80" height="1" fill="#31aad1"/>
  <rect x="96" y="8" width="4" height="1" fill="#32acd2"/>
  <rect x="100" y="8" width="1" height="1" fill="#34add3"/>
  <rect x="101" y="8" width="1" height="1" fill="#34add1"/>
  <rect x="102" y="8" width="2" height="1" fill="#33afd3"/>
  <rect x="104" y="8" width="2" height="1" fill="#33b1d4"/>
  <rect x="106" y="8" width="2" height="1" fill="#32b3d5"/>
  <rect x="108" y="8" width="1" height="1" fill="#3fc0e2"/>
  <rect x="109" y="8" width="2" height="1" fill="#40c1e3"/>
  <rect x="111" y="8" width="1" height="1" fill="#40c3e2"/>
  <rect x="112" y="8" width="1" height="1" fill="#41c5e1"/>
  <rect x="113" y="8" width="2" height="1" fill="#42c6e2"/>
  <rect x="115" y="8" width="1" height="1" fill="#43c7e4"/>
  <rect x="116" y="8" width="2" height="1" fill="#4dd4ef"/>
  <rect x="118" y="8" width="1" height="1" fill="#4ed5f0"/>
  <rect x="119" y="8" width="1" height="1" fill="#50d6f0"/>
  <rect x="120" y="8" width="1" height="1" fill="#51d9eb"/>
  <rect x="121" y="8" width="1" height="1" fill="#50dbea"/>
  <rect x="122" y="8" width="2" height="1" fill="#52dceb"/>
  <rect x="124" y="8" width="1" height="1" fill="#5de8f7"/>
  <rect x="125" y="8" width="2" height="1" fill="#5ee9f8"/>
  <rect x="127" y="8" width="1" height="1" fill="#60eafb"/>
  <rect x="128" y="8" width="1" height="1" fill="#5debff"/>
  <rect x="129" y="8" width="1" height="1" fill="#5deeff"/>
  <rect x="130" y="8" width="1" height="1" fill="#5deffb"/>
  <rect x="131" y="8" width="1" height="1" fill="#66eef4fb"/>
  <rect x="132" y="8" width="1" height="1" fill="#70e2e4c5"/>
  <rect x="133" y="8" width="1" height="1" fill="#94e2e30b"/>
  <rect x="2" y="13" width="1" height="1" fill="#d4cbce44"/>
  <rect x="3" y="13" width="1" height="1" fill="#d8d1d1ad"/>
  <rect x="4" y="13" width="1" height="1" fill="#ced4d0f1"/>
  <rect x="5" y="13" width="1" height="1" fill="#cad4ce"/>
  <rect x="6" y="13" width="1" height="1" fill="#cdd4d0"/>
  <rect x="7" y="13" width="1" height="1" fill="#ced4d0"/>
  <rect x="8" y="13" width="1" height="1" fill="#d0d2d2"/>
  <rect x="9" y="13" width="1" height="1" fill="#d2d2d2"/>
  <rect x="10" y="13" width="6" height="1" fill="#d3d3d3"/>
  <rect x="16" y="13" width="1" height="1" fill="#d0d2d2"/>
  <rect x="17" y="13" width="3" height="1" fill="#ced3d2"/>
  <rect x="20" y="13" width="76" height="1" fill="#d0d2d2"/>
  <rect x="96" y="13" width="4" height="1" fill="#d1d4d3"/>
  <rect x="100" y="13" width="2" height="1" fill="#d2d2d2"/>
  <rect x="102" y="13" width="3" height="1" fill="#d3d3d3"/>
  <rect x="105" y="13" width="1" height="1" fill="#d4d2d3"/>
  <rect x="106" y="13" width="2" height="1" fill="#d6d3d4"/>
  <rect x="108" y="13" width="2" height="1" fill="#d4d2d3"/>
  <rect x="110" y="13" width="2" height="1" fill="#d3d1d2"/>
  <rect x="112" y="13" width="2" height="1" fill="#d0d0d0"/>
  <rect x="114" y="13" width="2" height="1" fill="#cfcfcf"/>
  <rect x="116" y="13" width="2" height="1" fill="#cfd1d0"/>
  <rect x="118" y="13" width="2" height="1" fill="#d0d2d2"/>
  <rect x="120" y="13" width="2" height="1" fill="#d0d3d0"/>
  <rect x="122" y="13" width="2" height="1" fill="#d1d4d1"/>
  <rect x="124" y="13" width="1" height="1" fill="#d2d5d2"/>
  <rect x="125" y="13" width="2" height="1" fill="#d1d6d4"/>
  <rect x="127" y="13" width="1" height="1" fill="#cfd7d2"/>
  <rect x="128" y="13" width="1" height="1" fill="#ced6d1"/>
  <rect x="129" y="13" width="2" height="1" fill="#ced5d3"/>
  <rect x="131" y="13" width="1" height="1" fill="#d0d4d5f1"/>
  <rect x="132" y="13" width="1" height="1" fill="#d7d9dbad"/>
  <rect x="133" y="13" width="1" height="1" fill="#d2d4d644"/>
  <rect x="1" y="14" width="1" height="1" fill="#ced4ce86"/>
  <rect x="2" y="14" width="1" height="1" fill="#dddddf"/>
  <rect x="3" y="14" width="1" height="1" fill="#e2e6e9"/>
  <rect x="4" y="14" width="1" height="1" fill="#f1ffff"/>
  <rect x="5" y="14" width="1" height="1" fill="#efffff"/>
  <rect x="6" y="14" width="1" height="1" fill="#f7ffff"/>
  <rect x="7" y="14" width="1" height="1" fill="#fdfcff"/>
  <rect x="8" y="14" width="1" height="1" fill="#fffbfd"/>
  <rect x="9" y="14" width="6" height="1" fill="#fff9f9"/>
  <rect x="15" y="14" width="1" height="1" fill="#fdfbf9"/>
  <rect x="16" y="14" width="1" height="1" fill="#f7fcf8"/>
  <rect x="17" y="14" width="79" height="1" fill="#f6fdf8"/>
  <rect x="96" y="14" width="4" height="1" fill="#f7fef9"/>
  <rect x="100" y="14" width="2" height="1" fill="#f7fcf8"/>
  <rect x="102" y="14" width="3" height="1" fill="#fafdf9"/>
  <rect x="105" y="14" width="1" height="1" fill="#fcfcf9"/>
  <rect x="106" y="14" width="2" height="1" fill="#fdfdfb"/>
  <rect x="108" y="14" width="2" height="1" fill="#fcfcf9"/>
  <rect x="110" y="14" width="2" height="1" fill="#fafbf8"/>
  <rect x="112" y="14" width="1" height="1" fill="#f9faf7"/>
  <rect x="113" y="14" width="1" height="1" fill="#f8faf7"/>
  <rect x="114" y="14" width="2" height="1" fill="#f6f9f6"/>
  <rect x="116" y="14" width="1" height="1" fill="#f8faf9"/>
  <rect x="117" y="14" width="3" height="1" fill="#f6fbf9"/>
  <rect x="120" y="14" width="4" height="1" fill="#f5faf8"/>
  <rect x="124" y="14" width="1" height="1" fill="#f6fbf9"/>
  <rect x="125" y="14" width="2" height="1" fill="#f6fafb"/>
  <rect x="127" y="14" width="1" height="1" fill="#f6fbf9"/>
  <rect x="128" y="14" width="2" height="1" fill="#f5faf8"/>
  <rect x="130" y="14" width="2" height="1" fill="#f3fbf6"/>
  <rect x="132" y="14" width="1" height="1" fill="#e6ebe5"/>
  <rect x="133" y="14" width="1" height="1" fill="#dadbd4"/>
  <rect x="134" y="14" width="1" height="1" fill="#d6d2cd86"/>
  <rect x="0" y="15" width="1" height="1" fill="#d5ded244"/>
  <rect x="1" y="15" width="1" height="1" fill="#dde5de"/>
  <rect x="2" y="15" width="1" height="1" fill="#eef0f2"/>
  <rect x="3" y="15" width="1" height="1" fill="#f4faff"/>
  <rect x="4" y="15" width="2" height="1" fill="#efffff"/>
  <rect x="6" y="15" width="1" height="1" fill="#f6fcfe"/>
  <rect x="7" y="15" width="1" height="1" fill="#f9f9fb"/>
  <rect x="8" y="15" width="1" height="1" fill="#fbf6f8"/>
  <rect x="9" y="15" width="1" height="1" fill="#fcf5f5"/>
  <rect x="10" y="15" width="5" height="1" fill="#faf4f4"/>
  <rect x="15" y="15" width="1" height="1" fill="#f7f5f4"/>
  <rect x="16" y="15" width="1" height="1" fill="#f1f7f2"/>
  <rect x="17" y="15" width="79" height="1" fill="#f0f7f2"/>
  <rect x="96" y="15" width="4" height="1" fill="#f1f9f4"/>
  <rect x="100" y="15" width="2" height="1" fill="#f1f7f2"/>
  <rect x="102" y="15" width="1" height="1" fill="#f2f8f4"/>
  <rect x="103" y="15" width="3" height="1" fill="#f4f7f4"/>
  <rect x="106" y="15" width="2" height="1" fill="#f7f7f5"/>
  <rect x="108" y="15" width="1" height="1" fill="#f6f6f4"/>
  <rect x="109" y="15" width="2" height="1" fill="#f7f7f5"/>
  <rect x="111" y="15" width="1" height="1" fill="#f8f8f6"/>
  <rect x="112" y="15" width="1" height="1" fill="#f6f9f6"/>
  <rect x="113" y="15" width="2" height="1" fill="#f8faf7"/>
  <rect x="115" y="15" width="1" height="1" fill="#f9fcf8"/>
  <rect x="116" y="15" width="3" height="1" fill="#fafcfc"/>
  <rect x="119" y="15" width="1" height="1" fill="#f8faf9"/>
  <rect x="120" y="15" width="1" height="1" fill="#f6f9f8"/>
  <rect x="121" y="15" width="3" height="1" fill="#f5f8f7"/>
  <rect x="124" y="15" width="4" height="1" fill="#f6f8fa"/>
  <rect x="128" y="15" width="2" height="1" fill="#f5f8f7"/>
  <rect x="130" y="15" width="1" height="1" fill="#f4f9f5"/>
  <rect x="131" y="15" width="1" height="1" fill="#f4f9f3"/>
  <rect x="132" y="15" width="1" height="1" fill="#f6faf2"/>
  <rect x="133" y="15" width="1" height="1" fill="#f4f3ec"/>
  <rect x="134" y="15" width="1" height="1" fill="#e8e2db"/>
  <rect x="135" y="15" width="1" height="1" fill="#dacfca44"/>
  <rect x="0" y="16" width="1" height="1" fill="#d6d7d4ad"/>
  <rect x="1" y="16" width="1" height="1" fill="#eeeeec"/>
  <rect x="2" y="16" width="1" height="1" fill="#f0f0f0"/>
  <rect x="3" y="16" width="1" height="1" fill="#f3f3f5"/>
  <rect x="4" y="16" width="2" height="1" fill="#f0f5f5"/>
  <rect x="6" y="16" width="1" height="1" fill="#f3f5f7"/>
  <rect x="7" y="16" width="1" height="1" fill="#f5f5f5"/>
  <rect x="8" y="16" width="2" height="1" fill="#f6f4f5"/>
  <rect x="10" y="16" width="6" height="1" fill="#f6f6f6"/>
  <rect x="16" y="16" width="87" height="1" fill="#f4f6f6"/>
  <rect x="103" y="16" width="27" height="1" fill="#f6f6f6"/>
  <rect x="130" y="16" width="1" height="1" fill="#f4f6f6"/>
  <rect x="131" y="16" width="1" height="1" fill="#f4f7f4"/>
  <rect x="132" y="16" width="1" height="1" fill="#f7f7f5"/>
  <rect x="133" y="16" width="1" height="1" fill="#f5f5f2"/>
  <rect x="134" y="16" width="1" height="1" fill="#f3f1ef"/>
  <rect x="135" y="16" width="1" height="1" fill="#d9d5d4ad"/>
  <rect x="0" y="17" width="1" height="1" fill="#d6d3d4f1"/>
  <rect x="1" y="17" width="1" height="1" fill="#edeaeb"/>
  <rect x="2" y="17" width="1" height="1" fill="#f0eeef"/>
  <rect x="3" y="17" width="3" height="1" fill="#f4f1f2"/>
  <rect x="6" y="17" width="4" height="1" fill="#f2f2f2"/>
  <rect x="10" y="17" width="6" height="1" fill="#f1f3f2"/>
  <rect x="16" y="17" width="116" height="1" fill="#f2f2f2"/>
  <rect x="132" y="17" width="1" height="1" fill="#f3f3f3"/>
  <rect x="133" y="17" width="1" height="1" fill="#f1f1f1"/>
  <rect x="134" y="17" width="1" height="1" fill="#eeeeee"/>
  <rect x="135" y="17" width="1" height="1" fill="#d3d3d3f3"/>
  <rect x="0" y="18" width="1" height="1" fill="#d3d1d2f1"/>
  <rect x="1" y="18" width="1" height="1" fill="#eae8e9"/>
  <rect x="2" y="18" width="1" height="1" fill="#edeaeb"/>
  <rect x="3" y="18" width="3" height="1" fill="#f0eeef"/>
  <rect x="6" y="18" width="2" height="1" fill="#efefef"/>
  <rect x="8" y="18" width="2" height="1" fill="#f0f0f0"/>
  <rect x="10" y="18" width="6" height="1" fill="#eef1f0"/>
  <rect x="16" y="18" width="116" height="1" fill="#f0f0f0"/>
  <rect x="132" y="18" width="1" height="1" fill="#f1f1f1"/>
  <rect x="133" y="18" width="1" height="1" fill="#efefef"/>
  <rect x="134" y="18" width="1" height="1" fill="#ebebeb"/>
  <rect x="135" y="18" width="1" height="1" fill="#d0d0d0f3"/>
  <rect x="0" y="19" width="1" height="1" fill="#d1cecfad"/>
  <rect x="1" y="19" width="1" height="1" fill="#e8e6e7"/>
  <rect x="2" y="19" width="1" height="1" fill="#ece9ea"/>
  <rect x="3" y="19" width="3" height="1" fill="#efedee"/>
  <rect x="6" y="19" width="4" height="1" fill="#eeeeee"/>
  <rect x="10" y="19" width="6" height="1" fill="#eceeee"/>
  <rect x="16" y="19" width="112" height="1" fill="#eeeeee"/>
  <rect x="128" y="19" width="4" height="1" fill="#efefef"/>
  <rect x="132" y="19" width="1" height="1" fill="#f0f0f0"/>
  <rect x="133" y="19" width="1" height="1" fill="#eeeeee"/>
  <rect x="134" y="19" width="1" height="1" fill="#eaeaea"/>
  <rect x="135" y="19" width="1" height="1" fill="#cfcfcfad"/>
  <rect x="0" y="20" width="1" height="1" fill="#d3d1d244"/>
  <rect x="1" y="20" width="1" height="1" fill="#d8d5d6"/>
  <rect x="2" y="20" width="1" height="1" fill="#eae8e9"/>
  <rect x="3" y="20" width="1" height="1" fill="#efedee"/>
  <rect x="4" y="20" width="2" height="1" fill="#eeecec"/>
  <rect x="6" y="20" width="4" height="1" fill="#ececec"/>
  <rect x="10" y="20" width="2" height="1" fill="#ebedec"/>
  <rect x="12" y="20" width="116" height="1" fill="#ececec"/>
  <rect x="128" y="20" width="4" height="1" fill="#eeeeee"/>
  <rect x="132" y="20" width="1" height="1" fill="#ebebeb"/>
  <rect x="133" y="20" width="1" height="1" fill="#e7e7e7"/>
  <rect x="134" y="20" width="1" height="1" fill="#d7d7d7"/>
  <rect x="135" y="20" width="1" height="1" fill="#c7c7c744"/>
  <rect x="1" y="21" width="1" height="1" fill="#d3d1d286"/>
  <rect x="2" y="21" width="1" height="1" fill="#d8d5d6"/>
  <rect x="3" y="21" width="1" height="1" fill="#e9e7e8"/>
  <rect x="4" y="21" width="2" height="1" fill="#edeaeb"/>
  <rect x="6" y="21" width="4" height="1" fill="#ebebeb"/>
  <rect x="10" y="21" width="2" height="1" fill="#eaeceb"/>
  <rect x="12" y="21" width="116" height="1" fill="#ebebeb"/>
  <rect x="128" y="21" width="4" height="1" fill="#ececec"/>
  <rect x="132" y="21" width="1" height="1" fill="#e3e3e3"/>
  <rect x="133" y="21" width="1" height="1" fill="#d4d4d4"/>
  <rect x="134" y="21" width="1" height="1" fill="#d5d5d586"/>
  <rect x="2" y="22" width="1" height="1" fill="#d7d7d744"/>
  <rect x="3" y="22" width="1" height="1" fill="#d3d3d3ad"/>
  <rect x="4" y="22" width="1" height="1" fill="#d1cecff2"/>
  <rect x="5" y="22" width="1" height="1" fill="#d1cecf"/>
  <rect x="6" y="22" width="4" height="1" fill="#cfcfcf"/>
  <rect x="10" y="22" width="2" height="1" fill="#ced0cf"/>
  <rect x="12" y="22" width="116" height="1" fill="#cfcfcf"/>
  <rect x="128" y="22" width="3" height="1" fill="#d0d0d0"/>
  <rect x="131" y="22" width="1" height="1" fill="#d0d0d0f2"/>
  <rect x="132" y="22" width="1" height="1" fill="#cbcbcbad"/>
  <rect x="133" y="22" width="1" height="1" fill="#d9d9d944"/>
</svg>