<svg xmlns="http://www.w3.org/2000/svg" width="30" height="30" viewBox="0 0 30 30" shape-rendering="crispEdges">
  <rect x="10" y="2" width="1" height="1" fill="#2323231a"/>
  <rect x="11" y="2" width="1" height="1" fill="#2323232a"/>
  <rect x="12" y="2" width="1" height="1" fill="#18181832"/>
  <rect x="13" y="2" width="1" height="1" fill="#1e1e1e32"/>
  <rect x="14" y="2" width="1" height="1" fill="#2124232a"/>
  <rect x="15" y="2" width="1" height="1" fill="#1d23261a"/>
  <rect x="8" y="3" width="1" height="1" fill="#1b1f2418"/>
  <rect x="9" y="3" width="1" height="1" fill="#3d3d3d38"/>
  <rect x="10" y="3" width="1" height="1" fill="#c6c6c67a"/>
  <rect x="11" y="3" width="1" height="1" fill="#f5f5f5b8"/>
  <rect x="12" y="3" width="1" height="1" fill="#fdfdfdd7"/>
  <rect x="13" y="3" width="1" height="1" fill="#ffffffd7"/>
  <rect x="14" y="3" width="1" height="1" fill="#eceeeeb7"/>
  <rect x="15" y="3" width="1" height="1" fill="#caced17a"/>
  <rect x="16" y="3" width="1" height="1" fill="#222a3535"/>
  <rect x="17" y="3" width="1" height="1" fill="#1f2a3b18"/>
  <rect x="7" y="4" width="1" height="1" fill="#26252c1b"/>
  <rect x="8" y="4" width="1" height="1" fill="#71717344"/>
  <rect x="9" y="4" width="1" height="1" fill="#f3f3f3bb"/>
  <rect x="10" y="4" width="1" height="1" fill="#ffffffcd"/>
  <rect x="11" y="4" width="1" height="1" fill="#ffffffc0"/>
  <rect x="12" y="4" width="2" height="1" fill="#ffffffba"/>
  <rect x="14" y="4" width="1" height="1" fill="#fffffdc1"/>
  <rect x="15" y="4" width="1" height="1" fill="#fdffffcd"/>
  <rect x="16" y="4" width="1" height="1" fill="#f0f5f5bb"/>
  <rect x="17" y="4" width="1" height="1" fill="#60696b44"/>
  <rect x="18" y="4" width="1" height="1" fill="#2330341b"/>
  <rect x="6" y="5" width="1" height="1" fill="#272a320b"/>
  <rect x="7" y="5" width="1" height="1" fill="#4944463a"/>
  <rect x="8" y="5" width="1" height="1" fill="#f5f3f3be"/>
  <rect x="9" y="5" width="1" height="1" fill="#ffffffc0"/>
  <rect x="10" y="5" width="4" height="1" fill="#ffffffb9"/>
  <rect x="14" y="5" width="2" height="1" fill="#fffffdb9"/>
  <rect x="16" y="5" width="1" height="1" fill="#ffffffc0"/>
  <rect x="17" y="5" width="1" height="1" fill="#f3f4efbf"/>
  <rect x="18" y="5" width="1" height="1" fill="#3e45423a"/>
  <rect x="19" y="5" width="1" height="1" fill="#1b28280b"/>
  <rect x="6" y="6" width="1" height="1" fill="#20272922"/>
  <rect x="7" y="6" width="1" height="1" fill="#d0d1ce87"/>
  <rect x="8" y="6" width="1" height="1" fill="#ffffffbf"/>
  <rect x="9" y="6" width="1" height="1" fill="#ffffffb9"/>
  <rect x="10" y="6" width="1" height="1" fill="#f8f8f8b9"/>
  <rect x="11" y="6" width="4" height="1" fill="#ffffffb9"/>
  <rect x="15" y="6" width="1" height="2" fill="#fffefbb9"/>
  <rect x="16" y="6" width="1" height="1" fill="#fffef8b9"/>
  <rect x="17" y="6" width="1" height="1" fill="#fffaf5be"/>
  <rect x="18" y="6" width="1" height="1" fill="#d1cdca87"/>
  <rect x="19" y="6" width="1" height="1" fill="#22262922"/>
  <rect x="5" y="7" width="1" height="1" fill="#25333e0a"/>
  <rect x="6" y="7" width="1" height="1" fill="#31383836"/>
  <rect x="7" y="7" width="1" height="1" fill="#f7f7f5c0"/>
  <rect x="8" y="7" width="3" height="1" fill="#ffffffb9"/>
  <rect x="11" y="7" width="1" height="1" fill="#fdfdfdb9"/>
  <rect x="12" y="7" width="3" height="1" fill="#ffffffb9"/>
  <rect x="16" y="7" width="1" height="1" fill="#fff9f3b9"/>
  <rect x="17" y="7" width="1" height="1" fill="#fff4eeb9"/>
  <rect x="18" y="7" width="1" height="1" fill="#fdf4f3c0"/>
  <rect x="19" y="7" width="1" height="1" fill="#34333a36"/>
  <rect x="20" y="7" width="1" height="1" fill="#242d3c0a"/>
  <rect x="5" y="8" width="1" height="1" fill="#222b3a17"/>
  <rect x="6" y="8" width="1" height="1" fill="#96979b56"/>
  <rect x="7" y="8" width="1" height="1" fill="#fefefebb"/>
  <rect x="8" y="8" width="7" height="2" fill="#ffffffb9"/>
  <rect x="15" y="8" width="1" height="4" fill="#fffefdb9"/>
  <rect x="16" y="8" width="1" height="1" fill="#ffffffb9"/>
  <rect x="17" y="8" width="1" height="1" fill="#fffefcb9"/>
  <rect x="18" y="8" width="1" height="1" fill="#fff6f9bb"/>
  <rect x="19" y="8" width="1" height="1" fill="#9997a356"/>
  <rect x="20" y="8" width="1" height="1" fill="#20283c17"/>
  <rect x="5" y="9" width="1" height="1" fill="#22283b1e"/>
  <rect x="6" y="9" width="1" height="1" fill="#b4b5bc69"/>
  <rect x="7" y="9" width="1" height="1" fill="#fefcfdb9"/>
  <rect x="16" y="9" width="1" height="1" fill="#fff9f5b9"/>
  <rect x="17" y="9" width="1" height="1" fill="#fffefdb9"/>
  <rect x="18" y="9" width="1" height="1" fill="#fef6fbb9"/>
  <rect x="19" y="9" width="1" height="1" fill="#b8b8c368"/>
  <rect x="20" y="9" width="1" height="1" fill="#20283c1e"/>
  <rect x="5" y="10" width="1" height="1" fill="#202b3e1e"/>
  <rect x="6" y="10" width="1" height="1" fill="#999ba15b"/>
  <rect x="7" y="10" width="1" height="1" fill="#fffdfcb9"/>
  <rect x="8" y="10" width="6" height="2" fill="#ffffffb9"/>
  <rect x="14" y="10" width="1" height="2" fill="#fffffdb9"/>
  <rect x="16" y="10" width="1" height="1" fill="#fff9f7b9"/>
  <rect x="17" y="10" width="1" height="1" fill="#fffcfcb9"/>
  <rect x="18" y="10" width="1" height="1" fill="#fefbffb9"/>
  <rect x="19" y="10" width="1" height="1" fill="#a5a6af5e"/>
  <rect x="20" y="10" width="1" height="1" fill="#2029381f"/>
  <rect x="5" y="11" width="1" height="1" fill="#242e4217"/>
  <rect x="6" y="11" width="1" height="1" fill="#56575d3e"/>
  <rect x="7" y="11" width="1" height="1" fill="#fffffeb4"/>
  <rect x="16" y="11" width="1" height="1" fill="#ffffffb9"/>
  <rect x="17" y="11" width="1" height="1" fill="#fbf9f7b9"/>
  <rect x="18" y="11" width="1" height="1" fill="#ffffffb8"/>
  <rect x="19" y="11" width="1" height="1" fill="#686c7142"/>
  <rect x="20" y="11" width="1" height="1" fill="#21293218"/>
  <rect x="5" y="12" width="1" height="1" fill="#29314310"/>
  <rect x="6" y="12" width="1" height="1" fill="#27282f31"/>
  <rect x="7" y="12" width="1" height="1" fill="#dcdadb83"/>
  <rect x="8" y="12" width="3" height="1" fill="#ffffffb9"/>
  <rect x="11" y="12" width="1" height="1" fill="#fefefeb9"/>
  <rect x="12" y="12" width="4" height="1" fill="#ffffffb9"/>
  <rect x="16" y="12" width="1" height="1" fill="#fcfcf9b9"/>
  <rect x="17" y="12" width="1" height="1" fill="#fafbf8b9"/>
  <rect x="18" y="12" width="1" height="1" fill="#e3e5e493"/>
  <rect x="19" y="12" width="1" height="1" fill="#272b2c32"/>
  <rect x="20" y="12" width="1" height="1" fill="#2b333711"/>
  <rect x="5" y="13" width="1" height="1" fill="#272c3a0b"/>
  <rect x="6" y="13" width="1" height="1" fill="#25262c26"/>
  <rect x="7" y="13" width="1" height="1" fill="#4b4a4d3c"/>
  <rect x="8" y="13" width="1" height="1" fill="#f2f2f2a9"/>
  <rect x="9" y="13" width="1" height="1" fill="#fafafab9"/>
  <rect x="10" y="13" width="1" height="1" fill="#ffffffb9"/>
  <rect x="11" y="13" width="1" height="1" fill="#f8f8f8b9"/>
  <rect x="12" y="13" width="3" height="1" fill="#ffffffb9"/>
  <rect x="15" y="13" width="1" height="1" fill="#fdffffb9"/>
  <rect x="16" y="13" width="1" height="1" fill="#f8faf7b9"/>
  <rect x="17" y="13" width="1" height="1" fill="#feffffb6"/>
  <rect x="18" y="13" width="1" height="1" fill="#7c817f4c"/>
  <rect x="19" y="13" width="1" height="1" fill="#2328262c"/>
  <rect x="20" y="13" width="1" height="1" fill="#171e1e2b"/>
  <rect x="21" y="13" width="1" height="1" fill="#1f282732"/>
  <rect x="22" y="13" width="1" height="1" fill="#161e2032"/>
  <rect x="23" y="13" width="1" height="1" fill="#0f171d29"/>
  <rect x="24" y="13" width="1" height="1" fill="#242e3815"/>
  <rect x="5" y="14" width="1" height="1" fill="#23212d21"/>
  <rect x="6" y="14" width="1" height="1" fill="#8f909852"/>
  <rect x="7" y="14" width="1" height="1" fill="#c2c4c875"/>
  <rect x="8" y="14" width="1" height="1" fill="#76757847"/>
  <rect x="9" y="14" width="1" height="1" fill="#f7f7f7ab"/>
  <rect x="10" y="14" width="1" height="1" fill="#fdfdfdb9"/>
  <rect x="11" y="14" width="3" height="2" fill="#ffffffb9"/>
  <rect x="14" y="14" width="2" height="1" fill="#fdffffb9"/>
  <rect x="16" y="14" width="1" height="1" fill="#fbfffeb7"/>
  <rect x="17" y="14" width="1" height="1" fill="#b5bab862"/>
  <rect x="18" y="14" width="1" height="1" fill="#242a2639"/>
  <rect x="19" y="14" width="1" height="1" fill="#adb2ae66"/>
  <rect x="20" y="14" width="1" height="1" fill="#e7ece8b1"/>
  <rect x="21" y="14" width="1" height="1" fill="#f0f5f1d4"/>
  <rect x="22" y="14" width="1" height="1" fill="#f8fef9d4"/>
  <rect x="23" y="14" width="1" height="1" fill="#f0f5f5b1"/>
  <rect x="24" y="14" width="1" height="1" fill="#afb5b966"/>
  <rect x="25" y="14" width="1" height="1" fill="#1d242f23"/>
  <rect x="4" y="15" width="1" height="1" fill="#23232c1f"/>
  <rect x="5" y="15" width="1" height="1" fill="#9c99a157"/>
  <rect x="6" y="15" width="1" height="1" fill="#fafbffce"/>
  <rect x="7" y="15" width="1" height="1" fill="#fdffffca"/>
  <rect x="8" y="15" width="1" height="1" fill="#9a9c9e56"/>
  <rect x="9" y="15" width="1" height="1" fill="#63636341"/>
  <rect x="10" y="15" width="1" height="1" fill="#e8e8e896"/>
  <rect x="14" y="15" width="1" height="1" fill="#fdffffb9"/>
  <rect x="15" y="15" width="1" height="1" fill="#fdffffa9"/>
  <rect x="16" y="15" width="1" height="1" fill="#a2a7a557"/>
  <rect x="17" y="15" width="1" height="1" fill="#292e2c3d"/>
  <rect x="18" y="15" width="1" height="1" fill="#d3d8d48b"/>
  <rect x="19" y="15" width="1" height="1" fill="#ffffffd1"/>
  <rect x="20" y="15" width="1" height="1" fill="#ffffffc2"/>
  <rect x="21" y="15" width="1" height="1" fill="#151b1433"/>
  <rect x="22" y="15" width="1" height="1" fill="#26292433"/>
  <rect x="23" y="15" width="1" height="1" fill="#ffffffc2"/>
  <rect x="24" y="15" width="1" height="1" fill="#feffffd2"/>
  <rect x="25" y="15" width="1" height="1" fill="#d0d6dd8b"/>
  <rect x="26" y="15" width="1" height="1" fill="#1d242f24"/>
  <rect x="3" y="16" width="1" height="1" fill="#1d212715"/>
  <rect x="4" y="16" width="1" height="1" fill="#63646a44"/>
  <rect x="5" y="16" width="1" height="1" fill="#ffffffc7"/>
  <rect x="6" y="16" width="1" height="1" fill="#fefbffbb"/>
  <rect x="7" y="16" width="1" height="1" fill="#ffffffba"/>
  <rect x="8" y="16" width="1" height="1" fill="#f9f9f9c7"/>
  <rect x="9" y="16" width="1" height="1" fill="#8e908f54"/>
  <rect x="10" y="16" width="1" height="1" fill="#2426253c"/>
  <rect x="11" y="16" width="1" height="1" fill="#a6a8a85a"/>
  <rect x="12" y="16" width="1" height="1" fill="#dee0e086"/>
  <rect x="13" y="16" width="1" height="1" fill="#e3e5e486"/>
  <rect x="14" y="16" width="1" height="1" fill="#b6b9b866"/>
  <rect x="15" y="16" width="1" height="1" fill="#3c3f3e38"/>
  <rect x="16" y="16" width="1" height="1" fill="#272a2934"/>
  <rect x="17" y="16" width="1" height="1" fill="#aaafad66"/>
  <rect x="18" y="16" width="1" height="1" fill="#f9fefdca"/>
  <rect x="19" y="16" width="1" height="1" fill="#fdffffb9"/>
  <rect x="20" y="16" width="1" height="1" fill="#21242133"/>
  <rect x="21" y="16" width="1" height="1" fill="#fbfefbdc"/>
  <rect x="22" y="16" width="1" height="1" fill="#fdfffddc"/>
  <rect x="23" y="16" width="1" height="1" fill="#21242333"/>
  <rect x="24" y="16" width="1" height="1" fill="#ffffffb9"/>
  <rect x="25" y="16" width="1" height="1" fill="#f7fdffca"/>
  <rect x="26" y="16" width="1" height="1" fill="#afb5b966"/>
  <rect x="27" y="16" width="1" height="1" fill="#1d27331a"/>
  <rect x="3" y="17" width="1" height="1" fill="#1f1f212a"/>
  <rect x="4" y="17" width="1" height="1" fill="#e4e5e9a3"/>
  <rect x="5" y="17" width="1" height="1" fill="#ffffffbc"/>
  <rect x="6" y="17" width="1" height="2" fill="#fffeffb9"/>
  <rect x="7" y="17" width="1" height="2" fill="#fcfaf8b9"/>
  <rect x="8" y="17" width="1" height="1" fill="#ffffffbc"/>
  <rect x="9" y="17" width="1" height="1" fill="#fdffffd0"/>
  <rect x="10" y="17" width="1" height="1" fill="#c6c8c77c"/>
  <rect x="11" y="17" width="1" height="1" fill="#32343335"/>
  <rect x="12" y="17" width="1" height="1" fill="#292c2b3e"/>
  <rect x="13" y="17" width="1" height="1" fill="#272a293f"/>
  <rect x="14" y="17" width="1" height="1" fill="#2d2f2f35"/>
  <rect x="15" y="17" width="1" height="1" fill="#cbcecd80"/>
  <rect x="16" y="17" width="1" height="1" fill="#8e908f53"/>
  <rect x="17" y="17" width="1" height="1" fill="#e7eae9a9"/>
  <rect x="18" y="17" width="1" height="1" fill="#fbfffeb9"/>
  <rect x="19" y="17" width="1" height="1" fill="#ecf0ef9e"/>
  <rect x="20" y="17" width="1" height="1" fill="#21242337"/>
  <rect x="21" y="17" width="1" height="2" fill="#1e201f33"/>
  <rect x="22" y="17" width="1" height="2" fill="#20232233"/>
  <rect x="23" y="17" width="1" height="1" fill="#21242337"/>
  <rect x="24" y="17" width="1" height="1" fill="#f2f7f69e"/>
  <rect x="25" y="17" width="1" height="1" fill="#f8ffffb9"/>
  <rect x="26" y="17" width="1" height="1" fill="#f1f5f9a9"/>
  <rect x="27" y="17" width="1" height="1" fill="#202a322c"/>
  <rect x="2" y="18" width="1" height="1" fill="#20262d13"/>
  <rect x="3" y="18" width="1" height="1" fill="#8e8e9051"/>
  <rect x="4" y="18" width="1" height="1" fill="#fdffffc3"/>
  <rect x="5" y="18" width="1" height="1" fill="#ffffffb9"/>
  <rect x="8" y="18" width="1" height="1" fill="#fdfdfdb9"/>
  <rect x="9" y="18" width="1" height="1" fill="#ffffffba"/>
  <rect x="10" y="18" width="1" height="1" fill="#fcfffecd"/>
  <rect x="11" y="18" width="1" height="1" fill="#f9fbfac7"/>
  <rect x="12" y="18" width="1" height="1" fill="#d9dcdb8f"/>
  <rect x="13" y="18" width="1" height="1" fill="#dfe2e191"/>
  <rect x="14" y="18" width="1" height="1" fill="#f8faf9ca"/>
  <rect x="15" y="18" width="1" height="1" fill="#ffffffcc"/>
  <rect x="16" y="18" width="1" height="1" fill="#373a3937"/>
  <rect x="17" y="18" width="1" height="1" fill="#fbfdfdbb"/>
  <rect x="18" y="18" width="1" height="3" fill="#ffffffb9"/>
  <rect x="19" y="18" width="1" height="1" fill="#1f212133"/>
  <rect x="20" y="18" width="1" height="1" fill="#21242334"/>
  <rect x="23" y="18" width="1" height="1" fill="#21242334"/>
  <rect x="24" y="18" width="1" height="1" fill="#1d222133"/>
  <rect x="25" y="18" width="1" height="2" fill="#fbffffb9"/>
  <rect x="26" y="18" width="1" height="1" fill="#f6fafdbb"/>
  <rect x="27" y="18" width="1" height="1" fill="#19232b32"/>
  <rect x="28" y="18" width="1" height="1" fill="#22354a0a"/>
  <rect x="2" y="19" width="1" height="1" fill="#20262d25"/>
  <rect x="3" y="19" width="1" height="1" fill="#dbdadd8a"/>
  <rect x="4" y="19" width="1" height="1" fill="#fdffffb9"/>
  <rect x="5" y="19" width="1" height="1" fill="#f9f9fbb9"/>
  <rect x="6" y="19" width="1" height="1" fill="#fcfafab9"/>
  <rect x="7" y="19" width="1" height="1" fill="#fffffdb9"/>
  <rect x="8" y="19" width="1" height="4" fill="#ffffffb9"/>
  <rect x="9" y="19" width="1" height="1" fill="#fdffffb9"/>
  <rect x="10" y="19" width="1" height="1" fill="#ffffffb9"/>
  <rect x="11" y="19" width="1" height="1" fill="#ffffffbd"/>
  <rect x="12" y="19" width="1" height="1" fill="#fdffffc9"/>
  <rect x="13" y="19" width="1" height="1" fill="#fcfffec9"/>
  <rect x="14" y="19" width="1" height="1" fill="#f8faf9bd"/>
  <rect x="15" y="19" width="1" height="1" fill="#ffffffb9"/>
  <rect x="16" y="19" width="1" height="1" fill="#34363637"/>
  <rect x="17" y="19" width="1" height="1" fill="#fdffffb4"/>
  <rect x="19" y="19" width="1" height="1" fill="#23252433"/>
  <rect x="20" y="19" width="1" height="1" fill="#21242333"/>
  <rect x="21" y="19" width="1" height="1" fill="#fbfdfddc"/>
  <rect x="22" y="19" width="1" height="1" fill="#fdffffdc"/>
  <rect x="23" y="19" width="1" height="1" fill="#21242333"/>
  <rect x="24" y="19" width="1" height="1" fill="#20252333"/>
  <rect x="26" y="19" width="1" height="1" fill="#f9feffb4"/>
  <rect x="27" y="19" width="1" height="1" fill="#16202833"/>
  <rect x="28" y="19" width="1" height="2" fill="#23374b0d"/>
  <rect x="2" y="20" width="1" height="1" fill="#1f252c2e"/>
  <rect x="3" y="20" width="1" height="1" fill="#fafafca9"/>
  <rect x="4" y="20" width="1" height="3" fill="#fcfeffb9"/>
  <rect x="5" y="20" width="1" height="3" fill="#fefdffb9"/>
  <rect x="6" y="20" width="1" height="3" fill="#fffdfeb9"/>
  <rect x="7" y="20" width="1" height="3" fill="#fffdfcb9"/>
  <rect x="9" y="20" width="7" height="3" fill="#fdffffb9"/>
  <rect x="16" y="20" width="1" height="1" fill="#999c9b58"/>
  <rect x="17" y="20" width="1" height="1" fill="#eaeceb98"/>
  <rect x="19" y="20" width="1" height="1" fill="#1d1f1e33"/>
  <rect x="20" y="20" width="1" height="1" fill="#2426252c"/>
  <rect x="21" y="20" width="2" height="1" fill="#1d1f1e33"/>
  <rect x="23" y="20" width="1" height="1" fill="#2426252c"/>
  <rect x="24" y="20" width="1" height="1" fill="#1d222133"/>
  <rect x="25" y="20" width="1" height="1" fill="#faffffb9"/>
  <rect x="26" y="20" width="1" height="1" fill="#e3e7eb98"/>
  <rect x="27" y="20" width="1" height="1" fill="#19232b30"/>
  <rect x="1" y="21" width="1" height="1" fill="#2034460b"/>
  <rect x="2" y="21" width="1" height="2" fill="#1f252c33"/>
  <rect x="3" y="21" width="1" height="1" fill="#fafafcb6"/>
  <rect x="16" y="21" width="1" height="1" fill="#dfe2e18f"/>
  <rect x="17" y="21" width="1" height="1" fill="#acaead5f"/>
  <rect x="18" y="21" width="1" height="1" fill="#fbfdfdb9"/>
  <rect x="19" y="21" width="1" height="1" fill="#25272633"/>
  <rect x="20" y="21" width="1" height="1" fill="#23252433"/>
  <rect x="21" y="21" width="2" height="1" fill="#20232233"/>
  <rect x="23" y="21" width="1" height="1" fill="#23252433"/>
  <rect x="24" y="21" width="1" height="1" fill="#1c211f33"/>
  <rect x="25" y="21" width="1" height="1" fill="#fdffffb9"/>
  <rect x="26" y="21" width="1" height="1" fill="#a3a7ab5f"/>
  <rect x="27" y="21" width="1" height="1" fill="#222c3428"/>
  <rect x="28" y="21" width="1" height="1" fill="#23374b0a"/>
  <rect x="1" y="22" width="1" height="1" fill="#2034460e"/>
  <rect x="3" y="22" width="1" height="1" fill="#fafafcbb"/>
  <rect x="16" y="22" width="1" height="1" fill="#fdffffc4"/>
  <rect x="17" y="22" width="1" height="1" fill="#8b8e8d51"/>
  <rect x="18" y="22" width="1" height="1" fill="#d1d4d379"/>
  <rect x="19" y="22" width="1" height="1" fill="#fbfdfddc"/>
  <rect x="20" y="22" width="1" height="1" fill="#f9fbfadc"/>
  <rect x="21" y="22" width="2" height="1" fill="#fcfffedc"/>
  <rect x="23" y="22" width="1" height="1" fill="#f9fbfadc"/>
  <rect x="24" y="22" width="1" height="1" fill="#f9fefddc"/>
  <rect x="25" y="22" width="1" height="1" fill="#c8cfcf79"/>
  <rect x="26" y="22" width="1" height="1" fill="#21252831"/>
  <rect x="27" y="22" width="1" height="1" fill="#28323a18"/>
  <rect x="1" y="23" width="1" height="1" fill="#2034440d"/>
  <rect x="2" y="23" width="1" height="1" fill="#1c262e32"/>
  <rect x="3" y="23" width="1" height="1" fill="#f6fcffb0"/>
  <rect x="4" y="23" width="2" height="1" fill="#f9ffffb9"/>
  <rect x="6" y="23" width="1" height="1" fill="#fbffffb9"/>
  <rect x="7" y="23" width="1" height="1" fill="#fcfeffb9"/>
  <rect x="8" y="23" width="8" height="1" fill="#fcffffb9"/>
  <rect x="16" y="23" width="1" height="1" fill="#ffffffba"/>
  <rect x="17" y="23" width="1" height="1" fill="#f5f9fcc4"/>
  <rect x="18" y="23" width="1" height="1" fill="#85898c4f"/>
  <rect x="19" y="23" width="1" height="1" fill="#a4aaad5c"/>
  <rect x="20" y="23" width="1" height="1" fill="#ebf2f497"/>
  <rect x="21" y="23" width="2" height="1" fill="#f3fafcb3"/>
  <rect x="23" y="23" width="1" height="1" fill="#ebf2f497"/>
  <rect x="24" y="23" width="1" height="1" fill="#a2abad5c"/>
  <rect x="25" y="23" width="1" height="1" fill="#2b333732"/>
  <rect x="26" y="23" width="1" height="1" fill="#2830371f"/>
  <rect x="27" y="23" width="1" height="1" fill="#26323e0d"/>
  <rect x="1" y="24" width="1" height="1" fill="#1b303b0a"/>
  <rect x="2" y="24" width="1" height="1" fill="#1b2c3428"/>
  <rect x="3" y="24" width="1" height="1" fill="#18293133"/>
  <rect x="4" y="24" width="1" height="1" fill="#16272f33"/>
  <rect x="5" y="24" width="1" height="1" fill="#16272d33"/>
  <rect x="6" y="24" width="1" height="1" fill="#18272d33"/>
  <rect x="7" y="24" width="1" height="1" fill="#19262b33"/>
  <rect x="8" y="24" width="1" height="1" fill="#1c272c33"/>
  <rect x="9" y="24" width="3" height="1" fill="#1e262c33"/>
  <rect x="12" y="24" width="1" height="1" fill="#1c272c33"/>
  <rect x="13" y="24" width="3" height="1" fill="#1c262e33"/>
  <rect x="16" y="24" width="1" height="1" fill="#1b252d33"/>
  <rect x="17" y="24" width="1" height="1" fill="#1d272f34"/>
  <rect x="18" y="24" width="1" height="1" fill="#212b3334"/>
  <rect x="19" y="24" width="1" height="1" fill="#1e2b3234"/>
  <rect x="20" y="24" width="1" height="1" fill="#18252c36"/>
  <rect x="21" y="24" width="1" height="1" fill="#19262d34"/>
  <rect x="22" y="24" width="1" height="1" fill="#1c282f34"/>
  <rect x="23" y="24" width="1" height="1" fill="#1a293136"/>
  <rect x="24" y="24" width="1" height="1" fill="#202e3730"/>
  <rect x="25" y="24" width="1" height="1" fill="#21313c1d"/>
  <rect x="26" y="24" width="1" height="1" fill="#2333420e"/>
  <rect x="2" y="25" width="1" height="1" fill="#2135450f"/>
  <rect x="3" y="25" width="1" height="1" fill="#2337471e"/>
  <rect x="4" y="25" width="1" height="1" fill="#1d324229"/>
  <rect x="5" y="25" width="2" height="1" fill="#1d32402f"/>
  <rect x="7" y="25" width="1" height="1" fill="#1f31402f"/>
  <rect x="8" y="25" width="1" height="1" fill="#2232412f"/>
  <rect x="9" y="25" width="4" height="1" fill="#23313f2f"/>
  <rect x="13" y="25" width="2" height="1" fill="#2331412f"/>
  <rect x="15" y="25" width="1" height="1" fill="#2333422d"/>
  <rect x="16" y="25" width="1" height="1" fill="#23334228"/>
  <rect x="17" y="25" width="1" height="1" fill="#2333421f"/>
  <rect x="18" y="25" width="1" height="1" fill="#2333421a"/>
  <rect x="19" y="25" width="1" height="1" fill="#1f31401d"/>
  <rect x="20" y="25" width="1" height="1" fill="#1f314023"/>
  <rect x="21" y="25" width="2" height="1" fill="#1f314229"/>
  <rect x="23" y="25" width="1" height="1" fill="#1c304023"/>
  <rect x="24" y="25" width="1" height="1" fill="#20344618"/>
  <rect x="25" y="25" width="1" height="1" fill="#1e34480d"/>
  <rect x="3" y="26" width="1" height="1" fill="#2236510a"/>
  <rect x="4" y="26" width="1" height="1" fill="#1e334e0e"/>
  <rect x="5" y="26" width="3" height="1" fill="#1e334c0f"/>
  <rect x="8" y="26" width="1" height="1" fill="#21344d0f"/>
  <rect x="9" y="26" width="4" height="1" fill="#21344b0f"/>
  <rect x="13" y="26" width="2" height="1" fill="#21344d0f"/>
  <rect x="15" y="26" width="1" height="1" fill="#21364e0f"/>
  <rect x="16" y="26" width="1" height="1" fill="#21364e0e"/>
  <rect x="17" y="26" width="1" height="1" fill="#1f344d0b"/>
  <rect x="20" y="26" width="1" height="1" fill="#1e354d0a"/>
  <rect x="21" y="26" width="1" height="1" fill="#1d344e0d"/>
  <rect x="22" y="26" width="1" height="1" fill="#1b324d0d"/>
  <rect x="23" y="26" width="1" height="1" fill="#1b324d0a"/>
</svg>