<svg xmlns="http://www.w3.org/2000/svg" width="80" height="40" viewBox="0 0 80 40" shape-rendering="crispEdges">
  <rect x="17" y="0" width="1" height="1" fill="#d6d8d91e"/>
  <rect x="18" y="0" width="1" height="1" fill="#d6d8d9ba"/>
  <rect x="19" y="0" width="1" height="1" fill="#d6d8d9f3"/>
  <rect x="20" y="0" width="1" height="1" fill="#d6d7dbba"/>
  <rect x="21" y="0" width="1" height="1" fill="#d6d7db1e"/>
  <rect x="57" y="0" width="1" height="1" fill="#babcbd1e"/>
  <rect x="58" y="0" width="1" height="1" fill="#babcbdba"/>
  <rect x="59" y="0" width="1" height="1" fill="#babcbdf3"/>
  <rect x="60" y="0" width="1" height="1" fill="#babcbdba"/>
  <rect x="61" y="0" width="1" height="1" fill="#babcbd1e"/>
  <rect x="17" y="1" width="1" height="1" fill="#d6d8d9bb"/>
  <rect x="18" y="1" width="2" height="2" fill="#d6d8d9"/>
  <rect x="20" y="1" width="1" height="2" fill="#d6d7db"/>
  <rect x="21" y="1" width="1" height="1" fill="#d6d7dbbf"/>
  <rect x="57" y="1" width="1" height="1" fill="#babcbdbb"/>
  <rect x="58" y="1" width="3" height="2" fill="#babcbd"/>
  <rect x="61" y="1" width="1" height="1" fill="#babcbdbf"/>
  <rect x="17" y="2" width="1" height="1" fill="#d6d8d9f9"/>
  <rect x="21" y="2" width="1" height="1" fill="#d6d7dbfc"/>
  <rect x="57" y="2" width="1" height="1" fill="#babcbdf9"/>
  <rect x="61" y="2" width="1" height="1" fill="#babcbdfc"/>
  <rect x="17" y="3" width="3" height="1" fill="#d6d8d9"/>
  <rect x="20" y="3" width="2" height="1" fill="#d6d7db"/>
  <rect x="57" y="3" width="5" height="15" fill="#babcbd"/>
  <rect x="17" y="4" width="5" height="2" fill="#d6d7db"/>
  <rect x="17" y="6" width="3" height="2" fill="#d6d7db"/>
  <rect x="20" y="6" width="2" height="2" fill="#d6d8d9"/>
  <rect x="17" y="8" width="5" height="2" fill="#d6d8d9"/>
  <rect x="17" y="10" width="3" height="6" fill="#d4d9d9"/>
  <rect x="20" y="10" width="2" height="6" fill="#d6d8d7"/>
  <rect x="17" y="16" width="5" height="2" fill="#d6d8d9"/>
  <rect x="0" y="18" width="1" height="1" fill="#d6d8d91e"/>
  <rect x="1" y="18" width="1" height="1" fill="#d6d8d9ba"/>
  <rect x="2" y="18" width="1" height="1" fill="#d6d8d9f9"/>
  <rect x="3" y="18" width="1" height="1" fill="#d6d8d9"/>
  <rect x="4" y="18" width="2" height="2" fill="#d6d7db"/>
  <rect x="6" y="18" width="4" height="5" fill="#d6d8d9"/>
  <rect x="10" y="18" width="2" height="2" fill="#d4d9d9"/>
  <rect x="12" y="18" width="25" height="1" fill="#d6d8d9"/>
  <rect x="37" y="18" width="1" height="1" fill="#d6d8d9f9"/>
  <rect x="38" y="18" width="1" height="1" fill="#d6d8d9ba"/>
  <rect x="39" y="18" width="1" height="1" fill="#d6d8d91e"/>
  <rect x="40" y="18" width="1" height="1" fill="#babcbd1e"/>
  <rect x="41" y="18" width="1" height="1" fill="#babcbdba"/>
  <rect x="42" y="18" width="1" height="1" fill="#babcbdf9"/>
  <rect x="43" y="18" width="34" height="1" fill="#babcbd"/>
  <rect x="77" y="18" width="1" height="1" fill="#babcbdf9"/>
  <rect x="78" y="18" width="1" height="1" fill="#babcbdba"/>
  <rect x="79" y="18" width="1" height="1" fill="#babcbd1e"/>
  <rect x="0" y="19" width="1" height="1" fill="#d6d8d9bb"/>
  <rect x="1" y="19" width="3" height="1" fill="#d6d8d9"/>
  <rect x="12" y="19" width="27" height="3" fill="#d6d8d9"/>
  <rect x="39" y="19" width="1" height="1" fill="#d6d8d9bf"/>
  <rect x="40" y="19" width="1" height="1" fill="#babcbdbb"/>
  <rect x="41" y="19" width="38" height="3" fill="#babcbd"/>
  <rect x="79" y="19" width="1" height="1" fill="#babcbdbf"/>
  <rect x="0" y="20" width="1" height="1" fill="#d6d7dbf3"/>
  <rect x="1" y="20" width="5" height="2" fill="#d6d7db"/>
  <rect x="10" y="20" width="2" height="3" fill="#d6d8d7"/>
  <rect x="39" y="20" width="1" height="1" fill="#d6d8d9f9"/>
  <rect x="40" y="20" width="1" height="1" fill="#babcbdf3"/>
  <rect x="79" y="20" width="1" height="1" fill="#babcbdf9"/>
  <rect x="0" y="21" width="1" height="1" fill="#d6d7dbbb"/>
  <rect x="39" y="21" width="1" height="1" fill="#d6d8d9bf"/>
  <rect x="40" y="21" width="1" height="1" fill="#babcbdbb"/>
  <rect x="79" y="21" width="1" height="1" fill="#babcbdbf"/>
  <rect x="0" y="22" width="1" height="1" fill="#d6d8d91e"/>
  <rect x="1" y="22" width="1" height="1" fill="#d6d8d9bb"/>
  <rect x="2" y="22" width="1" height="1" fill="#d6d8d9f9"/>
  <rect x="3" y="22" width="1" height="1" fill="#d6d8d9"/>
  <rect x="4" y="22" width="2" height="1" fill="#d6d7db"/>
  <rect x="12" y="22" width="25" height="1" fill="#d6d8d9"/>
  <rect x="37" y="22" width="1" height="1" fill="#d6d8d9fa"/>
  <rect x="38" y="22" width="1" height="1" fill="#d6d8d9bb"/>
  <rect x="39" y="22" width="1" height="1" fill="#d6d8d91f"/>
  <rect x="40" y="22" width="1" height="1" fill="#babcbd1e"/>
  <rect x="41" y="22" width="1" height="1" fill="#babcbdbb"/>
  <rect x="42" y="22" width="1" height="1" fill="#babcbdf9"/>
  <rect x="43" y="22" width="34" height="1" fill="#babcbd"/>
  <rect x="77" y="22" width="1" height="1" fill="#babcbdfa"/>
  <rect x="78" y="22" width="1" height="1" fill="#babcbdbb"/>
  <rect x="79" y="22" width="1" height="1" fill="#babcbd1f"/>
  <rect x="17" y="23" width="5" height="14" fill="#d6d8d9"/>
  <rect x="57" y="23" width="5" height="14" fill="#babcbd"/>
  <rect x="17" y="37" width="1" height="1" fill="#d6d8d9f9"/>
  <rect x="18" y="37" width="3" height="2" fill="#d6d8d9"/>
  <rect x="21" y="37" width="1" height="1" fill="#d6d8d9fc"/>
  <rect x="57" y="37" width="1" height="1" fill="#babcbdf9"/>
  <rect x="58" y="37" width="3" height="2" fill="#babcbd"/>
  <rect x="61" y="37" width="1" height="1" fill="#babcbdfc"/>
  <rect x="17" y="38" width="1" height="1" fill="#d6d8d9bb"/>
  <rect x="21" y="38" width="1" height="1" fill="#d6d8d9bf"/>
  <rect x="57" y="38" width="1" height="1" fill="#babcbdbb"/>
  <rect x="61" y="38" width="1" height="1" fill="#babcbdbf"/>
  <rect x="17" y="39" width="1" height="1" fill="#d6d8d91e"/>
  <rect x="18" y="39" width="1" height="1" fill="#d6d8d9bb"/>
  <rect x="19" y="39" width="1" height="1" fill="#d6d8d9f4"/>
  <rect x="20" y="39" width="1" height="1" fill="#d6d8d9bb"/>
  <rect x="21" y="39" width="1" height="1" fill="#d6d8d91f"/>
  <rect x="57" y="39" width="1" height="1" fill="#babcbd1e"/>
  <rect x="58" y="39" width="1" height="1" fill="#babcbdbb"/>
  <rect x="59" y="39" width="1" height="1" fill="#babcbdf4"/>
  <rect x="60" y="39" width="1" height="1" fill="#babcbdbb"/>
  <rect x="61" y="39" width="1" height="1" fill="#babcbd1f"/>
</svg>