<svg xmlns="http://www.w3.org/2000/svg" width="258" height="40" viewBox="0 0 258 40" shape-rendering="crispEdges">
  <rect x="2" y="0" width="1" height="1" fill="#0000000b"/>
  <rect x="3" y="0" width="1" height="1" fill="#00000010"/>
  <rect x="4" y="0" width="1" height="1" fill="#00000015"/>
  <rect x="5" y="0" width="1" height="1" fill="#00000019"/>
  <rect x="6" y="0" width="1" height="1" fill="#0101011c"/>
  <rect x="7" y="0" width="1" height="1" fill="#0000001e"/>
  <rect x="8" y="0" width="1" height="1" fill="#0101011f"/>
  <rect x="9" y="0" width="240" height="1" fill="#0303031f"/>
  <rect x="249" y="0" width="1" height="1" fill="#0303031e"/>
  <rect x="250" y="0" width="1" height="1" fill="#0303031c"/>
  <rect x="251" y="0" width="1" height="1" fill="#03030319"/>
  <rect x="252" y="0" width="1" height="1" fill="#01010115"/>
  <rect x="253" y="0" width="1" height="1" fill="#00000010"/>
  <rect x="254" y="0" width="1" height="1" fill="#0505050b"/>
  <rect x="1" y="1" width="1" height="1" fill="#0000000c"/>
  <rect x="2" y="1" width="1" height="1" fill="#00000014"/>
  <rect x="3" y="1" width="1" height="1" fill="#0000001c"/>
  <rect x="4" y="1" width="1" height="1" fill="#01010124"/>
  <rect x="5" y="1" width="1" height="1" fill="#0000002b"/>
  <rect x="6" y="1" width="1" height="1" fill="#0303032f"/>
  <rect x="7" y="1" width="1" height="1" fill="#07070732"/>
  <rect x="8" y="1" width="1" height="1" fill="#05050533"/>
  <rect x="9" y="1" width="240" height="1" fill="#01010133"/>
  <rect x="249" y="1" width="1" height="1" fill="#01010132"/>
  <rect x="250" y="1" width="1" height="1" fill="#0101012f"/>
  <rect x="251" y="1" width="1" height="1" fill="#0202022b"/>
  <rect x="252" y="1" width="1" height="1" fill="#02020224"/>
  <rect x="253" y="1" width="1" height="1" fill="#0000001c"/>
  <rect x="254" y="1" width="1" height="1" fill="#01010114"/>
  <rect x="255" y="1" width="1" height="1" fill="#0505050c"/>
  <rect x="0" y="2" width="1" height="1" fill="#0000000b"/>
  <rect x="1" y="2" width="1" height="1" fill="#00000014"/>
  <rect x="2" y="2" width="1" height="1" fill="#00000020"/>
  <rect x="3" y="2" width="1" height="1" fill="#00000031"/>
  <rect x="4" y="2" width="1" height="1" fill="#02020246"/>
  <rect x="5" y="2" width="1" height="1" fill="#0606064d"/>
  <rect x="6" y="2" width="1" height="1" fill="#0202024d"/>
  <rect x="7" y="2" width="245" height="1" fill="#0000004d"/>
  <rect x="252" y="2" width="1" height="1" fill="#00000046"/>
  <rect x="253" y="2" width="1" height="1" fill="#01010131"/>
  <rect x="254" y="2" width="1" height="1" fill="#00000020"/>
  <rect x="255" y="2" width="1" height="1" fill="#00000014"/>
  <rect x="256" y="2" width="1" height="1" fill="#0000000b"/>
  <rect x="0" y="3" width="1" height="1" fill="#00000010"/>
  <rect x="1" y="3" width="1" height="1" fill="#0000001c"/>
  <rect x="2" y="3" width="1" height="1" fill="#00000032"/>
  <rect x="3" y="3" width="1" height="1" fill="#0000004c"/>
  <rect x="4" y="3" width="1" height="1" fill="#d2d2d2a2"/>
  <rect x="5" y="3" width="1" height="1" fill="#f9f9f9dd"/>
  <rect x="6" y="3" width="1" height="1" fill="#ffffffe6"/>
  <rect x="7" y="3" width="1" height="1" fill="#fcfbfce6"/>
  <rect x="8" y="3" width="243" height="1" fill="#fefefee6"/>
  <rect x="251" y="3" width="1" height="1" fill="#fefefedd"/>
  <rect x="252" y="3" width="1" height="1" fill="#cfcfcfa2"/>
  <rect x="253" y="3" width="1" height="1" fill="#0000004c"/>
  <rect x="254" y="3" width="1" height="1" fill="#01010132"/>
  <rect x="255" y="3" width="1" height="1" fill="#0202021c"/>
  <rect x="256" y="3" width="1" height="1" fill="#00000010"/>
  <rect x="0" y="4" width="1" height="1" fill="#00000015"/>
  <rect x="1" y="4" width="1" height="1" fill="#00000024"/>
  <rect x="2" y="4" width="1" height="1" fill="#02020246"/>
  <rect x="3" y="4" width="1" height="1" fill="#cfcfcfa4"/>
  <rect x="4" y="4" width="248" height="4" fill="#fefefee6"/>
  <rect x="252" y="4" width="1" height="1" fill="#fdfdfde6"/>
  <rect x="253" y="4" width="1" height="1" fill="#c6c6c6a4"/>
  <rect x="254" y="4" width="1" height="1" fill="#00000046"/>
  <rect x="255" y="4" width="1" height="1" fill="#01010124"/>
  <rect x="256" y="4" width="1" height="1" fill="#00000015"/>
  <rect x="257" y="4" width="1" height="1" fill="#0000000a"/>
  <rect x="0" y="5" width="1" height="1" fill="#00000019"/>
  <rect x="1" y="5" width="1" height="1" fill="#0000002b"/>
  <rect x="2" y="5" width="1" height="1" fill="#0303034d"/>
  <rect x="3" y="5" width="1" height="1" fill="#f7f7f7dd"/>
  <rect x="252" y="5" width="1" height="1" fill="#ffffffe6"/>
  <rect x="253" y="5" width="1" height="1" fill="#fefefedf"/>
  <rect x="254" y="5" width="1" height="1" fill="#0000004c"/>
  <rect x="255" y="5" width="1" height="1" fill="#0202022b"/>
  <rect x="256" y="5" width="1" height="1" fill="#00000019"/>
  <rect x="257" y="5" width="1" height="1" fill="#0000000c"/>
  <rect x="0" y="6" width="1" height="1" fill="#0000001c"/>
  <rect x="1" y="6" width="1" height="1" fill="#0101012f"/>
  <rect x="2" y="6" width="1" height="1" fill="#0101014d"/>
  <rect x="3" y="6" width="1" height="1" fill="#ffffffe6"/>
  <rect x="252" y="6" width="1" height="2" fill="#fafafae6"/>
  <rect x="253" y="6" width="1" height="2" fill="#ffffffe6"/>
  <rect x="254" y="6" width="1" height="1" fill="#0707074d"/>
  <rect x="255" y="6" width="1" height="1" fill="#0000002f"/>
  <rect x="256" y="6" width="1" height="1" fill="#0000001c"/>
  <rect x="257" y="6" width="1" height="1" fill="#0000000e"/>
  <rect x="0" y="7" width="1" height="1" fill="#0000001e"/>
  <rect x="1" y="7" width="1" height="1" fill="#06060632"/>
  <rect x="2" y="7" width="1" height="25" fill="#0000004d"/>
  <rect x="3" y="7" width="1" height="1" fill="#f9f9f9e6"/>
  <rect x="254" y="7" width="1" height="27" fill="#0000004d"/>
  <rect x="255" y="7" width="1" height="1" fill="#09090932"/>
  <rect x="256" y="7" width="1" height="1" fill="#0000001e"/>
  <rect x="257" y="7" width="1" height="2" fill="#0000000f"/>
  <rect x="0" y="8" width="1" height="1" fill="#0000001f"/>
  <rect x="1" y="8" width="1" height="1" fill="#05050533"/>
  <rect x="3" y="8" width="249" height="1" fill="#ffffffe6"/>
  <rect x="252" y="8" width="1" height="1" fill="#fefefee6"/>
  <rect x="253" y="8" width="1" height="24" fill="#fdfdfde6"/>
  <rect x="255" y="8" width="1" height="24" fill="#00000033"/>
  <rect x="256" y="8" width="1" height="24" fill="#0000001f"/>
  <rect x="0" y="9" width="1" height="23" fill="#0303031f"/>
  <rect x="1" y="9" width="1" height="22" fill="#02020233"/>
  <rect x="3" y="9" width="250" height="23" fill="#ffffffe6"/>
  <rect x="257" y="9" width="1" height="22" fill="#00000010"/>
  <rect x="1" y="31" width="1" height="1" fill="#01010133"/>
  <rect x="257" y="31" width="1" height="2" fill="#0000000f"/>
  <rect x="0" y="32" width="1" height="1" fill="#0505051e"/>
  <rect x="1" y="32" width="1" height="1" fill="#00000032"/>
  <rect x="2" y="32" width="1" height="1" fill="#0101014d"/>
  <rect x="3" y="32" width="1" height="1" fill="#f3f3f3e6"/>
  <rect x="4" y="32" width="249" height="1" fill="#ffffffe6"/>
  <rect x="253" y="32" width="1" height="1" fill="#f7f7f7e6"/>
  <rect x="255" y="32" width="1" height="1" fill="#00000032"/>
  <rect x="256" y="32" width="1" height="1" fill="#0000001e"/>
  <rect x="0" y="33" width="1" height="1" fill="#0808081c"/>
  <rect x="1" y="33" width="1" height="1" fill="#0000002f"/>
  <rect x="2" y="33" width="1" height="1" fill="#0606064d"/>
  <rect x="3" y="33" width="251" height="1" fill="#ffffffe6"/>
  <rect x="255" y="33" width="1" height="1" fill="#0000002f"/>
  <rect x="256" y="33" width="1" height="1" fill="#0000001c"/>
  <rect x="257" y="33" width="1" height="1" fill="#0000000e"/>
  <rect x="0" y="34" width="1" height="1" fill="#05050519"/>
  <rect x="1" y="34" width="1" height="1" fill="#0000002b"/>
  <rect x="2" y="34" width="1" height="1" fill="#0202024d"/>
  <rect x="3" y="34" width="1" height="1" fill="#f7f7f7dd"/>
  <rect x="4" y="34" width="248" height="1" fill="#ffffffe6"/>
  <rect x="252" y="34" width="1" height="1" fill="#fefefee6"/>
  <rect x="253" y="34" width="1" height="1" fill="#f5f5f5df"/>
  <rect x="254" y="34" width="1" height="1" fill="#0000004c"/>
  <rect x="255" y="34" width="1" height="1" fill="#0202022b"/>
  <rect x="256" y="34" width="1" height="1" fill="#00000019"/>
  <rect x="257" y="34" width="1" height="1" fill="#0000000c"/>
  <rect x="0" y="35" width="1" height="1" fill="#00000015"/>
  <rect x="1" y="35" width="1" height="1" fill="#03030324"/>
  <rect x="2" y="35" width="1" height="1" fill="#00000046"/>
  <rect x="3" y="35" width="1" height="1" fill="#d0d0d0a4"/>
  <rect x="4" y="35" width="249" height="1" fill="#ffffffe6"/>
  <rect x="253" y="35" width="1" height="1" fill="#cdcdcda4"/>
  <rect x="254" y="35" width="1" height="1" fill="#00000046"/>
  <rect x="255" y="35" width="1" height="1" fill="#01010124"/>
  <rect x="256" y="35" width="1" height="1" fill="#00000015"/>
  <rect x="257" y="35" width="1" height="1" fill="#0000000a"/>
  <rect x="0" y="36" width="1" height="1" fill="#00000010"/>
  <rect x="1" y="36" width="1" height="1" fill="#0303031c"/>
  <rect x="2" y="36" width="1" height="1" fill="#00000032"/>
  <rect x="3" y="36" width="1" height="1" fill="#0101014c"/>
  <rect x="4" y="36" width="1" height="1" fill="#c9c9c9a4"/>
  <rect x="5" y="36" width="1" height="1" fill="#ffffffde"/>
  <rect x="6" y="36" width="1" height="1" fill="#ffffffe6"/>
  <rect x="7" y="36" width="1" height="1" fill="#f8f8f8e6"/>
  <rect x="8" y="36" width="243" height="1" fill="#fdfdfde6"/>
  <rect x="251" y="36" width="1" height="1" fill="#fdfdfdde"/>
  <rect x="252" y="36" width="1" height="1" fill="#cbcbcba4"/>
  <rect x="253" y="36" width="1" height="1" fill="#0101014c"/>
  <rect x="254" y="36" width="1" height="1" fill="#00000032"/>
  <rect x="255" y="36" width="1" height="1" fill="#0707071c"/>
  <rect x="256" y="36" width="1" height="1" fill="#00000010"/>
  <rect x="0" y="37" width="1" height="1" fill="#0101010b"/>
  <rect x="1" y="37" width="1" height="1" fill="#01010114"/>
  <rect x="2" y="37" width="1" height="1" fill="#01010120"/>
  <rect x="3" y="37" width="1" height="1" fill="#00000032"/>
  <rect x="4" y="37" width="1" height="1" fill="#00000046"/>
  <rect x="5" y="37" width="1" height="1" fill="#0606064c"/>
  <rect x="6" y="37" width="1" height="1" fill="#0000004d"/>
  <rect x="7" y="37" width="2" height="1" fill="#0202024d"/>
  <rect x="9" y="37" width="242" height="1" fill="#0000004d"/>
  <rect x="251" y="37" width="1" height="1" fill="#0101014c"/>
  <rect x="252" y="37" width="1" height="1" fill="#03030346"/>
  <rect x="253" y="37" width="1" height="1" fill="#03030332"/>
  <rect x="254" y="37" width="1" height="1" fill="#00000020"/>
  <rect x="255" y="37" width="1" height="1" fill="#03030314"/>
  <rect x="256" y="37" width="1" height="1" fill="#0000000b"/>
  <rect x="1" y="38" width="1" height="1" fill="#0101010c"/>
  <rect x="2" y="38" width="1" height="1" fill="#01010114"/>
  <rect x="3" y="38" width="1" height="1" fill="#0000001c"/>
  <rect x="4" y="38" width="1" height="1" fill="#00000024"/>
  <rect x="5" y="38" width="1" height="1" fill="#0202022b"/>
  <rect x="6" y="38" width="1" height="1" fill="#0202022f"/>
  <rect x="7" y="38" width="1" height="1" fill="#00000032"/>
  <rect x="8" y="38" width="241" height="1" fill="#00000033"/>
  <rect x="249" y="38" width="1" height="1" fill="#00000032"/>
  <rect x="250" y="38" width="1" height="1" fill="#0000002f"/>
  <rect x="251" y="38" width="1" height="1" fill="#0000002b"/>
  <rect x="252" y="38" width="1" height="1" fill="#00000024"/>
  <rect x="253" y="38" width="1" height="1" fill="#0000001c"/>
  <rect x="254" y="38" width="1" height="1" fill="#05050514"/>
  <rect x="255" y="38" width="1" height="1" fill="#0202020c"/>
  <rect x="2" y="39" width="1" height="1" fill="#0101010b"/>
  <rect x="3" y="39" width="1" height="1" fill="#00000010"/>
  <rect x="4" y="39" width="1" height="1" fill="#00000015"/>
  <rect x="5" y="39" width="1" height="1" fill="#00000019"/>
  <rect x="6" y="39" width="1" height="1" fill="#0000001c"/>
  <rect x="7" y="39" width="1" height="1" fill="#0000001e"/>
  <rect x="8" y="39" width="1" height="1" fill="#0202021f"/>
  <rect x="9" y="39" width="240" height="1" fill="#0303031f"/>
  <rect x="249" y="39" width="1" height="1" fill="#0303031e"/>
  <rect x="250" y="39" width="1" height="1" fill="#0303031c"/>
  <rect x="251" y="39" width="1" height="1" fill="#03030319"/>
  <rect x="252" y="39" width="1" height="1" fill="#02020215"/>
  <rect x="253" y="39" width="1" height="1" fill="#00000010"/>
  <rect x="254" y="39" width="1" height="1" fill="#0202020b"/>
</svg>