<svg xmlns="http://www.w3.org/2000/svg" width="50" height="50" viewBox="0 0 50 50" shape-rendering="crispEdges">
  <rect x="1" y="0" width="1" height="1" fill="#4367771c"/>
  <rect x="2" y="0" width="1" height="1" fill="#496f7e82"/>
  <rect x="3" y="0" width="1" height="1" fill="#3b6170b5"/>
  <rect x="4" y="0" width="1" height="1" fill="#486a7abf"/>
  <rect x="5" y="0" width="1" height="1" fill="#4a697abf"/>
  <rect x="6" y="0" width="1" height="1" fill="#486a7abf"/>
  <rect x="7" y="0" width="1" height="1" fill="#476b7abf"/>
  <rect x="8" y="0" width="2" height="1" fill="#446b79bf"/>
  <rect x="10" y="0" width="6" height="1" fill="#466a79bf"/>
  <rect x="16" y="0" width="16" height="1" fill="#456b7cbf"/>
  <rect x="32" y="0" width="6" height="1" fill="#436c7cbf"/>
  <rect x="38" y="0" width="6" height="1" fill="#456b7cbf"/>
  <rect x="44" y="0" width="1" height="1" fill="#3c6575bf"/>
  <rect x="45" y="0" width="1" height="1" fill="#3b6675bf"/>
  <rect x="46" y="0" width="1" height="1" fill="#446f7eb5"/>
  <rect x="47" y="0" width="1" height="1" fill="#416c7b82"/>
  <rect x="48" y="0" width="1" height="1" fill="#426d7c1c"/>
  <rect x="0" y="1" width="1" height="1" fill="#4d71801d"/>
  <rect x="1" y="1" width="1" height="1" fill="#466a79b3"/>
  <rect x="2" y="1" width="1" height="1" fill="#5f83926a"/>
  <rect x="3" y="1" width="1" height="1" fill="#c0e4f32e"/>
  <rect x="4" y="1" width="4" height="1" fill="#e3ffff26"/>
  <rect x="8" y="1" width="1" height="1" fill="#e4ffff26"/>
  <rect x="9" y="1" width="1" height="1" fill="#e2ffff26"/>
  <rect x="10" y="1" width="6" height="1" fill="#e4ffff26"/>
  <rect x="16" y="1" width="16" height="1" fill="#e3ffff26"/>
  <rect x="32" y="1" width="12" height="1" fill="#e2ffff26"/>
  <rect x="44" y="1" width="1" height="1" fill="#d6ffff26"/>
  <rect x="45" y="1" width="1" height="1" fill="#e0ffff26"/>
  <rect x="46" y="1" width="1" height="1" fill="#bde5f52e"/>
  <rect x="47" y="1" width="1" height="1" fill="#6a93a26a"/>
  <rect x="48" y="1" width="1" height="1" fill="#4c7484b3"/>
  <rect x="49" y="1" width="1" height="1" fill="#4770801d"/>
  <rect x="0" y="2" width="1" height="1" fill="#436d7a82"/>
  <rect x="1" y="2" width="1" height="1" fill="#6c909f65"/>
  <rect x="2" y="2" width="1" height="1" fill="#e4ffff0c"/>
  <rect x="47" y="2" width="1" height="1" fill="#f3ffff0c"/>
  <rect x="48" y="2" width="1" height="1" fill="#5a7e9065"/>
  <rect x="49" y="2" width="1" height="1" fill="#466d7d82"/>
  <rect x="0" y="3" width="1" height="1" fill="#456e7bb5"/>
  <rect x="1" y="3" width="1" height="1" fill="#6087950c"/>
  <rect x="48" y="3" width="1" height="1" fill="#6187980b"/>
  <rect x="49" y="3" width="1" height="1" fill="#43697ab6"/>
  <rect x="0" y="4" width="1" height="2" fill="#466878bf"/>
  <rect x="49" y="4" width="1" height="1" fill="#3d6877bf"/>
  <rect x="49" y="5" width="1" height="1" fill="#406b7abf"/>
  <rect x="0" y="6" width="1" height="1" fill="#466a79bf"/>
  <rect x="49" y="6" width="1" height="1" fill="#426b7bbf"/>
  <rect x="0" y="7" width="1" height="1" fill="#446b79bf"/>
  <rect x="49" y="7" width="1" height="1" fill="#416a7abf"/>
  <rect x="0" y="8" width="1" height="1" fill="#426b79bf"/>
  <rect x="49" y="8" width="1" height="2" fill="#446a7bbf"/>
  <rect x="0" y="9" width="1" height="1" fill="#416c79bf"/>
  <rect x="0" y="10" width="1" height="2" fill="#426d7abf"/>
  <rect x="49" y="10" width="1" height="36" fill="#426b7bbf"/>
  <rect x="0" y="12" width="1" height="4" fill="#436d7abf"/>
  <rect x="0" y="16" width="1" height="4" fill="#426b7bbf"/>
  <rect x="0" y="20" width="1" height="2" fill="#446a7bbf"/>
  <rect x="0" y="22" width="1" height="4" fill="#426b7bbf"/>
  <rect x="0" y="26" width="1" height="6" fill="#416c7bbf"/>
  <rect x="0" y="32" width="1" height="14" fill="#426b7bbf"/>
  <rect x="0" y="46" width="1" height="1" fill="#426b7bb5"/>
  <rect x="1" y="46" width="1" height="1" fill="#426b7b0a"/>
  <rect x="49" y="46" width="1" height="1" fill="#426b7bb6"/>
  <rect x="0" y="47" width="1" height="1" fill="#426b7b82"/>
  <rect x="1" y="47" width="1" height="1" fill="#426b7b52"/>
  <rect x="48" y="47" width="1" height="1" fill="#426b7b52"/>
  <rect x="49" y="47" width="1" height="1" fill="#426b7b82"/>
  <rect x="0" y="48" width="1" height="1" fill="#426b7b1e"/>
  <rect x="1" y="48" width="1" height="1" fill="#426b7bb3"/>
  <rect x="2" y="48" width="1" height="1" fill="#426b7b53"/>
  <rect x="3" y="48" width="1" height="1" fill="#426b7b0a"/>
  <rect x="46" y="48" width="1" height="1" fill="#426b7b0a"/>
  <rect x="47" y="48" width="1" height="1" fill="#426b7b53"/>
  <rect x="48" y="48" width="1" height="1" fill="#426b7bb3"/>
  <rect x="49" y="48" width="1" height="1" fill="#426b7b1e"/>
  <rect x="1" y="49" width="1" height="1" fill="#426b7b1d"/>
  <rect x="2" y="49" width="1" height="1" fill="#426b7b82"/>
  <rect x="3" y="49" width="1" height="1" fill="#426b7bb5"/>
  <rect x="4" y="49" width="42" height="1" fill="#426b7bbf"/>
  <rect x="46" y="49" width="1" height="1" fill="#426b7bb5"/>
  <rect x="47" y="49" width="1" height="1" fill="#426b7b82"/>
  <rect x="48" y="49" width="1" height="1" fill="#426b7b1d"/>
</svg>